<?xml version="1.0" encoding="utf-8" ?>
<svg baseProfile="full" height="1024" version="1.1" width="1024" xmlns="http://www.w3.org/2000/svg" xmlns:ev="http://www.w3.org/2001/xml-events" xmlns:xlink="http://www.w3.org/1999/xlink"><defs /><polygon fill="black" points="1002.7907820409064,288.68135195221646 1002.6422226988687,286.5141537129342 1004.0498888924978,275.8131134394291 1005.8247647522219,270.3086393773258 1005.8311668150716,269.16333724396907 1010.3170462914287,260.20383374118126 1022.7797472549495,234.28050944397683 1024.0,231.23285442044175 1023.3978546131891,215.4803650883863 1019.2729454185053,206.59433136515156 1016.5734908463563,201.98706101351945 1010.0888287275784,196.94322081272082 1003.3024943271566,190.8020010898084 995.9703781479252,188.03154626449816 990.3473378698226,183.00898488354403 987.0245747139738,175.55267450300755 980.2110979853613,163.3952663624832 976.7611587818725,160.21390001790712 966.9450513539956,151.50658843259464 956.5188493785104,145.9089685931349 945.2092644698002,140.26074933677126 935.0799436966091,138.02238263495735 931.2899464580868,137.6704952745747 917.2484372208706,133.44107436081651 913.9312278692225,130.29791906886305 910.9825426868841,126.89245618407563 905.9477445075602,123.40135507444063 899.6311852301343,122.73735517378088 895.4463108830482,123.6056743066207 883.1423747663024,117.76988174844405 870.3052199897543,109.66293771036464 860.2144321485789,103.58941359626476 845.5113861401754,90.6390367268848 827.4093182730184,74.52692732260869 819.6504244141973,72.94954454260869 810.8602876022005,73.45565070388818 800.8244905136685,78.77951532347072 797.0731266195438,80.55169778130914 784.2192330114922,90.98092124941422 779.046719751951,98.08393981454617 764.6924916428368,121.36922921601558 762.3846505758179,127.07997990475337 760.5169086426649,128.5246158447884 755.880594777175,129.591915907636 750.5762022439534,132.32201077466732 745.060926546432,132.3353165068006 730.6438480830994,128.85890821988733 720.8122372089039,123.94874209424847 705.628317020273,108.69184920346095 684.3877137717062,86.60211106475913 680.94268931415,78.75973749115246 675.9872971189626,71.14887003513638 670.9928297308977,68.08269474697158 657.096911856066,63.23563047845221 645.76013494736,59.50201832056962 636.3165921898976,54.64117340744406 627.1860313407656,49.679621670595566 620.1105654648011,46.24611019764859 613.6237653777167,42.09089762781912 608.2733863160703,37.6047400831651 601.0377765620282,34.46489462244165 592.254518276843,30.816362671281695 591.2185930853849,30.807615838090555 582.4307044550454,32.3380006696425 573.6451189902899,36.97985607459282 571.0606954874758,36.974243084746945 564.9489037975428,33.81571029743009 554.8998582735416,32.1566598269078 551.8287034697274,24.08784531869901 538.9550773797932,20.416227774094295 534.4680261124722,23.503052437693327 530.8607653826855,21.303196835898802 523.5044944872037,15.60120160441727 523.501008261194,4.710567826687452 521.4344136643243,1.6016203800631956 519.8900006315662,1.5925204952117156 515.2364408348005,0.029373690035868094 502.8197042988922,0.0 498.1681252585296,1.5483540715536037 497.13030420404397,2.5793156662563206 494.0232468562195,4.12867746780762 490.4124514180816,7.22960109901112 485.7617798370133,10.32962893830097 482.1262955314613,12.390189688504165 475.92243458573876,13.933118678606093 472.8200207966928,17.034208683719157 471.2676823220619,19.112812935674924 468.16521737405594,22.213883268932136 465.05991595025284,24.794935160822206 459.88610684436526,29.450096550590615 457.2967426152637,32.039633895952306 450.5775846682088,30.986202321817927 450.5689339598286,41.38526444526792 443.73564169152746,43.555262848078996 441.6491832969527,43.03735731249628 439.42875646433805,41.89977360431362 435.23806509862544,43.08565178628305 432.21286148442545,45.168233817447685 430.4185159875469,45.345698625478235 428.3836165936041,41.48540266651298 425.72024843594,35.242353423607256 422.9926674761415,34.709691413515316 419.74789876582895,36.52858945836272 418.25478615862914,42.34530186275629 419.2613529987401,49.85271224210237 420.49213736952527,55.28397920767941 423.54403095150155,59.843601320978905 424.6894352274846,61.26809941925592 424.6897218304155,63.083910986257024 422.6351141414501,65.45064076536221 420.50611623880656,65.66316096319804 419.3743560054535,68.68294026839578 421.1867078965271,72.9214202423558 422.4917790633407,76.6234011732871 421.0602875856265,78.26113041443523 417.4915120773628,76.25619668497234 414.8587626254918,73.42587829862771 413.6494042971036,71.50877312509363 410.1646691953095,66.9581686424051 405.70013392364086,66.10414811833527 402.7020714523338,59.22172175550679 401.32107465104747,57.13111875326456 396.83274717572635,54.058646308869584 393.6661816020539,55.95590374776259 393.9689820631532,59.88911593535113 392.0527962294159,63.05425094003999 389.2996933766156,61.53795956059719 386.1426991048509,61.25798237646245 385.7190532624919,62.08369633959603 383.2692219052816,70.63052881920134 383.97964162399023,73.78651879982976 383.8780675749911,76.24248483374402 378.01115765764087,77.77384536803709 370.3062906586638,79.58327735622493 366.12689242136054,81.88601938819625 358.94390669833496,80.61668958030566 353.76028611962494,80.08745766023424 352.71867708542294,82.68618060073356 352.7220457624968,94.08901366061798 353.65062889957574,98.95078111972248 353.25803791474107,102.23466627833432 352.39292908585696,105.40098974209252 348.57844941503544,103.33466174737657 345.1451529452649,102.9930080708142 345.5746971906009,104.77538880572763 347.6527352835434,111.2690707201134 349.06225585202117,117.1097492870382 351.7567740532687,122.15127270732296 355.09438621336756,123.91306871123163 357.19165934787225,126.98659326193001 358.3605095510172,130.8774000248518 353.6967408943856,133.97635625384714 351.7604262147948,137.86821699498887 351.7509404772604,142.53559385306016 352.5263017926225,144.2993527208207 355.6095294007099,146.7555961307021 354.5212939603876,152.37587049809883 349.80313960749766,151.44008814952758 345.129794092216,151.00467191596738 341.51927040285426,151.25722810833895 340.1996650665481,156.62989602885682 339.50556757685877,157.27639955571863 336.32381282451433,162.54079974826527 333.3093724799953,163.92038960112814 327.67449354062524,161.95355986179197 324.3986443576828,160.57451360592063 319.44585968009136,156.64066592765187 317.5791398372638,153.17681367185628 315.0379204709956,150.09570871407948 312.94536384921184,151.05595255479432 308.4559105181123,152.33354480922435 304.86454308988056,152.11903588681457 300.9594716724188,153.8613392063429 296.16337098487895,156.89674511966268 295.6102859202082,157.0540279119822 293.35171007237363,159.5347902666166 291.030599586512,160.76330678290356 286.4592141869496,158.99670090541667 283.90982258020125,157.5402336875011 281.3995962739429,159.63081294358346 280.22772782386465,162.72693547558708 280.3413326041635,163.1960090994137 285.79894292312224,169.16171112775544 284.86306700320137,171.54277167612713 282.46781482484533,174.92304365233758 279.4693127955045,175.33987962139076 276.6210393136719,172.68811148315365 274.9316076888363,170.20609753996848 272.2799289238699,168.05727016513447 269.5189462115348,166.54031396110213 261.57196718415645,163.91242875770456 259.6240857316784,162.35628625307277 254.17366300290774,158.4622137804248 249.8959301214454,157.29741601590445 244.83981523844662,151.86212939359268 241.32494829771528,146.43246031327806 239.78413446678317,143.70501774605452 237.82905023754938,143.70860955450576 234.72515694200743,141.37727139447588 232.77424811033777,138.6591350229197 228.101796960837,137.49968128463445 224.60173065061335,137.5015149874722 223.82963837481284,139.83652304478687 218.07501140777163,143.63511552601835 216.42671063208206,138.28961231918277 216.42754851360635,132.85010753933022 213.3229867624493,131.68859154695986 209.04315816976725,132.457119890914 203.58452285333237,135.58622550977168 200.86044059778018,139.0825156274567 198.06486958495827,145.45375744985915 197.80602018864397,148.6342870626845 197.280141346987,149.64910453604148 192.97370935670503,151.5301794539622 191.3196040358525,150.79530056890724 190.235402928945,148.6888594375024 190.3871657085386,146.2296197726705 188.6460412052912,143.23862622969477 184.32304502459627,140.7238376807611 180.0528187931504,136.21932933319567 177.7254580509922,135.56641767754888 176.50982912700516,133.8273895818087 172.4854941538948,129.37979636079547 169.06980273921243,124.86125783613522 166.41943895908474,122.22034715226141 165.02522737211441,122.05853401254205 164.26387640001695,123.30088345686409 163.0850327474981,131.46256423038744 161.01118792791993,133.76320863198703 158.43287487293446,134.47498803836072 156.48924150636014,134.4744383821918 149.0915597925925,137.98040524228304 149.63143480427877,143.2870019137921 146.51692494769563,145.83395672543315 145.71255235055298,148.26178819681206 143.66113838996023,150.79838907185172 139.77390453540679,153.9090271518436 141.61444267301587,159.969022343579 138.96440261061792,161.3173146535413 134.68168607502068,158.2219103083154 130.4009187659687,154.3465125825852 130.0115769459066,147.34434334872992 129.231105196711,138.79177179002454 129.55479685895455,137.61918088012703 131.2417846420134,134.86110373961253 132.8840726026696,129.15698777348734 133.85128912591273,127.42256057434292 133.23837948305365,125.74244731223132 131.518365946186,125.09563186287812 124.59833094034978,128.1910065620949 123.67876855240972,128.9106215060291 120.6258716629603,132.5147352100787 116.18266884890231,134.61230338420853 113.70256236167945,137.34867722187903 110.14686548173131,138.82355557865424 106.28009879563291,138.06280351056455 102.08778412412812,139.24644550072605 99.57213527961835,138.72812072617364 95.03640108087224,135.57523994665587 93.92720752227467,135.39376172327422 89.01859040164341,137.39380082026526 88.20628322674163,138.49707706936204 87.82934916288491,141.44404963243142 86.48520378819086,143.23290371032942 85.71708588962481,143.5284999180118 84.03443915863063,142.47187482675486 84.69039573201403,139.85874251144935 84.47713672248321,138.12447051904735 83.64208665699779,137.45204481868336 82.93102226117058,134.41737291355832 82.01783227601014,132.5451707289792 79.80561627744828,131.6013299471648 79.1838145756191,132.22036051667124 79.1879119036448,134.86105094589698 78.42138581621187,137.50072250466042 77.64829780377715,138.7509085736342 77.35706104524158,140.90310108482788 75.62534811020195,141.38123113294364 74.08666917707988,143.88578875279973 74.37848479116026,144.80079040187218 74.53104206418777,148.96746289404734 74.0831745302392,150.06884660380354 69.15303494919377,155.08274810007663 68.29429180021933,155.3483328342353 67.43622124535739,153.58267795681536 64.5337378957996,154.36569804707563 63.68749420508013,157.44274277096258 62.90956056361677,157.6447068731295 59.50679926599196,156.60724275881216 57.97012433806193,156.5564876689965 56.77476754159415,155.64221224317225 56.527658321333426,154.1145281662035 56.95285246685077,151.90369904766703 56.985122574392356,149.36112214658726 56.38649636480127,147.522712844068 54.5111419871666,143.54174245749243 52.97044055440984,143.06433681199644 52.03519885060903,143.58452088151148 49.33243321793756,147.5477822393765 41.97380926583806,156.45226632416677 40.72133934148742,158.19792556982918 34.30817450080419,173.03770216266685 32.21269117205988,178.10011805089414 25.06179586292942,188.57617432281506 23.758263426846963,194.38346435244944 23.82903023684867,199.75535038133785 26.076749282976603,205.26627237841933 33.02917237767158,216.05001767720455 40.33019816426141,227.11182360042721 50.00051747002542,239.07542329654711 54.27838965111586,243.13414583030112 59.76312978011033,246.78696141319347 62.48155089750258,249.01512285761623 65.71116106208721,251.99140125234578 71.79592666815603,256.312487171199 80.2759262918252,263.3435267817297 83.4982069847138,265.4258161874658 89.19375849634599,267.651923592246 91.99866143963331,269.0526569355609 95.787925814763,271.9570487672353 99.30237032896305,274.27985066761494 104.26088990600206,280.0966047578354 106.01124840542008,283.8882968896489 105.13458191809102,285.6405064704089 102.21457079361018,290.3112513679837 100.17247558098974,292.93324488095345 99.01198086497405,297.2968245936868 99.29726630004137,303.72036906024107 100.50526614406941,323.72417481184243 98.55329911361534,335.52478553002993 89.40222194531303,359.0445747330064 77.0288549061501,391.5197803257023 61.18772463144666,434.5914100495566 46.458963672136356,477.1415798408009 36.49619741830924,494.3949284886214 25.413638194040196,506.47367474485566 16.453216839557907,517.4999390212754 13.918340484074479,521.547366809004 0.14536540327604555,577.6211828683548 0.0,586.0849380759187 32.588800673984025,825.3333183299005 157.39125471216127,853.7538399035145 255.93537813083302,862.0561192397782 421.026276161522,842.3279879014104 468.0871668984439,837.6876685425729 515.2043704651768,828.3367330919225 567.573618535249,810.861951860118 597.8823429100319,795.1399142677585 618.6792821168569,779.8200476547603 629.9013523347041,765.1012798255788 634.1376415583214,753.7796692919197 633.9534651986164,740.4129181094985 631.629219824468,725.4519698233942 632.5077311278516,717.6021632374608 637.3644296536562,712.5784252153704 724.2023563092401,666.8904098087046 733.5418353230536,656.0680208702846 737.755229853428,645.5457815988677 738.2512197253831,637.2958888690775 741.3119122448954,629.4929959618828 748.0209185815783,622.5483076976025 759.4956337059882,614.5053981358001 768.4257934202885,607.6039229486931 777.4066122065024,596.775334153685 782.444213377494,577.8010851701129 784.299977429601,566.6441815609355 785.824306089396,550.7540348894748 789.1147761825632,538.4581802293926 790.6928175128751,534.7503536230345 792.702826552131,531.8251808886207 807.8292218271366,515.6061060112384 820.1015302519673,505.21909409522414 836.8388798099094,488.6268333916419 860.0149524941282,462.7081595934077 911.2735881718452,379.92997375871795 959.9995303040448,327.7063290509061 1002.7907820409064,288.68135195221646" /><circle cx="66.9392869629684" cy="528.581240378021" fill="rgb(100%,100%,100%)" r="16" stroke="grey" stroke-width="8" /></svg>