<?xml version="1.0" encoding="utf-8" ?>
<svg baseProfile="full" height="1024" version="1.1" width="1024" xmlns="http://www.w3.org/2000/svg" xmlns:ev="http://www.w3.org/2001/xml-events" xmlns:xlink="http://www.w3.org/1999/xlink"><defs /><polygon fill="black" points="0.0,19.454886128597764 7.192500400582284,22.65586683411823 29.93288826948274,35.864108584279734 37.03218644336532,50.922912482674974 67.21981765944493,71.25911314204598 175.6005756735983,163.18564537351926 188.92791639594668,162.2631206139638 201.37150991831334,171.98427697402337 253.7722929841535,189.59460293577854 270.63782082307034,200.20088997372653 285.72820927293475,195.74631136636697 339.8284787305579,248.01668868884968 349.57174421938737,260.42302455659296 349.57641328443077,278.16019530524346 395.6219545306744,311.8855089690412 401.8189509772634,302.1478738151689 423.92611351249604,295.98167008354113 444.26481499395925,311.0981962270207 456.1388970648282,332.0325199965989 458.4136961520258,347.48542876450875 499.0575959639191,391.0563621247574 515.8450874983777,418.60512222245916 556.452912987082,448.9119182125617 562.6403462127017,465.7793754226932 583.8275086521204,480.0559715156382 588.2439550547489,498.6897619991132 607.6588271624581,511.1807605705703 635.9117027845065,545.8690371747743 636.8023466966692,550.3089475838656 644.7524847585347,552.9942699499447 677.7848688283638,593.0112189900707 682.2076965006228,605.4351225068273 694.5847071768773,617.8880757782673 709.6053681970812,627.6797520333881 744.9908973448933,670.3191479087125 751.1825812670999,683.6274514253525 767.1133039631817,701.3805442553673 790.2402662001489,702.5631453045962 791.1332800525622,698.1435416215721 789.7359613583938,687.7352510639338 788.177645182995,670.3490222756169 790.1191261258431,661.5409567899595 791.5784208519208,658.314209893946 795.8578333704435,646.970073666075 796.5586704519104,637.3619724904491 797.2981094397376,619.9852828047822 800.6291536556802,606.0908736970958 820.4314116807084,546.6558896006744 829.8253141560103,513.5406696881976 843.0625477560071,479.9412042807394 843.7609854162951,476.57861237799807 848.3913849016408,467.29876820619455 850.0972362152152,464.7814202618822 851.8379882171242,460.0126636324215 854.8414348300705,456.13533674692974 858.0964106700237,450.6726463975863 861.3656744064957,445.8116180029062 869.7323937562558,437.30458880137246 879.2881366047737,421.4909228834832 882.4275227032327,417.3264784380465 901.2477010391028,399.33740499267526 904.7295836610979,396.46202135689214 906.8429567151363,395.1227908931385 915.6810435142698,390.9515905333369 923.6656583442041,388.4050258285925 933.402926107431,385.8497213762325 943.4787730307113,382.33949046411726 949.0538118007115,378.739730313786 952.8089615826774,376.84297574938796 958.9420155969162,371.66483596540377 963.328388465381,366.8029169645892 966.2934879002468,364.1798663010365 970.7223943551988,361.86866545140157 978.6866234663922,360.8834176709411 981.3037337098901,359.7108138430588 992.0580699914389,357.1485828788611 997.1271375866747,356.30805346957686 1004.9054007795871,356.173899819293 1010.4133984738537,357.6978235107817 1011.6236670312987,358.61672715566795 1011.4361103994318,354.4919181605688 1012.8069642394815,351.2650725924346 1014.8590869270654,347.5075025303507 1015.045880232689,346.13193121285826 1014.0825383690899,340.56266956546364 1014.2601873465757,337.81903035696007 1018.8957304011336,331.77387321187234 1019.6444977905282,329.60666097290334 1020.5567090693727,324.9492186802683 1022.2609923166416,321.59560402467906 1024.0,319.90710612550384 1021.2389565381335,311.714144647441 1019.9953385576305,309.76638679341124 1017.7210965526504,307.7238222366802 1012.1900300166611,303.98405420610646 1008.9676724236896,304.98841883866163 993.802459413024,293.82043749106913 990.6106965016734,290.8080396163229 981.1077525008347,284.18744640592314 974.1656570409845,278.7313083653357 969.6411618917457,275.84187565624126 959.3714470531245,268.10728691759283 955.958875610865,265.13652729702943 951.0615222189607,261.8541380472689 944.53630365451,256.82286666546435 939.9005887453421,252.82678326023404 927.7857392583203,243.955128864684 922.6096124135365,239.52843343061193 907.6679376269051,224.3338079819693 901.7891980391197,218.85364535948298 887.9208497186554,204.66201622847177 871.4508623728145,188.62004037047393 863.6381649439709,180.0787046055541 849.9223097973434,163.5657823355482 836.987465125701,149.3555171472559 836.3850236285937,147.7667257315651 833.4957859501644,134.58683879353453 832.6199550703617,132.62381065190266 808.4764638801241,115.72762293405333 804.0329381640755,110.99272273499355 791.1177959952921,98.90682943306308 783.4477357499371,90.98908506853343 764.7883908320928,85.5239140803169 717.8093452593153,136.416271126198 535.4295220389038,219.90849094310795 516.0861248385032,216.1318976373442 431.1672289811972,176.52934046913083 373.16641065284034,159.37599475751142 294.56964584570454,141.82215239816503 189.9229022155238,96.73016333715123 168.5897828643815,77.38100377961553 146.36130460462138,57.11407954890399 66.66626597804793,0.0 44.02413008545856,3.033103259735981 23.146143786936847,10.256026405026091 0.0,19.454886128597764" /><circle cx="736.1264111182008" cy="261.8352007839109" fill="rgb(100%,100%,100%)" r="16" stroke="grey" stroke-width="8" /></svg>