<?xml version="1.0" encoding="utf-8" ?>
<svg baseProfile="full" height="1024" version="1.1" width="1024" xmlns="http://www.w3.org/2000/svg" xmlns:ev="http://www.w3.org/2001/xml-events" xmlns:xlink="http://www.w3.org/1999/xlink"><defs /><polygon fill="black" points="326.51611670114596,6.889502070175581 323.36559650429604,10.235239543489342 312.2298808848675,15.047611790470569 307.4527390710042,20.095594215205324 301.886872330015,22.30203904812265 296.63101633803916,20.963225624313623 292.64606749090416,21.208843867869746 293.4331297436497,18.315536661565943 291.8500527963697,14.622007439949812 286.99013085135675,9.184315573722984 283.1698070922901,2.25611164079055 283.07012720765243,0.0 278.1856750007769,1.3956348293462497 258.77319770928545,2.4389296926696034 251.25749957267675,1.5989880313244385 246.41842382052496,2.5517383486383096 243.7616135822024,4.051844746199436 234.468237983716,12.568207704943006 230.4533958576012,14.45326274094657 220.87298106546427,21.177584191852134 219.02769942010372,23.355578984474732 215.76840504589237,40.767524779179325 212.14784376871992,44.2393474736532 208.05537250480626,44.83231456627561 206.13190787890176,43.94167197258196 200.36540698864695,38.16098916623616 195.34180684116848,39.14429347922305 188.40810035786393,43.80350553484391 186.91638698272385,45.89468948947945 182.70986085947212,55.02603418690683 174.33988966450417,71.87546993828721 175.12614069086848,83.38527449664832 173.8605935193922,97.92706953234688 162.64370666079938,111.97076647652091 143.3568574406958,137.27028681330523 142.21736539035263,141.80258424443593 139.14078421738984,160.49042778224384 136.52525876936696,173.30025421083315 129.3240649522091,179.5150134815715 123.2321575010505,179.48052285448057 121.82655658195709,178.5924024665993 118.75154301830221,172.21651039347523 114.63166956959711,172.6727092637193 100.50780471573697,172.90123935886618 92.06097456589457,174.42188735909212 89.8122685747696,175.58665343720907 80.0703004940582,185.4534823126112 69.89465568231354,192.04550769592072 65.44049972111168,192.75087083931635 53.83538010570267,192.54609939681768 7.682141744480713,207.59665322310457 2.318844098942751,211.16471714917532 0.0,214.55971998757173 0.17320862710401458,219.57302180919692 3.5731045191616304,223.32041003827703 5.765309667943686,223.4316576205248 16.29655051078331,228.03189844620408 22.332814130225703,229.46032997374084 31.559011207949762,229.90992595939485 42.25945039048662,228.9961893315408 62.22657393869006,225.74316983520646 66.28452672026715,225.96686995623463 70.70004458582727,231.10990226206673 79.62257247378247,248.69496935396785 88.98731847544205,262.6678435607233 95.25084086745429,265.93079239290773 102.59805271803569,260.123544303392 106.32720982243343,258.1499009754374 123.77546861277143,254.44005358767765 129.78661077546724,259.70883165450005 135.09642003374438,279.4945290962876 140.2056197924426,287.78702127483564 152.01936007571584,296.55903738673305 162.27893034554717,307.38450388543083 168.27628854101428,317.24186757853977 172.46729021758915,327.73836246903227 171.53320525160632,350.1372293517285 175.24308067098687,357.8223246647344 179.5602697894478,364.1212107783348 182.3169118862301,375.69834497250133 180.43524500655639,382.36928326932025 180.9889515800063,392.19249669022656 186.91234848680023,401.337100483109 189.2257380553256,408.97931001031895 187.07581898767768,414.53283406192827 185.06939562197314,425.3974780930055 184.18429796277132,444.01495442497014 185.06888180953942,454.28371675579706 186.34748580876365,458.8100803221711 200.62053403230945,455.29577259626 205.33003082114203,454.5911250502802 209.44754051770272,455.74753771740825 222.24210913901808,463.4849458508552 233.61369997532236,469.9815816558273 240.12484240695835,478.0204838049199 252.156028666117,490.69969984813997 262.57236578339274,500.5255915800619 268.228839345259,509.37820215650845 270.95620564342136,521.8038715829133 277.43440582144973,528.4426057283326 282.68751561913564,531.0264237255903 322.00064657270974,530.694165192365 323.9697290964239,531.247042704549 330.1002053980244,551.8865749936824 330.6228599342611,559.1990804925035 329.3413529801423,574.0193214339222 332.862888600725,576.7579408827928 340.8835656743333,579.706553758409 367.55036748924886,583.3793795534164 380.3580804823257,586.3246481235296 385.0788094729184,597.7087748129098 376.07727145266864,618.1976724172885 374.9938144323439,624.4216447676606 375.0781118328081,629.2890362714434 378.3003959243921,647.0939203343615 378.8973842056703,659.7869752273565 380.85249718491934,679.1811528217279 380.286866107739,683.5647637341185 384.2918986799011,682.3763133380307 392.39654625462157,677.8825251634981 401.4606222950299,675.5725306695298 407.34030068405474,675.3183160688211 408.59560858855866,679.656751150625 411.86479840046906,686.0734032682335 415.5478538076563,690.6361633009126 416.53648647066143,693.3479384703207 416.89497804488684,706.2254369347538 420.43488833215673,710.6467093260186 422.2815909361762,714.7822517235286 421.8540009763125,719.4741104663706 417.16378208154805,723.0479477690043 421.1544329811159,727.4643375854077 423.7918699284966,732.5493652301609 424.87307338977683,732.97926515629 427.9988850820642,742.3014660563663 427.3009458744826,751.1710962579652 427.88724552869655,759.6827396168812 430.98667312894764,761.6846762933736 435.06258686697953,762.5071865934915 441.06058167608586,766.101844977989 447.1086065227799,768.868784950733 461.2618276828817,774.1368119855579 463.66178040966184,776.6338869475943 466.7703267708104,783.6662923954148 470.79451215882875,786.5851911331952 475.3720605006464,798.2560327322806 473.9750834737156,817.0077480283369 476.5546647988862,824.9585908928376 480.0405607318343,829.4770227236129 493.30437669664855,837.2783837786002 497.24083121475974,837.3990250343755 525.0371332038342,836.6710016983925 526.3549609717046,837.1272334024626 541.2507501142975,872.1890971415992 548.6282635328483,877.7158672611893 570.6393778397421,876.668619382263 573.1268429272277,877.8725862923742 583.9428076066871,888.3816467290138 585.4116558728666,892.6920692434002 588.979697794416,896.857237042664 590.8169817106673,897.6675879657673 599.4048874328952,897.4874527938097 603.8044274528746,895.5913335395654 606.2782768180833,895.7708509907376 611.9341875352579,898.2907090632013 618.8431001257107,900.3062348138055 616.7356997283316,905.9530269778536 612.2297861297739,911.7708024485952 612.9046015502198,915.6911904159726 615.5515031683591,917.8019836690535 622.9531950893355,915.0634858599916 627.2867961588671,917.458242986409 626.1488382686412,926.2665056713439 629.6527615415008,930.7646963177106 650.5326477656446,945.422002489787 665.500468070007,956.2801759338931 674.3131847771899,972.8221301954123 685.8933496471334,990.2840659366532 710.4751229871107,1005.6377440146509 720.2779550112728,1016.0596748170938 731.8583387695019,1024.0 751.2328368021042,1023.7907790635757 764.8820777065898,1018.0607668754337 778.8945672108836,1009.5485693077139 793.1448872870513,1001.8807342421348 811.2796487961706,987.3154368836272 816.476339123793,972.3359624394295 816.5946396865013,968.4017685988475 813.3769142610977,957.0427428066768 809.0236535941173,946.4070878416406 806.4981715060163,922.4483468450285 802.8403566451574,910.4398968263329 799.1165960138322,893.7579177072171 802.0828575796847,878.703349136424 813.7642445919116,873.5334063724416 825.0402449880089,862.0419403188464 832.7965133178918,846.8582770028545 836.9017511521688,831.5514175948547 828.9914862817717,823.1700266976653 828.5889293054686,808.0050242150594 832.9896554540428,801.6884900682651 844.979473329402,795.3249193765615 866.6352127430303,786.446561186667 881.089687979541,781.8137558330991 895.2224599990903,772.3077425394652 906.9051782937966,758.2272119423792 917.4267952169716,717.6966349937682 918.8129876112413,712.7567975489746 919.2651939660201,693.36764517426 922.8164021379126,687.0266728423051 932.7543015687097,684.7729093567651 942.3460680919663,689.9279202087507 954.6382993305147,689.8496190938804 956.2437744867171,688.1064606474604 960.2173347008529,669.6779194685528 959.179752404375,664.4116168109776 952.8471142502412,649.9013227370222 944.5408186841623,621.8165889503048 944.7970328591356,613.9710981472706 956.2784602894683,587.8259471699105 959.0289225767639,569.3935686297668 966.8120025768413,562.7943654814283 982.9647672086802,560.4236356975593 997.2365728823098,564.1919540332785 1010.4049553425207,557.5406492488894 1014.2215816373948,542.5057628009122 1012.609106520693,539.3493135497804 1003.3742452203247,530.4179408774006 993.4272857149758,518.8282782514907 983.988017086027,496.49956660250973 980.2053981980467,480.96457035128526 977.7500474051503,458.74115519426937 980.5340902884192,440.8643336728212 988.4336573461833,441.07770063703686 998.2041769136175,453.97065937922787 1007.4855907447912,454.7964931894204 1008.0971644454901,443.30605069171327 1005.4017864885619,429.76790814093704 1009.4658015697808,415.0943567270723 1010.979539774216,411.974641576845 1016.5735989371843,404.81432466945137 1013.3382352968615,392.9993485591982 1013.941748838479,390.8879328345646 1017.59976039507,385.6385878588236 1017.7965359678473,378.7858614303441 1014.7397828587514,372.57294586090325 1009.5519246355318,365.45306322892316 1005.3084358161225,361.25941770219106 1004.057156359731,355.5379063602735 1004.1881529497238,349.4510015499011 1006.423764652498,338.0854095103789 1010.9803857382708,332.955207920201 1020.5052266565374,327.8139729486711 1020.2227950914204,325.25613675800776 1006.7970414457386,309.7009067720304 1001.7946535269818,309.0440838876681 998.3345526350311,306.74201182843285 997.2964706808286,303.6237162526652 996.0805998845699,295.94847169122295 994.3609015939729,290.7539479055873 995.1965784068778,287.4558896648323 998.9378047085421,282.43690123469946 1005.7267039883174,270.3127458277212 1007.5150577756502,266.19403792505557 1007.4664843224838,263.62318320431575 1001.4412695735051,259.37503765690076 995.8422775980138,256.6415530536873 988.9568612733489,254.88760085130536 977.7112243125346,255.5609005920494 968.8871993250327,250.993269930721 966.4036992375816,249.05450947228132 963.6171232339366,240.08616558466656 957.4658192338571,233.84358946876125 923.0820755393926,211.1216698162815 915.223015853688,204.96078594085498 907.1260390081845,199.61722546761177 905.1012049525042,195.86062394075873 902.2126817299426,180.32847389646315 901.5627365233764,171.40742642452585 903.7483039898995,166.04461402350807 904.3342714358766,162.41608217113208 901.6005310975742,155.43532072384755 898.6313185029985,153.50525958808294 889.6259093218187,151.22162038341003 888.4163445307679,148.0063975934779 886.1357597707052,138.36716824594748 882.0926550775089,131.03089183001873 868.2940226664896,115.71224500918845 863.5636105386046,114.85157145033622 860.0071311126138,116.43496190262226 851.5381281792855,124.77214043555591 848.4707299082287,126.44943774399587 837.496498690558,130.8232646092997 831.9910424175529,132.24498392282555 822.0702800589256,132.22272047117326 801.4771161088311,133.51286239686385 797.0717968276288,132.6217863778952 792.294083202902,127.76265274017953 785.0625904533806,113.42117086540497 784.0017282791607,107.92257777960083 784.5267272119564,101.07385601932992 786.3551145086266,93.63689828270014 791.187774473934,82.15467075083393 793.0831561918118,74.52282522506187 783.8557063128695,75.45106397602478 764.4161266965452,81.10989630858069 749.2458767503618,89.52878582844369 734.0852221909903,100.48371041357564 710.7629570195649,127.51333208623396 703.2705857845968,135.8031812490815 700.3734600191921,136.75446402057526 697.0930015075845,136.0887125260232 694.1275381514314,133.4760622177091 673.0778182959056,117.07065528119153 670.4618141565187,116.5380669581117 644.2708177422953,115.84491476229493 641.3157009537109,114.37131111836095 629.3697235940338,98.01287364696748 617.5603653994312,92.15931474689717 605.2881591446632,87.89322900886282 595.851326589619,82.58635814814761 586.1835810633398,69.44847707374765 575.9931440690983,68.01276885410482 562.9613772911894,70.44839570660668 555.9780664436072,70.33806305419671 542.525880039367,62.37768374116058 539.8648910510957,58.61876186671009 529.6119643078224,35.695325628665955 511.65492423545055,15.681046361302833 500.35446137673654,8.04832767489188 487.28085508351745,3.7132807012723106 484.40256495531565,4.453108697176731 484.750202604333,5.935166915797822 489.89669480041414,10.118610871508508 490.900913099592,17.647262816111265 494.29420359493906,29.235000556319733 496.4754372617804,32.302419145058025 501.13445582587656,35.79673916684442 509.4057372550049,48.88573151222022 511.86863925589176,60.76717216171107 516.8470577404977,65.02673318460484 506.15172856758653,70.66508945656528 502.3271645553627,74.28423504002603 493.8024945379384,80.93824489790495 489.1055753526412,83.46955086255264 480.09875441031613,84.99574930393453 479.0383616443528,86.93166481516255 477.25172535566395,95.14102163791006 475.69119386950496,104.83659382045983 474.31218344527986,110.19698404664871 471.64273801125233,113.66491246837938 476.17547720237246,114.46365507814562 481.32010727155216,116.8335813548365 485.1788330887286,119.65420561092833 491.34004190270576,126.06724095824131 494.0124345749987,132.00624017037592 495.6236887161221,139.90329102951853 495.2692653810974,144.27405732452712 493.7272227079092,148.90943167816818 492.1803868605924,158.87692829068806 488.11884702965267,171.08056944485952 488.62889880811366,180.32134158965664 486.15727455684214,188.39356430486885 476.86787807432046,187.07765482748778 465.9373195902647,186.47271058520607 455.96350563875967,186.49140038566918 452.17827222391156,187.50016990001222 437.7876539224025,186.35569963690773 430.90957415391404,184.1082555395078 427.0487011222754,185.55941839856325 428.1021568783694,190.3132762080271 427.9915757883165,194.04579484976568 432.17304819162973,205.39507022221585 433.4247822216339,207.43424603207427 431.0341418993315,211.404223514774 426.60675173003426,215.4329722157389 422.6967507257312,216.44242676681722 418.64242991449095,215.03951013511346 411.0289717159425,214.17768790865114 399.7066271314258,200.62119395503555 390.42579731455834,182.64983925090166 389.5833387276303,163.27166032938987 379.3576814385229,139.10350999218792 367.82868413460403,110.76665641549687 362.4797328325034,102.10970343682766 345.09949217159016,82.48270436307621 338.9428963722126,72.48194433947515 333.7785877101837,56.618004718853285 334.8499105559801,39.00157533538959 329.7742336013758,20.339970161146425 328.91822186873264,19.488860008540428 327.9850250431008,13.447807961437434 328.29648816825573,8.476940000253649 326.51611670114596,6.889502070175581" /><circle cx="609.5110086969017" cy="559.1074109488682" fill="rgb(100%,100%,100%)" r="16" stroke="grey" stroke-width="8" /></svg>