<?xml version="1.0" encoding="utf-8" ?>
<svg baseProfile="full" height="1024" version="1.1" width="1024" xmlns="http://www.w3.org/2000/svg" xmlns:ev="http://www.w3.org/2001/xml-events" xmlns:xlink="http://www.w3.org/1999/xlink"><defs /><polygon fill="black" points="807.7806731868194,96.34711844735898 799.7602310297731,99.00013220587982 788.3086230152707,102.09807665787878 776.495986485363,102.23538918083398 767.5190365255374,101.80423144470876 758.3314676483458,101.89220664767436 737.1314395272952,99.40306866857543 725.0020698185418,95.52355611102746 708.5501713019072,89.38061457673393 701.392128191548,89.32795905417697 694.3925043300711,90.64743063816286 682.904067829423,87.88166153303928 671.0191851086929,82.06967208420588 659.5239673839502,79.17021859641238 646.0364707733363,75.31481613282597 634.0404237566497,70.9314848900849 625.2655213932356,70.53107671194368 601.5052536889411,68.10597488307076 589.1722697347019,67.87532224184508 576.7608950394193,71.58876037313496 551.1233055995937,75.0747114779532 541.4488445032787,71.94615715674365 529.2325264384914,64.81417215423937 517.9030933384636,56.72732883465801 508.934016601924,49.10175587264473 496.40711319654883,44.22192293887031 486.38989355840823,38.827262574923225 475.838814857018,30.94563158385631 463.8082714201967,23.090554848067768 453.7811229719802,19.68473838926866 443.27176725811415,18.776730817349176 431.77576444146064,20.36150061882529 418.7798334585437,21.459872916740096 408.2407146575923,15.581003947172235 396.67779796496666,4.7354201356668 387.1764019120343,4.814038562212886 367.64244448392583,0.0 345.71285825321576,12.110228041387813 334.2253954806982,13.199968345622779 323.2763327935283,19.739389454268235 316.3234286652243,28.746498389364206 310.90213492641976,40.71748412607553 309.9486748104947,50.67634941991287 303.00576289773454,58.68263193451571 298.50777060027343,55.725010784112214 296.47025397435783,50.27653176693559 289.9340206007466,43.35503291656619 281.4075894628328,35.45312118688855 268.3924226855536,31.061848002581883 255.92023191561685,32.64358920041093 239.46758733303872,32.734674111093454 221.52132235291646,33.8290421171738 206.579949698738,38.373619147518525 195.1566323837485,41.41416626437706 180.26445320162725,50.927368574252455 168.33189158670422,54.95757645020785 157.89510705048107,55.99033585901907 143.45809510261776,57.035101393436435 130.51510519638296,56.08520141723022 119.09206915733412,58.609993537932155 113.6510700035316,63.10251441235505 97.3203655513996,78.07726693114091 86.96604063581232,92.03473442693485 78.55734254250387,100.50768448672125 69.66517635647779,111.97972674182449 58.78699356417614,120.45488015105002 45.37945900761404,124.97323297051435 31.495405419538343,130.48214323279092 18.090647498253503,137.49582812979395 9.204823845807548,147.96314278107263 7.7458606846431195,155.43240802980972 0.3529166779554629,166.40293998262473 0.0,190.2728584793207 1.105302438544864,208.18017910367234 1.6779598158616331,224.60256464764905 2.7480786353020483,235.53359289069215 2.811411461773573,244.9896828731712 4.338420022587205,252.4388974220667 4.892891419881079,262.38684673747287 16.356381825790944,265.83100137829547 29.839500980491557,276.234100457826 42.37840400902575,293.60800052069715 47.10745096969721,315.8118181140336 51.63242820714952,333.40673120093106 55.075361897491184,340.04693521444506 73.064931873653,349.9354964975919 84.33292606734734,354.57042210449947 98.58764747951523,357.08420566474126 104.48535582187507,369.0365048023201 106.53435804657876,380.96267643933845 103.63537650209015,393.41648438809534 92.76353030190931,405.87782914756883 78.37968117151118,417.37913176601273 70.7564984618357,433.03887384215056 66.98662607084152,443.15442371274 65.31482837699693,453.86302526285147 66.24858691908518,471.9176872636334 74.50103167144428,489.78086785902644 78.83712978100257,492.79527391735417 88.1793620793906,497.38471511159105 110.35581254272071,506.5290394297739 123.73920681431628,512.2210420330703 134.3041827838913,532.5778202736758 139.40094099643414,553.4546752809985 145.67803950839124,572.4700096122253 149.81511105382933,597.1201899784046 151.1572069153867,617.1809786111284 150.30939046890893,631.3878241321554 146.0263209518583,643.5632546971924 138.76704294540247,653.1777071013355 134.78045047813512,674.9430604830561 136.46259925405843,688.8236244442742 138.07042302543695,695.7451679851639 151.08212458519978,710.2473876453669 163.68330996843443,715.6885314444662 176.36304639326931,717.8916557462749 181.2413222550896,720.4040279029084 183.27391004385805,726.862247152503 182.83334696960287,737.3104716209701 181.4068236059258,749.2592496852739 180.01829672601568,764.6841911763661 179.61280238661354,782.0969677614731 191.79226575245534,818.8415486184095 202.86314688759268,861.2599407834946 211.11645473605665,880.4248277222251 221.19754419655808,899.7608724735453 228.75809976574746,910.1636399427241 237.77013785899692,914.5829308394184 245.27565674112645,919.0123996831658 252.307055889338,924.4398550264533 255.38121634257416,938.8332999777577 254.44106442631593,950.7782700345114 258.0063586528971,959.7107360228274 266.5184096312923,964.130161839894 278.0677271775251,972.4962164105501 285.6456801058924,974.6485376537322 310.283106304933,977.7272921764719 318.08907980371856,980.4081280166647 323.89886347820334,983.9632465419627 326.95750761654836,987.1089368568444 329.41880726265265,995.897986017285 334.8880929389861,1017.8403602857397 339.0781045910288,1022.2788021031263 354.91847177145326,1024.0 360.1679916324116,1023.1721753790356 363.07136711408,1017.571276091722 365.1964990674248,1008.8650782831797 370.59408725467125,1000.394942617666 376.08861947791706,995.2106119658903 380.93783847935225,989.6366429552303 390.0149574185565,985.0517890090816 400.67981384733616,983.5844105286108 409.2459397567461,981.3598188704008 420.2572190027839,974.9620822276871 430.67395077360726,968.3599190619739 441.87153019426825,951.6220298309788 446.6911152363299,920.3775011124079 452.247569462862,910.6195260845177 468.1866606890722,907.43910747885 479.7957999323782,894.4775361674526 489.19886535903214,867.5476195566127 499.3888331762452,845.1354278632216 514.5620401935777,837.3871193234588 531.0076212699441,832.2044554147512 545.6372217392606,835.0193219444932 549.4897240725234,838.7384506727433 550.9805292440608,847.4924046207991 554.1112825585365,873.413481538989 555.1375075434055,889.093794408139 554.9636838135397,898.9164474058337 562.6095466149627,909.628297516025 564.6778514619625,921.6761508522219 566.4205763148042,934.1002178446973 573.1971286208715,943.3181695061741 582.7629744267889,952.6803898025605 590.822329885595,960.0754020872969 600.8552808165163,965.9549371947196 613.8553732829615,969.8238628346895 624.8674111529075,975.1985031156095 636.4059230913211,982.5698215610709 647.4469902007677,990.938999577083 658.5034692443741,999.8114095322178 669.5343971308469,1005.6855335392767 678.5119790201092,1008.6004249458696 689.9636318245939,1006.9995698220304 699.377156081994,1003.4361406939637 717.133382574802,987.3330897683036 726.0051606133308,980.2913334622802 733.4542541830083,977.2251057886526 790.5650586532074,961.1255559358349 798.1561298067721,955.2905803554643 799.0465126144165,953.6039370426338 810.7833634923768,942.0018847359676 818.9728381090641,937.1008431945766 823.662504927031,936.7902197139597 833.485920846628,935.3209766549543 842.0784636983841,932.129543530404 846.3699980328693,929.1642138808395 865.5908081858324,925.7869040676572 864.0132411494828,921.1253523528351 859.7366587918153,913.5047548840912 855.8048678569133,908.0057304048747 852.4124070225872,901.2003463396798 852.6371415982169,891.3467619755066 850.3851781050741,887.4943088356837 846.3987214455997,883.2247091883671 834.5246966378754,876.8234984559882 828.9912888477614,873.4090727204527 825.9747090528311,870.6418202700526 821.8821262397498,863.7851973587753 821.6506481864724,861.2073968440251 822.9215757513863,852.0504072452352 824.967207478772,847.0797375049875 824.0706494034356,843.7833732195721 821.8809897637284,839.9836978668802 819.7145527171238,832.1042451630987 821.2391301906002,816.7075575069084 818.4995309450532,809.5065045925286 810.2810824587525,798.3161639296236 809.3308807808506,793.132818276483 809.5812787295839,786.5240946230986 808.2665643576813,776.271331343296 808.4253898480289,769.9084845305839 809.8957621930709,764.5506962445952 812.4597651996627,761.7135231937204 816.0870228854038,750.9789794982273 816.7613882908896,742.7300618678958 820.4690336437005,732.9821353428194 822.3079863537097,719.7196957126988 820.5195613863075,708.8470391067713 819.8241646748023,693.656315641558 822.0011650303998,680.6382388683899 822.4007195990964,671.9549895520333 821.6907981028567,668.1299092316884 818.6340178187244,661.0709356236713 815.8405532021956,656.7617584311004 811.4112470293959,651.8196489716444 807.0063817379872,646.0097232709766 802.2844975383683,641.7288027880406 796.1685040582659,637.3635859919242 790.949368411466,632.8505144515942 786.8211731394441,628.4359959880546 779.182578700635,621.4944894695486 776.5995786219738,614.1150960272589 776.8878304248624,610.0527266449428 780.5813881814289,603.6821713443401 786.3003279433813,595.6745561226188 791.3744197712649,590.3927796052144 792.9452266440576,587.4784095749303 796.8502599256589,577.9663959179948 800.9067510006965,560.4678583025841 802.8756877029703,553.6187963695185 804.231412922799,545.2119692575232 805.2337286978149,541.9928283348872 815.1358840166279,527.6068644094487 817.9693980102899,526.2913738838889 823.8322077991961,521.1264595741277 827.999751095586,515.7790016820354 831.3196393423166,509.52532501714677 832.3277074298973,506.050103181684 831.3559315154957,497.35038754824336 831.4275948222763,493.06084262963213 832.4304622145661,484.66105538681745 832.5558948802927,479.24600441509904 834.9877689070188,469.83700275923263 836.6523070362556,468.10248709808445 840.9358196430449,457.2506971270784 846.2414092454156,446.35294674539387 851.2548478473499,434.42802511669265 853.9587184603596,426.11944064240504 855.3402449723728,420.1241129783697 855.2878420728039,416.9697596615965 856.4230300687348,406.2824276674346 858.345079397389,399.5386360547275 860.4205797609816,388.81483838605334 862.8648110901283,381.8344566697739 862.2147922448668,373.86072974247486 862.932092760254,368.20375759481215 862.2674258847833,363.80213738129555 859.3458864088128,353.6115973248933 860.552275962684,349.2519387186452 860.3105793148789,345.80794169701096 858.3906087338189,341.3658722562419 856.0039554495154,338.60452903411556 853.5889169893737,329.0473526812019 851.3841575464919,317.4882420650133 848.9375899480386,312.63792808441303 847.887962795143,308.6508384739186 847.9444924266292,305.2660410936744 849.0942071740673,301.0487232658322 852.195170683778,294.2443624715487 854.4179226975419,285.1551435895864 854.3440469829991,282.7187829251408 846.8962637944094,268.0986343522296 843.4305437819094,251.70438792983782 842.9888333998272,246.67261192500678 845.4222011990313,240.3107791331222 847.2753955433091,237.65053814923192 848.1511971819122,232.51058537974347 847.694999502333,227.1834048438543 847.9690329351188,221.3584022606566 847.4783127744832,210.21189718770245 847.9305448320393,205.21894973981284 849.8227895717164,199.1649134673604 848.8752040969732,195.49633808953195 847.7967016729334,178.09365832092828 843.2966693480605,160.203856400684 841.2125985330944,156.76358239576666 838.2637062067682,154.68912496178757 835.3468309178963,151.17403304490176 828.5325639271703,146.2845801856855 816.4263826204331,136.6935226515601 814.9735098619741,130.7177534234853 813.3819468693962,128.24698897816074 811.9392562989514,119.72764919111523 808.4756989337601,110.74217520649461 808.0762176128505,108.44563363771567 808.4437561207818,101.17231188068092 807.7806731868194,96.34711844735898" /><circle cx="556.928520819576" cy="525.425641413962" fill="rgb(100%,100%,100%)" r="16" stroke="grey" stroke-width="8" /></svg>