<?xml version="1.0" encoding="utf-8" ?>
<svg baseProfile="full" height="1024" version="1.1" width="1024" xmlns="http://www.w3.org/2000/svg" xmlns:ev="http://www.w3.org/2001/xml-events" xmlns:xlink="http://www.w3.org/1999/xlink"><defs /><polygon fill="black" points="847.5553091421265,877.0724617988992 846.1702630024187,872.287367019236 846.2236605013874,869.6111642867587 849.2694224451308,864.0448216437835 855.8617044346562,856.8915816496741 863.3094823729662,851.3121372691514 865.4472432451181,851.2522823772164 875.8026887757528,857.8908000143933 880.963210806339,860.1354092908101 881.1260315808609,852.1042585286543 884.8029311202342,845.4439594216993 898.61112160095,833.3841662354785 902.5115609721167,829.6592866743359 904.3282681684191,823.7104425840126 902.1323514599928,817.1055500835813 899.8523066072145,812.3560168449543 898.469017181665,806.9245401636588 899.2040736666756,804.0896398507348 906.3707690860467,798.1160168829829 907.1709569276203,789.2688838818833 905.2515708201411,783.3180185099773 902.8252875398107,773.0982508154792 908.5614250635969,768.5077309430001 909.8353684795093,766.3274948638697 909.9694706376787,761.7772005885399 907.7533734746231,745.6608376557099 907.2764873765697,738.874918726553 905.0669445808262,732.5201680235004 902.1832678501505,729.9349352010922 894.1992760473748,726.8432876955569 890.76520109078,723.201955623161 888.9088729312665,719.7821420061368 888.7088463088112,709.100816115257 889.5170299774126,704.8029419458564 893.7699223370655,695.1803315271957 895.8084721871408,687.2350288057671 897.4221543100406,678.8866622810759 897.5082883037973,672.3253912682953 896.3191264934136,668.6213017402164 887.539050330678,661.1392204214984 879.3382888219279,655.6505012072057 873.9597421786252,658.8921738768483 867.4370780133297,659.8896518790482 865.1879361554187,658.8949315820033 860.1655244402044,659.322080246907 854.917186855379,660.7931808068179 851.1397280488727,660.7915066083123 842.7511343473286,656.8978762045543 838.6166586791654,650.9382340099094 837.6676596400902,643.6009213313396 834.7109148512378,642.4265388571669 824.8412955698908,634.1673017766948 819.4226520768422,626.8417600691564 818.6172011544116,622.8529193637828 818.7706197193909,618.2953310151212 820.0217288509639,616.2608438132513 829.9079500366015,607.4032242489709 836.6195030118112,599.1872641133973 837.3110901874127,595.963748023579 836.2032365497303,594.1202096893412 828.4300604067404,589.0096230906487 826.526458178659,583.5878140591982 825.9864115906668,579.8074799100259 822.3323868134536,573.9227053556243 816.3931405505066,571.2451445408987 811.4984551910587,570.7953703443193 804.5283395588648,571.8320656315441 798.5920139754352,571.2313913517114 795.6725608633792,568.176705984897 794.3958882304283,550.982807367302 795.4202637193764,547.0654058006131 797.4055153619768,529.4378734691015 799.3367995558017,524.9833049284887 806.7602844535404,515.3368532947438 807.4873658328079,512.5140707201854 806.905740226154,509.25054582059033 800.3803150827374,503.3723212193006 791.0379532304827,499.954841132786 787.1776328307548,499.80020206453423 785.6907648685108,500.98576715940294 781.9985678606663,506.4757782846415 780.0702979406751,507.20946077235544 762.1237487537514,506.13691851234194 757.977511881697,506.43891475914245 752.1929339436417,510.72597174754674 748.0522110350087,511.6135121267547 742.5887868441408,511.4509810723778 735.9078341120855,507.42556637685607 735.1675168883463,505.0479216431329 736.9379431465502,496.295917794842 740.4918977511043,489.47482420836957 743.1690174758439,485.6220303940353 743.9136101614995,482.0591851914695 742.7235731978373,477.74300787941604 733.831313065665,467.55318640610153 732.3587595746557,462.3588906555908 733.1003722885171,460.13360827470433 740.6435731353699,450.2018500318609 742.5610806295039,444.71408632234125 743.1316660788063,440.6534257914219 736.9244491260705,432.01660809564 736.2101552075834,422.6452961990535 737.3831108899424,418.0478124041647 739.4621079183723,416.41929824936074 752.9351334030199,410.96132402216176 754.2706966231435,409.9218443108141 753.6753588875567,400.2746466319819 754.4242190993101,398.0374060375518 759.7625908863907,393.3029143300705 760.6395826280419,383.43459966344165 762.7082938494552,380.6156334983574 770.571822693788,378.398752539543 771.3206905354339,376.1731004151826 765.9769506221728,370.9691533239611 764.9465423495695,365.77636111767947 768.9443112340521,362.6647912709018 769.0990695910574,359.69443055640147 765.532942812729,359.68446341047365 755.7529609430443,362.7162212062261 752.6486439498268,361.2177405102865 751.2995607591978,357.79930451625717 752.1883128073817,353.4977255454379 755.4543270664209,350.6905608039717 769.2448358833013,347.4412456970397 771.3229001378261,345.81236686389286 773.2422379177244,340.9123211058518 767.3022458692926,342.5382339980582 764.9367982075808,342.2364278753886 761.3778213520292,339.86406593290405 754.4199244572955,338.36461623727155 752.7874550522358,333.6083257153183 750.2680160905697,333.30763049474 746.4109001468105,338.4883500543922 741.0894506942215,338.47922842982496 737.6736076551101,336.3926137478285 733.3900231893746,330.3020456020099 733.6849358836224,323.61251337311285 735.6041720871408,323.3321370577172 741.5383384399166,326.4595362168591 746.4118672529453,327.3613750345186 747.7649692610235,326.3238126625437 748.6461372283236,321.27314206540655 747.1666197242025,318.0024564900431 737.530168590942,315.16913865282277 733.8343752252082,315.7476105433183 728.1932220477879,317.8067114304912 724.2125297977428,320.7747942546621 723.1632388909919,328.7842441529273 720.6426455351515,331.4499365996188 717.3894320877233,332.48000199585385 708.0713754622872,330.52030030315734 705.5426544799436,332.1496386917029 703.6247406867365,335.26333863973 700.6661825055343,342.38305793217944 698.4367410680662,344.1501018012018 691.3357962276993,345.0211104279558 688.971468659053,343.9785576730511 686.6100361973732,341.14798891772284 682.9073955080362,338.3179232219586 671.9633439586496,337.6358507609 663.0176857381433,337.7570509147206 657.9232044508899,336.284253680368 651.5521832492742,332.03498228821695 644.4476233945974,326.07042055209376 639.0921588106945,320.597920932089 633.359341619437,315.9461675589682 629.1845154041856,310.4372125699514 620.7170933633546,293.95076231037126 619.313881322644,286.90114951350347 620.2661793508267,283.2780394751611 624.2015762325084,277.42101605034065 635.5762709762126,265.90217316227825 640.3865717483296,261.75904121482495 651.2206582940221,254.6676904392674 655.5087558989472,251.3367320686416 656.7494548910845,248.1082452755246 656.9350461570382,241.27908935686878 655.9733422965414,230.75335065853972 655.8840167510431,224.06586974410175 657.4022129204636,220.819324431705 660.9954978362149,216.71519859614637 669.4820946073847,211.63722703871792 682.2397910662239,210.80892331264351 684.0254547108511,207.55598268427207 683.1316024374752,200.72359946873564 681.9541933206638,196.8620968702644 675.7378900931402,189.11603070293324 674.2471095509403,186.14635163761955 675.1373224872275,182.5849808413965 682.075480233328,173.32659631250692 682.1390242817852,170.96532196650912 684.1254361389172,170.87980088478992 691.0478176169003,158.63605688692178 690.4454349439113,154.38316843427526 678.6726971794656,148.25480781369663 666.9097137893816,144.08397490089692 665.583155427928,141.89008043521596 668.984242861386,135.32759577605214 673.6805123365705,129.8672417951924 678.9831174024922,121.13898488443749 680.6014721950075,119.94389752187715 681.3615516548251,114.66519377082261 683.5323881669369,108.21483130073489 678.3992370587544,94.71597956613243 673.6663761260381,85.19686044765967 669.2036212685314,80.44008482362881 666.8468361056154,80.73014049263338 661.52088731335,83.3736342942658 633.416865162827,106.43529336093104 625.4318255489281,109.67313596111705 620.3915715411567,110.25033477993668 614.4803581223343,108.14906364540798 606.1733579637105,99.18162321843863 602.6285360419628,94.3700308564654 593.2593633632932,85.69241413881718 590.1431986324085,81.06932092374063 585.6751608663836,78.81090582446927 568.8947039485159,75.92997355766988 559.6152868525758,61.56099348598741 554.4264396639222,56.73680746973946 552.6288539844784,55.92538215129514 544.3990657511641,57.03488492252552 528.3181027343853,63.57639141065329 521.8054183325555,65.04563861737506 513.7961101753247,65.4814921297999 509.20433902204167,63.98292251923749 493.35588258736067,52.372140473780405 489.78962977716117,48.06592588984165 484.6068663373642,47.114508119173706 481.66395921239393,50.61315575944843 479.77558006653646,57.04316639845467 482.1392991261746,65.08959355088905 480.61144295751035,67.95228318832244 475.74072160925357,69.73144299663852 462.6431238792938,72.60510640129132 452.5561565744417,72.3050764637461 449.8904248156811,74.08632512112115 443.3525394422724,82.24746802211507 438.46865241165784,84.18007783529106 432.6688368278803,80.46357862355126 424.94554658798836,78.82665584995686 423.01411726476704,76.45106784491611 424.04493743943345,71.85630691484016 429.39033779346914,70.3736553484888 430.29796348383394,68.73397697789198 428.05924214835306,65.47362218269654 416.1897519484852,58.792797020847274 412.3254774767127,57.605411314972116 407.8489374100238,59.6824887852398 401.32413658177313,72.60784490107619 398.5009874059418,75.43745938528969 394.33650939942066,76.62753175849423 388.1327891968843,75.79875639720274 385.6564385741535,73.16633656883357 384.00679950113437,68.3734019889821 382.40682827470454,53.54364734825856 379.6577335210847,47.82237425718927 379.206304667618,43.148068642271824 381.8414283536461,38.301620098905346 387.25958368981634,31.562424983370192 391.7669277520815,27.251515276410828 394.407015343035,22.929893533873837 394.0480049637305,20.9492359808188 389.2871352563163,12.793351149853947 384.30959943231267,1.3723069825958873 381.41380256835095,0.0 377.83382629606626,4.84370287123852 375.23068012997294,4.981981257809821 373.1637045404376,0.0860433048392224 370.3243210250509,1.7674342184290026 370.8895200024864,8.376409414440218 367.8799583100647,16.313935102274854 364.1595092890143,18.392426590218406 360.59019113447005,19.146599608133442 355.68061593822387,17.81756128082486 348.84351052874587,17.094874722796362 346.61773616106353,17.68441721876229 345.10175763438696,19.95299892521564 342.10062778373,32.50160657417723 338.567225591971,30.762060045297858 335.5961431858099,27.659043710468154 330.39850191363394,17.123922414739695 327.8708958226231,14.46170889687562 325.32646910408937,14.453420751354429 322.06420037494007,16.103557692925506 319.3822766512897,20.11703464547861 315.21260306462756,29.040116905440982 316.69511375591054,32.74012195697321 322.5098112698487,38.5199098266977 324.35473381622177,43.63573586083157 324.06472763819596,47.721526818702614 320.9446095158164,50.61715419393852 319.52233642474283,50.103900098374766 308.14131207776904,42.11878664412404 304.12674526835445,42.26539651390863 302.12106208411535,46.058758387131434 295.7987137378698,47.18807723174473 293.49227538653116,48.231527079273405 292.97524812100056,51.72928565804705 295.4879652783838,54.9149879373233 295.4142578299719,56.986658715018166 292.587497899836,58.851032373682756 287.2376225733845,55.44806198958929 282.9841308622425,55.83740503707986 279.44066883661367,63.29232093621806 279.1399915654856,70.77155515772324 281.72636944657137,76.95011539240068 283.6615752175777,85.12158198531824 284.8598045567016,92.38454249754113 284.54979369436995,95.94785779046879 282.1138634795959,100.23554465536677 279.77707377243456,106.65184436225115 277.0595055733035,116.23381804846906 276.05570773838116,123.19817111802956 276.6759032197188,129.52124013787886 276.1308588321616,132.19800319591923 271.5817134157046,141.15593962858304 267.42254334184895,146.92454290853937 261.6728720260175,149.74414907889002 254.83275590457788,150.84097895862112 249.20468772236035,152.99021146872417 244.25391937060064,154.07015404555375 240.09061979703745,154.08553989987774 228.82970402992626,152.3737637712377 221.20046673583616,152.65762869211437 213.4206522568428,153.48580679329928 206.07528604935118,153.09575058084783 197.3534332079647,151.90570967909525 193.39391803684921,152.19367270444457 188.9645049311311,169.2870835432817 191.86758333692558,174.81585152071295 192.25449789523051,183.40285194419312 184.44312768394357,200.07874958473633 179.32608829007427,204.481428370534 177.24080030503544,212.81401173527672 170.58060283522477,221.73148561024618 169.97054506741867,240.46728388590054 166.18827430983913,241.66342802842223 162.47181557249098,247.68885394843824 158.39963699382616,252.67839554518991 154.30784672860798,256.629768259226 151.11920843089038,258.20309533863167 145.8633620938267,258.58912111860275 141.41027512155372,260.84643179307614 136.4135553828282,256.3215540150685 126.90519589689335,241.43676277934537 124.1394025734679,232.89633399292563 120.49515161426329,228.91982875761857 117.53041649687191,227.34934533658395 111.62443517172811,222.7095904066482 105.1188117380531,214.7495109743286 102.83094382074972,213.30037339329328 98.35634136247377,212.60991906619245 93.20885227214126,215.608548040909 91.14110245501438,219.1697689136431 91.13527896914671,227.33290250459186 96.33740907093036,234.45883929333252 96.93301842619348,237.27972177492688 95.14558962810115,242.6298070389547 92.17414874554642,246.03439925076395 82.37694122603897,250.03974572625236 74.6925198461854,250.91210802414298 77.774256268593,262.6903238978141 77.50294481670376,271.507520552012 75.78627286803173,277.8220551498729 75.51670741231213,283.0804560053208 74.58829443584781,287.0290537607002 71.81881565751166,289.78279278546063 68.00426292837192,292.01624330588425 62.084728956808206,298.413276564845 55.62659914468643,299.3557379103213 44.99256752540631,306.67106089735705 37.15045041239629,303.3797067959563 30.02873231440544,300.87638805676704 24.69726391102656,299.8328056107704 17.505749131032587,299.2276764120662 18.131709922962127,338.2414404109335 23.088241354047632,346.6084255348725 20.401001054754346,352.244019686093 11.226187670754848,347.61551801483733 4.782845418677053,347.16761406268904 0.0,355.535225204452 4.8336665496675915,379.5606869130054 14.156533184189211,382.52510020980026 43.626915652592864,393.6471364535124 54.824196999698486,398.47177469547364 64.5218334314552,402.16869222724574 69.38467400719904,406.6373211402148 81.63140421851833,402.8168918803681 84.53945398195889,402.7789701192851 84.83718521599039,407.68980334820367 82.52980873332466,430.27196939382145 83.40284576494278,433.73599169151305 86.32003196916659,436.00580578121946 107.00174505341312,433.66748371785263 117.64803175265467,430.34909694284613 121.94591100691039,428.24742795620773 134.0896060364062,420.63874789526653 136.70791563464712,418.3681439073325 141.56817550448565,415.68979051364147 147.17004087352615,413.9342032791843 152.22422063119555,413.29588025576686 159.7057076728482,413.18150982467955 175.23582421240798,414.0417660918091 181.04091407171182,415.2471776941502 190.20959535929256,414.90314527618705 195.98250761757558,410.69704714086276 212.14734175083495,406.45874243991375 213.3899604706032,397.88219016918765 211.40799943391437,393.46616824961427 208.8964278564786,393.5091816665032 193.98768895464661,396.9721273627787 178.95102006865844,394.7565386829698 172.25276290238278,389.9267341524859 168.4798341979426,388.11676692005835 157.345689851603,384.3419241472375 155.18462093046008,377.7775551033643 155.18133645651167,366.2493966376784 166.01642943176273,366.9290252556698 170.86562617496088,362.044819407932 173.8507826843795,363.1429121116287 176.4867419868164,371.3518773199205 178.7392033344825,375.8232260568212 181.74010168952302,377.6700099826053 185.47723255741053,377.27283456697285 186.9673155671282,375.76471505011136 188.08170043343836,370.52583134866313 189.9339139009271,366.0230636285521 192.9220326695555,363.0159032125738 196.2882223464589,362.9856169124979 200.0255782464687,365.2088987502311 204.15197467071346,369.28863903865135 207.1475600912005,370.0080251656167 209.7649196947496,367.7551312035256 210.50512151328724,364.37450879591836 210.85619322352005,355.7745179009079 213.08644240164918,350.90422926920894 217.9421583653354,349.36527023952385 233.27704103975276,346.6336037120391 240.7657736173845,346.19876664416404 245.61897067716316,345.4083534894869 249.7251381788558,341.26830939548506 259.5023531507579,330.2454834503294 269.1364509998286,320.1679989488863 274.35817611596843,316.015501989659 277.7200219119593,314.48573369644134 280.3451194841716,315.2119340928858 280.722655543885,318.200483068792 279.62111904818454,322.69763883758765 278.514246093924,332.04911147056407 278.5270063746872,337.2834560829293 281.19340186912746,351.4745671486478 289.4634291660035,367.47687840165236 295.8564123115744,376.3938455332085 305.96733613867445,381.53721342326617 310.4685861583089,384.49161310636646 314.61095331200903,394.1771905003153 316.51943171034344,406.8765829453281 317.27579190490553,409.8593565345021 324.4196758640102,418.39090427581334 328.9237719676132,425.6484319487279 325.0424079252179,432.36394323269485 322.7857522036486,442.6900575937874 319.76487249628457,450.52828327028794 305.86933887848454,468.3529496921186 294.49108681699806,484.379901579392 289.73691409939306,493.7758882744679 288.8617156543583,499.2693590834266 290.6329621702936,508.47579871082314 293.84617756228846,512.1767470416069 295.3089386200681,515.3196447648385 289.7783953865207,520.9116852118923 283.6724828225127,525.6429070610493 285.76938614870454,533.201876635857 286.79369728302714,539.9597032226173 284.5299280487654,548.7800158441539 279.47369070657544,556.3966807817259 280.25858684745873,564.9191934058915 275.9723146530359,578.2930869970291 275.2287757979585,588.8407906528678 275.74830397612965,597.6162581358257 282.09813836177256,607.2839792043723 287.69072820233293,616.4657967768708 288.45791341284564,624.2302006394348 291.0027504964668,628.1951068050087 299.87204988088087,630.7916824245244 302.91302138903234,632.2395508273139 308.49851685610525,640.1678813502871 310.0314871614148,643.64997056793 309.79052289972384,649.678432042362 305.96190283271767,661.682571330567 310.08444255939196,660.9884396458484 312.7172576689275,663.5837198069848 319.4708107150262,665.3936938453419 324.7178394273178,665.3545200476311 332.5708442422444,661.1780085763575 336.30511684818237,656.6596385869988 341.1458292701901,646.5142361193223 342.2528895958102,637.1579122517157 347.0889654323769,628.1442834559023 360.1642172177468,615.3249749975355 369.50927743935335,608.137032519779 383.33588678848923,599.423808718258 391.76489559317884,597.4846080039227 395.9313011107498,603.4251610087936 404.84547556483136,609.3586064585603 425.6508549872936,619.4397998350805 439.32483671250947,631.9082260425935 445.8498098002302,641.4070199075206 448.8281704749051,652.6891588183831 446.81318506256264,661.12096569754 447.3225495901163,670.04145788181 441.81867419212335,689.6839885657707 436.0212612696788,703.7198147076956 429.3864761712002,722.9056644981059 422.3976918422057,744.50735763633 418.3217679747322,754.920415172106 407.593052490996,776.378310246159 402.63403796005724,789.8976136590759 400.1165099405475,799.4643872076333 397.8809543147792,809.5618011057621 395.30750543136236,817.3933517772775 392.0466293727741,828.9946709128528 393.00160860384017,834.3137815376479 398.37454294421235,836.6672555157671 403.94500368099887,841.011725553227 413.1677456440723,845.7603051555168 420.90335873285596,845.4600559278955 428.03000137573395,844.5542761394516 434.86063145917865,841.288214213623 439.31523074760094,840.4003485327339 443.47520745381894,842.480395919629 449.1101505747266,850.1971024382804 457.13536937288677,875.1458375032071 460.3974362543558,878.7084913560566 465.45657912102706,879.0088930618741 471.97001205373334,875.1535377036424 484.73944340060734,850.5088369827854 489.78887320158066,846.6429359440638 496.6607795604778,845.6495055748629 501.921413993692,847.2935610713646 507.4882416501394,851.4489895469817 515.915614184916,855.1117796755043 517.3272250032594,858.9805275076094 520.0346711164046,861.8311070008075 526.8586374702622,872.5375383636695 527.7451629741165,876.6955749277995 525.0870585135149,885.9007504746078 506.114048638528,911.5502934527465 506.98537266254533,915.122919983666 513.2227764332865,918.3930534856521 520.3392037785418,916.9199114203541 525.1811675668728,912.2433566268955 530.2920958212686,897.2286888005326 532.7486193076724,892.7913499145761 540.0275642653237,886.9192035919532 543.5125440823659,880.4611200392567 544.722832764249,876.8540965893685 542.8701877616908,871.0394622564835 540.2766403665651,866.0137577989598 540.3431201092657,862.9478923438581 542.2014096011123,860.425769681271 547.0086690851953,859.9596922439091 563.7182759872417,860.2042959664661 568.7393637380507,859.6092844397041 576.9601856093414,856.0206536496169 586.4408989411039,847.7729909730026 592.0233821365516,840.4571319440722 599.5746247704514,831.9322805201716 603.1820986777735,825.0618285136343 604.1423063754728,817.1701798510136 603.2790366539414,808.0358260221511 602.1113638993395,805.5297262927432 597.748025094498,799.9818964558876 597.93828559994,796.8407996124595 599.6982101104057,793.2093314775886 604.612513353634,791.94825936027 614.7929873972533,791.33869941444 619.7437291915686,793.6544335539354 626.1370361569,800.330035211307 628.9982933973937,803.9997767285383 632.8959119843211,806.8315060753832 637.5478062837077,808.2387202107362 641.7730592531271,807.9890381467119 652.2506866885834,802.2269622948279 659.0252340084384,797.372436961572 673.1437997476779,784.3470727492281 678.1277273614604,778.5967442098051 681.4820566961498,766.6726559025951 681.4217648351488,760.8716400100315 685.8725842206563,757.5419640960149 687.5425337703062,751.6313460398345 694.1009358272913,744.6214903718893 696.4178431032145,743.4153910250789 702.7109533832645,744.4451152567003 710.5728637070422,749.765962897658 715.2871023732209,741.8711625323274 719.2842244779025,739.5174752987114 724.2823867056331,740.3990049657097 729.6322376897924,742.7871279360869 734.014558787914,743.9183941139565 735.8523344635456,745.7688991511553 738.5181744984387,751.4258206098951 740.5951816621358,760.9335586554467 740.8803328015274,767.457728062564 739.4185640057946,773.991910113222 738.5137777809965,781.7175941633584 732.3027322590135,813.6252519889081 734.980543617812,824.9117394855726 737.93576335874,834.1238271170446 737.9215978022911,839.7725927428501 734.6796339510418,845.1059891514989 730.2357106863205,850.4459972381021 727.8613750723761,855.479195376934 726.3832099343634,863.7967575046789 729.3444679057138,881.4697413296174 737.9318633364147,890.6992255597208 747.4089005962771,896.9646434813092 765.7779028832077,899.6768108252519 792.4568617260992,894.9724211679744 798.6783460322323,890.8244345816918 804.0268463398742,884.8830254157854 812.3332606856511,867.9579286569017 815.3003477282684,864.3989821299634 818.8506723265698,863.8116852080072 828.3506089293156,865.5963443313517 835.4794561171432,868.2696228629775 838.445319231666,870.0509041516314 843.1830003949019,877.2780687701197 847.5553091421265,877.0724617988992" /><polygon fill="black" points="517.3737489445014,973.6255453096791 507.7250821105985,1007.0366284389122 508.2928351358559,1007.838664036012 507.00632893849456,1014.9921095602452 509.6314672748715,1019.875169105348 510.1778570180236,1022.9018137528759 513.6235197983548,1024.0 516.7272783400196,1022.2420392959756 523.0454065846094,1014.7303313274364 524.3827756119292,1006.5370675610319 526.7822975787668,1000.7195573981014 526.6079838533393,995.7289617722738 521.5644288329552,990.9810724854237 520.1553437150972,986.8018573464776 519.9393245221064,981.917206435063 520.5810338918807,974.1406874335938 517.3737489445014,973.6255453096791" /><circle cx="638.4197144669242" cy="790.8331506241801" fill="rgb(100%,100%,100%)" r="16" stroke="grey" stroke-width="8" /></svg>