<?xml version="1.0" encoding="utf-8" ?>
<svg baseProfile="full" height="1024" version="1.1" width="1024" xmlns="http://www.w3.org/2000/svg" xmlns:ev="http://www.w3.org/2001/xml-events" xmlns:xlink="http://www.w3.org/1999/xlink"><defs /><polygon fill="black" points="1000.8497306208244,497.1574610831951 999.4879564267919,495.63045976533834 996.7237763181787,494.932555876799 991.4445987490353,496.04242954743654 989.4134351199727,495.684398099668 987.5454591665919,496.7038032618526 984.5203480910842,497.1877910889399 981.1181909809592,499.55318681385114 981.1498194428641,501.0132391733488 982.2359170100179,503.4939963291711 981.947995676585,504.8511858444219 979.0003100473508,508.3831017966007 970.7188377685518,508.7192519782001 965.1294950721418,513.9199310884915 962.1604397397919,513.683395621166 959.7030554238343,514.4157674336363 955.430263105595,510.1150771427814 953.5693492441285,508.62268518863664 946.5848527348302,507.42963315214075 940.996265500663,507.50185473678727 939.6982862353509,507.0003353292991 939.2936883566983,504.79715563616253 937.6150544161671,505.14156867013475 934.6735542691649,508.56138888477506 932.1041946319102,508.853088015981 931.5664322243277,507.59224043847416 933.208013637107,506.45132953458835 933.5889295404111,504.17707491950034 932.1670639688941,504.11264320322294 929.9554864118696,506.2999495535609 929.5440553245236,505.2582798408822 931.665447256965,502.66150850346116 933.0205838161057,502.47429063663924 933.0922388786475,499.1400144225502 932.1335789569459,498.22789634811824 930.9693266748413,498.7346083852678 929.160149635185,502.0827951101681 928.3997826725015,500.9457100612726 930.0149558796419,497.6259355306536 931.5384982171731,496.7082647493679 936.4258276258195,497.29962639798265 938.1419724084514,495.3989701151698 935.9682672878937,493.60453660989634 932.8278459686736,492.9447079604452 932.4503992587183,491.5625751354301 933.6502822090442,489.8544129122047 935.080590325558,488.8843684094455 935.3099380471572,487.63950777428425 934.6673162635647,486.27113190064216 931.315835579251,481.4614162270359 930.9900789803421,477.6930208614219 929.727141979121,475.0031507229278 925.6879298275543,472.8866958340948 923.9230141025092,475.4192174666871 921.9972991223311,476.1628079605564 919.1121030037727,475.49846259773597 916.7451859414739,476.13233420452735 914.5986054412571,478.9270531468269 911.9742049331238,476.09955738035245 913.1210656780714,476.22545362145485 913.7432788097473,475.2484932692707 912.4998267884209,473.90897874624875 912.5413799041484,472.9766971978412 911.1072794297309,471.37196861083703 910.7382310079668,474.21443623190765 910.9142855055977,475.7349148806408 909.7601458623008,477.7100005592683 907.8602099878553,477.7271431132759 906.7087337953066,475.9349606678905 906.9245559378962,473.59265756260976 908.1061391040411,471.96484169546056 905.1926515138259,470.90447657770443 904.6738377098563,470.02335339671873 905.3216211003078,467.3564371734287 904.2069064640648,465.84773987368254 902.4785023952277,465.26839120499767 902.1017441196016,464.35305697365067 902.7919198855449,462.1902422431602 901.3232242970955,460.38972625149796 901.1666786390645,459.28715280616217 902.8479722514618,456.1950845221383 903.5284220105301,453.57601070559343 902.4020491067716,449.1139049834438 899.6756341001652,443.329005034116 896.2471984119968,438.1829245668629 893.8842351178213,439.97775634413364 892.078719821479,440.53703307938366 890.5968330378994,439.54908924636646 888.0836080067417,435.6234736244293 885.8721396180887,431.0120006216493 885.7399318484078,428.14898813321054 887.491541501829,425.49124629491706 889.8298389657759,423.53870288467954 892.0392705390648,422.69471694329985 893.9245982278597,420.1207176512644 894.4418992086702,417.0394245112023 894.4465176110253,413.85803078937323 892.8854939897594,409.1150417874138 890.9395135840145,404.50729191568007 887.6788946239054,399.50087832911095 886.1554737104672,395.52320280916734 884.5003128343927,394.5157971935023 881.4433820641365,394.79286183782835 881.3891193861311,397.083178633387 879.9964176360495,400.7594685232496 878.8632362786074,399.79647318560137 879.9358501662759,396.42738319595765 878.9354284628288,395.4939519862761 876.5720969548422,396.2381763998678 875.7465413710498,395.82913814669394 881.3494932545012,392.29304187834134 880.9692467831999,391.7013153954119 876.9329496723615,390.0818468113237 870.9054169243303,387.94366707410654 869.3933370780701,385.93933036145313 870.8030501922264,383.5731933565316 877.6645349069759,379.70336424743806 880.1040909759349,376.32163433867333 882.5343610100763,371.9543435399915 883.5614867787764,370.803679074242 888.0949715104724,372.31764828111676 890.7038495383861,370.1639598141466 892.2112565290471,369.4918736373868 895.0513702287361,369.6293398774261 897.356775233194,370.9614063125983 899.0099333438606,372.3789226217253 900.8855641614997,375.61406342917957 901.7671673837145,375.77678102590136 904.9442067338962,374.9038662940349 906.9113060127563,375.22606819919895 908.5362639133264,376.30434801919927 911.9394730635933,375.9788417416747 913.4264778763105,373.9029137482477 914.6733596036199,370.5782568378117 916.2457427280674,369.6364241623663 918.2865918306995,370.09787787152396 919.4113668157682,368.7322085214553 922.359401681139,366.69660636697364 924.746964156939,366.6698217158686 927.603150662569,364.6429971367004 930.1444250623257,364.14711471931895 930.5727785436192,361.2569793076839 931.5880557368586,360.50948394190215 931.7049277042754,359.3074449397418 930.6331755341018,357.42018736550637 928.6746646329167,355.56926278400806 928.9312316752834,350.87657997360253 928.2942822967835,347.8278438345716 926.6863533627973,345.17202000483957 925.2516473790087,343.4982153733151 924.86426286113,341.1467439560101 925.4339388165082,339.6276206386596 925.0036497361884,336.65419117595775 925.2895962940038,334.7632555406489 924.1816815356628,331.6702885233085 921.6357430072742,331.92124653960644 917.260135138808,333.9562382233082 914.7353617907775,333.7651751479845 911.5660564780353,329.21038976020884 911.1222527752185,327.5708095293028 911.8794026695317,324.78467196222647 916.553415806244,321.4503096702878 917.1339213174081,318.51189395381556 918.1102872973422,315.95791376559936 917.7566031965894,314.23783742626296 916.3671009764942,313.17896285289515 909.5937552648127,310.9338195341958 905.0351617918535,307.72482688321236 902.8590079124491,306.62019758057164 900.6222534756039,308.4740016522553 899.4276783824395,310.8106012797173 900.3965224052654,317.5271190106192 902.0413205933938,325.77544570161916 901.5118858869765,328.2007429641881 898.6996674794483,329.3895270625523 895.652782464353,329.6275594096084 892.3042431277681,329.09074609752975 889.3525208952724,327.5366310937131 885.456904438215,324.30488868565726 885.1155907485736,321.65312105179135 886.2446329439271,318.6004525752396 886.8373127067592,313.815352118621 885.8372051528124,312.3770261709723 883.3049197481229,311.3582326993341 880.5758247787066,311.6204713903984 879.9848293186636,310.6946320930926 881.6205505693653,308.87700275264524 892.631357448845,291.1400563093538 897.8958193486407,288.1969627821469 903.5973632128278,290.06319959191427 905.4160713191206,291.601830303594 908.3570238199222,289.30761707762883 910.7949152666984,280.67400031008845 912.510750988338,278.3896590902749 915.506598930116,275.8167286296673 914.997942601617,273.02062402195384 915.0939730024126,267.0486521568208 916.8163493728359,266.0179345679451 918.6419758227198,265.96263556863005 919.6639601033738,267.03741109504415 920.0002002627226,269.3726470238205 919.7674561093828,271.3722395999263 922.1917029818885,271.65191243220283 922.8834964098581,269.6886860792067 923.5403836683209,265.11680019060634 926.2084445887849,264.4123421754425 928.2154247085595,262.87150422247385 930.9996886959669,259.522672135417 932.7462161177191,258.19999943367657 932.9557497004821,256.99593570071124 929.9457657477235,256.52452923070996 927.5843315635316,256.74983034713955 923.5024934034378,258.09024970355324 921.7877231172732,259.02614064876093 918.1823042331472,258.80417060683715 919.0762985787593,255.29155517656613 921.9541555365017,253.00638107407462 923.7814047771037,250.18323255686414 923.5928351309386,248.08981809970157 919.3087304423292,240.92793779872977 918.7034128381904,238.4020188893545 919.1837239599549,236.52999800278224 922.7379335669984,234.88547865849955 924.7143219029034,234.74014214086424 928.0015005156577,237.27190875835117 930.1167777021776,238.37737821186863 933.6914933110237,238.6158328941841 931.3594290007672,237.34867119422017 929.6442801503183,233.98804634688338 927.5566456198503,232.2510061062278 925.6899666642079,229.39746885912496 925.674598325462,224.41470629739626 920.8059878208308,221.37376698043465 915.8765593029411,221.19532139801618 910.9612371541455,221.23019731002444 910.3108891492749,219.8955179422046 911.0940694826131,217.42767115087088 911.3861173322084,214.89869235630897 912.4281989321788,211.65910444966107 912.6388572643765,207.65035204138837 912.0888284998399,206.2673075893748 912.1913825551344,204.4045542272753 910.8084002102825,202.66841068795634 909.8097063956868,199.85160561320515 912.3244587908058,194.91055304032523 912.9828046138183,192.78394371485945 912.8971102452854,190.21682423796858 911.4077722046195,188.7822882881111 909.9928523156648,186.53489624289728 909.424615553154,184.74199453967822 910.313471668888,183.3754753180126 911.5688603188804,183.00879055484916 914.3556630200112,183.1384915940248 915.2215881027714,182.622971528829 917.512113161673,182.93661644610188 917.8626237968291,181.71566610720026 916.5394664468671,178.97752644414572 917.2685777029684,175.8797789464295 916.7207078994236,173.17235350884425 917.305108761153,170.95368184587744 918.4348148707287,171.32345293792434 920.1149722551119,170.30153764896613 919.6824738535885,167.71066420233228 920.9259162640914,165.81638092208232 921.8225771185429,161.05201027067574 921.1737337787797,158.36294751683272 924.3269416949166,155.1978555126018 927.3415514602973,152.70594438515366 927.982924736258,150.7933653216104 929.3973811384418,149.74583769626634 931.4179503984723,149.35546646906164 934.1255715522063,146.38926782112674 933.9976327739888,143.74443192663648 934.5853766771203,142.18775272398761 940.0524138475666,139.98100176606897 941.7393638613396,138.8095391582823 944.1115063953811,140.0893624396732 944.5859785060275,140.80365917576978 944.8517895675174,143.66624789602872 945.925834550197,145.26662621437742 949.9436676874114,145.3133322432028 951.8958303869471,144.15909298059591 952.539578996312,142.37227452734533 952.573911838529,140.65419579160368 954.0980071303019,139.51732724050441 954.9809976361486,137.9148084751174 956.9768071946498,136.39780313397455 958.944786645808,132.73758343086945 961.8284048623378,128.93250367982637 962.0562113326538,127.72214592930243 961.6540689181529,124.72037409397956 963.3080033767358,121.57195383903172 963.7551098689123,119.15141031829091 963.098137887654,113.80916476049333 962.4919027451425,111.75027524714903 962.8881181624266,110.28428560883253 964.6350364125693,108.16581779804199 964.4713902102393,105.79792197891607 966.5329770386012,103.60203394664165 968.4659495358927,103.00032038137124 970.4146174613546,103.11476706687745 971.4526371719054,105.32942787612546 972.9565444965631,105.60384218632169 974.6213287530338,108.11214600123355 975.7600947465188,108.42575671239047 976.6692130214091,107.1691819001278 979.4512966162683,101.14457814592402 980.5386879757789,100.99468141633247 980.3651342704953,99.09967236514547 977.4765528429178,97.49321568414575 980.0909934599173,96.37245544955044 982.6164715134144,97.67943887298577 985.5126512712867,96.85170036942816 986.7840820203502,94.90864768325412 987.5353603747188,92.48240860615863 987.2680161566859,91.45625194171942 985.0194093514382,91.12792188507524 984.4411359522516,89.87169558461756 984.6268412240722,86.71712559059131 985.5405337757371,83.81346890553709 987.6634161971695,79.78865033983107 989.2078179334524,79.61355347798565 989.3628503636131,76.93925980011784 988.812782029089,74.62032103716638 987.653011193554,73.34574710406662 985.0245988069621,73.33325777046161 983.7169826459342,69.94349207492257 982.0293939043904,68.73715305187966 979.7011441425433,66.16499156229509 978.2012524915564,63.757164619644755 977.7235594701135,61.50711263350627 977.4338093627714,55.771918428231174 976.0475730596088,52.007087357798696 974.5495518419781,49.19701563493834 974.2333210693286,45.94371752614427 975.4104337785121,42.03461341087575 975.4715894657742,40.21533139294013 976.4100743631616,37.012980340366425 976.0808309815784,33.65017294794109 974.1036722191373,28.944900786937524 972.5506200065603,25.971935317647308 970.7147091080093,21.2092106373525 967.5962237416277,16.507043017121305 965.437300880222,14.207260504256851 961.5685531784648,9.167841896387358 956.9183770024852,7.033577006212909 951.436756653971,3.6507376160534477 937.721757926777,2.808456790435798 936.2147320913947,2.3374149863657294 930.5069419093534,3.0602704410757724 927.1290406112099,3.172966253722393 922.2566798935353,2.467426755142128 917.0546497778236,0.698724014816662 914.0967071216546,0.0 909.2651431568199,0.24541631912495632 907.537293790841,0.8651693486415297 906.4900624414796,2.3519771276371557 906.8147996273369,4.163963424109511 907.0118515512748,10.952619071112622 903.9082619474773,18.616746623376912 900.3255335029377,23.48054998514158 896.4229458170228,26.22588867486877 893.8733875810564,27.477878945038924 892.8047715823474,28.47616747570987 891.4747845007072,31.985459317739696 890.5211823858797,32.15498269913269 885.8899215759789,31.3643642122762 883.2414733163502,29.429897203794894 881.5308903592708,28.954536468140986 874.454232204362,26.192346737485536 872.1911687905425,25.11503706553424 869.4382817352792,22.56779226850813 867.515554330195,21.231247455081643 862.8890158881142,23.958659298250836 863.436192781218,25.30139737145589 859.2392383577079,28.610045972246553 857.5760458110204,28.921523159001936 855.7116816292042,24.567479545283277 852.880617497821,23.140227159781034 850.6197171061953,23.59718352049663 848.6674933785166,26.188881451034376 845.207122699522,34.48980422306397 843.948903375484,36.61029127356471 841.9630025934123,37.62057800873447 841.2187119980026,37.0700427474203 840.1406266521464,34.73770431080675 837.9725975688477,31.406801418728037 836.8016977862951,30.919550188618814 833.8518528941075,32.107188973666894 832.4587102999286,34.58515859110594 830.5486677517982,41.11269116068502 830.0049011620225,43.83277102260877 830.4435427918847,47.24866315428221 831.258412885629,50.65665071171293 831.1072952274806,52.19557690990143 829.634002175324,55.288773452001806 828.6300575442086,56.483902898803876 825.8324201248528,58.07024436206177 819.1256827825498,59.83194877278993 809.2985572613383,61.92765201661598 803.4988239610808,62.70132852614984 798.9015218050168,63.041884860086384 793.8465287547506,61.445869077019665 788.4956735885024,61.28866849173505 787.9527680732376,59.662526430301455 789.0685869113146,55.504943498203374 788.1873877374276,53.78296785849216 782.704923199743,47.24404564133317 778.9892590640618,56.714036539803715 773.673211016452,67.1389325276698 770.420528555284,71.90649694083925 767.0396119771367,79.42553864076433 764.1270194450889,82.4468821301183 759.6396931242878,84.16812841030116 756.0114813210886,91.08638620124805 755.1849572225782,92.02537107583987 753.6996667707998,92.10310822941221 743.2442189381247,90.96911177523009 740.1294332002659,91.13534760128402 738.7964972039961,89.6811371073004 740.5399898842583,85.76326625807383 740.3023316683223,83.61891277213954 739.5614166978434,82.70382903067696 736.9216478622914,82.67894090690822 732.5937668609502,82.23995591154073 731.7440150782264,84.53232310775127 727.6035608753195,88.86954474939546 725.4530732753792,89.78662345599673 724.6270098733171,90.75659928910488 722.9562392203267,91.25489402985181 722.2591999227882,92.08821050263452 719.7684085689107,91.82310774392693 719.3434156689563,90.9339015652588 718.8132488618254,85.8813927931343 717.8907425588562,84.11253074448757 712.8559849398464,83.96222582447865 710.681262222298,84.72242956869366 710.2502638969696,86.62027215880221 714.8369377264835,91.78861076500436 714.7683665629194,94.92473871398852 712.7722027893183,95.50110429288327 711.840411162933,97.77184876357501 710.7174819919984,98.6691362311418 708.6590627396132,98.67012207313076 707.491364621891,99.85945420600024 706.5951017301936,101.9099018566842 704.484650786548,104.36256221274834 703.4561092719463,106.91940982230096 702.5951016396622,107.68426217363947 700.3501403441902,108.01238089865808 699.8629719877658,109.64553881919039 698.3421036611153,111.00708372309919 698.3868609506488,111.71446897997794 700.1836084707992,112.43526858860457 700.7537926569316,113.41635705801366 698.8943939934591,114.20119582543941 697.6029488274044,115.85738595062958 695.7218592366971,114.98110044685268 694.779484866002,115.2680195108079 692.8643466764684,118.33124114592522 692.5092342248491,119.92936629833878 693.0197680514771,123.0457517010808 690.9302878005741,123.513858248529 689.8217746771161,126.20618587240654 688.9258596716692,127.23968877245147 686.1208521967395,129.17089479333094 686.219714052222,130.00313823109548 684.0794286657499,129.9914894960699 681.6270987434066,131.20614167845406 680.1458527977826,129.96697086289862 678.8769545104095,130.22907052536948 678.4698212964161,131.8200842269972 674.1114049992906,133.9864117971473 672.5087299258893,132.84432115298762 670.1220382061948,133.75820842131748 668.1101784990967,133.5219332727754 665.2687285100532,134.64231680978912 662.4582801478347,134.18490623414084 661.5359862519495,130.3198402940261 661.9334254854083,126.73602124149363 664.1789564343787,121.78461145070003 663.407358199902,120.3660256642379 659.6435572317866,119.62935927884041 654.7284265621137,116.874888853078 651.1702683558245,116.23678883214768 647.1892436796667,115.86573326496773 643.5921518886521,116.35471963932196 641.1009711582908,117.63182721179862 637.6094585351295,122.9700216847823 636.0819684960792,126.12641168360233 630.8208959662435,129.60885582903904 622.2446716179436,133.4699907234085 619.1007250301864,134.72125543016523 616.8017725590634,134.41129764217783 615.5386425079403,131.82822037197775 612.6065161123541,127.75018908463005 611.1348391753343,124.36007851849126 610.7445821640601,121.04485599205589 609.9090410041898,118.96526671598042 608.4409861045866,117.8199239599536 605.4291525404604,116.46072678484381 600.9623620625713,115.16892550713885 597.8874070504539,113.70104840377667 592.5571172293303,110.44082347369658 588.0029212817764,109.35599021532244 586.7508948959007,104.63052592779866 581.533986261941,98.24259449197825 576.7847373969674,93.89278210515954 571.3054112058985,90.21768580127139 569.5138531016115,89.76447194050934 566.9917700577547,90.47361101863976 565.4737823347862,89.93539459394447 561.3589742372993,93.14842292370213 561.942364892748,94.87718641631079 560.851709924637,97.50440607318149 556.9291902494276,100.14634157914827 553.5242506475378,98.96694041101046 552.3650078260973,99.05254913987596 548.7581709261603,103.27908590202946 546.3208195395034,104.24615790792359 546.3238967315087,104.90808711363798 548.4459670533737,107.26965849904991 549.3099053792021,110.3402129908402 548.2843378438752,111.08407126271265 546.3498451296213,113.82998081112316 544.0979677178318,114.85701426544824 541.4124638708543,111.30916574911316 539.3903881598792,109.99230171120917 539.2888841439787,113.2082517261789 536.7138540140776,115.49361811683707 536.4646297160086,116.86850594500584 537.230402223407,122.90197397915654 540.0744203765067,129.41716400218252 540.9625847336259,136.50424714208668 540.0586354531354,137.22261234605355 535.1932683350323,136.36954482434714 533.6446984779683,135.28855038424695 532.9260353333488,133.92270224980007 533.5748338550239,131.58717761014373 532.5163713821356,131.15890304300444 530.1986760528955,131.95817324781524 527.0896590809776,131.8989145271845 522.0721597840543,136.5139071623961 519.9122776989808,139.20929998687154 516.5864356766164,140.64185793066883 514.0919708910066,143.44508115646863 513.4413019245194,144.63101958625543 513.759029730994,146.33486447259997 515.1316125324972,147.82139817164318 518.3736318522734,149.5570638081697 519.3555626394907,151.91734507285173 518.3370316711936,153.5665376454981 515.3820889823954,153.5907329879991 513.9459586687974,153.05039433232866 509.82104437249666,152.6077028463984 508.07433245446094,153.5067945002544 507.09838638713654,156.3138225987575 502.86718945296485,162.78942586205778 500.79355089897876,165.22983543825183 499.57742976316086,165.06417322613584 499.17060660749206,162.92875366697956 496.90057959446784,158.6699936159198 495.4549556007164,157.1060988322771 493.4534162685084,155.7639331250533 491.1195305307245,155.7206344524758 488.4182722254887,156.22823158643462 486.3568078577821,155.5178492666854 485.6584456457848,154.14449877024276 485.4688439357566,151.5960820052826 484.7544605561817,149.35659485471206 479.97541339741747,146.0336265736488 477.4962175595774,145.3077568762642 473.9082813624127,146.3351605297063 469.7543510071675,148.12841728652847 467.39223688198484,148.83385620293473 457.41588870870635,149.8523413792244 456.66697017673937,149.55878234004365 457.02060133458224,143.88133051566763 456.0088157532373,141.44272894548612 450.9365848295845,138.75501507876686 447.3774644818463,137.48928950260017 444.96964399140865,135.62717198103462 436.8293781311725,135.0350832571072 434.7811380003685,135.0169014412303 433.31129329188786,136.01284091205082 433.65631189606233,137.589194286821 435.3208072146639,138.9451693754014 439.548774488638,141.73542458142128 440.6571278637165,143.8177048709873 439.68658859757943,149.30181462020346 439.7490737869171,150.47436391300892 441.60342734717153,154.94588175736658 443.8733494303865,161.55271539415423 445.7529322847763,165.7176120398691 449.1909208682456,170.36464323409382 450.417659391953,171.11507016143594 450.964526378594,173.16135154664642 452.1704386790308,175.02114958737502 452.5159408314368,177.76423499646523 453.1796120223893,178.92695105958796 455.89313544101157,180.21620378434943 456.2244629983067,182.6996236851403 460.5636983442148,185.94485315246175 461.91164595038396,186.04605774310858 461.959425667965,186.98321778977413 459.9391200322977,191.35346522123075 457.2355030357029,193.44307947622315 451.20132253380996,194.49950164978782 444.0026609671959,194.35466804148894 424.4803913739702,193.0072409683603 422.6333505275126,194.00981288523542 419.47006183542834,196.61177384321604 414.36807510990343,199.65056431832568 413.4067958234198,200.63705577275425 413.1182461456372,203.3049238890843 415.01693835323726,205.1617785342048 419.262147525208,205.9678564256467 422.679535826145,209.53924760914367 424.5491458875298,212.57827310412688 425.0221664414888,215.63442753355946 425.0988576882204,219.88064571859877 424.6256293980599,226.98199995720972 424.05901676237374,229.49781108010586 422.9523519727594,231.96906530072556 421.58863234230535,233.82229992430007 419.52157561846445,235.64775529124324 414.68582187998186,241.1340310578055 412.8868626241093,242.03272789384755 411.0768571633999,242.31704962578817 407.99023488378424,241.85258766705624 404.974770871651,242.00133389161158 402.0365316128329,244.75698466950178 400.6141731958605,245.5944888047428 396.7603449432219,246.72721045385924 386.5063593037574,246.2791154892717 379.99718365888606,244.9056870039924 375.1160836631604,245.59859346941403 372.59352341829145,245.33594435961163 369.1737520549899,244.52192554489568 365.04148698994936,243.21559972183957 360.36521561908097,242.83244108460212 353.236549089668,244.4316318340732 351.77166580410596,245.14346644052148 349.45444007778127,248.52467494546056 351.30466239135745,251.07047492306447 353.9486511074124,251.27592442798573 357.2503132184137,253.53513072268413 358.8961857240594,253.74993954448541 360.653039377272,252.7741555289282 362.44654391501587,252.7425952009903 366.7499650620427,253.92702258226598 369.8460688257068,256.0636821955378 371.5720510682194,258.53984159149627 374.9885774085677,260.2849331669646 375.463500251664,262.37310308931944 377.31795980452046,266.91116457691464 378.76545326617213,269.73988441477115 378.5149236282025,272.28215286881664 375.3939650795246,278.0206142585316 375.32918491129413,279.55115405153083 375.97210561814927,284.21460966654456 376.46665862882725,285.08145794880613 378.8561001787703,285.83508646620413 381.0254432742106,285.6626915797506 381.7500201571879,287.4160617654256 380.3319921595267,290.85459383901286 381.3120960732693,292.0743923232856 386.7323791810871,291.15932608523127 390.33342807880007,292.36373080244203 393.6375606453885,298.6525043369559 396.25398532035314,300.1584605174764 398.4280671420501,301.9575782331283 404.12299209130947,302.1551842779412 406.04993205664846,303.2320215191297 407.44376968677494,305.90439439839025 407.54029448993106,309.00079206690435 408.69749584042364,311.54339075887475 411.55255312812704,315.50532497971363 414.0323036580077,317.2514166193418 415.31430769697573,319.32505885537915 417.4823001038373,320.2253353785005 420.445434589632,319.9515241547856 422.6314366269861,321.2048850253296 427.3928005172078,322.22358535644327 429.5606232574713,324.74786539626916 431.18254115196174,324.74982653411143 435.4514846768245,322.2284597673272 437.9586974977783,321.4969882999808 441.2099715246135,323.02308974266555 441.50180015394204,326.1957072405793 443.81151788007594,328.7241686944989 444.57621959410983,330.3668475238465 444.6056308613485,331.9904994662734 443.13952274799846,338.3266384756102 442.45577952568834,339.4664659693856 439.77959330238065,341.5583689978199 439.56901897345193,342.8790745920318 441.70024573369346,344.5201722363017 443.062552528095,344.8108924469129 444.4541334355594,346.13495562997736 444.3959599263363,347.9970015035042 442.51469504784325,348.38568097817296 439.6550744387273,347.6414610354536 432.5764269124516,348.36063443053837 423.3622640010604,350.54559419203014 420.48389130714435,351.046600929875 418.8583763403626,352.03798942484957 415.4247450780528,355.1514027223014 412.82012375456895,357.85599502319855 408.3434397105266,360.83075130508723 406.46159624777795,361.7318317251471 403.899653307991,362.2822856491346 397.5163083930567,367.69676963750845 394.46303492714037,371.5767805443533 394.5911370346272,373.6179397534137 393.5430977303422,374.91410477345045 391.9054187275451,375.24346837802733 388.92388741144686,375.13801819600013 384.2321984089225,381.6030472202095 378.8779806054643,385.2633732455185 375.21984661872244,386.7555197870689 372.88081636916655,386.6153085839483 370.6790274872085,385.6282623002429 360.4417936808128,382.02939033388355 355.7340159522472,381.2430592955602 353.6429030992721,381.86405036487974 350.97230829449063,385.5387936175761 347.9646030974029,385.6939944630292 343.44266859366564,385.0865299550101 337.7426969558163,385.311387844715 334.36367762459014,385.85969824356266 330.6717846845006,387.12948781967833 324.9010372055672,390.96928800840146 319.147603554016,394.1131772991144 316.3053187391476,394.37458842712493 313.2474797044911,394.0170631541073 309.1685737070146,394.1736550804101 301.01795343484764,396.1438758855798 297.0464307513434,396.6528881818807 294.6767830062628,395.9517362551221 293.27464284611307,394.50061981460175 291.81039653766805,391.8192673101563 289.9502659777609,389.27169407896565 287.9796916810404,389.17121352082586 286.48187974871263,389.915100485742 285.75523310583986,390.976221155439 284.9232821045743,396.1025665447948 282.8909681298603,399.0315741650051 282.39910184827136,400.7366669397573 281.31929606110305,402.03243883754254 281.5439340695633,404.44266508649605 279.8377442611647,407.92743239835687 279.14605734137103,411.1258847830395 279.32978123067477,412.30668823385497 278.3827054110652,416.0858151529346 276.76827304051096,420.2007721696088 276.9785898726503,421.1431902983984 275.66860658257724,423.33562636341526 273.452948971315,425.14022369057534 273.1292207275497,427.11847541246163 272.09369779347173,426.85988732161906 269.7864536126704,424.989512699864 267.87969332658486,424.50070626599376 265.3535514510149,424.8111746677256 260.74053048491686,426.0483157551161 258.4361924515145,427.4279490425745 257.0280474960557,429.2672389040633 255.02399393571784,433.9474292322093 254.97581759771782,436.56087742031644 256.1459252095129,439.99709170523147 257.8105875993413,443.68604988505257 258.79529352574843,447.02371587403127 258.8613837980545,450.9681397845792 257.75391673612256,453.10960562912993 255.44011500144393,455.78406889844405 254.19679006059715,458.3377989360863 253.43293119186126,460.87657199619935 252.24763606556562,463.30341070549565 249.47445008805408,464.7461001824 245.49881792677385,467.5347026034906 242.20911814833767,470.4630825391605 236.36105073665485,473.0931044125198 230.25308421496072,474.78123428307174 227.76711962923753,475.722071864129 221.9693297608097,478.9269764073058 220.2349343374526,479.6265978307749 219.118603400586,479.4162939821069 215.7217869515392,477.0963867381097 212.77084949124227,477.14487389937057 209.25072681249785,475.9956882998421 207.4261437215986,474.3520412876584 204.5057310426217,470.5792251440604 201.9549916307211,465.0413001185476 198.8837477622226,459.51993452200463 198.891953490837,458.1465436050378 199.88099189022756,452.45717243751534 199.570595287542,450.98619575206646 196.98482487282374,447.02763521481694 195.54764222243716,445.9146131772553 193.47804324437064,445.412477164548 189.39029273234604,445.1637840669825 186.69927895544217,445.36464789168326 181.92476876927805,446.80737676050234 179.9837587228076,449.214608194049 176.46435770798814,451.8991473503077 173.92654722832907,452.7602234012668 172.48576780135872,452.6576251203004 169.69411070140282,451.1481550017537 165.99768448466656,449.81145017177755 164.106225511913,449.60516132205805 161.03137273667255,450.71142121462185 159.28175811150712,450.4554354981765 158.34945696541817,449.64232492187773 158.20625994104424,448.3580233899424 159.30371417315507,444.853623642276 158.47037005384703,442.5698420527779 154.52921736682035,439.91902474753596 153.9848347165701,438.4529038836606 154.26848401232425,437.03586419888825 155.5668478364819,435.2548981286313 157.5414099256887,433.67671581689405 158.04348228822178,432.5090854623438 157.77461592215067,431.0304627127829 156.40306177260874,428.84310134133824 153.13620742522474,426.25305035336504 152.21773278920082,426.2908831633916 150.3250520652659,427.8988700141559 148.67313650032662,427.32592076117203 144.92385761941674,422.0374189482369 141.95832467272174,419.1097090183489 141.1065251999398,417.49832452829054 141.4220781849204,413.6438989259473 140.30153208967232,411.2087191021214 136.78727416881145,409.6871543403456 132.71305868348787,410.20940446666214 129.6015168356443,411.48888487749605 127.6621633186162,411.4885108545011 123.66868727040425,410.64410400291945 122.54234282452778,409.7553441851472 119.76336460206424,405.6890030625829 115.75062437018609,407.48830066470714 111.7758311414588,411.02963988811393 107.9962640708718,415.9802296694873 104.66875448379338,417.24753138376724 101.5755134341333,415.20574461372155 97.38560811371275,412.87273071748814 94.77007546521487,411.98284651042354 89.18379915182284,413.01719548453326 88.13376704626187,415.10892976763284 87.35454273200276,415.4675556842662 85.47346372642075,414.5972285507058 83.03303589680252,415.1803565171266 81.8122288979649,414.7893747606262 80.68205583106455,416.21823107378407 79.56624410488473,416.66981924405525 78.42126902503026,419.1879413729863 76.51057801546146,419.6749481829023 75.23300644309472,421.5495160994717 73.96995198180598,422.3186227095282 72.86049348178213,423.86603643104183 71.61697197519129,424.602480215384 71.50347134281883,426.4820718210848 69.0177043783774,428.79333986796996 65.57690501615056,429.32694220184607 64.06660566892164,432.0168590342934 61.77625867818921,433.03844120541027 59.60245488394558,435.0444486241275 59.69113046632576,437.4417471557063 58.457299481762675,438.8881559663189 57.95525244645089,441.41349179752336 54.15215003791265,444.99889865857045 53.002217848419356,445.1736115199802 52.153358143566386,446.44890060940565 50.712558198942375,450.9449272646562 48.68665844970027,452.6331868435481 46.88638361198677,457.0561297732884 47.02357340099315,458.7031675859814 45.2615406440732,464.324230996202 44.063045331369494,467.3486259322266 42.193136864229075,468.6163262223243 40.6479012437991,469.0036725758571 39.31196122520813,471.1304819270578 36.825958653515144,472.7470154530587 36.221748251955304,474.0103736941552 34.426298939249484,474.7640755101511 31.885461185207525,474.79459139012954 24.639188175809192,473.56250831356186 21.43389890335851,473.6028984721811 20.650510119259966,475.11486781693117 25.515457405552308,484.96136616323804 25.269426831762516,486.9294689408871 23.545911927671916,487.002884457303 18.119352854257258,483.28080399842224 15.228196739237708,483.14307576162696 14.034154198789036,484.5503190522801 13.9976996924875,486.9021025065709 13.077935178277722,488.1400642198757 10.79162015060691,488.87658173504485 7.013216069327339,492.22457305942936 5.043283211852294,497.0131381252761 1.767014080660832,500.53474260677604 0.0,501.8083725605534 2.405943224407499,506.3662607352758 3.77978757790915,507.4185267169297 6.165180131892485,507.8412600795438 10.20187077129677,508.07980615337294 11.900776249393182,509.0254965540077 13.529126329546363,511.39266651686904 14.463972959605782,514.4492924199786 14.64645652943044,520.468966928534 14.558757177287541,524.1969076860287 15.593810861597218,527.0938130971839 17.496799785445365,529.3621303765486 20.107508187048108,531.8726726177651 20.234786046569297,534.2162103301768 19.01857001092503,536.8467484788362 19.05613689167793,539.3417626930326 20.445276811864954,542.0831871818378 21.817225472001546,542.9794469072593 25.729186351800976,544.3408714468258 28.140615196767374,545.7410527040611 34.431372415537844,553.0991449206766 39.992983383221464,556.1259000371874 48.42240652231947,563.0490989820528 62.34976836072321,574.6491348425632 69.54061060960233,583.8895890848286 70.74891298673963,586.6819274871779 84.97957332790945,609.0838476586106 89.94832769495618,611.8663779328757 95.76754022510904,616.1368787176496 102.6502242279777,623.0595290601495 105.29465197490369,626.7866752831474 109.24702873036875,635.8185028761282 110.30464412759223,640.0681024890231 112.65369846757622,651.7407012310211 118.2452407867746,658.290321634128 125.23773131781225,658.9475020254424 136.032002852005,662.1521623147128 149.3613581416303,666.6428548001469 159.52248489107737,673.6648208332307 168.40627669268545,681.9469727223835 173.48735763210706,685.1375417447088 183.0175135434063,694.690553171864 192.11852336477332,706.1717773747519 202.37084686950112,714.7327279894439 213.409370280526,717.4709330033447 226.9471348403694,718.5551780709038 226.81065963787856,715.2600232812051 227.86430048590168,712.7607879387165 230.96232348715586,710.8678900196135 231.67338016984507,709.9472826094952 231.35034337534955,707.6761599171301 227.22916795071276,701.4433990610519 227.00475221110923,700.2135819037914 227.97273715062485,699.4077422783973 236.46592447360825,699.7419266557567 241.61859539532125,699.0415513496216 242.81269912246427,697.0607446965429 240.65883361634823,694.1718538070223 239.01718160768124,690.7605498125756 238.86725649612748,687.2461490745659 240.49996310432837,683.8837211680401 243.17067332598072,680.9626720979701 244.72976770035643,680.0118169244299 249.1290331263351,681.4094229507672 253.41757277288218,683.528290127165 255.51554534006635,683.611336914214 259.60420307802616,682.3504106499124 265.29705646637206,679.7425227781679 267.63696284937896,679.0394381336014 272.84584648689554,678.0747644574905 277.9215055334092,677.6896274311023 280.9732581211595,676.7769041018014 285.56884451600143,674.5896499077583 288.0619018008118,672.0506587154431 289.4440866286426,669.1583884114671 292.41440640507324,661.6008460159145 294.4163014082994,660.8313748802174 295.5346941791756,661.0735522603017 299.84413075353524,660.7802105029791 304.5942105536159,659.9491295293875 306.92253863696186,659.2132248572012 311.701930048104,660.1127923057059 314.66903298592626,659.603853573285 315.21985963410253,657.7683916174242 315.06237852956957,656.285701787114 313.73903704976175,653.0128968542971 313.894874531211,650.1654135575459 316.3656212329681,645.7458341007452 317.7043121642457,643.9523850973814 321.1159761074602,641.9826763007266 328.2989415137651,641.7641615652894 333.0529353876537,641.2011414533185 335.05021688185565,640.2498034984052 336.44947410408344,637.8082892122087 338.0053298877859,630.7484867657906 337.7910746129578,627.8218025577169 338.8176980951955,620.9454687283406 340.3631819083375,615.703831302281 340.0454047561473,611.497967083545 339.1704341855023,607.555796940632 334.99371624078384,601.81303176508 333.43848848680153,598.7187814327507 331.6235325308855,593.6145669975638 331.7472438179784,590.0976236837328 335.68817096992814,579.1920661925693 339.64842787039964,572.3945466532529 344.4837315176351,566.6247987365634 347.2720376346827,562.9820721482581 348.740092550405,561.6456891900493 352.37397407025276,559.087844300073 352.2408194537608,560.803122653082 350.37109205409666,567.344311377386 350.33535312694846,569.3743867766651 351.5511419236493,570.5696383476538 355.2782409910539,572.2192150801304 358.12066343557717,576.3963441029413 362.0193332234567,580.8461672438082 364.11261804405916,587.2401102346523 364.84392509218725,588.1757169203602 368.83989979744285,589.9231343893173 374.3942165870652,589.676160302547 376.60232783366433,589.1004979739018 379.90130539232945,589.0266737054404 384.8616581372986,591.5861669667469 387.1679386544847,593.1097437958845 389.4784334512915,593.725308686584 392.740917015901,595.0587582576305 395.62470736908074,597.4718923215747 396.79536591010975,598.9529308066324 401.19435294919884,603.2359865967823 404.8098833557225,605.4327742748828 407.08123757054,607.8888695511386 407.00913083457664,609.5569657037568 403.24734075403626,617.674427439811 403.1689303354426,619.5886630237858 405.39439722063906,624.0531826107494 406.54536886498124,627.8805388413693 406.7430535403167,632.1289965961413 407.4052448474904,636.6765173298553 407.11634925019547,641.1149066277621 408.21531726077114,643.7268513325629 408.7103660912129,646.2951573211435 409.52893991201273,648.0665064144812 412.0518559453452,650.827717941002 412.7617590271625,652.8539426708162 412.47020224045843,657.1976751482351 411.61708094988415,660.9668333569756 412.38527443625054,664.494825412596 417.2228036558906,672.0838824993599 421.7408833075647,678.3431742806574 421.064114384045,683.4619002819724 421.31593332284535,684.9509999802881 422.78443563730224,688.1985824801127 424.35022435958746,695.7992012329521 426.0907493785255,697.6026769708837 428.7809553240451,701.0803769617754 431.07410067412485,702.937532180072 431.410465348517,704.0543320020141 430.63102061343545,709.7051281175214 431.28359870090634,716.4694442050492 429.02263099233693,719.3638314969671 429.1444340643646,721.576020102907 429.69119001650995,722.4361248862303 433.1305255919275,723.7115672815189 437.97608440930844,724.6927890750786 440.87257817272007,727.1085798931625 441.4053935376922,730.5702284824431 442.9540844166873,731.9738406938766 444.5566596593965,735.2108126039675 445.5090549966091,741.5920559215745 445.035524086683,743.1264107753669 441.06729215462434,748.9380065782242 439.5459989137632,752.0018601885471 439.739058461332,753.6282955363976 444.4677297394745,757.2058832539213 447.1141780102394,761.0029755239896 448.0294923169338,763.5729751705604 447.76300783986176,764.7247596563658 444.24641139905884,767.7375648129355 441.65720553517883,769.483952301467 441.25269724972526,770.8587982882669 442.82370133657383,774.6277275019385 443.59666434542277,775.5080389204359 446.5534915013126,777.2111926289716 450.2308687654869,780.8870994912104 452.4104207828928,784.9061658240812 452.9245356527553,788.489419561969 452.667711833935,791.8473160056325 453.49398585977417,791.7297694436936 455.63929150251397,789.1917894146429 457.6201755171433,786.1114896940833 459.56580504558457,785.0324642487744 461.98875834220127,785.470789212908 464.79338425619807,790.0641718856025 466.0266085221013,793.2071263925266 467.53452816357577,795.1253293373215 470.3823618001605,796.9732654153801 473.6787233468363,797.6025093364314 476.275409734185,797.4368311843137 479.5354693923052,797.6946461130265 482.9839027338059,796.0025739886111 485.88897671673294,792.5008693934913 487.992680819116,791.0870751313138 492.6038013706011,791.4310558637688 494.3700389473111,790.6308846664514 496.222439328665,788.3909574533812 497.9331798936947,788.446561208262 500.8063012513491,789.9769681655451 502.2058822896438,789.8718330603779 503.4805146836971,788.4878805780919 504.0999116370729,786.4908898735234 505.27726193957596,785.410183915773 509.78693238039716,783.5629504688877 511.0132803315414,781.7454546270709 511.6609367630953,779.0986946920895 513.1747023612159,777.3625665961445 516.0066541833426,778.37937321742 516.3857710710929,780.6342776449961 518.0146133022322,781.2537084120248 522.0373790552432,780.1912549658996 523.4242705099571,777.1438925729072 528.7188000557137,773.4714640623694 529.9455331800862,771.6918888043987 531.7048491103276,770.5367067647821 533.8345632834527,770.6315332722171 538.4983713893175,769.9449346317689 541.370236536006,768.6420421331724 543.0916753014511,768.7685262855766 544.935544932559,769.9601344523974 546.0761337661853,769.6629613920127 549.7232376914438,766.5261164044296 550.3995333126438,765.5247381546824 551.2305421599061,762.2978704404019 551.8505620540341,761.5193243726851 554.0438677834785,760.5926182519842 554.6008274989215,759.7274315889752 554.6534960365158,757.085641609018 554.1777279726824,755.1329191648072 554.6805536838175,750.7811480508485 555.6171034557939,746.6904818445936 557.084202456134,743.5707231051832 557.6608880820108,741.6065368478318 559.3996351410638,738.2367870530186 561.2150416198689,734.0973580892634 561.5670817758645,732.6999185902494 564.1759211384181,727.7312264143292 567.5355366555304,722.4896825452972 567.659726725139,719.782975620177 569.352866966734,716.7777947791345 573.1557935695585,712.2786852712779 574.9371097430397,709.0742200671123 580.364828659368,702.3148219894488 581.4344589703078,700.4683038241528 584.4906268833522,697.6267435024886 585.913695679663,697.1263314992374 587.7861491385241,694.4582856597552 587.779490969048,692.4736922506527 589.222453032277,690.3347205665281 592.731190419061,687.6519307543582 594.6078439327341,684.6590615735869 595.5866365093174,680.1500922181816 596.2536953090932,678.6437409435568 599.3857868640503,677.1693329804223 600.1338154392909,675.6371654209391 600.6401299780358,673.1922878613668 600.0734335526507,670.8243257966105 599.8177126265989,667.5482165268843 602.1708732943453,662.7439621951968 602.0990825349377,661.1337252361941 602.618151754344,657.7481974572738 603.2817903336239,655.5694891376307 605.739705573257,653.5704593807222 608.285296316422,648.724275404455 608.249095253065,645.7605292139849 612.19664807745,643.0768509111244 613.1820132844841,638.9637853890919 618.1634729015603,631.5743870707602 620.781518651009,626.2447468463329 621.6446188510776,625.3906733885141 623.9406644975641,624.6512979817464 625.9572459713331,622.0837818772823 628.7473487585214,620.4568405528853 631.2866992966618,618.5042327548283 636.3786717450881,616.9519603972135 637.5510797474901,615.7359986579204 639.2243317834084,615.0325905428258 641.6316969821469,615.7996016934793 643.3489151879438,617.3793460501697 645.3273315225667,618.1788262084351 647.545507848284,620.2699191038364 648.6024049391258,623.655395232991 650.79756344683,625.6440732960857 651.268073451291,626.663219835787 650.9546479946824,628.4634755878778 651.3270954445386,629.7201999712001 653.3410396765764,630.2658946715062 656.7030837730653,629.103348874723 658.6679441456241,629.7365706236542 660.6962961344327,631.5157743130152 662.0798794864203,634.3183587837677 661.991331252708,635.0467732153046 659.663409794537,637.3135410763103 660.2681743632468,639.5223618933869 661.7166303205465,640.3712034084729 667.7057222479676,641.2752348626359 670.9194857755316,643.5292627756459 670.2354115160582,646.7277961647127 667.241247309071,647.8846331393379 666.2225174265272,649.1694750175237 665.962857251508,651.6087803583849 666.9475026075315,653.313431915755 669.3710181603959,655.4164744536206 673.9309132431144,654.3158298650745 676.1093104090295,654.858062511067 678.8171109077457,656.276099146058 680.3056445145102,657.6462192008801 680.9578328261542,659.1192760306891 683.5879878485036,662.3572556315336 688.2138950578984,664.0854867223042 691.6207032456925,666.2082919222992 695.023306626173,667.0833347931659 699.751476882896,666.7215109523773 704.9310435762967,667.5129571841837 705.345062209108,668.2719825643933 704.5579030752614,671.9083321036684 705.9157739009021,673.8815882587334 707.465867599619,674.1596126381381 708.6789322687482,672.9110850640146 710.3390155174886,672.5376026187831 713.6964400690242,673.1993901898318 715.1352920284313,675.6215745597988 717.2252912438635,677.8818703849131 717.2438283612945,680.3794090079094 718.5991353001881,681.6732692116436 721.3696104296854,682.1408288936613 722.5431242563511,679.3736492157075 723.7296324143293,678.3381021326807 725.9400740366556,677.8992679710266 728.1022288544253,680.156849995166 728.371281323855,681.8753483648076 729.5264674357907,682.8414873823054 733.8312165539882,683.3096347923697 737.5533310834958,685.3074022677534 738.1651818335615,687.7539166408599 740.6194186829961,691.319228489923 743.5111447035955,694.781072659946 745.2474108611733,694.6598884279281 747.5836198356795,695.8461986949849 748.2423986242377,698.0872539594621 750.8487679310654,700.0203043301628 751.7722750641084,701.1954224338175 752.3144165250626,703.2654835338885 752.4125984886323,707.6598068418019 750.3104370165238,708.4526970107495 749.0140999033782,711.690499436771 749.0814319406547,715.0733006013726 749.9634995711659,716.7171955611651 751.7972345101521,717.3288542596563 754.0970093780079,717.2518297688067 757.7648843020361,715.9446975402403 760.0492574667331,715.574413044675 761.2223917582429,715.9310999309703 763.9657880262029,718.5486991558646 766.7252756540515,719.9019210966364 769.5229691935127,720.1462943087163 770.815299642407,719.7887905667226 771.4969801438737,717.5521120433508 769.3600941172591,712.0189391511205 768.8433439411314,709.6965225294848 769.5134922608821,707.9430412551449 771.226061670772,705.5759199987438 773.2559021481586,704.2457422354344 775.7367784097662,703.9671430976347 776.7210154992242,701.5660458616899 777.7764111859937,692.9646747958559 779.4966254242484,687.9952496472176 780.924442731306,686.7567690650435 783.2158347646588,686.7579705296339 787.6965539741959,690.306034273598 793.5189899569065,693.3750850904589 796.7587672214308,693.7682434739464 806.1104805217793,693.7843017193901 808.8731023541178,693.3087461678549 809.6304531388597,694.360986594131 808.2102449384386,706.497798228772 806.7749928893944,708.8840526776982 804.2925163151266,710.6028847620855 796.8549496436333,714.6924203447591 794.0920361025736,716.6940299396321 791.3204293834226,719.2653808031475 789.7586281188039,723.536164615307 790.3342441104581,724.6638042810438 791.4971125529496,729.0690974361758 793.2936289635556,730.8607242576217 793.5262791129487,731.7341536936741 791.4947520802822,735.0415526084512 787.5165723411417,737.1553023046264 784.9082772866335,738.2361501422889 783.0453613762339,740.2505557687914 782.189723544993,742.4746110083809 782.2667530635233,745.3049909080437 783.5829879460157,746.1254457433388 784.9920498183976,745.9780918602094 789.2407162425028,744.0265310700547 791.4428638152139,743.6020018913666 794.3071504060621,744.0745513424946 796.0165226066079,746.1047896929891 797.0561734467711,748.9076623107027 796.8437319553998,750.5572865443563 795.6631445064007,753.9434255534233 793.7092120411028,757.5427265099696 792.9741545525136,760.1769010352238 793.1500564098849,761.7551311969424 794.9262464817011,763.5714543733526 798.5452407356303,765.8797391739846 801.7382162062522,765.8706764044899 804.1409394231376,764.7140146864972 805.375491098234,763.5255028882634 808.1658897467739,759.2839830048213 810.1125438382843,756.8550628295683 812.3667386064757,756.0109124343927 814.4875207789793,756.1099678271418 816.2455625174213,758.011931744363 816.2280041642458,761.162037513403 815.3432564121905,763.4504647155032 815.1288541907157,766.508661595021 813.9285783800691,768.3921419859352 810.6538852383193,770.4366931787524 809.8926504236846,772.763004252205 811.3921129263833,774.0301647752118 813.9232429973576,774.1844871220147 815.2690583333286,773.4130624598092 816.6118710177416,769.991092256938 817.7212738851349,764.6280715572755 818.667427984612,763.8497053396868 820.8542722491417,764.1691867298307 826.0072686943779,767.4346993186215 828.0251415479241,767.4651961840302 830.7267695395133,766.4764593733798 833.9694694821386,764.8515062543742 840.281814943552,762.213837319881 845.1957249171409,758.2445770724171 846.7860948287467,757.9427094870384 848.766436726892,758.6773653505998 849.9784448002923,761.3585942340444 851.789043493674,762.8003923323234 853.903498623291,763.6119609608794 856.966941078205,764.2525935072107 859.6519385351469,763.904936295358 861.0751041844914,762.9419594569362 865.7936887462546,757.4877027173576 866.6150544723068,756.1176464297839 867.8127701251865,756.0928897049862 868.9839402661945,757.2946554350781 870.566267043374,761.060047991346 871.5071462236139,762.4965089221614 874.3496357701299,764.8434149253836 879.6161632692014,767.5351940316408 880.7813951334441,767.4717302018344 885.389027404043,765.5711293867436 886.3396156378564,764.0006694550498 882.380792777394,762.651254784695 881.4696083760246,761.6810589631077 879.4163128690168,756.4222064102606 881.5143522929704,754.4477950514556 883.0847041291008,753.6952895561482 887.3002062209924,753.5926119286565 890.1772718068953,754.1335874853688 892.5209168720133,754.1402226371124 894.0354618456868,753.6094616564918 894.4257932669634,752.2089162097811 892.7763050105006,749.21353330087 892.322587957223,744.6263263924478 893.2528251111863,742.091354356387 896.1752661602198,740.907197506952 905.7165665641714,740.5331917962205 909.5772630248597,741.1560073724055 911.352103794977,741.8305927406359 913.2405238041322,743.5242741994449 916.9275833762459,748.0274125731127 917.3715899898821,749.6959344037529 918.4046521085186,750.6079027742899 921.5063917806766,750.1382257040577 923.3263069638557,748.1146812018854 923.7541306954664,743.1760848957096 924.7133809778948,740.5847686721698 925.8175465880392,739.0904750834612 931.561060724292,737.2128302882819 933.1699917621462,735.8973187740474 935.0627736680865,733.4283070294421 937.0605644704231,729.6674261471506 941.463485218893,726.385946446661 943.7918988131045,725.1902398918209 947.0534854584355,725.539329547281 950.7530256020779,728.1509124377021 953.9700549570169,730.7322410635186 957.0278205900164,731.1027997894807 961.7387838358372,728.8183145356957 962.7119124890282,726.9624687355707 964.3731633271459,725.1866790892641 965.24255980958,723.2382648473625 967.8291260190001,721.2438925079625 971.4903211584661,715.3679028572526 972.6340115262508,714.3149221606465 976.7045955005174,713.2222953793407 982.1829456856068,709.5696655318776 986.9185199279887,706.1130624573119 989.3827329945689,705.5457508698134 992.6073427862492,701.8302518508573 992.7767394070233,699.2241250354027 993.4538718023836,698.3555087092917 995.6464596173632,692.3277959983284 995.8572355473103,690.7099817358031 995.1471206858737,686.7626550858851 995.0798390675213,683.6473676891181 996.0394474081503,681.6424155390972 996.9538346508621,680.8784270502392 998.1670973871957,678.3132662692501 998.8936802166264,673.568683919727 998.1636555841991,671.5436191719957 998.2542720300654,669.5643629230567 999.6981651116254,667.2403324462011 1000.0290929569965,662.2269351339953 1000.6566293706437,660.4972195071385 1000.266745076563,659.5094995920555 998.8787255280585,659.1755233918427 999.5181624529758,657.0665040914898 1003.1814426777745,655.2398072732532 1005.5459206555201,651.044377977852 1005.3068066654529,648.9543762438944 1002.8674491145958,646.3735682585375 1000.5004829931677,645.7615342477415 996.9140826866619,644.0364021380759 995.7935329749079,640.9369586427442 997.0723643350179,638.0941364242185 999.2513261671853,637.1698087563694 1001.1761907317194,637.7602280472736 1003.2229663913307,637.7713113436141 1005.8173966033695,637.1614492458414 1007.6007074521211,635.9127514949383 1010.7084250817428,631.1093252495887 1011.3649845538546,629.316487079108 1011.4887626399279,626.5390601859644 1013.5267314631241,625.2766349311673 1015.925501515826,625.0267647077485 1018.2010453589311,624.3207426630427 1020.3140145924073,623.1998789277022 1021.9600310054045,620.8156297547057 1023.5019607576596,620.2595889798368 1024.0,618.7313108303706 1023.4356882636293,617.2262446201146 1020.4304311349232,613.0621290079231 1021.2568298240054,611.1071817752156 1021.4398875543351,609.2136627081286 1020.1625376672512,606.9013271962212 1019.3818442761392,602.9971870484294 1019.9949848048117,599.2290256832043 1020.2387266247259,593.5250867845921 1020.0902300796048,590.9430933668273 1019.0260017716834,587.188453185481 1016.968763079503,584.2922008392788 1015.7364606850504,581.2207535708699 1015.0351484139857,580.4617624659314 1010.0033820064198,577.5760097285302 1008.6754538118848,577.6361452559764 998.8297128447249,580.0090447350718 995.8233748273447,580.9514313327594 994.0663014716495,581.0369180638861 991.8867375716275,579.0606214386904 991.2030665582829,570.6103309320181 992.3589901346799,567.8429259419032 994.5252884476768,565.4095262097692 995.9874787499778,561.2058896144234 999.087857909308,557.5502334057545 999.2788073164829,553.1915693530411 1001.6541025327922,551.4803831805353 1005.3759275665253,549.605766100348 1006.6752046924785,546.8350622243272 1006.6093872441523,544.3009670351538 1004.606092806007,541.5155568462205 1001.9973669224256,539.541872742547 1001.5468664945989,537.6078575155616 999.7048416994367,536.0993619199112 998.5824268313135,536.2023642395417 995.4723190835858,533.2514046734503 992.7075895910883,529.732402249364 991.4444978492928,527.1052917925751 990.5882281652898,521.5305204311088 989.7970464183479,519.9274693251953 990.1900634487835,516.3953522463717 992.7630988643873,512.5165569628602 996.2009489627033,510.32463769611695 997.0408844697157,508.5763359958962 996.9345346317436,506.50886086671443 998.1708957072163,500.86542232751395 998.8643344546924,499.3884029310699 1000.8497306208244,497.1574610831951" /><circle cx="600.5336463107853" cy="258.6468867278272" fill="rgb(100%,100%,100%)" r="16" stroke="grey" stroke-width="8" /></svg>