<?xml version="1.0" encoding="utf-8" ?>
<svg baseProfile="full" height="1024" version="1.1" width="1024" xmlns="http://www.w3.org/2000/svg" xmlns:ev="http://www.w3.org/2001/xml-events" xmlns:xlink="http://www.w3.org/1999/xlink"><defs /><polygon fill="black" points="631.7262073092347,900.4442288387625 551.2165229517891,878.646875806062 532.8146659948175,874.1173734215682 531.954775058027,869.0557944230072 526.1479353380065,857.9278230554966 526.1519183631428,854.0226739394087 527.7690829238993,847.7445458886147 550.9594686299872,830.141711716722 554.7667797390816,822.0330533410917 560.6043391723315,819.8459871504286 571.5493186849227,821.1497258955852 587.9949878571304,818.8129059494344 601.2820516385899,809.8181755311239 610.5227694431951,802.1170606485384 612.8697272612085,792.4703477650899 602.4155562159457,759.4250614898269 591.7303586274164,743.8292635978094 575.3580741575162,727.585780341304 563.8541516953156,722.8639495429331 521.3626953925483,710.356903318032 507.08163098070594,704.3509527497507 497.35576196727294,696.5594175620754 496.8666262399288,692.666096568535 515.6845821669558,691.5267943700417 521.6926092649309,688.9268159180178 533.6934096585558,659.2312536776138 543.8264920700476,627.015613922617 560.3671967034469,606.4068745637151 565.9604839295831,606.410394846605 571.9582808133042,611.1179465307102 591.8922702926286,639.2977597002568 602.8292394327814,636.0658846928318 623.0074212895144,625.7790795878299 654.4275012973117,630.1260227749437 673.5339252369158,625.4529900166615 685.2714326776421,605.7535004595791 687.218191788725,579.7891707949213 687.3005453717601,548.5493373358627 684.7113962997204,538.8022067911953 679.0448500362602,534.8982425782663 664.9563541075966,531.7905035826957 658.9659071994168,525.7659175061435 653.4582092263342,515.0537649780508 650.3860925319207,503.51910967796664 650.38204441372,493.61138722042483 662.3738129502177,469.13594691257447 652.168684398073,460.9992234058242 612.8056991372476,456.4809538277666 608.0622905662799,456.5961059647809 591.4552820220131,452.80826409838323 582.016866022545,448.61883081635665 575.045349545401,443.7822835117096 570.7457083971793,442.8077373589557 563.0515195965124,446.24853347761723 546.1908014251399,456.9942479599787 540.834505847765,457.1564263202339 532.0719686004937,458.45349460803664 527.5362583754907,463.6381649418878 520.2289579426463,482.7150893682174 496.62575900231076,492.2156427928551 488.0184548895237,502.5291659127695 485.25796741226094,510.6443510822493 481.2910204054277,513.448530967337 475.81080443367216,509.8041773613518 472.68198095164985,510.65889138017053 470.65232812974676,516.3843839216033 466.99254349889935,523.0400565518732 463.13075751856843,524.54003401012 459.80901106249695,523.0468966460496 459.6937573104169,519.3946119695552 457.6566617693719,511.65121043915804 455.71360909662803,508.84868620554926 433.9473809646866,501.04466821294716 432.15367260500915,492.68465139090495 428.9860444249254,459.6578255320396 420.379111616133,446.5291117696746 407.0498252196856,413.6840378644173 390.0633010693629,386.04677654350905 353.4832283078784,331.35217792001436 335.17754473096716,290.6677495337607 336.88695217083455,272.80767055259685 341.02929354849607,247.23538689748273 333.87848872987536,210.73799260127635 324.59599424615516,195.34667388716082 318.41637067375984,189.76271685180905 313.211023736173,178.1779275975399 308.8969279144881,167.48272041195673 308.49014728786204,161.8802598685403 310.02970525981874,135.4996396999827 306.13083869469324,120.25611391117434 298.3980193588041,113.62854313633511 289.11940867743226,112.76468666949427 284.56722531593783,116.67383643374126 274.4714846660497,139.26478533219165 268.0382569113846,140.75406622435526 259.16159521043465,137.37882125685962 257.45733806238695,131.5377855013155 257.45618150670043,113.28646859155845 253.13738745555912,108.588982976142 245.40982279938595,108.60987517949604 243.69924817427307,105.21489374616817 243.85846006446474,100.01918976847776 250.7723267991975,82.22009537615315 250.78177423151857,67.8574479864327 244.75428017313257,53.923579115784946 230.09875861342468,48.139303575490885 190.04258890204994,47.87880300184577 175.13941200676683,36.739320850753074 147.78515397415103,34.31233746858811 129.95438011464495,36.083659305876495 117.25018182679851,39.94483805408811 114.15967480032435,36.29991668504408 113.75574507193376,29.003764490613207 109.92933025665545,16.362608395717643 103.41260352987176,12.56721000686116 92.25898431496924,17.31408470517465 87.70070315726471,15.625905580317408 81.67740036442156,7.849374727814734 76.46957232725647,0.0 69.14213476069344,0.024984401917208743 56.942243517404215,27.0772527087571 38.80136661767118,46.68969406588349 18.38022513413602,51.20605175975038 3.1292677898763603,50.403125596397444 0.0,49.028273861577304 11.054695771073192,64.32975667596952 12.272653299896335,71.8598659925475 17.7947602071164,77.66595588296252 28.263219966251523,114.48702837595613 33.06861963364242,127.35767823194874 42.373744578357595,134.2831319644382 63.80859239044407,130.98130064845566 75.65884098852517,98.91828302215185 79.1038704575713,83.79130226730172 101.45758376082347,72.04385647282788 115.05507012876372,62.2620022837109 134.0293893734005,65.85384801242844 161.58156831596446,84.0825591144262 182.93405424399378,108.15355882456413 230.93966410200952,145.48834111826523 256.4030675250407,174.46479298027612 274.6097483770952,190.37090271972613 295.4057267649313,221.77451523438208 319.5361611095376,287.87220716659317 324.19490304941195,313.17463814318114 303.82554836851807,339.05330816118146 287.58658789622706,353.6959104795436 272.11736245803667,357.79805272740214 246.4780831492693,319.26934453445676 208.77715633248263,286.126414233456 181.1792776920042,275.6831145198397 171.07334709763344,281.8706210313884 166.29223738785632,287.2586071256152 178.00406015141587,295.64924398326286 212.0386321717532,354.1168889785871 213.09529083156232,379.5067550404078 207.0727101367098,385.9384285706907 208.67807986668038,395.7257059855094 224.90313169216472,404.3788138740729 243.46748659861825,403.1861782830083 258.4294976147217,400.2791118263767 268.21063557338465,404.2333853293121 278.7960275558171,426.26705131224423 289.94611972351333,480.6057759081226 313.61153712154936,537.9462349172044 333.31423015027406,579.5769785329496 339.9050341627083,623.4392793484853 336.08306142980825,642.5172059085235 333.47921172984144,658.6834765331337 320.13628811450934,672.0276520297066 301.8354285239828,679.7819037650639 251.05467600325102,676.0591620076664 210.59010763792588,678.9880347847743 175.41553868682644,691.1775979246881 159.4197337046583,711.8485942620732 158.56179882914608,718.8681053807766 156.055666540251,722.2128849379762 154.76992958783148,726.1266557788524 162.310802742021,743.2992566035076 162.20758666633145,749.8573815372104 163.69799294843304,762.3056037428555 165.77397725882656,769.6305365396072 169.12714902180088,773.8242621130955 174.9270388434018,778.5390398562072 180.02279375760762,781.5379361815325 185.00964785508032,789.6525219071383 189.25924032199816,798.2415786385683 191.59220522893216,806.060665998117 191.47517293116695,811.9377860842811 193.29687410175373,820.4784086623753 194.24868643253805,822.428807196239 192.68439081963027,828.034619515839 187.01053288226836,830.1168477827562 177.9545300330543,830.9956359556875 173.7805706651339,830.7081407580494 168.35019065623277,833.5607127068777 157.17526377388603,843.5817282053425 156.84408245349323,847.1870243561993 159.7928834384923,852.3809714944906 162.4651843587402,866.1588281831393 164.81658176907808,871.3024853087416 168.66548566444496,877.3736845806902 174.48540067108792,883.6330578661468 178.40444481026518,889.7140362612656 186.30792416231733,891.7561690639968 193.02374571196034,891.7281788783223 195.09637527086727,892.6117558887481 197.00386744180358,903.9150364027491 200.56741307647934,910.4736446501637 202.340533180959,919.0387006795306 210.60024252364175,928.2259764967285 213.75021218351708,929.0031684197928 217.19705890758232,928.582257942457 220.64859631981497,927.2169605451744 231.5887526199948,921.1244465265569 241.27831390000085,915.2196243458498 245.0367848929464,912.1286831301159 251.188461934096,910.5398714277421 255.58398863814475,910.6478168090621 260.1871678319756,912.4785093143823 267.16318901675373,917.7464630757266 274.0871076180123,926.7441949672852 281.59820424040964,939.5608184310706 282.3800769181683,945.0385808585811 281.8344631104314,952.1409171947832 282.3411825281345,954.8693063135988 285.7491964519328,965.1803208098005 289.2542272310796,971.0900855839257 294.4782273055615,973.0983495732589 303.6597569034365,972.2273140918788 313.8068970178795,969.0691360203377 317.2515260477695,967.3368927890955 318.58532653339324,967.7160319737123 325.4967996880726,977.1122409570045 330.6008002789276,980.6193314244053 337.33775798666767,983.8986279643372 341.57473527997547,981.2201268339481 351.6295929127757,975.9532550801354 356.35207668284147,974.0497663602671 366.37280597826305,973.4103476088006 373.19771051055295,975.048549173548 387.96016921504196,980.0136629154096 402.692352784049,986.5685866694546 409.1959039608428,990.3652106517205 418.5903378488478,999.3605319911511 431.940447329102,1011.392359724355 440.1518334924428,1023.1507513681058 445.5372144211149,1020.101648934412 448.45702871191287,1020.1575541502177 454.867695744266,1022.8241512026864 460.20577253433964,1023.7089449211312 465.8669097506323,1024.0 475.63923428475135,1020.6428049996506 489.0858073182,1009.8894105695813 498.95800751308275,1001.2414613704216 509.55269127013753,988.0806634533393 512.3913544415375,974.6747141895883 514.7964350221057,968.4285924244041 518.4127649451761,964.9662898967342 520.6479682340399,964.1663439545903 530.6095362803637,962.7171274118197 540.5887251133762,965.3348158973427 549.844246071278,972.167058703955 551.7045724264625,976.5752721158492 558.7089638287405,975.0396958600066 561.2145721868939,973.2661633190411 567.58798177064,970.8294468418184 575.1310419515495,963.909608364649 590.0877580936586,958.6048313755513 594.3435889647864,955.3494648299048 609.0754600640372,936.1887271577168 615.5305089909554,918.8297472565423 622.3574756227484,907.9606824599788 631.7262073092347,900.4442288387625" /><circle cx="419.9759608305788" cy="552.1572625473189" fill="rgb(100%,100%,100%)" r="16" stroke="grey" stroke-width="8" /></svg>