<?xml version="1.0" encoding="utf-8" ?>
<svg baseProfile="full" height="1024" version="1.1" width="1024" xmlns="http://www.w3.org/2000/svg" xmlns:ev="http://www.w3.org/2001/xml-events" xmlns:xlink="http://www.w3.org/1999/xlink"><defs /><polygon fill="black" points="46.83905225241225,334.6495679969969 12.662480643656501,378.12161544536434 23.110118902014154,386.3544141509399 35.052923494669535,384.11913345081086 38.30806220304222,400.323250459949 29.301124042981908,408.7219528944711 24.523429667563178,428.50069224674814 24.932854616504866,435.11394042481345 30.465480444152256,443.44623579257325 32.3670535285903,457.8251743666947 37.95448321712208,470.64474459754945 37.93061836804371,476.62247223154475 17.563522143277645,478.6712113734775 19.48429869871228,507.5190519090951 20.716435224659076,534.5585584196781 25.20837289128163,536.1283684135987 35.16748790913292,559.6335507664231 30.640883118559998,574.2439657565011 20.180720241661895,570.1394403431855 16.993213429376002,586.2944318166667 9.549802917628393,599.182010348399 10.666058302610532,605.4872219303377 9.585898748778257,620.6121782113667 6.578161401379716,622.206958111372 0.9460959522288311,621.4022878500391 0.0,633.4037335264522 23.49076867196733,634.4882518045691 25.87822723469986,639.5951244364937 52.2195403454943,640.5342540570875 85.79843239716872,633.6187911976849 93.636868266254,633.9909717271289 93.77912553556735,638.7973425979069 82.54452657102662,667.7393454726093 75.46504552063982,682.1985758607659 72.32606469875694,685.0716780945309 74.51755154849707,718.1266976662134 75.04921948854268,754.9094132376958 76.2027720707461,772.432384948306 75.47369200151473,786.6753759677281 78.18898554390393,798.3100104203432 80.48629957867365,801.2698087704737 88.16095332861865,801.3209057558613 89.68670439221417,803.526549752744 87.22678107691178,815.8801165345711 82.54383902308439,817.3737401712335 82.44150767010704,830.0025049473727 79.08690265251005,870.2822051634262 81.61824303036462,887.6606847943567 88.16445165907145,894.653157564645 101.96974899301631,900.5561583157063 101.37750145817728,909.2605569744563 91.16809793457962,932.2919957810058 83.85428642805681,943.5362141087884 66.81087151819412,945.5952940204741 62.39077044256067,945.5985502830454 60.99571746522096,969.5311765021098 70.6203213240867,971.5554672636023 70.86448791298095,983.3710309563626 74.35175565095372,987.5591476321681 83.99802288361116,988.8902522285601 90.73505300158257,992.0212669413622 88.71473273304113,1007.4025085945871 90.55840226087871,1011.572043479403 106.58479128204823,1015.8590479357812 148.49638941331085,1021.444723507876 148.59373236308127,1024.0 166.72093546088786,1020.1638363621428 186.80023632139827,1007.0317609935602 200.8438023977765,993.3998616313701 272.84523628674305,918.8993504884445 323.7407788552409,901.2148003506238 356.9333366755226,895.9747846448097 385.34177957097586,903.4433462345543 399.4750603223508,911.3989464611814 421.23671708051893,921.2741308960932 420.6025956915955,925.9923371897515 426.94021006439704,934.6348464763514 435.6907929727769,936.6231660195142 461.2359106512609,935.9171041952833 487.9567241933579,946.6234788771972 503.01980588215025,948.6375644698128 525.4673607042595,948.3988135740158 535.238918038679,950.7486906076797 538.3305795675471,945.9375158624097 543.3337897375158,927.908163744331 548.9302047150461,928.2895060157983 550.7829477201719,922.9069592840071 552.4570827689172,921.6383792999638 556.7095947757974,922.947124577334 570.2001581230377,915.9131424636286 572.6697614699699,907.9741506517607 575.026688575645,884.128898096465 614.4744062748595,892.6990601438339 615.4536260499063,884.7291701473843 618.3706963473926,850.6910979339797 617.7570515985223,837.1696514136554 597.0170991254955,834.1075176037716 586.6712518298406,817.8436985893068 588.4598808038506,810.3383886811132 589.9566355150178,726.1913113552262 616.1060106855739,711.7709612921232 643.2796587684143,684.5500492109331 655.9635038157587,664.5566665941496 676.2952687319599,613.6108209823142 672.351996227158,561.7123559798961 663.6958914021002,503.0363019267829 659.9664878232181,481.0074634177712 645.4079859994008,451.7028789423175 652.4654511029319,421.48102657100776 668.3010594596925,363.11606600627806 670.7664701981147,335.3015192919082 671.5051745188853,282.7688854644615 659.5701735562767,234.21571833909275 645.4962617682116,187.75064695779508 629.400105632255,136.02105431204984 622.5272135238465,101.21712466023791 618.7356668948822,71.7477767631708 606.3777365572824,32.010279324234034 564.6709762543204,19.65032592926059 494.1765134629776,7.940494226217879 467.1570805928622,0.0 433.94945118932554,15.460538233864554 430.23318318338124,20.659347896125155 434.2663497704513,41.75393631820896 425.0245817821207,60.88163154339043 397.4782630300494,66.60081693702864 390.8330198371187,92.80685829288689 363.2800062338123,187.15622794297053 348.04693586897184,223.80316272999767 321.1880986021534,262.44547821113974 317.63328184809643,297.1289141755856 292.5875554718209,296.0475141924004 273.2683207296446,300.9005265227769 219.23819056291762,321.39152715712055 169.52950835425517,334.56735019252574 117.95660101404806,330.87939655364846 87.40178446752184,330.5534469106665 46.83905225241225,334.6495679969969" /><circle cx="331.61866146288554" cy="672.001786303161" fill="rgb(100%,100%,100%)" r="16" stroke="grey" stroke-width="8" /></svg>