<?xml version="1.0" encoding="utf-8" ?>
<svg baseProfile="full" height="1024" version="1.1" width="1024" xmlns="http://www.w3.org/2000/svg" xmlns:ev="http://www.w3.org/2001/xml-events" xmlns:xlink="http://www.w3.org/1999/xlink"><defs /><polygon fill="black" points="965.1459637092071,312.36547102123757 964.257033237067,304.3622973466486 958.8763441899492,286.4312039628186 956.8155943994977,269.8484421314532 956.8932617019493,265.43190047360997 959.3845635040843,259.43789905361723 964.5052124038455,256.83003062429134 969.9780827641007,255.25324789562308 981.1396220510156,253.7761930121893 985.5905983868229,251.4921217291834 988.7630107315489,244.48497165868025 989.8806711044899,239.44459010783112 989.6320745968499,234.41561481148358 986.421081592145,225.2408055778061 983.187488774108,218.73398179089372 979.2388586358913,212.96268416255384 977.0219531459184,205.81390245227567 976.158379968035,198.01733949219556 978.2954001165874,191.35140715393175 982.1747721224853,184.33314775457904 997.4998312548231,161.69343218080007 1004.7298377081349,153.34939814953793 1022.5858030024233,139.60080677099506 1024.0,136.55064428210676 1005.5462326794801,129.77798207098238 976.934448518257,122.85576903115214 962.8431500087505,117.18880934040135 958.550390987497,112.73069907666604 954.6495156662506,104.59194649802157 950.1662227648778,92.67292166940331 942.9871188822149,79.03337790933324 931.1391699619829,62.966801822296816 922.5574551061134,55.83478559506659 925.3663188723737,49.25751483206216 926.8779567569328,42.62196148972453 925.711600328482,35.98030727202979 919.2543191666038,29.192057719462355 906.1506957153281,20.889906665862327 903.6591026559566,14.171674121040724 901.2857147642953,3.502909447207003 902.3959016606659,0.0 862.8752317373663,14.38948027483093 839.1866441618918,33.518047919439255 828.529759796191,43.053084241082956 820.7221431631701,46.22985337494197 812.9245166558186,47.7690699189277 802.7796311104214,48.54740357027811 796.2986532901629,51.46482185057096 795.5597407497673,56.19945167003539 796.0984652923701,62.61818680496799 792.3432956676598,82.4259448036853 781.860387114817,100.09229606350016 776.9602137476035,109.45286009674214 768.6924718510031,118.3404285487444 735.7293164874334,148.01831007193778 728.8519308071885,154.9393035344707 722.0266886952118,159.49897274569207 715.8300230564249,165.46014146476728 704.8235059061769,184.164060073026 696.37310434602,203.23813192280147 679.41903882511,222.24594471779938 659.1138424289753,255.6127108136552 628.1833829099928,285.3090944646149 617.9223027321785,293.17999312409347 600.8445702848543,304.94326434484765 585.7986179301702,316.0540565375928 567.4149112420637,326.7966758810146 555.8328946588495,332.6155811844943 541.5382554518628,340.7110319773277 521.0815627842571,353.12203061499554 508.77900536574873,361.924948787003 477.3862708961131,382.46113707765335 447.3180044119026,403.04364477869376 438.43907675683243,409.2636960311942 428.864038670676,417.18482955847105 411.99459290186314,435.3136809293933 404.11624299667943,442.783062572301 398.64252430343225,444.93669981434243 393.6081126618609,445.73183009890687 388.5472908393242,445.6251060717764 380.13422831557835,444.63653885816734 369.776990828154,441.59657429187746 366.76246032733115,440.1614023683066 363.0736736193519,436.9639210578951 359.1807577405663,429.7861982725501 358.571188246817,427.4006817273039 356.923475824845,424.6892842228613 354.30939722782284,421.93021915552083 349.6083541401092,420.1096941907268 347.23992606980175,421.42584476934144 346.8329376109202,423.1029745866942 346.2241347522943,438.2900733127758 347.8068964952608,443.68065127381124 347.39268179295715,448.03801301925205 342.78099293293764,459.0731077914152 340.6962600809281,462.4328449964632 336.54658568379057,467.0790647799123 327.3093689706529,474.28597509524536 308.94176715343684,483.01067442230215 296.6743116296381,489.8179834394113 293.2565483231179,492.12724192091304 287.76712389993975,497.0775600453913 284.3058993628218,501.67162390503137 277.2880722198786,515.3644543901581 274.72217861158674,524.7589175127728 273.9778375181935,529.4811048287523 269.3349828084359,543.5488480104709 266.56362911042754,546.5182296021314 263.15909452958226,548.1029620053954 259.1328292254642,547.7023702615902 251.76436382721013,544.852271308451 248.0551452610705,544.7403872725506 235.50531151801871,548.5541357064453 215.49225880643064,552.2013754013544 209.72741988323176,554.1058478097516 198.89655026965787,555.8543417423512 178.5467680915997,561.2078923689032 165.29569840996504,564.1286155485386 77.67751842283974,563.5791362064781 65.05811479105019,568.6301525413821 63.65332641131602,570.8120114081889 67.37633040936251,575.6797065312463 82.2332150081636,579.6264693924795 103.95499292241335,590.3095174463456 117.56855045321615,598.3430257896989 132.458465939175,606.3712787651241 147.3723774869447,611.6778410709343 167.6701388233878,619.6912035351882 182.64053899452554,626.3585161535949 194.859497887352,638.4453745100684 200.40493862746814,665.4203221211801 193.7346513325325,684.3617468859072 172.23741725269855,706.0644257087041 157.45062535612036,718.2752418405175 138.62366726784154,742.6906055530318 118.4294400641824,758.9964514841718 108.99542715041525,764.4579068646847 91.49995927017186,775.3479444617245 78.03165153705696,791.623274613657 57.781358644031506,803.9020789471798 42.977976879946496,813.4347729679212 33.586444594657856,827.0017747165696 22.780926499960383,841.913681260325 10.749218483880378,863.5938661626026 0.0,883.9321153347541 4.19688614937024,906.8302206790576 2.9044818704115123,921.7035239399305 13.792045127163329,928.3961124972845 32.786025782174185,928.2712210010177 54.37723224705463,918.6878608139432 73.28885555223815,909.1105695375516 100.24330572119538,894.1210110683783 120.46065974212259,883.176896567264 143.3979254910202,872.2725062887682 163.6333372218603,860.0309922478096 178.42910958791475,851.8317134988738 187.87499364534037,841.0082966017944 212.06340901799854,820.6344209187665 233.6770628567434,820.5282015621577 257.58774359891004,821.454316708199 263.38361395043665,819.0843141551525 283.6555779182652,816.3112314093004 307.9584324112896,818.8975853804357 321.4187027837861,812.0885260309751 345.7018183353217,803.9394419519762 369.93241137968727,790.3273667677355 379.28922070253066,780.8654419965842 389.9779669624526,763.2635999174244 399.3269154878096,745.6777250523904 403.27544555222323,724.061546787836 412.60465845807107,705.1496544102354 438.12795159150505,679.4117427240167 448.8320388153441,667.2227088337211 463.66444612141845,657.737489856783 483.81042629030804,644.1561442425898 499.9263893593542,627.9310460754903 516.0471615020384,618.421023009314 526.779820390784,608.9347843526067 540.2357235258117,600.8121538589486 555.0074953395037,589.9565039369234 575.2220285406753,581.7746202088126 598.0654473164878,569.5754496053614 641.2029121927117,558.617244227587 676.2877848794,553.0935235226831 703.2971218438918,555.6917211532434 718.2079261127753,565.0917074395729 731.7438458738394,569.0823670378087 745.2658558693538,571.7175333585616 768.1667812826755,562.179915111413 781.632422448363,549.9628162648262 793.7207643066706,535.0581638449548 812.5328302167965,516.0733932705325 824.5233602226415,493.060840550779 837.9470130790924,471.39305310306986 841.8883373869461,453.83273233512915 849.919963557063,437.61165547679036 860.6514147601932,421.34420254807753 862.4390428236894,419.314266401742 862.1959930158869,411.3282140545472 868.6851491531355,389.49519016717454 871.824673509712,384.21406955643033 879.8033201829494,373.5758922389457 885.6812909654935,366.6114257096318 901.1450398492616,352.7479165887952 909.0346399843472,346.8083907517297 923.3485094865615,339.6862421642862 928.8386898712444,336.3724754173047 936.0442592103683,330.1730609945562 942.6235794533693,321.82425117355797 947.5237602581271,313.19840694332515 958.0340856442217,311.3569306175093 965.1459637092071,312.36547102123757" /><circle cx="674.6880039704056" cy="323.99881808353086" fill="rgb(100%,100%,100%)" r="16" stroke="grey" stroke-width="8" /></svg>