<?xml version="1.0" encoding="utf-8" ?>
<svg baseProfile="full" height="1024" version="1.1" width="1024" xmlns="http://www.w3.org/2000/svg" xmlns:ev="http://www.w3.org/2001/xml-events" xmlns:xlink="http://www.w3.org/1999/xlink"><defs /><polygon fill="black" points="938.649033232319,309.2005039317006 937.0627173236925,305.37284527448264 929.4638887837979,299.28073303957626 922.4306560589495,292.12170446775883 916.9545824581375,285.0577696500202 915.3031041743287,284.37437517145656 908.7774824267258,283.990027944011 905.3864834441989,281.91408655540624 902.3706032831565,278.6622359725544 900.5466909489732,275.67193954053005 900.4182300199345,270.97469707453683 908.1246694156513,260.86026618712697 915.5879588699439,251.46238162105374 936.6266286361874,226.83335953040626 937.5380904139759,224.10180585172793 934.6551521162414,219.8098876933675 931.2219636956739,217.9891135906164 929.0890843608686,218.1908645900245 922.7288090548043,223.33717899323722 918.3555549203589,228.00165516879292 911.7761260559121,233.0203949710176 908.4328058131119,234.09516283613323 903.2053684541886,231.94109143712353 901.1029274163403,231.78363447742163 897.4197101125194,224.84328317712868 894.1179263765275,206.89171341098427 889.4480862870175,204.29953574622527 885.7996020169263,199.18701021092932 883.1881937824193,194.25076155426075 883.0571074297246,190.98900252041813 887.8860392864602,183.95013453720526 889.5824240354034,179.24331048613135 892.9835605992674,162.234427917851 894.4145477260042,158.44754221982225 898.846306534723,153.4794172304513 902.3433062337416,152.12760898347062 904.1927833833519,149.75641629552763 904.4825346078756,143.77394618801873 905.4948578562366,139.294022912498 906.0024253431704,130.7254865484731 906.4710568152708,129.49674157030847 903.1040669393836,128.63275009741358 899.8351230689632,126.3519832680903 890.9125075460055,125.38103934988203 887.0613797039276,122.06393256452816 885.0349725995633,118.16588633541448 880.1677582764665,117.6207156614206 877.9123625123211,114.08293107043846 876.6662364497477,110.67076091166803 876.7029621429538,105.25183354872365 877.8308929842755,104.03411865418695 876.0183366340312,98.98346778659266 864.1293317425453,82.64816196299319 859.5729633816271,75.09594501628726 857.4749416933408,68.64950360167961 855.3840286783394,66.42941253811864 846.7924256062627,63.704148932501425 844.9648057293098,61.358557549711804 846.0048410268093,57.316704814364925 850.3078720931372,54.315581040215534 851.7181299775093,51.46514829070395 850.2306698079232,49.8856661611386 845.5857524510975,47.87379761337752 832.9658070594476,45.594829087692574 828.2702325433622,43.378670248965136 823.0472323998584,36.865208576399596 818.6208755664444,36.07961588722003 815.0936182351105,36.597132209530855 812.4965365914534,38.28826211692285 810.0171570894987,38.554180739985554 807.9298540958107,37.513034999197316 805.3248713746672,34.25493413153629 802.206176385122,27.471321404415335 800.8948585854195,23.43124056646377 799.4684451951273,21.993693941050196 796.2039448211535,23.683785804734043 793.7422141300702,28.247291506814918 790.7376810689367,31.894501919837467 786.8226301123674,33.97437893626034 783.4354703830984,32.92449463480784 779.1509168201068,29.930247289171575 776.8081868309373,26.667321127865762 776.2878994120532,23.65997335848317 777.0656268492473,19.10496928777843 776.4180454631662,15.327819697544442 772.6420620240052,9.062837589860578 769.2548724463459,6.845563446412029 766.5161068662965,6.19186344177831 758.9529558427935,6.177020884256649 753.9040202647441,4.657268949018771 747.0616006798339,0.0 741.6631583745004,1.168279438517402 735.6094587404384,5.353394561323512 732.749922353458,5.340125090741708 726.7662150856139,2.5249213931361965 720.7134400236621,3.957504954199635 716.8773745480262,6.876212294362176 715.0004261186237,11.631537650839391 708.6507638486764,13.922550565826214 705.9325540015441,16.699479191200908 700.4677092431824,24.145682271295755 693.644308126528,35.27133212244166 690.2770091402887,37.60217412098291 684.0261117971871,40.1957570380556 678.5655859531676,45.659081951397184 675.446446337671,45.91336329235378 667.5043906182584,43.55661012989822 663.2144325969023,44.714553092566234 659.6868823673084,48.226879192956176 657.3119923048043,56.57503292175738 654.2347743665214,62.28508910957544 651.770119539378,62.93569834198536 648.8927155426818,62.41362963145946 646.1672545035995,59.796404092533976 646.295057247215,57.193883356005585 644.1845884983443,51.89447273287419 634.986965278133,44.59770324114618 625.5993948660346,40.15793926514084 622.4754564796528,35.464516794971814 622.7270146477738,31.813704266280865 623.7777041538211,28.16013302110332 622.4617820709924,24.250191403286635 620.1216702663057,20.864682643522656 614.6542002537598,19.0348602633278 612.0561552849589,19.554062321547917 609.9681787253157,24.239953464609812 605.8153795638996,44.29952921312406 602.6801782384993,47.691795667067595 598.5087896410959,49.25382263712379 592.7777560757993,50.2900742935517 588.8628914370589,52.62787100279979 588.7913271941566,55.17002592715335 584.1563444284222,58.291214193835 582.3168263356685,61.56198436451041 576.6150006790947,65.65628071553601 563.0672057910203,68.65730679817716 560.4521998955505,70.47621488791174 559.1498158760459,73.86102997509738 559.1516284295311,77.50764110762805 562.2805654506966,82.46811780437838 564.8997268177874,85.08816592569019 571.4443534299481,94.76887056829344 575.3516896676392,102.00177453071433 578.6753598565107,103.82004549487226 579.8153359089888,105.66095436564126 585.3927834122513,108.41764381584164 587.1298985273759,113.9570222606219 588.7579119796733,115.21264839015953 595.4611510879478,114.7384028442782 598.9465555128904,117.84369728882655 599.7818867057417,128.2460841703528 597.3894487924227,133.33588409154117 593.5953913259941,137.39164971440073 591.0627239677794,139.12974597852212 591.8805718276815,142.01387002788522 594.3064166622892,144.7800114350796 594.1988215753505,146.28667854246817 588.677677545899,149.4138783578103 583.8389484027948,155.32485315173471 581.9062937244934,160.41932691964087 582.0230101591414,163.64845130487788 583.3109106227008,165.26585327336545 593.1442715164955,169.04146299010972 591.5328222564575,171.3646645558207 586.3256468252806,172.4146114138672 581.6012631244067,172.551686318174 576.39082849979,169.33028929948478 572.5587219986968,168.76083170035383 563.8912215447467,164.2142186307193 553.7614125820002,154.65561899014585 548.6657835615465,153.29493563800372 545.9197713014901,155.24872217537427 545.8004111987646,159.59131485312832 548.5579843275067,169.13203167663585 550.1561914440119,179.03915628596098 550.1417462201039,184.12128178265277 548.202945637857,192.4586726785143 547.0207366014554,195.06950464407498 542.4535602576542,198.06959593811143 534.7635592098169,200.03156369409533 529.6669118337455,202.24729630949366 526.7902662088634,204.3358927361901 523.272568258914,209.94183382631024 520.8022397399109,212.1672785269211 513.3556502004387,214.0016864119599 508.53030526886846,216.7408308301067 500.6957799321586,224.05161342491613 494.0287321355087,228.23177655577183 485.93853133709587,231.24621776084962 482.5362733299831,231.12485188670473 474.1808952768272,229.04884169362663 469.49153441784784,231.54121489843055 466.64756598769054,234.56402953961503 464.28723396968104,238.51504082340568 461.4039031546675,240.24643904100355 456.84005382219345,241.0904149383182 448.88441365686293,241.24297047759865 444.7970200926472,239.90090880745925 436.0430043564346,235.3069240935207 429.3995736255536,231.19849917526653 427.0443675134634,231.131906869938 419.44846601901384,225.8685474800343 412.27125030650734,221.99082417189834 404.3529294392106,220.12843241705093 398.8137245660101,221.20892186438618 387.8320151380985,229.83364154775848 384.43805260130046,234.0120082577456 382.0948343983932,237.92072248243778 378.9475411746941,237.79577290252985 375.6875824890871,235.06817739159635 371.1063173273334,234.1598698286781 366.4116939543501,235.08350154926984 355.5850190204809,239.0072818481517 351.53127465283444,238.10093363242197 348.26117545424745,235.3730484495012 346.1753594325902,230.686719930158 343.84009818458867,227.4372130007763 341.87196527185415,226.78447326515175 336.7783001939628,232.0045525739456 333.9838888951953,235.8988016967844 332.00265578666364,240.81906917568142 328.0207639890411,245.40219276257574 313.65133163704235,251.34709104628098 303.48819866765655,256.4067268741188 298.5737330693858,261.0129806158129 296.3528072807983,262.45991290477184 291.14617540865066,262.4534585742788 283.7207225781773,258.9308884039309 281.115118335955,259.19165027023337 279.15646678590093,261.15257067734717 278.2308962697049,266.23099520779283 279.41155257444484,269.09047426994664 286.5821836679488,275.159688277963 287.7475175797616,278.2854982972458 287.7595288623081,281.67160696647886 286.3233428501434,284.0222176184611 281.7664208103852,285.4515061894366 273.29201605907735,285.58376620665 270.0320359794422,288.18361367183786 269.2559493101022,295.7411657379638 269.25075120930285,301.9957893216482 268.4658710587032,307.6003144160752 267.0284312655699,313.20599922307156 266.0484327827685,314.40953516815944 267.003518272017,323.24637007611364 266.07088452863564,327.14552993248094 261.1852959297022,326.82853098243527 261.37392422568104,320.9562036100933 259.55919874138027,317.78835820831466 253.7700182116501,319.45770358014784 249.1477753905078,319.7078527115434 245.2024879697315,317.8415935879191 245.67080025796417,316.2667005856208 250.24224037484788,314.5555801553884 250.7552782345213,313.5307589816339 249.1018343248636,311.1733069066595 242.74186824200726,308.4364841801291 240.95754002713153,305.5219171323681 244.51661761129222,304.73839355696134 244.80866261383417,300.7890898988079 243.7633189828265,295.423650338088 242.16669450862767,294.4493159488013 237.02187901061112,297.61379823270147 228.5687701084389,301.3961454275129 223.38857981067,301.45910053952605 218.6361864335421,298.4326751198337 213.23247226638904,289.22431121609316 210.75737710466467,286.6652021566583 208.3103706089445,286.8531249495511 209.5479701109415,288.4510498019165 209.04652505660965,290.31088514128646 201.36456526918346,292.5334647162722 198.26608478592473,291.9155628042896 197.89304710040093,289.5111354621728 200.1677906949216,286.4370471943148 203.40729354266173,283.6974443103187 209.76681876597698,279.24542949809097 212.26655755069575,275.43713740920225 211.81431172388864,272.7881658622241 210.29352135713086,271.8043301633652 207.67644513120752,273.14112535759045 205.9172758331437,278.0997753088392 203.94061621302725,279.4684719472874 201.76360416932454,277.33296098911455 200.90357473846169,273.80730654550393 198.72343681444246,268.80356853728415 196.35068728154107,268.1243131065128 193.51323162538063,268.5406746979752 188.84015305618402,263.7968524624238 185.0434320452353,257.5748731203223 185.5939736334873,254.43487062790996 180.5488894680369,252.61342041073385 174.56506364929947,251.68110559751563 170.78832350828944,251.67206259918805 167.54647507756465,252.83476906632302 165.85215869076316,254.91162045088583 165.33632154820845,257.7869732415403 166.3765275730678,266.25440434430607 166.50651866266483,270.94902956226576 165.46150867550008,274.980209276442 163.19772110882383,277.474346348975 161.3941644350116,282.61330232746707 158.2699187876867,287.62918271803596 149.20322787609797,293.2774291481401 138.90663118808504,297.3738644877428 136.20294063387107,306.97145703968397 136.6935382834757,311.0838015680073 139.32113788845484,312.5034623679129 144.40196775211945,312.749166570889 155.36978600291604,311.62199367384153 158.4184767216018,307.9788938512702 158.90551491476663,305.6731164855422 158.7922832564668,298.86141520089825 160.74212665281647,299.46508404965414 163.89418728328442,304.73011741032235 164.67969375222742,307.74102007736906 161.89919826877178,310.2913850997694 161.12416378540644,312.24492048035074 160.85693655801373,318.7568236213285 160.2035010745764,321.87970307301464 156.43715423042548,326.1734859076388 149.94368868172566,328.7542533203515 145.6490704788992,332.2607284065541 142.80455966443608,347.39604157614485 138.77526115221892,358.0005581699796 138.26298770236414,361.19305353341485 138.58511106058933,367.51665032192886 137.82069384442903,369.51085989542344 133.99210022056403,374.12024277034755 127.515492795551,376.0100099486484 122.66129383692304,378.5797315041184 120.44248787884352,381.0214694694945 112.18813785755965,383.1374871026645 107.81834331364924,385.5160182280098 105.31039539663077,390.28096213899585 97.09223042790734,401.4117165234609 97.1069732011128,405.25821625730805 99.34790041186373,409.3900571832569 103.25105484434336,414.38388920191346 104.8414734134591,420.49998882929754 104.9661482341558,427.66352846449195 103.51669389563305,430.5818925522834 95.97853362422273,436.4031217577617 81.30257662971496,441.3531644236674 77.29275319419692,443.797761734283 71.53485990925218,451.7724471214608 66.64116162207847,452.3574318685112 62.607454733470085,450.9041930027097 47.720872003489504,447.88475658218294 35.25649639344327,449.8398299706814 33.14790333226266,451.43558820129635 32.480219046924496,455.147650486728 34.209123208578376,462.717932999181 34.335337030592854,466.57518027240087 33.28207677189941,471.08863536381966 31.95283168883955,473.2125630860786 28.50460463931831,473.47056190504225 23.460357290434118,471.19651942932546 20.290104078563594,472.38834472337237 17.499139336758457,476.7605498341329 17.890833885496658,480.755587049583 17.040201412375723,492.90011064197927 15.846771218724006,499.67530895567995 16.115002863218233,503.65352326043137 17.17013930875589,508.0370775218182 15.978769088057652,513.4897819178165 10.869974792685131,515.8059095075348 8.878113431004275,517.7867483137136 10.345123017632226,528.419006972541 10.468599437717145,533.5987159688207 9.152378745817126,536.7826934998756 2.7827507727275878,540.0934290123005 0.0,542.3484537667129 0.12765934342532093,544.8729671279498 1.98914629582223,545.856124601714 8.277423791509054,544.9498173360914 10.805941650877568,545.0910709060163 12.537977029947221,547.0850469921076 13.32416803416606,550.1394152439323 13.3235678102599,558.102785885472 14.912483811811063,562.0843243310511 19.54533371138401,563.0231537837269 26.707569847537574,561.849020227857 28.56514053947133,562.5085396906088 31.87851732160897,566.3650940574971 38.63803821729983,573.2943011288481 41.74616927867336,580.1381320635257 44.00517947656465,583.4576384685615 44.401258041750864,585.5917109578062 40.16826263156209,590.7609788048992 38.46578723567557,598.3413250064682 39.199781604447665,601.1322082538011 35.8276264656204,603.6103754963614 35.85540468359943,606.5435642967033 37.626731959638526,607.7118358600214 40.4151897477995,607.4624354977784 46.85060090611533,604.7392803832026 49.215110828113524,608.0184574184021 50.98653275053462,612.9369844742512 52.87540943085089,614.4597825502642 58.14181806322905,615.3791894037713 58.28560544913502,620.5402051086812 64.33544243239189,627.1443000464012 71.89785389710372,632.6063474343448 78.11657923147159,635.4164786757813 80.36793374503895,634.4899079910035 78.77362486408065,630.2427712589745 79.16465852986751,627.7216172307466 81.16054569366479,627.328641527648 87.25933800976736,629.0714572854413 89.76443588778307,630.9316742303808 90.09520114003178,638.6901047797691 90.8465674706225,646.9424266902306 85.43837146276232,646.038024453473 80.26929694432464,648.407794683633 74.4333300041807,648.057410224455 66.08499545028833,650.3583784662433 58.41393379573064,651.7943508383903 55.310984613020864,655.5036926548735 52.25324353109783,656.2276538225638 49.19849486061976,654.2288319856076 46.49408227099692,654.4895050614252 44.18379562979471,657.5352231013385 42.40954660159523,666.1380027260661 43.08525878673795,670.9174011884465 38.90871430393356,674.0898231585504 37.44824295514588,677.879720923691 38.073689694530174,684.4837764889232 36.1445840493713,690.0423544752712 33.3730550814592,693.1676241296252 33.46644464021623,696.681319157906 35.49193026337811,698.6324231979854 42.12896915120287,701.6532517804504 48.12916378245947,702.8582220067997 52.74595969763969,700.8323869320175 55.91872710217711,698.7517385920697 58.550336031160406,699.3394388505092 60.541329979325546,702.9305079471844 58.94773576903833,708.1082320012334 58.15765422044675,713.2855998762894 58.15157144156573,720.7249633831775 60.00494937673432,728.1726043770689 62.05536498425625,730.4998021755293 65.23832899491707,731.966577402797 67.07996251958825,734.2248311185167 68.2924601040534,738.8885741997528 70.27517457545177,741.0118747936543 77.15818008147642,742.4909515980335 79.8022010081892,743.9646439686613 81.53132612362336,746.2242657261935 83.11605756281786,751.8103484854496 83.44482479562059,763.0304525289503 83.98079993022364,766.4891426968424 87.01832203993982,771.280036657923 88.0884270533233,775.7920357337136 87.01320192366042,781.5055638538786 87.29004133191387,786.0199178468085 89.01255767981192,789.0759134576701 93.31560806052032,792.4844510194021 98.47839661566611,800.0616924730159 100.30203841069421,801.558376273971 108.49983199145402,800.9778987933211 113.07552824554205,802.0588645072451 116.19823738992741,804.5676888849696 118.72896764062018,808.1530398808297 121.4708947122442,809.7374998397678 125.8348437129547,811.1772355317914 129.1027416779764,811.2252776469572 135.55028232739434,809.6191566105376 141.52228435431041,804.4183080203846 149.8016549131735,804.1236486237908 153.28356287076755,803.3208424196728 163.31723791517774,798.1253311961223 166.0761975105115,797.4570522112245 170.36614475017683,797.7340163318294 173.08555970498344,800.4808773848389 175.4334718575086,805.6996607745637 178.28891172678163,808.7086756160479 182.32167686839605,809.3676564642556 201.1598285682304,805.7827233080673 210.25682622762525,801.8936180614901 217.53376313364976,801.659166752135 223.9157861616165,803.4984990738551 228.33614951705488,803.4980565753665 235.4881596812277,800.3883543466555 239.2682956017496,799.8766581436334 241.601446896805,800.6606753807855 243.03641775551742,803.2711507863623 243.69089245386942,806.7995282163092 242.76957676911664,811.8711749250981 239.66221431043294,817.8600033617512 236.4005238359601,822.2909613838365 235.74251776146298,825.2870806833952 236.4051509336808,828.0210408801772 238.8705261418745,828.027356135096 244.33622393718593,825.8295585035223 251.0793732572965,825.8163817927198 261.292841098548,830.6487528822336 263.3053431362508,835.4025508979541 262.6216788621104,838.5547293722126 268.8788340320381,848.1227285090492 271.79622199518263,848.6422203883235 275.04912751717524,848.1987920792558 276.39349281892805,849.0988614900994 278.10942188522534,852.9293573278771 279.06110124127974,857.9540310431557 281.90347076915634,867.175180204596 283.5813839159992,868.3243073680123 293.2132066137764,869.2778083028736 298.6898014659524,872.3418287351195 302.359097193236,877.8985954561243 303.2669115882233,881.2942093148664 302.8819882780834,884.7063444832839 300.1631406408975,890.815433534423 297.8703577084842,890.9711500387457 294.95693873529865,888.8080242713908 293.0387527720774,889.4987896805459 290.65278645475894,895.1034367296546 289.5800682972403,895.9560883043579 284.0553617463856,894.8700990936766 276.84544198280395,896.0967368574993 270.81978679081334,893.0194198740503 269.1309014840575,893.094571023261 267.60098504453316,899.1555632356026 267.2206903941311,905.6792904630273 266.3726871637844,907.8347434290093 259.3989405360723,909.2088552700504 254.79356826512588,912.2730569178993 253.72846466355156,917.1850008612798 258.47464655068273,923.9536314550329 260.1645765665184,928.5523476288946 260.4751990327366,936.5484428376735 262.1586055130679,937.9310755848871 277.2629417385921,937.4835197368621 284.3253316216051,941.0249822825082 286.1675693485957,943.6314409582177 286.64821936013544,946.1549491441482 279.20167093102225,957.4265294524002 278.8342063314326,962.2365642445124 280.76600366896184,967.781600335378 283.63884392927025,971.1186089889811 286.2369908281935,976.3490747079902 292.992769192602,996.0021670571624 296.52176697163856,998.1565868245592 302.36654336458827,999.6943216789977 307.431686815466,1000.153957836712 310.02947703498455,998.77981408224 311.7343700035989,995.7028980177823 314.5029275700293,986.3338560610091 317.1065058361945,984.0300788243177 322.7887810239564,980.805622809738 325.5534482532641,981.1116709068885 327.0958720404794,986.4777003457389 331.70243917241135,991.2404795084234 332.30902875567875,993.3956255959171 330.8741415951266,998.763782852782 332.30007348022235,1001.9184030795625 336.6703678949278,1003.9882948777529 340.12960821017003,1006.5196694475062 341.3672263426805,1008.4834259799483 340.91062368869336,1014.1138248457371 348.07394995073474,1019.1032202607132 349.2468997420006,1020.4946472418279 355.8134635146509,1023.3899491200428 362.9611228889281,1024.0 364.18845893998986,1023.3084950385629 367.9558364963751,1013.9342186408231 370.7369772363511,1012.0754694438438 374.64938817676386,1012.6096833274763 386.7203510903536,1015.0463213293948 387.6543010975101,1014.817577693185 391.2599115079057,1007.3634572578645 393.9623215903687,1004.1399952053793 395.3515375631042,1000.2091490961335 396.50998964617946,999.2932462662252 400.1982412744603,999.3614357433645 406.03827272305904,1001.8154389055375 409.76331416378054,1002.4540969994446 415.8771858632313,1002.3036954725501 422.72323562753706,1002.9569874725596 425.84547858571506,1005.0640678867036 430.972053585223,996.9742276687807 434.62631168759225,992.3048348301409 436.84241704739827,990.6071204898651 443.37050898021397,988.4473611509544 454.8443031292414,991.4497410311569 457.58796760882035,992.7861167201432 464.6809865843932,994.2510842658314 470.08538621062917,994.1179230830022 475.1849632105797,996.2249238349309 481.92114478764694,1002.7475071034867 482.8796465218734,1004.2540589520992 489.68153510912157,1002.6802675449375 496.37054095737096,1002.2708484389726 498.31425485495765,999.6389118776304 499.82665816741536,994.0920181455048 505.6700017154616,981.742856016235 507.1655074631487,980.0574265978144 513.5278726012256,975.7951974594735 514.3191581421462,973.7725074495457 513.7496611658778,964.9920175390039 519.4175219897926,950.7696456239771 521.5890819750457,942.6121788613547 523.5173443693523,938.9298704415087 529.4559317214068,937.3781373153246 535.8332314111376,938.4011347682538 541.3362439126968,937.3266972515534 544.6723444020807,934.8977536412602 552.919898615374,930.4818778884531 553.8363977536122,929.2841722222508 554.182461802785,924.2176399103421 557.8597028528557,920.0469335506479 558.3099718801967,918.6026223447052 557.3142660354488,911.6898588157255 553.5404733699361,906.6263337654973 549.5134403638808,899.343243535199 538.9161966617829,887.4882847096399 537.5209484429625,883.4193371709478 544.8951383502675,881.9572901578372 551.4241560552377,880.1519266354395 564.2911870674618,878.2162464098935 574.0463643481262,878.4211777523933 580.7451075236585,881.4665400391898 584.2706368306559,882.0742378835394 591.714289411716,882.0076946627851 593.3950085059154,882.5318271915614 608.1067268896015,892.5311989887942 610.7987409339936,893.0698042156127 621.2246245063526,891.4661621991052 625.5172987968276,889.9376905114001 629.4232649742639,887.1807158485979 631.3492087803471,884.7236319903218 632.7968241776932,879.5060663043014 633.4484216304137,873.6092265422408 632.9070104424871,869.3326269935394 631.2099465797679,865.3714460397779 628.2580589747396,862.7980567663195 630.0646184529321,859.9518197675478 636.0464547372205,858.3161208383847 637.0427542452159,856.2096701034178 634.6030818812592,853.1265202874088 630.8145742603048,851.3917307278225 630.8137296889489,847.8210077897838 633.0035095588032,844.6860332948226 633.07250565091,839.6461674651239 633.955182639039,837.498553742978 636.4538363623261,836.5820928567767 637.9882765165621,838.0049630670719 645.2529770856485,838.0927264884983 648.2857760495631,836.9422804766 649.6908755423699,833.2976534027673 654.6850839346826,833.6878719906281 655.7856281939212,835.6479176848363 654.4881719456708,837.8719651824047 651.6387635025693,837.490096506036 651.728444715426,840.6396819951593 653.7125868363586,842.4851388187998 656.7049979212201,843.4154346926865 662.3154456172555,841.6518126099297 663.2228657100038,840.5048570461163 662.604159394872,834.435969479097 665.5507933987816,830.2666318431262 668.7209440140924,828.2475468953295 675.1427444305406,827.6025936536191 678.437342821905,824.569864324502 681.169071173232,810.1745593806028 689.1241181409539,805.6200121049523 691.7001720258281,803.2212061346801 691.2014780374072,799.9042496035112 689.3855177837476,795.0793732076445 689.1179860972206,790.2598699165443 689.8955228032033,784.6493141978061 693.7920227094462,775.7956223652336 696.2707372674672,768.566229043553 697.4433933516457,760.6231759208447 703.6925199195974,754.1179768804208 705.373769099396,750.216441997735 706.8072434625411,744.8693323223968 708.3982987772229,741.173995742532 714.1588999596116,737.1744058381532 714.8414391867954,734.5218475820262 714.2138009582654,731.422035454901 709.3757320955634,718.5451831780482 710.9434194065893,716.336682297148 714.0489226847029,715.1347291686275 720.7831284873241,710.160562611423 724.9330667646593,700.1941143569798 727.6330981839371,696.2447170160976 731.7154319788614,691.9058131184183 737.4407561394443,688.2335946320006 744.0382530586139,684.7698355145554 760.0303685164226,679.1522768057177 766.9410926769149,671.9210863136378 770.7517486563197,666.1791620420158 776.4063427708392,659.4396388658093 781.1912471154604,654.9669287415659 785.2493122963521,653.7968183565692 789.8109108771833,653.4350852192117 795.1178533485715,654.108976731854 798.9584346739396,653.5237742076602 802.5389260296829,651.4256518590765 813.6371710820765,645.8250571498099 817.7384250568185,646.1728280330434 821.3534899692299,645.6012573634478 825.7024700721047,642.1954714448484 831.5136103068148,636.5121603738087 834.0620943378705,631.5050661322712 835.6485957887776,625.5868717258395 835.9556359499385,615.9639663892983 839.5287262416256,610.2163660017698 842.3632422011395,606.6109154027293 845.6877626368139,604.047408375125 850.5568102282326,602.3745439285747 857.7836093247821,600.6301025485774 863.0651437590857,598.8781169157796 868.0039328167223,595.8562460511041 875.6064884696168,595.073139541659 880.1662443452409,597.4182672672587 884.0777554860133,596.6273513758289 885.7831043981683,594.8038960596747 891.7825640595887,584.9503529914349 891.5252618076739,580.001564651584 888.1313475973592,572.5745753572393 884.3988557984635,567.942346996095 883.5127758932193,565.8179917239349 884.0811324687688,551.3332093787099 886.8282370160763,550.2860380607339 894.8015720670583,553.081051027068 897.9203573209644,550.225274651965 894.6107450673377,544.3859099917993 894.6616455112271,536.5219830096303 900.8702751727129,529.5986217560699 906.1034241352334,527.326050709689 909.1649635680319,523.3509758110265 907.4623402673512,510.1405981562008 909.5448417104159,504.68583560512036 912.2903544485241,502.5919115088773 916.1189192309253,496.60669133716215 917.6496334910283,493.0372158730173 917.8447407848511,487.52344249476846 914.7627078317001,483.39227585220453 909.673867388783,478.27867774022934 903.8458270773252,471.7629963606079 894.884001612786,463.0209744050884 893.4912568117778,459.89808836976124 892.675112353609,455.8190713749128 893.5558118155835,446.39660574854645 894.995965950774,439.7737386980559 895.3294315129476,435.1974638277029 893.7479156845163,429.329903220074 891.3066660095634,422.41055002624967 896.0435125033371,415.6909728834854 896.4589885632589,410.2777870034387 896.4861455777864,399.488033145936 899.2123648145184,395.87718529080735 903.7512251648977,394.5667439133143 908.9804456262488,392.28570894698396 911.1770373447862,387.40213761837344 915.0926144242146,380.70669403183933 915.6520145229971,376.1079067705856 917.2180891012107,370.3200438192547 920.4031460484423,370.212558555742 922.5028442370394,378.68366685387275 924.2010993073679,380.3736962431317 926.6793257379089,380.88884635209683 929.0217143678493,380.09378707569385 929.2882997308956,376.9642462622612 928.1167025185347,355.54335374705227 929.2972195203273,351.95938879471294 931.8418968472059,348.80170506746174 933.1677904936669,344.8895387068503 933.500049964452,340.3151624028595 936.0808584489994,333.85787284829564 936.3941128044654,331.2885471013385 935.6782564374149,326.55053930935355 932.8291113552193,322.15349754692386 932.8252491046231,318.766622284307 935.8963805160912,312.8923894515833 938.649033232319,309.2005039317006" /><polygon fill="black" points="908.8080704497812,281.438030447452 911.2246165165225,278.0370947968861 911.5147603400947,275.2450196872952 906.3802323132264,279.51711181819053 908.8080704497812,281.438030447452" /><circle cx="240.54681332336312" cy="678.5031174259773" fill="rgb(100%,100%,100%)" r="16" stroke="grey" stroke-width="8" /></svg>