<?xml version="1.0" encoding="utf-8" ?>
<svg baseProfile="full" height="1024" version="1.1" width="1024" xmlns="http://www.w3.org/2000/svg" xmlns:ev="http://www.w3.org/2001/xml-events" xmlns:xlink="http://www.w3.org/1999/xlink"><defs /><polygon fill="black" points="733.7979341508004,348.10072545996786 722.297909934231,344.0410262161986 712.5160580486504,339.41343875906773 702.7372617400513,336.2223188903678 695.2473933852356,332.7623993650492 691.2254685950958,322.6735369055302 690.3377226971852,312.0357696505962 684.8753934258248,301.9413288462989 684.2905115316072,290.4357648654409 690.3179065227931,281.8199920526214 696.6399835173653,273.7809182397815 698.3452649638526,262.8513495089411 697.7682278908137,251.33832319247574 696.31852027104,240.69420434028393 698.8884284728534,228.91067792672322 702.3427580878945,219.14018887044233 700.3161408686183,209.64227592458008 712.1003735660271,198.74240384068537 717.5611712562768,191.5651149017234 722.7184835698317,183.51465575318946 730.4738611918098,175.20045269723198 737.0689825031324,163.41821766326734 742.5265329289889,154.22320361339644 749.1368383555108,146.1915443847821 751.1355236809709,136.99313234408953 745.1019717264118,131.79735419751262 739.0445197898151,124.59454478470707 732.1374015730288,117.10060729585075 726.3786744620523,102.12896983381404 727.5088978107807,87.46528520972197 728.9351876716723,71.07461629018951 731.4935211536394,54.67997388632716 728.8945110631186,38.285758360692284 722.5665924788773,31.658988534321452 712.4973950295098,32.19795285779344 704.7347589043469,36.21551837602317 694.1021081958386,40.49542826744505 687.9304694524534,45.37834934216119 683.7798752107237,45.61493685540256 680.7243584973551,44.91463988848045 678.4698103755474,42.78702939022173 674.6328193739737,37.79490298435326 672.2728886069553,36.94467631656164 669.7339823188961,37.15834207999387 667.2505628412447,38.118454397203436 664.6365636948245,36.65232284609442 664.2519211432489,35.884173019526656 663.9416288196463,31.71757314342551 665.4807182836186,26.251767701503013 665.1693603152015,25.717247546691738 661.944411127633,26.019007068202995 654.9451475056719,25.77051845492042 650.6380089169993,25.923717889989007 646.2534187964948,26.914176549356853 644.0747536967052,27.742401004922613 640.3980851802565,26.04596644309163 636.6768423038689,24.74928105671836 632.4285074035113,24.7378567443302 628.0814512346022,26.28096961107599 625.8624023619728,25.573558185217735 624.5954603762575,24.350509542327586 622.9216895037309,9.087283970502199 616.2746758234384,0.17326640252406378 608.5656318649965,0.0 605.0911323187853,7.0502802163904335 599.8725722171478,26.471270369710624 598.1956276329723,30.994958175595002 591.3098805727772,47.99487938658763 588.459183259201,52.17598647607929 585.9570197813176,53.39026838369978 582.325131874933,53.70786649181673 578.7836557672953,55.888323870827435 576.1043072849743,59.04668487000731 575.0971182193946,63.31916314197235 575.0547913739391,66.4305650475493 572.8814855378814,81.31075343597934 574.1303586491298,87.21356863046628 578.3035385468287,93.73695305577587 581.2080775644922,97.95936963767008 590.8112061752146,112.94868747914086 597.2683650956644,117.84696227494044 599.9838096601158,125.33501807638572 602.0014210593238,137.9413394570223 601.6342955535088,140.0790090456669 596.7009708086106,149.9456899130106 596.05923198276,152.22610848984732 596.5543379208624,161.8457027015196 599.3728339899399,170.32128862126774 598.9475391995479,172.4598905947122 594.7280765689127,178.4097567396492 585.9343446916153,185.62536531922672 582.866234139728,194.36782449723125 584.328688070045,202.61310484361093 588.6609275989091,212.57447641121507 594.8512830477335,222.03515117861434 599.6006475353311,228.82279428902154 600.738151777912,231.25810873091893 600.3400512352874,239.20859839770355 597.3706127494818,246.45943699309123 589.1421721889399,250.83263048420292 578.4862316612259,255.34634405383235 571.3716933862565,257.2136563880724 558.6990522702812,258.04493390435675 550.0745258492199,261.7374222876657 548.0544856186815,263.14063270141673 544.4011538668564,261.9208025992473 540.6008119564766,256.16872449736184 538.4214852003165,252.1277890401484 534.1268493162272,248.94619483239387 532.7176785852126,249.13365671878864 529.9282038817108,253.195955982599 527.5257086069514,260.57271865852476 525.6703171763712,264.87743114776583 522.115528005757,269.45931352845423 516.0179748641858,274.18905599365985 511.1923952375413,276.54947798798617 509.33250768381174,278.73188280316936 505.269484201763,285.09494520556564 502.3104624341767,288.1008836134075 496.92721883056674,290.82613182547925 494.1553585790284,293.10686167986205 492.20345247265305,299.3080774400661 492.9052444453399,301.06570296209065 492.3499840942374,314.5872556428325 487.7244525450295,320.6403192563208 479.63260457520914,318.9284722223374 470.3877436184854,314.92249750863743 463.1728140781566,310.90867599848127 458.2708857042064,316.9476614012458 453.94906555930623,324.4375107940822 448.76357301159027,334.5064997477715 441.8502088823853,338.8312087105344 432.0541001377325,341.7105908897031 422.2465402680809,338.83497054381814 405.8242140857399,335.0935607608195 395.74532965246016,334.5116988632461 388.2579817232976,332.77812737694967 381.0594297756752,327.87677935831925 377.9159889299768,325.96719554192964 373.5101594672566,328.16240118441783 369.8449882943581,330.88445038744976 363.0190089238933,334.2724470400178 355.9033524269341,342.057739845177 350.55417389639894,342.634997742379 347.2661222424179,343.5857027732536 337.4844003612352,349.81173106131325 335.5627473371343,351.93228815713155 331.0779818075368,359.99265878626966 327.8992144889441,362.84129860746884 320.6955196699086,367.66162467291315 317.79530210563865,371.9280989501642 315.45625146843474,374.4754384932736 313.3690239264481,375.3214156071441 308.68171807354196,374.7530776735597 304.02723075352765,373.1889719310507 295.6726987205352,373.23819839042653 293.3910948888798,372.5233768894975 287.15623891588035,365.27243901794816 282.64875093419386,361.8010000092221 275.51953003576915,357.8473808078023 271.02600030274664,357.0019626157567 264.7717459317989,356.7670936847675 262.3273479346859,357.6921962256215 258.9951006438581,359.92212521202725 253.3551212450061,361.44749787235787 243.91254150380294,367.01452005196666 234.35896890084234,363.60215987095626 227.13232930571888,356.43414962089787 223.35494218406876,347.232142220469 221.3260193183987,340.04493709292524 214.09452471520487,339.7907109928676 202.22469766929854,337.24961165357604 189.7903374329336,338.7350211964375 182.53829692924614,337.04270223177366 182.55140659690284,344.2334600789666 179.96866099065173,354.6028615512897 173.0269909105026,360.96501408082383 166.94905822115422,364.15475230809125 158.28065826619314,372.5330677959515 150.47580905937303,386.37946636608444 145.85516937748096,397.0413876429659 146.74516843930112,407.1071326848132 154.84557823692424,409.94888660165543 162.65270123279353,410.21133401846237 171.63641497279366,413.6253351174324 167.88141511632594,421.1159216227438 164.70780027127236,429.47436709803696 161.53803834041122,442.1461303855185 161.5594566729471,453.0795807936371 162.7260801843244,464.87583425439345 162.1608877912889,478.40546279428554 156.67652305595644,489.93069588250535 152.0603679643909,498.87705967388024 148.01333013942786,508.09541724331837 139.07316629203197,520.7949285626971 132.42911784374033,533.4841821079212 123.46774826055818,539.8460525559531 113.9276339196484,543.9005568441605 104.11423601016926,548.8248442445533 95.4582204436838,558.6305430305495 89.10143898783843,562.9595025485792 81.32059375794034,570.4607753185286 73.53634855015154,573.6368888975043 63.44249769569798,575.3710061453227 53.645686236468784,579.6972177518123 45.300337186301704,587.7579877195565 42.14245385734347,600.1337622337273 38.69431455772862,615.097995110091 38.13523761617315,631.7894081802033 34.40894980193042,646.178910375724 30.11172037921179,662.0039557001545 28.108654845761848,670.6340180386992 23.497427797593673,675.8134162310487 14.871395941958502,684.4416692056895 8.844592563663358,699.9770311616253 8.286183264870722,712.0689374512219 2.8440795217642076,730.4832918324571 0.27480758892681423,745.7286481522567 0.0,763.5815869204835 6.338403174026214,776.817268955366 12.412148639149478,793.5217501581011 22.79066021704006,803.021712031979 31.137307883857105,800.7239925817112 37.183834654699986,796.4058083336146 45.246830136755314,792.3749041426872 53.61114014285729,794.3892506729397 65.14962596275821,799.2647456883051 73.80707860170494,805.5937646204121 78.43446912324336,813.3474833452428 79.31793112666767,824.8668522769383 81.63683784643858,833.1973796016082 85.97930429921122,839.5283578931919 94.35946441769525,848.4306891435256 100.72752792075362,854.4509058699678 103.33228982704122,864.5168333129324 107.4016895940377,877.4591806111579 113.48576616988721,887.5158892495429 118.11982669945208,896.9924857616442 123.90974638789504,906.7587917752388 128.25954195105908,912.7834228948635 136.07606112854893,919.3750465169735 140.43179358964377,924.8323862195119 146.80404972184198,934.8722478499285 147.68181060793944,944.0829889017949 149.14684887423974,954.7210146227853 150.0267366287326,965.6436688720407 147.14186014815024,978.616983516335 143.9782921991858,991.0008691282851 147.1741295547454,1001.9259829602457 152.40097489730064,1011.9817612062134 159.35864672591052,1015.6922329370067 166.30966852976374,1024.0 175.8459008231362,1019.3473816497986 183.95450663501663,1015.003235347085 191.18014732440253,1011.5153877887097 201.304672267128,1008.0221667286614 211.13101469261684,1002.2256467084998 215.7438217242132,996.1592235722795 213.9987238453873,982.3519615126204 222.9456003078022,972.827670795172 230.45707385312252,964.45641221286 241.71250955466832,958.3731698781615 250.08246062751718,944.2586532930467 262.723182234806,936.3610351344943 267.50722232908197,927.0623052160931 264.3350314605787,916.476630603026 248.29672957917205,903.6793038426906 238.176888406576,894.2142912473414 225.14208078531735,876.9892908606462 216.7373883654545,860.6070289256974 208.62118866364116,843.9505672820592 210.61554748522167,830.9925337188243 219.56856913048304,816.2701684470486 236.0317459054768,794.0650158338111 242.95486586533286,785.1241412419149 255.94569704349811,786.8221606901529 271.5396767583026,786.5010204953763 288.26905558388256,786.4851321218518 299.4985190057188,780.4360189677291 304.39265408817846,770.9424570085806 309.2775243892705,756.8396501739452 314.72712378828015,743.8833868466158 324.2184355567458,736.1237410975389 331.9907939797359,729.2263140525183 337.1562475042209,718.2862749753899 340.0152143876425,701.0260423055736 348.6390386632385,691.8312076069298 359.55434139605904,692.2487919474645 378.6254904146176,719.5269100967284 385.2536474046437,726.0326675728459 388.09132248201763,726.6904844771861 390.47052721106456,726.3568522496512 393.643831212573,725.3801971053414 400.19838163588514,722.0924133174428 404.15714529723806,720.4109708775318 406.6771240357118,718.9053807377705 409.373487793132,718.3164351922587 411.2261620097885,718.4002916846266 415.7617052972687,719.9228750325635 419.5538014167327,722.1176144064832 423.4667783021045,724.8497974835908 429.99022314554753,727.3819476525748 432.97142196536794,727.8227435355295 439.24431644554994,728.1518100804105 441.9797464677068,727.819528570607 448.87167729138037,727.4936945068832 453.31419365203,726.8020839576186 464.25822623025533,726.9738662182269 468.2760538900718,727.6974842467062 472.5810474879116,729.1238017052472 476.67267697041444,731.4541246212509 481.7826423100867,735.6416105096379 488.93377959859794,741.9506784007277 492.21912381661116,744.3884653135087 494.7818338866227,746.6462446466692 497.55648029924436,748.2480924125 500.769172712313,748.9043952083182 508.14951274817923,749.1024990844928 514.3629420797052,749.8188084980584 521.159619692565,750.321249842034 534.5316481879288,750.6139765262044 539.7900807729231,751.1894145348735 547.1706378872433,752.7434617262072 553.4578376492425,755.2892597320847 557.9178632628772,755.8595106076126 564.2709236913765,755.4831223240101 569.1008511442883,755.4066503898317 574.2815529515645,754.9506516259262 581.2972930061337,753.4458239679905 592.394783037838,747.0123045798165 598.805316324617,743.5168939448631 603.4733656345658,739.1267851542913 607.707417338059,733.7272561825416 612.5272123848744,717.374959049729 614.1310488607785,712.5587020886564 615.8779493709648,710.510905982389 620.8406743405114,708.6122880610584 623.610815687819,709.4902975024982 629.7297952461305,713.8712899366483 635.1143597233167,717.3955888599172 642.1090885541497,721.1946397563472 646.1935321115491,721.9243096578772 650.7081338830502,721.4933967426402 654.0545363663729,720.4096394535304 659.5914222420466,719.8390888720099 669.3368216559405,718.3926143081803 679.4502412920269,718.4193704329294 682.0748046671694,718.7913081750596 684.9096022762152,720.3366986766111 688.7670588192933,723.6360674929288 690.7256311823149,726.1241818131292 691.6731882307668,727.9493421110412 692.2509258705652,730.5741800384685 694.0680697891494,734.965267220003 695.1646848400437,736.9352815707682 701.9351403678496,745.0728249513083 702.6237509791404,739.8288839544487 704.0309673427016,737.2416867149483 705.0598470590177,733.8828223027206 705.0342905426993,728.4300617008855 704.6814239648976,721.6289988396409 704.0080260931223,719.7023088169273 704.8417171698187,713.4319059777492 703.5312445736669,697.8644720552008 700.4609523412587,687.740629299954 694.2518707561464,673.5432413868637 688.9015853705808,660.8103884320611 684.715676916418,646.068543453405 681.6640007758621,632.495509317311 680.3602988638571,616.0535568411067 679.1493756645265,608.6476469550616 688.0678489862628,606.6430387274579 694.3959327026952,609.8268766046064 701.3003798978115,614.4413479984948 712.224565717584,605.557814078049 716.2293960943575,595.2064755461548 722.5550500774785,589.4686714000784 732.6186081474937,586.9003035663748 742.683317865105,590.0873582841191 752.4725839932219,593.8568991317165 763.6922613182024,594.7444767750618 770.0255085472309,590.721221828791 769.7190382519615,577.7730045575797 765.6648756777905,563.9585325349983 759.9019580696098,554.442336337321 752.9934309832972,548.9693951132037 743.501006092144,544.6266694149767 729.9697369520724,537.9762786178696 718.4647434008155,529.3191237410977 710.9860035892781,524.1197942654514 704.073483202635,516.9109601928697 698.599358083875,509.1325445205631 704.9281024776408,503.67654384831553 714.9801099124256,498.5249130348882 727.9143549248475,490.4991101966241 742.5696744603425,484.77914584745497 753.4970269586387,473.87940229656556 764.1333495677973,466.7047409822619 770.4587722230416,456.6380211114623 773.6084791541222,444.28123553065086 785.1191217131214,437.3866723126249 797.5004366915695,436.81743341216395 802.1011254817976,425.89374767977256 820.824670249277,410.93719903601016 823.7013990894294,396.8375611000089 831.1981422336183,393.37601845563097 832.6327350253083,381.0068485864226 826.8434588587936,377.56062115605357 817.0424816251516,374.3971146097904 804.359558129523,370.6579791845502 789.9312864466117,364.0290680137832 772.3627660327346,355.6630990268741 760.5674517460113,354.7748599413195 749.9196148954334,356.77342130032434 738.121597245259,354.4371042926791 733.7979341508004,348.10072545996786" /><circle cx="189.0222507685201" cy="703.5902007888874" fill="rgb(100%,100%,100%)" r="16" stroke="grey" stroke-width="8" /></svg>