<?xml version="1.0" encoding="utf-8" ?>
<svg baseProfile="full" height="1024" version="1.1" width="1024" xmlns="http://www.w3.org/2000/svg" xmlns:ev="http://www.w3.org/2001/xml-events" xmlns:xlink="http://www.w3.org/1999/xlink"><defs /><polygon fill="black" points="818.6081361750415,245.22876433521446 819.477396790885,239.12859852807003 819.4539870684742,234.1454519621676 818.5657433019376,232.36404236787644 814.4534139619918,229.15186702242988 811.8017469384757,228.2808683076147 810.3459842605633,226.2242592662244 810.3334350064762,221.22250576358658 808.8487052657582,217.9845051055015 806.5087450439395,216.2294964364654 801.8430803761037,217.71703294627503 797.7302387024828,216.85195548927936 795.667535412654,213.90828302081798 795.3599485078163,208.35230594752124 795.9260097423318,203.06640699916136 793.8482230190949,198.66663962550047 791.8053495941879,196.89628813868558 785.3475787066518,196.34472784695595 782.1205034803909,194.58384004013772 769.7467064461358,184.92351517267207 768.8686552940284,183.17046062111956 768.2596300036915,175.98907313999587 772.2788823579738,166.9977632074049 772.2844846592964,159.4128575148061 768.4925713654724,155.62114301291842 747.6181011772655,153.74128213343158 740.0406617238674,150.9089417745779 738.4329354590524,148.24203831055706 735.3070924823082,150.1063763728605 732.6650027426664,150.4060091798451 732.3611274661732,148.65361277575596 729.4236474911226,148.38047252298577 724.1447614097356,151.63812422686 720.3136503752013,151.6458452835152 717.41365107878,149.30319996670062 715.6346405740411,149.91822271161266 714.7731604902881,154.61261873802516 709.4739675439733,155.53319143857527 706.5334869280794,154.96690561226467 704.7525126628302,152.33131037469207 704.7446797735587,149.39016226292495 706.7969967508299,141.73707456942952 704.6134170493312,140.03183914085957 701.092096980846,145.2920177235843 697.2981470464921,151.9391436975618 694.437045903881,150.05439695257178 690.6516260651041,143.42050890432574 682.0889040666166,137.75333498015993 677.4296546792968,137.76565081987144 675.3235671067494,140.13486334613356 675.8150246913614,146.46407978266143 666.0264447989049,145.21377266046193 659.9496633740908,147.23546160537944 653.5694856098562,146.9351194524437 637.4471339964389,146.8836739454474 635.4648606414482,147.5197664948306 631.2889802440527,150.9295071171672 625.2216680695083,158.02549987604527 622.7868410904551,159.71329981261715 614.9748921861973,158.0420336062067 612.5756364364532,156.22267139622818 608.7787711487445,150.0998458833635 605.7468782198088,151.47542828932194 603.755156424134,156.70134286298082 600.0341250311852,158.4360092604486 596.3712553363537,158.18296489326724 593.2613477111548,156.6204932026195 590.535181259241,150.93917789760235 583.397638235557,147.94739828773788 580.8068666870381,137.25404823784356 583.2006499972858,132.97642052264553 591.7541708554842,119.68117639491675 595.5622455179002,111.13093980440863 596.040829004016,107.8073295424399 593.186176718969,104.96892481185432 585.0867146966849,101.21428930055936 580.8139142190097,98.37981934753691 577.9715488299004,93.05867814396106 578.4305923230162,85.94632066476618 580.8247367678799,79.76386207565747 580.8295948354265,73.60084618239239 578.4445080823239,65.55454981670948 576.0684648051383,52.28935985267981 574.6349007983265,40.44703423790156 573.2084033120958,32.860686383505936 568.4551383751055,24.817009849963938 564.656374816933,21.507863022600645 561.3369536435433,21.51525953547241 552.3008870586654,23.44175669566755 547.3157916961477,22.725562123668396 539.9506155626189,19.88380135333182 537.0876087913836,17.686019676445653 529.9554076179676,13.441421447462858 525.2127130596239,12.50796585524995 519.0267075438949,12.522714584448181 512.8536919507903,13.487427903951584 504.77875614408305,11.599843031181194 499.065285289481,9.245220509717797 491.9289236859952,7.973447103108128 484.876459239022,0.8691761918507837 480.1572601945977,0.0 478.39691977677774,2.3702287885502074 473.997988225453,4.451400475551168 466.3164495467499,13.558850350678767 466.3145724988333,17.366299444918468 472.01321484753095,20.19916070101044 472.9601203200093,22.564467106164216 470.11852828370615,29.68443335232132 470.5835866890775,32.046926483688935 474.39224812752366,32.04355049093351 485.7777443324126,26.806888675477353 485.78340413516656,29.186707496769714 483.4128175284759,36.29957454220494 474.85658654353796,52.900415477358706 471.05798997000437,62.86556681689933 472.4753756520146,74.71861702903459 476.7609094011213,77.07756418976908 485.29949463893985,77.06461909480947 494.3199759374464,74.68242390367038 500.9745826030594,69.80920848756477 500.97294058881033,73.60029588895725 498.58954074413685,84.50455120138236 498.12469584639877,98.73178896207844 501.4342032817786,98.72758943052122 511.89933601078474,97.74988767842387 516.8889035638587,98.07364978372846 516.4439274634565,110.2156972203968 519.7559873970723,116.24292572859292 519.9374504522654,118.71422821238991 518.1124898851921,120.97715904291056 514.6153484336218,122.72539316306074 508.898385971288,134.71994950322107 505.9303671313997,139.638476192123 501.70653788494286,143.24719681945226 498.89957527844143,144.14268878204643 493.0880201878429,142.28281115130335 481.50734041207335,139.86866593224806 477.81418141313276,137.49036867242137 474.6657146227648,134.05706655574727 471.7962630261345,126.83047700997247 468.8358706856395,125.60410374235892 462.6197980730233,126.59655577222497 457.7638049026535,129.63862349067165 455.64246927865486,134.61514829807493 455.7566469965112,144.7145091536222 455.1329452863935,147.31691052391068 452.2698366545367,150.54747803026976 447.0614413919576,153.96125578831607 445.36967911064175,156.2481241045963 443.4894007537689,161.56284091498105 442.1038151525881,162.53629962212472 435.42989719369297,163.74585758586306 427.9747393478127,166.62599288043702 420.4991952527229,172.89365237332163 418.79590840820435,175.17227541382204 415.7255872427132,184.27719337590452 414.2382386585043,190.6670225650521 411.9105070205542,197.49960383540144 411.55717224874553,201.1770665129501 412.1391706105963,205.85009837981704 411.75833536042313,211.8381578297509 399.9384624079991,221.5886305356015 395.19672587965755,226.3231994686995 388.56439521216544,238.64521194169492 379.10784203842,250.00972795694224 375.31917835978277,260.4394140827245 373.40883788519267,275.60467862704206 368.67859720181275,288.87034949084057 360.16707457291415,297.391501943953 352.415351260978,306.11199093282255 351.15518935521334,305.85415757248893 347.3956112309942,308.8526878851053 343.58692799818726,316.1116655301788 332.7275589198175,309.6730986105722 327.0342748357596,309.656435557406 320.4246042490544,313.43770155780635 312.8478813624752,323.8498525407143 310.01411025054665,334.27643903965634 312.85913342199177,342.81374489260554 317.65956764761194,349.45263613362636 316.2871817416708,360.4722724109638 309.5860109168365,364.3834580491656 305.2887741111853,369.1113527226215 309.61462067620164,376.90418620337346 308.99195296509725,381.1299894210133 303.1947201806695,385.4311910325722 294.5887396045364,390.0126455751814 288.42652482245677,392.33019999712894 285.09645517859644,396.1282004155048 279.53494161484656,400.5441145774837 263.9418290854928,407.09497435372936 244.77572066604324,409.8171189918171 241.504632993914,411.38751226463114 226.2002003963279,426.8706072926082 221.6502311929377,434.1601758268294 222.5684177734375,449.0741537681321 222.25525279405653,453.6453717928515 220.74064055345767,459.4254952817033 213.4516152841938,467.6260478963337 203.41392376544206,471.8758695730321 194.0054041137014,473.38453914645476 183.965679272625,473.07703121407513 174.23112060240334,468.2063149637757 166.93247005343684,466.3730175367793 160.54950622543205,466.3698092703522 151.7204828018972,468.50147591164665 138.3382938468506,467.59537249396783 126.15911828252415,459.68477450636556 115.49297422132082,453.9173599476031 108.5032123528093,455.13133123141193 101.7940867852184,461.84370841838233 93.58153069613617,470.97843178099237 83.81484691145064,477.08067518097903 74.06376271031247,479.2218386759022 60.659708826101536,474.3777481672778 51.21723911497846,467.39913400856364 46.023329210635445,457.66623578716826 45.038127619207025,446.75048917260614 34.76855160488338,439.00220233266305 25.0032310761465,439.1511488228177 17.065610294206444,440.68627129012043 11.591268040982992,447.39789606028074 9.38752025967136,453.90011328076355 6.90314438401178,456.27160806531907 0.0,474.18869045687893 4.823729314297148,483.1205958433649 17.244027840038004,494.7958688106716 33.78592682378693,507.13836720548653 40.02532940975115,513.0814744605249 42.477050666366225,518.2479105188197 45.187378197985616,526.5398425815335 47.58541058115184,536.7178353493123 49.4458539966225,542.6641532143386 52.371025583274125,549.421410883486 55.70629779219167,552.5321989192228 58.85565510204512,557.6461150312817 58.68676931036704,561.877026185503 54.95847489442703,564.6424945306132 52.31489091325346,575.7318207901753 52.273088152411624,587.1179270911002 50.266349028892414,594.6580704193436 42.394408025636814,602.1865930127744 39.407872267161686,606.9342883781405 42.12633989816953,614.2739509219987 42.573185194653675,617.0672499623265 45.82957093787458,624.106858578687 47.56421056487305,630.6343929410956 50.30899728286747,633.0487895432282 56.17553473938407,635.4376568264856 68.34961057242167,639.3858294414069 82.69229868748639,645.5791212441211 97.73713851931046,649.8616959967142 111.38592214321777,654.6231534425661 123.1488472944217,658.4349504693148 127.85224822612095,661.7493047421424 128.2925115633809,666.9282718189917 109.44432964849179,666.8564821099031 92.47324229505429,668.6641792612957 94.30265802757735,680.4345059075254 96.61188957959017,688.4345045303529 102.22162640881496,698.8121257846118 108.74833799457713,712.0051186037538 115.74974048242808,728.9655349059879 126.05678249144555,743.5870417551952 134.04087420722513,745.5069413121062 143.94059056761256,746.0220492488608 160.87129582978247,748.4607135278428 180.59655070920965,757.9754199144256 199.35613721262632,767.9587483591654 208.23557779865797,778.8269948184766 215.69482557911223,795.8113035262938 221.2770717254849,805.2551451638562 241.9469978696854,811.5121535731283 264.9753255654954,809.3191547029262 281.9189822068038,805.6691531245866 301.6596853740992,799.2231560692953 320.5376232950253,784.3035222526212 330.9150922462701,775.9160378486604 348.34045166341195,768.9752484756413 361.5386991517193,761.0692306185896 379.4200320776059,756.0115581564187 392.6293227874232,748.0952922739601 400.1820318776623,741.5546339016378 405.8101079988336,745.3558555070064 414.73696708326145,749.1609821890322 419.40728599007764,756.7219145951046 434.94083771057046,756.3233643742471 447.171905364095,759.2073040890829 455.12644539183754,769.1244998661032 458.31748293010025,793.1359786801495 451.6256165162972,814.7467787719398 439.79044477006425,826.9196802973622 415.72137492704996,843.2618690094183 401.05372545437643,856.8099740102016 392.9918880287314,869.4688765286871 392.479303630652,879.8102804040216 392.42016033806823,891.1033940668852 398.50731010830236,897.2512798728366 412.6440244194691,894.0473926362374 424.4383072940019,887.0540868534938 436.70965093229694,880.530158540692 452.7202670147336,877.3140880653149 471.1311145847073,875.5105550841178 481.07576780487756,862.3797909211086 495.35381192160963,837.0297054255498 509.05470174753236,829.0666949381416 525.1122871672443,825.8261730335838 537.3716039132482,830.0918152608451 541.1667276884917,826.332454447475 556.7717677192738,819.7809260299952 576.1443292584203,818.8815713180741 589.7941527523838,826.8994483149472 595.4456749407798,831.1466755466707 606.260145689671,840.5659791891101 615.1859246695668,852.3494075315803 636.9004541145001,854.2572070326348 650.1701012848604,847.6892924195278 656.8598496425319,832.1769728919182 667.314047756836,817.6159926874844 679.1367789787623,812.9351578549189 694.2578693195467,809.6793438524235 703.6807493441735,815.8111004122384 709.2630314340656,830.8874194313607 704.0006343328197,848.2791615929992 698.2658775367112,860.0295671089303 692.07204003186,875.0600566588514 690.6082728018798,883.5259346756609 688.1537170135018,902.3383957417972 697.0879147500067,910.354578369512 713.588458457354,912.7532544276468 720.6697083417971,913.2450219071897 733.8883407962301,910.4582760558064 750.8863954149452,904.8707482357769 775.4073578570319,903.0910139217852 799.9363351824051,899.9116835101721 828.6613164452822,893.9480733997935 842.7652540340563,894.5034392097288 861.5746516734968,896.9739919304589 873.7475930743368,906.4636617207982 894.9856210141838,886.8432196047947 903.9562573021082,880.3230455238987 916.1923028480768,874.7669389455359 922.7649834139818,874.3435719909232 929.3443466958527,877.2176562469897 932.6543657321898,870.6454505450682 933.1958641361182,853.7111036349987 932.7956392431144,842.8947355935646 937.9867344963403,835.4012212934242 961.051286430447,828.0323166088559 966.682337168462,827.1363270489048 978.453033099352,823.9279172952427 983.1992581603189,812.1967680721102 984.7077483551187,793.3852311073009 979.5423748417049,788.6427661804718 967.3662223417206,786.6863537543036 961.6475509976035,790.1177422449972 955.4611256369715,791.4841295598056 953.4034710335183,788.0374197948349 948.597688734547,783.2062077849614 941.0466429644907,774.2516953019508 939.6724025576057,765.3016147391373 940.3530110853002,757.7316315326333 943.7905018546533,751.5460317959105 944.8961798668341,748.5057416238294 940.3208672388928,743.983857823568 940.2811112713871,741.6699375672465 942.0048858753704,734.7067390348394 944.2803379443051,732.3632429206366 943.2389145059786,725.4557655798133 944.1214606469409,723.1280225915498 948.6622561918741,717.9802354624575 952.8001722765191,717.9355469568645 951.3590364812603,713.3332068995556 953.1699274219575,711.4564307679369 957.7968561627231,711.8538435879964 967.0765800783213,715.4132175506696 971.2103485680941,713.9631032556705 972.0925340917695,711.633183121862 972.4734982520115,706.9993570425742 974.2844985705274,705.1408309973467 976.5974689175349,705.1007111691406 978.9352993298822,706.9159473130803 979.8958616911628,709.2118644220926 982.934190924696,711.8875027701724 986.4127239916467,712.8184430293061 988.4049103879568,722.011658590746 989.8378397035171,724.3013769595259 1000.0653053175308,729.237968519802 1001.4704034183802,722.2346600359685 1000.7862217636434,715.3599772307825 1007.6554831094223,709.8671123273689 1012.4660133199443,704.3649973296883 1014.5269681883905,697.48935931046 1012.4631468649166,691.2902221922902 1001.4716825448347,687.1480545411607 996.6638995629189,681.631716416542 993.2325867935743,673.3731161061936 990.8920613234078,663.5899219233143 996.5234955038537,653.053187105795 996.8637202130616,646.125778363479 995.3907662056746,641.5242045115467 995.3706149894678,639.2119369561776 998.3093687435519,636.2232429914757 1003.5367394804761,636.5722698668199 1006.9652985265669,631.7661590363291 1007.6598116232865,626.9443801780953 1006.9700044419717,621.4380976256493 1002.8492357579648,620.0599646984645 995.9783635825095,620.0428241296174 991.8529049407288,616.5998199537725 993.9234309692022,609.0358805302787 1000.7844039034427,593.9094904145595 1013.8399342320766,575.3434270906162 1015.2152329618134,569.1515307531052 1014.577070210792,566.5940413328128 1024.0,527.3363957735651 1016.5267508017771,515.0545706688183 1004.795746769067,510.2789265079685 989.8006609671191,497.9438763641221 976.2305784117849,483.7416500083337 970.6108556898088,479.003299330739 962.2186729172009,464.8310629981164 960.8924900542618,447.8832669678222 968.4408175508838,441.35076024601454 980.2246650086201,435.3114388023504 983.5325088723404,427.33861783001777 968.5299625970607,420.64817162002294 955.3953097056359,413.02720367690546 941.8118635927203,405.40308855581236 924.9493823830394,392.1137247233953 908.7354170334198,365.82762097959653 903.1775763480101,365.630135320064 898.5531150279143,364.3247525953386 892.8837666426708,359.32351698556704 886.5880682426472,355.34269923996476 886.0048638812493,352.9970730196944 885.0877242173555,343.02707820246144 883.6188258744787,334.80145282631963 880.9766331852128,332.7470297139573 873.9196508611524,332.162786243396 870.6949927062559,330.6958123850494 868.3488426344386,326.2990684126355 868.5531543801344,322.67413748098465 872.1943993423828,315.54331015559285 872.3990523993409,310.11377546479866 869.1802379482954,306.60246508824 865.360653316868,304.5413201888517 865.0717280397404,295.3246349538365 862.3965612069769,291.94328569279025 858.5790144994538,291.06390401077556 848.6194150702921,291.65487967910644 844.8276898759611,289.9124950627845 838.9418063320057,284.62296367612566 833.6392531379228,277.58238408560055 831.2926958718194,269.9408263801066 828.9370302199138,267.2952436776543 825.0980523240625,264.56608900607023 825.8928762435321,261.99434824922514 828.4946087832361,259.8796200660703 828.3016789764625,256.2716974666964 826.4435768775613,254.62752265970232 820.6040119104867,252.01192986812907 818.2004450365872,248.90005167616198 818.6081361750415,245.22876433521446" /><circle cx="580.5525807473367" cy="540.5017434742193" fill="rgb(100%,100%,100%)" r="16" stroke="grey" stroke-width="8" /></svg>