<?xml version="1.0" encoding="utf-8" ?>
<svg baseProfile="full" height="1024" version="1.1" width="1024" xmlns="http://www.w3.org/2000/svg" xmlns:ev="http://www.w3.org/2001/xml-events" xmlns:xlink="http://www.w3.org/1999/xlink"><defs /><polygon fill="black" points="549.1902910401623,604.7173521753092 552.0142767117924,603.2987843640997 553.936088839538,603.4297838235477 555.1127368898376,603.1229999389669 556.9873485663702,602.10035441118 557.717509080263,602.1955185664292 560.2013801150813,604.2842630117225 561.223526032347,604.6854184212028 563.7961962709439,601.5017746019066 565.6098090981101,598.4079533118271 566.0070272465684,596.7664551693973 564.8564458687285,595.2925881073567 565.0312752214292,593.8914646031974 566.1403169332569,593.1960169307386 567.6781388875904,593.7741354088439 570.8806807002854,595.8910942516043 572.1444039487525,595.2393685418697 573.0504519824885,596.1363121888706 575.376195687934,597.2235043270421 576.164044770384,598.4323514231271 578.052969345291,599.8292134458381 577.8614686566895,602.1609386174551 579.4275122131528,601.8147577822169 582.1702735091965,602.5984089757269 584.884024603734,600.7504105560511 587.3303069931086,601.6111969411929 590.4483021196244,600.0203906320949 593.4423979233464,601.8028324258084 597.187310138685,602.9595432258557 600.3370107771461,605.4647197160504 602.703531926141,607.7906940047986 604.9810516983389,608.3034446500245 612.0385823035423,607.7780512597539 614.827861288535,608.8360689582511 615.331825113902,609.54096420024 615.2683146885528,610.7167230510406 617.3348368540926,612.1555658281 619.9863735779799,612.2722575991327 622.9719735152453,614.0069467345825 626.4082570871377,614.3479064057835 627.5250880846411,614.1847441404441 629.4646127378281,610.227154784696 633.1104111825908,608.3072918904038 634.6602611577107,608.2428954566412 635.690252163416,611.5916064260435 635.2536831702703,614.4431497144832 637.7177278246133,615.6373327318624 640.2530698275306,617.4109794198556 642.2778924929196,618.10393481044 645.411164079649,618.0922175086857 647.2601866619195,617.4676997742959 648.9254092480597,615.6713180181786 648.5376060491301,614.5755730381861 649.8879296252704,612.3950214421396 650.2297893908974,611.3333354889701 651.680047484435,612.0549857260357 653.2607493455034,610.1542360701649 656.2915331422753,607.7410824873332 660.1621680551305,605.2344506647607 666.0977036810274,602.7914609869614 671.5515064206932,601.0357485077141 677.253504441318,597.0311833970064 680.5519410513132,594.823320408244 684.0575060228207,593.8847174815801 686.1291049014978,594.3433309416321 687.0427134996193,596.0885594167895 686.6479093919683,601.670782890968 687.0151300588565,602.6939147809717 688.2407517774936,603.4839857625177 690.8882561310289,602.7774331704288 695.6949487112794,597.5981315408042 699.1180810161911,596.6532179295316 703.342427972729,596.8744926392416 704.8256654124913,597.1379861294786 712.3074479797278,597.4772302650395 714.461626436422,597.3391888947363 716.7549021766972,598.6563716759742 720.3056655558131,604.6552288977388 722.9756126708353,605.1804134606375 726.8880001649235,604.0252600450071 728.2266779328748,601.4465396606064 728.1305974226299,599.0530814462114 727.573465488605,597.8030006226916 727.2880779560054,594.6086637409545 726.8871053562234,592.3726086393095 729.1473795948542,587.5014992795733 731.0708404629704,584.9458848445422 735.4191228369627,584.7060694256255 737.9273100071761,583.7880691460601 739.2150683803449,582.9456054298579 739.976739243224,581.433888293447 740.7702608062552,581.0495344697899 742.1127463928084,581.4724023388453 743.0088627593431,582.1742905931262 743.8020754048549,582.8584594695743 746.4423542012912,582.966202119489 747.8543246361061,583.242650063252 749.0822426222367,584.1098772410543 751.1666477559953,587.3350064974826 752.3014959065267,589.7409977989439 759.6532515512523,593.9594292679748 760.7023992206088,594.0514290667863 762.6674590904059,592.6670897888749 766.5350787545134,591.9446440882901 770.1508977745654,592.0119955085828 771.7264701396111,594.8315595459039 772.7681944068966,599.7334881706672 774.2434975019391,601.6248244285488 775.6403918955073,601.6236285998424 781.7161457610706,600.8690805141788 783.2851248220924,600.2238325056834 784.430175040108,600.4714439377234 785.6673620983465,601.2053296524257 787.5688109984582,599.2400562767127 787.4225996417862,596.5572595479948 788.5073243145271,591.7909600066339 788.8955252969909,590.6678636904974 788.3884397261044,587.9337869360768 788.5942879402255,586.438203706564 791.6973400768884,582.9979520546465 793.4190629258285,581.8481328748717 798.1234017070411,581.4550637317184 799.5965063085923,580.6930555797736 804.2717136614697,577.8922645764932 806.2348610961708,577.0138571606608 807.4959546725545,576.9351763129116 808.9287480794796,577.7232459535987 810.7381080367905,579.3216417793565 812.8898467890573,579.6132727651973 813.8904718139228,580.8261236564085 814.1497500336357,582.9119721324163 815.6874623635413,586.2377508746451 816.6064097411667,587.452254589282 821.7613123126622,591.3555980622931 825.1709533277063,594.2731174551691 826.9904648883451,595.3234432751268 830.1718469905004,596.6487087597272 831.1253038928604,597.525741460486 832.2685474786273,599.1186152631773 834.4371196244191,600.610055713769 835.9887605063575,602.0684242146763 837.5226210227548,602.708882690959 838.3801456064019,603.88535621853 838.2210294968299,606.0408120152084 838.9482147959345,608.3422650676686 839.7153858791597,609.6129984385955 841.7125698741837,610.7388374424202 843.5703095503505,611.1147555136474 845.6680965737119,611.1946913093719 849.3868015075982,612.5534931605871 850.5340281068999,613.3408215903194 852.3917297598907,615.5849869908382 852.4233769447723,617.0369799519697 851.5303884377588,617.5647416819788 846.8560211213385,620.9746925878898 846.4643105238531,621.8616919563266 846.6235820488512,623.5357764984411 847.7696927759034,624.713112545618 852.1560753800028,625.5293060696076 857.9809015976655,632.8660147456987 860.1533753323888,634.4040145091539 861.4627439733994,634.5667668046362 864.3582762961194,634.3841290960117 866.6128144160881,633.0987795279888 868.5071488046518,632.7528481253437 872.3292551302096,634.4784650280521 874.9254247950913,637.0036735820546 875.5545501871894,639.8373740958314 876.4076035125269,640.7434731434029 880.8086941411195,641.1732265944781 882.6626392331434,642.1956410935485 884.6940742410168,644.7205977410047 886.4945708598484,644.7325082478445 887.7168788925756,644.2029192670382 894.5757743634716,638.2909702386595 898.2041105371068,635.5054228147279 900.4774304928511,634.6472889525428 901.2909485188927,632.8974236428046 902.7527077426126,631.6413775704686 904.256537055553,632.1949842068635 906.1154119140435,631.6432156176529 908.4081720014834,629.4163806968244 913.2134138298051,625.6052922602521 916.2886862680749,623.8949617182129 917.3237342529359,623.7518400930846 918.6801803837045,622.8546105742629 921.4326452714882,620.5438386768398 922.0053031551025,619.1172184111682 923.7997332402098,617.6082876487477 926.625010155838,617.9839642800353 927.2165973872662,619.0794979978284 928.2274045552014,619.2209860352053 929.7050977713404,618.2477699126252 931.1458844423101,618.3190926304133 930.7853867254092,620.0119117121291 930.4016478480256,623.7666312821665 930.6863011340148,627.9484127945391 931.6797605140036,629.5166448135536 932.8378681530246,629.3505206432702 934.7536651488358,628.18839168966 935.5155821552679,627.3706044099415 935.1616497214204,624.6108994751539 934.4242520459259,622.1515401669132 933.555691336374,620.2169536625445 932.320350287956,620.1472295649863 931.5721019328934,618.0908729976661 932.8582701066828,617.2811503463454 934.3558965200862,615.8583032500553 935.0335596667238,614.5341185545772 936.5252736425449,613.2964569207378 937.5984683800559,613.0462381622721 938.7146950780657,613.3033565414013 940.9791750975337,613.0047369882396 942.9473388014069,611.9203800202968 942.4993913999683,611.2577322038084 941.5013593961378,608.6598102617049 941.4247589673789,606.7469036997284 942.7962200127654,607.3740203506063 943.772139224436,606.921144649128 945.2741698984851,609.1168596694431 946.1952462323928,608.5267111703998 951.0668384641202,608.5204170096425 951.2738970880969,607.3202316625025 950.8779978974329,606.6829146852617 949.6156810867998,605.9080358696131 946.8394910999689,605.427274143454 946.0002577280845,604.2986658738937 946.115385568649,602.6846936015975 947.6778425337815,601.867709910739 948.5176109550562,601.7485369650428 950.4112011110018,602.2831566801823 952.6361250084842,604.5995470000383 954.7106953108059,605.3874023693518 957.0438973499081,604.5511818381312 957.7738884258442,603.7276682819572 957.9560278954615,602.7790421026283 957.7502202793601,600.677698214821 957.8296450505344,598.8866377219798 957.6450671349359,595.9795844972255 960.1852934966864,593.983057936374 961.9317765484169,593.1344001865032 962.9842034537506,591.2470231722859 963.0222227912017,590.2890831719628 963.744867808246,588.7596070910715 964.179057799813,585.9697935126062 965.761410683902,583.9178166443272 966.9381669769061,581.2420954084411 968.8342022099522,581.0829504962153 969.8520010436191,582.364011012774 971.1614208486208,582.5494805975328 972.6686086196848,581.2114731481781 970.7492729744728,578.7915329092089 971.57605236722,577.3584717567268 974.0640051508707,579.0914977159184 974.7151097710803,579.2663578218352 976.7997936534308,578.0129178834251 978.6796493093648,578.0384174622296 981.0447485843048,579.7741138665576 981.7912086717905,579.6428366715686 983.966117104602,577.9184568951366 985.3314171910746,577.890776540125 986.2266835384212,579.5838000778069 986.5607408361848,581.0006599114041 987.6557538292707,582.0685229643778 989.1099644603585,581.8930701494144 990.5587781816082,579.4802721321241 991.317491826288,579.0187834616313 988.3688884818207,577.3780326702753 988.3926109929048,576.6979085161386 991.5090390989665,574.4475204175188 993.5650123986976,570.9042150133745 995.4313872799754,565.1824599171132 995.1306051915415,563.8575988405815 995.1537040453672,560.3541214038669 995.970368663295,559.7661420456826 996.883417349864,560.1383179250109 997.4389196941981,561.3839355680657 997.8394526512141,563.3857666358338 998.5392003570959,562.6489189241116 999.0208401558433,558.2231506599196 1000.7510185840875,556.8464909322694 1001.5497071224934,557.5644814042013 1003.4108501602658,558.0771381614024 1005.4128408587449,556.8844015100821 1006.4002069590558,555.7704432755164 1007.2261789191493,551.5938583025292 1007.0682671246399,547.4893776878171 1006.6940446581348,545.3162796950214 1005.3906643534807,541.3543887048147 1005.0957576584501,539.4828699355486 1005.2502813428898,537.1249989106253 1006.6847934112031,532.7106282877721 1006.8047481105126,530.6046717061065 1008.0109826464729,528.464064092541 1010.1716089201002,527.1423370541953 1009.6909922587266,526.409856715942 1007.5918229104294,525.3705094226805 1006.0468303155461,522.7479856145171 1005.9689170812497,521.728308224321 1006.3946614118771,520.3534131049921 1007.4914030888217,518.3477809693237 1008.0517089337707,517.8191396963236 1010.8897216597892,516.9150447437249 1012.648430152156,514.753803638029 1013.7122492687131,511.52393708518406 1015.2198913404209,506.0622872825172 1017.76882088734,504.7503217743657 1018.8147806286406,503.9781856052624 1019.4079673848705,502.36215539591586 1020.726998084692,501.0622621708005 1024.0,499.61908375844973 1022.0918677242832,498.4049009398447 1021.0222564069293,495.94359306983745 1019.3679581982174,494.24187066400134 1018.7679118577099,493.24364969334107 1018.2119128093183,491.21011480255845 1017.8224543022892,490.8251955507808 1014.2569351218601,489.2924945598946 1013.5333047650278,488.66611642358794 1013.0652591704259,486.84150078082644 1015.3929573482606,482.2306531246426 1015.2954017475837,481.24569334189187 1013.4772106671068,481.0697981437286 1012.8471494700558,480.4871526300632 1012.0954165434893,478.7687701954629 1011.3333504407135,477.8410056351638 1009.2428470745201,477.0399511248236 1007.6786406297217,476.771194321644 1005.5844304092054,478.18199322801763 1004.1654689220543,477.9751685887895 999.0743919878021,474.44773678137557 992.3786529497125,471.0072207428173 990.5494611601499,469.1785144430133 988.8522999273521,466.10270771683906 988.1005255501932,465.1349411695122 982.5447974838434,462.1187072394109 980.2132444845681,460.2373833961119 977.9562157299118,460.0578135842726 976.4130215254551,460.57720158677796 973.7047412177025,462.0009482981678 972.1015124616989,461.3636004302234 970.1786531887237,461.85979987318876 968.566022903017,460.02514487473354 966.410357420088,458.99391342728336 964.8014831074953,457.29715763831814 963.7626671926201,455.47490035658717 963.0406052440179,455.25604771687847 960.8858697975153,457.52031507995014 960.3242422065767,457.57366089152197 958.6077182948276,456.4913016211117 958.0119703829448,456.40776545843414 955.9082538222756,457.0257805921627 953.7630738430336,456.3947383056593 952.7038620512792,454.9670072805111 952.1112817874482,453.3570962405821 951.1924822412345,453.45206800007696 950.5672404633739,454.2504905237742 948.9335689656432,458.9937985900966 948.9742109977919,460.64428562426883 949.7795631944327,461.74910215853544 951.5840804252548,462.67830031918317 951.8576376350785,463.38867690762754 951.5404128527769,465.89042669934 951.835419307108,468.3043659765365 952.4760518577461,471.01937244053715 952.7096098065011,473.00762642284434 952.1708669910756,473.5871020898028 947.6942837285803,473.97996985621904 943.6446171775261,475.90214866059773 943.2963411770604,476.31903655941954 945.337998409699,478.5525654922676 945.4044712731034,479.5977468852078 944.551471152997,480.73727230738547 943.8065591762978,480.8542675459686 942.6251779986262,480.297293783454 941.8931267102074,480.52597327464537 941.8745425506473,484.37709303725444 940.805725735896,486.76612976940044 940.1336577127665,487.77027370715473 937.9623269287392,489.91662309642174 935.8932284509544,491.6323180153501 935.2653417587932,496.177147432246 933.8886519985831,501.1227357563922 932.407519223043,502.6076069330742 931.2738751078151,503.19464008765186 926.3668953993919,506.7237922927594 925.6584933228637,507.1029134023602 923.1356972670735,506.629954461442 920.2413017673038,505.17067014026736 919.139868823439,505.4012318826527 917.1134112618912,508.98587672299095 915.3590399884072,511.523635744142 915.4130496431701,513.3797862148629 915.1512850581679,514.8812333436292 913.8985228135236,515.6620722830561 911.1530912017552,516.6357766168201 908.4611717439349,516.823842436972 907.2286212246772,516.2797702628948 902.7864282079968,513.0766861234337 900.5624807167551,512.2198684105633 898.6007429469811,512.5023058536625 896.0801910177441,513.8716214642845 895.6015653716167,513.5731318471103 895.3920807315086,509.38226165155146 894.8157856181311,508.8491530064249 891.3837530430854,509.8039628719374 890.633956449681,509.7357021191707 887.8975706506051,507.96131091582834 886.65775614625,506.64590129224064 885.3306627801605,504.6282640910498 884.6389279934718,503.9595577228127 883.3045822440786,503.4235175019685 882.1175568228075,501.25123692860143 880.6779997037745,500.12534867277463 878.5762134653982,499.6331270838248 876.4230918424763,498.21374132479855 875.2985568097206,497.88390390959717 874.2050582758833,498.0138059340502 872.7172448043389,499.27189695922186 871.151530616235,502.10547826540375 867.7081471725678,506.6604965479411 867.3627887006234,508.1761789436376 866.4798220158256,509.02580446698516 864.1832907468299,514.0429892437912 862.3784748853603,516.3093877447197 861.5433652941256,517.0128748654695 860.3402779371737,515.9331372378562 859.2840561173552,515.4495142589784 856.8108370701046,515.3195797082697 855.1208106995224,516.3120124388604 853.6989246178927,517.8452698674024 853.1331989958805,517.7521251966245 852.0875326291753,515.8850215341524 848.3532872467036,514.3397765733857 847.1179871733233,513.1551938519729 846.4330501715497,510.8982959946569 845.4126650468253,509.2215954925499 844.3851257138965,509.1054903848535 843.0022880679721,510.55797562674434 841.8487940587514,513.1250969268978 840.8140434070274,513.1475628820727 839.1699354326672,510.1208857476838 835.6749892218179,508.67532915285426 832.739636617909,507.99466774865965 831.5720514178217,508.02616370042523 830.8899890988721,506.32903966390063 829.4714212910792,506.60270057896446 827.5917762360285,507.3675382894069 824.3393819260378,506.7058526819799 823.2223212707295,507.1707966978664 820.540787372192,506.85234359591175 819.7988400970053,507.61874956256725 819.2567497659275,509.6057084537582 817.7905850507568,513.9433282988679 816.7165245872797,515.0193336851463 815.199231705751,515.9866372088825 813.2091129862396,516.8847080902453 809.7007710256709,517.7152227315464 803.9672305173094,518.0256060039886 803.3805519786129,517.4187609910807 803.5236223480518,515.9208681958066 803.1600186480597,515.1777316167692 801.4136230919229,513.9891186393302 801.2624473508677,512.6289855232968 802.1122681043713,511.59740627970996 801.9781615470038,508.0904983342617 801.540456916574,506.26263576151314 800.3463415592183,504.4965756461286 800.2869713649666,502.6215549987543 800.7751580380826,501.45254033755714 801.7385649976737,500.48485963212045 802.2514214733874,499.02589793047093 802.2812619242284,494.04243992901036 802.4729826036021,491.4256322054737 801.5715948883319,490.45040014899087 799.2564322859932,490.4260564823955 798.6159553176412,490.1695378309995 797.8665347823737,488.0856023732316 796.623295127998,486.41324415966324 796.3277205200493,485.47842940283226 796.8911049000409,482.9993550201026 797.831870082979,481.953547406172 800.4214571072121,480.8996803171763 801.8247435188234,479.4427648613289 803.1156175092921,476.51454949439 803.5946643660834,473.4522655246626 804.7503575161392,471.4283699373782 808.4359047383631,468.98987392199786 810.2798745497947,469.0499702669887 812.7396450908604,470.1623608428365 814.1216841774199,471.133179368294 814.6844611862635,473.06218507367396 815.4220958938264,474.0397138332223 816.7748746838336,475.07049148858175 818.525218142655,476.0201278798277 820.1887335605057,476.2481883522066 820.6694834117435,478.1459529168475 822.3942311460414,481.72174146273676 823.003943974921,481.9913467403898 823.9784495734896,481.5759893279759 825.8743769886142,479.2457584696247 826.2509358709962,478.18474116345425 825.5627386981445,475.67968830672487 823.4009552863623,472.2655476955521 822.6894143032325,471.5372702876955 820.2559407454738,470.25349995197416 817.431803097645,469.83971741916116 815.677574523446,470.14657594410556 814.1113695686214,469.66662566647835 814.4370469063065,468.6008246869334 815.3955158512084,467.93591148265983 815.7913809175961,465.84900639307847 814.1085714216503,462.74706962646 812.1301106938372,461.6250937157561 807.957518461109,461.78494729861995 805.7938500809047,461.0936120636609 804.1428931636271,459.47064322307574 803.4107962738524,457.743411474542 803.4781682023647,455.07911430540787 802.4351780953305,454.14066981735624 800.488919642063,454.04304217571575 798.4036755732138,455.1383425969834 797.6335162058456,454.9965344459106 797.7331825099022,452.8967534649529 798.1989441568745,451.18439727124905 798.0891528052108,449.8259501284115 798.3848012796556,448.2945193595668 800.2117716865436,447.0993900208734 800.9952367865477,445.9066347938991 800.958038395271,443.1269513639313 800.3928818295024,441.03497352833506 798.3178312954418,438.1599378026987 795.5817664198668,434.9372402417567 791.9718714100721,430.4904956306435 791.5864225746619,429.15139095703177 794.1616805604051,426.0891693388527 794.7397814668631,424.88151732250014 794.4329505617249,422.40452051366526 794.7915850483101,420.4524176559407 794.2773758561958,419.313501178131 792.3145217152169,418.3224570459246 792.0946614094581,417.079123941223 793.9188363462151,413.8425099308719 795.1144474932684,411.348115785772 794.9270916272966,410.7021924539755 792.7297008580315,409.2235705169649 792.3414088982619,407.74089389703715 790.9177022766094,406.1025721368611 788.3566860331691,405.3143540933828 787.293112769217,403.76684052379176 787.3576844956867,402.4458358359565 788.0007030999966,399.91126394509 789.0601078173585,398.76688592423557 790.3679942674723,398.26715462934794 791.2315264756891,397.5337221387201 794.1080587429733,392.35366267418135 794.7129278914288,391.47458207947886 797.1405818433556,389.8227532515076 797.7588021599558,389.0878353150452 797.0482603449217,387.8290736704145 797.2921441724183,387.29218344583984 798.7351073162619,386.92740252728817 799.3548954273856,386.2715087328579 801.215973437679,383.44314246965826 799.5884830917846,381.8034412909828 799.4969395534936,380.35523950206846 800.3544753800804,377.89624627680104 800.4254870110179,375.4271683753496 800.851505347464,372.8463487235048 801.8630907444326,369.95784094233335 800.7016555641843,369.0967807536575 798.5320006092381,368.3678952650352 796.5318640233648,368.9016461261417 792.2936757283358,368.35948380728274 789.4783697702883,366.99450825994705 785.110621978204,365.6018036741091 783.9161468529463,364.10439570377713 782.8710422702313,361.92160929407584 780.6321314339667,360.24925455545866 779.6545607807016,359.8622187639642 779.2027284266848,360.2258230235349 778.8541524661252,363.16469633379256 777.2254612667375,364.3918158659433 776.3270358028063,364.3903921536121 768.348187788897,363.5609655534892 766.8289860498726,362.6402859814825 766.1994395799707,359.75410958218856 764.2592394907587,359.70743110206206 762.2354591177744,358.54102789170383 761.8392910906975,357.5981965998563 763.090684092976,355.3567327278995 763.9206531965483,353.477599162886 764.5918711253652,349.7924885656086 765.5742399489507,346.37642028174656 766.5663680625405,344.4618879584289 768.0933410494675,340.73383357355254 768.810019977389,337.8218618852497 769.4852695293981,334.3801807000036 771.9229119179238,330.3398381792864 775.0167821288217,328.5076805488119 776.5295801447277,328.1755190269516 777.1506965893116,327.61908459964513 779.6657304730275,322.9348857184878 783.9482154671199,317.95891827466517 784.2375674178065,315.1882630255248 785.3475767070152,313.63276764685804 786.3677852009944,313.1726608996173 790.1301347943714,312.2170937767822 792.5527730384466,310.0898682482207 793.1008605382352,308.9912773814505 793.6558525955278,306.2748038159168 793.9899195566962,305.6714468988545 796.1700664811426,304.16548409640495 798.3045782276868,303.87193857914536 799.7546321477747,303.99881249144113 804.5483290431848,306.5569556834271 806.5316473304861,304.9164402960694 810.8334578942053,301.1050408323685 812.1452069669654,300.9590519993581 813.4750119707991,301.1862962695642 815.6450214328227,300.66140390010827 818.0490120710866,298.2326489677773 820.7470558206287,298.1026725126579 823.1589044480492,299.3665056315257 829.5697308444002,299.3648380075626 833.9502979372426,299.26900142941554 835.9835924776108,300.4296186069618 838.2109121108986,301.1270917446152 840.360463140951,300.6144616081691 842.6090224785697,299.50392064990956 845.5596661456432,296.53055592727196 849.4855958968302,294.79901459203677 852.4951231385568,294.0244149722656 853.9295544646269,293.9203711997539 856.016801956454,292.47182112450747 858.0556026423773,289.7936792162592 859.9718264612858,288.00839256872115 861.5136420705442,287.6985104615741 863.3738224944168,286.15032483294544 864.2804303592153,284.35523799857873 865.1514896256795,279.6478168285962 864.919102216812,277.944924667859 863.3686584557573,276.97200547441133 861.6429593559103,274.99520420144677 861.5523687663426,273.25615643928757 863.3666300970408,271.0680053407532 863.4384336573447,269.7511270766066 862.4001885170348,267.5299562658706 862.3788441894636,266.149352017129 863.8383984119181,262.71339957106574 863.4409829979795,260.4716575370819 859.455833061185,256.2702305801813 857.692848270965,254.83847483474 857.2511984049685,253.7688381895336 858.5573526237052,254.35410000216655 860.4460632787949,254.1346289396692 861.4617412565624,252.253679229993 862.6761796272549,248.79849669572388 862.4722662113768,244.7740049367144 863.6089169607108,240.6214241845699 864.0694759321457,238.5050293032125 864.8422075187998,236.24465257389926 866.1715537767714,234.75612601970374 867.6588337547743,233.93737556734328 868.9310350239937,232.17553226451759 868.7328457660976,229.7607630494835 867.7789999013957,224.99748567406004 867.6909922841435,221.16868894948897 866.6602205634034,217.92469526303614 864.7521338300511,213.66132365982173 862.1711386378398,208.8655269428029 861.847902495243,208.06262973221868 861.8013192823391,206.02493441056953 863.0694716801255,205.0158754368809 866.0725308299941,203.84935030085313 868.622627206901,203.32030168343505 869.1511455058152,202.88350947308516 869.4298138479477,201.73367913360136 869.1576726003119,200.9561673919825 867.7471719318952,199.74736059445047 867.4271373571497,198.2132376774167 869.1616075918795,196.27214366280953 869.6927748714169,194.63371361661234 869.2689324759618,191.68449927414645 868.0098271874393,189.9762105979691 867.0566567397415,189.18830483456287 865.0425835043957,188.66637028686654 863.8063261289144,188.83202287980174 861.3949972966923,187.82300198866602 858.755496779025,187.0473776545598 853.8994577720234,186.6746975207662 850.9078105101544,185.61277458581264 845.0966901109593,182.94904851165478 843.6099573468829,182.81907820685382 841.8732394299442,183.7524761093382 837.5842685914449,186.45982447336684 835.3550184417065,187.65868552715312 834.4082402501482,187.57535700968367 833.5007645532613,186.98146901467277 831.8472944168076,184.36069497589233 829.4491005600943,183.41482866259668 827.2625638275971,183.32571257722987 824.7505450801217,184.15132547276158 822.6749710176208,184.03342582967105 822.0682251674635,183.2304668226779 820.9203452630953,180.91162879977054 820.2796396063953,180.42321770663926 817.7576762753293,180.30837784117313 816.8010703785412,179.29745763235604 815.6826323800088,177.3895871035951 814.1692393225455,176.91956799920058 811.0295670849814,177.84250827631018 810.610280776891,177.23159171041618 809.6833720487155,174.28774971737374 808.978529816459,174.10709951601763 807.98285433619,175.04902763641877 806.4341203493022,174.82787565724516 805.7528218723671,173.83687808014054 805.4579698126904,170.99099940624382 805.7815995643889,168.06687603367936 805.0999391895906,167.06989573749559 802.45155816554,165.75623814371392 801.2850422124372,164.8546301362735 800.4382543371149,163.72385404768937 799.6644622787662,161.72401219666506 797.9355573189666,160.63889061793662 796.9412355669097,158.74800988457554 793.7368310541738,154.6143849066376 793.1149489685113,152.58557293969875 791.7857689645267,150.68968397617016 790.452981771363,149.56939543923687 788.8721392931757,148.7351751296025 785.6757863722917,148.29345795619662 784.5116667196597,148.45505250772914 782.5374980574013,149.1875981391484 780.8870256334196,149.3720402522569 778.5414271802546,149.32927685493758 777.3671864525504,149.9735388846155 774.528674138913,152.11942230632712 773.4953261535323,152.70164521157142 771.3371760517196,152.90893223034027 768.7931316456778,152.0936584753349 768.046388953816,150.83064041048414 767.591401206184,146.95245557870697 766.4827315658464,146.3359653016969 764.4294589125417,145.67371526671684 762.0372822146138,144.3265101642757 759.9611535962744,144.02959312958683 757.7776446148429,144.46493386303717 752.7661850313327,143.5354895776788 749.3067606936739,143.59190550859643 747.3065455644853,144.0554570541907 743.1947440396765,145.50000813930865 740.4628595099454,147.45212704843976 738.9543850829848,147.6383169495494 738.092830338756,146.65747213836505 737.3320243499358,144.61827012586792 736.6078983844708,140.811036907894 736.4019303786226,138.07691872271346 735.9359140406614,137.06219319163012 737.0336302243978,133.04432224662577 738.4667829957616,130.61054270948637 740.2647919952435,129.1933710727625 741.302348109252,127.80397889478206 741.2923672039942,126.77430596073998 739.7483345239526,125.11658814316559 739.8923684947497,123.17798322663884 739.3124813529325,120.0027801902944 739.0319747058022,117.60357694622019 737.8815365072411,116.34245793946116 737.5973015306876,114.2759235646223 738.8898889224623,110.40668451892009 738.7410156516995,107.99889072577355 737.4771518167871,106.63612898273823 735.6860371614433,106.2742427022987 734.7139745600884,104.79493135188625 734.8267050315675,101.75056317280905 734.1569479411892,101.2036831768786 731.5846969085013,101.84705344987958 730.8836544416862,101.23532105098457 731.0733731190018,98.48958377880626 729.7533896252379,95.78019032300278 728.4626471433993,95.07561908967261 725.5782069182939,94.22029435675574 724.6739317848261,93.57991372418292 721.2777521079696,92.45417547123407 720.5274382755337,92.44257390406142 720.0707490187613,93.98139952717258 718.2111327379562,93.17714974911974 717.5496750074957,92.5191121054578 716.6255369380448,89.76965358240284 715.9767823514634,89.22848321149968 713.9268068036357,88.51917001783329 711.6920440405863,86.10713711599419 710.2937757975216,86.61554106948563 708.3680110711783,86.57388175575727 705.2039131215199,84.27699791203054 703.4884836029718,83.56081690483461 702.5839535820056,81.78752089805675 702.3443655304908,80.36677908925344 700.8886720292592,77.82920425582859 700.701526647504,76.49211298466571 699.7861638265864,76.28143607043069 697.8016233557244,76.85252472480943 693.5484237540059,77.45888447761126 691.726207478123,77.49269613087858 689.7748422086078,77.13808684868309 688.9766810686708,76.7039723470242 686.5473117508897,74.56816158005154 685.1540407064829,73.70247253552384 683.0479068441001,73.18108440541016 682.5440721206805,75.5333021906016 681.094119112344,76.5558047298116 677.8955767548854,76.66574762190498 674.5590353265985,75.29458291916853 673.7419227305706,76.59132294240908 673.0224759776254,77.13820885490816 669.2941148938849,78.76078014976599 668.9371017955249,80.87586885798271 668.6088071310177,83.47902913672601 668.9666033644897,85.36031234106133 668.6715728154174,86.98654096158168 666.2183584617751,89.73876052156459 664.9904299878965,90.20347511467116 660.8214188189208,90.49198439080521 657.1478612916211,91.30563742066886 655.4758761227911,90.71645658221098 654.7000687942141,89.21942237764358 654.0883921112143,89.00229560503226 651.0893251642265,90.74094687016543 648.9192361070168,92.36707776809146 646.761118159546,92.95800799993458 644.1237119388986,94.54019446619236 641.5205160800276,96.9615234891977 640.4978199781347,97.59114384081101 638.8434630862334,97.42408134613765 637.1976731652808,95.9937070965509 636.650246155511,93.60037067061614 635.657238342599,92.98549711438193 632.1975125234529,93.29802416651808 630.9860335540387,92.3682791288345 629.9694815443062,90.34738294581382 629.569097621316,90.04807819473456 624.3570790941072,87.92859209070616 623.1422880599683,86.77725298159817 622.0641391858794,86.50241069654771 620.4056453787778,86.67315329462804 618.6352681695871,86.20110341755765 617.7406829918558,87.22505888471574 616.1245953759566,87.51843417927103 613.0636948078698,86.79422963485911 610.187257631414,86.82160628100542 608.2518134564219,84.90064730940605 606.7947389747895,84.3643898314275 602.7448464450415,83.21258043727005 601.25419323207,82.4689263247277 600.4142343230827,81.25871272754762 599.7027172954357,79.20055376201049 598.6275529376333,79.10708360561375 594.7078915228235,80.35401989727393 591.2563685615384,83.03822449599647 590.5708282755897,83.86242818614414 584.5597486347268,82.91566993774768 583.1691802851781,82.07186608628842 582.2610238028068,80.96662351842701 581.9575224443847,79.68911267778617 581.9847742463816,76.89042292799002 580.768133226439,75.48435156404514 578.0125349681098,74.1020728445244 576.1839313280473,73.71400646177597 575.1630415515544,73.80751671252665 573.9615468900718,74.69148470363837 572.7079804001015,76.82551840987264 570.8157842194122,79.56163644820685 569.612502350178,81.00494631921993 567.5629866118622,82.76066735294262 566.3888587800187,83.47512416995824 564.091551163453,86.2759608601732 562.8685133155415,87.12737376254529 561.004811033742,87.12286754183776 560.4108719788135,86.68256815322673 559.8260305932878,84.81675172364169 557.3438667483437,86.81939084666556 555.5100377913905,87.45183805786644 554.0845503420155,87.64220885487441 552.6024123194142,86.73367651095452 551.77140957855,85.32057560820988 550.6861838479111,84.51638773952891 551.2574433086731,82.06756273445194 551.2564491867065,80.61614786865857 550.544608396733,79.02603780506399 549.3293023942224,79.0178288563202 548.1927820606631,78.16261589182625 546.3383642126416,75.30698106619013 543.5285761314523,72.87545576643629 542.0060558395419,70.50330916069822 539.7911399519413,65.74772572857978 538.5477659071072,65.17372504656817 534.0508464372782,66.40885386859884 530.638420956271,65.61207230363641 528.5112696698661,65.49902794534216 527.3176537064371,64.83933285019486 525.6354129420253,63.26289944780012 521.8153400982055,57.88610519229792 520.021749955769,57.00035793207769 516.7553663131403,53.49542613267431 515.3463657161915,52.59132198946736 513.6534860854416,50.13754926861145 512.199581394393,49.643806431127246 510.7664785135935,49.910455668359305 509.13673368564554,50.58915588578202 505.29951976721105,53.391836721131085 503.63213739472934,54.29217014234496 498.0460067107275,54.26317423001535 497.4105092467008,54.41437809684919 494.52410552557933,56.514300301668754 492.44447678746633,56.88620604780647 491.740052129386,56.4206719814016 490.7088328919562,54.17131374835367 489.59349027228825,53.210687135344756 487.4374094714217,53.16108169211395 483.5637258132936,54.05628297355361 482.29753660264964,53.9623768727912 480.38754239297504,52.56940427527513 477.9792591513683,49.38864982665416 475.55119921801037,47.79436559950693 474.93429360283875,47.0154390335739 474.4264671099931,43.65471665980067 473.45724996585705,41.42422307365928 472.7498332744504,40.67931801707687 469.15375359356716,39.41821456809805 466.58780075670865,38.05289045124755 464.6031116014442,36.22546151076915 463.51246848947204,35.54370218719089 462.529758514518,35.41272003638505 456.77288402929054,36.022880145523686 455.65322272745635,36.25749425942706 454.3413932787956,35.66919347350665 453.3449248001029,34.40095088513556 453.0657267709316,33.053050082432264 452.21236901528493,32.71210735356544 451.38257256216076,33.521718706238175 449.21739574790195,34.269184555577226 447.3584987190361,34.41499206471576 445.3572610410209,33.645739014784795 442.9143094602146,33.98674031279813 439.8926740994247,35.01686575066606 437.09474326339216,37.01889486803077 435.2626230663805,38.619304697486655 433.8066327034839,39.526806593742776 429.34073035666995,41.65820702087012 427.25523939848506,39.73213158257249 426.658919246777,34.455305826999165 423.38375224585457,31.86738871013381 419.77230657701375,32.61621007193992 416.8912382076474,35.40390602998889 415.1131042991136,40.13504969903829 413.9316180605946,44.853935611464976 410.1269099792147,51.18184609344371 406.47235797191433,54.674060207223306 400.84119614275915,57.914001971878406 396.25580741258113,59.66646868630551 393.60825924342276,60.01269460673393 389.9006582055948,61.55343750782697 388.9615494099068,63.69636515185107 389.5940829466224,67.13656986106264 390.82695388062626,69.86202477011545 393.63128850444355,71.85524470072448 394.8704445972655,76.12270933934883 396.496122421677,78.60370557731619 396.6236542109118,81.10047536118873 394.941736338658,82.90737258486035 393.35213523286524,82.92403813426995 389.8433935431623,81.41882108427171 387.14694041927515,81.09542871799874 384.76780397061503,82.07618161454423 383.15736803497555,81.02561823935275 381.849356505806,79.85483344305896 377.36482114244865,74.83899982186335 375.20603216470806,74.56106000071702 372.44522746275567,74.85515181732785 368.97014076610895,78.64974043323639 368.0645709873666,83.36884212852897 368.4257504376162,85.08950011451338 369.35005366799373,85.41203402402323 369.9204865632728,86.76655780267629 370.3771155881004,86.87274114271383 371.82433777180574,84.73730764572053 372.33774110635716,84.4395243470085 373.17634499264346,85.2768658242735 373.7477227931279,86.74840888861297 373.5040531169639,87.70714824028357 372.1496584323593,87.94831813727842 371.0125759792,89.70338994759629 368.21313334174096,90.29705052908741 365.66197330067297,90.35480814514779 361.6679592654286,90.99202210518251 355.63595745206237,92.46124604225793 351.3233936536861,93.7254780150505 348.5886825449217,94.76612500980923 344.7698469377827,95.82289900648868 338.8061252942561,97.11993066206776 335.56709330996364,97.3834530909835 333.88020803604456,96.73439514459392 332.4817411434182,95.48408318503618 331.37355510796544,93.8406261434036 327.66129589279905,89.70179268120717 326.77434223307364,89.03264996764949 322.40942485676504,86.56540057688676 318.0646704484956,85.27466911285285 315.02792676468806,85.32619924899848 312.69506564122423,86.04848448614962 307.7096253077173,86.81796025234746 304.85763057928654,85.9822352158626 302.78243386420445,84.74996357564748 302.05466429873735,82.40699308612761 301.89886843130256,79.37663540988763 302.3199706759617,76.3356769930881 301.9187517970587,70.46537995263782 300.45002838562607,65.20307437178951 298.93080610384015,62.49074808789203 295.3552105661861,60.70464784288367 293.30998718278136,60.532171952236126 284.1265080828714,56.967940162439504 280.4588769980292,54.882873197030676 270.75514074483465,50.37066726124499 266.3769376502371,47.71077831096056 262.93606604132214,47.390500294091 259.70617234193776,48.342604849048826 255.30812066561649,50.094933021103884 250.8318914597319,52.347587641955215 246.72056705411165,48.513739358767 243.7018255397525,44.66644241839583 236.5160156853257,34.048912740332185 231.84069932149947,31.693643506158992 227.29149924136695,30.02580269132477 222.27791421191986,30.120508173401504 217.2897273161933,31.097559918397224 213.24945182689746,29.899350721996143 208.80120031377982,28.014186974755034 203.80924769576535,28.294690605993537 199.4147258995565,28.75981220218864 195.84141990222355,25.875092019862223 193.1674183793889,24.745397759505067 190.35264647874803,25.76623476326131 187.19652708321044,29.341460218778707 183.03497938497608,32.142334623860506 179.12126531962707,31.816542081207558 175.93429229227817,29.122504172644653 173.83189619252084,26.90394566431985 171.1680811872108,25.675628029351742 165.66405236272573,24.394164191725963 161.11927144293784,22.80919854063552 157.24907718360592,20.526608577013462 152.85904572640726,16.992099853461013 148.4828206863739,14.132524389752689 145.31524472573017,12.826537673669009 141.4871936083512,13.198016165101649 135.20942834791563,15.090708097537572 130.46199526572124,15.619772239904819 129.67331472571934,15.49937784841552 127.64897739358364,14.43454931424128 126.12223225183878,14.153723353629857 124.658934687086,14.6194816363668 122.46074011068062,16.061665769128467 121.21901994766966,16.44241418803972 119.74365743501035,16.401282626741022 118.5701140361705,15.982755021295134 117.59747209546639,15.083342103899327 115.82158991726898,12.608436869567981 114.68635931589944,11.332588543535508 113.74572499317657,10.932874059119968 111.57280078693118,10.679394324996338 110.24760485228563,10.157213295985684 109.09358056255851,9.335851291228664 107.26425719807634,9.042700837704274 104.51756724488358,9.50432940244309 102.76704556448176,8.50277600562788 101.61118586709294,6.889473776713658 99.18481629628386,2.0787708115700525 98.22419322828128,1.6530763117672223 96.54706331495036,1.5534170439404988 94.09396005940019,2.137025968663238 91.89205545905523,2.0187526077266966 89.91809016802924,0.173700807494356 89.07946959713804,0.0 87.09032894331217,0.38085215732769484 85.49745687791476,1.7605283108252934 83.66766090722862,5.704611133712319 81.17631296552543,7.533744523112205 80.5516917965877,8.450626767645076 79.81903341325726,10.841323977720322 78.55280429346656,14.304189741609093 76.5486039144296,17.71715466359035 76.10636183544895,18.79596365440034 75.54024002472246,24.031335041746615 76.55154580188749,29.706339437078213 76.10935578485648,31.077811114199676 76.36942234396936,34.91661212603856 75.82898088523541,37.80201946020975 74.57894205822741,39.734258749698256 72.63110562382553,41.719415725323984 71.46478771557685,45.52317960668381 70.90463069842387,49.08529901873078 70.37998242692211,49.71683711911294 68.68234269073955,50.5580174768196 66.16502821601685,51.270577459804144 65.12299393375308,51.19449816937822 60.276724668764,49.992810144498435 58.901121727405545,49.90379848363807 58.00192552758422,50.5292841170932 56.65960428029994,52.584931179063574 54.22168809657594,52.282704700232216 53.70618333478265,52.50426012786329 53.597971312224836,55.01961023043418 54.24747587797765,56.72220738575493 56.275362688713585,60.02811580805803 58.47206884891639,61.18248203357223 59.5868521736412,62.46134606386113 60.07428397376055,63.741524559937034 60.49361126957862,66.79700644314414 60.333282539322845,67.85040442364141 59.42529646281605,69.60727917814256 57.586834127396,72.04219356117449 54.27062285495988,74.49819192963912 53.95905813048222,75.95550103826793 54.1767644238759,80.11145251912478 54.025910982407275,80.9375107004488 51.914800867439844,84.50510250942114 50.19687081625789,86.81643541837525 49.00518075528515,89.55688612757945 47.11829629968529,95.31738647635791 45.9552096437763,96.5226201045798 42.95846670224513,97.37806432574769 41.06673306756849,99.41697845577858 40.11571771886712,100.17236874211892 38.60692823778197,100.7727115971735 38.010453146107004,101.72981953007877 36.64315749680696,101.83521621771217 33.1276264017832,100.41907830135654 31.213930782688305,100.62891512978081 29.63467247227631,102.03556835874667 28.288931185050146,104.1516590634019 27.043701186369738,105.2589312199882 25.858921373430313,105.8256716778011 24.36025965227682,106.13234114781233 21.513959418161487,106.21822326760321 18.56670696498472,107.18275077501949 15.142969583917615,107.37257885038377 14.04897805266438,107.07333389628673 12.630781747524445,106.04524560217135 11.344229723402426,104.52234182353607 9.713345295143183,103.12332666852876 9.591836851573479,104.24911315294389 7.454748940765013,108.44088857689076 7.292725969871426,109.4696835929426 7.64732014628194,111.12949061040729 7.201599077924512,112.9328764292942 7.414543457870387,114.84048488854864 9.988058179767798,117.0405787852302 11.832445660936934,118.2451499390512 13.119552120360552,120.08119337627954 13.819344834193036,122.77008024132056 15.248988726369031,126.87891031812433 15.6955161171535,129.08034119289084 15.94968198667436,131.9132689139377 15.545424036164627,137.11153112698724 15.931931742804998,141.99769899636908 15.020486464625948,145.73792197900127 13.621898679991991,149.9802154296953 8.76471481019527,153.21971474449816 5.92479070450883,154.7514291095669 4.971615998867603,156.3415639014953 6.208837435876614,159.34629324703803 7.558067896268544,163.23790251876858 8.582798398374143,164.67846694937208 10.237037376534412,168.56396910189125 10.105562114144437,172.18944273317874 10.633311274896421,174.32808558016183 12.389603774145055,178.11007697978465 14.297802058397217,179.92243286561404 15.516312266769885,182.2441235291708 15.851918062432375,184.00506456398142 15.893062875488498,186.45092242952273 15.142124067808346,188.32321343397473 14.401681525208039,190.98499757830263 14.544568230678378,193.43168224793055 15.276159606928665,195.4736435866099 16.891067561031488,197.5871192722721 16.728986285696156,198.8658465357999 15.490644633009055,201.44361617565755 11.682985430609056,203.38909354789928 7.448060382884193,203.77483580251305 6.269884588012235,204.19225500962312 5.234023420523141,206.56802928152916 5.965362467582321,208.7020153106256 7.763228757574993,210.03363182404524 8.74825502617371,210.01392409159945 9.002440318879078,212.84681254218737 7.834421844312701,213.75387443116335 5.5994128387384094,213.81927336505396 4.9392523937394275,215.69945815884114 5.375809049666247,218.8066461401412 4.146411985837476,221.73177778055793 2.9880488177387363,222.60664450838897 2.6119100070385293,223.46190498746688 3.018380221556161,224.63722238276688 2.195065557261137,225.62957547087433 0.823411254243186,226.19077200024975 0.0,227.20956389771783 1.6258219370405806,229.3253836062405 1.8898962993217852,229.98504027111005 5.08081117368211,233.7601683973216 4.084659055757401,235.41901417360492 2.7433668402108746,233.99499909719918 0.7613588051232876,233.46587089010444 4.582721748831752,239.48144934335818 4.958563913758378,240.31111871860662 8.221999537233026,241.99645073988677 10.14353483729896,242.5777372231824 11.251725819901809,244.3351716590244 12.146870039994461,246.90901678735287 13.478950701767149,248.4570105753093 15.126143424011671,248.81594123770822 17.048578601285836,250.9258771462151 17.791539660273,253.15400867043428 21.33110563252997,254.96926263408443 24.616763249174227,256.85650729731174 26.449243305102467,260.2472163012306 26.919432826674026,264.15553775433887 22.98533124339181,269.4263219573884 19.517663589476733,273.8143278106413 20.53557412024261,275.55313084077636 22.499139352467413,275.0225867513208 25.8649974207424,270.83685995235976 28.376376252250182,268.24014368706486 32.45391532326839,265.40722633587603 35.19991415666162,264.8626441950931 38.04827189438958,264.8077885825873 39.930542230242125,265.4533733941914 41.52918736292796,266.9881630857069 44.48449772969847,272.31944913314584 46.27651832246989,273.46165618909515 48.34240049703026,273.910533195313 49.73733617330738,274.87017161219796 50.25768524505953,275.8175496679444 53.42971110007785,273.8916696342955 53.5122982796034,274.702415473673 52.3237852314378,276.2991035365903 52.375673494858574,277.29273550563613 53.140042650581194,278.1680012420289 53.31408516463669,279.11576700097044 53.60485394476801,283.70621695099913 56.19209116822969,285.16136766898165 56.83508856272364,286.7428975343624 57.55824196468607,286.96449467447894 58.732389289349236,289.67053580686803 61.70585018186817,290.31392124615456 64.5750070875664,289.4658416753499 66.00181117881553,290.6277523105993 66.73494856621372,290.71800412654886 70.68854154942234,293.21019802701534 70.87359897237981,294.2044269296503 69.73751169681948,296.5483263661013 69.80293307626746,299.3088457074179 70.30348271720335,300.1718154203758 72.70035122575537,302.5754155636852 74.81360855341534,305.476651373099 75.85833818701558,308.7924392088294 75.52781694552756,311.92790167021633 71.74254701446087,313.8519733662759 66.50916998229785,315.20896420381683 62.99884251749774,317.72125733228154 60.38399684472446,319.8196916477973 59.34750704614446,321.6017575535233 59.49398947919319,324.44289260311524 61.176676239801495,325.5862444984582 64.11037914296378,324.94660716906776 70.85305316455366,323.76384417861686 72.72847024991854,324.2450391728627 74.27019627668875,326.0164779988706 81.81723371865584,324.62097057940287 83.21426974568524,325.27262894607105 85.90219705562022,324.2917420206424 92.67227450691271,326.6141043935954 93.00312035425057,328.5643993191142 91.96932870513844,331.1270067764207 92.70957902657184,333.95385088365674 95.09831903288732,335.67080486514004 99.29697574109527,339.7080507444932 101.13035619865056,343.20102527531554 103.18040813132966,347.66310935183645 104.13820868163036,351.4666071517874 104.68651948568129,354.4855163044245 102.58445965603377,357.9572476103473 100.46813217553206,359.75767519487755 97.31064201018256,361.3712478747761 94.59902272574838,366.33191887679544 93.7696580618522,369.38149040093145 93.62324611358281,372.12829627163677 94.8764581756136,375.9210558562062 96.21032945563502,379.1300260750266 96.28040248403796,382.84734125059333 95.34697973686119,385.1183916947366 94.9727437829167,386.594808524364 94.81428465442733,388.6542694217251 94.94024123036881,390.11627095652443 96.25117456249532,391.95611498807415 98.02726918963307,392.01722732612154 101.60152515778645,388.71644176866045 103.30871747879173,385.84647278029394 105.73190451877883,383.7418019289667 107.09806092226034,383.325096448921 109.19387651359119,384.748880752654 110.40377623917367,386.88328591741663 110.92820968191893,388.33773795268525 110.87405305464299,390.79043401203336 110.61298358005256,392.4567977346758 111.05983223928234,395.28917144048387 110.65449613873977,400.0915565064996 110.88260630568718,401.3635486847416 111.97825199395564,402.5152312031054 114.06373125615278,403.5457563560382 115.24868131077776,403.71966618095644 117.4372944525737,404.9466497078881 120.2180919010699,406.1584961222909 121.82737285673612,408.28620915312126 125.61165715236358,410.25586890640255 135.4718000698735,412.00850867699774 138.44738984240567,413.12054324931955 141.13961222338997,414.92883040339564 143.21472795592405,415.4725104125044 145.04456286941283,418.6685921658762 146.2034025349617,422.7598990469296 147.83937321400109,425.95698378055454 149.0706987185162,430.0944942002734 149.90009950768783,430.6364825530301 150.54814747063477,431.78276859056473 151.0556593106787,433.5404684002715 152.5332768711733,435.2154229098776 152.67066923971169,436.31834421526736 152.04289391264035,437.8701879014136 152.0962880676931,438.52658402050633 153.23442942078972,439.428300805685 154.20026434940883,440.8364521133146 154.30848988932323,442.4055495038741 155.42681561226868,446.04602817102614 158.25442932677078,447.7099133811797 158.8202806869734,448.6598760344877 159.62789609233852,448.676293332377 161.52659365308097,448.0184319077325 164.10651745732875,448.96007893877265 166.30251792518752,448.5374167961979 167.61411365692445,446.93589268180443 167.77463514283744,446.22564011567846 167.32965954347694,444.8814211811116 167.92934188722808,444.14325355575335 169.6255165741566,443.9848073453917 170.79263616845296,444.43946164503365 172.45554505531288,443.7692497972253 173.22641318321251,442.4193577775836 172.70001696339983,441.2267815925394 172.54066354407973,439.77585466284364 172.85205122714865,438.59927263645346 173.6086059216998,438.62202240320573 174.91158713469744,439.79194024279013 175.7581873224694,441.71870403818707 177.6089418643891,444.18648981105594 177.83930067295762,445.406817322417 177.24151423753474,446.61163498378687 175.7324051667457,447.45908616556983 175.33037229046192,448.95178844870054 175.2663490951457,450.71896133671225 175.65508265847,453.0621267279306 175.4644526662659,453.87763606530075 174.11163508905847,455.44714064497384 172.90289101697408,457.2915086185422 172.37801222935312,458.8180275624071 171.16134472526863,458.8694306494601 168.300144144969,456.85163014814196 166.6043297999333,454.7369008055616 165.13263356866233,454.8152418786749 164.9030369389908,456.21568652985167 166.40202594598247,457.7268337203249 166.66218796752386,458.8031287759493 165.6507725841357,458.97823588323524 163.49660620742813,457.25274488480125 161.94530373106286,455.45248782394435 160.39936634081357,454.9465465904789 159.64620738203305,455.7574006569412 159.77192100808355,456.4925244092899 161.16626936753346,457.4463783033549 163.41409068491697,459.578730350966 165.43289603027213,460.68065900360494 168.56203936966648,460.70723701258737 170.07672611718573,461.00280614460996 172.27253061212863,460.3888567292039 173.94100745855133,460.8348326439621 174.21376378748354,462.42365795457295 174.9725317712801,462.8411066075541 176.82303920305094,462.77352036920934 177.17365085542306,463.40933176091414 176.68243886768676,465.6654069379825 175.36677729220204,466.4927402393403 175.1247970644749,467.2298656845004 177.35186048478045,469.0206013003865 178.27464565319104,469.48937031778974 178.79627829374988,471.7477383032119 179.48548016998203,472.6255018806117 181.99695595446232,473.85591324188596 184.23777061333683,476.1989823958538 185.48043692135371,477.2645933096053 188.87360889956747,478.72751839835337 190.78475082611246,480.44038672375086 191.4954231352984,481.4101092220664 193.4294517731239,485.68676411534597 196.4377470790275,489.8469389723232 195.81768512997013,492.7895355828912 196.4567408364545,495.71906158976856 197.82314791567862,500.8881462410926 199.93677736245417,503.8901108667816 206.01794198919924,509.8580454182205 208.31468092536056,512.4647343856276 213.16343866644786,515.4126358427334 215.0388843045139,515.6788905460253 216.9672153127365,514.3722593157694 219.38300572630956,512.3720523492498 222.00482289058982,510.65974337156536 224.4190010144141,508.4622786220267 229.67926072377008,501.01842728343695 232.98549623457956,499.2893864445789 235.310239352692,497.77567989998727 237.77781448466476,497.9189398057663 238.69678233600646,500.9191818894741 237.81254946866162,505.35759608895046 238.1548324480394,507.7961311134704 239.86863284548426,510.10801330667493 242.99446645991947,508.97046797931637 244.22840838193284,506.49617866132706 245.76414708975855,508.1510160979158 249.46906356031425,506.2988816857703 253.08623443530897,508.40072476614006 256.404415638784,510.1158527785091 258.93781980878737,509.2440117786181 260.8042929773471,509.67256899876884 264.1531627069394,509.80146996550036 268.1232983189321,512.4258708698958 269.8519191817261,515.1251153150778 273.8801308224133,517.1239622256529 276.4651207087883,522.0871364405234 280.15432620359456,525.2467439091755 283.5292746390614,527.3351245183885 286.68085724090065,528.2602703821092 290.16064012109064,530.6438033951014 296.7324614932292,536.6975045375995 298.93531168873864,539.3931991716927 302.4483198843232,539.1822257778016 303.5182696529326,539.7267996556898 304.2281113958901,538.7669225200979 305.4066860830123,538.7577897855363 305.4864535060813,541.1076992544789 305.8696405798958,541.6575361864595 316.7405348863781,542.6711459751829 318.1596173366364,544.5035562070073 318.411750108978,549.0915278981936 321.1534257222587,552.1977461219005 328.28863061115,553.4892802342757 331.41132415387625,553.0414238718126 337.46632759226327,551.4553372520248 341.16141868843465,549.6252519479264 343.58850980982317,548.2079319749704 346.91318366794917,547.4541323900437 349.5059529930626,547.4050796775477 351.030699422194,548.3065971131937 351.20061530416865,548.9702697222185 352.3319735559145,549.3882157686944 352.97793972786894,551.6616704645423 354.17734235881807,552.8295915492303 354.60259213219484,554.4987756519427 356.1506028578716,556.764027450083 357.38772159841693,560.8964689706806 357.45868190722064,561.9301397353618 358.400073362586,562.8311320798985 358.91192348198285,563.8804301174462 358.9714341647965,565.9160495956565 360.0776628435034,566.8876998100507 365.69175549968065,568.4631851232364 365.3047435660238,569.8834728400205 364.2845310175845,570.4402180518127 363.97459876711815,571.3129237705425 364.84899019883557,572.6817751072361 367.77416991161937,571.8175838396492 369.0782472585662,571.983517748094 370.03240193383465,573.1079883511313 370.90506848735373,575.3803165787032 371.87761854083925,575.1797321298316 373.5542941990626,575.6581440208249 374.76680705141604,574.7900078498899 376.6856707900028,572.754707589818 378.1300025813226,571.489046938858 380.54668341883263,570.0289304287178 381.50689960540194,568.5764204654914 382.0773786124784,567.127676871945 384.00995462455774,566.5359049552524 385.6306481404981,565.5382334518245 387.82315880019183,566.3796561908724 389.0340027391539,566.4270629554553 391.432289842539,565.2633516578496 391.8543691636297,567.4927438027352 392.42376521773724,569.0554490893646 393.25629944746726,570.2331339374805 393.60559851708723,571.3302007511143 393.2847953386299,574.1279793055086 392.26615940328276,577.9012696408881 392.80643466466876,579.6163559324671 394.6494844454256,580.2703631574988 395.6331377111096,581.1700622181409 399.5791979103817,581.8222661282167 399.8248818379829,583.7842122837344 397.91761235806854,585.9397560956817 397.747058535764,587.3124872818483 399.0519079260092,588.4861331455106 402.41036611605773,588.794551736376 404.4451110660182,590.0925629712722 406.6734593423455,592.2254334337911 407.82894553104984,594.7854543213346 410.2349548174982,596.1848540668957 412.6360729540343,597.1355575537467 413.643547481938,597.2898909581402 414.9889784140611,595.42917500096 415.73794724756715,595.4080194345031 416.6705639970921,598.1812121242655 418.3911685748633,600.7285448855288 420.1255521608205,601.6598235648902 421.3705353601598,603.8361353337326 425.50445806771364,606.4102318228994 426.90215991975464,605.5773433972911 427.27038880126247,604.5308648749766 428.2216586724068,603.2609972728674 428.0826644985378,602.74810466891 426.5606259502495,601.5311790230962 426.282689639022,602.4113295539231 424.2247061665856,602.921492788774 423.213837661288,603.4138859561135 422.82026980464667,602.1453549299646 424.1697365992367,601.6228316087889 424.90069815619756,600.8629890613249 424.40786396964364,599.9052976595578 424.65273442590103,598.8144580268579 425.6759703562938,598.5397833163338 425.1397568650984,600.2075733269904 426.04543889405437,600.4220766794712 427.06104550340063,599.4083117676337 426.4612438394303,599.0191905019899 427.156839903925,596.9147091700951 426.1188620021869,595.8245295789283 424.9516811946017,596.0879578880722 424.66879827582903,595.569773443619 423.2489286057401,596.1986112989239 421.78419818414136,595.5217866234116 421.4946573616046,594.3444118728014 420.57427181298016,593.6881934391853 422.9437319339122,591.6846186686174 424.09391756712506,591.7384468444283 425.2322205849784,592.6028584801041 426.3847796480289,591.9704335558781 426.4972095238661,592.8792521426064 427.69344116480823,592.4642107334574 428.17888870475787,591.7795984225529 429.8075444499395,592.4343078577117 430.2118427353796,593.7423943212785 431.3829914736727,592.9250436520758 431.69587842157875,593.3962824077681 431.03615449999126,594.0499536181568 431.08850849345,596.0143006691476 430.6948230760689,596.638555276903 431.2578035314863,597.4039950879767 432.815767355232,597.2087084192243 432.4971962586863,598.1355018789495 433.08799212901613,598.6566511514458 433.3997373743592,599.9063396406459 432.1103959268001,600.2768572238432 431.76589094818536,601.6192129181774 431.08008238622864,601.7916547872843 431.23584461002287,602.904638514951 433.85638698773016,602.2293876005278 435.19244003428173,601.4562545663836 437.0235961784982,600.875390033118 437.97805133827353,600.871177271738 438.9863939410718,600.1412924109965 443.20746084371945,599.434243736668 447.02593931606623,601.2375934401792 450.8460098164485,602.2625268990282 451.61979980137085,602.5903216873711 451.6237579975847,603.8498304240603 452.3668886125356,605.9523631325966 453.8175495407424,607.1161567216243 455.92278563153263,608.0616759402192 456.64161238244077,608.9505767250894 459.4197888195593,609.4723683761985 459.89675194090614,609.8560259896665 461.0736343446631,613.0287482071186 462.2145746942194,613.9916452296848 463.7010005897553,613.7699177477236 464.93475846641905,614.7846241716355 466.0809192414211,615.3183806128334 466.61392832655935,616.1042042553074 468.0445778613461,616.3709083880124 469.13246105426015,617.1496658938026 470.8748354247684,617.7291512477951 473.3178714440022,619.3234339054399 474.8032043320765,621.582000887258 476.74663351956184,622.5946178861 477.429102402785,623.8335308561702 479.0098208156724,624.5667354961765 481.58941076390397,626.376770238785 482.6432204284049,626.8458178670239 484.12542280604157,626.2465271851304 486.8764367718351,629.4205227267787 487.8826617080001,629.3751629587374 487.75619234841673,624.9677330507443 488.4113965965652,622.3130896817554 489.29648717873573,620.7972388403938 490.4713681697435,619.4892500706386 491.54993324927244,617.8525711451816 492.8907891483532,617.4726001355829 495.3741073782925,617.3226018223805 496.0785435603141,616.9838612128968 498.03781901562246,614.3791874223077 499.2101151871941,610.4517289851678 502.15436322520173,609.4310283227921 506.3531541593339,610.1556223782738 508.4593538261475,611.052194149204 509.3440633337034,611.1526781861251 509.96074153202517,610.4123117117341 510.4214149674008,607.9387623875516 513.334348809026,608.4947091596606 517.9207027686966,610.5456979881967 518.874384375662,611.2257397779857 520.1003468970058,613.8689611344511 522.5033556941114,615.3876950972173 524.7842436626496,616.2216924336079 526.8411622229978,617.1970071550414 529.0193340722703,618.7914395681263 530.094499309182,619.3046513324703 532.1238167015895,619.7459552138242 532.6331574157715,619.42883741799 531.9992853305752,618.1307643010188 530.4242324315837,616.3505996969901 530.273848655628,614.3464902050475 530.6738219154142,613.5360659093909 531.9328409145694,612.4764307755037 534.493625325991,609.7296016589299 535.5394858001523,608.8513500156737 538.8070025201202,608.2524140138488 540.0669962876298,607.2916143504859 541.6251090634953,603.3975096796817 542.730599821421,603.1314003115224 543.9479132158052,603.5563644829904 546.1948919055731,605.6629302029445 547.391379409738,606.0419328696292 548.3329690943891,605.8245292162073 549.1902910401623,604.7173521753092" /><polygon fill="black" points="18.32486427823758,266.52563646870277 18.975451519072482,265.40740382064917 18.832977218194475,264.77346788094655 19.7274270183978,263.63591376829856 19.584820584637228,262.64910194861454 18.069055346827867,261.9306127168796 17.082439614127402,262.3948665788241 16.228647621643514,263.96383281576016 15.231990478530472,264.8138138697869 14.774172185238651,265.72901203683966 13.014815328386316,267.0041776541745 11.82477765413842,268.23987511241637 12.08929680207822,268.8477576424928 13.533970029354396,268.96498510988624 15.100654587474972,268.44173673981396 15.669931003892827,267.7683098733442 16.809550756262453,267.8662630016803 17.63302850801744,266.81336836128526 18.32486427823758,266.52563646870277" /><polygon fill="black" points="13.650585819823707,141.2813322500396 14.359881967218803,139.62650832538606 13.487797412341457,138.29115907924455 12.717416246055848,138.78646677792892 13.316344916461773,142.21960174164815 13.650585819823707,141.2813322500396" /><polygon fill="black" points="634.9206641907083,612.2707554133614 635.2410843051821,611.7638494678762 634.2482994567084,610.71112224577 633.7163571509261,609.5778431605205 630.8766315586425,610.5411969201256 631.5202618254381,612.2398055603942 632.4423085149587,612.7330563802616 634.064456577208,612.6871852103288 634.9206641907083,612.2707554133614" /><circle cx="560.8773321533931" cy="338.91984828121826" fill="rgb(100%,100%,100%)" r="16" stroke="grey" stroke-width="8" /></svg>