<?xml version="1.0" encoding="utf-8" ?>
<svg baseProfile="full" height="1024" version="1.1" width="1024" xmlns="http://www.w3.org/2000/svg" xmlns:ev="http://www.w3.org/2001/xml-events" xmlns:xlink="http://www.w3.org/1999/xlink"><defs /><polygon fill="black" points="830.0485930477167,13.803318302257367 827.982006216587,14.749280566092466 825.9676428128389,14.389523059543421 822.5360430904454,14.364128887624474 821.0752262073808,13.971936318068742 820.7276194297497,10.570608324670275 816.4578357465084,10.450900072425611 815.4826146091539,8.393250730070918 814.2167606540091,9.118350639740697 810.91883201555,10.112452231612451 807.8860312281794,11.4609103562766 805.8676486531282,11.425952423629951 800.1470041004322,9.840098095193866 799.9150117872325,12.742663311587876 804.4580650770106,13.293298306678594 806.1561830714625,15.75877050731151 804.4417149210745,17.31459662635632 802.5183242264399,18.0931885857633 802.3456032373223,20.253752240943186 799.9420138792825,20.914454788978105 799.755392609098,22.33234091302222 797.2639995475186,23.631840067042617 796.2505168193733,26.895512974628673 791.4074713243896,27.819975234789467 785.3805909668927,30.349333406986148 783.517990152803,29.149709065444313 783.2019862399063,27.813670490066215 779.3927027399816,29.85952416362352 776.6904430087326,30.804777505885113 774.3303288479535,29.01569006601619 773.6800140330076,27.378295330516153 771.357009457525,26.060768971464995 769.995060342256,25.945035382432252 766.5791540112144,29.771773039798973 764.9553680462427,29.182266780619216 765.978706305102,27.137331377270243 764.8870152489509,26.715392363511683 763.2135618539487,27.111187615096128 762.245764802418,25.47658240604369 758.6661849062791,24.911746222197962 756.5104174878823,21.05451174111272 754.4707563942732,23.35400878148937 754.1599608858661,26.88494213636693 752.4518350612075,26.67806662883197 751.0478088988106,28.91458933471938 751.8957383717232,31.323427131385188 750.4519609120064,31.200910260926207 750.9863619636528,32.15438069034133 750.5876389339963,34.13970950323801 749.2368979011882,36.15922290481012 747.7228536933171,36.99023698404517 747.0973550440476,35.97624708171594 745.0623644050346,35.58843114129928 742.8216622109486,36.3960767998542 744.4708953486683,38.54717832194393 744.8581281437339,39.824350496758825 744.3996875950993,42.79489437542662 743.3474952394857,43.59871917353337 743.4691188274027,44.80318698949213 739.3378822673229,50.38953349870593 738.189965032945,54.67603187508064 734.9229419022391,53.555928142588186 734.4901389831607,54.86265445488317 733.1019544591197,56.42680375441569 731.9188854012874,53.69422341709583 730.7155070337302,53.18445748991229 728.3160851220089,53.32851929729202 726.504028307532,52.21644794267081 725.9061180719921,52.531079374127785 724.0877462811437,50.94648162960789 721.7981622755325,51.471567611780074 720.7887004820642,49.87957312775643 719.0323672737803,49.33160743394137 718.457913425248,48.355420222171745 718.2077862042086,45.56747076606513 712.9332989789257,47.52630834153803 709.0658828267909,47.0008968133655 705.6185858933915,45.37325033909127 701.4599413977705,42.16802121373536 699.1313834981164,39.44612160877739 697.1904648891914,33.611512957633295 696.8099205055119,30.697087863136517 696.8029080904032,27.20163509843985 696.0325682657635,23.313914242369037 694.6789220976947,21.36516841896264 691.9655339453224,20.189984150002715 688.4781276416331,19.597640304204788 684.986217398985,20.55934027474416 683.4342342356194,22.109776007928758 683.2477195794987,25.392831361866683 683.2441053728875,32.01523514690314 681.2855994325549,36.23959564195928 677.8758361370496,39.21340010675266 670.3328425452356,39.43625475330839 665.485439554353,36.6394928279675 664.0863721228435,34.127532567287176 661.7987826100605,32.39130491232629 658.6432080079935,31.449692327664252 657.0109940143818,28.69557509914125 653.2493053597642,27.910284985479848 652.1299832493039,27.11309273624397 651.1872282666188,23.108740012125395 650.8455360651354,19.457794560228194 649.898990565138,16.804091749123245 649.4953392735559,14.209684555719718 650.6173472917998,9.674278739653346 649.8740240266185,5.174911205957073 645.9935641411806,3.0328237373748834 641.8625214111648,1.289203630059319 635.0643697355373,0.0 632.7210392144029,0.7946056823068375 629.9520887906141,7.117490496791106 628.7691554213108,8.605749465549934 624.937756855417,8.707849266217863 624.276734710129,9.209755050520243 624.1602908450809,13.522674305154283 623.7039983909202,15.018384878127677 621.5081675114974,16.40494631596789 619.078694721356,16.634815148646567 618.1584509114706,14.441932044693317 617.0005857769277,14.440487963881992 610.5278707380445,13.402777019631685 607.3006421631773,12.480455644717722 601.5168134550527,10.171322489716545 596.2601924983057,10.262570410764283 594.5704237525715,11.242434230174013 593.5455156431776,13.237336251279885 594.2989952670605,18.609589836603845 592.4886442872363,28.06449257463771 592.2761562179095,29.802435534247252 593.3122048935649,31.650526410749194 592.1543784123297,33.611288778550716 590.1502583001239,33.216042568882244 587.0999421900432,33.91609844656199 586.3116361165996,32.90440442959027 588.9168880873957,29.685329205776156 589.1439940741029,28.53344629321964 588.2203924227866,27.727335319648432 580.5026322552033,26.107041037999352 579.8531817800774,25.596141743943917 574.6360898137516,23.860440382447564 567.9826035446525,25.32889186218108 563.8156409460896,28.91112396315259 563.2302981190899,30.991248509162233 561.844934049074,31.225583403006 560.3412228081532,30.071633981334003 559.178677209594,26.61157633215157 557.4476703933568,25.69374355208936 555.6330783025721,25.75502876303574 552.9993604431165,23.017112731448492 550.1505571601442,22.1246370424941 546.6829785892692,19.708620879344494 546.1197451770948,18.803219001193725 546.0772190724244,15.14925777443591 541.7071292759163,14.772364169238585 538.9227436018878,12.682808830357317 537.993526167869,11.415550818964562 534.29688007583,12.247984656739959 530.9570622900495,12.276086137320476 530.439809172004,12.774526856376497 529.9483449930374,16.525638045141363 526.8793192616349,18.941227587961862 524.6850124941535,20.099718256709252 522.0176763342687,22.297395577975067 522.0220395959946,23.799091050250013 523.409049531428,26.22105283563269 523.4096581129414,28.068879617099356 522.1378891546967,31.99508986496005 520.6401032985233,34.02188849753168 517.5090310395644,35.58175035197917 518.4314880524595,31.771041500023898 518.1987012588095,30.499582101030228 516.6901788073155,29.810629959882135 513.6872715464513,29.935659016024033 513.4576453591802,33.16333475806107 513.680477607651,35.24165636927904 511.48885521810774,35.13110540858344 509.0536684665094,35.830664342573584 507.7752099934542,37.44810043117337 507.5437158708239,38.94721373428689 505.691225275381,39.75604473449505 503.9604311416486,38.72888678602209 501.4170755755042,35.26951724984718 501.5278628281292,33.536343615917644 504.4230510497952,31.107563609137628 506.7359649882934,30.40673151445594 507.77531171295493,28.097834655635893 507.8946123846925,22.90181984900164 508.36055303447114,21.51989369053888 507.9617896232385,19.569438293102394 505.7304160263106,18.42801395267611 505.5878938154177,16.5025895070836 503.95986613745845,15.482388376933386 502.10637425695353,15.412842433387937 499.097926727654,14.182054640754359 497.9404850614429,14.2347605862293 495.86672895384686,16.41755063219648 495.16384444440774,17.99798600802194 498.12955350454837,19.347659709081654 499.83837774082787,21.35471414907022 499.6174692237208,21.889085715399574 495.3510450222593,23.273435523149146 493.8560240622397,22.26513447932848 491.08346712130475,17.27445766925166 490.6995655335324,15.872616069004607 492.17445634578394,10.420270564331645 490.23584119692333,9.666640985637741 489.14420338730565,12.050882556900888 487.42839649860025,11.57570395233438 488.32231266476066,9.505047513893828 487.3248404639639,8.913875431023257 485.86652690590773,6.486086494737037 486.8771780366159,2.1618830110301133 485.9086801919897,1.8154522719853503 484.1722108521949,3.20540318855069 483.99734018546775,9.695521202244436 480.40692023990965,5.57499752344836 479.07887420501226,5.272465813010285 479.0816650648815,8.638414614306953 477.8088600111071,10.715323636312064 481.9703621897112,13.249362056641644 482.66341631436165,14.520179294673653 480.9262245325736,14.982660897311689 477.9183281096528,13.7140612111466 474.915576936018,11.989342574916463 474.1063061548131,11.064538525153239 473.98444159090116,6.45052338497419 473.5225803408808,4.716775313781795 472.7031467187815,4.702916179755334 469.42956989446907,7.971316253065993 467.5438367682539,8.931383232783901 465.23014715771455,7.864480670059947 460.5748355232641,8.311440830790502 459.8793988804621,7.268550132276459 458.7199640854616,7.498730951587277 457.5644891187792,9.117199282860383 457.2177334618007,10.733102981411207 458.95555229612717,12.926907254099092 459.1887216233729,16.734064264235144 459.6452015847365,17.194165673624866 462.6551214497591,17.30995357317454 463.0031876213574,15.57359492612568 462.42712729150134,13.036219049577994 463.8124944567758,12.807383672165656 466.4669852461576,14.534242932509983 464.97186620237335,18.11610823881506 464.6204738540908,21.120213205270034 467.0509946871188,23.657360510849912 467.62921231434893,26.888268909336375 469.7106330008466,29.421446694685756 470.63036901383236,31.501834171512087 470.0581127142604,32.30824767563706 466.1205400428865,32.54592388861056 463.5832179863231,32.311565789008455 461.150708149255,30.815245402858523 459.6457130460614,30.70121625238926 458.7259123936645,32.31650917424383 458.8696549434165,35.928504664974355 457.1888240531668,36.012466419811574 453.71962803224534,33.81547520188951 451.2084964755164,31.169622334045357 449.93605006718093,30.472195537650123 448.7849086654795,30.821709132199658 448.4325939393027,34.74739472250178 448.9634438051007,36.738133114437176 450.2914043375859,38.899293799446525 449.4740669512923,40.51570573918997 448.04083310854304,44.94491090638161 448.3973457348632,46.04364632611407 451.9633166811485,46.94129146350025 452.253401871725,47.5457173964989 451.7444268281857,50.852108858899896 444.6508583571018,60.18775881332152 433.84238877657685,66.2622256822022 430.5965743896421,68.65315836891943 418.9548221760972,75.79088385239947 406.57605533032256,77.5510539515513 397.7293985386715,75.05790676804821 386.7000002082917,75.21594330562846 375.40602011773007,76.97598890087909 360.3868864855969,76.56023602115448 345.6120707004627,75.33785514466581 334.3237841689676,76.56424558690071 330.5222305731586,81.62044496664976 320.5620171919119,83.13325968342502 311.4604493526535,79.8242062097076 306.4072034101973,72.26904213212549 301.1110075036547,62.8299499309245 297.1220009318806,57.96702353925144 290.7186234623535,52.00649923304434 280.2414814632931,48.164016712078876 269.72960794544224,51.29738239789839 263.4615778904739,60.099607568240174 258.488610431165,74.28182272783135 250.16835039464337,79.86026064514681 240.03504267814174,88.63801673435137 232.73434313089294,91.27975541032941 225.47034533372943,89.35408207298258 221.16132396921842,87.18480074032732 216.0644557864034,84.20299758951217 205.26657783954403,83.77783106079062 199.03605478162572,87.66230635165272 190.08781466749636,91.57251280917933 183.3297256923941,92.6131607393026 181.25355041533388,91.4365789187093 180.0792705558018,91.88229256971209 179.95869008520563,90.14021700896785 177.91858917782122,89.38748769137175 176.34485754839542,89.72975877017268 175.96840818945665,88.77625945967992 169.4793677028922,88.77293676361955 164.64344101354746,89.37805575287223 163.35110431252826,91.84455809009972 163.35243335154766,93.25408146596573 162.04754535140654,93.49210670648671 160.5161507074038,91.49886343511656 159.82207439025564,92.80224688068557 157.39089651534354,94.48888099390734 152.61171758805762,96.24892841893649 151.66270227676537,92.81976853729543 148.8702551280754,94.64894974122751 149.09101706886298,97.39133152256409 148.01436457808197,98.96104568614311 147.01209850605682,98.76895408491856 144.1953935067171,97.02306920245331 142.60941656637746,98.36850363051536 143.77259727892766,100.3641118066513 143.5540497215906,102.20473426426366 140.78589925650496,105.32550095587533 140.51310871624239,109.71424639433968 139.2919427399673,110.54977067793874 137.0300062902585,111.04174125569773 138.1927535103864,114.65277234718053 138.0567313611067,115.61133185403651 135.24824512588927,117.12546463447393 134.47957357296656,116.35619464663881 133.06083807366852,112.69731061544337 131.63236921431564,110.69345155460405 130.45209897030477,107.67869096401387 130.80702648982344,105.61177289779755 133.6487439143218,103.88644287468924 136.79647728086695,103.05409178070335 139.40863147400182,100.08924984464443 139.52710114968244,98.1385282404284 138.755581951982,96.01351492065447 135.19131226518013,95.72798934316967 133.53015067755558,96.55767126607259 133.6514057907906,98.21327245123945 135.42771558043043,100.33516875138139 134.89703128090363,100.99024988100774 132.69834380779884,99.75762730500685 130.62523279501326,99.93616085917097 129.5057467433119,100.92969912567281 126.94646967669284,102.19196637937085 124.92701823607082,104.50357573875931 123.50912874586285,105.50950961864413 121.25280003790695,105.57789471671225 117.81567555049027,104.99541810437074 117.27921886561273,105.99661884881277 117.39556488199781,108.83478970325427 118.64652158101526,113.50461478180478 118.46245748326002,116.51308884983524 117.63662730852084,119.23582513439442 117.81335322261636,120.65355527299158 118.88067943576955,121.30287166974011 122.02998245243992,120.46610157874113 123.97714154122734,118.92908872781487 127.77712025839556,118.44238294827665 130.27466379813822,119.55967510865031 129.08793191229344,120.92197033734891 129.1433234859473,122.10530150131757 130.56345324652042,123.33937898366986 130.7451015197603,125.05543058362701 127.29909324088148,128.259501862342 125.40448875069667,129.6171138924854 127.54113388714639,132.43396515161533 127.3225609563186,133.43471228350563 129.54483669420333,132.91073613210625 129.59584040328735,136.00300865853774 123.80079258851625,136.15463173400497 122.75533255516783,136.89997254183157 122.73879610303837,139.7211560106801 121.04500633495974,142.98103890293885 119.78969048979906,142.49185746325304 120.18944015312128,140.18691700696246 119.36852697434959,139.48122785421975 117.69507439639109,140.37614126331414 117.12520128584654,141.58394961496515 118.43385475241982,143.48924138683714 115.91666740714932,143.83020811831096 115.32797250502011,144.89037561064777 116.02585032822556,145.64826035685292 114.19114351052546,146.33981338572238 113.36840015669141,148.0764902523789 114.75111363141079,149.0119073178086 114.8908097048186,150.01154727099532 113.68905833411344,150.99924627600655 116.62673192249598,152.16113791420537 117.34934891857539,153.36384095911535 115.75509169538333,154.45514299425906 111.6724418364528,156.08893023007317 112.72841837486116,157.6926206139144 113.32123692293618,160.11482613095484 113.09661031230193,161.6465445623263 108.70520663089223,163.3136149275644 107.5916242291952,164.56330576970623 106.79090072954867,166.93425539803746 106.40662451695846,169.5388409334475 106.3974684089795,172.61046221881213 105.93654327026796,173.33659178270676 104.25586355088001,173.18439165744917 104.69099663597247,175.21851628497586 105.51755413221439,176.24952649043803 105.31515296210279,179.14428573481285 101.479548622622,178.33991821546567 98.86433630711726,176.07435193057347 97.76044957042268,175.76718711486416 95.97596440552493,179.62224866066083 95.0662692239444,180.89097317904145 92.66674623970468,181.61924001820074 89.09831599755472,181.5059785606004 87.27010735256734,183.223246009791 82.86830622424851,185.6815061679663 81.0367025836056,187.6431497302995 78.40255062161164,188.25343965851016 75.59746188867837,189.38310139974737 70.86238902526424,188.33080914553125 66.42951952814414,188.44989330722416 63.53988095742212,189.76304337282778 59.34795253968801,193.30328053245222 53.69605664323861,199.31637889216705 47.06030938695252,202.26981634433463 40.847750327685986,201.90895599082853 35.97869924109761,198.65116306989444 32.76967170592303,197.08177133904445 25.66201262605298,196.97359315939298 18.910588366104996,198.52997615374613 11.321902316054569,205.0567064723174 5.432421016806515,219.92287772572206 2.5532198437199423,231.50963746497695 0.7355272203389915,244.17563282433008 0.0,263.8567431443372 3.0031627849218805,274.5283512408235 4.090121533333393,282.73666765522194 8.357529058115311,294.7965754866859 20.366219098911166,313.5392475266026 37.34122081902949,340.95324293016324 54.850779170074944,361.1196600019296 70.38981654765432,370.82921798070817 94.46468316821866,378.82101004545024 124.99512934149884,381.8732687913006 152.83928194207843,381.35989224297606 178.53677471589629,383.3083541259074 229.24135292288454,388.22353462576956 262.91153392438616,392.37634427147367 264.8917118900508,393.35148607990436 267.0307766696667,399.7660587652015 269.80063605974857,402.5589952896224 278.730601439465,408.8175156310734 282.5200306737377,406.23425655876235 287.2146770559799,406.13440625613225 291.1877224667316,403.63974295159903 297.01275384154377,402.60123423400944 307.0215429255835,404.54137487806963 313.54452925681164,407.79835100521046 317.9396768630287,411.2507571261657 330.6010449378901,411.254993652371 336.21113701496597,410.99036104127174 345.43983903478164,408.62081754150796 346.27640840818856,408.278614866248 357.1188734655439,396.0470345034141 362.23713725444077,394.7536515303234 374.67579659425604,384.681174252881 384.16673022048815,374.5738887007765 392.2923058610822,365.2609454055955 399.07489651108614,358.3497101712891 405.58094807433605,352.23855280147234 412.3190474367068,348.2747420828848 418.79396645793753,347.52272342461276 423.09457672066424,347.5609914576089 428.4588584310293,349.760750782011 438.0886870309826,356.0115808626615 443.1596113747841,360.6143888132603 445.312000502624,371.9406164137009 451.113607110422,378.2669575418449 460.19499598097366,378.6662252358627 463.8730048648655,371.88066648833205 464.9079365419605,367.411794768801 464.28077491831993,363.80396688950566 460.84137673864444,358.37325382963195 460.76834047158746,356.5796001653421 464.27444850373604,352.3393146810971 471.69500225635863,346.83944051417024 475.82110200624743,343.15429304763904 480.3702430919195,337.377985213187 480.83064186106964,334.6897121777977 478.61828351481006,328.6600179914685 478.74040595993785,325.01839209126825 479.94013612572724,323.3054334844479 482.56996051075197,322.0911990636024 485.676492173544,318.68234972894805 489.611080856107,311.7331293542452 493.4132521031135,305.66769224964435 496.07682074614155,303.2315322184338 501.15059560233976,300.01934905520716 503.3319147198819,297.57783369718516 506.0199708905185,295.6797654735859 506.34019906445064,293.67524564207315 508.2442905338298,292.1861304228818 511.3448422970532,289.1311735347117 513.5148105322419,287.71154883799704 522.5203493871645,286.1633849094181 528.1264099094828,284.7911071190482 532.8158994404685,282.84865449900184 538.9333298902121,279.73433279733837 546.6013721829488,274.5827360639119 557.2343240262541,271.2818966091269 558.7122501333228,271.26478067054063 562.046496898415,273.17813635512255 563.2896833182667,275.00390036699173 565.4079422956804,275.52557344545005 567.0973452670561,277.7477683388711 573.443249954934,282.1565542524079 574.7393118174882,284.79670657728235 574.3973453523705,288.95635384115303 573.680801125543,290.7837110412438 573.4669228817921,293.5659215177016 574.4149622100786,295.2095627246389 576.7187229183592,297.5678698261977 580.2592564487729,310.3786411671007 583.891177179088,315.3023781453461 587.0934824174243,315.2923890964322 594.3084568426062,304.2540311213604 596.1285426440049,304.8973280801748 597.4193651823532,304.0745196058459 600.4734730258552,305.480113196703 601.4659215988472,306.77086630475696 601.4032426906215,308.8225687818719 599.7671133261275,312.2800815627015 599.7594839988642,313.9745060729498 602.7539320089425,316.2038735338741 604.9873746043297,317.4909916941881 605.9793691661486,318.83666717600875 607.3914037676045,322.2939489133915 610.6071531335064,321.9410039661209 610.3778136811759,316.25993647112585 614.0681183546221,315.67323436532956 609.6334210527901,311.7687360758134 607.5253892177521,309.2386935673553 605.4721421825169,310.3192036516843 604.032613777295,309.55012261896826 603.4586727192932,306.57504024405023 601.4333278424278,304.9473900531688 603.1101042910492,296.5775119991756 604.6807082446893,295.4324345149905 606.2406162037497,295.43210430637185 614.1827867117446,293.34778381441055 616.2127962000736,292.4832919051611 618.6451312580604,289.4688084769848 621.4579073097541,291.266833891575 622.8642877789598,294.31580566284595 623.0967393080556,295.6419551633167 626.7218410451216,297.33471413384666 627.9551229672978,299.1434607824608 629.7816164126257,300.12909565701733 631.5568788779942,300.1307127979031 633.0132957887805,298.15277568071747 639.0541415808816,293.3665929130807 642.7017181633483,290.77100400921313 644.3426009913018,290.86352526672624 647.0757078389128,287.4494212759095 649.3500513933222,286.71797729489276 650.5003619799929,287.6580184290117 651.1265707990813,289.6335725840055 651.9510183239366,290.26161401620465 657.4305022477682,290.27194857473137 658.3828746414525,289.3646389634955 661.303741569263,290.7724711396619 671.5233760326195,290.7218943913531 678.9608910904942,293.91059441891576 691.7755644635076,305.4951446656544 699.949927705978,310.0161184979627 718.2455371824357,316.35906075465624 733.3992904273903,319.8320162309966 755.6029176536186,326.66512871174837 777.4283078749859,340.0446830885792 795.4671259998937,356.0690508977643 806.7303648188187,372.4778007079083 812.1320230207973,384.74488239471395 819.5179658490758,409.24534556817355 826.0734490987264,439.66740768195956 831.4791127862132,425.3530485769556 844.1128293709085,434.0581860667694 854.6234498434468,444.9992740329934 863.3661001115221,462.25824918536694 868.3410498568288,475.8674482254138 877.4694281734954,499.9140846790352 887.1372095615416,511.745783867111 906.9776668119994,524.5444312066854 931.0815971626777,536.4627353128903 949.2774802328564,541.3349137476804 970.0957950538678,544.7050491697314 981.3671297847341,545.8453282708147 992.2070151875214,545.7783169999757 1009.9573934404499,543.521035187628 1016.4316820760861,543.2184001943871 1020.1255534412032,543.8012886313319 1020.3870344575603,539.2983586473033 1020.1446136884457,536.1220781278325 1020.3029611927484,532.9220131075823 1020.9527268344066,528.5904565502765 1023.0381440670643,522.0204631322256 1024.0,510.44221374487205 1023.8901967657446,507.38154002094905 1023.3885807595389,504.61247062577684 1017.9256141888102,496.5013091123629 1013.0201712016301,492.02354344760244 1010.155317963232,488.0024089893943 1008.0878473759169,484.44931613915696 1005.89210787834,477.73828684579325 1005.0988608234037,474.1238313194433 1006.3182519302292,464.0290001205608 1007.1537589797109,458.2233601684577 1006.9089769582464,456.7973220382928 1004.0642008381363,452.8264622328774 996.8200398901552,441.9211252780141 992.2181598231825,434.34538474678936 990.3343923410339,432.44558503669145 987.3464196059277,427.3320755028939 988.0639277353487,421.0321191082351 987.7286190926574,419.32937285850966 986.6919913507239,417.9308684653483 986.2140434973754,416.150976818076 985.6947508897915,411.7481525330058 986.0765638084044,410.23002903043994 987.5625398901562,409.177903906535 988.7269812672196,407.4380269360245 987.5481322273229,403.31757023459204 984.5478555607776,402.41429379112395 984.3706215724648,401.4669591913925 986.3069759170014,399.33807954621557 987.2110936181132,396.64086279094835 985.1804109499775,392.6655636451494 982.8060026504945,389.15517116057384 981.1474436165993,388.70221621703877 978.6152059822738,385.79732453741724 980.4211090313415,381.9299684633863 980.1848040548705,378.13737947597764 976.2104562808388,375.9118529253386 975.7358464212952,374.9691177348386 978.5751773413206,369.0464019050894 979.3519788548932,368.17338697205577 979.3875736570985,364.9757864921912 977.0668248153158,362.605721982701 975.4026690524254,359.0903874784369 975.5484132990595,356.2081984172657 978.3258018434334,356.71351709546536 978.5315660466129,355.33078727924504 977.9436758535759,353.12201381495356 978.579678079334,349.3645034530379 980.4423525205782,348.72356767038184 983.8640576870989,346.8557440078248 986.9066874771705,343.7150162565989 986.9133901809917,342.87905942351733 985.410908554536,339.5182839104292 985.4244252216249,337.8346771243496 987.7809962446092,335.8401392496378 988.7989803980242,334.1762743136777 989.4859505119834,331.66322016170943 991.7484155650069,328.56995888222417 991.949802462333,326.48797337420035 990.6172077866457,323.76232522468376 994.6241067970917,320.53799765896036 997.4455329207088,316.67976867340894 998.4764245779811,313.5064629434884 1000.5186992292099,309.4630925920661 1000.345514446474,305.53773108802557 1001.4048522312189,301.2468391718153 1000.0954580947622,300.83537687419175 1000.8346844414365,298.17654577813914 999.3749109990002,299.77147585986563 997.9984519499309,300.0972570279797 994.8303294249712,299.7726573302268 992.7343688269818,297.67815004066495 991.994106487724,297.8557987422159 991.0674265961751,300.83931887092405 989.3150511231206,301.8343387854116 986.6219111666189,305.1018249247262 986.5444829356835,306.984865173623 985.5907751268998,309.5062901895803 983.6379977726638,311.21172077280994 981.4359293440749,314.54856586443674 977.6907370704389,314.58849235095977 977.3118390087758,310.75378659124465 977.5591613834005,309.36554384547003 976.5232500570713,307.9786148189419 976.5967921088337,306.4545023520476 975.3724165788545,305.66820547124485 970.6388238510228,304.9621556447369 968.4573397376682,308.1633783985899 966.5017916476207,310.18780634803204 966.3935297734762,308.45057560606426 965.5715046047113,307.38569410430125 966.8886048730805,305.6425441848178 964.9998456956057,304.43917443366763 963.6534567016068,302.2732353155556 960.1980354484314,302.0602279605425 958.638483496592,299.50781022046874 958.3816131891961,298.31071712806767 956.9712930969688,297.6911269213859 954.2548760939256,297.3379002391438 954.8189275734399,296.13235072660365 954.4078343551356,293.7577002379232 953.1545443325684,292.6564599489266 950.1695432513933,293.86893729037536 946.5708079171399,293.6930440343808 945.8278505237715,294.1908505471879 945.4705118103991,297.7483150486943 943.4462760910817,300.52142169127785 939.6368584588517,299.6385730310469 937.7498726160472,302.0596391479552 935.4599474580812,301.14958114353897 936.4675667573273,303.265005054368 935.744225879829,306.3844414083307 934.7615029890296,303.6413229984961 931.8346998469407,301.51102886419545 928.4709028191235,300.14757112857865 925.9628188391708,298.2814227063082 924.622742844718,296.59810369351624 923.62855971745,294.076969936302 923.1371301141979,291.5600578539335 922.9905159176906,287.03254588524715 922.6686807298264,285.01633825796335 921.4998442149612,282.4831890399348 916.6710416205614,274.9040698871781 916.183097016306,270.70455249229684 918.2405494275899,265.18188230156045 920.7795950568816,262.0123467372781 921.8004192474958,260.1758278643171 923.4944168241864,258.85010483617924 925.0139594670786,256.1770549910695 924.3831889393023,249.46006312893303 924.5612447538501,247.7789636932721 926.4433548105426,241.0889623062984 926.2907773715673,238.57488840603463 924.6408972708599,233.52138260859869 924.3015337549139,227.50722592549357 924.9933091280401,225.79771302210844 918.5438081206819,224.41493919695392 918.0568576211739,222.57152513951092 919.6067760314576,220.0297459618107 919.6531096011555,218.16862977823337 920.8673304326151,216.43197993317045 920.5448833273085,214.51395841654158 921.282253495408,213.4842017753457 920.6172109432475,210.86989490251153 922.2958642968665,208.84951935497372 921.4623209246323,206.65590434337133 922.2000198594694,205.58288436566193 923.5451698451201,205.4048196004578 924.1128093905581,203.64047610499557 924.0080172879038,200.26619216650244 923.270891783753,198.94685634676057 923.6756611283855,194.7361528362668 925.377008094222,185.0839890124579 928.9724890289266,173.30679840401353 933.9371958364535,160.72839177145573 934.5489349953097,151.34178534678767 938.6580895498626,141.71322251139003 935.2638516151981,130.96468671464612 929.3436634747397,127.9705718556034 923.7114407708324,126.32336806605588 921.6463629594126,114.7789020388741 933.8500399220194,106.53791700177169 938.3232060594057,99.73980306846528 938.9901019264331,97.153069569828 937.701548625277,95.63620083820018 937.5279975611338,94.33331598125648 938.3462419869602,93.35329985883567 937.9131195713722,91.24142099626283 938.4999465378532,88.43769628923536 937.5528638884063,86.56471276144862 935.5714372661066,84.50528909108613 933.6529646994903,81.19872587189406 932.5595164146454,80.90186028046412 931.5610228990904,78.92550274716058 932.9233013061413,77.7606779948726 925.2914533865907,70.37864260234653 929.0324935228767,69.03990232229364 930.1620811598153,67.50480349707505 932.6019205085472,67.33481191357384 933.1433098236122,66.29870024217041 931.8088904843307,64.1745085012301 932.4170644957783,62.59640646072779 933.8913972943848,61.4594200616163 933.8365919691297,59.41618602693734 936.1096572775268,57.13181535287288 935.4401412522856,55.11497573601764 936.5359964074737,52.77273808860389 934.6711599666697,51.56433674260222 933.6796300141759,50.07680433458603 934.8971225890298,46.63996524285602 934.3758320150832,44.13676555010528 934.6779180947927,36.14126797274338 936.2524829067276,34.08955259391189 935.9962806091244,31.730073653804652 934.5245780537205,30.129742079400557 932.6584564743172,29.10603892589006 929.4929157545341,29.214895256336604 928.3938440357213,27.04820686949688 928.3860717835793,24.361067984003853 927.5026268016047,22.251155663779514 924.4058102230829,22.761565279533443 922.9002857730907,23.874804461185363 914.7214291210018,26.953955536003264 910.6203410169014,29.77427430950729 905.0192994337115,30.739908062546647 902.6550935288114,30.546462623358366 900.9413291817526,27.317201300828856 898.2096857097854,28.10157553390036 895.5575058900062,28.024804803344296 894.7390726369134,29.155456174497544 891.2070174985195,30.116356516836504 887.6049840426585,28.459622016221715 879.5537459097669,20.35825440909025 875.8244861346359,18.19029932950275 866.9525637015199,14.909224065025342 856.1514265858543,17.78810459301735 851.8612505899783,19.934148859546326 849.9037569287023,22.354726302729432 850.5321120446763,25.427536039812026 849.7411182506899,29.067643329742168 846.5536676717469,28.193661367149275 843.1658989341844,28.97010327512487 840.9874454086228,24.025222423449463 838.750205258104,21.137827468358637 837.5272345316805,20.498857298328744 834.5609053236496,20.054609501560662 832.3517819293569,18.539022226891007 830.0485930477167,13.803318302257367" /><polygon fill="black" points="292.37234208485347,431.40610290929874 293.37375572732674,431.841565789446 294.2727785794873,429.69567759374274 293.60574250131396,428.7531387880549 292.37234208485347,431.40610290929874" /><circle cx="382.68084692944683" cy="296.03215714709097" fill="rgb(100%,100%,100%)" r="16" stroke="grey" stroke-width="8" /></svg>