<?xml version="1.0" encoding="utf-8" ?>
<svg baseProfile="full" height="1024" version="1.1" width="1024" xmlns="http://www.w3.org/2000/svg" xmlns:ev="http://www.w3.org/2001/xml-events" xmlns:xlink="http://www.w3.org/1999/xlink"><defs /><polygon fill="black" points="0.0,185.01886301419054 74.30531943301722,228.5567827262858 231.20242149290493,314.4730084630965 279.2163460098473,334.85575548905933 334.8606098283118,333.78084172393073 380.81737882430537,327.07820424435994 419.50911180754775,314.1343112187919 474.44314382212013,274.87866910474526 568.6257867018111,258.9954232018108 694.2592867290164,274.40826008830004 812.0695651086745,313.290797523778 1005.5412825231208,439.1849084728221 1024.0,359.49759624638654 1004.0103418152472,328.0985729046376 988.9647469759866,296.7846234362289 982.378272818056,256.05571182228994 972.585435505049,216.8662946873994 958.5514466329294,194.18870780341817 939.2226701648141,178.7221330376234 908.6555182602087,169.22081637355387 876.4654575475148,166.66506984170212 860.3160516808545,164.9971488126796 842.41888859328,159.8846431361451 807.6292769159369,151.01724066323663 767.8928489836117,152.33914820686903 720.7317568005591,145.5933545011137 706.0120682243306,146.0675141849893 673.6031559561131,150.03125015708764 614.7065439908388,150.33890939690582 574.8895149898918,147.11937446848884 545.783989248158,147.87182722040336 543.8690213892653,143.8702302609401 542.6100792911388,135.89118781411395 537.7575421606691,94.74554342685582 535.1993145616166,71.78978585570638 532.9979393859429,43.43890653730085 502.1404855963362,45.65653036255452 499.8309502988573,46.10588130110466 496.07297378695273,47.44413994687045 492.15178852710534,47.89883207881229 483.3753852792059,47.821698530663525 479.1121862110385,47.407641692776735 476.5146955527898,46.47406582923702 469.4048882002436,43.55619882415692 462.72559631603747,39.96580233094812 456.9488830676506,36.18437930011214 448.00316906933443,30.72130817768567 439.86576154498204,26.281918994296575 438.20122843475804,25.086766734421985 437.12186280470365,23.62461655502682 436.8294026052402,21.98519887575418 436.877123121718,18.14692656718688 438.18233632941565,6.226563943925271 438.07176285603964,0.0 414.88169497172476,6.243570488478952 410.41098377660694,7.186006626425069 405.7269681786593,7.980580014309112 394.7021008837028,8.805904476642809 373.40910738068237,10.956092049361246 366.86859007127674,12.203307089004056 345.7567744674863,17.45242980155558 335.28596598074114,21.020129106171055 327.7511364943365,23.22950098071783 321.80501500953983,24.139398510525382 306.739585959762,24.62716725728842 287.2689927252547,26.195600641992485 274.09405701734164,27.559420618515333 264.52664124328,28.008060308618383 251.62250440954145,28.002227115060748 238.10575456202434,27.90208793377741 220.01550772792987,25.30462155636883 216.01497645753366,24.838485251339876 211.86264402912943,24.724919959255544 205.23076672719665,25.576387060502213 200.08220547704158,25.11873123570075 200.71661432974906,27.65026716359398 203.94970313685593,37.787507007757256 208.8695178345137,50.391113478956754 199.5513762743692,54.24070532004902 193.24777799270447,55.797815434759684 184.85976281364813,56.83166279854794 166.89704931584515,61.50937482613972 148.20312438773442,69.54714307129922 133.43539821911955,78.62385797120646 113.6427371096251,88.90813303481087 93.78228859509778,97.14048287314205 95.87188658934159,101.57108056765566 98.54462753238747,105.0117238362925 95.985885369223,107.48254482115789 83.22748477869584,118.24969516830305 75.01248077200252,124.98330820760805 71.38510620726333,127.19283427198445 43.676060933029746,142.68802214682387 39.952386005372254,144.81749251083863 37.57992577199372,146.50347538087163 36.47921528114316,146.81427951676636 35.25319703609471,147.7920937938236 29.089345620864922,153.76644731350308 25.809868121913805,157.20610588614153 13.8155807451461,170.1635939722728 0.0,185.01886301419054" /><circle cx="403.9270129296016" cy="175.63396185241515" fill="rgb(100%,100%,100%)" r="16" stroke="grey" stroke-width="8" /></svg>