<?xml version="1.0" encoding="utf-8" ?>
<svg baseProfile="full" height="1024" version="1.1" width="1024" xmlns="http://www.w3.org/2000/svg" xmlns:ev="http://www.w3.org/2001/xml-events" xmlns:xlink="http://www.w3.org/1999/xlink"><defs /><polygon fill="black" points="543.6177030477864,93.37701918756215 541.6079373618666,92.8013944817526 540.4341222513639,93.0419506595432 539.396096925926,90.31448650054847 538.248288146836,88.97099547389644 537.3664977617154,88.7139412236246 533.1838613285001,89.80654910677777 532.1360038666415,88.16797863885188 532.5045162110991,87.11863955083857 533.725457953312,86.44810015793689 534.190389575426,84.75297964110166 527.4552881428158,82.86671781974519 526.1255012311985,81.69670820969873 525.7991643215078,78.43283861986288 524.6144318809537,77.44073719473056 523.3092688793147,72.16663461575615 522.7544403498274,70.7246852620707 520.8898087875226,68.00586138424205 520.3916962454283,66.00506897491789 518.948103315587,64.6074503237196 518.1775270615108,61.87867836719886 516.8242111238962,61.3821818155883 516.6127136910501,60.58964200274056 514.7737834458869,59.50326795691183 511.6779156506654,59.56657530405164 507.69017774155543,60.46776655028111 504.78206696333166,62.16852485101958 500.34504727560505,64.36268937520163 493.08429405768925,66.25761415216243 489.34830856276653,66.79756021155083 480.7912517793561,65.24966292242402 477.5112227883309,61.53116930111844 477.2010447592944,56.02043149433928 475.50760402357497,53.835768346925306 462.4604676283007,52.615019050251135 462.01584464963946,51.95979758982378 461.91238143438443,49.1399712185746 460.49243686807876,49.150974198199606 459.64314468249364,50.30278975488545 458.3711952579619,49.64673907112535 454.15379185354294,49.90125663605727 451.51403507396725,46.66372209740871 443.6250626105061,39.40801124506231 439.4674087633684,36.546683283571724 435.690729214972,35.443651956482086 431.6383994976993,32.93940654614471 427.21016175000557,29.149314588062452 424.115751457149,23.19684118256373 419.2901794531653,20.79781931494483 417.2160046249329,17.564245252937553 412.4579269844834,14.42037836737677 408.434719412867,14.268453647361184 406.20565213262296,13.75357127249356 403.16055955301835,14.803489309158522 399.18622244823683,12.74052453961599 394.84220684469324,10.222190409481982 390.4055718964742,12.445769809089029 388.5660956073297,10.461760502386483 387.084089151724,13.424637708033401 383.3356587989404,14.792552705535627 381.2874402977805,12.015656766753864 380.8718758724993,9.092620165658332 381.9513280499911,3.6724010088171326 380.8280715076443,0.1753899971588453 377.87788737819545,0.0 375.082087293966,1.8184320641192926 371.12425423343234,3.886748568463986 364.8068572936141,12.812842780013966 361.92244620710665,15.446833032356267 358.77958122109214,17.503317392802273 355.88326981807705,19.901382423104224 356.85797554889217,22.671466849754893 357.13470701414855,24.658690248314088 356.87502234697706,29.475513695728182 355.75955642107084,32.7799843877757 354.11522461048435,36.481667129688276 351.89628880958975,39.771016253521 349.0254537697487,43.45809008060462 344.48693668223365,48.70709958829639 344.24082478317695,52.42359772273812 342.1027069185666,55.7703978230669 342.1050021239402,56.21442810681867 340.11558461142704,58.837702232444826 338.37263966973114,61.67473790853205 338.55281271346826,64.93165484485621 337.2652400718347,68.96988617744557 337.19775846210933,69.78660458632703 334.5515581705891,74.04670444676071 331.49824697485474,70.50239192665788 328.59965084289286,73.40976258785224 326.9257802297169,73.82607146039095 325.9631788950239,73.49423012170632 325.37604932418947,74.70010057910429 323.60943785453793,74.98101273950999 322.827322403444,76.09456531541241 322.2170114523453,78.84771411790064 320.61069265425687,80.76048884233512 319.9116963460346,82.04619196322551 318.85029389983384,82.43065074232197 317.21863132827883,81.07743635687928 315.8378565271966,80.9260554830422 314.40266778034015,82.35793773669661 312.92095607657876,84.65705312251123 312.07413499437575,85.09057298860967 309.0771403046554,84.70297907170357 308.5575385830693,85.11346822718383 308.61484801582856,86.582055716421 310.37871396748375,87.70604847220056 311.54974298812147,88.96836418178611 311.8792840996944,91.76116185701699 313.6101118163291,94.63365615353484 313.5541502482122,95.79443697390195 310.866923723752,98.60133960937799 308.70210132293437,101.56299578879884 305.8208498174369,104.54253128186258 302.9237734242356,106.35374697817656 294.83931972296136,107.77831617081654 292.1770248672324,109.58070976144415 287.3255591085796,114.00821102679276 284.2937860625087,115.59035967106331 280.40578563408445,115.54083498745229 279.1914546589651,113.57423103033648 276.73713031591797,111.06016282337373 271.5362666109448,107.03752038619257 269.1614189940424,106.49399153261618 267.52990114402286,107.81855719940756 267.2069791806574,109.11694667702704 268.66652298871594,111.07530300026076 266.1696009840922,116.63929459434121 264.0887727070564,118.44568879840801 260.9330040420547,120.03389595565693 257.32000685740593,122.69120656052974 252.76394250334812,124.89240335044872 249.23596240216702,125.55608742411823 246.3132148018054,126.7912306673021 244.5685064000013,128.35243158712933 242.04172196851528,132.03869455705978 240.7769787011979,133.47642358408007 239.9398807384669,137.59488892668674 240.5164391839299,138.84842121185227 237.8762545977806,142.5634505572267 235.20082270851623,144.73025666451736 232.1021583569993,145.800588945526 227.10943259010998,146.77490744986073 222.88434864413543,147.79025053692305 218.79418163377167,149.63707856594215 213.91893635092254,153.12780427032078 209.64974704610546,157.66443412053377 205.48027413389275,161.25403714001288 203.89711868212376,167.76554198236488 202.98747014362038,168.6713945255608 203.49380669808713,170.73006108317702 205.636926143931,171.98112156977436 205.98800134547446,173.19356445286405 204.81450604017982,175.2123587301304 203.44485482203373,176.68664730067928 199.95820243356758,179.56495986855998 197.76077447254173,182.08909618322411 195.30632547339377,184.34784397031103 194.9198566667128,185.61200228545238 195.98730036061767,186.5788195727621 198.03745931180566,187.2209905580453 200.86057496396532,189.80699855033095 202.7652889428272,189.2785640624728 203.90990327609643,187.98403203705334 205.3441299714658,187.83752101680057 207.75281210716548,188.39193219418144 208.11300436245307,189.13062377304414 206.70534787799932,191.85465417604155 206.06761999290157,195.49620010809656 206.09933856137746,200.60859911009788 206.6690339879219,203.1566585593447 207.66504781866868,204.00916465265982 210.45501134264813,204.94360130945995 211.3994871642641,205.67375060305608 212.84235698619355,208.9883905493516 214.32404587229232,211.33345635753864 215.06760647102666,213.70892522280212 213.8959881407371,221.02471770514552 211.42847849521186,227.04373234069084 206.5374450110188,236.39622640773536 204.05740505818724,242.0717239320507 200.8332533959935,245.52863767611274 198.56505521176194,249.9036467484794 194.39645639416617,253.4915775090479 190.11349717166917,256.6128122674142 183.15458658491096,261.42055504665433 177.23905590521983,264.91770060423124 172.27365693800002,266.03244343662726 169.96222899840978,264.345845124057 167.76468035566467,263.58690980781523 166.32849490685336,263.7614438463251 162.78058272728995,266.1678524738314 162.40222644274075,267.16027636312475 160.49665778991837,269.95309332992053 159.04117827589747,271.6806347874885 159.48459727638868,273.24048182551905 159.10800754311336,275.82295176516453 160.0768975283758,279.2887175088618 160.61445574046087,282.16504893851726 160.41095871316742,283.683164745784 161.67764970289088,286.94061385954313 163.58954668798566,288.5856224975895 164.09569863682006,290.87252065285145 163.65460885349273,291.36931488061305 161.2840226688151,292.31507974687344 161.55337320512152,294.30783719086736 161.14485394601417,296.1570203609507 161.49497974639073,296.80439272030236 164.57906160642548,299.3834945900206 165.79424462608847,302.0806520527978 168.76004362106272,307.6323635048536 167.09890407299483,309.85868670460394 165.6618556705245,310.4505513299311 161.93281721749455,310.4123359167541 159.262540475483,310.7392373699546 156.66423822196103,311.4766069342383 155.0736712666212,313.06178821913187 156.73080737625546,315.92459720076386 152.11187613945378,319.7882595403405 149.21527213544766,320.41030175602015 147.99160262745147,319.7493433056853 147.293610248589,320.3542738230048 147.80840065098872,321.6499000899717 146.42458079353878,324.78981541448974 143.14681113861528,325.1025264280702 142.27380830826365,325.8519397245903 139.98212196027615,325.54448102266696 139.65221256803682,323.84561087259016 141.19303725312383,323.33281094139363 141.55202869404815,322.63453580384595 141.24175289195583,319.8991801469242 141.87705313463593,318.31475384398703 138.02284467244698,316.201275905746 137.5105139769947,317.8285774795421 135.35311745388583,318.0462051981644 134.8914578688487,319.277593535446 134.59526107299882,321.99189107233593 133.50624621696988,322.1580113697162 132.21110810366082,321.3594491485778 130.608759759523,321.92934631112826 128.62685103438213,324.3060616803273 128.0732984519277,327.1576925107948 128.6706993441791,329.5334834295938 127.53073329835969,331.1323271969746 128.8976043678516,331.07424635539905 129.412072407678,331.7074208623849 128.37434462938455,332.74497396506086 128.67291642150985,333.63022044341676 132.02474843901032,335.54402342229326 131.81820291874934,333.9525679226609 133.80047761992375,332.4319442382728 134.35392792522745,329.85370783167195 135.58630845952084,328.4850764157229 136.52147204804893,328.4050495082204 137.73438379839743,329.18921408018946 139.44059505180581,329.54076406603394 140.5512247890274,330.5768844006683 142.2097105497268,335.39996285137283 140.46332076984427,336.4168543565599 140.19915138688245,340.1834955667139 141.03304188800107,341.99768454991437 143.24425437427226,343.23460641827535 144.48819302898744,343.49265171646186 146.20653263460213,345.0325093306082 147.67034014119477,349.2231238163731 148.37016204722585,350.0868670280331 149.08171381823217,352.2113532217868 147.48899454016652,353.2431986305642 146.19467058731436,354.53383609445467 144.22091790871892,354.91709898410465 143.5413644234848,353.75063363863336 141.15425388910387,351.5844277999889 139.9077392593883,348.8267872603159 137.58191770293706,345.7237382041592 136.62570257906734,344.9178835421038 135.35974898756925,343.09674619952847 132.94477188932672,344.4379607673435 131.99041281831143,346.49818003860673 131.537807684216,346.7002177692579 130.75342662961683,340.975000204355 129.60096109125465,338.5555180910523 126.80337815760588,334.9636579629215 125.62974567506501,331.35654400360124 125.19562495881416,326.0361061886766 124.6190602526822,323.897870963371 123.49823657248925,321.321001215492 121.29883795387352,319.558248480123 119.16150747408297,318.9255632745876 116.62353533842736,319.2428320853892 111.40422738879118,319.04278408650356 109.55517727718599,319.5613114862124 105.62007779758612,321.5772847088355 105.6407297759223,324.27703990176 106.21643067197043,326.2931158807137 105.76437476052894,327.0131457793725 103.71943640093997,326.9195028028456 102.68125109658541,327.83358984252544 101.04724991276649,330.50513213352974 100.92411384135762,331.880093763694 103.34940745757966,333.6012852624143 104.05864578864121,333.6448043843327 106.19652736638703,335.62497173326153 108.00550093220329,337.86419431212244 108.19080418020029,340.0103475982612 108.86926808516901,341.0185764031844 110.40117493136995,341.990825124445 110.55540410131697,342.84035896912764 109.2498468557354,343.8560210245746 106.57724783929557,343.19364716925975 106.54633204475999,344.2813287826859 107.43063497458675,347.39988319306025 107.8321938757288,350.82162531045424 109.868093365096,353.6957330631778 110.0124340628432,355.4101842459044 109.50864270886895,356.2173059301217 107.4315079472962,356.98823316816225 107.27752278040397,358.8035984200263 106.33186886922833,361.89463196159153 106.22894015544024,363.970127714869 105.21107230403716,367.6019017884552 105.37576357426643,368.2286878591038 107.04169221792476,369.1221697504222 108.52282620385854,369.1793777278294 108.47181950584843,370.03712760657305 109.99444575946502,372.87644664121297 109.25372607534926,373.81315255021303 106.71331125243118,375.93242161348815 104.49159599316233,378.60664460740685 103.38020526606451,379.5437782645034 104.0285507910765,380.51673066622516 104.26540122352459,382.9168637715691 105.38658157506808,384.4162049363785 106.20966941979577,383.26294588024587 108.69977095790026,384.4374386559409 109.50221496586045,386.3187324465313 110.6756253240526,387.7319099789365 110.55304907103766,394.6383878633762 110.11111468527962,396.8593542694226 110.27564294452674,398.20047156496884 112.27315965199088,401.49537157715974 113.95104098575852,403.1034646566114 114.4354723227896,405.4829902587 114.00379964166638,408.2595899443853 113.40676897159506,408.7502955423218 111.31722778658704,408.88025818379924 109.96875190408953,409.76073678999074 112.05876140481641,411.89524930248234 111.69863631650604,412.4939364135887 109.19732264562019,414.36955576290416 105.94418385922361,415.35100327261125 104.19407555037297,416.9093302796375 103.38040433828077,416.8007809328943 101.39377775739368,413.8721712634105 100.94098586615307,410.79967686350625 101.43507162111109,408.325839896971 101.27031515264024,407.1357597949394 100.21034909146393,405.8375831812496 101.0439670178499,405.16680180429574 102.88640631994598,404.5538865813847 103.68936432528248,403.68129855096186 104.19374099269773,402.02266025284035 104.28633168942191,399.10225934826207 103.89514091973884,397.6459075593409 103.01012849620066,396.23256812276225 102.0220152230601,395.5550710817125 100.83854253971306,395.7060929167323 99.77868840408384,396.6072939768729 98.55394789463847,398.3451967807727 95.75432263256677,400.3491307322073 93.94227887177732,402.3607810181185 92.53177301487753,404.41597915783643 90.74080337992264,404.95630264314167 89.94883951784247,403.0808499816824 88.82728373334585,401.5304562792307 85.71988777651681,399.6618578175659 84.47475575957633,398.39193458102847 83.88911519029921,396.2143288966442 83.69509721462059,392.95535848113366 82.8516137545524,392.0967549669842 80.41297197343619,391.6342630368428 78.19171655497856,389.2109944585033 76.54531267723188,389.05135413259023 73.51911285447525,390.78705898435544 68.5683526056833,392.8458673097934 66.96271223448883,392.97422699784113 66.06683020465134,394.12725789626217 66.90934745518913,395.90176271086557 67.04131224231317,398.2236440756188 65.06604884602685,397.4217160886579 62.61694513702585,396.80672533773725 59.15137159340907,394.30160305198115 57.78388995802137,392.9950156505032 56.15075932316156,389.95830729696263 53.72282163215963,389.63885961175504 49.90407681429387,390.45662125075205 48.15331071188846,391.7809208462821 48.018694454783365,392.5524747254025 48.82021440059189,393.6420889567657 51.05132626018661,395.4686316570401 51.30710791672752,396.5576001438991 50.709606052383975,397.41519446486427 49.279228460660505,397.355727046862 47.36753141602365,395.1833104427214 46.36956085982726,395.02338090390265 45.14341696365895,395.98102981875473 45.142218247903976,396.9616675936465 45.98429157404065,398.4984260947008 47.73156059742398,400.4330980245928 47.565609489307235,401.8098933237687 43.63285978857391,402.3965808692059 40.67792696450471,403.2146766303849 37.21916303366096,403.53465971478977 36.272698221938775,403.32440627649896 35.0910724337031,401.90220965548593 34.062513942748,401.3666213868697 30.696675143604995,401.5710452755 29.627880066491215,400.5237278691251 26.117927808671368,400.6769070959739 22.867670641513136,399.4814379693809 21.457083439098877,399.83953800773804 19.386053171693426,401.19192645690816 18.563328509449306,400.7792639882743 16.018300617023684,396.93146596438703 13.74618281775464,395.50671523544014 9.023335685712988,395.22361457349814 7.652702109614556,396.15082290601833 7.855112953961048,397.8600588682079 8.582841629013123,399.3757503596718 9.305627180192888,403.4154842739775 8.096723446712872,405.7568884072563 6.654448139577141,406.28757073847726 3.0102991872105678,406.40292526833963 0.5890369595597376,407.61651797977095 0.0,408.51702256412534 0.1709493142655894,410.52220263170886 1.1973793552467549,411.96695674137334 2.030835174871282,412.08395704734795 4.210610788869646,413.3508322666788 4.826780790044356,414.1166514424843 5.937117630771056,419.9623085561832 9.615507894813069,423.8579230080899 16.640365114854703,433.82861401761664 20.578883602139577,437.4145274613171 23.988388694564406,437.232899669677 26.935216781086485,436.6964433409357 29.40694087311333,436.73618260487933 31.156949130323984,437.3523306880878 36.9377347275713,443.0550158325076 38.642149958409284,447.2148987682237 41.747570894812796,451.60748550343914 45.53416279633933,455.87164677862006 47.03464121715687,459.20908323303894 47.11571598263726,460.22717992535235 48.64840816972539,462.7847114806669 48.95407961710447,465.69465470917174 48.828304938162674,467.75969776566865 47.23903321916395,469.267449338646 47.40151679992802,471.4342136547014 48.039359984092144,472.5036469300778 48.7302114682155,472.4102185338084 50.109822350043075,473.70475053795525 49.48850424375222,476.1814537576645 50.35270758331545,477.72067630916166 50.43255415256555,480.34256257488653 50.904872894492314,482.0114042589504 52.80876313832042,485.10532207523033 54.30107198408523,487.9893052291521 55.59618139588977,492.07947442544105 56.43021546089717,493.1715127629787 59.491064363378264,495.34915518286346 61.40883882539089,495.8276019505688 62.39751653049699,497.09991641034645 62.694705338537865,499.39064194888516 63.281468673322046,500.59807451709736 64.42576889510907,501.35072728824 65.73582074442926,501.3517696855734 72.18277141639494,499.9108147732087 74.09075959611468,499.70257666708915 77.68127759534501,497.35628778977207 78.58887397156963,497.0822948339216 80.62023053362736,497.7914819126871 82.29015719934556,499.8804436101215 84.70329705234654,500.2787973508588 85.82699356130873,500.7774569303148 87.86860259711821,503.12699556967084 89.24025232509337,503.84993731914574 92.79845158558398,505.1443139432077 93.7987581768443,505.9612626498601 95.38663214942878,508.79479815854506 95.20063133161267,510.3698766703684 93.95241746605119,511.01331789958437 90.26933265097534,511.3663060918373 88.71106283915981,514.2282974752675 86.39820756500615,519.366609139126 84.44697406545379,522.9805356564043 81.18357040422954,528.1125702074036 78.4164620820676,531.5963107015682 77.5481813239837,534.1699838874771 77.51606174929717,536.0425711533283 78.19591759763304,538.5161789197587 79.61911517673698,541.3736775546075 80.25591998245226,548.1003886587104 82.04144544712995,548.5134132389121 85.53143428420857,548.261351078381 88.13321475326975,547.7634899867923 90.28084318537698,546.8813247237682 92.7789894424993,546.5926156178197 98.66320055721536,548.1850003858791 101.4406635454213,547.215852503117 103.3298021175728,546.9700937986808 104.76475096507522,547.4616420569205 106.46814440970991,549.3858673558209 108.6156146640826,549.4363635111913 113.73648277106467,549.0663109137918 116.64773219181006,549.2319977893932 120.39511308585226,548.210776148361 122.40860245583916,548.7963158081502 123.59708785951132,551.6382564529363 123.8360035666661,555.6025014277541 123.47561355263556,557.7947706453577 119.56329089042359,560.6463746844277 118.84042971242896,561.5365699993549 118.96491106712001,562.6656123316891 119.85338215278982,563.7867132111534 123.95464241883465,567.2942260407718 126.26871379271691,568.2338126273381 127.34357527496782,569.6373376966831 127.3974734206101,573.8776338693867 127.60476064555442,575.209381430137 128.83520650152047,577.6112957836801 129.88914098018367,577.9512365143428 130.37556271832182,580.1077324332496 128.93029102421653,581.4910728443181 126.08999994614948,583.4321684512927 124.31391558989219,585.351131869656 121.5774766387165,589.1527086488843 120.92706310515666,591.2236898701059 120.7423962461962,593.8300981108503 120.74382626679655,597.7396041753785 120.269599782406,602.0046396335362 120.95277514693794,604.973254337904 123.14614364873594,609.1148688392341 125.18314886393375,611.3157882629338 126.68283227977786,612.3217657554893 131.8422265959682,614.0210173808898 133.50622992369588,613.4695462331422 134.67357084761807,612.0995797236383 136.16193852322485,611.6423478902826 137.73399023403368,612.8291975853311 139.24512231048467,615.2254990601266 142.4412495541837,617.2947457213061 143.5402979504562,620.5458515116087 141.97059690472665,623.3147548840802 142.07485279542033,624.0899096532199 143.5330231827374,624.44355931854 145.78685577142693,624.2388493819532 146.76944848881885,624.5492953678182 148.97362261302948,626.1627594941008 150.9380939699555,625.9288966248508 151.76344685027527,623.9648842540937 151.77196928758795,622.4000594750212 153.34037823716343,618.957492911622 154.08346576114832,617.8778286231458 157.86374013610265,614.3461851328359 159.2579744300748,613.4822921916593 162.04963272405348,613.768781939562 163.85102791907784,615.5699841406273 166.81815698366054,615.6316996758861 168.35652392313992,614.3039483284191 172.25119194818018,612.1765895479014 174.29259037049022,608.6030934727625 176.16110210887186,607.0067968814844 177.16404585049852,606.9474050645256 178.60249694197057,608.0460837855389 180.09602783652807,611.1580148767531 180.60305760245495,611.6928076587243 182.21522023490206,611.2339533114714 183.3387373904084,609.4506725409569 184.69392983598962,609.9916849161183 186.59833680156655,611.2921072918436 189.0213862455414,613.6125628391292 190.7689145445755,613.7251422115885 191.97718982950474,613.0495843037265 194.33613551582408,608.6850617653914 195.27023874371852,605.2146438293963 196.22820605407478,603.4892335041184 198.5598890146817,601.3048620048444 199.18967696811788,601.0573127792954 202.7346545952004,600.9994210183239 206.818394338705,601.6569874679433 209.55069006860316,603.2588796678374 217.13241986894886,605.68199039345 218.96384141158885,606.452361786817 222.51756211940176,609.7679471726799 224.1837361493753,614.5658336125991 223.53422217481508,619.4201863127968 222.16588878471774,622.2055619804848 218.55214250235542,624.4525181804246 218.62016123121205,627.0028826023523 220.321444332752,629.1796078272755 220.48977476022867,630.3164637208494 219.842517891858,632.1731913724345 220.29331005606653,634.5992176899547 223.34794887332765,640.1935371229669 224.41624694490153,641.4151778007821 226.36187951979045,641.7799555413486 227.75742607692766,641.4143579160909 231.08829099751486,641.332942511842 234.9789730404006,641.8007395920145 237.89163770576104,644.075426797769 240.64403963402316,644.278127848695 241.47329030727818,644.8338968766983 241.65233812554519,645.9931785392185 240.67571876912652,648.1557944204438 241.188471454029,650.1692493595419 242.66350437989814,652.1799316523453 243.62759628284607,652.8151546510926 245.75636930790273,655.4767030266694 251.25752612021824,657.6783728822029 254.26402390080995,659.4740519994511 256.83321667737215,660.4956930847674 261.9856359561864,660.1528799136245 264.0093033653031,658.6888981962346 266.442091737043,655.9622670791217 268.45381357485957,654.179125469086 272.9509105734019,653.1199835049146 275.08328937061555,653.3659168090335 278.08854934748916,651.8476536267913 279.38211342560277,651.9730189483593 281.2086433314254,650.6616134036105 282.8350459275092,648.3723435196669 283.71531722468995,648.6737370650023 285.3242688803777,650.0809749573416 286.36050678173535,650.4831200173371 288.65668064116346,650.2567422890792 290.8407108431322,650.5744943483816 292.4260800192954,651.1628125420962 293.30060422150984,652.5439822263222 292.40423579251416,656.1359852764784 292.40250836409706,658.3905718236015 292.84825332506824,661.2307318196946 294.3773784829003,665.8434474220569 293.708337153407,669.3915469036785 293.64184599555927,673.4964280547363 295.82106383418494,677.5273961515012 299.0880656058969,678.9864490276454 305.64618728195603,680.2723972342184 308.6915600315815,680.6728061945564 319.4721912970432,681.4456930529543 323.80439696711636,682.4630809589105 328.3723990448196,682.899340823814 331.3020896974893,682.8349479204612 338.98541994490364,678.8594167636378 347.1599766390587,673.9451430822646 350.8282870882386,672.7154986525476 353.6662021487807,671.0039256175277 355.2297647305585,669.1467483027427 360.914703047655,665.7085113681478 363.16593676015236,664.804965039001 365.4244511650053,663.3134189862351 369.5147209937205,658.0853912101431 372.1468035457711,654.9533470219272 374.420601992509,652.6353057917835 375.51303111701685,650.0703438680854 377.6865851206287,646.5713498884029 379.340866227746,646.359146485412 384.0136722177293,649.3549995203841 387.62917237573106,651.8635133781762 393.3065334841047,658.2747658059895 400.2484203502322,657.9279568908693 404.83412972335026,656.5005876974318 408.6872540488956,653.7864581539025 410.6190216957986,654.8982326263665 411.8757461404184,657.2970030117298 413.31539606548176,657.4982607523995 414.25307313821344,656.8613585051595 415.2140763428903,653.440616730959 417.80635073597887,654.264661332083 418.8485571277759,653.7724176499594 420.19587998120284,654.1113095496776 422.36364062267995,651.7844879136501 423.83466417992685,652.0287501586538 426.98543610032135,649.6880154452583 428.59516876348664,649.06782790607 430.544883685101,649.7362523778802 430.4320199561965,651.4335546518382 431.77240245440805,653.722192326505 431.9121329060446,656.0486688518495 430.3752494867295,656.7478411111537 429.97619943912093,657.4607988348486 430.40457574588896,659.5897090036303 431.6363391329047,661.1258092817518 433.3897968820268,660.2653533236271 434.09711424546634,660.8043556648016 434.0455582791693,662.3276472834744 432.1029715011335,664.3421105469264 431.7486372130193,665.4972163644968 431.9265843173562,668.8537364948455 431.0192188892624,669.360192427782 429.77926476733296,668.1354768836201 429.12024072257685,668.6407336343443 429.2641661586207,670.0392846188548 430.6575545230804,671.0013024293085 434.57909644295444,670.7354855641971 436.1815036048251,671.9647606860012 436.63603483726575,673.3032921379815 436.04988639123513,673.8583248197561 433.33341564931453,673.2680482982289 432.38224300006016,673.4194409210809 432.06754135891777,674.3351327764404 432.73362949118206,676.4122192098467 432.9124955185046,678.3405259500321 432.43064441297844,679.0545709997591 430.19720569661746,679.4542657415348 429.156113570914,680.1141817446246 427.29493898942286,683.5939537880096 427.0561595830851,685.0391002871222 427.4050811792027,686.1249359164134 428.2358257247626,686.4675877032544 432.37975084968116,685.2859152232872 432.1320340929378,686.8837500260785 430.58654962322544,688.0187358171996 430.4393553705169,689.2748354673128 434.2269746962005,688.886065859512 434.53301196868944,689.7181545906662 433.7752945797696,691.007621315994 434.29629526671346,691.439335573298 435.86272496822954,690.3404474280842 437.0383357301436,691.1230225110454 435.27822122353075,692.709750561855 435.127996236826,693.4435648147262 437.2136510795215,694.0386255107566 439.2977641790121,692.9432298520969 440.51903275444926,692.811341791084 441.8253165987242,694.4639455331071 443.57690405620855,694.6908310882129 442.85143099548344,696.1036271226621 443.7691822690551,698.4624986493138 443.50451536980717,700.6125350047873 444.2344226735468,701.3258619792463 445.7873826163731,701.1694959560705 447.2925218379455,701.652497055572 447.87672458614446,700.7921516070578 447.0379298552623,699.3683676875241 447.28603421232486,697.8211453660914 448.1488231269588,696.8062176370834 449.4749763943367,696.8766576247369 450.80733927031565,699.2257875270759 451.1192354831904,700.8268847787755 452.5258497509643,703.443768969695 453.732708225943,704.1463542588888 454.716662982283,705.5909968798252 455.1206166054295,707.0029568780718 454.9404871901995,710.7419536414579 459.6064341089496,708.4870373300475 460.26690013983927,709.5201811485894 461.5588180917781,709.1332609138892 464.0323025396939,711.5755182492089 466.874578752641,712.0551447486191 468.56417817061265,713.5305900528361 470.004551859253,717.7080896303034 471.45913985528847,719.6061472556586 473.3358275249038,719.7081380513614 473.96740763449554,718.2807484045998 474.8229077615603,717.7150162702884 476.6760130657963,717.504683171169 478.6163367655468,719.1883316709765 479.8558886652646,718.670751322013 479.4013313211221,716.1696462822769 481.03521503095305,715.7867308189116 482.0654661947091,716.3742703136318 482.1937540538124,719.5093050634094 483.736608552683,719.4030277459427 483.59570430146397,717.254890130624 484.12783939346974,716.4308663163706 485.4656780063187,716.5652838217164 487.26948691904846,715.3604509516967 489.0102952636875,715.3758512817426 490.76713098963404,716.1315469832482 492.1871218571211,716.1924075270141 494.1580236652163,713.8465676422582 495.63575841568434,710.8225165997869 497.70564305389286,707.9820574115322 499.5340084182091,706.0877783727508 503.32305996828984,703.2478496674697 504.38688559604196,702.8908439877025 507.47415061516546,702.9451230335334 508.72214449284365,703.5220941541451 510.3200575036373,705.0619226438232 512.0931545299258,705.2938574766598 513.8687974262757,704.5240361736506 515.6450022599117,702.6874341320295 516.6277978283357,700.1098548999959 518.7917317804507,696.3253625565998 518.5564314345003,691.8577269800713 517.0115152524677,686.7703645431196 516.0666241329085,685.291265197306 514.8813100326564,684.6991083173796 512.8610514011336,684.585633668814 511.2061708746838,683.5769167795497 511.14634881243296,682.6341246038022 512.3892139117221,678.9605639552794 512.4463231487564,675.9350754665951 511.6608246321912,674.8611613863244 509.82618536318824,673.3459125622046 507.78963732773013,671.2233915647587 506.85478284551624,669.6139653717419 506.80367245867154,668.4396228811561 508.28083097074534,668.086738351446 510.16910897549076,668.5855715896407 512.3425094889892,668.5380669775227 514.4273110669935,666.5989797457948 514.2362233677828,664.8020797645243 515.4144427563822,659.7667385549152 515.4831486302767,656.89475592764 516.7838127921674,655.2740924649604 515.5055304870895,653.4362870696949 515.3595145317656,652.081975754729 517.3783536959842,651.0061951274691 517.70727995548,649.5459078243142 517.0797210040386,648.7175660796801 514.9001712510607,647.938817234733 514.4177834584358,647.2254553893385 516.1140926277625,641.0784576830872 517.4679455141836,637.3125690570977 518.0930131082307,634.1838224405033 518.0974066334941,632.2920346699015 517.4980657301869,628.7390089436203 518.6929796455858,625.8014881785837 519.222489517664,621.2467748896325 518.8068695140149,618.5765959199393 520.1684542372666,616.978306282083 521.0009112374595,614.0228391163776 521.9649942782012,611.9281048067339 522.8040417071094,610.9139835335012 524.30992882589,610.4952546679957 528.4659413300624,610.4659427981749 530.1962567543593,608.5240449124849 531.291734653932,608.4779676657541 533.45376808882,609.769753759258 535.7047981003086,609.4669182389454 537.9663967221018,606.8823641187082 539.8981479181948,605.5687088103546 542.7497439361331,605.3835129482588 545.7113453213449,607.0438718021991 547.2875576836706,608.6666492270151 550.255433301372,610.9642823223458 551.0646818236323,612.3835636087881 552.7191345828235,613.5056078717666 554.8907593076498,613.5288464570565 556.2885384443487,612.6031161825757 557.4135282983361,609.1079884518679 558.6303192187422,608.7487701717379 562.1604748380814,609.2586623877432 564.1239671939971,611.3191934998121 566.5508166857169,613.1432022447083 568.038346769764,615.1282610873295 569.335982737175,615.673452087443 570.0137839829972,615.1962439401844 572.0104208206975,612.0687196097548 571.6703604439173,611.1450570991781 573.1546772548683,610.6666153178563 574.2390770725758,608.4031371147933 573.2463717627061,607.3265826472613 573.1105454816396,606.139746504522 574.3792894116751,604.7804342772586 574.7769069334258,602.1180297517168 575.5478786412197,601.6761829734365 576.9770967716929,601.9228292219805 579.8246811705478,601.3585312821558 581.4260145157608,602.3131720854831 582.8633762866777,602.3137362970899 584.5291728679705,601.44952680032 587.3622685295155,600.4577954572968 589.5243916058733,598.5892202005778 590.7592807537148,598.0261791558007 594.2771366321709,598.3525299135694 597.0472515453168,599.3024125638975 602.4446461210857,598.4426994950564 602.7560463032986,598.5844097076143 605.4997444837178,596.0135521440573 606.2552982166342,594.1301612347874 608.1074041932254,592.3438446274113 610.0065539269991,591.0783293865595 612.7230015272071,589.9490311423576 617.2945860241558,590.2553505213314 621.7189254228254,592.2063462076055 623.9228539272519,594.355145642644 625.9128533160307,594.8549654019256 626.2093749353475,590.752915488122 626.2708557573807,586.8782510937549 626.547610270567,583.8340179845592 626.0212841315235,580.0676564873002 625.2362105069326,577.2382846669711 625.7778424815776,571.96222956059 627.4534450364895,570.2287420244745 629.4997450947261,566.5003382839623 630.1197962030673,564.6333495891819 631.3206966746911,563.0134911487157 632.843266169885,562.4466585350024 635.1887010007309,563.419473297901 640.7864959365885,566.0931841270333 643.840883650426,565.7838774326049 646.4899787660897,562.497075829204 647.6288540863892,561.8040123240635 648.4091314517653,560.4778444872208 651.127835788474,558.8473748697303 654.4320841026162,557.84000573442 659.2677602072974,557.0820518066577 661.3886806108943,556.5222126666544 664.4868099612911,554.6842315228294 667.8675743415793,556.7215019010655 670.6626742425254,558.9898071391524 672.8550391590484,561.8295420542136 677.3157497459182,563.4123682572138 681.6776588569595,563.5772130021331 684.4874642396695,564.4334886067064 692.8858365231508,571.1064723746036 695.0118596202451,570.8995399188943 698.4560964617332,569.5319562603619 699.7551457720339,569.3058491982792 701.9799422530832,569.5680894781775 706.6788627671721,571.0367088120776 710.6385207106251,573.6723202504472 712.6331360623176,574.5162902165953 717.5588029122982,575.8724203430432 720.1371656630721,576.2594217347385 723.1850077371043,577.0095396772579 727.447698625425,576.6066074551518 732.6795991483594,572.1005852344895 734.4703561917031,569.188206540914 735.9058481644679,567.5696778940458 738.2785805709615,565.7287136458776 747.1532254373992,561.057446528016 752.8104808300284,559.9752591583309 755.4390660499722,556.5015562792044 756.8734842285324,554.8828689829611 758.5502228801256,552.0954993893658 761.5894650416612,549.2678730992934 764.2576571782834,547.2626752660173 766.1457089735817,546.3612157629874 770.3567421259878,546.8960216440281 773.1571880330571,547.7687909420016 775.2788535996812,547.3339404469417 777.0546701900312,546.5422091674016 781.6510628182012,545.0954020280726 786.8147517818032,545.0651338293092 790.0909053439204,545.9373178416333 792.9893448490999,548.5661019257602 796.7543348722633,550.3354591635466 801.3777672086208,553.619601647328 803.4804319427495,554.7031344153157 804.9821503673847,557.077031918365 806.920960063836,561.0949782284342 810.9638646897419,566.1970995511484 814.3314182308355,569.6440705055552 818.1449602443334,574.5108457232116 819.8902661677424,575.8244300778169 821.2997779194727,576.0718297448822 822.8450009309483,575.7372762236112 825.1131041464333,573.2992231398616 828.1862945912143,572.8692961845843 829.7166349882676,573.5920589561731 831.3415716894606,575.1386079149283 835.2003795673111,577.4118817853096 837.7901722982319,577.7919491463297 843.8959258398711,579.6249810683781 847.0227890391501,583.2989390355324 849.8146747952673,586.0368596628281 853.3235835749481,588.3075381808894 855.0804964332663,588.9174061024628 856.1435673858823,588.8137032978572 856.8698730154077,587.6435568659014 859.8555642336662,576.993964822087 859.4297569448058,572.9167217393125 858.9912218490273,570.6787807964201 857.4951032222523,568.8631747123238 853.849739432413,561.072566375824 852.0036008902682,557.9959157501609 850.7249622721519,556.8068460285621 849.8168092274101,554.2149907967457 850.695435179955,550.9370471917931 852.1415855689602,548.9534778409317 855.2276413571423,547.4646694090919 859.5970222953429,546.8099387434245 866.3063084757853,547.1304550671491 867.2661434662864,546.44253890203 868.8537404146851,542.3501127458169 868.3212717769538,538.1178160149839 868.9647900214802,535.0757663856241 869.8888280408243,528.2750843347977 870.0416069801419,525.5738431574814 871.0318827534438,522.3028210776422 871.0733407573115,519.720156119076 868.2627309089203,518.2748595253354 866.6310837695822,516.9627756825384 864.646075853226,516.1122083012011 863.0109296096036,514.5685074364696 861.877484583359,512.0915972925072 861.017556297651,506.67435683171266 861.8586158354944,505.0411388103013 862.7478455388816,500.59461177735636 861.6828959822449,493.30253383097465 860.8854205015061,491.17530595867834 860.5613483742518,488.9468142171944 860.9857027387466,484.4876762588733 860.882556603274,476.69105054305476 861.3612133128455,473.7064556565308 862.0991209027246,472.7623329895947 866.1541986851555,469.6484171392301 868.5406590821859,467.326830427548 869.8914447352063,463.46844582575704 869.9390790486675,460.65765524446255 867.9158117620067,453.46606461257596 867.719819218218,450.883575922174 869.5233392329477,448.91190852672605 871.5283228690653,448.5834908868177 877.7375767199316,450.0787923503665 883.3751293432236,454.3860927383873 884.5759875291639,454.69840048024395 886.6422486167976,452.4399687501171 887.3878992512463,449.51667865223396 888.7078863988532,447.66029396463773 890.5011402999613,446.3954653174286 892.7290339182765,445.84574093652117 897.0701502783409,445.9108733634264 901.323354359887,445.0379774579171 903.334582764481,443.8996302791337 905.5067570648969,440.0569272190143 907.0294227526146,436.2112419224441 908.241110630958,434.7464726728239 909.1539567514362,431.43103216255747 910.7311218998127,427.81583813384674 914.1279308767232,420.9428164478639 915.6762813067742,419.32143777356333 917.3318971703027,418.527656284755 920.1620623764846,417.75001201693635 923.4348107339273,418.7403705620616 925.1763583682355,419.93736735439046 927.8509665040658,422.6777354488574 930.2012103999197,422.12455038976947 931.6442743270262,420.9660876539664 933.3162598909202,418.76400170866725 934.6498301551253,416.084100206718 935.393900405879,413.2776795870919 936.9496373737352,411.53244753397263 939.3281071794789,409.68608896998614 942.4535044601678,405.8563500389398 943.1765009576636,404.2198689796385 944.7424080968881,401.89723147240016 947.729404136654,399.58564028774526 951.9590638170545,399.9861757303499 954.4137478485312,401.3061575680379 955.9163420172817,403.5526043599675 956.8564802224992,404.26430848115683 959.4407482509583,405.351151047916 961.6724302038256,405.72946528256904 962.9846297529298,404.80341576047465 966.2256265111942,401.19378316762914 967.1950608688287,399.567253900445 968.05031423903,397.343288247554 967.7220218378756,395.6968234312806 965.8957170090836,391.56693190700474 964.3809367965982,389.79035224771474 963.2361291230661,387.43058784798086 962.5712560010293,384.83819082576383 960.4058760353096,379.53937993809734 959.8821554402073,375.06958529887464 960.4849668386706,373.66652756164547 962.2995075310582,370.98716890591476 963.6087176537369,370.53043025420794 967.1499487540525,369.9827661301518 968.2144968312504,370.2302861780078 971.6666847154569,368.739051462449 974.0743365404902,364.7719187253928 975.6702272791246,360.9133758726843 975.8475203356636,356.5695740356985 976.7871551602097,347.82194406320946 977.6516263583129,346.72427883351014 979.7505190068407,348.3937557255947 980.228984349492,347.57067132174456 980.5140491363186,344.63852658240995 981.4973340861333,342.1842858406428 982.3398609128627,341.02236358422766 984.4887164841352,342.0706844624217 987.3176833601327,342.6163297973062 990.0080382430946,341.80139586439276 991.1023098436394,340.3537746604851 991.631594136275,337.85759264233826 990.1104044202979,334.642604436886 988.0000785716485,333.44984065820364 983.5367916100708,331.2919861022842 977.8844076125251,330.4173272599045 974.9342794022538,330.500590566224 972.5899082933166,329.41961371091884 972.4717639813412,321.3232703164428 971.9901605797655,319.1923476524429 972.0462407830498,314.41520150957973 972.3518830651873,307.00480704305056 971.4224498732749,300.65530454490556 971.1581632472079,292.451425779581 973.0962983758886,288.8877147132171 977.9770317951428,284.4412189541969 980.4142790723996,281.8117252368005 985.4762775172468,273.9646450085151 989.6319617100756,268.8267888306279 993.2021762361659,263.7072799074455 996.5226471857808,258.47740692767985 995.956186336586,252.97698290528865 992.5908584001139,249.88226181034196 989.4675131766053,246.5101434847798 986.7822398186847,244.03607494896926 985.356368012805,241.3583325889187 985.5387781477655,229.79044515960453 986.559449635543,224.58696424774206 988.0897229937668,219.7550562783989 989.7514888831773,215.94903304897184 989.8797021912894,211.88505219346632 989.3815776554897,202.91048329858188 989.2849611478347,197.28525519318998 988.2619051047839,193.07909289392364 986.0437479440702,187.4955456017076 984.4206230493852,182.98551484683003 984.2763160973833,181.31462451124492 985.3972449948291,178.24035597980867 987.1475370999188,177.02914095268136 990.9136908549717,176.13159260765292 996.1032512844589,176.25548803470815 997.6314097128981,175.75938227511926 1002.7836553777292,173.4265632927047 1006.3692887675445,169.5938261219851 1011.8666077481558,160.8116324493974 1013.0561057806308,156.6451823333107 1012.5201116207874,152.28332841415818 1007.6057517104442,147.74126312577448 1002.1404927998684,144.33678223638742 1000.7006696526844,141.39284271179122 999.6159919863113,136.12419613462475 999.0937858488154,132.43125922073557 1002.8895244609068,129.5732902877105 1008.5351658488577,128.1149095918746 1019.7610117302825,130.26308859279436 1020.5657311021356,130.04633155452245 1023.1471485074998,126.44286670511133 1024.0,124.51035142869353 1022.2347042720357,122.24171898318275 1020.9819416659052,116.36893098709004 1019.0924595340314,112.9844421272436 1014.7704821092904,112.90446199575945 1010.1292041564406,113.77018151524305 1007.7657589851681,115.42336203025775 1006.5145562095686,115.31857075192204 997.7043559436179,110.25944596643399 996.3385423252719,107.3739587110507 993.8383361804084,103.51298411143819 992.3648615892782,102.47277083888423 990.6802545673831,102.13912803600545 987.5147239479887,102.00585675625086 985.4772174375615,100.344845075948 983.8813051828132,99.84478106323252 982.9176829847377,100.30069427497654 982.0106794584333,102.11759972662185 979.1038422412437,103.75755502248819 977.4548698928843,104.22627592124968 972.2398818184669,104.51075122952807 969.9329303898113,107.5731780385388 967.2266496416048,113.41876177121526 967.7169500751445,116.09992135038328 968.0542180818126,119.92409283537518 968.7272984383453,121.4181177504014 968.8422944550613,124.30046944409742 967.2407157240034,127.38641979518559 962.5457933119507,128.7724488637466 959.3391102024599,128.142392907366 955.0803783455013,120.95290572627744 952.3382272356203,119.36744206745675 949.7408522156096,119.53679639082634 940.775143491297,119.12538347082489 938.9981172345093,118.80586955255137 933.935896832565,118.55232395495705 929.8304793006442,119.68008948163822 924.063311909318,125.88762526412972 920.8940685841412,126.73975497187325 919.4233113354491,125.78999386592807 918.9921757021137,124.56319219607974 919.4585279402336,117.86920289898933 918.36716028876,115.77983860057304 915.8804249057471,115.22800748845077 911.6724030913298,116.35595840885003 907.7256403756758,118.99926229592302 900.887746510248,123.80142379583208 894.3403472316933,125.90087576491294 887.2329388292137,128.83323445088695 882.5938268469571,131.84560588439888 878.9557614675678,134.73370638741824 877.0580104337494,137.01103774883916 875.3232649355363,136.14987791293072 874.9142249271097,137.41965432846723 873.2988399939564,140.03695176301733 873.760719943922,141.34967554739114 871.7581236731538,143.4998877017315 869.5479219863694,144.25364185431488 865.7892000072412,144.26516439346085 861.9635393248625,142.67737684570307 860.3232348244547,141.30483971372507 857.3708352859953,139.87463213649687 857.7313495320319,137.486325037872 856.9703712240196,137.27629816212948 855.9338236271606,137.77367226408285 853.9994181518047,137.82644990715892 852.6050772248428,136.47121017730433 849.4269577918727,136.87428801733745 848.1079933723084,139.5642669303819 846.769532037213,139.76499893119467 842.6362804013494,139.3574586150736 839.0597252793468,137.26896875370096 835.8830062733219,137.13261694357243 833.3984636615238,135.40666085134046 833.4889854807432,133.99885730891037 832.8817439050505,133.1543124945133 829.5446252224452,131.8867620628015 821.0663938129342,132.52050933969508 818.3435232605475,131.89540315856652 815.5054985054079,129.11242064722603 811.7227450533518,126.10699388893102 807.2381389014379,124.71909936707107 803.6437659316292,122.58577223328996 799.9051327107712,124.4924969544694 796.9722643906142,123.46049240616026 793.7295758070373,125.67488680102144 790.4399296277569,124.73384363866569 788.5623869562075,125.14888280813159 788.7872281884158,122.35547725321373 786.5208574924189,120.6818174481757 785.5884744508006,119.23285386942405 782.7858248426141,117.93269353671383 781.7055502875975,116.85110473479403 780.1917805211722,117.63346953776181 776.3579495059103,115.10046996101607 774.5160167207528,114.40989497695136 773.1766548632576,115.2325426521785 772.9657615515234,116.91340459944934 774.3525758646443,118.67930516258662 773.8690116935694,120.65100321680859 771.7016318417894,124.36164798038305 768.6033344675038,128.1792568597558 766.3417597512157,126.80529467940346 764.4043391516891,125.19761764669897 763.5327168535977,125.07373702155633 761.2878879320173,126.30334372335983 759.88028786563,126.67469193368925 757.5748494321628,126.51355650968856 754.1796445592568,128.21852105110872 753.1643918824178,129.54523631433415 752.0314857225563,129.79774293729417 750.5919051827365,129.3516212960626 747.8953048180414,126.82095592021324 746.4449708085774,126.31031189058262 745.118825634457,126.63704768623825 743.2480561913887,131.29653896155617 741.7387784836649,132.4509928016813 737.8170135582741,133.17168254749686 736.5617766294039,134.22157031616916 733.5043141407303,137.5202297844279 731.9857154571253,138.78922231985416 731.4460391827857,141.2641912823808 732.4880973202563,143.36687305062583 733.5757148823395,144.29936969934943 734.3343302948696,145.85309721462704 733.7249957415823,146.2342990905779 731.2906634458916,145.7006239955358 730.0025223566032,145.08634270965695 727.3859110284884,143.1773951472536 724.9228566349203,142.00496798558447 722.1961477585971,141.00805039932231 719.315173757797,139.18825212589127 717.8501791296968,136.0222818921393 714.4977793080585,134.12237042014067 711.2038025164921,132.74552349416706 707.7040920727701,132.08062722403952 707.148803584423,135.05083546658977 706.4232404914762,135.9280428075897 705.3569700059853,135.81276687266984 702.8348128064098,134.73321066618564 697.7970398675077,133.8727343649207 694.270074985347,135.08669091514219 692.8560089536521,139.803659161224 690.5298654915831,142.9107679525796 689.6649545792153,143.32329098746914 686.6977927823339,143.51170685908528 685.075382894396,143.96232061288777 683.789308952051,145.93009577498947 682.3750689088489,147.49730049852258 681.3122376996229,149.3187857344683 680.532252413102,152.49268272597942 680.6794776616948,157.77274398315478 679.4719346170789,157.83789793686037 676.1779752459395,154.0248313812367 674.5178422804673,154.7700662453426 673.138436629225,154.18404315578778 671.6180374370472,152.9829484934387 667.8330336307091,150.8042833796759 667.3276756025765,149.65528064516843 665.0089128618802,148.43496276037956 663.2251217887319,145.72974551156165 660.3043505609558,143.81363828693952 658.1971676918027,143.121155375689 657.5644655242437,142.46123696651148 655.1820010712311,141.86564185043585 654.5464803658039,140.92603089820568 653.1771630238142,140.28963451260802 651.5752516895151,139.02434153805075 649.9101637649736,139.3307973353219 648.5453419400427,138.17787282591166 647.1391970004964,134.37811102000467 646.5499809299836,133.9188560994853 643.2262100712954,133.29780376233657 642.3743105855369,132.22429452908284 639.8429481318296,131.09181357679722 638.0972486089938,129.69916751422397 637.2084646995515,127.17737392840581 637.2115067035375,125.6641753832497 631.6969298522148,124.04194533408736 627.1181130199955,121.88502532888515 622.0617627921532,122.73061413436756 620.8537100642145,123.60464517993194 619.7076731813662,123.61022738973406 617.5149147826116,124.30865050471493 615.9079114582353,125.23716027750618 612.7647328532315,126.0390557174718 612.586273418608,124.7071604902111 613.4028905433146,124.50457783059426 613.8150345829672,122.89368937361405 614.6952558115559,122.90552133359745 615.453598107605,122.07247080868069 614.2878475265405,120.32169055505005 614.7575080078831,119.28385790034054 612.7945871567393,119.4488594892407 612.1191906734867,118.53117199517442 612.5920300315543,117.78068970853656 612.525391389789,115.42924560652182 613.325040985344,114.64648267608925 612.950736480858,114.07689150523163 611.538776538628,115.05332063108244 611.0614797330986,113.4880369746719 609.0984826302961,112.70679929782932 608.5242456648357,113.52289200461269 607.0870934110826,114.0261555555046 606.9626663688674,112.9308182848282 605.5791381191633,113.69110558240834 604.2070808307094,112.65944463408994 602.825435080847,112.5882793908811 599.9859893278817,114.99190437934044 601.089491157256,115.78274758452358 601.442322033413,117.19886101257225 603.1905181192444,118.00476200947128 604.8910407109264,117.24778893430255 605.2458226492655,117.86785123861637 606.829766444812,117.66425054227011 607.886620044218,118.86420451486867 607.0544358801341,121.39033916823712 607.7657103040452,121.85592041064831 606.5506427616704,123.0661817524308 605.4631134837485,122.812615927009 606.1064133324433,120.81257157075322 604.8822488336564,121.14134110998998 604.5890288645443,122.44198288649534 605.1747546642928,123.59739380934741 604.304504772087,124.5103584846753 602.6438588686253,125.20232877774492 603.1505918849441,126.65263120931763 606.8220473606523,125.45125502635608 607.1687895021602,124.40049865057154 608.99608733905,125.85074564358717 609.1667180838845,126.47278467019657 608.006196499649,127.9913596440731 607.5795561297646,129.25095279329867 605.9016941518439,130.25209424206946 600.9454767023786,127.16393991715188 599.453653644171,124.54807405472911 597.3643516213917,123.43729651913566 595.3058499548167,120.38323154594195 594.1959347624833,117.05373067466996 593.2854486966457,117.08486120088583 591.6819000006143,119.30995459208384 590.4727697709931,119.12903406935334 587.5953683967155,117.99075067723174 584.7128920014069,116.30683021387654 583.3306214315813,113.23859267828186 580.6437933453819,110.67804804171033 578.2134858033066,109.12585506983714 574.1892001441142,108.7586284056299 572.6199903223123,107.34799782798711 572.8283989778013,105.70422796729042 575.1136850334136,103.11481977659889 574.8139671642243,100.76728854763121 570.7577900929821,100.22032540129351 568.9032529100367,98.90619083897786 566.6962468530905,98.12565503625592 566.0415422046691,96.06795651520486 567.2749277040504,91.54144466149467 567.6504633708657,88.19135312766196 567.2385717254575,86.86985486470621 566.2322203830768,85.46107410528873 565.314897377282,82.65456189934753 565.0522363538705,80.91665856089548 562.1725122265217,82.30625114937652 560.7300046327997,82.25598285394392 558.0926614503593,81.2431824116129 556.1513851339232,82.44440380154356 553.8269625640065,83.14780994635362 553.1486845726097,84.88773889230288 551.9896972218459,86.63333829632177 549.1022751167279,88.38071457921728 547.3784354139115,89.89446574030546 545.0701164913902,92.33877660378516 543.6177030477864,93.37701918756215" /><polygon fill="black" points="165.79424462608847,302.0806520527978 164.57906160642548,299.3834945900206 161.49497974639073,296.80439272030236 161.14485394601417,296.1570203609507 161.55337320512152,294.30783719086736 161.2840226688151,292.31507974687344 163.65460885349273,291.36931488061305 164.09569863682006,290.87252065285145 163.58954668798566,288.5856224975895 161.67764970289088,286.94061385954313 160.41095871316742,283.683164745784 160.61445574046087,282.16504893851726 160.0768975283758,279.2887175088618 159.10800754311336,275.82295176516453 159.48459727638868,273.24048182551905 159.04117827589747,271.6806347874885 157.10036701826934,270.6904490557817 155.57131764967406,271.07318507166264 154.67092089692616,273.56965671346967 153.7897150741779,274.9517543532866 152.93800381609753,275.42021378195676 150.00325029023895,276.12788428232955 146.72097101836502,278.7130579808666 144.66984486356182,281.18221716981793 142.73054644782513,282.09030844703534 141.8874762375001,280.63766951973827 140.62417942851084,280.25052162440215 139.08356466476812,279.201406412975 138.3015344889128,276.3757125043797 137.18280334808327,276.7718784556201 135.82965535319204,279.2396294018158 134.89607893253805,280.22606318145245 132.9046334827052,280.946355559835 130.9761488462118,282.8105577232309 128.59743495726383,289.2792103551416 127.75782101145751,293.0061992060618 128.26138768353198,294.44492904386897 132.45964176757172,291.6438819971384 134.93393049620417,291.0738450621424 137.21371732828888,291.1587936029799 138.48754615755735,291.86301376925553 139.48476452975277,293.46665912165145 139.4341892343955,294.61072616201113 138.0923467853956,299.3317490913176 136.80028360983488,302.0672906587395 134.32644706947104,303.50081752172133 134.0907589429329,304.594811704017 133.9088112053507,309.179216993359 133.47868434327344,311.2022742705484 136.3358114631107,313.2656288619359 138.29798045448734,313.05578279194214 138.68875709567624,313.48001669128286 138.02284467244698,316.201275905746 141.87705313463593,318.31475384398703 142.51225400249467,316.14038468537575 146.21929025900025,314.0713494651057 147.25490945427705,312.10548008376264 147.07797729667746,309.5001005459926 147.36429127548135,308.26158355425093 151.3225940318173,301.4785586119489 152.89376425481444,301.1891255407007 155.22840971781176,304.2596986713407 156.4428510936119,306.2806120959644 158.02538222682884,307.01979920560416 160.25365849949793,306.3985365902175 161.48411319352653,304.92884499405267 162.0367499886751,303.17217385522827 163.0006438243183,301.7601282368907 164.05814592586322,301.6148723345774 165.79424462608847,302.0806520527978" /><polygon fill="black" points="99.97625273350555,363.3935146071779 100.00749043554892,359.9062023570227 101.23115339637197,358.9481512853754 101.64257883516817,356.8660167519176 100.8815284461577,355.5330213439838 99.59639199185729,356.2892970994143 96.88166475604449,356.21732417690106 95.41137416436206,356.5049006817845 93.57086122968775,356.3463293619436 92.44001869345345,355.8273419971614 93.63226451160132,357.1749002354383 93.3958651057938,357.9527137827425 96.07947315075324,359.4300508650694 96.90140662267628,362.15395916081104 97.74457229468271,363.3497859855723 97.43611968954494,364.36573036823614 98.08353264172564,366.89499976516487 99.6881896603927,366.9530093203061 99.99657308794575,366.50649131813304 99.97625273350555,363.3935146071779" /><polygon fill="black" points="129.7043264050229,617.4990466071131 126.983626249432,614.2407737974629 125.06029564701493,613.3942475908083 124.12065297096343,616.1033982427235 122.01218178360551,617.9010439394481 120.90697771610621,620.0525734244906 120.58692796899655,621.3783792967376 121.29027935124533,622.3417913153634 123.09996662904598,622.695924478673 127.49274940352619,619.1587353030993 129.61156005076637,618.0710545191079 129.7043264050229,617.4990466071131" /><polygon fill="black" points="849.4269577918727,136.87428801733745 852.6050772248428,136.47121017730433 852.1236768195663,135.2021757584356 855.5251218817697,134.04212968081242 856.1615925533715,135.4023852966501 857.1368074408111,136.1684460773007 856.9703712240196,137.27629816212948 857.7313495320319,137.486325037872 857.8990487042192,136.45735196713576 856.6562834993454,132.43807115584957 854.7942926721344,132.51841310676423 850.4385303501459,134.81990792216789 849.4269577918727,136.87428801733745" /><circle cx="602.198757595319" cy="301.71421903713235" fill="rgb(100%,100%,100%)" r="16" stroke="grey" stroke-width="8" /></svg>