<?xml version="1.0" encoding="utf-8" ?>
<svg baseProfile="full" height="1024" version="1.1" width="1024" xmlns="http://www.w3.org/2000/svg" xmlns:ev="http://www.w3.org/2001/xml-events" xmlns:xlink="http://www.w3.org/1999/xlink"><defs /><polygon fill="black" points="460.02832864260165,776.7801183465768 463.14003375152276,777.5077522834222 467.07502802088334,779.3940109232432 470.1174215526022,784.1183995414458 472.63264972153894,786.8308207130422 475.22707835286315,786.4419528663176 476.8978519284732,781.656458093759 477.15812366325423,777.794707853077 480.14784049815637,778.0445536951282 481.9487207230659,780.2156649833721 487.34700538129755,784.7735168068671 491.140478847463,782.8932743655059 495.9974028423448,778.6794385445058 499.22448586228774,777.425772331499 503.3822108889873,779.8246738768889 506.54621848798354,783.2875059463338 513.3351440662473,787.7613760467551 520.9402016090115,788.2621704479437 535.050343266307,784.3824186384157 543.6174940274378,784.2642697645575 550.680982310938,785.628717283341 554.8503663867295,787.0715700393421 557.6059845464783,788.7002041879889 561.82889522223,794.2208132426973 566.0752699351726,796.4015580583098 570.9868142880565,798.0509191171446 575.2372495744178,800.8894979053691 578.0536127744913,805.8350840292044 584.7299753463941,805.28698001404 588.8987402283468,805.8692292185524 592.2358591130509,812.2109523353438 597.4534101967114,814.8419621732289 609.2913243191638,811.5544401105054 611.9916235070473,810.0969480363533 612.6799663438568,807.1043539937981 614.3143664689316,804.7714576674816 619.3730343065283,802.4695080342933 626.1212123805788,802.3421697685499 631.2481647034559,804.0226859960045 637.4457965094554,805.2793581889325 643.4306684620011,805.5555802630521 649.0868539037172,807.2376363251796 655.4255130788118,806.2519486452193 660.0621868027639,804.5007255396612 662.4303468783951,802.8056010107548 666.5101250143557,801.2628943612194 671.9308242651579,804.9653874812735 676.7590322959835,811.0307218533995 679.2019964540933,812.9854795559074 683.5147517719824,809.6138025976885 686.7879720538734,806.139587022057 690.6289745496902,805.7576428335092 698.5009162287822,810.0366073278067 701.9162889472,809.5482319881188 708.8008789946878,806.335172857922 713.8608078787885,804.3823754675687 719.9566502517445,803.7129268098339 723.3128819729066,800.6698228486866 727.5874407316932,800.0851267718064 731.3167413674373,802.0831198212989 733.7858313003845,808.0973061217051 736.348918986342,808.7754221379399 749.0665757687901,799.3437223223981 757.9086567017949,791.9965458602454 760.5213126841318,789.2625582571221 766.7757445758282,783.8963443058999 769.9930172282517,782.4551496107192 787.1592469374234,784.1374730997082 796.1103421973984,784.7081574037187 800.824420599531,783.6040162101954 802.4527015429991,780.9650501036488 799.7791727999816,773.8598590472769 803.9077266538466,768.9046304956229 806.7014042931784,766.2710608562228 807.5062703229663,762.8693143092139 806.6378536477422,756.4351030022493 806.8320136653609,750.013514746198 809.4415037962791,746.4117203653946 814.4937257234877,743.176213475942 820.5751836046127,743.0830245226904 823.1181053887229,743.6606239144286 827.9579390697663,741.3848227587097 835.0535379304953,737.1143627609874 843.7401658814315,733.0931160305266 850.1108272825977,726.7907029943258 851.9177005257187,724.3644094228686 854.8959072598022,722.1302762867806 855.5061854604012,715.7976468664629 857.1685003069108,711.921788047722 860.8140627010956,711.9794919819908 864.6884559888887,707.4049315074083 865.183515152814,704.6714163719721 863.1898954639021,701.7300892166145 863.0879598267882,698.6872173103138 864.9291365141237,696.1045477450768 868.6052069278077,694.1648516196608 871.2086630017759,691.1771727233028 872.6523667592191,690.5225717087935 880.9978807997903,683.0074297710081 882.7856979950401,677.4893040367411 886.9189137186639,671.1329690848097 888.1534200081406,666.6539115116113 886.0632603212823,663.4136732816289 882.5859570075354,660.6703573304725 879.362209881663,653.4560050144845 878.484980388278,647.8742715961552 882.1968964031988,641.1954911805133 881.6512131195432,633.8169820911684 880.4561166218482,628.8772972215709 879.9227650443778,620.4131558994214 880.7389168494658,616.4620001826736 883.7585398420533,613.0809042069393 886.3367689053255,611.8456868536939 885.6376341909338,608.1010312900028 882.5062791937606,602.9032430502763 883.4046717229678,599.3836169530149 888.2314805544097,597.5456627778653 890.1114723276633,593.4068103142777 888.9836851709558,589.6440951677855 891.7458680718725,582.8505870011387 892.5035116368996,574.1865926402297 892.2663660058985,566.7900669050357 894.8211627947045,559.6708625388455 895.6175087782073,555.6146109032467 892.3745983397416,550.969712065623 891.4971095147561,546.3972083855417 891.9847332601088,540.5049715004723 892.7999879524514,538.0433305576673 900.7637835437409,533.9160295559352 903.4378613427573,531.9032830476444 906.6220830106722,532.4145882463409 908.9559474138989,534.1084629327077 913.729004051151,535.3265458628007 915.4372329530147,534.1425851213876 919.0549503223582,534.3484812939815 919.1100030262662,531.6265569491939 918.2195528083722,528.7359901836265 916.4422298195611,526.3003075850883 907.9143920296355,519.07971246588 907.1462454516355,517.6811062669541 907.502928451242,514.7111108793633 909.3629049079265,511.9996244757146 916.6011353866206,507.90007816218645 919.2340192881808,505.8526879508968 920.1178220664326,501.5365031369809 912.8554175614144,488.3030574786116 913.5188392436619,484.73560617929 916.4796363071123,479.64854028489697 919.1093485365188,476.7600912012838 920.9705301087837,476.0109486706736 927.8814450869046,477.3842187898768 929.2721318352449,476.73015423881463 931.0793562673273,473.64927081291484 930.6027595347317,466.91708655745924 929.3661149389542,461.9992272115832 926.677497560772,457.66500832509263 922.3640322970989,453.0530203537409 923.8497695569426,449.2498902531219 926.6626995487225,444.3185966895828 929.4240051378636,443.49042465861896 939.098628977404,444.3510999698222 941.3786636545043,446.61922416217436 945.3547871802206,446.2096591435566 946.2834358587428,444.153846400539 946.8003996583852,439.7704068719646 951.1548097720307,436.8397014263349 950.2507296399451,434.6330086318012 951.7070818165274,432.1766292883209 955.8675864893637,430.72960221858864 957.8135619810994,426.3057055251198 959.0144991242323,418.8391898343045 965.6075437827911,420.2049404691664 975.5781373222611,418.3730479643546 980.6731353518735,420.16434795116555 982.9725668109554,417.9002930334374 987.9992587854871,415.4812857503956 990.6082852656256,413.53730065753143 997.0226056389994,406.411828803635 999.3719917775657,405.197054001474 1002.0382594892402,405.0239137566098 1011.2286735975736,402.91319746883596 1013.8932432293174,400.7345646631548 1018.8993448188088,399.31242137127646 1021.6346393282356,397.65090467477864 1018.9220388942118,394.5696694106229 1021.3564720186407,391.0482857623227 1024.0,385.31640025449775 1023.2003814649382,382.40570839160955 1021.4150419995284,379.38767430631435 1020.9656086308366,373.16664096068564 1019.0102008531393,367.3792674770354 1013.8618886917419,359.07285981210356 1014.929336840977,352.5510641920587 1014.7577123383375,349.4415751298425 1012.3555092136173,344.6002280472775 1007.9340083071902,339.728072889537 1006.2499749613182,336.8071650373539 1007.6312231816173,330.4056253520574 1009.4190113273235,324.0215026784839 1012.316141239561,323.41371853082376 1015.9640875613433,323.56647523195215 1018.47586149161,320.2821904316918 1020.4416584256356,316.24698319963466 1021.4252116794004,307.2659200690106 1021.4774121451915,303.63010170390044 1019.4359006746564,295.4730491422114 1018.193429741045,292.9029762470881 1014.8095570862863,290.8080663865263 1009.7863906445733,289.1421240915719 1007.1711985997671,284.8308851946921 1005.9271009735417,281.27390079797885 1001.6732168737669,280.3593867530751 997.446198051717,277.1876706382509 996.1878999276295,273.85645883106895 1000.3672438202877,266.63986249035565 998.3953864966089,262.76926522478766 991.2863230151622,257.94192580956144 987.6682485779739,256.9332418303892 981.1135119278248,257.474804593655 977.4023331186648,255.50343312800317 974.8757890073061,253.4249432935561 970.391417260645,245.33395462251133 967.540533792821,242.61899950290763 963.0877598910772,239.55589155419455 960.3490014680534,236.94773547871716 957.4634357253844,229.40627978531916 954.6557333324554,223.58950677607265 950.3412628924135,219.76817973925893 945.9784179334595,217.7736110566193 942.0274848274049,218.14031190310163 937.657858093721,217.5452722608983 931.1012673547788,213.25935864507153 926.2446883758845,209.54044279902325 912.6391871107738,197.1223022554592 909.879880336548,195.58011119673972 906.8569347942444,197.87889140895572 904.2923710980567,198.69928121258909 900.3560685752157,197.8767432124148 895.5811469301188,196.1865385697763 892.6065433647092,187.25334271214342 887.1044224321112,175.83095163539735 876.6922135210527,164.94456336044072 871.5000169596674,163.25443398790958 865.4295753830353,162.71042796743632 863.1162140577198,159.78615556864827 862.460916168271,153.02535452101665 864.9057829473261,139.2692763731808 864.5033827141718,137.54704070057437 862.294237564609,136.95184444903987 851.3431714461993,139.45938683521968 843.7604895766676,140.61215547173504 840.137343560335,140.45084842499602 831.9853121126098,135.60469219937966 829.7805133170493,132.90276627703736 826.4610604330769,125.56278634869079 824.4058980912291,120.05841153809729 819.2716769151286,113.77189029524823 812.7352809298361,107.77170499221188 803.3987861331565,104.72734013250385 799.8717113872212,104.34856972570685 793.3809305261177,104.46436021278964 787.4324819596269,101.58770094889394 785.4533910319013,98.33855396883928 783.9050502255519,94.0237258043719 781.2795058121012,90.56088108064148 777.5771661389886,87.93129323700987 773.1208114309659,86.26509716491387 765.9846082721364,84.6541498499721 762.6730918882423,78.49425033391515 761.2536023222559,71.95575891451642 759.9245281111897,67.85653498272632 757.9414159966378,64.83498264893194 752.1033016455808,61.198697933035646 731.3529631305154,55.329826394178895 728.3782835978672,53.886729858391845 726.1537569691037,51.28767401222035 724.8352328793177,47.7397621921707 723.9684063077179,39.69304326244014 724.0402888634615,35.414149707360025 722.4252573388889,27.596229746610334 722.6682946940045,24.814481883989174 725.4525791559442,17.46658622642599 724.4453208452982,12.205657280114337 721.502842686677,9.37239838631865 717.2518685347595,6.320324975141489 710.677716481841,2.3807720148498674 708.7945948015606,0.0 703.0109389198838,0.5558012637789034 699.130849092575,2.001139798008012 691.3764200444141,14.095764156394807 683.1376091613869,22.652454322052222 676.5482043352146,25.13037308580124 673.4620979376682,24.670910685563513 667.4583595814132,25.88456025371613 665.0574372679941,28.638119195378977 661.5623653505996,34.3698626268814 658.1212218477291,42.777622394689615 656.0457724949387,44.98675547240339 648.9349587352306,48.43947132759433 634.9607315551006,52.231691002402044 623.125325010992,56.04372962732657 617.642938882124,57.15527105394017 612.9274834101195,56.67594486144435 606.6305328948774,55.0008675793016 603.0757838304484,55.91704096173487 598.1084347767427,59.067587429663604 594.4599296777346,59.13475756222897 591.4743805159876,57.392068157153744 584.5560811968314,54.30243872348831 578.4442014179428,54.35217288724971 573.055658345352,57.17688229118926 569.4788715354109,59.59492056275792 559.0727683296645,68.14575009584814 548.4780569032228,74.21877791437225 543.9589186276431,75.88261806435514 537.2886532143103,76.77298418792361 530.63172666149,78.83551663279661 526.0719824159977,82.29825840530145 525.1804620404872,85.721638540806 527.2331556136651,91.84864140574871 530.180597768872,96.2590045215029 533.0250716997165,99.29303574517746 533.7455451068992,102.18420310030717 533.0688826243401,104.65156688720299 528.3847928103886,110.47261810158386 527.810689953255,112.93292004705609 531.4367198850077,122.49724354911382 530.7385144979851,125.92496689881136 528.5313485115404,130.81441625787352 523.8989140464193,132.89600650629677 515.6432350294548,133.54844457453135 508.426776576046,136.3587149787819 495.31062362214266,140.1537827581767 487.5529243634319,142.08562924548994 479.5988294222946,144.65208039105426 476.2929212849223,144.4015873053238 470.2074279511717,143.14590570221435 466.7746840434353,143.09427307521537 460.87774556538784,144.31393048719326 458.38193569015294,146.10236092013997 450.9639266468501,149.20333645214987 450.60873489628926,151.87973840344455 448.5146565963965,156.13174828695594 444.29449352092485,159.2791037447355 435.99611646695206,164.84213834752973 434.6410873729279,168.78936143905992 435.78408985757187,172.75806705327466 437.34295185442846,175.4612959522667 444.86435900427614,180.7997521902396 448.87846673379676,184.91219999750274 451.18414955616686,188.38377555127795 452.91096538653295,194.91921011224326 450.2947542045384,198.84721045807748 447.1816762388215,199.02132385680432 443.5637545753901,197.6883661546126 440.3479373470274,199.25088080495777 437.6909303689741,204.8827275338491 431.38399078592244,212.81855886396374 430.2819266793888,215.16197335734898 428.91882253956646,220.82513459791528 434.1557945301584,230.31039072765327 438.33087812408985,237.20083335814445 440.8540901220476,239.7146748220481 442.3266101832918,242.6083733348545 442.45458211095774,248.18212258093354 439.7107561898401,253.17645748902828 433.8797189739692,258.1060702709095 425.37482156969935,262.1725567991973 422.81402057787096,262.67492759066295 420.4239843481268,264.2467413629057 418.8821582756386,267.4306673878509 415.9727486337388,269.4280144823349 412.7463160319547,270.455313893514 407.93978833275554,271.12483779752677 404.2013616833592,278.02901601846736 400.7876947461328,278.8424734572799 397.64359606183257,281.24548289666757 396.7273785787064,286.49068250617006 394.3176339180171,289.33113364900237 390.36299963506747,290.56198755690195 385.61005291489,294.1261790756139 380.6412816747155,298.648075730326 375.03753915812916,301.99242776472363 366.403766563265,300.4640158404112 362.546576750647,301.46853418056685 356.7240189417353,305.4541950159544 352.3355659728369,306.8836955425611 348.9344765987381,305.3354675902308 345.9189650487782,307.4266724956567 342.34235078749947,319.1457897807586 342.7138306831232,323.7477508416853 345.8768518419331,327.22545423477357 346.46107772090215,330.2226994085685 344.81673908668773,333.40383316652685 346.74716577421384,341.5864528226748 345.39821190460214,346.5878418628673 341.83625746471483,349.3057449472757 336.4985222964555,349.8717125651724 329.2037557909238,351.6726440397257 325.5959153391624,350.23144844778756 322.610351020687,350.0740710999605 321.26653174423734,353.9033013749631 320.1149309852916,361.70035959085675 320.528031030731,370.2592308754464 317.76355211210006,377.72146206919473 318.2435893899251,380.28078198987254 317.68402409327626,382.8401852502814 315.0127154658538,383.24157113195093 309.5877866515891,380.90153647268244 303.7707926628109,377.49216211251337 298.88942763260854,375.91605897883693 294.30333734828895,375.73019572356833 290.86323475512364,376.6554151815255 274.35773661431693,383.9443004238367 270.5099737592982,383.60887965571663 267.9409397206866,382.6117611418562 262.39111656299445,383.05870309334796 256.167061792376,385.62649366847074 254.5284547103358,387.64433399164983 254.27954273046242,390.4035454231206 255.6986281556851,396.4252584595065 255.2026453612162,401.44641811027947 253.67249427193244,403.56403991945785 242.7407886447324,414.0987400076801 239.62961636387718,416.1956993161953 229.8436862808172,421.71654741083853 227.990927155178,430.5755680547729 223.86337884000997,436.40608681696614 218.2254315937524,441.6734332708765 215.23546829808518,449.43970481804826 213.19252380929143,451.2214617086475 208.45518311110084,453.8308782742267 199.02279671545188,462.4680675928962 195.3741224766667,464.3422466383137 190.57619531474325,470.36563900398914 189.90611662782507,474.01034082143207 190.39131195103084,476.78895971960986 192.45487261442227,482.6975961401551 191.75435439391026,486.4387940776 190.19819260959375,490.9111474877779 190.0538798340856,493.9028206544493 191.80310968223762,499.80393291067395 191.75636212183846,502.5960132931776 190.76383382806495,505.2439993014409 187.5050846269257,507.89022653884547 183.31888991730816,508.7885904865506 179.70535358783278,508.7377149314178 171.25839911080638,507.55394237911844 167.60192119501016,508.46467847067123 165.4444562647505,509.93668461613566 151.727674628905,511.3683713631736 148.5884411167596,514.1141300795343 145.95985914237488,518.5604425450534 141.3162704904353,520.5425801732272 137.66951097676045,521.0323727135366 132.71093303248807,523.0160770208983 126.37715527131154,524.859857130573 112.52912777006192,525.760458878352 101.17391286185175,525.3184406880887 99.05726091080602,523.7861926737444 95.38472637743575,517.7661758609012 92.41761789478177,514.6276352598998 88.87747697676973,515.7679316142461 84.63208671490595,519.4655682296595 80.65556005016259,520.490387609073 73.15532962519097,519.8696861969852 68.76510502721491,518.973301971117 65.44502454952871,519.0322777146996 57.87907383571561,522.3769777052973 54.12716716234472,522.1372450020644 39.58451933053633,518.4423718413927 33.28036010828242,516.1481090368447 31.43216152083379,517.3908251517464 29.264606439543805,523.25146249197 24.63059336374659,531.8970269624743 22.304363032479305,533.0306541770394 12.693252384440697,535.5959453301481 5.115413862424013,534.7352378898619 2.536921001790613,536.2120548545038 0.0,540.8890968733497 0.473675498718265,545.7118266376184 2.1356332988195112,548.2585438045924 3.0649191600404673,553.2234305728105 4.880351689479931,557.4735530294201 7.735286315406877,562.5814289022845 11.36736067882658,567.7009821738911 21.33232606126844,572.4158578955064 22.36621112776121,580.6253366808342 24.591529733841146,585.2199933493189 22.86147233174016,596.569819726017 22.46987429422172,608.7585013872826 23.547516460833844,611.0381199312316 25.689308891768942,611.9752767172938 32.724200393861445,611.7108888056205 34.95062763402107,612.9828384271605 37.5617435387054,616.5453011838458 38.57444853496526,618.9802776336436 36.12292406393405,623.8973160314172 37.243314234717204,636.5287804077919 37.265221722469775,642.7256423337317 38.23482249401316,651.5166554546242 39.77431237955754,655.8043465646181 45.06527139502533,657.1438019372014 46.572730504027405,658.618561443604 47.36373786471018,664.7052046129877 49.44188279507256,668.7442134676681 53.793047098297386,671.3056206125084 53.8561656632088,674.9624648012366 55.613498107983915,679.9938339126478 55.94818804647027,685.5681562914622 54.52367035028034,686.9973271603922 48.64025842595305,684.3554791084466 47.18028175297072,683.031501832027 45.333164198390584,685.3963479710286 41.206777244244506,683.2609829835033 40.31081623609713,683.9588657112149 43.743220277591924,688.5658549480152 48.539135969258275,692.6209138709557 50.45186525422442,693.4043793751234 55.31074199332283,691.5674502906062 56.90783003557576,694.4110413520237 59.02476566880582,695.5939171330456 63.951815842366436,696.3984715848248 68.52428942871829,698.2805569048734 71.01877915522405,702.0769820387716 70.14279351575198,703.5906680036223 71.36237757047284,706.0135805859125 70.15204881604436,708.6577714843227 75.49316387750041,715.5654078731495 79.06235914972913,718.0117377338694 81.60898685018822,727.1920582166739 85.121383627453,735.8180204536923 85.31108324903241,737.6380789771171 82.83350013751587,738.6474047333996 81.9814416210263,740.9507298643312 82.48767944664398,744.4892323348795 84.90342869032591,738.4433662555033 88.57025445562986,736.8851274055021 103.03015587173333,737.9008278805254 110.96384326406596,737.460532179068 115.59545172996891,736.1176861887681 120.01462096010137,733.4010450422775 124.4124442901613,725.6413922293833 130.1725055492798,719.0810958830198 135.2647080517341,715.1781951356661 137.23923235176184,712.0958734328492 138.48452208503096,706.6459049300702 139.80730448277166,704.3200709755777 143.43604391243457,705.5457705264894 145.97205264121163,707.1845602680394 154.15401242318177,704.8304430776175 156.3579042294433,707.5305599626492 164.58442749745996,715.6618194488275 167.2162084699858,720.1780358980466 170.57991527494644,724.397568503391 179.54153964152607,726.2245393819182 182.09038695089458,727.3452455180346 184.29623731071882,730.8956902123248 183.75265202627466,737.8544191729958 187.41176370284995,744.746629159394 191.63132898799154,748.6513869396538 194.45764089878486,753.612957252808 195.37586250062253,756.2988568147794 194.66408991892231,762.1841891342257 189.7675885218006,767.7776946476012 185.0908403983533,774.0250680198512 179.1972117826923,782.8122270925815 175.19027030257007,786.1905996274854 171.85704248922198,787.952803171112 165.37483010424228,793.5529571027452 163.60311777389285,796.193574754328 162.14422940972855,802.0629423146079 164.852383300468,807.3286933298928 170.0396503891714,811.4699749758065 180.44122305100322,816.9633155642974 190.6531201473808,821.3803089940002 199.12708667048892,827.5990117994904 211.97150544651564,834.051293473578 211.59707413929073,839.9370982391112 210.29906059580497,842.0657927827065 205.39528635705537,845.7396103072142 203.82070355256795,849.667717149516 205.03888756089617,850.9247690341182 204.55035473889515,853.4128049113586 204.79909381217675,859.3245420440771 206.58615347548428,858.559082785972 211.44809241139623,860.6124608884774 213.22385269943717,864.1989365579916 217.05585077072715,860.8773139164549 221.1513438936617,858.0591230656162 223.73537928687864,853.8835747344 223.71540880571462,849.9346829521945 227.40439986491154,852.6798588226587 228.20168961063263,853.9885569482514 227.54549157216155,856.2090774183521 232.65912978529406,858.0061135765079 238.02326150850428,856.4830376144466 239.3944103783253,854.2680373435795 239.23961038737997,852.5893346834685 237.47746281729027,851.381450552198 239.74694311326476,849.7053669424467 243.38731840167003,848.3698433906272 250.11747883029525,848.8003125644202 264.10074504284205,848.5828611966679 271.16024005955956,847.623810910109 277.0752923699647,843.8580120089593 282.44801464112146,841.5002544757118 294.08493854888457,840.6112181613465 299.2291811658682,839.2927703677959 307.1854308367956,835.6874564753157 316.05855382193835,834.5407529393773 321.53688601510333,831.9563983000838 323.37847554806086,830.1574456357915 326.4315281920727,824.9559840173523 329.7409921630609,818.0498711450888 330.85821445952956,813.9086403184435 328.5607825119336,810.655316871567 324.8707162590334,807.080114844544 323.51850995391965,804.0653462157117 325.3819805841975,800.4423424359422 329.13074076638725,799.6612735679247 334.88772685119693,799.627360852337 339.3289220186027,795.8522729595437 342.06369027328947,790.7498993862729 347.38801863525947,783.2430427298312 351.8184921913871,778.6075645817047 354.52068330144937,777.5833639511679 362.4840213092006,780.6931166320642 372.36880132264616,783.4182934514141 382.17832058611305,785.3785409305585 384.6186265488248,786.3818609668142 387.84131196434913,786.3149682589684 392.88072810815424,784.4741464283001 395.668842130028,784.1860222944529 403.32118534180245,787.0701701812427 408.7873799688619,786.2985589625471 412.4278123507049,784.8461992447328 418.861032780619,784.7280344065327 424.33240371400274,783.2046599729056 427.56625099608596,780.3558258690738 428.4707147700658,776.9478601203023 428.15376864084107,769.6727441210661 430.42026472377927,767.1273358865512 432.6740659572598,767.7931320241079 433.9360644419299,749.9077596166355 426.233773113081,751.9342882094057 423.5577083621236,751.4701000523135 423.50772986323807,750.4520493680772 427.0479636988844,748.0420039160022 426.59232132181586,741.9993607798543 427.15933647782725,740.8288656615148 429.4335321053233,741.0914137011166 430.81363052098476,744.2349857054455 435.24816337795016,743.7816083317707 438.4777310120287,746.0993994925498 444.70811976402973,746.2395490567164 445.6902527044412,745.2615367756401 453.71485004569115,745.1800231355411 457.9911853192825,744.5300622600466 463.94167719482266,745.3905090622732 465.1664733257104,748.1620591276285 464.0709542414387,753.7660161505164 463.3389284424056,754.9086010721823 459.71669477055553,756.0369360068779 460.02832864260165,776.7801183465768" /><polygon fill="black" points="460.02832864260165,776.7801183465768 459.71669477055553,756.0369360068779 454.46142398575296,756.5509780566379 450.29102349620035,755.2031003348931 449.24159834824565,751.8652414947918 445.3404395261777,749.4633879487965 433.9360644419299,749.9077596166355 432.6740659572598,767.7931320241079 439.35677083412264,770.5643598147218 446.9294761037112,772.927260605453 454.62298989154345,773.9765742479684 460.02832864260165,776.7801183465768" /><circle cx="753.472047928392" cy="664.5058821216445" fill="rgb(100%,100%,100%)" r="16" stroke="grey" stroke-width="8" /></svg>