<?xml version="1.0" encoding="utf-8" ?>
<svg baseProfile="full" height="1024" version="1.1" width="1024" xmlns="http://www.w3.org/2000/svg" xmlns:ev="http://www.w3.org/2001/xml-events" xmlns:xlink="http://www.w3.org/1999/xlink"><defs /><polygon fill="black" points="118.62913353416087,268.1712088428636 116.77092798467818,268.1542072304011 120.00372584583513,263.3710177962753 123.17328118673817,256.9794136693532 123.58231457687246,252.2595069000638 122.55229226393347,250.00482915640202 120.91892927323346,253.51603069507678 121.78962044310214,248.11015092340836 119.65161035534757,246.89939803846642 115.16097470598633,248.3083662984584 110.19748594968038,251.50916169369475 109.90646907052327,252.9290000712266 105.75695238997443,252.6444061332686 104.18830319034717,254.18298270271578 102.1808762113075,250.816693993419 115.00215005994887,244.79100258403923 112.978695146906,243.83023845957598 106.69854866230457,244.3241432908826 99.13880872093786,244.45148622065983 97.6335894963164,243.797408004133 90.61721119478966,243.29446864113117 82.07733646517627,253.48306597894964 81.40628698709286,254.72359788025904 71.90519330087743,257.0408516186221 65.38879605228558,259.3214786992811 60.708685660922626,262.4583732223658 52.485293487491425,266.6225276822421 45.097459309221136,269.2617257751517 30.45476790108312,272.6184461257054 17.599933053379957,277.6225369869918 12.627355449024629,280.5381607302412 4.463926994318279,283.8172380163294 1.2752173855763058,285.7222869653144 0.0,290.3174472573554 0.9215349619919545,291.74825282671156 1.7109694761176613,303.7657682669327 2.99309322610694,318.39524976759253 4.533356239240114,331.0774458132396 5.544411061191118,344.9316376776918 6.2565846711323525,344.9919337943205 3.879202011158845,387.67818205770084 3.849379028057407,392.4419660617557 8.758362801788861,399.100973489283 11.491750439890676,401.4822645714106 12.381155520391896,404.727402184782 42.1892879599826,431.3056718086251 41.85540008511635,474.25597089453856 37.50363224315187,481.9274308373292 28.782238999452048,498.6849522664759 5.583715813940936,542.3985829732228 5.5523951827734965,543.6461557712929 26.138561111730343,592.2423559134895 35.5814116379605,615.5566869611143 49.61389338193947,649.0958979982254 64.51935986585,684.4258353075251 72.48676336670206,702.1621351700064 73.6157039421479,710.0621400492405 73.3060392966034,717.3419345981105 73.57616205052582,918.5564847307213 73.88472098463929,1024.0 391.19306492749456,1019.9000843379112 386.6595028189625,1012.9169148943307 386.7692585440542,1010.5727374857785 388.4837256404627,1005.7384072808278 392.61068812224346,996.6770675579992 393.6853289411248,990.9572010297913 394.2330826578496,982.0943678572095 394.3048278017863,970.9408843661903 392.4972826883416,965.7834743965394 392.68641675042704,954.2082360621179 393.39682426543584,949.0637647855057 391.150009368556,946.6008376176916 391.0618925171314,942.9406919377985 393.06638211205956,936.3804662647549 394.7653982668165,934.5032288331106 399.965947773292,919.9217184092279 404.08122607296053,906.1466380119986 407.7811133023843,892.0037632063614 408.1751768078191,885.3497339363686 407.9077981871288,878.4631546208096 409.3189546687671,869.3520031235088 409.9499510962782,862.3569851857909 410.18960059156524,853.3014464909292 411.9370933494712,837.9729732213895 411.90238654863515,834.2394026271284 413.5341468907995,825.3422461954565 413.15725075119576,822.2636439190696 414.0366486718213,811.5716313366398 413.9241547253395,797.0989568294735 413.2260378711778,794.1362597617128 414.2530416624878,788.1252330910947 413.84268508196794,774.020393605586 413.9624976189708,759.6861379825136 412.52445961240215,741.9015186420884 411.1706896465073,731.4738709576465 413.0659712324778,721.9485340512235 413.06553527773855,718.3724838348992 414.10424138371656,711.9315290815802 408.4207467971527,703.428644769624 405.1923146189636,696.7822276648001 400.56094333462784,691.0772189409495 394.8266191432299,681.5819690402418 390.73795387339635,674.1152990824692 383.46168475257514,659.3858535944094 375.5056272498955,644.7322162125688 373.2669052680136,641.3122009616185 368.1432343986152,636.8012544861093 360.378307998956,627.6973854846385 355.7660431345014,623.4024095272234 346.8105920834063,613.2556506951444 343.6457036963723,608.8404037468231 333.02185351961845,595.8962101140241 331.6386149442573,593.4291972490842 327.5890357777375,589.7509094433789 326.2304763783525,589.2637668393145 319.4506044398385,582.713064508517 313.3751062445931,575.9241703925682 303.4962084879568,563.4975187337545 276.4027573725452,533.0384066613598 276.8529050478602,524.4254749757434 278.3234440187359,516.9746307479438 280.6994991621837,489.1663544959122 280.60712892287904,483.22360491649147 279.8335902833354,468.3690664879607 282.39754879024304,464.62991995274615 283.36684530107743,460.622710298734 287.45635476735174,461.0943524151751 292.0720536364923,458.0436714730007 298.97878155845325,457.3750753850454 303.59167061248814,457.9255951198189 311.9693865678305,454.77245672454956 313.88890100981746,453.2619225789847 316.39541801727074,453.0734455698678 318.60099914531463,454.28457880552264 324.0072372051807,452.13751283531906 325.39817580807795,452.9663777023179 329.887118935365,451.0896495813813 333.3380779750638,445.33489527990446 335.8797336110432,442.833551732135 338.55312816872265,441.98786006093223 341.27994092018224,443.3883988400636 344.08827126348586,440.2400748188461 347.4053189337929,438.7393324222952 350.25803949696797,433.8510392676857 352.2064371550956,435.1125884515317 355.00558941146187,432.9907737733331 355.95323265415766,428.18309445038403 359.0931335247262,426.6030711470827 360.0321940806088,428.5859533220122 361.4822309074437,425.55707266157344 367.1106645452788,422.785189187009 368.17435323824606,420.6182070161989 372.4370423933343,417.2345662028076 378.1366809863929,410.90372907788526 381.9422589827902,405.08253817706486 388.065753122244,392.6344050045486 392.4063712768466,384.65434221655505 394.8885219971725,377.98682159988937 402.80269043135473,360.92234493516116 412.5076961457917,340.437375503202 417.7681711104313,331.29827365874144 419.90851492048665,328.5159236503729 419.5915316818816,326.9975984910302 422.1484964029979,325.4180467541206 420.03822702471655,322.82261454626496 421.5721818850913,320.90491019825845 422.2562929233318,323.05049562662373 423.6624747802774,322.87387228282284 424.2267060928395,319.8485283457337 428.4288431004976,318.89434028910307 427.9968521562541,315.16760403211424 429.51293400735227,315.80586717916503 428.4587612153979,313.1256116126717 432.9037637216527,308.70062493587045 431.19519453683,304.725493628369 435.66433831342175,303.1174171737598 438.2192042863336,299.21584425960407 440.6086953111383,297.307130148959 442.50740001380274,293.5040731522947 441.23866818096263,287.2930105262253 439.18309381995255,284.85556784246387 439.1430710897443,283.3139517670194 441.96283349268197,281.10312300359203 442.2932567556554,279.47121021582575 437.3029701230927,274.9242454252566 438.2694591288306,268.87370189695923 436.00543298441283,269.0530477393403 434.74586499342166,266.88939417525023 431.1679284907791,266.0845962258138 429.03575478319686,262.59382641998786 424.93835912474105,258.770647872372 422.86240413910525,259.9505611613929 420.3979215872607,257.6160638833858 416.5240935514764,255.8093357467526 413.95071967366755,253.36651723102682 406.7605133985255,248.49042288170665 399.54848150005256,245.35325449055392 393.88720397073894,243.40442124129424 389.73842994806273,241.25856041882014 389.7922751320777,239.12530653917622 392.49719591987787,239.76622889393343 400.34082673773554,239.6318099168716 403.84631294168275,233.99818082705963 406.31911858510284,232.07879587801722 407.0973736540892,228.86404553659077 407.44250715202753,222.9573471393404 406.69168426323023,219.700937392818 403.5116909899084,215.22830967710695 403.6627380781534,211.83095083233763 400.9142436897946,209.20669202050647 400.8795657870028,206.63775247401657 396.93468070507924,204.08257023727595 391.2804220792509,201.26566356722196 390.65019353818747,198.02993990605432 397.06066110607077,196.37449408829582 399.4453381744891,192.28633785481384 405.3485726602688,190.6702108921213 404.38749816549773,187.53537117855046 406.0862587310015,182.20169583368795 405.82039816676706,180.45424776987488 408.77287585138396,175.1122053024759 415.6357578110457,164.76755130817412 418.8932800209204,162.40324291348543 420.52832422552456,160.14987969330946 423.32761798970853,158.24736686538995 425.5729672105763,154.07717636668474 429.1703241232534,151.52379114238465 435.9479158072302,148.15642301442642 441.26746545333094,142.7056010351855 441.84938506597445,139.60039328465007 440.29791010670954,136.5623116077303 435.83319952239924,132.36168430927057 434.3539930904522,129.47248888715762 431.4512120167907,119.93846528579809 426.92908107792476,110.83050356656543 425.37380447109484,105.3721772972375 423.55394971989494,103.96205763303021 423.5624506744799,100.639958510145 424.8463563938687,91.74194276809442 426.7513184280096,90.28730960402856 426.99991280244905,86.1345745841544 424.15560174125085,84.38392733051842 423.0944370559083,82.67755676691252 424.2775541503456,76.3213226580059 427.69094455724564,75.57598388492693 432.112516340992,71.60683967253942 436.845953046793,68.60481560593496 438.37000499666203,65.47841065798207 442.45555484053284,61.58710587534517 443.3299754063145,58.95641401535465 442.973672268099,55.76233271280546 441.2190030557177,54.17781943062471 437.7277651889755,53.14675131042907 437.4741021621637,47.931998855670486 435.88918822708274,43.161990990198206 433.6004058265907,40.06150627819602 426.23494216418067,34.569629150373885 424.1131086289067,33.37258107595028 417.50168705390206,27.681635138786078 415.0767940048183,24.40661213480655 414.0371779698569,19.86610217851171 412.2441804195948,18.61086564564357 409.2089268801526,20.939911840028344 403.30285575017547,20.857627279442 400.2311921238944,21.75678731463688 393.9026793400745,21.59215094242188 392.2314947674391,22.962259997572687 389.5376943313589,23.224811877628667 387.990333468958,21.990733937415257 383.517114309744,14.65279707162199 378.9195717878068,13.45007090999411 374.94745637998875,9.573597258373297 367.00190332280795,6.470621770145954 364.86305568942475,0.9564053217466153 362.4515525735773,0.028631472904521615 357.7508265627041,2.72909737893076 355.5441448681155,3.292514030333109 349.6346730389522,0.0 347.0292939843712,1.9685321484188307 346.0481132450005,4.26940600300054 343.3034091435413,5.546360670625631 340.9078366389636,5.358461969152813 337.5482553239414,6.647543280432842 336.7532753965651,9.04382072838132 334.3872149484963,9.667669202186516 331.41601886948223,13.39771844683844 329.21638308237414,14.63230326260998 326.39895740273727,17.962386061937536 322.9297969948328,19.26145073384589 319.28976276813654,21.80340747678406 315.92245467112633,25.24308750256921 314.29679487354036,29.086380871402184 314.66420688030956,35.55338620981718 313.4305337938225,41.686250040973505 316.5499147940747,49.31829485866285 316.9474606359595,54.539863616657726 318.69420606212134,58.672949297455034 316.7881407960647,61.017230166449735 311.91209415354643,62.7814314325027 308.16146085292166,65.71716783046918 307.2761239629352,68.20135806779615 302.3326046388771,71.77592531053756 298.83456405001976,76.36911446282477 296.31338291730634,77.60924007099993 297.41207461352906,81.92106026033503 300.8389846053411,83.32292356493338 306.3981757383597,87.59340817239024 309.9448996920958,88.16483727781122 312.16450213030043,87.38588618519987 315.6163358163095,88.09724705760584 320.4684283918077,87.01752282815266 323.985036997446,88.2941895854267 328.51753711084706,91.48279841472072 328.42343459054104,94.12576962167634 330.4890421752395,95.85883668527049 335.02351245361524,96.79439252061786 336.21757698191743,98.90368961311754 333.2934907811679,100.26896197406188 333.95853100413126,103.92537917994889 330.94704912689895,107.436685802189 334.5014053060395,110.32809362750947 337.1078929054415,110.75429662875888 338.3922953746084,113.30245944854187 337.4638494989748,115.99590156679199 337.59582756104487,119.20711743990375 335.2513505200324,122.7787113993603 337.0655452795177,122.90184085101737 340.2970282808125,124.82265328434767 346.74395571812727,126.08748427575324 348.8341908481295,129.1497742390526 342.90118542334534,128.6841914383167 340.368360430201,130.25432546348316 334.56276569652186,129.044079848102 329.0180687921074,129.70424655001398 327.259966973925,130.65787546729644 327.04579923075795,135.38744206823287 328.7874824355532,139.4298661407463 327.18164947274227,143.18968319302382 324.36304905094096,145.38443515029098 324.8064394291649,150.97497036294226 322.49367915020747,154.04042580526777 320.0679562324287,154.2975497188596 316.79451055413057,157.3510767094665 313.327481534992,162.9797710626791 312.76703437999265,166.87364780940436 307.6171279335646,181.17902276298537 306.1681225254295,183.76048203434993 305.0353123529205,191.45779737068085 303.1575648134598,195.61243418852143 302.84491314676893,201.05315545025996 299.13143422795343,207.4596687176586 295.51196593065066,208.4572276680309 291.3076283469191,212.38420256747088 291.37945714281756,215.22334382838676 290.1626536018115,221.1977858704173 290.08531229838434,224.4831433037325 287.36068386758757,228.2863106949785 284.2931788915483,233.613202469283 283.2047179573162,239.73212933077514 283.7273488421941,252.09118273943716 282.44386332054466,273.16954761510556 282.65706448293594,279.4515495809619 288.1238610792615,283.34939216985765 291.0834770126903,287.1586695772023 293.83674555494713,289.6311727749452 299.6085427643268,293.15936387793045 300.83481908151174,295.1037552430304 307.72952122599673,296.13936954480164 310.0960143203858,297.9018168721959 309.61720988022296,304.9222240590275 291.0068442472605,305.9391171189194 290.64689288184456,308.0340772667529 291.6357735982579,312.14514767171113 291.5368997192701,317.6292472472893 290.6570606128277,320.1488289620437 291.16164786951384,324.61458397730337 284.203541360598,330.06740467142197 278.78145443756733,333.8058818755517 276.2656442117147,338.1733754527977 263.83001871044917,339.72604005263565 255.13496741029374,344.28801510633036 249.76770825330968,342.6793130026475 249.27196901774897,343.9201138354266 246.73462889120222,344.3212299842918 245.39375240295703,342.9656596963531 246.68542369397719,341.87485484268734 240.7659624481504,339.67536508543674 237.9765341427444,341.66596676464667 233.42918755588596,340.15204024423247 233.79815609938973,337.4784323182165 232.52477267261645,335.67641900646265 226.9964440217619,334.1043180432781 222.14113614824686,335.66448355858165 217.45324552668845,334.89670823380595 213.87593317928216,333.5375190173079 210.7435954135213,331.3134879860278 205.3876585466968,331.015832397234 201.49926562791657,328.34517388979896 196.67648310366351,326.5533944510818 194.5996837382216,329.24426873859863 192.82315246982463,328.70910480825773 191.3407345894671,330.26141137637546 187.60025881671453,328.9195048977002 185.28382702687512,326.7732697788907 181.99066290587268,325.4557248929009 175.1092281449219,324.58959475599 171.16249721054115,323.08516929190364 168.40301138809215,318.68047612609257 164.44619441417706,318.24497327810934 162.0416252519316,316.2999982024626 159.86572373129366,316.5631568950339 153.89148130378692,310.5330027808849 152.99793258159102,306.79805627316455 149.95510887795828,304.08184030032317 148.14855188451563,301.1930904781859 143.27061772017655,296.6275089356876 139.1019819864415,296.4913198738092 136.34402436868086,293.46931134044166 133.7113886321206,291.9584393943412 129.93431349817084,291.1519058293495 127.36199246265083,289.7808058843657 123.09945778702233,285.8123694533142 112.43474570549087,274.01296611625037 117.36047898034077,270.2939092368101 118.62913353416087,268.1712088428636" /><circle cx="105.69574596509254" cy="346.43811666455406" fill="rgb(100%,100%,100%)" r="16" stroke="grey" stroke-width="8" /></svg>