<?xml version="1.0" encoding="utf-8" ?>
<svg baseProfile="full" height="1024" version="1.1" width="1024" xmlns="http://www.w3.org/2000/svg" xmlns:ev="http://www.w3.org/2001/xml-events" xmlns:xlink="http://www.w3.org/1999/xlink"><defs /><polygon fill="black" points="43.82238701918438,523.2364221992432 42.15276372982911,530.0198236979179 35.976663140471835,538.849360645859 31.068766002146727,545.0642305101073 28.197267358182504,553.8017253294422 37.70905238088203,555.2367228141347 41.66629186791228,554.3108360959194 48.43155374441428,557.629611638365 54.98990617884557,563.5799207124023 58.64137868248968,568.6849228219266 63.29948935546912,577.5320967955013 66.88997136997655,587.1626037134681 69.67018227719211,596.7736552962135 72.79076046124257,601.5999898902495 78.56569160471875,606.4787597971605 82.53416251195002,607.3296598840101 97.1782980171171,605.7029073409567 101.12612944052843,608.9542083966586 101.34807970803713,611.3504963406618 93.28681269911206,617.3347527577395 92.13237171896883,624.2373659095047 94.87683688725788,635.9757900012273 98.50734819503593,642.1438030405529 100.27576176176404,648.5553535346912 101.41353662309038,662.1286672634018 106.0666716866892,671.2363893893171 109.46399090990548,675.2832345753259 112.04907455509465,680.0990943784159 114.57316785791467,689.2898273040518 110.73821434673144,694.9581329300397 106.45404024671792,704.9736880665554 102.54801269894669,712.9419361213563 94.51380164812116,726.1550938964526 92.9262552820642,730.2091151418977 86.65046737925697,742.6159884469669 86.8211811453699,743.2841215562461 95.74671675799304,748.0371297553138 99.15853812874177,751.0748791959534 100.47630959789129,755.5667323212913 100.29252082155965,761.4049467293423 102.14587667125204,763.3316837225182 108.37781207414321,763.2107218994001 116.28784455392368,762.3415667970211 118.1617576023992,763.8790967422722 116.50682557430503,776.6635687266044 115.13177500627987,779.8338413546603 113.96096400567015,787.2576863107208 113.29055430802485,796.8222211034046 116.12647273467428,803.2451742753416 123.24544987677831,806.2765666671545 125.62964865366641,807.8975802433582 130.06990881258443,813.0163337864964 132.9204127464578,817.8432112474622 133.07237674435083,826.0880655764664 132.22108567693186,829.2624948454602 132.67222377240358,835.1186847144894 135.00343986800425,837.0673609675168 139.26009788633746,837.3601577144378 142.49926878483174,833.4004135966812 143.9338457677929,823.839654172483 147.6747777267204,822.0214976473438 155.33523300687878,826.098211364837 158.7957426357487,826.1368680838507 168.4155936045131,821.9851209685676 182.2846248875916,818.9328138032082 192.4114194794497,818.7623946735947 200.67401159255493,818.0380622850051 199.3074976993044,820.6889282472787 194.45479069014195,826.4862878383748 194.95199446968354,829.1595059873229 202.601722324979,835.6074106236415 209.7410667825055,840.9898751967055 224.8365845806938,849.3646439931514 231.1821780548379,853.4080266513831 240.7045989644532,860.6643761778255 245.46070631679956,864.9578755027696 248.85686544488277,870.3069232695249 249.04103850837194,878.0219142494954 247.94763967997008,880.4046485330824 245.67938175146722,892.0912071202617 243.26850550494967,893.390218016889 234.70392974345205,895.1865636991217 225.13518736982863,894.3085019943982 212.03934591054306,895.7878612800076 209.63259797469476,898.1617856485603 212.24651968641905,902.3377944792696 213.30292708391607,909.4397981175861 213.24825779045955,914.222375509593 212.14813511324368,917.1378098000133 212.11130662982384,921.1223266964132 214.18939596906088,925.6663454749034 217.85976640611406,930.4822625569933 222.87303949004604,935.3070961837274 224.97036537209013,938.7863069082604 226.24150653316394,943.5786156877398 226.1752730992034,949.6947042463972 227.72522861169713,955.292775826434 232.45431205360887,960.6449808147876 245.9502061819726,969.2650437761241 247.38388384589706,972.2794757608453 250.34793503494245,974.4862842813939 262.0845401458298,973.5552161037157 268.7514925229299,974.428940123021 281.0114536533874,974.563206863242 295.1884067510718,972.073757500523 305.5532025298167,974.326830855066 313.2208516492782,978.6728398392445 315.2976553279581,982.6839342750003 318.5987377283796,992.819797047547 320.6874169276451,996.2979818777386 325.14233260822823,1001.13963472599 336.4941520785847,1007.67626661887 343.82510025297535,1015.7451704877317 351.71281298813267,1021.7048662579527 356.75018540682413,1023.9028723532891 359.92389010420607,1024.0 363.53842957386985,1016.9617148822596 366.57013949435145,1006.0989242207045 371.7252684322226,996.3259125168837 376.60966705746176,985.4833742439092 381.20251977274194,979.163969815079 386.07755394627026,971.252491232827 391.71940939065996,963.8794631860045 398.74547790475015,952.2734134738532 399.95978113998825,950.9059661877725 408.9969945515986,951.4936404609547 411.6526930746722,953.7710906107353 415.7381346724669,949.8710405250433 419.2569144629121,941.3684842889423 423.4290091561438,932.6962883391071 425.905539127635,929.5309423042304 429.556412155814,921.0320726006196 430.52086128737585,915.6849869091252 432.26604263402817,910.7641531270359 433.39090267579746,902.4506869919016 436.0539065592718,888.7926511701706 440.72854669920326,885.5205509019065 442.8588890653654,889.5165213879668 447.90072055202046,889.5793787717045 450.82773984664294,888.7784358663807 453.11910220958026,879.8561460977257 456.94959052978277,879.1766795195628 461.25860687188634,880.666582275027 464.2458346175829,894.8687417611527 469.385623354869,899.8071025589709 469.96812057681626,902.881217193248 471.6253531131531,903.0677915789317 486.249929807384,899.5853562512787 488.2124639549884,900.2390019999993 489.15469489272454,905.3791078756227 488.99616791471664,909.4820748480228 492.30683697880585,912.703640904987 492.3746451036498,922.895056115337 494.45581292322964,924.299416073861 496.90109642698576,922.3302089236614 497.4488339360281,918.2350728872731 499.77515274648346,912.8837604473426 503.7300601374439,909.809271916614 509.25540805268133,907.7682582427653 509.4732376026389,915.1876854353294 510.7122722234918,915.9910094922167 518.1305822683901,916.9371557840781 524.8582942135813,916.672318075021 524.5304542081562,913.868968467784 525.698375167709,908.5973845026245 530.083668398439,904.301401965058 531.0206872149074,901.8730258795831 530.3871333942383,898.921131126061 533.2282338720962,894.820385586662 531.9856187899642,888.355177390267 529.5189651209279,882.3673365200343 525.8277988630628,876.9390289275362 519.1820897316346,874.63674017746 508.8498280975747,873.447936919707 502.18234771107785,873.1196983442794 501.1399708853139,867.4470363374638 499.7807559648633,855.0537717241846 498.3456155266277,850.7356959186492 498.82299410889476,848.6562955209794 501.69763734894315,847.2298707466128 502.2511697123489,844.8252605449834 500.02073100465293,841.0751647600632 499.03448194741424,829.7865312162521 499.3459998673854,824.0819226707164 500.6378143385091,818.7457812980048 508.57464664505187,804.5788091771294 511.11395262927806,801.8362871039603 520.6996677059163,800.912289855661 528.6735847459304,801.5926074633718 533.0851452759155,799.5623915342876 535.7488823489027,783.7574776397566 532.5474669366679,779.5611168077007 532.2385045372965,776.710589301861 535.181961532137,768.7793443867403 534.8683940768994,766.7270115848656 527.6513544066833,762.8711612501709 525.26991884538,758.0154005928459 524.2769881739184,751.0716726338464 523.0778686615856,748.9193318602621 522.3633809918857,741.9915551650937 519.5938906919647,739.5227344026873 514.8616376520713,737.924009941831 511.7970627696111,734.508262031183 514.506334702486,722.1073638110531 513.0097593238089,715.7268419652485 507.3956104447328,708.5079921965998 502.490177709941,698.9209524742025 502.5049105781923,696.4672371754882 500.49151869063525,694.1880646541692 501.36392175730856,691.486343045229 505.26635197843984,687.2398928902952 506.9985120124504,683.5648434679458 503.91624979491996,681.1100550149536 502.8322757294394,676.2021435820161 502.83576948011705,666.0002981543076 499.4655668911884,658.8898445093234 500.29494447275516,655.7284389253368 503.63304105658233,654.6511950730089 503.31966071417617,652.3866470611856 509.1692862763505,649.2443145073796 516.1872844224541,647.1066049985473 538.303301267029,646.6097777059798 540.7680151369323,642.2433686809336 538.2455972373191,639.3428869582233 536.8101991799701,630.8331020351313 535.9865154450963,629.4066095190351 534.4043925030335,601.7995444865251 532.8294373515914,588.406629012796 534.3510980348544,584.4733814041512 536.9376234744111,582.3596179645526 547.9860748305626,569.0367679590471 553.7941160811911,564.2304231437811 555.402375243706,561.7597318679882 559.8253672320575,558.7133938052007 563.3851591626824,555.3624941522612 565.8320215132396,551.7241793484552 564.3450375307989,547.8249758815494 565.2422763138247,538.4903512855404 564.8215544569258,535.1637338907212 562.4673073958647,531.7675270413213 556.5064084265108,529.179056329381 553.2555996769927,528.6857327495725 550.0260644725597,530.0500353156667 538.4963343283266,537.4471633416279 532.9588863559193,538.0105694954404 529.7098493113325,535.3824353357109 527.9714424818095,531.3965076876239 525.5267644921553,529.3961713209276 520.3583563278569,528.9050745157742 514.4223555983956,529.9798190932453 513.4876646415302,527.8266632057473 515.8057476400575,521.4614711659784 515.413381702641,519.3818499047443 507.82362782460467,510.0909281632737 505.91217231355336,507.2342521195908 501.0591881181589,504.09411722870107 495.71820485592053,503.0468304135212 494.0116185527957,504.6446179184086 489.93693423368467,518.4552574148108 476.261133339294,519.6456082330856 474.0301470505882,518.8338811702349 470.63454653498053,515.2624519797255 466.89273638598496,513.869093344473 464.625232492762,514.5870801622318 458.5592394731233,520.0154943067394 452.60312968795563,520.0660047526062 450.6287649484907,521.720275785289 449.99015437090594,525.9954493475623 445.6410025521851,528.1924787179832 434.948004904714,528.1633575977066 429.9915030635812,530.5916825977848 429.42775345025046,532.3261122223128 430.28597997215644,539.4922827838882 427.95922645737124,543.2524096737966 424.08838995066657,542.4773257486409 418.12368485650796,538.4924907652294 410.88301559520994,539.2892834448669 406.2148225938074,541.4273131932778 400.1438452393706,541.9631002136634 397.45255740199815,541.3036250984718 392.2611048992964,537.7729798120265 387.6487976334261,533.7028157123343 382.2062870075318,532.4839028047792 374.03751624260286,535.5160515803198 369.8816092147494,535.3252503992933 364.7953089916725,533.4190571843781 356.3124725295696,528.3966330747519 347.32792555069375,522.2097086803792 342.6262150011259,519.9527347046768 335.61701605360025,517.8100991084007 325.494307521294,513.9757769858613 316.1187798867304,511.7595582721733 309.89925845736366,507.94765029267865 304.4157377275402,502.3344669460017 294.49984880706506,495.2362263803061 291.4545579370032,494.422762992691 285.65956985479573,490.8957926543144 282.79662606267743,487.3001986997674 277.1079406819481,482.6927235368714 275.32235164962157,482.7446362416572 271.02101663443597,485.30288820465785 268.7141553114321,485.6293591630658 262.19134997628066,484.1674945340279 258.15523848881037,482.0666835802008 257.13450243493605,478.214868550221 260.5896177264879,474.1988543040833 265.2851482399373,466.69898371650345 269.36248697311544,457.79802026785853 271.35472878046875,449.2283558969316 273.6226550761901,443.04401075578335 273.42778253823025,436.46760940471063 272.27028545652206,427.06408234697085 273.28795316465363,420.12875523255093 273.66307861447507,412.8720056041833 279.51688768182413,410.2070218838603 281.76631744617345,408.2162044984558 283.15616624778914,402.4317749379503 285.4861720345985,399.14822031077654 290.9733946882687,395.4235284432606 295.3919218306082,389.534543436681 300.0460840398353,385.8119391901206 303.1149119430042,377.3318162521198 306.49771192434014,374.5103817476037 311.10372486386876,373.72410052180226 313.3722279796037,372.1121713426303 315.9273225235877,364.05047146421987 317.53554696625406,356.41643171729083 317.9032065727623,348.87914065707866 316.8003995943967,342.48115118184023 315.36425695227814,338.0655821902899 311.32483011667114,333.1650411078788 302.4281707034711,329.838592731729 293.8508945695891,327.7318869226017 288.41678670835387,324.23654907946104 282.80576676109763,322.694380343112 281.538168785722,319.3934009507051 283.08212331551107,313.95314622178637 283.39549896659867,306.62079657667607 284.2180944037594,302.6327941934709 282.8273306541981,295.8036682670794 277.414290509713,282.86067422197345 275.922535902377,273.828352994531 276.47918049445616,270.15197483359805 279.6920988404385,264.2519124734973 285.3638633455866,257.22572330138473 286.12325040344984,250.61948901479605 285.3336650267709,245.09009467592193 288.10694633578385,231.14303287464236 285.0697555613251,225.33979232685817 281.2420988069662,215.08821280203279 281.14257461544776,206.0915965184481 282.03431226962397,188.20734817460607 281.3228675211218,181.5519348323022 278.6281015031842,175.198565235189 271.66452440269745,167.61922220592942 265.8817124643497,164.31237780822482 260.1581680962679,163.04283692473268 254.53302459765848,160.17704219147026 253.35834063821193,158.21499028502012 251.57631630485272,151.7505138930601 250.04237768792566,135.0811579185014 247.5640582020666,126.72901222562825 245.092064218622,110.01030295190822 243.67083363298832,108.2580385587562 241.32878592674365,102.60683741585649 241.5144092228278,92.9440380559962 242.93165831979837,88.02055355431264 242.84541211140262,85.18952267944212 240.101974248756,74.8804023749642 235.68566612173683,66.61909109248575 231.4687783791525,51.63879348993919 231.3983098972273,47.91448683999636 235.0901742340197,35.141175605567696 238.9685551358114,26.248899259440236 241.73761142747202,16.691427775967327 241.15878025621015,14.755428368392359 236.53907477163213,10.155124206859455 231.06568264016943,6.836570924998 221.08284506454328,2.6709933431844775 211.96699663150065,0.0 204.88118043798357,0.32391873125084203 202.8474480143035,1.9353346013507462 201.55493001107183,4.945487046239123 201.77305371845168,8.489067250654784 203.1696414044986,11.705307759644711 202.52278501375758,15.45251571135077 196.30229213863018,23.933652165303783 193.5636013910775,31.538171155282612 193.18089875832896,44.80483819445806 192.80094379111233,47.48148485297111 189.6552110711929,56.665539968564985 187.14389095758997,59.66927408079255 181.85119964169886,62.91412645337027 177.45040965381472,67.47193779056761 177.01126898259366,70.44274137591003 174.34035384001578,72.09920222552739 170.27170204459685,71.84176662207062 163.91280989465247,72.98509671792647 158.31902706686313,70.04533336234181 156.4800887716615,67.97720526552871 155.76981663616752,61.36657661025572 159.96759951145876,59.58299215053739 162.87886616323408,53.0690870500664 162.76029669658132,50.268332009611186 158.84794786371964,46.341030540870406 151.18746871153175,42.997471713784535 147.37349306553944,39.28532275933367 143.5624175013818,38.64581918218573 139.62194731406083,39.600343595474556 136.91761982619514,38.28559313580695 132.12700662280355,29.06722352735551 130.60885164743922,22.805639862168164 128.83060242337683,20.89255779319103 125.64645276504653,20.378606851638665 122.08677516264565,22.033569428516557 114.7168243587352,23.80023456306685 113.0694384438382,27.748180036785698 106.08087398133485,26.837807227885833 103.24230288581076,27.533565914863175 88.16274536695305,36.63036860071202 83.5789610491372,40.538451608783134 81.17964529894653,40.948763389156284 64.77986130677002,41.31389559676654 63.51037475776269,39.65556662078495 61.85913862550043,29.70687896145489 59.84607401543468,26.096898271753957 55.416820518302046,22.225069816842392 51.4294057159607,19.86961482441086 45.06472765727739,17.95424760834817 40.866517669164175,13.619147349786658 35.64799899954707,11.82292172507448 29.409448307564187,12.086727736543594 26.609368976943628,8.89483702767086 23.427502832896664,8.511466302899748 6.347648350777486,3.175853682054253 0.0,0.424866297632434 1.9290691593616445,4.744612282818707 5.690867452967665,8.9162439769608 6.838757216614642,14.773304895290948 8.924200534476155,18.640027673104214 8.077758094043089,24.600599602277043 8.715332671408216,29.61147129384915 3.3970101477940915,33.457964791374366 3.8720125321196526,46.41127743349887 7.113963401667738,65.33700264989409 7.814274212771032,74.12608742911561 6.857235591383181,86.89657744421811 7.47190551105114,92.65218212349475 11.014041080780729,97.22820566472774 16.80164789316785,101.83977747890299 23.750261460328915,113.50425483935896 31.619201330765918,121.86274079622888 36.031802071293285,129.6364470854371 36.76534489630407,133.90043640811098 35.39275909741151,137.33856458127525 34.72788225990479,145.845668894053 36.27759096126251,149.59059919207698 40.45593596502955,154.7026074749067 44.92018775592228,159.01694484918232 52.322391982511114,162.31409754433764 57.3198698439471,166.1111303259553 59.96240641921972,167.21381505967508 62.827395680497524,171.510610762311 65.87671969022585,181.13798773457813 63.1449316031712,204.23600770203336 61.39675278708767,215.11505416894215 58.57602047265462,224.90868859002944 54.55924009846026,245.86474748440548 54.18956799464535,253.04009346839962 55.96854891300525,258.1184189793198 60.91964463052632,264.52636723747094 64.96246434499089,264.9508111679206 66.70680144217928,269.33491847419316 71.59830063362233,267.9134024737773 77.97436952243949,270.8693606430652 83.86860677814198,269.3288563935363 84.2239353931796,281.5484639879422 87.72446290016096,286.53635345210296 88.47447253214256,289.9991045016815 92.92265977879818,295.06971064231584 96.26210800985737,295.2003472564661 96.05297818555562,303.5048221269004 97.27742831157728,306.73537094773883 104.56981444256253,314.79978219032375 106.10691477118561,318.5070483804378 105.71457384143628,322.60779511371777 108.62814893998731,324.15471458817717 111.22309020781158,326.9597065027323 112.85298427789809,333.14711204891273 114.2826074891413,334.55789633657605 118.82591609555328,331.3098059818983 120.11556339696806,332.5537850657896 125.60360987383017,322.3027692547611 128.32406535473095,319.053140684765 133.1854761731638,315.4759723781416 135.26363731744186,319.8689006527934 135.5962719506726,327.35135945780746 134.53775862525862,330.8233211002655 136.5268001916401,338.5080744859998 135.65664808935205,347.96161378680745 138.14055679232746,353.0686164078652 138.3855543174871,363.3549623286732 135.94016377072043,368.91779030855105 125.46374940812922,378.3728953634668 122.21426644740752,383.65235113524807 118.92352371965546,392.6652125788902 111.22085514632516,393.3608605840885 108.01890820944892,394.3862667132149 105.8665662892472,397.28397730539507 105.27055837265654,402.87158627754104 106.12251464535825,420.7087097468617 103.9109872441423,425.83040907620955 105.41034113400023,429.7846255487028 104.15749262143207,436.7046675776227 102.21408341347596,441.5383023809959 98.68294105264836,447.8642743087879 96.99922656436173,453.1525622737263 96.07901481893633,462.1852928774316 91.15928861961376,470.6132056817662 84.16378991300387,477.1545273110437 71.51144686031115,484.2560292448736 65.34970057646638,484.92590647450857 57.52090719732885,490.60912194120283 50.275350809339365,495.3473596238209 46.67652630824786,498.2837131735997 41.950216023202614,504.7663132578981 43.06558470559219,507.52982183523716 48.14837369843771,514.4131456650973 47.753928049655016,518.315599048047 43.82238701918438,523.2364221992432" /><circle cx="420.9837831850273" cy="619.7798341325952" fill="rgb(100%,100%,100%)" r="16" stroke="grey" stroke-width="8" /></svg>