<?xml version="1.0" encoding="utf-8" ?>
<svg baseProfile="full" height="1024" version="1.1" width="1024" xmlns="http://www.w3.org/2000/svg" xmlns:ev="http://www.w3.org/2001/xml-events" xmlns:xlink="http://www.w3.org/1999/xlink"><defs /><polygon fill="black" points="601.3635869925843,0.0 597.2807222535727,5.778024671611206 592.6145733857733,14.639655303875657 587.2522766185606,31.292303299242803 587.101160469057,33.29658844607991 580.8943105829018,37.42440646783086 555.7975430597721,45.252836701660385 542.0976815280642,50.793166176944965 518.5159798080609,71.66313405313178 496.65628086218294,96.84835098188785 486.6642531351791,107.84319074973769 473.0427326336385,116.96316552612518 450.38547542433287,116.09624503129191 431.7909838989807,119.06124083036013 420.88729229254125,125.7228293952088 412.78789321410886,134.2805416252055 406.6193419659684,140.41284532155396 400.0267097468763,145.76310021878362 392.99920934665346,149.93214754776204 382.4489987776229,155.00873253539044 368.2688894543804,158.603581155391 352.2703215847497,154.34063408866325 335.08850441960476,148.91575719691582 313.93922317252753,143.9851568425504 307.2886220987695,146.54697930100235 299.47787737548725,150.33492241764282 292.05415065689016,153.29926366656252 281.1057733194485,157.96023932062872 263.3938897586237,160.81222656223565 256.2449910837819,159.82508704644226 245.68280988116138,163.6618409789686 235.6614618437497,169.01197697090493 230.01902001667514,172.76756213600981 225.3104484126751,176.50018919682907 225.79194366884758,197.93881014283738 222.45499783850252,201.25669393461783 216.64545265555938,204.82519657447062 207.56519013404971,207.49668425771608 204.4945512249233,208.706091614696 192.92597357784024,224.63714319599364 183.72071344390946,234.1516373267251 180.0892645319845,239.83444662554405 174.65640088958216,253.7384656676859 170.40034617494558,257.4606356502902 166.9106378291629,261.3559519945677 150.59737115400867,259.59103123388047 143.4238472112568,265.1029539176004 141.29866186851496,267.8269010733784 141.38209726123034,271.65391935205423 144.60093280622468,277.1480591255288 144.5204757602124,280.01582638234265 140.79635003660474,287.1790771411702 135.25613521608332,296.8812344736508 129.95948252811743,304.72478539939993 130.38434834976445,311.1821782960752 131.8256343205914,322.8481820930932 131.00486575747303,327.1718799895094 119.85956427073432,335.79681641362913 116.97272203173904,337.2385744433999 113.8580358237071,337.4855609162123 108.95458953556154,336.8168410950044 105.4298247348888,335.5426942802609 99.53797801083229,325.7474083827252 96.71611480976662,322.1071376917415 92.14728532192525,318.4956020540383 84.83271273545569,314.37565912835 79.17073918571533,314.32884978898016 76.50356944301713,316.92491944687595 74.86055172800225,321.8412910827335 74.39778542318271,327.3167610199373 74.67018775132296,330.6245577680305 76.68989490304365,333.31090693009594 77.95054809540255,337.17325041757294 77.62747128667472,340.1169092905956 76.35869765626332,344.04349537001474 73.5224660056875,347.82537154332374 69.5066508177809,351.6305054186216 66.47420221096596,352.92557950628145 68.54801101451284,361.5259052654635 72.60194541468461,362.4025846880654 71.49404656050284,369.56146845886985 73.25825461117935,370.3069994424932 72.90522175359273,374.2952897154071 70.6086225657181,375.7718350966354 69.09725261292633,375.4374739624617 68.0877922069602,373.8911287658266 60.37928327008432,378.56933393762597 57.4977095567236,380.7943658065176 54.832981980261636,383.590344558821 48.89344837075222,388.8164375435671 47.62828382806492,391.0469249125897 47.11016765478315,393.9668981703704 48.91207827526953,394.56330783255544 48.609703641053514,397.13131333020397 46.641795780674876,402.18539167064284 43.948292654817756,406.1138820732939 39.37702906001889,408.2547227648888 38.58116139228337,411.0612077183398 39.94961038762787,413.26569354237597 39.13202807771286,419.854566254519 36.622649940862466,422.8853806559322 35.10760419879915,426.74918227458306 36.651211060788626,430.0735481908837 44.065513038665785,437.33487648786604 48.76251318976328,438.6551911071932 53.3566886739492,438.48928332114235 52.737295919664966,443.3386649797868 49.81887801976682,445.8217506442985 48.873100417566384,447.7792940741724 48.66089917407571,450.77231735917576 46.784545428807256,451.47725105245036 49.82367319355539,453.3198401212554 48.02495269559282,461.12205237896285 45.899297265323106,462.13123497626793 41.77564440602476,462.47537481740005 32.0894992898129,461.437246903756 30.791589692047886,465.0388679513525 27.0717576014736,463.7458967685827 26.49142126630317,462.7157436256001 17.589207482881353,460.74587325497146 13.317537420510247,458.8296793445154 8.216785859702703,461.07021186182305 5.506891464875463,463.3716495445052 1.320458175132621,472.4255221074162 0.0,476.4749264381052 0.8938587205768713,481.80944685988504 3.579844274207166,483.2835592572034 12.007771005264322,483.45629325265674 14.54874098179699,485.31001296614585 16.53293911412484,498.47937315451554 3.706478883034289,512.0077156050054 4.256996480647303,516.0097736381034 8.035101139604308,525.4881391117228 10.860471654695974,541.505864343249 12.00759434690941,543.7774609275205 17.974901705517123,545.3630573231501 21.59213980173677,545.0700801483742 38.67052665891008,541.037330270497 55.360432276432405,537.9439474679666 59.73284030922589,538.2286462204789 63.886244461226006,539.1850255650761 67.3717167773251,541.3065745730787 70.92890769109985,547.3432792415086 72.84922714723271,553.4335843739268 73.74581515294315,562.5980603963321 76.45887909918679,565.7002678050213 81.7382869295643,568.3521463470217 87.22602190937751,569.7548852516081 93.76875593666787,573.4424771037071 99.51846502819447,572.3552968966668 107.80204392511241,566.4239127740982 111.84859895869135,566.13839532886 116.40002298277157,567.5721610572969 122.16838801265139,567.82493920615 130.71011585244673,566.8750773176337 137.2388237058151,566.5455745503791 146.09748939688862,566.5420419226748 154.03101531647363,566.1916166480717 158.80711517487603,564.3677050595737 171.51724986204584,555.6823766863279 180.49805735786475,554.3532749655262 197.8846228017964,550.5512781892819 200.67770270426146,559.8809911213558 211.73166941631968,555.1436142207348 214.9042359805665,553.1648216952754 222.01849223169415,551.1985198391659 229.12900169777657,550.0167096831223 233.47521679357058,550.0181932160847 236.2377074169448,552.4024332810975 238.22355767241825,555.1791153155922 239.42347029916877,565.0918244308232 239.41757362132904,578.9589285359255 238.63241490776855,588.4700476057947 238.63573582073357,596.7897894491048 239.4292511980193,599.9647918373828 239.02851755373717,603.9201746831402 237.46056111171725,609.87052782776 237.05320222396864,613.0308834162902 237.46992987937813,616.2039405042315 237.46366802813816,620.9577513139164 236.29546617654492,627.4471009307849 238.44305221920965,630.5607520406209 242.31611786966994,640.2200554756671 241.78959653371862,641.7633768157663 240.120486539917,642.7047521948695 235.38786022602534,642.91070151699 228.4882900105695,641.9115182705 222.99886020577742,643.366375543867 214.07266488600112,650.6551141095603 198.31296845039697,664.1508744495077 188.3826208302421,666.1791312510888 176.39626693568283,679.4733734814772 174.43888143855676,682.7087870781202 176.05573834707678,686.284377505172 181.93229203406568,688.4737604880713 194.7374380087753,694.7387294183582 205.43726041654583,703.0092508898031 208.26621529276355,703.7125463457294 210.6144615135807,701.1231149328544 211.308655902053,697.0196949335494 210.9196565569873,685.4088315998058 212.9216140334348,682.8874913932603 217.82521361372258,682.0217567338678 223.11395515102882,682.0340544583435 226.4038885289433,683.3040669708689 229.62886109821739,686.2660100756558 232.93340929496543,690.5208275441946 241.04992035805853,696.6474448210588 253.88966232484202,707.9210371118681 261.60325145839573,710.5534258999535 291.12370932696695,706.9809831690709 301.12181356136955,703.8185233366121 309.54620201620617,702.23492433697 317.9780128530613,700.1216571163486 323.7705050847268,698.0079025841028 329.23922977150625,691.176876088754 338.3536301841856,686.431117373495 343.1009959905532,683.2566832390269 351.4141971245913,676.509367971423 360.52571963029993,667.7722425379166 362.89738698821003,665.0013728129859 367.6623442071461,662.2145465051182 372.4237559004132,657.0506439016388 373.31982537930594,657.0591450819951 381.13798047514956,651.8841134526294 390.6317198715949,647.9019070376921 393.8112729598149,647.8964799382625 398.56638064272045,649.4668723775295 402.14431341585527,653.4210780141439 403.72433394430635,657.39284779827 404.1442561726937,660.9528120976468 403.7434323452841,667.2894275231943 402.94128891538617,670.8591243106221 402.95285513624054,674.8193866128954 404.5142603109438,680.9801742248487 409.81374718353965,685.7200600467636 417.214309833323,688.3322103232989 429.8989701286001,689.8714504302154 439.9414314618198,688.2499815638994 448.38088956570317,684.010599947072 451.7208012966798,684.2593841639692 456.3271533514908,678.696779338773 465.84818639820594,677.0754322178698 471.1313184105697,678.1138675531943 478.5374772091473,683.894988389571 482.77037258980124,686.5193800281093 487.53668302957817,690.1957276523001 490.7025818472181,693.3625514253958 492.8268435957796,694.4055733388614 493.86266650484964,696.3410116844568 498.2277247477489,707.8288613751781 501.003422860797,712.578149222514 502.5878754810231,716.9378797884701 504.18448269937056,719.7050635811802 505.37130885586265,723.2705066439887 507.3544230439673,726.8252765823624 508.9442732756837,734.7582874874137 506.08502661202976,741.3366078952463 505.557912155129,743.9771770636603 503.9852003454411,747.6699817149118 501.82136557834883,751.4254740365164 492.6858097455992,757.3893201569947 491.0979200335294,761.7582628432256 496.8866124782239,766.6251436024197 499.7330799877119,773.855356669299 507.18634769711525,780.9221454558244 511.53534063437894,787.3792903837561 511.045513205589,793.6546413909539 511.38771138845107,798.5354121472964 513.7425756798547,800.5390382190731 513.7357559852152,804.9009873162215 514.5317520644282,811.2454176716597 512.159295998608,822.3482875602936 512.1615601905814,827.4966075557226 512.9692458219799,833.4535005197893 512.9501781588857,838.5936894234037 511.7837085732146,848.11479043998 512.1856180129926,851.6819380067959 510.9740821514916,856.4429959351753 510.57878345313964,861.9916256388916 507.8228475063708,875.4771838806387 506.62310336163574,879.0536613164195 507.031288346209,885.391903022478 509.0146032372174,889.7471779789433 518.9254664035903,889.7163510936879 526.8544812418495,884.9511347215241 532.4126951805993,880.9692849650298 539.1463410578401,875.4042979651864 541.9297934171144,869.8559741769351 547.4566525983508,864.2318192836757 549.0540613965794,861.1240461327009 551.8226471718948,858.7344057820421 555.3872803048099,856.3562932311452 559.342577254004,851.9958773988701 567.6652901139577,847.228745827383 574.396118304967,841.672243493048 581.9112039198602,837.3234652762915 590.61968233342,833.7503024254179 596.1504854236034,832.9560442974587 602.8672471312992,831.3747940489753 606.4278412482686,832.173036697532 610.3783512957639,830.589427469329 613.9304249847303,829.8040247056166 623.8122389443768,823.4711524345205 629.7425142978537,820.711829605185 638.0291839069799,820.3255679602428 642.3755965072526,821.1221293029687 649.8837540573063,824.7070885248896 654.2300650258601,827.4967516858808 657.3819162231259,830.2750063460796 663.707884717709,834.248782918116 667.6571249356991,835.8534220771982 670.830587601234,838.2435698457145 677.1361457804784,844.2090510923649 680.6855807787068,848.5725455763122 683.45052552774,852.5461806290546 687.3884798586986,860.0878309159503 689.3775005685856,866.4342575210998 688.5913465900184,870.7991664435016 683.0763245477638,875.5334643656681 680.3201602680298,877.5157947199061 676.765365682295,881.0640268329157 674.7844936313736,884.2333357381068 673.2195438543699,890.9709554206756 673.2175232877441,895.3348412251939 675.195243778539,902.8591286913522 677.6840236517469,913.6311962191448 679.8540539451653,916.2265437554247 683.3912791439392,917.9917906456642 689.1094798379279,918.783351908167 693.4088089950819,917.5966446055033 700.296435387965,916.9920438760635 703.3837182855673,917.9591433285833 705.4928721024751,919.7499895298996 708.8085685041013,923.6330788698822 710.1765999861295,926.4179776736306 710.8939732686721,930.4868697722166 714.6466540034841,935.4548142856858 721.1954735946981,941.4885317917626 729.6947320360447,948.2982236200844 736.9389515020708,951.1821880583549 738.8234555341515,952.5893640444135 738.8165379014047,953.9053009453364 737.0326805951439,955.1979295238538 733.961156621072,955.705918976302 731.3778636283197,953.768591788977 731.515028118279,955.91936637462 734.3397173337379,966.4556055023548 736.3711129991332,968.7961482231528 739.3974037480727,969.2557965132901 740.6590270612265,965.9139553967701 746.9294143679958,967.4065721518471 749.6233713185869,966.5190608691523 749.772015918451,963.9822372633926 751.8982121288693,962.4609965423853 754.9616113928487,961.6346907555845 759.1821665352494,959.7097616779006 761.2648239321974,961.2411893501913 761.8966341000875,963.908197847845 767.9333750089255,963.8895996238867 773.2152935166254,965.5277850210297 776.4159935529456,967.2096883074053 781.2206792970121,967.7327047482247 784.9639453413598,971.393822270135 786.3478491048379,973.9010466814503 789.2028315531209,974.9122088695037 788.0794765466476,977.6250473574527 789.9492944216994,979.9985023743617 791.4215147293148,980.0014690267103 798.1235584525884,978.4893227527101 799.2298194684447,978.9478943922254 803.4879376045392,982.7454869921014 804.7910311893405,983.340630148935 807.1504660934189,982.1703058615994 812.0361456244024,983.010046755048 813.5400396287672,980.7866574658074 815.8203851836178,980.0972072076016 818.9264820239599,981.631985542346 819.5318097301239,979.4010957600822 821.3015945730625,977.1602197929785 822.8250413663471,977.1805181405243 827.3577179864368,979.7632866374627 835.3975852762803,980.9060984892986 836.8990535340724,985.8944577306664 839.1077352458785,987.5010049507721 841.9790475863313,987.5043733199806 845.0326248302815,985.9276482287847 847.338834800743,980.8001568037814 857.0323771366204,974.5577593779585 860.4965704765156,974.9633610879359 864.4822351960225,979.6344792583802 867.8964542254029,982.7542072638012 870.599210449675,982.573007571093 872.0434935940884,980.7896980359006 872.051438228966,975.3427907801142 875.6247568046098,966.5012540053746 875.9746676555415,964.6676612943578 873.2630351980292,957.6595764649272 863.6831084592121,947.7642236873229 858.148310905252,944.7615648888594 849.2369979825384,931.9478161561537 843.4179048534107,921.7142282919027 836.6042556062115,915.82438315581 828.9403430714476,914.9002075817942 825.6485007135396,914.0207978260094 824.0285065221526,912.18933800695 824.3869806611898,907.6254691690451 825.7554101040724,904.1604973952244 825.7100993454702,895.1013207110474 828.3120256573644,888.0953340840041 827.4347817880929,883.4932751277188 829.1193633333222,876.553041049778 832.5770227876592,872.6141163791561 834.3618251005561,872.1189102914465 844.281466410207,872.7508811082282 847.979110468537,872.4431799096717 850.6365436903491,871.0668655892068 851.9005176975005,868.6919382216422 851.9052916985263,864.6456906947316 854.1011504896238,861.2395241524889 856.3910126346376,854.500521177544 858.1951535552157,851.3139541075772 859.0545158057956,848.3618467818599 857.7905090982558,845.3472012576849 853.2774675208717,841.8400871947072 847.4102499945812,835.0334954363803 845.9013895634858,832.0149202282555 846.7138163023569,821.9108006912058 848.0893244541498,815.3397824183367 849.9452863555329,809.2037518253684 851.1802163705464,808.4030477734319 855.9371224451509,810.0085116818659 857.238973400519,809.4463105955773 857.6720526594988,806.2081721381724 859.9483240920391,803.1679602499131 864.2848293690622,802.3843456684881 865.6419791981793,801.2620630072875 865.2333190524516,798.9421439103565 868.5881611822256,794.6987514833339 869.3476245054625,790.3070928499129 872.8870711588627,783.4095546158865 874.9742154814284,782.1084528221783 878.2055021064281,781.2537693164411 877.3454070454604,778.8578336230196 874.1667948620809,778.2655155256167 872.9154709108003,775.3509588515484 872.983138197028,771.425698826639 875.6271110243949,769.2138976866377 879.2046157236796,769.0968453678695 881.1345245994994,768.3981503059399 883.2165402148739,763.8894415278318 888.7524334231871,762.6247470650974 891.4204872367737,759.078767099502 901.2527524932256,751.0953486795224 905.4689031780356,750.8703482557074 909.614536966396,751.366476544697 913.150891542634,752.7540212008056 917.8931875466399,756.0799437729767 921.8067124313652,757.8149596756366 931.0176652287767,757.8126786754507 934.1912152744162,757.0896067385152 938.1784737576215,754.768874739359 939.815131221437,750.8315976891896 937.4689005118873,746.3842926226027 937.4313043891011,745.0105923960081 940.3882393822997,741.9934131494906 945.326478157568,738.6918395574769 945.7612887835812,734.8358356983894 951.659404478322,728.9795186772997 952.4082194685545,727.6447176032524 951.8307009167711,722.9708990647912 952.7563378136304,721.0035182083893 957.7275256360732,721.1866598649772 959.5520875210855,720.7871095444231 962.3414885801338,716.5289259939486 969.8832453279557,715.6049068781228 970.6868858297207,717.3845935343802 972.8572991934712,715.8011368719594 974.9618158698931,715.6028746602567 976.5809524871618,716.5835355264162 976.8339927425393,719.1150934025043 978.4870664197126,719.8959313428985 980.8525918141243,722.8168738582008 988.1619970888542,726.6970449213311 991.6484193690835,733.9773532454867 995.2654446884616,734.9524756066996 997.2388972744149,734.7385156022135 1001.5888686872613,731.2419099108386 1004.8563103060683,730.6338377763608 1006.7371196298426,728.2607019491812 1006.9966585041229,723.6345231891371 1004.4561222950994,720.668711743888 999.9701962271112,718.912197405893 1002.2750608772716,716.7071529658758 1001.2216717483275,714.4157865770485 1002.1541736309794,713.8329813709938 1006.41936106629,715.7546656077238 1010.0778684531713,718.5802923758016 1012.1832931700013,719.0679678314157 1015.028110141305,714.329747699142 1017.7958895159193,715.1982888315235 1018.9776887739263,718.7985026531114 1021.3197096177375,718.6343897596254 1022.9025645482293,716.8970748295953 1020.4796261536629,710.1462447328543 1022.4415611289289,707.3728315980313 1024.0,702.5597230512349 1023.9943596825236,699.4453841131824 1021.0481020333034,690.7378201928025 1019.260827561361,687.3742039302741 1018.9731299724581,678.2047901248211 1018.0631747529937,674.8062247760326 1015.3515317581147,669.3777133042529 1015.6863015235903,667.1098629534092 1017.769481194414,667.2314010989481 1017.8024844634307,665.8470244237321 1015.7049833057075,660.8889972401191 1014.2417855375606,658.4812326908523 1011.1507762048949,657.3346802386593 1010.0846097516187,655.2841224597487 1008.1046987463963,648.9807783423418 1006.7719272927259,649.1183082532448 1003.4441596275858,647.8467890063603 998.8384498093922,642.0644885969268 997.611056780765,639.7209099137383 994.8347884436657,632.2758038826896 994.4803780533458,626.1172640640993 996.2000672766684,624.576966455219 996.1077973097654,623.4364691128648 993.7707299298661,617.1031649781198 991.6640626075293,616.1086841603969 990.7351696790132,613.1584179616425 992.3003331078731,608.5996404509708 990.6554737878187,606.6065923361307 988.3422773687502,606.9787805756682 986.0509799879034,610.3143311341968 984.630925969737,609.8280982264339 985.015937889556,606.4746728001413 982.8221246841529,606.3851863977437 979.3092499873727,609.040346817009 978.738615793896,610.1196940585619 980.3937418980513,614.3122428113218 978.5952778234389,614.8895847350408 976.7444376662536,612.4628582771621 974.8345147687261,612.3169441135904 972.9938660586748,615.3820876894854 970.8535953778578,614.9952098101894 969.9732711791434,613.4269168999324 971.4206018261973,599.4107998152775 972.1964424146234,595.7889389785909 972.0836232624536,592.4787580284369 967.9051564885643,589.8795109737068 964.6641161936093,583.5933429729648 965.7629166736638,581.3252569211294 968.3636074125494,580.6860649099453 969.5943787643066,579.4795250616894 969.5819974182609,577.5603628654084 963.1205786874283,563.4778326248768 952.3261034064808,544.8128134041373 945.2086048999262,520.1248577881988 943.9438068558479,512.2759624780973 947.1754850820319,498.3803491424825 945.4243871630836,489.15453195909276 945.0192002236251,485.9267692883661 946.2789009128929,483.60592063405835 949.1796111151378,481.7360648227988 947.0014155172003,475.8232479448808 944.5313553448758,475.98131071467714 943.5924496535489,471.84309840303195 940.1051785351137,473.4799920816781 937.2631108262226,461.6037875063088 937.8593217724667,460.29560260394317 944.8493622118663,451.34757400315834 951.65530701735,449.39226500175994 957.9956715675381,445.2913321336804 958.3518451315509,437.20391064719365 963.4895399257895,436.00834685535733 963.5525906837457,434.63525838580756 972.1569419672147,432.578786515228 971.0145176971719,428.825077841513 975.6620061356153,426.88693639534506 974.782023400278,421.2098610082809 977.1210865600576,415.32384240273655 980.912841757146,411.1750161626928 985.9180176033286,410.0012310829545 986.8141036493811,406.38092368626985 986.5610086157013,404.6102354616862 979.2321309352046,397.2350639318032 975.6716061380296,395.80555197790943 977.1597725787034,393.32055530817183 977.7044814182434,389.13250593362466 975.8825532141815,387.2965765865574 970.5211185882139,386.1851583706174 967.5867035030708,386.0488685870206 961.1726106485729,387.37874414696137 960.7493600113874,392.2671484176283 958.311474414926,394.2404641301383 957.3028600886058,394.2286512609229 956.2080133446921,391.4090973001852 958.4589151566106,387.454025086784 957.5271979501092,386.5166343366544 955.8491946158829,390.2171724185581 945.3593907942821,386.9122383734152 939.1889789405891,383.3888561224559 927.2343673183227,371.91930890885703 924.4246657682189,371.0938958549432 922.2511871756011,376.0492117108157 923.2998185702205,381.6111490187425 916.3512505683274,383.1126843823156 913.5926403490771,383.029220037753 912.8017583529918,380.9152496380965 915.4176287833326,380.19853088087643 915.3440708762972,378.64247722059054 912.2558996350791,378.4677320568361 912.2722298465887,376.8089190779169 915.0051134658827,376.31725915023696 914.7013879948478,374.15016724419377 910.5592571618607,375.1680806891959 904.6417292639909,373.8013547149046 903.3244782340807,372.1478841712187 904.3974139389821,370.10396319881966 899.8709687161022,369.3336409448166 888.3455600510222,369.6877162962419 886.4686185481347,368.7652460205479 886.0083714570413,365.6789703623888 869.9137735245981,366.71258952481105 868.0262867894969,367.26000471604823 865.6897865279678,360.2438242551327 865.5215316429105,358.5399064980562 867.418697108386,356.85096621340927 864.7220863500426,344.7709872871069 868.4019327390466,342.4682893502022 865.6496217434067,332.4752834275272 864.8884039324057,326.13406850820786 866.1609569986514,323.52823531202705 869.5592291138179,322.0959704547528 880.0952052528413,319.93361949404016 880.0127102661121,318.3968352367132 886.8707301275381,316.31488747183107 891.7291260478574,312.49910069836915 899.3620369637756,309.055159659924 897.9944180519904,301.4301743599267 900.9303416720203,300.20856199093953 899.8176192953558,295.59418684832895 896.9738499612018,294.94738599005234 894.6467243704749,292.76812139606307 893.4553646415422,287.11484345795395 892.2112758726423,284.7174737247401 892.8826623606611,282.53410047846114 892.0443179478297,280.50435818554445 888.9259090688513,276.1037717032167 885.935223564706,273.3960487476252 882.5356630468931,265.769296199683 880.949087378324,263.86710071789787 879.4208870483039,264.10757684302155 880.0840029666024,260.84543897851415 882.446256324082,257.28799077606527 883.8545275185837,257.488246461353 884.759845346681,259.3588348505069 889.7446424517091,258.0417417271444 889.6138481484066,255.87162494375139 888.5163514778419,255.85316618884372 887.6742777164957,246.63841170738897 889.2326584889253,244.89080957524914 890.9208914948283,235.62768522189833 893.879640634593,234.57495435378212 894.0264854573021,232.50791313405614 892.1366298062223,229.92071389275588 887.9629833378634,230.03474342340508 887.521850043673,227.644832637656 881.3995816538496,228.19921277899743 878.6133462986338,230.02168706457962 872.8825768438934,228.1630745597979 866.5082564814005,222.79230870200354 855.2883982252589,204.3394183891901 853.5109544108481,190.11783462820313 851.7115715716831,184.03810735116247 848.4423230177316,178.0863170202124 846.4513904337466,175.85063527600164 833.011518277889,173.15946255766926 829.7206677778274,168.24022817743707 827.3123325931361,157.97464449941867 825.876532375118,155.61310061943414 823.762544124762,155.13560463688043 813.1114230234014,155.9851784364124 810.7598206612462,155.0071930284679 801.1855978259798,154.76871451315424 798.9124493367833,153.6794975084515 787.9528003837138,155.51751404828758 786.9838511918248,155.3444411430637 783.6378240171092,150.21993955930293 780.7574114355316,149.58233170141966 779.9669730821747,150.37626955226074 779.7841480490057,153.09766502050354 782.4258235191093,159.25427076910194 781.5571665113773,161.69647008619734 779.0429652541401,165.72823127799052 779.9886009702304,171.46301413123444 783.3455970730104,178.5724268359237 784.8337287098071,182.60855777939275 785.2815880103237,187.96056489319164 783.1166918976833,189.85273516519715 782.7155947463567,192.69923276742566 780.1116035870361,192.9481874352632 779.2496826344989,194.5463295686693 780.5823294630022,202.28705257500428 776.3909177141766,205.8686328314135 771.156151418057,208.44709742360908 768.357045481487,205.19942155170975 767.0980944542725,204.83499792026112 759.0297108944781,210.13517723851214 752.1997285941123,218.13082617700866 752.5552553018464,226.63229305270954 746.8793235192378,227.19651788535646 743.762749142098,226.53483215421716 742.2667874727754,225.2651403914764 741.1187005340718,219.45426414987992 738.9713227062256,218.15148580047583 734.0407581964511,207.539351958294 722.2805845627583,189.42309551194387 719.5176120331798,184.32861797172723 710.998089085221,166.12008799750288 704.648049552915,159.36542335010893 694.6642824125037,157.73990025985438 664.7026118228387,157.18544019632907 659.3916436349568,155.2002956620878 656.4982691544442,150.47638409775232 650.6966544160578,147.15657540706013 615.045288471593,144.69497325508735 599.708948442366,144.0921087308716 594.1826945893459,133.49604393543655 594.9203332371255,125.29232467828808 598.3074623319277,112.71131037479768 601.9378183794215,96.92358308996631 607.5005477641636,84.91308884155762 612.827067166978,74.84133493262755 618.2106440494621,67.81961409263374 623.3097573131109,49.700918996117025 623.9036358189613,48.330222187560366 633.9690029097861,16.568275065017588 630.5783959619574,14.8825897173449 625.2765721696848,14.998827271881737 624.3252651200526,6.348385808048647 616.2890098081014,6.603129614512568 609.9057278776281,5.6846519952068775 604.2013085927074,3.9291127066844638 601.3635869925843,0.0" /><circle cx="547.7990202772307" cy="497.6321298821925" fill="rgb(100%,100%,100%)" r="16" stroke="grey" stroke-width="8" /></svg>