<?xml version="1.0" encoding="utf-8" ?>
<svg baseProfile="full" height="1024" version="1.1" width="1024" xmlns="http://www.w3.org/2000/svg" xmlns:ev="http://www.w3.org/2001/xml-events" xmlns:xlink="http://www.w3.org/1999/xlink"><defs /><polygon fill="black" points="263.0576464514222,618.3370961275969 262.616239911351,620.9892955559361 263.4112757988793,624.9784400529337 267.0716699967346,632.2274381025096 270.4307727577471,637.8280962257429 270.5984292237501,641.9920065616369 268.1418370086652,645.9124799376228 261.91970840554524,649.6124684873007 259.6640351903716,652.857929678547 256.80275607291554,662.8953203315241 256.9726882727606,665.7376673105138 256.267642700823,668.1150746749643 258.05051773708936,669.902206692875 258.3510194764078,671.9984009002842 259.3182778802215,673.0716554666075 264.8130547214998,674.6443721165922 266.81103272157867,676.2835442168124 269.6913045431328,677.8177433697979 271.76682486722916,680.5216181622606 273.40805350967696,684.2762534976038 274.3213582101627,688.6409088115327 275.9628841728311,691.8467159414638 276.57981284534753,694.5082066735811 278.28596884851584,697.8488303694644 284.1048682504418,697.7501335279804 277.3470921777391,689.4691900880639 295.466513435033,691.201952799735 295.15733719309685,701.9683431494038 295.70824544044183,710.9859359015386 290.77616895337457,710.8971584851174 290.72028017317626,716.1149250244009 293.55230221559754,717.0183569631233 294.6334623181445,718.6191564432222 294.1245216383127,719.8576697558135 291.4577085459326,719.7797493586813 291.27457732477984,720.7556806324578 292.6259430162946,722.6526369732441 295.47159858787734,724.0013131127312 297.064485903358,728.1823845138879 299.90441077393206,736.7997927453576 300.3741471140179,737.2696893108014 307.4137878456888,731.8410730313151 313.5015313054697,736.1985958394307 314.2802261640785,739.211420093487 317.44550949630957,745.8058757337225 325.21714135192053,752.4704504991112 327.2330884341887,754.5755187507789 325.9398815998429,755.9510955613877 320.67132679801045,763.701147553747 317.7643682038739,765.6478558236693 317.69081164941326,768.9331557297176 322.10602772960493,774.3832907608402 340.32200052869166,774.1154721512826 342.4729633957185,774.789167478905 343.34570041745513,787.6782483463443 353.8717696712163,788.0759809887584 357.3783957674571,789.1650114597721 357.5521889774489,812.1961007671009 360.75249483324313,813.9015117725658 358.1608590119552,820.7311355701823 350.64418425746726,830.0901435820831 349.9377269568486,831.3136278101687 344.05659813309194,831.3773521979388 341.8012644204089,829.9581796749995 331.60998460594084,832.8201603485793 321.6837232449001,833.5915959789465 312.8422927596019,834.1091188103321 310.2012431629192,834.6843230909558 310.9351401229,835.9191122455697 307.8964360174844,836.7703257386684 309.02580164649333,839.690103685594 307.1770480416019,844.7667120186279 305.62466081196,847.9314607112442 307.96848552259877,848.6978871541495 308.02677717702556,850.8754493099722 310.0016992689627,850.3503406360604 309.95657673464393,852.6850423437805 308.1296976241029,854.7644428097205 308.18396737568435,855.6871691898045 310.96551502482305,856.5199263654193 311.4783442399122,857.9867526872989 309.2202248826291,858.9204880554083 308.69730582249434,861.2825659615875 311.1934846558429,865.3992711565119 311.36542968213246,866.6626160081521 314.638893719805,869.9790746882935 315.1613786695254,871.653084062609 322.557928385527,877.113652170307 322.501752171005,880.6634434610456 329.9737485869197,883.8496533707695 336.10887209624445,884.4375456017428 339.29610359287364,885.5239753589813 343.1373985906654,884.5657446469893 344.52719966714903,886.3520514516752 348.8346083681108,886.0621346816554 348.6741766944413,891.0366170770882 361.5570573920871,903.2778101548581 372.5530030563294,910.3439263739526 375.3267784841561,913.7713027752943 379.8000085151115,922.606087982523 382.05499790109934,926.5613487909801 385.8530173753151,929.205260695703 390.2778262913601,931.3415687180179 394.96305667679053,934.8967911859962 397.8940472910733,938.2908808468712 401.7405303025274,941.2454114079106 402.96578856888186,941.7156040705571 407.49406924662526,941.7814620219726 412.6528051988371,943.0223006457628 419.57485210685394,946.7386932332261 424.79714731491794,950.6590204207936 434.02461438458926,956.6463498121869 442.3182236984687,968.4681425895369 445.8798481112122,971.852624856983 449.14700233309196,975.7512585907177 453.63998817003323,980.0565027370536 458.5616625024553,983.3668943649832 479.3846061625162,996.8276329076411 482.38516856236464,998.8794228140008 484.4415135799309,1000.905009688161 478.81331914339495,1010.5560918070443 509.76876464023246,1011.1436880776419 522.8397598686598,1011.6602843474722 550.1094204541703,1021.0510896194014 553.3116579908361,1009.8834536321822 562.133448939254,1012.0270860858091 582.0536207406502,1017.7362549248955 596.4737303875193,1022.0833144362475 611.7503164277682,1022.6659370712531 635.0451486657631,1024.0 636.1522936264618,1023.6350978472467 636.3819424184217,1020.124377497548 636.7494482853449,1005.9877760643682 635.2749585471925,1000.35715133316 632.373344323081,969.524056406082 630.3012461144374,953.0339250470071 631.7710597783462,939.9008093839855 633.1073898034307,937.9215855950073 641.1235820511487,935.4830226365749 656.3671147769285,929.1945008310884 672.7004422548515,919.743977854702 681.721492376464,905.2520526917056 691.6566004655303,889.5176001661462 699.2314936037716,867.2300581490895 702.2720940323026,860.6611928759203 703.6288128697776,856.4508313834826 705.9332266728934,845.8600730669569 706.4177119338896,834.010722132244 705.8200398618901,833.6488013654609 696.6131422020482,833.4709114448699 691.7556892323923,833.1424732766747 679.7436536295102,831.846089879875 673.1138654724275,837.9114612343635 670.1263950227014,834.3802227630109 665.2692717323173,826.8607322072069 664.6491511780371,824.994606175736 661.9802025511808,793.7478621932157 661.9749162095605,782.696662206884 660.4138036609165,779.0056018200568 662.805077938607,766.9463558228239 661.6093807325096,766.4824619457057 650.0558284945413,767.878191330941 645.2664101391667,767.8773831428637 642.9704792384329,768.6054099667497 637.717821525405,772.2819114685979 636.518218607917,771.6418645197183 629.5588045207137,759.8356216526068 628.4101884884882,756.6557470743523 624.8607808275464,740.9236159158529 624.3718175946349,737.7011853780389 624.3310524236256,732.2122286722076 624.725974853143,723.8056303321584 625.1345800751232,721.684769723481 622.8420838129146,719.5534988916041 624.8783691417925,714.0892693371576 627.3442015916571,708.710063048765 629.2848908693637,703.424034855015 637.0504963568519,687.7272238104626 662.1407946593795,692.1571659073618 667.6998236288235,692.3585987185623 682.1371340303301,683.305566917159 684.57605712072,680.0582948091873 681.2063361625306,671.8050764438224 656.3939393717027,627.1221552866315 653.4247128308303,615.7037517929346 652.8108139721896,607.9525962867954 653.9472818675341,601.5732638682758 656.5254863037543,594.8357974463233 663.063769314891,589.4054739151227 661.0733581694581,586.0861576316273 661.0134741701972,584.8478831014859 656.1201972472916,583.0839860405117 649.2852345238639,581.9564849303442 647.0399796575936,581.3388384366231 641.7830633781219,580.6562418562851 631.0271703466168,578.3731152562902 625.4592398924314,576.4240319373741 622.1381479938566,574.7723650435498 614.5511902127374,570.050422923148 610.8594024081231,566.5569064604831 609.3241649071422,563.8271845930802 602.4543132030086,556.5198932138546 597.1089908911337,552.1070444152398 593.7098891577994,551.7988882994622 587.8388701521935,549.5323314581765 584.1623610610391,547.4629944990993 581.2536708737767,545.2860338155435 578.7017298972085,544.2384925398417 575.8735906247842,543.7847795248006 561.2738528744446,538.8364495090442 555.6146049809951,534.9738862989344 549.1601841195902,532.343589784856 539.571610860508,530.8418863737397 533.093509117995,529.5937879509087 530.8066834592962,529.6340486725394 528.8283818127096,528.8742328478033 522.2209465800174,525.4184565323039 517.6310359491412,522.4633480199465 513.3370590867994,520.0716477653373 507.53170722955457,515.939992190854 504.4948027783314,514.1865190218989 492.72300372028604,509.01127437425566 482.8309211318532,504.5143514664197 481.14977055568244,503.49069136452397 477.076917849957,499.5037300516085 472.48401407052216,493.62792219437426 467.2944829595124,485.8436152168906 463.4001182099015,481.0916219620891 461.1177753154663,478.7364707256869 456.49260386743674,475.34782914506116 451.57475159180535,474.17985161843023 450.6360644095491,471.87567544052877 448.16083967312176,472.21498555460676 442.16426065470677,470.82727330754506 439.5431068738419,469.8893409401227 438.939019300545,467.50714861180813 434.4487465766074,461.10483511992993 434.202931094366,458.87092769890205 437.4509295880815,456.2310673863851 452.95717635488387,444.18698176590897 502.22252477202755,405.15177140148876 508.5762324853851,400.4378358457633 511.4581262031391,396.78223191210714 519.3370053179104,379.1996234342005 534.1372242647033,343.598587129787 536.8716994999409,338.56982330379526 541.0037192336064,329.441199347114 542.4147564147563,312.9038153956269 545.5869035663422,260.3797245416465 548.0174112228871,222.2915424394165 548.0762348193084,222.07474153914598 539.5065561274591,211.825743752452 534.1510978400457,206.90073939433614 534.7877291938181,191.18153508187117 534.3566586889513,189.61830402307055 532.453265476948,187.8048647838698 528.3588197566245,185.9787839272327 516.0020562443584,182.10197065496868 509.1254587482635,179.37981038122052 498.01323438007614,177.7773441028836 501.6909346045033,173.75213858298696 503.5411235329633,166.99899407312682 503.61594522687375,155.3215449171763 500.6616735015845,155.3221184187804 487.86878171763897,156.32256035953753 483.46706546696987,155.44336743801034 480.07125480143895,154.39348141677283 474.06734007779085,153.64414692547507 466.6902243087539,151.03990610054825 461.6339361480675,145.4008530534595 458.93859692852266,143.82584541309438 455.7480969645859,143.3559044557096 448.6178811112419,143.31993701298848 444.86331411049963,143.62750220573332 437.3114829892234,143.31059925406123 432.73804412224473,138.9748422065478 427.4821348013273,135.81918102541226 422.8626583881408,135.03243130447004 419.1119647430468,135.10345871068898 417.15999189340647,134.6932619997632 415.1665228250373,135.60712983498263 413.6473721337447,139.67169673414548 412.0525095952128,142.0666419110339 404.1048103259171,146.16114256453238 400.3163764950615,147.86150584743177 398.9301571934737,147.20694877110566 397.7712363747438,140.6403484732175 397.9255845942474,137.20229544301185 401.29489549067415,131.8381245575266 401.61810767203144,130.31552545566888 399.63720468313534,126.25552336429314 394.881347522159,126.8938576017124 393.1989240758621,125.49505214741134 390.2957598346641,124.17682303571632 387.32591608374565,126.6315960167143 385.22845320488824,127.1154738303253 380.0933833708986,125.67713145607354 378.31098659209675,125.85858602260203 375.49688641423955,123.98442430415275 373.01449363711953,121.08980694231013 372.710992255568,104.40700688571053 373.1453455129586,99.19407724179007 358.299904840443,97.3384682676326 359.2841955203191,92.14905939600987 363.0856106218348,83.66974565474038 362.25874444336904,80.424041886297 356.541337302453,83.31772048736195 344.540529395471,84.8075149695436 340.1921192791872,82.76125925660358 332.1800350718491,80.71748959884826 329.879906117119,83.89588465811596 322.5308133437215,84.493801935188 319.5574827145337,83.38981235121071 316.70864887732176,80.27506281317346 316.2627815610632,78.23264691879683 316.52032493143344,75.37061639576632 318.30386079654465,71.9653069823188 316.9043431657091,70.69448527078532 312.1364303281641,71.17246847022295 309.3226165194364,71.91963703192152 304.06883844029505,76.35738401835647 301.25814857976144,77.34980293082515 298.25331781211327,77.38204732241411 297.47860111316373,76.5733986675483 296.95611228315204,71.47957699646781 293.2193581626811,70.28173388087134 289.98862902273345,66.97788057907258 286.2429017660469,64.11073505510592 281.68475192503803,61.1421195620062 279.7743094860617,60.93352386979416 274.6490810521055,62.64185862305294 271.0754688660295,62.628881744647174 269.439341702202,60.68477674288806 267.08022605819014,53.507753449255574 264.28063488995963,49.624591598238794 263.2786326912602,49.39240382047171 258.8287067676244,51.75573409479489 252.49296291637754,55.812762123630364 248.5697765329922,58.70130182272726 244.15183404781934,58.83111643102109 241.3195266635785,57.12766517821137 241.11715592470824,52.768021152087385 234.04804498349844,52.276313592677525 230.03458879217504,49.83062457349956 226.60244670602953,48.89126002234889 220.18529843694256,48.84092955774577 208.76074940814087,48.29912760906268 203.03706458239517,46.57930945609098 201.4176218492166,44.081063604780525 197.70869541764415,40.287828503057426 195.93037767878317,35.01818531065828 195.60985087378043,30.94808259462866 194.39609686936515,29.2841170691363 184.4369665500616,28.6081122139708 178.27753263303367,27.853156197009184 174.36403668747548,26.508570188381327 170.12474347402156,22.783333797364776 164.46447503479908,20.220534636670664 160.43808786051616,17.453988251098167 158.55714587852646,15.480702682897913 155.31561423572225,15.139686240848278 153.3410114024901,13.433825840335885 147.3497540009537,6.699379428220027 145.76435141593635,5.674169000410075 140.7759240769539,4.637097837076453 135.47559191687225,4.840660314981051 132.56046919004737,4.453916022555745 119.16848146621894,0.0 114.84823451926007,0.4365487679990565 114.74335813865908,2.207341675097723 113.51855026681895,4.317705954882399 110.38739267402477,7.022655527515326 109.36626203617699,11.238438511295954 107.96674387808592,15.16184503961756 105.75427049868624,18.234606212128142 101.20444426997723,22.581599278999306 97.97740108814605,24.867162354902007 94.01740335981994,26.106896801252446 92.55183280209266,27.801298611229186 91.67006008640786,31.00343687620932 89.70263713895396,34.41188926971506 85.42051262899285,36.74949809889233 82.52684602767762,39.21555642551368 78.40930570824017,43.41462167524003 76.48624713111722,46.62810720645268 75.60669607155391,49.40107604387367 71.6006388211754,55.12407223518528 71.138869107027,56.79762153011086 71.88153244114247,60.22009800031947 70.89575181605069,60.803947680988244 65.40466367374968,61.19710392772572 62.76659489982169,64.45981114060919 60.157595383755144,66.49297585667694 56.50378382700999,68.1375761433701 54.5752009801559,70.93147495173628 53.29713246706144,71.51792998174983 47.39425747455117,72.4264480822086 46.64535391202048,73.15078623144802 46.14936161671235,76.34002497321785 46.65908248284651,80.19640978862981 47.82802956687741,82.67396971485311 49.66236277964811,84.99172887185512 53.22395335137506,88.58223377101547 53.14196078114543,90.10944746092889 50.935911578325246,93.747835975832 49.28757475719513,100.48506352552374 49.78171017683399,102.72357154521569 51.07647487628769,103.75587653527816 52.288688186522265,106.32619157166607 53.738259331070786,112.50151639012063 53.910792025835356,115.89151262521955 52.57902576006712,120.90690347154487 48.886422857806046,123.94612897068771 46.02306738190882,127.97128348991407 39.78536937240398,132.89089166966426 39.42532647031641,133.77622500487223 39.23317693065034,135.42853482530336 40.013815048959344,137.8916688635734 45.02738996012214,148.34190288594857 45.583421339753556,151.95631159870675 44.5649990160822,154.3969529721046 41.31685741191072,159.0434366135812 39.31034417677032,162.87834777723424 36.67430183516808,166.2370919495918 33.64183849251533,168.17389514895706 31.713821320017814,170.80783696217384 31.505808652473164,173.71265006650958 32.515195666489404,178.99657949779487 31.117576519571582,182.59053914174388 26.76318070660629,185.28895293271057 22.621108813790872,189.85281032892647 19.520767014640466,194.35587804398688 18.459456857771645,197.64909721603829 18.375636186320037,203.60203163526774 19.123200603333945,206.94171266735248 20.97290839436345,211.40941677295802 20.96967685325611,216.31655277150253 22.10237043851898,219.93988453091458 26.803752568493486,224.23831570078414 28.360394242385343,227.79675416535702 28.494296646950023,231.66588166689985 29.265042541962227,232.94262162733594 33.106708435427876,236.0171419745625 33.64065447483865,237.25444685253137 33.532811963129525,241.3015663749012 32.325250337049,244.55891805351666 31.428435466439463,245.3784822560898 27.775587328934222,246.1624551452993 24.738714451066738,247.33179880571174 23.657941034998437,248.6251057644879 21.84690697907922,253.69564731315006 21.75393472007156,257.88746182910506 22.148003070979808,260.605861632603 25.326312548343793,268.4459195978317 26.47885276268583,274.8260171291571 26.798925226487256,282.9309260245424 26.15963242895041,286.80061120312496 26.025415326924794,291.8071659810238 23.82476821156417,295.49742037911017 15.285629977752691,302.98829660220224 14.40975337774437,306.9948872592529 15.062009497028189,309.7650592696838 17.01141467257648,314.89808666630177 17.172404400160932,317.2414339240455 16.515235653418916,318.5739515933757 12.668211981129652,323.7502226277089 12.268402104511033,326.4792341552917 12.160757745846297,329.9566481208934 11.650407542202744,331.33938824342783 9.444772677737669,334.02320435955403 10.163277359886292,339.4682000314634 11.136214222692663,342.21549762597635 14.760501927928226,348.2933740113266 15.853355937096998,353.4376032028497 18.992830165254613,358.9443100485963 18.82817212239426,360.7568978412485 13.78418245096823,365.7426645468081 9.933408718234759,365.54045046881834 6.41116437139639,366.1793544926327 4.346245318587329,368.44199474646086 3.990857987239709,371.5318887533483 6.412105519458969,375.57601223736754 4.980594234216578,380.7864150405384 4.446912979379771,389.7057304358451 6.748552404024096,395.882538251431 7.889794447320316,400.938165920913 9.358326880568487,405.2081039372425 9.102109444167018,407.74421871096797 5.020693864457836,413.97019837418975 2.447659145004028,418.90594660935176 0.4465429909975052,423.7748649014919 0.0,426.93044622124785 1.0427296136665158,431.16521483203496 4.176952137363158,435.8142426387511 5.274655434703375,442.2541543483013 7.048436669768249,443.8560588339716 10.245589922942555,448.45342766508224 11.413546492108033,450.97827952382215 15.132112558652208,462.1053538404966 16.245856528999965,463.9611561854872 22.444546673690702,470.4496497958779 24.761898949220985,473.29418049872436 29.933490592460043,482.50343069221424 29.972478046040514,485.89530887418016 27.169067432969857,491.7375953980311 25.33722355381474,499.84968943301874 21.563447496093392,509.7140445962983 30.10648626132084,510.6555268980046 30.243239545334358,511.0980505818346 46.64717820755429,513.2121149595855 47.60071692385976,513.5118414211079 49.793915772763555,517.6897425356084 52.36768345348536,519.2426631710472 55.06241189889144,523.8901213114882 57.46117915518672,526.1056736835586 68.42047950873229,530.0007026333084 91.93434521668325,540.1431946854166 97.08818148922177,542.8140648275157 99.03737473793961,546.6647568452784 98.69778297452137,548.2986815531533 95.9051725790801,555.4813096680978 88.96104974192522,571.2673078596966 82.19066192478982,588.6651182333569 79.82328896569521,596.0956434627705 85.56159095433034,599.3944610638403 93.574828414737,606.6260138461347 97.0208453481044,607.4894865788194 103.16501475740071,586.6102676139994 104.56818788808883,582.2881011001688 105.67447438245226,580.3662806462321 122.53554246192941,584.5439253811595 125.1979690144427,578.4114906707148 125.01975406288773,574.9020414447568 125.67782699992337,571.7248744359431 127.39545816586492,574.5871833684591 130.89965969538696,575.1166681572003 133.72375225310094,576.1280874154429 138.20156032762355,578.5574072030334 146.56626572837624,582.5016180147842 148.0890866288183,581.669284518963 155.51641732195137,573.2816001175418 156.73076441910018,570.5007304584085 157.07059397949678,566.5932044112044 158.6722812755407,564.0868117775146 162.24501431867742,562.7134968137268 169.50608517538768,552.9977079768679 170.55302756073115,552.1803024131962 173.2693006844649,551.8080242158699 173.95317943559527,553.4312797737541 173.34549956105073,554.7282393321636 170.49505169145942,556.2278858405067 169.41898754932714,558.7285049152681 173.9234656389829,560.4929072339858 174.56358725186337,561.961786693395 169.95059040327612,564.153162149368 170.10603012684064,565.4828330677781 172.52854431870335,568.6038524489015 172.92530196701384,570.2204775231701 171.89311926379986,572.3284168634201 170.05001097500002,574.5082243018232 170.87649909165702,575.7792892030607 178.34185185912784,578.0367842005726 179.5795044075701,577.9805762900739 181.31323018793609,574.2937512844421 182.4515668121862,573.51587347643 190.96123855490842,575.9143439686272 192.037964529132,578.7209724518569 190.2144317791306,581.8920822567311 197.4319220152859,584.3983898223485 200.45341815039993,585.993931873892 201.3986580679782,587.1798941311048 202.72572464181843,607.1236687282656 204.70939827294123,607.8531310836963 207.62420403424773,604.0570631989772 211.64981955036373,597.2094742522011 214.39494281276643,595.6159809907649 219.4401526826069,595.4294044646911 221.3024783721629,596.0357573939317 223.97805053289176,597.8418227957367 227.63009634090784,600.9986689725717 230.63539585845237,602.2732029805389 234.07217297489512,602.7668706704784 237.29625863917613,602.5086098945976 239.81275129163154,601.6813041565244 240.77464135790447,602.4434511494092 239.97615667154437,608.4575468928058 241.45933594143298,609.4511895976561 244.65374073104073,610.1330711995997 246.42505721485355,611.1745265547892 248.5004276708353,614.1139461565743 251.4659509696053,615.4812646005574 257.9732683744011,616.6782494562365 259.9116284644598,617.6347062554579 263.0576464514222,618.3370961275969" /><circle cx="298.5039407621408" cy="338.5923352951779" fill="rgb(100%,100%,100%)" r="16" stroke="grey" stroke-width="8" /></svg>