<?xml version="1.0" encoding="utf-8" ?>
<svg baseProfile="full" height="1024" version="1.1" width="1024" xmlns="http://www.w3.org/2000/svg" xmlns:ev="http://www.w3.org/2001/xml-events" xmlns:xlink="http://www.w3.org/1999/xlink"><defs /><polygon fill="black" points="694.2401927694707,934.6987166902288 697.3341188801995,931.8499413954684 695.4606770551563,923.8079453942185 693.1988992242665,918.7186795170252 688.2141665580808,909.2120738155135 676.5093088779211,901.8946121370442 675.3560426653114,898.742570469536 676.8011082849009,897.0187525467037 683.1182062659506,892.7038885764757 688.5833945446722,887.5355240120989 695.1892495610782,878.6235055823429 699.2117806632104,869.4451125093607 698.9195446371893,864.564307908021 694.0396848650113,851.9429576981498 692.6048772955986,846.4941065214513 693.4617939027341,842.4806211528673 694.4888567023764,841.8225569624152 701.1032185403649,840.8361296155123 704.2047582114124,840.6637077299873 708.4517990405851,839.7125148499819 724.3312762712901,834.3812675591278 729.121638296215,831.7479039409353 733.2998076880119,829.0367953332187 738.7125219078205,826.4916624251366 743.3140563584566,824.8338116171153 749.0832203463515,822.3029773133272 755.5508419197878,818.173640445089 758.5860521487205,814.8326128689008 762.5899081043684,808.9289198316294 763.6692283667957,806.1006253471909 764.2313735851617,799.7374758727367 763.9737587865352,796.9982598053498 762.4002701669388,794.1524380493943 760.5525360202356,792.0240318365595 758.1608254478215,790.7751958869281 755.2625090909187,787.924351262311 754.8336240034038,784.4736995419207 756.0907212637873,780.7634808354044 757.7743296744221,778.8379235911599 760.9704165144925,777.0010352435254 769.0384412677722,771.2023289142214 773.0474701129571,767.3377023243315 773.4575264038606,764.2245805194126 771.1760078316942,761.002641786607 767.6300675284048,758.5677727514144 754.2927019357661,752.8502545023296 753.137621584686,750.8433165605422 754.7132556547014,748.79323365411 753.1436219166119,747.5315196591548 752.1217787629125,749.5366435519661 750.3923406311995,750.238395557886 747.4607659603865,748.6842857943698 746.8250240489975,746.2185894227141 746.9982864907796,743.8865721325816 746.005112022427,739.6183884822315 748.286134402879,737.3183816861408 749.4063135954447,735.3050869000685 750.8195040595778,734.5798917156388 762.1478950105266,735.4003065203794 765.9257664248277,734.5876571532182 768.813905368361,732.8815565810166 769.1063890203723,728.6781425628672 772.3988303120788,722.3578989162413 777.7933891229463,716.4208576966539 782.8097500932988,712.6083582381234 791.375739781321,708.8531423842526 799.5676151905554,704.0245743513331 797.026968078153,700.1431445922162 790.0079748149622,695.0823344058463 784.4982855922149,685.7935924721896 777.1519797679467,678.9609216606748 777.2600137754386,672.589777883736 779.1150297733114,667.3154230717649 783.8215851382196,659.9548657418417 787.8387071929287,652.2259440369648 792.6966604996802,636.0294560019561 792.1192626804493,627.8848557265804 790.8448221325513,617.6057065967564 789.238740557044,607.6731876979677 785.168238226558,596.2861390801017 781.0186480726438,589.493409900069 774.0984658036226,579.4840711004082 770.980166232446,573.4208600166405 768.5947732810429,567.3762184741742 766.5777838875239,560.9760582472717 765.6234848236126,553.1696365820872 766.0869447523061,546.8160998727694 767.9387311492804,541.8858207257201 772.7159653216208,530.2796876502694 774.6183375726364,521.4579518981109 775.0342587140207,518.6379306896232 773.3934477559303,509.4096493512326 773.4942588501932,503.7525358596232 774.9759587453898,499.17918960152474 777.8459940602036,496.7463243279759 785.3588007612758,492.6165781121359 791.0639756575307,490.2228153162315 797.8494482979955,486.4334100214062 807.855517294331,479.86538403196994 821.1444484718669,468.0553122420039 832.6337345470354,457.2622048128027 840.5229791588645,450.681112881374 845.2175470405319,445.4429118090047 848.8298961402114,439.84490091323835 851.4086891119572,433.86759515390236 854.3027419710014,428.97017080718945 855.4946653737211,421.5533401089991 855.9723244223738,413.430447305871 855.7383198680022,405.28024739278976 857.9128131809663,402.13087326077425 866.1339980524264,396.6117110524576 876.1558916286848,390.4037613502826 878.9999108087954,388.32829280021815 881.1842720844992,384.1236044236683 881.9596884814249,380.59121049983867 878.8311331817347,377.71842975018467 876.382271467327,374.8416215700008 867.9614415206457,370.1089292930458 863.0428120159557,367.5462513809762 861.355726360591,362.563595139932 862.145774983318,357.62769090642655 861.8927634745158,350.546271799456 872.2689668536308,343.287145464428 886.5588571243669,334.32192069422354 903.1077668842967,318.31289472449566 903.2918743963693,306.6344623615546 901.6406677361962,298.11704718366866 902.4806454644015,288.9378746476723 906.113599863455,283.6828590726776 912.2043399674311,279.18008846264104 922.2122668403881,272.61451822373783 927.6434486194329,264.9177862138299 931.3247030236403,256.48502308910224 936.0152381746094,250.89256870939528 940.3327265286752,247.07030905920521 945.6801680405741,244.6723916062831 950.3182978545149,243.32258145083745 956.0513059940531,239.86211743477645 961.0648700296589,236.40383786446478 976.095843633444,227.7633306985647 982.9087519389639,223.6148742773588 991.8322184718397,220.54251176994046 990.1172439640254,214.14189657337852 985.9307717825782,202.1016642281396 983.8712156521683,193.5983082787053 980.7148292504091,184.37654033889942 976.8921929412147,173.74620580119677 972.307009130973,166.65330146470797 961.7206466307048,160.59049103490042 942.2212645458968,170.05314009339577 937.634954265457,169.3222127368714 934.4694294537962,166.47469695421205 930.2434030139465,161.1363038210568 924.2914030197094,152.96412369671214 915.8509262203967,144.4200762302745 908.7086227485219,145.14852110903848 904.745906446703,144.22838465140933 898.3375216865919,144.36974174163095 894.123655155062,146.98089130580058 891.2314034615476,149.3691657217779 887.9063416650738,150.64700490703365 880.8508465529599,150.56517731483177 876.8988539743552,149.64442785937229 867.6417686066019,148.8748415742799 864.3389634354512,147.9495702737039 862.1392283120061,148.13228560407526 851.6981633722486,152.4510265870141 850.156369936994,155.6715541918412 849.3118036749072,162.02610587643142 848.0424524710753,169.5116332756745 843.9604487530119,170.62803251216326 840.4363222914748,170.0594029536611 831.5588503999729,165.95031421661565 829.4492001246526,163.12078836146998 830.0104988343738,159.44904995184902 829.0674905775616,157.15461087276674 824.228936996147,158.0466217471551 821.8053240059171,159.86468224618375 815.4006403965375,169.9000730071349 812.054742146053,173.17377849419074 799.3882009166041,198.1969000923665 798.6625175802424,205.27136372186578 798.9536780429808,214.11828073178845 800.3443945119745,218.7238522229045 798.5382933326641,227.2230262832103 795.3094774143508,234.9882110368112 789.9792634348801,239.20607361558814 780.4453281657238,239.8631220633706 775.1573198842816,237.35665109514036 771.2963010252257,231.31888574003938 766.0569283951307,218.9012091614136 762.2175129257522,206.49849657399136 759.4425985755383,196.92716168514767 754.9166371832877,185.22633947596626 748.5938016265751,175.63761400339115 742.6085867725251,170.3053765445344 733.4436832548112,163.8934084237726 727.7937241077221,159.61942435483422 717.5364777480899,157.46749800297744 707.2704673254899,157.07495540207367 692.0089150136089,159.86485695319334 683.4725772903342,163.3840108704611 674.9667708455057,165.83860599811567 664.6702899919761,167.22622405068194 660.7948335511004,162.9716272520344 659.047221525735,155.53269277380912 657.6915516763609,146.68669036755205 653.1177627032413,138.18138321727804 643.932926214423,126.23297508840801 630.868238905945,120.08686075039327 619.918491118666,114.32401423968963 610.7769675014707,108.21464493466112 603.4087191157881,101.41772497389718 599.886623062614,97.6068318610719 601.013203633279,94.87577383752273 601.0509832964058,91.71055242588966 602.2716535339447,78.61657486829392 603.7763655386449,72.2646030767479 604.2197592841952,65.54359708938489 606.4492003756006,57.071276416817454 607.59760234694,49.99919957000259 610.5501433312548,41.88409144289017 614.0865653439197,36.94000103141184 617.3129236254518,30.662332578863925 618.857566988009,26.626339948729537 619.6938702974448,20.841754973729962 620.5854768192542,17.853242782029156 620.4898101428056,15.180105624858129 618.7639673190994,12.91808879585028 615.3252671605809,9.68386578204047 613.6288962658105,6.644595494834107 612.8886337446298,4.219878448242071 612.9692220431881,1.6105304636812434 608.6223661117839,1.2008865888725495 602.717237603361,0.013471131971755312 595.5386840893717,0.0 591.8365102537937,2.4732843972678893 590.3355898550033,4.502451530355984 586.6925095787814,10.948900000208369 583.7210771305826,14.79151341847944 580.8719675644863,15.044038453293638 577.63290859136,13.306269566211085 575.085733309392,13.081004998818003 570.0639758015459,14.595154656209274 566.7547414925087,14.66748858540143 559.7909476760791,12.25908256323521 553.7707840376759,8.530527241686627 547.7146172459024,5.355128156294768 545.55831249376,4.5201533680597095 541.5674231388423,3.927850369604471 536.0085136036442,4.34042151651704 531.2778002071326,3.0120328322620935 518.2902717431939,2.9118691250897655 513.5628665950505,2.1877334873918244 510.5741595288498,2.569869958049253 507.2426709802005,5.169248173868027 505.44510404903,7.889700847473591 501.9316351378648,15.553192240829162 498.92857196683224,23.20300368718722 495.50971212084266,27.25589829567366 494.01677627927927,28.424955592870447 490.90111929717136,28.732615941029167 487.5619166665515,27.96359179388253 484.37013316245225,26.458913038182686 476.35670180639096,26.111458342297738 470.39764354738185,25.452044147341553 468.29350305804616,27.450767871231164 466.3337007722508,31.981513245582732 465.3952983307581,32.942971847076365 456.3171144773186,35.73429876674311 452.30790298881124,36.511008220054805 450.5627034112973,37.46194920546418 449.3868604932366,39.25798885086613 449.3327844044259,43.43521548708702 451.73000272843296,48.45258071059368 453.8974746290495,49.995620264595914 456.5040345414661,51.06447742222133 457.2840288495795,53.254514622318425 454.3614198453842,56.003120006306744 452.3116768660922,56.85604749726804 448.07514925460583,56.92467349655033 446.69690497097884,59.84586944630587 446.6519061700392,64.04326448387906 458.1275083497006,64.25321784949335 461.8701134779533,66.64643203332855 461.53008994055153,70.0516450801149 458.812753677843,75.9981183498312 457.78559111253077,80.0810240767604 459.6543951326178,85.70697382151081 460.68118863286725,87.07321025153897 460.6741352121931,90.64623410741194 457.7899728437251,94.21464678086659 453.03404594438234,97.7789281365873 448.7306678015659,105.21209329910084 444.8905901569109,113.28524469188551 442.54625396517974,117.0439850795259 435.88487296320693,129.90622287795895 429.5096213887082,153.1426603400705 423.29604085478684,165.4193827188293 418.90842168097373,175.25133205632721 427.2687102599161,182.8308471210388 433.8846505335749,189.67134133302307 436.2794525609946,194.31385136076267 436.23356587399564,197.84933307096833 432.20428095703153,205.92441610777496 425.7107573933488,215.36197618748406 419.901354639278,224.4503123209439 418.10474850446826,226.8983685271961 412.99159893846905,237.7806024950629 411.1315753430385,243.4043748710411 402.401611532569,259.18191533177276 399.099246502908,267.2596598486838 393.30039424328123,275.2935327040377 384.7657517389129,279.0358374706183 380.5577345219957,277.1963865586331 374.5320158895692,277.08518526053683 369.64261918489547,273.1118704946315 362.3155139562534,266.26686556614993 359.24501750242194,259.8367549390241 352.67181117865607,249.8231457592707 350.7344677727223,237.75981813258306 348.05310830311504,227.45136066784232 342.1332720289269,220.2771094109239 336.4888867007451,219.1249704905424 326.2002305604714,220.72635118417895 320.51505645576157,220.98631085532293 306.6172229894866,226.7920153102816 297.988960555118,233.03996943654897 292.95614677789655,238.26982513893677 289.01572067290203,240.6866763133454 283.3648687846426,239.1930856818027 272.79868718041075,233.73464286364845 262.91220263645624,229.70908982837727 247.9917806714842,229.50882657761906 239.47645825109157,229.04982493422244 230.16602414921172,233.88808373203403 226.52364636304577,239.50607622992857 221.73138739599645,250.40889188761503 218.754549169789,258.517267516943 215.44664023887566,265.5454300183451 210.7641331092823,269.3861369656356 207.10131569948413,276.40902837088106 204.52287404028107,282.0434847183104 200.53437874945826,286.9492977068069 196.89195214023047,291.86003926052683 184.97436629305406,305.16561617489674 177.74872048102833,311.4400798776521 172.68739355851093,316.6890620797906 169.79878391247829,320.54566768632185 168.67656169538554,323.7199583458223 164.2781956410126,332.14912722688916 161.32714392688868,338.84673993234276 156.8506651576769,351.883290578165 154.1767252462522,363.8801845821786 153.6954940159689,372.3699478977943 151.77442914411301,380.83845547077874 146.6685241409052,389.6209069524399 137.34405487983543,394.4601689600645 132.65069956554095,398.6396189809635 131.0976638930541,407.47445391353824 130.2539788498899,416.3090384646898 128.69141288397904,425.13599525543793 120.38242547569958,433.87151009701915 101.30496240464178,449.8986992493834 86.62342916815166,459.2462009613264 77.63570171498596,466.1949617649799 71.84982980729691,472.4838749421567 68.9236318614945,478.45675855269667 67.73076826666981,487.29201877493165 66.89165181463243,495.0541476808713 66.79431270438263,501.4296826617149 67.0303731574026,509.2190163968537 66.95482727818754,514.1691895821084 65.0952250532642,519.451634507679 59.689059874320165,523.9716134597079 53.30965438717415,524.9415796819954 42.30549897696294,525.8308076468663 34.49038965449764,525.7101381649726 27.776402990234672,525.2559003046994 18.56140308196078,526.1711888076854 14.269547213351096,527.5115087340555 8.556324968966607,532.0250196350926 6.7040746263048865,537.2977478434591 3.375189663930798,545.3926046141901 1.424544739124161,556.3249509035976 1.3065058305464157,564.4607931431319 2.2617505138512004,572.2647215674492 2.17312630337511,577.9260705064445 0.0,580.3685224264328 0.60622355144348,587.099237440437 3.2284727289471147,600.2432335084975 5.636252728636431,606.3046336965626 14.36892276490465,613.8717138530312 24.908087452067758,619.7088044986979 30.14502760331871,625.8027288122066 37.06188699632129,635.8198255756143 43.42794934932736,637.3357280253581 50.511317595159646,638.5043879659056 60.887406237506504,631.929607643086 69.89696233201965,622.866277040814 78.19945289853112,612.7132646776731 84.3716470512773,605.375922143865 87.22172307448788,603.2912752391533 100.42963609866851,598.8752152617278 117.42948638989787,601.9252049504057 123.475441313427,601.6556742678029 133.8183115566914,599.661322634209 149.52395401945662,595.9677863498962 156.61685249121712,597.1194706643419 161.2062222221452,599.6536950534378 163.8743404127283,609.9481765874289 166.29864709782302,614.5674241374852 172.27287625032972,619.2490770139561 176.17212030830797,620.3548696087773 179.66023101390914,623.9309014700623 180.31594092929777,628.5443064164659 180.25432463831825,632.7986301447538 179.05880953724113,640.9229979232691 179.67438263104384,645.5265557233209 179.56171703384882,653.3071120592508 178.45159484202978,656.8288126567783 170.51591317138545,665.2256402536234 162.55052528723732,672.9242968806368 148.85294203027962,685.4943273352376 146.6119044462735,692.5463215571925 147.60366056903965,697.1570893841308 150.7418267431583,701.0895774559835 163.79014141934857,708.6858751001345 165.48393840224244,713.2974464166864 163.62580096714746,718.587097246416 161.05546739906362,723.8663542712285 149.84817867623616,736.4667638333665 146.56455521069176,741.0272000133198 145.46907403242392,744.2002414539667 146.1199563983957,747.7491160844801 149.91925080087466,754.5208378123737 155.50770079256563,760.250904858578 160.79513376074362,764.2067095679279 164.98789310803298,769.9253220051612 164.9008914022934,774.5232919434666 161.2653753609263,780.8501218252433 158.30680853082575,786.8257143973428 156.44768452111225,792.1183770919984 157.00122910031217,802.3848538249515 159.3728348754437,810.1999626904875 164.27083155915395,815.2205897546735 172.34513477314388,821.6879070154653 180.44112395810964,827.4438296163264 188.50710424515148,835.3310479161466 190.8752592611064,842.7860012958298 189.3578986152223,849.8458016694609 186.07388033822133,855.1198684980689 180.3344593602655,858.2387044948234 173.9733886263447,855.6769247140448 172.0740629487246,863.09210797134 168.77771493232507,869.0661220444424 170.10217599361425,876.1684109087216 176.70789073521271,885.0964337538342 190.1262818910261,892.3321676230623 197.54329818484578,895.2584693790352 204.59928190721448,899.2314601252042 211.60025250831765,905.6826113595191 215.37785482261262,914.5825312927503 217.60498688670506,932.3052595132255 216.01778783994678,941.4902159934396 216.2390536164954,950.350512742566 218.28942273723203,957.4454517716686 223.13342577946187,966.0114198061959 231.53594970019802,973.1861946592717 236.99649355672366,964.7635328284782 239.25478478993566,956.2975059429721 238.27444317737766,950.6187130615824 239.83510932086168,941.794248719961 244.58938715482125,933.3537888631964 249.91430207901627,933.0778089048414 255.9326317346823,934.2213713368054 257.4539753025968,933.8830211424944 261.0992695628619,934.6648280918862 265.02282400324657,938.920075658374 266.31934317113286,939.7309749683427 271.6899334340535,941.2367644761058 275.00471045434233,941.5601066969186 278.28836499220364,942.6774705022701 282.40611331842337,945.8950916405004 285.8166825967447,950.0625076812445 286.3659394632174,952.6849887241817 286.42716683230685,962.0071263162951 286.9039616213007,964.8060243286473 289.196136353609,971.8198282174578 290.74575916813814,972.9857026790388 292.5589544627719,973.0196944207539 296.43544356224305,971.4557117219255 298.1692914247719,971.5718674086856 305.36757082413993,977.9115191476234 306.79393572240633,980.1261567418411 306.89384935236734,983.7020280889317 305.87012521589406,986.9016811509576 306.17405924245924,989.2538405837263 304.5024018561053,994.1864579227386 303.07860756922616,999.7302594221326 304.390447942312,1003.9411919011552 308.7381895665959,1008.5649807358366 311.2189786742029,1010.6287323227535 314.7478859096466,1012.7883373212379 317.9336392666388,1013.9944633815005 322.3474157761575,1016.7643697509515 331.1450470765205,1020.1374078862266 342.95322280985124,1023.0362658379278 350.3389042545787,1023.793029730903 351.0940784400034,1021.3624735914073 353.69387076146626,1016.7286629103642 358.2378629582611,1012.6465575931161 361.6261776834904,1013.5474539976874 363.6647040430876,1017.6022980702659 368.5338260914865,1019.7582259486381 372.8676668517964,1023.3493989714239 375.42732355693624,1024.0 383.40951072260884,1023.0845567988711 387.269880434777,1023.4958296738675 388.3299597128282,1021.2218187544737 390.5493250449817,1014.5338207139446 391.17908964569796,1011.8423041163369 393.2817097457147,1008.6237993237658 399.6498404762311,1000.6288439817047 401.684661076597,991.9914605331179 408.09282995469846,971.6074450905653 408.6902396904138,969.0913200386414 407.7166949329068,961.570518798737 408.4283278085586,958.6640258838167 408.36576210007246,955.0487072083805 407.08026487237123,954.0540534472001 405.22906324637984,953.9576362998957 401.0377310112576,954.6655068840687 397.953499395552,953.3790445892773 397.58524268687387,951.2114145714766 398.77277573432184,946.757637624687 403.49030616249394,943.6053117838915 405.5875581640954,943.1171717476016 412.71919027798043,944.7858003384092 416.8460895563027,948.2266208510066 420.27653963991037,949.6405645246988 423.06886077700676,951.3038841886503 425.78562594122195,951.1843922998574 428.5564305968973,947.5729254027787 429.5990842503411,944.3635920894682 429.87329970815193,940.7310053608136 430.97829574165195,938.7581443812785 434.901975846318,939.4360405680274 437.39387149747466,938.3246403416965 437.3430386228393,936.0686052269718 436.0124096024466,934.8067318716012 430.11803362660544,933.9170403862745 428.2037178408736,932.5550806212906 423.09310152658713,923.9524672279837 422.7596462112802,922.8359181011917 422.58653195892856,915.5229200688007 423.53432593088934,913.5064424772631 426.2414371067052,911.6683041304416 433.7061029414038,912.803455486292 437.1126686667332,914.452792658781 438.82157654372844,914.0425912111853 440.6610984561869,911.944801946547 443.11020730499325,911.830898988817 444.09379556498106,913.1315142860635 445.00169215497647,918.0641567381534 448.36900936106764,919.743591306339 448.09145479244023,922.0772234504307 446.4276803177421,923.6019094083579 446.61502534082035,925.1994041567201 445.7485098090738,927.9482632552446 447.5479985321518,929.7620949738912 453.4543709137659,929.6932885622722 456.00917130165607,930.5184440681552 462.7343362171962,931.4777613674781 468.87510574667573,931.6380845744869 471.6869873417376,932.6096640651269 477.2630872241999,937.5185935318266 480.09568773985353,940.7363716191121 482.6905742717045,941.6140229076437 486.90083022078113,938.4421701003137 495.26683900141563,933.3038222530784 496.9962284299848,932.8731816122668 497.7286510717795,931.3056379748537 502.17577142028443,926.582882084957 505.7966179166692,922.1691853390498 505.78818083066227,918.0301747238533 504.6932205342266,914.4547512003297 505.65152734579203,909.7398771254011 509.64749590512093,907.0091143260363 520.63310123378,904.5704004002907 527.3745155403569,903.2317357065109 538.9247327851076,901.5282885067223 541.6684687174175,901.5413654519621 551.6596667677479,900.1266944985185 556.2872085335213,900.8316124776944 561.3882377672257,905.0005924419718 565.3283586621338,906.8586132935135 569.9479410630939,908.1399555003504 585.3220406033988,914.83785159391 591.701554009169,916.5187360875576 594.578891134836,916.9952192093622 597.9808727092333,916.521377885965 601.6284030383669,914.6388560651912 607.2632384700387,913.1496259304175 608.7707285270463,914.7113051505371 608.9684220150106,917.2974466193845 606.8991001820704,934.2418734849721 607.2458233604127,938.3862195438473 611.6401780257665,945.7059558337917 616.1018976818508,951.3186837793133 619.2591448921401,953.4145420324924 623.8211827758678,954.6935343231529 625.9250478476285,954.3876536143719 628.0393129112877,953.1763716364015 636.9167501758717,945.4928180658542 640.5074179374889,943.2894215135318 644.6026957322238,942.1005395842611 651.3451187500777,941.6419526291623 660.24375025424,941.4650547040478 675.3157225319385,942.035632066735 679.9544593186679,941.8808076847678 684.3965240009728,940.623814546762 688.3820171487262,938.5980606026098 694.2401927694707,934.6987166902288" /><circle cx="388.21192936348785" cy="351.6640313268523" fill="rgb(100%,100%,100%)" r="16" stroke="grey" stroke-width="8" /></svg>