<?xml version="1.0" encoding="utf-8" ?>
<svg baseProfile="full" height="1024" version="1.1" width="1024" xmlns="http://www.w3.org/2000/svg" xmlns:ev="http://www.w3.org/2001/xml-events" xmlns:xlink="http://www.w3.org/1999/xlink"><defs /><polygon fill="black" points="830.4798366238452,628.3459186979214 830.3554252870074,619.6078976804754 827.8384876075621,614.6662321047536 827.5470798818689,609.0367143220119 826.4188794489594,608.3749053993872 823.6951102999335,610.0789362918857 818.8296629045041,605.4275990092582 815.3579872030427,604.7267058814393 803.1285535790668,598.9331511295836 798.8653916623228,591.4641789860605 796.8737805486568,584.953954805718 797.4282925600232,580.7486390323047 799.1428937621683,578.5118890804586 809.6136958446322,575.0346558187957 810.8074573503696,572.3038082297207 810.3670234066914,568.9770311679664 807.3542397257755,563.4695394395368 799.4209353285243,555.1819274046916 776.526451869686,539.6451270651814 768.1966656919042,532.1069112336834 765.0916513243358,523.7299116751849 763.3814176487703,520.4575787361641 760.8139380578519,518.6432661766283 754.2780367026302,516.7568986717409 749.758217374772,513.9106849878754 746.3609320165813,509.64365446553086 744.0337292502188,501.7810128507824 744.1990250996113,496.5895431596392 748.196978440431,489.5018365545028 754.4710697678048,484.24181324928657 757.5969241176925,480.4937134951058 757.8753660201195,478.3973922440158 756.7356180228014,475.57876977800345 752.8213591835402,472.6658390722847 749.2628179072826,471.97505130346144 741.4061228744977,472.57449449887986 714.8154908931722,483.58585750662905 700.9966939286847,486.4664994859778 690.7073784417665,486.10510514242753 685.39363202807,484.31786394313724 684.6472671924028,480.0035864908464 689.0241882330898,468.7287140491935 688.7741550434193,465.1565338331593 686.7086492811403,461.0393721759401 672.9468109755333,447.7521098686476 663.6203534134629,440.0883865795771 655.4428024280122,435.23285499168765 638.829796303578,418.38655604728433 634.5331417950221,416.76256368393126 622.3284778044504,415.1477804180388 612.3730559470014,414.5040133021207 602.5305689965313,415.45083027572707 597.9597552965946,414.623444444905 594.378095370511,411.32856057243964 590.577717159243,404.8176581827171 588.1194145184805,403.60404007982663 584.1550854926277,402.90514417081624 581.6341086866738,403.9680156425326 575.5478092030921,403.5226967297018 572.4807449603445,401.07868971677965 571.0291675996627,397.3869347014602 571.5660569255979,388.5004740087311 573.8803806269833,376.39508723927145 571.1540667552299,365.313842600037 571.9290388862678,360.12143761282096 582.3081875247782,342.5281509116967 594.5801391267601,331.0698489897368 609.9320248114491,322.80068747651353 624.9105981447896,319.20520988327576 632.0033146977898,316.669066588678 636.7420423191933,313.290055425461 645.9632793745645,298.88978079888466 657.7026392713419,284.44657653000195 660.5385716238478,282.57403751241225 664.5010296653502,282.40476206485584 674.8775126477974,284.5097912947258 681.0801117402905,284.68608884315745 686.7701522931765,283.99856008894983 717.3648114832688,270.7301877163778 740.1340340025771,256.49066808602345 743.355989369324,253.61438266330947 744.9431670099253,249.76398201327925 744.9772908888932,243.23529433996487 742.2608433833835,235.8568008078645 738.7812750515905,233.56663186106903 733.5807749497811,232.3924928142743 723.5194612689539,233.5206865660557 717.6057757565038,233.22149213835974 711.4843595460322,231.07804737077754 704.0083953987937,225.24482504914522 701.64678529383,221.88169100626567 696.3799997335599,212.8152101897416 696.4077466147352,206.15656492003836 697.6965008264248,203.17584685033853 703.2627060695702,199.4114161699374 714.1964273984994,195.32849805122646 729.3494376310937,193.77560745400274 738.0032615182424,194.771219443807 739.5264302711225,193.76609193885247 739.3946307776836,191.42203968162255 734.2398455550642,185.44772634513765 732.5757267937768,181.39638015299113 732.8597596000666,179.90415693645423 755.5331833342786,167.4566783178966 756.5115019303779,163.24503720156656 752.4216922808587,161.08499947097653 739.7671940329582,156.80451851861653 713.4067842597708,144.44139397721062 686.8399535053267,128.4806790848961 666.7535985841547,110.44747841651088 664.0332474030378,102.09449297918138 665.4188266728589,97.8837657895665 675.7087325428412,91.10089493714827 692.8828009289737,80.28883540085872 698.0907673296327,72.33222982377345 698.0243939527971,65.42477128177666 697.2644841477035,50.25019187343037 698.0009600314652,42.34693438029831 700.2053007502327,39.118166037562105 706.6630932742875,34.83716117125539 723.152345122005,26.73253186709826 714.6908019314644,15.537010741877339 711.1019401840407,11.804141980856912 705.3763872801103,7.875783420534049 698.865615727489,4.934483499911721 692.8061934612086,3.1801778517623234 686.3142993709741,2.172421684854953 670.4493470878699,0.8967171297352934 665.2941382518516,1.1698733474585197 660.7657976443983,0.2559134546099813 654.2812891251164,0.0 649.1377521795779,0.5977225843762426 645.3410008218013,2.6805848931212495 641.0180746410183,7.906561753094138 639.5445109659546,12.461982324963287 637.019555959678,16.9054560053695 632.7149203393482,21.377922287549495 628.3106609863586,24.982703252562487 625.661149398183,25.873476137138255 619.0711682875028,23.234087338421432 603.8789849402269,9.560694766764414 601.3784961625988,7.850585056651312 596.602895081075,7.793077128524374 590.8292886891255,11.237230240066083 586.262743216345,15.270327674645046 581.0010874390205,21.24576149927111 574.4946033224693,26.917435366102154 571.7696105227315,28.661836021515455 567.1590970113984,28.805513039965945 563.1609386145715,27.007414598689593 558.5324397547001,24.123934801325504 547.281213829395,19.41454806157674 542.6715636574855,16.857739308517125 535.3431311928614,14.773330363773198 530.147657020639,19.02432363364801 521.4095931922845,20.46524851406184 503.5679082505215,24.41661418685601 492.5392612326516,25.26293627582561 474.2156393822513,29.043268285654904 466.72484445988005,30.21509001583945 455.99169658152334,32.871154498439864 451.1235766078068,35.05912383814609 446.2027563659455,38.62559344329793 442.278184184401,43.832641351803886 441.82284946761195,48.92963511330697 443.3559055816753,54.1929713975461 444.1854652536636,65.629345855476 445.15557517957797,70.79655128228467 445.3200673850877,74.68649969857393 444.80026739334426,80.1322364237933 443.43237678243725,86.09461034993774 442.54424182000696,93.99766374677381 441.17102595843915,99.32863701032818 439.05484148641193,103.90204295425826 436.8715482592791,107.232012779289 427.9282938751232,115.98654516732665 425.90335847598243,117.59286727000313 413.77838667772403,120.87821158870668 409.0085156396427,119.94902019351514 399.1700820219392,116.0725014915455 394.56369571515523,113.95852208161159 390.23061169011316,114.78746559931233 386.6762352816892,117.01569429431981 385.6141083272809,118.88882681695156 385.43185800405774,125.17915985939726 384.74509229552325,130.5042768785529 381.9454648176307,135.97795775450015 378.85003224704155,139.60161008310786 374.8961273734168,141.35439444876806 370.95422357155354,144.90052310225303 366.87010431487465,145.00323507598023 358.3365091147311,142.78622271274003 347.71500703323596,141.48031039722684 337.3115060250008,142.9851087681559 330.126306351484,147.02446735133526 324.3223943517781,153.05235499639195 324.02050296268885,156.09203793586892 324.803042099747,161.99748867857795 323.52467997996075,166.25897407410298 320.63385632366635,168.6151139857501 312.08831126366533,168.12647358640072 302.478133171673,169.56245558202988 295.6832665087546,169.37906400660302 284.6108338469657,170.3149186181398 279.8190954748237,168.8201228109309 273.00109934255664,170.2239360880078 268.91738113762233,174.84057725623745 265.210876453585,176.93725217468216 262.5650541323134,180.14650554363539 258.0110241073109,181.77913020121628 253.91815284332483,180.75695998106767 247.865794348987,180.16791151858047 244.64535224461238,181.71954780473118 240.63359775068596,186.4063122637832 236.62625672110943,194.01077909365233 232.51160070200683,200.62369221778715 230.7156259684298,202.28899942409282 224.47838973809203,202.78067621883133 219.68766965503673,202.49663739849586 200.52983598966807,203.11484599940388 198.0078248944548,203.9078563466984 192.7005194094595,208.22454406268537 191.20114075449345,213.2835284903565 193.5380109603146,218.36523670372776 198.63633965978482,223.5417384869146 203.10967742528447,226.87637063838577 205.9060958051948,229.86768232661996 209.49648085650858,234.8505429687633 211.3187720765204,238.27416261784072 213.39902118995192,246.8876672626975 214.21281096965018,260.4685377896634 217.05522914300298,270.12774183889803 219.15425156595524,272.7753743238799 221.59609121311448,278.32796553626054 221.11040384033055,283.59633190899615 219.27606618560563,285.8616726644881 213.74655203093255,290.82651918183615 204.00658795543814,296.1781818768302 194.81963525181698,303.73649412749114 187.55081826956186,306.8262779354402 184.7151184292588,306.91633037194845 175.9127415681013,306.1477236399319 172.78824915975133,305.12773439069474 162.17966970399968,307.3593143336392 158.84134486742863,309.063158252441 155.330295990838,312.39159746647397 153.49657083552802,314.9330918728681 151.89768310819719,319.08612230694996 146.96452952442903,325.6579971678907 141.0977394471817,330.2659943134298 136.54057578540926,334.9389339255598 135.11242177791354,337.22174933341785 130.34165884293145,351.6811646528871 129.2907009637356,353.2588608806054 124.16905071601978,352.62806825242956 121.72431752170496,352.91809765216715 118.51534831111294,354.5112514439776 117.78238009841213,360.5757525693175 119.44531748039809,367.9237860549797 119.18978464212421,373.51965378896523 114.98246400723558,388.09881741060724 112.00837089820024,399.5909913325494 109.26601061168708,402.74167499712723 103.50970181360248,404.5326639171858 98.38812820071935,404.1444030743935 91.55540102620034,404.8696772173997 85.98901050254976,408.96626687619516 81.30006405718244,411.5681392518203 73.97962306213836,416.95015237638154 71.2995522840414,419.6908152369633 68.77601663488781,423.77924799019615 67.61221764121673,427.4925378191598 67.55864271004299,438.0289533219583 65.97552913306728,445.4091544633118 66.22525478322277,449.94052668589995 65.59827303719196,457.3675129994298 63.616072072654525,468.9598395135813 60.57656164545902,477.20852253587407 56.076026071492166,481.0733823076009 53.67568910208399,482.4864454944643 52.70553426939899,488.10935372200584 48.257931430204884,492.8336895483096 39.155661920633605,499.4724668498079 31.642724548182432,508.0755067028159 29.24081745014421,509.00788850047036 25.323633020475828,509.26501143448036 19.17125656623995,506.2855194126083 14.107412469922144,519.5011787931669 13.811600832339465,523.2008035879786 15.717267471188148,537.377930990873 13.211335403916648,542.0715545006533 8.357824691956834,545.7860554840033 1.1860618306745454,549.1461412722565 0.0,553.9539373104669 1.1243113556373363,557.4002895211313 10.431637579225592,570.6408386652291 12.66907222699435,571.3750993830001 14.788195889534979,570.1278204874703 21.234733321941935,563.2033561721763 23.574817577273482,562.8231046566863 25.907352947073786,564.1691398363012 31.226437436785037,572.0362292055539 34.19371621296717,576.9653405913402 44.19967366438361,585.3170647817497 44.82916565722276,590.6789481042799 42.25388438940366,602.280563209044 41.685307316878124,607.2214296608828 42.51822067981118,612.1521496779131 47.62314260099988,617.3141546431214 53.955780132527956,621.9696719898585 54.979798048163424,625.1729515772214 54.00302679015552,630.1036419831328 51.36723100993479,632.4597799530654 42.060406644771774,639.4122259151911 35.81368014646431,646.8396542621387 34.61968582537893,653.25440580328 36.78192668755764,673.9740272284937 40.83984060638426,691.5972977361226 43.11714966951165,698.9863979696464 53.74573134389476,711.6360678389096 62.21056389034757,716.719418512936 65.28001037824849,719.9127537458419 66.21151798177956,722.8626986741921 66.27375155131891,733.4674030327404 67.11324777169524,737.5421524049361 80.76500868427996,759.0428460174602 82.6303161285756,763.7155016034282 82.4543253144456,767.6053504615016 79.13303826064408,775.2747508082133 74.70019778223892,780.7230916210277 69.93957285001878,785.5586698880674 69.13473574549103,788.8984483651253 69.47486709477782,791.363122719812 71.82822318222294,795.6659478486275 75.62218429422832,798.9681037560773 83.48032992357479,802.8815515586859 87.25662021878553,806.0619088352566 93.04921624207321,821.8759784760646 96.129934787625,826.543271160649 108.78420245355656,831.3872803917931 121.63756921923729,833.2842407364506 130.20358540690864,833.0360647943089 150.20928797688484,820.4175413566745 155.40261362728413,819.5140627085825 164.99281483817558,821.038438560611 169.09354020029042,823.7241484450155 173.62914261280346,830.406937969298 179.43838608934158,846.3838714168031 182.94493196416235,852.1543994893849 193.30393166319456,861.4393900650576 200.1667397756103,865.2010965623933 204.34982592680686,864.9174488882887 215.3250552787704,857.7943537400988 221.18864284856016,857.7444266970824 222.80434623941701,860.4141763512263 224.84902594142778,861.423956865774 227.18851457097819,864.252378325973 228.11762346324795,867.3588243000698 227.82465581069815,870.9224272257867 225.74443050036632,881.8374039863827 231.129128544384,884.6451441747818 233.46782438876346,880.9354734582578 237.907129737801,876.7583521969892 239.43774437051314,871.9990549556653 240.89450493276073,872.15268422691 244.85513410458572,877.0505155548966 248.10045905916905,874.693607584543 271.8595112903159,875.5916254297374 278.60407942019066,876.5173356842041 295.16973267737467,883.4618935045216 297.66440406124207,889.1157837324138 297.4874239667403,893.4359103812243 293.9551995867708,898.7743116675513 292.3639189529681,904.3337026043168 291.3888814785523,911.0045706355113 292.2446415995855,914.3272645275433 296.4618710109927,921.07426075111 298.4407385807331,925.55510837987 300.67996992148665,939.4730112728433 306.0568704658196,949.9094135399422 307.61733745770135,954.9574178064888 306.93045118727883,957.7982568066411 303.26917705078677,960.2934637115211 292.8788926839729,962.3543351179254 290.13977137957096,964.6056512597486 287.8438036504373,970.6649930298104 287.1672844169867,977.4595198564081 288.3402675916023,983.1753491666558 294.33429302957916,994.7172947501738 300.29529000293894,1000.5833556817739 328.1411595834162,1015.9827580279955 349.51013936728174,1023.2814738279859 352.16411646102426,1024.0 360.6070268354646,1021.591659564969 361.89756570996883,1018.3748010938525 363.62033952734515,1003.9390794918464 365.94450905408445,999.5984885293866 369.6881565975236,996.9901815498343 376.1953973358709,996.5715974069057 384.25195729937167,997.3700801567234 390.26637518703285,998.9432311195847 394.44291574403564,998.5418825900041 400.9262699908795,995.0391474011928 406.79675594077924,989.6992774008208 413.3242335886382,980.1631187751947 419.0443353259971,969.7017190866982 422.0223724604191,967.3751484651012 426.6097835607572,961.1427113750508 435.3020760161003,954.1832332755193 443.8826807680554,947.6521032162843 451.0736400239866,944.5319084506157 463.5851436136123,944.8209207508 468.55821756449143,943.1925954938342 473.0855770802666,939.2247595304887 474.48063535814606,935.7628090098124 474.4155636602394,926.752076514483 472.51646070691174,918.381423150938 472.80675913842435,916.1472076358764 475.3571552473754,913.6595616355605 479.3724276323348,914.1489271309074 484.57296467416296,912.0588732394732 491.97576896201133,913.6359129625608 497.471301517017,914.1021033734141 507.41519016448933,912.9346454040602 515.3412182131881,912.3856350958408 527.5347300962171,912.6202508176575 542.0945944744398,916.0997359114126 548.3348356233931,919.8763800357531 553.1622820342527,925.6388731964831 560.909117513776,940.9410772665512 585.8197031685679,974.7340469765178 589.1982692407217,977.540221580582 591.1408877493656,977.7789617050609 596.8193227584836,975.1380815933358 602.2760014692251,971.7606224961892 605.7343245963261,971.2389339244287 614.9952658715897,972.6914686765942 637.1421037321682,993.8891621765231 639.9885809774537,1001.1650954556335 649.4040741847921,1009.9918414347211 655.544806076783,1013.2643646722568 659.4256486836019,1013.341865162925 664.5018101146297,1011.1952053464408 668.3356389621121,1006.9580884398871 669.2273030576538,1004.3592193867034 668.7933982709324,1001.5251340842885 666.2093083952834,996.8671624035782 665.5369818899703,991.6922090032463 667.4346664283041,986.1221404727684 672.6617511415676,977.1837190412859 677.388841503278,970.6557987079813 678.3663907053808,964.8508478524617 678.5729346714741,954.8535872777738 679.8635247623456,951.3887741395328 690.2025875633337,944.3589657051691 692.2273907212965,941.0129939053597 695.423589441344,933.9367717036118 697.8457145548258,930.4632087606909 706.0788498299046,927.1505033268971 721.6504443598968,922.7728095022856 723.8901703834164,921.1339845882906 726.297257157742,916.1749890999629 727.0620194143681,910.8017574296218 728.3550523724956,906.8267759710419 731.1914288234195,905.0709168278132 738.127847336895,904.6136221174803 742.407052886084,902.2184678264028 743.3067801672215,899.7302503224681 741.3071682527255,894.457222018998 735.2759976243647,884.1762204240667 730.4619381833274,871.714261911854 730.9259591813649,866.2851541235535 733.7041603125033,858.5912246445124 738.136361745383,852.253084888192 747.4576302237285,844.2309617859901 749.9537266430095,838.2805739270674 751.1202207841857,832.4669208531227 750.2614381908143,828.1058056582033 748.1890589072827,824.5536728141849 745.2986387386526,821.5024570212546 744.8175908054202,818.190679638506 747.3662204114484,813.5718382278974 738.9510619583597,810.3583259485449 731.6078190308024,810.4609990878773 723.890659530266,814.0134801408185 716.1652986359998,818.5495060028109 711.2951710215474,819.8442492493627 703.114421617894,818.4601593655021 684.2804848696799,811.0341776323908 680.5911213227145,810.5779775352114 673.7928848537201,812.8211238517342 671.354278343419,812.7222278254035 669.4989542979694,810.8872789202284 668.0186614672838,805.6002371365134 664.2917609067788,799.9669785464442 660.2062000216746,798.0393693510889 655.4218270499598,797.7165546199635 649.5136574936915,799.1408330691802 637.6330150218791,803.3234853597485 631.1191890040539,803.1458519168818 620.4057374127502,801.0236972633077 615.107750687888,798.2984011775136 614.1655830804563,796.2092261639943 613.5084686516464,791.5289661681372 612.5728069102953,789.1942979462534 611.044654390474,788.5850340905113 606.9784545651659,789.4899650768596 602.3991261051874,789.7763825983341 582.0104309190126,782.5401298983285 578.5307880040791,780.2193259526592 575.0263684594568,774.0809458775461 565.365766029263,773.4187702182414 560.0682433139046,772.3384913431481 533.3820979103638,762.2272005293867 527.1507985563898,758.8129471465109 519.9260485922309,756.8794355471505 507.2262233089351,755.4825369744985 491.8789601142382,751.6315339387646 489.7210203776306,750.166428847828 488.7917386397484,747.3297521046625 488.1304551910653,740.6773579844789 486.7850388627162,737.9783680640894 482.80474607570716,735.1585136551387 475.98951279692125,732.2989722655732 473.90802555702624,727.8670042058241 473.2732324726627,723.3119709516104 473.80676139458456,715.5337767386618 475.8875406704613,708.737134116455 477.97846196370426,691.2130723659637 480.43881209949944,682.01142774938 483.65433422371683,677.9154364404183 493.4315370352802,671.4448507637803 496.73169996975935,663.6560403184669 501.0212393045382,654.9925413355234 510.30414702509466,650.0689582933301 516.3683187168562,647.932658624149 517.4900732240516,646.9309675004681 517.5657791823967,644.222253076879 516.2277822724669,641.145836605052 505.50252863957667,633.5693859869979 501.50566536470865,628.5329094029163 497.95930405288806,616.7066687048391 498.0157313404351,610.4195260060571 500.68173249850116,601.4653798910292 504.90123648957587,596.6263187481757 516.510105075347,591.1226485110428 522.2790758084668,589.7248597413536 539.0169917101421,590.8486283602117 564.1355693861169,596.3846014972962 573.9519896535111,598.9562056559985 589.2337512363512,604.298038037091 614.032077416959,616.2990172309508 642.3682396317287,636.0444146482726 646.2342986022853,640.8754933970222 647.0208348628433,643.2092757427865 645.7326916930058,646.7368860826216 642.5603295003092,650.53982970131 640.7648750385374,654.2566560026206 640.6994237371706,658.8176429862551 643.0525379059862,670.7570734048412 646.5639010300279,676.6549431405783 655.1772571601232,717.3251625210218 659.9254850299579,722.9470224459071 666.7779268596568,726.6990021843217 672.9016813713598,728.2360798415027 678.0870176762453,727.1952949758027 682.5524663108391,724.5563906624448 687.1802580579428,718.9496891681654 692.769506941358,715.7985514294967 698.4702316448647,714.7417747516376 707.5481157122238,715.7481848557832 713.0812042741819,718.8879462132024 715.7620780817881,721.8074122403502 716.216410521003,726.7431537676318 711.8226315044025,735.9186985109018 710.0366929161869,741.1213143529978 711.1157848271121,748.0145324429334 715.6582414171926,753.3935710336871 722.8125684240842,754.786885043945 733.2975555660764,752.2396164940461 739.4187338442439,752.2829479055915 745.8688941200276,754.7981541655079 751.9516647531213,759.3934668337099 755.6991468656665,760.032160361091 756.0280759720878,764.7760615476373 760.2126219365468,768.2737516395542 761.0943959387894,770.0439304795527 760.0231359083134,773.4821500181952 761.5779282210727,776.9259699316777 761.2184301393493,780.1725804548721 764.7319374032113,782.1538388479232 768.7175212225787,783.3416169249747 770.1167503399532,781.7209157465512 770.6346122957277,778.7391240792382 769.5902030432518,776.4776365715073 772.5706293528347,776.7543727364987 774.1564165536516,775.7883720252319 770.3879953710864,773.9524732260539 770.6500260830544,772.6010436725823 773.7999049627524,773.3774335509328 776.073132464814,772.7402255942783 777.5982461584282,770.5560174521386 772.3642259273968,766.9453786774827 773.1793073180417,766.1716247473671 777.5009895907602,767.5698268447371 779.650265161059,767.1918221951089 780.2162878001379,764.7192598016625 785.769803340525,761.9850448704217 795.0035843478064,759.2325837297108 797.0392418128497,754.1167236692058 799.7824391594413,753.9149901187686 802.1038250624079,751.7330124662793 803.1812192863522,747.9692875946603 802.2478179542002,742.8329626870145 799.9473063416597,742.2625076525986 798.6095297206065,740.639753501193 800.7586149600335,736.1583041489168 798.1035321335215,738.3750992707203 797.5352284686834,735.5971254383682 792.1757264344642,733.4022278394389 784.2560496794501,731.9984412525772 778.8816309751081,730.0151623658976 770.6977062732002,726.3835144280074 766.9626981997847,724.3143889950876 768.0680743058282,718.4235179387772 774.0370907614317,721.0431166645386 775.4576277929879,720.9262089719546 774.881309557166,717.3007665949542 772.0291925033616,714.6712706781219 773.7800631528876,711.0332007758211 776.1434218283483,711.3579275774807 776.7968885607768,708.467042263229 772.3883143882675,704.7978799933026 771.60410086489,702.8946303078235 771.9987418020958,696.6017100457027 776.6764871549263,694.8056969329627 781.2702614751305,694.4934933888096 794.9717706409351,696.4728169207106 798.4685777560534,695.374049149003 801.6996179242564,691.1082008961619 805.4909365601392,682.1733225058094 809.054123248202,671.2687712592951 808.5412944679251,666.6211599782066 808.6986357859751,662.3359533906722 805.6076653186544,655.9166947404285 810.2886297969459,654.4070875579223 814.505489470495,654.9264117858161 816.1046636147865,654.3877842856921 820.3175106590314,646.2076015367461 825.9586843997553,643.6766268964475 831.307737487435,645.0733840758943 829.1447296627672,639.2365468586702 825.065167236653,636.7128173308324 822.997837400265,637.8290136420503 819.6492262359094,636.8710011789548 811.8857559704048,639.87438519286 810.1115498587797,638.6757153958579 808.5139587533174,631.8532459657738 806.7052843002972,629.8053019510153 806.1382497036082,624.5771444899779 806.9932337062808,622.8713888159875 810.400274474862,622.9710579050571 814.3272459387367,625.1799095756958 820.7796541608385,625.5420237305674 827.4368489853866,628.99180749776 830.4798366238452,628.3459186979214" /><polygon fill="black" points="830.4798366238452,628.3459186979214 827.4368489853866,628.99180749776 825.065167236653,636.7128173308324 829.1447296627672,639.2365468586702 828.7492855539422,633.087861932646 830.9216521270116,630.91743557995 830.4798366238452,628.3459186979214" /><circle cx="365.28401576765043" cy="673.3105070568041" fill="rgb(100%,100%,100%)" r="16" stroke="grey" stroke-width="8" /></svg>