<?xml version="1.0" encoding="utf-8" ?>
<svg baseProfile="full" height="1024" version="1.1" width="1024" xmlns="http://www.w3.org/2000/svg" xmlns:ev="http://www.w3.org/2001/xml-events" xmlns:xlink="http://www.w3.org/1999/xlink"><defs /><polygon fill="black" points="304.2440077637972,64.23137639355014 304.34912464990595,22.128498603318576 302.373230452957,22.073769815609012 300.3124303812131,20.44619617000751 293.086621201292,20.002185817888062 269.7084817647906,20.121666895025783 244.80791540645905,19.91643231091507 240.73170651935754,20.24624785699541 231.03815857328618,20.222816483159477 227.30490369929797,24.003987657041762 222.5322275721596,20.767175758566964 219.12311123922396,16.50138750809856 201.97184118665567,13.975858256995025 183.13352585862535,11.054518820020121 157.61699276756093,4.056032505965504 156.1534062133066,4.614793899184519 148.6765203241,3.504736108013958 102.77732544580292,0.0 102.21520252278718,11.490320568380412 100.20459530401331,36.92646292655468 96.92717194312468,82.81827293247852 95.83348167623586,100.18812464799953 93.43364683282088,134.0287296097739 44.29562173089249,137.5083855092222 47.627208530232444,157.518009970271 55.111347549859055,208.31606822593994 53.10335106194151,212.24489234818486 51.367815058400666,217.85948918618124 50.59526441410103,222.32941334384464 50.65762740980461,225.5012282389082 52.401703975487386,232.873842662372 54.53427430687287,248.05514512353363 53.47215438340303,252.0660758097697 51.13376671541365,256.7623537859839 51.139889976444486,263.9728918027297 50.48351349750322,266.900320693822 47.463453463875766,270.38765476397816 44.77572132668205,278.91176429253903 41.32417950079026,284.4748691501825 38.719869652500826,287.85768477641113 37.65033167987382,290.6966304115939 35.47205054065668,299.18646371515877 32.693918065506516,307.39219809557085 28.930031492968727,320.06486818944654 27.578175676856684,321.9210138344729 21.79542429761466,324.8458781004075 18.557674754159734,328.64721231728174 16.126479996722455,334.88625537471364 13.17067829199174,340.53893240911486 9.400509494333194,346.85578829369297 6.356783147093153,351.16991255324626 1.3879219694356775,355.99483633533043 0.0,358.7328036832332 0.388895320304867,360.5580816923168 4.597078220701594,366.9725105889096 9.871410831255666,371.6508877186883 10.856139163558725,374.0497313050171 11.705860039536725,386.12496636815524 12.579558753773078,389.6941292718095 15.584134936424562,395.82977245700147 15.925658815305738,400.2049244700563 16.102309440233896,409.6099260854338 17.235104109418266,423.4675823603202 19.78353231506327,430.9065835745989 19.538770506304743,434.87374165593155 18.356703550373656,438.97948265219964 16.612475145819648,453.67935854953953 13.824537037990531,462.5604726342998 13.58483812340998,465.31447007156873 14.42043318638315,470.7718721432341 18.852799888345505,484.0689138239362 19.426108517603556,487.1099807620826 19.335782253067396,493.5884686210795 18.414155631718526,499.3936042232907 15.33839956076298,500.0400505705611 14.649948750786516,505.25560789549877 14.759207354864179,511.00618373055465 16.971621301331766,513.6840796701995 18.798408431894224,517.6939041400558 18.875218679353313,530.0202768046059 19.086743218049516,532.6840568270457 30.22467124866421,559.3510715445234 33.19720134751683,561.8740817192448 42.00476576616933,565.4434012269979 47.35058651285044,569.3091496460994 52.296300047441434,574.6996271401939 65.40782557542276,594.9140051802501 67.95363501827268,599.1818996492452 76.5978989449736,611.9719628260598 87.27898204800711,629.0365256094742 94.0766794719165,640.9460377050856 101.59348057211457,653.0998554510445 108.81691474420089,665.0703268828407 115.73285629066942,674.4583909551242 122.3689435617426,681.8296897883474 128.53264613088137,688.256918401586 140.73478519913724,702.4744168225085 155.0167487281951,718.7471785235309 161.50469861615372,725.7301791053408 171.7945910323747,736.1158149553435 173.94734449999325,738.0205297120935 182.39295278148617,743.8999584743754 189.74744303917313,750.7569018157202 207.5607380466722,768.6769936718657 225.48806851849292,787.8115999884235 230.74752407693683,792.0337744072091 236.0364217493194,794.1194189994573 235.9700845755412,795.4971587964819 236.8162487555652,833.8353463871993 236.48335202966626,839.9519805873613 235.0620670477097,846.8394666295285 232.92101386887998,852.6692684785487 228.0156915223109,860.5565624328733 225.8840038473902,864.8423929445902 224.7634871315628,865.3646377017425 227.3164581923344,869.1910845410172 227.6044149733266,870.6426339683507 230.5860619024521,875.1643011301431 231.8894111778576,875.1270959298554 239.95509842735717,886.3224492923134 244.79209092105518,893.7371973863178 245.00295600272116,895.6288492215165 248.496003588266,901.7291633852518 248.44531432353702,902.8313867467294 226.29596027588642,912.3426234382658 223.69332171706432,913.8370922756219 223.6576803427032,914.7051520367022 239.1735369362227,934.5231165730316 242.77439217455944,940.5422033315681 243.96220319245108,943.7432214106319 248.8729506937502,959.5962872271558 251.7057736479222,969.7958762588689 252.94158274475052,976.4028055621327 255.14385754692688,1002.324095869791 255.8130489524446,1006.2072937664717 262.4269901622758,1024.0 275.97198327083856,1008.0420193382968 287.1514432059927,999.5788763791829 298.18896199863605,994.546527920676 310.0008624700867,992.6404394310335 319.91528654953845,993.4931287897405 402.73855475913257,1021.9354537600241 441.79596884954043,997.2656492335734 464.59368902624266,984.4646448018641 498.6764489743192,973.5947439145725 546.2048997901219,965.1530234789683 595.627250318169,962.8976256299918 660.111721358422,960.0431970538175 660.5245603570031,922.2605516122468 660.2002064366744,921.7185288137107 660.4922947578963,912.3202079580276 660.3085862201974,910.1257205261571 658.8693037415836,905.2949682055287 655.9180134974612,898.4035230577148 655.2528787728515,895.8992654178529 670.064731179865,893.6167246655056 674.6156658475269,892.5197834664187 649.9219491912443,849.2988568943063 639.1237752396161,830.5834640683497 618.915337950659,802.7249737366574 602.1098197058809,779.9026672886504 589.1230537799005,762.8667733072949 581.634963324913,756.1068863703135 568.0811686105565,742.5096872246554 562.7764852348674,734.5659819112747 550.1776048709339,711.6894644519639 545.2320228990802,699.1045214382659 543.6664710932184,693.1551918610526 543.2597670883305,685.5809639395568 544.228018483439,659.537801343758 546.3336959071481,632.5725513936311 498.9487870122484,585.0703649771244 489.9181879365713,573.4223189073291 486.7651145319565,570.1810472226769 469.3060830839907,558.3769840039764 459.8460162473322,553.9607506524432 450.24775756234624,551.8724753128436 431.0259820264268,551.2936315515135 429.6932769251521,550.9032381997986 429.08713732849986,532.8209207117875 428.4389673910743,521.3003856657831 426.3731906766622,495.6431765916725 426.4002383294044,488.4470045778469 425.47234779355557,473.131364765796 425.38046422544795,466.84347704152265 424.8214565049834,460.08048004453406 425.32072065910575,454.7243448163308 427.07554123552507,447.5930827874257 430.21516916068737,439.62593239363 434.16386150433317,433.1035953447955 437.07138806897257,429.13134765931795 446.34895910248827,420.792826013164 449.2258028890707,417.33023574083836 450.2590162224227,415.35905129576645 468.46444623433314,400.85528099995713 475.6709630470792,395.90743909692833 492.07976988764335,381.1445639085906 499.3211789044392,375.35610057573774 504.91038804488494,369.1729373045083 498.41859271200263,353.7680354127772 493.535673788032,314.0656199160908 489.0098021868887,300.3830864704836 481.5949081176263,288.4810682267538 451.78904951349415,296.0440674167537 398.36790394958786,309.432829144277 388.09045138458555,313.0009802975527 358.68563529389803,324.04159803814514 357.04017937629715,326.6247281552505 355.9498193458178,321.5225664362714 354.7603016244642,321.933662513081 350.95496801377993,309.33579666996945 346.0232358562319,296.0055822977961 335.98244990870603,265.8960048676223 305.81274609223266,175.78653912773382 304.4394579577614,170.62527610512916 303.59242530847047,165.0714291136468 302.9933745136184,156.11569825879383 303.34673828842847,139.0113841524377 303.60073208997824,105.01711187337787 304.2440077637972,64.23137639355014" /><circle cx="370.74180133306663" cy="762.8515811409422" fill="rgb(100%,100%,100%)" r="16" stroke="grey" stroke-width="8" /></svg>