<?xml version="1.0" encoding="utf-8" ?>
<svg baseProfile="full" height="1024" version="1.1" width="1024" xmlns="http://www.w3.org/2000/svg" xmlns:ev="http://www.w3.org/2001/xml-events" xmlns:xlink="http://www.w3.org/1999/xlink"><defs /><polygon fill="black" points="152.8860360156548,1012.1492356733658 156.01467677165806,1012.8141762239684 158.45190719940058,1015.1021712626358 162.61641347897802,1015.6955891637361 178.19256080768557,1016.6365401701087 182.49086081300155,1019.6088341472321 192.4346971597941,1020.9017529290155 204.79093956473193,1024.0 206.96876535717752,1021.9373418584131 207.57600808268054,1020.2220976153835 207.70168533949217,1016.4420145198791 207.22179964021538,1013.6318911784252 204.52685830440944,1008.7503720987294 198.24694991487425,1004.377840717029 191.13557246683558,995.0955224483587 190.0160688977169,992.1214279995158 190.4750095999919,990.0903996339135 192.4770673272263,987.0959132418114 204.5254720540632,979.3124885454818 213.96175587235876,973.7917033351756 236.10462313980787,959.0490604130966 251.86075614847428,950.4725865224211 263.24799526868907,943.0954347601478 275.85157854185115,936.9831786044349 287.8441802155733,932.1337167972006 301.69194052836895,929.8059438308192 314.22111833352864,930.6058479405165 326.1853159207261,929.5033236767166 334.9909647496545,927.0994968994004 354.64931565931624,911.016795779292 361.7086901969691,900.4221646979605 362.48758618494696,885.9738073006242 358.3231385083043,865.192260274414 350.38047760172435,846.2398418545837 342.99108665365077,832.9485319400553 338.76296240200656,817.1901345358029 336.37901640911895,806.4856397064544 337.7196541857275,798.3287480734207 344.72699646768797,790.2449979098245 354.2136924673022,785.9618741815423 364.3512402613153,779.1866172153749 368.4234564449327,773.5251015091194 371.63124931061304,765.3412994451126 379.7879109107938,749.8309093676072 381.7495258537503,742.3224013205321 386.93512857822077,729.8108132818169 391.44889462107943,719.1774821800159 393.18912270310324,718.135894044196 397.97009045340565,717.7382964523545 404.75675264876236,719.3338802017133 407.3753917554717,722.7650603955262 409.5177891308303,728.828105613566 409.08359005017127,734.8680620099892 403.0545930835277,751.1708719573315 402.52653821706014,761.1934966922739 403.28581351051776,772.2963439229238 403.56483754954667,773.3198558764723 409.9368413981631,784.1801073158585 417.6948322823818,794.5680788598997 427.0483404933188,800.6938109272381 433.0042454947127,801.9610470525756 442.15942280114547,800.4113862654272 449.89019135949144,794.7254267813358 466.0854583863169,792.918732009972 474.5217804729452,786.6352859529792 481.9789574966882,776.8585791457974 492.80158563232436,767.4813934202289 497.04594480997065,762.4837716013875 503.07253462015484,759.3038352950048 518.9660518954589,747.5048528172379 527.2739256617583,737.527713090639 534.9511903369712,726.9157373872583 542.0593218337382,711.8893621393979 549.782585797998,698.7716473167786 563.2095567663163,682.5537510535082 570.8602267954577,675.708687994302 579.1574559230048,666.7189961781603 589.5340433453057,649.1316267628048 594.0551016971278,642.878458801257 594.3851793658476,642.0924923890408 593.8696650509336,637.8036487617655 587.2840335229741,631.5324196711483 578.6473539718536,624.5110727681988 578.0766609700485,623.5770611635844 577.0836998988841,618.7309253504493 576.6395884937439,611.9665716909183 580.0620154585591,602.0172121990765 590.9400581581391,590.3244286536557 599.5329109825674,584.2641556862316 600.1913711554887,583.5252483048416 603.80959814541,574.753553735113 603.4992906952223,571.2507756280427 596.7153771122692,565.3445680656899 595.2613151088233,561.201499340533 594.9705946350888,553.3907747653585 593.7788354947337,547.728368744492 593.8601534397067,540.8162680207068 595.846420395802,532.6640468030796 600.3854189220592,520.7709168261838 603.0574422988113,515.8800266571266 608.7803082140695,512.1017291057216 609.845937305856,509.9426064163399 609.795589514215,506.64137558193613 610.3797789522743,504.7581350992293 615.915106177504,498.91088856327735 616.6591374332071,496.69361699702404 618.3446150022637,494.5359391050058 625.3867437010683,487.05689231324925 637.4928781924152,474.59753525436236 648.3057109131325,467.1530002916628 662.9145858814088,457.240586720175 673.0832420004324,451.05447321158806 682.554973712522,447.369702062142 697.4975963154126,440.7192076963339 700.6821487960626,440.5982547984977 705.091139732611,440.85821267961626 706.8319909835203,440.5021574330493 710.8584494141838,437.2521686496402 711.258601079316,436.01550018270564 708.8924914524429,432.70934214717363 707.893300890951,427.7430729238672 704.2343161521972,422.982810703004 699.9869977992976,420.6815355456149 697.6277848173689,417.9506475103226 697.0640538293894,413.3885983887935 695.7843597396753,408.09783436730345 695.0556505045665,406.5527036559091 687.9320466169203,395.820318952355 685.4075559671661,391.53267324468914 681.4836894431593,383.01655139442926 676.8462279637773,374.35527191434915 674.4522120679837,369.3420681487961 670.0615977357493,367.45089590394514 667.742402302677,367.25119734245357 662.7284118472785,366.0272436437923 655.6613239081591,363.36888209037943 652.1106573723774,361.3849658683208 649.9773393004863,359.7901716154008 644.6957677346986,354.48971722302826 641.5036822381259,352.67551681209636 635.4577960660391,348.36220994579196 628.8065089122966,341.12596643350776 626.5071559682883,337.9030763921662 621.9309282095912,332.7585336240519 618.8490175588701,328.72823982465616 617.4525296393927,325.0694384855344 616.843354810722,321.9027833362744 615.5221687917648,318.08114355513806 614.0764714384418,315.81788504280826 609.2033783637684,309.7048939299383 606.2659937329911,306.3162278724493 605.3272297789083,304.53843008164483 602.3605466925292,293.97886502334813 601.3336423520482,286.886260577269 600.181897794104,285.1911677822495 596.9128018876584,282.88440573309265 595.979022231512,281.42437631313464 589.6040572837467,268.7984097728763 588.7947371870497,266.6897585494535 589.464264024447,264.87646378838826 589.3398682429971,260.8830354034543 583.0777342645022,256.09240579095865 574.7693023116984,246.02479135095382 572.8454490362413,244.0179570174355 569.7161230401471,242.02664205491328 566.4589929740889,240.45648810965383 560.9968782840874,237.11929727532652 557.0148882298058,234.16793974779364 554.163234407447,231.67900791631598 550.0884614451957,226.936824368285 548.4266724743654,223.85991253678196 545.1911666287665,219.01183770412354 544.5026678767163,215.35574610959839 543.589094299131,205.35386565458305 542.7477054402207,199.0475023644235 541.509394498313,197.65217661630777 537.0537518190782,194.46380181481436 534.601873016542,193.31139664599687 528.4836541746853,191.345359487235 525.8191832104916,188.88622593831337 520.4203844278842,184.9526798060317 515.2220840624603,181.66272857908598 506.92218828178983,177.9860408652778 503.9868939699617,175.97192224816683 503.576247529332,173.69542774844842 504.9607670001366,170.07957605204513 507.3501400556125,168.01613063329842 508.5763576362379,165.78644111907454 508.6176573317087,160.82872147277362 511.07904043743724,156.5034547191475 510.1193344398797,145.0580833696837 510.9482334916956,140.51057930154195 514.1579699048997,133.35709475170086 517.2460925778406,128.46883057913533 522.4191154058083,122.13528426820949 529.7979076052035,114.89707232903197 533.0777889028942,109.02194759079362 533.9774063869608,105.45702423367493 534.1205485598749,100.73612594712984 532.4592876607406,84.96346294432215 532.5574477508186,81.16396899213191 533.3719944757387,72.26774408111567 534.0270565128192,62.94368679684851 535.4850202346587,51.46736808201865 535.076938924833,48.90313396450165 533.0659106133348,44.90247126563827 532.3884752548108,41.481842058044094 531.7257269883577,36.222263026547694 530.7656279416581,31.528915145851215 530.2978287008276,24.523579864628914 528.5254038249655,18.850468696895632 527.1619418232488,16.741781677429685 524.160858480821,13.534192035467981 518.81749149559,13.532237853594552 513.2045223051391,14.065827262696303 508.35396052508014,15.234586508180541 502.58514256291227,17.62269513865067 497.13579709590914,22.505020121817438 490.6632387223944,28.054644459328642 482.28546583997587,31.138788042294323 475.84985238001656,32.870297967988336 463.79015413386816,34.421835559901524 458.31598735133144,34.34930124598179 451.43365628842133,33.72471014658879 446.94772895523533,34.127864861365424 443.7298206286799,34.99456544117379 440.96514433363313,37.56172188687492 437.28778989742364,40.153214514942874 434.86069787574996,42.482420991432946 432.0049214096149,43.82319048339343 429.34794190275767,44.11973009338351 424.2968547448552,43.70321983625229 420.77359598571036,42.688827523587975 417.99951902450516,40.4467866649012 415.25402548922193,39.514121986931514 411.7475157333472,39.15701755899465 405.93572815609997,39.81445496233914 400.2934849842293,42.26138675442064 393.43479740544433,43.26258883264188 389.08127310372083,42.42423901015752 384.38203277749346,42.24573176300294 382.088404891123,43.09826180456594 377.50220092674454,45.85547582161962 371.63500212880024,47.088372588832044 364.3783857573063,49.064561822482574 358.59898773474214,51.01107800925104 351.137497042119,53.80914394450633 347.57445595392386,54.43570040631937 341.2139546226339,54.59807948592072 335.958063533997,54.171819338240425 332.37129073762526,52.80914669158187 330.0399861958534,51.36822590152644 324.64290779029983,49.779189100228564 316.878511836256,48.67037093060662 306.8149915419836,47.04317703439051 291.6664309051012,43.72557471747655 266.86682419069547,40.0933334372761 261.7189262591709,38.77353609828174 256.3959872841728,36.71077527541297 249.4689703470398,32.998844823437935 242.79325894460192,29.746315148878125 240.09893411618435,29.0467736428526 238.2851071222002,29.061076069959654 236.64570415682795,30.281328101380836 233.60752081759858,33.44732204679951 231.06351745805532,37.809317594273466 228.58282489347425,40.97571709210274 226.9422407426919,42.289080759167064 225.68351086371138,42.29558605665045 223.3614276248289,40.10830623305674 222.69667672335487,37.81309449009825 222.86863666862118,32.7360366810218 222.43792909184603,30.519782560939916 222.60791269017815,25.80992435319081 221.23351515471887,23.066949827722738 219.9540075476907,22.246208342772547 216.32278331884368,22.008783190966483 209.78916944843448,23.367800004903643 202.3095081637236,24.372520516696113 194.46242685704257,22.444699282277156 171.17942822330653,18.6291743386372 149.14246852768017,16.422272592897116 134.71131897558956,13.118835715350883 123.84555082946413,10.224141560686917 118.7860642789996,8.196188466625358 115.02818223518635,2.188516778190433 113.34023381353464,0.0 111.74185590657467,1.1476517141921931 109.17818394151524,6.267631301649089 108.11269443251562,14.869248776908762 107.31061095183746,17.159734270917852 104.87432973350252,20.570897089737286 101.62341536970834,27.102896710338882 101.21408390222352,30.44301043318285 101.52462712118499,32.37331897464128 105.54135800205114,35.92263281054363 116.42638109514932,43.686936516651144 119.43961307419883,63.55282281620771 124.93667230564314,74.39786261922961 131.28649219211408,78.65243476230228 131.9563278533692,87.65266813315236 130.71762710840454,97.7007001840459 124.71188057663466,109.41042176641247 112.84745544064369,127.95559508181259 108.01496840033529,137.58036730787182 106.92927965593535,146.31915599303284 107.13906386316698,155.6543479808272 114.95431137683165,169.88262611725656 124.38721972370963,193.1748684947329 135.00907739441413,195.75533957912137 143.7767429318201,198.56597870821327 148.01934480448654,204.83529988051782 152.49377290480967,212.90710190835114 141.72944053195582,307.40830757852393 134.52285835671336,339.8074671897449 116.80239547446429,343.88693553687904 103.3816790156096,345.40896269588063 92.76598248924034,346.36965484869927 80.51893902473053,345.8171526347311 72.38033321266902,348.84298260728644 65.88005770528028,353.39775314752126 64.65296372270288,355.9127974677143 62.55018209336075,361.87256007974713 63.08868864735426,368.5893373885542 65.77405305183994,379.99875699406675 65.85975125807724,397.7471130087167 66.22483520641146,416.85352654633505 67.78968469053386,426.3432852235652 72.38516307844583,437.0972457738061 71.1947729245182,446.7055584008491 67.57466502275433,453.81418607092417 65.02863615125123,455.88900987459 70.98613952664508,461.78629045815353 54.51210897943017,481.0786786090107 38.161966473111846,489.11536505822653 16.490958611163283,506.5687130098986 10.109309371646841,520.666136164765 1.5518252376246224,540.2877277419766 0.0,545.5272872468711 1.2658750072168727,549.541342475414 6.489115352849527,554.4056704989885 13.928479910335374,558.5342926605492 18.814113264653567,560.7861514828531 26.29271624184866,560.2889521181635 38.77519351907859,555.1944250481095 41.56509079456566,559.782976090482 35.59259529467365,567.121733865665 33.834958267745044,572.271037928501 41.86726936160888,590.493546678398 43.18158003149566,598.3317240830014 45.97598147596287,603.2270547853407 50.05782290125753,605.5930033912399 50.346760324695595,612.534918920574 48.32800788285798,620.6221751144715 49.9807333025695,623.1240157133907 46.7523361547762,632.1285074157181 47.94909975009335,646.1056017700813 51.998664207273116,653.7024662266732 59.42044494888862,656.221842825787 66.1782631819089,654.3275101069676 73.65746645692562,645.9737120247977 77.3420070811563,641.3905691733614 78.07788982178809,636.0352606296703 76.6796654369968,629.612125980866 74.03024056166639,620.5724034675522 80.13199682645178,610.1431849222579 85.70926661040176,613.4012469557488 97.35995107672115,630.6208840585533 104.60578524904795,647.7671240483154 112.60811427946848,657.3655334732684 114.75832053806414,641.0369396873589 113.23671023462991,618.3485174158277 117.71098573552909,612.770573121966 137.32416514516538,601.8112273283825 174.43254573354275,593.7425908230337 181.29378369371742,597.0223375150508 189.71132966349066,619.852483819192 188.889266815534,631.1770996963385 172.12577453698339,659.8074230194436 161.00899999424433,688.5383771482318 167.17177215570763,694.9488428392056 173.08414094743586,698.0006246067908 187.2449741900044,735.7187581797953 186.4579899725933,751.4212582321665 183.7713222794983,765.19866657479 181.15275346034844,775.8433225833242 177.95935042383692,780.8240063454251 167.85215050944646,786.3282801835104 156.5505676751519,788.6781039051317 144.60665711367176,791.0031691275776 136.43427085859537,793.4005256960407 123.22176261599235,796.3498365156374 113.75393813552508,802.5009900704295 111.75253710272091,811.8871594135662 115.294697239265,831.4140579413463 118.66795023122394,847.792255653271 119.4741995852494,855.3491769051267 115.96556439684147,860.927730830474 103.69398646779796,864.6223104644732 86.04948974272538,870.6037328348582 78.62829322245926,876.1428446323102 75.04027882605622,881.3355073456278 73.53771234558108,890.2242523256166 74.95498291794446,897.6690973022099 79.43929288815076,907.4874758978972 83.45332546358038,912.5801912037751 89.37720349771439,916.2284213649627 94.6427422120641,915.9534700707127 103.21900265125714,912.7193676222582 107.42151624366277,908.8333337574 125.54265634986692,885.3060608128956 130.52836706542172,886.7492739034487 143.32901012313545,912.2868401981715 144.02244848311983,949.2773939126622 143.09875461914652,955.9450023594567 141.83968079002153,967.5544056680314 142.38057862193625,977.6327787833125 144.20292406922155,985.1787736463076 147.40831617313776,996.1886696657439 152.8860360156548,1012.1492356733658" /><circle cx="331.42432414759435" cy="453.16919329555753" fill="rgb(100%,100%,100%)" r="16" stroke="grey" stroke-width="8" /></svg>