<?xml version="1.0" encoding="utf-8" ?>
<svg baseProfile="full" height="1024" version="1.1" width="1024" xmlns="http://www.w3.org/2000/svg" xmlns:ev="http://www.w3.org/2001/xml-events" xmlns:xlink="http://www.w3.org/1999/xlink"><defs /><polygon fill="black" points="361.64069292978655,740.0576282774623 363.9772105886504,740.9556185085462 369.73220046532754,742.5499049870239 372.3644947193004,743.8671248245915 375.9122427380595,746.4828191597069 379.72362587468405,748.1760947955879 381.83251649379645,749.4907712328258 385.71378191244673,750.05872613796 387.10528455920337,751.0186496076021 389.3428340034751,755.7371193372201 391.69296368159166,759.3462686947813 397.66031173080233,763.0519600240356 399.73472553972056,766.3029148595106 401.9600921952752,771.4916401673062 404.1468661804842,774.8732875211514 407.53555156692806,776.9035240225654 413.83730754402933,776.92064903277 416.84140798437335,776.5485711328017 419.1406381081122,775.5178374865138 427.57637379307045,770.0428382693837 429.58664843162484,769.3063773921651 436.2285277499355,765.9310952492602 439.3151343186936,764.0331716874675 442.44970728333425,762.6060493441214 455.1338882063914,757.9702974927374 459.9060675493956,757.5661780634109 465.4755981770455,754.5921727461164 471.7391733545892,750.8048971636457 483.6293122131053,744.6436797770561 486.46185196931185,743.807826703638 492.46105162184114,742.7204181341526 493.90321461243,742.1537585845774 498.45088482670235,741.4065672711337 502.1615745260054,739.5985365726341 507.7591305012078,735.3430104206 509.95533096033955,732.5218641654366 513.8950178685845,733.6278849349359 517.968713917368,736.3477027007624 518.6439843790578,740.0849368306986 520.0060969777038,744.1669660771435 525.0853913679566,743.831769183894 543.739484126168,737.0735103883799 548.1338045760808,736.0354778237106 552.0402504757997,735.9887519954922 559.6907870915544,733.382849656886 561.9729853354219,733.3535163309014 564.3303644860478,734.4918129728633 565.7473492469755,736.3147094584491 566.900789114913,739.4527281997324 568.0251769103453,740.462802969455 570.6820997735722,741.2713216367542 573.5859932675367,745.6231770248992 576.2916857813959,748.6922225791324 579.6757647837568,751.7560726592646 583.4221891857565,756.1737290462144 595.626649740537,780.6513765779426 600.7164749518307,784.0572420431525 605.1232049191817,786.4374510149848 607.16446205522,789.1538316731812 609.5391723139023,794.5937932566211 613.9475181240603,800.3674688131089 618.0206138448259,803.7761575686078 620.054778106076,807.8440822150436 620.0535731790047,813.6202558415488 609.5324811953767,828.5529289866886 603.4333016651817,832.6205790023 597.7330823682146,836.8202626884496 598.3031300025909,843.1326037725855 597.997031790375,846.2906064081354 596.8110743127266,850.4899113947167 597.1325593342352,851.9500865115577 600.4449497444741,857.1874998841091 602.2259720758185,858.6988323328435 604.1440762508922,859.5571358959331 605.6056014085424,859.4601103895022 608.1785777133756,855.4596314932767 609.8435932555554,853.680516494298 612.823883664324,852.3870734109917 616.923339944968,851.3025874373046 618.0185055499891,855.829276008006 619.7851053625669,856.3187195812499 627.7084778910745,855.5424269955535 630.565476277126,855.8635924700212 632.8643561780052,856.7834400408652 634.5094423209397,858.8174739259211 638.8918083212229,862.1934646645968 640.3131667511607,863.789499110085 641.7099830855587,864.2078064676431 642.9480681944984,863.3761748491582 645.7559382656169,859.594772389485 647.4988412888314,858.7580356155032 651.0913866487793,858.261361220643 652.494946043697,859.194317928875 653.0223855559063,860.5332934419896 655.0474868534035,858.7985590851719 656.0634172553043,855.3999275020115 659.8011343345843,850.6458448495214 663.8832032227716,848.9479291027046 670.3410570817446,848.9377987690349 675.7881360216592,851.6542185595406 685.6513947650353,859.4558236774312 691.7762526727882,868.2761972573132 697.901327607137,871.3280584834887 700.1562912704837,870.920990420948 705.7303740898753,873.0092503212092 708.7904903458897,869.9520471774274 713.1184915368051,864.0559931330074 713.9653764176389,863.5182280221525 719.6616996167465,861.5826393275156 722.5495871135445,861.9634480121595 727.7944854946022,864.1546205304796 729.9977311055055,863.8157829170058 735.0959220659482,860.2104792923338 739.0025927494846,856.2496340437782 740.8046697504413,855.6214728506058 751.7063220466929,853.5616749952101 758.84609344004,852.8702697595053 762.5989762296659,850.8200642256907 763.2748857779405,847.0878089822924 763.278991693904,839.6182671014789 767.366014319291,836.5557376386471 773.490177821319,833.1464356560296 782.3376189007201,832.1136176501018 789.1476418316222,833.8031217846525 801.7392888198862,832.4287944456083 815.6937549746814,832.4111974167935 825.5423015939779,827.9959807869059 832.3490409619428,827.9992470548466 838.4648869410512,828.6699590008986 843.8986220450794,827.654440018773 850.3484530619453,821.8886190386918 850.6872875202309,817.1343653815254 850.6882991833995,812.038174756796 848.3171632766491,808.6438024633943 843.8979935010617,803.2067164580318 842.0090375989646,797.8685907061366 840.3360937583781,794.6680969031337 841.5570375365278,792.7366761108228 845.4516535639735,793.1976005656803 847.1842427022685,791.8440667447276 848.9826308707454,789.5484922411331 849.730649290958,785.1286658885803 849.4609863084455,783.3040281030165 847.6302991192746,778.5601720016799 847.8297785443438,777.5316272597146 849.8712957924066,776.2495474395117 852.1355521317931,775.4817617233796 857.4737983177968,774.6668945116721 860.3785912569145,773.2309872397276 863.8161678440841,772.1546362578237 867.0183881491469,770.7107340109433 869.3369099321737,769.1410090485303 872.8037591844713,766.0851186484438 876.6897674658509,765.8824280253823 880.6062376255517,763.1154217976475 883.0930469087047,763.1513329802715 888.7854377034805,761.0982420116966 891.1036676627198,759.8167536177019 896.3715720737747,755.4937283896692 900.9153070114347,755.2852388541392 902.9541078206372,754.5249904822714 905.881947404451,754.6324475424631 908.3903070800152,759.8838193639292 910.4451611143577,760.2230980075502 913.2130756580174,759.230254275541 917.3532545620991,757.1962786433578 921.2022665927072,755.6757955852413 924.7107858881096,754.8259060596539 928.8815431026974,755.0675551300355 935.7594166274204,754.6132903616901 939.84281032936,753.68590248469 943.8012370296229,753.4130164450837 950.8033771896391,752.4438904167499 953.1543669538141,753.1502117070607 958.9998271045231,756.5982237598918 960.6386332270454,758.190926331459 962.3955424951329,758.6857737201966 965.838557426853,758.4885344835128 968.7770829917062,758.9705235324826 974.3079447078418,761.3173415911584 977.278760158742,761.4236738867539 978.3319217616272,756.8484064353315 973.5872515450552,746.6451042407797 972.9124216660484,742.900932638905 973.2547843276246,738.8301290728734 973.9315808995864,736.451390544164 975.9706315387465,735.0975837766474 980.018009266819,735.45189955849 989.1840063861174,738.8749960641026 994.9470804004552,739.2346628340655 1000.7125084377112,739.2445151980816 1007.4909963512981,737.2260057754562 1010.2134606174787,734.513197870964 1011.8994280249617,731.1185856764837 1015.293643186925,720.2548135823909 1018.688424017755,715.8439961351174 1020.8725064593763,713.941626421484 1024.0,712.7479232521944 1021.753686649476,711.3813856984311 1016.4140497508868,710.5794862741203 1011.5306251500565,708.1139544215494 1010.3045322931636,706.1734567356622 1007.2911381450883,703.7228935814338 1004.9036264126028,698.6670950101139 1005.2815768397018,696.1923801035459 1003.329192022666,693.0732294702678 1000.5808700001005,691.5033001024011 999.9301521748204,689.3644456845145 1000.9269695839106,686.421271504417 1000.5842147406725,684.3107202972847 998.9875075677473,679.431567396023 999.1890252442336,677.4618682423937 997.9340967507995,674.6425655239557 994.2064688816185,671.1951058704526 993.5142649325135,669.4238995584822 994.1487359750512,667.0891220079507 995.1289046073406,665.5756060687831 996.928573863191,665.0928646261441 1001.7978439976638,664.882716249781 1002.4368693508189,664.3883155397696 1002.4447900798605,661.9643781395014 1003.5345902120133,658.5249975467273 1003.9209769340886,653.4443796942767 1003.5073705715271,651.1945265342817 1002.1356854908103,649.5771005061688 997.2612001282771,648.2626677731675 995.2623671882707,647.1837922854877 992.7123710497362,641.6580283458243 991.8034187462434,640.391674769306 988.2786984959835,637.6946647997719 987.2059988647426,635.9923287760578 985.9475343777473,631.5599493908267 984.0549977439545,632.5296460844918 982.4637557697786,635.4525219213328 980.4338600872437,637.2847251724919 978.3801810686284,637.3648010672778 975.4989738299348,635.7081845492635 974.7369040407232,633.6130153241069 972.6771838828865,632.0111594420833 969.5059018121116,631.4166041535921 968.5665751475119,630.0629290261357 969.1206781390005,627.3107444246223 967.0994194781391,623.5826018762867 966.8730216091973,621.0018615608312 965.8557694548069,618.1571126643546 964.9286397555127,613.012159039635 965.6528723150401,608.5267438157962 963.320203031,608.9370780216083 961.2119405244554,610.0968125976282 956.3164182399569,617.792055021311 943.0330447333691,630.5999022953159 935.5706649030941,635.2516339202571 929.9732647644653,635.4674986903859 927.0183343817446,634.5843840135813 919.5709258359534,629.4315960426236 913.9852521621517,626.6133830807055 912.1269694742562,623.8079671538418 909.0923133688941,622.4017243814533 906.0613409815886,620.0544311135769 902.3308972741524,615.3869370622459 899.768750806145,614.2085037459506 898.3691168159128,614.9087962814874 899.0667394796586,617.7098517324825 901.4015673468112,619.5749702405852 900.4639022573955,622.838853855795 903.0349487965003,627.2770384044527 901.8709024866233,628.2135272429231 898.3771717378426,628.6704209997858 891.6204134338487,628.652987247023 888.3588865502804,632.6055737016583 884.14891080762,634.9335437788832 878.5590376865497,635.6168909685784 873.1940308525576,636.5453122268526 869.4686569460501,638.6305272691786 865.0273614591497,639.562451658209 860.1343345506585,638.1567563888051 854.8447837893207,638.3349437652696 844.8009997499688,635.5294995724219 842.4711294015149,637.6291072953298 834.9967193855449,641.8239728429085 827.2828471624628,644.3888865667534 820.7490079133377,644.6216676401913 816.0756180473522,642.5267488330715 812.7972690485448,640.6640301085642 812.795864209663,638.5636295935909 814.2053594284229,635.7637043069133 814.2025241791474,631.5616017953595 816.5334538229604,627.1280414411984 817.7102626671019,623.402939306321 817.7050012782819,617.5722354118539 819.5775792798621,614.3037918114026 820.7501856440276,611.5027716881812 820.9828931405326,607.7735050555304 819.1171271365909,607.0777513901589 817.945438312576,602.6456432074986 817.4808491333982,596.116236717749 818.1735622004237,590.5160465724559 817.4739143199965,586.0873006652367 818.0448556953972,582.2204437422454 817.5534120635735,577.4871674406546 817.5452960005597,569.8900532699993 816.8126379391317,565.9667527881004 817.6403929759533,562.3375799929174 820.6483347563151,555.3282201400175 823.3077705746745,550.5047758917435 826.7516459336566,546.983167378655 829.4510904647793,544.64363974412 830.9060477810306,540.4335308461882 832.3432522220135,538.1144812197535 830.3426201078872,535.5361973401798 829.6268078746381,530.1663843238298 831.2677670603499,525.506059735791 833.3730803070486,520.6020701595121 832.2027032902878,515.93736710627 830.1011198465355,513.1415703648677 827.5293300894632,512.2062568705144 826.6023853018713,510.34745425165323 829.4066095218442,507.5469747820586 827.9995743183216,505.44173654519636 825.1980706855718,505.4477110701869 822.8606306076623,504.7486013137777 818.8923771165386,499.38391177050573 811.4087977371603,495.42283169724413 809.0755956082805,491.69507523059815 807.4348630505009,491.46026960169763 805.5579287419939,493.56007296756746 802.5193166526605,496.1329339842195 800.6508357125358,498.70193818399946 796.6802423569779,500.5737992148936 793.6425118965714,498.46992656025077 791.2957444811158,495.44632264196105 787.0849077954982,491.95138550643094 784.268921581898,488.4549917642373 785.2157675699466,480.98825894238684 783.7423274605843,478.00365711768774 783.0431230168724,473.80343853762594 784.4454535307268,470.0652734345782 784.6840610746411,467.2718552500353 782.5676909090212,467.97563029282406 773.9180755973337,468.22253141936534 769.2329560726728,467.2958364935994 766.6636520524881,463.8002727042688 767.130456641646,460.53743002004296 765.9653604003715,457.5112142741381 763.849432673765,455.8816362735038 758.4710044947902,458.69340206484503 754.9629184198261,456.3616503226125 753.0851575195431,452.16469621798166 754.0181546679706,445.8652257899031 756.8320377854741,438.87030413678167 758.6955615253629,435.36331542856175 756.1314775625963,430.9369303730574 755.8946170386191,429.07319392652744 757.2983475720687,425.1012832819838 756.1291693160204,422.77164205507 755.654396042247,419.2703229982954 754.7238047466834,416.4803905707153 748.8701828325566,413.69262325008884 747.6973803418389,410.1969807988464 747.6931091352219,406.92407934814554 744.1873763785815,404.37369374523695 741.1555385192453,401.5733930120911 739.0424875017919,397.38546992182506 735.5331180257083,391.55417637216703 728.7472947145185,386.9088192237521 721.0159598488598,386.68684049175374 717.5064132236741,385.0586919762118 713.0684573685519,380.6415692934371 710.9109907625168,375.34818201488827 707.6392192050071,373.48705446639707 703.4213679176634,372.09022831722893 698.5127471283412,369.5328884472229 690.0866032500587,369.079651269215 687.7620367519369,370.4777888015822 683.7769417481053,369.7861632907082 680.503540371607,366.28800047847517 678.636970046811,362.56325500185926 673.0349540938762,353.701230936996 670.4488899133465,352.0691478257628 666.251992575594,350.9067073109261 663.4430078748043,348.81187397913106 662.2794603119092,346.0122790626925 662.515070552591,344.1431067044807 666.480503001352,344.6077029401995 667.415929119404,344.14349134267775 666.2486052922688,342.0406088083282 662.9818108428602,339.4727632057169 661.3447063880591,336.90586838073466 659.4757899306004,335.51274010135546 658.3003774345522,336.6814083777259 658.3040417569767,339.9439871150403 657.8403745367992,342.27335539173885 655.7332378638417,343.2094778130412 651.2966652520989,342.7420419000342 649.661424881802,341.81151663618334 648.4931152090311,339.7162918939048 648.4877863679886,335.278653955956 647.7970510486911,332.24756482201906 648.4914887602973,328.97971007353567 648.0293638518826,327.1158196144188 643.8294171340033,326.6494634995149 644.9937605762752,323.61948106287184 646.3913765888856,317.44128663528454 646.0305954107637,315.9340976323473 644.0534913927845,313.7836798139805 641.4869671959084,312.64774352328516 638.4546897833453,310.55120305447383 637.7523262230366,307.74616063341716 635.1912722245269,305.65347190829755 629.115313667249,301.67838801713106 625.376466066004,301.21411753989173 616.3760968203039,299.7099273263344 606.3449280552544,298.99220899483294 597.0125342396863,301.78231166997773 590.9465516974178,304.80029360110984 587.6811292436686,305.9640290573768 585.3476201857573,303.6274945343009 583.0273284201801,304.09217512509156 582.3359682365316,305.0187890255195 582.7998902687577,308.0488715890423 582.3299623818388,309.4564349985184 579.0563462025402,311.77681828996435 579.2971558886792,316.2055256890736 577.897144459043,317.1461258495825 573.0105431839492,316.6647530025663 572.0715078032719,314.3272279258498 570.4395196052908,314.5618629654929 568.8029149501741,317.353260215603 565.5409789864024,319.4472766923144 559.020482516316,324.80240788683636 556.447077822402,326.431159259094 555.0533614260091,328.05792930853386 553.1890518250698,319.4246844584193 552.2626284948906,316.61786515484994 553.1936717800725,313.5870645502473 552.7252594637498,309.626156663222 552.0307628633769,307.52526355294503 549.2287575727298,306.5865870507454 545.7363197613729,307.74810368478256 540.3789974905447,310.53329703142265 535.7117508229572,312.6193647307517 530.1156317597831,314.2458755996847 525.6971391805135,317.50698563830656 522.1992048440217,317.96344834541253 518.464635005725,316.79221744390065 515.4326040545631,314.69332938994535 514.9684816061829,311.8891886205904 517.3531900193499,307.6588655675632 517.3535816589035,305.9014488437417 516.1480578617923,303.80626294702415 513.1560111955005,301.9961426741777 510.1514879943574,298.98350616379025 509.8525238241729,295.9815093249737 510.1499782018114,292.67782804298906 512.2567420453325,288.47180969928786 516.7587522663272,284.8736354219093 520.3588801502676,282.773622227382 520.359484257242,279.46935934338217 518.5491150108932,278.86652553636645 513.1588878300265,278.85848040041105 508.95637620580635,277.35255959151584 499.05254719454075,268.32273732577664 497.8444634035604,266.52374402190446 497.8579440942819,264.42712824573096 500.85110964531935,261.116061525743 507.4486334377643,258.12302241192367 512.8488539632041,258.13134576472874 516.4515459719241,257.2325322573033 517.3564366597374,250.32421883188454 515.2524839467426,247.61498345604878 511.6564843644788,245.81006415878028 509.5507510649289,243.40490780186633 508.6607944999305,240.09495422354053 509.25281181042436,237.0986054466632 512.5486013570371,234.39760885750604 516.1595736403897,233.79524295503427 524.2501877610201,235.91560303304857 529.9549602251799,236.22946265380722 533.549462882594,235.0260663885722 537.4559472347224,231.12859251777843 540.0374177283537,227.98847315421938 542.6915118913187,226.1356339540646 544.7891363413502,223.3395264933671 548.2878336198459,222.4133978731569 552.481008667091,221.96068627627074 557.145741400407,219.63242384335558 561.110237530875,216.37949122383964 562.9701834162839,208.67862636541838 564.8373825597884,203.09136762655237 569.9612841268995,201.00079943575395 570.4323840976588,199.36969312500412 572.9944005082184,197.5067280121308 572.058624440469,196.3364495364326 572.067004583049,194.9365440364379 575.5568261682276,193.7758201288517 578.3495254223299,190.98474660536442 579.2824338956494,187.25188164358315 582.0842357292088,184.69607725228866 582.780461344255,183.0662720211957 582.7836393477811,180.72783381882584 583.9400781032418,177.46681859958528 587.2070751311339,175.6078105041678 590.9339963877237,172.3449878868729 593.7421476595738,170.24918107752865 595.8367325823522,169.3229348612084 596.5421145001646,167.91800435487107 595.8370515240732,165.81980491071852 595.8592000005608,162.03083118935342 593.8039650460403,163.33946596784176 592.8212651380019,164.92474036341514 590.49564090166,165.02287441098667 586.2597142023824,166.16259825968814 583.3515213696154,167.72733865755504 581.8481425329122,167.51954874435853 580.8714577490048,166.4699589894342 578.1682040036333,166.26280437717492 574.3823193675593,167.46599334085386 571.9462413422768,165.4093168850519 571.7656087690108,163.10486399100046 569.8041617953028,160.6064397988232 567.9482294233962,159.30060697893987 566.1579358191407,159.10783845026072 562.2852973528363,155.85165175527698 562.6507398133849,153.06303437097506 570.7425685997108,140.76302247845717 570.7386474198677,138.06056094273458 570.1467292520418,135.9538075921655 566.4894941755406,131.26522910114375 566.7307791534657,126.83540601567051 567.422242321146,122.64227426176012 568.5951707390911,118.20896291478653 571.3806225344364,113.08210515204667 573.9442269282843,105.3905146051602 574.8675847405387,103.398134273849 573.7389469183933,98.70920992728816 573.7458398829597,94.19997107076335 575.5415860375292,89.99652238246517 576.1437997758563,86.9948054268956 573.4474210540077,84.28529593023848 573.1424552310357,82.18155803649995 573.7399101269224,79.77906380211653 577.6371845020404,73.4784818224017 577.6369058390188,68.3712461695751 577.333885448017,64.15651640629017 576.1444599251355,61.15186787221444 574.3365552043429,58.74404417463006 571.3444891450536,56.033999473108906 568.3488579311188,53.930920279442944 565.6499235348643,53.324449581204135 559.9675669644985,53.698101290151044 557.8205923893073,55.06549116215433 548.8519653699263,58.99725904169236 539.2519279955894,63.785144527655575 529.7803618415255,67.83364064915577 528.8461221222262,69.79971574093724 528.4982918671516,73.1070631907113 526.8763973156532,78.70071167903723 522.2127139677036,82.91936026084886 519.6071614482748,87.1587313128307 515.3161846291222,88.982543497042 503.8515678754509,88.96120194914965 489.44719762048896,85.94831677768423 478.03048761926675,81.73843692825824 473.8262732177497,73.6239157659113 471.41848463453414,70.92363443938268 466.31117020206887,70.92474781704641 459.9983668657957,73.62663888003885 455.49006112644645,74.23069076949014 452.7810305062543,72.13645107111029 450.38178124950747,68.22827375493682 424.7948214348596,57.751101304743656 422.39851651423965,53.54740272242668 422.3906409405399,50.24682686108713 424.1962740268573,45.13503988307764 423.58415580847,41.83026873752647 421.78837270228786,39.73400147439099 418.77676368875507,38.5313910599466 414.85743106231905,38.548210224263926 410.04095329482635,40.96351149829559 404.92390978502436,43.9758229381589 401.3080162977796,44.28824429605015 395.5855025108837,43.10107708276223 393.10929971146567,41.59890433329576 390.8071651402493,41.60846715262869 387.99262316357203,43.020863998381515 385.974367047533,43.423674496397325 384.76355507297177,42.42442440202876 384.7666883826432,39.01989578266921 382.7574618810797,35.21090977216443 380.6939747390095,33.354020277556515 374.8870829542649,29.8216786740237 373.2183885773516,28.43682852639222 366.60807311747436,25.627609483502397 359.6176183889941,25.73241238887192 354.8321583984455,25.315006078428382 352.1868322181141,24.661097252633454 346.28314164586254,21.682046686627586 342.738170177063,18.243277539700443 335.9517344219508,9.022622752370921 332.50240746349687,6.321399514450491 328.29367422422456,5.534419324535179 326.5915373621533,4.584290853567609 324.01309836891795,1.881652174767396 321.019856615358,0.0 315.6172489119329,4.040803888596201 307.1672298693119,9.212449241361242 303.32940393976395,13.333764227156394 299.3596032525594,18.565453893720473 296.5734123994366,22.8338350852614 294.1643437111556,27.340391935065213 294.9506012823456,27.54538121361793 294.37018675490077,29.824940608447832 291.9094679532319,33.02849176255643 287.436613522698,35.80815107981846 278.4895186350911,40.12432298710155 271.9962011411955,41.982918698289154 265.75251701956165,43.41944211157988 254.83718312077937,46.581243493760326 251.29471281923117,50.53085916442285 247.49856117948767,55.504055960145024 242.52212829831066,60.892754315805064 235.4478097344926,67.45511042824967 230.44424944684073,74.77243232500894 225.80310428132913,83.95286187176805 220.58945697893563,91.772591571063 215.01525501931656,98.69480841394284 212.01972820432138,106.78601537521456 208.0301039064822,112.63557110446891 205.1163975345892,114.49776242565304 200.8594748658953,114.22715543622462 196.87921933998894,112.62104136987148 192.09013335156317,112.34706453539548 188.45643778142744,114.66314199654641 184.38257146244857,119.40774783256654 182.36001432116822,121.25883501201156 180.24922263952448,121.33724839044896 177.89561686746563,119.98747692754864 176.38512346839522,120.57401180221916 174.3645811721875,123.43382579511979 169.91187570345775,131.66930372542197 166.5484103146833,136.9681320802689 158.0931711599634,148.5518189236667 151.27921944330168,156.11529901968424 145.3949159517267,161.41022617146223 140.68268395538817,165.09919751710822 132.61217790175886,169.7143228384158 121.55148256619934,176.5024703467368 117.26145556433711,178.59418080743762 114.14926900455947,180.783282581531 112.8814942151825,182.79882528599558 113.81224452636579,192.23090047225082 116.83897618955588,200.98590745717524 119.44780074901645,206.04381603289278 121.46232301971499,208.82663343388606 122.47350655333143,211.60063148090603 120.86663234688957,217.2377071035446 117.00220872273144,220.85550722072787 108.91739837273656,227.90700258013032 100.75474172900991,232.0258854857791 94.45452536205617,234.11738105043605 89.65257768079569,234.87524347048895 84.94127389949139,236.89350635497885 82.7509186521182,238.9083475415324 81.80974383449464,240.92661629993324 82.15824547868777,243.19960182730222 83.24621935621252,245.3050358398416 88.44443201723837,251.86613266103825 91.73130743690723,254.47869796687087 90.96202366450457,256.91585897437085 87.68213119258628,261.46126788272477 84.74189408270362,267.01068551382616 82.92221860707276,272.23082772977943 78.94717506751795,276.5618266862249 66.18241409724236,283.73554175509275 57.93512989429057,287.7229703488266 53.15266367704241,291.72489656796074 51.85267221111291,297.08080874635914 48.30058820861523,298.7538305212298 45.268214699339005,298.49971543883044 44.50210802565805,294.96045968137855 42.828973542223686,291.847039705267 38.691434908899375,294.7143813191642 35.99866751670099,295.4733611693556 33.04406093488248,296.8200837268747 31.015931510688596,298.84619579371247 30.85041561592191,301.2016297765514 31.936630178268874,303.47379836398204 33.54038867963882,312.9035725156215 33.287015015114406,314.75377442841784 29.50211661492844,318.29500693722355 25.01972340142193,318.4612480077659 25.277374563875764,314.0006123587493 20.298740257169225,312.41352765030354 18.361655884712846,312.4135807666554 16.929396951694464,314.27091209736625 20.21551367844433,319.1482707629616 21.23167706457003,321.16764440596603 19.538285691585067,323.5269731204378 17.1772395645107,322.7742239876809 15.659489818574313,323.8650202308253 16.296028905501306,328.13513601656825 12.235888383445563,330.32396937579097 6.492300074939122,330.5051506523105 5.746485897298379,329.1577586306521 4.049816754557238,328.567100771304 1.1884640693227537,329.75036091255333 0.0,331.7749741065435 0.6681423280339387,334.80132110870557 4.304843729148568,338.50707409405175 5.575867224076865,340.6862598513601 11.706379744138786,340.8051414826481 16.680013838273275,339.7208116809601 21.76958155273702,339.3069366199362 30.08519775426937,343.804548956522 35.536753386389826,344.1775207377418 50.49173140106189,330.2879954644203 54.220909464230346,327.3632906975215 56.876231485229226,327.37066114496656 58.739680188434605,328.69289299060085 59.401702791348725,331.46538145003205 57.43242041140804,342.77713017439964 56.247600939717195,346.81328949756926 53.43771186844556,354.5851556382422 49.75536895020733,358.03290668055956 46.29599868681622,359.55079151810014 44.1438325602004,361.7059498450916 44.13999188505412,372.06321962032973 42.41310866896635,372.4997386537879 37.222937722569796,363.6532786977778 35.27852565177392,363.2257883956526 32.69098260833871,363.65423457906604 30.084280959547232,368.1905628630339 26.41717128028452,372.08257546953683 24.6855791864365,377.4797904750288 23.170330371654263,383.7331281841113 18.837724551712267,391.9452982395308 18.837151181829746,395.18367463359317 22.95491000808821,394.7423881501872 26.839051587551236,397.3291951504823 32.03882323699379,399.694087494488 34.19801464149214,402.4987247469188 41.354011815177124,409.5120568122627 49.3454134443761,415.1143643455177 61.44475842809552,420.2907716892791 67.06435433150942,421.8054784363712 70.52055721537596,421.81068330420374 72.25290437254857,420.9461921128738 71.80572322188755,417.05904228712404 73.75855674073028,414.2556143653064 77.64900951848936,412.9671788465735 80.0184055260886,412.9624318965104 80.01647096607111,409.73320278423904 79.58945129966692,402.3908427503156 81.0960304587442,394.62121138878217 86.48983142016105,385.5642249899388 91.24006298433719,378.4435592732485 97.06590654487067,372.62841913649646 101.81488547046274,369.18127194291463 102.67493531979663,370.4758757444737 100.51651519249901,373.27779198311197 100.94481184056873,375.865983928379 103.75523459108203,375.8739196639759 106.3439015269568,376.52335220212467 106.34241268727538,380.19583496914174 108.50637331751891,382.56528251888756 114.75077197786709,380.4179039825313 117.98470104894417,376.538417423065 121.64883259540842,373.9587174798771 122.95649682668011,375.68480358117296 125.5287454094378,375.90738707346674 130.06249506610413,374.624653093171 128.76411671955134,378.938460917897 131.35801679121045,380.2323274255128 132.43324845262603,381.5299203579892 134.8058417207177,387.1468679636033 136.40371799727552,388.5711401641057 138.68435135697786,389.3122829902349 141.48428932215322,389.3194651595012 146.66520859288957,392.77634809829425 148.60216923952194,397.7549373120394 151.62014451311316,402.2890232614077 154.63457731152582,407.25980452794175 157.00833637664383,412.87766722315575 160.03088235856976,418.0563898910176 162.10436949101083,419.19711341053164 166.2058021941632,419.4241414302916 170.30380880081486,418.7878582609941 173.9684850588379,417.2781634015846 178.49897277291106,414.0505731812381 181.07674167880327,412.5485380835963 181.73581773372928,413.4081113067187 180.86628611535298,415.5678995867407 177.411188695707,419.0125460755667 173.9670799133916,423.53748878295954 173.29482050956543,426.65696997203753 175.47194727048176,427.6423858550093 184.0970880994211,425.5018330205755 189.92381614647073,428.0929257525316 194.02073399115457,431.3390041898288 196.53896154655388,432.0305552968981 206.95997732703105,442.36362278306365 213.07388542339214,448.753332359736 223.70991741333094,454.3421704973888 230.63100118246345,454.8762430542179 235.6815169605749,453.28917592082496 241.26321295397878,448.2314549959604 244.72520877191343,447.70131145400046 250.0396328796095,447.6914308869035 255.91418492050744,449.5576896552659 267.62290591996623,455.926789608309 271.61821955341435,459.3806008283257 274.277581136133,463.1021329745477 274.5486348487257,465.2205096893387 274.1332071350543,472.37466170067205 272.8509997590319,473.64513784743315 267.8844751758684,474.94803542016035 265.72494201188243,476.8901809847468 265.9344392877236,480.34051461381694 268.7544797630903,483.1404275655767 274.06922290258706,487.3713549631745 282.724481860473,493.4035244731288 288.78589239759197,495.332334394665 292.8984478212631,495.75505059996846 296.7868830040767,493.1549638552744 297.6608965465955,488.84070749262685 300.4769709232523,480.1968931576779 303.50699260234654,473.0703532429118 308.9164999181959,468.73963719964604 314.7700164564188,466.78051999859355 319.54770355162236,468.71547793067685 325.3827852473744,471.92816824284535 328.85423746583353,475.58588798295125 330.15480281715213,480.11528900216763 329.285936343833,485.2993560881283 326.89906813547987,490.2628684014148 326.6891140223938,495.0163470738095 329.7283254150445,497.5905909000722 336.0070292261316,499.3008434563919 336.2279694766808,501.24451691591565 335.1370806664658,504.4862196639467 335.5738584131094,507.93806347806515 340.9888059672275,509.8588192216427 343.3788847374782,512.8725851148139 344.46232009320295,516.3213256647039 343.81082193266315,519.7755728454697 341.6345851497304,522.5908045843805 336.0064436568869,525.8420985046604 329.07004061957855,528.2385959110327 326.46905444431366,532.9925386226319 323.65414756613023,540.1249632657691 320.84235827915205,545.5311064057446 319.32947854230935,551.5747460589907 317.16330577200694,555.6363541352264 319.55398347549414,562.7555144599473 319.334807301692,567.2840107031636 320.20300895627565,570.7325946377156 327.56479942841315,569.4197589470325 332.12395238852247,567.8935718930586 334.72285401256636,567.6683358911321 336.02519572743165,575.0066772688241 338.84153659012577,581.4578803160371 341.8838017310186,585.3317044308507 344.04731161068946,590.0699768687592 347.2975054409184,593.5097416397963 348.811650213474,597.1721111565157 349.2551334568204,602.5711294515056 350.7730364536086,602.7823238409974 353.364996536334,599.314826108747 355.7536303957699,597.1534988647818 360.51743761063113,598.6423939123317 366.1504629905404,605.1067848005174 372.43718991902733,615.0085678817615 375.6887793793661,621.2541392931826 379.37650044085177,627.0685610986302 380.24365046892,632.2429516883826 379.15898355746964,634.6244373717612 383.2792111109935,640.2143266083826 386.31090066733987,641.5004162027498 389.77554483301,639.5541286100809 393.45404572980306,639.3263781186914 396.05414094366597,640.609271782542 396.5828834963875,644.4306356925962 396.13981649826246,648.9692520788462 397.6563576782177,655.430989586113 399.180409702604,660.8294752595529 397.2249263200052,664.2852025863979 395.9204227487405,665.7930587835174 400.4806836643377,667.2987675129948 398.52762745211135,669.0283216034684 394.83797281864946,670.7639652735329 393.5430406676214,673.78880145733 394.4107952776816,677.448738721832 394.62244691727074,682.4117528367569 392.0280621547459,683.2827660422876 388.55301765260225,682.0028166289623 384.4418015513867,682.2261562513321 380.32448677176353,684.8306892311693 377.5108083590887,687.4274428505701 374.25997247421424,689.5921010617503 369.2771455804223,690.9085734027136 365.58835288680353,696.7420564807624 360.39315715407724,696.1121612777072 358.8728902795995,698.9258577518033 358.2180739797831,702.8103449229367 359.0852344955491,706.4704794092321 357.79388364273586,710.3594950571052 360.60225942003404,715.7428584512136 369.2746047275042,721.5436071431888 373.8291386139701,728.5886291047523 374.03882066014,733.7622283558144 371.2330941352642,733.768348543039 366.89518111516986,731.0507222655048 365.0035648796991,731.1854267784086 363.67048186996254,733.5832484231113 363.1248480791143,736.5105277578266 361.64069292978655,740.0576282774623" /><circle cx="345.5393360440423" cy="250.31442104579435" fill="rgb(100%,100%,100%)" r="16" stroke="grey" stroke-width="8" /></svg>