<?xml version="1.0" encoding="utf-8" ?>
<svg baseProfile="full" height="1024" version="1.1" width="1024" xmlns="http://www.w3.org/2000/svg" xmlns:ev="http://www.w3.org/2001/xml-events" xmlns:xlink="http://www.w3.org/1999/xlink"><defs /><polygon fill="black" points="164.8277778021931,642.6600616874823 182.67809705631385,659.7432018203089 195.34327976287423,668.8285868319883 198.7781630418859,670.3202733063464 199.63625221687204,671.6588441104908 220.70104889578383,682.3495411047022 239.06745610880054,685.7678570742571 259.0696364007157,690.734657098397 299.5867363757595,704.0542332648447 325.86344048794706,709.9009139201196 343.78245871170674,708.6164732049143 383.95056659803606,705.5056225704026 397.8812714850157,699.4431866015713 441.17532851071877,680.26100091332 470.22428395764746,677.2878153566397 493.6024383730338,679.2674691723001 519.0296017859281,687.9660263308101 533.8115230925794,697.8428086971933 543.7098077620858,705.8781374882496 554.5489598213119,713.3934478105923 571.5827020632615,713.0328165272522 583.6300668377337,706.4646735337728 601.7844538534041,712.3648362265978 608.3235218356767,723.8500112334277 624.2409202195973,746.872086577247 624.6359594566366,748.4601305327976 631.409373163761,757.2455460586459 645.2945628403763,769.5329500659728 664.4288886608584,775.8802840838182 684.4791209031549,777.8451534142569 703.4217937028708,774.9815987355312 729.4554296309333,760.8407716581672 745.4224477053159,753.7054788479544 765.0800756259482,739.2259429884759 777.4630069404174,725.3958857677119 788.0036094098256,716.4582818707029 804.3715537656203,707.3990406937346 811.4848545143852,697.5528791779824 814.6002645242576,682.953446225591 812.8634038473473,667.4896564694835 805.8334478605647,656.9657102445495 806.9331803945603,639.0155398514082 815.5424478902788,630.6056109476253 837.8039663658074,626.7740201664294 858.7148574722063,628.3094740127888 876.2726666825042,631.8687944067754 892.9668666953526,641.7457349081878 902.3897709052309,654.1787743641321 917.2989411040438,671.8352615453693 929.1238940207817,682.2915758714637 949.4585008568249,680.9696020729764 959.9436488966865,671.1001434720808 964.6329124933003,662.7841721728216 970.2130563943173,650.5726591623647 985.3583767671734,631.410373318569 998.770786596581,623.9069150664125 1013.6767165186303,616.8727459021522 1021.2979085841715,609.9522739970241 1024.0,598.7604437725673 1019.02459823183,592.553524604354 1000.332429324904,577.841640572894 990.9829344462867,570.2533461753899 981.4229480855024,551.5206115263828 975.2623546372088,534.1821159434999 965.8666066251114,525.1284650149564 949.4836674067615,504.08807261284585 943.0591098329531,497.4064750948374 936.636120130961,491.71030378808115 931.9987243155463,477.2482571747644 934.5842033339145,460.72221539080783 941.9048541429378,438.3028868747618 946.4610865662637,422.7081341878838 947.2118175933105,409.6129440239564 950.7489836916022,391.61992741963945 950.3882284842209,348.9737966469115 945.0784624111586,323.8631231953058 942.4582765275521,314.2120734954059 937.5523621633274,310.9030383706178 929.781582597192,310.5554348362182 917.787764240472,317.5553744522107 906.6518948979157,318.71313506704354 898.7902838308737,313.0396649155645 889.4267170104699,304.4853457699752 885.2881797072638,291.46625423011085 887.0166398430405,280.7671578790492 891.6507747127483,269.5419879858005 896.838807598473,262.1708591978919 906.7782569060843,248.9073778687092 911.9261183343524,238.6398603394813 908.3802684883146,230.94356510056502 909.7225909397838,226.0049708579421 905.5801445101274,226.02626214936572 898.0876498169675,227.24263868209414 888.8617277774193,228.5375213785842 883.8840221263993,228.0311236642293 878.1343191837962,225.413586929286 873.7325332993737,220.9626429310971 871.6030659594147,216.9260672515303 868.3874233576746,203.08284538429427 865.8392816398025,196.612339428749 861.6688319845082,190.46028035579798 854.4701153200226,182.36837880264613 846.04401146317,175.25993263137002 839.6983863435356,170.73030640722232 823.2194401104247,162.43742249418074 808.914899353187,152.91605377160283 795.4649255850185,146.69865743822174 781.2775179168987,141.59484218023886 766.1364137886583,137.80770155959658 758.4718226722111,136.77055607905095 750.4887352096612,133.43308507311758 739.7071752797,125.86699516857175 733.0715768595968,120.89104570410859 729.191842240539,118.37036839719394 724.3996354290624,113.53565894631367 720.4034948747153,105.8144327497015 717.1384279435399,97.63445280372366 716.5785623655552,92.89114188013014 713.7033469951375,90.31163631129277 708.1392717178977,89.36145922051901 701.7907812970096,90.23991207626841 694.7022884231988,92.37198136169047 685.9005683252814,92.7173278007798 677.943713078278,91.28701195554765 667.1319989247351,87.47091516775504 660.2053647269813,83.21930933313638 654.6872507702926,77.66300326507644 650.4389033937703,68.69185772954711 647.3620768189384,63.803710391906066 643.6640161965039,60.627181674884355 639.4930949861265,59.87439862663314 632.3658553805044,60.688029686541995 625.5617331323139,62.22583010858125 616.191550510779,64.06848201917262 611.9611292912208,64.11197934566269 603.8442117725616,62.60922678480358 589.1413479512852,58.951425698949606 580.9767621694492,57.97391719521829 572.249121474786,58.166570923086624 567.8965593762019,59.191483309412774 561.712879991407,60.91720777986791 554.4248675193151,61.5168780670017 547.2117800144533,59.81131761078825 544.225374231716,59.32429630919046 540.9854986549509,60.607310483521246 536.9811715595797,60.70640574089816 532.555615911682,58.696385039884035 529.7561735213184,55.97512331065957 525.3963984600625,47.70420173548973 519.6683498352269,37.8495931628612 514.0247870378522,30.952899328327362 510.00724441981873,27.359986638902342 505.2106292188078,24.74893857944471 499.570387390276,22.454810458295697 495.08741676999836,21.287290559687904 481.40194704001055,20.81926497420477 473.2515062588082,20.727721540985158 467.6792254829317,22.710596421812852 461.00479715862275,25.4643831033095 456.842529170012,25.877390486325567 452.59115900181473,25.096295480119693 446.7660275610383,20.09939161748332 436.7329706576305,10.306305739259983 431.5713010013667,5.58674215816643 427.3908430210276,2.901970815071195 421.9235629626767,0.9246172984123859 416.404003393349,0.0 411.5225616193356,0.7913509431671173 407.8973624873994,2.7236840830547635 405.1524366740362,6.569346179085869 402.5952211348335,12.839131693339482 394.73080428953637,33.528898198705974 391.46795450828034,38.81778110630921 388.1014104084067,42.309511392744525 384.24707319959134,43.55776146581411 369.62068319298817,43.61501989105295 363.5085348809301,44.37468183401097 358.3240502628543,46.45386387588508 351.902672443107,47.241458742231885 343.1781496166316,50.81241142823342 332.53078908245755,56.78991038481365 327.5099181778427,60.604743464654575 320.82119322707126,68.73937041936028 317.46776833098687,71.8513879114521 311.45425733892995,74.67093474904664 307.9063780271556,74.91630891770228 310.30902094396345,78.07013541280651 312.83301293323734,79.4991193399436 314.364892711912,80.89569873456765 315.1671039594196,82.41305963718116 315.55607309072343,88.74889565602348 316.97134043590455,91.3118404744531 319.77256966211104,93.66405585243365 321.63562296002624,95.62911693465924 322.8742414048927,97.56174393041329 325.6887957998937,99.53747103599062 330.77674357062847,100.81731061983726 331.77963001301873,101.81221992917142 331.6822872183037,104.1253831435331 330.06957514602396,106.40462911009672 327.4214892182367,109.46339835497133 327.95913610404926,110.87195086269526 327.06026667064526,111.58109411041062 327.29671212146616,112.46587455437952 329.2646639315507,114.17606135134838 329.91257673263704,115.78469201795053 329.71384777009916,117.10670620374549 328.7022748163398,118.6290244326932 327.4444230948268,118.390670410148 324.92874866937626,119.81780302982224 325.74747828796575,122.58972599652805 325.8220341914573,124.21731058557555 325.451111233612,127.98914025262832 324.52349864049893,131.2470137917088 322.729658673942,133.09262533602862 318.6946007826922,133.85103542038587 316.98719879492967,134.35851667146437 315.56243419028715,135.29437079265847 313.75699452014686,135.46859764330077 311.4538961043295,134.49062695756163 310.5224409598788,133.48796136385636 308.3178772174825,132.64222122761657 306.51106254915237,132.93905638387082 303.24648218675947,131.72584513602897 300.23958839367737,131.25167060718854 298.07747990613353,130.28994276026128 297.1137170118916,129.4666497536465 294.8764450829422,128.83614827198278 290.9375265012592,130.08372359180203 287.02691703039545,135.09487561005824 285.5893116416644,138.07385861496834 285.02874946065305,142.27289615794325 283.9639712999346,143.09629275136558 281.3224957365372,143.75564295881236 279.12887084555973,145.68935220752655 277.24295062023157,145.7057694505453 275.10829618345207,145.14602734757455 273.7270950683411,143.9772297427478 272.63829165467547,142.3844726230427 270.43448723171633,141.63137538797912 268.7655215901986,140.64537918857752 266.1215054872202,137.96634177424858 263.63998597284785,136.37435885156276 261.42628288263415,133.7086873186621 260.3922355732277,134.49423155903128 259.61953834744304,133.99026943282695 259.7088648271049,131.5204790932654 259.38496051173763,130.34900694874693 258.29988613457436,129.3760228805137 254.42132692816716,128.01521344221737 250.25546743718473,128.48506313533983 246.30870700267633,127.77273000587047 243.42468242517393,126.42328162284934 242.24797793980784,124.5902617926464 239.78908924883135,122.77397596634034 238.52850241839963,122.77403892359325 234.4291349510651,125.4972634015486 231.34709994914434,126.11901576644402 227.49927547025027,124.89762245800182 222.6938725922336,122.20943663662172 220.17417661180903,121.32719928791175 218.136618695125,119.38443304967484 216.89777829107234,117.69647504794057 214.3911974695968,116.46737691216754 213.08162817701924,116.23398849705904 202.78975353138304,115.8114896313075 201.43392831685748,116.16556779740426 199.32782377363313,117.44996757016293 197.9923481606922,117.74291562306416 195.8179606620709,117.11408490084978 192.38288341302152,114.7037581127272 189.93317551813897,114.70620784022185 187.1310642740789,115.95676322613451 182.75319331460284,115.34792112261493 179.06276543904485,115.48130754261763 177.9798648691627,116.14947285432334 176.5331795660039,117.96618860536978 173.85514050268088,118.24281128515054 172.8202311431297,119.22250091706246 171.5994154768227,121.84789845937314 169.81913728701284,122.44626192771875 167.81023032239818,124.23286109801177 166.34798599744138,124.81176287014137 165.21891440958504,126.6322351857716 162.8893095008239,128.64761059364184 153.15982525931804,134.93319088474755 131.2287616156072,145.05461243242098 111.73459663452373,155.19103195970547 96.16939646307092,160.00742845765103 89.36340051776381,159.98394097910932 78.18336597970482,154.1385123053177 57.7882826098229,147.78041233166448 49.92972550855445,161.3471103670256 65.92224503584389,178.8564394602638 69.1913322557045,207.49931071572655 57.96781831344916,216.21756114822483 46.74962581899829,224.4338738938318 41.34101825962138,241.89642902013725 37.87392992125074,254.02286557282923 35.40073982087009,264.6895175701899 35.7519342001073,289.4433740419069 48.829803051053666,303.06198246545705 53.1994574564922,305.4950954816954 56.07367757867996,316.66738425796797 50.17839264454688,330.2484106994479 37.500986127460045,338.9473177806297 23.395424625165084,343.75789884528996 6.368812675435853,344.1909395743572 0.0,354.36483383246076 13.971048019809409,378.6763038476827 22.624274375594453,404.91356534350945 22.559908531474516,419.46735868148994 22.009983575273854,434.51207357128794 23.383104652156266,451.504311818145 24.798205004871644,466.07269487343035 28.588334804000418,484.51935428404545 35.76620307737299,515.1030583761546 37.15787602589748,525.3003559142114 40.05833297539133,532.1023677251801 53.58705279952096,550.5761034383723 66.67300833109414,562.7370419494613 82.1957668963856,571.5129730737419 97.27390049667578,574.9511891543766 111.3122049386788,581.7749165053528 124.90299305444843,591.0269491924895 141.3473304204411,611.4607286266358 152.47368676124995,621.6855856997154 164.8277778021931,642.6600616874823" /><circle cx="862.0418125706462" cy="224.16686587354945" fill="rgb(100%,100%,100%)" r="16" stroke="grey" stroke-width="8" /></svg>