<?xml version="1.0" encoding="utf-8" ?>
<svg baseProfile="full" height="1024" version="1.1" width="1024" xmlns="http://www.w3.org/2000/svg" xmlns:ev="http://www.w3.org/2001/xml-events" xmlns:xlink="http://www.w3.org/1999/xlink"><defs /><polygon fill="black" points="41.91629809554948,170.75364603306969 39.29832989846722,176.79383489822794 38.538458270766654,180.30490245012857 38.263460815565914,186.84991746297294 38.41155583718317,189.52688422149333 36.238118278874474,191.62504867332314 32.62669111004587,193.72996652023164 28.4932333583903,194.56926976178568 21.070539344576012,194.5768027584212 14.048353679453278,196.65152094097266 8.273493286544698,199.13495446799493 0.0,206.57546108582505 0.4193784443182663,209.8714370837455 2.0808225246724548,213.16576935282558 6.18948081148066,216.43802998772367 7.316166839968128,216.68258702627998 15.04909162153257,211.0504164730686 16.893001001820977,210.93199643337732 20.707320889462316,212.54167244149005 25.79753398554519,216.44309707067157 29.49295370653371,224.16955878136434 30.75908736305512,235.11298381577365 34.261379940193,238.9058935378505 37.23079579835363,242.80050136848996 39.21290764542785,247.488578878643 45.42600140437491,260.859829603425 50.80302787366083,266.6113572211616 56.02163421729258,270.08394455121544 55.725573789310275,273.548411070887 58.86647818202899,272.7552883739156 63.7730183658377,273.4911754365061 73.60855681980158,274.3084790476555 75.79561336143917,275.3584204637326 78.32409112402007,279.620380897876 79.2483329886679,282.82039914388696 80.43920305321147,289.34620944268437 82.53238402408105,297.8650390737994 84.56373424880688,301.1178062012826 87.52744200238568,303.03642660824585 92.11927077132161,308.3350146819116 95.53113610619394,313.84891330269176 97.11470851699863,318.5280636428053 97.77372146302251,326.8686792320959 98.70787953515688,333.9114417612658 103.13416524476835,341.3879828230023 107.35254846435318,345.9001608073816 111.19464552631595,353.6725968874948 115.80222075981557,358.751718036393 118.56433263668691,359.4589186186286 122.56571006370977,357.5125632532018 123.85715888224024,357.7822870832308 127.55222104867335,360.76641930536164 130.65504065417974,361.20691324187584 134.26465145960708,362.9249891351466 137.72449247150746,365.83357832233384 144.34949296986207,364.25978832081813 147.7450043725188,365.90549859850194 148.46380789950862,369.0732416715586 151.4217881180647,372.2103342151746 154.41356319958936,372.63451685206644 156.42427936603104,372.232167218791 158.6267012170426,372.6117681362429 164.102073007005,374.7935977604938 167.11309928840157,375.57579454142393 170.7023635803616,375.29630989333 174.40934417285186,372.893896602659 180.22038729759507,371.40121620949236 187.9488597612976,371.9992613974082 203.24189084814813,371.67836104477 208.16362449866347,371.439601191749 210.74625693938742,372.07704729023527 215.65196070554168,374.81348507344416 219.11016503004743,378.1994913452485 223.62446535909828,381.8164322762537 226.18145581965368,384.7931849715427 230.51873570039965,390.8319852557705 232.53760237133451,392.87985118014825 235.40820355410986,397.21316958583463 235.91819282997,401.4721881200212 234.59190803026812,403.7121192464362 234.0953356580185,410.3794385666375 235.0152271016809,414.8011353312356 233.85037075763518,422.05133399939336 234.37427939682735,423.69923322340594 237.8794946726317,425.86915735196754 241.3813777051969,425.1747377406794 243.4090324005473,424.1175349206026 247.27225218280114,420.7304318459424 250.94954292344337,421.4350136584232 253.64236600729038,424.40296303815575 257.9484523706895,428.52443616313514 264.847527389658,437.03604030242985 271.010622688623,441.38612999230384 274.8789413230782,445.1809843820656 275.70059352231823,446.7068841926056 274.2917608123215,451.60095208881353 274.1781462659799,459.7178593537154 274.9995818614409,461.29314215969686 278.024657138388,463.6853940683589 282.34032936766414,464.0687834502662 285.16144360426205,462.33017583680254 287.68108045180827,463.03449902789544 290.417255565144,467.5177806135554 292.5707061281173,469.3498405639649 293.4190649638337,473.9777486302637 295.3075228609785,477.8856409095592 298.83143918962935,480.76170908972097 306.40899616944654,485.590451748472 307.4265321698305,489.3179131986745 307.29901490783743,491.9901660680206 306.20710273197056,495.08963986277905 306.07312291341196,497.4655561245863 306.80534905396183,502.57740285345807 308.52072161756354,510.37946465942076 309.01869174717035,515.17529433014 310.5878728003061,517.3098144160342 310.3915000126999,521.5465634479175 308.2299088102238,525.415341879003 308.74121053319743,529.6772740759193 311.5535649185392,537.642259978213 312.5695550705915,539.6258204155964 314.6246945260237,546.8986641641969 317.6009898083933,548.6883648390201 317.95526518246487,552.0513186318319 319.5567289033448,553.6180323733821 322.33090045387604,550.7893005678976 324.24135741180316,550.4809594269984 325.9941151880022,548.8353739561319 328.4584981742116,548.5606383080512 328.9567906702063,547.5260685565578 333.49658814422753,546.2832230704233 334.3819464965076,547.9141959977355 334.0234200873837,551.770506251515 331.0415663132109,555.3298067590165 329.6850366087189,559.9280658773985 329.69138578338783,562.909630179855 330.8024679967123,566.0726270778971 332.64724105349785,568.8596331346198 336.5387881057068,572.2185241883475 339.1401429215729,575.3765284072465 342.4684418396355,581.1430782961563 344.33622937525865,589.5197082429345 345.43795897262095,592.4819742209921 346.5601894830247,593.9782656511321 349.5218593591334,595.1039634332557 356.2491482626351,594.0165628038507 360.5029359786854,594.9941435950699 365.2901741519097,598.0637891328435 367.2491564994073,600.3758033627334 371.557905714133,602.6251085442307 374.85043856264286,605.5608111899066 375.0082437654694,606.9288734119317 379.94936088096347,610.0545701528961 381.0043945465456,610.1337177531422 382.259291874526,607.8002133833845 384.5435642136981,606.4654794193773 389.1325238379431,606.1695399979009 393.7047284878482,604.9351671382536 395.7061046327851,605.080497239276 398.2670009253906,608.018623691153 398.8104614732864,612.5212501280789 401.0407983133081,622.5627889797407 406.59353270517954,637.8144850289208 409.00288619292496,647.1129535714255 411.5861745828066,649.9090775818453 415.47522076533556,652.5261127729384 418.0737443604313,656.6247265017229 422.19150772812503,660.2766960496504 426.4279360857755,663.5279198753037 428.65151137223813,664.46109164246 432.5325266334931,663.7290710874881 437.1566605357659,660.5868336618096 441.31485485866716,656.0843504411091 445.8437163442915,655.7440246373149 449.2291854636582,653.7255569533836 451.4761790203771,653.5938428773757 455.0149252400077,652.2642836696768 458.4850849668982,652.0146229717453 459.68777421878923,654.0756450454994 464.5574025811819,659.8940093998519 466.6896601394428,660.5116625660619 469.8317712551959,660.0968053420206 473.30828325739793,658.4488433381265 474.75648724360366,658.4275619683242 476.95715788521693,659.7614988109901 481.2629445183518,665.4319904823368 484.69740444722305,668.4658171036407 485.7971825280614,668.6744120887593 491.06553413181985,672.6700136640723 498.8291812411192,676.2289765802602 500.5682899607634,677.6286009239985 500.6997180041661,680.3143663750012 495.3189755763951,685.5005580829715 496.07036281989764,687.7384419693458 499.2083956748665,690.7183121156224 501.4262362410851,690.6385520235182 506.89719081906617,686.0483234773943 510.3409403244231,684.634347550829 514.1092795399203,684.8143356832305 515.4590918816585,685.4899541814073 516.0678567789035,687.6222266427158 521.171702427855,698.551735822144 522.1231674688705,701.8089297466676 521.7244683956574,703.8380687906714 520.3287890153808,706.3845007862001 518.8331405237147,712.4088828873344 518.0735355529324,717.5228677180563 516.985044972438,719.5582695684643 516.8028816188577,726.0852438209329 518.8522643250515,729.4367076823002 521.9985552906538,735.576836992171 524.2237320029782,736.3333480970616 526.0711426021288,738.5696929487478 527.558889704893,739.313744123671 529.2140358547172,738.7622147028496 530.689046367527,736.9105255714836 532.1810482533682,733.5650800094928 535.1327837807585,730.0561161796081 539.0935436343652,728.1748746149334 545.334469840445,725.9514040946883 547.36913908449,725.9600219650531 550.6069934609144,727.5076511404573 556.5963176548271,728.9495307505218 560.3418100300945,729.0238812151377 567.9020132621074,736.126393263565 570.9107574724374,735.4012486060584 572.768841688512,735.7854972210504 573.9415854236305,735.1051746171175 580.1095950455314,728.6553812045097 580.9313389342666,725.5877958638123 575.1266592095251,716.6965983692526 574.671979793921,715.0311444088704 575.2989538698616,712.2405425632583 578.0558585202899,708.8414588412934 585.2919813839136,703.744724710728 589.696406867678,701.5282102678983 593.4909083868539,705.1115842409181 595.5121664143421,705.1198157207789 602.0168007428525,701.0814190169747 603.5986205872671,700.8625090498597 606.8340815123303,703.0051850696315 608.3943420091906,708.1441544462388 607.8381568908752,711.2221429726094 609.9997797377714,717.2369723797543 612.1675375949494,719.76109125068 618.3203827468958,721.4708814590543 619.1087257455517,722.0172320427426 618.8604224468229,725.0779471708288 619.0968601887612,729.6498424481721 625.4016212513469,729.906393507948 627.5677278428168,729.5538678045205 631.2184824096003,730.7812491700355 634.0597363472342,734.1350103018539 644.1692761950269,748.5541187378174 647.7677584810583,752.3859959292581 649.5690941610666,751.0380707737634 649.3239801711891,747.8890034674484 647.7646897823316,742.2595436979909 649.6324975102013,740.1742298584127 650.2181912858218,742.380185078986 653.3154128101527,746.1730131992508 660.1093216208,749.7146202727133 662.5717004069395,750.3043221212349 665.4892994130158,747.025418799743 667.0029496613097,743.1763137753179 666.865853257948,741.5646959367602 660.811026140234,735.572406306329 659.5130153897135,730.9440023476944 662.0830546734152,727.6360162521574 665.6008651565159,728.2791300309206 668.5118099128342,732.2346650102354 672.0098383705919,733.2140414398374 674.5790277980517,730.0973007410809 675.4002481142776,724.8103508563354 675.0883065125938,717.5376357003397 675.6752516796831,714.5584119361541 677.373719877572,710.1605753827391 677.7935142884731,707.8813238432004 676.9720186616146,705.5665042578971 670.9134204482201,695.1423303944753 668.3351432590813,690.2930241886372 668.1768856180837,688.6720623505811 669.2928891420977,686.7658474607584 671.0592035258427,686.1244436641953 673.8691761747608,687.2431581367106 679.9491156429438,692.006914154041 682.7816333132522,692.094772046194 685.6646731442293,690.0346641568665 691.0492517190427,680.0950873941096 694.3312357313065,675.5641887271013 703.2427336299069,658.4647581317029 711.7694432164544,650.5333208258108 716.6999824246174,643.9310849792383 716.4120278649846,641.4516564720687 715.0541965661275,639.2800346591264 713.1507998551755,637.634177447535 709.8761740664422,632.4369914281381 708.5869021153666,626.0804342325798 708.4659190790201,622.2127306515952 706.629910526484,613.8510698022872 707.1925675297952,611.5661251012561 708.6025277370306,610.3367678400538 714.113837748725,610.0638327592039 718.6893058075774,611.1793426715647 727.8477808125483,615.7496629783877 733.9492419015036,619.5124101183717 736.2380288958459,619.4373101336658 740.3718215294913,617.3225214080126 744.3845524841809,617.164017585596 746.4894391738702,619.5789021189374 750.3194645138927,619.351765863272 753.7867403240231,616.7159114905496 757.3356682853005,617.2315113853844 760.5098486308945,619.5019100132967 762.2227221736416,622.5850499071981 763.8171393248415,627.7016957230514 765.3094200906395,629.4291183282614 767.2044883235416,630.4881911989805 771.4810616110284,631.5277528700319 772.2476245578987,632.2464556700679 783.4771537274207,638.0567447913202 788.2655195398667,639.1564557368151 790.8069075886325,640.4830088277197 793.7308842753969,640.8293688060832 795.4821985176428,642.100728203551 802.122307211499,648.5582691669931 808.0508212513562,655.349688916259 811.1510217459762,661.7519381694478 813.9867453713886,675.9463725048778 815.1723329691971,680.7372809219321 816.8810712031933,685.3509079047421 819.8519721571566,687.6940398278683 826.5651184688743,690.9660983637086 829.9080744377818,691.5109922580264 832.5903351703114,690.5043356355689 835.1731133710507,682.5653401740944 837.9221152641817,677.3058314187961 842.3866490722016,673.8110729034274 849.4786288986527,671.4049085795468 852.5058716268131,671.0905243271794 855.5873342835802,667.0726352963521 857.5942968735459,662.3074865206845 858.0866262672856,652.5931470615276 859.9452109594673,646.0682754755712 869.7519439105755,628.4729079504531 878.2174905649919,618.8451569866739 882.9323790929016,611.1253143761207 884.5485313665594,609.000707616155 886.5447682688269,607.4389837995 892.4080154440101,606.4508275682297 897.7132822689148,606.6923215383849 906.5813176398244,606.4167020204485 921.1077811096844,608.0032832458057 933.850933396159,609.2012323013785 941.9054371284242,609.6659825360638 949.2936072564777,609.4773779169312 958.5532850678642,608.5562556348126 970.0652929315199,606.2862301327274 983.1435787051638,600.3997573839163 1004.3809084029076,587.3064010273137 1009.1201854258179,583.917881546033 1012.272919418392,579.8615134447703 1014.7095036104317,573.8711522605465 1019.030456762813,562.0648380338164 1020.833684356579,550.8074079398993 1022.0267344818308,538.6533153434295 1024.0,533.2418935156023 1020.8198143077842,532.8570268343813 1014.269189562935,530.8613950533492 1006.4798450535328,528.1771307245383 1000.3003094174348,525.2871262184121 991.6520976707153,521.7205297531565 986.1636828146314,521.1407173293095 984.1670220395611,523.2648350851789 983.1046587175381,525.9161979839546 980.7197748757591,534.2088942052608 977.506373990822,539.1258625451857 957.6162129903984,541.6749500035523 933.6706879182854,543.8158108376081 929.5922196586912,542.3748703705949 928.1975280040956,538.8430364231309 930.4229409983989,524.8867699914797 926.7516587453176,517.601363846267 924.1662671811727,510.6956578433244 922.1285721080354,498.8039422535916 921.0899432777475,495.97372899737354 917.5788018518963,490.2997624561384 912.6588325231462,485.13078818883173 910.2251818313338,479.9784676621552 912.5867222388248,472.04425877593116 917.948919339195,465.7053899781409 922.0630194929631,458.3226100666914 921.6043724368286,451.222536054288 920.5648790442101,448.7441590590669 916.5232031108588,441.6580987466674 911.2298886463548,438.42931029990905 907.7005390693812,435.5761157364284 903.8346935915274,431.8484065830173 899.301537445142,421.89333598847463 894.9098671146561,416.0311949595374 888.369719413941,411.75495720398834 883.1134370322391,407.11218366781975 881.520589158137,404.64120005014513 880.5092671642616,396.6751180194618 881.0735287552791,393.30959704441216 885.6112177043492,378.31443965287843 886.0277344651287,373.0009227410474 884.8669744326652,360.24426336958896 882.2872713275788,352.2887407176022 879.654184284867,345.3577154716542 876.1609183982607,340.744962858181 873.8589901755659,338.9630647793668 869.0835712851575,338.58694611493473 851.3028914159552,332.4717297142043 848.2072250980236,332.0852261908262 834.7826191182255,327.56942193866223 828.2504596920954,324.1498384029153 817.4760958621881,321.07712984871443 816.5031201581048,320.5090729047381 807.3161067180819,318.1326309725681 801.6341468738328,315.6937014575774 795.0468487462011,313.8750379540577 786.2506937104521,311.18444157169915 777.2253252985251,308.94340305269 775.0249379252826,307.91415521849973 767.0477534416947,302.1733292493678 764.59287702502,301.223357400289 762.566440997061,299.7193124693528 755.3688862190047,291.62285714025467 746.8060025121471,283.9781356899416 744.209300150459,282.01204085537654 737.1691107425053,281.22130447765176 729.0567554209617,279.553038996478 720.2312079629587,276.6504405186747 711.9401258975065,273.2310219489407 702.7672818568668,269.7988228706807 695.7307278732113,265.31569208589275 692.7896591527792,262.7922773842914 690.511929887236,257.8546342163049 687.3499253453339,247.94443105437063 687.3602924631235,240.29313302636513 688.4375445493757,236.95456280999406 690.5099699970375,233.76788970604775 703.1054339545238,211.71908948320504 704.4568479123881,207.21479694728555 703.1020956968532,199.11086790699983 700.8668804057688,194.22591358613772 700.0089187601077,190.68870358008348 698.7776796218114,187.84454914068556 694.6246312285663,180.39058977652098 690.6136048178889,171.140774243578 689.3858048781796,167.43237545889576 687.9996585572212,160.09367857948075 687.5538816653009,158.9499977944413 686.8772417346454,150.94729471016444 686.3949476531619,142.67062569080485 686.9215666855913,139.23428324711688 688.7241263163805,136.52808556776654 690.7433225328704,131.12511207111606 690.9599137232491,127.74623485847872 690.2869519119932,124.37943390692669 686.6793586102605,116.49835878616489 681.9488801554643,110.18707125908657 679.0481898582062,107.93523861188817 675.8802589665496,106.35520798168386 671.3756083343454,105.44903972510201 666.2084048778286,106.12052726200352 660.9028600022622,105.59691692225476 646.9175826558205,106.34795493166746 639.005199918668,104.33219003385409 636.901153709723,102.8824786130624 633.9148037733539,96.30567484807591 632.8769133475056,86.36921839040451 631.0359586479551,80.70744037437441 628.7953784968238,75.05022785777419 623.3505527710475,68.48509100402373 615.9462434707116,62.85333470409341 610.8126635638962,60.60104959727403 607.4218257969346,60.68297886102732 605.282612189983,60.18661507713091 596.0635150956068,55.77229392157756 587.7052974001637,53.17609779453994 582.4640310392207,49.54010517153904 573.9544261151783,39.53834239274488 565.0796138121613,23.386443124269704 560.7508319841519,17.562453994473685 556.0489729777394,13.014632556061429 550.6990517003277,9.056583848932632 544.6694424606409,6.27457614277273 531.0467281831366,1.9133345853039145 528.2685309649266,0.0 526.0910079522224,8.453797619425814 523.2815084011539,16.15480179802421 520.2322610585655,18.1168864959634 515.8184954212545,15.60368134980115 513.278000284564,15.5987185183983 509.67629719507795,17.400856286568228 508.87098817172983,18.786248096098234 507.99835173072023,25.841286544406557 510.683541973302,27.868603020081537 510.2245682795985,29.931469024534522 512.8413748265197,35.492531219889315 512.8280615098287,38.52652337917709 511.7121645054151,38.91052638443591 504.3169684930746,31.86537344233102 501.6912862843994,30.1469143459193 501.2831015867854,27.299331321474483 501.6762706222019,22.180526681736524 500.5543008713118,18.570494701298685 498.65313432224366,17.61450005991128 497.52506689391043,18.36877726254238 498.65914243660774,21.03131173709528 498.46292379494724,23.502748423500975 496.7661159412334,25.38725318726972 496.4897464528017,27.429305040957615 497.8944029912426,29.358450373386972 498.6526593512659,32.03474648142628 500.34247632354004,34.12255678184829 502.231477930473,35.461212820150536 505.265334807595,39.453148330121394 507.16497989638395,40.791818006979724 506.39885166360176,42.87801566324697 504.90909762833127,44.010368787531206 501.4870688343688,43.99524068225753 499.4161073511704,41.89957638815406 494.86415486840315,38.280470697358965 492.01772670733305,35.61646576805708 488.24526723564304,34.09030595078377 484.8379169021606,31.41754594388192 481.2464605151197,30.268661599248958 479.7354982449545,31.400791661660264 480.4847856000093,33.68202161984573 482.55971446412025,34.26235786883012 483.33278119771103,35.96959252827844 481.81158785496126,39.37337106939253 486.34566071484835,37.498587744722386 489.57815255537696,38.45443871332418 491.26000385921685,40.54226597494244 490.3375862988815,42.63389885174524 486.7342027103025,44.70427789655696 485.0247664027716,46.40964041427367 485.5922886143579,47.927667710411015 490.89923259074993,45.47292178740463 495.8888604298293,45.31612939436229 495.35861639652194,46.71196645835721 488.8423428421651,49.71696456981579 486.4067406618807,51.63514503599538 483.2559785589092,53.07785792378502 479.16491721302395,55.846596623003734 477.20612653874076,58.82552570786709 474.86232195102576,64.99725511372458 473.4039548869052,72.5989439178527 474.0585941768068,81.78121925687572 473.63245691291735,87.63133667952286 471.2878457933981,94.500583171617 468.08323924447814,98.3565522354944 457.0921898810834,107.06600897738724 454.8427160895854,108.07734570781702 452.34806869784,107.13377184929004 448.9106204108872,101.679514971652 445.86545984477283,97.86288203109257 443.3301023581351,96.58878243903212 440.9644546269831,96.39881663066228 435.91260599274295,98.92175756359484 433.390062586865,99.45016150205845 431.035791447809,99.08732282748088 427.0496910303292,96.71676404679692 423.7966269155285,97.79106739752069 422.89057680448366,103.58640099398406 421.8038144266312,105.57828130630571 420.3559947810865,106.66102130566969 416.6807883820302,107.96783785015782 412.77359376735006,106.82280846863318 409.3304546009378,106.63366343434916 406.37175327488666,108.67525325512338 405.19959257622304,113.56800483980476 404.9917840203146,118.8573263427345 405.9121604885883,123.50383738621827 408.04468142506624,127.1190228494479 411.2511763100396,131.49238690885772 415.068427034574,134.93646534170068 425.44704318477875,141.61201137775777 429.9194070523555,144.87067707893868 432.40833018209156,147.0984020528373 433.701964912008,149.02732578146095 434.7169185701229,153.384036548346 434.46440371162913,157.01260594471137 433.4309278549814,158.90909210240227 431.29349719082956,160.2047333718965 426.9733316615029,161.14755766142025 420.44912435133904,160.63548084346394 417.6673211901401,161.5606993155602 415.6387451344834,163.89689638136178 413.0344166814059,172.64414584115832 410.1514218595263,175.89913758761384 408.0334959467094,176.94160883693962 405.2394561782494,176.49932550512233 398.5647096848586,176.9490434420493 388.6521237696223,180.0436455233488 378.01285633482365,184.42456186862216 374.61074511222984,184.32473072479684 365.5150911707367,185.95024555371583 363.2028305806236,187.15503086900776 362.75511726396246,188.27942134803254 363.03957431574196,191.29634808357036 361.8418229746725,193.09301458758637 357.08425493887813,195.60062562491794 355.5379217212532,195.0374486742096 353.1241649196744,192.09645206711423 351.19680942824,192.55301399872644 350.0587698285149,194.5752444091927 348.52475921205024,195.80844918268156 345.23760526018776,195.46192341611288 336.0453589360897,189.26786948886797 332.66234987987553,187.45462004736305 329.8858256236573,187.21541268364274 327.10394754570416,188.0440919524118 322.51731156662146,191.26807621191006 317.784938514849,192.9171221719521 310.13364561708346,194.18708230216907 295.8244933383653,202.2903470663366 290.13328677779396,202.8846126215036 286.21813840079227,201.06808548395088 283.49901423463785,197.89960876340365 282.45485796531597,195.49597154716537 282.76312628106245,193.23513154007014 284.2637297211136,190.8322967671445 285.31696181215824,187.37154937899174 284.41509928098645,185.10754611093773 280.20890235001855,185.85743094963334 274.1232656710428,189.53896504792147 271.0972020509828,191.96467234924262 268.69331224885383,195.41832764570415 269.06308745487195,199.1549723551418 272.91483372188367,204.99007829605353 273.5489266871688,207.30828091069964 273.073967424169,210.03431167970666 267.7015876076436,222.0592556410768 266.03321531458005,223.56912099004126 261.0326349014826,217.61370985221345 255.66831439937306,212.3785447714356 248.3145593068887,207.80563262542637 238.67293081546194,205.2451426122758 233.63423360366554,204.61024573098996 221.08416872982735,199.77736292067948 211.40703677252017,194.57059192005272 204.15162393207183,192.57125914562937 193.17214343986694,193.1780332959221 185.06204509204707,192.05320954945523 177.46016121230784,188.1036787380914 173.24282404333192,185.0678368896988 165.64395963155394,182.53782659173135 161.04646447456048,185.49379797752 160.08042461638195,193.46099930756816 160.5596141960549,201.06280028011577 151.1094572762109,208.4175988298084 135.68272299186805,210.45096859359683 107.76626915673788,203.36191321920808 107.40983908920374,200.88133637659587 101.66053469334553,190.39386434178255 96.59191436519296,179.0398031710032 94.48736870719078,176.20952031767456 89.21692908746428,171.40078478998498 81.21390904010303,172.94665692527656 73.83279161456093,178.5857015228437 66.60938177674777,183.47854172989696 60.93252266887654,185.18885020568814 58.45178137335167,183.77590133657156 52.11800434659922,178.40458194819416 44.709767941174555,173.4155978319676 41.91629809554948,170.75364603306969" /><circle cx="482.6252811755003" cy="429.80021099161786" fill="rgb(100%,100%,100%)" r="16" stroke="grey" stroke-width="8" /></svg>