<?xml version="1.0" encoding="utf-8" ?>
<svg baseProfile="full" height="1024" version="1.1" width="1024" xmlns="http://www.w3.org/2000/svg" xmlns:ev="http://www.w3.org/2001/xml-events" xmlns:xlink="http://www.w3.org/1999/xlink"><defs /><polygon fill="black" points="659.43539327913,717.6955854490715 663.4223785730546,704.3701511070012 669.6035745904181,701.1262733999541 668.4422889165731,683.1319097337814 674.9296248433205,683.2430523159296 695.5720460932677,670.0573349074903 715.9830200248973,663.0597102010111 721.2286327249394,660.9786299980876 729.6098084054581,665.4544119067715 737.6716918470895,668.8390206931012 770.4779653059172,669.8231092559984 770.6923621102319,655.6371123784269 775.9698230341504,656.0433374959405 775.9464589099977,644.7852931477354 782.0992602963049,645.275595976641 784.2317533788805,637.4216708450224 790.0388993033949,644.6782239475942 794.1015964895919,631.2066742574382 804.2771040713725,630.5431005168716 804.6093727730026,617.3455308494488 813.625645252186,616.9907484185345 813.1050273196472,605.9169615609256 804.386447789123,606.2442324984928 804.8459136229126,587.9272348873266 810.9266871935337,560.4029545774808 812.1224759759622,534.4025355885311 818.1325882015744,510.92653997565844 832.2574106237088,491.61387711877467 843.2623747988245,461.69919580146484 846.9942184851582,426.8103755585356 844.0295750838727,407.26762868168976 843.4991919721615,399.6469414401131 804.9918537078536,387.73553010555815 801.0460967388017,384.55655137515816 802.1955270289944,379.3956723614 808.7927745633849,376.51706773583237 809.7295467082523,363.69752615028676 812.0740877841723,361.30155793923893 812.9593838318452,353.20865478136477 814.5350447389716,350.9501985422745 829.2197105165721,354.51673031059227 833.0259706675382,353.9063126504466 837.2094459676829,337.37307887944087 840.83710342865,335.77324305572097 845.9948796374769,338.89867853517796 847.3709628859503,328.7722577771459 857.3931841426,326.68868775785154 857.9114859393432,328.1515030559 858.3863822002344,333.2976353201824 861.7477538814436,333.79462948915955 862.9100508325993,330.3159847371942 863.3966487308813,322.96236775521913 872.7329871784397,318.9870422383061 871.7093744655616,300.40661479209507 878.309455013394,299.22994128832386 882.4421907708984,299.18085441867925 883.550865978613,311.2782841381729 909.1496408867392,296.75508253575777 948.7317016195353,279.7563513827681 950.4993178000682,279.5831985979635 950.3665308928369,281.7994370401948 955.4497023684207,282.35209554658934 979.0165118759476,281.6270066828614 982.0891382899517,283.10494115990264 984.1522277304215,287.09882223027773 985.6253801015198,294.0015337538365 984.7401012242652,303.84451250544373 1000.4750528591553,306.4830164711901 1003.594011175873,303.95803916720763 1002.9976478531789,290.6619719584679 1015.8347454101965,292.8394099586843 1019.8952338745271,292.14828202284457 1024.0,287.54670167828283 1021.5919729324853,281.01071355349745 1015.8960888056849,279.87215367625936 1014.3099932807339,280.857512208736 1008.9103141605195,278.1720869033319 1010.0077837331143,267.70034640007236 1004.9848666909811,268.6260096564929 998.0850074600023,268.9640075827375 998.9250846403731,247.95862156782846 989.5186255800018,247.98015649768558 989.7461585382919,239.3237506716457 987.953367566755,235.42249542403397 979.2941163444718,233.88567353150484 972.4813129396608,230.37348292805916 967.173998211994,226.23334035838718 967.1382647598806,222.31111535253967 960.6531094129883,218.0260734621146 954.6847648836196,215.92036736251157 952.6367334800303,212.89176324559094 949.2059859246003,204.1610442630814 949.687739344938,196.19681006558415 953.3285285759882,194.85476032267718 965.3821963241546,195.54715159356908 977.4795121980554,195.54044180894084 983.2773662923183,187.49288610578378 978.5944446481852,186.0698428770454 987.6239711591355,171.0415210788476 998.5971444120289,161.772451249607 1001.3603990872962,155.45916662051764 1003.1288526268905,140.88363792243103 992.9368403329131,139.02711781722894 994.414154743805,133.48336059474843 982.1235735839308,132.16417436674203 987.0501130409716,117.91446643467634 975.0486707731382,115.01262902450321 975.1186117031361,98.12713537696834 965.8108792632636,98.84819584248658 962.7810168265175,97.47351039917783 962.4387153673888,82.48077628394344 946.6688730885346,80.90007600779234 944.6333557935261,81.32834532620586 944.8520825207842,85.32070593629521 943.435183305783,85.87862198838229 921.3288896800519,84.83950783129512 922.4670652946154,109.48337824538032 924.9520787606259,118.68699705668769 922.0512335753622,123.21232431665544 917.7338786122615,125.56615321939489 909.050209850304,124.63335565192563 909.0890610035699,135.14282664859172 906.1902156236513,136.83228363172577 886.0531026423812,131.8299841522994 841.2426804241185,121.69969514333434 841.9232025369031,111.69061778688558 833.4227146929169,109.39156008412931 828.1561059569934,110.49816305121237 827.748538283338,118.67285304927339 816.6773669954836,117.02327544969842 810.4632223831078,120.14541351357366 807.8365579644516,123.21850401202835 805.5200917192353,123.88281192630473 796.8552698243955,119.68127624649628 794.2555019370561,124.47953631103246 794.0290424087326,129.29233552430082 785.7047845870051,130.11055004272202 784.120994752716,128.35457659847816 784.5433231730482,119.29638418966658 777.1693381464679,120.1499952880871 772.1079280409622,115.07591358781235 755.4292237709849,112.13526783141833 754.3171338541216,110.81574588164244 755.6230621607143,106.026517977965 757.9824650411086,95.76275026472536 756.6035889651347,91.96182942495739 741.9364243204161,89.01897902691553 741.3032513340974,83.63578977644818 723.8043389918932,74.56159441015245 721.7637094483338,74.75024350592889 722.2017069090506,81.34432782797046 720.7851089823954,82.75640572602254 715.1111510735487,81.6326211032781 715.4971486976656,77.80896528108804 711.304127879657,76.72921332830322 707.5764565832161,77.73642541900904 706.6511241403709,83.53220820994363 707.444035338604,86.30930093466338 712.3158058462296,86.34546350663368 714.6693287159427,88.53258685806338 715.8818289837845,127.58197318178452 715.7364819275492,129.03136043070606 712.7511906764598,132.97820962905155 683.11390945946,134.4787244630918 678.802562226929,132.32477445613563 677.031854592751,130.04702213731161 677.3168299604449,120.89443903016536 673.5486943999549,115.47289571160331 668.9397007070368,112.7107570980221 657.1937417194333,111.36320464228868 659.7756830859116,102.8569851394501 658.7111985019627,101.7436300817202 655.8041857707775,101.71946537060603 651.14297946434,106.42379444452627 646.2565724538555,105.33213582884787 643.6427502509666,108.71261755007708 641.4320443200827,134.67619216596188 635.8823384331877,135.37341916719936 636.1955695237039,149.78120206626727 635.715404019002,158.2741090444623 633.8421186440884,160.75398732401334 610.2049847394387,161.85428655021258 609.3089249815487,154.68480285012367 606.4292153671709,153.6028575264479 603.8083082855568,154.8958883453488 606.430531747097,164.47427630605694 604.8631136328173,167.39535667781388 600.1029757086123,168.50541224995186 588.1514194677086,167.8046223655566 555.5161048697095,167.58550542561034 548.9784475712285,165.656341182029 545.4215032827236,161.13067084643671 546.3962061722345,159.4639567890032 552.6381807319774,160.63955232059823 554.6802336515851,156.0546542790023 554.2859196451805,155.35977122804707 547.0776781158776,156.37991061619698 546.3663821268051,151.22200429510838 549.7635884862711,131.36851524637234 555.9475965657582,131.05952311601288 554.7785851087222,117.47536023585997 553.1668786313807,118.2552071721542 546.502142230163,119.79155667262819 543.798982312842,115.41796293015534 544.443772060752,100.69869426239666 546.6136547087847,82.40137569761544 545.2379924987101,75.46520178656067 545.0877368461663,69.51058457254601 547.7822270621361,59.257328800945174 549.7820827797949,46.472876489959845 550.7981821089193,28.28119371124251 549.7695259883574,20.463260992518258 547.6841599910533,18.928381955276905 540.3065483209082,18.202739211948142 521.6861092820075,13.653632032073574 503.991063575537,9.118189527895765 507.1751302535099,5.272716193969018 500.9233352605258,2.1932338588839 491.9996151799263,0.0 488.40702552065574,2.83771235334882 487.3347968262439,28.656006398578484 492.1942891078857,29.39184104451283 492.8752397121672,30.826222922175702 488.54272550849356,52.626740830797985 488.21581581095114,70.2829778178093 483.60926499992655,76.95517429060067 475.93791742071573,84.18416477896074 460.3988298587987,81.56231192820167 456.8928784074462,85.1641713166025 453.2222765543783,83.97873610004513 454.5311873850702,78.83591231554112 447.57250061170515,75.31766052036699 440.68670342248686,74.34176689934134 435.92248929551454,85.57506679046003 431.37996324237673,99.6124092929756 436.2553633310557,97.5951925700549 441.12666309229405,96.50065587142774 450.11205586362877,98.35933805524985 452.6180949197585,98.46086686920171 456.3090280891653,113.91861326489322 455.90132443317583,120.1907364888749 453.94911980067457,122.95557875586803 439.32989054946194,119.52065572717333 433.17459833527766,115.54678280132521 418.8534739599257,110.86265843415049 410.9700726625209,111.48800826996217 402.20647017585065,114.26716602130966 397.70759474082683,117.47907623508559 396.69387492778196,123.79077300764857 395.0220664653476,124.45152494864863 351.8068888570873,113.16529928691375 330.6133902289852,110.39080539788904 323.5356346610158,109.81320390331541 296.57785317378597,98.15688460270246 284.50709413150577,93.82294041714908 280.5397033550639,84.84596793573371 275.07779643896276,85.29203063098748 262.66690277552306,89.58708195102008 250.4856418077835,92.85970622642606 243.02860899005847,97.12194422788025 242.4788865281703,108.89676944638984 240.79749131865395,110.09234482470958 239.21004467192742,134.6877545527633 236.18519894752794,139.6722757144738 227.96830903872058,147.19720232267946 216.4457513671998,142.9370612794603 199.9400785746421,131.95923169350112 202.13081741761997,129.15064370216226 195.96965871908233,117.50391861739956 190.64095411938263,119.07575124423897 170.62700294291628,119.85818524842841 167.9778033128263,125.51585639253733 168.43180178650636,129.28631683103526 157.219760567572,142.9363061572168 157.61875250743168,147.44412475900276 159.02770923817624,153.20136460464278 167.92582384129668,152.41327658867 169.20276065255715,154.06843280112628 172.4366849658475,220.95893181573956 176.1543669835037,221.42503980205947 179.99519819172392,218.6844905191482 190.51757322004167,219.67379653461796 190.7615815642895,220.92037331439667 189.60703799923675,238.53771488110374 190.77221198464986,245.51857764104477 193.07078656259148,246.53471846708953 202.4184376041451,245.16391791907495 203.80998858387457,248.47491691991195 201.07274307624522,269.31963862037514 196.5056681815792,275.50508733589106 184.17771516480315,278.93571393293837 144.76412131401818,282.0114055456836 140.97175580923755,276.0453630608539 136.0838441129473,274.94409266729565 132.35339767058343,275.79409132483306 128.53729902082978,283.23754842373 126.12341760954585,296.9812895760674 119.53958541413115,295.87816290146213 116.27655346566284,302.0747081828779 111.11101577170628,302.7215423744592 111.35782861109763,316.4306642530647 95.51568692059716,316.5009556239929 95.79714244808031,347.745453869636 96.82088490828131,350.4541902043501 103.69658118228145,351.27194736017873 105.51408348856816,362.2544746487848 104.13231900346594,371.0470014156182 101.44170141148675,373.15029121583837 91.48036664195287,375.20602085353926 85.16838044364385,379.47739420574567 80.41123199171041,386.32845557109124 75.47858798302501,400.17955161630164 70.05995164419345,402.8124381217815 49.61880320145994,409.7515768798494 20.46620551180803,411.64787166638394 19.03238391308989,411.213789223439 21.8372585737496,405.1662460144597 20.355032959973045,399.0413273791738 5.944743565187871,398.73111714259676 2.301350150606145,443.1697941757328 1.1189607557377057,460.53065958536877 0.0,485.66977576883994 1.2745292073635281,496.46935564962155 3.7031259984218163,497.8195586652755 12.145311189222744,496.92507715136804 31.160238389868546,497.6370268035035 29.80110714945038,506.09599677846774 38.551854591166276,507.9854933466738 37.84240121657265,517.3932382138214 56.48100790794055,519.8109216063083 67.05302324815842,524.9762629603422 76.93723061248362,533.717464296163 80.799275180211,545.2085370304885 79.82538598648006,560.2766231703317 75.42376302276759,567.7480799475566 69.25269999849642,572.8026556820873 59.16157304955384,576.1933450538785 52.19284293442932,583.6860027237767 49.93957211188883,594.7024322457088 53.128637252225175,648.3678058175118 50.92019411051178,693.0556391502247 55.93891035399343,705.6253564559336 55.930943089197164,716.429878918336 59.292846449004664,716.9690684585062 62.25238471660801,720.7417239553399 56.95828813250297,756.2273597559436 63.672990328716196,758.033099363614 61.15382791706623,784.7228925741742 66.86251539333034,787.3376069150768 87.12815405750518,787.9566771309777 111.39354935130297,791.949243605585 112.63363019901217,808.5966953144184 113.40373010777694,831.5644889413696 120.11792355535266,831.7749524982474 120.57775174474418,853.938586515663 135.21236719367798,855.1964257917098 141.25862470973527,864.4456154035754 138.9896227023924,883.0509648094403 135.2399570103809,883.3863773115759 134.44946154292785,885.9281042218485 132.0925733692835,905.9942220287874 149.8426671244341,912.2642033870949 151.0395033949632,915.199153640611 148.5132876016344,925.1111118589158 158.22603542575075,927.2149597985956 157.17100925532498,933.8374861956473 164.20064216880306,936.0575904455278 159.48753782211617,962.8443977138475 159.79832905358302,967.8721879797957 162.68261575858605,969.1327317584269 182.52018519883813,974.5385592300452 183.12252065710632,962.9248097964594 186.05751761328162,959.9622227541219 205.59022473556936,956.3456635426501 227.45231306059483,961.9426880348307 232.06004419456386,944.328216045888 254.56873598737423,946.6793349907796 252.37530056482822,955.2277525154295 256.07028170138057,960.6147464822774 264.515964102716,965.7524461630068 280.6685514615113,967.7019765936625 282.14331435764655,975.5283449263836 289.1118077812788,982.1450757844009 318.3439817649745,993.771935674223 330.48360964954804,994.0678637151681 339.23783065426164,992.4752256066687 344.1289934119649,987.016547411207 345.15957608789194,978.5545559152413 353.21792755430494,979.4591825182786 354.5326297771075,970.5937352571794 358.7292089509214,971.0930926610547 359.8288959729982,961.4822491113778 351.3886628676033,957.2706144971023 350.93247864266294,945.270021912456 344.9941608702716,943.1123128566264 348.1689527320206,930.6967272479696 356.046259698536,890.2137705863445 359.74969782592404,856.9477564942385 359.40261758067163,824.444718533977 359.0216999340373,795.1673663855111 353.68924301937227,771.5394373850424 338.61264442961277,746.9140855827729 318.78625202470914,713.2882751051893 328.0447126269351,691.4879179930672 344.55999566885544,682.9875878208434 347.6106274552028,670.481169536113 364.7632716536052,665.9797317262376 374.5354174349918,671.4096769340223 391.7376777747268,677.917219105849 413.1410398873811,677.7918332153009 418.83323880462973,667.8340588375746 421.13289584550097,656.6384437202389 447.1382090302076,639.8618900347908 450.45798925503084,637.463645530165 472.7276134826979,629.6706168413305 476.00993307291446,612.492347104207 480.73887535044634,602.6277122362569 512.4942923862062,599.3508716826843 526.0044018588437,598.4325164630077 526.2176167745079,601.0268805129225 532.5952980717656,600.8701624810617 532.4839685904439,598.2064560967424 560.4062232850973,596.8569458216573 561.4241334546808,625.4513928603606 561.9660091007031,634.3472315293399 561.8020637211104,637.6063399573239 562.1405738518564,645.9062167614519 587.0698954751648,660.1472416212835 606.2475576143515,679.1576240642032 619.0419630408973,689.0763477685998 620.4567805416508,698.5535105978306 624.4542418860514,712.0319946873603 628.7900352272497,711.9792217189809 629.8002321872683,716.5450436588825 626.1342941163866,727.5006772126217 659.43539327913,717.6955854490715" /><circle cx="550.5361067037169" cy="459.986702409694" fill="rgb(100%,100%,100%)" r="16" stroke="grey" stroke-width="8" /></svg>