<?xml version="1.0" encoding="utf-8" ?>
<svg baseProfile="full" height="1024" version="1.1" width="1024" xmlns="http://www.w3.org/2000/svg" xmlns:ev="http://www.w3.org/2001/xml-events" xmlns:xlink="http://www.w3.org/1999/xlink"><defs /><polygon fill="black" points="627.9990572157872,909.2175696900209 629.7230114593929,904.9170485643199 631.3601384911581,894.3537635530383 636.753688588696,876.539790596938 641.7658254069853,867.5427973008218 645.6634856328409,864.0508956944942 649.8636659018914,862.8831385317393 650.6856009782858,864.876909119646 653.3454515733271,865.9339552075623 658.7843854802181,865.5703802584416 663.2489163164101,863.433660683683 667.7378707586896,857.1617477772469 666.7625356676486,848.1882033253428 667.915469459805,841.6258928334203 668.2619244843434,840.7982143207414 684.4608508904945,824.3534662650532 691.8703041955971,807.4668427816673 698.3341343328141,780.6171643012244 698.4652371049202,779.8662389434332 698.4664673657097,768.5809157942304 698.0466528450281,767.738203579898 690.0728949357052,762.3285172044934 683.468092388388,759.1167738578349 682.919572973046,758.3791777101325 682.1045788162843,752.7988215616484 682.2157006812911,751.7930093080604 685.452781989054,744.6064904556763 691.3278350926176,736.014080534023 719.2883879505353,734.8600935358193 720.0094185699804,734.773262721377 727.9874187952092,731.734665244858 731.2397645778051,723.238081736383 736.8181307843178,720.5545322922841 756.4185190722282,717.1814369861256 762.9830438986916,702.7865415978157 763.2979106414783,701.6939993194837 763.2952562258183,693.8249293163781 765.3512423739824,691.7640416643308 767.7959073384121,689.8405365247227 777.4416834291666,675.7439289440026 778.9148245016394,671.5745987770802 785.1613098575132,665.0869522473172 786.7720514191825,662.656830912422 786.833198642351,660.575672034922 786.2804216934304,659.6331504286048 788.1484701598081,656.7798623688308 789.3275050572997,655.5973326915107 788.6676626442508,651.7785980135704 787.1734487295045,650.6096943258021 786.4530356238231,648.0436358935156 785.2246140349282,646.3362633463676 785.4930793984502,643.9030356682945 787.2749581601482,641.8899539584729 782.1724297739795,641.5618392567591 779.1111801962247,642.3190269205313 775.9616058718982,642.1994169889803 771.8518069959109,642.9474716392501 767.4821130557658,642.7069915411921 760.6086185745421,645.8052507311608 757.8501319779109,646.6987739424003 753.0317255703189,647.7184240905231 752.1736575081708,646.4014767054646 750.9666400941344,647.1538690543139 751.3002077487079,648.724051471402 749.7613057546238,648.7446924851038 748.9600940336014,650.390034580216 747.8511618131749,648.640060440767 749.2883347920306,622.4160786172502 757.0672197783333,611.3307718326535 760.4911251927823,608.0361554992858 762.5943339844508,602.800584497466 762.1559069837905,598.5593917552071 760.978002800639,594.210331043398 761.0891590913335,593.3370946914647 764.9096567994526,588.4551181209206 765.7338797155735,587.9780956669525 773.0471228143094,587.5563782747895 784.0998444045365,587.3146689911246 784.9845395768181,586.9690171703757 788.573510693545,583.3927894920158 800.1804367725478,574.3913534720205 803.3216854193787,570.8464160097536 802.4066742349867,558.7380502901958 822.0209138039986,540.1350259085516 826.1845206789043,528.0788960987807 826.2311605337503,524.8841471482729 822.0160564555072,514.8300266201745 822.0016485201782,503.5468840063721 822.2130772184289,502.5614298017156 827.6476197313551,491.4130369839812 829.659053831279,488.9668298983522 831.0860380912826,484.3298422131036 833.7814516590903,478.8585934499913 839.9384791733179,458.9546427839182 847.5623330381565,436.56505373550203 849.4630272405967,427.88836793333405 850.015352968025,418.3255806108066 850.2672798782395,417.23663032800266 858.2477113900649,397.64756979299716 857.1396079022381,395.93063189077793 854.6574685255391,384.6201485323718 849.5056526111995,387.0707589239295 843.5359495651732,390.27131563487535 842.5530571211173,390.4865966770418 832.9921999941783,390.24084067249123 828.506840615905,391.6736931447475 825.1537848602286,393.921958870348 820.7744042766742,396.4663354606022 819.9192574414147,396.6463860568002 811.8881673750112,396.86179156301523 810.165660238605,394.3986975804339 811.1346201988321,388.84245338566143 810.2264668683976,382.5983630738896 809.6828577541785,382.08624877970647 803.2836711548596,378.89180625366 798.1397680581503,373.6944807444237 798.8538754264137,356.7949001420252 798.5930605048321,355.7564266366321 796.2136384975206,351.9173772493724 794.4827568605725,349.86485565373334 786.2043776126856,350.5825851985113 782.385257402011,348.3893631825664 772.3740954922157,347.37191160975624 763.2549478195449,344.59908372969414 757.0682402174267,344.3351965899964 754.3593711924451,339.29345180106986 754.5488430735492,338.4912131626978 759.5661126922198,332.76399452330213 763.3158588220819,327.1522019891221 767.1449134051769,317.39882850207937 764.4343416235744,311.09823866620934 760.4138576330305,304.3758852566301 756.4496307930038,300.1277807823162 753.2749760250598,288.5926867685869 754.146844237064,273.03679529575106 754.4427847479351,271.99713535603587 761.5314356503197,259.18231939284374 761.7849333770492,258.1635218695302 761.7709016428576,249.3683425509828 758.2163700985295,241.07478548541974 752.9189259918464,231.87253349458138 749.4967077845503,229.4056437051148 745.0622341649142,229.39186813978324 739.9249181115439,228.15560466362786 735.9952497986621,226.41452838817088 725.8507105795707,226.15653202686406 720.1615963801385,222.24017991972016 719.2325173559989,222.11601843043798 715.6161346240606,223.19920960013633 713.1255191068985,219.98742630154834 691.1984765226007,219.92197801558643 690.5176017407979,219.36228644174923 687.7519047398868,207.8509934335791 682.1161664557909,209.60936191662847 669.8283695996765,188.5020023683512 657.5298906546823,175.881704329272 649.3780478968447,163.87526380003067 648.5711346307487,163.4205605215842 641.4021693411618,162.5500223495784 632.7656186698125,164.1908559018715 632.0369028762472,163.79463719847217 629.1942284635568,160.53890179682026 623.3983344293006,139.92071527607982 619.460936136217,130.20378437812838 618.9267196446596,129.683597996338 609.8693795304736,122.9497214270832 603.1207037144646,121.94727437432778 597.5356276530088,120.06104594786507 596.6494243546704,119.47506757210454 588.1527267268001,108.83756422350996 584.4585538306145,103.18510737836482 588.3987268235037,91.85582330741397 584.9626724474034,88.91649631455869 576.8375819767429,92.09979587168425 568.2286132437956,89.39540866589698 558.2190984459747,85.58141227891747 553.7540944120738,82.48878484336285 552.2223066573082,80.79130210141057 549.3205939092242,64.12811190229627 542.7683805791345,46.97442361850494 542.2292347545232,46.178865519057695 533.7955878081955,36.33688090134797 516.816917922544,36.78451131314398 516.1205156435951,36.25720400489877 515.2252062530969,32.0320120245234 517.1772633721858,17.488316529808458 516.9954901080057,16.590771140044126 514.7598819363595,11.70040727035564 498.958094575641,12.21697672331436 497.2880649710273,17.141767783694604 490.603124737889,17.156235592753887 480.81675956975795,9.535697389743518 473.5834760267792,3.1554174078564756 468.6561480163779,0.0 455.6620093265691,0.7358803363599691 438.80140450179607,2.7600211464566655 431.645734236565,8.195156299337214 424.72139966826876,14.128773082782232 420.2237801874016,13.689826178373778 413.3735003224865,11.70296851552655 404.8110865904932,19.015504434928175 396.2832318308463,27.295604191983443 395.509298234245,27.525225302317494 387.02037862533837,27.795465200759622 385.8580946380799,30.71768991274496 376.0717120455088,30.776321055820063 370.08219689523173,27.588468365968765 369.0924333130159,27.36148663489189 363.97667390301416,27.373339249443347 361.0102611738729,30.093443316619528 354.3584938993043,49.56943471757302 349.2730648968539,56.37521352524732 348.37918566823674,56.71699127934801 341.5367835716669,53.31881862284672 332.0305141275229,61.24886522395377 316.96555559375906,65.1504925178848 309.098283642279,63.812253518372245 306.5891167829341,58.22940718774123 308.9478485956577,55.54866065434851 310.10747108083876,51.95122300704679 305.071344662473,56.364997774835956 302.8792798646929,57.86641702488805 300.87137546521103,58.678736517988796 297.76943885983263,58.234544163065834 293.4232120159333,55.790731632132406 292.38189253469596,53.664835277069756 290.6171046734452,51.84736530089742 286.1492050015012,50.70201187344787 270.9229709419177,51.93575538483674 267.61755100684763,52.528434964439384 263.294603387137,54.20051471119632 253.63862831167742,56.313756087643355 250.43466324986346,57.322301547693996 247.6816441119044,57.24908222975057 244.88461540102415,55.6750419240185 240.07978400166246,51.58175636007729 238.2654469675646,50.67325758588697 233.08546729958147,49.14173456558092 224.34296252762152,45.65158269773258 213.39163382479663,39.48260771034222 201.2846410724117,33.81166382517438 199.54173265851165,34.14040098638475 198.64030875226666,36.95429920785614 197.84361138292303,37.95945793347414 195.16831310187922,37.79165907601816 183.07554252668936,32.407347429590914 172.94541725242783,21.664852216175177 166.64402355552133,17.201140838165657 164.07179519852988,15.09919427873092 161.08765249033166,12.058489405393175 155.69296949289676,9.29282988186128 147.46305230100762,5.738394976170525 144.54809615465246,4.675817216764244 141.9642568037229,4.333154284125271 140.69125581523065,4.998589760910704 140.55483533497124,7.5861274062853 144.09714432303593,21.40586995266449 144.3985518031727,24.94672930759748 144.3499648884108,28.521243179432417 143.50107689250547,31.92957852603456 134.93145024609356,48.1282895753975 130.38854135680722,53.53048874870069 127.51526690199925,57.83240676094215 125.63306251878777,61.96186562565265 125.56792816110183,66.57018766190288 127.41923471097432,80.30194449593773 140.60714051555087,110.99338232326375 140.97976586584943,115.18614984363296 137.88746789600978,140.4332517351662 138.15011922592888,142.61589061375957 139.53420477791204,144.34852248070013 176.49291731446363,163.18302474484733 207.46544401039057,177.39839284799518 210.01713237529998,179.55039282916073 212.04356491110713,183.08060769706117 216.52376046802988,192.0278586279585 220.13984408867307,195.67491125833374 226.60503509194547,200.4874447235086 229.63971197562321,203.78684997556627 231.78428233165639,208.15568659030214 234.04072268940575,213.99403771630375 234.9050435690784,217.229488765964 236.10996473091978,219.40776908216355 238.32672999534458,222.41385716745253 244.33171082388478,228.35033873286443 241.39579484977045,233.00258678983596 241.39983185954083,246.6441648088695 234.44588095224756,262.62967705168137 232.80563079717322,269.77626590042155 235.53644588896503,272.7857515752953 243.09064180969497,278.88739936030845 242.84522368408622,282.8809107556375 242.46599258059067,283.6960190376212 237.06078383299183,290.46186054996144 227.71533577450032,292.6729177103698 226.63322120947007,292.59957104306613 220.8450053950165,290.37004885036015 216.535610775241,284.3928321799244 213.6743848376293,276.4353628418926 213.10881386447886,275.5569799555084 205.90483689887105,268.3921361076683 196.6073116294019,258.7390038803487 192.15296604604958,258.06188095182097 185.14417696832422,256.0783127274382 180.78495156824565,255.57197845439282 170.76679245202936,259.99239266194616 156.51573974038214,267.60459272081175 153.91883182220394,267.78263801322896 152.9768767532205,268.86267785137613 152.83056666334983,270.2866719007924 153.76490810763545,274.6472671393832 153.8204399023798,281.2529739512314 154.38415327036907,284.60902262854574 155.34215048585972,286.4016049115862 157.0247328788515,287.896224613919 157.86215217294156,291.60283985463616 155.18967798486872,303.1461788292828 154.85076414700487,303.9604175234565 147.97929329078877,316.28268344865626 142.69039049595813,318.4920022777487 135.63769333331715,320.94708673793764 134.8045868742871,320.91902886329467 124.34105523607718,318.62572475149295 123.53167148045361,318.977596243662 120.29107314577847,323.5457621834714 117.17632430754821,332.5486207046973 115.81423364791729,342.0341176548518 110.48812788295638,345.2367800250405 110.09918590461463,348.49673295054185 112.5808999916563,350.64353509772377 116.8985410483023,350.63894949957887 117.25059356523052,353.17038576464097 115.34088219558545,360.8335095801307 113.71197477216093,368.40166390216007 111.05371539110266,371.5381566028826 110.26355964292179,371.89964604635406 104.13593033884761,372.86371519558656 91.7669392502744,370.7968699842977 90.92894200298677,370.4934573172118 77.81207889569244,364.2421084469115 74.68315499520483,363.41731906659845 64.82328478426281,362.9402382216076 52.841830193517225,365.34415150246434 46.209633113989256,368.86277416521875 39.44501006588771,369.25539557264096 34.76481708573101,371.1239820201664 31.70176470663329,374.183782436177 31.638057830936916,374.97312681951746 35.364078065281426,379.07406970079046 36.77470840019726,383.35685269041085 32.98785332293971,385.78329777506485 32.376023439671755,385.5584278149046 22.112404855187165,378.58253061246546 21.18238548153838,378.40304492051257 14.221974883318943,379.38879362357784 4.724820268772979,391.2123981883318 0.4333751805368727,404.03425889041114 0.0,404.7472121997646 1.349473634899503,405.42022565367677 16.056488687818707,409.2242263469003 16.9205305306717,409.54748918150017 25.056668854545624,414.607727620627 25.494629826930904,415.1833940089293 34.1664356862866,419.35593774056224 36.18387152583732,419.88482436059644 45.59599206482237,418.1987444357544 46.617235412899454,418.19141434411233 53.743679596034916,419.85202548684765 54.5178035683746,420.42192356389216 60.548236184527845,431.267424140475 64.6957296226177,441.4192039065704 65.18769238456076,442.1390249295023 71.17444838187873,446.35606961599035 76.83474833104776,451.5069651130457 81.74374773580249,481.5649613182966 81.36393562707903,482.39977103551985 64.29143625471463,492.21056359573515 63.7416340909873,492.7529482136223 62.991666001750836,496.6344822306503 63.358238481768005,497.40649532722887 69.44474616447155,500.36323048302984 70.3934470226983,500.6022950080096 91.27484979034139,500.66551694754 95.77330894266007,504.0467137382783 96.15589430620054,504.8709592053925 94.9631877591959,514.380727725267 88.30078037185035,532.9930395782524 88.11775711210292,533.8144730460444 88.10319317199968,543.9721312420528 88.37773053049152,544.9909277565896 93.38376076554465,552.9404858880707 101.22824300125092,560.2206100562873 104.9951450028022,563.9746134624216 107.13715685069378,566.6804633915531 107.22993186713349,567.5897591427299 104.27317951149762,572.9557942502786 96.58770330450848,586.0929332286368 93.12103234259418,598.7471187692095 93.06268158823094,599.8441846534986 94.61085110408257,611.0310657854519 95.10709800614549,619.4807857685669 94.99505210268228,620.4461419924367 89.57617033350274,634.662625630977 89.40405339387672,635.626501518303 89.96527650613606,645.7567279372341 90.59908824910976,649.7297451616969 91.55685062676794,649.9610984617461 103.07730077119217,647.3238125480434 112.8360974203679,650.8147031489686 118.05273487744195,660.2492022849215 117.14744446079071,694.080227060663 114.83639953492663,717.6428366850052 112.75322535377883,738.4062356354058 107.55899336949149,759.8510467539701 108.71025375609733,760.8347692551417 142.51488345423755,802.3834565920772 192.08702669496225,863.149396006244 207.42951826163156,885.693164506892 207.83053046778895,886.5369679865418 217.20536511092317,912.9385295121307 221.6589123903877,927.5046593100191 227.25137364760667,935.3015177273973 233.57615107249538,942.7400089604146 237.9803239246835,947.1317179471806 241.82395575716436,963.0346336948596 242.19087246304693,963.878993170121 250.4507990873282,977.9895492961186 257.2018258136939,982.6096791789225 267.98953296974383,984.3776745090037 274.235793610342,987.7425598507689 279.3222643666023,993.5929141382594 282.53272950979556,997.5146672900174 282.6681685595167,1002.2219504786378 281.5910036630079,1005.5019011927177 282.6236894623548,1008.8793805758813 289.3427607615152,1015.1108602343502 303.8837716898101,1024.0 304.568556481396,1023.8751212199047 311.24387363580377,1020.7899706472886 313.64835875776396,1018.992552723686 314.2131722248391,1017.9263503499565 317.73030288788084,1019.6274449428106 318.95978553487316,1021.0217725172239 320.1459199938428,1020.0044458372346 320.28792815084233,1018.3502297135485 323.02942043630696,1018.1057203585475 322.5719776079182,1015.5914094890447 321.48501042868276,1013.168503527451 322.20900844446,1012.2420585508447 322.7736962805919,1013.9160955454873 324.3195870013277,1014.7591524475602 323.4862408666479,1012.9498122505155 324.6317171003188,1011.9432003499611 326.5575878543736,1012.3089270696767 326.8038621492625,1011.6788602943991 324.764622131624,1010.7395963989633 325.03354489168635,1009.9364497062754 326.6158355314928,1011.2518125115869 329.6600935695925,1011.1344009936079 330.9721493294266,1009.9620891319593 330.26344115879647,1008.8762558728409 331.2811138020326,1008.0470891360773 330.8276683145491,1006.7114069967514 332.57485937779666,1005.2659697877591 332.01118726392576,1004.1274751016175 333.61394464518713,1003.2452001580609 333.5957704235705,1001.2860459571302 335.52234214674104,1001.6942254592387 335.1697721972867,997.5038416018868 336.91139909891535,996.2311404821261 336.7250369740462,994.4702187732184 338.09271931737817,994.9585369283915 339.12253911638976,993.3808519164041 340.9119131372389,994.752437523606 341.8120498428493,993.1270328226608 341.52704149031547,992.0861244519385 339.5218312753144,991.5993380309875 338.9152322825818,990.4616344341911 338.9595285302993,988.161002196685 341.9257750493688,987.5443139666044 342.5901446577365,986.178425500748 344.3187827266088,986.5675832476612 344.87612961480636,985.1010192520681 347.8573211923459,985.3123246117419 347.3930762851726,987.1776181819671 349.18761828641937,987.8858738298512 349.6271053256586,987.0245451700389 353.02622431891655,986.6050817579802 352.9311581129943,985.1503223831672 355.97431111385697,985.4630070835697 355.5487885859253,986.6193969141545 358.32500764385566,986.4163641178828 357.92327916638806,988.055319258107 358.7610062031059,988.2027791119576 357.4331952879963,992.7514902910597 356.74750858902024,992.9391104324822 356.2350174545793,995.1006001590122 356.91716511421566,995.1908291416568 359.10256921968374,999.4505496849908 368.24606394091336,1010.5684271632123 371.9511491151082,1017.8585298006586 372.6970803820807,1017.7923984993846 374.35715867270153,1020.0595206280575 376.9772513107689,1022.1064354844233 379.96016565350885,1023.7963506229622 380.9699298219247,1023.4801327562419 383.01974507952497,1020.2719933863106 385.621638922096,1018.612850584797 389.0920691352309,1018.6645789232389 390.43510580189985,1018.2596432876861 390.9464103917442,1016.516015996937 390.37286780178266,1014.8547841324912 391.6729412233967,1013.9801418300325 395.5335603263632,994.8874450054665 400.5659418289822,985.8910797577639 408.4379693263963,979.7053988397265 410.62952691983446,972.1048118232987 410.54614816908804,971.3055148951554 404.060049223016,950.2952693017576 403.4014550522699,944.9342962870709 405.00600144339387,939.5092506482165 405.44293108286917,938.8755785465526 439.1755653718248,900.729361048484 439.95151716947504,900.3345907687666 445.32892231604654,899.0461767690485 454.3244379635309,898.4587324359318 459.96494349725964,900.1282117285524 470.8773703150097,911.5346792734044 475.07515338654576,914.1842368344782 476.0645250236145,914.1857866961235 484.01840417611857,909.8527002176821 493.25288997605986,901.3834449299741 496.0276982159649,895.2098847295814 500.13463687664927,892.2196868210035 500.68313788046055,892.5172135369055 505.8828354959527,901.8846017767149 506.50577191865017,902.6011662940434 512.8230713181742,907.815493021199 521.6085187985915,905.6277343691518 527.4132242374769,902.7701910503856 530.0414696355302,898.4234016169739 533.6017726470424,894.3467502937432 540.6097750287581,890.1221283919228 543.9831262516587,890.1207374651514 545.1157198739063,894.0560260287778 543.4116128539071,908.0784415328703 546.7738387477323,912.5670851776098 552.107263988329,915.7468830898318 552.9517772215667,915.803419393551 570.9254123461874,911.8398460349936 583.2790649078328,908.6106143306663 590.5251652695099,909.6606960263654 591.1830901032337,910.2837845963721 592.2031366534525,914.6840660194591 592.2249534330687,919.8542956373196 594.6379467262411,922.2381989793867 595.535146433879,922.3536408074381 599.0665952467319,919.9383264674748 603.088256266155,915.2260313994508 605.137871157699,913.1043658721951 609.6160140038124,912.8330517145616 621.9520793950436,918.1640312985716 625.3340340471725,915.9138628566967 627.9990572157872,909.2175696900209" /><polygon fill="black" points="680.7884935071274,926.7851819640337 681.1515131700849,923.3943047379846 681.996758183469,921.7259397158765 681.0504585341205,919.9799572466441 679.4175683360065,919.233486927584 678.9037343022727,920.617559438212 676.6577632542104,921.0093017435464 676.679672617938,919.932671413639 678.8721949756699,917.2444026434137 678.6019282566053,913.9559974151024 676.6254864215737,910.5607517769216 675.740038718078,911.0485632347286 674.3866833977519,913.0747108829136 673.8021280593712,911.8247075906662 674.4348969607742,910.7061244778326 674.273756378336,909.0474118695297 677.1109072373466,908.6015936535728 676.674344220516,906.4677217024977 675.9552862493596,905.8035018019964 672.9972408095618,905.8812532200072 671.9984868705656,900.5597692796374 673.225588072,898.1156234566936 672.2208129224915,893.3648950997741 669.9135159747393,889.718274529603 669.6652115824578,886.3393350847947 666.290519324644,883.9648973016197 665.132535264995,882.7961309842314 658.1087014251045,879.479024443344 654.7329406596714,879.6873329753306 651.2582933620934,879.3343871954303 651.1313313297721,880.3104365915784 652.2923873614641,882.5253703747492 649.6946382066517,886.1122592430881 649.3881999420656,888.4558072946123 648.0180034414815,890.5021491713492 648.4990710075543,892.2898082821453 649.6262149504412,893.1989624150253 650.5934337877701,892.9449209974009 649.8242891502967,895.442614112505 650.4607495729393,896.7216917195402 649.3017222795366,901.2466942462555 647.605521129184,904.7459595268225 646.7872269971169,909.582182282386 646.9882742113817,911.5379560199447 646.0622330551003,915.2475100334589 644.2274466009031,920.0208328031882 644.5655534305758,921.851313861917 646.2108872030674,923.3561174671178 647.4657662272016,923.7622582614016 650.1434003313612,920.7269983889047 653.0626758893807,920.412536181132 655.2653130886902,920.8828191874817 660.1178433294435,920.8710770142259 660.6847551887441,922.9824108419377 660.4409131589625,925.1220286417132 658.6550868103304,925.6698275141877 658.6123347548256,927.4451312201426 660.7204387192369,927.02371277812 663.617438484887,927.3252433837191 664.1090452951042,927.8813042166378 664.0792856433728,930.3220996385962 666.9029056402243,929.9392575167259 667.6716838763375,931.390917096835 669.6371804805046,931.2500080592756 669.3714788067417,929.0702504650174 671.8641226028974,928.0055291595309 674.4706260419807,928.0472962674341 675.6320886513467,927.5115613425597 680.7884935071274,926.7851819640337" /><polygon fill="black" points="74.66685328838528,682.7908518980273 73.66838667169648,680.1753215269121 70.95447958771402,676.7706975888154 65.13599392493992,674.2045765262478 58.60513071457644,673.6097842132715 54.32339995383255,674.9410888660987 48.44712567741228,683.1333293005712 44.30702108297715,688.4183147041681 39.29236450968379,695.2444289401329 33.06506972102228,708.1140705737527 32.22235561732481,711.1586430130553 31.801410422604143,716.8436203160054 32.62184134549392,720.6209005501659 34.28346689985544,723.2954748855491 38.8695954773811,725.2075526850633 46.806827383933154,724.4479447512376 53.43245450390299,718.7830730905655 58.86542405570746,708.1684654768076 69.25863211339188,689.2339966225786 74.66685328838528,682.7908518980273" /><circle cx="417.47954378412766" cy="341.1108772089823" fill="rgb(100%,100%,100%)" r="16" stroke="grey" stroke-width="8" /></svg>