<?xml version="1.0" encoding="utf-8" ?>
<svg baseProfile="full" height="1024" version="1.1" width="1024" xmlns="http://www.w3.org/2000/svg" xmlns:ev="http://www.w3.org/2001/xml-events" xmlns:xlink="http://www.w3.org/1999/xlink"><defs /><polygon fill="black" points="468.52624054823247,113.64695909459692 466.3160385197977,111.56402124895044 462.7421052352039,102.35160311925665 463.04635866795644,101.02554302537146 461.1986323891719,96.809096171541 462.0235688329951,86.85028071074998 471.8750153984978,75.00705945942855 473.3831017744358,68.80841624397658 471.5753044688404,63.6413565432116 463.66407383827834,61.277557792786865 436.1477003361784,57.4380938327954 420.0960751883845,59.28224837881851 401.45854320546465,57.29417914792009 389.1008186950145,47.660185184336115 383.4985892554774,40.89201443901891 378.77947976345325,41.25610837779766 372.60612229003624,45.29525975413833 362.9045832181278,49.775246357629044 344.21581586377124,53.02103621936192 332.1908341535079,51.643116617030046 330.2153761308675,35.23097254604295 329.23499857772845,21.071566224695516 324.91127071549647,12.839619551137957 318.6842560297607,6.109871688616977 314.6928381312607,6.319390413796555 288.13493038783855,15.873288483272063 284.2297803124212,19.23497588677219 281.1291361536287,31.074102075573478 279.62878543741056,44.43509739281626 271.46599934140966,57.720819820800784 260.63899207480745,61.28611860351532 252.00955703222752,60.566952421527276 230.28134360845573,41.03652027237479 222.52989168077244,31.567520472517458 213.82985227744908,23.091872555315263 203.3080543634301,10.41985270979444 197.93101621128133,3.173179503691813 190.19666623660112,0.0 181.0214833845605,2.057966815757709 169.33624317157566,14.610652843517528 162.88382310705006,28.340804768250678 160.27507664815803,30.81762820296433 144.92701183576733,37.42485176974765 122.75569008438843,48.523650108523384 117.72190534465359,52.737402089918874 113.87747344792439,54.6026365802154 92.47058794700774,58.18565580536108 73.55759869922667,65.613927909528 61.24715549173004,68.19395762169131 55.594155956941194,71.86126451813868 55.349280861617395,77.06287412788038 59.540659790085655,79.63061356800233 65.85717806937916,81.17330150331873 70.34089043241852,85.65119184046762 74.02079853635045,92.46923503242613 79.24467198005038,93.19157915150367 96.67994281056036,89.12086923958975 99.63000570872629,90.9944239789786 110.45212462694397,107.18105734038 125.30419909179285,119.7546805570297 125.90140107173453,120.65692185775015 128.36910328076434,136.6150292357379 130.9332539998847,156.4825645405108 130.50659491005536,164.7256380716924 127.61983137791813,170.08053460429926 123.76506969775718,174.95927984000332 115.58515032622525,186.65285375883172 111.23353683828094,190.07449174342548 106.90689102495745,194.94593725207358 100.1483002379267,200.81027275729457 94.36049701962749,206.66838815103313 90.03876261695069,212.99189252273823 84.74939307209311,219.8179631360257 70.33406932731447,239.29156174005857 60.74081663311979,254.86436879457926 56.912359256611616,264.08590828171623 55.5185017170869,271.3655950076518 57.5213371087915,281.05386551040203 59.049801058997446,292.1857040647004 61.0101077533354,297.0307743735307 64.44658294046695,301.86991681602126 65.93779616604476,309.11838053256076 66.97132937108643,318.81227185915486 69.43347908424809,326.5603444847317 69.02265387242169,336.75202488087746 66.19493181157347,349.8471502340044 57.11142725148862,368.80827844371265 54.24481408993826,376.09142414445625 48.21266230473595,385.46566817807 46.64372450058488,392.683995604321 54.47435428039218,397.40560595340503 61.98804116815936,400.9466406469394 64.27214629333643,408.1495710899045 63.56767337424752,416.6866361725323 57.55463700238507,418.649467836721 48.83207198632138,419.76948050741146 46.62558363031437,424.45814367477624 42.71361085518445,430.7969209103603 43.478056786227214,433.3043139901815 45.961511148588855,432.484451848327 50.17617625748156,429.8614501945883 51.85997159888622,430.74909898236365 50.07136862880922,435.61115195288653 52.30339211493197,438.41961211166324 48.918454825195774,439.28355406970934 49.46434664165614,441.5300495660192 44.81872210493657,443.5486221792049 45.46959917483144,446.5515487086275 44.931067118923316,451.8618343136819 43.43549151861495,455.993226718148 45.59026435173928,462.66890935389006 48.54319162816945,462.5835529004196 50.34973971517133,468.78803996170905 49.409198170759346,476.49571229942296 46.285314638106634,484.3093910035532 45.466918333392165,488.1973857382916 43.898067859830924,487.991805599608 44.829999240715765,492.46983504788886 48.275885702528505,502.14280716564303 53.180734959138164,512.7831257036567 58.131910058815286,525.367445596938 59.13488333532461,532.628330439514 62.56312126788012,538.9269322909649 62.599823213637464,545.2100865644707 63.13869164982975,552.0027591282246 65.12023447113026,558.2872967168994 68.53614687192443,561.6597650842542 73.96001264685117,577.1623862337256 73.05755308133328,588.3030136137888 74.07913674307474,597.510768176192 77.033271120786,605.2463725437615 78.56205629991143,613.9718112619569 81.98651721814505,620.7333309386935 82.06314537584281,633.3270545058854 84.076786281329,644.9580421256103 86.07779208516277,654.1556277503919 91.04704423967304,673.0272383562884 93.07378309091567,685.1420376533763 93.11163049659886,693.858872851288 92.68638844146001,702.1054091815669 91.75174573432214,707.4448853296649 86.99721305088114,723.9463176740253 83.64026231915719,730.2712999821838 80.28965353908613,737.5475202309202 75.96127632951828,741.9305724849737 67.7838521191398,753.1516738809084 67.95890373943821,756.8770358677225 66.32779292418822,760.3415152054465 67.48643033698328,762.904444030486 66.44622972132798,765.9945175958096 64.82071420303033,766.3527914265951 62.43115352114988,764.4764257308073 60.04758096324069,765.0589113965518 60.20848819326852,769.4823695024578 58.734100588726385,770.4731960623924 57.646409971396906,774.6807936134278 58.847037144081064,777.1010489903808 57.599115602293054,778.37158287763 56.13252529877715,783.5021374428875 54.32588582984891,784.900915799099 53.70204441913425,787.1092569458491 50.568536960075875,789.7191523745093 51.14159281868206,793.5063526760604 49.362982554717085,796.790380202111 42.82532542863713,800.0693936916506 40.476408297550414,803.0293580332096 38.424101377074194,807.3138782675505 37.17105239767499,812.0307668162893 37.64382128326036,817.4295285661467 35.49366560850892,819.9953657489482 32.96768620560871,824.4544851174578 34.914523745165994,828.6195392273588 27.907929139671538,834.2692585018185 28.06677936474095,836.2633326324067 24.9070597457315,837.6660388674945 25.385209556341934,842.5233914138104 24.23902221545382,844.4486425386038 21.085206277609096,845.1111018705438 19.471343167080768,849.1285151220527 17.424837987750248,852.2137259404319 17.079965766856507,857.5335360497661 17.48545026216761,865.8898010495972 20.152532063496608,872.9378743076328 20.390560656714506,878.3150042152929 18.300808533170287,881.3716721455563 19.42357268001548,888.5513594654394 18.166401290544428,894.6318376032732 20.435257600217305,899.1590221018272 19.329098295669336,905.8721380676924 18.689964925874968,914.1233735943821 17.956860462272978,918.6134567987673 16.60603866964854,922.6453385115858 14.316205118882559,927.2883996736578 12.087679550614506,930.2363303881516 12.206128074480807,932.0981997999845 10.674925651963381,935.4600445784898 9.94021702147998,939.899360465165 10.298646777489992,942.0131969555762 9.215935267800207,946.0298527264309 5.10035726439488,955.0863349877789 0.6502802057375051,962.5821874895935 0.0,967.7487571442292 1.527803831948885,974.2037967299698 6.288712383810677,976.0136969081512 9.453689259164205,980.9310477140308 11.232022780817116,987.1239691171504 15.420334244206865,989.7809463216761 23.554639746843865,981.2160101419229 28.36721005537774,976.7043765202012 34.095989490267144,974.8189127911966 40.5363774263364,973.9789314660378 45.74342151076717,975.6857196388366 44.13852434298214,971.0575327792643 44.384573932377855,967.9031196640772 47.06105208970785,963.7531780659376 54.557051760185054,963.040502793756 60.53551251527435,964.2559519640527 65.96175658738399,968.6630019205203 68.12637063074811,969.2554228971007 71.33628926321666,962.7214278880266 77.46961270211725,954.0625534146702 86.86724969701143,952.4610038511246 89.75205900774706,954.7052709820923 94.82904698449823,961.6745107504873 87.85953562871785,978.8718914301841 85.6189311082358,982.5082423424356 82.64075305054727,984.4400034346138 86.6776308084948,985.37390343546 88.74863890747262,988.5754857902233 96.54057834076805,994.359576218783 100.09928478480278,997.982130398692 101.31795265590894,1001.1121933829439 105.3657010826855,1008.0587412788759 105.23763968898464,1012.3605346252479 106.20793210217292,1017.0572989781241 110.1916315632571,1020.0134407387349 113.67794492370646,1018.3431927742001 122.97874050315941,1021.7091933356294 125.80281196516749,1021.7196221535091 127.0162460977765,1019.5235108312561 127.13821581730842,1015.2091320351889 130.9545085602708,1007.2630023922235 135.31834454244796,1006.6482239107867 138.32014221522775,1007.0852322293817 142.07673301251643,1010.2198886608163 151.36894694454136,1015.9126344436551 158.46770857479206,1021.7543578085161 163.726599859245,1024.0 164.7735937915754,1022.5267882464619 164.41003238195728,1018.6476929112184 168.92055616725392,1016.5503430140553 173.75774275711439,1011.7146964204272 180.56430643212173,1008.1220913933711 190.1074073351662,1008.3067276854312 191.1907933404277,1004.9230304507458 197.09040505300445,997.8347426163177 205.59027727824656,989.8878827916592 201.31060386770625,984.1080527509811 200.70716073549463,981.6518864468585 197.6421742247637,976.8067811431554 202.71949539284807,968.2932143665705 205.8994574424077,963.8293912609363 211.37675672574858,960.8556584672605 213.4373952325004,953.6508026196636 215.25291991560616,943.3862639154187 218.08448831198342,936.6454493312829 226.31952614972582,927.6616985272658 230.30832533173756,916.7459350019524 235.58843957153806,907.9213299420412 237.8269095972996,900.5295235891626 243.0550839368486,892.3720559417275 247.67072464635015,879.7095800588734 248.71809207858377,869.9509304638593 249.96038330982734,865.7441711200457 246.9852882963108,864.5810904578335 246.4206853831163,861.4790763225601 250.32504376116376,852.814681323184 251.9620288106993,850.5978805098551 254.96105874892982,850.1404828861739 255.3423055342721,838.995184189223 254.76554845427066,826.8939339071128 254.70775851859133,818.1601986112464 253.68262869037886,809.4434677151664 251.67576207571284,798.3229399715628 250.6515790163514,790.5704144143629 248.16550560268993,781.3824993341663 245.15987128538012,768.321660155344 240.7132613272895,757.2059987966561 237.260606256084,749.4897454055244 236.24448990101263,742.2190862402867 231.7612137932361,724.3143945836584 228.29726429906788,714.6613927279478 226.64557588173244,713.2604647399527 222.75805652243153,701.6942500617411 216.27155627162222,702.7352927252781 216.11328530364204,699.973606098119 212.4942423152345,697.2305495772353 212.78223611120995,692.3363046457753 214.06711583405882,689.3211864994796 212.19262509072726,689.1862483199398 211.9076002094039,686.2735136547147 210.56617570421696,686.1859426779985 210.80457672981788,680.5359880688097 212.8852051210687,680.3695046483714 217.02897822914284,675.8162747866147 218.9040713786645,676.2471730470377 219.862124070273,672.4222184120122 220.64097218368974,665.9798982218954 220.480509803237,659.3887942486865 221.42702853672924,653.9253324900401 244.97682300231963,653.5410649313028 251.79694585528117,653.1772528612396 253.6527728454285,652.6165388006707 255.96299771396008,649.3286619765154 256.5773143663259,642.4928575010717 259.2034491379372,637.0248773425742 262.9610572635587,622.404489439761 264.6905856092924,617.0869839384304 272.15309394592475,620.687089606929 274.9781655780384,623.6741216069936 277.1126614237139,623.7105185222097 280.5275110417996,621.2852935156708 288.09561633505945,621.5133575756038 289.97644315048956,619.6003103773676 290.79969283899754,615.1334282342755 295.87220741518956,616.0006386001812 297.09118440657426,617.4335921658453 298.6923075165722,615.6294005691547 299.01837281724715,618.4479846097971 306.43019038991577,618.4743104427873 306.618124131056,615.2634770671609 308.5106605465723,613.994868364801 309.4746138110504,615.2696171164121 308.3576684102478,619.6937210771899 310.7873000902589,618.8907653710437 311.5146786531793,621.4215929554639 314.06466216427367,622.0998661322764 314.52167963481986,619.5077542950062 321.32681408231383,620.4611187380458 325.23528966960987,610.2291898420956 328.9024180745141,611.3509640072348 332.77124920501063,615.6688728659287 337.35357938449863,616.6940022475712 337.5975583125231,618.4595471337389 339.2490894356445,618.281910474325 339.9942122150679,615.9780075049291 342.80341429749063,616.3105496228529 342.89227010694043,620.068074139366 351.471965807463,623.7681617442101 354.8737189650752,624.2706423512332 355.63412493110235,626.6355060357289 355.4305805089916,630.6673854985397 351.96273554885477,633.5755756785559 351.9477375906497,635.297341381351 360.61152225931295,635.5139953860944 366.6000612657379,638.9365905996364 371.6890057111198,634.7238617649787 377.2369737579056,628.7454218461743 381.01636080255184,624.0138112796409 383.56727682155145,619.9921649147997 386.94776837142314,621.3235885676402 388.1304649115718,618.290652843242 386.0552507108484,613.0115544940267 386.9899457510331,608.020768238089 392.50679338432224,606.1092180105372 393.09177911789897,602.8471764475717 390.2214745278045,598.9114655088724 385.249000973991,595.4727010812296 382.9099942913845,595.5869783197625 381.5043692344102,593.3116212103434 381.15737040027193,584.3418851428172 383.88809995891177,578.8920710599939 385.16821936657874,578.1002151561684 387.52188822983175,579.888756756359 389.26284966072154,579.8519935046701 389.551827639877,577.448130535688 393.5609449757226,577.8613887140693 394.25003755568446,572.437332856389 395.6511187402504,568.4255637181424 392.13855437254574,564.7231111243507 389.73725797533444,560.2121432625045 387.60369951092065,559.7372628142339 388.0708074470723,556.7258498469653 390.78838650776305,550.561434739566 391.63651297196475,545.3783559439166 396.4341530818863,537.9390746548479 396.25376507509867,535.8250037002322 399.11374924121986,533.5561376475521 397.26228557476566,530.874352692231 398.68208538001034,527.1813296471196 402.42708848850333,523.5474914931413 407.26719002848546,517.7667527333015 408.37894453938156,512.5678606425788 405.2043368850307,504.3943087546721 398.8583326007684,498.6737181016048 398.26820464768036,494.7182869467214 398.7825242760334,490.94842253199874 400.6480283650174,486.12869046193487 403.2640194947846,482.7920308381797 404.8774966508045,479.2797075185367 402.5198147341757,476.6012665329365 402.3156517910154,472.91444518601793 408.6314121533881,474.02968880141054 411.8317340574423,470.8524126451629 409.0943528280818,469.03459457726547 412.36532447519477,467.9934162431441 413.54715100780373,464.5435560938655 416.6000523980264,461.3702069892229 425.1458971138896,462.6901731205528 430.70045058299286,464.3076881491978 434.93271229489244,464.0580854954328 436.96264933760085,461.6294138301214 437.33971875071427,453.8005653177323 438.9951233185725,452.92809665719733 439.88537394265296,447.3162284445814 438.0617545432227,446.34287675884457 437.639432206501,439.6632199998113 436.4816537828602,437.721970619423 436.65731245418766,434.3609178896628 440.71658150386736,434.7291764065566 444.90318564329385,433.29411420138865 445.95719452974424,429.1834228226412 454.06900124969565,429.8709526317109 460.8878392783773,425.7635940702929 464.2575897992907,430.09880464509115 466.02395579278124,434.5735488185795 466.3968751099578,438.10136189121647 470.3353360888406,438.719741468846 471.7343721198198,436.07122523849534 477.1704408896744,433.6807698400743 479.4851915940677,430.1163974292464 490.9287776603528,432.6638357480721 494.29142593572,428.84589138603803 499.5514403452118,428.8325111629779 504.80790641217226,431.64245251797297 506.8731790907961,433.60027583113185 508.0526359711212,439.55247683880555 514.1150913705997,440.262837647331 518.1563706542267,445.42011059322954 529.6779782303107,451.12268467095566 530.2462148475214,454.3806300307849 532.5503926102517,461.39671544820806 535.8640980868556,463.02313372348794 540.3586721588237,459.43898984659927 548.0265301379654,450.5669217765111 549.3860265604474,447.23358011386745 552.9961767839768,444.3888069758932 558.9773802715257,438.1629430355897 569.5577110258598,438.80733341141774 572.8487459457631,440.93283107742593 573.9504712169481,439.04048868906705 575.030311502894,434.4564096442531 577.6931038120712,434.2689101100807 581.7067100435517,440.91884566725196 583.0621599836815,441.11518140345595 588.5015611589974,438.6280569109375 593.149027413017,434.31053073530006 590.07847621711,430.51041692968226 591.1872611334564,428.2581968797433 595.0876579222938,424.06544108990465 596.7384494207803,411.66062383572614 596.5662606989075,403.4508984872332 595.9561032318074,393.40089496287305 591.1887649809737,393.27208562359874 588.5647744169656,389.6834927563971 589.9503982104062,386.4526063557199 588.4464960697471,384.4099631732512 582.0121069431967,373.7597273626069 575.6663307510984,367.2606187581713 574.5070180387056,362.7737769579338 572.5720725913965,359.79150760356174 567.5093978669465,357.55131350262343 565.51210763239,356.01315428876546 563.9173521917786,349.5018767231951 559.7221701134965,346.6955185478919 557.4788625136504,342.08696970005997 556.2810196511423,343.2861579556311 551.7414957766149,342.3610976991986 553.8566459641557,337.65904914573457 549.5553686103659,335.857971618905 545.7857930333038,333.15141162100065 541.3875227027488,333.68355897832885 538.7006771941548,331.46874731934224 542.8505864456389,331.0155698149256 541.5916494410543,329.42464919700217 537.4037907796693,327.2838330067043 535.3527432055424,323.81384004860934 533.2155279551642,316.6556813166022 532.1385233272512,309.5692022463718 529.200468209638,306.502686006364 531.4728111992729,302.6551498503437 535.0981292215021,297.8410268885566 542.0389850165992,290.54134292521576 544.0906204331395,285.7798138482226 545.1727695502576,280.6797220177548 544.1571699116663,269.32988900333146 542.7246403482507,264.8633266024764 538.7313874420084,255.0398721328496 537.6513474376891,246.60837144730397 536.9699615284655,234.98684120309133 532.3269265565749,233.89102042859327 532.8485428002804,227.9184899522652 532.6836209470149,223.80531270360336 526.9007050324217,222.32273181114067 524.7493121648043,219.16431492838808 522.3331418821953,218.91503454352403 520.7843698433271,221.36962086284643 520.1199211498655,218.09955638239956 517.409098475467,210.04165715514273 516.7923335462073,203.9171842520982 514.4836339105585,203.80861224037574 511.98797039153226,196.60328423075532 509.88124099313484,195.01699207756064 508.70200411298305,195.60207991131938 513.6465676909609,208.1021874018628 517.4527830332196,230.917037343449 512.0893035951042,231.96645159849288 510.9579357067871,230.77152856598514 508.29665604609306,224.46963858291474 504.938501554367,218.0349766768536 502.2887440123574,212.0689754580045 498.7231290642144,206.0884043929126 493.88723320572905,199.62304235374938 494.09340032243784,194.53934388469918 492.46334849132734,183.8263189006965 492.22607856238864,176.40745328057255 489.6470288994148,174.25256167748478 485.80218676183995,167.63668502385997 481.8380933006124,164.82669738964182 478.0000697530939,163.20592543931093 473.89072960196995,158.69309811570884 477.47574981530573,152.9441851263433 477.29956401604085,151.02029819729478 475.660090936633,152.35189950654114 473.18663867393377,150.4497704961974 471.5616090547972,147.7160730770222 471.5554241629131,144.0405314937999 464.8616403914479,141.90691819932545 465.5656393007646,140.4787948033237 468.3304561187982,140.09514178385814 472.8364552372617,141.6551556835724 472.5219552950239,139.9783385046544 469.91990676016246,135.90352216308986 470.4431462026894,131.4455119731025 469.3960096839512,120.99742074256585 471.22297972435246,119.43432907166289 469.1736483703497,116.34657945102526 468.52624054823247,113.64695909459692" /><circle cx="145.43520424766544" cy="362.0705386010328" fill="rgb(100%,100%,100%)" r="16" stroke="grey" stroke-width="8" /></svg>