<?xml version="1.0" encoding="utf-8" ?>
<svg baseProfile="full" height="1024" version="1.1" width="1024" xmlns="http://www.w3.org/2000/svg" xmlns:ev="http://www.w3.org/2001/xml-events" xmlns:xlink="http://www.w3.org/1999/xlink"><defs /><polygon fill="black" points="144.3209610499365,8.18689457772507 142.8108335019107,11.412600031728289 129.45151079337472,38.39006257059543 127.77750860167609,41.48073743079192 118.9528698511645,58.533452576644436 115.34534373582274,64.87153209243809 109.55655870849787,79.60664847058672 106.80828355521727,86.38405538242421 105.81231473735131,88.41971014473995 97.32522601684293,110.15467487825879 92.12023163847773,123.21694411387477 88.52628929013261,132.653865552335 86.76289676204063,136.97754351164053 82.36408901094947,148.21899928532162 76.32842983131509,163.96054226226283 70.41241001183255,178.41120399445555 66.50386575421528,187.71314100285832 64.98478678149417,206.66921577339411 64.24944450191708,217.36773796709025 62.862367183760036,235.23047762289093 61.87796154418151,249.38220137199653 61.46148614208406,254.3877167062891 60.6756779771976,261.620833566869 60.49666008982161,265.3562551342803 59.498960020231515,294.6546916984911 53.74075374495682,303.1489320789197 52.55297370001545,305.13787739058813 47.496898781173485,312.79735638385637 47.296390929302994,313.3776738669182 23.191901796486523,348.3600363532034 21.98019286169457,350.42536378073606 16.635879253230783,361.0235794129924 10.752998305052257,371.775764716866 2.43298786540219,387.28126822748595 0.0,391.9239183465442 7.745958236609946,400.24209561719346 15.016019016847656,408.25283842205266 22.14897730157556,415.85039064605974 29.079507041393722,423.4045999953016 33.49993356664268,428.36276328278876 41.7901032916969,469.2670225054729 44.315204850998114,481.3804450521653 44.821503760685445,483.2296826957879 44.30631579743961,483.32085017024156 41.82899601616999,489.2007812249236 35.7470284615492,504.43586129917287 28.22789675486129,522.7398761649579 21.799987135790172,538.5602083196983 15.679308959857172,553.1692592899744 15.931472500626304,555.6601563253895 15.809686321177363,559.4163697962092 14.774419669072355,563.7210398830986 60.717476227923385,581.2054406069184 67.47860264565578,581.9093738848347 117.96108035548436,586.6146876113945 123.38472381374329,587.0372834310838 125.99583345064096,586.9403755891236 125.83668047413245,588.8292485723632 126.62552655661949,589.559867705053 128.84582757423792,589.3078144014921 133.82690747584496,589.6777924115162 136.19169583336145,590.7579381491565 138.6224352973306,591.3833162267231 146.87320013854784,590.5203405382524 149.90557459532963,590.6664900377677 153.16731943814813,590.5241630728782 154.98109241830264,589.3920508163665 156.9243412111387,590.3511958651351 158.3161038816746,590.5335072837188 165.06481021565574,587.4829970794542 168.06931700678197,585.6068208575956 169.3898134745225,585.6363692773372 171.04453347423006,586.5856332651933 174.77492315905963,587.2660452910026 177.18288180632499,589.7718247952826 181.09977255705664,591.9846785969706 188.8156132990419,592.3372747551249 192.0177214364047,591.8126620968204 194.02572408281407,590.810796952507 197.39257637649652,588.596446853049 201.41893573939498,586.4620504487998 202.3106715188017,585.6945478815419 202.95138055706096,582.1185776534535 204.70629554970384,580.1705687337648 206.3403791498783,579.4212961597716 208.34223241330173,579.3089722578092 212.8594037810633,579.5009433429097 215.17086404692103,579.3071512531349 217.179863947521,577.9186698411094 218.86184608127752,575.9557416883459 220.01980379922907,575.4380909037765 224.20320348437082,574.3578616201291 227.55618249857207,574.1690598637389 229.504639235638,574.3174853958631 232.80159387455382,575.0381865035661 238.1971097831305,576.7280701099012 241.9952026255346,578.3130118723092 243.1936381053547,579.987562014167 243.2160700315875,581.7397278455393 243.78040665867502,582.3011458142024 247.42841333315837,583.11199182661 248.824240746227,582.4779023720811 252.05477025708905,579.9619532590342 255.40976445165285,579.4059736367443 257.08982397816254,579.6686386846949 260.86164594600444,582.7277938941787 263.19635792155486,586.5384377598552 266.8684125824556,591.3353018926473 268.3378240420501,592.7077071180895 274.7170250740509,597.0260601738729 276.5811253711532,597.917500493311 279.13739267306875,598.610798901941 279.8985858380618,599.276621554105 280.9886589519259,602.6822615188789 280.7550384691883,606.8359333674674 281.68490916169714,609.1442874203987 283.01110929052385,610.4889443938953 284.6138433239979,609.8187825823235 285.5211728154824,610.0154553498279 286.6921773166042,611.5245920527556 288.4602093032363,610.7587098681524 289.9528344941518,609.1426099639373 291.8530829421217,608.97078496144 293.8188323818104,607.7358066780737 295.2426208840101,605.1328026602216 298.28526024294405,605.7789232921659 299.81592743662253,604.9493551337723 302.14091050540054,606.9657476176858 306.1572091666919,606.6349655063603 307.06479165292967,606.9007654433618 310.2340975156584,609.8582539975363 311.3488478164014,612.8431484461807 315.59110541752534,616.2528487388109 318.0287199887508,615.8328405765337 319.93192785727996,614.7761741708331 320.7473777641515,614.785390344904 321.4352454661629,615.9609859383086 322.56909060722234,616.5442635467489 324.0559979227598,616.4314179067638 326.5188568181597,614.5549216253544 327.6036080739624,614.2610062825314 329.40925407382093,614.5906963172247 332.78587202848604,614.3934482086239 337.61017372533223,613.1989240835171 338.4580621990364,612.5736515700471 341.5975580988103,612.0984800828653 344.5079795975696,612.4376655034004 347.6620870288331,614.3023072054771 350.9390722605919,616.7328454916851 355.0532679403801,619.0337348457185 362.75880385830044,622.2539777074163 371.124830345017,626.3231187268486 374.29345007567406,627.0885666356317 377.6293616319621,626.887601742889 384.0455317119776,624.8202274586515 387.64926021235266,624.8948499389861 394.19715475084894,624.0691435526047 397.77860803705954,625.1232428166313 400.9690979551943,625.4654854752072 406.65851853165833,625.7200437542864 414.1548229723135,626.2871236508647 418.4711495012725,626.0903981633209 426.10167929064477,627.0548455995818 430.85191002109394,627.0023346078722 433.74310736520516,628.4397042504672 434.95036073358983,630.9534690133 436.5707562113182,633.6053204949072 438.54163670627383,638.9024183721433 440.46201229101376,643.0538137530905 440.96759775184927,646.4592322354042 440.84288697102795,649.2151466107501 442.51580876245066,653.5049579271737 442.845816920605,657.0150017234212 442.0076433624829,661.1880702071662 441.0146073795622,664.5253447882394 441.0865691326419,666.0177036540607 443.74277377005205,668.0570511953093 444.9112236806403,667.0617365508068 450.15171993764443,664.9961216463751 451.44356597238186,664.3189432738666 453.4588232986365,661.5133130242363 463.43000368715656,654.222865886188 465.12446824659753,654.091001215572 472.27558910657365,654.9376084547772 474.54928777528244,655.5028199446219 476.77150463241463,656.4413285785723 483.1787034843822,656.5542668412371 484.2240724791167,658.9644373046975 487.7925843500752,662.1052846833769 488.9413189758979,663.8453217392236 489.76842769199664,664.2941994206069 492.3407404884682,662.7231293881468 494.65556798567155,662.6929290056034 498.62314971947615,661.7487541270004 499.61573098058517,662.0241692791217 501.01312577899057,663.7430085509839 504.0335171264355,665.6395009961902 514.1667481906063,681.7984650985328 516.7067166618716,685.956870370702 520.1100190802863,686.8155484506107 535.7376694781476,682.4658541952742 541.0703618764368,681.251611676463 543.0813662096117,678.8689122430793 547.1418190323029,668.6099991150589 550.0500759366021,665.6729555646115 551.5623174396472,662.6362163009007 553.216027985568,662.7840923612546 553.7419165057395,662.2641672658943 555.2836012327081,658.8471668228208 556.7394161054402,658.2704001540601 557.7871740052169,655.7459719246691 560.174185840258,655.8293524551525 561.8913399149102,656.4190991686613 564.6802512706882,659.8380783765848 566.4790330471958,663.7098736345945 569.2783942686419,663.1077463091945 575.1358870063356,662.2477109245939 577.0881221335957,661.7371373237238 581.1275539724451,661.2551097454049 585.024078443598,661.3323319153005 596.3532042310096,658.903926949042 600.4209298307832,657.7288153117343 604.7838391315769,655.4538175252559 607.3188615015692,653.5580441014305 611.1338947858874,651.4090906652107 615.6556655979681,647.7507000759582 618.2011253087052,646.1380410076596 621.2756167737803,645.0828588434283 624.6305930940224,644.4541445280311 628.6785934173203,643.9747152022566 630.9004757134155,644.1582328471369 637.5984110990565,642.6230678419381 639.1269664148099,642.5193626860215 649.0169352568528,641.0579886946234 651.6608869939447,640.9763438295403 658.1607810358496,641.4002309183294 659.8405934166519,640.6044909781137 661.4614459511358,640.3336801302092 663.5021576485243,639.4669740877318 660.4725164654438,636.8237209197849 656.5145658540448,634.3712411749832 657.4663950773273,630.4787870721691 658.8928852586514,628.703923175389 661.2314423860199,627.5671250353283 665.15275113237,626.9534388764314 669.23677281292,627.8781418511865 671.4098773451678,628.743011652902 674.51623873352,632.1929988806203 677.179734941153,633.8428980944221 679.955254393213,635.2227017392986 686.5375035170171,635.6277827608421 695.5279632197846,632.841072003728 699.3251787007284,630.4849508215058 702.5408956310457,627.7035119666785 708.8630115722301,622.9841935141901 713.5207593446996,621.4293516919192 723.8449742826677,616.4407888024867 733.4738148189751,611.3103073403383 736.9332825971323,609.9612524746766 740.3691665314727,608.2677040137382 749.0191922773754,602.444351964103 757.8954823444568,598.2533841548272 762.3609045604034,593.6386498924256 774.420724777872,587.9034039386767 783.3551235777585,581.3696385592036 787.9245183379522,574.9324965639067 798.0159077416114,565.4996771753321 799.4602147395797,561.8882291748444 800.5185176611017,560.2179474676255 805.6794199765163,559.5955150602024 814.0781555151369,559.0882576348806 819.2904234068169,558.5181465079866 822.7634355000116,558.3219192361755 833.4160831755606,557.342580952598 838.6989560764137,556.6525556149892 842.4660301202475,555.9277746866591 847.1711358224823,554.1738434434765 850.977527250248,552.2549481436167 857.1953651627193,548.1489395357687 860.9491152335906,545.1486249399359 865.7775667997699,540.4352119930087 873.260371983793,533.3724221042172 878.5444420815668,528.1443614130093 882.2713384246023,524.8959480432536 882.5533883218512,524.2931844977323 888.0418933817607,500.6226033054073 894.8097323868868,472.1409603733373 896.514744500804,468.050222620166 897.4933153531284,466.2510197009127 900.6002170979825,462.420293882975 902.6533273785739,459.2134273425861 906.4830552703256,454.8386132063324 909.6500905871566,450.1409131650222 915.803579638132,444.02140572091565 918.5172366877704,442.11366090697504 940.4153985395197,427.9189753434636 954.2657957855026,419.01779193232625 982.1932068762846,400.9896742349781 988.7798342396155,396.391807057982 993.0864811742247,394.2613026013169 991.9513321453501,307.61601307114535 991.0150796041052,234.64548848076544 1024.0,187.36641395883032 1020.7216686788902,127.99179389249946 1014.8367348638943,121.62678260093696 982.2001214347406,68.43445324737581 959.9834015868686,32.716444372176284 936.3555426409212,13.341551718544224 903.5851572977912,12.738016029770847 831.2733923816095,6.038994507118673 759.941020327485,0.0 711.0675229488221,52.5173245693486 617.5961185302107,49.83985689425924 580.6901783903315,48.01524075204179 531.2142848795922,46.27888281998128 530.6038798076273,113.48457246369503 508.7670156903148,132.95308283275926 506.1422264749227,138.56509155384185 500.65715235268215,150.77360790801754 497.95872239748064,156.44869260383666 489.4415061052156,153.41990875169154 471.1554774043672,146.4103851265993 470.09382285624963,145.94727508163749 468.59215821544257,143.18374828085257 464.7115498268055,134.94345522848437 455.8425754168,116.56374600000538 451.4465478762148,107.23633628833102 451.262904151031,106.5953639499844 444.0262940361217,92.02786252559531 417.05503336155107,106.22648892690347 404.85280732514246,112.6913493368985 399.2508889620373,115.53536682347556 354.6991616620214,138.82915879555424 354.83423827898343,142.0779206298854 354.57850660737216,146.56048320072216 353.6228649424804,149.3085027650635 353.83387262203325,154.88526969003578 355.34914440640836,157.3462254310017 356.7351937508932,158.3802271546847 358.3123955440331,160.69776562373193 358.92129271137645,162.27645489735198 361.5783334268075,165.79107645542604 361.96332029730235,167.20580321413956 359.8553247664363,169.1197861897134 359.4652460899626,170.19081734485735 359.45859194071136,173.14082079355524 359.7715211042068,174.61653363835978 359.0288391201952,177.86507899070654 357.47765476897126,181.75453455880432 356.82149210228,182.75713520294846 356.80811465966156,184.15100484937955 357.7343347883776,185.63540956718333 357.94192603189646,188.6209963950945 359.8616439202448,193.6259468731365 359.91245167492684,198.32705217736878 358.83375729303384,196.3841834026922 354.6219946398542,192.67087279377046 352.0339821533198,189.6795416395213 348.9549835266642,186.96643755316938 345.16741974973485,182.03904638309484 342.7325837824415,179.525656209207 337.1871306268065,175.45405400257266 335.4732960298348,174.7114023342025 328.4807734633708,170.20471426964536 325.1265584406994,168.33690335111532 322.79066022757854,167.40111820310267 319.8369502964742,165.12497208899356 318.39579582343185,162.4099244675864 317.1860050273443,160.72634793149416 313.8790003871718,157.4111684414604 311.57360236784046,153.89459052040002 310.2900802602189,150.24585688355137 307.9133937940438,146.90010002755344 307.15851499408967,143.8541489474693 306.0681815797559,137.65414383629275 302.3822492830161,118.77331618592495 300.01307904186524,105.95878572248205 298.4124654144578,97.76582745379869 292.7478295390834,99.57741240546613 276.11547079237835,105.29649531111 263.89183961959014,109.40061239375689 253.00196045681696,113.33086610837745 261.45521449434773,126.65721787438224 264.6855799976954,131.84248219770438 266.8397754126832,136.04144232467866 268.53528100011476,137.9666253385509 271.655758188556,142.99585214601484 279.49355961755293,155.18482031809083 278.3368729437989,155.84873000017194 267.6134666873815,161.20123169153726 256.9286828867192,166.4566802402702 229.2799871993357,180.56003344376762 220.68533121807454,184.72668427331922 185.13986670297416,202.19205228778884 148.2772222089795,220.73245411730187 147.6920784075925,181.3505341244122 147.49849091212522,166.24281468538788 146.94468161044404,151.58750589752322 146.31341847408095,105.29666203892111 146.02164870767464,89.93664270791305 145.97972617569107,84.70888963735979 145.6884218725834,69.34998528918595 145.38600712098926,48.78037861292 144.91062356775157,22.946684145840322 144.75696021288732,8.394214157980514 144.3209610499365,8.18689457772507" /><circle cx="405.7364704370552" cy="576.0840897494368" fill="rgb(100%,100%,100%)" r="16" stroke="grey" stroke-width="8" /></svg>