<?xml version="1.0" encoding="utf-8" ?>
<svg baseProfile="full" height="1024" version="1.1" width="1024" xmlns="http://www.w3.org/2000/svg" xmlns:ev="http://www.w3.org/2001/xml-events" xmlns:xlink="http://www.w3.org/1999/xlink"><defs /><polygon fill="black" points="476.1602083537779,599.6464656766018 477.94083889022727,600.8754635540229 479.2703053789392,605.3529087357313 480.2750646368201,605.7129724493901 479.9577679128448,602.115031911157 480.96465845943874,600.5218011791394 482.9552695686314,600.5645343004819 487.96726863716765,603.4491882075783 490.27546296628833,604.0972100806924 496.3696650157878,605.2307027634755 500.1539903552991,606.2179248563292 507.21195499590954,602.9874726224105 509.5852881870457,602.4594810053494 513.8398662847386,603.1151631353349 515.408112333443,602.7316923535548 519.4503731324986,602.4799676880349 522.4797718211762,601.9581771104861 524.4121676642937,603.1132977891394 526.4260448073106,602.8591473415196 530.53196444182,600.6997079556038 532.0747629211139,600.8873321251479 534.4415077161187,602.0854884437452 536.5561169466639,601.5234286855064 539.230355499882,603.4137457301881 546.0051118809288,603.9388434003502 548.8068266175986,604.6452956401735 552.4668645459595,606.2804554136624 552.3647597894291,604.9605761993747 555.5614469874222,600.6727589619303 556.2350388348935,598.8954123983568 558.2611258252869,589.952304501798 558.4281191294332,586.7991014610786 560.9280649262711,580.2661996037481 565.4778841220004,572.6472029583243 563.6456249034785,571.7850516639211 560.236503979879,569.0282245327949 556.5872180726536,568.7458868599656 556.6848484040364,567.2405194682567 557.9842728988998,564.861053489356 561.151821673711,560.983160859755 564.2173207328491,556.4125224236277 566.2439315856242,554.0399270594373 567.8527597855789,554.3416190735157 570.2469758487291,552.853384403275 571.865277897703,552.838152216871 577.5136551873917,556.0556509097609 581.2091823198183,557.1902823371468 584.8137853420828,557.0225280528891 586.1472235644289,555.731898033164 588.2888113315821,552.8297352092789 589.0102106064276,550.6654277117165 591.7151720673804,547.0375270254483 598.7052557818681,547.6522482699502 601.4207295409767,549.5463017063097 602.2815537117615,548.2346945511853 605.3639917815948,546.485185517784 608.5012409491455,543.9423941474963 613.2800291725763,541.7117311221447 622.9138890744556,535.1717781039488 626.835420279842,531.8569597959813 628.7160058591247,527.7887720713419 628.4577959550084,525.7988659756849 629.7405326452783,523.8852572151987 631.1470166307536,516.8991547068016 633.0052815153684,516.0722525980466 636.800476453584,517.0860454912004 642.8990465531356,519.0117643280693 646.1155778045785,520.5336999249226 649.5604326209024,521.8182908335865 651.0191346306383,523.5158739781841 652.6312926950912,529.058496657301 653.6598667155948,529.4855196658968 659.756478605525,530.655108527178 661.6093921317683,530.2671417608115 668.8925868318549,526.2670391395313 673.6141672549916,524.242611769354 677.6964656460447,523.6722872011046 679.8413156741141,522.4742674409752 682.1826257091967,518.7759026016495 684.5717351261487,516.2288734406364 686.7783618713574,514.7360625771772 687.2972830695243,512.7092088884464 690.5799164745926,509.2910066639423 696.8144370126769,506.4973022486779 700.4445772166199,503.99957483496456 701.8949982288599,502.5489033078584 703.2792173659618,500.3894884963773 704.5846657310599,496.6645115761006 706.3130533887564,494.6462702883348 709.5950937850911,493.1034329348814 718.684922429809,491.1842402364109 722.8855451489919,490.8180717651622 731.8174984337592,490.6386931176205 733.8725000749307,490.82581835987617 737.6885129546608,492.80455522284393 740.3160621202211,493.83022988364894 745.7398441436034,494.54680974612256 748.5640368026625,495.62869097371595 750.9065068707296,495.47172939662886 752.7005024649342,496.1450531499736 755.4616069918983,495.95347789821363 757.7782859468698,495.0057368030864 758.8677321524949,491.9235430331569 759.0915845134607,489.0368561824498 758.2964909581308,484.8273618779114 758.1549450061534,477.0421144825742 760.6132321724768,476.00008921299866 763.5451533445049,471.97356001855456 763.9302522224202,471.84150347339266 767.1915619080983,475.381969081737 774.79960831265,481.37284320397373 778.2923175668494,483.51066048214824 793.2643841379786,487.536069188522 801.8688906907258,489.5025970337842 807.0531848558312,491.01973578059307 812.2298127606745,491.9724454453806 821.8872337844341,491.0776816572236 826.9671033101529,489.7511039600516 831.5530420912366,490.17614006066435 833.3177616571696,492.37599649354377 835.1989439116157,496.8540536730911 836.4751914272473,501.3580712086683 839.9779175852716,504.0888430754256 843.415514956781,504.5217160720761 845.1842464514482,506.18069243287266 846.9882990377067,508.970559447131 847.6354456435249,511.7837968246015 846.0196243209889,517.8172889049561 849.3695156184526,516.508557550331 854.8367807334103,510.72670257068097 862.2101989747415,504.295915635962 864.6473798678732,502.3600296710772 865.4398608771679,504.65462490807295 866.1568092973858,508.97394624194544 860.8143997265353,511.9860491125252 858.4468073154367,513.5461834451498 861.0257462759249,514.963069077281 863.0210691017098,518.5499568074484 864.7388063246893,518.7288893207121 865.488393134768,525.5293457136386 861.167788630235,523.8716257252732 856.8738088487405,523.9274708916198 857.1081292419718,525.4460640252544 855.6213995720623,525.4475766064033 851.4442491059822,524.6540915931158 848.6336840787059,524.9353819664265 849.8170708650376,525.9685194436902 849.9046279182445,528.0236665952914 847.9276638717066,528.7104417865783 847.3277418274113,529.7429012327335 849.4234977710142,530.4859616061925 855.1985323744431,533.7117258567052 856.9270867601413,534.2129812705016 859.8309239442547,535.8252310875417 861.562072139232,536.338306094172 872.1958522895828,541.953160490291 874.0939222347873,540.7788728031984 871.418377298411,538.9441851036245 875.6131807524862,535.895320481259 880.9456701887509,532.5037903175222 880.8765245462487,530.1672392175803 878.5548987441472,524.139021314261 878.7234413989594,523.0909336425549 881.2138309168938,521.7743644081522 882.1487983285668,522.8155733858708 884.8976475542614,530.2304422291771 887.1451308457678,535.1946909004337 889.2559344297986,536.0562820472992 889.9550437905195,534.8889297958746 889.7248075153443,533.2417810589028 887.8815853725538,528.3955140602745 896.0160877860844,524.2200517800973 896.538074778803,523.5843026842981 896.135388592393,521.6352481941755 905.1473891630924,518.8638293326901 908.1028283363189,522.6571389993006 909.4981309237354,523.8680151265658 913.7687206455241,526.5359103303524 914.8149191520496,528.0481851881909 917.2069347446269,532.7145397184926 911.0566856740478,536.7469129500151 907.9957769233987,538.4145435746155 909.888960814185,540.788664789336 905.7910992729459,542.7119836234461 908.7744606642335,544.8704429045365 905.464861627117,547.9741540147522 903.1504266700624,549.6406254659336 899.7053214951525,551.4792441380972 902.613742454303,553.2071881176225 906.1035352558873,553.2877037053224 905.7271493473149,555.5614944190061 906.3896004804044,560.0318955805203 905.2310215401988,562.4781951797768 905.101833450549,564.4420259262072 906.888737435185,564.5376255131462 912.0288741082,561.5309854884664 914.0136674310754,559.5199781540107 915.6630455583326,554.0223094981274 919.0305790445776,553.1657383760261 927.5434954144773,552.3157716369781 932.0329507930246,551.0299958041256 935.36624419857,548.6418755378533 938.1755208792425,547.4093876949138 950.1473695141689,548.1745564210128 955.2391668509473,547.4264862942656 959.7484092343641,546.157250094816 962.988164702067,540.9459097404745 964.6951370156321,541.4349326185752 971.1062294222636,546.3622273789558 972.2440932624893,546.3416914270605 974.7644216658839,536.5721447235378 976.9707682914956,534.8037964230712 980.3254610530494,533.0084953735562 978.4424615783201,527.3816990811579 980.056230075328,524.4803129219724 985.0124688531793,520.3275748148493 986.6569936913421,518.0195200344647 986.5988430801528,516.3038694989996 984.2974979064635,515.258683160098 975.0094356338004,509.84078846697145 970.3098458656508,504.8737733533236 968.4664089199189,500.9781134014638 968.4270781003738,499.81445421893 970.1101253153257,498.6463396782186 975.1896449164003,497.89801110542084 978.5511017750614,496.64313860866025 983.8865581329629,492.2744035763295 986.2252256994968,489.25874262434513 987.0235471249496,487.4035245335086 986.165774327935,483.6120123235776 986.2677682188985,477.8134341790239 986.78228646638,474.5459388467432 989.9049187508583,468.4357820450233 989.0496894294404,466.5052084997895 987.8841243283179,465.63067259615246 983.5993860358075,464.13899436775046 982.5779118589379,463.3013626935195 979.8797456790518,459.3362115319908 978.8462107030465,456.9277178758508 979.3578425093435,453.89334150826096 981.8727300705327,449.77244759448354 982.7166139517386,447.4795617871543 982.6370091354058,445.1313509568255 981.722345672158,442.01685775402353 982.1047936336951,440.2802914463159 983.6730220958116,438.80821154603757 986.2832473395283,437.826514852386 987.8036169453427,436.09314576369576 987.4821592480326,434.461100898611 985.4221735707546,432.65802331451164 985.1818231051014,430.1001844763135 986.306078302903,428.807427212746 989.5209235607139,427.79918249277466 990.8353733869337,426.6941043634451 992.2421793449937,424.0414993103625 993.1640676992225,423.16182369613466 996.273137353424,423.56401155617084 999.7311284806264,426.72043197732273 1002.4583103001534,426.13180164515404 1002.1905241188597,424.3007923139634 997.6615789388234,420.3742837764445 996.5540988198246,418.59272317170985 994.6102661584331,413.84042912708287 992.9304849050217,411.76464067154154 991.1720409433597,410.68325964719617 986.7889493318827,410.1450096910112 986.3153763915857,409.4471424024055 989.1228009665222,399.18941211504114 992.3046269931197,396.6527512304458 993.5297798269484,395.02790686395673 993.4327470588563,392.172451340153 992.3567435845116,390.35694759106195 988.2697660791175,387.0604850119471 985.2057318557272,385.7993500834957 978.3659936046497,385.6280780501211 976.4716143671412,384.16284928495065 977.3900489778662,382.2288836767897 990.5520698774615,374.03046727165116 992.984903201409,371.7402546525684 994.7543334014388,369.5293169670275 996.0557989976489,364.7503347725311 997.7713087310603,360.0677786565026 999.3588122339363,356.7099044022169 999.8624686251749,352.89302283620054 1000.9885528004405,348.94143574378404 1003.9259578909287,342.562271014491 1009.2213445054206,331.47245364913755 1012.6130082176487,322.7744456477602 1014.3428287513125,316.4481850818695 1016.6333944205937,309.4545179998729 1017.7657360875156,304.8214606010029 1019.2249855182226,296.5984927558075 1020.1944141327557,292.2637222707322 1021.5220690981886,283.80324216740297 1022.7570945363702,278.2644607586527 1023.4060301048008,273.2864015677563 1024.0,265.5021855514124 1023.8453303140107,263.69719231257596 1022.3792174156569,260.3239262993074 1017.3088296957892,253.99099059939516 1010.4979357914391,244.0131585996279 1007.7350388860964,237.70875784022314 1006.4230961365035,231.36677576061118 1005.1324486527923,222.670105928692 1005.0856714435039,218.00561146131173 1007.0031905261092,205.81789017745103 1007.4854384880739,198.36315084839924 1007.9319789301109,188.02990028240833 1008.2273211483808,177.51061564708152 1007.572164015096,169.07902313722195 1006.3440216791519,163.72894316952886 1004.09878829709,157.30829042104722 997.3619354324127,144.82733670892708 990.3046483333393,133.50121972912865 983.1436544289242,124.49651223649676 959.8338627144648,99.32626910654443 955.6983852305257,95.60995039784115 951.59717456684,92.2628015815767 948.7286417082472,90.31069543722913 945.7055774161636,89.85140751027222 942.5744058472897,90.40838890721659 937.013079108112,89.58669156929011 932.9734230750144,88.36693981396309 922.6082603490727,84.91092494825432 912.9687729842511,84.7217821124342 907.9497960261605,83.90185884264463 906.2629411066179,83.3013937708987 903.5953620275922,83.06843145488745 900.1287660006202,83.98543548103737 895.7546192679449,86.55186305474967 892.9043725591805,87.56752265041916 891.3942121052513,88.88770310559732 888.2191875834491,90.26366856331731 881.3898444885454,91.278013973469 870.3233738640763,92.19174825129573 863.9671023266186,92.31139704881923 860.5013340476644,93.00354334650069 857.7280383024896,96.59392747987886 854.8140922393934,98.16966412441224 849.6828827186997,99.81320436725952 843.756465168679,100.01040283254656 840.1559264862562,103.08434093018883 827.667599434531,106.45616986014716 820.2859022443666,107.43863486176258 814.4813971543435,111.3257910349119 808.5546381301286,111.521803207581 802.7031464946972,113.93151669011274 796.0895696940196,115.62836824416502 791.6444092814943,115.77493262262942 785.0810732056125,118.93633518139728 777.7940003035767,122.87997778429519 771.2282189938228,126.0468894024745 763.8213784119256,126.28998039297721 753.4112105336886,125.15256220016323 749.6530242765402,123.79701500741555 748.72453448893,117.9221380738473 749.1943361174668,109.77919469873791 745.3770366309071,106.20917770937933 745.1841192620227,100.31023207361505 747.2406400778873,95.06951197226056 747.0959607140409,90.647538347323 749.1676869908754,86.14108203467117 751.2154585730693,80.90655220763142 751.7682677932738,74.98018232826519 751.6232464263134,70.55223675073239 744.9386320808129,70.03624622032316 740.6414600123202,74.60646376215777 736.1971786415016,74.74571158342826 733.1864304970869,73.37145165864376 733.1141499969907,71.15747934973831 731.4883891294746,66.78087374578945 731.3198991956655,61.618914932517555 727.5500375359918,59.5285855264633 726.1169724612928,61.0538752133308 720.2901897439403,64.19491829659717 718.169678492996,67.21509968095734 713.0758680025145,70.33798669069995 707.1613750448294,70.53031874702106 704.2378994473311,72.0978742975143 702.8870250985485,75.83061830882207 695.7196407860456,83.45289892912012 689.0825049823534,84.4058057963914 683.2306912240273,86.81455602111987 672.9318873819147,89.35784841467239 670.8104635499263,92.3833909380296 665.669565990505,94.0248383915008 662.8123970392152,97.06803205767778 661.4498455608207,100.80673526183307 656.2590038139248,100.97398098875868 653.0803467065454,101.34812607849301 648.1181796385757,101.2419417455601 644.3722110819798,99.88387076834607 635.4829436201559,100.16933577172324 631.8554700400466,102.50194182568953 627.6020452774219,108.54626563006263 626.3095799829646,114.49863368420569 622.6580022047877,116.09105960870482 619.0191549827315,118.42074678947279 615.4384048943704,122.23294941668644 609.6313478078007,126.10721654997405 610.2491413749208,122.39876224955293 610.1892141732911,120.1844540785653 609.183690001934,112.08942323525099 608.2960850937176,107.68532311859434 609.6233947148106,102.46975212971012 613.1783953795157,97.92967919095582 613.0604167313154,94.238740524626 612.2222178325455,91.31454277333057 605.4667194003362,88.57337242328435 602.5038408997755,88.66793535546151 600.9282674654635,85.76423686316127 598.6410336872236,83.62395287435083 597.0419712584037,79.98024470629707 593.9853070913332,77.12669365471913 588.761047351551,75.8116260188043 568.0353927534796,76.47022209783427 560.512119140956,73.0230068751323 550.9377543716112,74.7985174654043 548.1149915121242,79.31712941921239 544.4528859667873,80.91128019798032 537.7921656749827,81.12153052605288 535.5987601763777,81.92843915695641 528.929387966443,82.13862829605318 521.5798085357325,83.84839742833344 517.1819138337164,85.45913517646 512.832672244835,88.55263226263514 511.4207680578613,90.81311273593406 504.80603338339847,92.4990840736424 498.21408369704056,94.9158310033153 494.5304488202291,95.7748514663873 490.2014733342307,99.60483234172801 488.053546140966,101.87915725843402 485.15987032810074,104.19168681385139 480.97949570728935,112.4490105400597 467.6472285834358,112.86469688467605 463.914709450398,112.23721446899413 461.09121262529476,116.75129244513789 454.4982192847915,119.17830339760997 452.37267605416866,122.1951316052428 449.47803550219527,124.50108491312011 441.5857013028419,132.8724885935216 440.19769960576923,135.87524873373962 438.7843881404387,138.1321203939741 435.9121202710974,141.1748275148763 433.7860719287719,144.1943949980659 430.89082674180105,146.50002372829903 427.35123499333764,151.7822639759578 424.4925827251767,155.55904392242206 420.1715190494158,159.38986251188328 417.321213998173,163.16625055125883 414.4483429797519,166.21454962887708 407.31077582294824,175.29861429541114 402.8752463941656,175.4350857743937 397.7074699404393,176.3376057773508 394.7658795326489,177.1656492148024 388.1017444345192,177.37017477305818 390.99794455366214,175.06229618165116 390.90747435604425,172.11433838552875 393.05721983200993,169.83231170217812 392.18547160943353,165.42102275500235 390.63541293844025,163.24957617409007 390.56773868636316,161.04457415690172 386.86817628470516,161.15808061136397 384.66213046257366,161.95445060730776 377.25434742244033,162.18140405970962 374.2680937561581,161.54408704068373 376.33816477411045,156.30502161921356 376.2476431480898,153.34811042177893 379.0760233892141,148.83541071640718 381.9245006535038,145.0537492855874 384.00611161752056,140.55786540586786 383.91572046881873,137.60990300393104 385.3521142431836,136.08451263653257 390.23832537270255,126.32973471239353 391.67484334327725,124.81323899081201 399.12003657437106,115.18264144475779 394.80393756431204,113.46663568985002 398.569651949821,109.56983848040608 397.7264543652409,106.08652088089383 401.3633667073147,106.99008706022471 404.0947207627512,105.3320794944965 401.38596624436263,103.0948671408031 405.45684558230766,98.46574889902911 400.46891622873244,97.21260655452238 397.96935891625554,96.0172100645915 400.3329429127695,92.79363652005668 399.7341251277343,90.237612746933 404.6982302006181,90.44319879963257 404.3120069670859,77.90238746573561 397.58526077637646,75.88142985888078 380.39985001287386,71.24245854271919 375.14231873638715,69.18757043867095 367.73292428066566,69.58764433740589 367.0297068174289,74.67736588555238 367.24558973650403,76.7255208435929 366.1040118043961,78.49264755038848 364.24833810516157,80.0576061936631 360.5020585365691,79.5747885005427 357.5214883466994,84.73102543562288 355.45279835461645,87.31184194235209 351.3174400734905,91.20105911411474 348.45644260466725,95.90548341488125 341.14057236107334,104.16507579324787 335.22595570530615,111.10947020576685 333.7718677991263,112.34230368654181 330.64350825027367,109.33733704846742 329.87262811687157,107.90631356498051 329.91896152807675,106.3758070093345 333.206387343894,101.83198442408218 330.5612544478429,98.5286197929102 327.13308157648925,84.00473617558396 325.9509102761124,81.39158024680285 323.5874703443125,77.68536225566208 322.7707527503514,77.3696804236273 316.2351919081485,76.9167935828059 315.1808895705025,76.23795005714146 313.83995711397495,73.79080865358799 313.05586458485476,69.84847071099296 311.88402205568326,67.6381040438165 310.53270007312926,66.91148785416419 305.97195281447557,66.52388394983916 297.67964477351813,66.12049135701454 295.6338422190986,65.76117467796792 293.1617563748362,66.1493772819291 290.16744185430707,66.17998571469752 287.80355708192116,65.71967370473544 280.8542882729844,67.8463667192459 278.25315042763367,68.39354107823067 275.64222634004705,68.25706844367892 270.3634939831024,67.09575112111963 266.57922825179975,66.68978299680498 263.33221620687874,66.85594588232777 260.5988730721478,67.74429757051485 256.6395079868531,67.61513839562701 249.15275920265358,66.1430770690697 247.75294983056452,65.44433108026419 241.55147405085108,59.101436650741334 238.57149435697178,56.499706103372205 232.6920008205362,54.41751680863126 229.75742757370858,63.31502997747475 230.73026554448595,64.02664829322066 231.3124303681114,65.74738344803757 234.77439244504575,67.28959945136728 235.37859201711873,69.09627280216785 234.08202208165557,73.59072716131573 234.27625645646353,75.25434425482683 237.3510409486963,77.91604285889093 238.69172050939488,81.11329718711454 240.78389871000715,83.02483060764996 238.14145016793248,86.96820428706621 235.59978196206265,89.51983393882415 232.93450611172523,92.70524528567125 226.4880636822876,93.86801619775656 223.6271445843454,90.85333362815197 221.85458845134391,89.38005288621207 219.12034714784096,87.78903944551973 211.46236149583686,84.3434610406664 207.16228253124555,81.75952694731859 202.5003586438933,78.6128427947441 200.41342978804389,76.49765780330779 192.53106023856364,84.83030025223422 182.03147795144721,91.01802790249951 163.23676143723398,102.32021180641868 155.67369201333722,93.41641181618866 156.8566603286679,90.85817029344503 158.10496279710085,86.41361109810896 160.13178642448545,71.17435785613839 161.78759622938543,56.24759111080209 164.7551291521202,33.132339974942965 166.41878368295372,23.335799025658503 168.72809629334103,13.642622010229843 166.20753276655762,13.024116003166114 163.25662261858588,13.173808277303579 162.40129105084043,12.550968284907754 161.62472333636336,9.109659661192609 149.4930518267782,15.639428118960382 144.14726204423988,18.05413240937969 142.03785522978643,19.241899699600026 140.11840467514963,14.478256706202956 140.01366181124143,11.569643025745677 141.65082300608645,10.610770670391616 141.99778176071192,9.570298446752304 138.40499159756317,11.073314282593515 130.23718526165212,12.734166215127061 125.02972764081211,13.244930898104144 124.74548983031447,11.565968916766224 121.76461320595706,0.4335031389875894 120.759735209681,0.0 116.64944333904894,0.2515045298860059 92.8362424755806,7.802015761741018 84.21710943360397,9.745614964849324 75.26058563284684,12.036010761666603 70.94949748420954,12.438585286298121 57.42301083078948,14.319781881215363 52.03091811492111,15.162216745609726 46.12068097778256,15.690925040048569 39.852371705259294,9.84813446753219 38.0924041239327,8.728160198169462 31.154490394871438,6.287758792227237 25.374914721812583,3.5421164673044814 26.316401960217764,8.239317111306036 24.666754107957384,14.118758026257069 24.333108442346806,19.557291344058513 23.750098280516088,20.965594873264536 19.348564165149643,24.99476794961106 19.06669338091887,25.84794492151525 16.701982074074827,27.86568345001035 15.747088021349242,31.658646399423674 17.344278432996585,36.35800877706038 16.561693449406373,44.06096519281493 17.781590658423518,47.711022859650484 22.6843861997805,55.803557398018256 23.315365421907796,57.493588028087174 24.512082032339354,58.59702940586806 25.78403182444898,63.07572100617051 24.750588898501572,66.5395055740745 20.346998429609556,75.88712842698885 18.14795663390178,79.11846887421314 19.564000321295907,99.25871903493089 20.594872926613505,133.8363171506329 20.005554135067253,145.0723328149893 19.55861179574574,163.40244284572873 25.912725128278733,184.9092968753696 26.799366798372336,188.35087680125554 28.320910333955304,191.49356329678085 26.699529662555594,193.83638948103072 25.02528782431074,195.0131103077075 20.52688576338013,196.87382634564693 18.782969266308957,196.37125473321868 14.13206750956599,199.6993923861191 11.141306942001659,203.0964722575925 12.52013147143162,206.61662767175426 16.410701270893394,210.67718510531222 17.036747635197525,212.9377504619095 19.46393328831836,216.26067308311332 21.3545603203477,221.88633009590654 20.327788314305145,225.32591150327607 17.584256225835063,228.84739794337275 7.016943822333427,237.1669110354233 0.5170324528801292,244.5517576364379 0.0,249.37717783175145 0.7305644300181485,253.87144552113818 3.907887713761431,257.28669976780174 10.65207640199335,266.6292547810359 11.042903999555739,269.57739412406613 9.363390185256252,273.47744294874377 9.307727916255281,276.90415587166325 10.242528661147539,285.67173988529714 11.471722544987102,290.74600350653986 13.59721947934886,297.77750101887193 15.76059582807579,299.39398866791856 16.043416990071567,302.7931264962173 16.844648432417284,303.2360968090719 29.4218543377636,302.5093138973629 34.177610345004915,301.9968937332989 56.009707550844084,300.9431628064407 70.21114050749718,300.42655994259013 93.05390199472536,299.28238501037185 95.33964425440304,310.3846780869852 97.3998248869464,318.91636605263295 100.28348194795926,326.2565331926872 104.41478715477048,336.2958516109965 105.37768426249825,338.1253431460655 110.64644862747468,350.6996936361428 111.8036674096232,354.22865785925586 114.95108041650357,365.2519782599327 121.50306943221413,390.90138896382086 122.50181028089311,394.98737096124097 124.71000681278656,402.89338409560435 132.14692470482498,393.4849847561019 142.34458537077975,379.38177921527466 142.82089032169065,378.8900554546961 177.99378192342152,330.1164014588856 204.77666357502207,341.9909787445457 203.7134635501776,329.5753511187788 226.78716369327685,329.1450720194829 237.06680481612952,330.2160471841408 241.14109348988163,335.02522239218126 243.15818380307664,335.70275409610593 248.21495341526293,336.05368688627203 252.98778346808382,336.8101465684621 253.61644632252728,337.23634765216394 258.16165416844683,337.8949455724288 258.4222425782461,334.6827499974432 259.9402287279664,332.32589677308874 267.40451044749994,328.63534649379994 270.69450583150916,327.7245034939147 272.2462363683388,326.5730322432259 273.325389048123,324.29191472569096 273.6119956135034,321.2371760697839 277.3067335482688,316.75126309903607 280.9088999559165,313.65075644758343 283.409140103359,312.35721156077335 284.7909322069791,310.95090162878193 286.66922382304915,311.8292120562294 290.63535370657246,312.64770584127433 291.3263712556638,313.1346151652801 292.4983875918838,312.29898977775866 293.3820606593168,313.443084682381 294.10617068374006,312.6597502347512 294.8946118752041,313.36769742501184 294.55677733273876,310.61540675626884 295.40769922030586,310.02535402863793 296.5117314496977,312.31556783661495 297.5463043763614,310.28946751811196 298.45426865147886,312.2391479913931 299.28589266010465,309.57407652929766 300.51780944993163,311.44529949379614 301.26833372811166,310.17733261972097 304.028558884184,312.0651829728811 305.12071906535107,310.94816541522846 306.3213843444457,311.7093339018858 308.10221266493505,309.711421717626 310.7652665918975,313.8180573701266 312.8888303458239,313.9390955542834 312.2434924236895,316.3268478159963 312.5376813392219,318.6264977902167 313.5116900017104,318.6777165235048 314.583686341305,317.5373578409327 316.40851907547506,318.6409688458054 317.4077067664771,318.5241634839368 316.1279313641469,301.2055016987798 317.41333537292314,301.05316093232193 319.17468320959574,305.84993179768526 320.95809706291055,305.5869400824491 321.3497412522773,308.03295884471265 322.7502444828081,310.32600839871054 324.5807530872882,311.61751126673374 326.8063280206166,312.4669822302641 328.3968893037692,312.54125847604104 331.1999078478754,307.41515520060955 337.39166314482276,308.3652496929395 339.77188960897814,308.257177968679 340.1450160796733,310.3692467939151 342.84635350741644,310.3738341997176 345.4026948034935,311.5803715794185 346.8374205354604,313.3525628237605 347.98207903949805,315.9608217075815 350.2726397181065,316.24060042248726 353.17982479304305,317.2541885249495 352.07328153201803,320.87464128841174 349.498452549769,324.1126603962101 343.32231276692033,328.39480557218457 343.91515325956874,330.6943187582642 344.74824520025896,331.86659934803754 345.63389192313474,335.0531620521745 347.6922773786945,336.7884907061309 349.1143427903748,336.71540581432896 347.71111340329276,337.69282576245365 348.5604011568393,339.39619539254 349.6637066344161,339.28799759374743 349.9977781121841,337.4799717530171 352.33174104725515,336.83260740899004 351.68924171236307,339.58479242376114 353.2912420381534,339.38674382636293 353.77686575136636,340.2171503177809 353.71621795887444,345.96800464273696 354.0448229966139,347.03613433170545 355.59305374692224,347.05771943461207 357.34742559877,345.1885341096565 358.6237757997717,344.72858118214265 359.40957753880565,347.3238181324907 359.4187503301253,350.6773818678455 359.98713406874816,352.16527182874927 361.90319536738485,353.19101542350575 365.06660528594756,353.1573398605715 367.299994572254,351.5452264333724 370.1741706960127,348.4083300983501 371.1966526398399,348.34129292003 368.6683824494815,351.76332161807056 370.6317607072449,352.35448691881834 370.060737268809,354.11304605296823 369.9621704549037,357.6132596359265 370.6886993214786,361.2346406689242 373.9630405374702,364.90071178397136 374.8761408353639,366.6289080675774 373.6565568263797,367.8906086510091 375.0987582940731,370.23878195225893 376.55606959981304,369.61191360892633 380.33890778957334,376.8222863134558 378.33425849886754,379.9148457125617 376.8516275626171,383.32592806646767 375.98854452834007,384.2303152177758 373.0297757985688,385.32110246504146 369.2153500300546,385.7898587506064 366.5915818868461,385.7444087772741 363.02910354585185,382.77386489936845 361.25157386852953,382.6159544775695 359.1679171669974,387.17406109523347 357.92330287116306,388.6872640135501 353.5530457700125,385.0273440630997 346.4453948203324,380.63217497732853 341.38402245617226,393.7261972963023 338.37643343323396,398.56588989663146 335.0503768211286,402.39081010048386 332.2393136000189,404.94873879367003 331.5876581282469,406.41988880819724 332.3823097844471,407.9577500423617 331.8330599745468,410.1694283738593 329.03854839078804,412.5655250594175 327.18635039721147,413.6638307253153 327.83682634053474,414.51022735636235 330.32375002007706,414.09452498839335 328.6493506307925,415.63841929872956 328.12216817190375,416.7951941037509 329.59058381412495,416.5894990446578 330.81894384448543,415.5249842026924 332.04577818746986,417.19610388798077 330.582276026131,418.9217775671581 330.67280472583485,420.55561691478533 332.4055508616929,422.2950454485318 333.1137270931705,424.3312767170879 330.84025543014565,429.4472054134991 328.5356281286025,430.4636372377814 327.13719769819636,431.62883744626015 328.93315944321137,435.1702090412289 329.02857537024676,436.2514053159073 334.96191690639495,437.0215249157559 342.5261459851417,439.51297891836975 347.11419465739334,439.77099712057736 351.116466311471,440.3931213228127 349.61626572708485,443.902986453072 348.968332423911,446.21029494200343 350.2034859539453,448.0721923679215 355.34079743014314,447.2531364314317 358.18069866278375,447.2653576017783 365.4562554938607,447.9906924942012 367.27511868172047,446.85717876808945 369.75814978241806,448.6421167715209 371.2398956592978,453.2648495919424 373.33402618903324,456.76091393293086 375.0374249287937,456.4491453068719 377.65642796109415,455.0283109804209 385.00209974028184,451.94592556233545 386.2806597943888,450.89741263610705 386.88573230831145,449.2542562727102 387.59549007904207,443.3252370074514 388.91993839152076,443.0726962187515 389.26281296442346,444.5256027362459 390.08080145957234,444.54239584801286 391.0803487260967,443.0006421121462 391.95615110249355,444.55371422293547 392.9329920717097,444.67314842469216 392.7172475285633,447.9410286056023 393.0107425384059,450.88869988035606 394.07702676313085,454.5653227304167 399.9033382747218,455.1245792512373 402.5604230023882,456.92764912924025 405.06449726910574,456.7015488555912 408.0060137313094,455.71834503799556 409.5673772483709,455.57187459368754 413.86013005265437,456.5450881943382 418.15565395545013,455.6365945215942 426.86376397070256,455.93912448491994 434.951761691057,454.7163025106038 440.8999857857287,453.5412525326233 441.7387135422471,455.83891106254845 448.10298642965887,452.939468759713 450.78215576015083,451.10351729544755 453.82486804454015,447.1089204229886 455.0806269768784,443.65937931722976 456.2845146372453,438.88538650349756 456.91566252715853,435.1027436025254 458.2093565511544,436.51416339420405 458.8415922527966,438.07448772784556 460.6632794566634,439.98323110273543 463.7139877116511,441.91060814609136 465.46232014716117,444.38007553718785 466.1393090058097,448.42682628538995 466.0733854539018,450.5553269491968 465.1816189676239,451.8582542982547 467.3390557075593,454.4046229189156 468.22130644508565,457.39670662016897 471.38866483698325,460.42241186062046 474.6928365413904,462.5567979970232 476.3678201874128,463.9771713193614 481.02826527504493,465.2748766415109 483.60819286723176,465.18867928729094 485.0155919739649,465.6526240058415 488.4444946056998,470.4648733169928 489.89792682760833,471.3633962079107 493.1895112631587,471.13544219259495 493.99615576094635,470.71308939308545 493.86983313788545,472.55977074692066 492.4876949594387,476.5899658522776 490.517278491295,477.49952903694816 489.89359695223965,479.8395477009083 487.65780157593616,485.0132601253334 486.5505670368259,486.97108887066634 483.16859066019333,487.640742983743 480.39240666655894,489.35772415820196 478.659043409183,492.2637854958616 476.88176582074516,497.03184002902634 474.2105485242122,505.0650838496871 472.2590357645466,508.27051972248984 463.63376672930053,519.3254251434648 460.6928044933243,523.6395039706242 459.5855374185347,524.6354508977643 457.87311303488747,524.9542417745926 455.92218874708345,527.8458546647691 455.0262300288272,530.6391216027673 456.4081605242505,536.5635508187853 455.9354201764122,537.5099784387793 449.78722149543205,544.2106857207848 446.0617824468969,549.0743285015591 444.52706738993174,553.8284922728265 445.19184331579544,555.8059841810012 454.99550462573103,559.8845065552146 456.84395179980544,560.9443387358772 457.22745908635034,563.0589136731866 456.1269430464712,567.5727796335541 456.40557515029144,568.6751669286641 459.4762474572437,569.7838014149512 458.6457698590805,572.1121258732925 457.4662688199703,571.4825943109122 457.35326925408475,572.4477606449864 456.12770999811795,572.2885343055668 456.944397073001,573.7834475503671 456.6284125185957,575.8838074583183 457.19825257049655,577.3744044549783 460.12901705681435,576.3340502914926 463.03602593109883,574.1774053107015 464.77004140673887,574.2611142997972 465.4012384919219,571.7895991679599 466.0564730734345,571.0734394693795 467.6329199963168,571.3113268094464 469.04124556294295,569.4757541146377 469.8311713399573,569.4751703123572 470.1142143944428,573.3011612321418 469.8242589494956,575.5381302636106 468.9556576969616,577.6108444848925 470.0701836718822,577.8869165615006 470.4325560075174,579.9423965729258 472.7062455033347,583.1900115895744 473.1062805179337,585.2025085500125 472.9034452690217,587.875807579655 472.1611865308763,591.7216285039281 473.96670458686265,592.4302243433463 476.9103236235526,591.7983694716951 476.6803426696088,597.9220128023522 476.1602083537779,599.6464656766018" /><circle cx="71.78891408948593" cy="282.10537839491974" fill="rgb(100%,100%,100%)" r="16" stroke="grey" stroke-width="8" /></svg>