<?xml version="1.0" encoding="utf-8" ?>
<svg baseProfile="full" height="1024" version="1.1" width="1024" xmlns="http://www.w3.org/2000/svg" xmlns:ev="http://www.w3.org/2001/xml-events" xmlns:xlink="http://www.w3.org/1999/xlink"><defs /><polygon fill="black" points="423.91425773059615,0.0 421.20178805560647,1.288280941358039 416.85883371886644,2.5674050565519337 410.66669196630215,5.033581288125106 407.2325052747138,7.331261627508866 403.8366888579847,8.862630441709598 403.78218232634987,11.157219262802982 386.2685977986947,21.842588811207975 381.44972008933973,30.90885857974638 372.82260607108003,38.35957645918836 352.7225171444095,45.56575343965187 344.48508493760636,53.399474059893464 335.13706624696056,59.31867791907143 328.4787936867009,64.89822014224706 326.26148559980163,77.075219362393 318.84314501135765,82.6435604496387 312.097319667167,101.42696748657295 311.4308719844629,111.5574242781106 312.54684569689715,116.92226249797932 311.697496177746,122.24922905234723 290.88352015781965,131.8872068246999 264.92118514644073,153.26978678653984 249.0070065028952,169.45073989096818 243.95656027666104,174.7261816875939 219.61157818078829,192.27985505865547 206.39011986507842,208.85791404046495 192.0296694777972,223.88619893339376 175.70821714054978,219.40345839816223 169.58604147720723,220.0741789617358 167.27698708317502,222.68314959939153 160.02128051868888,225.74464311894474 146.11881874165172,234.52642742121031 138.5556031525161,253.86901721172012 133.49502486585024,261.0331635857565 130.01598567658036,264.02208059904024 123.50045956113419,266.57435973123006 118.569837986274,265.34089818938617 109.51531641827133,259.8205316642642 90.20369161814801,253.81772575912169 82.4382404500745,256.33987980762595 75.57847932586697,260.35514614400586 67.9299473839122,261.751804606272 51.986614083155814,257.2819560511588 48.87577082956346,258.93693910460036 45.84659095757035,262.18556480790164 35.5992234291129,281.8913372549507 32.44517554282942,285.22250019569776 26.238376162069514,290.85329376527 17.413670132992642,294.79426074660876 14.879014012136233,296.8005397852918 7.404663724248224,301.33979068193196 2.929992982614413,305.50246049199086 2.1836023816383223,308.12475311399396 4.287347555963062,311.41424667861133 5.2383362137621905,315.60241463624186 4.139612109346774,319.35339992095885 1.1490033139640272,323.1232947369007 0.42102301114154755,326.89051279827993 1.589300413106624,332.497947458965 1.6286424043023484,339.9874759614072 0.5282631403826903,344.88189400667636 3.095767508553593,344.21376573313 4.434600470847837,345.8348352724754 0.9331982080473916,353.5644823857391 0.0,357.85635987827106 0.21710813159880787,363.38174053115915 3.106213795687113,369.26990497896486 18.714876422484075,382.2670489982679 28.476190675874456,386.798645145436 34.40148794432454,391.3588096951504 38.611235224693594,393.9123515583723 43.66143895690764,394.29007515886633 54.246268623506914,390.33799107616585 60.35510676560443,390.02847090458204 68.69754843031579,394.3276065102235 71.69904662117065,398.55895843503095 76.23230911436825,401.66072373900886 81.19240946014273,402.4875765260997 90.75182054722657,399.5657118503925 95.35148186990345,396.95049486942287 101.8507604106378,395.51169730456036 106.04091690896819,395.57029499475186 109.45846523123795,397.1383754291736 109.40175817308786,402.4752395592211 107.82328278818821,406.6515671681459 102.80828860512936,411.9197154485332 98.56070512634153,417.20951005131315 93.11921436277993,425.8956200333515 92.28521171782383,431.9879880288738 94.14338209020707,436.5888640008584 98.28951752077462,440.8409265375044 103.23727696377789,440.9099266095799 108.97781881126254,439.069509962226 120.0484838300151,437.3148776580251 125.76650134198017,437.7660285803363 131.0556357788851,441.27755862873585 134.82044742847555,445.5211528065847 137.4130816120112,452.0377215591973 137.6841809202197,461.5654933295207 135.69207587248326,469.5531925626134 135.98369265164277,477.1799145464752 137.73964124101425,490.5497882799117 141.8108394279069,501.27631652079197 143.02707754062928,505.75380648847727 141.75109973435738,508.4774040216314 136.1897578619057,514.4714743115253 129.68412162212596,524.4751757565309 123.87942050509685,535.7210341842753 121.75096320264147,545.0947109516862 117.85949313790879,554.9898640135235 117.47243679336697,566.4253578870374 119.45345742301639,577.3844573787917 123.08510413938815,579.0333005322641 128.73556629510543,582.7708651655582 134.36198410126204,584.2548405317771 140.335168123546,581.2225550123491 144.06370501555455,579.7074234517279 153.40660340983678,575.1849312199704 168.34789396186753,569.1372264706265 173.95400973229226,567.2427979956435 182.93609152586,565.342312147256 191.90532437788127,561.9267740542218 193.40336631401038,561.920020818796 198.77443704540931,568.4195627895526 203.38170748377738,576.8017150086621 202.44518590931875,579.9431077541572 194.48036884627314,587.4941744003605 188.59916375365793,591.6943384317873 182.51931508242362,595.3338829867714 176.61946066860153,596.8739708463861 173.57638745380444,598.104346966023 171.20543874868324,600.0246576373438 162.77352629323903,609.4632843828429 161.74862954753084,613.8553499725758 162.23636016559664,615.7641172133727 164.5408738232238,620.3343725629613 166.16612521822088,622.5285730204242 167.4457775747885,626.0364788291471 167.7478681321709,632.799135373333 166.9194160102281,639.26962162322 164.5385535662683,648.0074640830913 159.8873431749255,653.6709167420522 154.83907962735188,661.9883276963818 149.45106553826204,667.2599978276296 144.44039894775116,671.3889053044529 139.43809020193365,675.1297371771657 135.18261078888122,680.418590362558 133.2115876149157,687.2506363172879 134.26810873330854,694.1316419690088 137.58649175501438,703.7029372742295 139.42113341967482,710.2176666762875 139.7246399061241,716.6989782122204 138.91366580838346,721.6543878650645 135.0723691552268,724.2673047612438 131.21335136178834,728.0270941123089 126.23800061544917,730.6319779773767 118.17298993042881,735.4816354581053 113.57055726281554,737.702638062614 109.34403563504878,740.3289611790037 104.32715013210044,746.3538988367254 103.13323269218276,750.9153089775357 101.48958408432614,761.1986553827053 102.16569345783235,768.4466407552309 102.09815257419429,775.6908077243054 101.61266261389736,783.7000004303217 100.75373024508099,791.7014636406254 99.55103757734152,797.7808266435676 98.70377110129535,805.0148541437709 99.02357882993498,810.3625065455117 100.0862168073184,817.2385784538292 100.38468515506567,824.4821866470098 101.06669513325204,831.7417296605693 100.12649597203722,847.3751986551028 96.6205616174551,854.1976817315676 94.63987274675742,860.6479328884902 90.38894666946942,864.0244605010041 86.53330807755364,868.5551528825514 83.44186988206211,872.70830760207 83.26942551185263,896.0379255434152 84.52958762363453,899.4501032832035 86.84798550807403,902.338634966538 90.57082332490101,902.7608719543 95.84796352579129,902.6541345056447 100.77115275101563,901.2910024782152 105.49723920837212,898.9544618714588 110.37188205618291,895.8472599369676 112.3143937512631,893.8877292756447 119.34128825517186,884.8505574570835 125.47187841411396,879.6689936142468 132.79489667584537,875.519643614313 141.7696612682187,870.1737629415635 144.64536473674426,869.0259586503037 150.25864443877063,868.8621147945577 163.3968252029415,872.1963136653268 168.54279876557,873.7396021909938 171.0437195816302,876.778066658244 174.09076914754502,884.1063429021538 174.8099209005861,887.800096496597 177.52816207293526,888.1397383394782 185.81420928118067,886.3257653241126 191.18246469973556,886.8921950284835 199.31102640331002,889.2619277440976 203.75908041535305,888.6081649122906 206.76625185890182,887.3645396004956 214.6479714395249,884.8661340701915 223.5453631225598,883.0732272843436 229.91423103351184,880.5927667673216 239.94976324668585,875.3722440855945 242.4927577826187,882.46871025636 245.5314878879864,882.024556374042 247.28273979406384,884.9372754845612 247.927676646808,888.2221599211491 252.18002614269318,891.4024590194907 253.2276812502737,893.7389671954436 255.23295610470686,893.1733339692986 257.60247157630647,895.0219216035301 257.7091155240588,896.9797449523164 260.42205219920106,897.3180197794942 259.5173340910631,899.6053996748128 261.29513893316135,899.0922435993033 261.97120254412016,901.9556171897475 263.8240373117173,900.6526209829723 264.4127641898103,902.2453573586633 268.183657150727,903.1871296571885 271.07910310969027,905.3589997728648 272.3527584435338,909.9381143756272 267.73484393331273,912.2169487911187 268.1456750633574,913.9565365277593 271.2860615261699,915.3449505788018 272.1635207326443,913.9100156492368 276.07385961036965,914.4288885212446 282.4419330251421,920.1487404396054 286.49890911658576,922.3384260244679 292.1726469566015,924.1179294772762 295.4801786994282,925.4939290209579 302.9224136047474,931.4999832896053 307.4743625719138,933.8880430997656 312.06293920799607,934.9006966843816 318.96590373615834,934.9203396739675 321.259086452191,933.2319308990733 322.0398539175529,931.1304025627842 321.9559217596875,927.6743027698076 320.1505984500248,920.8531608084882 320.06085930977804,917.2656346711602 323.78864649128616,918.5944289435879 326.5203488138445,917.9476521186037 328.50535365633806,919.2571847377402 330.62048018328244,924.2885621756401 329.6550411525872,926.9149933233871 326.9417304669066,928.1591432511188 328.73191398688937,929.6241343776813 330.454541433432,935.5739986648017 332.33629893045793,938.1264216424843 335.2905692406434,940.5527866165894 339.7780701797179,942.9706706383163 341.7327082437852,947.1749363744027 343.6790240264089,949.6132736256072 346.06421680791874,954.1402088948619 343.47438346362816,958.0895722273765 341.21330431922337,963.4114518916281 339.90566228430407,967.6033185527814 338.85810100748307,972.9089066086528 338.07377556682496,983.1597840822833 336.78701901447755,994.2372447976171 336.349577457072,999.7635103909976 336.24712787171813,1007.7691358806753 338.6509476516904,1014.278338854496 339.3221017071727,1020.1508334122724 340.20715447945776,1023.2710694535683 347.83185119302067,1024.0 352.83728449330664,1022.8926834643768 360.13704121399087,1019.5303438246395 363.2289145442839,1017.2657629612344 369.0342319654054,1011.2113619597845 372.5350390930652,1007.0524165185341 376.0574993065748,1000.5961339174855 379.5576963089731,994.9090195430155 383.47678127965895,987.6870047474354 388.5962015980483,975.9060299299766 392.53352269137133,965.2679669214336 393.7533786050435,960.3193347876448 396.10921940359384,954.6159347983289 397.3194438231487,948.9067035477841 399.32647251177485,941.6695543795929 401.6833643964939,935.9776766555599 407.596892655638,920.7737757182996 410.3637580280639,912.7895802496437 413.1198627262522,905.5661344268999 415.89279220786614,897.2022183351013 420.6772253550786,881.2261131537091 423.0534145637779,874.3767158252123 426.5871218432862,866.4057849129349 429.7419752657257,858.0400440097123 431.3987152336949,846.9982652477895 435.8744898103001,823.0122829652726 438.6981317486693,810.4508172075875 440.0673079872957,791.0098639003348 444.51157166849896,770.0765561053647 448.5100872122515,753.7229189099941 453.80456838205697,727.0771752015069 454.66453962265194,717.9376824955627 456.0100651864446,713.3528586569307 459.46372984189213,674.9068404048523 465.9333399167398,643.6508880573406 470.7497931874172,625.6493612692241 472.05449967088674,623.626630283039 473.97502880885,615.8613814484279 475.953005737406,611.6592436918955 478.11783176819034,605.7451048529499 479.3812491958455,601.0078751253216 481.4974068417584,582.5348938318459 486.24874464106983,559.8642301560826 494.3840677317779,538.1443545873442 497.0766656066397,536.0515156697513 508.6435517001879,527.9387920771792 516.1118756457497,521.7106925094554 524.3667568855394,517.0164989918853 529.5023055163875,512.1504810717119 535.2782881325152,507.6535668839215 540.6445720607876,503.91767384950765 551.415412969569,494.91329179520994 558.466990389776,487.76971038162867 560.9212177728597,483.2251929488348 567.2091464690748,472.50084527822673 567.596469140879,465.335847769334 573.1291223506348,435.3345905799382 582.8116026069317,408.65694184663687 598.5205575031313,357.84521516310986 593.9110296848919,357.3580137177794 589.4455831756053,358.2470547853728 578.4268892669476,355.7718377971298 570.0082777875967,351.16447767823695 556.7149641337551,344.15096338981994 555.1272793090537,342.3330653678364 553.7348913657872,338.98932091984705 552.153002597282,337.48760581162287 545.4698269631148,333.6328366266804 544.2019863147508,331.49422220507427 544.9543815562915,323.0424803693686 543.8891450224224,319.9106432295531 544.4293796763473,313.42441589734506 545.9482873078174,311.1349121891419 549.7348534237201,307.5178755763443 551.7093956724519,304.3748047203205 552.8403498021802,300.83365008360863 552.8361935410724,298.7495214903229 551.5877878952639,295.41546193577824 546.9152948424081,293.6909481687419 540.1463671218576,292.2809409018737 537.9581328100982,291.06362492207165 533.3245079575344,290.41023933064207 523.0411773890789,287.4636473718714 520.2831705753475,284.302725810066 518.5862288705306,283.1601438570634 513.2196015712201,281.8317848709885 509.4261156303194,279.92132801004686 505.5990945817609,274.30235619113057 492.07001215163837,268.59855950269775 476.96552242946893,263.2089079745116 471.05110976603487,260.1916902367665 469.1417867446606,258.285626819483 464.63570652959305,251.72573298356303 459.72704561081935,245.845133796215 452.364535756242,239.47514858490638 448.2592342752609,238.343021572849 441.8412661857264,239.6526512141388 431.59385768279174,239.52793010011385 428.2967835596607,238.51809068651482 420.9811447473825,231.90304064488282 416.78191622277706,225.2463930241073 412.8543211911829,221.1713593537919 403.5596933861845,215.78417577630853 400.9872175576929,215.2140696105737 397.2426642887033,213.33198748467703 395.7925769222031,210.68519111215005 396.54430576832624,205.33562409440992 398.8993563517763,199.59795492216995 401.5575251364576,196.07202625723744 403.8365091920308,191.8666788855444 404.20561295279003,189.85114139035738 403.22558195871466,181.38059332841556 402.9946059072114,174.89978581946048 403.2668917504967,169.94573407915027 406.3812428888291,163.83206815890378 411.6129035634358,156.84579998461015 417.50796424252735,151.28912128628758 418.5490246448407,149.46804773647455 419.1146380449268,146.41953299226373 418.8988713376739,143.187886786386 417.5581488765869,139.7541841188057 413.3172529749812,133.8687627408367 412.1688364113553,129.58693431109361 413.66473946554686,127.28068342427275 415.9692957287793,127.08819653369892 422.3649117985868,125.7214503017077 426.2685549486351,125.42678494516417 428.4749316759629,124.55119509115207 431.40649170070816,121.48223567469358 432.5415132960687,118.72263856426036 433.76090154530635,114.03261122160995 434.4045629994287,109.25842294124061 433.99498112967404,103.44738698414449 431.9030079901743,98.74001348684476 431.0267641820856,94.68951643808725 432.1036151088828,89.2988311166356 432.34178286349436,85.97976962715802 431.36153223533853,76.59537900360385 431.75181501088167,74.40799107479666 434.9962860670412,68.95940290094393 438.0641360055869,68.19571284016615 445.03635480536155,68.18714158184969 447.13930637781766,67.28261115391331 448.0882245317282,65.32097772203917 447.38268726902993,60.23956929424753 444.0947205007297,56.3652103521581 439.33362735521166,55.028465955148704 432.76518891648783,51.54413681798542 430.8226698051885,51.01813310603745 426.6900045702687,46.47011411407027 425.7010775783246,41.567060792396546 427.30882106513116,33.263054345315595 428.3671693023989,26.356076043969097 429.2286955562095,24.548823629022877 435.83517659869904,19.9774279564391 437.27086981210766,15.980327320210677 435.67843156156897,10.68891997988328 433.8710482857364,8.07040435630654 431.03292253824674,7.9738059212185135 428.1424376491371,7.0022124992844965 426.16214382129436,4.815320790871169 423.91425773059615,0.0" /><circle cx="399.7539162155077" cy="568.7323609881614" fill="rgb(100%,100%,100%)" r="16" stroke="grey" stroke-width="8" /></svg>