<?xml version="1.0" encoding="utf-8" ?>
<svg baseProfile="full" height="1024" version="1.1" width="1024" xmlns="http://www.w3.org/2000/svg" xmlns:ev="http://www.w3.org/2001/xml-events" xmlns:xlink="http://www.w3.org/1999/xlink"><defs /><polygon fill="black" points="361.35806782853234,850.5265983902444 367.1734077787163,838.1753495526331 372.2393804501817,831.3599171019098 377.95737905990876,825.913526081902 379.613172895278,822.6361711178814 380.5826449543273,814.5988917430535 384.25414189422014,793.941507120462 387.513111851222,777.9001148193408 388.0020241500243,773.8089394610744 390.5797555295444,761.1270989456032 391.651754248167,754.574395135364 393.0661499333359,750.835022493112 394.0434293753862,743.4146056542971 395.07984930285517,741.1833120219121 396.8464954632389,732.0330949320401 395.6459472559747,719.1486677749111 395.72984588379927,705.9503461885579 396.1772627186437,702.8061521967492 396.28639676845205,690.2974601421529 397.13026716325146,686.2863685399107 397.3469626069932,673.3352645163163 399.8880297088198,652.7472009291793 401.42277847158243,645.4249753874325 401.973698745509,639.7137185579946 405.08522747292466,625.118039299957 406.65175792362237,605.8789463406599 407.47962520201526,598.0498280169152 409.0787701367259,589.5792252592842 410.15783935584517,585.8647225260704 413.9921546008245,577.3072436746527 418.80733558408747,568.848063441035 418.8385193408529,566.7600434181253 422.78431652722963,559.4977064957768 426.3352319273106,551.1308602509259 436.4549086006521,533.8904367541952 439.50150405112566,526.8449266595569 443.2907857922628,521.3305667474046 445.03938307486936,517.8603866466916 449.4437590203085,511.2715378127185 450.0106263369039,507.8623755300117 448.8930861107415,503.5417820631826 449.7417017428172,494.225166097371 451.18108961370973,490.7116317111995 453.0975880106709,483.501812971576 458.0087404781559,473.7732462592097 469.5476602040218,457.319993252308 472.6874449997733,453.39153748146884 482.10697953048015,438.6146623080135 484.4608079190774,433.5496897276165 489.6840689212299,419.3689955007061 492.11662391559986,416.07458019329863 503.34483451103677,405.3664246003933 507.19086020992125,402.62980709369253 511.93152887838636,400.42182887392335 520.6120758950692,397.53403484931323 528.1443480930049,393.4739936593678 537.1208039619426,385.27519383730953 553.2795828359191,367.8400052263481 563.6278729013972,358.12178116383814 569.4106608957858,351.3110684132414 574.264276890114,341.5928345215551 575.3532187755443,337.378154207493 579.0449554718846,328.66479396044883 579.0306883162011,322.66176894786395 578.0597544051894,308.7963321942159 585.5821649784323,276.6075230468899 597.8428561487916,228.55502672439206 605.2554457780012,213.40600136717353 609.122683805424,203.62974627848735 616.9269914312547,194.37424025546557 629.2986784175366,175.24392647867342 633.3871903206722,167.5578593905817 642.7527316764196,148.18538146694436 645.879152531978,143.37677061692796 651.6434104021837,130.86435394525608 654.2830168577095,117.62533125276593 657.0466214985723,112.81326781092912 658.8477884894022,107.1577166477523 661.8568755507869,100.77562636505854 667.0103719830955,76.62245328203676 665.9277650553834,50.859195801857254 664.7306355386934,36.673315421815005 657.6359192483806,6.778188729859039 656.2067905851488,0.0 652.2319053885772,4.849129709273711 644.1905923401896,19.75111241374998 637.2233879286684,28.41416808134545 632.2985818730247,33.33889357811938 626.0491258213615,35.14283406042409 623.7688120403482,36.935604829228964 622.0944609883879,40.79416361205915 619.8033120600946,47.892289791585654 615.2425370572233,57.51293934693945 611.9989780794457,56.67206774869396 608.3984007783454,54.501435108669966 605.7606435952217,60.64075628958801 604.4370750023891,62.32150820489528 600.2342667296188,64.84184770528145 593.0319732076058,60.621287261346424 592.1935258718975,57.97270280864723 593.634185086818,55.5633891188711 597.2371174743112,51.84008284781203 596.0327741403977,49.554915040493825 593.9928335291994,48.830101702220986 589.4333608057455,44.36838116822935 586.4258647977026,43.755309015000535 579.9434792109678,47.59633026423512 577.6478618076758,46.85691432148565 574.2451086707454,27.64655409530019 573.550120065012,17.407898056580052 571.8575304043223,10.820381430459861 571.853258440137,4.176359703961907 567.201096816521,5.043182555838484 569.9736723895467,5.295360255837409 571.3423139271226,6.715399352945269 571.4255726158316,11.779808419923143 570.7676686690659,19.304464425000333 569.3293093168476,21.096900071691152 569.6153111820323,24.272445812665183 572.3219896879697,24.741678373185323 574.4601656056922,34.55059117447877 570.3617010872055,35.07601377009257 570.8215120868276,39.40623042225843 565.0075146609246,38.3550667498198 566.3308315165489,40.43988852203654 565.2950919209951,45.46541130070557 564.140669290125,46.1639592741725 564.0757683298207,52.97260926869444 563.1085246979545,54.53568846299618 566.0709917011015,54.285746225264916 568.9848255852827,52.05180464838543 571.1097925813702,45.70623457871079 571.9788091769285,55.58370167837563 570.3008532233824,63.497764629181574 561.7821950442924,74.74926325355818 561.3756232615759,76.0193516193658 556.767372813888,75.55207084310575 552.2129270849069,69.82812591629965 559.9385788280892,61.633215108239824 553.7752078173038,62.90074366048191 547.9399749182732,61.06703599624507 537.5671432619058,61.79814813819712 533.1360991235775,61.76770992809327 532.7471431811435,64.52558516873626 534.525618449885,69.9046214180006 534.0734014948715,76.66118390102565 534.8803451211214,78.1162550681928 533.3209439116337,83.5962816800727 535.3931266788142,85.04333942103847 534.4397351381225,88.47712828406634 530.9830846006018,87.98030824795171 529.4479516176476,90.18694009135436 525.6033356320197,90.85952836211459 524.6483213099856,92.97496666895574 524.2643856248874,97.78897171402355 521.4826345030078,97.68963022001321 516.96596584136,92.86066935856604 511.87888308037486,90.07014761913331 510.33702334672967,97.7474669425228 509.73415997187834,104.97425093209324 510.54875817819294,107.10674259155087 518.3996492140838,119.6359021976956 521.3083251373628,123.17941874339363 538.6576575294631,140.06081564558508 539.2892149679184,141.6593237215758 549.5964846291803,152.08270638692215 552.8261424470115,155.93544554094296 550.76143978457,156.26646892288693 543.9880866437542,155.38733857429054 538.3767758570225,153.79355989037197 533.7648868084414,151.76582557193535 522.8220981487495,155.34956054765325 517.4922905545568,159.96275113879256 511.4484036037532,163.4200025656245 507.2779161781818,164.2707280079701 503.38611137658233,166.44242161487398 499.9863753869846,165.87738910274993 499.06343603111225,174.20166709556008 494.9205632335565,189.4411304058964 488.31138908826495,204.94289146558083 480.76402838801346,219.2663020663956 472.7318862130693,233.30669906808225 455.0564426763409,262.38326591508053 452.29485839205466,268.83901389548896 451.83433254276645,277.39752320729406 436.966005612857,283.1420351689811 410.0370182276666,291.3876714735608 370.8753603710477,300.71135755510215 337.8175115134178,310.69756652054355 313.6267736802045,319.58155551425796 308.2508663924407,316.71319089704025 302.2916602035824,319.83787740313585 282.9515321145412,319.815031048063 264.77137708331526,313.44528529940874 262.0130801899744,308.82106177145056 262.2851161795625,297.85782701895175 260.2784755840409,295.5433224439521 256.20787476011986,284.7090194590286 250.2627311177994,285.7689260257323 251.72294050778882,293.8632736282814 234.25590128746154,293.3251656944841 232.78964327462685,284.46870107774316 227.9617917205112,284.06018089005636 222.85250966949044,287.15220029269346 219.97030158928536,288.04974500191474 207.8411152148756,289.85556487035876 198.8280370560885,296.3217004795026 208.8307866946717,310.02000366699315 211.86788379735665,313.07513881235866 215.4724543844627,315.5878074754323 211.40185055128572,328.2333268334613 212.21355253632706,336.4017541588074 208.53547252402635,341.66937287366954 206.51317065076492,352.56210544604005 224.0650138424321,360.6412688371097 228.1636709774987,368.06135325180037 229.85537707312804,369.5503041065581 234.69881737325562,371.3054806416027 235.88841736295117,373.2085347170515 234.72669253742578,380.0140740523742 228.29226100247305,389.43432531252233 223.73416958417224,395.1768167390487 217.82357641431526,403.7637413812862 212.42578022747145,407.7880518896243 199.30747723974062,416.16721884458275 188.85327478124773,422.43285998892077 179.7649209829192,425.24525265073123 226.62571669836223,450.1293453271687 217.32531408329845,470.38115075055566 201.491665966372,473.20107025466166 190.17467469948582,479.8690938047323 175.38092404854206,485.5975899203952 162.9082892429471,485.6652005360438 152.91559895417103,485.34312449565243 143.6671733694295,485.62529575169856 128.9996886435009,491.43820370455774 69.90708523004616,525.9207565622393 37.60452410415642,544.3753569008361 37.75957750473462,547.5015735456117 39.98041154392547,563.0433139817594 15.916417565279163,585.2816568802166 17.68347807857327,592.6826953769212 18.730816549973305,607.7845561479241 25.68826385000051,642.503542614237 39.98347228687473,676.0913986696436 52.814074309438965,732.7603289109798 70.96588199317684,749.9710648603971 79.18710612720784,781.670315026446 58.63428875143651,781.8511521200367 56.296201621665254,782.7857863136265 54.7858349984187,785.8861544973633 57.445118794958375,793.5705569093609 59.94724684233356,796.9636045611984 60.94598620046811,802.4693479329403 60.46582874397501,808.4512158237313 55.080354872054585,817.7271256106806 55.45141906185874,823.0004221481821 53.30264698173386,825.8601544520621 49.278602603907004,826.2889691223411 43.544088477590776,828.8644787140512 39.490814213087326,831.6917160879393 29.567429992668853,831.1138710716425 26.352673441955933,834.4216689472577 26.382600456385955,851.8991616024125 23.56235681525477,858.5775916413966 11.635562049086476,866.1177742046383 8.396626146627373,872.2997557999923 8.56034303939856,876.6113458460165 5.982611593005983,880.8974839479074 2.3825260784912934,881.5804053570452 0.0,886.5781824170967 3.120744951747715,891.397348679355 9.641880229361826,894.5839467506621 13.401614851215985,898.9381934539143 13.887948405094733,912.3445834277416 15.139516073292963,914.5109122409896 19.365890216073126,914.556250757406 23.659911307832367,908.6193277081234 26.61359369098295,909.1266934961819 29.345374596896317,911.0709567034837 30.976791975344725,918.0147494720899 35.02919986844494,919.013566575911 38.544366952458816,922.3046351401001 38.44821881397094,931.3102584772919 40.12266972163328,933.2431528097986 42.48645030971119,933.6513764940635 44.87570681779935,932.338356304646 44.947263627757394,925.6264691228008 46.65541184425779,923.7296568812361 52.071112192282115,923.7873414707093 53.74447483604087,925.1557433573705 53.62227139339408,936.6405213119347 55.52345212929266,938.3580558166713 95.1787848206964,931.4001379988646 145.28602498942928,933.1390009023553 191.12361324707737,943.8545935183841 199.958432845428,947.3442536695753 203.68864433939729,965.1819326267419 217.22762457304995,1024.0 280.6248302979448,1023.8628800030092 321.04827072052024,1016.9722407240394 337.85727860902097,977.5226867953111 338.0474173378113,977.3834804611271 352.12931987024456,943.6632001957411 348.41024248347935,933.7772815890006 347.1323992365531,929.0719074109229 345.8108844836247,921.2457160338058 344.35688479405286,915.64358212789 341.6691378903828,901.2888546648072 344.49601847209703,893.1008343233582 345.6832958296494,885.0778844961835 349.10945782380844,873.5415988108383 358.23758695645046,859.2963673878705 361.35806782853234,850.5265983902444" /><circle cx="541.5660923890816" cy="186.0228047548544" fill="rgb(100%,100%,100%)" r="16" stroke="grey" stroke-width="8" /></svg>