<?xml version="1.0" encoding="utf-8" ?>
<svg baseProfile="full" height="1024" version="1.1" width="1024" xmlns="http://www.w3.org/2000/svg" xmlns:ev="http://www.w3.org/2001/xml-events" xmlns:xlink="http://www.w3.org/1999/xlink"><defs /><polygon fill="black" points="637.9470549874087,61.54229919590273 629.652878345941,63.96700580885147 625.8694006092036,66.33382846118957 621.3509314873809,68.045525584335 614.6084261089608,71.03742327149746 607.3825151315862,78.09433107451002 601.654203129913,81.27320038818368 591.174746702079,82.01114911834122 586.2986377857114,79.75180553222629 585.1247160133986,74.28850937654931 585.7122049378528,68.85137108317201 582.6259514747876,59.770985114899304 581.1955192247242,52.180489043588295 579.094682619111,49.38088048764291 574.785884255818,47.12504033019809 569.8425137420351,42.751691064571105 566.6329336743437,39.488472685238094 561.9500885555007,37.78331559827018 558.6363577283494,35.62288841396605 554.624937037857,30.884009226941316 550.0266922101124,29.465597054022396 543.6011309721868,25.15634581501274 539.3944334754385,19.10839645986141 541.159520714074,16.356486850241254 541.2742087601307,13.127425078134024 537.1501222231772,9.942040801204826 529.9062982362211,2.7778748238052913 524.3020868847384,0.7811626004354366 518.2265642918067,0.0 512.1391299447322,0.32033766233087135 513.329396349988,3.371355276719669 513.1007979470343,9.758599529182902 506.87884598126504,12.317134638160837 505.16487216261277,13.852835388583117 503.62307331819613,16.42175483461176 503.11149587804647,19.85365320457481 503.28494349718727,22.942205245181526 502.0836378741134,29.795558736992234 502.366165169655,32.44323760769896 501.4526942637713,33.68760574321777 496.6687706494876,48.34551664617754 494.63279158067644,52.210466420921534 490.46454800494206,55.4233518223092 487.21838960663035,59.06867310601103 485.16571047794054,63.03653627826998 479.0587281794997,65.63656133590473 470.8001897812781,64.75073291483909 462.71390666864903,70.28575898527617 456.97419777474556,72.27465141829475 454.36114356117355,76.33143736899615 450.10746809065273,77.6922955761537 447.0731631313116,75.36686230440228 443.01812956345447,73.87583800276673 437.10852073619054,74.02224414806847 432.57546036869155,75.01414378685365 423.1338258835126,79.77438084514881 417.8357643042125,83.16392320864009 411.23976800422696,88.59273079820116 405.48326590928554,95.30271057278321 402.77469094083625,99.63538394275929 402.8472352050182,103.78826360676112 404.7644185639201,107.3041819886106 410.83960552895064,113.6235260783867 413.2055720571016,119.08568456042201 414.1960207471283,123.14952797031276 413.89640277444414,127.31026790904377 411.0144250165154,132.09323377866826 407.30440098794384,134.57039708200898 402.7350872703081,141.19744223921384 400.7766534518656,144.60271361540333 397.9871498672463,146.3496715758963 394.3771766100918,147.53847289673809 386.89187762864873,148.15561691184382 379.8038824979251,142.31209378779056 374.3329619248199,142.6633062365396 370.9065987082606,144.49687627158426 367.75440604907493,145.40074995858538 361.941584734011,144.27764368066812 353.53706212676514,141.01329026655924 347.8714044789559,141.4642058045265 340.5513536424482,143.19659320516485 328.6990950755141,146.93934255429053 325.71769065732127,148.1091834894512 315.0613150913804,148.96443508981918 312.56004566340204,150.30092262251935 302.2083222517946,158.31533192119696 300.8607049949914,160.1491694976014 298.3678232599436,160.15663161027305 295.1852392666967,156.6617209085572 290.12280513518857,151.88721018692354 285.2358408877312,144.7617830772075 282.3826637616704,142.33316517305786 278.23204829032943,139.73303843353403 273.1892853023244,132.88184832773925 264.5401920480412,124.99071997594069 259.5620107479532,122.01664824857528 253.20953861852217,117.644552219145 252.60212184306175,109.51146484058665 249.11543059957975,106.80165464074696 242.74004254299308,106.31588331123487 237.87104342674962,99.36477745691434 234.562121032329,98.0570933994328 230.41279317376285,97.01993238170269 221.48719132285657,90.67949648304614 217.4325367590088,90.58490869505817 210.62896835775777,86.6483906388903 206.0261086029617,83.48334748869911 200.75227985107432,86.22262738136567 195.1926570280438,91.1797434064299 191.8896361065402,91.37420323023059 188.97034461959495,89.9150020230793 186.2792298392025,89.30602478325784 180.87878890360307,91.10327705180441 175.78643998263735,94.395470876579 172.61310095399347,103.95724197255231 172.3178407973555,109.13097215026676 173.38052913091252,115.69182979811262 179.8788447744436,125.34620322606997 181.33921956770195,129.23063585081127 180.46828373020756,135.69918716361224 178.7915802678378,139.28917991654794 179.95328509500763,146.3241459425319 183.43239437800446,150.49781227626534 184.77158302541895,157.70615968548657 186.88281254777144,160.6746805256554 191.64686751376985,164.3050029446947 196.2701003623319,165.81616236395053 199.93155216084713,167.96581050331747 202.78469524909923,170.29422638528376 205.6060551629716,178.25856601585065 208.53794246619327,181.7761127100439 214.97219061349577,187.00065052203604 214.90567277560808,187.71545033052598 221.23463777538336,191.170499556021 222.09581178237792,192.89421906850214 221.23442203297466,195.19101653885627 219.21951887984127,196.9189219594018 215.4758359981944,197.78620206411074 212.8868064925588,199.51068010839595 210.32717935260666,202.63668011579193 209.69787741492357,206.35711602844958 209.76511692665656,212.17888924255055 212.32630466075344,216.71701498832897 216.6320272056812,220.71280292949325 218.5693921925656,223.12900882504834 219.2966583888062,226.4578999564386 219.01845401150632,236.62835218870146 218.68807530949104,240.07510403414256 219.51333878958178,242.52507372709056 224.2585522332924,241.87773362429425 227.7029410409315,243.0139421332966 230.1556270578758,245.14627164129683 231.30377035437226,246.95373475422434 232.93161980146516,246.28818977535832 235.2265247159469,240.5589655519475 236.71155587895527,239.24825975981685 238.50754050276225,239.0845825517796 238.67089449141505,241.7046349849943 234.57840881890812,246.6149762564238 237.36165261332422,250.54994819613262 238.98785727965623,251.69484854724874 244.07507197198746,253.65840361282687 249.64100918895076,253.81241211861595 252.43706770468617,254.26795843373725 255.21239982546456,255.57383088526126 259.6441293158895,259.66108281427717 260.4617567122087,263.58626705551785 261.76995159062386,267.18559421330133 261.61157687317024,269.3141381229941 260.1264852901947,270.62665086844174 257.5052674411879,270.7536959047203 253.25126346629492,272.3985102350997 250.30107028557464,274.5322248489298 249.6466789915799,278.9500754572648 243.41452397715182,283.8581599508807 241.9423423249079,285.66189052480513 242.2732089638665,288.93846238036747 243.580512813816,291.39265492579807 241.94138566826496,292.7041530589727 242.23779903532386,293.8833104755687 246.79765255374107,294.6759428828693 252.88353769323396,297.7514671451253 255.7353235566394,300.7973609816079 263.8366282216297,305.10156669206754 259.5778445530423,307.4729663683603 249.86603668521062,308.90184614528823 246.35049233241836,309.0768489103965 238.79453164652813,307.0993279824655 231.85976975525307,308.3594860023751 229.35906243747348,310.3827156628839 225.3380402018224,319.9516223578304 224.20548161064264,323.65144381789 228.22569257541446,331.60928390451284 225.50502855439453,338.2492587385548 222.00599955971924,342.23176041068655 212.50664672205855,343.9273740591391 210.12931429188077,346.31994682748234 209.59247313829633,350.28894934069797 210.91876400308803,353.47153391488155 213.5698727984643,356.3847940795157 216.87129901189886,363.7458911933801 215.8487028957574,367.1805247312118 213.69601262509295,372.0630797726832 209.90352356194632,375.462172226234 205.36830628194338,376.8272659552306 197.9775741329167,378.15604666726483 192.24182089277582,382.75135740379346 189.66297852231315,391.07332326059907 192.02761528284327,395.10142457069287 193.70897874027796,402.77220195564655 195.37842770030983,406.1115486020301 194.36439244422837,410.448147537223 193.03893227293923,413.4524035514022 191.03908258844075,416.12404516905076 188.3700994115191,416.11781443672044 184.70819703605972,414.44652301407484 178.17331083286922,412.92218924319786 172.98998042758694,413.27106701313335 170.2100126234093,414.8199059682397 167.78982132244712,417.58218659364593 167.58939837627887,422.38427491350706 173.8938941357838,431.0996376504754 176.65071029221548,435.8390160774304 179.7630150058649,438.4494465821749 183.71809106088384,440.68472758915993 186.8410776173274,441.53453929922637 190.9005728788633,440.6357532587972 193.39190830865138,443.2422555055804 197.15083000314416,448.254632992202 200.15211016831896,452.7905123235463 205.40321583877056,456.8982008230132 212.28743607387435,461.54841673023475 214.56328402843232,468.8567431326137 219.13400803419503,475.2666494338374 226.15012025163347,478.6172133096287 230.9373893245839,480.0283123816665 236.90504473628604,485.77890099269405 240.57039902098157,491.2617442635268 245.62424595074535,495.16416462794916 252.53837000642565,498.7901719661528 272.21101346195593,502.48494054450293 273.02008761851323,506.9172813295602 269.3131202633478,508.75081435262837 265.77395086847946,512.5229113809623 264.4487391141407,516.8822563810565 262.6034995756583,519.6907966365073 258.4735715890132,520.4876876000083 254.17184099445168,522.6558694336306 245.47098593926145,526.4405255677993 243.97699384913912,527.6723554350065 241.96626594600596,530.9098328196317 241.96437265254832,533.8107495216016 240.83416559165042,535.4134715324948 239.76841694270274,540.7566702124034 237.67272312504227,543.8309386544236 235.29668333108654,544.0944740126772 233.8890710473221,541.092105148065 230.73648197395732,539.5068644687223 226.25751014491533,540.0336850877646 222.8317209708042,541.2655272517009 219.32719148985362,545.560472251492 220.55489586377516,551.2663397795823 219.53547608030317,554.0067572163812 211.04767488174076,556.7457357002082 208.07087853324978,559.8661036315591 212.2928104731266,563.6726951145015 213.18808897268033,570.3318375075455 212.41963482879973,573.8436052926731 209.47408819718277,577.0447163312858 207.13140407614654,580.7212478070987 205.82301255501048,584.8773531587265 205.61514789575457,588.3810936142455 204.02978016995252,591.6947654413501 199.78497219578145,591.9469272060858 191.94428753506358,593.0072867009096 187.87939975037935,594.2653452732762 183.81336068602425,596.92626297067 181.0192334304789,600.4161720205691 186.3042152021111,612.9163599194303 184.6951309664344,618.905166849506 180.72758313374277,619.3325266937165 170.95993653935537,618.0739583853886 165.54100549070984,617.7641987640455 160.08344582510625,618.5525729435652 157.6672966361128,622.5985448787038 157.72666434799334,626.9253546738407 162.03331190994706,633.6280476594577 159.87903031627945,639.5118766946223 156.27708209335418,639.9506224013414 152.78020188186426,641.0261843596785 148.61188435392802,643.7695114866707 145.92596304322436,647.1693903795538 143.87098795298266,650.7454703510573 138.90190765068013,650.6229802261887 133.91169142439256,651.3297602940336 128.84022614852543,653.8721507278547 120.3343255283233,659.7061604014143 113.40189562522858,665.7559264311868 106.9286249140855,670.6067489168098 100.99665850150964,674.6200036683001 100.71034447389894,678.0345733441707 101.24016237368977,681.5558287019128 99.57465637897351,684.9503144165107 96.42070018260307,685.8547056563038 93.0050574055353,687.6690482997903 88.27357366805487,693.8238751056128 83.00616273370582,696.2720058750594 76.61812522468448,703.1551571298919 71.16935839905447,704.5966795864697 63.07073146896727,702.6976444896968 58.47309998019996,701.3642355573508 54.776716522365234,701.790800055986 51.44412982096927,704.9998788582004 46.013467538110156,706.0832154530485 41.300664186759285,705.6715859152216 36.87148666375035,706.1025618334318 30.614647222754336,708.3187184556657 26.78034873831,712.9801228422649 30.27827995783345,717.8779406981955 30.974440731642662,719.6270947516921 30.628464833395352,722.4258762456955 29.40672984616189,725.7406311765014 26.9600835710795,727.879292284066 23.299271255022187,728.7581257412021 22.59400644279502,730.4961852267813 24.51900791688354,736.2661089918322 23.034832412537167,741.3766572518871 19.778987798179493,745.5199722420582 19.29291107219282,750.5035851284931 20.545214789212384,758.9991978653484 22.543240509343203,763.2603344458673 25.385760261800154,765.8664707844198 31.975554741184123,775.8235382698592 35.715726724282746,778.4146050298571 38.142940299130245,781.644327370243 36.516119539523295,783.530891331056 32.214968396382744,785.410744176973 31.408271751257605,787.2947285377659 28.52067793542472,791.0927540800953 22.848968175158856,792.8101295101319 18.338110809072184,792.3268886313224 14.55991760147711,790.8240958294266 11.337219690619929,787.8463477344073 5.874279748812111,791.9759524332978 1.9785014232364098,797.2147421330086 0.0,803.8406639835821 0.24502544718636887,809.0161127607881 2.8983410411942216,813.1820831780269 8.223268532006395,815.4962385840759 16.983271178455563,818.534313708784 20.21880354325526,817.3546732018982 24.020042472037428,816.8263286583374 26.86051514563391,818.7848665724972 27.754308944419574,823.851871359285 29.31013290263263,826.7375431791476 33.55025796101665,826.9400153986958 39.09167374080444,825.0474612246313 44.35100125356439,824.4350231938788 51.50948311503044,825.643883015789 56.5897370573531,828.5816025807101 59.68475771827423,835.7053330044611 62.334224883094485,838.4948089807677 66.12358454626582,839.8243214814437 73.44872982705073,846.6065516885333 78.42105177190764,847.0285984496691 81.93249487859454,845.4808327487779 85.33498576260733,845.0308198126779 89.49044640161198,845.3442308549033 94.8388263193831,844.2799477832286 99.64556130296764,841.4563801108034 102.39004218427246,841.5253631352388 106.39059237110625,840.1026727366732 111.13347540279581,839.9796001699551 116.85771159857318,842.4896517793019 121.21131916639261,840.8852433927298 125.45644542098526,841.5060749857048 127.57823858960218,842.7611359891011 129.20062809479066,845.2662116810775 129.32588940071616,848.7574118648577 130.03748044026156,849.8909372160015 136.00560729649652,854.455563123324 140.65896348884596,856.1690120735057 144.13931739667535,857.0214868242139 150.23520324760273,856.2275967390668 156.21845533959103,856.0062417980583 159.54438280368046,856.6642109749112 167.8617883243708,853.4075155764162 171.63507887514376,854.9087443056634 174.10483962631403,859.3593737048421 176.58745375300958,861.4262034894853 182.59849146561115,861.6889987944148 187.29755984857704,861.1723472349182 190.16627746196494,861.4356771293155 192.26210146028632,863.0087574502601 192.78618719012985,866.666505118858 191.47030606647857,869.0200630885441 191.21762784858365,872.1610485398153 192.5275030659942,880.2592627462125 196.44302025354395,884.184900621249 201.9275439266437,886.7939821942433 206.63537225187744,888.6284948628596 210.2888749469593,888.1148644526871 213.8037506634196,888.6795283143667 222.22474282320906,893.3391750661065 229.17026097428317,895.5144537019826 233.19243257423113,897.2316556970206 235.70488338847923,899.8841278627334 238.56621350992842,901.5737274108051 241.79910435525161,900.8429019052023 245.67723489093348,900.7727822476429 255.35013482717608,904.7791339252233 258.6894606103974,904.7975740812956 262.0239510007183,902.7832577290908 266.1855754852192,901.9637023843328 271.4676309603791,900.3287196097593 275.7890359678484,905.979893320779 275.4927488179238,911.779921589301 274.44060800844227,917.4228317367659 277.0246674242774,924.2048708405352 279.64322335100434,927.5982091399252 280.6366225304163,931.4756126246127 282.84437248595117,934.4350257412543 288.5800618224852,935.4628082178158 294.3991311160733,935.873975844758 297.71521238199585,937.0818698126113 303.24961127252044,940.9831650908334 306.828738211831,944.5051879080764 305.97247165914155,948.4757912720363 303.24750708133934,951.8712071942113 304.4704680704302,955.1134614822759 305.3325538261853,964.7126785331055 305.4741765838314,969.0589715170879 307.5367222488045,972.9418176188985 307.9354034433726,978.8002451587208 309.14534959695555,980.4091850045853 316.5298622671342,979.8517719282311 318.51139990168036,982.8610927373048 321.3114730777636,983.2653739045968 329.96714889283555,981.5124653777667 334.72172903435063,982.5740401631298 336.8936389637131,983.7061186276933 340.57394927797816,988.7999591433002 340.88955687164355,991.1530995450793 339.6848123020703,994.764495815917 330.43433207517614,999.9970269180542 327.62620892393574,1002.8093053884112 326.8206496681135,1006.0200138509672 327.63524773017593,1008.41922801703 329.2547375534137,1009.4438547114061 332.4559160423295,1009.2138119062893 335.6623329376689,1010.811821421982 340.08224907065386,1018.0177399111827 343.70507193287665,1020.8095904825026 349.68324181374976,1022.5453492804063 352.94752193015455,1024.0 360.17903309400805,1023.183998897511 362.18659841821625,1021.1693833782715 362.5893429186624,1017.1641170963379 363.7984287143592,1015.5562427665224 373.4394540122836,1016.7456110505786 377.8621081199091,1015.9345075597329 382.27502081010374,1013.5206765912941 386.90596519692264,1011.4573046153444 385.7119171635609,1004.8753311626206 384.1046018300918,1000.0807580801538 382.37463039267055,996.2809444962926 381.31490559822043,992.6695910852912 379.4380386469247,988.8690318249709 377.4621153122201,985.9940839168031 374.0583464708773,978.0450613223879 373.8895087517617,972.6920816243774 375.34290716478336,969.2685328394599 375.75388216930077,963.2097048822112 380.86105907850964,956.0656491331962 381.7761478843381,955.5466392333753 386.8621338390292,956.01259636812 390.3582191947893,955.6896115167075 392.0993357701735,953.7877676139326 392.7293921831932,951.0897536319376 391.46118719171983,946.9652567831935 394.3298805108776,942.6850668254261 398.93152608336214,939.6661870251696 400.1973214917442,937.5977188481472 400.57754904679996,934.7648058291041 403.2265865709844,929.1594952294137 406.4905186594947,923.352508767798 408.3853308111859,917.1588951986502 410.4930921771827,915.1555403777635 416.52250413060125,913.4282636643699 422.9928799880337,912.9140471074202 432.88304011406734,911.3781071691487 434.84846197419876,907.9774138455939 436.6256095953295,903.0972757158779 435.2773887894401,895.9849718585916 434.7503709996606,890.3453233148157 436.5716506341328,887.868456728233 439.39317459850497,886.4962068529917 445.3968657400836,885.0449494241986 454.9435438149926,879.9226750808255 459.3869783809988,876.9145498773228 461.9039601430088,872.3048477369431 464.56688937781325,859.0321502059472 467.52973489071286,855.820773508866 471.68399792811937,854.5554118570343 478.26958947849823,849.8006751446562 486.0477497426907,843.6657293068426 496.41318103041704,837.8266185543572 502.0531572890922,833.5196234936418 511.5596837740537,825.5323068421488 516.7222159737422,819.7539880905974 518.0905554613959,817.0103326735341 520.8493471123372,815.635028296872 524.2727945062293,815.3012846581921 526.2642241585305,814.4880671508765 529.2709620168933,809.3673344025916 533.4228590870316,806.5415458274854 545.4334972320215,799.7047014254105 550.6115787987666,795.4250414444797 559.9612880353304,786.738936083292 563.113301445038,782.0499027906665 565.194065824225,770.1651671384293 563.8422533325416,765.2442258955552 563.5193469593971,757.8662655330793 561.343716244745,752.4798117893961 559.2455192408032,748.8701635139475 555.0798390472468,745.6936066222703 552.5740968316917,742.9858266813723 552.1846506518872,738.9319130285132 552.9590599094946,734.2963633037509 555.0717635208136,728.3244681688075 553.9137663655083,725.6220459389854 551.6050670707724,723.8781887616042 550.2626468012664,720.7852305771495 549.8763876657908,715.9614289882563 552.9578525447898,707.2343960299429 552.2006275157509,703.5784414293637 550.7260639773141,700.127388351274 547.2495904418624,698.6348867760793 547.2544100458648,697.4349767036981 545.2183604688306,695.9401630596035 542.9464572431998,691.3148906794945 543.8128384229641,689.1134157055961 542.8974732774199,687.9709927659237 544.2816511923849,686.7460476915394 540.8503561689785,685.6546536057226 537.6596295731287,682.9551386559892 535.59588129594,682.6068830813019 525.9126177157746,682.5574622804136 524.499402343139,685.1576494803476 522.6615903288651,686.7494096835944 522.2185663483964,688.4403640426447 520.2756688193354,689.0781609772944 516.9402442436462,692.8895481352251 514.5290730399055,691.843811405302 512.2055224887005,694.1630606805229 509.97402590606373,694.9734904891866 511.66123267697515,697.4432776738793 510.3248125141104,698.6472513690917 508.0251938296412,698.710030392007 505.5730856952572,700.115418212845 503.4543259722245,697.9723158999527 500.54829417291324,699.8170287024334 485.9151913183971,707.1083162523464 474.57950118566237,708.3617954783929 472.6740670420375,709.3181843717942 468.1845490724871,707.9035026461702 465.5247844986156,710.1482208934224 463.56478961999534,709.3083935308066 463.55945786347826,706.9181537337088 464.54330368736396,704.6756702073922 469.3044742349143,701.1791399538398 470.2839122381029,699.9110559801934 469.1717628047139,697.6705393978382 465.3901609754958,693.0375994311241 463.9722538573642,692.8975986211196 462.3049283868731,694.582961499944 457.1059645426373,703.9755863033267 456.69163509793424,705.9338967585406 454.017017932674,707.9013556670528 448.69029718926316,707.4778178086042 447.9949679381673,704.3966882287707 444.2050158866745,699.763279954502 438.23945767320635,699.2431071331268 432.0558291234155,696.8549750701147 429.53180895658505,696.7208694652293 426.16203212400654,694.0588772218041 422.85998183499964,690.298662904062 422.5898682940913,686.5236028710851 425.4664387122362,681.1509620306231 427.70639916390206,680.444647646149 430.374103676178,678.0668068664254 429.2504073598917,673.4357501275354 431.4930961663465,668.6672974807506 432.9951320355158,658.746081041659 436.20449575320345,656.9972184573112 436.202260645128,654.3299378392053 432.41284414169115,654.8874395273741 431.714400211306,654.4638190231844 431.57359007883554,649.4169312738438 433.4618415589188,647.0676506157622 432.90344148117265,644.9615285491902 431.5097755697606,644.6893112714479 430.6553611685677,645.9465050241538 428.40854575266974,646.6544252541386 426.58226784477523,645.6714620494961 425.0442949548795,643.0082833120723 425.4701845830735,640.4863449552381 427.14865452843185,639.5003878392567 432.6985616080092,638.6853975733853 434.0950760984721,636.446580529263 429.32961902312866,632.9373756581656 428.7665610859884,631.5399121838584 430.3111928169991,627.7539518951704 429.7483095138597,626.6335275891026 424.829127635234,625.9325044304662 423.29027810363027,626.9110398426043 421.59596464091,629.4350839234062 422.0178314078279,630.5645362268965 424.6978692045942,630.7011044313974 425.3976282427894,632.3762556917911 424.2640601046692,633.3647453654066 419.6377843573552,633.3736582483153 417.6681368085851,632.9440024284745 412.0551515260181,629.3079435910461 412.85341001118564,626.7281974669245 415.89733860296843,625.4814321651338 420.1231262912371,626.2503023336169 420.97623359028364,625.2685743905345 421.3893211287891,621.764067223234 423.2472048910758,617.8040659771996 424.10445037647844,614.3741124455606 420.83590204060005,603.7975594653738 415.1461087062855,593.2320445480264 413.08647088277337,580.9295452107126 415.8313239409593,578.2671936594309 422.04924825585385,574.3293734299045 425.4673373576418,572.7041047646685 427.93703457008024,570.7377207666884 429.1624005742017,566.7972566825208 428.667743897386,562.6120033101288 427.4411189514098,558.4249412472981 426.2117200236073,556.7070378624078 423.00884126667563,554.0070196010672 422.2576317461343,551.2975372657406 424.2405370722274,546.8581213145986 426.4536579399619,543.1687316965904 428.92301827618587,541.1910628220911 430.8926330922768,537.9917470158562 430.88700820770003,532.3349830451034 430.40266869264565,529.3803351833693 433.1108943255849,524.699379219784 437.0383270521031,521.992287656687 443.69511140437345,520.0144125353697 447.3418285301861,519.2611970490459 453.4656689916922,516.6040565494831 457.0712608461265,516.2515287425006 460.9539157757744,514.9885301071195 464.4681460146214,512.3289499939497 466.24964130300606,509.10910612744726 467.62108115216836,503.4069612821828 466.6613663348346,495.27676413482095 458.5303882567154,489.5738548702893 453.64819378461505,484.6955304941764 464.213781038263,482.25306158162493 474.28212960067276,481.2219856963475 474.98422239316886,479.0538874727032 480.72580882100743,475.7789132292561 487.3581388199414,470.26557793861593 488.6101101044835,468.4574006348573 489.4198896554933,459.50711655774694 491.04494083372595,447.3132182386264 498.36011402833907,439.99850377066684 502.67351924631237,439.39369044568946 502.50677776928484,438.3363649577559 505.00500293152646,436.22738529199466 509.99526346439853,433.7697836453774 513.0507996965946,430.94469744148023 514.7250779348417,426.6190213170854 517.6592322863611,422.93324294875015 521.0927904968656,409.13116977131904 529.2188469197711,402.65140498436824 541.3979056336625,397.79534584233306 550.779224096401,397.8333953759153 553.410054983988,393.8704220936572 565.2253395481605,386.3907900995995 568.7362856397136,385.42051516624906 573.6053813131122,385.55236583885016 579.9772016385316,383.20141738152097 580.6291933898189,379.7023208648161 577.7144722649126,375.1537139684974 572.3947783175518,370.8533586481551 576.2186385106048,363.96651832483565 576.9257539269515,361.962359878603 576.2817928536816,359.6758981853973 576.2807065951355,349.9086907057434 577.8994335718369,341.78424570372454 581.9574085467443,340.17320080351635 590.8815657969596,341.01609272055396 596.5563685273614,335.33426204340446 598.1813831148525,327.201621196754 598.1878532182515,317.4457118939448 602.2366013773005,307.6953943959883 608.7261748099394,304.4645166301798 629.0108358046875,306.9647870952199 630.6379000749802,312.6628304877438 630.6346331849448,319.9914265141018 646.0505749740944,325.72895313519564 653.3654725410311,324.1165651607678 658.2374433417566,320.86705062623 660.6690055832811,325.7590325886348 660.6697444885485,332.2710007548461 666.344756223805,344.48330069781014 665.5427390941494,355.8664040039812 660.6710679441006,368.0650061417955 659.0437845928491,372.9332805803268 658.2287929696287,377.0070700579571 661.4747359904363,378.63538237703017 672.0423096561823,372.9680770847932 683.4132475200197,368.1017479264784 691.5397194709609,368.92748579600254 695.3836253462348,370.5362314586015 696.1895568164191,373.8874313489248 698.9373055630058,375.75989848919346 702.5374905444834,376.0695076535284 706.0676510476383,374.23664054096776 709.2962807502548,371.39125031115873 713.0142957380174,368.8324433262518 716.3474801367618,367.73644481558574 722.165029289654,367.85775881890993 727.4458964650314,365.1199201309612 729.0564147371689,357.5579985709753 732.3980486777934,353.13411441466667 735.8278580843926,350.6673956431855 738.4353304253821,347.6231158085427 739.6004780755219,337.4810763091838 740.8408457626766,331.2096785066061 738.9186636464995,326.48461046625835 734.2476159451359,318.05465265047314 731.9723012726222,312.2331680285216 732.9316855271087,305.86913625823513 732.6864656953202,299.7575020351486 731.6708126540758,296.12070993939994 732.5959743582656,293.79935266113296 734.8074169311203,292.92669957740634 735.6743816823952,291.5989335219074 734.8049218483254,288.5247268048356 734.8037388765725,283.69431748793045 736.1270083527306,280.6171425946437 736.3635348225916,277.24028295854293 737.820811844669,273.4676932091169 741.1800236803165,267.95166276971656 745.2732586218623,263.7166534429898 750.5648253829976,259.20969967072267 755.460426167841,257.11583024621643 760.2931619160275,255.6562550583168 763.712157981133,253.17934038056865 766.3373584045105,248.39841831983028 768.31290783432,240.08499107317243 767.9957712340697,231.40576057857982 769.5202818704435,225.5891691802027 773.9645847091358,220.72155178773335 778.0590086215126,218.51206588673642 779.7311423605934,215.20202105289093 778.9439296648114,207.52653254088818 780.3560831456305,202.81445552866933 781.3193850995866,197.38435185797357 781.1515556023628,193.66965374431697 776.0590139183661,194.85358695402806 770.7807474801688,195.5745832424434 762.2912814858524,193.97476184061827 755.1728846155056,193.94258182736155 748.1250340765001,196.4906553270905 741.5482038235726,197.56450552422712 737.6823538761946,193.74670938401334 733.9361946597543,188.76467097518707 732.2021835674612,187.0294618445056 728.9717720844438,188.76869054737801 724.5069499337884,187.527465764637 722.5150340551334,185.79297023057643 722.2726325581791,184.05266782726244 727.7290498227204,175.86645101709826 727.7336555929828,174.38302106465198 723.9333134883236,172.10977476858034 713.2582517223257,169.6004716691341 710.8691265235981,166.1765739751712 710.107515195668,163.68883964453096 711.6028462987945,162.42600435227553 720.7493005321775,156.83849780099547 723.2897225375798,151.76312268650213 724.3093123522799,148.7188814400256 724.2947696538234,143.635488274821 722.2699175350626,140.08078864329025 720.7499686806822,139.57508815047595 714.6459407403516,141.09883486232138 713.126034043051,140.58340787789564 711.4543759491603,138.58403254670486 711.4971517353723,136.98796936168765 708.1825640755212,134.01205565070416 707.2072289496832,128.20074315795023 701.679266867438,127.32275242632318 695.4009106733573,125.52242481249402 695.699009807033,122.10871851591537 696.9281384597831,116.67180074353485 696.6880665272089,109.4615134632071 693.2108651798951,104.17503224073323 689.3466246605594,102.94456103091477 684.1071088142936,99.6750914601256 679.4253265897638,94.75154488969235 672.0760651914576,88.32566577843227 665.8463763050066,84.2147143625208 662.3496890807206,82.43407231730373 657.8352137064737,80.91558201342173 652.9756151248698,78.28115415008472 640.682561963066,69.41403019996562 638.3007798524548,64.68285992076414 637.9470549874087,61.54229919590273" /><circle cx="351.0753847497878" cy="438.2482420803634" fill="rgb(100%,100%,100%)" r="16" stroke="grey" stroke-width="8" /></svg>