<?xml version="1.0" encoding="utf-8" ?>
<svg baseProfile="full" height="1024" version="1.1" width="1024" xmlns="http://www.w3.org/2000/svg" xmlns:ev="http://www.w3.org/2001/xml-events" xmlns:xlink="http://www.w3.org/1999/xlink"><defs /><polygon fill="black" points="768.1365653588557,102.85797294144174 766.7240626897516,107.90322080059923 766.2070055412513,112.20930037533526 762.9191272462343,121.8795751044687 760.3171858299246,127.19516613364772 755.2714044627024,132.655643804271 748.6060051308002,137.40367025742785 745.7030049968902,138.44837166427237 737.9665725468294,139.53342922988054 729.8263032868009,143.6349851537625 726.2757023497192,144.61602432021982 724.3055645877952,145.9068741152248 722.386061340748,148.8397053556422 719.3742589970927,152.25041612481402 715.0115870126151,154.23162289553954 713.1812589110065,156.01325024727305 712.5650985204969,157.9192125207711 709.6964825864519,161.0025407094007 704.918962465479,165.08134892911085 702.1676617388897,168.63543548413008 700.4459761146481,171.77526013312604 700.1115646794947,174.42370026449885 698.3619801243151,178.0643648093611 698.5623523107547,178.91615108293365 701.7444587423062,182.53965195270496 702.9511644765587,185.20731613202952 704.836941045826,193.45495960978235 704.8107099595528,197.10534963603095 701.489676753597,202.36620566869976 700.0626228044239,205.585090816272 695.6296439263225,212.0023675638747 694.9317281205509,216.4144272495331 694.9876563165282,219.39977199909697 693.7726509764717,220.79990415686098 693.6626537748116,222.5833534369558 695.3119808794,224.875613477667 694.5396733791554,227.84559594142775 692.9981644604109,229.78317952751593 688.5535104803131,228.2915126294114 681.3590386641458,228.7751156703672 676.5399879318612,228.67209609023803 670.0069617467786,229.94501495089776 661.6322283996343,232.87519330256202 658.4612396378715,226.60765489985909 657.6060939887055,226.08952925396704 653.0728460061749,227.0490917954179 652.6544604376996,232.24988897629657 649.3731019380219,236.33809625060883 648.4570715890362,236.70954432402925 643.2404999044672,236.56972731436133 641.2070617974919,236.93544961574548 637.2246441301484,239.58403926293317 636.1359079670234,241.43578411500312 634.043373406406,242.72199209231678 629.6441718564305,242.66271666140665 624.3034919271696,243.13214130364804 622.3296830871908,243.87792656387649 619.368526170171,246.63695624660727 618.3494691541295,248.56039727979646 613.1304953009717,254.7267293983964 609.4086677601708,256.89714367591273 601.4988620772833,262.49620941832563 601.0784663516138,264.0378676784363 601.7554734440628,267.1633888722963 602.2901070184226,274.26750160585084 602.112779116166,278.78145384622803 602.1974820573353,296.1454479676433 601.110854682145,299.2361237077741 597.0273130529304,301.1397654236804 594.7278690816784,303.33750768597235 588.8427169145795,306.8761708727067 586.007363916427,307.9754558288995 579.0731524181201,307.5771040561452 573.5774867956105,310.2443778231688 567.7191801322967,315.14210796298585 562.5863915072883,317.6590267487896 559.1347761087991,318.42888041727133 556.2933988168313,316.55559411906756 549.9861587611616,310.81974695461867 545.9548628277563,308.5943114452509 542.8000081896121,308.08071508295063 539.3095459965052,309.0651527364766 536.441932019106,311.390248610594 534.8056509861616,314.65161367835054 531.2808866184429,316.92785609122666 527.2382555289763,316.6123589061932 524.3211559035473,318.50724448544975 521.601650940214,322.2806847410899 519.855647218413,323.5312055826622 509.8651953990662,326.75807680710585 503.76127866638944,329.172079793019 498.5297757523981,332.7999638591573 495.68465322063895,332.86735758496945 480.0385846175273,330.57418723643923 476.4235368377942,331.5497671170774 474.24190231477047,333.2910960592708 472.6459336540097,333.15289261932367 467.0650244068884,325.0845435598682 465.64444341440327,322.46636818989504 464.33647316567294,314.57930264925983 463.8929138734193,313.7616115060859 457.1247890976365,308.6485820931931 453.11017114284095,306.03228179776806 448.91420029003996,301.3293299310928 446.4973828883922,299.3994529676562 443.58075518621894,298.2479452474327 441.6692797927611,298.56600243308617 437.98179626281797,300.84709606771276 432.9107252022104,302.7767738670055 426.57722253688,305.82194670992453 413.83932806929187,309.28081460675935 410.04687006465474,309.4311442951744 404.75695958513785,308.6663623606247 404.33159328659667,307.9147815495787 404.4644694856374,303.3683306529803 405.65079325605916,296.44871969848504 406.10113145290524,290.96725993882296 405.8523595517696,285.3155782916031 406.8719259750378,277.2555108563083 406.74625359677526,273.6962270411309 405.34273739144754,270.5995651685736 401.5381672376965,268.38313401188884 393.50742557501474,267.03544742199233 389.4346169428744,264.5550095569673 387.2710037944323,263.96088192677394 387.54131212986476,260.4882712208856 390.2391952947653,256.29085052206983 394.5408257552945,252.24014702785246 394.2841743233455,247.94687725439633 392.6002243299385,245.29613772991968 391.3646846798674,236.2914879372497 396.9294796990717,233.9972392459 398.1521403463176,232.76852868990534 398.9454992420129,230.22451430978856 398.60057126141265,227.6922962023392 397.1261026037187,223.029854418088 397.90186716636885,215.27037108411594 399.3135034778577,212.63140977244825 402.9247955333269,208.64611778676476 405.82335772210433,206.69800754201026 407.44057810067363,204.89583812933608 407.58634678862194,202.71212622273947 406.4876098276082,199.15477712115876 400.99680794479644,188.83328347516203 398.75297538654166,182.41944986203487 394.6535005084992,179.23170032798964 393.9926759358542,177.25236127856908 394.8827995468445,176.1166783679554 400.1008279681057,173.79145080918818 402.5946526361188,173.38919776006207 404.00765129716086,172.24409789654771 405.79281633025084,166.13983710782315 407.9472432667951,161.58429992893593 408.6589066360426,158.45851361487496 399.7536220141082,146.94099013059088 399.0559017685949,145.45835627189797 392.36989191750484,142.3684996590864 387.9544997262859,143.51245368670527 386.03049798174015,143.37795269083722 375.3154728990952,138.46456466793347 370.83036791617883,136.1240789784622 366.61885498384413,135.68034852161077 363.9155787535477,134.68935297485643 360.93212652411046,131.31874113882645 353.322356141894,121.95468485076981 348.8490793630747,117.83466000676844 344.9053547633591,115.29587357842172 339.1160520608932,114.57029223472341 337.4213810553705,113.97997877562011 334.51008849584446,111.30627316753737 331.9419367410536,109.91804268293595 331.05379643321686,107.93846165028287 328.3795477234627,106.36129349660462 321.201377923726,103.70424697121473 312.6332803049016,98.13149334085756 311.05293985899294,94.27920459616246 314.4728701192223,84.8188471339646 314.4144002811451,80.52437518978297 312.80295644547044,76.91035545976479 311.2884410044857,72.06438102640266 310.56571427426053,64.65525295350403 309.7195554818318,60.35704653367952 307.20165145517797,55.40343621481122 302.54124855708113,51.66589857596841 297.35588913618375,46.235002678875276 295.5585647448275,43.59881724709203 293.9330395041581,36.86898472567839 292.4835906512116,24.995676049007443 291.1069568966979,20.613588984965304 290.27635196606576,13.432242210761046 286.82494314772214,2.8182343260476728 285.13263997962997,0.16236933736570336 281.51976633107705,0.0 274.7328634366507,3.959540302593723 268.17332274134117,10.200378455326927 262.74711971332556,13.932238592739736 259.1495067659349,18.695725485601997 254.78282046658902,23.749279810740973 252.20980356247858,25.4790116960221 249.24908186422564,24.55112903401573 246.71057600016067,24.772642219764748 239.7471246484663,27.787203304446734 237.85160674671343,28.945640981046495 232.98578982436158,33.05521041110296 228.9568588470899,35.73822518900192 225.43190581751892,37.11062942450553 221.81749167428495,37.31024115976402 215.72299776245762,38.37383011071438 212.50822661291178,39.702722024006675 208.601426692337,43.85269307540682 205.93142049678949,46.03414669388724 199.24041995959539,50.14952768459307 193.58641675663713,54.40099751197431 191.2118372384666,55.46146625388292 184.1883432374666,57.24492756812731 177.1228999227884,59.65211402383625 172.67051842740833,62.36207484336808 167.39170244379486,64.09750368344112 162.99511531451782,63.199834862786474 157.7246682748538,59.29154621461555 153.87333314103572,67.20650365048732 151.6422706911406,70.02419886773134 148.67450718153944,72.19474202465199 144.52449633875128,74.49397560309626 133.4589214339087,75.44438911489385 125.35586297335469,74.87628540723756 120.15440983740498,72.6372642050004 118.5514046196337,73.32637747517299 108.36861705252112,75.36037103273179 104.87694907929972,74.66700725939552 102.66045466536914,75.31527519626104 95.668091009538,79.05463832147143 86.34343603637858,78.24949543807884 84.65212740045075,79.14762979992202 78.62264589065678,84.72309256836093 75.45958696809961,88.89725966053527 74.77707507185062,93.21244618378614 70.85920584121267,102.52149235218849 69.57120035064834,104.17875248891539 67.77183546039068,108.72496871788326 66.58524547040469,110.37033418453643 62.17450047967186,110.67873924098387 60.092640631731605,111.83710571373729 54.8897286921169,118.91194797431388 51.702876298196735,124.72572549048357 51.169458187849436,129.63290801127619 51.7656582285508,134.2748230826562 50.294806258983186,138.16849727355282 48.462676039230736,140.09993531885766 43.67461273852244,141.8424585782019 40.34661410469491,140.8220079325905 37.91965588290476,141.84839464766333 33.99820795150996,145.46268890787883 33.17396048204609,147.54919548628231 30.04975726122258,152.70868146883424 28.025130981409145,155.09646289790635 27.443213128361705,157.92498492866991 27.39920956933829,162.12362812805884 28.130790959931446,166.3573205850289 25.606465851293947,173.66116692077946 23.387625475938748,183.92902619077245 22.81085197252788,188.98521591996746 20.991239189077145,195.46071036154444 20.620524288156364,199.58606714277062 21.30887401531209,207.75206584891146 11.050442262169632,212.88757338198513 5.722616403792264,214.9810487067491 2.370265776580547,217.24071650027474 0.3363104572380057,219.38092537455339 0.0,223.91284299680183 1.9425340476375692,225.91557098917042 3.3411579717690705,229.0070329760581 3.7885943647568543,232.04173396555962 3.3384828178610966,234.89031959515683 0.7265675431357879,239.65070420275822 0.9594053186528763,244.42662992638452 0.018401866950542318,246.04182016892128 2.4641924088345006,247.46006811198117 5.311943354159529,249.93094869153367 14.893793249253463,254.36110335274645 20.374961223681584,255.72403079606477 29.00136504750323,255.54916153348836 33.18810019829052,253.80103444814392 39.030797997608246,249.89518547546015 42.132841947114485,251.3052146266432 46.04126742210186,261.0087132009792 55.12218992091856,266.57002921990465 57.505115072372185,269.7110912853799 54.544869891103495,280.0573577074871 56.017257093195774,288.98024542202296 58.91792937696513,296.72559598827627 63.852698259751186,306.7850827128923 60.69045996501858,307.97519207303316 50.594769456592815,314.5659231233643 49.92525625937159,316.3529567756434 43.54556092344963,326.2162213733198 42.82919459624033,328.43010194106245 44.67776181650171,330.51016070343525 51.40734938273579,328.54595461349766 59.20417801565555,327.20963396254615 63.634278048491524,327.36490747549556 76.36080020346532,327.3434212171028 83.51099826868844,328.7091454572148 89.00646009911813,330.0477338238059 93.84886580799005,332.4635945177972 95.03106931648989,336.2609932520831 94.22506965079347,343.4555708967493 93.57332719202444,346.8106233705003 92.50229271572587,356.6287030331828 91.03805294913442,362.97417619480524 89.47803185936534,367.34365999364576 86.87211402265817,369.05542294118356 76.49817914393257,357.2004886835506 72.84448108313931,355.0768442503432 70.92189302376357,354.6042166914697 67.16746709371547,354.7816037631907 65.02119810878703,355.74488018345545 63.03417053546571,359.9989062713236 62.47825349866431,362.9982517918961 62.283511678987665,369.9594233707697 64.11062436415237,376.70960480246544 66.53867574753147,377.1961099357415 72.06801601868703,377.26611590128323 74.84022193831373,379.31644776695754 80.68222676708237,381.4393249912284 96.05099175260735,382.6361787357897 100.6367910915815,392.44311930630914 108.23237575167516,406.88296831978056 110.82957487911021,411.32014626199935 112.31847811059734,412.557107603082 115.02934316199523,413.4003786734207 127.18077881945582,414.4908592270139 130.56674676381238,416.2877490859938 136.31706521816375,418.67238558941546 143.37626352445764,418.4927431910801 144.75329004119646,417.29364108748626 147.20940222062578,410.3994503322361 149.56508868654703,406.4818900394993 150.77262990973395,405.666772386299 153.3793659934892,406.0118984673455 156.60049007801842,401.6378791065808 157.49900711759824,401.81569447771375 159.82701831752019,404.5328798949334 166.43932046439252,411.07327507152155 168.39452374018185,413.626915912144 173.59462637084806,415.8796887747618 175.53608979638472,415.8232696318452 178.18379464518668,414.06571371105036 181.46682470369313,414.7504408767114 182.23710090491832,415.63015432949777 182.72258136006502,422.6648126550999 184.28016457267998,427.86813110346435 190.25045002995128,429.1743330242318 191.55623537258649,431.5432261159502 191.4972750036229,438.2811243546434 192.0610324739365,441.63193041868726 190.21075857604592,450.0181169495192 191.20200560578976,455.475899636669 189.03748076427553,461.99062320487315 186.77027554759547,466.3670948481723 184.780750764884,469.3132735631306 182.90285021177974,479.32748485387054 182.1025734284159,486.51460396948704 178.71437940054793,491.7787848843561 177.6865824620374,496.8426441156286 176.02751704510914,498.2483771873679 174.7993695860244,501.0741039599735 178.27160399063865,505.5251645973609 177.67320476742222,509.457364564377 176.87020208652976,511.02390893538313 171.45491205092435,516.6966916802999 168.33006473615364,520.5994902659911 166.87725791592086,526.9919927854486 166.78350621767876,530.8759965579404 167.36404020766648,536.6709499469569 171.11109735842518,546.3235575527151 172.6361412346742,548.8081592192636 175.28360903849995,556.0602513767176 176.9555975633088,557.8936549571639 179.52126547347035,559.4760848231526 181.75671287004283,561.996704635214 181.88778795792476,569.5170277255795 186.93706363371376,573.8137984820122 189.3733948384234,575.295145534341 191.83495324855315,575.4571531137319 196.12330540346284,576.8285101417683 198.21817064494357,578.6531437349325 203.0509125120156,575.8046465542552 207.3598771860719,575.7366732462751 212.1437581397349,571.9483133004272 214.38797079331223,571.1954937385767 214.9026107888965,575.0733297321801 217.95468514006487,583.1377905283452 218.85474614299156,588.3451539321699 220.52768849121813,591.0931074282989 222.55181206403233,592.8803425370887 224.44627320480012,593.3892643094026 232.68035736393546,593.8337614872122 233.33449893440059,591.8797963383935 235.95226788861058,587.9935749295254 237.62685157877786,584.7042206368576 239.5645693044633,583.3577929537648 242.83275256804052,582.7710315713402 247.03911896039585,584.0962128072028 249.18467724202122,585.9723002433004 252.21863156150917,590.7120694865462 256.15666006809346,593.8846141129736 256.82758534461044,601.6740671422438 259.0575176643517,612.7708401697548 258.8574833454419,620.7428184117189 258.2198936132086,625.519130674863 259.18543311938936,626.1311289841873 265.92115369316167,627.5345936022723 272.3136473438841,625.093110200251 275.09832040388136,623.2580364167754 279.8864266780845,624.5136479428527 286.8780695867335,628.9361069469261 290.0418034024864,630.4951845050849 292.86511882574615,625.0559464562673 296.0546658723538,625.8553980727754 295.57341828993196,630.3938849330232 294.8615522598167,632.8671221665367 296.52082286242717,633.6685442805624 302.1589910962027,634.9448905693891 306.4883856988305,637.5353850800184 308.6484745373992,637.8171872765133 314.7162846331743,635.2169240741857 320.91097725538845,637.7430656280665 322.38725951088145,639.3371244540854 330.01419733991105,642.0312360529269 334.4477346557258,645.8290592530351 343.0486569013784,650.099708683849 344.9246035928642,651.772750707228 350.19204540766253,654.9615551782025 355.3170539984454,659.2879796403251 358.7102083178126,664.4436349006194 362.29759577834955,665.9040826432897 365.6197825383011,668.0233055512192 368.3191306482118,670.5113411220456 375.03957420222906,675.4198918048755 378.46983562079765,679.1482987567506 385.58053890748334,688.1225919314011 387.167395194109,689.2026977204638 396.4474774776357,693.2200960587548 401.3121976840293,694.0550672172217 406.21164285166583,695.9255597704857 416.71257121763,701.6042662134304 428.7500880005275,710.4063610551016 432.1140700574872,714.0776711210049 433.2765399317225,705.0998890237212 434.6442060490411,702.9647899504134 438.9996247372059,699.6519224600966 444.6527513582052,696.204771604595 454.39732215803434,688.8411688249514 456.0548131533367,688.7652163090511 462.9539591068517,692.3648421913781 465.68921830777487,692.3324536428169 468.23977852440066,693.1546269769153 473.12769990617755,696.0771179309198 476.9249961104886,695.6051866132676 479.9627005701395,693.3517256074128 481.4693285729634,690.3294070082945 484.4019144373229,689.5815908518189 487.3528524415744,689.5870139747822 487.9558806838371,687.1985277071432 488.09153725243476,682.5056470489128 489.98259173681436,679.7508066612638 497.0340274514447,673.5352016297161 499.1826656710967,670.0747890169494 503.39383675020076,669.2341009448877 505.63087755858487,668.0770096055628 508.3239972293234,663.9822784139327 508.6279436868714,660.1364230453753 506.834543062759,658.1239154002586 506.6555515351511,656.7168759440337 507.72189197763083,651.7769565999147 512.3569024234891,650.8807168865374 520.5205078892599,645.1066690855118 521.7086972903303,643.9919261352618 524.0136617412022,638.5873257350925 526.6853095699415,635.8233477615796 527.2751351393113,631.0220012788104 531.8386916377334,622.2993135273593 532.7060086228926,612.8638301421662 535.9713993519911,609.4516680558106 540.9368944158332,601.5874300245491 542.2360451561494,598.0677814516979 545.7054456827186,595.0366488579863 553.0124678172018,593.6721451990009 558.7409672261623,594.7449371004773 563.5046509257763,597.3644426854871 565.8313376899499,599.6913125157732 568.8980405452481,600.1859895426096 572.5853280617946,598.9603129131151 585.7053767661035,598.0331074940266 587.6794058984088,595.7821307454201 586.0010833465772,594.314338537316 579.1920697223667,585.4679051200769 579.133229667932,580.398150493202 579.8620893471882,577.932597020179 585.5585913964338,577.4173951928684 588.4832164051076,578.443680773393 590.172919129712,580.1781583801346 591.9542574949661,583.1738973203626 594.7808917259576,583.135464665791 597.9321782257254,581.046570499992 601.5291674768714,576.6525785132196 603.6534326705362,572.8972809049076 606.4660886215974,574.8691678109726 611.1502352306128,579.2104311830499 613.0814211613119,582.0526627761753 613.892800912549,584.9161036365199 615.5202159601816,586.3511572486648 621.995722093139,589.6932752500524 624.7451848425601,590.4239076622328 627.3486519151796,592.7900949647142 625.373489821626,596.3265909384753 626.8228255880765,601.0017171826236 628.9460133305254,604.2630571894376 630.0433330840638,606.881029737078 636.3645395042005,612.4022397074311 638.3187961344884,617.124633640214 641.137589844516,620.0843375714422 643.3159650555968,625.4778497194926 646.1318594722923,630.4829986870301 648.2831925771108,636.0029360895766 649.8769855114563,636.9773301469284 651.995666752782,640.3077492553176 652.2904444124288,646.797669284915 651.7082014547805,652.3288484300426 652.890484043257,657.3269774179471 657.1333477867697,665.6127816398943 659.092609559465,666.6530286449731 663.4561136655127,667.416379149546 664.3395092558927,669.6064898506169 663.9782410068879,674.3999557875902 664.9390969920441,678.6574702454374 666.3963870611045,680.9048228516498 665.867180319589,682.6784762841274 662.2055121036171,687.5460279989612 661.9559238578823,694.2420500106879 664.2456624938377,701.5879980026889 666.9246878823747,704.5273220189277 666.9988464284402,706.0735717391667 665.5619280933271,708.8019244305488 665.7173810063076,711.6746595418924 663.833802495481,714.257261568749 663.6804547908413,716.7494383595656 662.2414185505925,717.6714149736817 657.9289434735144,717.2687130382748 651.1424231232219,717.9394233103657 642.294426965865,720.4262677585052 639.0094834834235,720.6318123027272 629.1428828678182,721.8730662176994 618.8617579173015,723.841441558932 611.6235629698601,725.8356360149531 607.7903946140561,731.1175952819466 605.9615771012369,734.8324861385768 605.5307833289866,737.3850599865187 605.5419163506485,742.3489497155691 606.3858254141693,749.2776438021274 607.3870330383568,753.1700665754765 608.8093860630429,756.5745055436338 612.4529590915018,756.1263130299966 620.1210669610039,756.1453742589813 625.0642749888046,756.4843661131649 630.7265115798195,757.7575930905199 636.5000341835457,758.19291798555 650.8179660344995,758.5744200557144 655.9760565349138,757.7348895482344 659.5648040834925,758.3456204466718 664.5674007211079,757.7478733540853 670.6644168109502,758.0230929308477 676.4252144719724,759.8310855164409 680.6891701505501,760.2356971908445 690.3115253279573,759.598076138436 701.9875297217737,759.6131650787074 707.5131154808281,759.1241057477772 712.5079107826731,758.2241095173953 716.0723437332965,757.9764160725264 723.7495537241489,756.4487745034861 729.9685547794604,756.4370143359191 734.363250338659,752.7808541266171 739.7688526927031,750.257130466729 743.5774569917157,750.0593693173919 751.4510488379407,751.6788528028239 759.9371359593716,751.4381795473962 763.774101815654,750.4459678838227 768.6586278601536,750.081662679173 770.3602361101308,753.0539994924981 773.9975533765495,757.2963874605055 779.1265789163443,761.4977299178521 782.7322400292364,762.4892926327842 789.6848682929974,760.1684136890439 792.4100800431321,760.4601256157447 796.0804230029404,763.3215312006478 801.3226534306444,764.2647756904884 804.9683284523204,768.9005889681412 809.56831686118,770.0238351820961 815.4738060938406,769.8648384664846 818.6862946493899,767.400728360057 820.3932442582096,763.5069425976299 825.149340073065,756.1827703705324 826.5991853396862,755.5419653134533 831.2643660961481,755.8834401227687 833.6218142596648,756.8190968051707 837.9667004102541,755.9499817777053 840.0853043969404,756.480463588875 845.3234057407996,759.9196757871081 854.5650280369437,762.1273198559874 858.724778680602,762.5332800739492 863.6295970253383,760.8864436769366 865.3368264579956,760.8865117584971 868.8155157154456,763.6094968459906 872.5925094435336,762.8530120202663 875.6351629807032,763.4471657700792 878.4837340029256,766.3353149893065 881.7095706684993,770.6555938649849 884.5545029565802,772.3818849244554 888.0905002614667,776.2333109395196 891.1340832410508,781.1111502562997 892.2933508997107,784.0808436519864 896.8380873226253,789.2645581912329 899.1919303978342,790.3306571906925 905.7577553069437,791.7224695715616 909.5956585860303,794.552622254072 917.6881426886348,792.1290292155007 919.3474199447859,791.3592033463966 921.6554967740243,787.626536009746 926.0325545347805,786.0120418702832 929.215995142998,785.4521513099935 930.8399342472031,780.2776956333823 932.1720809879106,771.585973083495 932.7505410338549,769.8443080429079 934.6043346620138,769.4162617282035 939.1810801269123,770.9222760235622 942.7637998426418,771.463075774449 949.2327157318908,771.318593817947 951.1914060338753,770.7740762595832 954.8500678439682,764.9184185771772 957.0636995223425,762.5139611887315 960.1383493829278,758.206811358812 962.6840684885791,753.4161068114479 961.9604318140541,749.912405142156 960.3948214623459,746.6872225350232 956.5770670897753,741.0064634280482 956.5454113100341,738.0454120726046 954.2220514519423,735.0936039437256 950.1420180786483,732.1600259478146 948.4322039028536,729.6673477728399 948.1950801114596,727.726411642933 945.775009420136,724.5437785409973 942.8469780566834,722.6148810457962 938.6827297462296,719.0571004454889 936.9739682371832,715.8928431090106 937.1846780651821,705.8691491836026 941.7586298058068,698.6724085656517 941.5691990752455,695.8607538362634 939.1713436486986,690.695041365294 938.5935153921528,685.8836414352659 938.707299370848,679.9593293878397 935.7704753147037,675.0159094428485 929.5932053439475,668.2647282308556 926.3649890818555,666.3415708024513 925.0759473032184,666.4939712129445 923.6009994489406,668.6010481189487 923.5986286775053,674.2818924100774 922.8517518206569,675.7712361842571 920.3773031028998,676.731490002549 915.470990128015,676.8393856988956 904.585997738798,676.2955003113171 901.2493997530264,674.6001533092954 895.47000928053,672.7697141490469 896.5365541557705,667.0259562102036 900.3258098674619,666.3814663923619 903.3083632295671,664.9936244632211 904.4556150466212,662.1854935430755 905.0715367116717,656.0492770218964 904.8545954438143,650.1839464861735 905.7267615744954,639.5017860154435 908.0343906941289,633.0947592504335 913.2464553842971,624.8226282948897 913.5828908717398,622.9575967367598 915.2337894664404,620.126718672405 916.2307907885398,617.2134713618003 920.4368380405815,610.565165377315 921.4974968135832,607.8314376525487 921.359738886479,605.044516546973 920.0261551963694,600.4716358381154 918.2338523524736,597.7020348816493 912.9499210006989,592.2288298059872 911.9811012402455,590.3998124414887 911.6811365222355,587.1677918905975 914.886464178296,584.2779007423026 915.8192203452592,579.4561155034646 918.3770358979209,574.9055466365097 921.0654726145825,572.3543543574972 926.8663849573388,567.8287115768636 928.2851620630827,565.8356595282772 932.3151150541697,554.2764597810799 936.5680285096548,544.4416317936012 936.7559796760681,541.1323783070452 931.8103446022033,532.8412475821872 926.2435515378935,528.5865949393927 921.1687658349708,523.1277604796387 920.4221806538352,521.0433249651893 917.3861247543808,516.3935287015147 914.5060728288696,512.9411528138999 913.4721913724143,508.97197084721637 913.854926485234,506.64527604654694 915.0219027848531,505.38921968748195 920.4051871433247,502.69926612141165 921.8765626643822,501.321562893145 922.6408861903616,496.33235772013956 922.0735430978777,492.7831552428562 926.5306591102383,492.41423089472875 938.7113790605337,492.6743217583583 943.6057878969459,498.34327525937516 946.464738981519,500.1737187075602 953.2896236848866,501.2642223221281 954.5972809495976,501.1354768828312 956.3961996878675,499.07705039409177 959.2754503528934,491.4217744889853 963.0236552194286,487.479383072664 967.527351225608,483.95814037802126 970.1388922087385,482.5232995537053 970.6147014552502,479.1458806673171 968.7360795480506,475.9184985451733 967.5471575827418,471.5279166874254 968.5482441098815,460.2476575625227 968.7898983555608,454.1999693227105 965.9836004961381,450.05967122286955 966.1670882035392,444.855344966979 965.351314123719,440.4610001794333 969.3509049624697,436.9548353126063 975.5924884862012,433.64237548755443 976.8473786278149,432.2344530460988 978.6113263919482,427.7666011813302 980.1904335128393,426.52319308767994 985.477795825968,425.434457646882 993.5357004885881,425.47040209400524 995.4553306852895,424.51541886560926 995.091556674738,423.30380749368317 991.8586251693189,419.038543451033 988.6818456433655,416.2145052171571 987.5184926881409,414.05548695519605 987.5841975210589,410.0168517037191 989.5963903739723,406.0082484880943 999.4606830750757,396.1127036515958 1001.8984802363938,391.4187875762849 1003.0096847220167,387.01531499982656 1002.7337052603214,384.01188230728917 999.5254889920458,380.264600153379 998.7279092343232,376.9438298885389 995.7656036280499,373.83709979995365 992.8965395112019,369.7838561443985 989.5562211248648,367.5914481406082 987.240576190141,366.9053313676644 985.9876228313415,365.2181736523839 990.0844460337979,360.22125799189877 992.1948682048799,358.69340590126734 994.7724995402625,359.0364792124738 998.452409333893,358.495475744918 1001.9576216201406,357.2581449202793 1003.5718113060874,355.5217295803601 1004.6367865283561,352.03918228055215 1009.2896368005149,343.6477435303204 1011.9108972549479,339.5345286439163 1014.0205864920523,335.42848216899483 1018.2274048378878,325.5757580337918 1017.7475819622839,315.3105147769695 1016.971308495159,313.5303163710826 1013.8622715234213,309.2227935277348 1012.4645395798321,303.3902085938408 1012.2870937593179,295.2917145376385 1018.9369710009232,283.11480134713963 1020.6553483902484,279.31683822107595 1021.2862637807539,276.21820992078653 1024.0,272.0769269876638 1022.8818817984542,269.1321459751915 1017.4436047384943,264.89861257765267 1015.0007868474939,261.0093548611825 1013.2599914370446,259.6080927114615 1009.9354568780217,258.24995836956066 1005.9843656942355,255.41336783114753 1001.4618237556318,251.46278426967615 997.1646757228717,248.43382342108998 993.911258916213,245.54938790430583 991.6290041631014,244.75621257077592 986.1517527067059,244.74667138290022 984.7822206826289,242.93229915461154 985.1316121782244,239.6165001382409 989.3952314391083,231.91182038073066 989.6741476167759,225.59124300335952 989.3683156375597,223.9260012715955 987.7309344274107,221.81765080287778 987.8565845212967,220.11190026189638 990.1256466855934,212.84254912169888 989.5176080824615,209.67426796022892 987.7597456498149,207.17619850467827 984.4295995515411,203.8144808853433 976.2064061638054,201.179054934781 972.4770537334136,200.69914757068784 968.479851607301,198.36212665942742 965.2565984255716,194.82595230607308 964.2495901624555,192.60601884482787 964.3911819256066,186.5435328731969 964.115517180638,180.25565548884288 964.6259447289165,174.49036136840607 963.8195381159719,165.89717063015257 962.3283336808222,162.09893298540396 960.4840578381574,159.43194816654534 958.4339984939368,157.52648618858336 953.4069506128953,155.28795221188625 951.2011345718166,153.74801887125375 948.1739877826648,148.5967871818018 945.5278341801574,145.37179036497014 939.1633975961478,135.49542917400834 936.6660896967429,138.99040306573204 934.174110110648,144.78187863603353 930.1766345208129,148.97813900350457 925.898303472531,155.93653185087578 923.246127180393,155.7368855008399 916.6952961434229,154.13636558901067 910.0874577413347,150.69290606241623 907.806685500293,149.88734446106344 902.0133344991165,145.3425025798498 898.0163566196796,137.49678872940297 897.1376352445709,134.53571198756867 896.9092890620013,130.09008305315717 894.6234950446077,124.54093981753863 893.8124590512008,119.45156570096708 894.3242184890436,111.42468341253607 893.6558307657042,108.57060603630293 894.1587572205981,106.27475512446597 886.4874693628958,100.92878087193321 879.9046108030542,97.39254362194276 874.7615953532775,95.31840056923909 871.6684283508451,93.30944546704848 865.4112981451736,89.88737478936218 862.8696996318998,89.5902066753921 858.7391875127922,90.79384625175476 853.3385591859053,95.26062060679203 851.284454439576,98.58369213897402 844.3596199493276,94.29452081175714 843.0611299733538,94.19898122791267 837.450328145158,89.79722030729727 828.2490657251874,84.5161501602222 823.6271562045104,82.85898042911504 821.9493310734612,80.55508009330401 818.5641826535349,79.9293586577578 813.9003718006945,79.94184476971873 807.4199091766377,82.5165567777243 800.0597214282798,87.31682731002945 795.2204425382492,88.92120040651707 793.7856984352317,90.19117042490609 792.1474923720166,93.65841147196386 790.3525305185509,95.89711045295655 788.3591328302585,97.03714730554952 781.9486390613255,99.65595072775693 776.3317000693274,100.84124919534952 771.7499425550308,102.41103888756948 768.1365653588557,102.85797294144174" /><circle cx="226.96560613925502" cy="335.10332655682623" fill="rgb(100%,100%,100%)" r="16" stroke="grey" stroke-width="8" /></svg>