<?xml version="1.0" encoding="utf-8" ?>
<svg baseProfile="full" height="1024" version="1.1" width="1024" xmlns="http://www.w3.org/2000/svg" xmlns:ev="http://www.w3.org/2001/xml-events" xmlns:xlink="http://www.w3.org/1999/xlink"><defs /><polygon fill="black" points="835.8349244833246,427.04896700907693 839.6591805751991,415.3037616277682 849.3002825298321,414.2857953639166 850.5835077010566,415.0699008212104 853.42500321197,421.21440826155856 854.239781325776,422.1216082713515 860.7800633525663,428.1585069446185 869.108740276272,433.13692807524393 869.9606526170649,432.6126732170159 898.4874660747502,412.4001582726046 899.4237349547946,411.3889993446883 909.7175095788048,398.5044317821497 918.8509176030425,387.1498308744027 925.7040400812435,381.91437759671396 928.877406436726,378.2434396578644 928.8263040870825,377.0668646146655 924.008140352405,358.9904698030458 929.0713887268397,348.9568831693219 935.6885870194055,343.24356824739607 937.3395486685196,342.61665103169605 962.544744305576,341.5843071498608 965.4191954417481,337.3934174841528 996.9545654275812,305.825694102286 997.9034220438521,304.7109505470506 1005.442679946697,294.612038468694 1006.6546357660164,294.12054492433333 1019.12072546802,292.1262590817761 1020.2235406343259,291.23250415328374 1024.0,285.5832954384243 1023.532287975493,284.5635983838333 1018.9546389032499,279.5687203261897 1017.8230372037476,278.61091573051726 1002.3513134707591,267.7480007087477 998.3812748602958,261.6391484798759 985.5405315621337,257.1716833978595 986.0592975382676,247.50403060083397 986.0056205518072,246.172796906086 985.0263496334941,236.5412336427989 984.5849165468458,235.07420448579538 980.6135478525871,226.2323404499448 976.0182880433396,219.7849204165077 967.7233083610646,217.04705723248304 958.6274384614642,213.33307921878077 957.3768519472119,212.49727060452727 947.7289741735308,204.40436440995597 941.9123883129488,202.54736940879388 935.1148496043622,203.0515105494785 933.671206447835,203.03072446198126 915.5422462209175,201.75765772240948 896.6619017533043,197.44442594319162 895.063029865026,197.35712159916272 862.0908753362276,199.0150781998364 860.5435842935402,198.45419181855465 856.2810455448039,195.14580595262885 852.6677837995743,190.57283437243007 850.9730760394079,187.55201724147645 850.1139995035097,184.41969917394238 850.117809031594,178.61451027182 850.3597101505092,176.88778028997535 852.6182372247765,166.4807764306704 854.5969447964962,157.7280127480576 849.0026179145516,154.951109619073 841.9500569949607,158.2033013339048 840.8017603356942,158.03162235074166 832.4329556643916,155.59726917801015 831.3705438853467,155.03324673968405 818.7747985858472,147.45034398575302 815.7130475350299,141.40781089508806 816.1123786523714,140.12990683173393 840.3157810562719,119.14329891805869 840.2982820150977,117.98769270761966 837.997390772882,109.58338032556571 836.8944431930415,108.51725196995949 825.9557924572136,104.57481661608819 824.8553576897904,103.6719020681744 819.9080326513913,97.72233858217476 815.068866267817,78.97489225359124 813.9048942463006,77.99126903059118 801.9564931983239,75.67479790773956 767.0785584560952,75.15413682522791 761.3530300468735,74.53079549192313 757.350085570211,86.48867611103998 756.6116833088654,88.42470693333809 745.7228429970571,98.06610048168233 744.2108730224041,105.99487221706579 743.2813376269863,107.43098704925808 733.4464060298263,113.68325641370802 732.5495666557856,115.34658986700146 723.7800972674632,109.30664727324017 712.6788446018888,95.79450855271858 705.5793367744665,92.14856077576701 700.0693699792666,90.21919896829667 696.4828000346536,85.2793199047864 684.5893098805844,86.13821283219681 682.9406752485073,89.60859902014249 674.2768416668506,93.88705674484157 665.0161877558409,99.53618620204304 648.0001764016305,125.40794390537576 637.6871602250944,141.01459446213624 621.8485334482497,145.40103917377633 620.4525146679229,145.85538387204355 587.4513956009179,157.85081477379487 573.923693269244,157.83196647945795 572.5375627171785,156.94540685577618 563.8659487959634,137.4775665978599 562.6388977805799,136.1590026409213 559.0180457976851,134.34220378372942 542.8154600759003,149.69173796486422 524.4811416324044,170.87601326604153 508.8696648390659,202.07470933909758 506.73916631955416,206.40188972743618 505.82858893086905,207.18401870588292 497.8938758695702,212.67254419290134 496.89664623466507,212.27429335722115 491.8924627394941,209.27353483143196 480.03409288028223,179.57608194282926 479.1889649555394,178.50534097700006 475.0002595000561,174.45298755203038 473.73017781075083,174.48393818274798 468.61744333970836,177.2377397347379 462.2193554253638,196.55197707267376 461.20768522722534,197.46003968709812 458.5927655234004,198.73456777430056 457.600033999658,198.1299178241489 456.38629400387396,195.6636353015527 452.63264257348357,188.87649087065284 451.4075937107544,187.68217476827232 445.6708852009753,184.24868321145158 433.3076083992835,174.9320334976906 432.0675685317252,172.14810337001916 429.4729585706855,169.129779072583 419.8850427578278,175.61541481429816 410.6184873043733,179.12299298847915 409.9431101834416,178.35908846338486 407.1759996495122,173.24627963316033 406.8686962261994,171.7596551814625 406.2321473735674,153.37457276341792 405.26303491475494,153.13038981522857 384.0553506227727,153.956281031615 382.30883339599126,153.52098074497434 377.22660717923804,150.59729477874697 382.4407774974967,140.12216273621448 403.60208821113025,126.63898346345121 404.98825910638755,126.25858622595115 437.66112742862714,122.60137358072092 433.05604928889795,102.77706704290125 440.96473911470076,82.57821631938015 465.0348385955576,83.74508705899541 468.84415635618075,80.8078501750478 468.82790918988576,79.66515533046322 466.66969534199234,73.23787584971507 465.7214450669292,71.61000845433506 461.82040751974137,67.3085638045701 460.42393633584715,66.94598729576984 447.8280521357867,68.71871411381193 440.51441613292207,70.21009485232054 437.300234464834,63.05858818042492 429.19055399417596,48.7276975880481 428.1907967484967,48.37659679065467 418.79773815437767,46.07719474557666 381.4878959895224,69.16323533476748 367.26964165843265,64.66150647670338 350.86866459017546,54.44076701263839 349.59622392339014,54.27372928151357 334.1595377942741,54.21766903453346 332.8174402763961,53.52735485611839 329.37086954013665,50.112088747798225 326.9780306163474,48.82620850425366 326.11442110462866,47.96166858551442 322.54751516720967,43.271914574499874 318.4014643315002,39.165901489514795 316.19068017988417,37.76572761668734 313.1191671646886,31.724193035602127 310.1023947049087,24.856926944780355 308.4024742786575,18.186270579216682 307.84031649133055,12.303352564492627 307.0977138694797,6.642056071632965 305.62807574505365,1.2228245620517555 303.39085483153235,0.016304557844080136 300.21579926819675,0.0 296.5306727981553,0.2570992914443764 292.8556689251381,0.9823575914094818 283.04787598327937,4.932867792089667 275.4619510263125,7.387449978934455 267.3620037113143,9.83604757636607 257.5511831330073,9.845956893229413 252.39858764919063,9.087259504807946 247.73073769488232,8.614037800445828 241.35413773439956,6.647402818623448 228.4268022550479,0.9631976870994094 227.68114031255263,4.960598963880045 226.69262293352733,23.466605349659744 210.45566172680893,51.1382691630933 204.12121833850554,62.87222467870055 199.8711653589251,66.72369625932714 185.93508369269875,81.28854005992963 171.035446960853,93.89370457709765 158.12764456756727,104.53376113140189 144.27334571771192,114.18066013441273 129.36159059359196,125.79179804383102 116.1063880550839,138.34697313484992 94.80729471882316,150.45426634128046 75.5312940442838,166.54223548047815 61.9708195398217,175.94587028434216 45.66542842237011,187.47748909913878 38.71940676949018,192.8834736197752 17.72150296234953,248.93082919027552 5.4693248626910655,307.4664455189271 0.0,355.1420683422239 7.2659441874181505,354.29128490420885 16.121980565331533,352.56033041808666 25.481324516304433,352.52398332202426 55.95440233524758,351.01156921294523 60.88676453588133,351.2130458936077 70.21541931933447,352.19002024849397 74.1692552909612,353.3967200712747 77.2950618493724,355.04396328525536 81.07375497250437,358.5601099432882 85.66441378958223,363.19115932503087 99.69932571857875,362.51120411767664 122.02586199094004,363.24567922880857 141.89399283083665,365.8334925624149 153.1995982582648,364.8830815070421 160.89895835865087,361.2868287757466 167.41175263898228,356.3314761917458 169.94918991158917,348.3316630321772 169.65850777517022,335.7210152528592 170.73597687277123,309.85011418586794 171.7952058945366,297.9345189197722 175.39351444201964,295.11485606359133 191.08428882478864,291.8399632812959 206.7562179283129,298.0428598152074 227.68193988294075,304.8440776332414 256.2062187705057,330.3293840706722 280.73432427679177,343.0080082864532 296.20289308106663,363.2816318027576 308.2845089334373,383.73459584145246 313.91971230904994,400.74869967261236 314.40592391207764,417.35685235273604 311.09743065360885,427.89468918857443 305.9462054995977,435.1065347607178 304.68046083319115,446.724683307526 310.32564542766903,451.61808469541324 324.81798723012355,451.8994059938323 325.53123998714716,452.194611292392 331.9557395491982,452.03707344330417 337.0720870196219,452.1424467979352 337.7686710797193,469.0183625671886 337.66409001880794,480.84399083094337 339.5453760885801,479.5031974993672 349.1527949641147,476.70619151646093 354.7856729691203,476.1425166691313 357.8354881915372,476.3923328429517 363.39940947053555,478.26995765828343 373.74022016508155,477.21946286639366 381.5036605302752,475.8093728444162 400.7517446927535,470.019262302526 402.61450931315926,469.9974790686437 412.7666592467326,469.13765518204804 421.5640249470519,465.4866176033617 422.56842450752333,466.3576084598312 420.221488206902,472.98160298725156 424.9381889810037,472.86376273200295 425.2245386158586,476.5032748842484 426.5402788715456,476.7769459062181 427.8352687613567,477.66532204282584 430.08126335168413,477.7153620608538 434.18832228083954,475.79281568201566 435.30200098697725,474.24323548733025 437.40784823042827,468.5205339647391 439.15700285208607,468.2595698878712 442.18498479825405,469.30392983143327 446.4670700345736,474.846336655623 448.6144633224559,482.489821146576 450.81973802819346,480.9548621044864 459.711971477723,479.59605298609273 460.1057014588627,479.11355644456 459.1975058310459,474.4000946065968 459.57798476280817,472.98111732034357 460.49207572096424,471.8768391034016 463.6717687100355,470.39246666176854 464.6751018366303,468.84435998753946 467.292745635907,466.85661254032715 468.6546918336916,466.75997903315175 469.2989923903463,467.3652710069793 472.7017754900368,474.36354892879694 476.5370007675531,472.2037978470065 485.2493408782377,469.06384676585026 487.04930279409365,468.7589839079494 490.79205330842655,468.89052462026854 490.4976250199351,467.56704369392116 488.24328208446804,465.6355256406396 487.478098504039,462.991067262336 486.31412391438795,461.76158053889196 481.04769394084514,461.45829051386187 472.85115548658933,456.908429017308 469.5974556370726,451.60522025468475 469.68614018725725,449.04745472707157 470.07452897290557,448.19121250847314 471.51760024980166,448.11919597350004 472.86601917847787,447.0731757193864 473.76949548056075,445.7455856510154 473.4967206691573,443.094120896695 474.89856547697985,439.34044039634813 476.88254365202465,437.5119882853061 477.68386699954755,435.97959724004374 478.72288180605284,436.43748020191464 479.13254236245973,437.85815531674746 479.82373411089713,438.1448108312455 482.9484118861512,437.98441955907674 486.7288029981163,438.9747815880604 489.3127253457345,438.51266841036687 491.4242745601629,437.6490763529559 494.1954611727867,434.85547177715364 495.03381784299324,433.348295041456 496.2701809506816,428.8277783399518 499.2719125011028,425.7171921531368 505.2354935555161,423.92209085614553 512.2656574882903,424.51780728427343 516.79104826765,427.7615947749565 520.6853117859031,433.37324150294955 524.8075474164938,435.3938595720266 528.3113854294126,436.052650188139 533.1608619122268,435.99606231143986 536.0707290392465,436.4871346078944 544.3163535162134,439.56554855176984 540.953754406917,443.11992484394636 540.7205732069216,446.0750996944495 541.084560817528,451.4665225406868 541.8058618947175,453.33382547293627 544.492004487604,456.14826902474346 545.3681607570367,457.79421159837716 546.479068506828,460.9449204746461 547.351392282267,461.55541110202705 547.4035168726448,463.9049540702752 543.6124025003975,466.29249848817966 543.6280657640997,467.3836332672277 547.1683933601936,469.0256934473728 550.1784509162384,472.1233305892714 557.119009550918,472.8098256110328 562.3463995416874,469.87297732739273 565.4153246580236,466.33554909852296 573.9958601029842,461.2405242113824 576.9323262024396,461.5203891206602 583.3646063367761,463.15044555474867 584.9650147406413,461.7566568630788 588.1260240164069,464.85613677647365 589.2104181640527,466.9114658109151 590.6398326700046,467.92199370920673 592.0725399208592,469.6672079967883 592.4923353785921,471.75792949856725 594.271770958671,475.113683602728 596.5978906010457,476.37760336480295 601.4300113426464,473.81977430896336 604.8126902120385,471.4118150778842 605.899445325981,470.0769532124837 609.6909644038772,471.28086188808385 608.718992221602,472.9277292776481 613.561493157459,475.1389668312955 617.9571055017742,475.67662410945326 621.8976739162324,478.025482698843 623.1193033775293,479.39555275010787 625.7139783916422,480.1655738374764 629.2027080001068,479.7452502900427 628.0154587563766,476.9524769427993 627.8684128772157,473.92112194900534 626.7159471065337,472.2535841021305 628.8302905891637,472.34309907886654 633.7827551351738,473.77048949392014 634.6797121731138,473.5382779601215 636.4154535942318,471.605211192686 637.954546174721,467.27742175856656 637.106777714159,462.5676680023611 637.4235346097718,459.0912766912581 639.962871734066,451.7970131842746 640.0171562193553,449.2224685138039 640.9190834134466,447.06952024131334 643.816275656382,443.9077683886577 653.1768454837064,443.24671586715584 654.8273504402438,442.53508199413983 655.6038429650898,440.8565744440057 654.2547856790891,437.55922195313195 654.3002564907869,435.8957108624782 655.1146567604713,432.03819125429294 654.8412456327145,429.4254664166294 654.2437998676372,428.52329789760006 653.4407000159513,424.1136852689602 653.5050671421528,422.23505892915495 653.9767094880872,420.8188185347708 661.9049219951746,422.2452386481128 665.435481497494,421.2052228032945 669.2033698332464,420.81480129247416 673.0230526978452,422.7008725541812 676.4722759426661,425.12944884562614 679.1824142717575,428.0200228037473 681.8658565054624,427.84307494929004 683.2914167277596,426.58463779700065 683.0607232851115,423.3912288043272 684.2964511753446,421.7187914818474 689.5877306253938,418.9812039640174 691.27787399898,416.7305786811151 689.0099476405425,413.18046249110716 690.171138194461,411.1911389965521 695.087794490566,407.97774554450007 697.8035184890641,405.26510229208174 699.9688963766591,403.8538922427453 702.8353911899618,402.8963747643636 706.2184832990004,398.854701826002 706.7903488015564,388.31910533858274 707.3349478635914,384.1474632232619 709.3949839927097,382.82798238220005 709.9771857105204,379.2143621779764 709.5716070631254,375.88604023287803 710.5421018552298,372.9412756681268 712.7412205108861,370.5970780714759 711.4659586271104,364.11057728219123 712.9075111255878,362.4650657939718 716.3553948487441,361.09493284692326 718.3885351133613,359.4578309482937 720.5681606825882,344.64452637031525 721.0996725104092,343.0769099994286 723.9317652135869,344.0446958041408 726.3761112248069,344.133067752511 734.2615219008244,342.25867112326716 734.9599264307875,340.30613815725746 734.9250964882914,337.9605910692221 733.4543099980101,336.88244277610227 732.3838856440777,335.3042125925903 731.5172878274432,332.85499720640973 736.2810056206332,333.2826987105876 746.4113480294803,328.7321463145627 747.9087982021035,328.88603234713344 748.9161292943813,330.41789786723416 748.9011146317599,332.1239630383511 750.9363951893636,333.116308190367 752.4595618529316,332.77565954878503 753.2731532871852,333.13736554272845 755.2419968507558,330.40962111847193 756.2939361427285,328.03068525798653 759.669085711445,328.2166931530337 760.0125594450551,330.80256370474694 761.265766487928,332.3135466785069 761.8087401881004,334.97378337043403 762.9212290401789,337.3934937699365 763.9919113085167,338.9802388827861 767.4566790441509,341.71717174995695 770.6448269646206,341.91877608407447 772.0940636702298,340.0709665889598 780.3035917068712,341.9505461128759 781.9855647793547,346.81948564924323 780.2893784469543,351.31358632188926 780.5388653945171,353.5012447522646 780.1336403982579,355.8834623122093 780.6791301484756,358.9475452526358 781.3090361412716,360.53225009805806 781.0959811519131,364.21783305710545 781.3497751044171,365.21949732825203 783.5543696586816,365.2337720257508 787.1119355682046,364.08481334816446 789.2239250619205,364.04888122957186 792.3160313354103,361.01623375085234 793.9594527235236,361.82948209272524 794.7588137851361,366.6256728373569 795.13527781425,367.23018047028995 792.6410871278796,371.1820051157757 790.8511978538749,375.5529430201713 791.6904926343326,376.15051851410925 793.4411727657608,379.94847407723915 795.8012057107436,383.462287961582 796.9657680966026,385.9026211789741 797.9631725892456,388.95561157659864 797.3696858542813,392.50081987883533 801.792427697486,396.8387350705188 804.8254288645096,398.6666303780585 807.39035825787,399.4187287756613 811.4122826482281,399.07899538447646 810.9484422462449,394.1316930920221 812.0694818858925,392.2027391363225 815.9808316313155,387.93728837759375 820.040816379416,384.5203353180299 827.08701881643,383.9759076073507 827.0051573131838,384.6388590501734 821.0463983592982,390.0567414421191 820.7408116644657,391.4793072363073 821.4736202838471,392.5639730094836 819.6765900109281,398.40038486311147 819.703388727996,399.4484153924182 824.0816417535187,407.64105563711945 829.388694832504,410.1606854671683 831.9806775702029,410.74894406411437 832.8533600967403,412.08929421237355 832.1620233720748,417.9004893769451 832.2642743198484,420.7821432449069 835.8349244833246,427.04896700907693" /><circle cx="340.1228259947689" cy="340.31578498889223" fill="rgb(100%,100%,100%)" r="16" stroke="grey" stroke-width="8" /></svg>