<?xml version="1.0" encoding="utf-8" ?>
<svg baseProfile="full" height="1024" version="1.1" width="1024" xmlns="http://www.w3.org/2000/svg" xmlns:ev="http://www.w3.org/2001/xml-events" xmlns:xlink="http://www.w3.org/1999/xlink"><defs /><polygon fill="black" points="157.87598301015382,221.09337979114787 162.5754769195489,224.84175340432853 169.33612198147486,229.1983342265438 170.23743387724696,230.60129041081552 169.96054599928365,232.2737569502541 169.1215196960613,233.49996657037468 166.97519194543733,235.42886775847376 164.016032285349,237.66453898269367 164.44357152375147,238.74246613450146 163.0216050897566,240.05488445372782 160.80298021327437,240.44446873304594 159.46444675038586,241.10397869444557 157.6563219476488,242.90547169525883 157.19489868190036,245.11745729194888 158.04842010052582,250.73205415816437 158.04429192355363,251.98214841299512 156.78755732705721,253.76166583762176 153.61689497415128,255.7885603953879 151.7418614437922,257.3597830776156 151.15734351254835,260.24618091407694 152.90971269962435,262.98847051969767 159.31520691554152,271.0465048197373 159.87310539465471,272.2849467082901 159.68000345725258,273.2822377757084 158.6493729286444,274.4764255756381 155.32582090369047,277.0516006893866 145.26901895603896,283.4824830824296 139.140913411385,287.2016362959688 129.84189009311035,291.7882111301176 126.88031602701324,293.62220254332755 124.1639938585329,296.39087758562056 121.99381374459215,298.95517322399144 119.56063385947455,304.02087455949635 118.10047799624589,308.41015713993653 116.07282749108751,311.5080023002662 114.14759342706728,313.9897894054301 108.14536202723164,319.50782350310385 99.08354056533835,326.07534813655155 96.24602674812016,328.81707556749797 93.86519263576483,332.1288188860265 90.99603114551924,334.3815514808826 88.57376132123517,335.6803803020124 81.56585881348862,338.7752532211864 76.79908735922325,341.01553652519107 74.79575858936609,342.2534101023868 69.85214311092274,347.837521857631 67.47751162488619,350.88774306481827 62.78968163410305,354.8151223696817 61.175904001661195,356.958060595392 54.52466514724598,369.4811939893378 52.23831105045544,370.06701120044966 46.09984457705347,370.89407793472014 43.86645997299454,371.31468122604014 43.06747831723685,372.0630522529095 43.322300617393694,374.69204203858254 40.60267411270552,380.17089144554956 40.13975984846502,382.47792511591706 40.83254302001911,384.0820350006465 44.30168464655985,388.82209191798177 48.47797387491951,395.08132747226597 50.61969309668016,397.7469153228164 51.641628846801275,400.27323656221773 53.95478825523694,408.4170812743563 54.24969320513838,409.99923224392734 56.43539460785477,411.5085942327376 57.53086780943162,411.34744525665263 60.69716388104441,408.6124903905313 65.27885892367304,403.8846761565749 67.81954075639999,403.8709560777885 69.93677600331512,404.2279399069402 73.78699053472566,405.6800910819704 76.05241399657493,406.7490563966321 79.36317690233302,409.7043048946429 80.72326143819032,412.2450658439571 84.62586415843553,421.0674473511522 86.09803841374905,423.52318697567455 88.68644738387195,424.83324498692014 91.28614551579426,425.0006885644968 98.36590651821142,425.16079159728736 100.91849487696827,425.6514084019069 101.13693358490757,427.065845450303 100.73745283909969,430.3670239638358 99.76469766061703,435.2660467894901 98.92202072070769,437.18090033845317 96.46731429331705,441.137692288514 92.98788879068462,443.78207436215473 90.22524297739801,445.13932283540396 88.32608586488632,445.72694190179953 85.39819596550602,446.14281074109795 82.58206342675587,446.112990111779 78.91955443243403,445.49746885964043 75.27547674753757,444.3878333765909 71.79699634273976,442.72005408343773 70.30968712341834,441.5100662640846 64.84703408219458,435.16173076682094 62.69496559272509,433.0006801555873 60.53784190601696,432.66719039087593 59.67559920251122,433.91895011317587 53.695993144980164,447.5797487550798 52.46706482276986,450.9458794786591 51.99777106512493,453.585111430701 48.707171570161876,457.92035412291256 42.762332965762276,463.85747649708287 36.08534563440687,474.3920137505984 34.402404357668985,475.36837232860285 23.280361981634563,476.15275153989097 18.98384978575498,477.0861141651668 15.975805770440731,480.02222142794585 8.33727971049966,488.93849135955435 7.580909574266419,490.028018063086 6.719320176019663,493.4011390715911 6.325048430416424,495.8128125883976 6.391779527361722,498.1321949163659 8.3325997046182,502.27746016342434 10.160473651150827,504.82985703453943 12.506982710477319,507.53218231602386 17.721345941140754,510.8578178319927 20.077155937134545,513.6392498854927 23.114965433925406,518.1461416258842 24.614349031975706,520.8561104526007 25.44818292931207,526.2095467179543 24.870930485954613,532.2690117780535 24.288994181738286,534.3629743248013 23.363716866040708,536.2618057175429 19.747911067057245,542.5781602281927 19.149882982787815,544.4894352200506 19.101980120307676,547.9514003294104 19.315221051724386,551.7163164046033 18.946219280553958,553.2936681310464 17.659746517095755,554.9017640499691 14.850156443416033,557.5601472669108 12.856467170194843,560.2810287231507 8.929405771235398,562.0806777033239 0.0800028451307455,568.5801648795275 0.0,570.0294177816552 0.7947383387589854,571.7247616611052 3.6961832722675307,575.3133305633877 8.124734137145689,578.2083041930937 10.432701470251189,580.8328195927751 10.614929360393335,581.9872998957935 13.328489239864817,581.6228387907657 15.206664257370358,583.2825096732948 15.998246055150062,584.6008325427578 15.90538925899888,586.1673540020961 14.913332764340936,588.3728564708566 13.42440648285199,590.3072769557605 11.359846068736543,591.9001756310983 9.096798749634383,592.2572079736325 3.6620240010831715,590.6293004971392 2.410873676174563,591.9624436300853 2.5786859447612884,594.3081019444527 4.659506753020209,602.9138425984631 5.199696679453558,609.1713977635009 5.536963618927675,611.3238083637233 7.936830992578269,616.102009883181 14.875106239771315,625.4203484834023 16.952041452107053,628.4191421646935 18.46061045352586,629.6946598152441 20.036227578633493,630.0880212443643 22.56644425732326,629.1990775360933 25.505588552434514,626.7862035639146 27.274029297755582,624.0364882162498 28.531636799042577,613.4757685032903 29.37474811625549,608.4832438618521 30.418814661871295,606.2543763094425 32.7268426711165,604.2263209841205 34.68941627616731,603.6646270836543 38.52427569960869,603.4309860381912 40.99559329303689,604.5507456666485 42.84623549661749,607.6543100534332 43.23284300075285,609.7609803212874 44.21756495113755,618.047099093879 44.49997133301933,619.2824899085186 46.868950953233416,622.4831539020336 48.368482464262186,623.6792485437137 49.85955980780152,624.2997170194981 55.08092737281416,625.3244712870711 57.41008707208308,626.9072980318017 57.91114201837804,628.9999197196355 57.3007270167862,630.4551413970164 52.3710982071287,638.1144338611291 51.80204069948847,639.5461272012236 50.00538509259723,647.920302596111 49.54568691096161,651.6194294247173 50.16001696836518,652.6423782812379 52.3274469266591,653.5757472643768 54.06988991985578,652.8110240198081 58.4054696256701,647.8938716409092 60.13693329832228,647.6030281506091 60.70621857957499,648.2846705070435 63.67393875909786,655.4821913121206 64.08231300734111,657.1231793935265 63.96004585241319,659.2199893927857 63.12781795465563,665.8155287562217 63.101669269559515,668.748988364037 63.582002705267506,671.929256216653 65.44799582902796,681.2370905744166 62.18788208593652,682.8237452733764 58.65673397408204,684.1437537242418 54.1438913727306,684.4519409774555 51.981164691323144,684.827650703896 51.399021520542796,686.3786429857628 53.613603987938156,690.8000032202403 55.0087326590014,691.0639539580494 56.23247223488867,690.6073128454701 57.88502261005335,692.3978914597069 59.05068448863114,695.5143610892142 61.98664810738302,698.1036094297524 62.79922643781631,699.3896688118101 63.32409152823164,701.3712629404329 63.88764587630456,708.2002933812544 63.64827461699133,709.9949677480765 62.81861748802208,711.1704340112177 59.73177879876834,713.2649436763095 57.01792610771688,714.1204701457477 51.563764017268745,715.4439059741865 49.25423134405704,715.4703002621576 45.677820284445765,716.9797315990431 45.379988843187824,718.1025894845484 46.02581578402242,722.3052808377796 45.36205297603176,723.8324005059422 46.537786452852586,724.3049085097396 49.457136073939026,723.9823083861927 53.05036657954219,721.6038835167416 55.916085650241804,720.9174724053498 60.64452770525413,721.1117776017461 67.47415219618964,720.9978110534192 69.02476180912123,721.1552199858218 73.76243579302162,720.8671712528511 77.10388647172465,719.3365664335325 81.60589576978433,716.3692559420292 85.68263290256607,714.2994396590566 87.95354763500656,711.0685034109157 89.72113583147265,707.8826445483079 91.53174258697089,706.7339151184397 92.56736996336058,705.4913637798791 94.11247552789331,705.3709036532082 96.93153550556765,707.5784908233276 98.73187381071395,710.7067786638079 99.57006579615653,712.9069685045731 100.90208816620272,715.3718542155045 102.98950817038352,716.9028519685028 104.61693227310006,717.32891652929 108.53198732392465,715.6912276457216 113.7446979081158,715.141840779252 114.46812312120271,714.6672615300172 115.28550821909134,711.4935792762368 115.21435528208417,707.1683834195456 117.10577884850782,704.379782786469 118.53626737872786,703.349248437991 119.25398296291691,701.1057038315807 123.04469849719274,698.3915522161062 128.20671460588588,695.127854164515 134.0593838292793,693.108993205142 144.57093768462963,691.2406154306312 151.10565263643934,690.4478120619467 153.68593285247331,691.254107465797 155.94395579677854,693.4746407158581 157.25052592206424,695.7076731274612 157.7903231848282,697.4136870715986 157.47010779111844,698.7185865407341 156.43715861798924,700.4112769546919 156.2946196226899,701.9302304894329 157.35397166518413,703.7655426853719 160.3146312066392,704.5322810755229 161.9077128758434,704.0333408191227 163.22332971214232,704.1755242274207 165.13658206092106,708.4561282909666 165.07878822634973,711.540842943697 163.09726517769892,722.3070420705913 162.92476104576977,723.9064784248384 163.85454448399082,728.86360419957 164.90934924221142,730.3826972637513 167.0976307262893,734.6461157151132 168.9012355711192,735.5713601104871 173.13313836341754,734.4105013354268 176.22460961843896,736.4031955377997 179.29304377490485,739.538138727012 181.6859153655529,743.3614698909222 182.63279112972745,746.2845658941749 185.31604934279312,752.0319797152985 185.94944787440141,753.7092357610618 187.34470855242301,755.0461019807337 193.35633381790404,757.2731602789376 197.75293619962804,756.659867098743 199.67124414616143,755.7411760605212 204.02976103072598,757.1794823207055 205.98395027775922,758.1699794498148 210.44293531069178,759.1906062733809 214.05952575867167,761.5388606650387 218.05662240982537,765.9627016228424 219.80109196063148,766.6412222597514 220.98893609137141,768.2252469825527 223.24937390804203,770.3983691786027 224.47248598980306,774.4224151631731 225.4806053942835,775.2230566083801 228.2575159488705,774.9034300192711 229.2286300733032,775.4886073435235 231.264531172721,775.3457511672067 233.27605944563746,774.396052143086 234.91253437694735,774.3633287881887 236.06018681740153,775.3305925389619 237.32125931828807,777.302834723565 242.27314277571105,772.6588238505502 244.36804816684938,772.1137405412288 251.72295664855886,774.118520315574 253.12181001418918,773.6315235883577 256.0461902113917,770.7958516965218 261.144357327683,766.5005687614704 264.5694147053042,761.4088142597838 268.94263945555514,744.1739710914654 270.3092995438629,742.1161053860732 272.49587693283615,739.8421993818642 277.24751952818036,738.279496912211 280.62284566677096,735.8792379889173 284.7988077134562,733.9270422357508 289.2977493185586,729.2900549985488 293.36660665944885,728.1238882325539 295.91484174158603,726.2210059246177 304.6567776487993,723.1678794753383 308.51267899921737,721.3512870578755 311.193084890219,719.5154543725097 315.30051847334653,715.5962265704194 319.0731565191221,710.9699008259574 322.3083867386197,705.5112897103982 323.5411427280297,700.5555504548794 325.13074015219246,696.8522209695077 327.17862439484657,693.8115213097394 330.2241258150574,690.3632614060976 331.60088883577095,686.5000696559279 336.4839567419659,683.769505936589 341.8027632078032,678.8788178902606 343.86570042335984,677.8602032202491 353.4928935597618,673.7473127283397 358.557459868142,669.8930675765747 361.85190419086524,666.7183053617703 363.29872025193976,666.3814258934648 367.46496193322804,665.9511149327137 372.89327009094495,665.7558751356169 380.81399485764393,664.506614649691 386.08215271995726,662.9913167524568 389.2173941560461,663.0467964617776 391.9973705970427,663.5538195011871 395.02993461985227,662.5660500057636 401.5758814376446,659.7783486976392 405.09156312643574,658.5538174526214 411.3004350191435,655.8794258926107 415.88384276600755,654.8943265002894 419.9315025988931,653.5857089461061 422.56944347925617,651.219070799619 424.1958220405506,649.3614231434624 425.55851604484906,644.9687360627753 427.9348666915694,641.7688456929698 431.02228317573804,636.3953814133075 433.1117225269822,631.9768818319762 435.98979254538364,625.1187341143533 438.02124522573007,622.2753678766027 440.7853711613548,618.9707077138003 443.98261922622106,615.4304600801927 446.97734852754314,612.3688139911341 448.7507952753358,610.8296190018816 451.27227604387707,609.7856095381609 456.45151491815386,608.5588700242274 464.8396686674047,607.1891597291601 467.16390425127065,607.4502938824946 469.36044330904934,609.2245796497558 472.7943040832409,612.6511253363869 475.6602841102528,615.2553931339479 479.97261202232806,621.0247688943896 481.00004598306236,621.9480943506593 482.05023549841036,621.966224392012 483.76424675769323,617.3584933909794 486.02966638778446,613.9130051000724 488.6862742367466,610.9057573870256 491.7021633446211,607.811476403674 494.7962603620066,605.4437777146613 498.1700750308416,605.8563341345541 501.7506338164219,608.5373422008536 505.5389078420185,613.9568054975066 506.51018813027474,614.5245063602293 512.5704126042963,615.4812354862673 518.0371501748372,615.3296121646532 524.4582433207444,614.9652076402024 530.858790036985,615.1776341750931 533.9836109677792,616.4220454918883 541.9579416942078,620.2082023690476 543.2458319215593,620.6960123165672 546.3930151747403,620.6298713409626 548.9658740510891,620.0981337187281 551.5558140054518,617.9257053447661 553.0068215672384,617.927983928749 559.7965458562707,618.713348024516 562.6589558888002,618.532759367714 566.0380231935262,616.8536098749549 568.4634553323674,617.1396244860013 570.4087000476668,618.6634218805573 573.2504155147777,624.04937179276 579.2505124191032,626.8081525049212 580.9515552514961,628.3581250555444 590.079281533323,637.6598347292526 593.1796087543618,639.8732789112848 595.196970201253,640.7274731638411 597.7410099838945,641.3919139724516 600.4764719648376,640.8298414484842 604.4208608436003,639.5241582809388 609.6756054390784,637.4744636743616 614.0498592375274,635.4728057943621 618.8100935310674,631.7737622062245 621.0112709539936,630.2423257588009 627.6539749142456,628.2152409142084 629.3212797692593,627.414299338318 642.0087759983619,619.8570813595462 651.1044074513406,614.5737839981363 654.427439239527,612.4588264438727 656.5175775280262,610.8300102861033 657.3656524706599,609.5980839029759 659.5279673879451,605.4138778699613 660.1965732844371,602.6414189391495 661.6855887896194,594.67816700271 662.1971460182705,592.7944740767963 663.3021262541233,590.7625067891806 666.8663332419177,585.090002266341 673.3160652335279,572.8727777922154 674.4514510535467,570.9283699977634 676.6579626869437,568.3532240442522 679.7743092403432,565.1021331613576 684.8786059928607,560.7631888890273 689.9694385434527,556.6913172234592 693.7720510981492,553.8989198539332 695.969192453373,552.5308064439494 699.3191924645663,551.8438376719299 704.0732849943514,552.0405596388733 706.611224102958,553.0277629566938 708.7564794715634,555.4043245448073 711.6449711194313,559.2575222903151 714.4970188634807,561.6292503122482 717.5062412462893,563.0898569662031 725.0946404985468,566.1213315400175 731.2064499635442,568.899849506662 744.5966936689251,573.1035918821326 752.2959724247855,575.0317818066871 754.9262370635305,576.6194586307985 756.9227849967026,578.2131877442991 760.4863528102107,583.3384316796803 762.2436986347119,586.4334024667038 762.7817569094295,588.5244247579778 763.0767949338236,591.2334702575205 762.05941465119,596.0972308073207 762.1656204147181,597.140146210195 763.8661273773065,598.6723518086717 769.5202851439925,600.8771842766525 772.8620883264745,601.2928955513255 775.7917316553087,601.4325921310999 781.5804353145762,600.8862790864224 783.7261185498469,600.1707481503662 786.7617444240148,598.673171890808 790.364819817412,596.1838227913257 793.8886218713354,592.9598604594025 795.9031201139753,591.5250427418742 799.21862974892,591.6806371687904 802.4957245469917,592.3541532858573 806.1095830785968,595.0444312520489 809.4598722514198,598.8810940879449 811.2205462912501,601.2504487646121 814.6226345000152,607.698942106237 815.8011904208679,613.9383111652626 816.9246300427469,615.1794335487182 818.3553355092397,613.8527403909511 820.1580398968839,606.9571753472824 820.6917675170215,605.4989345375227 824.2560788527863,601.5965161646217 826.5956477445059,599.5122016542484 828.3515204354294,598.3262525082458 830.7955576047534,598.097025820398 835.008921890258,598.3268301398805 839.4658814456533,599.3746631604666 843.490511237837,601.2117665126937 849.846826106394,602.2645856153326 853.7901879080088,604.1852986937436 857.5319603512656,606.4836369788375 861.3787096033526,612.0144526373425 867.2969472478359,617.6014616721177 870.7843348806582,623.2622445878584 873.8657630675286,626.1638490428477 877.9793067569894,629.5633769147105 881.654457822158,631.7244921984272 886.0611467111827,630.7671428392325 888.9639441419579,630.5908447413012 890.5586440532986,631.7820400177548 893.1926545415563,634.5124051585906 892.8936804821356,638.1114359433097 895.1790243276281,641.5291993860378 896.132744010552,642.0319561225531 901.2802921083963,642.0011859272895 909.5189917894488,640.889089307459 913.0022628629745,641.5335609858406 913.9125943920967,638.0997916283303 915.8363732730821,634.5173436149097 919.4723017463701,629.0851490140413 920.2643062472819,627.456416073084 921.1852477562244,623.8992212529449 922.7194677633473,616.4074428176629 923.2614476734743,612.2449100328141 924.9326317183403,605.1036028430311 925.8548032956795,602.1601743762213 926.9814518994928,600.6398005376655 931.2552716013374,596.8740639210926 935.5921818963166,591.7500143220327 938.3523736482206,588.1273715618897 940.5395440351598,583.902546197319 944.4830221992305,574.974377374079 944.9427052619352,573.6423763525784 944.8688945715295,570.3921799799978 942.3544147977466,567.8951636585355 941.7203630863612,565.213808979503 941.9865437806682,562.4346287674491 943.0564106431992,560.5284611953913 946.1558697574271,556.0884601912067 948.6090640527295,553.1943587240888 951.5008502011976,550.9509778718823 961.7362575490748,543.7599071006662 965.003112292725,541.0500164437447 969.2991052253172,532.3495698180449 971.3966724217457,528.5667472514962 976.4446744550679,519.9949150115533 979.1272231154871,516.1032816413908 981.8962517428162,513.8030049855213 984.5052970794432,512.0857089836484 990.725304872307,509.70303720192425 994.4410829112804,509.04931586250416 995.8776366091346,508.51969224826416 998.3670072801318,499.6278377301726 1003.8798749935278,487.1792822984716 1005.6925397557728,481.9031401765149 1005.698252785523,480.07614208746935 1003.5170802029144,476.48890943587037 1002.2956505503475,473.56407366635034 1002.4424219997687,471.9437495322327 1003.6709646787448,467.54819632420254 1006.4699282554959,460.4048947839437 1005.8209518976284,457.38524724646413 1004.0828130301288,452.1273708027574 1004.2109014530236,450.32648941604486 1007.7044530227222,445.98879806464714 1009.6551817307923,443.13526352942336 1010.1931316918943,441.15814442763 1011.2830904871536,433.7281911140547 1011.6591472287355,429.70889918272155 1011.2772401853844,421.7467063851394 1009.7657710990937,405.28456760137084 1009.858042535627,392.935845144437 1010.1393362527739,389.67271697833445 1010.6171823147054,388.5049476889268 1012.1850673138133,386.613977604542 1018.1947825825284,382.3093643515184 1022.4376511177751,378.91434305875816 1023.7429372911704,376.853320448634 1024.0,375.33791649575846 1022.1774267635637,374.5007765420237 1020.1848941279092,374.6982153387479 1018.4081161871015,376.17697821543777 1017.1010421257288,378.3554290258059 1015.2263892064029,379.5957251418018 1012.4268542719176,379.89255945557846 1011.1696216185219,378.70111230578846 1010.997865836619,376.4926850536274 1011.1315043639302,373.7135108272286 1010.1498511372046,372.52613753139866 1007.699503706596,370.624218816796 1005.8440544012186,371.1699321764417 1003.5431027578637,372.97906932949047 1002.421865381515,372.9320272097628 1001.2099514755524,371.44949888710875 999.6080910227419,368.69110397431837 998.4040660248552,364.65032397264514 998.9237246928197,361.86878691909703 998.9725673246659,360.0201283987394 995.6892198777829,354.4980317571554 991.5426221720071,349.41268113026877 990.2469625361994,348.07669408516057 984.3009210637154,342.55513701704257 980.789937338068,338.62757323574505 977.7762550317959,334.97680447936773 976.1937094329971,332.2751925718316 973.8667851984558,327.6501957254232 971.2775228433609,322.1542512157051 969.0125431486392,316.85355000908856 967.5835656752943,312.8233167141871 967.3522615996355,309.88468319716236 967.8186631853813,303.3407764028346 968.7008974913014,298.9280218349058 969.7650343259736,294.5909232926831 969.7564803403563,292.441588290197 968.211934283448,292.08817244356453 965.33717469017,292.02058637625333 960.8533384772447,290.4580766725323 959.6933895083494,289.7072925076407 957.6426453601156,287.6851239197077 956.9708090088852,286.2732277760159 955.8474166179349,280.4000968373998 954.511399561319,277.66350283724057 953.5853530720914,276.84734177899577 951.2442820162298,275.93684242137783 948.1436308503631,275.3085303727834 942.9166654294045,274.4959920817102 936.0816220734617,274.0153892227719 930.3910068334972,274.8261448432855 921.5394239143787,276.86263332285023 914.3400636103456,277.6519329565656 910.696907499346,277.17073031596095 899.9009595036681,275.13931277369096 889.5942005693909,273.6658612593193 887.1206965472404,273.40687918651184 875.9475873768129,272.6830525332897 862.5427597553487,271.1278037021467 860.5960262938662,270.483711010318 857.4674337346758,269.0412823561392 853.0663586220621,266.23387030876074 849.261330617946,263.0487592318575 847.0712965561995,260.35474895029313 847.4100727507036,258.91975666689916 849.021606262926,255.64504642497604 852.0162723622714,252.5600660534884 853.7278025326299,251.2964033175965 859.771248039871,248.81596098278067 860.8611285604879,248.2110442097711 862.8388320467021,245.5962537107913 865.2632228113823,241.10853245732972 865.8873615336704,239.02567714447605 864.6282828715589,237.37538700710058 862.1025177388425,236.62098922120947 859.353023068519,235.05886150559968 856.9491170913587,232.30488401270713 856.5380432358401,231.20458073882742 856.7347486995096,226.4553032994511 856.6328085701459,225.13091522932325 854.4865730969522,222.271528792685 844.37076290281,210.82797073708377 838.879261210472,198.34637148257798 837.7295809738853,193.60632074930663 837.9517463690784,192.46931748085126 838.9349175358988,190.83985308582987 843.90133605759,184.2125701941003 846.03297703202,182.75098390306675 847.2127424775491,181.03948562581047 849.5325855827107,174.70081676054588 850.6333527317798,170.7678595611277 851.4055056198864,167.0586647331927 852.3597826966836,164.6508137881175 855.1713183253639,163.42869158237556 856.564242736817,163.6388513588421 863.2647983931032,165.22220920802306 866.6085638984845,165.8637995639233 872.3644707797737,165.9452604215628 874.4842769983492,165.33402559180013 874.5760804874805,163.99847536316054 873.874634658486,160.55600173823905 872.7670124601193,151.82209284798216 870.6938224516242,146.93417916355372 867.2889966742133,139.85593890950042 867.0002709293959,136.72776343357748 867.0599981020323,132.3247536481091 868.0102393602538,125.59589733121072 869.5736761816873,120.65720705335241 870.6988626592824,117.7414682951943 873.3560939017705,113.37685935460308 874.7718816793275,110.04022080706841 876.2618994719331,109.23689118357913 879.7897734060763,108.37202361660445 880.7232976655372,107.3797316783614 880.1820441610786,106.09714547638748 878.3522388021548,104.54132507367274 876.5456755426158,102.17758141415288 876.4440814920712,100.83091666104087 878.3944932656372,97.93607704770659 881.5124917594594,95.20722997073585 886.2674521983816,91.45844989759712 903.22913761763,78.89995372491308 907.3127124513973,75.69137371882118 911.6380923729674,70.60657946360277 913.4706850873968,66.66437309258163 914.6069037938212,59.62628647102849 914.798821610006,57.07481251787965 913.9549692999932,55.03206943843804 911.9849528256007,52.68231413834849 907.9994182460733,50.2528677932072 907.1838543991859,50.29701748827529 905.0357270120074,51.5603540483562 897.9259943082876,56.23127471325893 896.4569292842549,56.97225936638392 894.6517199837338,56.48854598424839 893.5589263904343,54.02455492311958 891.991871416831,49.39986104083823 890.9463339796001,45.83863644422672 890.8300447680181,44.177761004209174 891.4144025578985,43.24282479154806 892.770273994062,42.46974112785301 900.0017284712724,39.20674959110033 902.9055502062113,37.16915799642027 899.0789003953051,36.31595487272273 893.8885843978569,34.79536093574768 892.0477451946042,33.98896821080382 890.8212434884517,32.946967245715655 887.5653888647657,28.721437913726845 883.9886074102644,25.62324999185057 881.4206523504789,23.75207308402264 878.7604866127851,22.562101384117682 876.7283239123251,23.67906595724105 875.0247694309882,25.12322459200516 872.2279511209069,28.144590159012523 869.7390607704867,33.61175114359287 869.0283713184564,34.78775003480314 866.5804908481546,36.368111893579 863.906033436364,36.767946249748434 860.4402065864182,36.23365101790614 855.3468836458835,35.67380139268596 852.0271879855565,34.42656072071827 849.8339508779669,33.34685516146783 848.3316392165613,31.68037730181277 847.7688429674492,30.553318442187447 847.0461736885711,27.286567671071452 846.4583979869828,21.876649572001725 846.6306999253297,20.062248335451045 848.2919207631436,12.171670319966438 848.2897848650907,10.386939382558467 847.4378342504707,6.881134916536212 845.9660479750397,2.7234104369131273 844.2363514324593,0.07080928309210321 843.341110910724,0.0 841.0686156664583,2.7395260151838556 838.2201208380129,7.6719651639406266 834.3062438635474,13.06767328440128 832.5829333615454,15.18576936493605 831.0261719812981,16.30980287414866 827.1487562823943,18.14263238040735 823.9407820202312,18.16278936029221 818.4936008979531,16.10339865693868 812.7790145411967,11.77478264204467 810.571671192393,10.380410473188135 803.587895333646,6.4081387686416065 796.0675105401118,2.8200516111005527 794.213270954652,2.3346347735141535 789.9969466499881,1.7101426430314177 784.1830729870707,2.3078680154713993 778.4636783655207,4.647119666559661 775.3391237452413,6.444488012015313 771.3749907586166,10.995572615324818 769.0017927855487,14.84898298779433 767.8990091486639,16.97049420980875 766.9909066059342,22.76591064641343 767.123883127212,27.076956746685596 767.4506786003651,30.817815454532933 767.9429985473158,32.54767848413519 771.1624192611963,40.11723545552502 771.7515416130668,42.12415035378115 771.5845351630895,43.567893234076564 770.1718543876119,49.71984930050837 769.7708705830119,55.66725084866039 769.5420007994446,62.28390719588231 767.9256038480132,67.18265489342389 766.2477467447704,70.82035284663664 762.3866996341665,73.29856872387325 759.8627787062359,73.78461684958381 756.2208537043687,74.11889643652137 752.3407952105559,73.47484948763633 744.3011913770022,71.68568207314763 732.4166028970268,69.62103629559647 730.5301749748857,69.11835434166483 728.3516088887817,67.8005688855684 727.6951272895881,65.58780641193198 727.4098950563708,61.83942406866254 728.0630683366519,58.035409964719406 731.3942953986134,52.99260527475167 734.3220916093475,47.63730101757915 734.6066022626778,46.40819232683634 734.5869163069362,42.70262617616322 731.1817104395162,41.610041184862325 726.5093254423166,40.81886988000065 722.3212395436517,40.270487387206 713.6587534746301,40.617263699706314 711.8269457809031,40.483987233379935 708.5931270052384,39.55791900669578 701.3604491432307,37.160272595672836 694.1359079152269,34.92456531340417 689.5511074184845,33.78756084911811 683.122785056555,33.23388024753524 664.0320989458712,32.28188750821721 658.6202919925169,31.884090848393726 656.401008048658,32.422550569025816 652.9297440417013,34.79383951867521 650.3712237511825,37.3626102145779 649.4178538925935,38.95933709718497 646.5029664606108,45.75218906537327 643.1704595018034,50.10899759906431 638.2087614544427,53.87939872292759 633.1752778982841,56.94145349681855 630.3296470636012,58.38690870694177 628.9393918545702,58.70194920403901 622.2613009293339,59.653571314310625 611.7493624157579,61.45821776698472 605.6807008432083,61.953616350061566 600.9282217483026,61.05495092042895 597.5796627056819,59.039314249619565 596.330007506588,57.020628014832596 596.1173378996555,55.736648287456774 597.2500355636403,48.39359524511474 597.4534728296818,46.02265211936265 596.3640622353118,42.408212808232065 595.09643773376,41.45889381662471 590.6259680483469,40.18790399047259 581.0794230962508,36.72366446950116 578.9913117157196,36.10673317293981 575.4965085690555,36.25191203574502 569.4635986583057,36.973723073419364 568.0208182494068,37.35026226721868 566.1598229966338,39.03247054031419 564.0712196030128,41.3570562471707 559.9276604677863,46.62668908582077 554.9908040273195,51.75707117383922 551.6583388191034,54.22436475037466 548.9850884384034,55.72842356656474 541.6387552089597,57.61619934624605 536.7661360187165,58.3489310083412 531.0813555131238,59.01488974394931 524.0316983515859,59.64093948431048 515.6716029018096,59.4397779779697 511.0770924607226,61.226186202414624 506.56729729342095,61.603881986224906 499.6802311348349,61.034577414844534 497.10260505362174,61.706980862573914 495.22250475831555,62.60219083214804 494.3627096635605,64.56055101042227 494.4178918755403,67.81930723696564 495.0812428317241,70.7239620462318 494.3963135298386,73.14323878305413 492.51719019017486,77.54746776567947 487.64054111489645,83.1576201901429 485.4549573732633,88.1156343118198 484.06367910385825,94.36791215694677 482.894382566765,100.61797717186619 480.50424335552424,110.26054100255556 480.2818380374533,110.79152313824443 476.99778736645345,111.4979948852224 473.7403373347394,111.39245543897255 468.5801976957573,108.06261048405463 463.36908239991044,105.42057383657823 461.09200913343574,103.39920125898595 459.0597303507128,97.85683601220171 457.32855382428403,96.6148805348871 455.18236897378614,95.84578135055347 451.01273453643694,94.80402123555803 444.53321649356616,93.62016991659652 433.6598228366207,91.93300867702885 429.5596261829678,91.0905839581352 426.4169162556506,89.03523563230556 424.6436587025033,86.17343691574854 422.52389693235745,81.02212460114322 418.2955973693633,77.0064251562402 415.3258726277451,73.82949856249093 412.50388689139874,69.24096688199472 411.1170990366643,68.23365644524517 408.5913998366983,66.96090303798451 404.545729183851,68.17130658399697 401.577447062905,69.51026790612082 397.9917728305707,71.80662165453646 394.05928478508383,74.62349596499917 389.9227313107547,78.11943572870985 387.30230751661,82.7304548682896 386.8416419238289,88.52080874733304 385.4667839778173,94.18335527199145 384.98453276172773,100.68041580751697 384.8919385167018,106.94132502172533 385.8017104176852,114.16432394447611 386.1705541869134,118.66473275983992 385.793673278732,122.05569256772105 383.88084274765123,124.12247278794223 380.0175434490674,126.48453262025328 371.61618365677646,129.00210091302665 367.9022144004455,130.94926386218935 364.02646247867585,133.8862306158759 363.29763212866203,134.80105357105288 361.51895077679603,138.47471971707682 360.4818047487309,141.2175814886108 360.32752103154604,142.97748915020316 360.7292155846902,146.71473123331407 361.6070568250711,151.73494486751213 362.37777959616204,154.22062996078262 365.9571177776017,159.7858086474563 371.32878482612136,164.88873454314296 373.0940296386983,167.01334269474864 373.6546677042079,168.1478670069721 374.2256469784734,170.98446702574518 375.0468225104264,177.50690272176826 377.9027131718408,193.3471541199391 376.2538947136909,195.41863595271923 374.08977383256735,196.19837438758577 372.12609930158965,196.50151110938396 361.8547735698795,195.1358142377045 356.4899337468627,197.01668919460496 352.8350818362421,197.87876472383607 351.56941800456275,197.90254066497687 347.2051199270039,196.8168195542653 346.1618420097419,195.9409468215283 342.40940155716476,191.97697853812053 337.4830447175582,187.1022256332849 333.71960919372646,184.93906830677963 331.871541676176,184.55099523701608 330.000144383843,186.03661733374815 327.9766314354969,188.55884905497055 324.0445462872684,188.3456071652737 320.49576755400943,185.62082165735865 317.77911492947044,181.407750014131 314.74693678700106,176.086683312451 312.09706015968277,170.46658793207905 310.9370992886757,168.6969000906255 307.99567765352435,167.2816755662236 302.9294193980316,165.66345701938496 300.9273658874382,165.35129516088932 298.25356898403555,165.5313227214839 295.930324621109,166.07028201481796 294.14953487920906,167.54914647037435 287.17439595282895,174.87331811671766 279.5095714259852,182.66682831737432 275.02651251833055,188.06301183655876 268.26195192994,197.19378059813187 267.3021985387564,198.35732212118705 263.5505676935468,201.641367936856 257.66542661469975,205.16148499014605 256.1642166278225,206.96131312072475 254.15019991743839,208.33223412432744 253.04564927669674,208.47794134503908 251.95695399962452,209.4951793952074 248.3004071653373,211.45969315537377 245.37202021928445,211.62627010293454 243.88326931548457,213.3208919090498 242.17292015373312,213.73896898506382 240.60577272199194,212.47393020215816 240.24274358175848,210.58489283006918 239.28246853319766,211.7645207293249 236.200224175175,213.03642120753216 231.25142034095677,213.75688453753014 229.1724593295842,212.1114424291411 229.3913624751945,209.6132060021098 228.54047291851526,209.30559476429391 222.78558276192564,206.27053250177062 218.01954534954174,204.34587420572439 215.18189317117293,204.03351264944683 210.77586861900735,204.05446026619472 205.84291892663003,205.07043117868693 199.46600466911016,207.55047485027148 193.9528897345569,210.68076349303635 179.95073944012555,216.19595074833364 172.91226478527318,218.00019042949782 157.87598301015382,221.09337979114787" /><circle cx="607.5115678781007" cy="399.2359762866891" fill="rgb(100%,100%,100%)" r="16" stroke="grey" stroke-width="8" /></svg>