<?xml version="1.0" encoding="utf-8" ?>
<svg baseProfile="full" height="1024" version="1.1" width="1024" xmlns="http://www.w3.org/2000/svg" xmlns:ev="http://www.w3.org/2001/xml-events" xmlns:xlink="http://www.w3.org/1999/xlink"><defs /><polygon fill="black" points="218.5262618056105,1024.0 223.52290201610157,1020.9369899975467 226.80409850109567,1020.3869815566966 232.55481088996237,1021.6336219425646 234.8619320603033,1021.6011993223705 236.1530339151012,1020.7907372114219 236.23178889389385,1019.4421937691502 234.98827514678266,1015.0871043112071 235.18468621254254,1013.5513050936873 237.08654845994712,1011.2817462209489 238.4506709629311,1011.5919551544969 241.15973816614462,1013.6523632158542 245.775878059759,1015.427837143738 249.31757028566176,1016.2617220611604 252.4040894566247,1016.5876419024378 253.88967867687563,1017.7394651221961 256.63509733879124,1021.825417086502 257.89811013953516,1022.6508529137545 259.6209584860486,1022.6977142792825 261.4206222441943,1021.7556966249166 261.057186637893,1019.2705093721363 261.1572573167454,1013.5489075597725 262.2114464245051,1013.0298258006733 265.2344880744004,1013.355864820625 268.4656689746546,1014.9337142043613 273.474182157668,1015.1988237786442 275.4500439596346,1017.2478419513961 277.0096955109441,1015.979305393637 278.6950972345321,1012.034334556958 283.30529430531436,1007.6242110702195 286.2114575104297,1002.4675867364045 289.7405625066409,998.3519716018701 288.73094990748604,993.4614292492658 287.0554909023923,990.0314750530393 285.09524188569,987.099635273355 282.4833845553033,985.041800028917 282.32685022982224,983.8103298603963 283.52732246585043,981.6230069219738 283.90015860228783,977.4530941549496 284.9393028782882,974.1275414899851 286.7307440279186,972.7537370266913 289.50844697029953,973.3280440833133 291.74071285901636,976.059319007936 294.11053358054954,976.1571810647989 295.9033471271309,973.7650336518999 299.2998342386781,967.5762484791516 300.78797449579037,963.318609754051 303.05212410287436,962.1739903800777 305.9818840000892,963.2993696314622 309.2152582883985,966.2301426894567 310.92732617630656,966.8403169322215 316.25178929749336,970.0052243012378 318.45688863498856,972.0153900964765 319.74523774122184,974.411211630982 319.7424582294559,977.5257545372787 317.2601246086846,981.5650253602979 317.30392186304465,983.589692373302 317.9984078338029,985.079961636484 320.47904074679946,986.007199219091 321.218312069269,987.7739058921289 320.7917905629733,992.3260755934161 321.8703929321578,994.5305702580838 323.1311304267228,994.8089973148443 325.525827555561,993.8755324728386 328.3464078173122,991.9490246728699 332.3375904110635,988.2856011949098 336.9771789015864,985.7528172636565 340.4906992018912,987.711411750522 344.5499277003361,989.0132503403663 353.926773705192,988.1903230636258 358.1646753986213,988.490516381953 361.77770695188707,988.4303622708828 362.9323477633345,988.8738950158548 368.01779220533444,988.7060696928951 372.26147015542085,990.0025411055856 375.48792261667353,993.5065297908052 379.4700320443681,993.9114531138122 382.11165399513135,992.0257159422486 383.954002844854,988.7544431390826 387.75693040143744,984.7199778929296 391.22074260687776,982.6862654580248 392.6137609662063,981.3252044492352 393.73258413470995,978.7046769160539 395.2435199139051,976.8475899408443 396.1689420537873,976.6368842291636 398.8137556092581,978.6882381871338 403.7102012857719,979.887188250748 408.43422151185126,979.4548974503223 413.3529255827437,976.7151695354696 416.90246738008193,973.1660836314117 419.05117542056826,970.4758521807944 420.2528386743442,968.1107561396582 420.044197311501,966.3768157406355 420.8127592127267,959.9692284907607 422.1589409514203,957.9923539432577 424.2845084587077,956.0120560610883 425.00433194314303,954.2720496028455 425.72314706061303,948.6690663273885 427.22726630597134,946.2582342048596 432.85777231928415,941.0183906375719 435.04425586884054,940.8551278213055 438.4154689939906,937.7834747408941 440.8585070017455,936.9373404824194 442.31075244694773,935.8214442791665 446.2377750206973,931.8762753575934 449.083289918472,931.1253208507106 451.66039719004726,933.8309263311934 454.3063173877462,934.9732099804755 457.75262662440866,935.4020400103036 459.6357186821682,934.9767443539075 462.7890723373966,932.5959689633813 463.17096234902584,930.0610861093406 467.1327572301708,930.4795512564968 471.2496274959373,928.1830369818292 472.3576070849203,926.8061461588915 476.09303248599275,926.4676492932051 480.1245945016236,924.2643916483711 483.10105148575303,921.1365384925443 490.4812518196643,919.4019378397921 494.1434710312579,918.8892640969309 496.34018512929543,916.9672262811282 500.4827952630743,914.657829411055 502.9270321534497,911.9291921125975 507.6125894826185,904.3819548788813 510.7064694292589,903.8693836227299 512.4765913479661,902.1504581950895 513.8071096129522,898.4897363780124 516.3424339101107,896.1085656106513 519.5731752957363,895.2843671205922 520.5546648472572,894.5458892226302 523.4269529695655,890.1564000263536 524.770062655592,888.8871714776309 527.1486076837263,888.4287708568038 529.4245624026404,885.4681711737759 529.9470099515204,881.8346880861336 534.9938064017597,878.632896482642 536.2402714725346,876.5654559204547 538.1522002894249,875.4592653542265 538.4059971412607,874.4277217907096 537.5565460141172,872.3309571086372 534.0243845706741,868.3807375282202 535.1029299954854,867.0764796088847 534.4017861357355,864.9668388221938 536.2148369573623,864.3656748982511 536.3791989426035,863.151130122957 535.1742007135483,860.4678264196732 535.1634950777423,857.1231379172748 536.5772876540311,853.2072329642451 538.4867661841151,851.9988056320683 539.1105660775879,850.8983568278657 539.9345195374165,844.7379761494432 540.6155969444966,842.8062300001344 541.9604769377886,841.9992985141428 542.1756375340336,840.2210080105694 543.1398501453875,838.9712130846476 545.0707751407626,838.0082222257206 545.6993928882903,835.4935320235842 545.5340251245547,833.2822297728812 547.22107753286,833.8518801431956 548.4652198484231,833.1596899084147 548.3134364178921,829.6665549391297 549.2033719284901,829.0127243721058 550.7113076589418,825.6087803209512 551.8463925958797,820.4901205006582 554.5037116198689,817.6780497571093 555.0774635429063,814.1812808323829 554.3132220026911,813.7358921689223 553.6667964016422,811.5149535613346 551.2337697038663,810.51936905518 550.083500604368,806.5880730701168 550.9822573334891,806.0975743286826 551.266786812502,804.390559920915 551.1773586852619,796.7692513886586 551.7783072650279,795.4147063105058 554.1595884200539,793.1317271865769 555.4070539824148,792.6551483259137 556.5560673235908,791.0225069305878 556.1862251103283,789.1859511010227 560.0833962998772,784.259638438728 561.4396007889814,784.0873143704948 562.8121270407643,782.2461760045177 563.0232971452266,778.4207034077565 564.0489280794748,776.9245718103653 563.7503854549218,776.050003574436 564.9130997288806,774.007910279043 564.6956247032771,772.1076784926032 565.3255495152378,770.0056100219551 565.2132065077445,766.2907795481437 564.5295217209776,764.2056978429305 562.3790489454174,761.5993453255173 560.4592408089965,757.7490137317258 560.1495703473133,753.3226808884025 558.3061107727543,749.2670314626207 558.2631743780154,746.6777566583806 557.5725933813177,742.2912686971749 556.2521174454744,738.9517044910026 554.5125708204442,728.336135656247 554.5234453383672,725.2967246807918 555.9067462514028,722.1272564623337 556.2563876663341,719.4602509622783 554.8489413969044,716.5534942505346 555.5217007386257,713.7881463874581 555.6512709093009,710.4305457780237 555.2370534968686,709.4373073552315 555.2517668703284,706.0518419718696 557.7723994335419,701.6521528122778 557.7712914900673,700.7835962845932 559.856819286047,696.6088011561001 561.4298723933888,691.126256655765 560.7719713007149,686.4372954098724 562.298422629097,684.4422865810575 562.6290623483569,682.2785802606761 565.1976652896614,676.2040018027162 564.7335493565499,671.7571606127322 565.3457454466754,668.361468800332 565.1857932812637,665.6372056537812 566.6558915946579,663.7462575259067 568.4151151819134,662.5639650558412 568.8923722748361,660.8992616060884 568.9266794431072,656.6070759974168 566.8159781581189,651.931770296265 566.9950594950027,650.6921500214751 566.2749827768488,648.1637614594543 567.0590592754916,645.1029794404571 568.2776180347282,643.729269867845 568.4992896405704,642.36605175393 567.5282084453349,638.4844871986543 567.7064119047203,634.794473381844 567.019106999526,631.918614113203 564.5793054886497,629.3971761549417 563.466549692192,624.7137349727193 560.7765834520433,620.0332745707194 557.388225938734,616.2253229136666 556.7339731703576,611.1051817923442 554.8553632878806,607.2964339456387 554.6582084597944,603.8916105947087 555.2942078317952,601.0925456612428 554.1072264807035,597.1474000396644 555.0606622152126,590.240774103836 553.4949515668211,587.7536818101373 553.0100561641016,585.5293631618285 551.1088547664015,583.0287806093908 548.042388204501,580.8689570442904 545.9979403622143,576.4033395632193 544.2595015911003,575.1439479516124 542.9944219000389,573.1410357582388 542.7894238833057,570.9320902584021 541.4256050779798,567.9824437555542 539.8937243454642,566.779971132011 536.8380397152874,562.8763605165814 534.6498038859476,555.1932819584812 533.4709191365787,553.1990069401802 540.5901104454457,546.5891081859204 549.2482885763187,537.5723780134053 553.4478608960405,533.4382347869586 552.2615925076389,480.7753427322226 552.0421927174813,467.91503455330826 551.6702334103205,452.3751410869711 551.086397250445,420.0665926805317 550.4202419748086,391.90644509956223 548.7173185621646,311.12979295862783 548.347395080249,290.94589804266184 548.0221297106208,269.65429284532513 547.6209777556672,254.11847596323344 547.2839112890342,235.24319062131178 546.8799683694539,219.06032102526206 546.4804046362482,195.3741639297557 546.2683653473104,187.74871202306304 546.1359867470202,175.90578014637924 545.2316738486513,135.31940372209385 544.9402380028537,124.50299538867023 544.246431419339,87.52065419531323 543.796064185463,68.9465019376729 542.7606373613507,17.787040650588892 542.570227563054,6.9649561506629425 542.5963478667832,0.0 126.66877766540779,7.067925233098663 118.21007566603608,40.54089471346549 112.6161965126075,67.1819662713475 98.7459069663737,131.63745008313845 86.92902383164378,186.86688709720477 81.72278616775476,209.7146998335827 76.19978584622334,236.55558738120124 67.66282878763849,274.9613955355825 62.7563639886232,298.1496525114245 56.60590209678951,325.98756464454516 45.63010700027702,376.41316023073114 38.96779135695823,406.72663021531173 32.309449676229725,436.6503750256999 25.05387220411106,470.1682104791205 19.636110638411203,494.8450107282689 14.411462531973408,518.3506904361925 13.102603007922719,523.3321343569723 10.60690615330425,531.2701093193019 10.61388927128752,542.5661538930267 10.410121101924172,558.4624382872039 14.273213555521616,568.15763665842 23.34679949138502,591.5481925520551 25.3137843978388,643.3293637005356 7.650742405275604,705.1489261547739 3.742590458269644,718.6696764250917 3.3082909449957034,720.9948932940288 1.6943242741993176,725.8673766422008 0.0,731.8753415557511 2.6667445848335167,731.5435923056816 29.474061267428546,726.6092212158019 29.962759985049264,727.5960520919041 30.173961714753137,730.9787281575949 31.72211445511165,734.0520047631209 32.89180549999631,737.4871527199954 36.29085496414218,741.8513595733757 38.00542070938336,742.6825759698575 45.251003848064556,742.6082291268502 47.89037916958369,745.1080383022734 49.49881533681094,745.5614141404187 50.95009748781318,751.2137809610829 50.532491647614314,752.7535699628585 51.095414196578524,756.379406934098 50.93081055773824,762.5113799045932 52.232815550851,764.2065167484602 53.588791978994166,769.350442929477 52.92134094278035,770.5143249602247 54.2451309897295,772.6294208404186 54.62241098796282,774.8157622572496 59.14830881310974,777.8796925861297 63.63977618793403,781.3638191541178 65.41794670468074,783.1671651070277 67.11137994626043,783.9886215871961 69.12671745301755,786.0549974950214 77.50076925965453,792.4562483494099 78.00821821153681,793.3925379709276 81.89433602937572,796.6576547081235 82.34399908665283,797.5839118461524 91.72163365293328,805.4474143637926 94.25948373956814,806.5969141777339 95.9130679564031,808.7807719148062 98.85365858398367,810.6114272019787 103.66900912610015,814.4496464007798 104.90639231702737,816.1973131791136 108.35828716994014,817.1712118839409 109.5967522792764,819.0422086015744 115.319664483947,818.2068023785092 118.65340964858147,817.3891854242615 127.41484787158696,822.2134274092147 128.57315620048792,824.9049775071811 130.98173437556028,827.4579816282078 132.34661079520782,830.6595933261885 130.164707036569,838.4237050622563 130.5816040912444,841.6686515735526 130.31220354975756,843.5164036055697 131.50369303298783,846.5574216964934 131.89117866346274,849.7512009573536 133.77996935337686,851.7895447108731 134.27266250351644,853.2699768766897 134.0293376161189,855.3643460580115 135.6772896488129,856.8520209710555 136.86160821074452,860.6108560697191 138.38216154511926,863.3509230766329 140.73017973808646,865.9271152822529 143.09658978190512,870.8936403094594 142.88940855619384,872.1577438624732 144.16972655277786,874.8597104518024 146.3651050780488,877.9722359968434 146.13328733702483,879.103387964048 144.69505837381175,879.859413200978 144.27127727197106,882.1522746703745 144.46294867855536,884.7155437654363 145.5130523381825,888.6524326447379 146.94879851989873,891.836434127782 146.0814200864582,894.8223830734375 147.65950555366967,897.9334781884488 149.5725525402437,899.8695705788571 149.3228401710045,903.2804176644696 146.45094382965746,904.8448403233788 143.16991107327485,908.5398566305057 143.20062206828962,910.5613908642788 142.21621215759964,914.371996157979 143.33705249173968,917.9720208357064 144.82400134756992,920.6027615698285 146.15773322646274,921.9206576010138 145.83358536868553,923.978444506105 146.33378413333935,925.5535073373908 145.7802067194739,926.6076622154075 146.2877698676849,928.7786593761278 148.76620982444442,930.000612909743 150.42887883493657,932.9176295754693 151.80680804761948,933.1368038512167 154.63422288221662,934.7547502490295 155.91714951777877,937.0189845353066 158.78658877766264,939.2215716348746 159.25986882897328,940.8696161341873 163.72265207795525,943.5661224476274 166.87388110221215,943.9577885056466 168.43546905855789,943.331220200674 170.96128862912823,943.6692834543071 171.79866773084996,944.6551984006671 174.270499970109,945.2496952978817 174.6500177944887,946.6935939918387 176.4152312418567,947.5848857006663 176.7028562545937,949.008699974039 177.63312879814134,948.699053748227 178.1672124990938,952.791591633746 177.9342158715909,956.9145041256327 178.2871757092945,958.0300445926509 180.49777536285063,960.5498117053362 181.18315810922624,962.144211808467 180.13652531903315,962.7636660419199 181.10723838264687,963.7689562402246 181.56161187698157,966.5273506455252 182.42574317308333,967.7490334424625 182.3346990318449,969.5285023569766 183.65423810255123,972.2551529302841 187.91421675791193,974.0193117109382 189.07213433716282,977.4780686771719 189.74307457397046,978.3432458768751 193.714272812766,978.5883451684599 194.2009151457469,975.5085121715437 195.4962924622262,974.5763988168944 197.63053021436284,974.7123029122602 198.5945620009737,972.1607573323378 202.02351092764283,970.0593355552382 205.05717088378128,972.6806184640404 206.8168547918633,971.7828084615766 208.2497694821232,973.0282402569635 214.33778515788345,974.6205847216969 215.92153051666173,980.9721914014818 216.2661112086448,983.5167853602677 218.14286394098445,989.8659383336854 218.52382072968732,992.9766222037933 219.11127989014554,993.5752040537122 218.9990078095411,997.8953821052529 220.06948656780793,1000.6580635346504 221.72015332961476,1002.1879244242558 221.85418590791147,1004.4279666896401 220.64144094409997,1006.7798139883005 221.62682282867272,1009.1528195222227 221.73963447960273,1011.4863598767961 219.3837279812828,1015.427844307768 218.5262618056105,1024.0" /><circle cx="123.12282367884002" cy="702.0273984229641" fill="rgb(100%,100%,100%)" r="16" stroke="grey" stroke-width="8" /></svg>