<?xml version="1.0" encoding="utf-8" ?>
<svg baseProfile="full" height="1024" version="1.1" width="1024" xmlns="http://www.w3.org/2000/svg" xmlns:ev="http://www.w3.org/2001/xml-events" xmlns:xlink="http://www.w3.org/1999/xlink"><defs /><polygon fill="black" points="242.66793722626034,30.82314466860089 239.60017104571418,29.73562996433259 222.9614233649417,27.19361860349727 214.31148139600944,22.309070213978316 211.9364793821172,21.34041903589798 210.43729666479777,17.558569861206365 208.93307539453892,15.999059804536273 205.982318873038,14.765167718301882 206.66168747249682,9.112650038544302 206.27237528510332,2.906595876590586 202.96531708764672,0.0 197.40743756350017,0.24563125365477845 191.75430977068845,2.6904582216495783 187.31853484927777,2.496819103366647 182.15040812333777,4.2936382579806605 176.7244670435745,10.775652677504922 173.11995977345197,10.398602013962886 172.26679493379504,11.028282246252502 168.16416926740305,9.338885147291762 156.75181086528968,5.654568176875955 150.07239993319018,2.9069533645367756 132.62071430150846,4.024320498930706 127.00864390516443,6.793482350217005 119.43407433984393,8.43484154446412 104.6396191219413,17.54359169645238 93.818550516434,28.91579647569324 86.27062031988103,29.861153532954404 92.52684152020066,14.488003099102798 92.95505948081912,5.969118515303876 85.03344549215113,7.58983449429104 66.7491545958165,5.223578299140968 55.2082849834948,4.253718874702599 44.27388723832796,4.690664498873161 29.830199639167944,13.467885017987669 25.484162947622206,19.313586700243718 22.996627814447873,19.603678596527402 18.411478812718062,19.235372288472377 14.770482851895608,18.296778134194142 13.637502227600487,27.022262735928166 13.72696483130295,30.33348605511685 26.22853911251838,43.35073079989502 30.465133888352494,53.82223635834123 46.518236784928924,66.65012899831038 51.34600943234002,72.03368856710699 52.75842275237954,77.92639729272116 54.57316935693419,88.95220078864986 59.45672754106394,93.32500908318104 69.26342576785382,94.88451007697086 72.444439970689,99.15747757662302 68.58984758771898,107.82775030714095 64.5848428046621,119.22945498665138 61.590115259550636,124.53826862455298 57.23641087371141,135.9132558839002 55.393696915854676,145.3815168413846 59.539838360014436,150.73091909051914 63.638892624749616,150.62035167808187 68.39401697938244,144.37967623798693 71.59485017208209,141.8275211253184 78.00781891926523,143.19818595743334 86.6368331128009,147.42328561794102 95.48357742310668,154.39745200898062 102.92722695622471,162.32105720908817 108.32218116645672,170.12929852240006 110.97599225476914,175.1531984416613 113.41655967733392,175.2228860883033 117.3642911397767,176.71617598864748 119.99231131286558,179.09769604166047 122.73719912515737,184.2261213224466 117.38041537556943,186.77319431819092 114.14107499767584,192.10647850731573 110.66055052273,191.9351708749117 103.36629711325136,198.81492892363144 99.14814848633607,203.60359600578943 95.14040041946394,209.3928631925288 96.34067764284958,215.75788413993234 98.8981002908195,219.38591098598204 98.80721812126004,221.3744824950386 96.68694605626216,224.01960920871602 92.59172711480684,226.30933699509762 87.56244597579092,227.55939408238703 81.33970399580724,227.49724808580936 78.29637638138155,228.60214265335867 77.9606542309902,230.5756802063869 82.61743279377906,237.29931530053375 83.31775055431403,243.57912868161122 86.17630386647062,251.52341108026042 90.17888948261546,256.22168604791375 90.99377080167713,260.0112623822322 88.14398458339582,262.35881849419457 82.5748324955273,264.3322825649208 77.59546873402893,264.3384033762003 74.02222541901348,266.15654668968807 72.00797262777752,271.86767992840475 76.70672158263797,283.07924512500813 75.52382510497003,287.0239153551661 72.73877004174382,298.61851974446165 74.42984394371237,299.7038373975663 77.39596864074494,305.4089099816931 77.01073075117334,308.13595030086697 75.4512655886456,309.558874031748 66.21316012706991,310.1000365090172 65.99236151755855,310.29952894826886 67.44194959211544,320.6512181471338 72.38272688844029,337.3198451855021 76.95926255118094,347.8163855798963 81.66636612793471,362.07775900036086 85.77392888240479,368.45722262304537 88.78753611481623,371.9033115616826 93.05273143329448,380.96810600467745 96.07170793656489,388.77312103475776 94.92538448776557,391.67885015049615 72.20116087034033,401.88846233524566 61.73715749279238,407.91432901595374 34.30243732654443,415.65543368878673 21.701983473879785,421.4113263960854 11.382679459156389,428.85551442901476 3.2256577438532434,442.99540387592566 0.0,455.5307482927565 0.5869214936474636,470.771764501839 3.345358118619361,492.3777519844202 5.39508287157033,527.1308762649737 4.5656277522563045,544.961188874247 5.865821886888771,571.3422291251422 6.1933696391738895,589.1882948175282 7.648155820142058,600.9756755032944 12.778362703759356,613.7232189819681 18.30880862305451,622.7409951112566 30.064667790646517,626.2718878866278 35.440558012680285,628.8787218314949 39.01900096111913,626.7292909380085 47.87070856553822,623.4902383681036 57.88342670014123,620.5040173043267 62.384875177407906,619.5329861097775 66.66438865520614,619.6497794368618 70.52209944650379,621.0604065392527 91.44730062523038,633.3671356697573 104.39681106586619,645.8863502116288 106.45598566884574,649.6391766543368 106.40782505584346,651.5975255678668 104.74025609439113,655.6880226366013 98.4381792230074,666.5027536376364 97.57346191426949,669.9607934338237 97.59155503579989,676.7059812656453 99.17753837494155,683.4808452221873 101.99472840157887,688.1318065340313 106.40680529806778,690.8519580826853 112.98673042316027,692.5525460449774 118.6609675017539,692.2622667930259 122.48999085465701,690.7797814126922 132.5540659348889,686.1470792587643 134.3404034943698,684.7719471990415 136.39286794864466,680.9134539397683 138.07614254268398,679.5461771869998 142.01677960155914,678.4478229536534 146.25594633932343,676.4890751026967 151.53364866086187,671.8888878882485 153.12360455050998,670.9470615770551 159.7930512510733,669.3738883394092 165.04146272189865,665.9016625991246 165.87834210089292,661.8262683129176 162.75924555296626,657.748550620214 157.97522357464172,656.010202582159 156.39788397111025,653.0334369760085 155.9545447412096,650.6264436979257 156.91666643453826,647.2820411986307 160.89811239017692,643.256297861159 159.86161775097685,636.9724431204361 156.17102823217445,629.9169242578469 153.8723348854796,620.4038493874896 154.11332808399538,618.45172592481 156.09870317798752,616.8688695584466 159.65762888152722,614.9959356416346 162.06130492876053,612.2287906477351 166.67322119768693,599.4549821596393 169.84113828508208,593.8807745668357 173.4533007922724,589.4002730990429 183.0320721136854,581.2507376959397 192.068589491005,574.7470263328416 196.04849589552524,571.5154595628262 199.75376117780795,566.1127716271759 203.02301882661305,556.2087566234438 204.11347632377408,553.4659896476561 207.98315451260623,547.1372078482345 208.69550618326366,539.6509369712242 208.33369443349574,536.3978263728634 206.94978443794705,533.0562203949773 202.34986435371928,523.3829511481729 199.76573224270788,517.179368019523 197.02475741299932,513.2819567347699 192.70097532214754,508.3404917080155 190.87921112832072,504.93312335466544 191.0318755940983,502.8674388037439 192.17044351488565,500.22990297461274 197.31952757573583,493.4673963219563 201.40390860375538,490.4731558510959 215.94443609193172,483.90997900596426 224.42488025005292,484.0945465248094 231.56198675488204,486.97835363874566 237.02170568235724,487.2576962011948 241.91016642750006,481.4296580164721 247.25175563723977,481.06412963954523 250.3743412678533,482.73113212256015 250.70160685067853,487.0632226093195 248.70635766096132,491.2819569862266 248.141064751503,494.85594153550284 248.46239427400604,497.2582323769894 249.50688582433898,498.914230273841 253.76339982003842,500.7403822597087 260.7157744805811,500.6727021829469 264.2506049524244,499.6575044684443 274.2690536427371,494.1554893961446 278.21908389866815,492.48735360238277 285.7984495557253,490.57968834634624 292.376752959719,489.8408895603416 303.8240353057089,489.2076345192668 330.301824730696,490.6102762721493 335.19867263203406,490.3801107984201 341.9784413244322,489.3277321232672 353.18547513933606,486.72782720334675 361.5396159803118,484.39822175202556 364.3686541058938,484.67774478359576 366.8935483111619,485.71365614626865 369.37779701931635,488.0453181242379 371.73871427750606,491.67675324408054 373.6922950445794,495.7473042378744 374.96803332977214,499.90464249683805 375.46826842163006,503.0651844245678 375.1950049919093,506.87032065553234 373.63449386151825,510.6442181098444 370.3984213052095,515.1458047721701 345.37209018787354,540.554936731445 342.25381505317904,539.941681936428 339.02945771155595,539.875492616248 335.8829543604284,540.4735462227909 333.71327877400086,541.7286053076041 329.65219851403094,547.737339706867 326.47434329250075,550.0679793647366 320.63715181790064,552.3363578765301 317.6152406199195,554.1491228429644 316.187549895809,556.510177344881 316.16423775660104,559.6691148267997 317.4180652513427,562.5697873359209 316.8847921801402,566.547128056698 315.8922431043623,569.9730226136131 310.5343323904909,572.6994790889753 302.1129659956541,573.7510605879758 290.2066508061713,575.7361916816972 281.50520944766095,580.8354635348733 276.90847653434884,589.8623993042136 274.7580035064915,595.9004400643239 272.09825506969634,600.5078123555857 269.8547597724239,603.5875601009392 266.92534214041393,605.318587753661 263.86923614715363,608.5082650058421 257.7689676979311,616.0568387987335 250.93651781328137,621.2660594191045 249.27353294926854,623.1368534579366 247.93586174160248,628.1036761066194 248.06868611199192,632.8440151629464 250.11287346823755,637.3415892005555 253.25765873494942,641.2398691403148 257.43238361379065,644.53711466548 258.73674076234187,647.3844712606053 257.36993270879185,651.0553308198405 255.01237816012338,653.676234502386 251.5730024140467,656.1035809220114 249.3146532436733,658.4742479476232 247.75709171497084,662.3544386086537 247.76296215261834,668.1196869029723 250.33143573918937,677.7693522614875 247.37716950874025,680.4874502437233 243.35312212012187,680.8122449713735 234.8042262582543,679.6195164066805 230.9938877149266,686.4317638546513 231.02846007253535,692.710239837737 234.92761087112416,697.2536094740435 234.79711154199663,703.1285374765307 232.93761540932482,707.2168694449958 230.68138919341467,713.7215285814373 228.82788126453417,716.262107939939 220.05554268872763,719.5987215639313 218.40799086129593,722.0594568494967 219.04033574181793,735.9490269509189 217.73599023893738,739.0730642312307 214.27780443220718,740.4640672065545 212.20381773018963,739.3597935440303 210.3252958166299,736.0022121081923 209.18735298996515,728.706440765951 206.50588124240238,723.8737779259641 201.948401712557,722.8405648290864 198.48626521044548,723.1779050761011 194.43489424761535,724.087800636898 191.2260901620727,722.826724130862 185.76427747784788,722.3684999148365 183.5040931886837,722.9677009931762 180.44099696659785,724.6378998760915 177.27611224641834,725.7648613957466 174.64078181879546,725.8052559225073 171.63655738049746,724.9765722274408 165.27136251014622,721.5663733727429 161.00629076142673,719.9330024748623 157.594249299487,719.8503194551951 155.33532359913391,720.4477014469433 151.85467582001746,723.1902622925461 142.2688589773757,731.7102822095004 139.8137292318695,732.7335271891652 133.95278176007844,733.020115742869 130.30983555638818,734.4525263443559 123.47711966298962,742.208363101789 112.57164512267734,749.6503969257719 104.9576446587442,753.6457744762027 97.30634598254785,755.8274918493171 91.7727156696661,759.051908022378 87.5853625334136,762.1043080571432 79.08378698545742,771.3300029717129 77.34000809605901,774.2285321651068 76.2106295399676,777.2343225692323 75.63210445732442,780.2715326216571 75.87346170920034,782.9947084559144 76.86111881178077,785.7348080814107 79.00602437971777,789.8672368520604 79.31399507524438,793.143205785052 78.84776727143795,796.2871825756537 76.5846950524643,801.1131573814349 68.85163431307082,806.1220173188553 65.37316553355318,809.08013510763 63.64099614597685,812.3517713400821 64.08086271558868,817.7971118173939 65.5955394126338,823.7072653932385 65.34627104456257,829.6867299502371 63.81704303401704,832.5801050830587 61.48925493897198,835.8845667859001 56.5674504976876,842.0099464275561 55.719086704095865,844.3793495744752 55.849614269057646,846.9883960804353 57.04039359910893,850.277354367999 55.141618760466564,856.1045999116019 54.10701667479327,862.2711508179387 52.75903593001065,863.656577358657 52.82018189541259,865.7216477501227 53.681180860943094,867.0042650080943 58.3055719925551,869.6412408981329 60.11776491200601,871.860988178856 63.008536133774285,878.6295935372523 65.19606657566814,881.0278900982471 67.4558872568404,882.1770378803535 71.7279720210414,882.9166648511178 79.57657099776834,883.3341061310202 91.37602645045594,887.5650402836442 96.52647133381753,888.4102259083353 104.50708392954485,891.0343267714592 107.98134504101999,891.2320745555443 115.62671618594524,889.9611855750168 123.37921711932054,890.1588264541851 128.16762109192902,889.8458939530417 133.0937200470671,888.1531221034655 138.08719771580326,885.7710741451295 140.35981583607364,884.2574084227161 143.53473319341717,880.6917459464005 144.68085045752628,877.8434811949035 149.56024676712343,871.6479875150228 152.5606793795291,864.6686805458676 152.22092907551635,860.0939287319861 155.00288215726843,856.1739838591466 160.85086031896287,852.3280173224928 165.46901849169043,846.275946281189 172.3237865389251,844.0419440805346 177.08021496461453,841.2150404525286 183.22068276399511,840.1117661100014 194.77812214143373,839.3712771777349 197.1546072368925,838.6051918091825 198.50778409879177,837.3867797639128 200.19088851025106,834.3268121086221 202.39685744349984,823.587464696439 206.263813532726,821.8215250966643 209.54254300708783,819.3982542434197 210.1287088031817,817.6192654670772 214.03659418335528,816.7602947475574 215.15537401676872,814.9954798862143 215.05501663663676,811.4725015399943 209.89076633068348,809.9588845929313 206.85653497128604,806.9080167749809 204.82860808880451,799.0934016566209 205.40744254775643,797.1746159124351 201.8364022560828,794.2429912746061 201.71660291779085,792.8303882288386 207.22773166270952,787.5193562073026 208.7014157086882,783.3640086280518 212.38886491110426,778.3375605055141 214.1222185950159,773.5912224275227 220.30572302197115,768.82921952612 226.7527583375895,765.4919346913808 234.4310497572669,763.3794998758099 242.19316146764572,762.4526423731838 250.37535713214604,764.1958298658734 263.5860082005362,769.14552218659 270.20912288866737,770.4780750522127 275.0041777753043,771.011294752909 281.8726057721124,770.6022955831792 295.48681834034954,766.741475776286 326.6608315659825,749.1594401520927 366.2175097132802,723.3897126534689 371.26656467953615,720.8842363537639 374.60300250488393,720.6341332384775 377.1283987730648,721.345667991163 379.3165311275926,723.7828029845025 383.6254440769756,732.1295901806643 386.1013171727142,735.01285464648 391.60168906561375,738.2830928017529 397.9113196428603,740.266013702186 411.1214037813655,742.5721032899903 417.1823479786868,741.1146310113065 424.5462181881864,732.763598737251 445.1162343311711,720.9514864927742 470.8665052440885,707.8082505758597 477.5274334985605,701.8768713438837 479.75206888859435,698.1303875862765 480.1492283695375,693.6806024447052 479.91013981883447,691.0642137197983 476.46819670436804,688.2632508134272 470.3398838728642,687.9016312658401 463.6548163131994,690.4012381374569 457.5778912179884,691.7840108019082 455.8973295091873,688.5944698720081 455.3066751310323,684.7759387325034 457.4509052079819,681.4749601899946 464.20361623082664,675.9561419343888 464.35437441146996,672.9296169718068 462.16945997739447,672.1155908265334 457.5271465428559,674.4722016527558 448.46891928113655,676.3488799473946 444.028429562295,674.7187877115689 441.84879311794384,671.8430526882715 441.51869520020085,668.7952326589909 442.65272331015717,666.2097601341643 444.2730709027512,659.3458053200047 443.25458861629204,656.8230650320367 442.0177115570633,655.8162980254865 439.53997563897366,649.3824500598305 438.91545248528223,641.6656443212994 437.8759394036486,635.1335899252322 434.9129060745694,633.4162808083063 434.3037720579316,630.0368058183512 436.0638325855786,625.6104577676555 442.45252658618347,618.9124949130502 452.90304920685236,610.6084519157092 459.6094038195055,607.5159501354387 466.67036208734453,605.9030851084932 480.2349993262236,604.3067072973136 489.56494261710105,602.0175211810908 502.5707253841818,592.7891880778584 505.3549529187103,590.1303292571658 508.0816870872742,585.8572005675451 510.2416706180671,580.796137508737 510.8608229768998,574.6120901559954 510.8752544836598,569.8314785385513 509.2147452540496,565.7680464477754 507.1979888266883,564.4086715186517 503.69685038621685,563.8924367701654 492.1802534665285,565.1915836101493 490.5377308025932,564.9320257590634 490.70499532096926,561.5716934737392 492.02752767121905,559.2056069373415 495.3970799297828,556.8957118307221 499.2707461776731,553.5053765943956 501.08043572012855,550.3956249506384 501.7486423162508,547.046492246828 500.5576528479399,543.5355172275655 498.0697132569249,541.7362289160142 492.2404769524374,541.0012750038736 488.4231160101554,541.8841146833462 458.8354744142529,554.2188184084005 454.02684390216115,552.2654235828425 451.10006903287024,549.9519723213842 442.6498595972348,550.5818639967003 433.03122253908174,536.3837282891106 432.97604700817004,533.8856755091601 434.21897205023504,531.415668205872 439.3801365591424,526.8557773240908 443.59112765872555,521.7335473349309 445.9605943205591,516.0837790545438 448.9104690879385,511.0546376248252 450.2098660338887,505.19490942438716 452.53101285974003,501.66053440961525 454.3788146816642,497.36088956178645 457.0188750934899,495.1006462451277 461.59058655067173,492.54095453284015 474.49579165085515,484.85782843324114 477.5644379474504,478.10660545691206 477.7497482332689,474.85061043448724 476.7321207216679,471.4472041390076 474.101037914864,470.5591091032377 470.9431458859377,471.75332308530153 463.3485264392785,475.4568597427662 457.8275890518396,474.3353044267715 454.5163063736799,469.58458354042597 450.242059317241,469.04056896008143 444.27757792727215,470.3206074868802 435.89980131131233,474.2012367179509 432.8854486278595,474.45932970103866 430.6452436067363,473.97008795994464 428.527381465537,472.6176656364701 426.35417162721444,470.0712356345508 424.0071866244739,466.2077720596657 421.7613699418931,461.48062946039437 420.18201172144467,454.4857365384377 418.36036920476937,444.22643914403176 422.79219516864026,438.7860927782806 430.777826118469,434.1071139963648 432.7071579844255,431.1433748678942 429.71476853142593,426.44678267535346 419.29827673193586,428.2939340309904 411.98486259687576,430.44489759543353 403.12835088281474,432.52295493494813 391.261781024523,430.6395242739477 377.94800413371775,428.99059354969773 365.70293601460133,416.161108011107 360.54237718273396,404.91256282434836 360.00858279113766,385.19779193637623 367.0880638049906,370.2040052195297 372.03387436014555,371.7241084801109 378.54394748660286,372.8347096798178 384.70820440369425,372.4843465057327 388.5539893160508,370.7106523417456 391.07015006822286,367.61239703195497 396.049539802688,362.8316231991056 400.3872844273595,360.9665628104075 405.98619939337334,359.4572278630458 412.12853393320165,359.1618657735155 418.16662123055687,359.4015861462086 424.08470129363855,360.459732845453 427.8075968631523,360.00435658163485 432.91653971373654,357.9437647216048 437.4659046448091,354.89141784294816 442.8481083869399,349.3641074393828 452.52668169397975,343.72062606394877 454.7312366594591,340.7823386389513 456.87170555591575,336.1493149434425 457.67437175237245,330.9556014762884 457.6267096467356,324.9701851414567 452.9165937504302,309.5805221701844 452.59656663631796,306.09311941647445 452.2498312926698,296.1840465373019 452.5060622490833,293.471742451825 454.52187212096493,290.26185323050015 457.58059634264094,288.37683908658903 461.7714827398159,287.9330393697401 465.2703334450543,288.23537956043253 467.3430691934515,291.0644547762215 469.79562849976037,292.00389151842376 472.764739433264,296.7053992294799 473.9458069034905,297.8209015047221 476.3180331969377,298.2563752904748 480.5978116552719,296.1847295012536 490.11204733038795,286.30423273562883 492.85887222677144,286.0038160445265 495.47963453786764,289.8771329134627 497.764366216418,291.4733150256262 504.2942170754849,292.93327855054656 510.2510995885546,291.68880574358593 516.16386098009,290.091135525249 524.7273385304466,290.2175599454033 530.0208896189973,289.8056543812595 536.8775532676989,289.86659341192785 540.6706350146848,291.6621224971027 544.4761216969185,295.23714588066434 549.2647971603832,298.67350687670125 552.3383046030186,299.72944227339747 558.3325710388251,299.5460501519856 573.684843770169,297.2790713006061 577.7222625411052,297.31319183230335 578.5094401086182,298.68802263225757 581.7852644061185,300.29590045507007 583.678466351913,300.6628437020987 590.4056488339752,300.140969226807 593.1244237814063,300.20068631735637 596.1593691388831,301.1420704493237 597.2128022302472,302.03995109658206 596.779016688139,304.15276616375047 594.8826835538288,306.2320102766489 594.4062773717579,308.34388742411136 596.1231560881462,309.34840859369433 604.7568030024831,310.91579183899444 606.4736709816779,309.9761046181925 608.4150578190972,305.83036581903457 610.7003204481883,299.47031010723515 612.5396610377953,295.2940946155346 617.0978602885663,291.5886058581667 622.3054588269584,288.98579087170424 625.6577075350073,285.25382410906343 626.2948700351618,282.2810387395824 626.2941694892086,278.0943553884812 625.888028812617,272.7819986377765 626.1613912474852,271.0488271732489 628.1019752233332,265.4341016908386 627.6764379504591,263.39759067593 626.3377999143964,262.9496206935585 622.2646119136618,264.59997569356733 621.6880633324865,261.98390324469983 624.3909080607015,253.82838014586332 625.5177151906854,247.13701930456375 625.4616079409094,243.11693384812315 628.3769837446365,234.0466981022155 629.2494349023967,232.48548968718308 634.0056763039073,229.4360391529176 634.9890133205481,227.91286496852388 634.921984183524,226.28367008264274 631.6231134588047,217.29345302376964 631.2681324286954,215.32381613625398 632.1838417156849,213.60463208370925 639.0154916802538,208.59086653497263 632.7013086938116,200.66079345341143 627.5513335214192,195.56428400279844 625.4882610758023,191.8182007767548 625.1155132380753,185.0034971915294 620.979024977037,177.5213567795073 619.2736341197514,175.14043212877152 614.1368214085587,172.7778940184428 611.0769833971679,172.10782805077065 606.6538694137367,174.5118349373314 597.8161466666883,176.9196357844662 593.0461458742435,176.9363792671703 586.9078381368045,174.5687257939054 581.7778694527439,172.87513427303384 573.9465750725572,170.85124158414237 569.1556979303352,166.7750105014435 563.3414175356054,159.97125577073143 560.2242743817587,153.16043237721158 557.8102792566452,143.28031706160596 555.0485899585086,136.1252391554376 552.2949297669785,129.99360483761188 546.8176910650144,124.21099343865728 540.3253647139251,119.11093876254824 536.4169566732816,118.07578967820041 533.3143824324384,119.36228382801403 529.3478368633582,117.77759414423144 529.4169063857346,114.70164590497791 525.6639368645341,112.67457808262111 523.2618746079979,108.2434253637033 520.8448292498433,101.76664067865477 519.7828334741905,93.59144479111092 519.3881491641115,83.0146883532127 522.7602067751421,76.53011296194927 529.8944125225565,72.0817817894191 539.0951934475553,75.13118605227669 544.8805958241455,76.14455089255011 551.3431060253071,73.39878388129944 554.3931497336763,71.68164303607705 554.7030204182728,65.54700102571712 550.9493254273981,61.81084227418273 544.8067338340869,59.433580316201756 539.6870160228882,58.76184299015654 535.2672647921834,58.774043235757176 530.1750189362173,57.768436176983755 525.3857700881716,56.062491124942426 519.9253655213881,53.34611381811237 515.1635961175642,51.31518900358196 511.0623452806103,48.94703205984479 503.5779386140156,48.618727154135286 497.79882142426464,51.358837719676785 493.73223073451857,56.488934338204444 490.01597359395305,60.585704658421264 485.85767949857836,70.13688376176094 482.9026524581954,69.92111274064632 480.3966599250405,68.32227338958478 478.1990782676314,68.01226691868044 475.7487852192701,70.67902872484171 473.69404504291305,74.42274758474969 465.46573656729686,74.41157485715803 462.81403616094326,71.6282766092711 461.35578756822076,72.01377277026472 459.4125490113395,75.2860774867163 458.1611780335834,80.86166183383307 459.5278471790092,84.48008485570949 461.3864204104247,91.5958602513565 461.64627601582674,95.0032543074575 459.18961826234374,97.51373169879753 455.76384445452874,95.47314097542164 452.3555439529794,91.39793023711547 446.53331531309095,89.71211383895991 433.57667934097486,88.41140884991955 420.9525561049044,91.19625057124858 414.4817585387056,91.56641814753095 408.34452491997774,91.60094844086939 399.81173363490564,92.33269127946596 390.23598651511844,91.35672943003408 380.6492801986646,88.68804785930297 375.5212085434931,87.02629032726213 369.34541761345565,84.33417438369611 360.0918758111242,79.28343324534569 350.1265495700979,70.14518195494975 342.5821271586175,64.06551477722746 325.7503755077366,55.32186441556405 316.15913261497013,53.34721437179064 307.76200002088103,54.00305328347292 299.52258850736627,49.77340280962005 290.8775698714587,51.396971946382564 287.46698487851427,57.383737966259446 283.07621165654314,62.97559182582256 277.2811138409372,62.34491838357076 271.29845025587105,52.145582610811175 263.1839878489858,50.378600020668955 254.2482897181122,44.131709606820436 248.7035402763043,38.72840256392749 242.66793722626034,30.82314466860089" /><polygon fill="black" points="629.0030656747203,271.49237781084605 628.0006261678241,272.47452842866596 628.1899599853841,276.9252181428943 629.1785309332112,278.417036518434 628.8226613101705,281.61872099874245 627.588833667634,283.8715919993242 630.3252519880233,286.7781648568772 632.7570795132444,287.28696766153087 632.5409025594817,288.780790103517 628.9459422710595,290.08828503946165 626.4080494305733,292.5548655063677 625.2550263818946,299.04219031513844 625.8912502697488,301.25258603332645 629.6263919836697,302.02145286395785 631.1411473979667,301.48704660579733 633.0112162613999,297.22073411300244 635.4995307646859,298.4465488609685 637.7592907675696,297.4441001837015 638.0923644143026,295.77607948595085 641.5870199406327,294.42908277918184 643.514029693683,296.0614222072654 646.2264753648994,295.4221364593211 647.3892951106275,297.3646145982774 649.2825271289354,297.7308112258461 650.0364437162533,296.4817770844362 649.7986294547201,293.749924753782 650.9536362913261,290.88185246652347 654.4585991227963,290.9575902142948 655.1426632520592,289.54960680807244 654.8830357380635,286.40739947556153 653.1713867312958,284.7902381011837 651.7383781811646,284.8795609854782 649.3479070704202,286.213500211274 644.7032647995284,286.8852389578723 643.155832402802,285.67993772182126 640.4894067553656,286.1062962575743 641.3674177992485,284.29266307543196 644.9824584853553,282.53833296163623 648.9398660720684,278.18492116516734 650.3376275564635,277.3225933069268 652.1445698475053,274.58891886912863 654.2877206868171,273.29565276911876 657.5007973287949,273.12446639390305 657.582620585259,271.24605488860345 656.1452323411418,270.1264089682785 653.5249111499752,271.6974959864932 648.1861603346159,272.3542826498144 646.0902242458895,273.3707758701121 643.7190426193907,271.4852466218723 642.4986220768441,272.6409673109141 641.8116242055872,275.5933953166101 640.0629585785305,277.47279640143097 637.7512800985573,276.157286626815 634.7818245093016,275.5254742167008 634.1625777889203,273.8828057910649 631.7660988237127,271.75743524621566 629.0030656747203,271.49237781084605" /><polygon fill="black" points="31.233771255955432,644.6570503924863 35.18004643399322,644.6250717827818 38.09520152344906,646.4897180046322 39.58005097529003,648.1209763489127 39.80017075750796,651.2241443772009 36.53439423017581,653.1288974634824 36.47108411136164,654.4332405588716 38.6607985091794,657.0255329970835 42.488980793557836,657.2429664282242 44.806106949312515,655.1079214513604 49.17275740816921,654.283810330481 50.75154845534537,649.6878348097559 51.68925599820651,648.6949953662995 55.75179630875091,648.0681856546804 57.802421565322156,645.1523280287792 57.53555746599965,643.915549773113 53.50448705452914,643.2833178254065 54.09217045656962,640.2656864302246 52.249056739091046,639.3521319412309 50.16814516064135,640.6433221688058 48.596903730615495,640.7631117630029 47.792085751743244,642.2079234966625 45.7715708655916,641.5038115074021 46.49555620245022,638.7525577101924 45.6868824139003,637.46359955183 43.4446562768681,638.2648646196935 41.98822119986078,637.9031226423417 39.56728558161968,635.5472317574863 36.27228144062108,634.5229044504918 34.12153351698847,631.6150553496313 31.207059050313966,629.7889464831712 26.86351212412652,628.4855765761082 24.15330569398695,628.73553627725 20.251614669350353,628.2275332955899 18.302244034716576,629.1101093523423 18.71606597391374,631.4441698235256 17.452371604376566,632.391508009499 17.338408988894955,634.0585927129816 19.749030665838962,635.591494315033 20.897651044131557,637.5799931043287 24.178674794633558,640.7585507861743 29.304343239321696,644.3665596902734 31.233771255955432,644.6570503924863" /><polygon fill="black" points="754.813354256372,709.9439906436413 756.5862999700008,714.4119201946592 758.4507833278215,714.4030487416301 760.6868824428282,712.8173927576148 762.6552686330165,714.686141205179 765.7641217643946,713.0338423966248 767.0290750950971,713.7505053220971 767.8640116284602,712.5456405707357 769.8597679818364,713.1571031939801 769.4779039179464,715.7508643068593 770.0711904553231,717.2644124950302 772.8221300720717,718.5329295800566 774.9906304362885,718.2138512423784 777.3846891120086,719.3175242625553 778.884271494232,719.1434990738276 779.9947267619547,716.4800966534963 779.1222420381941,714.5881172330921 780.5233175666989,714.2056445506546 783.1308376413282,711.9383490520938 782.9826553067263,710.1904852409824 781.0376963497835,708.6031258006598 778.7032423181072,708.5639441020661 775.3298621891862,710.69509729977 773.138364564957,710.1286612197205 771.5649047623741,704.9656453900897 769.146561065288,703.4990319590263 768.8718044129035,700.974857369176 765.9502653089863,700.5506280303613 763.5976745116783,700.8761548646387 762.1507242049141,699.9967935422071 760.4934876278135,700.8950255035363 759.7630479274532,702.4658384587813 757.5995127905221,704.5474712587813 755.0823130967638,705.9208366622524 754.4747661229911,708.5113905074586 754.813354256372,709.9439906436413" /><polygon fill="black" points="164.12670962017083,623.7772242058722 162.92481280616835,626.4532603220205 163.3479520733225,629.2519362202067 162.38972183235637,630.7394932679595 160.2769585858583,632.1247295212949 160.15852685676484,634.0337768515963 161.00157734556012,634.7628660042742 163.08171212621906,634.3379854101634 164.9247729248869,634.7734114506176 165.28389721240382,637.7383889077827 166.44961914873477,639.9118075772351 170.28302357912,640.7133244525699 173.88374541595536,642.6381378325041 175.3117045827752,645.4521528086892 177.02886460523072,646.4637467997068 180.9273362310822,645.849366222036 185.51593090473096,646.3330266962939 188.6637299462852,646.2410916001595 190.49755077992313,653.0474409299434 190.79300305148092,655.6854352183304 189.19440164528058,659.9371280978737 189.92781420577995,661.7924029653182 192.35094148832195,662.4850892821153 195.28853335794003,662.1547077413297 197.09174379710748,661.3201436824704 199.65638406568925,659.0688545740054 202.55513663969725,660.4071448485572 204.35012861957753,665.8604992286146 208.084820267308,668.2452294302727 216.3509901145316,669.6272207723505 217.9181208100952,667.109660036975 214.24596092716808,659.1574968402242 206.66329249126395,653.1747662320909 206.2738565506261,651.495699704612 208.96625128942742,649.4152303204471 209.8725994736866,647.5162052612623 209.62429683600965,642.9021886349792 210.1577501817289,641.6374454196869 213.5091037311165,639.0037838800629 214.72263606713395,636.254968752309 213.12235357048098,633.3718549229013 214.54268636045708,631.7926420595766 217.04571458030446,632.0858474547038 224.24848564225124,626.9148983716595 225.51309505709781,625.03330162926 225.40541972769327,623.5095751902121 222.96246154591083,621.1575240018185 214.3634652871091,618.3414993302122 208.1506650371361,618.1270326295218 204.06309088778315,621.534642284432 198.4506208169697,622.7603724547037 185.21637497662027,623.0860119194438 181.35505354696312,620.5296848958739 177.21454089132394,620.1963115108446 172.3841346398681,622.0670287229052 169.3730995502358,622.4783507920265 167.68078976047326,621.7197904880284 165.95275212946436,621.9942959646456 164.12670962017083,623.7772242058722" /><polygon fill="black" points="753.6884334689125,619.6782985275834 752.586309989046,619.5068624774724 752.8115915856367,617.013798211242 750.5837362434268,616.8456409290626 747.7949530050266,621.4489297636144 748.9487245043897,623.0470652952224 748.0200282558335,627.3534995966961 749.0816379923438,628.4477813107335 751.4163666677863,628.9998095814217 753.7148140895582,628.2828701348158 755.9571774070789,628.7868788579381 754.8902838810837,632.3063875417245 755.6056406154564,636.3292355167583 757.495038141465,636.0432886624853 761.3330347718819,633.1960885811687 765.4640888121173,629.5247884746396 767.0187885195036,629.1649816786586 768.5323317942325,630.2120643080052 770.7069056787219,630.0625647203142 773.2258112586482,627.0660488156759 775.4695816701764,626.5348026982603 777.9846840296005,627.201562667972 783.3527772344836,626.6411851601803 784.5623963333502,625.5479597888416 784.7880718447395,623.5300977076537 782.8589858863137,620.2560544185535 779.0614933923001,618.722378009134 779.1753503482046,616.1809824958932 777.9272619780827,615.6517875045191 773.9132228773198,616.1464306636447 773.7898757966026,613.6639754749423 773.0136804100532,612.632189874953 770.9553420026723,612.5895718102568 769.4279386445597,609.2583132229449 768.0613827520818,608.9790284740287 762.6696826395382,612.7533698355963 759.1260538434934,617.6945618244686 753.6884334689125,619.6782985275834" /><polygon fill="black" points="327.4115226456186,926.1754090922723 331.39378644558576,925.6880967223564 340.20622011551575,925.7888073993528 343.7153300719679,924.020359286868 345.3530786114175,921.9666987405061 345.95817378585116,917.9732017619285 347.4460157387743,916.1581893478501 349.11698367888226,915.7940848148183 351.1850140135826,916.8783668390752 355.10015152718654,916.1558005702643 357.90890006570845,916.295995671256 360.239983585551,918.9086419174545 361.59829110078425,919.181875480979 364.4348215748841,918.5190413892401 370.0219068955224,914.2280907923271 370.8493637168316,912.6413954941886 371.38936645885053,907.8443241084988 372.33861324491744,904.4943830154169 375.67061538660164,900.9656916243179 377.3312634574833,897.4730575180458 377.6032616127022,888.6640053393118 378.4647783828383,882.8286208122662 378.1927878141113,879.0586518151357 376.24366604425916,875.8860652022504 372.96806854965166,873.8134263309222 368.9373367605546,873.3290470506025 365.51254630744234,874.6230161567568 363.0769805020991,877.059541417102 361.9812871208499,880.5561031231147 361.1450645628071,885.6716701799373 359.18670568296125,886.1124389591166 355.5725690052153,883.0692092256614 352.50282823721096,881.4019365345195 348.2790069683021,879.9516372224476 345.0152883561995,880.4453704584039 341.9530451884835,881.588325555011 339.5914341487511,883.8688246804766 337.4684265898905,884.7823475155743 330.6498214678789,885.923059005559 327.12444090189797,888.4186194853714 327.09291363295046,889.7814436618478 330.7623778427893,893.9465432212627 330.9996946821793,896.1102372224072 327.76868601304074,901.4140030107422 326.7168283837079,906.041796731058 325.734429452348,908.1847179444966 323.8172082152391,909.429650139778 318.3590286914863,911.1614480571014 317.0859473310964,912.9812179661467 317.18765326919817,917.8778300541595 317.85273809043656,920.6114431081818 320.1776696501427,923.0656195056617 323.58894457621125,925.5359740142889 327.4115226456186,926.1754090922723" /><polygon fill="black" points="484.09748918497735,830.4624075656369 483.293323510994,831.1262183797463 482.9574631566624,834.2733229622131 481.73140740286846,834.5074228611334 481.74078878517906,836.3656276033562 483.75947671645827,837.8482436329391 485.93216221850884,838.3540221174624 488.6648315802189,838.1251613587 491.24790885929616,838.6771205717765 493.0260291467578,837.5225031021891 497.41948593302834,837.3303659653825 498.7101385597151,838.3392063516513 501.2985086677211,838.5926045701075 502.13322142317827,837.9947385365491 500.58797859982417,835.514402710507 503.3978677923855,833.6637150908184 503.69804883774344,832.1109141022795 500.73196545753694,830.40259655131 499.9012988991706,828.107388499688 498.35386722332504,826.6354145665493 497.2919259533759,821.8235926952044 495.5982146352892,820.507254849913 492.8950285674833,821.2863730705474 493.25632536619906,825.7663324679506 488.65590523074576,829.3325665513185 486.3440215616539,829.5054230537546 484.09748918497735,830.4624075656369" /><polygon fill="black" points="471.50437813723806,639.1656256369934 475.01891692598144,635.4675260285658 476.1366184357141,632.6869695670104 476.32978549120577,630.4990783689075 475.25967563522084,627.9486622950542 471.1144098287557,627.3624852953058 469.8245902327414,626.4007646004454 468.81217385029686,622.7138841635285 465.8816180143987,621.8652428199626 463.99957664216333,622.6798820167043 462.5809645050843,624.2416282487743 460.8040956321721,622.6361405618818 458.5873717136239,623.3228768358606 458.34017791948486,621.564690816848 457.1243796633119,620.5198690202326 455.44392660721604,620.557711510853 454.3037181566934,622.489567976105 451.01188397607825,622.6944789490549 450.07413699657604,623.8110154464874 450.56584425163595,626.5535401060306 454.7064797083844,631.8974364365945 457.5109775666862,633.7875555042151 462.14913991795436,635.2436284156913 465.47184767823853,635.0391715339622 466.6002682277707,638.1969537084644 468.458045797028,639.8338773513026 471.50437813723806,639.1656256369934" /><polygon fill="black" points="460.0671884607104,867.3343158498931 460.51395243854597,868.4448613118877 464.06195335966413,870.3168505744762 471.5918211291918,870.2517769527493 473.94905236734803,871.2474430133976 479.1251317552358,871.4102596148105 480.06054016714256,870.8607593168282 480.6240989120659,868.1093346583282 481.99990329480084,865.7784702914687 485.04459838710125,864.8748523402847 487.68398750130785,864.7745845204593 488.1004162438324,864.0100460760442 486.0657936622195,860.4627416146648 485.49336239322815,858.0885486976184 483.2094317669085,855.665891533048 480.71545427810383,854.3405436462025 479.1754881718837,851.2081122759117 479.78235036391925,846.991753916435 478.7894589681452,845.9894004389535 477.2685471363669,846.5629635895903 474.9102842513545,849.2832849965256 473.4200095498961,848.9604322303173 470.510401821401,849.7450486010861 468.43124864043483,849.6510961169344 467.42705536005616,851.9069916906628 470.1392295508842,856.7380748705743 470.20004417814073,859.1009258001102 469.19583677756344,861.3568326778411 467.42705295694856,863.3907033209676 464.397067376611,864.9463570277592 463.1738593515364,864.145215016912 460.8679779087414,864.503570242716 460.0671884607104,867.3343158498931" /><polygon fill="black" points="262.11307576992783,907.9729152415953 261.3649209945795,910.1210683820592 263.55208347947433,910.8928842550567 262.62798797979826,912.2243875358241 263.1355219718183,913.3206625712013 265.8637452501384,913.4218626779912 267.34377315977986,909.8143751641096 266.39751867015656,909.0167813677776 266.1194069608852,906.459801634929 262.11307576992783,907.9729152415953" /><polygon fill="black" points="287.3606633516185,842.76583275594 287.3176268530038,844.605236543006 285.0954324704885,848.3900237107241 282.92136979242844,853.5959645038234 281.03158519356913,855.0460201064399 279.92974409039715,858.277699089349 280.4408667072007,859.6725857233641 285.1729264739968,859.9794474440049 286.9213219791173,859.3192404037494 290.2318759478189,855.9609195025337 292.0705769730906,854.9210313387435 293.1120499018702,852.947505703373 292.8807500422186,850.0946043840439 293.7379554359572,848.1152881633286 296.85452087655176,846.8719966284326 298.3922744386087,845.554690790479 298.9808268524558,843.2333912019413 298.1659584588757,839.90938745055 294.8147363116286,838.9072347658135 291.0069527373678,839.8921975260124 290.67553400457126,838.2965593678895 292.65954858895907,836.7476214992967 294.180567914787,833.1142373712034 293.82041094819067,831.4332669936305 290.69961441424346,829.7828195979702 287.57243651882004,829.7200537603229 286.21243205768144,831.320675473552 286.2436214078204,837.0075274652027 287.13304060300476,838.4483882673441 287.3606633516185,842.76583275594" /><polygon fill="black" points="420.11698662096285,751.8173539561013 422.45452386547976,752.6545866502909 424.02879443888264,754.2394102563427 425.45035073355575,754.3740978652834 433.0044907557777,752.5488256564581 435.562991799697,750.9357195706903 436.59422948073296,749.316310155819 435.66862102886665,748.0923337807067 433.1701847210788,748.4086691012999 431.0142060681722,749.4619844567735 430.53798657731943,748.3224045736554 426.2957281699678,748.291728387901 425.72584681814567,747.6342100804768 423.3316129796599,747.8874111680626 420.11698662096285,751.8173539561013" /><polygon fill="black" points="715.3168934378853,695.8692256633917 715.5353039839215,698.6240501954812 714.3413317958197,700.3245752470189 715.597562037121,701.507762472716 717.4151579048913,701.3127434647096 719.911741461695,699.5370392206129 722.9876689678105,699.4054563261728 726.3741036744497,698.6551292300356 727.9426047735026,697.6068562155249 729.5987528595573,695.3011239054102 730.0853567894097,692.1304280804259 728.8214406236151,691.8248238771978 726.7520832814993,692.8344063032882 726.7374892577866,691.0446736535165 725.5307454182841,689.9843731586539 723.2337023431796,690.5881957209226 721.8398162738981,689.608592117138 719.4277670666532,690.3510304632493 716.9434168485233,693.0120389142478 715.3168934378853,695.8692256633917" /><polygon fill="black" points="465.1153957469334,836.9377530142634 471.6964105874505,833.8366242344244 478.217530705662,828.8566245111954 482.5441861941578,826.0791382741028 484.7318322398393,823.6252646782885 485.0130791303796,821.1304347866567 483.96553057732314,817.970355107788 484.2858257242563,813.722361813843 485.4643936681629,810.9950229419646 488.87777149955645,809.2040701127346 491.5811179173491,808.8913908132961 495.6606576226556,807.1062089930853 498.91318164610783,807.4397909934316 501.35740896297966,808.6316562179061 504.2724443836915,808.9487386676091 507.2196426211766,807.390689413339 508.42366594716844,803.91675030865 513.2542032524067,783.4923920188893 514.4788706261038,774.002400011384 513.6224386069925,766.8456427635098 510.37752854413674,761.5013855188527 502.96089752232274,756.6897732826235 495.56347565016137,756.1348251099676 490.6964527295134,757.9008628084621 486.70510232182016,760.807629459177 481.82049073609187,767.9584538430663 477.3398522614061,772.6081743831198 470.8230341351252,777.9578526783903 467.47563042390004,781.8871280612037 465.5673892544277,786.4812968410671 464.33394792849134,791.7084254786676 459.48852400105875,796.974904787686 451.651551775795,800.8032207153659 441.6755804663232,809.4546835017157 441.2645428567789,812.7025845450539 442.2804445944935,817.2331922551164 446.28644080231163,824.2222821768694 452.53997701446855,831.1295000242094 459.6279535626621,836.0500565160887 465.1153957469334,836.9377530142634" /><polygon fill="black" points="587.2270897253311,362.5277601958086 589.5874340858345,362.5795573599539 592.3871068428258,361.7290524522542 599.7827494621451,356.5117189399962 602.0024590487823,352.69734312508444 601.5330731895161,351.26279648394507 599.5386235414546,350.80924962505026 599.3492993005341,349.1758692173821 600.5799276212111,347.1651426777605 599.3738977344391,346.2268498942167 599.8336667535812,343.9007332699232 601.4321480908076,343.27481236290146 602.2204384353242,340.84449254479307 599.8253333501748,340.08364957697006 594.4357929712232,340.5715324667067 591.0179442706558,343.02732151920395 588.4596772361735,343.6320770323364 583.4589538968336,347.3851846676479 580.9647751441668,353.4270481421963 582.8392543022445,355.0975193635195 586.06442888345,361.4314150869129 587.2270897253311,362.5277601958086" /><polygon fill="black" points="460.03229349300545,928.0775272584955 461.29809454406757,930.2251904807714 460.5107468086951,934.2429369503845 461.49562900700465,937.42248292549 465.2776711404255,937.6182393392942 468.7232926683345,936.8365793657754 470.67872842030425,935.1513517588689 472.975508218934,930.6176601776086 476.6470367662926,927.9621123425043 476.7296604498897,924.2464971851217 477.91868610127966,922.88130394497 477.9459866853655,921.172447775803 476.80367575076735,916.7122406523201 473.98935087481453,915.9292968792349 471.90687287491266,919.1889955545275 468.5996078360279,922.113947069493 461.853784696672,923.2333300973323 458.7921204816293,923.4085258844924 458.5964608892724,926.6627190927368 460.03229349300545,928.0775272584955" /><polygon fill="black" points="450.90095890398914,423.3527825701427 449.37614829397603,424.24942059518935 448.35245351823687,426.07981537993385 448.44073368675885,427.589409211662 450.45861644302533,427.9249001667583 452.2369775054495,426.6611965305051 457.58487487837345,426.7632491521015 461.3785663492797,427.29631151779637 463.12453822715963,425.2222847963384 469.0513639506504,425.05785513341584 471.0639067184772,423.8007527488502 471.3553816603134,422.2240252659617 472.828890869555,421.7627190029649 472.6781018179702,420.29779241131484 468.72726466354135,420.35701584022365 461.83124610990143,421.7842406226132 459.1866171466994,421.1197879152568 455.79487265630513,421.3770498505248 450.90095890398914,423.3527825701427" /><polygon fill="black" points="243.34046849194763,828.3047297430368 242.7730520915976,829.7574383317482 241.36607325864065,830.2752353058908 241.07393339808735,831.7805062824339 243.1709832848501,832.4183791861276 247.57554954923717,832.2521961975303 249.0446046882874,831.7075921573471 251.70601859008318,833.2261874682929 252.50074718987972,832.6106692590907 252.09947937676637,828.727172688214 250.66973662708938,826.7608482260989 250.69926672795137,825.5108049836267 248.07977555220435,825.6717195162624 246.05352925995186,827.2399737461542 243.34046849194763,828.3047297430368" /><polygon fill="black" points="630.5163670595209,263.9153494433509 629.2055129129882,265.0036640527395 631.8153321312316,266.67778257379155 634.6041947669013,269.54832497574193 636.2470254553089,270.15134367144776 639.240106581425,269.7514734177122 641.6310059211041,267.83997784011103 642.9119480336522,265.3652820078861 641.6109650219425,264.09993871904635 639.9837686708964,265.6002799953178 637.2032989831986,266.5721012988537 635.7732646412267,265.61133386418635 635.9600018185615,264.06191941142515 634.1798929648268,264.1435345081992 632.002419028693,263.27786946501726 630.5163670595209,263.9153494433509" /><polygon fill="black" points="220.71989223184912,633.0680982840612 221.40611720592534,634.8388988894053 223.32835604117892,635.816292258464 226.18514900820227,635.0452859733593 227.20086010093448,637.1032023813648 228.57744823560571,636.959313161442 227.34899389181126,635.203821469484 228.75405134765495,634.2584457585008 228.28712862153358,632.4097347733557 226.73654800094366,631.6834145073616 225.11721870611714,632.5493750892067 222.0992472973593,631.5249879106958 220.71989223184912,633.0680982840612" /><polygon fill="black" points="480.8269140733997,469.0709134292208 477.6525204965818,471.0015673983088 477.3575036606768,472.73714433585036 481.5098479459531,477.8137183160507 484.7111011809779,479.73042127925123 495.2899563671507,480.29468240033003 499.9436025887088,482.24214362595575 503.7090650428151,485.9414974641071 506.5096368931971,486.06055109478876 510.4644033352369,479.0227196319823 509.6428172350366,470.87119666297224 507.9888736652461,462.93571616196556 506.343352582276,460.11408612927875 500.22205585727716,458.86014884551895 492.972797827045,461.3695586957603 494.57829896252633,467.7491169271774 492.8582587815283,469.6205653522754 490.51690517229474,470.0150703843923 485.5900596748121,467.49230011746965 480.8269140733997,469.0709134292208" /><polygon fill="black" points="1018.6923937307608,395.391662343612 1020.1702536107829,400.3631663508836 1021.218424434134,401.66780485835307 1023.4034432571427,401.34779809334316 1024.0,398.5293284894436 1021.6692921087397,395.3008366572974 1021.6190091082475,391.01920650110094 1019.7550249757079,390.17240992801715 1018.7176631997327,393.05656981866366 1018.6923937307608,395.391662343612" /><polygon fill="black" points="235.7682726540153,498.9587638207415 232.75496723836224,499.56696731158 232.2297640823748,500.9522527012544 233.7858428137423,503.12272064539104 235.60301987969237,504.1912290198987 237.88051422177003,503.96645249974677 242.38934323144792,502.0435741633988 242.62577004791711,500.29633119893555 238.89785273032848,499.11832673511054 235.7682726540153,498.9587638207415" /><circle cx="302.1389869196563" cy="341.39929082781543" fill="rgb(100%,100%,100%)" r="16" stroke="grey" stroke-width="8" /></svg>