<?xml version="1.0" encoding="utf-8" ?>
<svg baseProfile="full" height="1024" version="1.1" width="1024" xmlns="http://www.w3.org/2000/svg" xmlns:ev="http://www.w3.org/2001/xml-events" xmlns:xlink="http://www.w3.org/1999/xlink"><defs /><polygon fill="black" points="368.85234391412735,826.0274997625535 377.71348915717596,825.1158863696731 388.32949207566594,823.4304824570934 400.92395364431087,822.2558965239784 402.0440484541745,828.3573064457498 399.16450002776577,831.085360627354 399.32892526616683,835.181753425614 403.7085002927779,835.0673782792262 416.62899721515504,833.6452661739122 415.6427544475629,841.359762894891 417.92869971118745,842.0981404162479 420.6560970584566,839.4813253857873 425.654212102225,842.377440481444 426.3551844857878,837.9864381662476 427.07970645355755,829.0791689459688 425.58563019605737,825.9623857529207 423.25097440783384,818.101801601436 423.9457783263947,815.2005646835217 421.91546286191175,809.6599831929312 421.6514226308212,798.9977776882679 426.2931365279922,785.3105037490717 431.8102410627398,780.1630116824042 436.71165856871966,777.7410836210204 438.25325223777224,773.7887837900945 447.7605123247808,764.0810180391704 458.49040414694196,754.0819742191009 474.7191968713757,741.3533488650912 492.21893864728975,712.1978676562628 502.65609545240346,692.7725554397095 514.0215510952029,678.0232040063593 506.9730624863524,677.5732368105539 480.14610907411424,669.2835504024222 447.4792312013082,596.5360968736752 444.76150950856766,591.1133584977333 510.43885053341893,441.6233782454111 507.2796573076108,362.4251290054898 494.7188960291328,345.91745054264675 484.99378864574794,338.04435199019304 471.1668023531002,336.8254942520982 455.8011458934721,330.6225454350554 440.6890213649129,309.1385495477076 427.5785186960962,286.30077160141263 423.6668430865085,267.71287870187336 422.9623029206759,262.902420977931 423.80136090587297,257.681367243398 427.42944237711663,254.6101488862846 432.8457060368521,254.296857561328 438.6180899535641,250.3786172212957 440.50364238383077,245.58966336392996 443.6382306039079,242.7817464076005 444.747180919808,234.2537666954189 446.54018046455286,231.95901191825146 449.26072413873334,230.2802954215798 448.3408923608702,226.00012115686798 449.2228145685829,219.8347425724711 452.11787458638815,217.16908959429952 451.06837802504106,211.68935130022237 447.8694991947542,211.42224878672448 443.65091663379906,209.0857163136718 438.7902962246866,204.18112843053075 436.013919903846,203.22342293424583 432.90684992064297,199.56783252802882 433.7681671904819,196.14228412074306 435.38247457950087,195.55849798435997 432.65372660615,189.24879548128456 432.62106362584694,185.75899823071825 429.819648694652,179.67410009048285 424.65931314005337,174.5457796936521 420.59226793588834,173.37913931308913 414.9111135988948,173.07034941080383 408.1117747950784,167.35462616495704 404.3587716479801,166.75767774113854 404.2558721680301,163.10542288134047 406.39519299075505,158.21324501592642 405.7544582082169,150.073984475369 402.4474763427101,141.2842941434899 399.7694544725045,141.85141144295767 395.91563098851356,144.51803331315864 392.63840549943575,145.09328732774156 385.6810621684007,144.27756601746 382.8254315716851,140.94885132278955 376.6471534480531,138.19432469208982 372.4084716554523,139.1500996517443 368.5589062162204,145.7715314963839 365.4466771179712,148.58250257447787 361.9461511879649,150.31477235495095 358.6054652658344,150.24713999597975 350.3471465989012,147.13325711066182 339.4604152872617,145.2245745089923 321.410183637318,141.74988382425113 303.8740277286302,137.08440334857266 299.8561362433417,136.18589334001763 282.14718518899303,133.2329469095555 267.56302012093346,130.38586758759482 258.5387665714655,126.0882644605822 255.81166470404912,123.12278909530494 245.39813377860116,109.84986291931614 240.6998507682509,107.0030409900537 235.45221593228666,104.47763773536576 231.14757288878457,103.60422955765796 225.5842937392102,100.52770438654272 218.3495664701918,98.12952607731404 211.76581498657785,97.10644059920753 192.30625287742728,89.79095920133625 179.60491620045312,81.80023922804298 172.13808943299287,75.74854364369708 169.6658975488345,72.55023362371446 167.50278442375344,71.34420435290144 167.31186001136666,69.37255131579434 163.1520850261473,61.60918922371934 163.31792161193704,59.5586318983502 162.17540930197472,55.91377145323736 158.5975387576225,54.972333870567354 154.77822468944152,52.047479591567594 152.60906174460197,51.15651132806681 149.74447159137117,48.10656573755375 150.0578273840518,45.06221779464454 155.18615868726243,40.28035531516775 154.00096870837717,35.67094912177129 150.91577263111668,30.650327186926347 142.62970710692974,30.02542916706352 136.1765625595371,31.56675048648094 131.4887379548403,34.12701473786683 122.61682282064959,38.094981768768776 116.74797203948236,39.88327106370673 113.91070068886498,40.06213269181728 110.72612389033564,39.131526414812924 102.07752682841301,32.58821079625568 100.69586167529656,27.7843284890738 102.79102104623625,24.665285012616778 106.69825132411295,22.39470780464842 107.49440773067718,20.350910532068042 103.70047423190447,15.45449267272727 101.02212893429576,14.578554161813713 97.81157044227557,12.134804742890879 96.01893363544524,7.886594974134482 93.7664349704441,6.090878658356246 89.20376428820576,6.161948976534632 83.93435940219092,5.110115658840755 79.18666386778762,1.1901632984273647 74.43936468652386,0.0 70.08517067645717,2.731307853008275 67.79549204396311,5.6545716991468 63.09343391604046,6.321691433849992 58.219852150448226,12.072158094045221 49.01497863020687,19.427602523146334 43.54121658169803,22.593537895096915 35.693292309583626,24.19424663705695 29.482038118535108,24.560019335037396 17.577048010145873,24.41388754788329 10.152078239128898,23.43682032759716 8.423907639518564,21.418371610073905 7.752041980595673,30.38798262800833 6.802396284166426,36.64321724810429 4.036468934500848,47.0558737632324 0.0,57.029869711045535 7.688921223273682,74.88515978326541 16.256805021836378,87.15304296671263 19.511698568799996,93.68859204379544 18.42485329699466,101.29030279382334 18.785847914482538,107.08698194922886 24.994091023371812,118.46165977627163 34.658330765585575,130.4098099657425 36.33304613848983,136.16077414972472 46.224291654941766,145.2642591093454 52.3067171823932,149.3087985700348 56.681204626410015,151.01778022838778 67.23890313343571,152.68053098608152 71.65322891644976,152.97566260060364 83.04371312717572,157.49248043111515 86.52313131595824,160.06534800173426 90.03822421913766,161.02211484984946 95.9372844028956,165.77409366161214 103.66888100402996,168.4251974146614 107.03149465668506,168.5048616333156 118.99040516812218,172.29927736412867 124.02248365929115,176.6752867729524 128.16663246811004,181.0138821646566 131.64894063120138,183.56597023916447 137.52745964809588,189.5555180507447 140.1885920930498,189.60809359964753 141.60378317683256,191.01301968611676 141.86230828372908,193.53967294511915 143.58996916939967,195.29359207859602 143.5376091154378,197.29796687979456 146.1212149285452,200.5548900438141 146.72943966227652,204.64113403903298 149.6131616085783,209.84447919459922 151.0752202333904,215.1997556555449 155.65914041712134,223.2787285841431 161.36194463523597,229.25863634703148 164.8371632806861,231.8114634849195 168.34191794737305,233.31493266731923 172.76524110240985,240.50668665718877 176.13391925783023,247.67034010999305 180.79489930153315,252.3908235987426 180.88128917933602,255.93569918706032 184.1834761694594,258.4961492273608 186.93195593186203,261.7552252196874 193.35153152822397,266.6921239345427 201.21133612643115,284.9655143469395 204.8252162739452,288.96520570369853 202.84942582507583,297.4290517292626 194.12084767119038,306.95611091940816 189.63369075516107,309.685136969203 187.98495368689274,312.139248902025 189.78551594028903,317.850019676442 190.05599667728566,321.21676756481816 188.87096837887677,325.98843895687935 188.39324876530026,330.4200757882412 188.78890095706984,335.7553629588052 188.6465657126453,341.5965065631734 188.06776664759167,343.5400281699244 181.6015948103344,347.4690962891319 181.36014355635953,349.93484273578883 182.33178448588114,353.68553917987754 180.14446337469872,355.9423903539374 176.35107226445407,366.491830422186 175.05180738286535,375.84606317645216 171.6938668587028,382.6972316566628 168.67116607301816,385.69356986389175 169.2076298530865,390.07467941421135 166.83049435277331,393.22067518808365 165.85575245171123,396.55933188032384 169.14852260000436,406.56620353734 169.25464737864542,409.58771591920436 166.46660860115006,414.8429375264658 166.0022186926211,419.25965262783177 162.48679076048904,425.3877299843099 160.02811198382963,431.54491046862495 156.58131161795794,434.6525463036346 150.74090376661832,441.43749111129944 148.34792027681397,444.93174108920493 147.72897948185854,448.45983787922637 149.28098140511787,450.2689830361452 149.72509945280723,453.8166502583032 152.01140432609546,461.85235677490766 151.567876115163,465.39299770345974 149.8407349549983,470.659668077992 150.6557099184144,473.16953218546314 155.4520311038735,480.18416957587124 156.80031396869197,482.8825166315155 157.90559226451302,488.2246588202818 163.36858816552913,496.4925340617623 164.18832380153265,499.1755072254605 164.9254876537471,505.2212727660535 166.76463406289136,509.6915299869752 168.66417108676694,518.5873716421272 169.54457001500901,525.6996152572569 173.4344594310731,533.0685819802429 174.12843659225442,540.8747851491655 175.33144516011234,542.4999975672973 176.07142115806909,548.3649435005291 175.5387196444329,562.5347531200641 177.13117340656407,569.6559187743705 179.47629564501142,575.0329174601522 180.4246246603197,579.4799842356351 181.26718081271815,588.3674516314138 181.22234140734963,597.2383845183518 181.98388625800663,610.8547286605901 183.33079401384882,626.1768629892822 185.47821479956218,632.4269931049212 184.79293515017844,638.6165496556912 186.03543076682288,645.7410014287784 187.51568950982445,657.2934782164967 189.770204250527,666.2096537720392 193.5009174635595,672.5057102109427 195.46852431597208,678.7479761860516 197.75821842459516,681.6638201022615 200.77418956258856,691.2842257162615 201.89153209542346,716.2758046811742 199.60806816376754,718.1353790275388 201.12914549029702,725.2701114140917 199.56661752335845,738.5339439820962 195.56561622464793,762.5617454947799 193.38481021998783,773.848497511837 192.35543223500787,787.7817097827622 190.35117339814866,798.9916739775172 190.36497819972874,818.6022109388703 195.1681680976197,859.446528799379 193.17138809167756,869.4451208388197 183.5497808405818,887.4631399053465 183.54757524158117,890.667977023742 184.74985519602495,897.4787734247495 194.77215601228474,912.2865339709713 211.98667174218818,927.9080014988269 218.38358277743285,935.1266167103747 224.79990653632842,941.3796283285683 228.2951023693089,937.9794619089641 242.72354556971578,932.0518124201888 243.5736429522612,931.3384602883626 244.4453624959379,935.3730384342819 248.7110805367016,945.8565238028815 249.65906453782458,953.491022503582 270.87464156828815,953.1211885095116 270.8736515458081,964.2883770616496 277.9149723590413,965.8842949431213 291.8435896906715,960.8150710052123 296.5406350075559,958.6833258952364 296.76244952783304,972.7211772887946 300.1691005332603,993.3551589748207 299.98388741348725,998.3950553239572 304.9821437643015,1008.805007523794 354.3135614980922,1024.0 352.7287772786925,1021.1412144259405 336.4230059176616,974.030833167197 337.27228685818613,929.7839402677857 325.6873298851623,920.2562961199139 329.43703504122163,906.2485896176602 331.88234941501895,893.0590458424139 331.0773218553995,886.4286667098661 330.9675695218529,878.7960196642683 331.7587168513783,873.1615802870906 335.1435008819771,869.369745374413 335.87532802706335,867.1240893415757 337.75599768173964,865.6442246522191 340.4901806769774,861.428013684556 340.52340677945637,855.0718366784993 337.1295592355189,853.8327345412474 335.4071317567791,847.1900969429959 337.0470871533503,840.7619721818808 336.1738878148273,839.3096356783115 338.8306735697296,837.7942506603007 337.8323535426623,831.3521956083524 346.2865944909841,830.6364980545759 351.47604560487474,829.1955327789582 368.85234391412735,826.0274997625535" /><circle cx="207.9649635699886" cy="795.4205663504038" fill="rgb(100%,100%,100%)" r="16" stroke="grey" stroke-width="8" /></svg>