<?xml version="1.0" encoding="utf-8" ?>
<svg baseProfile="full" height="1024" version="1.1" width="1024" xmlns="http://www.w3.org/2000/svg" xmlns:ev="http://www.w3.org/2001/xml-events" xmlns:xlink="http://www.w3.org/1999/xlink"><defs /><polygon fill="black" points="359.23221378866066,37.75873145029186 356.0276716754193,36.41274434978288 352.59274572083297,37.11351952538507 344.0807351472842,59.09519906420417 341.99324224293935,60.15112099970088 335.9406115161049,60.64005995676507 332.4129425564835,58.8319260900613 326.2580049647157,48.85252101999015 316.69871644386143,31.738658224919277 310.7865535533302,25.733169855807773 303.9812603610913,20.718281070284092 294.93067870291674,19.270314404645774 267.1614735090823,20.991823619301385 256.1932572928025,21.11429482793517 248.4650847757961,14.031300101436386 248.1671285749108,5.877917517693845 245.9970411536667,0.5174534800142965 240.91375581243304,0.0 237.5062967029248,4.532298460326501 233.91499286736453,10.947607381028888 228.79640438931298,19.095242369736752 225.97924005394083,20.430180530384632 218.86556371103543,21.340041474542886 211.2566662822673,18.953843405399653 202.27674093070232,16.70653074707809 196.77217294918992,17.78413034126561 189.11455564148565,21.362221106996117 179.67137751306524,25.204645491239148 179.73468279392122,31.537744331602653 177.77664896285273,37.84900025424747 161.09648730582464,67.36680692820539 157.2731813113241,73.2226394585008 151.9282304334439,86.51734433554395 149.54942913409505,94.14490089386697 150.56668671712671,103.17253607727639 156.1091769094106,113.18012312170129 161.3876214498925,120.18763289830633 169.37996019838005,130.04397711522074 172.53842417806558,134.61872875311894 174.45588937849948,140.17858880616848 175.19572398385816,144.71302320608868 176.17365460658996,166.49960556941005 174.93639493976676,176.3695713682165 174.64369814782665,181.85511905082558 171.11397594042626,193.15290247624137 171.91803246024858,201.62601863498674 171.8965582283345,221.38657767157326 171.03127717045342,232.66280560474343 167.630699677617,259.3938429065057 167.16413066558712,270.94539965145316 167.428790571,279.3261480046125 166.45889698380284,291.4620053740348 168.61619636315723,300.76142136882527 171.0349719568419,302.62418042311094 179.85761286981804,301.41547044046536 184.64298004347242,301.911938113 187.76770530220153,303.6320670757691 190.2614979337951,308.3251444456099 187.28404639286907,314.3746298042877 192.4666222010161,318.8076357720465 194.1061503744736,326.36905459242166 193.72800153353043,328.7148403030269 186.84790701571544,333.6326427630074 184.86098509722635,336.46140794549785 184.4839346250113,340.6826425924636 191.9021514220031,352.4345488607744 196.87758629706198,356.86496376810896 197.7838146997529,359.28325299583526 196.78987722735135,365.6950190751709 194.94149267028214,368.46640511032547 194.32054624352216,372.31751004508646 191.99877246227925,372.8195775003064 190.8862413094119,374.5947363617813 184.50155236500922,379.1051040855674 174.99256672892625,382.2397781424995 163.9937075543581,386.85806331358754 158.7115265202075,388.23730024999566 153.90099928828926,387.5045237106049 148.21389093105907,387.4914936682046 140.0872279906723,390.04485826348457 133.2251627788583,392.94520967697133 125.02989429825769,394.7520055385562 119.2816751139279,394.908668747608 114.57039790752073,395.9289536979595 102.99225122870817,400.5195584902467 96.93067543988225,395.8796557947877 89.39118157714788,392.46707562266533 83.84275030386097,399.24922391840744 80.91587712587942,401.4092530080911 69.60039614495261,400.59898537817 60.047207311486545,406.7398481210231 51.52146780832672,407.8218300711708 43.09874835101168,408.098530802421 42.30525349847424,411.76387618104263 47.492343453632785,419.9810630324748 49.5706178254182,424.6167140209225 58.5114550351746,449.9596217868567 57.993941854405605,455.8951752549806 55.00365953761004,460.584992021728 50.223624687993826,459.7546899496507 47.5077144782261,460.37997667520074 46.67149843515384,461.8744241953153 51.90278922909221,482.80530256801615 54.08223085480198,489.6279202142191 56.08931006019532,490.66350444309967 61.69196232006253,487.65123925579815 68.47566055781454,488.35299001126634 76.96853014629,488.1546101051713 79.88400191638904,489.13395657207275 82.74558980820701,492.2847206894344 82.25937650827248,496.45918344524625 77.66372439814518,504.0112825988235 77.34645278522169,506.842485114787 79.358957630817,511.77535342533156 84.04903275483792,518.3768085708678 85.75263875633256,525.2746903429036 90.55478945180444,535.3094475409573 92.94974274262471,543.4960405559693 94.76645231393832,543.8642792190437 99.49974754030723,542.5164226759368 103.47767064301463,544.9638226380459 106.54335117004575,548.1805683169355 107.65689772930806,551.7522558573627 103.68543047997532,554.5830350921626 99.72779680909403,558.465473545328 97.77505416052148,558.3919372927353 96.52071449293874,552.1323890616663 94.248609223309,550.3878554156661 89.52180464190722,551.8787588030953 85.42077071853596,549.9802261523228 82.67879212208264,550.0651681470781 77.04300461208125,555.2953121633099 73.23145782094555,556.3319097248282 69.53432293285852,554.511319278864 68.45337067152302,558.3302220512894 66.9378039249604,559.7225603884344 59.06433755280433,561.6166594470496 56.870285949588805,560.9957518807514 53.022788288660195,556.6601688361372 49.78782270778803,556.2342328245343 46.60296760804165,560.2819517297427 39.06424921985294,563.3844974206993 36.8392070367097,565.3974634703886 35.304012633068446,573.2418521598493 30.677728417089483,578.9181318020132 27.998671917888117,580.9227511757117 20.389988013194333,583.2573572658304 16.105816500183714,582.9345393066095 12.204869855026447,587.4282752991751 11.52383190260452,594.9944422036712 9.493353298691865,597.3788738368203 3.812072402858648,599.4091814346807 2.036752683469147,602.4319115582379 1.6795898098740727,609.1260240975964 0.0,610.4744320909704 4.997271261057411,612.7005864333871 10.22471997318496,622.3483488193065 16.94206452835357,627.7422714833605 20.20324397763562,630.8961802817212 28.85240358002317,646.2473936421304 31.570703760158775,653.0517659079533 36.592529948462186,662.7280537166066 40.86207347561709,669.0902824583648 46.548224473125536,674.7720394516145 50.73560924064928,676.2569263238038 58.072631995674534,681.8156839052551 73.97102661884887,683.0541854796857 79.80806585193062,684.4138596766016 85.19117029650386,687.6348890719589 98.07647629992434,697.5087740526817 105.11956916751103,700.6044468882894 119.8118692541718,712.8073248324527 125.80693003733418,722.7772907602649 132.78934634722575,726.321495316216 134.0125266944252,722.1487468154155 135.51258801047518,713.5526556810726 136.50579591316733,710.4709915031009 138.64483118629096,708.3285650782705 144.2588567900758,708.5853141941884 158.72888908148164,712.4959824826009 163.54449389172413,715.9398824556727 170.64517252271727,723.6645321322239 182.1268403927001,730.7555928254719 194.59199514631223,742.9752867834244 196.81096653748367,743.4298934478873 200.4828331246006,741.8317141851887 215.9018344226453,744.2554227787725 219.43214115135774,746.4905485728525 225.87226433270462,749.1292842014516 231.32281653203623,753.7975076462355 239.58526962076283,764.1667821889813 256.85712523851333,781.071046741179 266.8569829627423,775.4025336332604 269.5500373693205,775.699448297187 273.7995698065565,779.9699539745781 274.91612870486904,786.1771227982574 279.3420866801447,806.2522855635926 281.6162660110617,824.6811044308233 288.96698339330624,842.9748377815612 297.92012519382536,854.3834483221577 299.88951304805164,859.1841060121582 304.7175469974608,879.1355111960937 306.5316417407241,893.9245408685241 306.8750898926984,901.5418655290393 304.029681245645,916.2231935775433 303.73085395703424,927.1026057391075 298.1423030469026,930.186895600604 296.78567353309893,939.8618598083751 298.45027330226947,954.9561411341102 305.70627676276735,958.6003537092283 310.46784904265036,965.8778536827871 312.80883798689456,972.2793774133831 316.9008394355581,979.1993081109873 324.20661621463586,985.222400776165 332.1013895453422,987.2132626080316 339.3579665037354,991.676056958732 348.76192236708306,998.6624615907457 357.6936882480537,1010.3383321781031 370.60366094019054,1010.3362315375965 386.38124247628525,1009.1811321580149 410.218945347721,1001.0062252277017 415.35458625882336,1000.675863685679 421.40698839880025,1005.4242653299202 436.2889061696795,1021.1639918598357 459.8936953234222,1003.2894408441983 468.8491474195474,1000.3600306089853 477.5513171632958,1002.5752041787639 487.7913473569355,1013.1681507054116 490.71650240147017,1017.553880932374 496.9131817114508,1020.9766107839373 502.1643575252689,1023.1455955047163 509.7448330978842,1024.0 512.056424183482,1022.8602773637781 517.1911551671504,1018.0620114420324 525.0949718484029,1014.5086297978243 532.8055081363044,1007.4345708841846 541.1629528251526,1002.0397859122314 550.2323280500029,997.535229219388 564.3284210815236,988.6501431081156 567.7456722426124,986.8347115161192 576.5964436421283,984.7350372011362 584.6895171924216,982.0213873876879 592.3172408422671,981.4229691129017 609.2415097915822,978.102114547378 615.9092906738462,975.9232214612063 622.3609356360694,972.7358916654907 628.1972228988251,968.4347768820068 634.6047036122882,958.2356765415589 647.4379507664511,945.9462412165805 663.5954569320123,944.2368751106773 681.2139486894646,948.8338036635685 687.0140306320347,952.8929903451922 694.0021613688918,960.972236599129 699.5257600558933,965.8689061187538 703.6538614629618,970.4526535297666 708.4197576889077,971.7013697206241 711.3397437577182,969.5388286489091 713.990550883212,961.9494168767911 716.1789114138212,960.4549702158286 730.3026329749604,962.7219086307201 733.4465453769204,961.7389123589181 735.3783536765126,959.0728578512123 738.3034945753117,952.2352845300725 750.9983488871543,932.7372313063127 760.813934073481,929.965664139772 775.6147373724615,916.5554709510951 780.7791107028902,909.0648286218347 787.6872162959784,903.804500051938 789.9491496581646,901.1933044633279 792.8029268377039,893.5591376159421 801.2530183422023,889.3578239388419 804.5252574363982,887.2989950283998 804.9529089280868,885.0398114899943 802.299014549548,878.4095339801764 799.9515125806132,869.4378988348633 797.0054426156163,865.4785172449598 800.7009857515247,850.3608565920123 805.4193715430986,845.6957668869568 806.2221111704717,839.7560722285251 804.8650855627454,837.9928577361039 803.2037647031522,831.4469213931217 802.2233124772757,821.663299465337 803.8280412531103,813.3987172433023 807.8823087321415,810.9400478639421 809.1590737770072,804.6996976755689 808.4286421640871,802.8508538983328 804.8331841167192,799.840594631172 805.5787964305312,794.9058233084554 805.4269613536728,791.1699082300746 803.5252655947871,784.2567689397206 803.4032132683309,779.9896338167523 804.423476343348,773.4829245599879 804.3489961695861,770.1067406198765 800.8944242812315,766.9955257629103 798.3865940652688,759.086265064802 802.706563515627,756.5799324018274 792.0586035884694,742.2130853431022 787.6758437345837,740.3314297831165 770.0064002702611,742.0819662327526 752.3473134033478,748.3193854177593 748.4712549181049,749.3846781415807 741.9005506350726,750.2900639443717 733.8197588430655,749.5334854847856 728.8906135925288,747.1823220421223 719.7862096231153,734.7560919805428 715.1737747861134,733.9726132403757 705.6743894734282,740.1517609519899 698.951871776547,740.8072434995454 694.6418218458458,739.1248271436162 685.2872144838007,729.3111726922862 680.8119713967426,716.7191357263861 675.008833337686,712.1062848392326 666.5249059373333,712.924435411991 656.9538860211024,716.6220700521491 650.0039745532741,723.9464885634766 647.4591321071022,727.190605570112 644.0851710722741,727.6539870906867 640.3042750548757,726.6917757061535 636.6152140137599,724.0631285854208 628.7403427259937,708.9964668061366 619.3649524616972,707.5003700737237 597.7438524361045,697.4363179819778 592.1684073849531,695.3469293243216 583.0410625499214,697.0696634485182 581.3632129577537,696.2014226588583 580.8437952292055,689.3369381540838 578.5449178766322,677.9138595529317 576.891833747459,675.7175616045221 571.9659342198993,672.3169208959362 564.717835489346,669.1543772473945 556.8084514986663,664.306447915324 550.2523332209823,662.2963410710908 540.1866065265,668.6099626446386 533.2319211243852,670.6184457772339 531.7096368649977,669.6596623837811 528.3482684405568,665.2645571343144 522.5109167209262,662.3414517522731 519.3424067776996,662.6384722252274 518.4238176358884,665.3855871035587 518.9024309559348,670.5827089170273 515.3314894324675,675.719501906706 512.0735779053565,682.4535945929503 510.1103668022876,683.0107783218658 508.1015244339383,681.483385461449 503.44485446919623,675.558399732571 478.0271299610982,661.3333618311708 473.47236243129214,658.4237373206581 462.3786402044209,656.131928822119 455.7725819556738,654.4205472350461 447.804424176453,647.162461991537 439.1628130997236,632.8058211625532 434.53738424374507,624.5199928097321 435.1562146535084,615.3766536552325 438.5551169508003,611.103037105489 444.5111420220042,608.4149048145321 449.6842111315696,605.4002931864416 450.3908865292008,601.6922646240972 447.8828573296056,600.6683847103762 437.5355772412202,601.3062825377592 435.6046293830453,598.930985144104 435.6806437509628,587.9051111396722 433.62324259655287,580.6277110653853 434.20124953470116,575.6225433509551 433.4189462576879,573.5501977532001 429.89201630876056,572.4098896606368 428.77439507467255,569.9445302022768 427.5287798552235,563.7422958385114 427.83615867177997,559.0303485802744 428.7611913494571,556.5728002498411 434.19609703245726,548.4511175433022 438.5295742671557,545.6523312120671 440.78894707164284,542.1107958047799 441.0450121974736,535.1849875299004 441.8225531731784,534.5735272085396 446.2311757044422,536.9691222732279 448.45671851730197,532.9481885577246 454.54290263047307,507.8906107558254 456.1838747433848,502.0874494335811 460.4492328246082,494.37120234488214 472.5690138756487,481.20207048447855 477.4742137673757,477.6662859647722 494.3120225254435,473.6537753773026 504.1542445564036,468.2944886287614 513.9724665453153,464.65646930638616 518.1630327560201,460.45823524422804 521.1212290840599,455.0720130906345 522.3774478587635,444.0681508452549 526.0143942597945,438.0895457558048 534.8247443197976,428.0074929936361 552.3878812816947,414.04886898301015 559.9740640101568,411.0134660335942 567.333609008893,402.0043304784042 575.5186416659354,392.81214136533015 587.7638489588946,380.7646894811936 596.2837327607384,376.4655058705781 614.4223867370739,372.4820328981226 617.6072138933952,371.2552385934342 624.1834415620513,364.8645869347861 628.2887629602927,358.7701932896996 639.2489209631692,340.61842378264043 649.7099764977261,324.91572848609655 645.2839016713044,317.4651791030989 641.2678709896446,309.46049494450745 638.8588013074383,307.42776993709776 636.6888236045528,303.55545133127714 634.0417434241162,293.30834396667217 631.7236133958114,290.3916913745543 624.0139240219152,288.37976878893187 618.2507701734949,281.6069412266537 613.5657626793784,279.4566762874674 606.6026788581041,271.74438179827746 602.4872398836845,267.92102480945573 591.8755684743699,262.25077366125413 589.3462102188857,260.29851681472417 584.9911474151074,259.72774333111386 577.4120931147021,259.92169340159865 570.7125586915844,258.1414023470743 568.0305972359655,258.2308160775955 561.884173366922,261.45196366639345 556.771785831597,262.71168940032294 551.8288912232435,260.62536493936284 548.059393385861,256.5103347243148 543.1601824260682,256.8660212991548 540.6826620936097,255.99141136983224 533.6960944063753,245.6701565614262 521.5856216573867,232.59022685735908 515.1987542337375,223.0307000099574 500.2041513771594,207.48396378346706 498.3106161819692,205.91393697934018 487.2487970553447,198.64312424630737 481.1368675148067,197.5160947195012 474.8501948579203,197.99167847361036 466.0015467378724,199.8467678019806 460.195491492517,198.203698844031 451.1961248080611,190.31518294347427 449.11507168525276,186.5975312191913 443.9216166355397,181.5056448433396 438.4611219453161,181.79624544452338 436.2476861592525,187.81433107177884 433.17268857167164,194.28880121922214 426.2445856176548,201.48352821204787 420.22236677413764,201.4613866266368 415.5223132430037,196.32303825334964 412.95462049431916,195.7580549384736 411.17274542957216,193.8731755949443 410.3498187523652,190.9642443129494 408.8398748947202,191.0147423183438 409.06050051938826,193.71108225881733 407.38934292510106,194.29795703304 405.4656631889531,192.11524411941605 402.9490644473561,192.01892462415958 401.3431009798585,185.08423031822747 402.03395158005424,181.87140664755373 399.6098600095863,181.451212018075 399.27294765808966,179.60635731450714 396.9342198006632,181.7585177831088 398.0494569963065,177.06835043276214 396.36899651203646,175.45918503001542 397.57265380028633,173.11735354680286 396.70879352097904,171.4187824477383 399.6041566762815,169.27447741226547 399.2485647693126,164.74663702546763 401.0180563012075,161.69218207811332 404.5551433364126,159.25163999652182 405.7540079205894,157.1549127749222 403.32205326049734,152.78101795288273 399.22269117584517,149.40101466041074 400.9880435298724,146.62111610959585 404.78403536381836,149.25510609582034 408.24136424712015,147.22053642586718 406.9464931663568,145.22146084364329 403.3862514164848,145.93312329942387 403.49106956230423,139.61506156871997 404.7467831700467,138.68799999160876 403.6720785303127,129.62017225918078 401.3904956151428,123.79778258709246 399.94135821059047,122.48762737868276 398.9727680576213,119.10117886156524 396.81160251383534,118.46040078414023 393.1486278221171,119.11031841065164 390.54367391384534,113.97424452991686 390.13640331622236,110.29053038200107 387.81929195373397,105.34269515721599 387.3759107455013,97.99341584621664 386.4847202493337,95.44112299141477 379.2670476002665,87.59938356014402 375.38573395080124,69.93771415962772 374.6444584429329,61.47027371154593 372.38485947970287,61.69117238364504 369.13848135974774,58.740818072953516 366.1309523362887,48.232430660196314 359.23221378866066,37.75873145029186" /><circle cx="237.9955138050618" cy="527.4862245636974" fill="rgb(100%,100%,100%)" r="16" stroke="grey" stroke-width="8" /></svg>