<?xml version="1.0" encoding="utf-8" ?>
<svg baseProfile="full" height="1024" version="1.1" width="1024" xmlns="http://www.w3.org/2000/svg" xmlns:ev="http://www.w3.org/2001/xml-events" xmlns:xlink="http://www.w3.org/1999/xlink"><defs /><polygon fill="black" points="965.9545180804178,520.6474366908614 961.5652344316346,520.9762388327667 962.4723598898971,516.1987010737229 962.3294174394566,512.9925923737968 960.1637274781906,506.8400576980037 959.7023639803161,500.65522003080287 963.0933732350672,495.3351573946644 965.4301305842982,492.7745654668717 971.4515660259704,490.7928938330369 983.2035956091084,490.25056076547486 986.8114653716016,489.5200940108414 991.2638730289522,487.32153171954525 997.8266796388726,483.56455520844173 1003.7989189506585,479.6121277849149 1006.4317367550321,476.20587838382653 1010.0613924631581,468.82495605372924 1010.7982977421151,462.8674589766027 1011.1026461069746,457.2907535551772 1009.1895830346302,448.7813543204681 1006.4319735500434,441.03026527671085 1004.1229359547528,432.50192179581205 1001.66132950473,426.36526674520934 998.6139832981643,416.59422876044533 994.5991102254742,402.7786419215101 990.3245401666159,393.3399103098232 989.6663621276172,384.1031671112443 994.313444285151,372.7830295393572 998.7359861133338,365.4401374991121 1008.5762850446378,361.6092983090056 1016.7864595399894,357.6776661970612 1022.8266123529845,350.43271423443457 1024.0,343.7082134504101 1019.9300142086305,331.08226149926975 1014.5630137511971,326.77256075880695 1007.7267789344767,320.388135401474 1001.2006726452,315.2146021966315 992.9881837203203,304.7486450091867 985.9440336365196,294.7615142107178 980.8141533133592,286.4700801967824 978.4217865799051,279.1456287699829 980.7920193418223,272.8783113340097 989.1521364235157,266.5597004410495 997.9278926348361,260.2633852376065 1006.983877499335,255.9864013268609 1012.5342038370867,250.30831558526643 1014.5010642487124,243.62854745743664 1015.1475873354285,239.26852775932218 1010.7546267838753,232.21867400752205 1003.0406813667165,226.97965954042002 996.3457223392148,224.99750854994795 988.0279062441161,223.33208651469 980.7287090248999,224.90967274995057 973.0966602372474,225.28242550731557 969.6529287799881,222.28298173677706 968.659902801923,218.6414916186743 970.5169283315635,214.34395156040557 973.1166599526863,210.88912535381962 975.1207329712164,203.81177838644817 974.5521156837444,199.78255781065957 971.1433653932198,196.39039953033955 962.317410552813,196.30210446842045 950.1091719856682,199.61791981821432 942.9725176469191,198.02131349447336 935.0064092424026,196.78251940475752 924.4381314712498,192.19908748708679 913.6209857464568,184.81618424136968 900.958430289477,174.52930413003958 892.105423791007,168.05630628493645 882.0236306161157,161.51966170528488 873.995776898997,154.2877171807686 870.7543110330872,147.72440393259853 868.3680509360858,140.40344611558191 866.1256792127597,130.68707142758717 865.6200755675262,118.26594315046691 866.7970660873068,104.73987842506835 864.983253969541,94.25497154340178 861.4335269633937,86.46601263818673 858.8684365514416,81.93465558920172 838.369298150855,68.04130519502337 826.266214145746,61.79064653072419 813.3532763333109,55.8969848794585 803.8809291556889,52.98607995141879 791.8090098449002,48.90474483136336 785.7867287641676,48.140071715546696 779.7645233582025,46.583623766313394 771.3694961460066,48.23013651168401 762.9360169340681,47.487074157761526 755.7209549929536,48.328108433730335 748.5205596433876,49.55878932884332 745.3122716964543,49.17652544831981 739.3207968239531,51.208374433959875 734.5305905209967,54.03281894253939 731.3365019812785,56.83953240488779 727.3413596566423,58.860748179660504 722.1269808986585,58.481234791501265 716.125106152756,56.91611992782498 713.2944037213729,51.336694763212904 712.8693875786114,46.144387991314716 712.8360878265145,36.963056778563896 709.6168212108989,32.98387846175035 706.8128204842138,30.602428912268465 701.2069789932974,30.623864609962993 694.7994823553818,29.052257603857242 687.1894637493265,25.490341051731093 679.9798331433568,20.326247137230666 676.3458626127964,12.746055364594781 669.8872973934377,2.785166060565416 667.4858057376945,0.0 658.2905042923194,0.03286589597985312 649.4962083218013,0.4538601900709409 643.933352999933,5.269183999688835 636.3796017163523,14.08142559809312 629.6178151196762,23.68091796878616 617.6822270134724,34.904455193334684 607.3285104885202,43.71650266046527 601.3338151145629,47.33434250677567 594.1908736918406,55.73710163964142 583.4033211683777,58.56343691507436 577.4122747211918,57.78573987276843 575.8106740425831,54.59542973428108 575.7759303223852,49.40140043472411 580.1254196374255,37.40683898982718 582.5075114952186,31.810161251999602 583.6751489524819,25.817937102335463 583.6603678870467,22.62157720340406 582.4457517534746,17.425736094638637 581.425301631536,15.578533415767765 583.0817913240273,12.946286628393182 578.1448486235398,11.839623232533427 576.6854503684065,10.706185661029394 574.2023506977945,5.968160255664657 574.0576638764172,3.483203102808716 574.9186979287061,1.6325858417775407 573.3472525143627,0.6296815271228979 568.6558348818418,2.134482578345569 565.7554404066309,2.1921920087735316 559.2793313257632,1.2743399344594764 555.9841618141635,2.6117839677501706 553.164181987679,4.761858171828408 550.2909372531194,8.494400395655475 547.50685787485,15.072970920172452 537.3035508137109,25.17295104651248 536.1160124255579,28.36693887132924 535.7444459322088,31.393992214835066 530.1999461363486,32.156070717214675 528.9173889288635,32.78745374093455 526.6521061101452,35.98949573243817 526.3616059965269,38.36703991706645 527.2332910919077,42.64121851050413 526.0198164758193,48.15405837481512 526.3640625070873,53.73912009475055 524.0396836716541,54.66794113965648 521.2468278896166,53.61486347009668 519.283058803862,51.64169543411231 514.1662375604051,43.50148508809036 512.9029833513908,42.23655867114519 510.0627267218282,42.99209303103976 508.2031476550339,44.90734652819822 504.48024377378147,52.85787183989953 504.28604631242763,54.90802043989231 505.79903466560023,59.15552805994332 508.05522710905035,61.296827251943796 514.4906236690722,63.69805060979354 518.9615530762109,64.17285446056542 523.7949934467309,62.74957406565068 528.9327710289166,58.74527484930388 532.1127218492522,54.41211867581637 534.2737204473552,49.376327815390255 535.776399415354,41.44586644329593 541.8959221550812,39.10894126540268 544.5048538019802,34.09544384533274 546.2160352851413,33.24420135333344 550.497783675994,33.34662863980793 551.26213414603,34.65950716321322 551.2524117867817,38.732440739584376 552.7487954606115,40.72090096789259 555.909978212143,42.264456739465004 556.7499169189576,45.27830320246835 555.9311450506325,53.73582714963959 555.2864979765488,55.41910440993979 551.1339622060792,59.51709474086317 547.8255766116996,61.668536301938616 542.1923071181689,64.15565681116254 538.8512774131522,66.40042106960254 535.0991212706564,71.61068918472085 532.7999653258875,77.04459245357987 529.9817269512347,78.99260788014817 516.33620846731,83.64617037532435 514.6180506438768,84.91987701305845 514.8874186052092,86.61688132952133 517.4425459057687,89.24973242443536 520.6402993895904,94.47774209458964 521.5603272641625,99.57735780472603 523.5940297065172,102.40754190277107 526.8586746447108,103.9443701897967 527.8010722174611,106.85200940227071 526.3583239847616,109.42445541831466 522.2988641797411,114.03312486405127 516.0476726056365,124.29284643577671 513.9735563487803,128.8478563956644 511.4656465694633,135.7851652678646 510.33353128980843,142.64236842065316 512.1895953103926,146.4564733681167 517.3790308898905,151.32483205037306 517.0143707576766,155.31063939577461 511.849420051907,166.27743581563914 509.68237506841183,168.83187809510923 507.7813692767424,169.3059326093046 506.0150346598684,168.3761725403624 498.44700270901035,162.57883776876736 495.9417067231939,162.54076009432708 493.6095873744527,164.5983924336149 490.53324420138875,170.12448031233498 490.0789860841942,172.50993368017294 491.3234764797436,181.69296811541574 492.5718389416779,184.7080810482322 492.2004548339813,188.28489166858446 493.7260210180321,195.14591108788136 483.090450286609,196.14442796274602 478.25585344884206,198.01581645017757 471.26690818861965,203.57751880942897 466.69472497017455,204.83324836733152 463.31886389882715,203.87145385269105 461.62042945559165,202.45690462998868 460.21072161774924,199.34513404070663 457.543293335262,197.99567840157317 452.5443929279086,199.31410163333328 448.139113893321,203.04092939411612 445.37737931098417,207.09233561478936 444.3462769245109,211.1687213228812 444.45191036331283,217.50718042185997 443.1962355517492,218.4134189008803 439.8715531826506,218.75348740340542 429.77935988545283,214.06451983518843 424.9124787166433,211.4485714298803 421.863188817547,207.7785527546306 419.9915267959224,203.73360105424638 418.3390835812142,198.6898309981135 415.9648932376676,195.49304484732522 413.63200438519704,194.23343694117 410.65529479194896,194.50011530424933 403.96859279229835,197.50129244891536 401.71586003520906,200.24992413485882 401.5172732402981,203.79807075417705 406.2629795047882,219.39108024116217 406.2837018738144,225.21851218230188 410.31978057394844,233.57247660616804 413.58200459339764,243.13569698745107 415.9074869053579,247.50268191389057 414.44570195275753,253.73151446569693 415.52603722266423,260.9082206035331 415.317885248984,266.98433467452253 414.0714798689266,270.5578903496886 410.4455442895612,271.11380066032535 404.1743340134117,275.41616514517864 402.22375852042825,278.37488876700786 399.6711425904948,287.21564023429295 399.32922815413514,289.4931005992539 395.3788755342386,298.42154239494266 393.06772726306946,298.3766081773535 388.7312045513358,294.840815345382 379.16439805473823,292.2282605741921 373.50530714244434,289.3776760561624 368.30619307739533,288.22022021086883 366.81371885871897,289.8913418302432 366.57780188055517,294.48461076918784 362.96261243679066,295.59663937331374 357.7691553138359,297.99377044507787 351.798448027815,301.93917991623726 350.6393238858958,304.33758368308423 347.2646681560232,308.2928140495707 338.78194052619887,311.7750505359858 330.0786574070135,313.1810799896821 329.6163173953032,318.4615162485344 328.3623783347714,321.1262536740562 327.2447252426122,321.49289735192235 325.2018522754566,318.65878192775693 324.12326945265755,314.0670459745223 322.0837363150172,309.7730818728044 319.13762381906685,307.9127094227449 315.14249349996965,307.37870270236874 311.4301879837405,307.53124840230225 307.6888335657809,309.5816042289059 304.82177660460405,313.62265141741227 304.83515182944546,317.8058485720125 306.4442826615316,323.60688112327824 306.57656817397276,332.476083048831 303.00769824784373,337.008674761977 293.4897696369301,341.3824108475509 286.9545553496553,345.34994510009517 281.2408867193284,350.71219808828675 280.0788607180101,355.13385667239186 281.30455148437034,358.7643004583741 280.2516352512895,362.0201791975034 277.4551727526891,366.0411745205906 273.020763111815,367.96138264321945 264.86294961454496,367.5778877396118 257.1086261507289,366.2036092225535 255.0784264055552,366.3269951269681 253.3292935807764,368.5673674407166 251.7411640276193,373.4151998603934 249.1557732294138,378.17707702282655 247.4143489396829,379.9372832192493 241.85746706473822,382.4439510803338 236.0898537682019,385.45857694621935 228.809945553832,387.4423602129425 217.16116869205666,390.970132434923 213.24972542411655,392.60887275396124 201.8607427992389,398.80934561509696 195.89751570545278,403.0359237612038 197.38260674891004,406.3424260149506 197.0065954234554,410.5192947092458 195.92662306237304,411.7506840412321 192.640722165603,412.5050733537226 188.77213681176528,412.1882404123459 185.4188914010713,415.20174761888904 184.97522659675533,418.5700859350138 186.9263065145409,420.80212505186165 191.59523479291076,422.6775083343946 198.9275648645434,424.38479843659417 200.805620264667,425.5000844147626 201.99468101683408,428.8485862038143 208.10854139964906,429.0840493726282 210.83426818382296,428.25050046859474 213.4025581841129,429.5006351904285 211.1436324073103,431.74095954520703 208.92627009034177,436.2579455754079 202.9517988291283,439.98348023115784 203.40304714359635,442.88817298034564 204.92839373647934,446.7990403679692 209.80979393652476,453.7427435838662 211.47846540687866,457.6576528483434 214.47066808480028,459.2697259104299 219.06050357025836,463.5547477787497 218.3168589845352,465.33297482813794 213.07781687293817,471.976891275745 213.61864725103192,481.8101448485517 213.35110230346623,485.0021875833733 213.8994837157056,489.4883911377156 213.85855501094082,496.86202546479774 212.32143666401882,499.83645628819016 209.79504830256147,500.8874233367706 207.30553566318162,500.9314823412669 204.22894001989056,503.71680070705753 202.6264189598102,506.30553445009156 198.94392963865454,505.07339202193197 196.67544720132955,503.42617468660296 193.42407535429894,502.10711839869595 191.46727990764978,505.679974328896 195.05402798674604,508.36361621580556 195.22050861111313,509.9602736057123 192.85509480424,516.6688975458047 192.02320239616645,517.6451581782904 187.34777141256663,519.6641289291143 184.96492661868754,524.313900847181 184.20668840350967,527.591721090932 184.62146774341298,529.0446228663736 182.90276556396017,533.5331775009361 179.08894595132156,541.45123756658 173.92480769484942,547.0532804685758 168.26785546117407,552.2223845834448 163.93001328947207,554.749405710825 159.32495872205848,556.7707144226991 156.10365641233105,558.9943953842525 151.02534901959703,564.8879506341847 151.47881198519963,567.0880754150455 151.04090260867824,570.0736458047642 152.05336963824786,574.7749562725395 152.08905247351117,577.4691941756437 151.26102978843483,580.0410286486656 148.31380450108878,584.1798280280279 146.9608911383367,586.9394467882418 141.26531114250133,590.0417765997598 137.57204319221745,590.5676288227509 135.07748575990018,584.8441295387166 129.63559567608726,577.1775105861516 127.99862726790123,575.5471752343099 123.65586986016423,572.8808509450955 118.99114478516859,572.401480543868 116.610106763531,573.2397894775513 110.52897303105709,573.7332263502179 108.5251463317185,575.1851593403466 105.75957964472698,580.0329662162815 104.29638996301277,584.3843992686291 100.62455979623013,590.3112276959998 99.47559999859344,593.6691740723002 99.4995022265975,597.5604712638469 100.83470504278665,601.2688090360855 102.29397717552413,603.0929706900614 102.54654624130058,605.0862205845768 99.23382622685945,607.8347694045215 93.6988988568949,606.8284161878681 86.11414889990857,603.2966812575471 82.65098830812194,603.5435736288791 78.45288457308126,606.0486493635199 75.89890213182218,610.3898948327322 73.37580119516622,612.8383866924103 68.41238249586947,613.6404437931885 61.64713770669778,615.3318295676177 56.84289161430191,618.7221964844723 52.38425485162697,619.1410539817939 50.11809492638218,618.5989353358827 44.42324598915564,616.2050100766268 43.053367937342166,615.1754427624716 41.90740164880757,612.3730564078674 40.33327060162241,606.0672573916667 38.19164698916053,604.7318967489622 32.6271946386323,605.5243382241424 26.35685817535398,602.1366243614507 23.97692993824754,606.9675688115161 20.782780899403498,609.8996729852909 16.53555331195601,614.6196182889344 11.80782406185908,618.2156247285795 5.3586916946734435,620.3961662480583 2.626566655360432,622.5338931624831 0.0,626.2848480837418 2.1373432176739193,628.3096607667337 9.026916765596207,631.3243744904955 12.4539341858468,633.1837071594058 20.02582084629424,636.3021708818436 22.638614051214574,639.2172928487529 21.753062621261464,644.3509830433079 22.82032074755506,645.7686876461848 27.578474164892004,644.5621514668117 33.82976045640883,650.2046030083997 35.39944726903506,652.1199424055 41.16873903686124,656.1180083947091 44.314184231933595,657.8152231296358 46.06455704303818,661.720833025627 51.690091115782266,664.0594464786277 59.40642685258051,662.9658717909068 60.489349456593516,663.4961420648115 57.916684573161255,668.860101474834 60.870951807877496,672.8106682311789 62.042439836530065,673.5390852108457 69.61454140387646,673.6920064726172 73.64755154458977,671.9063201754121 75.44970747990496,667.479071268123 77.41494922812679,664.8016858910008 79.8981921272037,666.9828653090748 82.98725110896781,670.8170479744128 84.53265594982885,673.6415994056617 86.30216282669699,679.9449634043722 86.74562706494422,683.3492362840592 86.60236212651657,687.536964445564 82.68502105845909,689.6555315331784 81.65026012214118,691.1238725479795 87.43355094857584,695.0597278625952 87.2037416867351,700.1195051877664 89.54066091765732,706.1592958241677 92.12925605161799,710.6998912115441 97.25419824856512,713.7210463844414 97.9049053407521,715.1311630983366 97.90552263430553,719.2134336866519 99.68208203262469,719.8474837476463 105.46666475390062,718.3658278775849 113.95547301965716,721.8055579542983 116.3181961655036,723.4412266423438 116.77685407540837,725.3439369649583 115.91081978468488,730.0153090886533 114.3710261269404,732.8760280872896 117.669643593636,735.298368685279 120.6867418359948,735.0187738282821 121.04140221181738,732.7522310119825 119.47329059943031,725.31125608772 117.20812641901531,720.9470969041541 119.41895196432678,721.2455167333227 125.04643296267439,733.8587044566149 126.20218167718264,733.799907829628 127.53590059510799,727.9949148391552 128.47093462897402,726.4220032353753 130.3215799233804,727.4763687659905 128.70099277547743,731.5382078167166 128.10601823332738,737.802863087925 132.7079717763903,747.1514786980558 133.67504034378186,753.9557425720216 133.41448482191967,760.9185650542099 134.12247567804766,764.4158182085941 127.75500354909336,767.0370235452475 124.6585756059765,771.437644248592 125.2526540779231,775.5837987326348 127.92335539644205,776.4710052049084 132.81449023112853,775.3648913407131 137.23002879699297,773.33888039307 141.31538303596483,772.2207647688502 144.24359658506887,770.5785539287717 149.38782451319892,765.8830904634997 154.9155673596317,762.0987460982337 157.35254163895533,759.3379990988203 163.27111525636752,751.0689289345305 166.93290635017027,747.6464122598858 169.0249374937729,746.581554428014 178.4578272432172,746.1328703910024 180.59783687917772,745.1765742053119 185.1651313780499,742.0054178445224 187.28412847917778,741.654235535603 190.87223503482988,746.4169059126688 194.48042478769815,746.2016311556342 196.84611097193388,743.3696732366085 196.81870759061624,740.6878518330644 195.49435087550887,737.3703804988029 191.55075585851117,731.3055879782362 196.6142606610968,728.3459934110879 201.10496665942986,724.7713048610774 204.4503373611149,731.2123230324385 204.77645329835985,734.401923035353 204.3018363404594,741.455080525102 201.22129796939683,744.3623331501001 199.73558216925224,748.3642270554623 199.85200482467823,752.4551834188129 198.3817704635955,755.5142382547996 198.84885312879416,757.526441334921 201.1126732573557,759.6483067979865 208.02055915006306,758.7632836592707 212.32830221261278,757.6230476575638 217.69374869180152,754.9897487497979 221.0882602885399,755.3603313613783 223.1500179098001,756.6990972049134 225.1661169582329,756.4484752890518 227.33833580226616,753.512093211972 228.02491589926873,749.6466095492195 234.7003622915312,747.3092134656963 236.61351314263803,747.152502450636 234.07794429627717,748.5883901522384 232.578801794381,752.2126824893468 239.24208373563758,750.0489304069636 247.518483370587,745.3708121021799 249.63673407896513,743.8096652268193 250.78049319390195,735.657287831917 249.45596047859146,731.0526574408068 245.95742953347596,725.2242452381763 245.61969190429932,722.1354929547016 248.19278510106992,717.695140793243 247.97132838062242,713.1084142428449 244.77760551649072,712.3169518627581 240.7381825509121,713.3212437572369 237.23840295566185,713.2398056194093 235.76550740049302,712.1230479621429 233.4712450715378,707.4937240534344 233.27642811148323,703.206663930745 231.77763396776416,699.2967436590957 233.1614930540319,695.8445869596095 237.35007680161553,692.5565527646049 240.90731102832487,694.824389036614 245.59417099520965,691.638275646034 247.84428616651928,689.505135484276 250.07341997741992,688.7549235220904 252.67733717449727,689.2914089208577 255.55999968216892,687.8209606145163 269.19747194718013,682.9333177130216 277.5847436468978,673.6746295859284 283.9891771172079,668.4239339955695 290.00170634444737,663.9845404614417 296.8198713975995,658.3416696986061 309.23153235894927,649.4455745956685 316.8424857325199,645.7861126564792 324.866852769837,643.7302192676381 337.3187842782905,639.2264878480576 345.33253144393467,633.9629302038345 348.5201732533499,629.9418264343367 350.8358286748605,628.0766195029366 350.4105586565219,624.6283296067761 352.4993118319395,620.2592497413144 357.32481596967614,616.4378390500573 355.29827143641313,612.3205700626753 357.3673813846712,609.8772427655992 360.527764967144,607.451067086215 365.38026539365734,601.9804667998603 368.11849425654975,600.4436119273857 375.7818981363211,598.5054178544922 376.8886128812098,598.8289675681409 379.3714279950687,603.8578849060569 379.8137121128092,606.2450019128906 381.8553582858249,608.8241395623863 385.100879955004,610.0997094830478 389.61726204559886,610.3667433379011 395.6815145706223,612.1349251902502 399.6623658548615,612.0941322361759 403.78978349468565,611.136866244286 409.71235365836435,608.8867328035183 411.9011893508009,605.2981475505605 416.0283568735135,600.4119632321539 420.5358012409769,591.3523613776301 422.83092042370185,588.0158618960819 423.8999769760916,593.5095068255114 425.7690847784645,598.6222484174049 427.03184325167075,600.1414717324247 430.4869162707763,598.4269107852431 436.55679188667915,591.1970105943874 442.59255866863276,585.5549343324176 444.90396921336685,585.8025968449921 448.02273398921034,584.7733349956081 449.3484003709154,583.4034470572636 449.8620082308245,579.2390874693061 451.6887237466168,577.8838046638809 461.24216886221427,575.6111058378943 465.6313212072651,576.1006843554353 474.2640529004686,578.777173123222 477.86237879995326,578.9587036615903 481.13978194053425,575.4485692390025 484.9229332843698,572.1513317625615 486.7110415115291,571.9904365788589 491.3789456250318,572.986463652931 495.18391025036914,572.9811549067524 500.1105235220962,567.0232442771915 502.42574952881796,566.3812387333855 506.1186123438785,566.3670835087512 518.0971438551878,566.9378898370974 522.6607754291553,568.1386501638533 527.1415111250996,568.6369167510043 531.0678264687137,570.8248977656051 535.1174325193816,576.9814067594672 534.6377293771044,580.4539152746729 533.2299512202197,581.1080511050668 531.7598790969037,583.9621208052075 530.4215501269304,590.2038263031113 528.0914622757613,591.8341710092625 520.8723721863311,593.5743016587187 518.5501907399616,596.0223763259381 511.43341850935155,598.3987405028538 508.6972149704715,601.2406754122069 504.5722380893654,608.9489416842865 495.90190818221936,620.2598989326195 495.47157214504864,621.7462069143328 495.77382279942844,627.4330507691486 494.9119486817351,631.10506128474 492.18649092299546,637.9485901747423 487.5862602281938,644.5515900791106 483.7672025924129,650.7661240053533 482.35140172794945,655.9312199074136 482.7326281607049,661.1164693971564 487.63104077514663,661.2216276408355 489.69324727054106,662.5645115876453 493.00611203759684,662.1515505455645 495.45726605892355,660.7269300655994 497.747682840256,660.4620735707248 505.2665055194945,662.7043349056346 513.6171563097571,664.6368485788653 515.3759818240502,665.8653094062008 518.1571234484022,666.2216871828796 519.8542710187555,667.4109095067842 522.1791165989603,666.1946009706995 525.2353442093073,667.9537778480485 528.4105912114219,668.5194232657478 530.8419151987949,667.7865225901611 534.3985820629138,664.686744638926 530.9211662162614,663.8105028429478 529.8700700324863,661.696694494305 530.2636368108989,659.2111336705783 533.9512817458241,659.7686466726095 538.6931153025716,658.6593074391366 540.7002534474624,656.7943648736044 545.0386851741523,653.9913074174856 546.7343187287323,653.9136996431487 551.3690666793646,655.1929654530966 557.7248051997502,658.1693723016737 560.8686333971918,658.2155789259849 565.5587191425691,657.1135426718031 566.2402852374898,658.0038683379782 565.8562603028882,661.888395344139 566.3176156976219,663.8837323359669 568.5547447822039,666.5035709503325 572.4586936662068,666.8738747392916 576.8320274201379,667.9520855726196 579.8216051268471,668.0113822875695 583.0506871131588,666.3848045749139 584.3001427715714,662.512878794249 585.7361221289719,659.9467528752597 585.8390942698466,654.2661558011787 587.8204639519996,647.9291757559457 591.8180337842981,640.3340717702611 595.9174505169254,633.5337168663451 598.5876787143901,630.987173815221 600.0574693398594,632.3985645023322 601.4078484759704,635.7115161593324 604.8540696268282,637.9691843306414 614.4111107422773,639.7965687912833 622.532203450364,632.8727513821104 630.8984353405928,624.4507460969257 656.3513890098977,594.0069483792475 658.7171313727264,590.5524136823065 660.0858088802175,587.5795160577144 666.2978837865031,581.1871713522006 673.8617083682185,570.7671610182554 674.0773767782555,569.9368799963677 679.8078796855185,560.757266936562 683.7640705045274,550.7591900019505 689.3108216978219,540.7434319378664 692.9000990768606,533.5375261173604 699.2461749326184,524.7210059433651 713.6467875633207,517.4608760947093 719.6469312023651,518.628378034408 728.0767120387239,522.5781748378324 730.5203103616536,531.7611866815145 732.5622887681086,543.3271905047355 736.2006467974768,551.6950520329613 738.2212292156216,555.2806661884218 743.4545271787656,560.4519558542227 751.0875031251992,563.1961804640375 763.5130086825818,563.923350944355 780.3189066329725,557.4288383984986 792.3324971177536,550.1548385588185 801.5347929237545,548.4961152400828 812.7748545384223,548.4126609539323 822.384653922367,546.749752026973 832.8255616719632,547.8721976388596 840.0530676009301,546.616769772563 848.6008148405526,544.2634851596704 847.4494257367512,541.892751673603 846.6251699048482,530.9412508289859 846.6822138384013,527.4644754253518 848.7150185192405,525.6770091967319 854.5575096605613,524.9367921016301 857.8568042807956,525.2796461294959 864.5069672577046,525.2421802195021 871.3628287264376,523.5249777424392 878.6297929046158,520.7082750477819 882.6633461603719,520.3523151025113 885.7575323392009,520.7859539961885 891.1434513175645,523.0464799570111 898.7087388560418,527.0556837433434 903.1149918402506,530.1207271934405 907.0896711651885,530.3532148690181 909.3801238048516,529.8958070070709 911.6367781328429,527.2390814395685 913.5156017883692,522.3872911308101 913.6572748894769,520.0963310000449 916.036872005672,516.7035632477184 917.3922518599944,520.6786593002754 922.3316250523916,523.5605299814159 924.9408408767652,527.5847669295352 923.9865103664724,535.2284255048063 925.7507305294419,536.8445990711566 932.0550350925696,535.8818597711432 935.7590556698028,535.7484474849853 939.1279912693276,537.1119375671357 938.0527228245056,531.0270237750551 939.1361622495986,528.4489139098968 939.2544050734506,525.6549147388703 938.5611304059163,517.5743600011526 939.3743959891648,514.7022793330788 941.1938705272936,512.7233040090939 948.9286321917988,509.94832914715323 951.4266530351911,509.90189787878745 950.3195554359379,522.4127648141992 952.4975886671875,523.5555821465905 956.2905481367557,523.6264588951378 960.7993033188224,522.7182698025276 965.9545180804178,520.6474366908614" /><circle cx="604.2652151146305" cy="156.69363154984194" fill="rgb(100%,100%,100%)" r="16" stroke="grey" stroke-width="8" /></svg>