<?xml version="1.0" encoding="utf-8" ?>
<svg baseProfile="full" height="1024" version="1.1" width="1024" xmlns="http://www.w3.org/2000/svg" xmlns:ev="http://www.w3.org/2001/xml-events" xmlns:xlink="http://www.w3.org/1999/xlink"><defs /><polygon fill="black" points="818.5586890731297,336.9084320758948 821.1636196029738,335.19438797690725 824.205211300321,330.3861218309021 826.1880676873096,321.96324241882803 828.0795680703848,319.05020870851877 829.6264407837932,317.9021355038458 845.8447157089657,308.0841287542844 858.1794609123333,304.5809857034276 865.1422965952765,300.0950746411951 868.7971857611808,300.1691191890127 871.0644317403395,302.71428571568526 871.8188533320332,307.69124302049454 869.330737543606,313.8384891136451 866.5063392723257,316.3833679456085 862.675627914571,318.59120795551326 860.0051896921285,319.20913245238376 853.9962595254807,318.69892308013266 851.0686434969405,319.37950176970367 848.9185519224003,321.37009641082386 848.4644885073589,322.98794188103716 848.4117385634038,326.7444520905357 849.9639684499645,332.44006750739777 848.5264557653395,334.0714571502335 842.0794102362278,335.07063406876625 840.6326344916766,336.07409685169614 838.9877302591639,339.29799188927234 837.4674272170697,344.7146618987822 836.8926999434394,350.2776848199352 834.5308171856651,353.7098967837551 828.9257905575047,358.6936147425081 825.5058519226984,362.70110996248764 822.2291580585835,368.2818884865179 822.5367289005869,372.64691673389507 822.3454824378413,377.6220622145572 821.7262940803353,380.21215399146547 817.4862341176469,387.08179724612705 817.1070649015121,390.40721913399256 817.9421947352769,392.2053702837227 819.5320885159548,393.01198054959707 826.0891644911836,393.08347817969957 832.2801317423316,393.64385761001637 836.5480773139467,394.3194941871833 839.6269338355513,394.0682834228331 858.3547282555305,387.55555253170206 860.6935312773793,386.23038102011014 864.1204160410612,378.0113000467127 864.2543911595261,375.46482977785695 862.4503410464114,370.6435924420707 861.3031756847397,365.6763996896898 862.6535547274594,357.60782834297265 864.1411044533982,353.41390823252857 865.3846458113412,350.9195901313818 868.4803585614189,346.2140664504403 873.3554676856342,341.78412887856075 880.5121827105883,338.4043809461116 884.2274415091256,334.29674083097837 889.1638081237368,325.17314728989993 897.4243517297197,308.02344500188576 901.2542400440733,301.778088581063 903.6688681747978,299.7154855747842 907.1824437707178,299.5272106263293 912.0721705765552,300.0020550802568 913.9417106984465,298.31965415599075 915.5145661443759,292.09757529237254 916.3910077192141,285.81004105117574 917.5674560082559,282.609780829122 919.6818632041312,279.6005615857605 926.4390206985913,273.4088819997472 932.2434079954128,269.70071602684925 937.2265308489481,268.31323768067864 941.4813969396552,267.78962635189714 961.2001097325569,268.603726779344 967.686772350601,267.9510903048182 980.0739497020774,264.0460922196321 984.1048421772842,261.76680295478343 986.677316035683,257.9710030533703 999.469792643502,210.40500237982383 999.2297440205299,207.88322110931665 997.4428715773823,205.5369635699683 992.3567820889544,201.35766574476122 991.6850188218148,200.14275177920183 992.8181020317425,196.0519403908438 991.819247499667,193.13146151821854 990.0156557710719,192.10431474596066 982.1340106921191,191.14206875011655 975.3821254781305,189.66368380811957 969.106989137596,187.55927475768954 966.6953219024119,187.4806896542874 964.8204045253381,188.33243327778303 959.3464611968258,189.745727627169 960.0018120023577,195.35092708431773 950.2174963050112,201.76677769901414 946.7396409972532,205.37773174117365 946.4541694490166,208.2717084236582 951.8303637829549,218.63626108525966 952.1893568448248,221.00476053538705 950.3352679169152,222.1556190390752 942.8400979949369,225.06186961393098 939.6327543701371,223.77170574920547 938.2986197714147,221.33018679665668 935.2692421266754,214.26526113867953 933.9672639637054,213.380644060176 932.7168404674444,213.73198772274577 927.5529891166715,217.95701417904252 927.253956257443,220.4610709805237 929.3473721741304,226.15187330420122 929.8026176651445,228.3134820896472 928.2436201847943,230.85194361141225 924.265878354994,232.86019982620064 923.7039059929291,235.2144252124083 924.9764881624341,240.8098952015116 924.4097484298163,243.02278403124456 922.8264418256657,246.12948776820622 919.1332068653419,247.66776901607443 916.6287941965365,247.9457022534889 914.6662650763082,246.47183451405488 913.6540340793737,243.74413351952012 914.2363305340144,240.09720227828916 915.6947106245775,236.08363069549898 914.3141150216994,232.50216221070718 914.5563141199144,228.92875600118975 923.4818245317065,207.8651580561517 928.5260432499601,200.3805453154663 934.5324750819448,194.14617980185358 934.4402977949445,191.3986419084971 923.2175207538154,177.72772970276367 917.640575718427,179.75524794634305 908.2330217441119,185.05735436287466 895.3149763141497,196.76477805449224 886.5720952589746,206.900258309773 877.0913878489488,214.7877545873456 869.3626785455616,220.6684096933833 864.7281465722286,223.42245832054698 860.5980400859468,224.8863165954151 851.3153409319723,225.3501703752745 848.604788108117,224.0678444658688 846.5074769825775,221.64278356490195 848.0856962842355,219.60862464821605 854.0396687664598,220.78437482298193 855.7809765256121,219.94816271027514 881.4835470240523,192.2169875759795 882.3666380443084,190.16177625740625 880.8537309504583,186.3201140941012 881.2464565106882,182.8848958194062 891.4249379004476,174.3050239956765 892.6249286762235,171.4959566700893 894.9096318872218,169.63348754679248 892.1964205966593,166.9995434239181 894.7691592795054,161.98978076470155 895.1854579837933,160.5330227838972 894.2076374681941,158.47113314027695 890.6974297310132,156.12955622542245 887.1710194409696,154.51299277425153 886.2721572911049,150.18300841277915 886.9748422323433,148.603271145426 888.8335469435624,147.61330146028092 897.4027043644326,146.7095545214578 899.8703276367868,145.38971825157353 901.806771082238,142.68191898014516 903.1688417019863,138.27664123829175 903.8232344005559,131.24386280964063 903.1464376246246,126.13065544804579 901.6590662502442,123.05959878554631 898.5354457632653,120.21097741290487 895.0722902335949,118.61127245646196 889.5078814886141,118.16819995652952 842.956600398741,119.15793730310804 835.6330665683058,118.60387698447141 830.8179786157164,117.66559653256058 825.982447043241,116.09966776833369 822.4430505717214,113.74955230451644 816.3403589970666,108.46834586710804 815.4779921071932,105.48333594867688 816.4072802828914,102.63261685265502 815.7263659529043,99.79249757952903 813.4543345372845,97.62156597832029 808.1471900281122,93.90617282633889 803.6026826197349,91.7034153154334 800.2574152672332,91.79364096628342 791.5850807835595,77.61935175905637 787.3446324842678,72.70247988945584 781.6618136155818,70.06796231904673 774.3409943431747,68.23713049075207 767.6607151797315,67.32270624160185 747.4657450362938,65.33163175667175 744.4073058756367,64.30734586503127 742.5147239670858,62.30032691743088 741.6484840343221,58.77717528783717 741.7547450226376,47.93436210108894 740.8950757594623,44.9675836995649 730.9044549893391,24.487453466720012 726.0558565433131,22.663484847924565 723.2542644680498,23.20391237201295 719.7977877455619,23.261467588224264 709.143311365368,20.659759096885864 705.6978215387475,18.799665384700575 701.4099131529001,14.794394793611673 699.7409370975778,16.52491632920419 692.529025087381,9.821623916107455 687.5181611214365,7.093465426081934 683.323368675918,6.316809863063668 679.8783543537943,6.718051050374584 677.6071728775981,7.67287209043559 674.1817022763935,10.332216435815553 671.2079508508037,11.644884592197513 666.7498689155397,11.996848743862756 660.614041115136,7.280514742904074 658.6190903259032,6.195948345082456 652.4222567391165,4.456701677943784 649.6036172377192,4.403687342458966 646.7776956733691,5.163895332892025 639.7703935606237,9.470387479123929 635.4713233851786,10.629290917896583 629.4067443352158,10.129981501623547 626.7796908975877,8.296676640831151 626.0106165100112,6.156678050626169 624.3512060130564,3.9309423667187957 620.6036440276362,1.2136846125479224 617.5927212366703,0.0 612.1741743079666,0.345684176676059 608.652545300593,1.9287681998496282 606.6495492857073,3.5719081893513476 605.8758998451351,5.25617351508015 606.4107653054027,8.841497853672763 604.3192977359646,18.94566350143441 605.0901407886236,20.50275496210668 605.047466285222,23.479494825887286 608.6103427382467,23.52913917816022 609.0639810911883,24.167980279902395 612.1364272599608,24.708434809540677 612.2167892845056,33.633783801791765 607.2121640040242,33.709761703188974 606.4155762681152,38.283078104356605 607.5621630628146,48.98794239589597 605.1888165327865,48.027705044399454 603.5362291949131,49.324076692726635 603.9137458218537,50.884035113742584 600.6636855430928,50.61464352073472 594.6575121821375,55.03953039232306 598.8516997522813,55.12133908988608 602.4852026174392,56.731376202496904 604.0116241686916,56.69345500168254 605.2644314149251,60.48817524313722 606.0268055493925,60.421036744874186 605.1975632277735,62.972856812681925 605.9384799087292,62.90483014675999 606.669457908525,67.15874902099961 608.1661758391789,66.15788741074118 607.456963668199,70.91501408404577 605.6137051070173,74.09051710516553 609.1022614157547,73.3637499952149 610.8621899148492,82.47948684104642 610.0784147886012,83.52978057897042 607.4801722137239,84.00668114530731 607.8107877807148,86.65626811823302 605.01669394216,87.16715659305919 604.9242411721066,90.17339042894912 600.9843601302742,90.0309676248985 597.265757780617,91.37393683677419 597.2939066198502,94.28781391911684 596.5517732831466,96.32539802337897 592.8536066235763,96.98825299319469 590.1491943510434,94.68543375936258 583.3774979086959,96.17486531897384 581.2752807702881,96.00944974233983 581.2662812444478,92.67995946007477 580.5620587470158,90.951229652606 577.84725941133,90.3102610190183 576.4163972951523,86.77573246849295 571.6171185708333,86.20796665313605 569.9089049860153,86.7469119840298 569.363805958142,88.18599199582172 572.6526553709666,91.0091527025902 574.869835484028,95.95128435692618 575.6185327218193,95.76041506464048 578.5545678100839,102.24426260819871 577.1369874260133,102.84431477418173 578.344915257225,109.22266890141714 575.4850949018925,109.5840601874977 575.8452644630015,114.24739834137768 574.7143138357477,115.10443158180692 575.4204484610814,117.26528729809684 576.9095355169869,117.96108705974154 567.565507141826,127.6071360806676 565.921407052688,127.86886361195764 562.9808279699715,124.65396565466403 560.1856533838641,120.03863999433929 560.3131213316555,118.46937890906031 558.6999555581673,114.03864340008158 555.2670739868771,114.27559657010272 550.0503918786527,117.96957554472101 540.9469832666662,120.97785944989585 536.0583841699162,122.23936242512775 533.069300741213,122.13576299638396 524.5586560925813,128.69534486835278 523.819012623407,130.5286493530108 516.1345862473565,134.0127571067177 511.13341069352106,134.99524717766815 500.0698763158366,133.32152088914575 488.5004657058543,138.2122360120086 486.85301371700984,144.60663925074027 485.52410749769894,146.1308706714027 481.70509360172036,144.16067222389313 478.3076079263788,141.8047199129386 470.2440154584201,146.8530445546802 468.72183619280827,147.44709873710394 467.26088606742354,146.57974972271165 463.1910846756919,149.40549069123983 463.2085126294001,153.47120801929975 454.81646716092644,152.00450731246394 453.25473059483693,150.92859416268482 451.6406036783001,151.53292463570483 449.34208065252886,153.44918359595886 449.800794658208,156.4059659104529 447.2553795205094,157.3207146229314 444.8672861647458,161.1218432613889 440.65432696841225,162.25363957940442 440.0724346995836,159.00826547607483 440.91385331069745,157.41040011369387 439.3578246658685,153.36379390847708 437.22413835975277,152.49110818861266 434.7407569111938,152.3421510644091 432.3370715068019,150.74370517334967 428.79534052782543,146.58767917370403 427.5681921060213,141.39194389078204 425.2653289274118,139.69249033518167 418.2628486456084,138.34258636902712 410.086109746998,140.6249766193165 408.2458110312297,143.07256233198768 399.5624536006964,150.31795589397666 396.19131052320466,152.3080188437416 392.77851545342304,151.48902838061497 391.2395822273671,148.31652057604924 383.8500362851142,153.56922006328386 379.238364436006,155.5762243849723 377.85756799807996,155.3163630761171 376.95563752705044,153.81314757799282 374.2453710085397,154.05968554828962 372.4677695422094,155.82717271719184 369.5980515682245,161.5927772895252 368.9522115831959,165.00601043539666 370.13876029844533,165.6601749157237 372.77892782869367,165.46862781134178 374.4128114972507,163.39757306795116 376.09907064837677,163.43723216997216 372.5795853741133,168.21458857485868 376.0971831268013,170.85273303178985 374.7021792889515,171.93612697320407 372.2890548800526,176.00213337365517 372.5406817470285,178.6293256070794 371.5961905530524,183.50135179583185 363.1587571847503,189.03157490396347 364.0914786122653,191.9918956505519 360.01898320409526,193.0561006426808 355.22317000939,192.68158570687945 347.03607394752976,190.10578058779618 343.5829711037702,191.46090628004094 338.44112255713753,185.13832442277533 334.96843107032333,186.95227265563062 335.3606551115284,188.3911195852163 333.4512213133403,187.00509552942174 333.2207468702789,185.83515228800638 331.618758205785,185.79246743539295 326.4499413547849,194.42802665865577 324.8138956534795,198.2764194606541 324.6070977245028,203.7189721060705 323.6346688693275,205.12534677267388 325.4638470859138,208.73479961449675 323.3362360591612,217.48674114230437 313.0889493894733,219.16687874362697 311.7747213264782,216.91496252310958 308.9509483580613,215.39449269569582 303.714010733395,216.6219518666261 300.94627736697754,218.49561326668731 299.045623531901,213.45647105072408 299.91224749692094,210.13390207538714 299.4857312640682,209.29741783244629 294.22344626409927,207.4386035168692 292.98192303293064,203.7250865091827 291.30389436762704,202.5183785968287 286.1521597336898,203.7955536799319 280.66156699858743,206.26634382324596 275.4180521986918,206.1313500235583 274.7368854639516,203.95761980951295 275.58507893349866,202.8737806280759 275.6117408254902,199.78801476947547 275.06202605990853,198.24623499635652 272.9355960110608,197.2462023582442 270.77794349995787,197.3333719298148 268.854126024242,198.7318510462161 267.1535269540566,197.78812541771254 264.0557247604049,192.72161487322728 263.118309573221,186.22516760403016 261.8905411175416,182.96173909859965 260.2536668722433,181.35563424806344 258.2451804060977,182.3398256390949 256.9700268683392,178.86632530042073 250.6851446729791,178.41455714376661 246.88731761493233,180.41220575477723 245.49706052754325,173.93768393576624 241.2743661576725,172.19847069033403 240.09527772086656,173.99999134802454 238.66026287372696,173.64217943827543 236.39815585801338,174.4030762443772 232.98802358245877,178.1316524456139 230.88345322138602,183.4229776015053 231.6766342051935,188.51862262959298 227.49872477425913,190.2604448136666 228.52166822251405,193.635520766299 220.78150421202255,195.48541283037935 220.7338435258695,196.72535945282482 216.12270105299407,197.7903076455102 215.7977379633622,205.0647382536116 210.10224310302107,208.75013305738685 203.9808524923221,210.51059358828957 197.7012869056466,218.54425709010457 197.1653930063661,219.71680306876738 199.7220097128278,230.38819864770676 202.84479814646542,228.92366443562662 203.70241949000882,232.6406959403788 205.91087987124385,232.49895988792423 207.86587700553974,237.8128149124518 205.26665379513938,239.49457820665737 204.1344886009276,241.57719426203573 204.49353522292486,244.47653634321955 206.07745245995108,252.7720598241856 203.16412933568805,265.2523779637181 204.30983903621345,272.31361726123555 210.70247245124142,294.50052318603025 220.40204662301645,311.2730582450338 226.2137765026924,323.9240789259802 226.22011054797602,325.6582667648271 225.11276666809343,326.74260618545645 222.7804329093329,327.31068982902536 221.79190471156284,329.356793945224 224.7092578065518,334.9919899418335 228.4584308972688,337.3405033854825 228.55085071011368,340.3109138698554 227.86506354986608,343.56863232924945 226.56789464403735,356.15534462779453 227.3528031156706,357.5680332968242 229.27615539889652,357.9126105004208 230.9280586860326,355.16738612327083 232.6492368787823,355.287507260139 234.31391638109375,357.47145106789185 235.9237750076685,356.94966950057517 234.43262798926705,353.1850817048031 234.94418779868917,352.21511896004154 238.10639537877537,349.8350260990251 239.89877819973805,349.56298426626984 239.73303616465927,352.92288745342387 241.00808992461205,353.3645535749838 243.06603456466505,350.3685180271207 245.14723263250644,350.02775456294694 246.62545005852536,351.81888558405956 245.2177210661544,355.9205040262601 246.05751644202954,358.5701831531196 247.94448342119557,359.4656411831536 250.04839724021556,365.1509966991582 250.129052522008,366.18533726002454 248.58471961347496,367.56489234640344 248.904444464352,373.0979181228863 251.39827035157265,379.7918962560301 252.50270856889563,381.9026688261088 256.6431176697318,387.1006779562281 259.6245126549082,388.22964956152015 260.8314077821757,388.1166761633931 262.6045455151928,393.78625933643946 263.56749146773865,395.6196150153347 266.3392046317708,396.6563977675586 267.66266191072094,398.80755931596553 269.54657413776636,403.2695322422795 269.5095067499806,404.52008063054706 267.64247327949977,404.4122669796606 267.33752422107676,406.4395956041041 269.7821610362479,411.32258729102807 270.6038497299521,414.3813941384997 270.85473124857117,422.61895475424706 272.4608487268055,425.6386949136795 275.11367456540034,433.4639477839062 275.10863208716773,436.263054234901 273.71819142880196,440.5882601153966 271.95484769540377,443.07448532975104 274.1336242195537,449.1429015442802 271.5840908450978,451.2517178112133 270.598839553463,450.85345966536164 269.53567895601174,447.62423293737726 267.0483052263773,446.8436842614367 264.4965813801387,451.095519174908 262.60964510807355,450.66176804081704 259.31799133993735,448.1225134358535 255.47985683944816,446.3956573334895 254.64548972370045,446.91465384940153 255.59355311050635,448.97850375199124 253.51583235729981,450.9587767321035 257.54606523033783,452.53892557863526 259.8367592852431,455.202504261577 259.6011161755769,459.3647308066624 257.90945891994807,461.4928191702894 254.97295765114188,462.0361813191752 251.06381458409032,465.1832021144637 249.28772225214973,465.3740030742844 246.04224030877143,464.4990834342183 242.90911594073734,457.95945404401976 236.32990350645173,454.46490162622774 234.21667211061668,451.8395317925096 232.72749514888443,451.14567048942297 232.49874057540148,448.86751571852443 231.04490384893506,447.98617132641516 229.15481833002247,448.16275965145906 227.20564095732982,449.5888660980987 226.47831876510193,447.98806753516294 223.0354890668499,448.18879280641244 219.7082924642436,448.8213702474847 217.1936038511215,452.63749315692496 215.55806668758177,453.01043622824625 211.07900841089466,452.84150303199 210.24841238576855,454.60953235140516 210.77732150357477,458.80180074064094 210.10580438935906,460.0075489584664 204.80405206982013,465.2736990193956 204.412028234846,468.73908312925755 199.97762333761477,471.6967509391048 197.31772916970735,474.4083269774713 197.35168642884514,475.64906814823524 199.4501892849827,479.64919630437896 197.99303809401624,483.17943999215925 194.4035796247071,485.27144150116715 191.5528933399816,485.9243297071557 183.2774678120888,485.9200993439533 179.75406069554631,484.35947844105334 175.49865854705016,481.37499402496655 172.31665490523432,480.12346703125183 168.5861295007985,479.68395049904876 164.80087076636153,479.8845001600033 155.9634965424317,487.060699824849 153.56439669783572,490.2443624768482 148.59208687974433,491.3886257702065 146.7220986371179,495.4343086250463 144.9890582720516,496.0652900447563 141.76994882785357,496.16126872291807 139.40016126906212,498.1488207182664 139.33959999186249,501.6857269993812 140.46668067854893,504.3049398674702 143.30939714298225,504.839176873796 144.0810070824461,506.9893070399283 141.18066921608758,507.7495354946982 139.31631469112259,508.91696292808297 136.12684980523807,515.1252616812963 135.4556688322676,519.0701399514555 132.42949215191774,522.8901481368079 132.79515273993437,524.9626458084649 131.57949917238903,525.9788916887103 127.68220344603556,526.6784592120977 125.64156037707933,529.4089769220689 125.24219656771328,532.3177751721487 124.08501006474508,532.8273395222877 119.79856298167317,531.3817248743253 118.89427292651315,531.6451786846405 117.0233411504753,537.6156265143787 115.78225110171164,543.5257237572595 115.05968025513712,552.6044326975426 116.41690067804949,555.3156073732571 121.68974784386397,561.4341713083776 125.74308127818476,564.5875975991319 126.88282618807247,567.2967257889268 126.10399291929907,569.9421580445143 124.4916950129505,572.8134192761274 122.42496347910702,578.8699257472033 120.45401641288821,581.9278379646377 120.44719531233788,585.5642248494426 119.31245795064247,587.6954072468291 116.92947838334146,588.9383626136042 113.60007677659517,589.2135060888622 104.69042164936404,588.6438732952563 103.08529713473776,589.0936017877927 99.97646426916323,592.6257407252408 98.46259006552762,598.8644076772671 99.24593868857418,603.001915778143 96.91394317917455,609.2979533931968 96.95335677090073,617.4378192643471 95.728791128039,620.5578296554877 95.40271388629861,624.6547717778576 96.85630030750012,626.3100689930366 99.822033127513,627.0924199422104 106.70816117618116,627.9198942533421 112.82138805347904,633.2133040639784 118.06372791785954,642.4144416411939 126.06585850432505,653.9286361791078 131.04367873942417,656.625439169725 139.6519568474347,665.5245317319176 142.09136313523587,671.8210018527816 141.7628064678445,673.4629939458226 138.5517938054142,681.4196579955725 138.55816880371722,686.2988342940577 137.2529408290808,687.9141013699656 134.8303348014567,688.0767743214453 131.75673949446914,685.265479440638 128.17000702559403,681.0754947345338 125.05791561934217,680.7062924846578 116.35930309475968,686.3236954488764 114.28167122121263,690.9318518570766 111.53986318168057,692.3441122610101 108.94551431518629,692.341454688572 106.96684567156719,690.894394331926 105.61373418933185,686.4130626955101 98.3869608317489,685.3798518628871 94.32252165693296,683.0647223979287 92.94206003526686,683.0483341465907 91.35659770628286,685.060498850605 90.81757979728286,687.0621364010999 88.03241389489514,685.6795750825765 85.98468539835376,686.311565860706 84.62677905804144,688.308316015344 80.23835875647268,687.5442665454229 78.10929904130322,688.6040214520298 76.9429621249112,688.0566171874698 73.10888330098066,684.6532775088369 72.12340001346283,684.2347203517722 66.10050784910106,685.5998813540289 64.77241432885933,685.598900623115 63.09819831565328,683.4595251672248 64.10390573755977,681.0200727975051 61.53840721643319,680.1206689390375 60.296915593190946,677.8549646153905 56.92311740375344,674.5789971888328 52.61655329965866,674.1071176844792 49.734770145281445,672.58487167144 44.98816871654037,671.1204159016479 39.56428038169701,671.1370969833315 38.99390663824035,668.7387979463781 37.122164138350286,667.3594146588968 33.33932594804853,669.0890651645105 30.57876517685242,669.8349598587872 28.66405618562806,671.197522582532 28.537123480434484,673.4895972561967 26.119690964839965,674.2793320206895 20.48472123784407,672.9441447354957 19.338211364254445,675.9461956524696 16.620928542262366,675.5283908588528 14.792642539239676,673.4188242283084 12.266946363017572,663.9559037442123 12.134855264181821,662.0248066935119 9.834348466994921,660.1153584961812 8.330725944500967,660.5176438960204 5.911279691461697,664.8202102503508 6.788025210968826,666.6435954820239 6.063454772119003,668.7194646823598 2.750304602914403,672.1763370856645 3.5212623843287325,675.5547105379576 5.505685372203978,680.5427272759052 7.147414150459398,683.4822909456967 7.355496782163854,687.1408165453217 5.495746309383,689.823854868863 5.1917473099981555,691.7039955734838 7.141467682479629,694.1477614042298 6.063872156200008,697.8315454846594 5.665573958778535,705.7133322919199 4.519251224562055,708.7509175249864 0.7989449787771654,711.7488406515977 0.0,712.9672944486234 1.458354650063356,715.6179757510605 0.9223463808499587,719.4307425952506 1.4599755102761838,720.5263697537605 3.4829775377881926,720.5273217256731 4.858731707085707,722.3736713779814 4.4546148027632535,723.6177550340541 5.909236385646032,732.1900102258834 6.8875261031730854,733.9051513157648 12.167010683932507,738.2786394172789 16.71436087669158,744.8290133991891 17.951653039808384,749.306294762341 17.18894373145122,754.7937632572934 16.505815742887297,766.5316601716156 17.700474388134083,781.1252716728291 16.661077317176257,784.6946649979792 14.189163163910989,789.4739759267769 14.184274171829394,791.702239629916 16.454194246583782,793.1712742356707 16.71748145586167,794.9762281549738 13.406433126930013,798.6490220011841 13.200166423148836,807.1628679672418 12.954663622523599,807.7285351554063 9.169446146760807,806.6805230869863 8.192218214344313,808.2422720731545 8.880965105735154,810.4185558468095 11.968002769474788,811.3431104544295 14.434911478174552,812.8149165681451 14.815612783596311,814.6976525266656 7.522259441746901,821.7959884103317 6.585883808917262,825.0083315068744 6.591764768359582,828.853781888151 7.465725578813199,841.0829313234601 8.251036878153341,842.9630857654837 13.251255195704053,848.0058845264027 23.490940114184752,853.188821088147 31.589585441428895,855.077792434954 32.466261443007866,856.448931205321 34.29034316336468,867.189870878391 33.9750036137925,871.4445334675693 31.553819780271283,874.6534177598796 31.353554292853183,876.5340082809637 33.09178003882692,877.8922598006445 33.941940195831044,881.0338528783562 36.470131982785865,881.5730309185545 40.86722246682117,880.07343864921 45.21677232146229,877.9176549077698 49.45180069914208,877.7628756115603 57.04730484118837,875.3981606746063 59.99689942515764,875.4007201179239 61.446042973897086,875.9767781102782 65.53137514789842,879.6741659395918 67.50768047814024,879.7283235583387 69.10853781668663,878.1855849769584 71.22324090382213,878.3883478104259 74.10885054587501,881.4766065630498 75.3116488696744,883.7914714837586 82.63258965040077,885.6261825109765 84.02549190150917,884.4336436931102 80.93155336665303,875.3874098867146 84.84428024412914,873.6860159301251 90.29225728806195,873.8088109483804 91.95350480290847,871.0024389679008 95.20043678246249,867.2546678807491 102.15504811731982,861.5180824401259 104.8984214712387,861.5529626083124 109.04881415373407,863.7353684294603 109.77962896232135,865.4579526137269 111.31962919958642,872.2511839095616 113.04730325674313,877.4482801654069 115.8261711595604,877.6591513054024 123.97933367409253,874.3866996690222 126.31531175112536,871.2060746473659 129.7994754934579,861.5680047789155 129.74706719054961,853.7238066235559 130.66676981751442,851.9931817455185 133.5200689666044,851.1092511867729 135.70157881864728,851.113328019012 141.61243028171415,858.4813181656509 144.8529948729126,858.8843147091176 152.7762664102135,857.9965557542226 154.09741311706776,858.4242552188747 155.12508402993618,859.9770664349016 155.94786273009464,863.1187988731554 162.49248628679308,869.679563589545 165.97033510084844,870.3957812446606 169.0266774950806,872.7579687643073 177.6059140856288,878.0450364931282 180.24691161220278,878.4990622382932 187.2256266896979,877.9812046916732 191.15461458200866,876.871101706479 204.59362940012744,877.8306928832677 210.7751650122255,877.4046481537217 216.4876431038212,875.0455102125494 260.821893957691,833.9713654141262 268.2943029177287,830.3348093623478 275.8755034273573,828.4368287513257 287.9228292900945,827.9866892912592 299.73009477166573,828.6159539838221 303.06458950476133,829.3758563713744 303.8458004112377,833.5297738548413 306.27432002742825,874.6352335198126 307.9204344594874,877.3895837646267 311.93753665903074,879.8552614249486 318.9151049076767,890.362428742689 322.2415454891367,892.6249779088668 326.12654033425844,892.5779157942061 328.0185985201961,891.8222322556556 341.01720273001774,879.6057078741555 345.1025288464584,887.7300442037216 349.10888999037303,893.0482535998046 354.11354246454,893.6182341307951 360.7476945052768,890.8066078441547 366.4656181012272,886.1013377096781 367.3881489060056,883.4532732482232 356.4547912652453,865.169041021974 361.61576216728844,861.004999387375 364.8606987337599,860.0408204828577 366.2192983289777,857.3803296230789 369.2636620373165,844.9755453689736 368.9628256845199,841.0117535885098 357.6352803515309,835.7719549684525 355.8592591835414,833.920172255963 355.5441264667037,831.6274687426709 356.9468719978162,829.4553549069954 358.5008033399898,828.5408727129244 362.029547169949,824.068722803018 363.70045019887584,823.655930195495 367.4451766320459,823.8336405831808 368.1632136975716,821.3343197371786 364.92271455102184,820.6356252633415 363.91509430003174,819.5189310841231 365.14685420666547,814.2510676568809 366.7500199294757,812.2238486099843 369.3123369527186,810.2842481767719 372.9844377533244,804.6451110329956 375.9752248029498,801.7248751879256 387.2113387784552,794.8212415714548 390.8986872052412,789.7576194239216 392.3301947549882,785.7114048568446 394.33718075147044,782.5795689480867 397.0177102240884,782.2708998489475 399.7595787786846,784.0927387775828 401.1762950521476,786.4158455904168 401.5474631586671,792.783505236041 404.40230858501195,804.9870426900777 403.98356531763676,810.6671962076759 402.65221469920095,817.7956926100265 402.7879595598658,822.5102574403385 404.61666076374684,825.77264924477 407.14127296605653,826.8904048256584 409.8275404516953,826.3513565626837 416.93291055743254,819.5440022784088 421.2759490407601,817.0637777225004 426.088521221165,817.1730636749622 430.1772252590745,819.1868650593206 434.12762129755083,822.8566828560829 447.8023309953446,836.9005974561576 451.8166019158152,839.1552909865111 456.0478411644785,839.2726857798787 460.04798232678957,838.2139251629845 463.43918946924066,835.5191473897764 478.60503201050784,814.537975097538 484.15674521484794,807.2918264992738 489.6081219421478,802.6455156828922 493.96623965552686,800.3921736900113 499.1444148790353,799.5288062027954 510.09924880493634,798.7333270112972 515.4649303643655,797.863704202916 520.2326462564669,796.1318993456276 522.5191540788326,792.7220887306686 525.6287073005809,779.5965563717236 525.8932085046215,775.5738765925975 525.4107255676146,772.28378517759 523.1741930924859,768.326318706342 519.7901221408134,764.8925986642554 505.11437584034377,757.0675503381226 502.9208544511984,754.5306974931497 502.055013824335,751.2519308520655 502.13808128966446,741.0890401428313 502.75209865764816,735.8763735291932 504.6999680100187,730.1438444674998 506.36528883524244,727.5018393897577 509.08192638458894,725.290201554318 510.54612698225395,722.8841389585683 511.4621063823505,714.5817560912841 512.6488620653155,709.1219032828551 515.0215989215919,704.7893489275068 518.1862578253799,700.9134191269544 523.0849456993549,697.4550576433746 544.334137949512,686.1577687508063 550.1599158892426,680.7709535682804 554.2012795794786,674.0277492787535 555.3394471843104,667.3718623262005 555.097704394601,659.3477158854395 554.1881590378197,654.6529398307807 550.7368308933953,648.9264307695673 548.8470413809142,648.1657047344067 540.0545238476827,650.4272760724592 535.7007565653429,650.8858420108131 528.9608063935336,650.2981072654983 524.9479658824661,650.3746046070844 521.4386565971118,648.5536352651543 519.8547204248163,646.5678611050992 517.062626674302,639.2152605361441 515.2981746549583,638.5218149529987 513.4404710223082,639.1631857846176 512.3376494704678,637.3246427858887 511.6763142674265,633.9279366641026 511.3727063226982,629.6501459732511 511.8312386618595,624.4994225546768 512.3121287533896,615.5958666996357 516.5290902329178,605.0373475835931 518.4987783488657,602.5646309830087 521.8338648761088,599.9997600837931 526.1117360237783,597.40500972181 528.536139746312,596.6313871622232 531.7991705414819,596.5335853658469 542.861762715221,598.481629538076 550.022977037004,598.6733054134675 554.7205554053854,599.383474014279 558.6546678454446,600.8626341726495 560.9705327023312,602.3268568064796 571.8001274615601,614.0643946548855 574.0637511562768,617.5538182190555 573.9776295671843,622.90667101483 571.7587731703527,631.1904321121267 572.52894604778,632.2676184655668 576.0746274979944,634.9378853329786 577.3473726177664,635.2008489911657 580.7612843787003,632.4796579628664 582.6542289724748,631.6325453588393 585.2922513700162,632.0762353084992 591.4395315081829,640.4338804224271 595.3955361567644,647.0238410721312 592.4476123650797,654.150436493145 590.3360795772066,662.8245548601456 589.9471633883006,669.5032363336176 594.0525196227425,671.0648942155765 601.1217036796213,669.1272535393605 607.9415130381634,664.4268193598054 615.3845769186877,661.1369668991633 621.929663004965,663.4219884120644 624.2954959158074,665.789901912022 626.0084291857371,669.8472957367603 627.8358549364964,671.6021287693005 631.0748036458201,670.2777250208969 632.4715069768937,664.4118042278869 635.3203432688504,660.8810488223772 637.4189052496888,659.254217028938 638.976571638159,657.2709365880662 639.4535622086594,655.5960729676407 640.0422889427153,646.0723667735783 644.0169717859654,637.3582210056994 651.6538528694033,610.2172714612166 652.8817023821324,608.0060966504531 655.345443160124,607.202308666298 658.7770911241893,608.1514738178039 659.4187150317107,607.4305029931968 659.7920817401967,604.0658725248039 658.9225905776342,595.7622756844878 658.8437028107513,593.2184516015852 659.4387532865078,590.9988232527073 660.7208084263378,589.5662147845885 663.4045506038473,589.1284820577816 665.402943300036,585.3495821061963 665.4420194482824,583.2637711327827 664.5020464912665,577.3936135498034 664.6054792307349,574.7290789410804 665.3509204107271,571.6901622481072 667.003115047504,569.78582003458 670.2530894265782,567.9374410674798 671.8013389829763,566.0347034450934 673.1124090314433,562.8630671052977 673.3644709147807,560.3011342822538 672.6828528080702,556.3925337612079 671.0449190790499,552.4002350675112 668.4497733771983,547.9666972749446 664.098971521126,541.7254067887102 663.0762753560035,538.2004691546847 661.9692615686399,536.9321942314675 658.4777710208656,534.9747105289957 655.2485070850878,531.4653757279291 651.5239302980256,526.6779800123147 650.5736855407372,524.4549591675357 650.0440699262559,521.4214368397522 649.9633212859981,517.1412789020007 650.8777348708769,510.2062578078974 654.6282450996681,497.4486010754861 661.2284689759507,481.75733463103074 672.4091349877526,454.243363116692 678.4683930665581,442.57832122959036 685.6863099408185,424.0380176191398 690.5656235537272,415.7871757707915 695.8147495645651,407.8524605898147 699.2795577417135,404.4228607101861 705.0969019507332,401.0231544924752 707.7303289744513,403.0932136229829 712.064351699387,409.17480430108634 720.5662268073343,406.53215113907936 727.4089262033228,407.11291540100143 734.9882296646338,406.0655387635281 747.8129165343058,400.6530940748616 755.1233494184048,395.1216171546618 761.8430542691317,384.3926607898914 762.1953864725324,374.6911755443058 763.1162102923463,366.59298417260607 764.5126892407202,365.2547725110087 766.2594615073169,364.8629921246668 771.7912544002598,368.83033905236664 773.8812608345216,369.08195770819896 776.2854541382962,368.2071870734918 783.4877214591318,362.9103945585962 784.7849014956,361.7166027753551 784.5514248728033,359.2972462759067 778.0215202730526,348.75669941649505 777.3941433157555,346.9438973686996 778.6728706241698,344.86613249623565 781.245328119028,344.4024604077273 783.2690153478056,346.1796193309144 785.1576068617549,356.28493874591425 785.942984640949,358.4828527276711 789.0432485482222,362.45624801074507 791.2133160392942,363.93630874068344 794.2133927249113,364.5220249589473 797.6649642540725,364.3219519355886 800.6131358915414,363.26120031394794 802.596946232239,361.55838032518386 804.6161826846853,358.6852298000067 806.0194523008764,355.3453555639262 807.1329412546146,354.2287655909478 809.7683512330042,355.03889836089877 810.5954136557699,354.37309857197056 810.7398262250026,352.42967520354375 809.1665799943331,349.89516502985634 812.714193908443,346.93654034607107 815.1427929313118,348.0797505341444 816.2978952694964,346.65232053465763 811.289060205829,342.5735575833004 810.9696794440346,341.34324290590143 812.9448123066493,339.34975251983576 815.1875122806272,342.75645242841335 816.8727517216862,342.7017319688963 818.4218976974041,340.6768950695871 818.5586890731297,336.9084320758948" /><polygon fill="black" points="524.8314391891745,805.4747243557612 522.3461601930948,807.8413164245322 521.9028742465599,811.4527223417007 525.532982756936,815.7790972011076 526.8373300162563,815.6423250284903 529.3553480772719,814.0300716008928 529.6498867407117,811.6929309184861 528.1688129947371,807.3041868363819 528.5384081687918,805.7823782203072 531.5110406902986,805.507206204721 532.8380298609169,804.3469450448354 533.9797796968987,800.5109980200058 535.9533929325592,798.0615057842465 536.3631857808906,796.1483254876008 534.6134664409789,792.1578071821297 532.3062292703601,792.4396443310001 530.9076482359195,796.0438806108895 527.5478337796058,797.9657380265528 525.3868402266647,800.7750480893565 524.8314391891745,805.4747243557612" /><polygon fill="black" points="283.602736037723,864.2743077353219 282.8140620130578,864.6692069875642 284.04028977538985,867.6390731372484 284.9794151305734,868.5453784277965 285.14941900623177,870.5500265934387 287.0824577612686,873.9182460191353 287.96941708627065,874.4530148754508 288.39355330161885,876.9665304204241 290.7747555735182,878.917371387229 292.474512891757,882.4691861332986 293.358644344843,882.4896118507448 294.0847601133302,879.8476879238334 293.1996926848785,875.2848086316592 294.4469871537621,870.8505103499903 293.44088848663733,869.0478951940389 292.78024694738275,865.8401051708101 288.01191821054874,858.062859777693 286.8769350430969,858.3260144672145 283.88395618520366,862.0177873683734 283.602736037723,864.2743077353219" /><polygon fill="black" points="812.4380117335861,585.3686345778631 810.9853334201274,587.5904768584833 809.4967048194737,591.293505602174 808.8418202601351,600.8976123807197 808.7647450186284,605.9403394291264 810.2279615374044,611.43094106859 813.2062027893234,616.5788684122178 817.3419494910411,620.3150647393795 823.3468130955365,622.499818264161 827.6162488013046,622.6727145392829 831.5893101642663,621.3641110815744 845.2090119081456,612.9528700488835 850.0743983608069,609.4395732242025 855.0022216379638,603.0664381309385 856.0858944039377,599.3759567522627 855.8959774296422,596.1156632097866 853.8442136005948,592.0298543595769 850.6584280049887,588.1768485317906 846.8640107340772,584.7338155150634 845.059524496671,581.2244302960383 841.3562944439955,565.917364936186 840.8851663915611,561.2840724727614 841.0641915913727,556.9312603748492 841.6605324209038,553.2582807333097 841.411809805011,550.4010181744995 840.3779225437595,548.2518054112697 838.680698424095,547.71306735963 834.6181085658068,548.7234322262536 830.8094319239486,550.2213754587922 828.1584913922748,552.5787428080992 826.6708569000838,556.2804951664727 825.7536308943589,562.5383326448655 823.7253261336517,566.8436518818845 819.4906522640258,572.5075430199634 812.4380117335861,585.3686345778631" /><polygon fill="black" points="418.0752527258989,830.3063765231554 416.9687322146489,828.6862584222897 415.40621675698173,828.5449046219526 414.3462070049391,832.8402047195304 416.33380418921763,835.1296135109199 416.43374597610136,837.4906423744942 417.4900116930431,838.0724710781843 419.70701658655923,834.6404547441157 420.65039112209246,829.5651575929022 419.67441345791025,829.2126121004858 418.0752527258989,830.3063765231554" /><polygon fill="black" points="1020.2345106398573,300.73805873686536 1018.5471839991959,301.35237074762233 1019.2147901237089,303.90618964905286 1021.8115913499332,302.3744531153209 1023.3039610978503,303.9359770729586 1024.0,303.397480242475 1023.5510918517558,301.47374891473896 1022.0502478129096,300.55162165709805 1020.2345106398573,300.73805873686536" /><polygon fill="black" points="805.9768882567496,360.0855150022901 805.1967542744511,362.554784372777 806.843937116306,363.191753104707 808.0191707281963,365.3069793223219 809.0509230036904,364.86622163001323 810.2519585553439,362.3117655390489 810.4178394397547,359.1176528060877 808.7010628100385,357.26875199561084 807.6589822085198,358.95051426107796 805.9768882567496,360.0855150022901" /><polygon fill="black" points="865.2445445742953,387.0107896691659 864.6531262394843,388.22583478366096 865.7799356758169,390.67804484082365 866.6375094673734,388.74527186586323 865.2445445742953,387.0107896691659" /><polygon fill="black" points="832.0315857520137,320.58495343551806 830.8580676898905,321.0849870274001 829.9699116851568,324.0166697707897 829.8805522989943,326.66732745737 832.0944400792566,329.1807039008303 834.1195592313157,328.1149367547863 835.2459398355252,326.1300663105977 835.5215622380656,322.52646442027276 833.455705316895,320.75149632698844 832.0315857520137,320.58495343551806" /><polygon fill="black" points="863.8064513653097,384.82533505758 865.0669065726601,385.06847943782844 865.7007405508323,382.9113926597047 864.562341918744,381.9925830005372 863.3698881300319,383.5118813814857 863.8064513653097,384.82533505758" /><polygon fill="black" points="996.4618596979981,300.1918894849291 996.4819573339473,302.6449347086452 997.137776887642,306.9874327981423 998.3201159364033,308.886303775207 1000.7470250706867,309.04329016357724 1003.5358991932837,307.05294606524365 1006.4053388746116,305.5744827563002 1007.0834324932283,302.39013576861475 1005.1738901037852,299.52402196062815 1003.074359732501,297.42628565326845 1000.185399814144,295.2760607526882 998.1761893839847,294.9011947699214 996.8464265587131,295.9913142729972 996.4618596979981,300.1918894849291" /><polygon fill="black" points="1012.6416576627428,302.3780132439649 1010.2778563175513,302.8830963802835 1009.875258677732,305.0582326059782 1010.9549665381687,307.279267815519 1012.6261153951693,308.30146149409006 1016.2081203333718,307.43601123595556 1016.0919495111715,304.0314499224693 1012.6416576627428,302.3780132439649" /><polygon fill="black" points="839.9360718639207,543.5833526302911 840.2749979723453,546.021018681256 841.7476470528987,544.7573408199894 841.9432476388804,542.8262323772253 840.6355492003922,542.4614230134932 839.9360718639207,543.5833526302911" /><polygon fill="black" points="1013.6557848913534,301.78519253529373 1015.080103995893,301.3556367789047 1015.1548784633669,300.21172744439866 1013.0865803771037,300.55595397812874 1013.6557848913534,301.78519253529373" /><circle cx="600.453589678038" cy="420.7832460036958" fill="rgb(100%,100%,100%)" r="16" stroke="grey" stroke-width="8" /></svg>