<?xml version="1.0" encoding="utf-8" ?>
<svg baseProfile="full" height="1024" version="1.1" width="1024" xmlns="http://www.w3.org/2000/svg" xmlns:ev="http://www.w3.org/2001/xml-events" xmlns:xlink="http://www.w3.org/1999/xlink"><defs /><polygon fill="black" points="977.7655642982378,265.894542452975 977.5963952405662,262.48508864860537 979.9253965538649,253.7954319938591 980.2370988146224,249.71715812670482 978.8061256849142,246.2412496838017 978.3450149069449,242.22250319593445 981.7370912980585,232.0303719393355 983.8739299717666,227.6292752536085 983.3641027823371,222.99897251328184 983.8212121335936,218.47681535323466 983.453008356459,214.00572515087777 982.3162804033662,210.64507661674156 981.9415535697264,207.74201221661485 985.768653642692,200.78686713717946 988.9330382774054,196.120657854309 989.6315163428442,192.33311469059333 988.4438678315959,188.9128074879069 989.6255703761663,181.44091964498432 994.3187973403788,169.08107605962346 998.9562458603544,162.5222073752534 1000.6419073630275,158.57341912584275 1002.9217026830794,150.8299687982103 1005.0048116621384,146.64812035091597 1019.4472031614214,128.4312962897327 1022.0189834673197,123.80833949134535 1024.0,117.17872761717922 1023.7808532652223,113.26843287186023 1020.3606430713736,106.04409436488129 1019.2064444902466,104.58545137571116 1015.0566098112224,101.82436142608572 1014.4815534230389,100.59436957281264 1014.4034953350454,97.01508532313994 1015.7581265362498,94.18178396974542 1018.3057929677221,90.50887985075872 1019.2438269534094,84.81698849162535 1016.3469180659444,79.16268665511461 1016.0677707862453,77.8826564122345 1015.6406379871685,64.92490701689462 1018.0259229458348,58.73482997261851 1018.0843034379463,56.92409015757244 1014.9016944604648,48.94704874995659 1011.4532490988948,43.90013098116299 1010.581448844977,40.91081682869617 1010.0208724233628,33.70099495925524 1010.3338078303653,26.582270908885107 1011.1057845030858,24.35636249608274 1013.9497677171557,19.886628412344976 1015.7132723751639,16.263481016803667 1015.9419904197053,12.721749379807875 1015.4826394286758,10.708993180316611 1013.5758874989031,6.862917182050978 1010.4458252804708,3.778570476153277 1000.6692253772068,0.24898011543007215 997.1826455779918,0.0 992.8186624458056,3.0454114939642523 990.9652615066858,5.987165950647636 991.1193209952551,8.225102177685358 990.033778290453,12.346519884514237 987.5723656544976,14.894089001731118 977.908655538571,20.52920484627134 976.1122318980647,22.32263905705713 973.5988484222299,27.30039254942926 971.1317428548006,31.058863616266194 966.5632411480559,34.09442033681739 963.0160024214301,35.87187821829184 960.1022293680463,41.934934654292306 957.153405396203,46.21488870361077 954.3220477891996,49.598073541788835 946.9209227405099,65.00998736665451 943.6754126496605,67.44103953798208 940.5408394427747,67.61044410392117 937.8289885310228,66.69278274465455 935.3164591893631,64.44417143943531 933.2945393276863,61.830915121678686 930.5303802009914,54.6273037662628 928.6221945830272,53.609028595816085 926.4694865568453,55.1045094616868 921.7775304342446,64.5559985834052 915.822053464322,70.20602174784494 909.2525528212101,73.9444745360613 905.5543744517588,75.14658083774009 901.3497070860716,75.84058457731987 892.5393829594694,76.05150784608952 888.6520661170633,78.41888625861213 883.1684362429618,82.84225621084977 878.5764265140228,92.08477955274509 877.4631246408918,93.01955108714503 873.1530213110617,94.21792198231094 868.5430828302394,94.51746177495056 866.1140777595741,94.16507378980305 859.9413306037433,91.44435173670661 857.2084785627774,90.75157341045053 852.4279506168964,90.50119930207131 849.8887252245382,89.75639200744786 846.4488932445873,87.77926347824314 843.0182387504091,84.29679172291992 841.8724014519153,81.54800642282771 840.7820171077336,71.85125300256527 838.3221854224159,61.79054963872102 836.1381284890847,57.30468983415187 833.3167219490225,54.07792629035987 829.3092701247924,48.02269201764875 818.2873012658215,35.874622721918286 814.952434624345,31.808699115306922 810.5331940229295,29.156349108006566 804.9108703793621,28.847145243326054 794.8768552663006,30.07379928384114 786.8731764046889,31.82315573269193 783.1159775575362,30.827686780388717 776.7133258173316,26.44003662374837 770.9460515518228,26.669149044284495 763.3505409251328,26.304508676082037 753.3002453883955,19.841445897877406 746.3818910994091,14.91918043938756 740.8346644272193,12.276555903516396 737.6057105611047,11.456524026588454 735.7731992039883,11.898690402586567 732.0055133552223,16.263988918185873 727.484189438199,20.937107157882565 724.0535174415198,23.24198137357814 717.1664330839699,25.420662713786783 714.9489317889273,28.933801852070815 714.7209672956363,33.11966072956727 715.2436954674401,35.7946996060283 715.1917321545458,41.21759886799009 714.2721811038905,43.641199239726234 711.7161387955431,47.39519390842611 708.3841257347032,50.17952252871828 700.347153695332,55.70338137956037 694.5730702757002,58.49752583444149 692.9231111262129,58.722190599899136 683.1850334291041,57.783866667915845 676.457685590674,59.98987374553246 670.3550617484754,63.18265630401868 664.7875800940711,66.9007056229234 660.9972531393316,71.17828865762078 659.7028144626246,74.74767140369806 659.7372731761665,79.00616392900292 661.0738273794501,83.25627536743264 659.6382482715478,86.87765077886513 658.5926422601375,88.14346169090152 655.6768761434045,95.43049082563527 651.5232619899926,97.43350284117491 650.7939223896884,100.14712212695531 644.8133128517012,101.48405879377515 646.234944747368,103.49746202136782 645.2499883761078,104.80488256731178 642.2379668798769,104.96088888230997 639.6373762114205,104.13462432667848 638.9885480251029,105.55816923676184 640.6942604267133,109.16636596373166 639.6775866583091,110.75280898382971 637.7083758281394,111.44580962625923 632.850144388223,110.60498136875526 633.2145613966364,114.07409424719526 631.6877461751875,115.82410427186971 628.0038379422367,117.39329505891783 624.6171643387446,120.25486551355039 620.8305640576715,118.78442820726764 619.7833073018696,120.22348366472863 621.256278006743,123.94274229633663 619.6657631400594,125.83268150703736 615.7299009645662,126.95545214358935 614.0232513878794,126.5873722192448 612.9863429805359,127.94878822364558 613.6151456219981,129.85153545517107 612.7744924430514,130.76973371994097 613.2416157946926,132.61028313481665 606.421913099803,132.6530655118545 605.625204168168,133.1518014651723 605.9200020337646,136.3164788138905 605.4984717867194,138.5692531129589 602.244655696733,142.71186061342587 601.6454219257606,150.10412765499245 598.3069146849748,157.9574313754921 595.3354915729692,162.3198967350819 582.9782771889904,168.44035786769518 569.7216115057967,173.4565346021983 556.5753481297469,182.96036988401886 545.8411379900367,192.29654066907347 539.7270284274266,196.00981250294785 526.410009639585,200.37756539765462 512.4486998780372,202.2394584856246 508.1207643067859,202.31245350120867 499.02959437674747,200.88676404221292 491.7747862900706,197.35719491591294 484.72980729090364,190.48262418587672 480.67563845054303,181.05860541168033 479.75702477437096,177.36686433610885 479.96545484123504,173.7958089735024 481.70531217513013,171.2374373286333 482.70366625022405,167.00295926415515 481.51397897566534,159.9630120625169 478.49145769046714,152.901237705393 474.9829672190366,148.50945938804045 470.30179375065126,144.26749804293604 465.6453802019663,140.93112165275295 460.22391031861645,136.29993331290984 452.8677620871581,133.32621883412037 448.08379892915576,133.39406707319006 435.4774998032831,138.29819983441587 424.4552087769741,141.09680203978155 413.0020616400601,145.29422879242486 405.0681598741637,148.5683806804085 400.9155053559048,151.10527118889388 396.8210118692274,152.7452208953281 392.75488677795596,153.4879960567439 389.30408984777745,150.89094919522415 384.91875858702673,149.40178236912982 381.71094858076515,147.03289388660846 378.60081257400054,146.50228393700309 376.35519613276006,144.75077424881147 372.4990490863383,140.8082621353003 370.5824187092152,140.0689901915307 367.75048108194466,140.32534164568813 363.30714399304924,143.58103868184799 357.5257051669412,146.10520847245323 356.49338515925336,147.83023868985015 357.4559253961774,154.6513184863834 357.3873809128504,156.77586031188673 355.43542007082004,160.16734515353596 349.38945809998273,165.19755347353419 343.88635955415526,168.3399148940074 333.55614308926266,172.96068079879842 322.2695378820546,177.57112088686608 317.8145633113772,180.618927581594 310.02211261444813,191.93396540237268 305.7463969821977,199.09603584743093 295.64784352510173,214.35848108901212 295.1276390569877,218.12669393042256 296.41094675447357,226.4629462789087 295.49715864228244,231.9976218173415 292.372550057311,238.97088519597776 289.766415862256,253.15838163602916 289.1836857582278,264.0251536438535 288.2484345806531,272.1788016034867 296.9507705283005,274.11888107666846 304.84242839105474,274.49992189278373 306.4654006429398,275.2886825380933 306.2892803572853,279.28125293283324 305.33935509615435,283.21439110484846 306.2982710241985,289.15162720675585 307.6785005185473,294.5966680215337 308.18389541092796,304.69926114014936 310.0993745192616,308.316184766629 311.4931212367473,313.37791163754457 314.49164973418954,332.47768476600754 316.7612068737896,336.3783976153144 321.1622841021254,347.44879803784784 321.98539317673243,352.72540152191766 323.322735819502,358.50202655429035 323.9053086577856,368.05153701125516 312.71978514708945,366.25587200702483 302.6225564945288,366.9737819226286 297.5867617573679,366.99219595356817 291.67075206127464,365.1885167232692 285.82759203849764,364.3701151565599 281.370372752529,364.6805040636038 278.05851391933305,365.7690546137289 276.25972641784335,368.754440557509 273.90329267086116,374.7887734689852 270.82840772881707,376.76826583107993 261.12195641164067,373.5606398692902 256.9205763062393,372.59025362181086 252.40446340999404,373.89412135823636 247.2969635410603,376.1973651511907 240.0954631300316,378.0439977744676 235.71440966449316,378.85945777031947 230.8396594060156,383.7636291908678 226.83140643905975,386.18840174467624 221.6822332711375,388.6028415209656 218.743402634472,391.18573595225286 212.08872280922404,400.02612299181675 207.555855232488,402.8902124565824 204.5199227102005,403.8756602919981 198.53858307828034,403.56014506114735 192.91198027407563,405.57603211297834 187.60417312720327,408.5382346720194 184.22530093687396,412.2418330489612 181.6013935735112,415.93580202585173 181.575119845231,423.2660847609086 179.28354570209285,427.3563802289225 167.0674874845914,432.9426298758419 155.94540787880192,439.0703399879164 152.0100894228841,444.3743172581905 142.17052158709984,451.8500424996041 136.97340833621186,454.5935434866363 132.32809240426835,453.9908241641173 129.93077356112713,455.24372372563124 128.8903361474243,458.4016808389472 128.72049658560752,462.31157707397404 124.40456869616341,477.4520408537163 119.59408632321913,480.1821815730224 107.70174131050213,483.18427189344357 104.8302165178191,482.71194626441104 103.12086431643796,481.14860961815026 100.36630297284523,480.23115330533443 96.43872638876148,480.20285314865924 93.45657818972674,481.7271513023024 86.23669016553147,486.6422091727983 76.94294478971325,488.7685164827297 65.06061807886837,492.7541366336178 57.6631709241482,495.8946547935686 45.02108623915676,510.4029063033271 39.35612364834786,513.6558776797056 32.555924168365166,515.2462568203966 28.904720234789558,518.0912568192422 27.494455040252916,525.2803934538779 26.493680347903062,528.3621389548971 26.223941119525218,532.8758136285841 23.166534822717228,536.442289406092 20.166815001237413,538.3947573526865 16.610009205318455,541.9741948191205 8.608188080595895,551.0191994794434 5.405725587069888,555.8612908625323 2.0668810741990535,564.9208876353001 2.4978843938456996,569.5888385442213 4.240152450724554,576.8234869723267 6.031662013873185,579.2877005735277 9.429212799026807,582.4327088302443 13.66655660979565,588.2600566954287 21.52794844159109,594.1242305800902 25.39623678671808,598.166034993171 24.849272143074813,605.8133844157682 23.93593927618465,610.3485810141772 28.702695386994478,620.5071812119342 28.06333100244083,627.1504979874449 17.032872834839456,641.4500812284036 16.7958071958401,645.6682382835488 17.628394987922317,649.2263749398417 19.8837100681946,651.3645977760441 25.711213515215352,653.6960554588701 32.96480389146822,653.2885910943683 36.1738157889441,656.100516840794 36.25082404756062,658.6527924439907 33.70070186057125,663.3566024986076 31.194549367877922,666.8015951262711 24.94611026020076,671.7289535627177 19.561898256243346,674.9875612282367 11.11596858495755,677.8825436745368 7.929383833642175,680.9533703179004 6.465576516857389,684.2599528995202 7.0676100991302535,690.2631678988316 6.931689655150972,695.5862314946951 8.428123547392179,697.0442251501332 9.268473059963606,699.718360787269 9.39234124510697,705.6042850882125 7.456073541495632,717.1174542259824 7.977059949997129,723.111547852088 7.942954320691189,726.4426915833964 5.150152196703767,728.7408321170425 1.9488174634511315,733.141702242033 0.0,736.777060013259 3.6923959450902415,739.4821711790993 12.248428039462192,744.0298961968449 21.18318130712058,749.5691927319488 19.569215636857418,757.6517891363842 19.689243783320737,772.9668657888742 20.019061430261253,778.7358331173723 21.885424625756567,783.0926089500445 25.199651994275122,786.9054613928721 29.108757769981942,788.3875957634575 31.265966767785617,791.4103011467803 37.993143346733184,798.2581672803097 41.52337507215039,798.966115057956 50.79420310213313,799.8468962260473 62.851160669842535,800.3068555462346 68.21788589656492,799.1435418979136 74.28170744498823,795.765944469184 75.16454956305162,804.7674381824035 74.70771743372899,811.7447166975031 74.83749866740142,817.3016450560151 77.1163325377768,820.4289756576563 79.01278792898593,820.8936891007403 90.44642692205208,818.3379069365427 92.05251051631703,821.3543797249151 94.61996858730392,822.1476402933365 98.08032812372709,821.7349104272125 101.4513272838304,819.7728773995448 104.61245682345967,819.576905533215 107.86005711056038,820.9366772758145 110.33551020443197,822.8425664748149 115.61382728675605,822.4468578611037 121.0171547748083,819.7155771239213 128.8450462599757,814.4523689881976 133.30924485772914,808.2746751643442 136.29214712120532,807.4104638485776 138.58600535488745,807.9839724442976 144.21544092331342,812.576115280131 148.62998018723937,812.7149003864146 171.16041896216558,805.8809951263013 174.7426194953469,803.0171684976814 179.27579128841356,802.4902706726817 180.2024640202964,805.159188423313 182.8308090933216,807.1165631691683 186.89668792444155,802.867179377408 188.46908104271418,799.7137475482247 192.92189842833426,796.6921996530809 201.02837852317256,791.9634972324518 208.31169580858966,790.1220904454358 210.2576798666973,791.9059953411233 212.60826592102723,797.6312527308503 213.43630409036257,802.126673763315 213.71029834209594,809.1800646079959 215.54237771747674,819.2828764436163 219.50594708337587,826.4666003973234 220.20352552418223,835.3975736965357 222.33954952894086,837.7349006317812 226.63178692513847,836.7583442752273 231.46788788279596,828.524063108396 234.7813776799072,823.662074042608 237.8329596038452,820.7921980429597 242.23824185512234,819.5634130047599 249.10714751742486,818.4848787364933 255.20594748852517,818.9146437805371 262.78585889835534,820.4938210437795 272.27946458217275,822.0973015067731 279.11420487776167,823.6693113666198 296.1948800513449,826.1058691035755 303.40836339515727,827.6899314781493 307.56263910849304,829.6232602862252 312.49331404210733,830.4343467460525 318.9302267867925,832.0095888768014 328.74759388319876,837.8044815721809 332.9055041760347,839.3604192386942 336.3226630871122,840.1583644727606 341.63150746686483,839.8347842442587 345.8241143392715,838.363492960453 352.6980729203376,835.4084115042497 363.3901218984537,830.2281170051114 372.157115394381,826.9205194785316 379.35763154473693,826.2505013859629 386.1791579607046,827.0924130854875 390.6867147439369,829.8046009884856 395.20854100862186,833.2702494651396 398.18377760791907,837.0988290365859 400.74244070058387,845.8514758751506 398.99073388553813,855.6644996307126 400.684076359058,860.0002357937467 413.12347394692455,860.3408123813647 418.3759084000047,860.7231077082586 441.7911772019451,863.0435801700216 445.72775855226723,861.7511818325413 448.70982442967613,859.3411919811659 459.7825614104152,849.5704507713418 461.40447860050256,848.6984251780053 473.7350527928293,849.927441630382 486.251847132732,850.7090666239736 492.09399020621123,850.0952014498838 497.64688723653757,848.3769455484198 501.8801272599865,845.4230621398563 509.7446550321887,842.1627081073965 517.1297311547821,840.0106244174722 525.6654395199661,837.086344245645 530.2602749209419,836.2343690965969 533.0308376537952,836.2618759494886 536.6567046825703,838.1772547606257 539.5027530136867,841.9675218855645 540.3266749376987,846.9698391915118 544.3481440382749,861.4255963482974 547.2429082994893,870.0837761266774 550.1708422235038,869.5337361496747 554.444327199128,867.945226445927 561.5365166739284,868.4129781597845 561.5142590971427,858.1750623375622 562.2991791253382,849.394979485786 565.6027433754972,849.2074100681618 570.730169753351,852.8719911137915 568.5674734591938,856.7255628894976 571.7672825607581,859.8963260583247 580.122645775853,854.8695062769581 583.924003002496,855.0169776782483 585.1173113910659,853.8434655724232 582.6517604141213,848.0523086392859 582.5934542941136,846.0741006686119 584.3229812802792,844.1523442005981 585.9733599564084,843.6113824286318 590.4652774314775,839.7035302475455 595.1086906990503,833.1297138249129 598.7340503720942,830.4056254970565 601.9018037757124,822.709971697104 605.0263826399229,818.5400158747844 619.3856378249156,807.5670584124664 627.6636694494264,802.5819601826912 634.2412099539563,799.9898299571083 641.8410117264228,798.9702301210856 646.8972849408955,800.9961612117888 651.9470641729531,804.0892778699272 654.8998538083345,804.1075611099852 665.2533800778605,800.6369657102601 669.8718125059207,797.4729117813873 674.0674235116492,789.836690110548 683.1652311121004,796.0051164119211 687.0697461530278,797.5337677598767 697.8434936652659,798.8569117039202 707.3584192282286,798.8947388930561 709.9684259422945,798.1763845055864 713.5111930492951,795.1782988518322 714.8143767613325,787.1392155079927 716.1354827494404,783.1252078770464 717.5937314644699,781.7953073619312 724.7284617366529,777.970129882427 724.1819767033503,771.7147133699893 724.0704345497563,766.2912459633632 723.315791123906,753.5642323453967 720.9255551667791,749.9814800662776 720.1810040317105,746.1835020667786 723.1762014588933,736.923146300612 725.5748011721465,732.0758978198634 734.8372956255048,725.361096234172 737.5150788489948,721.5215138918555 741.3880868777845,719.2963361320369 746.6552268135855,718.0934198167159 752.8553667487815,714.3774461245375 758.5283456399017,708.1418683065106 768.9520237464535,699.4223864928501 775.8382302973316,693.4291387789617 778.9577142591382,686.7939540699418 779.7671392714126,680.6617226150811 781.2354054210907,675.3658079234162 785.1197863211748,670.9718486355627 786.7188655997242,669.6883610596051 789.2567887222066,663.0597642498085 790.5172307101552,662.1214056213148 796.2587171269146,661.4266891349542 803.8850766259204,659.8428666925639 811.6348279184908,657.8198179769072 816.4125088526857,657.7934792419439 822.3284942559152,658.8898181497262 826.2198062494134,658.6818181461724 828.0135035517588,657.4683195016037 831.5954269901332,653.8598493627783 839.7291197560355,644.3145430561153 842.6687771746629,642.3730493749296 852.0744333436996,637.805253201486 864.9827547870182,630.5823396989897 870.0041748605015,626.5967324461593 870.9832227885738,624.7046661883675 874.5398739649207,615.3484841564673 877.882236183779,608.0598529072893 875.0621926843957,606.4220549306932 867.5255949550909,605.1974665702048 861.5357398810321,600.6243316909844 861.3623807238122,596.4398795899172 855.8483109724153,594.9454261294978 849.6956305659671,594.8536946976765 847.3432768217818,593.6093226905525 846.9722235313739,590.2533068335572 842.0423489398221,586.367117332713 839.6906747580289,581.3586984258316 837.7988848885183,573.9782181130711 837.8250308789226,570.7894131829999 842.1809550749673,569.0566950019195 845.0827443773452,568.4153382161431 844.5332655690611,565.9754359714725 837.8708491033913,565.6889958387053 834.6347983345912,561.9780111309802 834.6107948139587,558.8517340934387 837.2047480293658,556.1931475009394 843.0251606683536,553.4615862482032 846.5012326250472,549.9695776270198 850.9932571129738,547.3979420944343 858.9030199785362,544.9389369240334 862.2920692919392,542.5102416733137 866.1463383334551,538.7916561881616 866.7657524632097,537.1803913857511 866.7456856047921,524.6756870130023 867.8275108517006,518.2634392297704 871.3792805608091,513.5915272456164 873.9436985279392,508.81065708065915 875.1050680020178,498.5488772049716 873.8324490622822,493.8468595268553 868.2036202733277,487.3853663163999 868.3175957711735,484.76701742653995 871.6854054176555,471.7764821638639 870.6921432180163,468.58599213391784 865.9464019705451,467.04265951108925 864.959584006561,462.5699679485117 871.5008193000825,451.16797470840066 875.7348854162333,437.96674932467994 875.0518040535716,431.6532522717686 874.3354908580102,430.1412122709081 871.6217845802472,428.3914262689354 868.4166577296585,424.90260389504306 867.0812268667007,422.7232654826731 869.1559429138337,419.6617684123209 870.6807008816703,418.6563480287317 879.8253101803666,414.24112186011064 906.2404380880788,390.01622199628025 910.002362351258,385.24365068371446 933.7721110583817,367.1204883623945 937.8945286633407,363.5798602915563 938.8786691525299,360.01525406476424 938.612897288077,355.4355078258268 939.1006848267435,353.64987877991734 947.5913882406546,339.30410365017826 949.5352391349529,334.9703708337506 949.6395394066453,332.29242556424595 947.1839757658785,322.8898502120843 953.8202734589423,298.8248673567881 953.3645436675162,293.6792007999111 952.2158982852172,290.77104415378005 955.5156624939855,283.75814178588723 964.426607654906,279.3586162662749 968.9506925185864,276.7111821428538 972.8062841017488,270.59751392397936 977.7655642982378,265.894542452975" /><circle cx="734.0485969535933" cy="549.7027092910122" fill="rgb(100%,100%,100%)" r="16" stroke="grey" stroke-width="8" /></svg>