<?xml version="1.0" encoding="utf-8" ?>
<svg baseProfile="full" height="1024" version="1.1" width="1024" xmlns="http://www.w3.org/2000/svg" xmlns:ev="http://www.w3.org/2001/xml-events" xmlns:xlink="http://www.w3.org/1999/xlink"><defs /><polygon fill="black" points="71.71638713078549,65.1049678638592 72.58460704257382,101.97770467137627 74.94209244181587,162.60930411760455 84.14333981051928,175.37393798103307 97.24397364399879,187.42252045135436 110.70882241899513,202.6533212032449 116.9508617357914,208.88679146385127 124.74571569529658,218.15426574547593 125.0278298122102,219.65456229355343 122.90423460004905,225.07288495721986 120.23423523791381,224.33820916584705 117.28122834401006,224.12793269364533 112.77091109418696,224.35671621652466 111.78915925741428,224.93922077198368 110.30142527707066,225.13351506453276 109.57368898674191,224.34367292431278 108.36106855285846,224.4332882850718 107.57677288351131,225.17003936339697 102.30443645423192,226.32812287306535 101.69025384877901,226.67150777608884 101.02598329441193,227.9812358674854 100.27614732176448,228.09594032923167 98.90589163021514,226.72600354315097 98.13119003578193,226.39841627247836 96.79583518745252,227.54104156191556 95.97204199645714,227.4720779842403 94.33385564897704,226.1047908894584 93.01763165531214,226.04076214922327 91.77865610903362,226.4887156958863 90.31716092745994,227.4042466741807 89.16911813402953,227.69672714588583 87.60821886037483,226.8395930818695 86.77979668640398,227.25880091404807 86.63932568881062,228.72125327796363 86.26669941334927,229.4168690973162 84.79920324756678,229.73884189546058 82.41111981288097,229.42725431918456 81.31254471193472,228.5426039066547 80.42745112127623,225.32025389279585 80.45164546232884,223.649995148105 81.63365341647668,222.5354186621692 81.45602976931946,221.22891852374727 80.2609291624067,219.93254572572403 77.06191192037416,219.86072494803489 75.34224650521453,222.59440890644092 74.60397544079257,224.83719069353202 73.88434117551718,238.45379243834606 75.65698657195396,255.46299501270573 71.41219640155907,263.9638865777599 67.86791179520412,267.50565122729256 65.74384916904822,272.1133394274966 65.75126737482881,274.94753360585605 66.45389164067119,279.5537777454838 69.28716324031534,283.10122852776607 72.47645282966837,286.29564802139225 73.53563878642298,289.4864684697732 72.76880739886236,295.08882011981325 71.3599885691812,295.23266952495516 66.51921323560464,294.51643232941785 59.704404415407915,290.83929200654336 57.09044997905916,290.7892866978401 54.31612686427455,291.0445809618677 52.07033299619694,291.7617913333577 47.279261772831056,291.9346318806255 45.25639747318266,293.33090495164777 43.478934448601464,293.6413024738946 40.64116740283476,293.67739167077065 37.62095512413457,293.1409399676857 34.52382597947916,292.9563575283936 32.43996572098484,293.3977147489479 30.349870224945008,294.32902959146224 28.572971772466527,295.70511780045837 24.80934187534428,297.87444442378285 22.98478269832421,298.68545804680446 21.759899111534953,299.5750638705825 21.144228802025197,300.831179094311 18.263247963312256,301.93130966051444 16.17718903372067,303.17315559785277 13.829509586258288,304.1030930958539 7.975282269690199,307.24502665936865 5.843802535176897,309.3300081660813 4.423878999051147,310.35119912588186 2.340849387342096,310.92372922368224 0.0,312.46969607981555 0.04341227142354042,312.74674487234256 1.7947121784802529,313.09749365984777 3.130560769015187,314.00874244969117 6.387410593499446,316.8178938129226 7.807820261173094,316.8625843655259 9.318934767290733,315.6877290366381 15.923223532757843,316.6952057968645 17.786848219374832,316.81814456658594 24.602622333525762,319.58270635258407 28.409009860852386,321.6959585981364 32.21785772182516,324.0531603487443 36.186610418345595,327.02684005153486 39.047104890364466,328.1443677897422 43.1176433188236,328.7883522657166 47.21812088116466,328.15703198033157 51.27434574386748,328.44265389525634 60.91078227397794,330.1576035376069 67.65905530193119,329.8895437626519 71.95343405844109,329.3204639660001 75.7271729885907,330.0804416439717 78.48726010557397,331.32448915121705 81.34675563029305,333.3858058291275 84.84037633570406,337.03523206954463 87.4228497438285,339.0131253210434 91.39873597404396,341.42480991576303 91.70113441626394,341.8414763783931 95.85555171536822,343.5716405891259 100.86862814834562,343.7424109135693 105.64807621574859,343.16375345547675 107.82249006053468,342.4585991111942 111.04323379496796,340.4661105303311 112.59464854691618,340.2360747203522 113.96055377304191,340.9105246240136 116.99147592690105,344.4724664245091 120.82372001691193,349.93144506397095 123.00295354184729,350.75198862181844 127.32254442925876,351.38714035272983 135.48626587038834,350.6582567757752 141.6668365535856,349.25762558924544 144.67125237303904,349.2719301885007 146.97369925900065,349.8782809771594 148.88196952844183,351.3351461399382 152.63407727725115,356.78698634058446 155.49674369379744,359.87564131063175 160.83210422979033,362.23743280101246 166.933651248105,364.0060865318164 171.27085716000968,366.22350173583783 174.69047573257996,370.3805036175788 176.77264130282336,372.49713109840553 179.4990033584728,374.3434056089709 181.55935848779328,374.5425545625143 184.35728698366808,374.29471188859276 185.71799940914894,374.5399550322329 186.67479632752298,375.47616618062307 187.58014535241395,379.2173810654794 188.36880768063983,379.8428123050242 194.7695560022453,382.44980244250473 196.97047498436706,384.1609133096282 197.84739302696113,384.3761598882258 200.7271349650591,384.1165239825777 204.5949908916704,384.7732378410507 206.61086515449946,384.6212419437733 208.79829055114618,384.0880181745669 210.85582317398476,384.00925113954173 210.91953235777922,383.2358740856711 216.75207918123493,379.0975719760245 218.3508100048619,378.43368994308935 220.6020897687952,378.14539904585774 228.671463663926,378.110329364575 230.36172307772839,377.3539537596752 230.74596153455602,374.91748222540815 231.0516457156428,369.95661876783885 230.98489980582144,368.6121933563502 231.71953849103014,367.0656623701173 232.26919017108978,366.52040945751435 257.3846437425797,365.66162376473756 258.4694087168037,365.11016926811334 258.94445825727286,364.3636892871964 258.94763596487957,362.00871232284794 257.1515270453356,358.8101847999856 257.0590845920809,357.8664488815639 258.0014295833108,355.69572571159773 257.9077950079097,353.8089729567537 256.95932247905415,352.68179353913126 248.54868345222536,346.1143932125084 247.40954427433255,344.6117336898717 247.66228393256358,344.1997083050959 251.00887968760821,343.5244209001654 252.22820108799576,343.92681618724424 255.151599833903,346.64374253386114 257.19890625287593,347.5178652160189 259.17723167700814,347.71312470292867 260.1487898153732,348.1182625092901 261.26280997006927,349.1926037951091 262.22441421621625,349.6786202360896 266.9886464406718,351.3662576106806 268.98546412153064,353.1679939734196 272.10757775609994,355.34663900167624 277.4812413004089,358.11918328627684 280.95288048159523,358.3425344643502 290.3913678512256,360.1876718277088 293.389845905323,360.4741287337639 296.1367359156113,360.32617645248166 300.8281629536459,359.324747388367 304.25258709801477,358.9983280249605 306.85896596404365,359.18193707196565 308.5821130466342,359.5427307744422 310.9266253668182,359.34825831826754 315.115960185657,358.5155227104963 321.77429800367327,357.6568292639787 324.2476236461729,356.9600709275767 325.69321369419305,357.34324768329805 328.6704320675626,358.46853157618705 329.86185906551884,358.3243417929796 331.3151137132163,357.5237242368943 333.905929134076,356.5197956170602 335.39655533397735,356.34035413465057 340.47863069778515,356.9360679418125 342.2027057570641,357.36662694283746 343.0222678327994,357.89939373815315 344.96545283640495,360.34332557165703 345.95998659092544,360.8124955150951 346.8843445371444,360.659074709773 348.6194455185644,358.61851532199233 350.5422545685561,357.68553902133965 354.8258459270272,355.2170788920117 360.4786549012674,351.23376379342926 364.2085253916948,348.1798949593851 368.9541949920349,345.7913186426151 372.1581689812396,345.18646669548684 374.17557658134587,345.21958783744435 377.8241670621112,348.19870231393264 380.0945294677894,349.51938317400095 382.72542043852445,350.80394775714615 384.074470454577,350.8592345948942 385.0525667218312,350.1060050404749 386.10305990591985,348.49310443301863 391.13884220393646,344.60555908929706 394.38205498864215,343.0073993444411 396.1160635787499,342.5958732739727 400.0433343958228,343.1034400084856 404.61152966511855,343.02329333240215 407.06186456149135,342.2864972294168 409.77622791172047,340.4574937080374 413.08513732854607,338.4804221645443 414.8898389190117,337.96060686924477 417.57450700883203,337.7808524067025 424.82673237587017,339.19729691605755 427.6623072950944,340.3834685884674 430.50207323775504,341.99978819474774 432.93191200407455,342.8661304018912 438.41033935228853,343.8812303803472 443.6716353044445,344.10333208307827 444.8487377148877,344.3445655535296 445.9697982965004,345.09756266570344 448.7581795898744,345.87116124245944 449.68938596742294,347.0006481034271 451.17711815580094,348.2985456916708 452.9649496777562,348.89357280035836 456.0476974472596,350.8240402855366 457.81269945589895,351.22962588824305 459.15432225049653,350.70815392268764 460.40292188655195,349.42393211420136 461.000192860337,349.3740066751093 461.7913007450113,350.08901138867685 462.90526367827994,350.28523622351213 467.23930050226363,349.5630522322337 468.4701824828743,348.4932334015725 469.8424405547344,346.3643164867028 471.15404389461565,343.56003900784157 472.30959995298326,342.15397413736036 473.66704195999955,341.2931830394963 475.1343436006064,341.0210178197655 477.86768670750195,342.26007711887144 480.9768474802054,342.35258674169097 482.52192160273,343.2261119006049 484.2401156883107,344.7278100077333 488.4535682524385,346.5424290894798 491.54947689206676,348.7054245849289 493.72531468852753,349.7829423887163 498.0725790428327,350.8824397287549 499.181677862198,350.7078413165208 500.4031231095492,349.6641631666355 501.94168988414344,349.31872362201915 503.8676283010394,350.9508547715012 507.4212564905684,351.86920702451283 510.77152717769104,353.0571343390172 513.4457933943081,354.4121252882629 515.3657260480035,355.5805213407056 516.216330369434,356.84232725606 518.2257134363963,364.63921456962123 520.2020720438979,368.4586753015836 520.6338305848354,370.672710535493 521.4300783475624,371.73149590314256 522.7281464603342,372.52357253063155 524.3867505476869,374.1853566696682 529.2122282149139,376.2046027706962 532.0949306539663,376.3041905955725 533.9708390297219,375.7008762454176 535.5760452129582,374.12827021503983 536.7870222610716,372.3204134793936 538.7992620154047,370.4331154753038 542.1270995093927,368.32582783372163 547.6637214765414,365.1783177886282 550.6997494516373,362.97117358617265 554.8895879583382,359.1937791003091 556.3520639669134,358.5659517596109 561.9613126573387,358.45858016734775 565.4269379301372,357.49731211510175 567.1565370259091,357.4733094689717 572.9160952572433,358.6735109221989 573.796983585306,359.8150919347606 574.9927344678086,360.6765447245731 577.9148495239706,361.2767855225767 580.9962095533335,360.7946336960347 583.6363086577287,359.73726997081536 587.6845360957008,358.46336911111246 590.2561545158139,356.90277542416595 592.0673234986635,354.64331216322483 595.5304920574586,351.3102647534209 595.861811864526,349.9831216501119 596.332611441316,346.1882141583782 595.9513647441381,341.7607902504772 596.3273948791858,340.7087455114152 597.7759173035488,339.02684734575666 599.1030109821317,338.2950323730844 600.8550689639011,337.7591544527788 602.3992122344257,337.7372727137186 604.2260435899832,338.8248341771722 604.8145274951497,339.69637176504295 605.0478408699358,340.8767843531651 605.0070299414449,343.85423821121424 605.1790968185145,345.03727611183547 606.2901536830022,347.21683181895844 606.238702573334,349.34791539981615 605.5947392652196,351.86325411161613 605.7223589534518,353.65634643330225 606.1376166289756,355.2732395011461 607.6875474601453,357.176085453454 609.5219544392536,358.7727877282444 611.4124839627776,359.2376279382361 612.9353889699512,359.904383281568 614.9847708632019,360.0437511541108 617.0133157884172,359.29646591057855 619.8736343789745,357.0865622859093 621.7636526796543,355.32780827007997 623.922556494821,353.7056674150461 629.4575693254353,351.3833602906678 632.7629913792442,350.7860237252607 639.8269155096788,350.97374230856366 642.3056071184684,351.512136345204 645.8541186902323,352.7427285824806 648.7835581413688,353.17433717046003 650.415189044434,352.8783609967405 651.594133327877,351.8038991642902 653.7439966891615,347.5381304026332 655.7396866728346,345.96872358894757 657.8108631982423,344.72133642766994 659.0867894013471,344.6991553401356 660.4922450987607,345.15101991331346 661.9820590420035,346.33927665852735 662.9987674184077,348.3300588485067 664.349551208531,350.5284423448311 666.1731413367344,352.0840870728692 668.4911051734146,352.8895204302435 670.3806888698562,353.27795191359513 673.6203004882209,353.1195559991928 675.5884846936818,352.55658903633844 677.3731592287079,351.46765551852934 678.5015789687558,349.7561348763637 678.7607889204608,347.85022206223863 678.610870600076,346.00305095555245 677.7580869207447,344.06089763196667 676.7985591482691,342.54358634834585 676.9453423383198,341.324297222036 677.5723914409775,339.88539325815907 678.551568994704,339.233369660677 679.9675455549012,338.9226191746318 680.7308597126049,338.41076580845873 682.9027395391442,336.26397507358513 684.738070413722,335.12148104294045 687.9277008581182,333.74103841238815 692.2632416004174,331.1210344647881 694.3197196740158,329.56762757992755 698.6898344423131,328.0024169182704 701.667555371694,328.22478307041905 702.3912886281565,329.0797996959354 702.0843386655522,330.58956826093316 702.2195446063099,332.0681193046692 703.7515845935638,333.3290127510426 705.0390422504408,333.4466826398682 710.3471992931065,333.214071054365 712.2521717838324,332.64442438599326 713.7503632267379,331.02181982029094 713.7665814835401,330.02046903712517 712.7808214626014,328.77429413269044 710.9032536698473,327.81377937651536 709.3729470780441,326.6688655587416 709.0806505962615,325.70728601795315 709.0779778953689,324.1722981596413 712.500731837892,319.05022164240154 717.3234157891027,312.6897397551338 717.99001437589,311.2060960800354 718.1885216888018,310.01581249483246 716.3873910736888,310.0430471677776 714.267891936835,310.71963525461024 713.5993357550913,310.7227006810942 712.354160582465,310.0530037007444 711.1928669463368,308.8041981249599 710.2313564092772,307.0764077765258 708.5044586988973,303.16647839392806 708.5079768635989,301.9528022604029 709.3889056654832,300.413289192641 710.0477863636659,296.33746028376476 710.5266760954796,295.31859767079095 720.3886957063725,284.8282632816688 723.9896400886273,280.7006883276714 729.5495508664204,275.6052872928973 731.7594355166505,274.8304297653773 734.1821964581318,275.1605363098173 737.0388989117782,274.93422302182114 739.4670717603617,272.9492731217815 742.6564814448888,268.3250929133428 746.8482127291219,262.5964698262858 751.6883717810035,258.95829647095593 769.6284248918107,243.2085282159026 794.0372171081891,220.54455493876966 798.4340011366074,219.0050179791593 807.223085342861,220.1180507185499 825.8885722075552,224.77149133959696 843.2260435533292,232.95997493090016 856.5988187989107,233.2242423137361 860.9882370323099,234.9987035231587 876.2308372203155,239.37023335161248 892.7703310621091,245.0533217509853 895.0853774135433,240.77663584371567 898.1528995764914,232.24206182608285 899.9012598041854,229.18662973859318 901.0972397229787,227.5349860805957 903.7243187382109,226.58665539894102 905.7524520244986,224.8157022928761 908.9937634637712,219.9928015826559 909.3256243526347,218.35375017851558 909.1504532841325,216.50361627161692 908.2960968692463,213.99210929202096 907.0545214270014,211.0251161282144 906.1826171288467,209.90324654313275 904.857213246775,208.75732155412493 903.6374497107089,207.1722644062427 902.815226461443,205.3539881921324 902.748165503044,203.77956541243609 903.1823695830006,201.42218951596288 904.4650898520612,199.44410452629165 906.3191518471829,197.7884354710359 907.0501837732963,196.59061619426058 907.4812248399504,194.70224652561774 907.5275022451085,191.93504836162202 908.3370375112224,188.11175348595071 909.2965389287751,185.8562189772393 911.287519851705,183.78188889541465 913.1455055795765,182.46151954687483 915.2752301554582,181.93399749521538 918.8690532068576,181.6681445675649 920.5653127161568,181.01080855078303 922.2443204725495,179.41051352015117 924.3639765339783,175.86889110134433 925.0364882755531,172.428917755913 925.5757796169374,172.14230116836606 927.6479979952612,171.9281764023135 928.9974499168673,170.80232080364374 931.2711404309354,170.9202173191778 934.415524954609,172.08775502389318 936.8872614374293,172.41121544085067 938.106190236575,174.5808735407342 939.4590623889521,175.50290103695914 941.1289089746424,175.78368240416538 942.6364807620027,176.7610117692365 943.7116072176073,177.10631996432426 945.4384418835357,177.13665347841027 946.7560498978326,176.62239800544032 948.2107096485296,175.6895039239002 949.4646537899703,176.30923851435793 951.6487117344916,175.39196188015322 952.3558654121806,174.66147978339075 952.804198253087,173.1941765606141 952.2714837772903,168.52749835430947 953.0141819614845,166.85492306935572 952.7174140357849,165.72705711227542 951.6068133918283,164.49540820895083 951.046877944996,163.0101960374886 950.3147598747354,162.27442983983377 947.2267519553661,161.45764025098805 939.8887084219846,157.22816818976494 937.7579890813137,154.62083284172 937.717938094053,152.9019132506636 938.2892787826298,152.02626857678158 940.0289380725973,150.35089669926762 942.9988833682631,148.564990039057 944.6604966366082,148.30309351709766 946.195247546136,148.4982673897921 948.7656388215162,150.4041456240134 950.1869957097776,152.399854586384 952.3027090714936,154.11494124055955 953.8219643875216,153.95547579273793 954.6061749160505,155.3525280534723 957.0676718420879,156.84030236119722 958.7159971715832,158.25765794763774 960.3442405971763,157.94694303308037 961.9372600759606,157.9617631593729 962.287651335507,157.37610289762983 962.258692532947,154.50120986374006 960.9773737565981,150.5341927396472 960.8858065403521,147.57606114550575 960.1560352751779,146.34146763530293 959.4306515250564,143.61728278756755 960.2849949058283,142.5223790462224 961.0654213233323,140.687493597379 960.7909197191194,139.66992108298604 961.5850176772157,137.444852414385 962.5004772420943,136.26983778080023 963.1162223237465,134.98579325775341 963.7781022242244,134.64595143423603 965.9694303999053,134.20075475520818 966.5079158475554,133.88234246240484 967.9806903663973,134.03966097501726 969.866139518921,133.6804609295551 974.234833636606,134.3480729438093 975.5922891092358,134.99208988667735 976.5206685299158,134.02225227369706 978.5629536806674,135.65384781685873 979.9289486776082,135.6108732855401 982.2887338243808,136.01964450186543 983.9818214749564,135.8602920127052 985.5113061557232,135.12937595715835 986.8760485091401,133.29293958265734 986.970581831717,132.78541917859073 986.0398812961245,131.26815002417982 985.892894330099,130.47851347678517 986.5275818308988,129.20454880628276 986.3235675523695,128.65479021564857 984.3459344406673,127.2224442729646 983.7623350874874,126.19095888831203 979.5765539409246,125.39405909556058 977.3832671042379,125.71482990188508 974.2244788130924,124.85430480246453 973.5866589141045,124.22068344965999 973.3970053974081,123.3175987798287 973.6659101404279,122.27485487481579 975.0295622212742,120.9251228015097 976.4678334260292,120.90376516898186 977.3995833278932,121.86426681982084 978.8550774325605,122.8367716533723 979.9463518793948,122.95663424160017 982.6707164134324,122.44743814237773 983.8601606874411,121.72067702417127 984.7950979396954,120.51176767276576 984.9361287283091,118.61051995249773 983.4955963359155,117.32516687281282 983.0825150985889,116.55771070542335 983.3436945216802,114.44886696266161 984.0404250096555,113.77632041915751 985.7463292637052,113.1986551609154 986.9418968833214,112.20476088837967 988.9495667683802,111.23361037209366 990.5912537883067,109.93857358221663 991.4257874687357,108.90700678140234 993.3490920481264,104.89670012007736 993.6239211879441,102.41344451820555 993.5837740034286,100.65761591926736 991.8934194535326,97.43575848007958 990.6924874948841,94.5215290083371 990.2758185788879,93.00060848461453 990.2816658919138,89.8247026014509 991.1052202918811,88.17150978191842 992.0716792695922,87.62067613672662 993.856988975842,87.48765338524748 995.6531642306833,89.14432140503885 996.2019842358168,89.97787020680147 997.1671403498897,89.97505719466614 997.8591375198627,89.04429327162126 998.5388378192656,86.1674995768766 1000.9109782274745,82.59534763440843 1002.449171534931,81.31950360696175 1004.5691272974605,80.8958956345345 1005.8428765606914,80.89813661917236 1006.1007397018907,79.79050278087408 1004.9919281431584,77.48957310331843 1004.9182925169391,73.9127917467514 1007.5514672487183,72.3805233131664 1009.1017791576485,71.72794594305304 1008.8469744566551,70.68728205647062 1007.0561625598563,69.87385509441611 1006.8216867422489,69.37033277864282 1007.1566163617954,63.290321035675504 1007.9661872190329,62.025434748200155 1015.3474955539051,52.5365736603145 1016.0590981030489,50.96595716964919 1018.1361823458648,42.99317433431253 1023.029604507883,37.461295770816605 1023.7381687447984,36.34387019574069 1024.0,33.09837829395252 1023.1335618189368,31.7453665149568 1023.1828894847231,27.012318689344283 1022.1338713870946,26.932528522485086 1019.5069652032702,29.290640274488965 1018.7301774761684,30.699080152918555 1016.947708970555,29.176020868632122 1015.2922209161953,28.455198899788627 1010.9127234790238,28.75373663338013 1008.9918977739999,29.244255164412266 1007.3390586426165,31.06676610699725 1002.1658541481586,39.34136256524806 1001.2890376780937,42.03546699227843 999.8713574901457,44.343815552665205 997.0773210409574,46.67095906991045 993.8902122376755,48.20743087256335 990.7682317456042,49.35272891110685 989.3228628593688,50.16661224204677 987.8910359751593,51.68109906714267 986.6799237706157,52.29238074579507 982.3046470239815,52.257794942459384 978.5867518077849,54.003315046353976 976.129580278627,53.84389383544783 975.2203047309479,54.15297775696774 972.3405776984749,56.27900679348261 971.2387783013261,56.695022666322586 969.8477895371205,55.86889068810365 967.7384865982299,53.81678845345101 966.74695222928,53.533523191088534 963.6295659678351,54.966100726387594 960.7230035205102,54.91071415369265 953.0677487955562,55.3161001319387 950.6798419963619,54.35752502080231 946.0851186688266,54.125152633271114 940.9080415341381,53.45110532209151 934.4080198920441,53.535282683675405 931.3432000681579,53.278132131267284 929.8995607417406,53.49581128488643 928.6137616549412,54.60837166477211 927.7359531970079,56.7029221435688 927.1240916062516,57.006609159335426 926.1197743421869,56.52474946579002 924.4312907384445,56.24941344967954 923.3750280767597,56.95579984679938 923.498172434293,59.3390398160264 922.574520225076,59.44948363293588 917.4917878475726,57.035679048968746 916.2469081438493,55.6619799303424 911.5116691736898,54.42069260806551 909.8055807900071,53.091560375316135 907.877469803355,52.62153588183418 906.9994629735203,53.58826349655499 906.2967202418043,55.121150247917114 901.0922574614502,55.88268457823324 898.0182876930138,55.07331713170362 897.2079567846347,55.132498176463116 894.6062525606444,56.157717259641345 893.0449742113573,56.088853448828274 891.2541466284565,55.291335378407496 890.1755113833303,55.23373260554922 889.2681928706423,55.672114217016315 887.5961581212649,57.60915667470732 886.5393120307664,57.637226684929544 884.3534933837303,57.113142056261665 883.2619482844124,57.58965875124221 880.2479152576084,59.74201818779085 879.2981159158081,60.08090636597876 875.6074272055738,59.860800133014834 874.5876905709232,60.32727013360682 872.5854399200113,63.439342011178894 870.2996724817488,65.59876796357327 868.9821013637943,67.29785270484194 867.8446062539125,68.0472316596709 866.3785653808723,68.23992610968116 863.2691125442465,68.99878133414973 861.5420856008956,70.18633531633111 859.027825262959,72.18943995154575 856.1595126197675,75.15553752257381 853.9705384837505,76.28026176479017 852.4734445272999,76.49261191748252 850.9565672671596,76.0747006793382 849.0365083221992,76.68909717993773 847.3983800931488,75.75145031432857 844.8383905414352,74.95873095987992 843.7406495345231,75.65805034070587 842.6099992662986,76.92698082304241 841.138316711506,77.95376839064943 839.8771505000589,79.39164829711962 838.3642369976078,79.2176623476073 837.3164027049667,78.55311549520246 836.0683890387127,78.87364574077515 835.531544198558,79.38115073099596 834.9440598868542,81.12951691686214 833.2710279781146,81.81519536273419 831.5251591362373,81.1882101805794 830.806534919919,81.2138479507579 829.4569494585352,82.23500740156538 828.2727458383791,81.45665613062187 827.5557461674719,79.04958675170633 824.3369445369211,77.5152887551954 822.4619390717133,77.13439715875865 821.8764899209262,77.74976291789346 821.2941114468886,79.91249219629549 820.4032773365902,80.04797385844802 819.7552199540532,78.70942541505894 819.0659236124743,78.01965750716238 818.0029467358958,77.67486247263611 815.9279770162821,78.30175094292599 814.5617985878738,79.56539510577147 811.1975532636351,77.93472262826157 809.8709644841573,76.57006909671406 809.1096713041086,76.47506751554579 805.5431089963436,76.98152455975298 804.7989694955012,77.96466639283648 803.0112536219359,77.94039991617427 799.0988626054278,76.69925602652995 797.6978129578788,76.45800855042484 796.4220513888118,74.3441756846778 794.334998230421,72.92114864704996 793.7382316911421,71.53950829737727 792.6077786752811,70.87238404683728 790.5995526607811,69.18458803821244 789.3743101448584,67.67585308325283 788.1554418823699,64.67405344388686 786.7025890131322,62.429434055626075 786.3581173843307,60.75046243494472 785.5653811140415,59.342016147318475 783.1331323345169,58.756789307959025 781.2848876228235,59.44451568068928 780.9411690337705,60.40189431955275 780.007775820281,61.19465249984654 778.5680162826784,60.98366087991923 777.6813831902613,61.466538259660695 776.8583608911969,61.32664227682318 775.2321570724923,59.79771632703353 774.3502006818377,59.885304255145684 774.0937434254263,60.60417943467081 774.0455838801352,62.73545648640925 773.3990961401405,63.45516814435234 771.8204970351779,63.5782308765543 767.5887734495145,64.89842592893535 766.3692026716741,65.03864640539678 764.3552220200057,64.34640568661433 763.6194088003257,64.57039310786388 760.0851727909564,68.45258306532156 758.4331259129922,68.48879169535968 757.1993865527171,66.40553961782945 756.5220224638922,65.84346637798342 754.6994763505508,66.18788433752258 752.9966010538446,66.97654577135609 750.9609560430702,67.5156540828404 750.2720350980654,67.43497783531376 749.5809530176724,66.59908195035882 748.994945927121,65.17492311898212 748.3248075635164,64.37382491811854 746.970011206581,63.76596076155249 745.1607433076721,62.32729408585794 744.2457245311489,62.211431819345194 742.560411029148,62.8170123711044 740.534442492594,63.98283003494771 738.0206167097575,66.1256355910404 736.7429164715065,66.46492355628868 735.5452757950923,66.08812032912414 734.6042427219548,66.31507957268116 733.9970333255112,66.95317687576818 733.104769414688,66.99319969633143 731.7897711462367,65.60823757612019 730.4340563547532,64.93522068380372 728.2844945611862,63.35925147658975 727.3699546551738,63.362689861195065 726.1315865446444,64.31951223670882 725.6276987984089,64.24992407743196 723.9445242131335,62.32953591361343 722.9577456727847,61.60514559504628 720.0297337728122,61.46181090718329 718.2709879411266,60.64023507988702 717.7809679257534,59.514821522024874 715.9987718779333,60.4569730916449 712.4601352367725,60.72845283508286 710.3413560270985,61.16451625388265 707.7063966743398,61.4362229115614 704.6375301477319,62.222013202025494 702.5441711447602,62.36424210120441 700.0568659676326,62.87769117852213 698.0621556007477,62.712749675713894 693.6435663228363,61.221226967747896 691.1168630538064,61.82641562079766 687.702349941295,61.49639607345097 686.7266864845408,62.13624746173821 684.1654800662734,64.62111020864938 682.5545203720576,65.40213330851935 679.6664568817706,65.93343159276009 678.1909346947533,65.49873740412232 674.2814505734622,63.5949843724797 672.8777886975324,61.77164182829762 671.9888996945093,61.39491346923859 669.64294990048,61.73176501018111 668.2039880545394,61.6494384141007 667.3246923790181,60.541892874143514 666.0278618682673,59.59331497812178 662.0210803925189,58.068235158750895 659.2548094339697,57.81919692572268 654.6910026428691,58.234060952229925 649.7411296870663,58.17668290256762 647.0023312272665,58.40995946110519 641.4015776241197,59.471764642488495 639.8910770576531,59.418250453173926 638.6382351807107,57.3675263523117 633.5987844502744,56.75052917975938 623.6761204052267,58.703155044760194 622.5265558081067,58.70568893449121 621.306626144482,58.163008321209986 618.8503908415082,56.598370198667396 616.9107646984038,54.48004106966289 612.6920413807661,50.33949490747352 606.7554079111319,41.58317932851742 604.5755800157347,39.16777005854988 588.1463062692914,28.84583295694955 572.1939614549377,16.49005944750354 566.8775849937119,13.594572848610255 559.3955224551667,11.421009405696793 544.0547489104816,6.5877214915893205 541.6649120934705,6.6364704309241915 539.2920683426171,7.2293904904068995 536.9945563759376,7.375130050793075 533.9551145827759,5.8133462348179705 531.2977968185323,5.0734720597340015 526.8502020820246,4.91649843750173 525.1476895851695,4.170477143321591 523.0736296222567,1.8716667557062578 520.9912966250066,0.4563487585473922 516.5508033809294,0.007365706776795378 512.5590854499383,0.0 511.15050952379136,0.589852979592365 508.1860550000524,3.0342641375009975 505.6025154536318,3.9209133245773273 503.6035725717672,4.146301604774862 503.01283185382977,4.454577146207214 499.63755954506223,5.353506603749281 495.686425053218,5.345038276182663 493.4355460264805,5.11700251102576 490.95958953282576,4.20522981333221 488.3659774970607,3.633937949355243 486.78954675881477,3.9710837798600664 484.1962904171596,5.772420073075239 482.9590475034444,6.902348320218891 481.04380168326145,7.913059510513904 474.5027115691981,9.257217701023762 469.0961066794401,11.049727895689102 466.1716918568761,11.04256961523106 465.26394649161637,10.699742732283198 464.3971731059174,8.823156052151262 463.1881721353748,9.016419293425315 459.9554542421102,9.006136470118918 457.6657450677837,9.752672486027961 454.3941214317608,11.444561963032982 440.89852827478825,16.372447848132936 431.148853618864,19.659515589849605 423.4990185556146,22.651975153744786 418.55176075942234,22.64320321496507 416.60043458128797,21.73377169657789 415.10010375003156,20.07743657126241 408.5090544469577,11.044579999427242 405.5007461486021,8.481713246604329 402.49743571678084,8.0244347862062 398.30109787238194,8.168701009324934 394.1436267461844,7.298990588741617 391.06951854629136,3.5722273075150497 388.83065092736695,3.410611838278953 385.79294392249074,4.205547258451816 370.92566176405165,7.075703634451031 365.8109383453081,6.754279641322057 363.57957641932336,6.43053589088106 361.8137285424343,3.8706339964382437 359.90236466172865,1.9517580484234713 358.6149939627526,1.6286184935251526 355.5772656068774,2.4315786491618496 350.78150235120745,5.632093610720574 346.13372175382585,7.3975453777896405 339.74150272232026,7.559479762075625 337.17210162143147,7.241107412948111 334.1332335695342,6.283824068445199 332.37661791046145,6.125887510617531 329.64873107816396,6.28871207210284 328.2030666473355,7.2544526374462635 326.28611277129204,10.935650156078793 322.240023248766,12.404931992724528 320.50587471527757,14.130951200169875 317.61794398056173,14.6694843410462 316.5705273594269,14.650370537624553 312.48536824312896,15.480533681959287 302.7886986996539,16.6052877186429 285.3585662052337,18.123588316830876 263.48876310379035,21.011126640240207 242.17764325656924,21.733586054578836 226.31441096329888,24.033503674492408 217.10588495131924,25.679817967292706 211.32985008387854,25.875564098877817 205.73164961643965,26.432599762645623 197.24645981884768,26.815546497587093 195.11821792744524,27.45698792328858 190.25377358302563,27.55044781914404 187.1104479021762,28.157138104234264 185.91972617213833,29.206189611754724 185.769666186489,30.39847994552241 185.91612397982996,32.628941850856506 186.96610233473717,35.752248200045756 189.88677411151428,42.75206948597361 192.86868355976796,53.59358504548334 197.78965955090123,62.41885451545687 199.66845745805878,66.11251005994205 199.73586655606212,66.68427206942249 198.71577053082882,69.0714992757159 196.61790456829488,69.70031897849321 195.600107971058,69.69388033609141 194.2532119709971,70.40928409482888 193.19715881625245,70.50861079887807 191.3649881206961,70.0860298523624 190.1745650777651,69.19984689160412 188.6639512099751,66.35553259963973 186.54236167300607,65.67436264010837 185.6078327158311,64.69755330357395 184.67106935103172,64.5162890137762 183.34764966181217,63.63499511323948 179.34661603609499,60.143151166517384 178.54252014312152,59.91299349395405 176.2633606364125,59.84975002015466 174.3994319195948,59.35877295916265 172.20518970442834,59.61064398311049 171.05994553717227,59.11365554286243 169.44562002087554,57.9490858115534 168.19180264875328,57.84133814086755 167.10630299049302,57.08376730046376 165.72171165829266,57.19690864485392 164.6462249038993,58.39377697436453 162.97326216474914,58.47659780232391 161.50020131650146,58.95941978257946 160.06842636654542,60.51477583387265 156.2755648346657,61.076622682234415 153.32809171492588,61.02706049132502 152.0186773530892,61.44481445800892 150.41542744653356,61.31423472244734 148.47898293194334,59.734836202526196 145.59910008893743,59.261151596299555 143.9131127260879,59.91634192359976 142.49667642447594,59.97686956330409 141.15770054816824,59.65022340270906 139.86571999955268,58.750576960146304 137.4647829563932,57.948561230446956 134.921748957873,57.32710485977816 133.4555865885173,56.52403897893396 130.79231877049912,54.13358832956408 128.52860342130754,52.662650846397526 126.39063693084148,50.34216747935125 124.92336151250129,49.41784199321859 123.14121165223625,49.83491096401872 121.77565495976208,49.81213804907304 120.81859321496563,50.670216146671976 118.6556658734068,51.97622530468425 116.49738673017808,52.68155799736502 115.51230162901507,52.66885130516181 112.41589967161521,52.1140784004204 111.39528957031878,52.74443763503905 110.357967896587,54.66394071634585 108.4695279186375,55.726369945464285 106.59347930724282,54.94297714840269 105.17560874344171,54.85733105893803 104.12364279095054,54.41496802712021 102.50515570192681,54.77387085698052 101.65215017432999,54.657855384684865 100.04140003616497,53.771570304851764 96.40065960041602,52.18054572450342 94.08918300328764,52.92917508564108 92.39791734132234,54.28965528470809 91.45334955964712,54.25351649076919 89.83293406682532,56.44914876177455 87.76892655935293,58.4472624918165 85.86727596418375,59.3004927750016 84.28874485384631,58.50499558427964 83.00660880856238,58.54417095210448 80.71321694393633,59.21860481746495 80.53119967855963,60.58315135040567 79.74892892277664,61.430371744893534 76.74816986153878,62.16095525835874 74.93512069392563,63.6031766964698 71.71638713078549,65.1049678638592" /><circle cx="206.47258881029276" cy="280.2687013912466" fill="rgb(100%,100%,100%)" r="16" stroke="grey" stroke-width="8" /></svg>