<?xml version="1.0" encoding="utf-8" ?>
<svg baseProfile="full" height="1024" version="1.1" width="1024" xmlns="http://www.w3.org/2000/svg" xmlns:ev="http://www.w3.org/2001/xml-events" xmlns:xlink="http://www.w3.org/1999/xlink"><defs /><polygon fill="black" points="1018.7784997837629,232.63163442717212 1020.7707164317873,226.6727325518649 1024.0,217.98489493552438 1022.247326507489,211.54374757670155 1023.9939274266999,204.58815698065075 1016.5145464898856,199.63773632970333 1010.0365400586946,200.89595190421335 1003.5681015597701,197.92341778435502 997.3393428512699,195.44617262143572 991.3711136261217,192.47014153731914 978.4589241737108,197.67873851889271 973.479952156704,200.65578637914177 965.2905121513517,201.89433773127723 959.3189884080999,198.16773638055815 955.5876185482558,186.49569674431132 954.0763204956727,174.8383452437448 951.5898587985849,162.92653997746163 952.8179364815493,153.25304814569643 953.5547563692379,141.83906305512392 950.3323912962214,134.39046707236173 948.5757810813225,124.95930783685878 948.570073518823,114.54291418193088 951.044612521462,105.36463345787206 956.0057154196342,94.70100809213466 954.7529785143139,82.7863973613114 949.27904078392,74.84088944732787 948.5631616051622,73.20735336115445 947.0490765538548,66.15891269916938 946.3614265674685,60.761360098975274 946.7857187671664,58.05852412260947 950.2207324869198,55.30306539926448 955.0457060713358,51.85829939565076 957.1073579311013,50.1371581442977 957.4539629259332,45.99985209446265 955.6776351852227,40.67032529475364 952.3566092912961,40.29686734693428 949.0543997759781,38.99946470844077 942.5269080038339,37.976204619870146 940.6899588713087,35.621286898918584 939.1551238117244,31.704857796535293 937.6119760817052,30.425173808889213 935.6611796430975,30.31199257958417 931.7618492935428,30.772623535361618 925.5253181938843,31.217434949669496 922.9870621996226,31.783894554912763 919.7570002073418,34.39455385654469 915.1513495761109,40.12093990281687 913.0370443125809,41.09305838070827 911.7143921806638,40.16913569843325 909.5406679466993,36.11457267905223 907.651994719054,34.90652987824308 904.509639145449,33.97945553828026 903.5304554706019,33.30577171706045 899.0935505633365,31.748010034785466 897.3283459486074,31.37425297017876 893.5470382013,31.294816480615054 887.5191774491701,28.27064578274178 883.3779129887619,26.721886516523796 881.7340222541505,26.411934597644404 874.3334044867889,26.300093358546064 871.1798431429235,26.443104025719208 865.6350957814664,25.773126754069835 860.453203645618,26.37934617656913 859.2170739537277,25.99563516014632 856.2902387263872,23.18780549615849 853.7895457291864,22.2046236286576 850.0663423542618,19.626897004154443 846.6591442373038,16.134982167156636 845.3968990814553,12.65289451702256 843.6197522732112,11.545536907532437 839.1934653029948,11.026244056412907 835.8717590857296,12.561067771486933 829.6564218274685,14.641936549140041 823.2673705886149,20.4276150260456 820.0598317005431,27.10522381504893 814.41880019547,22.500315974020396 808.6590234161428,18.479112891777277 803.8892952631779,16.026141319966655 798.7121258803381,14.447933944380907 795.6777118004711,13.950567203653009 793.6347699945921,13.887783132660957 792.0437878636046,14.377774233269747 790.3824699868867,16.470557194737466 788.9090415302506,19.00484142889161 787.0183056503927,23.30016268080351 785.5412847122005,25.247877268978186 780.036103297099,29.917174267907512 779.4252868209089,30.82757153647833 777.3097006176647,32.59883914558611 772.4772557344319,37.09068516091497 771.6112597496336,43.2168951627915 769.1991811640271,44.260582895414245 768.5010338408881,45.63950888086606 768.8492519500543,48.05777665683502 768.8505645274684,50.47083487499958 763.3236604364855,52.54857511761327 758.4835478814744,54.97404728316917 756.0629362720224,54.97638324847469 751.9200711960964,53.60747882270334 749.5018753006926,50.848197566845215 745.7022019803893,50.509005450545374 743.9759907762981,49.47849382580364 742.9455173789777,46.373366660029774 742.9490152085524,43.612984918320194 742.2530896980543,42.232437627368654 733.2791559180486,38.45257515857736 728.7955826279417,36.72470428127599 727.7571584861599,34.314009989982196 729.4831232741409,31.20575861188263 729.486994617651,28.44535909500803 727.409838381965,25.3434208948413 724.9929282758898,22.584606711976903 724.6527775328523,20.51467292676466 723.8255914556979,18.330521604505975 720.8005352610411,19.58846295415833 718.2613366068865,20.975698882874212 708.3215327926383,21.476538983011437 698.1119430317343,23.214253026785286 688.9260627511687,22.71206018640794 683.4494635869404,16.005902664826976 678.9699972595971,10.04366901309163 671.7676023398529,4.8254579066699534 660.6004014658594,2.8159996241753333 649.9351345938818,1.3053471533690981 637.532810335468,0.5261152506282087 626.864280038698,0.0 616.198568438633,3.196576727563979 598.1004176237983,13.82271671228068 590.1667520149553,19.265652329352974 579.9842100369788,21.725089424213138 574.527450784424,18.48920311938525 561.1123788469713,20.207618641357612 546.9356330054646,23.179876189796232 540.7202744944261,29.144377515756673 536.4953259957172,38.82476089659497 532.0189856159732,42.54716204456338 530.0398271830684,48.00272123841535 536.271193774571,56.93658656949253 533.5352529113457,62.643438519400775 522.822210470689,59.18350311105928 516.1017795707145,63.16018382885875 513.1163299533476,70.6151152487904 507.3934923687308,78.80995009698415 503.91121384127166,86.75211228279545 494.4326170342012,88.51370279451044 482.9605637215826,81.84412696668358 475.9648829697241,80.12187633906899 465.4966312593659,87.59792062639815 456.2604059503972,87.37597043451399 445.7807653423224,82.44529383868962 438.8013607573705,79.72513574532627 432.3132066507278,81.47944976229905 428.07033687194917,86.20668902525551 425.83910164987395,92.41440306815332 428.34112269507847,98.61777475669373 431.09081697657103,109.27718247001326 420.12465940943076,114.2664668461332 410.90017224357786,113.7865564707846 399.9357533877903,112.56163263533927 393.2210582372251,113.06020981543463 381.26508598586344,116.04763663420886 364.85233761389543,116.29404988669637 353.1675208094191,120.74807051769574 342.22739878597724,125.70838200614003 334.04148677976633,130.90422321038227 328.5668225259266,133.880835475073 322.10873599304585,134.11721427418092 314.6599986057031,132.61526367944418 297.5140611943698,127.6292953658184 290.79918257886413,129.85865263137612 286.82860440814085,134.81139336926435 287.8245599104625,141.76008106329743 283.61161482027654,148.46107102569897 281.1350746685136,155.4080046026703 283.8745535445898,164.09325962216644 283.6303838890807,171.5411406198433 284.62462504799976,181.71188942334356 283.1561095276338,191.1409318459879 281.4165310069661,201.56342418950533 276.1998479330272,205.27785823506372 266.7578623304314,208.25126511834128 259.79073942328375,208.74634004126278 253.06886497100922,210.982220211131 247.6039203300408,217.93718681766575 242.1252730635766,220.17045361036242 234.40955873853852,229.3589716917636 233.17653789279504,237.80011053390956 229.1962913009701,247.2372819425949 225.20570761062544,254.18689958352934 219.72701246179517,258.6704774973708 210.24775427423916,256.21381782664287 203.01514479412273,253.49381705892404 196.52151295227276,253.5211586113844 187.0379780965806,261.9911570027574 181.5447766159938,257.7843232245775 176.03632353505276,255.07710942880362 169.54005912164996,251.13794864880572 162.28819834662949,244.96081111556168 154.54373090728527,244.24497808673243 148.54622747364743,246.7524805598307 144.05505493885718,253.47413261257827 142.31327421105698,260.92505215065665 140.5744930451038,271.60052352053685 143.32600398514086,279.7736941819247 142.33479582845993,286.2344515842345 138.84590345540815,292.6987259302276 142.09993349929454,303.6040919813201 144.12232967100135,311.5348127696037 146.12363148457231,322.4503648072029 145.12760593756113,335.6046172848563 143.90396322578448,349.498458339631 144.66158341356297,359.17436016309523 158.8992444430437,359.61733501071893 168.13662524693976,357.0937123766847 172.39479135058312,351.62032432868654 196.61107820921688,352.52510718560075 206.60204200473063,359.0304363324368 209.31193916253997,359.85033842130434 211.72382259152405,359.65853190921894 214.92206132005978,357.53174623660027 218.11506399230922,353.9804134884607 222.72421725338742,352.91304241709094 229.10097770078022,352.91205472641 232.65314569314546,352.1988416004534 235.84477272388813,352.90167553050316 238.32517150455936,354.6759528857832 241.1587791509301,356.0923931403832 245.76180532891615,355.38002813619 251.77963292757866,356.09146176969983 255.67594116027774,356.80536818633044 260.2810677544906,362.1187790047153 262.39957691328567,364.25014783758286 263.8132353869728,368.85270514655093 264.1665970997287,373.4540314102601 263.1093097657639,376.2917832197442 260.2719243754659,378.76684819282906 256.3887105838279,381.5968947601931 252.49114768193309,385.84982803241485 250.7223625322453,389.7439555845765 248.59534710820452,397.98088995105496 246.11405088409325,398.6821967865122 238.32333603115583,401.8731554950516 233.71090083707526,403.6458591026658 224.49609531667699,404.7134037024335 222.02046699106765,406.8472859484509 218.11002142783735,409.3271018546134 214.7573035917327,413.21783844243816 212.5321787422323,417.3829827651311 212.52160866976408,418.6210038431469 213.24081295778856,420.1819882974251 215.26966823314464,422.1817744993848 215.752696833016,423.1813470304845 215.58954806949092,426.7697962708997 215.08667630090602,427.5589965341268 204.43594347269934,434.8794218524033 191.9522768403695,439.38919801076537 178.97751930254702,442.1638686963378 164.47889020973702,438.49865428745267 151.4877020968129,439.79015959334595 140.9972427771389,445.7923802555107 134.24801543952464,448.05066047481876 125.26007825103348,444.6090943178659 117.51969445302963,442.90019419561526 109.52692997677543,444.4226235202361 100.29201176158439,449.6619626179621 93.56274710198181,458.12147740661084 88.57567126066718,465.07825730376953 80.84653258480368,466.58830059363333 73.87080796817199,469.3357180024331 65.91266913765548,480.01854663745775 58.69161563279861,484.98284773431766 50.46906436641938,488.21698330681636 39.27551457767958,487.9730015526975 19.123922239794588,486.4754359392824 7.45074956029169,488.9448698616148 0.0,493.4064825904277 0.2475667968588758,503.5832175249651 0.26454333169713845,518.9633981920947 0.7770594345153194,528.148105437281 4.520782503676444,541.0597589334164 10.987577923492955,552.2338614900483 11.748769264304554,565.1380419818972 6.053192728922554,578.2885256025047 0.5945503456137864,593.4219768242119 1.0972821952799123,608.06414278275 2.3601491377770176,620.9690708688975 2.3717446040634016,637.848052160242 6.621567384904563,652.9930120148398 13.579846984025595,660.6942731845741 15.58391281177466,674.5889113123376 11.877097296449422,684.0185036237168 5.668358311934642,693.6969242486174 4.194074229046471,709.0845375892638 6.446200733262264,721.7401614089417 15.65307901648783,729.9383836542893 23.859916211350328,734.1653536308321 30.823513856568987,731.9262660773061 40.7709040186926,731.6810358128234 48.24648294554587,731.6778261800838 50.98648252326853,738.1247088661937 56.969224082350635,743.0868176401058 65.44390639344272,745.0563601238212 71.66829405030168,742.3110138448448 77.9041881218781,740.0634370870529 80.63377538573597,734.599789239457 90.11848315264571,733.332983061713 108.35206281013625,738.7339030797448 115.83529041942093,737.7087443540327 126.83768393430076,740.3943687163228 135.5839470598165,742.0914668187356 149.07617354892042,737.5664520736607 159.850018583867,738.0865805775861 165.58127567243653,738.8602930726566 183.52991881738905,738.9487707764384 190.5083823723534,739.2303820734663 196.47255689340378,740.758587169771 204.67813410605117,741.7969907367329 216.85471158991612,745.3545346255154 225.77846127197478,748.1500727980608 236.02550836196644,742.7532917699156 248.00331107470052,736.646944936327 261.20037094316876,732.2821530760747 272.64847883825513,728.4081516054628 288.09587621919184,720.8493169978847 299.98729264540214,721.7133775047394 310.61416908890203,725.5452568788783 317.3024463995805,728.5922657804736 323.46513698542304,731.8870812453667 327.65431140525754,735.6549751552225 327.40603118886196,741.08489340884 334.12683325152426,752.0108484959596 336.1200966894303,757.469148349539 338.86675761903564,763.9239011484475 349.2887588666216,755.4914843414464 357.24356485162957,750.280928666738 377.89493457117936,743.5783394605854 388.34497482233564,741.0818890777018 397.82385755690444,742.5598686267623 403.55280882772155,749.7403258641596 409.7942113077016,759.6540196473753 416.0390585104209,768.0761131736178 425.76871034759375,770.7823660558034 432.7437346613397,769.27029106038 440.97379995593303,765.2752672570011 449.21908530233804,763.7655464623563 458.69487945574116,762.7458678020207 469.16742950958854,757.2520885202937 485.3727824193795,757.4528791924524 500.08084647361613,755.6889268493367 514.0397121172822,754.6646481498743 526.4768661598509,754.8998742611586 539.9062567756946,752.1661126319647 551.1064499490102,749.1905450121828 561.7721168831964,743.2417591111152 568.4791992573107,737.0462748627223 573.4346670867951,730.84969588792 581.1278999236505,721.9355590124406 582.5964293545511,708.5385283409076 580.3593294246257,702.0768708382612 575.8847740010316,695.3763789132129 569.9129609973552,686.6775025539737 565.1917313334875,679.4775734910304 560.4567586733331,673.2705691826328 551.0022270965782,660.6082459632552 544.2808886242295,646.4642478102676 541.2872562953812,633.5591291285571 544.2521718473178,625.3736547653526 546.4882755838826,613.7132323995024 545.4756613656239,596.5912317730701 546.6914505291846,582.4484959276876 545.4479651887467,568.8000659330787 544.6818245664508,553.9115408953039 545.4175762056294,542.7498763300371 548.8913308133223,536.7939828527985 556.3496259966973,530.1025094751914 559.066718904644,517.4517832305063 556.8254099596202,508.0187003172482 554.3252769686375,500.3252899111358 555.3122389264311,490.89945852377525 571.4530869306825,491.4122936699728 582.385811073686,495.64892640735314 592.8088705455805,499.8841048422579 606.4574329632228,498.9278565676175 623.0801956992364,501.7008089174938 637.9520684896248,502.48244360825333 651.3592799289848,502.7628683159088 660.0467388599349,505.5062293956058 667.0057020454558,510.97763501290086 672.4532023934845,501.8066412964642 677.9144793016023,496.34703063771946 684.8732876237091,494.37384149832366 694.5614900067496,493.87534765828246 705.506730838696,489.16281747934215 715.2013004352115,484.690413616717 720.4237366447301,478.4835959773811 721.3984837044122,451.1934354929441 723.8753558736911,439.77661067165474 723.4620308624667,435.13612392296676 723.6649608585809,431.83403009891566 725.6820301470103,430.5037915726713 730.1449948036828,430.27216151465444 732.3477833175257,428.75036250643547 733.4617229325567,428.62529609221536 735.423993731838,429.25162886703237 737.4167143904442,431.57492381069653 740.4588534558212,434.14123573168547 743.8811619421219,436.41119434901134 756.1043192348052,438.5767707695078 758.5521360060674,438.7604557821997 761.7275279843486,439.50233186115946 768.0947526609533,439.7546504534076 770.6095641875268,440.2483024012592 775.2507088265811,442.26855136945886 777.1427211704012,442.82403123013387 780.5739437884596,442.709198820326 783.3340877678212,442.3473597343162 786.7595137692099,445.4198687640058 788.409869118172,445.7180808098558 792.5528099909174,443.1419291674406 792.1736515396582,440.59160130389995 793.8609354700328,437.67010023729404 794.4567365932094,435.61896392442617 794.7693379777581,431.4276049132408 794.5230738401177,423.6180738402865 793.8669492920856,417.660552041646 792.3343807073944,412.48171658536194 790.682738788729,409.6462016180808 788.7336915951813,407.88382705804986 784.6398112414003,405.4376290076309 781.7081004372916,403.964525535876 780.7399865564635,402.9870300165557 779.8619851552625,401.2206980931307 779.5890216741341,397.51159822154597 780.1976507258137,395.1750221505363 781.5744072894397,392.63746201408094 782.2810028530961,390.68937826395836 782.4858933107776,387.95316166697535 781.3406991470644,382.88139501186083 779.796869659396,378.77121340499633 776.2966953087897,373.68814864019356 775.4337294235572,369.7795190114391 774.866168105263,368.6053736838633 773.3613105506038,367.3120490149525 772.5163622805017,365.4919143541009 771.5274599763985,364.56059408663987 771.0293662580707,361.80098137487477 770.1693945494474,359.42556415218957 768.117399394053,356.1293764902894 767.5284276717317,354.15097969312615 767.729110045602,352.7618457692455 767.7791925633483,347.62818052988075 766.4818750475839,346.0731640528094 766.6536441673754,345.3026144522531 770.0216565080415,345.9838938753192 772.0962967597275,344.77148971576594 778.9168421708367,347.5185003391469 780.4807045843053,346.3919489777004 783.887695160075,341.0582473023309 784.9247007750178,338.727705505619 785.3551570760742,335.02134660680383 787.557804225268,334.088227178222 788.0760615058811,332.53286789931786 787.5577348982512,331.4989328459101 787.2971608953663,327.53676777840025 787.460347273135,326.68061122801583 790.5584431600882,323.2615801788013 796.7971973511062,320.75944063381195 804.781198106514,322.47409324624954 811.0015904197186,319.7307257906265 812.7475046528774,310.5447595900927 818.226934683201,303.8367223276761 834.6493068152741,290.1564533010465 843.8634914604796,284.679073793036 856.3004815182253,277.97040819198764 865.0032929056084,275.2372119512643 872.9565150747939,275.73255889792904 881.6667525536138,276.97011821083146 889.6147199953366,275.2395870989059 900.0417236651988,269.29330944097296 908.7255820044244,262.35399946554355 914.6796474793757,256.1581026040478 921.3770156364188,248.97418921754456 932.0522432472785,241.29852054670664 942.4785868343758,239.82984645406464 951.1718576030593,244.55210697810492 961.6052678254877,247.5382588406119 969.7922230805804,250.029361829943 980.9844718110497,251.51502046686062 988.4500952047513,255.9840484167047 994.6611251640309,254.24404198093498 998.3865826681194,247.29716155335416 1008.5705254556434,238.1032527195257 1018.7784997837629,232.63163442717212" /><circle cx="391.9361057255205" cy="612.0258823041459" fill="rgb(100%,100%,100%)" r="16" stroke="grey" stroke-width="8" /></svg>