<?xml version="1.0" encoding="utf-8" ?>
<svg baseProfile="full" height="1024" version="1.1" width="1024" xmlns="http://www.w3.org/2000/svg" xmlns:ev="http://www.w3.org/2001/xml-events" xmlns:xlink="http://www.w3.org/1999/xlink"><defs /><polygon fill="black" points="0.0,929.9605546110919 7.829169864478074,965.5034420574543 26.446752378660385,993.0888767407583 42.29393513440305,1010.3242146411856 59.52073624886837,1015.4659745107579 79.67835776444167,1017.0418369405306 99.41457127604858,1017.7295596836651 119.60033480780744,1016.1599990606924 145.21991667940932,1005.6961720506802 165.31834534788263,988.6941980256759 180.7152713809159,958.1000882310542 195.35958351049268,936.7388054952144 196.71407248029095,924.6367248937925 195.1975291157265,914.2932704345461 195.66416606521958,903.0220405677397 199.5475988619188,899.6351089975161 372.545522871453,882.3055723038318 390.2058163631061,882.34267799544 396.76709831758484,883.3659576694638 403.3199143191227,887.9208515549633 407.86355211198384,898.5414166626948 422.7325774376276,980.6431067525608 428.7823303969747,988.2362278284007 444.92701539753665,995.8487265879643 475.6741451280111,992.3966121929674 495.83707852662906,993.4517651354148 508.43875545708335,999.5442136658028 549.205292343482,1024.0 570.716663307466,999.8168119369368 586.4703124943807,978.4880701186746 620.573136651863,925.195970907464 652.7648762614049,877.2805903059141 676.9140726057917,843.1598757410294 686.7633262932321,820.2520773310567 707.0849609014527,795.7172553626289 718.3781379355672,778.1055995415658 734.7636425368979,744.8245693423719 781.0734659149939,620.5557047268511 786.0556355196347,600.0163736700099 783.3883931106215,579.4954138618091 784.5383639948669,558.5867845758839 780.5301915178719,507.46856966157645 777.0768842990698,476.3355647810638 775.5904818518926,452.80010374451876 766.8462753039721,403.16930800893147 768.8834657032803,387.13892568654785 774.2467036573427,374.04554411320487 776.827861417525,340.455024402753 779.5357470677241,332.8911395588357 801.160831709338,296.47910152542363 805.0385662074251,276.81910734097994 823.1109653540549,244.05984133640732 852.1324643888772,217.71624882046274 875.0648362961132,200.41335220315204 885.1104054364727,194.96286677394255 932.6039703517777,176.2904939743778 942.0710637595453,154.99964244996113 949.291928457627,108.92939584444628 936.0009745046027,64.37247212115199 909.7577282661191,28.10230382285772 879.0274728814637,11.241175147704098 868.487595789246,9.824611429456468 842.4121271381042,1.9173070974994744 814.0238794584593,0.03873728900146034 802.6531916911601,0.0 773.3934992872684,3.9466726566543002 733.4917112658974,22.946529760030444 719.7122480475967,34.81294246239179 687.6493692386392,70.44519015013054 674.5210652563397,98.72394651814716 640.7168345353165,196.74684381747602 633.3925527881116,222.87718720780356 610.4560333507548,258.3720037254326 595.3205765473972,275.5113770660196 570.6698493210945,293.01676954588277 552.9165126938909,303.7191853225354 487.83690858313395,311.1228875717718 403.4878211183015,300.55636176954033 351.89363042085347,297.47327282019694 297.96144407749097,300.2729166427823 262.54665265113914,310.21666079225747 230.2249438806714,328.5108989537358 198.72808748042254,358.84702420172914 176.1257743401193,384.38939258672406 168.55151532184934,418.5283441054844 175.68891487756562,467.53369475160696 184.1390370002989,495.9767695609021 190.66740309403863,524.7931545905428 189.2430113000388,553.922882172491 158.38372410126215,751.1353403835315 149.95731538600052,888.5194046534415 147.06501249177404,894.860601563248 136.3085746578771,900.2294116938384 96.67574191999076,907.8926034058942 85.32640381798443,910.4875703109627 85.40733423696473,905.4262224291028 68.42308886147337,904.828446324956 68.6864316273372,912.7948752288488 52.1981512819181,912.6145684558983 46.8735661675923,917.3131280044813 42.609425320887176,919.576767396747 37.12424641440646,921.4732076938988 0.0,929.9605546110919" /><circle cx="88.06374078466312" cy="976.4712787101782" fill="rgb(100%,100%,100%)" r="16" stroke="grey" stroke-width="8" /></svg>