<?xml version="1.0" encoding="utf-8" ?>
<svg baseProfile="full" height="1024" version="1.1" width="1024" xmlns="http://www.w3.org/2000/svg" xmlns:ev="http://www.w3.org/2001/xml-events" xmlns:xlink="http://www.w3.org/1999/xlink"><defs /><polygon fill="black" points="142.43746252019272,451.3607842772178 140.2455559522469,451.40379070632537 140.00292967804637,446.2751361051022 140.84364486553082,441.83463023076683 138.43990589932545,443.1750410657604 137.50420639329357,440.9717991170147 136.4440267917017,442.39220058008107 134.10172665462414,441.56563886999754 132.60218808877943,438.51945872682063 128.06723518287797,439.7591179232761 121.47733768601098,444.2416351291397 117.6301262078252,448.8370020289177 113.33001991271301,453.0043167241935 103.81034698243324,454.5565058613539 97.80021483012767,459.9435138992336 96.32499219556895,459.43425395604254 93.91337208977994,455.3809061068828 89.9574804863236,455.4854029019764 87.70320845012509,450.71782097622076 84.09903664619452,449.5698577440014 81.45560418506577,449.6521830982946 75.35863190946259,445.69038118159654 73.1453760032201,446.72410250151165 69.0115701092599,446.0159388655154 67.1526063665069,443.64887025029805 63.39332195356691,447.59311392612074 61.12063538412227,447.338034701776 59.550051128016925,440.98128444900556 56.18306042186986,444.48715534996234 51.0411320595446,441.72971438969137 46.35490301388314,438.1570325697578 42.44804709877463,436.4047011590868 40.67093383674424,438.1833272028364 46.170584975151,444.2895099461017 47.98209548454793,450.2878547384404 47.736270408407954,453.4262727059785 46.42191429492369,455.08135298887294 44.52094655154404,454.9119075713046 38.22534497205336,450.0463975244828 35.795976855058214,450.9247079780723 33.740473261094536,457.67351925022524 34.14283028181724,461.0763220660722 33.42072018906629,465.4940383836441 33.71234905019899,468.91390809233394 33.012827491565304,472.3348571534192 35.126385627413015,477.9105508565174 33.08430468770267,481.1545734528305 26.634697450904753,482.5800969892433 24.17418809070791,483.9007536226359 23.769995581506976,486.58382665307374 26.47902409212372,492.19835414568104 25.40841687528606,492.98919829376496 21.257183654476002,500.53990198586257 19.496753973911897,500.66333120215927 16.76835711510407,504.6340321531774 9.120663508860911,506.6168419745661 2.8973371504546517,513.4129289532841 1.1534016971953345,517.7248954543848 2.6854651407539594,521.5660334189795 0.0,526.6042145392324 1.086513537420862,528.1256227379571 0.8378709917285161,531.8731650334764 3.120939907545343,535.8300066914829 5.772359418107815,538.4703319938794 4.919003073440168,541.2852324697411 5.200441687289444,544.4782309826602 7.044033388058177,546.8684954146378 10.152149482884019,545.1895395425814 12.402893119542856,545.7578075795577 13.607278027439902,548.4827951831332 11.481281074680302,550.6885874959764 13.106097756324628,555.7356823041733 15.580283245852428,558.9580656664152 17.767272664069182,558.4175231617453 19.25963981137598,560.4421434463809 22.709171265344345,560.5621878748445 24.941382541799108,558.9065938402712 27.23974336364547,561.2837800181958 31.30757500311608,563.2054355532703 34.67854156188181,571.920547977777 43.288198308964226,573.2371364497143 45.68936740950376,577.0444419801254 44.900494097909764,579.2672355819236 42.62819818543917,579.8487164671767 38.70870632724814,579.2061351105428 36.72029469896039,580.7500528000327 36.5167701624562,583.0690385134965 37.924536425016136,587.0555983175592 42.19046591086834,590.8361969985854 45.04847959357374,596.6609642143069 48.67001019112426,597.9116106659962 52.539536244672,600.5992419402704 53.16765211913425,605.5088217504401 55.28257613100906,606.6270029495117 57.447523803073196,611.1939568128354 60.82137163019689,611.0461062095579 59.3471000273346,614.5394797809583 58.4001850091801,619.1724711707994 56.94826724796761,622.0776227340469 61.13454089653572,627.1916008880696 64.1291112989633,626.39631696109 67.06598212852249,628.0534270805992 68.14189454832776,631.5131988894975 69.97690226231207,631.8221749192436 72.51719329476092,635.1728696280102 77.13785870519933,637.028351121334 78.88708776279714,634.7536266195461 82.12281086887036,634.4211060045027 86.88799469958019,632.2191329727713 95.56827404009492,629.7288954800113 97.95644594184945,630.3050560656966 98.32712362242158,631.9967348528571 104.30276171350373,632.1884240986669 108.27523009937376,636.6135206603906 109.73234290927657,640.9146593886123 108.47936251901204,643.3344177765398 104.83985608598233,645.8317239675331 103.64597235252776,651.1248245674053 106.16346240637327,654.2552244231372 106.14029410096985,659.8835835064746 104.37923817337214,664.0179043406615 99.71394668171902,663.6895424226602 94.92789735384484,664.8593755964278 94.22645762152588,669.2826588357602 91.29429829342489,674.4948002658509 85.86449060096281,679.9253677819037 79.66008561391227,681.797933594956 77.44677067536263,684.0493639270417 75.30273058455667,683.4906379951715 72.70207779123616,684.7202806967706 70.23505950876064,692.1428836336474 71.8562690619428,696.7216696937596 73.85759836926557,698.1374939190641 80.76029357575665,698.2328808587963 89.15907507537332,694.9553243762656 92.07827598135805,698.5844861063615 93.53457691263164,703.2291218313082 96.1786855472062,704.3347694175238 95.9711747779734,707.9315644675264 96.88122510645118,714.3651336667341 107.81071411040108,722.7167213386549 109.63651042787939,726.2549043815889 112.1077184922825,727.8623678318362 116.1862602889158,728.3326950017399 118.71873435728295,730.0560462416136 115.42629281806526,736.0190277167738 116.11906747025155,739.6733224560821 117.99200991972428,740.4377541471101 120.86088820460998,744.7008231407193 117.55731287051967,746.8390798420309 117.02624333112105,752.052676243882 119.0075370598807,754.7251129264084 119.49407565356395,757.7081574104525 118.4437861419184,759.3146588737172 121.02688423739237,767.4841907425468 125.74688677956046,769.4016281063963 125.72184596395765,772.190868356998 127.57051934458103,774.4950718370362 129.3447484726341,773.9335549788243 130.92743304756033,771.4388321678897 136.51908894303833,767.6075582904346 144.8905531741254,764.8931685553223 146.5194686585174,763.9403604600238 150.47380667914143,764.941784105115 151.82801383636996,764.1458336136336 153.38285718087616,759.6939257602378 155.25161052258608,757.1470905474072 159.8149100940169,761.9965222980412 162.7186969207409,768.4855250374754 164.65094704725797,777.1182898770572 164.2887761444535,782.8429370032535 160.5902593696341,789.7465163280278 159.565625053163,795.0033163528783 162.20118694066923,798.6044282388743 162.18460200252272,800.7297535773595 168.4496400572224,801.7029751535109 172.41836256844198,806.5992670912702 174.00062430181134,804.0261197524383 179.1566249271991,799.572528934403 180.51406104494734,799.8055661883986 180.98519440400958,804.061878151362 185.32891150605442,803.6124386394764 187.06639407020984,801.075662657463 189.09980732517312,800.2467586355565 193.14852138552823,796.3175564604825 197.62145457023485,796.6830213249955 199.35802851675544,789.8657372461616 198.9186510583421,787.4044251355298 200.33326070532777,785.8680117087505 203.87919040668118,785.0047490575474 208.42012967473283,786.651383989636 211.0425284407705,790.5263192235129 211.65047752167,793.555479680048 209.573730108326,799.2170368968766 207.4522855687035,798.773705968793 205.87755927552456,802.0977714421266 203.08904718221277,803.8828230581144 202.24557440543464,806.3977962638284 203.34163466094452,808.6945104878811 202.1923695727563,811.1790826057636 204.42854184697762,817.2971612407224 204.54782127057902,821.9400018425977 206.0100808929089,825.3029949400143 207.86088007349588,825.5605818029522 210.2282712217688,820.4447814339542 207.81207853155965,821.3051644018319 208.4142281021615,818.1868398936601 212.11094481550182,815.6371831110237 211.54229025459722,812.8048410693546 208.15442559235655,812.1225193038639 207.0561986101629,810.7428388743461 214.03061550942738,808.7892134509314 215.45233553612366,805.2921058141975 221.27523627217943,804.4359099482795 223.38931728777254,804.836284421044 230.7110435947914,802.9526615070392 234.77555907219968,806.309636848361 234.71839747172427,811.1109252110764 236.809482053726,813.4582410809988 238.01204792021994,811.2343643250817 242.36717788490967,807.0769614260827 243.12636276487424,804.4544712145768 245.96436663175572,802.4588647505169 250.24903656961345,801.7158102219627 251.43271009109267,803.0852932496937 255.6176628320912,803.4735907902182 256.23448875325374,805.7839628527965 263.60590243431443,811.0699122823086 264.86146439680937,815.3378316623553 264.8829520210606,818.3293014131641 269.4702637098842,823.0626267206569 270.17828360191163,828.9210507465214 282.1351101970577,823.6565897622834 282.85858916783786,826.2314599679843 281.33585782771644,827.7710150751659 281.6074776190254,831.1774783303149 285.0345187619046,832.8521467097324 287.78654528809733,832.8175845247385 293.7274094697951,830.8110578920683 298.9390835075892,831.8369283867514 302.96847122762426,834.5792540536168 303.91307771492393,836.326434927755 303.0232158281554,839.501947294985 304.4173826780368,842.4511459196663 303.71738724034066,845.4868146572085 305.46337732369125,847.518146601745 304.0814838671372,850.6603580926359 304.6479107944798,854.2964725496797 308.24245305447266,857.4341292488485 309.3716518771149,865.5536284303522 315.439789504755,869.825904878636 317.92375724264974,867.8388502413486 320.1889646016928,863.6644825635431 326.69795866845806,862.0910983849826 330.76477691509376,861.6914141863077 333.23961629196003,867.4776471803809 336.51180119441364,868.265998770351 339.90143111579965,870.9148330519798 339.98078110783104,873.8395520336945 342.4452826298412,886.3725986830547 344.2831719987149,890.756343307489 351.12616030905446,890.0921958863963 354.8293644927196,888.0698717036664 356.7194501200132,885.2373555380259 361.74998560152704,880.81690584489 364.6237228243025,879.4718697866646 367.78854964361386,875.5036629046301 372.7913573495346,873.0967370916522 374.6733244539915,873.7295787828937 376.30935828921804,877.059081684436 376.2626592565226,880.3462975332526 377.37258872346854,883.8929079507516 375.061149301024,886.9244666084397 375.62753452524817,896.819059452188 373.7645729403092,897.1996303074434 375.88584606195326,902.759544697742 374.266122498228,906.7307441132996 374.95463943168954,908.5875176522726 374.5732318935533,912.9465912237941 377.92752754944166,915.5299994727912 378.6610416003765,920.0440117541231 381.48015171574605,925.7925474613975 380.02410140295837,930.2840797833775 382.74017907956244,934.9966148027438 382.78399656016546,936.9643354122688 378.94392892216166,939.828363702664 375.47131514655723,940.6717839702269 373.80006310487784,938.9030123479997 368.92903481046136,939.7096902175806 361.6651763753154,939.6063604008198 355.55848470818034,941.6239826595528 350.20552729760595,946.8732046738622 350.7946713810472,958.9070949387562 350.35596231028234,967.0854023615676 349.82168546451413,968.5903445284318 345.1694381869096,972.1869078294575 343.2523387476662,976.5053650575269 344.48081910628844,978.4554361923604 350.45505343059284,982.9197909121467 350.9489780078453,985.4690597630928 347.2748957469218,984.1149792960782 345.5355896786579,986.2913782626572 342.820113090155,992.1531814954803 346.37012453349234,994.3648223156443 346.3544895818605,999.2299704048016 344.02946377192853,1001.9586172595385 344.5293324685819,1004.6359559011514 348.91561718018903,1002.8314744402338 354.5330033414626,1003.6382912433838 358.0726373756764,1005.9745410136699 360.32254009405534,1011.5817901772468 368.09337701612685,1019.3872925413872 371.4063725231177,1020.0796379395726 374.97533184489976,1024.0 376.9589332332809,1018.7709914058368 376.9828525501377,1014.8265815409292 382.99361028160496,1012.7104332170596 383.8941755637779,1011.0962350364572 387.35468111916384,1012.5982348180686 388.1995342016696,1015.1262647172155 391.79313222717815,1016.9561492426724 393.8091365224929,1016.3654620664337 395.8916641324456,1013.8145248563117 398.2259770426469,1013.1997580129057 397.6827899960679,1009.767045073708 398.4249515840805,1008.0860948682687 403.50401460739505,1004.1292940098077 403.9913826389343,1002.1384183077859 406.8093806454373,1001.178448708792 408.8707558339093,1001.7521841027931 411.14496877755715,998.5037840478961 412.8869439050596,997.9581173721322 416.5272129028431,994.2077551286193 426.98931544519854,992.7659429178616 432.47048816797684,996.9804651743474 434.42895793302387,997.5600816363398 440.0794064938185,1001.4108809773902 443.5452478359127,999.4138638435306 447.3225712720427,998.5032895980873 447.6604116459053,994.2869273672375 446.8600454106317,990.4121666570145 447.2823694034761,985.7693503810066 445.1158725776804,980.7860106878222 445.1209097464777,978.0838468850028 448.6287040327825,975.7433840646363 451.86695424762985,971.6584966854823 458.4425700904866,970.6532977429688 460.1511615048008,968.9528972581043 461.112861342996,965.9799708469517 463.8367278026234,964.3440768720959 467.2553590445103,963.7907547194455 470.1771328720414,962.0333268411042 471.38887649147034,959.9451597028606 475.39621879843037,956.2749182827304 493.5592432146897,955.8653228177994 496.6292267261198,954.0247985756179 499.58204647283,942.0461718045713 503.7266312812445,938.1786945142163 514.6525995575389,938.1398244887184 520.4324603986373,936.2481639535368 526.1450354511962,932.9846099542899 528.176522262967,932.9933771149414 532.4128962239322,935.1042012833044 538.1764091462798,932.978765315793 540.5216815643003,933.6199288383078 543.5549623005008,936.8036109637336 546.2708413424597,942.0202923020597 547.1656807944651,946.4605162042927 546.6366557301321,952.7365349975778 544.4021568986095,958.437827829412 544.5949137554234,960.0841774472932 540.0598369433932,968.9455968158901 540.1176356218203,971.2913248818314 545.2323604426257,978.6647311909903 548.1460704338356,980.5834260008463 563.6312740546837,979.6552865744342 573.2263697288383,976.5510935647624 574.8992795026651,973.7964201825926 576.6645809916457,973.7124986862153 581.7340673456849,970.9339625540998 585.3269194350352,970.902489321556 589.6233820402784,967.9523432593712 592.696860785663,968.2669666148305 602.2019504926633,973.9331959783001 604.6426795779767,971.367742274917 605.7897610648271,968.0486542567687 610.2375281997545,964.7844359550203 612.3888431452167,960.4570208702025 615.6645534137729,959.1714209776658 620.3857268347685,959.6036822271386 622.5401867368605,961.3434413079073 627.3849884830095,962.2471192316467 632.0171955589196,961.8494470695596 634.4686189387089,960.7371468835535 635.71705359161,963.225313973452 638.4284490043957,964.5961871218904 640.7075222034729,964.3905270779976 642.9767990143531,969.0917736082014 645.5232657362836,969.7269295215089 651.385776318062,965.7031263494338 653.3133470033627,965.9200778826324 655.1356323839256,961.9089259557053 657.4481632823502,958.7528311394021 659.4567683995521,958.4998862377506 664.301739672807,955.5375065555919 670.6018939597473,955.052860447666 674.5347586110579,951.1769431462152 676.2463761177789,951.4414728669765 680.6998729936455,947.5620686245827 681.6546394782272,944.5855551272766 681.6057584467026,938.6899323343296 684.1569651781294,934.0747321476344 693.2496513436374,927.7732538992295 694.2597267474674,926.0631324289543 697.0786229171383,924.8579845075053 696.1212382749874,921.9414704025845 697.6010696318466,917.7839462548753 696.5714592745314,909.1357489548514 693.9799869091944,906.7002022832212 697.9672661579698,899.3748658391147 697.8537399134518,896.0237825995493 699.6968842982808,893.8053016632027 699.1778370712849,890.1782728496695 703.1999861658459,884.1505540373375 704.3811762013172,879.8696725412091 706.9627074668601,876.514610576777 708.7403601687813,869.876464601659 711.0445644800722,868.4575418913693 713.1741989632156,865.399839282752 713.0965615545064,860.5950680957965 711.719220558003,858.6289915950015 712.9333441829485,850.1441168597673 710.0734673343278,845.847548284937 710.3920044209456,842.0405405615952 712.7023001135768,837.8015799123499 710.5416436199954,831.9441767330105 710.4589860585317,824.7311780124869 717.238600899909,823.3616026387544 719.4074339931617,821.2873397217224 720.7727292041416,822.6156650527124 724.1121505338423,823.3337827424805 728.0832988376437,820.9587215633426 731.3383011574372,821.7478368107369 734.1728786679653,820.502414866406 737.206206886756,815.8059502005399 741.0091538588533,812.57498517409 741.7561161490021,810.5558909174474 748.6635532784119,809.6696004850992 751.0405083153801,808.5321052096701 752.6799425643674,803.7682342745267 754.5876867951237,802.251176743991 762.0105376054852,798.9248918595337 765.7999421718131,799.8082695918151 764.7284163213895,795.2649467789948 765.3027280619639,791.8834334538177 764.5058164212087,788.5394014150309 766.1286538481845,785.8143605366088 771.1164771777917,781.0067606948313 772.1918997831486,778.2658203621538 775.399291337163,777.905294942116 777.5643565791485,771.8635944796241 779.3858710276637,770.2629648565749 782.4257491464206,773.4611653662889 784.0844619434209,773.2913978150549 787.9158808534462,777.0375382045903 791.3925453454239,775.5978132985508 791.7980007744992,772.985143663426 794.1683760222717,771.0357938102658 792.2690533027359,768.4317954028904 791.2013901841086,763.1998875235455 793.5037379006653,757.7635575802009 795.0725585000081,752.5080186502225 793.6908963143964,750.0666637811885 794.3187653294033,746.4317207997881 796.7447491186927,744.1945190294775 796.3452472253426,742.4999086161404 804.5435920384584,737.8712460276508 805.6463003716207,735.6211974430289 810.8852418481557,730.8079686321038 813.6870190639954,730.6160172698142 817.1868235469614,731.9126433551377 821.8946382499728,727.2693228787775 823.7210459193327,726.5392896575054 828.9344287256474,727.3411118893847 833.7212795195417,729.423538787061 837.0142239211042,726.7561011087457 837.8370235640067,723.3222230069325 841.7740497312565,724.255721654836 847.1872226285839,721.9674369764974 848.3945280187107,718.7648073179631 853.9283273967849,717.3672625607921 854.3874032705703,715.2885887743754 853.8326505222014,704.4816683189191 849.5521623824769,695.8449339236895 851.0745286781174,693.4863528793064 848.2517972147938,694.5718914663876 845.0990321278202,694.1948752222056 843.8818966075531,690.6452295231313 838.775159231587,688.9893253699804 832.6963946541722,687.810531768605 828.1904189144068,690.4212859774852 826.0987318074001,685.8702242060974 824.1257758287076,684.7146514224873 821.0663035482743,685.4121028255727 818.3674122702304,683.9596958448635 817.9591955945341,681.1623888840867 811.9165411499961,681.3554054214962 808.0661240328997,682.7884385265913 807.2888268846694,682.0774950709141 805.8961954563869,676.2707790993911 803.7969885302961,675.9298349188563 803.9867052195964,669.6119496467242 801.5070318320309,668.6469888133731 801.2014575457882,664.9936061060785 799.8624034367738,664.3186615510992 795.7916695494724,659.3573508091704 790.3372883758835,661.9594495132806 787.1903988346663,662.351224206422 784.9829756635031,665.4613003124939 781.4689793399835,665.6523610575622 776.5563261742227,663.8837718115078 771.1594691542554,659.2448989183507 767.6229237371733,659.0407785393359 764.7085670692601,657.5712492699779 758.3716293007307,657.2929405746138 754.9125147894289,654.3899182362616 756.2207424874765,652.8130675168047 756.52578518943,648.7236818105005 758.2042963213019,641.3135929911223 761.5279996769364,638.9649120067493 761.342314514753,636.6489641737844 763.4902587804509,633.1510566121372 765.7373034690108,632.2777490987946 766.2705782290162,629.8670524340899 771.3132322994567,627.5067143833617 773.1741191288305,623.138742879207 770.2394154695567,615.5197539754505 770.9020101566057,612.1524628631 773.7932607471836,611.048736779891 773.8046542344827,606.6328887094426 780.1944543644605,607.6714849589466 781.4330454645824,603.5992467209801 779.542129099394,598.1226257169963 781.8481538022303,598.2604599155025 788.7043410746215,600.2609305209426 790.7497907658228,599.8281390236298 796.3689847442944,603.3404754181615 800.213179852949,602.3469647500064 805.8101809412274,604.5162645534931 808.6190262870243,604.0686433766243 812.1847557342757,609.1780375045817 814.399500444662,610.3439468780382 822.9716486330884,607.2445071240011 826.0648728652909,606.8594007779743 833.987599622524,608.4342506676048 838.1788092686812,608.7172026665448 838.3603037865921,606.7792611622233 841.1517294195655,605.0486559195441 844.925606705778,604.5637795984686 848.2679722934508,606.2821377980979 850.4845035766544,608.5795629725224 848.0171715367854,601.9892232900423 851.4204217390491,599.4582003987846 851.9915196103437,594.6057826169028 855.6607425950771,591.9638206178025 858.2965480746666,588.5303557418407 866.847690796488,583.9758919874773 875.2521882427702,584.2105629307064 872.394388602006,573.8245268917155 867.7918487136096,570.2375841379203 864.1048685184958,564.70021676928 865.2245400172558,562.2162881661679 863.9867133247548,560.7963979860601 857.1209005706442,558.4073736645373 855.0328845625738,561.3980689941188 855.6139909086177,564.6052510052511 852.4005760869575,571.6876147444137 852.9687763858119,574.164609450042 846.7074128407112,578.4941302917819 845.5609057955747,581.689788214575 839.0608699846531,579.0187109454046 835.4234223646312,578.9983073667829 832.6432129295396,577.573115825573 830.4944846046121,574.3293884975922 822.2206811737215,574.2254255419798 820.2403122769914,569.8185069015807 816.6919883034687,567.2519262824048 815.2219531029433,563.4169281057101 810.540707253428,558.5123465636419 805.6365992079493,558.7946884781188 801.5302747415725,557.28199204892 799.7652613262666,555.6996740632801 796.5437436049142,555.7086325777634 794.8500056873199,551.6967480845241 791.1569985421141,548.5193475477353 792.6528255981428,546.7025690150397 789.273905260956,542.540821050531 789.7792403811716,538.0285797271736 792.0429981336636,533.7102349652579 793.0630701052687,526.3354592651463 795.2940317905188,523.2936814955318 793.0900552977469,512.0961023981453 793.6127068545916,509.35722355605265 792.6962343310104,505.85372867683293 793.8781990369769,502.2385578735947 790.626266521711,498.77364957502243 787.5335635394067,494.19056800369356 785.7292241771817,489.940240466948 781.0508427508264,484.92010843551805 779.4338404413132,481.27822514563195 781.4340333438579,473.1293037492933 787.173257402628,471.06619564072093 789.3269370160865,468.9136250223105 790.1134946394169,466.29500010439995 794.7129721175646,465.4603965163899 797.7039767345723,467.1838252866821 803.9535297126348,465.93303303272126 806.4765403190104,466.02972943575287 808.757552061607,464.6772087340669 814.305128921771,464.0328168829043 817.7450519295994,465.7784977091693 820.7214536669505,465.2931491270991 824.2346418201876,463.0785794434473 831.2522998951946,468.8043395390217 832.3915297399213,471.3384962626251 831.7642825298467,475.0685353511983 833.3224221141228,481.04553063574167 835.1509010311831,485.45518020669294 837.4272253371713,488.9451185227015 845.8572402144267,496.7486388221324 847.1688442082077,499.8306161108343 846.2257643693962,507.69309857555504 843.2906978034882,509.3029132592536 842.8984121593656,511.30389613443083 837.6995967764143,514.0146443515034 847.4269792759745,513.1804544997983 849.793903697235,511.626968364322 850.3057909995314,507.191779905624 853.0994555407724,502.5082307001222 853.554956756744,499.3167347719516 856.497236688104,496.56635091414944 855.3925479697986,489.1019199109402 855.1389263322782,482.91922559170166 857.3361680963086,475.6489923812022 857.3424758875248,470.1180399802024 858.6452428357421,460.0748075413153 857.1062743504625,454.59708288659874 854.1347908368817,452.42031634093996 852.4708481947581,446.7480661302559 846.4926324208172,441.5030022192341 847.2975828029951,438.0252893548238 850.3784521401585,434.2796703588932 849.4465532663534,428.69894826602194 846.9754471169967,428.2896534327723 844.5968754426963,422.25788421893094 841.5681729473639,422.0379613459563 840.2726103293718,416.5999203444727 840.861554876285,414.95655464258175 840.1810288033826,409.11572958231557 834.922364748413,406.38866337242723 832.476628645458,409.6222480119203 828.9209462389493,411.37170431927393 825.5200233489907,412.10882176365635 823.9020869771972,416.4143189896711 822.5174624486284,416.13544104684695 817.3885135061726,418.07410163497025 815.0720144395553,416.9258784772611 810.9873388884675,412.75043521858333 809.8037340616697,410.59936368278466 811.3848415140707,407.50275898352913 814.1036935043643,406.5258700446284 815.1963483307258,404.81711785982384 815.0686891010594,400.0265155908728 810.5556534634162,397.9982623693221 806.7309608402652,397.43894789243075 807.3777983619811,394.72389628432006 805.9111370425198,392.7452984489172 805.6249827380776,389.4179063542409 808.4636670445782,388.1471298218247 807.1814058384109,383.2258937510726 809.6865658349128,381.47131555369515 808.1801444150128,378.9821902010126 809.7562584019739,376.2272763541963 809.2306034053968,374.0650846082016 811.7602832126398,370.6350120834758 810.7016252939205,365.22904859865366 812.1187260779566,364.6604542050469 812.7912153127792,361.06046083999956 812.0830975347933,359.9092858441261 813.7489918401757,357.0958601662321 815.4672429258803,357.3575404620991 816.8706344838918,355.3075896588788 820.0567711456632,355.32748391958376 827.6084430577295,361.82237824195363 831.5473599373439,364.2895304030137 832.9346391736918,365.99808890664553 834.8306550938881,365.81026144929 839.6827716594726,367.10910334032394 840.6870737478118,365.7688947819014 843.2175581315771,366.9962551470177 844.7794027790002,370.8108529056002 850.6469256768527,375.13134281762075 853.7052339663536,378.9176007688375 856.1915469094668,380.2357938582969 856.7601506369542,383.2564638427524 862.2035655072962,390.05813173734657 863.8845112201525,389.5695411338969 867.2276507742381,392.34596244787474 867.9128866384876,395.83923245431424 871.539007572235,397.4922533434009 874.2859821306494,401.01093205750726 878.7016445470153,399.46638342974893 881.1239677393553,397.273470912683 880.9549663933191,395.3285582228207 882.8436614375923,389.7464809711794 883.3289404315956,384.07436631062455 886.0627473557183,381.36295866071316 887.9809026439965,380.670356446861 891.369121287547,382.30786384370697 892.8045158048502,381.59104023049974 897.1281936679733,383.81657519217663 902.0726147741018,382.93670120506454 904.8583948800832,380.31559075783025 905.3498777221681,377.3336561594691 905.0588074716284,371.0668204818137 906.127632083,368.96823644799554 916.0611511221095,364.46730923788755 914.8981076626268,360.7323775389806 908.02397220881,357.60892640347083 900.7297683344449,359.4960994424798 895.4940691267183,356.7568161100601 894.9068398560727,354.608404081176 897.7526385721125,352.1755972565164 902.4655470936794,343.39347610110224 900.53328918993,342.48351412703516 901.0037705633979,339.91438948486314 904.8279876979461,337.78383672038046 904.3294753424293,334.43390648255627 900.9899074172998,328.7612122345337 898.7954571783328,323.38229561515243 897.547107270333,316.61333442106275 895.0914078818031,311.1840028544045 893.6568196747521,305.36462305443365 893.8805602278874,297.39722946590643 892.3342291724091,294.9931636617207 892.6654522591031,292.89668176392126 891.5874543313939,289.76231772974177 889.1614025566769,287.3224168519441 887.8788438478853,283.64781619888663 893.3364181693655,280.38465499543463 895.6680613127722,280.4706354097309 898.6483404418467,284.2367144646049 906.2151046582169,284.6594380171956 908.941278383819,285.6632421666475 913.3214654099679,289.55825509569263 913.3950930478845,287.7765323116555 910.0056501559988,285.23160555131653 908.9475573212566,281.46798838236873 914.5445629989655,278.58813949761077 918.9669551416912,277.94053564080764 915.1339939923087,277.03370451455385 906.9480478935748,272.7420044176072 902.9971460126688,272.016050371348 893.7959839056028,275.2563971511023 886.2836966941676,275.25794996403715 880.9297910488491,261.1061453754496 880.5852549857184,258.5196847779134 878.6671825994772,257.9566872446437 877.1602354677362,255.6778229182978 874.9657835110459,254.5227053940131 871.2985620329268,256.3878328496354 869.0492259441379,255.31330530376806 868.421727983016,250.74186852871878 869.3894212772244,248.63408736057386 867.3699718380796,243.62647939642613 863.3732937456258,241.35949162271515 859.9159986703238,236.30076340457083 858.3478912896413,228.45352293509802 855.3298673052292,220.92197175307854 854.3848540429747,215.80564217172764 856.8320024397194,213.12433198848873 857.2071726343347,209.22853872587405 860.4096245477043,207.0206244717417 858.8065980646545,204.94724718000066 859.3569001313181,201.72394189592558 857.4150791617792,197.97378775493246 850.4115740565991,191.85908124763228 842.4998944006395,183.5351333615505 836.883490719494,179.8350221725534 830.7060189681691,177.4063134470248 821.6648532267302,177.86925931214148 816.0799607142756,180.6544889022938 810.858053396661,181.33316959033027 801.6843087907853,178.6839974731463 796.3476140348972,179.1045418662752 786.645905941644,177.82335123802693 772.4742710760788,180.9892171774893 767.295003985296,184.05271021022395 762.7384723070121,183.31861737093607 761.9300419846184,181.38173265685953 753.5112317348792,177.99282604764892 751.1320171177808,175.99589985768614 747.1961681181383,174.21236654138863 746.3943793883357,176.14931173776733 744.3185864526089,174.5002777987388 741.8377414831858,176.2734342203105 741.6873107752599,172.52981982992242 737.7868601460772,172.26625766763868 742.2486979135759,168.9380398444423 741.5789747717603,166.91202294893833 739.0806336956425,167.99458870235435 738.2521400513149,166.40238467087886 736.4981995338395,169.93782467613732 735.1606442831531,167.9028260303661 734.3569853859374,169.91955784648485 732.8746772942436,168.60243606967447 734.0443897255097,166.23561241771415 732.1951018726248,164.67027637859053 730.647814497809,165.53155431844107 731.085108845479,167.9703516056138 728.936553138057,168.50913660299454 726.0447745450532,167.21292950932605 726.3842387216514,164.17660093236714 724.1180510272828,164.73380565756725 724.7921068196716,167.65207083222037 721.9398623227577,169.41758187785683 721.1903381399324,171.34370295150813 718.1560029203824,171.85937047955258 715.0704871299189,179.88888593610227 711.507355418159,179.98052106754483 709.7289673201662,178.53526564899414 707.7867385325435,177.82821441024532 710.2895489147039,171.54607016686464 713.6286192007042,166.7369832150216 714.7234466505565,160.84318372649705 710.5764408553048,158.37245728125095 711.7176642628216,157.50698159936826 711.6262212603843,153.76680081996983 712.6593126188935,153.50773891490473 710.6377675520474,149.62924746483463 710.1756412408727,146.58380445811565 707.8091937603658,142.28590061258535 705.087118931581,141.40604329442147 697.4289857437165,142.31673150560493 695.3458943516839,143.39974714842663 692.4687088031128,148.6642684584731 690.5831513104425,150.95594130306506 688.2071895077953,156.98932209736245 682.6950325313404,158.92176007046828 676.9788764618094,158.2553561947674 668.5891321804554,159.2777854535293 661.8275731091031,156.7969707784365 657.9299857208605,153.78439670700402 652.3490530887134,150.52019076541637 654.4126597237811,146.43114696774114 653.8584663705094,142.84598686742754 648.8787042551614,139.96713650755385 645.9009732978983,139.38991694187337 641.875366839592,142.5421116810353 640.774400034932,144.60986098472392 634.9735089327494,144.36747808533596 631.7730550169526,142.559021043828 625.4193867866292,140.93706680933292 623.6378961306012,137.59334742630517 626.747600944378,128.21180593931786 626.7835572569152,125.69179290076636 630.4611297528285,115.16129596601627 628.2609499810301,108.57678118301828 625.5251263259148,106.80832298542259 619.8198664632669,106.76584419163567 617.2631821898458,103.61412461751831 616.7448093689758,100.41905094102583 617.5869918749428,96.25856022099924 620.5689679042188,94.80658679063208 621.9417856516945,91.14179588682248 625.4132676231559,87.96003491095416 625.9200603220867,85.81650749636003 624.7584726949999,83.80473137298486 623.3061455559405,77.47400165165573 620.2112227162659,76.86216735685332 617.8656974893141,78.10220360375729 616.8773673883644,76.51820939668107 618.530717922694,73.24538315877442 619.6976894178548,68.99453077279475 623.8178214088039,70.089408068578 628.7520112043818,69.48158813412988 630.677230175267,65.47671553851069 624.2321215460953,59.141859307045934 620.9184034197697,59.79843798821287 617.8518490594887,56.310193382240755 618.0104050687911,54.042293795341834 620.4343139975279,51.83612686985089 619.0904326775182,50.08606327818052 618.3558341670771,46.026516028423316 618.6231153905559,42.73235707998742 616.9017582996119,40.037631012858014 613.2622466571818,37.08555909564075 606.6560263886859,36.1345830381714 603.3175097722983,33.50957877552901 601.8739947735032,33.33072391305893 599.3653221109539,35.743280648687346 596.3309324387952,35.08981378193994 591.5168513238724,35.83331486641771 588.2879809125691,34.56954961030431 585.0224982422277,31.993853134301162 584.2350658940054,30.021913473903055 584.5950934948995,25.47203506972528 585.9678087965855,20.136565939027378 584.6714628845267,16.22059353436896 580.7003948559928,12.261436904925745 580.2922187109658,8.455061509020766 577.0839961434737,3.726057214313073 570.688422501085,0.0 563.2106906565273,0.06666320981173612 558.8339781614591,2.885664447457657 559.8311295527103,4.558826460657542 559.6472897287674,7.758375911654639 557.8100722005544,11.437628037323066 544.4051852820013,10.486287557155492 543.314632889287,13.153346009109214 541.0025912369192,14.564206065586518 541.0023042849565,17.467075021237406 539.5118658021037,20.72085377780843 528.9443749788306,19.993712494837496 524.5479900663751,26.136485267599483 521.4259237033797,27.08475265533457 521.682878386068,30.83233283940774 517.8482317506016,31.07830077430333 515.3174927306176,32.47301955798571 513.0614875487413,32.05845561581634 511.73574528244865,34.59029839076595 509.17920615441693,35.903309364953316 509.7987574733834,39.44896735729026 504.04118732649266,38.78083221583677 499.9776024980898,40.65339531339953 497.91229164941745,44.72257641322892 502.1817064046508,47.54792903333191 507.41362146585834,50.04168929809873 510.681090178002,53.88261269170175 511.55383071178676,61.73871977878571 509.0206517742174,63.084531261621805 507.98016594612005,61.757594230955306 503.06586503881823,59.421786527635504 501.4463211964128,57.465497241760545 494.3761571861225,56.93588542750376 490.88320675603217,57.73142842540358 489.7869010404215,59.92716436746991 487.90886592322533,59.41782636859455 482.0197631729561,60.639682319429426 477.3385965384814,60.647591745111754 473.2407209309289,62.56769090728665 467.0435224196572,63.78860232917668 464.33779403965167,61.448459150877625 460.6049741825256,59.880465227324976 458.115591607365,63.646438062473976 455.4309876320659,72.25871251506396 452.8569350175357,74.66995415782412 451.10018717288193,78.93176857647666 450.5544685685304,83.74060571769724 449.5160496047884,86.65679431164187 448.8700991455822,91.84904118594966 445.47711954084957,90.92293204769157 441.67251028599856,91.29061304926654 439.51188211226736,89.77830284787046 438.3755336318049,91.88307557310702 433.72644596617334,88.32303329269166 433.03679504048836,90.570680241491 430.8868773138973,90.39320126801908 431.4645086101859,87.61664380033665 433.322836688883,88.2518925215719 431.71403045008196,84.97343222412565 429.7471364700567,84.7092875674781 427.4696122574997,88.01715143447711 424.92795322736106,89.36619221176113 422.8218782825644,85.85110249684942 420.1484989491604,86.04276955609726 418.211787063296,89.70319555405592 418.83978006549205,92.17836860199941 415.9828328987005,90.45284848690562 417.5623672114564,88.70455358382651 416.1559287674041,86.6946247180964 414.41749554485756,87.98305905177756 414.7824189461667,90.16765545605381 413.4823051168494,92.9148263204197 409.94492702988816,92.68749941651026 408.7653816830526,91.29980472606849 405.3542834631909,91.73299021323248 403.64967960192,89.44068996654426 404.5113519192475,88.59421538950073 400.15166202339145,88.78812998174715 397.65296720593614,87.20183153181756 392.3712157445837,88.77494016582148 390.04993497418883,91.82634536511762 391.2244715714563,94.00420880515139 393.53884984598494,95.42468992079364 395.95978443699164,98.5379276948396 400.1875694602527,101.90342704717875 400.4496952912719,103.53008646368983 405.36006217024527,108.72610152511174 411.82203377626456,118.71350801813662 416.2495415393517,121.2427914795145 417.90976235056274,127.03114129606797 417.77583680220727,132.39774261786602 411.4275589271832,139.75874497660755 413.46035993623923,141.77988822028408 423.9950605362155,142.47521675217263 428.0144960156727,144.5881632002389 427.7412479861605,145.36158705242224 431.86240537984713,151.24866019417107 431.46685151626514,153.60136279500182 429.1814957343776,154.9314634480089 425.039103347183,155.36075576411758 422.405058358592,159.60280844826354 422.9965583880302,161.5256845488915 426.21933484089305,163.45664124493828 428.84259772693866,161.34392786211265 431.9859773839532,156.5868140097225 434.3019556760478,156.86979758175528 435.5961947715295,160.6667489973023 432.45608652586935,164.61340997359764 429.6721257345319,171.51301740814904 429.1235054816702,175.91422935864762 433.1991154911075,182.41603156088888 434.2395790139554,187.69297822878048 434.02304422633335,190.1250067621396 435.47227646141175,192.2141538569715 439.23745848147837,193.67178030726984 442.9166731066018,193.53155841691353 445.1505740452682,194.70558372885432 450.4731284379014,200.17332467498488 457.40983124999104,201.6362078568293 459.4030201120314,203.43305989066516 460.58866960281864,207.15119164215446 464.90152931497227,209.3302952172712 465.9511945676279,210.86002470304027 465.02494748683387,214.3039181503732 460.9266812999571,212.94299915002182 458.3857430973377,214.2123458826079 461.955841455831,221.23438368543884 459.82072184848954,225.51446503685327 459.9039958877993,226.91997676097924 466.6515287770551,233.15754125017668 463.9211051312825,233.5695464843741 460.8069598435074,230.02430680938073 459.3233867223515,230.9949551465105 459.87865293519087,233.12469952481786 463.00875941398107,234.5443652167652 461.6768506641445,236.3535233604896 458.35828324043524,234.84773282649314 457.05075260178523,235.28367000032858 455.090190922313,239.0307684160805 451.40733586825814,240.49686318946533 447.5417114425072,243.46401696418093 446.0157214595193,248.24088958410152 442.9899755943812,248.04293057788652 442.0121591357009,246.15522643559962 439.3219948158989,247.0544922569684 439.9255778489255,251.17276871893853 437.6396490058251,250.76875595306979 434.7568631981812,246.73483964577167 433.0170740703069,246.9958452446681 431.3146761699806,249.33470556728332 426.13982688515,249.76145351786306 423.9835961678802,246.12143165774364 421.92848673862056,245.2434686025282 418.4193330133552,246.88250925712282 415.3231783967499,244.18481751616196 414.31339458077497,245.31867229511772 414.6283154797971,249.89878651914125 409.24703531055303,251.91556203649657 406.8147320861503,258.3798877246769 404.7186459520657,262.0730165578311 401.3146005057483,263.71406344109926 396.95501687635414,267.09206887694836 397.0393677968995,268.6740714830096 401.1743396243998,270.6403458608347 400.2877211469106,275.91708933174357 402.2748928235005,279.41635529189443 401.70956162878593,281.1856774313129 403.4391757150274,290.6246766984334 403.02311553582575,294.63316577059265 399.9844794446329,297.408644642986 397.6627471430859,295.1424640823076 393.44607327729403,294.3658152686693 390.61877617160224,292.3303603019625 388.42232947931535,288.8429500687007 388.52057112263105,287.24401542475675 386.59392125799917,282.89759945094886 382.76904840539225,281.84429316176465 378.1409762579058,276.9849856707842 379.3686863372111,279.25189937596974 376.4938222512007,281.9662584969078 378.39544055527716,286.49670060782194 375.4825642223456,289.894307011607 376.0864224382612,294.3492024335826 373.5442399522659,295.503018142507 373.37920704262365,301.7543779167496 371.97680866791075,301.80716521617956 372.1385039253021,304.1591516385723 370.2337300550594,303.6263932023071 365.2358908420209,305.6706567690827 357.4629156627353,305.4300325956592 354.9122684392913,304.8978539183022 351.07761124923525,302.50114045091914 348.1496295675628,302.7535747878218 342.5069788394046,305.92852600326705 337.4438452048581,305.72976296403544 334.3001493165617,314.2257889300224 332.0319659085615,316.43680547833924 329.0085295672356,316.76623444012534 325.37387037330524,319.8866641778362 322.27682095097725,326.9368819320583 320.5466148777548,328.4387516799053 318.62312151202485,326.97067921749 315.0230483796934,326.1267550011032 311.27347160908965,323.6117474216902 310.41797791140436,319.9889011632712 313.20310616849684,318.5304611051994 315.14584379396666,312.3987943953722 314.7918991457176,309.65066587900856 315.5399982274662,304.4652068336886 313.8735450188382,301.4946602975326 312.710985591356,297.2228205795417 309.31024122124956,295.66976168356666 305.85544161498467,292.0221761519459 303.54105842333803,293.9211312015325 303.04512901897306,291.7113619171522 299.5635976923405,287.2156868235951 299.6093082346818,281.9214217950438 303.03261810043125,281.1906483085925 304.67904109714226,279.09885556255347 307.7181646001162,279.0188755698962 309.00388391087296,276.8142000205721 312.0043839681405,281.5776068388818 314.2823439793042,276.02652958557405 318.9302746628125,273.52586543687073 320.43678044944204,270.58364213271386 324.9441723577425,269.9847977481613 324.10645323164186,266.7074421071619 324.9913962719439,259.9247642281215 326.5001467343154,257.47310246590996 326.6409447394291,253.98234293471114 327.8218166616286,250.94067087802728 332.377706183804,246.13602846444996 334.2533282331679,245.0303969571703 335.31454741171257,241.38542119282408 334.80654900722396,239.53724055107364 337.3121246055105,237.06595547956044 341.6701742515834,236.3699941938395 341.9996908424647,235.03567465724404 336.9998152441448,232.9031006851344 338.2035351006092,227.48287395073658 336.9780408877438,225.98103221786585 333.28766253394093,224.41601311331124 331.9240877582289,218.74826019144405 332.8443290047207,216.47647943148127 331.65296005469924,212.65663029639484 333.7429013374704,207.32864864595365 331.8196978416825,202.54274828362418 328.1731009116275,200.25734976725664 328.23075662125734,196.84343177078267 322.4789829158672,193.81284410043736 319.70903426382586,190.1815326389701 317.5976618063317,192.87126559577825 316.36839525778373,196.62537079872266 317.0424902142282,200.35689479293376 316.0271537736282,203.335564013939 310.37720379085533,204.92110710688974 309.25084399396576,202.94420295719215 304.9593656335966,202.50590131529702 302.01958845611637,205.516185674471 301.7562570405947,207.27771042852726 303.60325265581184,208.2202433117027 303.81864890163257,210.62753736938873 302.7150130694807,215.79191704118603 302.8946812258987,220.22386951791566 301.04959216293713,227.62706490557537 301.06267035682885,230.1216267088074 302.60004427786555,230.87198551493543 298.7077261096946,233.1843534976009 294.93215135578725,233.76882994215623 292.9263043712044,232.91162244685574 283.83475035398425,235.69943259322076 283.09849525267794,238.86381788757933 278.3164428763833,247.309395851928 275.7169146290075,249.92646719767993 272.09672176950943,265.6106810642244 274.44642178467967,269.71423559570894 278.5494985234805,273.3130751418057 285.1881080326488,273.23828748477445 287.2622506963633,276.0780926206277 290.6824974070181,277.4708565004345 292.7624177677019,281.61657490083326 289.66316738269137,285.03991088948374 289.51603255711933,289.4439766574526 287.439368965914,294.4516052813058 285.2323283492876,296.9242844546163 278.2818029845711,299.7368793629845 279.5363958541517,304.3721000892208 276.7660720186623,307.9101303863026 274.02215505347607,310.01890344741525 271.77925354631356,310.39686083355036 272.8801539453125,314.13031868789676 273.1235254128001,317.9188445088379 270.734126336798,319.72281447615296 266.60416804752873,326.92949066836366 264.4206050050108,327.10454201884215 261.3529575931212,322.2215883571089 256.5676184976022,317.5385783251428 254.5922984369836,314.1529506073218 250.11659872938887,310.38907092656245 249.75474604130173,308.9366369335776 244.7912273794523,305.10540848257335 243.0279405208063,305.01622473468194 241.9086218094392,301.98628254977643 240.16492792126658,301.58076611919387 239.2453483852506,298.0367557712344 237.10848500417285,296.8830055162557 235.4306263603621,293.1810168938101 233.12593203138738,291.3475371026243 230.1523001991196,292.3601182785553 223.9007467928186,291.2701204376566 221.69581681395678,290.0106478739194 218.3944055626814,291.01064387286124 214.04745363793404,291.1778306684057 210.02242415799705,295.9816299999321 211.214360185643,296.7890556552884 212.02082072721626,301.6482600620071 210.99926626777403,303.8095313705064 211.1954442756192,309.7428666277443 208.5368376636177,311.03069085256175 206.7948911935895,305.8301796341309 203.1669223591072,303.04784110425214 202.98868495949148,299.802954854963 200.49583050594444,297.14157754007897 198.22111862269898,291.914236626666 196.70389546621814,291.0542298635919 196.71041082862664,286.99037515298676 192.6362947437886,285.10058838775706 189.66567421450608,280.08479055162263 184.9028220739781,279.18020683643385 177.45635815947554,279.5358554905355 172.32307129174853,277.5640096202934 170.93683246857418,281.16873094055063 168.3554044022607,281.0852289051702 168.1460113390782,277.58600266501264 163.382805887873,276.96289543872524 160.58101146851362,279.1777796725621 160.06069625893622,282.93655581792234 157.11240379323033,282.67498746175465 155.87087599104638,283.762704033144 156.5356311317805,286.4732241165616 149.96833815565145,289.28442229480254 148.41579262857252,295.04998808138623 146.78410513779053,296.808187077032 147.81409988188318,299.48270852760584 150.76786390463974,298.91768475358333 151.48857818663203,300.8553577669105 149.88665731429683,302.29854206824905 150.0333242402054,304.49116407534507 152.8183611029162,306.29066545450723 153.21392263524146,309.648022619833 155.50796216770678,309.70170146913597 156.32345445228376,311.56145508046995 154.46483644261963,314.77522625303106 154.7560237163273,316.7697402510963 157.20902620233227,318.4754289581904 158.45022907319404,323.4196251300716 155.88573798251542,325.72969309551866 154.40033036623015,325.2148391367964 152.12577052880033,328.057075788538 153.0498059869925,331.4467997634217 152.62189973625297,335.6468607595881 156.24583539561573,335.8207340253239 158.32189833183523,338.915710163344 161.2927788286218,340.2520576840898 160.51356383913395,344.1133013730979 159.01113097143426,345.0310744335055 158.03575532655412,348.7632735182593 160.79520902054995,355.9498325249948 155.98049547586473,356.0612312100785 147.87305691945872,354.10476970433035 148.29896816809233,359.14950925588516 147.56747811026457,362.1550817517401 148.51743162218898,365.6222091488901 147.1959931429108,369.27280863674287 147.73890151846464,370.6558410324368 145.84115624680558,376.0490956284623 148.84977327038405,377.7177137872684 153.19194783680186,378.4097956441683 157.91694718861675,380.89841487366937 162.4156653312852,385.36756307858525 164.21596588811454,388.416194646077 167.46317505645507,389.87641642189556 168.61268376976201,391.9790000192347 168.15915513534944,396.73193481297346 171.59803121240566,399.77858163440385 169.16044214016247,408.1153493201715 170.22296538014652,411.15013924912466 167.91019254919686,415.2041423578837 168.5136970514666,419.8250102806144 167.14746640024887,427.8476938893092 162.60600674654398,432.9750475433326 159.0772451457602,438.41684627692166 155.81090120150273,440.09748523436224 151.17024942994374,445.05822156722945 144.79189159291602,445.1037246821628 141.98719627374558,447.38598748380343 142.43746252019272,451.3607842772178" /><circle cx="394.59018516145875" cy="663.4364477667746" fill="rgb(100%,100%,100%)" r="16" stroke="grey" stroke-width="8" /></svg>