<?xml version="1.0" encoding="utf-8" ?>
<svg baseProfile="full" height="1024" version="1.1" width="1024" xmlns="http://www.w3.org/2000/svg" xmlns:ev="http://www.w3.org/2001/xml-events" xmlns:xlink="http://www.w3.org/1999/xlink"><defs /><polygon fill="black" points="808.8128507863803,635.1790077029199 819.4357784091138,636.3959473841578 837.730206520407,641.7795302766814 862.2832616532295,651.2240642218233 867.5285239263343,651.1907028445268 871.448703480804,649.6090481217683 873.6981569364374,645.2284674100114 874.0193896841017,621.535712865693 875.4390961698268,608.8803111297636 879.166549160221,602.4239637565603 886.0091147344045,598.3689502776843 894.269442215444,594.5663158319218 896.8464116912828,591.2536800080971 899.1145802362109,579.8934712540968 901.1211800600106,559.2124158976679 902.8058170776897,549.5217003647904 914.1636515532526,514.3927294294799 918.5669047841012,496.3183859930771 926.1516993701745,478.741753623304 934.3335747551982,464.3717065352171 942.2894312831191,451.3911258903521 950.4833817059315,443.1580642487485 963.9000073395366,437.44201311959716 971.5774726519683,432.10055520627134 978.3135811567438,420.3899111691071 987.5728521805366,397.1132991306239 992.1993601828964,390.1011240046477 996.0253514717245,387.3016288539178 998.780066202069,387.5135934007214 1002.0137324326056,390.36228147915216 1005.2586452078931,395.53449217071466 1008.5877315976279,398.00136166253753 1013.7419537173906,400.34719071881847 1017.0032549387826,400.0943059585737 1016.384040010898,394.29420618265067 1016.1138459165845,389.22543340568257 1018.2884835218975,371.0239006292703 1023.4083976451022,341.84470955011085 1023.8455018217855,337.5981896473426 1024.0,332.06245684250564 1021.717513776795,325.6595505861385 1020.1520940643362,322.0517272240087 1019.5281110196114,308.5601236003713 1018.3947056288667,301.60253994116863 1017.0447667986701,299.470857947235 1018.5638525663138,288.18364732410544 1005.0660390156845,284.5927179004918 1000.1996349177077,284.93191139243123 995.058954215746,286.5075872234821 987.8808345952627,288.8622837008951 982.742617299118,291.4494115227651 977.8630992310935,292.1486772533072 967.3559055598315,291.37798706290107 967.6688495855526,284.25842833552855 967.0656400023264,272.42942518099056 967.9404975121695,264.6748715976588 967.180342992242,261.73672833557333 965.9863344455388,247.8712621164796 964.4407602216505,241.69749828399057 962.2375248660501,237.66327880363906 958.9662873796484,229.5222151883737 956.5205618606396,219.89707124777715 955.2672522533867,213.96749286122815 953.6983288360407,202.14148129767972 953.9205965425309,190.95942404940575 953.0534793069023,179.03851804549282 954.4025571349747,173.86680350065086 944.6692090276001,171.9870878989529 936.821610412588,171.8834418491594 928.3210617223474,170.45613355783757 926.14944500118,169.4269147439798 925.1231202915111,166.7609318611028 924.1436308429467,159.15622070623766 921.9398250299943,154.88888162324838 918.8819166957478,153.12299322299447 914.9553353304912,153.37591795520456 910.6013053349145,154.09550283264542 904.5879633193517,157.18571723236983 898.7167927946164,158.83660797718557 889.8149534901117,160.3405567507084 876.2142998009166,161.2991003975855 870.2902149143451,160.54362364753797 855.3899118892514,157.2726232234765 841.4577343352737,155.82586180982474 826.9492856255231,155.80856836545553 822.0425816614384,155.4454206625594 817.1873170097285,152.79733806902271 803.1947368692751,138.06058956439188 799.4224495924161,129.31601708273797 798.8943136528153,127.30112749056866 796.8093126492679,120.73622317326067 794.578789821698,118.15641219697238 790.800199851605,116.5032230325213 783.3485597280866,113.0580927437262 764.5052285548868,111.01064525846937 760.39739017606,110.81445079908724 758.678275894809,108.97750173653776 752.8110785897666,109.11816564634262 752.9048712343819,113.67002977090658 743.3836185654642,114.18707665195427 742.4387960782476,114.12263312420941 742.4967367443818,112.80238785421977 737.3583998792261,112.67720452783988 737.3804164622328,114.05709531125422 737.0348036485295,114.2190695391572 724.5061382659848,113.79856282411413 724.5804254802058,111.23779189737684 720.6769253447073,111.3774457353536 720.564889285256,114.16981028027806 720.32913411817,114.42937763973373 715.264825476363,115.92464959589074 715.0484542835535,116.29268913349097 714.9943700196928,126.98461728950747 711.6591680742501,127.43743290551186 711.6070040063797,129.62115633153712 708.6390050118706,129.75075091290125 708.6163749805908,126.65096306390683 706.7544769860026,126.63057330715628 706.7873920155042,130.44221466490512 705.7069848135745,130.38720459233252 705.6828300327337,133.35074346422948 701.7955665760337,133.98637172391648 701.79614474574,131.83486630763457 698.0646066599618,133.5102672820235 697.2316712503676,140.2508586488808 685.3650823700557,142.78868430904282 679.2051941349099,144.04575824132763 679.0045270383936,145.99922233782013 677.6333257489678,150.30952779760707 675.6573483178958,153.13186238519648 673.3806451758805,157.85751872737296 672.0084134289098,157.9490065156619 670.9360582726878,157.61420890570497 670.69518289767,155.7287971907669 670.1409387833725,154.53905513460825 669.434258668573,154.4206336616519 667.8380215380957,154.84953970081057 666.1699639029226,154.93910785775017 665.1781639315736,153.96926930371973 664.9013344185523,151.7725444495714 660.4554168892236,149.04261036079276 658.7808974019101,147.90778653981164 657.413526889014,147.8340991639614 656.7388416687447,149.03179193250406 657.8054537179224,150.23654154068174 658.4321333030649,151.74205704078975 658.0814068133965,154.19698456926278 656.8444878911779,156.02236305049678 654.5112275158931,156.598272630181 653.5583952801567,153.33296682937402 652.9484786865473,153.08581255602604 648.1875338628552,154.38316920373194 646.8312945286012,154.31313286130893 646.3836910274891,153.04552035586414 648.6009005432385,149.01974313453547 648.6562229163711,148.1883920836733 647.8589275073001,147.3152309544085 646.1121491276706,147.2067809446661 645.2724557323156,148.84139993391796 644.957013422272,152.87898741859755 643.858909814143,153.52131361072418 642.5024763331123,153.45799565947254 641.1482383117997,152.6460729283595 639.6004568480845,151.32262099432245 638.5937998232208,150.95927142513136 636.9219365783741,151.0822830273878 635.5192436224212,151.92474109745496 633.8141530889952,154.238797503905 632.7557781860429,154.58210865791466 631.0119164217506,154.3724863106164 629.7262651419777,152.95212030010202 629.0272142521394,150.84412543731082 627.7355609651659,149.62928650073354 626.1732538662935,149.85999301894162 625.7648717440088,151.19696115897932 627.2003565654363,153.46483474083925 627.1827646357148,154.064600558361 626.3086757950729,154.75390367411973 624.9112761022482,155.02991189125174 622.6248280068437,155.0639925493889 621.3220364966862,156.34098366850884 619.7884547955646,157.41559720253838 617.8956739964469,157.67028618394926 617.2856387390657,158.19532682023532 617.1953183376672,159.8316511933357 618.0079943701213,161.61926721555977 622.6400160247924,164.3418380277352 623.2401501196928,164.9226335711183 623.037192331961,166.268999639483 621.0262491821574,166.4190757335798 619.7822648053553,165.3067763273076 618.1660056804506,164.5882265872409 617.6547142544765,164.91719778551612 617.5940623442932,165.92713042491187 619.3838065957389,170.1445562499879 619.4167755085346,171.1336298605895 618.3209562005037,171.98165304119715 616.3886587728234,172.23518111943542 615.4040697260639,172.07811911119308 613.55326050996,170.70853385096865 602.0189758665427,170.2042640663795 598.1975592576196,171.3497459264678 596.2712249083991,171.49540056605838 592.0868542137767,169.9389442050026 583.6433049937156,165.16103209604995 579.6514168501233,165.49186587211216 579.071634323466,165.9435333574295 577.6049083532539,167.89674546355036 575.6328274354174,167.77786405698572 574.640005670792,165.7993081915469 571.1306864653321,163.33840494901426 569.1181000251229,162.87429236830042 567.9649738250869,163.55856869176648 567.4476549525737,164.75736698547433 567.4129253338157,165.93332063082414 561.8705678825897,166.46768009052857 552.2788377596942,167.17556775727957 538.9024605279407,169.10652395280675 537.4470021956474,165.81908219317143 531.8142877827004,165.59476338572637 531.4353035237283,166.87518145735396 530.8874077899894,167.2939814054916 529.3927433667889,167.4216446868187 528.3779503655296,167.99858654345087 526.990060786335,170.3215161639066 524.1401094558864,171.3869581794799 522.8725264171305,171.07953486256713 522.45018197641,170.02152783317325 522.5501477924402,165.60991512853786 521.4327979465093,163.7555998170145 522.7125395033737,158.43134517060292 522.015379223212,157.32807824872742 520.3902499443436,156.91559156881613 519.1846279401437,157.65545716769537 518.1157513989526,157.5866103443616 516.4264501971486,156.29871946442074 514.0740230447294,157.8847102695699 513.1392140223828,158.80459817573745 511.9504019870478,159.07278640647183 511.03303624412376,158.74199043098798 510.35393356921355,155.99007636744165 511.03577531326493,152.77274994390956 511.4409601241716,149.4763751288105 510.9163318034725,148.44902697066163 508.9543883186867,147.99273017172993 507.80165335641044,148.65992608120803 506.84073312991467,149.8892870680852 506.53678693105655,151.3911274107578 506.95650206322773,154.23988785889355 506.944281455755,156.7351764918967 505.8100618811102,156.8734355893626 496.8284388035793,156.01929369443155 497.11930076582746,150.41609135765697 497.9223448016994,150.04204828576542 502.058840040873,151.10275047176157 503.7209185465603,150.27198941929038 504.23869309518005,149.06654902172153 503.50744462451814,148.07013423248168 499.9477155692898,147.3267741066586 498.2280040782034,146.4020896629179 496.51967662676657,143.96010053339137 495.36176390153827,140.35411359713004 494.83995426522387,139.89676865620726 487.1255175437984,141.17098952941137 486.11043753423576,147.23825194006804 485.3291100658459,147.92318349660394 478.29078589876747,142.0203623964552 473.6624278302113,137.43042270848753 473.76930013349727,133.8519727955669 475.82025586209033,131.32310684580443 475.5526069164859,129.99982306645813 473.93401599667516,129.37478046774345 471.6686419999173,129.74217059185128 469.8807654365463,130.72749826764402 468.43853627310716,130.4247139111767 468.0994480620785,128.66422569262318 468.2685631745597,126.7772785446457 469.6973780434261,125.17080122442678 474.0832925019517,123.3390100630628 480.2423389468034,123.182278883854 480.78923785001683,122.4195453792396 481.6673533396251,118.86748912386031 482.068948247806,118.1577508272693 483.6563129788606,117.74982520762421 484.78417648960004,118.85931406023656 485.74361964601377,119.19146361639616 487.125364408428,119.06405064558601 486.98857418709906,116.09214214094345 486.67706368403964,115.10481606648182 485.01671209036584,114.1818000306065 482.58989698077437,114.10938873496218 481.70507653880594,114.4876871130241 480.6716349324948,115.9744851768171 479.18109406131543,117.00920474584075 476.4583247663041,117.50461436607554 473.73599636732837,116.38118975888108 473.3367436025541,115.59694949290986 473.8741088943106,114.49331611733555 474.41873763592145,112.4860562714116 474.73009894443845,110.2694753224988 473.87704330590043,107.88658109231642 473.30043930745666,107.19147236023503 472.68087482412693,107.27413781388464 471.10687238644016,111.00773548034238 469.8670412914002,112.89303843826565 469.05659738739354,113.51634635411654 467.42995383715856,113.16419309622756 464.5286460016729,105.59036288937864 465.58276845896063,105.4869844771257 470.2056329005614,103.35545910616554 471.14064099601205,102.33453943587824 471.13288377515556,100.51987378184072 470.2312072238149,98.6346469354462 465.38492461523174,93.164477409499 462.60437093401987,91.8300804856899 461.65154399579524,95.51813927190403 460.42666941957236,95.20830991727257 460.0008907731996,90.51107162979076 457.46767433026827,88.53986175455304 456.5534928457841,85.38274468248835 453.5344044858124,85.52504084633802 452.4826436215788,84.893217974354 451.8851670893905,83.86354600474988 450.76959176699893,84.70362159019817 449.6077282627023,90.56745124607176 440.971298457839,102.32170396497736 436.73591849463276,101.86076979244399 436.5715795553529,99.73110556303243 438.8391529359493,96.56144928857327 438.99532668323405,95.11254760756549 438.6460820207579,92.38376167476326 440.6606332426287,91.72920372443309 442.54048464508696,92.18354730504825 443.22903806670763,91.86693574609524 443.12511829440865,90.91612271685824 438.30010654298457,81.56422025026791 437.8972219052193,79.96701151901084 442.3022646997138,79.92716028501229 443.8839613868482,79.61035522000066 444.8895641862109,78.02166649015498 444.6779558830945,76.5280101953191 444.1612954672016,75.90545151504011 441.63647055457267,75.72855006014481 435.3246130769945,75.8426843096911 433.8476227372414,75.39363253061435 432.99372754054843,71.92794079420798 431.2777614293964,67.0535854945955 430.3460977939222,66.17907761767844 426.56451535882167,64.04189462694285 426.73010458604443,67.71964372518107 423.32575483577335,67.65442144152371 423.22942407704215,70.85888129681473 420.91531029123865,70.89048574471394 420.10592466441824,65.29458290075536 414.7735497586495,65.72775126688362 414.0058148049388,65.58660573783152 413.777238770499,64.28801122305015 412.2455305024624,63.88103797455449 411.0169703565916,64.07339289146967 410.4341324543708,64.99680926452595 408.36128673035,63.75397333309377 408.46259020029186,62.07408078808555 404.43919248701064,62.07767610325732 404.24172547496454,63.862596595534114 401.2856222701145,63.97587589730108 401.2447246992866,60.93926726133475 402.7699318754313,60.81322865982679 402.8354348684142,57.61119566505283 402.68416945713557,56.83430269341625 397.04669962181373,57.20397704240975 396.8261968278284,53.58522319172994 395.19496539079637,53.39774554968392 394.9158611138489,56.85978208374706 388.11285633721707,57.666297602629356 385.2744690982292,62.37315060297681 383.6066277290348,70.95342073491634 374.5667225844467,70.43409200404358 372.7118638143937,66.82996576192772 371.6042660859301,65.3495971373784 367.84606038369157,64.68617532064297 365.28539712612036,65.04376963356663 364.04860265108493,65.78542780104851 366.4399460748516,74.09724828360402 361.0544509874684,77.29682188795982 360.9614914749552,77.66837549476077 362.71599447926303,80.95588520166802 362.6026575365351,81.25599613277234 359.44230071975966,82.33739294646352 357.93294300335316,80.16689849142301 355.36233265541705,81.49882553432144 351.267192099084,82.18419606390466 343.5625338562588,83.79884359550636 340.3321176823662,88.20677693169773 340.8420670383389,94.0603976160852 327.97737855962106,94.19598018250485 313.65891791846775,98.76574986216417 309.45100121458864,102.40165130121909 304.5491745123607,103.92864026199129 297.7328392041387,90.88425380521915 295.0809553609388,86.73585160824257 293.6474615392288,83.75445844714397 293.24184192598705,81.5329283520914 293.88528291689744,66.53702815077668 293.3830392314694,63.78976772020985 292.05829314708217,61.68184118686145 279.62357872118145,50.735196855838126 276.01578668293104,46.634905670790204 274.4818100843953,43.63680861206694 273.9769993210541,40.88941046945217 273.93080075575017,36.68887403797214 273.1150758540226,27.068328502047734 272.28102954420336,24.03427863128934 268.61426765526033,19.851094660305876 265.50071845870536,17.017052292497397 254.84848814255236,10.784853160496368 249.47479360809584,7.250585968522387 244.52401524403908,4.626362462047382 237.7530363943143,0.0 234.96042596143513,16.255599571252333 226.0923896313773,15.230818741485677 226.07331335609408,20.52223231997084 212.76709131366687,20.34876162678904 207.56892946227774,28.128328582716335 204.16173054004727,30.171823184873233 199.0327984339331,37.703815029673706 187.35174860826942,85.79140634661394 173.21662289741897,107.31565271298211 151.21605951733733,112.83421339752283 141.3661119128313,107.29744850481484 104.47827600012407,102.05270694484545 98.9910654366051,90.57550563703876 89.93142601639548,85.13903268124193 77.4016933307957,87.23369193576673 77.21851782487315,95.44124273434545 66.28342451638079,96.6307299922654 65.91115901812222,100.9635342611972 61.59442399232431,100.75763632317887 61.02905094058637,106.03559046080125 56.562846617343375,106.28030642841975 57.57718884007212,112.04958494610446 51.455182551272806,113.95589240144011 50.51979783411414,113.58591221224196 50.15566134386083,106.497874025123 48.838159926449876,106.81075824902462 49.04050833220975,114.20405101077108 29.572990960115384,114.67951626172032 29.039546535895333,114.97308640425376 30.315173881479314,122.81839775521087 27.7175167144394,122.9661982529417 27.28669205524342,123.22251278583815 27.377725717850463,132.17072534985164 18.101556709952305,131.54871854529813 16.987667352443616,147.34688887206306 12.651866591878719,147.09588391547106 10.855855898328475,150.8745829806382 0.0,149.46366124732396 0.020032077721327136,160.9125468562719 8.157217395065707,161.39126933612891 7.652149598054686,169.91937951869602 17.391207045431987,170.56288708059105 17.698332847737678,172.89995074909262 11.832008590782543,172.81000715243084 11.809290390363259,177.47761943587307 19.886381484588313,179.8834648191941 21.902852279945325,191.79633841123882 29.38164013398807,194.23705140867912 29.203717603060372,208.7153139773588 26.993733596920304,208.97316452008704 25.60167763635043,215.958907522836 25.282553003891707,215.97587775596094 26.36458130210583,223.45413464835667 25.128746828881923,273.63989465199654 27.988304823455053,301.70544306836706 44.2221329422918,340.09594979081504 69.429992873471,367.3980294122489 91.95997099822777,384.532480114949 103.40191842464027,390.3386495308299 103.33623402609916,390.7278684321445 100.99122594526102,390.66178930874975 100.68581200335252,391.8665547312218 105.27821045920429,392.59941841513 105.92564125093324,394.91647116993266 110.83800902324653,395.9762264518884 110.31019086587789,401.7140324917101 113.77530862994283,402.23300623412445 114.75084318657198,410.9855805729268 112.31523748253508,418.47547505531395 109.16465440995964,418.0876859280694 108.86977663346545,419.95387382463724 114.12322139449338,420.58225947913314 114.06251474181025,422.90430494065686 111.5337358304804,422.7516896418832 110.94857899560418,433.97879613603095 114.44426359812336,434.1613804135577 111.57418734264145,454.29629433238745 106.56891057059363,453.9252174413349 105.20264117764636,460.76692918713775 109.12504591621972,460.8481029126547 106.8130315501234,474.2578810691803 107.98878868705847,474.56079803448347 107.94281040176024,476.4077193114629 116.36386683771165,477.6569533118758 116.51308242356625,478.8522039189777 120.63704300512231,479.7219497967841 120.5718646417088,482.829727080364 128.1003209549696,495.9740561817176 135.00880288120894,493.8637511097003 139.53898084951598,493.6495794432974 147.53435422973465,497.3704886894506 153.18616705202714,501.2313762452252 164.6314063104887,516.0974032991313 170.2410028301992,527.3093322410035 175.4776817503142,538.7322402619068 179.9198011490201,547.0950695064594 184.61838228174116,552.4470311420134 189.38668144603872,555.6255922989533 193.36219337661643,555.7611011786917 196.48480701547885,553.7050714732982 200.158755828901,545.8175285043341 203.9403557556737,534.044449151994 204.61261233202111,523.8995196799823 206.2413909492147,517.9020685902531 209.96367188346258,514.1273459935906 216.00472939686287,511.30052169197995 221.24556861812644,510.8268874912736 225.5475322572738,511.61620582742523 232.40292178162375,517.6842902377501 236.455754809379,520.6277453867041 245.26220076608058,521.7769304643984 259.7729123793142,519.0086053749108 271.8791830630827,515.3974552154157 283.8558226162886,512.9758243128892 294.6625956136398,513.7593536539562 304.40916277820537,519.2624147394808 335.89912783121656,552.0630716119098 344.85379586466007,554.5053110294359 358.0593455376252,559.4631279901014 375.59299591344694,564.1963117581038 396.70037375399653,568.3576854475947 403.762269362158,573.7124688123798 406.65933096383344,582.7162236772594 407.6595119658872,594.3712830917644 407.4249777836289,602.2053891417187 408.41322709907575,607.0981544147287 411.31382778707257,608.2675392112805 415.5976613086141,608.3956856426317 425.17357851982774,605.7039883233392 435.53068716532323,599.5279110093812 439.55695491289293,593.4291566880789 439.07857694797644,586.6631533819346 436.540872940021,580.9047743854148 429.86954941668455,577.191446360947 420.03716236580095,573.3901854570626 416.76093054849775,569.5048542526762 416.5040140746063,563.2816064517158 418.50256574035205,556.8526592145702 424.9776559045835,551.9099396219146 431.51704549007076,544.8072379051648 437.96740489789994,540.6763099144187 446.58470421858215,539.5776888892633 452.53614042280617,544.884675624509 459.3356264815177,551.5725082902767 468.53223340413183,561.8388210126601 477.194487723613,567.2190766423112 482.35404532718513,568.7212985097946 492.9706533277862,569.0262083301103 505.353116582592,571.2648398702055 522.89067642937,571.3485878599834 527.7852795790835,574.184363729688 532.3479387175802,580.5242827608688 535.7034399684483,589.8096871899261 536.4991779917527,600.9148160764693 535.2676726842626,612.2366772483928 535.2491479941216,620.6164988371609 536.4187137514292,624.6034185700119 539.5062137207298,627.206864488285 545.6128258961867,627.4576197726506 547.7539078260927,624.3405369681984 552.9118692900707,618.2670092818346 561.0692900348595,607.2264717970963 566.284039683316,599.2018376284434 568.6508935145581,594.4388236726968 571.0524993399579,587.0497592060956 573.7616896869861,581.4840408944481 575.5430221311339,579.4488794650268 578.1082744630925,577.723375654455 580.4381856736039,577.3803479694229 583.6249120675998,577.6526026180591 585.5913824372093,578.0576454334883 587.8541585142216,579.2335110348076 591.4352304800525,581.5541275569271 593.7727650265853,583.7438306747013 596.5711050838653,587.3532680818889 596.8083932369034,588.4056379477497 601.1276149920574,604.9485447638875 602.330600026624,609.2665892469246 604.6682253654833,612.5251964387561 606.902396626737,613.6292244179858 609.0457997030733,614.362998698906 611.1489396177711,614.3503013177547 612.3137841519581,613.9931669875473 614.1400010276282,612.5425004260637 617.4059922962502,608.3753555336231 620.7201771754616,606.0339981009596 622.9879897443566,605.9855632645028 628.9103269085646,607.598383223815 635.2558215136995,611.5435375124874 636.877478774893,612.8452945313121 638.6365944736741,612.6267817221909 642.604415965746,619.7195956312698 644.4021732239307,626.317507188602 646.774023728496,630.8446821632239 649.9654797378796,634.1749226829473 654.0237986645715,635.3619766962573 657.9088445206934,634.6453621317405 664.1281000199177,631.6966447309518 671.9085432031661,629.9970058890792 678.1503473791777,630.1544834058673 684.3607049818928,631.3967690611473 692.3187344763127,635.2557687768175 704.35516217413,639.6202603829826 718.839149046064,641.3436331478608 733.711705582334,642.123146211227 747.6695847074217,640.6499786483915 761.295946184291,636.657776038188 772.6490735929723,632.886424398442 779.6166795434673,631.8418371421548 808.8128507863803,635.1790077029199" /><circle cx="730.297320865762" cy="602.6277523070847" fill="rgb(100%,100%,100%)" r="16" stroke="grey" stroke-width="8" /></svg>