<?xml version="1.0" encoding="utf-8" ?>
<svg baseProfile="full" height="1024" version="1.1" width="1024" xmlns="http://www.w3.org/2000/svg" xmlns:ev="http://www.w3.org/2001/xml-events" xmlns:xlink="http://www.w3.org/1999/xlink"><defs /><polygon fill="black" points="449.9380071525376,967.1969321868784 456.2593136816602,971.373299649506 457.33059649240073,976.4246326971411 459.6688684354028,989.7736961117591 456.9649976492943,1003.3106579272734 456.61733291680747,1005.6630528422525 457.06217753717516,1011.886935426147 458.1036674892605,1017.8235555496963 461.5374626514586,1022.3305807071257 469.8028580078772,1024.0 480.61405832561655,1018.3443350145233 481.85183657606893,1016.0015943203442 488.12440614017044,1013.7891983780215 495.2495680543065,1013.0750081564503 504.9729308376067,1015.09023423794 528.2454295246912,1019.2195443397375 536.5331110265793,1019.1393608949343 544.4115276667475,1011.9523355945043 552.0178366439553,990.8693249547083 556.3528584423558,982.4129288158738 570.1955474661263,972.1371838477193 573.8966938935895,966.0229996859026 574.6325075752051,947.71503346389 576.6933334527142,935.6604284622115 576.0458554943564,925.8881045006517 577.2010565517847,914.6864522576946 581.7125662386866,908.2763381684312 591.7696294870301,903.1094280501068 594.5612665218613,901.494557026861 596.1727453045102,897.0683475845146 597.3464651275,895.2909467698579 599.9322242085696,895.1547895805767 604.9972467150513,891.8521062377549 607.4089272152846,889.8991260567732 607.8557214153176,887.9991686376346 610.2002504646781,882.7520495349922 610.040440634163,879.4375017910818 606.8738640921376,878.703508939856 605.9363245780805,878.067903575189 606.1495550479405,875.3691862104954 605.7541283777604,869.755469302889 603.8642836408347,868.742906821062 598.9032530924305,867.8569032067446 596.3535363596899,865.7359581308731 595.4747890426003,862.5459199165632 594.3021884857221,859.8491230548225 592.0424799967067,853.3770499494323 592.3609487448297,848.5331107493625 590.7452257429019,844.3184661327195 590.4257748755035,842.3796925401173 591.3943214768035,837.525863115919 589.3660814000734,830.9723577437419 588.83347986461,826.6738730463275 588.6571213975392,822.0274715603127 588.7728915753472,815.6151839928939 589.7139688127089,813.973246318431 593.7663690576247,813.1570501866839 596.7731220355487,811.3063325980058 597.3905552626036,804.8122613524863 598.6398863257584,801.4043416949844 600.9879468894642,799.349861449009 604.4443068376396,797.9500239491944 609.2302607093172,796.9071800552176 612.0976759163975,794.769413263893 614.3055928877644,791.7498365189628 615.39757880381,787.7693840426247 616.3939773383245,781.9000324302109 608.9156956224404,777.6248374923325 596.9348291681949,771.6004281850439 595.3180638950104,771.2539494646874 591.3277165057256,766.0195392525457 589.6987975151237,762.6992046987607 587.3271624975515,759.0928873442072 588.5240172801987,756.8959879355473 588.899346409878,754.3012745027522 587.6043262352714,752.3547799626122 579.8541000410279,751.0524051315087 577.9106982557345,749.1169604088312 577.6667817337947,739.9294414407041 578.3840673171891,737.7846970490543 580.5307992115601,735.6393936778134 584.340596833086,733.7376598805065 588.3280438447454,732.3374525131753 588.3186799385138,731.4765870139281 586.3015217491211,714.5422315416063 588.4227770601265,705.0967378178473 591.4121762857437,697.137585098083 594.4128901927683,687.4064010673321 600.6738884436912,676.5124033673394 603.3887876156269,666.7711329945234 610.2541845278602,652.6381980488773 622.1379675140988,640.8868240141825 630.7552209851372,632.0802441662777 643.2190055111054,622.111133864944 658.9827428076231,605.352223348905 664.9342929219038,598.5893992549813 666.5155983556822,580.5668993196662 666.5385019757683,575.835147806324 671.8957926501531,569.6586341533398 676.3824779679437,561.1080822712397 678.8090608128425,549.8873042243766 684.4724475816267,542.8205330400469 693.3982220234445,534.5798294468898 694.3341275165576,523.6513064152049 687.5692024141944,515.625906435399 680.7654555652201,515.0048265682329 671.5866604757524,516.7325759808652 667.4443209398964,514.6414614566942 663.6340923396659,508.402118497797 663.368013867134,502.49468070093144 663.4226808481014,490.1369560169413 665.3187081971327,488.4644277981606 668.9134739785645,486.748823972983 673.2650414018962,485.3173874218095 675.9884058335323,484.1244428626952 680.4577702315969,480.1137255058825 686.9766818706034,473.64093710140355 688.2236106513693,471.92951761275924 686.3487873760405,468.70837453672516 683.3815934703931,467.16869962552835 677.8375708107121,466.10364907291626 674.7322174652055,465.0968360929944 672.0065284776986,464.8870967667565 668.9057137035325,465.6508735154773 667.5695741719819,465.42816245458584 670.9841529189966,459.07500804167637 679.0486468021896,445.815297774325 696.002337717762,432.58872212412666 714.7198695375189,422.91979597899604 721.555506800712,418.50379421275875 732.5431870957386,414.71380999942176 749.1319788675182,420.08905410231796 754.7764797826454,418.6316506295002 760.1577145488347,410.0750210703154 759.8994022695455,402.08289223447287 757.8646043583726,393.514717572521 760.2816929870344,385.24063909421875 765.6483476520131,380.8185412176174 767.7500535739213,375.7996255902956 767.2059536952033,367.82234614097547 763.3819236230081,359.5250601001012 753.6180555864022,354.1787898373111 746.8092791350413,352.0768790912622 744.4737050519683,345.86291765569615 745.9201504216696,344.6331068954679 746.6160166653323,342.1040285562008 750.2894185160825,339.3336334406789 753.1812167209043,336.0335558877214 753.1832436490841,324.2727405856655 747.4428706647043,307.1053190278433 748.4010270898552,301.3661055516395 754.1442618715087,297.53797096750077 764.4920211268861,294.07657331424844 768.9602652948504,283.39064542353674 769.6764658578866,279.9129503909586 767.0114076228011,277.94684962245026 762.6817529405495,272.8242367303194 762.0523314250275,267.9497671781753 759.8880905997614,265.55248436708473 753.6669167309587,266.04768609475104 750.316003250137,267.0067776767596 748.3998221673008,265.0990475154276 748.8829436787568,260.8048271213594 748.879686379414,256.5104803015007 749.8396140115101,254.5971474238304 752.7050935990961,253.63923532754598 760.3649205653198,252.6695209107295 761.6278835545352,252.3395305344569 763.2583131998985,250.75132248931038 770.0513276610938,248.26088547501035 770.6946533536047,246.55154826705586 771.6225642593158,241.82628974738543 768.7919591768892,237.9393050024811 766.0825438691838,233.3776323100643 765.2597643666327,231.10059742506053 764.2945375990925,230.2845406763504 762.352267009846,230.4733969735321 754.3144416820678,224.55539246633293 743.4176038278912,218.84708244722447 733.3549459220462,219.77004850920264 727.6918606340789,217.1461010631266 726.4771640850671,211.82367182243513 733.6658765760055,200.96521323492345 734.9080918471669,188.25938137198057 735.874683453938,173.18626073793826 733.8349170820763,167.27508573000978 730.9007606741462,161.04935030690058 724.4143955564529,154.5265727601377 717.9352739476213,144.150523754368 719.4685177974599,133.8094382826663 725.4427541384002,125.56376254356826 726.3636597170515,123.68151475058505 728.1676498860231,124.38265489803587 731.8186804274407,124.6703125189049 732.5022760275617,123.76018652555024 734.4200590830486,117.07542752069935 740.1585204005074,107.52219815053195 739.5318465172882,106.25734872851376 735.72333733775,107.89031215540263 735.0265567790473,106.09411382458006 732.135948034205,105.14074584530897 729.6739330126607,102.6137432927394 728.5102607275484,102.44266102998074 727.6190974707762,99.86185652754898 724.5992447191315,96.41589779898311 721.0063585401108,94.13709853891112 715.2861733816081,91.53472774526142 709.7302752813969,89.75026881499343 708.4193609438944,88.93589953785522 708.9090303299258,87.46390991533133 710.5448111798624,85.67415429835319 710.7091784857972,83.3753767854962 709.4280862753442,81.74505010018413 707.9886803632797,81.97206472685536 705.8049926164729,83.66129599750343 704.0191833687015,84.10521166221884 703.669469247077,82.74697481036094 702.3294248784402,82.47440540355456 698.887953346888,79.13179196055046 697.6421753651789,79.80872554452503 696.4979731190415,81.60891101416303 696.4962902259417,84.18144665971965 692.344589103421,87.5501015682247 687.5642233514067,88.5095298707364 685.020456310244,87.23801361595918 675.0288484942154,77.15797736716945 678.874937491594,75.10817580068283 682.7326009016928,74.82518129815992 685.4195135813135,70.70558300135372 680.7019271762571,68.3148550762337 676.2794472766748,62.67782468756093 668.3519308157827,51.992346486689485 662.4776789211535,43.683458080823584 659.2339168182478,38.35003716124368 652.4691756287542,30.92007201512888 648.4960602620055,21.41426821481332 645.592590596936,20.571287554027208 641.890788618315,20.455448569823716 638.8760681476432,18.00003149784891 636.7750033468723,18.05507076753281 634.6696812286125,20.44712278676093 632.9607308104839,19.75633015302799 631.314839277612,16.247074967845606 630.700566612251,12.543065855723626 624.9806604491295,7.296643044160419 622.8356340332423,8.238249139124264 622.3542542188418,10.86303496601056 619.9710198349479,12.529512532177705 614.7314567019644,13.477152714831277 612.5854928206162,14.66441672165422 609.8750875468568,19.302716806826197 605.1542838358212,22.331464752748502 602.8744249104253,21.50734940436314 598.5830053951403,18.870284421435713 595.4816683102493,14.09771431730519 592.3853409519538,6.936566095439957 589.0529907449969,1.9196752090347218 585.4799712649913,0.005785028017839977 583.0942672189111,0.0 581.1938873694024,0.7064822326221929 579.64415947819,4.453450270809071 576.2387805633751,7.5503582444712265 576.1895145161913,10.959448257209829 574.9948692025217,15.963213495014998 574.0400619386909,21.445388626185945 575.0539303472278,25.548034810435638 566.3996518776479,43.01456111156665 556.8962796967568,52.99049427786747 548.2533365274638,69.1831762759557 549.3477200953007,83.97743941684178 546.9600578880912,90.75047264936211 538.6607794620446,92.46457426613904 526.4933955306055,91.86434936717751 523.2730667434165,90.07094763726718 518.9736325538112,88.1652359424395 516.1153784080615,86.24780793069351 515.3967028501968,83.14446286050497 515.1616098944318,78.85544496325622 513.7255682187154,75.27272261836288 510.86699974096024,72.65126359221188 507.5239790801943,71.44961532038303 505.8546039270089,73.35950159104686 502.5100919563066,78.84575578780527 500.6000301793271,77.88728649092923 497.01609799204334,74.78614606261203 493.2026365387266,72.16511041771582 491.77138720798905,72.6462062348678 485.4457155982421,88.82583873592534 489.45908295144017,89.7623679779748 491.43842203418757,91.11857218562113 492.769840440413,89.6672374392598 494.6339486026594,89.97209458676355 495.75113572556813,90.91066430828505 496.7041487171447,89.48017958642083 498.7703191961972,91.27634100237037 501.07121072263425,90.10985052624767 501.95089767265335,91.90692784164742 501.6912375765209,94.28660967791984 502.4388581554768,95.9306506410253 500.3145383782414,97.46378311214823 501.06387324360645,99.78087467899957 503.1215163586832,100.92324160093006 505.5627275505104,101.21719608523915 505.9712806004706,102.3403113392593 504.68621899843504,103.34259252678032 504.8653416095875,105.25219393943598 500.8969820102296,102.81422011380369 491.7003822939073,100.93223563186189 478.1671509008795,98.44008490052488 474.7700428443574,97.13481824303904 470.6107642682856,94.58423442401079 463.42354942736057,92.35186756692701 458.31842590865756,91.58898642509166 454.7594941619525,90.65142094140208 450.6080889926578,88.84669642729682 448.8814859273299,85.2429344556516 446.57051699794323,82.96621169989464 441.15576235918365,80.88512831057517 438.6832187275818,77.13872117750282 437.32584457116246,73.09584369684774 436.1162195824388,70.45175171472818 434.6990489366654,68.48206372090965 431.571013618593,65.76659477574867 428.8990096140106,64.61448525472099 423.8554559676181,63.11563177006167 420.8592705722639,59.08340766490767 419.7428071426386,58.287143496674844 417.00957387186776,58.747330011966255 414.96213695387064,60.860957241523124 403.39768134139587,59.066994221735854 391.833332156655,55.780654384254376 381.4325463520706,56.94607697295805 369.5370547938193,58.69114800116165 362.68402782686087,63.11253599474651 353.6052670351106,74.27151817706601 346.4132784263904,74.18799955647364 342.5800560901855,72.227303867253 342.4432550164881,61.944968466256455 341.3892830229666,60.107053781530794 338.6092486220766,59.85162114266802 335.56844399170876,61.17767025717376 333.9810842565874,63.290344986732975 335.3037079491079,69.08043916693578 335.04140071982465,71.9797498728866 331.47609781567894,73.04176793163231 327.7727533557367,74.7664136837077 326.58564638635556,77.00138642970899 326.84603362622295,80.83126849137523 325.5289073421096,84.11887150972711 321.30079448525845,86.1082938081247 314.9540834922139,88.23063356045373 310.46385458046495,90.8734013285449 309.4080642251815,93.77233142763203 309.80664862630516,95.74402021937362 312.5789436938891,96.39890023891485 317.06943248781926,96.52289370202459 319.0472723540045,98.09620173158021 317.3366794547898,100.20994160608313 312.0524207244352,104.56917046556714 312.1827528402527,105.75316399653047 314.6379292047491,108.43987995355701 315.7987370345404,115.00733221390999 315.18068740037194,121.50331821906161 311.8724774766512,130.6646630180868 305.5911764510874,138.91480256002762 303.50910439017093,142.1632512275313 301.09553863551713,149.53727271299476 299.84968473248676,160.1714995311129 301.88735273459775,167.56948075079163 304.8110234324195,177.3382684365397 306.23916595949044,187.3933124030001 303.53184405469943,194.47379928750024 301.7163078090371,203.34213110997325 301.9833722450717,209.546298037797 297.5125083307149,212.78321393164856 293.3507585284414,212.3718647812808 286.58992213922386,215.72049793393103 284.6624634540154,217.96756932212588 283.6950098094428,223.42465211012973 284.0167296195316,226.94187332863282 285.3010772702726,231.42866583015632 286.261414218621,238.4825768299097 285.05532275131543,244.10295368998345 287.3049812530488,247.3651703715426 287.62583586310006,250.57609861583524 288.5890611221544,252.81450594433466 292.1182742728205,255.3721460126319 295.006935720407,257.9293788482105 295.33012000726404,259.21770243812455 293.7259357121857,261.7828981871021 284.09231901303644,269.8025199386361 282.4866727842713,272.3675975290355 286.02113335184436,280.6918331868999 289.22738939633433,282.6162058966256 291.7951453353875,282.60729774605363 294.37040673360116,281.64735551516253 296.97684921867454,281.40417222448264 298.9585738845043,281.8130853959607 301.8947614363985,284.0433408299465 306.3185928748294,288.4940469769846 311.0105042454022,298.55675903795395 312.17239508423967,302.70865812764487 308.2916594229412,309.48754384725555 300.26145591726976,313.01121219040056 297.5509719230735,321.5701120129336 294.2458634045698,330.42463094709774 294.79618624593195,338.4124620789298 298.02501868813755,344.63347694786523 294.4350858678069,351.41342296373966 281.32939710585094,365.8395461588749 274.7755149935229,371.4307516855665 268.21234225924405,379.67259912278735 253.04951269174586,394.0769062900455 248.80348900150204,396.57004947099665 249.26360384126625,400.6420245675672 250.26403159093667,403.6720752739982 252.36850326972868,406.0685656113626 254.13498952682042,406.7545401359654 257.859979100226,409.6231817732721 262.3705087026851,415.530554966967 268.7780305748592,411.69762546721086 273.007514006748,409.58226970365183 274.39666531752897,409.4506195025374 276.1236298070668,411.78477747926 276.09839620225654,414.6904715215777 275.20130702589694,417.5750239098494 273.726042604681,420.4707806389812 278.92422888114953,424.87378314141074 281.2304125822575,427.79246276310437 281.79129106881663,431.2827301879677 284.67613742064594,433.62776444780184 287.2355985957905,438.23484184225777 289.304049583502,439.88314693322286 298.9345170971658,442.43605534406026 301.50428692878916,443.7164023010765 302.15095906768227,447.5553650888221 300.21864428993194,452.0481234544377 297.01443140163553,455.25982056987243 289.9494602505289,458.4706998359718 280.6686074983196,462.97966239008497 280.8226965056,463.7055348000539 279.004339178281,471.97626778612323 262.08571028688124,478.0968537414402 252.03676822794478,475.67263781230554 240.20965439214692,476.18541869551314 231.9172466522131,477.6116480776692 210.8868772847397,486.92719530971294 201.40115658836615,491.0014719668187 193.69697026943118,497.146482284116 187.4600316084257,502.72923103636447 175.5632650072002,519.4860443380534 168.132675400585,527.7096831491181 160.13545412223732,530.903229043703 151.27820213997438,530.8407338707403 142.70729029921768,529.5891215719187 135.32841243878252,527.7649258351713 129.1246203287515,529.5067737397051 127.03700395036395,530.6706734643052 120.78579546893977,537.7267799400508 108.31113166957591,548.2853273210997 96.13488902904332,560.0427561494712 79.8317434298732,562.6151294483617 69.47903064082585,560.2083537257824 61.48747763809812,558.6870879415521 50.55032815062715,554.7941707754305 38.10667852944594,551.7967880845933 29.7898696096782,554.7192743900895 11.935014160906464,567.0715919891126 8.36910761334838,569.1326097954625 3.002923130539526,575.0305614774252 0.0,580.6366945022357 8.892653367525188,583.3316054706762 20.7462868462644,585.4381513164294 28.124484267498268,591.9697977806829 32.23236805265612,599.9700425704218 35.19711622728105,600.8566380224091 44.09636454916445,601.7775780288921 57.121166956780385,602.1324292634911 69.54513479196956,606.0289985038005 74.86140681925865,609.6049958475103 78.40488327476588,611.3939444209975 79.8412127978132,619.6851332857964 81.28097703186243,630.6310429951027 79.43823502009542,640.9673110532344 76.74122531916815,649.2327201510773 76.8042196349431,653.1267872820729 101.67877232084848,659.1875560377081 107.89513770496104,658.0503028273065 119.58599546512703,649.7579584526143 123.95136631826045,645.5840330153319 125.00542317145748,643.8227460343969 126.55919275834772,643.2512650478475 128.24249342597727,644.5355757195036 130.08130161061192,644.5590180874774 135.0920068724814,642.7007855362219 139.58519294381233,645.9567626399651 143.10491670057732,648.2061773104928 149.1876406602639,648.2149622038353 153.34654686553384,646.9391564196569 154.62434642685656,645.0248559136852 154.62702587677623,643.0984818337954 153.02384449446834,640.5341733289661 150.46163854818775,638.2760425307381 150.14768122714565,635.7135251058191 150.78258575907748,635.0800194720338 152.70641765059972,635.4005774579548 155.26818357834622,637.9649367952842 158.78867268151726,640.5421461937876 162.620952690581,640.5473302252049 164.86417169862543,639.5877762521849 164.22365188046263,638.3052469789889 161.66908548645827,636.3754487119886 160.06425644118966,634.1290539434481 160.70905220215352,632.2138428433778 165.5014296523627,630.9398624884875 173.50612203551606,631.278390234797 177.98617376922192,633.2104051022209 180.8639354693879,636.420727216476 180.86624873246498,641.2270202082743 181.50261539636963,645.0702553828662 183.0996550342932,647.3164179984751 186.29997244802132,646.6845707970847 189.82678521589068,644.4445118345941 193.6602451959658,643.4966965238822 199.09982081461024,644.1475275079797 202.39856482735055,645.5653736806614 204.21322145037425,647.3508759598659 207.4508929694729,647.8870768777795 210.70491618050312,647.3680344614537 213.68715442184026,647.8626644807803 218.44841403667206,654.3954835879792 224.33456087417065,657.9888429675318 231.67687656542353,666.6044711731045 236.95599776225913,674.9207105990314 243.72698102899625,684.4283102877403 246.31468677086698,695.378650276642 244.1397298440668,718.4326927982424 247.92713635486342,728.5037706291877 254.41898871379624,732.6819508669262 271.8698181261857,734.8470623573833 278.0845473956103,737.2392880076563 287.2288616471146,743.7970198648991 291.93521226831245,750.0238275625871 297.54601636228034,756.5494724278143 297.16671835999335,771.9214392545522 292.0821111591872,778.6977439067531 284.9394368977541,785.7609752537869 279.57343576239236,794.6097486521422 280.4282673296888,801.1227491054867 287.2260971217696,804.112011446674 297.00489898681786,802.967987612805 304.13853144839334,800.9304582269758 310.68451386183693,795.3330883890295 319.89897050439447,792.4026409667323 327.2842641200114,797.4518489065346 331.1364091530823,798.6522520486938 336.21955722557436,793.6376306005238 342.17636060568555,788.3270633679031 354.3754981872398,782.7392529921102 369.7978931441547,787.5093831243701 371.71572831309146,790.9348933139186 374.23778895630323,793.1096151131643 376.3728117965638,796.7306614065246 376.4115480680482,799.4380837834241 375.7921498550557,801.1611100186133 376.73654295670997,803.1929554860031 380.247884154752,806.638920750555 380.3489274417923,811.1221161290719 381.7110710605807,812.3728303359502 381.9739752051133,814.7533912733652 383.0956513599584,816.065869707407 384.1095019044423,819.0408856443075 385.2160041789283,820.8358975261223 385.24668743268126,823.6063644254054 384.5581153139713,826.1606938487118 384.9606971386716,828.3147623132481 386.7711704181796,828.6234694573102 387.2430348358181,831.0233040478312 389.69655143077415,831.4438782758076 390.39224968778984,830.3976495357085 393.44870310162395,829.4026337532073 395.52211408302026,830.3353058126314 396.55086306089675,828.2943152332334 399.11932573405085,828.560313767837 400.31812549502445,826.3751517040059 404.30237517987797,824.5472213839025 407.49728156852717,824.5466022262029 408.9437230650116,823.4087744718855 415.248451186333,821.1811524929002 415.3038493651455,822.1861253402118 416.81181853991455,823.314256049227 418.7861287992647,826.3299725125856 418.1758304988571,830.0232379845659 416.5211365684874,833.4607030784292 417.89098579190676,835.4201267129953 418.8819738905499,837.7901298213721 418.4261796323272,840.210711521101 419.06126595199703,841.1756317051752 423.40902515766544,841.882107527663 427.2471516023823,841.3674666301484 430.45937992051637,842.9671520864433 430.11200615492766,846.2614601227608 432.00087519824825,848.4045915835999 434.39124548844666,848.3831312065254 436.48074195578204,847.1611745262271 441.3940802045329,847.200383237378 443.7145916325721,845.7736352941056 446.05095590610136,845.7829064236985 445.8966245399296,847.0556124547979 444.3889877109546,847.6816560331721 443.49200214320877,849.3651671788173 443.16827856899687,852.4844882399102 444.8492141472083,856.2386176346445 444.22313277582634,857.5938809288541 440.2919466914886,858.0780836396298 439.1937504626039,858.6936148199616 440.7745117135603,864.3471265014643 440.6739835494792,865.3225543435435 437.51721734784525,865.9080238519875 435.7059576270112,864.9037402143044 433.94117247627,865.7459616310449 428.7872413571096,863.8999513913141 427.44830604923357,864.3108826368928 428.4158609352863,865.8392675638963 428.61035723957986,868.3741767516802 429.74901186797734,872.4889403576566 427.5835669150461,875.9073770264126 427.6773197139475,879.0368136191894 428.9242549244194,880.4016789549322 433.692072862601,880.9134266837136 437.16685860580594,882.3996384145019 442.632325600134,883.7729938173374 465.6697056095849,905.1402465022153 473.62373563595605,912.2694714167524 474.7672013328261,921.7433480172841 472.64429196941666,930.9013986339636 466.6714055961514,938.5638501376388 462.1994722503829,943.5654878089834 456.83573132287216,947.9832577836502 451.48075723466206,954.1663003273062 449.9380071525376,967.1969321868784" /><circle cx="410.9987482952516" cy="624.161540235785" fill="rgb(100%,100%,100%)" r="16" stroke="grey" stroke-width="8" /></svg>