<?xml version="1.0" encoding="utf-8" ?>
<svg baseProfile="full" height="1024" version="1.1" width="1024" xmlns="http://www.w3.org/2000/svg" xmlns:ev="http://www.w3.org/2001/xml-events" xmlns:xlink="http://www.w3.org/1999/xlink"><defs /><polygon fill="black" points="0.0,220.19155131425066 48.26294311391386,262.74119618459326 62.19399966053141,271.70499559904556 75.1007348240722,277.4829788055232 91.72668536857243,283.06057248729303 112.82037174573902,315.25512662758894 149.35021221681643,414.83805351526763 152.052982809986,436.1395460548911 152.7251346543369,454.83132053181095 148.61701340498985,463.4839510767022 136.5334866790727,466.14020487610605 103.96107770118961,465.3153829365324 90.89265634347919,469.12705448151434 83.50547284273857,475.4293009594671 69.32000475501515,502.2772029977557 68.05162598976487,514.0663081220969 68.23218326070976,524.7042446409055 73.67840672187813,533.8277787375308 73.73185926817422,540.8375216961351 66.98126009365153,549.3046780806428 40.9435513048327,578.8809748402964 64.74083031034607,592.7251515427865 157.09063695096094,645.6859827763443 176.28748084675556,652.6562022847996 197.49572906817306,655.5430425663844 206.6920718896297,654.9173063956478 226.3599631465921,646.4882171232953 233.12773474891438,645.0354823940278 231.55266136494927,631.8282943965432 264.1748484259748,631.5766806946478 288.3657191630638,629.8760425509347 298.7131651154722,630.2820759803774 305.6662335437931,632.3827599703947 315.9021304158336,636.4929791494408 322.79026474111845,640.7920845430921 332.2787048823231,648.1749827067872 337.6964091158005,653.5346822707623 344.2909924848863,668.8124089098684 349.3373923580506,684.1767085593661 351.6660722033771,696.5067926170121 352.609867930817,698.694726006745 353.2884758910413,703.2567770023223 353.2279417464203,709.4041132407801 355.1602677374181,720.3370320721453 357.52062531342375,727.1519403430426 360.4895322390618,733.1542007677185 360.049077327405,739.5701835614115 358.1130670368197,746.8278330744544 366.9075489038779,762.8798282641266 376.37670238341565,771.7683821783712 391.2984901525651,780.6590639891554 417.95688273802153,789.0933763510783 428.0794249582117,789.0915717193484 447.1224291340602,788.3170283202161 452.2695318624741,789.9156794938596 459.5914330364085,783.9688640388742 486.86403358796605,762.5838974025019 490.77782150620504,758.8220350221528 495.40645800398295,753.6850590389229 500.5626700730022,747.3187008865052 504.1427199369099,742.3045908528723 508.06359577172776,735.9582012802053 511.6632489767968,728.3524213680472 515.7161687058708,718.1664731688704 516.9739568790546,719.3677452875671 528.536209614332,724.0366472066606 536.4036407723972,726.7539550589522 560.9418206637854,727.944720331374 575.116234208545,727.9042618746178 577.0798889847829,727.1422362460676 579.2120997047066,724.8549903419665 579.96285008951,722.3429359656803 596.7476950005257,723.8929094727587 623.4440200598018,725.0475054306088 635.4376151893473,725.4229920722819 652.0352713461115,726.1903444946187 655.5323473948146,725.9128833142493 657.4483952445573,725.0966050827137 666.9294817692053,716.8681785456913 681.5136506020525,703.2651102886019 687.5529080214691,696.9204384894821 694.1811191875145,687.9161493989881 702.5525930832539,677.6764361963255 709.6860951320779,671.533509773555 718.1113335194417,664.8289981056273 726.6167935024511,659.2567461301777 740.734001191098,650.7942370164602 755.1441824208217,643.265880143886 759.5778132271383,641.497714377814 770.4668245692607,639.6340140485838 779.4316875015594,638.443387186789 782.0912832561257,637.6837757231905 789.9034204082061,634.2928797318106 792.3647925978156,630.5818512150826 798.4460361469221,626.776596702504 804.6526096604405,623.7883310677946 810.4259636281597,623.124615328375 815.5519405490373,625.26967194143 819.344449157331,625.5867057851046 823.8150863588168,624.497199612029 827.6050674694083,623.0283094161005 831.5829061552779,622.3253111983411 836.7612354087922,620.3348031334543 842.947098203065,620.254141261863 845.9455185503824,618.6741897398676 847.2284218456249,616.092798812813 848.7655405254917,609.8333679855218 850.2922427435566,607.9816555306978 857.1500122136808,604.6028641983581 858.6971183018508,603.3770682127519 860.4214124586891,600.264569444942 861.3687901802733,594.5926389284355 862.6180260483069,590.9479122231924 865.2047293646124,586.8555859563685 869.3341893931633,582.64496654465 873.9832400008271,578.6587536743722 886.8829426514501,571.9850034400906 891.0997809180317,568.4019150878721 892.4904753194672,565.6574633463847 893.318503791312,555.8457047658105 897.5951409710024,539.5450562852295 900.2218484798831,532.4697832809167 902.3026045221178,523.5870629296039 911.151171758344,495.59716969091966 917.152806306975,492.1881436615225 927.7345942974429,489.311707516494 937.6837380258659,485.37894809283557 940.9183448687169,483.8423473572782 942.4397775281359,480.5134485234632 946.5341126307486,475.24657601225704 957.8106329511611,470.5188759414351 966.6929433449926,467.6658208131603 970.3521820985177,464.81385404044187 972.4234033709641,460.5270362625419 973.5435389841725,454.0306051698808 970.5975282946115,439.38219933905185 962.894983106942,426.80394165487417 961.5714705622477,420.5610463100134 965.690980287826,418.5648956856516 969.5223184384611,415.4235214045679 976.4168348152269,402.19632186091565 978.386201260088,397.34928829213345 980.5657907773866,394.30097624524257 987.5960103583523,390.50337833962635 993.4140667308402,385.8607671526618 1002.1988772507682,376.5247358937256 1001.4751570720107,374.02714675031154 996.9472450716444,369.59325455511987 995.8369104469251,367.6433025541401 995.1267717219416,364.1439048187585 995.1573350815804,357.49134026329295 994.2620569186785,352.8795430211412 994.3045024464323,343.1530251395947 995.1125440714039,336.43002916964116 995.9575335612234,332.30753768090364 997.1352157598235,329.4971443643613 1000.1598987934773,325.1594286483479 1002.4479787733072,320.2527174252439 1010.8150733992817,305.02863974463673 1014.261402988433,298.056937309188 1015.5700973908656,284.1961353790455 1015.6484580299388,277.341357919845 1018.2369674958685,273.0903240318787 1020.8491212961779,263.87436797863097 1020.7501967979629,259.40361235101557 1022.5349164511217,249.35263045532668 1024.0,244.13840050342344 1020.5104146450951,244.01111698543195 1010.3311257515297,241.6322859094147 1004.6916489298397,239.38507621864608 996.4558204485545,235.28524263364966 991.3410398649786,234.9577406876424 989.3697997192612,235.86395371773438 988.2414273610027,238.6605264709707 987.1791354848768,238.8893741668454 984.7382346547959,236.92773035896596 980.6816003589348,234.8717269377156 974.2829736502352,232.9437397654126 968.3988490695045,230.24530136824785 954.9857798580006,226.12443642892003 946.3268610625456,222.11090747004653 942.4668298095481,221.6721919173467 929.5288607389792,226.589949521324 915.8305840270821,225.71593976876807 910.2601460656585,218.69236062602738 908.4841934890437,215.58718259552109 908.9556555993141,211.99762881146876 911.7759618681924,206.83373925783258 910.519353517804,204.66127569801245 901.1247625410962,200.3115319023069 888.6417725051555,199.45323680772674 878.4937854366834,193.5539730191026 868.6948532687237,189.0349625415064 862.229738040494,187.34509827532963 861.9265023125533,191.0294244409548 860.1072064475946,194.54630010116205 858.2597845650314,196.08824553550778 843.0491732055558,204.5619776748407 840.2686537256031,210.05062820071112 833.2824895305615,216.65061841887734 830.5555442019789,221.95224764470845 827.0086013755605,226.6146589031813 821.6266482490515,230.21960235876986 816.6687025781539,236.0659361154609 804.6067061003967,246.6778255867904 785.4992860453501,268.67981277076603 777.8479815347054,274.7419671458466 762.5128240094169,281.0781498594586 752.7831744024243,287.8995339391215 746.0315547886485,291.29476319819133 740.8034436859183,295.27982873087507 736.4531550027037,295.8216235242372 732.129648723887,295.3393006513687 723.0703952109023,288.65961455831564 718.2130984860337,286.6410980132884 716.3548417099217,286.70546077089904 711.2337668689763,288.4626562133568 705.5315716652642,292.11852700585877 704.1194812645866,294.0331409109721 701.0546788633546,303.77874146036856 695.8400650470523,303.2727961534549 684.4374632086245,304.67664195109205 676.8873126288387,304.0338832198824 672.9097451763131,302.93478610348154 667.4557232235849,299.4534093192002 665.6219862368847,296.72267856598404 664.0663811784871,291.54275322431283 663.1747502445386,287.126262198757 663.082314706141,280.65103856525604 662.5304740982216,279.34046917755535 656.5906502321264,275.9969066119562 649.7545718361179,268.8846689444166 641.3338249558542,265.60377207490194 634.1783303298781,256.4860683857929 623.6463432843868,247.35464516823947 613.8332940098562,241.30884329334276 609.4165944966259,238.81873343280097 603.5452643944368,237.53353564769304 590.9271165637994,236.2057778984289 586.1921161173191,236.98495583304327 582.783620916226,241.6421774229807 573.4600792630251,258.21468236112617 548.1538593326982,263.24191009844424 536.4696431947456,264.9066990038592 525.304398894452,266.803550435342 501.3855304501902,266.69632284791896 501.3789325817467,260.73562532146263 495.44476252309335,249.629017579187 494.9873502584554,244.7791149664032 495.5214710295371,240.53578469592094 491.90155671870986,235.1949283505146 489.61627464146125,227.89262831651342 488.7943272990314,220.90802734520537 488.88823446622996,215.5377497635908 496.9772537872077,199.53646055415084 499.4809404691322,197.2368550996472 506.02949637342334,193.69583260758827 510.667129174343,190.36775120540722 517.5047559153081,184.21195891337481 513.9656088005818,175.83658334286918 510.5287268388931,175.57202123258378 508.64398358605246,171.35487733898321 506.3967851801593,170.2100930566553 505.0615385299137,162.54876042294597 503.8423779973519,160.6325133653229 505.6013636670749,155.78873683226595 505.0482059041379,155.00542766466856 501.8971221356039,156.39866070058406 493.02953384748827,155.3114813254615 490.165281921872,157.3980061014098 486.0851022600376,157.90741164075132 478.3712079480465,154.9969696827775 478.9438286122916,151.14651059373853 478.2614906738307,147.64696641931414 479.6056024685929,146.4695216460425 479.8950969696415,143.62128135868352 474.64300223154316,141.82370446584343 469.4904207238932,139.0415801588606 467.89874507173295,136.9043331155226 468.4597143554226,130.0544456766794 468.0294350673976,128.09883242467595 464.94513483510514,124.6935382756011 454.2582666712587,126.59408147655142 452.72722186074196,121.95661610149932 452.963554181362,115.61048833907648 451.1871191439144,108.72842816895547 448.1369715826324,105.88156800241757 441.534088707191,105.29853563227209 439.81426482017065,102.47958138936974 439.4898517113007,98.620275881613 437.77707208999436,97.36888921546836 433.30072408611244,98.09339785817065 431.68330470611187,97.38709578214173 430.19828768798726,95.38067760529714 429.22603066508645,92.23500994463734 430.3293489448135,82.4682799085092 431.8468288215445,77.76894662594111 431.33936805867705,76.88127672088387 420.4139923211469,77.22246513887785 418.28310345683246,75.62827874603352 416.36109927637295,76.27018756281757 415.63492866436656,77.85585190762197 414.1514657042818,77.39421332699851 412.3665439559074,66.28431620475567 410.79322239186985,55.25541844856002 394.015041063958,53.25426276270639 387.34898460763344,53.91225649396176 372.1833988796618,58.48700971736446 365.49747122879,61.0205951981261 350.3105028932884,64.10219031989311 336.998928496566,62.81790760959791 333.4129062917764,60.17453262385277 328.96821580397534,59.72353391793615 318.27129186206423,61.561016636587965 325.7933880525172,50.1885147535545 313.7058528969714,51.98098518457857 312.98734123089133,45.556352431519144 307.8766819788959,46.262831136614864 307.8835390449255,47.822896587521655 296.6855675944519,56.48134412906552 293.31554537058474,33.58764102084126 286.9785719315321,34.94664481305858 284.3582976089603,33.406568517523056 280.5464604719053,33.266136830366804 279.4641277221724,26.31165949752301 279.5004861582032,15.453711253454458 276.2099362070964,15.229334203348458 273.0992792436624,12.63604665206617 272.6907924459381,6.50604055245185 272.0305154411291,5.6366942321885745 261.71672690005136,0.5430437205217231 251.96875240153693,0.2722738311485955 248.98267806520337,0.7567849502653416 246.3536886406669,0.0 244.14069192429082,1.4699495481075928 245.14223440404913,7.555739742814467 240.7150266526724,7.601873476461492 232.38120233496264,6.728475173308084 224.54085850082336,6.79520728166267 214.5229250480327,6.343201036676419 214.29260476734459,5.379924043997107 196.94837411600923,5.173820956453596 193.709285706807,5.304555203207769 192.40286185954722,8.456770492879969 184.07751246063742,8.170709291283629 183.12048996926896,8.792825948927316 178.87165367905735,14.412286482117679 176.68213093180336,21.082333495735156 176.58731441688371,24.576367209721866 174.95212960766176,26.340581643593964 164.56030242051432,29.751008197383385 159.8328409361991,31.627133621827625 163.42149037854958,50.104420501535515 172.0125366293108,48.04677152759041 171.6281070321349,62.21115666490971 171.32097949511473,64.07923230542565 168.13064551665067,68.02428508301193 157.9741746609824,68.81104689340384 153.81834301227326,71.43364753702463 153.15296815465132,76.14805437009136 151.41693293708747,77.79644090241254 143.2824649738538,80.33346171321557 139.19392746425592,82.27204054674962 135.84759021451518,82.51261295795098 134.37121705802014,84.03990766773711 134.32001136439095,85.92246989052455 136.42065319595352,87.03461792251892 138.77786952772155,91.95932113986612 140.47815183741767,93.87443355310756 143.91956221784739,95.75397682329663 143.8976604086091,96.55971298334407 137.35143302658727,107.14287716716876 128.47247776518114,105.83128721370622 126.09117968436189,107.40176783229288 123.13618831104354,106.71848603308149 115.37249074436879,107.7279427682264 105.84954783293955,108.53865490017392 96.70395646239778,110.51248838785159 89.64521187799605,110.96810688623748 80.06766284603864,109.5236975901696 76.05361738902994,106.9273084082322 67.8452659461144,104.3143245197441 67.1986561410853,106.52728661670972 69.5296983906961,110.38149185022803 38.405841798649504,101.50505120873561 0.0,220.19155131425066" /><circle cx="465.0879769741703" cy="596.8606539635614" fill="rgb(100%,100%,100%)" r="16" stroke="grey" stroke-width="8" /></svg>