<?xml version="1.0" encoding="utf-8" ?>
<svg baseProfile="full" height="1024" version="1.1" width="1024" xmlns="http://www.w3.org/2000/svg" xmlns:ev="http://www.w3.org/2001/xml-events" xmlns:xlink="http://www.w3.org/1999/xlink"><defs /><polygon fill="black" points="898.614146267988,75.9595889376078 890.8667651621984,71.91357188168206 887.637871271309,66.31820467968464 877.9798397658876,59.88405431710851 870.5812769943062,56.021523635475546 855.4525413923024,51.505944737769255 843.2281876039983,49.24422026954903 829.7283656282126,44.08013221810336 818.7948026386827,39.56738952658827 810.7575010581808,32.15724947220508 805.2761418632248,25.72699482259202 791.4431229608904,21.532440335710703 779.861696439111,22.800668698247023 768.3091406760335,24.722167182726025 759.2797003119009,25.355069492161647 744.1549536357861,19.246492371946374 730.6217774077411,16.355206113358577 722.2573490634729,14.746453234426554 714.1986721558153,12.504109439379476 703.5566323777623,6.095150351578582 694.1859584025432,0.0 689.3591378657837,1.289595643829898 679.687927834617,10.950620018874588 675.1929320390622,21.884753584322652 674.5505272149808,29.283733151028855 676.5017112311398,37.94759053405858 676.8357777498014,51.44797587846483 673.6001455232716,59.30883070761115 670.5502384891455,60.96547342405688 666.9629137349217,59.157520511804364 649.0755101626986,51.40653076021579 640.9669280852473,48.64004889375292 630.9020057212592,45.58651920769569 622.4464612861174,42.184883343906904 612.0229686584913,36.903635204371085 605.1979085747313,34.440757859520204 592.8086699260306,27.900914555888107 584.295459807653,20.00201693271663 574.5006784373473,13.41063654874813 566.394777054186,11.29490568513188 561.8651433023011,12.009825883627855 556.74881583748,14.991886232658544 553.2511990380392,19.5384931658258 550.1208962675224,26.342680390636588 544.4060279491022,34.46538611520839 543.2035640800008,35.24092377111026 540.9282078220855,35.15906325924561 539.0420469337001,33.40092577180985 538.0887262274573,30.110934675530643 538.8050616636168,26.93207658920994 538.687343395472,23.28521146721755 537.7335142023859,21.87464998939663 528.0583601487692,20.961170046366192 525.2271838760671,19.437831676540895 522.7539117426571,17.434224568636978 519.923558939236,17.330885223692803 518.264077483055,17.924018242255784 512.0128071264304,24.624034753206388 507.6599949051272,27.145718147397815 507.9857572633494,31.969096053594512 505.64924506441855,35.69745820441801 502.8667228571417,37.57694981377847 502.03155314269964,39.47697865687667 503.72647262833794,46.20146887653027 502.76661567354046,60.029236980440146 506.38233166986606,61.26758660688995 506.6594128184501,65.30386586385725 507.44073334063705,71.03774436701406 506.87244623990483,76.51610555294906 501.2898110827074,92.3470752517843 497.8085865454973,97.22032770913461 493.0636629046995,104.68088969784242 486.97994551173457,107.65208043492169 480.22192913468666,108.07802051168278 473.8280910813397,112.66332500291617 472.60151109148853,117.49832683943998 473.64229311334344,122.30398587967909 475.3103681083842,126.13951766790399 482.47385708085534,131.51050260425677 498.36397196455056,137.714953938 507.4383748943476,140.16318074127946 516.2151665324235,144.20596132059188 520.54517313524,153.78823832681974 523.8537261008065,159.1994693344276 528.1847024619972,168.13874556907092 534.6660281194382,170.60430997772653 556.9864370907368,171.85784610734504 566.7095779069875,173.31177655446209 570.6365940473745,176.1342159198482 570.0492984318652,180.65480301531193 562.3435590657926,184.31444889214788 556.8648140331719,185.68448994274877 549.148421610795,188.69937928261493 541.1226097969144,192.68577468249703 532.7885257370741,197.6436358624195 524.4727933956485,204.1976427114039 522.0326431420924,213.8822275994246 523.43234146141,221.25751912369662 528.3817159087317,229.2180564788606 527.0784468089726,233.45254538312963 530.4980781585213,236.2770323815539 528.7265984766143,241.1457726507639 516.3021333991917,246.03139150300558 506.77252671960116,246.42632722476083 501.51102653804054,248.40823499719295 496.56498904844733,252.65047581900296 494.32665189492593,253.3551226255613 492.31758164580003,253.24200780217893 490.1993338165327,251.83900171251867 483.95715478028563,245.60485989758024 479.35405780783725,242.43148977067176 475.58469407416146,241.72331920115835 471.22750528387184,242.426337593654 457.5678561371808,247.6041333877422 451.33195944233546,248.30530940868437 444.73763172794617,247.71618083644125 441.9135425813949,246.77280718475106 429.49934412832124,248.70612648398355 425.08019111593615,251.79157515672046 420.65883466241183,257.0980250363756 418.0015431192601,258.86570902970175 416.6586000697311,258.4443075539367 411.27738033572143,258.5511668954007 408.9288684008655,259.1328453847208 407.8742030477172,260.07289946730566 404.11602389607253,267.3640478304553 402.56328036373714,268.50803085174925 392.91420345281875,269.2653586417845 386.0675974951735,271.7856835591042 381.3567517774269,284.67149137912486 374.7246614040738,298.8475403007078 361.59689112964344,303.43637346493324 351.9206787549938,299.63732005546206 344.4566127926049,293.5804029997345 333.4718252379595,287.54772413219723 325.4583834227735,291.12854954355385 319.7535273167619,300.4934725606663 306.93747332896976,308.2929629131104 299.96606088153374,318.6286470894122 297.4636745065128,328.29617785235405 294.6622593235961,337.9533890728509 291.521636024594,347.6212097197322 290.3475074943522,360.1588681057451 297.2235835329609,372.96568460539515 298.6693347911068,390.63868528122293 296.8313298578233,400.93459249280477 295.6541231714893,408.9292101733098 290.1484402075949,408.84896916090884 288.17429069276005,410.96602593610294 289.345519916112,413.25063574269757 295.51289226983005,416.3834953689409 298.7825504184205,419.88133701294305 297.5790074403546,425.684236089691 294.459573087564,433.44188747258704 290.0839748323462,443.14265773434795 285.07730282365026,453.82678970740005 275.5956953353405,467.463777571995 266.1297537499208,481.7263040281514 263.0444477527973,492.3837614100861 259.0284016402313,504.9861017909682 251.43005452023786,515.063914627613 243.45819501037133,522.2516531711415 237.02252849196051,522.6597142651617 232.1448733613638,520.8060626993674 225.64750742636627,517.6789411039172 220.11619929707183,513.8981092892878 216.79253560151162,507.5195435641433 212.80497949880564,499.2139803456156 207.51479684396915,490.6087635087114 201.87960301312296,480.0770712470294 194.92423375154655,467.9655081484825 190.01517728020406,462.8952630954012 184.1746260583919,460.7315678880527 181.26746019529438,460.7770328740445 172.37146853510563,471.2045891257761 166.35512367331887,480.30647245770547 155.51551631611304,490.7610282374882 147.82743006033283,495.0549293522283 134.9422976179507,497.8206604984174 119.18584675572285,501.91992594142084 115.73185278613104,509.0422337166674 115.82512120182692,515.1483842344251 114.4290862464633,531.5775755015895 111.30991013022721,539.6543423533819 101.66935396572161,542.6935977472098 85.2225868024988,542.2802682626784 77.14781152182898,540.7724634090362 72.29015620815312,539.5505181858729 70.6359570682887,536.0420337301799 70.92150869522561,533.4604107233789 76.65385111993564,528.2413636085632 80.75445493624011,522.0738146358365 82.90707307269699,514.6419104155143 82.19338096763872,509.5073503275388 79.89965465169564,506.97050758646753 75.7155640043721,507.3483748812886 69.29670134387872,508.7128588500515 62.57447628274913,512.024291174766 54.55597725583106,515.3415863974067 47.22322931313587,519.6128380826958 35.39104308720181,525.541272241493 26.78659869685045,531.7447913991457 21.711524018574707,536.6380387675727 20.77460213387957,539.8618281038507 21.814700077984128,545.3169271966689 27.823083646720864,561.3309323418739 32.87666719312102,577.3530739335879 32.37007241777538,587.0062100731665 29.55242606566139,592.8292521247622 23.196064956277745,599.0113206128206 15.875855218110631,604.2463395558595 8.560365900797931,610.754096136965 5.754012064923502,615.9312241770215 1.7068719241098445,625.9443539875904 0.49365438172751475,631.1067766171774 0.0,642.6896591633038 0.02232695737618725,651.2702106157756 7.686774449080046,654.8427899501094 20.866399425926392,654.4419782939943 21.2576943952958,663.4451446356429 16.84508102243537,672.1564532682012 21.42879689223849,682.7323993834461 38.18075394343328,684.8744711593397 44.50648990399406,686.9333233654593 39.98337381034012,695.9543160333657 38.23077678628424,705.4034615736614 33.90140056955269,709.5752054972158 34.25714033482311,713.7607228733417 33.30019924202462,716.9788746496642 33.52095298180693,719.9120134985935 32.815672791351666,722.6071461027991 33.622819829020436,726.240825883981 37.400225415284,733.6363556994124 39.91268725694361,737.0593252971228 44.62373744790542,742.7138933394249 44.97699525602626,744.725915580216 44.45201582952172,746.9608669981403 41.34195143673001,749.7106750669445 39.064824561818476,750.8635882210497 29.81977847919383,754.2113885141189 26.027179099995344,755.3274348839343 17.020360461180623,755.2078884715952 14.583062831288823,756.5238750642739 11.964224838474491,758.6907317370641 10.371439440477044,760.6450398850752 12.040488749449395,763.000061800127 11.969240275491744,766.7949843977098 11.059144254400627,770.5985404175916 10.514084926298391,776.269970933819 13.370720231212134,778.2589022997719 13.418093692411924,782.2796490395996 14.32559277166084,788.6949291389916 14.433198043961594,795.9396142522755 13.675188241708678,799.1694667231293 16.147509114252607,803.1569666175322 18.612006328552535,806.3349676114136 23.488728412266894,810.3100070971234 25.12720308394219,812.6858063599661 28.38948875604887,815.8660529163736 34.034811845504905,816.6011385077662 36.4562301598396,817.3784651243957 40.459362601097126,816.5064774521575 42.1600653054059,822.1144495944934 44.72367361001654,832.5380923497289 44.79926634004888,837.3613129146397 37.722495773696956,848.7317117732166 37.775122031379304,851.1447654725556 39.42215850978535,854.329882201475 42.18872760266838,857.0280818826941 44.20797793240423,862.5248958377834 50.087754706678794,868.884167456408 67.56472198644272,874.7728308366887 90.46681831062742,879.0231854609905 100.16197269433837,877.5696863309606 107.41742443239325,877.4664773465335 114.77608622843702,883.7868516889207 114.81027521719935,886.188609493411 122.10742452528041,889.2862344155081 126.97492176097197,890.8176183413971 131.02453146879753,891.5556768144022 134.24843093813558,891.4920418525771 142.28341236684025,887.2624299747963 148.3512434905463,883.1189296385412 152.22409650740136,882.8408466472558 155.53279861415263,884.7571983007385 156.91542054755413,891.0943154236002 145.04218127708648,910.6637906690563 138.69958904948706,917.0135432841948 138.93033201074203,920.3708147457546 140.2451260176845,921.8219359815164 145.0671807241155,929.8617114644286 144.41798360014752,942.7465012224851 144.39512325063822,952.4804921989098 138.72599381988869,956.0912803062897 129.2901663878524,960.4125954667394 121.55524253641705,971.596717401744 113.83196300697212,981.9193260687408 108.62859231224208,993.7478294884392 107.2460888370735,999.4340634764313 117.72208613194967,999.5527920286061 124.94455791203781,1002.6108093168265 133.2106542765043,1003.6069075232117 140.9393810607461,1004.0776395274764 149.40606011395744,1004.8368475181222 157.21205053320855,1010.1747922308684 162.92596748777888,1018.3742785243116 170.673829958384,1024.0 178.9238285282008,1023.9564003226305 187.69745723931882,1021.8480145659444 196.44079402258868,1019.2266331413001 208.0406470612497,1016.806672674098 222.14424720095874,1015.7240279908518 235.88197844926478,1018.616694856304 250.60581345832634,1016.9281576056719 253.16057443382576,1011.7765812448137 251.7042120009401,1000.0851645394936 247.9521397354756,987.5997873621811 246.86607164054183,975.2535991463269 252.51661064947038,969.5642580630115 272.6100939418381,967.432644817942 283.40290795134956,960.744093802502 289.5193603007984,938.5651071533464 298.70643318326256,917.4297343777025 306.3983734901257,906.6011894820364 313.07160439336747,902.4730141279227 321.79859818791266,899.8781464582843 328.99697847351257,898.32824590439 339.7874784923109,896.7618787570356 349.01855062689776,890.0605578849938 356.7196026962085,885.4210441847747 363.8897317563381,880.7791820967872 372.6277792498018,876.1304718491253 394.19913827778,871.4742054064855 404.45639359309007,862.708537276597 414.18497650054536,852.4042127251796 418.10004843470836,837.5065027672713 417.37271521412237,826.0535778533985 415.50325600114604,818.5402289562956 412.5803473243542,809.0051136459615 404.0455047100081,803.784600392558 398.17509098230994,799.1518126526952 390.08522824683126,789.6319540074567 382.8483608226645,776.2574337149271 379.72707108221385,766.4876777540566 375.57200093345335,754.1315650669313 372.13390469304494,743.2241813508526 369.5856591805801,730.9860044681102 361.33851465359317,723.2739499070196 360.8088076510954,715.550147203588 364.3627191310674,704.7350503690077 362.29348819619906,700.1070411620764 356.617789898097,694.450844849893 356.53398810056507,666.1403404666484 354.4569675463439,660.9898663302374 344.665084290364,655.3490422238751 340.99058901838123,630.1355488896249 340.4341744341433,614.1743997698214 346.4149672158239,605.2043160214782 355.41610618772904,604.1389626153659 360.96428659010866,605.9089836074979 364.569824948434,614.9641988500177 368.45460983925466,617.1730997269557 372.79734271801954,610.0123580802092 377.3260240872411,606.461969180362 386.1498474137698,602.7915999429582 407.7118558049969,595.5571512866725 415.4734459476,596.374062132551 424.1716655990091,597.0794638131217 430.8590793917263,595.5168920195574 435.01108300267055,588.4287827922597 437.98414326918555,571.9821068845154 441.08124318415094,561.6552410466591 440.56409554651856,547.8328008962649 441.7259044212087,539.4522933930854 446.7829270749342,531.9963171533693 455.4322785054107,528.3449849513919 480.4885412776613,522.2250937630176 490.6587088696654,538.7263414052554 494.7915361740753,541.8024475845411 501.504172200045,544.3475851522011 508.52805605585365,543.3776028410493 513.886945969751,544.8041585939834 515.0405125552559,551.4439680682347 517.7685259985011,555.6771098619977 522.9183340431301,556.3443027790652 527.4316497916866,555.3110413010188 529.9342892728323,549.1641237229586 533.4933403033795,543.1505483710241 533.9839486878575,535.4358627831105 536.0006691199491,520.4983350758125 538.8211731143247,513.9634651200324 540.2985452761972,504.2926535842995 544.2028158168638,500.3711665660653 547.2825988992447,495.20863108267736 552.0936468964903,492.8542606539962 559.671962674624,492.0463423024519 590.1475844480257,493.9133246395561 593.294604299586,491.9261718761037 594.7586233836765,477.4108846256937 598.3439924678162,470.18048815458656 624.1436657268655,463.684348467526 640.4031850446199,453.9621169999024 665.0853861063265,424.9936808636903 677.7579063684858,421.588210205823 691.8687535177069,410.45079775781574 699.5899179454411,403.7301637753749 709.8923950136624,402.14718821008 714.2028144990746,402.79986881695004 722.9270144783155,409.3886672218496 725.7964727803837,412.3037549062723 730.4101104092401,418.4749234268612 733.6998222886834,424.1050042925665 743.4463023087218,423.6465490807195 751.6579258567804,421.57139493872967 762.2946619904329,415.48990217686855 782.9409866551031,404.4838744858323 796.8288516349027,396.26844369983905 816.3353117667974,385.4349809572468 829.1458246897239,377.7001485891949 840.9933572214003,379.2309790694144 850.7132451908208,383.88555962711325 863.1264950402474,391.5467245252788 872.906030273144,394.6147832063052 885.7805373294574,396.6426211274239 894.5321786725755,398.1636730726966 901.7287547744487,398.14219565577093 905.3608583091267,391.2250412614252 907.0928499939421,384.7521317657188 908.2866106887869,372.9360262940378 909.5935525866876,363.1265411082958 918.311609061433,351.26809905536084 925.479959730149,336.3225939607403 930.0632163491572,322.9275397611301 929.0037887915564,314.1780355556979 926.8899832237332,300.8075127957093 931.5149952723159,294.61762276039815 955.0213337893811,292.73208444623583 960.7526998422355,288.1470349631172 967.5503062592812,279.537562273674 976.2832866501831,269.20691176575235 982.4305233675402,259.4022019127467 986.5477979006846,254.74965534665148 989.1032881273773,249.58775751616224 990.7445953439573,245.03136692686394 995.8496294726522,236.44819293405362 991.9018360548656,237.22271211693646 982.5975645054126,234.6962869229368 968.6815961834501,233.74164196086713 959.3868733711879,231.21264564223668 950.6078140159966,227.12769006196902 947.7379678245068,218.94045094574824 943.539023691349,212.52444869463739 940.9412975157531,200.9516663922742 941.2796341758341,195.2427390736384 948.4900677438608,185.54492289870802 948.8799025417987,176.48315075202618 948.1888127483555,173.93701445682143 954.2064502308855,170.18340745314742 959.2264093363168,169.170884098157 966.2552626752457,169.1569535288305 970.7753122531817,167.65495200061423 967.257393737586,163.65389253770854 961.7328837805335,155.13602017602534 957.7196411355059,156.64802008038248 957.7184340072355,160.65617301195152 951.1964466952134,160.65900929361464 935.6331833529342,158.17160347589993 928.3250839433465,157.8781825188206 925.9050454952213,155.8784459862951 922.6841518691699,155.48643392657732 920.2170924504102,154.621087186134 915.7443057808638,149.87428833295326 904.1504616261436,141.84689822993778 899.9462336622382,130.2691804847468 902.5132322668513,119.99107667010605 903.696588510282,114.51886124426903 909.3143521792995,109.4691013626989 917.5390836670108,106.8178556860355 922.1558200779424,104.38692915217564 921.950841836711,100.97293115503442 920.9352201665566,99.36977730814885 917.1126469792056,96.36124680235707 913.9008215413198,95.37527444341754 910.6813315311776,95.17632742236333 907.4588821672945,93.98579283048116 903.43968289155,91.38625410750967 899.008758102865,86.56895245154044 897.7898664357336,82.14404710117219 898.614146267988,75.9595889376078" /><circle cx="207.54372394731027" cy="594.1352430152415" fill="rgb(100%,100%,100%)" r="16" stroke="grey" stroke-width="8" /></svg>