<?xml version="1.0" encoding="utf-8" ?>
<svg baseProfile="full" height="1024" version="1.1" width="1024" xmlns="http://www.w3.org/2000/svg" xmlns:ev="http://www.w3.org/2001/xml-events" xmlns:xlink="http://www.w3.org/1999/xlink"><defs /><polygon fill="black" points="106.41929891898612,457.1382853216694 107.12802272177427,452.2992782407841 111.03597083015066,450.0682322426473 110.53287804751915,447.0636207491647 105.63734712137125,442.136705338808 105.54433537752624,439.922762538572 101.42299295581832,439.7535221797326 102.39102587232168,426.4892696813862 112.9111882991913,431.46192130931337 134.75091487778687,441.0828941780066 137.69807149460505,436.359016164084 137.3335274833731,431.7365852521777 141.85509163236705,430.9726491652988 162.69397114561875,433.36087348444437 171.58894971825606,433.3769051682515 171.6261280830363,435.09291569951876 173.8894348957924,436.8312391727555 181.34433740664147,437.08321920544887 184.36943770506969,437.7650211174352 188.71734360405438,441.11249495883766 191.63537972015178,444.35312834190313 196.67543891211037,445.45203255816904 198.4767542836799,447.17789707748454 202.9892513994873,448.35242862064297 208.7632649575581,453.2482862115351 213.360532449564,456.1661560011821 216.8438319262246,461.73697231608645 218.58813571148784,463.05736360351017 225.21741733084946,464.6921118715614 225.6808178386108,460.4558218971668 228.7646979750997,456.2454380268364 229.06317299963092,454.24746683934694 230.9588059034892,450.915906875503 237.70027032952214,453.22239487125245 240.1063518102481,456.37664667649125 242.0728603590875,457.22877409498034 246.93624177099952,462.49291292781686 254.03635185796287,467.42041142258375 259.84656617129014,469.75206515792223 262.9409051715013,469.6474570984347 263.76710914557225,471.3634588161879 262.84501534363386,473.1895592928119 264.9254439837637,474.9178439269868 268.7083047716849,475.3211232645463 274.33684968538637,477.13031534468394 278.1403057281122,477.1674516222495 280.84616333448577,478.21165247639607 287.9595221703167,482.54493640089163 291.42273379980026,485.0653083477787 299.1226934849007,486.4239385560334 304.7355989635407,488.822405539464 309.57760575651156,477.45375699608337 313.5325350282761,462.8842859141027 314.4219251174798,454.92397491094636 317.66627912067906,455.4603859967073 321.3879139031156,453.3874843652684 328.0005433630221,451.47736172429114 336.25940636466595,444.85252212233183 346.7203881133327,441.4292747052676 351.1340271596562,443.3722528022477 356.4966003263822,444.9001807790506 362.9671283157973,445.7331045617753 364.9450066576541,445.4127296329968 361.86333281237745,441.7284804118042 352.0066152429618,431.76461773506037 351.40266673685073,430.23598948707667 334.808373155275,414.09254128473384 332.03372297682193,410.69628745596765 324.5190932562323,398.7302025473664 323.73678187444517,396.68319144037093 324.31665175688175,389.77621878541083 325.78434896464665,382.4305979347033 330.65584292638005,385.0991957919563 334.9683031320749,389.7131350961571 337.63180930318896,389.81202150161096 338.0057574079214,385.20852921495543 338.91898555850383,383.1894236145836 342.58533717987495,382.54613997830074 344.0670275311677,380.42839318905135 347.3624108596651,380.8995415609003 348.2774484164354,377.6236055282235 346.2957784432251,376.2475167566877 347.787083438784,370.9993431831489 347.01881393564463,369.6079140231344 347.4512248700284,363.15057402151876 345.7505337714736,358.00283091358665 346.1157273779889,355.3615977647379 350.35302851117405,355.39456033579415 360.2689702623202,354.69923175392694 365.8560185657364,356.44127788010917 371.7499169047883,355.2330151130067 364.36196028411325,363.0735349995879 368.7207034910043,368.54728638365043 373.1275012692294,368.99413963911945 373.50954018070445,367.77565426562285 381.66252219856165,357.02379686158883 383.25700487320125,349.44789545981234 382.43273698784117,340.0061478652117 380.40059090804783,346.08202709426723 377.61421057249856,348.2106005677474 374.78472112303416,348.4419389200182 375.7130054087565,346.95493302509294 375.76494915362616,340.4361205431544 376.8721930204199,339.77970728107255 377.8626913210421,334.97002355917107 376.59715064049817,332.9840510263357 382.1604566111215,333.98158483427505 381.71738549538304,329.8367791406656 385.63660961424216,329.3420356309548 383.58850779720035,319.96189351928535 381.00362452231155,319.5054961969746 380.73344960224796,316.4765137610415 382.1056059420383,314.754693353436 382.731314966088,307.5628052006938 382.6517327220845,302.71593512389734 381.3394513725339,301.36565150063836 378.68804399060866,301.12835282158073 383.1471359094625,300.2879559273548 383.15114779291395,306.6492398140423 384.7663106207729,312.952601468862 385.4344250053185,322.7321354508314 388.681629073703,341.10263766777246 390.88708547373204,341.8098263657208 397.07922057888726,338.14436322746633 399.95184418296293,338.73060234451304 404.3222265204269,342.99351739896485 406.2695555303997,343.69046782477164 407.4213231269331,345.86802814115447 403.9724609928222,349.4323904694527 402.5948176215575,351.73252450065206 403.39321376415614,354.2652922044705 410.2840157644719,358.30523519077383 414.3065298314159,355.89125109909025 415.5654055534984,354.2877651731661 418.0980087503015,348.4207794721001 421.5344613962287,350.48874755396207 424.63955137667773,351.30060175026927 429.0043831301656,342.0967021335131 431.1851796359332,335.3087793572662 432.79309459379186,331.62281876185546 434.977193050977,329.9007421396882 440.94654620876406,328.18716310893365 445.65949497478783,323.47390206862167 452.31536437704654,315.1856390307223 460.00518226579925,300.93125133903266 463.8097001807194,296.2941361884692 470.3390137375946,287.2796309827438 475.63908664974986,281.0872309188002 482.7423110577373,269.8495292448671 490.7998255861505,257.8764819824838 507.46647335454344,252.8065369445785 522.5750968117724,234.96072523545342 535.8130453200612,226.8780584074259 540.1315828788545,243.518251178279 541.336913988654,246.94115621178162 544.7503521431219,247.77420704431972 545.9127298897816,252.1875021020603 550.5994486082825,251.23942418415675 551.3817582984256,256.7325611289539 553.6653718364618,261.89238856425766 550.3333442707517,263.29620105846413 551.9499153248659,268.58489313569646 556.7966785489243,267.98902100633643 560.4763683927811,276.1878540585345 572.9696063573472,271.9871265077029 581.4501278277911,269.67741676619175 593.2015400613061,270.4657519207532 602.389179676001,269.59997213072324 611.350932429327,261.70775226216506 620.2508404906059,243.5907526307343 614.9764050126507,238.1192786171315 606.207348805295,230.28011731872095 583.5621052341601,205.4759996285577 587.9823199169197,204.2513825200424 588.7902668109048,192.25731513123173 588.140600999505,187.83720511852084 589.120566143668,175.97576122953524 592.0015433741775,166.48700730041674 582.2277830611937,164.4364565579408 579.6094588411781,158.38317334933447 571.8259715128729,153.37025243034088 569.384148004161,152.97029177002446 566.8940895224725,154.51678092246152 564.6586192579774,158.32089117653607 544.1349063915379,154.07820473145023 539.2246449784193,152.84975451037712 537.9099388554658,151.7659632213572 537.1263901068078,146.45780371924047 537.2699706802981,143.0163660114681 534.9493770181341,139.40201056940407 534.4222313304892,136.5134421006461 532.3284824526903,131.87178944359823 531.6835797637051,125.90177526392938 532.0700219112072,123.0177207082885 536.7957363746078,120.62063210631788 537.8845257889486,116.32040918694554 536.0039985875285,112.87971037346563 535.2040115402813,109.37950683907627 536.1207153847325,105.69840938830066 530.6750675956811,104.77720170630766 523.1369472880924,107.60715193623389 517.2571880497424,105.88373030127002 512.261473421339,105.89168216242342 508.00356585507416,106.54250374347703 497.71375663618613,101.36614082697656 495.42890754476394,91.75688591243875 495.6965232810496,85.22850389669281 496.2430465783719,82.68521848064063 494.49153822055996,80.03583112713352 492.57796331517545,79.11981417721768 487.6109626549413,74.23920094438165 485.9937091266114,70.30720486008317 481.2689288284717,64.59600949286676 477.2206263127613,61.37386451670454 472.2953600358657,52.78848514105482 468.5548162236011,48.62841867688519 465.5611631835243,46.67281593744053 462.0658811129867,47.16447677000849 453.13081095971387,51.279281728863 449.25126663040743,53.9956037116541 445.075394501329,58.97217699581506 440.8398883378293,61.61182918484292 433.2981665474915,59.4242989150996 429.99277889648124,57.04526356033239 425.97008060723846,56.556248620657584 423.23244686183057,56.98918736528992 421.7369704516797,58.57116514422182 417.9379957832773,60.63640841815504 414.8256454723676,64.77842545075282 412.50043792478886,65.40025259675326 408.63026521971784,62.78437156552434 405.351888289797,62.93833691760551 399.37214197290865,61.84447572042677 394.7936234847054,60.5248275512032 389.85212048417435,62.37846420311246 389.3671763800338,65.87448792266389 392.7284611685167,71.28468484184123 393.127018694052,73.65179635128789 392.0045829369375,75.98129922815735 393.30780183434746,78.20666267091667 396.7091605130698,79.41874569908282 399.4502038256498,78.64674324192299 402.01255444875545,79.16841601253589 403.6397019899992,87.34558589324001 402.3377612922081,91.41601893577331 396.8725334853507,94.74137197692903 394.6885022745837,97.2805436372779 394.5316450768523,100.91848050884835 393.59748905951557,104.15578038439855 391.1690981471277,104.52977192077503 389.4405545806008,106.66073294436626 384.8616799389696,108.53320357233088 380.34607158813213,106.9749831057137 375.76179094893007,102.65563553210325 369.83749652437257,98.19618087903268 365.6537383345548,96.04724261919944 361.6789574405894,92.65113327227436 360.47122698110707,88.9808269391799 358.89214386225717,86.49825162738614 359.68650943253846,81.92958479810113 356.04740916479795,80.02094028127283 350.4824643492281,86.27092660138328 344.58610132569237,100.81821097627596 342.8523691117183,105.92911541281671 340.415283017536,107.19716104759266 336.33215468331105,105.53466178344524 330.8162226460073,105.24234124227405 325.8678112960341,101.75549571418583 318.9997696463505,99.0634543881265 313.4033616165788,97.62506975170311 305.3905307383844,94.28168028302241 302.9538931853774,91.31246174392288 299.3076630660612,90.15117081959158 294.04244316277106,84.37459231030448 293.5307515818334,79.7392984604146 292.0224605718999,76.65955083576114 286.46752743183237,74.14553061697848 281.5707733253461,69.6215153046304 276.12946642038236,68.002906096218 273.9099237188297,66.13440594646488 271.3429165193057,65.76222416737153 267.1942230409392,66.69302276873793 263.4998912264197,69.41714804347919 258.715896719835,71.05871285028775 256.3620190288871,64.90931110626582 255.39852294620295,58.61553081968668 255.3373558955677,52.07618781217354 257.9073190164589,42.49003446788652 266.239070441347,34.32538322050323 269.91540983125196,27.178937629973575 271.8494118041165,22.486654873752627 276.2391894559902,20.12398844272377 276.9259199656568,18.307128390502726 276.3061608454823,15.37480956149443 277.22465046132896,10.699526007738996 278.70820757505356,9.337704468475977 281.18976064659125,4.535089626390686 279.231157235908,2.0600065401586107 276.54801200814427,1.108392681673081 269.68002184061635,0.6900978623232277 264.5004539594974,3.280093589404487 263.1257278748212,6.00003442023467 253.86881555993025,0.9584562690500888 250.90059046895328,0.0 249.77337089244327,1.7160842699454406 249.39173111375896,4.946993886757241 247.6558325237101,7.09657427977595 246.11368507523824,7.1622921703863085 239.34141251273985,16.95353588065541 238.295790155844,20.706051118459527 233.53313424560278,26.746526399488403 230.61641185521486,28.452522546718342 227.7478583452353,28.724766531423484 218.8319712225698,33.75610553118224 214.50949281814363,34.765589238871826 212.28893965643653,33.72563115884543 206.6694833518746,34.718244977870995 204.5674298723401,33.37484884935441 203.17675908961743,28.80385702498245 199.98762768074167,28.193666603306156 192.13973531668213,33.011494271249035 185.61618843825127,43.22077856333442 193.36536428235277,49.305196045119374 206.43845356070818,53.78094483702637 217.65257610552948,54.33609026347199 219.79318465001674,58.987730184721386 220.16583224994272,66.2473041196912 216.8954975344379,71.71642441008748 209.27412584296812,76.5754129329157 205.61274935363727,77.98851893869187 198.62881481338124,76.46912093873254 191.91224314995497,77.41974113780861 187.94763084384712,80.2792883895097 184.6780764305295,86.63106600399078 176.75919252996394,91.62527768240034 180.47981441600234,98.5407129743785 186.28598487118,100.70016755441839 191.20948190186314,103.50997285472579 195.92936101873778,105.29214054472732 197.9540640889236,107.27478687553219 192.93197327329815,113.96765816229663 187.28260783464083,117.8281732815002 181.66707162431854,125.75255393526186 164.14011877936068,128.26351966635593 148.0993455973313,129.5511831252038 131.99771568860228,135.47953172535733 121.73075913496459,141.7520073811089 100.4810647637061,139.5071364324191 89.61992175527975,146.35876813158598 75.57068076968855,151.71995616782158 70.16746064647643,166.4653698685263 68.08526116377463,171.07429983330576 63.79122242607024,177.69993122684343 58.055101588448345,181.8546986917014 48.94850617276147,189.0164508710236 43.51861038540005,192.43780323253475 43.004488494319354,199.1024109219552 46.95777910469756,205.4200645177217 42.79283475613399,203.78844975323238 40.80313382537592,204.34613046371135 43.74008515122615,206.46239039079637 42.00025663244175,206.8376059981606 38.41591669958884,205.5628139494787 37.08099358521284,207.51138231511095 36.71157191695782,210.37215065628277 34.969692191276586,213.88565773553614 35.10340860558541,215.72995500690058 39.334411516512304,219.18981482875222 39.18300168312939,221.99501415979603 32.953893154460864,227.73664539859078 30.693245983499395,228.85436279455985 23.354887272209254,227.88738881749202 21.111880671117746,231.87370002634304 13.305772367899275,239.26031442137003 10.800794580250809,238.0620970213398 8.978489308183821,235.25941350130995 4.30047076422188,232.6427608039861 2.293276049102459,233.87863961943265 2.5501977324857377,235.62399994044029 4.890073116430604,239.93575989530132 8.35724607510638,244.64097650252472 8.127055920320952,248.78704937122552 2.176141203296135,255.78417222923326 0.9010096856860674,258.8050775467909 0.0,265.35764599375045 0.3196904955381908,273.11818460522363 1.2279660525685654,276.5860399166754 3.7718494985863398,283.1823561311377 3.7340359616368404,286.7983815660468 0.9100811908464959,290.40454025661325 6.272298963420588,293.61823239217983 10.781370299242539,299.79549983564846 16.976460799135406,300.3844593093128 20.543376448587743,302.43031014954 19.911961494763602,304.6560395376681 16.398316318351533,310.53754580087127 11.696279871800032,316.6456647784462 9.15316494857472,321.0066260327478 12.243597424946556,325.4186688697074 13.5785902148396,328.39743298704775 18.24453319804082,333.5930834377143 26.994760985599914,346.36082090127036 28.644447402412883,352.75871385699986 36.810274774839804,362.3085500985062 38.879221535904776,366.3126548896772 46.49430407412494,371.65800100383797 50.035558111055046,371.0006323946502 55.00560039969676,374.81485276443027 57.461442807893256,381.86091485296186 60.407268522381734,384.24309306385896 61.38996517804681,387.8233380528618 59.49785534887728,388.7214283011342 55.677316094879615,388.4352811742019 54.84646588635358,390.2349007661038 57.52502545547893,392.50253190149976 57.673928283929484,398.1676785953873 53.691912495167955,397.38250240811317 52.99835731617079,399.70787304389944 55.28291401778771,405.58012084208144 59.751003182600186,411.9760624265994 61.255171561811665,414.763603315419 59.29274734839017,416.5361523278748 60.62398981812828,424.23371002925563 65.0102518537557,422.75598273300045 69.44761131760028,424.23968970282016 71.20240186286522,425.4721782290102 77.34999013864594,436.5154938182082 80.72299783532975,438.7245298287072 81.73969877284549,441.6727665031991 86.29492358472058,444.9502448231384 91.15919281946387,450.9218949940963 92.13093131621055,453.29133043814903 97.32904457167892,456.8798197272594 99.12359554926093,457.568971338479 106.41929891898612,457.1382853216694" /><polygon fill="black" points="620.5196542449239,880.6254881491557 629.2749266042507,888.2475771604818 632.1710498903475,890.1121005143073 637.3058248944166,890.4697589637349 649.5824471384285,888.5348190324816 675.4739324678919,877.8828509791938 682.6568304746228,872.3942323517757 689.8184616322449,875.968646439972 694.9961752109873,879.5873683695115 699.6131513234064,889.8010726145751 714.84762879222,892.4234290110522 717.44227120961,898.1166790747894 721.0629098476815,902.033857946985 730.5377689851613,905.3807446858278 734.8308670220383,905.1131084218906 739.7244843444664,901.0841709965861 745.5366194327634,901.8317765396224 751.5696269538589,904.2080280128004 755.4346612927135,908.2387732908124 756.1540142476352,913.2565083583304 762.510167388403,912.8789749195691 766.7218476829826,913.7861015612632 770.3487940677168,913.431460073379 777.4284606746617,905.1839550192761 779.2029723638501,895.3570385172729 782.1867557550867,894.1872766709649 786.8828541906853,895.3296114926536 797.1894732864471,896.1145079746508 800.6275914674259,897.5506107264418 803.2822465655078,902.322415223276 805.2150313169327,902.7164908830945 808.4985856381028,901.5028011054738 813.1567413593705,905.9637064265805 814.8654867793917,910.7544644769888 819.053335235935,912.0771919489858 823.8784750392107,911.2540970297771 832.3470194798657,908.0905458212208 833.928493951317,906.145392184316 833.5618417645109,903.1932221115702 840.767806211373,898.392129666444 846.5606436833367,898.6061326750992 844.8606354836089,903.7654494168414 845.1030165051724,905.7142617829705 847.6137973509849,910.6695994063175 848.3499569197088,916.2578145061448 850.8372770338342,919.1350673805837 857.2423628362878,921.4665513270556 864.7614334478104,923.652947890982 873.6355130239259,922.0531834002389 878.0659124163064,917.9262873993619 888.8608927613312,914.8462738281409 893.2654169063719,912.6002580235495 895.4279758182771,908.6396114471796 901.9746437897629,898.6663265198914 904.4666247109096,896.0113283948849 909.0458479634934,892.3363671576575 912.3661739220335,890.3164555505709 916.6824617544082,886.3231555798633 922.7968329167126,882.5410477678365 926.8616956714469,878.9002614964108 932.0881743384309,875.4963070879763 941.0243095292932,867.7391680023903 947.2037608487078,864.6819776520733 961.8628778262041,861.8780008588433 971.9089761110497,859.4220542634857 973.7234900574327,855.0341805777462 973.7823811518413,850.2313174273329 974.518993947318,843.21725483253 974.4073811817804,840.5872470875457 976.4168903921344,829.678253934746 981.0910122037745,825.87221218583 983.1802562911182,821.983791707371 987.5336549749385,820.8350700582128 992.0510390201522,818.3152284952649 997.6996538287183,818.5529559605087 998.9342776450833,816.0184756111781 999.4619060548316,811.697359900078 1004.1433904912518,808.1956691098943 1006.1572745274724,801.762239911986 1010.1676733820813,795.784102564612 1010.3948103614009,792.019567279589 1012.0110472825568,782.94613769511 1014.1761573634726,782.3002269128052 1016.00895097334,779.3733695626667 1019.7729289026508,778.7053850895368 1022.0113705455924,773.9390187871986 1019.3218379790684,761.3311827700289 1021.5463299460386,756.1676433200286 1024.0,752.9873737581696 1020.9449459152065,750.0604201568801 1017.0376211727568,741.7990793791146 1014.2077829537803,736.6495122071927 1009.6081991638733,734.2267971715694 1007.0876338723073,733.8367113367403 991.7993816500666,721.903267391637 986.8293651621524,711.8212570692897 986.6488030101418,694.4143889354264 986.0750107030245,682.3859803057142 986.027000701402,674.3555770479188 987.3241618549728,661.4053463212801 988.5034031913865,644.0555759380773 983.8519559531475,647.8387058861867 978.4620724203576,652.9497067567602 967.4524632725654,664.6384246809976 963.4909489313727,669.6836234984755 960.6531673613083,674.5296720631391 957.9737367948079,680.3947087351373 956.1847219494701,686.7449392310889 954.70374223373,690.3181689909927 953.0226947288232,692.1318821451506 945.0458831287672,697.4027520035787 939.9963435477017,699.8252115885052 924.7252250318669,703.7142105930693 922.5462483359638,703.588515899953 919.6068069660915,700.7966258315178 911.2678457098806,697.4594321439301 906.4833613926103,696.1442521017348 902.2071014567589,694.2356499003245 897.6134132751238,686.2603943340348 889.3675663410073,674.1493842164334 885.3469057485405,670.1493984984052 879.7294958969278,666.3829092654947 877.1171735762206,663.9904610971862 869.5985738540189,654.9382271655113 865.6342912617101,649.1073380634714 862.8200651985088,641.1579546666989 859.4865754200152,633.9212737252653 853.08988292148,623.7831712912002 853.7864742603324,618.9392824444669 848.691001407724,617.1273379313393 846.2420734934964,615.5880045993599 841.8885541422222,616.1414750897741 836.7627832161887,615.1155619413325 830.6555926880197,611.105227347941 820.2260340875193,608.4116022577225 821.9165282675646,601.8683041698386 824.8628185124455,584.2521552856006 828.1544637570084,576.9050010279592 829.6976343871448,574.5200826247074 829.5790498189131,572.4450466417902 830.8289851600434,566.9157612736697 832.0985439826458,563.907869153821 835.1922902779435,563.104954314663 837.0651892480294,560.7150621991977 837.6719838167073,556.8650484869771 839.9231572355513,553.5492334175549 843.3891050847682,549.6922842581125 845.8829138374159,547.8434018963344 846.6218518545364,544.441671233111 851.2505381535796,541.7817362728772 849.284702621358,540.6627795307568 857.0863271673566,514.1816448373759 858.7286189295153,509.64245291688775 857.5854622081919,506.08624752876256 859.4834854988395,500.63166949279497 862.5955777639173,498.78398532579064 867.9559771765884,494.71514293367306 871.5892177425529,493.13772071914707 873.052164120298,491.3418141479212 878.8920666637562,486.810342830386 882.1497830336975,482.1263735474522 884.7235338406465,482.87240542247844 887.0327431423831,482.31321634865577 888.7737312951626,479.3514601616867 886.7741355788708,477.4074073286665 888.2407458454799,475.1527239476289 894.0242732405073,477.4132454574502 890.0480818794242,481.86007273662443 893.7731385135781,482.7273406780638 895.7942753286426,479.5866756296039 896.4351159351376,476.88953759038503 894.423108931242,473.9739389066874 892.1015117623391,473.5692939430552 888.457959186308,470.25084278578163 885.4044440767184,469.98660937537613 882.7208514225756,467.73618426266563 875.7581951066077,467.51277976300867 875.0231873134899,465.9723606228013 876.2276043341561,454.34380714922804 877.734068469032,452.6099288933527 883.8676666088477,443.31593572081795 884.6540806938428,441.51439760720916 888.1962975881701,428.2590055158517 888.7322194621031,427.1531636682165 895.5092895278741,419.29456220357133 903.6271927745316,412.4222205149867 909.7118387699215,408.9486519910306 912.34012402381,405.89385293322584 916.1787526984399,404.0170478115306 918.3382525871244,403.8342686308291 920.0340289583545,401.76254489409393 926.349781441695,399.91361904579355 928.4433663913334,400.30851164239584 930.4161242127374,399.2683154627581 932.6766712510049,394.60667505285596 933.217469912092,391.21475215836585 926.7099029061055,391.1886399593227 919.5721177852196,395.0856033106411 917.3425041474889,395.1213197321182 915.1799666947203,391.53378652799177 913.3049592500993,391.0133976347855 913.9495030387786,387.42188029794556 913.9313722486834,378.4432161849461 907.0562696357196,380.5726216581347 893.6161512275986,380.9939669628362 891.2475900181533,380.1687029137669 883.3220901878891,378.62283243568436 874.6693895214032,375.8525572223148 858.6302858982009,374.5741902782636 846.4395599891901,373.1115163260264 829.9132594045933,373.61670656424894 798.4748566219607,362.5837579840287 773.3935957883633,352.60504078192366 751.9639436184342,342.50965720701515 729.4688345577368,337.8550756886169 700.4627133518836,338.3816121286617 680.8485532064412,344.3126438170202 658.9101452723844,354.78676803216365 643.9176499027312,364.365310633592 644.657200679748,372.55643988715667 626.8888901636129,379.66171882741924 619.1003310640862,395.2212321966048 605.6383264472986,415.020663225133 605.2795182240592,418.6529013732691 605.9670696673522,429.9239464841089 608.4218450208889,444.260259433682 609.7279067750765,448.72083606227926 612.0289847199078,450.241080361266 611.0144447258292,455.74878916186856 609.9452561739167,456.72230247612134 609.8709019245606,459.33545686094783 606.7565529819292,462.468850646879 602.0390496919898,462.0487913765132 597.7205359202218,469.06121615438497 591.5398300632093,471.45762073644215 590.3209742790025,473.1892136554194 586.8678973453361,480.69506559948144 582.9212027291675,486.3806479727809 582.6715385031032,487.6814556355408 577.4182383981395,491.98662246990705 576.8944492082832,493.1500225997335 581.5500326789495,500.4821680672294 587.0128585094225,500.09956291172 590.3942274005306,500.58873310906756 592.6126385745426,499.60631416165864 594.2895297521613,496.0861621101354 598.4261668423612,493.4709084550501 600.4795441280629,494.9658548757646 599.8568950327805,498.0637006911061 594.9683265482284,497.34133732005176 593.9426416372546,499.1325034980217 597.8601172428978,500.48998675468727 600.0109462562979,503.63197292868233 600.3826079294865,506.91992336989665 599.6741440972462,509.3500518627661 595.4731412432812,514.196898746565 590.1292735977806,519.4806390786514 588.4767782108194,522.5422277184289 586.9131417027763,528.5731047518528 585.485222545857,531.6058604492089 589.6922020074661,569.2664279428386 563.368788178473,569.3799585950114 562.217911228318,598.877164693623 560.2503741392959,627.676873165856 559.8757285941515,642.774232875709 579.8542987231672,644.2575631361879 592.8023944383176,643.6413948266688 598.1168215512193,644.0938081828815 613.7097424757254,647.7567463261782 620.8327453473603,649.8055942915639 647.5859432131216,663.2042248448518 643.2254915954182,673.6748264675138 641.8842448272325,678.8250078740793 649.5268536327159,680.2610956968992 647.7651785183165,686.0436815306697 638.8869442655127,702.3996891275405 658.9370418426895,704.989916512803 677.7867122275775,705.2555638685609 679.2414788216979,707.2999461538528 678.2593575010308,715.76106808361 683.4598529143972,720.024045972334 685.3850834160884,724.6785752901078 684.8386525211109,747.1375964540117 683.7772684657128,768.5782077571788 683.8756447459718,791.597959326737 683.511365789623,799.035147396729 680.664832618289,805.5639811216784 646.2245945918701,810.5239080641421 645.7286698828069,811.980625872543 646.8928504631164,815.3718367043855 651.6361645298557,819.1261162842023 653.6936238068854,822.690938927645 653.0667867197728,827.4272190742162 650.7619437528701,834.1803715300643 643.3580207564769,842.7621381470803 636.8932414998606,847.446843065421 627.604198257725,849.0840143936871 624.0053428915107,850.9179867769449 621.5630663075214,856.9874151256521 620.7815531632851,860.704529584624 621.355419377458,865.4321523354694 622.9074257304362,865.7581896557771 626.7857577063575,869.6438469085651 621.3138042390613,875.8714594695771 620.5196542449239,880.6254881491557" /><circle cx="663.1507979123633" cy="511.36743583360794" fill="rgb(100%,100%,100%)" r="16" stroke="grey" stroke-width="8" /></svg>