<?xml version="1.0" encoding="utf-8" ?>
<svg baseProfile="full" height="1024" version="1.1" width="1024" xmlns="http://www.w3.org/2000/svg" xmlns:ev="http://www.w3.org/2001/xml-events" xmlns:xlink="http://www.w3.org/1999/xlink"><defs /><polygon fill="black" points="914.0134699663356,575.0782711729407 916.7048918531499,570.5439342735806 917.3693621181897,567.8308654151544 920.9423551704004,560.1331123839097 923.6412652350183,556.4934383857476 929.026800742781,546.0687375873565 928.9881909463041,541.1112427094832 927.1305956790521,533.9073262639549 922.7730132349558,528.985176204768 919.5741498838698,524.5002190349608 919.0931356597052,520.4382422337494 917.0154740082202,515.2741574361665 912.9197516300596,512.3742849989014 906.0919839091622,510.85036273129094 901.1200941715824,513.1510129512523 896.8574907956995,518.3713353687476 893.0117122579423,521.3306189431413 888.2664082754599,523.1716788988982 883.2733286504775,522.0762866375428 880.4979684287049,513.9738325353899 881.8216773333705,507.19646104205896 882.2147581075155,499.7506948146754 877.1786322170962,490.0846531675528 870.7894941886717,483.35636510191244 862.6183281485443,479.57501573236937 856.9747648803075,480.2846033111931 850.8922717165582,483.69657687414787 843.4411169084741,485.09132081673 835.9832782366708,485.58185657802176 819.7191240453324,484.96859074936486 807.0827141760874,485.24396863312296 798.4937211038903,483.6889493474018 793.972562123551,483.25582906808825 785.6114839204719,481.47921269485414 782.8902213442595,479.68745138786744 779.0264139151944,474.0635455729326 777.397245894439,468.65143706132017 770.9871891756186,454.01422172038014 767.592296796356,451.76839892753975 756.9721908603492,451.36323435849795 750.1868700099232,450.7168016680016 741.7717668943501,443.08905758375414 732.9047606619395,433.65217481155065 727.0214990081499,433.4602073976677 717.5312403014254,435.0951413122713 708.4644926004548,433.80747777714384 695.9640313711361,425.99242788261404 690.0341367516456,420.62500197634455 682.5676141825286,421.5934373287758 679.4041148573933,424.77720164888467 676.2733137633654,431.7885782683215 675.4265022100539,439.24448605996986 674.3237102219568,444.4407778322319 670.2591228358216,447.4081140994108 665.0540199388909,448.8111162626308 658.2355018817883,446.8397320875437 653.2204352664439,443.0511684394388 649.319323355439,438.1144336708159 647.4612566881657,430.912255768657 646.9715876053162,424.6022739026935 647.8141626235664,414.44515035943766 647.979438098709,406.3232606268838 648.8472427918225,403.0732044285703 657.0196466551154,396.3673912526467 660.8228292594268,388.24754272031873 661.664231973706,380.09366724305426 656.57086439984,370.3989614191057 646.1750915940331,369.56086412155014 643.2337582981881,365.83187596787945 648.6050525611076,351.778501861225 645.6747546305926,348.0397722913291 637.5402318750529,344.26427421126095 632.4143322545953,337.5382891515917 632.4910479920304,330.85906216164653 639.2642683469406,322.76874407231696 640.8216971975766,316.84465068364716 637.1633422636455,311.62011731188727 631.969430485294,310.09072225631644 629.1420934842903,298.93007397971553 635.2143783683704,285.6351851930781 635.2829582637482,280.44144612128775 624.9194028780889,277.38325763927264 620.4968700660786,273.62863915973423 615.4982886810991,255.78360272992586 615.5664169764786,249.10915660031662 623.21942007484,229.15574867336716 618.8177277020194,223.92140891509848 606.2851278407668,216.37761692050788 591.0527693767352,184.3281584237476 562.1176374032643,185.48081953887515 540.5895280728998,189.66269010566964 527.2230406515926,193.93138905725903 520.9567769043989,191.66407640661942 520.29360329331,189.7173268974226 517.7894362903338,189.44413319763817 511.8174549577779,185.97215384040896 508.24012455586444,180.86063844214266 504.98696525041186,179.32989417085184 503.5680006094808,177.44399136675463 499.5573018891579,174.4913200800803 496.39715155324,169.88821014094094 484.350901303239,159.01443762579504 480.88422904680414,154.50228053544902 478.9582456774328,150.46823542456457 478.3919449188487,146.601018122955 474.99147431423125,144.44412277924766 473.43484161769027,141.74754766108333 471.2085604529709,139.87332257406206 468.87001754615545,136.57363406655884 468.5692300083407,132.78203149059266 469.23974834302896,127.41600425875333 471.23968686967856,125.11129064973545 471.34914894960446,121.12070445089137 470.22088198464405,118.72239532793196 467.7307576791811,116.55284766556417 457.5732393449563,113.12523967931861 456.406845496256,111.82033995706331 453.5584670930526,105.55611813148255 445.96722506026305,106.39393938577086 439.9598449248107,108.751037686509 436.1082025853911,111.35289023208247 429.6291290189381,112.37193485963587 426.84281887122523,111.74501660296937 424.1152830872888,104.57998599680445 422.54150115114845,103.14272595902935 416.46679873425916,100.78986471419671 413.1367970538338,97.78573126917308 408.50152931159624,95.70111680736181 404.44104726261475,87.846138423389 399.9856571771494,86.46056116922864 395.46277219199794,83.10710359294171 388.4189387461528,80.79148664259117 385.36933664421866,77.28352324628554 379.6212843168279,75.25301550245297 376.0835461783323,71.61297601460262 374.71345851025245,69.11027211816668 371.2913816891658,66.34429416916453 369.215556648843,59.95767359021875 370.7857640158511,55.20858877452906 370.030195087842,49.93607896238086 371.22424228684196,46.287743599142345 370.7570055208449,43.351960138492245 371.8831756837467,39.1615589803273 371.5393075874078,33.50632607644468 368.5192361146513,31.727958973819796 367.5192307320401,23.854147575634897 368.98920201420947,21.402324451803565 367.60897756904404,15.070320359911307 364.64222890156117,14.394003582819323 361.6137847192575,15.068962745477052 359.20901081252725,14.323131522306426 357.60196734305265,15.99196288215876 352.9359110788653,18.287989927126887 353.0278242803849,19.639598188665445 350.6569648830962,20.998925640350876 348.2436821645685,23.901711455115787 343.66965015592353,26.051399810932594 340.4255717908133,25.528728292436313 336.3303739508795,26.689545680876222 333.6916683459473,22.110145554142036 332.312210730918,20.940894652099246 328.61486347293504,20.855232467662972 322.9166520876158,19.430477676052192 315.91803208096206,18.4523613330864 315.2530913053665,16.131959406469377 316.36616927609253,12.474607069089984 315.5938051887452,10.81496230918924 310.8259894831217,10.609415193516156 308.0112869143062,11.218732565168693 304.9917187868408,9.567530024340044 298.9612502314581,2.9192009667899583 296.94295935373066,0.09969546754791736 294.96290488453025,0.0 293.45065258056184,3.6251782107168538 292.9108012147069,7.0479999764261265 290.30366285887027,15.57007892174056 289.39299779476636,24.07130933430335 289.82666264142165,27.07026310706567 288.50269725387784,30.201740584032905 284.7843243187992,33.71715160195106 284.31415331052466,37.26952180426292 281.99369392044076,39.758187143900386 278.78892657936524,46.39419781425647 277.6761256994302,54.47314438368039 272.3602099274795,54.812600260515524 270.2346826781565,58.24995268762723 270.4582032573707,67.72003337388685 269.54673196714305,74.91057833859804 269.79975267011145,78.72820221909558 269.06122112060996,82.53710740347594 269.2929620236833,87.47700543217502 268.54935369806935,94.25546672701114 270.0056114701316,97.12857424085303 265.6980955035799,99.93227679633799 261.0607054974222,99.5506079192977 254.68701670984848,105.84869372456114 252.95340191233439,111.12063735510424 247.91224344339653,110.01801993967001 245.28553313659714,108.8542161939622 242.66621859295665,111.35912546498571 242.2218686102167,117.52673926421176 243.4137619467856,122.56891280195771 243.40177725630366,127.31468369370725 240.88658485748633,129.53594650208015 241.4847011438822,132.35638183081073 241.04087631696075,136.21504593726036 236.15317939016145,136.20822379235358 234.9694207385053,138.1293086371478 234.81465297080356,149.5534648052561 233.92515003686307,152.95808428564123 234.66643256113747,159.1935299927335 233.47697801094483,159.48697409338217 230.8917410084624,155.87450040901126 228.44821611905982,154.58302518649566 220.16524737229525,153.38456561333714 217.1485141100253,153.31045725431068 213.30235197435624,157.7746108429792 212.92006356456525,159.34351816579147 214.1546123824041,164.06640785218758 213.4238751290279,167.8228848849118 209.8269525918625,169.63862543758785 207.58140437356522,173.52866838949421 198.84143880244451,176.16151297290162 195.5040192414216,176.34179874324423 190.91006273987713,173.27064275005978 184.60200816940625,172.82474831372474 182.51289734969555,172.02302148329022 179.0160371053602,172.87280577712056 177.5365944845865,174.652641961423 177.38923561804015,177.17289390391443 177.98067544636433,189.18821369194575 177.39043137393037,192.00847039585187 175.01418173817953,192.29779971791527 172.1990424011428,190.36642570898312 169.2367162016635,186.64642670639182 167.31160235665195,186.79421600876378 169.05710766892287,195.6738591387484 167.61098063714076,199.24003905612756 163.27684695240677,203.00860889644662 160.35871274269823,209.47888705599019 155.90910139314047,209.32521332336012 154.43024017253992,210.9590476307767 157.69051057155013,213.48500414313946 157.53550095056715,216.74266140969246 153.38988872413472,216.88627347290867 150.21949024750347,218.74176478532195 146.5764590100869,222.81190819254027 145.2458128165195,226.96975638374 132.04810635828545,227.5566270529198 131.1544252095839,228.8917542723151 128.63794756456934,240.01679664333096 123.58014732316846,243.13370101952853 121.96811115292712,246.7095045230817 120.8884541256036,253.2820283906285 116.64542339141457,255.77174799303452 112.88604188353949,259.0037261192946 111.62347546456246,263.31946357932884 105.05857690995282,276.57997365093945 102.4090902295375,278.3213520017606 100.3718152070282,278.32806822006876 97.19267028531836,276.83027637198643 95.1439589325497,276.83776210177723 93.6948401532619,280.3686017085606 97.9080063023993,294.9208765546971 97.90236510714237,297.4454790635277 95.96635218127759,301.45087902631406 94.04197448173171,302.3438670366876 88.83586677281603,302.6495640801751 87.3569671670275,303.98817221036734 84.18777022657522,310.38614377153124 81.47788522331605,307.999722773372 77.04001821949163,306.24901230717046 71.88096319708178,306.91381835129516 68.81455973350702,305.3701426929556 65.28650102491218,305.84008128422715 60.463160371053455,308.6544842163927 53.5366744460002,313.685451429925 50.07692915377665,313.41812730491347 47.819309892547174,310.8968424905272 43.64946983863444,311.04511989060074 39.281445240181945,313.31112224682283 38.52617601696477,314.9621641465843 34.835069132476015,314.3324589132012 28.886357895694463,315.99998729101037 26.822748015296295,318.2718461710772 23.830205679006564,319.3450150256331 20.90088422523404,323.97549115300717 19.251480843699564,333.2932559296412 17.66864327062739,335.6352196006653 17.118176326898002,339.1405776658959 23.243563422082204,340.23068790606885 27.769540574167163,344.23447324579115 35.311987701334175,346.02068802759777 41.261099414026724,343.55023723525767 46.06672359091156,343.56535877704425 48.39344031061986,353.0470296736505 51.30586458810347,360.544842841898 52.11270653263793,364.6555592030037 51.512677319157206,370.0136393119566 47.549990560818514,368.71790301976546 43.578814896269215,370.11401893778395 40.89381750829484,370.10293735819107 31.678659055426408,365.5144400740194 29.60966216132774,365.4457426474995 27.525856751131982,363.81908393299557 23.85690865647781,362.9500630847459 17.966752124925225,357.97214721465605 14.711583923491844,355.806570563882 11.48970449758186,356.23197086219034 10.158825919266437,357.9040776526308 6.391132701665843,369.6629916178214 3.56571079837868,372.1387487104165 0.0,372.9942819719498 0.06665934101428886,375.32676887096295 3.2274794427120557,379.59401732163724 4.806646929876789,384.1203768569161 4.879934066328362,387.69855235675436 9.707181895668265,395.2206410301741 14.504311857265895,399.92104014162317 18.691594185318642,399.4597612971919 20.62971510762874,403.17838159536996 20.01135457673385,407.239332841365 22.14301973929852,414.8248700946764 23.787331384749933,417.2955815199576 23.034911488695244,418.6068603272638 19.390740796380722,419.0191239005342 13.471664242085101,423.9713131310952 10.238723192805645,425.14402755208397 9.449081610188168,427.97614269261516 10.80082725754424,429.05248012319765 14.536273182872062,426.94389818975935 17.952756165783065,427.701055222844 22.80531597456621,423.74139940702065 27.888978500743523,421.04836868102456 30.266986103017068,422.0794524587098 32.23172031839394,421.5285848768187 37.02909485317631,416.8853764728109 40.25603886387431,415.2323136048487 42.081879408281836,413.22347157105776 45.81423797800886,412.2028985531349 47.0929904865249,409.5510613619183 47.45877211417928,403.2009295547625 50.43400205860069,400.04231599526145 54.73092870042726,397.0355049666671 57.02296984335306,394.49572843211934 58.18803215785198,391.87999453075474 61.71535542559734,386.97523311420434 65.27177130779229,384.0537805872407 73.14441267657689,384.91907830526463 76.9001202880047,384.5811139319792 91.25684722603654,386.84957573257964 94.77896209773009,390.2049617507463 96.0873522917316,392.61596729994767 96.38323334581301,395.75409869832674 99.62722084543636,400.3146145630931 104.6834371835321,404.1007952820843 107.23375815281553,408.34089850240264 113.49518087000845,414.665406691097 114.85288451194862,418.29463436998645 113.8386685519666,422.3332398691698 116.73366962767915,431.1521149815192 123.58265197231248,439.4205620460213 125.67210325858942,442.79893086940444 128.01837621943326,451.2446945209583 133.1311791186674,462.14480512716136 133.750995938795,465.85012635160393 133.01433389288346,469.78329443044277 133.67084139705455,471.9204793034978 139.09401266729074,475.36089198984774 145.3668075506344,480.01742872847774 148.87181248591833,481.43492922069026 152.02584676695722,484.11413347753046 154.0182004521441,489.227769500825 154.53920066464215,493.6625407487312 153.7204091865937,499.85565905430377 148.42962705538517,509.05277094894404 142.94864690304678,517.5743354629046 141.5733071104138,522.9240522564517 141.40380861295964,528.7099025278271 144.30676389121172,534.0924862684458 144.89043949722753,542.6937385193642 148.71268380123195,550.7543554635105 153.33745198018113,554.3997497072719 155.14834869488874,558.1566983195437 152.40437396642903,563.8005185908482 150.26075745224074,566.7808508105027 147.07560433589012,568.1540348928288 141.6626974400981,567.3255394214245 137.5163121754505,568.28244387874 134.17099390866855,570.2070489098837 130.99980573402124,573.2695037168523 126.38487587981457,573.7970343941345 123.69524326662328,575.8203718239392 120.0631450152919,576.6064842290937 112.08710373542046,577.4593688984355 107.50113158693622,579.205372918319 104.37528146596547,581.6118217872821 104.15504455393584,584.1863329747598 105.32119078619125,586.6093896552358 105.92160923603201,591.2795310282341 104.85248423581959,594.3909740034396 98.95911192962414,601.398066133854 96.94718712570427,602.3288347734315 92.42003156361707,602.162752267718 90.96831901768162,603.5894522132819 90.9959681296446,606.8596393244414 89.90612665751607,608.0497665301672 89.28143816549574,614.9081307690521 87.39587966876623,616.4957839305034 86.79608502189434,618.9108257647118 87.3715121436103,624.940569974406 88.28353068184333,629.1630331758313 89.17613493712874,637.2941913460743 91.37055893587826,638.7304206308654 92.2234499462477,642.7129692088101 94.75302019928102,648.5881819416145 97.40992708837292,652.0346012156551 99.62246006508235,653.7297804266552 101.51954415360841,658.1481016864559 102.01456331882295,661.0359982172378 100.53774789820092,669.9869147292079 101.6311833168184,673.6675256187123 105.6098022853748,677.5247604581839 105.29702790620682,681.1272224030586 106.16718155920489,688.5962279503349 110.870119695655,695.2439273941583 114.34514421350215,698.1997906815036 117.23815455146035,702.897417590141 120.53650958874563,703.013735465642 123.52306259163664,705.6139501604558 127.6363229417743,705.4043055698462 131.14805339793176,701.6106537111144 133.87065516513218,697.4862583820279 139.97073763643505,693.7461425092329 143.12940219589362,695.5696842961287 144.6799958718637,697.7665092054544 144.72478590438973,700.6330487555754 146.8917283886978,705.027457871893 146.6843217293445,707.373671970842 148.28307461318266,712.1238993663894 148.23960566993063,714.5268272660577 143.24114965955255,723.3191042314659 144.0035093455641,729.5312593259973 143.13454577496634,733.250460967342 139.75597024647487,736.0287215644424 135.63194213559177,741.4176258615846 135.2477313250415,743.9107719983127 136.09030013643468,751.4017336253673 135.95896885490467,756.4513206608865 134.5903794842378,765.0225081267173 136.6862893652149,769.4557232374758 136.08622372249488,773.0386597250563 136.71866657332933,775.6913240658162 136.6850781888811,781.2508644781976 132.58941576837077,786.7345024955207 129.45326576192522,791.8670227569114 126.19186812283338,800.3664591892971 125.48470184900658,806.3476983668215 126.69814739875287,808.4970713731265 130.2154476760522,811.798202633704 132.04101866450455,812.445115733972 137.6398700927139,817.5059531334456 140.23834925025517,823.3616459281624 143.89915445803842,826.8310633842392 143.0851808682459,829.0079710387384 144.7354485848546,832.920724807455 143.03797029825407,837.1340696156352 141.67921836360563,838.2414179819157 141.11467613968463,842.3553742132196 138.82100377782595,843.2863046073536 141.56195216280392,847.2007560268263 147.7375899251654,850.407677300571 152.21561782110476,854.6348079429812 156.02197749452276,855.8839932743058 159.45998541581272,857.9900558420744 161.88904831575988,858.0130253292226 163.92564167659765,860.3193460171009 166.4836364505077,860.8524401405543 166.7704797165079,862.0769580709566 169.26254320550822,861.9989496315837 171.5741264365298,864.6503206899174 173.1456651236564,865.0253575519436 173.16286141932954,867.5439770544333 174.7788088748922,867.6240414859647 178.7365256533395,872.5688176359923 179.9790234072081,875.1165253359904 182.74709920272494,875.188449283551 183.94220508011247,877.3201943060237 182.0177370432446,879.5619021507773 182.501726578738,881.7057798047323 181.2671407698397,883.8327616547148 181.59664033484768,887.1694524457091 183.90253415132935,890.5253993046326 183.78977390858302,896.1174950597167 185.09241085817047,895.4531453447465 189.08294226122737,897.0828614794569 187.22601146965786,898.6036206517913 188.48788460166082,900.2544741136963 190.6076666006897,899.2362477873847 193.0291981281449,900.1750371846126 198.0744865212658,899.0180154480704 199.57193988563677,899.6144868001306 202.40456933157458,897.223206951894 206.2238194817618,897.2577921050894 208.88102314007313,898.2909150327745 212.00908941127915,900.8384625206328 214.02530149410313,905.6167198930351 216.1861945833907,906.9149658843879 221.45713300238967,908.2674729286448 224.71140078829495,912.8251606852328 225.3763570091027,915.6467684836466 227.7351011800596,916.7427377416504 235.0803898013445,915.1396836878197 236.49066286637796,914.1055193840402 239.85949329326996,913.848507238506 247.3346424346834,911.6255720256632 251.1157148250413,913.7700587383083 255.59214983752776,914.067558280956 257.89928382112083,915.2175791870781 262.1690155218725,914.4202478758871 269.6833385981677,915.9845432794964 273.28578678094607,916.1636683111932 281.0987561348421,912.764916914599 290.8280997192027,911.679349487483 300.8298407529644,909.9651194347832 307.40310045627257,908.2310123926698 313.5794680147343,909.6613889190879 318.03009986758593,911.9389661284208 322.6618286511922,913.4115231454016 327.75801641218555,912.2944724947552 333.4728183599362,913.57141608147 341.3473018327441,909.9564446763155 345.77974781743524,909.2970762247714 347.9230531319579,910.4242692422287 351.2692552155169,915.7575489024108 354.75000327918207,918.2761768715047 359.497480789744,918.2576159361362 371.1938699870306,915.6976782204478 381.30575910437636,915.6714922680129 384.77353157647883,915.9760179967426 387.61967889038465,918.1728649631783 389.84195656980387,922.5800364753178 393.5557627602773,923.0613418562267 395.8995305216965,922.1985154268511 397.3782995484144,919.9589307924431 402.11446469995656,918.5770083982823 403.39511616270624,916.6410826526521 406.58334627630467,915.811766038193 408.81380662774114,912.0959051520032 410.86711694413646,911.425596172819 412.43517149065326,906.6948308016994 411.05644802684213,906.6760079961554 410.1941907728665,900.6409885377443 410.68990171386287,897.486455619762 409.4209516645533,893.5788304731784 410.1485714746215,889.8244775630194 408.053508761954,886.2996988804887 408.821326390319,884.083360905828 406.207678450376,879.6943591135979 406.1580200628712,873.7498491300189 404.4712543581375,870.7467646423753 405.7939435397263,867.2202427381051 409.64025457293843,862.007956470277 408.17689973769563,857.9984552397344 409.01456339380815,856.013969714324 412.06464131507414,855.443448269439 418.16743822766944,851.2109891506536 421.7863311778023,845.9612434600683 423.38300392233094,845.7226077685568 424.9743584417223,841.8837588261467 427.7049957622765,839.8663584225549 428.4632980863722,837.4007629000655 430.77139281934166,835.5387891373655 430.6011851363716,833.4544772471714 432.4402825485054,832.3205991644234 433.16557845541683,828.743292095574 434.3397548259255,827.0120464602858 438.4114363521483,826.0040572067219 440.0379824398142,824.3596074958026 439.46881487516424,821.8560922521273 440.131950147618,818.2704339249173 443.1221367244145,815.8390626363035 443.8066101253569,813.6140491764819 445.932609893344,811.1116055609722 448.22060704494186,810.498428957386 448.0899886744426,808.5364924715662 452.1012693301635,799.7553618948103 455.08589559581,794.9373414048964 460.47979286633176,789.774440014146 462.69712961707404,788.9390017349101 472.5874049468878,791.0595114440248 479.56802685981927,789.9032460126234 482.73960735925834,786.2887761886014 487.8236185313549,785.7396103300739 490.1235964576118,786.2824096156957 493.45498893880216,789.5420843784229 497.4829832952204,791.6868764668367 499.7823484965282,795.6238195326806 502.19638798963297,797.7215329201593 504.79479360530075,796.6189849171626 510.35080194439047,797.9865630499838 512.3420087522336,795.3905104929232 516.9044067217202,794.5403889740742 517.4638225344582,798.6884011415448 520.0509627227833,799.4912998033373 521.4462348699867,801.7298266204094 529.8057792053726,807.1856354869024 532.6475737497777,806.629337001147 539.2384024098363,808.761845865647 544.596337200642,812.448753594545 548.2340081597366,811.3889370093665 551.2165951358144,813.1641392852297 555.1416508532274,808.7282773696863 558.7989193393569,806.1227010950776 561.6453747479504,806.537331426522 563.1528465513802,805.6671766444532 568.1473304959922,806.4093530197753 572.6218668191475,809.8406591882725 575.0567707411931,813.9529714822377 583.6885894572596,815.5670496150528 586.5213473656981,814.8705460963791 589.2218862199624,812.2122680960013 590.0849932792638,808.7097062906095 589.900142702142,801.3816555079948 591.2052326680304,799.7972671385926 600.5766804667022,799.5074695379008 607.7085504169106,800.7225020018648 613.8959370953195,803.3474968055219 619.527225807055,810.0298114294708 619.9181721604219,812.0125564493887 619.3694881200144,818.23693829185 624.459653641276,820.5954813397854 627.2139237769073,819.1582540444588 631.6215832850669,818.2741304557244 638.8549029442997,814.093172801897 643.4312561750049,814.2283366042418 647.2861010446512,812.7313863150275 649.7068310582652,814.1131860049438 652.2322933253251,813.2008353286578 656.4551746780561,814.1103490630817 657.5523630805691,812.7092269666398 660.3800482452551,812.8997734849439 663.6595664549608,809.2799531162128 665.3197542544017,804.2639288949986 666.6339933280509,802.7624177117287 669.0533834973754,802.2842723556982 668.9522223984817,797.7319146184649 670.9488636746871,791.3314544548891 672.2013756351869,789.7459007028051 676.7723874601602,788.7880167688013 677.59259842496,787.1274325831779 682.0550331115103,787.3618934497932 684.1521549390781,785.4013311505128 687.070739980525,777.2567856684929 686.0638961839628,774.9395690719082 685.7954807112353,771.0075700139685 690.1464574378728,764.3041381386254 691.877939196904,763.4156596271338 692.7905250932989,759.5542976139226 695.3087705965575,757.5965352876071 695.5912401000734,754.3611792769317 700.4900304182531,748.9928434743236 700.6227894516263,742.593895613 701.3538567198354,740.1934399407531 700.6562531341066,733.4401224895549 701.1774108601755,727.5440530729236 703.3947297181833,725.8534432164746 708.236856996464,725.67230867324 708.8709238982702,724.1130151341978 712.9973491886333,723.0591246204689 716.6862909305324,725.6286210659426 721.0234160510751,723.3370298908701 722.9371036188157,725.1668370100747 723.5619877978431,727.9427067478398 723.0374652886445,730.3442320086044 724.0875181909405,732.1710911401481 726.2743235150162,732.8837937622072 728.1938227258378,735.8416456971634 732.1459686057256,737.052344436483 733.5277652467915,742.8831215054638 736.4500752246068,744.6994221261323 739.015444211257,748.0861548507189 740.4294112220296,753.9553593356309 738.490942355267,757.4050469920455 739.786525477883,762.2568582994929 743.6894995815443,765.4652167011898 745.7419702140946,766.3334573229193 753.2071279312509,771.1377048512062 753.0723673624162,773.9219561721272 755.2566954926054,775.2443787137524 756.0175672631254,780.0110224723037 761.4676025392828,782.6237944064873 761.8358358166598,790.413750906595 759.6171463575436,797.2134444127887 760.0231590652876,798.4918828601086 758.264409268991,801.0379976483125 758.9865379177426,802.8818141202272 756.001493498924,805.8489874869964 755.3131044114758,810.4815247361252 754.0932959858442,812.0946894581296 754.9225835192601,815.3830648492183 754.4510088482482,819.776319630786 753.2847302578895,823.1399249806851 754.2008587000628,825.5771811354372 754.3858158308831,830.3895943838329 757.8627945752414,837.9376495191838 761.0408387608483,840.6618926681396 767.6989888592134,847.8812383341372 769.8570922573662,848.435415034046 777.1215092765628,853.4910412324705 779.0647980443389,854.01759749929 783.3870327806161,851.239208982613 786.1341982601745,848.5568369769419 786.1312827690138,846.8263066433819 791.5526231063128,844.403358670662 794.8647649419315,844.7410475438999 797.0556280762311,847.6090766940008 801.0835834007149,846.161723360435 805.8484860454494,845.9297448963698 809.178365395385,846.9886194075349 817.317223708564,846.9262167802146 821.2838198676766,848.4024658241335 825.2781561012451,847.8528578522374 827.5582007900446,849.0275003813506 831.2270720439692,847.4114407075099 833.058024103476,847.4543341821532 834.8775866645866,844.9437275346057 840.1817352930682,843.5644358942772 845.0053063451537,847.0705965649739 847.2348012592395,848.0684669312001 848.286720113674,850.2651894633294 853.3110012242744,855.5769740977096 854.6054789958589,859.1446669256197 853.971161500726,864.3537264088925 856.4551582516474,866.1387546190422 860.5737264675475,865.6247296361444 860.6482913859537,870.9572163946159 862.3075388609286,876.8037930385776 858.711696279617,881.0965697902031 855.3464152599586,887.0574927675298 853.8254672254317,892.6169645289978 855.6758546549992,893.1595948765491 860.5200002648204,891.4539479365305 862.0682183459346,890.1813261453149 866.5934082169146,891.2236693045758 873.0678865551671,894.336199328421 887.3721066036082,898.9735573255905 904.8715515631787,906.275098004376 917.3758992172666,911.1347410680356 919.5896396391084,911.1408620111353 927.6211669183064,914.4316947372437 938.2855370837414,914.7846503125032 946.4453550272167,912.4529300107339 946.8656387223693,909.0649171728318 943.6564818059586,903.908714548131 940.8943867084066,897.1697617629114 945.6217490942023,892.1636496287198 950.1707956410274,892.1189522563258 956.7433930707818,890.0335536420101 959.6494100909788,884.365868280993 960.7296630802564,875.7860068817381 959.8975759043493,853.6983370233849 957.5395762245906,841.7633699653217 956.7974731016369,833.9793280853644 957.6601138207672,830.3905305363322 962.436162759836,825.025529185684 970.5637809935865,820.22429522814 977.1086587600664,814.2987318541813 983.6680948665747,811.0935595983726 992.0130276977362,804.7094295768765 1000.3741106937404,799.9075509320478 1005.5384591510444,794.2285179146629 1007.1021702823697,788.5795259679671 1007.2467094380773,778.2018278348635 1006.5068439951632,767.8321899659807 1007.7926409799535,757.2185279033616 1009.5333496608387,750.2950941509595 1018.009570338787,747.5376331582738 1022.2904029992011,744.975552738165 1024.0,737.5626121197911 1022.7146511569405,732.7162201488452 1018.1501151986771,727.5761843702112 1018.1465624480966,723.8690939060217 1022.1439999254843,718.7363248555956 1023.2839793678551,702.7652810345488 1020.2630281078971,691.9454484726532 1017.8669329105835,671.2122058588083 1012.6349823790243,667.6357377113627 1002.1679371623253,662.069831794437 994.2147270956498,658.5242834378424 988.0701505092504,654.7409467635738 972.0996727076604,640.8844752310672 972.3386699779714,635.3420292088251 957.6604837221778,653.2846328795222 954.9217998216866,655.744731183687 952.1456217166176,661.1430181837054 950.4798568324798,669.704841822424 944.5003796671396,678.015477276356 936.0063573531122,688.7879916997074 934.0774967533316,691.63854424276 927.8573829041895,693.2854525909758 925.476089178997,699.8880322273465 926.8063528039725,701.8141258167612 924.0691818941918,703.3688490892976 914.3005564679934,705.560419289299 908.618118599401,705.5156628236205 903.8621690451657,704.8088786190178 901.6763227107036,703.6005573825587 898.2041273637085,703.406218988887 883.2849864045189,699.4509787601944 877.6267606670789,698.2677753611359 874.4682768739033,696.206330167544 872.2402843607338,692.5757285504 871.8198409024264,689.192062396325 873.2172722486569,685.8142154904261 881.6854773200914,675.2864634142492 883.7652561157405,670.5620161734242 882.9202198259154,664.6915096825726 879.7972624122675,658.3433265278009 876.7146833431119,648.845151238339 878.3709397768591,641.6348649483202 882.2708046958962,635.7988845489655 890.7269100574273,627.7510546621061 895.5120158676265,624.4038662897306 903.0478284323914,618.1449130430724 905.8127556501272,613.4338720316214 906.7708679286212,608.9203089024402 907.2687653625297,603.5096109631811 908.9388925601703,594.2700873525966 910.1093219026648,590.4412490001212 912.0205870504589,579.1725559327178 914.0134699663356,575.0782711729407" /><circle cx="602.7002644208671" cy="577.9806066735321" fill="rgb(100%,100%,100%)" r="16" stroke="grey" stroke-width="8" /></svg>