<?xml version="1.0" encoding="utf-8" ?>
<svg baseProfile="full" height="1024" version="1.1" width="1024" xmlns="http://www.w3.org/2000/svg" xmlns:ev="http://www.w3.org/2001/xml-events" xmlns:xlink="http://www.w3.org/1999/xlink"><defs /><polygon fill="black" points="647.2340882866816,779.1942689148536 650.1555602316977,777.3343059569562 655.9512521924346,769.5914189925062 661.6577687984875,768.7876286229518 665.0553949207379,765.6957310304904 668.9878643353411,760.5948086200535 677.4377664496687,761.2581575076025 682.6393277192894,760.5888761436004 685.770375828965,763.8470497901152 690.6270693151786,766.1131032365877 697.8484629736962,761.8654689791761 705.7106878668816,763.8850114592851 709.951838602702,761.070529328266 716.9226520836913,761.5182555415681 720.8816575427081,760.0853542568846 723.7584884027528,757.2461359480935 726.867171443808,749.9589204016553 728.9106924757299,748.5974118337435 737.059942279809,746.6403641947286 751.5974963298132,746.2169550747763 762.949693508075,747.5498703880709 766.3292082981249,749.3753237719886 767.742265845813,751.5656353099575 769.2768520324533,757.5754507515854 777.2313590781458,766.0355181259147 781.0578095593228,767.7715024660608 785.6654838275365,767.8838193836691 791.0519553708275,766.1586313807336 793.9545387856347,771.7368031169218 801.7570538966061,776.5966323104691 803.8843119490627,777.135749231651 811.8015618532731,774.6056047714142 817.0657182929496,771.6659126664995 822.0895673670807,771.9475693422096 827.9296705558482,773.7618919335562 835.8461694130427,773.802841799324 840.7109599734729,778.1826117157561 846.544685304209,777.1718549676984 854.4608097794627,777.9157975725727 861.1876097273328,776.3320420456283 865.6630790853228,773.2373134330248 869.208382547217,775.594525646859 874.5610299636081,776.8227344193509 879.0008235340247,779.4623614686163 882.0537864539801,782.2977014923754 886.10959878783,784.2719499884508 889.3927654811744,784.521733092976 893.8812297344449,781.477145505574 898.2406817440263,777.0271618094308 901.423361482499,775.8036443350995 904.3136667503418,776.0971460203086 907.8383725050552,779.191381181323 912.7353688503148,781.5384001210193 921.4253532753103,780.7751979734477 926.0543300283989,779.4336406347129 937.6660631189014,768.940888892806 935.7122711354715,761.6535270809034 936.3165187165063,757.0660306346904 938.9489319867117,750.2099929210992 937.0480328506602,742.786975241778 934.4564416661407,744.8087398618181 929.5638309332876,746.1027939108947 923.5561020419831,743.5436266139457 916.1393221161753,742.14840082406 904.924604638071,741.5503226233313 901.0502907949335,733.0635353630635 901.0292585412673,727.9036113595437 901.8243647080295,724.2481266374537 900.1860919026298,721.4475201076953 899.5920816427642,717.4026728692378 902.8332230683995,712.9090438557266 903.5838401778007,702.7771188943591 902.6231384257761,700.3289534899124 897.5769036208637,694.6859603308608 895.8749405067722,689.5788961197927 896.0970594619914,682.6211178128206 894.8665393903057,681.8191492513072 888.3091275828792,683.0471564990652 882.4022958483329,688.5387379093975 879.3393186933295,690.2953386231346 874.4555549055167,690.8401327697926 869.5834629774685,689.8259887037543 867.0021520118636,687.5648390041932 864.5355827592062,692.1394448935691 858.5824412856434,694.6768531038218 853.1737545124649,695.0471911743908 848.345256216934,692.6986187765965 840.7387904441651,692.5419721969047 834.6406414998025,695.5926769243738 832.4483218929987,697.800554873246 828.6362224517997,694.6863055588418 824.3908725933072,688.3524669953215 822.635175415086,682.080848380265 821.2887017418187,679.8674964872788 813.7283251299845,678.9388408432452 807.665655556715,673.1371121829816 804.3580777837178,674.7325941005375 804.7003508850651,670.902299922305 803.032300459734,667.2125013314718 803.606426493214,665.4279326410101 809.9202512207784,663.7427600073836 815.0953383760483,661.5918456086747 816.9809646723122,656.27001598264 815.9772967546052,651.4024128253794 819.7938939467649,643.7181302745387 818.0681591619491,638.2339624759088 810.1147063182813,635.3513652709979 798.0208723024845,632.4638934463946 790.7992691291338,626.9054624548169 790.0453343429016,620.7576534307295 787.8300848681769,615.9596587735332 787.0141220469557,611.7595403379548 779.855181144225,610.3080593241687 775.1907221375545,606.7581262806625 770.2339198404577,606.2725480085418 767.2254165633021,603.8409627511946 760.8539942700587,604.389344058693 754.2655806993708,592.4026139691885 751.5800007752391,590.0348844069616 746.8991168267679,589.1351779836959 737.659288594116,588.9211163626442 720.6010707073472,597.6828799170751 706.4260719314517,598.9734554015733 702.051391857973,597.771602085038 696.2893403124575,600.1410628334527 692.3074171857313,603.1664737016988 686.771559642072,605.5839789530344 680.2049524546935,605.1032491934736 672.921220725398,606.768422614819 663.8889164118817,612.6838070206703 657.9445191724526,613.2989183227812 653.2960384862491,610.7376264067507 645.9892043288073,601.632131369372 642.8838379354806,599.4425182575545 636.2401369571149,596.8066078789984 633.848805267158,594.9019318682866 623.7621453089396,593.6979157361297 618.4274944621834,588.6843953712037 614.5918338586296,586.6091903766285 616.3453707765683,582.7923152167775 622.8222691607575,579.2011095305916 624.7350976958227,575.4331445468424 624.128146578944,573.0086564479965 622.2546863356287,572.6008604923427 617.4660429112517,574.1033994868976 611.3320769745455,574.1345321610017 606.599569774267,572.6426925980197 604.4457235320106,571.022301958217 604.1973872498655,566.1124305495437 600.5629898039425,556.522727110629 599.891829189882,553.5417909763189 604.9253252760041,547.9234574161125 601.5929664625264,541.9825899630044 599.9172239902283,540.4809299473031 599.7544639816365,534.1633648224322 598.577795873483,531.2158893552631 597.5851278388493,514.7782067700617 602.2097210389281,511.26875440345907 606.5078302014622,503.7730383102944 612.4653147016926,500.2156022713011 617.6641653075382,499.64286665411726 619.7587128883318,496.88587321192733 626.5109387722956,491.4234175762841 626.3492672593491,487.6155466025193 621.4252967464001,487.67905425977085 613.4002469418792,482.688375163416 609.862723242596,479.8390638687505 609.0524758259234,473.97850559393703 611.2106682658933,470.52874488486384 616.075865563657,459.80815204381815 614.7269562871409,457.1664166356318 615.0464982668146,452.9989327378271 613.7248014966403,452.1350890220301 606.6481776383616,455.7212783682436 603.1127497719773,449.8726072669135 606.5324400708984,447.1410819899577 609.2054867287522,447.72618926209316 616.5279275513708,443.687166518283 617.6009666056443,441.20547103925867 614.7224956794074,438.1916674393732 606.5684343367369,443.42677524775445 604.385027385678,436.9560949141213 608.4154706514282,436.260757195151 611.3526901678463,431.40158524133244 616.3745962966035,430.0035222934415 618.6817006355521,432.3537366451294 620.0586688486617,435.67604742113815 625.8605605813023,436.08715503101746 628.3996391075466,433.11716792408663 626.0073663381462,429.0516324049627 621.8182874392442,418.33132593678397 629.2285137024991,417.1159311161513 634.8119740195232,417.844330418446 636.9600447486575,428.01789651364527 640.1164899853908,427.29774232499756 641.3962084361829,421.8763782794608 653.6267226894315,406.3047292976296 655.4953412029994,402.82400861324913 656.8542473420748,397.4129837327888 655.9561240466658,393.16282034798894 656.797243163502,387.4084516559303 652.6451464690075,391.1274549712757 653.4245327497554,389.36343251330175 650.4078807995483,389.05244399713695 651.5252224922856,384.4993534396683 649.5854415705029,380.5360476090085 650.0302431072411,378.35919682045426 653.8308368810415,379.68594524016873 656.0172086067396,377.0121299349024 657.5996766352605,372.1951833322971 656.232262987897,368.9967044749634 644.4506937413505,367.7665462871114 648.40199739819,357.7923404007961 653.9042899726271,360.38951681239337 658.6416915080498,361.407939610128 669.7397808144991,361.27193535768686 685.5710073151437,360.2010569878337 690.5765432627194,358.5657477624046 691.0079983596765,356.726614429512 675.6055603280431,354.9119948750325 676.2484260388921,351.742584700698 679.3128706404162,351.8615076683644 681.9525568758743,348.6311702731698 685.4347586443231,346.8041476915354 677.5659600623948,344.0922775991936 669.5356508021745,342.28232494498866 649.7594358951817,336.2312984809437 651.1342836235885,333.11037913608277 641.6258520673393,329.0197209789111 641.2361258621605,327.7408796067883 646.3442858683525,303.2811690274888 621.8511088071456,284.03261089856073 606.3478803643025,260.8947112048867 608.8550613563733,241.60066027731227 608.8532991230023,237.09329258524622 617.1398292826278,237.71449970351932 624.5609537309766,233.55596336043402 627.2107395322436,232.88628278604278 630.7977463210109,235.49289309966127 634.4017313420084,236.5518048974003 634.8666537241556,232.35457833250405 631.6604805122098,228.63539259409265 630.327997170736,223.93960827592787 627.7481990797004,219.00949626777674 625.4848294233515,217.90250379724512 627.8066041709621,223.71322165274466 627.7482049164647,227.64726169211258 626.6434346888635,229.03768064100802 624.0462362763147,226.79190575779592 621.2829152776736,222.66839020788768 618.6793100457825,216.26976735166454 619.3250755410305,213.35364563975577 626.6828995957059,206.04448313697912 636.898998283487,202.78441159921465 640.8862486990463,200.25462526280512 644.1757121388756,194.97491383555257 647.1363111738792,192.15215555007455 658.7027814229856,191.3923648268095 661.7624090022069,190.41414909049263 664.1521046676984,187.34414938166697 667.0992836449948,185.62430031231702 668.443815396522,182.475471635458 671.3196785795111,179.18072787699066 673.3916648476364,174.549710410309 676.4181891495882,171.29268964950495 679.6486919527846,169.91293805510043 683.4983159260994,166.30371033296694 688.3997383983151,164.95084358378892 689.6272710858234,162.2083532230737 692.9745041486894,158.12050944692135 693.1995880131725,153.83573844401315 695.4172353419688,149.96830678510742 700.5924107862219,147.69505672577577 702.4955861019996,145.6485914089078 703.3349955995097,136.4107849683296 712.3697054776238,133.4426633635245 714.3412340797629,127.71515949541629 718.316425391732,123.82280004940651 721.0222788869189,122.25704862722955 721.6911496416918,117.34277797023628 721.3021537793661,110.01469799617371 717.8876411542116,95.60112338357362 722.7628285542452,89.26790721339842 722.216211371937,84.71578640954272 718.680405449792,82.13768403453423 713.4701323312918,73.42155799240481 710.5225645004189,71.54600595963984 708.2867416542638,72.14431342370654 704.7548326828061,75.2833353709907 699.9379597555143,75.84210086057226 693.5373294620026,79.37790310630191 684.5879062429392,78.91765961365707 673.8233131479316,76.24837096600675 667.4964956147815,72.30991415913593 661.1456077399379,69.22694799195858 658.3648548256068,68.85728050907619 652.0488050430297,65.11539290178564 649.5064804490456,65.17077181259197 648.9638251592328,68.30533241822832 647.5406601320191,65.64200394637021 644.3016335972554,65.7554492618525 642.4779617357635,67.80638756738608 643.5125954598967,63.81686294806536 642.4540527578498,62.0556012672871 640.6486963457074,65.42873664688864 638.3513078091578,63.005431778936554 636.6262880234275,63.738511787710195 635.2691902741643,61.777836107055805 632.6321561630255,64.30446358446045 629.4036870044295,64.23196183925722 628.032443978563,61.33166145553116 624.4993565342849,60.097522432409846 615.8222980443192,63.993767530699984 615.6023785813783,66.87724548534516 611.5327102562721,62.688750087477956 608.0864335760153,65.30818091282129 606.9949057657105,63.17577002069174 601.1956311677858,68.35792845575759 601.0299157584082,71.64035396601787 602.6833543250218,73.60364840900752 602.9298394121374,77.95651351840058 601.6761753711954,73.91817285100853 599.3183290221813,70.09970872294991 598.5106453278345,65.58395585598942 592.4148502820198,66.81878952262673 591.6356733128496,64.20472372356005 583.937698590323,58.416655924761585 583.4072046034258,56.41332224238636 584.7739605959545,51.39070363668225 578.7765052103917,48.85403433525778 575.1377315865059,51.441404761707076 562.4878964384642,40.021373081989054 554.4450119099137,33.4935031511709 552.6145729367563,31.32926063663922 556.3295467705151,25.252446865085744 545.945089710255,18.338073264520062 530.6116397004555,9.606578996110784 529.0770032828184,10.978664512239334 520.8215730623053,9.2016258196536 506.774310828408,0.0 504.37584734446136,5.055450514070799 492.846890630086,21.487341566014607 490.4189899452413,15.170427959725771 489.4182460992279,14.477302170326425 479.7098103649799,18.38080513032719 483.0676504092568,25.830580308157323 485.2396556939995,32.44277812759856 486.5087764042492,40.16715254059454 483.8507725041242,44.39791005314396 478.35818700390763,43.373730771183205 471.0900302952509,48.371807603799425 466.02196652478625,48.03524547392976 462.93230652889787,48.86016868029503 460.6657301842427,57.53222667589739 452.6444557740587,69.41961148749556 448.4332787083005,74.54932472022176 444.26336095754544,71.40100105230226 445.36378046683615,68.73945060407232 451.72595984197915,60.38607246179117 453.91922228071337,53.92630290529155 453.44723820844416,50.62231937331205 453.6756776463731,39.82144434088127 452.38363038389014,37.57807383500801 444.4351345869737,32.734954005170266 438.87755921331177,31.446352110316525 429.94696884072573,27.715779125683525 417.3183899033587,36.52014915545965 416.96116001874225,37.94741582160748 418.99861205680696,41.2638245410061 417.24950930834353,43.36910275005221 392.425266926577,50.21298482289444 395.4747330267687,55.79278388155012 383.95880116893966,55.76142260387007 383.4027589940405,39.346932135657084 382.36150223164947,35.82908079975368 379.97105989752197,33.92277240160308 374.3921057212376,33.3986719917209 368.0469248526511,40.64755328306512 356.30340546042066,59.35032239715895 351.20623514139515,71.290825039987 344.2165654705995,84.02080893819141 337.874004232274,94.24020491021099 327.4465891660963,103.98747596075123 323.31704033589114,106.58827474296072 313.41665051779086,110.51151486796186 303.67365660045175,111.32114794074573 292.69584893928857,111.40534735208894 284.8064120470833,113.02365314447286 274.3299481716781,116.1635736157067 262.0654104777004,122.28586428913411 244.67456990124919,133.02600826843548 235.79228942137,137.4549978456115 230.22412938350848,141.27261153721645 223.50403991043896,144.30204414088018 214.60896594733924,145.23619782166793 196.50698532145356,144.6083559064009 191.05520463386478,144.87356521716765 185.96133998915153,145.89497985604817 191.06331961155328,163.476577623588 193.1443715758545,169.3597701418622 199.26695582026235,181.71534548908733 202.39444910576032,179.85139097804415 202.75214447968338,181.01844184449908 198.16063338123863,185.7547640603782 204.1611889607984,196.64274534812876 208.8815572872501,199.77739582505626 210.11960916322886,201.71826909609842 248.0147920314782,183.9754371298062 251.4707474304764,188.95043394353206 240.72019340676283,195.5807179394933 236.22833194068014,198.90981530589772 220.38759880467876,200.4954980198853 215.10464815036386,208.5248080894321 212.3774535692862,213.86260337975864 201.21793108406314,232.1941864653263 196.9516239944739,229.84856416074956 196.35970101075264,236.62912034672343 196.35643627817785,250.02154075579017 195.51228172964707,273.93320852741556 193.98468987436414,296.27571749928643 196.700303466003,297.5893729635993 205.77036646602522,296.6372174398291 212.6211667971096,291.20420934452943 228.29446380928533,300.57643278245723 234.21604128275735,305.0779705245219 230.2883803232724,308.5760132140325 236.13725882249267,312.44798287100457 231.5596966326146,314.8380762069213 237.40100175314896,317.0276095098095 234.0046000621668,328.93306617533415 244.9787898940384,333.89269730885746 242.14589036524123,340.0363675691476 277.5517741338384,354.78829685671144 281.6549426902926,358.6369875811687 219.81763286147884,403.7331371521094 192.28066530058564,401.6073332696661 185.2901166245553,403.54681124691604 170.24346043996684,414.6266340765919 164.14554344874077,422.24063055724775 143.09688294956922,459.6476519722712 103.68744962017212,488.3761745162177 111.79817117995091,495.7632362604876 113.83890679586317,500.84818203995326 119.24247987556127,508.383713224256 113.05415589244143,506.8987623127957 108.716895322392,516.2568138507169 97.08950884068412,512.4861923526532 85.13059796514823,504.4135789704186 83.37705777180133,505.58305833224244 96.08347619912895,514.4816994164539 94.63447356995255,516.4981263453188 80.89791531732476,507.8732627907094 79.02704274032838,509.0156512486202 93.66383141041528,518.2513430917038 89.3784174543103,524.1930993325993 77.28584518345927,516.616611982415 76.31478910266856,516.4903765154927 77.87654416036867,529.1875206472723 79.2809152407187,531.4480649419356 84.4999174831389,535.2719885963731 85.4093940878594,536.8955360948464 84.62316766462781,540.5489617246826 81.53686774922598,546.4459417249294 84.50312990733963,552.1753620103859 92.79935345365448,556.4100752296722 107.64123785722562,539.3991642270595 119.3062041575963,545.7856565469979 106.90044209135222,558.9484194407167 113.47525608531703,563.7273517115511 110.03552427032018,565.7058248419521 106.3838997614816,571.4900336000987 104.91691609209596,575.2172574595157 116.81951406034388,583.2278661990238 118.49889020841553,584.8780233525868 113.86890274951146,591.5941135734818 137.60566323294657,607.6825226356862 132.44983357908782,612.2429530947152 127.38591942963505,615.4463603202596 141.34607559898552,635.9234623948498 147.01513442347212,643.3998687906615 148.53859662047006,646.6831547846355 152.14580510547364,650.5210578795134 159.44579597547767,655.2305497330117 161.54433577554443,658.2721019724459 164.9782996444425,666.8325181275287 181.21949073718127,668.7009741640687 186.65059456911231,670.7264588951138 189.50659907950134,673.3331006549345 188.8835381142197,676.023012608113 184.97044433641983,681.1239707619834 175.80322180844092,687.5063141048383 170.42334395089392,690.5444536033679 165.37568734195548,699.6227749949364 158.8822723962931,708.8945191334382 152.83848272341092,713.9136130145363 148.05948302694503,711.4370372095073 137.8259325757098,713.9343941627951 133.9772088667796,714.3469195547242 129.8273014723611,717.0298381792373 125.23093574050623,718.0231031827641 119.97059216822775,720.5079204626495 109.89047465263776,723.3631811602035 104.47575222308694,727.2840485310428 92.65398673305488,732.3098453005396 86.58620449952517,733.912457221985 78.89047208569659,739.1365918848625 73.61858529356165,745.4977679450997 71.1182987239658,747.0340359120939 69.05782820564046,744.469909704389 61.04717271750403,740.3389238617642 57.87227965460202,740.3619127554382 53.5667723070397,742.5839187909276 47.63849160612667,748.1121940762615 44.70691744905658,752.8819962325443 43.297864332397666,762.2972073905751 44.08266667305276,774.236104268164 48.03853124102625,799.1897138816955 47.403633703719414,817.488485372771 42.3213058807225,834.9268156521662 0.0,886.4518571059775 6.507635749738186,932.7709883154723 20.29442228018033,959.1005838734392 37.42433895752196,966.2965662137095 37.25624765385981,970.9064789612407 41.98335538747005,977.5826851722948 53.93439813101238,974.7746105013612 59.07057648283036,970.5814162788549 64.94607747057358,972.2615732299116 70.55989433128775,972.3065746874523 73.21304835392287,976.390229487387 75.49945643500142,978.3333394953355 82.76845348152324,980.4001096584384 88.84164045303928,989.0666811259338 89.56408996449913,997.1684631069816 90.98401937901858,999.0968387667626 97.53894155767708,1000.8434458340206 99.8008131711006,1003.7375721373854 100.94260748708422,1008.2117967670277 106.67611697017661,1009.3805291556362 115.62308102353808,1012.6411030749961 118.63907456388276,1016.4847804359609 122.63019027448918,1017.5454304995402 127.38987312796748,1013.3997253421666 132.97174828301613,1010.354886452166 142.25351180959973,1009.9429786148554 151.8854389324953,1008.0139509799445 155.19558588020521,1004.7084353731412 160.92179460247883,1006.4278046583586 165.7206467831493,1005.207204609586 170.01982263257176,1012.3752861048141 168.36119024282294,1020.3921824311229 168.5931631377661,1021.926170089451 171.74546637502473,1022.8027631830175 180.27888947071926,1022.9201438417148 183.9480885423506,1024.0 186.49805819576312,1023.1377499263385 192.18435536830495,1019.2075776992482 196.59623496151258,1012.4307961546956 200.3716157805581,1009.6663010162495 200.85902160973401,1002.2792035298677 200.30886091805476,997.6365346505168 197.82965413364872,994.4187066319616 189.95593781626144,991.3639571306381 188.95890339268337,990.3942084013207 182.2406067382873,979.2594727183346 176.53512757592046,966.714066363614 176.10844678851228,941.1661964763549 176.97947772969403,938.5190425960711 181.42547217190656,938.1624211462967 183.3554612199506,934.1773995497267 191.65608341336664,933.7958448222879 201.3078509238387,935.1119869772273 210.558358982507,933.3705987919739 215.02033451333182,933.8293124912124 222.58002168723374,945.3887683335015 223.5677449420588,948.4742407069526 231.92776763222003,956.970505615711 234.5890583056198,957.7555358126659 243.16285007607573,964.4714030537248 247.22597483019172,969.1537246433775 249.92183849859364,970.9174016325903 270.23289372727004,972.7038772824899 281.0259919772571,969.3703360559603 285.56715500901976,968.865208467622 291.3707721669412,969.9177639241842 294.0384515600232,968.3052102373398 301.45178985850504,967.4288871726644 302.0493298195903,966.0219905517746 301.5420519396881,959.4546096270647 303.77035988395227,956.1412625370983 312.9212870334633,952.3218396622206 312.9058358303228,949.8686319984039 310.27557193700477,947.9809960006243 306.5127377020443,948.0006087107221 301.7902168877361,946.1725746067814 300.1540304462109,944.0557898905146 295.84083443454296,942.5613357659652 297.1928259741532,937.7991105769511 296.4813627680544,933.9121287162931 297.0131754880866,928.7414336378408 294.51326698492284,922.9923267250603 296.27188511566897,915.2720140096169 298.57874235603754,910.5849499424872 298.37054620364484,903.7727029704612 304.01859317305747,901.3997117105064 306.7767480226365,898.8183310018973 313.44193606779976,885.7046755517085 312.3465675659551,882.3728913229747 305.219046076085,878.874549589202 303.8197054075098,876.9861933693387 303.38390984334166,866.1303480438099 301.26541504027574,852.2015859873991 301.8594182509226,848.2907078835972 305.54435748900625,848.1143214074523 309.44991275360525,845.6624534798971 318.54879930000675,844.1053655045666 320.0447158518535,846.0321134253522 321.0207016254344,856.4437900398984 324.98854704090456,862.5272863774815 331.10603219421085,862.0286828320093 341.0183385672259,859.7428290522399 347.78861790568425,858.8211456382676 357.1353313697234,856.0620955066222 365.1632642456337,852.8318849152338 372.72557859367737,852.0425864717961 379.225252360481,849.1704047725624 388.6326906806178,846.6743866746261 400.8661249039865,839.710255001164 409.35794600228456,836.9133173498601 412.7234827718158,834.9383639166596 418.8590851309152,833.7965815119878 424.36869178353595,829.0709290127176 427.828377260069,827.7363661231109 430.1978668374353,833.2608185348332 438.4664234601697,838.2476068068077 437.6696340955329,832.2572142481526 445.6809507599073,835.7946523862715 448.18214203221487,831.1214762284092 433.1973227639992,822.3592483961409 433.03945113019404,820.39137476668 440.59747722024787,820.5009881014751 446.50229584296244,819.327285829768 448.4392481086796,817.6308733868159 453.8004934389014,815.6747520703844 453.7448941688721,811.0048708289912 446.746640881172,801.6671727935741 448.2416566766974,794.3369239436125 448.92918530175655,787.014823897239 453.4224158658761,782.0176050218915 455.54233308056973,777.7533625133115 461.5009906893848,775.7741805991558 472.6698067286942,775.5763712837926 476.2181444793561,773.154398263651 478.2670761507246,764.827999438005 479.127076906572,755.2025950549811 481.7380430367022,754.0111817355463 484.8550446048717,758.9537095417307 494.5849480829895,766.1919799691261 503.17500424722004,765.05172801498 509.0799748354563,763.1848321515749 511.50094379789937,763.8633392884483 517.805882028469,769.5605975101195 530.2278863937809,785.3908648338372 532.7603829357777,786.7208200579062 537.9346131084615,786.9936672258409 540.82961791893,788.5786589111287 544.9052195490144,784.5805790819886 550.0109748346898,782.6931621016975 557.5400394238839,772.4467486175411 565.7302385097435,774.2858807281278 579.8627605526602,771.0376684928183 581.899816868391,769.795255381926 585.4036949679352,765.6001086279821 589.9902857906661,762.9241300768803 599.6193154205084,762.3446025588299 604.0675923915595,764.0252735108445 610.4507485249087,770.2490526368074 613.0627604885158,773.5414634644997 619.3454942809495,772.2201997214999 624.0311781897078,772.1987274804529 628.2754021306573,775.5243795386268 628.8501962427343,780.014344076533 635.2224637055143,780.4193761426889 642.1394050792939,779.3216853119975 647.2340882866816,779.1942689148536" /><circle cx="373.8052286701986" cy="268.6748408815804" fill="rgb(100%,100%,100%)" r="16" stroke="grey" stroke-width="8" /></svg>