<?xml version="1.0" encoding="utf-8" ?>
<svg baseProfile="full" height="1024" version="1.1" width="1024" xmlns="http://www.w3.org/2000/svg" xmlns:ev="http://www.w3.org/2001/xml-events" xmlns:xlink="http://www.w3.org/1999/xlink"><defs /><polygon fill="black" points="7.845800904789891,17.979807657723654 6.78902058919188,22.16618465365059 6.030164563613591,27.179350142497583 5.070932495815768,29.763400797898953 6.224201545892805,30.93856025771356 7.637671272069047,34.30357410181796 8.74023430242665,39.19759410279676 9.047912440149027,42.38362849002044 10.682447840466105,45.87727170395988 11.597098097228706,49.41841339413725 13.317958536475771,53.67606177281721 14.193937678947918,55.13765199575346 14.924567492578287,58.58291935146576 15.137118452207943,62.41622575730264 14.860362920355476,64.10129860684606 14.678993108863253,68.55802342485981 14.274087264280757,70.32769263164766 14.165893709754837,73.06839664156666 14.724799761560613,75.02234111408927 14.003565456780368,75.83863721750254 14.024315314040617,81.57785438367716 14.488139262639057,84.43624070197734 15.363895455508109,87.01557897902262 17.672039733998893,88.19282807519846 18.467359475664637,89.00599242856617 20.61383098602351,92.94033186504066 22.95556572126477,96.61401626625059 23.71219770086347,98.24178524566275 24.217463160553002,101.64213126809409 24.106612487755612,104.72645660955914 24.43332233476479,108.82358087466196 25.413839195853924,111.39872817577543 26.475705890799432,112.55464712938715 26.47138560180289,116.3696088155856 26.987574801186963,120.94844408113488 26.577369599751115,126.35201281023069 26.044994116379513,126.81568538320289 21.813799625953166,126.95228437787853 19.623170790407457,127.34058086995958 17.46533430192411,128.60902860896465 15.386938349034267,130.7776770741358 13.744749916488262,131.99378770823432 8.809339505388005,127.882850842734 4.303010803933093,132.80818304389538 2.657742839900777,134.9476878813091 1.4436245680366984,135.43655162603773 0.0,138.029369802499 0.7629637485195498,139.16680524303297 3.0372566029288603,138.9890617571058 4.712406690311953,142.59696557080417 5.691512542848749,143.7369152696051 9.593812219718407,146.21801120848545 11.248516953321415,149.5049753740301 12.973766065609167,152.25655827226092 14.429393383633021,155.07188568422896 16.0057849724229,156.5874699055679 20.835106126732892,160.4633758462429 21.96008938749085,162.4585814981557 22.76535648105381,163.00703565329638 25.229175223491886,163.31592227158387 26.83226658393082,164.03993396519047 29.124841780299832,166.0035157576874 31.416555308784016,167.040806335566 32.62640332633917,168.41973396717765 33.215957519898026,169.80265260116744 34.197266451347176,170.04511426439 35.748323517165026,169.0485373925079 36.673994895757055,169.14992573492486 39.97294053962083,171.1913674936759 37.253405162434746,174.25833069265286 38.79342392941976,181.3558968956653 36.08627541817063,186.40167789203701 39.61181604378767,189.9126961506646 39.914230305725994,190.68443681106191 38.69870566126593,197.8276280478026 36.62459533939742,199.28043536688165 34.47977373077607,201.59393046150421 32.67012045327279,205.72199683052168 30.852345941457138,208.96289542423267 28.019745811558515,210.8764500828246 26.706843743552522,212.0966808091963 26.170293728084587,213.83279223323814 26.168178123101537,218.49268239148296 23.710743877369293,219.14443750493217 24.37375332148864,222.5031507597347 23.963550462783576,224.9994615056728 21.787481736943676,230.4419588868949 22.627315008770584,233.7912793009674 23.219005001898392,234.53932007866513 25.236959267925116,235.5143228209647 25.96018319123516,234.65864923704112 28.86568615034362,233.05208153046146 30.422613486349046,232.49128259326983 32.832707840979566,230.57039756326822 36.08983838813215,229.52468541041253 36.16186981621308,231.2222644918147 33.80431388565931,242.0608901325058 31.746234884565425,243.63232139904204 26.072625937507233,246.1787576332876 26.532279811121253,247.17131120607115 27.889362255634836,252.772021320031 29.813237931950894,252.0905514087563 30.52316633821481,257.0094517447733 30.196511127052858,258.92364764253074 31.275244689352427,261.9718347084669 29.737650008190723,262.5149880111622 30.589523888996432,264.1093148365013 30.73640268387684,271.82341132709274 30.90191067379555,274.6735778602091 35.17308250570443,275.59789793902115 38.486977682343955,274.95292485844635 44.710509845992256,276.9543439153735 46.580794261581936,278.04443839351546 53.89080463443636,279.1213364262371 56.02506410660606,282.33813557461457 58.38119577206731,283.4322794465546 60.43904964837451,283.89654437007675 67.38885982976075,288.6516251634741 69.92295371026674,290.830288719631 70.01822624950152,293.9690978797457 71.42940784192446,297.51939190446 73.84389135696847,302.4827993355307 72.35386580500133,303.1776317576462 70.87685680489439,303.1854832742273 67.71283077353891,304.5160626840276 67.22859100166052,305.6428094352004 68.43210284377233,306.92141352147416 69.78270946968347,307.5335484262381 76.01646196835516,308.1695984449417 77.12674356701662,307.10441418405395 79.70512740742802,303.66172097373436 81.90404973559313,306.5786599617117 84.88583939989584,308.3504977330586 87.45662190182583,308.5990481365123 92.08716999776374,307.55352707745567 92.69127084210858,307.96847937869364 94.73379661684316,311.2365084025684 96.24845944037997,312.74103769966587 100.03196072009091,315.7898295273565 104.50820242554757,320.5657950808232 105.32216623986825,321.7594829918673 107.43463300910305,322.7366400877173 108.61376882161899,322.082975452795 109.754055132783,322.52989756313514 111.17595471687073,322.31244877785423 113.80114426671376,323.1239443398407 116.42985264883524,323.513099153635 116.30953730332689,321.6486408519337 114.8306115975731,317.0233562581225 115.48920740734343,316.81044158550776 118.69407935228892,317.54521890210594 120.30041873201213,317.3709222765325 119.61742109416743,316.22915899716736 119.94506623740934,314.579888317942 118.307158444265,313.60387770974063 118.41964516829395,312.458652359576 120.72917732501384,312.20418443902764 122.04822227140254,311.4005572046264 123.66645290420985,313.2049296477432 124.79936117640756,312.7279381977556 125.373995132117,309.5603534595533 126.60865730219474,308.7799582721451 127.58122230229405,309.6222805053672 129.05173639224486,308.8816489292364 128.76004992974586,307.51493221605455 129.8780521686718,306.21878712285434 129.79676296990618,305.02214141629173 126.33827612444084,301.84646867987016 126.49135421028156,299.81585502288243 125.83371913295507,299.46474521317697 123.33810056645268,299.6733657695586 122.7153518509551,298.92466575619176 124.74569369805899,297.5373707778662 124.8145178963181,296.1754617360708 128.0455046028544,296.69585222901185 129.09732955592688,297.92664488023405 130.69147544242065,296.5816544870927 130.3458486907992,295.5619949750347 131.33828560408102,294.64973782716515 131.1892866202191,293.5976386885627 129.80908987562333,293.23162760097284 130.47275289621467,291.0904102161858 129.39628195962126,289.42846782339996 130.35441878898243,287.9797752322936 131.36040581904066,287.8682288729683 132.3121734010048,288.97479400620006 133.17346914437027,288.2284584290923 132.99080707027545,286.40643108114307 133.9573898773249,285.5798353705139 134.52942027670508,283.99161053270467 133.65967140903518,282.0640964926454 131.92651002518585,282.0241460816373 131.66585245260197,281.5033558650924 133.90311050985085,281.2934134091489 134.22557416595134,280.32610625722305 133.31656520055517,279.192191644046 134.28423397073522,277.7936666432439 138.39200176845497,277.7622277840182 139.15366246388197,276.60831517023456 140.5356975734717,275.78315817232885 140.80913118275123,273.5626138605683 143.48025370882087,272.44948389658356 142.8553056935435,271.1156990993647 142.79981546799053,269.45294963006637 141.36785575648258,268.5132419020887 142.2686180265813,266.6925350596396 143.323854917893,265.7142069569073 143.15621914818928,264.0029175646811 146.01773456710166,264.4890240056422 147.38170564408765,264.1748030903942 149.98181534336197,261.83382150325093 149.911135764109,259.68253908075894 151.6225540635845,259.1443346187662 153.5219198197179,261.2022786314836 154.3684632549368,260.8698692341096 154.41058162373724,259.3968324843312 158.25288286521192,258.6944408307819 159.4917457972708,259.56689133967956 159.7054840543381,262.89332836937905 164.0048996000968,261.76338826099055 166.77652763156408,261.8891519193545 167.83644453472584,263.75751832099814 170.36595076401247,265.76379467602453 171.86455097465495,267.4611698637751 173.07828816136677,270.25314578834724 175.74795564036046,272.6525161956647 180.6844223614432,275.7867821176631 183.32712780905538,275.4800857626579 184.82342272941602,276.0516942185336 185.02767986245524,276.7252150125664 183.9167568030104,277.7832020908048 181.6206118254026,280.9407789799523 180.29399465978116,282.2509683433618 181.91389304550958,282.871510839157 187.1959976282396,286.17499944047654 188.71655947119453,288.12481759897395 188.7784836438959,289.89005832832026 187.47359001531538,294.77446232941924 183.28715605102698,292.6425926058214 182.54693581452852,292.53547297172565 178.97414758808685,294.9611485305729 176.9348469292526,296.0234620461542 175.02904602735927,297.44722512163736 171.67254821014728,300.7382309881312 167.48412465635943,304.259860353161 169.79173577077327,305.8464271659388 173.18531755317963,306.77295947934596 176.0617137964312,308.65213121458856 179.0610469344288,311.4170749265991 180.01864314793653,311.7705311106701 182.60213972927946,311.1101727100932 185.99786657218743,312.579581899021 185.36651431407523,316.4851908991121 186.11540246717948,318.964357696694 191.54746575664063,313.2449045639666 193.44224562157777,311.59230114737886 195.76621248599986,310.6419809213982 200.0791638444017,311.0069164203348 202.4806432716584,313.1812968709416 204.43970074291758,315.909613482263 205.42519038642214,319.34662154059487 206.23552847228973,319.7892529532136 208.7702526880463,319.6042687724509 212.479103891967,318.6203614650516 214.65798475571847,318.56988056235366 215.52805102652044,322.66133476361614 216.40928240290245,330.87483754438324 216.58603692282716,335.9156352989464 216.14691380095053,340.5415812249903 215.1025023769004,343.0188439529818 214.45371889235764,343.2246425728247 210.45747894260202,340.5964762939708 207.35947900996553,339.7702674863071 204.18183774727882,340.31075766338506 203.2951825746876,342.6674926843157 203.8292927393769,345.3857104117174 205.2496004613124,347.6230464904644 205.8275188702324,349.6816227553673 205.60746765449545,352.74361333197794 197.38797724668964,354.0221528506507 195.14729844449283,354.6343615596462 191.25219684118377,356.1965209031046 188.8753488993835,358.6483195703386 187.12992042794818,362.5414292383035 186.6417699727239,365.5494923910726 184.84920187587673,370.1939254916769 181.94498606055086,375.35061969497866 182.2345143879527,375.92477636366004 184.7321665998851,377.16082794045093 185.25667345718585,378.40430494068846 185.98061725534748,383.6872232843341 187.98340577236945,386.10761985060475 188.69414616846274,387.89539555166226 188.93746931780194,390.7294880911296 188.27091484071997,394.4449771060227 188.11052636838977,398.45878369643407 186.6964202629925,401.44253324958515 185.33715918905295,406.94422998252384 185.12503082994058,410.0956903994004 185.69990057686562,411.97057327166186 186.74789750270637,412.14605327159705 192.9028522799806,412.10799133644684 193.53758103114782,417.95180845328616 193.3553304668246,420.79471790801415 194.52006043009916,422.3699500834895 195.88692577047578,425.51060372528906 196.92921813625296,428.81051749022924 198.0771378091679,435.03676975856797 198.81734463704757,436.91731574035765 199.00084524612498,438.8021710933863 198.62120412453177,440.21886907253685 198.8734706916722,441.5997542129727 203.61961190300863,441.13454968392114 206.04946893385875,440.4683452672451 208.82338382935137,438.8065549547037 215.26876658720883,435.83394157230117 224.7739091392643,430.3300042232232 229.54108442843165,427.47733365854737 229.9552047228745,427.47586933935133 231.42616558208402,430.9240799409346 232.35074203839906,431.6538071151364 237.08704871999225,433.6114431638561 240.7971008145548,429.95596833995717 243.82976570892322,427.9325816652624 245.73267984568574,426.0618297688687 248.08297633981584,427.9738318858684 253.28638361219464,429.8814343524834 256.3143207390884,431.9215010007322 258.53148563557033,433.84450491685715 261.59760518792626,434.1647387333276 260.5012686439852,435.39432487504047 257.5557505102545,436.65232239500153 253.60635629458824,436.7739369884902 251.861932683248,437.07086008961545 251.69106149987368,438.72831298014637 252.27751224112015,440.62426945344487 255.13299927690883,445.26096173175256 260.4769243579638,443.64183987605486 261.73012601700896,443.5457386799567 261.8218394159939,445.6922954614131 261.56664746663955,449.25940637601764 258.40835397164915,451.2867081384968 255.35778132183185,454.38017406686123 256.63230357691714,457.59834658767926 258.77069188311145,461.16618523031 259.05144293575296,462.0651803197109 254.7084519143746,466.66484761844134 251.06551604532922,471.67409697300195 250.32958219496217,474.46125776796015 253.7841991843257,474.94446194796967 255.00111888906903,475.63683138048555 255.8034684390484,478.72336631370416 255.32015998306332,482.2905204421095 255.50108505593968,484.55032512973276 256.688365394127,486.99679062771827 258.538769393671,489.05669872164765 260.27827027119054,490.47264621875775 262.4008409764863,487.6384882686958 265.38069509511075,484.45848593507895 265.37323716577737,482.56668326144677 266.9031123952873,486.1660102073375 269.19907263355043,488.81294968833214 271.69902430878415,490.66403214294957 272.0857908804708,491.4118300281185 270.71230327537194,496.5725239202838 268.4203586789963,500.1382008554178 268.66323943270174,501.148682431476 270.78941957406266,503.6559741988119 274.3518903088386,509.1794626267024 278.7949968134497,508.2843805803773 282.1879446888966,506.642401140356 282.3390671992477,511.2937380003792 283.7724820117039,514.398965520455 284.2149576691334,516.916846035243 284.9553260634684,525.1929081365972 286.4802573520137,524.7254223061906 288.25296914963377,523.0648125707032 290.70968599490664,521.9101914673655 293.3355561092103,521.8710159247424 295.9421082791998,523.014320534848 296.75924366391325,523.9104748330082 296.6318918553764,526.14657858809 297.50628127168864,529.6077924488618 300.0739917697308,531.8987691307537 303.04133630898855,532.1622262482862 304.9106074249595,534.0358771030021 307.43454407345695,542.4955737274582 308.0578052099015,543.0046791717534 310.59720680259034,541.8814010283924 313.31907123522626,541.7664212397453 317.4792952268699,539.7561487978808 321.2585241175004,538.6668204115076 326.98740319272247,537.9240339818662 328.9050277347583,538.6578219384746 332.1230785673202,541.6313078292535 334.15324994106027,544.8322109624925 334.8388811820428,548.1136299357403 336.313230717794,550.0469917174362 340.4882716315195,552.2156986915355 343.328854809481,552.8676011102286 343.56845330677345,555.9109458860577 343.94942625329384,556.5638903892998 344.69399099777917,560.8126402999166 344.06946815745306,564.9628019942243 342.514448698412,567.560043241991 338.1591010137102,567.6808193539752 335.4282537803553,569.5719999192054 332.17245399926423,574.1160455967606 330.7608946482538,574.5956942254005 329.1260136303442,574.3699608242371 327.13970371791373,573.18003709551 324.33949067638963,570.9866607943392 322.37630379740483,570.9701214037456 319.37190782930554,572.3979369093504 317.7945394694508,572.2710960815939 316.5686895121243,571.5317657506066 315.3827849167874,569.6132353508403 314.4267737417389,569.1584841910615 311.34914462039364,568.7630069418511 309.5131606789945,569.5927389768742 306.97732413197895,569.9815876289325 302.86094710983167,570.057031746473 299.4314352540357,570.8981362922048 293.6105836882646,571.8441384126053 286.99970329629747,571.3673548812195 281.5807346764887,571.4503629677531 279.9682726701979,572.3529681686141 281.0315191095408,576.353269522211 281.9599033519043,577.6179361296445 283.4876016638877,578.5908204156012 284.3182401447274,579.9911844148289 284.65010300260246,583.5887586055911 286.2282097260686,585.2611672497667 287.28710722162185,586.939497287234 288.0740021997545,589.3483766460729 287.3934285514157,592.0273747444384 286.698465659388,593.0058814697807 286.5831419849425,595.4443939995515 288.1832985108832,598.2613479101833 288.785643719125,600.0054505407638 288.33773624680856,604.6756978574633 288.95336376843494,605.4154671774131 292.2443834959774,607.1617933079319 297.49448005777305,607.8307714040623 299.7561324398048,609.0959835085588 300.66792377145214,610.9161174487666 300.6491924883439,613.2608334500478 301.42651158593094,614.1135955653929 305.7984684916375,614.4980036888451 307.2323726149691,615.2234602575577 308.7781086815999,616.8577742910145 310.01774262324335,619.9508179795024 310.9015758901287,624.3985995776713 310.6610708049818,629.983586991359 310.8592902499038,631.1498519288282 313.7248658783745,635.9926334377406 313.96151720823553,638.1597135673304 315.15964057190024,641.870412959679 317.24937836019336,642.1640946907933 320.4359983693568,643.6543731636542 322.90212066067113,644.1233500600097 324.72931419997235,644.8146865363271 325.8708893151132,646.5479522165026 329.67522166045694,650.8737883244002 330.578285807444,651.3922047526124 335.9459960794308,651.3816723386442 338.87775693004176,651.5827526874817 339.51630051695184,651.3156853608879 343.9812196408451,643.7112777170225 346.4155575915975,640.2070215734102 347.56585250374525,638.0105941551434 349.0876047066724,633.9850410188931 349.9099629371247,634.1307406241261 350.5990265062143,637.9027026489086 351.7981092430284,640.3643716112658 353.88534444019785,641.3552963954647 358.54054107378613,641.3122152034384 361.0457187196283,640.3338071287307 363.2009618552024,638.3336357796283 365.60333707629223,638.8312851243169 367.07688514863196,640.5438704974043 368.4161500723331,645.3579879203319 369.9884553708512,647.475218675682 372.8356676998137,649.5747633617177 374.7710429765134,650.4501310408148 378.0194850722857,650.3934948822546 380.193552827546,650.9567260638854 380.8227027728153,651.5942329207063 381.02244119740755,656.1471428852063 383.2826579966185,658.1770211082674 383.3220230198894,659.7890598702498 381.673922648869,663.291251296325 381.62099551390514,665.78689360301 383.57635020701025,668.5778310112648 383.5655523986917,669.1860823275858 381.7534290645938,672.3575094211112 381.15259440189146,674.855837026609 379.7791738075157,678.5009823536494 377.5546803969381,681.9392916097083 376.51021069735884,684.1053569614469 374.45589039060553,689.2203826445348 373.672012193287,692.8642138802173 373.8417580541839,699.2236010586606 373.1479035961905,702.3929946985779 372.4251696215244,703.5808048382468 372.6886808737229,706.2260657814259 372.79230194652763,710.5239235950839 373.2944537505582,712.2353847488587 376.5881560396755,714.2788631148302 387.49158187843284,721.4345477665706 389.5192814903901,722.9948006063788 393.6151927749656,725.1879189490656 395.6737411872717,726.7963313644809 396.52482494487606,727.9238203437577 399.2647013102625,734.8512864075458 401.7915033301173,736.3466365218849 404.15430010749196,738.083082507356 404.7834893192473,739.0772268358422 405.85774359973857,742.5992591491911 406.9834910537282,744.5149169218456 410.4005484835442,747.8628500675972 412.81504967214545,749.941887871317 414.57915849625556,750.4017483852302 417.11503038047465,750.0844449417419 421.4416876478189,749.1338658851485 426.14503242201386,746.4590354465586 428.1417828399521,745.5229975323348 429.5044019194159,743.4484630298078 430.1018604983227,739.7667994820129 431.3527009234724,737.6177296307334 432.964463666433,735.7743836335052 434.1782211231792,732.902675076938 438.6886559447408,729.7673198250038 440.74149940411246,727.1226348577426 443.0050413302595,721.5494644700512 443.33896695981565,720.193767869736 443.2386364936214,717.2943931124693 444.0914178071084,714.9747161941308 445.1143403053941,714.3605106824324 448.1227719597119,713.8274904347995 449.4919210988389,714.0221343026604 450.03584307785735,715.4146334838683 450.1998690025948,721.4088933149994 450.7194034144882,723.5429601108223 452.80538889691945,724.6215995418361 454.0786403799978,726.1718743072284 457.4460691636991,726.009862180813 464.92511039711377,723.8239734415081 472.42490859294696,722.622130227892 477.3687155829041,721.380795120035 480.02750465289756,720.4264875804924 481.4478032608924,720.6881030358398 484.6670205545441,714.293189214527 486.77767490562246,710.8392925534515 488.9747891855415,704.3898850473051 491.0992682728375,700.4484808589814 492.62466062435715,699.9920641984975 493.1710830634611,698.4648597485599 494.44888323787313,692.3106276157857 495.02489919619865,695.2333227243108 497.46265239306274,699.1086988384269 499.2870006634122,700.9152993099082 501.5873758047505,702.068494132337 506.5672062147042,703.5450910067349 512.5637865274236,702.0169930812472 511.21936766544496,699.7802469080041 512.057692826417,698.8054917499144 514.1451707751594,697.6169454660385 516.0176972198394,697.5965601556693 517.5976508439194,698.3247325096519 518.9710531056727,698.3851343494431 520.7029507306708,697.0144371214908 523.7193451714284,695.2185341852878 526.5500981984502,692.1075943995762 530.2023251686173,688.8842409306851 531.8505272542412,686.5690060308581 532.973436188053,682.8543192841668 533.1326794490132,680.524877537621 532.5892441304273,677.1653523321221 533.0334435597308,675.9022844781293 537.854945224766,673.6164481621892 540.2997264094847,671.8909301714359 541.9593521554283,670.153070694098 545.5522794481213,665.8572494794428 547.0532757144395,663.6105670576314 552.306988631355,659.4076804731715 552.7405602426334,658.1730803733174 551.9973870666292,656.2184313938722 551.554079121074,651.6949262307922 549.1154801037634,646.8340822414705 549.3794718919544,646.3153695342294 552.1962325016461,646.83140052794 554.0512370704214,647.6861663417218 555.9736317245702,649.6343097568633 561.414084820329,651.8218897168991 563.8788595502782,653.3493638345946 566.6349877564182,658.2883750756196 567.7016982666338,659.8284221110472 571.4541090094564,663.0707962813874 573.6734784665684,665.4951696248335 574.9844392542836,666.4816733664836 577.06078445907,666.9104518128363 578.5247251292219,667.6946182068338 580.0120935730914,667.7503001631082 585.8261419206104,667.0373398880888 588.8768896524087,667.6834794427693 590.122451036493,668.5182350707483 602.3314826571279,671.8734624472479 604.0041584302535,673.5690206297263 606.3230725271172,674.4458371514438 609.5411423022832,673.7302917357733 612.4585836749914,671.7669955199829 616.1795005563043,670.5480104932454 620.1996930459735,668.7089500451192 622.6470078205587,666.8695104175059 623.8640182272367,664.6655802056142 629.1064300700956,662.4193300698615 631.01445868223,660.9665549774987 632.7856992700797,658.2529683585234 632.5444813287162,655.7927454529046 635.2727944677209,654.1955211868776 637.1732261653281,648.7291822683571 638.1337889371827,647.1649014206308 640.53893310886,642.0267134823116 641.5552088934794,640.3225415372705 642.0206558201668,637.7011680187936 645.9275129027508,631.9076280503057 646.4044717115072,629.8794182863153 646.9279371304979,622.8505489086804 646.7842826441799,621.2065903566039 646.0116634990628,619.7918566418713 643.3534187530225,616.2712681401638 642.6207264766185,614.9181117702528 642.8341519068482,611.1319672716932 641.2825289057835,607.9114056414436 645.8147382268086,604.196863776571 647.3474119864767,603.4638519547934 647.5360733393068,601.7124014853073 650.4847091603401,597.7507439099397 651.5651374192564,597.5489410944137 655.2409002238962,599.0084733236783 659.7001978924659,599.4985980999504 660.98788575765,598.0337473195069 661.1387545514149,596.2102720738828 662.2711354764356,592.7443719915486 665.8037033863438,584.0060505161088 668.1254759812292,582.8335378567614 669.5060083492854,581.3112356492709 669.7554711020235,578.3498586743959 671.2152742467355,576.9638243671345 679.4118624119121,572.6559557172284 680.6065981320353,571.775590203873 682.830694893802,569.411573969442 685.4118857347144,570.1880328905614 687.2841450825831,570.1211170507304 688.7065688245866,568.9488438131054 692.4549600452433,567.3618933057737 695.2268811961202,567.2707343141385 700.0386888039761,566.4331300219401 703.8765706218761,568.284845710822 706.0262774102932,568.5805226879378 709.1501831348546,567.8706476965431 713.1880075632808,564.983429924049 715.9533672909564,565.0989192375378 717.3807893689884,564.7291902638535 722.8907834330904,561.672745343641 724.0075435889956,561.3299637197479 727.7326069774497,561.1998464163948 731.6531058724498,560.4095117605373 735.3912738365667,558.1524071791986 739.3588517831216,556.8230287431783 742.843619031399,556.1053988345805 747.7471534234018,556.2659513257028 749.8794039487415,556.1408217207786 754.9435398892659,556.453029973725 758.538635578186,558.1148622588018 759.3830072361401,558.217144751234 760.4850474237661,556.997595861178 762.7798139380299,555.3088258752749 764.6636858791131,554.5515350204378 769.7484538620675,553.5209737173445 775.9642752574705,554.0098246717565 780.2359022778716,554.5065289259427 784.4418390390152,554.1774946588426 792.6394288701837,554.7347539389358 797.7844537960704,553.0966466960244 800.4308230237519,553.3643703416255 803.1144473481834,555.1387307215467 805.2303482344984,558.2594795766086 807.7753262949677,558.799357203635 820.6781420240923,556.8794562895555 822.9281037785178,556.3189317326327 824.0089889644468,556.4543417835115 827.9422628112794,555.8403947720927 833.220738919237,553.5521463645015 838.6300908319756,552.0126166478815 845.3011851774745,549.7822509261856 848.6680550562259,549.4757549633964 851.2536384952192,550.0528873994028 855.907948726899,549.58611991867 857.0648579616486,549.2200352790479 859.4167337496511,547.6733002586875 861.7110501928482,547.2683340032804 865.5367230856556,549.931347002529 867.3461394294274,548.8506180631214 868.9632686356006,549.0334758644215 870.8878719724629,548.6014167429732 873.9517307766457,545.6886084775217 876.4735253497034,545.2981974486245 882.4310959072378,545.4550375295728 884.446489135886,545.0334342187957 888.9974115387631,543.1987224232189 888.6414106320613,538.1941564545493 889.7004405322978,536.6603612178491 890.4034201887406,534.2712593022201 893.056859094041,532.2820484285969 896.0567833629879,531.7772653897948 898.1078672949918,531.9283453635212 901.0922416949968,533.7021987030212 903.1817836712107,535.6667129576406 903.7874851830721,532.7159794492127 907.430754491663,527.3126592567428 908.4927434785045,525.356574158593 910.1604967388148,519.3691501353086 910.3709622063692,512.3779121482987 911.9625287834729,509.9263105882734 912.0530645445242,506.9180855973559 914.0943789281512,504.98357530487976 920.1610898645164,505.87936349696184 929.0724040430381,506.6792728958052 938.1095564013336,502.5149460334113 943.0612891862352,498.9623873220445 953.3199879670358,494.3144569012677 958.4080604810232,491.0094329488676 960.4575985319225,489.09034873425003 962.7372949209131,484.6707649335248 964.7509539319109,483.31445036370667 962.0589323041895,475.5654151024227 961.2801180874701,472.57589925892506 961.6198406529968,463.27793370125636 963.1182093199861,457.6653350272143 964.6027410941435,452.89683493479527 966.1723531095017,449.4133751412996 968.0276714932086,446.79079540436 972.3713673836987,441.6404666515566 975.1290686863526,438.16341076449817 977.7589685908955,435.4693342419648 981.9478980248788,432.0582875626348 990.2033397672936,426.27348066374 997.4639089195933,423.6795284975377 1007.3757775404837,422.2598402923804 1019.0331116121816,423.1884227246788 1019.7126323496013,418.6790543197965 1020.9032030337253,405.57969574705174 1021.9433248034525,390.94686972287633 1022.5404952893763,384.7172048195106 1024.0,365.9554774322305 1017.516633155205,368.492086414516 1008.8776420300857,372.04010174665973 1005.6370945236763,373.4865184602129 1004.8443815590058,373.40276700696484 1002.6689719884682,367.38751452102883 1006.3988898413548,365.8821907443781 1005.289284263052,360.4702143195745 1003.714309610268,360.65969376081404 1003.3382796517756,358.7444830770757 1003.8588078864574,358.21172875894626 1003.5229527784252,355.2591106397394 1001.7855495826493,351.96079514976867 1001.5262378296911,349.8864208241 1000.6084948748145,347.74797401033004 991.4041419725463,350.92943211947835 986.2596521653919,353.9398162353872 986.6767704872822,355.1665229088341 986.1063008573522,356.2931013242209 984.995161589495,356.9026837324379 981.7190549848453,356.0342928078791 978.6257256625721,357.6995879399089 976.3568297667982,355.18771699827016 975.4298632580535,353.7517259261246 970.9020953695492,342.60401395502015 963.3386294932365,349.53867088043415 957.3748653104819,341.5867686031839 950.1460975595622,332.11488201194925 942.9188883726503,322.3043088001603 940.7983187119029,323.92980837768454 935.8417385884292,319.91248146673183 932.5455439714095,316.6504037863034 929.28162756843,315.4113972607397 927.950543033975,315.76479515354106 925.3743397063095,320.48703471995054 924.6159239807077,321.35334570228815 924.0736110426802,319.13649288995305 922.3697689669425,314.7287234247462 921.8398268096199,309.0160261021825 918.9090841023758,302.89789656059855 917.7050722133868,301.42955250954196 917.3172837654362,296.8620310186222 915.1845418042293,290.9671924736754 913.8664380752647,288.5065642935184 911.9604878827114,286.0412927104478 905.5283119430857,285.5348844461074 903.2651990353055,283.97144586186494 898.6095921659554,283.80697643279325 894.6666204492592,280.84440368571114 893.9774225973244,277.6734839919437 893.4049292577981,276.4732306839176 894.8144484380229,274.5881529514081 898.8428611243284,271.33980976398055 901.5180186782256,269.4956142318944 904.4688584884979,268.0662534917986 905.5340783203991,266.27034658008324 910.3261135343464,263.65856312164817 914.1454398856059,262.85588978024896 914.3944483601565,261.4549467519928 912.210978296912,258.582606646489 909.9834193948702,255.22629726253564 905.0409947376056,251.53082756667374 906.408408704856,249.64701419457214 907.849687081497,246.9497211055845 907.604849001635,240.43243607852764 907.0778984698823,238.41790088771722 907.4434054696624,236.86573958772954 905.7269151547877,236.37581891393472 904.1221897428113,237.2688758382826 900.144002092279,240.26702903888975 898.1248462037822,241.56713542926195 894.6453854115894,242.7442720183414 890.5066692559366,242.52171215492695 886.6100515342774,240.75890614424532 883.8041052196382,240.79957379883592 881.7468614820738,241.66292531263173 875.0230364520822,246.43661190832074 871.7559679044722,246.35811951770523 860.7622747794924,242.00986536287797 864.0816542184305,239.68762664619186 866.5742705515689,236.05490090161913 866.8007709971687,234.7215149333755 866.519328351071,232.44676089631832 865.5489830816718,230.43950962521842 861.4784361808029,226.6275036741854 859.3294925370253,225.46550820003552 859.8554966814667,223.08162820487462 859.8922865981465,221.1942690825931 858.7651992536092,218.61300832026416 857.1416735953275,216.39426136490283 855.651600637531,215.88970458393203 853.1634021348714,213.98544922353778 850.7182930553066,213.02933762122052 849.4511290588785,211.00500942856172 847.2713943585625,208.75337813809892 847.5098922299643,203.69059955731677 844.4425485933284,202.19597914399458 840.073554900816,198.7597504880988 834.8539513001573,192.46974934792695 829.6458686694504,187.85332966340718 826.7987804691676,186.23920375392242 823.6489880089403,186.08454778723308 822.7978080961137,185.59145405991728 821.9259175661609,183.4321498230098 821.9697539461524,179.36269462824737 822.4770278478929,176.92586920170936 822.0294097897194,173.42619010823898 821.4157354754772,171.93318955791244 820.6234974344752,167.86944229600203 821.5157296765698,163.33563367798547 821.4857624922333,160.6173379929072 818.7158429322681,163.2204823805605 817.0264162365893,164.15986144529506 814.9307123975723,164.62767178123715 813.6246178173326,163.83195612649797 811.8571322417183,159.685582955281 810.6790703093798,158.79674253621442 807.080412439305,159.50654562359568 805.8852837527674,160.151573468165 803.8099108940501,162.5975782175575 801.4109738929805,164.1653459001776 799.4264808385631,164.7124589431677 797.0597893437946,164.56311628231526 795.3088074080592,163.8741203181679 792.9476583458184,162.20093676214594 788.341311132365,158.54329230745464 786.2557313109007,158.01167692105707 785.8526566572526,158.72310849274902 786.411531758813,160.25916475369627 783.4718039221353,160.37510671433017 780.4881019036887,159.52698965510285 774.2525210729708,157.192714325809 771.7273639608114,155.56129934691364 769.6885398752288,153.16595732961457 768.2038916435414,152.20952216802561 766.5863574921442,152.47649720745903 763.0910444335733,158.49748778395326 759.7040847918865,162.98208815611076 757.619359101145,165.03378537524043 754.9475381973102,166.7628498655207 754.1334398758349,166.12363113601134 755.526455084374,161.45883168555895 756.6536360126224,158.9916786798625 756.2643410572579,156.64765817800185 754.8611287773226,155.9979074458039 753.2187733904477,156.4502074047092 746.6111087403651,160.0836714164633 743.5488335876634,162.1124662816021 741.8425580848129,161.63672124381412 740.8274566536087,159.85273508391708 739.9473981303712,156.96605169945462 739.4656384934617,156.55225235199453 735.7180659724899,157.10100752969993 735.0089138249839,156.68530759795715 734.609260838095,154.68188194539903 734.7176160146699,151.22811230156105 735.2632508695959,150.26945829119768 733.260568010952,144.44641496293923 732.0701584624347,141.97486147247776 730.281072948556,141.85048505378268 729.0478523205178,143.70034607197692 728.8929257615841,146.64116413702982 727.7421472265125,149.84710118410567 724.7982107701555,150.33951995682082 722.9157592049463,149.92621713826816 721.0163911790573,148.72544158113283 717.4835077124343,147.33419572794105 711.7805155862823,144.4973632653232 708.4031541397812,143.70886364890214 706.7623900432155,142.48720622981466 705.1351892887196,140.4764119392661 702.9842835942212,136.50535706083554 702.0208699782448,131.72452662795274 702.0914422331977,127.87082516131306 702.5764804898716,125.89522819961212 704.1706719676005,123.72383031753884 707.0545747552869,121.8187156485626 708.5668835312198,119.9568407459351 708.5921027220977,119.15759793916823 702.098864100176,114.25987644975419 702.3631080307343,108.83581505405334 704.8359069487266,102.66049837604771 706.4019825344686,100.35180283976229 706.6938142325366,96.0303059909885 701.4546292767618,94.5322566719808 698.6161384862187,93.09685921300786 694.7872901028053,90.38671257829594 692.2500994181163,87.87738664759911 690.1539520502713,84.72621315899596 689.9938558797958,81.3478267169121 690.827706245483,79.42790436377948 692.525704443566,76.54381901746615 695.0960562857584,73.45126020130158 696.3536166442259,70.47188001523489 697.3343876802808,65.22261975373556 696.4689920539583,60.36347391414472 695.3551269642813,59.10584248901182 693.6785696530025,58.38910115853321 689.8222979328721,58.487247481918075 688.4910912385765,58.888349007495435 688.364375238096,59.9571839054513 685.6014205631134,66.19650266206418 687.2615398703567,68.09058284373441 687.3236866050102,69.35689327463876 684.5019832980377,69.9782525754074 671.0347670092642,71.73281495429092 666.296118737566,72.04103452505785 664.4780359745725,72.49463942921682 655.5050496983782,73.45190903298999 650.8590852262994,74.11674978296696 645.0973254408827,74.53854771995975 642.3642450081403,74.92591403153347 640.6844829047716,75.61189001015191 640.5953326065394,79.34441797335512 641.5807398856506,81.41152544045133 643.2310321084474,82.9516541232507 643.1153753032731,85.26420205620741 641.0081764520924,87.40286077182589 640.7536261283419,89.19944813616644 638.2142979942738,91.27965181414527 638.2178371289671,92.76709722631892 640.5023806615427,96.10342924184806 640.7631577705764,98.55393264764143 637.6769069540443,98.77255464570294 637.1830157556012,102.24292095667442 636.3931597462722,104.71750107488083 632.6858665069353,110.47462829598987 630.5587611861321,113.16077758426513 628.4542062502802,114.49144824509472 626.2786066788638,112.9553128288428 624.1673696133353,111.00937200478074 622.7543258600906,109.09893356059695 622.8477183930713,107.48867991264513 618.7758005937125,100.80780768619104 617.7799064958683,98.42280592467353 613.69993780392,100.6655904148472 609.6461580028442,103.68033700764363 608.9570833351971,104.59987713436499 607.857611388595,107.37653418904438 606.1983434601605,108.35138279817318 604.8190105284733,110.22449828616254 602.9184694985677,113.8619540779863 602.6480806357555,115.54782289241791 601.6463584103036,118.16758218804137 601.9825063711954,119.90972769752284 601.7674808685817,125.93352082021022 600.8994632873889,130.45940415714028 599.2458738321186,132.18985994236164 598.3872740818091,134.89291684949183 594.3499243134842,136.71693513162052 593.8314716374285,138.0983659164665 594.5031529350503,139.95628601015528 596.3547562411145,141.96244759743183 594.0480349410907,139.96258203416141 593.196405629869,138.27722795067086 592.7188536339302,136.1606252208054 592.5495743087819,133.06764996899653 591.7365209861814,130.83527939241196 588.4284688066508,125.40066889346599 586.8587659436095,118.49547598349511 585.3647108847855,113.70963587441076 583.6850044449865,112.73192481948251 580.3481548824868,112.36422359299536 575.0461251079615,113.16306162456908 567.2683186068421,115.90651625741214 565.767778345592,116.12537234163551 562.8799271940135,114.59404431086489 560.5696089043632,112.7299174378984 559.3317583565359,111.22328390223424 553.3294146328556,113.27089819204093 549.8258048135224,116.10273212097468 546.9246188857725,122.25418598056638 544.6391744174459,120.90741282760632 541.1121751875418,118.17174472692682 536.7651151235459,119.65890734133268 532.7015114234754,122.61900409294924 531.4823028830192,122.0545034983545 529.8613074213233,122.1851408293619 526.9767615682453,121.48482315410615 521.2837801834288,121.63950115398268 519.2139335574731,127.83348457630132 517.2410392765613,131.7588585869088 515.3844003204031,133.98550944551857 516.912488886878,134.90128324387751 517.7868161833145,136.7950923505009 517.041286977468,141.32468785177764 517.5660742301554,142.60630783429474 519.8084701536524,143.36181935366972 520.7664567627626,144.32445661379734 518.5431195800417,145.18552743456632 516.9957718145463,144.9118516732325 511.4480622989746,143.0956517300907 503.9692127127795,141.09514185213243 500.3782687463171,137.77144574814065 498.57684511822066,137.67548196201085 495.3430871024614,139.8041533587608 490.8673564334468,143.32156900144707 489.7246267803833,144.5195098084365 486.155503985916,146.74976303428593 481.15599176051177,149.2947699305132 478.3935381553457,151.4308020570312 478.0695869401948,155.3288664521516 477.22714507938963,160.86250866563535 475.73414266247926,161.75236066552327 471.70436998076104,161.09455858249567 469.16535459586777,158.69946075642656 466.5217871705007,157.57580043478367 464.14544827969337,157.14300802527828 462.5697419737452,156.1202046057956 461.5123414322665,154.78925538422618 460.3066286364744,154.44501029630317 453.9285695770544,156.2325917977613 448.5269203421091,158.3566538629418 446.94910509473186,159.34049002969311 438.29875176451964,170.4934945346198 437.27960260052447,171.37777381442675 434.8270711250696,171.9756210198425 432.87497055285286,171.77947012109826 431.47300163091904,171.17662968530362 430.9887534668525,169.26379868760068 431.0572554819487,166.29641493178656 429.6108607438735,163.6143556455778 427.6641041725227,165.42257549354156 425.77696783242,166.69234443821972 420.6676875537453,168.0985642448046 416.2507454372057,168.52823670525106 411.67015416292463,168.29384165348904 413.5079200381844,171.90997630809773 413.8836037009991,173.32080180467642 413.3628261963484,174.09566534507644 410.495014422697,175.99358678525084 405.4302298612092,178.20883649299265 405.1878709217872,179.6147415540113 403.7510868372893,180.33530714157712 403.45836930634607,178.94034774764293 402.65572646508195,178.9003565825576 401.83389318944626,180.3393222030428 400.0124424191761,182.07010329047546 400.7806161837475,182.85662455926138 402.8478117783905,181.77155133713347 403.5473946746238,182.11502907220301 405.0550535842302,184.4898322244078 406.8783963774607,184.57183022723234 407.02018853764883,185.88827554219893 404.7012325463576,185.54309347075832 403.0653014919666,186.03662486183646 402.40224963110313,183.9786600099127 401.98631115814374,184.11164311763605 399.26998121552907,187.5911230493374 401.30836216474546,188.61432138477255 403.5942506119196,190.57183895288824 403.92051764930324,192.21189481946408 403.0607822305742,192.62909569454564 401.5563869491799,191.4008171171099 400.32819053115,191.72171537341512 400.78444255545276,193.49992720787452 400.54176874510233,194.91368754447058 403.14343484291123,195.71174118921067 403.34035750064896,197.5337292850728 402.31877535782104,197.5729869861019 400.91837974575884,196.29571928509768 398.9151512493666,195.7485382613561 396.95444592356836,196.4226427450734 396.74404079322824,197.15539367693975 394.40058982914644,197.53593477791685 392.21122149991095,197.33658788869514 390.9563157314629,197.82966692543232 389.70022716719495,197.17101499716455 389.2904202073953,198.92807100314337 390.0474407969872,200.9525216430418 390.19883216391446,203.7882709781842 389.88901728076917,204.7695278881007 388.36008395968,204.83627149608571 387.75411506007214,208.14242948845572 386.39838132749657,209.20662362009966 383.15917522047624,208.01698213213956 382.0811282789082,208.4923284713807 379.455273290782,208.07089438530545 378.91197093800264,208.5484561825823 378.0745819209905,211.05978031865686 376.7318452852717,211.45273520274725 376.1707604192795,212.5147163211816 374.4547336464536,213.51684959946408 373.6663771743979,216.09014488538764 374.3779428869507,217.3208697097092 374.0568103354819,218.63489841378305 372.574164299505,220.0829829634888 373.2638727153403,221.9635879541231 373.1253845798997,223.9369971464106 373.69321077062517,225.43834534448092 374.92585458989225,226.79940387896352 377.06417042472617,227.62687070034792 378.28967787413586,228.9194502445556 380.69675551121765,232.19306015328368 381.4600675559082,234.9365724304405 379.53201463550835,237.0492298597527 378.055952141059,237.73417698653134 372.82431209211865,238.06979425266832 371.19272470034383,241.17612209640015 370.5183285893702,241.59940569149188 366.9996273579108,241.36811191434822 363.87462465596246,239.8120531277521 358.8118639473818,239.1297574915398 358.47253927233913,238.5044221010686 358.82064888958405,234.87744389224667 358.912547221253,230.63580354172984 357.553444647593,231.16972289868306 354.0501120009296,231.72567613652802 350.5998518955096,232.7870505264574 347.76005261823525,234.08149401230412 342.59421518074316,237.40383070068708 341.64635608097126,238.2820937595917 340.84069393854753,240.73137652480273 339.9267849700376,247.3299427984058 339.8783171981755,251.50748647974297 336.9798908428487,254.24006355483544 329.2814046123749,258.874534479382 331.5516809289297,261.30215415390194 329.5723514132615,263.0504849004253 328.7820613369619,266.2689232026967 331.8498148737845,268.2907023920705 336.0690217716047,268.9216284223986 337.86196268579704,269.93203911989576 332.4384266777117,275.2759713758357 329.65567695049754,276.4277896510742 323.3567095332062,278.0872481276477 323.0874529158331,276.908034687382 318.0988008518535,276.7464662130899 313.2113371063668,275.7853911298084 310.4464835644529,274.5658469123176 307.42350261951213,272.73667992865126 305.7843202433271,276.2960426988727 305.0259609245119,280.3996048881002 299.9362945472211,282.639782138826 298.48791729208784,282.7110757522542 296.71587254177007,280.8115512385114 296.0710007533503,277.9666495752041 295.0273932411592,275.5751207834794 294.26332520526495,274.6675408414965 290.9969009617631,272.748405200274 288.90998165855757,270.40776343102016 287.7666810668352,266.4412750534691 287.9000989928194,265.5354716580782 289.41317446452064,262.9557843541104 291.18211815502644,260.6602960634763 292.424411100657,257.56237208715515 292.47275256842505,254.59157209978184 293.1577434296724,252.97788825996736 291.1018855769786,250.06901125548933 287.25763425865836,243.31583237678421 287.90815266052863,239.38178923326888 289.70692362348643,231.98983056598513 289.84716121546376,228.83064556565455 283.61482425383576,228.24756242467606 278.05971555861214,227.55363010802205 274.3946207614854,227.94748810731107 273.5784377550508,220.77032682878382 271.73790100470313,221.78286035236522 269.54322199416526,222.0040253128367 264.16953750748837,221.44698464202224 260.3687689770113,220.6578649695981 257.054308642719,219.57317340487407 253.5915015479406,220.70547198221016 251.68793539187098,222.05667533573217 249.94674487171883,222.60276383558437 248.33380167500655,220.63723655400725 246.57494293371064,220.7602815677434 245.56317489458067,219.29555518692007 243.3758172574741,218.75314234376935 241.80817524060407,215.75278223098837 240.81676615645213,212.16098726920302 240.0527298730806,210.9959831816094 237.5423422067811,209.65000448271462 235.43415569888995,207.64360947987416 233.07087182248986,203.79971463507775 232.12185293717502,201.13019225623577 230.82712404628404,200.12257116779574 229.4154351952333,194.43561934955346 228.15273203973425,193.32675713600668 226.2962854789973,193.37271715518807 226.7583114315425,191.91423355249424 226.24064521126198,190.81539030920646 223.96322636261831,188.6691481082155 223.69460107873957,187.77306412955045 224.50525891480748,186.37912933263044 223.61283466993584,183.56194660055826 224.34486723793154,180.60423714103501 225.69626731023936,177.61287095893044 225.53469954829288,174.5560082596803 225.8568357599832,173.8509116957107 228.0079562562394,172.5164797428589 235.45690200931875,169.10888281215614 236.0835340106854,168.59007322802552 235.18868088275659,164.6342289869042 234.49914717321795,163.07820687736046 231.29562619904166,160.63504416851617 232.61735209407777,158.7681397153333 233.81380516812982,157.89124460708877 235.45794786449693,157.4469698727612 240.04045788478578,157.89913270096747 241.65515125256115,157.7030196576561 243.63443048150512,156.83208912587452 244.84947699544782,156.89762952368358 246.0785747646761,158.31479867136 247.1823604981574,160.67212981647037 246.96232472850392,161.66413190027026 245.68222695139926,162.6038284785675 245.92791393741433,163.56204588085495 247.92703630887345,163.32665261989018 250.58671269446933,168.4084094755923 253.52800039255135,172.53170225511417 257.45789106125716,175.15415687222196 261.12881820301925,179.07938587932756 266.5325607661688,181.75489020725138 271.1989290799811,178.90065088323433 275.1757282174223,175.68944072506906 281.3932068421326,171.4976358928136 285.29081669302354,168.4828718522964 286.973967775825,175.3171156479067 298.69219933064267,173.67400823225717 299.4664899536075,173.65584947559591 299.62480152537944,178.6826941337681 300.72253523062085,183.3559461939983 301.0288466373002,185.54917675436093 303.5630701571708,182.91768047023822 306.0900492392756,179.60640922275206 306.8094222192809,178.14077867359254 307.2240524564835,175.93541630216112 308.37506208282934,173.65546405510906 308.9616576134703,173.35801376248833 314.8773871913174,173.15027718764145 317.7051185766412,170.0720828316205 321.31534608714816,167.566148711246 326.9209915407414,165.25912112954438 330.3538432377218,164.33943261183447 334.8598853778075,161.2943253410782 331.2168973975889,158.68886246007207 327.7249673607219,157.66778631519117 326.40686823836677,156.39520095489422 327.25004066688115,152.8401459765787 327.067047276715,150.91614652727105 325.8961695638469,149.6092018663402 324.01965082032024,149.31716527985395 317.69407746074745,156.46879357280557 315.3541802284504,160.0384425183321 307.81451202878105,158.9524916398235 301.99924371348726,158.95347167661157 301.92544394852706,156.56091417780112 301.25569752008056,155.35221125334272 301.5671316804699,153.50538251428543 304.0083711023561,149.64029817149606 305.3848954344398,147.97148186933975 307.9525625141756,146.73156560270888 310.0260543548876,142.74629647786674 305.01043702742595,138.99934294607965 301.4781204975261,138.89974429032804 298.0596968998543,139.96093927428717 296.47096295934426,140.01683151704242 295.52820337961737,135.92860447144244 295.5245171725562,133.9293370807958 296.61263355827947,132.54457488985202 299.13426504973717,130.26169472839888 300.8586378662976,129.28430606785298 297.80943606088505,127.0917811672615 295.16979565081175,124.67707719841803 292.19560361769123,121.5713757748664 290.9243153264022,119.55758240400053 290.3256453025046,115.94806806039594 289.94248578343127,111.8028504031821 289.2493941642393,110.3440343625607 286.4593056380406,107.57506555757993 288.7873386094808,105.18341340741983 289.7595104156578,103.30675277147043 293.7998668895343,98.17432392661021 294.0589009272456,96.9186336490726 293.60679641416675,92.3512939316505 293.76855677331827,90.06121739797834 292.4738240668604,89.01732909273562 292.23448175235274,87.8705116327086 292.41558393258435,84.13026821093013 291.3239048054511,80.20215186165706 291.40896417541927,77.10926102653491 291.06456870823655,75.4341288401688 289.20111864617814,73.5705377397594 288.56170757671816,73.59323224168088 287.0684478862356,75.02962639859413 284.8176667944297,78.16372432827927 283.7209365205206,80.41387448102728 282.93970036044453,80.37134269196781 276.9405215245433,76.20650530199919 276.21306303066234,75.20555417329228 274.38900699697547,75.78568292553075 273.1361506762769,76.83929855475492 269.90699704248146,77.27664407981035 267.7865170121059,78.0983727457741 266.021515100278,79.65903946034211 263.8230627647618,82.4693437040371 261.0540031983739,88.6942634507351 258.54450862036896,91.83486528532364 256.00746294138327,94.28710043016122 251.48088786906612,96.11449173769472 248.46676366789333,97.72110212968255 245.53115407405053,98.86336649687894 241.85349687552275,99.75693636247092 240.99039989206423,99.666771778196 240.80406486318643,97.27021673968761 242.82650834241684,93.37318439638125 244.46624577947156,89.74364179123756 245.21928381324003,87.31132005761674 245.2718607654185,85.78881508831762 244.5861141235483,82.10256326986121 242.6166346447297,77.34086960747152 241.8486369281577,73.0220844304688 239.63292574748314,72.42863697782911 236.81748393790426,73.12097816204152 234.49271151420035,72.99593752332362 232.3288527847454,73.58743816115566 231.4496189282582,73.36546965338039 232.5347825365965,70.92370840180536 234.50020412960822,68.28940125871111 235.23106170573362,68.03396621851607 232.05838262899707,64.43208160135578 235.82292421106106,61.335326515797874 232.61282926795553,57.61408386886444 230.8400360451982,56.4402635929016 229.94691227620024,54.871870500216914 226.61766634710563,56.12603339391421 225.20466775313346,57.03729784071311 224.21089704307903,58.372379376182266 222.08639734942932,62.25777194528746 219.74277751632135,61.80651316896365 218.11794309879693,60.84757339402961 214.5261242157296,60.70708688400168 211.71755341748653,60.27628196502769 209.25036815573245,59.23811304470189 207.49129446254267,57.67356803858024 205.8781681424357,55.45553839873912 205.1229738601913,53.74223588727307 203.92833195423435,48.43231634508072 203.16163903341294,46.77894357874288 200.38921597766338,44.719869121928696 198.68657569659212,40.945408038251 197.4802792188635,39.512809128118306 193.40227264433318,36.15919886173481 191.93874493774373,34.44471189996193 189.03740988480948,32.83218440251062 186.546826779113,29.82239880019347 181.15640096590937,27.821009526430544 177.75246233858638,22.656539505987666 174.93974059918338,19.118393414511047 173.10932521549395,17.23343162813194 169.92905740048857,14.836741844952712 165.68133220745824,12.305462477482592 164.03025183388783,10.012120789147502 162.58506724449438,6.010063391371773 161.72043903229144,4.7911611880134615 158.04106022284066,3.40255521885706 154.37858677211187,0.6186203509520283 153.12112582334473,0.33827229228404576 151.0526036907968,1.196953583816594 149.02418828081372,0.0 148.08478722517788,0.04827646022306453 145.80808728527538,2.675844868881427 143.86256375514407,4.074012939064801 140.70534816195806,7.439263420591828 139.1963706740489,11.122316155953968 138.507247247352,14.87099295149892 136.07348665401636,19.040927620619073 136.68556284756022,21.562954977069694 139.55572698757047,28.396685991526965 141.87623872339842,32.98341963171447 142.33592291542197,34.2957422124889 141.7028414335106,34.732602808532306 137.20059981187995,35.27713544451967 135.13237649999746,35.789318090459346 132.25845681603315,32.87527764183437 130.1201047213164,32.42199642394769 128.07110723149336,32.711743041489854 127.94239823612067,30.776104063193088 126.76437032224827,29.152369195459073 123.69626660831187,29.650070664332702 114.77741153057785,30.14014510308448 109.87148653254637,27.584020730500015 108.10776909448367,25.330658098913318 106.11525266558488,23.97437027378271 103.12011701956826,23.002300155319062 98.9405682740868,22.358084667320668 92.6490527917652,21.96406229141064 90.67884494205973,22.329581869866274 87.2242197233195,22.133255326257313 85.20622993094244,22.350073119074978 82.4349775698253,23.820474723300322 79.55199866181135,24.649260139244348 78.2325020453315,22.065004172179897 75.82023335558648,19.78812707819634 71.43067203215324,16.643025245703257 70.63471977966537,15.533601127678594 66.78076332884424,13.577700558894094 65.27801846426334,14.382029616815316 62.93085240971805,14.904283310573419 61.38576605533235,14.612916648587543 58.556585196737345,12.77214619766903 55.30129356398926,11.03414560761587 50.58579182799378,9.230660757551277 47.451483670936376,7.55716666209787 44.60224389881732,6.864661046553124 42.40344323211572,7.000965373173244 39.686368057100964,8.380729024148764 37.33384389370146,8.734477797069871 31.9174107962849,7.251597407383997 30.107187205437043,7.750671872442581 28.49468767316366,9.600271616076611 26.66130404362554,13.323248361627634 25.21667663358555,15.401889918130678 23.926755669791802,16.339442486390226 20.77563160802607,17.713777855436547 17.76517225226322,18.337435005422776 16.08643387037885,18.33730510417456 13.45258784824409,17.07998513208588 12.242850250828461,16.894678163546814 9.532010229967591,17.77300609744657 7.845800904789891,17.979807657723654" /><circle cx="994.8968083275333" cy="404.7777308936246" fill="rgb(100%,100%,100%)" r="16" stroke="grey" stroke-width="8" /></svg>