<?xml version="1.0" encoding="utf-8" ?>
<svg baseProfile="full" height="1024" version="1.1" width="1024" xmlns="http://www.w3.org/2000/svg" xmlns:ev="http://www.w3.org/2001/xml-events" xmlns:xlink="http://www.w3.org/1999/xlink"><defs /><polygon fill="black" points="972.3234368707527,870.1416594778597 968.910266712475,858.2438648670096 965.9236561675151,845.6346187377866 963.9103845305502,823.4971624300143 966.5384268908052,811.845897827263 972.1152434042281,798.0101058762375 987.1987396326884,788.40403569964 1002.2263012730589,758.3133597025691 1006.7398229539305,752.0559622368859 1010.4857626781253,737.7637842557767 1009.4981613259271,721.1717752356649 1013.7940728192407,698.393019464839 1008.2781711672632,689.679307687028 1005.4589712665291,683.940547172431 1007.2914290046812,681.3140023267231 1013.5302869474089,680.7729234682628 1015.484814233632,679.144527398791 1015.9544307283882,670.181691259749 1019.1388334459192,667.4388674766116 1019.8141850361626,665.4118765272464 1018.8953984224548,663.1164990598784 1012.8091569378976,661.0631353619134 1011.1060970765118,657.4847538562063 1012.2399367905394,654.2935196806247 1011.3470233285113,653.2081493112204 1004.5341064644017,659.148576123483 1001.9664980801383,655.1156317635159 1000.6211109238197,657.1181257462326 996.6784543369755,649.1464567307883 1000.3861366162273,646.1181291664199 1000.8413358070366,646.8959670219897 1008.1286197756741,643.2946645698014 1009.7099355767441,643.4954312745651 1011.5285782206852,646.0832734374696 1012.4933474024712,640.2901729646148 1015.7323245363932,638.3138992841252 1020.4325431892181,636.4587685448698 1020.0369948382425,634.8287177758929 1020.5355475792647,628.1807992400574 1016.7930704335558,623.6937231060383 1017.3648265680779,623.0529926034969 1023.9074290875121,623.4883541894027 1023.9336556772558,622.7911663434401 1017.4613883887845,622.3666892287441 1017.3105605267579,621.7794908439513 1024.0,622.1925673492544 1023.9784406213088,621.7385289311474 1017.0631666795794,621.3296766849305 1016.6524017987159,620.3016843984035 1018.940531131606,617.529446314918 1017.8950184759341,617.2780061328219 1016.0808934146149,613.6390023679403 1011.3597524583614,615.5888624748509 1010.62024445227,617.7260187018413 1006.0362893867086,615.8526505278696 1001.8183467093057,617.3786274864883 999.2520029450618,616.448419300969 1000.9927757848556,606.4559673639969 999.620510445043,605.6062252189123 1000.5694656139013,598.2637334983992 998.4402758358364,598.1365195434203 997.0934297856068,605.2885804382037 994.5991117843605,604.8483600723636 995.5414149300344,599.2129819590423 994.296251503524,599.1406045055096 991.996166365717,614.7328512925192 991.374884120831,615.7654555235121 986.211751651676,616.1880323610899 984.1070989887876,608.1320101903518 982.1841687824291,605.7507563786281 977.5981136059846,602.990265568314 977.4469845830785,601.9587527330564 979.5465357004064,592.532858102059 973.4316605511093,591.8796629112578 973.8651146452985,583.6881735442138 976.7523615797263,582.2652912180686 984.0842610625458,581.4899680966753 986.3435757210034,576.3404189572746 987.6820997226469,569.1044984982925 987.5465053210883,565.989286265193 986.2757179184053,564.3392457719959 984.4571941532492,564.604975928981 985.3438431588132,553.2023045449939 985.5981415247256,543.8693277667646 977.9078259194614,544.5922782892696 979.6740393018182,534.8401320437792 981.3422755086257,534.4245212346189 981.9808545031467,524.4838833229946 982.4604273739753,523.7807166723835 982.6754575097495,514.3258715381289 985.990188057348,502.5643480500724 988.2536783918624,485.0058218498063 995.6229983080754,460.1479219319629 1002.0269855890269,446.4767519757679 1006.3362777228799,431.1298162474496 1012.1564976351377,419.0407127013646 1017.522074352888,404.2686343153924 1019.7451799403134,388.3137748908228 1018.6170689551525,374.9302814574338 1022.6224147843969,365.195680724161 1016.3590560941759,365.12418726653436 1013.3271463426629,368.15391303727307 1011.0989937861538,373.40213442772114 1005.8500569462776,374.39752653292425 1000.2890179534297,379.1351567073018 994.7581148147914,381.2123533109825 992.5853999934698,382.66791039584405 986.6530622096752,381.55839282781966 984.4672401357401,382.6576633267044 979.3635995687627,388.06791128275586 977.0898743541816,393.01228761359107 972.4458093681287,398.1699815189489 964.7397660448014,400.73606895403276 961.5495768134474,399.91400518490354 957.0795473089198,400.5255710353738 949.6793358051727,403.25378498583103 943.9460908753449,403.26139309623255 941.8953607475365,398.47136910663386 936.168683394684,394.69204485917635 930.8262229586257,393.0450505839509 927.1596633443739,387.8592119965832 926.3491764902092,385.5167296280045 929.9066368957125,382.9287646912713 930.981172549092,380.09956457532377 931.345059659081,375.02557743909165 930.4631503235075,373.1071282752951 925.1847247054233,371.3915915056925 919.3847126353301,373.8692678636701 915.4105552488285,372.7139911780769 908.7850085867937,370.019873198526 906.038386476565,367.3530556534173 898.6539107615937,363.2405028342272 893.3277419890142,363.14166804989634 887.7147926775774,369.0488505455767 884.958857577318,371.2289717130542 879.9760368357513,373.0707098159413 877.9018711347416,372.45679425680834 874.1525196040208,367.81657386029343 872.8325529738273,363.14034131662936 869.1334274665899,359.45020261345894 864.2623103188622,358.3515347654044 863.6168489504919,346.4429589866811 863.1799957046865,345.7790233443974 861.4008059937013,336.1139566784266 864.0038662410844,323.9074694521157 868.2229049349302,310.7155417259006 867.479540683764,302.14725279036406 870.0478801217197,290.4818513257221 872.5781861097481,280.4182105910903 872.9717760143892,269.7552849763813 865.121222744221,247.75125410819783 863.8478207911417,232.08033528855628 861.9822555261513,229.20071641862182 861.4764417699787,215.3924899560726 863.1226853445023,209.67654964487474 864.1750002011687,201.6948707922703 860.584282321447,197.02751177125845 860.7527674634249,194.73792721675727 856.9689151696966,190.8846991899644 854.8698571622862,190.53956713553498 850.9892510032404,193.00169228125674 848.711051634517,196.2763629176361 846.2732258651009,202.41767853297256 843.1058495614055,205.12451944424413 835.130664585862,201.1780679881109 833.0372080776829,198.8950867583177 829.6913061612581,197.868571395372 827.8518250311417,193.5724603643008 824.3922354895574,195.98583251818752 818.4880034280391,196.60999368917464 815.665659882728,193.41141332052382 814.3973494507425,190.18254843613727 809.0432029761207,191.41966631867956 805.9630700406108,196.0399798246017 800.9669660636187,193.49374365035544 798.4255588889763,189.74794301003374 793.6707315753143,184.93921616030764 793.327580812766,182.97461975792191 789.478022279182,182.3607493761225 787.363665056745,180.54415120485157 785.942510405349,176.39014372437623 787.5344146213819,172.59499403650136 790.204827049942,170.5309526179651 796.1839804181132,169.3188792334032 797.5337091740673,165.78066920605374 808.0716121001096,163.81713527141562 809.3952429442563,160.03396114293537 811.6082439957498,156.48844718180771 809.3385511075858,151.69787717565544 809.9026075602483,149.22472114556444 807.9471025504771,147.6145805754237 804.088327290794,142.29957324309726 804.4191449633981,138.77869092482126 800.8411611101982,138.03200071961805 797.9194614528598,138.65720447570015 796.3938004983257,135.8569318409252 795.1484325809613,138.93938091780853 793.8504549383556,139.53384403753626 788.4768043485666,138.65516809200653 783.4377539903448,140.5944524391091 784.9854601964857,135.6351615333664 783.7214713636262,131.84079980720958 784.0949273627621,129.12118144125338 782.89132480068,129.2316528569595 778.0602275820839,132.68549177782575 775.2941514874544,132.40215404909577 773.549896959396,131.0223023047855 771.1858281064806,124.3166256940159 766.1809238634758,126.08867071140173 765.0188214638396,124.85312265285245 763.1861121678438,126.25083824373428 760.8517696246876,125.93352906977418 759.3764216665493,123.69933896599275 749.4075729529371,113.30000990827841 748.4820785361006,113.32859581630362 743.1340873322318,118.20402990899004 738.9356681434684,120.63695144035967 736.8618613222562,123.47074001472993 737.4316280726784,126.69957117486467 733.9472667336292,126.74450289273568 731.8640486429199,128.7358967224742 728.9166795554131,129.96864165740521 727.6297819769077,132.96817893173522 720.501217942642,138.32957307033598 719.3309265642304,141.65526949356922 719.2588549374875,146.65961841483272 715.2167188783789,149.34005091110248 709.10099972259,146.95615474791362 703.9970083815792,148.04685780063892 699.2050951675861,154.08147751440708 699.6818853011434,156.77778935096137 696.3128129306132,159.66747034914408 692.5028554321582,165.37027643492002 689.748673652168,167.42363169847738 685.1550180764805,167.83083520850653 682.2647316308337,166.7169305634186 679.5760151856771,169.4556677122947 674.9040468168864,168.4811287953744 673.196309641201,164.02332431200864 671.8834770569654,162.71118117858452 671.7522489544124,159.2929021781447 667.3482354327876,154.56779674251106 666.1868616867869,152.1241330699844 663.5993807493342,150.3799915316995 659.3814090564372,151.81469839004467 659.1606936784268,146.28883719810312 653.424992301035,145.54756063521495 651.788051985322,142.79409890059503 642.4167482820108,139.90951716913332 626.2191647476087,130.74113267075336 625.2477074495318,129.7256184724373 622.174412590825,121.27323167069483 624.483807119641,116.85559221730932 625.7014182492354,109.70950199758693 625.6242140978975,105.45032845081334 619.6741613660942,107.13332716707214 615.9666761920158,107.10943100357235 615.8357472888728,104.15164058540245 610.3504761676347,101.29332962906199 608.7442107262677,99.46134466261822 604.1682597749541,99.23369239530689 595.8059040337505,96.00638700379568 596.2708663286234,93.89887078280083 594.9691166265425,90.95547466586618 594.9940355756604,85.13549460489753 592.2825568090775,85.09211505017947 589.1773847475906,82.00737562715665 589.9544738667769,80.1404610135852 588.9449991443171,76.2227009194819 591.103379255282,73.33477648027281 593.5455209274643,66.95980860562372 595.2810428921182,65.76166567364214 596.461974263072,62.1090237948647 599.5860174948384,59.25020059747419 603.1158829763785,58.125472169735076 606.0970523882235,53.54603088923864 608.9313289094754,50.73319130081586 609.9538945845761,48.4583208480434 609.5052857041788,41.81909449946522 605.5668512159089,39.253240677485906 606.0112685856465,35.86799613378628 603.2196178251858,25.31442876846154 598.8810324610233,19.916288988258884 596.9761172982772,10.801872105366328 595.0634834221845,4.899974411882681 591.2050731591626,0.0 585.4161628529484,0.7387224388245386 579.5763268948168,7.110503484220544 578.2528520687896,9.942815159231145 576.4301728121239,10.512706153985278 572.0921226559218,16.33173084681016 567.873224642082,19.95756076769942 568.5586419280129,21.668761077917452 566.0314414595152,22.499654048747857 563.7650823228951,24.3957224157964 558.8197518548586,27.072116086224696 556.5094710864025,27.457103934973475 554.3569456300792,29.702607437242136 550.0749260947969,29.331875890460424 545.3966950444558,24.35609128660201 542.1864543277386,25.4295550929304 539.6506052968462,22.637523953633377 536.9046925847547,20.83806521651934 536.1462787343226,18.76886877704362 533.3883337505058,17.438972489978937 531.7751509354631,14.721828859374227 529.0435656669723,14.346376940459209 527.6134936223602,12.094561386876876 524.5104042606023,9.783092565827701 521.4309755565091,12.118120857080157 520.3476715154195,17.90851037500431 517.5898257971525,18.948993367068965 512.8695677878086,19.22421150333571 510.4692691674284,18.338236354959804 505.5954878568867,17.827540282199152 504.28258051647697,20.938748957818575 500.1531605430164,24.902483595857575 499.3950619308671,28.028121630956434 491.8933391946731,31.766422282788085 489.72638806178105,34.52252701556756 481.7111168552936,35.16432953111189 475.4323280724824,34.929976827093924 471.4014260564561,39.04680536164574 466.3421000631247,39.68629616127396 462.5832463628377,41.26485831837567 459.30143236028397,38.4075948726944 454.4800357291796,37.819904260910334 449.32641651652517,39.29855093067431 442.08291104066416,38.31614236510484 438.72818379430004,39.35808289415729 437.7079705476411,35.603964447372164 439.85957105589534,30.3447795230403 441.2664200900685,22.939414806227433 445.13004785718596,18.98643973381843 448.88462574271085,13.63225248533297 445.702016293221,10.179339865103998 445.13528797850074,5.560143103424025 438.1332845437104,8.657607572561687 436.045242382177,10.330916575500964 434.2661419178316,10.092989149892901 429.2222078192655,12.892978700811227 425.2185722794076,13.240346258150566 419.6736712594117,20.195919058756658 417.508588856587,20.920036622448947 416.1167205627836,29.237663188445822 409.6520713815801,30.968570115351667 405.1292222294695,33.4955536434843 403.10904519694753,33.39043773547007 400.3285668892732,37.13872372172807 400.61634579643834,46.30146899333249 397.6050328367277,47.956617922970736 393.34047110506134,46.91424924528735 387.01974633107335,52.41717346957785 378.41391416196586,53.18439647274454 372.84016232295494,45.000868919799814 366.61943300957233,39.97780758913609 344.3507165536373,34.40661295494351 336.7744965412974,37.34681378774019 336.45144542457183,45.88376403616394 335.49085286878716,57.05576754457286 331.8225917757278,69.20589667246043 329.0322066294281,72.84107768183162 304.10533382217665,82.10819143876938 291.0198643457353,89.11854630082053 284.6219954133693,102.54241096576231 287.5222567922165,111.05150156325362 285.5578370374206,115.60440826761385 287.76877100003514,118.5431377406237 286.6470185287106,122.70036588639073 286.37699090181155,127.67201676575746 286.8925020456748,130.6154214735467 283.9950345735886,135.44752211805235 279.959894632308,137.570343966123 281.35193432304067,140.42616134385094 281.05189399539535,142.32113469874673 279.32964869995345,142.96951130361708 278.64893483771675,146.42685114272513 274.0715336168599,146.57093314326482 272.00141167735296,150.07845101492205 271.56948222982703,154.90836960607828 268.8363243429364,158.97927844639878 269.81705332040417,161.82387291370185 266.9652631290909,166.49177353393156 266.9932073881036,173.33528549352525 267.52772226861896,175.58360638643308 265.2437075423556,178.59889570410292 266.1129618586546,182.49208991508124 265.46241027828967,184.45649760991262 266.92220591652034,186.33010961472053 267.96783989100993,189.82795391330887 263.6063497721222,195.4989377094572 261.7756324833022,204.8482445101946 260.25273613210294,208.25905158668957 258.5716145656059,214.40630299627423 259.7380003336967,216.4626623390751 258.71631944209395,217.7746587888829 253.77471859514776,219.42987457088032 234.76245291375113,224.2622823671544 213.8284048847109,228.28037562463942 191.86495810254135,232.24126928700286 171.92129298182596,238.93633920826676 160.2567033450413,237.93070290001242 150.4210368642865,245.01953314052355 147.92453141711363,255.05644537055866 147.56141756353546,264.6603928350336 148.22074376082296,275.9010356829888 149.08518780096617,295.1561717957519 146.0806126292275,304.64356058969895 139.4516753592502,311.3223211276776 130.78876131913557,315.2440945736379 119.12875406735871,314.2428146913975 96.26757780147896,300.5119235241872 89.16847406014837,291.12712248263483 85.2973209745951,280.83631340768477 78.61208513599817,274.6924222497523 76.17239278557403,273.99641205010096 73.25314852949708,276.0787820469642 66.14633396506119,276.77009294614754 59.55570398969902,278.7301440615994 56.481672834585346,277.25696610333296 52.766776075201754,277.3079192429316 48.64052754250269,278.7360278024137 42.89195071545378,276.89900640574535 38.23607901254042,283.47484374243186 32.4394806686861,283.65345015137586 29.005262976544977,290.6460986326764 26.79174966256733,293.19257262194117 26.72094571353351,299.87332758660705 23.120554977357642,301.5976326634476 21.2059895641189,303.7874096113187 19.505372362581575,309.8809302026126 14.73781185648437,315.99219763287715 11.981845195009402,315.91890121740096 10.14716829502722,317.8339873524651 6.2453042240759,319.6073203807533 5.445366173349923,321.30821530490175 4.404896042415313,327.3277970592013 2.424462498781418,329.2804355713796 1.6095871048216128,334.627135627264 2.078741653277469,336.5372574536175 5.03234144071425,338.96663939859707 7.0078457693429,344.9787819748931 4.392991431711212,348.20205808804144 3.9147837944992445,352.939629614497 4.842724320960142,357.4855277482103 4.057462883658827,362.9052293150154 5.900322312637511,369.9140495990853 5.808915251810966,374.5000123378954 5.02302676236826,376.3758428051002 1.7724460034184428,377.33511677615314 1.9434655650103627,380.2906066293988 5.154937478498902,385.268405357872 3.855161227038771,392.0762167694931 2.9796226878465957,401.2535290447481 1.9794113081824916,404.4913118184902 0.0,406.6790207204268 1.692086924496075,409.75100509691913 0.9682660041499817,412.9968442033122 1.3850078379692679,416.4132328398965 0.8802230119824623,420.97084203193714 4.757567135551502,423.2711378042553 5.198487727831521,424.77318774199097 3.2782993314490794,433.0265267511276 2.1270539572933727,435.0918193258147 2.555019717960343,440.54686630679504 3.3442951090699635,442.4360234789438 6.275454837057883,445.04606288673256 6.254902632816833,447.1443054672506 10.136112721584055,447.5807001733063 17.583801272130206,447.15264263199043 22.698449488198612,449.7931677072939 22.372912852664097,452.1431572766428 24.541683431765097,454.0698683856171 26.419439659476232,457.88914922909987 28.168647541476368,459.3336162696584 28.016111822891006,468.55515355789834 29.09683135283135,470.319954724715 29.56897908868461,474.2892642383328 33.39838870819638,474.0417573664463 35.90832775996549,475.5872348778272 37.210119496652084,477.5770826039935 40.62740225838746,477.68279243757394 42.24622285330871,481.8852562957623 38.99537119996661,489.6258254407264 41.28734951825978,488.34943197190506 45.65689374913072,488.33591380147766 48.51709237336858,487.34571749082426 53.43778282255869,489.9888049976005 57.49928273633515,486.64804179901006 60.655166879852,488.0022516077709 68.16998404308441,487.8085667832056 68.16845683227491,483.92974072711877 71.77162258545859,483.27456630530924 74.41272950514406,479.1527331612879 74.35558514951443,476.84058363722386 81.03998158891932,473.66980493976934 84.093544529784,469.1664064606119 84.6382850310635,467.3787227124364 87.3080871252965,468.0297685443825 89.1525494201001,467.27275201838904 89.26201769158823,462.0219940604975 93.25245185208345,460.4373996971232 95.10949227647869,456.70239667036935 94.37516990206144,452.8469009381747 97.0545882975403,450.98979632896015 101.60637114779679,452.8274223647122 104.38567228753887,449.935300608998 110.78250003547188,448.07210412413946 114.28520649261289,445.8891129251033 116.14329630536027,442.4657132358217 115.64178711247025,441.25783668087195 112.11075789321434,439.791672396092 114.464702433685,437.40151495782146 112.72562220666161,434.4692173418299 118.98704078658898,436.23162806615824 121.16516988509777,435.68383521564596 132.58347644800807,448.8557062517787 188.5698358300071,526.9496032632231 196.0499473167327,530.2595487614922 202.52801610371355,528.1387429412989 211.5155357044243,519.1445934654453 222.174840754708,513.2883892588698 233.23039140760952,514.3781429260761 259.56299801541735,540.6607893067203 264.86152340479094,543.977196589251 267.12488569540284,547.1079660237058 268.2345783797168,546.449672299429 272.25371061051584,547.9369745278856 279.0158385768261,552.7656019534176 282.03351443609836,550.5655777653722 284.9798430936456,549.4268010126054 289.2507151640291,549.2546802201698 290.3918373495237,552.3614839057605 296.70358916438613,555.9416178280089 298.36732647136597,559.9443208140076 300.62042131221165,561.9924067794946 301.0431984129011,563.8953808115823 298.34756773649553,564.5015216825774 298.16835190081355,567.2675887713445 300.5471410675105,573.4603587054239 301.39094270409566,577.6594380869383 303.82813692468847,576.7042165808147 308.1281686809922,578.9309925611228 304.25162368976703,581.6410203466196 301.1797210763899,584.6612940144399 299.00430675658464,588.5085229257793 300.72130216077596,591.2818618338658 299.97188273069696,593.8695876634789 301.81347213015096,594.7199041648003 303.19561760841316,591.3071240458651 305.0975146358894,591.8193618345446 301.1282403255345,602.5487742428886 300.93565103650366,604.7049155351311 302.8258252628701,603.3788775833891 303.72822362231244,597.4915865915398 307.45091188125036,587.9094083883072 309.66804982687034,589.4165906553826 309.5821033597502,591.4174197813975 312.74329156160695,593.0478341941309 314.0987126703329,591.3302985306575 317.77671552623536,592.1812389713782 315.9701979083679,585.4017106279985 316.12466689647357,580.8644776840039 317.8180522878895,577.2762117827162 320.3662130623451,574.8859345326564 323.8573075420491,573.1073695363191 325.9133437135939,566.7904878209089 328.99452406118286,566.0104723241768 330.3362659203851,567.0749801566257 334.4120394428777,564.5977117626146 339.9955192034702,560.0926279141022 340.3326849082322,556.7375432405624 345.11920780531204,553.1275072626829 347.59507590901023,553.7267874541092 347.8795845254947,555.807354964492 349.8407316074574,558.3703123039048 351.0829738945853,566.6301977111732 353.1168781961005,569.5789250301947 354.79213651411993,570.5125587068119 361.61032858714793,568.3593300725684 364.33066190806005,569.5232225893051 366.29722004919506,568.7987434247161 367.40233253391517,566.7809577438148 373.3445584592481,566.1113888693548 375.40366312163883,562.7068246382447 378.0265527996559,563.2909081756234 380.1894698681192,559.0957229470544 383.17518713231675,559.1659281878348 386.56168060306214,554.6449559494125 397.72434890957146,561.1205913933218 410.2698855366565,574.5624434100368 423.068791586664,593.7351732863033 430.7702969348172,600.3099985170516 438.69394775761697,605.906148253795 451.90335792884895,635.5975349009349 500.70991034439373,653.3806378939013 519.2015075232613,659.1936216732097 533.4343322889857,657.7721106706084 541.6300816929395,656.6301695508029 563.6614526005719,659.8668359926971 578.8604275560521,661.8667386065924 591.5000548970087,660.6159058139921 613.4040929222142,650.119584156372 623.2732432143125,640.505926426959 633.4512972772843,618.049237098401 641.7529365870068,624.4906545133855 677.5072185164728,632.8747666407877 698.2135016890276,637.9693674217223 709.1337059715069,637.836926523642 715.2509679793128,637.2281952112742 726.6102545401986,636.8075021226645 734.0562699292583,637.4841960726826 742.0067337578785,638.6031045245668 748.2287687429758,641.3080423380329 753.6146892379976,647.4444857390428 759.4657615849864,658.3023593967996 763.0644767885822,665.5722737348698 789.1559023740349,687.9646024686044 800.8170653638176,701.7950985074349 806.4971653962587,720.0646301197397 811.1356368697723,725.7831868904462 812.9987882263772,734.6549256065114 812.50676453281,739.2395459016335 814.1665259465874,741.4515346471958 817.2124904276167,740.8958294691719 821.2956011895457,738.8108511010819 823.9350620937562,736.6334181072251 827.547574801612,736.9701898045366 829.3939483643659,738.6886462076222 826.8664815411031,746.5769652412943 827.0445411909845,753.0010941751458 829.5908503042274,763.949591814657 832.6532763338364,765.7758248750908 848.4847133988977,764.1347388101426 856.3766536248029,761.8755508327027 866.3298625052818,761.0714887762127 875.305595121771,762.2769026529551 882.032442623334,764.9110504955378 894.041163764667,783.9217411690211 904.4685059805294,801.4246876405604 916.9342860279874,806.2321437331733 931.8698835096611,786.6634145568759 957.6775617099934,731.2640815454481 961.6369076974902,733.5710568022782 963.5998143491047,735.6556636945894 965.3503711728289,745.2830963745985 966.1453890535906,747.0363557830642 968.8100325526377,746.4527231953626 969.9549534266854,755.9523208293737 969.2379849368157,757.5153255282365 964.7143401364441,758.2496982482581 963.1093480775113,769.8847125303809 971.8477823723342,781.1038201210233 977.2124825993764,785.193656501769 967.3149245576386,789.0438400395809 962.59994407073,791.7811297703244 957.3722739468832,796.627847840201 953.0730842328848,801.9398660329373 950.6555949347712,807.0412590634671 950.6219768229548,808.8989199741328 938.0340507917524,808.5247136071654 924.7322143506344,822.4423748896202 917.0518737576365,831.073876620602 925.4973502406126,849.2992173394842 950.3663597320602,879.3340828284774 961.3496912615626,875.7070994347738 972.3234368707527,870.1416594778597" /><circle cx="528.5137440127066" cy="240.88799530522704" fill="rgb(100%,100%,100%)" r="16" stroke="grey" stroke-width="8" /></svg>