<?xml version="1.0" encoding="utf-8" ?>
<svg baseProfile="full" height="1024" version="1.1" width="1024" xmlns="http://www.w3.org/2000/svg" xmlns:ev="http://www.w3.org/2001/xml-events" xmlns:xlink="http://www.w3.org/1999/xlink"><defs /><polygon fill="black" points="471.947528901977,4.331429373676428 471.1109712759615,6.599785453404479 467.9062675049447,8.883145532368076 463.8490529166916,17.36847169137627 463.3334360184792,20.349695388748387 464.14122740758455,22.884085825677175 467.18205451716966,25.646357724860877 467.14445524390317,27.31056598553812 464.91482421243364,30.501887901450004 463.7187840439642,30.604250974715683 458.91470312239886,29.150657667807536 453.4829514293974,25.92574659126558 451.79379794260393,25.25129010348462 444.6894900711743,26.37343714919575 440.91743606192256,29.081126805188546 440.0379278868906,30.187410137592906 438.1433135734181,37.85640871496844 438.2645654211601,41.35977743053013 440.3708545417104,47.794588427967255 441.5584258345663,53.50724242054321 443.27992070524243,63.55603662954354 441.6718507425835,67.50837079235009 440.11519486203673,69.0395485952613 435.9673201712708,69.23998356430116 434.6194883546238,69.81506815500882 432.84311649390605,72.31526952388651 429.62892814058165,75.28717955098432 430.1789681037494,84.40339945821472 436.0162085935002,90.37274509715849 440.9773091579015,91.37031411246005 442.0130743672841,92.4503183083358 442.2404813791999,97.51941542966676 441.18199927690887,103.07129293581181 440.0562368002177,106.01425681104524 437.60592796641333,110.46027268225339 438.07955116939166,112.40970819353731 439.8953112139966,115.37682596661125 440.1950770452316,119.1897220042157 439.71611171913617,126.38992388476754 438.78705638658374,132.03686016796792 438.9800576795788,134.39791646282652 438.2625696553935,135.97378173397988 433.85982415885144,138.160473673139 430.79159499837584,137.71193602327412 428.6773154711354,136.1212890085701 424.61476425181763,132.1925856194099 423.5297579930644,132.1395507757918 417.1395298689108,137.60186842238556 416.4846877597715,139.02859612722796 415.40559144589866,144.34025110986727 415.62319801871433,149.81878369529568 415.24288134235945,155.22589920962832 416.3439388278964,162.460846480976 415.70658834901957,165.74385440793696 413.0642663182532,166.93857059112577 410.52537029659504,166.8797693394955 407.0338447295435,166.13497294329363 404.63773524981104,164.90507745391676 403.1831683189987,162.75097900946992 403.13801906049343,160.19932635696193 403.7620495798945,157.6937272996612 405.7109254271366,154.3804484797829 404.9437268051125,152.98945380703265 400.29294454229995,153.5122665684845 397.42423198916157,152.64184050844415 391.0307793642373,146.28606193207327 384.8208927895523,145.47582498768668 381.70002555337504,144.5587055809766 378.3521074998627,142.23299715374355 375.3692818589099,142.1019143468452 373.00763321092,144.5665608849754 370.09155775899364,145.7316841210477 367.02654110103714,145.6191982692984 363.59909396282114,144.299367492407 353.8367871721361,147.08476369625419 350.7121901913299,145.35344335787613 349.10023497086144,143.63809751522706 344.0898547921825,133.9821606572956 343.9328530069381,133.20183185010546 338.8277272132175,124.89518423967502 337.0522809445288,115.12194813091685 334.83012881988583,107.95168673619173 333.66594816119294,106.30029693684992 330.77511198856456,104.23287552363968 326.2136190990299,102.52024643150355 325.46030031571246,101.14273142006448 323.22083074440843,99.51724259639673 318.4278197831436,94.77507655224508 315.53162785394073,94.53924780231262 314.9688379948136,93.77838325817709 315.08305272367346,86.70558493488431 313.3133646356682,85.97473586098022 308.1027893402167,86.37139132950915 302.8894796336097,82.00130032154004 301.31684126122553,81.55309160331808 294.6997654435791,76.99611260816368 293.25449930925345,74.84857936338256 288.2321131032049,71.67272329513264 285.4129370134105,69.32572130858762 284.11693273916626,67.33808080528945 283.0601144831553,63.667391806054184 280.6013076408046,61.573171488782236 276.4617408340747,58.93910409639989 272.4081379002454,57.03469251427725 269.0242578034739,56.06343526483158 265.65813609102304,56.11935921522672 259.8830577768227,58.35432908103758 256.77905922246475,60.763022366879 254.31962788098625,61.981441279926 251.19969355313148,61.885198860088394 246.65279053333185,57.59203659174989 243.63464279496966,53.86326115234829 240.13785905445462,48.91303822073883 238.33810878365486,45.13743783229188 234.15454619889235,42.852138999803174 223.82466845081,42.637094415226784 220.46838503085343,41.417169475291644 219.15937405275596,38.87013865481322 218.82582594441496,35.31153122227818 217.41402176262483,33.279238274654176 214.70135648546704,33.63126099068654 210.49996337989305,34.81248826162994 207.2258952716918,34.021651924519574 202.43552223782456,31.80078076162522 198.79797678691205,28.831212477364602 196.39194016763182,25.210727286292467 194.5791481039806,21.780950746793565 192.89284623693277,17.31428687651487 190.5074396997831,15.85004518704261 181.1036419296524,11.912262905585294 174.87295765217917,12.053952429630954 169.953803829222,11.546541001279707 166.88762114407973,10.23411892347076 163.22757138415133,7.948590627022327 159.021719758667,4.003981461220292 151.7397998185556,1.2606406924893463 147.52941045670337,0.0 144.3050796628755,0.598608357744979 141.9982203042306,5.374067127897547 141.54027768590805,9.088422345524464 142.54341232812797,13.097967137823844 144.11974859759536,15.653788677133662 146.3846247744196,18.233165997640526 147.00003763792938,20.764785048082217 144.52263705028858,25.45040555136086 143.28775070064623,26.623377772823687 135.71822830035362,28.691528861475035 134.0580386172633,29.445390072583336 127.79333945714106,31.15735377227793 124.92095354188788,32.54015574932748 124.48189525615872,33.46762883133374 125.54929411096774,36.107592023654206 126.2729269612873,40.71926314803045 126.93844536454704,47.23547126379697 128.7610750992985,51.706034647328465 131.89039920607573,56.25069672573272 136.1546566627646,64.07178381837684 138.3683860644537,67.1915359109422 143.15137413754482,70.18485287688793 137.50550500857278,76.92877253135623 133.87125586848873,79.4531152724644 128.2075367279602,84.3646966746785 126.62936181231261,87.78574253991007 125.87490294875654,91.13240056646464 124.72350652944633,92.52026300585578 120.91781291305422,93.71176414659521 119.92475578896996,97.62516199413426 114.94361187171843,99.9039857720046 110.9488473798898,99.71953736670616 110.21886741178118,101.6567502718791 107.97030322881358,103.43922613026689 107.46040265151146,105.0963863614337 108.12297588602527,106.96740916222257 110.3818467221689,108.75020842295328 109.3961462223501,110.3679557394322 105.56755204214728,113.92360406345392 100.42155180202155,119.70920522237816 95.03155588428613,127.38501034407398 93.83148643941999,130.941594473779 93.07542927399136,138.51477526813335 87.77768660894765,146.79701056004922 82.49337245476109,151.39481484797534 75.43854850653982,160.23275139535747 74.02975302535148,163.8957079491238 73.81361035969634,168.22587385132977 74.15190742611529,171.9769846851451 74.98857412976255,174.18421916279863 74.70440845132381,176.47143323257353 76.82374141442996,179.03406220658684 78.08800940490339,183.9579330400719 78.34433671218689,188.91041378410534 80.66725412768326,194.62831436258165 78.37557546307835,196.24233559776792 77.28025097613173,198.03131193902755 78.49522039268487,200.60542624583508 76.04936313145717,202.65935700371762 75.45624850531492,204.30467833762413 76.38300554228893,206.61163496832046 78.82436265758496,208.23421399234377 79.21512304679058,210.80780130912643 82.24699802363286,215.17971619279177 85.5395152283235,218.15760069956997 85.46471037550502,219.07848411866053 81.5640347231666,222.61413091373203 80.26720324497346,225.08991594186205 81.97714951664528,229.02543084104047 80.56740391019545,230.7530724182286 80.02684508697574,235.45102119625096 78.10371157284068,238.09597789033688 79.08720417759363,239.44849661513302 77.05472738630509,243.13736458052 78.41107321875003,249.7271502361972 77.95255903670625,250.9055671271667 75.92595586152719,252.0089751664898 75.59255573637449,253.06782883434408 77.33236643992002,255.5220626960563 77.05466194144627,257.96474327810387 79.64596279866241,261.00261520678737 83.03511535310443,262.78785577778774 82.89572995640056,263.8381843831599 80.40457268337506,268.6883696069781 77.7241599817805,272.93833588850003 77.31556274079999,274.9267672681463 74.58492836466155,277.96373739152847 75.47000489210457,279.2127532651108 75.07470065235867,282.2426345430418 71.31313293537585,283.72618619310435 65.13964390320403,284.207604661944 64.03520904925496,289.7194117939781 61.90727018684045,293.04709159022724 63.10968142333897,298.51806845258164 61.07444513232036,306.419019283324 63.10580981859695,311.8448872926913 62.88691974528916,315.89670935908237 57.29434487633959,318.9089007538937 56.8360968390575,321.57013113371914 54.98465809928582,323.24176732434813 56.038076742371864,325.48384245587226 55.13131311815595,326.5637282024511 56.81176696527746,327.1293192068796 58.39768305956836,330.4964222570527 57.5279004048035,334.0386628236424 55.08767426997002,337.09459940787985 56.66289684697147,338.1784968251726 56.316370370511024,339.3076094564611 54.039364994701934,340.81801636588295 55.67695374206634,341.85597045945127 57.93277023212161,340.75645365545006 58.363528679151884,342.2492008912281 57.13149276523759,343.6429451850425 58.692172396025164,346.06412536051937 58.787649979091285,349.03697292597207 59.96809600920155,352.717432072666 58.78381451218369,354.6207864946988 56.370922493876684,355.81983808396177 53.09073065158956,359.69184700289804 53.460120065775875,361.56809823465517 50.98601051025529,362.36052868303017 50.2526025741823,363.4253347016216 50.68198096350688,365.74234068185075 52.307735476034296,367.65901503263393 51.462110832938194,368.7140802248957 50.645968844626495,381.78930799533845 42.72384353268018,395.13386932771726 44.93652258642773,398.8670645885157 47.29946109088923,401.59466563099994 51.7755826937843,410.3339033088279 52.99015138125752,415.51208646853127 52.867187299657004,418.6420192914291 51.395823190557955,419.71664454304647 45.093114848372124,421.165205743612 39.765671241222186,426.35024294448647 38.916937864479635,426.31408101076966 36.572928560237955,428.21042564364467 36.52969214495481,429.0682750529063 30.335717591117124,434.7942124096253 27.569248327298872,439.8076492592528 27.31949112418739,446.0653977572467 29.610324535680697,452.7082309778883 28.839028020711165,457.8049999682578 26.80063194535257,459.69710010269245 24.319691780363993,459.3554301440712 22.265169817787505,459.93323334199783 21.190498973153723,462.1745130727184 19.60963641115608,463.7966949136836 14.461818591656714,465.81106448364636 12.061025639365077,469.68860956197716 8.006755868011979,473.65224153593215 4.222172295997289,476.7287065562076 0.0,482.2847039508891 2.645335626464894,481.91675750793274 9.30404129831103,480.2326402910833 14.173603911861623,477.597778877986 17.05565305476397,476.78107775487564 26.71484715630555,477.0613184629516 31.123083187069827,478.9819789238055 32.90525811664403,479.03619482406134 40.75334337740149,473.36729338534116 44.92598013197586,470.99332885068424 47.99084725239013,470.19297003365386 55.07127179262424,472.2014081721253 57.7728051453314,471.5631695123163 62.1189722038929,469.5499340949955 70.48135730481614,477.1343944485577 71.09042409260037,480.5561275029116 71.62212157237973,487.01806123716614 72.76087224395519,490.99135787921864 75.21968011906645,492.67138723927746 82.23900536036554,491.611143310273 87.13517735263704,495.8579430035361 94.43910938095813,503.9302327050458 99.51692680225713,507.9953605075995 103.35127539313198,508.4554654608798 105.17103763380139,509.11293960750925 107.68046216188168,511.33036843308065 111.37757560809615,510.71176559773096 116.39313662821044,511.13082092926527 120.69099174867985,510.68474199184266 124.36589739931246,511.393575074047 127.32112292534454,510.9142423852299 128.90625611474948,509.82363408677315 130.86718932290768,506.7589412304168 135.8101279658794,503.758974211755 137.98561445834244,503.2606172292818 142.5316887698043,503.5341945732381 145.47920074575856,504.6231506857394 150.4549018035492,504.50669593329303 155.16252329861638,504.89976109716946 159.0182248402011,505.74758984115647 160.9967344656481,504.01073940606886 167.87415106096626,504.1227623996496 171.0525867566788,503.2326384323544 175.66230528342967,500.27600582555544 178.68407995022065,499.04476968435006 183.7971548070078,498.246374693064 188.04984691842523,498.3015665141112 195.58836594904633,499.01590700742025 198.61927175243352,503.2750105281198 199.0483127693235,506.0927209061979 197.49674065986474,514.9377654874961 198.05839743917767,517.3255550660115 199.65845147536035,520.5218634428047 199.38738865577594,523.4832748181024 200.52583851164354,528.9903457819802 202.20911773774722,532.1819067136448 205.86437032011287,533.420091585521 212.03033153062128,536.6694848001666 218.90680050469675,537.4952287702422 222.84418415408405,539.9643701451206 225.9377952728157,541.1336420270088 234.27761101790065,540.7483708642164 236.0431558740661,541.1790143406263 236.96734509386133,537.3141869581173 236.74245586052552,535.3532836639416 235.1069152790991,531.7304815325867 235.23545432887323,530.0460580963068 238.51749126075498,529.579259620273 242.35318711238477,527.677804531983 244.8713164422425,525.4935081744161 246.6029983675813,525.0758728066479 247.64597403014136,526.1996755735194 252.3240276604439,528.0814378092545 254.95791548743776,529.6380535738651 258.70841901368084,533.7448467637304 259.99059411671465,535.7067987287219 261.7479886449966,540.488473393179 264.03666938000316,542.4228139470496 265.47908830964485,546.1036096760707 265.3566986185168,551.5225240706425 269.33135250026834,561.339908691924 273.07437943007454,557.5025579145962 275.1086157118285,557.8957326689168 275.7257484175747,559.3347422166074 277.66071834102326,559.573936255387 279.2977512720092,558.8145088554302 282.44859425437045,558.8236092023881 282.68834922443796,562.1907006486937 283.97454355008097,563.5603645898115 286.40246467741525,563.2856446451002 287.7262080035548,564.3111383019628 292.2360347899718,564.1257984843851 293.7033756048012,565.1818960180933 295.68397084309925,568.8187443593448 298.21569334287426,571.5978150043562 299.727859206098,572.4755431594258 302.96140761586395,572.498196345303 306.54860156209077,574.3741435688025 310.3930920861156,578.3298251078836 311.0141535015789,581.2303934157057 313.61024633004445,587.1404611376895 314.22090800388827,589.5445411470148 315.84235057723424,592.2581747876743 317.8775301311623,593.2419032162837 319.493804661814,596.2448862306123 322.709577641894,601.030575996094 326.7947024187169,603.9085818156369 329.7576955362099,606.9306290872883 332.38097328532064,607.2974869386486 334.72422478067097,606.706961105486 338.28104676911266,604.4085505533549 339.54637472391937,604.321636625764 341.8449325710601,605.5510417527715 344.0445135046472,607.7092354364687 351.83557797867826,609.7365692660611 354.0114219910478,612.0942230918853 357.32966904007634,613.2447323289391 358.38721407914323,614.4092608393196 361.39338633898353,614.0913483231999 364.1260922029106,614.6857831347793 366.02842604592206,616.3067725609164 366.0501671038485,619.6528716253416 366.734889008188,621.5761390603299 369.3049645053286,624.9616667017369 370.00523198212665,627.7342945184193 372.00820336742754,630.1160284894354 376.12284383815563,629.920600628092 378.9151711993991,631.2878802031785 380.9784149194669,631.4350117535143 383.14442472354,634.5095724014294 385.2300517705767,636.3336121226447 387.6180797384058,636.1681848483645 389.34860358035974,637.1302362495338 394.07598981195923,636.0254451708229 396.6798942589531,637.0298716521883 400.88852253176805,633.8037219539438 404.3062544713392,634.1035435204691 405.93883424583726,632.9931225071267 408.679752461341,633.8126137421356 409.40237687712454,634.839339788132 410.547225948202,633.996069465084 412.2577011311497,636.1849210376024 414.5774404138888,635.7755378590265 415.49609751878717,637.3849625484354 419.7261331325039,640.1473194741567 422.3498274988765,640.6120214992719 423.6286186579213,641.6133559268809 426.7110011064891,642.3270037987509 430.66055612090594,646.6090787038827 432.56211989566276,651.6515263502068 434.81023432343693,653.7729515034118 435.71813393107504,656.7354349943479 437.0564946521096,657.2819657599499 436.7897413436646,659.1554094162119 438.24649992331837,662.5484154620829 439.75041834887094,663.0424079127148 443.2225023610621,662.0349817612391 443.85999550262216,660.111989645619 449.56186157673494,660.4864442276953 451.8388510947403,660.2395593958834 452.00662718191415,661.9753668380735 453.7235257490997,664.6055138227564 453.1660569804637,667.3309638764475 451.4682593026481,671.9031987774082 451.8263182133344,674.6231565838474 454.3172627230473,679.7528735557529 454.74567068164856,683.2477712958787 455.8955796104743,687.3210293868086 458.746809236743,686.6334742366165 466.19711042617814,689.3056221269726 467.5839630461822,688.1319389070804 468.38513826710533,683.5573902102926 467.877622114608,676.4632082208261 469.1567607799954,673.5823101318491 470.70016024431004,672.8877522390931 477.42139233411694,671.2781187374246 480.4358093316733,669.224770267573 481.0664280777702,666.2929494208092 481.8299356824752,665.4623498602518 488.0335429066381,663.9610249739491 491.64563908080675,661.7505550171369 492.79363738190193,658.5435947692168 494.1989512997031,656.7076778407612 497.787835707763,655.2973966449603 499.1643770007614,653.9788067416424 504.64728167193834,646.7710183903849 511.3755185362365,641.4382073217041 516.0773592017423,636.1104334596043 519.9617613145225,632.5166975538257 524.581232225265,629.9405211312563 533.3640427939227,625.6979583535747 537.5268590736847,624.0867568487664 539.5177868639117,624.2385022689367 544.1922995845916,630.2273877587768 544.6280574838413,632.937444433258 544.3828857840214,636.590497188573 546.2124589674397,637.3054730828203 549.3625984222288,636.9066883266613 551.7531184120446,637.1941902437167 556.3224925446457,639.7807533039271 558.9561898683672,639.5535987341984 562.7680508263467,638.0657426376579 565.3616741194593,635.4439128508748 564.8751184082589,634.1409822271756 560.9397762946026,627.9429427315391 560.7007588651157,626.6017155272418 566.9084645023215,623.2973760021001 566.9979381250049,622.7399353679984 562.574364112119,620.1092202876631 561.3196559658874,618.6861890143888 561.4011267747642,615.6601379091181 562.4221100992664,612.2328858109133 562.2237431852625,607.8386346338609 563.3357975867805,602.9869501689466 565.6708463114937,598.7787477371244 567.4031429725773,594.3080921274974 572.8586508305802,590.8101462814626 574.7212343808361,588.0851099750787 574.7999845017134,586.7699829060625 572.7952833089778,583.8639274466907 570.2544035433492,582.762468737965 569.0524952216256,580.5076400049029 566.7898426744064,580.9050679301507 563.4667356765043,579.9928668831238 561.2947017933649,575.1072152947261 561.8485652386249,572.0496806458314 563.3172363550782,569.6377042934619 563.3589365789564,568.040494987228 556.4809582606309,569.8974871959227 549.5561093258959,570.6229737516102 546.1914971172911,571.3276644756156 544.0623698984981,570.9677014956859 541.6750413072268,569.2334687796839 540.1673586933844,566.9809684361841 539.3450921182767,564.1596610504655 540.8612995196977,558.3824399801015 541.685249007551,557.4094366834368 549.8002775716869,552.7564441151308 551.2001510093479,551.6190165535786 552.5369879807484,549.08293984846 552.4989980878452,547.375154114727 550.5615812171941,545.0771376380198 546.913505209767,541.9228114318453 546.7936738608793,539.4710160418242 547.8964277798956,538.3092424891867 549.8416424951727,538.4872982927452 551.5898859867413,535.8410130832523 554.9483110455535,535.3703740706495 555.4594875361854,533.2027396259111 557.8206818716678,529.9111416207311 556.3934304705967,527.8278526963103 556.0689242738798,526.0550301493778 557.1770812678425,523.6825808688478 558.806147275021,516.8804245240343 558.3934156923079,515.5748561699286 556.6386883887111,514.2786521633242 553.9060900834063,514.0557734093536 553.4840028750209,511.19559835782786 554.1238704207686,506.348944757229 554.9027751238445,505.5687647756947 554.7229909145743,502.9874454500099 555.6796432933968,501.91411854635385 562.2741421129815,501.2880282521161 563.3445214013138,503.17953931241084 564.8379423567586,503.344118607044 567.7212495897553,502.1860410447511 569.7710051243541,502.0894662284859 572.5461501247246,500.5721692630764 574.1660255101774,498.8677668507248 576.5411624927568,498.1564860964071 576.5534681168743,495.6608936273583 572.6459610705688,489.89701288761825 572.3920441639469,486.6561685559784 573.7563193628068,484.88689903308955 575.5605515678835,483.92812131855624 577.1668309401306,481.6742505021794 579.7419157086961,479.6666229591842 581.4617102043433,482.0119002162579 584.4119232466932,484.2563774596806 587.9881274229593,487.9727985601786 591.9745073353102,490.8901122395103 593.5244069863131,490.6003001560689 595.9019964140592,487.98410631105276 599.0184003827079,486.8547826844044 599.2394973855315,485.5587612264015 597.493736594137,484.3614291043734 595.6192474517752,480.4066225389496 595.058918922832,477.7747349215818 597.2853475389254,476.53842390883847 599.0741181633641,474.2864415394422 603.9783282743081,473.3241778357441 605.5312814342426,474.3395707697913 609.3828203914088,473.23977295500345 611.610593639878,468.5132568554698 609.9999024741601,466.3635355110754 604.494839182309,463.0670484874712 601.9007274683215,461.87361589553984 604.0032567565538,457.3667232088005 601.6353785777709,455.2833999779113 599.9738334330907,449.11647331522795 600.5789597309717,446.54910228778783 603.28999234809,445.676844139706 604.8670021007408,443.87005578891893 606.1377275400979,443.65262152890597 608.3103351233444,439.1758627502754 608.2076577960439,436.74418648676055 605.6072741391555,432.06504131183164 605.9148272348874,430.35976998237936 610.1729946433236,429.1221222260551 612.5370963578615,427.236474116305 613.0718026072352,424.47747539364275 608.7906832235219,416.93820848288635 608.1684947438619,414.3713431469906 608.458970681604,408.25566216592256 608.8815079329416,405.489639529467 611.064249253754,405.79111198210006 613.379679485126,405.2844615456385 615.648834390295,402.69924041225426 619.427320539217,399.4600611752528 620.6745102381883,396.0328744421639 625.4877349670343,393.2862188299213 629.6037037927549,388.15882737823677 631.9607644778063,387.460296712279 635.4979434401888,388.00262919894647 638.8885457704704,393.2190625014777 638.5688165050998,396.10199864495127 639.3387797869652,397.50979445896843 643.7088712572555,398.55513095528863 645.6847805216784,398.1525611598493 649.1351241000202,394.777478399662 651.413120076627,392.060633346508 658.0124610740226,391.8883519454231 661.0076521090133,392.54572770974033 663.0021831737829,395.94816434682446 668.3042770575397,396.78145094531214 669.6571041243462,398.20895383950443 670.1594167621561,400.8752904867008 671.3431222564419,403.80265595019864 675.8381759889002,404.7291421542757 678.4619326189523,405.84122919760074 680.2412747813648,408.54857481284796 685.0833495594915,417.35287472545474 684.4783639175572,422.42390256346397 684.6517766122105,424.3947072503425 685.7550101413003,426.38960769221546 684.7122604861281,430.2901991132136 684.7586951042741,435.6231811981078 686.7811530854257,438.7127283792953 685.4477554012657,441.0666750642099 685.1968222894548,443.5493125625584 686.8155905758581,446.1884976861893 687.4333280559572,448.75605193034664 689.6926727369348,450.784320777767 693.4961088301649,450.89221697903076 695.774816543826,452.1100287654829 700.8601089039548,460.0104742209942 702.0457484568459,463.16125575530816 703.2965604304466,467.9954765676428 704.282327824689,469.70173891720003 705.8846058321695,470.1022564267224 711.1255201514887,467.78428537809793 715.2395527610039,469.8027253512846 719.8399452320837,470.17693158729566 720.7910175903925,469.16254398486876 720.6154871210482,467.19614871089175 722.1482337946547,462.03935074992 727.6915259160646,457.80653924344074 729.5589164016949,457.1715450633906 741.7052984976152,456.59691322971776 743.5157998308238,457.6842960645289 748.3984710780652,465.3304178133827 750.9984962918579,467.48262455262363 754.5028056834668,471.538138945495 757.378273405306,472.66243270266773 760.2562174581665,475.92929190418715 756.7980799801712,479.4238261760229 756.6960837455246,480.5565896301762 758.9226871184416,482.2525057192077 766.2853892186625,484.1703674542583 769.4982066212111,485.52338626816345 771.0285951266303,488.56642618580247 773.9624427755195,491.52511006797045 776.7094511323137,493.6023893150026 778.9944150238142,498.3909005231501 777.39465998964,504.99055233670856 775.5166552659637,509.2583784425591 774.8281156522568,513.3022845765918 775.0283618336168,515.1398160047042 776.2476014712971,517.5909526990671 779.3271982567667,520.5797437571952 783.1155071217021,523.3886496239801 788.2313576223755,522.8856960083576 788.8636039548529,519.3419384773454 790.9244794135283,517.7765024421453 797.0410524304796,517.5349576843469 800.5329232288717,519.0259823482629 802.0688526183545,520.4816883700571 803.1428461469113,523.4127432173175 803.3140841338759,529.3151247368116 804.4156248898828,531.3319983100394 811.5615127015585,533.5580712362354 815.5767275713791,536.6277205366692 815.9242152843216,538.2192318427783 818.4182307979544,540.5901387043548 821.2129671077632,538.0917928157546 822.0187275987694,535.6963661552793 824.6117586322189,535.6317964662048 825.7132724469366,533.4243859772602 826.8843799309769,532.9920972302217 828.3431735335096,533.9103882034351 830.2470676838351,532.6781310435476 830.0661024604931,529.1966203093857 828.6977327925085,527.0069615426708 829.0648352068024,524.2721823524839 828.5081030362721,517.3021172615604 828.8933818858087,516.3968515018169 832.1703969888889,513.421487023382 835.2944103149152,513.359867927263 839.2901967385659,511.5645666732755 841.1904727369779,512.257785315513 841.5381807949088,513.9305764360284 844.5678580271268,514.1910107701648 848.4084193561827,509.3686354620468 851.067493848138,508.299484110274 853.3119841606091,506.326849922336 860.6673865605112,504.08318840776985 861.2450528587997,501.6739551180916 860.1132717935923,499.2064213044822 857.7692692465115,497.4808248632011 858.2292121325706,495.92332597333336 856.7950990227613,492.7534729597566 855.0941868261135,491.43052436408857 853.9186038824104,489.505897191798 853.9007073781439,487.4515044787551 852.6694840459476,486.3306148044179 852.7498820891735,484.9636089255027 851.3927832891865,477.82429317363983 849.6868067779081,475.7455985889368 841.663158472379,469.8074258268568 840.5507382741215,466.2975053834449 841.0653866184084,461.1507576685114 842.51031916161,459.1893226777463 844.7860994329047,459.97321561099324 848.0894217823808,463.2080721169101 849.2966643944445,463.1403215991412 849.8921144791052,457.9668343061392 850.9241770327817,454.917964802799 852.9706263656053,454.6837316654187 855.9513946550938,452.27902679987875 858.0768048616363,452.5257759736735 861.6792968350954,452.0191698424448 863.7820055607895,450.94022360897895 865.5308200295526,447.47042373024493 866.8802507783574,445.79700598447846 869.5863208569208,446.38244988787426 872.6992733192471,449.02964600551115 873.2544832824983,452.0395794578117 872.5804291284027,453.69034188546186 873.9598516725024,459.1770371368197 875.9992633274526,460.23928554831525 877.6850377510926,462.34316010547803 879.906130351312,463.85263254152113 880.3623067244099,468.22974822513424 878.6109063754651,472.2378548493336 879.3074260940105,475.73786983600155 881.8415521283545,476.34938299820334 885.4678251407621,483.0468272495641 890.2812172814196,484.2407345335073 891.1156539281579,485.0972221362883 890.899303818965,487.33595372794423 892.2820126106532,490.95745062421076 894.9759387413143,494.5102975389717 895.9594452744354,498.2404929787324 898.1084519677233,500.38204995407693 898.2333183248708,502.0252330185573 895.2929036079593,504.3883510341525 895.4929067430651,505.31726101985583 898.3100949549831,506.981543137632 898.5631413942065,513.5480750806437 898.2821472837386,516.3932353574735 896.7374450804373,520.0295597784342 895.7262196825027,525.4364023685588 897.1740703964615,526.7641768018977 899.2823560631927,527.1119465054546 902.3577885548716,532.815775229128 901.4384884760179,534.2831104551827 902.425319853768,537.7481870370192 901.6550998299472,542.1334034013266 901.9257852657139,543.3112755714208 904.2771178594993,546.5567283450571 904.1368716825918,547.987233644173 901.9561399407875,551.5820743110951 903.5432103696702,554.0056600181802 905.545731112566,555.3369838387816 909.0562112103196,554.4247965838488 910.7961748264131,555.0116317521037 915.1609879307672,555.4519495390432 915.3213165351699,554.0833936634987 917.6537326911404,550.6602489723311 921.300662370034,548.8673546782877 925.3038113702394,545.279667042148 925.4642246983815,543.8080646601718 924.0375365657713,541.971671085863 924.4436811350014,540.5287163655075 926.5402157442763,539.2034506544771 927.2323914916001,537.8651204339753 931.4352528042358,537.5393113694004 933.3181035973232,538.0839266530728 935.4300513908246,540.3081253026905 937.9850259784399,541.9767410518012 941.5567568280774,540.5741587277635 942.780851319106,539.4097851321408 943.8577026145589,536.6623014208317 946.8108936589816,533.4411175861443 947.6927463926871,530.6863523167466 952.2609309084321,528.207589460478 954.6392634982925,527.8173425028342 958.9787378271795,526.0591690190902 963.173561822271,527.5732764815929 966.0457529733355,526.4487066128638 967.6222828677296,526.6948555962057 978.0131370569022,532.03827289066 981.3819456043215,532.6954987179902 982.5341610234776,531.069020506702 983.2520772820303,527.4191546250028 985.8968890708518,523.4041353961369 989.3390479911509,519.6323582866443 992.1174587657868,518.5815265010683 994.090054526182,516.3661459791933 999.5982315619128,516.9311491514836 1004.6854083824246,513.8913559258108 1005.3952618549667,512.6970365925991 1004.7953859411765,510.94931611692624 1010.1252697397091,508.6527669346952 1009.729525370335,507.28405166633854 1010.3287297358365,505.01025460194194 1010.1452727060898,500.2329788102688 1009.2422478707136,497.00097842894604 1011.5996727553858,491.23434587256907 1009.4520775617551,486.25505183177245 1010.8563852664138,480.9411966003403 1012.4691684531933,478.14940777350654 1015.7374657272586,476.28838107827926 1019.5660509972713,475.21161749532314 1021.6757510092796,474.0414982234454 1024.0,468.133310249164 1023.0822308960684,466.69647260946795 1019.6111070192014,463.72944247058285 1018.3077606008717,461.05592758198065 1017.5618488596134,456.16569049161717 1016.2258048280257,454.5564558614659 1012.8882521763369,451.93361321135006 1012.4770083211117,448.5484283509169 1011.0683027524369,447.52256618722276 1007.8803796656257,446.8489120736847 1009.2469366815961,444.00417570189205 1009.3134596469163,441.8765925481507 1008.4402768482822,439.4452461636706 1003.7770529775543,432.290800722582 998.184106816295,429.4559716981552 994.0221875211743,426.78965077920043 983.015924618376,420.501555286907 980.7070896480878,420.5079745686784 975.2865785062438,422.2191964806626 973.1740883205753,421.409651191405 969.4045369496412,418.2213123594352 956.0169896831158,405.7264962386835 953.2625331714867,402.2739712262583 952.4899868703097,398.70590059876884 953.0127472768205,395.5269271466279 954.9944694534681,392.559521339171 957.2878846136963,390.9025547767187 957.614040788381,388.2306868118355 953.9129627590822,384.39955191133413 952.8726013262024,381.51719966811913 951.6818216187004,380.61490689648775 949.9211624563734,376.72971062886194 946.8594291016749,374.13467063159925 942.8761307846243,372.4537027979872 940.6430134648938,369.56005487287484 941.3563863512052,367.30232861632624 940.9543036408838,365.88976254685593 939.3067611427834,364.58142231306834 938.1621718336678,362.6313811431448 937.1182200037484,358.5719746665729 934.9535834343467,356.67936949389593 932.2501003781567,349.77873296845263 931.4561637233192,344.715345338981 932.485727606425,340.19465334371273 931.7062278820531,336.5837440295465 929.8862664555676,333.160276352587 928.1835956901332,330.8802482096683 931.2517598467721,326.3769627101423 933.4268834182698,318.41487635466876 930.5854587725571,313.38052764039924 928.716473975133,312.03823862616446 927.7013281802734,308.98273897079343 925.7906603285537,305.6910584695503 924.6959441212543,302.2388761258834 921.0313071516475,297.3660162779903 919.3814406371426,297.2967448071073 915.2508051341985,300.566473450569 911.4515423682577,302.5724962348705 905.1668752851564,304.43542128137193 897.1136035548607,305.35822976749205 895.3730277712692,301.28628022297 892.4379609166092,297.72101813078945 887.4354299214612,296.1483347015239 883.3987286094299,296.67976851841513 879.6249921557995,290.46303302511257 879.3544127976514,284.3903306817972 878.7330439936686,280.91379963004596 877.7472783216864,278.8163284307973 875.8241463105827,276.857144851856 875.5453661299152,274.0738920513545 876.3844725197274,271.5911398440586 875.4999458156043,266.1664916973586 872.4692261596357,264.0783448906868 870.2683761820216,261.07262456611005 867.8057839101817,259.39053804327995 861.6140758681416,256.85883710340335 854.1145953734172,247.35053699932166 851.9298063527033,248.53881682188364 851.7792162905774,251.3384085289237 850.4711525496308,252.21791202933758 846.2702266728584,256.6786194682735 844.7980399362315,259.2720694712483 843.4333829011849,265.53548978114725 841.6721324241382,268.6054231476309 839.813483228267,268.00531839446734 834.1073199235833,267.4059211780697 829.6672439056742,266.29531212688914 827.6493091539903,266.6501855415112 822.9503491600447,269.008585185006 822.3450657038757,266.8376386364797 822.9273718786933,265.13376346491214 823.2560727885214,257.62002345909093 821.9134626454925,254.69990979335944 817.6406529095967,253.2067945924519 816.0086798492221,250.96779353639886 814.6931486955287,247.27620690207686 811.346832538414,240.37358852367134 804.9652642771796,231.61216485136464 803.2019407524397,228.15745300060144 803.7695893587377,225.77212672112478 806.232845628609,228.09204770834515 808.3554284857735,224.43535826259142 806.919010099342,222.1102039569854 809.0344446617496,219.34824441348422 811.8582548890541,218.31131608509884 813.2321074055533,216.7723813115561 812.280164373137,214.9224087882493 809.816947104248,212.6654889966809 804.1377328158778,208.36386887420724 804.4216677768321,207.11722823737108 801.1401358598672,204.34881708423273 799.4042277052749,205.39274151729148 794.7366002897752,207.02779799566105 791.0993377241435,206.8756607288069 788.2984036454731,205.11995533395856 787.7371944823476,204.13978941225042 787.9263287172744,199.64486254291876 787.4231867333949,195.29525543847546 786.2254896404976,192.65227036730477 787.6149841789214,186.73673779334706 787.2518556260527,185.16486976429178 784.9813470869174,183.33920710215182 782.2475610851204,182.27986726738845 776.8475642870695,178.25256706063658 774.1357484051842,174.67694837555212 770.7603695114507,168.04849741957344 769.9693711632418,165.58768845840007 761.4430620108077,163.07277907094726 759.5354814230212,162.9263991583664 756.8971026547456,165.0568138261849 755.7807717085918,168.40777949676726 755.5580633227326,173.97583336510309 752.5263332096949,176.8327636007756 741.2678438591545,176.3199798531715 734.8454762409152,176.72288424030046 727.5422257230782,177.87333821282647 721.8799815064727,176.3040938651328 716.557272137408,169.28979175368477 714.9279805862259,165.6945682443776 715.7554007352915,161.13542854771106 711.7899908267606,157.71471389600106 709.9871023606331,157.3080232539055 705.8006092063429,152.75998588466064 704.2544639328726,146.2228524324936 700.165739092703,141.2474646752304 697.0034910460369,139.9332317403206 692.7196275384599,135.30331576802746 691.2832824383448,131.10539381231717 690.7542189036502,128.4092130989909 686.4446965833879,124.47425760495423 682.193238504864,124.60507179121555 678.0922251990111,119.3774507420535 673.7360253114836,119.86060093447941 670.1035056495939,116.38118446373926 666.6581627941647,112.56341304239982 662.0691879015038,113.94097372390274 658.0855597820108,113.77244992501869 653.832552204273,111.5034821459675 650.2008741866132,108.19307586543243 647.0649794683937,105.8481130924929 643.2697895069354,107.81115401644524 642.1079678735067,109.15883956255061 639.384848086308,110.46053845530957 635.9491137913684,109.48622782739653 634.4127773830546,108.24222591991145 630.212212364179,107.64612777179912 628.2620197276738,108.71835215446492 625.72356691118,108.99310243713387 625.4558632726879,110.96444451505295 627.0727685153146,114.70200076737433 627.2218939813281,116.59016397697224 626.4894118154411,118.40589964638787 629.7451698473569,120.87743561332877 633.5065195483489,121.85621564914038 635.0230294748584,123.11432420251424 636.1719477822503,126.24779135121014 639.6298928473747,129.71553875346774 642.0862718395514,133.0283019616984 645.1738187880604,135.3201257708498 647.41835168073,136.00048316964933 647.7275085654453,137.33285185541035 646.0125384380833,139.0497362127113 641.650422118611,142.3158959073711 637.9758234643366,145.7540846996992 637.8434558626374,147.47644474344781 636.090941548889,147.20994643383222 634.0700389563394,144.7665678058064 629.3037802443959,141.9758067491058 623.0740729568837,144.290671474222 621.435161155076,146.30116992570618 620.9520635511644,148.43475395128053 619.0604067693017,151.95536626132082 619.9691418076302,153.9772311737372 619.8666098149208,155.68710477959246 617.7517646525266,156.73081819296783 615.8096267668637,163.42119627794784 616.5833493135196,166.5195329673113 618.7813721856664,167.77428303606598 621.4063681596841,168.2094057679259 623.4499626170293,170.47135143080027 625.5776898004553,175.01873550153198 624.2837097922485,178.62434545108175 619.8377224884687,177.53263773457417 615.3370286955178,177.59219075881708 612.1600341787312,180.59391375670276 607.8734849239697,180.54624073348236 605.4571635695958,183.61226964963373 599.6115589576035,183.8849461444101 595.2617787075928,185.51985593961524 586.0456348346557,187.09700139858285 579.1568750691771,188.54642823713237 578.5624348407827,182.14610876990133 577.5214206496369,179.48570944414251 577.5968269719069,176.9287425777402 576.4843644210266,172.80788276969702 576.3247938736132,170.35077633224523 577.0165212445554,166.5480818143226 576.8585788200523,164.7048243815973 578.148518864281,160.20881868537265 580.0750840210072,155.14945811772805 581.755534430899,148.72389620898412 582.3401879448205,145.262837726395 581.7608925590573,143.06736125991404 579.6303366766409,139.99922634956476 578.1933401642576,136.688578975959 576.8671464120924,129.76240078309706 575.6792185384677,126.10844671433676 575.6016149871622,122.87169138798913 576.0483813544836,119.13169731380833 575.5911548067076,114.00441616993976 575.7764264949723,106.39428599058454 573.2392017495995,105.80110778154346 566.0525636225327,107.05649512927789 563.7269779949977,106.57474425854195 563.125799099882,105.33407435738877 563.2609403551744,100.03926533081176 559.6445523568293,97.63976299471904 556.0932814860403,94.27471494526048 555.767026215803,92.9974116344979 558.4257480592205,89.93826201568584 559.0419609147885,86.51031526833538 557.4063040220645,86.05825045589086 555.4517986873348,83.81885510073789 556.5236002549847,80.41818699253213 558.8116796795904,79.85908311660285 562.2577305688177,77.66900314095858 563.9103466773039,77.59710772548226 561.2706423030281,75.08371469187148 558.0041172734051,71.07109063158055 554.1159275599362,65.24084391682788 550.0988664705392,58.62033333547117 541.8216876204417,53.23662592268204 538.6278153432856,50.748837154151715 538.7600871319329,48.636130725342355 540.788560935881,47.04138379740084 542.7390649570233,46.607490219852934 544.2366615972687,43.89669896483224 540.2330726933598,43.51143804042931 538.8075611629037,42.68172941897251 536.2930096924234,42.923196562136354 533.6243270265602,41.97253569004158 529.6748091593279,42.02908193913174 525.9474489247632,44.81492495536179 522.9470383311407,44.388608239958785 519.9284609150043,39.80179446323916 514.7098726479408,39.45004574776442 513.0840574328419,41.151621074443824 512.9718924360777,43.17553668112987 509.89929227525977,43.47502545531415 509.1871862236199,45.66671859543692 504.43858533857554,45.6403377807942 496.3001869347155,44.81861918609138 495.2499231024179,44.00640392425828 480.87717116912415,28.69880045134005 476.7843696330487,24.588324937983998 474.4994023908742,21.363905696670713 473.7374944395157,16.629147497037252 473.74776589509634,14.163235140333768 475.4401280565453,9.089405148304195 472.63138983680653,6.42104636611009 471.947528901977,4.331429373676428" /><circle cx="595.3411709729261" cy="342.9381443553586" fill="rgb(100%,100%,100%)" r="16" stroke="grey" stroke-width="8" /></svg>