<?xml version="1.0" encoding="utf-8" ?>
<svg baseProfile="full" height="1024" version="1.1" width="1024" xmlns="http://www.w3.org/2000/svg" xmlns:ev="http://www.w3.org/2001/xml-events" xmlns:xlink="http://www.w3.org/1999/xlink"><defs /><polygon fill="black" points="842.2502127380951,156.6637569807242 838.625686986332,159.8077166262297 835.855463966985,161.50441511534854 831.7339190948353,161.52220736151162 826.2915326059367,159.86628717526543 820.9761010990112,159.8809273558295 816.2580086187711,160.4991091629505 811.0579514246721,158.47681497658544 806.2252322218703,156.3277982507068 799.3434237587106,153.09470487721518 793.9195450496962,150.9372982328561 790.6565183465639,147.2132277414368 785.9498973221567,145.29567887753666 780.2936773568342,143.24983096824934 771.258276646676,144.68975790752256 770.0699955586466,149.37658665768384 770.066243557518,154.30711644853181 768.1566906438588,158.14593510385237 766.108252081875,161.14963268685057 760.8176367555989,161.74235758798926 753.8396424455983,158.9704998584764 748.3020996978762,157.76212369790596 743.6085182294323,159.08059200959883 737.4818124894898,162.6834652891785 736.3994308783409,167.00750835622705 733.6341198663415,170.0090089986823 729.901853242901,171.8175815966295 722.9050452358924,170.73895530715333 717.8336412369846,167.6178120131587 713.9735005493402,163.89764992691846 705.8944442794119,164.15196155600347 699.7358373194036,166.3305068967669 688.3699353411631,168.04736122735108 685.3572971477848,169.38136868951733 680.0351534915346,166.51593807163187 678.8279803924198,162.4276454016512 676.5215646850006,158.70887254448462 672.4192615479188,158.48007399962842 667.9539926719303,160.77365014939068 666.0188178849008,163.18239366276356 665.1864684824359,165.83083232876533 662.6471947765896,167.8805668103821 659.0314275286673,169.086843540661 648.2988169960872,169.2111074982056 642.9942652856264,167.4121355539939 638.5385465792525,168.0121592765317 633.3696069328239,166.68483966122966 628.6690060164871,160.903678924502 624.3357334598047,159.21503277064812 619.2865785284758,159.32454901326287 615.313841723465,160.5168281150327 607.1456915012191,156.52623532853625 600.290090580674,153.9864569533084 592.3501963928463,152.8884869947363 587.4172188153129,151.19345870104627 579.9576473919284,147.5836384897808 575.2607388081805,143.37275315782227 570.673080700231,140.9682930897422 566.4553894094755,136.39895741224996 564.869956485713,129.19084098125614 564.6218410955844,122.58068045563869 565.8331844794894,119.21604221900196 570.8934665136234,117.76616912042596 573.5356009301739,115.60629381638358 575.463654183655,110.67885510617845 576.0542475733532,105.14893406937989 573.1682041373643,99.13522171953332 569.3059689587217,96.13460986145651 563.8731655858201,92.64767568692844 557.7106538188416,87.00843330555927 553.2429458357084,82.21087391622211 549.3760594603066,77.04877270069403 544.0465524738248,72.85549252086173 532.9336962566974,72.04260495375058 528.3343693820074,73.25895210454519 521.9383371715461,73.03739915212475 515.7650905187621,68.24861192383446 510.55820104002595,62.97181423503946 505.36648209969076,59.01478378623381 498.4878680315519,56.14087589042731 492.9374666607017,59.87790690805434 492.93457575412043,63.123956153174845 492.4548375110022,67.32865712429418 491.13823347114237,70.45541342680917 487.27334513297734,72.86311061614458 483.53943512058595,74.42375718780102 480.2964192626272,77.30874046308327 479.09304464940107,81.75526729505953 475.4814918346145,84.15633090223093 471.6344513635589,85.83895480907483 469.2239953541628,87.99842661760965 464.40979624681046,90.39446503180545 459.96465047240014,94.71779107838245 457.2001099720012,99.16195220941745 452.5096883212851,103.84191550840472 448.54042532908153,107.20019587312567 444.0855506098992,105.87350554154932 440.34221266725325,102.86837356887372 435.75848857728187,94.3321203798356 433.33988463385265,90.36796497448995 431.64294926727405,84.23671572413627 427.42352064657695,81.4722059287675 423.5604945555342,78.11163024449968 424.5256470396409,75.22594883590693 424.8783560171738,70.8988621213723 423.7857486382928,67.2968367253003 418.71114021890793,62.133834933635285 412.4277190723678,59.499550277139065 405.05650336113035,58.67540909657532 397.5523332914239,55.81919687842367 392.1054801507371,51.51379059021258 390.89332907626414,46.94979415176158 390.6376588349627,41.18372490923218 391.35897033158744,36.12924486193276 391.72471158763756,32.16137997935027 390.7472777625951,28.439085090405115 391.4686462890188,24.588028335630156 393.64505102254225,21.33152335433772 394.2546922780824,18.087935419347673 391.944257569368,13.165152482827125 386.1362012698874,10.542708014600521 381.528562977263,9.721105090233095 378.26420947820657,8.415382432364481 375.2334203718475,8.1887028800611 373.54430191117746,11.682472416786709 369.4343879955453,16.144848558354624 365.3154514627934,13.636226614633074 361.19733813677317,10.042279532319299 351.282672671091,6.586481762996755 347.4099650543213,3.1084397718839227 344.02545263801443,0.47067018940299477 337.3957231357318,0.0 334.37462586901324,1.320819007293153 331.1174362584136,4.211064946406964 329.68110754271675,6.857658645124161 329.8089697967802,10.940401457748294 330.17071202051943,15.630337896579249 330.17507642191015,21.283298247741868 329.45778734549475,26.451738924997358 327.77387567053404,31.380679858647113 327.5355320800661,35.464590127805764 324.52892399342954,40.030879562831046 321.2715239311334,40.51202318713547 319.46470923092005,36.786344140530105 315.7297350794983,36.898607311284195 308.8626177392429,35.57064158785636 305.01502521314944,36.40528820067243 295.0341202726355,41.32069840608892 290.0975076978994,41.79701455568738 286.9617325778123,42.51520395762827 282.8712824979415,47.2002342366319 280.8275849030781,51.288303745584585 278.913709296828,56.57317572695274 276.49983405782814,62.2259541228982 273.604053542799,64.26938665087198 273.37199445399756,67.99400601492255 273.73152141060444,71.4808497801697 276.50871045825085,72.80584961725071 280.2495779367767,76.17099336181263 283.8681049622676,79.89780904229815 286.3963968305048,84.10719800292316 287.48795748822255,88.67709125989222 285.094455495586,94.08181936130359 283.52764470265987,98.29086762521183 284.61175190078444,101.53523958291919 280.7675427761385,108.38206730604065 276.19049834183915,109.09731391992403 273.30774312787133,113.42809175491323 271.97438379614005,117.39353945921852 268.72414091319354,121.48374704917552 266.9157933106514,128.09648786744054 264.6350189314847,131.34208840358974 265.4792526687071,136.75150010202486 266.9334960455578,143.11511663731108 267.300789046346,147.68270956150002 264.4098536376137,149.72929628721226 258.2461328193158,146.97378844257668 253.53742115077046,145.90519719852603 248.71047622156618,143.14553139927034 244.23274056729804,143.64384526212507 242.67271751992578,147.2541348121817 245.57006482704503,150.84533343673127 249.08003827692545,154.20416552365526 250.4122513933484,159.85142715611227 248.2470662101588,164.7827246623794 243.8991867677633,165.51564666553753 240.86552236817923,163.1216545650941 237.2445482633861,163.01317356916894 232.65471228618446,166.27133028906167 227.2201706346366,165.20403530089573 221.53030116912313,161.0183385948974 217.661131983794,158.62090427058536 211.61364534177287,158.2754175221114 207.75833089260854,161.16426566148198 208.975084476935,166.45006870731112 210.90826068253173,171.13595998562448 210.66376185021454,177.14332792276173 208.98046604336872,180.15153886141826 208.5061735882512,184.71989460517727 209.473934803776,191.32982148378898 209.72954036718002,200.46053898252342 206.47122964208066,204.07352106999235 208.64772351883116,206.59768239389 210.3504444044183,213.44007459039966 207.3239135429716,217.7693057538919 204.67529921144313,218.73892580493327 203.46987661604774,221.86177652460043 203.8363169549658,225.23003620463788 199.37397704041462,227.88034354269274 194.43946869220494,231.00868081880935 191.42761648492322,233.2939905794147 190.2210680024021,236.41705628256807 189.61433830842714,240.26350655481434 190.8309008620902,242.90328954321114 188.9100181489802,248.43259520480848 186.25670865938233,247.46776779492376 182.16521563589376,248.54876566274595 180.60104539321583,251.43123713779994 178.92506214170365,259.3637254687909 179.16975185273844,264.77366731716995 177.8482798842859,268.131850774075 174.24490192714816,269.4484326453953 169.91061458397755,269.44363112603895 166.30693712119447,270.7596667112688 162.34076335570532,273.15206753721304 157.0523521532811,273.739696216395 154.28768489733775,270.1233022122924 150.79838117812955,268.55552654894484 146.95100578495664,267.10278637473283 142.62695613596242,269.3752086356961 137.705160890503,272.4883433944772 133.13042678480744,275.72636830733404 128.32237633075218,278.3590671716608 124.95911734179793,280.40093179969693 124.47448443451202,283.2828579669915 124.83930910910728,286.04526127417023 121.71021946137868,288.0885975001907 118.10408837159619,289.2907341072924 115.45829039742951,292.7722623233868 115.57946153888795,297.10012550132876 117.99153280382059,299.50394987953854 121.96686266399578,300.22668242876847 126.78441589608438,302.3956232552877 125.33888976532792,307.20375059819776 122.93693523612541,310.92217460608214 117.63710299933985,310.9203699582535 112.22194560762537,311.52175866957265 109.0889497554949,313.9286156544379 106.44003041378961,317.6581222140765 101.13621333205859,318.26525242898714 95.94494762398801,320.79655633472305 93.04878984350296,324.5303463434075 92.44713531941116,327.8945902634475 91.00641923063162,331.1435915474436 86.90289693751866,331.0342131719698 83.38733289858352,326.4748052057706 77.82498926844434,323.84629476209005 72.87727417532862,324.7052763236136 67.43908135806903,328.80580272486463 64.18183211499966,330.86492226849833 60.44479048311065,334.4755074818488 57.784539525916735,337.6050415707411 50.07066232832523,343.39370169888537 45.489798323174234,345.68441802742547 41.5112902093023,349.77436022786327 37.52860798558731,351.3407601691994 26.202285937080777,351.5861008023376 20.66817166558619,349.29608925959747 16.810927955203017,347.36886356498104 12.116295005152917,343.7634141187248 7.9121939773898,343.2765824620581 5.379750220820711,345.19627982258373 5.989470355267365,350.1245349196785 4.791289485435895,355.89262684931856 1.7922508745308654,358.53109697028856 0.584656695336942,362.6144064573501 3.362565351427573,368.0295554084537 3.0052763240944445,372.1132553990011 0.0,375.47492200828253 0.36476874617184263,380.2871616623953 5.062845653973626,383.77302444185614 10.59968111989449,384.62109854693983 16.373722923823046,386.7915960921614 21.311774045962068,388.35716169504076 25.87949143161682,388.7215695153043 31.665438886560906,390.76778693314543 35.6451857914222,391.72651800624794 40.8296481871368,396.52785091483383 47.23034772861626,403.73375296642337 48.683901866839385,407.2148006837939 51.21663913931746,410.3377742742912 52.7970497031133,413.33780929268016 54.73653418474401,418.0208951912176 55.463396666320726,423.184906360587 57.400845354154754,428.2268797010221 59.94099900574072,430.3866038741314 63.684056510424064,430.3783332264485 66.5782311304091,428.2022079166087 71.0464836204554,425.18822190169635 74.66866801909732,421.21138331330405 75.14147611199941,417.4823707568351 76.22896120622126,413.75062205760304 76.95519643656206,410.50524979717966 80.69454279670828,409.05025038032306 86.6111101273817,408.6758940612302 90.47693474994396,410.2293726738983 96.27675594410833,410.5760461610191 102.07516456036316,411.28685817525087 107.13827942050933,411.3999090439657 109.9174210495144,415.1208399550223 110.61230151740811,421.5008030208196 112.0745434256635,422.3112279570693 113.88204603109513,421.65951022292455 115.66606422709204,421.6685211207692 118.75623505279638,422.9198458856188 121.49760528652575,422.1608700675499 127.69938183118401,422.2963835576214 127.05301038568548,424.579448606902 127.1881853266399,426.3164803720815 128.72158717165127,427.2384126043905 130.5387049440156,426.7648930220994 131.53175602679073,427.1218026035565 134.07099015984193,430.09392486434035 137.08467067525802,430.2871928532931 139.65781760991746,428.2471449939675 144.10526247012714,426.45704174914533 147.34279587436043,424.7843849922193 151.55752854260808,424.5555165312945 154.20147902229454,427.323231249268 155.28941695099095,434.17481159493354 154.21436688994783,441.0244406441633 153.15287432273107,454.0019060174801 155.55756374687425,460.2631761304078 160.96990907970599,466.401170570279 163.49539783966173,468.5761421462886 162.65878829409377,472.4195759114997 159.89453832977756,475.7785728637783 154.85872608795117,484.5411796669766 151.62054185848518,488.0161731714289 149.46076295188723,491.3782974480873 147.17873604146143,494.3755487190172 142.26103209622815,498.93214540841603 143.1056503175858,502.9023064958784 141.65981202839666,506.9863755693692 140.58996616519033,511.91433074910196 141.19671380297328,516.360878683774 141.43144570076313,521.171553183149 140.72294706690684,525.737403481286 138.07776938121992,529.0994920227903 135.56446401275537,532.6973788136013 135.8093508399388,537.5033936332003 138.09201270648273,541.7249467474185 138.46206866772218,546.1730247291299 140.1386987167791,550.3859391317637 143.2668435151073,551.8307633531492 147.36160338798823,553.1622541281715 151.44386841850644,555.099740780996 156.24692632391296,556.7931097372895 158.77305600912493,554.8771693720769 158.88461532192733,545.3827569466631 162.00861867149953,542.9807106682408 166.45767112236086,540.4659246134725 167.41199538152574,535.6581213460902 166.44711207339594,530.3667135891333 166.80204231770685,526.3997458785802 170.16804995959083,522.0795171532071 172.32233424087266,517.6374590985197 175.3274768011063,513.3102480012119 178.81238755435575,507.06653035963956 181.09169142217453,501.77818859640263 187.95932141371816,496.4945976881979 192.28770315091566,494.8089847904187 196.14853092868282,494.6863240476505 200.48804043276846,495.52409646955556 203.74816944934133,496.9642838408731 206.8942324612072,498.762893033965 209.4262828848625,496.71095917148364 212.315840689789,492.14180496281824 215.81936206224538,487.9208330239277 219.56484623571393,484.90734330658677 224.63423027547464,481.88546218365764 229.47180634142256,480.6747308912988 235.0337969324233,481.0184296931453 239.14523999434172,482.5698889340846 242.04511058087513,484.48262502016473 243.37650506778982,489.527794307637 246.52039420371293,492.52418946874536 247.25077655712582,496.00909363704824 246.89180532643135,499.85704980475816 250.88845061338114,502.84955216727457 256.0734686843554,502.9605404346469 261.5139641597319,503.672717529689 266.3304677322242,503.188088194589 269.35309335794904,501.49913522964863 272.35667338963424,498.73351131908896 274.7756965658456,495.60755507801696 278.0267485142246,492.12463899123384 281.87971488887564,490.31918655685854 286.2128354270468,489.60335492099705 295.1300093684538,491.5361536401358 301.14537185427366,491.78086347875944 301.9825257499714,488.0574852535272 302.4599864142167,484.569394879043 304.74312575436596,481.33181605782573 307.98999545552874,478.8124164616259 314.0109884357335,481.46173343367536 319.07322753762844,479.1855206850464 319.9082403042571,476.05668230660456 322.31334287678527,472.9364037757299 324.9655669436436,468.6103652343868 327.72687225603255,467.28361961329756 332.0750538855487,469.81074031203 336.1769029808828,473.0547583839019 340.76351983469107,473.6459313432791 344.6317513000369,474.4835842389764 348.8594198433315,475.0743311685102 352.2447898774029,477.46974365988353 353.70006367810106,481.4351682689742 357.5679576155947,484.78954306579783 361.44667575463245,487.4198841864578 369.67785464013315,491.4744326665896 372.4596440508324,494.11053015908993 375.73412520497993,497.69929972710753 378.0334971655212,502.5010533472665 380.34382689310394,506.2141980073592 379.6249983329082,509.46292204328034 377.8072128913557,512.8420749040595 375.2795825912108,523.7850295902372 377.82648181959786,527.9825273014314 380.61057952164333,532.8984003003936 385.7066616538588,538.0497931873755 388.727859733068,542.371434821826 391.9963402770878,545.9628213032602 396.9602963113376,548.8287327333464 401.5652379998396,550.8584316766053 406.765379756673,551.2030914937222 408.6994495164484,554.8003656879482 409.43112919283277,558.8882268297216 411.9713438343294,561.4080904845102 416.8042133263779,563.9200471206595 419.3463175558672,568.2423422781501 419.9463139565372,573.2917999977803 420.32031303693043,578.8183099367803 421.7746530823407,584.4692432069496 424.91426932884144,588.3149416888889 428.47196162124567,587.407356416524 433.10954581986744,587.2295561879862 438.4646482662284,593.8497782709759 440.61021817687333,599.5686096489474 441.8581462269142,602.4311971633924 443.4656286871879,604.7603639287721 447.23342721206285,606.9505882795521 451.36664731932086,604.9612026252664 451.9676582918881,600.6085967905362 453.1435278068668,595.1646285337373 456.4899745998419,590.4863968780643 460.2333118095555,590.4128366421162 465.14788542524053,589.5683754381319 467.950670921309,586.3723217849519 468.6075817602649,579.6097482050153 469.9811717763363,576.930539165713 473.3898328245671,573.9569426588574 477.81935217773724,573.0010352348211 481.81025649565976,574.0905050131257 486.62652745476885,586.7845697481404 489.8431529610433,590.7201291535754 492.79788072569573,591.9969320640191 499.57820705062824,593.141526268923 505.9857832201026,593.2070817038311 511.65709125782615,590.7141279310727 514.8735461718519,585.5252064003316 519.3172728885535,581.99368554254 522.441688599008,581.2973822593907 526.4531613995487,581.7886476366665 530.0982912106189,579.7834362663228 534.0824397553084,577.9562315978139 539.9396831172736,573.149052334281 548.1788738791971,567.7709287046274 553.3684664067539,564.0124764099522 556.0491614638563,560.255526110085 558.019996593585,556.3278519227636 561.9163279565048,553.4532721991752 567.5419267379256,551.6189519917173 571.7315686213718,550.6628438033769 575.2496191162867,551.5358109173176 584.025321823545,551.1933073044522 589.2687866534598,549.1353957976812 597.6989169510739,549.7767390601628 601.5025549234339,552.572829380614 602.0069698396146,557.7371735113051 603.4553132545878,562.3954981459187 606.4188940366405,565.5736636374586 611.4916095765241,566.5990736169338 617.1139259999724,566.3448955522991 625.0620791577181,566.6439587621059 631.3687292192376,565.425003591318 637.7943353667025,565.549539381599 642.1957392559158,567.9688288457417 645.2969895228974,571.3800424451042 647.9510542209899,575.7660353665736 650.1104706020903,579.8022093787032 652.6295997498728,583.8238891321665 656.9610590204753,588.1647150071844 659.2432470006212,591.9525240279647 661.1687879376601,596.2321361465866 661.6060068387213,599.2302588655291 661.2123483592014,602.6111347836852 658.9960291092419,609.6538914430092 661.3673301213271,612.481015861396 664.8778962478139,612.8660364697308 669.4621562309201,615.7433809628216 670.2161209702459,612.4710826015133 674.3259864792176,603.9295757181325 675.300709525686,599.6895430838737 674.3042923578862,594.3021026147374 672.2643076755234,589.9056435938853 670.785986456626,584.7691834232874 669.2197106527182,580.3590281174397 667.8645776228491,575.0991806897606 668.9386293941659,570.2538865118338 666.5376100209613,561.5369320678948 659.5312548992079,552.579502965973 656.9279562678039,550.0040296048853 654.7815681571371,546.3301956108085 653.1063658165649,542.2822829456429 651.9166478037561,538.7030093388845 648.9406386069286,535.411042346263 645.4477473968198,535.5029626978331 641.4968123652262,536.445412070657 638.2373923719201,536.0462071102361 635.2874643380325,533.5898229536837 632.6230753736419,528.5994994037395 630.7020260836298,524.1946368886445 626.8877107438725,521.278032697965 622.1292856365498,518.5022474388504 622.8734662787343,514.9952839049083 626.1316150159561,511.0684729745168 627.7055396193294,507.1807582430872 626.0079269070841,502.0398952695502 623.2355490349823,497.5354403649155 619.7695613860596,494.00565318328916 610.1372100213129,488.69665064330184 603.8120258577407,485.83483112411625 598.3184857187671,482.83888067199973 594.878174491514,479.9148175310079 589.8445607247525,476.18659817424657 589.0594846975648,469.5845096301937 590.3748605944309,464.9782669566056 592.2955604137662,460.24011145890677 594.3914633685675,453.3319174403742 597.3993173953177,448.92404109615313 601.225421519278,444.01834161415763 604.9615483564303,439.84280452905 613.3475461353811,434.3490148076101 617.1323122194698,432.21271004707535 628.087880729433,428.7017988054083 633.1799358126021,425.69286596230705 639.0130480644344,423.37844459765944 643.4976402943348,420.13718173343545 647.2254856714942,415.2248066277326 651.8573100180516,412.9401405450013 656.1673729919531,411.86168751964016 661.4535583250847,411.2341924894469 666.2669528661021,410.49813953393107 670.8468790910811,410.12719414538805 674.8629460069625,411.5813728604011 680.5423308864023,411.6604700003069 687.5534497128366,411.57083308695417 694.4931212116445,413.2967853912214 699.65397580696,412.3082160693847 706.5764096164015,409.46071177090687 712.4108642164172,406.52741764413224 719.6998813404488,403.5589535545331 733.1212633454267,392.01368052600367 736.4248947426612,385.0628265926786 736.73021499543,378.6824783048223 739.3435677139795,372.836231097342 742.7847455180007,366.8001495869339 748.7802991612444,365.8511551357334 754.5209476543399,366.582135374603 757.642391552551,374.7580352102867 757.6425268538078,377.6413752805306 759.555014840834,378.6030604713479 764.3509634390017,377.4135586354438 771.298440658775,370.7009081737966 778.4860649329444,367.5911235961969 783.5212070656621,365.6762455758369 786.4012381713612,368.5615720611305 788.0845809413074,371.68457817329625 791.3326718158863,373.08551777310936 795.7702161905445,370.7228369879383 799.8548087641439,367.8447132107916 803.6861767670342,366.63513832670094 808.7437865246042,367.58795898473124 816.4425820614873,365.89445733484547 820.7737361231299,363.2411425510355 825.1041603849786,358.1804603188807 829.9213704389946,355.04103487402847 832.5735867700665,355.0365964264048 833.7843858913049,357.67428614076834 834.255006601657,369.44161311545156 836.1828629346129,370.8758387557863 839.0756884043806,371.34443888372846 842.2095388865393,368.93408277030323 845.5828388555889,365.79908975833996 848.244188895572,364.4482285324341 851.3658585660265,365.3030465171757 854.4913658450808,368.8985921585063 858.5888286716822,368.8860913294519 864.8439983789548,369.58832447666475 874.2186160945978,368.61830826988086 879.9890563293128,367.88439457442706 885.2706444576604,369.56897351992365 889.3579163047247,369.57251801473 892.7117150591716,367.8918473599709 897.4881547155483,369.2032392425069 899.9072537588231,372.463996838879 903.3920108834435,373.62722244613366 907.4661430187115,373.2840527143649 913.3214851228321,375.8549212348231 915.0003070985223,378.7403845920025 920.5746847622437,381.7463298366922 926.9803040184484,380.9268461085203 929.9124848350108,380.06855582880036 930.8491566947442,374.6310889287796 930.8259487353114,369.45108284492153 938.1885414604931,361.4399525391374 941.5754142232513,357.2677838510249 944.0282717144669,356.7786127840215 946.9677650054634,358.6912903818068 949.7678389682244,359.98202569412206 952.448118248768,361.5397029962656 953.4192421319472,361.349827905737 956.6926971741365,359.0981011214876 957.848496488519,357.10382952671074 956.9195140761143,354.5956694430465 955.9618904415166,354.1307116607737 955.8277712321977,353.1015579042389 957.5681932289411,351.17530791904767 959.2984706302326,348.3416692492464 961.4926221252872,347.6694575334096 964.5117932118515,349.33913465820234 966.1972826566506,351.69037674663963 967.5362480638142,352.3605751514617 969.9180720889249,354.72907222736836 971.238731693631,356.4793022055884 973.2987268021647,356.60442498524895 975.5449508557441,355.9556851123867 977.676654851849,354.2769821116135 978.831328667697,354.0232008595674 982.3275897777764,357.0326849883458 984.685771318728,356.35710187158236 986.3625817088922,354.3377978935074 987.3690012338968,353.66562394612504 990.066485354805,353.99240183541457 991.069175297954,355.6719388121401 991.7488878971859,356.00373141478826 993.4298502221759,354.3238481231664 995.1115269192862,353.64939328473565 997.1271411032343,354.31092295033216 999.1456830116969,356.9974962649863 1002.1673344414655,356.98642027780676 1004.1855024044698,355.3079482916513 1005.8655244018198,355.30629677440186 1007.2086588939436,356.30888144151106 1007.8844899320989,357.9862602591377 1008.2174676335856,361.00718569577066 1011.9114522371393,362.34584294476167 1013.9289663406524,364.025345789521 1015.9408273497535,364.35909438926876 1016.9532914276202,361.6736728349996 1018.6296177033357,359.65906275244976 1023.3290350171536,355.2928541573827 1023.998897966199,352.2722663652563 1024.0,344.8839009310741 1022.6562530818182,342.1973109480799 1022.3225053214697,339.1774833911147 1023.3293731033729,331.1245849629093 1022.6578395502244,328.10313088166794 1022.3236106914261,325.07805822479014 1019.9691145094799,323.40408610398737 1016.6157155060533,322.06301339858646 1012.5892197816028,321.72962510221015 1008.5599050939101,322.0680564019492 1004.186815566741,322.74317307904937 1000.2050950650245,322.75378012002824 998.8035170616347,321.9373279719021 997.0446790271864,320.3481152392224 992.7561184992484,317.7520800466412 990.4001334150918,317.5573223537597 990.0469076556315,317.12369464724145 994.5125111920814,312.15559164450207 994.1307718657749,306.68901419427175 990.0095290770772,301.6310669182105 988.127278389441,299.0385709116097 984.0141906545015,294.58507956439126 980.9085435611726,286.9758106549228 977.2573577771828,281.66724780669426 973.7677873381087,277.9162431255912 973.627359678365,272.7466925015536 973.8943740845455,269.2490344305943 975.3844195841732,266.31094582411623 974.0376969057871,261.1813487758523 972.3061041906496,255.4521647317123 969.1498168694006,250.24548801710728 965.1412806468664,244.6477018358724 960.3588263447864,242.8721470610107 955.7787685356228,242.762589051865 951.0209477256523,240.400872209804 949.6101347849458,235.67982599409396 946.112775674435,234.4802699580353 943.3391721629275,232.20111041914924 937.4314951376459,225.34956058030008 934.0511684739083,221.61749176364594 930.2009325329525,217.89072137281283 927.1878987081926,214.04425892263134 923.8128778848836,211.63572882585373 919.003096074434,212.70759324202845 916.5985131171523,214.27162793283372 910.8261323945459,214.1401140448437 907.2162448618902,212.69331691946184 903.4754810203416,208.36068985480324 900.9557532448706,203.5542548642117 898.0497663910633,198.86322656973334 896.2447117827428,195.016638137053 894.4346636015913,191.65023162756694 890.5861309602737,191.6452774379706 887.2093582579022,189.84468595792333 884.7943966187352,185.0386044104303 882.9849353018147,180.58983194004588 880.2035125314402,177.9469008326322 875.7410819159596,176.6367824933222 872.1199345749764,174.7212174889596 871.390677990773,170.99466044726375 869.821276974642,165.83130308276588 868.1172309032747,161.50530074833404 858.7035311590373,160.80639384543503 853.8635238040366,159.26467252849574 849.6349400052692,157.59953725723705 845.2770519257289,156.2927398255577 842.2502127380951,156.6637569807242" /><circle cx="493.48745276165226" cy="379.74628656415484" fill="rgb(100%,100%,100%)" r="16" stroke="grey" stroke-width="8" /></svg>