<?xml version="1.0" encoding="utf-8" ?>
<svg baseProfile="full" height="1024" version="1.1" width="1024" xmlns="http://www.w3.org/2000/svg" xmlns:ev="http://www.w3.org/2001/xml-events" xmlns:xlink="http://www.w3.org/1999/xlink"><defs /><polygon fill="black" points="1012.058151048358,287.1781249384371 1021.3181242741064,270.8065242743267 1024.0,261.4304575552914 1022.9150843992336,259.2967241474056 1003.1639936548579,242.49761365010517 1007.4519829850252,234.75182474149216 1008.5489730441128,220.59474474824765 988.1487060034343,208.72957450911412 983.431304579478,209.3741222008664 968.7325861737652,207.4376937815258 958.3324938758147,201.00092666628206 952.6942722471279,193.7423214472684 948.4591850687721,185.8216491812746 944.976130695414,155.00401677164598 943.9338872275334,153.30820039125803 939.1150323134766,127.91909538246466 934.8396569459098,125.7825175567624 889.963382977018,110.24127765457524 881.6182344371057,101.63140516057962 803.7043503446583,62.00268438272684 797.006022299376,55.1423329023026 793.3642192343341,52.68056092952429 779.4353586173447,52.72331756242863 770.6202762803982,51.72904534119198 758.9428150009271,49.772848666231596 744.8560103686088,46.271339395914026 715.2633126446276,40.18412492855475 710.3102161581087,39.28286883095694 703.8848074585461,37.6850149034604 696.4537836754618,38.076045324485904 681.8805304597427,37.83524978811306 681.3707060487117,40.74937937853758 678.1940350883572,40.61612467266821 652.348554923539,34.00598229845201 647.8722066532107,33.58142712093547 643.7577090929362,33.81527175147778 637.8654919031735,34.65494596248902 632.978278321835,34.32934684734772 615.4710588618126,34.04505401893192 611.96027322631,33.75070648265546 601.589160483947,30.57639992987987 593.9382274257033,27.489124144019115 587.2643235618931,25.300913273943593 584.0177182867725,24.624193968249187 571.1321387567531,25.04244473153625 568.7816798609912,21.108386168063532 570.4631963069115,20.328772093532336 577.6375658829543,17.585229933835933 576.6326342234939,14.995175101375935 576.1179474187837,14.76358480143216 573.6722966008315,9.391763943816102 571.9812217917813,10.177855115262503 568.9847723847453,3.593424020358782 564.2920438770078,6.612901482493442 563.1410847308861,3.2623210506513374 557.6911773368562,5.186718013863697 556.4592698307499,1.8117418655312463 554.8885372835324,2.265836012887007 554.0885946480353,0.0 547.3260400943993,3.447298232401863 543.3096254488512,4.703999703890361 543.448733813244,5.216483576006567 538.1577720332887,8.06190170675427 541.953449798974,12.811735624461903 543.0578095500449,15.964835617995448 542.547033878452,18.003651207306348 540.9013237714075,19.775147224063346 534.5490723273864,23.868628503492346 532.5347543266068,25.3361320369404 531.1090236638865,26.889838595841752 530.1738350340429,29.257309166150947 529.835913872505,32.954694310009245 531.1183040121276,35.447061008358844 534.7386257392641,41.145839523481754 527.1992466826565,43.762740631113786 525.5463804347617,43.00905313471634 520.6920476043925,44.23316503564922 517.157259423333,46.090920630745984 515.0891507695758,46.889419567011714 516.4894400856396,49.60140086832206 513.7280733722201,50.315461986467255 512.2842794885,50.16077050048307 510.8431270072684,48.619772239666645 507.36526407311834,50.32253463288339 509.1511842931334,53.10903818682954 505.7679868133032,54.59538491246798 503.883266706272,51.734916892757155 501.8566894395944,52.84018902373481 486.02830866669046,58.179732288557204 463.08475536481114,66.15474589498092 455.45331484252773,80.36475833321896 446.0329776652036,87.03660708129996 434.3332991455844,91.85711004950275 427.83862016831773,100.15012009339426 422.7553144888324,102.29049796976182 413.1051481624176,105.5393182334048 400.47333117976956,114.45545127866814 395.3276011200601,113.01255830853904 392.31277255733863,115.61625998285001 386.21104982316837,117.26965995478571 377.0101999137997,118.44547513779156 368.81846180836845,118.07747567780996 356.57693138831667,119.30320914037384 345.4245809136443,124.101922281839 338.70257779222885,120.12280175943994 334.6274391158817,120.70887589817835 323.8914609074652,120.88458307923935 305.53906260290177,123.24277447534263 292.77723141047215,123.97112549776165 279.5445575125535,128.28539682103053 267.839328834805,130.01124032571096 260.14905627918745,129.12299502849066 256.58106253558077,130.20543814180468 249.99038542001333,132.87799641810614 245.84584977383105,129.88147477011518 242.11056504641962,122.273959140834 232.46247802613408,124.47646945757839 220.20067579749804,126.74080362598306 217.20172574838983,129.36044049626054 210.10583314741146,133.06325482923074 204.00736737117765,135.20941574032042 196.87541570382103,137.89494286251488 193.32030719188006,138.4720701945024 181.62406475800688,142.77445805377351 175.00955316548792,144.43041475577604 165.79216957936293,144.60295443296513 156.59246782505514,146.30726293453807 145.36261847225055,148.06366263768467 135.1974203621499,152.3467398171515 128.61345347681646,156.56985040226078 118.42610507860938,160.86720035476202 109.30292619198597,166.15083081709327 100.2432281240549,175.0307278210069 93.65515684059116,179.7685304435305 89.58694467041548,181.89748695909884 83.05994848696315,189.19329588066552 70.46712899192272,202.2362080595733 65.00056319254229,211.04535602345294 61.06310999349932,220.3271259712009 61.211110069849596,227.99891943232043 67.92651055117902,229.90155902172967 72.15173007549501,235.94061093187642 73.2305595317048,236.76491859694124 78.11213865392979,238.1996573079622 74.7616590404089,249.54518423474084 56.95503157101984,285.486722395941 48.923392705737626,294.2903542893505 35.64764728247346,303.979462325978 32.891608260164226,308.03702972180804 32.86451287682542,313.88426642879705 31.702925625344893,318.63530598657564 24.263143866741498,317.3013534583637 14.633987636535103,342.172782845568 9.713154904489532,353.5660472364312 5.815035908065567,363.4667619034086 0.0,380.96465376245857 80.09609622385499,410.57857718386566 212.12350404855198,450.02958586113175 288.72865049252005,464.4502268337524 346.8727339545374,471.1189248469173 405.41270143601105,469.51185632245034 456.12595146095674,450.8668106261305 516.1554102394601,423.2413816360619 629.5906376776555,368.5703930926562 663.6882609218931,346.6668237294365 682.7569085983037,330.47502595560286 697.1670019496489,312.1243760281771 727.908745245522,291.52990227540477 797.7694183615865,254.43824839503776 847.1231974337904,228.2682046656831 919.3315636372292,240.68524424481083 958.3787927383758,265.1948823927029 1012.058151048358,287.1781249384371" /><circle cx="470.43608974667825" cy="280.82310021940225" fill="rgb(100%,100%,100%)" r="16" stroke="grey" stroke-width="8" /></svg>