<?xml version="1.0" encoding="utf-8" ?>
<svg baseProfile="full" height="1024" version="1.1" width="1024" xmlns="http://www.w3.org/2000/svg" xmlns:ev="http://www.w3.org/2001/xml-events" xmlns:xlink="http://www.w3.org/1999/xlink"><defs /><polygon fill="black" points="28.450045095741512,895.2074557793903 29.332690715473472,901.2941176513341 27.87496166809911,905.1030522060236 25.135056171542534,908.9403093729672 12.116366723541159,919.7676809466352 5.641445077418008,927.1908190950232 1.197033847511436,934.8463841354497 0.0,939.4073204323946 0.8294476394000821,943.9336335388424 3.6583979912908844,946.9143229370027 10.5727491922287,951.0876721195598 14.93949723353321,955.0497079361511 18.777954451143913,957.2505061342173 28.040574898322685,965.9135750631003 33.2023899508413,972.1395051556243 36.363927322292575,980.4165004438324 56.05021426010274,992.4289579305319 62.83536615316428,995.1406297591004 61.65189529549462,997.699469947629 65.75653387533212,1002.5754420274684 66.20396764517284,1004.8906661162971 64.60123197486531,1008.9813806953371 66.29325544375719,1009.7458494376449 67.41930857963662,1012.6811245101212 66.12678726855582,1015.7536315564091 66.30260162181585,1021.4332147846983 67.63859307898377,1023.5249820757336 72.7339699917899,1022.4465880010868 75.73040554917736,1019.6244728327289 77.94885899657027,1015.802425253063 85.57558812344085,1000.5330113296892 89.06891726160883,997.4552565321655 94.88139363176411,996.3466307427399 98.13324463011496,994.0284493222811 102.33776555431486,988.1545746950253 105.09821890102863,986.1025603819465 107.89088810663122,987.0645400970551 114.41052021789048,993.6712400584403 118.68971355282983,990.4906805422539 121.43953139736576,990.8459159407306 125.66388090574297,993.6522509113826 130.57738981524545,994.7100594374365 128.37484592305063,997.8949442958146 125.9973643258017,1003.5168349033204 123.28247655011337,1011.433456290283 124.64685002890157,1015.2929241663718 124.47908440074416,1017.5363112942961 126.55886215227167,1019.5660458685161 129.37854801675726,1019.993835150808 132.52900839675175,1018.3941297866064 139.0005300821228,1021.955567596854 143.4272354542076,1021.5924334505684 155.94448049807397,1024.0 160.7478402678876,1023.9360903053141 173.06701143571578,1020.7448402416129 179.71170736594473,1018.4082714732197 187.15985558164985,1012.7811100502379 190.1707890410748,1011.1597912127606 197.47597176680483,998.2075471027941 204.43378875711963,990.5428947674199 207.65441296220533,986.4630706248114 212.09271483279656,979.3408150460415 213.7965922661784,975.0225367599649 217.5327825550602,970.934180557472 221.7708102652346,967.5856770924228 230.31364737218559,963.68655637963 242.83485904986884,955.6768761061846 257.1348623283053,947.3809476691878 266.8852793776483,938.6381111818592 277.4317280153143,932.1572539327581 286.00094735820284,929.7449132075569 295.62470905439625,928.5559397551881 307.7404130766307,924.0578799222482 311.0058306254954,921.9821897125635 315.23291455175195,916.092591796672 320.6252409099965,903.1229986025261 325.1095103964142,897.9956250224435 331.64285872931606,893.5867207353795 336.69219100377774,891.2231096524408 339.98113693604654,890.401021883575 350.1420938559613,890.9657525420165 356.0150853124791,892.6297346504465 368.2272481966529,894.6713582931988 375.8677749354574,896.302944971636 384.7146954402884,894.1205759787447 392.0134170907554,890.2117635161346 399.2720319570191,884.2788436784601 403.55970887507215,882.1899270825671 406.8413412728045,881.6332622616011 417.9359784396416,878.6665845734792 431.000811394637,871.6487130093221 444.0113437840492,861.8662121699251 450.69716591014077,852.6853348261059 453.08905742347434,843.8167894182693 451.5060619426527,839.0426546371615 447.36454062081964,833.0485429210217 439.41357609053523,825.5998572998839 439.09556152088555,821.3173307818844 439.80880023699774,818.0198097815851 444.0405468883574,814.1752850304595 451.51591313541167,806.2501900650938 456.0379783559908,804.4175630964857 459.0331007332203,802.3498733419103 465.51574231328686,795.9556038752116 466.47253713071626,792.4122150750911 465.62321408709175,786.1099899823691 462.71179537602234,777.8282772666187 458.2932672622757,769.8155671963615 453.43395212187085,766.3512099324435 449.8837341252472,765.3898640298451 441.48329143304437,761.7338119058036 431.83337938879737,758.6020210654096 424.42517455750993,754.6764015859435 421.56415949391567,749.4241244165045 418.4790437797225,746.9527213551363 411.0788197522678,743.0383042136127 407.9997059333636,740.3102037419484 405.1257746604141,734.0517099024396 405.8138676263718,729.7518935672354 410.3458448961618,727.655896113313 417.43421785880673,727.7840170209129 421.9664974287552,726.4567428910751 424.4768054406393,724.6489407233107 431.45194791390253,717.2239844543265 434.43686382959316,713.3940422919111 436.39204698127133,709.3195658141137 441.3782378453906,704.2055755898355 452.6974760359278,700.0080763935018 457.96151703727463,697.4075296750289 462.17321712238515,691.5451444027167 463.0606320643716,683.4503936272367 461.1891816361205,676.4163291808484 459.07361012338447,670.3883046497955 458.15208734360675,660.0616850562118 459.8609588928482,655.9991340858121 464.59149106948,650.8865314696607 468.0968214505378,648.5648307739689 472.61791974228623,646.7446607982563 478.1147400278581,642.6253130426564 483.64011129689993,640.793477847682 488.90600492370373,637.9460126245062 494.9391511609134,636.850198829814 500.1773888107074,632.4957155798124 505.7080209140145,630.9081580943568 511.78180336027623,631.5852800800637 516.5671753606471,631.0239865060978 523.0803197816975,627.9065071651005 533.1357884277545,624.7416178661197 530.1747328613085,595.9733096276045 530.0709259372605,583.3468416301464 531.1572926795462,577.3088940341462 532.9743631576569,573.2988678698113 536.2876797656747,571.3252378534864 540.3361842676346,570.1193604859836 544.8813586237711,570.172416209223 549.9457842374594,569.2294535569257 560.8549706969354,565.836893365853 567.6924039988921,564.9103655532133 573.0095951360443,564.9815297511905 584.6867270449158,561.072110083679 589.0895346718305,553.5513400980324 590.3969906968749,549.7891118580151 590.9725928306916,543.9883008500258 590.7901382685089,538.4368539494117 586.6058635737221,528.5411719638314 585.6391171844879,524.9987614248873 586.0596323158421,511.6314549211984 587.911819273721,505.09368637286923 589.329781724761,492.2390475237223 592.4833948074096,482.4319334544656 596.8976219579811,473.6473549375786 597.2790965923832,463.05100464088866 598.3732849285976,456.75251703925187 602.5140435661373,449.4748877414196 608.1656429892711,442.72596716067403 615.8503005308224,435.73604131145294 619.7123632599482,430.22031917043023 622.0486301111627,425.7011071722161 619.596765913882,419.618492903306 615.3354505360318,415.54666888770237 609.0637200028042,411.1826012715735 608.627331982029,404.62476050128953 607.1650728900559,400.56648976171164 607.268401147462,391.73697100234835 610.9163421762478,383.69751049928607 620.942875207193,371.68291332248873 625.8130314938105,367.1899225356631 625.5863903047892,364.67478210683737 621.8037363499865,363.36528139042355 627.2028824108861,360.5281834660034 627.5220826907031,358.31752185983476 624.5048236248717,350.6044421840144 622.9720717042663,343.70614250368465 620.9154113802714,342.20826263241236 617.1228583293447,336.7475306615503 611.5371972897185,332.39503216834396 607.3489188453635,331.2192254503145 603.7301814823546,327.5888340739416 602.452433027044,324.6162116284455 595.3833643434776,321.81162488430584 592.7074984740807,319.66099291666023 590.5935819156629,319.87066144217215 585.868699224923,321.96708591454865 583.4990971125794,325.35655580242985 581.1251583911921,326.46574131690124 578.07840902923,323.814860495826 573.3312755030305,326.85171421263146 571.7740846009652,329.95301458872586 564.1919845717385,333.44568199125126 559.105085105802,332.96542351096036 558.6502873440863,330.7576545799109 554.7507357578831,329.74321281255015 555.8955250367727,326.6837139087414 562.7792808176686,324.8702425803243 565.5251779157902,321.4804343506772 563.8785531629042,318.0173219764946 563.6633428827126,313.8468706415339 559.9230608086015,311.0021468326797 560.9756990119223,305.6130085304027 559.4071587223228,300.43397654041667 559.340484097162,295.43562266505864 557.8757015655513,291.82016755179563 560.2451869992251,288.34980324861965 555.7638585451664,283.3824868017738 551.5016626949119,281.2549576067378 546.6461653165687,273.67100352065484 541.7130479153634,267.1192534236053 538.5381459459713,260.9535850967728 541.8590434013477,258.47448254150265 548.2053208795038,255.5293792740364 552.8001149469219,252.05697456500707 556.5728278540973,253.61208406307037 566.9786103197561,249.45247328066444 573.3162417017032,248.77516602097728 580.4249127433434,246.08181063580787 588.3444418482538,240.61830331045394 591.1689214703625,237.37286708905503 598.3482056512674,231.19611803986197 591.1725786222019,231.22316965655705 584.3898854157426,230.58523438882798 572.5235777091623,232.24607380453904 559.5240315749041,232.92739960316862 556.425539608197,230.53353128323045 552.5779365865126,219.3149442478375 549.0364466569788,217.18697494707487 542.6565361895225,217.8332477722373 529.8865528800691,223.16797205015894 522.2585491345661,225.26574687152663 515.1020832403692,225.07313782115534 511.79885050715006,222.8819348603182 509.5724189318826,217.95193302370217 508.14706499848796,206.22933746203432 507.0129460510163,200.36869406423136 499.67089051630353,191.9038936892773 498.3392544250051,187.6171901990241 500.91924797078656,182.8546430328903 501.4978838021883,177.31925100781882 496.5387215850762,169.68033437744168 495.12034954068434,161.33058773754135 494.93288289307117,156.53259183412808 495.76133337929775,150.73381780111163 496.79940935467744,147.97546533447849 505.21869782424363,140.01129516475623 506.76943594423676,137.00771825360607 506.8130566132968,133.22074077132424 504.8345304436838,129.91787818608827 499.81034706089673,127.83353253638381 492.259445576802,126.21156797302626 484.1741000501636,127.11111770442756 471.2635411213727,129.70993825535663 464.1668881033975,131.88224960081436 456.08006417460604,132.03464179279786 448.26567084728936,129.92016809016457 443.0158510011838,125.31212420064969 440.80655468424254,119.9877633388561 439.84065035682676,115.68124654270889 440.38726367385004,112.66087553230864 445.5188841865578,105.91064430244774 451.6441320082809,101.19067059160079 459.75457816052636,96.2127545641664 468.43915854419475,87.12193521202698 471.8152608107723,81.49620923223222 470.84722320327757,70.88829427885014 471.11276964447933,68.9499211802738 479.21489180946213,65.22622541749251 480.60840950378275,61.87983331723535 483.4086826071115,60.85583173404882 488.03042350490284,63.327798327728146 493.9534018128067,64.03350453230996 496.383838931486,65.72252945260414 496.04431240450066,68.26307100682766 493.1157573031985,71.61301639636997 493.9105922380616,73.19331983074392 496.9447060868336,73.45404997855917 501.48454475739055,71.11072406105973 505.52167548616137,70.62570274730831 510.8828391690836,70.9527816107668 517.6707732952219,69.03430112208912 519.8323987317718,67.16411805999189 519.7839947357423,63.95173312258339 513.2919041306501,59.422916776799525 513.2042428554348,55.41490240014696 517.3263095342186,53.653769816193744 514.6398163614967,44.235450927541024 514.3967368875099,40.81977790387043 521.081055063171,38.00319218556092 525.6753042400998,32.519982916729305 526.294757216179,29.70479948056675 518.6812329131909,32.317499222996275 511.64048642388303,30.371379797326085 504.64186281051195,27.16021253141514 500.49810637897536,26.056194797366516 491.8028327349188,22.51992081507217 479.55960350206306,14.94216003092481 473.3849986076064,10.57669177285652 464.244493984675,3.5434406664048765 453.320048734807,0.7418705702978059 441.7997090057794,0.0 408.3134288468192,0.12913208299357848 392.4035878581612,0.8529789307341389 373.91705234049664,0.5750329362508637 359.7090707616154,1.2119836165683182 345.4642051968282,6.708147722445119 331.70472154384976,18.7088233169178 322.4708849739882,27.038072698946394 312.1494636477843,41.05715858878466 302.6452389772659,49.33510225917246 288.2019338213712,57.82585294340413 274.0352293194474,60.56234093401599 266.95559872498944,65.40261813818131 253.84120176953803,76.87973527646852 246.13576536179147,66.81587619228901 241.1261680766101,64.77122427186112 236.70490397539723,67.14441697537177 232.87645415649328,70.69996513711578 231.39793930993685,75.97229648280381 231.54080646430256,83.10387271362401 232.415794056164,88.71521169818948 228.87440057690742,97.211156189902 230.04327431972558,108.59835712602717 234.1729343696959,125.1553017655898 241.990480058651,147.0759302263565 249.87219650198261,178.7916557616246 258.0118381031046,196.8307910617691 259.55400588258567,199.29372652307154 265.89648853744416,217.6511846632743 267.46096670057545,224.89351812294512 267.249817742273,232.6266458402556 265.87945315379324,244.22069873760097 263.03017158621856,252.66850298685392 259.53551262213375,261.2192217469386 249.35836915201784,268.12938536966533 232.96518005336137,280.44957105613946 223.05530830466387,290.7316463442588 208.83716086513795,310.0363596952575 201.85581148674717,346.1099060524891 201.6513148636362,349.9140520571357 184.26036853540904,383.5420617587614 160.3128328757559,418.3531115884805 140.78103296127614,438.20466812702557 117.01459070531084,463.85158662268975 93.60511770499664,481.91404236043525 99.58021199342312,490.97849633306396 103.5195573024204,492.01035034151323 107.40079599596301,490.63630222911604 110.03078761600302,491.06212760652977 113.48501036484764,496.2601193021909 115.51497925594418,505.68646404085007 121.06839136964241,511.1348975960815 126.57865772149938,510.3675026736015 128.15615378316383,511.15953466834947 131.8071478269174,522.5859494264819 135.26838297881656,528.2047084036059 139.78369490581508,537.4732810104806 141.4090548551185,539.637481534121 144.00107888734104,548.2993881275918 146.57114701929743,548.8056519594554 155.72316520330136,544.4466768424413 167.59939058068443,538.215951544684 172.20016153146713,537.8641418966056 173.07477424973925,539.6999120714086 172.74406536015377,543.1108574054363 170.65564767623476,547.8100174580941 171.26220318553572,553.4243813280239 172.34687857413633,557.0839300924962 171.89520337037055,561.9087764954375 169.24864741976975,570.5225007244417 170.84629262320632,571.4371863561446 170.1913812512292,577.5327409554156 171.50249572495503,581.1221956796828 171.3645267208093,585.6107525186105 175.15014002631887,591.0272792030895 177.2119717224355,591.9117307398739 178.29870619049888,590.5190129266299 177.230830906899,587.463717308801 176.85486158846643,583.056949461091 177.73338881177145,577.8002313666561 181.92927890664953,577.6323013958888 186.2471263334027,578.6627742144935 191.00955869807515,576.8346764908483 196.3801391422902,573.5633450401665 199.6194156130002,570.4927211633903 205.379458850092,567.1289922931269 209.6615640670215,566.569445094363 215.26897872392118,570.0190526545614 228.05085126414798,579.4290796214109 233.96979195423683,586.1573768953067 237.37405345566594,593.9296618321267 239.75711993914328,600.7061400399966 238.1309576270325,610.3193456758257 231.77623501700253,625.0441442290951 231.91171371060284,633.8720552457056 228.76553793824337,643.7631564764827 224.65056771453277,655.4182975082742 222.98102176740932,662.2569573556821 218.53680276367967,669.3798940254267 207.87315367322336,682.1474881635505 202.45248157677926,691.0557442864165 194.24859975985316,700.4928138903849 189.51787710552782,704.0883929986963 185.7777757377499,707.6741122405167 181.31356757622362,713.0337001060076 173.08575073498062,719.4451566337382 169.3962797644839,726.3041890602092 163.97034561634973,735.2127236439262 161.04017706947928,741.8074397149915 155.39059949795023,752.2260836199757 151.91169212913664,755.8022708402452 142.4173134086648,761.9958456729164 133.69135617333495,770.439292581741 125.14355963710267,773.3285170394333 121.8531803558283,772.3670414519042 115.92570006211317,765.3853041234627 113.3718372041226,763.9122297667948 107.53421989348863,762.2376026692313 103.4944446001217,762.8036332772026 97.49279782667858,767.4314198189318 91.54523571119232,775.5990966803981 87.42783388344542,788.2801386401011 85.22377122307637,793.36797811168 79.739854318963,798.4988696616443 74.19402236141735,800.3555626496313 67.17646545380074,805.267624977866 65.44177042794676,808.3226101764528 59.954916284014516,813.9675223339382 52.54459162316026,826.9614458897423 50.30721230360612,829.5230174715434 37.710857249982155,834.7796849175668 34.94676150994938,836.6011460819568 29.56332170722623,849.3029952773115 24.376093126368126,858.7401568621907 22.136494308587576,864.0148108119063 46.270077331987466,866.3504538893047 46.16788906149432,864.6445302447596 50.55136479182458,863.8547537839434 51.377771517181856,870.1347865759594 52.89276455748167,872.7785646722897 52.83500723168917,878.1110627780084 53.50038079575934,878.6574618958451 55.93625571074291,877.7491664020158 62.4871861443498,877.9096089840408 63.95412782528857,881.890121911808 63.70129164513198,885.095026451649 60.70663167448766,888.5198718965576 57.66982838446843,885.6655379949676 57.23387866408195,886.7131477063162 52.08214076619304,887.388995298011 28.450045095741512,895.2074557793903" /><polygon fill="black" points="46.270077331987466,866.3504538893047 22.136494308587576,864.0148108119063 19.752747409487874,870.9220413830255 16.510651422330273,874.5199773012441 6.663911318676655,877.2137281217701 3.1644899438240204,880.553017146425 2.4561587559840126,883.8389714179447 3.525247966407845,888.1173243793653 5.5887984236573525,889.850034807677 14.964353835713434,889.682686988448 21.293788473296967,888.5596170826769 25.643673727352283,891.2645610222384 28.450045095741512,895.2074557793903 52.08214076619304,887.388995298011 53.54711017230928,884.8540509838671 53.50038079575934,878.6574618958451 52.83500723168917,878.1110627780084 50.9492142804823,880.6757344322144 49.57515125869271,879.2438605121893 49.81372342280792,874.6414084717007 47.51312047389431,871.9229270208307 46.270077331987466,866.3504538893047" /><circle cx="356.011041391219" cy="438.8833792822262" fill="rgb(100%,100%,100%)" r="16" stroke="grey" stroke-width="8" /></svg>