<?xml version="1.0" encoding="utf-8" ?>
<svg baseProfile="full" height="1024" version="1.1" width="1024" xmlns="http://www.w3.org/2000/svg" xmlns:ev="http://www.w3.org/2001/xml-events" xmlns:xlink="http://www.w3.org/1999/xlink"><defs /><polygon fill="black" points="131.26493351389104,478.1288809701975 128.45960407910277,477.66327787306 123.61467598471921,478.8500607860301 120.94974616065218,477.48906561077735 117.85754638351872,477.6907764095139 116.50198298794592,479.75355167306657 113.38308216044962,481.80881203632543 109.40367169799784,483.15967422516655 103.75467484837527,487.73248946608766 99.19406937359972,488.9353091957346 96.87974048558932,493.07402226524306 92.81093856957328,492.6496922893798 91.10026723737991,493.5515174938627 87.94364913113931,492.4872081665935 84.82513002530632,495.0977279015199 81.86738581012371,493.57583154316137 80.79779693451898,496.58465085602563 77.97666396694753,497.55281535218234 72.00511698379293,502.39119056390547 70.19382859027345,502.8900766734387 65.29246870919656,507.9113890265743 64.56396715869158,515.2660810853926 60.52834483666588,517.5593323816846 58.651205489351604,515.2896248335817 55.047455887177236,516.5936702230316 53.188677331843664,520.1074641611375 50.479658443705716,521.6629967804568 49.31764710146079,524.5773714171482 47.22276647425688,526.4870274802158 44.760528362967484,526.7414039534 40.641896813110485,528.6687691498418 39.39622772906246,531.5989733183155 36.17675852737886,533.0167171294581 29.93399601523526,531.428475275712 25.457495216713056,528.5974650824219 18.74139133346452,530.4737828807424 15.060564900721081,534.6232495511811 11.73510010448907,536.7138340847423 9.670195949691832,535.4932212574763 6.1828161265213915,535.3578186863447 4.074326313078317,539.4299903552619 0.0,542.9901185515987 1.0049235068118645,546.0989266026547 3.796875220154012,548.3200743138109 7.65217380222013,549.7780565387095 9.190790912613169,554.4751041589773 13.577948321597443,554.797876328292 13.905132684856357,556.0819485588697 21.126020415590162,562.3803950060367 21.794857224042612,563.9080087871832 26.02989353440559,567.6448645054998 30.464152064122043,577.2255481375631 40.267837404930056,574.4967926261927 43.876772691418466,580.8149941616161 42.278189876500676,582.854664215529 44.68202971589892,583.8720331609989 47.68709858327238,581.8865807120259 51.809592033938216,585.0788246653549 53.83274198339078,585.7946566740027 55.560193747652946,589.9606714694725 53.54224822794956,595.4571061716747 50.68455560475574,596.6856947032929 45.85802429815447,600.2688424796547 46.02443476201834,601.8090839746211 43.287131280870625,606.9111168090582 44.97317032410479,607.9050741723388 49.069837747515,614.2157082680036 52.80375515180689,612.9777795489063 56.49478466132736,610.5001435678386 57.79795573884867,610.5976723427254 62.560757327962605,613.5228605326307 64.8484221069459,612.1167816861484 69.51768921936751,614.7776210124247 70.78811647100022,621.1079694413248 74.6646391889943,622.8312395293967 76.81740421716619,619.5122500714815 80.81904792802185,624.4492562752173 80.88892095259118,628.7795517777577 85.08804473144006,632.0666451725787 84.44196801618314,637.240438469093 85.70412034626442,637.3732813809086 90.59996477893235,641.4823641154948 88.68456510863693,645.4450327440297 89.64332876987154,650.354605733302 87.01106203102785,655.4964544672898 84.41680222928856,656.7847130449044 87.13340921777842,659.8314138612253 84.66326865858035,664.7095998533124 85.94908208228784,666.4078821292424 83.22316418545087,666.937472416304 81.06716525520679,668.9944482573401 81.84248958158359,675.8201257942374 79.32622460616027,678.8350481017242 76.74111599147774,677.467647666563 74.04074438841629,677.4852757773881 72.81439178613198,680.7546381078354 76.39488756607616,685.8630153680716 72.56329668196155,693.6194743001578 73.77849314846989,696.5944995908624 71.3931388019399,701.2925436973488 71.18418526788591,704.9696845747519 69.7277460154796,706.6857330168375 73.77082713750694,707.3260751698666 74.38615825830608,705.7881813495991 76.74482855696398,707.8491559438498 77.23753289056026,710.8858437634385 76.4584825739918,713.6778379307366 79.63611168924889,717.2758468402807 80.6307012243835,719.7690222709018 78.76843845184919,722.5841183129762 81.08890808240483,723.9253511868645 84.81208068149232,724.6295833342537 86.11013836678009,726.0043568711418 86.07702308472584,733.0380569765482 90.70319710705637,731.2595972224576 93.60585129539487,727.8231547379064 100.03521399165226,728.1056047889954 102.7455958897778,727.2091098651877 106.05409335425446,729.3261549924458 110.23501426729203,728.2412952671941 112.86673486525162,728.5451297195792 114.51433513443794,726.9536496000969 120.84056533468326,727.2202659590224 126.8994535695829,724.0355265667929 127.97626540411407,725.9713171616772 132.3845320238956,726.8776818507623 136.72662193869962,732.0922065234142 132.72655273739602,735.0891508904689 133.3079496988566,737.7192618911137 132.8030571390173,741.13762178113 130.62190897671326,744.0217245864931 130.21598482208458,749.2824981570227 128.2149863236045,751.6397322788653 126.14329087031561,757.7106328724412 124.82300705518459,763.4973165119624 125.82845789521154,766.7958099723793 127.46988546914275,768.189400923226 125.25235780550327,774.9590087905151 125.76725722978506,777.7487178958909 124.75700206317273,779.063162870836 120.94348625432849,780.1440254200036 119.97659307774768,781.7119916559773 115.88785574154673,784.0262722274538 113.90614584684434,788.3945737891034 117.43072446630309,793.8182353509387 117.35186753330476,795.7404720942101 119.94094793606894,799.6598169076942 122.50616669418312,805.419569202783 128.39168449338175,810.1110683536456 127.775167336403,812.065378834313 125.04785194245677,813.367187296532 122.39576686865459,817.6813179039632 121.78749457621265,820.3652002184759 123.15635108788462,821.2572404421869 128.04024308129505,821.4971019567256 130.7444158026248,823.392378845365 135.36592300504847,825.1661420883203 139.51159105106882,823.4474351899946 141.21728779382212,818.9258344513001 145.46551586205817,819.67818306138 152.56987825419168,819.2794235894997 154.14171711111865,820.6809357993968 154.59914397168475,825.1919036125545 153.30699890111904,830.101105072086 153.83314674181625,831.2102388363443 157.69468105895234,829.6679309481652 166.85352010886203,829.4392170855415 170.75144000798312,831.2535684380897 174.81576392915906,827.6583990972379 174.65218394643324,824.7269908566886 178.61067632931653,816.4920790416759 178.49235597774086,814.8622552979216 181.34792332195786,810.0836893381506 187.77937551517238,810.7257412286749 190.9949894281206,812.5087565678834 193.81828717610233,811.7287422027086 197.60469466456593,807.9389788396786 198.52593909889632,802.0491882772124 202.65692975412762,799.1852407454637 206.4035603689352,798.2344661750338 208.26261189717212,795.689296509931 208.80566417719706,791.4257677012756 208.1062004211981,786.8945432079797 205.8996417388611,780.1355725324559 202.4381087170264,775.7987865378415 200.84163383652574,765.0344569954655 201.32904300693536,760.5859667202803 203.8845287252343,757.073495181718 211.01454666172916,754.5951437744329 214.0654082277769,756.2204751354503 215.6652628481779,750.6655160610153 217.07455641286307,748.6145877914068 220.72286548749807,746.5601663891965 222.4199701422428,742.2966453959405 222.84256078692837,736.7294439092407 221.56796327199433,732.4866808176395 223.30948637655817,726.6030308762225 226.38028216116527,723.7127593227149 230.81508608858266,722.9588887076433 234.7630497265949,726.4059804926712 238.2940775093181,731.9220146641429 239.8794708060759,733.1685312475466 243.94433227471694,733.9047945068784 247.67582895344918,732.4857381989543 251.65284472157606,728.4520327279845 255.81221727458467,727.9490006921465 260.24414884376006,725.3821593971326 259.31244182074164,723.203176481409 260.7703401271139,719.2229739318129 264.2969631655589,716.5112620596888 267.85519550436686,715.6924009307054 271.77511986054105,709.8025507555228 277.8323483374765,703.3267113775809 277.8096990697658,701.0613994563882 275.36615882858854,698.7601537082298 275.14874980945973,696.470885971594 269.5854460449775,695.6425559875457 266.1245262375477,694.43217199534 262.3585651354906,691.9269173924602 260.2771211803908,688.4706953372288 260.4422272883193,685.4003399156786 262.0602986384715,681.5402466235126 265.47803736539396,677.4028397778675 270.93450784586946,675.5649270762854 274.8652864708032,675.315203541573 279.592669390636,678.0488404963272 285.07392733563813,682.6920954610383 291.8468944208802,690.3972373989761 297.36151261110564,694.6683124287681 302.041114490341,699.3926981519612 303.0906842515911,702.2440275740512 302.51599860774985,706.93558648947 303.7682188022802,711.1434968253709 305.07326381204564,712.491581686955 309.4918861030231,713.8450871808082 312.4578990592564,712.7555585834879 313.21058364660354,709.1118934093483 310.9883973949396,699.2874585254161 311.91187692245455,691.3912501407913 313.20855036778636,688.2290808860554 318.35582698126245,680.2935375981979 321.4653149556794,679.1151350948871 323.96622687427237,681.6378029334136 326.3656101738691,691.0321692873781 327.52584445111074,693.2321251510302 330.0950409181032,694.3220896689578 334.42393573283385,693.0237215327135 335.8991488221787,690.8806178644744 337.0387419174975,684.4535094079303 338.9818855542149,679.6400001309127 340.4352508232519,674.2283609978165 342.95749519430746,669.290806539347 349.3062733422203,660.7244204727858 354.7459596880601,655.0965542832321 356.6698723250159,653.8876638278552 365.31114894286753,650.673425012487 374.14002087628705,644.7462247209962 376.46189769292494,641.9175019497785 383.5979244144224,643.8286310908509 385.2832221786861,645.1994811193719 386.35467016075376,648.184153423736 386.30377824043586,652.4632810038881 384.07793888560366,657.7714288841541 379.2693592489479,657.4141541351762 377.83031821663855,659.4650327752521 377.7712622331615,664.927520584851 381.3998380418506,667.3139567861001 384.99324237893165,666.0034417534198 395.13400165656617,664.68922321742 398.7528604605578,665.7520012840333 400.3194865399166,670.9464647113094 403.07421828475907,672.4635697340107 412.13364714921414,673.8471698586791 412.5662610831931,677.851956149217 410.5462815037419,682.8150755878248 414.8425317226697,685.4196724203784 420.80536485497316,686.339079403388 424.85854586018195,685.6494784127128 431.2483110681473,685.9161933164996 433.18514419425316,688.1673288655244 431.75848682606505,694.3107125454974 431.6882501594357,698.7806527291885 432.8970155256117,700.4570417486843 433.4338975608662,704.0470082366588 432.9676625480088,707.810193060831 433.79028526000394,711.5467781513646 436.53860538228645,712.1494088866762 441.55390931610907,710.9383221798327 444.6149973091506,710.9134472238862 446.0734194307583,712.0548798674668 444.94386348400855,716.9692590419066 442.33325841147064,719.3998670784925 436.9772417422912,720.5940559561046 432.17011371446733,716.6638363827179 430.29884919975154,716.9012479017313 428.10288445937994,723.3018370235302 424.22167156156473,728.9474059607254 425.5264769267813,731.8577799313871 429.5954909925516,734.7663147993227 435.8012329477929,737.1348624416162 440.40619543100286,740.119369599046 442.64522581507936,747.9294128211284 447.8751172559121,749.3142063841065 451.31340078430856,747.2819598323736 454.945427518745,747.222463105204 457.3085561755117,749.5222371536167 457.5632671114649,752.484709267221 456.06139094796225,755.1195220587898 449.08329343504806,759.0333911510049 450.38663225344277,761.6930710931736 455.9264864997694,763.616114615266 461.74016230580816,761.0374035682271 464.8733513500421,762.1413033282759 466.34201468229367,768.6394472032339 463.6169994695921,772.4720248381648 464.933022557973,775.066977413829 470.33910423325017,777.097655112205 480.92161982536913,776.9510583074207 489.16214010286575,777.7516681099814 491.89972530172906,780.5808914957652 492.2620062699139,782.9876929104968 490.1146656000511,785.9298751601065 484.0752206980456,785.9328887607796 477.39469236397787,784.5395824684138 473.40507012238237,787.6467345544064 472.9325896545402,788.9713599216755 473.82377298736856,795.0599112052338 470.77333533334996,796.7026676238552 464.8806093819241,796.9864140358889 463.5365934219528,799.4503558189097 462.90505820154766,806.6468922302172 460.616206001885,808.3342691757133 457.71722541202263,805.8148135442923 453.9651448100439,805.4522793655528 453.06013283070297,808.5613479674282 453.9494602175078,810.8793921010266 458.0024305718939,814.0413486380955 461.21514212314094,814.5319099427423 470.2766826787662,813.0372319043295 472.680181620589,814.6489786698406 472.6132709596862,816.3196048304832 470.443945912868,819.1784224862471 470.77732286755884,820.9703013375057 476.51258546785266,818.0476829437031 479.97513241743985,814.5991201988 483.1622973708693,813.3777987248152 485.91601084324407,814.0806759194908 487.4653469858795,819.9711648400074 489.02984755537983,822.2187169142385 493.4337272921008,823.1053315500233 495.96876381650145,822.4293739140353 500.0711934522601,818.9368408205052 504.9050195042153,820.0088705453658 504.6054914884471,823.0106441540704 503.97769351479184,825.8760936552916 506.5403962252718,827.8913799453147 512.6920751420025,825.7094524637764 517.3580659437038,827.4773348434818 517.2687248974165,830.8488634830214 514.2285818943503,834.9736667887531 519.670531789058,839.7956328307654 523.4188784391615,838.459869588559 529.1275531384894,832.1260394989956 536.2987334932797,832.1760786862461 538.5455033748035,834.0428065362497 539.8082344746155,838.1331327428555 538.9707887674632,841.275803583169 535.6763028417339,844.762610918678 530.8712696047173,845.6948106497528 523.840424103802,847.7786144370766 523.5147263757099,850.6047147421783 525.2820365131583,852.1927771659463 529.490614762326,853.7171067394031 534.5979580342118,853.7446453524046 536.6121931693519,851.764874960654 542.5026956073046,849.8340997322462 550.4864686589794,853.9639983990149 555.8065387137578,857.4056226565344 563.6577976225053,861.5684041072235 568.491495016129,863.5216729048254 572.679392456809,863.5643832102786 573.5146031917031,859.325504472848 573.1237220028868,854.8481437618212 574.8794144043729,853.8721520387774 580.222679756728,854.5241180549108 587.2457775037076,852.7295911585915 592.5647958595758,854.15595481131 594.345235651981,855.7123545931083 594.4673018651783,862.007685096624 596.1966919923565,865.2379792752865 599.5413300614505,867.2814612469626 605.5000947345333,864.3417922496363 613.19879625609,866.3978733998953 618.6918516710075,866.8890941847088 622.6518320250931,865.1920119473384 623.5175966409505,863.6081689372731 621.8874675222705,859.8947429380162 622.6717533214113,855.8975464004907 625.4893225128983,853.2552204509881 628.5708832410234,853.2344908236722 629.5541100018801,854.3366737512633 628.9732465094261,859.7302670800932 632.7696201603226,860.2454354388545 636.5632090202296,858.5447618211947 638.2390591652628,856.7131940753612 641.9324253725429,857.7587806592028 645.0965029331555,861.3569565815383 649.2269852803557,863.5130024417314 651.8632206137179,862.9316796323567 654.7065376155683,860.511185369757 655.5775788163841,858.5345240902479 660.9049321417573,857.7735005296336 661.8792511354334,860.0803166926773 660.3228383501419,864.1033083743374 660.1525991041217,871.7682529629914 660.9372778458575,874.9333837624625 665.9566144062208,882.8377083333436 669.4203084669416,886.075935320951 680.2797851845052,889.5007195464143 684.0392966899409,889.2902880484053 693.3187062446198,886.1557344009824 696.0273685131558,887.574020577528 699.7966082434386,895.2130813013526 702.1353816987775,897.8325015429468 706.9170561634247,901.1081320744591 710.4132903751098,902.5852520928172 713.9833712388382,902.6218217770845 715.9522530957439,901.1169858329425 715.651667098235,899.1379598659623 711.2895075357112,895.4770056710024 710.127126573906,893.035349269605 711.0678392928196,889.0736369366041 713.9750345637816,889.0905586852238 716.9133810968215,891.7934573000288 718.9833697174417,896.4565805220008 721.2142365569281,897.4360172007821 724.9794914712105,892.777650316969 728.9017194340219,892.0413058941089 735.4485975086518,894.2822846378187 741.2826486338176,895.1272243609942 744.0011400354308,894.614957739095 748.0807537396812,892.3082513451749 752.617451927053,890.5589280221022 757.8365297962129,890.2415073582546 762.1392375494155,891.7720583839521 766.4092072122927,894.1718545178585 769.8045174613311,891.1420319873283 771.2440084449588,891.0309291239298 773.9337777310978,893.2581633976317 774.0058099116956,900.6978286667513 776.736386826599,903.0286361673136 777.3788041049316,901.5030544648565 777.3842230573005,895.8980368236166 780.0015141801618,892.9310014025928 784.4056559485741,892.4299834557548 787.4107544139869,893.6221957201816 789.7895660542101,896.7330249331117 791.0997539255322,901.5789115033768 792.6215553730821,903.0971208968012 795.6671839223062,902.8573337003096 795.1574596188167,896.8895143452227 796.9422539131439,894.9861690746749 801.6952554518025,893.917458765133 804.8771529794078,895.0638011338235 806.3456547471334,900.6037302798819 808.3481785868526,904.1394549356404 812.2892858142575,905.86628395181 814.525699406611,904.2201724698631 814.9920195216216,901.7840805037034 813.1272440261763,897.183922480691 813.8386158780427,892.5991319174923 813.5396035372377,883.7836951442655 816.4758746393968,879.1076792893354 818.3673153306256,878.3933725258291 821.7129867087925,879.624366660783 820.1554286348587,884.0939328749803 822.4766030828181,887.0325397914992 827.3160989794299,885.541627942437 830.0658260388699,888.9625108854608 832.3675773690668,889.3655706765283 833.5270126669877,885.9940487687946 835.1526725204584,884.2090775889993 838.3521900795353,883.1079519570033 841.7652460736044,879.7922937277912 841.7039066042778,874.6952397051497 842.9274850007336,872.7467469651849 845.8605865242961,873.9043618026874 846.4114441304679,877.88578989774 851.0817328038511,877.372134220309 848.8458131579141,883.517810273405 851.259328278549,884.9401670895076 858.0806651010556,884.5361152774367 863.6284226003013,886.8563729296453 865.6850060395519,889.6679500816167 865.0647025881206,895.7789698589515 867.7983551093552,897.3541966740955 870.2483136919826,893.9867719411087 873.8682817291601,882.4208040087562 877.4552684223632,879.0204242832327 881.0493315912809,879.4542985927706 882.2123587029603,882.6845888176885 880.6498093233561,885.4447902203075 875.7508561682283,888.7371832915675 875.8296339972176,890.8523680849279 882.6931148760699,891.3510464917812 881.8549994577166,895.9260037492498 882.5267338434494,899.6385873041444 884.1488497080799,900.7703554306729 887.393623884036,900.2357469987902 890.068667760543,896.0558935037576 893.1303906483113,896.1080375113802 895.3805250661911,899.3980810082849 892.9545329012323,903.5728962357139 893.5735463649368,909.3907897522549 891.5118342478878,911.445922427374 892.5653798193962,913.4974084019808 898.045331399046,913.0710629364862 900.9566477263179,910.9128825509295 904.5257709241088,911.054723553496 907.3237825031841,912.6566972661868 908.1380213532376,918.7966508088723 909.9428882771754,921.3523330182809 912.444441590306,921.716023706632 913.7280129130078,919.7729998846386 912.2654483700874,915.1713249530293 914.5471357826098,912.7615713571724 921.2322582571203,913.8516391867998 921.1760622927743,910.3232082054404 922.8515320575355,910.4431352261527 925.699389078154,914.2723905258639 924.4237735682576,918.536473675923 918.7940015389485,920.3784487782008 916.8287782163635,922.2019028146884 916.2332769897822,925.7066202635328 921.8413371791488,927.0473122735856 927.0100074550685,931.9036751864954 928.8161006702065,931.454215089796 931.4536387460314,927.6704266846359 931.95433155804,923.1625122639075 935.1818703306265,920.3589766733279 940.8084347859102,920.8077985373496 946.848594114448,919.2382733169399 949.125795778208,917.1455903082347 952.7510389184743,908.2609923326656 954.0600173616398,906.6641400644702 962.6262925658893,901.3747307743012 965.8543260281132,901.3485270943913 969.2113969601799,903.110281240548 971.4389589786897,902.8223450943149 973.0335843342094,899.281614500833 973.6774911760773,892.158763341993 976.310208329206,888.1701030216072 978.0680331733694,883.5935918078062 981.9818748812737,880.8045086224255 986.4102002146274,880.5628216537197 989.0879669118376,878.2488173497707 989.2079622800453,876.3608887401329 983.3458786476788,873.8880653073523 983.7072625541263,870.4879710474955 986.5637874706948,864.268275929376 988.4884774855036,861.6680979597995 988.813450117198,854.0349320593333 986.5368757866765,852.0340276238645 986.1394917273955,850.2178472018384 988.3730448480856,846.5370415631303 992.0407802975722,845.34490355634 993.4723598712125,843.5170856259876 996.9501287671121,842.771349493574 999.179677127693,839.3989286132414 1004.5892604090441,833.6437150249822 1007.6248459923316,831.3340334560895 1007.5291538348114,826.6633198005644 1010.4300382496523,824.306032931015 1013.5558573201788,824.6956564859587 1015.8507708884962,823.1174128359205 1015.8843791313991,820.2416794692657 1012.6105164704803,817.825050724674 1012.1587867909905,813.7131204781655 1015.3824167859302,810.8639955512936 1013.8326903854174,808.4807805195646 1017.2688664749223,806.0629564794737 1018.8657330236944,803.8728177389878 1022.5500525039496,802.6512367758456 1024.0,800.6936690611252 1021.8533698175607,799.4169100174 1023.1082970086554,797.3458587795238 1022.866985694492,793.9006060770953 1023.877342789856,790.1293756125475 1021.5133274101987,787.6849423939784 1021.3830001545755,785.8924857243409 1023.3980755568305,784.1827592920383 1023.0520813956978,782.2860167964201 1018.4153267831164,782.901989647516 1016.9122094264449,779.9794278601679 1018.8578291502307,777.9053251806533 1017.2685789882123,776.7172091891892 1014.3247534708122,778.4659864487235 1012.9219262908666,775.9637919523241 1015.3021283611149,773.7264045179471 1018.193009378855,774.5985982104496 1018.5523726146382,772.2883989539549 1016.8978041987621,768.9924293081793 1017.3656183148823,765.983805004485 1013.2757792518854,766.7336792924327 1010.7206543070037,768.932600426772 1009.3217635365235,767.2703459191712 1010.6181287645422,765.1455936314227 1007.1526363061768,762.7111792047067 1007.8875425118005,759.9388108505516 1006.5715665678847,755.7601080997167 1004.3855514877741,755.7793226250681 1003.7825832402979,752.7255339755257 1006.0520861893532,748.820160223296 1001.6395203853007,748.9137274460758 1000.7112088087948,746.5939702211256 1001.5819599284683,742.370424884469 997.671510041196,742.8399797575023 997.3560667896476,738.7739584236933 991.7595555169962,737.6727728456258 991.872570759983,734.1796448531044 989.3579749934592,734.2595840760707 987.505990103264,732.7432830583372 984.9262924890663,734.3511290549571 980.2769609357046,733.4056228485811 978.4201992018674,729.0934149640727 973.3989786439943,729.5136170190818 969.5824344108546,724.401024220911 970.2246601665239,721.8267030963564 966.5317308917771,719.0537669773122 964.7724225006754,715.5724793969325 962.4105023615742,715.8760925137456 960.8599017858503,714.3057031219976 955.3933876642761,712.9960681459617 954.5784869325532,709.9243630832501 952.7363443511024,708.7517941199231 949.6508486595999,703.0975662693079 949.5275109598658,700.9545358494579 947.4908310314562,697.6110812544762 947.1843309266404,692.1527763984553 944.8761012413389,688.2485111745705 946.2973590876147,686.1032260523907 946.5134991167812,681.908009926399 943.7227652283597,680.019372441737 944.6318408808487,676.5666760967378 943.6605295003578,673.8496884886442 945.2673996689044,671.5949418947429 942.4105480662017,670.2641428325811 942.3230675672255,668.7100516090511 938.9653341198677,670.0994801717361 933.1945652024091,664.9896774096738 930.1372668810384,664.2045403457769 928.8675802173772,662.6288348784311 927.473937409472,655.1829106750337 929.1515945282935,651.0341136043917 927.1853209753045,646.3271425056396 926.1590826890842,639.1851953821327 926.4801522528679,637.013491500988 925.1896213613304,632.6030363210841 926.8368142937378,628.4002099724266 928.6815232208401,615.0287363488721 929.3896603354368,605.1516568663299 930.9852073476563,598.8337461113049 927.6709430149824,594.6207035572129 926.9531897229076,592.5513907330374 925.945069665222,582.8571922761467 927.4709021123087,569.4422716479125 927.2541050147546,565.5977973334385 925.0180772852376,565.5187532704629 922.6867560068519,563.758934151517 917.5537528547254,558.2113904693122 912.362411477208,553.4426042132634 899.7712797149818,542.7116922753423 894.6199319675414,536.5796593064656 893.7081011401674,533.8061856708209 898.0961381146105,531.1016377694416 907.9742327021174,526.9274512269417 896.2943379214242,515.3317656802337 894.4972879785895,510.15859191498043 895.1663364367748,507.19146504118254 893.4425505899035,502.8448212116766 892.6127480781734,498.3049112410922 889.2181207603195,491.4573606686464 889.6314967245851,489.3406958312409 888.5856905373769,485.8648374852533 884.5568602354712,477.31731892156444 879.3726578985138,469.7205222672848 875.9946852878231,462.7010731507783 874.6371010492338,461.5370866923554 872.8874658856595,455.4173690891621 869.3741715748125,453.1083655707479 865.132654291393,448.4304693151932 861.9100994606916,445.8471315495028 860.6415204476264,442.50095316083406 862.4116738609598,439.0809642822557 862.552266931147,434.24417718014604 864.1446921807313,431.9699615135839 863.8013025175749,429.9219286196699 861.6335401172909,428.2214937714347 860.7935720307331,425.8064078686323 855.9152871948666,424.9884481852653 852.9093737044091,419.99519522101195 845.5952361620663,415.3913382842319 842.8048033352252,411.2883485841488 841.6865869879753,407.5673560099176 839.9627208798258,405.6598286101448 838.7139711065116,400.97610625337563 839.1858134754277,397.6362512715008 837.6862988717268,395.0295041088773 838.8582387580319,388.8632281048683 837.4621799778724,382.99697436524434 836.2910846873406,381.1157033067061 833.5588812949355,383.0763387819908 828.6689031253478,382.8096470011833 826.2908490416891,381.0787549141869 824.2839035649391,376.80310314931364 824.0430212510006,370.2332054957727 822.6818783148525,365.81889577794107 819.9931324670481,363.75189072589774 818.6633963929279,360.0685863060762 815.7149706828736,361.45139376855195 812.3003934258143,355.70908126864424 806.7805301131672,356.23444116246856 802.3802817328336,357.7347725111305 800.35680032549,357.1345208213304 792.8683394925927,348.7039123806562 792.085189811699,347.040608989705 791.0935143294467,340.60306607214306 792.8133571446381,335.83703397256386 795.0614051792752,332.65745536140196 795.2216224533241,330.68509168466767 800.0004656754905,330.3914911551649 803.097875953782,328.45009545057974 806.1985807023331,328.49247194339284 808.353883937652,326.04981291793 810.9304568425624,327.8653221806999 814.5702594278769,328.0338212585316 828.4337575502096,326.5018512886338 829.2427588139981,321.5679165764002 832.8794944784677,316.4129473407062 835.5807394277084,314.9262920105127 834.696882319146,306.7902213082349 835.7041904197283,303.77008027249144 839.2773855220745,304.18451247307837 845.1707145869606,302.52651415487367 848.2359350346682,303.59750953442824 855.1852825306869,303.0849608030486 858.3518307885383,299.27080123247754 862.0906958105045,287.79494318382194 864.8732704433354,285.2393833591019 873.0321659973949,281.237421762425 878.0442784551855,276.16499730739804 881.6489930451196,274.57649444510946 884.173148841259,274.74434362034526 886.0279747385138,270.32586254134935 888.4788343831366,266.273947512727 888.5822801961971,263.46542655690246 887.5357427921256,260.6354333469459 889.7138094870563,251.93994707431307 897.4842527247072,242.80469215097798 901.4852699070599,233.70072583119793 898.1536812080456,228.64792812263101 898.3774588468393,226.88367391418706 896.0078366964406,223.22236026192206 897.3267801319382,220.87249144267207 897.3334770037659,203.30461637991834 892.8580490460472,202.51758740144248 892.7994083489853,199.69401061169913 894.8340399552684,196.94016336378638 894.7726528244527,195.1926635821285 891.1339732975839,195.10508689551864 890.8656494790644,193.70429232408424 892.6595868929563,187.09692457863798 892.1540173963572,185.13282047015332 894.7713102430855,182.892478231116 892.2420352183519,180.15243802559837 889.2197487646594,182.22211150619432 887.698554995084,181.07385847942976 889.3272122080416,177.35206239162744 887.8945563211398,173.86178119601686 885.6744021156112,171.70423951392536 880.1602621620207,169.7372520234286 878.210085210738,167.13199726624327 879.8834391243432,165.63593208254292 879.2863068803834,163.7543771442622 875.9393612571662,159.9298529904479 877.5943592430486,158.25035099306842 879.5125281693394,158.41083751945723 876.1132001254637,154.71457399052554 874.1425544548525,156.43589235618754 872.8460332256176,155.32725672733943 873.7010038102084,151.80132782093813 871.3650229946697,150.98355654961824 868.075382032748,151.75197897458145 867.1222121731681,150.78497031944767 867.8905828993237,147.7273427478019 869.9915038082742,144.47442166390726 864.0027408920038,145.1451958194366 862.8681348094506,144.11202650457165 863.6739964022979,138.8513362328464 861.6163682000335,136.9714908757927 861.1393335797668,132.02656873222952 863.8988028742476,130.4908101795886 866.1918097000282,130.5558657731449 866.8584870182983,125.02874650379249 864.2964638487939,122.07920944016894 861.3914800176177,121.50154640344044 859.193023555204,119.5566008389145 854.2622446845996,118.70539879351145 850.5156958960508,115.69434644267892 847.283251219172,112.16640213497999 842.863194805406,111.89898401754056 838.6252981911204,114.03729588770864 835.9831601005999,113.59001093789675 830.122203676968,111.02673201930952 828.7323649878809,109.46669483213952 828.3686871606112,104.7467030076208 830.2110940057538,101.97296072803874 834.6525536455791,105.14092752708336 836.9324481058298,103.79477751737522 836.2172732338381,101.07937746138998 832.3645580348901,97.84610664238983 827.956325959614,99.14570915601973 825.3593413920329,97.64335413434378 820.79126230656,87.39347102686656 819.4693851326409,83.17601459906496 814.1262267533872,79.45457153701022 812.5749614647572,75.79434591949052 816.4882285527746,72.74913244940137 822.5631418448307,76.23169068686718 825.0557660316872,74.02815410446749 821.2929333081522,69.69738551247963 821.4427197747997,66.82181283332568 823.0950422235408,63.0040716025369 821.9351125069077,61.85161981086685 816.8689322967796,61.84770977753908 815.2690402679546,58.78382064158484 812.430527331559,57.44364475531995 809.0097226676567,57.89164686270169 807.0586918857921,55.37255511390515 807.3859158317449,52.97686131701812 806.6006740261705,47.48730805459081 809.5328674852327,41.98586300473971 808.7538412939734,39.72195624854555 804.4940758362183,37.272790190702835 800.8266973547715,36.654136538915964 798.1555989554579,35.05989724352787 795.8745183248828,32.39036318279864 795.7058253014717,27.82775298437309 791.8995820367287,24.2491089699879 788.7008709437573,24.230992920960603 781.5055513039221,22.698815937234258 772.8701882585095,22.737223217549854 769.4739517767807,21.6896626303012 763.3322509475694,18.128519801830066 757.3624372384246,17.983625741060337 755.4508604026106,18.559132434041203 753.7563115662149,20.821717589514492 750.4328686675593,29.661543542834238 753.933711043536,30.48395585510525 756.4968840780235,29.03045281503546 758.1012896516312,29.39322926266277 757.6736287778183,32.235123756153484 752.7152278035261,36.03323628816986 750.7214772686839,35.288854665762415 749.701978919465,38.36879679920503 751.8442819003523,43.97997520602985 751.1688228821678,45.77429909597083 747.8400639631647,47.52799033518545 743.7206224604998,46.63983614350218 742.0863775100303,49.472939146367025 739.6501060134651,51.0933416628103 735.3849251806857,52.401537853926584 731.3370214849189,59.182972393873115 729.3927352794217,59.10597990043459 728.6101104660416,57.33462487960696 725.2328509142785,55.63154095807067 720.6665695147562,61.73475188873101 722.2979668118911,65.55541501083383 721.2222606946034,68.79210277682125 718.3719508334161,70.2131255796229 717.7823471118093,73.45816832526862 721.5856913860652,75.2243562250892 722.9048332395624,77.06072494491832 721.4658886284245,82.08063035907855 717.7085853163915,84.98203178207791 711.6393133720853,84.69182666297934 708.0832940404791,86.36724703521259 697.8395996703284,97.49855168110514 697.1016760780035,105.27510370613811 693.6846343840969,111.25618234605452 691.8553824140445,112.62044693032703 687.5577216216471,111.73172299239616 686.0579386810148,112.22019700355827 682.9487863874377,119.65674130279046 681.7953036669561,120.64715952654035 678.2978806981545,120.4042915580236 675.7582140537141,125.27188219689674 670.7713761666122,129.5377603402584 667.5365931060652,129.31663324590738 661.9271819163348,131.39483022136005 657.922690057044,133.95103565090426 656.1748724312868,134.0210346035634 654.453544767243,131.4656652032778 652.6908804424311,134.67601971035253 647.3355531216474,134.3599377093384 645.2528920511169,135.55363611667372 644.4852066729982,138.73575957533365 644.6943622424524,146.90469155785615 645.8128227467408,147.97162118842016 648.8239057891261,147.13419857945223 650.4063249574508,147.82376523395635 650.018432535067,153.6597478894888 644.4808219318644,155.99594435185725 641.4240680798711,156.5012023834514 635.7988994534479,156.31710411444874 634.2531833367851,159.7621763457413 637.2073387679203,164.392027844744 635.9118281681322,169.15707719302395 636.1971987614543,175.29301294027266 631.0100492846997,178.82088783879146 626.8464901755668,175.8211594832526 624.584815704995,174.99866903772397 619.5639494887021,171.1093774598612 613.1535145998845,172.06590774393942 607.7284376255697,174.07815348739723 606.4403299831376,172.86800822760586 606.7950779874781,170.21817380784546 603.68965119378,169.9761792101491 600.7121204075137,167.82390959045665 597.7162388214311,168.22621620144753 591.1210584632456,163.963868226954 584.3795504373268,163.11696274968426 582.5750438595129,161.33584362434794 583.8380270851458,155.4332976168149 582.9384027659404,152.57645530134175 577.3226872013556,150.91404636999744 575.9962295249435,146.54227963292078 574.0033978518857,143.56355408384184 570.6511907233364,135.86472270791478 569.5148870355055,128.66078176945962 567.3510120935383,128.70978863897562 564.4091453526358,131.644522434495 561.6564616130656,133.1878510479005 553.5021386870443,133.19760508138495 551.0693494161997,134.48007599716925 549.5446183681687,137.553278662136 550.2213674840916,141.23198179787187 549.0397266995512,143.89971049397343 544.9142278960318,144.45829797576062 541.8246924132254,147.0135423964382 535.9373384694867,149.74050174431068 531.4583651062463,153.09297633165056 530.049365958018,152.94412572249064 525.0322838724093,149.4490560614164 522.6938204540206,149.0507548940916 518.4075472477571,150.90876501508149 516.2423323481805,150.9731246459429 514.6956794936536,149.16663135955002 515.0603102606196,144.9021909175359 518.1285613264048,138.64715793073242 522.0610060155177,134.69765690295674 521.5483517660319,130.59995803935612 521.4705582788306,126.08957366242225 525.1643300352986,116.99455064198673 528.5346631181769,113.59535225402612 531.2174298589547,109.05250476191691 535.2027499242862,103.82180559775964 537.3324722367167,96.03829086954681 538.6321637297026,84.71704967515439 537.2865132785605,81.60744237045981 534.0099424090215,78.73240329833868 530.2047810017478,77.36938530496093 529.1776269577351,76.06361062864653 528.6248905120135,71.9619618098751 527.4346685436751,70.21334959877345 526.638160633114,66.13470002048166 522.2710372434217,62.65982550412923 519.683835537804,59.423726385999316 519.0457825699916,55.10224836842235 515.3382052843431,50.266042891308075 515.060705991913,46.64938398330332 516.0913156447956,36.784210252197 515.1708092534002,31.98278137481236 513.2165640459032,28.633805150061107 511.59437849832017,24.001240888974394 512.1271311714872,13.792427749778767 516.4284529604528,5.791008623497191 515.3373405895285,1.9046783547398718 513.9605681026253,0.03508541692235667 511.8864071751541,0.0 506.97290010676846,7.254178651338407 506.69395874513674,11.276453018100597 502.44016038540775,15.076250646013591 501.2701310080848,18.604103630857594 497.65404969815864,20.045093538936612 496.80103349466447,24.33145813597241 493.5543544292917,25.982326087235606 491.9933398017045,23.29173660679203 490.43852509677254,24.457442644411003 485.59201740893633,25.614903803161155 483.23529693528303,21.81660799461224 480.6774274360732,23.435997916912584 470.9556502697387,24.308264396450227 466.63233339501807,26.491661195547863 462.2528830357949,23.534425770686425 460.63181412186265,20.905572586615335 459.17454013309225,20.844831681409573 455.57787538036536,17.38321668332344 453.8325309538557,18.41482179457364 452.12356000777766,21.388857271745565 449.3405417014832,21.297257288415153 447.52835277367103,23.032493090584467 443.85450898666534,22.910529992547026 442.12425004030837,21.542099301095504 439.0045572300285,22.861590391048367 435.97666176301146,28.03072041935127 433.06381688274143,28.695476042069913 430.59004337564147,32.247245189544515 425.96643049011846,31.112265433468906 422.82006151010336,29.241863196676377 421.61018592142807,26.436987907247385 418.49400082699617,22.029873304955345 413.8394820916742,22.68854412543203 410.1920356822313,19.77968986408382 400.375238429461,17.38946288909574 399.0365046692104,20.809814437080036 392.42622183610007,21.472724045283485 389.1413664199212,20.37543248123643 386.03575092890213,21.453231160833866 383.2855399423383,21.25692021875625 381.4706265705259,18.885110462840544 377.37401608963137,19.8825425346688 375.67046219602423,22.79919505843361 375.47603511819386,28.153561784169256 376.24355742968066,32.726865614168446 374.21193093000295,34.151674872003014 369.40449329987905,34.73684641044861 367.1595924582494,36.17410836318379 362.42581156530116,33.828043528550666 359.3365553310697,34.583697751147724 355.6443191263322,33.133958818952465 351.4402767723576,35.482631289205074 348.17274865957353,35.261270515129695 345.6926043724988,37.14955984574351 340.87642030565013,37.24585228509807 339.1247405178637,42.67210745396426 336.54240317820455,43.7515114309673 336.67806545708464,50.2639013747513 333.5472145969684,57.214902607360386 330.94954319904537,59.24767518402723 329.99506753686796,64.74382186294747 333.07707923700104,71.79490047374873 334.5872975913113,71.8522514711982 334.4519640144353,77.44482619090536 335.1306493045365,79.84821455823783 334.22420013913995,82.32946174110089 332.1945317452692,83.91009626369737 327.8525618918189,84.2740948441824 323.5571844366327,87.87858168062508 321.9410448154416,90.69032529350727 321.4982497667518,95.57996198327533 319.674301926815,96.63327015369748 316.8792598577951,102.93093573159399 310.22532275372475,105.40826636233987 307.391007340657,102.43191339086547 305.8651113879937,102.17094438252082 304.8858286454635,104.24713849110549 301.0750213113571,106.27586376672957 300.1370859634504,109.84995971986757 301.3752062918288,111.37996825077812 300.7335588870015,114.88060775380734 298.88201811005064,115.37259264673037 297.335644906112,119.64779590637659 294.1999241955832,122.57679022345712 294.1549507677968,123.87089387524111 291.5264265936686,127.54770637394131 289.0945042433527,129.57687731304657 289.86551444432996,130.36963085257946 288.7316500648113,138.50784378852438 283.86440209248815,142.99892738507356 275.57752494806743,142.03760445404805 275.2983273583632,145.55036857588436 273.5667784367655,146.44084015560327 273.82858058607593,148.75508413993214 271.7341954472385,146.91400723549225 267.5149176317819,150.659055209234 266.04419075552994,149.42334704754842 264.478588342769,150.90652950103174 261.82585108905374,150.8976790450081 258.7015705546274,149.5607816268747 255.66580733309976,152.36265512497482 255.5897103565288,154.36527158828653 253.24358107013805,156.09239615897536 248.64473079473788,155.49491495492794 245.36184504178718,160.16617442542326 249.56765011623406,167.20864933220605 248.9836129885595,170.6320579807657 250.1361292085279,173.06533935228424 249.20460019819654,178.00669594753083 249.4171463145099,182.4102861363159 252.6916661429182,187.949226108458 250.68556323730417,190.56167176682334 252.19547674281506,192.9778825840648 250.03098115912093,194.6849590564242 250.179137529621,199.2175649513465 251.67773331473919,201.32103971196466 250.58953440252364,202.7544897864865 251.4458771439637,204.90453501135244 249.51527112515745,206.59058584972547 246.87474797403306,215.46669366933463 248.58347620110305,218.46140241102523 248.3570381956619,220.72963689764015 245.40350514424165,224.02730770694177 246.31217954436974,226.85256796558645 241.48935924479,231.75618489683598 238.09105625933768,233.05181078362773 235.36093286276636,230.90185414354573 232.9300124621971,230.40928941968843 225.59920424121964,230.99384688230066 223.50584591789544,229.39583943884816 220.38030209454837,233.59974867522521 220.35547210943002,234.8243287711132 216.72773060008493,238.4056716276741 215.6330844452296,241.40587436914439 214.62168280546555,240.77825770845106 210.50922861115515,243.11985107406133 207.73092595456092,247.5651941986374 201.13895978019832,251.7150069335156 199.91692598482135,254.48199553672157 197.771739687302,254.631784379353 193.30454628263107,260.29114075564837 190.50009425758356,262.7536040075978 191.42259074278485,263.97028554957683 191.18104129475844,268.3987095270111 194.19970406655733,270.8293511391835 194.2817780097113,272.89733501909666 192.1822303369699,280.1779164628749 193.3196160628646,283.14518222723825 192.99244280200006,286.66883897448713 195.96809529593102,289.57883767757596 196.26118737796284,291.07315698132413 200.42969680635343,296.1494162521876 201.51719938005346,299.1155406670447 200.58655418261276,301.64497869251477 202.76635533642084,303.5632947281355 199.9403868683828,314.4295975311725 196.62313986145068,317.5646482709692 195.8652915089415,322.56591685594026 197.48720127355395,326.8330439068725 197.75110480976036,330.4057756767752 193.8230145389192,335.53839804244 193.20050386332724,340.7764837028477 193.3366542736704,345.23397911531924 194.95399798248167,349.33696295390007 194.34408257281652,353.0896584795504 192.81695673658257,355.7068224260596 194.41397787065299,356.6686450271483 194.22860790799263,360.5820625094357 196.43937358365338,361.19159160009383 197.18365673273573,363.7088229925997 201.40613598234742,364.3950984551574 203.7372565650054,368.2802790595641 208.8498853933227,370.0168947533451 212.81167874860003,372.6728547256257 216.25788719031914,373.37222043113877 219.28951116376075,377.8598009228259 218.33860168690808,379.65404424829774 218.82354254628214,386.33555365671396 216.82396891741686,391.92093069170244 215.3753830398814,393.57261948017685 211.2568702195888,394.1676033815926 208.99226605886233,396.08249664702487 206.18349347366964,395.9274654948989 203.84229461454476,399.44079840942413 205.09820990872123,402.38194414194516 203.39677992268076,404.6188894187262 196.62720210542454,404.83056975164936 192.30356226424553,400.08775348289987 184.56865928130173,396.59652731786673 182.65696340836033,396.9012061627085 180.89979896571185,398.90396446326565 176.99669592446966,400.12164031831685 174.79402828785206,402.99011036740535 175.22219752817858,405.130905594189 173.8861404334857,407.4050161402995 167.16539412730143,408.6963592944255 166.87655736573058,415.3240814772138 165.66806870088945,417.4170388864035 165.70134579995798,420.09345562213076 162.96852359210942,423.85414807750215 159.62294557546485,425.1620218277049 160.45313937872444,428.55722462346966 157.94017953650507,429.0564118369394 156.42022928048513,430.9087929985058 157.83823231985193,439.66625610342015 151.7489681998247,441.5496380701549 149.9049406669187,443.27249917253533 146.47567386820234,443.1881066435242 143.19871545826734,448.9255060672776 138.06792780293316,451.56845917917593 134.9748184959475,451.87276410203805 134.08727560583958,454.4399092273694 131.97489845317378,456.5070107352847 129.1044383730651,457.2165334333154 129.95749453110443,464.51785079825135 132.30507359125232,464.51489186746016 133.58122994154925,468.7157358992303 132.30504035512882,470.56787447921516 131.26493351389104,478.1288809701975" /><circle cx="143.15976817956061" cy="554.4711662914049" fill="rgb(100%,100%,100%)" r="16" stroke="grey" stroke-width="8" /></svg>