<?xml version="1.0" encoding="utf-8" ?>
<svg baseProfile="full" height="1024" version="1.1" width="1024" xmlns="http://www.w3.org/2000/svg" xmlns:ev="http://www.w3.org/2001/xml-events" xmlns:xlink="http://www.w3.org/1999/xlink"><defs /><polygon fill="black" points="142.35241845058027,606.7459513199025 156.1580092438465,630.3069737118143 168.6550669843367,649.1747650926504 179.6467081569374,664.7084671473449 190.9466603644935,714.0505469420305 200.0808634091318,757.3152466117521 213.81102167277422,836.5331418338371 222.33305053264323,854.1970253956712 239.42004263732787,877.3514557887102 246.4274895902775,886.1787856572796 254.19084003657952,891.4367879993994 261.96321406645126,890.7502620449309 265.5130367349544,890.0461120767682 273.1221578877308,884.4267476983673 278.87054754055066,882.3004845916356 283.900137844194,882.200213184898 285.30205748384844,885.1767703460957 295.71548566426134,891.7095637506452 300.7913332344383,897.8194278822081 304.97513073162304,901.4472638708024 325.6779187976386,908.1390056271389 331.9070804239018,910.948684603874 340.7854684123053,914.6148597746712 359.03709066117744,926.3325846002817 380.9451461491813,937.8074042052535 390.5251357850824,946.655547104618 394.45316849319454,943.9288938365002 408.291037070478,955.1350943785578 412.9495550407902,960.3666054270928 415.5883929358286,957.5552649293032 419.9987859849176,954.8786828311274 423.6858831378005,954.4320941761795 425.9986969929147,956.6436857369366 430.1474583885822,953.5492635943729 440.86206095119746,939.9695641362339 443.9594965507771,942.5165570356471 445.6980397834138,939.8500618195551 449.04444839309235,941.9517641106954 451.0193467125622,944.1595631431527 452.92373259719346,944.2779085035678 451.02417686502844,938.1318028361954 443.830019653356,928.9403991206316 446.4022762192779,927.7901193090858 454.38596410313295,938.0137138112644 461.33246173835295,944.9890711323028 464.34645403844013,944.196384055434 467.0660116134301,945.4612057259064 470.44322839007265,948.3795589197215 475.1244368655398,950.2119583576881 479.89734794514754,954.836015084046 487.3825753214268,958.7691116384655 493.85817966086773,956.849814885088 500.96932443645835,954.1811687481256 507.80483329515806,953.0334418109667 518.3303578257907,952.3585801344607 515.0188153897946,946.8960259284928 513.2963219959672,933.5468492277498 519.4975442917942,921.9499589674514 526.6121593247905,913.4737147749837 528.1003195877154,906.8932838626654 528.0026664311355,900.3191947735131 525.9107858492775,890.9701564695652 539.9809811167354,886.6888449856497 560.6849367737799,864.4823989477094 573.141947110374,847.43681694565 574.2272387745504,844.0510079466516 588.3919431640954,819.6378566746151 597.8110403203276,801.3635856927259 604.5202082438484,784.6096065443267 609.378633237,765.1188862535548 616.7028463951234,756.582827016279 627.03752857217,751.7233555252667 640.4512325760164,752.9395312715735 656.5928984643668,764.2111787923828 666.9511819332765,778.5385798557562 675.184400614716,794.0682556764302 683.4005226916494,804.4331944651394 690.4268820991642,807.7729006151213 701.0747867423619,804.7306778591105 711.1536846815666,792.5285018161711 721.2203027520682,779.569082292968 729.0581018532349,772.548508664479 738.5972878654503,768.5815624096911 755.5107396798747,768.0995245280726 768.1005575703491,772.8746038283423 782.7516139189804,775.3746322044686 795.3436492150587,774.438928896216 813.6634975099346,770.97573297796 834.7076373773428,766.3562342991701 856.1590604926693,759.9166309121256 856.1551728037591,755.7782795219631 855.1621895426216,747.2704255367483 853.6420565568644,745.4990058535132 855.0029618634557,741.0351950857294 856.4031907492522,737.7207950964147 858.8612823858432,733.3429473082524 860.5959684247248,731.8472644423508 864.6786213869395,729.4599484216894 875.4072456225107,724.4726519378713 877.7664037208797,723.1132914495512 883.8918033332294,718.7146126897388 885.9454684803981,716.5426582762757 889.1393353620856,712.299199948283 892.247860011218,709.7262095889389 894.8260234724032,709.2724070795371 900.1776057877677,705.0778366973541 903.7310381358718,703.5645727418237 910.0507525183257,700.3840949601139 925.6419658635115,694.6756164351793 931.5369358112418,691.7309591064216 933.8439824818697,690.9628563680399 939.777657888166,680.2824567775834 950.5477449323253,668.5380420423093 946.1148824753627,664.2523883044772 940.6166033086203,656.0287302460496 936.0303749713023,642.7829370790498 930.1137956863397,627.4761651153253 928.0306681813605,614.9102680199373 926.715849768439,610.5001748925715 930.2375937679618,607.7280164726211 936.6378646798153,610.3705453593595 944.8365797055937,608.5674916955624 953.0054885593132,604.9062603812404 957.3977123745382,603.367483944679 961.7358770869643,601.1125150409731 967.2459024557593,598.6436612332469 970.6907611361669,603.1944203712271 974.8842762220052,605.1805780926181 978.4869984733264,601.0156460651176 986.6524108745919,597.1615622406167 988.7088604711679,596.7240556721988 996.8396773805827,591.229769323518 1011.7836082314574,574.9273138547396 1015.7914085147057,571.1884911300709 1020.072573980453,567.915556973406 1023.5713927089546,562.4755036088542 1024.0,560.5383408865339 1017.142256111992,558.0509273099944 1009.3243887076384,554.2251988304101 1007.3196531269573,552.9124829100185 1002.0157486809877,545.3719930940899 998.5676641160112,541.9372395544044 991.0597985528834,535.8691089351976 986.4981386012162,532.4493571873841 980.1863971376529,528.1571747218018 975.9692033938652,525.8101584434968 972.876647059482,524.7843922336294 970.1239897110803,524.5590591499843 966.8741422720701,525.1590880678209 962.0732075796793,526.6845595643904 958.8573459566411,528.0784187035599 955.9414541870219,527.9531172523768 945.8521558041933,522.65696594272 941.2822802092821,523.1718026372962 927.6015053221145,526.5252398424677 919.0736018897212,528.0838484404574 914.7160298971583,528.4114285414524 914.9593778277352,536.6759920892318 909.2714517642345,538.782775448838 905.5512995245709,536.9032125043296 897.7232514668227,536.8441184253109 895.7938937505605,535.7247076201093 894.7280098711531,532.8937297374607 891.935868319162,533.3596588072285 885.1748806184486,535.7010850781803 879.8303292751049,536.8326081819343 876.5030448413485,538.4282765202613 870.8826649923732,539.7734001238566 860.8437499428467,529.1801141978312 853.1092348580626,524.7536484571847 837.5145849083224,520.7204315905046 823.2253439750848,516.6689982492678 813.1263084262977,511.27230190674686 806.8881935361302,505.0692489973504 803.2324108231634,493.49136128082773 802.3170318988028,480.7004377046248 799.459068294798,445.53573346858605 788.741209211706,446.1537227652809 783.8742651776163,443.24716250845813 783.1678512856896,439.88266817887165 781.4235548441218,437.454984756705 776.3217607231888,433.28440018976335 773.0422482267392,423.42122439479385 765.0374988823573,427.03626122452124 763.1672307177431,421.1173758915305 766.5440026893498,420.18431628135704 763.5319887583001,413.6522889731907 776.687720971816,403.0996848560295 771.0100695328854,392.1411279806822 767.7955737776246,383.186050156369 774.0647347242376,380.29773085768386 776.2202389860648,377.76324485148496 774.8634970451362,372.5677028670076 724.8342433237825,335.1544021095085 715.7841815183841,331.04726625075864 710.8447013581874,322.1214472625761 710.7198391139037,314.0503171510122 711.6168225329617,306.5971724970195 714.8304017457218,303.7655866851974 719.3114442091533,303.6875713410599 724.925311321632,304.185588122279 730.6138773791844,303.5036636375786 734.2535882018836,302.45771811004784 734.3900637939772,296.70547248270304 730.2996565300695,287.2017161181203 729.4569880525642,275.70881843065683 731.3577381328201,267.2333471556574 729.1624631502684,250.75984551205283 727.0325384947871,238.48679031539598 723.6449694165126,228.18629628156384 727.439171691817,224.6486060194792 730.4758355104605,222.28128074598305 734.4199601627658,220.5336187378673 737.3208774998777,221.22553206097052 737.6555162601702,223.7813638745597 740.2315908566967,224.59303047921867 743.3660156953279,221.34362637314075 744.1715533454825,217.97561966973774 750.5521238917797,215.92882993564456 750.215654444823,214.62344046542194 765.3115057193007,208.49121635415906 760.31052577533,197.49919891604395 751.785901525061,183.66842692151295 747.1459069236616,177.5575989123256 740.846324618079,172.31863354082589 737.0077431164,165.80231663372456 733.0246996580555,162.28232148248537 729.9081157542572,160.1626895162185 723.6854381595269,157.78733569426254 720.4860969601572,155.63450870793565 706.5451709470218,151.35401520520452 701.661328078186,148.46143445824646 697.1361285041168,142.3110646047163 694.2265791203766,143.5921558258799 689.8268046372049,144.16782630646924 684.9400948310254,150.3576682500477 683.7454232512057,151.07588335845594 681.6543717868644,149.8147624324847 682.9118212187011,138.71674172880273 681.4953193795844,136.24643436532494 673.4991882701729,129.3837036838812 664.6426759335656,123.71278174652991 656.9384067349217,120.42148913943095 655.1120862504667,119.26228769537454 640.734603098141,106.28817154904561 635.4015528756713,97.92703782631554 634.1042718103308,89.868205995729 634.6871970778286,84.59103120909401 628.851113493698,85.48635523548933 624.2694384106668,85.5852027695878 622.1951066418578,81.38975922406723 616.8977925381269,82.61219714275319 614.0209253475404,80.10667338163523 610.17730030585,73.06465242438958 604.9662418141688,75.23486963030768 600.0976227326242,77.92460103441931 594.6342951800254,73.12971294990393 588.1589294287465,76.15062393500011 586.5297957925329,76.40483943439006 584.7935430767377,68.22070417522173 583.4482408869828,68.97819493129145 580.8865902665539,64.30533306825168 578.8077254904767,59.249438651890955 580.1357251614858,58.578258480004024 581.8371601182542,63.08353123017548 583.6797762540144,62.7285770342113 580.5390313455407,54.8927242577538 577.4126641054467,55.3331378311143 576.364018320363,51.497604703838874 578.8003612826876,49.33266056143452 575.767032234771,47.15620874617548 570.892250385397,45.9282648971913 571.4152536621187,44.17669758058037 562.952541386467,41.30538581822884 562.8493711003175,37.828307363553904 563.6413955631745,32.28143778147842 562.1267361289085,30.618140749052486 560.6590774407632,26.625471863148732 560.5023011131562,23.63959963175705 561.0228481249369,20.32513100640756 560.4586055276845,18.131214484235443 559.8763992681929,12.651068275239936 558.7496078549739,10.474283298482533 556.5511645606833,9.406370840495242 554.8940283021043,7.793967616425334 552.1410459494228,7.270712542469482 549.9503002667246,6.182575134232934 540.0484782074495,4.634619979943523 527.8719477648202,10.499534948713972 508.8699518614302,8.267741115061881 501.8062604739632,0.0 492.92978239748857,3.4196415746890807 486.38844117805036,6.247759090411591 480.9430498637752,9.050759125322202 479.8974280658167,10.138937614607585 472.4848950399253,12.59555290585763 466.2293107418186,17.33467886410108 462.7976957825994,23.279053724964456 460.9681765496781,31.984075735417832 460.6643010516037,34.93089312114864 458.63423538716046,35.70674889506563 458.8861553100563,38.894774980905595 452.80099289647825,41.388525710941394 451.0813091714408,44.471100352025246 448.29759202965437,44.56124969937821 446.16815089859585,46.87273819350878 445.41114696614244,50.244949576338854 443.18544185037854,49.475055573558166 443.0734590034505,48.19198349519047 440.24845572217777,48.18518365469788 439.26457388468,54.87868573750916 429.16315538391297,54.94245026737508 427.47933243744154,52.217269094098015 426.8415358646171,48.41267348373981 417.80377155876573,41.035940381155456 414.6917831458378,45.31753894522342 412.6494717076156,49.94463108067623 411.88088987034064,60.10187254530831 411.4736188079884,70.63803850910165 408.590440070607,74.43440297876339 404.72527736558,74.48282472300502 399.23707393908285,71.95700958603686 390.5094245761727,66.88355647436492 380.21868668839755,64.5543069691173 369.14256263443025,62.97330049466086 361.95725507077987,63.64349888133836 356.1478674183081,66.17175012693804 346.7781069319838,72.34506401735143 337.82477863130634,79.23756428799584 333.1122707987324,85.64081851087997 325.2411798846645,93.95676086934918 319.8647385716088,97.63662509053677 314.9711145240918,98.73141290221645 296.312192553647,101.25568235801347 275.4262498151671,105.86719249423913 267.07025358258284,106.05632595863597 256.26374760577767,103.49032720150808 248.08506124144617,95.30034471297597 242.72842110345422,93.36409854234489 233.76772069134157,93.20562917380767 206.12431769857002,93.51406353977995 182.36701083768182,85.68766061756423 175.19867664339787,84.5819798587944 156.1036238370236,86.07913048078365 137.2108685399948,87.99401024981 125.96681066612177,88.1805977510719 125.26774512904827,92.85580326804643 119.86323741198925,91.04477058482951 116.49489738078587,94.52146241957928 113.87170345470213,100.40210559887726 110.62886383120937,98.43451105922884 109.09659642776519,98.98355622170732 106.78590984198722,103.10774303841231 109.70316928283492,105.14587576396696 108.19725077736514,109.86098208130034 106.6166491255099,110.75478479906053 106.03640305404761,113.69344669572422 106.72425507912837,118.4553039045237 110.05006582361852,118.37154073805243 110.19889055505834,120.84982239549277 111.24977086350458,123.08609328523903 110.2944634834196,124.07725823066835 108.79317661042556,122.48099181631267 108.55535164229534,125.22274921466578 111.25902994504449,128.87538766198838 112.39817664683277,127.73827683836646 111.92922142879951,125.72326783342305 113.11095237520696,125.54329394822526 113.73299077359697,126.9224492431714 114.2017431659547,131.19989551195374 112.05856202365688,131.3646422360232 112.4805684111186,133.62977774116484 112.19919454643227,136.2947249495926 109.78583418859834,137.26899292835333 109.49025789903635,141.00943470214634 112.95317043984413,140.46208584765463 116.87019867665784,144.66262020229442 118.7092350104991,145.52866663191037 121.05856209524609,145.66782353585256 122.79677608773397,144.45347612161208 126.01940944294726,143.62263053660706 126.44964996141478,144.38508410440636 125.98163883300573,148.88498242085973 126.34521698069152,153.03772940839247 128.79059897822273,154.9103227465813 128.95259640482044,158.32035111108837 128.5364276872642,160.0782150019461 130.53196035674583,161.87108354141924 132.97782167877992,161.50128020866703 134.46402447493114,164.08696650902834 133.72307265813436,165.218548932815 134.25946978088606,167.10929474404497 141.281957529644,170.59504767635372 142.27028722255744,170.62704082364212 145.55576788141207,168.96359645032499 145.71078827759408,166.9570421552795 144.93454837551062,164.0660581984746 147.54728155724567,162.53248368598895 148.53990172981003,162.68196592498703 149.49036858787773,164.93104289169924 148.85010336400086,168.1200995108586 149.33463939686828,169.90546398101083 148.24875572781295,173.3215840145358 151.04880773211602,175.65933728387586 150.3108423547601,177.56800088182774 148.49130899996592,179.6151787755747 145.7621855371161,180.81202091483897 145.6205748821505,182.26209251868465 142.7600534793561,182.23634215726406 143.71440354587858,187.59659892910997 145.34293422732569,190.09423201698996 153.2161013029833,211.3434224549361 152.1576821485963,213.13328768045778 143.0358698452977,216.9978251663439 142.58579907610982,219.18056227638363 140.97610740944876,220.11215147874918 134.10455946914453,220.8221846176308 131.73173240111683,221.8819970078631 131.71072404554067,218.29795129494983 126.58074218390152,220.09315508487146 126.38984215705743,221.06503193862738 127.58005808902604,225.07429436353857 125.50662675261701,225.7054876466682 121.96070524276891,224.74001708318178 117.1257404317368,222.75737851045187 114.77907627791744,222.27115590628227 112.22447109287468,219.82648142755113 106.91038036188095,221.56663837928602 103.58262907830856,223.0983840747823 104.44479336530794,225.69287909799482 102.82753855119441,227.61367630093412 100.67250325661146,227.53761004832722 97.75914315617693,230.03272289820495 97.70100959496183,232.5339465816669 96.63665642654614,236.0183742779476 94.53572057656177,237.73366994751348 90.6504234114455,239.48523487398415 89.89695509842673,240.31006312290094 90.13651622928059,247.22586738705365 90.80887262559597,252.2202044300759 101.75680751787472,251.7983266729185 102.53016682977275,252.401187779388 112.19852492855459,256.0227462996696 120.08232866247768,262.69992676747495 114.04019297465616,268.6511184613929 114.96962240333539,269.5844058182819 112.55608126224338,272.1299757892506 109.94924933298279,274.15061224318913 112.23437242652982,276.8686264796902 115.55205820010457,277.62808597846765 118.37176494881166,275.44386159515943 120.89666459687308,274.975605220219 122.38598484565011,277.00502569731725 121.68952703798247,278.29937949377825 124.94696400993125,282.15646002807557 120.64636909088199,285.580088764862 123.86177108465326,288.51731498119807 123.12315112471673,291.92844148060146 126.41006109460238,293.8954522700674 125.57792224802152,298.7874991442807 123.76846565367315,301.4193061236133 119.83458080773953,301.2534622363744 118.95536766175802,304.1131181324952 120.78225195886975,307.6719260213455 118.12861817178533,309.97139186584525 114.79463408029194,311.11040776827804 112.94235591065916,314.4911520397135 110.4573004775269,317.07495071724395 109.69355989896293,318.69709669483416 109.29646965662991,321.84821462639115 107.32260151005978,322.22840406287776 101.69395314876986,322.0859577968786 100.08677829903894,322.47247811212833 97.09766969831149,329.3213279538779 98.8120065690449,330.7168775730362 102.98472284179766,336.3822482003076 100.76409585542129,338.1278615550848 99.24280662451766,341.830798620406 102.94075249295413,343.5342462603179 102.01082279850311,346.3945436987866 103.59863305695166,347.4735539403349 105.5800767647022,347.43738283632354 106.88041697283121,349.24010818308045 105.74221336839369,351.8337748195845 108.13186066419263,352.491567231599 107.65306040274648,354.7405687854548 105.90730178291581,354.1512337464459 103.07071809555804,358.03592468078887 104.65007617498053,361.36885598867696 103.57071806904202,362.2756406856271 96.05345661186855,365.26474694498927 92.33680397355846,364.5220672297062 89.79702809049932,363.1952798391269 87.27496214214307,361.0366792784282 85.31259394607623,363.2201856054378 81.21967917492098,363.31417051957624 75.3812431642884,365.7147277899096 74.19305701771685,365.4816990279247 72.25971092292981,363.04532817001495 67.81039048200802,365.4179565383155 63.890346997185446,366.2950390789774 60.443457342741716,366.6121443935465 59.00045789121538,365.62559104649665 59.0300778216625,363.34272928062137 54.152121473786245,363.7282635640521 51.036571905858004,362.83067918640404 45.69431910435,362.6834322775495 45.090502722793275,367.07311826657065 41.31327968918352,368.67918874470377 41.52750611188478,370.9271457915263 37.74180511453757,371.91967228730095 35.6031471919749,373.09026500380025 32.64037711521372,370.74240454037886 29.770686592111712,369.17317614826754 25.29908676764666,365.676069110752 22.45254086916463,365.0154347479945 19.122936813681363,363.61300907676457 14.80337348018364,362.86639351579777 15.222316425873997,361.2520647827864 13.572304237134139,360.85313264790295 11.992012753535258,361.86112048435973 10.38616625153516,364.6930985721616 14.550996838897804,366.752270240793 20.796280233644463,367.84815137637383 21.37896810720668,370.237299116331 20.10632753992023,374.894141687942 19.701362688402355,378.88820544145483 17.67599403960115,380.1890399633361 16.69593111475622,383.12717013387055 15.401428084626998,384.83375953486325 12.939701442313966,385.50971138126886 11.19041416814749,388.35224432886173 7.473608733123695,388.37434425010986 6.680112425249729,390.19448678830156 3.109869221784943,394.9227518872211 1.7202711282362373,397.84634466566126 2.80893259789165,399.7411577396929 2.427303472152919,400.9821960481979 0.0,402.82746791843044 2.7579209590117384,406.5202946694209 6.411126286587037,407.8611204648122 6.856109897773425,409.7044958392339 3.750431302320561,414.999877789631 4.379381732584734,416.8894907843876 6.2325316288913815,415.02336100566697 7.125776055760688,416.0290839119465 7.164511871992455,418.8672434582419 6.560832307070099,421.7514451228225 10.663036042748208,422.29759241323063 11.682142293990426,424.3453088567959 13.611703953431395,426.5153513982807 16.01660137919355,431.3828156135179 20.55717682655113,430.36016178794455 22.416022706221007,433.9590850596302 21.68036346135813,437.67952616469233 22.58100276205733,439.41343169958293 22.845790333894747,443.811220083865 20.88200382333181,445.1714098117644 21.262716679562065,447.5547196559112 22.471533650727668,450.05860078261554 25.001243418599554,450.43688796887295 28.14439907030166,453.30710682937087 30.863633079083137,454.1329408113337 34.89908034714933,453.4640151634729 36.99922177111486,454.68252407327924 38.15690132556676,456.35552917523745 39.28590931170716,460.58662582803623 38.51190139100015,463.6366638902352 41.204586746280036,464.069967711879 43.39297907703824,463.581146728754 44.07451328534353,465.60476114862007 43.96535911328104,468.10661503888696 42.93041184903659,468.6025435289641 42.44492515432812,471.9554381747448 43.57717896585711,475.4495669551956 46.30418140035758,476.24652963988154 45.78936041188302,479.5912297158001 47.628759784636436,480.38890427974025 49.934306935024935,479.52281838850763 49.22245814086147,481.87238379937867 47.28968724738277,483.95198030448284 51.289736326799435,485.13286029282466 55.43801109577085,487.4270754283008 60.98643909814397,489.1055583874746 62.71721490654466,487.2207880351652 65.22766776465974,486.17974736528424 68.64897962919437,489.1347463454579 69.66849835689311,487.51781424124664 71.4633880979435,487.9719111237908 72.97018492132877,489.889480453383 72.47250863890666,496.00389956506257 73.45458655653918,496.87350684750294 77.20966645349331,497.2345783893037 78.4787395168065,503.2959369322195 79.9467586349791,503.16956687148485 85.21587540747846,500.76841341409056 86.36936875840959,502.11447794774546 89.32122125463984,501.4686186024498 91.8387567129726,498.82443169736723 94.812630439213,500.3459844981967 95.19835928441033,501.7141301298648 97.82135548975043,503.6132870526061 103.24785331990323,502.40828028373585 105.30862089471972,504.3926108203955 104.475727212619,506.23644731460087 100.58035860575195,507.46038317317726 100.87572296076041,508.8269107693489 102.86465176900737,510.03805000279004 105.35025838386989,512.5641664972502 101.09636633976557,518.0311103754063 102.39280862691653,518.7529262259447 100.95247193283737,520.8804443000743 102.25740581759997,521.4473034077316 119.55418454860008,537.6087306256908 124.0385166647737,539.149232578795 133.53863055597984,538.9681506825082 144.78215351102455,543.7116828172518 147.2685763013419,543.2181505301548 148.96826662553198,545.7722205364621 149.38661338234124,549.2675160056331 158.29673344425373,561.7940184717218 155.15527927657607,563.5469804190975 153.75066485259484,565.5623687943722 154.33198343879621,569.112731072348 153.63809042973963,570.6278423606681 151.09578665542256,570.7494131166306 144.92762052015541,587.8222608480633 143.93942187824445,601.2097469195897 142.35241845058027,606.7459513199025" /><circle cx="729.6160161419687" cy="712.4216234466139" fill="rgb(100%,100%,100%)" r="16" stroke="grey" stroke-width="8" /></svg>