<?xml version="1.0" encoding="utf-8" ?>
<svg baseProfile="full" height="1024" version="1.1" width="1024" xmlns="http://www.w3.org/2000/svg" xmlns:ev="http://www.w3.org/2001/xml-events" xmlns:xlink="http://www.w3.org/1999/xlink"><defs /><polygon fill="black" points="154.428754143974,996.459455679218 155.91845203355524,995.266633073723 157.07397418087288,993.7762923209096 160.06137595017142,991.9290900613859 159.615490535853,993.9845185503278 157.68956446478924,996.6745020415141 157.05119781223274,998.3293235957769 164.15262394887972,999.5423708214437 168.4845549105669,1005.1426831367804 174.0627473048615,1010.8148746966394 180.0891345475465,1015.6449633429157 181.33483889385298,1018.6762963440625 184.22639033845383,1019.4149552906695 185.84560797823139,1019.1524630986827 190.08377244663274,1015.3662399420598 192.51810217350936,1015.8695325530773 195.62833031270947,1015.6630280516591 196.8645076387924,1016.4310576761212 201.0752084845824,1022.5616546326619 202.92986009606648,1024.0 205.73024955975976,1023.6852839654628 207.1942595601219,1021.6097850356425 212.8950639752555,1002.0778515065921 214.5449763414818,998.9669984793624 217.32772101981075,997.6999469021841 222.9118213654971,1000.7516419479458 225.61846437951777,997.5907223807694 229.31517903447093,991.7736038380631 234.79437249941705,987.8921320701437 233.49068121739688,982.3294701040613 231.68385048317626,978.4487449235318 228.44754639032962,972.8107699013208 228.99359561477297,970.5699122874976 231.68690356072426,968.4020556230741 239.40450927232519,964.6014010523046 245.58331137420907,959.7250866290207 245.80915487406514,957.4396884928175 247.637518905795,954.628547220711 249.57730411977312,949.454554870495 247.8847060611739,947.9440632903443 247.79146896941685,945.5849783166285 246.67950473654506,943.2120421591052 246.74899220285667,941.4470788115484 249.64524370317457,934.0359713826329 251.48897909972385,932.0860414162178 255.4405441263014,930.2905725370767 260.265800105129,933.4455792215583 265.3531476717232,939.2517419071678 268.86936434453224,941.0513910979082 270.2745508722478,942.6075165962593 278.91534403999356,945.4580521551021 283.1117316914983,945.7455905420394 283.5441862985669,943.5893235357764 283.5455879996696,935.906470093308 283.0472972401838,932.8441771664641 283.9076860705726,930.4771673054029 285.23651813999265,929.5601642267942 284.5624966935456,923.7038253817464 282.709945744733,920.707156184435 280.2627881904853,917.7944762877788 277.6435771492698,911.6706463822089 275.69725198465187,910.8239105221331 275.3859714667328,908.4493596653725 276.2212388032025,904.724765024648 278.1935633744965,901.9315994527602 284.8260984070079,900.7753216585874 287.7291080792099,898.9074900673111 292.69810755039816,893.3131225506787 294.6587506826148,892.687692207162 296.3216795259568,893.2052012606088 299.0147551998578,896.6095583955005 301.60826777135645,896.9068645348821 303.1471639039675,895.7732034244973 304.2912504292502,893.1881864708748 302.84625581686674,872.9896118778735 302.11164623004254,872.131983314284 294.2048223987092,867.7505995188942 292.72351675882084,865.3767228601893 292.3927105657381,859.1927263211783 293.9420121190297,856.9150173821818 296.80223503705326,853.9232854516275 298.606173995302,850.446553713179 300.2821909656357,848.9257763924154 305.1218017999222,838.6845168744168 307.9204492521822,836.3021577346283 314.1365931231535,833.8151587426031 316.4111507222753,836.3865222689732 317.55031959181395,839.0700302953477 319.4023255681262,840.4128604832115 322.1073598792118,840.6151768270443 324.27374728574057,840.0876677551613 325.20034200890524,838.6423431784306 325.40943656884514,836.0649511698257 327.58510185883074,822.4313768686086 327.99278739626465,819.0194531476101 330.9838625898363,817.0597412516848 333.0219778798505,818.4589264718196 336.3136214464487,823.1267030533033 340.0731781279277,824.4040266930926 341.99644008456943,825.6835799849507 343.72517010407864,828.5991557321536 344.1273893531862,830.8697020535735 342.1709210496636,835.9320067710081 343.2689264354849,838.1082533582669 345.9921681437103,839.3434148881068 347.34160114126684,840.67597589969 347.5352788314267,842.7395281375425 346.4113529504253,846.2543387660792 346.6147321162456,847.8017126575235 349.1028807419799,852.3433266771153 352.1895967255826,853.7840685787714 358.2919865250519,854.4583291349888 360.7966429835329,857.1366870019365 360.6507252871929,861.3226087346386 361.68778652034183,864.0791882834623 365.52725768088095,867.218852870147 367.7716828132196,870.2558116831425 367.95777709711825,871.3962191611225 366.3484922414141,874.7922530675198 367.69941817880493,877.7845903214733 369.9736604077612,877.9959513497324 376.1677980571119,874.3808067000627 378.84688120152373,874.2792320132359 384.1163176266146,877.5825594057145 390.2074825483561,879.8573976423278 392.7818817227962,880.1729968122768 395.57753902112614,879.7540995034094 408.57405028022765,873.2106272403609 411.1565368024372,871.3562510529858 411.9840305221147,869.4968784471849 410.63894126624695,865.266663436748 411.5618787868735,862.5843717264121 413.83827456815476,860.8283528786161 419.1400671689023,859.9660929793932 422.4703621216185,859.0592246870121 428.50679866439657,856.3795501673766 432.0304455993232,852.7539442109173 434.290893180343,848.1306133074852 435.9867756072013,842.4148364155842 436.55779131507364,837.0033618190521 435.5587479154841,831.5527853703763 435.1420929023769,826.5468043458807 436.6584837997829,818.5043038025784 430.83133352840144,812.9159761085963 428.78597007270537,809.6228701228131 429.105860568234,804.9676187663606 434.777110190966,796.2582096631112 439.49940762457453,789.5224800801826 443.4468465434649,781.9806785399574 446.1106681271279,773.3815996927592 448.6909859923754,771.5280837658227 450.2323529762337,769.5748700286481 452.0824675882144,761.3161767153049 452.19167904777413,754.9140280504769 454.67110715386036,750.5731117667403 457.879868258721,748.2916016210484 463.21207590667586,741.9193676118373 465.0736705383273,738.5218952105645 465.32612624888003,732.077902542052 467.2467119165444,725.9757449896515 469.5220909695558,723.8146398822937 471.6877494911039,722.7899656886027 474.9770086053237,723.625343213267 479.4093700437425,724.1442215714376 485.79092087504415,722.6216926766645 490.8260203473058,722.034499052431 498.3298555133518,722.2286359766517 503.3349330999293,722.6444947327627 507.03291191581854,723.3801330728077 511.992201874076,725.1143208236654 517.4442441833683,727.4031667847296 524.8321962133265,722.3145859286384 529.3328710704426,721.6557544881 533.4493991756738,717.2104812823734 536.095096882681,715.6574734033193 538.0266303644489,713.7456460591198 538.6680791689664,710.9998631618134 538.8610661257462,707.3414195681243 540.0533556558529,702.945433879142 540.2365293495661,696.8172843503628 538.0906002164879,688.6218655299253 543.4441383410876,688.0166465664895 550.2489028238482,685.2363518726918 552.3235627069682,682.8669955445328 553.561017134556,679.148264673917 553.1411672270814,677.1818609627618 549.5333230132605,672.2262635593702 549.5401203317972,666.5479157072225 550.976814790021,664.0795703182314 554.5550046737366,661.9943424112527 557.662519464506,662.4761937679211 559.2519540518906,663.4758463509833 563.7747937311057,669.0210722517729 567.8815994627331,672.2362176714066 569.9448755351822,673.3380412426804 572.483171042297,676.0983636827827 574.401016872337,682.04076342446 581.0131601891726,692.3916947370101 584.4948484981041,695.5381661289487 587.5901152437574,693.9668315130037 591.2478288973216,693.6983305338402 593.4609790836284,692.6010755896128 596.3079476601846,689.8597382750296 599.1381617359583,686.3802909545811 601.7185613211992,682.1967655140911 604.3473402707181,681.3633697677401 604.77584897316,668.3392160712945 609.4060148574472,662.1396273800887 610.8644056578032,656.3417048300191 614.421454444406,653.281718893496 619.8506916129147,641.6836821471168 619.5829524681761,635.7089814210145 617.554445208736,631.8660834344936 620.6387422392543,619.9743178084882 623.3936254907518,619.7756605881134 631.3095939210152,620.7933374221006 634.571058611861,620.8776221611347 639.9729621910208,620.308367990865 645.2810361495417,620.1060426220199 653.1188631971257,621.2962708672312 657.5746753611991,621.1017313157915 663.3649628693789,619.0368656119247 668.1175342035849,618.2790814366028 672.1157365730978,616.3118296903756 675.0136999127243,612.3050733283889 678.1730202880136,606.0757843390802 678.5532635810993,604.2062143109004 678.1221155241358,599.8156207608683 678.8188388698925,594.9758613957031 680.7169142915977,588.3091047583167 682.3351144959355,583.8538260691939 684.0344544100839,580.863925674224 684.248750799001,578.3908810508065 683.41254626366,573.3321433686499 682.0724944774261,567.6560500038005 680.268464217671,563.3644444356978 680.4759250874705,558.1520353145496 682.9484656236742,552.9709299726874 685.905106108022,552.7066978684882 689.6141377681178,555.065260330792 691.5854334835211,553.7686503650173 691.6367591470398,552.3312483228663 689.8879489673265,550.1126860599684 690.2462751014469,547.6884742994716 691.8500411640653,546.9563671614251 696.2494704686854,546.1742203136098 697.6483970825134,543.5362152152483 700.4344084582415,543.4262701269404 708.3532206544686,548.9904095207547 709.3338328356996,549.3426403788251 711.5048578378619,547.324115477281 711.709412475406,544.4876503830064 710.423564241838,540.9252817125958 706.3816382850199,536.9173244126002 705.3533698420673,534.3394028644545 708.2528696598911,528.1293964167413 710.1192771246574,525.3383819176183 712.3908219426738,524.1989227565016 714.1531737028636,524.1999690958648 715.9151164986074,526.0544356090941 719.525335134133,533.3774378190271 721.5915051944052,535.5385297284797 724.0459006911605,536.7498981287874 726.1327562456387,528.0170676424605 727.1952729517853,526.4376864899805 728.7445077779877,526.029308935246 733.4893630448049,526.5337000018083 736.9119029972838,527.4609814979535 739.3911342562654,526.93172068904 741.9826196081608,525.4911073531877 744.0767265856214,519.9648075804124 743.679588268689,515.3722401439124 745.6527859503384,514.2062701753471 747.0888487293621,517.6141956655715 748.9003682704133,517.5131395502947 749.8817660580169,515.540948903259 754.1443922581792,511.7168759874264 755.3523517680015,509.3047392107378 761.4508647570641,499.07008705094813 763.6182337375848,497.01182483505704 766.1020532316011,495.764606812696 769.2982234034534,495.7644615429483 775.0885104465029,497.2054357423448 775.9233120799406,499.7855910130122 775.6088777402566,505.97945611189357 778.1851504667667,508.56198295509137 781.6052222393165,508.87155519322073 784.8043397276004,508.04329588649057 786.5487582135783,506.2861395558929 787.4280463651344,503.42486047564876 789.2934211238462,502.49437466937434 789.9124711082885,500.3772865182816 787.225277710484,494.6535723548176 787.9480797596899,491.19033188121057 790.5306699085022,490.77962771375076 792.5933267043795,494.64569381050205 795.0709192485357,495.01629159441416 797.3983329045315,494.1858665208848 797.9553460520008,491.09140518848005 803.5873962411325,491.4002859467879 803.5942168741033,488.9444595033086 806.3774857552828,487.8717040685757 809.6152259688874,487.8697789205306 811.6356082541,483.7916922333161 816.8457296354866,483.1307123410463 821.0628242490716,486.18086828140133 823.4438411671267,487.27054295399864 822.4979814714322,478.85974819622845 823.4490869239868,476.0176870773869 826.3363043254537,473.63889332697056 826.1249303882721,464.1518665906261 827.7897801226125,460.6770851740574 828.1422159380367,458.1015190198058 831.3733058445094,454.65342790974785 836.047219598406,452.48770749128346 838.9259941452458,452.49312151152105 844.1119433041067,457.18947667666475 847.2881358244916,462.21317455685323 851.2265358633041,466.08679312325364 854.1164932242864,462.92826996740746 856.58222462573,463.27700437109786 859.0064822488209,462.646278361206 862.5194465098956,460.32406432882726 864.0070436438644,456.357758285896 868.9590665871465,452.00001416779867 873.599457670146,445.66892239940887 875.1742967606457,444.167637260696 879.1751566922408,442.6227816526374 884.3255918090944,442.09055119047775 886.6834691282552,440.3895838810905 889.77601990137,441.2494267549365 892.3952789839607,441.14933272641815 900.3813355538238,442.33265535673183 901.7488684852125,442.1099617072467 902.8573489629234,440.39662129392184 907.0824987839085,436.5799674482922 909.1624847811183,433.00535578340464 910.1526291793862,429.70720663417285 910.2363541536747,426.68460198027185 908.0866253278787,415.52584221804693 907.682888055127,410.86524884161565 907.8341880606888,407.1528801199538 910.087154162913,399.98869700107366 912.7215259143491,394.7537835470871 918.888647563448,390.3581645371503 922.4918225247096,388.56791074220223 923.9575696418796,387.26168412648246 927.0380371571446,380.07813399860277 928.0556070388653,379.33728844288817 938.1319446741719,375.83122537726683 939.5752128779699,373.1407616250352 941.8255963066804,362.40981545800844 944.7558949278167,354.13845329309424 947.6638991927408,348.8184987315133 952.4666241523246,345.3439720657443 955.650202112191,340.4914112327542 954.8774526177335,337.1655259445612 952.5184734678477,332.12985262246684 953.6171387398762,323.8925464404066 955.1708674246812,314.57495271424114 954.9965157217092,307.06513451485876 954.56934993449,302.2979258489861 956.855261488878,298.94320664881093 954.0759805683635,296.47229189075586 948.4148005683359,295.5339292202184 942.3446804129256,297.67268609913276 938.1220639490256,300.961553261359 934.9022167792998,301.09761093974464 933.5967213584013,299.5013025571535 929.7952108839223,292.2278040334578 927.5938769314517,289.9362803325745 921.3724486669088,285.9192990843969 916.4823653985533,283.35509533412926 914.8688367488842,281.6861929933135 913.0189454005227,277.7599839762539 912.5022132697221,267.2812045694059 912.7163854580551,256.5454011242032 911.9860886136659,254.5932459318915 903.2404232999166,249.7554672602232 900.360564779436,247.78269903214198 898.6071365813694,243.55386906753574 899.1262375550393,242.1071017790248 900.6724447113055,241.2844675501134 902.3090151456282,239.0167381058193 901.4939001687324,234.685283018272 899.9450072955285,232.7209934721957 897.7903919433174,233.32543533913883 895.9362993864421,237.24399165664556 894.2235561478385,237.03155371835828 897.3587439725252,231.43781588320144 897.2839388291966,229.07780273823596 899.0153854107114,227.44421503009755 901.6015868188548,227.81837954965295 903.0263364850197,231.02560805928124 904.674138496572,232.88534010359706 906.2294973523942,233.31390450246295 908.5856039014493,232.1804253931101 907.6642236729917,227.6387900915821 908.3698472816374,224.5336663737986 914.2542963623715,222.46200013610337 920.0039919526015,221.59274029958294 926.8309341830906,219.13362650716954 930.5330279570677,218.2706166802095 933.5064851236835,218.53464236703599 935.8693500204928,219.44904145126873 936.5816328701113,220.61425806830425 938.1041097963418,229.3898289518321 939.2507398237051,230.7365212619393 943.1627754813532,230.9591630889638 944.9059606359563,231.584262686702 948.6190851699266,234.17316997785122 951.7333427310897,238.33096274827176 954.5891612011013,239.3034473591399 955.5100495190463,237.55653846292887 954.3746575211154,231.8691785827168 949.5387770757069,227.11675761365382 948.616785157961,223.08010638362828 952.5699076087803,220.2433714717954 958.8020881101911,218.59360242538526 962.0578668125618,216.0861199601054 963.3793101458447,211.36089212622483 960.3920387808279,200.8031991840828 958.2110213237885,195.42591949419284 955.4982846955129,186.50773318106064 954.5344050715047,185.97503036605758 954.1364289874648,180.73636843826762 954.9049220037116,175.50138269814988 957.2293896429206,175.20536275266045 960.1016140079922,173.83655173013983 963.0424333461086,171.48726172534214 973.2237754637069,167.88906995543664 983.5900848837281,161.67396748485237 984.743697576565,158.12437102593356 986.2293577704224,145.22664225303583 987.0565868506719,140.8389549152413 987.6092681368967,134.80359832793215 987.2439602905996,127.94086238385728 987.9016853126848,124.19346597884783 991.1163038598274,115.69617420148143 995.7894110808703,107.10267623960146 995.9731021850289,99.32115860817748 995.7646197914797,94.36530286354832 1002.1620583703104,89.62507583147965 1005.661809067336,86.33461222990718 1008.7484987961284,81.17892564490865 1011.1425270166503,75.69706845246128 1009.6217431747026,69.72202496469947 1005.6118148970103,61.81091875354855 1005.4368725489729,56.532823841949494 1004.9661814483775,54.798920617318686 1001.5368757582105,51.95655534063462 999.6785015652116,51.54600686865513 988.3475957071587,50.6951963065178 983.8227367365467,48.623385038373954 979.4925552700669,43.45288617611402 974.1398915847718,38.275470043945006 969.6031732016705,37.85767577390163 964.4585955198397,38.87597847082793 960.3415412999486,38.03413872424983 955.814040089883,34.924343373773695 948.6046573345882,29.33661550898944 941.1983531933389,25.80009301303494 932.1399063723742,22.87462054796208 918.5573652914308,16.84910391414803 914.8559107860849,14.465765891491287 908.4257762171613,12.456989431121997 909.4546174515033,15.437841980744906 908.6742154382514,17.46053490772306 906.4950611929363,17.764019062265447 901.9715494214557,17.394269675957503 899.698775405805,16.699907675082386 896.5631026677204,14.928061348520487 893.4746281128743,13.880647632769524 884.3730703820295,9.413002514680898 877.8325565987041,10.116243950421449 874.4899777405394,10.001116251613325 873.7196626833611,10.72480525941728 874.6466620564933,13.766599826192191 877.3698920969772,15.327555380495369 882.6725469258697,14.521226216757213 884.3248469370056,17.103231604608823 883.8490129398856,21.308491181353133 884.068900524699,26.432777060419426 882.8315609704374,32.60005789800414 883.65293635719,37.24957911371848 882.1750625923045,38.30115281760925 875.0072217571386,37.55764610646531 867.1854705731508,38.14997835927397 864.0913450506449,37.775692227836885 862.5234082407267,38.46714208722415 857.7184251185066,37.860572989087245 854.9288648134458,38.26642040790284 851.0181518314557,42.38873434697314 847.9850603396766,42.44611574751491 843.0226359328417,50.684009031644564 843.4613838841155,52.438462989375125 840.3675533522022,54.3539426644146 837.8804185443523,55.03504015967576 836.8621865160819,52.46747114974107 835.2790331982527,51.574757693760034 835.4549348720784,53.536429578032426 834.2484755688968,52.14338859596205 834.3651467227432,49.14603609235553 833.5850829312516,47.611896770066664 834.3220409033378,43.61204824463425 836.6964563408997,41.9969774433938 837.9112755544505,42.41266490318321 844.9232796227277,34.44181874817593 843.8157724296104,32.460653547465085 840.2015963380977,31.6253192923067 838.6643993171576,30.48976537041051 837.5248687571686,28.006105761718004 836.2915633826757,22.227917471220394 835.1609275433922,19.643409082903872 833.5096322934738,17.987733151588145 830.6278878697484,17.054508682724986 827.0171665709736,16.84372907421414 822.0693102521225,17.97283186138725 814.95317769221,24.463000552239123 808.712286027763,27.686904068710987 804.8534600771386,32.80338509857074 803.8208437064264,35.07452073949298 803.0995120397824,41.169272542011186 801.234905774455,42.29844275752782 798.971855480374,41.15923939883453 796.6993485360122,38.16660793771598 794.1187907666917,35.583352735816106 791.5455146498402,34.752867652973464 789.0691537392363,35.47350701815958 788.0336778814666,37.12941556652606 789.2723528842756,48.272130915994694 789.2707080299766,50.43902723996143 788.343087719896,51.467627244897244 785.8643349307399,51.159189282810985 774.2000037881096,47.13474376897818 772.233949818163,45.07151503978025 769.6858306809668,38.86763445777183 768.9341773241697,35.829595737638556 766.1861792890993,27.968043196935696 763.2570037997704,27.63027444156876 759.9468852775476,28.045860696653904 759.1166612099282,29.283130265699697 757.0382820528123,36.051830211473884 755.0932777673969,38.63484463664042 753.2306435413437,39.86560576740942 747.2385021253267,40.49250709014973 745.167817001957,42.97750629381585 739.7928597561746,56.401456531856866 736.069038791785,62.18815115165853 732.5506558500094,65.28081646909754 731.1001147396049,68.58788108563124 731.5200492395851,71.88650136984609 732.7591709711332,74.37028253180142 735.8595277526806,77.87156227929893 741.4445093890704,85.0887214234798 741.4440830113391,88.79906497534296 739.3736811301857,92.72681080671464 741.8536196413537,95.40571096916403 752.3993580671462,98.17848333396978 757.7702878199863,99.8245719534292 758.6856222279823,102.87040868870076 757.1845077077716,107.14944223464397 756.0554906699184,112.46877126731238 755.8294809994452,117.50527918359592 757.0811371137108,126.13197368141505 762.4641807571235,127.77770665249943 766.3641310864176,131.31279503846383 770.0025691218833,132.66565422585256 773.5562919639669,127.92723157919829 777.2773366227777,127.50080248514723 779.3102603027634,129.2817618266531 780.3187623808786,134.19200014546936 781.1177927398915,136.09116868293063 789.994369291593,142.75342557239628 791.0310315789413,145.23159043194482 790.9201382564967,147.6037808049465 789.1727782318055,149.45884200123362 785.6546710612652,150.80780831636923 783.3891156016032,150.49447349887953 776.8143089708491,146.29344715918876 772.8327177392479,144.6756289891946 771.1014068188027,144.5028808959853 767.9008468851855,145.85415476991625 766.3437848281922,149.8731650760576 763.0387905500459,152.97305480775685 761.5149979443233,156.18297276830003 764.8192891718552,162.29409620331126 766.4550193602154,163.21727727211805 770.8650654576115,162.4934697051358 775.0467939853271,162.48224187801645 779.2369699656649,163.7919042571782 776.7799236699727,165.04734821054353 768.9272643676593,164.53424925198544 767.0702247144472,166.59269541954507 766.5548454707282,168.2482345150587 767.5825586438622,173.0996705952914 766.5485939770803,174.44364914178186 764.4839326878543,174.95334503716276 761.6947294817941,174.55056460426567 760.9778664806782,173.10395581433818 761.7005855726084,168.76905794647473 761.6962338639268,165.35908055571565 760.6682423104827,163.19380908608014 759.0123646098409,161.85712855850988 752.3965794735319,158.55351574591452 748.7805263323517,157.73369561280015 745.0591272157246,157.7357448993597 739.0624528747126,158.3717782522216 732.9644688879215,159.51292599269777 728.5161935308759,161.78970668408465 725.6199528218867,164.47564472948807 723.8554771155922,167.4988288963491 723.4967195429414,170.76569802466588 725.3643787084393,174.32657211824085 729.4985736396384,175.94233167814605 736.5800777548528,178.08767202753359 737.3012928645226,180.25167149920094 736.0234276997925,182.5697018997721 732.030913273365,184.66453567281872 734.3841800491409,188.98243191004644 735.2119042381555,191.76898844762445 737.9209648376358,194.08110690828028 746.4897502515367,196.39644460683928 749.1002244522881,198.4378672441353 751.6049568496753,202.61101946993335 752.6380009338213,206.33113208219584 752.7242866850428,210.2651516906011 748.7769428899406,213.0556807156354 744.0232097030702,215.95624750438162 741.5350789332874,218.633488536203 739.8836041214248,222.1509992039994 739.4729698868623,226.27762630376333 741.1232769886441,233.4982056547475 742.9882131168719,237.83805192234206 752.9071604947047,247.52319432336674 762.2129713376245,256.2717616704376 766.9924173157518,260.1042201584212 769.9438774056982,263.58240138415397 774.3964178828118,266.9170809279615 778.1199523637614,268.7728889359489 780.8046328431717,270.8333442428942 783.6898908767746,276.8171565242741 785.3429915501409,278.46698240087244 788.6444757505353,279.2915034428247 797.6668085603886,280.58639563820236 801.6562902173611,281.8904134070177 803.2005197781451,283.2503269030623 803.9191455782385,287.4852163569258 802.6825618635082,289.85481291503595 799.2246041306774,295.0004958900157 790.6744296732746,296.0778482389961 787.374393560379,295.8376161876881 780.2993081851184,294.26860833023886 776.7412427950152,294.4071480859245 765.2090932927642,293.419321437132 762.7236379065178,293.92836352743643 761.0731621460254,295.1753841458003 758.277577898888,301.16406393051454 756.5203022135814,306.91730992862244 754.2025077991166,308.0587505115702 752.649937960444,306.3057633762762 750.3013219970616,307.49813136517366 750.7122500146423,308.9628636413446 751.8070301901002,308.50556866820705 753.525508398627,310.35556263630895 755.1994645351848,309.6632101847425 754.373614067781,311.69061470613804 753.1165065392188,317.35331640470474 753.8040823537153,322.13434867330807 753.0668969090201,323.9682781680931 753.234706819495,326.4997902447118 749.4587194418796,329.7845852224617 746.5756578902373,330.4220994996381 745.5029202316435,327.699346598891 745.510861055618,325.2646287370004 744.2153972877876,322.6376202523711 744.6439902138756,319.3156648603465 737.2444995968467,313.6405572729602 735.6388115220665,316.0077984949503 733.5716600582018,324.47462813480695 732.332491150913,325.8957429907214 726.5319249966605,325.516960926548 720.3272065852653,323.45878377479585 713.5051856182257,322.2430645388588 704.1903116591892,323.0803278711869 701.4975165490735,324.94635466524517 700.0547794670686,331.5618903304271 691.3602396560674,341.79826068359057 681.6293387970096,352.96506391013463 677.5986907177166,355.4743091704489 675.6315566122377,354.89147283743887 673.9801744149036,356.1585469168117 670.4512791470338,356.2938477526717 666.3158591602187,353.82739133796076 663.6168231548522,349.7024610203787 661.7622786573422,343.30849940449605 660.5190597031311,337.32674376755267 659.0666515438579,332.99348194659444 657.3722580274172,331.31401382552826 650.9286388907437,330.5110447930308 647.9021697585838,329.69715161609247 643.4945344286609,329.3360049246454 642.4836418523415,329.97247575636527 637.7104444355336,331.1639274862006 635.8864927983918,332.08042788964747 629.0886575558254,333.36623113372787 622.9358572085698,331.3338914058735 618.9280236263688,326.67261945459495 614.3803583632553,323.9895544013614 611.6874586653604,321.52233097066323 609.4177344746189,317.18796859238455 608.3774829949161,312.4432270436088 609.210713645252,307.7615191267972 606.786124310645,299.4623372305217 603.5024987016748,300.9737708441195 598.9978897450417,300.8357666774607 592.4873006818606,300.1941217583544 587.6383060326339,300.708869848055 586.3782495209394,302.64359907353844 586.267578825927,309.1375053905473 585.161207731007,316.4716542353291 583.2704013363635,319.5197645973998 580.7246875340489,321.1078389764557 573.4032174044253,321.82425868099483 570.8442013113627,325.2592754483878 567.8442483468057,325.69614240954127 563.6429221330616,321.44975329059855 561.3205280219115,317.51995782038216 560.3396688912671,313.5624951267115 560.1505030903171,309.36638080818875 559.3973121160349,304.13026154221814 556.537159054903,299.87880425923265 554.788321177507,294.9374343022066 556.6886459856803,287.3567897524831 557.0900380604653,282.99757643759995 556.6304571050446,281.0287503978752 552.6887399729125,276.9212412989408 550.5856289048342,275.6515888156812 545.2985712371993,274.18601683226507 541.2684814758518,272.71397813456804 538.7466518626472,270.4335939037363 538.1276927376906,268.73089951167753 539.1160972376308,265.51035095755105 542.7273045110046,263.0750313561315 547.8679562351356,260.87921368292086 550.9048638502704,257.8501461345835 552.3657664118658,255.2267183379986 553.0039985276401,251.45822676001717 552.6487611219621,249.094506600792 550.2483649643274,241.7857549033971 549.1221480359992,239.2967004735949 543.6775808359158,235.09822691514455 536.6501602066174,234.05280832683275 533.3282988995932,232.0922454120248 531.7025287465858,229.64252130959153 529.8916570705807,223.56458418051022 525.5669709743939,222.602966545835 518.9930988262477,223.22230911529175 514.051592251382,223.09085709165583 513.322602873,223.45784692060647 504.0934919101581,223.6355499075388 500.8784442275009,223.489743558163 497.9502098861008,222.781428876336 495.74012764408536,220.68723360481556 493.7037408344245,221.62583805751797 490.734764494019,221.9178816215815 485.52315583794893,220.07561794311948 484.58741662323524,219.33823606145393 482.6023315327312,213.66747114186626 480.5483305367062,210.1467076001535 477.00628709009516,207.9281507116575 472.4357528112895,203.86229553690384 464.56877185781275,192.91344517687014 462.02905358483633,188.09096173550597 456.85295139213406,174.62770478147036 454.03323110857946,168.04670900256792 449.43682213424955,161.55143084074007 446.8998558483793,157.37619895981766 447.06557093106005,152.82413794079332 449.0839272578703,148.44771294241627 449.80861998640563,145.3774807336091 449.33398663041913,143.05658087721122 445.83008396064247,133.95915268291515 444.14645662295817,130.9888696571635 441.04197983996346,128.00467014430967 439.4792030604037,123.43833226242054 439.68633366762316,120.96265917342816 440.8220564941017,118.48959568223859 443.80431391535427,105.13115734269218 442.9824448023698,102.34492426517863 440.51635702247955,101.60699026402779 438.3481833777374,102.53783913160316 431.6411044417785,106.44259077601316 429.1728430387866,106.64249941241201 426.28215810257734,104.05788350223702 423.8088717716547,98.89442257825226 424.425233398915,97.55150907200641 426.3834186305261,97.35204374332011 429.8938814325338,98.70399518625788 431.5477311135007,98.5997581049395 437.2156740963489,93.39630935315154 442.5719120717749,91.96865458061609 445.45554121790815,92.59759907298144 456.9995610817606,96.12692421644056 462.5689330426578,95.72316436552967 466.89691351384505,93.46813974223664 471.43241997524774,89.34415220199674 473.9087669315139,85.01970149982958 473.90182843603594,81.09903338077402 472.8763902296618,77.37901920616673 470.81327251004967,72.83438835688128 467.7166124950252,67.66463344530791 460.62502478985976,57.88827806585061 454.08873329431225,54.83531245126517 451.30079452189113,54.38642311222907 439.7009218748101,55.53499334751825 438.30799271409654,55.36152126277841 436.9077332448962,53.77632284847516 434.4641600035279,49.047367794140314 431.6638129422191,46.362121495409156 428.9581918877859,44.88395058929109 423.7572675134079,43.234540289306665 420.28435633972606,43.152455366333015 418.8590181476037,42.38388169426253 413.71202223987484,37.214813605733184 411.8464861141466,36.38510021914669 409.57738245635784,36.791799555776265 406.9035237859961,38.4478948836321 403.6012650159136,41.32530810103742 401.9505006843461,43.59404006846114 398.44091290856034,62.99386259319988 397.41182221118333,65.26165726173099 395.76112540621614,66.49494689093387 393.28796107860785,66.90537093994362 389.9797757733758,66.48664624628088 383.3527585179313,63.471414088483925 381.1353298003425,62.859153952108386 373.9084745334218,59.96722088881836 369.98826538037224,59.5502638482501 362.9654843058262,62.43740979382005 360.904160311383,64.08071987039466 358.89785505447657,66.99193428491719 356.58130934268166,68.19548811166794 359.14392803274006,68.67970728566365 360.0729965592295,70.22441253985983 362.7656809676975,76.83524275990692 363.48175853844225,77.39580066239739 368.80147803348467,77.30215623731783 372.3173415279714,77.92016053098371 377.5238663176745,79.83416658031297 379.797225432036,81.17078560475704 381.2386012180802,82.82546217220158 379.58723626673884,83.5441417290665 373.60080945011464,84.06332553387665 372.56454581966085,85.91886444716249 372.7801611548269,88.59548613766992 375.45630436695683,96.4478821783058 375.35313660831304,99.54452007972725 371.1230893363649,105.2627563732209 368.23312955338355,107.435035543921 358.31958988305223,108.36409497315015 348.5089052093083,110.31770981353554 347.06154737316257,112.08035730719962 349.94993046469887,114.0416902730392 353.77776945815,115.99292650540724 354.4981151697286,117.34048846153485 353.8765117145488,120.02518168851759 351.6043918670806,122.49834770495681 349.3845649465518,122.87387304217646 346.025455773384,121.44736595430095 340.9643688720844,120.22394300172584 337.3407418243287,119.87984236876241 328.9704750942076,121.33058060278984 328.0394762408222,122.3577615344625 328.86417754722834,124.31682503320576 340.4432940396604,137.7287436855189 342.3009720957518,141.85695271525344 342.7123660092263,145.156179672627 338.78715724898893,145.16189732106636 334.4444914455321,142.4817863789383 329.84003788429214,141.68245473852448 321.3425347042195,144.08440972438848 316.2106533124529,145.06025959331566 310.92654803417565,148.23598566127703 307.35949738830993,149.29207163454691 300.93324073762716,148.82992269308602 296.13043169289153,146.7010831285926 292.6519531101525,145.91986292196907 294.0800714488779,144.18900541129483 294.41975191859126,141.63168495803484 294.22065806499535,135.43347332136682 293.10630438818305,128.32601690640593 293.4548357844476,125.21355971993864 291.4148848431154,122.13656429055175 290.14031089377994,121.2032733364515 281.53078837096996,118.65266708084391 279.1973121070094,119.5436890358709 279.7022597406336,120.89562019862524 283.6071436280214,124.77490192691312 284.07346978701327,126.20706239278024 281.8280989577307,127.95486257558298 279.3607162284421,128.8078331879425 279.1055250617047,129.9014680416916 278.6462609777602,141.28358139075544 277.78975429645806,143.56822543946396 274.02741729796304,148.91271221579132 272.1460346820539,154.2737085162886 269.65549060973905,156.13460705624345 265.09828491084966,156.15024125749494 261.3682314030127,154.51623356635537 258.26217182188515,154.52398969093394 255.77107780303078,155.76966392230554 253.91174404095725,159.08215555823358 252.4577197140137,162.80084433392767 250.1754796182022,164.25508934639072 246.23272443526702,163.85464873486126 241.67678233535233,161.18565170189106 225.6642696167236,153.00053055859007 221.29139734365123,150.29837261892533 217.452765753466,149.95532706648135 213.8335374491465,153.70370639865018 209.33086905470898,155.62163914823566 205.03278553268092,155.85138212835363 197.72464365111347,152.46565845199973 192.74587076574002,150.63053209205702 185.7053756227574,150.64851049283004 179.6916820694979,151.4929001602619 174.7241556373341,153.16671247933436 171.40802719426742,155.64773238183307 167.46683229136218,157.5233806277305 161.87079258611826,157.181471219611 156.01390081644138,154.89692799530644 150.5557713769221,153.11936817281367 147.99934563766408,150.76545686590578 146.13539483258126,142.50905298745386 144.8913248240855,139.829744367868 143.03393009235776,138.80511383591943 139.92595201619002,139.83759187793646 139.21596324163042,141.826621083256 139.97092470195986,145.75601151631327 139.34848804347186,148.1474968582953 135.46929341924866,153.5000208578748 132.76820225504557,158.47930153178982 132.8956637510644,161.039091053437 136.0197104743173,169.412647246819 137.09922458982783,175.5251165612558 137.44236579266385,181.54040382842095 138.89139886227946,184.27777010984573 141.06488049501172,185.19784839098463 144.79112134404926,185.5043313863498 147.99871959306887,184.8724328741729 151.10195568148416,183.52515151452087 153.37930921469007,181.65881488087098 154.0043193149416,179.4895242776538 153.68790777706397,173.30175491008777 154.8293739289361,171.95069520781283 156.28409464598457,173.29561814910016 158.55727269974824,177.5205106067633 158.1950755094037,182.96436895324325 153.8504566700604,192.52336578044822 151.66574185783486,195.00299668820674 150.06215262097967,194.48659300244958 150.32319519619136,191.96039812622234 148.7752676935456,190.5262191339432 144.00507755225215,193.0115299021644 142.09428811255043,194.7705451788537 141.8903967799798,196.46979674623014 147.06598452201635,197.79849638249004 146.38728209700577,199.30344330518233 144.06129588405076,201.26138386718048 142.92600874842952,201.27197038852592 140.07609835840975,199.05457349497317 136.32686643061766,198.02144712687448 132.1075500156883,193.0131772579 132.11179656409308,192.08498542463985 136.86993974988283,189.53861778713713 136.29295888740478,187.58235036139115 134.32819977145104,186.86130149003395 132.72035270153987,187.2631800566062 131.19990094242897,189.14652193318568 126.32355435046944,198.30031643876976 131.22857037698017,198.22272251138725 132.62821319159582,198.73322525443405 133.60780831363883,200.95491745072752 132.82903942277815,201.98778475980066 129.9755497027426,202.44103288717065 125.01911725215021,202.51949130481364 123.46308334008613,202.96090157776882 121.05774149254026,209.13693511683311 118.34827468860315,213.10836862190024 112.80660908341866,217.66531746987152 111.77302734879433,223.43395731304872 110.79683792868252,226.64928053163476 106.2292052728804,230.1811127841645 108.7762663766877,233.1524934800883 109.45699287292354,235.81444802169892 110.90144471514859,246.38261188112267 114.44566525629695,249.64945212735677 117.38587410743804,250.59529405986177 120.38771522106724,250.32144406420275 123.5984042977485,248.60947976661487 128.25406987956512,244.7121184802952 130.60038841718065,246.7294229102672 132.36251296594878,250.90538212718252 136.814486260729,253.47895568921217 137.53282221021936,254.7187704817287 135.88080497602456,258.44120478202535 136.3986579497625,261.11570739584363 139.3980656733487,267.61091180759524 139.9128992500594,272.3655979393168 139.0875089726059,274.22681238655343 136.70622028622634,274.9458871193408 131.22474664013302,274.96235999019416 116.7748011595299,274.37172298645703 113.32763702063991,276.63123167526453 110.44858744399201,279.2554387701324 105.15817737865932,283.1941491809806 103.39882883388331,283.72000023642954 101.8538774086869,285.47357015619264 102.15855737950558,287.022608242404 104.53557908102758,290.2193780791662 103.64507031486747,293.0615245803398 102.572863306207,292.5952483713338 98.21208970620295,293.5805162562759 94.5606059348136,296.4905275867569 90.68828081236026,296.69954311328956 90.12283288768478,298.8706585027762 94.41122502841888,302.5289834555315 94.14907101418395,303.8770391037767 84.02649005103576,303.518714824889 81.39010841169626,301.34349176930493 81.65457495581919,297.7368652901903 79.89345838819823,292.3678148132783 78.65224274373294,291.5911738870418 77.72340147888355,293.45542099005047 78.63698352134884,301.2211345942777 78.09232378087526,306.348069719529 76.69565021743982,313.69971060577166 77.10748572158847,316.2366547617544 79.64120555001269,318.4023930676308 82.94435570690572,320.0516864055347 87.69452074857082,317.3240031880283 98.59597579908959,317.1833324177401 99.57217886881686,317.3884807524398 102.62787130366557,320.1807247376006 110.92740687148192,320.31692027989345 115.59411748053572,321.6072306393643 115.23466664324269,325.53040772522536 113.73537655450372,326.9814729611652 111.46858698814368,327.2437526833771 107.27614432386103,329.64921757178024 106.3424699361512,331.86581649666346 108.00395323604621,335.52135596373046 108.61607164929963,338.36786940973195 107.68761301504169,344.35191492040394 107.37827304567867,349.405073955768 108.20430590306712,354.4690765088337 109.2142371454004,355.4718728132275 114.58770101830727,357.2739127969371 119.07866313730159,357.8209161734942 123.48272191736419,356.90578969756564 127.80747331870228,353.79013736014247 130.75549634689366,354.4339113610374 133.43788816198568,356.2943973448429 135.30028446480608,358.5539660709512 135.9273310826111,361.036683657915 135.92855215896927,364.5397570126728 135.09877617411163,369.7044921024325 132.60929277422244,381.06924783140084 133.02967739200352,389.7375523810555 134.06125364106808,393.6571626366274 135.20337525504303,395.74781501617406 135.9759688564729,398.91590799439655 134.46113817539373,399.4474249919174 127.39419750161855,396.34063370975093 125.46229291530764,397.07252906558824 123.7300026342326,401.5570480664745 121.52208929171603,404.5864137799614 119.92608424889788,404.61460386550493 121.50709154970937,408.3736804350458 121.72729820099305,412.7441486693351 120.8292175273922,415.8201132242133 118.18094263585053,420.58355856058995 119.90478377768133,426.05839644944865 119.37571715004388,428.5729223408282 116.09369666554797,435.7634320395357 117.8342337891386,442.73396826654584 118.02313712240542,445.33641884148335 116.68216283868408,451.7463165110854 117.29994068390492,457.7257986972496 116.78038630579192,461.3434466557122 112.67294423757203,463.5866686057867 108.68188922761634,471.91216967250637 108.20717796251672,474.61874785476846 110.10832167920603,479.1121931418254 113.96888802535524,483.73342807619133 117.87916645309502,487.14167935368357 119.96061574777107,491.3592655615894 122.09338792761405,500.2147145790319 125.96087921093329,508.09035251164096 126.69261860555193,510.6653577711045 126.42889042733248,514.2979748046482 125.27416891417232,515.6228628918435 125.67944113710885,517.6471078506497 130.53740301165936,525.3250763881913 130.74240697723909,529.4556413585203 127.94419232916505,531.1113715865513 115.33602322382838,539.3811217367311 112.02119896143837,540.834684808601 109.23099042461634,541.1464672984976 107.88752868468447,540.5226318379164 105.9263713575373,533.8235868617229 104.78658046967423,531.3367718264078 102.51738726698721,529.8902625506129 99.8310657631478,529.6954697715366 93.61005072566881,531.8857022161028 92.63541059249022,532.9638001267388 88.60994805508754,535.4205727063843 86.68382606642184,537.7174432978152 85.94923381418968,544.9389344098263 85.1192731296244,547.954956647603 82.10071164862954,552.2533991446661 75.31627457217279,558.649933014935 73.97115198420823,560.2599809850979 71.94194601294593,559.6785101426356 68.22834061413721,556.9925272404394 65.32994265924,557.0928030257035 62.13256288537773,558.2300619092762 59.14401837912798,558.4226281645294 51.194478976643296,553.6673663756922 49.44674249290626,553.3630897011982 38.19547986354204,558.6612901292979 36.85757529143017,561.8576226306288 36.0304393797012,565.6731262192916 34.48594101727042,583.2721908869211 35.52034714814651,586.8856219658751 37.37674496737631,587.5110957822515 40.781641468701466,585.8646644491776 41.49932798445483,584.1034139649834 41.29877421323655,577.8084718695463 42.014708873447766,577.0872381562282 43.46214723744905,578.4286271451465 46.14105839127324,584.7331387454752 46.485838050361814,586.2831793143471 40.98318210811632,591.0790317361475 36.27792114873119,593.9920262006001 32.954325255815434,595.0382762472792 28.864083836401175,594.9763613276886 26.1042134371301,597.7943251756426 25.10793497132153,600.6829368963313 24.9646007669107,606.1675878883134 23.960803219910016,607.3868241264549 21.735506136851342,607.3141825900624 17.259599005594012,605.6701017975099 14.85584109924495,605.3164516338267 10.301582969551887,606.2726286609553 6.237576205965603,608.445349704746 4.399013091820872,610.0435344101675 3.6057610074365285,614.041540753597 4.746331267407937,619.7057179189035 4.372466806545933,624.9216002177379 5.194894088549371,630.5116214523155 7.740308561003849,638.0244352616443 6.556369393256262,640.1275362794684 4.177500121894373,641.9473101532167 3.7314321982586147,645.2726478580034 4.387982412328174,647.1939207523399 4.798116394397394,658.7808258788774 5.631300913087971,660.1215482492839 8.287177756700448,661.3618616372437 12.910849752281111,665.6645720624037 13.687262945557574,670.3970716028125 9.853405442522677,670.3999669099835 7.946474741892472,671.6164003169833 7.789274885828839,673.2674176148178 9.181137372403311,677.3925347335544 7.520569276427938,679.8686743693997 9.485315812076305,683.9030413057687 10.311681374224031,687.3091951885932 8.756788167045878,688.1351902577852 2.47149106778237,689.3536844662265 1.141781871827775,690.1758221218947 0.21092813168406815,692.1431757858178 0.0,694.8285485917169 1.6513774530028777,697.927260967731 3.3998628757014617,700.0946901912619 8.042812818314465,700.5213308763501 14.33450325809046,697.1787842394215 17.10860674346195,694.5004750059716 18.45485183860502,694.0835217240127 20.519393425420176,695.4342256944401 23.398026739464207,698.9484370893965 25.15031183764208,704.939622466913 29.696019541140444,715.3776195819919 30.64518738684379,718.6907557003935 32.01740491883423,717.9893307201252 37.424013222866215,713.8691070330266 43.73811921474603,718.4586646356412 45.33841910620821,720.8601919696828 43.923526826293504,728.7774162357894 44.14459764544263,731.4668873528077 46.20160228968079,736.0071127718307 49.905558122647314,738.4830796604906 60.118085562471286,741.2857096101454 63.01866405001591,743.4620026656837 63.00156996205256,744.8997781016395 55.89663137152136,754.6992229582281 54.03322606475247,756.1474418627784 42.78961165146518,766.4013183981416 41.35484791949351,768.3596299836014 40.513688603623926,771.3510619715281 37.66245512001265,778.0805779999552 38.96366555301337,778.5760534564427 44.94635924439794,778.5847352373837 47.11916662574253,779.104253969504 49.807101382511505,780.8609886965664 52.79607638833742,785.8217056152761 53.30789179054121,788.8209541094917 52.69315170835933,792.4348481235226 53.11218019029149,794.8078000544463 54.96293318928237,797.3996867253177 58.35906360634102,799.7704635097739 61.0414651788809,800.6055827133124 64.14338181127144,798.9527745276577 66.52523410395226,796.0564802293309 68.47447703561188,792.4488259171832 71.06795708871296,791.107979387578 72.19669562558629,792.2437660835232 73.22594830401957,795.4449978665762 75.69978448345667,800.8214103564127 77.7652572865127,803.4077330275982 79.42181049339847,804.2293688861064 81.38915614480943,804.0234923249579 83.43851693113218,802.6820867409945 86.24294166457983,802.2686326274053 89.74304954230209,802.8879550342704 93.88557507202016,808.0502951342409 97.60049483879932,809.8095576038239 107.59674825898233,811.6104282087524 111.2784887821312,813.207705436628 112.459883019257,814.4623669376572 111.33971466119921,816.7208897510037 107.93309084810099,819.0987120789505 107.1062878889737,822.3028507906115 108.55419072641824,824.1515939956447 115.36592108285356,826.3221745521266 117.01831924211875,828.0747972698471 118.6778261298297,833.18091240384 122.29352583465977,839.1646392458223 131.71767875442015,852.1074670164642 133.15390122652255,856.1140990559861 132.25748436500402,857.0822200320151 132.22963532430128,861.3676472635753 133.21146325346257,864.0745428508292 135.00549096926952,866.8807462333909 138.86325053487352,867.3094310945443 140.4674923091779,870.401226069704 143.51174089807475,873.0214714407446 150.58011933627233,873.798910981793 153.17857274493255,875.6074981457091 155.83931109618356,876.2889409201603 155.4665522401505,877.2592891913772 155.0728320302675,884.0530885566184 154.2733823537894,887.5944928657444 154.03832169776496,892.3395287544565 152.57295999362597,894.2199102925169 149.79787325353396,895.2829480782164 146.29494036971957,899.2256673415122 145.15553288293245,902.2245946078394 142.4664337128712,915.7092003132155 141.11523738495413,919.4305558668694 137.28920202960728,925.0108836191813 137.3958219633774,927.5935919482138 139.46778149154167,931.5095311288428 142.36403027469345,935.5537364210095 146.05588500876704,937.6174669751099 148.66904841202197,951.8329164588994 151.5914244418333,957.3253814872216 153.25738786133775,957.4582486499272 157.396326330466,959.1585385268124 160.05237908197364,958.3117138694688 165.2626799302565,954.3369028419786 168.72067596903577,950.6363708613278 173.7643575772423,946.5635996840965 175.45565904078606,946.4021002088908 178.17305182841937,947.8431759760414 180.46276576443617,951.2388126757046 179.7309847020251,953.4113794912574 163.06412400364934,972.9174545375852 157.15508219528306,980.3716864587284 151.04909212421074,988.3872433562051 151.14524527124095,992.1058487892083 154.428754143974,996.459455679218" /><polygon fill="black" points="873.3620294347663,13.383653161385723 872.2779491864105,9.285493099489486 870.7455086332395,6.176349669075876 870.3379411092321,3.978107584569102 868.1055957446418,2.3668927524744277 863.6724303776189,0.5217443519703693 861.8499818855556,0.785628331172461 856.0711041013158,0.0 852.2128811843843,0.954430577457515 848.5499153186454,2.4578327764096457 847.9764683821346,3.741783543073325 844.9901484788711,7.174305558961009 847.4487208527555,10.64736928985883 848.26600292945,13.823246810533647 845.8155277213349,21.962173288551412 846.0226038314814,23.45891484912977 850.7666922999211,26.779521109977395 853.2300858915385,27.76083670722653 857.8632316040034,28.502904965844436 862.7602748999269,27.323471577803502 865.1173229491332,28.98388866724372 866.8373880178573,30.960701362246823 867.8332648944854,30.765948052453382 870.1710796507032,27.083191428824648 873.2832633643094,20.67197431441366 873.9557008746268,14.811491206962842 873.3620294347663,13.383653161385723" /><polygon fill="black" points="844.9232796227277,34.44181874817593 837.9112755544505,42.41266490318321 839.6017268909504,43.09028628771762 839.1580236954602,45.590240190596546 841.0759812599695,48.17803808325448 840.9428943144397,50.872247033283884 843.0226359328417,50.684009031644564 847.9850603396766,42.44611574751491 846.6993477542558,41.16534142452156 844.9232796227277,34.44181874817593" /><polygon fill="black" points="750.7122500146423,308.9628636413446 750.3013219970616,307.49813136517366 747.687493429901,308.6865161111888 745.149212109959,307.2974505639768 741.7363952586909,307.99840792001544 737.2444995968467,313.6405572729602 744.6439902138756,319.3156648603465 749.0007654653518,315.87707925482607 748.8533611169831,310.52915431577196 750.7122500146423,308.9628636413446" /><polygon fill="black" points="703.9979680403628,320.3383647290102 704.4589655601735,318.47983544550107 699.8209512215344,316.89345493305507 698.3314601177836,321.914586696912 700.8160779512554,319.9216344761204 703.7629406448426,321.28314442587293 703.9979680403628,320.3383647290102" /><polygon fill="black" points="879.7726729420278,23.528194025212315 878.9961484379061,21.68090022922297 877.3543999011436,21.375946615159364 876.6010807498332,22.36059198898272 877.2434316729293,25.006329594553108 878.5372103306029,25.299766571816576 879.7726729420278,23.528194025212315" /><polygon fill="black" points="155.91845203355524,995.266633073723 154.428754143974,996.459455679218 157.05119781223274,998.3293235957769 157.68956446478924,996.6745020415141 155.91845203355524,995.266633073723" /><circle cx="362.8443504868894" cy="509.1094709509813" fill="rgb(100%,100%,100%)" r="16" stroke="grey" stroke-width="8" /></svg>