<?xml version="1.0" encoding="utf-8" ?>
<svg baseProfile="full" height="1024" version="1.1" width="1024" xmlns="http://www.w3.org/2000/svg" xmlns:ev="http://www.w3.org/2001/xml-events" xmlns:xlink="http://www.w3.org/1999/xlink"><defs /><polygon fill="black" points="0.0,758.1403001212558 26.002678016580386,786.5953406469496 38.03682378039648,818.4360743751555 42.59195912698545,849.3315593708049 39.745780707182504,871.8082301026227 36.806550761736865,904.2407268087852 37.24240246886879,932.5652681056833 41.838132366998046,959.297727966006 55.73142056697909,977.8419097011608 101.42757052554089,988.526616412688 133.07509263985781,989.7965405006643 191.55895765658624,985.5323258492554 219.03720683744373,990.0530414515147 239.92319027805135,991.1302834667872 269.07423462977,994.8040770332666 289.9692678366406,995.8775153892469 308.16657444893815,1009.4003657395483 329.69312142832473,1022.1360137139388 346.3712731380741,1024.0 363.26363558500896,1013.3654223580435 377.70621122161674,996.8799530782204 394.6954437259841,977.0705285726254 409.14616353541675,959.724747454368 429.2683420083391,954.1387724989835 469.2610586149452,961.2855453742038 490.0815879853664,964.041840461312 515.9982583458687,961.0394856655354 538.6123052642233,953.8488357028243 555.3957159181541,947.3969056172836 568.1570064910652,929.2596719982769 588.3573303406679,914.525226623582 610.2837918154684,897.3448617296066 659.5075445427221,889.7451510725042 681.9861737205293,888.4325089486176 705.2837402590477,890.4691463387106 724.9298984864236,888.3158439007253 724.4977527289325,892.8845586047888 727.0189609253027,896.0136096767264 735.846451262356,899.8708740808978 746.572394884617,898.6792036982182 749.6667156399906,909.8975394410729 764.0531872733698,909.330217876944 764.5457884186048,924.7111966671437 768.5952885965572,924.121896407089 769.1609623541059,925.0860929328514 768.0264492458109,931.1488821763828 768.8214285383111,933.5351800538735 770.1327333686265,933.7373200235193 772.7002850151681,930.7566276007315 784.32205519694,930.1933286564113 787.2721068444497,928.1015812603334 787.7976933304624,917.6097152961149 786.6021302650232,916.6667607574992 780.3952265482397,920.3441634255356 779.436444562271,913.1523752236906 780.8291910491313,900.7063669124043 784.9366859207664,885.1795102944056 786.191715639543,870.3991448918357 813.0340173439627,856.3720695435362 837.3207077148243,844.25396407404 890.3439956240767,802.5912886248663 906.0075671685079,790.0162411660544 934.6515710121743,785.500458815405 978.0079509109265,790.4575891789167 980.0426985719263,789.2080853534881 979.0780814879653,781.8678612542901 977.7140747466725,778.6530733429836 976.3092787207949,778.1524318397555 973.714871481979,751.535618425663 959.2309008922323,751.9163019501145 957.7734185383805,746.6988631493309 950.9095883472135,743.6256204095835 941.463509744166,735.0264086406642 943.1813008615749,723.3004923364474 946.9807506203774,709.0013054501715 951.0063857041514,700.2505358553476 956.0701419822567,699.7870889642223 965.2935079471184,693.9802274856382 969.0116315201359,690.243645261729 971.3912259830845,683.8492225094307 973.8763425847478,678.4749388006071 975.7314411988332,676.5647028300723 977.1380828896168,661.3851757607295 977.2326687178769,619.5747670029532 954.1419006654754,616.7958330839571 945.1395513556974,614.1916140468647 947.0232816834696,599.1052178050732 946.4264234667904,596.6817807835976 941.6272738680515,595.8344964143728 934.0171885313096,590.6993162091571 934.8919564607397,576.4741713124818 924.3706003013087,571.642031636037 896.7826349985248,566.0415787075544 895.8268607825204,564.1376479939518 897.3270290485718,555.2949746160367 900.7642451356235,529.5290601753732 888.9307598512855,527.9763860496063 880.3624631754934,507.81691469436 868.6587700095678,503.73213467400944 868.7147945704133,496.1454646074145 869.5983727775778,484.74799833522854 855.3199477801387,480.78374152022104 854.2095200545529,473.0989405347144 858.3733061462,461.9821871114699 865.5341028837076,464.0319364271296 870.5672634024884,459.4104645886614 875.7049861243313,449.2988950405886 878.2042297735999,438.7982364136485 879.504686107433,435.7137440765116 879.0521876512,428.6266418137337 864.7594772615026,418.1450990772174 859.2263956333529,406.3736765592944 849.9537434322515,404.92710798075655 850.1807228346961,402.3534741693787 850.0854581568891,391.04941235394506 838.9504763013431,388.0582410571567 829.6172133940497,378.1821222291162 830.7301462264393,372.21337775309723 829.5673478547321,370.44485762688385 805.608352970027,367.79426249706273 801.4589091606607,365.1438278465416 796.3449063494648,346.83314141338326 798.2203525676605,340.9578055795829 807.0101632839838,340.91182371285913 806.8343837693765,334.8068842274057 800.2814583678331,334.45523236335043 801.5026201259224,330.6422799660869 800.5537660000311,322.8427092595249 802.5478127099619,306.60472616027437 785.1075938511475,304.2414036278667 787.4742062135201,289.6821866750902 781.6423666675568,288.8697024756698 782.3817270430022,282.34324026621766 788.797460757013,282.5553597359258 790.6931500342381,272.10598057959476 800.391207404387,273.54195028013885 801.5117281874594,266.08499777070165 806.497596515442,260.2414521625892 817.6248945447003,261.7857374489323 818.5299577654959,253.6309618569261 820.5329060942058,242.06554294993487 823.3956401757166,236.94113130975813 829.3027294250363,233.24848417259955 838.5426124711779,233.61112967147142 840.4633342585174,231.10951146525792 841.0693390030951,213.74407136928767 834.5181654443843,197.85428257869148 828.9728245332827,200.88558872396834 825.2509539620285,194.9619435312013 824.768158086444,188.86406123141467 828.441001881539,178.50943680465184 834.1969833899456,143.62049061867435 836.1704143598655,135.9265752155278 840.07286723381,136.0443523154771 841.3244154131406,131.29271921674479 828.8547776379207,129.56871269628346 829.3949087567605,119.37505192182573 822.4845866897966,117.31984206189361 824.5284607067754,104.92879010072363 817.6416081436334,105.14817879680447 817.3650374007561,97.49529114862423 810.0156631149399,96.44953747598595 781.8349407063585,93.75738264589359 780.2308246978711,94.59951135728716 780.1112572525703,100.18406171759443 778.4440585808622,101.25100670366294 752.7314258840735,100.06092904827528 740.285056139552,97.33949137746094 734.9513476819237,98.4682502587716 734.104385762121,101.25950681451184 732.3774820586219,101.60484799490598 711.629329642364,98.37480463349152 682.2646666526822,79.48782571828792 672.4477316047171,65.17026440470238 650.9882879137026,50.72093139802644 623.6049972960038,44.51401422176889 593.6253558770427,41.624810525663975 564.8408131741861,35.14912156728042 563.0292840994607,32.43888257839728 562.6621958541344,21.228683179964037 565.3861803036672,6.231764079433788 563.3502289507552,1.4877832402793274 554.7954435572516,0.0 553.653110764591,5.013967643579576 552.196514802685,5.732988923964967 537.8873456062253,3.919099273408051 530.0815788198005,5.701493076405086 523.9683404770852,8.158225283961087 521.7107269415768,25.96341176014755 514.2493295660648,28.277765473012778 513.2537550219593,37.99188893843109 509.9339143674858,45.636151702287066 501.9775348301373,48.88960242229291 488.9530962569912,49.55094701666371 484.90784376718454,48.654445730663156 478.760843122156,43.503610770804016 470.7676212468349,44.63392081253642 462.52599299127326,43.012875532543035 453.94624351164856,35.636772073819884 443.2923623052454,33.395577487596256 443.6007871857431,24.443558889807605 439.71139797844904,15.920535197321328 436.0801957319373,13.533294777696142 428.0047608045233,14.238977304460036 431.31497287354017,22.761350608280964 431.95097279462965,34.01572998600193 430.32679676197597,36.22750491387967 421.9456843109851,36.20451941686622 421.7661795272251,56.73499315964216 412.94494594390954,55.35901761582409 412.9118084015978,72.36869931216336 411.34535544646917,77.98393672158909 403.18566725816834,78.21827557010738 386.2156920011974,91.62204743779728 336.3903871525179,89.91750611317116 328.72781096752675,85.6439105822758 325.4574837935592,85.85521220337546 315.2256096759054,91.41776603554945 313.76083517846524,104.92045599820722 310.7216209741337,106.7726344794338 311.0641370473244,122.13930671052526 314.16517454211055,123.55979021965913 323.72121744324784,122.81327778550133 323.6495503660034,140.12461471041092 335.9505167839164,143.1001776709951 330.8986709866179,157.71232637234277 343.4990484996055,159.06138640070571 341.9783217166096,164.75334386356815 352.4297235552336,166.64616907964512 350.630413310471,181.6071849776373 347.78848401923017,188.0663704606178 336.5389709610871,197.57851689213555 327.2769642976184,212.985403667691 332.0905153996104,214.44116812624463 326.13930266956163,222.70424653595876 313.73158246083204,222.7001700154441 301.3740920508283,221.99748646011744 297.63486016027286,223.38086529135592 297.1465873286494,231.54775257090273 300.6647013737563,240.49325985675637 302.7647717620634,243.6025349535513 308.8791866466533,245.76171670018573 315.5379983373721,250.1485954298936 315.56874881120257,254.1814151009147 321.01699922687646,258.4123903211163 328.00006167303314,262.02478770541666 336.882480289214,263.5971010494127 338.7151882358157,267.5938637827496 338.47889619648555,276.4776809968489 348.1304473379829,276.4484032750901 347.26316356889345,297.9952556172577 354.3357047346068,297.64498132805113 359.48643134203917,296.69213541381555 358.3666275690067,307.44122162480903 363.9066188868067,310.1877143104392 365.5243496122463,309.18444794712843 371.37094754377307,310.3447715176618 373.84017105212706,317.0506408018772 369.63397167222706,321.7620257980841 365.46446891128403,322.47065101505257 352.30941247984293,320.2415911677059 352.9095759045988,333.86840251900355 349.7198395345771,336.46136387373485 333.587538339486,333.75579096447575 334.4953340246526,323.6624564134703 332.9702678512107,316.5912461401334 330.8577284885414,312.4849062718479 327.70689778949304,310.9730190795799 303.540562494657,311.7238271529576 298.3310212527994,311.1535146387821 298.47297402187746,308.8773507254274 296.6574780522604,309.0585046937083 256.0658343146566,326.4859173778484 229.81016567240334,341.38206983689315 228.6818960629486,328.9770692119191 224.44978053985508,329.0274892272273 217.6790128795354,330.2304105661316 218.72860757788504,349.28706901967075 209.15193139888316,353.3634644189841 208.65003457145764,360.9077164572393 207.46109697282077,364.47124431053373 204.01136044585914,363.9615665905437 203.53293661591735,358.6883088034057 202.99582287834386,357.1809246580268 192.72426154176696,359.3284912011519 191.30744076145533,369.7123917822613 186.01853075089582,366.50382240570536 182.29573537468872,368.14430723449743 178.00872203071881,385.09810592110193 174.11149588334365,385.716858078673 159.0475344021199,382.0631645979844 157.4375340611339,384.37915062777483 156.5296661475997,392.6815350477102 154.1226229455741,395.1384016131468 153.15358107364034,408.2729628626871 146.39129252380516,411.2321048076881 145.2241574619193,416.5207845838403 149.25874357172285,419.78408654374573 188.75699127856757,431.9986352776924 189.28646426082784,439.81657962220845 192.33804502908987,459.85292752797386 188.50548890768042,495.6326968602891 177.22353822548763,526.3046611612697 162.7423765838596,546.1049453806017 156.57360204607548,570.1816047308866 155.35032391982102,596.8397478230656 149.1061634143317,625.0712551171748 148.63788220866886,643.8541878986002 157.5810901197115,643.5186358852719 158.10926109001502,654.8703596676146 148.86940335417287,655.2342518634238 148.53150067026385,668.7711827721852 138.09149038310923,669.4479097611118 133.92264127354682,683.2584260330337 127.96773624744068,675.8209411749608 125.7896190024422,683.8747604003206 119.48308345800935,683.3793072110042 119.49560868943101,694.9198875469681 114.08971483898839,694.4997782853461 113.86986486026066,709.0465954439965 80.23209279140889,708.0338818700955 71.96222797208871,704.5667804469158 63.367877412785354,699.9771571987565 57.99165918058168,702.1148521385105 37.05877253115361,709.2831400837474 15.89119974016352,722.8115127684918 9.235986170388022,722.697498747598 10.42990707438234,741.1350387641364 4.082592538172228,744.4794832815633 0.0,758.1403001212558" /><circle cx="482.2271321401261" cy="505.764247567309" fill="rgb(100%,100%,100%)" r="16" stroke="grey" stroke-width="8" /></svg>