<?xml version="1.0" encoding="utf-8" ?>
<svg baseProfile="full" height="1024" version="1.1" width="1024" xmlns="http://www.w3.org/2000/svg" xmlns:ev="http://www.w3.org/2001/xml-events" xmlns:xlink="http://www.w3.org/1999/xlink"><defs /><polygon fill="black" points="552.9824308570447,111.92034627293742 556.8173168110472,81.30221441284709 557.0055784020719,78.76432684398094 551.7459035836683,72.90988942207798 546.9389110196855,66.62491918623493 543.095596455621,63.09247773990569 538.2340280998999,49.009869478100086 535.5431425097013,42.31548865964885 533.5076420358214,40.45046413229932 528.3163788265318,34.327848475896076 527.8076766052584,32.36742770426167 524.6758923261581,28.282397127957438 523.0964161635295,8.616663635328678 522.5798204487093,0.0 505.66623985577223,12.71366015232104 501.5797701340439,15.591457462054905 483.5185188965812,33.75068886834299 462.2447885114313,54.240739936586124 433.68142821290695,68.72276652058952 431.889857406632,69.401489971307 411.1042880231884,79.16718429209402 389.52643280652285,84.9490176846374 382.0876977062793,86.78750683608803 357.1230606667567,90.68818368233883 336.53547335132606,95.59503410333912 320.9529467329409,99.88236614928451 307.1481906527372,104.48005478679886 282.973549770556,108.29872808900438 253.6779994973926,124.11547721335671 254.98833158153388,127.79597072719412 241.4866451403676,135.5820258505496 205.95989339712037,144.46735055327974 202.29787208899387,147.36093989903998 170.8933987334636,143.27391087168485 163.86636140156008,146.7075963188645 162.5824528292859,147.95189589677238 155.78207666332332,149.83466574377735 144.04425164019133,152.62874129302156 126.79075703914094,157.68398328576336 118.68707114503724,159.37434272804785 108.27985264682306,161.06832296329685 99.76221090621267,163.27418395705217 89.36250026870556,164.21346535008604 77.3313176862745,165.7894595297986 65.43563677089789,168.0461110718618 56.70607693467109,168.84478224628072 51.12080198269016,168.7449372282415 47.503333859205426,169.3879717899987 49.53419647558807,174.50424089114176 53.21666948433316,177.5330978152574 56.84013341827994,178.60227535573154 58.854062236701644,181.9841365434139 56.892344845550525,186.07709433806156 58.91793772363429,188.36473267753308 60.29316951012686,188.31281459130912 61.60089783193588,191.16807329867993 63.20202252296302,192.07865673383697 64.79706582365942,190.1086907498401 69.04387704862141,190.66667463712395 68.56841839273024,192.48146719859722 73.91047555303611,193.1162733375952 78.12152066047256,194.5227396556487 79.54133950069951,197.8389258556649 81.78268122459644,196.79833710104515 85.77666767084294,198.56004454590743 88.6975091098527,198.02451652716957 91.67271860654229,202.53209919118285 93.29725110254957,206.5159397165105 95.19529621385594,206.25132676603607 99.08141144198416,209.76228009480826 100.08302241118167,212.6046683790371 100.02991920310093,216.97527039585293 99.01979813294784,220.7184061444259 102.79706569969295,222.21633339573407 106.20899795711452,220.16676973967674 110.50435164012158,223.47136666266147 113.84595542894704,222.7578848503565 117.43500270868671,223.23137324504933 120.17185270959705,225.7799325555992 121.05121300080631,224.9741376029748 124.91176823897693,226.05670360833176 126.56129342171674,225.16046405847226 127.8355645444904,226.35934091832075 127.33154607835105,228.23692087286406 128.66691913266052,230.2402782544507 129.85469993076666,229.85301496217403 134.19138800259938,232.5681692866077 132.78310768141586,234.11398576959414 134.34035219562776,234.5939155554213 134.18373449081224,236.3033554892071 135.67171855727977,239.01413766378914 137.4511115858586,240.08129287243946 138.01233331546203,244.0638911888276 141.06626797360187,246.36148478862697 142.93855648039653,252.4700304930576 142.2350747198027,255.0005206055929 145.06791080512173,258.6809171764369 145.15636111333944,262.3923537464393 146.41076444910897,263.41852104102975 146.84959475918996,265.99646821546116 148.98634300504116,267.58625082965364 148.69666917879226,269.91167434030785 150.13426826724913,269.6347799261689 150.0223259034872,271.6928773200664 152.14645139543717,272.5301906773558 151.6144712708169,274.9576962904621 152.91965208139248,277.2462550893 151.8866140808715,278.44499090441263 153.38449668903888,280.45661299247786 155.3857936892138,280.22186510705455 153.0238455081279,281.8648121381384 154.87014562570266,282.41683156108616 156.87457283877362,285.5364053236814 161.22975682674226,287.12385516538177 159.19295978523309,287.87602684005003 160.37501934347605,290.3835417293284 165.58683632111126,290.48986816803256 164.21778043438235,291.5739155082 167.94787876015656,290.8684803895044 169.27080558988322,293.49365447849095 167.37680528274572,294.4756446466005 173.89975050221642,300.45903155766337 175.63717274129004,299.76529767279237 174.88360384036744,301.7794402190899 175.774394319901,303.6349255674845 177.92751562736822,304.35079580097886 178.6678165431642,305.9766054630883 179.56437506427676,317.6181577977975 178.09655258031677,322.495488361483 177.2391962065223,328.2417913669145 171.88007112113974,339.9701904829916 166.83852800886388,353.5069548459535 166.14798783686993,358.836958492682 163.57046609286013,367.07842467743285 160.42580341384604,379.1518750075568 158.49763780895734,391.64435575646405 157.3431303996482,404.7643796587033 157.21244935923195,410.4209487902907 156.0723859332261,416.5988481842545 152.37660693137707,426.86078810105175 155.0841500712604,428.448720547024 161.84309018289278,435.00489977681536 164.7940816345005,436.9083903618757 166.43125009846685,441.69999935216504 168.3724117542468,442.6543535956905 171.43557833333978,447.09458392508725 170.98961744858067,451.0391485456747 171.90689313468206,458.4498206679656 173.52996486346836,461.7926970651621 173.66305216919025,463.7801355113204 171.16325409809082,471.0793845781868 170.81131153208688,479.1188389452509 153.36939779471786,481.4455574709758 144.27243625434835,480.4998219994984 105.17319454013587,471.6661234339406 103.75178383065716,470.98444803841403 100.97945289477367,475.33702968788464 92.78616887589962,476.868825797727 89.27340100063236,478.133777081013 82.68319743865699,477.35794411855295 80.22729795922466,478.0734515502129 71.16054784569378,477.80537390291204 64.6488197956866,477.9397356556392 61.428889624873314,476.5557760699286 52.96178935085319,473.8345221007786 52.014699552454346,478.4463481490965 51.8156799848704,483.284456320755 53.08646253422097,491.61301120967903 56.25707337466362,500.3619045295478 57.576042754852786,505.5335280676003 57.372739769367755,507.2337021341807 49.12070677710276,516.5752158969196 46.98215300887027,520.189942347872 45.99321982281442,524.3860116697062 44.278032377315,526.790756195725 42.542792140444114,527.4432643004649 38.5619075720143,533.1511216846595 36.34122289928763,540.5019625484344 37.096073239696246,545.543708734358 38.72586763913539,548.2262126520842 37.753693002450696,550.8079318139552 32.81210457408077,555.8629070775582 31.60355795333735,558.4857819684472 35.64562035170543,562.8409799850699 35.694538545772495,564.934132906247 34.37471612284314,566.9177144614162 33.060244021868186,566.574161512945 30.450309591846285,568.8197761342019 30.416155373360205,570.9709909720068 28.486450660596727,573.3695732172317 22.474344184892278,576.54521618685 21.99171457468871,578.5855509329858 19.098292213532297,579.4137431366896 14.917082949428385,582.8015143727798 15.244285675936535,586.2108446116167 13.624220341125707,587.4946850100155 15.074625131654917,593.9896249359688 17.17795563714685,596.5745384090575 17.82856158915233,600.1222214716755 15.05784217194537,601.4490284972939 11.008533223607914,600.5648865950106 7.606384635653858,602.2841681993079 6.1542981003489485,603.883722799465 8.011723549000132,606.232941639839 10.095174105892129,607.2675578182664 12.574185869141754,611.830373312464 12.912045602203689,616.3413370158585 12.472127672389355,619.0635560126066 9.76515520235367,626.8014580602994 5.583779631562469,632.7403690463161 2.0689836365076983,638.9765820722369 0.21023225818397204,644.8129965388775 0.0,650.1268450591277 0.646710612119923,652.5907989695693 3.2999310460539735,658.0923366120074 11.060698739583984,670.3440337718539 13.112889632663618,678.9682726218365 13.553294606584267,686.7528660392588 13.66971438068186,697.8071473901665 13.075332188816303,701.208155047721 13.277881684293042,706.033026319092 18.40291303454832,708.6314464027705 19.876975352315444,710.0023166525586 19.291324833413423,720.5494366306596 20.982479941949528,721.1573720470537 22.544062690481553,724.4368031761685 22.457187346029404,726.9768348295293 21.041118589425214,730.046617742544 24.503291529669312,730.2673286979123 27.500474749095353,731.9194300724498 30.031274718354926,734.3552137012798 30.393066301377953,736.2037951054449 35.24290304606608,739.3563195690303 34.81104986116308,746.4151292936115 33.49995942578711,749.100460249877 33.57830881409511,751.4118045964335 35.80291436424345,752.103739915329 39.77041113058801,750.6743731669633 44.30982899805339,752.020449219187 48.70976780725694,749.1969288309284 51.88604190484866,747.8675529151811 58.61326727822253,747.1194956741447 64.74593946190225,747.76639746146 68.25305075002697,750.8174505130437 70.10712510928977,753.5627944148772 71.74391471382333,758.1852025540813 77.15815824851947,768.2924045107741 79.43435319924262,771.1693226660296 84.85964371999707,775.3712988225843 85.96670017878907,775.6128034752015 88.80751873934322,773.6880642220424 93.05341594313413,772.4387586014694 95.79689642960983,775.4160631352802 99.51809009343177,774.5985132867083 101.40035423822984,775.1077819840897 103.85657370565315,774.1350562730852 107.01958069260088,771.6652776631207 110.24858834381132,771.9192799781126 113.57047686059623,766.9409204290787 115.45469316542192,769.9430572129708 125.30014140346995,776.3050371278048 127.6266635962943,778.768526624089 131.9053128745208,785.7220813884985 137.25819613965757,789.3570282094638 141.6890964820026,790.2844853724812 147.39033627935538,788.6321519687368 151.14823521968046,785.9128793489385 153.89411001737716,785.9687207480857 159.32828898886763,791.1393503682816 163.39307110958282,793.9577002573884 167.9411098185161,794.9174266391116 173.5159475110945,794.6162606308562 179.7841996399296,788.4642995546326 183.51471056846208,791.2052809783111 184.4369875465136,788.6009036766105 187.0381135520031,786.8652268280981 192.01967828529288,788.9719567556091 198.8549456754213,787.5399619121208 200.79673730636455,790.0153667010613 205.62393073462496,791.372362768031 205.99311729071977,794.8500945796059 207.02097298236825,795.2599223997693 209.7864462509683,799.1167355651779 205.48900513713866,801.0283394918084 206.31816991173991,804.9890231690376 208.72141964915537,809.1120507156618 215.36774388708392,815.7861963894919 220.7963319170544,818.8765313847796 224.70306062131064,819.5992326487816 228.26783736834227,818.6374365907318 230.89055163530375,815.0922305988443 233.03750783217635,813.2731643349704 236.35427085223466,813.2400470475964 240.06038228271504,814.6137008845996 244.17108533526994,819.6116958278603 247.5484473469509,825.4092261181249 254.17158463650176,828.507021534374 259.33692451976873,833.3264473558435 262.22906757684217,833.4823436835335 271.1004887688526,830.9411366362135 274.30551951493686,830.3636257395019 278.02572978540763,832.6523183851766 278.83737038049253,834.662568031197 282.21738903223854,837.2381829484812 280.72601477475536,839.2703768237429 282.321138073991,841.5867475285214 284.21963478057427,848.4564441035941 287.60998386519384,848.9164407937544 291.8157949866368,848.558310070047 295.2579594908721,849.6284583245131 295.0738290857868,852.5848865020428 292.9426338286877,853.5737308204291 289.14124021602277,857.2713338979238 290.6089124088253,859.6975127802243 285.120215515982,861.9626412853725 281.71684957497,865.6024382122057 285.2205504275292,871.2416013127363 290.8524394199366,872.5030995806335 294.4176975221825,873.9085919116204 293.3355047548406,878.1270947426143 295.91188959482827,879.2085581238006 297.25204187713894,881.3113284796573 299.38315129604496,881.0136634376214 301.3011138524256,877.9495046734687 302.8819434888893,877.7981131894484 306.3180316202543,881.2640939051887 309.2059347367866,882.0767947681139 315.34368509922433,885.6043474458959 319.34443902187235,885.9690176449161 321.1458408706079,890.5877922221639 324.06440853618716,892.4748712937748 323.89434426580743,893.9985170893656 325.8013319970241,895.3244417822885 332.367765781186,897.1695878351725 335.21140950194734,895.6327696443126 339.5788148520323,897.6193091166491 341.16563998556643,899.7189156424819 343.36519658311227,899.3688901977542 348.0449922279482,896.2077622113076 349.61423140588477,892.4256219432976 354.10456857335845,893.1540550085795 355.61876371968685,897.0177648635141 358.19214887577067,898.4978203641365 359.3205368786294,901.7909798139062 362.577038080957,902.2294720599801 365.69227276360823,905.1640533410041 364.9011826635365,909.2837370744261 365.79847074965056,912.6939235765313 364.43886130799785,915.0481004960354 365.724567600234,917.1891503598921 365.0728203034002,919.9908883751344 368.60235530315794,921.8026198422516 367.74642084571525,926.1078717586654 370.38186801669576,926.6703710344766 374.82857182593807,925.2430872597689 378.4672887236048,926.0025705046133 379.4422750176709,930.4815105293525 381.9176266893189,932.134524080346 383.13844209442675,931.0774037581436 390.09305657399943,929.6048799841595 391.47308230738497,925.8843998876627 395.69829158269516,923.7447359992502 400.91342240352947,919.6713058849817 401.875969549654,921.3769339632005 408.61589838257703,925.437189139264 408.94945548234944,927.702342015912 410.8664653781976,929.7903876339003 414.06922717106505,931.3080645273685 417.0094218111854,930.6349344807098 418.07685416320254,927.6172884181909 429.5928851542816,926.7872567672744 434.1173710024354,923.7113824307238 437.55325341799437,926.754269846197 442.0855436377229,925.5592962791303 445.29161902399005,926.2675755546031 448.9499148960425,926.172536268941 451.4294222814602,925.0900426035348 453.8493946245232,925.235866904285 456.2612659335602,926.6223179693889 459.8388122095542,923.5869618047841 461.0422447832013,921.059352927137 460.51837310514566,918.8823555567373 461.9075811278118,917.5284640672038 465.24811471811154,916.4405434486388 468.81914869617316,918.4805819461433 473.20456551184736,918.4258042952854 475.5847722908424,919.6438956445132 482.98059569411856,917.6823449502263 483.97799627095134,919.8412459060426 489.01798883715526,921.0645297497052 489.7216269929341,922.9463427579858 492.7063125334197,926.1974641001102 496.3354168524636,926.8310492050407 501.02400637881317,929.294005974828 505.590419222906,930.3983332859513 507.85566795698986,929.5328785862041 511.0811211691456,930.886972929282 512.3167741333597,932.51528445501 515.9194300348715,931.512041996671 517.5403503378793,933.5849261754958 517.5893960617431,937.5575721141576 515.2085583320072,940.3961165276444 512.8376243748196,940.3072886774631 510.5146561819274,942.6507273656525 510.4586812137507,945.1112292805627 507.7695183487693,950.672047291856 503.56344556414894,954.3582665038869 501.0370678345637,960.6182214287874 500.84017625167843,966.9055649021576 503.93892958910163,971.9947068910027 510.0748936849309,974.6459809685742 516.9298717143035,975.4012570819013 520.4973046098885,975.0158618837296 526.7979234387425,976.8509743160523 530.7561386289613,979.6126837973134 548.2217759071543,990.8277597856469 553.7077616012031,991.2894667679881 565.1010582539707,989.487526157202 570.1917164365101,988.1760876809025 575.0127731535657,988.0986669717013 578.5322760074415,983.9994580438787 579.8366582357856,983.7757006162294 582.302815954673,985.663572548441 584.0941608282909,989.6049988830554 584.9785944874235,993.2527939018486 586.826701139044,995.9327040667384 588.9704727311492,996.3724305564117 592.9317278142701,998.9836141460588 592.4422767268775,1001.5811947809023 594.6575338003333,1009.9793025085196 596.9731421639113,1016.019068477154 596.1792061656907,1022.3511426274657 602.1710431363763,1024.0 609.0027408521171,1022.3118930754842 610.4953370924977,1021.1480299287991 608.9032300537261,1015.0342378901095 606.1528652545238,1009.7510491197016 606.4925219067597,996.676676868004 607.810099019884,990.0002331164577 609.4460619442151,986.9573395642399 614.5922227097493,982.8246816637538 615.9299973851796,980.4470560453815 618.6052399588312,979.6873163613466 622.2506197504,973.6012097479307 624.9342961382888,966.9950657507845 627.5525740726067,963.5022280777131 627.7035890014416,960.7535247350313 629.0938513370808,955.9575897412934 629.2441890011175,952.3618339161826 630.8638231822459,948.3792810633624 631.8256787898393,944.1637578422254 631.6804649922352,939.1447977190951 632.7006420648684,937.5572466657466 637.3372627748452,926.9749343912628 640.088568477775,924.7701822249284 642.8112505530245,924.5906781107067 644.0374087346147,923.2672541559551 643.8604396455164,915.9359098714317 644.5768966342486,912.8955030136466 643.4275103237678,908.238525544072 644.3326181629122,900.9163586989347 642.804115832315,898.4713194249507 642.8232361686223,894.1966338198632 647.4136420220075,885.4316504232027 650.744314544528,882.273051537637 650.763448237956,881.2102694386676 656.4565870113373,875.0241607973976 656.7866493273046,872.6794415295807 658.6594132820887,868.6185197663078 660.8600371421024,868.5486058823035 660.4835623140212,863.2356166580937 658.2295885611939,860.4256186102673 655.5086315661783,859.2746200058199 653.5991450224824,856.5242150812728 650.5580793753785,850.5383233400845 650.2714776799706,847.6017931834743 651.5342021387684,844.7045481084393 651.1657981447346,840.6322203134955 652.945766420707,838.2024274374671 659.3620927107143,835.7531942657853 661.5130757433778,834.0430235133118 661.1414351172403,832.1271457783905 661.6602627293146,826.8929468795095 662.4096608170305,825.9939358251481 662.3808845642958,821.7885643957784 663.9884312888555,819.7363325449684 662.9989723272349,815.4971166368337 660.1404261763296,813.7987121336428 660.1635483141944,811.9755996026213 656.021748429497,805.2279291576847 655.5231692873704,803.1349563904197 656.2895179201956,793.5857095152684 655.8309372738513,787.5404570703705 657.907605225128,782.5063071418731 661.3931882359633,777.7441383922893 662.7656102696457,769.9976628763851 665.3323827656388,765.5541112510919 671.336497344188,756.6275603184703 673.8026797784515,755.0010649126301 676.3910569579053,754.6628641464281 680.2174318054601,751.0429202548388 683.3926412704991,750.9759230637151 686.554603106156,749.0261305115896 689.4402210845094,745.4548498987074 690.8932883676395,745.6749103569373 697.7094853439149,742.2490499849257 699.1527304537375,740.4125566936057 698.3542009081116,738.8512804918895 698.7216397740619,736.0430381470721 708.5189543242315,728.4522181733734 711.2927583803803,727.6130030716381 715.4238314744997,724.7702148352319 719.57917843342,721.1677594500031 722.386310022751,717.5850501404666 723.1355632493454,708.3052622040545 722.6134586418783,696.0817409961551 721.8243691637591,691.5967411314052 721.8392293071063,684.0213380698237 721.2404887662256,679.5628076952471 720.0432139374825,677.2771187622444 720.5975299916605,675.4425025047852 720.2140507363,669.9334687333296 722.160353264593,665.146388196115 723.1650577236701,660.9120113692461 722.9540920755294,657.4092127872259 723.9692025184722,650.5098153366456 723.5202397907481,648.1202723823479 724.1542200246874,644.1054461810648 726.2250684885918,639.5600117230767 727.2575602497948,629.3434113469784 728.2063707487292,627.7872126571599 729.3820679722576,622.403811344609 730.2683006031305,606.145411593003 732.1744982192663,603.8645491824927 732.4932739348762,594.7680729314068 731.4238920936357,590.5251248666377 728.211128197306,589.3864670291698 711.4612966791963,585.3503570698634 703.9622279949956,585.6532200062225 702.5298429328824,585.1483261326074 693.3607705784899,585.7262027282915 682.7832346110879,588.7045617578705 680.7181726848136,589.9031261873525 678.4647332048747,592.8275302046403 674.8390309119201,595.4515691358329 670.9783514908271,596.3495986948765 670.6212379091004,599.5773321779512 668.8192895457935,602.4926489977712 666.784198963343,607.4200274536223 666.3155166706431,612.1826032457307 664.0267538416404,617.2994834816185 658.698889570624,621.265472842214 657.5499505292806,623.1124196882009 656.5626167160989,627.2382266226439 657.1025752195536,630.7369117878764 656.2475920316165,637.4508995889091 655.3557923539946,638.905207480152 654.9566607704403,649.5500332887952 653.6245130385979,653.7011570524128 648.2803508828608,663.2509846118198 647.0115540634357,666.2971589175413 641.1969074332292,667.1959401644475 637.6179335740437,670.1625115835506 628.1199568489745,671.7759606760258 623.1336457704194,671.995496352215 621.1651182710223,669.2242559961637 618.2215197837019,668.7985059615305 612.9875556082276,670.9397556547996 611.7682875686119,674.1820874649854 610.1924248444046,674.5814528839719 609.3964582612522,676.746988030977 606.081038063002,676.5362635918398 603.6028723679773,674.80732338475 599.6397428115415,674.4760180747242 595.1619315135148,675.6192650975335 590.1491376047628,680.0220765005595 579.2926816407721,688.3120525341052 577.8557227144033,689.7623217210637 571.0961691335848,693.9214199603782 569.0779611574224,695.9719706840376 566.7966687232221,694.5529454267144 570.3978552737777,684.4440472778233 573.1537170550373,681.0694250333705 580.2357695790349,670.3404153435231 583.1708156544518,665.154966429935 590.410940859745,646.4318121501228 593.9556722414441,638.0251597200312 593.801417421544,632.3405829126082 595.6980675429268,622.9293581607864 597.0925539907523,617.5145847224667 596.1940868700563,612.0896197651823 596.6451813453907,606.9786947994057 595.7225509592793,600.0283591318039 595.3354074618908,594.0674110773597 591.9118984140061,588.6805067027606 593.0294781350141,582.9763918883084 592.6783436101497,578.9532482404204 591.7352512368371,577.413218128667 590.2823845743873,566.6776941771122 590.2687123452774,543.8114823379752 590.6658079491849,537.7682097742228 595.0033595887375,535.7999513101706 595.2062897734512,528.2906303632856 594.9734259101153,521.0168584359747 596.8750278441009,514.782983100768 599.9333459699317,509.9196870632792 605.6224964497738,504.9133875542824 612.2029593167765,496.16125517958494 617.3510021760162,493.0399128982758 622.9959817821755,485.9185266345088 625.8796114832413,481.66580841857774 627.75907818206,476.83577683445606 627.0299505231133,471.6315155842535 625.5082789822234,468.9282167541893 624.2624194897319,461.27331276245263 626.242291828356,456.46872035792444 625.8600573190781,453.0419057896976 627.2307814839426,450.94561101397744 625.5634763775498,443.0287035609123 625.9809329556695,438.7673400750099 625.431980576862,435.3271435858171 626.7298556999867,430.16227875312825 630.1377094411919,421.2415891909784 632.732716165076,418.09939644861754 632.707169936089,414.3390088704954 634.2352235480341,410.03847070078155 633.7115967552863,408.1404614782507 635.9998489279642,404.4410168610284 636.0437711897016,399.9708857034118 637.7356178413863,397.7028196669429 635.6214344392607,393.63591236680816 636.6818686955894,392.19741758209534 634.1149240967486,390.45998961365535 630.4879983643608,389.6116568772784 625.8022535171347,385.15148747285866 626.3079396026125,383.0372757260908 624.6525336538514,383.91965775313975 623.6279167526436,376.5736960353913 621.7747107982641,377.54270756713447 621.8151371847714,376.0172618410095 618.7267671710431,376.5154155603851 616.5184212768925,374.19700183883685 613.7761334110011,375.5792293997516 617.6232128110539,371.3765160129826 608.5083343804538,364.34525370917993 605.5148193067092,364.0411309582903 603.9502835563485,365.8606212124332 602.9183782812557,370.503824579994 599.4653529234826,372.6896350804344 597.0823325966,372.2992222094281 594.2051454528703,368.2415043154708 592.312466207102,369.0447756326471 589.2496053208445,367.55671975683356 589.4964972119141,365.69094781357967 587.8489972627067,363.3763930981411 585.2637962539824,361.6871736230489 585.2808618321875,358.951093320637 583.0346936956096,357.3325733408026 581.5897392671508,351.92102307649793 580.2874654929086,351.06096492022675 579.8735101588767,348.21191676796775 578.5188947578566,346.09914344775257 575.1784338645185,346.60662749980725 573.0215435625612,344.43059835405415 567.4680972107793,344.00062554991564 565.991082312966,340.09428558614604 568.1690929867273,336.8411180809911 565.7007347528041,331.88090528932594 561.0669499406631,332.2990971957871 560.7676945813178,331.0907802322371 557.3546561381897,328.58465204752054 553.4059385335503,328.8683060994814 551.5081179274765,326.832031870426 553.9469384718757,325.1330048688834 552.3883129604448,322.3947766715023 552.1059645582017,319.61232253878575 542.8704796512056,314.14345492555515 541.3691734416346,312.47412485236043 540.0377175159948,307.94436490540613 536.9902028808858,304.9398537179035 532.5158437687016,301.7314675227951 532.4655489568071,297.2608133241839 533.9752391228601,296.8680570900758 543.7104305622449,297.8515461339937 543.5437972018568,285.8322920822509 543.3732843220768,252.99563614874364 537.8681329179773,252.38934035611658 538.2350654873817,246.75060913527898 537.8154981469289,229.65201604293566 538.9816987504953,214.6761519754998 528.9422156496549,211.5953878414241 526.8463822422243,208.48349344293524 523.8267281041304,207.0872753357379 524.2686572119834,202.16663618071755 527.0134353410168,202.82566737793707 531.0632211445937,198.8826208304955 531.6462611333208,188.88420689777251 529.7701390158907,188.39332123955342 529.6743268200676,181.86002317893428 528.9678349993547,181.11071829187756 529.2787249801706,175.46128494239917 528.3940118037873,175.87021451424414 507.24010099436106,177.27379278826152 494.0607866987756,189.34762355467376 491.1059231131179,185.92614801815114 494.54845994763843,182.83162836187853 489.54058220927107,178.15260077462653 501.76274431852033,165.93387187054384 494.4287726290403,158.17212610062893 498.02341436167296,154.94281639269013 500.1201397440406,138.6214010120524 504.23595294096816,137.14891708281914 506.94490519617966,134.04616734238186 502.380050216406,126.37651071141079 507.11623618057575,123.61918806964286 508.9278731836873,121.81412591180106 504.41110995684056,116.87666713453655 500.6406215653131,116.31743081413947 501.54632767322033,115.18319491618081 503.23688239276134,107.41395279656808 501.8719101701851,104.48347224341092 502.7447192776769,90.47093159940675 502.900414062693,80.63195117805765 551.3348942416081,82.36499399669196 546.5159574130595,93.21931840003549 546.1998412778645,104.0665561194129 547.3902369210502,108.16183976489708 552.9824308570447,111.92034627293742" /><circle cx="548.2655470990118" cy="513.7856528174102" fill="rgb(100%,100%,100%)" r="16" stroke="grey" stroke-width="8" /></svg>