<?xml version="1.0" encoding="utf-8" ?>
<svg baseProfile="full" height="1024" version="1.1" width="1024" xmlns="http://www.w3.org/2000/svg" xmlns:ev="http://www.w3.org/2001/xml-events" xmlns:xlink="http://www.w3.org/1999/xlink"><defs /><polygon fill="black" points="949.1634365839451,517.8972139108466 946.439943447611,498.1578903344156 942.5643668730955,487.77726992059513 942.6016911951003,482.4356511773449 940.6327946109797,476.17193190096975 935.8506766580206,470.0651620309087 939.2417650550992,462.8047595421274 940.3667879753629,454.98053198922923 936.2487326748188,448.1452923691784 934.3972389083491,446.1948595510987 930.7556370011031,444.55365049947716 925.8304017189683,446.05511057973627 923.2702748540361,445.570053396821 918.8122898489119,443.0608391871426 911.3148976904736,440.5109504901335 906.3502781563648,437.48680277089693 901.365548891381,435.45234544585935 891.3699576607776,433.88776406383874 881.4105906506925,429.83814589274607 876.4208824229537,428.3058633597144 871.9529135539219,423.28184046643923 869.9616193136281,419.3493608423951 865.3584998918407,407.43128644309184 862.5581167821915,395.52344968896523 862.557679639559,382.25672898684024 855.5813824961599,364.1669573700408 847.2173190513089,348.87263704814416 842.0692904240193,340.07543047054435 837.7179008018303,335.05631400028756 837.2352341167535,324.2892511123872 834.8954250488504,317.75020361908287 830.6776595615422,313.5385674825177 823.6422803821645,311.68615133864137 816.2610646331359,310.3192481671957 806.5174970149643,307.0991152448353 801.9742010923266,301.3839366528315 798.5155718062716,298.23204086788724 794.6081604971153,296.8714211786603 792.056760481466,297.5477764025776 784.9791422154325,304.07697469915934 780.8578242472,310.15792762996466 774.6393588721679,313.5401310028068 772.3589318203271,313.7297948927675 768.4564215640013,312.09195524942845 764.4840382813979,308.944950943805 757.5592386941013,306.5801693775337 752.6948293231923,307.7021830099227 749.0432794108546,310.77563428238375 743.0607317164701,310.972469435897 735.9302734864992,307.46410050286386 727.2389108581328,304.44518808642954 709.5662166781705,296.4163506646314 704.7174449695847,292.848639052341 694.0285678079222,280.98609203994647 683.085782208203,273.17339586311004 671.6767544099507,268.13453639316344 668.3639912584694,266.34893815612463 664.152008626241,256.9912035341848 663.2214022211026,250.43760913369044 660.8832355823964,245.76598367787528 658.5478480959783,243.42225066224273 652.4534780257367,241.6663322126609 649.0429637855615,239.52492005112606 646.4047796697489,234.6148754391304 645.5047499736849,222.92730342408765 643.4585785094775,218.42275819250563 639.9693534430436,220.7212356023448 630.8403284546274,225.3816005411221 623.3219437368272,226.27289662792998 620.031279778724,226.04173357094442 609.341530261965,222.90413916919942 601.9909415434736,219.23614107183562 596.9274045477184,214.77756791674256 591.1274568303651,213.35132275704052 586.8987939635657,209.72856888702233 575.4247402090284,201.62079375278665 569.866027492787,195.01383013801592 563.4079692839838,183.47429071493082 560.5881916118163,180.45259204273123 555.757790638392,172.43414173469614 552.422119275906,169.78048846370655 543.0580440638971,169.59716796464363 537.7776999362701,168.27991344404245 532.3803123315157,162.64187273363984 527.049253977329,158.53728165517782 525.2292156398834,156.06546171808566 519.9337867203948,151.3165599498518 518.112238458702,148.9797754336181 511.1856022528833,142.78217474248413 510.91003251385695,135.02404726260306 511.75041501199297,132.9122852800026 516.645853427571,128.25823799680154 522.4856833805085,120.84013888182835 523.2992440194328,118.8188333357366 522.8051245989001,114.13030321628719 520.4122727435998,109.60258238811787 518.135603434856,101.02497306810449 519.0901663872627,98.8946424191023 524.2037759291194,92.73248462243271 532.8915846283024,85.7894777573282 542.4648336980706,83.2027026186305 549.1409532782437,80.36367465538922 553.2192746034065,70.86599839386827 560.304424128108,58.312160154473645 563.2968728854506,51.54571880980541 564.5547851198329,47.03109063591103 554.1828077856601,34.8615334805786 545.803392918911,27.34486368810542 521.5643541367313,29.62325003412309 520.0559957048123,28.78757516743474 513.2216306605669,28.55156867908522 508.2651903345973,24.33129397120433 498.8937385625635,21.350468613393332 493.3878011823418,17.061112129354456 488.5779768023035,16.481517611080335 480.6354710619313,14.578515202247104 476.12271182816903,12.086305647024233 471.05993463806516,11.135531220064877 463.5212568572029,8.09396600893001 460.33619899115405,9.421159718916101 457.09728630005515,13.656023320840177 452.22884241571927,16.21592890720126 443.44957573119865,19.125694215018143 439.9851558872133,22.325312287107863 438.1070614116945,26.86046671570898 437.59294959584395,30.065895769593908 429.45206543403,31.8933462809523 421.85852895227,31.634154689737215 420.0747050880771,33.95750837521666 419.2716533893559,38.22030283072331 421.39939417172536,42.50220913556086 426.46852009460736,45.18626864279349 437.12420273476664,48.6865640198115 439.7806850601815,50.83070200099485 441.3745468201071,55.369328812263916 440.59779563171645,60.704590458122766 437.70457716867736,69.78789901831908 434.5936996528935,76.59358658709766 429.23000338666617,79.93326079736755 424.38665935326696,84.91185585955384 418.74866600369006,86.56663370629644 412.33679919172,86.54580565208232 403.8151559614125,84.38942384742768 395.9118889283376,80.79853912870703 393.37915025129706,76.96315897439115 394.44263603176756,71.75345469024728 392.1512832474923,69.06188137525737 393.2085724899179,66.51463942646501 393.6180389655663,61.83712902514708 387.64037324882963,59.74113491841172 386.6762298805651,60.21842575896824 379.83704387075915,56.57179353683614 372.1548949684018,54.2499026148372 373.18668194989664,45.3893687222926 374.53324852340523,38.063482516532645 378.77248057446906,24.011756316032006 381.8177913579482,11.933932917168363 374.7546150446321,12.54607511970812 372.8339681154641,12.156060698936926 371.4783708671619,7.72181528607382 372.66984681666344,1.2910674290168345 351.4425248335814,0.0 350.2609918482346,4.084989976992233 347.6552477478918,7.721905996954206 347.5268221422947,10.974267387978216 350.09648920934126,16.87076734944992 353.29314570188046,26.490039369638453 354.3645693328973,32.35835527765323 353.30044261772014,35.56767950591052 347.96959320557465,37.700962795994656 344.67371242757605,36.70159501716091 340.4846777990119,33.42237463499123 335.15801904426377,28.07052184744566 331.75939280576995,20.887212718092087 330.26543298282354,19.89986407361016 325.40079372462236,12.482590686653907 321.613776458724,11.923966957282573 311.79981036156175,16.213328412178498 305.5179115997171,20.831964656614446 290.46850318063395,26.34798498855912 282.45057950518105,31.738532036783795 281.7478480403956,36.86180895232599 281.5221547708772,48.94472025673235 282.1875250642453,53.10465849778177 284.91740652983594,56.15975828942658 288.30976335753945,57.909926725086734 297.500644487904,60.212173674412725 303.20812922619314,62.61261483756596 310.6487657604518,69.56542902427498 311.5143880397742,71.53487180125433 311.1896018154191,75.47801187893435 307.57925174775255,83.78649047609554 305.18052533363687,104.18983489735228 303.8581255245864,107.36682030494751 299.26010953655015,113.50035583550994 291.2778479290486,116.72317262756337 286.1290276760376,119.34935680496505 276.601006498816,125.16088645295429 268.485115815877,131.30079539342694 262.23386591052866,136.89135016260252 259.4061137670817,140.44476688722762 259.08120725950675,147.01282624167288 261.48452794803944,151.16695512471756 266.5204173412808,157.18325386764275 277.90565023199,168.92703962220128 280.20568910860715,170.79356839931097 285.25385866189924,173.08372528626728 298.9407832851815,173.73218130718658 305.500030077214,178.65543819344475 308.12448927833736,181.934716706397 309.22341162158267,187.9497498529936 306.5963605166396,192.8863268792278 302.9459856089237,194.7682049085821 300.1683446134667,198.25407347966689 295.1543333519835,199.17886100902228 292.61983907194775,200.61440439251578 287.6024175700985,201.04059168522497 282.65726513249564,198.95345103526927 280.0315334688933,198.63328802138903 278.14503668715554,199.88446282354312 280.0635475636614,204.90031103345507 277.53517252449444,205.85731641849247 273.9551644108665,210.29153543835662 273.92258796876996,212.7720555366093 271.8944132372821,214.75675230717047 270.21968308825217,223.69716752321665 268.2179878844023,223.65977071519842 261.32789099605213,217.0565379807298 260.4251644891674,212.06278712321694 258.4512233774248,210.52601921910127 253.9175430369809,213.9483489259718 243.87886138308738,214.2850874462074 236.40192418096748,212.65296567920234 228.90131673918006,213.54335462533504 226.35622301921762,214.99138374997312 219.24780211279977,214.9563385608568 214.92926751017646,216.96092784608595 213.61768275267667,223.4670395017764 217.06537313266782,231.83329030444713 218.4711361383816,236.8428263752844 217.88294584420208,241.8168623173998 215.30041180649226,246.77532235338413 214.7120284758817,251.75821071631765 210.62633200205823,256.17596794977896 208.0533564042576,261.1344921187846 199.35767309642898,270.9816857006789 199.22659208523797,275.7580352420782 194.88376408995978,284.60465546319244 189.85213926810144,288.71255994219746 177.53773122263235,299.9634787199708 156.64915797897876,316.56007493518393 147.01194375090003,321.9225600954984 142.20413971995066,325.6759669738525 137.38350893983403,335.83322745376904 131.70050273179217,356.1529807882797 130.88344825023657,357.55952035586404 123.28306171649636,365.3525375603285 115.5172595898336,375.3981394829251 111.01841368156613,379.92393158889297 97.94664804232804,387.6386536202633 93.42354619791644,393.16508895367485 88.49048891241603,400.963007108963 86.17595058972194,403.3410847321252 75.66609957523099,410.44780151274585 72.19029184546054,413.71120512014136 65.68916546185055,416.0308120920213 60.53801351444847,420.1590040787554 53.8998936964748,423.37578115091776 49.44595018865972,423.8450923620866 37.995081948775194,426.1145480366479 29.05475246103344,428.7799454853633 24.733040829393055,429.36143729917137 18.388773170290754,429.15887844822225 12.27745206652448,430.59652029162487 2.8312085667547655,434.15985549340803 0.0,434.81523732474307 0.14559036248122115,441.2127471306145 1.1828162552757415,461.1536744710452 3.0590334573664677,474.35217021381015 3.2559278661081907,478.5351346124976 2.4474627757002563,482.59086122412396 4.144022554119962,489.5752208687435 5.369423306809832,492.25974213518896 10.517947674588923,497.26819619288835 14.808417857173353,500.24189319044433 22.66426567214233,501.85468651542567 31.03728005377183,501.31907551461916 37.96340008713127,505.42149112729635 57.4492265479437,510.1511351908928 81.84111632460039,524.91110093884 87.03883917147486,527.0896586492333 89.69148355277932,529.1399204765298 100.1061510239813,540.2907854892087 110.63232334893665,554.5926398462052 116.48487880408582,563.1480971395303 119.13557077796946,566.108397987729 125.70996330856666,569.2042309579873 131.03930733486482,570.7898905637308 141.44333882346527,577.6256760302603 163.8173940472756,587.0084835685598 174.159059706959,592.1451297506648 168.66804552881408,602.5111414415969 166.16561855029195,606.1789119603641 158.15691479375155,614.8538572948094 149.65355216051213,622.006716689868 141.36757280504082,630.1059086374017 137.5076833248257,634.9312350398834 133.05151490849542,641.6800040385319 122.14754123782478,652.4942000071429 116.96466173905102,656.6565741570919 114.25894117420262,664.7093227576938 114.01234789075431,675.0972314452689 114.46485287807818,680.9536328615634 117.42462145981847,687.8145191657402 126.69103174995483,721.7771558341359 128.2828349250282,725.8591595402854 130.89386983255397,729.7113375801994 137.29330920911946,734.7069528180172 143.6660684321003,735.57081206473 154.5488550005703,731.3297325994413 159.6631402950594,730.1205635081141 167.5296014465983,730.9618337271135 171.47942742036446,732.1313024737312 178.32884035750558,738.5029735804304 180.4201079024768,738.655020087201 186.84388360046898,737.0419353746004 190.59587291526194,733.8291887429268 194.3406286677034,728.487584466945 197.0084947484618,727.4089402712352 209.86157207641534,740.2013751659622 216.8143615671431,740.1916026205118 220.02383656075116,738.5882540183809 225.91795762102475,731.6376716362317 230.19217471017856,728.4201695965845 239.01917008770982,726.4298447938681 242.4227578063722,723.5396004369009 247.7954226654826,720.1723208696872 257.1078864504117,717.2263950100312 263.46272759739725,716.4189517126647 269.5540548847882,716.7553131361979 273.36549065312084,717.8061314945493 278.0307943304252,720.4030124917733 287.77375001321667,721.654613364786 293.98131621834756,724.1493119131773 296.964432123707,728.8637956054797 299.4375711112459,734.7345525928554 301.88323097962683,743.5132634932335 306.5870091279823,752.8415254717671 312.8580903473175,764.4513345958549 319.85610633869567,766.9554305867655 339.59977703775655,767.504279192139 349.74436201910754,771.7862931844575 356.67975733324056,775.5377638791492 362.53943511894454,777.1446141045003 366.80391507212386,779.2960316485986 368.9455164104516,781.4317034120655 370.5503489566302,786.2385206213512 370.0048096097112,789.4456040926434 364.67024294655545,799.0556684281295 363.6080697124015,803.3194208556695 365.2072942359077,809.202679115828 370.53832599038196,815.0930491797371 385.3219007733631,825.9305113974722 390.66310779202536,828.0749899265571 401.84957254091995,827.5678037154515 408.2481305297753,822.7767035797888 411.45168755689815,822.2539021137069 415.71539183771597,824.4043780950583 416.24475524655656,827.0733260778173 420.4987178188566,829.2235898045268 430.0984209992817,827.1117710282056 432.2120125731062,827.1156933045984 435.94305667213,829.2703063251249 442.86295589716644,838.3702637190781 447.1226122028672,839.4458594569629 449.2605503629059,838.920555340366 451.37901202892533,841.5955856075711 454.0495928502968,848.0250294825514 454.5843812772169,854.9687605711207 451.39195929656927,857.6208389359269 442.87213209346277,857.0667292064595 441.2636351354553,858.6638806619685 442.6416422999846,861.8526066704603 447.2617908403702,866.8840549932381 452.06732651498265,877.1050535727948 454.4462157272386,880.9527017431312 457.5871547128787,891.9107003644016 460.79439561287734,895.0308120007905 462.83035077588335,902.2607964133081 461.7609788674965,907.0696564272075 458.5747489686443,912.4042063739959 458.03695112467454,916.6768826318272 461.7536975452166,922.5674004591416 467.07780230803786,924.7186865665018 472.40820664973467,924.7325316219877 476.0517523976229,927.2552414643637 478.8777475768046,932.0803586962212 484.8682918061001,938.252726451569 487.1153520763611,941.3408855711494 489.39461291927773,948.1460218608702 489.4082603917848,952.4143101019201 491.656716789555,960.9710275460376 496.4831877428929,965.8399334696236 498.1583497969264,969.0650479006414 498.3194844622638,972.2497947270239 500.6529307380098,978.5437888185044 504.4288157694663,979.6744274153872 512.5640671361031,978.5648001135922 518.1813400685686,976.9730071598617 521.8547179713776,977.0988067353984 529.1414314569066,979.2432491776652 537.3806493283308,974.1827003191571 542.1793961360484,974.986011289662 550.2753291790258,978.6743095177784 552.28882494297,984.0846488137323 549.966611556855,989.5966166608141 544.8744143775195,999.0492875192621 543.4275363668771,1000.6600963327464 539.7990110993194,1007.8863330310369 540.6747459836619,1011.983144931481 544.3029138663284,1018.3118883929535 547.6205411715338,1021.3522512497666 555.0252915928525,1024.0 563.7300237993503,1020.7424767893567 568.3819454495542,1017.9820041719408 579.1568052938317,1012.6286165443815 587.3512942365504,1009.7054142629811 589.9519504310351,1008.0347078441688 596.5909100289722,1006.2182328176566 602.5396523863501,1006.5220439096454 610.2151680650038,1008.8124556165433 619.3568973318687,1007.9567392467158 622.9736089280441,1005.6639611493448 628.7255193237523,999.8918106604089 633.1020868828105,997.618695438133 642.6705554049618,996.0073461272362 650.5786432293285,990.5384254607015 657.0259480513661,987.0792113271361 664.4002029236334,982.4852962414117 662.009283348772,977.5833479457891 661.8290088502919,970.8549024280908 666.951212601362,964.915312663285 676.6479733762881,958.6264856883645 679.577487098494,957.1025631331366 687.5260412987084,949.6064536518172 687.5352801353131,946.3308563024801 685.1957810651112,939.3145632799387 685.1906360234108,935.5670452227832 690.6539535231731,927.9719671387196 690.3944200879413,924.0178258231865 690.9253658621991,914.9032085428717 690.9594694187783,900.8218139060328 691.2717343468485,895.000367692075 692.3684406019022,888.0537621095922 694.672106983538,878.7353701776942 696.6567766902632,873.2007092529366 696.6560638135772,869.9272042506515 693.3770844646924,861.0377048805858 692.9120650161237,855.8852317725217 694.7922371671165,851.2087585364197 701.8048346837886,841.8435727748995 712.5820412285624,831.0784866522054 722.8865332358062,817.4926759821885 726.1616900748103,807.9633820425802 738.573393294839,792.8057691850731 748.3394479706452,776.0746595140844 748.3373839523446,766.7968149616336 753.4728652814874,761.5977704575123 761.2626561538981,752.1687686825951 765.1056011636489,746.9552828276048 773.1505975047194,733.2342459607861 783.1727916602348,721.3484867767545 788.641314268471,716.9275862814161 795.2528149138951,713.3074622507032 800.0565021937281,709.7716576911735 805.826782048964,703.8409693826645 806.2698638823773,693.702027989071 807.3354006513919,691.8309897246922 812.600301917126,690.4571581306623 825.0601468085106,691.0609517002248 831.3808312205915,686.8542897179 833.7223978052785,684.037828818309 842.6455700102562,677.4645911526738 846.3398596509314,670.7555983692753 850.713413864867,665.4247372070304 854.338803154041,655.3307286089273 860.4356768113328,647.9228607012328 864.730156295829,641.0560987104949 868.40241626916,632.7829497946565 881.3291679908948,616.6652402311263 889.6006444529784,609.4634353924564 893.2544023420194,605.4642605055612 903.6072926977055,599.929398323198 908.610389406319,594.1058494359352 914.8420216673132,581.5887005642708 922.1363665637749,571.2684058054033 928.4684889115649,563.5868046765111 934.1311877451984,552.7421156988744 936.6328714747749,546.2056266528272 938.739870651775,538.9408207595675 938.5686476761413,536.2414834621732 944.4328555967356,523.3345140288425 949.1634365839451,517.8972139108466" /><circle cx="288.16123592394104" cy="452.28530511405665" fill="rgb(100%,100%,100%)" r="16" stroke="grey" stroke-width="8" /></svg>