<?xml version="1.0" encoding="utf-8" ?>
<svg baseProfile="full" height="1024" version="1.1" width="1024" xmlns="http://www.w3.org/2000/svg" xmlns:ev="http://www.w3.org/2001/xml-events" xmlns:xlink="http://www.w3.org/1999/xlink"><defs /><polygon fill="black" points="128.71317506225347,396.10429181100267 133.69367069137462,399.8278258061018 138.27925140044508,405.39808868725424 145.82370320733682,416.76231638602417 162.24189175612568,443.04425789584997 165.2236573222605,445.7747004791574 172.56349241856933,456.4857591910108 181.40290025341437,471.7248966531414 197.26984152237605,499.6137590812449 200.3192767023501,508.1586879369581 204.00406369245647,522.1541496158446 214.01918981586184,549.3317870581346 217.92130532235984,555.8130857856372 222.7208735003403,560.9434569050072 228.3455243768255,566.261696799193 237.64862852035222,573.0747224191593 228.44094483436996,578.3498437666657 175.38245887854202,614.5570362344512 136.2557879336257,642.0085164411415 116.00312718409464,654.4159261003879 88.24373571219897,672.3772431148734 66.47387535624381,685.2990178644269 47.58037966999056,696.7033237465473 29.44178686299517,706.8412428358259 6.483074723757925,720.3533462521832 9.724946704060393,748.8518290635434 18.586211633856077,756.2665665693851 20.300899544675158,758.8388581749166 20.53527635278587,767.7187392318822 13.534664836806822,775.2896694119804 10.51659005849016,784.1218114284854 4.42726590782661,792.5300694772573 1.6702658760099625,795.1903777134801 0.0,799.7611607551455 22.80494421011954,818.1866368339536 75.52124193746005,860.899296961628 112.44906314562822,892.211729070648 118.92234096050494,898.035407370787 145.9187796573955,907.0032573861041 172.30504562160928,911.5704655467829 177.16064203796515,913.5262688086704 199.59563521271284,923.096367456272 227.73543209011586,927.1487189342473 249.46005529821826,933.4849583221884 259.4401317011031,940.2328121790986 264.49169801479303,940.601523627528 270.59637131331414,943.6209236726968 281.8240846982397,940.0631134696423 290.0833607837993,935.791759106602 311.04089640236595,930.3617004966836 316.04957941039424,930.6608070557692 326.4975996814424,928.6694768269858 335.9677713529697,926.2368998044246 353.92223532557927,924.0125057589379 360.6051008676055,922.6270399571756 366.2006724966787,920.010843996315 372.76695909407874,914.7167999702658 382.4374100486007,912.1077976567967 393.6293610631212,909.3730003186195 401.8991236971457,905.3047075534769 423.38113436081505,904.4359886747714 430.1651717898835,902.5744602078654 439.42548275470233,901.4887877797283 436.22045921864924,895.1226224122728 432.4145138204822,889.0453822315283 422.59852045817047,881.0796174183108 419.3515233381388,877.4775852296243 415.94481792553466,872.2192830115029 413.71533207786354,867.5958661466021 411.8108034983681,862.3051079384857 408.6735206580952,850.4022442526336 404.29210785990557,839.9472733659246 401.5933811713818,834.5532831623195 392.02134488472547,819.4750557678669 394.0279632114122,811.8413348540555 400.66756724514534,806.8123214861155 405.0680322736201,804.8253606260708 409.95090392098064,804.6550903341404 415.7730720504647,805.1601981368517 418.8636499313193,804.8765998495871 423.86590970141214,803.5719346413614 453.11931377259185,794.0956968474137 462.0523994411111,789.5876841057499 485.1188461519525,781.4551658870325 500.82381352265054,776.7978083357091 516.5785814407741,772.9263303834365 554.2962735104496,770.3148417455013 568.5458241309673,768.6307300436572 606.4405677718058,766.5596256007157 625.7189520086736,763.6150147194742 665.4809137215258,754.1745330464631 691.1745004520138,751.6400765486005 700.1651830889016,748.1448278976206 711.8456076809609,742.7706848664033 732.5724365176111,738.0490832141281 739.4275286669852,735.2247289910675 742.9917382856949,733.3331344687201 762.918897608278,715.7768310369997 776.8715976611937,704.8576765280427 788.9543282767769,694.9891937802976 796.4296246861478,690.2648446987855 807.9639263362734,686.3085337778042 834.5962717799391,686.856049918493 836.0947251621405,686.7351827711325 844.2731916757174,683.939522238197 878.5422714311219,670.8557685102032 887.0566993274239,668.8029062754944 894.4474917532348,669.1508162549053 899.370093092663,670.3198385625338 907.8763567353893,675.0896950980143 914.779942302304,678.6091203373546 925.2947097919981,697.2974545538425 925.8477539502609,697.5953544654133 941.9375499809444,700.7849792496918 942.8189336430574,700.7158886817854 947.825119263023,689.8331530555072 948.3971234891998,689.2255510015596 957.6764876746228,684.459039372808 973.2980745996783,674.6308073657115 988.5773016832487,660.6316592007015 999.1395172914644,652.9894706904972 1012.7308574347384,648.8825178287375 1021.1689368290187,643.0903751137213 1024.0,622.8547058356725 1016.358456550891,610.0065754421164 999.0624974885714,599.4708505486734 996.8435122667194,588.0297527099365 983.0260579408755,575.4968488781915 975.5378972948383,571.5079452666951 958.2529323793352,571.055171477198 955.3137366856552,568.5512936863632 949.9623007217494,552.0732456509256 921.4506072780162,558.3186424979572 918.8693091116901,552.8046143193528 907.9770952875252,539.3425000812351 903.696914795443,534.9228693773395 889.7098377220253,514.927041950817 877.7120322092977,503.14849623330286 876.2404358536861,500.1087878561481 869.8897408341368,498.6943447012951 864.4346588729645,498.6478181851078 858.7469351431548,502.14372905610344 853.4858087888767,499.88400448177845 850.3468972196513,496.7248907767348 842.0427420059277,486.71757230309277 836.728794557763,483.13182597033995 833.4685958445999,475.6813943292083 830.2521287787899,472.62833623685816 821.8982933993797,468.2047493454935 818.8311682837855,464.4815288934124 809.0964432053989,433.70984648464275 809.9319339362412,427.4676489455917 809.5702971134407,414.15284124703055 797.7922865791375,385.36396634184064 795.7003258561979,371.30406683383364 790.8052554212485,361.87543694983515 788.2269813063776,355.3819713100273 782.4778237846166,332.09421839270453 770.4961987871379,313.74605327779784 769.578439368029,310.54850733550825 769.836867312487,299.4703828651425 767.094403013601,285.96601391723016 761.3167468896445,268.2184057185092 758.013713250064,255.3049635158509 756.6151735203657,252.95277640730558 754.0005430602072,250.43436461377541 752.5551970617739,247.01274245860373 750.6573274118865,238.77960055055178 746.7603432557461,235.30389438279542 744.3079649417588,227.03657462546062 744.9793779023846,219.07155038038127 756.1763699622711,219.52655535637155 762.4423898509344,233.2781749671649 762.8703360010702,233.17529845574188 801.466666021905,206.7653245636484 809.1122479210333,200.6878282980433 802.1384996578208,192.5776211041201 788.4176533894341,192.83311860821107 790.0129196917715,175.60291186892493 801.7901786080932,163.65544046849868 793.5255794607967,147.80232456993576 787.0301039374004,144.93630728672167 787.3935889400021,140.04009719568728 783.7236923144118,138.69306823102932 784.4198533021786,126.72481706319559 777.0669007937224,124.82742020572357 774.8616364266345,116.64522161347531 768.0459502792154,116.99593271526533 763.6692836449533,117.83216244285768 756.6874139483331,119.78135335446757 750.8611404997672,123.4100197002806 748.2079793746976,127.7692145026383 744.2282272822199,130.2002644233305 739.9230203650958,131.84049273750702 735.5470065025705,132.7232593881157 730.4243382676956,134.50685896886478 723.0190231960846,139.00588278877467 719.794663150603,140.50956656008486 717.1290086500528,140.89988639461137 710.2906763583198,138.16337397304255 704.1036057564088,136.9667461188386 700.5125711976617,137.67039500442036 694.5318198305821,139.56573911805935 672.8852940177379,144.32378786447225 667.8324725553958,145.60501995859124 657.5203586209136,146.81153911318358 642.6856549468594,147.44623511082773 635.2738210546393,146.08036828191757 606.1477943491922,144.66086562010003 597.2891374585093,144.49763718963106 585.4487514533208,142.07792541229014 577.3006313594005,140.6870004059199 575.8065898321383,139.84975255938912 568.2142315965855,132.67753834456903 555.5314072891216,123.7912632164381 544.9073031857196,116.62384692856438 533.5191049088851,110.09011095433516 528.6508422013918,106.82505585437036 525.470830222953,103.8944171904185 524.9806192357873,102.61227461298245 523.5206488413794,91.48549732761478 522.4534036148542,88.20756894462318 519.8279953329895,83.54930759253068 505.5587476558053,70.78040591114905 502.85278193629466,65.65653469641825 501.64390410866594,61.54781907727261 500.82338987834146,51.83580780362229 499.92778276933205,45.75269210891247 496.3395985013134,36.87936809955568 491.25662758541984,27.572228037016885 484.45133306404045,17.215277181295164 481.2084904327058,14.167089338413462 469.2926606460096,5.997384304241791 464.19415311903197,3.2227910098449684 459.9570068118548,1.489494333410562 451.9186479609947,0.0 448.36482433136956,0.4157578296566271 437.12158453056617,4.1040159046763165 424.8553306203101,10.110502925182345 419.77090625859614,12.144170673488247 409.6605817886607,15.214263294030275 400.3207592321221,17.0112279554304 383.0279718322974,22.235180705420476 358.9141277635653,33.124043818189875 353.1056552829023,36.38943402701307 349.3351608634231,39.094299970729594 347.37558991933685,42.31402754925762 345.24527565413945,48.01320732377678 344.57349627374225,51.00808024502044 347.0013437367003,58.68095924796478 346.89117567519276,59.761566688837206 344.08301873717915,63.97520983087986 342.83939123675935,67.57370442904107 342.5073799429734,74.50953100678623 345.03794323110515,81.20647049733827 348.82665142720833,87.34214250627258 349.6622072639943,92.41573649337454 349.5789971610406,103.79123763780945 347.78350147196227,116.0668995871273 345.6474646659666,129.1501175934619 342.3276131542084,138.68493255604267 352.6868606502319,137.758763214718 358.6388310654506,138.69115537391122 357.37466427767765,141.8131321119447 363.45348408865624,140.97842662613425 364.8401305903802,148.73272239576784 360.57448137722537,149.0691145507186 361.0684267000568,153.02645679352372 359.40289328052546,153.20229162204816 360.3395030635577,160.57403604522096 350.9584203246194,161.76143864032224 352.70752444637947,175.89853583929414 355.24732924858637,175.36494267138733 355.7894905255774,178.6569659721505 357.86627873978455,177.97362853694688 358.96723958305023,181.49607433019196 359.89806182087693,180.94184849047952 360.734992702747,183.68150048649522 363.8458263316488,183.40751095336202 363.7845658575023,188.67187178892027 357.0780157837916,189.44506543140528 357.58127229897923,191.38569848452676 353.9320556765213,192.38469607005015 354.09853096859183,193.9186287778383 347.1023489191111,196.03014110241054 348.339727372806,201.61549339027397 346.52850996371006,201.78443711802072 347.18845486527886,207.6541958298477 344.32236067950555,208.83130736659302 347.6775105208491,230.92504602354552 354.1663437905035,231.45207013403956 355.5986333619212,230.82010090521737 355.58075575846715,228.52999500940518 358.60759662329826,228.68176490685676 358.706282863874,231.3545127407416 361.50057840607093,231.57628351258052 367.09152595685663,230.82708022226416 367.2900390350533,232.46478721707456 370.6967757858475,232.1094534731293 370.8565815993383,233.7854459241762 364.8645765621869,245.46761459890502 358.731498458569,258.7590297246086 360.7579291472958,259.5216725833484 359.43233503717306,262.29008235953313 357.41441185285584,261.3872871311096 352.73377018830394,271.6431522407129 347.38103948972974,280.73054664512256 329.54867877949937,319.33955814266574 325.2925859166018,327.07414421931844 320.14797031209577,334.4687181789528 317.67551925646137,334.48374847516016 308.7200898852849,338.8621388330781 304.96040028566875,342.44431827870653 303.9880678722288,344.05160766600056 301.037435419311,345.64548705072843 302.57511560899303,347.5269449856877 296.3053796922217,349.4450914316733 291.4403636163628,354.1481363545063 288.2019449769158,362.1518867281353 284.7135460023799,362.1227348978298 285.6769667093728,366.9848552695173 284.7431228057248,367.45585835956285 284.8096440205386,376.43272863588277 282.6845035274101,377.84923392740234 285.23915016973916,379.8336708268222 279.2826517417088,384.3995473863321 276.7178041181017,381.5341672987962 278.56409877170336,384.91329835513704 265.67346372126957,395.08376782237485 258.426103833804,399.8374259470804 258.35435095632346,401.3034146387005 247.34084027854286,414.0073732326431 246.59703877316764,415.77902293089664 239.4409039631358,422.53245002610413 237.86170763904616,421.5875403239386 233.94968545896933,426.4226669174468 231.06112955789897,426.72682090608896 224.95556384170345,424.29652925588175 214.76976961308716,418.0632148985584 195.46353079917859,407.38445004016194 187.67429807372645,402.2831617033536 184.15988369145225,398.50360300922296 179.8355138951521,391.24789524372363 162.45897669688057,401.5764442458627 158.97173305607868,395.6060990701395 151.2033040515742,404.66820372485313 134.4837404378283,390.7100413930285 129.97366354974633,394.45489801986696 128.71317506225347,396.10429181100267" /><circle cx="238.70744724312655" cy="502.70341854363136" fill="rgb(100%,100%,100%)" r="16" stroke="grey" stroke-width="8" /></svg>