<?xml version="1.0" encoding="utf-8" ?>
<svg baseProfile="full" height="1024" version="1.1" width="1024" xmlns="http://www.w3.org/2000/svg" xmlns:ev="http://www.w3.org/2001/xml-events" xmlns:xlink="http://www.w3.org/1999/xlink"><defs /><polygon fill="black" points="372.370161248544,35.32965794679592 327.0456286353724,32.10712909789356 189.39291869674426,2.831938167162434 174.12471472757528,0.0 171.66839601103132,10.328130757926715 165.87172337393096,47.982470595387326 162.19989602142564,73.93261603566441 158.89643232334961,93.07598292377531 148.80031873738096,157.79321763736948 148.82124079302343,169.33630266012517 139.8244447179819,228.32621712624598 136.40162938549634,250.39905755477548 132.54469898902144,257.0835482772734 123.82718894509067,273.7548584146915 99.08801363093278,314.81957381253557 83.25420500015464,337.96941529012435 55.78617135448066,407.068995895924 48.18328564285746,438.2942036205018 37.40971325412234,463.55963015377955 30.085855149215742,482.12008089711094 17.40538515780184,514.4483453076479 0.0,552.7636396391433 7.6169920153295525,555.1662220783513 5.161555759495406,567.4954543397542 8.592141620104103,567.6859642658435 13.310575042122474,547.1737288966801 24.254687853370896,548.7334729981669 19.478531355747588,564.9739487425587 23.869456446181083,566.2699254477155 23.196528813201486,569.7296411920455 29.56858064231489,570.9693576070539 27.12081287724103,579.6428575979414 32.50330513650307,580.5688699212043 40.46276585369646,552.5930709726592 42.49340031985902,553.132590212769 45.47374456693056,540.1138069402618 64.36809009474742,544.1533963856834 68.66357185510034,521.3410218516478 75.70151858648673,521.5181624842323 76.03946784394331,520.1895957999348 82.76768768807894,521.8644241619901 83.29216319240929,518.4403678186925 106.44418959599098,522.9190620342072 109.63592406704257,506.8244381463261 105.27719211961397,506.1737588984901 107.75230322821217,493.0423475348383 124.04873961648794,493.22694621387285 125.31404018256532,486.2260213731342 130.6407790809361,486.4564172409756 131.03592047841607,483.5837492785805 135.9457564392949,483.4959214307692 138.22573035982876,472.1525804625139 158.66362391067116,473.4469483944609 156.34301980710876,493.13151527500594 178.16920541556738,495.14573955568795 176.1444346548689,478.0014617614561 223.08687065924425,479.13299523984205 265.405738971398,493.07933625920805 294.17804328301014,535.1215624684476 317.9399869127999,605.465429392349 346.8546776552545,642.3471402656617 382.6982396459015,658.722347768449 392.82666361090435,679.6345633512611 412.86592400022784,729.2201744796869 429.330144010629,752.8931057734561 463.568109397542,748.5655194676025 513.4233978902317,718.7850047578993 545.6002338075731,711.834541329124 581.5750653445759,723.0719861455947 631.6955472174894,763.0976049376363 695.0583141291371,785.3809479054534 851.7763202495115,820.4765326220702 907.4880313502981,816.5412255361156 948.4524706069033,793.145908828824 1011.3781760344049,756.3285683347751 1021.7611797818962,744.3574575625527 1024.0,712.9007833989994 1018.6738393928129,639.2073584439848 994.8627823107256,556.266001738004 964.5732313445343,501.1849304750572 949.4850219044913,471.01003840573054 924.2949713485767,448.006956426453 895.0053850740745,421.6387080488359 864.2014952288522,386.1457180988168 783.1704726497098,304.48140578497714 759.220947982254,287.9737151178949 746.6177979269122,272.2333865434317 772.8519255442204,250.79659159931384 744.6810585853381,228.75047511573678 720.9495925718521,220.3808343080317 691.955197427482,229.33093300495102 668.8568857382764,257.80129859605086 644.7068920941605,264.9433017630761 614.7531403626865,248.6817052574106 578.6367723209007,224.51125536663483 538.4852197735864,206.55486634112526 499.78304004044537,173.21826223633877 470.1221392287963,147.53654053312823 448.1050043788291,119.42809811288703 449.9248541009702,115.17586169868662 441.0845295425923,108.4155466609717 440.6285392111952,101.16124757857608 445.12886996967694,87.88410320863522 453.7956280880961,88.45759325892038 499.2077374256166,98.1446748939336 505.5181282578551,100.67721856509763 508.29586799926506,110.4589521372526 590.0175942643791,104.32402013498483 669.7265556940246,97.86145731096326 666.6864800990924,73.20281954947109 616.4184924061851,69.83874218268159 599.3626313140217,64.94741883033885 517.3879283155634,59.62340093195337 439.9932400244081,56.71946677431686 432.19752601894015,55.67323712675818 384.6060298730714,43.477838833645365 382.2126727699212,40.91832206599872 372.370161248544,35.32965794679592" /><circle cx="257.33256132183345" cy="42.97126412148327" fill="rgb(100%,100%,100%)" r="16" stroke="grey" stroke-width="8" /></svg>