<?xml version="1.0" encoding="utf-8" ?>
<svg baseProfile="full" height="1024" version="1.1" width="1024" xmlns="http://www.w3.org/2000/svg" xmlns:ev="http://www.w3.org/2001/xml-events" xmlns:xlink="http://www.w3.org/1999/xlink"><defs /><polygon fill="black" points="513.8514077498086,23.224154872517374 430.71875072926224,11.465184855210737 369.49912963874044,0.0 355.4662943325198,0.5797157910350279 349.1286574790926,4.376669051961471 341.65000698452553,17.910681840015627 331.8636241641518,41.91998790873117 327.048436926553,50.08227077619108 325.07154364578275,60.19064025217972 322.18711014237454,65.09038047864931 318.67187616061875,68.7445490086426 314.16499451358715,74.38268087720598 311.10154553283024,76.16185215937935 294.4213053806071,81.83646380489995 288.1083924195342,81.85871072723069 279.7234221785678,81.05498213172382 275.9280201075277,81.06417037212998 270.7052510380613,82.01714419500217 261.8574187206947,82.05175827347205 251.57520327285403,83.02589405206015 240.75334503142344,84.62478459031342 224.42276960220528,86.24445080692124 220.27537949231052,84.58805288137603 216.12766684506425,80.3432456509397 208.6401457210717,70.36972755682632 201.41804654370802,64.5688702296369 190.3277898532665,57.84087937398215 186.80403636034347,55.35354311355729 184.00823355703926,56.72449605645022 184.09894157048763,59.94987092296617 185.72184606600186,66.08606068949996 190.46507338335195,78.44297622426143 191.4543742730573,83.95426648546561 191.63232854628157,88.8568253808304 189.87813511643276,99.86354770557455 186.52880866483926,108.52793259863302 185.04235657204455,116.65999475301396 181.15611423006405,117.66410011407788 175.877155410797,125.70356082927333 174.7106462945993,128.87655910470096 169.42787506171064,134.46061603156056 165.92798707002564,136.8675978108513 158.8723908988687,138.12549582352733 156.89079157108762,141.00008483986164 147.48784117382536,142.24564279725473 143.6604308412731,143.68076924329193 133.6683842820901,150.82839093304335 130.21680086146412,154.27926758536978 125.41356526569179,160.92713384370143 122.29589443562422,167.02680294773347 116.61034065846314,181.09280687607793 116.07369518335207,183.43516499414739 117.37257974773541,185.61646893289492 109.41861153756662,203.24611689653534 108.94017419366654,212.422205697825 112.69061556798074,219.9861694601583 123.46713424173211,226.96625825702426 130.0259668414819,230.19221232602422 147.81204522456846,227.97180606426207 155.7993181167669,228.48404424520947 157.65586774790194,234.41873000317094 155.1196926136336,249.1747019046171 149.58416064117787,255.8792711689357 146.88046206492086,267.09534612178027 140.94064927694984,269.6027809821268 126.90474692765004,270.2750582900002 120.42116186413442,274.0319560794203 104.22236876116602,293.3940978470889 97.2005161010064,303.99633314976893 96.66189138298677,316.4501221707445 93.95331588895105,324.54931347452145 78.84182909156453,327.0823138901684 62.64321967016704,329.0016392332627 58.33505132823572,335.23753286581245 59.94209403412794,358.8918282306064 52.92308824517919,363.27236559649987 44.82463989798137,364.5399986160147 42.666181218278965,369.52249918500434 42.66142481129151,385.09283217851396 36.718950867881674,388.2235834015895 31.860982202198464,388.8590002325957 30.238464158912855,395.0914250329323 29.698221576747883,405.6663209397882 24.29135245009827,410.67178981012046 8.101735216894058,415.68115038414544 3.7757878413033343,426.89956176670466 0.0,438.73499436995166 4.306185625922955,451.18654091355813 12.115281302533711,464.2239830218289 25.2674552826091,459.60045248878953 34.158707695323365,459.58330208776704 48.42541957027687,468.19127563990105 58.72903201420113,492.4808554751951 64.34821442691596,505.4279514730241 70.9028741699831,514.6015503838069 82.16063513750912,522.6753835472464 79.33620852897074,526.4645506697625 61.06346696972575,536.7812912402404 55.89228421499207,541.6541891882624 53.098089330926285,548.148410330672 46.52977321619281,561.1324687636916 35.26447045899839,575.1994314527424 25.21735005780712,583.013410711395 26.78157210162312,596.6247839515361 26.770342524148216,629.1480229760876 28.500467750212547,637.5586116662939 30.803957957865055,641.7482599426645 33.115191794728226,643.7487185017605 45.00828697275811,647.6953903686834 48.07600824930525,650.7885583432619 53.71820414545397,688.3689943934239 53.84188857336136,695.1179736733222 54.46840756893937,699.5972837584229 53.92776764445602,712.5064005191348 54.37967565754666,717.9169646836187 56.81852005215035,727.383877934873 60.15478665834961,733.2951168478207 63.22166426148585,742.8669693412712 66.38077732222543,746.7098863261363 69.71739790731262,752.4275217437782 70.15483187126911,761.1923614523121 68.54457617332257,770.6380579139674 68.85907166358452,797.6418802667255 67.89820470487004,804.12851289894 66.77080311907923,806.7205661450625 62.750945160826774,811.1744982113244 52.31054207834174,821.0007797319671 44.113734813609575,827.8763250111807 38.335271068896546,831.7690786979767 49.92254945891303,839.4608316473156 63.842302220212424,841.2545935958537 80.76005039466585,838.2871697088067 106.13925867497451,824.5680216174551 123.05228551024874,823.5460418675104 140.81692563849694,813.7385079418982 148.42947419712436,798.1324870055543 157.74013770354992,788.3560445737617 168.7318273755107,788.3237626408985 186.497042846558,775.5992934705988 208.49473008207772,755.0602645033307 216.94729145579228,762.8281034168729 230.48199211623307,788.104207691867 238.94666868314056,816.3158564787077 242.3369301769354,847.4714315830433 244.0244314680066,875.7205158808683 247.41920456844446,891.2898270312838 266.03008908350284,901.9327999235118 279.56139524474446,912.612721572496 299.8671743501145,934.9411622014343 308.33444960355735,967.05777426148 325.24085585530236,953.3638947471945 337.0799449141587,949.4320440378839 340.4743048722653,977.6758203167923 365.29941015840353,985.8680691069299 386.6431309754616,1007.6109002447878 399.5834749857824,1016.5977682309997 408.3042911440202,1019.688667989477 427.14701610308396,1022.1961787401493 430.58279546255443,1024.0 445.4990481226201,1021.5383509602574 457.67714648886545,1021.7027596238382 464.8200868937169,1019.2380706212894 468.1214198553153,1014.0267156932429 473.97700530696073,1008.1279483582499 479.98249262247066,1006.550829526953 490.6351015874262,994.4029844723445 494.9753755398074,992.6576943124886 500.3783596396082,992.9514275834889 509.07874544476005,992.3471828388399 518.3681965821035,994.7820300794343 529.2558408829669,993.018288971484 534.5805867797817,991.7393065468596 551.2959730346269,992.9043961446334 565.7192267575064,994.8451974838399 571.2062535762093,995.3233259469879 576.8590936589096,994.1603465044315 579.9809164330227,992.4033044791126 582.7604141978472,987.1310563627218 582.9246033621578,984.0104294386668 580.1316063732739,969.9713687765772 578.0128823159224,963.0513662738581 576.7317819066449,952.812466273025 575.210361343187,946.2828799893169 575.5431219990512,940.8156847752007 578.2766611540842,918.7760812327643 583.0272864825957,907.0713183567956 595.3291124897916,892.8223684521686 613.7903115576885,874.1957327660252 631.292055945622,851.1869913822262 653.9858418344942,822.1558035720393 668.6250974959459,793.1216262881724 682.7843183888356,764.0955603864661 700.2634071059947,743.8211166317609 721.0536732732386,720.8238464924036 732.3742415575271,693.9810286945099 745.1129175964567,672.0704812882856 758.8160114015758,663.8656407367423 769.1982750117511,646.3321922372427 774.3546983084831,621.1343992900904 775.7482414216084,600.3087043197759 775.2518570079128,583.8804594699968 771.9132229251794,566.8801065098135 770.4356121870128,529.0814814259627 766.1203506030533,484.14305085521767 767.0531139902603,476.47335944976044 774.129063359591,467.7095912021375 784.5097410673604,452.91711806260446 790.1540359555479,434.2938159238804 803.811123666335,405.8079423112563 816.988798766042,366.90444299956016 824.9948038864923,351.5664683280073 840.0749476225434,323.07678993684135 838.6382214537555,314.30628116036314 820.6806059446958,309.91414786250743 802.2383194694045,307.162890315367 788.0949575875417,323.60288741442423 776.2895047223218,327.4275297178257 752.6444783233463,317.54595412522633 749.7995244859189,309.33362834937554 757.338279678035,295.0822446692706 763.468079462431,282.4858748219465 753.8114396119039,278.2511870506904 751.0000237214464,275.94526260125895 749.248163623915,271.6259052015648 745.279417899153,268.7773950706478 734.2782354265099,264.2821679224487 729.9799918580429,259.9059667300795 729.9811738205873,248.73006214287318 728.2193153820165,239.66932828981749 724.1023826648515,232.7568495681727 719.7839541295539,231.0011767723305 704.9582244164178,228.14744021055537 696.7955837375182,224.75995923752498 682.4146137732816,215.5386837294824 672.6203009331334,207.9598844853116 668.4076563728505,196.05567777238116 663.0246003141762,189.27723741451382 651.5723240709001,183.58284275428377 635.9091759570225,168.95895482535263 602.4646331833611,138.9214628135635 596.3870244576104,132.154975811109 592.4147961308722,117.52824736766013 588.8803127891027,95.33344004434525 584.9178022487935,85.8631896165706 579.9790654165461,78.28079293346741 570.390440933614,69.08246919892485 559.8764812122155,63.67468125779658 542.8162423803191,53.94297165768887 529.2546023552903,39.062745544534664 513.8514077498086,23.224154872517374" /><circle cx="406.4819145117501" cy="934.6878342868495" fill="rgb(100%,100%,100%)" r="16" stroke="grey" stroke-width="8" /></svg>