<?xml version="1.0" encoding="utf-8" ?>
<svg baseProfile="full" height="1024" version="1.1" width="1024" xmlns="http://www.w3.org/2000/svg" xmlns:ev="http://www.w3.org/2001/xml-events" xmlns:xlink="http://www.w3.org/1999/xlink"><defs /><polygon fill="black" points="96.84568326330923,847.5656620680599 96.20263278096377,850.9463479169643 101.01012120958194,851.8217974005379 103.59377172686115,854.5864184823838 105.8253045714996,855.5472597509585 107.2751220530306,858.1771917360048 106.09462581478151,862.2239936579427 108.95751272903635,863.4535056045546 105.99392815730667,869.1781333043534 109.66124530718558,873.1857667252843 109.35253047426586,878.181724731275 106.77563366763216,883.1313457283692 104.513262070745,885.7371256525068 104.1371064480351,889.0124902155575 102.08021078869504,891.5854231488106 104.32515789032131,894.5565744893357 107.80941379553121,892.4686162123395 110.36104158198863,895.4865400393721 112.57616124889645,895.9052139371166 114.11254740623986,894.4962112543066 115.6334065648552,891.1402895404658 117.09226032613964,890.4455176005246 120.70469508209484,892.5691416044916 123.51991701471984,896.9305858797844 125.48978736906173,898.696161416679 128.3978842989516,899.2820185484533 129.9024872893909,901.6124590356469 134.85466828481657,900.0612469252407 138.05806203271618,899.9249823148241 139.9089302517516,900.9995182561801 142.9190605744804,900.709742223478 145.67214507241388,901.691909225451 146.79080886939585,899.8448864590813 149.81804382792188,899.8530535838127 153.11645668617606,896.9000797247945 153.35639324634965,893.8330125111424 155.24486407941927,891.7022303905262 159.36800819970145,890.4222840463257 160.92373417637393,889.0131891341333 160.4985761176772,887.1358991751874 164.41465741201156,884.777952528277 165.30297709677632,885.0563425417621 168.31054926126183,889.755195207704 170.64710423280317,890.3819483917547 172.2385238516115,895.8280477137403 175.4778715478842,897.3674201152726 178.5216158870029,897.7463014985218 180.56505817811706,899.07581828012 184.4083589388579,898.175597009828 185.78180910460887,895.2697203559219 182.08743727762354,893.0656168833731 182.58814607717528,890.7982361306932 180.54280140572055,887.1222356238086 183.93697782815053,882.2421671762381 180.67935161125965,884.2157313964533 182.25878157710147,879.9279065037093 184.75335528506332,878.7071081108749 184.40800700677724,873.4251498387144 186.06079588526285,870.1795126772364 185.40615744525397,865.392731700265 187.20892636822688,864.9368181806991 185.41990470920447,862.4390851350192 184.09106699767395,867.3016885710339 182.2565990813975,867.9187480604863 181.77096231829006,866.0044809119536 183.5100821030216,864.6160052732715 183.1527724880532,862.0763064682692 184.9069393111043,857.7899176531694 183.73853095937284,850.6177934862264 182.5476401471661,847.4562119478002 184.41799156458097,846.3686206958761 185.59680155711126,847.3277425424482 188.98293309335446,847.0213788810505 194.61276239874402,849.9024857657961 199.304184193127,850.1582997203352 202.86106722685238,847.7507531886027 203.84328461902896,842.6699895426614 207.01887729277885,839.5193821413934 208.48058657686886,842.1103763553497 219.49037204353988,845.9401463926396 222.8580429049758,844.3840624182651 227.9150032070656,845.9818161977445 229.04045578716983,852.211675497066 230.36769070990223,852.4953361867914 237.25402628270575,846.8185353610392 241.13973340034073,846.7327104573906 244.55128217481897,851.0072971517526 253.00317644189502,851.446185239995 259.0594151799759,852.200018543291 265.2399778174889,855.491400575396 268.82871423855147,856.8517850710596 273.6007923551782,855.7309596215043 278.9214950893016,855.4100000743822 283.75180294100346,857.2950468571998 285.176141005449,859.5259115774525 286.4972518794229,864.4348430219308 293.3563171073343,865.9475329776873 295.8605270036273,867.4969332956526 307.34937854868315,870.5849228183204 317.094221081003,871.6833086059728 320.27416577740166,871.7349457169053 324.0258756070021,874.4621638107884 327.48248690480506,870.5955646317101 329.56695381207317,866.6817982931358 331.3262259160666,861.4260697490976 328.0545961151291,861.2470149245091 329.2044879440813,859.3265173080757 328.72017931728016,857.3395587621369 329.8214548625762,853.6276448645203 323.31244728379556,849.11303892108 321.8915425350233,846.6383590847391 318.1490297297795,845.3063244253234 315.3948404249418,843.1017932503515 310.02436713897123,843.4403726685474 302.9113967497136,839.3279183364293 300.8896645983685,836.3602795656285 297.8350758120656,834.7162606264696 296.0533982472144,832.5479850651751 288.76825963969435,829.2850954817526 286.1550881211509,826.222336170684 283.87581757240207,826.294620887681 279.1256614926254,824.5005000035133 276.4695063682271,824.1719295111641 274.9499795379431,817.3415182518811 276.7037325233744,815.354929182361 273.0213907714214,813.0445335295699 276.82667510037913,811.3356260580333 278.8443557262711,807.114217230259 278.0829397264259,799.8670508505634 276.9921746403408,797.0238134298187 278.9855918081684,794.4971887738577 282.903109376548,792.771804416952 284.6639250507082,787.3895128671322 286.75412499668477,786.8180122130634 287.01312527963563,783.6242090172777 291.45754726399144,782.7004000522988 293.02321838288236,781.2176491654785 297.12996317808813,780.1200486065362 297.68205278262155,777.5262094251676 302.72593815081706,778.1712316721482 304.90738756386133,780.2792073543595 310.10864277285356,783.1641374393795 310.7933571267731,785.7215545192347 312.3060527351182,784.3843321284436 314.17075820556363,785.2598408327854 315.27496999252804,783.9098023932811 315.6673495696883,780.7266392218683 317.3938296370147,778.2783783459812 318.8261855498434,779.4560377466798 320.816432536328,778.4126737953668 321.01255470083834,774.3055473922936 325.2242179351847,771.6133082321337 324.19351808834,766.0476586778216 327.62479634027505,762.5172093465106 329.6856351734569,761.7818107350353 330.34666924178333,763.4972744658535 333.55559071829344,762.1730911329807 339.4131887160231,763.4502099163434 341.81795878699165,761.6027755115867 343.35746242676294,763.4614186051563 349.74943453495024,762.9955809717994 350.71156427179653,761.5270912285488 355.4420831646246,760.4314846650781 353.1751688305587,764.0903519756882 348.8174093945813,765.884449052089 349.682841651121,768.8774486432536 353.186562234086,767.9550119017341 357.3000850299395,763.3417391978392 361.98217264897426,761.8132597071053 362.88585816700515,764.0185997180755 365.9739435475337,765.1836498564893 369.67365547918854,763.8089708291842 368.97713124242875,770.7102996744111 370.4447330889125,771.2633842573248 371.9006207069465,774.7681162843711 371.3072731335602,777.4885910657849 372.80935915609973,777.5000005370733 373.4503813525218,780.4835137818029 375.63663130230043,780.8536922852738 385.6654742433361,776.521151070797 387.7914400220852,769.7381970682151 392.80610944806887,768.8074128552938 394.6242644741154,770.4333850723359 392.3355522265174,773.0220092628746 395.6677194980074,774.2596400158607 394.8403899617896,778.2371117153801 398.57017656406293,778.5629590179287 399.48305981616016,775.3029131993693 404.9674115072694,769.0619236809068 405.1330747584829,767.4239539344585 406.9625058471067,768.7424513681722 410.46238736911346,766.8660802364242 411.17864315939653,768.1839355049962 415.6527016252177,768.4439907567423 418.79430460437743,770.6042466772352 417.0751033919791,773.6508169561095 421.5466238273495,778.5996734107921 424.28784581399714,779.6788204230165 426.2253516447023,777.5024239108295 429.81509850625713,775.7725126103603 431.94239692575724,775.6709779664866 434.870133779809,773.7093618235049 438.77737559261783,774.6432040565783 440.9637911798618,776.2081315397805 440.6324351037311,778.0889498828662 447.3056274237649,776.9867443575871 448.4030197261467,775.0039058342348 451.1113191731417,774.979488131233 449.46385981310874,772.6499119427584 449.58610681427893,769.8355425848496 451.0835711698422,769.0047819232773 454.1571194095097,769.52491585621 456.68002543861076,765.551964768733 457.91699429505144,766.9272798290707 456.14410895936373,770.3080616209186 458.9912177721959,769.5870076277029 457.8559992218295,773.8410334340754 455.9381461769419,776.0543017789389 456.9967461132721,776.696160241951 460.1839131816934,775.5874643795355 458.61835286449576,773.0240994760629 459.59164456138444,771.4112005335015 463.302637235173,772.5969146845855 463.14272596193234,774.967102511176 459.9745990379608,777.6325291290981 461.6203602465709,778.9838881969226 463.3551642180244,775.1934793604685 465.4090390373209,776.6035031203378 465.6497507534822,774.4049295222219 473.2274867448177,776.7234449108121 475.79400421338704,778.0544514826191 477.9783434246542,776.9652210498259 477.9212463771642,774.9835681828924 481.52422106767847,778.5568779037675 484.25659792693267,779.654547671142 486.7343864568719,778.9382329696925 490.1991424552653,781.9051011910254 490.2056972931462,777.9945591308634 492.26478055687284,777.4481496084072 495.1597135264818,780.0207829442643 496.32507292249164,779.9656768883499 497.52987041575915,782.8894236662769 500.4882195371325,779.5706305163594 503.8469384660007,780.1556216016186 505.50215899424046,781.4625661423228 504.6911149740283,783.628288014977 506.4557979403553,784.0943150485878 506.9481973735073,782.3318004256774 508.88225990140563,783.5676753441109 511.3308210359974,782.6895068533426 511.7349490986633,780.5381858333876 513.3325677464983,781.4180645311508 515.9115305424281,779.4992386934794 516.5208397923327,777.0860923648396 518.6038029863734,777.4447500197352 518.0234746919846,775.7476823907575 522.680881398853,773.2919183511473 524.8365115492311,773.4607953277925 526.2244131453831,775.2442231161925 527.7605939033066,773.1834545516986 530.4512501347377,772.8660148466589 531.6002866100648,770.8025153411005 534.2334883159592,771.2994167822651 531.7454743954362,773.5092170156482 532.2299730891173,775.9108268778317 534.696012749608,772.5075229713768 536.2549552467246,773.0526257678632 539.6649850331709,766.2679969663735 537.8829259470755,761.142062343925 536.2771361812878,761.1846639471814 536.0161839247634,758.957569193188 540.3635934896483,758.4267654272987 539.3898966953906,757.3611513256494 541.1838201584178,755.1464550762805 543.175706416606,756.7802686519875 544.5013327980033,755.7210485427006 544.4526228934435,752.4635134401692 548.1117816226532,750.8420714981751 549.4245371196259,745.9721095160476 552.5402731682847,744.5005746323307 553.6811414473395,746.6703235093678 555.3285738498778,746.2666390714371 556.9285610713681,748.3415410225717 559.1418466836677,747.62274629464 561.1075020853758,749.9634080648709 565.3202486777785,751.0858119346458 566.2967736882551,756.4250798875653 570.8911845132831,753.9315607605015 572.6124429798531,754.9925641987707 574.4371984348973,753.9635195762633 574.5720885068113,752.2368877502687 576.7746430657268,749.9517375066993 578.5224273391277,750.0001805369923 578.6032623232248,751.7475017425415 582.213801205731,752.7771280997281 586.2742895721292,750.5967857792573 587.6579271872691,754.6243228627517 586.8537720045449,755.6238781005104 590.8230287549146,758.2200290691729 593.6111687656291,752.420201028113 596.1877167574638,752.3107945281016 596.9904759365322,754.4165614117194 599.7711069419325,752.8788037454817 602.6701999722571,754.6720015086303 607.1805616075808,755.8687547952507 609.250924176513,750.3810265625633 605.1738119597267,742.5960245232611 595.1754695584569,735.5511468441987 596.1515135132571,731.8028713718099 607.6234543007482,721.7973732262038 618.626387517468,726.8769149423249 635.5831356779892,699.9311860231331 645.9557881082746,693.3930785478118 648.071044627037,687.1271204278307 652.4260467860787,685.2110242611045 654.3548885158824,688.8612934722721 663.6332905919847,683.991013011276 666.0320835562836,677.9247033948085 673.1983551835909,670.8785391536533 675.5495628474325,669.0836010791708 680.848883407748,669.6962490793622 681.7307759293252,662.9071028652784 682.6268860961727,659.9920237085369 682.7355783233979,651.1532859131567 682.394238324414,647.1252952993925 678.5849267779536,638.9568751701458 671.5922604340585,636.7132385394855 667.0225761727467,633.9529050436836 666.5604680287302,624.9662973830627 667.3130813608767,619.1813382060955 663.4888508981664,602.511262543049 664.7784234761916,600.7748381919525 672.8592269911974,594.2516205094978 680.9426230821534,585.6105550836828 686.0992184364469,581.0031168987614 713.4197645759749,561.5792338624285 718.5400661343263,560.8526384008285 725.2365484123698,571.0775590407372 734.44289703267,567.1653457126283 739.2084408673161,569.3031681442251 746.2106285057349,555.1922452147687 746.4330622758218,550.3819168814363 745.3135694139509,546.6854544903226 742.2924353263729,541.5474463588905 740.9457745732949,536.2853477427977 743.7411844430783,533.5894743174849 748.9052128597122,534.0386147103723 759.9911517356845,539.495482149149 767.8806182725867,534.9879398476846 774.0728676965149,529.3552570900011 782.514651858657,526.5397667810118 794.9992918300242,518.5409399017035 797.166569780238,521.4652527712758 803.9155101656266,526.534716681947 807.8576826384574,531.602562288989 808.9595643611409,513.0811386545822 807.5570785887088,494.95205892183446 807.8548737753612,491.0568413414212 805.2270429074539,478.2124513209452 806.8999109699073,468.1782859453491 807.7937835418877,465.60678379388054 816.2560464521681,453.58787191522947 819.6638396632366,442.0363181241167 821.0862532061433,436.241554653158 818.7724161092132,425.41681355404415 827.3662735126387,423.6501243702726 832.516495741534,420.9596555450576 836.741834675183,415.88661344325124 835.8908089627605,406.14675453938344 843.4339811059999,399.0428394748862 846.3929277682117,400.8396179833747 845.1672867763333,404.49307340520187 846.0132867731049,409.9842054236833 861.9996051645169,406.0018047360001 874.7608731717102,405.1628388522324 880.846471172954,406.32770565360596 891.1783071563216,396.9690547707435 893.3305677608486,393.4475075799748 895.0330192431745,388.5129424501788 897.9319736890558,386.4771475856877 903.5478196584683,384.33947487758917 905.3723587124545,382.66070652418614 906.323638654045,378.851726663819 906.4559628850897,373.3932457495214 915.718908723858,372.26165140605724 919.4628596856098,370.3495050512414 922.8602025550111,365.10911243451267 922.7059903842282,363.38074800580443 918.4099352565853,356.0835316797103 918.0218413525907,354.4633828499782 927.1727057909951,347.41998953012535 934.7271560964649,342.9884936190924 938.7133441267896,338.0682335859524 943.9537541060331,335.29546699212415 947.1964684571888,335.66686924365854 957.4278309727392,330.40009579934133 973.3880902839702,320.4214555322693 989.767655889412,315.728443290453 1000.8454320648635,308.35081672499757 1016.7542835165642,307.6120963441058 1022.9652038310988,305.91126489759563 1023.9238232386433,296.2123518756307 1024.0,287.394680683705 1022.3355063500952,278.11636545402007 1022.4163652464924,268.41478491059456 1017.1953155861573,260.42835464007555 995.2803891349728,242.13839498805703 984.7400907952668,235.4161129401208 968.8884002053899,233.9393850227999 930.0817683968949,231.76599016813668 903.1908798798098,231.04596569759678 881.5497818644851,234.34464453798864 866.9611112369533,238.60501900375743 855.8898498445209,244.6742389621112 843.4063395723471,256.46302851329915 833.5903848815738,267.38892390105786 824.3051363785227,269.5108475405643 819.951676139534,262.4113175517251 816.0363553957113,255.3239417661414 808.7251596079748,232.7680340650237 804.8827770002721,219.05124759851276 798.7694366254952,209.7384312426385 788.2763380393387,197.74297763354616 781.3548573566488,182.24857800119844 776.1674327930917,168.53449111060468 767.040209607062,150.82378191168743 766.2509256113578,139.79241739036718 761.0405033059594,130.04408861513195 749.5498972732265,128.64626038019537 741.116216075035,132.10598461928691 736.6533413669345,138.2540244481056 729.4507298461157,150.1092522380684 720.926635189797,162.8417583464543 709.8313433533164,164.5309661035343 701.4769416672501,158.7524974809612 697.5642792855951,150.34677486098371 692.6286244081851,147.4168879161142 691.8251871513539,145.62258716385816 685.2529923538397,137.14555110444815 670.5398445380667,130.81906148820053 662.1857344781521,131.4769073898991 656.70041202798,136.13719812369504 655.0342437638348,135.13262830911628 650.284449895912,130.32372305515537 644.0273992083551,128.4679115860872 639.2656430572953,125.49201039482716 637.803980487614,122.93596134033953 640.995606496654,109.24217866995241 640.0580467684723,99.91757066828313 630.6364314612167,94.34665456514915 624.5780812351456,91.67109855064712 626.3488872156416,82.92392366073113 626.0236097112285,79.97958983545539 616.8286525415101,76.81179539392656 604.0091130568059,65.92625038540461 598.5278004422822,59.66998485346062 598.5470156874071,56.87209169798041 602.2982633129486,53.88264997720853 603.2437968483367,51.16220875165982 602.6446980897958,49.28058301391502 598.2678389756645,48.56449448552371 596.4914384609199,47.405015363238704 593.8874680575458,49.652805430357034 588.8003030797078,51.32421174296064 587.6114633888332,54.99033647597571 584.6959845375228,52.09911532169599 583.6981894100425,48.97900987173284 580.3375969792427,44.36085997028101 578.371422595209,44.156956234006884 576.3679305085119,40.6224198731727 577.1893113279486,38.137569734080444 574.9469784672984,36.7229486551322 572.2801320536327,37.769008099365465 569.3777997711004,37.37786242473567 569.0297514604238,34.74073536579294 566.8931179940708,32.72143334928762 562.4816134349355,32.429187869957104 560.2714261019222,30.760990274041887 556.1317974686061,31.0220826415042 553.3869240327256,30.009218456112535 550.5807236857096,30.631292605344015 548.190459019244,28.529325592847954 550.5894828537126,27.877500390980913 552.4470123288062,28.8380200083634 551.2565964657641,24.34428287491403 550.2393919982766,24.04692158720229 547.8014538533102,27.18904446356305 544.9694398935139,25.679662508718934 545.8782804892369,22.436427598695104 539.9587501669522,20.851312640948663 535.6551652026213,22.67136797048431 539.5344990218183,15.96514498284796 536.3181919105164,15.238925193239766 536.4119494848695,17.812811279625862 533.5945959828827,18.513411251705975 533.4127719141698,14.072878085750745 530.4726766021435,10.540876097148043 526.3188264869012,7.107774353341938 521.7287380953759,14.665820660475674 520.3611057187983,14.873169169152334 514.6658737809349,13.306369038261778 515.7791295619662,8.648358614330277 513.5475826590412,5.815001111911442 510.9206968091795,5.517411570572335 508.5247267569533,6.989480417377422 503.0681061162528,4.928323747490026 500.58334701973615,7.354793390114537 501.50024463186816,10.186428808149458 500.7848313565401,13.421329355289458 498.59820736501047,9.806008070656503 499.7024024229456,5.209482888378943 498.503290976519,4.749165090224778 495.19935859078083,7.786522207459598 496.94081517637164,10.722181466177858 496.0276879916287,11.538059201434862 493.1000659962869,9.295203503303128 493.004443826767,4.105746427735767 490.4710284512045,4.898269939068996 490.66267347078116,6.6696121418783605 487.32510723597346,8.693859257365148 484.7921055616574,12.340155272056109 480.0759196041947,9.253860524109086 476.2399899056452,11.05907909463781 474.9819966531652,13.044631994064048 475.48427719006355,15.37750653664284 471.44838734249544,16.78146248177802 469.3128615988888,14.970797187979315 470.93306061673115,14.775183599855268 472.82844051791403,12.235104272283593 472.2449605203199,11.029704075605878 467.38816210251275,11.833724301343068 463.049247918906,11.638320394805191 461.5589846482458,9.18087630067862 455.1662837343663,5.297613470134252 455.02573369736035,2.427356274665385 452.88850208967125,4.704152719320973 448.19217369365646,7.132909499597531 448.99075980119176,9.29509636005946 447.24305328924527,10.131496281722207 445.02615336096875,6.621159845334546 441.8672330890295,8.01583142084769 442.29097651408347,11.29563626557649 441.197172652041,11.746762986762292 440.22071011018215,8.877924782495256 440.385355097867,4.466745318966332 437.1304394904098,6.327634548093215 432.1996373282471,6.083072871255126 431.09449267307457,0.0 425.8371947606272,1.0808116383462902 420.42433144546754,3.9091718084489457 414.0402962881356,6.009388722070071 410.563683244269,4.710768876718021 407.73403434146405,9.562921889415975 405.9598700123834,13.85423580676661 403.9508871199015,15.337930513416495 404.90936706022296,19.35217377325239 405.4823955430543,25.63119140208744 404.4079717187959,27.490991018317686 401.83089439874243,28.572534488189262 401.1616469130256,30.950452842439176 402.4562089498834,32.188351992137314 401.74295254347743,34.97143414494303 396.76488850498214,35.48497647920851 394.24728193137315,31.339621135535594 394.6616171603237,27.875873268646046 391.2488477018139,26.343036992262 388.73814143541364,26.88301515784667 389.5249541268854,31.916477961746068 387.7889253804057,34.89154572743519 388.8171433182548,37.68028085442393 391.4950340612718,35.534957120346235 392.6021806765016,35.92203555908577 394.0559658986745,40.52818113832507 396.8371223398372,43.25726267365019 396.89393114992873,45.13528876596047 395.34837935888135,47.39887476077797 391.0170627801831,49.846747247284384 388.08652783936395,50.583378271637685 387.33034436102326,53.60247917329832 385.78213002892625,54.57454670175571 379.9276818131693,51.24322101899463 377.5100614533151,46.1414169945557 378.9271008064783,43.49065618033842 380.8739408613653,43.42302619218742 378.41146358329416,41.60715833171389 375.2888518679899,43.262704144285976 365.62528565619726,46.18587669059957 362.13340046340795,49.552655238695024 363.35411275785196,49.75240272944836 365.6659269739706,52.63961024074899 359.8426177138767,55.628879515673134 357.636671520037,57.425886113843376 351.55274837401885,60.04204023248769 346.22051105653946,60.03491219741727 345.50374458586145,61.81850103515353 342.3038299107041,65.5563102432991 339.9885631975864,66.9737221959557 337.54683877676985,70.21391980216083 334.9225975744337,76.06248100498863 331.3101369421054,79.04933479074953 325.2193286645176,86.03506404160976 320.0454571095027,90.66986804538863 315.6116782209492,91.7185818468921 310.64189181752,95.0460751431774 305.2208660551678,94.6972776268766 299.3850091919871,97.71015830286763 296.62442513581226,102.44647755406208 289.8231076942177,107.75568620684544 286.47982733448686,106.36620662170947 284.0206128071633,106.57124251447249 275.3285395832028,98.52925225955994 267.9494714559494,94.52194031381623 261.9046724010482,94.29208956857951 266.2519958195244,106.31974112105388 263.6548847238851,112.31203361011 264.3704517442661,118.1967492340766 266.15232339681734,122.30090173780434 271.1442042070132,124.06723458354827 280.2058245431847,129.63890486206867 284.65462625583825,130.36087455512984 289.4538181237227,128.23359864197096 288.74000921813433,123.16193287982401 292.4835241603263,120.39191534531653 295.86232561950544,120.04042009610646 295.68146478902935,122.17795774546494 293.72945955696264,124.1398589570648 293.0192001048442,128.59663027548663 298.89263341130857,138.77552308025588 303.69158830059996,144.48514846987837 304.5850511247307,146.26995594332413 303.510734802892,149.30553938000128 303.69517713666335,151.61895418906374 307.95897137773534,156.62851253293354 312.05567089003284,160.73533473820328 313.4769640775214,165.55114630479864 317.7472788563922,170.91418294338166 320.5874484803534,176.6252086366817 320.76942385712294,181.97502936552428 322.3785565726566,186.2599170603097 323.97539582557795,188.0501950778537 327.354151624351,186.45100208096312 328.06491043962933,184.12738043671936 331.97928338882616,179.14613982171636 334.4699996620143,180.2207859114285 334.47447189241655,187.35645898121402 333.0486290288421,189.84743790011294 328.59923054345995,190.19102640121537 331.6240852452677,194.659952688016 331.44033469965393,206.25655582182833 328.06816085962134,211.0614217344455 330.2027715162505,211.95455998056093 331.80408037240124,210.71221750566428 335.01036571542704,214.1063043252858 347.174193619707,222.41327432134653 352.78272365746255,223.946338152188 357.4099981064949,225.7541689923455 360.62091787907724,228.61561459843278 363.50544421432113,234.09388025110184 359.73133199769796,236.81089064600894 358.4823127850969,238.77103736177958 351.0028085119477,240.3656820643605 345.3139538530571,236.0761294113655 339.0891801094321,234.99740332692704 333.2094308007192,230.342857145989 325.0272435162128,230.51487653209415 322.18457649439415,231.56674087057843 318.4424913732351,235.13286519414123 317.7354532620965,236.73581962008313 313.4667205078189,241.36239050143013 312.4007013628311,243.3237860837893 312.2207325780843,246.71049128245375 316.12989169756753,251.53825659759127 319.51637604883376,251.54773027076794 323.42310724185944,254.22486838827263 327.69523294139685,259.5799520003213 334.61299510290974,264.7750573675137 333.4770637214026,270.4392697140437 331.60789888527796,275.81906533121287 334.81084329839524,279.7473288718835 341.39186727712206,283.6846512873059 344.24389882784646,284.2315527945168 347.62566868319504,283.52570254181535 347.79829419152844,281.02296598732096 343.59673641910473,277.02366445262874 340.1312828931943,272.7244782787325 341.4071712496414,269.86906617324473 347.3472735147711,265.7681916953459 349.4054147395943,266.02828186195165 351.4688370814611,268.35815521954316 352.0930087248159,273.2769994504548 357.32066778421256,276.7690794224237 359.4896757099794,279.74157166629686 360.563483761741,283.41855177160085 362.39309805628136,285.617756843013 366.03645704756684,286.7758911182632 370.8266668517248,286.08060477069125 375.235925857821,284.6693303808868 375.580263298058,287.5988300050137 374.4392418585283,291.2510388039917 369.72914907117377,296.1018809764597 366.1313114808097,297.1042290659452 362.3903842769206,296.5699268404031 358.1189909105408,292.0995114840632 344.73398686354454,288.0654843308022 342.6809523758858,287.12893916957137 334.54189156111414,285.43755111211135 327.11622713684636,279.9944186138737 327.1163920986031,277.4826415472347 328.47043803512486,275.3524138467526 327.7564383248732,268.77812388080804 323.83975679047893,265.9741498514437 320.4862844662596,264.4660034305256 316.0719403695521,266.51819695105564 314.24841118305915,268.78878388270743 304.1157917952542,269.1062000407221 302.17878731631936,266.3791266967762 299.4728274806215,265.4101209411514 296.766770273463,265.7940343711299 293.6766668267383,268.11010660636214 286.6402030606641,269.1376638382309 284.343145072493,270.69126870756236 283.24068832650437,274.48759262881447 284.0155946981466,280.88189834869956 283.8164002213724,284.17811710605986 281.6884870558422,287.268585567012 280.92231103884916,289.98178291228476 281.6978821102448,293.85660900593655 284.20311568862667,298.121988048479 282.8532819422292,301.220632038526 282.8484843589388,309.3613500698533 281.8809332495794,318.0747199913294 281.11468897999674,320.7879164370179 270.46171984349576,323.3061948680306 264.35664482270045,323.7084756124435 262.2993624503111,326.80898890320816 261.26904477036226,331.9703039455104 258.8633616779823,335.41197429280714 261.6103652294466,336.4470373674626 265.38313595557025,340.5883182447866 265.38834886674715,343.6882316486043 259.5511160753355,347.4634406664404 253.7035217500202,347.45248113765683 248.891130673358,341.9361524946721 245.2369530007755,339.44066271221675 236.86218872754014,331.59072454401314 234.4550284832346,327.7926863654226 228.94967488027095,326.065852746573 223.1014850869242,329.8497830526386 219.3227522353198,330.1894944068324 209.68526869981113,331.89889505697624 205.2114722172911,331.2121440816885 201.43606880224806,328.79379951449744 197.9929137301471,323.28017323179256 194.20721574970938,321.9013408852584 191.44819391950276,323.6232849975879 190.76835196508387,325.68741119779975 193.17270852327206,334.64406759755593 191.44711835625358,338.43486503418285 188.1589614006842,343.55016072756894 181.11869731032877,347.0522363768772 175.27206708082048,349.45144974501 173.5501333581551,352.55607961895885 173.20996326946766,359.0970761851909 174.92497444526379,366.33188129499797 177.33956693486823,370.46494468380683 177.34087040387433,373.90888633529755 180.09562482465094,382.5188079863302 183.18388427248635,386.6497719053343 183.18550628567792,393.8893251481473 187.11387058400632,398.77678769132945 190.07481725385745,401.12504979683416 191.44751719914828,404.21913235964416 192.1338792136902,412.48679400865035 189.04070728042097,418.68958546645075 185.60023543538736,418.68770440327756 185.93742316320734,429.7025912555801 189.98816366036792,433.4532713284613 187.8808785445003,438.92246594067024 189.8012420790225,444.95189621269856 193.53367621263942,451.4384364312483 193.63198406962883,454.3950140133311 192.166319717846,456.4256870401092 185.93708053170496,470.0012907952234 184.91376004318616,475.1643508347801 185.25204849854953,478.61108085944227 189.37998039087725,480.6807718206902 196.9501820479988,487.5720494924274 199.32194133409033,490.828094114115 208.5076719834274,492.5147083679112 218.81134236136324,493.72014114793325 222.40502981249608,498.61570199938427 225.9711750207226,512.1014214774711 229.7350280287506,513.8945490690423 234.78438514555668,518.259873466257 235.82084771236444,522.7345837184375 235.4776881396837,527.2172482012859 228.4516496847976,532.1891492692913 225.35729654475168,538.4941927361742 221.57938355669214,549.4443399740937 218.26682016859763,551.2428312797331 205.74222833709356,554.0530109785407 186.97550331632488,557.1719319921572 178.86498104745544,559.664027436344 176.5863945295437,565.8754627039419 173.6374640722858,568.0396895433873 170.6823600888034,568.3857983184505 167.39231868111878,566.1615124949948 160.49740204042564,556.5788940537144 153.90112351436977,552.840932029376 147.27016304223383,554.2587574739671 134.3493708293889,559.2877203508617 128.7982996851414,562.1787503173902 122.49077339703757,567.61537552082 119.10410955353625,574.1897185169386 118.8751601150502,577.1819691794021 115.21008653089727,591.2259704631756 108.46610176932026,598.5765443413131 108.4619811724517,609.59631108333 112.1391141218968,613.2641062914615 113.36983528769512,616.3246465178013 120.10500055327272,619.3863313432455 123.17434984902472,622.4337552271832 120.11353645151054,627.9539122627159 109.07683613971707,637.7660654387654 96.72813230099116,635.0725896615897 85.36351637930525,639.1904095396948 79.8135354498887,641.7019316714104 74.27463934601396,643.1372073582436 65.42977539939521,642.7080020586322 57.3127071371449,644.481589660617 52.10688333950607,649.5747117579759 34.68320557172007,660.459478203537 28.008619959412957,665.1777940111665 24.284776805333603,669.1727913771396 14.552233464466992,684.5048418084909 10.838539482376616,688.5093741213684 3.789771933528538,692.8605483600395 4.502095015144942,695.3653877273002 0.07840410792484537,699.742004630652 0.0,707.2538840337165 0.9985247190550408,716.8011092110204 2.1209621481028025,739.7486733072187 4.98496544834834,766.6766263607747 10.636282387218296,781.7100958618494 19.345700353502373,795.4484509984434 30.317888296423888,807.8689423045898 53.675242363586115,822.135325678671 67.78939267265214,828.3972322034356 84.53865887636292,836.4569523433819 96.84568326330923,847.5656620680599" /><circle cx="390.01640192693606" cy="545.8230516861584" fill="rgb(100%,100%,100%)" r="16" stroke="grey" stroke-width="8" /></svg>