<?xml version="1.0" encoding="utf-8" ?>
<svg baseProfile="full" height="1024" version="1.1" width="1024" xmlns="http://www.w3.org/2000/svg" xmlns:ev="http://www.w3.org/2001/xml-events" xmlns:xlink="http://www.w3.org/1999/xlink"><defs /><polygon fill="black" points="641.5468531321675,720.2983662202544 642.5496809940286,714.1143988278054 646.4919318930466,702.9109224119452 646.5722350814613,699.5237651249151 644.4725022182258,692.9682581269244 641.2098018811316,688.0688865667234 638.4447953427106,685.7285844671869 633.6424326703361,686.4409625420657 630.3978844023998,684.7498825230656 627.7402274336719,684.5604514127531 619.7148211954116,689.4975676302124 616.6720096483807,689.369507787399 614.5617850188023,687.0505185393549 609.0113308236902,689.1567515667753 606.9033107134462,688.1916569078415 605.4953774788049,689.3905098564765 603.0432342757822,686.2610819514337 599.065153513168,684.3336890963108 594.6834345658084,684.9502099486751 592.238618966509,680.9991548640303 591.8206008894864,677.0116880831101 584.6243200239982,674.7443740514445 582.2461745776892,673.1296622265731 582.1796490720526,670.5383143088325 586.0245867235695,669.8856434293854 586.9157573604565,666.4473293241804 592.299513509431,660.8512369798548 601.5397627569068,659.0195349464143 606.154711000079,654.3878797091204 608.9307100593422,642.3266154227933 632.9500494879636,623.8139357320935 642.1879696909615,623.8448071471462 646.8084158262435,621.0667004263055 658.8407483055626,601.5867823368069 671.9558857827225,595.680730538789 674.989859973019,596.6366328948131 678.244402419239,592.9444197275318 684.4566413566645,591.16338748168 686.482968352701,588.6448699589344 678.9982238917643,582.7499506322011 675.7019285802317,575.9236780637993 675.91758843716,573.1519591715219 669.2242740907342,576.9636783129741 666.2993438324928,579.7331864361095 664.0625921321828,580.3923452329207 663.9295506718092,577.6420284182007 659.1744769943726,577.954267496907 657.9299493275221,574.4783109761637 653.5050737988588,571.8631476668456 651.5862904537189,568.9175414957454 650.333509467142,561.5707844527099 646.6603180763449,555.9541429858094 645.6173375868585,549.1961013466037 643.0304413660078,547.7142584150453 643.8986931197928,542.8880718511921 643.549362631277,534.9646408964242 640.5220074433736,530.077250334091 635.6488413168636,530.065243430521 634.4862146230558,527.3249668862244 638.0590903444989,514.4683293863887 643.1225501332726,518.2206463172148 644.8152643469209,518.3049774208728 646.6107839674233,521.6302252809139 648.0257448744386,521.0869014091098 651.7858529031965,522.5949180320281 657.3480890118029,519.5557682274175 657.5350369912903,517.3303474177574 659.888043400905,516.1249111357733 658.6040334701156,519.1207917010422 660.0701167927535,521.5748607673129 659.7883054678921,523.5990043710508 662.2888788493619,525.1533175070913 666.0085457873219,520.2542941622089 675.2993289814215,519.6631899716466 692.6239662681559,516.4187705020527 713.9346044608491,501.6702580242795 719.1024159075118,498.68051541848365 723.73350984298,495.11289446032174 730.6962496745134,488.4877370331569 734.5874728199983,480.0933703712259 734.7855831438683,472.17908128612896 733.5343769223995,465.3623836104782 729.4187248847135,459.9024055176769 725.8102622888845,456.9933817392813 721.0227203713526,455.747352171662 715.6903434721171,453.65658533420924 705.0601404735378,448.5961351362929 700.659293054944,443.399429699448 699.9042085085804,439.7103182231175 699.5074641000086,432.62538189636825 697.6388402430084,428.34612750286624 693.2263062770332,423.71344092940103 689.8563303540484,422.49526919177777 675.7345363341879,422.1470662060443 671.2314071063189,421.1755952815091 667.3332819537521,419.10265255982165 661.3604809861135,409.44482717363564 659.9354131787492,404.7956387858353 659.9222493215913,401.57671755915226 652.2411113475213,399.99264037055 651.3721639412885,399.16966651621885 646.4485139507299,398.6705515102245 644.0243572483994,396.809532134243 641.3864220557753,398.2654627101372 639.782519544341,396.61662535923074 637.1164438406328,397.87906407081437 633.0466073474014,393.62428383547444 627.9845558945183,392.462741175275 624.9298935024639,393.58392692078473 621.9540503905833,392.09568302060177 620.5862995070909,389.60116727892796 617.7167098009935,389.1930852469568 616.9244041542441,387.1518582006005 614.0217956350067,387.3790459349701 610.5002889769752,385.1814213872183 607.5568491438356,385.8077814740228 606.7426043409262,384.0020807560445 604.191845246099,383.35063694982284 606.0226603737052,379.29232359989226 608.8229288556214,377.04630736313277 609.098268201769,372.21640404800905 610.9293605296767,368.9655141326567 614.5405286093611,368.16637307591634 616.6308373629627,371.3450396508165 619.1054624183326,372.70321578682024 622.6193782200456,368.24950275828496 626.7388588035201,371.6956683750436 631.0124446174437,369.48771980401625 636.3884440830367,368.78966634569906 644.508594893493,371.55690881433827 652.5486703858336,377.15544747982074 656.693848278918,380.6501652553651 662.8328414488186,384.2097190899034 666.4609741850097,385.718096717 673.0636154550001,381.6397220165195 675.4207971113657,377.74833732887055 677.0896287136172,367.3296733374376 678.8966327469603,362.85211353320597 681.5344852021478,358.96329327727585 683.6416318105456,353.65049830605903 684.1172235865575,345.74060803019404 682.3147195996506,338.6343065827691 678.4893215088059,333.1624642192926 672.1840431169176,325.3731668408212 667.0056085675578,317.87916511120227 663.161319402867,312.9687817093255 656.5643191302659,305.7411402969508 650.7666277706296,300.49192397379386 641.9138903982224,293.1871853401735 633.2980945612024,287.86586727003316 624.1608203435759,280.82491999765875 616.6726744582057,275.8068693680939 608.4962573598925,275.58434938569087 602.0010099593936,275.96565411737106 596.8838471033794,277.23443351262733 593.522638372485,276.5764512076395 589.9143340409024,274.49575419307564 586.8737253604302,271.58368229592895 583.2531887181336,258.1994521193328 586.5557589887745,250.37184428334263 592.6202418839748,244.3236865979561 597.80111178934,239.9514657726105 601.8708525178184,234.9801465693621 606.6549888730929,224.08248669831994 605.9721034840687,217.56597292324943 603.5751428708352,211.84343570936323 596.1466740128843,204.00244629959877 594.2463194748789,200.8464907514034 592.4407362656499,194.29168390395148 597.1091375473019,187.6336282330684 607.4702408697801,179.1708881359815 612.6791496511535,173.65994328593263 620.2942427898532,162.27941792473393 626.2014178077485,151.4190714924074 632.0421607934055,143.38247455856606 640.7427301057068,133.72409166640728 628.2099588765133,127.16513500376504 621.8169008308421,123.31851083941547 615.6591578912243,115.83833731898142 615.618198577655,106.31753841528348 615.9975538258495,101.34823717227232 616.9843087410738,98.99684411466228 615.4091073508181,97.10833809529572 614.6656220612275,92.59961469750021 619.112350192484,83.67413133215132 617.787787707435,80.24104758641556 613.9374048395155,76.17894862347566 610.3354638873109,73.53548777799529 605.0432141448952,70.84935730090558 600.0645001791681,66.74885919487679 594.8654269519212,60.386205198484845 590.3892239454573,58.84562641918569 586.1077961270391,60.99465939812683 577.8507512888625,64.15160885796513 568.7722125041146,66.16238968033838 566.8743326707751,59.102768738920076 565.4005547078142,57.566694488234816 556.239474635457,53.56421222993504 552.5606995067651,54.11625246786457 547.889245173931,56.55871252445729 545.8265536191662,56.35236140475854 538.0207110776356,52.00287123885221 536.384768104971,53.615844167124465 535.0602818206723,48.9832718640597 528.8656394157978,46.80629093215839 522.901959889872,46.31296729182293 521.2140887927414,44.74133195738352 514.0661021549563,42.44892707609165 511.2225651957875,38.2961696952691 512.2752769050113,34.797925406713375 510.13166444219024,29.282594862803194 510.4844995127899,22.122200582209643 509.2836935362075,20.528136440373828 504.5393392613217,18.199020043920996 503.5907750231301,16.160086542658632 503.64404221875697,11.439394337631825 502.48068738373155,4.57713656888609 498.83013114787843,4.189896834864612 498.1051176377286,5.136265432595906 492.5509606714469,4.953568648324449 490.2670838994291,5.748766168108546 489.258105738903,7.912357895832429 482.9041431765597,7.559366621563868 479.45829453772717,3.0672929232413253 478.57071835802236,0.0 475.7107650656413,3.444705841118548 472.3349782831404,4.2087319182253395 467.3807511678684,2.7378310887147563 462.1137298273274,8.463828220418463 452.70407312661956,15.492826534906044 446.7216179242909,17.728761492765216 439.61194425292484,19.12157703138155 428.235973744165,22.762709115083112 422.84064079554076,22.449702225907686 416.5910579489761,22.708185890325126 413.4456247968316,25.242988709211204 412.29710573683184,27.21627608215249 413.11791371564277,31.466879970424543 416.49553811045666,34.590800694484074 423.8477921262939,39.419975111167446 428.9359181655508,42.263916372407834 436.563230702155,47.94903735756884 434.21986684748646,58.41076865121113 432.48228470060155,61.79506019319126 426.7778435219748,65.44760083080257 425.34145261828365,67.99017102895391 426.42995112545015,73.92395765713911 431.48035302629205,82.71448722239757 435.11441988471444,89.80289518059806 437.05946871714735,96.0214905561553 438.42916677394606,102.53005157672294 437.2541102653452,108.46644834402002 434.34622496793503,116.94478859544824 428.94568264729804,118.90234333933108 426.1044763692079,117.47090978909205 423.0310208476432,111.5245918857056 424.2084184485641,106.15847995204626 424.24224752516926,101.91233735785329 422.8806614082226,93.98872134743453 420.32399951856087,97.42543660649358 420.3453125375548,102.94255320033096 418.5395585584068,105.4749960706273 415.696641554042,114.49987143382259 406.5941453019818,122.91772266005216 402.1144290970487,121.76378403797253 399.67545275410157,122.73460295131838 386.8955717409632,125.21880333342813 382.3503783724325,125.7558685439659 365.3700496989794,123.38792614307022 360.26302751288506,125.0475083147503 358.27108768164186,126.45432344090148 354.55014907242287,131.80454033500598 353.9361874153609,137.45153896963097 353.89743821016657,143.39033540949083 354.4122176433669,149.89600523870172 356.0562260209836,156.68782423995356 361.39277933384864,164.9643849143779 363.2151951954108,169.75572070941257 364.199405916341,175.55921145890625 363.4506549971377,183.99441178512643 360.9765714831092,189.68339618007212 358.80070704454215,192.91874004956935 357.89058228683706,195.96924673522926 355.54162677145314,195.65273219276503 351.1636207179896,200.01543191898554 353.62100813191375,201.92933389718974 349.5195653777424,206.7237495074254 347.91917508513205,209.4048246851322 343.55043734185006,210.09809594930664 337.1579257465293,209.37515099422956 335.54768083576346,216.8772979775374 335.00639936545105,217.09513755058913 333.89747426182925,224.29014201719008 328.28682530061,224.697661677327 329.04013747606916,229.94963713205107 329.68452306715034,240.45572930583182 330.95740373860843,241.98254186652844 329.68949008743283,244.1366153046339 329.0956538758707,247.80181682583373 323.9711763456919,251.72548193748128 317.7546796373579,252.5048629917477 308.13924616166884,252.14527742406267 299.0996284414676,252.62823199388265 291.7532727714255,252.28153741226254 288.3351514485394,255.93518366346882 287.44056081010854,262.14834512705625 289.1146367708821,264.6969831073619 297.28653393978004,267.87952471077483 302.6426310546454,271.61047675966165 306.8451510938285,275.606269659699 310.4681389129311,282.4207493193876 310.426365209664,287.5135366242282 308.9697500702784,294.84404164502484 306.6552767182403,301.6161500524398 301.8051798989547,307.8001132785689 298.67295508045424,310.3068917263828 293.85553988687974,313.0905224149068 288.1792988305325,315.31409399010556 283.07932390960076,318.36990726403246 277.0852313616186,325.67235306982536 269.6378980087788,338.8917202606101 262.77119253215847,349.02353118277733 259.6422557741913,352.3878505526536 253.93616823994208,357.4384160006422 247.4292124113003,358.80257986872675 237.80363014551546,357.882810054974 231.00319749790657,358.4046008196716 225.03621624389527,359.4979829639311 218.78790284191646,361.4544701389103 214.5178345525104,364.52901711138736 211.94452376652768,367.3476534603551 211.05397564644707,371.58614856233316 210.67943515224366,383.4616280682976 210.88283577567185,394.487509560794 211.9693959882729,401.8475289708156 212.4588675771927,411.1826488485474 210.40987016438683,419.9366740702749 206.39669361448276,425.8566957108967 200.6760556737963,430.6523762496522 193.55785656746787,434.2950149658503 189.86188914419316,434.26977205247294 185.0564080901788,431.14381465781946 180.788592767994,432.25543722008626 177.05822200946326,437.06442235895884 175.30808535609015,442.99273113543813 172.9995866371255,447.50238776549975 169.56888068617852,450.6077410022989 164.5240607654757,452.1569079064525 163.67666998998536,448.18954451917386 165.77186544933113,445.62738260145125 165.5133570374762,444.0484592254055 161.4129282357833,446.3617482937291 156.40310764084583,447.1937916592583 149.56343474504746,446.3802462906913 145.66626947848923,446.61353011083395 143.34989608544697,444.4291823369498 137.95989236492562,444.4714360349117 135.42894371084597,442.6280686168036 127.50288660057642,439.2735599614017 125.20530047647794,436.2402193274079 119.53401512060215,435.93906760576465 115.92013245113752,437.54418888775353 109.44207287629862,437.59936117461336 107.62365431277792,435.45349238036397 104.18719589173256,434.436921280502 102.2291910897257,439.21217338095846 99.40903755895769,442.8941152227162 98.70302485866624,445.74099295094504 94.13285132860632,448.3370307656961 90.3747462953614,452.82587723122265 88.83633104270366,455.87544745956006 88.10137613354605,459.7959054283649 82.80156471875422,465.27064857898904 82.20484648273376,467.05174073931175 79.46860895334805,467.60335008875427 81.8374382068438,476.5368721200157 79.04524004183249,486.55673183388285 82.6450876074257,490.84311679801317 82.70145522446713,493.71486024209923 84.08156056172746,498.48073217069475 87.89427741525346,501.32073689899926 88.84197675444184,503.2627397665591 94.35281515067186,509.79800145971683 102.56945568000145,512.6512427251592 121.58601096967135,515.5361887598901 129.54167120912862,516.9710204656318 139.48586812619948,518.124659108058 144.30755716343162,519.2614272526223 152.2537824885952,521.8304471449655 155.06987194177117,524.3851139014863 157.89525015972978,528.9125836214255 158.98539372452024,533.7261672610969 154.0967416550695,541.6264706371528 146.93382749546012,548.4018003031895 145.041262872623,550.8807286155932 144.60201185857062,556.3143144672376 141.9672867219514,565.913750614817 141.2954337523377,572.2130567989792 133.77520564067888,571.9139248702215 129.20818802463927,574.2704198176589 119.84061710482777,579.8359503546956 120.78189967936707,582.0880886830605 116.29326064590555,584.6769211128303 114.04944272085623,581.5949511787846 109.67686830291345,582.7269831582383 107.46316415829439,581.2623973406041 106.91254554651526,583.1575547072292 103.62726887474393,582.8839442321989 100.86505817468532,583.7444691604827 90.83602899992196,584.397476888649 83.05473984301501,582.4107923035357 83.68669255988347,579.4694181327486 82.34609464125425,578.2196796216142 77.27579855829808,576.3256033820328 75.25021338712507,576.2986781809316 74.52140811248992,578.2185342301252 65.36325262568025,573.9068878171876 62.64385138931945,570.3123931844664 62.9929317362508,572.0440648631815 60.7286617600746,575.6564423290362 50.48682414937212,580.7730859058145 49.12818577771006,582.0710025014826 49.12394326618356,584.6312361330472 46.83977752505921,590.4341237946173 46.46125082324896,595.5712705452704 48.3457262228569,598.9594727986929 45.73330246544128,600.6344101846107 47.80494368834331,604.4796576719268 44.862381031460515,610.4314914313892 42.39476572442736,618.4212447501809 43.856991668987874,624.288578811104 43.07792821439927,626.6715004000516 35.38717221039426,626.5608820268571 36.8243679617785,636.0656593775834 38.4893147665876,639.9520624375593 38.417868475577485,642.8524171761567 39.598377965192846,644.9271562942265 38.63367006969064,649.0656709735703 39.36004217447636,651.7349302410457 41.031530034599136,653.1735436909646 39.12578502463357,656.0430819492026 39.78592651212922,659.7682173610921 38.37592474041603,664.6246517292196 39.78951820616671,669.5733882565966 38.138101677964386,673.9034676525273 37.999598510829244,677.7892347379926 35.04634302182615,681.7171239928999 36.41018722078259,687.0996364193336 35.33801507213384,692.821410155705 33.226379295786245,696.5147398599968 31.886220243650133,703.6279291121148 29.08425899613952,705.6560270559647 25.089064679365357,710.9185944293974 23.872519453661326,716.8805704977993 25.183260582814516,717.7339075245036 24.952766916045007,721.9219422455155 19.944278399608383,723.6086990795286 18.11126851903468,725.7801052069822 12.375260071001984,730.003582871396 8.312679217076656,731.4840864278679 8.998753486349706,735.8182477824059 7.840158558905612,740.4263395735734 6.23911473517458,741.3020175981894 5.523831249448781,745.4396120419331 6.139406454806633,749.2412716963163 4.372088364424712,752.4789361226419 0.5134970682031756,754.5195850014813 0.7984989137842915,758.1959711684088 0.0,764.7370108941602 1.6071235689189742,773.2595385310891 3.26599162337592,776.5175737654506 3.7541575317485183,780.6012882707996 9.82239423946916,779.6312540176239 15.187353505354245,778.0601138609109 16.661614805217546,783.0771238475222 19.751876271590486,788.1833436369939 25.37656264880034,790.7928005185835 29.381088153908873,793.4069091240436 30.79538131526002,795.8797995985715 31.83835896979642,801.8922540013302 33.670311929272856,804.0706080890268 36.86485236844994,804.5867319842465 37.37729319178961,801.8043062544616 39.89071702885656,802.4585585069563 43.16659073899918,806.7911212468496 45.547923206296716,808.2379518934636 52.130275477895495,805.1090720680564 53.293061530200305,803.8724443684773 58.00975604742635,805.9765661280235 62.48246994501439,809.2057017610763 59.48238910205385,810.7791263089496 59.451743124361755,817.9247393556474 55.23193303493128,821.9485870236937 55.27784696075014,828.5275888261302 52.69322399541499,830.791362687696 50.60799124956127,831.0318105628282 48.44383963485941,833.4495134426933 48.54206400233893,837.6477866170287 52.04014006800653,837.3558137797565 53.68480065646494,836.0370806532969 57.899929656621524,835.5241147780781 59.271674537053045,834.2828871359113 63.69374915002087,834.7305529450632 70.15965596802508,836.7773995198927 75.43682814187596,841.2714648228493 78.15217992415859,841.9313214700912 79.46001983473319,840.4847141582648 85.07971778097868,840.6082478326522 89.80923561387435,841.796878495433 94.39298275975877,841.7881526036699 96.91652760221919,844.2169059232501 99.76677125660655,844.5442498796644 104.86565938322642,850.3051092907824 105.31226412245543,854.9889258089836 108.65417220977014,864.0139099355333 108.07294477954996,866.2866118500953 110.10079878601246,868.4504010155492 109.6506128580679,871.2851199593031 111.0599194411744,878.0439737405475 115.66391863354924,881.1983432809826 116.7272896061408,883.8248994731201 123.45891414211722,888.1636514831581 126.96386139855525,892.0504745836454 130.40418711815553,893.3920713319756 132.81645374062094,897.0264077200048 135.60955672156857,899.6866029299049 136.7953286508893,905.023614594929 138.84975457980127,905.2960332365211 141.4143416105769,903.1301754573676 144.43977604887547,904.1926004128591 146.9292729752409,906.9211513564248 150.12121771622128,907.1055950678037 153.40624314336756,911.6960988649873 159.26230816296308,917.3489038621115 162.24731330193129,917.2706186443759 167.20424029190545,911.606195305189 171.32448904047078,912.0045995785869 174.20447940020318,910.9306611628883 176.03035254524806,912.9035432261196 182.4861690425008,916.3824846730986 185.47232629988093,919.2319595192075 186.05220975587332,921.4288761205853 194.63413106264827,924.0156650645572 198.34777704098514,933.119177492395 197.42679192274196,936.728240621896 199.34553102522543,940.7345755296134 200.65257744989012,941.1985219355544 200.58318705351664,944.5923783949958 204.26881001307524,944.1575189965193 208.76659774383725,946.6011850258383 211.86797140638774,941.614246584322 215.01618445312377,937.673167819603 220.9931385969531,934.5923451125764 225.81312074925768,935.1767941833428 232.02454881000992,939.1733813221763 238.7827872611798,945.4287609180908 243.58808447810378,946.0335835091929 252.10453116425387,943.5363412540744 257.5137964424669,941.0314383976933 269.4672432380996,930.9538963284327 278.8450188540297,925.6475037531178 283.6740980403962,921.7368428889445 292.79571284963595,912.7754939562043 297.9116781900331,909.9881173628056 304.1376056369058,907.50067283356 309.22433658869863,908.3926093569185 314.2950016595053,910.4158880748225 317.6491700193633,914.403992877528 322.6809327471114,922.3696278222051 323.7685609150586,928.0272858265017 317.9911950712184,943.5236491054862 312.5389882112385,954.7856369807164 304.8734879334808,960.3639209104887 301.4350385315667,965.7053489449954 293.4642278430597,972.3086884215517 293.1096607969023,974.5600314187708 290.59948125251213,977.0903310777144 288.03462236953226,978.274309089251 286.52034433544105,982.2204451821774 289.21312902417685,984.7262373674505 290.78645622867305,988.0938196822208 294.69702792575686,991.0023916743572 296.14978864788753,994.2801168920507 296.0477574993986,997.7294396805248 300.1338722671793,998.9360352547566 299.4660269029908,1011.230197315055 299.4509766250641,1017.3020660710363 304.17748459250816,1022.0954171003883 309.22955744853687,1019.7692368786189 313.48859464564094,1016.1332741994967 318.6233247742657,1010.2425957350576 321.4588495245779,1009.4218979278658 325.4047867905885,1009.4575003202174 334.40885774157437,1014.3381899017875 340.3298092692083,1016.0942483339707 345.4170062594315,1016.419339515156 350.5132144034991,1015.9007039372782 355.3342632273674,1014.5232368285432 360.13854906309365,1014.2784084471127 365.79301414924794,1014.8982483941822 368.32827783390564,1015.7699389083356 372.2551660720983,1020.600928773672 373.3630798670531,1024.0 376.61116422629374,1017.0938701952781 379.81734780439854,1013.2239476730917 383.29818084322943,1010.2321160491767 383.30730587967525,1008.523204771888 385.8143515929467,1005.0838130680295 386.76933402718373,998.4014519252678 389.95879960606413,994.8096697515132 393.6564683612446,994.1806979329493 395.76448242360584,995.5570586606334 401.32310236556873,1002.6172846562545 402.1418036742913,1004.8810556313608 401.21763611390253,1008.3630686163768 412.4726327841307,1011.2524711647569 416.5086510465688,1007.2581378021 424.5115382733188,1003.8589575632742 424.6087426357119,1001.8385898381895 427.8774513506862,1003.071428236244 429.84183975126825,1001.4758787815979 429.347385368704,996.827464789752 432.51985695273964,994.6352471304605 429.03510051540934,993.9955475722633 431.0060137407929,990.928434620474 434.2287468611489,987.8594264496588 435.20805535531787,985.1074602498892 440.1334988501993,980.7076984676235 448.59390303044177,971.5654945987343 454.44141355103187,964.6205777348505 458.61765246559975,956.5176224554485 462.8298180180663,947.2820757839005 468.9656569644669,939.785459272289 474.5482423691908,932.273406712616 478.5819004443663,929.8212468552933 486.1531052926271,922.347812972413 491.0492853525731,919.0594501905408 501.32829566430934,916.458834060555 508.1280188512879,916.6135394001861 512.0363318946246,918.9644321208045 516.0103739984074,918.7747872556365 519.7441220264851,916.8838585575871 529.5342024214625,910.6217174688926 534.450143266266,906.488002670608 539.0895100775983,901.7952296606891 542.8855547988688,897.0858283410954 547.0707948998598,888.1500552643455 548.6498311757832,881.4042910004897 548.8554584087486,873.2175182760639 548.1266728888334,868.3977566532615 550.2780619924426,861.3813537658727 553.5759501466091,853.8298124589332 557.6522875906885,849.1339893585525 561.4882597309495,843.0163679883362 564.9396163796507,839.9932867100198 569.8223540534765,837.0104627257363 573.047005372675,832.0209673494389 578.6412556454434,825.4958255941696 574.0263581931881,823.631709412793 574.5273312786233,821.0702964942857 579.7809983721128,817.3183550771788 582.8661040451991,813.2362470330172 582.5727513052177,811.2622086249879 593.2739717870028,813.0766600866828 596.5342662412488,816.5175876326774 598.3907803906451,814.8018346467092 602.273874501936,813.9622837725818 605.0992519282341,814.652592698769 611.1636746682045,811.7275665485768 613.2504234683039,808.7002472766385 616.7963410606059,806.9965146243052 620.9107251359189,802.2577243873443 623.2886766054804,796.9426378982203 623.4188887414979,791.866167904147 624.7275538383841,784.5485312518742 627.7326405607027,777.009088423499 629.626762751783,768.8645064244117 634.3407618729098,760.7945869110542 636.9532483640321,757.7637384296434 640.104222884294,755.5891189785486 642.4884930622715,750.8506122527181 643.7475936992688,745.5187737260026 643.2621471022773,742.1146111196199 641.1152986249112,737.8160769775857 639.8359950615728,732.1271718864028 640.0722193421506,722.8031919245893 641.5468531321675,720.2983662202544" /><circle cx="510.44513089597604" cy="221.59294691953198" fill="rgb(100%,100%,100%)" r="16" stroke="grey" stroke-width="8" /></svg>