<?xml version="1.0" encoding="utf-8" ?>
<svg baseProfile="full" height="1024" version="1.1" width="1024" xmlns="http://www.w3.org/2000/svg" xmlns:ev="http://www.w3.org/2001/xml-events" xmlns:xlink="http://www.w3.org/1999/xlink"><defs /><polygon fill="black" points="618.03201602892,989.768798631902 596.30746082556,918.7740582146067 587.464816954266,891.2978608623405 586.6573953333357,887.9869440352317 586.6547741159793,884.1150420481927 587.259440663489,880.8461658906893 588.7186444887085,876.1306773019771 598.8962229017712,862.0662198373684 600.7726555057377,858.5117760312262 606.0103737821324,840.9556753378286 607.556301474864,834.5945715468958 617.9402901014643,812.1430184878102 625.9181189783371,786.4134814838524 628.3026108077057,768.5110705850187 628.001916277124,756.7987677214351 630.4291152688554,726.6990094748373 631.7646169655076,715.8906892043618 632.7373979487835,711.4774875870082 634.9330545142975,705.2968455407483 639.0066232460149,697.1357713669757 645.1715993083158,687.0330323686705 662.6879163821586,665.2939015643819 674.3628677604602,648.6972790180192 676.9429274560288,641.4554421104023 682.3972300076044,628.999824458197 686.7024779842333,619.9411036083263 689.8705311522126,615.7336671298438 695.2797145718436,613.4037875174963 699.8334541310038,609.2881251837348 701.7204432769634,605.7771591777127 704.3231659303577,596.5301696344343 709.0281880478883,588.124075804117 716.8192243333814,578.6797684248518 723.4191753279342,575.5531923519427 736.4159620588825,563.679839795691 745.6445037894031,558.0467392083979 754.4741860684559,550.3866486438164 759.8245408553248,539.5886360269542 764.2890821791015,531.2601066778528 769.1445408792055,520.5332401587073 782.2773544664267,488.44544833269447 819.6470800898418,384.847079458684 824.4845916289785,381.952752930255 832.1379035133525,377.9136419708843 835.0838672079689,375.2007843020367 837.7973843549763,372.262423625888 840.1429342088352,367.6907245445059 842.241029376991,362.9635587800731 845.0588305286063,355.68226100028767 847.4841493927661,337.0301088188311 847.4821365730094,327.7166091192097 846.0844895460164,322.75690740639493 843.7782110676104,318.5813315093527 840.1123940047316,315.35014204440836 837.8136787487873,312.129202718712 837.8202513993546,307.508635725364 839.18251699901,301.07267793695587 840.1046726931953,291.3880108033426 839.6440498506967,284.0021302947845 838.7255609168592,278.4517363932 836.4341064454675,272.93300909548384 832.3111811168786,271.53719402786 822.1972403051786,270.56827082606685 819.2330861505006,268.5798769503041 810.0838851967046,258.86049334010727 789.9763257305583,239.50320292114236 782.1845936356257,231.50765946344472 774.7108773051872,222.06384120544556 771.1591152974586,216.44855026157404 770.8866104477935,214.71883298559567 771.2755565830736,206.9044547071477 768.0146379769029,205.50327703014852 764.4757383935263,200.27018302182887 758.2586335830149,194.9644873080182 753.4565738781639,190.64305179589837 746.8281049766522,184.07837661416283 739.6447274151078,177.24798514510667 729.3006393409717,169.37436669179465 727.2342333450392,168.56115477556727 721.8249656647135,169.48247717091 718.1822321788808,171.68753286276205 715.6933815690421,174.10481992334962 713.2852411665683,175.6163775655666 710.7616684723512,176.1049870069345 707.439028041165,175.7619434947933 703.9387378416254,174.83792272108872 698.9463992190933,172.14014493367142 697.1951042021964,169.99884278197453 694.5777864154078,163.46172784594808 692.0515310188966,160.39903889451182 688.2635978854687,157.09752599768865 686.4960224863544,156.36343315170745 683.2824561759746,155.78398190341943 678.8740952896292,154.523583330698 677.5252803298764,153.79182656195678 673.4066347974201,150.05648448120303 669.5233621674532,143.71859505987243 667.6969092331299,142.37101166222146 665.86319834314,142.2826017169582 662.0600904443322,142.86143741223816 658.9410916672853,145.2228219243293 654.5217068173553,146.22902453203687 650.3790356731013,144.96432549003873 646.1733494278544,144.2560004957694 639.3555804553965,142.4425832329864 630.7320158470878,139.09654879618938 624.383539732558,135.00083018642056 619.9108228997004,132.6821478650952 615.0191774409866,128.53506715750223 610.526919344096,124.14501370190555 602.181567001208,117.36859612556134 595.4455664284459,113.45059265469581 592.365998836946,112.07796504650969 590.1898614389746,111.85133038431798 587.507987874122,112.5976238127729 584.1457582552604,114.26340931062703 582.0523631854744,115.7189588886032 580.8089332119353,117.60382425221906 578.0765678389544,119.00675430484 574.045787623339,119.81060494940868 569.7839683725445,121.61141791542366 566.0508130438354,122.77115177169264 558.7695921531366,123.91816203843337 555.8072529980119,123.57915539037776 550.8308367716163,123.65854921209507 546.8418861617071,122.34801607798113 532.6134675418002,150.86676354725114 529.0291847509582,152.4230430305206 517.7351533110989,154.48584530562573 499.5511792876207,156.28084095468853 486.3805689300999,156.10886674277333 475.67953141812296,156.52847661863598 467.15721080279434,157.351268464815 460.43594736648095,157.70592841447296 452.74929963662805,157.20219636147033 448.1434376406527,155.0801548945525 446.8290337083496,130.44448917936973 442.55881497752824,111.10458233055078 440.7538643244299,99.66032828298967 437.39991764569606,90.9248817950122 432.13781948052053,85.40541295827506 420.3684239128605,79.44653936410873 415.1519013130338,77.35145072139369 408.78864697483345,66.6059838662519 403.2439207242727,60.185089818378515 395.43767107178735,51.63280740893788 391.9374259364609,45.1766427727938 392.3170397260598,39.0300920466085 391.3573994243048,33.98691506952605 389.56910224459756,32.030900679851584 384.02402469797994,27.591645391221277 374.4691268257625,21.22490470715536 367.61704030635065,16.444844338618623 360.19173610811777,13.28832253167866 350.8934811141625,15.593701838215338 343.08502493344,16.595480916209794 335.37920484761503,16.149619115187306 324.9008081145423,16.110064489672823 309.2082748492746,13.9613841020182 304.1542250646757,11.850604977480543 302.26260272928374,9.78357423364389 277.97309061732346,0.0 268.416437605124,1.3923646154851212 264.06089611225946,5.935520680693344 261.7531439144489,10.076252680967855 260.4212499256727,15.299125350791883 271.526320718734,24.532125892273143 275.1245463463514,30.3523112424557 280.6807615954422,34.579063041521295 287.3809311311636,36.842799363330414 290.1905942256084,42.273460170274575 292.65038955935665,50.05621820220506 292.74372358369453,57.48068122848895 292.06271962349933,65.70210156922849 289.39332208427726,72.37961097071047 283.9920294953829,79.87296684269074 277.04123519639353,88.94324697303705 273.26397116262837,101.10306750210611 268.2963023990385,112.11075193778788 263.88194465383253,115.41507042838543 257.08116988493623,113.5007657620431 252.99609373989506,112.56597786474913 254.34048982220224,110.31327841461984 251.50947767004004,105.36540117135996 247.85261046468807,107.97330100547356 244.65560236009702,106.5249043804871 247.4160538129609,105.0363910180456 241.14809655844712,99.18451798346757 244.79409958924754,96.25861855417327 244.11921235890503,94.20398887224644 241.08460743389563,91.25726545321027 238.2945234395481,91.62944833043832 239.91946432782257,95.62088983115041 235.27295194899202,97.53452550590146 233.25461742614763,96.88101416544168 233.7333884896133,91.55441315999599 238.3376394281268,91.0454806294722 237.81731559417517,88.9079738815758 238.9100023289779,85.53067363365972 237.12961351950227,84.3215370121136 235.20600096709586,87.82351367392744 232.73696019230684,86.77635599954147 232.13858377644183,90.00238324989118 230.01817175407095,88.66616917369208 230.17721615049,89.8841255258643 228.4088309137442,89.46478430591685 225.93733277708864,88.02955697977802 225.81979307472753,90.37869782646067 227.9826076668997,90.88533776983093 227.37230394188097,93.33265108311707 227.87083767081347,94.2617018086305 229.70131470909232,91.35554107664723 230.2107271480859,92.6110655129853 228.8257425454408,95.66529444243088 227.9463324398673,96.31256846206259 229.48967685006826,97.77034713033231 228.5457332634237,100.6125785158514 233.4124203862318,101.3427737163289 232.48669626469493,98.22482394181145 237.9517589657769,99.81852749432835 237.94077641478754,102.4538949244643 235.32439488375263,100.97030082670835 233.95377555942719,105.19125420617047 227.51168351197197,104.68698608847967 225.8730275946108,110.56377230341843 231.39501802987385,109.32630712108585 231.8046106872765,110.64446949081923 228.734680046107,111.90209568323439 227.74762010358714,115.52369130602608 225.04269819955383,115.21909798460706 221.23046051773136,116.38243214755448 219.9038155398486,120.86235902092812 217.95345642950758,121.66506192839711 217.8688748554629,122.97812330609372 215.53165279580963,120.7622910186343 214.7570043294476,120.82200320272341 214.7794292743915,123.40670029547846 211.24170355964705,122.5258870977467 210.9013372329032,123.31167153265426 215.77642397110273,124.13427879949859 215.6026932203131,126.57621221230795 217.43141298356278,127.04517229296391 217.88205033896912,124.05549914644564 221.37162385040162,124.36174113981531 219.81343515101346,125.2517777970454 220.1948762986401,128.57184207140278 224.36365270358246,128.6743186432418 223.35735517393064,130.73843838373034 224.34886793455428,131.01381739894123 223.63362794461318,133.12461807528211 224.72182286257348,133.4490590029526 223.42557780678297,136.30673941389966 223.8727917691763,136.5887892008809 225.30370610770734,132.96177932209469 227.13769921828418,134.60025785851633 225.03359303774417,138.7296367909679 224.13414530116566,138.50337929158934 222.41089348740323,141.7989733619362 227.68823674725908,143.3031337789257 228.07026134733692,142.55868609506786 230.91527848973274,143.0681086674723 231.46641395030758,140.0771715557937 236.89610569118835,142.06218512898397 236.36423744680494,146.61337744791217 238.03803447501426,146.9305494307797 238.94551809411098,145.20535942057586 243.2404432280346,147.16232968761324 242.97094950357277,149.60826378341744 233.4848319803629,151.68475100517992 231.65052255683753,155.0627340391876 230.44031747381598,160.64673299620472 228.51015677108475,163.12140088488502 224.45028633330148,167.66556126247076 217.27955757353448,183.68739223666648 222.30565341136656,193.00270758738156 221.56330029056963,197.21863561149826 215.03612835582865,201.0139218045623 208.48073211322964,203.82394540166092 201.0668789048209,197.75598056657918 198.14356930066958,188.01274475452408 188.65505478601114,183.0498784551662 184.00148251112887,187.4050377384075 177.91959093280659,197.04209846327433 169.6583870208426,195.58096647876766 167.81037522234232,173.70930158373255 165.68794033190747,166.51031968796576 154.59926611273218,158.8267910507651 146.36297952086534,160.09466013647898 132.2367056412706,160.65045073969588 129.59616150281332,170.06952909368738 122.18538944552492,174.0651880321151 110.41433571122087,174.98538491424756 100.56473581413236,172.37079857349477 92.8146826836279,181.05913686693566 88.95313068724982,186.97185152994052 87.86372056232597,194.4042893419521 83.20127760355095,198.76577829885196 79.96722711402535,196.30218468641294 80.61159731492894,192.4871322555524 78.2348284428564,191.13852381768015 78.09236608402978,186.94459110707544 78.42451138146431,181.6564749262103 72.32172888682013,180.36497458496797 71.5981480393329,185.6464422786546 70.51508090550595,185.5668564714831 70.05946936915997,180.0003494626052 66.13187511141857,179.4511666095118 66.69830973528786,177.58829490942674 64.51186246885219,175.66230774247094 64.42932261878912,176.6374837808229 61.970259449876785,177.05666277633918 61.15836078292333,182.8331985647501 54.5637793869492,181.7395029953318 54.20859279329923,184.87281932663154 52.73661710440399,184.3956491996271 45.552950843922105,183.80254862041943 40.761560871038235,182.33885014632517 39.20788686169869,192.52310603118406 35.17040385094959,192.17841475851935 36.19770063297852,195.38802837556761 39.64258546631059,196.32568420794678 38.64243441948951,200.50196711093167 38.5109729425524,202.41282455919247 43.235949223685154,203.43629279272352 43.186877038225546,207.3448935906173 47.1306235538373,208.46934268368204 44.01233351409432,211.69569900002955 46.18512634584208,218.20840412159703 51.34487825164353,224.9827179379804 54.99730466700382,230.59346555800903 65.58513730852727,241.49500189335356 68.61907073958987,245.01908598036493 70.19221490140026,251.24261404471804 70.26418163242225,257.4695286705104 67.35437333997652,263.1279253888026 66.21114269655266,267.5851172106072 67.15270025050165,270.83746368984 61.55040900688679,276.8366804048545 60.095372980081,286.63467449893915 62.52010454606158,292.86798125857445 59.17525541432412,309.7193656832235 54.5568268887514,318.3756582731768 58.15841767439481,323.81668287448997 53.519547168485175,330.52195453934974 49.24938580427491,335.263308457437 45.04411544709672,345.095408185372 49.87853209612976,355.21486597062164 52.24184765044621,356.0587157356473 54.28005647435637,362.6901242212805 47.08306108011257,368.8299689796247 38.449594443413304,369.71015399500686 33.039260693004124,378.58149924240206 32.12160092054932,384.06591383914076 32.391835836437394,390.71479730041756 34.08075388096738,400.28690804808025 31.7379909376216,401.4859430742612 33.99714732803587,410.25043209615467 21.73159170192913,420.5782645280642 2.8240602612700347,435.06671508292345 4.781295692845072,444.55502196719056 16.88849641502798,456.3239449066101 23.535942064121187,461.6110737411244 28.06196014373937,465.43147249538833 31.993940551197774,468.3652822724515 37.68657010708746,469.80234021070237 45.77742287599648,471.22026505451265 57.46335794658999,473.50949933280424 65.89324970523674,478.4874726143016 81.63173828812063,493.79828022411596 90.92076062307909,495.50782786824993 103.17301321207609,495.71695255428756 112.15414954106289,497.1305498453619 121.14364021861613,499.43975076771505 128.9502747534045,502.64742440002885 135.852101418667,505.26815339364884 147.219870621332,506.37584229531535 160.5453382319549,514.2931308131047 166.07854024942213,515.0589933167107 159.18769737669845,517.8432820829117 148.36608602826988,524.5904088980217 143.5082617457704,531.7270700918058 139.39777087242572,534.4582634176583 136.39376017844506,537.3689290421378 134.78822472178055,543.8416819994675 131.1694629181873,550.4107191978306 126.46663722725512,560.1048844078838 122.06549845094547,565.6640780805233 117.38778606459249,569.347788136302 108.80082039819465,571.1230862947907 102.6980694045331,572.1182337894311 98.62282767387356,583.6970210297111 94.38075300007459,597.9211166963865 92.04084491902817,608.2150769362904 84.96913573234418,626.5946450046657 81.21432998329139,632.1482632531956 79.43807748419876,637.9357977709208 77.95334514909918,638.19856846955 60.67567295919552,639.0056932930786 57.57116626730282,645.3637337928228 56.208900197276854,653.3347681053096 56.51683874637407,661.6188690339 54.24052581104453,668.6652152939778 45.59108074064701,677.4003857030928 37.540446807601015,687.6413300671389 31.658950460559996,697.7429676259305 29.59978849402671,707.6700364483019 28.35845243989152,715.7148272502997 25.771174432587014,729.4719720582083 25.22725850447355,741.0175894808527 24.00826919160408,747.4179679771215 20.265357608533904,759.6388320144283 18.397617463742176,766.7052283240935 15.912692101766932,773.7673752070766 9.604312656392784,785.986128491033 5.872576976777905,793.8046114333156 0.8870592736853745,812.8302890758653 0.0,825.8450200433705 2.9121537674866613,834.1250842418423 9.687071317539173,856.6339581419802 12.432253962030984,863.4670796081969 16.869812061557084,875.704729433878 17.843418167136324,883.3197112776566 18.697769781767665,884.605290728446 20.00238405742226,885.115398661944 28.972041628676298,885.8489986069833 31.40373570375319,887.6024266121854 33.680300630142405,906.088843121666 35.17951746013344,908.5729346912835 36.88277625511394,910.2228917749218 45.89474761454623,917.6238884308907 49.83145073375858,921.5010030477979 51.79917250482475,925.3976669373145 53.41074822129267,929.457475093845 54.10299036407486,937.6421702331219 53.63850537205791,947.252442102135 51.91323799933833,955.8135472884798 51.21839755914853,962.339206120739 49.02611044803087,971.2377500239008 44.93417786690777,979.2534155539963 42.48371947043223,986.4772147848171 41.115635502172395,991.7738854241675 42.26573446474594,994.3958739489041 44.85395630015794,995.4691268202846 51.40117851952057,995.796780579437 56.094949429012836,995.4642685815652 57.68299249549732,996.0016612295442 62.05824046975212,995.5219227561606 66.14766142757638,994.7439024971748 71.20908644744925,993.0363330881866 76.61699639136832,990.9171390386952 91.93088566955983,986.5399599085473 97.70979121624003,984.7648918395818 111.13333782868833,978.9958317597295 123.94802963469158,972.2588884850894 134.70749007670076,964.9479647163294 144.7789191867681,958.7248719380071 154.03810460206967,953.9400989774165 169.62422450446564,945.3561189055057 179.3150643393388,941.0508528727139 187.67523275927894,937.7911139542775 193.28515522066763,936.4370828109595 196.34375255296843,936.1435788485799 200.11662359952265,936.8379785093789 202.20683283040518,937.9042811269933 204.91854869194077,940.0656860121816 215.86940033844203,950.814462410821 218.66109316086354,953.301340942455 220.511715293233,954.2782663004007 227.90398982759015,957.1419606805295 232.02544379904265,959.0905445716966 234.6140956571359,959.5838468218421 236.01734631059142,958.8772897147534 239.33695111871663,956.2436303121624 242.33937529909747,954.7136078296671 244.11282025665253,954.2481261253497 258.5072241412218,951.4982278602621 263.0678653361443,950.875549601096 265.6372166444035,949.0546451166814 272.75178598209044,943.3255105516653 274.8009198442038,942.3315948673769 278.23784040447157,942.1858544539358 287.9901259311615,942.991857757631 291.88728699303556,943.490609167017 296.9138414513173,944.5391169604796 299.9422992745098,947.3514803019488 307.5805410329448,960.465339624014 313.8022585514463,970.2106703767389 316.5571204132329,974.2321579001134 319.2263265403929,977.0906553518682 323.50546978262525,979.2505991709845 332.10616865907025,981.4482182141174 341.33283666132763,981.9292446784522 342.3125280846773,980.2392038422671 352.8555087406257,979.1482868538975 353.383451574919,978.9573551708058 353.1555479306775,973.8407030243437 354.01561512693405,973.4082824662344 367.75086103189074,972.4213005065553 368.4060635812566,971.5894641350266 368.0731354758586,968.1657825063551 370.41857340538934,967.733897092132 370.31726826739066,965.192158269825 371.60133853717844,964.5281493483216 377.12985713045043,963.4665383343422 377.23765500635363,957.175962630349 378.5208044269625,950.3455478625721 379.27626020558336,949.2834909913375 379.05129464430854,947.6701039468384 380.76137361417454,946.9391721994709 388.9706171918839,944.7960991683149 390.54852741500196,945.2168818378843 393.5511116454099,947.8860187817808 394.92732260324755,948.5075624017929 402.2878152921519,948.7309492940071 410.99513366944717,951.3792347778005 415.33879065795134,953.1653784423362 423.64845539212115,956.1030800052662 423.6605824663851,954.3861501333914 429.06749811108966,953.8915215650095 429.07612849868406,949.9693477276303 437.4113773337226,949.5843268037777 437.7519280285643,953.3372493266073 441.59811922654507,953.0497248305182 442.4639308363626,957.8146763712333 440.615740630533,957.8081279632044 440.8579599280479,960.5322653043925 438.00315386247183,960.7984570371179 437.9765934164473,962.1052283600204 440.97982119562,962.1274147926995 441.20563283934297,963.5955878463203 444.06562442925883,963.8987573088873 449.2081317716208,963.8844679229711 455.4827881645499,963.5425500584292 456.4408179237005,964.2920513541721 457.62401370387767,980.0820542457469 457.7275383245236,984.1172197834666 458.2543444980374,985.0677867276285 462.20884078241147,985.8169568242104 462.01063431058583,983.1425033352301 464.7828006874446,982.5086311871911 464.65477049244396,979.4117353944397 465.3076111873789,978.2502415945252 469.2441862315239,978.3435162590441 478.31435153893614,977.8943140315139 480.9872769077598,978.0962197017933 481.6335410943703,979.0451549472033 481.8432864361152,982.5736544603633 482.4691817340779,982.6770258939114 488.57282672780195,981.1752111961933 489.10471643797683,981.8074107390212 489.3027908302287,988.4262818300363 489.9583883997409,990.765251534312 501.570418596516,990.9708936140121 509.2601771044716,991.9988511209505 518.2360590201534,994.7540351439231 522.8204624796475,996.554518282793 540.512790805994,1004.7189802742406 543.080965129957,1009.2066181793243 544.8964692616613,1015.5970719509622 545.7562740623225,1019.7448600985086 546.0573988757154,1023.6740815036316 547.1411595957637,1024.0 551.6302182071015,1023.7857268001659 552.8859802862562,1022.3980685926797 557.4753764281339,1021.9645790971579 557.6953098663596,1020.5714014898816 556.941496125408,1005.9706282044295 557.4695586373363,1005.1176220195852 572.0847685175232,1004.5475658111833 584.5840931459495,1002.0626125982934 585.9694356259325,998.7579661314359 590.4562046912151,992.8872112572636 592.3706550902376,992.6767024762211 594.2860758896726,993.2059322398026 600.4541012610789,992.5656273115677 608.9887416420228,991.038292181012 618.03201602892,989.768798631902" /><circle cx="495.00051616933524" cy="906.039356161169" fill="rgb(100%,100%,100%)" r="16" stroke="grey" stroke-width="8" /></svg>