<?xml version="1.0" encoding="utf-8" ?>
<svg baseProfile="full" height="1024" version="1.1" width="1024" xmlns="http://www.w3.org/2000/svg" xmlns:ev="http://www.w3.org/2001/xml-events" xmlns:xlink="http://www.w3.org/1999/xlink"><defs /><polygon fill="black" points="1024.0,255.09997589732706 1021.3370472398609,254.38005331953235 1011.3387958136494,253.82788293078875 1007.2688766695394,253.16069304594538 1005.336041075427,252.25149925406305 1002.106729580907,248.86413010593503 1001.0214495308423,246.7854667024393 998.3690754034192,237.3194547393751 995.7873738262185,233.67552428417446 991.0110178039547,230.87354819280222 983.0854233788491,230.78104673391698 981.2736530693257,229.99836855122402 978.3775017914912,227.58778074856303 976.2476923177122,224.34364196636164 972.1096130489245,219.40427446704376 971.5943451893095,216.87345166120286 971.5967979082252,211.88097821077355 968.566299353822,206.1066008600729 963.1460313680784,199.22044069766235 958.8268374155892,195.9015336918111 954.1753604100151,195.95278660156902 952.3718915815953,194.7118253356117 950.3009226295636,194.7125037591328 948.880470798687,196.52061428598302 946.5575901293638,196.38125596315507 941.8463845255507,192.7986293533342 939.5207083040582,191.69876699161972 937.7120551367439,191.88352261419254 936.0997617160796,193.62956970193932 932.8715661415532,198.6061410771615 930.4153335867901,204.82412805047488 927.0568934355762,208.44208385123414 924.7994219005569,212.7097258123003 922.8660459689946,214.26313616101731 919.8332065376998,217.9490095780368 918.1453108956689,221.12321364633362 916.2809548787224,221.44247376774854 909.3683458511621,221.2956758088552 906.0072721918463,222.64430154807332 902.7724643241244,227.3051528582193 899.8736466288025,233.19985283129313 896.7002669367956,236.10221507273883 891.0249734052851,236.94073571029958 882.099007390236,239.18437147884623 880.4806456845286,238.85889248285088 878.6130337485182,235.55250952760298 875.9653525524658,232.8921392848652 868.4636352957322,229.05349462069353 867.172334758999,227.6266915005262 866.659552383415,225.48787388971306 868.4071328839599,214.40460094749704 868.0753924254151,208.83061817505768 866.7864586690672,206.1721930039585 863.6869063234171,201.43623925298493 863.2322476985872,199.49271779067578 863.2348396668782,195.40556768870357 862.3922398170373,188.86210734893416 861.87985642101,187.18148376158842 859.09858288978,181.85359790197697 858.1874993651089,177.4459726643936 855.5407306068964,173.68199357582864 854.2447920503963,174.26746658354023 853.9931972363614,176.4733864121721 852.8252119113653,176.14837784656083 850.888562327231,173.15942391277338 849.4619638928867,166.16562846499187 849.2669813067567,162.2032449569075 850.2385383097668,156.4434465587276 852.1104632513535,149.70626300147808 852.9580336171729,143.99923500779857 851.9224346546546,142.05267994292922 849.401701868963,142.69698015211634 847.3340688614553,144.25840765759233 844.0316425604169,143.60575218147494 843.3837653125614,142.17192839657707 842.2865792316435,133.80930748906474 841.6393120423293,131.8732906737156 835.8134447145007,119.35370480088375 834.0056428864306,117.79283205371382 829.1548052700218,116.56610966162725 828.1819693878549,115.65795012521824 828.5010482793832,113.12700392747661 835.7551443345503,109.63128268573621 838.7904023285685,105.81450679424836 840.6717540362988,101.99544450617054 843.0552009332048,98.68751968206743 841.5110752486406,97.2303702797202 837.7333428203314,97.57352047017548 833.4193778171268,98.68782283123494 821.1960615169462,105.41559658049391 818.8633339059643,106.96470114983435 816.8870328984191,109.20199569061765 814.4743668897682,110.06414281248146 811.5358089295653,108.9373497697735 808.2709288671357,111.35671781125757 802.8407659842468,112.21583605247508 800.0769899569756,113.33179337903721 798.6181147614029,115.06139930448671 790.4285774351645,119.72320424997565 787.8469009512696,119.72060786182692 785.7768822206715,117.99700943265725 782.841936370525,113.42416821500865 779.8199460953649,111.3533957020503 777.1520909757115,111.17683623849132 773.5312341989941,111.78578369715979 770.5197412741663,110.83679337680837 767.1496093757701,108.25001435064655 766.4588491080694,106.43761524601177 766.2927670718257,102.03939842715783 765.2499201696875,98.84595955490545 761.458630435134,95.30935657511327 758.1821084193901,94.96756763941028 755.7686998977204,95.40390402703406 749.2098286248945,97.64894802745619 746.1114938616239,98.25967026172555 736.6178987966921,98.26243933146418 733.5049547017759,97.83533129571049 728.5917018394928,96.55046028971958 723.4063730353572,94.56401240153025 715.8144376410913,94.31853302035245 712.9690336381284,91.64895821418338 709.7745150156798,89.58511615571706 699.5806366319716,86.66661862450917 697.3392296550438,87.01390597145507 695.2689942596286,88.2294508016405 690.3432443793084,92.0316658192038 688.7909657346314,92.12399033211773 684.4707021016783,87.03675579670005 681.9708442497905,84.89006267480443 676.528570231551,77.04358638778001 672.1216630897865,73.34383961548633 668.7545672042785,71.27624007539896 667.6246527392623,69.99058676101151 664.2579675202794,61.88536007708444 663.8213708765359,55.157845011779955 656.3567546737867,44.373646502717634 655.2232360403311,42.24105755956509 654.7647827606303,37.305681567696865 652.8267393736853,35.1801033620892 649.4189409514578,29.786554380527377 646.41495629148,27.461435380127796 642.8721679345533,27.670303920208653 638.5298428272794,28.81364072843212 633.5855234473037,29.28580174444926 627.3199524425612,28.56740214982119 622.9058245699273,26.978078141321475 621.3024642991666,23.85406718805939 617.965453390552,22.32516051807852 615.4341356955625,18.79511862306174 608.811903687767,11.954911389311405 607.8155874851736,9.685352601597515 607.3437550308297,6.556846135869364 603.5405339754071,5.627491790998988 600.6634492997854,3.5717742321326114 595.1879015023954,3.0580226214582353 589.710125149545,0.0 586.5706903729409,0.014033694488944093 582.0939098861652,2.2205918856340077 573.5536704109065,5.4425640266400706 567.8745302460266,4.323143858599337 564.3958631565525,5.136955533020455 559.5891517332241,8.081027612179014 551.6487306884607,11.163353433445991 548.1633517740473,14.374302407469031 546.630097904792,18.91279107091384 545.0997432629897,20.511287484958757 543.0245663846069,21.384541967130076 540.083690777065,21.66205754561895 535.5528819974198,20.80208681900649 523.5289223521971,19.90135020879086 522.0524008780735,20.430297776621956 518.7178104473011,23.178168870517425 515.646714442859,23.25127436161597 512.1033029727035,22.46478858379578 510.6438218795367,23.12230313049065 508.83351814872105,25.466722802023128 506.703136034819,26.00502044133441 503.49516472545133,25.349495945346916 497.2162605963815,23.161136996431765 494.41401700470664,23.631405954646652 492.20451751433745,26.099994491199823 491.8058062531537,28.23687418494046 493.3442786834801,33.63341988163802 493.74046763020783,37.42794322351972 493.14519525873374,38.16798993781481 487.9301397976444,40.04340699605223 486.19513909812673,41.65227554937951 484.0588859967551,40.31331985418808 480.1256300848605,40.321693893730185 475.0561891911048,38.26978174974727 470.4424556383295,38.07787777720091 466.04732972190504,40.15566984349323 464.643075348195,41.55450997888636 463.96743284414123,45.42730748841109 462.5725480114424,47.4935191884 460.6386625689498,48.83074787720284 457.7674380909711,49.23695643877625 455.76048150969035,51.17027866720957 452.4910327263101,51.510041180358144 451.087231826937,52.446909677443045 447.7522419668091,56.5869208270301 443.35521451619076,59.45247084592984 437.2115206947113,66.93234084824871 435.8777332018416,68.9996052541868 434.55011388420144,73.3288746125836 434.67780527516527,76.66737782288578 435.7451331954934,80.53376121159829 433.7449528913084,81.66787563223193 429.668677907455,85.67590344079258 424.93776774847043,87.14524222450518 421.8680792814576,90.81721014754874 421.20692811403256,94.48124132373596 422.6742681496192,99.74856396699067 422.401774855741,101.68252885656739 420.5386493322368,104.08397732866354 416.864616447691,106.35468229413777 410.1300616157774,109.09330401763839 401.59027728203534,114.96372642767324 398.3937255451425,115.24192034845748 396.65654233451176,119.03874219829356 394.5262649989873,120.51093826817157 394.72569292176684,122.30751512029099 392.19551579595634,122.37143491919699 390.7953812341966,124.51049560103957 387.86044962910404,124.97700168070355 386.7205845137247,127.37778000661672 383.39062189719823,127.18391693362355 379.26424436015463,127.98245660516181 375.78989069119757,127.31639946263044 372.3921661658607,124.1845984768338 370.1942587235156,122.98642078966509 368.59743148701386,123.1895055975524 367.3273971260129,125.52164362439464 365.5324865774349,127.12120265970736 361.12851985806304,125.98564328603754 357.82941564098337,125.64540340652877 352.40216191862436,126.23077286742625 348.337928681498,125.01739611414155 346.0794467888757,122.6520080305994 344.56079284117,123.13877131897561 343.7700566337602,128.48276849882802 342.37297291888694,129.45951201290575 340.4264060894841,129.39885096449666 336.3534731133405,128.0604591524392 335.62765649650646,126.05538360482797 332.8303950854369,128.30199195604575 328.46178365397697,128.4826443522229 326.6954194427133,127.51262554750372 314.1764285464029,126.65432670268137 313.20317143842993,126.83284982836312 311.0806225145283,129.56561660487637 310.78067841750146,136.32343646120216 307.9270335661397,141.79108587571545 307.61831100124,147.02732704583264 306.76944694468165,148.66739371668302 305.3082370345104,148.78480577047458 287.3327244497464,144.4505412698395 281.26483712082717,142.25364213726448 278.1066970273961,143.649212899791 271.73487696131735,150.02451481636456 265.9722668118411,151.53610161448796 262.80872559053284,154.5737686487372 259.10813053015175,162.05847824209332 251.21139229031573,169.15770429069107 247.75148478746985,175.3566782593457 247.38632698060172,177.2409764537614 247.81489940193381,181.20166145080702 245.20189107004168,182.8351652682394 242.9586636379396,185.8069128660261 240.10582806934974,186.1670508045222 239.4981360300108,187.87778612827628 241.93074680727418,190.73894339140236 243.93045167410622,191.6519629729131 245.51260839236363,193.72232123073235 246.54018753006008,196.4010098371936 248.17975957478475,197.9849242974242 252.36550982755662,199.45166357111634 252.91605841859044,201.94837391536288 246.21563527560852,205.80887661142276 242.4601877519415,210.42174408215612 242.59545584193825,216.304839149411 242.33135164143155,221.75458345345345 241.21325481171579,222.57513475854051 238.27538480533525,222.00603628023816 237.4168452330643,222.57154043443938 235.34542019496146,231.25110516974507 231.98255299334522,241.01527632733053 230.33488791413424,244.7798845653454 227.97214020686607,246.0297137233219 225.4308796583339,246.01843576814485 224.87241663394366,250.93794691232108 222.66306158405806,253.71592740798485 219.16804192477252,254.403753908691 214.4261075577294,253.2991086299138 212.07692446470165,253.87451163265018 210.97567424842555,258.797613540646 208.91456715259807,262.38503588065726 206.01232367666458,264.57318678490844 203.39419032397367,267.36100517857676 201.21472022991549,271.12192775247036 200.06491357869024,276.3556163895673 197.08784722811248,277.2663503032445 189.8701771380908,276.87689215816226 180.46938997020425,281.90864184207396 177.4956890700566,282.5112629898593 171.4966607410314,281.4606916672959 167.85362602418047,279.3878719071916 166.75944709148075,279.56336538614744 167.24422757744279,285.7763622012601 166.15651790213056,288.08565637242566 162.63601496356148,290.93152086618375 156.6984796832187,292.31982035666624 153.4150399901266,295.59570805099185 149.29976203054127,297.1643365512265 142.50002122821545,295.3303494458489 141.2948461091412,295.32380363513784 134.62033493591073,297.31227538588786 129.89292297436546,297.911075549767 121.2159221321834,297.467438412539 119.21940771853401,298.12994990590073 116.36457330271669,303.9035601036587 114.06398024356403,306.1434943477312 111.33512243630187,307.7256116301087 109.93843425789048,309.66532283141436 111.0244651124794,313.79761094708584 106.78487300496121,316.47381463224343 105.9971721972328,317.5022940813698 108.3633001676467,318.1746997884812 121.21546557356695,317.59813162145554 123.52092227328944,318.6357450095663 124.00768594619085,321.73636723950744 121.33670017732908,328.4853654103689 121.94510776012503,334.0851394496663 120.96971402234308,339.8537385180446 119.76509785216278,343.3189267731714 117.15327037392807,346.6596214623608 111.33053261713978,348.7715096244627 108.36152642778904,350.71524308536397 107.32670166417233,353.2673736579041 103.01455407400884,356.8439036192932 97.92390149798881,362.0685914859694 96.16690822295419,365.03825882680695 96.78094409085918,366.9867565237147 100.10925268016773,369.97423643371076 99.80303297208522,378.2423233205081 98.65629762869176,380.9204112543613 92.70656854308106,381.69478976031024 88.58595512775001,383.0277439503109 84.5811916126023,385.5105491564128 78.21654010777979,390.6056468607224 73.0585817221828,391.63073069627825 72.14551753486855,392.3485402511824 67.50097665972044,393.1679403731966 60.39751275043597,401.85097412707137 60.796332879787236,407.1202585323449 59.78657974192083,417.38999297535406 57.56127898033968,421.1708260236581 53.81591373816544,422.5807601693172 48.823855824593885,421.9297530377297 40.967990885934974,419.6163335778839 34.55807728054944,417.0728033068631 30.514556493671805,415.0995656757723 7.787059186096378,403.30213784719615 2.1180646100866687,413.8910528001401 0.0,423.7925607086074 0.12052380085001635,426.2917926442835 3.635446268091702,435.7846909839808 5.038284430349967,442.351202665103 7.221950153393299,444.4211483743227 10.25231913340586,445.09383122484184 14.751678386416044,447.23099133493815 19.301141450625636,448.45624536001174 25.732777490155765,451.9941246892614 34.111719556708145,453.8313906115179 37.14086694138653,455.9005153083748 37.32574628568394,458.8190012273168 38.23347746316099,460.76649111654865 41.14746874596081,462.59483829425494 44.900867173153564,463.76620623409985 52.734843781168145,462.9224119285185 55.21279945590405,464.9980729701227 56.307006781896845,464.99900704273216 59.40689296209596,463.30419557719097 63.644736981550665,463.79618441420087 66.32296959643257,463.2582974991999 67.17008378600292,462.22749757391114 68.14649918556209,458.090514287097 70.07822506923883,454.5710767987556 71.7214272670492,454.14348242651783 74.03024947354794,455.6105062132076 76.814480649586,460.17797882896133 78.02601024071521,461.394755361571 83.0572912648722,463.9633288716302 85.91214635653944,464.21346379422016 89.61728554606783,460.9911226243257 93.30813993113281,453.3397608085739 94.9476630284993,450.66460691034297 96.58355318647561,449.6427872512978 102.95450968346601,446.8532920428984 108.47720283960346,441.512759066977 110.90189827846766,440.36423636678205 113.68743751768262,440.97556970547765 119.32746451701584,446.7088735034818 123.38953961090454,448.78729379450516 130.06530915845957,451.54288807554445 138.6108454022512,452.65412782262456 149.94886796657454,453.10032798046063 151.8291920635176,452.56343874586776 153.2832980178769,449.8914467584371 155.83715529311607,451.3003999092109 160.7494727873592,451.9182339338222 161.77888847629163,453.4351262162246 155.83388429376356,454.99940168086505 151.89439284464706,456.87608631931744 147.34605499298132,461.0021482903064 143.82714935516393,466.22716895052736 143.5993020154939,469.27265420392945 142.2757743675552,471.5733475145263 140.1023996313578,472.4707391520606 137.268462657008,475.13620609348226 135.9886263772004,478.7062355750637 133.1507333173115,479.6595165098071 132.49278664521444,481.29934033362895 134.42250117749617,485.29853774023945 134.90420611796162,488.80958604317703 136.18029571016754,492.7512850115438 135.87409716895743,496.19841767296754 136.71870964439313,498.8077554658498 135.87262251323597,500.7479928119931 132.97111510015495,502.7374720450241 129.71453114110633,506.061374054704 129.34500033406306,511.0799432639966 126.75688838500979,513.7430553426121 124.27500574197484,515.1911979938411 123.91821538449503,518.0983611669367 120.3506534593841,520.2022502464488 118.9611664665615,522.6921088457766 118.12284515173536,526.6817976934665 116.48984196950867,528.4920454026651 115.88197071091963,531.2180313260567 113.7144063939286,534.2380046935589 113.89231659210553,539.0296009963088 113.28770797132303,543.0827732647308 113.8871799762075,546.7136146689561 113.46558902236136,551.7970800544713 110.68431925519981,558.7563687966236 107.61248522049489,562.9783734543702 109.34178697781789,564.3706628591467 114.48781215130185,565.0308118856584 116.2195939437857,564.8173579351709 119.68652293290222,563.1440165878632 122.40358557219152,564.2926763816506 125.43381560852819,563.9703451339724 127.98232726278493,564.7415209597708 130.531070373044,563.6026511651587 131.9371334805711,561.8059566279683 132.96673837438757,558.4434106700239 134.1011730275123,556.9197243604372 139.84879655792216,555.6854003325241 144.83202909108508,550.3732185177699 148.13805382617687,549.5613755803886 152.2608173987841,550.2803562660758 152.79965565757945,545.9911413540844 154.00093652975573,540.6597099213641 156.1122035766412,534.3607931481448 157.29829239961896,532.3541519349387 163.92071075448538,524.3257307595121 167.97991717029686,520.2039757911432 173.29478635297468,518.0435410881722 182.34620320386526,513.0082108420478 184.08540163036562,512.4095185200466 191.61201137809567,512.5374898884912 195.67709552874004,513.038299062225 201.85795716093108,510.1140519044054 208.6847789571683,507.89933410471644 211.44943866994984,508.0691669131272 215.62782886771151,509.0522003977228 221.59376899032446,507.0469483142657 232.44212522598832,506.63612212192754 235.96349286824648,506.7550013977629 242.58466722936967,507.632979732305 245.94487270065258,506.16841582523045 249.30832327177384,506.067624592745 253.752867371778,508.56943009767457 258.31017903968785,518.6840150212375 258.149169947865,522.6510402049921 254.83586883044498,524.2816902129787 248.7106185984461,525.5770010509482 242.80318489147513,528.2806374268896 231.51304116320387,532.7742869900746 224.31036189325116,533.9005682171223 222.67651306953877,534.8242896239151 220.3471635565504,538.2964424632805 218.22979523652793,543.459241509809 214.9224682804703,552.9054435208637 212.20936424969622,558.7196568556913 208.7943646651512,563.3867865961531 207.7613692344278,565.4517599733599 207.2762978574213,568.6569983535142 208.36240516966222,574.5886833566515 208.35750978081097,576.7588639385941 209.22476616487944,578.4445176855049 212.42515261760488,579.8072725625148 216.76382879264042,584.5438027949722 220.23721848130745,586.6708495100605 223.26878347367477,586.838583787271 226.36392942200834,586.3550199185795 233.08143187816856,586.5898836706504 234.22134245347436,587.401112167079 235.4762292889381,593.0537668192457 235.90814832381798,603.5508893133001 235.68112679629368,605.2253262946915 234.11610079003253,608.265806525216 236.39551278275368,610.3354788124698 236.98629315365793,614.3579987690748 239.05030632059777,619.4733910411961 241.37932417315304,623.1167165032688 244.31693616636767,628.93887990136 245.6692416279525,630.8944434715406 241.05899749352054,630.9444548268269 245.07678531689064,634.8637526235988 246.3154716475438,638.290742031577 246.97131620245506,644.37847555601 246.48105711000264,646.3335595740529 239.42886420947286,649.4210937738435 241.377325735363,652.0925700006015 244.19780197065197,654.1583910670115 246.5332008587878,654.8653279125858 253.1028593563486,655.5804862845647 252.7692037218114,660.4715042506938 253.90789382663982,662.7563129894589 255.8083013049272,662.8165288257047 254.6704094994201,659.9341934793613 255.32158182695653,659.1664390947009 259.0664458262693,661.510951436609 261.82929445913965,661.2988396299545 265.5245247783978,659.5620426792358 265.5225953204682,657.0068315627368 267.2038451874778,654.727348924582 269.9184178606679,658.5943897315108 273.05593661705814,661.2051180140119 276.1530559842726,662.6198946105179 278.1640282151403,658.2756828848793 278.8661752050895,662.512909329256 279.62749819261853,662.6747834869192 291.63277058645576,662.0165783821578 292.59781192904796,664.3197206348124 303.2393098325537,663.2341411469015 303.7808754598744,664.8689330292958 294.33827431096535,666.2204130272531 294.9846804176646,668.2129137067781 289.07148521581047,671.4895449194506 291.99810908492674,674.8619827315405 294.385612504433,675.0782562429939 295.79987186354424,677.4709923257578 297.43354777900254,677.1479720963208 301.4452242178337,687.6428192447268 299.1176380412538,689.0518202566376 296.3439713239886,688.6702648264924 294.5536324873077,690.2439050889418 291.1322215328532,691.1617751710702 293.41712129789755,698.0736586166195 304.5955435417178,694.7111287719284 305.68271864011587,696.6610408747276 307.03889716416955,696.7760064461069 311.05854312067515,695.6351894494794 312.57699903741246,699.987484754968 313.451476996245,699.8178981680504 314.2095834437038,702.2634605068864 319.0945191759182,700.853756244052 319.69650742063624,703.4061781606671 321.53688816880054,702.9771166339609 319.7399345441248,696.5591167494689 333.3256208387625,690.4166536368339 335.5522181218314,689.0053420607588 335.0700168321258,684.4977399773456 330.9837758755576,679.1159664491879 329.41372727655954,672.2699479488298 337.34963330145877,664.8239282819262 342.1766456192957,659.4974763193062 343.6498356857283,658.3571576188979 350.02030539187234,654.6997050675698 353.6055663202616,654.2388545005866 356.3983525827129,654.6274913128917 363.3688742179763,656.7516407499811 369.10981370253,659.4599665648408 380.41035037920494,653.4314419748812 383.5774186005063,651.4406226266927 384.0391551068561,653.458569087043 385.56715810445445,651.6518957022779 386.36849149241857,653.4895280444846 389.75029014614677,648.9660527541391 390.79039256198166,648.4768475715895 391.600082930773,655.7584435360062 394.55609203995533,658.257712662612 398.8180848879065,655.1186908950147 398.9218882880457,660.2712583691907 399.50583641602987,661.7746683413759 401.9903182257033,661.1779776453321 406.16687673955647,659.2578956344231 406.6193116035956,661.7631677933985 408.2653280426536,662.8033669242917 411.64116534695387,659.0016646573761 441.25121699236763,657.5054386039777 441.7991994929597,654.5137265343199 441.65917113143945,650.174331175371 441.02295251934083,647.020391249549 438.16528339896905,643.6217997216114 435.7392906267057,639.6266749141943 433.0600026971783,630.2158202320102 429.30559803150413,625.1390834497079 427.2736267012603,620.9132256366418 426.70471609120494,618.6330126534649 426.3743831837186,611.4231925792013 425.6610324943127,607.6444993493003 424.4820149791549,604.2013424677874 424.6027665366185,601.5899329802298 427.13036129116745,594.1277067941976 430.0790478753682,591.0689975065595 432.659962379918,590.8001661535352 437.25172580079834,583.2752557959886 438.3157898966907,584.2746666238714 441.3906307267166,596.3692309292994 442.2183008604761,603.2183981771557 443.40448097252727,607.4607521882674 445.46545313851175,612.944417620711 447.9524664416383,614.356220668507 450.1372516537728,613.8779146079751 451.91259649247627,611.9839966288271 453.55783953240206,605.0836862905469 454.3906283857544,603.1348844775104 458.2300646336292,597.5746266929171 459.71096380928765,595.9865719471302 463.54306716949833,593.2634535384425 467.03756703051323,591.7838232927618 484.3294263305034,603.8249926067149 503.6290398886539,585.9169728453426 509.54102529493605,583.9001038714904 511.4870355598539,582.7092130879216 515.3318250155056,579.2780681145429 518.7649732919172,574.9665618736559 521.7821411549045,570.0019084338135 523.0790980804962,566.8703589523179 525.4982547233349,558.3127925596291 527.8114357506029,552.2276031535753 531.2963356802211,544.1338268488416 533.3689564657458,542.0030783271104 537.8033803306258,540.3424064754912 543.1833422853575,539.4437495527222 549.6908102464977,537.8295136953901 554.3568074309718,536.3452308863485 555.3045431025197,535.5163675039131 555.4206431132103,528.7881870908923 558.3281446974803,518.7512817574913 558.6156459309886,515.3878634206742 557.7858154146079,512.7987895460197 553.9468571031395,506.2487044751848 553.2985610529953,503.8316735800753 553.5888145162519,499.29158981959165 556.3131290936219,488.12950492225394 558.9183939696213,484.28572527625624 570.9884198624156,476.24005355884947 585.1928746458415,455.8363284427242 588.0358028960333,451.21593144966755 588.6709668048026,448.3868966829584 587.9704745238624,444.8692435995555 586.0567829164897,441.29577539672385 586.1733058835773,435.6966560086185 586.6383030341486,433.73321361523966 589.4753616366418,426.28638095045 591.5007399945507,423.9123689316536 594.2137657352632,422.4603711871244 599.4810703422659,414.8904462620732 610.6364396572231,427.2148530105983 621.3322699786679,438.43772442801804 625.2103159151496,440.22200186736575 629.0205834882014,440.09143048728106 634.8033687130115,438.7548374428504 637.8135770491165,438.91715999179405 641.5102454347137,441.73520691450403 646.1989225368344,447.03499209507197 650.0707542434669,450.37668672066627 652.5001552658617,453.2003682336996 655.6152797858933,453.5990173535365 659.8942106304746,452.4942287821252 666.6048738529971,449.2495547915004 677.3525211169994,453.90182663019095 682.7810338070043,454.17782061987793 688.1494652251022,455.43866549728074 693.755120853306,453.2323257520582 697.1048035136693,453.81071177340357 704.2669797450969,455.82260588814506 708.951892928552,458.8153336112322 710.6758957722272,461.6951398245741 712.4186402691596,467.9880342668429 713.1104528691216,472.08060425027554 714.1430417386453,474.21825840315455 716.2771302882918,474.72648309463136 723.321506170421,474.9541140380833 729.3312863572987,475.7565300934697 733.2600063739274,477.13308098711803 736.2253000170616,479.1738536547192 739.4607249652611,479.7495657434182 745.5136079242568,480.0355050032804 747.2832867275148,480.4305348525727 752.1544508430416,483.23516266937935 754.81179872437,486.5311057415521 757.1695334128707,488.2966765361306 759.4754287734248,488.4447297433782 763.6098663331053,487.9037011250128 767.6458297781616,487.8556880372061 769.3206428585555,487.31043497629923 772.8042272328017,484.9979861076206 777.621464720952,484.6046772957635 785.8893254378792,482.63118338871357 788.9814740536448,482.77844720051246 791.7832594978921,483.66824455065813 797.4774405213068,484.4559804051334 805.1478049772305,486.7709082464535 807.848757111255,486.57735203835125 809.4295365768546,485.4949658477591 812.309894935627,480.4329559948335 813.5510767958996,472.67669637586505 813.318480179361,469.0985497581248 811.3029912132736,455.07811333992345 812.0428291698662,447.34953832081607 814.4171233624853,442.55704641761315 818.5618630061422,436.84678036404574 820.5219959279738,435.18094844082844 825.997378588862,432.1775717322231 832.3850068936069,426.0122369582117 834.3511218396344,424.62866140028046 839.8730870885958,422.44325502637537 845.1250651082127,419.38784713845877 856.406683921437,415.30657901669906 860.7780896500525,415.83120744361383 864.7040016748109,414.9732767412065 866.2535099866732,413.87900267010605 872.0645945571684,408.1203810235172 875.6390261831851,403.39253297167744 881.1620585824402,394.74746981438864 882.5358860724363,394.4051178009837 887.6694609043316,395.62817644335473 893.4235006570195,395.92730478499607 897.1011165261501,395.64367521690554 901.6417363613566,394.1581553540109 914.3522318309737,386.4557935895161 916.0290472682241,384.6156703927154 918.0944374959195,380.86522989740126 919.7631863805473,379.4831398290013 932.586006942596,375.3704443667838 935.0579521581597,373.4707367975979 937.1847800817376,370.9895066482851 942.1370628310526,363.7994779661063 946.8440589313134,358.96205889729316 949.8931612691098,354.4073679592405 954.8366932070471,347.8437665158326 956.5582564057438,346.29374243677614 961.7320020919219,342.728764993564 964.0939612688092,340.2037375985896 965.3538429587106,336.39868307462524 966.5079871070017,330.4584399929581 966.339521148497,327.10154090597814 965.4228585331841,324.1605736775003 965.35895149262,321.38830452321554 966.391609623016,318.91358012883245 969.840877157777,314.13099158904845 976.9631487852204,308.26808899151143 982.4348438708137,306.4966444931361 984.7325613267637,305.234946413818 990.0149978528982,300.6412718590993 994.6658078287483,294.8819931888631 1001.5051226127435,287.5180184203633 1003.0025915341984,283.0167520944282 1005.0679410808423,279.7971561259605 1008.857778567762,278.8870501364607 1011.8505572002836,276.3577414226745 1013.5731258686783,272.9012845465448 1014.9557634670824,267.25067598579443 1016.3330512879824,264.19883776864907 1019.662609584791,259.94140019778604 1024.0,255.09997589732706" /><circle cx="415.99278627987377" cy="521.5724304527282" fill="rgb(100%,100%,100%)" r="16" stroke="grey" stroke-width="8" /></svg>