<?xml version="1.0" encoding="utf-8" ?>
<svg baseProfile="full" height="1024" version="1.1" width="1024" xmlns="http://www.w3.org/2000/svg" xmlns:ev="http://www.w3.org/2001/xml-events" xmlns:xlink="http://www.w3.org/1999/xlink"><defs /><polygon fill="black" points="1024.0,394.80023941182014 1016.7303802376277,390.30628306716255 1009.4199846656797,388.99226726289487 1004.5985472095592,389.72404426315904 1000.2357254653944,395.07263927180384 986.273099225071,404.97520069105497 977.4694422207465,405.73654359839816 965.892887082374,404.46379021068253 954.9315929398688,396.41104371672895 950.2224636693088,387.80413200958264 945.2385154895779,382.2279179699434 943.6399924660423,366.9154907181205 947.8924304623638,358.66971798726706 956.8157327098303,347.2672068486596 961.080608590998,346.3663134133741 969.7111162532804,349.7206274687096 976.1369500427481,356.010674228703 986.2921960956556,362.0810786930334 995.0437309031728,365.6208026802972 1002.3068513799708,367.9558927088435 1011.6052922552677,370.02635840369874 1015.6519534788475,368.77305321960137 1016.3644902544567,366.5133020827701 1014.237176586061,360.51239501212945 1004.2646425276494,353.3780175294254 1000.1079904039198,348.93391736942965 993.5798290629587,347.7554438016052 988.8198623807054,350.9222004870869 984.6352440421393,349.9128620814822 982.9465244646013,346.1819603706182 983.1680944340933,341.2966996834775 985.6052616103518,331.6902647685305 985.6057062472379,328.93057025764074 973.9507277329101,324.86824765439053 961.1271091613028,317.25923081905773 952.2773496968625,313.628386152983 944.2139312670647,313.7919531548715 934.5505667863152,315.71415099259843 931.6230097122398,320.02639037455083 919.5293492543117,322.67880734043695 905.1134062436604,326.46180786522564 889.28037994901,342.4065877108668 881.0899318638528,341.86143833219 876.3944467224004,339.49691754399566 860.249817464733,336.6106883776397 857.3422850851463,337.7972624100836 852.4720465748285,340.84389921505567 844.5689054570761,347.280622759288 840.3562416064467,351.25144835508274 835.0668289566022,353.1930098266781 828.9043363122049,353.01529130915515 821.6979573345989,350.57445030296594 815.9055251856965,344.7436523834115 811.8982845774686,341.4502905466203 808.5044700673333,340.23732795739454 791.5219734247524,336.6331908124614 779.496307492444,333.6435382608154 774.3160206227495,331.6700218075415 770.5116157223772,329.3081880740225 755.8565338672664,313.85483499273596 744.9281355664781,305.2307065235574 721.6867061342203,297.8337830339757 712.5425957894529,294.323533988309 709.2107573032199,294.73371929783707 697.2280213239013,299.77923801665565 689.7835949818289,302.2521810681951 682.828429622375,308.41294581535385 674.38679171803,311.88431088733864 662.5787532005546,315.6847378543258 659.2150289345482,318.44787141093695 658.8817101081445,327.9553337103547 657.0147212089895,336.7446636444421 651.6045064793151,346.53040166726066 640.7938789049634,372.43709223356325 636.1613168541618,379.4562322931131 630.0376538025672,382.0359071162479 620.3909536072937,381.7426561477822 604.5105490476341,379.3962162383177 597.5014748454302,374.96348226634507 596.2986999483238,365.71977116752214 595.8553599843221,356.210675480948 600.2727062825537,342.7912337150527 607.1681160879697,333.2619153893339 611.5543392142695,328.3640125807989 615.2812560425397,322.3741318404162 612.086651912609,313.2426074036788 607.3227962889977,309.59962398020195 602.000692212177,308.26367163252235 598.0453833332682,306.15806239766334 595.8105590259162,302.7756143835675 590.1789508089049,300.35316435526636 580.782408055161,301.94657097658535 569.8463816805515,306.01448984988076 563.5045330242037,310.5395269302246 557.6611346520177,317.1820916238761 554.331593434905,331.2795274330524 552.0658397004496,338.2916810086706 552.0556991907331,346.5038162967086 560.934411383396,357.34061148960893 562.1241657465412,363.3270637785006 556.8673063375527,366.629386195548 546.9382280809888,367.6067312165235 540.3200662624799,365.9952752189232 524.9168662362598,361.34757872085856 489.69634466250125,361.2170255845464 482.55660006806283,360.45682096464884 471.34501082068414,348.43492108003306 469.22606799190413,343.18160491233107 469.3142368009663,331.9011988524271 475.86859435194214,321.37841611375393 480.9594827071512,310.57599402866026 484.8743699198163,296.4118670425405 484.67992624368503,287.79614670797196 480.8529157564003,286.3210270645658 458.6481907172987,284.5896257439754 452.2620637493506,284.6491434781408 426.7566313532942,287.36085440263423 420.6078712920496,287.41849746020307 416.2994848898404,286.8835708167693 410.6733149754755,285.3649020888563 403.9160605621497,282.44213168860665 397.6771804915425,277.7481117916834 394.8840680232553,273.6563482667955 393.7244648363547,261.93480591691093 392.3969341404143,257.68155015386617 385.73105028761347,257.5011807223284 369.78434368786804,267.15608672134033 358.68744895388926,276.8205088115726 346.25669863808724,278.146391543052 336.75804401976905,277.01766342544136 332.90179167835396,276.2439192802598 328.46807318809067,272.4668328643023 325.7431777617523,263.10655104166653 324.0394155045467,242.31692589605257 325.27829319087186,236.90338664069805 331.3245943667333,233.11801541680381 344.20429902201255,230.21071889238408 349.59108775853616,224.78760276416835 351.87333519759085,218.3774974062727 352.73918815544727,214.47260016814266 350.34788008226434,208.69349588344699 344.1851786624472,203.1334070496822 335.13537318574913,191.16337415760688 328.51808051650954,188.1593004930677 327.0649935590608,183.95777972926066 327.0336384107359,176.71833991903884 319.7655291960327,170.76431561502375 316.32599019280667,169.1788447972316 307.2639134597934,167.4171152857466 301.1537080013905,167.34620042252845 293.2682414024131,163.52164086549215 289.9753857207681,158.88552970340595 289.1508413703255,155.20685763262657 288.6374263702321,148.6018480352243 287.65654297674183,142.667561840786 285.98116529714605,136.9281841111091 283.71472378118887,119.586068438952 283.6243497751447,114.102788302166 283.0690332306572,108.6260916305813 283.0399439882807,102.03887513539223 284.28294255373305,98.33976553292712 285.90268236624655,88.26788754661413 288.80305328354507,79.51331947345807 296.3491147936806,77.37847816073736 307.14671049725575,67.90279820033493 316.90576824578386,50.56200111224052 318.5060169663801,41.94517144894121 317.89860285051145,38.51535726842906 315.0450558436508,34.576005453090715 318.6576677852502,27.15408541089562 322.37111155591083,24.511701926287742 325.41476725069316,20.740535657251144 327.1058922339681,16.90295974178514 327.5267200305266,9.421803805673221 326.7476478756732,4.153594335383673 324.80332156277814,0.9243093362235868 315.26725656774016,0.0 308.37052009274095,1.8474053420919745 303.3615467406198,2.436122295869268 297.63329190316944,3.863294142502582 291.7941069180372,9.626427096820862 290.7520882936011,14.604028403512075 290.88135581136885,18.724226239554582 290.3681942569242,29.404485776769206 289.7841837756128,33.92189090387296 288.5011380682724,39.37384581029323 283.216920898389,41.266946435011846 277.6300459064998,38.191602435784034 274.50326364560823,34.717334687418656 272.57338814534995,30.30289712406841 270.90415922934534,24.615220137532106 268.75647686726245,19.526315197878148 265.9003676093732,15.586400691565018 263.45000064359635,13.471757353588373 259.6392265066762,11.568616518437693 253.48117745627144,11.423609448176535 249.79700020531567,12.685969959015893 245.62155710423207,16.248983827681855 243.6964192619015,19.13687282386627 243.7725928790918,25.542585484898837 242.601788201169,42.424560295850256 239.54498635152717,49.59134308087789 235.2309226549104,56.12136364444643 231.36163998038634,56.92482616191751 218.13920758330076,49.25354133487576 214.02247974017072,47.55188052645849 205.58715246535243,38.92822380772748 202.55272225895638,33.41946116512895 200.84285014469364,28.83587008728489 195.74845896154696,23.001047475578616 192.305481146308,22.63108608146854 189.4884496873297,24.661650279719993 177.0607828049005,30.021630082081288 171.99438571896795,30.742007555752252 166.29699080229832,30.036016339025423 159.72780513832475,26.663629985715488 153.92771624072253,22.68498589746389 143.51514512581016,19.9166390083019 127.76209510314732,17.326698791425997 120.19650245452031,19.67193380449703 110.05990090324012,32.995504197529954 108.70445397057183,36.53175328025577 98.60271629600891,53.5988918449998 98.23839295387353,59.307897485678495 96.67645781668304,61.44198964327279 95.85423996943672,64.8823940773184 91.26881951300021,65.6951971815381 88.16042567825629,62.43038529912894 83.31676118001697,54.82310423184174 79.7871804927208,50.63901462250908 72.6181216016428,44.797186718469106 67.88581498657204,42.86483543116208 54.26404214357485,39.156510005264295 48.85730885705864,36.2892645213318 43.96740067109971,30.97498186274038 40.17416085185734,28.16287754726318 28.872590368202065,22.910626933961908 21.85163039986117,20.48468769294675 14.318611120675818,20.342565677557445 6.284689202415698,21.764623508678937 1.8907233253167186,23.468815711731054 0.0,25.22289309145549 6.858919587668236,26.101213963527243 14.007450169309534,32.59234135238876 17.037708265052398,38.59221843819512 18.731181940026328,44.32601081453606 23.642718931285422,57.64419504005525 31.00080195478241,71.51144456685438 32.519565624089275,83.21030688283349 37.53343490271617,106.78926669690713 48.01786428892423,130.24204663565354 53.90960658283614,145.87132822683532 52.256300672766216,147.1633332639566 51.86083532503987,153.34873477872713 51.25965287216957,154.06299085226703 46.66383756277258,154.1709739705003 44.76928449047905,157.0548461419379 40.15955047950286,157.63566290939605 39.91143027586093,161.82468843392337 41.25344858581991,167.55588860689875 44.02295196118969,169.13262185172823 44.520055107512746,175.121439604864 45.35637829091442,177.97396907662562 53.317028608598264,179.84587256802945 55.81727242650942,186.00863904855112 58.608470556681716,186.40056667441922 62.620929488683984,185.7343773300579 66.01006106969892,188.68137731145066 70.96186910781188,187.01237773179116 72.26237092804607,187.4163089285297 76.21778061427266,193.33103923060276 81.16852160477455,197.00759624186264 80.26556305208868,198.9103186082525 75.56346869389617,199.47703987612817 74.23001294988119,203.02181261645399 75.47481692497496,204.3190332275983 78.92227042279623,204.1492271196339 79.27251504081558,206.04477988830502 74.32679344661443,206.70779550963982 72.92396157644775,208.67545296681976 71.27906244705007,209.10867671099072 62.46484107440896,207.98395171027005 57.281042885879515,207.76470759848894 45.26501498084214,209.00393623472974 41.71619613554321,209.70342016127745 39.75717912783842,213.65137696696593 34.50045067469515,215.12805587394735 35.31238799504406,216.4525166859827 40.25598747278218,216.43435375681543 39.854009863683004,221.03650225304614 37.46107580736259,221.44764631819783 37.46379940311131,223.49217508604852 38.85649558860989,230.31865318491816 37.1157849397209,236.7152025830477 38.76946393478176,243.19134412634185 37.30366222437532,245.49512638102192 38.018751457075105,251.4783874842492 39.75939900214398,254.2022824390374 39.4173633476482,263.7383042726568 38.110817823539584,266.3450748309915 38.70976485799671,271.6805626247524 39.518721960187875,272.32475305962384 44.867999405183085,271.9961515314227 45.21035774193152,276.1865361754076 48.075007911916245,280.18027391507485 50.96130486088942,282.30916569045314 52.431891626718674,284.3528682295781 52.85088658818656,289.5358711376948 56.8817527059629,309.4934684031948 68.40769225725954,337.47760388907204 85.08575646096426,370.6626143122148 97.5206692094713,371.6530458660518 99.98426901111068,373.72137894653656 104.94492853557372,384.31431168064375 105.92396903431384,390.47197287547124 105.53124257383158,413.6369740134528 108.09707807674098,439.00785091441185 111.35100074045339,453.08688673563995 109.59563520071131,461.83394074032196 111.4025551278848,460.2914565708155 113.24020964861037,461.1004985174317 116.67467132950244,460.8978709082795 117.56295706591371,463.4930358113269 120.21279296589064,465.99609851985304 121.7787309996784,470.1461694817748 127.33518291703108,468.4617176202967 129.15140215382908,466.82395501373003 131.0515030659878,467.7579999910104 133.34054493792343,472.35452672728144 132.91643965171735,476.62985470161954 136.14030356605724,477.89254325387 137.68185167216606,477.19339684059287 137.34105576998155,473.2340049146573 139.33698426838083,473.3673428894243 140.185033081433,475.5356848042648 141.96601751351145,476.939519857919 144.70936503179948,480.55475034974387 144.93876630220416,484.37567304622263 142.28514335187734,486.3273739040336 138.65863185978876,491.1066527028018 138.074929762646,493.3727692313416 139.34243071523417,496.10212110363994 138.83678446411284,501.0313530232307 140.59698911197518,503.1584601699674 145.31002364414098,504.8618436970763 146.67249841992776,508.6479015578208 145.16053693253366,511.1735605693614 146.12893315055865,513.7510407293892 148.00358062441796,514.5489934937825 151.50860565636364,517.5179468596209 151.7109677835019,520.5664625793222 153.40977541113602,528.0253261790067 150.44058227029643,534.8362687987617 156.7992242405535,540.8347753268833 160.00102117356124,545.0596418306084 160.42762432856384,548.233930645386 162.33477220155845,549.629318604331 165.83729169857665,548.8115879207937 168.41467032839057,549.5143272052458 171.98216942834821,545.0671159816218 176.00226490121923,544.2681807635068 177.31882130826557,542.4487045540743 179.70137374121862,545.5599746385803 182.17616744802913,546.2715856546376 183.56444265461423,545.1700675612828 184.71632563354154,540.4702331883072 183.13704990182873,535.5963161859918 183.97499442136925,533.8903126583403 185.8987452236919,534.5939932471213 187.52149914302146,540.13733241621 189.63635758914035,540.7390999739048 191.67967707219358,539.9268548140875 195.89028256333975,533.8751881123353 196.55867638349787,530.8318900646718 196.3564125608291,524.8959262853812 199.6351339188018,519.6805058365551 201.96121985779547,521.54112495924 203.64990562153264,525.829443214585 204.61392416952359,530.1844297825633 206.83038767401794,531.9583328389401 208.49963348868096,531.8710461866285 209.84262915036302,529.4675608119585 209.2149280369132,523.857477479228 212.35586608465027,521.9391370429521 214.91273462375065,526.6858319162939 216.69509075904622,528.061412910238 218.58366914231493,527.9207125723501 223.75069601725937,524.6325492113928 226.74471047217463,527.8365611170746 229.92211831389767,527.5219437510864 232.18518155663503,526.1748575610211 234.16037550101575,526.3507558143456 236.76879995011657,528.5015835387551 239.996801394361,527.9178669892867 239.9573717556271,525.2599357615563 238.7387529552717,522.635859342789 239.2424305572218,519.4525692751747 240.7846962513922,518.8404734687715 243.6905656259521,519.5918184094887 246.66448981290876,526.0404956294337 250.07606109698673,529.8846259749866 253.37376080034582,529.7482250940459 254.8285450915103,527.6938041873066 255.05448772613227,524.176432911559 261.2580223321697,517.1668270805178 262.5812272635536,516.596105045785 265.25962521925067,518.1481406990586 268.8629280862292,519.2095129271727 273.49222962255146,523.8716531652356 276.3199084515712,525.2846690613985 278.30191291096213,528.693970944088 281.2640471496078,531.9919904612769 288.0195897336401,536.5235805801041 293.7695097837713,538.2423655265038 296.0274522306446,541.1264482143642 296.57669813704797,547.3425085523481 298.0581006051619,551.3061548887338 298.4508808831715,554.554753578096 300.1469383734911,557.2398607705552 305.2092818447778,560.8677868311379 309.92164176650414,562.6442559512038 313.6145308379372,566.0342762461253 315.593195174653,570.3977197360462 317.81474211670616,573.8811330824351 319.4921769223484,574.6724631256054 325.378409049577,574.0559354210316 333.1626704000276,574.133411719062 339.371134304601,577.9881169668033 342.0270703340669,580.3620907589833 345.6277057546285,584.5803182473915 349.4928335839792,587.0361597277346 349.9585252241277,590.2946607225125 351.6916401608383,594.1418167308916 351.7437107672186,596.3863832404161 350.48112104370364,599.5960120043512 346.2053994958007,605.4646297584777 345.721603772468,607.9803935231748 349.32708095901756,612.2742474125168 353.4270092022063,618.5825155082639 357.9338194803329,619.95866904784 362.70618201660216,622.9211654905316 363.97866712414606,624.5041812292993 364.4640227088086,627.4251408458174 363.70907290839676,632.5342867218426 363.8815749239189,636.7151080167305 361.21213043914753,642.1639395048361 360.2388642193595,646.4675210130295 360.95345271473064,649.1046265604723 364.1638247088444,653.8524218944742 363.0779864031218,655.9455450848066 356.95870092979123,658.8073086889708 353.86897746766886,661.1261847473982 352.164833880522,663.9495082026402 352.18132042084846,668.5077344331088 350.68748001130086,670.4302156738361 347.7921912502445,671.004614854372 347.1896926879458,672.8130769977545 348.33349384315653,674.8657759568694 351.14213504761966,677.3592443893479 353.06590895897455,677.866981410773 357.22154184368026,677.4434569113773 359.9869356150754,678.5476170323273 361.9401867048935,681.2872812332971 365.6304108029049,682.9663257524126 366.1121706592899,684.264513796486 365.73256427555214,689.9967168319693 368.1882969992996,691.080131453919 372.5579851040739,689.743736252186 376.87497088588003,691.6829104484045 378.87602568246103,694.49141251266 379.55150828173265,701.4583761394811 380.8155206846344,706.8749414686839 381.82175629454355,708.6651120994122 385.6559335867293,711.9308216901077 386.21779958422786,722.239258314864 385.9622327814894,729.0924895317813 383.9231573152044,731.9662034556222 377.37305078442427,733.9055634649628 370.8184312678605,737.8769582146558 369.27821155593716,737.690378725101 365.0228662561723,733.8956033268572 362.23717917608076,733.8448832731119 356.6804108922467,738.8424090587163 356.85522027320536,741.4244927491707 360.9034509884866,742.9625010621506 363.035319260489,744.8878766530567 363.38463777863717,747.2561333946538 362.20463537768165,750.8062034143417 356.72321282976196,758.6256258978926 346.76378698721686,758.3564025903827 344.43447496476097,759.6786090696987 342.33970199616334,765.3225765681848 336.9835411578875,764.9484715530537 335.53017189726256,763.9051487509305 331.3248317199335,758.34154923735 326.72817008348267,757.8575113776069 325.0703038177745,759.3735878168806 323.7577422642956,764.6737158027736 321.6888742166558,765.6571408323446 313.6818341190064,776.5463662051898 311.1354283025464,782.0222843911449 306.97287943214167,793.9390607370308 308.3606202111155,797.6492915349422 313.5446070550336,800.0393054032289 315.2898563744602,801.7432286770666 320.35297799632013,810.7396597897211 317.56698467053263,815.341838386788 309.7213644663185,829.7036772573294 301.95727315804925,840.3530628740123 296.68739826246025,850.4009417586055 302.97207055197606,851.7484477245623 308.6272843325645,856.1920774246934 325.8043759914649,864.1791015324071 337.90965931880845,872.2168571390323 344.765449459339,878.6305392467585 350.13904617503897,885.4795080242145 355.34175786894133,888.0840107650326 362.11223054794993,888.2827211345091 376.81438520641035,890.0327634689266 398.8234284527593,887.5846703658597 410.4362459133024,883.6867010095725 420.59040546421943,874.1757613591005 431.9557173537022,867.6413981494278 441.2763947114845,863.0937387904014 458.003570177146,861.2499998005763 469.11757855042936,861.7943877216856 482.2757811656758,860.8164287042244 488.7781849482008,861.0051810952633 500.22605375435967,861.8958565368737 505.9478536004332,863.3113520188587 512.0472463774018,863.5003996546739 530.1266420730515,862.1837354795912 542.9238331137636,863.734650822035 554.8348429319489,866.636605979692 571.2241468258177,872.4612111794931 590.7431332100598,880.5383738325065 597.9354869645316,884.720751914828 623.0659295080554,902.8998745460956 637.3354249280633,914.6996681935583 649.9650422206588,927.0624439118884 671.4840316342785,950.9209642215126 676.8396193363773,955.3019457662396 690.667288579495,962.1082540380451 701.0559797719495,968.9081290727916 706.239675302842,971.6097363003393 711.2595291069321,972.1912252113115 722.7417072109824,974.2639150657873 735.2541940698337,975.7516514783923 744.5754589422581,974.1583415678582 754.9393158203453,975.8020471135934 766.7242088599392,978.1756409928953 782.390279511504,976.9151972235705 796.1230829500033,974.6755842826435 810.0623105632653,969.2875384137129 827.5417517745874,960.2398418320147 842.8479131011607,948.4093193316987 863.9095444914398,940.238975603103 872.8950553107211,937.9055975115223 884.1529811905613,935.4614554388256 890.6614514565475,935.4516021271878 901.1528000890729,936.8596341069034 916.7283613182485,940.1438133289862 943.7324585321309,951.2727180759355 953.0357070871979,956.1588771583567 951.3086000807907,948.9954694238968 949.276561098517,943.1242890343801 948.7047514181711,936.5043182651524 950.0565282636721,933.9791849083514 951.909802122363,933.9803982309664 951.3312947202795,931.9928103985734 952.9037464988294,931.7440420142591 954.0742123318705,929.7032120141134 956.3057932367559,929.6388356971098 956.7064750488693,927.4742973533591 953.5668948793339,926.2700827458993 954.2071066968211,919.6622313832693 956.6626321548326,919.2458899458384 956.949071398175,914.2749469117875 951.515093681934,913.6463770350879 951.6845407138591,910.7321406160345 955.3088782204593,910.835778068218 955.492432458576,903.881848887939 952.2090360862758,903.0038503235854 951.970859204862,896.7624916294053 954.1985094672266,894.8370669031989 956.3034204898188,895.1829155135248 956.9527868774214,893.7327480400759 955.8856239266914,887.485418912679 956.3030020447211,885.3133685507611 960.1130517176906,885.8791704601571 960.1999173889225,882.9627541280882 956.6066885180702,882.943470814761 956.882309388152,879.8849068445401 960.5296256679661,879.9811695781825 960.592589876346,874.8412902627371 961.4983588191276,870.6819728506248 955.8878488254231,870.1362378891727 956.0601632073217,868.6138311606862 959.0060540767984,866.6238477726877 959.6457797678762,865.1614948920196 959.8189517361153,856.2230364052657 960.6816277834007,848.6905554742224 960.405994772723,845.7446844036314 955.4104339945462,845.8155824844666 955.242075417555,844.3120126174088 955.8393575956204,833.4521831741513 948.8701464903246,833.355516161288 949.0926778804305,825.6868240862865 947.3606671587837,824.6190824008805 947.0085017858116,820.3271161561519 940.7396607254885,819.1075288509777 934.4833385342404,818.6635660848603 932.7362611520167,815.0503944809017 927.8661185957687,811.1516574732228 924.351886163548,810.7960576396954 924.4200376278536,805.4852714454237 925.0006146228294,803.1426042514266 922.190024948343,801.2866077706325 922.8238287732964,799.3032393810437 925.5976194114835,800.1800392250125 925.9872683195673,799.1843166035197 926.5133952596863,789.4280222577221 927.9767093783762,789.7849324936352 929.9234867124045,786.7269141538322 931.3120571035274,787.7856683238173 931.5669027278332,785.2713270200327 933.4826989842248,785.6242976317749 936.8671301726442,784.2625219784359 938.0978668686861,781.9291041825124 943.5429888978234,782.554392453938 945.5294578152649,780.9845506055262 949.9146000176272,779.7366081021607 950.8606691508354,776.0515766781625 953.4246464441405,776.99021024161 954.8422673783207,775.5762700508312 954.7751947759972,772.2422168597036 950.9738057134414,768.2765882321719 944.7012724662897,727.4391912039573 947.09399147825,705.5205049848707 946.6016104193076,681.8473460670559 947.0309252723595,666.3821952884391 949.0980060458048,661.8679343185886 953.8525060522156,654.7128240743684 957.1434628275239,650.469501076286 960.2520823565459,644.6307349324285 961.3024515665829,640.1094112597193 962.0584648800757,610.7749593336565 962.4854148702505,603.2428458663899 963.4160241052501,593.5131221394513 964.6684620130401,589.2078928467818 967.5277873487663,584.0385104485313 972.6276740633197,580.9961003361677 977.5462486085926,576.3184732467181 979.7149215103909,571.7988153396382 980.583580748387,564.7714504833259 980.7701503885714,557.7061902402247 982.3479334051866,532.0716907747367 982.5509468009527,523.6349689788645 983.2587759590785,514.0743013069875 983.8151907484502,501.6266761252292 983.7783776597878,484.53473714172065 985.4405196846348,474.565829336425 987.3890544669738,469.36434442128314 989.7778100928965,465.1049748551452 998.2249583272484,456.40466928749834 1003.3466037106751,452.45589462585974 1007.7242330441687,450.948883799225 1011.12034601363,451.26104786432677 1014.9746272350762,452.71455909507586 1018.0859296097839,447.3049675025121 1018.2874722863207,430.2512192960945 1018.8864093950905,424.7913865217264 1020.1931739952662,419.1314804851605 1024.0,394.80023941182014" /><circle cx="630.8965760373001" cy="730.5098164075247" fill="rgb(100%,100%,100%)" r="16" stroke="grey" stroke-width="8" /></svg>