<?xml version="1.0" encoding="utf-8" ?>
<svg baseProfile="full" height="1024" version="1.1" width="1024" xmlns="http://www.w3.org/2000/svg" xmlns:ev="http://www.w3.org/2001/xml-events" xmlns:xlink="http://www.w3.org/1999/xlink"><defs /><polygon fill="black" points="674.859668738986,77.7895904632345 671.1226825243439,79.85958783723231 666.1140113650805,80.53208582877949 663.6179728587205,79.95855815355401 661.2503465480569,80.51528086042401 657.9519150786826,83.25873894672065 656.4462878333464,86.18456519875224 653.1317532914109,89.34670028779351 650.2938004212649,91.12912876346729 651.9363155226575,95.68410992985389 654.6685841700738,95.83385549322418 656.6007807656995,100.1167350780562 658.2315006106614,105.57142742126518 659.0135667787094,111.67889755996703 657.3192679190594,113.49664007427702 653.1001238288086,116.06860915297591 650.5146607180767,116.43697996636729 648.3297663776801,112.95533497515612 647.6946849024055,103.69890647112595 648.5477352846606,95.38704595123875 649.3314173599058,91.63211006975234 646.1579716506575,91.48323132052951 642.8871948061941,93.63359622765256 640.6345562816834,93.32913865598334 639.3394703339987,90.88952836378837 633.0661755072965,90.05801223992933 629.1039569875331,93.40770877943874 627.8309046819091,96.56226414605976 621.7310992042262,101.68797314914639 618.7429944575885,103.65742874658486 616.445600239805,103.98679778607561 609.6274517641076,107.77063481154096 598.9832455624352,116.20826515718011 593.9021872453092,121.14618701353686 589.802600351177,122.36387313834871 586.468345917601,121.13424901852022 583.2355961736268,123.92506539897909 581.4340177372899,127.79626226706273 576.3916624491565,129.6891676526394 568.3440477000527,135.85790497357436 553.1693192320045,148.96063867786881 550.4569992019884,150.13540454238034 546.4633368846646,150.10349660964027 541.9791349780131,144.5042203461603 537.8842950608382,142.2474741892496 528.1309774534154,141.29124031341132 526.2461043563669,139.29126722507033 524.8431672328735,133.01072901895316 519.0900928553481,127.4198272981397 510.63902132473925,123.59447155019188 506.4443721155194,124.37187337384444 501.455034499129,127.2181398299673 495.0308122763009,127.61527708414178 492.1330186025248,127.26051313346386 487.3114963162596,123.84356995572068 474.42334812292836,107.60416758624604 464.6986309739365,105.79415628920003 462.1680264532764,103.1944226692807 461.8249493843673,99.48609840079723 462.6719781181624,97.50812737667559 473.04737676645857,89.96402292445441 475.02169964018833,88.79823172264923 474.95165964467435,85.58476452277682 470.83621121768044,80.6123784302057 468.2829289301205,78.87105418502233 460.05193153076283,75.85534986460539 455.414569318443,75.68005538239845 451.28871852005307,74.85070357340669 446.86437542682296,72.35384331419402 445.1778488406809,69.55286179959637 443.5691220376205,64.45543814223913 443.91563098007526,59.67201006228356 442.01333517609856,57.060218365476544 438.62174584160596,55.65320944131042 435.19049868865727,52.42173607843188 430.3868683961124,49.126626507173455 427.8389570706031,45.59017332751853 425.7486154304061,43.65515775404049 418.70106750899487,40.71385724207789 414.6558805183865,38.39209229070434 407.12046971816306,31.921619464372384 395.7052176729886,23.2778777001796 393.6600016931266,20.597159443773307 390.25646618774687,13.234261511920863 389.685341314106,8.606680045665485 387.4801418378466,5.930132316668278 382.69336757036854,5.275320115970658 378.6931372383667,1.7394104305110432 375.5180042200151,0.0 372.7375548658176,0.18060888797333519 368.37721618246735,2.1156510974529965 358.02815745536896,8.313982770168877 354.76224739464857,10.011898891217129 344.36228420827774,10.876291748092058 340.52873600606256,13.421981690710595 333.6667305072142,21.03530581187931 333.20951475069296,24.358580739773174 334.32182033723905,30.404740498397587 333.48300363486607,32.889462304174 331.08032852158243,43.45365274721905 331.4119063954136,49.383044315019674 327.1899533503305,53.73242381421721 324.43918062125306,52.115069087643064 321.9052866647521,51.57428419626535 318.4284015612625,53.00036023368921 304.9740670630587,54.67599563181773 301.88368798231755,54.66627922320231 300.2947954145955,58.23695122307595 295.5403981157135,64.8905747515995 294.0581857863894,65.29748048014574 273.3276302691587,61.3371760803974 262.8893623020499,64.02919166766412 255.8864307950905,69.30596104271615 256.8308219970188,76.12360846589297 258.83900463685717,85.85024732330112 261.5107003586478,91.29897737010322 271.60203036640905,97.58350648710825 280.66881094080253,105.98070883837192 281.67304204550413,114.02469569684445 279.4679980293759,121.72333979584266 269.31829404168013,137.95010446826643 262.69126046810715,145.02093028747663 253.17961955236768,149.32967496907747 250.35794452052934,150.25166969506836 240.76760885060995,150.01629757530554 233.81465133081986,151.67973181617106 230.58577269264657,153.9158865474651 228.50567696307093,159.5925093593736 228.7674492662061,162.68165968181017 231.7646222993405,171.01098881394182 235.8770937417621,181.3313693784928 237.76251369979522,189.09003689114297 237.9425245327644,199.47725496166947 238.86741382673873,216.0536560272236 238.61933505361014,223.56025210995188 235.55415139595308,230.59861295528663 232.7194325297504,239.51408705604422 230.8382762058846,249.12794772049438 230.50214203762516,270.4934723012185 233.13347500167538,275.4441770509171 238.0917035307604,280.01394008784973 243.87181107929823,286.23463440685646 250.0757945822846,291.9575964997381 251.13512221694168,302.1254341240501 244.99239483979775,311.78640955719595 238.39458716260313,321.2311139929034 230.71715893577024,330.7181911773513 221.37316603443375,345.2196169147053 216.87620770384703,350.07255320633567 207.86202939314165,358.28449999044017 204.27079067422284,364.86044384523484 204.76214683191245,380.01242633858453 206.47430022845464,391.755512723848 205.91913937563538,405.4266318933261 205.81003467703633,414.256994461639 206.69879194488098,418.19387975416976 206.91472974165745,433.1558578277434 211.2457632672584,435.15530178640324 216.70977509750946,434.98230443610146 227.14847702600906,436.60165807227975 235.3867350820508,440.5864860092338 239.28074291530106,442.79817312725754 242.09676911790564,448.7287322481749 241.119942797863,453.3383482048006 239.08680908186602,456.0199755332511 234.1305266065302,457.5268508943692 228.90606742279587,456.5180548865062 224.93202167155854,454.5733273305565 223.3728684121233,456.73370948300044 221.56070594842586,461.26579790795654 221.03971852231865,466.67583933180754 220.14937397681402,468.1886696311609 216.26471877939082,465.11466992577107 214.66862750691567,467.1326381872983 212.95094645904516,483.29625788960163 212.6049002242271,491.31888058066806 209.66448780385636,498.44662082128116 205.20357091015367,505.76680288122816 198.83783265492676,508.52856656726476 196.88045298403438,508.0721682770703 190.32929543190988,509.09338425650685 187.91012042596515,509.9266116078444 184.56992160650734,514.8781590115235 183.44280971766676,517.4718196044182 184.41725944571712,525.7191150826623 188.40806685225087,535.5130763003342 189.65305992062594,540.3001140184775 191.7579584880064,544.6626809832667 194.55889372543768,547.9345958346107 197.93385712235434,555.5664738085563 198.54256677430655,558.6028047823493 196.94840158377585,562.7146334062508 195.1635283276878,565.7225983593751 189.1868805285865,572.3867622062487 186.76551792425562,574.0924494525404 182.630630977017,573.3977013061487 177.85898700969852,571.3911636977161 176.13221243712758,570.0773813224342 173.3583395560253,565.9214266527215 168.82693576913962,563.4889855520203 160.99670093642897,562.7457087064149 155.49480952235152,567.0093880841932 152.59879524735828,571.3184128443183 151.25523931692854,574.3374364731251 145.4866071939481,581.4167672157666 141.10057078820162,584.8184446365658 138.21891634346358,588.0392819915638 136.84444766798637,593.2153173568156 134.38384720245483,598.1737061627385 131.28607288664276,602.2507023881974 128.63099790321297,604.3807992968497 124.27861493238942,605.3999188545724 119.3523093068804,600.3437557156058 116.12811339744503,598.121613731476 110.08243584676835,596.2961682913824 104.86883881067166,597.7398504156429 101.79310505946239,599.2091482473882 98.9306038353107,602.1926068937113 92.67197076544252,614.8928479932595 89.75227244502727,621.5628395417459 88.07513658473788,627.6893172203518 85.83727859539773,630.4061744990213 83.00862362020641,637.5067885898854 79.01173568618816,644.596632888036 75.28806481736258,646.703152475485 67.44021333700887,648.3124633020554 59.41785847548552,648.1893898428184 55.29244052999242,649.2125013160046 51.99068539647227,651.5466394834807 49.54936735954877,654.9755312422719 48.172174279919375,660.3787832320579 44.35405054880272,664.5493037901995 42.127871973425265,663.9697494744414 31.72719432795678,656.0165827746541 20.25272245903261,653.2547751801857 16.546134707423114,653.8585933128325 13.221346396778085,657.4964767163618 13.587548869444138,662.2758621223556 17.313095525742135,675.5460393256924 17.234280848792988,680.7546000921946 14.731879582446625,687.871892461791 10.323857694334912,692.1533606449485 2.843745496983548,697.9123373394518 1.4727641626282904,699.6600932962881 0.5878212291955341,705.1709150396441 0.7741414901520853,719.5622897045662 0.0,727.7955559078018 0.6028784368612935,731.9277132986965 2.0644241234788177,735.8503707793548 4.044312917802811,749.3142800023031 2.4003316891490045,757.532947051342 0.8436139238274822,760.5496364973009 2.4358733168250573,770.547927393245 4.53115910995284,775.1313966470988 7.537597075052649,777.9829105902895 11.216076903377338,779.5490291550755 14.22506195780078,781.9792152936483 19.40575777938288,784.641353517485 24.244223656808412,780.8108053726014 29.03984717771314,780.2196887262163 32.06433699532331,780.9211838885738 37.234835138350995,784.4672250697057 44.06114699781439,793.231127591864 50.76363680501782,794.8494556273987 55.54680396124235,794.4927652908353 62.47895832310582,795.0371613148185 68.76495708818868,796.2191208900514 72.8894431320003,796.2840481858069 79.58150811510279,798.7747814297295 84.72847205745603,802.7614720980496 89.39692646534347,809.7698642971602 90.84858317544617,814.344418015752 95.68932484089864,824.3957432711649 97.60233031225567,827.4710728161758 100.41063127886544,828.3803029836079 116.87296102582893,830.1480430473682 122.48236636437062,833.4879635936074 129.71606307418512,843.3555969776114 135.4181467090392,854.5059315823892 139.03109476180302,860.8451812587539 143.18538075129962,873.2597062951896 144.16460079885596,880.4384619274878 143.88002591003834,885.1995727845382 142.94078518643394,890.1792827341967 142.64156917500773,895.6002070665029 142.95049282091014,904.0595818580679 143.9596748583158,909.4994335903377 146.7253075778765,913.6539619707835 155.18331273317298,915.2884684817047 161.50802690347953,914.7244379984422 171.56699208474134,911.5910551033537 177.23205344619373,911.4397226609053 183.33246480345593,911.7326314291622 189.56960896135573,917.224705645584 197.14617580686078,931.1394154551913 203.2156040052941,938.1904041977917 208.56781829643336,945.1924716953679 216.81809683830588,948.3194300701127 230.42712157218836,943.2393720947437 236.13659676252885,940.2596522254581 240.58297789281664,934.6662211694187 244.10124083766976,932.5306828304126 248.69099549542818,932.3635025280286 253.04352700631233,933.2717909429383 260.1535074650886,938.9910457865146 267.9161926339847,944.2868426036756 272.5290654975846,942.1599546107798 278.050735679897,937.460425245952 287.8868794909703,934.3180235889413 292.03152052287595,934.157047488143 297.46743060341913,934.8675309789277 306.3410569028596,937.8098065900367 313.2924554397432,945.2799495154969 313.6874712548776,950.6726414425619 315.16558161578115,952.7973223376766 316.904625283524,952.9597529025075 322.40726334090357,950.411809993544 325.57700745137237,953.2976845212493 329.22025864285536,953.6804249697306 332.2608655695478,952.1165562187866 337.885297748562,946.6379147600371 339.39819478503983,943.0743812377164 341.0365120071312,941.9908842453654 342.220216637823,943.4725937121315 345.3439318319556,944.8954908551449 347.60957020592235,947.8702567862143 348.16691253761655,950.136481073775 351.9394196411262,949.7018087836834 353.9521132571226,950.239559190155 353.26227418149966,954.3238216451424 348.5265060985607,958.4155792994611 346.9331238571164,957.8694814185807 345.1229939717072,953.2569385524138 343.79768139457406,952.4272889843874 342.7063284331946,953.9326564456748 343.05944094784275,958.4194660996744 342.30038075980985,960.2789187195013 343.2787822335537,962.2075745272416 348.0299412774496,963.6402361552688 352.5280940361293,970.9427703826727 354.44468131639314,971.8117950028961 356.74776806622975,971.0348638132936 358.78373765725865,966.6344349002311 360.818678745941,965.7282764708442 364.3238967121589,967.7516215758081 376.1914481940998,972.9279757140846 380.48489056362155,975.810518598207 386.3144482553886,978.0753234501911 391.49444522050857,980.7654751306006 397.2540508153659,987.1444173166957 404.91296625542304,998.1054072733564 407.91482676245124,1000.5396259741885 412.6022127330682,1007.5499160829605 415.76950470882247,1013.0235174722608 419.60125924984084,1018.7210755411542 422.00720131399925,1017.8883667405554 427.04896287532233,1014.9185026703426 430.9624923620447,1014.9718652341824 438.1144670679308,1016.3725905947398 448.8792676893568,1024.0 448.87779350476364,1013.5618537577753 448.46152666418203,998.8227731172619 449.18978899563774,990.5795964026379 450.34806956720917,987.8542236376164 452.9579968549566,984.1086402008425 453.8327549429289,981.6986042338636 454.0004036349608,972.0661000876678 453.702825483256,965.9898928168058 452.7750701130267,961.2680093591863 451.22563243648915,956.7029032310962 448.20275049267184,940.9254849179864 447.61404474634844,935.1969981914767 447.79223318272597,932.2467550749773 449.8245163507651,927.1453543572762 451.610179212823,924.59424599039 460.4381742013484,914.8387798507994 462.136744209282,911.8358384814647 460.4184644354979,908.1528066466245 456.745260820133,906.7254816054842 447.33560702863593,904.89198970593 444.2612033642837,903.4517385574777 433.58506197200404,896.5753987544692 427.2524511678086,890.021413578381 423.8861883510238,885.5794278264253 422.28977449034096,881.9254822919372 422.06958849855096,877.8315723647192 423.3287847891006,875.4886637426542 426.7845831899119,873.1005931314346 438.1258962225267,866.8533505508308 441.5752346161924,864.1874449184095 443.7453228439995,861.2696754607497 444.65804237927114,857.0802650102412 444.07331284025685,854.8481650042389 441.53128094521685,850.5364412435167 435.25784511902503,843.4395814397344 434.8318458026397,840.2055617065548 435.71260606624196,829.4933676958071 437.50838096363054,815.9840662808716 438.18551544435206,807.4492455993018 439.53793263734406,805.1059288088634 442.74483710596866,801.6231925986539 446.31020685223785,798.9459355311869 448.6474977059618,794.6992165030478 448.77991309240883,782.6496389796246 449.34829644947314,764.8841111316675 450.3906964778377,753.1173675864964 450.0613879998004,750.8099129841394 447.4786997283894,748.1293121170135 442.75709289068766,746.0479536657647 436.6003190564595,742.2270886176818 429.1534600393574,738.2896220169887 425.00546603988084,734.9612113093408 423.3511556309414,731.7364187969469 423.78664585713705,728.869806856872 427.82745139749267,724.961264109538 434.32615084074996,717.7642539028539 436.329246761643,714.8242475793506 437.06754404719146,708.487760359991 437.9408025310761,705.3345662615247 439.52712872011773,702.8451770963925 440.37395554488126,698.8595194353823 439.84867365636245,692.1082201344491 437.843712916207,683.8988279726068 437.06180117047387,677.4822710165408 439.13606920131963,673.08290540805 450.6876464454911,660.6765636308264 454.1327249151444,655.006011524795 455.61749379742366,650.6081371392465 459.126110593474,634.275489258408 461.11545235617115,629.1805133363306 463.74719583223435,626.2490289294828 471.9067739446819,619.5138761616072 476.27779348303574,616.2685006341549 477.7151456706554,612.5413000749222 477.25114914463643,608.7619314259757 469.7245169613122,599.4979866961628 465.0434483571382,593.3253038072667 458.41923468203424,583.919278910558 454.74783020576973,581.5433420262216 459.13540691788523,579.5308233075652 464.60503895772825,578.3167420244672 472.4043083068561,577.3091718023109 479.3833301399326,575.784571929569 493.4782272393894,571.6127299313337 495.46367185411907,568.4904697413388 507.4875753747412,563.9302285582675 510.6684698182496,562.1466258730713 518.2035071189525,561.212538428486 526.9899955079142,561.3692587525265 533.0603905261848,562.7749624818991 537.0830327742076,564.3996914242284 542.2306939397423,565.6509724544549 555.5315036970479,566.915626438511 558.6639925668998,566.0353841844466 561.3692324595628,562.4239125297411 563.5685889215176,557.5607772642313 566.1842354324249,554.5162978659738 567.0584307863916,550.976874694122 566.7956326792423,544.5584844248804 565.0283191340787,517.4316642409085 564.9948856153909,505.6876313416012 566.2831943489325,501.26882578516086 567.9935038565446,499.35305467505543 602.3104497095694,475.5837767275053 606.6261893868333,471.5368752935643 610.3976035973508,469.00947642460187 614.3291352733945,468.25336685120953 617.9457289717553,469.00022394016116 625.4365383019607,471.9843656454383 629.4322935440666,474.37313942665685 632.3463663942557,475.23893956280983 634.9915935042065,473.71084434953445 639.7648657442028,465.63245632201074 642.9678176395465,462.4919482647874 647.4517447318683,460.62405987241266 653.8807980709071,460.4220045881028 656.2847592461037,460.9903300827564 659.3478788106407,463.11284084059196 666.5704887074083,477.7483388892498 669.5838444874366,480.29211147489195 674.5197537955808,480.94392848241034 678.7088530224938,480.9883393731948 680.7995500564607,481.59474386836393 684.9346542474328,485.772989365101 688.0943170832181,485.8509792633304 691.3251370535368,484.6148616361487 694.301133429833,480.9030974002052 697.0522659642418,479.2067152841548 707.7380673617542,478.6012899636868 707.4775757378964,475.2330455073161 703.7141970823889,464.55725442951064 704.6482810106659,460.2285458398808 707.5940505241629,451.8120706934236 708.614039502241,441.1970082358383 707.8286756844635,435.11735757261 708.087208731361,432.08689013886294 710.4887841964187,431.4654578319918 715.4471451531805,434.5637261745384 718.2605856901968,434.8136172285598 723.7529691980249,431.84048453716787 725.4425789665015,427.87365286983106 726.9749495423927,420.908099505789 729.1970405433934,419.2650342399719 733.7314629189701,417.86267140148436 737.9555119757857,419.1122947580326 740.5579511039524,417.68494897427206 742.8387359289793,410.82464448287556 746.1789706927814,407.9444297060187 749.0659662102463,404.6254714085685 752.6033804583375,399.09638129394295 753.9329523005124,393.01854807465827 764.3694811939997,377.3413850146883 771.8049416891354,370.6508962120148 776.5741079615868,365.5329567989206 778.769225880447,360.48962137896194 778.5513822663585,356.87971616490677 776.3008178385776,349.1627533092046 776.3262083876924,345.08655168502685 773.1155624972578,343.1385527539701 773.1955782710348,341.2427063597311 786.1856562972429,327.4932026466847 787.5450207858914,325.12383197480995 786.9059680029332,317.96306268172134 787.5483012698936,315.4592696857177 789.1620053800552,315.41860304160036 797.8467986751232,318.12719799443744 798.3897752430614,310.3740110614359 798.0876854277011,305.16110507649444 796.9506295222985,302.21172409293695 797.2337815304443,300.3106483005381 795.4758607415764,291.5835116980678 792.7204361889703,281.73671770166993 793.7703436794878,280.26700527186745 802.5128215770497,282.67509887305414 804.4745875408279,283.9860398220337 807.0565504043644,291.9960958976277 808.3484422935433,292.34200656403107 812.612269577085,290.646243151142 815.3910088339735,288.6823238642148 823.0135903556373,278.1812980361285 826.8903990816405,271.36861755835605 827.623429534657,267.5031107229171 826.3745860154877,256.2802276696236 824.8562216592403,247.070931491838 825.069878535133,245.479231352851 835.5230087602154,228.0872181950591 839.4477727543092,223.6086525294387 840.3584197400274,221.70336431990256 840.1502371275526,218.60918829246782 838.5035234630251,211.70834103496713 836.2590728182821,209.2710462964676 836.1773383370254,203.49640116374474 834.6353403795172,200.9698836016031 827.8179057903652,205.14411534182295 824.8069398859092,205.22165810835202 820.4144222223075,199.0664335153541 814.8394064572698,194.14876867734415 813.5303835978484,190.40950459211456 810.9290805696866,176.6254543711667 808.3214341979462,172.54248370209427 804.3840476637115,169.1676762224655 802.662668891745,156.90744895023022 803.1294440560644,155.23925181073082 811.4629570412543,152.45115277010245 812.6024367415484,149.25422907053712 811.8727017836392,143.26519941864728 810.5864424192489,140.73371837426578 807.0104190779771,136.21726046352376 805.8928436568183,132.62929965222565 806.1603302020019,130.50781643346943 809.6707497762673,122.56158732987399 813.4169454225554,120.18788390195823 825.9633053042409,113.23455129978788 828.8814800072594,111.99519079545132 829.7507498543844,108.57098909303 828.6694423781156,106.41325969860156 825.1012129798662,104.46283237192529 823.1892523315195,97.41434027134108 822.3259138054865,96.15058869318 817.503253787874,93.18014976758377 813.0830508217341,88.08634334686565 811.9304901697965,83.13282767413727 811.9145527498354,79.88689199748819 812.745189940449,74.95433073670893 816.2156252881688,65.27832352679025 825.8475282383553,58.97604900098145 826.8163559791974,55.48009178014297 826.0230277819369,52.34704667628557 824.116978587838,48.73236823021114 821.207136564596,47.9401887997285 817.2997564375721,49.16336231089463 815.1063712172308,57.079246062424886 812.603694448325,58.277301832519925 810.3676818731426,57.31396900237746 807.842182934387,54.62310025941531 804.0445433262508,49.26963695821462 803.5013735665372,44.2625427179762 807.3190812912684,42.837742061489166 809.3590026735916,40.162057406637246 811.1824188722109,34.98229483626244 810.7561269096364,30.910685931822172 809.8582263657762,29.617455303235488 807.6028891306848,29.185887368485737 805.3453423647154,27.00992301432575 800.980813727161,26.917413822602157 798.4733008006287,24.226846271686895 797.7195406566362,22.246078980526704 797.3458056554916,15.27716499394478 796.1337967919843,10.268239052950435 791.2660485024593,8.99497618693215 782.5942822444451,4.605205334155585 780.9013081767142,5.627473791614193 777.6930606059518,10.97332306708563 774.4848080131931,11.360601885466735 772.0545572913908,9.004536910294064 771.4974621494093,6.386980600050265 769.3402657621481,2.115772921555731 766.3023142536186,2.172703064306461 760.347794811251,6.433761642753893 754.5911157909107,2.446986720235145 750.4416143068768,2.3778736658828166 745.8292798260504,5.156287248857893 744.3715078778422,4.7742024724482235 738.8740409340253,0.933370356235514 737.0488961698535,4.110452037042592 741.2799662451309,9.472598285580716 737.950337063795,12.432503571389589 735.0529176382445,12.014160283383376 732.7973577424514,9.17357569484011 728.6157131152042,9.532199443818286 725.9851047297592,15.46373451311888 722.4993006853034,19.99780520270724 721.5339837594814,26.183366323107748 719.9329226802627,29.570328096539924 719.8413173962251,31.684241961483963 717.505410797443,35.87428441219731 713.6553748218515,37.74463848105074 708.0305070168733,42.17908769986332 708.4422487574228,48.60800349392741 708.2518643294518,52.57267199712396 708.7051811683267,57.2250969092845 708.307511953741,59.32753285951276 706.7004161703375,61.14240561703457 701.5274959546405,63.00473812307439 696.9350555720229,61.25908974652555 691.9982824387862,56.12317953216086 687.8197397433904,54.9493513115242 685.9533250952001,55.19826818697129 682.4989714835446,57.00729816148407 682.2384968195302,60.58527387427557 683.3377480462482,62.60012418637734 690.2376334988855,64.15782900214015 693.048823510466,65.86484803515134 693.9136332006867,67.28306968152788 693.453437354209,69.93801517973179 682.6600063188639,69.95492827803344 680.6162702361457,71.25998449673705 677.3046326563186,66.40018179388812 675.134630812486,67.40137121284044 672.1102742676597,66.00477474787101 672.271777981881,70.2372109557042 674.859668738986,77.7895904632345" /><polygon fill="black" points="825.6650411533109,129.58678955334221 823.7017129976745,128.10520643656162 820.6290907126426,124.34337002751681 817.694383501069,122.3355405645201 815.0424418797944,122.40376254326111 814.191104067387,125.89830615432038 817.3323870550356,131.6510818008535 818.2645004885801,140.86323445699622 819.686729694925,144.72923945557727 823.9731805626101,144.21063735645498 823.5082737373336,141.6268752303739 821.6328667484331,140.25565360026053 821.0073169585069,138.05387984144306 825.1737437677849,138.47771427454552 827.3027680048041,137.1764670842631 827.1367047248597,131.74584444285142 825.6650411533109,129.58678955334221" /><circle cx="459.1024809720164" cy="545.1499363690823" fill="rgb(100%,100%,100%)" r="16" stroke="grey" stroke-width="8" /></svg>