<?xml version="1.0" encoding="utf-8" ?>
<svg baseProfile="full" height="1024" version="1.1" width="1024" xmlns="http://www.w3.org/2000/svg" xmlns:ev="http://www.w3.org/2001/xml-events" xmlns:xlink="http://www.w3.org/1999/xlink"><defs /><polygon fill="black" points="274.87942153980134,456.34485912781275 277.41420926377555,458.55831565318704 279.174137377218,456.16181436901456 280.6333531732683,461.96894043169243 283.415466322758,461.90693778575974 280.62781978295783,468.2241036558154 278.86493387400884,470.49346915540764 274.08824513860213,478.66944975955073 273.45898172586226,485.149135559064 271.30351263047316,488.81446999859133 272.4512041058159,496.4333185322389 275.00148117007416,507.2309808728957 277.96629295996655,508.9062103175441 278.9502447025174,512.2950618054822 278.57351702943055,517.173084499021 275.8507082754769,517.1620680440051 272.92634033669015,521.0531726727614 269.7643592104654,523.562140032572 272.0744422452634,527.7166406478793 275.8228849631406,533.0575633605639 278.8540296464164,533.960139742383 282.75083251108435,536.6580804561315 281.92001853302736,540.1588603741491 285.035513129885,541.5503937400262 288.50964766141897,541.0555820996099 288.727287639038,544.3163769682046 293.9920417203416,542.2490685241958 297.434439889888,545.7995778064361 302.5603666489369,547.2094537737818 305.21865303877723,547.0783895687777 307.8362273596803,545.5667927160065 308.9842331753216,546.6481689053388 308.4852234582785,549.235320413938 311.27395486406255,548.9640881449468 312.40920905092605,549.9105699696001 313.53893195556026,553.3675466848501 316.2170292575657,557.3045470038777 316.6847597836683,553.3287139102858 317.9078592512705,553.6152806690659 318.59160410898033,550.9921377035148 320.60420027430973,553.7951733348109 320.7933862531851,557.1380985286042 326.18732382023137,556.2455093048752 324.85744980343105,551.6522032779476 323.8751329530551,551.5709595476726 325.7422017600542,548.8475953576133 324.8565781610775,545.248043605111 319.12760912508037,546.8696579185546 318.5386139308249,545.881129492918 323.8434842611802,542.3510079366548 328.2000200605714,541.6267653571535 330.46719705551624,544.7379939445418 329.8142504761602,546.9113012037756 330.38652980413883,553.5112925560761 331.9247006253974,553.6117622057739 330.6241930428391,556.3224258886962 334.2935462223312,556.1661028732551 337.3261611322564,554.3564428517307 336.16918635562024,557.0003095165092 338.19156955722246,555.2452466795075 341.07747991307065,554.6572584634628 342.0053794678806,561.9806516445892 341.8141341984762,567.136971094979 343.03844363777034,567.0377252764481 342.88420999217,563.3879081409904 347.3915268039286,562.0336588113744 347.3805034192212,558.3110259182017 350.09205534348075,555.9935878081913 352.2980082599249,557.7423996116269 350.9875175285329,552.3140006961111 355.39608866495433,549.7830543521765 355.2073789750796,545.9908961614655 359.4163515721285,543.2874517344524 359.76316177901793,541.7788757967489 358.64713129726186,538.464958520436 362.34716517336466,537.0252213220228 367.3404319649012,533.8783326528614 367.70719013385303,534.6074044456876 370.8958303558155,533.3162623465009 371.06185910309677,536.0972180239709 373.1853824737447,534.2340159393851 375.7608962965455,535.0497994941207 379.8066862764063,534.7088923234282 380.5080730801604,536.4658745771305 383.20523349385246,536.7579873199365 389.10762981793505,536.4141075312232 387.4886205342867,538.1844767307562 386.78083759556984,540.6316398303658 385.5701145442106,540.0352292161151 383.5053453254233,541.2611920902616 382.1342381308672,545.4011156456277 385.6292461956914,545.321138173729 386.6411987869039,546.6953153563895 391.17193631793447,549.0940081300585 392.6558889766234,547.1835921195132 396.5948276000155,548.0631947304867 396.4136743571203,549.1824542385004 401.35621459995235,548.2996586432239 403.9043768721417,546.988799455034 410.40312466620156,546.5668360881748 413.4330981308947,544.682190374444 413.60600868403105,541.8695585944298 412.5490823755701,538.1311910852448 414.2972663779765,538.2995714535672 415.4661354132122,535.8078239180556 415.3868016958114,533.2176690003915 413.9608851146262,534.9441144724831 415.9244575118255,529.7704758948478 414.89013375563496,526.0236484663112 418.5205804894001,523.3637122468621 419.5642107861303,521.6619529602003 419.127922300977,519.2728527246354 421.0152332285618,514.832366784481 423.0398083155841,513.6545139839222 422.75416347694227,508.9104487249641 426.48529977131386,508.79226289338294 427.06982386426125,507.7351618376458 429.05150989187285,508.71689865851243 432.6076992369829,508.21700436403745 431.81518618422115,510.06410902608525 433.2930505548637,511.5067121143949 437.8852199928736,510.31676823656005 438.8603983173102,508.8351044359855 443.36535548752806,508.7303458316377 445.13502206648326,511.23149081316984 446.2066966781444,510.749358307119 447.4270318488968,507.3516995754893 454.1188152830041,502.4290390775831 458.55206525243295,501.97964619733204 458.7555991967382,500.5158726480763 460.7422280492859,500.7974196704983 460.7230095037618,503.109638783544 462.0843139963542,503.1096123743797 463.1552722781353,499.5383873245278 467.8790936881509,499.1236757817248 474.5744401233156,496.12616880475457 474.61623091816375,499.71113768468695 476.15534753461884,499.3788345874461 475.9793052663587,496.735246779571 478.7678712392172,496.4272498211264 485.36446063612533,494.5725823301133 487.298400285735,493.515271224525 487.2710024530395,495.39437651947713 492.268749051088,495.2766200773432 493.048538070233,497.271867253262 495.2845038524674,495.90320415060063 498.3163407933744,495.48575986176144 501.3281601632037,497.25332321205565 504.9207763391822,496.9994161986035 506.94891490990113,495.522195367743 508.83833068729814,492.58918068275676 511.6777365477849,491.4067527921409 515.2677709867559,491.0492998271445 518.6057886489208,491.8049633775164 519.9884367870876,490.51185363600126 516.5786070771302,488.925029743724 518.4422248763382,485.807628194282 520.2172176600614,484.9941991112819 520.9837759991776,482.5130785742195 523.1154473399963,482.39085154325323 523.8823327856093,483.89727715427586 524.3753673788414,481.2139185494039 525.8248620868396,480.1358308317903 528.3531276940798,480.6700176386764 532.1386837161884,479.85031330999027 532.6262177526413,478.24047774921263 538.4164511775612,477.6451581323625 539.8130434819203,476.5383807506591 541.4093598141052,471.66185002723176 543.8299130978779,473.3453472090152 543.4743639469709,471.8212211280631 549.5294299366166,469.3088303829093 547.5194445383289,471.51574601985 549.3562099476966,473.70214407920065 550.9336335158805,473.7597873449107 549.7976341471731,470.2426601275347 550.3349057340931,469.42670325057827 552.6663564120803,471.6012173910838 552.0823669178867,469.1761189467162 553.8893297023512,467.53656857009577 557.5394311010766,466.7194831051757 558.008448451204,468.6245207379247 562.7213826110111,466.98070184103756 563.9886005512839,470.39123530862304 566.3275875308458,469.011087456305 566.2919078490094,473.07911117017954 570.6048163161057,474.09053405814245 576.0218233112063,472.54069907435917 575.7379146988503,469.2735206128001 579.3480688570422,468.4887056877253 589.8137004700131,467.68319829158764 590.344207961797,472.11328135269383 588.7347110907157,474.23154169337346 594.459918981922,528.8730165426931 595.2612823381758,565.8380091171468 592.2023518358575,580.9640800854785 585.9788336007025,584.2849495015059 563.1181124093189,595.2151932515478 561.5139510756799,597.2196094233109 560.7036109412327,599.986210106401 562.3135948863143,608.6265154840826 560.4062622564871,626.7634424106442 550.0480976009434,629.0903604372463 520.5898083891506,628.9561603658872 499.56943905859936,622.072244824288 482.7740104385303,619.6008386130297 479.9625170966398,620.7600509088174 473.074596176988,626.7574404358325 462.0108296836232,639.9442311601936 460.798268113404,647.2814243216391 463.7180040306014,657.3726544024707 460.2993444898989,676.3656564872765 462.1547322209883,685.9609278600782 460.9501934882913,692.3358192157646 450.1953122820765,701.807051166842 445.36484428031395,704.9802547763745 444.55875414641645,708.0441259792129 451.1032639630408,712.3983855726524 452.5577202773777,716.8230459191525 453.3650793398886,721.7457507903617 449.38895203345027,731.5441002183886 448.68933328479943,737.0225654647395 449.3860236765878,740.3417774361556 461.35096040155594,756.5359126745684 467.8403053295627,757.5833582559872 480.3645900993616,753.8342399996484 486.3447428451441,754.7238978895946 514.8085903890617,767.4103376787517 519.7259795657366,773.1283156764155 524.5113750651776,792.9087614467188 525.9093111149341,806.9749180962384 535.9696459736784,807.7584063749244 591.396914748957,806.6593290595483 617.7895109602705,810.2584524793116 626.3850809774939,754.0342601312029 635.2678969355451,728.9936731689108 646.8826810818229,706.4459901472575 688.6569111674621,645.6145977897756 728.9064147019749,599.0080640954741 744.2080869181931,585.754515898599 756.0118429029915,577.917289617119 770.3759290963096,571.3742458431866 781.6366892769549,571.1290787637716 792.708840627351,578.0170582017315 796.8370823723147,597.536174249326 800.6500398406581,606.2323539958513 805.7214647805498,607.2444060888749 813.7314040280763,606.0203196316331 818.2947822748168,608.5121404175885 820.4728003424747,610.5777520088569 821.1923185904195,612.8396738318515 821.6215015902915,619.1726257875594 822.4828558495484,621.7529854736622 824.3855233225274,623.4955794223935 827.0402067626558,623.6045953175741 829.2619951098089,622.0844933645228 830.3830611100431,619.4633308930904 829.4542913365276,572.3438079930825 830.1388472832991,568.0936275342406 832.458924290515,565.6106465575887 835.8862614409454,564.880527618282 851.120985525402,563.878279128091 853.489494321291,562.84503646084 855.2788762933851,560.2063887789825 855.5690739706267,556.2982285585499 854.452853347951,554.2077010483675 851.8994670064214,552.8043387187407 830.8340628951786,553.7794692576911 828.980536320008,537.4093732785936 836.3824769568595,517.5471314714732 844.1832537786181,514.0084095167863 867.5839024062865,507.4237815046622 881.6458306329822,501.98719005902313 893.4662165483977,496.816499835017 901.2726424869705,490.82725828532386 905.8409349180675,484.09521815211815 908.6528497705552,475.66734625420384 909.9197880501998,466.58399236397395 908.6035632192952,459.66181045148926 904.6821495038173,454.42020066400784 891.4404931774158,441.29619160759245 889.0782469424138,430.99943991998276 888.6072085487644,420.8004923158271 891.8585321460295,399.6052607674223 902.8000602223439,368.6991742811641 911.2982078326961,345.74330464774073 918.8701572412618,331.1616213775706 923.2589272208482,325.25045470284175 943.7875388874847,312.16867574135534 947.0998937771267,308.4822398629586 950.156226178353,302.1402436062051 952.9466793968542,292.77710977949164 962.1800728763534,239.41322727494958 964.6274425522525,224.21129857059088 966.5264985912361,210.11546184199904 967.4303863813707,208.4649429656257 973.4351846598288,205.86108392309472 976.9535246075612,202.63551635633996 983.2318468714083,192.5896827045326 998.9897137185619,136.10220197894319 1018.9861878109101,85.07869225228512 1023.0301390085052,70.62319065336396 1024.0,59.35070649283955 1022.4314857643847,48.16288890950523 1016.1565076332028,32.96667477745552 1011.1239430914551,34.37532777556635 1002.1945847943771,35.04987878959378 998.8152180183301,34.46693902392815 987.832332577534,27.688044715581213 983.9266434833231,24.673302330818956 979.4683085781456,23.75310331831224 971.1086798875097,15.357823902972541 970.0544756441635,11.345781870928363 968.7359981954572,9.34902019307674 967.0357764020177,8.802013962358842 956.8962823534689,9.95389233826063 952.7577419650078,9.43205701362433 945.2057089855642,0.0 942.4080058974357,0.0009170712369268585 938.7472517021156,1.1302307893063244 937.5816375068842,3.3384053918425707 937.6424705619297,13.385629525145418 933.1775209038934,25.708349868780488 930.2015341154382,29.77979077355633 919.7596042248559,33.97727934882596 916.203772590383,33.70348337104406 913.9913308178096,27.047572431843832 912.0242648732066,18.36309151344699 911.0922844935022,16.154883316311157 905.7736018342526,13.366553365900131 902.2663286332142,13.31388891877873 893.3674906070074,20.654190308547072 889.2161462367122,25.45158739411204 887.0887020763877,29.036588909507486 880.1226650863466,28.883311462744473 875.1097113954161,31.06448979726349 879.0636160839726,42.63583679169085 877.2927280781719,44.16345027262457 867.9235267575135,41.81587120467191 866.386305420621,38.861769217348524 862.6937889347869,34.90221144830684 859.9814609779833,34.644920598376984 857.9446366174489,36.62659744426651 855.4025942319066,36.54770361941212 850.1782600291767,31.810631234369907 848.3193847037506,31.083591757827435 844.5546306841703,31.06814245054943 834.8327961014753,34.10594106625399 829.4168143630546,34.29397205557564 823.8418267522126,37.062611449838414 818.2153856784541,38.977454832661124 814.9788938456848,38.291559962653196 813.8973501977728,34.263590266478786 811.6716156077129,32.527655491746714 803.0835306896037,31.301445997300675 799.2375383356173,28.879361619579186 794.8384850036456,20.53476458512273 787.1472037243536,14.986345639744172 779.7288736941825,14.816488778792518 770.3578045112171,13.841257238450225 764.1377583582788,14.302132232058284 759.2261051242991,13.220470213776935 753.1782988495102,9.917001595412785 747.3297919096767,7.993977220293459 743.315524017534,10.656530174947989 740.8605933938322,15.205931305675449 738.4710399877661,20.7397255487125 736.4327926270129,23.095545159426706 733.0255908948251,24.165865862457167 724.0709552871346,22.64058771022235 719.5679672880913,22.24123805392992 711.6789610531061,23.368345454196742 704.3407804005262,26.841063606293687 697.4360983564083,31.942706890214254 694.8584761353725,34.57586913457442 693.6021881869337,37.77629706394191 694.4859394760796,43.108008130375765 693.7364567502976,47.67942502286098 688.2601595093257,57.738789972444124 686.893064764964,62.30371712399938 683.7241235320872,66.39075985305203 680.9793468245725,70.95024011477483 669.1765731326157,87.35519572278474 663.275750521753,93.72032697229884 658.277358384571,93.71709173678187 651.9117975960626,90.52100672026245 647.8221145039422,87.78132708400074 643.7087652915235,83.2231136099424 640.086129307556,77.74219226950879 635.5283844875709,72.26836226728938 632.3540655875479,69.53756919091074 627.7871896856436,69.08345784303845 621.8581500737748,67.25918094087456 611.8576598484739,65.43316849313226 607.3081635099004,63.15906252955665 602.2885121178439,62.705388735918405 594.9964186498808,63.163859640175815 591.3583237012916,64.0855797867448 587.2584864092757,65.92099558853965 581.331200817934,70.48250334484396 577.2222661862279,73.22436582336161 573.1157972300844,76.87652967366716 564.0145734200081,83.74080210854345 558.5471925318982,86.95434467927589 551.2445775369347,93.34890544927487 546.2175328367463,95.17572364639466 542.5815781722805,98.38429489486839 538.4812206409711,101.13280301639702 527.06883569362,104.80803403169546 518.859134215043,103.92316956636569 515.6677937206825,102.11096851604725 511.9948534349351,101.2146942573886 508.80341442545773,99.39242824129474 502.8791739131851,91.19449738582898 501.9582552247221,87.10351490230846 501.9678155761567,78.43613864436736 503.7857645047472,68.85297960669573 503.79165305173666,64.73990995702718 502.867712596448,58.816175314845395 497.39229156368594,54.73825121797472 490.99798310038926,56.12280894810908 486.4267596662312,59.3364186791531 480.03784312718045,66.648196705504 477.7612410354069,71.66380893997678 475.4718136449354,75.31998614982069 474.11792749315083,78.98382005999395 471.3685763860477,84.0104876293243 468.18756669854315,92.2258513768196 462.68636318726556,103.18337739335209 461.34349486725,107.75325153826032 454.5025435835025,117.80767537176655 449.9192028848145,121.92678392115522 447.6495484744114,126.48644723096356 443.9996414247454,129.6929108676103 438.51946377438884,132.4471547339391 434.8559563901304,131.5409245201031 427.5643781897487,135.20975922164314 419.3510199897861,142.07619609988444 416.1815166287635,145.6484561620863 411.0207429973286,145.33703982623717 409.86804242616535,146.21259044037515 409.7280109023705,148.64889202257598 405.2450807577112,155.85325245122158 405.36454245584093,157.01134711110956 402.92978018986776,159.43124291467223 397.9222999862763,163.09336089891985 386.54007534945566,160.83380001513626 379.68462018287977,152.63323893871018 377.86162128483386,148.53668835437998 375.1327578186761,143.97197054659148 373.299497512231,139.4204190459517 370.5707436785189,135.768016373798 365.54857624733563,128.02176195011702 362.8200592211175,122.09724342042114 358.71362764282685,118.90958777798937 354.1449645696547,113.89971243942762 345.9654449798196,109.79712127230982 342.7665703831448,107.0614535395855 338.6713288683528,99.76840456146283 337.75559396676186,95.21946929239232 333.2048696937984,80.16663677878239 330.91124598737025,75.14415181555614 327.74333293510693,72.87266366851213 323.17778309319067,71.04829450072828 311.80335948101805,67.84951325781708 302.69137903640654,67.38366633944179 290.41385642582185,61.90005179229729 284.0485074759116,58.70583146998695 275.4223434408488,56.410806884524845 266.3215434221255,53.20763536500317 262.53153199823083,52.459487438316955 258.4268170850516,53.75961804177018 257.5009840939996,55.56321472969171 259.400165113049,60.490043001392905 259.3954771273326,65.8111579388792 255.71884944342693,85.83146814903569 254.52052372826046,87.44233128334213 252.6621674371569,87.63675560546983 243.33098377784427,75.86454791194683 243.2515094689535,74.18673879526943 244.85208406430496,71.67853801604963 251.5894742664456,68.55318022450774 253.04058047266096,60.72721475571723 252.53716940476224,54.74559444805391 247.705696750634,47.830685891346775 244.32898408045867,47.697054252487305 243.10798088819814,48.71602832984752 242.0750287511412,54.47537123531367 241.2755578433847,55.98188153713534 231.85944762666546,60.277257116793635 225.90266121484382,67.57052318499632 223.12238720819872,68.35941794732048 221.34623007599075,67.55984126594365 219.54811706075571,64.36561954727608 217.56107003869187,64.23452940885647 214.5898380263914,66.08292403352823 210.88690947112426,73.05359764092225 210.4009951826981,77.16875375557856 211.6020869469075,79.43208341182515 218.69178894288882,84.29272505051028 219.41535669463917,88.16459467861841 215.92008426630326,95.65948362487984 212.381692490122,96.63379887702604 201.39565729575477,100.7251641439201 199.81747583916217,101.92849013610953 198.60970853765323,107.36327488603331 196.34356422107606,112.38394393378383 190.4268310978345,116.47469381758538 184.51930060187013,119.66064275702081 178.61385803797143,121.01374458580528 170.424858114835,122.37650699682013 165.42670749277792,121.46142708266143 161.7680481790984,118.72237394834508 148.57806884536697,112.33345992902537 145.40088725930508,110.05670586941596 141.29804146186035,109.58667616727314 127.18427851757278,103.20805396633375 124.00241003921707,97.281842143841 121.25943613667532,94.54813170435682 113.9729031498285,90.44679667232595 111.95490509815896,92.74780790199213 106.81670992816551,91.9770733795209 104.59117977485347,93.23298805581226 103.12670343245809,95.91162889534462 100.49246466041548,98.72051455320411 99.11052713018105,102.38317222017076 96.12328230025159,105.09613644421768 92.39529982386674,107.27025606527752 83.74126185314427,111.42498032944081 81.43457903110048,113.24075696383466 78.37944931610325,117.60443720544083 74.49614407656664,121.21439120289324 69.92828096083551,122.64049343695103 65.92667264941237,125.04430774048421 61.58928033992589,128.5541733455268 57.2920419343701,130.1967986819095 52.07172460016193,130.42569010529792 48.87627686499811,133.03075295117708 46.5544769497015,138.0342376050745 46.33676407090517,145.32097366325343 45.42096071610675,148.75068793424725 43.152500281433284,152.43924851797146 34.030433790203546,155.51168976477618 24.975110003500838,158.91808375788366 20.43733897992512,161.78296579735206 13.49411108199653,166.79437126116886 11.301771799588224,169.26450958552346 9.045347763079002,174.05729213047096 7.004957515800492,175.87034104201177 5.3247544058336675,181.74820937246398 5.559211193950479,184.6013216109635 9.010636182661699,189.80662338838238 12.057749182169422,192.8181335584427 14.48722866179849,196.83413652772015 15.218564081753033,202.32821341127647 15.538042887238547,217.74227187029783 16.924875467739042,223.10350636257226 16.840047926679336,227.94869385546485 15.53027117839243,238.7796331414744 15.700327140934158,242.51649447700004 17.757985190793466,246.436835568216 18.23098974505579,251.37777435159796 14.57944995483013,267.4325016104176 13.187192614244536,272.2669555607383 5.069160263475237,268.97457272262227 1.2116802538388618,268.6606305552557 0.07928577576666047,269.63794024775723 0.0,272.25901273954594 3.725679309979071,277.2123975515033 3.8020001148090996,281.936945377655 5.7952847148643585,285.72560827032635 4.406065858039064,292.2273465625635 7.325811143153344,297.0204138122024 10.11311381910488,304.83906315315284 16.911882110488243,307.9340290041877 21.414044241514617,316.0051950716709 33.19847090647256,323.13200456242595 40.510925978442295,325.6886846099768 43.81145159718854,318.95393686463086 51.25063078115289,302.9187151091706 53.46550412362685,301.53481036083116 56.86069668893835,300.84561384511136 67.94148789894268,308.80945616417034 75.07749008815505,312.71379592460704 77.19792292894476,312.6373281363961 78.65052762329461,307.2623581246349 80.25806870103767,304.92098252957464 83.24638849694821,304.5220322218355 88.50111283947928,305.188114052185 101.26106187476425,312.03107254394115 104.97415691206173,316.65665866925616 110.14319387258908,324.88834607003844 113.0013482268708,332.8729640687391 113.27736640709635,336.1365420839592 111.64912600084972,346.2915832016487 112.11374347826147,347.25955186342907 118.89031141479985,349.6572582949352 122.39970842902189,349.0199427840492 130.66063863140988,343.7712928472541 136.70920768717636,338.6014140408483 148.9151054573206,332.84181680339475 151.95267363776819,331.83832817411246 157.18676038277832,333.8979385939582 159.44702724036082,337.4227948659836 160.97568240901623,341.4841535137053 165.96312733134815,343.9264612237298 174.50183636755864,342.03437953788404 179.93667820900686,342.82087399793437 190.41382158526918,352.35611483313994 197.62215529217835,354.63585458689147 211.94363682434417,357.11946229185475 217.2548980141628,358.3168884686401 232.87723828835792,353.429936095034 238.23642856808206,353.9935580118702 244.59424913219888,360.58522543556705 244.8648824879594,364.95596187478753 239.0326326958502,371.8743748190323 237.7098624388931,382.41994215818374 236.05660077797708,387.79705403015106 236.7171828304873,388.83195132995144 243.33500419918562,395.06023651184546 244.1932088869173,397.5257944876204 243.46804269235795,406.6907313116108 243.56410481825714,420.3354675899529 244.79852169495834,421.62997952978816 253.20720696383225,424.4355135267625 256.6631884875786,426.90912174466223 257.58600954817996,432.2770894167334 263.29123944383946,439.51274861087666 263.5085007038849,440.94298462193484 259.6037209863898,447.98219219984924 259.64176911393935,448.7445899895281 264.3107834969456,452.89855052736027 267.19456076200953,454.19806408049834 274.87942153980134,456.34485912781275" /><circle cx="692.4335723080754" cy="365.70064297961414" fill="rgb(100%,100%,100%)" r="16" stroke="grey" stroke-width="8" /></svg>