<?xml version="1.0" encoding="utf-8" ?>
<svg baseProfile="full" height="1024" version="1.1" width="1024" xmlns="http://www.w3.org/2000/svg" xmlns:ev="http://www.w3.org/2001/xml-events" xmlns:xlink="http://www.w3.org/1999/xlink"><defs /><polygon fill="black" points="336.5271241632587,51.36706020073052 334.36921329173333,50.578520105112716 321.5729824260193,48.05153005552222 317.5430542165075,48.824217696081405 313.53941129739025,50.36594694330529 309.5110179280444,52.72274644956212 293.3608160497599,65.38516042624292 285.30930344424945,70.08048127468385 281.2850138947822,70.8420834650484 273.27695417914214,70.77387661005787 269.3000760480117,69.10412437693412 265.29539361715945,68.27070060993174 258.7052933963546,65.57386529734072 257.62344060536657,73.6497243148516 247.95719579149997,90.25409958889884 240.4211778406981,75.06292049517162 235.25413286134312,57.411075799905575 227.66849995121484,42.25495221801975 221.95650990210885,35.38694719150749 217.21346802109053,30.69960931500725 200.84143545460054,16.971214348426656 191.99027509715827,9.081608700704919 182.4186907883118,0.0 178.70991316212456,5.2511026653323825 175.5696754807444,8.893882504012822 172.41678149719985,6.192655003110417 169.7905199955771,10.984350119029273 157.87233886610198,28.242244610367493 154.84239149594478,34.17800744625947 150.4738083198896,41.16447918881397 151.12926866785702,41.94155067725217 169.32900093246957,53.61935234985083 168.08496620595926,55.754786565661675 176.92873681931871,60.675069631145675 188.7948304660775,70.36223437911906 191.85063010286297,72.21612590452946 189.87851202332908,81.12704189751003 233.26988384165958,112.64003430178332 229.92998919640587,120.06819812477602 227.96839220291074,123.1032382207859 223.7158757202361,131.1965743265838 213.17738251428054,154.55033609459258 209.88677635800263,157.65455392474894 201.00920358390704,162.963412756641 196.7678760095684,165.91392649000363 196.06293252516284,168.44706864964314 196.31023946116477,172.15094534773993 198.30221730307534,176.54099802763778 216.12140814539148,165.48734029258128 216.91930622859948,165.36424148275466 236.0809733600615,167.48441251291285 232.4569164976318,176.44685506987446 229.76036865548693,184.58454291092482 227.23661566181391,188.3986267346104 219.03899526268899,193.99228984067804 220.64380199392966,196.41832178699758 223.95226834505917,198.85695755267557 226.01133803151492,202.7649127358186 224.29843576333286,205.5556664010703 224.65402556635377,209.3092559350605 220.54654232040272,218.01936024444592 222.59614636560937,219.82214203282183 221.69627066298085,224.96709064244874 220.33562794054706,229.07662706001202 218.16025832044838,229.59505224182533 214.77738558041597,228.95666228335404 211.47346013521621,227.53154642130858 206.5858008927499,228.53925740006764 204.86122725351234,230.80891157551298 200.56456651391647,231.7109280645641 196.48080820178882,230.24571000248602 190.5141974416271,225.69471913698317 187.32144753761654,221.87724111994157 184.63338686951843,217.52522216509942 182.342419964634,214.65866058851668 176.48611469998716,222.46574457207373 175.05477301056354,225.15382346713272 165.80776336226836,215.56899754763322 163.78186704261716,214.23724338136958 160.72308682630168,213.69086117329357 147.54616659953822,213.69041958314085 149.67245154040523,216.11753765953154 153.62439335213546,228.0488390912501 153.5069940900808,232.6949621174099 151.91919723649568,237.71472322050954 146.76558621497608,248.44609275272444 146.158940749157,248.92723646148943 141.9933716112071,243.8178976448246 138.60556744701447,246.63416684066692 140.1415283663126,248.71318216521843 144.35318430754134,257.3347856482526 147.98160129632893,262.7091450385228 148.93576998156772,264.73768563761723 153.73170615318892,269.8690613045693 143.9887344104389,275.39840626981845 137.62639485220913,274.77625281724045 129.82943862562436,268.37150910342575 126.84588564278577,267.3535532752617 122.36739513953077,264.9440880628845 116.84065657738155,265.4249586596351 106.680529721782,264.8177528088464 104.42785824760625,256.77280057519204 105.5518935463784,249.5446070635312 105.23349689949603,247.85359508620718 99.53152881315869,237.68748592406462 98.26281767438059,231.773993424771 99.3868056108476,228.4832868226631 95.62937477334916,229.66470852177224 92.59016981922365,231.91043930815545 85.97087480484706,233.136855685059 83.16650333028915,229.16300883075576 80.60586841811632,226.621337518857 77.51060781731742,222.67886771958115 75.40261692652216,218.53241589663457 74.78162147712825,209.36640433083812 76.0358580138983,201.69904187348584 79.8973394994414,191.62944910840622 82.42984505956775,187.2175870308987 77.65509860741082,185.29608647013185 71.24786823445687,176.63452798038838 70.57579509524336,173.13540827681504 68.49903841752426,170.31089666178036 64.07935263943556,167.89005721600438 55.32862079839595,167.5068114928058 50.15798408769146,167.61853534617433 44.5656252086638,167.05961538553765 36.872743545622384,165.4585149272508 31.100681938229165,164.79626553438618 27.270477460922592,163.3257704685601 25.28526951372751,163.23008978886662 14.795676127398805,164.26380677026873 14.612796279103422,165.87958231734683 15.291393661144344,172.04754029780338 13.893818329261341,180.2779321688846 19.499355845631953,183.61243734645586 21.02569362490609,190.448192247306 18.31407639439222,192.24016445789493 17.90116718527728,196.66953282714258 14.578744573497485,199.48461175717603 8.100439373241025,200.89750413529669 5.962601944829891,202.11982611198732 4.434889491374896,204.28598995888763 3.525914418171133,209.22477047576763 5.511611434520242,210.83391180499677 10.9661954999941,216.5924374773448 26.258395678469935,238.27083010732463 29.264911374881862,242.93308911185034 32.85752214626134,252.12568492402272 35.295186734138674,259.6965717732703 35.1557969835829,265.6326601014164 23.067134925997255,278.2529976861142 21.163540388456,285.78075147961556 19.52635156207449,290.26815457592966 13.023979866217068,290.7171206180159 1.2377772966741925,288.11891582161593 0.0,297.0866736869657 1.8709127404307924,310.72774761519327 4.959651937403752,324.67938329575804 14.035930588832532,328.2471487092115 52.37126783267489,333.8396426694503 58.32029372490272,338.1876088594257 63.59718830309525,346.22726223075006 63.77754553493978,356.8916469589193 61.70658963625344,376.9227790487114 63.17867226361532,388.63479468152264 70.34062249532718,398.93145616379286 74.86591282644476,410.41093780825724 75.79938850573367,417.7911686246903 79.99392287201144,422.4548209384632 87.58114571238244,422.80360976998884 95.1776429634064,419.14036833599823 104.40802620121914,408.756387788633 111.01743153624555,400.5406948068594 144.48706976204593,433.0636070203319 148.54840407205134,441.55373044873033 154.96169217203004,451.23428803742604 171.77150886908478,460.35800747245753 193.29655195349798,461.2965024616186 200.21818424131638,464.25373371133276 201.9402370989549,472.44257277005204 198.4486305925677,497.0055221878124 203.11839171336788,513.1047016851865 222.41306229481756,527.2045506991683 229.33042312707852,535.4027445007548 242.1733848897703,561.7633692691734 256.03236986212687,574.9549477696019 278.05971461292125,592.2544940128023 285.9807083600202,602.7985526260715 288.5668240212363,618.1607681948026 287.3030307771634,639.5122076213913 279.3492312693765,661.4348024770932 264.4633938386731,678.3708170592208 242.14590831563876,693.5473343569087 240.1539120849376,702.0153001399149 246.08364580657118,713.4440851631782 274.8225806574437,724.8962434459895 302.21154910070493,729.7563106250129 313.8633594588895,735.6284480783356 315.3472489421516,739.4288957831784 273.65454863794537,772.4306048375661 257.27278842764866,792.2814230886927 255.0201292995673,808.3687300284362 254.28675081859245,910.880893723079 258.3449657426001,936.7808830965407 280.62902314704627,978.6397540505837 303.43101529414184,1006.1586450056188 321.7928403549552,1018.7556950380794 348.24200298969976,1020.0775871077554 413.1147200450374,1018.295404404832 469.5915726824772,1022.8761046170408 532.9239533006767,1024.0 537.685118348631,1001.5074689430303 539.6336555571163,983.217505203664 539.5324862545285,976.9198956163548 538.8975900095884,962.1273492819889 545.6911781684249,949.876998684995 550.3129584840002,943.1016193462016 556.5340194659475,935.2206467407725 554.8849201197168,924.0251007316995 549.2442972294965,887.9858620502968 547.2745275772552,873.6998728977339 545.0875396141381,865.9807966607693 543.2590176659807,853.8069939797667 541.5768464354543,848.1292908579377 540.2429096749103,845.1769468958221 539.7926130742992,842.0794436830504 543.459912348427,837.6146373170607 543.9445205631498,832.809090313742 546.3281567872003,829.9990822648524 546.2504741235093,826.915816595731 543.6813837861354,824.2503610522307 547.3752543857413,800.4460485246799 548.9545134590014,767.2108518246085 556.0250308691665,763.5012111644751 571.318582093273,767.028899836411 580.6061853702538,765.7890182898416 591.3780717076459,758.7686488607085 606.1210998377793,740.9244604035053 615.4073887645516,733.442612355079 632.6556681203007,733.9016951037956 639.3038417757738,729.9776248928463 643.2649436805807,699.913382378005 642.440357932086,690.2738519106954 632.2305833123374,671.8464766284293 624.3751636447982,667.2613963759857 614.1689359763092,676.5297604755723 603.9109579432605,682.9023547991424 591.9703859651415,681.049006845451 585.6322418479859,677.4340375369841 581.6555204655091,666.7097844428489 574.28167610486,659.9793747018364 561.9039361362875,654.6411279824503 556.7473560883626,648.5980585580012 559.5580060221067,627.1110940796473 570.7579019444223,581.8586784799184 571.0562343340617,567.1368793841448 562.3668579495524,558.6765907590334 558.6834221580505,550.0252718355734 560.4498020228793,542.235714411989 564.8796051695127,531.4729644265699 563.9256390519186,522.5454953446983 540.5799870126167,497.59611193772207 525.2715487381827,470.9669447231064 511.5797453467868,459.23299037117283 483.4677597874115,450.2900392720044 458.0366665191696,436.99368618962444 431.85388645324406,418.609226534822 423.3162918038953,415.78019273329346 406.23926309967726,419.14810308865253 399.0184000336383,418.13019259575265 391.139071856398,414.2658394382345 388.9629985448044,404.98261398095565 390.50389121781217,393.62494586781304 393.89910724336164,382.665362423519 411.19791765253285,366.12856617381385 417.11349575912044,359.41946676317036 417.77579888246595,350.1415158561683 411.66190109768195,331.3085536797129 409.27119237980526,303.96835288274065 411.025425329778,295.19427764217926 417.37244060021885,287.19536398357616 428.65209741643173,277.76002211530204 431.0648946680844,264.60570781840295 423.63694935236015,253.2679242122913 417.2911782538787,249.66371051870408 397.8197355865728,253.5508231124178 369.78604049423717,253.13190431557837 370.75356155467176,250.90336489367326 364.19192196711083,252.19584074046656 365.73368007109906,248.2488570707734 370.0547129013119,246.45152955170056 366.56286742616265,238.09215382143793 362.0138198501341,240.06292827537197 359.003147731671,226.34518349783605 346.38975559322876,230.11008809810028 346.5904185008463,218.90035005762456 345.94380899146375,217.23059098824865 348.06607349971245,215.1766710225811 346.404156297757,211.5356250710936 346.599990151469,206.54572276164356 341.06593932024026,195.26768776995198 328.58588851042924,187.78310041042153 327.08750523031637,157.59338694780627 318.3613597243976,149.58697513513573 315.52521803795753,145.19693728206437 316.62263736069633,138.49248600114038 324.931821321656,128.4450321913621 326.8733286640032,119.68568160012649 325.9147139692232,107.85471049504258 325.92181314925665,99.40915009102275 330.17518932704826,68.50466239046762 336.5271241632587,51.36706020073052" /><circle cx="189.6849714647066" cy="269.38145145740486" fill="rgb(100%,100%,100%)" r="16" stroke="grey" stroke-width="8" /></svg>