<?xml version="1.0" encoding="utf-8" ?>
<svg baseProfile="full" height="1024" version="1.1" width="1024" xmlns="http://www.w3.org/2000/svg" xmlns:ev="http://www.w3.org/2001/xml-events" xmlns:xlink="http://www.w3.org/1999/xlink"><defs /><polygon fill="black" points="35.07600796334876,238.23057104273698 29.783398342374728,238.89498606919085 21.513988437410504,237.04031189912382 11.265152089965325,235.745154393309 7.5728828193189175,234.9455374856759 4.829178334253993,237.90695486896436 3.4001989783825577,240.92044252737617 2.619811754248522,244.18437287693746 2.4820651334602837,248.13501624606135 4.090824349701485,257.6499780876709 4.2234037504249695,260.06648320703334 3.210082679699261,263.7690050451331 0.0,267.58727958527936 8.133079760969228,273.0529592231834 10.56852184138671,278.2081718933547 17.008347171463196,287.47333704704295 22.27990881043205,293.1705946358202 30.757016771238707,300.9701009179307 34.752375011017826,305.7410754082879 36.976530035974605,310.6556368506947 37.92224598412604,314.643117071662 37.54716255145775,319.02682315578306 34.74951732286686,323.09180480525185 31.594354489099665,325.37974546414125 25.1236577950679,328.2065808535182 20.285778771346845,337.8160161204538 20.472301966673076,340.47891793514907 17.606262417564924,343.3745913430556 17.83812343138578,345.17341247312356 16.49487648804932,346.85978098727696 16.725173005154375,349.56354337571304 15.902458351587187,350.9720577549672 17.852943752915756,352.0884685864736 16.22226769065579,356.09636596495375 16.63544772178936,357.45592551094273 15.959860899521269,360.05445047761407 16.787525544316075,361.70697163997124 15.923523307264198,364.7840204325305 13.479278403380508,367.027292523111 16.167106771771344,370.6224074796444 18.241945922258214,369.33700734681554 19.84297198203742,369.8864158739442 18.822380953040767,374.8881814143598 19.001531413529687,376.5046186182873 21.13249528627053,377.0305344200185 23.54314227339779,376.333026914932 27.355287139668498,377.2649661659907 29.715952155962412,380.1796036222463 32.998574083791326,381.1251885683946 35.141039460682435,384.44856938959924 34.80211898021041,386.6997343433636 32.87446087803974,391.3623832333261 34.105202657025764,392.6265294985892 32.44273158640054,396.2399528935514 34.27000491072838,399.7290055370421 36.610914970613095,401.8007779302146 43.63153586110958,402.058977365381 50.082109951397236,399.663880190879 56.1292834961639,396.599401663216 61.4729004374913,395.03538744558796 65.88173133555951,394.7498206924755 67.81222950846437,395.9165307178347 75.4594360273798,397.2964976078963 81.02805388840083,401.44962823756043 95.60732161255272,411.6120924438178 106.6457463411603,416.83210090194086 113.83727055419764,418.83188479693786 118.39832566637693,420.7512740105378 124.41053239353614,424.4705495432096 129.7394087561443,429.27479643200013 140.6374058536574,431.8537796858784 143.18548853529796,434.358139179816 144.84905106555945,436.839148086721 147.2650034619453,442.84848055590044 148.53310163747,449.92725206069497 152.3327201369775,459.9501805448165 155.87088358998224,465.13662437911523 157.9293053491182,468.72648343164906 157.9757669491738,473.3311588380351 152.9824579866113,477.54133521985364 145.38408769713973,480.78464022426385 141.0702599034436,484.35685771184035 135.31935292705634,490.9575848144052 138.19014885241378,496.5502678515069 142.2518266963073,499.76927619493824 147.00594144536313,501.92141262230746 149.12505934435168,503.9728393399961 150.5512398848194,506.8765923410607 150.81897217053822,511.4927684402312 150.6431449718125,516.103092509964 152.9773380514265,532.2067960008263 151.40849920698508,536.0348386934706 148.97195793374007,540.4105546233063 148.67815341324547,542.3711343928521 152.31320866905742,545.4017862466593 152.98163577394996,550.2517942691477 151.078211966395,552.1857139916517 150.76580272351438,555.4120140284665 151.45147528231388,557.9680003534761 152.73664446772818,558.8851046888972 151.88726948129542,562.3206225582632 152.67057080606182,565.1005731166883 152.07899592881833,566.7278986057299 153.01795048300536,568.6484855213719 151.12512130004274,571.8277674577462 152.45602196788874,572.072021852417 156.11775069716626,574.5005660043998 158.3622058594587,573.543163562874 160.57995445604564,574.6875202536971 162.0028661680766,577.8292399322538 165.01178229401233,576.4355706503753 168.96954544979033,577.2078780629664 172.44338197150418,579.1674510916814 173.55682338758487,581.4956506863139 174.1309663706986,586.3701829220965 171.40238661756885,594.6014025912492 165.00644242540176,606.888356582592 165.50656989062415,610.8557769090069 171.95793241906574,620.3180545457566 173.73579847656637,625.8689280655418 174.3318268637594,633.1365903819524 172.14607015755013,638.5497169770205 167.50852520343093,645.1796055141317 161.5518819641205,651.5448755766563 158.67085149637157,658.0271050096053 161.73410189569037,664.2867221745504 169.1302910823044,672.0318608934294 167.6082744532574,677.4524294668918 161.82684994166485,690.8525967684363 154.7138602897016,704.6354444537973 152.53741715799194,709.8286252606198 146.34147608244493,716.8447229108281 137.66905664499754,730.8067041282338 136.24735166484155,739.09522236609 130.5032763761989,745.7004489329807 128.96894347398205,751.1362974814681 128.736729786698,757.2781873736881 133.07227142501355,770.5910726234173 127.86505411708565,774.3689140959599 123.5007464241576,773.2776136734749 120.73035624027165,774.2511425766985 118.28382862189783,775.9088178881913 115.56009545915683,779.1439599227363 113.45158339884969,778.5155793267134 110.50827216875605,780.1968765787656 109.69657269149288,787.3493474975596 106.41147812025156,789.0435876253935 105.50926721986056,793.1357839253856 100.12849512665753,796.9862924356762 97.53955227042054,799.5758791818143 94.51007488884515,799.8031474858363 93.30050481567565,802.5879515639724 90.9991489783762,806.0867008914307 86.8034708371209,809.0157524279604 84.94090881085633,808.7433346672378 81.12111048935617,805.3294649568021 78.04221190312944,804.838926892324 74.53738012575128,808.1209140663591 73.38715783018709,810.0143860164355 73.48863886694632,812.8506939911285 71.39209919839062,816.0813518851163 71.26137167984156,817.5983522175223 69.59962145467267,819.5364910913113 67.17728662049431,819.7381032759431 67.03596717386908,821.7468143246388 65.5576255321619,823.4272153271663 60.43259411489771,827.4370664677325 55.73068671856808,827.2646261884731 55.080237157891915,826.4703757805073 51.38309022871059,826.8025007325358 49.13770578725323,825.8955593036851 47.38303630399578,827.3315710298629 46.269180367099125,832.6457187414251 47.02573129841093,834.8434973987735 46.1062088520126,837.1146459659205 45.98946744214405,839.6157297848523 44.62780752288698,842.2274473820024 42.777923584587214,842.8748393546491 40.109697472858755,846.4075971317313 39.705039333992175,849.2080268574787 37.06975778560787,854.4831767652291 35.93969352499086,859.7685114282077 34.669797504282776,862.9752990822502 31.15737516927131,867.0468557373533 27.711776465494506,872.3487961234162 23.722662056939303,876.2393234888253 23.372951243795136,879.5223044328981 27.421480745507896,886.1825065828317 28.228108307870333,888.0740851979101 31.807907954113436,893.1167129387825 35.930050394014295,897.070004890738 38.67447953185518,899.1028241955705 43.18717274405445,899.0731385959883 47.01496357045387,897.6837515473866 50.0084384638361,895.8788888857531 52.26135714501071,895.3720747820146 55.11158372946751,893.1470811288293 58.32265478458006,889.5363911752489 61.235072266301344,887.8855505676343 69.98717891236842,886.2148439717134 75.2831386419782,883.7880643645075 78.15959419492327,883.3572105277201 85.30778681956704,884.7213135376965 91.44833539717227,888.1935061021212 93.01350333439707,890.1093372760017 93.45356466838724,896.44486310139 96.05851169874082,900.497425330081 99.13354830247603,907.7057180680883 101.6912272710028,912.2003201271943 103.56046362691562,913.9299729656418 107.37733519523115,914.0445773687392 109.20612069573798,913.4251953311922 114.84234751134079,908.7553553258292 118.0392823691939,909.4078403358355 121.86622364098854,913.6555585350648 124.82760479658009,918.2905587880022 125.56082152998508,920.89032892309 125.9051906979157,926.0288636441209 124.91925938094533,932.8498369708976 121.74272355661212,939.6687901870993 116.13342550848893,945.2648478584028 112.50885965236975,947.200948474926 108.97896154408019,949.9281065013566 106.99491462848255,952.7763263068358 105.81666057525803,956.0488209567143 105.36887261166028,962.6950892520665 105.51128687445924,966.7696523944414 107.88525398087867,974.1033271003112 109.55096322878303,977.2222445150715 113.50881918654483,982.6861314359267 118.05758177063908,987.5091461709527 121.6786254186088,990.6030429759171 123.88319584363802,993.9852254901407 124.82810147896865,997.9023370131699 126.9825266840387,1004.2949080380893 129.76002986043503,1008.649928330049 132.91252490158016,1012.4155192673146 136.87279921570442,1020.4289930493419 137.94712480201903,1021.7365144745946 139.39898948773103,1020.1628791775058 142.38408860169324,1019.6452194526288 145.6143758295782,1020.8930363893423 147.6924708176553,1024.0 148.59792230046136,1023.776419758319 150.32951184869395,1019.1384874729093 154.0103948373297,1015.563329107258 158.44309222641672,1013.8621707402265 159.38333564562163,1011.6658341969377 158.0771641420981,1009.2108722692733 159.47766677399346,1008.7056182472236 161.20325112054084,1009.6266272272037 164.23516841958332,1012.9909808484492 172.27532154919624,1019.3657113717184 174.26084144085934,1014.2007660928172 175.86405922109074,1006.932807035249 177.2239905143524,1005.1544022034872 182.68167781085486,1003.473321227407 186.35015011210962,999.6199552182845 190.17118093917352,998.7751822036421 196.4685020179675,1001.3381878942989 199.6237676689834,1003.3750575314133 203.4512486363599,1004.0493629710264 207.83501709752784,1007.0408172316069 220.14142131845026,1011.2214792577768 224.64524681474168,1011.744794554468 229.56489064514153,1011.4517893149862 232.16544346111877,1012.8151285453964 234.7319304281975,1017.6193215106889 237.28296863452118,1016.9168334821704 240.6371498879663,1014.6454822352417 241.85335865195296,1011.2323705457403 241.21915133427427,1007.8886967161219 244.01675024272586,1005.8176354712223 244.6326610531552,1004.1367959123677 243.27106139905825,1000.1439815047487 245.47450229629186,998.1598804428481 249.34088363936849,997.4441526731745 251.88235171864196,995.8582805590481 256.8833122790882,999.3942893951397 257.7187345130552,1006.4443454482969 263.0623033103752,1009.9459124755217 267.01135347767024,1010.0911313278231 271.01856491657185,1008.4898385686512 278.513506441588,1001.971624861155 283.8711583989546,999.5340812319898 290.83346251320864,1001.3313272639059 299.8504144903885,1001.2170869354351 307.52366867288765,1001.9270578555678 315.23097917302636,1001.7519069008463 321.7557515764768,1004.1675724822102 325.75295618686005,1003.209629616224 331.35341867049715,1002.7379463483151 335.88356191069136,1004.2596355440334 338.70107668561246,1003.5913387237838 338.43870502452694,1001.3444037081033 341.1722076285479,997.1739707427001 336.87631623296727,995.2703028738239 335.6844562642548,993.7013327041716 336.0902932784122,992.053457309389 334.34017048443457,989.7713012417863 335.83315049313967,986.2834074999912 335.71418154555386,978.9200887067854 337.83552597299155,976.5347990472692 336.98120913784476,974.5010394547292 340.4184029271461,971.5357175671962 340.71548834766884,964.8373388876374 341.56142248470996,962.7636100846016 340.9641347818155,961.1794894403382 337.9774020648086,959.8056175825182 338.3291031418012,956.0241913832938 340.13816137981473,953.0472747305737 344.1544473131418,951.4718583234549 344.767847400465,949.8435778270671 343.96218246861685,948.2101640359289 344.6190273927655,945.1541784018958 348.4548334532459,942.8008891816188 352.1787004520479,939.7311968784184 353.66260770945786,937.640481411806 355.2044663519462,938.6493648299152 358.7475182263273,938.6299832567429 361.48454107415046,935.6934621636615 361.66051844938653,932.921159183954 367.6120998945951,926.7150410116234 371.09922633966977,927.0543415009935 374.737270401376,923.2151941853559 375.5544220988221,919.3878580094606 377.0301433430932,917.9548054886662 377.32380963243656,915.1399173496599 379.3559549261122,912.4069530795518 381.1339705230192,908.9288541906994 383.2484973102956,910.7099485920409 384.816492085519,910.2188267739564 386.83178749234185,901.7213125677753 385.5706893375686,899.2950305854101 385.08913529698964,894.3359598492178 383.5334464200306,892.733902241411 383.68557999336724,891.2034451691015 382.4822765753493,889.8535615547452 385.5103776075284,886.7307211969925 387.8384889300293,885.8516635013142 390.2762907815099,882.4275845585881 391.45500322385345,882.3321823154045 393.96238128010305,878.4967347803895 396.2022412282628,875.9271313725102 399.2603620237463,876.0031240465178 401.77725131439007,874.8859407638794 402.6452891933284,875.500080914208 402.9338835686197,879.6913406963804 404.754930163935,881.1357004064556 407.62202223380007,880.1470030695943 409.40046214282233,878.6998978452167 410.8972713630526,879.1225611049938 412.93025663166935,877.2618438351176 416.3559823663816,875.2509052016433 413.72245057748626,872.2987121099509 413.9084723689252,869.9488707102096 416.57537786560437,866.5830993261939 419.91210230298003,865.1986829189834 420.5919999359803,863.1813276817893 425.67723786817567,855.1109846813979 428.2543210471003,852.341794218705 432.5771915329487,851.6512723300712 433.1122649397533,849.359123845564 434.92134141933167,848.1261279826106 435.5332806197462,845.4847668659797 433.49084934985575,842.3431643759704 430.35517718365713,843.0389341198832 428.0887596034934,842.7086649807629 427.47709389418344,844.2230320427582 423.2073967710815,845.0244922773802 417.5450965675839,842.3990612069887 416.6966468625115,840.9746177469892 417.2728904234768,839.0102236473513 413.1375761321534,834.4493794553662 416.0406160428881,829.9040008879151 415.26330489420496,826.3893799368859 412.60229903552363,824.0851525250957 412.35259608040485,822.5002207180019 414.0699290006118,819.2112029205467 412.6323915223849,812.6616482404911 413.51840581759006,808.78784261789 415.71371184023667,805.842033891746 416.7923158081134,802.5713380547238 418.6473008849198,800.9297016444623 418.12000377284005,795.4661956298472 420.49339327139006,792.0473211554396 423.7401728654984,789.1187173127366 422.3973053613085,788.4285338926493 422.02936129161316,785.6579098800677 423.2239073822173,782.2229994636526 425.2841431744776,781.0607280074627 426.9574312281687,778.5515094869207 429.5068295236182,778.0277330238024 431.68672789804265,776.3825492582494 433.01988673395385,773.9999075232478 432.70594518072545,771.9977874174424 433.57615213469643,769.3349444972721 435.1246642410481,767.6057845319062 435.68186754543376,765.3974597096226 437.78221192783144,764.5107282876461 439.7281618407285,767.1989949340189 439.67038691489216,768.4692094871002 441.8210896193147,770.4277493352181 443.2025816331012,770.6559267197247 444.9977029836059,766.8139416389527 447.41151327949035,766.6700189568523 451.0128888082445,765.0163595661172 455.50090822388876,764.3650307154106 457.95553548040596,759.4397436350375 462.3648123534933,756.167691830393 465.27871968418594,756.9378005154384 467.0428264449818,755.8708427103752 466.7975267513077,754.7069429400794 467.6680568757295,749.3629958110375 473.1825008497899,749.6678689797775 475.02291447664436,748.2514401659403 475.18655475683215,745.5275291462626 476.6246443340361,741.1889833816247 478.78147090732506,740.1881941514062 478.56486016200876,738.3896712624921 479.474515949338,736.1159198079089 479.29323792193844,733.6214209825382 477.8907022383382,731.7172593684206 477.62854581927763,728.7531521769278 479.0639857205424,726.9947171998456 479.2390606500828,724.5978088435447 480.3845528625684,721.6971188599218 481.3492973337084,721.3158552847135 482.38127857885746,717.659912491745 481.2243462466027,710.8629266527037 480.30269892642116,708.3888790898027 481.4467621393387,703.7202202212926 483.7750911942555,700.2314453249719 485.6450488746509,699.5011518999597 484.30104355483536,696.4196211321704 482.7330805084927,694.8459450624811 483.5059608088309,691.7674485042078 486.1827681899679,690.5039052866857 487.5885979892189,687.775552034024 486.7334435237781,685.8335634974889 487.74020742722536,683.1412106222892 489.4905841978028,684.5286046755889 492.2621994245626,685.3701433449116 494.77424982128497,685.0909946940546 496.70137641499815,682.1094373342692 500.819539360198,681.3373638647154 505.2733160857938,679.6601367413845 510.0364334112888,674.7274276642327 513.2938767476943,673.8545534740941 519.6067425834835,674.5124743315914 523.9578631390659,676.1484505032356 526.9535091517653,678.1812344315957 528.3907567438692,681.4223070892277 528.3272424743348,686.8534884148035 527.1153372756178,690.6544238703125 528.0082096403638,691.499954812635 530.7376971688627,689.365101858183 533.8503829211019,688.1038847254108 534.5361547637185,686.3768108959621 537.4247980620893,685.5271255085104 538.0529873366115,688.064906397122 540.5473171461703,691.7000633008906 540.9804625366593,693.5345630140473 543.6154017527787,694.5605443157702 544.4083331137301,698.2516100167732 546.4137290441442,700.2576184306861 546.4102448729618,701.5875029311255 543.2383952654566,705.9393845993711 543.045893544562,711.0768279170152 544.8920527790596,713.8438530776156 547.5389541315518,713.6104940385572 554.279345569001,719.4568333998235 557.1352033020897,719.2822353600403 560.2031450235562,719.9951114206042 562.1416005060235,721.9002325422011 564.4209689066373,725.3760053241698 569.7820925691867,724.8980059288434 572.8076806486666,726.6748022845741 579.5982788760265,724.7521205484002 580.1348156447712,722.9846800714549 581.5266868884834,722.9533370880074 582.3226863920678,719.258006337075 585.5414647213298,718.6366179529205 587.0481948832631,715.9331834107188 588.8707703332219,716.0291331962269 591.2008215454853,714.9290941777193 595.3334931990371,715.9925481956952 596.9303233690396,713.9017237859088 601.8301833292558,714.297722627317 602.9429072026069,715.8861167181442 601.406119634025,718.0173163391005 602.3788594062398,721.1233370178685 603.9448568194307,722.808112369808 605.4564961647259,721.9458818126161 608.4365271022498,724.0795668866617 610.4131642550606,722.135640327874 612.5201082549609,722.3796277302652 614.0846894135425,724.4736778471911 619.1451726944913,718.9417201958813 621.8105116842418,712.280446025889 623.0780009725033,711.421592377515 624.6790455643309,721.5046737890088 626.7678811850787,720.1220003748703 629.9142862322685,719.151268751551 634.4559238692893,719.3457051002995 636.1973502697631,720.8222147992647 640.012551760431,721.406627715106 643.3787196223326,722.6122123301275 646.3298583471728,721.5213226099816 647.6624159911748,718.69574767674 650.3529843930568,716.1153162086288 654.494112326947,715.3532090433896 655.3815025801978,716.6382116376975 656.945533719008,715.3959788927227 659.1557416697361,710.5716224458818 661.8271861756816,709.1171147527018 662.6261562722718,703.1912721809031 665.0278416453904,704.2975072465819 665.4671771483784,701.7022708861609 668.0002655343009,700.9041767258233 667.8672231342397,695.9349116151272 666.510066853288,694.3821809826479 669.3536858799565,691.7381084664786 672.0910700668738,688.0728378862138 669.5465477836974,686.7950806407422 667.2273930549179,684.8390184600148 668.6869263427941,682.6365924961244 671.9721074344025,682.15323800039 676.0160314948953,679.6738122148693 676.7424720517356,677.493769518831 679.289058276341,674.8751468806176 681.8666471119963,675.0267768413337 682.5867408997665,670.2701136082486 684.1719514342959,671.2867495296196 686.1690884325577,670.3235904644976 688.9471454825408,671.0131487007512 690.5184552406234,668.9527977852493 691.9841030411553,663.6831439806732 693.4601874828003,661.6750096414567 694.6372354833647,655.5317553924435 692.8002077940889,654.9702492251712 690.7458273364347,651.0692519634129 685.9254562271882,652.0996684199331 683.5238035545817,650.0240647199732 683.097906971086,647.5367523351101 681.2764615754058,646.0848497398442 680.7700947207377,643.1912605220518 682.1402955942119,637.4957020711407 684.7476279754587,635.5216088421723 684.4166364891776,633.8613142707582 681.4879217464919,633.3788727619767 680.3432175316876,631.7109865382537 678.1342566694254,631.819265763974 673.553896105307,626.6935987832817 671.2252431898954,628.0503221024295 667.6296716891153,626.1477986156012 663.5885167455592,627.7054073037593 656.2850119553582,623.6858769174089 654.866895769271,620.5619334542148 654.9876320222548,617.4953885372049 659.0013543918833,615.6727556123149 663.7980907291679,616.5247373118673 669.3509375392954,614.7586219074902 667.4016544644944,608.0996589100496 666.5807298120967,606.7439098356597 659.561628497386,600.9854986485009 653.7694121677291,597.4636237256067 649.6178540848848,591.1583507316029 646.2347266784311,582.0227593562129 648.0966952741827,573.753910060029 651.5519881126996,563.5609903529582 651.8866164706656,554.5741273500198 651.1273946147056,551.4633979263033 648.7150553524835,545.6648756040781 641.4784506567853,539.6795740846635 637.2649465018487,529.1962923677818 631.2483928567616,525.4561501474011 630.9240408230397,520.3711544531754 628.5181299604652,518.0737115928629 627.4824412480571,516.0301079528175 627.6845846460695,511.0898652910813 629.5672363436755,509.7138751640797 630.0304443710479,505.4229686387948 627.4692688949308,502.12906880775097 626.056905457285,498.20555853041856 626.9254896892426,496.2026643107316 624.511925024815,491.4586974823063 625.8218035187281,490.3367609439416 624.3275090253754,485.40604823970773 622.1982176296639,484.18522690492625 620.2966664098599,484.73561381524496 617.2254791138408,484.140806799527 615.1007142839582,482.2174009092323 612.6869353455617,482.61195285716644 611.0519902452221,479.4867090192588 610.4633354250348,476.24469715565203 608.6524288606399,474.12198042898694 606.9734561508704,469.07226716061496 606.0578902636574,468.52577892875286 606.752844562276,465.2839312118888 605.0069556240992,463.0481705141847 602.2854196992282,463.4882616784307 599.7078557538808,462.2946990835891 596.3228222195813,455.55929234899656 593.5677268999028,453.78840991577647 595.2284063515115,449.60573601397164 593.805929216695,443.35101490157933 595.0663790985432,439.99059604710874 594.032530599844,435.5439848524335 595.325220670554,436.196786572228 598.1000466227548,434.4625474080576 600.2469557492739,435.0714841359754 602.9040044946076,438.12759533365033 606.7349906934061,441.33857728251064 610.6012307607873,443.88669074145673 617.9475461160297,441.73385448953957 620.7056899798994,438.5426344744983 625.8681442492091,435.8739812462119 631.1873982655349,434.7505183401537 634.6837553478192,435.3157900033083 646.6269292934271,439.06618117389235 654.534824937485,432.9990557394334 656.6088020610596,430.43926723598054 657.3620371437628,427.82920457193995 655.5276833389399,424.2432688161224 654.3681809470758,420.02532840117874 655.2326119598571,408.85944754824857 658.3286594932589,402.6077146851735 660.8734474716829,398.7578764938162 665.8514883449554,395.0008978036859 672.546096398749,391.7547356745363 670.0560837032707,382.43041248436145 668.6607378002345,378.6366436115593 668.5434970750077,375.9919597073523 671.3117416115546,372.3742698176625 684.0059577574465,366.9516908477759 689.2298620102684,361.89779982237667 691.2344512646764,361.10041151255825 693.7908529903298,357.2517666602944 694.7991263817902,353.7746850027289 695.4719529822225,347.435556401765 691.9090815828624,337.40387669479287 693.3482808766761,334.1654202700604 702.2084704740008,331.4618268563187 708.2089090354012,332.437475664669 709.8678506755034,330.90285234516443 711.5612991579869,324.11051530579164 712.916273527606,323.7417259852833 714.7387279458958,318.8895126980333 718.7673156394964,318.2293744056027 723.8658983693261,314.80599842439335 723.9091036042832,311.3575878734422 726.5243096994154,309.44123933983576 726.005881608056,307.1221875909662 726.8249042550809,303.4573489271204 724.8529061699143,300.07569833464424 725.6572064186157,299.3602579894714 723.7570639327632,295.0424434885125 722.9129411808694,294.305042816743 723.2310700429157,290.1925325642611 722.4571095623082,288.38601695491786 720.28152697791,286.8076968662747 719.3922333552911,285.1361607590442 719.8928319899358,280.92959169720234 718.6230161523486,277.68962314424414 718.4511582317929,273.73874297951534 715.0842851873015,272.10056650428123 713.7990264784006,270.4664374224734 711.3497326306099,270.0408373463798 708.6492057170542,266.08378254617503 706.5664455326071,261.6796693082616 703.4203277836607,259.54910569291246 700.8976371836459,259.0947174093578 698.2974506674923,257.5038225860367 696.5889840362554,255.60196603917757 696.2217258844402,253.02847463566445 697.3701349828684,250.09329006299572 699.4507062881212,250.55535816607187 701.9508472866972,248.43998718504645 704.0319842217862,249.35928632706703 706.372190713428,247.37852766588367 710.1733621580967,247.44510563400956 711.9995635594339,245.08736941460802 711.1161657844257,242.45204615994953 711.5149682370688,239.1639772740009 710.9581895121198,237.97556853978472 708.4502963972168,237.44948724673282 705.9260291859022,234.70073808678399 705.3538534540029,232.6082899624106 706.5435735347132,231.27784814008953 706.3061147600778,227.73761317245112 706.7049455012076,224.8667754260996 708.4984701200933,221.06859055246457 708.5056429995877,217.2303680796157 709.3762260379625,215.31686877897118 711.2529566050425,214.63471271764865 712.0089154341018,210.7634293041616 713.7531416112421,210.11410616317335 718.4656818246165,205.25060693491002 721.8040098585963,204.61346718811296 724.3328078526918,200.09284678352628 720.9876435100228,200.3235655207908 720.151858386135,198.3286497173973 720.9061794654774,196.0725031347614 723.1291326935595,194.67389674419508 723.0404777187186,192.13773047870393 722.1108845810269,190.63154553381298 722.6720530685202,184.9386603191599 724.124237071251,182.29418320780678 726.4521623801539,181.07636561095126 727.7946946546896,181.4183267021915 733.4272637543436,180.61862980204785 733.4003235418173,171.16285726979504 732.8271748514112,167.39794258844915 731.2773846655296,164.87894007713737 730.7798425806155,158.3136913397583 728.495176901615,156.122411575358 729.4407975718303,153.52973761921385 728.6674166100984,150.48983289526484 729.4894221098118,145.9118067241469 729.4017891830964,142.58614079929055 724.5489321681921,138.30123989198034 724.0952482179601,136.26043946455627 724.9554351059903,133.85208816794488 723.5250644106338,128.85815079048007 721.6378555088759,127.91803928475986 721.204282415179,125.36013288339461 721.4903125002897,122.01930620785947 722.6562253351935,117.40661720402784 723.5159042952326,115.8097468449979 723.5944235193726,110.24291039847151 723.0989595689722,107.5052380015893 721.6329690826991,104.62190207282481 721.8084734959365,103.34133425772927 719.5375011178,100.56392574644462 718.2301435073547,100.01933101310442 718.371722253868,97.62455311021688 715.3770258483089,94.9409921815942 715.9573835035521,89.55967326015764 717.9691829286908,85.91789949020983 717.954486842498,79.23117012003058 717.2462621324582,76.86176364288792 717.4176461005856,73.23202182303987 713.6524451366405,68.76956117781879 708.7433011473909,62.119130381987816 706.4437028117019,57.1562004967692 705.8983068322633,50.17723969602764 706.0473976581778,46.5287808099406 701.2350497621385,45.771755879660645 692.5064439097273,41.82125944272957 684.8103901911634,36.88941325478254 680.4883919625156,35.170389347555556 673.9019661431258,35.565685486905636 666.5522029613157,32.84397244752017 656.8328704540336,28.94542364715494 644.3820838013092,21.427170640612303 640.4436475687436,21.06660575251601 629.6930358990709,26.58505017182472 621.0956832055571,33.090116268666065 613.752201883467,41.1749103497433 608.1156042217516,44.70686021540473 604.5931928335507,44.80249152130102 600.9639551786557,41.822325467955466 594.47873457153,32.8017709826496 588.8420714832338,30.631989113580403 584.7482251405459,27.850455031140655 581.2686349520663,26.851429969696483 577.4478542995021,28.91362647067251 569.200927259376,37.19823974396809 561.9773336960938,42.00540873242187 551.5343670358899,44.712525828273215 547.6537614204627,42.38090304773618 547.5259692300843,34.24299237750415 550.0817801542339,18.952100347524038 551.2462783024943,11.091546341356207 549.7414891900943,4.4361240371652 547.1781110410152,2.369126310483466 542.4010144743498,0.6590934127322043 530.1144171325905,0.0 521.5052256054576,2.5225519378739136 520.2667876070885,4.482758731559102 519.1958495179589,7.928395585085582 517.5321500553467,10.836170625619616 515.3486021261199,11.778367863278277 510.61295982498245,14.992976082429323 509.56612875788323,17.58841968541094 507.794397235883,19.667883794564887 508.51791041362503,24.221637978161652 511.0845379549652,27.008709318525916 509.5429286470847,29.349016181967386 509.1408614445761,31.985979599938446 506.98064347480226,35.09471263678904 506.70554226774624,36.889769712739394 507.39671912318045,40.18003100650378 506.69390484621744,44.35117654525186 508.5683890261355,46.855376239216184 504.91502944642866,51.67682529227716 504.51565875223463,56.58325488194953 502.0766286958353,57.720852852485336 500.64973482931407,56.809956253593896 495.04813808757575,56.57368035967488 492.87210361567827,57.10062841832121 491.6580280125014,54.60592550791932 487.7260281878383,53.19279836542319 485.418733689456,58.05466543830994 483.6628948418877,59.800188506812106 481.5707861056469,65.38896108762742 472.8000790663347,71.41335930494859 470.3831423504234,71.53710909295705 462.92119371385013,65.9670736798945 457.8482165226394,60.930688220681304 452.6098788935851,54.348035609029694 445.64791927072883,47.038578318288046 441.99656503415576,45.14342636944707 435.9213868053677,47.187220236900544 435.04217304445285,49.41553764031494 432.9354499903221,51.38711756419639 429.526059207359,52.28189341621953 426.55427725817,51.955739244448864 423.4238122165489,53.483797226773845 425.6893875303494,59.885141434496745 422.59396828268643,60.16793296285414 417.43591791173475,61.91395528596286 413.2726549191598,62.432809799963934 411.16755100918573,61.639509133563365 410.05309019589885,62.19033434078267 406.01773599136953,62.342566974906845 404.29295352812284,63.85293089038157 407.8041731090508,73.27791657768717 410.4963351126953,77.55802784515572 414.2562206609377,82.74777716205153 419.4744291913824,95.9115328067378 420.04044002577183,98.3469271542408 422.47726980857584,103.71574966470905 429.3764376683352,112.76799579979752 429.3519758410942,119.35659221747073 431.2936835272481,126.0212047462445 431.16282895776004,129.53039071486387 434.95682359421863,133.6374183478307 439.8900007737877,136.68553162890714 444.6401706952951,138.63061135582996 444.432847955674,144.10891096638 441.0955986030566,151.45274798290802 436.39764338584064,159.84067633588847 433.6111761953406,169.62427172562536 433.0641353655885,178.38566701229365 433.27597301623496,184.55112360625742 437.2325422939592,190.1915649662941 440.21416113023344,192.49680624934672 446.29719521411147,199.98802283615817 446.8374131867545,203.08656053593222 446.5307079330709,205.4958752196709 443.48901379432334,210.42763206041047 440.7721209688321,212.73731709430797 440.2817923962029,220.19393174927643 442.4890601416678,225.5459091406275 442.58370615553844,228.84450583709327 441.34909950179815,232.7593700694141 439.48204040714955,235.53529156666525 436.105297907267,238.03604630269297 430.1546102682214,238.69167435512168 422.72383311624395,237.96495162500253 419.77308788963296,240.49000161632648 413.45254350699923,245.088583208586 410.0875595895411,244.53195565863643 406.94357186385093,242.87597716806795 406.5892073269253,234.51282133919563 399.6857110900982,231.18697258049713 390.2576236413586,230.41996547326653 381.27272681592916,229.21951049126722 369.8994692229402,227.29527710311902 361.2230883326637,227.2966668231942 360.3119089635321,229.11462810429737 358.312766245413,229.6451750267221 354.81206680353966,231.89998527575858 353.11393750749784,231.1582504036586 350.3516945607412,233.03778016362423 348.00015678202794,231.75529619666634 345.19428266333864,232.44782773312272 340.38746147903095,230.93979204006996 335.9465844920855,231.31481242065877 332.9263848213322,229.3189897331339 329.7890839543419,226.00410009091763 324.2779061918805,225.8527187212436 322.2044918870225,230.28246395180633 321.85876626743755,232.23511828160122 318.81381602520185,235.88342558060174 318.6295385023217,238.45420219432856 320.0301537891725,240.22574070719077 312.6040779903292,243.08043521485115 309.1100204965122,246.083592708919 306.29509480324174,246.70368376809358 304.98795397773614,249.49041454732549 304.22928792067796,252.74853971641983 299.9088857783644,253.4650526363455 298.35026705921325,256.82357727184524 296.8323053995947,258.50550990041575 294.2067892901715,263.16595187779376 290.81681720224054,263.7101733975793 288.97676055747246,265.5474517941467 286.492418672661,264.1311376156016 284.18570168103116,261.49500219899255 281.2602683651716,261.4339733152541 280.8149795453948,260.34134215532094 277.62650126728977,257.63291481484976 274.3782008205784,258.3670763271514 271.1687758402875,260.75762788286784 267.7979853191393,260.27391401346597 264.6093488812477,261.10932030198103 265.3579015623846,258.1455269771626 263.77523821400564,254.3025306278996 262.5848295666978,252.85195430627107 260.55491642833937,254.1421699986031 257.19587338618567,252.62266731892873 254.5938710991313,252.59828168260356 250.88723159426377,250.87914510744315 246.2307902269742,253.3422494551004 241.91796226431842,251.94337465851424 241.81498404545266,250.42042533263293 236.59415491932845,244.85720313758327 231.2063520913089,241.5988393696431 228.62284291437362,237.36007839522313 225.33394504302248,238.34565978650926 224.9327414951596,240.95929932029992 222.40335870440092,239.96859529533765 221.29648085943197,241.0449233947296 218.84564151511765,239.82946865604765 216.09698021213674,235.08380657585644 213.48871344521254,233.5453387232933 212.86165674103881,231.67334268122875 210.98245543919302,231.87378696566373 209.5421725912008,235.73500976295793 206.57695172890107,236.78832569532665 203.41036544539764,239.16260017107527 201.0236310181959,236.90024862165603 198.86786044381392,237.2961345088678 194.39924438294014,237.12386126798583 188.33794916623464,241.1386286048156 187.34281189406428,243.22930204670104 184.1104094429785,242.4357253923606 182.42743887180734,240.82644539235105 179.6418061396181,240.66863549206528 177.6541567918411,238.59510576907041 173.52820519132925,238.8956848979252 172.63946978641022,243.13763098013453 170.72608834816094,243.63086665886817 169.8423173519499,245.0707142832307 167.23570330902365,245.21500116126833 164.99878980215308,244.01667153032895 160.1337780756688,243.06289547806114 156.84887312134944,243.81240954327393 155.4291914561491,242.7588518251731 151.92096582568686,242.36205159686426 150.63607115358414,245.03334879856004 147.96013726406224,247.4724024170589 147.09765989922977,250.64803580334853 146.7479679455168,254.510039161873 145.5382111929348,260.1356278968972 144.51715101205895,262.8055263526022 137.13049456804978,263.61877206095346 134.68877369732078,267.04158722913894 132.02140266254344,268.04778934010335 131.12806212226442,272.92143822163644 127.60932769108157,273.2035178148384 122.6575597619741,276.311291957392 120.3440853699581,276.5632064036189 117.50289734179142,277.9069043720027 115.79655843733855,276.91500812162053 116.1549900592236,274.8190843727533 114.46162849281255,274.44598534799684 112.2732549478273,268.2269883401476 112.75513510730704,261.21498196579296 111.0279138956495,260.2738297410368 100.37979604247285,268.03420955615513 94.47122985426742,267.16566499538226 90.39834986631675,264.1696478687071 87.25790501043699,259.8864703886128 80.27963902163424,253.32699445074275 80.2366350748665,251.52982833572275 78.82393315165558,250.28129572463297 76.21957650612316,249.782811031331 74.53206660851303,248.0884920472755 72.5537897968342,247.8598554896064 67.4529923267516,245.65233899395741 65.13131069327703,243.59784017840366 57.16993337870667,241.8967269499709 54.2469847495386,240.9432746474614 50.946960806472106,240.8034977200648 46.25238714033094,238.64219735522124 35.07600796334876,238.23057104273698" /><circle cx="394.7289696353058" cy="617.3937796940212" fill="rgb(100%,100%,100%)" r="16" stroke="grey" stroke-width="8" /></svg>