<?xml version="1.0" encoding="utf-8" ?>
<svg baseProfile="full" height="1024" version="1.1" width="1024" xmlns="http://www.w3.org/2000/svg" xmlns:ev="http://www.w3.org/2001/xml-events" xmlns:xlink="http://www.w3.org/1999/xlink"><defs /><polygon fill="black" points="962.0573766267814,144.02291066249813 960.7672026796898,129.8425012224983 956.5585381537651,122.21706599169443 952.3870516233642,112.71663893145012 950.0588157599508,105.14107339360828 948.4235111806892,95.06539079704669 941.5030747268015,84.60678555716413 928.3859449230035,72.62534937419548 920.8845241882218,64.42733976038846 913.3772040413816,60.00518101902378 893.3702106985695,45.481775137142904 877.0963740801548,32.87263496340461 868.3353175141452,27.201418207900247 858.9174095317891,25.281056315542514 851.3851942579245,22.74783129796333 841.9723200710065,22.738233066362 819.9816512869952,23.949203582546488 799.2552759007782,19.513361097021857 781.6735117890664,14.499118314082466 772.8710187138987,11.336924491729064 762.8116801774302,8.818714819471097 749.6154816323839,5.046281719392368 712.4947078485128,1.2732006764974813 703.6934290808183,0.0 689.8535854361082,0.6354011638402426 679.1374144809257,3.780502342811019 671.5837482906422,4.404089858784232 661.4899287074396,8.179195524029183 655.8362974996046,10.682454055249877 644.4716964426975,16.334206734052827 629.9843804326432,25.112786473416463 619.2713517932119,29.499786215777135 603.5109179293903,36.40432961423096 586.5333042026197,41.40938483968466 572.709919816318,45.77491996474453 558.8527005913862,49.52687807271502 534.9874913632327,57.62455597065332 516.7653311881818,62.60831157397615 506.11235840444766,63.19726522426856 470.39194033527497,63.0591282022383 455.99077345181047,61.73044440975502 442.2180254776611,59.78459612005145 433.4594936215636,59.725638584798844 409.65962438940466,64.61636812342022 399.6499483750465,68.95859723294905 392.74840705476777,73.33059859049297 388.3727655473561,76.42705725180156 382.7023047006488,81.42052713845635 375.80619948465437,87.03465009980664 363.90283729866746,95.75944027012349 358.2363684238728,104.51294343955385 341.9244077192612,125.15262939359388 335.00779344517576,131.3819658794331 326.24575127573354,138.86667975063244 314.3229062418412,150.0978617093408 307.4470051494349,153.82855375302768 298.66605138940247,157.55360258669407 283.01575504592324,163.72452978504157 259.23946814519564,169.86467641470313 245.46268606608106,172.30684946523388 227.2849798347503,178.5122293347656 218.49797624602175,184.117921149219 205.3193741714211,196.61986304922186 199.64664324774003,203.5145619129296 193.35124123996286,212.9008015076363 187.6879780237845,219.7954625112843 180.73926293020298,232.33046757957186 176.96886971190204,240.48194230331057 173.77921691167472,254.91298657075515 168.72449116596286,269.34671819129073 163.63748696607945,283.15670857635746 157.35134213280506,296.9531902669777 153.5335072244706,306.992923725738 147.2285765330694,318.90953875256105 142.1754442909086,327.04453162686923 132.11133539710897,338.3311252811736 123.92906333098242,345.2318732357685 116.36116403272355,354.63035112232603 105.65621363398247,363.4168296029221 97.45552094394252,372.19230997752334 88.00250966443366,380.96852066554766 76.04356121425306,386.60251033532154 66.58876574555826,395.37767306924695 59.03829072796843,401.04110074189043 53.9745389330448,407.93926717615125 52.703018785236864,412.9705694506428 49.53777804017159,422.38353495579605 48.24458545535768,430.5578920367873 46.33107166666463,439.33906406811013 45.03511899683963,451.2742726735067 44.94076093674472,475.779304236104 47.398246611561376,497.75210184282275 49.25794113819713,504.6659034940698 53.61815192538015,516.5978661821139 64.22407851421927,541.1074997794545 69.20901602583008,553.6857908653194 75.45431582094528,564.9875133366538 77.9517766919349,573.1597950210103 79.78504073346984,584.461368660774 80.38014412301725,597.6544496808099 77.83544091574151,610.2163145766028 73.36430795329983,623.3900503370871 72.7204914374851,634.071879523311 69.50839451484016,652.9010654279372 65.03333404777952,673.0092357763739 63.75315283395306,682.4266592663614 64.35843924114295,691.2200525482871 63.69757760734148,700.0140570351475 59.89344903502099,711.303756819104 53.57452888440229,720.721488542873 43.48263262829837,731.3976908316098 14.494434040454665,752.0998803165744 8.197679518517301,755.8796915744313 0.0,757.4320959063707 5.021315714897443,763.4374898126647 0.9378154572021826,792.2825103804165 17.45699352944427,802.5125972740434 54.57282141043352,802.3570512163523 99.9058292188108,826.9249733848611 165.73540306490563,839.1724287044372 225.2921488326151,861.8187039953751 286.87330494583847,905.1371108577969 315.56869475867967,905.1915254684382 364.78232380608284,919.676228975071 393.50154737307685,921.7568660922145 420.1656552207379,915.5997150496132 434.5307355625367,917.6690608507442 487.9240575129711,901.1256391474205 504.38277929789916,903.1811869351795 518.7769367194512,894.9022166503745 549.6539174556228,890.69845080062 553.7658693063357,886.5670887560404 619.7245707115546,880.128618897669 656.8315337618924,869.6670911669154 685.6831376003977,844.8074162632901 698.0353109136038,822.0933232529628 720.7068202096535,807.5614333471666 761.9687474706044,809.4693898039263 797.0049193691397,796.9661870628119 819.6397486783508,796.8878754829209 829.9573616959887,803.0513745925984 848.486478706648,809.1908567089542 856.9911085895621,821.3067306223212 858.0904762063775,821.7268794662288 864.329681800642,825.9004118473601 870.5335626355474,830.6541925344821 874.787924881986,835.522845713804 881.5777572331369,841.3057346914118 894.1471446506391,854.1697028642494 899.9967408844932,858.4746598944648 908.8817070871529,862.17574506916 920.1962465152924,856.5697372400284 922.0337178782053,856.5308543943543 922.6449227180699,846.3969891340554 919.5942409385248,846.8030377352111 920.5490229795669,845.3461784652446 924.2499952353197,838.0678061199407 925.5374231591982,834.7435469357081 923.8702669485259,833.7419140641593 918.7512214698993,831.600528655115 921.4562493383519,831.1556640095578 923.3838559513392,827.5156756641994 930.5004298841302,830.4611362074 940.9951410123007,835.8409305584369 941.9693064979946,833.2656089928346 944.1215560216746,829.5542579563769 945.5455650093271,825.6738703591186 946.2156653036507,822.9044605235058 939.2660806723223,822.6292780359572 938.0389834629625,819.8864624011655 937.6850185157416,818.1060915042254 940.0072941757647,815.4356267794279 942.9645440120036,811.3989032412005 944.3196586708518,809.0195721378592 939.1682213400977,805.3586926857464 948.7609793071216,797.3442265011666 948.6048497034515,795.0752081921001 945.2507624968727,790.1293526397179 945.0319575791889,789.4520252549466 944.5157690544277,775.0531133491114 936.1149938281379,756.173353993747 932.6026510938832,754.7553058792915 926.7747414542144,751.7762839124603 936.2750869934029,747.7859432015188 935.497755038844,745.8468569421555 944.8707401415321,742.9251410933554 946.3205972642204,743.9952400779581 951.6329190729659,731.3763645586961 954.5350552621787,733.5823260285374 959.2647681326854,726.2303562288785 959.6206490265928,722.9978562313711 970.785269022578,723.7695328324912 971.2414261538537,720.605330807228 970.4671569100562,718.115283703259 971.7195908656371,717.7296136248502 972.0329156413156,715.025301061136 989.0411837752097,713.6431246196864 987.4863718664701,710.9199212015592 985.7187327897615,708.6247007236934 985.2347103666383,707.2059173318823 988.5883820776384,707.1766308635598 987.9382936612725,702.9511511360139 998.7105766689278,700.2288075641712 993.7795410963662,689.7794604050653 991.8160323451306,687.5699325102494 989.3025747606995,683.7452692548449 985.7416795385633,677.6898011820406 984.3751465195969,674.8724931222187 983.6596678219033,672.4525085716699 983.4225827190743,667.6421674478753 983.9820555586547,666.8553123836884 979.8691338370589,658.5400665384005 978.3424426497934,654.712300833105 979.7386418433119,652.7177155260874 983.0591167449694,652.3065872593825 983.8338050416379,651.4976556675579 984.1230303341736,649.3356983533228 986.1158402292734,646.9829317544817 988.0816990339009,647.0591288672153 992.7492637483803,650.3229705856006 995.9907469995641,651.9197327760055 996.9576541221516,650.7535298873022 997.9199730080754,651.3724206812757 998.62935934351,650.7565146486133 998.8276077688092,648.052067452782 1000.1822223579494,646.8844744217607 1005.6873374926449,643.9300620601543 1006.2948139292024,643.2183742602758 1007.3236327542885,639.1194396649316 1010.9919894949984,633.3827347373411 1012.4110885108475,630.3546634261877 1012.8311196586214,626.931728661423 1012.4805352178272,621.375498859257 1013.0917616559273,618.0587447689509 1013.0189267654981,614.7607576849805 1012.5739790460842,610.4965380544811 1013.9940524039619,608.6887888515223 1017.532361839869,606.5054800710202 1020.8143352814769,602.7965849526714 1022.1642631487952,600.4468278653711 1022.7718835850385,598.5367358009098 1024.0,590.4691196753116 1023.5838132055025,587.1462312176645 1021.1026540248506,583.2322372818212 1020.5237198425008,576.9628851768573 1018.6596395793332,571.1856074715349 1015.7290418201874,568.5273571944239 1014.8285265986534,567.1093197302943 1015.1823499996691,562.6509076801799 1014.6336267498768,556.7744018915746 1012.7099843263373,551.8237266909068 1012.3534967386864,549.303003570562 1012.3250863567349,545.5618476703569 1012.7664377127692,543.7189771399758 1012.4795431681006,540.9120328504526 1011.3583225803743,538.4848421874544 1008.2365007060181,534.9935365005733 1006.9505865084989,533.0805293781498 1004.33824069983,527.5285860776594 1003.2451449969191,522.291190658045 1002.1617635181964,520.448969829548 999.5775864072073,517.4726384684009 999.6759808547012,510.98134417247627 999.2662406175263,507.4281531920613 998.6494760704664,505.5892417517498 996.3629925772235,502.1266145328908 995.1520319376889,499.22264873291346 995.2016077444639,497.22474740262663 991.6853350177441,493.64103224169963 989.4031050503086,492.1144675579669 985.3676821145499,490.5717012221042 980.7606263503304,489.9908724962497 978.8499018677738,488.6050470883514 977.7107583263166,486.51171183833185 975.4828353236373,480.30792734092427 975.8615397676518,477.39680329376273 974.8146115972394,474.8669704689035 972.9194095636925,472.867177666676 971.3020337615587,470.33405861064807 971.0160895645558,469.19160271909874 971.4474413163031,464.92434823513906 969.8732740587894,461.0814581348999 966.168765770043,456.1624452491773 963.9386172877605,454.1623970454007 960.4714505445384,453.5848096385652 959.0459134489404,452.3863898379848 956.1481929720891,448.61169213201606 954.2927646333633,446.7059100249887 951.8231928535722,442.8870114427594 951.5819318524912,439.886325424007 952.862809201191,437.54630936779637 955.1514639814926,436.36686594914147 957.1406046399918,434.17619913912296 957.7138941687639,431.9857151521278 960.1855048045949,429.6480445732795 964.700124277636,428.617426893905 966.0762899607381,427.70298364476906 970.7830205050916,425.47862461905544 977.3877846311642,425.11416419285473 976.9630732000828,421.7743929847065 973.8757764098369,417.76213591756243 971.5485084640396,412.7486507120842 968.9301832602871,411.22432894619556 967.6510058704575,408.26355028709156 966.3617756060312,406.53930184747094 963.8478369170546,405.3411045127682 963.4623528359743,404.4402008875775 964.4613161587342,403.5355375463338 965.3229728010006,404.5415870349126 966.1755543220313,404.1625250159676 965.0361999884627,402.10744636522065 962.5649722268327,402.8655836824287 962.03663766085,402.4327840925189 961.191324410182,399.19486023645015 960.0007610049977,392.7040924631797 959.0472012967314,391.7971769767554 957.0098214798533,392.27540977997046 956.6203204270417,391.1220906474856 959.147475465704,389.37271275341834 958.4284244293732,386.4176484445594 952.8714290999997,379.58427078958584 950.116336223825,377.81213798779766 946.8392849154404,376.1886493918637 945.8381511318045,373.95041518368976 946.9350523701747,372.0446075139397 946.4548260680583,370.03336327608577 943.7914025108785,369.17663155039907 941.563186094567,366.7402333879246 938.3307150453682,364.5966456552476 936.0039976237609,361.20060431280456 934.0942138875616,359.4330326866029 933.1893357702706,356.1934276584112 931.9577901649268,354.19062027853977 929.1078869420553,351.4147739605162 926.7252474495858,349.5062939303556 925.4473133619276,347.6969732559022 925.062896059943,344.7885681815129 921.9216214978984,342.6826055298825 920.4559152998781,340.73137943282086 920.1626354970253,338.58490260912754 920.2664942724523,330.8539861945127 920.5490778440909,328.5657478111133 923.2116870825623,327.8624227749575 925.3073491415906,326.289119098127 925.593265468962,320.5702325935209 927.0624477225855,319.57619026855343 928.9186069170474,317.42913112361543 930.065439478391,314.282386106691 930.6738103169188,314.33338559984816 932.3890742888638,316.532162302356 933.630495300497,316.4811915051006 934.8656995784072,315.1082277461155 938.2365519454299,314.1976714759254 939.8983962967656,312.8189669364857 939.473316943151,311.1079897983233 939.5681339435439,308.581904300171 940.4696774738906,306.24341545081654 940.5187355258334,304.29481939196955 938.9955271118894,299.75896024152803 939.3824586632472,296.9522799639109 940.5218307112817,294.0905023854939 939.7633580735288,289.51082179151615 940.9495199427341,288.4245424545155 945.0867199946615,287.71143748453403 945.9836717036616,286.37652270885167 945.0867964762273,282.4159065924508 944.853263087474,277.5587615209945 944.2253169484823,276.2238754426853 942.1359186829918,274.0239978481346 941.2809625270787,272.453023408508 941.1427818470728,269.01882030859247 942.475069587543,263.77602046743857 943.3304411359759,258.05774425839127 943.5658929378387,254.81942983444333 942.049881939088,249.18952874373406 940.8109784255613,243.46237818259397 940.0554773378657,238.36443306466015 940.3824130714456,232.98387072585967 940.7226519003183,232.0271222568117 944.046315373877,227.64348964854344 944.3750012754675,221.44573545821424 944.3278834079771,213.24205320595388 944.757545588696,208.23703623416145 942.6254178413284,207.76648396372775 934.9656966713565,209.9427641739669 933.0205320773391,211.7036493399561 931.9257014930506,211.16591705034125 929.873519826163,211.89292365285667 927.9740018736211,211.84492283868963 926.3170967857526,210.26180242954842 925.9823203776759,207.7933953320753 927.311129077897,206.31318269552355 927.218412033209,200.35706597576973 927.7887251371006,198.6903867162007 929.737063982831,195.1553023002475 930.2115350339784,191.68443183396403 929.1225318776326,186.15014786788709 929.1245565739022,182.86204669511142 931.6393647544344,179.8595842090583 933.1625827788126,179.48121631398442 939.5369570298449,179.82858646475756 942.9104326433395,179.54067425035544 943.5743236640135,177.78307217017084 945.664579835582,177.92074979650658 947.5239356669917,176.74172364677145 948.8068531482265,174.59107395588615 949.0928749679898,172.9747747666346 950.4691193975555,169.592386322631 950.845349436332,165.8776794758977 951.4669335223953,164.640044961419 955.883764441026,159.96839050235633 959.25897523683,158.27065250251542 959.4337141946868,154.6249194224779 960.2167185503469,152.58505165598217 962.2560157079986,149.44137709902475 962.5728432249759,146.92359019778633 962.0573766267814,144.02291066249813" /><circle cx="801.42283861397" cy="687.8469180240105" fill="rgb(100%,100%,100%)" r="16" stroke="grey" stroke-width="8" /></svg>