<?xml version="1.0" encoding="utf-8" ?>
<svg baseProfile="full" height="1024" version="1.1" width="1024" xmlns="http://www.w3.org/2000/svg" xmlns:ev="http://www.w3.org/2001/xml-events" xmlns:xlink="http://www.w3.org/1999/xlink"><defs /><polygon fill="black" points="787.7526752454146,386.49299004715704 793.5095111623825,378.47653216617124 795.3041183018835,376.31092925820104 797.0719217408308,372.7860200781118 799.8312256103286,369.3269430414572 803.5945482876945,362.90736924601725 806.9811055624978,359.4358068317509 811.7592663123592,355.944949919673 815.0537915569874,354.1479942270972 817.7775204335014,351.60549586088763 818.3854953712456,347.89765788624265 816.2376429515213,344.0078787240877 816.2285196050714,340.90030676335215 819.2780504398812,338.22274024442356 821.1420599073996,337.6289811538498 822.5438008283127,334.99064409676373 823.7518628016377,334.58509762984386 825.4990844921545,335.4056801203758 827.6069007022387,339.34911719483455 831.847060263053,341.09752262674886 834.4655169169727,341.13775292780747 836.6744247066637,341.81153297257083 839.9567916391602,346.19720702574494 846.426147181271,346.021972690234 849.8406026685614,344.6095445227876 857.1262202768762,340.4396028521755 861.5333204730691,340.20508121283405 864.504221915364,342.3738327311041 868.3729980252855,344.0438575877671 870.9272395605466,343.44949263849713 876.4265282843163,341.19895522641207 880.8308095643906,339.8484678493823 882.3130718167342,339.7416753662063 886.6849120916908,341.32311723462993 887.6712808980216,342.1735344648514 893.788032019226,344.351760590602 894.8713667477069,343.90922384081244 899.1101734976371,338.590675971497 899.6984981324305,337.1660677358239 901.7983030653925,336.04556332258755 905.236965070889,332.4310555253599 906.2648796160752,330.3556647358567 907.2602446236203,325.2507168735838 910.2250358702321,322.17297935436557 911.5176243010777,321.9090644640823 916.3609806753124,324.3563191551021 920.7562760175932,329.9263622191817 921.7808299384421,332.0495949753154 925.2096989477874,334.3278579736843 932.8039860960475,333.2797746385783 934.9205114042388,330.57703222404814 935.3594280091755,321.7735802052727 937.796857628317,320.6071127482214 940.7169236087133,320.2994061743151 941.8517547721566,319.42771675669223 943.1467134940865,315.4610650416098 945.9233905018388,314.7520961078061 944.8545106959292,312.03557314713095 943.3330064703138,310.27440844997756 942.4051288946677,307.88346331915864 941.1602800122915,306.53701432512446 938.1468883727706,305.3431514128373 936.7723077476484,304.17487569569624 938.1148619949587,301.947528532848 942.5039932029889,297.7169356651996 945.688430553746,295.9082381788622 948.5372355697684,295.7008566979027 954.9672675655376,296.30805806370756 963.3953172225766,297.8017592146121 966.438675005764,296.13950232471683 969.0595536865723,292.6175375769162 970.8123657583438,291.31946609493554 973.1827730491531,291.37395695622007 972.3818556938451,284.54807251987353 969.8468515900335,284.95531751125594 965.2926197403096,283.92012278664487 963.29858935191,282.6748618119067 958.0716815230447,277.26755144149837 957.2621009463576,271.84698631306486 956.6292852001499,270.6938345190617 953.3182812041998,269.4851452905711 950.5233456852397,269.2565896234812 948.988363627474,268.27632474795007 944.9076179918522,268.09782313410415 942.6127823125136,268.6130074487316 938.9608928890908,270.6453273133253 938.1730612143472,268.4886805912466 932.2635893654069,264.68899387068456 926.8548178238976,260.64934998349656 925.7534168718732,257.3028899854455 923.8801597220476,257.30496823659746 919.8200573373518,254.6703785660834 916.9576110166126,252.23070365021476 915.2450766949024,250.10938677733816 911.8853956566643,247.45142962472744 909.1473433084823,243.06531593057855 907.0598487234325,241.189105531593 905.5020335342376,237.09858837772447 905.4812784928735,233.68450399447067 906.0475297216049,229.80071965817547 905.431260147975,225.47751656347077 904.1860683234952,223.9954447354703 902.8211582024647,224.1457340982555 892.744358211538,228.28249734608335 888.7700946035875,227.64152012428906 886.745929521134,224.8035210896279 884.3657805915758,223.13827436997644 882.6415346305795,222.8311408121017 881.1035953621871,221.56029992840433 880.6984897349797,215.93059741546028 879.1446182036525,212.39670784619193 880.0832497901146,208.56824343045628 882.2508432656406,207.4570911741157 884.5828967957365,207.35542243545342 888.4642377782161,210.03962265126756 889.7079295079353,209.50318337391525 891.0270866034512,206.6723983439656 890.9909064461114,199.55120693937897 889.1605673420243,195.12625591795143 892.3035108835296,189.06662822387386 893.7546154248977,187.6881712368986 896.4000897050313,187.83821461893513 896.5715660628881,187.202669570034 895.0947975178909,183.44922924967523 897.0853175535091,182.2879801228803 898.1989211381144,179.0587821676977 900.0973019320803,176.95541444137064 902.6176319731152,172.66115803831985 902.5168061034088,171.3001640820704 900.9533544112192,168.8133756418216 901.9638607213266,164.11038549336536 905.8445910746642,163.45736622195545 909.374584846652,159.8351880163416 909.9615371385968,157.95780399483442 910.4673767915572,153.7154953652381 911.8590910041635,151.52400857967325 915.0747703995162,151.0591613970047 919.5847303571501,147.6749178606442 921.709260043552,144.23526217564154 928.2483400705445,138.7749463492678 937.5727189675823,133.45960633072627 941.499061134594,133.59462117690043 944.1249940548361,132.95122990022764 947.1905639420711,130.35052347016995 948.1685876171707,128.13775236431218 948.5852813778441,123.71584954337254 949.5446715312735,120.6364632295946 953.8072182221697,120.21537000245962 957.5397888171723,118.58857252731491 959.7643007468803,116.56151008949462 960.2222318999934,113.59227352187884 963.892927171649,111.51781628590061 965.5165591600587,109.73254108964204 966.2987023448716,105.66112638372374 966.1680855557743,103.03285060670873 967.8288210898565,99.25460465335175 971.0396747129814,98.23952014769964 972.6782180827005,97.14601068706497 972.7413273498503,93.09932192817155 974.733689993989,91.30545793112788 975.9727597597322,91.62694142699945 980.4787184731473,91.60954961701009 985.7556788736631,90.30396638942841 987.8377463595367,88.43136465732732 993.1566832860843,91.20759924301842 994.9248870825215,90.88619203902306 996.8737609296826,89.46489391180205 998.042422884773,87.60642683337562 1001.311135840461,84.68744497965838 1004.8235095104211,85.22289156846273 1008.7451971098961,84.3798302153466 1010.9798182150481,83.35478050355016 1012.2118213232901,82.04159451010491 1012.7380288790964,79.93880463403354 1016.5894664804463,77.40874708736862 1020.3768827717605,73.4594146128909 1023.9165138021315,64.2250552818715 1024.0,59.87506670118489 1015.7709371292788,51.88285662498447 1014.8367443646638,47.89240664784552 1017.2356662738712,44.75191475813358 1019.9153050794706,38.246065453910774 1020.2400446336203,33.70385017620595 1018.6178553497765,29.21417123811193 1015.908273488009,25.600946466163236 1014.392892003003,23.023064045880346 1012.5328301406416,16.223424276548712 1013.0484079319795,12.809885666602213 1014.0122591609398,10.623000044801074 1015.3051417433219,9.370146314748013 1015.9331818013974,7.283137129836291 1013.8979961227611,3.503302043306121 1009.9969113481706,1.8930736396456496 1000.5850860621632,0.0 994.5084087497845,0.45874967434235714 988.3784901207724,2.2003763300336914 985.2995423623155,2.475360434588424 978.3242816689195,4.918738817862732 975.9521755353761,7.455167004075179 974.0269363774046,8.873004767768293 975.6019720662523,10.538189310669281 977.5961679323412,18.05666949882061 977.3157605839157,20.606941267907587 976.2130949273918,22.165825084474363 970.9943612426226,24.896384931591456 968.7161213808415,27.07383033837732 962.7001855984084,25.819048244148007 959.5305267495099,27.605528106929114 958.352558688183,29.037086610503707 956.4542748121378,29.413565119429336 952.4153330338308,31.781861302613834 950.0241164494842,32.59460126045394 947.4200778256326,34.953011337552084 946.4333525533389,37.170068703636844 945.1869220905022,43.89059109147229 943.0552460532089,44.423377343227116 939.9678568782738,46.2997663159822 938.7873174177065,48.11043468593368 938.7856161343129,50.830547794805625 937.7482223183649,52.64678491934421 936.1331748033388,53.837286968560534 933.7621295052481,56.601156350547626 932.6069112361422,59.13440233063943 930.9592945642032,60.249232468777905 930.4471295857397,61.71169649390038 928.321591682052,63.51326887547032 923.771502551561,65.62525616364871 919.9527288994775,64.57554514259789 917.905363691525,66.19321363390748 915.1603669432615,65.93305683726601 912.5700689967724,64.74929433268153 910.4514932971923,61.147352663034326 910.235458072578,54.38136181862467 909.6068031731735,52.814893740883235 908.5482000811239,52.71605422707614 905.7975557236852,55.031102157247574 903.1515640628766,59.39606759910089 901.1203843105861,61.7868549735191 899.8105933656082,61.967081902005475 899.0479785985062,63.715580076484684 895.7395629406464,68.82378743036884 892.006959288249,71.81381639944289 887.850058102041,72.72213028499527 884.374596731958,73.83579064798812 880.5094654944876,73.96260628693676 878.7050079264177,74.51705436948112 876.3500681488097,76.23801384493277 873.2947675071863,80.32173835956564 870.9043102114166,82.30993671072417 867.1490611233403,84.33333285433434 862.1239296325695,86.48179493913733 857.303975835038,86.13995874072225 854.7092930187297,87.7203884845369 851.0847352821502,90.64504377805406 845.4557269391755,91.93736231221101 840.4887649685742,94.49391028874425 835.1961824821616,94.65351070616487 833.5217837180039,95.06733543502844 829.0628683103474,97.41421659378659 824.7775271236716,100.76865784681422 820.2549316624477,105.62624347861231 818.1655440399561,108.45794294429754 816.1802919526492,110.33012023012884 810.7747656264885,118.93057891890862 810.5395598162513,121.07301112308346 808.634662931625,122.89727104062274 808.0346534856278,126.87186382354366 808.117666587742,129.54786119124992 806.4094068120548,131.46026513267554 802.1513845706538,137.44701096661322 800.1672476001318,139.45586111599323 797.4720867853022,140.31465491420818 790.2632804323279,141.98272696862296 787.0302008299544,143.17127925918328 778.0816743686229,144.67348915025946 770.7955581020422,147.1700871330521 767.3858118958836,147.18918619942554 765.1862448685523,146.5764913823965 764.1514694960575,145.61400200083324 762.6118697680378,145.70402949520178 760.1669579694214,148.9679251573897 758.2370846179696,150.12247857371358 753.2240103326319,146.7843214402418 747.1571601049427,146.44833872731692 746.4064002515685,145.8303573949355 743.120450194931,146.98721825576536 738.1654363877549,147.32913017195585 736.3238025149559,148.2606452122899 736.1264467586775,152.08396068726233 733.683790584936,152.75252028526052 731.2470942492445,152.06667118977464 728.7647426827117,152.827028832829 726.6383900121775,151.67813101258741 723.5898089409047,148.9638414104786 720.1407728156978,147.94578164667178 717.6782252716177,146.39224781094447 705.4780656658378,143.57500427458763 702.512531453542,144.89846385023725 703.273903797986,147.27340840886495 705.0579506453186,150.58191363347646 706.1696491140783,151.27734035113974 707.6817916486418,156.03685365877845 708.0251718788929,159.7439836405349 705.6710741025448,161.37656132376924 703.8732319371652,163.69927523953152 700.8960130239517,169.0638430651918 696.5682728664545,171.85007066888397 692.3880369420846,176.07165298223197 691.0333060930208,176.7502243850954 686.2507749842275,176.49876032081625 681.8670938806649,174.35959938118253 675.9286207327242,173.22960777183107 671.1580635187033,176.05960158056143 669.1157693448251,176.20890627112533 666.4651612841632,175.61447856768757 661.3181285564503,175.08541681471286 658.619138594101,174.06601706344156 656.9417200919207,172.7164935798644 654.1664084094663,169.57415891412484 651.2276504954522,164.0683397331801 653.1769153191656,160.8772503315547 654.3908740674656,157.94217904634036 654.8884674819291,153.33805009623165 654.1494351615079,151.54002138751673 650.860727453282,150.81918205241425 648.535946196216,148.78105805097323 648.7675722740482,144.19732924701702 645.8068302306891,141.57686893657421 641.9926888142024,141.32153992437236 641.6336356521977,140.73381849539646 641.5878320209857,136.14840917412675 640.8589155362381,134.92075503073158 637.9008393072621,133.6158796253078 634.7127077807334,131.44791907023 632.0200955683548,128.19928503054723 630.6615747572249,127.9708932853082 630.2598583683036,129.14826331003212 630.4368487564035,134.91096153276226 630.3606151720478,143.3479110351442 629.2594291782247,144.47646410905782 623.2974529461004,146.0045669383909 621.8515721063293,146.77349693567066 618.0186141916586,152.9531169433575 614.784209300953,153.62153495586574 610.7781476535936,151.70838075310826 606.6859858607174,148.86056175405918 604.3578462452107,148.41852072063818 599.1307350930505,150.39583325250578 596.5783698814973,148.09343970641623 595.2942868489107,146.14386479209554 593.7017755313072,145.4619308837497 590.5328565288586,145.0707574420128 589.0269160534203,143.99841896590613 586.2006107664969,136.0106834530476 582.8107983584009,131.34852318052458 581.3417270300474,123.4020034464213 579.418280522514,121.18907852324412 575.963975880783,119.5317064796177 572.6546654309417,119.91009500906455 566.6595794337691,123.21952931472356 563.6186013510134,124.3837725651232 560.653340567083,126.49752959569025 557.9538053991362,129.8849080362827 556.145564258579,131.16724669980317 551.0887778724632,130.11848003691318 545.7487423377848,126.57106952333743 542.6336342101822,124.20026458642178 536.1344418783876,124.12183690196298 533.4098953853558,124.51228209255885 529.2968010619417,122.6412890225829 526.2725045194092,118.72460992403126 523.8172760452088,113.65894431136121 517.0664884797977,106.77166161080333 514.5391930204634,103.0305219411573 512.668152815468,102.09253518276728 506.8292696853234,101.34023017550089 503.7808189715226,99.83315225651847 501.3885226288126,96.88082105652552 497.69543972916733,97.59456446482739 494.674811252137,98.76997924385148 492.3482598706415,100.3909908138395 486.19889625172755,100.15846391335879 481.0858131310291,96.96165758673237 475.35008490481573,96.94286179801418 473.20693444242846,96.25024632239194 472.7587916752988,94.9953227501885 469.4886646726446,101.15772614448747 465.56220054532054,103.69003403993065 461.72908566632503,106.99538467517311 456.7378047609406,112.80177780195436 456.53613999070575,116.07348210337398 457.0190825200678,118.39310651389019 458.4776561854247,120.78366546384086 460.7711324066095,122.63827995422866 465.3308871677214,125.05478554265483 468.09759082406407,125.48125878940107 470.53700819308676,127.44778829718086 471.10275443720644,129.78204855378215 470.75716133955103,131.54311805506256 467.2693618424004,131.7123277160257 448.32513932587847,136.80535013836243 440.50877103169483,141.1906840715045 440.2289592102683,145.6894526136357 443.9616676376741,153.0263287292105 447.12200033877576,157.50245116730582 449.41553346554946,160.0360855507455 452.8876644437563,163.14748155503253 455.53102539695385,164.9373330816975 458.00680281827977,167.24042515329973 459.697484903847,169.9944966469419 460.50303420494083,173.35492973391717 461.8452351015197,182.1650561678083 462.0187531266932,186.6530367708176 463.39537674799556,188.87239657861141 466.07756794486005,188.8970522104985 468.943687370975,190.3269665653985 470.1237409812497,194.72578270476095 470.2892471917548,199.3146502189985 469.3773154151935,204.04760399551162 467.31961859800265,207.654129214435 465.4411515071126,216.17065210245357 462.5805726174848,222.82743706716917 460.432538496905,225.16430609346673 454.7962968963396,226.58764882464516 453.69056008626654,228.4920454232847 450.9488433019525,231.09519622743653 448.7671447240226,230.95678085144982 445.2991571286695,229.99726578657294 441.9863485214805,227.53479097568186 439.51296180601554,227.88794437303557 436.7839257882502,229.15698360057422 435.866693046263,230.57048457305757 436.5296571168915,234.87346994846916 437.5981020833984,239.49889765939417 435.2254754240792,238.1514265236358 432.9291677429883,234.76093009240924 429.7829857146054,231.64008733701246 425.6249014305265,232.9358249660487 421.2721410228096,231.91724314124872 412.63314421911946,228.5617013168403 407.73402032176233,227.4054037631421 403.33559142364135,225.92976256469638 398.39876433394767,226.6460314158387 396.6377094333353,227.24641347971203 393.38078315473047,227.44699858858178 391.34319590852226,228.141891527785 390.06860225225483,230.70179081109166 387.3961062705383,233.30178890454874 383.91991056732144,231.53087840324372 382.01086390440025,228.43134985893107 378.2630802371204,225.46113843404464 377.1088895160797,221.83412781767242 375.4031050272692,220.20958952746662 372.63102595924465,219.6873784765637 369.32880495919284,215.16538593061875 366.2251172020963,212.65178256366562 360.3561582787467,210.9697923474256 357.9042105094853,211.3565265431048 354.46662631954047,212.7521949903728 352.09769548683425,213.2289716163259 348.7105962783867,210.07734453637966 347.3490805190939,210.55019094338627 342.328480707535,208.36934058524446 339.80467364910413,206.08419611785018 337.89452199989773,206.2353467210845 333.82342099808574,209.78359595718905 331.7645435941541,209.47992602150566 324.36674818840135,206.06812565042117 319.022961962772,203.31833393287104 312.6758237678097,201.8424157556683 309.9213823375043,199.9243695207781 308.9316376766923,195.89279198608847 306.83562670292616,195.91560505791165 304.3849685267255,197.31265066878314 300.95192203771956,201.07940286623057 295.1771090327766,202.1006665817955 292.7680013029662,203.62611022679607 287.59565887193986,205.3250381311691 284.6728647489163,204.90659473272876 279.7849675263242,208.26906989106203 277.762120263009,212.43234951371494 274.69109570317835,213.64407031132453 272.21956044527195,213.2124052734789 265.15837622419986,206.1584672553181 262.32507502723575,204.41278734111688 259.5986271488033,205.117927194221 254.7189800106047,203.28686825204954 249.447288153466,203.33122389780806 242.6651007718044,194.9331945016861 241.28493300435457,192.5033649456226 238.67870524920352,189.68228865798108 231.86530232051615,188.48464065767166 230.34820686821539,190.99559202682224 226.8272730088144,193.47238048925283 222.8821704054733,193.50174365986584 219.73390314908985,190.88253045706415 217.6608581118428,186.7620940290833 219.79511740317997,176.56753718440245 220.35125467413303,172.385189527203 218.55325109426886,169.03192336872428 216.1364637203098,168.6434373712342 213.93749756906698,167.43946587581513 206.84713012141378,164.76556196965623 205.1614991525542,164.62940769313911 204.24781665236836,165.81691669948884 202.92580234487974,170.63690411895152 203.38907675968184,171.88011119898738 207.06499968825648,172.8360927898035 208.70497881385378,174.72313115987595 208.166686521874,176.50873965263554 206.1206744014818,177.46303674260935 201.87234451026464,177.89766998921834 196.43240271634417,177.20081755544697 192.34601389789825,176.27876272774301 190.12772368673518,176.32861903046228 188.15365463672603,177.23640736289235 187.92520171626967,179.30077404333326 186.75264518596256,180.30776468280249 183.81956185794138,180.8278702345283 182.24507874584202,182.92698493836542 179.9499432857965,188.28889274127857 181.4372899361397,191.61664858737095 181.26878155371787,192.2576865035121 178.7632895548597,192.47702379068153 175.8452482381686,193.65916019258043 174.21302854487118,192.60829967708003 172.6421040498503,192.7130136002629 173.47200197246076,196.09260682077388 171.75408004470128,197.03570537065377 167.9617823136242,195.751530539339 165.49216152973608,196.5333761349408 162.9787254439377,199.41668561184167 160.61759361346733,198.5151782483439 159.58580565175856,200.4345385733991 158.7994804363851,203.4857550821098 156.2757208429662,205.27301514371254 152.9110592381534,204.75242728033038 148.32002744738648,205.07163204179915 146.00588171750243,202.31156622575088 142.34486208616707,201.97606708959006 138.77092954672256,204.7826888726196 134.278481314356,205.8538175560808 128.99905354917834,206.26816903632334 124.97130053142163,208.98699850448475 124.51180336010607,210.72591589516946 126.28617867749794,216.84112813243587 126.32719543053788,218.17308312542036 125.2569877728651,222.04169900601755 123.30913936452865,223.99838925596123 115.71927465433632,233.1266375870257 113.38069281913847,235.21606050830474 108.57128292930595,241.06270277443593 105.33914956943022,243.42582618266863 98.79642281294078,244.44812312441127 96.52737110570344,246.33082641931628 89.9677376885624,250.8570293709871 84.43853980160199,252.91547935144501 79.50290829301832,256.0127023981224 72.76917782218416,262.48132730119084 68.17347776634803,267.38910973843866 63.36931998325692,268.9764459308052 56.55260120361148,269.5775869836297 52.713065192858146,270.79114654732535 46.70835720633053,271.3398534834797 37.686369633444485,271.40448395962983 32.2520564634779,272.6646473527901 26.764854111145606,277.15636967448773 19.676882158768784,280.78104115199756 19.24993627808163,283.4662264913272 19.02567449080816,289.0550484184731 17.32173774166497,291.5572805374557 14.666447224978702,293.25804961621594 8.92191034900487,294.78518417974215 5.0907455508978146,296.16371986501673 3.9789990653788307,297.91636122928554 4.506084430163935,301.95363602653555 3.7619477985345324,303.27732396909886 0.9655526653444109,305.7177355189503 0.0,307.9796648326636 0.18182074984286337,309.1989756325227 2.787868037406545,313.1802412073812 7.526532092413539,317.26437406947196 7.658115738837918,318.6664395960004 3.325787932986792,324.63219421477226 1.6775424116334745,328.2039671342858 0.7364187636630023,333.0071522026208 1.2260166957041363,335.82749615401747 3.016368510313842,341.11928363892474 4.9856189279946515,345.1214609635747 6.386584429638356,346.95275818142017 9.018939870186927,347.91455284618 9.407427792282416,349.2096156020399 12.17783250968661,350.894894635439 14.15610037053825,354.55474382995925 14.47100653261804,357.3228249486586 14.226856268058556,364.9491954713339 14.942922405705772,367.570543321497 16.76585078645909,369.23887616701535 17.54609861494661,374.00527680970544 17.938194126461994,379.40788855478866 19.05437281989408,383.463760788986 20.549166072443008,385.2108636548151 23.643157704565503,390.69031061974215 24.588048739271034,393.63231451365647 26.61946497582511,397.09465439476867 27.979028778163944,398.6218048509329 30.037595894549042,399.75512911533394 34.6548363410213,401.139377226999 36.01301826838162,402.3918237775755 39.41560758193688,409.01586933765765 37.42295854328868,413.6642338081404 37.339878499411,416.9114843994794 40.69017983381975,423.262831690481 41.003715453157234,425.5602564233066 39.57586059943583,428.1826925662958 37.50336565555181,430.0830729454792 32.831106576846665,431.82309674462715 29.73185399921065,434.51651086118454 25.683751910741403,437.36775229298803 20.35288172294549,439.54706847904725 21.017536760103404,440.2921629917394 25.28997715501026,442.20763175805564 29.257113967792904,443.0860315740309 31.474778564299786,444.6856925075011 32.49903716877946,446.82729767424746 32.41752511531882,453.8139307993798 32.89768416051221,458.09949293782296 35.0279042300778,465.5637751679853 37.24768187052111,468.9833341400768 38.9209504265796,469.14123629722883 40.50446357534101,468.11426722706835 43.523701113976735,463.9823391030122 46.69360716669242,462.56282503272655 49.951848127860146,461.99947990635974 57.338366865754985,463.03743581733863 61.469898264192274,461.9250700480455 63.77986977092224,460.01356813055173 66.79903383766721,459.2985204275354 69.10177700261389,459.4505771680963 71.96721094513047,460.48661005834424 73.96053239946463,460.6413546728951 78.09245650412984,458.09009885663517 80.48603362192111,458.00543614604214 84.6992105640195,461.32459733985513 87.40699297396748,461.80239794150623 89.47437645105829,460.75641775770725 91.8625105756752,458.3767001933589 95.12891591425706,456.2207204845417 98.07975083781216,456.13850201254274 100.14821473501917,456.6893318891274 103.7304332750032,456.8395085635194 106.20108623449583,455.94947496934486 108.589584771513,452.36936441492355 110.50250785046795,447.2874978757982 115.68766632696911,445.20815635321355 120.38292817085839,443.84299035710933 124.7523804081852,444.47467420105147 127.22412579368833,446.5345794655951 128.8082661970401,447.24839609647415 133.5882976443194,446.20286687196875 135.81090944610827,446.7583810117143 137.80196657541165,447.935321610481 140.19919715445405,448.3678995854089 142.6506405903191,449.1276471631486 144.95141352012254,449.0482257863377 146.22136326945278,450.39091697142294 145.4237542251803,459.04358940227064 146.14124401036213,462.3100632068304 150.67477956031075,467.7024462119631 154.78765630680536,470.7889610446383 158.444458421099,472.3039273577946 159.47473798735237,473.32775202459345 159.07514876686287,477.46097811303065 159.4724838127833,480.55457209671334 162.56892024271443,482.9387652208285 166.70118216940088,484.44930023471215 170.90276955696058,484.29905081495707 173.67742770360744,485.17066409186776 175.18015442499996,487.0011385436099 179.22805206140086,489.3914688032074 181.52513941674977,489.9454498646614 183.74150069440253,491.8616184247547 185.17135327173267,492.41579516576405 189.29313582070284,497.2685086590183 191.43389277979625,502.352556345608 191.42118689848306,506.7984318408951 192.4531006742711,509.0229834616324 194.28055922646666,510.05588470878956 197.28346684515154,510.8553754483271 201.569462389948,510.7101659793118 205.52912862110128,509.91693780720436 209.17545245844843,509.8538869461041 212.89849487435993,510.3326423406401 218.9225650493414,510.42261987668815 221.6990764002159,510.1906557555904 226.45479486887666,510.5899470430953 228.99427510674903,511.46912797328076 232.08423992977194,511.55508711790094 233.59772283981272,510.9972476450581 236.45257267169941,508.1469637769999 240.34085990164223,506.40305878448197 243.11859682718932,506.3232069531089 245.7398144097794,507.11597850111576 249.07459314713878,509.01970785725035 250.6642766474277,511.0014054111775 249.6311796369267,516.3230263177479 249.54266579883588,519.9738883688864 250.73507771480374,522.518855020486 254.54736187997787,525.6118214217723 255.1026857107195,529.503140476626 254.70437838697117,531.0836932905461 255.17874233910612,534.1029780506942 256.45493739043945,536.7239791250943 256.68113634796583,538.7117931521618 259.31000253338163,543.2340608133337 262.1717321184762,546.1685354304334 264.24046003465963,549.4178654074466 265.4264205682149,552.2696910892341 264.30669287280267,558.1470424727858 264.7876126426077,559.7355475811446 270.5961937938892,557.4254241027005 274.17488299694776,556.5473767925346 276.8053573412414,556.9340586320213 278.0767477424036,557.9550078815312 279.35281262443164,560.4152587955443 280.46682432873314,564.1498876422258 282.8484906432933,569.5409658449546 285.0014859490113,572.7054226971198 287.5485243564553,573.9661304385381 290.81538991112564,573.8782553428508 300.3833041428819,568.1242766235739 304.1321355667717,566.6832107882785 310.8211886142524,566.4886738449393 316.9682969374993,566.94358178941 321.18728949774487,565.0210077568919 322.0677255725735,567.9528713414707 328.43299836908216,575.0069045680648 334.98021560945676,575.968146389414 338.93634572588377,575.4953833634072 343.20121169080386,573.9531908505614 343.7944493448152,572.4523172668144 345.17702341673737,573.0801989503271 349.2772927910065,571.6703502780032 352.7110228060128,569.8687184070161 354.38265237813073,569.5361005543833 359.9718007424826,570.8348736572821 362.51473196389264,572.4677716801627 365.07661754318605,573.1195608291353 371.335602339265,570.5950256106919 374.1180723495757,573.2665001875363 381.52281543399215,584.4718624231078 382.77126200904286,585.054461084615 386.2399514464783,583.60278262902 388.2853960629352,584.2375744155664 389.72897459415066,588.1282457733299 393.2347980547343,591.396373368986 396.0545183062903,591.8905741068978 403.0152492243608,594.2121266423705 405.6359789689779,594.4551891454239 407.8429902350816,596.3752222608317 408.9860973385399,599.3042537877188 412.7701329156981,601.525919176675 416.555971722532,602.2062927520976 417.8502857387944,603.1177061799104 416.4630162057715,605.5117154235016 419.5598407146445,607.4043147932714 417.77107858550977,613.298892865013 415.7944044045532,615.800243690682 415.564689321131,618.9232641702362 417.13764156287107,624.6772880531953 416.90269820213683,629.9024239166911 417.1002982926515,634.094525364107 418.09207726236855,635.585835252237 421.35673748331527,637.500085199983 425.8698180642522,640.6489694739118 428.3920135505579,644.3910081268278 430.77324309781505,649.2321928746037 436.11747531413505,651.6642965717706 437.6782594897025,654.6366625467579 439.8803696560193,661.558861838568 441.9072976674004,662.8983802397152 447.3751329677433,664.3621935018892 449.1915715569259,665.4209172787552 450.93358248965455,667.9303477729264 452.7410249018951,676.9696614066667 455.42277072685533,685.5006950142406 457.5295321807528,688.8812218842442 459.8502180804796,690.4091270323278 469.3533839737341,691.9334548963914 474.32084171385924,691.3518614056031 482.13112051676677,689.5346494035614 486.1741794805153,688.0750309752508 491.2553020412652,687.5213996783818 492.4170657772355,688.357706183087 493.3611570477736,690.6785482032611 494.0266256900136,699.1373596597884 493.7645306893012,701.8977595072726 490.4889421103397,706.4421774406841 487.25648144573915,710.3874705627668 482.40401356144974,714.9457599707738 481.6731122307321,716.130906263245 481.1571144452315,721.6601427470557 486.35033625104614,721.5126107445071 487.5085886278187,723.5782737029895 491.0065234694838,723.7764274530524 495.07920542226856,723.5744498979784 496.5180628066948,724.1465966109644 496.90730113756837,726.0616066207542 495.8541207498181,730.1779733384575 497.151968399143,734.0317768092857 500.0181050920977,735.0293080566381 505.4098211016489,734.8853397448584 506.65914215113315,735.9820515386814 507.24361673160365,737.7252517992521 507.3676763973167,742.894284282945 506.5534251754934,743.9888473126558 504.4156988167904,743.9424624945735 497.8529201031712,744.9626945219334 493.760377786272,746.8632583816221 491.80757393100936,748.1811460226598 491.342888914025,749.8475978202492 494.37989930629436,752.6952048990242 498.99702148044724,756.4199303852802 500.38410376942556,756.9387650518112 507.06392724603205,758.2758832743854 509.2957624713836,759.0898223924307 510.2555251575185,760.9213821350439 509.5172244473081,764.5209287849008 509.8033933487846,765.7159717231274 511.74723390046074,767.3948578063914 517.0888691879608,770.8866862328567 517.5213045675677,772.8406456520642 520.758762553139,772.7876970281119 522.7170409706459,770.368933790202 528.9933835032539,770.9023529839152 531.5542820432015,769.2896346609388 532.8309634262798,767.1032902234077 533.4971724646257,763.6425211166161 533.354930792822,759.5172705089549 534.6051617388556,753.4118589998492 535.4654213428365,751.8932675134838 541.2014937946032,752.532324578498 544.2771684644666,751.3884585510955 554.0801657639956,751.9826947405455 555.2481418099285,752.3654165282616 553.9933709086242,759.4776602423757 554.4269331027775,762.1154410968246 557.0607308625822,767.5958208689536 558.4216804330341,769.1128244499318 561.3428282719462,770.1304940034557 563.7020323902034,769.6414678514268 567.8286822234173,767.9736450501433 571.7698554985685,768.4985907100967 572.8151375410883,770.3660262068036 577.9959692712838,771.8638725905091 582.4604725944649,771.9580150852668 583.6589143880058,769.5256903199735 584.1834987177402,764.47446586517 585.8668162460539,761.2125324756297 587.2076296156623,757.2796464598055 588.0799404322547,755.9679807752171 591.2854522328602,755.9029214482364 595.9967328767103,756.5683565221565 597.7089383344842,757.2719842564578 602.1576828329559,763.7366319168841 603.6443119996106,764.5594715177493 608.240927250954,763.8647358500871 609.9621281412091,762.4156423022417 612.3503896102575,758.5426688251202 616.2802503016545,758.9957968268229 618.9515896838017,758.6154826165905 623.3819068669976,756.6079687919216 627.1309152638913,756.7862864778839 629.9127542109999,755.534702819705 630.8395953878202,752.5152274353441 631.1452429808384,745.7082567748137 630.5196342994112,732.5712562702929 631.0337495824498,731.003545762283 633.1393045511916,729.6864172376783 638.934057077806,729.4928790772374 645.1817727751744,726.525607708516 650.718754705847,726.3970105875612 652.4573651163984,723.6336337994188 658.7170098315887,724.5979402357685 661.6952826407211,725.3327545911355 665.3291183768274,728.0382343269168 674.7322859631261,730.246908326984 681.6551055832548,732.29690966466 682.4518960114709,730.3628048634048 681.6754942537608,726.7727771660356 681.8466079617867,723.3968765895538 683.5595286724539,721.0329547424441 685.7457740975724,719.6744313310261 691.5178028389103,717.5705392317988 700.8967434784237,717.187336535738 702.3210395534051,716.7937074382835 704.2289498746198,713.1892440427596 705.0549642489532,709.9717135232399 702.2543025331071,709.3058531748649 699.7156469410605,709.4266314718858 697.1532815506542,708.7564285575542 695.7292831010083,704.3340057094025 695.3449895234972,700.6849991301622 691.2150497039083,696.231877974607 691.0951597304562,694.0608875017991 692.1214684532107,684.9908326397253 692.4259176509808,679.7498265554956 692.0454645277212,676.3094626559532 690.2101364641987,671.4130125897457 687.4284982096868,666.8937779910714 686.2769161513595,664.3959114672381 685.1366046407655,658.8819173062774 683.1130876038684,656.8591580943478 681.4500108004992,657.7627982841532 676.6613832971859,656.4009570235519 675.1370866898296,656.3266693409062 673.8448566800276,655.2587471489551 673.2226562456876,652.767614485247 673.7222562303839,644.9027914775573 673.2808720887463,642.6848060493602 672.3102149971457,633.020092823715 672.6900500843044,631.5867002448667 675.8140146261471,628.9109771355118 677.5394830798467,628.0841797813036 681.1016026626899,627.4484001062821 686.3557841036453,628.2946920519015 690.0698087580686,627.5025980754328 694.332453197773,626.0643046557695 698.0449604969522,623.9907310149159 698.6315999912034,622.0011669726737 698.569588122981,617.7917777259241 697.2760106096582,616.6259834231698 692.7960736524941,615.6213612625093 690.3176353404401,614.1614788343002 688.3393351461741,610.4682758135676 687.9652833302113,607.3769696189163 688.7978310922003,605.2237664443605 692.5786001321595,603.5564616408635 693.4687301471163,599.9600775348464 693.4153109983247,596.856126541767 693.9449580163993,595.7430007401329 699.8844401672482,594.4903736147322 701.2264388623151,593.6702532777009 702.4454210595582,591.1807360077971 702.7281420025483,588.3931625134263 701.6894077686543,583.9657670642132 698.1223665788395,580.5472807031989 698.3710308837802,576.4047030389329 699.4496377842515,574.7462657210173 701.8022644074832,572.598205082741 705.4365861004413,571.5690368349243 708.2964342858116,571.2587772933579 713.1493940877019,571.3039002995479 716.6311004172331,570.4298947146215 717.0895192213563,569.4646131579657 718.2526427716671,563.2373595488448 718.5963977244428,559.890601473172 718.481160897036,553.93908095203 719.7301200232171,552.6304068549837 724.2221552604832,549.8997860375243 727.0122744707451,546.303849805252 726.821834245356,542.5847468265739 724.0823991906152,542.0358371331021 723.4021782591763,539.826335441335 723.8121862544166,536.1584671024486 723.7386920438104,532.0237549692856 722.8310419952011,530.3786492069362 720.5593313509976,528.2053036950492 719.2292282032283,524.8984676028876 716.8740671546432,522.0835686279968 717.2862738745705,518.492694925335 722.3329538522851,516.3134248074509 723.2754932446458,515.2553228823888 727.3384468448212,512.4112834531638 730.5205146401366,509.4684307014608 735.3269202086915,504.3301173728688 736.7271854236568,502.3071017601447 736.5450038682621,499.676810365337 733.2483926112611,493.3228475446824 730.6979356341542,489.38890206229524 730.827735491401,486.2331169432048 732.8083744052572,480.9256482332703 734.7830570758135,477.5461587256956 738.5752160749249,475.3283294465713 740.0809455115401,472.362704807141 740.5434003459586,467.6570280199932 742.377704865554,465.7497685149928 749.2441509062047,465.1120093016759 750.2264694856758,464.581304723301 749.0243383014549,458.7288091670512 749.3690643931881,457.78907391863225 753.1483419271685,457.78180843345115 758.0745358978157,458.94538978905337 761.710334983678,457.3328812833215 763.1681088340198,453.4975115681814 765.8613359478735,451.7489683502826 767.4840725922232,449.6003049058264 767.7724786826248,442.36860833734016 769.1432699916301,438.3663811742594 777.4363282758261,433.0574370965932 781.9986367814189,433.04861588819807 783.604341600823,433.8898843181426 791.1126623797334,438.9929221158065 795.9555284229272,444.4603035768572 798.1794483000162,444.66231898441225 798.2935355213069,441.479481783094 794.3085330644468,432.2644184126566 793.6095566459271,428.6311379236736 792.5358802502685,426.4266337881729 789.3220403705616,421.3274036045633 788.997489279401,413.4752076212854 787.0260889495786,410.172404179569 786.1141606703529,407.8131256131695 786.2436713542697,406.4501449155255 789.6084487679685,401.6403182570912 793.8576890077919,399.42016896537854 793.9023228619194,396.8823957400486 792.8377514115208,394.6023268099603 789.4564236959674,390.9303857001018 787.3591624815652,389.14373988842834 787.7526752454146,386.49299004715704" /><circle cx="650.8911197101462" cy="454.88111113599024" fill="rgb(100%,100%,100%)" r="16" stroke="grey" stroke-width="8" /></svg>