<?xml version="1.0" encoding="utf-8" ?>
<svg baseProfile="full" height="1024" version="1.1" width="1024" xmlns="http://www.w3.org/2000/svg" xmlns:ev="http://www.w3.org/2001/xml-events" xmlns:xlink="http://www.w3.org/1999/xlink"><defs /><polygon fill="black" points="1024.0,273.5911792777167 1018.1323433280211,273.1660319082888 1011.9607696752762,274.241644570291 1008.873060572517,273.27776535161695 1007.424144297487,269.4294575885265 1005.1096917689651,260.9570598754767 1003.2862163753489,258.4492231658784 996.2318705175851,258.5524530060502 986.7759829234103,262.9919281345615 981.3836666304113,263.4787419258648 979.0701270175537,262.6021638252489 971.4495500740107,258.1762641356639 960.576677069781,252.67973070084065 953.6403565021335,253.82602092620084 949.4908089806638,252.87326177686998 945.4470961360267,251.32000223484715 935.805092711289,246.67542039779823 932.7760243361702,248.15039317436674 927.036143135615,248.86155687732253 922.4611137957364,250.99452394668197 918.6592245874012,249.86533074029535 917.2586121323019,246.69234479075374 914.9309475505198,244.93305623918604 911.5645840236331,244.76461778385737 906.7763857399261,248.32390309338007 904.7271580091017,247.95481831901805 899.6137934303367,244.3479771034422 894.0620058564843,244.02627546413953 889.1311481290633,247.7337368791051 886.1510899506759,247.70762151834708 883.0970497335906,246.41322081922783 881.547379459885,242.3856195748624 878.9095784323032,237.78800157179649 878.6850967521599,234.43488846528032 877.5624614324813,232.52217591955684 875.6293258895142,231.52403076439407 874.7570580069593,228.80548397450548 871.4468150812926,227.70679018481417 868.5606537682837,228.9096839509166 863.6688149427532,227.9047209459544 861.2687618739736,229.69361883305737 860.3740254926826,232.73964719700643 858.2230663096656,233.92896939249533 857.3335273563405,235.81210573922465 857.4131247500584,239.68005766568524 856.4466776544251,240.8105774467491 854.2664254946998,240.06506095828604 850.2985913153901,236.2860361130888 847.8766451458163,235.16382661206012 845.5116542472314,232.95192043627844 843.9866423603336,230.09776041641237 841.805287372999,229.5601551282433 840.8006701011866,227.00959421964455 834.4797098280704,225.6469020812914 830.397116248732,223.99882571162232 822.9606977813186,218.30990449031776 819.8837439864355,217.42700980718348 816.7986967111881,219.4744403070349 811.4976231807864,218.69165481547668 808.2888138203074,215.97627861145952 801.7653079114883,214.56517014645658 798.8892164888242,212.52029701838626 797.5739270856151,209.01094194955556 794.060502379888,207.7302287897021 790.0891573889453,209.73445625239685 788.1729456016373,209.24242084774414 786.0188306633389,205.95359161474846 784.1699729899321,204.57996480167253 780.074180631,203.5958996952345 777.6473042604895,201.55355492190415 777.0264570576093,198.11421337068475 775.743057475548,196.06835416125784 776.0868062547056,191.83666626018464 775.3706841449488,190.36694211865347 772.4578211957801,189.59821027166242 771.3734936545269,185.14235953574826 772.8276899675461,180.97279714447745 775.8208232875668,178.78669372396666 781.833130130922,170.48830927137806 782.1501932418632,167.12063916888667 775.4336306148645,165.88531164502308 771.9665050630563,163.8363340537005 769.1305450125083,160.47721077256767 761.9048659394749,157.51162563219918 758.0121269639252,155.17876208755 754.3449645979117,150.89303492077715 754.4464092996107,147.74094655211115 758.6223665530938,134.69253713718786 758.3218023247026,125.72852042412774 757.6025550605897,121.744331311976 764.0182020982917,110.74791514528783 768.4478704583657,105.45565478783931 772.3201927876348,102.91777138962311 771.8890260251987,101.68631484082289 767.7069126849916,100.00790353360003 766.5163730495307,98.03900366274297 761.5253936101985,93.70937998729994 759.8225139252525,90.26482833841646 759.7670865337908,87.73943131223757 755.3143985450888,77.58769377303327 752.3003013853081,73.57987990613788 754.4323248321814,70.38388186200211 761.3074818188228,68.71182998308541 763.7489225995342,66.41926821754464 765.4331141994554,63.06206254075164 765.581253653648,58.93401919273026 762.8329413130666,54.8071103223524 756.892150027121,52.51799496127319 752.9208019274628,51.59101392289392 747.7289192927796,48.37822392847784 743.9308567858207,44.29053615725684 740.8953234615293,35.911550218285356 735.856721132852,28.197012445386008 731.4405750566225,25.02440887701232 726.7690658894737,23.644266405868052 719.5615244804341,23.380111315348017 716.9086107913258,21.993444493334323 712.0948062080249,17.571290747576995 703.2449084954598,3.5358310193514626 700.4636313121357,0.0 694.7556048857938,2.823107317358449 686.7610426841219,8.781756015102246 676.0814007544939,14.010695556613314 673.7627292208931,16.11465934373757 671.4397192754126,21.727030108976805 670.5154154217705,25.736014994279913 663.3676192611981,33.14532260300268 659.3227186514456,38.55912006119331 655.9967543276375,44.57881815508972 651.0488308380769,50.78294251018622 648.7288258354562,52.991571734837976 646.210191670516,54.2972428158273 637.7585192226817,55.39293297157178 632.8151499889127,59.19608245068173 630.5973211317385,59.99687410600927 623.6487541488777,64.60208217036666 617.6037685747557,67.11153749496123 612.059987130978,67.90835396264856 610.5447577410661,70.01735378721457 603.6593665448002,83.04953512694033 599.3252188537924,90.1780632216354 594.1864884591575,92.67556315174807 588.7118040368093,99.40279013161819 585.5897940558664,102.20434613073598 582.3672358466708,106.32104768702163 578.0172284242718,114.14438025405377 576.5828754948923,119.16474973464233 573.045858205654,122.86473508177505 564.8908810529224,124.77792179622168 559.0363744467551,127.38150399860001 553.7803087270057,133.30219704229455 548.2086243726474,144.54457602766013 543.7795024185924,150.2559298213264 538.4395371797945,154.85442990063052 535.413926820693,156.96252019572296 531.9852827389311,158.36518377208347 525.3400500172257,159.9680451011036 522.914451334787,160.96366880882601 520.8999892719042,162.87279410701558 509.5294245107519,161.97180199838158 499.57554827334894,162.56219557528414 496.8521961800617,163.77225194772632 492.3988245024602,168.37638515679464 488.3161862593561,175.11361793134733 477.36120144621833,185.12212247403306 466.20302129002283,197.5328042372971 458.65344496396614,198.4884176010828 451.2650360041719,195.84044213563527 439.95576578294856,193.33955576152255 432.7352006863024,193.8184962322223 418.4413263742757,201.04889766409065 410.9111869207155,203.40259331002608 407.46736334264034,205.2905482505481 404.3483830091534,209.8947190649218 400.1261600984318,211.87063601977286 395.12480575975167,213.21963252226328 390.88963984901443,218.21839606620745 389.5617588194304,220.92146409771033 387.52201443819223,230.84940772029915 380.8985904285112,240.85434814941448 373.4504264963435,245.32903954823098 368.6398271619786,246.91553930117811 358.09601733629387,248.07835330733576 352.9801978587421,250.75926101250877 347.75752327964614,255.14992249968498 342.85948099610357,256.03985021480196 337.939164078415,253.50089079541908 335.53379239888113,253.1894452526434 334.7364801061419,254.3850205962151 335.0215889211419,257.1028645345974 337.80589799163,266.14185976083274 336.8908209080984,271.7591500116688 335.88590945622235,273.6572361448706 331.76829759649115,276.3387968727294 329.36748280561983,276.62840672944276 322.0432492397256,275.8920278385101 318.02700928740967,278.68444298025224 307.28814129069127,291.8665990840062 306.0758443227172,295.1730451949061 305.553109599749,300.2778041436128 302.5505772838683,303.9818307822054 297.6242207568932,306.928117682579 294.7732181769623,303.61603715534886 294.92347330845627,299.100344328305 293.11979046968247,297.43132420004315 290.25936639380797,297.57617250134354 288.760697372187,299.6868631528788 251.30604401937674,324.6274050632878 212.03624507171287,352.8948245716912 197.28822670449554,363.27874839249523 193.37624099698925,371.41041288393865 186.3057587545509,379.54069250012117 181.18163297075654,388.4314456971547 175.46183818020475,395.0635996758823 176.44925037409158,400.0891656487589 177.5843112664177,402.2528749362949 176.35322487320167,405.2011029189116 176.598015469328,409.7060967506577 174.84036440639886,413.27027468737003 176.1616452914835,415.1902325599184 179.8593966829429,417.5634678524583 180.01312559308158,422.06586133918734 181.3642708790032,424.11764646265897 181.12563447741715,425.68581618627854 182.76015279503633,426.8189193311756 182.98731923183306,428.9265101295336 182.00680848643302,435.74135873788026 180.83610782107246,438.6634709016013 178.89446076994025,439.8306001491864 171.70076271586296,438.8542240213983 167.21353640502156,437.87338376584376 151.64600204980312,430.4778704178483 145.60893926899556,429.30477303603675 135.0893816204379,429.89586878129194 126.52394152573197,432.4303036828435 118.14652174882166,437.8809150395503 111.12100511310747,446.26732822016083 109.95354217916585,449.9698625282089 109.95812611296142,452.8366595703576 107.59890115679072,461.45256881073203 99.12056867442453,472.1958719389898 95.56573350504786,474.24905550415485 91.54402024454707,480.2761132726537 88.06060426991232,486.72069202130734 86.25254488088174,487.7851619465753 81.9168596674594,483.5709561075498 77.79760668719638,476.0775391431172 76.00101006475444,474.69673957205026 73.2439023559202,474.4931348131836 71.0895118757085,477.58517374440464 67.21532350124907,479.78610387031057 65.62508269696778,481.5851543179969 63.40817915469556,486.9795683269523 64.61806868205413,491.8708526271235 72.42998005878972,492.7336398847543 75.33559366718046,498.8624549286332 77.54180824121727,502.2779898800161 82.0514531391244,504.28511850157616 87.2748194510701,505.3953577414852 91.02791121992063,507.32058380981783 91.76154301178299,508.6611673348675 94.75952126768152,524.9664374965098 94.43416703552238,532.4948692581095 93.09983198853277,542.0182022529604 90.68154630725368,544.7220836120246 87.26634344605108,543.7123338495758 82.82520822439038,548.6185712571119 78.39478222317882,556.7294767550287 75.16730505050069,560.7345651595595 72.03010823331601,562.7362155681703 68.20812579028497,563.73552619028 64.7921771447724,563.8262645516018 54.741896235186935,564.9163129806436 51.31239034619433,566.6143896572651 47.585843150677796,569.2219292946806 45.56092975501379,572.6262136222592 41.6372128427836,573.3235806609473 29.4816981456454,561.5169618858131 25.685955501493126,559.572553317682 15.340743540162402,559.4629487192541 18.426020269144836,563.9598661127844 8.764811173947088,568.268759325967 6.1473170390225285,570.3705643520432 3.4067444058304983,576.7855870085239 0.0,589.742274486543 0.08845081011340337,593.2430440112273 1.1433682112667356,597.2404154335511 1.4370769288834642,600.7520515804158 4.2310207234059725,608.9720906911924 3.502978464689418,612.4827760179573 4.591913912256645,617.1971425395045 9.3161507408575,627.939638770669 8.97348242880255,631.5482881388115 10.368122012347731,640.7809035909225 10.191144450471905,646.4896528904602 16.746177797624846,649.7997557447029 22.36893892224626,647.989666700536 29.005371942424308,648.0723972009623 33.620044525145225,648.9058122375541 41.59722921234741,651.1349473732074 45.070164682590494,652.7487153999239 48.90771383695047,655.8063501970097 52.52415010968912,655.1716958755359 57.00848573247259,653.5865801938281 60.35998994371886,655.9974585310716 64.17101210929815,656.513273131947 66.81012533142051,655.2770572854458 68.50152056588772,652.7141982973595 71.85558529496056,651.7104491693345 75.87307293951464,651.9274482713502 78.64325991095542,649.9027230184184 83.80913510328932,651.9548480728054 98.08970524765165,648.3609875674435 103.24849048837125,649.0663793112212 108.0149378261228,652.3929163794639 111.40777156819617,653.7221508919276 111.07406874963397,657.7755302488299 112.33950780692383,659.3200344768029 115.30132990020347,660.9173541185678 120.64184097454121,660.6743496558549 123.39757643041006,662.356823805762 125.89931097155642,662.9343816694798 130.88690930719784,660.9842760542456 132.4414671308588,665.5420155469543 134.99973732957096,667.6262387052853 137.97353782215026,672.4421551965157 142.04877029678204,673.1653079660704 147.40985435674116,671.9259763072765 147.88342865356634,672.739370630334 147.8206057692529,678.4686106132766 148.82684936316446,681.5079230729441 151.3846208959737,683.6844105646002 152.98133485988325,687.0579786191847 155.35244624668704,688.4253817844811 157.56768879173325,687.8992220837634 158.74266818498498,689.0389496427262 158.12680369045643,692.8355259529982 160.11883755669416,696.5042062098872 161.5921108017478,697.6554658498943 165.58103292893873,698.7917486665465 167.14734473856674,699.9349053188455 173.2681711227114,708.6834164131217 176.33026689783352,714.1788447812625 172.4138037204946,717.3433934607906 167.10006215992237,720.1291436469769 164.67902762751862,722.1313687554854 159.44402290589053,728.6823656561949 151.62154751015586,732.8093865996639 148.29778211250547,733.8057319265051 139.96680946116186,738.5875768662171 133.4099859750369,746.3958656262004 130.8774142259796,750.3920432293851 120.71947029149139,762.499482175173 117.3878739093519,767.7028815919078 114.48444369798335,770.6409739893522 114.33757072145227,777.8223461903523 113.22180396213362,782.3309503901659 112.81008541946893,787.2496414266693 111.89776631252003,791.7974364563697 110.43668027290356,806.0944046403367 108.41573593132594,815.7643643563474 108.08810048733233,819.1402148753431 108.49974726509491,823.3710673780271 110.45932888291702,834.0660227664371 111.2295224056748,843.903643718086 111.79677007171388,847.9011521751995 114.43511022372847,844.798821175015 120.90070856627288,844.188789350153 125.53691697095935,846.5389748187251 130.14696943644245,847.2758870897665 131.09486086024836,848.7159751995893 137.4920641001202,849.9134038766805 136.5649858719514,852.8713139010943 142.37210358522609,859.4960507842409 144.1652389181718,864.9448494556685 146.01806618759946,867.1931985396678 150.59681541031196,869.2969117740591 150.63123950965468,872.2065340178902 152.85891037660173,876.1635590869453 151.96183760747078,880.3452640912549 153.01264199119433,883.0861023549083 149.93573917494754,887.0812235934761 144.05961945378922,889.3441230940887 140.18140458829458,889.1404788331782 134.13205129232136,891.2344174994303 134.1774518645776,894.1726000483907 137.45503154097597,897.4990073559046 137.2751262654323,899.1832337709362 135.10290925942348,900.5010351860252 128.9620700540403,901.4808075090241 125.522840612498,902.5150285350352 125.90534984153895,904.4301674501103 132.01712234495503,905.6055269212156 138.50815425565878,903.4320027883085 141.23133117975647,904.5482712731103 143.15491723395812,906.9484105675962 145.8058054550922,908.3093809279322 151.72616189587225,907.9104718865007 159.32731256209732,906.3953239802722 161.33162748456223,906.7047333766544 164.8554719596818,911.0322996004029 166.287623650563,911.279696448353 170.69741540537498,908.2386166443799 176.70916806767707,910.240566182345 180.2285849847503,910.648480965803 186.4680047309668,912.5685841552425 190.3935607532357,914.4967721782699 193.58270572823662,913.8648515035749 207.82440789938406,905.6341956443546 209.42940200883876,903.6315135717972 209.5164200101987,901.8717674271351 207.993071187436,898.026385155503 209.4207674833561,897.4625784742312 216.46316586594037,897.6372111736166 219.66467629175403,899.3221449166953 223.81419923603082,902.5320444343283 227.89963560325776,904.8557322294694 228.90067097410073,906.2869272764912 229.26187764629026,910.7908296585956 233.02365796716268,912.631509589963 247.72041031068787,913.464375192784 249.96494367574144,910.666629029798 250.69081465522137,893.9375219788853 248.99937637987858,884.6370712218147 250.52807019856016,881.7585682476529 253.4813220961214,880.0035343893115 257.8303242481285,878.9199915609045 263.4876368253525,879.3998113276105 270.38392822463965,882.3314386331284 274.4589447140292,885.9060982935338 276.6588250575459,886.036530691713 283.9184623917009,884.7598600887687 286.43850098187465,883.2746538994252 291.557025430255,882.0457222787392 298.55255528462203,879.1375287149442 302.87371564027694,879.0220548316918 308.0593927351614,880.9105813969029 310.5131813966623,881.3077357050333 319.72059621034,880.8087985672992 328.0105722350073,882.3736768329433 332.85493944058425,882.1214091515116 334.3533655986505,882.8395235186085 334.93866686318705,885.1044056135469 342.9009069094075,891.9296393551082 347.2462845968807,895.1103482436632 353.33883950371234,898.7477685891976 356.6146261669834,901.4591424531483 361.7215580558637,906.7830750648208 367.25747378312735,914.8220787085365 372.59056422092215,918.8583293979667 374.7768686380282,919.5069301184559 383.19781851426626,920.1958735173318 386.8844800959466,921.3736433639476 390.1561635387494,923.4514227651748 394.12807777731075,924.6793235345502 405.1968229657903,936.576635337899 408.35114493469683,937.8459170027381 415.53768528701454,936.6106925849458 419.12157742340753,932.7672742693895 420.4873192842421,932.1465630748224 425.0753780799106,933.5013626762734 432.0128075576174,936.8407806130805 434.85499218154746,937.333782311592 439.3156844141785,936.585491362795 446.86850798957687,932.857292102993 466.8279968775989,921.6972097822555 478.7287504269395,915.7299222778005 486.05206034171107,912.6193520683222 492.3846544915269,910.623243759072 501.8065779120632,908.7439966005396 508.6419023797948,905.129461858377 511.23818444091927,905.7424139522808 515.1976777945048,908.7000412405155 517.8179769234124,908.9361202005871 521.7904649992402,907.4394181464953 526.1379112761679,905.0794072419359 529.2325619219735,904.6964448569864 530.8537089634855,905.6879608944332 533.8152076538106,909.5039886006597 538.4243938943288,917.8999454458087 541.1414559749815,920.1244283515255 549.3444434327024,925.5319930015462 554.799263836588,927.3704663993257 556.1715548764987,927.371362038497 561.2609879505816,924.3829526677373 570.695506547198,916.3130050260054 573.2899499980829,914.4482674419367 581.3292313612812,909.776763703718 588.6346815155036,904.5361892471861 590.9224278323579,900.7558354314284 594.7208333032331,897.9195127881046 598.8004542634762,895.6878742347936 603.2413127722451,890.0499738907382 607.2262642622798,886.6119580843916 614.3508431541186,882.329551776655 622.1897262467193,879.7090485858731 636.118500111211,869.6064225139523 654.3204982974884,852.3569564084798 660.5697686207169,845.4890124614113 664.2118550865789,844.0534920668642 666.9848564621461,841.0971660278979 667.5432769407809,838.8035437068139 667.4415553349365,833.993031844719 666.069415832039,827.9400330275596 666.328614978034,824.5330868970979 669.9388016689159,815.5757895458426 670.2070246410458,812.2738083760329 673.5113650857623,807.8237623531346 674.4675473873173,805.5345406252715 677.614708845736,793.7610601801204 678.1342641238131,787.9464571743897 675.7376032468384,782.2174437805018 675.9593015542612,776.5715651468018 670.4415438850589,766.2395097753505 669.9424775944539,761.1151544381764 670.2913212657573,759.4140223990883 672.6487684040324,757.2461558393265 678.6016854859092,748.3825331423062 679.4416167165442,745.1412194121493 678.3040964266372,743.835645841503 675.5483910256369,742.9051855419625 670.2473663099265,743.0015166761652 662.3195890942266,744.586235752872 657.4417840892927,744.2903561303632 652.7154711315859,742.5639860230347 647.7890853419418,741.9848445824757 646.6996481640011,739.624988899967 643.7198246886996,735.4635022540672 641.529328431638,731.2806594133251 638.6901056966353,723.0178557751995 638.4776356356905,718.0660350429494 641.2020583411235,704.1029481295478 643.5581536765368,697.5326695537342 643.567521516677,693.2704987046047 645.4587957773682,687.196707641684 648.3919786878829,684.6667047403553 652.4841678053847,676.7993647407793 657.2201042604368,672.288110111185 664.6775476287786,668.7729937427061 670.4663693116213,667.3713985619443 674.9580137881951,666.9123395819236 676.3630862217894,664.9283813774612 678.5901580477458,657.4536197426565 679.2582350281193,653.7897354455492 681.5831478578245,650.2115183973467 684.3089887199084,647.8504072106032 687.1191380781745,646.5335940503103 692.6528051282243,644.9146177166657 696.500172639777,642.9732728251669 701.4035748283266,637.5304992097994 703.7389886354357,636.7562713517624 707.9506032940418,637.150041418495 712.9287296334483,638.9605531882703 715.4331755850343,639.0052472569627 716.7207419574122,637.4701631302354 717.5893013411053,632.9415310249306 720.3373905821173,630.0716028218153 725.6384106952427,627.7835399231817 730.1236325876882,626.909075393299 734.7291593594647,623.0160193815693 737.1694745944452,621.8473817891098 743.8126491008237,620.60946208571 746.4574831873982,619.5540497979782 748.3198734250295,616.2283085358113 747.5520868298639,609.85594556745 749.9940375207642,606.8521537049431 752.2011667937609,602.3229923514127 753.057164094663,599.3944849005487 753.1926263766053,594.2031911298054 750.7124426779682,590.4071844785108 746.0215684369902,586.851383410142 743.9135077558036,584.0071829721564 743.2404185756957,578.9245347209403 741.2334065076942,573.0261024497147 739.0482902398242,569.523442909121 737.2106178204268,564.1790477879999 737.2063458814489,561.7909746925568 744.589010951061,553.3848001994501 746.2397984426652,552.5204577826446 748.7292635550394,553.2333058351423 759.2048700371481,558.4792754461206 761.3256588894359,557.4773122309601 765.1511517088719,552.1989476168035 769.6135258145373,549.7624123868057 776.0394987019573,545.3643021418211 779.473873544998,542.1245712138856 780.9601699170261,538.0707678954473 783.7169838616027,533.4807230355103 791.7793698684227,525.6142971299153 797.9442995913246,518.4507731907811 803.1096913951314,514.609642267794 806.7284877617585,512.7700365838764 808.1024498057456,510.2036799020727 810.4437951033505,503.35435371426234 814.2728384487787,497.15416263000554 819.9928924620307,492.4892024503707 824.1329792665156,490.5404601503494 828.8061168309034,484.96568885711343 830.316748585725,481.8079111468927 832.3381853006733,480.3619642068593 840.0228853594346,476.7982708779006 842.0372246406357,474.884551324604 849.8761634554198,465.8323839441249 855.6515729761712,462.0132775483067 862.5436374437409,455.7183174748661 865.6977560948243,450.9536327487417 869.6441304138825,450.75085024162433 873.5813174635991,453.5280732360229 876.8520140565423,456.6943253782605 880.0794489029007,456.9388307046871 884.4878173357367,456.26014346643615 894.2851847695673,450.8273537421823 896.6657207178872,449.10196328496477 898.9011514698764,445.9763466403 907.0696069641567,435.939090326172 909.0096228106676,434.3337696210102 912.6351540332792,432.6437080976204 914.2478196383212,431.04538772201965 917.7185393165237,424.43967646347255 920.4593579418146,421.96393061271067 923.7367969839388,420.4602256161745 927.8637261134659,416.66922955173754 931.1799046915947,415.49458612092235 941.4255038045001,415.6260172604857 944.8224711741752,412.76953367973067 947.7070559242554,408.340121917988 949.1541245614612,401.53613802757593 950.8129257946446,397.07329220267286 953.9927296733977,392.7770018834025 955.412904058771,388.76268120758164 955.7895255072623,383.579777901435 958.134044755703,378.6867639854644 959.7937875528272,372.19504021971204 960.1586075949944,368.8612952097492 959.4317971772482,365.43803832272727 964.2819786475858,361.83882736916394 966.8798735491467,357.2689389454116 969.8532615778936,349.4488909816977 969.225582083518,344.53258743442916 970.3372377303679,341.193968578708 976.5935843043907,335.9306739967441 979.9031788366723,330.24603602314244 982.8665263731868,327.8116608429125 986.2158768056362,325.91273810925213 990.4112468126916,322.19570342206623 994.1655987720196,322.76149354999075 995.8025054966784,322.16915584485923 997.3183743366232,317.68745133806874 996.6433300242765,313.94452829903184 997.5814602706295,312.2407249449833 1001.659982679038,311.16335962674816 1003.923047400388,306.27302442718735 1005.5502000845473,305.34095022880365 1009.6383742790771,304.56399493440495 1011.7557659790809,300.1049033074049 1014.5050281413379,297.3951829684096 1015.9965285528774,293.430662110545 1018.6668850815557,290.224392047078 1020.6474721331556,282.2794268129577 1024.0,273.5911792777167" /><circle cx="219.04631553524712" cy="847.9973877943225" fill="rgb(100%,100%,100%)" r="16" stroke="grey" stroke-width="8" /></svg>