<?xml version="1.0" encoding="utf-8" ?>
<svg baseProfile="full" height="1024" version="1.1" width="1024" xmlns="http://www.w3.org/2000/svg" xmlns:ev="http://www.w3.org/2001/xml-events" xmlns:xlink="http://www.w3.org/1999/xlink"><defs /><polygon fill="black" points="847.4647130618147,132.50177060644342 835.9278858563746,130.9615857307599 833.1307977373482,131.65270049973458 831.2430117476272,133.09722391507387 828.7611974465833,136.88793356697636 824.0168784333313,140.08091695179792 818.9450697421237,145.4313768827435 816.0042434255563,147.11097070839776 812.2491822718376,148.32261900208846 809.7710219057233,149.87987794267394 806.4687908230029,153.0198070959466 803.6948214659257,156.92854642367536 800.6410304394473,158.49836095413525 796.8639670836769,159.14155508697252 786.1352234615398,156.15718849358143 780.2661294135675,153.0777697199237 771.901391477054,151.17968047139095 768.1861873336527,150.93532897595765 758.7213176654711,148.00454211591193 754.8176110177417,145.42940223912967 751.3956916547269,142.26477300199656 743.7574810251947,136.35064599169573 740.7674797267047,134.51693486073907 737.092233813746,135.24633854753733 732.9500875788343,139.29561605140339 732.2690084177004,141.56402728663397 732.274815704538,146.91543224008888 730.9275471052626,147.55284588149811 727.319740120961,147.59138246913028 721.4546268758199,146.75344941107505 716.8524017685755,143.91872974704677 715.6820147019789,141.33373841542277 714.7869880652154,135.83100973403896 710.9109933988569,131.0197775270625 705.8246859531946,127.71802693556833 704.006693915429,126.04287086869385 702.2684968092764,121.2474571681123 699.4670032638643,116.68856759070411 697.1319902504891,114.73847940201699 690.8149263270117,111.97112400730157 682.93093589628,109.35950165394365 675.5222277625162,104.19781333177207 670.0919973254419,99.63451342174278 663.6727650443116,96.76686183119261 660.1305108123106,93.79805120084393 656.4102764972134,89.79750971974363 650.2155688527407,87.0969538189023 648.0238780742428,87.09360751085967 642.780150595033,88.30079923361916 640.9094497785158,89.72055228589716 639.0589010257472,92.8851438972224 639.2799612053443,94.64813944955563 642.3471259811636,98.46989316497661 643.0917048379956,105.56962980238927 638.9894043152618,118.40603217499654 636.6994196472749,124.61731858003589 634.5061625385766,125.86117064051973 631.3472095577358,124.22237655503261 629.3158886952534,122.26680379774757 626.4398833221821,120.61161586931303 623.1302855412758,117.91976125657766 612.8306482554433,112.84777017579142 610.5555983971882,109.33279809346232 606.978401942324,101.68449513152484 603.9459301909862,93.43547657283011 603.1204242520647,89.76763771676735 606.3775166470501,83.5278433113973 606.6952367041257,79.13647035933332 605.5095102081974,76.16881099012858 604.0066669267559,74.56543340038706 601.1657926978958,68.93112000404335 599.6130102663533,63.636677339876314 600.1994939657569,58.56086218070959 603.061023204427,52.23806932139473 603.1993257094643,48.3397610527486 605.0588709834897,46.036770227603256 608.2134081754721,44.561013544543584 610.4395543443464,44.48307550169034 612.6032927922448,42.752467922556775 612.334407683787,38.202859703348054 610.8548441719782,29.497374133066955 610.998983770699,20.73867682614923 610.651144748347,16.86954325049453 608.0079861976714,8.402232498888566 604.3609015571345,4.259801440471506 600.7630360122258,1.5755486155791232 597.9962004925292,0.2141426956993655 595.6451356240323,0.0 592.4754903269268,0.7954000795974707 581.867605399523,5.056360993094245 575.1162014118403,6.557027922294424 564.2199988700031,5.38567137796781 556.9428791689161,5.738889810071441 550.7174924475373,7.8978831564628535 543.2137687136982,11.857680656762113 540.1252804767142,12.156021635529555 531.878299209379,9.708096516198225 529.9014687597338,11.240924325202286 528.758229569536,16.915356913948358 529.9822452815453,23.58660805320835 530.1053671637789,32.13606666631483 528.23925786046,36.3765298772189 525.8510692403243,40.15913745671094 522.9225623196162,42.00608555896281 517.3460340844304,42.98237981351258 507.7820447287819,46.70041170306774 499.5235730750879,48.737309755877504 495.9363721890135,48.76943193589739 491.81431864413025,47.635772515740086 485.96993763296155,46.66985595589415 477.9881147873771,46.071207283416356 475.4145235075724,47.03841326507154 470.11468831036984,50.42292516679822 468.5376223667038,52.32244276692427 467.0430421691618,61.900268375107885 465.23050826719833,67.50842347430626 462.05739575053155,70.92180923843239 459.39380751579625,72.37639045221488 449.83697113812576,76.1117362833661 446.3405883576628,78.46498015916052 441.0108938705496,81.27202006797188 438.085595391014,83.42235411056811 435.01421404055736,86.83315737420241 433.73483058959226,89.11048805418454 430.113348685515,101.09928609238398 430.0354716844315,106.74443847583075 432.4773965472914,114.6318783205628 430.14727618758366,117.33855445956624 425.2025546447614,120.33022113982747 421.95704103467864,121.51159878641113 412.20189143043905,122.83347541044543 405.47831331411754,122.2976164246478 401.26991073550323,121.47884922762876 395.49024802122136,121.5319295765961 389.9089758529318,119.16742861057082 385.43472211112305,118.74809180531906 381.3672317688241,119.08200388393948 378.4925675856891,120.06403945704551 374.71635043527783,128.62288967107474 370.6290674153663,131.1412630246183 365.5407469098961,135.2916914058029 364.7905535881834,138.46238198783988 364.64324853823456,142.55657252372725 366.01665948919714,150.56906920070753 366.9500531136235,159.47395872633638 367.0871877778943,163.16632656606782 366.51651751936447,168.53845039480836 365.1705589535823,174.42369385356835 365.79677006919775,183.43626546354722 365.22745401838256,186.08829240630178 363.0747215039855,189.03506816812103 356.7539266655983,192.34630561355073 351.49551828635305,193.94311781895556 342.99423057426975,197.0244685856228 338.75842592853496,197.1366515227312 329.61180603791576,195.7219195571414 323.23909196086305,195.46028936216135 319.052290352653,195.80534954754182 304.75633565629084,198.69265550297757 299.4121288385169,199.20266718471134 292.36816236796756,201.12514079456264 281.00425406327344,207.3870055738687 280.6637915499716,211.01783778067374 282.92276112097244,233.95510759334775 285.1527297042623,251.07581352401905 285.6741505324913,262.9686848463193 285.11303264671477,273.20804744430154 283.8689492832881,276.4531610394198 285.0464609598999,280.65595089133046 283.74030494923335,284.4999779444614 284.0817360267758,288.47596472732414 287.40625381643616,294.0792390061994 286.48115339776376,305.3952842373553 284.04906903185787,308.21534829125176 280.0415860676414,307.9770852830633 275.56935883128216,308.3470942161558 269.29181898478856,309.9607762574457 266.7579479280562,312.68090599014636 266.10654685153315,318.35361918878914 268.4486473045173,323.70382488686323 268.71914049858435,325.8311536649138 267.287856767978,331.8236663393943 267.57518561255426,333.9506732193513 269.42080906455124,339.1277797620302 272.92240023171075,346.7639778025199 272.7254186405616,354.1660453567831 268.46740873792953,365.3233526362908 264.5042020057115,371.8016678509209 261.86660363391275,374.03614160086056 260.0399529948553,374.5997760012682 251.63497561094894,374.05869751605167 250.77952700742694,374.76568875566545 242.98574928250923,385.1987691066638 238.6865341990546,387.5987305396161 229.8320947023049,387.9487891568051 227.19605898017448,385.4268816899066 224.72741212771095,379.5894292823381 223.43478811292994,373.617812782907 222.05531491931043,370.7569303393657 218.77760514501662,369.1323916381739 216.52983893081353,369.2246796610999 211.8797365970294,367.46394999054985 208.36136795848876,364.6845366736543 202.2129593509361,359.08820778198776 198.31938751950736,356.7118385950347 190.88326505905266,356.1293124992998 188.4381515671458,358.36082991861997 187.71854309445854,359.9486100175711 188.40142128464242,365.17043337999087 190.50854928892747,377.15216522621824 187.69152182144643,380.0813023294422 186.93819050998627,383.3163736105921 188.53870169184268,389.6699463479398 194.37003172770886,399.26708693987837 194.88640478704775,402.4577755027726 193.51359239096058,410.1880269962446 194.75472421096595,414.5157762487904 195.7919463214721,416.1327276700798 200.087464991899,418.87893631594704 200.20290997767003,422.1804694102883 198.64564727223126,424.47637722399793 197.0041090348486,425.21845853667196 192.33113956804652,422.78409811343397 187.2547729904964,422.3000882650605 182.8544366833139,424.6987992843759 179.45640773964556,429.8966812515463 179.09616411315443,433.603205187292 175.85512708464645,440.8305619339642 167.31143209224538,449.2223667070035 165.2386767112949,450.86779838030077 162.55782306366706,454.86179954212514 162.14286210327728,456.62808105171996 164.90622580647909,462.6364617480526 165.55589828454188,467.0889826529916 161.88523058955937,472.87020529972006 159.61340709346806,474.7121381955859 155.71422788847508,480.00998472328627 150.8249924472352,481.8484113217247 148.3753864753614,481.4577671921885 141.44177945484077,478.5142677930089 134.88270348158926,477.5874903722132 128.81726873782836,479.0817618571657 126.89014323653686,482.26903933576534 126.07065210469439,489.0151750710089 125.17628333603962,491.084634258602 119.72098347974772,493.52333848344006 114.20393150661589,491.4882306582226 113.00988787807152,485.7038203826203 110.4237416661322,484.3781972179927 94.12351457972899,486.10912357507425 81.24628028738172,489.3407468343231 68.2132680245501,502.8567102303639 61.338552900607695,519.4733982586249 57.11599092271167,531.4883658866954 58.1736994090093,548.1588879360153 53.656937556164415,565.3080501827994 45.90089444810365,576.3402606313163 34.888385759499435,589.1608862622113 22.80434943775894,599.9449947202636 9.52723793254375,610.6596825317149 2.914651306623212,622.9337309358972 0.0,632.6504090591918 0.6615127771469124,642.1836694169992 2.9609981917254116,650.6203341406889 10.85861316427719,658.1851682375843 17.36538287512445,662.1195659284455 21.931301940486634,665.5403705024678 23.443830491374438,673.9304885395206 26.296325770681502,693.868991064709 30.478344041420304,703.9944407925402 35.3372510068185,709.4163034006954 40.39065080149256,717.9984734874354 42.04494885469904,724.0264423480446 45.60126260569346,731.3450747877588 50.88676425092683,736.0046751479065 56.99420200927212,739.9071903278239 61.48012012693244,744.8976852963643 62.054889130216075,748.8883562114597 60.36765611441381,757.5024318763651 55.80587396654781,761.198821635202 49.322421813400545,763.9923089753142 46.33881587281455,767.780955178702 42.78866976250847,774.6969361043301 42.078507741681506,780.1984630603613 39.61961859862932,788.7552895173008 34.40735959369766,797.1575151427122 26.82967511439899,805.0415350678065 23.639370379887342,812.7670321074165 22.08837940159177,826.1264205342795 27.637273712152187,833.1692279798581 32.06398363182033,839.3550696016684 40.48977936428906,844.1767136032673 48.71400444734747,845.8343123079035 58.868513291643474,841.6617428259906 68.2679953808128,836.2585609936007 78.43447854914885,831.6868018019666 86.18237874501582,827.7692690589948 92.9484436219583,827.351572883995 100.97827166234664,832.5446062369333 107.93764980956446,842.8306375581615 110.85115977311213,854.4623469970145 116.30414262134568,870.5830483332447 123.67741107959857,880.8732363630113 130.00368143577793,887.9510794295776 141.0802702842925,896.0653652737863 153.26369726069092,897.9222380822546 163.54067593995234,898.8642420179257 175.12286472381132,897.9077924452487 186.24117553505383,897.7135826644038 194.44651973489852,900.1199586615647 205.012709833367,910.1762245765563 212.24198729268207,923.2099504610095 216.47707020492282,932.5390918349547 221.7156382402797,945.4768929717706 226.32960121144603,962.7305069661534 231.79473866393948,978.8486399120761 231.72224181304617,986.841944615319 234.9813371747887,992.857868207828 235.8760631353064,998.0514665176031 234.8824397067255,1008.6730989655981 237.9848511755396,1017.1497894702383 242.4221702382761,1023.3176309189482 247.93974071405927,1024.0 256.71523037096483,1023.6721483269666 265.6902675050482,1019.3957914723125 273.9063450231281,1014.6819931922055 284.0142378003143,1011.6476375115628 293.096548920437,1012.5248743360041 300.28174050695924,1012.1148396908969 308.82264692543254,1008.6076112017365 313.3534796960612,1005.6758867246109 318.51941839951644,991.7115608983195 321.59228644092815,979.2028689717636 323.1836620545371,965.0533120963128 328.5634042580632,954.257232064322 336.2148145858112,945.1691321522637 344.4649842084287,939.6794997224596 352.87408670121295,938.1516173087505 358.24235456567595,941.6170903701668 365.0705752782211,947.5191218993318 372.48283407409565,949.5063941848099 379.94610138293876,950.7069298837165 387.4664683557841,951.1223190184351 396.4290713950214,953.9949247506319 408.39489453717357,959.807374619008 413.68638235728895,964.4442738080812 421.2827228184433,970.0245852674229 429.4189743807119,973.2496063368416 439.32009869340504,973.4112377141113 446.7563224003351,975.0284136365517 454.4596688183128,979.0258083953504 468.13234468633937,989.3090768836637 473.603709669002,990.4233983962438 480.397599506703,989.2270527701596 487.6940162640927,986.0945467704687 491.9984004660425,987.1300015652198 496.9308258902906,990.5799716797043 502.1406399282258,996.4307801344638 508.20729472822734,1001.1325206378738 517.6023641022888,1002.8714468892463 531.8834780344845,1002.1134507526807 547.6021536001822,997.0943923544213 556.1802750858699,992.0572335474471 563.0053441316569,982.9553611421074 567.5927166850796,971.7471711273372 571.0059646629326,960.0649173992027 571.97176759862,949.8382601956195 572.1086302332362,940.3554884526095 577.5738971417718,927.2150070452107 587.3889284874557,921.4478601665126 598.7344172579642,916.9527627722307 608.2026946894777,924.6081750252331 624.7027774297724,934.2470333050252 634.3836706474929,938.3480619551985 641.5984694815799,943.8987967525195 646.4447399237147,949.3125426614079 650.2308716997793,952.68096054898 654.8653218212152,954.9187248940455 660.7797427368131,955.641193328805 667.6468092906306,953.2442877012448 668.9662007304353,952.3001666345101 672.7037030840434,953.3227764179476 680.8334151512064,952.0514678527408 684.9395434206507,952.7594512654607 690.088222854748,955.0062741825218 696.7944988701884,954.5498190804958 702.8570681610323,954.4822825027318 704.2511416539604,953.5862877097359 706.3647781162327,950.2889929098383 705.2687031381705,944.3994583544802 704.0131951555654,942.3155287631954 700.9269771550964,940.3925476700101 696.6024875477339,939.38286998839 685.6262001073062,940.001529374754 680.9959894583344,941.0463306008268 675.4576549707776,941.1625245432595 669.0005881101252,937.7092426575923 667.5881068297462,936.4036527923028 666.8493237175691,932.248267305054 665.7774899080687,929.6606851200884 660.995201647501,922.0943314143516 661.3462887843285,913.004521845668 662.8257646020411,895.9921554442644 663.1534111412556,884.9147069632564 657.9223900770369,870.3184819310547 652.3308799633475,862.0471256677015 650.3191703259042,855.3427430027792 650.7687398851405,854.4271760033297 655.8595583573863,852.8013133960533 659.6456295695804,852.2741903117399 663.3572166830896,850.3927164183755 667.0767871762313,843.2530341337775 669.1659361427048,841.905052874628 677.8065956239541,841.1929179195397 680.8818368797159,840.4873381903212 684.7755308912364,837.7143234004858 683.271537260109,831.1631528799511 683.5636900751033,826.2866162557887 688.9787978242127,820.0495700691239 693.5667975776189,810.241170779529 697.8066805328874,806.5870150365995 699.9254907170728,805.7255643995077 703.4838267940803,801.8910034978642 703.2592660728657,798.6878477806307 698.2382889638884,794.8919476320514 696.1029090738274,792.3494370548718 697.7705345380014,787.5246940808358 701.2605471627999,780.0460698795132 705.4202454211504,777.3598639662691 705.4303655523885,773.9983928056123 703.1987476441753,766.4049310255243 697.2984840196923,764.7881533485036 696.2052447275265,761.6137207473973 697.4009702853226,754.4679355213855 695.4680247212407,752.4001142149427 693.0031290775803,754.1527103048008 689.3655930121015,761.1054266665587 687.3318225872212,766.334092289027 682.3019893181587,772.5510847224165 677.401807927935,773.9998784957884 669.8690834116804,772.8335492989598 663.5654826902327,770.7246048642918 660.5729197526753,768.8010130306702 658.2387458399417,766.2623213070387 650.5830580959722,764.4070105263488 641.0597388878938,761.294875053849 635.5056106833116,757.3777306458198 629.4950804712803,745.5451867393974 627.0566354544542,734.4961217134751 627.7717106142554,722.2288486458025 636.9007862052471,707.4464819540012 645.13168789895,700.5847928966564 649.1404516310868,688.5566660298464 658.5298299203306,683.2584066346162 660.7977492941251,676.042116201731 661.3782530036817,663.1311889373977 665.0914204228512,657.6468322962762 672.3621167005596,652.7196286928661 671.9640231077489,647.3114556655198 666.0614203677851,636.2909572272001 668.1741779694675,628.75384239387 666.7606497452384,620.3865852990662 665.854615158394,602.6036953355049 668.5040435788558,583.2227636721709 674.7757693585446,569.7382010575518 679.476082006473,562.5870876377642 686.5675894862571,554.6218549241031 700.7739769388169,545.4177158391135 713.422820145212,535.827009130454 725.2559904349177,526.2442020587371 735.8988151978521,515.8625818908968 746.5298393142966,501.14734958849124 750.828791813696,490.03819095265544 755.1130189888952,477.3527086694369 761.7612819953089,461.4749226438497 767.4635428926399,452.6555482337452 775.946005962403,446.32889525252654 785.8226938995023,435.96377788479776 794.891138417066,427.18360921005365 801.5876656787667,419.21644582089255 805.0876230092036,407.72150379483173 807.4131801013284,398.2043721815918 805.7516452119985,387.9511233022389 804.9178403802337,380.8327831296019 808.4560186839942,374.4816768965662 813.5753619815459,368.10604099791146 820.2864744474784,362.12418825985014 825.7999370385114,354.9572029202061 838.3969558483316,340.22428691786774 852.9444605913951,322.3179083765258 866.7427669997454,309.55981828987797 883.6704080006969,292.03674416055185 901.0043654018988,278.4778428529246 906.8462971838906,263.022661479445 907.1391212022261,247.61145627575797 905.8842300745158,234.97144963633218 903.4160825750082,220.3565476978922 899.7516256803394,204.57276578503502 898.6255545282002,200.89001452581897 896.292329823233,196.31087358960883 895.3989779777584,190.30873263125227 892.8828421760394,182.08759059614374 888.0918420215679,173.82630166826436 878.9400790099161,168.36471403077246 873.0030516140106,167.6139771711653 867.038536354751,165.29049496582218 861.231412043987,160.61648109077487 855.2033813995197,161.53346418005333 854.3271879073341,160.3537669927 852.1573794825019,160.97081210229703 849.7713345791717,159.30786036444363 844.3180937845228,149.11339685699159 844.0626055126362,147.47355861340338 847.382421762051,139.86457499215737 847.4647130618147,132.50177060644342" /><circle cx="513.8424595202114" cy="530.4235195281848" fill="rgb(100%,100%,100%)" r="16" stroke="grey" stroke-width="8" /></svg>