<?xml version="1.0" encoding="utf-8" ?>
<svg baseProfile="full" height="1024" version="1.1" width="1024" xmlns="http://www.w3.org/2000/svg" xmlns:ev="http://www.w3.org/2001/xml-events" xmlns:xlink="http://www.w3.org/1999/xlink"><defs /><polygon fill="black" points="863.0706750389418,603.1726039007824 856.1563145842198,598.68857590945 851.8255482162283,594.9308775265634 848.1548178470824,594.2357118793091 844.3411331275614,595.632702075523 838.5683178443169,596.6853832889483 836.5179086722223,593.4841996137508 836.9572649355312,591.719257626969 842.2561453607323,584.2228635703641 842.5498552206165,581.4217987328921 841.3717323267446,579.2121248397012 834.6084829831484,579.0678579949617 827.1051289969234,580.9751799088352 821.4119679007879,583.7088837324346 814.8041255170865,583.841679460992 811.0460818236257,582.8050689720985 807.2623254737864,578.2156174987533 805.1788444389274,574.2566491111485 803.5091789791311,565.4798887973375 801.0734785614867,556.7072354103743 795.9785309925095,549.3394697400371 794.0354890285074,540.9313374597602 792.4123076779706,537.5659069553485 785.8973836227799,526.4259713209078 784.5414923102206,511.81685008141915 787.9294691172482,501.48618455383087 791.3149818745165,493.7427514773285 791.7063983132264,484.2825499035606 790.8218850054892,478.2757519626713 778.2408714452337,459.40918038944835 771.7779055647419,454.70809321160004 761.011418941374,448.73334801050726 754.995668570298,446.1739694379381 739.0893996467307,443.21887075502696 724.903573595831,441.5354117916296 700.9021436684553,447.1894813364786 686.7870245461382,456.2514008779167 678.6726791920352,463.5760037194549 671.0398647002379,480.3614453808066 665.05831802067,488.11000016993205 660.3797137454202,493.2796350509028 647.9882663834969,504.4878248071151 642.4139817893774,507.9502039264589 631.6915873076026,510.98189455061276 625.682490867774,510.1522335567021 616.2235430797607,506.7510471154336 609.7744949768456,507.1967286305162 595.5998087919484,510.2627717193303 585.3065552436692,513.3138403700648 574.1291691482776,514.2340748275968 568.103317891006,513.3919117434373 564.2170506746605,510.4124823607067 562.5207599909287,504.845685043235 560.4684048617241,502.6944074915167 554.6122654394023,483.3952467272312 544.4746940446591,464.4164880292153 541.9979210649818,460.25890909885106 535.9710702425426,456.41533816501226 528.1809437308058,450.882638293597 521.7193184257274,448.7709186177168 515.6430381973624,442.79192951507696 513.451393918939,435.9388208926565 517.2946520424397,427.3214784255947 526.3085070159726,424.2562285840661 531.9137290948064,422.92458360386934 535.7501843746214,417.7456604931177 537.0302857160339,413.44416664961625 537.7284082698583,406.2147225657227 536.9479240583323,398.827862306924 539.9351551559158,392.3675860939139 546.3347740448984,381.58591195083363 546.7094719504186,371.6968634969928 544.4888356721171,359.253076542112 541.4378600101165,351.1004939631582 534.4989530263571,342.5458892551502 527.9983144653672,333.56727185523016 516.6247677650473,328.1152110545654 513.6896492871742,321.48766030901356 514.4693506946709,312.5083739214898 507.77492395266125,307.09144514931677 505.91205362565347,302.2819068194377 503.52309963770415,298.02134206285587 501.2604121611127,297.17088664192397 485.3651820417722,268.5531389213487 482.48665000652767,261.9878816356006 482.0780063888539,257.4842301855633 483.3116031849703,252.1487153136144 489.0652304769339,247.217188384152 502.61319611692625,243.91378925574838 514.5482351839416,236.93720868399066 521.0511985722746,226.3373344495211 523.0257184700362,219.3514029813482 527.3669682022154,211.38658575366242 528.9220089117805,206.32724199212294 534.7283160655672,193.74070904678047 541.2235884855589,176.84844564308014 542.5934294833872,172.24921149369527 550.5223481550305,147.76086156045267 553.7254227480074,139.56045256426057 557.6407036042547,128.27818865090944 558.2790063794716,118.4979768970112 553.5398991820626,113.79990412318375 547.0480022661366,110.39872947055039 538.8496537669666,103.13238057991418 531.9159238838596,95.01247704855689 527.1173113630766,84.72722375251817 525.3557175020268,77.8568210540518 517.9812605491752,67.15413684508235 511.9448239805364,64.19084264151923 500.2249048852004,54.05835109669101 487.5409088339769,66.8372532653633 483.93041167689535,68.78074445604545 463.54929054778427,67.64987368213326 448.96864543193846,63.880265388637554 442.46620193954055,60.268612811806406 428.4530571610053,55.88625878353582 416.4106126404965,50.8545533758346 405.7332199361998,45.57994644545329 396.6875590927598,46.17125683100983 385.9305545513317,50.99025060877443 376.48936344558814,60.09548467722186 367.49462394388576,72.63440017480775 361.10541238816785,87.72729751215331 358.57827584762225,100.63833738182245 353.45974376555495,115.29408024182953 348.3329193072189,122.20793493045346 341.8804393771766,125.70521775618329 333.25280162688915,125.34257062657048 323.74417398243463,123.26402363306454 315.11630401422883,119.8833324557238 306.00818965422866,108.34431966260718 305.5326642606062,102.34066223812249 307.24514984083436,97.59492569392387 313.68270965931174,92.82422983951778 317.9360201477737,85.05842530579855 318.7569466614016,75.60042024077086 317.4096155767497,67.00314533938581 307.01102948793664,55.240458380976065 300.9771465222127,49.2035862958312 297.60074359602,42.33096704341551 297.64242097385323,33.87533947809027 299.34518965987985,29.554677639250258 307.3218220567192,22.69740430601098 308.6459851417896,19.37923999027089 307.01595687833895,16.982673900756254 304.28595857053364,16.266135935154693 292.1766488157351,17.870185607312578 286.81296694465556,17.966103524406662 279.6653762053347,16.716082183720346 273.58879992044007,15.15663215644463 276.2192004737079,21.035818790308326 274.0031506719341,25.12768930526431 272.9566443409456,28.88612641818088 271.85330564497224,38.23093231986172 264.92756621835713,43.63990655538032 257.65864714867934,45.53018243975532 249.00729358847934,49.03002068511876 244.8571561943516,50.26383964893239 241.38683863049775,53.381658983257694 240.41433820234306,56.902720325726705 237.8669512278943,58.07629313132679 232.9700727227201,56.30764748677859 230.05198677783224,50.82613687623598 227.49936697518152,47.30536682009313 216.95208802818587,43.17993639297549 214.99821302813197,41.22453698016511 215.37964057310893,32.42072844289805 213.22529997256342,29.081884434957374 209.71881190143125,29.079652211770053 202.87682212981858,28.28777679650375 195.63784147742894,24.75680343648355 193.10308317905796,22.21054192560473 187.8316220689979,22.002878547564933 183.9153802963535,21.024717264084302 182.7527426922186,18.671604024836142 184.89133631534526,15.153042787638583 185.08559392079638,13.191856116012104 182.84148192310823,12.184595676815661 176.55219912930636,14.946043268034373 164.57743728229497,14.822227949495755 158.32064912679334,15.39641629403593 146.2219573037563,22.2138973863307 138.01541050589177,22.594538902939348 134.9323886500854,21.71536085235448 130.28809659776238,22.229215022911035 118.59921098030509,20.366605120759232 115.07049454668854,19.535938052502956 109.49073707014693,19.249259693521026 106.92794213479519,18.536761689506875 105.3914224634801,16.262659618822 102.46791808764958,5.692663717990854 99.5267728125716,1.7747802412710598 94.26480122670337,0.0 85.85077170876453,0.9605577190079657 80.9709067605854,3.105677907490872 79.21564696856029,6.045740807195216 77.60428920350184,20.690396963506487 78.4230990924145,30.69539525754351 77.64326319927368,39.60814736381542 77.86829515702867,47.169458554542416 80.96859841740341,50.66009729662915 82.13684351454162,53.40662555128131 82.14432270293744,56.93077230121867 80.57323702503773,61.557763609658195 81.08596281327632,65.96239624543455 84.64872583973977,69.27113295675633 89.69094708295663,72.45933233613778 92.39316340219922,75.22290162876288 92.22136209088238,80.05461813801026 88.835180652024,85.116660579582 83.27985809691644,86.86881426501338 76.21840159771787,87.6617354775982 72.27094827693593,88.54799996913914 63.12233206056436,93.98724936082249 55.48689379339314,94.02173980655198 50.983174619608384,93.19504306902422 44.669101653121565,95.70561021703259 38.37052683109403,98.64992823225498 33.67451791531687,100.39762829201379 29.272361838657453,100.32489831610883 24.54864440748785,99.39836427169712 20.88562126010001,99.4273526335553 12.56164788012079,102.92476143899592 8.298178743486586,105.95797145727124 2.1731014134192037,106.22569802056421 0.7538039071258948,109.38959061706805 1.5736661656866648,112.34997601251007 0.0,116.85269670100104 0.0030229394991885135,119.7872495506117 1.7596393212963,123.11585967641042 1.7598369661046882,132.70384611705924 0.6840216137556111,135.5195584343321 0.038101283489185664,146.8905389738792 2.3684617745735563,153.62154586076417 4.966421897132236,156.39914061200068 10.948612536179711,159.19194144600044 15.781051497716494,156.56297776326062 21.879124381981388,155.18558696374419 27.407977033405025,156.97106452816365 29.57762061601792,159.32878015717358 30.961937566841144,163.46441994079407 31.357840205496334,168.78621038983738 33.72077175456719,175.88886610465545 36.868645417545,178.4492386793146 41.59703439178934,179.04429541930074 56.76394494744373,175.51583414684922 60.29418077525445,176.30644825348634 62.066348531003335,178.47588666648176 62.46991414677945,183.2061274952207 60.89752013127214,186.74731317772785 57.53753450457228,189.31334859277308 49.86971616257978,193.34934176514423 46.59664188538366,196.50515326932907 44.274817412449984,200.27577992831414 42.31671602465407,211.76617678152934 46.095681818185284,214.84560744256942 50.6186907703751,215.67228682083737 58.33212704568674,215.8223121984215 64.99467354962367,216.64472479721974 72.51576210851023,220.44894689695184 74.57864316788218,224.18931813670088 70.88136797338923,228.72074045761838 67.14190652724155,230.14221071772567 67.38835322351842,234.31733878680677 69.23041146799005,237.41763393085876 73.12108559865,241.8947293367479 77.3385450584969,245.40240599257857 84.7539873738832,248.15061330946514 89.80770173251246,250.68947556338208 93.59066432875565,254.4212958626939 97.13293903200406,256.43524560233163 98.35389566694231,261.14417596724786 103.53924278473544,266.3681601907174 109.49556732002645,275.01151911430827 112.00640295593429,279.8220745974719 115.67383792596249,281.84487259737443 119.62382545735024,281.39414983484903 127.19914110152983,277.9151641738364 134.24124860719257,275.61662394173993 140.6729227681386,275.5798466954276 145.38837781916573,276.8374662647543 149.16267685807307,279.3875619217232 147.44112712305767,292.1647639869934 149.30312969360816,296.3347326708056 152.32092563430882,299.8522835922779 153.25945190731815,311.0604363148949 154.91806167345388,315.71112475967686 156.0518235849078,321.9167741440018 158.65996342724804,326.6241648243407 158.47777483878232,330.8085343610188 156.48250165443412,334.7844019862913 155.94245562468552,346.2593033211376 152.9993658428383,354.3202761222419 148.36599679916958,363.67715957465464 145.01222693296967,371.9527314086781 144.5098175461946,375.92540293022637 145.24021197363157,387.28679395583197 152.79309490505193,406.0050917385182 152.20444607169642,412.1185148566527 149.55450655783451,415.35113513974227 151.09512812738947,421.2410303436892 155.42029806482907,425.069479765727 157.90966913396468,428.38087101473036 157.85938330847296,435.7709050237943 153.728310451984,438.592783530917 153.20551871285838,442.4628631120735 154.32721117931496,449.5240460297748 154.18662972485447,456.1706931295199 152.34973804052146,467.4448446116676 150.6889914210493,473.56901620519693 147.12608804545695,483.02521543702323 146.34321969080435,483.99306645980766 146.1421306462006,497.98300871394497 146.6280115093111,504.3812451386127 146.63244058555549,510.27859647239666 145.15681864390945,514.458660451415 139.30455266360005,523.6653124704693 139.0206693963374,524.9877359353002 135.84214123449559,528.2196368819369 131.80190423576028,531.3631434988316 122.97170150550127,539.1242726378623 115.9997760845499,548.714005400478 113.77021479337672,553.559656994651 113.96019162343835,562.2386835677864 115.39166447587573,567.3670062896367 118.42367994899308,570.5668219679401 123.26785539595974,574.400423811494 130.27420342660648,578.7494864954781 131.90991118711975,582.3882445180943 132.8128996443961,588.491167673938 135.4006962998626,591.3763904370057 144.62353418852942,593.1421483383169 148.49764085286992,594.6241588359198 152.04896765986368,597.8147459201718 153.3791922433118,603.1635975251932 156.40269302071357,606.7898308697063 161.55823908832195,608.1562354481428 165.00730067001442,609.9671422677036 165.9081793826371,613.8166295833279 166.15610724231175,619.0697301910818 168.8516315138986,621.4118832597777 174.44678647587415,623.8410685724671 179.1476099972183,624.7787868799207 184.51530880088524,624.6344093030364 199.79970121865298,620.4657035942535 205.27038811391375,622.7820938293169 207.8623619920357,625.2416275980415 221.31585272445605,641.7789788401931 228.23764243791194,651.6854496321225 231.2537326899321,654.7718848795532 237.82726870141136,658.1595856642828 245.2111597447699,657.6773852255114 254.3391725568743,658.3080765616958 258.94577076429283,658.3118388278106 264.1533018160022,657.5245003758685 266.35511867582414,658.223391889503 272.4805054218051,664.1540649545976 282.57962734804585,676.4982676464549 285.35853231307044,682.6016202211134 283.43422091035666,691.0954541928738 271.77018683359023,708.8770070167932 271.14237980023273,718.2425932450558 274.04540407463213,727.8682648499569 287.30315978291134,737.6266063728954 308.02008143530975,737.4692526469946 326.14737903329495,737.595492407671 336.88437826734327,739.0367227292393 347.94478741617456,741.7818657796918 361.61686225197224,752.4008618922484 369.50862264027063,765.2866370762991 379.99863658909254,778.7506402719109 391.9405359078936,782.9341326094184 410.0725892864269,783.9988707824828 425.0275178091945,783.0927983866327 443.0671206136802,779.0726991646567 448.382515934669,778.2267669722937 451.5706272285746,778.3761650167413 453.9134994456147,779.5817296395006 457.9319648997621,779.4238161600197 468.9054604449641,780.6054951594057 474.092409285656,784.2236986360332 475.6604395139007,789.1027142992275 476.56288960942936,795.1788465204722 479.0352760435919,798.5456024605558 480.3903850219009,798.997931271959 485.34849522703985,798.3130779327714 496.15949401585334,794.4743608575915 501.34039408276095,791.538800571238 504.4845153536086,788.3919520857289 506.73809134252025,782.7664216138182 507.1925818117818,776.0193496093241 509.66489979120075,771.2938022920711 515.7399509792288,770.6192436067151 520.2473781089972,771.7426345337386 521.8238594449043,773.3136860073695 523.1737050553015,784.3324639687316 523.2781788776324,787.5856708146534 525.3595394975762,789.7406730417783 527.3163968374672,793.2606936643867 527.0275868003301,797.1146181895398 524.6991165524416,801.961221332153 525.1631677776021,805.6045548424812 528.4977773770117,807.0697937617379 532.8951648965735,806.4991456921368 536.4679928416026,810.3333392348397 540.5634196210609,811.9095982450249 554.4361051507411,812.2223644463695 560.504885336141,814.0213963077013 562.9805541000039,816.4925143272706 562.9774207189138,820.5377096540167 560.4996982086947,826.3890011390438 556.2305489678181,834.2599486221234 550.8389619846805,841.9009915148788 547.9693786343508,842.7971053916215 546.5176167654365,844.2300656847401 543.1315547926388,849.514064166019 541.8471314146387,854.2196083174695 542.5751098270435,859.698028889575 545.1142181611586,868.4314275613106 550.262370932984,876.4589397130839 558.9844795888167,882.5268668482399 566.6116552159118,884.6841378373134 572.9352133265065,887.1857955396845 577.7809245298697,893.0470949448653 583.8587001351389,899.839721813109 587.2185020093546,909.0589827193504 593.5348126423158,911.5714965237161 601.3529510551423,910.289131325689 610.9908464447285,907.4107510235572 618.6667764009762,900.9695730296464 626.2536337478355,896.2482004945862 632.3884572778217,894.4557553150609 637.4441628227448,896.470682354948 648.283569236298,903.9736810667582 654.5288598727188,907.4030966353233 658.975846772269,906.587637305882 661.3957773374146,903.3269878326543 667.930874853429,898.9350505154667 672.6217072883169,897.043832522241 678.1441889207704,896.302684164083 684.3506268758864,896.3081883375363 691.2044291370984,897.9539342861056 716.9026136134105,900.399382525764 721.2130922559869,903.406030448052 725.1300299786195,907.8467526806421 728.8506678217158,910.8647845108915 735.891878871322,912.557958068043 741.4732499170665,915.3203592883194 746.1500273126392,922.6081949553281 756.9761201267752,934.9869079484566 767.0289489903998,934.852769589126 784.6001881920122,937.3570752066702 790.9178398165543,939.8341933696136 792.3309300360248,944.0632573835862 788.462233202727,951.4558390710203 781.4305993899862,960.5881725271544 776.867444041257,967.6216496781672 774.3561383064425,975.6235859863498 776.4118947437908,982.5058423354621 780.5690933452556,990.5316271626514 785.8038102437349,995.6025857223807 790.7795445264748,997.378146637494 795.7120919396455,996.9679027577521 807.8804433306606,992.4077751158005 826.7131420805856,989.8669740350808 832.0983607677945,991.8524815442904 839.3549508142991,993.5814079369682 844.8690404710152,997.1029041929154 847.4386027518104,1001.8833080073067 854.2323770907357,1010.3774654329013 860.3655467790217,1014.4403563057015 872.729033383161,1023.4155430870385 878.3776249068341,1024.0 882.1234169339299,1023.2055320179875 890.0970822879357,1020.2549697745661 893.5247268920924,1012.9180077786986 894.2337506209599,1004.011014574195 893.8315020660027,999.3968567876045 892.6396481732273,994.0385990464463 892.7354311404973,988.7684686191253 894.1873184299887,982.1397761254964 893.2678938255871,975.9017138992567 887.5978545653575,969.8646694891711 876.1789923814514,963.4531276336717 864.2431527007908,946.6649574753351 862.0725261955777,942.0864045653718 859.5728799019095,921.1559031439161 858.2958955685017,906.2364863961202 853.0107125258356,899.5788634930717 851.2837314508164,892.0371371156584 849.932751722821,879.5361006117818 844.1796669569364,868.769101886646 837.2732423593185,864.1207175378865 834.4257201387659,860.8791528190665 832.3919509603676,852.4617373724698 832.5695661503277,846.851222631291 835.5255062518657,836.2538618268143 835.2218585298278,831.2033824935746 832.1216911034307,820.1339893836907 832.9607353815132,815.3957009800824 842.3719244246537,802.8900595809462 847.5200274197603,799.0010522381142 850.5687689960874,797.4419519413232 853.2733757947144,794.5361904879007 873.334221638128,768.8474221892222 874.8808081277974,764.8957817238271 876.1318908455004,755.8522298939364 876.0903990359362,746.4117723425559 871.2646597114648,730.1095271540864 864.7143436844179,714.2502874532852 856.4949438101241,703.9774789753119 847.8423239363187,694.5781039878151 841.3301440126118,685.165274187641 840.012748905261,679.5772813614078 840.8582552187986,675.7148650902791 843.4182712432225,671.4003744166472 846.4076855642858,669.6663512663949 852.855085733711,664.0469503882323 850.77978958187,655.4002477229114 852.1897079140567,646.8066385532541 853.4902839354717,643.3074814291167 853.9071682487802,639.5154172001997 855.3927323872226,634.7562765458416 863.0706750389418,603.1726039007824" /><circle cx="298.36326075138237" cy="237.77377528347768" fill="rgb(100%,100%,100%)" r="16" stroke="grey" stroke-width="8" /></svg>