<?xml version="1.0" encoding="utf-8" ?>
<svg baseProfile="full" height="1024" version="1.1" width="1024" xmlns="http://www.w3.org/2000/svg" xmlns:ev="http://www.w3.org/2001/xml-events" xmlns:xlink="http://www.w3.org/1999/xlink"><defs /><polygon fill="black" points="661.2141516467104,75.5657364854826 654.4203783996956,72.70891730707433 642.6339951481823,70.02010480470301 637.7908944462497,68.18203517003667 624.5406108746892,61.62548050840746 620.6887282628886,60.56810851229761 611.8422473326463,53.61458774836126 605.228987650092,49.313513031356365 601.2457850894551,47.79927385321014 593.0859811712129,47.136197138190596 590.9091202089829,46.14171264218737 585.9822169845128,41.92607773693885 580.1364132107034,38.001679177824485 576.1956035317876,37.625059085726775 574.340747888314,40.98267565601827 570.1789183246665,41.14559177903334 564.3495479630046,38.309607463585394 559.1034089696473,33.917220488864814 554.9359819184557,31.903311549646673 550.6852620775945,32.23292690909966 545.3294318181919,33.40264904106664 540.5579023257513,30.472794351154675 534.7717324604619,28.496993452546462 527.6425564566094,27.6158535891916 521.5117547033744,25.14554761565455 516.2619092675139,25.882275531398477 510.0681678719714,27.743702295321896 507.98969762275937,28.930373345375074 506.4540680063554,28.36012239289039 499.13941697318165,21.378343163436625 489.54790849741005,14.832396354591197 484.38504177573634,7.605078630988714 482.7309758898997,5.8674838097338124 480.6186478481855,5.867597505966387 473.5600955160126,11.29963522072444 465.2437662431068,18.462688464694907 461.14017042388116,20.702195475850203 454.5456658614937,22.183620468520076 453.9234060156328,28.622651547000714 452.03717847911594,31.804742879543028 448.61281220544515,35.85328047880216 446.62002913846277,37.13048348686516 443.40155958472985,36.18474662035908 439.39125227953326,33.949283995084784 437.5011318079539,33.69469799756996 428.20133144473573,35.2831112017177 425.8028757946189,34.22219107288129 422.4335772006414,30.645654515557908 417.3372674192604,28.69665335576542 416.0389796621486,23.582672485840817 412.8804269165032,20.245797029662526 408.90832706927756,17.54834838184422 404.1854561403236,16.79022603384135 400.3898883283891,15.162328571666308 395.98943409736336,1.7567706728025314 393.2153851493375,0.0 387.9952037203276,1.767292885994948 385.4419389665524,4.2092548699152985 383.53929728239814,10.179795749154891 376.40411214767636,12.975231247155875 374.8854934932444,22.044377655995618 373.59511356396274,25.979423876805754 374.5078915793224,30.97944740095761 373.4075668746268,37.10434374991894 371.4115907810991,42.25877719674986 368.5598542591192,46.74984032957491 364.51510684907043,52.084393423084634 359.4787674821413,61.366188805274646 357.68847839332955,65.6857366338104 355.9197525982743,66.79105176808844 346.8047083720755,68.64687060955146 341.68495651351446,73.16934193416762 340.2967260953816,75.44477613192169 338.089602778617,82.76014255923656 332.6245746656444,93.23583436162528 330.92088353714996,97.32560068600208 327.9644784147398,108.59363233980798 326.6821761564029,109.81006702691184 321.3827812450331,112.18331016862248 314.2829433268387,118.25915549547733 310.11403635262263,118.59100956299199 299.87325050992513,112.36758920326156 295.47336393057043,112.33477744762672 289.72966036667816,115.52942712144272 280.5845411235006,115.82255369908228 277.23834830178833,115.17512568043765 272.0462802125357,111.58348923553149 268.60061162647764,106.41314923423965 263.917747577472,104.36513595290694 261.6174446237487,102.48922169418768 252.2248085705543,91.84791891270572 243.75646385247566,84.48813325607205 240.84695464718172,82.40161114916896 238.47183169349327,82.80581976249732 235.08385294707733,85.513833538825 226.85679378255415,90.19021841237202 223.18301242848597,90.26923141859413 214.80078663204378,87.57284661735935 210.2082357419858,84.4444052782269 207.7005077296603,83.68140365148179 200.48220793131003,80.11152596125282 192.88281011873784,75.62911402925374 177.88926549845505,75.21286388518536 171.3724071383149,70.83165844882342 162.64984560015952,69.71234208397516 159.14390945884804,68.11333310940165 155.0145767974309,69.1590722894772 153.72846110276424,70.25976580737415 143.38911586260718,76.54856112992786 140.90614005188445,77.67072407955266 133.62622289318847,77.13618487024542 125.8191903174263,74.31843815174761 122.58412090375828,73.66528996401894 116.04197863528218,73.70600255998863 109.7312277016182,74.2026384476984 105.41929422870318,73.22999788417007 103.23208300054178,71.72823820091162 94.3098313106731,67.76841635585015 82.93638989702524,60.38693320918787 77.89514092056267,58.72490287220592 75.14499812001566,58.42673780582538 65.11668417994716,58.53666962663863 56.78748795090948,59.34069097164024 53.10953477385952,60.48465608195181 37.18220103122325,64.17317580464339 31.492304499943007,65.30679225067001 24.911714271638665,69.3870844859307 22.237238860525064,73.26126194618712 17.921513973508866,82.54434046505423 15.691672953941536,95.36508123816054 14.600556095064398,99.785124901622 8.119051436576187,109.6905416294428 3.8185403928613457,112.11143409067301 0.0,115.47135023824114 2.271065198335576,115.99762586125348 3.7777475353390755,127.92363981140988 4.325502969992777,139.85368310684987 5.350604257434531,153.20815023068235 5.4378303747699706,167.05127615573542 4.991215685139782,173.73461610777883 6.020945184427112,185.6563017924684 7.01756023380848,192.33347112429806 10.417395782120524,200.89739388934242 13.812600945540733,206.11717864160732 19.579530600920663,211.3253005987516 35.897624592342865,215.96288640690125 45.00954719656723,216.84339469823703 55.07492149480638,219.14782721561073 64.64148748349724,219.5531806255068 81.42852870878384,226.10488375633406 88.15297514728259,229.86980255175695 94.3881272338593,232.70407439487826 100.65235547699325,241.2473340745604 105.96408523457251,249.31999053097013 108.8759146556355,256.93541353416697 111.33624442345595,267.42814939833954 114.35768830254561,295.56068526700335 112.4915664180646,304.64977659990404 109.74183340679753,323.7660234784245 108.34011618743635,330.9331781634917 109.35330609898716,339.9981558930076 106.54267115788868,348.13746884750924 105.15783260292314,357.215742199671 104.74260695768653,367.24505462513935 103.83101850090081,375.84018366695614 103.41103212715457,384.4410786778899 103.52645144449556,404.96196110674657 102.17889706860413,418.3371508723553 102.22534572582356,428.8414943953485 100.88407884761516,444.1301518449865 101.90921052334518,455.5853429701755 101.08305344806728,477.5468558449684 102.09082705314677,489.00664996572186 102.2521301942961,517.1662873475937 104.72958659447559,532.4356099491272 103.37063988594777,544.8529990439438 104.87640334411684,557.7323240851647 106.36947030690443,567.2698040168385 109.76403929741406,576.31581822756 115.08750266100571,583.9116792391676 130.93441037747485,596.704342238211 138.13682677493026,601.9052671297486 148.6734333875654,605.6598979419944 157.28891338838565,610.8643320588485 166.39177805989246,614.1604533876882 177.8882285644686,616.478178428082 191.74151062339675,618.7946851322869 204.64198615810125,622.0811330379688 217.07147994132805,623.9299760805277 228.0528935218484,625.7961682798089 247.1397885519148,625.7226472435082 275.7624840495091,627.5309683315872 285.1982444408007,626.3161890962592 285.1883016628058,630.3086473353642 290.94713361723973,634.5166405777693 295.32492050227586,638.9037850983177 296.4522368935058,642.1467458277211 295.21145121199163,648.1803686249557 292.3878694171026,653.9281039589171 295.4075070200223,657.8608375990216 300.08650992670334,662.6416278138697 308.19827760322255,664.0880373464461 309.86077260343757,666.6478097624528 315.05781599162725,666.7304571069214 320.2476504571754,663.110384782502 325.85189217515085,658.4374915177993 330.7878883587736,658.9391819385278 331.8122501942388,656.8846985475498 334.6273688581776,654.5518830347454 336.42811828240093,655.0167422098557 339.03755113654086,661.0093699407827 345.0681334458473,664.4752926832166 351.2958596078167,662.0398136831453 356.1762239956767,653.7538521904771 359.91074229886794,650.5205244267117 365.18364529423576,648.7481740469777 366.6877550093766,648.9023070829151 372.6433355991044,651.7946080781987 379.19521006237204,658.0460968173322 387.5412814901368,662.9292390524918 389.02554900796713,666.0702268824327 392.124241921578,664.5324787977931 399.8748649165106,665.1289575954454 403.40286506128103,666.1531831240972 407.1836224445995,669.4757726908188 418.18492819185803,675.1499212735246 426.3486592002857,679.8740932331542 437.8871807055404,691.2656992873025 444.1562245350364,701.2427463492139 452.33902933233844,709.3101568142142 455.7156848044743,717.8853594474285 457.74627109836746,735.5414040397977 462.60740908128116,749.3501857787578 475.16219971840445,770.2750788138544 480.00630783310595,778.8314902101936 483.86813517269496,786.4387830281978 487.72990896312626,793.1067231265118 491.1455927423411,803.5798231508429 492.1583425107376,813.1232644185139 494.59443151921965,820.2771432276687 495.6704960347893,841.7505693653143 500.50583925439787,849.3530182797458 509.15403386990016,854.539636432939 517.8243326611237,862.5785848261867 525.0305709297439,866.8162044644375 534.6482874770817,870.0768039785439 544.2769379254391,880.0159757048762 545.8020395870129,895.7742149011386 545.8475228083723,904.8432535360255 549.7908463675191,920.2158752988579 549.703004000573,927.0018694023552 550.2747190524428,931.1614423590764 549.9920844009158,939.5192099168617 551.0620466651875,945.3245020401263 552.4581951221634,948.5233043647486 551.0162252431419,954.7501947543719 546.0663660940104,961.2645447313215 541.4960827471359,968.2823462539255 542.2953944814176,973.560111866452 548.1448096556164,982.9947974203551 551.065111697979,988.4703277244928 547.6806194601677,992.7947601310573 546.9349717229042,998.922556240351 548.8305748363125,1004.1065867696368 554.8465341263046,1009.4646743253975 554.2220743398735,1015.1141877464647 554.7747507354943,1024.0 556.7114813666283,1023.0679187335749 561.0489472578779,1017.7851670364951 570.644435567346,1010.9835325790293 574.4897142000706,1012.977029525582 578.2451763639586,1015.9852455788518 578.132605186344,1017.369336968582 582.9715384939768,1016.4787386717343 592.2039837867384,1014.0580369590641 599.1914357006841,1010.730880605797 602.0904877816697,1000.5709439576175 603.8097699359741,992.713067608096 605.608343371257,995.3230477579945 611.6828121008155,994.950034792184 615.4662248744611,992.4289626098883 620.0431054307261,995.452207724537 626.5795103879539,1002.2156353798052 628.0910572754593,1011.7028409680147 629.4533436629916,1014.818880619706 631.7922849537792,1016.3091272046505 633.7532976532218,1012.7240593682284 637.5823345181695,1012.3152807586881 639.0652761453629,1010.7747465992206 639.8411362939812,1006.9365208663531 643.4935817551951,1005.1497291580059 646.5608145524121,1006.772781821571 651.9762827848236,1010.7415611170377 654.0202121406949,1006.4727324711598 651.5923734081446,988.143521761963 661.2860484190485,964.3877009313551 684.2227697260653,934.6908686710706 684.1549249162858,932.6724559942642 682.3219846492993,924.0134091715975 682.0782705990428,918.8549869915628 683.1719418806648,916.0069007387924 682.9997602812191,912.456452656988 679.141525098725,912.6922896177323 675.9032468400399,913.6743313516521 672.7560404915898,912.2083528732213 670.4318254297846,900.4205428182407 667.0694193175283,893.0141741186521 665.8244913166443,889.2472041554244 664.799564150901,879.0002324191362 670.0683432175157,860.5294240771871 672.4957386494767,854.8721226489547 676.3419125504571,849.6689607644739 682.1467769176885,845.2101994436186 687.2971832545621,842.8845821886628 692.9570402752155,841.6581991734754 693.9150653233261,839.7533464023134 693.7103590619661,836.5350091809618 687.1142123563183,825.9288299357625 689.609384374052,821.4856186893335 691.7727556256929,821.1033819354675 694.8345747266533,823.4545753899313 703.263648194927,815.5497393677749 712.2757878970841,813.213683865439 715.8868410563734,811.3657847699612 720.0039100770985,806.4721659804306 723.1213462563358,798.281507878296 727.6637460695125,790.7088944575671 739.2242365546244,775.5189331708332 743.3089045943027,772.9981105582065 753.9316223190737,773.3614563094054 756.5325891774855,772.5529286861297 757.5534293441953,770.7394943350937 758.1522414884821,763.6748752769802 762.8123939120971,760.4261174817736 764.8782906836636,757.9732362635539 764.809852915432,748.5288228101574 765.1000416535196,742.5565031705793 766.4658656782004,736.9124478133022 767.5659365847124,735.5402404917902 760.3253213032971,729.3384371248821 747.7314605912599,716.4884499849558 754.7894450787536,708.5545740960509 776.851699300399,694.9499557448288 789.5824461701103,682.2119686558758 809.7365305930225,690.5239672533634 819.5648439372806,701.7014804760943 833.3430843710262,707.3307004479361 835.8081546275866,704.0315439866786 836.3115289000809,684.5726349249194 837.5582754989094,677.9147997754636 847.9538341404893,666.1573302177951 860.3884313981694,647.5148617295406 864.8572976496419,630.9054080994524 859.2967475592159,602.145940338566 846.2617943931527,582.0794035291995 831.2019627107783,573.1703208772851 811.8772792643188,558.3687408025837 794.7082860746606,547.2271654439993 774.6453493433455,529.1448056800674 756.7777780176419,508.9993871251862 735.963852372326,506.3191044358108 714.0690772358636,502.7624663440887 696.4861524964241,492.67684514854136 683.6879402340891,470.24229717509 688.1997792808157,447.8731901998243 692.829226324234,426.93343482407147 691.2497622555885,400.2678570671317 681.9182371988638,378.99535594321867 680.030626166118,348.53324082457493 691.6369870115586,324.64331361382165 695.8902088089548,298.9605973571015 682.6256560257048,282.77936889026864 674.0349577457414,264.807351123835 677.6873346372062,237.7242747456528 675.9241192405755,214.90082857414325 683.6089690621884,196.10494193480702 677.916686560793,178.38474797083745 669.1215248763475,164.24958182023715 659.3685846276861,137.76308014904237 660.580043343959,116.1388740488187 668.1871629860963,102.60933636950028 669.2331278709502,94.01915774084148 668.0274788651392,90.3491855088123 664.9407087779822,86.76619697895637 661.2141516467104,75.5657364854826" /><circle cx="558.3861915845767" cy="472.4320503978787" fill="rgb(100%,100%,100%)" r="16" stroke="grey" stroke-width="8" /></svg>