<?xml version="1.0" encoding="utf-8" ?>
<svg baseProfile="full" height="1024" version="1.1" width="1024" xmlns="http://www.w3.org/2000/svg" xmlns:ev="http://www.w3.org/2001/xml-events" xmlns:xlink="http://www.w3.org/1999/xlink"><defs /><polygon fill="black" points="483.21979347436667,57.290277083393676 480.1383478274773,58.24729812385567 476.9893170788432,58.22551926109304 473.6312377011114,60.59747002867414 471.5434870914687,60.48498050595117 466.3391157552682,58.89798555023651 462.5880759992206,58.25379405178694 460.0814861097747,58.86091971219787 455.9084600113222,58.527827441890736 451.72742812800226,59.32909493325644 446.5292964840322,58.67017657736733 444.4445493771944,57.716862513603246 442.36212577768737,57.913061362726125 436.215982801683,56.61955277321704 433.09024374207235,57.11714995895136 428.93341539905543,56.35099367564362 421.7524055430533,53.48189989590969 420.33098316671015,53.78572653406741 417.7249341899634,56.19899745484963 414.07699456364855,58.082796053729 405.71255908450416,61.040781016370715 399.3779121919615,61.991803609999124 395.8411699643789,61.96719372006544 382.9527426142475,64.13201832664322 372.7846035123919,65.6867700781313 368.60446813401325,66.97153203644348 365.8040223415119,68.64673847004292 364.2120478618584,70.5858909598901 361.5245909418783,70.34525529476798 355.01076246096534,72.72504352442104 351.557415357287,73.17255731736907 343.90712358148295,71.61567168372665 333.4113980131703,70.10721347865092 322.7598609437599,72.35557241328195 319.8730440665397,71.84081620915765 314.30700314181576,69.46803981932828 309.984435665063,68.88624128819902 300.4528781243373,69.40474142963478 295.9251644584668,73.52695064501665 289.31040402814494,80.84263418005196 287.5104723367819,81.16177853308955 281.9302732274831,78.43473976783093 277.9277497795374,77.61161520402811 270.96149819335193,78.28642050815392 260.8079916762179,75.89055007102638 253.14774437864077,70.47148123264196 249.40140778617902,66.86111581049056 247.13224771618903,63.30366713179342 247.39401416578323,57.39368500786941 247.04262753990807,52.15812734188137 245.8212305208806,45.98598409987903 243.99253307837543,41.808981726659226 242.10873140508886,39.5393571859214 236.72249222413697,34.35055556667987 234.80675594021955,29.462751933116124 234.00239667312638,22.322108895474003 234.6328459293562,19.68419341940762 234.92151969294545,15.148039693657665 216.9317707091142,2.7289519223311345 213.45226726747234,3.062105315842018 210.0059722285921,2.735807833090007 203.46250582926973,0.8333204662511662 201.27696104132255,0.60465791727961 197.4988145828915,1.1188193040624128 188.1604175878872,0.0 185.65044420449118,0.7663735723696163 183.12650331858794,3.2690318922760753 182.02800090205739,6.29575441225245 180.77189429322974,11.691915343567644 180.46849701852807,17.295218230514138 177.8525279847494,22.38101183475169 173.16406759433923,27.662649140280223 169.60453491558917,35.08643664003466 174.99193270506913,36.28566757315048 176.25172729070786,38.06363960232454 177.65816461549372,41.72065838221022 178.06624154566043,46.899755645869504 180.03319701363858,51.098166650469125 181.98926709746902,53.23247385555828 183.37149468758713,57.65689021195203 183.82097870176682,67.01516183094418 182.99698613062282,71.11103843165517 184.10315145784338,74.52724273866852 186.5709926741334,79.79796138386325 186.594770377258,86.4500760210799 189.16984963260444,94.62940771937213 190.7948312639912,97.10168038606298 192.43027793910352,103.29593433238858 192.65686352763444,105.8391291739133 191.89585344219748,109.3106039011268 189.12869759762305,111.01319237547216 180.3586357195201,111.82276053914256 177.21489545624922,112.9287905614309 172.07431251447855,115.96418975358858 169.0053270542107,115.86332638844692 162.5220501412001,116.584123959414 159.72998618637277,116.38199570024688 147.0841969374684,117.03726033304144 140.97613086576504,119.35680145665981 140.09643398669476,120.48243579059442 139.73064056063563,124.96694774763148 140.13615694409663,127.14708071869813 144.78457488869537,133.02326323996226 150.58994726174518,137.74554580135896 149.74719167336417,166.7655636184778 147.09627666429793,187.0570331555839 145.7497399879066,190.54505168907735 141.70314188817858,194.16763367779606 135.7748132392644,195.82330769140515 118.22313563095767,196.78433315961604 115.48424664644494,197.79970016691584 113.57725440873469,196.63223413325045 105.51476500736763,190.24479292528417 103.38740512593944,189.8664122749119 100.52810878076926,191.76133441220634 97.97230905542428,192.35457673852522 84.65049236861898,192.3059084129012 82.46830545399924,193.07826421203015 77.80127089508075,195.88267364630906 66.67414406646246,203.62930934020062 63.228404724061676,205.16732990826767 60.254191313894125,207.59790141710084 59.21515150822859,209.3670833139472 57.01447416845586,219.59283173512517 55.89883856878331,222.99633891855478 51.876454496477606,227.08274422197758 49.126017581863074,228.52033186839492 47.829353806584116,238.0081932973518 45.872574805766774,248.6603510101637 45.3221974985574,253.82922292552053 43.5654092338897,263.2368894662633 42.14371861494677,266.09569303904163 37.31726407455482,272.6467224796979 23.4179517096982,278.1252001119394 22.591750614126404,279.8920437842147 23.69244992653509,281.96335474418265 30.11636692707426,301.89582897069295 36.24467559359444,321.94948088084607 38.01077523786234,324.0930264084494 41.67333004483213,327.06379349792326 43.536000156839066,331.4053358240324 44.05632164482631,336.29206387396476 43.05623770454913,339.4825259930133 40.77507463902306,344.11326654575487 39.09393250172678,346.59308098678713 34.30926655581105,349.9737872426071 26.198843452139734,353.6916448470309 20.935067444898294,355.0451520937653 6.649058178084877,363.29932937921586 5.142669381696598,365.15181072209697 0.0,369.3347351123236 5.585446894347742,373.4580997324854 12.14525445880811,377.5625085052831 16.230490360314956,380.5549154959319 23.947666600764027,388.07817092358897 26.14118841566436,389.47143674114614 30.667169645027467,390.61827889719655 36.05103877346576,393.31013846133965 38.88020271607049,392.34491265185625 40.114499300195575,387.8368769763005 51.059904634976334,383.00178217750494 69.36633039332368,378.8706380327677 92.58986078617701,384.10983646821296 93.93141520840226,387.121836750999 96.05329770679478,401.0668704559397 92.85071221837126,410.72112127663576 92.27782408694175,413.66223966114273 91.42865152224672,422.52197646326107 91.45335746098216,425.32844617563325 93.32780291863604,430.8809777964846 95.24268938092881,433.537743150311 101.15798330721438,439.63404250039764 103.83905287516751,441.4281698902655 107.10933406617214,444.5068131320633 113.8483432788259,454.6333454329269 115.97190730743164,456.13652509789324 117.67548105538381,455.61362051619705 120.76398397458425,451.48921797993944 124.7939255893028,448.4759932241575 129.43388690853837,439.0644968085197 131.56800032647712,430.7949150954969 133.00796675746122,426.4669962876849 133.0595361961625,421.33132415959477 134.12068460824645,415.40527392420194 135.577772375263,409.69227533682397 137.3028522876112,407.47898715784936 143.8341900343869,401.6947634153046 145.87142923989748,399.2332989231108 155.29136141094298,393.43299645410406 166.78671722440384,386.70329616447236 169.93665639246822,385.96143447173915 173.49534637175427,386.88346857116073 182.37171169871303,392.03974106747614 194.24727593059737,398.5734446354486 196.8095305634042,400.7218629234119 203.0966516766078,404.260360537461 209.18236247593595,406.56530748601546 213.23217099934917,409.23262890867 220.32075264796774,412.77791011180204 222.70107891781836,414.2897325274216 224.85404856181938,420.9086525176416 225.87251319300825,422.3636438953593 229.39817772705263,430.7313003076577 229.49914505681943,434.1626208830709 229.01342704224376,437.6903030431835 225.9021892888621,453.429876956496 217.29091610013612,470.8201687253917 209.80356661263045,482.7337768027885 210.14165435901126,488.2664401851486 217.14777325197872,494.4743400078623 230.18771921747435,510.90447894425677 244.60674177915854,525.8079203606374 254.1415963356812,530.0150856327298 257.0810784974929,535.0146777296649 266.4431193959105,534.073349954094 271.7686084690248,529.6400519379795 273.22029403541643,520.1597150968456 273.0857736827722,510.40633860653514 263.31749679713033,495.82652723292586 265.7421245605617,489.94087713292356 276.75203501000004,485.36560194826797 287.3324569330764,486.4715164606988 310.3341796595349,490.853638765634 328.65306805647486,512.0014852731429 331.1208288308663,513.5872073152382 331.9664338152812,515.2111501361629 332.16730810042645,521.5479881794106 334.6746721566463,525.082117700008 339.3238124150382,528.2740318555149 342.2669384238015,529.7193850393711 350.69174652550225,531.8810519562162 353.9493548171153,533.5860924419803 356.72182595821187,537.3130927288005 361.85638137087585,542.318692131327 364.9878488770137,546.7830015122242 368.29664642302276,549.8288700647813 369.50029157740687,551.5818939854805 373.74397072258637,555.2589561338646 377.03618533510644,560.679726772755 375.28668611353504,563.413407434566 375.5873681579101,566.4351808003406 374.7134458517625,570.2843991066762 376.55062329403364,571.6704879708625 377.7034060597568,574.7475470369639 379.53270071997326,577.9343202814857 378.50955785381075,580.8285219991096 372.43232901904156,583.6818395336396 372.72071610860417,588.7113043985646 372.39122226803624,591.2959954447178 371.27982814409427,593.3006914736841 369.16874488913675,594.17942628302 364.47811621091904,591.9160521955587 360.9569204003802,591.0445456093626 358.9460348858315,592.080750090619 355.55428535942167,595.8570672726644 354.75607833297767,597.5469334776009 355.6707672514679,602.5211936466158 356.1216454725619,608.2787864521582 356.1373828440022,612.9342662121821 356.87279497723034,623.2962711746139 358.5419655049944,626.2277840818292 367.89383965985866,631.5887250840121 370.9389708107698,634.090333832447 372.5198087533253,636.1736283170914 380.21229968888684,644.4858088921416 382.41743453017784,647.4510868806997 384.39307311896374,651.2765602298481 385.2784364306016,654.4516661675273 384.8990373517671,656.3472077118896 386.02708525335197,661.0655393398719 386.20911510226483,667.0947302615745 385.40778196060603,669.617419386997 382.85089915859453,674.467376405682 377.16307666876185,681.985504434819 374.2854369186574,686.8715955753789 370.6376809853885,688.4270753236281 366.1003991978038,689.6057454214998 359.1955784199446,690.1283117060805 356.55124562738285,690.685745482408 353.9112822322852,692.248466987921 353.3086905165905,695.7396580934866 354.62547292652073,698.3059445720833 354.7725472658898,702.5264405528185 355.7962737208053,707.2962670034251 361.3356482272527,712.9555351033162 364.8589252299676,718.5576336435362 364.86219422792675,724.0951984097761 359.51412623148764,728.69764704081 340.31955780790724,740.9914355631496 336.0694413411109,745.718367117266 334.18887369626407,752.2660268506395 334.7895925072667,758.2451161038944 336.19848814167426,761.516419430177 336.1601914829488,763.2141060818318 338.32049653393057,765.2864595589818 340.7461866674729,769.3756015145252 340.13826328739407,773.1179174941424 337.7411410524637,778.4799355033202 336.03875728213967,781.0823296267592 333.4428447363793,783.4397460204201 332.7237970738434,785.1593613178701 335.17559204543903,787.7485324335131 339.3776368127143,787.3488010928236 341.6227857373746,785.5628624240134 349.2313208635585,784.8546190407067 351.82985709766484,787.3309737063958 355.02892007505733,792.7691584246933 356.69259614944446,800.1382692226786 367.23074998408623,811.5703961613118 374.5399177773581,820.7149457751455 380.38348484467275,823.5476975156361 382.37058501619737,820.5098391885755 384.63620548789976,814.8689002006105 388.51247531984166,807.7518896231973 394.46417557801936,804.9415539750466 397.90604003004063,804.4096994959338 399.79771809066574,804.7608069319999 407.72434841535676,804.8841141055036 410.8579471585161,803.6039484634301 414.49820650196466,800.8558846435369 416.72984245336136,796.501423473093 418.8278360833534,793.4568592037656 423.5031502637172,788.3976810409907 426.8839324863353,785.6865925350246 429.86315643470624,780.2306616990596 433.75281837373205,775.1607302682762 434.13955637956656,774.1021868645298 436.98142241668023,772.2325010496429 440.2950134356534,773.2303212009109 444.95722006128216,777.0439926939536 446.95835216388184,781.0902417963921 455.5598299980389,791.8154871021143 460.08475803631876,793.9277758081873 465.9520434972134,798.7489279778146 468.892022138664,800.6969618053326 476.35468057243554,801.51482705555 473.9298170712478,794.5262848853466 477.91818906287403,780.3324582854814 478.71868572467463,776.2454851208398 475.07510898533917,772.3917625721296 464.445947769801,763.6036492461371 464.55350055270065,761.9236645060197 469.49389168163964,749.5153937119167 471.20178017899786,749.6724082567418 483.30799884017205,753.7705715160505 485.75192847544423,751.4810606355805 493.3918672145104,731.4486285794192 508.20506232540885,730.3717052342926 512.4247850089087,723.880110795159 515.2554828325619,720.9870206442972 517.337349099361,717.876472069477 524.7949342553604,708.6627868782361 527.9993110198228,703.1799756874261 531.884607440176,698.3327410354742 535.3933911643851,694.5916322772487 537.7846009842744,692.8123506817055 540.6922096946038,691.6663868496094 545.5019040609803,690.6355462792804 549.3360989262044,686.33175117363 555.3798982384928,681.446499741417 556.6596485227043,679.6609897340338 557.8739019947503,679.6032101663221 566.6053387758634,668.9662036826583 573.9835339198544,659.3664871887596 587.0818349855912,652.6548262616016 590.2941704109478,649.1408644327842 592.1583112773782,645.7167229627175 593.3302349380442,641.699807067466 600.3344654942099,635.1154962372599 606.5626060714352,633.6640236359432 616.4703917488126,637.3335345351906 622.2759640487835,640.96037101712 624.8330452528085,647.9449168009596 628.4856706337588,652.8612291678461 648.8180547042772,652.8679785725922 650.9569006740547,650.3010246896574 641.8315426608445,632.5997079478809 631.0438360550086,618.4844235865252 630.706915248903,613.1920172317245 636.5804867795489,611.9717984162644 637.5691714085777,610.9397758197492 651.5638464108767,600.0376201801009 652.6480069838722,596.1369559987619 656.3118396263385,593.9270013802324 659.5018451306685,592.6656367077401 664.2301746803386,588.9886436683165 666.7342828823395,588.3600786741472 679.4090219707973,577.030285413783 680.2176228744028,574.5414116973383 679.7505511949188,572.3243185199111 674.3195443903568,567.6101488238442 667.1794567440762,563.3689454533153 663.3917636233901,559.70030346915 656.3194722310596,555.0235041548042 649.4675750843536,548.3437025420855 644.1214389282669,539.5461423543281 639.4355313952525,536.4583422079718 636.5425552140099,533.8021948872304 634.4919551353087,532.7341851277041 631.2537417405638,534.7808369638975 626.0736994499612,534.4382941862686 623.6527548828168,533.4642380048489 618.8690425112949,528.467693516341 616.207029085891,523.8021300309166 615.7497988253651,520.9461846785355 614.369557292142,518.0297433402513 615.1331219129571,516.0769001099256 616.4010897556171,515.607661937583 620.5681229615415,518.9115951624665 621.8371141852951,517.5479254049923 621.7094557609732,512.9471535077408 622.4022531049787,510.88618260766094 626.1851686476156,505.36543277020155 634.3869167301542,502.6166163689527 635.8819300890916,499.44921749869883 638.8668154624978,497.82707362729724 642.5253013124367,499.93993232678156 646.4891130967974,506.49093823876115 648.8613455656107,508.0548786741121 650.702420645836,510.2609629431743 652.390153967674,510.7578139061457 653.0680433325965,512.4002466739413 656.9225751156923,515.3525504097021 659.6450972754502,519.483085416671 659.5940666724422,521.1907495202739 662.3904792774064,522.554065855996 664.0931801852888,526.0977446812128 666.3202912931629,527.8810394980065 667.8912640330059,532.2776553398674 668.9555607918783,533.4319744315442 670.7710306344611,538.8919659068763 671.8810178366905,539.652265880692 673.7697058145111,543.2310679193154 676.2938092586944,545.1338336055042 677.3838308061341,547.6436219391348 681.2671370514952,553.7608114335815 682.6815386950799,553.1358200285954 683.7021961599694,554.5776251634543 688.1937814964103,555.0638574482543 689.9918539220674,554.06519635427 693.4435738174888,553.9646495684233 699.6306712467423,555.3486798759448 702.9887189402008,555.3371186221025 706.2313393981741,557.377850893485 710.2688486116878,555.327075202761 712.0960795140555,555.4376889765489 714.6645088570315,557.1749583729502 715.9677167514028,557.2298425739748 721.6851626850334,552.7318334667186 725.0043886729267,552.5043866457227 734.8105923526625,550.5722267708654 737.68901706794,550.2165800963273 741.448228007861,548.1775913396484 743.0739882625937,547.8159044160785 744.8323494564094,545.6328137727057 751.9182147137839,543.513436343148 757.0458781117921,541.0110348166022 761.1127086849231,537.8654889060454 763.7290456712689,536.9969902542396 767.5356540158667,539.2695065153013 770.452574634838,539.0855764457026 771.4123041826875,537.6087879775614 771.9389552702014,534.254081831248 773.2781709350899,531.6798669685257 777.1482917923474,528.5978886641279 778.9910448386223,525.9962531904017 782.6719646223848,524.2590304871485 785.9166661669159,520.9892800223945 788.0512443036046,519.9922072064589 792.9192118956901,520.6551031213705 797.8498833657567,519.1509242118387 803.9494247834483,514.4472625723531 808.2114305012185,511.95849182861343 811.1494576186641,509.4735543692768 817.8511081695704,509.36483285780344 822.80734698224,508.1953054689795 825.263072457928,505.59902268876266 827.3561576954457,504.4608014797453 829.7392713623427,501.99486890133255 833.6868483668754,500.0032125521173 842.9884830022678,496.9104012728582 847.5785494088956,491.8704517701049 852.8490545768396,492.13062423275085 860.1593988996,491.3162353787921 864.0805881284168,493.4270550455961 865.0075529372357,491.7611194728152 861.8327144962741,488.7866108628766 859.3216550034249,483.905433522061 857.9652506293506,477.13951185494153 856.8622313933909,469.5877505248126 854.5465084482267,462.4622420676661 854.6582596328374,459.06631993634187 851.9814635484016,451.0598700838393 846.8549937868736,440.84286659804246 845.539309161591,437.7962974843095 844.3577796087056,431.24957212737525 842.4159384503349,424.9749588235739 840.8555337450723,421.92699009891544 838.6577169230475,419.03671530901664 834.6008994898702,409.98954994716973 831.5496968689174,407.57622036675957 830.5268615056411,405.19715421137255 830.224886314712,402.40713708571974 827.2765844487615,395.5194309943458 825.9257466303587,393.2203861689961 823.7842814057744,391.07746973186283 820.706053900768,390.54060051829066 814.9297484051639,391.6576932861192 811.5959633087133,391.08563860375455 807.9495470157292,388.95280543462167 805.8613935312708,382.450115120056 804.840868331617,377.8099462260816 800.7796291787038,365.6931637425463 800.1055517509134,360.2718860525834 800.3489671594243,356.30071691105286 800.0348402236291,351.75134495853297 804.5370422529883,347.6504089967166 805.3000278778779,343.8495929276803 804.7984839467974,339.61901729617585 806.023975949771,336.7234088862201 808.8289349683889,334.4739096093211 814.5032340416802,331.8090322389489 815.5782378071822,329.5428221740019 814.8099200641469,328.5442411092148 819.7447261483356,331.55549195097217 854.1894342589281,345.2594249877953 858.0818186659158,347.16089439333314 861.9922245737946,342.43739850352057 865.9884953213103,341.8661720846407 876.0809920990274,348.87347774754284 881.252517709687,357.0258582101817 884.6760463385232,360.1596692790755 902.3802806167085,358.3721345897335 903.5120339772876,358.93837493175187 907.6755594288288,359.29158819469086 908.5119593499813,363.4601405008099 899.7630716069428,371.81103763536663 894.7352042950673,375.555722106022 898.3462276683614,378.4861409069809 900.1749000721966,379.0581200951409 904.5241702972389,381.95353947614007 907.934146027741,385.7418598454987 911.1360315090267,387.44788592446247 913.3680558114635,390.16965642193475 913.2168926229698,391.15232612303964 915.5433512020953,394.8336891653299 919.711015881479,397.52244669956997 919.2114963403733,399.87888623289626 920.9305612013602,400.0807987942428 921.7960256691432,403.3744934649823 923.6015326796844,405.65928692154654 927.7514102872178,409.4873491463308 928.0864280666962,411.2359363491189 929.9292092150316,411.43024135721333 933.6765086847346,414.4511013868122 934.7087461086331,417.4271531301792 936.3447900518793,419.2844059137245 939.7934487625624,421.2042248638797 943.141707853463,425.64879392459665 945.7533910084085,427.15278666386797 947.868565933801,430.73526015128806 952.8354178670974,434.00322753775237 953.9542165895077,436.5869567327646 961.414155736076,439.6257261113417 963.7725863236449,442.3742808951182 967.1045990770725,445.1453569905985 974.752262305904,447.93076920155187 976.578045267805,449.1896649206679 978.4379070706963,451.5489807827331 977.9674507217816,454.31803003454235 980.4323338520048,455.12302846130245 980.6374896168439,456.5923444090875 982.6102063788182,457.5084220304649 983.0095902115235,460.48945531187144 985.5391193373524,465.4452805088457 989.6687923067442,464.3249536051166 994.9902912824641,459.6427920395039 999.0881471711916,455.4288225537748 1001.691620176077,453.96140592138477 1005.836184749834,450.3875089404 1007.2209842291488,448.5997151965733 1009.2634454117077,443.37964228617943 1011.7533521300741,440.3776124664168 1015.9909351788397,439.5602543751179 1017.4848806466847,438.35584640793155 1017.2304709432574,436.50020086418095 1015.4395582253254,434.43066610872637 1012.5413818533103,432.46024905675756 1008.2713100582649,430.37462031248214 1009.941959493832,423.98998852670445 1010.5576342210703,419.02487605173457 1012.1104026944271,414.9599899078233 1014.0341229532816,412.1768826392994 1017.5600697763476,405.3299417693434 1018.1131894705497,402.0955436790406 1022.342814802042,400.64680497652927 1024.0,386.1831545932925 1023.8680653409375,381.0118570855025 1022.4720581794342,375.02988683039075 1022.6363280862681,365.1425921350886 1021.5908212866469,362.0718103541993 1016.1165532214427,360.088052399126 1011.8394335623184,358.16048195792484 1010.3773194627918,356.3570569374895 1012.1501045642661,349.60344996165446 1013.5455407188986,345.909787103272 1013.8800686577823,343.21811556962547 1016.3907470413337,337.7882920527839 1016.4732121963724,332.92498663680874 1018.8698597370707,329.3539604590951 1017.9961188457828,325.0665972715169 1015.642683605971,320.2949724653933 1013.389136769626,317.64495563021086 1010.7468900039826,316.4565884041181 1005.7796727387222,315.7536911033844 998.924366327982,312.9168472162251 990.4960922503112,312.82808047160796 988.6064092468453,310.9731898844003 988.198403849684,307.80265515268536 983.533512016246,298.9649462866106 983.4362824463302,298.21875657854434 987.6934949045591,293.3220848577098 988.1419576015234,290.52596744628215 986.5622959342977,286.76818988090656 986.6335598818964,285.34507023277945 985.0051250301217,281.2183095579935 982.3207602894096,277.60803394310904 978.587030074108,273.48316880456287 977.4498309371481,267.978491449191 974.9928809509357,262.68533517140327 972.9376402152786,259.93081304381155 971.2946716738945,250.89894817524055 971.6967008710578,246.03597894705695 969.3783787608174,242.96074012727183 969.751591376051,242.17074418973868 974.6272138782791,242.0250382770971 977.5530149520761,239.9687592013412 977.2546015527676,235.90274514018927 980.2490348140983,231.42731443965954 977.7259621328833,228.4091455230141 973.6956400665307,227.76837993689185 969.5730776227263,225.63009301981242 966.1560024809894,220.66041689467704 963.0576690552834,215.48036243113404 961.1770416647819,211.40465053226535 958.91082450352,208.48641369474183 957.1294358056537,203.41539102286333 952.1418506719777,195.68959440455717 944.015828975322,187.36799956229515 941.9108755873591,184.88546528150164 939.3906775882463,180.65085891989952 937.6376496466607,179.0115493606594 935.0420814292123,179.3677279325725 932.7104817535554,181.16334784148648 929.4459894561546,186.22764555319657 924.6811425654436,185.79053739430105 921.748215987963,187.4748194722879 918.9038913908273,188.23674025272032 915.8499196314291,193.5154424631677 911.6151677865627,195.8023429052679 909.4227972963522,195.4170289900526 893.8222191910248,189.0469614792786 890.6833664436837,188.40000068114693 884.0862386038018,184.92906199648303 881.7599143176935,184.81142872714906 877.5886872016011,185.51960098660618 871.329831713794,187.90847455142875 871.3242229293295,189.71366462443302 872.5278329992835,193.41768510336533 871.965836590024,197.0075995278081 875.7492131287914,202.3680925091395 876.7864282381389,205.27883579965612 875.4107954408996,215.57274184026733 874.9848213086701,216.47631983605072 872.2418992984619,215.8725326578874 870.1714700768657,216.70459470604862 867.4594014775739,220.85784690317485 867.4813544074209,225.40344590850282 866.840825163804,227.3601573088315 861.9637120295192,231.33170111690697 859.3731893902227,231.95468393135593 856.5838920687572,230.8749658510293 851.4847054963004,227.5110311411861 847.0112320386655,225.14825388593158 842.0507716814388,224.63771209448078 835.5071937831685,225.23198394059182 827.3682635010437,227.12726596599953 823.786442773733,226.6845065434312 820.3072827036356,225.06549399969197 811.8116561430398,216.13217940129948 809.4039428213597,211.57283291621036 807.7210775538763,210.24011098844517 805.2470311893354,209.4891359542073 803.9893825674538,206.41242944516694 801.7947806241126,203.1870801330831 800.2119388383742,202.11750784706032 800.0033085960399,192.0727889486476 799.444769019282,189.6975548851708 797.1894598951277,186.40675328298607 796.9470086799486,180.96356749934694 795.4734513843475,171.97160505760894 800.1351417984843,169.19848878911102 802.0427117482498,167.2085416371292 803.4292123048771,164.20735855592545 806.0345212306019,161.83973256043464 808.1224217047964,157.99710109589785 809.1000491443481,151.8653972876757 810.9647578717496,148.9767586879476 812.1921847691884,145.50175665971813 811.2574775383782,142.96131633873074 813.1263705379356,138.48078628838869 813.190911839302,137.10941873257707 811.2939083428283,128.53593963637252 811.2940219685885,127.48362058718396 813.2689288161885,124.63663072337772 813.7566744422542,121.63770650693482 813.147874831508,117.07797821204883 814.8104125929499,112.81715585778431 812.62566130901,106.62735152530126 813.3188863362653,104.5201114535563 814.8611440690171,103.25342178880146 818.0649350689904,104.06743647795702 822.1637902286357,108.43105152779628 826.5665763998829,115.22985447007704 829.5099054743372,116.72636531398098 834.1696761443004,114.64747125447036 835.5998732812251,112.1227569417349 839.9758252342759,113.1506487970903 842.3538582173603,111.85030903348047 843.2055155454391,110.11192314217328 843.3886268884987,105.68260957902805 842.5674960570658,101.81509951961675 837.4612039598059,100.511792375244 833.9519208830823,96.31076544071414 829.0061608185944,93.16415453195282 824.8503869827484,91.64880252738669 822.8016294203077,89.475882017902 820.6917546605699,88.34632225025769 814.9502510640194,87.5165135381335 813.2205998652678,83.95954330945426 812.2779839986906,83.37952058060159 808.9490436904961,84.04038150741701 806.8921530634944,83.81722077032941 805.455791178768,85.81740333062419 799.6544420894799,84.8719893616709 793.8711700181233,82.11535603214315 786.7392136021568,77.72877439010244 773.5015956740958,75.46619682528706 766.2755088434009,71.48468742268801 762.3845991473688,76.11850750212386 755.7493382982374,88.76613770276481 753.4471000919795,92.46259554910966 746.7306349016729,99.00041166464337 741.1719001761151,105.80404041030386 739.8428152101608,107.07867134968922 735.906259583136,109.01906180792719 732.3352409664674,110.07436094436616 727.3400861283109,112.76221659327734 722.1206349177185,114.38654975839677 718.520036218398,114.38748090787249 709.8683759747971,113.74423635803817 704.7127341966692,114.21665019029888 702.3168854232887,115.05439881128757 700.4529554179029,116.63355174892979 697.9363955966647,120.91422617748788 696.6873405434239,125.77379315295252 697.2655966881564,136.8177668403539 698.0880354280239,140.7298380441623 696.8516182761467,143.57351166252374 695.2003226892973,145.21223470900406 697.1475686342626,146.24706016514403 711.6001250285609,166.99875057829547 710.6085075865878,167.12627991011846 712.2780807516318,170.27423431217233 716.1398749861577,173.68204991791129 715.5004182336302,184.38602042647062 715.7099234254799,190.37720774505567 718.7141216631925,192.9354744263983 719.5747857267374,195.4533992031677 724.7351487656236,203.56840852858943 727.3136922820984,205.91740374381936 727.3099646992815,211.9089479528435 726.2346690965254,216.8346330471802 726.4532980717429,220.26196054491504 729.6386531491586,225.14433746189616 730.1946125333328,227.5543761672161 730.3168024174976,236.083381208402 727.3147279118178,240.59737009646437 727.5224998968343,248.72817068095014 729.0275160207634,253.21898080933704 731.3897955785012,258.77318467440523 734.6171438994254,262.8324752841485 735.0405294779503,268.1790222411603 734.3966819115988,270.96228592729676 730.9609763340638,274.8278300852621 727.7391367092393,273.98269382925764 727.097509973738,271.84890425291576 724.9430456244993,271.63699356452423 720.6508397596359,263.09846606724375 715.9235154095469,261.61440226229877 710.9776781515365,260.561795157877 711.2016485340205,253.28478044768553 710.7701845676187,250.71981983232376 709.0547318067865,246.87293885289114 706.2576268345348,243.88977523007986 704.454688981506,243.35401881545306 701.1420410307386,239.88254581549768 697.7077752915376,239.03344740811804 691.4801717054237,235.8471124043158 687.4024467711911,235.00765090177651 682.3395074039335,232.79004542131588 678.6853843580826,229.80401443784262 677.619306614277,226.5948061915301 674.1777530705056,223.8244038871669 668.1746083087626,216.5591767749188 666.0365991838183,215.06300394460823 660.6759439153094,214.85982805961726 658.5356910975971,216.1425866393995 653.8185382783273,217.65582189910424 651.8986674904368,215.94004658719632 653.8190646727697,214.2224565578042 653.8191857730303,211.65574326634226 651.8944377276375,206.09074665989726 650.6156963773781,204.59515318386968 634.5670870614671,204.80029930072317 624.5179818834549,203.08179844141375 620.4567855076658,200.29327110825182 618.6205684300315,197.7200675437075 616.0642695987547,190.65187944000365 613.2885727971933,188.93331718458842 609.0167396923263,189.9979876534245 608.1600439832532,191.4912923565846 608.5868718448521,194.06258683138503 610.9309930219096,196.84674326377967 610.5038080020142,198.3446077410806 605.5964431154496,197.90601340970056 603.4565785352462,198.32859754433298 600.8974012868392,205.1774676967217 600.9014642876542,203.24827433550206 599.1891910823236,199.81772058272315 594.7074496881736,200.45466065774724 591.9330157760462,201.7270155345202 588.3067942279671,200.2245370587052 582.3242810573221,199.9992718997205 578.4855412073294,199.1309805722226 577.6330057447111,201.0573035048726 573.3570362718449,203.8280321254682 571.8616945516943,207.24998534193617 567.8072770976614,210.24506546885698 565.6675045692311,209.80710863108789 563.531131039527,210.6617795546773 560.7499156802483,210.8692221972534 551.3519335928096,209.36054330537547 547.292494146994,208.9290575627855 544.0749823778314,207.42965736838062 541.6478339706143,205.65546693946453 535.0544300808209,193.5171998725416 533.9754471497613,188.81105274167965 526.052819267729,175.58505845985962 519.6271865229896,167.889020114456 512.7677948175419,162.11359677657742 508.2679132352929,156.9847728004994 505.4854814271421,155.27885577045834 489.82729673241784,152.53681537399723 483.3870317745447,152.54774122167646 476.3046729281588,153.84862959512827 473.0912551733973,152.36312068948655 458.9020417839036,150.42719682973132 457.7664592292179,151.96984091734066 454.9796562380672,151.9683301546337 451.3433189129205,148.12358699058973 446.84280298985317,137.4301728448927 444.9096516237111,135.0812027084329 444.05036249575244,131.2220988812984 439.98540508163205,130.80016984557483 437.1925621040965,129.30447267933084 434.20238451210963,129.30719767278867 433.34194987076563,128.24042830369376 434.62974597499993,124.81454290110537 436.771095188469,122.88865270152121 439.1308312690496,122.02688795363497 441.47731406877165,122.02236470281628 442.9799194922215,121.17129715614351 444.0497428958937,118.60034733573343 443.6243735088339,117.09961107194192 441.267225013185,115.81404934736895 443.41134312084546,113.67546095417367 443.838611664489,111.74795734963061 445.98141446318374,112.38422743768547 446.1975961557266,110.24925936271313 444.4871744574204,103.39975674550953 443.232960919216,100.70348139364012 446.4129655262732,99.54359331047203 451.7664641156856,98.89166834144123 459.4919277862938,96.52780196205913 462.4931344343693,96.30327097898453 462.7050036503062,97.16398672118783 465.9256958139632,99.2933926958251 469.1399242933102,97.14602000268792 472.57314130362795,96.71587251088692 473.8563530254589,91.35702125258933 479.2256408244521,90.9636517874103 482.8724033799057,87.73719201642086 485.66177368377856,83.87789189628586 487.1600729975674,80.44861001494496 490.8069879805396,77.8750290527579 488.2331745212347,76.80976721125137 489.3130486311331,73.3826140041972 486.9529200402307,71.67636426653996 486.9474270775097,69.96309942232779 489.9552635580026,70.60233297163222 487.5978336287774,65.90222772344691 485.4435706720572,62.68903587808086 483.21979347436667,57.290277083393676" /><circle cx="560.1795907175331" cy="189.70498595728554" fill="rgb(100%,100%,100%)" r="16" stroke="grey" stroke-width="8" /></svg>