<?xml version="1.0" encoding="utf-8" ?>
<svg baseProfile="full" height="1024" version="1.1" width="1024" xmlns="http://www.w3.org/2000/svg" xmlns:ev="http://www.w3.org/2001/xml-events" xmlns:xlink="http://www.w3.org/1999/xlink"><defs /><polygon fill="black" points="961.130832170343,350.716473605038 956.2438153342518,358.4423084557154 951.8575474686069,362.47939614057975 945.1526477298538,370.01417703617074 939.0569701180323,373.75092673061545 932.9376082914345,355.6343724260155 928.0171362132769,358.0328718341789 920.3369099091827,349.2600699979671 911.7117272036184,341.0187650001719 906.406942593038,327.85216931409366 899.4907099403853,317.7745803525635 891.8144008781646,309.00220181223494 865.7279308379317,288.78989595184555 844.1427501160117,273.3269345867634 831.9257122683442,266.5286757845138 820.8508268951537,271.8360418668241 812.6681750834974,276.1270117222591 802.7654185134951,279.670077936044 787.6409170085595,280.6148978041359 772.8232804849674,279.42470007436395 756.8347013850779,272.8306870277713 748.8423125023043,265.75510701321036 741.900078664288,255.2581976529865 735.2113335421732,241.80270854034063 732.9965458550757,225.9804696540824 726.3705536985209,206.62943835853696 715.9473908884098,179.95814778038732 705.8391047651489,165.4358735764954 698.1722299130731,149.91755165585653 688.3544069859335,133.2944663498223 684.4411209431427,123.85944316376913 676.2405714788274,127.27654437714591 665.1245417583702,130.85791913322748 650.6287768671318,134.2094170813408 634.4474967334652,130.09120842773382 623.9671897770847,123.13096406362888 606.0186066344236,117.41851863475188 594.4629849938117,106.32322162697426 585.5978871346738,98.41602590490879 576.714314348501,90.10289973522208 567.3925128181103,88.5331866381108 553.127737821532,95.21644440021328 532.9161786950259,93.83287093359809 523.2408033146007,86.41120866639073 513.6403565727544,80.25773349712767 497.7933385413136,81.99755092284045 482.29886810643467,82.90185849363604 468.13616901371023,85.0007716824025 456.6902511282264,83.5768934933111 440.039130998658,79.52926936851918 427.04711072279594,73.59161257034134 418.2378700142915,66.9949687698471 411.07231040037124,59.87184704014294 393.71898830527954,44.55788135620662 382.32698293225656,30.56825354276907 372.08413191620934,14.40820744352311 364.98899786760444,1.4088110136430032 358.15665978027783,0.15292170399447969 347.16463434762966,0.0 338.9662356759119,3.866926606821721 330.2483573671483,13.225417937060797 327.7115794539379,18.785521444666756 321.3142931964898,26.61437253381905 316.7991360534216,30.54456248630231 309.3901037129271,35.838107700802425 307.9582902978276,37.5204265424793 306.7438573123328,41.934253813685245 304.7890275143727,44.523339160785895 303.7451330111343,47.671481688353424 301.7697104969401,50.261017488679045 298.87109067572277,51.79625586628174 293.7617438754265,53.35611498290825 288.35884495300627,58.230146282023725 283.7603757015079,67.11007514815753 279.45377904960327,72.68465991071207 277.4600172953945,73.28699034353508 273.420069380897,72.8127278982488 268.0993932923187,72.7477768046881 262.77124408408565,71.58589526788876 258.3733296936019,71.2935241783963 252.55596815474792,73.23815139422413 247.13036397114672,76.83124969934954 243.33643271002438,79.8419814419351 237.90990095621376,83.4164243022907 236.179938606951,89.12332841960426 233.13779421382714,93.21261752514056 227.514744775829,95.32512877055512 213.29242427920704,97.98225204750827 202.220894335755,102.39865681738775 193.868781613219,105.30199736742418 181.1847436398968,111.56822866577215 177.56137876657704,112.9148936158698 172.49906555108228,115.37200636175965 169.44587179582268,119.0925411101299 168.04722274764814,121.8601662509617 165.30947507122744,122.64277383746276 158.7161049171871,120.92513746678253 154.14302523456078,121.00274008423423 152.1519599014284,121.76764808839152 149.29277967171808,124.74462497411514 146.63815547692667,129.5411820957372 144.90132853021913,134.32545508408884 140.82196273226316,140.8149062017501 137.60298424048258,144.88765218486571 134.24700244781502,150.81713396602083 132.0810433479938,151.9458993572406 125.71912069812721,153.69456108027885 122.08287788180112,154.10766215253977 114.2070492373338,155.97849194220885 87.08767811304882,155.8330183278557 65.88241758639838,152.45517749828173 53.78953310552923,146.8576270132412 34.56580498569569,141.68276417152595 30.54696256605404,152.00966090705026 27.454151956674618,156.3784107283892 13.406884798658313,167.7169915225304 3.325774665273901,182.16842346716373 0.0,197.06323472861743 6.602235813072044,215.97275780799157 18.48198868446233,224.51324345027024 28.02979401424852,229.40707658837573 56.524966980492145,242.0006764388346 66.82423435018968,252.75014182102962 54.23811692944262,266.912685904619 48.83575343955184,275.21093702586165 52.94469988176422,287.57042455514784 61.47155718078019,296.7225068315329 62.751797523936624,318.0661376641243 47.3587651601088,327.77958630087596 40.03121785344694,338.7089050125643 37.45478982183788,351.8766336510595 39.05011268326356,357.65189661740965 42.53916313898184,366.68958594959713 43.56023771729964,368.46353976299656 52.588068855137344,377.707482778118 57.22937010325474,381.65736067649914 62.18441920467762,383.40099462437104 73.14083423223282,383.3964283846185 77.87992536016051,382.77354185620413 80.9893115513559,382.88761067533915 83.56026075317232,384.31718638517316 84.0814915610165,392.558616629163 85.27797000369605,398.0226409926921 85.73886319365882,403.15423606007164 88.48118485149828,413.90431075593244 91.12710064063033,418.986186036787 93.89210434123467,420.41119757137017 97.54917456628078,420.1523630410063 99.20770485339298,421.0486259566204 100.9305879001415,425.59752299854085 101.5937837350494,431.99126137521273 99.52595086935428,438.9810863184259 98.86906240622906,443.0121182801738 97.65779384124238,446.704810419851 94.11669276048643,452.9895893214684 92.33107980012147,455.0245339106861 89.51692308620743,460.749720098094 88.93912679495398,469.1842502128465 89.16254088439175,471.01809812249013 91.22729518584666,474.09332060618885 93.07325739037697,475.14994415734145 104.97268265438056,477.1545740592772 112.27462302008436,477.766382064308 118.68980516283467,478.95202584475516 122.51982616555115,478.6886663542426 129.83223671584852,479.2993255966364 128.83228369339085,484.64177215242614 126.5554405230869,489.9861339249195 123.33411280613296,492.95930285242974 120.49921456264515,497.83010600188027 119.29954444600536,501.583028411638 119.43509512740266,505.2578069643292 120.43367254598412,513.5138110672298 119.74666020329171,521.090055357922 120.13636142958391,527.9213938964904 125.46752652534381,530.329032187604 135.38705076032088,527.9512707490587 143.4717216404384,526.7722726894897 145.88439453632057,529.0801487064364 156.35143337630572,549.4596084721084 160.75269382556684,559.7022255212487 166.49144021325833,578.686247342989 168.54674366637158,599.1486544952355 170.93297485402417,607.1930628723917 184.2939361997719,610.5433511386624 187.47674056370894,620.9837496186678 188.19213719084757,630.7542012650687 190.8011456124108,634.890348847578 197.29772344381112,636.6376530616329 199.6515310636777,635.4418245328702 199.3773081335547,630.1908725255528 200.60376720401163,627.1714818289463 205.27011761661686,623.0403345452868 210.97992118889817,619.8003107942825 220.30510553164325,613.0179606648862 226.8892175145027,603.9050266242789 229.23484967886765,604.1328876890504 231.39403150542566,609.746903473494 235.15682878979675,614.1072423485732 238.96260199433632,614.8268175020996 241.64336663949186,612.4744547230141 241.79021423336624,608.4017101146483 242.46012594005325,604.6071985822805 243.65968276712235,600.9371968366344 249.7307314275074,594.6394925548922 253.69389517850274,589.6092614264383 255.3938805521856,589.100727454397 259.5456042906577,589.8297338673849 267.03020831656437,588.0255809327557 274.9693231976141,571.7919413485296 278.70661821763065,559.5051012214356 286.2241797974219,548.2476850419719 294.4087159004185,544.0704065815836 301.3760431690504,543.550912552058 312.22939373565805,549.2255149693927 322.3295702440978,571.2795006515094 328.8425973791773,582.4515986117129 335.4770191303994,592.3663791540287 341.75759170207215,601.3955936954167 353.3830764298842,612.2093715025221 360.98528547057657,620.9531138241296 368.02831689150815,626.6810122700982 375.96944602111915,636.3023549060487 383.42302808702743,646.286387701017 397.4122786419732,654.4716606124643 396.51024473037734,657.3387218350773 393.0235180320302,663.0652061952662 393.6934563293329,665.5714757467285 399.44978524010264,669.1214791892796 404.78651072755343,673.7914185737765 404.9271409105158,675.7257993462081 403.905296654464,679.5026651117513 402.7031485816667,686.1871596162111 401.4669949729855,696.8268342818074 395.1820947802493,707.1767760112868 394.514726672546,709.6960942761411 390.2914223150266,720.9690218620349 388.5988803240513,726.3418452177066 388.8248062843536,727.2814160007974 391.8926993264728,728.6972531150129 404.0815274981087,730.2358315879716 409.2826657962896,727.3002158936324 414.05847938236553,725.2214448056275 422.71978773853914,736.5265689184981 430.8108982972703,744.4816318164139 445.11631845397704,753.4703995275217 460.740493444114,757.5322246846639 473.1814774065962,759.5961630875141 490.36162082128493,769.3085450691192 501.67459223107875,778.4576660947776 509.2863914596008,786.813965307124 518.349058006717,793.2039004194776 527.4514218797287,803.3932729836987 539.0242014396824,818.4859431090584 553.3854724522913,826.2674992119555 563.7280459787345,828.1551496330902 573.6016028317779,834.6597820450585 581.3089546889425,841.774229846971 589.1562103381003,851.8520254382059 593.3350052469643,864.9232707400056 597.9526580559664,882.2667230581175 603.5935794075991,897.5958881597905 607.7373728999635,906.8867665961892 613.2134035611815,919.6749360194132 618.2230887489254,928.6210669977855 630.7101860951097,947.1902014941592 638.9127927090582,953.5046590316559 653.7415880716694,960.9230273331195 663.0312466491212,964.8268467122111 671.1941138379033,950.0520961422735 680.0643562793107,945.4712409814135 690.9720641254606,941.5080740084051 700.0798965039456,938.6382124730734 709.4166511943936,937.8898568098248 719.4806139469536,938.4669762266061 731.4190578453912,945.5640729938018 745.6009353575273,946.9658378993762 761.5757788546712,938.8384837319292 774.0864348028044,927.4067416616874 786.3877913295692,918.0676227791043 794.3338839471969,910.4015363967987 805.1380671923133,899.2001098798806 825.9892216999182,884.7732222367379 838.1512705015408,881.2934052132897 852.2463528356473,879.6894193033424 862.7769215776126,875.6477479405697 859.6616917807944,860.1591753772578 851.5165340239093,844.1896730364263 856.3727292213903,829.0592766867585 862.271780840395,820.7474367859671 865.6371376892959,812.2248998768265 860.0923925541526,799.8748034521514 853.7043272318538,787.4531000487594 850.7154257888332,774.9359963362314 852.5632504386125,756.1319327293265 861.5356413837422,746.4517639601049 871.9660013569493,730.5765038660379 874.4954204664856,717.7449976416137 881.5067035083514,706.5989335575404 889.6477186256236,701.0471689493149 901.1928491571534,696.7824787123773 905.4645115463943,703.2405653778965 909.1863070308627,706.4189420447037 913.3176171009208,708.6511113589229 918.2329260566935,708.4414624150538 924.5906944740905,705.5022586655357 928.7824367293995,705.2159872690686 931.5699320629249,709.3476877661884 932.553727462455,711.8449450109883 933.7679644630974,721.9777014716892 934.5356515563485,724.3641032174619 933.7442153961838,727.2029507179293 933.8366264391502,732.5345925774936 933.3808960245264,736.8377421144785 933.5071430238186,744.790746261825 934.0814927428632,747.5045360343616 943.4533072540323,750.150911066688 946.0062771113802,752.8280083897039 945.5308560123391,755.6688202157097 947.5536022754927,757.9423428555842 949.3960414166265,761.6620358692815 952.0305367250446,762.5628636470459 958.9429154979011,762.2268593326987 963.7260979805933,760.5767125419142 965.9995965617052,758.4355614139567 967.3262758631951,756.2320841989091 967.3945773145897,754.0155339514798 970.473866506581,743.2980964754444 973.0408042349632,739.0708845810484 982.3736956721062,737.1622473292159 984.3055605716677,738.3644344714069 989.9219540327048,746.9282950517809 990.84230593942,753.4740914599606 994.5132910943953,753.0163747642495 996.7252250396376,742.508097258415 990.1060217807801,734.0321209029219 991.2994007217015,726.1978546027617 992.7726575013073,723.8051117276615 999.3874061572922,724.4613048527551 1003.9812082124007,727.8661969163309 1010.0547307374253,727.6891245657406 1012.8299150680863,726.4669726011274 1014.2387845598345,725.0505922600547 1020.1835896030565,715.9560326726141 1024.0,702.8398168931192 1021.6114084453443,679.8176382665533 1017.5130869964624,670.1224990001631 1010.7182222831638,657.642219426238 1003.1973601789823,644.2483687829606 999.7687618008238,636.6016628330727 1001.586601654731,627.993618227365 1008.1110803022169,621.1883945419592 1007.8394924080854,609.4847613042344 1005.1746732026655,608.4726687424256 1000.5768084929233,612.152910780166 996.9038107336969,613.0683452787368 991.842925295766,613.0603275042788 985.4597655294674,603.7766545685861 979.5586007544056,584.5247863148868 972.6334016194972,569.0843438915364 975.1981809537651,560.0599607306453 985.1983355225343,552.6023739990005 995.148653398318,545.584345105336 997.1649999745348,535.5348037619354 999.3833611680359,529.2484503989992 1001.9495964528062,523.4767371777243 1015.0414063289057,510.0191425541556 1019.326838538441,496.53744361066214 1013.9152611203754,487.13706851188994 994.9320327879035,474.6991703669784 984.3771456640784,457.6171213356083 989.3964695227598,440.8212938735031 998.7819081010059,426.5748112196625 1005.0709821493512,418.34375235000005 1009.7715016865844,409.1110691267587 1009.7053888426851,396.8744515912391 1009.3784118461316,387.1381858974934 1006.0237332621234,378.36499536245424 989.2587967114789,377.54478189759277 977.3702563224225,374.2542885740746 967.909202164286,363.19850292723845 961.130832170343,350.716473605038" /><circle cx="404.14140362040786" cy="358.41780611750767" fill="rgb(100%,100%,100%)" r="16" stroke="grey" stroke-width="8" /></svg>