<?xml version="1.0" encoding="utf-8" ?>
<svg baseProfile="full" height="1024" version="1.1" width="1024" xmlns="http://www.w3.org/2000/svg" xmlns:ev="http://www.w3.org/2001/xml-events" xmlns:xlink="http://www.w3.org/1999/xlink"><defs /><polygon fill="black" points="365.2777795893976,11.340431271261195 363.673055030147,27.134367620135777 357.5743315419948,28.80839525515148 359.2570521023524,10.249276311098356 359.8593306726679,0.0 355.6153039154218,0.1026794166352829 355.07166297643766,7.9257782412670394 348.2154938807544,8.151722223316597 348.0980474495414,14.213496686198937 347.04482407137505,17.47831994428452 345.44616216364994,17.767101122488157 344.0200479697243,34.23554577013351 338.55692877503367,36.25552611200453 338.9492240173913,29.502434698174852 308.0100029791361,30.495883511437683 308.504275535086,44.865358445740526 294.86331020034106,44.214220882844984 276.15730986272655,39.150132750949865 273.54654474527786,51.38079942560614 268.6001781238668,52.596361132674815 268.56064507376885,55.86499207919712 258.8020667484264,55.3774453876232 258.06180581872286,53.847647258195934 254.7381270451303,54.03271877122336 255.19406352431895,48.08480211001313 243.7238139076478,47.68921428254339 225.29867151432651,43.245236552613505 224.05956863052856,42.27191350910107 210.1565956666989,38.93384835777033 198.23662406105444,35.19032447167194 185.13879790370845,56.71222992266371 182.20008429395676,66.53851521760737 164.55723330106932,66.31461495173971 164.8171481591772,77.16330685787057 135.11879628666514,76.79209445947515 132.95082947020768,89.09042115050636 130.54860446607742,88.07935673600684 123.4218968698369,111.17268196011457 111.0037290988763,108.0689414623879 107.64206508245691,119.36342218527523 111.2360425825257,120.89135539798178 106.00768867700383,136.65606166967245 88.15943117698461,130.69117155548463 85.12479087667666,149.68360315317307 84.52769252523036,163.97005860920035 71.26162141194455,163.8259863542612 71.09113010614496,176.63716906722743 73.94679170759395,178.48339475245132 74.1945928092678,185.17082685478613 73.92599397455191,204.77856987046107 69.50568350000954,204.71979668146287 69.38749674159111,213.59979553639778 66.15742674513494,214.0477565504592 65.90108268119124,233.28241541486523 36.06367610534972,236.89970847021698 27.62215397977854,237.8073125329479 20.798362635903302,252.65972879349465 17.136277977711416,256.67946203541646 0.0,264.07332101847146 3.7785386514892036,270.00302975944476 7.725343895165116,278.5235898411604 12.156967149798406,284.8232521134555 20.739708361927196,290.35895741782895 23.52473894458305,290.5704346162272 37.70592064659768,299.0770931038153 41.90453703350122,300.68843295874115 44.67595653050093,300.7157311671763 53.51544689359287,299.6168378372274 58.32295016784431,300.13018904248406 62.9496628287502,303.2196179362536 64.63661352729483,306.4633841753888 65.1082273004341,309.794739117429 63.45801990204318,315.0298161157474 55.91257526949621,322.4055668164739 52.34425241334789,324.4854050229238 47.30641737296045,329.31569257620674 45.15127217469439,332.93916410941154 42.291617927895956,344.1533311966259 41.84558833445644,348.74976003616746 44.12327255116119,353.47660087386384 51.0720146807043,362.7267112888735 53.67790799187365,370.5872600398575 53.789750344271624,379.1528951960307 52.802625353904034,386.24088646230825 47.58408843223253,397.97840617920474 46.185510732468416,401.8375711627058 45.63957148164432,405.7500740085519 47.017945113482654,413.97542586191173 50.66017728501407,424.05523803054916 53.85852617334179,428.62052929823665 62.10553447356668,433.6441576611604 71.72615316434232,436.8314148870496 77.22932451116071,437.2833837143421 81.81708547401117,436.3719376189148 85.94192926762585,434.98326338784227 96.48721841400882,434.51686773801396 111.1370943949021,439.0786952587264 113.88730526054034,441.54927713951884 116.61105543655917,441.1654771487413 121.74802415809945,442.1121043394842 123.31439825505815,446.329494444557 123.2570040557692,472.7290601129614 123.91958670486281,477.19021229664975 123.74483737159862,486.56615415851616 119.95376694525774,488.1557353423516 110.58239908608519,488.4334861292481 99.8313043321254,489.29741519615663 97.2831155251668,493.51318906471033 96.58040092587551,495.7871968865634 96.53638781894718,502.6461712099631 94.0937441149775,528.7990475145278 92.53307964590441,529.9860847721861 90.02607552350032,529.2567243340035 89.31395588974104,530.3650365954654 91.18289454960514,531.403384353002 82.01216717875771,537.6635930864304 78.7161358154743,540.8973134433766 83.81704030831382,544.0778522888487 77.34468048561104,548.4892189688919 70.32116435117713,554.8589134042363 58.563179230910485,566.2367975312992 57.97901651188681,568.851517483135 59.61470971558158,570.9009861915687 62.23089814168257,572.4126051539322 76.52127620251369,573.4916604307376 78.80234022551036,575.4576172904087 78.2658237747609,586.986222754861 76.86593732800472,592.0091556335734 74.07802211794157,598.1693435695197 73.47085496270986,603.7774874155173 72.4085280452915,607.6672371755474 72.73719535844013,611.307898926246 74.87851112113286,615.9982865001034 75.98712814788998,621.8425774168559 73.62807357344049,632.9200334337665 72.08862396732461,638.966919308163 71.25626035093097,644.4483354796353 80.75047975696022,646.2038500985508 86.2375264709725,646.6949259778912 87.36310812589878,649.425913685799 86.2401601478025,662.5613618347504 86.32727229392886,667.3703170452 87.20409589624248,673.5407422913643 88.09364302388525,676.8733400569336 91.83611280617855,682.3666962201071 93.62040759644611,690.0357541845576 95.42216297950193,693.2484709639284 96.19618453456168,697.7071076279149 95.68871127825493,704.0989082373276 95.66153567842754,709.8184030583747 93.80493891381586,715.0530399170635 89.51134101221777,722.8303806499082 87.78153806102215,725.3304235313396 86.23644181969696,733.6684692194872 85.72748072761215,743.1356834158382 80.52536278062774,751.9067904726489 79.34879781571506,754.8770208386688 80.00833389626929,760.8430094738226 82.15089812664917,764.5013642363094 88.39889742954162,771.2808070626161 93.51221848204082,777.2349385848587 94.7232652249676,784.9024007702463 92.35730712255165,795.9699493057728 91.54663353267121,797.9192124042518 87.965240576233,803.380776495973 84.59366171840757,812.509202734868 85.58393539997309,817.3219108296257 89.67761692038748,821.4386595422932 93.40114538829397,828.6698220219536 94.85984892358654,833.0275296170394 96.07014246783297,840.8006904078718 97.12033789330374,843.4307393066435 93.65051505223303,848.6703657063467 83.044105001462,861.985388026648 75.92429277573345,869.8651960287616 77.68019037818866,871.9817345116239 87.2547669440347,876.5094363614019 96.61288980805679,879.5050100596033 101.97162011064631,883.2086826828994 101.69873571520962,887.8851292724914 100.8851113028525,890.039958884046 98.64247512573094,901.2408566442466 98.81839933623472,909.4755002276449 99.37990792683179,911.6581129629375 109.02025552132167,922.2123130387871 110.03416509533592,924.0434769413922 110.02224740037218,927.378164383699 112.87822062904054,929.0374478518197 119.28427202002361,930.8659804735829 127.06495339817792,934.0748892138342 133.47251874186952,934.5278249830315 138.51754173149195,934.0671306983027 152.68709702811287,934.9869353975695 162.75786303591693,937.2790077010192 168.24707022843108,937.7489599905244 173.2813932881151,938.6640689401212 187.43979757313443,938.6746278539946 191.54599746602887,939.5996030542643 196.11819083190278,942.3562673517692 202.0685621122596,943.7427754016313 206.6277605527589,945.5849549083916 211.65082407951004,945.5846984370005 215.76712016525022,946.5091700643364 219.87324918395348,948.806426037271 225.34901783629536,954.3152872566876 228.08470055411433,957.531609913642 231.2768720792771,963.9464629591653 231.73245689577723,969.9090093547373 233.99674587297605,976.3225188522593 236.27984000149274,984.5762013184984 237.64065393043134,990.9906887572001 237.61897493843333,996.0334232827547 235.78383496432318,1002.8922337671927 241.27045561631266,999.7015718030649 248.57998064794594,996.0516845620324 253.60525188863542,991.4900612166765 265.4767876147032,986.9381142687027 268.1116313024402,985.5525675737134 271.9658591918995,986.0812972386957 272.54461594669897,984.4138297181264 277.5231449839366,984.9557625791912 278.81263718353483,982.8875798080018 282.0320081570558,983.3347236056882 282.3866150043426,982.5087285461013 285.4743830940087,982.7506964067843 285.92812189484243,979.6129312378806 287.34659311245827,978.6537771599387 293.1632039164861,978.7940003557251 293.2851619322383,974.3910894485759 299.1776022152732,974.1827578524058 299.4219236467559,971.3199033213843 310.4394546577213,971.7976771652785 310.4787793076285,974.4582925050136 312.93401970682066,974.2713065612026 312.95430204100455,972.5253779850193 315.41177771801,972.1428111747817 316.5530283484334,970.6872752108603 320.7149097354272,972.4297550648403 324.9203334873589,976.6372063980409 325.82611835641814,980.5710275510316 331.56996652914415,990.4535720401134 339.0661825770941,994.3911021711907 345.4410074935576,996.5074671723033 352.92977684433674,1001.1526830870972 355.17298842137166,1006.4265690464099 360.37164168215685,1014.0248228269909 364.32729465881806,1018.9686996617445 366.82487073833727,1020.5873587792152 373.3033195287343,1023.495988820352 379.81054078126044,1024.0 380.3993815204001,1020.4644359252686 380.4562363231562,1011.8780886694972 382.65050562767607,1009.0469547446979 386.75838240114416,1008.7435957753062 400.09989906430735,1009.0455038227226 404.21159845936313,1009.8712390697642 416.08757606014774,1010.4130598267759 424.0807015714055,1010.1214014813967 431.7560720949184,1007.7804440073214 434.27691445762434,1007.4486380533906 439.09118395933405,1005.7447561075444 447.5621358151833,1003.4016987983914 458.45842455042566,999.2263435973462 460.8707558265482,997.8652578540981 467.7536512505023,995.3924183123115 478.74964871595944,992.8092352304676 483.79972642040445,991.1265017854666 490.1220197250167,986.5714466021991 495.28642141857193,983.6184068451042 502.0555706311999,982.8471371392811 509.8475493944752,982.8764559755335 512.3660366051005,983.3436346616093 518.2038513588631,982.2247756411771 525.3312365967116,978.704407582156 529.1316304927111,976.0834760321289 532.3724286398857,972.8820059572346 536.3000418755454,966.2691672431238 538.4423753367807,955.0802079542394 539.399166194987,948.4368950858379 540.448263422711,946.5059644022284 545.2723715473704,943.5379316548485 551.3506811421479,942.5420995207807 554.1216918239611,940.6085950085906 555.1802662443137,936.2670754082952 555.3720018349558,924.2699145339351 557.4487379690278,921.0062937563152 558.833519752138,914.594695367423 562.9597533008326,911.371664777684 566.6473587808522,907.2421429762212 577.0167376886851,899.7312094641632 576.7074571884575,903.2182882206295 611.8175294060477,903.9745965688937 610.1740958046952,865.6406467362558 615.7941761881015,860.3815551566192 622.2289156806904,850.7380713555003 623.6030496577275,846.6167217711013 625.9062010655457,842.4944019532052 625.9262743004929,834.7060955665359 624.5495937900318,822.8034271086499 625.9422608690493,814.559491558498 631.4569034437643,809.5044123954351 635.1221803518113,808.115036319037 639.7127967364388,803.5237005621726 648.8869296649818,797.5593526977275 663.1097279166576,789.2857546995672 668.1489684657614,786.9947264381699 673.2014409715707,787.4415070098577 676.8627697699698,788.8089575498093 682.800391968506,792.0035790778084 688.7633354186313,793.3823035942316 697.0101342858844,792.4552441520871 701.5859948729955,788.3330029178289 707.5381241521185,782.3774805655937 714.4054858913305,773.2114037661655 718.5428994927969,769.0966538700193 729.0615922179807,763.14214339363 736.8242607275647,760.8637350010024 743.2355753732215,758.5728134678739 749.6368003610453,757.2054617907429 753.2792148125812,758.1200309739941 758.4169646848742,758.6168024208921 757.0461188556559,752.2070727802943 758.8867675631751,739.376511176269 760.2580050168204,734.3540891971634 762.564273971438,729.3100252290308 763.0249584975187,724.2814909139277 764.4000194837771,716.0403428184883 763.5007209485493,705.9671086571279 762.5837082810954,700.4753541920668 762.6112803551268,688.5545158727268 762.1535860099577,684.4397284398844 761.2579336085228,667.0310252450207 760.3396045204206,663.3750807739444 758.971365474856,652.377659977085 758.0753158194882,647.3370134496486 753.9759542172021,634.5231798857976 752.6025327890268,628.5582878289312 751.231370926189,624.9002081665806 748.5082584457726,615.2853479158152 748.5102247989066,611.6176133009795 747.1354144878806,607.4865175130178 746.6950732002533,599.7080312310547 747.1619083794353,593.3006373483222 750.3641042637203,587.8078137206264 755.3917793303024,582.3212905442199 759.0481904671782,579.5781932556243 764.9904699666836,572.728620703437 765.009938972577,560.8175637465156 760.9148977920142,554.8624073131809 750.789408035703,535.1717895963966 750.3438607652962,530.5281902048339 750.7487181017704,521.3783460845548 750.4676953170923,511.66957097520094 752.10006424883,506.9847617891462 755.8954297696505,501.6448314370116 758.8940578941716,496.6449190603611 762.0104423800898,492.66970987099114 768.5458467505783,486.5457174746855 774.1775056528099,480.87244920132423 778.0967001785502,476.30138956279245 780.8866872905436,471.74025607041324 776.7770134238331,462.4826869942249 769.9139254882692,449.87402560741475 766.5248462280326,440.67442447682663 764.3293270284458,428.6197844664738 762.7153303952344,422.42520203599156 762.6638309365646,419.4374180947174 761.1938551005255,411.1767149135952 760.8133892010408,406.3760283469495 761.0628178781919,399.6033855611561 753.9050729454787,394.1492655217686 749.7598559816801,389.96721003044433 745.2612455847691,386.8993546770474 736.0680106813976,378.02755260248625 733.3408781246033,374.64818168445413 730.7865587517825,373.92842371191546 726.4338839879672,368.70214844643147 724.2185961750112,365.11177731618704 716.7328686478359,356.5138669265385 709.5212822892917,349.6861951054444 695.7887536918215,330.08546476756624 693.5170211026582,323.4468440648667 679.2920116481296,310.08012071811083 661.7191745889431,300.07652070864935 647.4582175996649,290.0730401049826 631.5474856424746,280.07207218315114 623.1769321146554,268.3855758929848 616.4668754304357,258.36337131197433 608.0818514844976,248.36415164681614 592.9854137540314,235.02850302815273 571.1873326431327,220.0508257207856 550.2163773350795,205.05858867316147 533.4607365641024,193.39820464325305 516.6840662944164,182.57592883135442 494.06227652541793,173.43786031951083 476.4856560784559,162.5926828425786 462.25026625128237,156.7490753919559 438.71737018293624,147.81853528731938 443.13912546905567,144.015428873862 441.91680428825424,137.92308734200435 445.16040598803704,136.71337322265776 434.8738694507383,133.22947396310826 433.40196384397865,125.63351989723981 427.9579678479643,127.08406199094884 422.44881767571275,122.5385673913463 411.03355783372734,127.22298477563129 408.3220708309231,124.89356683935762 408.94203420644317,126.87228224301703 399.95357875089115,128.48771016408227 399.9158216723944,135.31066466692369 389.538113390911,132.49733158419292 382.0225175859288,132.49392168339443 376.18709175900204,129.13852784021037 372.8383104098417,122.44053871212645 370.56690007747744,113.2421596025581 367.370404489009,108.20023932519143 366.01002112638355,104.0793992877658 366.474617077559,100.41854879005075 364.20412907392665,78.894318347909 363.30031099701364,75.23770056988087 364.8992012368075,64.64666968779102 364.3383513125374,50.94937316257494 365.7063575495771,42.75655966991667 366.48543008583874,29.952765679181653 366.0854853496174,14.421185999734803 365.2777795893976,11.340431271261195" /><circle cx="461.47062168101286" cy="555.956523393106" fill="rgb(100%,100%,100%)" r="16" stroke="grey" stroke-width="8" /></svg>