<?xml version="1.0" encoding="utf-8" ?>
<svg baseProfile="full" height="1024" version="1.1" width="1024" xmlns="http://www.w3.org/2000/svg" xmlns:ev="http://www.w3.org/2001/xml-events" xmlns:xlink="http://www.w3.org/1999/xlink"><defs /><polygon fill="black" points="194.24414043182603,1024.0 199.92371672747913,1023.9238507620158 214.9593155275441,1020.9515914990533 220.67934758300345,1020.8528764708848 225.71503263260152,1021.5409834448212 230.71600691326915,1020.7525176659168 237.1177759754675,1020.7517981781737 247.89686331730312,1022.0824752633953 253.6227777335796,1021.9832986712238 258.5904513327129,1019.7822569542549 269.3031465481082,1018.2950005492353 278.5917637411233,1011.0673365818537 283.58356398123857,1008.1589366430954 287.13534472409094,1004.5422543963818 292.11375588274296,1003.0543522941566 300.64570335803415,996.5436003864841 305.6539768101742,994.3411680343992 312.7333019056922,987.0937747303749 317.01060730752084,984.2019672133439 324.13767567729036,977.0032435862012 327.67394404502767,971.2669485750073 331.88067214374325,961.2039664136233 331.8452507578947,954.7671968530893 331.06465685337673,949.7540841254 329.5990884488184,944.7500664403506 329.55716794166386,939.0271539094438 328.8127344056634,934.0560042845786 329.4962627524835,929.0438765535267 335.8035090736615,911.7583076473578 338.66537309245473,907.4867137236881 345.7426485479463,900.2174357930978 348.5646627792216,894.5193153626759 348.473657750728,883.037935908653 347.7344313197164,878.0452619944939 343.3694402352214,868.0713230906292 341.83910482281715,858.1157460811531 341.83710774081675,852.3561806425537 342.5154764350286,846.6447018228619 347.46960422756575,844.4430831981086 363.20207898782667,841.4429180070904 368.92729244365637,841.3853187689895 374.64172014796213,839.1511047636959 391.7833990747728,839.0285639271988 401.8107751026029,841.1163484633903 418.2730612991655,840.2455505692914 428.2844589474347,837.9796099785208 450.4558697392666,837.1142685226777 460.427357523108,834.898676911167 466.1691342909554,835.5320258808044 471.15694570485203,834.7559439006295 476.8890366537924,834.7399356918182 481.86558501706384,833.2503109692793 486.8493743452412,830.3544400357655 488.9595752900395,825.3220619188594 490.35562807896514,820.2996683774728 491.04925471492663,815.2869846604198 490.20919117066376,798.8201926493263 489.46962873762334,793.8633023993776 488.00242007167236,788.8382214301903 486.4978214034665,778.1042687375751 486.3133634694909,755.2838956219216 487.70921212947735,750.2614936696867 490.50320235598116,745.9263920842634 497.61379843641157,738.011810198801 499.72401080048604,733.0007614749748 508.17089712121015,717.852458141118 512.4633548516833,714.2520316939188 519.5675631859654,706.344416306413 528.062727422034,700.537260689574 531.6289301792458,696.9327418762849 540.12219469738,683.281573267094 543.6463984701575,679.6422916012948 552.1501089211883,666.6901049325918 554.2598912704375,661.6930813694917 557.0589413028312,657.364598813321 561.2894850568451,647.3488148428431 562.684349660411,642.3261771105447 565.4055782593246,627.2650122252766 572.3859767894213,601.4663439370634 583.0054222098171,589.9184455098907 585.8459787731804,584.9107255901287 590.8027392734941,583.4276005387298 613.6728435848808,583.2806965917837 628.6665163064949,581.0329130773209 636.4345724445418,573.842655557424 640.7070303018777,570.9410834897922 650.6913914743774,566.573164628821 655.6715102087635,563.654277741667 659.2014799378636,560.0711382897418 664.2002143561429,558.6434361829346 667.7295811882217,555.0388408557776 676.2336400009991,548.5438211240717 679.809490385556,544.9308725415156 695.3543694558263,523.3253912939806 696.7081448857521,518.360411140709 696.703525602574,512.6505682670143 695.960222894566,507.6082440126148 695.8510221208144,496.1695804489325 695.1022331045111,491.1416636730812 692.9281166092343,486.21987280239887 692.1852061759926,481.1918104098204 696.3522105414489,471.1263217612492 699.1856491433012,466.1323675032579 700.5730835522305,461.11657545739456 709.0470936415852,448.19080732100383 717.4901348690604,433.7739072308617 720.9906608437502,423.7672795950825 727.333123332694,415.12577923529 728.7318502375313,410.1096104397119 732.3068099046159,406.5105363069772 735.1268395545927,401.47385558942176 742.2007603253771,393.57083473368004 757.0501225487199,379.196214473101 765.568001391423,373.41301055974986 779.7914840998322,366.2405791702075 784.0382842088688,363.33840318689556 793.960077328759,358.9906077837229 798.247699009396,355.37355861095 803.2252442110771,354.5945384873519 813.8304553699452,343.79147812522876 828.7664102065777,337.32824625836315 831.5862966233177,332.3338309749746 834.3523186895275,321.59495370686955 834.310723013102,315.87161929727085 829.2135580724107,300.8583665696143 829.1070388554392,289.41227245551113 828.3628444109781,284.3771842239705 828.3099324257483,278.66840237858696 826.8290435686845,272.9377040650638 826.7754917697932,261.504575041296 827.4601402004507,256.527065627071 827.4070367413074,250.8111474592107 830.7963577007538,225.74595546707906 834.9291611308613,210.68359901916926 846.8927379737365,186.3274638330978 857.4708702842971,174.8315878179951 868.7855607033897,164.0453154313508 870.2173431985683,159.02782085527417 869.4322780706754,154.0080400185019 867.9645508784755,149.0551017026396 867.2552217579951,143.31254187909826 867.0882218813223,126.15057507548113 864.2288305384128,121.91725741192522 863.4843986971205,116.8821912292035 845.5760600283323,72.12185487633451 824.7579188652686,68.374445515312 775.7030602169932,77.11941809958682 734.039498568161,69.64811417371766 602.9341368190294,69.61975970317337 570.0121310823813,45.051715682416216 502.3073285158324,5.683680674936227 473.06952558548466,0.0 463.63427380274004,0.07707088742927226 458.62975800369327,2.288624005157203 452.94422640819784,7.307187256739894 450.10128902175524,11.636465638220102 443.03574765581425,18.850670698878616 437.3492149135276,27.49483261842738 435.2297722896779,32.49897692180741 432.4274750432624,36.82717238090038 429.63273194097167,46.836456549329455 427.5143350912712,51.89049623794142 426.83847199295576,57.60225888510968 425.44434941922464,62.62464594574158 424.1176230519747,72.65578616469224 422.7175841893023,77.67830221138775 422.0372405628826,82.71925282004588 396.9379023430977,153.36517436659358 373.2609489843833,169.19736264421522 320.7742459153703,184.15114334690736 289.66604362048787,219.95472370947073 276.19274684851854,222.30107173342822 246.93039412897977,185.7165886247708 228.27772158453254,133.9138434359803 223.4850124911758,129.57349054980875 214.13033914305066,123.9704579123387 209.0680203021768,121.82744670560419 199.00061370610055,115.49874522932635 190.41156107203608,109.85589936930398 186.79639218342191,106.32970409932636 176.04541712603378,105.71925171060445 167.5037702461596,111.52281093755346 164.65203436855182,115.83642300602821 161.12135548573372,119.38090365820347 158.28105198475114,123.68707166787794 151.19360036086488,130.91927056479983 141.25951697041504,143.9492230872048 136.27030140919786,144.66581367309095 124.89835021602534,155.50956335029605 119.24066304283468,164.1423305387351 113.57529347666998,174.2026078368002 112.17228800727099,179.2242226168687 101.53467353312557,191.50617465692176 95.90479191128243,200.85884121407844 87.33083986321574,207.37550305642208 85.21383959099748,212.39230129354212 81.68903599365854,216.73541659778823 77.44897125534013,226.76908853515374 70.37089110062237,233.9999029368489 65.35503923009237,237.62117881968652 57.58444984779078,245.51743074611375 53.31828156953936,248.43596521207417 42.62557135306735,259.96854699500057 27.670348800319,266.5614041774369 15.582430405247356,275.9848048906641 7.08572512307708,288.93580180501294 2.127945180999566,291.06350942674317 0.0,292.88284702541387 26.464307624469708,307.26264714872616 70.8288360235188,318.305021374125 95.4409364319364,326.13766722163234 106.36314882877309,348.1638989097628 122.39050649488675,391.0531521323484 127.96859952890934,421.8898399400101 134.23971502721236,451.8181395349425 164.20572800547748,466.5956350216204 170.94195322397758,482.59562994678015 182.7983223432317,484.8792895793912 206.02242616950528,484.832618228097 226.24315349207382,489.18801430874976 228.79180352990232,501.48213061941965 226.22713045682923,513.0831751422543 219.03643445388127,516.1217182426657 191.39068268428625,517.5717354429588 154.4393154561245,533.4555373274529 147.00710331226705,543.4430643271144 55.95072054446007,583.5591624856413 44.332999997495165,601.9141974053514 44.33982620329462,622.0970638130669 52.46630329433524,629.508853230594 69.65108651898429,628.7734616578035 74.52722559196395,634.3265617093593 72.66825009831089,651.5126360070542 44.32828677437808,666.4242994161002 41.31285145221287,678.7269176586606 52.46210296006523,700.0567316251465 63.37350934893215,744.3440160564558 87.99896241558776,772.6035385251133 107.73750024411574,804.3519566109824 115.64016453312463,820.346812050152 129.11037623897155,836.7967431023593 128.64118535464547,859.0676449045346 117.49285035313476,914.7743067871049 112.60674342946085,962.1271393574101 113.68973966034967,986.7168651763915 124.22310726057093,987.8556661621834 141.80546203861456,999.4135653483179 146.84165629734352,1000.1380073225156 152.52063941700268,1000.0480443565439 163.30748433591873,1003.4925830004822 171.92685594297652,1009.9138200875142 179.11474508575367,1016.9751199130648 194.24414043182603,1024.0" /><circle cx="141.4651940393628" cy="661.9247714855488" fill="rgb(100%,100%,100%)" r="16" stroke="grey" stroke-width="8" /></svg>