<?xml version="1.0" encoding="utf-8" ?>
<svg baseProfile="full" height="1024" version="1.1" width="1024" xmlns="http://www.w3.org/2000/svg" xmlns:ev="http://www.w3.org/2001/xml-events" xmlns:xlink="http://www.w3.org/1999/xlink"><defs /><polygon fill="black" points="168.05550455173068,434.4397275019302 283.5427253346568,718.5181744558276 292.6453647747045,743.5560628465382 299.21978456181677,762.8656394682369 353.75876968555485,872.1796621822757 380.5727201827024,914.8933886148831 386.01378732443214,923.1102876932295 430.53195261012905,989.5849791996013 469.3553013101028,1009.9706320939131 533.2869874104963,1021.5085643483901 676.0416498880134,1022.838621339976 714.8379651252006,1024.0 723.5920822087868,961.710929648872 724.616842691626,931.6604368315923 748.7631551807073,912.3760017075015 747.2848101457371,881.4533454228806 753.3335887399302,882.2932431828807 761.0768169766862,884.6059918170965 767.0628810181754,885.5884182736512 774.0212628226938,885.5717802401964 779.7247247849097,885.916488136018 781.8117675249613,886.3292232570741 783.1650755410485,888.1516824129191 784.4175671420147,896.4371924054395 785.9501283023135,899.9707924489264 788.5572987280126,901.6348943131161 796.4319864084533,900.9394866624466 801.1293126730191,901.226279298494 826.131402018552,891.5177679077185 833.2782214990552,886.5625421193702 834.0522705054327,846.5481463440244 834.4410819506597,818.8071770365968 834.5679450611119,798.6725180367491 828.0775285372832,798.6593757026601 769.060213461674,803.418302944074 748.7262183859489,805.085765372044 738.324178595377,802.8459296128651 717.7326386317568,796.3672236280497 703.8068773725233,789.1865151124825 697.0353198485541,781.8501867334359 693.1665817491687,774.1515492466773 692.8364493163177,765.8256618012717 704.5666424942009,717.7178736427933 702.8403501182355,713.3105569991139 696.3386569379904,710.7134222979787 674.3262651432075,703.8829820613742 666.1611000543929,703.2364848843877 660.3584234963208,703.5252515199707 656.1708623075785,704.5239689945352 652.1391745994,704.3792663992471 648.4379704514423,703.8142800686626 646.9139696603395,702.2108716190862 646.745275941539,699.8616767436213 654.6752047910184,685.3946619558332 656.6398918661706,676.7776492597986 656.6407582543388,673.062322479323 655.4768561733064,667.9930233564526 648.2771968364027,664.8029853136455 641.8887687238977,655.2415710003688 633.6126792012735,619.1151744510582 623.6875094308649,569.7533925877785 624.5186384287227,566.7338034296129 625.6493699616217,565.8626106537978 636.3530108830266,565.4311402619471 646.3292875853679,565.9287744126693 659.26985182922,565.8538291374448 664.065912941601,566.0747260211867 666.2516998405364,565.0279560132012 668.2416002549369,562.7184151916059 669.6064765011713,559.1805776786628 673.1609192438805,511.2397744962698 675.3624644494445,497.37580662202913 675.3541378326094,491.0121017113953 665.7375090807466,482.5040208924246 665.4223680764239,478.96635535470057 665.7152259010735,474.55902537345537 662.8482640594135,476.82978608995495 604.02048028028,498.8571593837752 595.3119021389932,500.5920220361088 572.887678809158,503.3205382631684 567.6662021042633,501.58790144124157 561.9476823136681,498.1320684905687 560.2248562152315,495.1662709034931 560.7697764689905,475.1423056574339 558.7865576817073,471.18907391060793 555.3079923108562,469.2065850559612 528.9811462456618,465.2595480028774 525.6913562772451,464.5055446447161 524.4632797316866,463.02261578938067 525.0430875300107,435.0881567408735 523.7761067945452,432.87322853066394 521.8052146385784,432.37848047647367 512.8523914962891,432.8579278401279 510.6093205906894,431.8723056882626 509.85793802449933,430.64115724108956 510.4477537405664,414.29665777511605 512.2725289080444,398.5459420180707 514.1642343831542,385.0890548895479 518.9891668353788,386.6601445589886 554.1664957048397,388.7881050704374 563.6232490332382,387.00680146474724 561.6395045328275,383.63230032748686 555.1090033440746,375.4148060932265 554.6775886529508,371.5020033224366 550.3359938059043,342.03479900708794 552.0672267721602,333.78096491509336 561.9438461975113,335.14449845636284 573.4125109505028,335.755506367836 581.1669555217353,333.4476245939634 581.4748814254802,326.00830170136896 571.7331027634456,302.65145148941485 569.2310781645759,290.55721474542315 524.7016493507846,292.16051817094944 480.383717947893,293.33112562153576 435.3702665949061,294.5965213178356 431.06204780748567,291.1646026728645 422.91133323608926,268.2328418025962 417.5221275637314,257.712585883216 424.00428849427203,243.23825779512254 422.0058127010598,231.97626801542663 432.99186452815377,231.95481497364574 443.67870370555823,221.28274648801482 458.5164183329945,198.39423692861556 460.7711320272754,191.9183628287867 437.420860726228,175.90751566737993 429.469373983171,168.07085454203673 419.390271362386,158.41944507996186 412.05327141180845,158.0932617592017 409.9152182505646,157.53495471665224 403.64164050086504,161.47574706901173 393.5949537042758,161.42374681664364 380.7156555555523,163.99824048543508 375.96976262825916,162.56694591668656 362.06348545133204,168.94626319153497 335.48594495609865,185.76483604821226 329.90014601588035,185.8267156882464 325.72778022648833,184.31549620905378 321.66728540113564,180.9202961210101 322.20215551325236,175.15392179417927 326.941015607577,170.25851537266908 331.16107125160676,156.21298936284222 329.2673071623844,140.39477398745964 334.9554590195007,132.91474044336553 347.71920287480947,118.60289444643524 351.38257381719086,115.6454514068472 350.8354174865335,111.7014926044044 351.76354949200163,101.43365920748113 349.6059082685856,93.85229708411896 342.55339453525954,85.90041618019563 321.3900874069912,68.28337273553689 309.722612049927,54.679289730828714 307.0157235510372,49.7915014193145 292.05700324083944,30.708171153125022 279.16071859879975,9.640555129103063 247.67989627399282,11.259096589880073 228.64736513491687,17.914560144039 221.94998986902786,16.796528951736832 221.7205509631598,15.66807593773558 210.42946211275498,5.076573254453706 198.48665726890232,0.0 188.40451363622478,10.575663689499834 147.46382335158688,57.60335555311565 109.32466023361374,99.07545597486478 98.5603489249447,110.54891078059916 92.2917410713868,120.88958977152868 83.25889547692186,142.56661765056447 44.25297742561137,241.9249860397698 22.103079646460028,306.23920179057734 0.0,350.6709603047517 20.337635756469417,348.31852403127016 69.97364080642772,342.0582475634309 92.05050220929783,342.0687136287536 118.91273158820741,355.63605905270583 137.2088784113011,406.55723486307727 168.05550455173068,434.4397275019302" /><circle cx="321.61913046774276" cy="361.74918141314345" fill="rgb(100%,100%,100%)" r="16" stroke="grey" stroke-width="8" /></svg>