<?xml version="1.0" encoding="utf-8" ?>
<svg baseProfile="full" height="1024" version="1.1" width="1024" xmlns="http://www.w3.org/2000/svg" xmlns:ev="http://www.w3.org/2001/xml-events" xmlns:xlink="http://www.w3.org/1999/xlink"><defs /><polygon fill="black" points="137.33157125136316,275.25103816966873 148.04750874401452,286.17374718309145 162.42438806984364,301.8488590620194 180.76149037929406,321.35135671941896 191.46746036952018,333.6678617869976 194.87781342781295,338.79700750858603 202.2481520712611,346.8471751509832 194.41623983627355,352.93952605898374 188.5674194832399,357.31162265980845 174.53017818601893,366.6086348165667 168.3579822182165,369.345787507241 163.86256438675045,371.0857674980229 154.7282977521438,373.7109021827776 156.6241144134767,384.54579273020477 157.53044934594467,388.1136802797591 162.8747720014001,405.01568200409383 163.83125272639288,409.7281345945444 167.166356238791,409.2294135966818 190.3176799366836,457.51711591761017 187.21550184818494,464.99770103026407 166.55998014481835,471.37002193619895 169.45750578738082,494.7556552354158 169.368015287952,498.10805835825306 173.01786324423952,529.878004458084 173.77025953386604,545.5859837061894 175.80673634438293,546.168967810559 179.5110774310838,548.1218532511666 185.24812247220132,550.6374094252835 189.0071938456988,553.0095901512777 191.36069102378454,556.0278933712701 190.70178640250035,559.7292325097162 189.29282461153147,563.5636272682566 187.3486601647272,566.6749425031157 187.0216336903651,567.885989140472 182.02566334821896,575.4620289729403 162.31176226803888,600.2367768220147 155.897404098508,607.3401857974882 156.09748516191863,614.0793100509784 161.34829348092555,834.3362783165268 194.86060316033257,815.558768361233 382.0367576289356,710.7000026482337 437.0835904963398,680.0806870522313 453.636210535722,677.4074739221292 455.8910521446653,677.5510834042403 458.17765113282803,678.7329628447512 459.61034211259084,680.4236281972576 460.59985644269796,682.4161547663462 462.5534843918032,691.1652011581177 463.34562017256553,692.186065192141 468.825123902876,695.1300366546968 470.254135157583,695.6923846171696 476.0654393362727,695.5364875044876 476.06733022349516,691.0338473370125 482.02732589847096,691.1634140758662 482.3994310097447,692.4211952969106 483.71116852747485,692.2756379131478 483.58907906129593,691.2201390037976 487.4171962008359,691.2997046013952 488.558690212278,692.8927943035716 489.6145463865367,696.1157172858691 493.2072087734743,697.2171764206532 493.4766749231443,698.6186038940891 494.6274700988022,700.0003582079261 495.344221449631,699.4479969426951 496.63536583024325,700.1833153009483 499.9287201218168,704.2996401164505 506.23659044247506,710.7981593816421 516.9870402866867,708.8281547882482 492.80957220479763,680.0735448488009 497.8296486794525,678.8462436886098 501.79724365327627,678.4958220900353 520.6323951439424,680.1144307714851 549.876039521282,686.2557435562477 591.9817068251864,694.501733828544 615.2019016101899,698.8371249306674 676.8798607558023,694.7959148046492 679.6473068416124,693.8674236932764 699.7595336381715,683.7029775120186 703.591283420881,682.4865425230691 705.385923577495,678.4130374307841 707.3600518749711,678.1813484442208 708.0493607776648,676.7416616905306 708.8701911304014,679.3542193713486 709.8863133017809,680.606404489743 711.61904567502,681.4872279633717 724.6477042059754,679.1166737752969 724.540324783573,683.803043376148 723.3121234064912,684.8325311726047 721.6931586144442,691.2318703027858 722.4338262792864,692.8252175703537 726.3984720410051,694.4773168447248 727.6001039316748,690.8383909734398 728.8581681860363,688.5051657022946 731.4599229706848,685.7544740164094 745.2900711891427,688.1710974389835 750.503602545846,688.2651115739777 753.262894574965,687.6835256059703 755.1314870208167,686.7793960217571 756.5046694113921,689.2281958204802 758.8499169458457,691.4624859384567 760.7307050596526,690.4024872162519 762.152761508264,690.3342321059413 761.7401362121907,687.6052072255104 762.9896218449167,687.3416303877053 766.6882881504146,689.2995634688023 769.0327098849062,690.0581456610894 770.6698576033375,684.1577069719772 770.609572705016,683.2044716282152 767.6022577295075,681.4134338266167 767.9759685610907,674.1193287675211 769.584201752633,673.6473644195172 771.4715570933113,672.2953750553513 774.114606652451,669.2331681637212 787.387965546694,651.3497326657979 789.3035217263385,648.1852629003515 794.513229909981,642.1697335473061 799.2124874406743,640.1765963707476 806.9621981397947,641.2947220729741 807.2998491453394,639.7361220669738 810.2490659628046,640.4679831330391 810.286598878974,646.4116325003638 816.8356031477399,646.2281084373043 819.3436518051886,645.287917130039 822.4298138232231,647.7854989450226 825.0475083190121,652.4732633193507 827.8095870321592,652.3244492388758 835.2341734040521,646.4695840741635 836.6258837530468,647.1609020645922 841.7419961665577,645.625035494157 841.3542112136747,647.6861378656413 843.7839155385662,648.2952056682941 843.8785223937643,650.2161564267968 847.2166854264148,650.5536946821137 848.0862928630311,650.281297513152 849.9107261010316,645.5936103672277 850.9471998794181,645.7681774882769 852.4804963233403,648.023885754199 859.2401393559581,645.7796951048633 859.6039509964738,642.8669200753613 863.4014305942877,642.3636230232898 863.8186660102425,631.7466363629459 857.7080362650172,630.1226377906872 857.9962595945126,628.2607228585613 858.3108282937538,609.0294479183153 860.4203433236688,607.3749648721036 864.7179297492527,605.1706854266249 871.2089322458488,603.3231944347189 882.7754808796712,594.2525592414646 887.7016171457204,591.5385251039497 892.5887292766889,589.9768541033679 901.9521890195371,590.3241157381999 906.9085230339386,592.0071708653832 912.9232278299555,596.1464962960412 916.1995098309121,597.4894196924733 923.6912807413916,599.4912691275222 930.3957022048061,599.4608180985925 936.4898664137784,598.1575129417125 943.2750005957905,598.3754677531281 945.5471465618372,597.535109006926 948.0483980464506,593.2199019562752 950.6734913306633,591.2694213044002 965.6582361675504,588.6745844136358 973.2430750400713,585.9437668783893 977.9004455826889,582.2861029671526 981.1668565963424,577.9022720152063 990.2597558631699,568.1392869419547 1003.6055502876235,558.294944085673 1009.3679204254258,554.6113395206287 1010.2684217975276,554.6818117152843 1024.0,553.2407444708668 1021.2195838976443,549.2153135391889 1014.5135846253996,536.2084757625296 1015.3463734653724,533.7039788768749 1013.659713700508,532.3116076748674 1012.5935449114623,529.8049978859052 1013.3490113884238,526.7045163052919 1012.3494329912854,525.4684913208894 1012.3027577786794,523.3069572363293 1013.7874735879269,522.3379277891534 1016.0685243154658,514.8900930692707 1011.17048576853,510.42950678804135 1008.1873447838694,509.50671983769456 1005.0366869265235,505.8455555021579 1002.9587923856213,504.5854006392779 997.9303874882602,502.2973496564849 996.1361307342258,505.7220699232246 992.3637779038598,501.49796420160726 990.1853211377908,500.68371426151265 991.2088307625531,493.711432930148 986.8716390870927,493.51864634458394 983.3064579563052,497.2007978223497 977.2771494698783,494.90520042356655 964.867069147909,493.67506396629847 942.9288382251412,492.60312573599634 934.8597318415444,478.55196448753657 926.6144095390848,454.9127665362628 916.4707165436738,441.8267160444377 902.382111248844,434.73004936157145 901.0080922030104,422.58186192998465 902.5910809639357,417.8331988484216 897.9559335914942,415.5780267283145 892.8700551313196,410.9304774215499 894.4562685799403,410.43249110767385 893.681108122394,408.4558745729259 892.7047249257024,408.5093466992408 892.9506182931231,407.366643527885 891.3690249973463,406.70639392583956 890.4330154883694,407.26439777637233 891.0070672226173,412.600680570871 889.711514666473,418.18175623349833 883.9479267988797,416.02683145350943 878.8410546499136,425.8477825042293 872.4315973433455,421.532660239638 878.329960751229,410.49076946412714 878.3635185221873,407.10213359256096 884.92074783922,407.7390388583233 885.3102398070047,393.1931043320979 882.3632743916162,393.0005149117315 881.7152628027749,385.02857530656047 877.1614320043748,385.29816621552675 875.9490118910666,373.29449423530855 873.8236544966709,373.40751478279446 873.5142002618413,365.92669486633287 868.299953363673,365.264623842047 868.2618681546307,368.65820334649413 867.2332403113568,368.7356136765467 866.9000282457228,362.4981987799291 871.6648711525667,362.99901735303905 879.7878292771825,365.3435576025342 887.6539837767989,367.02742952721235 889.3612776315512,366.3206882298251 891.4694094532081,363.72434248022705 891.4516601182897,362.7922356532267 896.4196623424427,357.5510459958179 887.6325425927583,351.57573116620307 893.0699074911136,340.64920547232595 892.2146130045369,334.97415227231664 891.9685914026094,329.25747917051507 891.5200375755659,327.72638393155233 893.2704201921176,322.6290041089636 899.129917682278,317.24682107691854 915.6138367435846,299.8664898640867 920.5104303252635,297.3682466237599 918.1036058577781,296.971461837894 914.7660781263556,295.1888306270272 914.3950687218858,294.61639469660383 915.1364565862416,288.5292155135579 914.399836164985,288.8651188008265 913.9080127060955,290.58647854726416 911.3956736225375,290.8520572473743 909.2502986914913,288.4315235843435 910.0695926950725,286.7276378018155 909.3634188798924,286.2886397140568 906.1736315862415,288.0900470417512 903.9178642706171,286.1655794711186 901.2236592764106,284.74488414787265 899.6682821823647,283.51612272799514 894.9113535676461,283.4639266083126 892.0514113606012,282.1250421853972 890.6128877528349,282.5961123872604 891.2069059827288,289.70564553866757 885.0114701688486,290.11938898042524 885.124214932187,291.6177122155334 878.0393974516146,292.0615906123742 878.8379290670917,287.47149636101665 869.183068699127,284.63881941634145 869.8806021884558,279.9406806216806 867.5761106584351,279.6013475124395 862.160373697023,275.50484589846803 853.0946739705756,270.8670789341745 842.9029241569481,259.4145809392022 832.2695881561226,253.36077144857234 826.8752562577018,240.39533364049714 817.3862416519949,233.55634531908208 820.7957378512638,227.60556921988268 823.9041725274246,217.06989048637695 819.4422716474174,214.31908970458483 810.3994858692247,204.39775907455953 815.5625836431889,193.6068190166111 816.0602275410084,189.94163885726448 818.5023065682165,179.68793840020078 817.3762672382264,178.56937264189366 817.6260915904509,175.93602614714416 814.0786440672714,175.08958408266994 815.4777315039377,169.15343027025267 811.8936776322429,168.77954889169337 813.60091151381,163.51522874960438 801.5012695805093,159.46172562356037 797.5867954681445,157.1311074436029 793.7975254126716,152.90964100478845 782.3549924058019,148.4274302436993 772.6733794787552,146.90637039481624 772.5495797347228,144.59183190097235 759.882004370725,138.444146659475 743.590229738788,145.52410412113363 734.9787579284679,146.2327887169854 732.3797162689084,147.1047769139393 729.1064216485994,149.91537894161513 726.0582615109361,151.7490366660569 719.1749663409689,150.2559836520835 718.9334921361303,146.69470072586603 720.3760939738426,144.9147911249895 721.2786702791228,126.8749033510594 718.2094974485037,126.44161988639235 701.0890070746109,129.60787174413326 699.9842084861489,125.5280440452168 697.8321671923737,121.41901659491555 694.9657774351577,119.86208775393845 683.1854784874607,118.30579552584254 684.7878989858062,103.63630706405695 670.4633449369001,101.91007557463558 654.8488920767137,99.46352175494292 657.5311048597212,88.85330058477302 649.4666622843299,87.7598786215516 646.7391471843193,91.01571282092493 632.1852682289917,93.05531681127889 618.9473885056545,101.17898689779895 613.9623352690088,94.1277888082625 607.7187302781723,81.31061427615077 599.4617423698204,82.1962410227435 599.6701516167641,89.3580388698889 593.0418200615918,88.81584534537274 592.0706940513531,79.96916195619292 581.4300370269605,75.26373163161793 579.5614269184192,72.73711109097201 581.5565047087888,65.4050687400711 571.9224331156354,51.77285215176664 565.4164929281126,47.49089212508079 561.5707089118489,37.87681822101047 555.5933895965461,41.05618963734912 540.609619318602,43.2591076417425 540.0269395934815,46.41349446513277 538.6956478274346,47.102552865427924 537.2032281752405,45.46595230740013 518.0998663450869,36.8839171880353 516.2865567586013,36.61471356922118 511.6426827723447,34.95944910024389 506.9222133757435,34.91406447926863 497.47698014736346,32.25435718465371 489.2889246704832,27.846089854079196 485.7231396821815,26.558413459370854 474.3389518463333,16.34792173178812 473.2044052848376,14.72455888995978 468.8152697968906,13.800126750828554 460.4510933211293,13.22511600758935 455.3259514668736,12.429254351643863 452.6370253931484,10.900097552000375 447.9465595099008,4.846018700005288 439.8171505953429,0.0 434.75187189364857,11.812225011822761 433.1703329430199,13.598115709996023 413.5388605824363,13.410432639806686 410.9454602750894,14.95066569259916 409.52506131185953,13.753516442876503 408.6846042441919,12.101691657657852 403.21474188501793,9.116173014500077 398.008323639521,13.384723333230568 373.6614262216956,14.75065553234947 369.9358123038632,14.576433465828018 366.41486723758845,16.85492705882598 361.8431352674565,23.062264779584098 356.8316564130851,27.088241729432866 349.7917245580417,30.824084528527464 347.59440276490034,31.471844703036368 348.4199531520041,47.13579747186975 343.81474050758646,47.48944539895729 346.97812369225824,52.08787045613826 350.8352316497867,56.16889171434241 356.4127075101555,68.05251211748794 353.4024710476122,72.40818199232592 351.2397659155618,70.50818529268486 348.23805941651557,75.58932794186592 343.42531004494487,79.0306425431819 341.11681540136567,78.9051132424346 338.1527478049991,78.24011735332249 332.3850722539679,71.63028918560747 328.5363303371883,66.29515131057678 326.7321276878946,65.09866544262388 321.54537140841927,60.17979849739834 316.7654397414782,50.51078777021212 316.1690055993694,47.31830351969347 311.4326321034231,44.8579549409983 306.4174517136271,45.40291263228164 293.48426594868596,38.414602185851095 286.7077663897545,36.88228572053333 286.77680558118624,34.36047691189901 278.6241511321906,34.11472340661351 276.75712813367795,33.38998250401562 250.28785434903,44.57107578648788 241.55260742055623,45.94768498723397 238.8024100204302,45.72538854397442 236.45692379300687,51.26494997035343 231.2868375818134,56.802001764701345 227.817226839294,62.0978853489313 222.4936893404724,62.896471413917425 217.1343276124464,64.4647832557813 209.7720001513413,67.00723550505052 196.8047096775288,67.8830749840713 188.1104367912708,69.3201794006061 171.09527765634968,69.76507097087188 162.74052622791606,70.88756787617888 157.72944669282543,72.48381193697867 156.00847315568083,73.91795210623059 155.7200214493603,81.55204287667027 154.67603068494958,82.27725795083552 149.65936569669418,81.60665620154793 138.17270006562234,62.84739357528008 148.07746013997956,56.31291231573891 149.5724701266419,53.88104090863078 153.25729923328197,45.08010296187183 153.53371161868944,38.30199638706381 149.1359770452756,37.37938851175625 140.96944935059923,33.252440808077154 137.8576428153819,30.87501227914072 131.7215982138887,28.55508209618563 129.48456592875021,28.158229827856985 124.8142007134388,28.699565465864907 121.11552545392182,30.42299002956304 116.65160398207908,33.46762427668159 113.91197686944024,34.408396755896206 107.25170000572807,35.37967666656971 104.56069067745351,35.384694468449084 98.59133728027086,33.30512342590407 98.87497383884946,36.17810098886321 98.29806649683766,40.74270881295013 92.64256781576087,40.292635595146294 90.84931874102203,41.67945280515096 89.21945181021955,40.07824674607434 87.51509521374972,39.94099624970818 89.36503943084512,36.228462099639614 87.28914855249519,33.99681870331733 88.26877821326248,32.020996809748794 85.52199919273468,30.42276560656046 87.40897218014945,26.429068439851335 82.85785021028093,23.316004466144364 78.33107861081068,18.677258761851817 76.4333108039078,19.93050494481122 72.08004188014296,24.438182850063527 76.80226371208364,27.429605083917295 77.16582445784489,28.612109925211143 74.71714477965958,30.52687367171393 75.29322338021788,31.482862648725813 72.92120222949045,32.729561679948915 74.85190107047674,35.96010443395278 80.40946400395404,36.533933807327685 79.99764077671657,39.45041116100265 68.52437727856105,38.4853451598309 68.73354152730357,43.164840819781034 69.88553456044221,46.4972762270728 81.86463823784969,51.30781768575798 81.56892618372116,52.29290289816845 78.56273169088749,51.071129287233134 77.04538063833247,54.75648733341086 82.31736481520763,60.330124286322985 74.22346608222095,67.18958112066662 71.40623497415949,66.35015910232687 66.2132458055706,64.07759601773637 52.89243675022509,61.571073543973625 54.63702562824304,54.94968307862064 55.33670267899583,54.02485509507699 59.251432275010515,56.00942968251297 61.16224087149657,56.34826690873274 60.51349984044965,59.60146930913936 66.58374976004572,60.384408364094156 68.00124897144777,43.48444202023086 65.33182626360816,42.95583949067111 65.70076643960957,40.03328247189825 67.67097428577036,40.056215132417606 67.78222121105479,38.32618412543354 56.50119970886481,37.259737828666516 56.54060677993882,29.297094914843115 52.296742002807186,28.79036294412947 49.16528749449827,28.114359309431848 47.6472752268424,28.29381732220895 41.91700908090686,30.551241134531097 42.60901376301449,31.877820400298447 43.2763450840906,37.20827407429624 46.009634869841925,36.88730277796094 46.074883326200776,39.33188213470419 50.494067796508666,39.727097085023615 50.432385649549936,42.24916233619945 48.217732282073825,42.16980835845641 47.67850248972972,46.58420704100854 42.276593389459606,46.34121962965946 40.40578892041123,42.43198884044409 39.65056942498411,42.806394445220576 35.25290776293901,33.783074417217335 23.22154599535499,12.493621152718788 31.27756049062399,9.643643379287937 30.615817146875678,7.788886953356382 29.43581576636923,6.1430600900081345 22.747874274191574,0.5088052100696814 19.759774446546114,4.1932009818718825 17.722821768720916,7.774988966542423 16.03892197757899,8.91739663033195 22.604595431084565,19.54051354238038 19.92486376882489,21.02119012455489 17.933121851151967,19.944767270782563 17.0478081303313,21.40395975060244 16.457282645094363,21.04191230448214 14.54381236527879,23.805673408065672 13.646444890106954,23.295054518847678 12.813446470227206,24.730338796314868 10.168291460786756,22.86716939761061 9.426079094570353,20.95499491739679 11.37477537156177,18.338193532598325 10.300509131462404,17.480701178191794 11.855528770291908,14.914680788688543 6.3578345244264245,11.737293408403161 5.068326204693164,12.446083285227473 8.623335378863862,19.927865202602902 5.168713740689069,27.32316541054263 11.59235700170198,27.218928385797085 13.307409432840863,35.003055251150386 8.190109960902333,34.23775104630647 7.847595788026301,36.42048799335362 3.139752403711775,35.31258267093324 3.57249576281281,33.67103481509673 1.8757375760696937,32.8737948935767 0.0,37.43165021370635 1.2059784526376232,40.30220929252539 5.6919214719551245,40.61385437811066 5.497306287583513,42.568514366463546 14.443044265174901,42.677249107946864 14.941782859290562,40.629307572892344 15.894523309448376,33.43450507728198 17.200182222888795,32.947711367229545 22.222236827296985,34.6071868554277 21.93313349454473,38.48370373262435 23.83309963847994,37.326416452578655 24.592905899236307,38.87631984033794 23.6327858312892,48.48875369694031 24.31564284368169,50.18788206841327 23.801160181051078,57.63017436683401 41.633532456895374,58.69654935461949 45.537660864568345,64.64011980744704 45.12586293822979,65.7835358266118 41.16207545437775,64.7446170146651 40.485928156749125,61.18196607853179 34.12087269367337,60.461989072867595 34.32656146144666,63.86202123780765 29.360220197025757,64.66720934972238 29.199538922262963,64.00845143507854 27.1829038153282,64.29149221509954 27.819259366715944,69.12254216530641 36.09569545481972,68.22715537258671 35.69905932586365,80.20066167911307 41.68077772378708,80.38232075817916 41.65908230905566,85.14686224089098 35.76547740967164,85.06306982840465 36.31672493367082,91.79098945269095 37.909770807576905,97.01313130054882 32.91636509703874,98.2055792278652 33.44748437058088,100.64645465509523 34.8739746387518,101.22034275212593 38.24423014388982,100.26519252877495 38.88916615831764,104.40130082342671 36.180603850690815,104.92939081273232 35.85340018474862,103.14329450071455 31.98656572893037,103.59263796851121 32.04823998471155,104.94912243495548 30.421097963377836,105.34750691281977 30.39282977380295,108.26328445817421 29.413360823374052,108.45589391455565 29.587336940891124,110.33394850216462 40.05309823597573,108.83218077361926 42.87730045255466,124.73780858995644 59.33806720232868,125.02425263843156 86.55341096022273,125.76368128628587 122.04602769738477,183.8573252985684 110.01607674884058,188.2595808409725 99.90441276985851,192.17429115808375 93.47455585359752,202.19763627923157 92.07278057264804,204.13802743205804 95.83098006276607,208.35981977631764 88.48000318007247,215.0967295002239 88.6128441716323,215.48781274611883 106.8126475640298,236.11370689113755 134.76571571697085,268.96822806537136 137.33157125136316,275.25103816966873" /><circle cx="164.57054920039448" cy="156.90257753604806" fill="rgb(100%,100%,100%)" r="16" stroke="grey" stroke-width="8" /></svg>