<?xml version="1.0" encoding="utf-8" ?>
<svg baseProfile="full" height="1024" version="1.1" width="1024" xmlns="http://www.w3.org/2000/svg" xmlns:ev="http://www.w3.org/2001/xml-events" xmlns:xlink="http://www.w3.org/1999/xlink"><defs /><polygon fill="black" points="454.77511407147284,903.9634105728024 499.9082538368854,885.6945784591296 520.53603006929,879.6125650342194 565.8463527829224,864.604091916664 623.4891331127814,844.1055845817108 653.6323544031309,837.7995563781669 682.9894773584426,835.3446228474817 694.8137979036203,836.1516054594389 703.4121849213758,838.945163661466 712.2319674815958,845.4552328916334 717.7855133039798,851.5453628222656 721.9475715857521,861.3646555598372 724.4494828738502,869.4550718673739 726.1864101582387,883.8833274313778 726.0294022982536,889.7824038370721 724.0547960840772,897.2419074982064 719.4131687626881,904.3693133707698 717.8217218357203,908.7565961385113 717.26918050206,917.5126627718109 720.0466378835588,933.6854166147797 723.5796770430547,942.4189747465556 726.4707243504104,946.7734221625758 729.3462100989494,948.0171736139159 735.0582056020884,947.8697580995083 742.2849795397163,946.2996978691793 746.3672223937372,945.835572019631 749.7500297831198,946.6844800909982 752.104917866701,948.9720110088502 757.5040585175497,959.3291475515285 759.4569915355581,962.053843336727 761.6040586725118,963.6737473376515 765.9993116093904,964.0822335992237 776.5027156076861,961.6100146465272 785.0740520311518,959.0912550597375 790.1783346719316,960.4703436364807 792.7553238984364,963.6329434564817 800.2454416043204,979.9247700888398 801.2074921944811,984.4060608845579 794.4115790216962,991.5665123674557 793.6356774677897,997.4742302603939 794.7944107996718,1001.4077636517816 798.0209116803314,1008.1697178596265 799.659843409816,1009.5781784401016 827.9734094193271,1013.8498900626757 833.8554421783093,1015.717453891961 834.9084491269255,1020.07673371507 838.642156060957,1024.0 846.1591167463868,1022.9818619604248 857.1868265411886,1012.5098359227466 865.8015662317512,1011.4296289097739 868.7144670403446,1012.1163609319019 888.4789757794116,1012.766109752704 894.3419374736728,1012.2939055886225 902.8869217922811,1010.1622207760627 907.3926968889384,1006.6951149979245 914.173330779239,1004.0226269690811 914.7267234436102,1001.10238217979 906.6445843059854,985.4857715625802 909.4939546262397,983.4649998326101 915.4549845093238,984.8760869659081 916.313073304023,981.8212228719759 912.4510174017478,977.1892945680904 912.2129264143504,973.0096599120402 915.4293710041493,967.4533749784978 914.7496344236473,958.0160432664733 917.4293113060138,952.7626836706283 913.6506458504197,948.3561671625749 907.8410298298966,933.342594932425 908.0276707664921,931.2302986666148 912.9285609349147,932.7027674336366 916.6252077371041,932.2392124494634 917.6246536020333,930.1399146981598 912.7387071739174,925.8368307382326 913.6242342467814,922.2553960199059 918.9961193944644,918.1132348490903 923.8203003302297,918.7306334631385 927.8982669435106,914.2592375456397 927.8257731026874,909.3185291634126 929.9610253974344,906.8911638575471 942.3239588799504,906.116245122953 938.8396308020372,900.3492437774606 940.1161590203488,896.313972863707 943.0929942585344,896.1021557878956 945.4044650176944,894.3532034961464 945.1570970386551,889.1571402356069 948.5559939336616,887.1510207156758 954.5638039622198,886.1732168063955 956.6094370378602,883.0048082858602 953.6670571733,877.5950545483652 948.8502128866072,873.0442669817782 949.4559400020802,870.2084393575115 952.1051756658427,867.4996966384916 951.5957866141791,860.144484401735 947.2616002532823,852.5545242542493 946.8740660852113,850.1179224250707 949.1279992696133,845.0757538095627 947.3453297557204,841.086639799259 946.3118361403489,831.8946689096488 950.8360484606293,823.9516498740225 957.0314461481411,822.3752009491106 960.3154259861844,824.9603576745162 971.3170904677582,813.9763614392493 972.347186722759,809.881500152961 976.5747573652297,808.7232288318229 975.7589795577767,806.0136534247667 970.8812957859794,796.7105316316234 972.3899463412697,794.8253638154223 977.3786267799206,785.5103297683024 997.8929469399231,768.4638521999115 993.777995135469,763.7250647953488 998.1242884275416,758.8918019275757 990.3124670373824,756.583941869923 984.8805375288254,752.4028469608802 983.6364563468427,744.943708992045 986.1507815999038,740.9098773104008 993.9895700343621,739.2456136665571 1001.1564494040479,735.3134640215701 1004.1343291346027,731.9952118678837 999.4242997912822,727.891241072615 1006.59302713887,722.8790776412658 1016.8750550518693,718.6402636589299 1015.577400427704,716.6368728093162 1012.1103215489826,713.8894776948803 998.027515778453,705.2907189957904 994.3614927532166,699.665350822367 985.3918449922562,699.4965460297199 978.8745501550634,697.7016042695673 971.0499508266456,691.3816311952893 975.0271496887829,679.3947464670425 977.4214222867557,679.0644814106868 979.8615949172835,675.8850314584055 980.2322465012505,669.4535275458157 977.6589574103973,660.9081135020173 982.9876210540782,656.0573179327275 979.2314138928117,651.5865504729322 978.461839899606,648.3321474707491 980.2992439435355,647.0915002490759 983.7354995518252,646.2799217882311 980.1047395151477,639.9360215470087 975.2285073273905,639.7527140433604 974.0075404193259,638.3327005127308 976.8453889088249,631.8506212762757 981.2721607125833,627.194026712421 982.3229298364455,623.0807470011327 980.1147898631918,621.4849531593647 978.7811737624769,616.4575112389803 976.8057451720452,612.3310263621377 975.1234543819546,612.7563718803425 972.8797885741426,614.9881318414833 972.083860157578,617.9560126308229 970.2487984225818,617.1292049339752 969.5400380152679,615.0173724888651 966.9674735406606,614.5768297310849 967.7185859184602,609.9525535871261 966.0962458164348,602.172875519547 965.9188459303573,599.2533109267955 966.6269259478971,595.5030293305715 971.7087297103591,591.5100657980067 968.7881997327443,588.3070366878508 966.5728658857879,588.1618214007967 963.1838952195005,581.3543927808078 964.4233045851804,576.8090507968409 963.679839870304,575.3450392657297 965.5787008385433,571.9243896090632 964.1268065571253,564.8938355115766 959.0374986295839,559.8484680111274 956.4106008163197,553.1066737119829 953.3047044701808,550.8311908185626 949.6564585246198,544.5811594353441 949.4609725775181,541.8896443873468 947.617994059559,541.2472704348302 942.2992352729184,536.6973921514523 940.2305263813224,536.8690468242496 937.1653721306247,535.7542441105527 936.5462206243108,532.2452218597841 935.0850554874082,531.0640791058947 933.7099677057942,528.1259044604627 933.8396139884014,525.5545728478824 930.5473036348292,520.3810533920619 931.3461860867894,515.398334647633 927.964076196945,511.53147070123146 919.8934317559637,507.8079487065286 916.7906945362656,505.7997386194754 911.2279202754758,503.14330993721296 907.9014317603401,500.0064586529086 904.0126753270374,498.579990626068 900.4630057740396,499.925164172539 898.7218913552058,495.7365003981504 895.5092820426969,493.86283176807797 894.1454527993433,496.9474279700181 889.624480311327,500.13111516603135 885.5558794810958,500.16553342404245 880.3434302242738,499.3865687201993 871.8870449960176,501.61733300677815 865.0816155588624,500.97442706839547 864.2131150101128,500.20033463120046 857.8264668431588,501.0151702257448 854.5403531608795,498.7907312429759 853.7434748734523,497.0917609480474 850.5085812462268,497.3646680683838 848.7602637683129,494.4400599346193 849.4638535653743,492.43016845727357 848.104203274254,491.20793296393106 848.827072176629,486.6476099218738 850.6702635841589,486.18010567441513 852.0376668564548,481.04104488886014 851.0706034465074,479.5587215032074 848.8864021730745,479.1753584107711 846.9712680668567,480.7232468808543 842.7600117830644,477.14078896775027 843.3999619453705,474.78055082269907 841.6631823246415,472.00050444678016 838.7477463879355,471.7045111180911 835.2901809093829,467.03771901061225 832.7827604800701,469.3699475924444 828.4168253364538,469.07676517980167 826.6655865696818,467.1793919916969 820.754373925822,463.97051990308034 819.8978550028902,461.1306634885733 815.5831857976295,460.8983477037867 814.6460975151597,459.1280748473074 812.041546819515,458.2558892442952 810.3585212246055,459.7292589124461 806.5849914439051,459.8721979624112 805.1463577123529,458.8457380562255 800.7320781141512,457.5559062970648 798.3082925918329,458.9954258743153 794.094391902354,458.70044006763567 790.7317700955429,453.1370356064207 791.0556500927167,451.68565729660304 788.4119129855969,451.1608262198789 784.3963423950296,448.88177036917705 778.94813365661,451.5265684865341 776.8989079578139,451.5213515261041 770.9057183744486,448.0552177186868 771.3388973526525,446.55054152387925 773.3827535574186,445.68225192185207 770.468048349801,442.90037991759766 771.4957031748784,439.3977714922853 775.8660431949543,437.7999700422447 778.9279732109658,438.9672529828048 781.2705690947857,437.51047661964674 781.5522657451305,434.58899153052084 778.3488807070222,432.39554933546253 773.8158621262227,432.8335339937247 770.1785569078453,430.77551447206235 769.0197827263595,431.80309129909756 768.4270096930472,436.32953627733616 767.2704906842339,437.6428558935786 763.9037265309213,437.78373926117774 761.5009648363001,427.9167181528253 760.3464624601578,424.41168022433874 761.7207527683097,423.7640509902683 761.857947754447,421.7281938344354 760.6948752119258,415.88098933455706 760.9910174651775,413.6883159289207 759.3862872664182,412.0787468988219 757.4924376206483,403.60573792828063 759.6755503949465,401.42151768352824 755.4445342393071,398.63916153669174 755.1526733134201,393.9660570814052 756.028477206057,390.45566614786173 758.5155011926162,388.12432999838416 762.5911848141475,390.4755977004189 764.631769499578,393.25367858362335 766.6879667938979,393.9769574809101 768.8592080799002,390.33313658105124 769.2974047399822,387.99641812947937 776.5769298839896,378.83657312351363 776.8945591314318,376.6147535120009 779.6668248759336,374.56847517425535 781.4169775140997,370.1863582901668 780.9798477308353,367.4171655161862 778.2146341973331,365.51865424838047 775.8750635572884,365.80339170210596 774.6998549785201,367.2616170392972 771.233683484511,366.45750665307025 769.0196241225034,367.25664749454575 765.2275463876647,364.91407440040484 765.5696095311007,360.89424185180735 768.8721368869561,356.449118494908 772.0767848280499,355.15004298147994 770.7642851606,349.59345340624384 764.8620309252179,348.5520131191205 764.1434538841885,351.2382469773024 761.2810420692069,353.377333059036 757.638272186877,349.4309725695829 753.1134711166271,347.9676858909037 751.3569095834965,346.50218184283426 747.6132660508995,345.10311769602674 742.4499358845856,346.2239027316368 733.6394457040768,350.4734756413443 729.7838881289819,350.2687623492624 727.7294431284017,350.9939445430399 725.3039517313111,353.4167520810206 721.756425328923,352.2943074968731 712.8662774665661,351.5934433225467 704.4379883335679,349.1415122244589 701.6342085849112,349.76921940476234 697.2645866412392,343.48548952969736 695.2237801647414,337.9234005618665 692.7478013904544,335.15000417690953 692.848646181353,332.49772729314714 690.1166396706859,329.30487298599667 687.9374437673242,328.27268906437416 685.9015484263713,323.3073575518673 683.9994491937459,321.2565390957807 682.4036345657307,316.7291039308893 679.9133761506519,315.99949204211873 672.1980396527341,316.41866230833773 663.5226475277808,310.31207656022605 656.9127805344999,301.36440075844325 653.1043019879397,297.9225481256815 649.9943080359953,299.67159628882894 641.7220860641099,306.6359651002522 635.7473679464822,306.26861954745675 634.5691334646102,303.35109963319655 633.0684900622476,302.16144258754434 632.7141591837775,299.42039553263044 628.232481569834,299.43413648362787 624.6213521639148,300.68382172536803 621.5932783772777,302.5964865911759 618.9661405863559,302.4515119050334 617.6541182281667,300.5513763039436 617.5094163260212,297.4198969729804 608.4669984968988,297.90856168901075 604.5243657260303,296.73504495810687 601.8983764260216,296.73458125081834 601.320679670165,295.4239778784595 601.6135303077536,291.0358823553063 603.2051319327478,285.6434271310544 602.9144797487736,280.5307645810067 600.2849687199619,270.4562341783766 598.8395881194572,268.2585756228966 594.2985913053817,267.23403650335445 585.381943159483,258.3034845644853 582.5305673209095,256.4669303334284 580.297807757515,253.4936182319741 573.7193230761461,249.40354566746873 568.8485053729182,244.67511031204856 568.2537562800276,240.9826071948138 568.3027429977473,236.59814204523445 567.1529491842821,233.04351214961423 568.3233753960186,228.08659538353947 567.2941030168404,226.0394837376607 565.35108532011,226.47501954540894 560.2751812622054,225.45380650017285 548.3064066182961,225.88932338276356 545.0875327857539,223.70596305441143 540.2698201821896,223.42222913740568 533.2440684923224,227.5183710702072 534.3467178085124,234.45014890133712 532.2679193017377,234.29136372093 527.073588352032,232.25389783672267 526.0417708993149,231.22490345741664 522.2503790223042,232.63723450289217 517.3481543649065,236.142696396445 515.5623367236224,235.7140281492866 512.3433232530755,236.58862002101023 511.60683260300186,245.64950283041765 511.02592275887594,246.67003480182518 504.8822078631923,248.14207136535936 500.7866106343557,250.92169533661786 493.45745386627726,252.5446352202258 491.48980664085303,253.84065797342896 487.9815977613498,253.64082960222572 478.2880730776708,256.4897177035833 470.320483093616,259.6555072889811 467.08829681424527,261.3723996330616 459.2126895606647,262.99809143462574 457.0046079567699,264.9031659631753 449.9778731978858,266.23338855139025 447.0852062642354,267.3526831148281 446.7862576690402,265.0234556554723 448.6615778097927,262.00303416113854 448.66078592637723,260.4006368363755 443.8211991863472,253.9841258713774 442.3914626929244,250.8939190972551 435.61928451059356,246.452674202318 434.8851967172702,242.80068730257995 439.7416809373944,239.83251496828643 442.76745737663424,236.0230232614258 449.4512863965276,236.41887454259268 454.2952595198439,234.86661955080785 457.7469756082639,231.0431746563438 463.3099941672147,227.72967717135896 463.6351251037763,223.54960006056467 468.75530783709644,220.8032941221004 470.0413233377932,219.15222712780974 471.32916792440085,214.59472899393313 471.32537023970906,211.1150189728179 474.39823589519705,208.6286746569766 474.8619685582543,206.73729288056927 473.16532145137376,201.61622592103583 470.5848204478766,196.33666884506397 467.3199483727905,194.90145438708112 465.4530256092452,191.68958474898557 465.1076796729553,185.57348256534203 463.45517118636656,182.66035186997897 459.4460357824171,180.26437376879028 456.30700845965026,179.20797136985232 454.6306952102634,174.27294457103483 451.7284456405382,172.10620191555415 450.27620697008825,168.63638829667013 451.7632780391456,165.37076159049593 450.44649404997216,158.0513348559906 453.7477457107592,151.8397487262481 458.3283207641691,148.7192695744294 458.80537449248067,144.59962439577896 457.3064402849842,141.68359887166991 456.94743158734354,136.4935738687169 458.33422108190445,133.3841161939274 461.09550702741456,131.27078169019342 464.91356918438265,129.51004500529461 473.2280647679826,124.24924139184043 476.0052200183996,120.08466255353255 475.63460407638667,113.51836855584168 474.5605226389875,103.14078560460507 474.8913170213643,96.92953291786284 472.09440734364125,93.82907054227428 466.9262485075944,92.17196343950945 464.192220017813,87.91166870374832 459.2479120179511,87.92402178085752 453.75011253524474,85.56175997892831 451.7509489718428,83.56429312831222 451.19260208461424,79.0013912716422 449.1795445768065,76.43971746442219 450.1261238960901,69.82459772987988 451.32730138303646,66.21543716588076 454.2936002220608,64.38829798767824 454.4894242858316,62.00682622705688 453.56873721620605,56.174958511772616 451.56857677844005,52.52624513652165 443.0916351093659,48.48953017926283 437.8816028917988,46.452361721222815 433.41100023232684,45.92930071923661 430.4714662557387,47.220675177711655 428.2641352564672,47.23561618532665 426.0663939932381,45.92838659885774 423.4352227247329,38.77324279640095 424.61544302578466,36.51899484857324 423.5727817918393,33.45864608029467 419.6381191380349,31.47400640068406 416.1111476472265,32.523206491083556 408.7726699518379,30.356881516627027 405.0042278841778,25.755681708766588 402.85133156112283,24.815109715444237 398.07777425034504,26.00620780876511 395.74378780435364,25.42669103916478 394.66013370869837,23.741042655796377 389.4087710777143,24.73077748762728 383.11663156303786,19.8059443769273 376.9956520959786,14.501846231452873 372.79965600907616,12.61046592242758 368.0325437033097,11.67768496085398 365.3692574708738,10.136074648228714 361.36720817774574,9.823949162056579 353.00654530083216,10.545595735122674 349.5528726665365,13.808911763877859 342.18174877063547,18.943960304776283 339.2832544765112,18.512251155825425 336.29556980931795,17.03391650083927 330.5829476364386,16.978227656087938 320.18996097502134,15.309973531047035 316.0277066580531,13.623639382225747 312.22251908634394,10.887824067792849 307.33448751818247,1.9318801917249857 304.8005530796417,0.0 303.72535911397677,1.4210577291883055 302.4850600433489,8.722792559709205 298.7416939851254,10.98345803978998 298.21272657455626,15.499134862387109 295.62706427389554,16.61310447359483 295.28840679100136,18.995287608745684 297.13666958721006,21.374652162542134 300.16227355826237,27.593441346716645 299.1451667591783,29.979878566534012 300.19666045538963,33.082209934882485 297.132863620415,38.805582459316724 298.5953831544425,47.32198415591631 301.8757324137035,53.569908928671566 302.2993853694856,56.4193508907274 300.0204520244682,61.408969437193946 301.02023797929337,67.52829394996309 304.01684431467015,75.20492436256586 303.5876103959083,77.91683427820021 301.1418980414214,82.11896355419094 299.30550727986684,88.17464100505879 299.6152782637463,93.8172003977395 296.17384689648935,97.7162279353854 294.45472207734855,101.27893970767252 295.8729281088155,104.55262009168484 297.5900827017216,105.25990223079248 301.5242086497323,109.0332753009892 303.442408348918,117.63178320478437 304.8738920162436,119.767756805923 308.0071776601274,121.74835758775646 308.54743086619476,133.48608343151932 307.3696682376481,141.20151856370182 308.85816284983946,145.95408768547486 305.83424798170415,146.958715966672 300.7247951587801,149.8138274410012 301.3619432665081,157.7023433292552 300.67857221442904,161.83190408506152 297.93755981064135,167.72134730459334 294.14074750274557,171.53207020942386 288.04154372876724,174.88496994447337 278.6413668065635,170.73454304936877 276.7637181352736,168.64276765054512 272.927017577822,167.64993578631572 271.7758277060998,168.3659413821855 269.7815965377671,173.63375992034844 266.2215503537854,174.9178838141305 262.2364290170681,177.7743515908104 260.4140808356259,186.41936928065832 258.18911691509686,188.98834474833632 255.7962883112265,190.55277498778582 254.2479417258926,194.14485174345475 248.13125588774824,190.02402925969943 247.12897079940703,190.3176306804978 247.70389982051574,194.8626040200262 245.26749167343866,199.28104355582127 240.14036851782032,202.84209904741897 234.5971572695782,209.81640037634656 234.60238887751873,212.38265752854625 227.90798966684642,218.21164706784168 227.4674761607861,220.91438202198765 223.0633687101609,225.1923574516362 223.06761971717665,227.61393202161094 221.3523651877612,229.0311207362314 215.51831876070435,231.44741854987956 214.51746708964552,233.7320445597486 212.24780590840433,235.43998888191925 208.8368904076939,236.48727712188065 203.0935158484558,242.35337590220138 198.98522296279896,247.21331545981218 196.27114982827652,249.32337834085592 195.86768647058912,251.51220670951147 192.60186291112547,252.92735604138613 187.9158147959857,252.35952850324963 184.21705675382924,252.6377200660346 182.08094326028794,254.77503130855723 180.94135461256187,257.6155151135972 181.3641145339564,264.3081360102201 187.2004477074616,265.31071405247224 187.7656158998932,266.87902965230205 186.03661840209045,270.9545301470954 188.14361353356048,274.25008854155305 190.18534354498456,274.99783576213383 190.8918835244643,277.98137982000344 188.06551809490986,283.47206619036456 187.39015789891508,285.8776545519321 189.47960685996554,291.35977732382025 187.76680577199434,295.0572078376581 190.21692005100675,299.65288545616215 190.77755892367205,301.87951294974573 189.0459952330796,307.5881009486461 185.49244179102047,312.1389047112706 182.5163998003235,314.5577347437446 181.51408863211412,316.70113966286056 174.536527180404,323.5194035478672 169.99492022416692,327.211166664967 165.91305889610447,335.29665172203704 162.17514316758542,339.58048558725886 160.13486415721917,348.08649014307 155.06550865235394,353.66176392974285 152.07877093701578,358.2088413320363 149.23573072204522,361.34807677673246 145.65545767095642,362.8981458202808 141.27991838479812,365.7366253261589 135.4246884051817,367.1563827976688 132.11860295586118,368.93078872753574 131.04053984675153,372.1214878427445 125.51681310389542,374.3819175550666 126.7281043596928,377.28142765963673 127.79644360577426,383.2850534182478 127.66012857635096,386.0708465646461 124.41487232897865,389.7563508121374 120.29836813520546,391.9980265168847 116.71210336837309,396.5569803240502 110.55173375206019,399.3648997070983 105.53333197786381,405.3927402730785 99.34158215485456,406.51506646408995 93.85521753284011,410.57217299639854 92.23936693080027,413.8994030741271 88.25723819667996,414.599011237479 86.32646110711778,413.93121413636186 82.82934766833223,416.41488287764435 78.77188794949261,421.96500576588323 78.31073565201311,424.96768307912487 76.31315087928466,426.960392505993 72.48664720234983,426.5286386743718 68.38990041972612,428.8724153596946 64.00240684617445,427.899164080575 62.68135163235756,425.51175563988625 59.4889053863802,424.1216068447251 55.858493593649904,420.23625927615126 55.57320617494761,418.2448524208984 56.85429765815737,414.97026778559666 59.747680746274256,413.38351163139 59.028140069831935,411.53906866303464 57.7760214793289,401.07656590042484 51.98181266904165,396.6690519681308 45.97949074437733,395.31334353857005 42.230367440712094,396.0417753172544 40.034825446855606,400.82927643517337 35.78997378156638,405.8027829157162 36.80087945128331,409.2498623306486 33.66961552988665,411.8032922843953 29.82220956817317,417.0730249877854 30.95876090873194,419.0618766343134 33.51714849100001,419.50079064169176 35.1184581604694,422.99546215440284 37.64388431965276,422.9209107501871 40.350041618482,426.48216647112645 44.18802897898634,427.1910269843513 46.26683869879815,423.2667388875532 47.76555943595533,424.5121731072567 49.03019599308813,421.9357777461669 51.15530854170006,421.08374532642995 53.00607189850661,421.93668452391444 58.41083646310523,427.20886505121086 59.691611171815374,429.63810012637236 59.540760323165706,432.05316491121596 55.420071906837705,431.47802845388503 50.30830019524891,431.6187251793789 48.172746768129485,432.7493008126171 46.83492178976056,436.8252649047258 50.73706564859762,438.1612278848329 50.16571705601874,441.4429136036522 44.060510094981694,441.5760075787822 41.36862649943218,441.1288408532956 38.111665492818126,442.92341598175324 36.039976895698324,442.4096867153096 33.24391660325141,447.2634941817232 27.166604368124702,454.8268846759519 27.540915516613552,456.787111016465 32.13740100668606,466.51453524079136 30.84679076293117,468.38205444342736 26.821574805021598,466.78961443091544 23.844184890883593,467.9351388166808 21.97949256149798,470.33903472294776 16.849747671603293,471.0741028134902 15.911949755041537,470.0516888012096 18.330367672578348,468.74454090604024 18.1347281240882,464.4396720283039 13.211427284900397,463.63103189765434 9.244987011379665,459.9529101631556 9.330508714893556,456.8600682426131 7.748950641326153,454.9041206185318 4.486091299241221,457.61334732728494 2.520459046788068,458.0753616408632 1.5979897888787364,460.4128735505335 1.856506900582763,465.53845388144236 1.1308661021438335,466.4463167948302 0.0,471.6204747016577 5.215835913743123,475.57274298335983 12.953292600119873,480.8865300934092 18.74551586813783,490.64065581379214 22.56837953305713,496.1404636038749 27.43012586579512,500.2767664971997 31.93560295144308,502.34055016160926 42.23353754055044,504.15728187692673 47.029432251989704,507.2157477545518 49.280981894413465,513.0108939271246 49.00264381985201,521.7488655815608 49.54215279596734,527.8513097750342 52.141355325877626,537.8383648272213 54.359946933478845,543.0694114833299 58.24822024224875,549.1742099120275 55.31466444739689,548.8622389233708 56.34625139230218,550.3162440608526 63.43232011175172,556.5687859679346 70.57927762373102,560.5512431760394 73.97545320462875,561.858849082327 92.10310626290733,565.6991238295782 110.270269839773,569.2503911111855 118.22223995150418,570.2975166955748 126.93118307384518,572.1522276198032 130.45188656664354,573.6229911699679 144.06883254076735,582.1213806748387 148.9774029779645,583.1212085458922 157.242147044271,583.5686212474268 168.08839827332702,584.6178574543167 175.67295815281034,586.7847572246949 180.82237891833245,590.9202912084004 185.59726759577708,598.5717046058714 188.98525244631054,601.7821928800311 199.06731981192098,612.6327825235135 202.35810088529496,614.7314659262806 207.4930565259439,615.9151780043304 212.8752895356243,616.3775813842819 218.37577271484116,617.7235210520056 223.88632609851197,620.7746697936503 255.32817971041223,629.6468801385141 258.72167085448416,631.5905382415228 261.11179598782644,634.2093220386025 262.4311299176835,638.9215079675081 263.0764820312844,643.523809639652 266.9281573297205,652.2825609046131 270.5819300974889,650.5948981907115 276.09700277167735,645.8214866781525 284.6984509268541,642.694749172296 287.2463240724613,639.306376553719 289.276063655829,642.5420005195758 291.5288283658982,642.2298095851254 295.8289642415118,634.821195593528 298.02332316415243,636.8223567469142 302.7554793834304,646.9641270873544 304.12076893564176,649.1457778160566 313.67473272969715,644.2543350845735 326.44311202307944,637.1812646233857 328.5719715074067,633.5382751704872 325.2076150271488,632.8395696841428 331.9788634509638,629.4550051042638 336.36371708357484,632.4910067417665 338.5680058017012,631.202116378545 341.12019393906985,625.4186933400424 349.55008913417504,616.2232876506349 356.1641215087821,615.5536205038895 361.0547906382875,616.6635380518701 365.3531614222604,614.0859981246796 372.8924948626328,608.8036796132471 381.6772252909443,603.0609277954985 386.30723282480267,598.6108601409628 390.9201853200497,595.9693323160913 389.4076579018126,591.4651212097881 391.0573739481513,582.8494268508739 394.6821795363174,579.8326577298603 397.08461048906497,576.1890451149125 401.4563908053855,577.2400820163273 405.5244111144493,575.4554656215541 407.41928598859414,571.8856182242407 408.93421331340085,567.5062290839453 407.7013567475001,565.2735866204291 410.7574515168973,562.3019108842627 410.0739252035302,558.687551804232 411.6699169574946,556.1287935969651 414.9414993248483,555.1504477649928 414.8370661488632,553.1364329707588 417.0522815866965,550.3456620039417 418.73010460821985,546.4082067059243 422.14389933603013,546.7960720448727 429.20271479595647,550.6138960501094 433.1972056594028,550.0319820160743 442.54662373648154,550.2260773089258 445.8399390928244,550.9960469523196 449.13330204419805,553.0192968592969 449.2795534933839,556.6896550836925 446.854250479981,559.8094776010712 445.5470299326195,567.622146390094 443.0231178889497,571.1549347769388 442.9513263104393,575.5338933768222 441.09537111536207,577.2952218656973 441.3287377877901,580.3880647832696 439.6803774516513,584.4285523995916 441.2392923319069,589.6827432529717 434.780782098922,594.06469975894 435.8341135800975,598.1612188119534 435.5612976117412,607.3232693462826 434.3938913383673,608.884604892649 433.6430190418195,613.6912759700285 435.9071843424783,613.6236939991202 437.63092964077896,614.753343111624 438.2232087093026,621.299883877338 437.800399141079,624.943290340407 436.31822400931793,624.8700152558412 435.6541322370669,622.9718808734211 429.8832925525846,622.3014569524906 428.0721908685269,624.7821616776356 428.53888028402685,626.1878988035392 428.02999673208626,630.6131383529685 426.64588369961655,634.6318514432123 421.1016623557731,634.5764213900783 419.4887599976242,639.2350141604253 423.0557202971766,641.4123493284785 422.08520344470037,649.5426770448763 410.52996955502414,654.2470178989365 404.81412702197616,658.963217967662 402.69344822733046,662.185429170826 402.71170570629266,664.9722321557267 398.58630528507535,667.75540084308 406.70437530073133,666.920944883836 409.24894113798945,669.3837013284036 413.33322749287515,677.2763126700831 412.1402073480537,681.1706744402236 412.26544830533237,687.8866789498525 396.5218822747206,701.3601667240224 388.4984920731001,710.7116972928386 391.7793879718008,715.5245261493353 399.4612757142257,720.8240474602388 399.2542468879451,727.9020868464767 397.7584869224265,729.197692212059 397.23579436431083,731.6299228555724 393.50415578819974,734.1318692181712 392.7313819396585,740.1754859716013 391.0722697467548,741.0308339157507 390.10150856781223,744.9362644552438 390.64428811178675,747.1445396340439 389.9721307908515,749.9773964266759 392.22680206554674,750.0857394585651 391.4571438502586,751.9426426757489 393.3856711753108,754.8616964051831 395.58933349088113,756.2055506312455 397.6838486800907,759.7112584434865 398.92327288249516,770.6084474001268 400.9467430558643,770.9659947565054 402.4210904523018,772.8191276225682 402.260772008925,776.1948388806045 399.32666056305925,779.6501303870741 400.94798731115037,783.5802813309945 408.3201435643476,786.3822900004185 411.878223512384,788.2108656537064 427.7671006088618,803.6013804440038 433.26447830047925,811.3143749734663 436.69569937867016,820.1405932941649 437.5559345553872,825.8153906834182 434.95184749887795,839.0565018013664 432.80636390452617,847.8908170151915 433.3961473798189,852.7752872210986 436.34522624726714,856.0797335428713 440.43482845842334,858.1630492850998 449.0841958621705,866.1730436748646 454.1644485984641,873.6225992135544 455.9326211844294,878.0885920783527 456.2704728245181,883.1193971156315 452.7496103545593,892.8800109671722 452.16337298082095,897.9170043123096 454.77511407147284,903.9634105728024" /><polygon fill="black" points="778.7505109706716,977.1914943961756 781.7329595742426,977.5693344385813 783.4530677528692,970.0915054585444 782.77448757284,967.8505978661273 778.4228084044531,966.5576297172818 774.3857200047663,967.6404282058534 774.8423710712419,971.5289490695537 776.2497086440346,974.6792589928882 778.7505109706716,977.1914943961756" /><circle cx="411.0753411607824" cy="717.3913681219644" fill="rgb(100%,100%,100%)" r="16" stroke="grey" stroke-width="8" /></svg>