<?xml version="1.0" encoding="utf-8" ?>
<svg baseProfile="full" height="1024" version="1.1" width="1024" xmlns="http://www.w3.org/2000/svg" xmlns:ev="http://www.w3.org/2001/xml-events" xmlns:xlink="http://www.w3.org/1999/xlink"><defs /><polygon fill="black" points="791.7004842925003,628.9436593477002 791.7743751438046,618.8985568212368 791.7073546079573,600.153288865482 791.769023658814,589.6725309020826 791.7192324815064,578.5285116627795 791.756127127903,555.4200481654174 791.7309665242444,525.6473731559904 791.7225614428978,463.7888380950279 791.747987114895,427.5143824089586 790.8021244789811,423.54758101270124 791.2562182300146,416.91849641751327 791.0736461220961,416.35042501197944 787.1621547073717,410.69129837426937 786.2909310656945,407.13110583330274 784.6514391978134,404.7694938882701 784.6021739469852,402.9048739320823 785.7638120314376,400.5836278024489 785.7436301339411,396.95043035853837 784.5825700630589,393.848979252127 781.504648550286,388.668560233463 780.625635657552,385.6606539985485 779.6080435500082,385.45979896344267 775.164814613508,382.7726784455519 773.3270457405923,380.8783467005695 772.5282043138625,378.52474365236395 772.5241838588036,374.05001194049083 774.0819334914074,370.9971279030571 778.5316175817208,368.44705741784577 780.3351887817278,366.98939739082516 782.9853373933558,365.62572346260396 788.5504785508508,364.5825018290194 791.8116552307412,365.34825116410497 791.7643208194997,334.2610516649028 791.7669138094928,275.51283415942663 791.883294305963,274.5932495961087 794.228546797254,273.022017528303 794.4146702807984,272.13267356031037 797.0009130535379,272.4316365151956 797.0717943359466,273.64019000004424 798.990163842635,271.045358594284 798.8598968531226,272.20653563287885 800.375161061722,273.2636510717904 803.6038207478618,271.3192893921628 804.0568231517142,272.5781522295364 805.8719267225154,271.9639745746689 805.6048377632206,270.4231672890691 807.166855809744,270.4703744585427 806.2498288522934,269.1972931807886 808.2307261394609,269.5222175599271 807.6199065082129,268.6629975995356 808.796864540311,266.97048661151405 808.8612735814722,265.48663359039523 810.5450200056597,266.7139956703958 811.3330723205665,265.3582608144957 811.090829324633,264.13282358069165 813.7366721441365,263.8617336502325 814.5492936472199,265.3523316510257 815.8455826503687,264.98526639983106 814.8909597394118,266.64583193804333 815.951565450534,266.5383542602721 816.791239062116,267.6055613752906 817.2047695952015,266.35335837319957 819.3883911721797,267.2153387065165 820.6169133648239,268.56708835125 823.4649385042578,267.00320549645545 825.1454212129721,268.4634237209892 826.1624757882447,267.273116876296 827.0917248803923,268.4071862473342 827.6369539690942,267.09882134347714 829.9299447537517,268.0791602061542 832.244955832662,268.34262442546867 834.2650378106675,266.82312188004454 835.9208286128011,266.6447508079376 836.0263975789366,265.0734516242841 837.9998460796661,263.9485723741264 840.6233522232802,263.1262388471058 840.6565484659304,261.641881826488 841.7852390328072,260.3723618157483 842.8092758693049,261.2732396496269 842.997963026581,259.5054599075613 844.5524856527077,259.3617517339707 844.526691924583,257.78840068645434 845.6257698606199,257.76887499942336 847.9532782447998,256.5036233429022 847.5378666917568,255.34138769315052 848.759123210216,255.2065095269466 848.6448829301978,254.1154007083402 849.9210331708649,254.36107111565502 850.6472349297366,252.36139504198894 851.8437179091806,252.56257656800307 852.0355201189694,251.22024793413306 854.90766602269,253.1803312700522 856.4554428817831,252.80177630876017 857.4640803314409,253.40210492613613 858.3326120038058,252.61762329959333 859.224372227697,254.30630537214387 861.1312785849777,253.48682445612656 860.8056527107922,254.36682921827287 862.8272326116221,253.300563952061 863.1692488607463,253.9928953092932 865.8318264207718,253.8717691907368 866.5506393316597,254.32128467592582 867.4132848478009,252.57931672634015 869.8919296693604,253.30355266704288 869.8639955655342,251.77507770035834 870.7679650649875,253.34653178957763 872.5320173414881,252.62662550700088 872.9110827565694,253.575348268291 874.3777409825942,253.20242537279603 875.1908146625499,252.07362172632094 875.7769210817082,253.31786403819945 876.9299157824271,250.9950447004564 876.3187685549126,250.08696806310286 876.9069232402786,248.43548773595955 875.8876400280109,249.22475202315945 876.194812633302,247.5325642595542 877.0292058727707,246.98900808643816 879.0854385587404,244.19752997501132 878.0652883106087,243.01257554801833 878.3493606595441,241.5177908834164 880.0554787493008,241.9666644885877 879.8211113925549,240.08452110865863 881.2267862599607,240.41260325406165 881.7221648426688,237.5390875974042 885.0017647145891,240.63565878797158 885.841605250173,238.97360901716155 885.7640632747609,237.40787174180844 886.8276377580468,235.61113101916504 887.7556968230127,236.2311825108473 889.521847478198,234.60410903496717 889.3194281901325,232.5695991713655 890.8024660263114,232.4298600840749 890.7973947185297,233.47507253417274 892.3354023495965,232.26918575249783 891.0699440346804,230.62150807545902 892.9352148532222,231.18185824354578 892.8627320016031,229.9452508341949 894.5303500359979,228.82175451129035 894.7924369392279,227.4154654382274 895.8470012946943,226.90380129023038 896.830407814817,225.05416062567048 900.1822253399586,227.30973378522793 901.2989073714182,226.69662027699087 900.9559036269369,225.3032991154223 902.410731645664,223.55579216133611 905.7805275088159,223.83694994392965 909.2366630668301,222.25616799985602 910.3808029432691,220.3794057138145 912.469561350136,219.36332808980592 915.8168686816747,216.14446671319854 914.1429655820878,215.59441050093596 914.2572463522788,213.90843798554016 915.3490183614517,212.84261375201254 912.5247191920923,212.4966836577861 913.427439782918,211.32523653942246 914.7845227274513,212.17004626640522 916.0136712794838,211.3977629378777 915.0947481422598,208.68955228377848 917.3604270122486,209.37075035626782 917.3926136518718,208.49459439990807 915.7893129955781,207.97548457154153 917.0377543321415,207.24831126520917 918.2020549205682,208.9370325583712 920.4597776223331,207.28811008785635 923.7624219629121,206.48596153233882 927.23002208206,206.8548817100659 929.2632079411313,203.16425726269563 932.010528344419,205.4590020878411 932.9702237169657,205.21603862014354 933.1547056721507,203.47281490414684 934.240245503964,204.3050368598124 932.8050101221721,206.2732018010306 933.395832006466,207.98283936520374 935.37966248495,207.18444555674944 936.2142518617921,208.00576519574452 935.7563020610273,209.87744137789235 938.4644418876031,211.3677531078344 939.5563155748249,210.99512445176043 940.0741311040035,208.42293692744153 938.0529127644064,205.9780739064222 939.3200917636367,204.56336524867834 939.2186246219927,203.10878067061049 941.0767702094304,201.13938852496483 939.6181697798972,199.58613797562282 939.1989072197841,200.82937829983712 938.410949611458,199.5259872833807 940.7843286688599,198.17004273854502 939.2307931710935,196.93706777346335 938.7220725303412,197.33159825303449 936.7896366618902,194.3336339299841 938.5713792088832,191.3122466093581 939.4842181317348,192.25919113278655 939.765456446305,190.79558230830162 941.556819355316,192.30174691113166 943.6199816635598,190.74460883557379 946.0808932223352,190.3018628764538 946.6824837320709,188.21428328855734 947.5959748835642,188.35758965185732 947.4049876296267,189.88142468651108 948.6872250708203,190.314552416237 949.1426608458348,189.34173946813473 947.7759579639459,186.90755823793484 949.737235631102,186.96986375956294 949.7244931341293,188.7070891016076 951.4740226324243,188.78814107575204 952.6676401498434,187.56236804259902 952.8161783792042,189.2809210212066 953.8198424151334,190.24286291950716 952.8078799198387,191.45607969755804 953.7689383106173,192.61521731217772 955.8116990078764,191.82414648455847 957.1228177174728,192.35959178588757 958.8124180926919,191.65853302404923 961.8584622263212,194.25348865596698 961.6516693363566,195.484700251145 963.8753196633204,195.48407302358373 966.1221038967436,192.131846034138 967.2249368036776,192.45993261395097 967.3988160559388,191.43932372398376 968.8815274215858,191.93337781868502 969.6676895060219,191.059262203633 970.2504484816898,192.71010475781634 971.9017756087914,191.80282449452045 973.5805435378713,193.54051475932454 972.6412494267768,194.6387759787026 975.2861155501154,193.14560673946016 976.2770725130416,191.95986135044905 975.7448160097889,191.06251247001876 978.197435436333,190.49485735417943 978.953435156766,191.98653888125307 979.8940329468741,191.6185004239445 979.7794048101224,190.31010999617467 981.1687823446995,191.06430544618104 982.3115569650274,189.7864134893639 982.1034958651449,187.87781513050754 980.8027873858682,187.29922944969485 981.9237890643166,185.29821645258062 980.1746846226422,186.81037130759307 979.7072661199022,185.57736915530154 980.3224920994633,183.01509257810324 983.6788453601205,184.15165134747565 982.7617564199799,179.3810845230746 982.0876533290416,179.37940919177572 982.7492672337678,181.20553709018498 981.386185753193,180.77990678937147 981.6278318788931,178.34509915932597 982.4238433141446,177.3985939147209 981.4222976213426,177.05054134950421 982.3832981730972,175.81360861652252 985.2426647189251,175.58626530106073 984.9014379186249,177.17320269297613 985.8746599253124,176.5653177583623 985.5891335652148,174.38657833886566 986.8929863460577,173.862492862012 986.2117467677447,172.86124792820192 987.5299417382716,171.9792120499618 988.0166638024629,173.27717505434453 989.2143574846784,172.4160490625418 989.0963489634225,170.54596964067343 990.3170109310726,171.8603274875644 990.9290510394808,170.3638842142651 992.7896249191432,169.53314489333445 993.4214609836666,171.31387746596886 994.2060921541944,171.32335906300966 994.3658148637146,169.75659699822813 995.7236342696526,170.55315750543411 997.0108805008953,169.72280770101986 998.1892433434757,172.1232097856771 998.3504043379877,170.42434473178355 1000.8966314081845,169.44027536063243 1000.1576748866134,167.28614897578473 999.2995050490789,168.4067130549887 998.7723215698013,164.56177252213217 999.5486556151053,163.57899705765612 999.7925568109937,161.655116786235 998.531510630896,161.15895332976788 1001.65700926673,160.45181795217593 1001.9227978773539,159.2510468735113 1002.8375534333676,160.13766320762068 1003.7177288914884,159.6736818354052 1005.1299586508044,157.59660887114228 1005.4176869128945,156.17755793080448 1006.4378408587675,155.81737427200733 1005.0484187964526,153.4371280212291 1005.602902660919,151.56840468177825 1004.0457289247909,150.63850409384702 1003.4845483544512,151.33227394063442 1003.2216822543296,148.92128009211467 1004.7685876943416,149.02021752540952 1005.3640552601556,147.11625412443868 1006.9355248611458,147.67404701308283 1006.316895049998,146.45616659909354 1007.049523988498,144.84543657375355 1008.1587168995298,144.55190555566082 1008.6923434807954,141.8819367098805 1010.4616989808815,141.8661341230519 1009.948633832123,141.0358970836927 1011.2594042963837,138.95079638583422 1010.6219472456652,136.7772512673904 1009.4650255868926,136.8442842032399 1009.9715152008893,135.66872266934195 1011.9780020806473,135.08649424876444 1011.5997456819698,132.19478936568112 1013.4867589640684,131.4947747359438 1013.8742166211616,129.30494829450367 1012.4969509127783,127.6412760419039 1014.05837327157,127.28723707304152 1013.2558308132777,126.30826324752968 1014.9307915595635,126.5612232082135 1014.377376944896,124.9071697374261 1015.5877999495412,123.60179853569934 1015.9365648499186,124.73583058527879 1018.1092360024746,123.62349287883421 1017.9934171887261,122.3392882740668 1021.2861075768068,121.70582622615643 1021.4397602221349,120.57095506015253 1020.3092679736003,121.0390555661578 1020.5694488595684,119.34291009869469 1019.2616907994008,119.51814080910276 1019.5556363704061,116.67827646790658 1021.2486967096202,116.19505150742305 1020.972621982658,114.87245743266351 1022.3147283318569,115.17947660668108 1024.0,113.61675229769332 1023.2853961473768,111.99836342809931 1023.9009150841247,110.85380157559439 1021.6501899184516,110.06947184485034 1022.0676175525473,109.57905443022833 1020.3546304297008,107.46808745089083 1022.2449144414851,106.37474225732115 1021.7986879615406,103.2721289232843 1022.2417220936408,102.28680256647306 1020.9327323897086,101.69599279595309 1021.3401284919862,100.33055587421438 1019.8796783002444,99.0026479752413 1020.7587610334688,96.76856072961789 1023.1886487988864,97.6123337213412 1022.4111603543579,95.35176305139112 1023.336832961823,94.32126745447943 1021.9690316571744,92.77513397792586 1023.674789783541,92.8461704113804 1020.9820290535775,90.43984265506185 1018.9565920058157,90.2561646810733 1019.2782929911726,91.06915022940711 1017.2901622050921,90.25186304338592 1016.2829169462071,88.82686533160938 1015.8796456061092,86.33868463094473 1014.1993679713532,85.867143191649 1011.9916589649711,82.38904951793336 1011.8170876369733,80.9811521785058 1010.4379483189516,79.66880375990013 1009.0186288224537,80.0309986416911 1007.5156062222692,81.50637490582403 1006.1161904913534,81.86870998212589 1003.3216683712063,80.54599110341042 1003.2507663125983,78.10566296637705 1001.7697942475422,76.88653422528091 1000.588243289625,77.52049604310344 1000.0657383233802,76.72738525124487 989.24074988337,56.82179316825318 987.4567316190933,55.87511259502048 985.2559535857785,53.75912337735042 984.1967448955934,51.03896280535025 984.44746563185,48.581768531033504 986.9590721305246,44.98837076253176 988.358525909784,44.54027088721125 988.3867585335777,42.2406874260912 987.6880064583604,41.17021228929627 985.1044509316982,39.246407520403864 982.4165374166608,38.50684291260552 981.3493945402889,36.42711853396656 977.29663973673,35.04537493905366 975.9864617633216,33.9670243840626 976.8023104954002,32.085300180857075 978.6374726668748,32.836174239124944 981.7880213913369,31.806101268129623 982.0651758938777,30.48508578159567 980.3276298609677,29.96158210551698 979.9763621320702,28.37183099471588 978.1732089731695,29.862366272402028 973.4662566886,31.89039878404185 971.4697921631191,30.439289968276626 970.406989878157,28.86202693686198 967.8330290096058,29.476522255779173 963.9345693197984,19.286932217183903 958.562784866198,0.0 954.7488405440084,1.3162809625463296 940.4242660705007,2.7408580857369316 932.7991171886513,2.0927101622478403 924.3319296807823,2.21597795219634 918.2071261326639,4.6321142995838045 906.697112231889,10.840042953511784 895.3684103586663,14.705949677828471 888.1183022284276,17.74967414805883 878.2266143803464,19.735052325570223 869.930988286557,20.163416031610268 859.3319746899082,21.798896924866085 855.1490840301401,23.924210115649316 847.97257227152,30.309496757776287 840.9384404847085,35.16189088115334 831.4333276474104,37.0188343024206 824.2176805586769,37.383333403598385 812.7362755453847,39.809171347980964 805.9042526270987,45.44619582753069 803.8008214714531,48.88319894127858 803.9069353480495,52.154080456176075 803.3791775067085,62.20611612186133 802.2105404645529,68.508031090494 799.4045989667824,75.48896102753065 795.088613517872,85.07614862576304 790.3161580625284,91.24650449949229 785.510441939346,95.7629489685039 771.0331468057553,98.48104676577123 764.69354087863,96.9130772695139 745.1873084163288,88.73349353777371 732.1550003122321,88.16266572948928 725.7302412252276,91.36735680258062 722.5933493960544,93.75108592801712 718.5472303634458,98.60251630043297 716.1976578011677,107.18913125444158 715.3588092491276,112.85944706604778 715.2309138474996,115.93438274514233 713.9502927588898,121.57566319749617 712.5812399279346,128.689510047755 710.9010520304136,135.76259150265741 706.8506967239097,143.76258724429545 702.6245394872384,148.73893204823923 697.2799914252889,151.66589629436123 694.2630247600265,152.73279983542784 689.0543916865751,153.74165532569725 682.5497278376055,153.6386300300337 670.1960305035053,151.3025320249891 663.2080803029248,150.71999680196132 650.1355693124061,154.70652477934777 645.9511347719696,154.22736761095905 641.3207488497007,152.96583430191356 636.2470529113788,150.23534998959872 632.365334889801,147.31681467768271 625.9670829782374,144.52209406225245 612.5480247741336,145.7449243880294 601.2934947717863,148.68185659934716 597.3213581241289,149.6111520649407 580.2100585759908,156.3076229925898 574.9431029767937,159.34601892046533 568.9866765678726,161.22333097002922 566.6139520909697,161.17769140248095 561.6276405461426,157.38877500932153 556.9198607868793,152.43022038115396 555.3811959575156,151.51985838401447 551.26581071339,151.1501350910812 546.0221802142879,149.08313998918288 542.0315505530992,147.19764687880172 537.7572147993,144.12340820829525 532.3140404219039,140.72276436579227 523.1870478994352,137.9512501225671 515.1930974080904,136.6495602049606 507.7181260685405,134.25639099905766 500.9011140035759,132.56399387249076 484.93066757944695,131.0598780144952 478.3864332407033,131.85070561242787 471.82127657689495,132.25352100720113 467.16267496844034,133.2056461816927 456.34038238992645,136.61073312164183 445.157162470727,141.49290573916574 441.03311169484675,143.52039084650835 435.8993020932316,146.48719973703624 428.2548707797154,152.06823629149233 421.60751651372186,158.29516033595462 417.31662090364034,165.17325111217235 413.19983104789316,172.26906101221368 410.0469188273032,181.77917424964608 407.75473123139886,190.64127040346568 406.3939068333946,197.73841025131526 402.1560696767746,205.4353729100261 398.76396998604326,208.84132622522515 392.63360508881243,213.30958057898283 385.7027366032325,216.3603235673599 375.5437265988628,220.26071777684882 364.0796516977542,225.4041287043765 356.38392684879636,228.26196293295794 348.88215580700216,230.59002162559256 339.72963134392944,233.93339594225512 331.1542328734632,238.93676167801652 327.7505891336196,243.54757088220015 324.4270286203933,250.72914195692624 320.6839852714475,256.9569932765801 316.87184130963095,262.3995341902086 309.12531484243334,276.0802407388333 302.52852588917267,284.95450745570395 293.9143305590489,292.2561848949469 285.4032268220436,294.066473040496 280.1848506266754,293.6681825614817 273.2151541503967,292.74256249589547 266.37508615368785,290.1426721837816 257.79792628740466,283.4181673192341 250.8547659800403,275.7960726387922 247.3630771021592,273.0431582622747 240.91754590168188,269.1843361235705 233.06643990867963,268.16856007761595 223.22690907205563,268.54099883276973 212.1922461943719,274.39749160922156 206.14042884095517,283.2528818856536 204.8960987173174,293.3328742470785 206.07207649055687,301.8391727047901 208.59433844719536,308.5993796422101 217.24720492030295,326.88773078025145 219.11703465694333,333.2716829323467 216.60953714641917,339.04215734157816 214.92662813919182,341.5515462519229 210.62533400643355,349.1168707970987 204.32670292431573,358.47299593991517 199.1175408727734,363.16554787610556 187.06791728936614,372.2221033171335 181.0018465031581,379.0098905517025 171.13921672017395,397.2257417796048 168.68840478973163,403.4596129404083 167.46888836814952,408.8145412515336 166.9163103097967,417.8202771626667 166.89994592010507,425.8374289161683 167.34873472887597,438.79697519294393 167.21754910079363,445.32223653957965 166.82797035524538,451.66320990501293 165.62893306100904,454.7156490703726 161.98753557221133,459.67762135817395 149.57749375680046,467.50616477733513 142.65112373674083,469.48075281861077 136.5175548616832,470.08918142182426 123.38557950593446,470.7602937560034 122.05750801082276,473.9106985918846 114.50244976122207,487.4759377994338 113.09556406589576,491.47171109962716 109.7463884976635,492.43886418410955 105.4987513985844,492.97175103156246 96.78634919332238,494.43334243745977 91.87900402126988,494.95091268823785 87.10608865860712,496.6206768806678 84.48094187622758,498.6914908789247 83.86474733316926,499.8420324086007 83.32461639368671,503.3075378168453 83.37671307113692,505.4304686290544 84.04148228955592,508.68527217593874 86.20207333763277,515.2162571049462 89.25078539939948,521.0178012992025 91.98511621749763,528.0768679547386 93.2959029634002,532.7178624741204 93.04783890105863,536.276108134879 91.10361260719561,541.379675170272 87.84576525470608,546.896732740868 85.49753693040572,549.4225058502263 74.60408595565725,555.3606269794923 72.28120120604753,557.6945107646663 71.90941786032124,558.8031199163089 72.78060749668775,569.9527049695997 72.44097188338112,571.9255025082812 68.70179770190526,576.4866806013008 66.9687934066391,579.7046653746156 66.30054058090344,582.382485704495 66.46783106865138,585.619343986195 65.56944528244527,589.397123405247 64.18451287668638,592.841104221062 60.19963749402051,601.0414643368157 59.86128707782444,602.0413496202174 60.509385704976296,608.2486520154566 59.10871042363436,612.1227248391591 57.705371178854875,613.6184986983875 55.58424794524346,614.6853446712162 52.12000228960356,614.8274511349827 45.50067693640215,614.6871623445503 43.09897652746002,615.5959865007961 40.44113240861102,617.1679474623428 34.742349723451944,621.0809586213144 30.185328791719076,627.0194554790128 27.301984030011653,632.4913821588141 25.894208038120638,637.3630628480553 24.993749395046162,642.5854254931382 21.017374573736756,647.5267225709986 16.417559037234827,651.3079758930876 8.844012533801207,655.9338805297211 4.936428233286759,657.595660731607 2.864892503186652,659.4751530817881 1.8667676522008019,662.1317279719 0.0,663.9815804898493 1.1637057179954955,666.8533225303781 1.0654870974037194,668.816632218787 3.214245963540212,669.4379343756952 7.2958674496286795,672.2253456180263 12.365039487863141,676.8498557045702 16.808364577328856,683.1029988882653 18.79994756451716,684.4723375145286 24.10271462474553,685.5849687670417 26.888867550511023,685.4874346217043 30.93189097872666,684.0635158893906 33.26922009517469,685.177763071622 36.198797114697484,687.4660135454728 37.208660021500826,688.9493959909807 39.52506348580324,690.3960239897641 40.629383831643146,692.4146714761101 43.80011769086144,696.6562323127762 44.7772997771342,698.8268181308858 43.88569844566139,700.4841303215525 43.62705560079893,702.7314016354063 46.28529296999316,708.3100921304891 49.2747553220483,710.3931047581649 51.998601859300635,711.2754900988447 60.40818806952612,712.6131978457004 62.30547579633825,711.9799930454295 64.09048058653319,710.7293533034363 64.52003484575837,709.1528720893238 63.70048513720082,705.2485064721222 64.93757557738415,702.3674584368068 62.10342204864201,699.5955174083019 61.553485785602874,697.4104110772698 62.19945302428776,692.9931969976135 62.64592437379008,691.8247321691167 62.615303443132966,688.4369849031291 64.62056865923277,686.0403618927945 66.45819410602513,684.7182519836728 67.73028948215168,682.9109521447123 68.50138043593091,680.8517942124453 71.01792074327831,678.0801290250582 73.26537764260786,677.5852866263062 76.73322534777421,677.4770863025683 79.70356369595734,676.0809905965039 83.19797295271461,674.8423324546346 83.52997800300476,673.7215109878871 86.49279661775714,672.8352689676469 91.39720605545862,673.9775018234571 94.26861958220084,681.5679926548262 96.1199542084679,682.6106866531252 100.89567791294536,682.7282369173108 104.61526278839341,681.1251334824822 106.85769782872646,679.1933220921763 107.7730667396703,677.6553837702133 108.98056396052031,677.8196416849632 110.63378057276552,679.9653591042468 113.25925603463172,679.7458188819259 114.04180486797664,677.2573260112249 112.92477059392168,675.2328085376172 113.6397454263542,673.5702925504404 115.6093241188066,673.7878094649374 118.8797693663558,675.3786313322313 121.7576107335706,673.9469002498618 122.38174455686568,672.5773714174484 123.24423608240399,668.5090463875003 122.32675259575079,662.7520920216716 124.23006347841367,659.9082570408218 127.34729428947323,661.1677104681971 133.0812457016452,661.1633744218082 141.11321008371627,661.9187675333014 142.91826657149812,663.127635746123 144.32187308162568,661.243457300725 143.9948072080799,660.2945557318071 145.42595798013846,657.8491680085164 145.35967521472384,654.4332742641517 147.074924440515,654.9374591622233 148.33812605857287,657.5259889438817 150.1651162079748,658.3735761160748 151.4939328697464,657.8828119337352 152.67789310349906,654.853355055106 152.96057724205207,651.3228025739847 156.15790016062158,645.4017726142409 159.064826532301,641.266580886721 161.10244078299036,639.564507372166 166.68951970843918,638.9386523530009 171.75069750243537,640.5049975954113 174.95043177672903,640.3809918912335 179.81753501368397,638.6614430720368 182.81304743209677,631.5228838480282 184.31187436727484,626.0821225447656 185.69423603607285,622.7794401607392 186.56756819956234,622.1641163818954 188.91677078782752,622.190436572755 190.0986345679523,621.1262974979581 192.282333586794,620.5721160961463 194.10290287575828,621.6022890563108 195.0990232459439,623.986789683325 196.51960996179656,623.7785131696423 196.876800197829,622.3867376767146 195.37630051206298,620.5407767130721 194.8227570115867,618.6410175154651 197.55162872499562,616.5383720055787 197.065373893845,615.1137202341524 197.78015971998894,614.0137106826654 200.08337420387946,614.8802524185513 201.0478094272754,614.2740461157404 201.02880214687977,612.8634675777247 199.79650697526233,609.535042793176 200.87310258504948,608.5639180982462 201.79937947212923,608.8868627810614 202.83891232726756,612.2094454109767 204.44907358056105,612.1030561050458 203.95826766911506,608.7961302962365 204.36297131134788,606.4837419375502 208.15901041673663,603.6750279869583 214.09286319483385,599.7491021473021 214.54018125912924,598.3682095270185 214.60712861194077,595.0946337769963 215.85652701740906,592.7341190066467 218.38678139679627,591.0749988637261 223.50348550791486,589.9286745727394 226.37351991698728,587.0695337148358 226.53489131338202,583.9991187173886 230.4385173681881,579.1358823999653 232.40887381188628,577.4603880189907 234.4160396442822,574.8497952181855 236.2933725320174,571.1146691763485 237.19302803991735,568.1548003858273 236.8633689346254,565.5280820893654 233.9644438913245,561.8309526224941 233.6651779004318,558.5416672420082 234.20848590206126,556.9797035753656 235.97653512860765,555.5725105907746 238.640852250412,554.7659214934921 241.88844070366108,555.2140553533748 243.5948943490242,556.6055610939954 245.53734669366816,560.7306434895612 248.7864074991686,561.8425147614505 251.9925108325584,561.6260888882888 252.64366688229225,562.3008333624539 256.17447456871764,563.5158825661314 257.9607258752664,563.5673241862744 262.79263627253204,562.9986560239915 266.64882206289417,563.4997524776998 274.8257953002744,566.0245872880182 277.94877854219,565.8853535792466 281.3098990539039,567.0270071975784 285.20559101519837,569.0164018307244 288.9424556122792,571.9893799654617 290.0621977847044,573.7240975320308 292.7977222890187,575.8132347836975 294.1994438652183,576.1990566492233 297.4269729981128,574.1435448591493 300.2657680700794,571.4577003439792 305.7496485625095,568.2331514060992 307.327674546685,567.7464426115519 311.4608363637336,567.4398650086033 313.4492430810821,566.049845392243 316.32755778430584,564.817169652993 317.6449680639847,565.3179734100528 320.96800179513,565.2684355045863 324.45376865009877,568.5705600057432 325.962424657155,570.6241127341034 328.1504527492288,574.9736965845445 329.03085230827685,579.5985776736642 330.39196754560936,582.9904090318518 330.2406614027502,585.1916159467862 328.5409137708795,587.5420261863298 328.2813493319344,589.2315667360763 329.01327107561974,590.3652964512235 332.60224868443623,592.5713426661233 334.24837484753994,595.2267484422249 368.96191046888447,625.4932218677155 381.489658038294,636.2348643270225 384.86146774784004,639.2236233836401 391.1774032227594,641.2902533274951 419.7887192937903,649.4199853350535 447.8759096179807,657.7189044287458 458.2301850806075,660.5094288355556 469.8166083575943,663.7855797259276 481.31773640427286,667.2568739183145 486.28338089719483,668.6434418317828 521.2898379700305,678.9870895193957 535.9991717446647,683.2175382485315 543.7439975085795,685.7097238608353 564.5535280448058,691.9728417938245 574.188323733577,694.7961832749551 576.197444038346,693.715594527989 582.1822780135475,691.9441266581595 590.0008143674163,691.0822188305937 592.1950424134865,689.8793303315585 594.3626707903027,688.003492896049 599.2426900661093,682.4978133947815 607.0041323993298,676.9050212767166 612.2806007949761,674.2806022655085 615.9808326163206,674.0315643326866 622.5299717628359,674.312188917512 625.1832689783893,674.9942390436694 628.2628587267908,676.7184790908714 630.0789000381906,677.0284875099441 631.9669030081785,678.2996525729901 633.697401718892,680.3511897534306 636.3360726592316,684.3262553211307 638.7347167226992,689.1173625366368 640.6762252952115,692.3552748247457 641.4618068110705,692.7772361410327 645.297327022105,696.577684370377 648.4492378930552,698.8943234463409 654.1022431141763,700.9481330578162 659.9967151123315,704.2041317878162 662.4807931045056,705.3018387393586 666.503478091381,706.414972236939 671.427381295104,707.2483661949665 674.1308606206424,707.034208343211 676.0691501492705,707.3961068247747 681.791915050397,709.6337192917966 689.2404524197455,713.329697183113 697.9350767707002,718.5406927257187 701.0200260304623,719.7362077622525 702.9698940543067,720.0904560967634 705.1648455546559,719.84254799011 708.5795278150842,720.3190177364166 710.4224698301334,717.5807674408582 714.4915086253961,715.7030992795508 716.7690560515217,715.3597348097788 718.6808092414046,713.8571530903232 720.7324367270998,710.2498054836643 723.9144001365373,703.8184691757815 727.5734629599606,696.8121610930086 728.6463095025608,693.1894407067499 729.6845749792818,687.5186986669323 730.4923862575434,680.4495411979492 738.3794648362154,663.840807294248 740.2104658161477,657.5241026727947 741.0848243582952,656.40282289567 741.0264265724483,654.5413714284723 742.0946409431356,652.2203220918241 743.4364172202868,645.8890674695979 744.9361673410212,645.6428572136239 747.8750200236772,643.9153162615644 750.3450263288818,643.4050178300377 750.440016708491,641.4731367725327 749.8376016858493,640.4223362521263 751.6980747244802,639.8714258297332 754.4449443777866,640.3844150383374 756.1640399386473,639.7718720810419 758.3102510726465,636.8060139711664 759.7245176759197,636.1731239142246 762.0656520026289,636.022238564587 764.0923741593182,637.6057680931706 766.6290331725523,635.561025290897 769.688593902937,634.4182458839409 771.7073182200845,631.7005307325373 776.4258061732294,629.81012820873 778.2910966399265,630.1289726655548 780.1675113768806,629.7848663190499 780.2295529391002,631.5565484521289 782.5717078640976,631.3223328172228 785.3958962387419,630.247664725895 787.7497621751805,629.9111692687705 789.6152482640157,630.2220529197868 789.9152017706599,629.2972408966203 791.7004842925003,628.9436593477002" /><circle cx="113.87328861811758" cy="524.5426140379598" fill="rgb(100%,100%,100%)" r="16" stroke="grey" stroke-width="8" /></svg>