<?xml version="1.0" encoding="utf-8" ?>
<svg baseProfile="full" height="1024" version="1.1" width="1024" xmlns="http://www.w3.org/2000/svg" xmlns:ev="http://www.w3.org/2001/xml-events" xmlns:xlink="http://www.w3.org/1999/xlink"><defs /><polygon fill="black" points="305.2310574497055,1024.0 305.3734695669873,1023.1357596318298 313.48723315874304,1020.0886624394568 316.2406776268949,1019.6338719160558 317.76741055757657,1018.7226066730402 320.51901981011423,1014.8952719995098 320.9843414924077,1013.0639222292167 319.88861910043937,1010.5897196395688 323.6050180020251,1007.859470522994 325.5885554594424,1004.70361267936 324.44866161803674,1001.8811970335657 326.3350151422859,1000.4132202874835 329.6910800764015,999.699108465402 330.8985542412775,998.9744921454883 332.58483715015404,996.3959993842521 333.7976036185422,995.4348825708158 337.5002883902356,996.0144787584784 339.83002520334173,997.4637823999321 342.0880967070285,998.3695374279157 343.1303499492131,998.1283859633933 343.6160869094942,996.1923089064044 340.7207650471212,991.2611555125974 339.99966025111576,987.0693424653635 337.89610229316787,983.2545676839277 339.3593660455914,982.3532452307863 340.6002733193665,982.9549624636019 342.48786065743894,985.1765182127785 343.5675293035637,985.4591073065083 345.38463762694727,984.3408167915089 345.86463971274947,981.3992306607093 347.3521038161097,979.7472887800071 350.13770957944934,978.8709054997498 351.460818780148,976.2539625207713 350.96504775782415,969.687985510076 350.1993865590455,968.149612583856 346.81947128263045,965.0402203454867 345.88600819296744,963.1317350373748 347.2158230497223,962.0056661325572 350.6747358633221,964.0046259855528 354.78408344273413,964.0168088202654 356.7487095945542,963.3294766950495 358.82670237067623,958.3954781145203 360.35383449390747,958.0399030556576 361.28408400866175,961.9506322703759 364.42624759484096,963.3757282864852 365.78867705688623,963.1017482691744 365.87183899019715,958.8253797749628 366.9158055985723,957.4540263779995 368.5299317256164,957.7027418018397 370.5736892227524,958.9063839279374 372.49776273393803,961.3637383541688 373.58399868817634,964.6065974324642 374.90298357610794,965.4938039896592 378.7284766630325,964.2943958851913 380.1753303813147,964.2973554514184 381.5911699845223,965.1541510640596 382.16695244721063,966.3435530744287 383.5009922696158,973.3682927397584 384.42715335254223,974.9467389396241 386.19407276496923,976.5310241931991 388.20927811104826,977.4569873323805 390.26835725802925,977.5489082850096 391.47518169886393,977.0289927438203 392.43550388928014,975.5756897338165 393.84637098380813,975.3832789125879 397.47219125788627,975.9924600904909 400.76214343825706,978.8855675459384 403.65529545176264,980.1864220864707 406.07464619676153,979.8655741368632 407.1280147076956,979.1409352779576 411.09070407924276,974.7315314329004 413.351748292532,973.48545194339 415.844100933552,972.6811690872931 418.22256378512736,972.7311282781021 423.34614402268284,973.6702547827566 428.9763846166278,975.7078533986023 433.1678137647339,975.2327494667198 433.96880359301684,972.9672957058984 434.29438265198957,970.0671868036997 434.4567955809982,963.9298150382601 436.2321000819503,960.3835760547322 438.16702761536004,959.4175012812749 442.42184087114003,957.9660417938486 444.960956156895,956.8422865429342 449.58082271919676,955.9436287308558 454.1496197023858,956.0418959170447 456.6220582130239,958.1252788854 457.16052747365575,959.7563215415233 456.2448824194549,962.7730011886212 455.8860740573303,965.9210192824141 456.13745093776623,967.2661665495675 457.4310082263529,968.6366941220248 459.22183729863883,975.5448898322329 459.9427992945862,978.9433165853875 460.26751188318497,982.1697013826299 459.8582061031406,986.2015834256994 463.0562006001089,991.0062362651043 463.6977031399639,992.5346279893948 465.3149261171026,993.0184495078508 466.5329821216489,992.0559028180543 468.3977055282702,989.5366172686665 470.9359955156743,989.5124347708261 473.9243620007566,990.3082605412412 474.9769457012841,989.4996278666697 476.01823710518613,984.2507389533392 477.5631442970153,978.197531544006 479.2542701317824,974.6510997769236 479.7449301761111,972.8699388423263 478.90678299187834,967.3230616941437 476.6300862675937,964.5408760593032 476.0741671720126,962.1384362382405 477.87638918633075,959.8047580398446 478.3421110813735,958.5178016173954 478.09760588126875,954.6749717213568 478.8880838824554,951.8641573126314 481.57220366766273,950.6566323456557 483.7043841065133,950.1827245150668 486.1499156727846,948.6267578345092 488.0728342952553,948.0817921686833 495.2652746066804,948.5540443827417 497.04612940923647,947.5866307146433 497.2092519524738,944.5130243010449 496.4825473448707,942.6567557009272 492.84047176069333,939.358918777044 488.75109976403263,937.8830039931578 487.8446788752842,936.2330631635862 488.01395111307727,934.371570266708 490.270283430887,931.297071399581 493.8375435043533,929.1184018670191 497.38841411674457,926.5277874770685 504.67106765856573,924.8210338491417 506.3753266449344,921.4296353096368 508.0672948905967,919.5702602091616 508.38972511294656,917.5547418931659 507.9845401076043,914.9673478271674 508.9664959701039,914.0779085834931 511.7109626926822,914.9662831495101 514.3833573441693,917.8574289821727 516.003783698053,921.4853696630893 515.9210375948393,927.3847994237573 516.407034401026,929.5597509774256 518.5116686982936,931.4897335632727 521.3539756751485,932.4482355510199 525.8192192049332,930.5406545244991 531.8692242413842,929.6710355265076 532.3829692183249,927.3045626084674 531.5251892636608,924.4736141402964 533.6456960025052,923.4226420087535 536.1667162367064,924.1064822403949 541.253417945668,921.5161914749141 543.312746879366,920.7529022033377 544.8974942118962,920.7429875431814 545.4600014823665,921.7873388728832 545.2296729350201,927.1837219977124 546.049267875053,930.3234536770333 548.1495484498186,933.6803884659632 549.2260303689254,934.6293953282365 550.6648465651492,934.5892127533376 553.5707153494519,931.231825397007 555.451298791423,931.8259715355596 557.9615117451486,935.1091944706984 559.426314341442,939.1382823443341 559.7517516896505,941.0577254045261 559.7046765504451,944.6957231705005 560.252253220798,946.5328523531978 561.5906608783152,945.9281731386775 562.6796411952204,943.4744932408094 563.4202708374404,938.536507629339 562.981365103867,933.0522792974832 562.2120935482075,927.8676028691921 561.2205109201828,925.0476704699412 559.5071994402645,922.4488875537933 557.9675887932395,920.8557826141958 554.4797734208895,918.8842606957227 549.5836035262753,917.5076875275398 546.0226546785415,915.0435524516367 547.8587008291969,908.4361153219089 547.9206223508621,905.0755463430972 548.924034985059,898.8640920487485 552.5236327389546,894.382259285187 553.0658127263462,890.0441800682199 555.0819544763572,886.7744842959784 555.4751406979193,884.1423214330212 555.4200808070557,881.0102234683104 557.3763795076958,875.0713685533581 559.4649954279182,873.3729470344456 559.686622867948,870.0747971636657 560.2199907297957,869.7428290072946 563.8324226335502,869.616340184253 565.2737795288829,869.1042680595677 566.1673692615321,867.5167154222115 570.9981403718593,866.6528389756893 572.5223644209864,867.1058867838703 574.4322273990713,869.0647607702841 576.1459231745711,867.553910775013 575.817300587062,866.139791784613 576.561060109567,864.1312406475676 578.5152018554526,862.2902231936695 579.5961567107488,859.7679357408927 579.1211986377433,858.2813590740844 575.3869463982452,854.5374089249162 574.6217047217552,852.2723945491462 577.3606449327306,850.34412133497 580.7060018023603,849.839262768238 582.1382212460242,850.0874397346364 584.2555139875361,851.8805073187731 585.6284073194121,852.487458782568 586.9631002100571,851.6671727902317 588.9383218816429,847.772353062805 589.5128238655038,845.334224962584 589.6227629872665,840.9079385542434 589.1016642680177,839.853557935764 585.7492874407025,837.1652462485774 583.7422137457278,834.1393934482611 583.8133833230893,831.2229850388146 586.6254494056222,826.9430658458061 587.0390794864744,823.3672620429202 584.8289989700177,817.9408259177976 584.4371336562956,816.4549593438576 584.7959981196187,812.961661600018 585.5109909243166,811.8281267978175 588.5780360659885,810.2881589381971 591.5715563379595,808.2669634636263 592.5421303936427,804.9549756438303 591.7346984144992,800.5248449063176 590.9233133329589,798.5190961020292 587.8695629638776,793.6944788237375 586.2393693049032,790.7694555424283 585.1826908966203,786.4044071343076 585.1015098654563,779.3023568405212 585.6689571437339,776.9688085327308 586.718184972473,775.1049778510148 588.0586321153205,774.0083229524316 593.7901029493721,773.5480840770219 591.8197626796162,766.5122008842907 591.9028860335857,763.3604574345692 592.6238710721999,762.2268224043653 595.5025924679869,760.7302050765586 600.3192453490943,760.6665682480179 603.2462506291561,759.2515679935511 609.3084845771692,755.330931455077 614.7983128582043,751.1276694628266 621.1386905432718,746.6406862301526 631.8325313428492,746.10407708863 634.1618528862923,743.737908673301 634.8155418871975,740.9840539450506 633.0929229752512,733.9271290322572 632.3616429187562,725.6845860888459 634.3549143122353,722.921263627487 643.3928202846231,721.2975256433737 647.056038289004,717.3421655210398 646.0023534949715,710.6726300150367 640.4792227178043,707.8396872808466 637.9542234288735,704.0940985294573 631.7595036075709,697.4608870961808 627.5423459289593,691.6958811143609 625.8792633641224,687.9738528944677 625.9518499628806,682.5594810999148 624.3021440719956,675.8640660584119 623.5827261143525,669.1944827827907 621.8169474385099,656.6366756194111 623.1210588648737,650.7432347504634 624.0681798674168,647.3015896001959 625.443150014746,644.5750513541918 627.8605231571445,643.2263739219861 630.5609368328003,647.5123214819896 632.5441286964194,649.3738778600379 634.5127526495855,650.2211768393954 640.4411370850571,648.005947027146 646.000347957402,646.6431091918109 653.9489773369718,642.916638255901 655.9004185923201,641.3952610566687 656.5416443288095,637.9667462986324 654.4957308501453,634.2292207032121 649.8487509196857,627.3542360507715 649.7180937494086,624.7116881389973 650.9753197217533,621.1045018076276 653.7396037464888,618.9213626914333 659.6015503626463,616.4603878223008 661.2974338512996,614.2039747439873 662.2705091068128,611.6031141293969 662.5334805554955,607.7790520858732 661.9786749347888,604.9852902691922 657.0268061825672,600.9218626113397 656.4817487210812,599.2966736560247 657.1880768696519,597.4059672540075 658.8345013352251,594.9557838998337 659.3519006788691,592.6557288354385 662.1100748298866,589.7567637709112 662.9156553176155,587.086172215297 665.4279750165267,584.7216134322063 668.3013947252152,583.3786256385604 669.3875955865689,581.1987639637323 668.4179132534589,575.7347059554826 668.5795380807959,573.1820879310809 669.6890515927581,569.4350978972143 671.3545373337454,567.9267283625136 672.5739072645223,565.1210488375172 671.6270759229499,561.7365607199007 680.5412309413372,555.4207964263481 683.1084846854526,554.9920041568649 686.2452730953264,549.1497968252975 688.4313299672378,545.7952065687364 690.2628934570114,544.2852833721522 691.9672953245768,541.5578269860682 692.6992779433408,537.5881721965172 691.5500896672116,535.0056522527793 689.8300074282264,533.8413367205058 688.1004829628451,531.427481231033 687.496541277709,528.6354255476381 686.1288046021377,526.3221015164315 678.1380109082726,518.680679058469 675.6312088974096,516.0160834598173 673.6840503132921,513.2352450770979 672.6319702125215,509.638710944635 672.14117917705,504.16485104915205 671.9847439272108,499.8347798440111 670.5399226839737,494.6343613252617 669.2107941508827,491.9919818157572 667.4767097711352,489.8242980668065 665.3877608725612,488.3039222342935 662.8555554989484,487.6779191336584 660.7791337294543,487.8463017084837 659.0682722369838,488.8110006264843 658.173155005539,490.46667272690354 657.9165396799308,492.37280163662695 658.4718037211458,494.43601969459223 661.4137176747232,500.6809919784698 662.6100786192588,504.18445747321755 663.2287942812862,508.2136613821068 662.9456935035681,512.1374971431455 662.0141249642079,515.4923432412975 660.4039842050173,517.942362053122 658.1605367919589,520.016149772837 655.3237095868094,521.3686234559618 652.6997563693951,521.644141797822 650.2075423739053,520.914252488679 648.2554339283682,519.2793107773134 645.0890476463035,513.3629721886484 643.0934987852247,510.53095595889886 638.5606091088129,513.0514457406764 635.8766061922021,516.4907773958753 633.7676921214372,519.9259504191505 633.0040020109122,522.6869132955376 632.8788200975566,525.5341889658503 634.4681587292222,528.8621289045348 636.6959693924169,531.3553483363387 637.6450814975396,534.19495545116 635.2243402737396,534.87808483263 630.8013359144476,534.4900838658891 628.1717503376241,534.9181576136688 625.4182555763398,536.5966112196406 617.9865017414245,544.8430431049132 613.0120443701164,545.9628976552307 610.530052609921,548.8998625223239 607.6190548814501,550.7631583896296 604.7044572407538,552.1148794902682 603.0097539499858,554.717702667434 603.6148476462046,559.9793825759705 597.9226125355915,562.7736977420421 590.3110140465261,565.5084670059547 587.807857775158,565.2800986149653 587.0022593244611,562.9494304790363 588.1751527672419,556.0889303994607 588.2996550882154,553.9163080461601 586.7899747807686,550.9145556667606 584.482454860009,548.9324472884695 581.6258428155704,547.7019405379043 578.4080037817791,547.2217489540692 574.1777833012295,545.6728328299052 571.6045178432915,544.2348584880583 569.943908556483,542.5767819653928 568.1259744666074,536.8213279642328 566.2552594022516,534.663010917807 563.5221662132866,532.0995650617529 556.9336229415468,529.9816345434375 551.7541851872741,523.9314298392994 549.7471097775185,522.1122492163197 547.5071247516189,518.5421594659234 550.0557586100541,516.2620301271697 551.6918510209982,514.1942867418729 551.4572048963604,511.1951200886858 552.3819453836862,509.4281236131774 554.1573655633401,508.7508826824877 556.876231278798,509.2249896247929 559.1643770278457,510.7049483580888 563.1838250384355,514.1811203978386 565.6818241454399,512.6601558311265 566.78359627153,506.34543743468987 566.3728122442561,498.53589455643 564.902328718235,490.77433121818785 563.2179513851934,484.1927574596822 563.1149102668006,480.09875295589256 559.385078878156,477.42098176286515 557.2855963358892,474.0044932888612 555.6098388288104,467.5061409419843 550.3631864056576,462.4519903546832 544.7494666943156,455.1497362302098 540.4689206155886,451.575035987099 536.8208295261243,449.5195736165872 532.7805825665179,448.8491780548544 528.8969591429144,448.9654861456545 523.4361261191409,450.2986436461299 522.6147950134836,449.5569609977314 522.6747199834545,448.0929685786382 528.2022762041223,440.78295899315765 528.65182903575,439.56296582160064 524.7044253905468,429.3134263114482 519.1161669832135,420.9680876388013 518.6744015975847,418.9657775768319 520.7113846753325,413.60280693620507 527.7852836435923,402.51959786967427 530.5490777295205,399.74064615498344 532.1881586327208,399.55740774280366 534.3403297921242,400.5458190148131 537.4916692678552,403.10354823099476 540.6453280716519,403.9946739265215 542.4191275709965,403.144582274184 543.978177427125,401.37483121932894 546.1913894528375,401.10559798571285 554.9054050133121,401.2027822902967 557.2542966400953,400.6038863289449 560.0275755789644,399.23551451408173 561.0738974499052,395.1377263590431 560.9817873396762,392.7138534887638 559.1718395838092,388.93084575302294 556.3733325991988,386.3614675864941 554.2888022932982,382.86641854191873 553.6888261827496,377.77615626546424 553.8112965171139,374.24693497529597 554.4122194079544,369.7948666917134 555.5075287566676,365.9121116875614 557.575530120019,362.6465840278796 560.3834883583306,360.39926263409575 564.5505369800553,357.5692189407289 567.3578992960602,355.2706940259112 569.1421254093108,353.0908554778571 570.4857953783379,350.1683767746931 570.7423311085197,348.0906819087927 570.1872185674729,345.87521399849936 568.9109914188069,344.22705732798806 567.4525526287424,343.389078541883 565.5972510092458,343.1150018480638 563.4621021104189,343.47622930613 559.0986187419627,345.68273625013296 556.4750035100476,346.55853740337454 553.1231883166217,346.92744423230135 549.7651811526252,346.49974784978554 547.418319614765,345.0934553483486 546.2378182602763,343.28015344353184 545.4494115744227,341.1282959212497 545.3591514645161,338.94086455096954 545.875426079591,336.4832156208673 547.0302899556199,334.13473814791723 548.765102659863,331.8447594492776 551.4276216649959,329.6495971590715 553.9519458060461,328.54926992638457 559.4329055722616,327.0214529226504 564.58127234948,325.20928964552195 568.6942027371435,322.9021404219766 570.6068227209535,321.3150902320999 571.905522781314,319.0276217355587 573.1024621025264,315.9417709159195 573.474046755919,313.66042336812836 573.2192753899329,311.66824507090405 572.3800317294816,310.3657203638626 570.478259105588,309.2332598750045 563.7092194351258,307.24409550271923 559.5128583279778,305.28883790307964 556.4842874620841,303.202643711163 554.5732775609519,300.59885610596734 554.048145182996,298.51628807612565 554.1803805804511,296.5228134166663 556.1090252644556,293.19965993112885 557.8035851289702,292.33983291603624 560.6651501882437,292.0859643134013 571.4125671284737,292.56793553347427 575.0599665433646,292.13425487805125 578.0106577499869,290.79654145646793 580.4536380227289,289.10370258242824 582.578012455362,286.3512909463899 583.9119276580342,283.25566621127916 584.8551693390249,278.46623956435644 583.967772188539,276.13233149027735 580.5883055090042,272.05774677589386 578.4714456414357,268.77118710768696 573.9886049150617,266.2471140255582 570.5829069977285,265.4719020451065 554.8665373468316,259.36295290545354 545.0728070970173,256.3194528161665 542.4232325930562,255.96920779227833 539.7434816083515,255.1996587640242 538.0367295448159,254.0666843392312 537.157001732257,252.76416637990894 537.2363808435302,249.9135014292624 539.7389280463487,246.81223942597512 541.2892349851315,246.00458500303944 551.3996575309867,244.94907035429094 555.3718230376369,243.55428589462076 561.7069128539431,237.91594488969952 563.9465160478009,234.8979915925396 565.3286590074642,231.75245985917945 565.7101139014113,229.87056922129875 565.7374280769674,226.62192261556424 565.4207466360174,222.57897961506296 564.9670435447796,220.87682958954645 560.5167620920296,215.55413372508156 559.5047970164529,213.93651299103726 557.6316821901371,209.62864162290998 557.5138102358156,206.3211977292524 554.4413085102759,205.54461480887142 550.5880227097393,203.66901134483714 547.7996843809368,203.1156937524196 546.0333255111577,203.47428826883004 541.8729205323442,206.34983854168945 537.847808599789,210.06200190812126 533.0136114333772,211.57365180149532 530.7121958190282,210.3621769764104 524.0651547093973,205.82851041592346 522.476725840501,203.6640368999207 520.6493937981276,202.0511420294372 517.6757771288112,195.9634295625434 514.7314512421237,193.38776985147865 512.8939179721764,191.10147959690926 511.8091331770736,188.85163079797758 510.64891941160596,184.29471330103183 509.8833783435007,182.31795644722797 507.53700652656,180.36202031135417 506.7987411817893,175.8945987232746 504.68473924511443,170.1697370897133 503.8385483150999,169.52143592801156 500.31745977364136,168.5221005101597 497.7068714369486,168.65975841818351 494.56135128714084,168.16828590870466 491.76285633193197,172.47265435417785 489.9928092530564,174.47454373315054 488.3872060372112,175.12751547636935 486.3627593959971,178.508635480748 484.3333533367909,179.80626525374532 482.4338210008118,182.14608046754688 481.9304273281552,181.11724707007932 482.04507926250494,175.94023764379597 484.64723010486784,169.84005337588383 486.2564519606522,165.14460537854598 486.8079817387753,161.42617682676553 485.8023823802068,159.55273929010866 484.0076952461252,158.60494947831126 477.06877336890653,157.61374222830796 471.9360260362743,156.08149720294045 470.85673587196476,154.58796440226 469.33400129344085,147.91067072059013 465.6874891577744,145.3390556248064 462.5594814552954,145.3668601028868 456.3097190026633,147.6574961122335 450.0669193702011,148.77532244301233 445.1633432640826,148.5573979429322 442.88403665454763,147.30423281702747 441.12959992065265,138.3825944742107 440.94643721966065,130.28119620581583 438.1384045933937,124.15322386832338 438.2667224978222,122.47851945333673 439.89738278163605,121.46890105382715 442.6721446826198,121.37271556894211 449.63583737649145,122.33347929092713 451.48247522041635,121.56892013248637 452.25399345749116,120.14573829208587 452.3872117238987,118.06275196804006 451.7246219102773,114.38365111134397 451.3954518335982,106.0279025417534 450.02556979984297,103.11818657343383 449.31834533316203,91.41900363567345 446.2866597594532,86.06039066626477 441.8008352826231,86.13626792128196 436.94554469990703,85.35645115714681 432.6004034664635,83.29916810848454 430.39176470263396,81.94457133596961 428.0385654254731,79.45811303751248 425.3246296609488,80.45224545991982 416.2275970349494,86.5906659869978 413.3143805144458,89.14630184005102 409.6154782859499,91.71593211799484 406.4178934518625,95.35443693691957 403.2138242851666,96.35057833058306 399.9392206771845,95.77505276840327 399.08879182332294,94.07680593918371 398.71964576511994,91.99647546642734 399.00804944888466,90.50644243676334 400.14321362751946,88.3685867040258 406.68603166471513,83.09114874511579 408.3090964202648,80.88843138449329 408.80593598411775,79.45826515717852 408.9334763246023,69.4820311557877 409.7830563750365,66.988355877564 411.18187653744144,65.42027109766104 414.6538080836474,64.28058228358452 417.43773125111693,62.388958215230446 418.2770189432854,60.589763161510064 419.14549629525203,56.5351596156122 420.2619497641981,54.989617603592706 418.63890065552823,53.3055847449275 417.08038901137974,49.632287634363934 414.0209533681525,47.73052892534474 405.77226604879485,49.52869651464391 396.3046326146467,50.50484276327859 386.7805362623981,51.002548668458985 381.80280694487834,50.29320607301065 379.0890363192021,47.216363872334114 378.09341072641786,45.304609858841104 377.65890148494987,42.51261432437366 377.79945646368867,40.37989767537363 378.64097217709605,37.449636041751205 378.28262137153183,34.88129206105418 372.3767508847501,33.10578778416266 370.25255083924276,31.81185654243336 367.68259099145587,23.83027155770833 365.6775066773475,20.036494468018304 363.12503677714466,18.611339235159676 350.39372707276385,18.744378379171508 347.33914179417616,17.453169984234478 346.525831898724,14.593140078724105 344.6790089203736,11.919652339866161 341.75707486504973,9.334526602992241 337.99437259583823,8.60767861169768 336.35063134946904,6.60645389373974 334.0065551684804,5.087590437079712 334.19666298252696,0.0 330.39802241122356,3.137580422318706 328.6226431078586,7.242892894451643 327.56180963992796,8.869420041478634 319.62391529924827,19.833923811489854 317.7088156085309,21.89105048990973 316.2152234305347,25.609070091392482 309.8990836599427,34.07894379784136 307.84498828981833,37.565300236328426 300.52893709408954,46.32521511695529 297.54791911822605,49.19428063197074 291.578936025104,53.889225768524625 288.8136049062827,57.37944322349642 287.0389215905099,60.44604643534183 282.1305624433881,66.50386269577848 277.661587544678,73.63125605028415 272.96822010719296,78.4755461538789 267.2053652834593,83.53796426029828 258.4442632140681,89.62117700510191 250.18430892195593,97.03970245616347 244.7109856688376,104.24299569134189 238.89274227725488,109.88659562703288 236.66008553084373,112.67030276300784 234.4548247160214,117.46385215906457 231.45433427012088,120.02625627294378 229.97398489146414,124.74611284476248 231.3399504652592,128.36283127277375 232.26354606797523,129.8703598915298 237.694502152767,134.91199456496588 243.19982667037866,141.03587142623485 243.77004600567852,142.17624272955027 247.79972235612345,159.55388608986186 248.6620933237633,166.53264458648619 248.52517429708251,172.53572305600323 248.1112124010766,176.08929571023782 245.8355245063417,184.29713148644555 244.13812230824817,186.815069639203 238.9325121245014,191.0312220950592 232.8000254403394,195.11736112385097 230.3820592173432,195.18717947769903 223.94854345723,192.50475863939164 220.08495245780276,189.87385787329424 217.2217785702682,183.1048658244747 216.21801118990538,182.33179652699073 212.43518853439915,182.98848825020968 205.15592130298373,187.00618755169307 201.30368915998875,193.78846452696746 192.961233858456,202.73118352985136 187.95526497754346,205.67734477757062 173.88621082099473,217.50838431196075 169.2462076350556,220.72884353960922 159.95555995969235,228.11133767225056 154.81192675167605,231.70110199948 146.37976900681696,235.65864720687853 144.67001842284645,237.12469119072102 138.52976185624962,243.13721655448046 132.31229731824052,248.65055318687837 128.3217629266398,252.52337581986762 124.62146958103483,256.5383905150228 121.69742231084108,259.10006823897936 118.41196306450365,263.1846989365009 117.80219866223325,262.85029016173246 115.01596544333513,265.1861652254065 112.63274572833699,268.20666205851023 112.67707725996706,269.3714330165167 113.99196626169328,272.4743659312985 112.54050190556252,275.0829647613514 107.2931521191692,275.1375636028873 103.55462003185539,275.49428057527496 101.80047185094476,276.1831858946141 95.4522315170474,277.7620590811281 93.87050469938401,278.40063744268696 92.38486851009296,281.55042816408763 92.88521765552383,282.6120450531739 94.81732207215246,284.03854925007465 96.74859437704002,284.67723383354553 101.23460322359576,284.51302293283413 102.8873519975085,284.7229363999062 104.67415599798086,286.0065188943711 107.14232464076696,289.06552930304224 109.44055801718216,290.24567910838266 117.23883056292325,292.9023401953789 120.90905674424427,294.92615594375866 121.77556962744293,296.1397455962634 121.35780508024796,297.5621214757857 118.93910990361067,300.58282775775626 105.71622743957073,312.65675562782224 104.78473277335335,313.3747205538125 100.86104962177077,317.72922891370285 89.96288431522,326.16765838672643 86.25809228856136,329.8677487780353 84.33133022286461,331.44661606278373 83.40931108558628,333.16622191508634 84.35391501099627,343.7648525720231 84.86654253752151,347.2607536633436 85.94370226941956,351.9612597043639 86.5204382603014,356.09045988611183 86.0986485676208,359.2301372293907 83.14747042849439,360.30113791963277 80.22991227004498,364.01907554070544 80.24815823845833,365.9517704246796 77.73276525388485,369.9761052564129 77.46548496498795,371.2859490136424 80.76262153196957,375.747421832995 82.49076053638834,384.1090453988122 82.49640896888455,386.53334819442 80.86309037721148,389.38085829358295 80.86183387033907,394.7907642644807 81.4847482173132,395.05564647990343 82.7055877477901,393.04789504979476 83.65842765074825,395.2248139844038 84.88389174715675,395.6512979372228 86.16178533610521,394.48217792557375 89.15494557320069,393.31891700521646 93.08455210112041,393.2074173593443 96.04788350851604,396.790628369287 96.25722739695475,400.02212018086607 94.90841847788339,406.0090374774245 96.01364211209851,413.9961106202562 95.11761630942729,415.2764123704112 94.99738395781642,417.28161366508857 94.16189512557916,417.74411566871595 93.0780141849172,416.3454239489888 90.82947200109675,416.5250750084341 87.60342901117251,418.9981491095815 87.90390105127636,423.181479316552 88.69592744970706,424.47886429816003 88.31757975476411,425.46292720619715 90.13095983872286,425.4884692094462 91.13863767318806,426.92843951356883 91.85089585021385,429.8637684703889 88.99567412537043,431.0056012364995 89.10694326383783,434.0854945646016 88.63898052015601,435.30373821453736 85.49083526631347,438.67757997252454 86.08343878382503,440.8254482855418 85.80901900864018,441.83912337322397 89.59080788167876,445.74910778098877 89.8743839406617,448.13290450651243 86.52025614579993,452.89985964798484 82.97210604632721,457.36972705474113 81.38952977906844,455.5414918093081 78.82373514839836,453.70553739927595 78.89303879206402,450.62522985185547 78.41845573359296,449.02961778615486 78.82306579607268,447.40087792416705 77.3369301833976,442.19602103883324 75.27353609124879,438.6600890875917 72.22523097583675,434.7280845585799 72.07007973939997,433.16284197295147 70.11315069080507,428.23646286326266 69.05303318909924,424.5451112853093 67.24206858029486,422.22684689843186 66.01148290125303,420.03920584035325 65.49513758937316,418.1175664349697 65.63673525513042,415.94807876873256 65.02255695134703,416.80937208102614 63.33298134453755,416.5977347384802 58.11699855751602,417.50990887790556 56.2749100155643,417.38062749092467 55.91510570142189,420.7564871641962 55.413922100432245,422.45628877789045 54.217428658285876,422.7860897151063 53.09552592870902,419.19801495248964 51.38661316976911,419.38572836576327 49.95368160041665,416.08449811497667 49.87629293204526,411.9404443142463 47.825746090987636,410.92163002918517 47.868233670179194,415.14664891456255 48.33628711165279,416.93654637941734 46.79692783145996,422.3209083560605 45.463429032222585,423.6128972068914 45.92879342070567,424.59387901835714 45.63713133303923,427.2129046942259 44.20177918761015,429.5790898157313 43.913722293492604,430.839102589592 41.863052168058196,429.90107510099824 39.601563185347146,431.22593253985974 37.25615095901968,431.4047185050996 36.86324369920603,428.9289128970265 37.304491292579364,427.8839214354289 36.57960895504868,425.36893081043 37.40842822970502,424.60071580098247 37.229887989312715,421.65407146668304 32.231983934957505,420.91691687121306 32.76643839686846,422.05089526516565 31.21012816511669,422.2280621559696 29.236599293886368,421.5771452264879 28.858340195255888,422.87711259158834 26.93279465597691,422.3691849189463 26.110473858617677,423.24060601238443 26.757821651133654,425.244313274061 28.974007383683173,425.7728603450432 28.38213205580495,427.40052711676697 30.28189415280413,429.3819720587321 29.59239767953515,430.9787143623096 29.720607271439302,432.6261981307281 31.3401860079579,432.74512559887876 28.559864160893728,434.029669298715 27.062658762337232,436.446774194447 25.551845772335003,435.5186602712745 22.68503386283726,434.7871241520421 20.201329388123913,435.3752513317511 19.282566749027847,436.96238179471777 20.46838876829312,437.6459916565635 19.599652617563045,439.9399118268469 21.61685483603865,441.1434752184274 20.22137378660228,443.0488144096395 19.829154377904,444.3500167094868 17.138305973933914,441.2534760683111 14.499583864003284,440.6134276150258 12.40760771741561,439.66623500056016 10.337672564178911,439.8128835170236 7.165845471283323,438.7019040521991 6.124095669074771,437.2413492863782 2.9065549480112365,437.94232182326994 0.5026015994456979,436.79007865974563 0.0,438.1623272799403 1.3709631576228083,438.63053766665655 0.5098876584487121,441.3125822828489 3.1865869285664705,443.8146624515597 4.082268094721778,445.4410012255305 7.6403124191923055,449.7224056553041 14.964506130284137,457.3337231994983 15.015040466533248,458.3367013421382 13.620228026408874,460.81566654410415 13.858749529766712,462.57497510462304 15.732791981137316,465.43780295043996 16.10384085654922,467.7394758594378 15.858995639954676,470.28863266079225 12.889368149851077,474.3981194843062 12.197481408323469,479.2403927307331 14.523285797415895,482.47083240426275 16.88211451401977,485.0975868410575 17.598644262557134,486.5200312793952 18.109581968660507,489.8755325831054 19.77819129461312,493.8549601747802 21.417603417436954,496.278798439492 24.4972410439022,498.8431219678604 28.896689925635307,499.49960372555574 30.964395263048107,501.56409658967743 35.32797333806793,501.69895737695583 35.6687071997961,502.3130853280112 33.60019061724798,503.7905051403077 33.908079579724166,505.5508779909861 35.422052272698515,507.61634020079805 34.87101103574439,509.1331834778558 32.31403737813719,508.83064061503285 28.9211183474724,509.2364657091274 28.01628232651322,510.5797020541188 27.43704637003498,515.8636335389176 27.608095367019317,518.2689178754773 26.378747197468382,520.3706309297359 22.64117041298588,522.3026422080493 21.666712386453753,523.389585779114 21.865412575431264,525.8881627611224 21.134640076231236,527.9466092135333 16.718095333597372,533.8943497499495 13.149753269137483,541.3973123135552 10.213856018424064,546.5221224871888 8.863899510864687,551.7686508270297 11.888239913164153,557.3151754830034 13.792576420382836,556.5639804664302 14.571064015737258,554.2889675631933 20.749897758449794,553.2638734199406 23.194752844544237,552.6758294944134 25.080372341389545,552.8055750042977 27.68241522576758,555.1566215711696 31.603428245124917,554.2781955866019 32.69288336278438,554.9730585334754 31.914051421706006,557.4423362615714 32.68514408175531,558.7525717388833 34.70547996199184,560.4387556304047 36.20830246452424,563.5085175533825 36.78757428248268,569.3776332471259 39.39640766047109,571.0825148133845 44.904243210381296,573.4586036954393 48.09399858111977,574.5896694921269 52.71925094716682,579.27194455481 53.263378075656064,581.0429663587325 52.81684461936879,582.8371845291383 51.91710651381323,583.7101697327214 46.205776437139306,586.6201327782887 44.74551282716055,588.1500219235976 44.084611667222205,590.0977003431756 43.58227367584806,595.4474671467784 44.21680744949583,601.0712540430665 43.53859497492743,608.2756322079899 40.584956763141406,615.3936115756815 39.68544780230506,616.5639243696613 36.951089807305756,618.6188521835579 36.21296799343144,620.3413740166261 36.53953786698876,624.4711591076612 34.97726407012518,630.7773960061172 33.85940720982649,637.3590390749278 33.82824075342052,638.8561972109278 34.809656639730655,640.9749174282008 37.22040003068214,643.2663653999466 39.57892759552949,643.78449324133 42.71346342084671,643.4299197047587 45.310278012135036,641.9488403554059 48.446080510981645,639.0939632527993 49.436951997740465,638.9276905386713 52.10309489471389,640.2650465781159 55.34348607010393,641.3236330814804 58.87385389109156,641.8190166712857 62.840475369288455,641.6164542839214 68.2163023714332,645.5099765162745 70.47707093703801,645.9355969465244 74.09412495984824,647.5665290789224 75.59621527948185,649.3477319958708 75.65416246727396,650.5460290409787 78.999055425007,654.3415588451264 81.79300740890751,660.116973093948 83.03740813916998,664.2980132759324 83.35031618682846,676.8975517601694 82.82957510173699,679.6565004348435 81.54864010812604,680.4484474548676 78.76913191275793,681.2238894303114 75.13704482523626,682.8623529078416 74.13703723730505,685.275126859477 74.81610576950402,690.9334420887076 80.79862084135503,698.1900510628727 88.9582691816711,704.2739179758012 89.80744365147807,705.5537080528127 90.59414541920202,709.6125310562242 92.16049932398285,711.5986974383902 93.43860657203254,712.1705785941849 94.58141947187715,711.7372442919466 97.10747605319602,700.4699530475127 96.50933504783947,696.6558705385844 97.07487577275683,695.3726939422002 100.4293741243167,691.037464875729 104.05940752758734,689.0385607758853 105.12882701305855,689.5386538070113 106.44359576016112,693.7702834229256 110.01886828281584,694.8999263748042 114.92997563291532,694.2613519205757 118.49696878523349,692.1912221898708 122.63270114044437,692.61090277683 123.3488676200542,693.3270588064307 125.41979923933823,699.4331236802639 129.09918841418087,700.4075859164271 130.48200314264994,701.1530010090631 131.25650972378725,702.9553718427874 128.06587427502663,708.235605829067 127.96742939962213,710.35893520773 129.36008611524807,714.6933837395907 132.6005122653536,717.4547386433562 137.77580787916594,719.3780845752538 141.45365665486037,719.5420139513988 142.8446262926344,720.4303734246388 144.0618194319307,726.3866837039689 145.73207093275116,730.4749864237599 147.69574934118924,737.4757192553227 147.6281937982636,740.6157009661308 148.29826755103383,744.3782865702362 147.94629787018545,749.9395660439604 146.8964817917123,754.3243306275949 146.0813422471206,755.629611729549 144.59798741837142,756.4439785059042 140.93049442366868,753.1913518591834 138.77114668845383,752.6124974162401 135.21112802920356,753.1363357918281 128.33937875915015,755.5867658939735 121.66649615085818,757.3381173303358 118.68392539649527,758.3415246476931 115.80097597750556,760.0514495201489 115.14100602264112,762.7013662986773 115.84774187112517,764.9669416289712 117.3744070985963,767.1893134516333 118.21598376163931,773.0049610670322 115.00106646052822,775.6403568732909 113.57231326781272,778.8460239877436 111.18202435936938,780.8532264848993 108.12974577160163,781.9075529625599 106.8690082658946,783.0805139274298 105.17712986520706,786.6874463577717 104.11460177811925,786.7510724121837 101.47979140853145,785.0651389021709 99.1897984174467,785.5934312670778 94.75706800378127,787.3078410471367 93.38772035698675,789.4055425677273 92.8254124890809,792.7009530822048 90.69523384395835,796.1033766330897 86.94876379601043,797.6204732639018 85.9723974585851,798.6394685509864 85.51772127879057,800.2931571297979 86.65677105146504,803.32820476123 88.60348001537093,804.1350230774476 92.54785729431465,804.3310118761974 94.94188302282652,806.1931941894258 97.0335782290695,809.7086902838845 98.12471510714063,810.3830203296692 99.91029383501036,810.4819499681416 102.11028793427882,809.9327159034888 106.37891751299387,806.1140811160446 108.21745319695059,805.7187024996565 112.50940503042645,805.7488687513217 115.75499124740661,806.8082601503165 118.5013365209786,808.1563335848958 120.2315729623287,808.2538502898576 123.40905638672379,807.2499048104762 125.42231309523696,804.5652401766596 131.26731528799334,800.9878602217094 135.61902866213936,797.6706668464403 140.28421180601498,792.4135657898722 142.51863955568749,791.8124397775869 143.03042122714947,791.0916999812223 148.78360840843632,787.8223036908881 149.3350507870423,786.486658539875 151.2158354634507,786.142738468077 153.1162611266753,787.7998210021453 153.80433946220802,792.8465857337508 155.8449524393487,797.2746230716625 155.91380034334466,799.3476876959703 153.557046318194,805.4623702384303 156.0645923800601,808.3185348387342 159.92001097046045,811.0686094711834 163.7907363297519,814.2490929066586 164.76807998588933,815.8577278209114 165.02589374963432,820.5597499136286 166.06545477442202,822.3112984642603 167.81367791713132,823.6923315226913 172.80621158770793,825.6993202593377 174.05228720354353,826.7321118063511 176.23258126318507,830.812152389226 178.88240443308467,834.2323675395661 182.15247537621707,835.8548187287231 183.05366488098335,837.4747405323924 183.01935614398616,842.1054638660164 182.58218126119215,844.5397527806915 183.19676263617464,847.7211218287247 184.3971096660813,851.6809011425144 185.62011953733833,858.0535873608842 185.54550901182694,861.0317975291582 184.90249903288637,862.0094918173297 179.86469061842112,863.7825505205826 177.04138089495854,865.3830136022439 176.58833199112217,867.2324285781269 175.21827463996502,877.8879070957063 173.68489038393642,880.8805553848536 170.0363673359239,885.4016021642049 168.74328872323488,889.7710481015271 169.14609879333537,894.4427139395814 170.2696147644177,895.9089837128025 175.9576505437801,896.9704432390297 178.4917747617911,898.327724857369 182.52052739691348,901.9214944050157 184.71976986642866,903.0544522742061 189.57019353383555,904.7550597375423 196.7823926285394,908.338069476225 198.01061063288182,909.7614203598382 200.62468900417161,914.2016964521868 201.3913085155745,914.8052036754976 204.4636483169514,914.8049394721187 205.85082643122226,914.0399423872905 207.23148044657628,909.1247222166204 210.00047975716052,905.7553670631625 212.91767029943162,905.29371216114 215.81965536254413,906.3004850398207 218.67607279314487,906.1263622465017 224.94786035656657,906.9681242273449 228.03182407479744,908.200443973821 229.0808983182646,908.2477450274821 234.4965346275704,910.5194165824557 235.92754997820762,912.2303555615439 237.6352991283845,915.3577027431701 238.21002040630705,918.4891422117176 238.20855379470729,921.9001823390876 233.97545509516286,931.7690004263987 232.0341425351494,937.2328512667674 232.93342639198173,939.6961246474202 234.06116764286745,944.0700379882527 235.48195169476082,946.6745284356593 236.29680614876577,950.7931895568165 236.07701643720154,953.6512253019607 236.1545327801676,959.4886279320142 235.42380243531488,967.2105340771272 236.36333090238756,971.297626101603 236.15415466088783,972.9746419240971 237.5790103769404,974.829934807721 238.0126603467422,977.1828462992663 236.76960426531627,979.6538198666624 237.51891271688515,981.1929731303666 240.66816527600164,980.7609221834953 241.78150137179253,978.9673559541425 239.43374910135645,977.9791117691395 239.49112853050235,974.7097584034984 240.85516357709605,974.7670160130871 241.35022430593025,976.9952480679312 243.88099052855605,978.7854463085417 251.53100062563706,982.3647491806652 253.34679063669725,984.3727016533287 254.27289838654113,984.6878007801467 257.8566272958421,983.3277875284415 259.28125519353756,984.998642707826 259.777320410597,989.0673241688626 260.821201870113,994.8213752252302 260.699575380296,995.6232587459698 257.284102710746,999.2961290442579 258.6596633095125,1002.5924141952703 260.6501536438227,1004.7439458163213 262.3398831238257,1004.5931382005903 268.1727898945174,1001.8353957788408 272.3046910054183,1001.8404615781467 275.0614537751945,1002.3025331442016 275.8238984288148,1003.2241503255192 276.13763349007223,1005.2177528417906 275.1048982056747,1007.9259915702793 276.30173362706415,1009.8028702917524 278.21321625125347,1009.384648393431 281.74420045807415,1010.4395824940152 282.4240782411536,1011.7435301432578 289.1504338592715,1011.4488948561518 290.53122730257013,1012.3679085554967 292.05980922019603,1015.2823888122729 293.5954225838296,1016.5106013306494 298.41531758553185,1017.7961982374217 299.31068105463623,1020.6310677602077 300.4568290577993,1021.9840031667778 305.2310574497055,1024.0" /><polygon fill="black" points="343.36354386712486,994.3130811632847 344.19660663458376,994.0106423957054 343.78708491367144,992.5315957081356 342.42208177893184,992.0860281526158 342.18949515244066,992.9706402119565 343.36354386712486,994.3130811632847" /><circle cx="372.9418359396258" cy="78.40176833440626" fill="rgb(100%,100%,100%)" r="16" stroke="grey" stroke-width="8" /></svg>