<?xml version="1.0" encoding="utf-8" ?>
<svg baseProfile="full" height="1024" version="1.1" width="1024" xmlns="http://www.w3.org/2000/svg" xmlns:ev="http://www.w3.org/2001/xml-events" xmlns:xlink="http://www.w3.org/1999/xlink"><defs /><polygon fill="black" points="973.7051218999856,485.2300444563217 974.4056966585414,479.25553954906866 975.3915615816567,473.14871245079985 975.2190095560062,470.5508583337514 972.8474248362503,466.52939708183686 969.7060604964096,464.418701039841 965.5211960259355,463.8619286061265 962.3492354455007,462.39239761445833 959.7125125723437,457.38529104554993 959.0400864936596,451.84114676277403 955.6245741867967,449.06608151030395 952.0108242556679,449.83715134984953 946.0320527154073,452.0932832913355 940.6353346166926,455.35044604036773 937.002152731128,456.44816817396355 932.0305154861256,452.59999777420717 928.8026938118143,446.58543486755957 929.4632744920992,440.47292851634893 928.4648681532537,435.227161415445 928.855056852818,422.6150657718962 928.7463466690166,418.7204368157475 927.3582887578672,414.7654202526049 924.036517925189,410.3645586237611 920.6534341990222,406.92627499285715 906.5228631411137,398.3489826700423 903.1710393178108,394.5903882424166 899.9236961795322,388.8979546035831 897.7006850497656,382.2889913746354 894.7922063047419,376.2909525392909 888.2500488783072,355.1670784571037 884.0870307264148,354.7984532044646 880.8441443120846,347.7284809873876 878.6062645204213,346.08642384048477 872.90394705784,350.37271299436145 865.9266004231829,351.47155481886995 851.1778011152818,351.32735763213117 846.3286274345722,351.984325173817 841.480272925095,352.057594909151 840.4699742920784,350.37874536698126 840.0588142250192,345.27558670677075 840.3054459935662,337.1471068613644 839.7173197165627,334.048052305351 836.5237637823337,329.31142576901766 835.89494302171,325.6724358513796 836.2138500089479,324.0914050376048 838.262549082396,321.87867415667705 832.889187858875,318.707517534976 831.9437591830077,315.2216631425864 827.5194920546962,312.52397415326016 820.5596702495915,310.6114500561051 813.5044916827923,310.03894397814145 809.4159306109456,308.93127308493587 805.5842068976611,307.3432763895019 804.6132195973129,307.39941130655086 800.5090845652645,309.52781473773763 798.0917320940182,311.79016186639467 795.9728432506163,312.79990707844456 791.4632962385216,313.0329233648668 789.0180144009038,313.90244495866216 790.6787492480012,311.7629182100453 795.0285439768121,309.15454599736995 796.5249391553061,307.18099430912343 796.4463295060061,305.2793689681412 795.2637613043009,303.7746982508804 793.046325069003,302.8235410417672 791.6280266641193,301.319831500044 793.2821045414103,296.45418602724186 794.9516935667921,294.8756312943924 797.1571288630096,291.1188295632839 796.0566077334626,288.90107090239064 793.8371226281498,289.2171085409842 792.6027737236983,287.8448204143872 792.4120313250759,285.93594073746146 796.0589454267953,281.86034300569685 796.0520738460391,280.0391837609404 792.5782266782609,278.29785002464604 792.1003259468234,276.94945849896925 793.6778393579763,275.29040612023044 794.8645257560192,275.0528893212792 797.1625331797512,275.85052686816715 799.3724272017737,275.13975105623734 802.1487827716696,271.9744748215054 803.723687023027,271.74460943702024 804.4405525502667,276.41006245446937 805.6252075393567,277.3593080831593 810.6851811202199,271.5153732674029 812.0291607688538,269.1425122696494 812.6572752473198,265.90157466759626 814.6337207181317,263.6819720951886 818.8259333945532,263.1348699586613 820.9539373020331,268.4946230370907 822.2193806439274,270.18671084871386 824.1189847565431,271.05661555284837 827.6761577452905,271.2229130666757 829.499178765619,269.4835452880618 834.3909746343877,272.34119173534185 836.7621891711619,272.344784855003 840.9553708199801,271.2431417215998 842.2942248488091,272.03869866270884 844.9814966240107,272.28366756618146 851.9292679839375,268.34405855519464 854.0664320636567,268.00454019086175 855.8531904495321,269.4504126042382 858.4600901424958,269.45400741590413 859.7934680558808,265.9939643171504 863.6908374935313,264.33031380234235 865.6121846007102,264.1284872045792 865.8190665671419,262.11027924618355 862.7564805056173,259.8551339205149 861.0830779146646,257.5792632071266 858.3662283035335,256.08988769260435 859.5994489615115,251.12852716160506 861.6237295719903,250.19251120467254 862.0656863636715,248.66232931720685 861.1789623291158,247.27694591266413 862.9053945123909,247.52735684335 865.2744630834896,248.86396255452678 866.553381115072,248.22430812203373 865.8095005092235,246.496617107605 862.7528197424786,246.6377213226346 861.8162257827369,243.91883281055408 859.2530337073604,242.67634907339198 856.6873210477321,242.37399508890564 856.543254316155,243.5620531152291 859.8497032312689,246.92556975032318 859.5518871631486,248.11201067958308 855.6005379404057,245.33819801953751 853.8270366263836,241.8245141946653 852.7438888390244,241.27608413107305 850.6371634305304,242.62064152784563 849.4814609698166,242.57529832944374 849.7517048447415,239.5592287353503 849.2202277112245,232.23721788781387 848.6802140448636,230.90300052592494 845.2308181416759,227.4375442866359 843.5513626128277,222.82300514327352 841.6024415614446,220.68605718468922 839.6533677536617,219.53154909612869 835.7506385669861,218.63765382489612 833.7999713818529,217.745249041261 829.9896284683249,210.157333301873 826.9808686586783,206.69214884144424 825.3795834603171,204.1185751326434 824.1494582286882,200.34321525618475 825.3836322453366,195.1946185309563 822.9881550178175,192.17574308621488 818.5648527469106,191.10579499614016 818.8240830267267,188.9791785211795 821.3067390337629,182.3765472009958 820.6893687603658,179.26604258504892 817.7604423940679,176.77762620476562 817.4998273215626,173.58734324130728 819.7132976996675,169.73154165751828 820.5122833985937,162.5454308293737 815.9863396097768,156.2316246962306 815.8661555586539,148.89036818815998 815.1055206154687,144.9648592532144 813.0383552539223,141.2768033306943 808.6818032333172,138.1176802001088 805.8973080595479,135.69551983720316 801.1527409080948,133.48134654815317 797.418199070506,130.67820063923193 794.6980299407242,126.9605486206118 794.656624104651,116.2730432756091 796.0800895172583,108.25224081608974 795.4680293920206,96.23305617641256 797.4294518833473,84.35796997438013 799.0207048057117,73.76210163612882 798.9144139413788,64.03858577510766 800.5486179632425,52.47014185794865 801.3073374502524,44.74409735558572 802.5606516946407,34.12924138787571 802.2122254372214,28.9258325410633 800.5574820853632,23.655298173762503 795.8998084738854,19.827079560994775 788.670117741518,15.848855333138204 778.9241582360665,15.634821678596381 769.8716221621314,20.62999159609035 756.5401079490616,26.365918134879053 750.5523006495865,34.46023480466852 746.2170589539069,38.16126609795651 745.0551213509933,41.805450223400044 744.7704628677884,46.07592353415407 743.5387706882219,49.32667092787244 741.0767288107559,50.39133480876535 725.8882183474592,49.47024619173635 718.0213353842769,47.41427687510907 715.9686227524186,47.773271204535035 711.6489119873745,52.952057905704464 709.5952619786206,53.67605306427731 706.0329252065716,53.550725146211676 704.8602507666646,48.49032902050976 704.6633178146429,41.2558055000444 703.3399113623641,39.84166834109578 700.1350576270029,39.32518039847503 694.8467738995571,39.92986431012184 688.4498075688464,38.35099127395722 684.1794681075703,39.61328475105665 677.0138905838533,39.87155914657171 672.4724062020268,39.31446068149319 669.6384658487967,37.53952433145173 665.7226835688725,32.1517218099483 664.0514783556899,27.2066886024096 665.2886834961221,22.414446726032793 664.8539057925898,12.998548533299413 659.4239918032812,5.585218771978589 656.056193993306,1.8365617190252124 651.9170060686746,0.0 647.5748236102395,2.0321563116856396 642.6964387530753,1.7720976612594086 632.5539580866943,5.053570514158423 633.7185985666558,7.9958932460539245 629.0105218476824,12.84291386868017 623.1884716831728,18.064365642810117 617.6891980053192,24.25494809662223 612.236435053293,38.85662195134671 607.0695519658776,46.32914987356912 601.2533756033168,51.872615809005765 599.8833833215778,52.81432410257787 599.9476763226543,55.281334564392864 599.267527944026,57.05538267067743 597.5290350960231,58.272237345663825 592.6100474848016,64.1225879721087 590.3185751754802,65.79719713158772 588.3967133851563,66.41007365684027 579.8391098412063,70.06664166137409 578.385014963452,71.63376649316149 578.7992712688737,76.00909227134764 580.7867825845958,80.59376327846223 584.1181171907135,86.32579900657709 584.1207156851391,88.71931874200425 580.9930082271338,93.0990343766581 579.5295856283628,97.16396127359963 579.637389653976,98.51893182728372 583.6026551164937,104.20221274461915 584.0674930121864,108.9934976922882 583.6483972673003,112.53734083119434 582.3711569760925,115.8318166010389 578.8138298354704,116.88347768909966 578.5142210922108,118.03981639581627 569.7765156545803,125.85362409022832 552.6155570128598,129.823426449693 544.8417251156828,129.8622748421799 538.6645336871915,126.32578688278375 535.0741380688385,121.80558357190546 529.205821225466,111.79684273930116 523.9917192873065,104.69536574152971 519.4314479997253,100.50122870723953 516.8231362513798,95.98545486215858 515.82577183322,92.10265014832078 513.5427121803077,87.90090544519296 508.7011967080702,88.24017148998894 497.05695361715505,92.15882057236809 490.61918836539695,96.05799289213815 483.5202001320912,101.90674279659208 476.110984653776,108.72099635374718 478.75730678783134,113.59423341338879 476.19855645606253,117.80773135758352 472.0188498015611,123.96589671210131 466.54023942324477,130.12598553559178 460.1126999364631,136.2962805382316 451.0836268940056,141.16905020544732 437.5178749214211,146.37259707167073 424.62108284383356,152.5602604526656 414.9421421666291,158.4037645648449 404.30551667995076,166.20198837081318 397.5409402670895,173.6595650588414 394.67528206883156,184.0333265685881 394.10938703413296,199.24774879799293 392.21190610744077,210.26136599287406 389.99785749707496,221.27358000401188 382.5993043730928,230.35589423745427 373.2431115735549,238.16052811182863 362.8770039365172,240.78817584772224 349.27434146391437,240.5303206650329 339.85230658413263,235.72080269153787 329.45050979858314,230.59455654783142 315.4508216323871,221.61049963972067 308.6315441068936,219.7633401622702 305.92118413216406,216.0414073586885 302.9010865581897,213.0621965732488 297.9106628738762,209.46708931267904 292.1803433084535,206.96907689701254 288.3779703455905,207.05306979136503 282.94152972740363,211.07577228736557 278.86276513677126,215.21509925263592 276.80440552144677,218.0310336179079 274.99171880672856,222.83860069112154 272.1364273056017,225.7011827912292 265.8140599248892,226.79097933693538 263.6864205722827,229.2793566192761 261.86165740859144,232.16960472239793 258.61863344870363,240.71363093813164 258.56582671825606,245.07760866767381 259.9752135280263,251.1547991700541 263.90981766942684,261.378010961471 264.3475480408635,265.74449433078655 264.0717495070152,269.62099080081606 263.19953370005345,274.2513989978785 259.72559347628624,279.75788952111355 259.49181016535243,281.329837918713 255.3939286884198,286.9937166632809 251.21011260770422,295.30293257842544 250.3427497076434,302.77793956226174 247.98655789598982,307.50342688251607 246.40334606740558,309.0767565472519 241.60274393291766,310.02842965232804 232.61557520915986,307.6479034621485 232.0594343371599,306.47212329210424 232.77685835178139,302.45847269408864 231.59066169462074,300.4983948842317 227.02394126031905,297.8365502442705 225.12417216672648,297.28646463399616 218.03859450240915,297.379342896804 214.9652146455844,298.40439363635136 210.7110191626626,298.3741647018939 207.6332897736561,296.49941044167315 201.56779274705718,289.5122513001291 200.70510848640322,286.36537915954284 198.50173941787648,285.58069670863955 195.02475433436427,289.36603524854195 189.59164505987584,293.6591159886679 188.09871531367523,293.66485014044656 187.3895812039901,292.4076934951209 184.9465187779295,290.52054019745594 182.98332781529254,290.52357869066867 177.07276460934662,294.2299499705587 172.43030308223842,295.9670105494835 165.02597084011046,297.97987644209354 160.071878533239,300.57608828329955 151.024538549645,303.81084239002104 142.6799234308115,305.42389189257705 137.41210085704185,305.7423679927287 134.4282203347932,307.0737095594197 128.8411206668295,307.6296475802844 123.89527939327029,312.2659930698262 121.06712900787923,316.593560816457 116.2624322637118,323.0377184785975 112.88747884201277,326.37929967326585 105.83447568152589,330.79083940699957 99.71178268576816,336.651303990593 88.72120644344287,342.51796692500784 74.82886625129119,347.7538040648093 66.75173003003671,353.6091525326833 62.91450736508653,361.7142841443544 58.66863125649233,376.24340660550644 61.05197858254851,381.1445802837085 65.92752309970905,385.0127877986625 71.45921190767119,390.50328524088707 76.37632846217593,405.6980628998992 73.17638161348742,415.09445133615503 70.62568305551021,425.1376901661487 67.43399866782858,432.922775948964 63.236449879564454,436.49356004380036 44.48135465139245,442.063860579625 34.14587003758909,446.3072760155922 18.31984895684194,454.4550786362377 8.698213578815134,466.6493650546555 4.731395942729134,476.49607446044035 2.599226121982316,487.54482741431127 2.627797888439267,492.4859183005208 3.711519648702808,497.1056572874933 5.437365753437502,502.379556761419 7.079283524508903,506.44196362795356 6.523920429901278,522.0362016531219 5.6478513212390205,524.4394427283114 2.7018120500038516,527.06276748489 0.0,534.2775609590312 1.4426507326634277,536.0831984921173 2.709920743142853,539.5595038326037 4.170111329342785,541.7740335657024 10.038531953761128,544.8511656058402 18.331875681717626,546.6219022837066 21.742666054222962,546.6881698348107 25.29160476461987,548.9825314213717 34.404984966641614,554.0423079697425 42.77300887672821,555.5063415954646 49.120781612955724,557.4897964133547 56.85741924462189,558.5825106965217 66.01321411964602,557.1732546006622 74.56818168473218,555.0732144414064 84.95414723353913,555.0210290250862 89.4791510939443,555.2760080503117 95.98490539781768,561.6453432445987 96.03571889520823,575.183783234012 101.81480535974697,588.2088809686995 113.23188439454688,589.0815605869186 120.62000380995686,590.4622238515848 129.15317679655374,589.0018915920648 135.42074526179272,587.4023324918076 139.5199084685864,583.7458874698605 147.0112561779461,578.007358409594 152.5041400503842,566.9694645645927 157.37318039126438,555.5711683708123 162.81675460771328,545.8351418191593 167.83016257661615,537.6794944222534 171.20080505445202,530.0852842335623 170.7557394709074,514.834878618652 175.58615099323973,504.41692483766735 178.232865103706,498.07586228362584 184.90656697053169,489.04098468587677 190.13037193850363,483.17366356982086 195.29742869250416,472.43279786086765 198.24954040500936,460.6054409481166 198.13668643859012,457.03705904163655 202.7282736380037,439.1445727198817 202.98909335817928,434.62251273277406 205.14747471882083,425.3406731629208 204.3801679876234,415.9116931071059 200.73299000661817,405.67183178431964 199.00495848555656,396.188164753954 197.50480296467856,382.49796337915393 202.45452663039157,369.7990780630414 210.58675232792555,358.57781315671616 212.24282833241938,356.9826698697134 216.0996115313356,356.85137463053354 226.46650207737665,359.76453483733764 230.3492607304654,362.5791595500071 230.93777136023004,363.39847008495525 233.41711310494208,362.80691940605465 236.24010325027325,360.9174704135083 240.0114444373847,357.6205222723678 244.37118096050938,355.38238397577726 249.78372348628795,351.02107542970583 252.26186738277275,348.66437585277936 258.1452475847485,348.3015265249362 260.26418578330777,347.8232947752328 263.0960921562678,346.2928799523412 266.50092288495796,342.4676505844741 265.56734818883683,339.05863679513425 262.85296314825445,335.6545912581056 267.45186301698647,330.35535267084026 268.62264556833344,329.529638105948 272.86766301206194,329.28900476607157 277.4536196327666,328.45934234547434 279.1071976525659,327.16234843372047 279.34165816499086,323.1686483919657 280.6334066572924,320.58001345585876 284.0436371131373,319.51872326425865 288.16819952618624,323.15496059892854 290.51763095234236,327.7380250886732 292.9917567550348,330.08318602604703 300.46094384759726,333.56782088186606 303.5596779977148,335.6381678124357 310.7131695135812,341.1337006844521 316.73041992394076,346.9589509653403 320.3110916626884,350.9567935592161 323.0926036825254,355.41170331546846 323.09280442660435,357.4965199776607 321.5604708252594,367.79913937093846 320.729812455839,370.5819896606474 316.13907761008517,376.4297051391085 313.06790783845923,381.0244069116622 310.00254147907316,384.6408096740478 296.4933738279502,393.9109528452685 289.9482501378132,397.40132999433405 283.3906370035109,397.26585379205187 277.1362234586163,395.7981347491474 273.5807308220971,392.56347367379476 270.78471622886644,393.0962590647239 266.7857008823299,394.98738337822874 263.15647801960483,398.3167022953122 262.172997955839,400.6530445517999 262.3296000903713,401.856250724167 267.0125813440307,406.6799034218636 268.2992021116118,409.2392611520931 270.2639829232967,411.1973206941543 272.526303027735,410.9677273377517 272.831223874585,409.3059230616787 271.01943453718155,405.5401333347384 271.087643197462,404.03078036114783 272.3746951419588,402.5205470407156 277.98880258115315,399.127701378023 282.1243142956782,398.6973388007275 284.6088983464665,399.1467121752257 285.52208411835,400.727204988293 285.1453315582894,406.4582259798316 281.43887360931825,406.84007088240463 281.2916550940814,409.7868356553712 278.41565883549754,409.8598273952722 275.3997475195169,413.41098931898074 275.8472697481407,418.0085811106803 276.6780599272706,419.66905448231836 279.70251425641766,422.49217553218955 281.66726401689243,426.79144676853304 282.57225437226134,427.765775792296 286.8765553090648,428.81620442504345 292.69697307614797,429.26080916795627 293.8286422667976,430.09099846608535 294.2084258718556,431.90139134292133 291.1141118828837,438.8016855489418 291.4165158534461,441.9705623045314 294.88859279633846,447.5894142825459 294.6580360744962,448.7920847113813 286.5834188877734,456.87297550851355 287.48311928049293,459.211739659675 289.45063986245805,460.7903615686065 291.18202138696597,464.4469585753746 293.5971772784412,464.59839489845837 300.0942156178232,463.22904313744607 304.7461240369782,464.3976489306432 312.2127070828354,469.8112556692576 315.12416563611924,468.87653318389465 318.13468060423475,466.4818872253654 322.393172925094,466.2765616743453 327.06059391621045,464.1968747568775 332.1494448129027,459.4196482874038 336.9192046026263,459.4207174816171 339.5178158167826,459.73864102326826 347.6095906246276,463.0588044836897 351.55109775892197,462.8582989230871 354.66944610387236,463.5363725567247 358.2925351154715,465.932130141191 359.4339394135872,471.7447743844964 360.7668239423875,482.7258092452108 359.62424860506036,483.88076572310206 356.30580908938407,484.3690340535822 356.6884515769876,485.7352417449141 360.40574398323446,487.7958779577263 359.6184480779211,489.94477772766703 357.4703121282998,491.7957600596628 355.8110180620336,491.8982183407569 351.52056145218387,489.8348718995205 349.5641906851924,490.03035628573423 349.0769644079224,491.39966305493544 348.779519643411,495.9963786485604 346.8303145462448,499.0237235539124 343.701441514939,500.49085665063217 341.7465607716924,498.1391301330874 339.4003249116467,498.53003805634705 336.1820811525044,501.5584357834234 335.68798498082145,504.1032679503046 336.76187966602566,504.4874300472968 339.9931266899631,503.0279512789815 344.97650053933285,503.80923694523983 346.62928756807827,504.88245360664325 348.0005675530045,507.3343513643222 350.70537123892785,509.18618549547057 353.8869117416394,512.0028769152116 357.6569636072165,516.2162299826126 360.7604149423992,520.4561013698075 361.94371609569635,523.7978792715713 362.30082190406665,526.3902849612475 361.2797009309556,527.9912251804209 358.0695970912146,531.4218266088001 357.599383698751,535.7344332378199 358.1477431517498,543.5262318004591 358.97902331704955,545.4202116115281 360.4209809829153,546.0327999363644 365.73198244194185,544.742792599023 369.9583956084952,545.3888022676695 371.4074971420392,546.3945933923661 373.76235382371254,549.0634264574419 375.16411596197213,551.6603823294848 377.11209720510857,553.5450623206183 379.1979820647485,554.2265441742089 383.41598506262994,554.5507710740669 385.2666306672028,555.318545662482 384.8768251995147,560.1784691242403 382.50115312222755,564.8408981506367 380.4716279005304,567.4242743004667 379.9048492466746,570.5397749452801 380.98076059932583,572.9097168709984 383.5692745377482,576.0022730033198 402.7528705951371,585.9413313571979 404.11887981293034,587.6188208864342 408.92130683835217,590.3847603735001 414.76128073228153,595.2212609771686 418.5339599848163,599.3625977167883 421.62519197923524,605.2249419986 419.5626732079822,615.8854279785712 413.7278695768436,619.6516815315504 412.7033624919462,622.0577801719438 415.10452355134584,626.1934849535703 427.110220678147,642.0634260780872 431.57134045019683,643.7982739890034 435.35201954126217,643.813443483852 437.4120593065506,638.65708179926 437.74653136260645,631.7783999483821 438.4417047377068,626.9605053398011 441.8638655115275,624.5637679041706 443.58470242764776,624.5635291459405 451.1290127447615,634.2274288423679 454.9082478763687,640.0917556866468 456.616159124919,648.7036487932801 463.1376348599324,661.314546757819 468.7876185403754,665.7126822965677 471.37915288491877,668.8558884387139 475.57462521900584,676.0391652814188 477.6438121419303,684.4406967549812 477.2155145817439,686.7634239567416 470.96220890333365,692.2709763403598 468.7168178537237,695.4184433584347 466.3318944569706,699.6690164027636 464.27519745649965,704.0011498047837 461.5519453650957,711.371074691288 460.8863396226039,713.8535358997726 461.3291322059161,716.0766596528966 468.96469678031633,713.7602549865431 477.1208146284913,714.8438170365589 481.6014759610432,717.4540111538063 484.39279860383965,722.2581369177668 487.97756839190566,725.8670166662868 493.6781077854447,728.6504675648156 494.66035876971426,723.7869260015726 494.16123266291214,717.091264606253 491.3711513216101,711.8926460059304 491.2721148660598,708.1950855141594 491.7646719274134,705.1931681832232 494.05634420399105,697.9085786004325 495.1535285983744,695.1146333213662 504.5187616865667,690.4503027291878 510.60254609642567,686.0656696689034 513.032093967784,682.7505419423942 514.8171766263599,679.3739233812767 516.2429223415392,679.3493068459093 523.3217898718531,683.0555554716767 524.6944135030283,683.4183007341492 531.6692060680087,678.7963193182447 537.9707861493899,676.5665703502251 549.8611750314595,672.705866168301 554.3126137013322,668.7455459762623 562.4917699111644,662.0724735689533 568.3848487293209,655.6046027567027 574.857133036864,650.453419758206 584.3704053906903,649.0367177944274 596.1911822261518,647.0935787208306 605.8508956680989,648.5979856348196 610.9046703334002,651.4613793900623 615.4697829399726,656.894173454216 619.5498201194844,659.7037423688461 626.6489785308353,660.7386536956636 637.0825002548717,660.6435217797222 643.7347166801844,663.9203995119904 648.0583666308918,668.0365080585823 653.2599746623445,673.8222671933278 661.0529574345437,680.0670263431145 667.766963204372,687.8802576007829 674.9595186204704,693.1220357906698 681.479011671721,693.1452407877046 688.3908904437926,691.8907049545327 694.424368174059,688.9762053507243 694.0886699771952,683.4515449787866 691.4293456197046,672.9471675994989 689.3715519661648,663.1165193929163 691.3008170812868,658.0370495177431 695.853233242931,652.4521435698626 701.9080966689797,648.8862251193747 710.4255257024539,648.0446630047053 719.609392099512,646.9264575419313 739.1723278922998,646.3697097361892 748.8755000308305,641.3930912522754 753.6476520981491,637.7648147126398 757.0873447824151,634.3973293819577 758.7817231584776,627.3601900294649 760.5713431051474,618.7177833807037 771.4894019385052,604.0968993694568 778.4080934311476,596.7043248991681 780.5416969450407,595.3001721645294 788.1300666289701,596.4740215291633 792.5162256534436,595.562843476871 797.8287652290198,592.1695968554297 799.1742882323958,589.8279094924262 799.3321899755158,587.6293428147372 798.5706800020657,583.1669164004995 798.9640172943191,580.6783965960112 800.6201600428255,576.8558333106055 799.8838673789778,570.2326651257104 814.7125121786869,564.854890648894 820.5221988380242,563.9664090937499 825.9791050665614,564.9236292859762 827.1134572810101,566.3997485899536 824.3561401133073,568.1911582492579 824.629679439964,570.1338976536433 825.7759164745788,570.4866621624899 826.7773633424811,572.1740019108358 827.9047702700391,571.6500045806521 829.6336415994092,572.5801336793211 831.0280362114975,571.7281084978298 832.6120885016676,574.0519913043778 834.654660553467,578.0566871563367 839.4773329136934,578.662924389117 845.3572769288819,578.3501309216027 854.5066733363935,576.6025647607185 857.6996387615415,585.8575600425372 857.6970638159139,580.3308699422985 863.0530858461821,580.797578041368 867.3026494569356,590.0255836979111 872.4143911107059,590.1632415180968 877.5733843072965,584.7882094437751 873.858868858173,581.5868028062386 878.1097076010161,581.0945510748209 889.7534402850653,592.3746933524826 888.2677108219383,601.2302958228015 895.2639790259466,601.8810644488032 895.1762653927175,606.8536972667812 907.6053792893179,614.257243505972 910.0188409120301,608.8782751232305 918.8979883989601,611.9472381969643 918.1866476338142,615.9044224959671 909.4147381378982,627.3900463265147 910.720429534699,632.9786532903016 914.6188180441887,638.702363377384 921.480045972634,643.6310730861736 929.4275840334932,646.670342427396 954.6140783159071,648.9775149279317 955.4158728932642,644.7045254994475 957.9962765143135,647.8763935966858 958.0590407609701,644.9926108442405 961.1239566194952,643.9207900542024 959.3617299656127,629.3622353310909 961.7820226373384,626.457584836388 965.8038297129418,618.5798781538418 975.8685833385596,611.1316054609222 977.4054643576598,612.0374527001937 981.1025935402853,613.0037707264353 985.1505674242251,612.4437126742914 989.6693183351881,610.2840221838019 991.1753462476727,609.9352652056576 994.791460247677,611.2944744649375 997.2602081825696,610.7629067405345 1001.5435914163094,609.0058826404074 1007.3017720527345,605.7003362290221 1012.6816941456336,603.19784953867 1013.3062306143639,601.9126279588062 1012.1216508824584,594.6898790772559 1013.731057971066,591.0694954383221 1016.1074832935723,589.8286207757964 1020.4720399586035,588.5376623309396 1021.3239253463859,583.1860688067301 1024.0,576.5143579533897 1020.6715130505419,574.0381655484396 1018.5206547427307,573.9274748729366 1009.0151679570814,574.2085362823219 1005.7277052633054,573.878724542873 1000.803164438129,571.3577190402555 998.2956735169754,567.0857277005622 992.9015789086284,559.804343831813 984.5799977249841,551.5795828563314 977.5190735058777,544.0711868140926 973.3652671430161,537.0393591800523 971.6991741470194,532.0894916297208 971.0373700358547,526.5426300967755 971.5661893496278,517.1781689787899 971.6312088754127,510.38435198979374 969.9667186617405,505.4274054463543 967.297255754407,500.7474356291088 965.9906818360494,495.17190608257954 965.0943087381329,487.98979597909727 967.7049176927516,487.8097524689839 970.0818039771756,486.00151841396035 973.7051218999856,485.2300444563217" /><circle cx="544.195965348752" cy="434.7080104993603" fill="rgb(100%,100%,100%)" r="16" stroke="grey" stroke-width="8" /></svg>