<?xml version="1.0" encoding="utf-8" ?>
<svg baseProfile="full" height="1024" version="1.1" width="1024" xmlns="http://www.w3.org/2000/svg" xmlns:ev="http://www.w3.org/2001/xml-events" xmlns:xlink="http://www.w3.org/1999/xlink"><defs /><polygon fill="black" points="694.1613775292008,625.477177155765 756.2768606010691,658.3216821375172 804.3975128106975,679.8333947215101 859.2614028143015,705.2699505683574 912.6958967924777,685.1594626055868 941.2421533048006,632.5596601928064 953.519353540256,603.6736005853819 955.1420877778432,597.2852178024027 958.9098294308525,578.7720215337184 962.7697647113055,563.9899536796544 965.2171987660389,556.0907753303037 967.7449824217167,544.4498015688537 970.3921846229498,538.8941805446043 973.7229391108342,529.7847351347322 976.1655346490822,520.1702391703537 982.5603915324606,502.75476253447727 986.2062584358866,497.505649593072 991.9638389893311,493.05449502404883 999.2401467101919,488.20752180619326 1015.5073069977838,477.9319066635634 1018.9390005336164,474.596305476428 1020.8448221975284,470.3488846548154 1023.4928144250073,462.45633472995667 1024.0,455.87796332060856 1022.1935495323496,451.206687311968 1020.3831331322813,449.0851041322316 1011.6303080553862,440.3044557688145 1006.1971662191089,437.2495610486635 1003.1624306274139,436.7404809247695 991.7476545272852,438.32486982382824 986.4062339527871,440.22869907208735 982.0584056147817,441.03447389069464 975.9026069008925,441.6308959931917 969.3333881929555,441.5099412064496 953.0669331912055,440.06471044309484 946.3039877780278,438.94743844048475 941.8324111653758,438.9974837255649 933.7603031631169,437.7741976175914 931.2271983467793,439.28788181984294 929.4992111521439,442.9293185867566 926.065528143107,445.4674367986868 923.4342108850727,444.55897476488286 918.7861036026569,445.76944120364345 914.8265919511499,445.6584103535074 915.1502625522705,437.36479529181577 916.1604542625388,429.97314475770946 917.3831693594624,424.69596176674344 918.0022969945826,418.42416981592993 916.7008217835496,410.9337374018341 913.0697633118058,405.0576966710132 910.8580846507813,396.65399367345117 910.7791715663923,381.0576761797537 909.7710356973731,377.715320894397 903.5008423040157,373.8682476468266 903.3121532698499,366.67900659313045 904.0267001489937,363.9392086712416 905.8499631807647,360.9166338013565 908.2793168412078,353.7184467154121 910.4162178277352,350.993884520093 913.7543747594166,347.8515971260271 914.0621030857151,345.8273670394219 912.7534081565018,339.95665342940924 909.4268631282625,332.6596612744304 906.7062715455577,329.7170890072363 907.6136717936461,325.2729771156391 906.3091920655372,319.190482907356 907.1305060974654,314.12253976063323 906.836821640282,312.82239763133185 904.8034300046564,311.70823734553585 900.746336832796,310.5951821888902 896.4969788579705,307.24948679228606 891.9538817797304,306.63035952286316 890.352117599391,305.21719045668385 888.3246033756079,300.8718871842641 886.6096249017008,298.6457276756527 881.6487715457481,295.1013442353944 879.2182836394229,292.86731153429605 875.6873159649348,287.5119542555328 874.9868364267771,284.2803290287904 875.2912726855843,281.74259706440984 876.7118973753287,278.90648727786646 876.9255188733298,271.52033410412486 874.1029092810974,260.37937660259854 873.9143298765733,252.47353646037266 874.530154540327,244.78295772103536 878.5840629388882,237.6911183625973 879.7050398238636,233.25119832455425 879.7149123346259,230.50730505764363 878.6115698023627,225.83838961831657 876.2846677386161,222.7036638903503 873.9582911964773,217.5536955970856 875.8963586334942,208.62644998804535 873.7786726870631,204.19166254794095 872.15357852121,203.1732950989176 868.7096649590565,204.9918885260273 865.4679807016219,207.94377958952293 863.8387685980194,211.08808100338365 862.4288282378832,211.99722044150417 858.4698016712125,212.3029465119406 855.0367498142373,211.29445050232903 851.3828771174481,208.04586778239252 848.6571577636308,206.9392034142884 845.4148632445831,207.96551050384278 841.7683091446034,206.85556050080538 838.8284340766793,204.72991851236827 834.8826042137863,204.8305687411911 833.3409084825852,206.45799292904803 830.7146741253226,211.93256774633198 829.5834304252865,218.0167851532251 828.4675636995984,221.75770579807136 826.5276407112332,224.29117839903176 822.1761072225237,223.18881698308655 817.5333123025994,220.64839767695344 814.4942802768488,217.31597710082315 812.164396653212,215.50735929588836 807.7104059624231,213.3799700703861 802.845913341903,213.39364354504698 797.8763627617609,211.77543460238837 795.0423368367589,210.1584896163862 791.4886990424893,209.04856969984723 786.9269833312163,206.64589242854765 783.4937778042964,203.80074282259864 780.3528076897649,202.29297534019042 778.6284787140512,200.27202601046054 774.9874583849504,194.29376341191767 774.4969716228928,192.47578593047535 774.8036151134991,188.92347568879904 775.9250566695164,184.7823139114996 777.3446591829669,182.25043902787183 777.3497978243565,179.9228780966406 771.6751119088774,175.77933037843763 768.4441647623726,170.61031698835336 762.1611964307244,164.34354428045037 755.6911635507963,160.91728314266936 753.1515779327374,158.78951151204183 751.754804056615,150.59385508639548 750.2436079432225,148.7797746063021 745.9783475833748,147.3570522667037 742.2340925544925,146.95679593621526 737.2735525815574,145.55748732905147 734.3325249928423,142.00588775615267 731.8219583035816,140.08106976102385 728.6706071360165,138.66572657583106 723.5191794399865,133.70786598000313 719.2701608038902,127.43522054304151 717.6657284101647,127.53798685528625 713.4995614294749,135.13513143770126 711.1673084273328,137.85864287406707 707.2092964858448,139.08571144393227 703.3726577721313,139.5853104065992 696.2945089198903,139.37901607072297 691.3201123784231,140.0782796714301 688.1913102939012,139.38072984435053 686.2799981977582,137.75892057777173 680.20120495851,135.12336292969553 674.2438569820114,136.12795651576175 668.985653564381,137.42848047057873 663.5327832037462,136.30878755361118 661.7121247022601,133.98367084503798 660.7090230251283,130.7349252804254 657.5910902834339,118.38783481236862 655.5749170981629,113.62666111492501 650.345113112412,106.83202087412133 647.7184323174354,102.7691760430514 646.3128829493088,99.12890944637809 644.1941957569522,91.94153333299005 645.2133424115956,86.2785507693086 648.8591320330288,80.60891234373457 653.5076192612604,76.26444469232717 662.1631949548034,73.40695625756621 674.3988571637374,70.06300290876607 696.7052694953833,61.465524751706425 709.3056835522023,58.21540127833077 720.3956953527563,54.831815157584856 730.1266029782307,47.26501168128209 735.7510649742841,40.54944250343681 745.3150326694735,34.72345763676719 749.4249552609939,29.923879018883554 750.9310141087134,26.934402168209658 750.0371678814403,24.69687248093362 746.3526389698352,22.843139968846003 732.6429825913208,21.734344786727206 708.6644791260096,19.533481248069847 703.4429900953673,18.198752049422524 701.316153082536,19.210983310568054 694.5292488805212,19.826712171448207 683.208375303936,22.129343640861293 677.5403049883109,22.242627089546204 673.4915745050546,22.731849090896617 670.5547481795188,24.96041615306524 664.2791242084312,31.224935919125983 657.2130247798422,37.07900514901462 652.3549651611589,40.21562819992346 649.7292701862218,42.83593388526958 643.153299696749,47.80075389115029 639.7075395423016,51.425593708509496 635.8776268948039,54.7650415140713 631.5310281036044,56.17266658744734 627.1966720076962,56.45970762341108 621.741456104409,57.36277669140236 616.6002952752303,56.84364183725245 606.9083287213438,53.662784651438415 603.0767843502387,52.13778509096005 597.3264114000827,50.59571291294151 592.293009061471,48.76774115252317 580.0868812423145,47.41564553073772 567.7877243583525,47.56338223111209 551.3608963995098,48.00518566714277 541.4604516636138,49.143625466673825 533.3427353383205,46.6001494712973 518.2029141764891,46.9566826495078 508.8493500595033,46.15381304297193 503.3540010452708,43.824884250603986 498.5589472550087,40.37544570983687 495.65259311449546,33.83567594152839 493.39145966540315,30.966377862427862 490.6065115656418,28.49078705267266 485.1297016844043,24.81138418592866 475.39506647326675,21.97915119980962 473.374815349041,17.974421333971236 461.3541290757973,10.52774898993789 456.17339106063645,7.649057788746518 449.0209207400041,6.552842893468664 447.7724686155111,8.256895718614714 445.9728017401548,13.080925638124654 445.50704947746163,16.50561260096549 443.02925976271644,18.5867368894817 440.5597409097983,19.24191711078322 429.1840360253987,20.027819558080864 424.5277116979842,20.738001054196616 421.6729332858651,21.904835377604513 415.71456831978327,27.551235761888393 411.59728798166475,26.972968334068014 406.59215438304176,23.230417755370127 400.3322308384326,16.539095295131233 395.14115633206086,7.12830294418211 387.23236223782993,2.330592620709126 382.6768076214518,2.3509747900392313 377.4212749279465,0.7414043750977726 370.3755829825851,0.0 369.1743127605722,4.937537176732803 370.1722129396491,11.033246576216015 369.54796699623535,12.639524953735872 364.99065885991246,18.007166713238917 358.32659792967144,23.53609630741903 354.15281301828094,29.258269266468005 348.8523609380813,37.26084461197536 342.3785312480145,45.9987715005758 340.94332281767265,49.372697000612106 340.9642650418335,53.62294341909012 339.98278091792076,57.45149077083761 338.1244268637959,59.4940244675563 332.37540927529443,63.80120435516153 326.0214891942643,64.53807868228 315.84372579337634,64.8572805933652 309.16745511657416,63.80818884547216 305.7426839503213,61.93301811357844 302.78008665672564,59.049481815311424 300.9965281790755,55.89493137363854 296.50699973086876,51.27054508068636 292.18116085584126,49.48112170489355 288.2408397863782,48.598981716446815 280.13592569735226,48.27144049571109 274.0499888954489,42.501082326199594 269.68125649390504,40.82343381308738 268.4516684233149,42.57956669330247 267.82527156023696,50.60295988646578 267.20000336639964,52.207158613288925 257.2526160623577,59.91452152854595 248.2982139887832,65.96078729720193 246.11108534081168,68.86957772995697 242.91123446799443,77.49985838407406 240.75833357335347,78.7800100168165 236.90779434618753,79.4442024851785 234.36682036680153,80.64274651886171 230.20911523278915,84.78818613887847 225.0099761408714,84.71942392901678 218.5038925880711,82.56281343181752 207.5894292030614,75.20329682686793 205.18599129731632,73.23527263607548 202.24181563035464,73.38255406907717 200.96744286445755,75.28763955821069 197.9797893333835,83.30086169988704 194.28206447525932,88.02770133380966 183.9614409112787,97.84203767503323 180.80806716832038,101.75243902951809 176.49653024852745,108.64611596205236 174.96709499583568,115.30927254651408 177.91685928433193,119.6209073967932 178.57591132461602,122.67710739648419 178.13801831330673,130.8426228609211 171.7769386997545,139.41432539854964 169.02058749472278,142.01906388329508 165.5491397245853,143.87709226033508 162.2435196920025,147.55903441854298 159.28242579886376,156.30109184642436 156.5760150317467,162.35702690155267 153.50236846675983,166.92128430414755 151.1259091842555,172.694392399025 147.8717851406736,182.47327715306994 146.7087990418908,185.10866784560972 144.17233712850637,187.20275689753782 137.5951259483443,191.6241380870838 131.83783378108362,196.4812695176695 122.18831574078914,199.11192581654313 117.0293557367938,199.52624369117348 111.48259921843962,198.60721322456493 111.88588476726741,200.34308057853173 111.64397805370808,206.09521042268625 112.1619852540047,209.03127998360492 116.2406818347427,220.56060755528665 115.77450649164614,225.0067299563667 111.90528851488898,225.9417619966456 110.31224125449302,227.836174539671 109.38458647252057,230.3937481124783 108.27803563157715,237.1952848661158 108.68182652604101,242.26178499097568 108.67469456929814,248.8382068564527 112.13244719146358,253.45683233787264 113.39534170568115,255.8128857567507 114.40055439758414,262.321673250277 114.1284439772795,271.50630098334005 113.34379676150706,276.0464255120642 105.54020280957256,282.77105452730814 102.85830670076713,285.6673074229312 97.8082396355361,288.8151661640395 91.06730374462639,289.5701626390912 86.89200234964126,291.7144253107602 85.04152303542145,293.60472035037003 83.35477373062788,296.91836698091134 79.36942841942515,299.96908348923074 76.42914810058036,300.31052615239827 72.13130336827302,303.75873006417345 66.65772424147693,311.1406946029254 60.75782433821761,312.94718811117014 56.1275587179284,312.6479914445865 56.162645582801005,313.7799368918977 59.99419087019821,321.94425182997344 58.91576765039022,328.8872227848949 59.19501550484577,332.6405090506214 61.00916066902807,339.0668116566533 60.70405136740953,342.3027428749836 58.4591983237521,345.2422285486258 54.255888114049334,348.3897187466025 47.96111005239957,351.23645279438085 46.269058169153624,352.72113109824346 46.3703285835042,354.17181399982996 49.60351722408863,363.45312728702504 51.17184667096712,363.87099525488856 60.512324118359246,358.0493356095744 64.70625162691502,360.1402109146046 67.15352732363978,363.9585870859705 65.99154728213195,372.32114809860866 64.39485436422002,375.75077660281784 60.63217051540902,380.18664757994236 57.067938430464544,382.9787221899488 42.29510085404235,393.9195194251119 35.432087509880176,399.5670854247038 33.81962911142261,403.2627680490138 37.464369597002694,407.7920473171873 36.64163484459208,408.6600360548547 32.280220397187435,410.11726680708585 28.725130257631246,416.8274198497368 26.38723074395316,423.6641530348363 25.55923934275785,429.5289033168868 25.765041745917888,436.0857765554529 30.525684974230597,446.5172243851428 32.02197134296022,458.2904387563197 30.181131833152527,458.8231159523098 25.165896288882486,458.7521375809842 15.195755742634633,456.6303074332933 12.753773705241626,457.6935230679098 10.281096403650182,466.45014422929694 8.25979876630863,471.97138716190096 5.369862199710153,474.7360856935123 1.050178179092383,480.51598360412936 0.0,482.92293234863786 1.0002468700752694,487.04947877863555 5.7850730476211245,497.92670784338253 14.600671064894659,507.90125989579656 16.475372033810263,510.39277232635766 16.383486380997184,515.6864969709604 18.839329784525077,519.0448563819251 23.437343446992887,521.0615503904661 24.531307705070766,522.4994326829922 21.88280352550743,528.2246264943625 20.15655034851361,530.4993677691 13.939539259793754,533.1912073315185 9.843581563268744,536.9803387000945 8.141086822728798,541.0874765558465 10.050855020577913,543.4348451887364 13.357017483628294,546.2064212098348 17.20105025884235,548.6527197814851 21.627954278501647,550.4690546911045 33.304804024859834,551.8205960666962 43.03697669210265,552.4565263229441 54.16802806988791,553.9659584532081 66.75372275910301,556.1570900588154 73.0236523402473,555.464016519735 80.73300763367588,553.6965950991937 85.6914875746672,552.9813448348114 91.64688879966661,553.4071621447508 98.9106201810905,554.664485478959 101.75582957202982,556.1654062258951 102.91843279421583,558.5463021400133 104.48112944917888,564.8921024095685 107.28323481148402,567.3135948533372 111.18549828309393,568.6714412769911 115.03142866332765,569.0417279154992 115.04502206118723,570.9181083410369 113.34142152363464,578.5383828211595 113.14581370437058,586.8043767526271 116.3644848325418,594.9310754047776 122.02538379343191,606.1053610706706 127.70575566476727,612.7119718096644 134.02031830164475,618.6818614372398 137.63330463665986,623.1145926212829 140.49265397697985,627.9225524998905 140.002032780714,631.9517089568458 141.05566518556495,635.4796478783211 143.50119326819686,639.1729914621869 148.10120041426313,637.1657044151311 151.0854011395629,639.8556092466024 151.1123653779455,644.2048424262647 152.2140650524485,645.2395365936381 156.29307750946967,643.8932378880314 158.9738508947636,640.7100727869604 162.30577255233266,641.2675713951727 160.93821935836488,644.3872203058723 152.01420797695152,651.0979663411952 150.22242806165264,653.7629688308768 149.97572992569627,656.6097031281397 149.8985607925608,667.3606124381239 151.22317543311905,681.7115725579451 151.55136931972962,688.6438262003528 150.2662803089194,698.6179008990995 149.7990509900762,700.344155924793 145.06311523589986,706.6083635643037 144.9468085418254,708.1809673307928 147.02367635821997,715.3915272845925 152.50928380512846,715.3509272414863 155.2375311753632,716.6831728215132 159.3479277596292,716.0449174623246 163.46979020823358,719.4678425716322 169.62053958321493,722.2656873798944 168.87729869549793,724.7486085788674 165.2798855781443,727.487838133297 164.95865619615017,729.0944907661724 167.75638738368664,732.6795950966948 170.18866435105411,736.6705110764323 180.31062782504844,740.683982934341 182.88852582316383,744.6009412699769 184.61944720166304,746.1246278179614 192.53442641295692,749.7380401710601 193.28578844967518,754.4577423472954 194.7185576138888,756.1358248738719 199.7675647798423,756.5603764701455 203.09554804596968,756.1515292495236 206.6406334845391,754.879199991023 207.1257550209909,753.9208220179358 205.34870798760596,747.1090596691434 206.59533700609916,745.2651425082613 210.3292080188424,742.2835375772345 211.17365087605512,740.6985126147453 210.31518866718233,734.784282983667 210.95449178038186,733.1274623966223 214.5957706413284,728.7007620719985 214.08456546835902,727.1790979530582 210.40433512740856,722.2971425361582 210.6729445209965,718.5135506168419 212.98396368105006,715.3913215372011 219.5812992822257,715.0894477273919 224.16074869652937,715.9707898656688 227.8236303274857,715.7110795955394 231.9213508309125,720.2492089082264 231.25596698775865,729.4647305031831 231.52959869423677,731.1347094582625 233.6717401174033,732.5332131242538 240.2501994231549,732.1791055683099 241.19033562895214,731.5766011588316 241.57872377904897,727.3923239507096 242.81017776856137,725.1649908184007 245.66857551086238,722.4225873676363 252.06823862193767,711.4109630200059 257.49768817067763,707.4431012643116 261.7929504512207,705.1921071880014 265.6730120611853,704.1281889226253 271.9900067185561,703.2221890819906 276.2701414956452,700.7041616897565 279.7140546969218,696.2664399642351 283.08857345468687,693.9949362597398 285.2537123121318,687.2500930714076 289.6775295471164,683.177194969887 291.26701264305626,680.2186600817436 289.5209554605157,677.5556784182892 289.99831627309646,673.4643738074681 289.43912147303814,670.9168825722882 286.3262165898168,667.0716076322411 285.7076726260643,665.2239161224908 286.23809228360005,662.4323016233928 290.5061616740536,652.6408240783238 300.842890572366,633.8117259169314 309.8159038030343,618.6587273097426 312.5939576072904,612.6016483467179 312.7958030818365,608.4552788494277 311.1104511626845,605.9150865765067 305.18831765633763,599.3341456281819 303.3408021881633,596.6645297950911 303.34139372279657,592.9706721427538 304.15208919389386,590.5959178117803 308.55771798679376,586.9707111350731 313.7531054524894,584.5582914685351 315.93781364139346,584.3681307733528 320.61642294683196,585.3615612086079 323.7164707426408,581.9314008619015 328.94327101713213,577.3376426728923 335.3914528219302,571.0752065837738 339.2569923514748,567.7930502049046 342.95758411430205,567.5917353350468 346.184167442269,569.0886611968522 347.0843467673572,570.6276452195193 349.42071034919707,572.0045983361374 355.2909490153052,578.6821944341007 362.79585881453596,587.9338803547982 368.2718342909399,597.2493158490429 369.7596156679963,598.6532268447755 377.37544320465315,604.3037130787494 377.46885095260166,605.750372454602 376.11708645943236,609.4857831185217 376.5817497289205,613.0182141670928 379.1000804873174,623.7542864485588 378.8082293447957,625.6280935334755 374.1260121157734,629.3641481867652 373.3817730670333,630.5558713112559 373.2535642329196,636.224498257075 374.8558161292202,638.9217468403737 377.7912440897283,641.6670790918095 381.9825978169974,643.0775304204326 388.5014617838587,642.2603888212163 393.30221334707755,642.5987451192593 397.6522930470705,640.627834749025 399.39633477073016,640.5295359242202 404.3149131679521,642.0110163015673 407.9947854797785,641.9527344727991 419.1989220978935,638.5006506678747 430.3957760939398,638.7097420447465 438.0947126896424,638.4624278137521 448.67014627677185,639.1563036008944 453.0432020544229,640.089234472818 456.88573725215866,641.5533446842246 465.2347252693937,646.4365445398844 471.04387664711396,652.0079781290418 474.3370744649811,655.5928278100831 480.1008008974539,660.7698035167755 486.4997594571701,665.1324398768115 490.25829242753804,666.9211894810583 501.6729464308069,669.4633809218793 514.593885051355,671.1505992537872 533.4363971895643,673.0781243606895 538.5498665885705,673.866574853803 554.2612144326248,678.6569158876837 559.4015149623024,679.7927549058716 564.0351237486913,681.4320949591784 571.508618971702,681.9668226472523 574.8173901545687,681.2704951052839 576.9536193436724,680.051258684402 581.1878432472929,675.8228292996064 584.4195233459801,671.4689113025574 589.0678792749763,664.2984109726674 601.203758364901,644.996304358877 606.5716267953645,635.8948905462796 608.3815531605554,632.0560192938857 612.6313417049212,624.774205617606 617.2845149080703,620.4389994227488 622.2277722293691,618.3254527385128 625.8715119534686,617.7329508828194 638.6930887452145,618.1626663600299 644.8466282640502,619.2855264274026 694.1613775292008,625.477177155765" /><circle cx="424.9404136210827" cy="391.3977002408801" fill="rgb(100%,100%,100%)" r="16" stroke="grey" stroke-width="8" /></svg>