<?xml version="1.0" encoding="utf-8" ?>
<svg baseProfile="full" height="1024" version="1.1" width="1024" xmlns="http://www.w3.org/2000/svg" xmlns:ev="http://www.w3.org/2001/xml-events" xmlns:xlink="http://www.w3.org/1999/xlink"><defs /><polygon fill="black" points="904.0733324221212,472.4078229560371 897.1613819580884,468.92526481631717 887.4791609779694,463.28116313590795 865.18097447864,440.22669733618363 854.0805081612584,430.7062871521248 845.03198942415,420.7601547213568 812.3850585962489,387.9788952274786 797.2667945322946,372.97292099296294 785.6332316403608,358.96189259653613 772.6642785959998,340.4532992205884 762.4751563903214,323.5864574845068 754.6874830542368,309.30322251167684 739.3165149678442,286.32410770998 734.5674538207962,277.52895870276325 722.9338400842537,260.38259967919487 717.0380602192485,249.97630537463658 703.5141762394373,228.78769854791403 685.8906143161569,211.37646008974286 679.8422918497848,204.83414392732948 670.9693520463562,198.40861510212915 657.0744457582583,190.59873446241556 642.5063839393167,183.2480990287554 623.278517126209,172.9696518949862 607.8368676726501,165.1377752712881 603.3398798327679,161.8306037060621 596.0685533275152,155.43076425704237 582.341500580311,141.97859205563304 574.008701809255,150.68676536986618 572.6718945319046,161.16855431566933 536.8931064333294,158.01010854853212 540.5729875317484,130.54023064968032 544.6435714597559,130.57838638600288 545.3982211640896,125.78897367615446 535.7880754773417,121.53294917247138 533.6302516331244,119.79742445292732 534.0718767119787,118.12391776174707 537.5885245277346,114.0473430516115 541.6102368603874,107.98849222557476 529.6452801920109,100.88603832745787 504.8971145757906,88.90391539975258 490.1828827785382,83.2789253211838 463.0235458449463,75.61088933120686 442.9802392465417,72.58401911047929 430.42503859558974,70.98898364258514 431.26789999272603,62.024123942016786 427.4336570590612,61.10533567672542 427.97666516232505,58.00026788581147 427.2828079342655,57.02163147685951 414.50355182369015,54.49506527791766 417.4557216103057,45.94058547620705 395.5092947978625,38.53941476911075 400.0332352426755,27.802589623666222 396.86958630369116,26.84347305594497 394.2955574439329,33.99526286753144 389.94027318151785,32.7287794640921 386.526918478662,41.034689799556645 382.3204853911518,47.299225103965114 372.13580994280693,38.20743170308572 365.5198073233105,34.85582106910499 357.0382485732275,29.152978462688566 350.8007090989623,26.269223763541504 350.5360993128087,29.401555423565355 348.09105423000057,30.636071731127345 346.6617132328948,27.264996243159544 329.5411481835397,24.00284741310054 327.55179929083874,29.35054524997247 323.5173308413925,31.90786185035722 316.9800251183784,23.68526276302123 297.30665275556566,36.81846317386817 293.6837796623044,27.71864926611886 310.72561027448467,20.68642944748194 312.3765702823943,12.47265338140869 307.806795405047,10.997762580475296 285.05160696880773,1.8450760051200632 279.05087356213267,0.0 271.32843205899013,2.9498249740170195 266.0595158991401,5.596243218658174 272.33504067133634,25.292819684199685 266.11042278773044,27.213554216674993 268.91780890964304,37.60833281426778 255.5870564597859,38.926348853317904 250.33704366931187,39.97866087454679 250.57142637251232,46.195855149722206 233.44267367190835,47.8230504471079 220.58963648899763,48.618029603332275 220.62758390099947,42.789678415277535 217.31720275666368,42.88467554682802 217.343923303327,48.173549669879776 211.08635587000566,47.45696335620471 203.13147248466333,48.322157094042495 195.90878415796507,52.38177319269607 187.5802472556463,54.08945553097044 188.84082212707372,50.77458928823353 185.3302647307666,51.819593415389136 182.7617996176621,50.84450131863764 183.24950870128276,45.987052370135075 182.68282864899734,45.28046786173559 173.7848495011549,43.771791366282514 172.6821090818428,45.035571514873254 165.76613323371092,44.61386244479024 165.66177946287195,46.746813692032106 155.98770585583188,45.3173213758015 155.82812893295414,40.39556224859086 155.12211962810557,41.345137238605844 149.70346539883775,40.55640487237031 146.82482024503628,37.91713562751943 145.35258161377772,38.88384913472419 142.01440132833,38.97710937848569 141.84098053759578,40.37503728913862 139.55013544191863,40.62597988166999 139.41104460502248,42.03448109440296 136.0559926724917,42.312332734095094 136.08432868943316,41.382283812364335 131.63927065988594,41.53574531551578 131.3009721698761,46.8951847269534 129.05628248474562,46.96131112861417 129.01952287115444,50.75936485920806 126.78284045165557,50.875866054326025 126.89039199593292,46.93520854891517 124.34836941743042,46.73601330696647 124.42820955138912,43.45875755520092 122.77859588473181,43.209168389349315 122.81079717541664,41.382609440181 127.10344410687078,41.30043706195613 127.09991491305847,35.175948186084156 131.09808976388726,33.53297554983055 136.07370092434772,34.62580689069898 138.3645992814945,34.31403042060617 138.84764243503824,32.11057415545588 141.72298237519848,32.48454437470207 145.29992976838415,33.89092802157518 147.04042380412127,25.65816062107706 137.62406897572924,23.157250912037625 130.91690548117458,22.110818141281015 130.0479984994706,27.578199534797022 121.52177467397458,29.376204106014143 119.90728081327357,37.0273987074346 118.01795795755754,39.12451124561812 121.12649903123283,39.908862438391 120.13471397191783,43.86628626848824 118.74730903171796,43.50600644670192 116.95766937275357,48.33070231333875 110.39787226708056,46.210825063247626 107.3947716165556,53.65687420864663 87.33954057910547,45.876904078755274 80.58336519756702,46.36917590199937 76.72558282555177,58.73165053056516 72.52745421171389,70.17557156896737 71.73526941700615,76.04593538269819 72.76287604245663,76.31328861974703 72.45607821538105,79.52900821270657 76.92400380428714,78.63201709957264 78.23754594943865,83.40370067054926 84.9523078160218,85.58627799715293 84.08515736778217,96.41779752823311 84.4700995578982,107.5213685944185 83.27773320038267,111.23445256595483 77.6827915874176,111.84306577574603 77.55014912509844,123.99713473992631 79.89594685290146,124.54302324564867 79.40568738960458,129.0053977971021 77.43462447334659,137.08974527089958 77.00641790598178,145.230718935317 73.39715725074029,144.71075091019702 71.85576439681745,151.24460546424712 70.284212868482,164.55155855243606 67.24359542014848,160.8647573182783 65.84458560679259,170.85272144213218 61.96539197742838,169.97270852327722 58.432922686125586,183.8682072611573 53.553917995953896,192.16234755762025 45.30971106139144,192.59842316913478 44.63443174394371,198.26737796711575 36.945367763481755,203.7015670332304 34.24639420164826,203.61166723059375 30.48170373007658,218.4002115917142 28.88991278005886,222.2985035708649 25.071739009434367,222.0014054326757 24.660335046234312,229.5417718917273 24.33055213617987,243.10601053076732 21.43502103210563,253.97286876233204 17.252592623060924,271.55426301835325 16.11577942856856,271.2022206126436 13.730771655125272,279.9478472532553 8.393366436296239,279.98152708155726 3.960032215921079,279.31454226553615 3.1978967051761065,285.9068111573233 3.458528177356728,294.70055886799435 0.4144399062067739,294.84411273590547 0.4616987054582915,308.2603828322352 0.16271031040546413,322.760995125406 0.25178125415597674,337.4685874877986 0.0,367.9615057744486 1.1740381444743049,368.1794107407676 19.2422146355775,367.88957041436674 23.47981852419652,367.98440731230676 23.91649299827807,387.87461509068055 24.35980882872435,429.4214224892647 24.489150350062495,461.4689139626404 26.65163108017052,461.3536817166622 39.8329602435323,462.4573259659868 51.36079840201777,463.71886534352166 62.07607066765742,463.8309247984298 59.29440956710327,478.6982183677027 59.84571248941717,478.83202945046116 58.552783508356,488.47356663725 57.95622262897281,488.65665025500675 57.150105924868335,498.5451770783126 58.20612852649499,499.07931851852607 58.2240199756827,505.5815462575441 64.28770333413182,508.2920959654092 67.319144264293,504.73548115156905 70.45330719995115,506.2200010703525 66.93075839434607,520.5877831476613 62.27269076503701,520.1235279754003 62.02275908109397,525.5500529485632 61.04067396829449,530.831772193162 60.69904233683928,536.1362641755896 58.491786455978406,542.4810912640651 52.91196110805766,551.140498906249 49.42906930496909,557.019674238814 58.51306818907703,560.6922131470426 53.11965755006157,573.4818528515833 61.885897745612915,574.8270330228211 61.32712318750588,580.7985440888826 54.18778746370121,579.7938629139301 52.121597259790974,587.0627566380597 48.88174285622459,596.7153882006339 47.402180356894895,604.3952891307538 56.32394714603668,605.4053057692337 55.58206047524154,612.0942934248544 70.34222665587325,613.4662216067154 68.47039605847108,626.1168301191454 65.99918662432435,636.0616235864552 64.019394613981,647.6978111423205 63.199938161028435,649.7971302170735 60.77921445447004,663.7918617239646 59.95214735707045,671.5282429680644 61.517110728929666,671.5745827884814 61.96288806463577,667.924824524008 70.46088754985776,666.5855773445118 70.50940328157537,668.6977847431947 82.74101313180893,666.649913406618 84.25076541155786,670.804548773169 82.82788587788724,671.1178301156889 83.66529890667715,673.3853680883199 85.52098067906724,673.5455933388614 86.41020275485236,676.1407689243647 89.08278064384417,675.7572153273904 90.37221816806147,685.1116114345473 93.95149096216825,684.4846708303703 94.85980015079362,693.8569391588996 109.12140798581146,692.0787167231201 109.93897685146217,694.6021879503775 111.30761127699128,694.349401986103 115.42249991709309,696.6667148012058 119.39148223393077,696.1009941963815 124.70720162988889,696.8820050914728 123.92685043722904,701.4738036296138 130.24903045141878,701.5809591462876 130.85438044534098,697.9229877697124 135.746151477789,697.913227091208 135.77016118262338,687.3844462587097 138.0800700485565,687.450580923075 138.4382060080283,684.6737934191033 141.11900236930836,685.0283478514297 140.54133930086192,688.2056464647314 142.64936928393223,688.8549091463115 142.67342648542672,690.5975218923608 144.15000345760544,690.5609242021808 144.51810992858853,683.9904049265215 165.6298174060381,688.2179847969352 172.3395201883167,689.1135815217822 199.11735580997583,691.4205842411855 198.58576626523,694.342048750411 201.91940566525787,694.8206015892972 203.37212963841134,692.557947544844 208.53401197161458,693.0984758561215 208.63411715936562,692.290362284927 229.30092656825886,693.883867783677 247.36859193447577,695.4810539083176 249.43565843978152,687.7749991472757 258.35135071887925,685.9534052144684 261.09551165421976,685.8965191865966 263.91596949407517,702.6311732269189 263.066344308816,719.4864983570416 265.4771781349255,719.5004335083639 261.8578128857344,735.3272434072862 259.601726458041,735.0384483912662 258.4254677782585,739.7437037556325 260.8799055402653,740.5366719111814 259.43036963018034,746.5347991308365 261.34225377648386,747.2450885635333 269.8838812991404,748.3531003844905 268.1982923662779,755.1508695069551 273.6898060367297,755.7441988337029 269.22699303820434,771.2361755609496 271.2009307728615,772.5405668329348 268.56776783639043,776.8050869798636 268.6451008021678,779.1544743142831 270.42017034904103,780.3872158342773 271.684310666724,783.5066349551328 272.80109778157544,788.544732409106 272.38100828258655,791.3448144022225 270.7918298862324,793.5995290820838 269.05982819568345,794.4075121350825 270.0782579210711,797.9905751766797 274.17709833438096,796.6105672505914 274.3019182658923,818.5981721760566 277.55361670537616,819.8244229205553 277.0872482940543,822.7777079740156 292.83314978282255,823.7532067131137 293.1350087265889,821.8451911277261 307.99950884718265,823.689284260324 308.1223660094585,827.0947078359244 311.6665139838079,827.6844232552371 310.8196538012305,822.6553336793938 317.35862531208414,820.3132140821293 319.8879679491611,820.2739147809443 328.61414673360764,814.1567131312485 331.53482899018496,812.6312073691657 340.9463252954792,810.0242184570182 343.64800090982146,808.4457915380005 349.4126150837125,809.7756002456299 346.98549542495175,817.3146695403287 343.63302668851054,825.1299934036998 344.756244095715,825.9938646622566 359.4255374187008,824.1796994147927 358.587083248089,808.7166915303903 363.11898870070394,808.3906308050964 365.4361586551359,812.3120410079556 373.0782094058741,811.9481018294902 389.50371025404417,812.0112310018638 390.9648181110735,806.5640554500912 393.1967341980678,805.3749617886931 398.4183449625756,804.2189541919136 392.4795860022476,804.9126759435301 392.1723146563257,804.173497648835 398.44519347841083,803.2427305585917 398.58945966413967,804.2379404827423 408.9054616588397,802.5299497249216 449.52230490998943,794.9119135851406 458.0519301528469,793.1792060773566 458.5043080390793,793.7839063507887 469.9064969400941,791.3643756576937 467.2504348184124,798.5862557751514 483.8917886838802,801.5111523163889 483.8654941826323,802.5062858504161 502.8273719468228,803.4891212443989 503.6760362169737,791.1358980702179 505.2438721926074,790.4281230237928 505.3433050544053,785.1039294828017 504.92645270902466,781.5454519920133 508.7051083332951,779.871502030831 548.6198995685426,768.7502166513063 553.5047835524898,770.2657789160999 547.5470585817386,779.0085789707159 548.3915678469418,783.7676235996967 545.8391972686209,789.7185869266024 545.1511281301011,792.6832972802196 543.6479135222311,794.0695780507891 543.1366554695995,806.7084058751454 553.6912549599464,798.0139821103412 552.9157612260277,807.0125493546742 551.6665646718698,809.8243003692186 552.401172905438,811.3019472036314 566.033612875135,810.2680759552571 569.6872993171369,811.403818216277 568.4571791222448,815.3955785524274 583.3167750086131,818.1362968967771 583.1394075736424,823.420695058066 591.1879143506209,822.9845423308195 588.1813791796325,827.5929045371684 581.0350005598754,836.1362958836928 579.6314829713808,839.1037343033194 576.6834341758064,851.2046846061887 571.2965051813947,878.5405043536263 571.932680165391,879.7199905071998 572.3503503207919,894.9321480267374 571.7528499136556,897.859108692747 569.7862153575081,899.3173008599907 564.1825719128765,900.9749065661031 565.1370717922558,905.9415921238736 569.3703025520254,903.14689224147 570.2055605059985,903.9378716460602 570.5549297791318,909.8811157234736 579.0712744918706,910.2053254884419 578.6495062960565,917.3310290522307 584.854136679751,917.3268111902062 587.5858291215682,930.9080982000219 590.3767079219842,939.2134518887774 594.4631720175023,957.1204751405439 596.0107992343235,975.45132950271 596.9013885448193,976.7963585311658 621.2506525202494,978.8916278666566 620.7421641510288,988.2596604062251 622.8295849752076,988.3815557249127 622.733053325428,992.5531675104511 634.4396529659244,992.1301123005743 638.631709284168,991.3867572189728 638.9704028624735,1001.6482946933011 632.2555139003418,1003.935196074874 632.0416762989411,1007.542188304124 636.0532818483797,1007.1370931027312 635.976150747486,1012.2009339901234 639.6335507804762,1011.7352285385808 640.4170779879572,1014.0983228149344 640.8317512367327,1019.7473716516905 660.0433925027464,1024.0 659.4345896173041,1015.0719675346976 676.0158608576572,1013.9113197003869 675.0233072670478,1010.883167528312 677.8581141010245,1000.1934944007985 680.3179336852234,1000.1902423345798 679.4701877443997,997.0275611769144 683.2735433902924,997.6501980121592 684.3092020103182,992.3163004155043 698.1438025765749,993.9092437327978 703.598403175021,994.8270856558522 706.8986297238292,992.8088180210436 705.5736130840129,985.9184448388447 706.8045229722323,983.922156329551 722.1408523332618,978.2193774477765 722.6207642210178,972.4158269697838 727.4952791213261,972.5611551481019 726.1475943049893,959.3244512498122 724.931466766021,958.9884277453182 727.9373878090603,954.9358341975523 734.0090760660337,950.3762787928528 736.6626200046766,947.5795536278662 738.3059870130675,943.5395608657641 738.5813479126333,934.1336844379287 736.2800642011033,930.8625211136628 736.6394652121691,923.3648715517572 733.1642371536238,923.0012571366863 732.7879729040898,920.5581609310169 733.7752556263414,919.1414884120892 739.0273169942018,919.5839193736542 739.1638300158713,914.7067218514532 740.4785172291487,914.1397075098339 740.724557103776,909.7850736030092 744.5618734328374,899.9131722782179 744.9296683699225,891.852820186568 747.4116645637519,890.4942985583727 747.5024828917419,874.9016653513131 740.1846241077901,875.5905159433128 737.4896309982788,874.5496360307679 738.0692957067763,873.7067706559569 742.9286743279418,873.5954838492664 746.2796239888623,870.406850528582 743.9904494528602,868.8929951857767 737.6426370428795,868.729748595692 737.8278886048213,865.4039296487688 743.4767494716625,865.0750269157425 742.7677602595601,858.7548714444486 744.1835875528997,854.2050150299323 740.3227656745668,845.0771019311298 737.6087140323898,843.1628912320159 732.2575559104665,841.9102034896009 732.1851671176712,831.1360107659258 727.2994410764654,831.4107575211127 722.6401734381199,832.3106130415397 721.5337858272321,820.7696808816439 725.6307094787356,820.3620464997695 725.2235461881951,814.893668984697 723.9499329012247,812.8949749207587 723.091058692095,807.8682043298427 724.8170997226747,799.7510548042711 730.9900858133677,799.4427465533003 733.3335542470649,802.6299675937905 735.2573584026534,793.1267250445461 740.1485053061107,786.2552448489375 740.6816650369353,770.1998401737975 738.6095104193046,750.5105713104999 739.5283781938748,742.5499570882052 740.6976100235489,742.4366598063505 741.028073311522,739.5220424899217 739.6772031439124,739.2073680535102 741.9613501140235,723.9130587182749 742.9512487151856,720.0861148907034 770.1842332519794,716.5298295157986 769.7500976361639,712.2750607045739 742.5006289625734,716.314176777574 741.7969043421783,718.2637040394509 737.2587832670532,718.6725504460687 737.5384406337926,722.5581672184073 735.5596924071776,726.2104070827468 732.5981633944297,726.4316660313934 719.9149202926596,721.1828491445949 719.7026554131671,712.8756353478416 717.3512597531987,709.8561552049725 712.8765349116541,709.667921392697 712.0307614006923,707.187672570772 704.5815438200872,711.4546169999531 702.6963038828071,704.3213710175473 704.3410631673572,695.8077097561811 703.06204709118,694.8459663489671 699.6774840239002,696.6040143845488 700.5631528013778,695.0869035083211 715.0308442806455,685.6320357211637 716.8413583419281,684.789400898128 728.6563704752189,677.0190474538642 732.3305796348104,674.921840667587 731.6299283957288,673.7662129045787 733.911888319525,657.308841260971 735.9212095655465,656.6713840404244 741.2217135018194,658.0751821223859 745.1533172952444,659.6680741172346 749.3018657026233,664.8484656490691 771.7234360019613,650.5679074503577 785.1606720554526,641.4210467381997 797.3218528619294,633.5143679952952 809.6701945936089,624.6027312449467 833.8205276966448,607.6090572778799 832.6826350067502,605.2036301828734 830.0431487539335,602.9255781170455 816.7331661389816,593.5608796038073 799.7533340344461,580.6673485881472 815.457868727576,561.1812376998507 802.1984788861564,551.8172319579799 815.5704283852405,535.1745659113067 819.8461097076339,529.4920820338364 832.6531633699578,538.9458859592446 844.2466196217911,547.1922469431896 845.586413567616,547.619378947026 866.1891212809126,522.3946725657609 875.602780234064,510.4302185699188 885.0060236817064,498.8136987276122 900.0003026030948,481.3044496180041 904.0733324221212,472.4078229560371" /><circle cx="356.5447078641042" cy="287.5502855253918" fill="rgb(100%,100%,100%)" r="16" stroke="grey" stroke-width="8" /></svg>