<?xml version="1.0" encoding="utf-8" ?>
<svg baseProfile="full" height="1024" version="1.1" width="1024" xmlns="http://www.w3.org/2000/svg" xmlns:ev="http://www.w3.org/2001/xml-events" xmlns:xlink="http://www.w3.org/1999/xlink"><defs /><polygon fill="black" points="547.5615333998907,675.8225496849758 553.3180604924192,670.5064648161886 564.8417401596951,660.4491990812645 578.692227809326,651.5842555786959 581.3888317515012,648.9231502324417 581.5856489089891,648.2842396763263 581.129037366837,642.047822413202 580.1900222827303,583.0441764879915 580.0878931671647,574.9245260505927 580.1640580960043,569.3942027826536 579.848242863607,554.9332289352892 587.1730151183035,554.5660714069306 588.8394947234412,554.2955861066577 592.4715024586842,553.1092896616371 592.9342732137891,552.3295425801325 592.5722601291233,519.5804355013033 592.1130618481704,516.5822377564714 587.9877195614769,507.9685133291629 586.4898216534548,505.3499905925013 586.3038165028477,504.3391239183118 586.7282691390898,500.83590607125984 588.9969902290982,496.1943936602107 595.9960084867342,496.00932573172133 596.0818047321774,495.63146982973535 595.5214592422715,459.99790545974815 595.48908265905,455.25301428134117 607.1393594770143,454.9223577907809 642.8865661796357,454.63073286697386 665.7582879711259,454.30236380503857 718.1974947526313,453.8140131203472 745.5536134115192,453.4578896590618 768.9262708575374,453.18758737702103 777.8172053257899,452.9129612653202 789.5698675301268,452.8804403465988 793.4641907489163,453.4960883611684 807.8315630404771,455.2665331909883 810.2262113644912,457.10346278982314 811.4447582241055,457.24516831093 811.4554208155197,455.6717157225594 821.5691856618105,456.4490369711217 822.2321312944728,456.26203116023004 825.9540190342074,456.9305295862421 834.968829820249,457.6711501299646 835.5785476040735,457.92270807822035 846.087150932175,459.0657660371443 865.353936912461,461.46605262400874 867.1169476990538,461.3915166834704 870.9535433803547,460.0315325149968 885.3973987129539,451.32937534026416 887.8857144776376,448.979187679035 896.143130067395,444.06651013924267 906.9625005656128,437.3318407232704 920.0540642357468,430.0772378727565 933.7972048372208,421.8458548228999 934.9541311778677,420.93399100530075 938.8094688000093,416.6605445107104 941.1546209247524,413.6703542730117 944.4148379612323,409.93956979233656 947.1182581830113,408.4006801791795 950.1932267867431,408.41476072280614 951.3561772051647,408.8164157766542 959.6020107342871,412.9808514688228 961.9301945789573,413.947000802392 966.043006488156,414.9956448882301 966.9146360687323,411.368606549888 969.8514498021993,401.29264488097635 972.4305926452137,398.16664415461366 1002.7981004957693,358.66000230254775 1024.0,331.39595451064883 1023.2938140782577,330.1429854828275 1016.8554516279546,334.7790500546814 1011.9331068708952,337.47445560628375 1009.9284104170937,337.6752761396246 1008.6016533540127,335.9471371424592 1009.1288527476239,334.7891222225355 1015.3684061682737,331.7089331622696 1021.553924515511,329.5662595495963 1021.5937972846166,327.04529305450706 1020.8616438516738,326.18983539430275 1017.1623422596631,325.95081250069825 1016.7251494279167,325.3611276059954 1015.8959801753589,320.33686382334116 1014.9658350953223,312.2793144350866 1012.8862518159286,310.1848157298716 1007.3422286239087,308.59642643988013 1006.6307299511759,306.6662982770386 1006.5305834717686,304.54442445880017 1005.8162122739544,301.83529779146556 1002.663804410076,301.2779841910701 998.4744433919122,301.15755471461125 997.5969735557212,302.3152921628391 996.4567070591063,305.82394000871477 995.6056090263726,310.8968539342432 994.4775364983738,316.15178989565607 993.3170787378714,317.9142367023997 992.1168293038431,317.9307624531552 990.5906439154328,316.57191037312367 989.7976966054716,313.2935631006306 990.0247051359635,307.4807708609104 989.023471844805,301.64923726413247 987.3122938966201,301.4283751811105 984.1799706497821,301.7565830506436 983.5165038248892,302.7382232775679 983.1358721769496,312.84544877702643 982.6821867339687,314.20099139961445 981.7353232826239,314.61115543046003 979.0356540852708,314.35291250775805 977.889012496719,312.8258608796519 976.7876422683275,309.43461222532795 975.6690379630774,304.7859401543621 974.825325481856,302.95940254607467 973.9280835625883,302.6814825560076 968.2484751679791,303.81333037130753 960.2747117743153,304.11597182886965 955.9963200807149,302.95245369563577 950.3306485620567,295.3057016535612 947.5290838015803,282.0851024907043 945.884786963448,276.6593952787299 938.7029886852166,267.4496250493778 937.4803346537574,264.9407847732857 937.2803549798273,260.08091818514515 938.2373045169903,255.7959343058286 939.4147364326067,252.0985821321114 957.0718980651416,252.08161559530816 956.1323633937066,250.71460322929732 956.2366448804331,245.67745787717462 957.5438214561705,243.71454260142497 960.5341086109371,243.1084522000436 965.8698125026225,239.34897882109414 967.8988774654533,233.5013198427746 970.6795242055694,196.39022546780916 971.5253850565647,190.93554476775995 973.2104272856125,184.70558023959438 971.9826397540894,182.39550208740314 969.5948661986272,182.42826110397726 967.8304912101695,185.17144930126648 963.3949754415415,187.94613517553756 959.7967114750056,188.36710298462123 944.399854381823,189.44311050348932 943.6629187455015,190.22201622169803 943.6909106655642,193.13919722818946 944.0612977949789,197.7930793404601 943.36933932494,201.87081175355632 942.3654440621774,205.58109936660247 941.3321672902819,207.13798228864852 938.9639811923053,208.33117534802153 937.5947686180808,207.75919045128495 935.345853250801,205.86514791969404 932.7408587448123,201.80177125942987 931.6338490862717,197.94203267120918 930.0770312270732,194.27680379706754 928.7288105190498,192.35010205239286 925.4032918212592,190.84233560126637 924.0483571505353,189.28740412263897 924.4652853530242,187.5403696680608 926.3704995142461,184.42379955776846 928.8269914078148,177.58275906702414 938.3357627089787,162.23410826260533 970.2706134498902,121.85768544999826 962.0098204175207,108.37597150102022 948.7669606177637,117.1367698788232 930.8468106548185,127.39152204172478 927.3264069278504,111.80269580536037 923.4183313287381,110.50143373650508 917.5816371696626,108.8240698010286 914.2685458823828,108.46169313171265 911.5784477211662,108.49817770208028 909.6211097363313,107.74567638223357 906.896814384028,105.2570906549148 905.6671754961568,102.17797289606892 905.1949199327534,99.83708035129837 903.5116342603808,98.69386428426219 899.331209686481,99.34106949045179 891.8637954309049,99.80349873364378 892.1142072768431,84.85081003240737 887.1786270034677,84.90725092700075 887.4488617286095,72.28630759550572 900.0174227222304,72.141945335439 899.1782716654432,55.46768409960157 872.6106916653911,58.091921296393025 872.4176101268133,43.15540065269056 872.9356860585278,38.10762140971087 874.3879475197543,34.97193989557604 878.8630008378861,33.771128821635784 894.1172393382335,33.11720529699028 895.2954261438584,32.41389392628764 895.8774353457711,30.084192030491067 895.533982028116,27.369847338033765 893.7171704311106,26.213124266038108 890.1247635088132,25.492808123196255 875.2037360823894,27.21134704835697 872.0391919526802,27.890403884831585 871.6248167436887,7.030071117168859 871.1081730229082,3.4117093637988773 868.8575831175035,0.6873548550811392 861.6560135654735,0.0 848.1308807946235,1.3422599655680187 729.3394137539482,5.947356368457122 732.3375011161373,23.235149680808604 712.9002971601802,34.236913925452086 701.57754361971,33.28415846241205 692.2915036113756,33.20590488158507 688.0260409797211,41.835413725562944 688.2492042785684,46.6237605729973 692.126788967986,53.60006034730907 691.0543369560871,54.60680763187861 686.0644603065186,61.37701859108461 679.1175708606248,66.1561231072377 673.9143685082955,69.22219436660134 656.36096300909,73.49583477811427 634.9584913316666,75.14469520710463 617.013683421523,74.98656954968146 611.1581281862897,75.05086022724083 607.7516640203362,75.3283540843072 596.7916718490459,79.48464749088782 583.8136186419725,84.5673002164516 581.0526311378688,84.88729444412218 573.2765647679231,83.62592163844283 568.0167689025318,83.53432768325433 560.2746897507908,84.97077750255175 553.1195604951381,88.3650392481544 549.0643966636728,91.50137653336628 541.3016333339641,100.1065834634984 536.1487205928688,108.27168127639425 532.3303982431518,116.23164931748101 532.4786564995126,122.4364055060579 535.0116705611514,128.71830639031862 545.2835086160298,146.7158135598056 554.8587527621752,162.41530464695165 556.4218486768684,164.71235462248387 556.8016062693343,170.52214909403932 554.256443932514,182.14754807130947 550.4689991472103,188.21323536103682 539.4663859935746,196.53302218448033 533.0455668848268,202.534664155624 520.9534581313982,211.58534214025775 501.01641468911123,223.9252194974179 480.1848005521963,253.82538868176943 451.2856461790084,300.73186183923167 445.26725093839815,287.7712551781504 440.14645603442443,269.32624588623736 435.66032976625945,248.3531376053504 424.2955630762916,243.445917961823 416.3069896494135,225.8857473333597 411.3986455780505,224.76410066307398 406.33968836747954,225.49751136516392 404.11991653705337,223.17213638502614 403.0868963915133,208.0476669350798 388.3772791037684,205.87830886956232 390.36738638419126,189.20005421976163 383.509784579336,180.37270062843146 375.60404910717995,182.8201856772821 347.19872202900507,180.13652319745574 337.6251987589412,183.6162823756644 332.7518750196573,186.02152883965022 318.7441972616145,186.18810580884474 318.10313944470914,175.2694574736314 286.04912623468533,177.33378379316315 267.49958755688385,179.3134470461706 266.6148449688123,190.42314110074972 255.51015998890685,193.58764660362232 248.60218074818312,209.47720955530838 231.4108299014153,212.36061171789697 229.83271417272118,221.1310837921086 223.09746958063934,223.22546166075466 220.8102397798649,200.7174129589057 211.6490240543309,196.44998573577703 206.4735186559286,187.42675031435203 193.94942022788013,184.54693719388172 190.17025012989131,179.2088376835277 177.30439610095323,175.99125470802767 161.09072021704284,175.50482382144992 129.59837167139594,186.54496316367982 120.14062381633275,230.37162091541137 115.85758356977244,243.76447417376727 115.04531390538962,254.06837189103862 102.8768173238076,253.1974515693131 98.18141640977801,252.74622424636738 92.00636992184205,251.92969505684533 80.86488148458689,251.04649081519392 73.08431903577515,250.21196035603242 72.65832063838319,257.86900346596525 63.07398040624964,261.8453382939446 55.016812993805736,281.4500866664819 42.645428765012596,292.5184783264776 37.39166385761763,306.3690410140189 34.227094914992136,310.9505896764098 22.59439127363208,312.4231192412534 18.36033780754486,326.7661584885643 12.22598469171521,337.2657254034401 0.0,346.8188007841209 0.8887567042235247,350.3424209311972 14.10495094569604,354.2347387932532 16.452474047157537,368.342364477334 16.30561670355889,373.5981992230956 22.868987487937826,379.1212736560012 24.46874576101605,379.2716552411829 23.947250130551456,389.4549086170022 24.140840709252412,398.8054866870185 36.86085872334502,402.1373367284746 35.01997857937139,408.6745485517311 32.679524062821876,418.46042053181355 40.929372287238905,419.7591400417785 42.424040511957514,421.42272416842775 58.98958830226382,419.2940597466946 67.84477049234168,410.6064566747692 84.71854814423028,414.96965394251663 99.38478104880797,412.71777539827843 114.13493632159384,410.5916203460632 130.8728722222623,407.41898597406316 138.74313221308822,405.77693040938226 136.72044682837685,420.76840378261613 143.11769894811476,418.3487079900088 146.073440732794,425.213895488506 149.4035985938293,436.95230455257285 156.75670476592168,443.7724640020507 160.08960365510572,454.6706774042203 162.76117716222157,466.25355398915366 169.5759305042045,472.4024567352401 177.69770912352354,487.4563023814504 200.3526654570802,488.7083456797406 211.07518610693617,487.403548046139 215.38611812210254,488.0309122738479 214.1087076821013,494.3640418293866 214.3566691460469,507.9907305175297 213.25698172407024,515.7422840899729 220.10704327072034,515.9329645240189 218.638470588431,528.2150124027119 218.3018981649979,535.2093262117669 216.6592469516415,546.7551204049803 214.2926330348335,560.7581949531232 213.50618185932453,566.3219284287126 218.69480051538662,576.3581294530375 229.5768424268478,581.4559181538353 235.21772796017484,594.7705683589211 255.1370607913186,592.5176305949718 267.8966125951758,592.0275192462683 276.9761832704304,595.4648072191699 283.96464269695383,600.2603596406717 285.3316308844834,608.6654255892091 283.05854867039085,616.6906398333649 283.5629489241969,623.7566199959554 288.3948827842677,632.0293442341346 292.75211725419047,635.4249744401591 300.89937699926486,638.5213426575068 307.42597945550597,639.7986751727962 313.9945775994305,637.9594739327042 332.0694566993103,640.4285005831297 342.26715811213904,643.6523230863766 351.8034658997385,639.6285225802504 366.04059652461075,639.0256489757885 368.29458606680026,616.0619319243824 394.3558590249893,617.7650488395458 401.23197893458695,626.7855661718867 405.5039230415166,644.228066315251 426.1644640406535,647.694635340532 455.73616694945144,648.8822766275466 461.05191816897013,649.3264180635509 465.09205527108315,650.1526879350711 467.0407161720747,650.0422631156223 471.8568188453786,651.5004690274532 481.04481821220037,655.7662877795024 491.9068321031616,659.6701247743724 503.0993970768686,662.566537356804 509.586187373567,667.2061186505382 521.1052804829723,669.079643080991 530.2533094511671,670.9924576913919 541.9329864317743,674.3500227036874 547.5615333998907,675.8225496849758" /><circle cx="752.8709681874789" cy="438.23513750205643" fill="rgb(100%,100%,100%)" r="16" stroke="grey" stroke-width="8" /></svg>