<?xml version="1.0" encoding="utf-8" ?>
<svg baseProfile="full" height="1000" version="1.1" width="1000" xmlns="http://www.w3.org/2000/svg" xmlns:ev="http://www.w3.org/2001/xml-events" xmlns:xlink="http://www.w3.org/1999/xlink"><defs /><polygon points="989.9090874241027,493.2471683814077 990.7391844112988,488.8681487510127 988.1501074850456,484.9933798659356 988.9787300548195,480.7588531391716 992.7591362273303,478.2656133428809 991.3392722865684,476.5759310208473 987.0590386208963,476.9268423582316 987.5898288791266,473.3661243759435 990.2393569181165,467.60557565677254 993.2796055638779,459.80443327818375 993.4904472497772,457.65325831496966 995.7905383687684,457.30382139496555 997.319509195941,456.0830038010399 997.3799603086989,453.79618243850246 1000.0,451.68776557942033 998.6803964413464,450.03199485722155 995.7300872560315,451.41499836338824 993.7691121353565,454.5039027828079 991.5899232418392,454.62333059090656 991.6194115895279,450.00692976169455 993.9902747429386,450.4418828899678 994.189321089775,447.9840291108867 992.179690195426,447.9589640153596 993.3297357549321,444.99685949096613 991.2891420955142,445.6279101313048 988.859302246726,448.16243361434726 987.629638148498,448.2833358398367 981.5093315876246,441.4892205344979 980.1794071072884,437.4448936502679 978.2184319866134,433.0408089243458 977.189288652602,427.4689856303181 976.1483499795067,426.02700542879484 974.1682074328467,425.2588339717473 972.0789579997548,425.3782617798513 968.9885791629603,423.1931752168024 966.3877068976232,421.95613903165224 962.9272492974434,421.9826785445648 960.8173580209863,419.7386152861593 960.8276789426689,417.99732835569137 958.6381691274688,418.62837899603005 956.9971425791248,416.41822733745926 955.7468366375105,418.5767743875904 953.9170846640129,416.70868756210155 953.1577597112574,417.0419058908758 954.2075448886551,419.18275993240195 955.387078795829,419.82265707704823 954.5274934609652,421.05232117527623 951.8175143092384,422.604882680601 951.426793702467,424.8489459390013 952.2672116113455,426.29092614052456 949.3876744604503,426.4958701568976 949.1370235051795,427.8523341501517 946.8266114644847,425.9326427162232 945.7266960960537,426.9485162937757 948.2376289009442,428.22831058306315 944.1564415821084,428.68095671994126 941.7059598899549,427.15346031014883 942.1762990354483,423.2359333209397 941.8563504631173,420.9491119584022 940.20647741045,419.96862439805943 941.0262534759423,417.69064953982445 937.6468888318857,416.64086436243724 935.5163557120421,417.0079942910462 934.5756774210762,415.48049788125377 930.6463550927831,414.2862198002355 930.326406520473,412.58769097390484 927.5854646036773,412.0760681416648 925.8854613599558,414.96887504901383 921.195339661548,416.13661361711956 919.2446854625557,417.6552635226095 918.4750395881175,419.344945844643 919.4658480701377,420.574609942871 922.0151157270193,421.68337181562015 921.9251762666146,424.4567509148652 922.9056638269521,426.7524187817103 920.7353214377372,426.9146046939461 920.0659359454282,428.1767059746235 921.6155486159663,429.49188628112586 920.0054848326704,430.12293692146454 921.8853669972432,432.07653995522776 919.1458994978277,431.3938847064495 917.1053058384098,432.7341301084789 916.1646275474228,430.83065726577513 913.8453690024465,430.65225276231456 913.0742487106281,433.0673484372584 911.7251568042857,433.9284081894972 912.0952355676709,435.4898161991192 911.7841334996632,440.0649333415795 908.9340846964358,441.7885272634426 908.0052017445327,439.75678010833246 907.0438816101804,441.48037403019543 902.5247923283213,442.63336842445676 898.2946888537033,446.3031932931608 895.3635470943736,446.1144678680124 893.6930321983408,440.31116104470425 894.363892108051,439.2540037804001 892.3734286396873,439.45894779676803 891.1732528891271,437.145586921318 890.0438491730074,436.50568977667683 888.983743073927,432.5630976919407 889.1739429164609,430.9161734740443 890.5038673967972,430.0285742088929 890.2635373632091,426.4103539486284 891.7939826077829,423.2786914250768 890.6734253959658,421.0773862708086 890.4935464751146,419.0043554289414 891.3737736533437,417.71571463535156 892.8835770545312,418.3983698841298 894.1338829961456,414.9334890317988 894.0940737267741,413.27919272698546 895.5242585892188,411.38456638858406 898.9743952677159,412.16158434993395 901.8244440709225,410.64146002706366 899.8148131765736,409.98534429119286 896.9942527210349,406.1194219104233 895.3945098594426,405.26720866248684 892.8142794374919,401.48680248998653 891.8529593031395,398.9876650241538 890.5539975878513,399.567111056058 890.2030862504723,402.15323914754015 888.0135764352723,400.57413812930804 889.73422152238,399.7897480810361 887.053730718321,396.8541830695498 883.2924919717954,395.36944476389453 881.3728005378722,395.1910402604341 879.8733180583672,393.9540040752786 878.512430812962,395.83093740507513 877.0527576028495,395.4048307811096 876.7726182998899,393.9879156751134 874.7924757532088,392.1788055449812 875.0431267084796,391.01106697687544 872.3228266350702,391.62442460860404 869.3017454153148,390.6601556394912 865.1114512100683,388.58712479762926 863.7225500343544,388.62103639745874 861.6421471055861,392.12867535392706 857.5919225518193,393.58687414666974 854.8214922873348,392.2481031620256 853.4311166942406,393.65469734633393 851.4214857998918,392.6565167773863 849.750970903859,392.8614607937594 848.3517488064625,394.2695293954479 844.8706493629172,391.8898197377192 841.2509546852725,393.09146990565955 842.5705582439261,398.41559107917703 839.8310907444896,399.98584559310666 834.8696762474457,398.20180055850153 829.6900479775384,400.9589610665272 826.9697479041288,405.3866364705908 827.8602960040406,407.8784018495013 827.1393059032764,409.6270608668915 822.3695656661256,411.20468746773804 817.8195136191976,414.0547362709551 814.2293072892207,415.1900376566116 811.028347148635,414.5250754164381 807.5280802790837,412.6392955823392 805.2383100817754,412.02446353322523 798.417655263524,408.5522105939772 797.3280608167757,406.74310046384494 797.1481818959246,400.8469053453455 798.5680458366865,396.8025784611102 801.0288484505437,392.31592636169 802.6580796598247,390.8739461601667 805.438830845992,390.6778486480961 802.8984096934128,385.95971301939016 803.1077769619318,383.2217199373549 801.817661750967,378.3841565005504 797.888339422674,379.774532093634 794.4573701701829,378.6407051253577 794.9483511590419,374.87061987454535 796.1883361789735,371.5089482390937 799.1180035209229,366.77459401916315 797.7880790405657,365.52133924278826 795.398048461149,365.37537192177706 791.6574515580305,364.30052164886274 789.4178115517763,362.96175066421347 788.8575329458571,360.2915807818424 789.7274392024036,358.67119607685856 792.5981298489965,356.76035114723254 792.2678603549829,356.0275657074001 789.6168578986126,356.0776958984543 788.6172029122691,354.99547353862306 785.8969028388386,354.72270632258574 783.557002450497,353.3397028164243 779.0674015163058,354.2951252812346 777.4470168113063,352.7351916889929 775.0171769625182,351.6514949117761 773.1771040673378,351.6603414160786 773.2464016843771,348.06128858180455 770.8062409139062,348.384185988896 766.1957377542413,342.00585638584016 764.4765670845137,338.41417563848825 763.395819142068,334.33741157180896 763.6258282539734,329.90383849820864 763.0655496480542,327.6686217441055 758.6054370615518,324.9571681749828 754.1659663184148,324.63279635051106 750.7748063352743,325.0338378789495 744.5247510446247,328.14633297651596 739.7948200768454,328.8879649206509 736.7840597787729,327.8824122647811 734.394029199356,328.5473745049544 730.4440650277186,331.03766546647955 730.4735533753865,334.0395792602445 729.2335683554757,335.0112203162795 720.7438730585719,331.70262770665295 718.97309778041,331.94148332285545 717.1934759979664,334.50844398834727 720.9738821704564,333.5028913324775 721.2038912823617,334.8755739169562 719.3033672744236,337.92909231916076 713.7035300500979,339.48017940709485 713.0828003314629,340.3766251765486 716.1436908205687,340.61548079275644 717.5237454919802,340.01834175224735 718.1828100626064,342.4658746096352 717.2627736150058,346.2359598604529 720.474054677295,349.2378736542179 721.4132585508808,351.7709227198749 719.6837669594915,354.2449950901805 719.1736185446266,356.7515046429302 718.7637305118909,364.2931495619405 725.7834316769786,368.3949787241469 727.7738951453423,378.5035843086489 725.5136132957017,387.000651692475 723.0734525252308,389.2609335420999 721.0431797875167,393.57802764236726 718.9627768587272,395.2161053559612 716.0434304384604,395.71150959697115 715.6527098317099,398.36398647073736 713.8834089709492,399.5597389691359 710.5733419439317,400.6508078332748 703.8721149337948,398.27109817554606 702.3121813415531,395.60830038009715 699.6420114591768,394.38895720355185 698.1115662146238,392.70812138582596 698.2221475184149,389.6619750705436 699.8528531450762,388.21262278209815 699.6714998068657,386.1558105314607 697.1413995759691,385.7120108988852 691.5518832733261,386.28408484386193 690.0612472981237,387.64054883711606 690.3517075227659,391.9576429373834 692.8818077536623,393.0840978187374 693.352146899156,394.3285060908098 692.6311567983917,396.8541830695498 690.6215259040428,396.7185366702265 690.2013169496034,394.8666684359571 688.8610715475845,395.1143705564674 688.0309745604094,397.9039682469371 685.3519581737307,400.6345892420502 685.4109348690873,402.4510714591046 684.1709498491766,403.1764848120148 679.1004284657009,403.3209777156459 676.5201980437503,402.1016345391005 675.3111757888877,405.8731942072985 670.8097795156335,407.7324345284849 668.200060745994,409.9764977868904 662.8803628246278,412.47710967010335 658.5794873155903,411.2990501803097 650.7989867803669,413.3897740307817 649.9187596021377,416.5981062583053 647.5788592137752,417.18639879450666 646.3683625415533,418.8082579168761 646.3595160372508,421.25726519164925 645.5485864760609,421.6317672071805 639.1289731862429,418.5428627877609 637.2579375259936,419.3110342448083 635.9987850800768,422.51936647233174 634.087940150456,420.7102563421996 633.9390239946737,423.32144952920885 636.2184732702995,426.811395477067 633.8682519602332,428.33889188686453 628.1976427014879,427.14461380584635 626.2971186935499,425.16447125917057 625.1072638646933,422.71546398439716 621.8075177593586,420.8989817673481 619.068050259943,417.44294741931947 614.7067236381478,418.10790965948763 613.1777528109751,417.7245611396593 610.9867685783947,415.3949816729846 609.2071467959512,414.6607218157666 606.23619576725,414.96002854471135 606.106447037453,412.8943697897664 607.5469528216012,410.93192025170595 605.577131196603,406.7858585679769 602.4159803253679,404.8912322295755 602.4263012470714,403.8163819566612 604.2472067162665,402.75037818804924 613.577319922028,400.8734448582528 617.6467119018009,401.65783490652484 620.5174025483939,401.45289089015705 622.1082989056836,398.96997201554893 622.0080385235752,395.4298958766367 623.9778601485735,392.47811227392583 622.817493667385,389.4496589672483 621.0481928066241,388.2892924860648 617.8369117443349,388.23768787762515 617.407856285593,387.12007950057375 620.9479324244949,382.00974884773177 620.7577325819818,380.8921404706854 618.5667483494015,379.17002096620786 618.2379532727681,376.549981274891 620.3375236275426,371.9955059758064 622.4577358256824,369.8974100384122 624.0972879566671,366.77459401916315 629.4980788341564,364.41257737004435 633.0587968164447,359.37006991686155 634.2589725669839,357.01689977204535 631.8777884918904,354.0061394739779 625.8474213914427,349.0417761421472 623.457390812026,349.143510941641 620.99806261557,350.1077799107592 617.4373446332609,350.71376545557064 615.3672626261751,350.4409982395333 615.7771506589108,348.7601624218074 620.3080352798538,347.9846188778379 616.0867783095591,344.6229472423861 614.1272776062646,340.11123004743865 612.0675165208405,337.9025528062483 609.7069742891126,336.57262832590675 604.8664620175423,337.0842511581467 603.7871884924767,335.5832942612616 607.4260505961065,327.08032920790413 608.0261384713762,323.6434622858658 607.446692439493,320.9909854121049 604.3961228720487,317.36686748230386 601.5460740688422,316.12245921023145 597.1567335167593,315.01369733748754 593.2156158494033,312.25948566422755 590.5660878104134,308.6353677344265 585.3554967754579,303.1608559877466 583.584721497296,301.91644771567417 580.2245242792244,301.5581642913676 576.065192839047,304.9950312134059 573.7945900677447,304.36398057306724 571.4340478359957,301.6259874910319 571.3441083755702,299.6915518832642 573.1841812707714,295.4098438002119 571.7141871389553,292.7676878481336 568.0650041136219,290.1078388874505 566.8943167107504,288.163082357995 566.3045497571635,285.34104748507605 565.5437503870278,276.960459074583 564.7637835909069,274.5822238342397 562.3840739331938,270.3786598725395 562.0434835174974,267.3870670004625 564.7947463559759,263.6523677668649 567.7937113149857,255.07715626169204 565.3741923878802,255.8276347101346 563.4943102233075,255.00048655772537 559.6431320163771,255.03439815755485 557.4831105488656,252.89501853341415 557.2044456633074,251.66682885256637 558.8041885248996,248.43638036428672 557.7942126168944,246.8263165809908 555.843558417902,246.3058472444485 554.1730435218484,247.01356758875386 553.2928163436193,249.01582639618573 551.6429432909518,246.81747007668844 550.333660654002,246.5535493649587 542.1830813554143,247.5502555165209 537.4723178136202,249.80021644445787 533.5621629113332,250.18503938167692 530.3715236924093,248.7607521887585 525.0120165016715,249.4080214203217 522.9109717295169,247.39691610858733 523.1409808414222,246.10974973238308 525.4720347254823,242.48710621996736 525.371774343374,238.8393976120193 526.8918986662443,238.2599515801204 528.9914690210188,239.4866668435826 528.2026557205954,236.7088644921863 528.7924226741824,235.41285161167423 531.1824532535992,235.3538749163124 531.4021414438008,233.282318491836 529.5915568962884,231.8668778032253 530.1827982672555,230.57233934009878 532.792517036895,229.54024717131642 531.2119416012879,225.84978045924163 531.2517508706384,223.55706142716747 530.2417749626331,222.45862047610626 528.1318836861549,224.00970756404558 526.8314475535074,222.78151788319792 526.4112385990682,219.55106939491816 532.7821961152123,210.40673277952897 534.8920873916695,208.2776740770762 540.9121335704135,206.66613587639483 541.7127422099209,205.31114630052616 541.142142682319,201.62952609275385 542.9630481515142,199.62726728532198 543.1827363417368,197.88008268531212 540.2722364257725,190.67165609508118 542.8229785000553,186.0876924483183 543.9627031378577,182.10823992898167 543.822633486378,180.62645045808688 541.9427513218261,179.13434006550938 538.8228841373427,178.61534514635252 536.512472096648,177.06425805841332 533.7730045972324,173.24699145131774 533.5621629113332,171.11793274885963 535.5231380320081,168.3401303974581 539.7325996632397,166.59294579745347 541.332342524853,164.78678450209213 538.3525449918493,163.75616675069534 534.852278122298,164.88114721466388 533.2717026866909,161.06388060756296 532.3324988131052,160.092239551528 527.191205395189,158.3465293689087 524.7923283114699,158.79770108840137 521.6016890925459,160.73213669616905 518.141231492387,165.8011836622644 515.3118245325459,166.44845289382772 510.02161495884747,165.4768118377874 507.7701796135302,166.63570390159066 506.38127843781643,168.70578590868683 501.890203086245,168.76623702142888 499.46036323747774,167.81228897399876 493.42999613702995,167.7267727657296 489.009692819878,166.40569478969053 487.38930811489945,167.05296402125384 485.92963490476603,170.54585880388288 482.2996193054386,169.0729158372958 482.4691773045862,167.4112474455602 480.2088954549666,167.05296402125384 476.5892007773219,168.39910709281992 476.6584983943611,170.0180173804182 474.92900680297186,169.7364036600785 475.20914610591046,168.50968839661618 471.338800472995,167.13848022952288 467.73827322133536,168.1101212855632 465.3880519112901,170.98965843645328 466.2579581678366,175.54708257030882 465.5089541367638,176.7236676427168 458.83721547431566,176.96252325891953 454.14709377588684,177.8309550980805 451.11716605182903,177.31933226584056 450.38732944676235,178.7598380499835 452.23772326364633,179.33928408188262 450.2177714476148,182.10823992898167 448.80675401115525,181.13659887294148 449.15766534853435,184.69879127261504 450.287069064654,186.06999943970823 448.54725655158205,186.78656628831607 445.5571380968747,186.4961060636739 443.46641424640273,185.31214890434876 444.0370137740045,181.46097069741836 441.4774251954402,179.927576618084 442.337010530283,178.0875037228932 443.9072650442074,177.29426717031345 447.0964298457511,177.30311367462116 448.2376289009337,175.10475735511852 446.8664207338457,174.09920469924873 442.16745253113544,172.63363381958402 439.1773340764491,171.19460245282642 436.9170522268085,174.39703701081316 435.8657926320515,174.50024622769251 433.38582259220914,171.42461156472655 433.47576205263476,169.08176234159816 432.7061161781966,168.68072081315972 429.02597038779413,173.68194457958566 427.3259671440726,173.40033085924586 425.2263967892981,175.91421249891766 422.8850219835553,174.32921381114897 420.36524267436243,174.12426979477596 419.7961175641409,175.78593818651132 421.0862327751267,177.15862077099007 420.27530321393687,177.98429450601395 416.6452876145885,178.87926585808225 413.8055597330646,181.11153377741425 413.4546483956855,178.624191650655 411.7649660736467,178.18923852238697 410.1755441337372,180.66920856222407 408.5743268547438,178.7598380499835 410.2345208290938,175.6665103784128 409.9352141001491,172.40362470768378 407.0748443752389,172.08072730059223 410.8346087043634,169.24247383644865 412.9754627458896,169.85583146818237 413.4546483956855,168.66302780454964 411.1044270856403,166.4145412939929 411.62489642218793,159.23265421667463 411.2651385804854,158.4055060642653 407.1942721833533,158.3214642733817 405.7345989732199,157.4604045211429 405.06521348089,154.68260216974124 403.24430801169484,153.20965920315416 402.7548014402162,150.23575933968198 401.06511911817745,148.9323743722531 401.9940020700805,147.28102690220544 397.6046615179976,145.9422559175615 397.1446432942078,148.10670063722932 399.1144649191852,152.64790617986012 397.49408021420663,154.51304417058316 398.17378662821915,155.98598713717024 394.1442039178178,155.7309129297431 395.76458862279634,153.1079244036605 392.9440281672786,153.32024050695043 389.853649330463,155.74860593834796 386.5037730340742,154.402462866787 383.0329945122117,155.0836436981798 383.32345473685393,152.7068828752167 380.1829457090051,153.32024050695043 377.62335713041983,152.01685553952154 374.21302972129416,154.45259305784123 371.5222179955525,153.9852027471187 368.2327928119215,151.55683731572128 366.61240810694295,151.08797258761842 363.6724198432898,147.92829613376875 360.7324315796576,146.34329744599995 358.67119607687437,146.99941318186575 355.2711895894314,154.35085825834733 353.0610379308659,156.84704688940906 349.38089214046335,156.9664746975078 347.3108101333777,155.62917813024922 344.67160301607043,159.79440723996356 344.31037075698765,162.73439550360615 341.5812241792548,165.06839822242682 341.2214663375733,167.50561015813196 339.3401097556203,171.06632814041996 337.47054851275124,172.9152475399237 338.35077569098036,174.67865073115308 335.22058758481427,176.29756101875137 334.9109599341869,178.14648041824978 331.22049322210165,179.53538159394805 329.0000206418326,178.80259615411558 326.0998416475719,180.4215064417191 326.59966914073317,182.14215152881116 324.0194387187825,184.2549916400393 324.37035005618253,188.14155586418985 325.11935408723434,189.6321918393819 327.5005381623486,188.10764426435526 329.99082912387365,191.26879513559027 329.93037801113684,192.71667300665035 332.150850591385,196.2449538064891 334.07054202530827,193.17669123044539 334.0808629470119,199.7643881020308 336.45025168304227,200.94834526135583 336.5505120651506,203.5728082048239 337.96005508422985,204.74939327723212 338.3610966126631,207.22936331707444 337.52067870380534,209.48669633193367 336.2099216494542,209.61497064434002 335.60983377418455,207.94445574829683 333.89066310447794,209.15495242053964 334.8903180908006,210.73995110830845 334.9404482818547,213.72269747607777 336.75103282936726,214.81376634021672 341.7507821784234,215.3666728592084 343.79137583784126,217.80535921229387 344.3413335220567,220.37821754732227 347.27100086400617,220.48142676420161 344.6406402510014,222.14309515593698 343.1308368498138,228.77355013165447 345.2009188569205,229.90737709992538 341.761103100106,233.64797400305952 341.63135437030894,237.1261246118495 341.02094557335664,238.20834697168073 339.5111421721691,237.88397514720896 338.041148040353,239.1976810363259 336.9810419412726,241.72040918030018 339.72050944068815,244.88303446891553 341.840721638849,246.0669916282459 341.4809637971465,248.77844519736857 345.89094619261573,252.30672599721277 346.9407313699925,254.70265424616093 348.0008374690729,253.39779486134637 349.5607710613146,255.34107697342165 344.9709097450151,257.18262428600326 344.5610217122584,258.6658881742783 343.61149691699,257.4893031018702 344.42095206079966,255.1877375654883 342.8506975468543,256.22867623857303 342.15034928947637,253.55998077358754 341.5414149099043,256.1343135259963 337.3009905136036,255.75981151047029 336.95007917620364,254.08782219704688 337.8701156238042,251.38668954961213 335.3901455839619,251.24072222860082 333.1298637343422,249.02467290049333 330.4007171566094,249.64687703652953 331.9606507488511,250.91782482150927 330.3004567745011,251.7272799653084 329.6399177864946,253.48331106962087 330.54078680808914,255.56371399839975 333.16082649941126,255.7082069020306 331.7498090629518,257.0543499735969 330.7103448072577,260.0297242544492 328.6903929912052,262.2796851823862 328.320314227841,266.66165364755216 330.7398331549255,266.7132582559866 330.95067484082483,267.84708522426274 327.3103383198147,269.5515117201302 328.4707048010034,270.27692507304573 331.64954868084345,269.1519446090772 333.81989107003744,269.02367029667084 333.9407932955321,271.2397196247782 332.93081738750584,272.9957507290907 330.0999360102844,274.3006101138998 331.30011176084463,276.60217565028165 334.7399275176381,276.6537802587213 335.7410569213619,277.5664446193997 334.800378630375,280.4046980835434 336.1111356847261,281.8112922678516 338.79015207140486,280.4135445878459 340.9604944606198,280.46514919628555 341.7109729090519,281.7773806680169 339.0304821049929,286.50878605318167 339.7603187100596,289.17748151816727 338.69136610667675,290.26117829538396 336.2703727621911,290.2095736869443 333.8007236440523,288.80297950263616 333.03992427391665,289.70679735901206 336.11998218902863,291.60732136695015 336.3706331443203,293.27931068037356 335.10115977672086,294.4470492484793 329.9097361677505,294.25095173640864 328.9498904507784,294.5664770565779 328.0106865771927,297.0479215138006 329.6708805515427,297.82346505777014 328.6107744524832,299.3922451543143 328.7596906082445,301.7881734032678 330.26949400943204,302.78635397221535 331.73064163694573,301.12321116309954 333.3996821156191,301.7542618034382 335.16013647207745,304.1590365566941 338.29032457824354,302.26588463567293 339.5509514415406,302.58140995584745 342.240288749902,306.74221581341055 343.91080364593466,305.7528817487654 345.92043454028357,307.3909594623593 346.7416850231561,312.6693736969738 350.620877160395,317.9905460357254 351.38167653050976,321.5542128527793 350.522091195667,323.8572528065414 347.42139143716867,325.22993539102015 349.391213062167,328.5385280006519 349.7318034778634,332.53862236336465 348.3414278847693,336.3765308138361 347.1412521342091,338.37141753435105 345.2510490479747,339.5922351282767 341.0401129993418,340.6582388968884 338.36994311696554,345.8776764361463 332.1405296697023,349.00786454231775 329.7298572468993,350.6194027429939 328.3498025755088,354.22730208157043 330.2400056617642,357.6907085165212 328.51936057467736,358.5267031732328 323.64051345111585,355.2844593458798 321.1502224895908,354.8922643217438 316.2993892963169,358.0312989322175 314.30892582795315,363.55888970472256 314.479958244502,368.2416393162134 315.7995618031556,372.8565657280452 314.9296555466091,376.15778625075495 317.93009492299905,379.774532093634 320.32897200671823,381.3197215120365 322.5597655086491,380.4837268553248 324.2804105957569,377.41251544451006 326.43011114158554,376.8831996036653 324.2700896740533,381.8741024484085 324.85985662766115,385.7120108988852 323.659680877101,388.0165252700275 324.71978697618135,393.7829716587403 324.5693964030189,395.04507293941765 317.74874158476763,403.90189816493034 317.39930466476875,407.1264489836733 319.1995682905776,410.437990428071 318.41960149447766,415.7355720886809 319.6993957837599,417.5107706189784 320.1992232769212,421.88831583198794 320.14909308586704,425.95918222913576 320.57962296198906,428.0322130709977 316.7697284418104,435.2848721827461 313.9594889079543,438.07594429060646 305.7189701489411,443.3587817773722 302.3779403568756,443.4177584727288 302.8984096934023,440.9687511979555 300.9285880684249,440.4232167658861 299.11800352091245,443.33224226445964 294.6682118560927,441.48037403019543 293.1274456898361,441.4730019432732 291.3183355597039,444.00752542632097 287.88736630719194,447.44586676573954 285.31745680694485,448.8200237675984 283.8577835968115,448.5133449517316 283.26801664322454,443.9809859134084 282.32733835223763,443.20544236943886 278.1267232253084,443.3499352730697 275.46687426463575,442.72625671964806 273.5368619090089,443.33224226445964 273.0267134941648,445.48341722767384 270.53642253263985,446.0127330685186 269.85671611862733,443.01671694429035 266.3358074057106,444.0753486259799 260.3467239920146,443.05947504842754 257.6854006139407,443.4354514813389 252.71513961257335,447.34413196624564 249.45520277661018,447.1730995497021 247.9159110277548,447.94127100675473 244.86534146031067,453.23295499782284 242.29543196006364,454.2989587664348 239.2949925836737,454.13677285419897 238.09481683313444,453.36860139715156 238.27469575396472,448.7610470722418 235.7047862537177,448.3673776307203 233.8145831674623,449.51152552068436 232.09393808035446,453.1135271897243 231.23435274551164,453.80502894280494 225.66400386887466,454.0261915504027 225.01378580252995,456.9455379706643 222.78446671797934,459.3178755414708 219.36381838717097,459.155689629235 217.99408463744226,455.4607996650037 214.22399938663506,453.6074570133542 211.05252759371723,453.215261989218 210.19294225885344,453.7534243343654 211.56267600856123,457.2094586823939 211.6437689646844,458.8313178047632 209.76241238275236,458.2857833726938 208.91314796957127,453.6767546303986 208.05356263472842,453.8212475340297 207.90317206156598,460.26592591936435 204.49284465244034,463.3548303387839 203.32215724956893,462.28735215278664 202.7618786436498,459.76167517404656 201.0618753999283,461.8863106243481 201.98191184752895,463.7897834670571 200.7227594016122,467.6483337609045 201.34201470288787,474.6562395869188 202.14262334237412,475.90212227637664 204.32328665327177,476.3031638048152 205.9023876714986,477.8144416233829 204.4132261136974,479.0087197044012 204.28200296652005,482.3468006617113 205.02216049326944,483.59268335116406 203.88243585546707,485.0951146654345 200.36300155993064,486.06823013885514 202.07185130795457,487.8345821648501 200.51191771571285,488.58653503067296 194.97253160412396,488.19434000653695 191.31155323972752,488.2872283017282 189.90201022064826,489.1246973758254 189.27243399771083,492.91395005262825 190.31189825340488,494.9796088075732 198.66299831620915,503.7052108859086 207.4328329160725,509.24607141487263 209.132836159794,511.9265622189315 209.05321762105106,515.2985547760712 207.40334456838372,522.6323068439427 206.25329900889867,525.3393371609143 206.09258751403254,528.5668368144229 207.15269361311294,530.9922534110599 209.0030874299969,532.8795076625391 209.0030874299969,534.228599568871 207.49328402880934,537.2423087017095 205.18287198813556,538.7963446244145 201.35233562457054,538.4719727999427 198.93281669748603,536.7041463565622 196.26264681510975,533.9971160395907 192.212422261343,524.229100870785 189.32108977136377,520.5917131845301 186.5521339242804,518.3048918219874 175.90094274246408,510.60253540812664 169.06112049822764,504.88327037570224 165.35001194277703,501.4508267058205 158.80064992318282,496.20042640149876 155.54955959152207,497.23399298766134 150.9095680841684,500.65759015324073 148.34997950558312,501.9034728426986 142.43904021324974,503.04762073265744 140.22888855468426,502.94588593316365 137.21812825661158,500.55438093636667 136.1786640009175,498.2675595738293 135.2379857099515,494.2202838548282 131.99869071735367,485.5993654107523 125.74863542670414,472.72622723130246 123.07846554432787,470.6531963894405 120.74741166026776,469.9263086191395 118.42815311529152,470.23446185239186 116.0970992312314,472.1113951821832 112.58651143999742,478.39388765528724 111.87731667831706,487.26398263725355 109.84704394058187,495.0223669117052 110.23776454733242,496.4407564350869 109.44747682952887,499.2834331513817 107.85658047221813,501.2385106025252 99.49663390511144,506.40339469857776 92.73643019959695,509.43332242263557 89.35559113816007,511.38839987378424 86.76503979452673,514.7692389352264 83.18515438623251,520.8143502095081 80.7951238068158,524.1951892709502 71.64488952190554,531.6749086598381 61.68372567578446,537.5578340218788 57.01424582076297,539.7871531064451 53.62308583762244,540.683598875899 49.24406620722223,539.6338136985116 42.27302081580845,538.9408375280454 39.46278128197335,540.4535897639987 37.99278715015726,542.3659091110103 36.773443973611954,546.7464031587855 37.36321092719887,551.7166641601528 36.24265371538162,554.2526620605809 37.99278715015726,559.7699319113979 42.523671771100176,567.7539020455985 43.75333586932818,569.3167844726111 53.334100030360446,570.3931091629057 55.9143304523111,571.212885228398 56.42447886717605,572.3157494316051 55.29360073365515,573.7931156503435 52.203221896860505,575.5432490851191 49.62299147490985,578.6778604434417 48.70295502730922,581.9407461141653 50.553348844193174,584.6993810395766 54.463503746480136,587.261918452917 53.74398806311708,590.2947950117458 49.62299147490985,592.7880348080419 49.213103442174166,595.9919437834089 51.264018023274744,602.8759985491681 52.95370034529259,605.2851965545751 54.74364304943969,611.1120940560302 54.33375501670401,613.5979617654039 51.65326421264504,617.5523491892136 47.322900355918755,621.7986712550457 46.40286390831812,623.9085625315081 47.14302143506751,629.3078789916121 48.683787601324084,632.6916668878251 48.93296413921461,635.3913251178744 50.553348844193174,639.57867048835 49.273554554911016,642.4066030308056 46.75377524569721,645.9098187351227 42.43373231067456,646.7900459133518 37.59322003910427,648.3190167405298 34.912729235045305,648.4635096441608 31.512722747602336,647.5066127619597 24.612449390608077,646.7974180002741 19.811746388409254,645.1239542694652 15.841140373364489,642.8843142632109 12.940961379103774,644.0033970576479 8.940867016391184,647.2087804504005 5.641120911056524,651.1218841874584 3.7700852508071914,656.7954422809798 2.040593659417883,659.7693421444469 0.0,662.0414193331451 10.281112418431144,667.9390888690301 18.101422223005077,676.775272251167 29.591556896277893,687.4751192066415 49.45343347576225,698.235417274858 60.58381030735354,702.8252785911628 69.22537059480004,704.2525146188418 77.17542912917106,704.9794023891427 83.81620502657115,708.0049068610492 91.64536133546848,710.4155792838419 99.92716378123345,711.8251223029158 106.74634418208358,711.8177502159989 115.74766231123256,713.9541810053738 118.13769289064928,717.8009359601531 119.03708749486358,721.5710212109655 116.61756856777903,723.8268798084391 114.8969234806712,727.1266259137685 111.32735899408064,729.3235078158805 103.98623483930264,731.3419852145369 99.98614047659005,734.538522102987 97.82611900905778,738.4973327789479 98.66653691793643,743.2847660247036 102.5663708985407,747.5340369253067 103.71641645802578,753.3565111746052 105.60661954428119,759.5461153525126 106.34677707103059,765.6767428350635 108.75744949383363,769.5249722072281 118.80707838297913,772.7318300173662 122.23804763547018,778.315448650462 123.39841411665888,784.1393973171461 121.45808083934932,790.4764432334555 116.30794091713071,793.9560682596257 106.47652580082767,799.2330080768546 101.71710648535961,802.3971077828555 98.48665799708519,805.2795937685219 97.89689104349826,808.6412654039736 106.13740980251151,816.501384477919 110.66682000607418,816.7240215029021 121.86796887208502,813.8842936213731 134.19852145423647,814.1570608374052 137.21812825661158,815.4840364829811 140.02836779046763,814.5861162961418 141.44823173122955,810.5830730986634 144.61970352414738,809.2575718704732 146.8991527997731,809.7190645116536 150.48935912972908,814.2175119501526 155.6999501646845,819.1096288301677 161.740638186815,822.968179124015 164.3002267653793,823.762890093975 166.8303269962758,823.5490995732995 169.40023649654376,824.1816246310236 168.58046043105145,829.6915223949238 169.46068760928063,834.6603089789057 171.38037904322482,836.5682050737607 177.26035557048917,838.0735852227971 187.6712167187174,839.7426257014495 190.35170752277637,841.4706428754638 190.6421677474186,845.8585090101612 191.25257654437092,847.8003167048511 194.33263445948288,850.7860119073914 196.97184157679013,851.0764721320336 199.12301654001996,850.3672773703428 200.66230828887532,847.5437680800435 201.56317731049083,841.6151357790948 202.5318695317444,839.5715932849112 205.36275090896584,836.3293494575581 207.08339599607368,833.5235331758638 212.20257315322326,831.5050557772072 217.3232247277531,830.7855400938284 221.61377931510793,830.6145076772901 226.1240220926645,831.359088456196 229.1834381644111,832.659524588854 230.6136230268557,835.6024616872623 232.14406827140863,841.7611031001061 232.13374734972595,843.5141853696474 234.0844015487182,845.4486209774203 242.77461760983863,847.5865261841755 249.42571442894234,847.6042191927856 252.38487011855963,848.990171533718 262.71611272804495,852.5656336898453 274.4672192782922,856.0909656549185 278.96714113418705,858.4087497825196 290.62830822400866,858.716903015772 296.3284058304427,858.5620891904531 302.2187032793898,860.7530734230335 303.8390879843893,861.8220260264163 305.0083009698595,863.7476151298815 306.11853725999407,867.365835390146 306.08904891232623,869.8133682475338 305.27811935113635,871.9439013673721 300.8578160339844,875.8201446698295 299.30820336344635,877.7884918774319 298.3188692987855,881.1162519130542 299.3686544761832,888.2096739473376 301.8191361683368,895.3886121898902 305.798588687684,899.120362588722 309.1691068274382,901.4307746294062 312.17839270810964,910.7151808962699 313.09990357309056,922.021013396556 314.1393678288056,926.0609170286348 319.1700799429098,940.9363140155167 317.12948628349193,950.5244502634764 316.2890683746342,957.2094586823991 318.0598436527752,959.5036521318588 323.9899503711147,963.2870071391301 329.6104294388058,965.9674979431891 332.47079916371604,966.7120787220949 337.9910178492989,965.8038376135677 351.46129506925274,964.9486755308657 351.9021458670574,965.0769498432668 359.82124163635945,962.1399104144003 375.97348407777343,958.5703459278045 382.8029854003272,958.2444996859473 389.2240731075046,959.1011361860349 401.0149889271233,962.9965469144879 403.0142988997895,964.8115547141568 403.71464715716735,967.7559662299454 403.2752707767429,970.4364570340044 400.5048405122793,975.8121828159615 399.3739623787584,980.48608592315 399.3739623787584,984.9049148229059 400.32496159142806,989.3989390092484 404.3044141107543,995.2818643712941 409.69488406656103,1000.0 436.5867827327948,989.0996322803036 449.07657239241115,983.5425531601203 451.2469147816262,981.2056016065235 453.41725717082016,972.8928363957 456.367566356156,968.9885791629445 458.0985323649465,967.4301199880882 459.84719138232094,967.0792086507039 464.9678429568508,968.1068775673298 469.2982068135771,967.3195386842867 473.46933359283844,965.5812005885898 476.3282289003475,962.5851844643563 477.11851661815103,957.9967975654422 477.11851661815103,954.2812657578352 475.8991734416057,951.6789190751284 469.38814627400274,947.1937413930884 469.11832789272586,945.3713615065026 470.0884945313806,934.6376029511932 471.468549202792,931.3422800980203 473.89838905155926,929.6983047148897 480.0688258034868,927.9525945322705 481.8086383165798,924.7427878873667 481.62875939572854,921.3707953302218 485.2794168384423,906.7711143941482 487.10916881193987,902.1842019126144 488.06016802460954,898.6323304346288 487.61931722680487,896.2024905858458 484.84888696232025,890.580537100764 484.0689201661994,887.9870369223596 484.84888696232025,884.0429704202379 487.79919614763514,877.1972505064595 486.04906271285955,874.1776437040896 480.14844434220885,871.6696597339544 477.9088043359755,868.3846578024694 476.68946115943015,864.4921959087874 476.4284892824558,861.027315056451 477.0285771577463,859.126791048513 480.2398582200147,853.3190609730536 480.0791467251695,851.0691000451167 478.5988316716707,848.2971953632518 474.9584951506397,844.6701285986796 471.658749045305,837.7919715024573 468.3486820183086,834.6780019875106 467.04824588564014,832.3425248513045 467.30774334521334,830.6145076772901 468.70843985999016,828.357174662431 475.99943382373493,820.0340885299142 477.9088043359755,816.825756302396 477.9884228746975,814.226358454455 476.5995216990045,808.7783862206824 477.03889807942903,806.4340625801686 479.9892072647439,801.9695267415045 488.75904186460724,782.0354037102204 491.70935104994305,779.1366991333347 505.0808423051688,770.0985205695956 518.0218036842726,760.1196637148802 518.9713284795621,755.3572955646516 517.931864223847,749.9019512439621 517.931864223847,747.9100133582181 520.1921460734876,745.225099302008 522.8711624601453,744.1826862115377 532.0715269361307,742.6094828628422 540.0628691572534,739.6090434864627 542.5826484664672,740.3860614478126 546.4736359427691,744.0971700032685 552.2135428185536,750.3295322853131 556.113376799158,750.4062019892798 570.415225423667,745.713131456101 572.9246838111982,745.7986476643703 577.9642424296048,743.9349840910327 580.9956445710429,743.2420079205664 587.3253184004353,743.7551051701865 592.8661789294046,746.4400192263968 601.6168461032618,750.2867741811812 607.5071435522298,750.552169310291 611.1474800732608,749.4227655941713 613.7365569995139,747.2597952918891 616.9566845661057,741.3694978429211 621.1071695019807,736.1810230687322 623.3571304299177,735.6590793148043 628.2979030835962,736.0955068604578 636.4278405388185,736.0173627391108 637.9789276267578,737.4888312883124 639.5388612189995,740.5231822645267 642.1382590669353,744.0721049077414 644.2894340301442,745.7219779604035 648.4487654703217,746.4223262177918 649.6695830642473,744.9523320859705 651.5597861505025,739.7623828943962 655.2797412102557,736.9919526299168 659.2503472253004,736.4803297976769 680.7812642834164,737.1718315507576 682.6817882913545,738.9072208116941 683.1108437500963,743.5840727536482 684.3213404223391,746.0979543933202 687.8614165612408,746.7983026507034 694.3414809637958,744.9095739818385 697.5321201827197,744.7473880696027 699.692141650231,746.0979543933202 702.8827808691341,748.9612729529908 705.4025601783478,750.527104214764 711.5228667392212,751.4928476012676 713.85244620588,752.4497444834634 716.2734395503658,752.2875585712276 719.213427813998,751.1670013594103 726.2832591701399,747.4662137256424 732.5834446518436,746.6198981472428 737.6849288003883,746.8926653632801 743.2051474859711,747.9527714623553 751.3159175152082,748.3199013909643 759.3455945883012,743.1048871038577 764.9660736559923,740.086754718868 773.5058991439503,739.4203180613143 778.5174438320695,739.6945596947319 781.2775531748714,740.3093917438512 784.4770388980768,743.2670730160935 787.067590241731,748.7312638410907 788.696821451012,756.5279829675283 789.2969093262816,764.060781382231 789.2172907875596,766.6601792301719 790.4174665380989,767.9606153628351 795.0073278543985,769.4055443991294 801.7277222905414,773.056201841838 803.8980646797563,775.7765019152631 808.9081349504742,773.056201841838 812.878740965519,769.4571490075639 814.4283536360571,766.90050926376 816.3598404090642,759.7775988817982 813.278308076572,755.9293695096336 814.7984323994423,747.6283996378784 817.4391139341298,742.7716687750781 819.8586328612353,741.0539725227518 826.3195298377841,739.780075903001 829.1194484499574,738.6418256825789 832.4501573203402,736.1456370515173 834.6603089789056,733.496109012522 835.990233459263,728.9991359914086 836.7303909860124,719.0998976754308 837.7904970850926,715.4507146501026 839.6202490585904,713.0562608185346 841.4706428754743,711.8516618158285 844.2101103748898,711.2191367581044 846.5603316849351,711.6128061996259 848.7704833435216,713.3732605560895 852.8811590100252,714.4834968462187 855.4510685102931,713.5782045724573 857.2616530578056,707.8427209488134 859.0117864925812,705.4571136215479 861.2823892638836,705.2447975182579 863.4424107314159,703.5521663614586 865.201390670473,699.0124352362133 870.9619393896648,693.4995886375473 871.1919485015493,690.0553496285922 869.3120663369975,686.6464966368467 862.0520351383217,675.37310131901 860.4419713550259,669.8691012246466 860.362352816283,665.1775051088532 862.8718112038141,654.4363744666218 862.1626164421127,651.7706278364071 852.1410014832758,648.728904773276 849.5814129046905,647.7041846914158 846.9407313700029,644.7479778365537 844.1909429489048,640.9616739945167 838.5807848028962,637.3478769864034 838.5911057245789,635.5962691342476 840.2409787772463,633.6824753698506 845.1611095875595,630.2146456827538 852.3710105951602,622.3029220003634 853.7908745359431,617.9460186307299 855.7017194655639,614.442802926418 857.4017227092854,609.5138256118024 858.641707729196,600.6304608733824 859.7018138282765,597.059421969401 864.371293683298,594.2919405396874 868.7222993834106,590.0043347871035 871.9719152976702,590.4304414110691 874.7821548315262,592.2764119758019 877.4228363662137,596.8028733445935 879.902806406056,597.9470212345524 886.2339546528287,599.1265551417315 890.2532164415264,601.4325439302593 893.6635438506522,602.5604732289987 896.6934715747099,602.6032313331307 902.0043229917737,599.8180568948122 904.7541114128719,599.6897825824058 907.2252349484118,600.6643724732119 912.6746815995751,604.3032345768522 916.3253390422889,607.7032410642898 919.5557875305633,608.7530262416772 925.8662939339497,607.1311671193079 929.6054164197088,605.4739219797236 932.306549067154,603.6544909279035 934.1554684666369,601.3381812176877 936.0663133962786,597.5887378102459 939.0667527726476,594.710675076736 945.2769987939257,595.2399909175808 946.816290542802,596.1113715915076 949.5365906162324,595.8725159753051 952.6977414874675,593.3954947702337 957.6178722977598,593.7788432900672 960.3381723711902,595.9064275751398 961.1579484366825,595.5392976465307 959.5876939227583,591.2590639808639 959.6083357661236,589.2862935211103 962.107473231951,583.4520239327384 964.8484151487678,579.395901709435 972.0981254257399,561.8532836749478 971.809139618478,558.5476399000869 966.8374041997303,554.6713965976294 963.957867048835,551.1608088063954 964.8277733053815,548.8548200178624 966.6073950878459,546.4898545339727 963.6482393982077,542.62982982274 960.4576001793047,539.5645160814619 959.6083357661236,537.3705830141158 959.727763574238,534.6723992014468 963.0083422535665,528.4046509021871 970.6487731373103,526.8255498839551 973.1184222554489,525.4926765688477 974.9083649595959,523.3075900058041 976.9784469666816,517.9628269889056 977.1686468092157,515.5978615050211 979.169431199262,512.3187572430676 976.457977630155,507.9397376126726 976.4786194735204,506.6673154103074 979.968565421389,505.16488409604204 981.9988381591032,502.7232489081857 983.6590321334533,501.6395521309689 981.5196525093282,497.79722042834095 981.9487079680491,496.49088662614105 984.0792410878926,494.43407437550377 987.3789871932272,494.61247887896434 989.9090874241027,493.2471683814077" /></svg>