<?xml version="1.0" encoding="utf-8" ?>
<svg baseProfile="full" height="1024" version="1.1" width="1024" xmlns="http://www.w3.org/2000/svg" xmlns:ev="http://www.w3.org/2001/xml-events" xmlns:xlink="http://www.w3.org/1999/xlink"><defs /><polygon fill="black" points="201.7353303961438,132.7294028703078 200.0518112147597,133.6459903335748 194.4635388831614,125.92753735877841 190.67359552513463,124.05205822634389 182.20584580732677,123.51146618426094 165.31830768377918,126.96120562898716 155.08407890319955,134.31257316077483 141.88351609704804,139.94545283431523 133.9984129360222,141.11361554815278 119.94341368425128,137.66255076942957 112.58989242037347,137.12206638735506 92.04715938071689,137.06762144985282 88.63899580798473,139.8363793436846 88.32179499309292,141.23005792740958 90.5526058471906,143.26334465002367 94.60115803403694,143.27575083303043 95.34576470756144,148.6152356737457 91.41124285198524,161.09119363803995 95.13819728764139,178.2836384775619 92.36446253676897,188.79471295679343 89.41220424268235,190.85170702333403 88.14105799321116,192.25545637349717 88.0795576870886,197.54374169892412 93.33699482180009,202.07058751278078 94.81159217773858,205.04874022436707 93.89705722860178,207.24289853023117 92.30837196839062,207.5847178126363 84.71728846970574,204.47679705350026 81.03239139448182,204.4975322945711 80.31257944982691,205.7895964733674 81.55852338037771,208.8640340337829 81.39864509130965,211.75686130738666 80.37111739293128,214.88155963700933 80.2503800540018,219.95567793408634 80.69013073771528,221.64196552625936 81.96536891314473,223.27663566315925 88.43381349223769,225.28807354199841 90.68322372803769,226.90113156992106 91.05453152157514,228.7601783515721 90.17238288892428,229.97299913800884 86.4063107300707,232.782682641419 86.1151796234167,234.13709185891946 86.84130161223626,235.57948300085525 89.40299674428948,236.38183953002908 90.44514698455704,237.90009118799162 90.25886049470787,239.59746394057584 89.22797941878235,241.34668049214235 87.03592757565717,243.558017799735 84.67001905300299,247.11285469754432 83.26112375147224,247.5196689614205 81.94530486545611,246.20355176171756 79.94566694527384,245.35830333059153 78.66276766205009,241.84547540786286 77.1318047005126,240.40978566600518 73.43947555512814,238.48039518653945 70.50608311156287,237.3297298635149 66.2430340023113,234.63663146055546 61.81045861602054,233.0714098158062 58.53423864648917,234.21525053726418 54.604833042265696,237.7406089376135 49.992309048332764,242.29185670453398 48.010326555166074,243.47892200989781 47.46820404342042,241.96056474823558 47.60572837656647,238.02694006786146 45.59952213263587,235.22314487260792 40.367883639897364,231.8575171336172 38.149679711990245,232.4779029936352 37.580625207273144,234.99015216986368 38.183781858990194,238.05954205816124 39.16087229726847,239.92747136932178 41.100703003762284,242.07813656623614 41.75131214517436,243.69909139507706 41.37795764628256,245.44193203688542 36.37964768344893,248.19485511670962 36.13551423433196,250.16135291398632 39.91800448938576,250.4348222727159 41.976058091733,251.16589071592807 43.10834468309284,252.68236878093126 45.895604743943075,255.3143750645412 46.280889264804856,257.00190873647875 45.226033780118485,258.9143880707751 47.31685565281327,261.0313153131326 47.3628513755002,262.7152435467415 46.43843884699001,265.42037561277766 48.03008174194508,267.1504942008554 48.505572186705244,268.82499686729375 47.78865224468369,270.3709831839067 46.030589643723445,270.7465389965606 44.370857552190245,270.34651177185765 42.64869569841687,270.8124056586456 43.054391361009024,273.018787094771 45.412298201589294,275.14093162002644 48.38686562553017,279.6995864614373 53.21432124628741,283.35019364137054 55.0930664364212,282.6984786239716 56.57650863430597,277.1304384739898 58.46061612680092,273.53683088554806 60.58979033968521,272.1420483230264 62.204060086021535,272.01537776560804 63.08077832794844,273.00704935033025 62.539519451535035,275.13204667178 60.73389160423209,277.4588774571448 61.12107450504562,279.2264549739042 66.30486516042541,279.1234048190703 66.69635862115332,282.7277466998494 65.04202578553263,286.27769587704233 63.260261807236354,287.2256776394328 60.1549553005032,287.2304618771425 58.800677552909136,288.1800532838513 57.97501147862524,290.0267788228342 57.63317954431082,293.92346378747834 53.95220617955586,299.02876479502993 52.47692768194528,300.5499791666058 50.06707221291943,301.02272512907655 47.83128969081207,302.41972096577683 47.52661834456137,303.99808644617406 48.85825780872769,306.1344319832797 51.338155794965424,307.20146641241524 51.66215613559746,309.39029442276706 50.02864439760888,310.6111184700569 47.539891501797506,310.2762406600366 42.780862773687964,310.69820269160675 41.417319052664325,308.7558750183557 40.170216927676485,308.82461867123607 35.480664911762666,313.1450951673288 31.837829107067236,314.754993256601 29.10092557901082,316.5218189604344 28.370795215765213,319.5485295680569 26.75450159035954,322.8100339087832 27.223580143187547,324.6090103080047 30.250554913551074,326.277539050046 30.932621587892722,327.2625413305758 30.725171085456292,329.98504637520057 28.70851026426298,334.1833937537891 26.490463791977493,335.99960462167326 24.947143137168872,334.8372706073276 23.540538326216904,332.16380487157267 21.84812626900225,330.69810474641974 21.348317682565348,326.55471638119855 18.985608733239953,325.05389565731093 16.19974886849059,327.07573318266316 16.157058657172975,329.2698145484941 17.506324886087665,330.9778150197179 18.116827136668718,332.7295298461038 17.23323740822299,335.6794292020078 16.694511626728556,340.44207036496425 17.213654573787586,344.1265230943296 18.144258658599085,346.34359366818444 16.181576632932632,352.1040004324607 16.74429542097431,356.64653258126236 16.463370819460295,358.0834442644698 14.773650079660285,359.2416663220213 12.498038315100606,356.3495048614428 9.522015232775127,355.05802773510754 7.922148137579003,354.9381331211298 5.118455152920785,355.7448437406738 3.539044008045754,356.9834462083312 2.962898073534152,364.2079035020738 0.32509394777000905,367.3477097011023 0.0,369.1529145202561 0.9226055850281627,371.83978516736386 4.347558962107068,374.1049578712841 5.170860601144892,375.44604812962984 5.143919965259769,377.01828971184136 3.7835211796567294,382.30694101022107 2.4512426698599046,385.87139624044414 1.5973009892061452,389.27078071456253 1.5517669427262748,391.3433681091583 2.8560194940824912,399.6207941187432 4.433750452965029,406.4200615522718 6.877720820378909,408.8170052969889 9.931996117169673,411.2835272853355 13.543796934583145,413.4727225098334 17.414323844809672,414.86073664649257 19.623893929972535,415.1081855776307 30.6619782333319,415.0636835308777 34.78106282039837,414.76935450666053 38.65990068166741,415.286750849104 48.02799469835202,415.2447466176683 52.174224309044135,414.9495024523418 56.566364404467784,413.2787486563748 64.54577595474433,411.00981134960045 68.40787876558032,410.45533472060276 70.06241787834072,409.3361641501492 78.04224990754864,407.09710283042807 80.50873645601315,405.95995547235134 84.9093015385774,405.4043620267777 88.77016704228416,403.9794592604302 92.63121931563491,402.872135933315 97.93602691153116,402.07255310877395 102.95417318577427,402.8398417602144 114.77122579371654,411.3920332114087 132.48866350304397,430.99104764888443 132.58469025855942,433.67655915679165 133.97462052510363,437.5486299368281 138.7339289773045,445.5441848983454 140.11342358698172,446.91111315051137 140.69313183947088,448.85108324859675 144.58773885109608,454.0870132848954 146.82717396454188,459.9012482412096 147.95259783740855,461.54174599036344 149.0823657747432,465.7068276792344 151.33766233277123,471.51238766338236 154.42075224517907,476.3685500648852 158.56479145935972,491.91015378615407 157.13100884218727,502.5077878613441 153.00719154493885,513.8118702399696 165.1933993202052,540.9407203756161 179.52679024751188,577.9511460158105 194.1333281161773,600.3313940660648 202.3086447436982,614.4392355344021 210.74311852068712,621.8176491373958 213.69600549021453,623.4774130648816 224.14207739741187,628.0172923306967 229.8454477278005,633.5840059480913 229.83988055157556,638.4402086397479 232.58572849227934,640.8447249384353 238.3280040058978,639.413520487861 242.09875123119983,625.5855963430072 242.45239772854708,620.6082141746973 243.12755357656422,616.92180270002 246.81336721956697,610.7527382265744 249.5322418396674,604.9039176602514 250.88966718119204,603.2377626992146 251.7105884445803,601.2882398771922 253.07696710381273,599.6191027053668 259.65082222995164,589.6051921702813 260.46500650501054,587.6640675204035 262.65828095110896,584.3213845652477 263.4636135918647,582.3914964246918 267.5720845773534,577.9222318090021 270.60897470700775,575.1319923851652 273.3480098252751,571.7988129512516 277.9970732947154,564.8419247595913 278.5373864290685,562.6224612893161 279.6156562271326,560.9514350769551 281.2547649103332,556.7731764528038 284.80975977738365,551.2140350474883 286.7134874922181,547.3252280269323 289.46458661336897,544.5439979232813 293.3013765138787,539.2434108486063 300.1643888069112,531.4285114084335 301.24510134333786,529.4838275214166 304.280703987401,526.6847931045584 306.7297912411817,522.8053213959181 315.79751194962347,513.0385860099116 325.1561693485665,506.58784091556765 327.074672235917,505.7368823197479 330.40119642902886,503.5025333522726 332.31965510328234,502.6515276160468 337.8479597001837,498.9987108458788 341.6944274638003,497.32394749263403 345.8333288779712,495.08156171829046 347.49827308747183,493.6534334607703 349.41729474142323,492.8326441655895 352.70602818672927,487.8198332428386 357.3823206009845,484.1641830408354 363.17554075784665,481.6177691913598 367.3052728565393,477.15694162501813 368.95879806782693,476.0272414012319 371.97100667052075,472.9708137975166 373.9123771079797,471.5664023655572 376.6519532353012,468.7648834948693 378.29543909520015,464.88396001754006 379.6573573796076,463.1974454600878 380.47023348635685,461.2668466227692 383.7886724914848,458.73622577697074 385.9723632961936,455.118839189724 390.0874296025417,450.3622807576568 390.63047669637774,448.4186153133029 395.017702092985,441.18318234585456 399.4215252556556,436.98318818830114 401.343795247413,436.7143199082831 405.19107763934454,431.66813448060714 407.9388052557782,428.86597343070025 411.50867896104444,424.1631983681265 414.8146125768976,421.9085907640533 418.97368607069717,422.1476865548984 420.3730378210782,423.51529609977433 427.59187667982945,428.14629380997053 429.5581489995878,428.97836819810163 433.1743124804001,431.14166204313005 435.0271805876506,432.8244527550795 442.2536684788433,452.8750549489314 453.5776877503726,467.0354927933448 458.7926598706703,466.1273156305366 470.82887053892864,452.2692947355157 491.1488905820634,446.4811788555635 500.31109194983696,440.35598943908803 510.02590564437656,413.0062678895481 510.8357285576056,409.11375655158554 512.1436069061133,401.0737483045416 514.0498762927867,395.2459929466486 515.9548841134194,391.6338189204895 518.1514550097678,388.2908804849658 520.8885042829636,385.49849707176793 521.9910203882605,383.8172309433596 524.1871376062737,381.87485532765993 526.1219892349307,381.0216673005916 529.7740627366882,380.99459730732394 541.0976278310685,383.1943584943941 567.3055668175398,398.4265670856879 580.041566822586,407.9360349605997 630.7941763157528,407.955127039291 646.9180026389463,410.83874104193774 665.905304420386,407.4594351147001 673.9633073559924,408.91542876597714 680.8948382478627,426.23759664242914 681.1761225033677,428.18387536687567 682.2873345963718,429.81954977354417 682.3542360265769,436.46220208608986 683.4962292723865,442.54506745662457 682.94437457323,444.4898432094253 678.5626496271192,448.66483204848146 674.4658803567306,453.108957847992 669.8377270750174,462.5444669459787 668.2379486010035,468.3689782969723 666.9330712623753,478.0788233966541 666.704759482639,486.64047553804596 667.2778160377006,488.85307674251237 667.5864799956561,493.0171194639239 667.623047072246,497.44203241770697 669.5981499165318,503.25024298000676 669.6165811290421,505.46822114916085 668.5482282777141,509.6247535824233 667.4523050608495,511.5607637177916 661.6690013277398,514.0652378898917 657.5641497805989,518.2466686957905 655.639805160563,518.5481404369599 653.987028854722,519.947988084512 650.1398433463294,521.6282509085602 648.4960775337877,522.7515666845281 642.9951974791381,525.5248548381697 639.7004643799471,527.7604844431917 633.946217627769,533.3300110791627 631.2060585322358,536.3945304443298 628.7398012788639,539.7341019689923 628.1982752804421,541.6701375384862 625.7413016790356,545.023253670269 624.37939552329,548.88830039406 621.1182915341384,554.471098666314 617.8361462021281,559.4769607509712 614.5917320712226,567.244461956914 616.013088089716,573.0499830612627 616.3378523606564,581.6310452740681 615.8116636122637,583.5556058989788 609.8037864338673,591.9124775740394 603.7553375806167,597.2229866635503 601.8181969997388,597.7728868800855 600.4588139085886,599.1651331030574 594.6621363389297,601.9856730260822 593.0084394209894,603.108755049751 590.0017367317968,605.8918149949404 584.2027493745148,606.7589709860649 575.3439246438262,606.8187569804304 573.425228107368,607.3872931765102 572.3280268642627,609.3255257174554 568.217866052895,613.8035363509044 565.5159672214289,623.7864039687742 564.4671509198004,629.6131058733957 562.2829213851727,635.4312780421142 560.3853736358482,639.0490352230631 557.0915310425341,644.0568392518157 555.7295847305257,645.459882572092 552.442249574285,650.7464627256322 551.0621150491476,652.1499100542469 547.7714477082585,654.3866374749337 545.0285542300039,657.4499554350909 543.362719629699,658.8491667057502 540.0976658038807,664.7068359781604 539.27642419308,666.6492814473995 536.5241979299744,669.7126982746744 534.9024132568802,673.3318512083584 534.9716107788596,682.1675166098862 535.5538479574785,686.316676833424 536.4080665903881,690.1830580411533 536.7400826661092,696.5592899556059 535.9290528607129,700.4462807049547 535.1076161847393,702.388698985273 531.2592308979692,704.0887462714948 527.1076559062002,704.3926259296378 524.8829795910675,704.1475361933267 521.0212180220107,705.0079178161218 512.4438875649571,705.334465605451 508.5644792023586,706.2171501880118 502.194788607749,706.5513860476372 498.3138571138656,705.754332142188 491.6857309573453,705.7988401378053 489.4715746687349,706.6609076536124 487.25330931128997,706.6832558662657 481.16376893839197,707.8389775102179 479.24402543558546,708.6939503544364 478.9823601357326,713.1394528243197 479.5746914916162,716.9928569457703 481.26640396581087,720.850553543148 481.55466302834867,722.7774415406525 481.58775322780264,727.2269981252819 480.4954648301898,729.4325117493354 477.7537393424365,732.2406892575743 476.64848849072695,733.902280761075 474.2026103324436,740.590176890361 473.944840311604,742.5300092180257 474.2491410017342,746.6664903717665 475.11860570937927,750.5464802443198 475.12558464850895,753.040817279609 473.49966003200615,756.938500815445 472.1307163060526,759.1505075452774 469.37664563740805,761.9367371232571 467.7234688286763,763.0615079164155 464.97861907234324,765.8585073731094 463.0403786534258,766.7220241232976 459.73560809342456,769.2366064841348 457.80866502536577,769.8125136250105 450.91100352011307,775.1327816019514 446.7646144653096,775.7111997811601 444.84415832271645,776.5658421929081 442.6254909139516,776.5987610735331 438.45353394397847,776.0919921356526 434.0420608012188,776.3891181535433 429.87668883953575,776.1610415082108 424.05248076048025,777.3115901203063 421.86094222746453,777.3409049760164 419.3273575417465,785.3118513470114 415.9577733272444,790.0261272592463 411.0950297914522,792.0736643435002 405.4348098056294,793.7612864414928 401.0614092161178,796.5761482058672 399.8510017353907,799.1126642105844 399.47622780576063,803.3561536122517 401.49743971052396,842.4381253773898 400.7601750188261,844.9525265441657 398.10394386386844,846.5724893646465 352.0478113027895,861.4096663458781 347.5115698933287,863.8376152024546 344.43412500751117,867.7676495373256 342.49394551766693,872.8288093959712 339.655332095127,882.8966525343235 337.13632856768004,893.5592558836704 335.65147231805787,897.9247757688595 333.75808511021336,901.5925358401693 331.41636743405843,903.3259275729644 327.1072738420438,905.1238771200138 323.8560363384831,910.0215959121871 322.76894845256277,914.1430652878057 321.07556363646,918.0408919414297 318.59404504136506,922.1943489911441 314.69545058007407,924.7008013200151 310.57492124649036,926.2371782523124 300.9369039516538,928.6400308038828 297.23300289562695,931.1417065932335 293.52423335516823,941.5794315747909 290.8900550008587,943.4516154897663 288.2336040352241,943.9514276419105 289.9256864923406,958.8539175583019 297.4721738407281,958.4855059513461 297.4733948753498,959.234053353182 300.1251107663827,958.9165623046334 301.6664922320947,967.9857749859929 302.9610647834068,967.8456824882476 303.1168066585041,971.9772437723134 305.9797682434298,971.8620337827006 305.87002828030296,967.8592452033283 307.3218327408392,967.8481190088539 307.454141971355,971.7454256010327 315.3705180904702,971.3596914343899 315.1152172352843,967.2497411679375 325.34710245216473,965.6421055911422 326.20319854166536,972.0944928176947 331.32235183654825,971.2282628905425 331.5534340551125,978.5154116612166 336.53627115997995,977.9311992168925 337.14332497142885,984.4915011018952 338.73240205885935,984.2284140533961 338.7276247391515,985.2036161407743 340.81633060505783,984.9593969933426 341.9025046173906,985.815553143975 341.1831539373171,989.950715195507 347.50029561184857,988.9653931532739 347.97346682298075,992.8548593967647 348.44098084572636,993.6451469050771 350.39352300508295,992.5117585535439 355.06805214809253,987.8985292356575 356.46825547497093,989.5760622763223 360.20683259962334,988.260441797566 359.9488419703873,986.7195072506223 373.2436717600296,983.5969850427301 372.9166553647368,978.2981268505176 381.7123347396161,977.2654093439081 380.8800462069369,971.516966630927 385.2733244038534,970.9563942067547 384.4116240650362,965.1174833853295 388.32824287107877,964.5541029385531 388.567912785112,965.982188874366 389.4830053467932,966.0133969213823 390.12481724299454,970.5867312449395 397.16361155098343,969.8290342627861 397.3648952986059,974.5755942155263 408.7950295759292,973.2649809603747 408.7023089349781,976.1952486114695 414.8286139195349,976.2897734731808 415.37200683282117,975.3654968236378 429.4671445365847,971.295467120357 430.3818440767156,979.345712133504 423.8927720259482,981.0141994873521 423.54748176186683,980.0278245684967 421.05455121467156,983.2628707890382 420.94630731006487,991.3453357579601 421.69732792666434,991.244901393235 421.87043359069133,998.6467662398397 422.2300405222781,1004.4172319021237 427.64820722007966,1004.4727754199223 427.72000259379445,1008.7030496491265 432.2959398593084,1007.8693813354306 432.4878578960731,1013.0581517898556 435.6946576714271,1013.0631075176589 436.0557763804991,1020.8196860930863 442.71192229910685,1020.1304156370613 442.9681658022734,1022.6354073190535 446.75623786165175,1022.2591742076768 446.8515962633236,1024.0 451.0619050789055,1023.3375388025947 469.82650420795983,1019.5862867083592 474.03031988924965,1019.7108274330856 474.22299771284787,1014.6068674098134 477.4162235157405,1014.4181848627085 477.31326762157323,996.4234777898913 481.5245646965281,996.4979486542875 481.35150413387254,993.0186282318288 483.83000767366116,992.8467356594484 483.9056746005154,990.3863876494034 489.88883417484146,989.6811910275599 487.8872491507298,972.1429725168816 488.0459996335713,971.2773335378985 486.6842330516018,955.7432830678973 524.3275215540357,951.2655754286837 525.2545254292842,956.7407701364203 531.9143887006246,955.9077423709706 532.6940349742287,961.9499834861498 533.0325433229477,966.3369903235796 528.8113793108098,966.9709449666832 529.1858613182335,974.009061266458 527.3452892194307,976.8486014590862 524.2667777661286,977.2590543214674 526.2103630408561,1003.5693436854425 526.4507835894664,1003.5636103700871 530.8726993976643,1009.0300022353462 540.6345232126886,1008.305101345056 558.3714218834081,1012.2229630864094 562.5609985143444,1010.6168755954436 565.0431216590282,1010.3031288232728 571.0673025205886,1008.263296564127 576.994383215039,999.6481109599682 584.5339419615847,987.3390579891828 592.1576484094347,982.3096597979941 600.6826080995182,978.5289470598916 608.3022228078074,972.606753162748 613.3304663113075,972.7832672187542 619.2495333701054,974.2281624085834 624.717684977862,974.4821520495345 627.7670325247253,970.2614610905854 628.5890976981128,968.3270260877871 629.9529939040323,966.6529044590804 631.5877005013485,962.7731876769224 634.3621752161147,960.8823860427419 643.1768611652114,953.3137041739096 648.6448457575552,935.5440194508786 650.2545788156945,931.5017366730342 652.6757640082894,931.238168562679 656.2622778107745,934.374461024962 663.6028337632531,945.3474903372775 663.2831132067361,965.9421359750627 670.189605511055,976.5609843165731 671.8410174064251,981.5373999628475 675.7831852405208,987.3831317672142 680.1679137889695,988.7812178581465 682.1383295272483,985.1055734483822 681.3309829585467,978.1000911686397 679.7939984003099,969.8417138713113 675.6064400694356,960.0902357725722 668.9779534427919,930.8061618844797 668.9771863438947,919.8497056349789 671.8394838023744,918.2435352998978 678.2881170851143,920.1324207354961 696.2798180423324,945.1310600177263 700.3496065591925,956.5205850080105 705.8436581010059,957.4626073736309 709.2447770659502,957.4505481723081 711.2856951437417,956.6625618337066 714.3572379714368,953.7798918991504 718.5698766608291,950.9822419924784 722.5851010614537,947.9131237808377 728.7433076834523,942.78242162097 730.7121962218367,941.6589841402795 734.1271875326821,938.9194464466325 741.7417674840481,936.5397695572221 747.1222024148306,934.2871778790704 749.6640059051925,932.8509570427577 756.1780315071795,929.7494367289914 759.7814638936235,928.4911057177621 765.8771603422528,927.3667385426991 772.1426062131201,925.5003257145014 777.3043856665224,922.7800077891068 784.9176649292618,920.0203404321729 789.8629379127043,917.633893583743 796.5404121917245,915.3862445638707 801.0540204296427,914.7923151037792 806.9576572533272,914.5308238021178 816.4853160028131,912.7662597547578 821.6682344143535,911.3649233770182 825.1434295310994,909.2716165608414 827.6923535299265,904.5466053436215 836.2260788392185,889.6775900125122 840.5912822534007,884.5805007123993 849.745932763045,873.5160525603521 853.6668013359906,869.6179061105345 859.9431642365168,865.7621542128275 866.1874389177166,861.3655179087741 869.9348531010731,859.1401841655206 866.3840481242503,852.5858861933124 860.6804560517214,838.4166829535685 858.004529800102,826.4553952247679 856.6208632750546,804.7279747934659 856.1480844239911,786.0993785444439 857.5511497996771,775.0926780134785 872.1759061146632,750.9468075964697 884.5298960504014,743.8353107265841 894.9078840436081,732.6210532450195 899.3431467557456,727.3410620644466 901.7042766400255,720.6580605214667 901.8121674523024,711.94677834055 894.649307454877,686.5322810263912 885.820948274417,671.451819916103 879.9417523710853,657.688285540563 874.3180139966872,649.3830255307344 866.8192678498148,641.114380294779 857.9250964688316,631.0603237172072 853.7175591139563,619.5800349687665 850.4129981593383,606.0819811720473 850.6716864059475,595.4910078972018 846.0811234361154,561.8597061130872 839.7451697510772,562.3079648812911 836.7014377798455,562.1614189679533 833.8663511530805,556.8430657869358 830.1019740460349,548.0118311136487 828.122369123997,547.1226399781979 825.341979981106,547.079796306115 807.7605408870659,547.4525316385689 792.3588544391863,549.6504726473663 781.8795806373298,553.4006923388284 777.9965082735056,553.2855058500669 774.4966126501982,552.0113251790469 772.4833177027211,549.0476668061087 769.8183751675801,516.5829339308909 769.5015175381346,503.9539698159242 767.7410225200358,487.94090603258746 766.556161137448,484.1276128579475 764.1980647124057,481.3853027457359 755.8649072142875,476.49403996182787 752.8148051929718,468.8926756489925 751.2055239067726,462.40177775054656 751.4479282332861,458.1548697883077 752.5400614448916,451.49413523950705 755.4481853356768,432.37477581116286 754.8031900227676,423.4367872171581 740.1560757674481,415.7221810042968 723.7080253063788,396.64694718416683 731.2143807520428,386.7845636723804 727.4575947229694,375.82451168592263 721.3747478470336,371.50051591685406 721.3697394458825,357.67858264164863 727.9884454567406,354.4689477477874 744.4440710016668,356.8480802828259 750.1641881286346,351.65723668274325 757.6728970226524,339.8348600354817 753.3800743604126,324.94611950799856 751.7476526431585,321.8402361088497 741.3705937128422,308.18957379902656 735.1277336817739,302.1156891272432 729.966970796777,298.49835475467387 724.7294059329364,291.8879869609568 716.0706986609308,279.43945025408823 710.9327156738182,266.7123394544393 709.8070152027241,248.4011521583492 701.7853831029673,221.556165158956 688.144744028545,192.75917395762735 675.4089117288253,169.22979607907064 667.2404600925295,160.50289761006184 643.3707788799716,138.67838888546646 628.8284124864722,124.94376728737404 607.934722933379,114.6709605052879 602.7601933844305,111.0625048287792 598.2739713102036,107.03099207933951 588.194340465502,96.09394518182 582.0264312011294,93.33535332530971 574.6999689007051,91.44467618438784 567.8985803033963,83.53771843480592 561.8204515102007,77.47227994140462 553.7603243165838,73.53785184197056 548.7111888417111,67.65984756508192 547.0723763288654,62.51960522611921 546.5917965954543,49.68767587857906 545.0519038203662,35.85094930156379 543.1062703411977,25.126511373024186 539.8664261395314,16.93362227487387 534.9270548843964,9.179664524051304 525.3061452579907,0.0 519.6326492079044,10.560466524084632 516.4465548820548,15.60456176679088 514.164803858919,18.6156030029382 511.51228573801137,20.96423122148269 508.8537816017804,25.03684677153501 507.1531066976256,26.945331925740334 504.5975319784387,31.545829840104602 503.0246209040677,35.85744402793125 501.4146013245809,38.25267741059474 498.3825290001993,41.93630100862572 496.8920869092364,43.01085452529128 494.53813365425793,43.79119624454245 485.59693561072436,45.036169689125245 482.6254494661477,43.81172363686244 481.18600543179747,43.622436515813206 471.89728004123305,43.753568821060526 468.92922760263264,44.559366961519686 466.4249299946684,47.658043287744476 463.5528654584428,50.21571161301722 460.2054442558694,56.43680679384488 459.3117590487406,60.46662232956385 456.75235235161506,64.9643411520617 454.26868529991015,70.08455844122682 452.1911739856981,72.33580951653391 451.1577452874207,72.68916231830713 448.10417660354017,75.61833469467422 441.2749420476312,75.63707387118836 439.7458221087166,76.2452552961704 431.3695925718321,75.4523336506735 429.4661946026778,75.62178746812322 427.5273571364542,74.39145411696734 425.07931213541116,73.79750493092297 421.8783147598703,75.38166620704271 414.1976279951849,75.22912112172753 412.9876842244176,75.76602990520007 408.8073670234191,75.12167958203383 406.5146464717656,75.07360434401176 397.74474625045735,74.25005147535637 391.8677166032113,68.91870847982511 380.7461468627632,48.01670318578476 366.3073239779327,41.85816455730276 355.30137975289716,48.92814865277671 329.0122572542513,69.58584486284246 326.2305508469917,75.03456875896734 327.29920602332004,81.43796384635448 343.4217710438915,81.34705176540876 360.75237186322505,83.71847239250792 389.8318609697996,95.7270836546046 393.7838591073954,105.9575775802648 394.3150152712799,118.34321829840405 379.6676192129751,122.85890073599342 374.5392611273403,122.8797681224786 368.01848025662866,106.88032169746509 360.10659104818865,98.13717745794963 354.23397075444467,98.68332328753172 353.58599724246307,114.483251367001 348.24721739656997,122.71850237866124 339.23483672495183,128.33473063343672 333.8169633313252,145.06319153525567 335.1959904809545,160.61410101293518 336.126021064803,161.03998212539932 340.79316373259593,164.96453293013678 346.49351093677205,172.1798651416234 350.5295045792561,178.49466397223853 353.25943807781823,186.0940411572576 352.8304786936549,189.51292638004293 351.7925576069151,192.02887823297021 349.3534727574156,193.0249945772497 346.3817648448569,193.0942599385878 337.60020403390376,191.46168460522813 324.7212613774778,184.73880006281433 308.57018197464424,175.80366821291113 302.33532981936344,173.5804473169984 292.68576284797587,171.01873297041857 283.474289632745,172.05699195838304 274.7095736142711,174.23927826815543 270.14565947739436,174.7612613388643 266.22937849875984,174.44233436012348 263.22939021401845,173.1658769933017 260.69466864422503,169.5997482781985 259.61615854567924,166.9311455470688 260.0153791042926,162.1568790615902 259.32003885222025,160.62035742498983 257.12734222674095,157.56844947888078 255.49007314256104,156.2606773105017 251.42534439872384,156.3537467501768 239.42987448412256,158.50362205640806 235.94976996151465,158.06373233245165 230.50698190815893,153.63548514581237 228.65354284262085,150.66951432918358 215.92862938846707,135.93744513640104 211.9816890668206,133.43605825522013 201.7353303961438,132.7294028703078" /><circle cx="688.6235091036971" cy="728.4497901907207" fill="rgb(100%,100%,100%)" r="16" stroke="grey" stroke-width="8" /></svg>