<?xml version="1.0" encoding="utf-8" ?>
<svg baseProfile="full" height="1024" version="1.1" width="1024" xmlns="http://www.w3.org/2000/svg" xmlns:ev="http://www.w3.org/2001/xml-events" xmlns:xlink="http://www.w3.org/1999/xlink"><defs /><polygon fill="black" points="636.5125442934972,55.79030945956572 626.239520313441,63.75373925897895 622.9917216526546,66.94301527096286 610.312567871717,78.03175901396219 603.1468729786034,85.60558541747616 590.4700515872252,93.10848833252805 576.6322191211245,98.18231300309628 570.9803290026093,99.46630553815476 562.0268737308561,101.79522533177908 549.4413709022186,103.34047071454825 533.2536166796953,104.05234735500721 524.6260260652449,102.74939653427452 462.9319622834833,96.83373664184819 452.1167853445016,93.96740573760303 423.8180314100303,90.39945595428708 410.4077209403474,90.53312727960054 402.94000736666146,91.22379862961373 387.0471261403006,96.69103432458553 379.6615880186933,99.66418452172923 374.22748087969313,99.7392476788358 368.9901476655005,98.50386594356223 354.616523490699,97.45201294200706 336.71188397965597,99.13117721901472 322.287042486418,99.49484300079439 315.3159439692431,101.2174640124274 303.8073118345172,106.37949323000714 296.6390513431047,107.14568053531696 284.18276951867847,106.23210906190354 276.7438590799403,101.25435449352733 265.69459299983976,92.60187667832417 258.56284526764136,92.68145230958748 254.0061496820782,95.62205758374216 250.89075258157467,101.97646646244164 250.5074897622253,112.75851701472186 255.95004010952962,125.8734139075375 256.79651991605857,131.1558787975681 252.6359691754956,136.79716168191078 255.17667987247884,139.03545101977488 255.42860959807993,142.61721040901853 255.97015982089445,146.20066907591604 256.9186420727886,147.67172222133127 259.1629850141601,150.5062712803268 260.7659512381603,151.25920130097052 263.79256824780043,153.08685047612698 267.347159607258,153.69316754088732 269.15786148257484,153.58564816859882 270.8681657346164,154.10016996410582 274.1735544130997,155.49359754961165 275.6578577648026,156.51890137181454 278.3569551898031,158.92129700537475 279.0937011072797,160.5568178608478 280.2654107911197,161.86486808950087 281.839916984804,165.1016808776751 282.9717803907077,166.48656914484332 285.99466570638856,170.9213124361105 289.5615290881869,177.175671115265 290.78552310075844,178.46849632535293 291.0391307247178,180.1925697045076 293.23430475987396,183.04769739262235 293.6335890747735,184.80855389126668 294.94066862065046,188.05112494733737 295.0006830225872,189.867436887738 292.96913638139847,194.87713577100197 291.06846083276736,197.92631778886954 290.38411769998834,199.60101970847728 288.2956344623062,202.5243092894451 287.78571698175637,204.21516006457574 285.17340277071594,206.7279813006391 283.38802416200673,209.85049121437794 282.9096083789897,211.57662006631722 283.09347341759974,213.35621787340608 282.63506693421283,218.73914034957045 281.3956419725211,220.0600220178245 279.6097415927903,220.35507310950032 275.9663417925685,220.49076682209528 269.55304015168036,217.49750643511317 266.6931836293867,215.32635425362724 265.1002607975589,214.5032529091318 261.86715639538,213.231945270035 256.3049038428782,209.44574425734316 255.27574653431768,208.53430335477856 253.50903829029062,205.94523798808632 252.01167468348632,204.82998406483176 250.98581322031453,205.98598700561598 250.31860982166825,207.48012881275798 250.12288928261196,208.97204360057015 250.21573659406167,215.60056316293674 250.0131373665055,217.202600696601 250.0721194097276,221.77230716161938 249.75125004812253,223.60685500536596 249.80487337154645,226.57903074629087 249.16312862428472,230.25012013454705 247.3529543907773,238.9713764333497 247.25348970727111,240.57117011246174 246.03000098168678,243.57897684826486 244.44325224436335,244.04720226242574 242.8470049605857,245.00350328434416 241.3677784881121,245.2414197987759 235.08806241459382,246.95457237749235 229.0252669168149,247.2930832507148 225.97881354651216,249.34412150996963 225.23950672938594,250.94963423869444 223.93782687394003,252.20930325992327 221.1406345417065,256.83426159271613 220.41419564529923,258.46945915208846 216.28418855555825,264.3605818506061 215.41023450227217,265.9509169710149 211.82056861378402,269.59085312191115 210.23192043197895,270.06070233537093 199.37864879842238,273.89529333994017 189.7242984193515,274.02448795047474 180.67423871015438,276.40965058027376 165.94616276322623,283.72255324433223 158.80689835001934,294.6997381689115 161.9463325890256,308.72811428783496 155.9734466361004,317.89902262347 148.7034278497346,325.1852567047383 135.75111606894006,330.0380982024749 124.42269753953042,331.6489349122388 112.29355541260826,332.43359243367087 100.59992456379668,334.37589245473436 89.16062610941582,334.59048512786546 77.16052738417322,341.2656402288817 68.24867750755045,353.2533834928963 67.80905648812009,361.0779460952005 68.25653601393725,368.37864570974983 71.79818200122476,373.6790734414348 73.84027789275153,377.2224684637134 88.13502088885356,393.3600911299522 93.11777653687216,399.94818163352664 95.03585921117002,408.5423389320809 94.32394999413079,419.5956250821198 88.21854676501313,432.3446730475281 81.51956735586347,442.83616666279573 71.23010701070243,454.89571889567964 58.14676287087568,466.21710107064877 44.24233171256624,479.4230242994588 31.016624329353746,488.4811959952489 18.56845468516645,495.1853227992781 5.29789974464009,503.7719214042795 1.4403697324975633,515.938126892049 0.0,522.4463764636334 7.4907713994620275,532.0828797728783 16.874602725270314,535.1896115056834 23.664998899158597,541.2084509706799 33.604722755700195,553.4519795218421 36.66786478585642,566.1184953158687 44.11490583020951,582.6558047879071 57.52535964406764,599.288720479974 76.20088763191922,611.9490986831604 89.31531505866626,616.2231780731632 101.99709021439087,620.9867558600092 109.91261382966579,630.1597047335204 124.49836902515736,643.5096019747637 138.70334286797967,658.2675499500643 152.55696223226073,674.423067426414 169.1300246437473,689.9586665162441 179.6997721604025,697.58491814928 190.46431786426587,700.5996549840945 201.5301680264501,701.3098693477314 209.84029882313064,701.7237616349638 228.58120206833573,699.6596184282564 241.9001386229194,698.8329358586277 264.5409570919262,699.7194571005599 279.58485142293125,696.9243838026149 288.854272734057,697.7006296346171 295.10710372797496,701.9012668450672 310.272321864418,695.6170578328253 323.5694157530871,694.3030995975764 332.7572021489309,693.2606481757624 340.35711393377534,689.0954865833336 344.7975418676424,686.0557532048805 357.28232868579227,671.0195943150601 363.6725482590516,662.3429851182491 367.1731890275128,651.5591255960943 368.7954209965282,640.4512488820927 371.89264491197173,630.6140211877149 376.1137997423377,623.9088179221919 391.00286802155256,617.895228620428 404.69470346065066,615.1704297110848 415.8066022556877,608.0317600786445 422.44599755186846,588.3304644579263 432.18147704275685,581.2776342021201 445.2429672690183,583.6560689450669 458.60280687652363,583.2649078264645 469.59932459046786,582.1172548906235 474.96252241219065,579.4835713770327 478.6289205269902,571.4579223145631 485.10248871559304,564.1668062578194 491.5683993238245,549.5446817012836 499.30731670756006,540.3455964984993 508.12009237869705,533.8384618778381 519.9259806003801,531.2798116204469 538.7367417934006,530.5944227898119 559.6373647928306,526.5831825804083 573.9542031587862,520.2245218243977 584.7259513035136,515.9131320679863 591.150243265396,508.6397351403069 596.5270736734337,498.68950759201005 603.5066020459998,484.9787486954916 608.9470649210893,476.3982354181222 617.4755434461105,465.7908431271309 624.7496018521182,457.1191416982265 644.1520383197376,451.83883092762926 661.9453464305232,457.22244043664915 677.3028016583844,460.89008656173075 689.088310136684,465.70047938201424 699.6405935087349,472.86639832612025 710.7559491543425,481.82144830130414 727.5510020995902,493.1995547647249 743.6894711168771,501.38843146467764 757.7163027550532,512.9307033401527 774.5816426474483,525.1857443532436 782.6274313639967,536.1712363895898 802.5952552807222,538.5885635741123 820.1308298254672,538.8595446208412 834.2776292896026,536.5977078724934 869.2076889232883,534.3670771084031 877.2368445320412,530.1718382131209 886.4732845920096,522.7064776036138 899.1583789856621,511.3418574441844 919.0374434441943,512.3866184704162 934.3385234369395,513.6999706026816 951.8973985941902,514.4335198362542 957.49170813436,515.462483521857 962.9275478488187,526.4059841066669 965.8649606248991,523.8033726369865 963.022866055931,519.5030742022926 961.8870904974227,516.8372629183539 962.6895630360002,516.3378073395228 965.809426041531,515.5404069819257 972.8411115307598,507.75181811305686 977.4876990902372,505.76316419735303 976.9903200278413,503.80838261665735 973.9873559268297,499.2706042749379 974.5687866924873,497.04288762125555 977.6537782397376,492.7179005036232 979.2618645219106,489.54855128222755 983.0533767960492,485.7164873193507 985.978094848512,481.1955694534432 986.6472272622113,479.59746501678796 987.3257090038069,476.05097042482805 987.4120820331152,474.2665234088848 987.2638597993562,470.6522608838692 986.9186661625495,467.0652989334812 986.6041166892071,465.7076670329286 979.053148601334,455.9999605774848 977.5617737425374,453.89186090526493 977.6121435004004,452.3164038482944 978.3124654362528,451.0775190721464 980.0896232682386,450.3717424654967 979.8679448250724,447.1214759513325 974.4759297368132,442.37390571897726 973.0044817933464,439.1011571579985 970.0977120914209,435.04881745062664 968.7305459524566,434.509414189618 966.4005149724788,432.265671801605 965.4759671463324,430.89633556343625 964.3060002930421,429.991590747308 963.3667281325481,428.0706021050861 961.0340802661643,425.028801708388 959.6481763296332,424.12979614125504 958.2562209102236,422.6569047953212 955.3707663751967,420.87786575542174 953.7581662226987,420.4488860111355 952.719877483857,419.43853273364255 950.8818805505318,419.0095346311261 948.5570858737243,416.99939811512223 944.9881280590502,415.1123669854402 943.8204503646156,413.5293671841578 940.4645076432663,411.518551650584 937.1170512611967,408.71939431126225 935.2790961852885,408.2841996467013 932.5969501329271,405.59127635614084 930.9606849218039,405.01666758287064 927.8457687751269,402.3571438743407 925.2808910275353,399.8269929351014 920.9942574504897,396.5743384359609 917.3702092953201,392.5680143311805 914.6260851399508,390.2504358109275 911.5711248673889,388.3170302621694 906.7120955089279,385.98512018171596 902.1153421023556,383.114123045854 900.5068254594573,382.3464404382252 897.0908680467799,381.16826647294886 890.7590505232928,377.7465132412823 889.0788325307476,377.06459059587735 887.5779222594891,376.09793629236276 885.0548678547849,373.5260137009979 879.1104743632436,366.7775133386475 878.0615230577905,365.32292219083246 874.4109855546401,359.10222522989517 869.9888875365308,347.3754535274357 863.967938377852,334.07223923428626 863.3631509022935,332.23996403360036 861.5987715560294,329.0718817651261 858.4058029784077,321.6988924209904 856.8461941336316,317.26139837168154 856.4775007656284,315.78096188619736 856.3075706507063,311.20927659015956 856.6132396407585,309.4992769205767 858.1718174625142,306.37860864305367 859.0735923861706,304.9910788060174 860.4375565442645,304.29151280809225 861.5703122244904,303.0079455921176 863.1574124817176,302.17052797840637 864.7521861361123,301.6869007999602 876.2086365792537,301.25540370158774 878.1411317304141,301.0047836733105 879.7450394334547,300.40073562155897 881.1057984442662,299.231022552206 881.314782549128,297.72948773271025 883.4450996485147,294.8495023679467 885.3175542127727,289.55415222962836 886.2156781103386,288.39452361160716 886.7580697531965,286.67020910294883 891.3698892253315,285.1989367412868 892.6898192336514,285.2422185135576 903.1623078002766,268.67348476798014 922.6514936783692,241.92212265052012 934.5092868207408,235.83642130386198 947.3593348471513,235.70155091805378 958.8576392246218,234.72166485483638 971.597108534883,228.12494093916735 983.4169234321728,218.8595408062322 1001.1898808609365,211.37781357478286 1013.983926458963,208.06176274171474 1024.0,203.8662459167232 1006.4168417502766,182.97690549088998 989.2692444516522,163.9220289086337 982.72290717349,153.1099943146014 981.8794350405225,152.4067162317226 979.7310964580488,149.49245868540993 976.8501326933978,147.3500185896446 975.7613301513995,145.94725949936276 974.2429587469411,145.0141224871627 972.965162233757,143.85846384141473 972.0976064696206,142.25769640710132 969.6584652151131,139.68917307970855 966.3394955393173,135.40013353697623 965.0214963816688,134.23349129712471 964.0835484932331,132.70258219158416 961.6133877692505,130.11476751019325 955.7773134391816,125.25109549498563 946.0330145149785,127.17846370905534 941.0677898924358,123.28097326792863 934.6839486256702,106.8041855466821 931.138899425552,98.59012992072212 916.7958247626972,96.71784935569906 905.1877801725042,97.41985502615717 894.1123222949747,99.91692398432724 887.1580310147784,98.65030602062461 877.0905522755534,84.24647739197428 864.5921667546356,71.7338477268496 852.4606513473486,56.26048933272898 843.6126602699912,47.750971097121806 830.7652194948304,46.51116503249125 812.4765429124232,45.02086260288877 810.1121288741551,42.77586789830491 798.2705256585226,28.95278697325125 782.3692298330578,17.720985956025515 766.8986438700847,13.55059406996429 751.0682915400384,10.989668198689515 732.4925038250764,4.338374891990156 715.0760885911088,0.44149775810933534 704.3037469929855,0.0 693.6933006394687,6.523484335575631 686.6826860813129,14.614325510192998 675.8515813394869,20.201832773756337 665.841166837175,26.888059665056517 659.6545585633927,35.538906452651304 649.9344098536093,45.39454009453857 636.5125442934972,55.79030945956572" /><circle cx="503.0986667243411" cy="279.85335864369733" fill="rgb(100%,100%,100%)" r="16" stroke="grey" stroke-width="8" /></svg>