<?xml version="1.0" encoding="utf-8" ?>
<svg baseProfile="full" height="1024" version="1.1" width="1024" xmlns="http://www.w3.org/2000/svg" xmlns:ev="http://www.w3.org/2001/xml-events" xmlns:xlink="http://www.w3.org/1999/xlink"><defs /><polygon fill="black" points="553.4212976450464,0.0 546.4040387927813,3.41603363271156 543.73219799079,4.193573366467717 506.70773513820257,4.0387536175594505 488.4377325396548,5.12003083489833 476.68254292523807,9.54831422517293 434.8665463600333,65.65798843178902 433.04705928566375,67.84483423077836 429.51269348726265,71.10168231778255 424.99295414625436,73.05485629538202 418.2099048974231,75.07885628645681 410.77966678143616,75.48312581276696 403.35240674687793,76.19384393123448 398.49710535605516,75.91800256062788 387.4964446013121,76.0013592725677 385.209587530944,75.3913327240283 376.16382070444587,74.16879900188644 372.26285000062455,71.29344619069116 367.0769308283868,71.01623128350684 360.3023522618053,73.36458643075537 355.09154277008366,76.40378385089468 323.3094175084715,88.53186098095784 288.84112654317715,110.52314663822096 235.4594116430743,153.40365785256802 231.64317729390257,158.85399691024213 225.23963572648987,165.369936358853 224.67463974987348,166.2306942521368 219.05683578995487,171.53443041725757 199.50272604099504,185.95608307813825 190.40669007434963,189.27414676798458 173.51312000820377,183.90697096111137 162.89149753637267,176.8290127675166 147.9963208817714,174.8660641448655 130.7031473322544,178.0010217870356 105.16651676552966,186.1389394971302 85.77367334858985,192.57939252700396 72.24394953627561,194.81923669789012 45.77490318218755,195.80459776423243 23.59573963549273,198.61821018868068 12.403114500291968,198.47726713513237 0.0,201.42717624609702 5.369728847795338,240.73576512201885 5.0619894328818225,253.10527261402706 8.92064411582186,268.87171151020857 13.83998814868884,282.289884347633 24.23297469363387,294.0350826525589 33.00091033066593,303.70352575808636 39.57264111623381,313.4181154190585 46.4346114278738,329.49813705332997 56.75598820262911,347.1166834611266 65.12084636052597,376.82076787046014 64.99171270796698,386.984062000923 62.23556645551009,394.8029330604786 57.058142117490355,400.97260360433415 44.925735500049576,414.07043554906966 30.49507461993342,422.38026824303074 13.405587916921602,450.592115024652 11.758126028897063,463.45393039075464 12.310907407660975,485.2348312850828 13.938350804883298,510.6236141277345 17.06764296566158,524.590941389366 23.719194092946434,541.1483574291407 27.8789145967121,548.8037282577666 32.75467124387937,573.8709827527778 38.33799495285477,582.4391832392865 43.65907842047473,592.5636029491659 47.27458713837876,601.2850694225028 47.93327911834942,608.5128379647065 48.064783643069525,617.2132750628944 50.02025286205833,629.2376982472692 54.00389391190712,642.3920195452015 58.39112292342184,647.1324572823239 65.22352189591848,654.996867789657 74.96756320170705,664.9207030718392 85.97152458074855,671.7191394735341 98.01177679101093,675.9885413303273 106.63222530160088,676.571200497973 120.52945156419536,678.5707459630061 128.18730315898563,680.8982541271648 133.3284834423688,684.2525233555723 135.13193989754814,686.6209281305651 135.83462723684153,689.7021464537729 135.94419121578852,693.9512239117798 132.9140735242475,702.3361956754715 132.18405476513746,707.765923256004 134.51506105915215,718.0434133140188 137.97063682923786,720.1852067525544 146.16658353528584,721.7268126466796 151.35836017693262,720.8404964650583 156.06510594330334,718.9431845353872 162.49686332925273,717.0850888167962 183.16555525115655,705.0720202386727 189.78310962184176,703.7475581553565 205.5670825808196,701.7161947273516 208.36788000322744,702.224366698467 211.83882388800785,704.9362797213217 220.93695792600494,719.4921718643126 229.65680827157897,738.1127692850964 240.25873959669144,767.7901789581008 249.54122292343578,806.7839726758159 260.22088378261935,832.9881118046912 267.9152982459163,848.819396762121 270.7552940009894,853.3843266709955 277.20260783954404,875.2468408478359 287.6599928771277,905.1269376906804 300.5598533016904,925.056505037341 304.44766779925766,933.2709307888869 307.69988352052894,942.845165287191 311.77345066530177,946.3085811352925 320.9062196315227,949.6287002014463 323.61942524367424,952.7404419004629 328.6473091052942,962.361202985163 334.9130736962033,970.6867598471471 347.82578155756,984.3441628744604 354.54430417016357,994.8818637439872 356.70322314069637,1001.5918065255166 356.60233900182766,1010.0018324746075 357.1329569448212,1024.0 369.72641618858887,1021.8092233331095 376.98594480898697,1019.4724120923994 380.07671810599817,1016.962238698089 384.18816389656473,1012.4941127982825 386.23205802546136,1008.5717486310394 387.1642621554075,1004.5885801750544 387.009881358378,998.7940205461451 384.15613776178645,984.4702196700129 376.8611297342522,964.4821119970593 375.6927676488308,959.3893283939476 375.09432104824873,939.3972610535627 376.2898875923528,934.2447799661776 377.93297845265846,930.0489702995313 380.0220888923323,927.8494949972578 391.4628227526702,921.5359145817708 404.9720667762681,914.6660499955096 416.93982997352407,907.3556516675906 423.4744852761089,904.8461857534131 435.6996838337609,904.4858628894707 445.91370090124735,905.6416887124971 454.2820221727923,906.2721143164256 466.7460185618893,906.097657250885 469.884115497777,906.5037669146031 470.8090195522591,908.8067435329202 471.81755887142043,919.2245633829158 471.51630146984985,942.4958858740539 482.5081670537024,961.3715005508427 497.66049870442407,961.8302636810371 501.92071981756317,956.8781804887519 495.08821812553634,920.1679291533318 495.6687319124614,909.9395673952033 507.9619256128555,907.5657702960274 527.5636498027177,902.0835068510728 532.8090325500909,902.0763703168623 536.1746139286797,908.0032574920255 535.1846798506166,934.5356180991179 535.1821507174442,947.902995231696 543.5023304522946,952.545470433851 556.3632129667781,947.0705530120033 560.4105028664816,936.6051345578364 564.8599696256294,933.4839486474306 563.5177774859417,931.6834192726824 568.3782757570898,929.5195853568842 572.901032148334,928.2108598912107 579.3165863811304,924.2800359341567 584.7814179785233,919.377383715588 585.7297986093174,917.075026332838 586.0249958423626,912.2526798066449 583.3859352470623,905.4669074278659 580.4536913651948,901.9277106282412 578.1858185275132,900.640182039983 576.556300881773,898.7184381767044 574.2864412715621,897.4535363188459 566.1496401391472,890.065792797134 560.7743744058779,879.8772058705297 559.8383627301494,876.7094534903296 559.6452536262985,873.043522773366 560.1044313420331,869.6439001047017 561.7360747574733,865.1499224039144 578.7480995800347,854.1289826722164 588.3276830989378,850.3757791096813 596.0215327370104,846.9710915266332 605.6643703249904,843.0249738281104 611.0450556877622,839.3896267136744 620.5807982499066,830.9027738810256 622.7018970984544,824.3799540183807 621.8204609027428,818.211183668566 621.9256283236799,811.153069212271 622.373707103557,808.9256593241739 621.9387912825697,803.8391752320202 622.7988392100976,803.3666218003439 622.7267064704711,794.9830698264532 626.2862692286908,783.8708966189222 623.4536771874047,779.5964932014683 616.9276638159917,773.4026510046002 609.3656793692293,769.7557829674976 600.318511736573,763.2338815551796 597.4868182107267,758.294066847086 599.7194660206325,730.580145048062 612.5390550936372,679.0481642291339 609.7188602819786,649.5132998646145 598.7774248742771,620.890135225056 596.7159836597435,618.450971877978 596.2048324608493,614.5289749661215 595.3004419970888,614.5248326977483 596.0480172145188,609.8965331753252 594.9786660496937,609.4868608441548 592.5886993189589,610.3276419981112 591.4553917011718,608.7508411881817 590.193972061713,609.0697217160198 588.9466262517468,607.2990863609086 587.0649814127867,600.4022094093239 582.5714349816967,602.1758355729899 583.1998251768088,604.5834780256672 579.5664567867502,605.52937886433 579.0336709918663,604.6689873628435 575.5920768532682,605.9356812217505 574.5406596859164,604.1499160532536 573.5069838245867,600.3068365993823 567.7522278615263,602.4086796923889 564.7432038507213,595.1842276566911 561.5707026838921,596.3012878569862 559.9953805004554,590.3936099945774 564.8318069594698,587.7843503438619 564.6221249151204,585.0713570100762 563.3065665013013,580.0316017002127 560.9711252778811,573.7670038384385 568.3511403540233,571.9758112418416 568.4840423598123,568.9950940061617 567.5852277794124,563.3949924299569 573.3275162162663,561.1610343275074 574.0949719596557,567.6688373895872 575.4241662526949,567.7969764380259 575.5158949376454,562.4538018610147 579.3850820983307,570.1033037578898 581.6934324565583,569.1034120140135 580.0472569414611,559.2842982118025 586.1237321746246,559.3721485008923 584.6942966921666,550.6901270863538 582.376045698726,550.4568773524254 581.8196200473592,544.5922883669632 581.1561755903498,542.7377605964932 578.5119945329279,540.098205641584 570.8482374576018,540.9837750897877 569.791208011106,537.3447559722943 569.129898518285,531.5121036838093 558.7631196088367,532.7137678348693 558.8920969027816,523.8888142228291 558.541092326274,518.8258080830653 558.6691672378033,513.7367381488422 559.4435418125863,512.1074805327343 561.8556092534915,512.1026150415714 561.4336073522968,507.642135903237 560.5349537791972,507.35037287419743 561.0873145093512,501.6910410816073 564.1313554622569,501.7301440533789 564.8458610459919,499.0821652427958 571.6819824982896,499.9533693529122 571.573089412639,503.7051627918671 579.1651158566183,503.9128390352621 579.3798481863392,500.15812021648424 580.5983753359228,488.48098019864676 585.8864920624329,488.0091950583784 585.4468492611325,483.5007691979671 589.5391910468085,481.96077257740603 589.3098283461446,479.4097583311434 590.834808073248,479.34833527416515 589.9834583304638,475.00302383994745 592.1694820934334,473.4444954947197 592.5113203290722,470.36754761779446 591.7432946435783,466.8336406810647 590.2946974868015,467.06733269637266 589.3992482480519,458.71931873733047 594.1549660127265,457.0317600345395 593.9013254177673,455.42750273789034 588.7174020596507,457.05905936727686 586.8790902755024,450.8455540177089 588.5391722746165,449.7309912952543 588.0902659462309,448.7327038905869 583.9179778927233,448.2180772966585 581.104918653945,440.3814079550714 578.7150716977604,435.3971493387081 579.8333430316453,434.5300438868928 577.623609662555,432.33063893020926 578.8363478634913,432.1034981841566 578.6220810991036,430.0008889317385 573.863115733595,417.11600819131115 572.3434098232382,413.8901391143572 568.2633596615154,414.68372804350804 567.3608281353294,411.9284279481144 569.8154081569985,411.38300884444755 569.7912578232327,410.50539748266203 577.4118987479794,409.1557552437097 576.8677570236501,406.71673237871266 579.3847427038452,406.5149986835397 587.9827521358333,404.292110671694 590.7343568509237,403.9514047193627 591.7388666545845,394.3626679296242 593.6082916051915,394.79862868962937 593.7128354373091,389.94903755730365 603.1899998454898,386.8682352677645 602.3073797017973,375.93343378445604 602.4368774097981,372.8558486945486 604.1108591886405,365.5604485979644 593.1352720604856,335.4725740695501 579.5106006814871,320.9437028629885 568.9139292415297,308.5911235246331 554.1780746790967,277.8274649648613 564.7613389210351,250.24164388178497 586.5726289793973,228.3380873574713 595.675605489847,201.5276361677354 586.9573382439643,173.5924424261874 571.8001473786734,157.6401741921179 562.2873968149445,146.0715597611861 557.4479866374674,142.1138168950837 556.144945548371,140.16711798215442 551.923218383383,137.29335469838043 550.2799876177822,135.67889801962042 546.3905816912937,133.14140824445587 541.5256465301837,131.22159810042808 538.9469145596742,130.6208697555686 530.1637337897827,125.19532129021434 526.5831264760623,122.32296058079112 523.3287501306912,119.08642155424639 521.3961554795983,117.81555666497627 517.47369353686,112.0237955702006 517.112399770011,106.85767551640686 515.1532069505816,103.4531604452776 498.93495880959784,78.97614513251665 495.5781724251304,63.44629810931758 498.64249105632274,57.54714546165974 501.4503860682942,35.4229923094739 513.6180754246574,21.208252953512556 546.6886878957065,8.849072012974489 549.332798883467,6.296312846506453 553.4212976450464,0.0" /><circle cx="368.6197745547397" cy="279.33571255651464" fill="rgb(100%,100%,100%)" r="16" stroke="grey" stroke-width="8" /></svg>