<?xml version="1.0" encoding="utf-8" ?>
<svg baseProfile="full" height="1024" version="1.1" width="1024" xmlns="http://www.w3.org/2000/svg" xmlns:ev="http://www.w3.org/2001/xml-events" xmlns:xlink="http://www.w3.org/1999/xlink"><defs /><polygon fill="black" points="685.7733427328901,708.6892872093806 686.7131163014335,695.5798281356228 685.7507758546967,693.3508430091229 683.4789436438721,685.6902534377168 681.4834139166173,681.6125340475793 681.8864686383636,674.6402931885488 685.4458382775757,669.9151035961097 688.5049236439947,663.3340569126472 691.1948805099553,656.3805020460934 692.3203301043136,649.431081051586 691.9078564462123,644.030687640154 691.1176586563466,639.7896269220018 684.0958666817527,630.9731556025479 680.6473843985333,626.9740022572614 676.8076217492359,623.692536860272 674.8312139671507,620.5349367924666 673.7381034585724,609.4026019201727 674.5141426898382,606.5446710050104 678.5771519308091,599.7822429626924 679.0007572306101,596.519741579802 675.7986897811244,591.3020856594169 671.1401679795338,587.4796384913758 671.1074368779618,580.1557228973397 671.4785538745762,576.6804711486889 674.9232724194998,568.9350974796175 674.2139660462581,562.8255669391089 667.9106299023096,558.1598165890814 659.3645532586274,555.172411960418 654.7057994212491,552.8914116387677 653.537291817038,549.0436702245513 655.0682026660357,545.1789395498729 667.0471330365895,540.0753737153419 676.3088489788113,532.6708535958073 680.9425455143911,529.9483801354625 690.6211618418373,528.3281685943498 697.6000078082101,526.8275380743005 700.2762446350557,525.3187781068611 717.1065123831195,504.42019010219803 720.0427503206048,502.40963619159686 729.1905301156645,501.8544664422185 735.7316128420291,497.57068094253134 743.0601491954725,492.12290239500635 752.6801739979318,482.81466442817657 768.428907305732,460.3640394511493 778.3565509452295,435.6395308651246 782.1680653232233,427.13889774658014 785.625748749328,422.1102572874637 787.541210525447,410.8853618015871 799.1413063804193,414.1181811705251 805.3340226943906,420.21541282246596 817.6217043586129,415.43828166930507 823.3736023265989,406.9257321865108 826.4191305027522,399.20842465046417 826.0199017036841,393.80450914000414 824.0726597670234,391.1216099490184 821.3707727152088,389.19264960614873 814.4217429187867,389.99209812083086 804.0115665515384,390.0342876262805 801.4357057073292,389.724504780561 797.4727866570555,391.1041709362362 791.6980428420076,391.4316617598165 788.4892298252456,390.1493250429663 779.8070545157068,381.83436757108973 769.5232466231378,368.7510457486983 769.1892918464273,366.18486616817336 772.7159754732462,362.98469069161774 777.2045144533039,360.43592601758394 784.5826502167073,359.4802534688075 791.0067558191146,359.4717698584408 799.3508611309462,358.8310101350246 800.950020400196,357.8748640356539 801.2728985451427,356.27073694083504 800.3157399909401,349.8533158233606 797.6187613087106,343.7821809792374 777.4397999760865,318.79179048833396 770.4412908687485,306.86092723603826 767.6956743696867,298.38315034830487 754.1308085315612,289.9714697178824 749.472986808895,283.44187013221983 746.7520206069012,280.3701245782611 740.5230775051339,271.1461030985696 735.851044313588,262.3120204820741 734.4135492485754,244.05514491624115 732.4594535251113,229.2904496181544 728.9861808423674,222.42554936561635 726.0810485445558,217.53149912980302 723.0795009810685,205.7370912377503 698.4097504921747,176.63495948748107 692.4428187980315,170.59141368635767 688.7666897991375,162.1593126838876 685.8638265586894,156.57276500849878 691.1465385666544,149.38358628005358 692.4968745186977,140.39072748152898 691.9232332441953,135.45538420893422 688.5375867630845,124.69745933312299 678.3067886323635,121.55274119922376 670.0863602072399,121.1162585173571 664.1909881141529,122.60404041836671 647.3894048282704,127.94082840001943 640.0302045458145,131.47995288795664 634.2396410048067,136.927799281298 626.1215849296725,139.30336930864257 621.1745709040403,141.2271217993108 615.6557935721628,138.2253497506282 610.2305745738769,136.342749363929 601.6909700053139,132.9322042425456 596.2561028252662,129.11285445903957 582.6389727661316,116.87695574204031 580.025755169072,114.21194041711237 577.1900998305582,109.98040179815962 573.2980229876573,106.14541435472188 565.15614491169,100.81490402160455 560.1018346675974,98.53106835140841 554.6891369522564,98.56325068485728 545.0249296143277,97.86193191691405 536.5190249503005,100.22423580518557 526.6558530010326,97.82261679680721 523.518756425218,97.47624359463384 518.8243561614805,98.05991140592926 507.02856548579257,93.586383496091 504.0064104631152,90.3851870805131 500.11120656590924,84.23793796165637 499.707722970316,79.23014800618535 503.94321699292465,75.73563498745364 516.9993251280307,69.92894550789276 521.6761887569538,63.079257378048965 521.1522095331937,54.26184513602516 519.6265729529952,53.19809867411061 505.0119481502953,50.27964975570285 500.4246444209005,47.07301135297212 495.3702687279308,41.79312993547546 491.1998985145253,35.41655592098937 487.26173544503155,25.502419531670625 487.8332622844153,18.377736012337664 480.31626704717297,11.002689478960406 476.9610834619515,8.497877356819913 472.2047460846775,3.9906288823291334 466.92855405733917,1.3707829818968094 463.14562662366836,0.0 459.9980256638026,0.9762458291139637 456.77884639930096,3.1136175564456607 445.73949768530446,13.664495247914601 440.55239231495807,16.461117689152047 436.6216804759167,17.769929956891133 430.431664633522,17.80595989332369 420.9561700179257,14.551149960007706 415.15778445102393,14.60333900156138 410.08540895967076,15.463393004922409 404.87265642417384,19.02345355786133 399.082305119374,25.633357283217038 394.9189003126158,30.794381340407313 382.9573790004033,44.3744344166264 363.5002203274032,67.17880711732334 313.6014827175072,101.58210682519234 305.7037465054097,101.90406438482876 298.7000543851991,103.8371559318341 295.88845199544187,105.55187889517072 294.1361878952546,108.24686624702326 287.2557467977968,114.2224979051174 284.2613515611412,127.88072962397882 276.9213502617969,134.41229512728364 268.80808169105114,140.9096329289764 258.7324798199557,147.68634769016808 253.84929187262628,151.6593460667691 249.1756682112684,159.12697070823992 248.46806436716003,164.87114417900375 249.74982665762485,169.57808229115346 248.75664495040738,179.94116569763992 246.6274829217455,183.3020823760246 238.5036373479607,189.79813763544382 230.706406463924,190.53436162504613 219.69219835583604,193.41533231573032 210.16615806048165,204.10128792698595 205.94252219086096,210.04773867599306 204.83548821767354,215.77468074744172 204.27583698453455,225.77795042737534 203.55758564700272,231.53370992592886 199.23575056777486,232.46454343537687 194.6546469852565,231.05295284586896 191.41899204732624,226.64485341676254 190.2681677862422,219.63924319614216 187.7874620342378,215.2554089509324 183.61409883641102,213.8823824789181 179.73948040684022,213.67745027780484 174.9404827665176,216.13129333952259 171.60496864610857,220.2026575736037 167.98323448321085,229.27387393775393 167.22098051844713,235.78382010450912 166.18620022318078,240.36798316966838 167.2216426319857,256.23473551127586 169.17733085459133,262.52050548721024 172.11430200282342,265.7590849948059 177.76178997310194,268.75494481843793 184.76887920073165,268.35284485929776 187.6136306455839,266.17942764458735 187.91927341236195,260.804839096976 189.82163687611393,254.72252104180473 194.74510195821392,249.9633313534506 198.6418574066968,249.7899801949576 204.82473717073196,250.119116127271 212.13317498596723,251.27377790068408 223.22581491603592,253.79690048435373 242.42388266130322,257.149211072748 246.16878011551745,259.66819276507397 247.86718087652602,263.62108300192483 247.3110305684256,266.673625479263 243.2923916007408,269.16303633591315 235.87340750839812,269.9164175422354 221.1695116281773,269.51355161487015 212.73763205680504,267.89956003892814 207.94530823957933,270.35408139257174 205.0654875953016,273.28209075598477 203.24263487014858,277.8138955438999 202.12135523091865,283.93049083980713 204.70160741204182,292.4865493905206 207.05114344799205,293.62003760750736 214.16735289004473,293.4109016037803 219.8588270558658,292.366470913464 226.57242971090196,292.53627652057435 237.16289931533365,295.07282417695114 243.59787651027358,297.7331149727453 245.2706738911351,302.45201792159014 247.3766639784424,306.42177110679984 245.65792777958387,309.42323936807156 241.60781554537982,312.28060230080405 237.22656436583065,314.3663619863827 230.67159286574304,320.5787992409106 231.19532278744964,324.8485386454013 254.5763907737593,350.0467110333947 259.7684258226992,353.79815255528956 269.2966174702482,370.1545015286441 269.0870063604976,373.99185725330835 265.7291968275223,378.4376791716163 257.8973972880795,379.9390056831461 249.97118555447852,382.98242721208965 245.77355637747513,388.536329948696 245.11655499169763,393.51919407435037 246.33801899015359,405.936458488575 246.7598886936523,419.08563304574716 252.1324212170914,433.6440829811131 257.0420114779008,449.3615459783815 259.9037505220177,460.31950840947195 260.6746949411016,467.3043237661824 260.26661336568446,494.6824563143664 260.246593953532,508.584119308083 256.7842447150295,514.9516366355974 254.46411490964834,521.7699919747974 252.97296109222592,527.4783051156203 255.49769519347592,537.6480546804323 260.28951145204866,548.7163301308844 263.6516832747107,557.7775673356314 264.635868470328,567.479427734957 264.135171576707,576.3368808050891 260.87549105453616,586.1873297747586 256.7910559702908,589.8241766773 239.55264287264094,593.1281764340595 232.59540402405585,592.7554339865795 227.66399018421083,597.5017124408072 224.93704204758944,604.6939556246627 223.7498114079893,632.0339844752214 221.22396744234837,635.3739118548266 215.5440653285295,640.0871083506781 207.37283034851134,647.3620890506918 196.7460549498084,649.8866333546583 190.8411519849237,651.5059251079418 180.338363597775,651.7297055456596 168.11128322530377,648.3808554634875 160.2395368812346,650.2896612161571 155.45131490708727,652.357882716798 153.3459712520029,655.3259680540893 152.54564218303926,662.6166936630152 152.92216926943615,669.5912172318897 150.19618195921774,686.1105946481828 142.04527467725072,688.8989886532279 136.58616444596817,691.4939972217576 132.62719043368213,694.4974993927582 128.27111367691515,702.2645641322287 124.71630501163575,703.772037931032 121.31338718810997,703.5117496556353 118.30792715226966,701.6229558237812 117.35126153213797,699.3109632683531 117.7952606453523,694.2598505295475 117.37972280388875,689.7054184823177 115.21703992023616,686.0538679535712 110.5534117973155,682.5835680146187 106.21436399517893,680.4407587661021 99.89838115482264,679.3114438032284 95.39252309349499,685.0856088566242 91.21119709494577,691.8279143018681 88.96590134439391,696.3294409002749 87.36672494824477,702.7271717367498 88.01261431294628,708.1682879557809 90.92270189427714,712.9498639018259 93.05904889392258,717.419638332612 94.08042722287298,721.9394677774098 97.64771891304414,734.4726098941699 97.93427385178214,748.6634747327278 97.08595599037059,755.5797118850163 91.14190279636068,768.356457762291 84.98009043103366,774.1355173564007 82.89370813506748,775.3864483230715 69.49676506996748,778.9163825975062 64.64067140597467,782.5176054943927 61.10994125542878,790.0554957462627 57.849377626628616,799.524184833658 54.015103108948665,812.440921700341 51.03505069636493,823.8604105026208 49.67852718301201,827.2653112006218 46.008038238469204,830.5420043777394 40.390598525186284,833.7197081771685 35.380408937359554,833.4472963545052 30.82753857006208,831.6586295156591 26.361926623866484,828.3260715213213 22.860954197232886,828.5248626443951 19.59566724100851,831.4305304375314 15.598800918624882,840.4752831405812 12.592771845831168,852.2737700257244 10.735742558987866,857.960467538321 6.332143645194485,867.3671101694458 4.887407936415185,878.8710158886036 4.755519464182764,887.593637242862 2.5063560167410777,914.250918549325 0.9139339536827766,928.4373912976966 0.0,944.6040363409444 2.6830978443375226,958.6406418042635 5.0000923095291965,965.3366344572595 10.041248776298886,972.1769719204977 18.4724563796241,980.7437395316161 25.2088488273808,984.5848589775987 30.287076437768558,990.6470188788501 33.0640697981547,996.2044263174399 35.83376543610259,1009.0881359624714 39.65120666304928,1017.0126288709127 45.32834286149136,1019.2551859336063 57.59389082446195,1021.8393241119677 69.09014730073022,1024.0 76.08303415537509,1023.980617559496 80.10352119430985,1021.4953238775943 86.1906288133872,1016.7970874868605 90.54273840852119,1008.5377870217991 94.42384625653767,994.8411445156266 95.5472558562039,982.1667903911346 94.6262484797539,970.9193786169733 99.6196640227922,965.0111117572911 103.15998108270456,957.476023237579 109.10998058911218,955.0801920611414 114.833909319433,956.9308994601814 121.28740277889577,959.5838019630063 126.08740775441774,963.6928225516828 128.49939764508926,969.2299086056433 130.6145224452511,970.3897542912047 148.35620883794465,969.8079464808744 161.61314399067038,967.090565794051 168.6043058196277,967.0780714327996 171.53234179639566,969.0911222288125 174.44237959496337,977.3879686871757 175.42965460776634,985.7077924638519 176.0756775237287,994.01173122457 175.76402478292846,1002.3313374357938 177.38218539336444,1002.646489859359 183.17397047857568,999.0927692733219 190.2698621515093,998.4255672044136 197.6727565047188,998.6860547199863 205.7367702645449,1001.5288745832399 211.53624078684922,1006.3134069609833 215.41302048139528,1008.2076715739564 219.6006152579917,1009.1372325175464 222.81718103254437,1010.7275346938172 226.54773191841184,1010.730229295728 232.35996924624544,1012.9566100718904 238.4453567679292,1012.9388747797948 244.78533122032346,1009.1322230995811 250.10170150187102,998.2436825261937 259.1090347186459,985.7822280658834 265.89323547698353,980.4784449882152 268.78822328457267,979.187314512548 273.9424464628652,982.388429402852 276.77639794342866,986.0380926404051 279.9937419357391,986.5746051049058 286.5747038555752,986.0610585109313 291.3792316707938,984.0370181342403 293.6594988607493,979.9881392659221 300.4882057513116,958.9781691040471 309.09257769079835,949.6091625083477 310.60800245073017,946.5789730561338 313.8953974657811,946.5820234833149 318.69717820596367,948.6077612544866 323.2554647881861,953.1644312432867 324.74914174505653,955.627277194724 336.7035258220372,953.8699421908378 349.17553249518954,945.3147594776514 352.8504543638971,944.8336362121408 356.08764272557426,942.883407984717 359.93331839191876,942.880989955934 364.41613141901144,943.507851915961 363.77621148850886,939.6777614133485 369.8513532425417,926.879946379793 370.8028991561682,925.286536498008 377.5389071391086,920.7987640844661 380.7424861046536,916.9675691021428 382.01709576437173,913.11935215499 383.9254953845916,903.8464897770413 384.57263687355345,898.727371306444 383.91431891376016,892.9746513833231 385.1945881453153,887.8601378148837 389.338469968813,878.25215849657 391.25431513468885,871.8641939812608 393.817132898871,865.1548736309551 400.5417777146736,854.9112296523152 401.17491205721853,852.9929476405666 400.2040888001787,845.6392013995319 400.1868215420604,838.9220047687302 400.8247539599333,834.7550437871745 401.4587149986052,826.4569384097055 400.48500700099544,822.6214251678844 396.9575163003238,817.8274236768875 396.3092586826987,815.8900717407737 398.55812869679005,812.3841758767162 401.75094852068537,809.4947257562668 404.3188341963987,806.3016878972356 410.06883102483755,797.9922997814368 411.9837791167394,794.4589333675435 412.31917233538314,791.9201706626283 410.3835525161518,786.4776091906795 410.04663595580524,783.2713314843315 412.6167767986089,778.4760411712482 415.49799034586414,770.4872018802896 415.47050213345454,764.4165821951036 416.42822843858687,760.8814995269278 419.6348452125448,756.7337497092676 424.75313692442353,743.9438290740966 423.7905175467537,741.3762164003599 419.59522535386213,733.3910242536964 417.6664779115497,731.4667193755753 415.42059226562895,726.6734910795449 416.70865564126655,724.7510182716677 424.0753568177756,720.9140309394122 431.12145226632566,718.6850918902167 434.2046034540992,719.3125947222799 437.66099735381493,721.008157684417 446.31860456853184,721.2783180207714 453.57588963417976,721.1408853117675 470.3565296109479,720.3458971264271 499.7599350664139,721.5998399632726 506.15537864792276,721.7859100329151 507.3200693764764,724.6166612794013 514.9349676667457,737.7695566563341 519.1140245609951,740.9702168298339 520.083661214807,744.1604354603603 520.4068919369507,747.6841602867224 520.0820506687601,751.2021695091314 520.1004567718662,763.0182385293168 521.0553216145634,764.6131636553939 530.7111478414236,761.078478616583 541.6261527154635,756.2534328196903 543.8911843936079,756.5696367621001 547.4107377969194,758.4694014693757 549.0324476939664,758.4742211710723 556.4329706919884,754.9176260042798 560.6024390397052,755.235706945655 563.1745645347029,759.0654740038138 565.1079241898597,762.8996255188606 568.3282408849474,764.8019010341206 572.8447255403113,765.7394953053831 575.7380960751124,765.731930789482 592.1568428946284,767.5875075361291 597.6224882093429,766.921612764497 599.2485066065966,765.6277995698163 600.1913895785618,763.4018019078251 598.2523936796503,756.3770805959334 599.8643477096866,752.8564660656389 604.6667617768502,746.4312983394077 608.8561063807058,739.3889084737473 612.3934429002492,737.1257567205507 617.8695192891099,738.3905328411145 623.9830463557386,740.2837332228511 629.7842584243549,739.9394536033719 633.6444092027864,739.2782963786563 637.5150851787041,737.9838082408971 643.3075959285392,735.0747028547644 650.0479295750895,728.9868533404564 657.1323560002495,724.7981500366706 665.4921688592486,716.7638492554076 671.2926189212758,713.2206568060355 677.7244113391117,710.3242300302152 682.2269811535575,709.0325481725147 685.7733427328901,708.6892872093806" /><circle cx="423.2878607327646" cy="402.9513188191943" fill="rgb(100%,100%,100%)" r="16" stroke="grey" stroke-width="8" /></svg>