<?xml version="1.0" encoding="utf-8" ?>
<svg baseProfile="full" height="1024" version="1.1" width="1024" xmlns="http://www.w3.org/2000/svg" xmlns:ev="http://www.w3.org/2001/xml-events" xmlns:xlink="http://www.w3.org/1999/xlink"><defs /><polygon fill="black" points="699.5242454065257,855.4725881893908 710.779461573037,855.7178906805593 875.9747554796083,910.910432230526 941.3244338003599,896.3427178970448 976.2560563973061,873.0833764246231 998.8264416521262,820.91947389278 1005.6573445065226,754.1333381495623 996.705693494186,706.0767233790708 961.5731216007032,583.446468059391 954.3238202588395,533.2665750298627 951.9901168890643,494.9925930586346 953.1852279904815,467.3128808968476 985.9966675952991,437.76790221933584 1015.2345823369914,396.69164548421566 1024.0,376.7529532616725 1022.4051096463921,343.69627750381176 983.6728217814064,318.88199274005126 972.5667510789214,294.0652420554019 966.9440770693608,276.4736888956031 940.4787873412657,237.523091454765 931.0637712400755,202.51296464057395 925.8717274070804,179.51942751077536 911.5836817210458,167.83291671598317 909.7213149850103,166.53819056479097 845.9159145096972,140.86369491267988 818.503885228514,126.33636327256954 806.7042459807336,117.93172868344948 805.8825179759043,117.84085380231136 783.2841299818525,126.00249562753925 765.7740985939478,133.1848853225099 762.355945164051,129.02029193982708 756.4477728225406,110.8609967362886 761.1726337375844,105.17875859180344 766.9201541858873,100.38054589961018 766.8470112567554,99.832780286113 751.8521086286514,51.6495818061004 744.940645817164,18.4625999410506 746.7671503368194,15.205427597570747 745.7367536607953,12.015528575785538 732.7796879553788,11.357557615485007 731.5031136639969,18.702922348827087 723.0764522018804,17.791158448321767 714.5667325011489,17.704760213170857 709.9182711653872,12.891983340712954 645.2439860891897,10.500815466487552 625.400774316481,0.0 616.9588685565914,0.16493109748671486 573.6951584403658,2.695488426050815 502.9779446698541,6.947259974544181 477.9721245536583,12.291188462127366 458.20124925769,28.788510582437993 451.64709321467365,32.284244788969886 441.7190378010978,35.606882243867744 425.9276050386135,39.621881517212614 404.68210951428813,48.54333478399792 393.49153577974425,50.21362835372247 376.4612966096088,50.05825021095279 370.5899643878795,50.92234352533228 365.75663744210823,57.245471984217716 358.2980113281555,53.82105447470349 354.19718905329944,50.89003761001504 349.21210836298377,50.392138845896284 344.9439143976059,48.91920679389693 341.12528841201066,50.0154916202996 336.23236837760953,53.84965520612411 333.5109082713644,58.19148473876783 330.77891935182186,64.72157843859577 327.50242003821813,69.07388805327128 321.50309040529345,71.27212787390329 314.4381309622035,71.2978834721946 305.18111493436044,69.15024604436974 300.2864896600143,67.539816022384 292.11659390534123,63.77202762387901 284.6117927396279,63.85817347905163 280.46499281004867,66.04901888074994 280.1057028624492,99.22676234645166 278.3297472426594,127.82457859321516 278.16236905531713,147.28108621627018 277.81325215422845,147.8368705043938 250.6021532441332,151.99554234071456 243.8056019473114,151.7743782245227 240.97709575615556,156.65923844090844 241.38333678770695,161.97781681173865 243.71644766539353,169.52168789046675 238.14325975115622,187.16044026557097 238.32836267150802,187.79702401578163 245.43619978106398,191.4652344836128 245.34006844610934,194.01160117630764 252.34537762193835,194.45701844754012 258.8051797591454,193.02773264547022 262.2330179779896,188.3971914229387 266.6124658942581,189.72382278564328 264.392280501718,197.05142530121145 268.18827248783924,199.45195420344191 267.93827808170187,203.62011249280397 266.0161043088936,207.75752807945037 270.7436836031944,222.68197861484464 270.1213090306778,232.15003014608567 268.1224566320486,237.08613712650936 264.5954050853762,237.54624940402869 244.7505486005601,212.52112395892743 237.94950735903345,215.38464017322178 232.2410525569827,227.04173998999613 246.34082001953183,258.38464681606354 229.21495634409217,299.96184701277195 229.32382875536726,302.524311009719 231.18461498862732,306.76626216762645 231.06693105397713,310.88975802887217 234.22732982310023,313.3138556503259 237.51146731636098,314.56189018267287 265.3422419214286,317.599042596966 273.74482495308536,317.34244247039203 282.85107866347164,314.14014918595194 289.6890673338419,323.40843961064513 295.65502581062447,341.40521815096963 295.257151234854,349.7019923224475 279.77948707632453,353.839103478672 267.529835387237,359.593418693323 260.08409838081707,361.756301057443 242.05779422289893,363.501719949311 227.4896013825715,360.42703415625556 203.9779597399722,359.39336861720915 188.658354522649,361.6799407855615 173.50491428782755,371.9965626188464 166.37380154357305,372.8590112188384 187.49370012922546,383.3039493984311 190.68333694490056,386.68934755715975 179.95710423260138,390.0914723038719 169.46052888860774,389.8237965758492 164.84799455379496,392.8128724698021 156.84047949092042,404.8762715060062 154.9735529326931,416.7664539325652 155.22427329493217,421.0425565279353 152.71829151938147,422.0400370879621 146.28745893325916,422.63211451021823 124.72309215592678,420.16052582704157 101.5670839538544,419.3004767105962 96.2749758758273,419.93487178594694 89.80673369213974,424.2017543618093 86.51920670085825,425.0107042325011 78.340736791803,418.4478080472901 73.17686126641411,417.04644991836966 67.25503113703328,417.4055074404215 63.304597789727595,419.65627284981144 59.47418861952865,424.7083195962883 55.79552440332019,427.7889841722323 52.897458264412734,432.7315069334129 51.43011596199851,433.9485954860772 46.81851013327395,435.3314565045282 44.961118347927254,437.60938580042404 43.15558000227726,443.4958954995035 40.926891277904794,445.13808724194513 38.0442704666944,445.1242109467711 35.614720911154656,443.490294311226 33.396106831665094,443.8943632144445 30.536651013564928,446.92257711955324 27.07230486853313,453.041512565443 21.746978200184362,459.4473605354634 17.808558242589548,462.46752556160607 11.583283945919533,466.17603355287065 2.971835906681927,473.0434153249614 0.0,473.82767705800893 1.5652499601323318,478.3556609419293 5.395642145345425,480.92906167557726 23.63438637526497,486.03834242174514 27.636864592009136,487.8576615522935 28.179597766224365,489.0218563317297 24.45658672295437,495.5570545795604 26.6961089826726,496.8578493343932 33.395944372699596,494.53129307526723 35.86765120721395,490.94960095112606 43.05234116717723,485.73771966474527 46.923723997836376,482.39714052058764 57.16891556106636,472.1354010857246 62.168052946472955,468.86770210714343 69.1442685976315,467.58241104635755 75.91304903349219,469.77276711057857 81.13751620093493,469.3505746344872 84.20093992230059,465.638160513419 87.45901536405373,460.1750451998834 90.31202110621894,460.18651957986054 93.13254571971389,461.94351660582527 96.40789255995462,466.09065709312773 102.7340835140565,472.22969137304796 110.15759491088279,473.1162269743744 115.16892724676151,472.24739101284587 118.00455116475321,464.377494149231 121.28088517056703,463.95356919019525 123.46286423765284,467.23183225791183 130.00698174718326,467.6727273667463 144.41294353569887,462.65734841493077 148.996862629787,462.0079046978565 151.06520988757052,464.5460810999449 153.00046018107946,470.04741386631014 159.70510984678916,479.980187217943 161.66402601471694,482.2279319383105 165.50279912448588,484.512517858343 171.68696459344665,491.7172333190286 172.54865078206123,497.9708646659342 170.97328661078762,507.8450698970784 171.67876805934145,512.7905475280968 170.12317840394533,519.851959117357 171.12378051642204,522.3362179172382 170.44675528539096,528.0330831026588 165.81067451027482,539.612379504629 162.61247450298515,540.9169276637389 161.59883626144293,547.8399946067315 157.8820477005844,550.6220177568482 153.3392717558931,560.6158898487142 151.24428331368514,569.0973936316652 149.95766606889597,570.6352410832868 154.62772333381267,573.3834923162003 152.8353375303138,578.2499608413161 148.02487400891968,583.0665975185383 145.59823931399606,586.8349322177606 145.0634894135169,595.9415568962389 145.26145662926928,600.6238071422104 147.469927465046,606.9418680605127 149.73543763576652,610.8163304060857 159.77529716834675,610.1683573945174 169.07703215954376,610.1111889241765 169.49926944476763,609.6075141704464 169.51914891037882,601.6173148202299 173.85803025053136,601.3838143428112 189.88730479376673,608.3299901007076 202.41490969637596,612.8342323627214 211.88319272945165,613.4961542853696 222.57688183833537,614.888084706075 225.53568925752862,614.4285304625157 239.80674987603686,597.6478492298791 249.97605755012603,596.7625177000878 258.56354407753827,598.6852275913053 267.9856865482376,598.9887345481151 276.42956360161173,597.5937326211349 288.25698417998785,592.6118019224868 319.1798583100389,578.3387854651701 336.4861291921471,568.978495348076 358.95130381337543,565.9008702129006 364.9253334516093,565.8799698562043 364.3310199966578,571.3282099427629 371.5778031579314,574.9790448449661 378.28451819436276,576.1529395246514 387.2639812847654,573.3564481784506 390.66427074108014,585.1328330356412 397.8308685539737,592.1306285503842 399.4709253594167,598.9511716550157 399.89678231732404,603.4187681453704 397.6841089240717,605.8553742147797 398.8318601678437,614.2622149709118 393.19310872655507,618.498704075973 392.45702911623687,621.8879456097801 395.00457471174957,625.5905964117162 401.140519201604,631.7488758656145 405.64797561368295,634.89102214128 404.3115882579947,638.621859870488 394.7969099499638,638.8890353170824 392.6322122966858,641.7099719578231 390.6990029266277,642.0947755595512 386.6554009201061,640.0529304686712 384.81358405641896,642.575252645637 383.7055360685831,652.3031730326688 385.7556482418973,655.8693091107338 386.17710789546845,662.8527986371283 381.1737377395356,666.509703689054 378.3878721967971,671.2601856091172 379.0634115630217,679.7248165479978 386.94209426488715,685.622161555289 390.7573034817093,683.6954022549162 406.54454770883655,680.951507676887 416.8695158476249,678.9076124754622 420.4849871875017,677.7813786573469 434.3294629473709,670.7430915207816 434.683090310358,671.5423653190546 435.54934372550986,695.0075437471945 436.70101794315167,700.3446598159694 435.30967825692926,706.5394560741054 436.46840958671476,712.7202177268146 441.49309666084224,720.1480768075754 445.8852711687914,725.2029425517936 451.0585989211555,737.6416902123322 454.0452332450554,743.2287013223415 454.37127215782317,750.9492921800647 458.6423094653776,755.4924868665142 465.8683252157012,764.5334709763756 468.1032101997359,766.4254281904256 477.0458636820722,768.0222168600626 485.47029633848524,773.108039447591 500.6743374236577,790.5198986695716 540.8906613395229,846.2076036830292 548.7464505382053,856.0993981232815 565.3091408019811,864.1825241207039 578.2683022626852,866.4211356747281 591.2209167689059,863.6714547198613 638.9837383385719,858.6356134541693 693.5185376959861,855.4217361655342 699.5242454065257,855.4725881893908" /><circle cx="377.36081617153525" cy="435.4654711221664" fill="rgb(100%,100%,100%)" r="16" stroke="grey" stroke-width="8" /></svg>