<?xml version="1.0" encoding="utf-8" ?>
<svg baseProfile="full" height="1024" version="1.1" width="1024" xmlns="http://www.w3.org/2000/svg" xmlns:ev="http://www.w3.org/2001/xml-events" xmlns:xlink="http://www.w3.org/1999/xlink"><defs /><polygon fill="black" points="519.1941910687747,156.80811720762824 516.2455513196074,153.64189611792665 512.1957310144983,151.52955196527705 507.5890273055781,150.64302815380722 505.06286342190657,146.80140740663603 501.2703478982365,142.57126618353948 500.2257807867859,137.66617159151133 498.1501310122709,136.41052082621184 495.08825622267364,137.84384736133575 493.007487449416,138.04911782084162 487.80244608432787,137.19388392259236 487.27060294571027,134.8951819348306 483.868071690413,133.4751039921814 481.2536551648641,130.5953808928664 480.9454596925699,125.71013487856669 479.3100069671471,122.79831575402306 477.541523707046,121.12134508514293 477.53967481363725,117.61719315564983 475.3801704558711,111.9764433622048 475.2933134646538,102.63577842402879 476.2779838697563,99.57979222637402 475.6854326446654,96.83239286992591 475.90694337288255,93.21502079410914 474.55985760526903,91.7324684428703 473.5784705912474,86.15411505630641 475.1964823622362,85.67309450800076 477.34541261574077,86.38764313386889 478.7943410368598,85.14094824904544 475.71232815015156,84.1617746103052 473.0301008239774,77.33650211939948 475.0149097148713,75.28306012003395 470.67661077503266,64.87468468337727 465.56228944651826,60.51446668292681 463.31049888293813,59.84985303414612 459.5100067441553,61.34397047096263 457.1506300932973,61.35418591193559 452.13809803928706,59.80422417519958 449.4105630379067,58.2626030486997 447.2419301854472,56.05699747487665 444.0367858664807,47.23083222809464 441.13914677469654,44.719437787814854 440.602189718622,47.52849267331237 439.052829242135,47.97760559725191 437.33876129660257,45.99792635155268 435.75927891801564,41.40025907741858 437.3371123196602,39.68484820352239 440.3752561128873,40.04185785061679 439.33567339183037,37.96745152287531 436.6636897696523,37.753090066836194 435.0242471633063,35.9661860639568 436.662357819846,32.56542346740969 435.9891590815544,31.360453831946643 432.4944980230451,33.16900630092027 429.82259223632343,32.872944515325116 426.46964965162124,29.62529704310066 424.2199656611959,28.685695268198856 420.2770707664663,30.015693283794008 421.90892303576845,33.34348625566486 420.72577849191805,34.16131095590367 416.47702375678267,32.46727837228764 413.7170750653422,32.28403908684163 414.30762373918316,29.310059178896836 410.21576137487216,30.535981814131787 405.5039831888181,29.321877946316363 398.99689214248764,21.20125973690631 398.26329137342555,18.76131324770961 397.94434520997595,12.724475911211243 401.93996588223314,4.68704617025719 404.00070843224205,2.419453966642436 403.76832233748627,1.5424889058342615 400.04460586069877,0.0 395.55859789990836,0.16315079155538115 382.64013563025594,25.348015830012514 376.5540723977172,46.083102163154535 374.9471644242232,54.122067917719505 373.61417332022785,58.31944681675941 369.66851371051024,67.82080087089037 360.3438362063712,76.67743549170746 354.2065083056868,83.58212877769404 346.9947484369628,93.66590899339258 334.24018730746263,99.22876546973316 330.6063348258208,103.59162042125854 333.9280948084169,111.27811184843813 335.23258671319513,117.2468474203555 335.6924927977034,122.35679690894483 335.54218189437387,125.64767000195297 333.1172506185084,130.81758298643342 332.6603986868474,132.82161011196365 330.3211918983814,132.78905834145428 325.58690357865396,128.81177956250008 325.6013003466787,127.31927817846451 321.58990404040094,125.0386714593086 314.8747446579324,125.60616164553198 313.16610115357804,126.11692621716134 307.79146294314046,129.13960941876735 305.32645124343736,131.11081969402585 304.6519312230219,133.02192601876936 306.4857372540275,139.32866378787617 306.65463592467967,141.54620519948799 305.5715130592246,142.92680863190662 295.9603492645324,149.3597053081071 281.8776161404487,155.60505810929942 281.6724580354277,157.48675444381172 284.97924036581884,175.30846939506432 284.30964824612454,180.16369752844003 281.0829104385691,180.63215639608825 275.76904923773543,180.51484640071317 267.5991595080905,175.8673391481699 264.63928202628176,175.4865260295793 259.7576239803596,178.44674145046474 255.03182884193583,181.98911520863896 247.59542198718566,186.40006058285792 239.48899390223488,200.01153121862046 228.95106438349274,213.47708956622455 227.39979185616752,225.65635608159494 227.63474355068146,234.4410325946759 233.64435984889786,235.66579373353318 236.56839094620392,239.31026735784508 237.33845991855642,244.6303043067221 236.88724011840515,246.97146422044932 234.23853431240298,252.99235868636606 232.0027088321818,261.0215712748626 229.90626802127446,266.62397929112103 228.1223364577405,272.8830330215011 226.70307191656835,275.4084685290036 217.56139263381942,283.9708438287672 214.8536312809938,287.33449595532556 212.87273251767618,292.20260453005267 208.44585001838482,297.55895440701613 204.81373141117024,299.9386303330318 196.08595537988026,301.91103047598585 191.0707659182549,303.9622151409244 187.9549345399834,305.7266565854103 186.5415409803092,308.7949481283541 182.75362124491411,314.3572321389912 177.66866088416324,321.0633207296265 177.1151019973078,322.87389161519945 177.8275864937142,324.7975496174829 178.0788832314553,329.90573985025844 179.35661633267054,336.7136949699427 179.18670421483802,340.54014229609606 181.42470359171594,347.58491842891976 182.6004451374159,354.6096079048691 186.41336953915012,361.2783139969599 189.34596724118302,364.07638308031017 194.5077077155701,366.61228330036204 198.28556805580402,369.32973415324375 210.23006981421852,380.2484554135683 215.96628035673382,386.9206211932204 218.75426905204762,391.8574609641695 218.71053651247837,395.3596282324737 217.09240913447442,397.56953395900075 211.73119304212165,401.3099826541412 208.8239393390215,404.1318848215286 208.04482169285842,406.1591918847196 207.83807756910815,413.1633623981036 208.33217158063076,416.2453361315672 214.22122322845544,427.29132347731627 224.68509181008017,444.7664729100568 227.1306289643554,452.02950290505146 228.93617852129302,459.7033628858122 232.22816606344617,466.4573922079936 233.02807752856867,470.50553306260394 236.28426059880545,479.7993967749769 241.2967423987774,485.39814846390607 246.68871822724375,501.9393512273524 248.34929911760148,505.261489246324 249.2951124109068,513.4588932664212 250.09077434125294,516.3389101714649 249.6884544921345,522.6105484465085 248.09997778457378,529.381591541911 246.6639806918271,532.8749253488268 246.98381301191017,540.7453976632787 247.92091601308772,545.5740929624485 260.5219251838591,557.7814942631303 275.5893379811075,563.0522596055391 279.94665231141335,573.6752806119616 279.77961015788327,586.571392921823 269.1478820326208,595.1948491875894 252.9887929067827,588.5059956994127 244.9618290414193,576.617858838699 239.26836904802462,573.4343052298736 233.67113011328547,575.9386410322113 222.81311043770856,583.5018610443841 216.71152760536881,585.2374447969914 209.44309523932904,586.0999729795191 194.5525741569581,602.4235659693607 184.61056255549036,606.427503464047 178.43349863545131,607.751719528396 161.39501011134197,605.4606148803371 157.64096517673858,606.5411585248098 152.37915158075927,610.2963221097865 146.86925737799555,620.0800169516241 145.69635903618033,627.6033516318691 134.511252602476,634.4440935989187 113.38769652993983,633.9462740497273 104.52896732381606,633.1285341422686 98.22372524942453,628.931825087514 94.0462685941835,628.463753240007 81.09722194224695,636.0961138594143 76.46150868515922,639.5218077551174 71.70133573768096,656.8036923916277 67.05894763172321,660.1067226773831 52.01047710836127,654.7801809498495 47.10136979034952,649.2311233243522 45.69573644624519,645.6886369164746 36.880668577164506,646.8897537094921 32.89125856927618,651.1870272763094 31.581875723764544,653.4086536674926 29.64746399521864,662.4198705200894 29.159020320015006,666.9720501762994 29.357307638315888,675.1689475865087 28.649656198015254,680.141441905974 28.60633549888079,683.5378133994689 30.19248392789128,688.7531633718095 35.61599869740204,698.9629894424816 39.89746739297635,702.0191787488371 40.977267367122714,707.3982163425079 39.36362330349644,711.6826525677133 35.43158323740735,716.8440624534462 28.630080675870122,722.21536022383 21.973481426994013,726.179553499316 16.531128978279714,728.9581079474453 13.062425284464835,733.8642532213578 10.202368653333417,741.1838750000192 7.55930091225797,746.5017159699328 4.418622416206663,751.1841719718782 3.5509330392213325,756.2210007503077 6.042642152244737,767.7627655901708 10.41259047533796,782.1958667894182 12.72348207451984,794.9921568473958 13.392102452062243,819.8683236347644 15.291187742866708,823.0563249404928 24.134996236106467,825.5736366663955 32.758854336854924,826.3230962605949 40.23358565670909,824.2143036431103 46.95925484484412,823.727484782085 48.4737121317279,825.16776551558 48.86273700655643,837.3472226859124 48.39960622243947,851.5584934521448 44.31540263830598,852.4315753505379 40.23197618892379,850.9945375653696 36.921078686816074,849.0364046357611 25.906764261000568,850.4467979849597 20.456846119580884,853.9151431668397 17.27449068444867,863.5811293724366 15.652472014756915,872.7485347344808 13.800716976784976,874.7869376923105 8.224505543061868,879.4150980559036 3.265139664038401,882.8340254058767 1.2336135271610613,891.0565578148646 0.0,897.8424799062838 0.954031907791564,901.6659256075627 5.166062994000411,903.9793866841889 8.508435488212855,907.0895662294728 14.107948523750563,916.1027162564827 17.619815837437162,920.0473851560124 19.89215732948332,924.8398695020014 18.426294017825906,933.703598796926 14.619900670224663,938.0193375511409 15.366505676619742,943.1584459307417 19.21016491771474,948.5314176053284 21.356556267707955,955.0217506816465 21.790268414257884,959.5019041494143 21.584325735840586,964.9482335852964 22.55958300765504,971.7341384840959 25.646958181555163,982.4202703538415 28.753270969277043,984.7915357793637 33.91316504317589,990.1079467947127 35.14082131045555,994.5398726487138 37.84329677851761,997.8462212746354 39.834864012951485,1003.195733089597 40.9470289871217,1010.7326461387867 43.44597445703156,1018.932750929247 45.43414301379648,1023.3070100585143 49.17226798177148,1019.2944164521199 53.977177467208016,1016.0256940849905 59.194825777526006,1014.0647437810891 65.35142284242968,1014.7363600785357 68.75366795193851,1014.4452214399593 71.7322683232217,1013.5060909620585 78.30555101905072,1014.5173390707861 80.63712950167319,1015.9293010912743 82.94260423429,1018.9058752496704 90.38445054163317,1017.6973992874283 92.50427504122592,1018.0409019130733 96.9455836129102,1021.1549839516833 101.60926193595117,1023.2200524539646 106.15778304247331,1024.0 108.17802595057996,1023.7053509123269 110.10454669332447,1022.0219214202766 112.2453760522998,1018.5313053103495 118.9779198886135,1011.2541271702618 121.75682758314507,1007.2398798749078 123.70035303240567,1003.5429621947435 125.19364625004506,1001.9642398573236 129.8801675421271,998.7133302402597 136.46644048530143,996.4314182432136 145.60964559006192,994.2887904243796 148.91144555056647,992.40320111849 151.56554904436365,992.1090110248259 155.37527705816788,992.7639571183859 157.7935320065197,995.6765515578165 161.74763929197366,991.9915599756396 167.37331198221435,990.6541877573551 169.92366558708105,991.2123229299827 172.2481080071877,992.6043426893992 175.85401356397594,992.6300036421003 180.53553892093714,990.8588167853403 187.77998624490314,987.1166092100536 192.75976194112204,987.2568397660052 202.9208115332359,991.3709563952962 209.69718032042553,994.9463502436026 216.79702938073885,996.7031419523659 218.91710148725332,996.8187216231344 222.75042710276355,995.8980520875924 227.41538073000112,996.2518487161508 232.44183792726392,993.1020098340973 233.72308553176393,991.4070630142512 234.58824643612246,988.551115920622 240.26842294658516,979.5433634256178 246.04824390468806,974.1839895603114 252.77456246636075,971.1482462649958 258.2946237063787,971.6057332362421 270.38574869935576,960.4260779855773 272.74047616992294,958.9578699467812 280.6588486439551,952.3048895173246 283.0208225876766,949.0289635759611 286.9800754341537,940.8524190198007 290.6333166831486,939.2013330694674 298.5128349917603,940.1929385471024 302.5690966332174,938.9311514294187 303.00111528683595,937.1442468341402 311.9406215464473,922.6222528415118 314.5130337210026,920.8253787236043 322.0841261898549,919.8022523259581 328.70509004475036,918.1294532867173 336.267932640438,918.0511194468763 339.16033461372643,917.5276007709939 340.43345309585305,916.3786566154529 346.7892707084513,907.03160915737 348.6302287436947,902.1638234689553 352.28214485503634,899.6269431972147 355.38669273267124,898.3653206642332 361.4574644255436,898.7061597377384 374.5800860683094,897.7928979616571 379.96891500213775,890.5726094207128 384.8024959454738,886.3517252265921 395.4005625683247,879.8005143790103 399.6865920741269,878.3099744139677 405.4572042951923,876.9545858020638 407.70541502078004,874.3459900784078 411.4447206475925,876.8929989454656 416.38163505766965,879.1097787147937 424.84534672845996,879.7258862555577 426.3832462960581,878.3796610269653 424.9739310614879,872.6290449094622 430.3727024922,862.8596691525997 435.0339911348826,856.5645332590316 440.0965446915331,850.2876808898836 442.97921244080516,842.9972142356545 445.8969637076891,841.3426238390915 452.46635331435937,841.1142466649908 458.9034308625129,838.4625536528547 460.14466833696343,834.0886326822986 463.19324472670866,832.1055113962018 468.0045889213937,831.7233287288159 472.70036550694454,832.3773986347366 481.0955370139049,826.4089682620468 484.5955621414732,826.9613517224348 489.28404734341825,825.7572760073463 490.491918487949,823.3631227180065 490.1195209540394,818.5690757031277 491.02666427284333,816.3827381044372 496.8481601362994,813.5759351266128 500.87873631696135,811.0574852553611 502.0215961682722,805.5542301762295 506.345820823434,802.0398693604234 507.30615267346604,797.840017355664 513.179316905363,794.0277136826285 515.9141540381361,787.0140295724434 518.7613466965526,785.3488210275577 524.6309418511222,785.5201918745563 528.2093618660454,784.0377387361751 532.1301740401076,781.4184351963621 538.6942973715136,780.0572979398393 542.5729898641926,778.3906895260329 544.4538276130879,773.8819633617367 549.6905551411933,770.4489098578034 553.2355218305971,769.6759601667472 562.3086387884362,770.0761872628877 564.0408328877064,767.057945793744 567.7637714943224,765.8728885224454 569.7184674005696,766.7643038843669 574.9791028633256,772.8040096511802 576.2353697823128,772.8433351077213 577.2230094552732,770.2967132845021 574.5892713594048,767.0053222828649 569.3640993193682,762.4542793307403 569.9031563742942,761.3450137117512 572.5411119386104,761.8240462121603 574.1994556018803,761.1955073360284 575.8973773778639,757.8694121886206 581.1211339198818,756.1186705039073 582.3555523252031,754.6080713879709 583.428572129257,749.660438482947 586.9891056548789,744.7301285830699 592.2609051593022,739.2135690604159 592.1156398194864,737.7862119967738 589.2793512702035,735.8505616672617 589.276457447316,733.5423962129729 592.5436556769461,729.9768237327607 594.3114946754414,729.3905641044687 601.2449682080843,730.1712677733624 606.8927972866032,729.2199765978633 611.6609555014988,725.6222650355 616.0119856130883,720.7216690031138 619.0966340183543,719.2081092437113 622.5993648153291,718.772873560385 623.6296114720433,717.9407808158414 623.4815689336195,714.8207921193855 620.0672738849962,710.9584494725583 618.2657187196243,707.0010107558144 619.760090722074,701.1718558090333 618.6088453200726,693.1811099317354 619.8677527153785,690.2351948071158 624.5899735511824,688.5763694474336 625.9983804377754,685.7321473072814 627.961822519402,683.771414352265 631.6296614091432,684.1143806652699 635.553398674118,687.1339805833251 638.8439776210739,687.1288163720908 642.1445523631663,683.8401984215025 643.2926338073639,680.608752091704 650.1745412685958,676.2981779546275 653.0206424390033,675.1755009098752 654.4796596772454,673.7881405654664 655.3891130271584,671.2633607525254 659.4573579186975,670.40546380367 660.6742075247333,667.5204538935175 662.4943359688629,665.9896366425601 664.7134489539403,665.852282230816 667.6641688650301,662.8214135890962 669.8547505243067,662.109304533787 676.8699814564065,657.3393407099343 674.4948620399484,653.8044438398042 673.9657682203829,651.3637256800768 675.8028908538347,648.458922771177 682.3217923378771,647.8517672899402 683.0810718385129,645.2770360480399 676.8364623672281,639.0332989121277 675.8089595158481,636.7381057976452 675.6703714351921,631.8253313151514 672.532992449556,629.0222520716269 654.8062843955555,616.9226416004262 646.889265932365,612.21928427609 643.5159624438307,610.9826009354897 642.6210792269378,606.3398353943378 639.360753546998,607.9765394533155 637.8113086942323,607.7843217948514 639.1120210517242,605.9264376580438 637.3582178749572,605.691897703163 636.8430986491153,607.7858445280305 634.4786628760428,606.1079823715229 635.2662535008269,603.707712859222 632.9289933822158,601.8035990298097 630.4527602114637,597.7156783392833 631.4469810334674,595.8286624542642 629.7816664061165,591.5466691386198 632.299794025649,591.2350514216528 632.7750858307264,590.0032778346651 631.9295665884168,586.4375277935525 630.973282310192,585.1782905596366 624.2248385625218,580.4515635623569 623.2608219385403,579.049532779433 623.7479526788289,576.527399427745 620.226286446634,576.3675821187778 614.639644133111,572.3580708992083 608.3072167299111,566.7586730509322 603.5536565485758,568.4986441974961 604.3506379279249,562.696462182042 609.3506388256083,556.354540880759 608.5669760913227,552.9016603690675 610.1246206207761,549.567888350206 607.6492945471775,549.5008713224825 607.3495989231694,545.483703514338 607.7848267296256,543.8942396684704 606.6090338038778,542.2662065421066 606.9058120363985,539.7443807579346 605.716987725957,538.587270223647 606.7900962905561,535.3895302384105 602.2415093401634,535.8369602714871 594.4149654912744,529.4009732343359 592.3446706195854,531.1871689594855 590.543517939981,531.3322188409117 588.0862183763592,529.5925671275941 585.5291297822566,530.9176356959206 583.7900578698235,530.73622759681 581.4195158151944,527.5725018347672 581.3478601955597,525.021504779023 577.0471909417948,527.4442302937186 576.4358560051924,524.6472861731883 575.4128741826135,524.2702712078126 573.0964367574453,526.8240417540784 567.9283310258156,527.7717337793121 565.7022200865385,526.719290043498 564.1079592577362,527.9001753191117 559.1081493318958,528.1206211190781 554.1690577296522,526.6388827675607 551.0185941526092,527.6469474254834 550.1624002613569,524.861269502047 552.3910556176656,522.5526646235942 551.7598869440318,519.26433565313 553.3472304607299,517.2752485310332 553.2237005005687,515.6865091455659 550.9024543933992,513.7013905347234 552.9651751365167,510.224929832445 552.5952572399636,509.0776890160902 547.5246187034029,504.84084320474835 547.5674951352682,500.4153323961142 544.2946553903205,494.07602599479867 543.7314042056166,489.81424619536847 544.6629988590194,487.3864764030284 546.7078252073375,486.08298614501155 550.98132748332,484.60296351090574 559.3080931298985,478.20178116082764 559.3611630966966,476.5331316843308 556.3983533391216,473.8516712386772 552.0110925869117,470.96766553573264 551.2377873979675,468.5100532250716 553.8754958715236,466.32521637045136 560.2969679203414,459.835065305718 569.7731696948626,446.4054052653521 569.7090407728946,444.920425502121 567.1925797363718,443.2954428603804 569.1251657831443,440.4047451286482 568.5896102556385,436.8419621829322 569.9974213739291,434.6285506295095 569.8508935767447,431.6586086770644 567.4154229804911,430.08359476031717 566.8822019307091,428.54907707589155 572.8257023434611,421.47488752387255 572.292714235925,420.16472161912486 569.5435356900807,418.447342953213 569.7179946926582,416.51342071902627 571.9242254494803,414.89236107915895 571.3419666839053,406.42393852296266 568.4555484147161,402.94724521774197 562.509126968481,399.8298178067113 561.1994825112065,398.26459923889854 560.8009682301204,395.8177404160127 560.802143634072,384.15789033598253 561.8408111636948,380.23554346196886 560.7492261255655,378.8332356069076 555.9266576037049,374.9578993959532 556.0659925801261,371.34428972974206 553.4045714786602,366.5766759310235 547.0110925574041,357.55592201388583 545.3809159339661,356.1243663147252 542.5469279483123,356.5145865011747 539.2948359257227,360.72626129515254 536.0401887582594,364.0034453679872 532.1720962733262,365.77935496439125 522.6513994485592,363.7184148392081 517.3234575990671,363.8042824738345 514.8763434926168,362.7735072005404 513.5338505076419,360.98356369097905 511.0072356331005,353.2764940281976 510.86287644381696,351.567203225085 512.9319881090854,350.20480235107846 512.8152572563657,348.8236520536004 510.82405378754004,346.45015927712655 511.3729477810794,341.5977978997539 510.9345647731634,339.5197766232143 511.86015088520236,337.73923020785253 510.25828105379435,336.79858750886626 509.6709233044306,334.9264677305242 510.67098884153114,333.0327779782757 508.4358273085833,331.8052135121824 506.9213651328632,329.5444127559208 509.8829940116444,327.3841787638597 509.5889355198621,324.87591265626907 507.25694693551446,322.1559185381469 507.13175856794334,317.38747803815943 505.951390831735,316.0478703017633 503.4249393586692,315.6899722101242 503.4236851237819,313.8897222094706 505.21986342369934,312.4052459739336 504.7696980813564,310.6442472376019 501.488372719146,303.3509638571254 500.081890736922,298.17549666519915 500.5287197615188,292.90421421684573 500.3037511421106,284.2386694053778 498.7292449344575,282.3059808870653 497.5528310519926,272.5786990593741 499.4083920727642,269.54798984097397 499.769169202927,267.6139994103353 499.18146924859406,264.6386832399504 496.87807745136246,262.072381754346 493.099088715706,261.8078266439692 490.7132452427783,258.50543421179873 491.5692485792331,255.32339698744943 489.82505642268586,253.84124506096828 486.69227148500954,252.697327053992 482.605073105983,247.59553218952487 479.30248355719283,247.148670134069 473.6537999748386,236.4631271833622 468.99648318086486,236.47465726134533 468.92693878297194,234.13305028769082 471.4188151408754,232.04422206780146 470.2186356883463,228.56849301343254 468.3660416099447,228.34317540045254 465.5422841650614,229.6849283435646 464.5407909508348,228.05938770184855 464.72367944384155,225.4710795789141 466.51320756768695,224.22251547915607 466.77060310289045,221.68608302640064 464.4340144536527,216.97417833325937 465.31805001251155,214.55983603435436 468.40751883528753,212.91204594195244 468.32384517890364,209.57853220695506 470.8963370671526,208.34994184918332 472.0935379800919,206.04850242279088 478.7147648672924,203.3864223767099 480.4957974815436,201.19584395929223 491.45839605327365,196.63965135202875 493.3080889700599,195.23869717673028 492.41496893145626,191.95575854472145 492.71949125467563,190.18681590466076 494.7197168067293,188.92850983814685 497.9183988230132,188.1588545564407 500.00217513587944,189.14010100375265 502.38306969212454,188.7695196884181 505.64205694097063,187.33591307008567 507.77992608899774,187.37516210129627 508.815623495132,189.75684460738967 512.3406364512317,190.2955946388547 514.2378253997782,187.73928049459107 518.2519996978072,185.84316181948986 515.2739832456467,180.79510173310632 516.1301780553508,179.08686305382662 519.5652760980198,177.75478791651892 520.2717434326127,175.22901363087738 522.9095579082539,173.31533658364617 521.6050765348222,167.74501534027388 523.1702882549108,166.88530323591704 519.0432721092164,161.96989561115288 520.0478546363771,159.71086140872876 519.1941910687747,156.80811720762824" /><circle cx="398.99927795219736" cy="640.3119550128786" fill="rgb(100%,100%,100%)" r="16" stroke="grey" stroke-width="8" /></svg>