<?xml version="1.0" encoding="utf-8" ?>
<svg baseProfile="full" height="1024" version="1.1" width="1024" xmlns="http://www.w3.org/2000/svg" xmlns:ev="http://www.w3.org/2001/xml-events" xmlns:xlink="http://www.w3.org/1999/xlink"><defs /><polygon fill="black" points="501.63017815412223,0.0 486.45817852998636,18.394022406777026 480.4681580865902,26.46701255043854 474.9676245188264,31.84548749034036 469.8892214549024,38.12604385234067 466.63275471215,46.22621949041752 464.3244006945313,49.36539738692545 460.21079651057903,52.4884722496912 456.5796466387433,52.00942143678162 449.94549579068973,39.7537962677178 446.81125868808743,36.11158298967541 442.81634197710144,29.755026177830473 438.8284718035635,21.584603314968263 435.69927104837893,19.28720908478158 429.3850484666513,16.518282307865434 423.9451249101124,16.471290482090012 418.0094334782734,21.371208083900683 414.8141291275082,23.150469682297057 411.1405164513864,28.53154109800721 402.8919243061339,37.02832102654975 401.0316849797056,40.62185040289614 396.447671664558,45.54141358618699 392.35509758953623,48.65296909102915 380.05837058118607,55.74619301222276 370.95646278364393,59.71317871880319 362.3529049354872,61.86201549752718 353.75050778415863,63.11443007215894 345.6200025049403,63.01572670036353 338.40072896248296,63.36831430992038 332.49092689326403,65.10652919142024 323.86705716210923,69.51644149191384 319.3238385105339,72.16121025957386 313.8529862765396,77.06787539846175 303.34384369410714,87.31256986940798 296.04460726208237,93.53643029351053 281.9478611424234,104.18546939381383 274.65245032112057,110.8672648277784 270.0345280709861,118.03075821734001 268.16407415894764,124.77371605712528 267.64712208266445,130.64001059292139 267.9786623631856,140.13118107122398 263.4040528239958,145.03937716413657 258.3956220752377,148.58602200247537 232.535151060075,161.78019558455162 226.17359491641898,165.304368704407 223.1144757089142,167.4376681739028 219.81131117281066,165.71697169715105 217.9019536976131,166.24085976491563 211.7984774155729,169.52833164801314 208.31648388845616,170.5931907162901 207.46989092334258,172.52714251341126 201.86157561242493,172.10861114711213 201.03725120602297,173.8375750727339 199.94901946619223,179.8022152150494 200.65369357465826,180.35839264857998 201.02139510028778,184.68013190292447 198.13825128054555,189.86204535457546 198.14299748380452,196.95113885547846 200.02665968629137,201.34277142134067 202.706864637696,202.94619509839322 203.53873244387796,209.60203776122512 202.90821201740295,215.13410532873286 204.29400370427675,216.48094419837093 204.66684558329032,222.21257817612513 202.6997590923935,225.6845994172961 202.66125754919233,227.90810002111596 204.03711626260525,229.75518938557082 208.38722795871408,231.68328926673985 209.3124767194444,233.0747606968065 208.5906389010136,235.36422716771256 203.6532996813696,238.6232681555457 198.54801265159387,242.9250794650203 196.4563614878671,246.15373134388028 193.0289091898474,246.485335611403 190.85393221730112,249.01938968155252 190.52133344380144,251.77664946693335 191.48811032899962,253.7507898734375 193.86790388875295,254.17102984711858 197.83898984964418,253.46926542828157 199.5190511766093,254.0598402278656 195.6301643310408,258.6580836225945 195.62153924223205,260.7907789172896 198.1387866360198,262.10006323702567 201.7332001634376,261.52300042503464 207.21225699289883,261.8204435850332 207.6238201972676,265.5825845109681 211.08956675996214,268.3952547307324 211.92701663859626,270.32690654704413 220.792738547054,275.3649788780316 220.54342309488771,271.72377486393134 223.3795603954941,270.50984851867474 226.39531442088435,270.6001489759317 232.21924307590342,272.87341566028624 240.08243022860606,277.3153637781272 248.52920135532085,285.83680591118457 250.41001976663523,290.495799475293 253.50631535731168,293.13717093278046 254.01002827267237,297.95009981069745 256.0237211209405,300.76291218808205 262.539670448076,305.97015929675 262.9171002264752,307.058278687912 258.9842031365569,309.81299240688816 260.3268114910264,312.5283614923526 259.9453364327732,315.9202002385539 261.2449789274946,319.941463393777 261.70708602956756,327.35796164255373 257.94046953382224,326.6712071308733 256.63974409087376,328.68158665238263 256.47201133993195,331.9910852697261 255.14566454074088,333.7673083392622 254.64834276826002,341.2933285455931 253.6702620664559,348.4979905202898 250.84311125667904,357.50238955089605 247.62796306493632,362.8744732226594 237.09019964767975,374.928558017206 232.96159890076115,380.73633846204507 228.8483532931375,385.6479311027971 224.70735750128804,391.92623896492717 220.1250644981916,397.72912899049015 208.2756300192088,405.7069104277583 198.7845153354071,407.83644431755886 181.1467615375453,409.4124844497677 160.85333858390078,406.43881335693425 153.6210462782462,406.80577250157535 146.3458926043196,409.868523183252 140.43292772281868,412.9610959618441 134.50204068177825,416.9535033668026 127.65703578501191,422.28893956914453 122.12857809904501,431.26213594859837 120.23122574471896,437.56628197169016 119.69682948457198,445.23967228668766 120.52062428599403,452.025716935438 119.5769948436396,456.0766550490922 116.79848107397491,460.55928679492956 107.62315023277878,471.2931106327977 103.92264748887362,477.5794700269396 97.92419991243034,486.9960521698657 94.69674150586997,491.4832517283387 87.75159260080157,504.5013148301107 81.7447417678206,513.9291991074958 76.22258013275405,521.9970185787993 72.5115134096952,528.282764412523 66.57471360625085,533.1944902779783 60.63857022539309,537.1884128830238 54.239458426720695,542.1026888700596 47.98633050326487,545.9013052764244 46.66907121196547,548.3119286845807 46.615917042888164,552.0417509563279 45.349222410849265,554.1035121966123 39.211026243569606,557.8420282845188 34.093082423467656,559.6304743700886 34.15529010905655,566.0493556387601 32.7781471516526,568.7457654815107 28.260589179715673,569.3035551265718 25.501159051887036,572.805970933281 20.872421936801008,573.0393715743853 11.545431655954612,576.9088567170876 6.492679016316098,579.7299205245488 5.462327233943227,582.3629646051052 1.5550269853329006,586.0964795897044 1.6133276545712159,589.2446995732153 4.981057275265505,592.0538177653045 7.753106336039152,598.0584064367138 6.304977931045975,602.0723583270728 9.14767310859957,609.5690648622048 12.293226266778326,612.2061377176747 13.324543107947818,614.7261629584357 10.795976337765746,614.3222192318573 6.260750271967772,614.9622722168635 0.5713220669673084,619.506032191272 0.0,623.1168539558755 1.0245045952487712,626.781019143215 0.6669963041328009,628.8270932547969 4.866313233559079,631.4795621462274 3.4019871463982554,637.6536557913348 4.662893602112967,643.7284903520315 3.6294222144240766,645.912571220985 4.029203991126454,653.3532669883507 6.842178831290949,653.3460105809979 11.614740526348013,651.221798239375 13.505750234379729,649.3277882841282 13.904504239710011,646.5154653780467 16.205177933351298,642.2166343682143 17.695299714802125,641.410004415212 22.237791205383104,643.2329785862472 22.524482420607768,646.0430641067373 24.245813442633523,644.0279074775585 27.139416686100272,644.3979174883814 29.494582353802297,646.4587340154662 30.46665252602003,651.7278827933116 26.37008765106102,654.7896078174899 25.890941267124116,658.0848815941706 29.205955842757042,662.0418997077049 31.795759618545752,659.5723398252258 33.05228536714422,663.4081802047554 36.42890261498005,665.9961802960152 37.15920275283099,669.3646660072687 40.898825315927226,672.1728307404903 40.45836789856147,678.0769365528765 42.991038799258945,678.9904773374569 42.98772923431128,681.9972908913325 41.80644655374969,685.5943357910935 46.2943919650892,685.8615310920216 45.68318535825738,687.9112522922608 42.868576097946395,688.8287912066878 39.93049534986903,694.8194168231885 39.86901756942789,696.1686223768157 44.343405772863484,702.9319563552849 41.58771409385458,703.4907274635001 42.20067719681014,706.6059129150431 40.32948329046571,710.6266717627043 42.12633392135396,710.8005198636437 45.75643995537627,705.5399935764275 47.347841121540455,705.0495328442108 52.36822348299246,711.5119205570411 57.570742872326015,721.094023241558 62.27843229872818,724.1319417242715 62.61599242070815,726.5222283467841 70.91105627076593,731.2166944923911 73.70721827294048,731.8623327956129 79.14981804645844,735.5803688141136 81.2296448995341,735.1593376200051 92.612572919858,739.2992847912752 96.71059722008006,738.6798203186413 106.49390877503836,732.6925312998446 110.28305727714462,732.0748097953183 113.33568983168787,734.3348070957301 114.55835682440414,736.352895989947 115.74955693756209,741.5906558550566 122.01785575337126,746.1841758504518 124.87443383896469,748.9159191846156 133.6176112069466,753.4098039593679 144.3819055558548,760.3135546067838 167.8124562861771,767.8247356773011 176.78746086074366,772.0177693427422 184.41097222626846,777.0803495604249 189.329302389247,781.2007144307217 192.42519008500665,786.21200600325 194.1764092608113,791.6521428020586 195.0011842926047,797.0810706388162 195.77571633493102,807.4803718121675 192.52408624814714,815.5667402318977 186.04178012602426,829.4884477748483 184.1307709204977,837.5869209514017 183.58412598053997,844.3545856656481 182.13437283684178,854.2712165291622 183.4062399572965,859.7088634423963 185.0017451008434,878.2446159366647 184.8174999706853,892.6891813136316 183.79078812304272,902.6146412919121 183.19933834454477,915.2425769693467 182.96092880813893,934.2065161618782 181.5014360239525,941.8645850904627 180.4864002290844,951.3330698169676 177.20737122421818,962.5894092965526 171.1684130592471,975.6053860058732 167.38692730088832,988.1980357023801 165.53947567760488,992.2453498236739 161.334239921033,1003.9212002726325 167.85453819526398,1011.2506395929644 175.51435010094755,1013.5941920602795 180.91015944092052,1014.5708863541281 188.54228866119053,1018.2885349746815 199.77877986293646,1022.9513127437069 211.04314450993962,1024.0 220.13500302842783,1020.0522568401365 226.5215116986531,1013.8196815889652 230.23505621911949,1005.2904916161343 234.8330080844652,997.2372571330155 247.19379404451598,982.5014921973168 254.44340840491552,979.4476232442056 263.46676804804014,979.115485042407 267.9480141329406,981.8785186980614 274.2417831213497,984.2282714775345 288.2237482977188,985.3231088844987 297.2593639398866,983.6365341187444 307.6902525501985,979.7158072720474 313.1267168606278,977.085028027995 319.9530454068405,972.2084967002831 329.5115246527035,966.4619627221113 339.01375152357963,964.3188706377938 347.1367952076326,965.7817017013141 358.35434497565683,971.7981098419876 373.61772052692993,979.6544457963203 384.4408755205109,982.4884270612224 393.02234617127937,983.0438347758949 399.81518399254355,983.1111853483351 405.7236074738014,980.4719913559566 407.13881017818056,975.9748064282566 408.1139401406256,969.6597228482324 406.81491913465413,964.6824240578378 401.48371861938506,956.4906516819116 398.8599664572183,948.7809956055916 399.3879266482736,942.4794036848926 403.5074791089781,937.5409273523305 408.55424101547885,932.6361719481207 421.32857046628743,924.1984439180991 428.1449352310228,921.5608881392503 433.15035689844643,920.2514795640659 437.6971203765996,917.5811088018714 443.2014154276491,912.2226376578191 447.80207449830596,906.8400259404592 459.2535166197502,894.7559066174597 462.9550577500603,888.929506665233 463.9742102041593,879.0021840884605 462.31675213388195,867.2443973107853 455.55436946137775,864.0264637369944 451.5304106006865,859.023005131426 447.0562842199841,854.454472397739 442.1694219128555,847.6385077655106 439.08589558007867,839.4763017048599 437.8373960950522,831.3401852969612 437.4624081907357,825.0183022928172 440.77874394586297,811.9528272059576 443.13946129075816,803.8496925367228 445.0361475623339,796.1895161685721 446.50325661565245,787.1643148719613 448.0091263788352,775.4468878756551 449.47212595612626,765.9707293807958 450.068255656897,754.2411763447196 449.29474738709393,742.9444865892847 450.788355477291,731.6701517447825 453.19560391145995,719.9470206877372 458.43758100160164,698.7734044009601 466.823852383494,678.5358973465588 472.3891335672012,668.6406297234678 478.8168156491448,660.5691834228388 489.80566625504656,652.9900286181021 495.33394335200535,645.3550016125255 502.28046795050386,633.2216108982145 508.24574249394794,626.9529625057952 511.48044606485695,621.55864016791 514.2927943143955,615.2561871086989 518.5122973789576,602.6457145836503 519.5002722386896,594.9806571729714 519.6342373218681,584.5937045190319 517.9243918258065,575.9932482070429 514.867849325103,565.5849737565356 514.5377605469056,556.0941336581902 520.0941022187535,546.6639785686812 526.5018517108815,541.2926438366279 534.7242287169606,537.2953205999734 542.4454963660502,536.0019417051649 548.8045964539917,535.5967320523584 560.6245416956657,533.4369295142783 569.7496882066517,529.8907603515433 578.834033859858,527.7033130617554 583.4004728796955,524.1367807980379 593.0460305482801,515.1790605819374 595.3455784934831,511.58177115417664 599.9492185412754,506.2066732474759 605.0197157435639,499.01737369995567 610.5334903897491,493.19444566141476 617.8856234197782,484.6779983351595 627.0119723305452,479.7898396597875 634.7219926020172,478.50259008119554 642.8833748497178,479.9284109270035 651.4878689029217,478.6615897096176 656.9928873671099,473.7373019072596 663.4984830743824,459.8015744576443 666.7791572408678,450.35298860958585 669.6037706280512,440.4478731994328 671.5229180267752,431.88067047270783 677.4656055735304,426.97317467268476 698.929220943852,410.48508049370105 710.3662238066216,396.92480691009246 707.3301038657945,385.6091431499825 707.8846542699987,377.02722838955424 710.6845057728488,368.93337052437346 718.1032285128416,354.115985352199 721.7903954992316,348.7308921649469 727.3191301203459,338.85509661864694 732.3760688714609,331.2406815225362 736.9721936344175,325.42675706799173 742.0346384568405,316.9041172618697 747.1307961702727,307.033933730208 752.2035829422684,298.95988970047983 760.4715509743875,291.8441133381714 765.690233413409,284.49489531520885 767.1072795167147,280.0612752257324 756.1345424515198,278.2518006340142 751.3757079093261,254.78719358880846 753.3924658390772,252.62425322011563 750.6357860228375,250.74360357668047 749.7551706428671,245.7324863850198 745.3759675175556,240.84700483246627 734.0659307149195,242.84849937641764 729.4457397385162,234.5482018405886 723.6734768116924,226.35176932611114 714.3047231016752,215.85299199999884 708.0471065149018,209.90598422573635 699.9630356061897,204.84317274981447 693.6541429948788,202.97674623098976 674.7185100574595,196.89580309857456 666.1601265760656,193.6538990499738 658.0542670209575,189.4974530598597 648.6125574163,183.09060039180065 631.5407998608024,172.09194679734935 624.3391439497477,166.60219559868574 618.9791553830354,160.68532961529343 614.5234708524914,154.3226844194785 608.2447910403862,148.8434291639262 603.2758849137567,145.19709712649478 587.975833884612,136.47648200669812 575.327900071588,132.75817156399432 566.7113020045193,132.69294847408003 548.5803101942907,130.28893621323311 542.2692556627089,127.52948417175821 531.8300602783688,127.44948182613757 523.7494223592863,121.05801276147167 516.6686943988287,105.19285560309811 511.75190596091966,100.17902656971069 508.1361316024517,97.89689987291194 498.6366278675638,96.01282694043789 490.92798489437223,95.94613905090443 482.76258210297505,96.33406517499998 478.73191572123426,92.21959225143905 479.2341180380273,88.1683304610317 482.03042014836495,81.86402666524668 486.19472183608036,73.77345532804895 496.3534106309849,58.04864589500687 506.92575329314485,46.84508409491207 513.8658308624729,36.509960357018485 517.573370429927,29.310795462230544 517.6443154724536,22.543552075368893 515.9097589671276,16.648943639637764 510.5194282847857,11.641282976928096 506.95613857012165,6.639069328609253 501.63017815412223,0.0" /><circle cx="295.7517667553226" cy="406.58586066740907" fill="rgb(100%,100%,100%)" r="16" stroke="grey" stroke-width="8" /></svg>