<?xml version="1.0" encoding="utf-8" ?>
<svg baseProfile="full" height="1024" version="1.1" width="1024" xmlns="http://www.w3.org/2000/svg" xmlns:ev="http://www.w3.org/2001/xml-events" xmlns:xlink="http://www.w3.org/1999/xlink"><defs /><polygon fill="black" points="536.1025045316032,82.35511145341013 526.4336876672319,82.63473020758329 517.2591775514179,87.62527756198529 505.6998061318608,88.64178731782397 498.85301513192917,90.09970278094329 489.67572029801045,96.74506929810309 486.42731997310284,108.06570142537942 478.8967407702156,113.53965047719907 470.1520910785634,114.06826438513144 465.1698771951411,108.91510137520697 447.16563328135715,97.26282765650728 439.1077987628529,90.95980915134953 434.1290471615252,85.57251855602965 424.18275473199134,79.74425167167249 421.76347748928555,67.27984348654104 424.78149563934926,56.43678972853968 429.70026888632344,48.86900122719885 431.5669262984008,43.44135438416083 427.9617900481874,30.28331686733702 422.2771673226198,25.846793171756417 413.0735595650099,25.182382493799423 401.53307787942504,28.54220822430716 389.0439611784969,29.30895289268915 384.049655901165,19.904128639271903 381.41095508246013,10.26143650948734 369.5966659478472,1.8298896912288 353.11255572225724,0.0 343.9689422485184,7.792898450178427 336.017596932655,16.526614480717058 327.79493397827645,20.546519006178983 323.1175299787861,26.67209391147253 313.48541381240307,29.76317994395413 298.1995588907828,30.51006353719322 289.7191401846315,28.888575201711433 278.1850316803435,30.57942985773775 271.5860058944576,29.896626269160606 262.5979846835996,24.05027435414695 251.8185885139864,26.292792357125677 242.7691482340498,27.438113815049405 239.6516751420834,26.92530821461378 231.71177268353165,27.156899197836196 223.60052889559742,28.69005548161067 220.8363932024967,28.22073699070586 207.798939960311,21.618522866522994 189.7096363425388,19.486485626597073 184.33570572093254,22.187510796353763 187.28885789077734,27.39267353778314 186.75807004557444,31.868250650838604 187.56564351605402,38.1971886587354 190.2697647466045,45.72285759645581 193.31322163984888,48.50240586694963 198.09007249899636,50.30754709346718 203.2571903053349,52.929078958898 208.6729885789756,57.47373533583345 210.06840831211272,61.530404650617015 210.62227896488017,68.5465621589027 216.0345838680583,84.22030082239814 222.99230456645066,81.49935886461822 235.51906879894887,79.34020639282642 240.3719565329174,79.2134947822949 243.05083340226264,80.2222405450965 246.25356484083937,83.17089413183919 247.80279446157664,89.10501410526092 247.85354274878432,98.05061471654449 247.1858640104407,107.23350022158866 243.68918238289987,116.90427115525802 242.79397459428282,126.7944975486588 244.00313121911918,133.38681312199014 247.10710263171535,139.7220604057843 256.8219972426378,147.91165043969568 267.9210252839481,153.2712563331305 275.24255924570207,156.06650555645695 279.0306475281439,160.75421684687547 283.07023160123464,167.3383753250106 284.05092965369823,175.33932992558982 283.3729134088948,181.93768799080772 281.7738798526919,192.0604859556745 275.8925129735391,195.14387967969617 274.512068782344,201.03488166061163 274.8147051719795,217.27570350246265 276.0316976989127,223.86251991158656 276.5462116986594,232.56805651842205 278.47835240460677,244.10695547467424 279.9525305523692,255.1659594973744 279.03198664357024,262.9333297593563 266.0454436067522,268.9831625715566 255.51190122465326,272.70035362902115 248.44039828371777,274.5242161814026 240.88598343922038,277.0368998196942 230.81914888224748,278.55627057133995 221.24439364558953,278.5804125444314 208.29623668883067,278.1841015285255 198.389448273664,283.4308020200996 190.12929826370544,286.0841114999264 181.1475754958141,288.51625825909457 170.01962151771698,286.95442006679093 163.45697971472998,299.4874360737057 159.71439744711085,307.98533097470124 156.45278658611758,319.78257010413154 154.83522982558145,326.6277532324551 140.42860217182266,329.31990303493023 119.8558062081573,327.104855331012 116.69080874708133,326.5865982929614 112.43896864703679,324.8238901301115 107.49157735826792,324.35492713666395 102.97593579780781,324.87630283522844 98.85812354534694,327.1411430347073 96.60875423321404,330.7187081626681 93.0614266026923,333.38110078738816 89.85865699724017,333.3721977326725 85.03149014712,334.39605842783044 79.81273568021741,339.46639780381633 76.02834454723525,345.5111158737061 75.00711956162827,348.9885707525774 70.89043964958994,367.5286346048191 68.78106722387072,369.3029590885334 65.6418859380682,370.1267745506343 63.344074068626,373.33926814368897 63.3458153350335,378.8671997619156 62.75011423424523,382.2670009377682 63.94239279446549,384.4779894912118 63.09150715393866,395.1926133299962 64.61845973828895,398.76286935731775 66.82238289344093,401.834391575798 69.20595094178873,402.17288186099836 73.95793135617706,406.2628958097456 75.04291526236453,408.90300739974305 75.04683971125402,423.110391881394 74.49972145776447,433.8858836983535 71.91253517599371,440.55800948031265 72.32063858522342,445.06451363337044 75.99571381565553,448.74512687393144 88.59651455335374,458.3042718281962 93.09359355529442,463.75509242565465 100.59607506778522,477.5334736295978 102.7734731803124,480.25932760399496 110.68589084401059,487.47932454439785 119.18611407363093,493.630182562233 122.7555466969898,494.1738918249106 133.48219038040355,497.1276102751616 142.0016239815482,501.1870318026107 151.20261771520947,512.5538182861748 153.45825885394413,522.609055000632 158.74624489484563,524.7953636577749 161.81508002794433,526.6605539030513 164.81299778724323,530.1180463941068 175.2481018258676,534.1349524001519 180.69426536837608,540.8851691867807 182.85059680387943,552.6374469839209 182.10783454913496,553.3337863887114 181.88306066235586,560.6600113984468 179.55872577839062,569.8577075353718 181.72872531174318,579.0219979056335 181.78205509368695,591.7322894753813 171.8930402375584,603.3446966996587 163.16989455303047,608.5811997314206 154.70352159688701,618.3032339227366 145.74655098495546,624.0115853139707 140.0984422172897,628.757693775316 136.34993806323502,636.0744801026483 135.91103751024812,643.1443936522033 132.64059097005313,651.1595541339229 130.80574538780246,666.2354658835125 134.3860479525368,673.0369203942 136.07875121359214,681.4940233665473 134.47924604984397,694.211180985411 130.2545452008825,701.3055927446414 124.65245436814936,714.5189536278069 128.23197601275285,723.6734995796596 127.79707720790158,732.1384556766769 125.69847162276356,737.800744923625 120.32234307756462,749.5941931856376 111.12296939383475,750.5897860289431 107.36508008854483,755.309381475667 106.69137102531981,760.7341371583107 108.13642556610795,769.1923841896105 107.26434252215134,785.9034259820181 107.48208377035154,789.8448380633624 108.49077212151676,792.7925263701275 102.88757970573724,793.1371203296827 98.54992954613168,794.2589227839281 92.4144882503649,796.7376153391674 84.38480087809536,793.7775616127504 81.07990164310098,792.1739132393678 76.40413635366313,799.4623514778675 76.62308424382732,806.848245791515 75.87640348573579,808.1485600392364 70.47684149291734,812.0147528726012 64.15510616992485,814.0856053987031 61.811302230319264,817.5870057976857 46.13692350723577,828.1953280259839 45.39175604188536,829.6276128427213 46.003327363044036,841.4882103594074 51.2377454028332,844.5661086236573 52.69963383552602,852.1305871163611 50.294285454060194,864.0191776036934 48.08643438156985,872.3474352299245 45.88177566408593,877.9548856827918 43.00129523516503,881.3429788462936 38.24788579908362,882.8579913661301 35.03041535948617,887.1110624972777 31.465544594726122,909.1990716061639 6.0229200465990695,903.7004998127762 2.5479107507516026,928.3669152682959 0.5096702963494453,935.7748426957746 0.0,940.0293620811793 1.3539526966390947,946.3227144816976 3.9666416841547485,954.7469019764043 11.517571265164623,962.9957393463043 13.864129063993872,969.6862027058942 14.477415097049878,974.6609966062049 14.404290857069228,980.8556814642125 15.031767303354266,990.2237839055755 15.71541002001146,992.9874238143186 15.142734607588137,997.9922807594537 15.392590405409951,1002.8013167786752 16.492603530229815,1008.887167883607 15.091553870860222,1014.0786841258586 15.41767435348773,1017.8625105573227 18.61181879604467,1024.0 21.178060955997847,1020.0292476979749 27.248760189398674,1018.7497894822911 31.657554490929044,1017.1373714964496 37.008433273368546,1010.0518320768641 43.69510705993057,999.5269056976883 46.71177311684597,996.9929490579327 53.127041651565754,993.9660467305927 55.775763981104895,991.7142352492697 63.12250508239812,988.9491782018691 66.13525096915362,986.149186791483 68.85329606903183,982.1347928137247 74.15215917455265,977.4559522703964 75.23366436384896,975.4944783661983 72.99272950184327,967.3918318742118 73.20767539873093,963.1301100165222 74.73335216113553,959.8823640415385 75.78899816068179,955.5152853961677 75.68088683895033,948.2200775372703 84.10425890377569,935.7264721755553 87.44299647004621,929.3910626844149 89.14281820932023,927.7682348252301 92.4104200074708,913.3207216219478 95.41075300450024,912.5056095673774 98.68233076103128,915.7795626042262 101.95307651467496,926.9522528032427 101.67642538479942,930.4975067824303 98.68187421721841,935.6716037096221 97.04250422736273,940.0358970144188 97.86102713608628,943.5843523090891 105.4962881712828,949.8503540881158 108.49356938242403,955.298687302149 109.03886755451757,959.6602633986279 107.91146239518393,964.8572091876179 108.7342965563593,965.3874935649784 113.17240352110036,964.4466661596185 118.61560052591601,967.9019072576679 123.66007225312158,973.625805964518 123.65734848487905,976.3486743427654 120.38386749277123,983.8538516117892 115.94690568035027,989.6469476216234 114.92627615493389,992.5510317284989 117.23662752758668,996.1289671229248 118.3502354705238,1003.0525451381899 121.03638242146044,1009.297009154249 125.98802103720139,1013.468252802463 127.49348273041899,1013.649209375631 133.21315963514542,1018.0426293305054 134.03141345433093,1022.6078586343373 137.08681883350945,1023.2343517072181 139.0194411288002,1020.3461301178835 138.60855371170567,1015.5088482450108 137.44896417569385,1011.9015079950317 139.20785777380152,1007.4803612916619 138.6472288173401,1000.4444545407072 137.55367794703102,993.7759338173487 139.26145287232052,991.2705898683552 149.44610824419075,991.7610221557251 153.4759464705444,993.1083063000291 166.25909792422286,998.1939045229686 174.5496131781346,1000.9561525567115 181.6686522394272,1001.8118223097538 197.2574707251895,1004.7890384390942 210.52582510883173,1005.7351592678383 215.99396548164515,1008.6236791179141 221.20377780228506,1006.7736278425507 223.90478046773583,1003.6975002912911 224.83638361651188,998.7965695024207 224.7773543752759,994.9273400286079 225.9495590421802,986.6134351786178 228.49130715545422,978.2465651689237 228.59996005353923,975.1833827381352 227.01141759442632,972.1181959114659 223.45861355099595,968.4823533915454 210.89876023719464,957.8942716619276 206.00033925854765,952.2649457063296 205.45810681944215,948.5893912806015 207.37154917381778,939.9905637803861 208.7351455813126,938.6266856247818 213.3838709809882,938.3342595689605 217.34969486111368,939.004569845771 227.41111144524868,941.5973914829542 232.55631906783472,941.1624544918051 242.6085480399845,941.7989309294002 247.65938457026758,940.566223452378 256.9418387135086,932.7818344000452 258.988199587432,928.826974210064 262.2969677383453,902.7783261853483 261.80695546645507,899.9734721068469 265.8755579604324,896.6908235054952 270.23322023093203,895.9190010938704 278.13450043316226,888.7223088710173 280.5911296108784,887.6971654718226 286.15358344712536,886.6995671067108 297.05164507274736,885.5256832510344 301.93442335721124,881.4192606886804 305.4174950085531,873.6852699150138 311.6253914332933,868.4608406743182 315.1771065359369,861.0840749319146 313.7197797502172,856.7524604357658 307.69302761135685,848.299331769022 305.35680626834517,843.7904848674335 304.9761418517801,841.3836634241145 305.9452789530901,834.6783728472334 305.4685161114805,829.1040237652534 307.6892739335778,823.5637714653499 313.02153030970914,817.9269997453804 313.98238724499055,815.2717166580965 318.60805424473057,810.1793574609634 324.17844292715824,800.2661519599351 324.9669216532886,797.317504480457 326.23914356614466,786.265158294554 330.86062231759325,780.693355825368 332.1845074513398,773.8120231976103 330.3060323632198,768.6638362067015 331.7933176708152,761.0136104648343 331.1387984923522,756.1509499241993 331.81158624655325,748.383119377977 333.64131009617023,736.6201182583693 336.426884842957,727.4369334114488 337.56219843954045,719.6626573965502 335.6466902793961,711.1982324793514 329.73134172763025,702.2657764705855 321.94750012619755,698.7600288815399 312.02006247777894,687.9497355716035 308.4663045472625,680.4258632147349 307.2063228616008,662.0805084942876 306.23179630249274,656.1960922472504 307.8328253385157,644.4283165606555 311.9038757533545,639.4039372066976 309.72289115711914,634.4322074568992 307.6252796496094,625.170961285861 309.1284154329478,623.5721569410298 315.1168706859808,624.5063342430217 325.8317630594706,623.8229044926009 331.0935165676548,622.7678455010637 338.10694872828867,626.2947989211376 342.12710077571967,629.548870671518 348.4098060926443,630.9034656911575 355.83840040344296,629.5429990355076 360.3509435163243,629.7348348760262 368.81670036081135,627.006998198669 371.5258998920483,627.9269003334998 376.873739931527,639.5049754600823 380.6358126821639,639.8739848632123 389.4451924350045,635.6164716662502 396.4900748554235,631.19746023498 400.74921609139653,624.5743868502725 402.61380416447076,618.8441774469654 401.36893282551233,612.2228774603941 401.9517309947859,607.3442568063501 400.84450371247357,603.1813690384934 398.6903915179306,599.2114405561692 398.7093119382746,596.2722367305969 402.088877074562,588.8307824852016 402.021440929159,583.4239731019434 398.6322954584556,574.23432910881 394.65603009069093,570.574445852224 395.5094911794856,564.0398249358158 393.1724675109323,559.7174564476367 395.7493330127897,553.0899632140994 393.74232765853344,551.4141814820632 385.9989301896863,551.4875066238502 375.0159779914901,550.306009941374 370.19185041455347,548.5386331690531 363.6393835950558,549.711071092644 361.778518350841,546.03250913553 361.5786471284367,539.5700397852848 360.2457792692236,530.76291015182 359.60855729949395,521.3122946689329 359.8119555712539,518.7286269550427 363.2777129603822,514.4019044204178 365.97504611301883,509.6206893942442 364.90914453590784,504.1658073564055 367.04118905106003,501.2612593872144 369.3381471773608,501.64721473320606 376.2251772677721,499.347161509938 377.9568872083476,497.2752916207521 380.18521136086594,491.9127600230371 380.668471801874,488.43779956725234 378.9046005329533,482.6392015779318 381.08230062898696,473.6290969503665 380.17834239010364,467.1130319668672 378.9568286127687,462.5389046197371 379.2284214080583,460.59782139057336 383.0622289474256,458.08960933120136 387.26581649685124,451.5802379033215 389.7031814340569,443.7390498529393 394.07834836159566,442.1687108667709 391.59129744385496,439.7801748450024 382.3174155297438,439.6489112405468 380.3698207099913,438.6671654160681 377.3981939689717,435.35016776124655 373.31578554757135,432.09486735400924 372.2845568409796,429.46442247330344 369.7971711898778,427.0149455149286 363.61985841493794,424.89863631199535 356.8474771975859,417.44445327404185 357.275103101553,409.450585802177 358.7508240191948,405.0333966686768 358.326155570972,394.16260379743085 359.48707682057056,388.2141104060421 357.3487367064964,381.1240639995766 356.09466797848415,373.7848126068636 357.0583203082803,371.31308860983177 360.48803127531187,369.3553879302963 367.27965206853406,362.98703211748307 374.7744787921845,354.95608859259585 389.10994983827044,347.84457663866067 397.57095289157246,343.102696911483 405.56051881916,337.89119670019534 409.54347200049824,331.5147710649685 416.09672682149386,322.533457706514 430.04993692541905,329.05394621016853 435.71860812676704,329.49414259421656 442.5961080780943,335.5713333271815 452.5301535008362,339.2771443256644 461.54411465903564,349.81152500253006 474.7954404680425,353.97042299006966 486.3605797082744,351.77723660814354 495.3835747494278,361.12957081879324 502.943406092469,363.67727585980583 509.0955552150198,366.46697156088305 514.274492404228,363.1348653688682 513.0204863288103,346.6640379491547 510.38112747534586,337.2582790737057 502.7477303135013,319.88126571003954 496.79893371264734,310.50236682899595 492.7511688483495,302.990864232789 487.27015183534854,291.018922233436 485.3485256057547,283.7306096531164 484.36780347027894,275.96520139524364 485.51426618550204,270.5501643188253 488.0864838214554,264.4052952168913 493.7472214479326,262.01281597381774 499.3788792657688,254.2097711629591 501.6800338403998,240.5320249552061 502.5837512846954,231.34951629253624 505.14377833220186,224.9724994739039 515.0255510855483,217.1454830402505 522.3001836783183,208.86359333212454 527.4498939898089,200.82732421175285 530.9493344295017,189.51062409884537 534.9311768252622,184.31490177985472 541.7370246299034,178.62538755751882 549.2696537255249,176.47828882090755 557.221156808624,165.3868272725921 557.1788462746439,156.43200234674168 554.5446309745121,145.14397749714976 550.9612584849716,135.2682394230335 544.7798087643915,124.92784863409918 540.8994176618918,101.63885250806095 541.103347168527,92.4513112803088 536.1025045316032,82.35511145341013" /><circle cx="411.9141480567015" cy="180.8679077218893" fill="rgb(100%,100%,100%)" r="16" stroke="grey" stroke-width="8" /></svg>