<?xml version="1.0" encoding="utf-8" ?>
<svg baseProfile="full" height="1024" version="1.1" width="1024" xmlns="http://www.w3.org/2000/svg" xmlns:ev="http://www.w3.org/2001/xml-events" xmlns:xlink="http://www.w3.org/1999/xlink"><defs /><polygon fill="black" points="709.669364661952,131.86861785180884 710.6704571046623,128.19073328528896 710.3418872641354,123.03049415141379 710.7039780747523,121.13346416483841 709.2542705220695,117.71637820478117 707.985827120464,116.22498126720126 703.6989937870638,115.67171832378222 700.6218056927561,117.00943498803287 698.8248444440161,116.3667082383742 696.6384931376776,113.91203635934215 696.4297841382999,111.76334963263986 694.6399085218968,108.96943658643136 694.8218920271321,108.03864027803417 696.6151973733147,106.59582223096021 697.8647398327969,104.56180389643743 699.292180936632,103.45366252812772 701.3024691834795,103.17248447746795 704.7532003575487,101.57731201843444 705.6536564849459,98.3501438065287 705.8569012037276,94.46333786825147 705.6128110565915,92.06250752631325 704.4593164593216,91.62472518793277 703.6620859019913,89.61843520626468 705.1350657389919,84.8506660759553 707.065417402015,83.85135262371074 707.7204666685869,82.80516076143294 707.5206503979033,80.22311505531496 703.5736756102605,80.24081894461193 701.3831550672118,76.8697047940118 698.3887355977708,77.6791933065432 695.8340319832246,77.42849376802974 694.0438919743914,75.84539517912833 689.0313768696611,76.27711489609112 686.6572713390235,76.86375401797397 681.053800487503,76.40359350020196 679.5802257184603,80.06650592312872 677.4387686323987,81.39034354327362 673.3906207961421,81.87573588423243 669.4425741958469,79.68319932596381 666.9790011407488,79.57402946084977 666.5758683001328,81.96323504624917 664.4042399921356,86.03682337386368 662.0438031855027,87.59793815108782 660.4298048990137,87.03392336324504 660.3763475795326,84.88289647461119 658.2391144927047,83.1932304219776 654.9506566041748,83.13839836022555 652.3182962014234,84.31270370300786 651.4038607217001,85.42478045841432 643.4049272086336,84.50259300786843 639.860252942563,83.84491376934545 638.5183008108206,83.02021939554106 639.213549795965,79.29147080485325 636.8057219705333,77.80132049361839 635.4844784308177,76.42586236790896 629.9145209049993,78.09199720461947 627.494373727839,76.70260136354568 624.9982040113224,81.10354026529035 625.0768559402984,84.09061749918942 621.1736195175956,88.39611531084046 616.8749808849179,90.1725137902124 616.8348359102654,92.92230849007854 615.0905075518154,94.4701866060816 607.965595460132,96.77191056615885 607.5715878514342,98.05142056625999 608.8781806413775,100.79072159069011 603.5056753161572,106.16721722398017 602.6903328093814,106.33415230861488 599.4827345017206,109.6661968484974 595.8785567311111,108.33535236791607 591.3405344181236,108.06279522694439 589.9938189530807,109.70127623159198 588.6796751184602,110.15340711903315 587.0353814955388,109.57550456935382 586.6229286277572,107.48846043208442 582.2097388014377,102.08715448717493 581.0299257143441,98.09980584077516 578.817664682239,96.62384646753515 577.4479679558923,97.2922678266662 574.5388318340009,96.16856026013221 568.6833511422192,94.91258760026943 567.4007916073626,93.67886368051052 567.9214211956407,88.40603135547707 566.9037748966308,85.10795884475363 566.2013556185894,79.8122135925471 565.3280216698149,77.01107814006173 562.4352690043719,74.53611403937134 562.0902990158415,72.68534200701117 562.4466743588283,70.11835261951592 560.8562924586919,68.87750757184597 558.5081245878592,68.55151358737635 556.657836446991,69.66832568832933 555.9081807859628,72.39225213694567 552.2142279221682,75.32498590669388 549.3130711372823,73.86595092252117 546.448980024473,75.85096538266498 541.8319221488559,85.2067025258014 543.1619165707965,86.6475903194355 541.1242270946378,90.59864438851673 539.6673886725445,94.81979196899812 536.1769402478242,98.35656295239363 531.419831775641,99.3246676274494 530.5219335660003,100.07119718361014 525.4760582790138,101.05643732759023 523.6751501908244,103.30907637240574 519.7165188367732,103.38691687370198 515.8669710186422,103.09003262992479 510.88561617765475,106.09237991911465 510.3158371729792,107.94485667031051 507.83937432914996,110.57132614120502 503.2331182751138,111.15856160293123 503.9858673854073,113.73026009064051 503.2796342490364,117.8770518034168 503.41347123305167,118.97307865290662 505.67060863036335,120.790945253154 506.2876907532889,120.27429674821019 505.1760054940278,117.64900416266426 504.8971355311397,115.55155139081285 505.91827129954237,114.80748009175261 507.0291579602505,115.87408311116678 507.32633109355504,118.11978073618604 508.8175985240334,119.15821721690861 510.5925820504982,119.3335829024079 513.1758343456297,122.43810276621252 512.6671527377947,124.34484210177828 510.9524009048183,125.25274076029763 507.5327227623341,124.51767180079548 506.34238550509076,125.4645882453388 506.07440987367534,128.7626517376915 507.7952944275099,129.6297446351527 509.5559060313382,128.96419042703087 511.772941264785,130.80520638732384 513.1246186393935,131.05338557692556 518.186464375124,129.83356501665384 521.9523492484491,128.5764038996183 523.6927093622836,129.5321866782391 524.8099692484145,128.60147395068742 527.5841172080482,128.70076391792242 528.3447529944762,129.8263065474315 526.6914761783759,135.10807124015565 529.8932011777558,137.64880434606965 532.0842629475367,137.03287517063666 533.5634471304041,137.67137345311312 534.6189101579208,139.45471997352035 531.3445505784342,141.93246984008096 530.5088404855001,142.04561834580363 531.6043640109527,147.23270344383252 532.7183614239668,147.03631391179476 533.2549347544964,145.3184179198302 538.1852786728657,147.22793067800973 539.0452790405959,148.50191302468068 537.6579747827711,150.63357925027924 537.4536842569339,152.76352269514643 536.4117101472204,153.9890150783478 536.854514869238,155.6267831161071 540.4815895066587,156.84038377228154 542.1106366059754,159.37015609145197 544.7309600957673,162.18779618200068 544.2619449925991,164.18382202831066 544.7732237260726,167.05027150046072 540.5659904151411,169.29959604295806 539.7034407719004,171.39313034723602 537.6360873089834,172.51843563763998 536.3306691488008,174.65165397793555 536.324048840105,178.30223167903364 535.7973934251786,181.1731799343687 536.1745482261558,186.80044035566988 536.8650751099874,187.807018461682 535.3521613000403,193.29376463960097 533.6639647565502,193.94963253696233 532.7876265738685,192.40988581228186 529.7919756490053,192.00071885341987 527.8136782847503,194.356328269968 525.8437005362475,195.2128553042789 521.942632710985,198.6495585052893 521.7027245329859,200.97982271665228 522.3767473053135,202.3628507332574 524.4411899660902,203.58884541621921 524.9956909193678,209.06781290823648 524.7312319430885,210.52664723097763 522.2290974769409,215.57751072931836 523.941775896735,216.43404822159198 524.1787731603773,219.1019790319557 522.0048503543923,224.71777834837206 521.8773544300323,226.56222058079402 519.5203099771066,226.65295228203712 515.8087875735506,225.42485236860097 514.766667778179,226.69199270460916 516.5069461574496,232.04806243485103 517.5417677546798,231.16758760504518 521.4517339984019,232.76470470018097 521.7908694704627,233.87593048218133 519.6279821759443,236.72355284962612 514.4337359453525,240.50615926558925 514.2418095193428,241.90821305232907 510.2573846890131,244.79080752634087 509.11477451235476,246.46307135815334 508.1879621690053,249.25183529122887 509.0233663700899,249.6784963102109 508.6679552172417,251.59573736689595 510.0961430745967,253.86404561697623 508.09227205318695,255.91314016564309 504.98937446472104,256.2133453011506 503.6588832292017,258.0122289027866 502.5093365705107,262.20750395804833 500.01813245618735,266.61876225146597 496.50506981537114,268.98168151790657 492.24140886474805,268.67055514301643 489.2894376655615,266.94446558699536 488.5338560652394,265.5888397465031 490.00832294017096,263.7573912058737 489.5386263954208,262.4843230237287 487.80015927105774,260.868521628068 487.4292746439555,258.7212870701495 486.0190576878561,258.2292056741675 483.0032006135385,259.37133749788615 482.5968487587879,264.98770232976335 480.5629297675194,265.3900627504206 478.6125830170843,264.61076735516707 478.9195335303311,262.5459789822396 480.87023762601405,260.0486482691592 478.7748113434822,255.01528853378517 477.6975095974778,254.84679320092152 476.60456713728587,257.6436588504904 475.3313204979253,259.13121790924055 474.38329299761097,259.1952510919998 474.2807591067734,255.9697331920168 473.2680374496194,256.22719788281967 471.85115479477093,260.8647542370651 470.15388606248496,260.2911967136284 471.5452571141968,256.9880943628352 470.6657367262407,256.1710460827386 472.547768486601,250.83069344197025 472.5852496193117,249.9149080400503 475.210413264101,250.91705733381002 478.4773437076571,250.1388857648688 480.9237863835011,252.39154922094508 481.4474575965562,254.08916903243676 482.3844494852243,254.60133517953574 485.216505297446,247.96180685579816 486.65468225140086,245.3838686607379 486.4125451901633,242.45658113436025 485.55651153373026,238.2585019355448 487.78784185547505,237.76002322620235 486.8982789497947,235.31971654674834 482.4736436168087,232.67031336736454 480.2005372338194,229.40458092712908 478.404615785602,229.71154866060158 476.9357954143292,228.49514882588392 468.76940928520753,223.0405947467109 470.0865728367539,220.90670267152507 469.08115852436833,216.45403568330926 467.5673029250947,213.86632701917887 466.77474141005973,211.22292926863707 463.07412467335536,210.00520286742358 461.16049235929285,208.9393596870304 460.69468748192696,206.93681464095323 462.3981205350367,202.8939513885714 459.8885879881356,200.74081286702778 459.12593147889936,198.13838283753262 460.7599019880868,197.15346957833117 461.0150825645828,192.48983666442865 454.9139859905963,189.88434597985287 452.43994395743135,189.6128306620546 452.3859583461923,191.9226904838568 451.024861709566,194.20225083722818 450.02364762633624,194.9110719248041 445.8625810549095,193.08480161358096 444.5898806006631,191.33710234815504 443.8790475419707,189.28296003011366 441.0005648587319,188.63936439607858 438.82839423300493,188.76792506315724 437.4627499921173,190.72873777515008 436.29120439484143,190.7237092338808 434.46593027699174,189.35330323328827 433.6613592520956,186.2745540352828 431.87492040970943,185.0818522872059 429.5050384654958,180.54284357458442 426.97095790402517,180.7109805187822 424.48691508140337,183.12653474575882 422.61526916821197,182.57933561567353 421.2001859026606,181.29260977633834 417.2870099451701,180.49314741065962 415.19051762091465,170.38659402285117 414.00477960477536,169.49364555625652 412.4037495013686,169.80873685676397 408.479178977494,164.3350111895677 410.16698840002704,163.23911170388527 410.44573749580906,161.63901631102806 409.6464393539146,157.24412947407592 407.1336555824316,154.8434630489523 407.94781912999645,152.1312357500683 407.6654300853505,149.72748073167634 404.96355919189784,150.63784375948046 400.2363814611411,151.0216772889135 399.7234551748458,149.85357196515986 401.0763831301778,148.55144354441228 397.74208379813035,146.55798786208732 393.6957160555406,147.32543317465513 391.2611765076762,145.1371542807223 387.2700787524874,148.80949306337942 387.4457881895164,150.84079425109388 385.3836966698887,151.64717052460105 380.9391932320767,155.40400883828863 379.7837659381308,157.14480809588014 377.0946941504123,155.3154032405726 377.0834658821043,150.13050413495216 375.2809831435184,146.64345148571988 373.197414747139,145.92710076073382 369.85586779699855,147.98232673588143 366.6572362558036,145.90241749507334 366.91720412767967,143.6736304693046 368.1259517849259,142.38151319793423 368.16260664235847,137.93205382325408 366.828678245878,137.79307146144106 362.683506476388,138.8688359666317 361.50226167516547,140.3688039044767 359.4220793395281,138.95699120940088 358.7046302137375,136.76818455393828 355.6423804182487,137.1598575657681 355.1635089395046,137.94934269764127 350.68930071850906,136.99670535461712 349.42159090485325,136.12436244324698 349.5837889749716,134.69390808385936 350.8773784047744,132.73858379232144 353.4042952572873,131.31859844116877 353.8545090990868,128.31859897694744 352.1630304194308,126.00413684037727 350.36683417082304,124.76851958562321 349.88409767594874,121.69680911493572 351.21464354324354,120.41229692714182 351.1855796552285,118.28393913637689 349.86574716860025,117.44593970980372 347.5608530620599,118.02953975673944 346.0935172441474,119.9396410996489 344.9995018457872,122.70426283315021 341.9247295718422,123.78950855742073 339.386591272695,126.76543965815006 337.0011819916993,126.73539323845819 335.07704768663183,125.80300155224938 334.0217384302732,123.52509266925574 330.4024058659506,124.0467334230122 329.0249982845846,126.60458172726749 326.88265177110003,125.73851465345592 325.7193931005364,124.22833223059138 324.3750610242602,123.61974040809565 323.3300147685276,124.97935312665976 322.96419696133694,127.31222445863 318.9610660886674,129.47711118040917 314.78752290719393,129.910172568865 313.54481999659254,131.35552453118981 309.52236213037565,130.9216630542852 307.7750796691485,129.36289456762063 305.5347113211921,128.76514070396217 302.8736258467399,129.72281748439923 301.6502865325958,128.63984141235096 300.38446131733673,126.18040866698408 298.57590101319227,126.0907024090601 295.8274640218798,126.72915615777134 293.3482748517311,122.24110111382367 288.4604073533258,120.37816417968776 287.38978075431663,116.8643129103528 291.46252520361577,113.30319241416191 291.16391781410573,110.28168817128108 289.35027582109205,109.46855767428201 289.17132022773427,108.17782540212573 286.2992403554137,102.7409471493529 286.1050076579908,100.18555254309723 284.5160146759046,95.88606381158417 284.96704234699496,94.46147373002742 282.85724527535575,87.99437768832047 283.14326708746984,86.03793362546634 282.9021283583247,80.2081656478033 275.41341768410143,79.944185485118 271.24738905117925,80.56965809285805 271.5126934350497,79.11727197474448 274.98356396388544,79.35254076240443 275.6417327823875,75.82324873694466 273.1952767347295,76.8012076267147 272.59032798552886,77.72320976986174 270.1236654042737,79.17106119665817 268.3182944136975,79.00517428719633 268.60327604893735,80.14513822508081 267.2398301578433,81.46885148397268 267.5743876970262,79.15432250112019 265.80409258957366,79.79452842121708 265.49797175002345,78.14205574245841 264.26058508525045,78.34683292750276 265.1807331090449,81.09797326579701 264.26659298705925,82.06040536767233 262.12537187826746,79.6901043098137 261.1688512093125,77.1721028527935 261.7450329973806,75.19758579586426 263.51275334300203,73.19438179930489 265.83031165843244,72.95989606962826 268.4628840384827,71.93780457930166 267.04628422593095,70.82145815529054 266.85420825480463,68.63775725946937 265.4296366636515,66.93961920342099 263.1047952299358,66.50382275499817 261.52686588629444,64.22721147412994 257.756081216119,63.65547029412926 257.08970646537153,64.54076120536922 254.20922913362497,64.16549815592907 252.78550560804436,62.88955458690498 253.1840706989984,61.00623280015418 252.72565287916973,59.81461028377828 248.7151336411261,62.865250644680145 245.98392714367523,62.755910009218155 245.81028625726606,61.68265990311022 244.01214842578602,61.1170932259389 243.553008928257,61.95350733170358 241.2475164787772,60.58341291915508 241.8068081635741,58.41513398853601 240.9324072453639,58.414798071725954 240.74199688809787,56.224730557565294 242.06668938113464,54.79421250403675 241.0133197005336,53.01623615956203 238.6288848108531,51.50284479128277 236.1972609638369,50.8001847302977 233.3639507995161,47.64508853232735 233.23279000119842,45.486566516251514 232.0987527178939,44.66905779329318 228.8274121773874,44.337071894078804 227.29390339825426,42.8891631049155 223.7931265943707,42.20587216616434 223.13097393152455,40.45230073921846 221.0254977978231,39.85605289312571 221.60163580981,37.84747454341425 213.92622779435868,38.68686561791071 211.8221787903631,38.530548880908896 205.96901892937672,40.219283853721095 201.44753600553,39.19560167995155 196.86799824120493,40.446576330849325 195.39728866337362,41.94960204852134 193.95655027179137,40.56146063158758 190.05925516731193,40.626574372615664 189.00825186410424,38.260273778161036 187.78704960240384,37.19404522375885 182.30631599941321,36.81483771745911 180.0679343292428,29.82848960519277 180.2914680794317,27.50025533246253 182.1181398734069,27.63345150280827 184.49743086611502,30.36277211830418 185.14927348295762,29.682260286027827 187.2376020518992,30.584616844336665 190.8560182295439,29.555304821554614 191.52197944340003,30.661734836128858 193.27993886604213,31.615259245077823 196.9338627648266,30.399428067063695 198.59362672386098,32.631720969991534 200.81437693920702,33.594830175450284 200.37277477787552,35.04224176791445 202.45504479715598,34.27521116464504 204.28264015959792,34.87222844465896 203.69160499195243,33.59672613003488 200.93971998045055,32.9804014960348 198.3864584520181,30.711762776865726 198.40190662505964,28.009973222633448 200.305143943616,28.4606854347428 200.12095429756346,26.89904706298944 201.72954988309436,26.698725148278754 203.80376828744025,25.30183462601724 205.15109154940043,25.26546446350403 207.11465510390204,26.19405391956957 209.54642832232332,24.95755347544889 212.44424566165657,26.4391342117126 214.7606153766363,26.24078499648965 218.2474292277216,27.63588847559265 216.5318287121295,26.108198248447138 212.8671550318483,25.884004366459294 210.91277543087992,24.457489736993693 208.3555520124361,23.8984267973766 206.30241635729877,24.73692422692318 203.6469891817341,23.941821041190565 201.38145111633565,26.13889550784279 200.09047888253764,24.935998371492815 197.16369422679534,27.254504965265824 196.8935855935141,28.906542726646194 194.76054504646095,29.132521049411707 192.57019961705097,27.728665313519286 190.1216571226671,28.805277534110132 185.49629010528332,27.833318906873956 183.196955771692,27.66115627119939 182.6937692372973,25.224098431581524 183.99245428376463,24.547055640047006 181.3369310856142,24.707525879309514 181.8423656044209,23.185615461484872 183.57492466069806,21.435312516420822 181.01403918238663,22.950730795432946 178.4848118829188,22.00993083022456 178.36327131717204,19.986763071708992 177.86892373748125,22.485066148209512 175.34619932249424,24.18835294802284 174.14241665157715,22.247355809564965 176.2181341651461,20.845744638932274 174.49406630630452,21.1862813018422 173.1406517822172,20.064027910971618 170.5365219499268,19.733527101309164 169.26437498096377,18.14888865900332 169.23277446390276,16.256570268372343 171.30432221258135,14.996554380359385 169.3324782324275,14.473235134659035 169.45728418877795,12.888951442491475 167.81406637358532,12.343455223067963 167.92955639351658,10.312614056945222 169.7521989530971,10.128499570561075 171.5346725548053,12.35107476680912 171.95369949458737,14.433635652216935 173.43213984800866,13.066269235286427 175.6061843570058,9.828212787728262 177.29682891001636,8.118824888489257 177.62773582291632,6.092524676049834 176.2536855399127,7.403946497749075 176.0735601647679,8.668416738454425 171.8221277037096,9.442523570219464 171.36126925898134,7.900272000416976 169.5179427525333,8.06626117782207 169.0795392853146,5.960517414442279 168.4212076678927,6.504266779182672 165.90560122546523,5.875851718202853 165.24935895712883,4.821332698369929 167.42567194538006,3.03503692404729 167.59166374718203,0.0 166.93267651749758,2.518842583261403 165.89564265547872,2.46154871617307 163.11905588047037,3.983515332619504 161.8280821616178,3.7981787342537245 164.7612573298996,7.514484949250459 161.55800418000473,9.314468060818854 160.94178740499422,11.24622155582415 159.61424884615954,10.847669877731732 159.51005849902126,12.838294497338325 158.47297233217728,12.28149186104065 157.44128849509957,13.96293692382028 155.58454660489235,12.819759896061555 155.5572609749587,11.174083243497307 156.4911201707443,10.29479294935129 155.21869866957223,9.673556715788436 154.6127905464771,12.11131164614119 152.86802475497674,11.492704995629765 153.1210361280595,9.229566141268947 154.38402605298472,8.358521555145103 152.56326979530326,7.9545253492483425 151.73121990410286,8.895383931391507 152.3533851334285,11.058200543037401 151.45725677167778,12.091274955652693 150.0925602130572,16.87502014889185 148.89973330356085,17.860071565706562 147.5318246611954,21.298318936517717 146.48777061545007,20.129282887991394 143.66709552208525,19.84056532945067 144.10263879127868,23.064164540042157 146.56020215722623,26.88322684144771 145.63027417453597,26.13389379803823 145.07575477899218,27.08062145820304 145.45200746877686,30.173972274700873 143.18733817098422,30.79485356904388 140.40198012406375,30.324768228716948 137.87744061813402,31.09433417106527 135.68673172562268,30.659567543883895 133.42186820715213,33.215020476717086 132.56955603931496,35.15308251462329 131.62426923821974,34.13400547718868 126.99035178934736,35.98014637472863 126.05605561797623,32.08196730943371 123.96754312060935,32.625436589103515 120.35007648654162,29.680310811684762 119.52207385942936,30.473189253066153 114.435924293315,32.251174296852014 113.16789611437488,33.393744610064346 110.24034890123083,34.25294474471809 108.80969689532007,33.84674823252101 108.257064046584,37.10246837289117 105.27452625356689,39.10103104588609 103.82488456429529,41.984717800130284 102.7822174274187,43.16114603510914 102.68934063204806,46.508916292499066 100.52589294125728,48.61982538549091 102.84998198604295,49.56874753295472 105.09586909363101,51.761526340229125 104.72826937292749,53.05232899938278 105.23572556959783,54.8095207421768 104.82098584650319,59.77910839975141 105.00864517773701,61.581293760509425 106.50845711921791,63.09416983688152 106.39175449804858,66.62983077819399 102.90072538212989,75.48901672886251 99.2736575983096,77.33340483234304 97.06895655686094,78.01577551981444 95.33696197060188,79.67057880792481 91.39404104815455,78.41623733445107 91.4046552888948,80.81530689317987 92.28166609986714,81.63333095797151 88.24279622184622,85.33262370678898 83.45130664523201,86.29307429875337 78.23558574891607,85.93417843567545 76.33978319537601,86.58123826596557 74.72035233142823,88.22186237178187 74.1490767678978,89.91922845112083 76.02765359237121,93.88113326385468 74.89223545478532,96.02031889301571 71.126820224581,98.4252326518345 66.79404733365084,98.59092082065911 65.66774228257674,97.91406773853765 63.78664558531513,95.4858959310663 61.474491806228414,94.93637781087267 59.21307043056826,96.32272697856877 58.9756236812604,98.73292704917071 60.54489454417467,101.31880251909104 60.94454191627152,103.71369929499951 60.27372192812934,105.72250453751695 58.245399279124555,107.2770339839517 54.55196684202488,108.28458778712883 52.81009786803888,109.38749246284851 49.5564977275626,112.8742162306201 48.81046901377963,116.4507172867859 50.90476598296838,119.97626275845488 51.365792477844174,123.3791258357935 50.52720625696134,128.84670269316183 49.428849133806914,131.0928199254828 47.21706387241353,134.43774049541116 45.05523425964018,136.44959058074005 42.63704611444904,137.89564328484084 35.16672988148552,140.3851620370101 29.392605406656052,143.34130916322732 21.745954657076442,148.2444035784833 13.417191531601883,154.60179405054095 0.0,181.45697201147482 0.3760252684845513,193.90659572423198 1.5380060609453543,202.83751579195751 7.206031169868887,222.24686794469324 6.475048455244389,227.9368346626884 15.09732771867392,244.56477208952174 16.694316292473417,252.5601927511317 18.904461022220012,258.81617417545453 23.61478249944726,273.24252873216255 33.70273663818025,295.6367871560296 57.60138942633404,337.26113933196245 90.76719804803153,366.9938089397545 95.93306333194245,373.4790650721129 97.62808540367946,377.11881503177773 97.73261380878009,380.9423321549684 94.73879250082452,388.0384430256569 93.68514555408356,391.09009187362165 92.41740103027391,399.86031177783093 92.44195108660826,403.577187465727 92.87851360110614,405.8119554781227 94.51757539393084,407.23131393668973 97.94295219050721,407.944953621613 102.4989481458254,406.3519828830838 112.286890444086,402.40106264527685 114.44612509792228,402.10518125815435 116.51075081226932,402.8428833593963 118.5500678300645,406.2897826554206 121.95343391857772,419.3347994324606 123.33825292496151,423.08648009134293 126.73790501892539,436.3499543039529 126.26073784060647,441.399030771521 122.90216073732665,450.22906142511823 121.75325267901162,453.9161272053755 120.69748682324101,461.95109109811784 124.20005143223146,487.0620208737049 128.824376857174,500.5328940158888 132.21770753081407,507.82126227844884 145.6570473030246,524.2406273660222 149.7196505834235,527.1535939185324 153.6315342408606,528.8962646519944 157.34609394356215,529.728164544845 159.53224541942953,529.673582907781 161.74458878176907,528.8646661196451 164.19063080679683,527.2121453811715 168.10645087761043,523.8223557203082 185.85283058297495,513.4701764760157 214.65262041357,494.1482237707643 222.988046495753,487.2013257007339 225.52558906675483,483.53586958390696 230.65796043513313,474.35758207077095 232.84371717044476,475.3199804297551 233.044604062763,474.5705195358969 231.05727712285957,473.49963536109817 232.59891856945177,470.1438369853515 235.51316086661527,458.10463918722724 238.09621134409088,452.6332687495045 241.71862047748826,449.30835073653907 246.3146762705504,446.73897806833725 258.6756188335998,445.841363021127 275.3567307653769,446.23099585255204 298.60114509458583,447.1208240714906 314.4393550581596,447.99684435654797 315.7354690275371,448.62316160921307 320.25621012425614,453.85352248732625 322.34269236927264,455.1440445375042 329.44628506502085,456.43918463137453 335.46756653022135,457.2827809538571 340.0343381730786,458.1391636588415 345.3853123670316,459.498881151468 349.11280516755005,461.2208962453925 352.9671560458241,461.63305146698764 356.40345119553194,460.3049190499537 359.2055862908977,457.70890185394614 360.1023922368898,451.40162024848695 362.074399217469,448.00166498159524 367.45817166909615,444.02007143017244 376.7571016684952,442.0479174200359 379.31557952027686,443.47590600379544 380.5679354391175,445.2664591304477 382.04729284446444,446.019729649415 385.26234227994456,444.86377104726967 389.2586414100628,441.76727233951317 392.4650795744609,437.36585172614207 392.55523938691755,435.3891471192382 390.05992800168156,432.8918063335607 387.46747772492523,431.64534515917796 384.6297831652975,428.76450057533367 385.2933943769393,426.95700425458466 387.2705052117571,425.90710349903236 390.29500794999916,425.58934112883503 392.7706035572967,424.8714679842916 393.83859701622777,423.94411967228393 395.84596076038014,420.85179081536967 397.2916418676439,419.58412423337506 400.9877392598272,418.6016544935842 404.3414063756422,421.4631651393985 406.4288572194506,422.7059086138013 410.226694238749,422.2903038640633 413.45677887492315,421.4755278730081 418.4961944895809,422.37955567647987 420.37079926330375,419.69023751421105 421.60156734729014,421.0262178561417 421.21046819494927,426.31804789455293 422.40462521720616,427.971877070492 424.7124798635164,428.452547764728 427.8119085980696,426.9219964795732 430.0631076213845,422.84421749842767 433.5918002910846,422.0057594649978 436.60336864483963,418.0714975080466 440.0602952677753,416.0710569226686 442.62144659209673,416.2567708439214 444.47456717963223,415.2140200544544 445.54126392451406,413.8451894271434 447.48453281819474,413.4880427403751 450.58447990276625,413.9886309963971 453.74773254693224,411.79523404826017 454.88499387268706,411.581865040249 458.65626205218155,412.5300156665416 459.65660143588553,413.52124486596796 462.05562594780815,413.58475289580326 463.1674739729729,414.6412935253667 466.71474796532493,413.91507426091823 467.1584858616897,411.15004342288387 469.35889595966563,408.6308597047935 470.7773846867249,408.1990008385154 471.0666640890843,406.57379273776826 469.9975047282061,407.53059679933614 468.8298593320385,407.18473631966253 468.60800224154093,405.3323597582104 469.2038293547824,402.7181289239194 470.98813298922136,402.0037608813424 471.40125720223784,398.191451921713 472.3487578146936,397.63937726888355 474.9933825453516,397.74154418001126 476.35633308800135,397.0140568146302 479.1893702760893,392.5765136041356 481.807211773029,389.2005017051455 483.08909088477037,388.96570184958654 484.7985653856808,392.18371047503126 487.6130371633077,392.0537958624411 489.6923710194103,389.88607540932037 491.6256562082873,390.03393871126593 493.40121695854316,391.93969038980003 496.60169505592097,392.0710222609474 499.7925969415631,391.59029149034166 501.3864287991868,392.2435900394463 501.7551731626835,397.27785564054835 505.4875198516343,399.220379101912 506.5491472915353,397.5275477178417 512.3071039113621,398.52462261437563 513.958639025464,397.7378237643501 515.1397548891433,398.989981267634 516.7493895656316,398.80786408928066 518.7953835468543,397.3344536828359 521.3238268715161,397.6170300906766 522.6693624931586,397.24155859711516 523.6735202775325,395.84841791660597 525.4562130913696,396.32805234295404 529.3222192628035,395.5295140012033 530.0600336503643,396.82129603671285 534.791148367477,396.59754213989777 536.875474638496,396.89561072438937 539.0973978022338,396.4896120074632 540.7471677817631,396.92109840677097 542.5695513320063,399.11535272263376 546.3366990401773,399.2082850818055 547.7897763523615,398.0344841561381 549.372584382588,398.2168848782071 552.2273910333583,401.4073322353471 552.8337717015495,403.08461309498625 555.9611864349648,404.37386670481925 557.9930046254298,407.00158597408563 558.1775388761591,409.77704978496456 557.625829642149,410.6554392182278 558.4695919429485,413.4671419934045 559.9653453900406,414.4896636292809 563.4202451832784,413.0709346783213 566.4148149458242,410.953469491167 581.1186399985572,398.1459872464118 591.231479665835,391.33314423367176 593.8642122196918,390.4044023194642 610.7343725846422,387.32318215277485 617.324455113482,386.70774848823913 624.1714390020647,386.6794417080197 627.8935326784483,386.96448743779104 630.7587198260619,386.7927774195857 633.2768351222527,385.88541442570323 638.0267058531813,382.3110110211692 640.5578317456451,381.2622266556416 645.4745155345406,379.8090801320478 647.5420487078902,377.58013285435743 649.6409893048834,374.2584056210648 651.4778413196193,370.5603293772116 653.9118554708898,367.4607500633396 659.9003831937831,363.03226740502174 666.1827786933164,356.6017398917221 669.9566440771641,355.07439323524574 676.1775788900003,354.8560234792187 683.7488871404636,355.7156882754666 691.1480665131498,355.83002293309437 695.3842930896411,355.47573757731413 703.0593478712744,353.9298983546216 710.13286525498,352.078591356186 715.5550950407841,349.885632490762 728.2774102403424,343.4671417260249 736.6130446435371,340.0016046816143 744.8135372833807,338.3331133981475 755.9344976955317,338.62121335804414 759.2677917507644,339.26204009555136 763.280766242823,340.4972864791638 770.1317614020784,343.05828615263465 776.6578654600021,346.5663083102206 784.130263356323,351.89646603463416 789.4561852190573,356.9781516672037 793.4645881937391,363.88972572529565 794.8967960572811,372.18243269893173 796.4345624618747,379.7401044865072 797.8130329818115,385.171761956007 800.5767865951021,390.2568894014831 803.5665551763847,393.60427445327423 809.0979436960245,397.6295670022697 814.5219330493871,401.9776199016191 824.7343259280759,412.8866059420502 832.1337213629203,422.1471478015974 835.6825646033811,427.8337687895104 838.6829178648267,436.113152943322 840.5397297458754,441.978229587325 840.6538847968374,446.7534938210056 839.8697283747197,452.99220037843577 837.8697257439292,460.37050176236505 835.4498400043476,476.1774879412601 835.463720637872,480.84110528578924 837.0957523365332,488.5045056600575 842.2529552999388,514.9540518963541 844.7854534635708,521.7869857592021 848.876261689572,529.7114130010111 854.5422316546715,537.6697005309978 859.865106801314,541.5918683173846 864.9382539871057,543.8099235643182 872.6514123297106,546.5116084913769 879.8844937172653,548.3519248302564 892.4690652530678,547.4826513732364 901.6290884488437,546.1794449182063 908.5957853453515,543.5848198862302 913.362429221214,540.6075429196011 918.0628207892711,535.5009737916195 922.67238484363,527.0326117571689 924.9089613109238,521.933538464921 926.7291755512359,518.9430808667087 930.0931329612741,514.8468471872795 932.5608411889837,513.8383152202492 936.9988141257401,512.6458195883573 941.7223412877125,512.3045487594572 946.1508641502996,512.3349360342645 950.3423401098971,511.77374570517327 972.7585649007445,505.8597419255119 986.6192294446204,501.53089659049357 1003.4641670661844,495.44163680583307 1009.5412921654626,490.8692920513852 1012.8585426490882,486.8897782110506 1020.6363029222861,475.08074416591387 1023.0964004248124,469.29185563629284 1023.9953126010197,461.98963561573777 1024.0,455.8446286549504 1022.5509849857153,447.8695438154438 1019.7904679946166,441.46957253933806 1015.5741566292209,433.9861600871173 1014.0695097747753,429.6190295399117 1012.393212554734,423.65440821265867 1010.401985452181,418.7499909204228 1008.3816075627734,415.75193097271364 1002.4167366152367,412.79562313013474 997.4064790694237,412.61046163669926 990.6225644497999,411.91772027393245 985.713537516383,411.20436802249753 979.2452263260344,409.505313112161 972.1112995447024,406.94730009690534 966.347048068594,404.4061393171436 962.0671648819342,401.68290785066085 959.3527441093061,398.9850220171767 954.2057040578313,395.18216245775955 950.7489002432183,390.6649164225046 947.6827010942163,385.52589812743634 944.6446979251672,379.32069034535664 943.7239986343733,375.26932141399465 944.0609502414073,366.5855295049688 946.9196897123757,360.4843363481966 951.5538693910684,353.3645093042636 959.9871762492436,342.2778386934945 966.8524967524664,337.1477402006152 973.1180317369424,332.80254855082126 977.0988951597252,329.6914318531949 984.6439100183787,319.31985951951606 987.9999990983604,312.8041766431716 993.7777416689642,302.24707775556766 996.9025159227368,297.3096853247884 998.7591229447968,291.9360836323743 999.5311702657156,286.7497261884663 998.9332744646415,281.1242870776087 996.9412499734966,276.42286401225294 992.5776881836542,272.74840421631933 986.1300272840857,270.0977951468294 970.5372545579645,268.13989569990946 966.4924008278351,268.9143608754281 953.5633654323856,272.60798350910653 938.7126532925253,274.2926126242853 930.0744587947654,274.1325213118542 911.2756307454393,272.6041483881722 894.1786208546137,274.4536900758891 892.7064861551073,274.5289146376779 890.6605100016081,273.218276780046 890.7573561345225,270.51542509989207 893.4053612637273,267.807233756182 889.2412602117049,261.5223009585169 887.3232354157045,261.1956998357877 883.4287048814564,257.87866592209525 881.2278950151142,257.2831139258513 874.7229469075477,256.8855613018946 871.0558160233722,257.2117582570151 869.9119838824511,256.11698403948895 867.2929330478452,255.91355248751893 863.9038115161446,256.7915153457967 861.9204215651187,256.65814395307757 857.7569156850393,257.7579616652648 855.5566735323366,257.685300143477 854.3037126183552,261.8560984208408 853.2122993439841,264.3133859580521 850.770378590325,265.7594615429564 844.0952095206881,262.1061202211148 843.1324621501069,260.02593408578883 840.3646211912238,258.8439042348252 837.6094964426757,258.1561957338456 829.8797538894675,257.8359195468736 827.5843136980218,256.12714924969913 825.4072907206643,255.31389781365658 821.9874654714222,254.95451732945162 820.2641083880001,255.86652240023 818.4496492865211,257.91692748043215 818.4303478405923,259.6568956419317 817.568099695411,260.75932759040353 814.9430231761288,260.8317889418625 807.5430236300036,262.8745281336437 802.3287865156867,263.99037262320456 800.9945033955642,264.9784310085885 798.8963847164111,264.95990755068516 796.6169137797016,265.9328760774249 795.2293884805991,264.02701713502535 796.4476106296742,262.63003352886085 797.1493266086733,260.1018185868299 796.4888776425797,257.2568467896181 795.4997615449993,257.34464515344365 794.0417804570972,255.99111558872664 792.8883369856421,251.3429137538938 793.0552733282142,249.4234777933138 792.2280830827277,247.27450034694613 792.5397856699569,245.86816929151388 794.7853315783898,245.14872772900787 796.3251200953613,245.29290497905134 799.5327150938114,244.21341430405948 802.5053530139115,241.7951883532976 802.7664422850372,240.39429447332157 808.0623654231382,239.26223025577286 812.3264880572788,232.38705430826076 812.9409064864533,230.7571615360451 812.3888756082995,226.37855400032316 809.7068200353542,222.02896240264653 809.1991738105917,219.84513192338943 807.0034404136386,220.75894427461827 804.7575076103999,220.36757101338048 802.5151044930403,219.2292916045226 799.6657023669819,216.84695991629803 795.7562392660242,215.75557330869765 790.940610272446,216.54290696176344 788.1963474848659,212.30304083735177 788.1477366109654,207.404714631091 789.6766056760719,205.18663641476167 787.1750819224335,203.59115982396338 785.7284050756343,201.61965691036318 784.4530997926618,198.6286471438006 782.6930287631671,200.5203710921191 780.2889709892028,201.5490152263974 779.5181174358358,200.36523912698067 776.5126400124551,200.5125426458078 774.3233435139648,201.66239464440036 769.3523202246023,201.89280616333167 771.1413918796684,198.95521074278975 769.4194820275626,195.70347714743127 769.0876082021188,193.49345950740127 766.2369503599821,188.88727127295306 764.6890743237434,187.42565174559587 764.5546152284458,185.73094812826588 766.9399686383354,183.42188803049453 768.787271050782,183.58313416147843 768.2965105331718,181.07584252769453 769.5135528566738,176.78349197055547 774.1857181248222,173.62078568909237 775.6133048180684,171.35935868209776 777.1411530661005,170.40399959398843 776.4271024555453,167.72347839510343 777.2169845071439,165.45596339529874 778.6894855135444,162.96654338979698 779.6622303082955,160.2269946465874 779.4608052316702,158.26699242054235 778.5061712578923,156.41011815186528 777.959030536183,153.57325972697424 777.826463422733,150.02196052302997 782.7164737555431,149.57773647731682 785.2890898536244,148.25380068206238 785.6709924595506,145.84518535593077 785.3041147045366,144.4990820487737 781.8091566576749,143.86813002118856 782.2974875762234,142.9540166580225 784.603983816903,142.77053233521065 786.1991261978932,142.0400053059672 785.70880033923,140.71576445941582 788.0921717095667,140.22140002860044 787.8616265065375,138.71969165329432 786.3071375071979,137.65749550011532 784.5421934391659,138.04507506922795 783.8071606732111,139.52995545601226 782.1973973812087,133.97871275240448 782.8325591091287,132.3732918671156 779.1543235580111,128.69562242378532 778.8044289517294,124.64001786380186 777.9974492010361,123.13326119321903 776.1723739624257,121.738870799106 775.3420041788535,119.22689540488767 774.2687013751695,117.73946645983096 772.0821338783107,117.58362676349913 769.7614268121423,116.25504024402437 768.6597509381197,114.0504416295787 767.3164094914706,113.26347538866952 763.164676087,115.5641613219949 761.01450505311,116.27206304434088 757.4349950886693,118.14790749862158 756.3027075072074,125.20963385566483 755.8972233839809,125.47296976691297 756.1932253630312,129.09800629066416 756.9393902094309,132.85356078454356 755.2979582762372,140.27032876369913 749.3680144374325,143.05766796451712 747.357853498371,143.38115773709745 745.3145707999894,140.33571362702554 741.9346234623291,140.23428089956383 738.5550976419361,139.4464816823466 737.5146474707218,138.428302438804 734.0261836853621,136.31641615915038 728.8369072889908,135.00212496322303 725.3983061440786,133.5886194787127 724.1416101974663,132.01542676486667 721.2161610562041,131.73964794817988 716.5398022640527,134.01230395556547 713.0254111365942,134.4855166239161 709.8649218552086,132.9944953402475 709.669364661952,131.86861785180884" /><polygon fill="black" points="71.70496031495192,586.4717268493242 74.99874132906554,586.2935832265977 76.97304156324043,584.5663144252967 77.53093276612793,580.6468221133972 76.91738687018798,576.4661013580923 71.12626425965972,568.9930332203458 70.33864610489708,565.7695839842331 68.8586937893347,561.6538847508367 66.3540564242772,558.6822864690837 65.6855471050824,557.1658698103839 62.136669631250165,555.8171427521789 59.09572306831571,557.6745530996668 57.114457906097165,558.2393763784538 54.86835163584091,557.7135896319138 54.22810264358669,554.3224419437101 53.33214142587229,552.3408326295494 51.70758982150087,551.6701674427475 48.66796233412882,552.028976865214 47.691265213078545,552.8983658580008 46.90159252673129,557.0139750264713 45.6974284803603,558.8446002673589 44.03259925095056,560.0584157150014 42.95027040322831,560.0353069930848 40.7842611410421,558.126391543442 37.15719194152004,557.5240708275946 35.020090662546046,558.168783071584 33.396893509957216,559.3012046130345 32.68535757363985,560.7945615576818 33.104456817178445,563.844741835551 34.843260452405524,565.4436533936467 39.559785781465926,566.7356873359479 46.51257181816097,569.9606920321022 50.17944587877188,572.0734580871559 50.68083668064677,575.1961100617411 51.33066788804128,576.5945915666836 53.13909853178591,578.3604119719635 56.96687942548358,581.2123655040255 64.9933725330094,584.412540511463 71.70496031495192,586.4717268493242" /><polygon fill="black" points="103.58696761520089,443.1549570976634 105.21232098491194,444.2438293068184 110.53868402364618,450.122104217103 115.85270813554568,452.74896534648894 117.88059750434329,451.85463138386257 118.16013045761899,450.29383734114026 118.11174857903256,444.2676534597409 113.23787342278516,441.3377689948718 110.58892948037298,439.4269995769474 108.62980168855435,439.013954495734 105.15492780560848,434.7704158961271 103.68795989784265,434.47517351376314 101.45953832771382,436.0238865164797 101.34480022522314,440.0096385615178 103.58696761520089,443.1549570976634" /><polygon fill="black" points="79.65824675632543,400.1722143016574 81.03306928278985,399.92580020203735 80.82865677346234,398.8782321975593 79.65824675632543,400.1722143016574" /><polygon fill="black" points="97.57922501045394,457.8073392689424 106.35414118927713,466.32160816358885 108.56315595741037,466.65644165821334 111.89295958998696,462.1972115343034 112.04065631865684,460.5388094177007 103.37212037641893,451.832330979296 101.38990159297329,451.56035802361066 97.45079142178488,455.09989589744043 97.57922501045394,457.8073392689424" /><circle cx="388.0351865255381" cy="402.4256142409949" fill="rgb(100%,100%,100%)" r="16" stroke="grey" stroke-width="8" /></svg>