<?xml version="1.0" encoding="utf-8" ?>
<svg baseProfile="full" height="1024" version="1.1" width="1024" xmlns="http://www.w3.org/2000/svg" xmlns:ev="http://www.w3.org/2001/xml-events" xmlns:xlink="http://www.w3.org/1999/xlink"><defs /><polygon fill="black" points="294.23223865045253,17.292636638266345 286.42730929135695,16.65365479013667 279.8266279673698,18.085320628204386 274.4990311482019,17.707070343780288 268.57711021806256,15.025588119365466 266.1791617206878,12.51507252250758 259.07726494459433,7.863377102887171 252.62589654137258,7.501569341903519 249.76258697794148,5.731594739948719 245.7856915233704,0.6352953701821207 241.89034804523337,0.0 239.42638663578768,0.8314633943991794 237.60267179658715,2.7007618893366043 237.43051338159586,5.616017452121923 223.5581654070045,13.060159175185163 221.03528686220469,14.783188250794865 220.52754498077937,17.560978552771303 221.81786217927677,27.957989830913675 223.63570183965214,28.09647830379447 224.41816631559948,31.163946963080434 223.40347251833933,33.3341029863692 221.73444201305165,32.640346805433865 216.11049237296382,37.20114571890849 212.51055606626497,38.52685625815673 211.25213111452538,40.093424175419614 212.464607483574,44.153502711415285 207.8639984006351,48.886537766343395 203.88007231096614,50.8137193805851 200.29398020984112,51.16556823683709 195.7174016155092,48.86059791719708 192.03516089617943,44.99160762742952 189.77559856550678,38.87063542073804 192.6498716324427,33.48545533085485 191.75671122534882,26.136527649998698 190.21028224812665,25.322950657822844 185.53832147210082,27.700638408487066 183.2280385889769,36.433723819213014 179.3120605430253,45.236124190646024 176.03050462337083,47.40887955991343 173.59142188972143,48.01685033928106 170.75557198321096,46.345273832506564 169.71434772840104,44.23433090317462 161.44818378666454,45.3497286119657 157.55225086794533,39.01026276272853 150.32549776044388,33.59515348538696 143.3984575782984,29.473216039768772 133.59759746184992,27.398734412028602 129.5000082921605,27.65623894256862 119.36715975913552,29.608577794380267 117.29014986082923,39.390468298301585 117.18129427569897,45.77763004560825 117.66311792421556,54.96689384535364 118.60610638495116,62.0968925986615 112.63022970875355,69.92218083968191 105.29811918924091,75.23208589050682 89.74063814403426,78.94192949180649 80.90972073033251,85.5571541907517 70.58037890681824,96.81743110367245 73.28704520156097,100.50065079769422 75.30653379320289,101.3870281836879 84.20277002127614,101.57200139453528 96.97454699666967,124.01825880672061 98.51999527853071,134.71136783834345 103.03042578526357,140.98186066860603 105.32664140168698,140.21967235412978 107.82810243695015,142.18199776110907 110.68489161873607,139.82713641339376 113.3035707183399,140.83820713051773 115.10606582708895,144.43008603186775 119.09304220435988,141.62241372174844 119.69999925674641,143.70677783768406 122.08667806862161,142.18341989108387 122.33737138694565,143.85368336897682 126.11210897129124,143.42739646777432 128.17052273152308,146.88261278120342 129.86475825176285,146.76685708527805 133.14854493856419,143.9223515764038 137.59093197948164,143.32662782614113 140.43627579372475,146.3314613866711 140.03126989692439,149.52087963032795 145.15626010462506,149.33448407339267 143.71201357312407,151.38645789040197 144.98849498294558,153.46353031472256 141.8382284529979,151.90514301039207 141.5753838085254,155.69719424699304 137.34919613626477,161.43642510663994 141.23599881237033,166.06895333512 144.15112101390048,170.94428337176032 135.41940953256204,176.1426652520612 127.51643457640108,184.54805939962796 120.02442578916508,196.1115908473115 115.35788420314437,199.84171710426017 113.77190575087987,202.08339786825672 113.61038360472944,206.39793566568142 117.33446019635778,222.15848596799958 116.80002871554808,226.2830192582785 108.91088288207108,230.54461222438954 106.89857255794671,233.6625223999422 106.66473577129678,237.32673251033998 112.43473030725072,245.47135126595128 114.48927203291979,252.14362390086035 118.35154226414087,256.4459113498365 118.57757799399799,258.49414445259083 115.62809103731838,261.5006837861779 114.2358372335261,263.9832832711418 114.58339621192056,267.0100523728007 112.43720369991466,274.7636747062918 117.26749056262693,281.2227419445012 118.26863553887941,283.42038995446933 115.37810767280725,287.406369903857 112.18589674415541,288.0906801649562 108.01807164890836,286.77083213183664 104.58120033612248,287.11350764658107 101.45378037207163,288.5313194743418 94.74691750849979,296.6262110948509 95.63335093694212,300.63171218244634 101.18015195626076,310.0293064817571 102.55310174039111,313.53822551249414 102.75083890311674,316.6053566394005 100.51984987910652,319.9552274082083 95.90762570583006,324.28211175977367 89.82722828398234,336.6155805031949 87.89552956778218,336.1673103449376 82.84985178705958,330.84768102553585 73.09492059479484,334.2575861485874 65.01195835163084,341.0820606755211 61.58139797833097,347.5614764890445 55.11857364752035,355.8980133956969 54.094047009999585,360.7719338269386 55.204985323209605,362.6087240940444 60.27566399995143,364.48118911977633 63.4055944577613,364.4169937065817 65.88331732595812,367.2103930122836 65.47943817220201,370.44872569701715 66.04505160060702,373.4335910674681 69.04543764583984,382.9682462658219 71.23112604410322,385.5216835817698 73.1907679958533,391.32732720190756 72.30984054404905,395.9923695513405 70.35480864300246,398.3638744173237 67.61147268987757,399.04652601520445 54.71994508331117,400.01671232945125 50.428730905013566,407.2049233449093 47.55778680931485,417.26617195655945 28.25129209285174,462.04774568831147 28.14583208853889,466.7844505561908 31.300547044528034,472.24690214660916 30.58149153059639,476.2162220983606 31.333727118464527,482.6447002058653 30.201817267416683,490.428224975214 30.25550880673884,493.9580032801466 24.204412839592926,506.67033239449177 19.406392513463274,515.4149515542035 19.413528744426262,518.6790641996306 20.91580842634166,523.1177494526814 20.666296536474864,526.0802193190857 19.114331789758438,530.2687298144707 17.36236792466705,531.8509715592688 3.729964368151595,532.9634777852124 0.6421871076470265,535.943541723867 0.0,539.4588218288723 0.44366679512319823,542.958369317437 16.638671962787537,570.4203257623021 36.549645394025795,607.8214016439088 38.590097687470816,608.3465413855397 43.178618823019846,612.1424079163822 48.11383166534146,613.5270416471305 51.39270233809358,611.8022599407698 57.81801734898818,612.2999772413057 71.62040321660564,619.2670957943196 75.71305790966261,623.4802539007705 75.89416709540268,628.1403036235262 74.40103985166934,634.4591549659401 74.03009831829429,642.3353035028547 77.64482719228438,650.3588723104764 101.53030485676267,666.1717560635527 109.83366196640291,667.2255850710417 155.85249974222654,668.8420405450224 161.1250606878054,670.2480955815868 167.48430844705823,670.7974227126635 174.17738987101774,669.4226758453998 178.46910046539736,667.0483782906912 182.28073272115665,663.9596112304932 191.91620483381757,649.5190388198372 198.68260176944446,643.5083551796924 212.31468712675496,633.2649598613897 245.0697521536596,617.9679586533287 274.33131680012434,597.9205753776401 288.34732620653483,585.9753392218863 295.7706568530995,582.8617738050452 302.3342119350147,582.3135452911504 311.09745871473905,583.928733605358 318.54506296474887,584.2935725089898 323.2346940519638,582.932578814523 327.8941325987783,578.5609472987411 332.43311796214005,571.0754247274381 337.54940019674046,566.162577944758 342.331482169676,564.6906907519387 358.7287832033699,568.2576139339474 365.04051993723454,568.1990968403322 370.1381212260096,565.1305702579675 381.34152832338924,553.3587241429278 391.2763809874417,541.7179116037744 396.5885518088956,536.4693012495463 400.946280210063,533.8357094060599 405.55171082583,532.4186967244057 412.83845536416436,531.304731464496 416.6890243484038,532.6467603713013 425.1759931530132,531.7673416663372 430.4718277505178,531.8503826090628 434.7240010515098,530.5986742679319 452.0650087020353,523.8652344467475 466.1757826211292,520.224509217345 468.9957352883526,520.0886004695267 473.05233576954777,522.1672754901483 476.2540737996301,528.5937749360569 481.0817950517474,535.323443684934 487.66195583953134,537.8716777409813 491.3231737495035,537.9334000379163 498.75115818685333,536.4774616337141 504.5705298301174,534.1177751987123 508.852904751885,530.600227165646 510.9563795255719,526.9648157991055 513.4092392313127,519.216022533494 512.8443248729393,511.07218683585063 510.7104296863876,507.96914128079186 508.20644661697287,506.00073051818424 503.85927958648534,505.2349779856603 498.3577692556895,505.8461490012677 495.7224590266216,503.26341766986343 495.4236671846854,500.1907743170549 496.24197626393516,497.5856616103529 499.20508224090554,492.98820067621193 508.636029359611,484.7478804536098 516.0753277687587,481.9881282912047 553.5970205179719,477.83330197081955 555.5632093330063,477.1718161642782 558.0136746570802,473.5432014465897 559.523792395139,466.6599672884339 561.7979150400979,465.0366069319399 574.5398969085984,458.5258940302457 575.3758771331956,457.5725016598342 570.2223694641104,453.89375343831455 564.4774606671194,445.23551904021406 561.428573638817,441.6323304281317 550.5571328784373,435.69237996772154 535.9359143517067,433.77418990278966 528.8142709576291,433.8917022483389 521.0970234728583,432.2361222192759 517.4795333639239,434.30498434088736 513.6795155488745,434.97527659747027 508.36115470331754,433.817219939427 504.1052547570072,432.2178193420639 501.8821767940733,430.13434876738415 501.8609400927298,425.24562749464303 502.8915057846239,419.51944259366337 500.9918402565403,415.8930113625705 496.73621380015294,411.3003285995627 491.4657090301783,397.58992800944486 486.2151529983937,391.6368565827265 485.31543993650877,389.6065896158268 484.3976733516366,379.87996617129386 482.6567739325203,378.15015838070155 472.1540020527539,377.21827534476154 470.27078133588435,375.1195978507086 468.5706273685578,368.0674248704123 468.3350921478296,364.7567411014343 471.5171301692129,356.92439866057373 468.70779121712087,351.7475943804005 471.2417067153845,347.26322264006467 474.65361595413026,343.34419938813664 486.38122075984813,338.67154778053657 492.4457905891942,340.04597047844254 494.06579658415376,337.32607223143293 488.41513615280553,328.85883041105967 485.35087100814616,327.2293259840434 484.06494421959354,325.0718505710271 482.97261475516683,319.61102337544594 479.73407557262607,316.5047361598049 475.98170947079376,314.6197327840042 475.4419700313625,311.74256008258214 477.68017697479485,307.74305070554715 476.96716113976356,303.2062432839932 472.96381716757014,287.691579609134 467.3314186171013,286.43578648659695 461.00647113627446,288.48100178486084 439.65162581718755,300.9310394125913 434.398176913613,303.42187846062507 429.6299981990614,306.3374051866606 425.54774593186215,305.0862018361312 423.1037733525256,298.62580502521644 422.031924738224,290.33874331624247 420.565981652169,289.703108391447 415.15136057437275,290.3790959601853 409.2152882258242,289.7849764394575 402.7367406589943,289.750039974615 399.27798382479205,288.28435057384377 397.4808326167582,284.45944206508057 393.54629172037994,279.5385313154287 390.29373084994745,280.27217698139157 389.33861233516507,281.53535615563624 385.47377832152495,280.9872101814524 381.801672832942,275.2376430855287 376.2049559175697,267.43858987051624 374.3899134262737,262.18040078022864 374.50075839869464,253.65401680049808 372.9038843480696,249.95607958784024 370.0432154040291,248.7244878829548 359.75374044176266,246.10498393691648 358.731415642604,240.4557951285301 353.43657406746155,230.20551151931716 353.52720184342786,222.26141704766155 352.63289072593227,215.64986655796088 350.6334956952662,212.73769993021745 347.50210536884833,212.6077373852329 343.6091225407472,214.40490788010754 338.21908466788693,213.9274380889708 327.70298335127586,204.80947606568748 321.76365763285384,201.13074992417194 318.5279406956696,201.37396945340993 314.52958462926256,203.2381527777353 312.65006071337564,202.28784150810452 310.90551254541845,199.01331553488114 310.4105538361916,192.92010823344367 313.98954161247576,179.15420306401927 316.54700075661844,177.25367280945954 325.9874967313966,175.6157230571465 327.1521364490948,170.570121611712 326.49477403081283,166.95253700293722 323.0272604723969,164.1557440274304 320.78055043393994,163.8684714941703 321.4857544068198,156.82571643371568 320.5571568764828,151.30486590864098 324.80440631970873,139.1836325890065 324.22307089795436,116.92430433227571 316.69483236783987,109.38164499457628 314.71859617876635,107.8934874981478 314.36619280282315,99.16017285492046 312.1610888997232,96.23619609521063 309.3313469615713,94.87330219313208 303.77776502259246,81.11032054054317 303.5920671230597,77.10962381716752 306.16497219496864,62.99964618509682 306.33851380051533,56.086190141738825 310.8887841097158,50.708489751516595 310.6135376249576,47.82259300305839 308.268846821357,46.286905356557895 305.31062840704476,38.38185602001147 303.02360493603385,37.719117809349996 301.65438095016185,33.55592248252799 301.835310746695,28.31735306178325 300.42157070314624,24.711520692618706 297.3832786657138,24.835715196400997 294.6710487452191,21.42674582494851 294.23223865045253,17.292636638266345" /><polygon fill="black" points="562.1235972788945,465.44927716739335 562.1735986346858,466.97826343095846 564.1929357534946,466.9593052014526 564.6930694843849,465.0618372217144 562.1235972788945,465.44927716739335" /><polygon fill="black" points="485.9564977014076,1012.5736336173943 485.1499292786107,1017.6970783880732 488.97341248927046,1023.7994015419024 491.1748754523697,1024.0 492.7123989131771,1021.7695892631218 488.1874129059671,1013.0516348194246 485.9564977014076,1012.5736336173943" /><circle cx="297.42377595655313" cy="441.72536978699077" fill="rgb(100%,100%,100%)" r="16" stroke="grey" stroke-width="8" /></svg>