<?xml version="1.0" encoding="utf-8" ?>
<svg baseProfile="full" height="1024" version="1.1" width="1024" xmlns="http://www.w3.org/2000/svg" xmlns:ev="http://www.w3.org/2001/xml-events" xmlns:xlink="http://www.w3.org/1999/xlink"><defs /><polygon fill="black" points="549.2841242446267,149.9697926929697 546.9023530473332,148.8463233297997 543.6215712930459,146.31674133389754 541.5864674222471,142.48157041060824 539.7241445330274,141.4216632932954 536.973439975359,142.46227049381548 532.9732920941597,141.7440257493156 531.6500850752755,140.13057086864796 535.0509440648632,135.78125968641052 538.7360328845263,128.8916644530441 539.7545771396151,124.80431140739847 542.7910018631516,119.67268784422379 543.034312729502,115.59541969332281 541.3480930687348,112.33397478129575 533.0744149549558,103.91053384049212 530.9451536656251,100.92671472357597 529.3114804071679,96.11511010929621 527.2066076235732,94.26884879633792 524.1115363265269,90.39753860018618 520.31823302891,89.58578884451447 517.5065596539494,87.18896701454878 515.6184722513402,84.52156252955842 513.5699986792918,79.53700856187879 514.9022685063475,77.1244206692869 518.4662777020416,74.16499409715777 518.8372869117884,71.88308156846665 518.0571533525914,70.10524915508529 514.7450325735172,67.83873811503929 511.1682803475815,66.15119778436338 506.9161230430125,64.65306871302721 503.0714551863574,64.56099810353635 499.6301399248137,64.02401776974239 496.6944634402488,62.50520253594971 494.51761261086534,60.10889691079444 489.57196252361206,57.19412403785964 486.7043327911559,57.94785154115573 483.213527922109,50.59473642990281 482.4117794943613,49.66073627849494 476.33365158336653,48.14863427729631 470.499562487953,45.42089261921353 466.1090671109132,42.33436739467879 462.5266719842414,40.37434656863081 456.8335393591243,40.43410060895121 455.017383298452,41.83233508648175 451.4180017563006,42.38050670371899 449.57181331463295,41.66015314101753 448.421302995107,39.51586470786697 446.21875620250813,37.46604108964334 440.4368334737349,36.65660183048749 437.13449234646254,35.83049691888186 423.78853283338435,28.753850966047935 421.12981623441885,25.85946798247221 418.1468674543898,24.123199997329607 415.93356125352545,23.485851254161616 410.58617210989956,22.911944399365098 404.5195451796342,23.46835842262942 400.28622805359316,23.416939523109704 393.35256580894077,21.979232800214618 390.2808719525466,20.08171799088268 386.2530384194017,20.63488887345079 382.8858218263333,22.62573647129716 378.41250810092583,26.88539225784882 376.932374485546,27.63048937166309 367.39322883644377,30.250928890295086 362.66801662971665,32.35940767816044 360.66006483679377,35.445468595214834 357.9657557224428,38.727489456375224 357.0254990259775,41.48425894804029 349.64020870152626,46.597828475687606 346.1717879979271,47.215071860881835 343.65409346130275,45.767883386717244 342.39391106413836,43.496172387413026 342.1386250038954,40.93592581848827 341.0056955651563,39.67864526728181 338.1772590299917,38.59407914402141 335.7133022542174,36.94800626723202 333.02291764916805,36.780329911721424 328.4844587030372,34.11746040867649 324.97471114974167,35.42009661209488 318.1065549096679,34.27080167948316 315.11352373006355,31.958260433885698 314.3587066289165,30.712588131787925 314.0854952536138,27.390845730312776 313.163933172969,26.287543655067793 309.35535157259267,23.969020068550435 304.79691627391463,20.107496433214237 302.44804838510896,20.90703458323901 301.3343868423053,24.83124808068351 296.9266748499578,31.811670964605923 295.65493775244886,32.19332323091726 291.4746964602826,30.79618359395272 290.6312806897968,27.40198952413698 287.3023512579172,24.473206452513296 286.79567837713927,20.441038112807632 287.8896103120319,18.415103232410047 287.9092831556583,16.538419855113148 284.4523953460336,11.446138951813396 281.36343747154655,10.024705874753636 279.0113648731958,11.676960491715931 277.6462213533903,11.606029948702485 274.88564834120456,10.059118447879996 268.36264134268833,9.772321681636868 266.5212347941146,10.684504344084644 260.72047445773626,10.437909258302284 258.83377257206325,9.16061172620914 255.65425120673984,5.901878914947247 251.39081845936494,3.9609920368969824 249.35969571208102,4.628642083896807 246.353702879111,8.208630447894166 243.09685980816855,9.602963710776066 237.6903286045587,9.01600977582234 234.59357563301458,6.229308391885638 230.77781192929916,5.065076320238859 227.88447823466612,0.4863896798062797 226.95335068684003,0.0 219.52923470288908,2.9682596431923685 216.80964548880507,4.59219444494272 213.7390547907054,10.194238142309814 210.11830261551543,21.2173241582351 208.67958300069463,23.742732828236626 205.2474786883543,25.18959111726315 202.717556352686,25.18931937600439 201.38206329912367,24.522331658856274 200.71238777716107,22.42588930019167 197.46314958827762,19.08884413996566 196.2782014478932,15.43273929842951 195.42228548968302,16.007352403258665 189.35203272351586,22.764182580115403 184.29750532268818,29.76615206884378 181.6359897461983,33.990139032914044 176.44215912593674,39.52901924929847 174.7017866634346,41.730355994674824 171.5525442505841,47.56612318577663 171.52701753214538,52.74176422976802 166.85728367619205,55.62219360311201 164.71538557774582,57.381569946148375 162.97136180665825,59.78383637874197 161.36275581773066,63.20806946921846 159.94411226659193,67.48715227114303 158.37153747057644,74.8471855526725 156.81761816532037,77.45367654133861 153.18578018155733,81.62088463174439 153.78950929504907,83.91747509128686 150.543425468466,85.17992672859532 144.79988080674457,85.08901213606691 142.35836196742173,83.41345339708937 139.1248916297714,78.41831107606504 136.69757271975257,75.90989408724602 133.4128295896109,75.84720085939512 130.92647269169376,77.4611172154838 128.4574912307512,77.41932488523935 124.4052154133184,73.23441283718432 121.15161142709066,70.71319307557815 117.08235362494194,68.16942853191654 109.74239161674343,64.75264396035789 100.43566228241434,64.69869906260442 99.86563469617232,68.23651256605865 100.51569928122893,71.97613876521018 102.75551413670988,77.04558014502015 103.81422193668917,80.79790060649736 103.58420608109827,85.95729968932301 103.97501878103087,91.13446628825045 103.23927116553327,93.57503381632023 101.71497330258218,95.55834609188207 97.40562709183644,99.89981779210075 95.00662860193505,102.88788696102256 93.86337606330687,105.32146819948832 95.78962119627143,108.48686228300642 101.78808040483901,116.40819126746749 104.3644379956058,118.59354234554712 109.66176589647912,123.99349201996017 110.48509953505048,126.00386379630675 113.21737054237883,127.46354780025604 116.97765732365251,125.99635025767475 120.5797238897765,123.67902754715385 130.94453530346135,121.68571403936448 133.82370052940826,121.6022047585916 137.46149033781066,123.20894883249252 144.57688346386405,124.98617685465865 149.33189847944496,126.94323485777113 153.31881145207717,129.5895853536191 156.10144919135263,128.6165401847826 167.09309309294443,126.9018097810067 167.64991050245044,125.98907452399692 168.0814752246559,128.2841374837309 169.67553306696263,132.4283100971228 172.1007946392679,135.7676941182773 172.8819949329366,139.07246017297007 174.49455649650403,141.5609544187297 174.40589828468205,148.15874886053882 176.01404522801647,151.47725827559623 175.9531466557202,156.41240478772318 177.55518049262076,158.90785517679194 180.00406349964516,161.41592653786336 183.3039979627054,160.6463742706478 186.5770161196436,161.49776174943247 189.87387742644623,161.55241104307584 192.35765235117117,160.7605674085355 193.97346737180055,162.43746700538475 196.45128699993862,163.2898821128266 198.04001854002172,166.60926459010284 200.4938009999275,168.27839855810453 202.95941774601977,169.15205968244652 206.21597591491485,171.65870623271167 208.42974863212328,172.4304817378097 210.8461969585899,176.29760011076849 210.48179869099943,180.4507009997409 207.4202699901216,184.06824997504816 205.06372043302437,187.68301535285877 194.76884290986428,207.01046922748782 190.43051484746314,214.9626081918518 189.71215911537558,220.7399012367366 190.2506460485043,223.9945302960719 190.0741669629415,229.04690077562526 188.9637439678328,234.4385636872264 187.90790045288932,237.81188362801288 183.74744181009936,245.3992357705285 179.77810428087625,250.09151178173283 176.53255762067386,251.17514970382132 171.47280756597058,250.80679669421824 164.80062955937876,249.71779903627737 158.48166355338748,250.07063944545018 146.58600794195297,254.7477212384233 144.60128439420947,254.92273621068472 143.52172941348616,253.47563742959989 142.43686377398316,247.51304064345806 141.35233626001113,244.62389658259593 137.2071047021069,242.08549788956054 126.042143881323,234.2886142598689 122.25309480523197,231.20865369009164 118.64733380506955,229.3927021824304 115.42007463075858,229.38697261244096 111.09665423834701,230.8189583031231 104.78728088333192,232.42398403717806 100.99817120414471,231.86846232362382 97.03997649445775,229.15132578164065 94.34268589074102,226.2544933492327 92.35868596674476,223.35684132133468 89.82949597445318,221.3590076840552 87.14108583461345,221.53432937324078 83.17000074561798,224.41370239858702 80.6658997498998,227.47751435204464 79.58426263811585,232.1684850436738 83.00075582993783,242.64396588113874 80.86543380805212,247.43472085484274 80.69406755753202,250.93479890736148 82.13783920170958,255.53102305074412 81.75723967316387,259.2286000789649 81.09733692266674,260.2227048281743 77.12835622010992,261.6873730887933 75.63785722579601,262.8554117333233 75.9433470547726,265.343909227466 77.58304125352093,269.7496173596407 74.11099889855329,273.91426749801974 71.47153382171022,277.7053331561188 68.89429016937378,280.26226194500396 64.01215177852211,283.7376319656816 57.71858235922129,290.86548083620755 56.06024301418685,293.43087524750297 56.748709004887836,294.42223422951434 55.82032033363459,296.7229705141197 57.59779161057092,297.8982041593837 58.20326617401499,299.54593588814333 59.52797026287767,300.31840230452815 61.52405390429857,297.7372285864687 62.7917017273027,297.7302441468788 62.30945197172744,300.20669513501764 65.07658249380043,301.47494103689445 64.96842199127296,305.46155956679763 66.47172379391273,305.97276010858786 69.12569096828615,308.50289592110374 70.51083202317217,307.5341418387724 71.59620612019121,308.01086296993896 71.938968756491,310.1122045493995 74.96024356836985,310.2815950899199 74.81363931137943,311.7081530169488 77.16739510626473,313.3095276504086 78.31337022840883,314.98793583716815 81.53058882358805,314.5013246240191 85.7738514049573,316.7308093368925 87.44844758714615,321.00623592017223 89.62685437557809,322.6949346146901 89.2420590667413,324.3041526504062 91.51869324118064,327.4106127770261 94.02355266223285,328.583443042472 98.46198086146345,326.5359709260991 99.5685150873264,326.9496805554975 101.071948998684,329.27165813282403 102.72185605529336,330.24318174962804 107.70705441139164,331.5353360610649 108.42170402276331,341.8579731374127 107.72591575586696,348.5921054341113 108.5598394031864,353.03976462912823 111.33072895260169,356.0364853866073 119.56090754867466,361.26930215461323 128.01384483310616,364.8940489307482 134.66313026122845,370.0507844175972 140.48209744982867,373.5345964135225 143.9496642332205,375.20962331449437 146.16606540282754,377.15526891639627 147.70718507401696,381.58139406578084 150.0116358012383,384.3125992665322 151.6198624746732,388.46979190473223 151.57889474421816,390.93214064154796 149.07387673904836,393.3750241151613 146.5840945994072,394.97941074274314 144.90384718491998,398.25460931123 144.01485123017238,403.18166440097906 142.32700147054118,408.1025796405178 138.99198500202183,411.35158222193513 134.82755674915583,414.5866813704474 132.3617295058089,415.37126641195266 129.87022304125182,416.974017026319 126.57611059105734,417.75903423382306 123.26092989539492,420.9880373506392 123.17024300510575,427.58723423456615 126.43367205881027,429.2805956887071 133.7928892833036,431.875345993912 136.25588076104876,431.9092947526327 139.502577518976,435.25373601044447 137.82324794602292,438.530363229144 137.76401123429812,442.6397031735656 139.76072280343328,444.9708700056743 141.43395534259267,448.8448131248501 141.45099938219226,452.6911574411032 142.2611842393811,459.2937856319144 139.5236572556041,460.39425916704545 133.5016886065381,460.9401187759976 131.31769376844895,460.659504703218 126.93265087049767,461.1980293541145 112.96448436191135,461.1721718858537 107.22822405756379,460.6104158518845 100.93869316111012,460.60789689139165 94.64397161414382,456.7388217506921 87.80145469792973,455.63069456043195 84.50923162894519,455.6237677988295 78.49529730881169,455.0564353214142 69.75060040706516,456.9630301929757 63.73309826445566,456.67955634529517 59.08163284629522,454.1916233401558 52.245327986333415,453.8938005700027 49.514256987196674,453.34005559323964 40.4915871026291,453.60184165768237 31.732553899285172,452.75752504119 26.793931985162033,453.29720830778933 23.233430804719795,452.1873115745641 18.01378158486093,452.44328666745423 15.091324051593178,451.73349350831876 10.38351118850287,454.37372120143084 9.276824057001482,456.84792081429225 6.283045863157518,458.48364428241496 3.8160416897794605,460.4128542776601 2.7171144362143584,465.34464051128197 1.360131202798191,475.7930087713378 0.0,479.90732037972066 1.082124771356299,482.38501887127626 4.3731219565276565,485.41376947077276 7.6492694301885376,487.6163375756231 11.497497377580164,489.27433890032034 15.323623562673498,490.36742202581354 18.611877175380435,490.64683357096646 21.62816172314957,490.11575562931677 29.55589800104734,490.67601961553476 36.66082839787041,492.06203747156655 38.855597244485885,492.89826028278014 40.77878022971633,496.4658465102699 41.05638618193108,498.1165421935284 44.87324728458355,502.2522437999204 52.27295045070693,506.1086938196237 55.2790104996616,508.5973013137612 57.46732605250079,511.62055093069677 62.11087542564428,514.6582964788082 65.93754125404486,515.758925761676 76.60127180457357,516.0649252141529 78.53394827409024,515.5145739993229 83.71989177911874,516.0748723027513 89.75466289773901,521.5870227520129 90.56932541266718,522.9694715116246 93.30422893199935,524.6198372870045 98.237861947658,526.828523575869 103.70082644310384,527.3857344688099 107.81048013025962,528.7674293605702 113.27010388215798,532.6232148522397 115.74093476836728,535.9218463186647 118.48380946153165,541.9695163564293 119.04334412192972,545.8192013144128 119.31538434316775,551.5899839859782 120.95451877560733,552.694498700926 125.33554352690892,553.7959214671337 129.7244175598571,559.3006490489288 134.1077539187481,566.9938622249379 135.74410103575812,571.9614440226896 138.21268536150976,575.531078991872 145.3337281033252,578.5602442219847 146.7013591988657,581.8616154798017 150.81140916648707,585.1537548165521 151.0826643168963,589.8328817928132 150.5378814660782,596.1472093148557 148.6281503261898,600.2703978638303 148.34563268111648,602.4687687814921 148.90267069712337,604.672403097984 151.36129779557774,608.2430614328746 157.40035996839143,616.2084157337263 159.5941895456429,617.8573355865502 162.61987349875236,618.6912684534328 165.89472006367077,618.6977303114614 171.94136377631585,618.1435868550263 175.50855140742985,618.417494939159 177.69479440620768,619.238865609186 181.26767559774305,622.2571720521894 184.55321494712825,622.2620550907517 187.0270125554653,623.0808303772492 191.68291486640211,625.5536469481168 194.98414503280875,625.822848057779 200.75358790249163,624.721880265446 208.97500474447895,620.0401350827628 211.73498674728552,620.8560513723712 213.94398588720435,624.1431296914602 216.95133485150126,629.9102786984884 220.53522487929897,634.8465635179786 223.28211092929513,636.4892584698462 233.72794046069083,637.2965638156546 245.26319653748834,631.491903054981 249.12311944234963,630.1162241510658 252.13703436635842,630.3798493126019 255.44263957804296,632.2938044057146 258.96059670017274,634.9980402537138 266.1576012865572,643.2637091487416 273.32014394532104,652.3140092606151 275.7842435707336,655.0427934574641 279.93039531666807,658.8823827815576 286.5325601096302,662.7046754267512 298.90207999313867,661.0228197921344 304.9481301468329,657.9902299995396 307.70820641057014,654.9490113073583 310.72184800208436,653.3003580296262 318.70666489064723,653.8289084288971 327.78739136806604,657.6468526575969 328.336215669037,658.4681808104715 334.11762574864775,661.1989942801779 335.47768003857067,662.5757194146549 340.4406710318768,665.3137014121263 343.18681060588585,666.3988294485375 345.92571839139066,666.6638594740834 350.3293192765092,665.8288055182694 355.2706922476673,663.347723094286 363.78911509629813,661.1370607670846 365.720954674119,661.9522841100212 369.847522144705,670.4664028493191 370.3965993078862,672.6704248124452 373.41362068305125,679.5346863802947 379.4560438480385,685.2849744061966 383.58213015685453,687.2033575841083 386.3340223989192,688.0308788751423 394.2892350977812,688.57584437594 401.14867680042096,687.7425641481543 406.0996381394423,686.6288086001213 409.65567119877863,684.9869105533724 413.2233833674921,683.8879113357992 416.7890519865234,681.6889020011674 421.72640164296297,680.0475878881865 426.9401952901211,677.0131770832814 428.8523257121974,675.096325916753 429.40313889358794,673.164700407773 432.14347085259476,667.9462056637001 434.6095429830009,665.2033830826018 436.5346416506142,663.828008326639 445.2910551004671,661.367635816235 448.8671046537846,661.0880769012944 450.7789700882495,659.1638630074497 451.05249503749246,654.4912186107903 450.2312039964868,649.2608502710632 446.6611785098498,645.6908344169833 445.0137353600974,642.9436472285142 442.26832414415424,640.4771909172897 439.2682066216326,637.166850197798 431.3039363321418,630.5709617319126 429.3894053622721,630.0280274747261 424.9957353720548,627.563695941796 422.2537544014904,624.8126475726392 420.60471717943614,621.5022897240451 419.21991439038163,614.3662824600843 419.232738359673,610.7967483437725 418.12141974733413,609.1529976896387 416.76588961544934,608.8754178637344 407.6981036761909,609.7041118910523 400.57287452922424,608.601948591233 397.5498398764186,606.9576286955489 393.9633376563887,602.5749023059846 388.76000933904663,597.6188092309097 386.8391709764007,595.4297086780168 384.34924109252654,589.666366264128 383.81097149492484,587.4639599130235 384.2391103407107,581.4954884486863 383.6034900398794,578.9641840266685 387.1541546231764,578.261891104301 391.6919177238153,575.8170350948159 393.7246574858295,575.3757098872582 394.8992820568752,574.157316477311 395.2233628897996,572.3630193994702 399.24842467305393,570.7229197275581 400.1040939592327,568.9582755302979 401.88324302807825,568.3047896731675 403.10208862879074,566.8845614334092 406.2141987245705,566.7453332202371 409.2766015616455,565.1521217556469 412.9442513466894,566.0910238742504 414.4817307264763,562.5159203951838 418.25601683140223,560.5456955071365 419.31958273091306,559.179026633627 422.2053179324263,558.4315928102527 425.01357276688304,556.0359266119254 429.2918997819463,557.2192746779323 431.5988288897379,556.1283819416401 432.97272441609573,553.9335004726872 434.3612064842545,553.4131262596718 437.25050489265107,553.7410481419149 439.29539186753783,553.1745403528098 449.0783385434913,554.8366706086699 457.06969962069167,551.977053516418 458.7067831318895,550.5699740724413 460.264257985512,550.3922672264642 462.3229496636608,551.5617502493569 463.85021481934996,550.6469415446232 463.43981431347436,547.9398604793669 463.4814045791215,539.0234831888303 462.61250296674905,536.9197969648383 463.5165614121999,534.6286867865157 463.1389818166719,533.1986135327434 461.2932882047111,532.2060533393394 461.5190601996293,528.6742162211585 457.32735376006366,522.459937324904 454.5464231395162,521.0569557647502 452.8317812469968,518.078952207664 450.9287716186885,516.8427414877535 447.75185195083833,513.2194994750391 447.0670297917071,511.098378934882 448.5404530114789,509.06431392930017 451.26985200861446,507.0706701693514 455.4181659030454,505.9526797364976 462.66414033947075,503.4508623794777 465.36710971785266,501.8744978328933 470.435689090544,497.2634859435042 474.03417242780205,493.227761883724 479.152803054424,485.3190333561163 480.70846875418636,480.40700814551167 482.0024379860503,477.9751942650836 486.26371760035505,471.88721182575694 490.9092272414512,466.8545103530186 494.86396098230955,464.9072676880779 499.7507518662117,464.20144930325466 501.3545861647689,460.12284884932774 501.64915859244906,456.8375768966863 501.14673597079394,452.07445469852064 501.45274254625957,447.92781351447013 501.42806930910643,439.27330283290723 502.2510554086126,434.77390705641835 505.6738361093121,427.3148480860517 505.41575827318826,424.00703287652345 505.9134940625964,422.1678378526694 509.36978787138156,418.6234833628422 511.8428010281817,413.79522585676045 512.3556984962385,411.5541951042345 514.0090107216771,407.5954478415506 519.5999222491212,404.8190684238451 522.10893111671,402.39204953854994 524.5831455840532,401.6028369940646 527.0453070448857,401.63187131724266 530.3230097179367,402.50566335349674 532.7594536197686,405.0125740244652 534.3693066024929,407.5202534211243 537.6351287048627,409.2136197384361 542.520439706847,413.40604723687125 547.4554415105727,413.4781167419367 554.0606881368697,411.93031902242114 558.2051104644834,408.6938736247116 561.5175234146681,407.9235626388109 565.6232227503125,408.80875713416685 568.126725822216,408.8306832731357 570.5742252364189,411.3444050387925 573.8588140162003,413.875934983271 576.3172885271395,416.37537057196096 578.7873964997545,417.2438167080791 582.8665193448018,421.46656976564964 584.4652814052314,423.96641816227174 585.2480654393881,426.46312332362 585.155517025291,431.4168715527375 583.4148951416686,438.0268321196676 584.1951675940222,441.34910478301373 589.0805953399545,446.395939845243 589.054419110444,448.8666336408251 588.1908986272306,451.3310449318967 586.9150866456156,451.95884130828745 586.6386707842598,453.4337787960822 589.1128688917704,456.18304185344283 593.7767076003437,460.31046578832843 596.793289049749,461.67893907402157 600.3679287068826,461.9526273091073 605.5820088257769,463.3178992719513 608.0508847994568,464.4156160671545 614.6444531162266,464.41186178609985 621.2415840829933,466.31038235446283 626.7395035259976,465.7637265461192 631.1344783429576,465.74980662291443 635.2632139829384,465.19647685844757 638.0089356947004,463.2638638601799 638.5518293951959,461.05751912987444 635.5281220809131,459.42542970934375 636.3499718303274,456.95166054914125 638.2838383044144,456.1189014771212 642.6769897926353,455.5562422549427 646.245401703593,456.92451745921034 649.2777067752761,457.1896843750337 650.9311885460972,456.6299734310393 652.8506648952862,453.88009586990427 654.1941331188486,452.8651731935674 658.3112583438281,447.1337798287566 661.6461314467983,445.52212757085755 670.7789919320321,448.08619014071905 672.42254358604,449.75449604819755 675.7428973126416,450.61193907432767 684.0609175974871,450.71314484939006 686.5114664360668,452.3781537872727 689.0058968505111,452.41270668981434 691.4678232212052,453.2594199320413 694.6967786791637,456.21865219795484 699.6579433792932,461.9655438505082 702.4068059426465,467.18075144106706 705.7231315747989,469.9055012258718 712.0480041270433,474.5537438560898 717.2897675848261,479.19985140117467 721.6941258721325,483.8558898644544 723.0896630643477,484.95032023222336 728.0384280429815,490.16207166580483 730.783752101543,494.2597146802862 732.1718805813317,498.9375494023543 729.1515936773928,502.2345179971019 726.9510782890791,503.90588521684816 725.2876176477264,506.65273990755884 722.8169246033232,509.41010627942103 722.2600395870404,512.7075678161505 723.6439808670078,515.4486003893761 724.1981905684441,522.8774591832403 725.5679325509618,525.8881904044272 728.8798962651969,529.7178643112892 735.225415450202,533.8169415316268 739.6358299569151,537.3698524784786 749.2860553044329,543.6523744679421 754.789646034668,548.0236419012566 755.3480984644964,549.1151199016504 762.2272407409783,552.3805037002701 767.7390547747331,553.1981111863979 769.6673678020443,554.2863496198795 771.5915741209376,556.478562690984 773.8029680406152,560.8683315019666 773.5267604595201,564.7194798951941 771.8791446122405,569.3850024491383 773.5305832622396,571.3021859580882 777.9377927015917,572.1176168020539 779.3181131838774,572.9285191850801 779.0334277759135,582.0155058024827 780.6948212229988,588.5929820147749 785.6470405905986,598.4731756174459 787.0291054776875,600.6723287867346 792.2607733387239,611.0972474637176 796.398637066768,617.6670897024892 800.2455192102194,621.5109478294557 805.2031763878575,631.933210807263 806.8662709928878,636.8736873198632 811.2598798625598,645.9344713756652 815.1240505846464,654.7168359743091 815.1079296995523,658.2813559761183 814.3039164420999,661.8628250939855 812.1043126569808,667.3569452702865 812.9278125945626,674.7742874679628 813.7620157328669,677.523013284814 817.8804788036695,680.2587377258648 820.0836029430541,680.8015109376641 824.4876816689316,680.5259595953065 829.9836708607212,678.8604735091405 833.276334701465,677.4791673410629 838.4847069995258,675.8154584016138 848.6691258969885,671.7036612057411 850.5719043254653,671.6995421622927 863.2557212341982,675.1563275855456 874.655023148838,682.3198081071923 881.9888158615371,690.6122545012138 885.4399909468635,696.8264674510932 886.045096445757,703.1292968481416 887.7717990431121,703.3881377083976 888.7562737588238,702.4689488049863 896.1054601554338,697.4759122255828 897.5021242649959,694.6870188279518 898.6711969102366,690.428054313216 904.2190196480356,687.0384673918068 907.1842237313654,684.7832835482166 911.8316979542257,679.8532296661363 912.6328944109472,677.938199265586 914.9774558792828,674.549590381847 918.9002679277168,679.9206657201559 919.4458107614805,681.2970713869594 922.4602703331491,685.6976669393214 926.0277457243538,688.4527778901968 929.3133983344443,689.2791775022419 935.0734014380735,688.4539251837224 938.3661454899228,686.2583751966524 941.9101005504358,682.689189242511 943.0118364506608,678.8397780306061 942.1832374392392,673.8968330576089 939.7164994604352,668.1281044185298 938.8912742214992,665.3801693431578 938.8926999305838,656.3073376000295 941.0723035012891,651.3674234407091 943.0021313013825,649.1692025005806 947.1047439992005,643.411939631082 948.7479412403744,642.8567097375492 950.6647607957246,640.9425074887348 954.7836648360736,637.9157711406386 956.1440796037361,634.6265220593937 956.1348235815796,632.154354570184 954.4902832998391,629.3963209165249 953.1169477817331,624.726581567203 953.1171770835065,619.781032008699 953.9316656547402,614.2828478608088 954.4879745331951,613.1857986218856 954.473874522828,602.7532994772951 952.5620482541613,598.6252300597649 950.0892258370047,595.872615492846 944.0598161172652,592.2903550686957 941.8634696695541,588.71417144623 941.8715384433909,584.8740809760841 942.423599361736,581.561902450576 943.2459274772536,580.461028857417 945.4376741555816,572.7807300541298 946.256410572683,568.6593315469247 940.4933445800025,563.4206592781512 938.0213831986188,561.5004863868887 930.3557377876195,556.2735297838095 922.9532963032913,552.1391754850245 918.8334504888109,550.4836415965976 915.550971364238,548.0188711168348 911.7136850236262,546.636640949597 904.0248435139083,543.3319684574487 897.4505365120519,541.6935685942415 891.6955445205493,539.2097696989863 887.0228165613026,536.7410726096198 883.1788698234117,535.9080062657946 877.9791834396208,533.1753453325136 873.8527980914085,528.7752135533208 871.9221903409416,526.299737600246 871.1092021720632,522.7346307753421 871.6480776652495,520.5349963313745 876.0390721822288,518.606014096777 879.3333398973955,515.3148004892337 880.4239364380073,513.1078783220231 881.246981423362,509.5781715153029 881.243450938768,506.64225623082206 882.6699846164831,502.2861881683614 885.9196771269701,499.95475675229136 893.7744686285702,497.29167264079956 899.4926604744406,494.6369564908806 910.9532372801681,488.84786998330503 914.1289699758474,488.31964372429263 919.3528398369718,485.92083951060107 923.7378926955575,485.09479319507295 933.3339287477248,484.5567848266794 937.7085033153962,484.5557713312782 943.2006377922191,485.1113195125381 950.0495308641406,486.76466622118005 959.0849791374061,488.4320655011424 962.1010325149559,488.4351213974587 966.4800141432617,487.3309826038503 970.3188656795901,486.7957275219783 975.2501552254649,487.34915552973507 984.8520638437844,492.03417528051506 987.3118245769815,492.30848874586945 989.7850799747578,491.4847258733672 994.1568538752081,488.46340327331757 996.0809052040297,484.0726250061244 995.8084149570072,480.4947228913006 994.7035859650182,478.024917910496 989.498175917849,474.16391042241304 978.5295925096827,470.8647324299417 976.622262241591,468.93184176900365 974.6900866011517,464.82084391834564 973.0521788671819,460.1363587228059 977.2519418671196,456.8089679971089 985.4271272643587,446.21626330378285 987.4386552419264,443.0210496721392 990.6681143591973,439.6599248894331 991.8522354892986,436.4128621617935 993.1289603780406,430.71066330228666 995.2136127069534,425.6514752398979 1000.3737184794124,420.7462847957462 1001.0961150345322,418.5070343887304 1000.8046789766778,415.61652472461213 1002.789562745722,412.81708058085246 1004.6680890198637,407.9562726291164 1006.8793074120143,404.3484693657131 1010.6742500502587,402.25729842612316 1014.3015592088818,399.7419582081285 1016.0197740445868,397.97275814493935 1011.9107048115551,388.91729867807715 1010.8325280442986,385.17164166141646 1010.9031785039491,383.52159818994596 1013.4304037450685,382.4011426756925 1016.6716176817329,378.8331062070055 1020.3233365841775,375.9088504635508 1021.2927959221108,372.6604814712056 1020.6996058750495,367.70055216420906 1020.9927751097114,365.4431031235314 1018.7274433626756,361.01117643873584 1018.4204569250629,358.51671956490605 1019.6193269224553,354.86201811259787 1023.5361916272775,350.30441909135675 1024.0,349.19319139982844 1020.8049168107273,349.02364785046234 1015.0842301557358,345.6376796997298 1012.0576778227963,341.79353560184495 1008.201598398771,340.5117268313243 1005.0145914816337,338.8289079310236 1004.1008847422563,336.7648122696203 1002.3610663366368,335.3494948466663 995.2395331259718,333.9296441280183 992.132051906851,334.1066632713279 988.1343100967007,333.6682478028381 985.1273825979263,332.2658095617047 982.4223539329952,332.1203366569616 978.2189775091236,333.378911564043 975.944697676634,333.1984982036785 973.5615690927236,330.98389407658374 973.0039691866612,328.1890214747299 971.06046819291,325.9812825117851 970.0466265133452,323.67312627728734 966.8080232003027,321.2740543755307 961.7619645942176,318.87386696979587 956.7009884163596,317.6735229586919 951.5914117288183,317.9152253463501 946.730554764402,317.07028884439086 941.0696304838135,317.32487589063777 937.5914589817993,316.1568931033667 930.1207009564557,316.4859198576141 927.4697529084139,316.17524749046305 918.0539272454791,313.73850843998247 914.1769081106896,310.9499171153483 911.7006051240671,307.3679859471644 908.2410523744779,307.1572587780441 905.7886892872473,308.0475786128707 903.866248029432,309.86777587313236 901.5410500944124,310.36487156939813 896.5561562796494,308.8595269055967 890.2275962710132,306.1982771614664 887.4887818807871,305.50402546338717 883.4720276860718,305.7637426584606 881.0352916330655,305.4350839172597 874.3786064326765,303.72520083557356 871.9071175271456,302.0852099593737 867.7158843190474,300.8521085914267 863.6193718843458,300.2015922633911 858.3737252720708,295.9166629968617 856.1121904919546,296.31785093456637 852.0217119611542,295.11298434948236 850.5412821334473,293.5674881003636 849.0282019969166,289.0410735696107 847.349394761367,287.74275686904195 838.2150019717393,283.44927796755843 835.5073572900787,281.22851713063636 834.8592002288885,278.5165700205012 835.4909134208001,276.32684532609744 833.2974467339917,274.5980783260145 827.201897086318,274.5391541811178 824.5251927639683,275.4183028341758 821.3479810563914,274.6828015096095 818.8031810436178,272.52136377118546 818.0297212823584,270.8672242682722 817.9982596634582,268.6342854182582 819.163686968302,266.96422473289596 818.8269532684421,263.1192476389118 816.3610036073604,259.6336478891871 812.1154070212931,256.3870790857677 811.6433232700879,254.2458965775868 810.2170176989694,252.47247400299347 808.2885929687915,251.61551292718724 804.1210940518525,252.4888513753089 796.7442409451916,257.4382644145907 793.5195368008007,258.0942865381888 789.6291954467202,257.294116681361 788.0358516099197,255.80972687376243 780.4303409798382,252.64935682196426 777.9317877682084,250.9516780689741 775.4688463282404,250.35708821900744 773.4204759937634,250.82189527383895 771.7338463118226,252.42149517129542 768.9933807765032,252.02407641280354 762.9803544201739,246.60311955018494 761.6846265794774,245.02632664892974 761.3068632083173,239.79365181467284 759.7281883000186,236.47287356997975 759.1229297990168,232.9427627793446 757.1410891726387,225.49730729302115 756.0230403126238,223.65869486866603 754.476749947083,223.24281763256795 750.9293241241758,225.10117140931698 747.09723247177,224.56360894155148 745.4478822478367,223.52887545787223 743.5579842415599,219.1153659808362 743.4158591178234,216.11124734116106 741.9199088785579,215.0297566752547 738.299319963614,215.44536957072995 733.7579975098038,216.8805978633789 729.8378404452608,217.54751245271132 725.3889490860815,216.6952031748558 723.2312300112233,215.47379155012118 714.2938334224493,212.0366504870682 709.5580731850778,209.7671810767041 705.2398964628599,205.3468276497071 703.0469873509238,204.47788270724544 699.2359155445037,203.98843219798528 692.9597386083994,200.16365727302303 690.9303996577642,198.52007831372993 686.020868150615,195.61723336158644 680.7802857427773,194.37227480182855 678.3394162233996,195.96052701923486 677.7505237808413,200.09026497277824 675.4208650030641,201.69296987629343 673.5913073531452,201.80655994347325 670.8107011457066,200.63750919082935 668.4372614825835,201.76139469925783 666.5426378570521,200.74401742013822 665.8659629595129,199.49394494620208 665.1804437566597,192.37125783903673 663.5300010901657,186.28310064415086 661.994061335906,183.75305801964726 660.3284904667856,183.16814156983003 654.570771313783,185.3869464504612 651.9144719171178,184.83675435582256 649.8479109065647,183.6990156388946 645.9436479609741,178.9585203690658 638.7504819375189,171.60529257003805 637.122760153927,166.2321767350296 635.2536553434414,163.46020906211413 633.2353766180148,161.84481348859913 631.8693272752125,161.68029404468598 628.1343163715737,163.82377367004358 625.2617837119325,164.77342072488705 618.0470104856365,165.3980151353527 615.093915447999,167.0528019843964 613.0487263263371,170.91889261324548 610.5361831554499,171.74284678894662 608.7950823624105,171.44067525944342 605.5493256043594,169.2588088911424 602.8433910562426,169.31743454491402 596.3701210110975,168.75873121747338 594.3330388588645,166.99043126731317 595.7184578635357,162.330980216679 599.5260083393775,156.57219780235766 600.3585159783372,154.06858723027017 600.0064169820779,150.2369169432934 598.4040259061935,148.06569975883542 595.4808624646204,146.9221025550961 592.7750534367425,147.08394303118644 590.9055469845074,147.87386146713084 589.5546102924368,149.51127125037408 585.3459992445023,149.78905477677142 582.1974072555082,148.72525842196558 579.1617683454997,148.29196785735655 570.8485191957319,144.45038408512835 567.7948795759094,143.89172070388838 562.8356962642619,146.66797320551132 557.6492400757913,147.46498393157935 554.4174339956742,149.27560132014594 549.2841242446267,149.9697926929697" /><circle cx="516.5508028333826" cy="130.94189689495897" fill="rgb(100%,100%,100%)" r="16" stroke="grey" stroke-width="8" /></svg>