<?xml version="1.0" encoding="utf-8" ?>
<svg baseProfile="full" height="1024" version="1.1" width="1024" xmlns="http://www.w3.org/2000/svg" xmlns:ev="http://www.w3.org/2001/xml-events" xmlns:xlink="http://www.w3.org/1999/xlink"><defs /><polygon fill="black" points="145.91532516076276,0.0 145.67540536807303,6.328723452714826 144.80807464257234,15.298070360094925 143.60580458133458,33.03186528620006 144.22482193153488,37.94722580028758 144.58288102275148,49.099331520070905 143.72092024197673,58.73779227512375 143.94734751617807,77.35477416217304 143.72621210139647,111.41558951435866 143.73202116943614,125.61053902501249 145.04101384965395,132.47107877098142 144.3282150390326,137.67198003900285 143.97776064071908,146.53466781544546 143.72362683886965,172.9396084434493 147.49924892215319,192.86993938371586 149.7157114300004,214.88916041764162 152.35942364815924,231.12940391694735 152.58798889827503,238.58934146971694 156.4299027429921,244.31186332951677 158.3860080272008,248.06052276113098 160.7561514654505,266.9946575959776 160.49281525651514,272.664660530707 158.59519957749035,279.7600690499834 155.40852622872174,288.805615009986 153.3047521442428,296.4291318775031 152.37350218091757,302.6221005975473 153.66531676007153,307.5628038148483 158.4328525680157,314.05594732660927 174.62436094078376,340.4762117729332 176.66894390608013,349.27896917050487 176.56836036183762,360.1405476085192 176.9899440238655,376.971046085647 180.62913564387793,403.74700680365504 180.92530840113497,409.53436286036924 182.63694135864642,419.530702140082 182.94401678198173,425.3073725238339 181.4525277150153,436.73469502082935 179.69587557049283,441.89662440336747 179.87675105220305,450.8063439672161 185.76395010987727,474.5644482673031 185.39089377927672,483.9637293387331 180.4780652852709,503.6337742264529 176.84003649890144,517.0980220599525 171.1104867534486,544.0314049883357 166.4697559684672,570.0142873693214 165.2563922220242,574.6716702665151 165.5174723747128,581.4779465798517 165.40930515364633,598.2026502655686 166.17113584176707,609.4601658892783 163.63631430046195,619.2618583185961 156.11596242058351,637.7866195968788 144.47580481787176,660.937614208084 134.2739309794605,692.5712048079172 125.38640189964767,711.2994337667617 115.56372418587586,736.6295015162284 109.29968936382784,754.9164861798392 100.17665242743723,775.472571018237 88.46931780414349,794.3496258345297 82.24287045732065,807.1610079858802 75.00874547306105,818.3984818685103 60.40981180340868,839.7981612433724 38.89345806652955,872.8442186271868 29.568307599841038,884.1583199483538 22.050101700051524,893.4782633998245 18.30257578652072,902.6384941185652 10.740915186440503,923.4427678949324 4.645581431035825,939.52400375441 0.0,955.3270410921218 4.887634953826324,959.3147204154327 7.956744529749135,962.7002294241784 11.757302727485365,964.4827362222649 13.944481600154742,964.038428981423 18.711535533139823,960.356716754973 21.54602207139163,956.570653508459 26.309489845697883,951.4739859640596 35.6096803391917,945.9752074428859 42.110715784980286,941.7264042621023 52.163265330821645,935.9295238701378 67.68475208715905,926.0226752683815 76.47720671423072,917.141671718351 85.69729817877577,909.6427934282001 89.41260612016055,907.473684774046 95.60884192743656,902.5388409387625 99.57671092036988,898.910564975544 127.03281959031149,878.3639722453912 132.2741866564792,874.8097409704246 142.91180536623864,866.4256794687748 146.21208354152765,863.1990216627426 149.04046730105296,859.5099998501828 152.2695484584324,856.2813437979953 154.84203885854106,854.5666369883347 156.89357867722993,853.9235773670728 164.1506558843405,848.0759796188597 173.54342763594238,839.5035980451273 187.50504085422813,836.5800647909346 191.85414477694033,835.1244474383976 197.0031067167048,834.5564325273676 200.96586359861786,832.4871802574297 210.95640968258442,831.620233436667 216.50280465346071,832.0310284010258 225.21635159372588,834.5582267935464 234.96334361351805,842.0801479457301 240.3804602932507,845.0968347592477 245.86834509899967,846.2400379761713 251.16533500908196,845.8464486971554 253.90995921239164,847.5383202869543 256.09640758936376,847.449866762696 260.66531274421953,846.426365595882 265.3575984767065,844.514114567168 267.0687723843008,842.5889910305616 265.51481169915286,833.1646887791376 272.6343618109538,832.6907144315232 275.18346026059504,830.7144967139534 276.0791375194388,828.4754093441748 276.67677885335587,822.964237335234 279.51022582332337,817.4753505331164 280.23757065207576,815.0307756354007 282.6329357863779,810.8864670366261 285.20723895647194,807.9384860470294 289.3842611787991,806.0707066130478 295.2654944798533,806.7295606142098 298.61079306040654,806.5760693043643 302.47412170456573,803.6214918285253 310.0485901199125,800.3984885025295 314.65589779044825,797.7556064811503 315.85347958747025,797.8344446446708 318.4942625532215,799.9687421660865 322.1922933641292,799.0967022640148 325.29516717276636,800.8664832199377 329.5007412677104,801.3125159914541 332.67727823093475,800.3608986409208 338.7047938915191,810.5517744607193 341.5329221484866,814.397674114138 344.72962259319826,817.3283267972039 350.8700450225273,817.6451329024403 356.44961152967915,817.1686303223263 360.95827650887514,817.6072769734728 368.3636380238888,817.0316026259761 375.225429505401,816.0066382897925 381.8371346339036,812.5405899439213 385.2245894973213,811.2610265932997 395.9554474595422,811.1796665545573 402.9174605264076,812.1741215297079 411.856545481388,810.5618110695683 415.33167810243515,810.4683381034214 421.07173557599816,809.2559523793708 426.65027430558644,808.7995649414095 433.34328656579765,806.1199544745631 437.70364962695453,802.8870250575018 450.95802843976924,791.1087010651771 455.2365374798522,787.9683914195441 461.6196047024685,785.952607019319 471.08523489377205,784.9800359868177 482.6348278757548,784.3925796142988 488.23151675240007,783.4964839711764 490.7962351145948,782.4576337873141 492.7526057864745,779.473410462399 495.2506859060856,770.6765425918786 498.55449518917965,763.8117046001041 505.6369170555166,751.9799746947284 511.53665266442215,742.6914142845114 514.994545938519,736.4589440501911 519.456777500831,727.5177005358994 522.4588219267786,723.389968888266 524.0820242161266,718.8765565163147 527.5630158896143,713.6825628829972 531.2642828114637,705.3725623096263 533.7158627925875,695.5141744339539 534.5021252648136,690.5994990587856 535.9642530881018,685.2595516490064 537.259953901145,682.5617434383107 539.4382414278504,679.999431115202 541.2248104310974,666.5568243648374 541.2197452712342,659.5424523234617 540.4102410463123,654.0978455990162 542.227602298554,644.2344012682677 541.3871755065815,641.6948672906532 541.0170981581269,633.9366200458702 541.1836373435037,627.3139980386488 542.004041743516,623.1202246232428 541.8806624268565,614.8564509010762 547.3347421483825,605.9543228683935 547.0136976181636,601.4723373476129 546.1097980726125,599.0591460499288 546.5989258851314,596.7467534079276 547.978480350863,594.2447331585215 547.8247854954748,590.4248800549021 549.9730599895787,588.6000919764201 548.9891844589929,586.8611066799334 550.0406408741076,582.6658033149477 549.673182672298,580.0321650767867 550.6895112089617,577.6525939698637 550.1652097102177,574.4630864613948 550.9729662045681,573.1675150391743 552.0036035400956,568.9607160358391 552.5482558914862,564.8513657808949 552.6389769959648,560.0873071295798 552.2431197186618,557.4346807313243 550.8725408675991,554.3591565640559 550.6063421113224,546.9653704674962 549.2546653104486,543.4553389974831 550.3865673473913,540.0259879903862 552.6502450414008,536.8297505220544 553.4169532419855,534.6522481735337 553.7022902120868,530.0904497103302 555.1615486151001,527.2212300636829 555.4339801470759,520.4513821048699 555.2771666697945,518.221444976974 557.27040182305,513.3333459470755 562.3168067188433,506.95375333226315 563.5442013510702,506.0926698707525 569.4485975439815,504.35456461764505 572.0765855691304,502.53065051819067 574.0709272284521,499.57237139146145 578.9928604374809,494.0409624373161 582.6397899301505,492.5348171944926 585.7544660931856,490.1453952414464 589.7231405088298,485.74132744977555 594.9169063563119,482.65800904163166 599.1830403256153,478.42568007293096 601.4724631839407,474.45839668907394 603.2577014920993,466.15816391867907 604.7276037360671,460.81438977536885 607.7290001657727,454.821550290954 608.9526457710552,451.3467128823171 609.0065614276072,444.3228751657347 609.8344004892451,436.9089113676008 611.8075897545589,422.1912143808752 613.3575141424494,416.77993722472115 618.9459386624015,407.03165957086094 619.5169810573422,404.6553820920876 621.9098352749182,397.74810750329914 624.2515522846505,392.0493930669354 632.0741359182988,383.2152170728169 635.281576333127,374.24092683728554 634.4744273399915,367.506451755768 633.2566839815174,362.3006052524486 633.0890845019568,360.1655070883919 633.829243924018,357.41691239372085 636.0521129538407,354.89877289992114 637.467625806784,354.45135583768763 652.7569233713954,352.82645527695 657.5113719363276,350.9992914819586 661.0756825974356,348.9964799042914 677.5957542276146,337.74706552680277 683.2683364531002,332.92647196887344 687.9263870617447,325.1567720837086 697.0642252225227,315.0332439507632 701.5973758114022,311.9021868483351 709.6662440676819,307.66958396702614 718.3943773594178,304.69185210664864 725.6646588733147,303.9115049786185 733.1360723807028,302.1964582158679 758.2095166273469,294.38389719729025 766.3291222613509,292.4239172320175 771.8253292450073,290.2065663071793 774.4330391888551,289.47640125720204 782.9121189871041,288.4821072186087 787.348421399015,287.3316718611421 807.1302890223801,287.61348604827685 821.6027883616474,286.27893611137915 830.5245076784335,285.9585812618117 833.0330499892168,286.5119039028889 839.2863310149896,289.04048404871594 842.412007642493,289.3562145481616 850.6670096732154,288.93506852570863 856.7944185233348,287.49449821197663 861.3737320930633,287.0403983970591 878.1137863198452,287.4371649160262 885.1576112556944,287.17975219035293 891.8759320964871,287.92684519625993 900.2594387732271,290.50387745183025 903.8232914604612,290.9350264454607 911.8030233011715,293.619047725157 917.1133821424005,294.10198154553007 921.2227484694556,295.6677026253261 933.6869811379606,298.5985929295316 944.1322777271997,302.2564435150988 948.2486820925856,303.19681043994933 953.2516885215872,304.83026306602244 970.1226992512717,308.2198450668519 978.7365936066896,310.43360271315066 987.6287483175557,311.85669095596234 999.7429690255047,316.4896861819076 1004.3460641741682,318.87654390060413 1009.2009726456373,318.3123421102898 1012.3905841185597,315.4181052042212 1013.0236644336809,313.11186820839146 1015.1274969873715,300.722921740477 1015.3091728769646,294.19957468943846 1017.400980325945,288.70700052869836 1018.3016346257806,283.66213036375893 1018.0876787686601,278.9351628570972 1018.3287291027211,273.3634341829377 1019.1895454274529,271.64354235995177 1019.0685037788968,268.2381065181329 1019.751067049858,262.51937690322313 1018.1767398106496,254.20494038106176 1018.3726383340988,251.7351242895362 1020.2663049940345,249.36285783760889 1020.9595316177083,245.80072250224146 1022.6234201928169,242.46558427940545 1023.5507704348805,234.42434214918012 1023.214311616328,231.6023786871782 1024.0,227.0957587127955 1022.9174363170691,221.35834471579915 1022.2762903927813,207.72565222438857 1021.2936242569475,196.40225641271354 1019.8293962273933,194.15371143643995 1004.1424917131358,187.22051794736728 1001.4746146991064,186.33653216792686 998.581647071274,184.7528823706151 947.617205565882,162.16876728331306 921.6445121091549,149.86814336626435 860.1836603687914,123.40812173615689 857.7354047017078,122.6042616191869 814.4553019835001,103.69329357825723 717.0338450563681,59.6828937584753 686.5250002364717,46.91619625967769 672.1544338423319,40.669930787237604 660.031170214317,36.1121258292535 649.6000473112482,35.320192188382634 623.7774723304012,33.57110497843439 616.1683023516507,34.29891955528626 566.0630428848687,30.974525798565537 561.700091443605,29.35867556774258 553.6692713726126,28.81624267859422 552.2458937280425,29.96097430371094 548.8919924903012,29.806846617845622 547.1012302668106,28.372607847536187 446.4909865985232,21.4865296032915 393.03048083666454,16.850757441502537 301.2756507590748,10.901036926145252 180.6352413421858,1.981368653405184 166.6044623390864,0.8858751005313934 145.91532516076276,0.0" /><circle cx="412.56785720530627" cy="239.74696363651503" fill="rgb(100%,100%,100%)" r="16" stroke="grey" stroke-width="8" /></svg>