<?xml version="1.0" encoding="utf-8" ?>
<svg baseProfile="full" height="1024" version="1.1" width="1024" xmlns="http://www.w3.org/2000/svg" xmlns:ev="http://www.w3.org/2001/xml-events" xmlns:xlink="http://www.w3.org/1999/xlink"><defs /><polygon fill="black" points="116.60070864596393,534.5069382054062 151.1494934697396,540.1002281585809 172.55606063809768,545.9233525329994 176.2553747462223,551.7880827637408 174.77863612036612,561.362455636107 174.77145802043052,567.2445823342496 177.7353964804364,570.1787807001323 188.82496315345267,576.7703886753725 205.7985050599094,583.3384592299601 217.6198312054368,591.3942296685257 226.48039821428767,600.9302274564127 235.34967775735495,603.1106924666753 242.73383195498016,601.6033866896142 261.21150100088784,592.7231173647267 277.4636985910708,591.940345421297 287.07189987814,593.376068802087 293.73115258794394,598.5041474089985 298.88973049718385,605.8456572198477 302.588652010594,616.1392341296121 302.57856786220503,630.1224745686443 301.09881088363574,647.0468745937108 301.85684144813473,664.7067660786486 298.90064893889934,689.732546699412 291.5155071338964,706.6733881399946 282.6373327533497,714.7962547255929 271.5707930482651,721.4514407808913 259.0164474420348,725.1731350592838 244.2373974105254,725.2258239107646 237.58700347627726,719.3618029905938 235.3581467068005,706.8591103893332 225.00836378446493,703.9433021324469 220.5886596900701,707.6433764683951 220.5993991434553,717.2019831051499 231.6746348637675,736.2935948188672 242.0181285973486,748.0375564019716 250.8874641087551,756.8345823137802 265.6695380599187,768.5618865553038 277.83720451052045,780.6624117447519 277.83385489279976,818.6973757636914 278.7169966490209,822.1234299319613 280.3886860121808,825.162232220525 283.57086155834094,829.6095799820689 286.3715132263049,836.8403562241202 288.72696713174366,842.2712202678474 291.88534399482154,846.8456287203106 300.736678098391,853.4349602164012 313.3004511684297,857.8181639383663 318.47808930182407,861.4775517572473 319.9540468203042,866.6348729212644 323.639185522756,873.2459578521299 332.2412606023976,876.5072171654353 335.1162499486136,881.6114923028291 340.23997922699533,886.1351699445324 340.0662735899846,884.6567535579354 340.65124378066093,878.376375166953 343.5911611075484,875.4237480456238 348.32892127572563,872.4808333523904 353.6268874548457,869.9040755470346 354.22919716644566,867.3625173141177 354.02050965939446,856.1681893352938 359.1436352989701,855.7592733486127 365.2532955997566,857.326033641279 369.3822580183118,860.2667880258682 370.18182473301124,864.7683781932997 370.36140726861754,867.9045189914345 372.1951170519633,871.2570993901309 378.0302368562533,873.3893805945265 383.35986427645884,873.5771953556317 387.09340905983674,878.2809107134202 387.08183640227855,887.6949270094035 387.8014146214626,918.4681547687859 388.5963241735316,926.0841290453866 389.49090576774773,931.2299694988033 386.8976559842963,937.915649270267 382.3281168494207,947.6956471443508 380.1161924884774,959.9837090735348 385.56904174561254,961.6680141560136 388.9598147841602,966.751939814319 386.9175361973562,970.8328926911493 383.66601587789773,971.1986704167174 382.6378889121636,975.5328852679805 381.63020203981887,981.1967662747956 382.0429100463744,983.9455372082316 383.518894356697,986.4599517882029 385.904595029764,982.0420936234348 389.9930307151206,980.0007785741575 392.6996884011164,984.7411485337194 396.8003482776308,982.0162499904819 404.94846002758584,999.3275784203034 408.36693710767935,1004.0779404987753 412.1043971797109,1001.3585224961424 416.87600335959723,1002.7042711511964 424.0182375747297,1000.6652837016046 429.10591837732574,994.8883546931281 428.9589819580142,991.489620563767 437.2316090707967,986.3709173079145 446.0930525712435,984.1442438785042 455.6714297126975,984.1493831657689 465.9911779962257,987.8217558710418 475.5477994792579,987.0935144151879 479.97765631152714,978.9952133637631 484.497589796956,969.7451291639969 494.03258822357486,963.2863685509662 496.0642310495636,951.749556577667 496.40751398079806,946.99315201943 496.05853769493064,941.2205496146993 495.40610640863616,940.0068638347233 493.0055390371153,929.5745058802829 491.1273815172758,922.7658017810634 489.347403646396,917.7679942985768 488.2473805894448,911.1410940683811 489.6244111157257,907.5332050397187 491.3016133948303,904.5345114774993 494.3668310399753,895.3751760797632 497.765977472178,891.9855178087367 505.2253175296177,888.2538598819876 511.00443831925935,883.5029208655316 512.3740937401304,877.3935258022404 512.7115849049028,871.6223885598213 513.7239541741274,866.8644683509475 515.2267678283193,863.5919500888656 518.6126011577883,858.8183299418043 520.6445870400418,854.606362872363 525.2614434629224,843.1814608378237 527.3975174587953,835.9188593855467 527.6905523011925,828.8910074615353 529.0808556452391,821.2680351289432 531.6576170844352,814.7955961204318 534.7354619572811,806.2004631130217 536.1074167424619,802.8962130665493 538.7414574432025,798.8553227314324 541.4918920065343,795.3179270076789 544.7863644193544,793.3154538088125 553.5642600035779,792.7644999563965 557.2939666261611,791.2399953743572 567.4154301743308,788.6888864251414 573.5752827589916,787.4690950526106 577.2545181393351,785.8324515852443 580.9522274476734,782.1369246507913 581.363460702672,781.3205824983295 586.2855305680138,780.5040019181924 590.393847453668,780.5090156560118 595.7157867508303,782.5707649188546 599.8333271099133,791.6151686187839 602.6939537514943,799.4268811941374 603.5187295455336,802.3003002747029 605.9769772215787,804.3551149520234 609.0586923156613,805.7809208186425 613.9870004302295,806.6921047510141 617.9626924428999,805.2218419870765 623.2640513413553,802.8635382536798 627.6935160137531,801.9690674218562 636.7727025579001,805.7579107931598 639.8327568871902,805.8809473170038 641.4368760058599,804.1258389161324 641.7092474729526,801.5278997838525 641.0524277431517,798.4452808921685 638.980435107339,795.9375193837975 631.9988471701554,792.0660910936733 631.2111705045736,788.8107475163245 631.950978408402,785.6169238183691 633.8240352042542,780.973591968821 637.7144249788279,775.7663261049184 643.926264040415,763.0569523762084 647.0001183743565,762.1356839340908 652.3163269587416,764.6169431006518 654.3648170211181,765.0272661582799 656.4325312913934,762.5649097272137 654.3836808567281,757.6349522313366 651.9135963572398,749.007035516425 650.6913665339467,742.8457717596805 650.2757463907699,738.732831033926 650.6247966840051,737.9345634272881 651.0975985903483,730.391055321546 650.5908305082822,720.0915120213401 651.0890262027852,715.2205292456027 652.5562506124302,709.1554850654545 654.1850943965119,703.5456830270928 657.6467792190823,697.2879720642865 659.404264495565,691.8291067290842 663.5654019616044,680.3911104922145 664.2046487153809,675.6603865172788 666.8748557493124,666.5813306787105 667.2029280070068,662.7714747966565 664.3705573866558,649.7844959469894 661.9578374453749,637.7174072972275 659.7821867931482,634.5544778858397 658.3904690165771,631.2746796127885 658.7409321160054,626.5508819194351 660.7900750416235,621.5815887251445 667.0643465406122,610.2129748056026 678.2645403430514,594.9393347674477 682.1081412122985,590.8053797483377 685.7523266112808,588.4564758011418 688.28700710579,586.2227655675781 690.9222608703135,565.2118812546248 695.1277614641523,563.1119239375873 701.9385857129165,557.3548174667192 706.635730683045,550.0607834410841 715.5147986562182,551.5556240796872 722.7656026966653,558.0146163668082 726.7990082902064,560.447863272522 732.431685244866,560.4527577714177 736.4583090078195,558.0487796365429 742.9026515593423,558.0534998294174 743.6990688024392,565.2992875900437 746.118918844961,570.1495851257546 752.5463365721469,567.7367364839381 755.7765776484356,553.2389426378554 758.2045911865737,543.5755796618214 771.805746640426,534.0932120790671 770.8037360041365,527.6179476748005 770.6641494240749,523.4518959303787 771.897180132671,519.3963005589858 780.4583020227573,505.3624154692352 782.0681143150779,499.2934390601607 782.7389356093652,494.2754503812963 781.112578567308,489.3084122104907 777.2637596143346,486.205448078691 775.2114099203031,483.98082230533146 774.9081702153862,482.8536836519122 779.652970287481,478.6520460155933 783.3209123394756,472.8734918214732 783.8487511111196,467.1021497813298 790.1522822073525,466.0516371131007 792.2542066638549,472.35963504980987 798.0249735507374,471.3127742435587 804.8563922832933,467.6402261275721 815.3793782292247,468.70115668414417 824.299946276987,467.63557947529193 835.5306326437517,471.9143987989187 844.4034713994322,479.9762142594104 857.2986341123658,489.644586263041 864.5424060366056,496.91413904869944 870.1944999808196,505.7769555198426 875.0452221432931,514.6374015404051 883.9229824001313,518.6668819333397 891.1785542744752,517.8573001789213 901.3375254692519,516.2820012198247 901.0704899603288,518.6278089595427 901.5978977510873,522.3049628498989 904.2462849273649,525.4505942494012 907.9104123217677,531.7180778051327 916.0737877985973,530.5398236707343 925.7228632268921,531.233204186376 929.4261590443372,530.6186983505065 933.0572440043038,528.3186191229071 935.686208859158,524.1284875559484 938.9538279467897,523.0444372639238 947.6840058727928,524.0102942462199 953.4337536961699,523.8529195447404 957.2394076011508,524.6825837200615 959.0722477375828,524.2962563660101 960.7206868112273,522.8903062072852 960.5916197522786,519.457072704304 958.3116262241483,509.8060673073965 953.8377796638523,501.7954458566072 951.7899538309775,495.8284962334412 950.0218688264565,493.66020450356007 946.9682845684346,490.75121371941805 945.0426118995036,488.17939639234066 945.0459673293574,481.535947014615 946.5256228743721,471.6940218973781 952.443734081971,461.3471293239727 967.2496568211366,461.32382973176107 974.1536666974894,457.38029710724913 982.0557364546894,449.976978131422 988.4547402036014,425.8522928747026 992.4054566752909,413.54576528431096 992.4060242404784,408.6194726103889 990.9366530740458,404.6891664349538 986.6565147282295,401.70802777133304 984.9990808490687,399.00688561486095 984.613087890894,396.96745597181325 986.2807046352265,390.87135994816686 986.616219898629,387.93500924211276 988.2649136335368,385.66903632124786 990.060990056727,385.59137638978757 992.1443336026912,387.1720982713357 995.0709035650125,388.5654246416101 1000.5541910747977,388.81365184619165 1004.2770811469519,388.0684617131061 1009.687842068887,384.4771336686035 1014.6098444586491,380.5269292618186 1019.0474648211948,365.26671125399014 1023.9924665102078,357.8796762952462 1024.0,353.9382029327612 1021.0364635404833,349.0262650631611 1015.1044836657674,346.0843891338337 1005.7393548859407,343.6389789776806 988.4682979888913,343.6731375155729 981.5559845058636,345.1589719543216 973.6678362751111,350.09373046350925 968.2347928775993,350.5970794345734 961.8072030927159,349.62279332276944 953.4466954445269,343.2361948637423 940.6255241832297,326.52719656697593 941.589418938489,317.6742310380944 940.607205159451,312.74883940548716 936.6718960808336,306.84426536844603 931.734808638507,303.90268397673594 921.3783250344472,303.91064995286627 916.2271048470907,308.03557042271063 912.5590460181528,307.82553085439486 906.532182149924,306.81728478056823 894.7265199100566,305.2594157291287 879.8383735953565,305.10700187687735 870.7088449039102,306.8628038725403 866.9700587862754,307.9182151376549 860.675088451619,308.56858166917993 858.9428126999607,308.5052781455332 849.8153838638295,297.64594093826486 839.6599611045584,286.8352128306219 832.9089811619388,280.7512230987935 831.5409244840349,273.9945672560533 832.2194036245206,269.26145399388736 837.6274838689857,255.75749311367247 836.2925378489444,249.67406514202798 830.877978694471,244.93138341559688 827.7703138185426,243.39571426775808 817.3737430649326,243.38890310152192 817.3814383054972,236.64215601094395 810.6380536819498,233.2651170623908 808.949985730875,228.21045744302216 809.9814297023297,224.7652093557641 805.8738622509602,215.18603467796527 807.2111513349482,196.26799021180682 807.2149861514938,188.15930495695102 801.8099791564778,176.67197394241953 796.4221761697306,168.55955778036605 789.6572563565205,162.4769403991627 782.9076705674953,160.44198303295434 775.4863871042847,161.1053771880588 767.362786571577,163.79388554082504 763.3239111768216,163.78871230488141 762.6396546316877,160.41286133139988 780.88374989641,142.19531373042378 782.8990447910181,134.08352499203409 782.2351808109227,129.35426263102988 778.1703474288296,125.9713519822003 771.4216921541729,123.92796959729048 756.5599430561189,124.59175698110755 747.109143079699,125.24623318186002 743.7474999662911,124.56894390989544 740.3759834084093,119.13304341250466 740.3816274079649,111.0242305318194 742.4165361975773,102.25364397496253 741.7261209065426,99.54771985697539 739.1783746142904,96.99855311525334 733.1603201407356,101.67591668700254 725.5681970314776,98.28811653046228 718.8430282508945,92.38341110972146 714.6377353222356,94.90377489495927 706.2352868346456,100.78276122154944 690.2285100715549,113.39202744103716 688.5309860433651,125.1457957937539 689.7323318321954,126.49420129133523 694.4595513600245,135.288729751829 694.4528646272854,143.39488758563675 691.0911063259032,150.14508351039387 662.7450861380465,162.92973619101394 653.2231953056249,170.27621502745797 652.8374001274891,173.78962855535156 645.9809535528019,184.05091270901448 642.1831988953776,187.2760059207792 636.9042115469466,188.70641115934006 629.6000129235657,188.29657659241184 631.2690543255732,177.3429034030263 632.9622046102443,163.02276155652794 624.5362171371609,162.15510310923457 622.0153285292852,156.2548518010774 620.3294855761885,152.88375371239056 615.9882634844129,150.14875446927624 614.8190312789407,139.18841115889836 609.4261386709434,130.38336612211333 601.9946143653076,123.61451105226377 593.2325353805147,116.15685302258782 587.1732420416794,108.03390861582568 582.4387717758786,83.0245296285118 577.0433475140982,71.53558379566164 575.7852788725269,69.88477607809693 571.7736894599152,65.88126880486334 567.5759499395807,63.215333060847115 562.2338328622677,62.049887366443386 554.7517932057048,62.045346417319365 537.1921098881895,49.19091463402333 524.3457039898487,34.99129044512006 517.5948033502735,26.881426522797256 511.5044746210784,24.84988770226107 506.7701078969486,25.523411358975636 500.6867114312078,28.90434149183693 492.57567312586724,45.79456384365676 482.43517932664315,51.871223914562165 471.60248618572075,51.879387166245124 456.7288568551953,49.86229548823178 443.1911033496384,49.86871102991347 428.9788897934114,53.93180225190781 413.40107095538195,56.65326345223127 402.5552310668587,51.93541478065231 393.74426862402373,41.817763079798965 370.70450514037515,5.380944682532572 363.230584222648,0.0 355.78873437919515,0.010402563539400944 346.9667791732426,3.418977192625107 332.04955158493726,10.886085876171592 331.3459425430004,13.49937317212914 326.42149231762085,17.34465860335365 316.1601344600057,22.413424896182164 295.225127313096,30.38153022100073 257.78328803142495,46.36660884610728 254.20289392157412,49.370900567486956 241.19166951611842,61.372097395831815 238.889056808746,67.87105169422591 238.3101797034765,77.88506766360183 233.7821044877588,85.22428567857082 228.83584498623267,90.3703029743773 202.43305389077014,109.13642646336393 194.79346184283875,114.70529991231899 186.31062433753604,119.79728095428243 181.38686149735713,123.2119553996398 180.01022667653265,126.23808982439164 182.15261011328516,132.36455484797523 186.05662175048752,138.5285212557718 194.76617984636113,150.4303471050065 197.38294368706357,154.38780701413998 197.36324326372215,155.69258392211418 192.91321665575336,156.92772729769922 187.1620991429633,155.53840312010425 179.67004451495492,151.93570794207892 173.53746808404523,146.619678839142 170.94007875309973,142.22003003309646 164.30735683624894,140.80603779176818 159.85966382256885,142.0516181140597 154.48700331156158,145.44825325223565 151.7942571670888,148.4542464930106 140.37982228798256,173.5326986989835 136.269349033577,182.19314727348603 117.02583966981027,196.6860903112165 101.3906721140936,206.45268980665958 90.67085466823595,212.8050638122238 82.64579599453359,217.03077119981413 73.29336690869643,220.35666500192428 64.38829824958472,224.54936346403395 55.479777464795006,228.31307873189076 46.18022328234841,229.4629696216707 37.33238114664292,229.3036597918973 27.612916186335315,227.80911455961393 18.33372482871845,227.64527687123166 8.148845577008544,228.32713959956254 3.688992336607169,230.85399315251493 0.11436625727106045,233.83695169266161 0.0,242.5478105607849 19.743119163750816,285.17695729039986 22.756389556116815,291.3317219073317 26.642965878763526,297.9423308944689 30.587033209979506,301.5039731619855 36.29686676386874,303.78790416594086 54.437862349404845,304.11018810636244 61.097289973334014,303.36132118693615 70.82979289600934,303.52263598255195 75.63321377731181,309.27304156012747 79.3335089311652,316.21106675066653 83.78546409256327,328.1530932004939 87.56877517354604,343.0259559924758 85.59583016329233,390.4837378026659 78.60439530546854,448.75811859435396 70.2838077817462,473.8853554020245 64.35820849808597,485.54531644881774 61.61390213571008,492.47616631861996 61.09191165086036,497.68578301153826 63.680847233136916,503.39648945803543 67.16245175786742,507.38441200174736 83.00883445363516,515.496633195514 95.78538750903597,520.9400166025944 106.82517448840285,524.611712966439 116.5031451101869,530.872405689757 116.60070864596393,534.5069382054062" /><circle cx="331.2847743453631" cy="314.2904110782182" fill="rgb(100%,100%,100%)" r="16" stroke="grey" stroke-width="8" /></svg>