<?xml version="1.0" encoding="utf-8" ?>
<svg baseProfile="full" height="1024" version="1.1" width="1024" xmlns="http://www.w3.org/2000/svg" xmlns:ev="http://www.w3.org/2001/xml-events" xmlns:xlink="http://www.w3.org/1999/xlink"><defs /><polygon fill="black" points="38.160001391488336,19.23402842042958 36.99402375485946,20.62589624201246 35.070811568871804,22.20391980587806 34.53221861236152,23.092562504053376 33.69827534668765,23.837367072375343 32.215917299534986,26.32726453515238 31.40953350178437,27.475193886575823 29.31900760974923,31.71147699686628 28.602323269507924,31.94095646774832 27.656500161491397,32.60115464542736 26.457479465809485,33.088484936622706 25.6499599669928,33.14652986482179 23.25552699023693,33.662513797058125 22.220229090264958,34.09301917167869 20.474568938713606,35.126998990903076 19.87081819927002,35.24147514958662 18.988372849201657,34.55769638536873 18.670191142918007,33.639122261082264 18.591059751319534,32.239327241673436 17.924255991315643,30.32242077153387 17.32892731945311,29.521267255233568 16.242597850319335,28.80621294143748 14.893696493975867,28.950238598451676 12.295859518200135,28.265221555652317 11.356517540919915,28.208950354569936 8.91918229876908,28.978497881315207 7.068381363133544,30.319835189162006 6.406833130098888,31.178717698236483 5.698344754473349,32.665325032394776 4.236235702296511,33.923651202506676 3.554630417242599,34.72359546924838 3.4336152168586023,36.72845846910815 2.7787734434697624,39.04061219916872 1.9579006840608701,40.50080755404349 1.5260200272568156,41.870513004587224 1.3554337315109877,43.72962889193502 1.441135178052382,44.388474061744375 0.4079928869163839,47.75849431274963 0.0,53.104975446062156 3.2309423456206288,58.29744350841139 6.298653096563922,61.34348632923809 7.1687089138742275,64.44535000126791 7.61995169362029,65.4092602573578 8.660172230717576,66.73903304961169 9.380535168663283,68.38875947159715 9.919691079081627,70.85933051081741 10.187959838105426,71.68333378210963 11.132185381625957,73.47024774111765 12.50701037011304,74.02857473522783 14.598996958224248,75.49847813708664 15.419631414059108,76.32396546477878 15.963909545332559,77.15096399562748 17.554730907618254,78.66728378357561 18.644726550401103,80.22658449311376 19.180421398470266,82.0096218902504 19.03740385318932,83.10671167038788 18.668571501672638,84.3363918252083 18.23048064575171,85.27439294131062 21.04831725362308,86.83817298549036 22.99236207663942,87.80881373546117 23.972087049100136,89.10530759525386 24.38841196023963,90.58553081119362 23.977455563528768,93.08432874195518 23.081150429549915,93.8259091017656 20.96482124256123,94.94520813027606 20.685447623153532,95.31724814167615 20.397551174185136,96.63169238572937 20.484651800771253,97.17458416376383 19.486613215560116,98.97712647790411 19.249060335814267,100.3502299767631 19.41800698410173,102.06513340814672 20.370242081952274,104.15155669864157 21.257967231080542,105.52368450859211 21.374638798287442,106.20856528157549 21.143802556504514,106.83969641689595 20.370074831065626,107.58234406479244 19.99627858217152,108.21217938286685 19.85411706533155,109.21158276404017 19.968448346902807,110.15458918236988 20.337810410454452,111.15507035148153 21.485561930269395,113.18501629431063 23.122110139786816,114.3279689501139 24.22412458737618,114.59953464070463 25.178892472012073,115.35061559379679 27.370463234564948,116.24733239467841 29.68069497769157,117.52665152594429 30.31866333908015,118.29305231583382 30.06154602251217,119.57895604391624 29.548843924203915,120.86310324580651 29.420783512872912,122.65984869210718 29.41702404900806,125.35663211093859 29.93907392643284,126.50769923933416 30.74659033928877,127.72303080767199 32.19141007536491,128.63520129223926 33.57353018784818,129.72089887879264 33.688664581494166,130.60667045577605 34.99993473110343,131.57529052187678 35.89023199230842,131.57192974450172 36.664199676677654,131.94260230793367 38.300188156618795,133.2530885541339 39.847659207102886,134.16188192482005 42.03111004852188,134.872126504244 43.430484409712044,135.18632627528402 46.40589435388208,137.85135482763826 50.441605412881124,143.40465348464488 50.58363703518362,148.39748843804458 49.86767169314895,152.02204184010114 49.03647370081584,155.88603043737257 48.11646026049891,160.56161958748797 46.368960564233085,165.03023282134762 45.43394225139125,169.01071086538008 43.702583474710956,173.94301267225217 42.27220565094537,177.1255649935366 39.6587202797501,179.76239427209825 35.21601351827157,179.54575104057812 32.73709198460127,178.45665097048533 30.077132307399438,179.34742034684663 25.965007971235572,182.25891292334643 22.8598298306361,183.6267357131865 20.222557755134506,185.33011811853638 17.96654675442214,187.9478936733073 18.347394793654075,193.39905497012523 17.283262076657586,196.68401145411153 10.94867399000809,199.297966655915 10.730969131684514,204.07103880577657 10.837488509860016,208.13642771181568 14.27342915616114,210.01566442726028 18.502055835349253,211.5232028850871 22.302223443302573,213.97054736266452 26.072906419496444,219.7898012801258 29.68177759121445,227.81816667765526 33.12590565944892,230.1562719352209 38.208163980641174,228.03045068194072 42.773654557584514,228.70427595210734 46.826873036849626,231.834728091881 49.53300293493979,236.7483154484768 53.49899835456451,240.57797874870144 58.53881399260404,241.11568749769776 63.61647212410849,243.28752264965357 66.52379941142505,251.44557153547183 68.92404654685302,257.76160645077 68.43328583859831,265.2118756389094 65.69284541551167,271.80182128006516 63.564057621177525,275.00354516296375 62.903856493037544,280.4840688972383 67.70837228077994,281.3842887599842 71.67241877899777,280.915930678088 77.18349475676867,282.0289374835761 79.98430907387151,286.0112395854613 83.52882712773793,292.06206218371597 85.40206951913055,296.65432048245714 90.46885184550959,298.36881052711567 94.72224069945362,296.3932286933152 97.79964758386133,293.86448467378995 100.62328263054016,290.88426621938936 104.27431609051281,288.34525268255237 109.17343862737559,284.843860686714 114.48851552619783,283.4296826941787 118.74468357725215,282.1567969074349 123.5802006825107,280.28942612163445 127.25223432467587,278.9171514279052 131.08170843150344,278.4728952406279 134.46221003097827,279.19998145342856 137.91672340030232,278.0664191663336 140.98894457475438,275.78073319780754 142.91077846184365,273.75699469450797 143.27304918081094,270.14685589680727 141.91686376807863,267.3902040532787 139.07928190843853,265.37159099410775 138.648385227485,262.3659824050323 140.7633291155918,258.94323649120025 144.06893471379738,256.88215281284045 148.1945332400181,254.8009547072853 151.08094093114187,254.02827386751756 155.24053494952355,252.98984497173436 161.05406557517807,253.07044930310212 164.74243420518923,251.9230464144042 170.07001750510324,250.963662802669 175.0327736498659,249.2029283932486 178.1196257868458,247.37230051180416 182.53206856189067,246.78222497483347 187.36081733134398,248.50302071178413 190.40105933561213,252.9454501097517 193.9914152724462,256.2091163585298 197.29568716684759,257.6216659043344 200.69629537324684,258.33715815987154 203.44347589177661,260.3444026418087 207.08838052637793,261.4009286550267 209.9761295292296,260.27086966746185 210.42258196507916,255.49431769320122 210.91187839242173,252.22511494262875 212.24775793125144,249.7479382833012 216.17200616061197,248.35743391163203 223.7927054963656,249.7617491448922 228.3440499995828,249.8685749769271 234.6373853464327,250.27216236993462 239.86881100451987,249.78370854209857 245.3248832757518,249.40159310387196 249.74355521664296,249.52471034206224 254.87666706331865,250.20490655600491 260.84634199656966,251.91367873075768 265.86631655954443,252.83675173355584 270.54628060618643,254.23208583910954 273.787002819605,254.03843478053 277.02817420046534,253.73072548236888 282.0223744022005,253.60916798935 285.9421183874511,252.81887943935675 291.34585340675585,255.36105054468243 291.9187266748616,255.69527281289544 294.06179826497305,255.70359879491656 300.1986443113085,257.01441075287147 303.4378902493438,257.3478190838633 308.2887866970612,257.0335284296635 309.9087892325398,257.03579690253395 310.2256287214295,257.36131687546185 310.559619779193,258.65753267575724 310.55121623126576,266.68371663339485 311.84575595798094,268.9903982100627 311.5213757474571,270.7736373374819 310.71434622310755,272.7155840217883 304.89399340540797,276.92024141070436 298.5811418876291,283.5095375827708 297.93624515075805,285.77730875275546 298.91267931210643,288.0476586579704 298.7473605244791,291.1274492412637 303.43496280319494,299.8476682139751 303.758760748634,301.14488293889144 302.78815170281393,302.76222603667196 301.1748937912907,306.00212975391685 298.74120144178744,309.0744353964106 297.6189864191387,310.04133393894375 294.5495810668993,310.19764977049044 289.8551072140218,311.11412295563 288.7230107766773,311.9203801150877 288.8285606869506,313.8053731011328 289.699527355292,319.33752531052085 288.8893207708814,326.949544248306 288.08247566793284,331.16133677512977 287.1105552604232,332.85987365136316 286.30434255599386,339.3372660286938 286.13067982060034,339.1285841327122 286.3059433967469,344.11952665366465 286.30420852843685,349.6299841873891 286.7842292068425,350.31861124995623 290.34475179752434,353.8957687984942 298.74727010392434,359.4277092673991 304.5604323039592,362.6838683400444 312.65148465938955,363.99200926894764 322.3698266392782,364.32110378466587 332.42969482206416,363.66982630335986 338.5934076794768,363.98479754893737 339.4160220630381,363.67655844241136 339.68258491318375,363.8271476434431 341.3377646577436,363.4778471047469 342.45904681321366,363.0788526178444 344.350388424306,362.67499698692734 346.9600688319525,362.6132005922913 348.30573340967186,362.66460410430284 349.59855664374777,363.3149848628712 358.7339734692494,362.44827367162765 363.9440444217982,361.88795932322677 365.59752747559344,362.12240334685885 368.1233241974979,362.7465929420931 370.33055480415845,363.3729267095038 373.6480050070954,363.83785842495746 375.85717289412855,363.67859238765755 376.9562694013967,363.83498250686944 379.482262833516,364.4616807646702 384.05314788273665,364.7719314987278 388.6973153661504,364.6133576770774 391.12393122743447,363.6685523179802 398.32782377645145,362.73252152615873 402.861953386733,360.79278500471673 406.1029459144642,357.87878733483956 407.0759871405535,353.6672037508131 408.0467643270044,350.6685796979876 410.63283861608045,346.1388866852474 410.6324326339468,340.3042023075604 410.3113746700498,335.76646116079513 412.89988375438674,328.9655201359541 415.81019587999884,326.0519056883238 420.02320156047796,323.79446019973943 422.28725729792234,319.908404794762 423.8992308256363,319.9107791526027 425.5192120455822,321.21314941980035 428.1118908290835,324.4595303318283 428.7567529821656,325.75741030815817 429.721359583659,326.0836024037038 431.01555090809876,325.76045387663294 434.58245831345613,322.2040303528823 436.2058117709759,321.0300047911951 439.15396795521946,319.5837365953662 442.2752745561943,318.7290702631242 443.36406189573773,318.2191734535937 447.3602276383403,315.3931121190575 448.67508010838947,314.22598740249464 451.0170907525222,312.5122850631758 451.90009998085947,312.2535242299552 453.0301049972053,311.0496837471311 458.5441404693675,308.1335973140336 462.4412966379858,298.41094646281357 465.03001258915816,294.19643841035423 470.22409645537425,290.3017543867453 479.9728086134584,285.7483200444885 480.4552535602026,285.084082261992 481.2660173240178,284.730688155376 486.1504098299339,280.1815430796138 486.9611037866399,279.69244214438737 487.93563449071587,279.689183296693 494.2740939028765,283.858422719212 495.13562253110666,284.9060794781517 497.16655131852787,287.77867677261906 498.284370659917,290.59241858612234 499.48472349755986,294.07867809023736 500.4594704854133,294.88537618820067 501.5983040351367,295.04229688867605 502.9011827599186,294.8743124485633 503.32202742109433,294.3232275648653 504.3380371863177,293.58236248275375 505.64076401414127,290.98325830755044 506.94388107568255,289.3592760233109 508.1645054691232,288.18008585626495 511.74444874106433,284.2780056613808 514.0214207468156,282.97502953420064 517.7545859930509,280.2075850528877 519.7134753859459,278.58311068889924 519.7131302303292,277.44854661149566 519.1367310817413,270.603372251797 519.4637426912141,266.0644997322038 519.463062102508,263.79536299170127 519.1444139471794,261.6902802047631 519.1440320061729,260.3917495609666 519.4618462363122,259.74238957818335 520.5997379744989,259.09226445340494 522.024744344611,258.5811808129695 523.0805589743123,257.76757655562125 523.736670273974,257.6868693842923 524.4650769357712,258.0878884368986 526.1672306071572,258.5724983913017 527.7156782797846,258.8127010022474 531.4474951003765,257.99360774420467 534.861659191385,257.177985736412 538.2348713941064,256.909724316606 540.7472054479935,257.2293845205672 542.7774191468291,257.22793867876766 545.2899878090284,257.79484813217584 546.7456520175425,257.3083915949584 550.6806339411463,254.69738749132875 553.7550570196769,253.15872821757176 555.9468997678965,250.9719978810111 559.2251189283471,248.52496209181547 562.8623647191239,246.26001584985016 565.2186549559692,245.1303783737116 566.9920063020423,244.88743291834425 568.047858603062,244.88971956654143 568.6938429281622,245.13336636652727 569.5868085610174,245.94551021291727 572.9435900981596,249.5778058540913 575.693332296681,251.04377780319328 576.9848615709606,251.04557435821624 579.0862856564603,250.88983888650392 584.5502128478896,250.3125858473461 587.0517433375957,250.31989981735654 589.6451353807913,250.08252592411435 595.8361585146922,249.26258727707864 597.7003272951346,248.45321302146337 599.6379858898587,248.45687794408838 601.3409810169314,248.9462092721154 602.715756532702,249.676975519165 605.9584752186645,251.13696313759257 607.7009153054544,250.87502992893974 610.9392034112946,250.2300322562555 612.3132814313436,250.31128397507834 613.6057911330014,250.79751425850515 615.6362919091544,251.0413011765141 616.928277237304,251.04214308189023 618.5575007961576,250.63384646377017 623.1352797008988,248.26059283874727 626.8730635176539,246.47590383810297 630.6406747282722,244.341194528916 631.7780792366071,244.17757428949852 633.3271971509581,244.66272354437086 635.3559685210865,244.25295383333514 637.7029942767454,244.17075098367437 642.6237046317822,244.2200258090238 646.6044879879996,245.42770722287003 654.1068887157389,248.55146123559695 657.0318343287184,249.5973512219331 658.6639939441545,250.32546464228142 660.2041683968216,251.13071788645289 661.746057399448,252.5052439542413 669.58013524994,256.1182964757351 672.5053069594774,257.006476403581 678.3030694951651,258.35997151382134 682.0299034534149,259.81790637254306 685.511846373917,261.51729915324364 686.7321625418124,261.4362545100379 689.1215931908866,261.4974333342858 692.6807637085043,261.74420067847956 698.1034895003,264.01945901039005 703.8137673082251,266.27894601147256 706.8756053154822,267.82570102489285 709.7073451685053,268.0776294832472 711.4826158038125,268.4063562145075 716.291866756163,270.8324703306845 718.3996550695501,272.05388708420634 720.0944273330408,272.7075502374988 722.5984248036749,273.04058580447133 726.1907459811075,273.5987949050684 728.324287833911,273.60414464929926 731.224138144346,275.35466508487855 733.6485146592651,276.19815355458616 735.4653214903021,276.50062116668323 738.1125570808416,276.63192657605487 739.5699077149393,276.8988705247424 742.0361146360175,277.83340396784155 744.057721392996,278.01778023437646 745.5448456444269,277.91297530440943 748.4247745717556,277.3595397153661 750.3398768692683,276.68687493342236 752.8801690978471,275.96015193043155 756.0779179401003,275.37953723222455 759.7794057596993,275.0301571356267 765.0003644832183,274.99760058434833 767.3793128385862,274.86561183345987 770.9489968516845,274.88099113100037 774.5487439515879,274.72442423621067 777.7184428717516,274.76311993615843 780.3770317450733,275.1731787106262 786.0051265790544,276.47611207055286 790.7201346196546,277.74333652701205 795.3838357618872,278.9259164372361 800.2345423773288,280.50536341433485 803.27599079553,281.42689851191136 806.4702430570288,282.0877897419454 810.8783529294824,283.2674452944436 812.9655751876542,284.10224722323926 815.0454597661542,285.36414924708083 817.4962515005225,286.9669529122791 819.1788078376121,288.6874911452475 820.8320420959466,290.6637245961565 821.9759394894038,291.5219207326678 824.1495143363654,292.9291929128806 828.1906412284887,296.0813583428056 829.8125620859959,297.8272460786897 831.8047628543464,299.7798627542083 832.3500867640153,300.03922063409055 832.923378187577,299.80952197029853 833.5250181546929,299.1560484764874 835.7347281236665,296.3347795861763 839.7950151479247,289.1217477407433 840.7772085513377,287.0679976234364 842.4092483465384,285.5324549476511 845.5361786035731,281.86286265422746 847.6254985368984,279.69974235001985 849.0325454349957,278.3622855236399 850.0339067521955,277.71011045850474 852.6559578307124,277.12391400993533 854.4001576479794,277.16021608050255 858.1836897495006,278.43827112545694 867.3294279309877,282.2351188605817 871.0512332731035,283.4292015889754 874.2692484383805,284.3926629428691 878.2824600618449,286.0736655073122 879.8104689672665,287.4573941586552 881.3193150717985,289.0385954341321 882.2266428503486,289.6416143233376 883.3142727356933,289.61933024504697 884.937972530266,288.51677242784245 886.2282059730711,286.7226487574535 887.8061101700027,284.9335375176978 891.5794759249276,283.1550179359901 893.3187823375529,282.5362190649228 895.8834461058751,282.4630517188974 897.8239124513747,282.64635041870383 899.591696329075,283.0530245031724 902.7826644474428,284.4679765454705 905.1720738600524,285.7095274434316 907.6845945152506,286.91716142155053 909.1073028755213,287.8372762719224 911.2809825031233,288.9602313238074 911.9891608101584,288.96198684192836 912.8158738869881,288.3975105374333 913.8823187761964,286.9399415138886 915.2615135649356,284.83063002511244 917.7917129001273,281.5813248930127 919.4045777406747,279.18516438172253 922.3626861468136,275.65144068552036 925.7850237642039,272.5157793573044 927.6425489576609,271.2896116292218 928.9023034747379,271.0352733341006 930.2781148912917,271.18134470566406 932.3299356876884,272.5554503979496 936.5763040798622,277.5909823671477 938.4663384508605,279.19239717761593 941.4241459091106,283.3663592347946 942.137110540109,283.96642381721136 942.9382655699212,284.10974761925377 948.419805905623,283.1120008632167 950.563893964816,283.1166289596317 952.8026217437169,283.34612052088505 954.3790711061105,282.88763862952527 955.7018206750133,282.8037372022448 956.9542707136928,282.8884261292431 958.5081788303347,283.4336644569954 961.2997875602316,284.7498851881576 963.6203271837732,286.1539842162191 965.398819691158,286.5255462082583 967.1425153953021,286.44132404252207 969.6059677542356,286.55888343940893 973.3551581662031,286.9648364260912 975.5785470194373,287.7664747679245 977.3222431749859,288.8576775824519 978.9148004387193,290.2892622645748 980.4591080313893,292.03553723673116 982.118470102676,292.8388378287509 984.2491622492414,293.5574393828114 986.3371104418535,294.0500965084178 987.6002669081325,294.1410806643074 988.9900690910922,294.65808313257713 990.5614305300523,295.92149440906053 993.6321486169428,300.6773687225859 994.9922550699295,302.39556228856225 996.6707942579646,304.11488252513846 998.9442206699653,305.81050979691645 1001.1105809934102,306.96292654741524 1003.053987515869,307.3140646743692 1004.9929736183788,307.1833277375554 1006.9851577317789,307.27776798648125 1008.9611881978261,307.80352033781435 1011.3507587395081,308.6725530628337 1014.9593754584314,310.3221392412753 1017.4088442071715,312.04877439423643 1020.2226089887283,314.2936803730653 1021.9214970468446,315.9062855085512 1022.5808536550805,316.1520547347682 1022.9966641045585,315.59688731230494 1023.5923241844531,312.37309867512806 1023.6603269944537,310.9041097310666 1024.0,308.86664276069956 1023.8409970995496,308.3240552543462 1022.7666092997963,306.54155512626323 1022.9414806930739,305.50986883591895 1023.6884545192296,304.1953341625103 1023.7637376768924,302.41245802133415 1023.3562484393075,298.44004263833335 1022.6075616797158,297.45768357177997 1022.3785300264461,296.01025813862293 1022.7404960660836,294.1552955076826 1022.9715952261178,293.6641413494077 1022.6136733799608,292.7073979489375 1021.734183270539,291.960122460713 1020.396869062361,291.6185754312135 1018.4375804557985,290.63705642593163 1015.044323879498,289.9317036687829 1013.3626993047432,289.0015460409254 1012.3575123360287,289.02566451722936 1011.1756579977388,289.9533728534709 1010.0483866904989,290.10613932768024 1008.5970665300292,289.63782229236045 1006.8719347745944,288.44923324040155 1006.63809042467,287.54590835872335 1006.664989189759,286.0489851163038 1006.4654585838921,285.55785005743724 1005.3751465236446,284.12594384586197 1003.7656871798779,283.20647493472603 985.6346149446613,263.5715786066301 982.9140182427652,258.64417083399553 979.2629776957207,254.0102961519632 978.0668687863241,253.2327458300128 977.5450688317543,252.21593198101186 976.975850724704,250.43677553390913 976.6004486311504,249.7142570241561 975.844466335194,248.9034517539526 975.5165488642128,247.71739320239973 974.0717187290497,245.51208724082974 972.3552073023669,242.64150581577442 971.1580223219365,241.75095399994962 969.4284198595093,239.71957922332717 968.9469696433487,238.57125154564812 968.5425204013598,238.04227737548763 968.2412816120391,236.39283248706954 968.6014721475635,235.3723909706001 968.624353185236,234.44190929991478 968.1002330714043,233.1152750667636 968.4484952492703,230.71266703310894 968.1461910463343,230.13169088000825 965.8700755879286,230.04950483103858 965.0474272502497,229.71743325790158 964.7319053007443,228.789847201855 964.6945044565832,228.0284274197056 965.231153809782,227.27627004630807 965.080500368062,226.41307271814316 962.4527089736654,225.9688302486245 961.1627733203615,226.11492707857522 958.6177273842006,225.7609024718821 955.1431323287875,225.76074640240674 953.3610574411073,225.94721583092632 952.2263822543033,226.29931888565903 951.1919719239668,226.38079582527072 950.5243922600308,227.4547810745016 949.9833748542771,227.70321731597483 948.497012329864,227.70841025977975 947.7470735780989,227.48834834282215 946.951641329475,226.7437900299475 945.7676900308342,226.11578082499148 944.3913541037771,225.7732595374703 942.5964649375985,225.5980989450023 941.1206685942135,225.62831154402144 939.8479626802928,225.36176707951648 938.6643292251568,226.03486524618322 937.8754738529251,226.08829269488245 934.7161883562255,225.76390223162687 934.0297367809608,225.80228326330317 932.1947965285207,227.05994706612768 931.7335812932592,227.04943820872467 929.4633671267584,225.13096593878336 928.3663961019125,225.055599803694 926.7288951482212,225.35645825336334 925.7205919920242,226.19946798269768 925.1255523505755,226.13478245183887 924.4155369378316,225.73593229734826 923.8673334957027,225.131337612869 923.085576034595,224.7725074668181 921.5800486041405,224.8899773702327 920.7998926849812,224.73557678838668 920.0336620305346,223.71710268569504 918.986480139368,223.4736356908868 916.6300737500757,223.60460217478496 914.7403871347115,223.06483862403974 913.61801648456,222.4063150832349 912.8900057686922,220.97496379888807 911.6668838346286,220.53986030627885 910.5818780204504,220.66801345705744 909.5761956795959,220.511612925463 908.5990451791503,218.67060623183082 906.662797218405,217.37629041033725 904.6365445246253,214.98176412540607 903.182120833703,213.68728372829838 902.0419149033781,211.90254231298644 900.9092614748804,209.79684201525524 900.746914931538,207.20265094195176 899.9412284786108,204.93407891655397 899.1324397486637,203.63524673393437 898.7271203532763,198.65242074280536 899.2105140230115,197.51566165882375 899.0502037786388,195.2463756025191 900.1850100815668,192.16990376711337 900.1857340082304,190.87270428431086 899.695966196494,189.7355119281682 897.2700644864703,187.1407210478704 895.5661466338802,183.77581401696736 894.9238644320726,182.8041833221526 894.9203079944631,182.31580044179648 895.5749339270259,179.40031288407292 894.4353278613037,176.15525264674952 894.2724919893624,174.85974779043792 896.7024307013583,171.13363776260667 897.5165532979929,170.486915514224 900.4214980381721,168.70622533637388 901.1570564850927,167.1236902617982 900.8340022154694,166.3137480319641 899.8609001766207,164.85671620010322 898.2401678516519,163.06937920601146 897.1059002158828,161.93437004578288 897.7510157961324,159.1798449487143 897.7596722954522,157.55916088820197 896.1325556138898,154.80004790645268 895.9728244323845,153.98938841404674 896.3037039937967,153.01823707036155 897.7578915651876,151.72199841298345 898.0791756110732,150.9113473713075 897.9139243798026,149.29244492144167 897.5929282194628,148.80335461317085 897.8346349148984,146.90055591732795 898.3230536206069,145.11690230764268 900.7529410740566,141.55299218114257 900.9129333959814,141.06743809773175 900.0971490300936,140.09412057640014 900.1045017607147,138.3104599937463 898.9647044060657,136.3642101882983 899.1325809850732,135.55467839259356 900.7167282109302,133.95926299329034 900.9898706689278,133.48805117905889 900.9936745580587,132.67618667895778 900.6696000543327,131.7032749825109 899.6928011870234,131.05507258524133 898.4054102189908,129.91819756863345 896.7850154575485,127.97190598764942 896.6241370962391,126.99777209349102 896.6248944173515,125.70206860377513 896.9476765774027,125.05538949297971 897.7500406922844,124.24523789405268 897.2656560893546,123.75735083900341 894.1904362858294,122.94275763230655 892.0887783880611,122.2925046645156 890.4746839292253,121.15377176201733 889.5014670908089,119.53410066424661 887.4044256087982,118.06825977756105 885.133435576363,118.06629718036854 884.4948226564483,117.4159198889526 884.0071782969657,116.44408093568026 883.0353550145715,114.98118910194327 880.2894679480562,112.86829405205529 879.4813263027801,111.40772978443152 878.023365651911,109.13279624380186 877.2157861852945,107.67219582347161 877.3759436954139,105.7285511593941 876.7273758954217,103.61949099187103 875.9160640243838,101.67149553904477 876.182411732831,98.81405248668761 876.1899753528596,96.95498342587643 875.6573653394234,95.3800794127996 874.4328617229999,94.22855433782416 872.6613438877554,93.84808279718663 869.6966188702215,93.8573769697083 865.6798235180576,94.00474518005836 864.4082803304411,93.45358382024244 863.2673283083915,92.53001499692789 862.4401689936342,91.1827083097773 861.8876404037534,88.03679235845016 861.4095685395465,86.86173779350827 860.2423329570672,85.05104298623382 860.276659511492,84.10890964750593 860.8826952508332,82.99946707401978 861.6875491011858,81.1173410036526 861.8924830835653,79.65780644663931 861.4676933050839,78.82807937525115 860.6380276937687,78.53553608134746 859.5854906531237,78.56080012232718 854.2970689384227,81.01769161098076 852.6348565962905,81.55598895691281 849.6196830933749,78.43008336340262 847.4831433961795,70.49571912138498 843.4108236829652,64.88717082920988 840.4502627153703,62.04891565160807 829.5210366597811,70.95439630293475 823.4424456979758,74.60141605025507 816.5573101854145,73.39879368782931 799.5352172365862,75.85562964186994 791.8357500700771,80.73021507433964 787.3832216632559,79.5217422866508 785.3616399216493,70.21396582729705 780.6042410476957,67.17393368922899 774.7778422103828,66.71706991698977 769.779193588471,68.34566413568632 766.4049353840576,69.97287050523954 761.5198918098611,71.94527972966034 757.5618075930927,71.2446316071838 752.5510649999586,70.4828329807649 751.868660109961,70.97339956358508 748.1413531334359,71.49220668726093 746.6305032638238,71.7972226171031 745.5392524466284,72.30728557711922 744.5716197760655,73.01364008290085 743.4880021808838,72.94919921204371 742.0037820851657,72.33791755529506 740.5616224499738,72.04272164446417 738.5697866618611,72.20034740736901 736.651603663228,72.87076267685211 734.8869936713027,73.65988049650798 732.7458266317398,74.81444731601931 731.2856889503876,75.11880624856684 730.0384326768176,74.99709593383608 727.9919597132267,74.29671766152791 725.6273174595435,73.39059548419698 719.5117719119411,72.20112356339024 717.2111719457263,71.84348820192002 716.1803345424582,72.23629986591203 714.9469621550465,72.99782899971615 713.6403415977361,73.30463665416084 712.4953883206115,73.18160734804064 712.0140874006803,72.921842553842 711.7969171936244,72.29007150831313 711.8539263083412,71.23210541681692 712.235409543781,69.48912964362393 714.1506977376519,68.04578334963048 714.9444417967073,67.19542691558524 715.1242427351132,66.16986285904926 714.64326433055,65.9789502447997 712.6732961333147,56.107682112674354 702.1871429760159,52.03029356819093 695.320135298055,51.20882450262485 691.2825173553571,50.39476671422324 686.4701595472409,50.000607948480535 679.9519478762719,52.61386679679879 671.8528185363449,53.02528476827257 665.7843089626764,49.3886540144681 662.9414530635606,44.94212082088001 660.1061942550748,39.28230507073653 657.676101075436,32.40501332363431 647.1413198845215,29.590344991998165 640.0412724573724,32.02469270591848 615.5280009911787,33.26996230463595 600.160729234107,38.92793361329632 591.2759086163317,44.98203203713069 584.0024770862026,43.75417043768948 578.3537173073313,42.930444812336475 570.6845840015625,43.32231685805982 558.1529454661604,42.896950377914266 542.376568109061,45.319872192755554 526.1668914891717,42.509938510958705 518.8543180095456,41.31367644711918 514.3506656008085,40.919051583820476 511.64418341898363,39.861831736193494 510.2042763035554,39.7279278489321 508.4583927526599,39.731671112030256 507.28390273939834,39.593612632933855 505.5682937849933,38.19894543235387 504.22032422041195,37.606361999376304 503.70960106501644,37.23945726688959 502.1984217115899,36.95249924889612 500.53379653627263,37.177649153169 499.21660381061,37.66796294103335 494.2226977501831,40.28684882982162 493.2421689839142,40.69002351438553 491.82257992795417,41.60524559786904 491.2916974439178,39.84344753673656 490.64874206167974,38.71675385224427 490.09777499471875,37.28186876580344 488.13756738111726,35.210446288549804 487.4641408809472,33.47387014164639 485.2287702579584,30.76306827540668 484.2492436668789,29.908959484384297 483.30022309329564,28.659083962360626 483.23881748868877,28.29214794359683 483.82108092552465,27.52969085656116 484.49543213543046,26.091633496631175 484.71030486222435,25.02386475834578 484.28150825801606,24.47511483243545 482.72031951001463,23.25790057615751 480.668335624175,22.89369757670505 480.3007515131212,23.231606715953433 478.52267237879926,26.503170704345962 477.8590391581218,26.62634317717408 472.807347762919,23.42724128944849 469.54111860591763,22.455605189312735 467.8566055614369,22.21462398060538 464.93560488725126,24.428250957925684 462.31097796254187,25.407091751898122 460.29958206887085,25.652474812921298 459.38048528613655,26.200323102705 457.30560447814645,28.642972894505533 455.66126904746767,29.193667363641623 453.8234123589889,29.191989918411537 451.81978769533356,31.816682320802784 451.4505638466148,33.5850981760716 451.5611006777704,35.496189563275095 451.4688052381017,35.921212541478155 450.79397567364634,36.810757379564734 449.332101751462,38.33514588229002 447.37852784982954,41.18492522366279 447.49970955790263,42.60563546502135 447.4058897172471,44.44060365149488 447.04566099314405,47.187255539953355 446.0629827187485,49.13716646620867 446.01899977954196,51.86997648131603 445.68075881029995,53.15253576708301 445.1379825045596,54.58720100781591 444.6453393570227,56.66211154944597 443.981480978175,56.577367016089056 441.5806404699956,56.80389721134918 440.5798942714868,56.3447229881873 439.64036277376954,56.20190555521759 438.97596931974255,56.571561447260876 438.4950235299469,57.25419236679642 437.20615008147496,58.51022850077493 436.7564477594331,58.797124683027334 435.4088390846893,58.10816328691607 434.46944013492305,57.8488555769124 432.35513872776136,57.61379055887903 430.04553031366225,58.26857582715735 428.8089429919452,58.350365806615116 428.5336184507376,58.037220108980875 426.1245380088642,56.77262298295483 425.4502360159962,56.82984191648171 424.41742339494044,57.62793708705914 423.1600289915487,58.19692469515343 422.6188111621488,58.16675516882549 419.9033589293219,56.87610670183574 418.9641012866612,56.587678060788335 418.1061429689603,56.52811338397515 416.5120240808596,56.69609147563426 415.42002202287415,56.2362942084722 415.1664957715751,55.20750940656956 415.1593600312762,53.31777298889784 414.87663624262007,51.34407444918202 414.94008789088895,49.94130821869118 414.3112958049015,47.37136482348808 413.4240084147862,46.54140985925642 411.26098908210105,45.12066953983418 409.5284661395611,42.99916222229416 403.87631483854966,34.49116280938597 398.2115675802005,33.27425742033472 391.33131361733604,32.46109655309414 385.9185749554877,32.870489658727365 381.2893061540957,30.208145477667927 377.1302291043309,27.303584987166914 372.7066115700849,28.433632271328804 370.26870452315455,27.628463729596035 365.4116854355122,26.420687837687524 361.3513292519663,25.2186481204717 356.08106645816565,26.039868857992587 352.4414054368603,24.231499871121684 351.7140930977271,25.16317678006442 351.02874263534943,25.60455700065188 349.079420061973,28.853131885643506 348.5582141606856,29.109725629899117 347.34516106135027,28.343492779803626 345.4002894005337,26.532503039642165 344.2604550531493,25.32661717518971 344.06042417819583,24.069378972838138 343.57111607077275,23.809800297350932 343.0265512248706,24.868939784168333 342.5175791898451,24.475176382053633 342.113705408919,22.955660093807467 341.7161882233627,22.72569612924127 339.6250164365951,22.214207313792087 337.64901380686706,20.675615141741275 336.2441588682313,19.47277246032678 335.53080476279393,19.161802984106544 334.0616823475058,18.844371392819482 332.9201361343706,18.303242940954817 332.00179068840606,18.104427398853034 327.73301686357513,15.61717031335479 322.53392422224624,13.58796617040673 320.70769105663265,13.331193960272401 319.33134904228257,12.81426533599739 318.38522241931906,11.928334514031292 318.67569157759084,10.58210125316981 318.55492581263445,10.18236594619151 315.7014841060024,8.836240965055481 313.3612308578227,6.889030179766735 311.35534753147147,5.596304385794156 310.1838715403837,4.967518592794875 308.97111209603185,4.5420092533785805 306.1467700487957,3.787103268183671 303.6833169530205,4.878160707503923 301.68572161266985,6.762427300195782 299.97139798619423,9.377510705088696 298.5681315827952,10.715318177864617 298.25908177355575,11.429757968808758 297.3150359256635,12.744506364867789 296.54394433541,14.172267722138201 294.983707939996,16.37025556573667 294.66818370445685,18.71177714231004 294.7199413111962,21.08713036491764 294.38441416543463,23.403263904200003 293.38540844196086,25.571018543428636 293.35203735345925,26.228822035700773 293.75151186198553,28.518494817822955 293.616905178115,29.063037420340322 292.7039032781474,30.090865988781957 291.6180653463786,30.943891346318196 290.9611335608566,31.827964264389493 291.9006844732103,34.34552487325749 291.5925420292246,34.77651062945682 290.70221217526336,35.34333576441662 289.56631419972297,35.854500390790065 288.7982486478538,36.400023067451286 288.1931899350776,37.1137147671202 288.2475997971595,38.77041058907332 288.0206950751282,39.28521149839116 286.6886480336293,40.39525378709652 286.25751846173193,40.993228280523 285.9939705776764,42.9360936290513 285.05383283293463,45.59181487294336 284.51928602135814,46.47985402008953 283.8938087613722,47.01880839196514 282.29649411248056,48.015294006934994 281.2117918914185,48.468801348694285 279.18674250546326,49.09243476581531 278.27579201694954,49.48841248327358 277.2752949910665,49.429513830602275 276.9350348752021,47.71288282852544 277.0219930600577,46.56844600764032 276.8738734931112,45.31065372347871 276.44770775292443,44.70910492360031 275.1996142861542,45.19114692120951 274.11774004254926,44.98658629434999 273.40421386431615,44.612533076122304 271.9499210886714,43.26201362850787 270.09625743297005,42.05495531900567 268.5564962614309,41.50664865941809 267.6423459582562,40.42004471950918 266.7302300697217,38.784307188963794 266.0194388471034,37.92733767790895 264.250548398232,36.091860126840515 261.59373108280454,34.25279630856221 258.45941271706215,31.927556888393838 257.7465700021613,31.46674497558348 256.0006887815888,29.20291653323369 254.94838452243798,27.14522365112589 253.6597263119843,25.48318794823092 253.14274916650257,24.652251308343068 252.9219453181427,23.906720735729493 252.66478495175656,22.078444055782597 252.20858609970236,21.418849260081345 251.3481934429317,17.69940111187975 250.83476422657415,16.24036822919885 251.21167539764383,14.24098784471164 251.45959154847708,13.581180814621177 251.40705746895927,11.780179228131885 250.9155129528017,9.95077183497898 249.66223912977463,7.344884028223703 248.9223459963778,6.288621398976716 248.3769797873373,5.112827557977937 248.4293174813465,4.79726315627687 247.15344360665173,2.7686767234897616 245.6374985935073,1.8209669426359483 244.50298624395555,0.0 242.54613194133586,1.6282047665140453 241.3962123912769,3.038145864619139 240.93277556476315,3.8132503837352374 240.32083063937654,3.7884557546812516 238.26546082705687,4.558654877467404 236.49348536886038,5.8752907831059815 234.63795990091364,7.474365552690983 233.43414006566366,9.33481672612237 232.40704547813564,10.622206557599839 230.23067731881946,12.996889336931304 228.8540114347575,14.773346722986389 227.20097126169136,16.60198107740024 224.81658326799817,19.60801362402441 223.6735340263631,21.49792404898568 222.67720097837568,22.69824118815609 221.93095524147677,22.814242432509275 220.41070235817432,22.646738275257064 219.57902379145284,23.560906629019257 217.11719290830982,25.65467065835759 215.45418709989372,27.374587250508284 213.26966536999677,29.09920090953466 212.35962301826396,29.377652192840344 208.56858596891632,31.700093549222345 206.93868152976862,36.51941240928443 209.06587982327562,41.45778714720183 208.12479800983382,45.438759370315495 204.0977451948896,47.76364208582436 199.54448806552185,47.316247042166594 194.8175541012851,45.130952811670795 191.96816567435178,43.35153151914682 188.85827767063347,40.768207187334326 185.70425324766597,40.39669630822135 183.20909788666583,39.29559252403874 181.75918492118424,37.53919419212116 181.27412543797934,36.682424574910726 180.45899089556704,36.33938865300911 179.81448729559776,34.860619101876125 179.81114953258202,33.72333286259271 180.2960329239025,32.91243061807961 180.13967614904652,31.778262720112195 179.32252037046703,31.780372943733482 170.73158244765747,32.31238831554765 164.9044805304119,33.28533307693556 160.3737343818294,34.41533305788499 158.0989693618533,35.55610713366411 154.37720695461894,37.82053945062137 152.10756167415929,38.143692633624255 150.16748634981306,38.14147120659436 147.91133472465177,37.97409198246419 146.77562941932732,38.29699421858936 146.29017992950733,39.107601138916266 146.29065746037114,40.56476518837218 146.77115524661414,42.025148628554575 147.58150123592333,43.00083279968101 147.74855749507782,43.97220753904196 147.10074954673584,47.7036430361274 147.10016362902306,49.324276479142554 148.39074830205445,50.29961189981282 149.84786315675692,52.41026140786238 150.65308524357124,54.192628527711065 150.82174475005402,55.00406104769257 151.6253185389478,55.49323579385731 152.92471819239722,56.791928138101525 153.33559845004743,57.96480223265269 153.32053211893944,58.69555446892872 152.80387417187433,61.185857169641565 153.11485914754786,62.012893146803776 154.8312956448031,63.58707364372742 155.51722867399792,64.96215068895145 156.43053231970282,67.48001540582663 156.9147586258925,68.4503739309302 157.7457616674282,69.56823484134304 158.22381515924647,69.91296720691008 158.57524750242402,70.85714235835803 158.48775033518513,73.3431746376163 158.695314991291,74.38055621258627 158.2624571861518,74.97802254612566 158.42165249017896,75.62588103124699 159.71039444526167,77.0888033623321 160.3215779148986,77.3619954403548 160.5999249494473,78.57797788648645 160.63236743594703,81.52028781345405 160.28321246793035,81.73213493635586 159.39431560281346,81.73046218603622 158.26152521947284,81.40277201220465 156.87748538359332,80.51061526029565 155.51147561691602,79.94144691431427 154.45874669014873,79.94165958086165 153.48561338354088,80.26275143313234 152.27068347941517,81.64004000750083 150.81171060013756,84.3326320302607 149.92399689303272,85.62851920802592 149.1168604214196,87.08891206000732 148.79070007217103,88.46492947170628 148.79128483776705,89.92358932805234 148.2285827756637,91.54552769603623 147.82765900063973,93.41249006331378 147.13006399998676,93.7565634216125 142.14727071793413,94.34918253853385 136.35715706290796,94.84419081009287 131.80244503927577,94.14360302733633 128.26810041856615,92.25633963478742 125.53531331432676,89.77120035796275 122.75256350689358,90.07131568643103 118.19874220222054,89.26073613903122 113.14264442493356,87.29615264206507 107.60974581847235,84.88821609168821 103.6384771669116,84.17837316207056 100.61989585566178,80.54082017764597 95.76884415207837,69.28327795674676 93.29721906159173,63.7746629773722 89.5761130866849,60.04140041520367 86.66480606641898,56.056568549870235 84.85357406645618,52.51297661227221 83.07739759318754,51.059995176011284 81.70208687617428,49.260882630340234 81.3754441677253,47.96811073973504 80.81754461609978,47.48030791524758 73.99688462171602,43.27878044537658 72.69983740389097,43.282974430976594 70.09472848837503,44.588458446726975 67.82673196178953,44.595248099061564 59.21931919974373,39.26203777247872 55.92791849866906,38.33347723024053 52.25713389992138,37.648499312407125 50.92030784438024,37.51718007122588 49.29438545949702,36.55122323046743 47.344317728636085,35.258994579284206 45.720434207569134,35.263262228995984 44.74264634040019,34.94253083231172 44.74639946622103,33.31827228660467 45.072458146222885,31.0463678443071 43.77663721199293,29.753053240629583 43.12313704222116,29.754483504212146 42.149275097553094,27.81298012493471 42.14566261482353,25.86571528669981 41.4999013258708,22.623147650123997 40.19694289791913,21.006226238777174 38.90104649714726,19.712774531692446 38.160001391488336,19.23402842042958" /><circle cx="263.0819664365515" cy="204.42303364332292" fill="rgb(100%,100%,100%)" r="16" stroke="grey" stroke-width="8" /></svg>