<?xml version="1.0" encoding="utf-8" ?>
<svg baseProfile="full" height="1024" version="1.1" width="1024" xmlns="http://www.w3.org/2000/svg" xmlns:ev="http://www.w3.org/2001/xml-events" xmlns:xlink="http://www.w3.org/1999/xlink"><defs /><polygon fill="black" points="384.19288844416866,66.37868323523242 373.53095710017584,72.99724873493494 368.8713187680258,78.21266490371818 366.58905767799916,83.33909681403986 363.64435521530953,82.08218490488241 356.4983967146572,74.28905306348122 353.6670827022233,67.38418104683342 353.91570152953204,58.189923273787485 356.47717459352316,39.267867196231805 355.421085585005,30.9415690120328 356.93559359681683,25.82226401808498 353.88379077070886,22.533835035797892 340.90782677766657,20.96953289662224 332.93554626686387,14.532686824259372 324.057993284435,12.230215338846847 317.66072067652715,18.57730777825998 316.70561897162975,20.226313962400127 316.0276984590882,25.38871602636914 313.8576633911421,26.958247903008782 302.8638275732869,29.87655759082452 297.89661682176035,29.955590962215297 283.50302223190914,24.83444528543123 281.1058276145237,29.060092288577152 273.09235675441454,45.08133924414142 269.918995988173,61.55605509612701 269.37393676418793,62.032128632145486 253.22846404712462,64.20791159141993 248.76029852488176,78.06763658331863 247.4619339294851,83.506440414547 238.72132737260836,91.96458141317362 237.95428673417538,92.36416701855796 224.02314929104494,95.33441459808012 217.11879355265808,94.55490868391382 205.34657467388297,102.9186252741755 194.4670667829449,117.97506212623921 192.01706695071792,144.01579197110448 192.01531288983404,149.7044582521204 186.52258116810236,148.18938158298124 180.31347587532375,148.34884626919745 168.18467557820665,147.24266043671105 159.78585037461917,143.16927746135877 156.56486041495324,140.04246642274438 153.50840367828602,141.20271104992014 147.4941112311534,152.34980838364856 140.87703443437766,157.00032573340195 136.10895458630716,155.72259323025253 131.06996504230807,149.94660073172975 125.74497525749018,145.681753927743 115.54212174900411,144.4969742374576 109.02752174947719,147.70477616180256 102.6043882260329,153.92862542688 91.7672874919467,155.16421658017055 80.85769033367421,151.0430984168072 75.02782912943498,145.3610875881509 69.9378538323504,148.84530235746774 66.41492761341712,149.31566338204425 65.70782748120409,158.88515826118498 63.10059055111541,165.17794706655616 63.31958919927191,169.25505969349058 61.11679593267473,171.74467575639062 60.56645455698727,174.97336965469128 61.84988794321586,185.1246861274965 60.06827155152721,190.42381267986002 55.424430439477504,198.53688672490057 55.29700698085994,201.66884205155066 64.42095558938793,203.70830314665432 65.4330367017569,204.70117677016344 69.6177842633184,233.0700372170694 75.19209975056158,239.72096450084655 76.72938874957538,245.36442459864634 82.3212957527328,248.4115401009734 84.49038523021096,251.85481624389683 86.76326391548047,260.5232470673026 89.26693066551377,266.3721652078849 90.96459144237583,268.44648631641587 93.1165859273831,281.3223591939519 91.17355780254192,280.50816751998775 82.84856718745634,279.9525346594413 73.66521478231682,280.394891311813 67.98591655916219,276.7926702820354 65.80530233112411,276.3963024914625 57.0265963345697,280.2744635717121 45.04530925777446,282.7421279019238 41.040967346548584,285.81450426992967 42.064975324978136,291.53993117455764 46.12059576366021,299.15434953821307 46.72501204032163,301.4723951786922 46.673335148554365,306.82237905111094 42.168271156243094,317.1869201645778 41.15449174836656,325.87843746744636 39.69333432473184,334.62773297146975 38.83502986090021,342.1022003229622 39.126469830996875,345.3071239018236 37.46700414491231,350.6077481682214 35.58136185969641,354.5328129890736 29.188917658147453,358.4590832600602 0.13879124440388516,373.7075097105959 0.0,374.0037241091637 3.696136032754642,397.43020651961274 16.127425371848968,481.03874063010517 17.025001864663015,484.0134556255749 20.512440712519087,487.7439228464634 26.307769290843762,499.46215993501096 30.699399804710236,532.2497289609474 32.31060447097714,534.3903101795386 37.4981326773827,538.2221175945017 41.23250983354111,544.8891035905344 44.00916885380406,551.0770157353347 47.12109303426255,561.5900696443623 48.477175150105666,569.6591297880337 49.29384496169491,580.5799979809321 50.03173116316601,598.1377652279282 54.706650717040496,607.6604981365897 58.896863709952214,614.8070919882105 65.42991008213906,626.7220102902454 71.06361898197365,635.3064863919088 81.3715020461463,649.1417726596404 84.6313344856809,656.7641602000555 85.5049489270782,663.8821492555342 84.44036900337414,672.8827788675211 82.47152720244182,679.5171322094216 73.69738496687704,695.573443500864 69.3188332708641,703.1224168681522 69.22687425077939,711.6624876414138 72.47619838907934,719.7651373491251 77.11311888110815,729.7494688564742 80.33122644388315,740.2085123125528 81.6064326956322,753.9835614171766 82.43354193388213,765.3819190417767 84.68454314150611,774.8864499095152 91.20454356517236,789.16526885592 92.02278831517111,801.51109642551 90.46439475742811,811.4514567070961 87.46204080954314,823.2880435885979 83.08086316382641,830.8433365760054 78.2524521973915,836.9753359097241 72.42369501222228,847.8392712812828 54.552980985372685,868.0947275745054 43.4584536291616,879.398339274217 36.68266437925437,887.882910900638 30.89932553326094,893.0565473514724 24.63274625052304,899.6513487938718 20.74289887757953,905.787585380943 19.179945695459516,917.6320248170226 22.918361213566737,923.8258721354786 27.649015868760387,926.2395328568084 32.84322153915726,931.5032074578933 35.63562259028223,938.6363453528224 36.94715418560996,947.6576222082597 40.58104120689185,963.3467914990711 44.26737945726478,973.7999842500467 54.21063385509865,980.0448210091149 60.796515259011336,986.7450646418273 66.47200624093159,991.0540539506866 74.52405766704074,995.3921257082543 81.62880268615952,998.7584608339874 89.67992609982859,1003.1063220664297 95.79989022360232,1009.7954162831664 102.41962835167058,1014.1172474557536 111.92443459116524,1016.0983266804648 125.24558129713438,1016.687020144146 142.29688481648373,1023.4896844481202 146.57490917570271,1024.0 159.1988496927838,1001.8260467915557 166.53831497443895,984.8234731446803 168.54469380234545,975.3519427895787 172.0134772241592,963.0606821267066 172.09298428986776,955.9437587409924 173.17422853672434,944.55953613504 176.63489047175125,932.2682578295066 182.4307324640279,925.687580538163 191.04790970907206,920.5657853522885 207.283523293045,913.1570842811227 223.99627359913563,905.2807933804382 230.6862943395065,900.6218306891574 245.06937959218993,889.4037688666729 252.79846542604798,877.1761620023669 262.9165698684721,862.5960078879621 265.3920186070309,854.5619718450953 266.4534927308732,844.616803749645 264.6725183946349,834.6247960027044 261.92339256930046,825.1084847517227 259.1590368375115,817.9505639188392 258.8263968097169,805.6160796431736 260.80717038022095,798.0507181205079 263.719963185896,792.8772832989464 267.0716002360756,788.6489606043101 275.64140251364444,786.8582755739715 283.68628927332225,787.4437647553307 292.7257375615801,787.0767800376161 299.36202652783413,785.2727903346768 307.9447458524149,781.5918240192459 311.2844207310197,779.7396970107168 309.48099853773937,771.1736004926116 309.63775046629416,756.942876194187 308.3632448093186,743.6563352740131 308.51881201402335,730.8384490932422 316.31683670686175,712.4520834725555 323.94333689787504,708.2737008489216 334.3992675250812,706.0482380478029 347.2371504303355,701.9488400002954 364.79918199707697,701.2369015122235 385.1271908222594,706.2462821429683 401.7453404495405,703.1356911902419 414.60730038389926,699.4967928439048 429.00570197741666,684.4981011375298 432.8769243945003,679.3355561357532 437.2081395254903,671.7970841503634 438.2493729836925,665.1687323912778 435.013715316924,657.062464378256 429.49322555003215,642.2829422818902 429.15642423523775,629.9499546444679 432.54859740370205,623.3550522978668 442.1841844959257,610.6598981888669 450.84193885227603,601.7469253983138 458.4903441675391,596.6107497636831 468.0149585382073,593.8690020481691 476.07244791182507,595.3913244939542 481.25705922973447,599.2329794419427 486.92789981178237,602.6177517422067 497.8533838377332,603.2056522691948 504.5315080880312,601.3747057965353 510.2761360521191,597.6449262065839 516.9539933660672,594.8598399837183 525.0422240876727,594.4700929817548 534.0879614115222,594.5464272947361 551.7192549879217,592.3468958695034 558.8476243988223,592.4121600664007 565.9401269510703,596.7500060144623 573.5183565161706,600.6099539172578 582.987734039976,604.4818912435942 590.6206572061897,602.6590895266329 594.0297340306912,595.098599533813 596.9588787553653,589.90241610766 597.094960041653,577.0934637195766 598.1107379595659,571.4097622621289 602.0199510603204,564.8047147225541 604.4642348394002,558.1868878897837 606.9264275250425,550.141130945871 608.0211179068335,537.8125859091808 607.1610158584383,529.2676812733189 604.8903076783441,519.2835369145006 602.1308328236172,511.2047146003073 601.7699486058586,501.23214210195374 604.7459469420257,490.81289297167723 608.6947295542003,478.9952249898532 608.3041350892574,470.93073608884197 601.7163374629089,464.70136962679044 594.105881141337,463.6840373418372 585.5804619308747,460.2939925991112 579.9524565551903,452.65361067126787 579.6010788105524,441.72917697242747 577.8695204223185,425.59321577005255 570.3624034823603,417.9340154351428 562.3212018710774,412.6359045988712 554.2563171840362,411.14050392031993 544.3313939097579,404.4141002537053 529.3647357843008,394.86007987684206 524.753891395834,393.61687647002714 525.1843014999279,388.51870704158796 524.2840071990927,379.2317937015695 520.9659786195515,377.1404931144681 519.1859041026873,371.3494045442825 525.8683222599325,362.89057608995824 528.9477727509237,354.1502407061299 531.4896261052098,350.22684469387127 534.7222220636766,347.8676035156476 542.7441563245243,347.42806119402997 549.6548266352742,348.7450009724839 552.8619560268663,344.14748667491597 555.5154086352054,334.8486155956888 555.7190335764737,330.4460044602422 557.7655614933409,324.91054374581336 562.1407631062921,321.40563887810094 565.8540613899056,321.3984135304031 575.1476318304716,322.7638981968636 580.4849205233934,325.61258725793414 591.1912496097281,329.15726812572154 597.1747265403163,327.0949091568417 602.768369677994,323.5116711485813 610.8600617269387,320.60374696215774 614.454786847593,316.33204478526216 616.4254143601672,312.08635817392997 617.3398730516047,305.69272257216414 620.0195219972419,298.39068299547444 626.7042352905428,289.6878144320252 629.8959232373822,289.7710919329377 645.4791966542326,292.86362163836657 644.1530984873804,280.56107428871394 642.3100243807128,277.8052250973815 636.1614606969013,274.61135940720385 636.4727339315234,269.50897845278325 640.9104451896042,264.96630863649887 643.7921792851968,260.1236002919467 649.4095676277095,244.8674160146776 651.2495628363498,238.24474634422472 652.3722018762876,229.43809246262117 657.1298152343423,221.87157437270514 653.8960268019044,216.6111493435834 650.2962050146368,208.02957178757435 645.7471259250052,188.37660610757655 650.3054082268924,175.7723914098142 649.4626005353648,159.47672355800057 652.6617633531303,152.19795645992951 653.9288818093468,145.78187944506772 649.2837025225133,140.80822754116696 650.7304921263898,132.8200520265077 662.9617392519135,125.06610918026593 664.4173118839514,120.00310885002386 665.8778094558729,118.48206915582637 668.4614232199918,111.98787537221403 670.383642786699,101.6119711923277 669.3310883041536,95.73181463576111 669.6139513944163,92.27466613314562 679.8384774921191,85.73775107552433 680.2077843695124,85.0614989385499 679.41842104011,74.83494430478095 678.0767173020188,69.236226418157 675.5344177061668,67.95448147263664 663.5426943258576,64.99537255239522 662.2946155952202,52.237959653801454 660.0432013590087,44.38283495947667 656.543315488533,38.122795666249544 656.154856660983,28.638650265873366 640.4722922160014,12.57201975344367 638.134653040737,3.5371862670017435 635.5843304760757,0.0 627.9990387004134,2.8434215487994834 624.1853546860615,4.94822081808843 624.6864275919902,10.451313364709108 625.272106036942,45.92763475165623 622.0252764033112,50.57952651151015 620.5835082309787,54.63846280171981 616.3358257450357,58.281200373574165 618.1439564170582,71.35985618805103 611.7811269771141,84.88521297939667 608.51534060415,88.94340898500957 603.6570905517557,92.5883883419391 600.2195919164046,87.28817361710344 595.7790965305437,81.86429854483686 582.9379292028779,82.74368029513369 575.4776287277026,80.05605882861687 570.049802437319,79.10678834268538 563.0607086301917,79.29492549117447 557.6204300989502,80.71445997932676 556.1154034891673,82.50661315631203 550.5551045298782,81.76233143523018 540.1348510548393,84.70264274155534 526.9682212652237,85.40306067823087 522.8484905663245,91.37873224348652 516.0126678977572,95.6314126276526 512.3713130491255,94.26902677280225 507.2924731195235,93.60456298871475 500.2966759206733,96.75521189884046 490.1728035088251,106.46826257192868 478.6581266089843,112.63848721232068 473.2308789338095,108.34535839298258 468.9345531636775,95.3957558607533 468.27406518566767,90.30965729648915 459.88655887452705,89.12422124759144 447.58840128453227,89.36499432150049 448.86839137045075,94.00611041841273 448.170762684005,99.79849418559309 441.1341206104593,104.39593365399514 432.55094661122564,106.01855462616584 428.0111835035101,104.93561151393249 423.75273186946066,95.36693776853747 418.50316821616735,92.74038930307779 413.64263456253684,91.06575796336483 401.31790715830357,87.95482844881042 391.9879298656428,85.19671617368476 387.5402566666356,79.81216503211829 383.65255680725056,77.34978379461359 385.75182422061533,71.98474277113553 385.82173794298336,65.55571543015174 384.19288844416866,66.37868323523242" /><circle cx="338.0655692910596" cy="369.11936951709185" fill="rgb(100%,100%,100%)" r="16" stroke="grey" stroke-width="8" /></svg>