<?xml version="1.0" encoding="utf-8" ?>
<svg baseProfile="full" height="1024" version="1.1" width="1024" xmlns="http://www.w3.org/2000/svg" xmlns:ev="http://www.w3.org/2001/xml-events" xmlns:xlink="http://www.w3.org/1999/xlink"><defs /><polygon fill="black" points="304.0440481671883,1024.0 307.5998107358619,1021.2830041226756 313.1833957713174,1018.7535852729198 317.1811178374684,1012.2740233899724 319.5233716020986,1008.0520448895505 323.8987489519425,998.3137834678605 325.5952056020283,992.4507288475655 328.64270301394464,984.9787609443506 330.346336070144,978.4579248085589 331.385799094283,973.2450899372242 332.12150232913854,967.3757642418593 332.5168754257911,962.1440736036484 330.60114636791775,957.5393074009734 324.8006992752247,951.5631248034906 320.26951198449126,948.5506515125401 315.41343006694154,944.8816165085746 310.8712425721333,941.8689134397318 308.6490432055261,936.926939672484 309.97594470109783,934.6620330811137 315.2553041332445,931.1492347197644 320.1802921066871,928.6034809506269 330.37384842968925,923.8496709821221 332.69555994242467,920.9428870579083 332.080563424504,917.9878669026749 327.95052880213694,908.4427670002783 327.05599063111373,902.8709041612066 330.00476594982064,901.2770556461724 334.282337071387,898.3952701792692 338.8773903783071,896.8360295002151 343.1436651665076,895.91570359165 347.74092849614095,893.698491279522 348.1106083537182,890.1032020753993 345.5827405869674,882.8746006659958 343.4000322998861,874.6587263953393 344.1957432224408,871.3598841328067 345.8806477967205,869.4227375785803 348.45669224143614,869.3194788990797 353.5318401722868,871.3016650029692 355.9339443024928,871.9280288694972 358.57107756115454,871.6089202991852 363.8719132171798,869.1742719356519 365.33634511913675,866.5801336515702 364.44031895253903,864.540899449591 362.5860738551809,862.1975132796891 359.1575118876141,859.1216526184205 352.7769472198782,858.0809434575508 350.49236846411947,855.5437339906499 348.6477809577844,850.2340870957399 347.06302149321016,842.2840059241194 345.41069705193814,836.9435714737781 345.84177344361575,835.4124158452983 351.23154157801923,830.8934365252725 356.80693772744723,829.4551162947832 361.82518183695345,827.7906556462863 365.6602353463234,825.1993931378995 368.29018551519795,822.1808481570891 369.6570791286488,819.0648927072091 370.1357620325093,814.2278329187945 370.0358988706383,811.5403839664551 370.6909765242449,804.5069011166904 371.3111995064168,801.476838771659 370.51327486749,800.4530153528041 364.2251175052245,797.3908157708765 359.5757092000403,796.353126388174 356.64871787106244,795.329547511598 353.5647213151312,792.3862462314696 352.1392236504356,788.9752281212858 351.63459550497066,786.1039677981286 349.16450905334904,782.440424080084 347.2427645750489,782.1401450055419 343.65448678799316,782.7711303893767 335.4387409482363,782.6502921332947 328.23448703579226,783.6535031119455 326.8989883716629,783.3406524198742 324.9225514322506,781.0201304359357 320.8177241263429,774.3152002875972 317.6159553547244,770.3672668678926 314.73037569327346,770.3685193631197 311.7645928246883,769.5582463680827 311.50736501623373,768.7075124019102 312.85978753305875,765.6035286265505 312.8259768073914,763.3980101733499 311.44362469567756,760.3873542027802 313.17742032602496,756.6156282665262 319.0194005926832,749.667743117561 319.68780665459275,745.5206043139578 319.63384021497177,741.0995171923523 320.3669718838022,738.6541540191079 321.14315203434865,738.1688846703905 324.41340180219913,738.8122698193681 326.6704279129735,737.4907797313781 328.1620970894607,735.5659589939471 330.08632514253196,734.1130579062715 335.0112466960481,733.2002195768603 336.1214161294797,730.6719352430791 333.5107637161272,729.1244887187825 331.58569384187723,726.2388751459205 329.5780154219025,722.2564424157124 329.0337857024229,718.4835888144265 327.38177385034584,718.1520376606577 324.0484330252739,719.9714384868065 321.6181032766904,724.370946708242 318.2845852439444,724.9061984952597 315.07524461367086,724.252462985952 313.7739021608762,720.2371175465806 311.81651808722444,718.6653659759451 310.2852869134639,719.511606799779 309.7194533119447,723.7610389004581 306.3285626227053,721.1989143083742 305.89108844601105,719.4257935478186 303.65260176391104,718.9621250621074 301.1868790209095,721.1771780758199 297.3650155342652,721.4898400273631 293.0625061095373,716.9006929209526 294.6510051292755,714.4736425826311 295.7652044041882,708.5201660867924 294.7483696833935,705.7761954578575 292.8720060233793,704.8287892914365 292.074978244321,702.4221015092214 293.1494737782505,696.992380201057 294.7073864008571,694.8835871818528 296.04819562568434,696.8273928098974 297.44134870622815,694.90466208781 295.50210763964077,693.6607755547639 296.17356831528053,691.5667172898358 296.002189391627,688.9822021910384 293.87572511367654,685.9442260592475 293.8502918375147,684.888571045064 295.71986592134556,682.7586174066821 298.61434612425097,677.5488111607428 300.0546819830805,677.1338841539452 303.50261509786196,679.7044833922848 306.72383464414634,679.763471633103 308.4732640061792,677.6452317746705 306.8945375518776,675.5583505756883 307.4581268807943,673.7114675352234 309.98126916285673,674.4906973004188 313.2968564531843,670.9196681580597 312.2602115519419,665.6948557549429 313.56489565862773,663.8750287995315 314.93669147302455,660.4955484024404 315.5886049310023,656.4126502548477 316.46218441380654,654.1436406587065 319.16489238460747,649.2836987586566 324.5594338880496,645.8682906541469 329.6870236144436,647.0990946898944 332.49445836527576,648.9639582810662 335.84894991349563,652.7954115832404 338.3390064400228,654.1792254673553 339.6029013622639,653.9172904603488 339.8671135131556,649.9685314139972 339.2875181447063,648.997874662565 340.7103943701979,648.4171291159241 341.5660868161631,650.8447461251394 344.9295585838811,654.3364118375703 346.41744235919407,654.2076124342902 348.44970078382977,652.9180732500032 352.7375001129304,653.9760817513333 354.02679624549313,656.186400024819 353.9470951835573,659.4881242244212 352.6122335867284,659.9958648745609 351.42782080532794,662.0823312884611 351.72986332016666,664.9002455861284 354.1700100232607,669.3813832328908 355.45777027047745,672.4006351737585 357.07644822054874,678.76268406089 359.19090795789543,680.7626404705227 363.4472721986039,681.6478613855412 363.9908324777187,682.6913419806203 363.91533580720517,685.7476557088366 364.9261493792982,686.7991484631416 368.5839416129035,688.2203430532643 371.2418857511787,688.7925507303416 374.30172877906955,688.8522311437063 377.30384836995296,689.8751235637351 380.4120211757647,689.1326662413871 384.8966582859358,686.0985755097107 386.60759389475226,686.0911147950892 388.36080588666096,687.3760452898034 389.50638745049474,687.1555935660947 391.43636480589015,684.9828045544156 392.34385503652624,682.6004901930133 396.13754795287696,678.4605480786458 397.6466908249245,675.1110764899487 398.9633551432986,669.0959226862419 397.475421430015,662.1302011732422 397.4987409903909,659.1368572459158 400.20565797331244,655.7720376386337 400.23633179601933,648.7795800928872 400.7200632959754,647.7002528046795 407.8565343668219,642.4193440192976 411.67775343895056,641.3248865564366 414.62835105985,641.4355971543275 417.66135326570736,643.5532655914106 419.81113363819594,644.3737641435443 424.04306156491316,643.3812610768141 428.28521528939336,644.6014339875463 430.30613681198435,644.5720593489772 432.4956328361788,643.6073684399855 433.4392743997191,640.240174935406 434.38001367961783,639.7649518773262 437.90872446771056,640.404668877055 440.6353895866681,638.0034715678012 440.1994967090534,634.7140813066494 441.8865617910709,627.3870063996019 445.29515378264455,625.6487653637705 445.45798112772343,621.9370761675273 446.8958661975566,619.0796238892842 446.3079745816642,616.4900644346392 446.6012575323555,614.7352180786252 444.48588307850565,614.7253181353316 443.8072088099251,617.987187833727 442.28144762154653,618.8247829666011 442.94568304841965,619.9601602007286 438.63829115266117,619.2414924854348 437.28957944076126,620.1609515623406 435.56013200902055,618.2216038234423 437.7831822636522,615.8941452898989 437.34895396413646,612.9343078190916 438.1617173998226,611.5879291306445 436.8222351774137,610.9679052648925 437.0261412023632,608.1691351849013 437.7222995616472,606.1869863557727 441.96644658595017,604.8243769032147 443.0195286964546,602.8105477649547 446.6294687917885,601.0713044904712 447.5409623047741,599.817137329332 446.8195851658573,594.3676194151553 445.4915133450004,589.7627599111341 443.3137872976729,587.4461245399967 443.0558055745308,585.4699009915923 445.1007811394971,581.6479459749194 444.63741137389053,580.2662226607387 438.65591386518105,577.7835374196123 437.4113253220491,576.6209167063198 438.1531174657385,573.3801636700304 436.9853939842156,569.7774651319296 435.79656536351285,568.1137860828924 433.0329819742623,568.0340254680444 428.5763244220764,566.9077551296563 428.16997459350694,563.0974212685851 428.5664051984766,561.5275970875691 429.7456614584248,560.8971907186067 430.5669381463574,554.9396006644915 428.54339143782533,554.1500711880874 429.3474004851744,552.33294528821 428.1275648754722,549.6535182662262 428.9882940898669,547.5593424814538 430.4929636354954,547.7477816373616 431.02705424233284,545.6850804470553 430.44990486408375,544.2025476113257 432.0094032628821,541.8282984946304 432.9501553531808,538.2584766862078 433.13561322283664,534.4981562397104 430.7198430968782,530.97544523689 430.39032921841255,529.2962898613685 431.54134597846615,528.3478317229201 430.001589489275,521.4196623108973 430.3771172437457,517.5671400604629 429.68728346832114,513.000519540775 429.9749083057049,508.9643559305108 428.7881249505887,507.8941372372914 427.0425626586713,507.89228637723954 423.8192505030857,508.7975429362872 411.5622099457243,517.8793776455112 406.45170882677195,519.6331833333795 402.37339268649754,520.3791890150533 400.9097934507841,521.1233760944076 399.1895060052324,525.6794971143036 396.6124274524041,529.9112633284922 393.8298786210644,531.9324614701331 390.2833837817142,531.5072841107699 387.10524928609766,529.9333181028142 385.18606479072076,526.9199190302173 382.57820422927244,524.1848593755553 379.5613576088714,522.5187248170191 376.74468157816466,521.9160053899773 374.59149526956213,522.1920948335559 371.49214235984067,528.0236065028532 367.7534238570002,529.8115809738273 365.80419015777744,529.430380336664 365.2128640621828,528.0090203831028 366.4756161851005,521.5091982973565 365.48655007804757,514.342675308354 362.306174929507,509.70502586248983 356.82190865807667,505.0983900995353 344.2036777217566,495.2978088759229 342.11133645372615,491.5683738263846 342.1145007705968,489.57094361474856 343.7599861096188,486.75781887255016 353.1126532757605,473.9384505596895 358.25013024016874,471.3359692507612 359.8271263950276,468.24758443885844 364.04609211003,464.3889645339699 368.07123603522194,463.3174640729121 370.2754572702772,463.9629022087761 372.5225376961111,466.3601555750679 377.94146942935816,468.02600537481237 379.9294193932419,467.91464564325395 382.10410880034226,465.2328912390208 382.3174688124172,462.1188183029684 384.7041861942511,460.66451846010807 389.9081671383467,454.7848553559945 392.6502177433789,453.04208048772693 395.8303855724444,449.4753527294341 395.6227049264852,448.4204890331639 391.5925439678406,449.0832815199162 389.72409924503853,448.221234040289 388.7992557488964,446.3420180273881 386.540004032586,444.8981184157054 386.09435924691087,443.61030306217526 383.4251684914748,442.96570681672983 377.7231749248229,443.8608645810673 374.7617462037682,445.30755682099664 373.4820478564899,444.99634223273733 371.64697138911583,443.3549312911572 369.10704698778744,439.0242624312385 368.2002748192086,436.58128553445965 366.7370365132883,435.77857523720104 363.8039089824503,430.5192626861301 363.68680436596463,429.6594363609877 365.2934181411065,427.7379186721648 366.703142636783,424.2920376130413 367.21002896388575,420.49188859730873 367.59432203200936,413.673273628365 367.4124907747906,409.763349333472 368.3897997972893,406.93421662707453 370.696756063877,402.932291243344 372.39532579067895,400.79485212476015 375.49517153564744,399.2049095597181 378.0930029495149,396.6654449620173 376.96983042026926,394.28622938592036 373.4350962259447,392.3254845608767 372.61243667015464,388.5938106311411 371.02713871490363,387.1467827795251 367.3635427031279,385.053766095778 366.5982848982694,384.09541041506225 367.6336002347409,371.8922907317567 370.27248508073376,369.3113953689834 374.2378703212988,366.09124263034244 378.8371656986449,363.22633621477166 388.025257498635,360.0856962380684 392.946340252711,358.8454292271741 398.1902015955884,357.9531082401269 404.76128992495126,354.1169052879749 407.4193943108488,351.5352513379338 411.76053146202133,343.4214395859674 413.7881777455877,338.86933726554287 419.7739083820217,330.76911136335093 423.4107068274852,327.22240701806584 429.0173355575274,323.3696101123643 435.2765639901366,319.86164020560454 439.15721960172743,318.718918839917 447.0348711673714,318.394423717413 453.2761922395241,316.5123002438337 457.33979828882633,314.95873387789186 462.77749193734417,311.85167912393945 468.4582319891558,307.50762894690445 473.0602263157512,302.8605565080246 476.8131889526497,292.9698944600028 474.88005005042123,286.19808404353284 470.2396312772111,280.9749526040441 467.2093167543367,274.812027044553 466.65024201297484,270.49877923636643 467.36673760126945,266.93540714179255 473.65438050270683,261.44381044892293 479.6200054286752,256.6070297786696 488.19554147336635,251.7981011469867 495.7934142831866,246.97373028288916 502.40041236364596,243.45249331881575 509.05825405034483,235.9941611236295 514.7365504168903,227.21090820484142 517.146259318063,219.38787071931358 514.3056094116405,210.19145379499957 510.45271280040157,203.28033119747874 498.8254175015989,189.07008314588768 492.3549660183359,181.46719917134988 487.4951945198154,177.15887891735133 472.8930830274578,164.87517490341725 465.440199602005,158.89264558350828 458.30135124766485,154.2165875030945 453.3912078485223,154.1592965838032 447.8633592469397,150.4864821808544 441.3979906206957,143.84452886552617 437.82960184581424,141.18494788169528 433.28798454476936,139.15199015854046 426.38346598524805,141.35190845888167 419.78187554950466,146.5021267836329 417.7880114782941,148.7600203101032 413.821534695401,151.6490844956819 408.8955418954163,153.86899616198411 402.28337469964265,159.99010579345338 394.6702237963141,168.06724456860366 386.40783404657117,175.7901574460874 382.1067384451936,179.00799194336207 377.1786450302948,182.20846400863195 372.23378153858147,185.072122821437 357.5174398387857,186.4849245861726 351.98290091555504,185.41393640944693 346.0878719868775,186.30748526068658 341.50406132969795,186.56190520666496 335.92652180416627,189.09880823815672 331.32049329773616,191.65295879243752 320.10955543030764,199.9875935089234 312.2514803010895,201.18438114485332 305.9894723200608,204.69446886318678 298.1272720226196,206.54541170623702 290.2497963279072,208.06784323117256 285.67032940031186,208.3305191416406 283.51196168173175,207.74508021793486 282.5168640442535,205.86833269389172 281.02806229675394,201.5393931218324 277.88461543486324,194.58991481349562 275.9943152892858,192.2356214834315 273.6965127354383,190.28087060589723 271.2288181338439,185.22065065837364 270.54650250556057,179.66306202555165 271.2408120976099,173.03749188499216 270.41692724153023,171.07728393484854 265.7465658194595,167.48744719231888 260.3529962755481,165.32968312041805 254.6985058909055,159.4630754813262 250.61740062453313,153.99020694225476 245.0346896621449,144.66879622367833 240.74436350519198,129.79687575545256 240.8956851609083,128.44805897066203 243.15355983710782,124.0258026834623 242.59076883624897,121.3611369683781 240.23889969619455,114.98309732103235 235.62592526675994,109.0736468558548 231.44034041614776,102.97854807734063 228.09635864430348,100.91681091347107 220.4894403326331,100.24752932565241 216.873538690612,98.80852057883544 209.7760611463872,92.703889771999 209.1498112850768,90.80548053213238 212.67381673545182,83.49033556708434 223.7636673596118,66.21242521293743 223.24453779657924,60.65831976520826 220.4834062389617,50.56743988554274 217.17636855148194,46.73899869916875 217.17882335099222,45.96282591762565 219.55358747609276,41.329328649632316 225.18257460305875,34.99983105629099 226.19497637987598,32.11575273168728 225.8119212216654,30.372098578374903 227.48339412215978,28.333288471064634 225.78844092449503,23.418065243108913 223.74112107887845,23.9657132245178 222.53628656162505,23.44898654243309 223.89890735797536,17.430539406220987 225.90570284217057,16.821672998896474 225.36169089338745,14.679061090055711 226.19881063415286,11.675716576626996 227.83347570004074,9.597070054090068 228.5265405813682,7.134948235578804 225.84915761402928,4.55013157946496 226.1055057385843,1.180635393018747 219.0864352446847,0.0 215.65551033689133,0.930246399385851 210.81929953055854,1.108834752693042 208.28779384770044,2.271377724786589 207.14626018289982,3.7546659649099183 206.10249677632763,6.708635368670571 205.54625234429264,10.385818615157177 203.8548737421944,15.628989872591774 202.8778705254097,17.111709784622576 201.00036591394417,17.68988850999824 194.35350009165364,15.526696513748107 191.18173454183028,16.679555493700036 190.2468987200625,21.624837774790308 187.62086811730282,25.288450722702237 185.4633837434647,25.631888142651974 181.43391658196785,25.143557124569043 170.93519438651126,23.001129314536115 165.73101816346713,18.064384859016172 162.22348088105235,15.859007394717537 158.62146988182104,14.839471510472208 147.3364396278154,15.177425044996994 146.0479917107725,16.07996009683768 145.30002708376557,20.064196248795724 144.01767978192402,21.36476356445519 141.09758159607145,20.096043763100056 138.87740092819678,16.4583042717735 137.45585333023004,16.084179613115566 134.5555209850274,16.448927002698838 131.3121276001971,21.89955632713088 129.71331533954526,27.96911772756664 128.6225534360519,29.524416532722398 121.4503348108741,33.30189913833385 114.8120769126062,34.687800099038895 105.63460077524068,35.793181048777 104.35229931050107,37.29742753755488 100.64995977385698,45.82320560306823 96.77508652253442,55.41224789458386 93.4834834435933,58.55649317723805 87.6017460069327,61.33750403700958 83.22915706398533,64.28013782012295 79.41444335034872,65.00412998511592 75.91000269805608,66.13534040349577 71.90313545535366,68.60594190817528 66.1825689301328,76.17818166474945 66.43124972796997,81.48797482815655 63.92489197301526,87.56170600312294 62.73744672982733,88.02383498697316 59.78204767997975,87.52976424644385 56.81358592210896,86.24952609100058 54.043474450072004,83.08975978062699 52.498361953253806,82.75647749541736 50.919326838403386,83.57606723087838 46.39901087496286,90.34874914308432 43.77398780402126,92.58158482354997 41.59011545610527,92.94296461331885 35.35957312627173,93.02751640223858 39.22456904761102,96.00267572897178 41.43111429243857,98.57181861613674 43.91088775277219,103.5729409383739 47.19461724835744,106.85447144376167 48.12756670641276,108.41614890817175 49.25970172383253,115.91121362015701 48.47814531299511,117.45666092906629 42.31647110491698,120.80002190397988 41.278646198843674,123.73419948686978 37.632765560859774,124.7948843309257 34.45997936985045,124.72023176421203 30.04007803217648,126.25174648439838 28.292565537760066,125.5605182285774 27.59984453192049,120.23876702880068 26.41736657607614,118.38213864530064 23.996517930973408,116.84332105256283 19.528715082078566,117.62843994839841 15.878690987230765,116.58416264129448 11.56360970684109,118.29897808496764 10.613102226810158,121.15144564176069 8.32086444752822,122.3300669247534 7.223396263639713,124.02856103310387 7.425498999167601,127.09280986373358 10.505268925765616,129.794839884613 10.507005781825526,130.69368174912654 8.741554384756055,134.39661430487865 6.323162294840626,134.185801601138 2.7270500398266444,131.19931120192666 1.5439723969964436,131.5896038869904 1.2030968643430466,134.30817639487702 2.183314667697086,136.42076433730256 4.317383232471284,139.27877856807913 6.071134730825899,139.9189109283252 7.728588820978841,139.53766363024613 10.379640239101361,137.05004514241602 11.972219115333747,137.61908300626772 13.12834646594363,139.52723513911258 16.754552929768682,140.98110207356228 17.37182587504455,142.65629903116803 14.95059805724979,146.20650782692223 14.20667372257717,149.2426326396369 14.157630155302,153.11631581904703 13.192118416772445,153.52624691116728 9.456828769158317,151.1008968447602 8.248036825516769,151.27727959540618 5.776489116489471,153.69460354669866 2.463623663507741,153.71084704276154 0.5898711644783868,154.91994360264334 0.0,157.07683730842632 1.874974186011452,164.56368601003578 4.367367183746353,165.72463786579488 6.522204720815414,165.37385477776763 13.254039848978094,166.57646444892384 18.613956625244487,166.9240348245495 20.685604959264023,166.51043731735479 23.044280296642704,167.41596241920547 26.21344702300864,170.22021337208264 27.804602104536514,172.35278808434532 28.192910876437658,177.6251996629635 29.16785268476993,179.29961157533273 31.151085227289773,181.09463552208274 34.66365076381575,182.40563588335374 35.64887088595352,184.1313467591849 35.259734455533035,185.80714593206085 32.92578817713605,186.68089450861999 27.9633178793992,186.57984085941553 24.025923879690282,184.9314072374841 21.37357163809669,184.568642742738 19.859324112015003,185.05247436137358 19.061387638383263,186.29103702361033 18.234187740000028,194.36654372398084 18.388750452614815,201.86940562080986 16.701199599649637,205.83904269966115 19.517389245569202,213.0912330870143 19.380904427438175,217.2532657934894 20.7305354865707,222.42388736881014 21.5288322140248,223.7919491626401 23.99905768767736,225.25936849906532 24.278822745002298,226.03494270481394 22.645910002007998,229.06431360694978 24.142885666799792,230.41098280266704 30.847027978400565,239.2929375717515 32.61958381787808,241.09978617604372 38.05865156957411,243.0715597312111 42.65890382750763,242.46827044970564 47.57294942312118,243.18387960261157 51.16091204738235,244.8524454402508 55.07096802950324,247.52319872077737 59.292356804922605,250.84801782727902 63.50252375069063,255.79778421119602 66.064251266407,261.067955919414 66.9851550072651,265.6584644271619 67.57642672660356,270.89317715327013 69.18274951844835,274.51905125589053 72.01429757937339,284.03441544993245 72.95415659808701,287.97995793715484 74.86784124321404,292.5780726948682 77.11337918515241,296.85864610602357 80.97132789606444,302.79318866318783 85.4950932646188,308.40786449478696 89.38856532311488,313.6772546201206 94.51426926930068,323.54608738138495 96.10361352408957,328.47430248447824 98.66684800410127,333.4086235737633 101.23694208229143,338.99917253393255 103.78961152667291,343.60671390549885 110.95993491504089,349.2367142418649 114.20303541340036,352.2158386118783 118.42199266632022,356.8401829015543 119.9856520329478,363.06794697370594 119.9213834951994,368.3084373663678 118.88799408342788,372.54707631042925 117.8210770487859,378.43507286546037 117.74255021944292,385.9569013101607 115.94016203470119,397.3938505434262 116.5269495559033,403.9437606678688 120.29934278752312,417.3948232713251 120.91185822008376,421.6619088962376 121.4700041791536,429.1848754719929 122.67007055954471,438.69210292759465 124.88950885348224,445.5871565846355 124.4862280182601,451.78297385633357 125.11905357701322,459.7879326849188 126.72335888773117,465.17942179523834 131.33136349002913,470.63554313668135 134.04456958199597,476.10669238381 135.26830060034345,482.33089052636217 134.84878784422642,489.85929553523556 133.81783662152944,493.7741114478173 133.43592676175035,498.0152929719294 131.81493939450118,505.7523846206068 126.3562825668923,513.6538441459824 123.99390168711292,517.891712201903 121.33401347621128,520.8077831622511 116.63290754786239,527.959281047665 113.58931221967893,534.8010306580884 112.20220082979871,541.3302843889014 111.81537758204098,545.9109463274302 111.73381365312419,552.448231964558 114.00474901182504,555.4227141072943 121.13590822681343,563.3450127462354 128.3178189167052,567.3334726529861 133.5217219660399,571.3155690689143 134.4639426326639,574.91966628544 134.09341941261374,577.8610714007566 130.3834407542854,585.6807812659385 127.7036253384135,589.5714082133051 126.68141877721345,592.8440951958559 124.9861220136514,596.4253009590399 123.62397785962933,600.988585701441 121.95352427934264,614.0513911419913 121.38946537783016,622.2320167414191 115.99286766703472,626.233687952763 110.47595977730604,627.7245245736206 92.30087150656367,636.6367493944176 87.31668935610308,640.4937104525376 75.63759316050809,654.3814641281086 74.92737784778123,658.9455970352124 76.06879194098528,670.3862222149993 71.36583076288709,677.5033288429295 61.18314952350552,678.6748795823069 52.03039418418095,676.2640204731638 48.63394782280041,676.2100202943393 46.59297393688626,677.0860882383807 45.28780644933924,678.432787928799 44.99549098218646,682.2782596294182 47.31250103595939,686.4462926286895 50.581921370148486,694.798049534344 50.57840129376451,695.5056798145555 54.727047227713314,706.7158878889812 54.88159240134017,708.664363056178 54.203455663340755,711.5576803202058 51.351687486375475,717.2876310120907 57.283696340509934,718.4744787098585 57.78792373380119,719.1909735258629 55.62174553546184,722.5298367050357 55.5474505566618,723.781176120433 57.163057717286094,725.0487723575109 59.42069908567747,725.361922642948 62.638210056176256,723.4159233773865 64.24524359484893,723.0941701274078 65.85945829702308,723.7168298462996 69.09136037484103,723.6994998731383 72.31537723818735,724.6451127235646 73.9281925603165,724.6413886408495 77.14696924421001,723.3213810853315 78.76203354931862,724.2820207256179 79.74081138620632,725.8804304675521 82.96418729858098,726.5076765084401 84.58435044193791,727.4582563149766 84.59450513693511,729.0689278157062 81.69290548208825,731.0146433190596 81.70302606504471,732.6238875274252 85.57986746875736,735.4979430404276 86.87779584675022,735.8129799778676 87.52688269528309,738.3865358790825 89.1569027639057,741.2644557908053 91.4296411215009,743.5059376269162 90.7905873491576,745.1081948042761 88.54230786387123,746.7343062796473 89.53036767326016,751.5525885838778 90.17723005872038,753.1617176684838 92.45753353485745,756.3575965840106 92.79098304062505,758.9318943334097 98.60904321656989,761.7794817451476 101.45728035890959,767.6716224072959 102.82962974537945,768.8280660076479 103.17500252334804,772.0485838035363 102.86995694296446,776.8728573891163 101.90288444492377,778.1678182479841 98.68436874648336,779.4683557417912 97.08302690365939,780.7762652314407 95.2076831259109,786.2905926006424 96.06494643658702,790.6597439977141 95.69408963734195,791.9432111220865 93.68159959613054,792.5944042589072 91.23286122143655,794.683262774799 86.1416063884533,795.0550275374569 83.8600433825282,795.7680789359074 82.03147022317586,797.2917885161398 81.08283411115274,800.1059464220024 73.41092605534308,810.8179564358163 69.75990975808664,814.0476892481323 66.73212962813844,820.2333532663081 66.68412206812573,824.1538725340935 67.6070040534743,828.7512740976447 69.81999680228343,835.9621899009106 72.35501367671176,843.5104449165927 79.13045529349175,852.4155115467079 78.73768088666688,857.9703308840678 77.66402429104738,864.8306788726204 75.6051746043767,872.6591295969577 70.60719518255793,878.4912865191328 67.29490770536142,880.7471841040262 64.29951512652505,883.9781153605686 62.60522075102091,887.8837404297404 62.880945002310035,892.4626114630876 64.1429593227351,897.0606744079032 67.33168308701042,904.293649419072 72.22063346985011,907.2912885516988 76.11785358229349,910.5992251266454 81.69351389911466,911.315218556715 90.55501917798935,911.7349472662148 98.40182685929494,913.4520469764263 106.27959995768097,914.8391177385616 111.8584984352683,915.2158991016157 115.7707100069855,917.5469836834633 128.1233592205994,928.1345518486695 134.00616006192027,930.7994736222754 139.56996095940835,932.8173509974157 144.83128983926878,932.875669716604 153.38767091981416,931.3110370011256 157.34163009227302,929.717707778916 162.2847756263573,929.1072398117582 167.21369520882797,928.8361932014222 173.77283508265543,929.8755470414678 178.69427040085378,930.9081014158413 191.4079212661783,938.2339720834566 199.24594473585677,941.5894633025487 206.72771733991067,946.5692013053983 226.31861691156686,954.6406940075547 233.19557866256773,955.6964580927142 240.39303751629166,956.1145502680668 246.61097969670314,957.4900849080396 254.4586466749849,958.2448359847084 259.36028213464334,958.9767263721158 265.248276260421,960.6822224685742 268.1725722038833,962.0271495324346 273.0202414138641,966.345387122229 278.7928073033595,976.5578726372055 283.2155584691688,989.3644433349508 288.35357198933565,997.6172549559875 296.05788836914644,1009.1687123800751 299.5942277944854,1014.1301601447549 300.84911123803903,1018.7292126463084 304.0440481671883,1024.0" /><circle cx="269.16557148367934" cy="544.9890268947398" fill="rgb(100%,100%,100%)" r="16" stroke="grey" stroke-width="8" /></svg>