<?xml version="1.0" encoding="utf-8" ?>
<svg baseProfile="full" height="1024" version="1.1" width="1024" xmlns="http://www.w3.org/2000/svg" xmlns:ev="http://www.w3.org/2001/xml-events" xmlns:xlink="http://www.w3.org/1999/xlink"><defs /><polygon fill="black" points="996.5768548498008,58.121840473500924 979.5345465434789,59.83711751522412 963.2895260010051,62.777016299644686 945.5087732893412,62.54702087928274 929.3630106062909,59.19872480753435 910.1275755445864,52.65812371718431 882.6160980578743,39.18024928916469 862.9024817472961,31.043348256980153 847.3954905872088,20.351570765132863 828.2535723696808,10.112719611151988 794.3331522539598,0.9726300764746156 783.5467106836595,0.0 762.1436044218486,3.324292621821087 744.0135975886785,11.644853625624137 740.7261138182715,13.219191354969439 706.7159174234059,39.52228496048252 687.9725619654781,49.01076155189344 669.8213348778347,56.31387018417979 657.6908524759164,57.937278051554756 647.2130702868309,61.68381560917794 630.736215581869,61.22616259794938 627.0215496051653,61.85702140999507 623.90783180215,63.71043518601789 621.2293272263519,67.25469414398566 611.4201346530542,74.19263498061537 607.8500379604658,73.98879668048039 599.2680599483544,79.07329928559568 584.666705373454,93.25268468592594 581.7904858060999,96.86172713416454 581.340826094537,101.2554976022708 579.7636341494466,101.19105775534348 567.1966639193125,102.57919869994265 557.9329776245662,105.52986257795357 557.3844960814591,115.25914731442958 560.0076166079546,122.23772838552941 558.0244470089763,131.2256565862425 554.2222245949749,140.05992913715153 552.3147141113111,141.9687566111673 548.9388463593484,141.40374430594238 544.4521624809017,139.11719492570217 533.6711922106994,132.1881341705456 530.9947803221302,128.62486423348855 523.7456384239127,128.4461333380201 522.2756111165339,131.1573173580337 522.5062278586823,139.31869523781393 514.1479242071815,140.32132841569006 500.49549625569597,148.36494536010133 497.4842455025975,147.1947462045502 495.6378332413192,158.49321915130741 487.0231618621191,164.51741389819665 477.3431307338458,166.82636127562358 463.4915046596191,167.3439051514178 458.8430446915323,162.50343837120278 454.05099102078776,160.15323238686238 448.4570320120942,162.24359790162498 445.8062396769744,164.6349526566126 444.9306337762831,168.71719321375912 443.57020960472397,170.08546234426518 436.63500720487366,165.2908861826906 437.09873538840185,163.01523278017447 430.8607628764462,151.81898071028985 428.9907678713557,149.50838597134162 426.66440130931716,149.1515169722215 425.989346857046,151.2406211380001 427.8309804461065,150.98736736084004 427.5956822425615,153.47972226389197 422.2609530164659,156.16833488899977 416.9210289940761,156.11995097002603 412.3808302077309,159.33140016491132 410.97827195998525,162.15565485420086 407.4389098675541,164.731040661907 404.12402761608956,164.5030237076803 402.83646606517743,163.33284211513904 399.0477570751807,164.26295994244504 398.6562797488645,165.02607569961623 398.064198618679,169.58693190344167 400.11614454019394,182.68548560427644 398.93865511472444,185.07755291844813 392.50228746735513,181.49028361120367 391.7190539180166,179.17868172073509 392.2103098140963,175.971860560317 380.36369580670276,178.0278386072431 377.5840153856375,180.55156137311485 374.20006876869564,180.62253027186313 371.83978829758735,176.77792247568237 371.10551467368833,173.1654975938626 364.5859309946325,169.27998984634576 363.06485961356503,169.7634941898176 363.2485064858162,172.27486028013686 361.5546449827227,173.3792684188773 353.60332365238827,173.2895701578708 350.2943514993353,165.48088027515217 344.74185326068886,165.71420196574348 344.68700508294086,161.60514433090634 343.0053351200883,157.80041913044113 336.14874561951825,156.70465261354104 331.2363120887114,154.35192080695174 330.7163891067102,152.15503443286087 323.57001872147583,149.77780340377808 320.4038241868318,149.07960475583008 317.22803542235795,149.70149983698514 314.11081429867653,150.80708557871168 311.00548498518094,146.24055978203995 290.9359350201959,145.24312392290608 288.3533657924298,139.38937026966966 280.2253136362995,136.27077462648538 274.0664285934827,139.67303005618334 272.1594541486489,140.4024598808765 270.0000721305975,139.26934481810537 261.048724683639,121.09990727726785 254.2677859505624,112.67863755698437 250.9235530504079,110.40885446862524 249.64916661453609,110.85983935909616 245.89341922850915,109.33618382460281 239.18613178060104,111.54428266297253 236.43210506608435,110.78362893650586 231.13437346970431,105.6336796024558 226.70391181760425,99.60248079229439 222.20992374014455,96.00919425079775 216.0397616528272,92.98469472269215 206.58595894337546,91.16594484350992 200.89727794858715,91.87011737902913 192.8293400689324,87.59512139804497 188.45382740715172,92.36164451420484 176.25663233027512,91.13936514058116 166.61330304146418,88.79859551981974 158.62851740416812,81.0859879978716 157.69827736171726,83.02490448247755 158.69451436485429,87.01443149879486 162.41900209246538,93.26156616074445 175.82054680014335,98.11038256652228 182.24143857668608,97.87688892024983 182.76649458396759,102.91208428810131 180.89020370218958,108.35236324748615 178.55381734587579,113.11620177782754 176.0748676620115,113.07338318544424 175.07159183580632,112.7323861365195 174.13069738114203,111.28977984447044 168.03633600205728,108.83013186262855 165.04749214641896,112.7721749446876 164.31236070073328,119.80954047444459 171.28274841826035,124.12576126591966 174.48508273717482,124.68624311161892 175.2740255656512,126.40298046270408 175.40462667849434,131.5428075311753 171.83133753990077,135.48790394406768 166.45257724433685,131.36152014679487 159.71423300733338,128.8113354879738 158.12061940801675,132.03701284101828 157.84093063049926,136.8263394549661 164.85493720142446,139.7801530554617 165.33741145237892,140.79770391198088 162.6187490893147,149.689623947931 151.12897806627225,154.0550116453707 146.58638691153112,153.43748840230302 143.25923259833468,153.97394861704345 138.89408666680015,156.2631504097718 131.5414702446488,165.80437922764372 128.55281805637986,166.27319382087347 121.40565088499594,163.00773243362164 112.29713722926198,184.64706382164673 109.96529093910709,186.78518831931348 110.22825444327016,193.318335445691 107.09479698466164,201.2511062431809 106.25482496250052,202.52316214012262 104.63400622791046,202.5353291181516 104.1089273268817,199.2818496645736 100.85613259615162,198.0057794910948 97.09141595173313,192.04172755630947 93.82418727416035,190.88615624087464 89.31771524239521,186.3865347878301 84.27130660125015,176.41197173831756 83.74029952326133,173.3683978540957 81.02062024546575,170.75797642441455 78.79675144848032,169.0766364968082 75.21310899702998,170.23681355862357 69.35184800414177,168.50516174584908 66.09507106938895,167.0294631415606 62.79584756571785,169.00009570952898 52.99141809034018,179.07052561321763 40.93222429455463,202.66747310181034 37.20345190942697,207.13080950667262 31.781384498571214,218.9900372397894 20.96657926369413,232.36577606149234 15.733514859700302,250.63249898404757 10.171137305997966,254.3232840006525 3.3078288710794226,267.56048344375534 0.4229373273456093,273.8658746781148 0.0,276.91892276453405 0.8710468401434445,289.14233926146676 1.937793544670976,292.4473737143776 5.0309806189152395,294.62275130965503 6.0166594540949925,296.55434946351943 7.129949548809674,297.3703552058761 8.859839477921412,297.8673615784336 9.901217741524185,297.7146452473291 10.642508084952004,296.6066979563649 12.66541483037687,296.23312190043487 13.195258661165838,295.7149306868945 16.17692503372167,295.50131003593646 18.560553156652418,296.0664815985889 32.17340937767001,291.8180575545771 34.39206162410933,293.06333632989487 36.89621924725302,298.68816268102455 35.62922669657316,303.84227129442985 36.35392531433999,308.92542078518443 38.02185146035157,313.73382876898233 53.94403484346832,322.137011847214 76.72126528198369,338.6631294529991 89.16542400143845,346.15869018694326 105.69907102812223,358.94359826470355 120.69591252858118,370.68162144598864 130.53988968004344,376.0660456176648 143.38292465860079,390.9007133668308 151.02606851995756,405.6687050020811 155.02553962086577,416.72126553545 159.0132681412134,430.9055180806188 169.26694485746393,443.61492126020664 178.01121892442546,453.6921469465077 188.84010483885578,462.7529516790128 202.74324859846536,475.51894597936814 225.66277505511428,479.0116452967875 238.76647464202463,474.52088181714953 249.78251644244617,470.49286076301274 259.76504954402344,465.9402119713429 276.95781138060886,469.32545331487887 287.2739545175934,478.8990404536481 295.5063264130102,488.4314084516969 303.2435809985264,495.3468437460974 314.8172216430674,489.7478989229256 318.18010514792866,473.0532562883208 321.00904441293767,457.39611749047265 323.33409622887433,440.6894089739179 323.4795856273178,429.70327437126883 326.3073542811461,414.05975595296735 328.7985197239943,411.3248336624808 331.321624069269,407.55368297873224 335.00308799193783,403.05552504460957 343.2301009223937,395.16009868536094 343.52858163655145,385.9603000954367 349.55815682706,380.0864032168704 356.3471628695696,380.62155041544804 360.37977317925174,385.595103671263 366.57035582596467,388.36489470825666 369.40067317107776,385.6506963795098 368.17430142195246,384.38849861272473 366.67954084665246,381.7593089036939 368.8920958553158,379.1049123060915 379.6188789437727,379.01288747552167 395.13620429064804,393.99558033129057 393.7830382370542,399.28377038232327 395.6961251416813,405.89035656035753 398.5143178507973,413.9232350564481 404.3000703075178,418.34061823330455 408.5062761624254,424.5216815998293 412.1977669074619,424.6320900466916 414.3638171339428,427.5358684685431 422.6888245822367,431.086420985908 431.20632207026387,430.1396517378027 441.7619266668608,441.20887266489325 450.9969652112853,446.38744631643937 458.2121276944073,449.40205584087437 470.9961445606473,452.5626430819175 486.9785336956793,450.08359416804353 487.9282160253603,449.1806942604593 505.7599212146509,446.6424603215397 515.5850355856904,447.74750053803984 532.9315353519846,458.8890005271122 536.0507382123894,464.4330937245 539.920235328465,461.51909901249644 540.3225903077162,462.9099809497661 537.322784663066,466.3416526160346 541.1178055829545,476.3609578324625 542.3715944488773,493.6461410859604 557.0545486656362,495.5508994452404 562.1397764084433,493.57926580149626 567.5593336413767,494.8008880435768 566.2139751054048,499.2633897959165 567.7055571231298,509.1266502644846 570.0331443729235,512.254210092728 572.1434060153132,513.1577971373978 573.1063555577501,515.5234352823927 571.3549056642478,516.4114433547692 573.9316928287878,516.4713649355714 576.4362980989546,516.8992837023344 578.060177086464,517.9857722020643 579.6305820654542,519.8199662633649 579.4800970304697,518.2054811443279 584.7667901103017,519.0527880862203 592.4208973366086,522.2653397074938 594.2125965085826,522.097733165423 596.2939111035777,517.3743905604565 595.1966084778738,515.5054300686423 598.5861559504938,513.9930547200339 609.9837202178044,511.76658836569453 616.0415307590793,514.0776821392539 615.4793632133748,500.4763386463487 618.7039846655038,494.8545210573113 619.6729755483964,490.6349276337247 616.4735742283128,490.0926165215956 615.0554758075349,486.0290743826777 617.7759978243757,483.0247494084519 620.420216668209,484.3284213483556 620.9247069952925,482.41903044479716 623.7646119290016,481.03961554609 623.9079460368619,471.6855312971663 628.7440209134363,468.7002007414854 630.6094466310697,465.81618882083393 633.3250023550918,451.3795614091105 637.962656152038,442.8245106538667 652.0161660127442,443.1281978330784 656.9756552117956,445.33497348355723 663.0466160630191,446.28588452022285 667.6930410292044,444.1897578534615 669.4177824581137,445.7143986075211 669.8891680288593,447.21641452063403 672.5136015622561,449.6425281871651 673.8293871411964,451.8001272532729 670.9707038148508,454.2418891666109 669.4805763155982,457.3648785052465 676.5392135411133,466.21069014186276 679.5030095328347,465.9483870915595 678.519369086864,461.7510425242167 687.5738466405286,460.5845867667473 690.028228482081,462.03507719110064 690.0917102827127,464.677156009593 691.1249352967696,465.56616374804133 698.9402258034638,468.8491891876109 700.638130419637,467.94024954134954 707.3489875580517,471.4945828404797 713.3526634623064,476.95277125868057 715.2989109578681,482.81107388301535 714.4924872280883,485.3452240958826 712.663980315263,487.6509019008989 710.8798495570497,499.42275572885035 711.546565459354,500.18984232194083 712.2317838675215,495.3181708609168 716.990143452949,495.1833680858376 717.1213347542514,495.5934467238484 716.0305913567424,502.6034969712196 716.1454648950886,503.6892069050814 717.0584250604513,504.45374629326176 720.3021386998449,506.009437892644 720.2291034956452,517.1580270727619 723.6490570582475,521.7401044807825 728.1980419633476,523.6617817732599 736.6239722607385,523.4601103010568 759.9155057790417,518.4077404185084 766.3000618671266,518.5043473516091 768.8498311430503,519.5747112809531 769.3723476083229,521.527665745209 771.9875712954861,521.6450199850403 771.4318099799028,512.8347384008024 770.422695662583,511.3553595595425 769.7809708846769,515.4060683535021 767.1721655934712,514.2953185461776 767.4849868559545,510.6173031851217 767.1724518764123,510.43998940588193 767.864557124997,506.0046328869885 768.0411351951496,503.2000415002744 767.1908635679852,503.1569033816825 766.9102706859691,507.8864015723244 766.4603576338936,510.135579681678 765.5901454037328,510.42993388909576 765.4447085641332,509.31606076580647 766.0158675959932,504.49378773001024 765.7145302000572,504.5817083441134 765.0721725073856,509.06406161160675 765.2239071929129,504.9318233591065 764.4749857339287,504.91648916933036 764.1986625823675,508.7279450501534 762.7428005679561,508.2141808242851 762.4795035002304,506.939575964144 765.8933311008227,500.18524788119646 768.0684612291712,498.32677804231116 770.8000528976854,497.5496675827527 773.5498366673127,495.26101372929736 780.5354534948099,484.6773191264472 786.8964897301398,486.78479255372747 791.7644887662889,485.9314027151936 795.1348324091817,475.72668584278586 797.6517738268143,471.73685351717205 803.565073285353,469.38051358124795 806.087514720932,466.41621019827176 806.2413498964095,463.6909563242131 808.3027474862746,462.17163065895585 812.066549992957,459.9571007892553 816.5968366194729,461.79150365790576 821.8529749304629,461.8085670363532 822.5642188012423,457.3507506280381 823.9681683165951,456.28904320768515 824.3977762548662,459.08670703885434 825.3564680026911,461.24048288347376 826.2281484319905,456.63841302182055 856.4394337470795,461.6056665915412 862.9281102933844,460.7605920910862 863.604918844042,456.4639412673903 868.0512756215786,457.9636119661623 875.40867517875,460.8565254636569 882.2198303759491,466.55096390295864 897.5214793518379,466.6726519949176 905.2602399578701,465.54765204986006 907.537946921164,462.3861221658565 912.3330340716449,460.69165034606897 912.2329962241148,452.61112777382283 909.4306518105219,444.661991206362 904.0754142853638,439.82608115688066 899.9034197542683,439.63849295245944 901.842393764825,433.707121787664 898.2905090273617,398.733990000531 896.7232574508354,397.48074820239617 895.8875317472257,389.7099735328092 904.0828994091845,383.8215105213229 905.7197826127845,375.6669750787768 912.2374957740399,371.57566716093277 915.9911048733991,372.8074395364199 925.1226508945957,381.53823343957737 929.4928860288265,383.5985769683 933.3592315614994,384.426312791955 938.4727275436749,382.65264980571897 943.9256546852193,379.6405563697681 944.3598475379204,377.12346755436124 961.9792937064283,378.6033110847466 965.6333891857205,380.89796634624156 980.9320306038359,381.24335072674137 982.1026716639853,383.2096989087963 981.9141918111903,386.6191872591921 988.8809933118488,386.95558859470447 990.277600977714,383.67032228945527 990.6709530198026,379.06931814971 1000.113497968808,381.33377696751506 1003.0976669683898,379.37199380225076 1003.6164420636679,373.90174671090983 1004.315785037721,361.998093211311 1006.5106479314096,361.99638170188297 1014.9897087514363,360.96998441278026 1018.6274503217782,355.37953201645 1023.7054234708295,343.9262623960317 1024.0,339.59680250545966 1017.1298337476037,336.65834929365667 1013.8738883389535,333.17809773949574 1012.6147736313128,324.53653990708494 1014.2888867658226,304.4974897459465 1014.3343262277034,298.21596124956415 1016.6707267614612,297.4777994301181 1017.8924423866749,291.33324273303776 1017.1299137151337,290.23609111517106 1013.3163327201911,290.2084855379829 1012.1644646421057,288.7406537869448 1010.8231813849156,282.94711347380064 1011.1875207847758,275.8674370368509 1010.6064807333372,267.1515446848517 1010.3402168272254,248.85623241286663 1009.2500834940516,232.41964046063384 1010.813423101999,230.9815116661968 1014.3363727337324,223.7942804912979 1019.9260839655286,209.40121555639712 1019.8535083217317,207.0105404760709 1015.9530065031873,206.82309426814402 999.2532164748252,210.25824088796838 986.1456865999579,209.8001202377984 984.9710408185173,207.25578395206236 973.2797494180589,206.71617314067288 973.7503839653532,200.74452062098499 976.5480081338586,201.14694335433404 978.0440774918993,200.35143729946697 978.5831540945427,192.828518010778 978.027942559788,189.69238399612232 981.7264497196284,183.286734555193 983.3246043857437,175.25176604507362 988.5182681962807,177.29307485519655 990.7734397854732,170.0238457402956 985.8144450872658,158.3325210472549 983.5802691101776,157.54943462953042 982.9691217810702,144.10493055259138 982.0137514813879,129.7563725955996 992.1496039458457,128.7352114498496 992.1542029104277,125.76177917758224 989.3751428707551,119.38320158251554 988.4311418042514,112.23134214553698 985.6792824490401,108.08696178310123 985.4755815085728,104.79989655513498 987.8554662521,94.96685424322919 992.3354636145252,90.78716145138515 990.7182152016577,82.72748094707333 984.7708592930782,83.83453211319915 979.5796110677096,79.74662618408138 996.5768548498008,58.121840473500924" /><circle cx="796.6083185061769" cy="307.61569136330564" fill="rgb(100%,100%,100%)" r="16" stroke="grey" stroke-width="8" /></svg>