<?xml version="1.0" encoding="utf-8" ?>
<svg baseProfile="full" height="1024" version="1.1" width="1024" xmlns="http://www.w3.org/2000/svg" xmlns:ev="http://www.w3.org/2001/xml-events" xmlns:xlink="http://www.w3.org/1999/xlink"><defs /><polygon fill="black" points="120.96754029269336,42.68548704811417 120.74541620186784,45.240582022829244 121.48718348342494,48.35009595601139 122.66932761843799,50.865409565350205 123.14891478529954,54.12313671201571 124.31548132734372,57.70315927104218 121.74074938553453,60.48030969210913 115.30770123372189,65.84506931723627 112.08910026892444,72.67082955844546 109.84140915632491,75.45191456915495 107.44755401520321,80.35662592283688 106.9626644974894,82.52815554506662 104.1840468671737,87.30001905029712 103.22374071122661,91.32868720046042 103.34524585063481,94.60475485400207 102.01604757354185,96.60028735860612 96.89973250887202,92.62512319635084 95.20884211971286,90.5945439817873 92.35680704405904,92.45709387330658 91.82684863241037,95.6018657754172 91.83875471399824,100.55255795632524 86.18082036046886,101.23149629596878 83.6277665092512,100.1073893270783 81.45592226256592,104.79336650192897 80.03624771234189,104.37816941842539 75.91801254998354,101.17681877552434 75.30343072952314,94.73623936714102 73.9753077071415,94.37481644073557 68.52998337041997,98.89654020525415 67.78840703342718,99.85614632638976 64.26692441123454,101.555180658896 59.70146347498894,107.26149103562454 58.27481097374556,108.176964983566 56.14859891040835,110.97045400424429 53.69062951917776,111.22905655602597 51.880423552080195,115.7500981257192 53.037910970835405,119.54948672280545 54.27864957115023,122.12731381607534 54.7626817602003,124.95512026353435 56.30480217189187,125.9862826554405 58.565412963542606,130.15733625665916 55.38794936364867,131.03269649720835 53.11736072220266,133.2205750050232 48.74813351246162,140.3044847115308 47.91795387002098,143.7568528650205 45.47949832563345,146.3438144011675 43.99759412903186,149.14185738090043 42.81475094300135,153.32147102904946 43.85124503125979,155.874071467278 41.47640122276532,157.22064596496432 39.46466280806359,162.50673340801416 38.1973806398559,164.43329916923778 36.46201622606883,165.3792159543557 33.79186110275629,165.53047351951204 32.48810657868745,166.45185739635747 33.07034999443761,167.97194290670961 31.86692752398019,175.30875076756888 33.98174438794206,179.53839524446255 33.905162567375584,183.12595362868547 33.10336654564212,184.9333411623844 35.081463278335676,188.43642083003044 31.32841091959003,187.8492878099105 31.380871665300127,191.2949226782605 29.268662786255078,195.92799892610492 25.33008692695019,195.3738878434499 19.087985385361492,195.03247934683316 17.64636050823057,196.0663828752132 16.832242913684958,201.35683513843048 14.159785323110183,207.87431540684224 12.967606264167156,209.39094717038472 9.65526882416798,211.69110537420931 8.383651906960758,214.2720114688924 8.164689546378222,216.96824591844552 8.97717976162379,220.6381971333534 8.081655824005969,224.45702726875686 6.222908353313309,225.38730891043576 4.796647495773071,224.55683219129003 1.179816094161392,224.4565759095599 0.911845391907175,229.6398737292884 0.0,231.06874183434445 18.65157829652612,232.64182502367453 18.461995976880242,235.08226553643271 14.999774294244157,235.54144588165502 17.13333712136601,242.75456778576563 19.57936520933501,242.05298089368773 23.06681651705418,242.9167048606406 24.09138926253637,244.39463808326798 24.87522987560164,247.72878051558837 26.097231407039047,247.9711245151051 27.576653121850278,245.62349339185948 28.866553800377403,245.1176099283033 30.472489911242427,246.3882050378494 31.592933674373093,248.62910958985947 34.55300282437837,251.35117597680198 31.966391119845962,252.55273617814544 33.133529276592725,255.24925237185846 35.99313912285878,255.31074675610648 37.325713028359395,256.5046254130009 38.485876315309696,259.10134778632073 40.04536713910615,259.9577591815822 43.8245022358821,257.5338895204327 46.22483684424332,256.9567075677959 48.17730471186273,257.41993123589805 49.81773310324551,259.5017193278345 49.81549635825855,261.0028332369236 46.11452761704198,263.5580769947113 46.103778115274984,265.601494137696 48.38813355354441,266.8776597910677 51.71633328131481,265.5824931721103 53.83677213524999,263.36747626330794 56.04702995463743,257.99405406936637 56.1017149184664,254.69879472043658 56.94278888304228,252.95050993089592 58.421307357067555,252.88501438385606 64.99563495110324,256.12769944247884 66.61207511335499,257.4180003640653 68.11850178351952,257.2050456120328 72.15256028714133,254.4926171235271 74.037126354776,254.87523542025906 75.94762511145396,258.2881936564123 77.71116962407064,260.1079826598997 79.93000892513342,260.8964850673508 82.32429104556272,260.48653556572174 85.7282881110397,258.1874686466075 86.99048611349261,258.46852161217146 86.310088292672,261.20831204321235 87.14237078312283,262.9067586770914 86.764401491046,264.63163287371935 83.51843376888985,265.65214716474225 81.77085264537848,268.9785623049752 78.77508799801012,271.31172828069873 78.19883313075286,273.12911536069805 78.67438306671058,276.5134326970185 80.40767553946267,278.29230169480786 81.46913422867304,280.5016009491893 81.51074432512881,282.5558434449965 78.38895032099894,287.33530175405724 77.71804009865495,291.5494217398518 78.75469852326192,295.3476489910871 78.12393366649142,297.5375170125159 78.77509069050079,299.45755313311724 81.51197467580451,301.87376035298075 81.91291335914717,305.9879163629507 81.26882539577701,306.7648030355766 78.1949055451541,307.527212710787 77.78434139940809,309.29976143733063 78.78576790921197,311.47802045886635 81.48195457057848,313.31040459945234 81.38778931278415,315.6981020659347 80.351320693395,317.1539679029704 76.76644538734485,316.6722453392257 73.88159412781826,320.49232584141384 71.91430845640417,321.86668540625976 71.13066630037278,326.65921003668836 69.15710252342456,327.5992407172138 68.05039704992467,329.2985229026792 68.29506654899102,334.9283187129016 68.95755785611436,338.2812280278446 65.62688940065217,339.29118914202 63.52235554087575,340.7582828822526 62.098863714822,343.2566674060623 61.69060694483735,345.52482568770745 62.84062218053747,347.88748765672767 62.46589566897192,349.77158624858816 59.68151480876971,351.571056545902 56.777954918262644,352.1219325436276 55.828882374670094,354.8738657224095 57.809745591153415,357.8101878721085 57.4814803937539,361.29655113295655 58.32379484900122,364.8150034993149 59.887049207229765,367.6660587820302 59.611712753807964,372.00614459799476 58.66445405048627,373.8303387704349 56.96216392614448,374.62963373350647 54.75780505736117,371.88441541361817 53.28770894393667,371.9321912807678 51.46656027722765,373.48866103335115 50.27147860759623,376.80705514086185 46.76883488093866,380.04417846436513 48.043066153983,381.5016064627956 50.83493572747032,380.9578169829075 50.60924453791669,382.9665067764872 48.24168458933363,385.46228971353355 45.58690388961489,387.3456334845546 47.821647528519776,387.78968974762313 48.758381549819845,388.8915752996679 48.483263923970256,391.1643930579314 46.5610651285583,391.48194992882975 45.24258859020527,393.3635188246095 43.557136200598244,393.06719480818174 44.264981720052255,398.3516754894001 48.225897001246466,400.4879067253215 50.81225311545685,402.91205202689594 51.83887758099253,402.6406908269861 51.423063293671206,400.4412387694299 53.71123040502248,399.3352303453179 54.92405583228425,400.4955890791198 55.02341794995388,402.04184102869704 54.07282712224027,405.13193854408075 53.855246665000834,408.0904434519507 55.19963941098515,409.3132904027352 55.623286734504646,412.73924155867553 56.23099011984087,413.2850868497367 56.86246207047734,418.4075801789953 59.1862376904851,418.35168985244286 62.37853163226529,422.53666451506774 65.87147493408261,423.7171062671065 66.60039272261261,424.58363934887143 66.8919081883203,428.58906486828437 65.38279457755819,428.8527202437524 66.52879513654307,431.32362638559584 68.13613810881684,437.6503336314096 68.14401434022689,439.182497520378 66.81685858917524,440.6986794684649 66.92190565322068,443.00652024795977 68.05420985294742,445.8748065829154 72.2701308730642,449.9179741228637 72.45919574738078,450.97356851273696 74.82300972097191,454.76558528645273 76.5712274878174,454.7470536756854 79.861870580479,452.32986494441695 81.58109464748792,452.83473736921223 82.72426276217304,456.2873892888564 83.03614859623062,459.4234904321006 84.8356971882881,464.72745545443456 88.01548337050313,469.03225224282585 88.35672264356509,473.40640538398867 90.00676644430918,479.44836418914025 89.91661762131388,481.15613561176326 88.30394093852757,487.60908650623117 88.12461193518266,493.6488949488692 89.46461981150506,499.1555583056385 90.7321325655271,500.55604261511934 94.0076264112601,502.14381272045256 96.3425982007285,504.47109878930274 96.75242742029242,508.9669203201491 98.2229648338643,512.233540049062 98.80828368929336,515.2216708215911 98.69348150915168,521.1949490963793 100.1839575387478,523.2758065941985 102.47715066624548,524.7406031550609 102.841182078828,528.4842363598361 104.90877962619102,531.445865460457 107.91281803432899,534.6857955967944 107.86766004583961,536.8816046350701 106.54637360285987,538.7963607750736 107.11719536024201,540.745811620739 110.09743733990706,544.0644094684785 110.66069387002739,546.8165605190911 109.50183863117704,549.1022885675311 110.18136619500893,552.3630369118093 109.17116244696999,555.9994466260581 110.44532142841497,560.4888294049333 111.84358651184635,562.278728405864 111.91033747264976,564.2215801521202 109.49892889162054,567.6233300131078 108.30233368408234,570.104883764735 107.36578663251963,573.6968093553314 108.04412761004282,576.1056974106384 109.88662067348004,577.5564823337546 110.4480696000578,579.4766283043152 114.68320051562434,580.4438491238267 117.47537573740202,584.5206573965361 119.45779161535427,586.1135351632164 120.70639189383134,589.581851632706 122.52525048829425,589.9410578475324 125.4499410988907,589.5569948576642 127.80202716538474,590.8766800185133 131.15214907138935,595.7625774094 133.60196882820603,597.828772510714 136.47994666814694,601.817541985428 137.37354245392942,608.7511623465928 136.8682688954135,611.813693974065 137.70330966492645,614.1698288847881 141.48595365514774,615.7642460377699 143.3131789701589,617.1053709745731 148.0632135498028,622.3676714541316 151.40319812647445,623.0948139252032 155.3733045920791,626.4692290298888 158.05682710172223,630.47239827017 158.40920707903518,633.0994301256756 161.40664555126625,635.7568541212454 163.93440415603476,639.8250753476993 163.7817912458031,641.8706616167811 164.56781562191333,644.1959303441646 168.11750877504102,648.7834411727911 170.38268134059086,650.2673399097671 171.4436033369566,652.0756230069375 175.94259267061187,650.5247021252653 182.2552936299249,650.738554241831 189.63447246472617,651.3750893389466 192.8208936787238,650.5712536424228 199.87402454710448,651.4239737525509 200.83055704414483,657.5378455718552 202.32942391158852,661.630084816544 202.82903638646027,668.1951009106556 208.03457700727938,675.6724470900716 208.71264823108976,677.5379767024558 207.25952085067496,680.957630502402 206.63476998041102,685.1574058698143 207.69635603503764,689.0865340621124 207.63979115255034,690.7700472733187 209.32928178442205,692.6008221777604 209.9346056022232,696.0389878149992 208.5513117737573,698.2927957262257 207.39728991874054,702.6140395697242 206.6373990700817,703.7766167951102 208.84205069281288,707.4294525225673 211.1006091093101,710.398668210486 211.9908752151898,713.9367839245749 207.6327709185545,716.4271205250766 202.9392735314997,721.553500232419 200.76510047484257,725.2761826115025 196.5196931603689,729.6126795874729 193.8963496010506,733.4901189021514 192.5011298898309,737.30944432827 191.8392772495994,742.5513649182087 190.95720834986227,744.583198841466 191.14118592175498,747.39602382315 190.2115820284665,753.5801266383842 188.49027876143,756.9634567407434 185.84830781719623,759.2234323773187 184.78627258386436,761.6958326094465 184.32177855937954,766.2825193971338 184.81799718867654,768.0642606754554 184.36653773953375,771.3909355621398 185.49036856102356,776.2283324409817 185.58097696949096,778.7486695639478 186.92835544479894,788.9301309289629 185.3416250456774,795.0269479552841 183.68854912041306,796.3690674801499 179.2684132575347,797.8473978574798 175.675722962855,796.8217860818592 170.05034080125745,796.7417611305174 164.2236129192348,798.0905096611757 159.11157523938226,801.7273783486488 157.2494714167976,804.9464192493998 158.29382806701102,808.1954450866508 156.76140805095815,811.4184450239485 155.07869432432807,812.1153863911917 149.8006485788697,817.5691520128746 145.6988158093926,819.979401185502 143.58955066031726,821.6942728292424 142.97008366251518,823.5376550760107 142.68831033768132,829.6803341900578 141.41075165131372,833.2771620724396 142.63528614571118,834.857870350738 147.91195313428793,837.6362578122466 155.48131464784242,839.7092201412257 158.21688084512596,839.6230540726226 159.0519170347334,840.2373131607965 160.06606829694795,844.9844256067279 178.94126267070163,852.7480633355747 181.3728769306091,853.0886916368154 187.79390152096403,852.8493427771257 190.1972118957007,854.0713124515568 193.9296489410638,853.47167807299 195.86089362547347,854.2906648043639 199.26762685329192,856.6383889523271 205.4466374978506,860.2597828327406 208.85988479369954,860.8605481044726 214.49836101938632,860.9189715651662 219.11288578596483,862.6319172472208 221.9315600770235,864.0460695305105 225.41819293558729,864.945338959831 230.8271560638027,865.4130133889746 234.63540728601896,863.7440396350224 237.161815376612,863.4609268528959 239.26708020328877,864.3446002851581 243.02887981307813,864.7172009211397 245.35732446369408,863.5249961023236 246.5670951236984,861.8779552860643 250.47688200112654,859.3185448844823 251.23851376897144,857.4667502967641 252.44512379952468,856.8430479854464 257.5724420526844,856.1591237430562 260.0170210389168,853.9180578853441 263.40047173034225,853.2648706382406 268.16416325878373,847.9356733056916 272.2272236475753,847.9013734822645 278.1548689729303,846.0313749943588 279.3330346908098,847.5293781370536 282.9302759749658,849.7505656760818 279.85854788677966,853.4994613488435 277.8537660412208,864.2903994494554 279.03570649516325,865.9657230255508 277.589502083454,867.6360448830644 272.21902435029443,871.0108309137258 267.2023825795576,872.4332609548167 265.30322442001386,874.0378835873239 265.5424133953354,876.4688618453996 263.205067552748,883.2596172525425 263.43022384213583,884.8547120636251 266.95180497897616,887.2438122136457 267.56267113088126,885.6057536111622 269.39412512722515,885.4093055537903 268.91419145863995,905.3242410244164 269.74732676574814,907.9031298872204 272.59275455397767,908.880988090441 275.29450967893405,909.2085019689181 278.06036718328073,915.472748643572 276.6694267021317,916.6693388394143 278.76981345736107,917.0854964989514 277.09022044993685,919.2237581576024 277.0457601416553,922.1715607846667 278.2486685285549,925.1096872419789 277.34079924070807,925.7362756711468 280.1510373118014,927.1883211646717 280.6015753768519,928.55386436544 286.03991949446345,928.5024952201912 287.2525704584559,929.5946088289543 288.92207325874267,929.3617570777011 289.04933171977933,931.4616709277959 290.689004883282,932.4284843887689 291.04716470156484,934.7348518858568 289.97999559666914,936.4557372645337 290.0858380813352,938.5549455753204 288.24899053456505,938.8926486508084 285.94353118466216,940.912913450007 285.90425385847493,942.727099757298 289.1875054113398,945.5360828381434 290.06879690388337,946.9554468144114 290.54139711194165,951.1424982989013 289.87203115007213,958.6772086116736 288.12162423924656,962.9705567941477 285.68356158746707,967.469213775 283.75491064400177,969.9393999228963 282.0834652237312,971.1558364952288 281.228573869341,973.0246647238678 282.3665778404735,974.4832276606343 285.0083045324828,974.8464020116343 286.03111914295687,976.7080047267233 285.6669585381136,978.3560434798477 286.6833741172752,979.4706278346229 290.71080969038525,979.7216769200426 292.6287045664681,976.9635163133388 294.43292217079784,976.3678682706237 295.3960613486288,977.2238635912918 296.308029531008,976.1506167299349 299.43575503930873,982.1619069659718 304.87231890305645,980.3427816533798 305.39427991035643,976.6854933576991 307.34473839677156,976.3801051142665 309.5032882984944,977.6039612011608 313.8127005337625,975.5380230109855 312.9825999423252,974.7172535688951 315.03318604922913,973.8490250366425 316.36952817430114,976.8632846989001 315.4549975400554,978.3524805590868 316.4491726620349,980.4913054870941 318.592910791284,979.2788585261254 319.80234885071053,980.8279284864789 320.86020815632725,980.6741771852473 320.3792914717824,978.9389937208464 321.1472892965382,975.2986880807197 324.4451617778728,974.8504464501453 327.412990307492,975.3045634845294 328.6692149391927,974.1228830781981 333.4636994958742,974.5654122306963 334.60012321010953,976.7574759307432 341.07439057139555,977.3334841049151 344.07344600081433,975.8624695738492 344.00250277441893,978.0643387788882 345.572135448042,978.3626187715488 346.42042091548774,976.3738322890413 347.53648847848694,975.9938857265929 351.6378728135058,976.8201662967363 357.0809051793964,974.7999501774424 358.29719025108864,974.8100642251954 359.60062860566296,976.3309582270616 362.57078067848823,975.751774679835 363.9136476190875,972.1893756445967 363.6743219296598,969.3501489823425 365.1871899444633,968.5252962216792 366.2519094953625,965.8869681478769 369.5540544541889,961.3855519909973 371.4412692580842,963.669949204013 374.87844554267883,965.2697485734337 375.5635651480182,968.0327710921428 377.11320623753437,968.617477183237 382.1120811705167,967.8639043070744 383.20486613722295,966.2696296149821 384.81103305060935,965.754885718459 385.37629690774645,967.1036772851191 387.57028527829766,966.2604644296191 388.9044245200059,968.427481705156 389.41266642819807,970.937052925127 388.28793673151523,971.9336871153537 389.24739124374287,974.8644470545582 391.4986266850663,975.4333021171407 393.46800361388466,973.5485848410565 394.2450797557951,973.7721769336234 395.9531905401463,977.1931503599326 397.91272004043583,977.900872031273 397.60152099926717,978.9053395868156 401.567322726154,980.797698573962 403.6801921784141,980.8646858935533 410.37273313680765,976.7968561446622 414.7239212036452,975.6326173147847 421.46502875939603,975.5778526337615 430.46372258222186,976.5755290011078 435.1555344255857,976.3560154037704 436.9180085192708,978.7257042530441 438.20628196112597,979.0934151296558 441.1898105402757,978.4131921876603 443.43862509649256,979.1092990889231 445.22415435714834,978.7783348047734 449.41304248900747,976.823018267035 455.2038674424241,975.1183191399788 456.8372469441234,974.066441008752 455.72819001542723,967.5770769517466 456.30995273631163,966.7906744298417 462.504535747986,963.398704359003 469.43688586411986,956.1764773092278 472.0445515391117,954.9070377758934 476.79649968068975,955.7400250858058 481.36218799724173,957.2124937415489 486.0402383617922,956.7518706396235 487.04624496712256,951.5795772597434 491.0678332778199,950.9809037035932 495.5315541814556,952.7967896170088 499.56165966216184,952.9212813045524 503.8481024795947,952.089873018543 507.049523856892,948.6539195717015 518.7141951681201,949.101298903807 524.2902388882709,948.2707695847466 528.0588968923432,946.1425580228964 529.7880795008051,946.2642078122719 534.1103133749347,949.3361887484139 536.7757433485589,949.5261236801238 540.3822569680594,951.6918892072588 548.0255320692085,954.1179171496557 553.0322207501125,954.3497985645712 559.6525866356719,952.0993277696039 562.3779915900632,949.649087381668 564.9569163995103,948.3080365778384 571.3004015145005,948.3120610981714 574.847138762758,951.1402063199325 575.7824244222558,952.6166054391005 577.6696761684551,959.8220985716476 579.0171002642903,962.3251417575758 581.9935383055847,964.8989758502923 586.4368043231884,967.4047987842255 589.0793755093493,967.7428489411994 590.5563576454554,969.0292951843911 592.7976659704647,967.934182746298 594.2779460772425,965.7151644809786 596.8164120046919,963.9744467094688 599.0328540742921,964.0608377201424 599.6104173036498,965.079732653929 604.5051304100049,966.6871903272986 607.5035401071616,966.4388663271027 609.3962971163672,967.3397619068244 611.1188857338349,966.2992993459283 611.7749737664732,967.4795650071967 615.8003792646249,967.7697199245359 618.4065379768537,966.1788082208226 626.8873089633223,968.2772545653306 635.0620399295417,971.6495462505037 640.8045788979364,973.5264219122602 642.9739879191076,973.8003779586384 648.3360427759725,972.1601941333385 650.4834276034596,970.7249504688453 658.782054393489,963.9499921877602 659.6910218780074,963.5790551286367 665.6728101439107,966.0800091968206 669.9174838410825,966.6711857815072 672.0363573688794,966.1476712162507 680.4452873648935,966.1356870697253 682.6235526504081,965.4148605518957 685.4015980109685,961.3960200336841 692.4988048107153,959.3092300807654 699.9955359807947,958.7033823567959 700.4854113389655,953.2183460501805 700.4976870365001,949.6157758619017 701.536211387648,946.9053970967709 703.5208258394256,945.6723853746105 705.6019630434789,941.5334177928131 708.276593394425,937.8401100446929 711.8318990229099,934.7761132382136 711.4903445891811,933.3669750355862 711.0786785806472,924.4824160448997 709.1272513439789,921.7249014469022 708.0742621141076,916.4047083760411 706.3933793917874,912.149103699308 706.3987176846316,908.0907625081168 708.5773552850352,897.71410763645 712.374856871727,894.4004957239973 715.2219015714162,892.9067528446844 718.1397197872657,888.6454677212057 718.7724385562697,883.5242760682263 719.8287047118774,879.4765296953605 721.8605942291529,876.2416225684318 722.0069557380926,873.3190585632827 723.031781309503,870.3044333308186 724.3533188922299,861.6725661700822 725.9798527416507,859.2701041819623 726.3151911483494,857.2749767346762 722.9691555167378,852.1885962123074 719.7195417851311,851.2320826742184 721.1161430160845,850.3307191056617 722.7254253200108,846.7165870078428 722.6883202628771,844.4340804835438 719.5779757377321,835.8653452074034 714.5755558461954,831.3868076629591 711.676144069045,826.5714940713779 709.2394529556232,823.9226593890471 707.5151250320685,821.214971368742 706.671393816025,816.9058796961026 701.5309239393505,811.60009506584 698.0981468720041,808.5151467658416 699.023030295162,798.3297729280845 696.8656715888848,793.9062511042706 695.7618973383827,789.7593593352223 697.3811824371221,783.6998640886319 699.1479166161052,778.2303981320686 699.9176165025431,777.2513527050601 700.0112674891302,772.9912313497537 701.0745469431554,771.8237050006408 701.9066828734617,767.6954307711451 701.565210075762,762.7790120129358 692.8632067957965,755.7450897813758 694.4199265651044,751.8170507287533 693.7052616577447,748.129825041001 693.5474642983586,742.9511643961425 690.9011050763886,739.4459420655414 690.981307498277,738.4467477099146 692.7673340494059,738.6672257478504 694.4169605019059,737.8730975532231 694.729870678707,735.9713739060128 698.9956914444682,732.3395390773428 702.3812957574038,727.4651681999267 704.4423375160222,725.9688370569211 708.6096422320022,719.7214900547242 711.8882166391029,716.0116139379732 712.9376488929937,715.6661687444573 718.0874769619711,715.5774739330986 721.1932746596963,710.3781089117125 721.6242317543291,707.5776684624121 725.1716760690584,703.1141784452809 727.2475032097784,702.1439811729329 728.9328362990204,702.2615730228167 732.5563507849946,699.7326347104195 734.9096107993329,699.1662533588128 740.6423079246143,695.6080183429904 740.8562712144413,693.5334218021121 742.4759513349896,689.8471157311043 744.3543217089557,688.9305818953438 748.6499293149401,682.7561780441639 750.1926521406149,681.3544259078235 755.4148313985031,678.6919335975567 757.0480101372723,678.4225690933606 760.5345797105639,675.9973477032875 762.3402535023844,677.9709055717303 763.4453585521196,677.8128260304754 766.3282277376055,672.3908755364175 766.6257669990167,669.1598671739821 770.80587513775,666.2010761958891 774.3199610266562,661.3411854991733 775.8628136785779,660.989440863013 777.0976712152903,658.815669559327 777.1684908999807,655.2636114656459 779.2462651523202,650.6192044638967 782.3195847610325,647.1041432462904 783.3699277985162,643.1335459032077 786.1873495861158,643.1344294817779 789.3876096068907,647.0780442414944 792.2488428122709,647.7525073734046 799.728765423642,647.3614794107593 813.4061256699972,646.0572060539193 817.3239365472452,646.0992866868312 820.4125938179064,647.4917054185073 828.3131468515004,653.6853729587106 830.314103480255,653.8808896598199 832.7881063893514,650.7725058424483 838.1289670991025,649.9518142481031 840.6450370244982,647.5277731726726 844.9623531408834,642.529362583473 847.9939639671913,638.2197175968395 852.0313919593611,635.7892188222488 849.8024043243532,631.2708821766118 849.471826209404,627.3027507399943 850.9379524666238,625.264905945139 852.9453425483055,623.7284507888619 854.5748187710803,621.3480521203786 856.9272528434154,619.6223269992247 857.9567595411617,618.1181373779289 857.679788152203,614.3793062064335 858.5567870793201,612.0573893131766 856.7342426592949,608.0873977669921 854.180700890653,605.6714489150231 853.6605052183414,602.9344954198605 856.9703986573882,594.8435024046022 857.5559734270471,587.9128363466214 860.0276651114408,584.4297103059813 860.6394032659399,579.4303974367388 861.2865522469299,577.2828252764652 864.6823153279187,575.6656444760595 866.8590533407282,572.4308647120952 864.3804844747314,566.1993127703325 864.7769638941684,564.5472782239106 867.5178574880866,562.0820378534837 866.6384204475477,561.5332983663196 865.7392092288959,558.7677518219434 863.1947292182209,556.0159549342363 862.1388010764657,550.7730475731073 862.0406275028597,546.9126485199376 862.7595423930472,542.9069400761686 865.1713726164927,541.9167243997279 867.3157287454324,540.2067673656484 869.0115194727947,537.9889653113514 865.9220371572924,535.2816680829361 864.6115145764653,532.8914689760361 864.6732824171149,531.013170444154 866.586072084203,528.0114921406366 870.1115745695388,524.6588359821887 870.4740757804956,523.4523454390624 867.612112748486,520.7025973193143 867.5740780683752,517.6555401212377 865.6764505406954,515.3285047469616 864.0941835479152,512.3865740084777 864.025351941814,510.44677847384685 861.8721093027204,509.1899302242566 860.9963028691099,506.32733445232145 861.4991105361127,504.5029327289275 860.0207144788483,500.4376163459744 860.8654349422998,497.7622999454528 860.3855383937965,494.7516762078462 862.4950412457174,492.0140897832707 863.1070291322387,486.6622497165246 863.0842633060662,480.49365680313684 861.0672062696493,477.35148373367525 859.7471740072343,473.46952274586647 859.3603303056459,469.33707307092993 861.4846172455859,466.104620770353 861.4415424646922,463.583440342554 858.5149868199995,459.91320322151694 858.0084260196838,457.1024551373822 856.5648525419385,453.25673805358986 853.2690411686073,448.0954486047948 849.2451696037238,444.75026586648346 849.2982611260832,443.2404811281458 853.3289381379653,437.1964410834148 858.7632212614616,429.76891037088615 865.3722803862092,430.9914711288318 868.8031707929985,430.9300405755562 871.2774011265146,431.64083688919163 876.8402194856334,428.75349268603225 878.8333035328252,426.4969075044464 879.0458437590664,420.73257639549 880.3640294369058,418.7229200247608 885.2008419407919,414.2441032243155 887.8221639033015,412.62849723239776 891.7858108485856,412.9355046804559 893.929768797502,413.7451273707229 896.8308219752884,416.4936428555941 900.517293995722,417.168664365165 904.487822076871,416.50647915337936 907.4348535101229,412.370459255784 908.9999216900123,412.23466369837706 913.2534121831703,415.7900971934182 914.7704917015335,415.5064753241303 917.1110453702356,412.91356698686286 922.0224181916797,409.7386662348183 922.9400639523808,408.46956092851735 922.991062612095,405.8335523014455 923.8974438351593,404.63282387913864 925.4581365623123,404.9919925527395 930.1419516973558,409.7136870828251 931.4813398162072,410.3053186884588 931.5344551912816,407.97487346389744 930.7400615593874,403.62554783752717 935.7265120324219,401.0450683689122 934.8910081349125,396.34034707907915 935.1697170130391,392.546433266044 936.5272605514591,390.90423010333905 940.7177152532728,391.5321049239835 945.9926150128559,391.56754972966974 949.3946794883809,392.90390108403255 954.0683088736238,393.1015510090723 956.5745556166063,392.6653210897384 960.4568527597667,393.6799584251511 964.8454633169316,390.05529499373415 969.1310372473347,387.514082041057 971.9729977226525,384.13472699207625 972.9122820026284,382.0361364069465 974.517853578304,380.72559295981716 973.3693402165978,378.4133229104681 976.5917588383941,370.4238258845712 977.471628750538,362.1613596159659 977.9893523906712,359.69706007800164 977.7997919840567,357.2245144755626 975.5742674785231,354.9120937228263 978.5158514195435,351.6148491504425 982.5955829194086,349.06947013129854 987.2831791259232,342.97566195717366 990.165277149136,338.4419336524253 990.2959297975207,334.72533870484006 994.2133857399252,331.6799313125954 999.3644028394174,326.2705749129017 1001.0194488808334,323.4227488583091 1002.837773584725,319.10967823903457 1003.8282931490171,313.91398497871967 1008.3250734910308,313.3637176429271 1009.178151909582,312.4989895363908 1010.0748919278838,307.7544628647204 1011.089481111007,304.28926062165135 1011.0174647124992,302.39114216130247 1008.8565819052279,300.7751946370903 1007.4543153519846,297.9846661064381 1007.3050311915464,293.19407905838466 1007.7168046861781,291.61619683093966 1010.1600165603577,287.6559793130208 1014.8075091762832,284.8680961103794 1021.1645893629006,281.7911959962812 1023.3841050459428,278.141098184474 1024.0,275.8003702197558 1021.1434814944026,271.42214668282463 1020.39096261587,269.27994265940947 1017.9043160204491,265.24769564764097 1016.7650721211011,262.2582092666562 1013.5547296518387,255.42458352878725 1012.7671307092861,251.9111899418749 1010.3803852980518,247.26138491200277 1006.3638359272277,244.52009570061477 1004.7878983651387,242.91785905320523 1003.9335095344622,240.76554714806457 1003.8889383893224,232.88304007424574 997.5563198282546,232.10199002279364 990.4826124436064,230.2738638374915 984.4819976511425,230.09211647823793 978.4504964357603,227.30617433863085 976.2343365727737,225.0950664090043 971.8806010200906,223.19292286184157 966.5493596106867,221.40143595295103 960.600050341219,215.57799726337385 959.4665749651813,212.79583835334427 958.0145345489477,212.3134027326115 953.2457841343698,212.11468173232402 949.0644059798993,210.6194216223612 945.7534850730091,210.30112828500285 940.2671584262663,211.1867277591798 938.7635195867298,210.0120798608864 936.2809768110635,206.37375945454517 936.1548493460866,204.60597277207205 937.7432877725641,201.22756048120107 937.5343488311961,198.7850353008621 936.0066639690201,192.47215815420975 933.8723032360618,191.12283723217774 929.8331654301214,186.72208460997842 927.1724388756475,187.35929253903362 923.2892387796363,189.9837837430514 922.624345298175,189.97449190814984 920.1699330828596,186.84992192771836 914.9651459522041,183.89695278589454 913.1974604225896,180.00301705795414 911.6039745327996,178.39161814402598 908.5702686270075,173.63460045593365 906.4773859551761,172.25513423245138 904.664002177257,172.2843843600923 901.1701717873367,173.79449749147125 897.3676089486936,173.12661906192795 894.9819503083813,171.97560509500772 892.8712917338162,169.42214350423956 892.4329257619585,166.4036301485296 891.08886831945,169.44118816295952 886.3501507342002,174.43587360145705 882.7816539023355,178.60619317374676 880.2740959534913,180.00403223871808 876.2357334192603,181.18362977522793 874.9002576228371,183.5126195299738 872.8490907600955,188.6904864737494 870.8062776985519,190.66337146607827 866.7352197949992,192.61004638964323 865.1092354233905,193.9744671430434 863.8497780599827,196.85866168293137 859.7881741920824,197.36637331810255 857.1472995020899,195.09198471553532 850.9770247351628,198.0944097223429 849.2859219385361,200.66981212624205 845.1178338469459,203.1445037750692 842.8926693949493,204.98522710710313 840.2155968582438,208.70589439940284 836.5052710477905,210.5352049218252 833.7306914514855,210.1112857522063 830.6699874698727,211.4544488223563 828.9981799316241,213.279888963409 827.9910514321626,217.70935876905446 828.1191542656828,219.72509212884972 826.9079980525478,222.650084561531 824.0127104360878,223.92909239317532 821.1595758731581,225.87992977408442 818.7030025409539,226.82599836549582 815.5826071638827,225.56201505341346 808.8878628389866,224.9280711558622 806.5928062701267,225.95803909743336 804.4859471047114,224.7425915108597 801.0243785005209,226.45859695197566 799.6964640197109,228.07835590852505 794.8493791344287,229.8322259121304 789.4503553982216,233.3381150459236 787.644486357372,235.1989200246361 786.7166749319758,237.87498086428195 786.4784779860366,241.84540124870944 785.294897666131,243.81265355971414 781.7029572471239,243.9569581396304 779.5724928660916,246.0559797596652 779.3780792712944,250.62786746144548 778.7875195822987,251.91250676240475 779.38072828381,254.10083204200328 779.7612181283745,258.72001084978695 778.249502188177,262.7603996474104 776.1720208080836,266.89474214961433 775.9947706199501,270.59030975253995 774.7590450535017,271.48210626939624 772.6794152692752,271.38233593603775 769.7759007565778,272.18616423131664 766.5368122801009,271.76714223349234 764.9476133715544,272.1460297277117 762.9244916926193,274.0110577698871 760.1009833841973,274.1661283464492 758.2967571237658,273.0779362894224 755.6811116369693,272.73633121489195 748.7303887933141,274.47795189497583 744.6515592599272,274.7642720080453 740.7195216518232,272.43870845211836 734.8574912576645,269.55407104767085 732.8533541541823,267.23566777058716 727.6040658978585,256.0105776530222 723.884681340648,256.9773631611632 721.0050657139271,254.50650719851876 717.810763250177,252.6265594692178 710.0097565934514,251.18234979735485 708.1742080574382,250.14299996675777 707.2988707997458,248.56782888871987 706.6794720419142,245.55022984228003 700.4887339052533,242.39724248938376 694.501474428383,245.54516569991438 690.3496951729588,244.12964792791547 688.9467901031611,247.22670248519273 684.6333139685676,248.8345042499734 683.7918162625522,250.62653953053461 680.5098969442672,252.39315141707698 676.9291386074948,251.41896790889052 675.1514294702182,251.58307464840198 673.5952666521462,249.7704101106367 672.4687982958684,246.60911280712082 671.498896048797,246.16621739710695 670.6703428581981,243.66463246676994 666.4886573992895,243.6195724048838 664.2107589287215,244.7250023871511 662.9546006792276,243.9082778229224 656.3076020410792,245.03131002788007 654.5414546382669,244.8103329697326 653.269792106097,246.51878680169057 649.238397077643,246.26063392511514 645.1653311990591,247.39143197506473 642.6294528200765,249.88085972401836 640.3176733276109,250.41348568092326 637.3551050527211,253.77771268986794 630.5284514931001,254.41113969238404 627.9892246112073,253.27872481950067 625.9200860263057,253.2362012622516 623.9401132419523,254.26125163559686 623.2137497654844,255.9171579745764 621.01902421888,257.29185614484345 619.5535972822631,257.2674591843395 615.4222568943787,255.88954819768492 613.4830654590893,257.2808791550324 607.8987746962055,257.1405746935678 606.1034729156789,259.2376663236221 604.2423087421937,259.06365229020275 602.7688650911168,255.91993470123907 599.1974503422286,251.97292359400535 597.4309163886464,251.06036897186573 592.7186833810212,250.59144500464697 590.989631328699,251.12094168919748 587.0329284468486,251.1177808242271 585.0384924724925,250.28847189636758 581.7136452933872,247.3337744838276 579.3303780209545,245.83071972736502 577.1530525708614,243.26715589647165 575.7899646237823,244.26144415898034 575.2974033541985,241.26666456740213 572.3532557390761,241.9665772735509 569.2704679092889,239.8795359354466 568.0000311454833,236.15930481606995 564.5504485437647,232.99408914710227 563.7412227270052,227.64260906125674 563.8251267931361,224.56602275037153 559.4985552650776,221.2669754392632 557.3847328160575,220.6992407567285 556.4678300318176,219.16123933239373 555.3448923279078,219.33275964373547 551.4347987620075,217.50534192579642 550.2970738435465,216.16840022158397 547.3815167679272,218.6332204108934 544.1533286979056,217.96209334650905 542.3692923255841,216.3085507084213 543.9177260772854,214.32413062448347 542.1358955791675,212.25659072356973 542.5254108498096,208.93448862478522 540.2345299630613,207.11695112616894 539.9649547398803,202.60097866549427 537.8319587357843,200.9871614825439 537.3364554820234,197.44055423607585 535.0286224949626,195.87911495118476 536.1683331617224,195.80596848777645 537.5704996337855,194.19138778820115 539.0798099142706,189.50450447113644 538.9826420959603,188.3370663828423 540.9435615468711,186.19913558996984 540.9710629455673,183.33050680584302 539.9121990735456,180.49693595758288 541.5059622632733,179.96408488263694 545.0202540968722,177.68614249180894 545.5610089868658,174.08302734298513 544.4998391425834,171.62551510174785 545.4772771995007,169.85125854600255 544.6191810760631,168.75972894248548 546.0751030935404,164.44540832088023 545.7252246491678,163.172519981272 546.3489213609644,158.9120051657046 547.7278678759473,156.04720619847126 547.0798291580797,154.45952765670643 550.2891751849276,153.73967580506485 551.441626932716,151.9020806326323 553.6179162652878,151.74147195580883 555.3184536462082,150.10880617859277 559.0979282697662,149.43704588869377 560.9624258663982,147.10781284507243 561.1277823102666,144.07710326194524 558.940854612545,142.25402675570456 558.7762603680658,140.2871565424706 557.038043809177,136.5377700341561 558.072029777245,134.5572429309533 556.8790763660176,131.71244489631545 556.1109178113961,128.40520851042663 554.3385770448666,127.10831447070154 554.5433487067751,124.7496253074363 552.8478786348566,123.64131217385204 551.0612776366104,119.44731158001821 552.2917011944971,118.0949029736339 550.5626113603288,111.7437657779949 552.3487234807341,109.61116404174038 557.5174558255051,105.41506873500873 559.4426155140292,102.09330569862948 558.7484576325047,100.02148512693475 555.6781539661796,96.63591813610412 551.789343937392,94.91011467383305 552.0479398661186,93.18231317280072 550.5794350449668,89.01798228906807 547.9002547238186,85.6243740484781 549.001633682466,82.75100232786735 547.6085313191047,80.46216911991212 547.9534667752328,78.916051083929 546.7701825600564,75.14560657551544 547.1834067285655,71.7392291162048 546.086154635288,67.51759101382254 548.142394909438,65.24699956516645 548.5691207425127,63.33817113493649 550.543400495603,63.41015101022049 551.2850485544213,61.26515758193352 550.2318786236402,59.23276321917899 549.6611810817271,56.200934558725066 550.002434065714,54.08332850383374 555.3338373063001,45.84591551577171 557.7442053514848,42.69834166558769 558.7116399557883,34.91893135460134 557.5475705290411,29.200003231592405 556.8560321163807,20.432686814914064 553.2580087941668,12.069019842989974 551.3346178564433,9.438275281121719 547.9096788278077,6.379415703732889 543.658592054083,3.224269462236407 539.9962050634099,1.5645107962560587 537.110662688693,0.95221556302522 529.3587339728939,1.1845074442010173 525.060963902539,2.4879118112992273 519.671670152309,5.360888936020956 517.195178674283,8.011976239672094 515.3263667626156,12.128582590866586 510.5876285789211,18.391983590478617 507.1394574526968,21.316201285233205 504.4908727548157,22.21855486552829 495.3014878664418,21.278768857252544 490.7763958345554,19.40399987611613 474.74145364302404,7.433380729288729 470.4176385905201,4.401408529428977 468.33727217922024,1.9123984969755838 466.39519838015235,1.1925714360289703 456.8370931934635,0.6410324517141817 453.68515024636275,0.0 448.00668364413684,0.9816665454692384 442.4184246576914,4.219030195192886 440.3255854068153,6.634880864338697 434.9503497948665,17.59097974014037 434.17418667389944,21.081402435653672 430.52693727744,27.279048020915866 428.0151868520018,29.325055845460724 425.0063740281923,30.92288430918029 419.235974725168,32.75739429614475 414.2808285336238,33.74988644015309 408.899084930685,32.770034364412595 405.2828617382674,31.264631225037192 402.75005336916274,30.768770340831566 399.7020634035742,31.33937571916408 392.7899512479158,34.93854140820031 390.9978871971511,36.24035459770448 388.3349969864003,40.083532215113564 385.73613138689024,47.614083677058716 381.9192866094419,51.992943592703455 378.2975509648921,54.4575936777245 376.1117427640811,54.909150513925965 372.0569429807751,54.34323917402753 368.2295906634061,56.158933508843575 364.6358426484533,56.19910378115276 361.084125511913,55.5226197292543 357.68854888478495,56.06090666862042 355.95658033903493,57.98624594733042 355.47996060169936,62.867669020001244 356.21885846105454,65.32585724834655 353.7770323450698,68.62582279461253 349.7091326157916,70.56146524472285 344.7582640248903,71.67054209138405 337.5561931093188,70.57704005954213 334.46692811691736,71.70702153957359 332.5252707981325,71.60338937477627 331.06048557541686,67.89866873030155 329.3125879030172,67.17203727491676 326.13436650824514,66.99863598117167 322.57549718527673,62.210251311371394 322.7469599907777,60.727606375756295 324.52247982827083,59.68304583434974 324.3167628499104,57.51886122325527 322.66301013303934,56.4480052125748 321.6592779468442,53.36052157450149 321.16929881868884,49.60098611725118 320.12946634718514,49.14349603287087 317.1594226736265,49.49749412396943 313.3626244715329,48.83126134468159 308.31236934066686,45.875539483688044 304.95170572350554,45.035381436109105 301.63805215865074,43.70298259514345 300.18588607799205,44.27506933864993 295.56453587712826,43.77795683041563 293.54727655579177,40.113934179198736 290.5869538523779,39.85810352340411 289.7923956876274,41.880601231346986 288.1931608025925,43.82747075688383 285.80537171771846,45.41348581089676 276.5867149946255,45.25237900431853 276.1039853111082,42.557947979617325 273.9948129152608,45.008426191132344 269.67622185607485,44.65780727912443 268.47410978439694,46.62675624611188 266.3021874488511,47.28463743948282 265.32269146874347,48.72932955003262 261.4904127233148,51.27014669550863 257.85453082171523,51.01070510463387 258.09497147997035,49.32424750197697 255.78914193162313,49.404155126642536 254.79564687558147,48.20793560266702 252.60831895512854,48.68600429997878 250.56008195156872,45.66208411886214 251.48725095374118,44.273619438901164 248.62005976833697,42.15708863525481 246.39222530098948,42.97004358165589 244.0758557002588,43.04934735658196 243.41277411666462,41.46085611334183 239.38703915221018,40.645104603692516 237.99779729095246,42.97276470684619 236.658013930023,43.24221267990629 234.21916213036073,42.096446922058476 232.81454025816123,38.8063510332787 231.68531430894976,39.231150735341885 229.80111100071122,36.49808471883614 229.78654022837046,35.11770751407164 227.66218968366923,34.68231010792408 226.07959759223905,36.38116735322092 221.63490598719972,36.73333355887212 220.62222990343616,35.80197630494797 219.18111321661604,37.84192564644741 218.38632686164124,36.534534681783725 217.44559413083948,37.40867512297223 215.82578356286615,35.05868292336481 213.84859454506122,37.82005013313358 214.5007386655989,40.62008236310021 213.01844110557,39.632916699777866 211.55020984191182,43.36644163331721 210.7209080455478,43.3888908566928 210.2979802100772,41.05779837545231 209.00120658218012,41.86189646522655 208.30545632036444,44.57633323729226 206.88804289654863,44.696302163312 206.775315667164,45.89513429081114 203.0852075762269,45.15822110116176 201.37875214961656,44.143370129723735 198.18290291026221,43.60217659787702 191.5258259848619,44.55771294677629 189.13528577983905,45.90476339154009 187.9421397751043,44.25617087161868 185.8030804318086,44.559177647136266 187.016345245367,46.787217972131316 186.32842660861138,48.360633354229776 184.26215125382467,46.49584696090153 181.3583882730912,46.682167839296085 180.6163361205889,45.05075021787161 178.4545434232844,45.66572131966302 176.88683156776662,44.805349818791456 174.2189615942157,45.5710796990943 171.86102381126778,48.94810808379623 170.85843974682672,49.51412070157505 165.916362407325,47.95528612995383 162.7303979493294,49.176782114989805 163.17656780950685,47.51558919179149 161.55189244728774,47.421682152119956 161.0961352659346,44.33140697141164 160.06385255037944,46.068261216978726 158.92092182462832,44.442762156133426 157.00745453546097,43.53039819617118 156.42871578561488,39.52975132289566 153.95161939375697,39.513035904871344 152.58158735572385,37.98813867561978 150.892063643679,37.69288320080375 150.2974592804754,39.79021016379363 146.73255122575466,39.83523483439717 145.37001214051278,41.64013061584012 143.12606315557105,42.005622184125855 143.40919304245062,39.44358834350214 142.48598471849118,39.21450607419024 140.28558206165636,41.24716935873778 138.33505932295833,41.10184674335403 138.333874533021,42.90498582696466 135.17405270440543,43.67265865195634 133.49531606673648,41.297615630302744 129.3617628782,38.878927372963744 126.56069246788725,40.21044036204307 125.11398082471702,38.563148002776074 123.2340059521753,38.152334419946555 122.6744365704572,39.22709058728094 121.28503626618507,38.84415895183406 121.93702265197986,41.89086591625596 120.96754029269336,42.68548704811417" /><circle cx="81.55111834485118" cy="226.5693521642478" fill="rgb(100%,100%,100%)" r="16" stroke="grey" stroke-width="8" /></svg>