<?xml version="1.0" encoding="utf-8" ?>
<svg baseProfile="full" height="1024" version="1.1" width="1024" xmlns="http://www.w3.org/2000/svg" xmlns:ev="http://www.w3.org/2001/xml-events" xmlns:xlink="http://www.w3.org/1999/xlink"><defs /><polygon fill="black" points="805.8623676251749,1024.0 822.459221404972,1020.981525212528 844.5364319812419,1019.129237059544 855.2884183143831,1009.1368959945597 863.3894932418109,1004.7136891895026 873.6900639527594,995.7467800526948 881.4519628800284,985.4576213027528 885.0317937816153,971.4926728925709 883.8158084182945,959.3196826880011 874.3553637574098,941.2477514979851 859.4182155373236,913.715417456509 858.068541088669,891.2294546605349 859.6910029727776,885.7377095214747 862.2393635793695,870.375322990894 864.9927709135718,858.9197515712506 866.6779881928084,846.0671628762989 863.4007270614851,832.5254873156025 855.7931334866436,820.7307916597349 848.2262632607129,809.421952007616 847.9752115798067,797.1868872767498 851.2724051641651,786.1894416032859 861.8445523762205,773.76842606467 876.3750062571107,753.2604486197775 887.6304519115001,735.891724461336 902.1821097943298,715.8803517401534 904.5392491507814,697.5856761622373 907.4887026492037,689.5638826495478 909.2952241644064,678.6794248202975 907.6457707845524,667.4880883675046 902.6239145905399,657.4833450499398 890.3770760020152,642.0474568268171 877.1235687222265,634.5054139299176 862.609331845911,614.3072711913333 855.5208110290412,602.9735427942111 848.4582043861319,583.7817699953176 835.8434900666741,570.832735814434 818.2966299239906,566.0427010831231 803.4641673966104,565.4981455912277 782.8555857143225,567.2930954579372 770.7257352157199,571.0019045828592 738.6800936746968,563.7245060821708 723.460458191942,557.3341306189401 733.7844569568767,540.0173644469752 724.2229240126076,520.5007248719278 692.0131319331721,494.1229556579922 673.3638913777215,487.9482668601146 657.3097416290775,483.5584293255499 638.568434500755,475.43786223664915 628.2166995920984,467.7305357769334 613.2254902533969,448.07101022695724 606.2111425055981,437.71923913149453 592.2945779347461,419.44774646912435 579.8664154225113,401.09339395092843 567.5988140025265,385.64214158477444 556.0035509665101,356.43061797393807 559.0394067856994,341.5399546635076 571.787865956313,332.44227569049997 588.4741124796251,323.0787364692119 591.2316355341386,317.7521074137817 595.0176486504147,313.93366212004753 598.7744461414076,308.71014462446044 601.4716094545922,303.5298030648454 602.4119268120422,297.3219670216314 596.4514865806422,287.41390001236323 592.745468761651,283.64750950845144 592.2157315097677,278.52531479931724 590.5468854675318,269.1586226641034 589.4185703114802,266.1763528044419 582.1548364583979,254.81863851858714 578.2331576014194,251.48148629419677 576.0327823905295,248.30328414852602 573.8634818463594,246.63465773215592 570.9308566727391,239.00051647238593 570.4236776820152,234.1149229938727 570.5311776875297,228.7745417208314 573.2871924115574,216.74925396981405 573.6464259536118,212.6939096898568 573.1784218736202,210.13161985198997 567.4486498258772,201.48465475291312 560.4567507068741,193.92499516243277 555.6047889424201,186.11627830155953 552.5003999366904,179.77772877506243 551.137104104471,175.93490592847616 550.4052980317217,171.05598669696326 550.508709808117,165.07700694797188 554.419432121016,157.30709056502087 559.0488942556892,153.37378679157416 563.919860157709,151.14642782223427 569.0660077896923,151.26728671114108 572.5616354235021,155.02558041442842 576.7982789237633,164.14736555674233 579.0749566742096,171.98714587918266 581.106959385873,176.6619046249258 583.8806322045298,177.017023755654 587.7141913183416,175.6690746044651 591.5280805477136,173.45415816157606 595.5344187422522,170.38710844047966 600.3753928199155,165.80734281349498 602.6629223347531,162.34206253324544 608.1064035953044,155.37625395871953 609.5218251312683,151.30948267377062 611.110343883318,144.6500542694796 611.269337536586,141.45744325435157 610.5563109550147,138.0565348736552 610.2250001079799,132.0671895904294 612.7954828747789,120.49544911407395 614.2494280331,117.89535202416073 623.4989078028854,108.94193387166865 624.9404997198508,105.27815657189058 622.941333468918,102.1220537620909 616.2041475860378,97.13366367823585 603.8846017012241,90.98149156147588 593.8224770953004,91.61314199588469 589.1157289611793,91.26835351209616 580.9770736003993,91.43643859493295 577.155718943121,92.78409165990433 572.9519338869347,96.70930867405264 563.5552530684802,109.06769810217907 559.7202390990718,109.36206047344126 557.973808999849,107.47957639453432 557.0448557583683,103.64927349139805 554.8398797535182,100.05228270863404 552.3817460400107,94.34352977679316 551.1941014705217,88.37380718456473 549.6111751670973,84.3624473745349 547.0733923160419,85.27086670328038 543.7183968679017,88.72295553581364 542.1892782075045,87.25883884342716 539.9481998221432,81.11399885572416 539.3942475793153,74.29393666987971 540.750937610038,67.22132877919591 547.8903940753524,60.2464208444037 549.5367145541841,57.675044296404735 550.0726035864968,51.65939275309984 546.2859565066045,44.05306635428826 545.3854056347121,41.08940297502761 542.3167684418177,36.86266331998149 540.4928308732107,31.132286643472526 543.3424281379434,23.39044690509604 544.0537790748846,15.683667427976843 542.5149905580213,13.796823429566643 538.4261563305522,12.158494966389185 530.9334735554132,10.578649377365764 524.7273089030813,9.640955719689487 520.4439837024701,9.50141616466135 517.0447611860067,10.208991173559866 510.5861781813079,18.642752005828584 508.54555939445834,23.58209314004762 506.045570150095,26.40736823020029 497.5221255092474,26.54705933866512 495.37400131759034,25.74436886373951 492.50408242478215,20.874052723621844 487.2994142081096,15.418257608767135 481.2341955899825,10.1781989332095 477.14187500481563,7.47675311614762 473.9418579622366,7.7351016726796615 462.851368104987,16.82531731641825 453.0993881638826,17.82443222946472 441.2907190719901,25.370079689750582 430.36220843965833,31.40220742300744 407.38180044295757,32.72890287992561 394.4021943873159,31.260459197595537 392.1439678316047,28.07685585062427 385.4612187686357,21.140729300919475 382.25751562178135,18.43032647537632 376.9039262296676,15.738006838448996 369.7107859260335,16.062945840939733 366.33789887965446,17.20034113853353 359.5696156664194,17.96090749354778 355.50990586310564,16.31738312507423 346.2581517985565,10.915736680692476 331.88612846016514,7.4055920618689015 333.6748737183229,10.289227713817354 339.0065502214616,23.22336848188627 339.2861552063629,27.48574820170836 338.7092964283856,31.766635753789387 335.29866222586094,32.46190966924394 332.7199538221305,31.231662938819454 326.87334506024365,24.93939084993076 319.67811477532433,16.528018885401366 299.4787353099425,2.7938343808660875 295.16433260285254,0.5128247451510788 288.4810412210383,0.0 282.9012291290215,0.5491192080177143 278.2191905596705,3.204362631288859 260.5563223246032,14.833554585342313 259.1166642231259,18.07923293215663 256.881030383368,25.59663691531034 256.6495175638529,37.36784687954594 256.1151840254328,45.06075661201896 255.07991297034022,47.21593456968708 251.73330636356357,50.84509224132796 247.3599594548378,52.72037502981402 244.48596281961122,55.54817593778307 240.58362012170645,65.87494317392282 238.03834683084511,67.44701544105783 230.781054880027,70.20163430648904 226.11856349029907,69.65735085240249 217.53367944356833,67.08316598096633 207.37234757064058,67.10256247804114 206.4329771133427,69.63795271472429 207.4895046411391,72.58755534679574 209.37465841311183,80.83826575958426 209.67433599950778,85.37157796991232 207.02763144466914,86.80186758018135 199.3889613212486,87.10565965221338 190.58001787352762,88.07110442304725 186.38643602274072,89.0229156762399 183.6058797846124,93.64410031698287 182.64732982758443,98.61243392583572 182.36309757452102,106.30461305816073 181.55099749799433,108.88877387447133 178.31477788058712,114.29126563253362 168.1205566499607,120.26339132165492 162.79815069647395,129.34686053248652 157.4787700459399,143.64155199300296 157.12602302266575,152.12936060513766 163.97736027712543,162.71984216016847 172.85341513430342,179.81786283746453 173.3335653041779,186.90026414865736 169.57235564440177,192.34608420268466 164.5271871456151,197.38128952459112 156.6281101047303,206.15392587917017 148.0724502993563,214.0899161097824 137.1324437864032,221.73889620048317 134.62486383103985,224.58139925159196 129.53218925897878,227.05750348000277 124.39766644309893,228.23132660159945 121.01922194913438,230.45039846988414 119.78551572983407,233.2594429993859 119.41719050306615,236.49743981828476 119.9066094603655,240.11327230749055 126.26257824568332,247.67271173198378 127.40055557971574,251.71061417404337 129.84711404526686,256.58391912688137 135.95675393666806,262.43231421675273 138.39583068386938,266.86138506744146 138.58500905570793,277.98137913843186 137.47495968882896,287.8536364453943 137.98371405579832,291.47975993788214 139.3088196379656,293.8013407374116 141.9755149417959,295.1699695731668 146.68035189695405,295.27201688685034 147.80963970659835,301.727702795562 147.20302556890985,305.28184165062214 141.75969190829682,311.070700021433 139.68504524105796,314.97127042630746 133.34005976829243,319.40249944039203 127.61071424037311,322.3125523944957 124.24306117147255,325.834231621403 123.76924056833865,334.83005494491636 124.5447518252172,341.85381700613414 123.63495524590247,350.8573265805928 122.08794655174117,360.1027302655323 120.51011499058949,367.61224748455083 119.2715632673682,370.2162542731753 114.58801117054264,372.0244481527534 109.89033731299831,372.55127597770115 96.82793757997722,372.4299117230024 89.14078601074314,373.26678737639975 82.7482462916989,374.68946858085746 79.35095291246529,376.04066109572045 73.0338281554449,381.8249910526482 70.13306167192422,386.2877116832209 69.99502698088908,390.37153298445753 69.20051648965976,393.58891688758354 69.46554474114299,397.4308266194413 71.85851030104209,399.10441490140647 79.04892046804511,406.62788679394316 80.38515507991401,409.5926112328874 81.84608144034554,418.5587795014476 81.09695227001558,426.0469464477594 77.80984972126933,432.7397924810797 74.19872718958518,434.953089734345 63.35461086528838,437.75684933911987 58.23115551737905,438.3192967119278 56.78886569166748,441.310669828114 56.949583967186335,449.66291358405783 55.98741319400081,456.29598159054217 54.54596223144852,459.349242294159 47.76499848811521,462.6927607742133 44.38045534722524,463.825033556428 42.91299403193657,465.97093544241864 42.13358917091281,469.634229197438 43.12822107636554,477.9508068688423 48.44155316254826,487.89129249644577 55.131244146471026,491.81939432981517 67.16942216454059,494.5187914561724 70.64692508937465,497.65379402047176 71.36091744803994,502.3165836344158 70.84254468668543,508.9740902441433 69.24186428615471,514.3282625243704 59.272336669024966,519.9205775788832 47.7983976991794,523.7888581432416 37.797509946267624,525.9268546554142 33.71307371773107,524.9414706508078 23.653818111414324,523.6538933582389 14.071630074480018,525.3561382390851 9.425035539266197,527.5767848037834 3.306695381857542,532.1692184274166 1.0119602906131016,534.7835058619767 0.0,538.6383680516165 0.35996327270065903,546.1008073331285 1.5232432552252635,551.6361493690215 2.279290282343262,557.7998247191745 2.6119409374088223,564.6433650023769 3.7895235395845073,570.6141302000178 3.668537945268201,575.7375359085504 2.7236137538101324,582.5812181640409 3.2607943670745763,588.1505741908097 2.4603815304335828,591.7754790594462 2.987691380387551,597.76786306335 7.598403618483469,601.35289948928 11.698310508933616,601.5421564681852 17.19920599797468,603.187645991354 22.037523530307453,604.1308599481845 24.603034290983178,605.2150093415046 29.066486496834738,602.7899777611225 31.427186499004932,603.6190793353222 31.970088293790173,606.7664031277607 34.51507684411253,608.2351722233002 36.59380871705849,615.8477009775015 37.56832911563137,623.0753773531469 40.683898281977555,629.7817431757335 48.16224128605484,641.9385636474278 51.50501742341131,649.262348635729 53.11155368636576,655.1357773614835 54.121405153765046,664.3745962302856 53.31234808837595,678.4776374950404 51.65969490815096,694.2651941045249 51.53808172790618,698.8846362784864 50.53709135528975,702.8890841387097 50.863143452349654,708.7331591487921 52.173674861584864,710.5965612982452 58.91089238897094,716.7665270564839 61.98005953635971,720.7225739486975 63.00042168496551,730.5335131082007 65.07017590567567,738.4619645975195 66.85282262411866,742.4400282374407 68.79393849170789,743.4638232540857 73.74089082152442,744.2265385033533 80.58433791982475,743.9120017057901 88.10891363315334,745.7082657185183 85.8995789358633,754.3555261060019 82.45839714740495,761.5204963107989 80.76909895967489,764.0655260066776 76.91415513310473,765.1165982342316 59.1578219726017,765.6097204387783 55.517004140138184,765.4648911242018 51.672837986931626,766.1606392834807 45.30759273886021,768.5394815893801 42.74825402353702,768.9760465474764 36.164334767839534,771.8131339204548 30.26424519976777,775.4669880468186 25.663278498955986,781.8216030335891 25.077369165661217,784.7958078679247 25.19109802686959,790.9168145585002 26.333647602345597,794.6989577544127 27.28714870405811,800.577237025981 25.132866808775887,805.7840982617581 32.315729089370414,807.0720279350746 44.75178657661834,809.9083243584075 52.46044715548719,810.6781221081262 63.388089793982004,810.7388787735783 69.77283297235883,809.407675510983 76.54130710009287,805.0732352950798 91.12619787246426,791.0609988392894 100.42676436303032,789.3875269463346 117.41584586849385,777.0629600787289 129.05501999266824,765.5460039942297 141.64648125903517,761.821689207284 149.5062819526618,769.6811244048001 155.66023193728202,781.5493454135193 159.58736004960733,789.6424730472881 167.43203911530108,797.0058926993107 193.8797718064279,802.209813109687 195.81027651533827,801.6070116018947 216.47852392592088,800.8091448578609 232.48000346979885,796.3837650967008 236.11592039145387,791.2514364401388 235.83959254694062,778.5207518939415 232.66126626035836,766.4473743270637 231.20674252084171,750.8419963316815 230.03835944169919,747.4865805399296 236.23197125282903,727.4851342144436 249.9169281399105,709.4733767450102 259.37826428751646,694.6777262623716 275.3579986788942,690.260653979255 304.73804213354,695.8248968836933 324.0755892023324,706.4385378176158 343.035927378882,719.5347136213329 357.3304908882094,728.5034373110443 371.2198727151645,738.9695465666102 374.7404610252818,749.4578719167697 377.3066345936373,746.489047278935 384.6603119499189,748.6357728325187 387.8826229497297,754.4284619788103 392.80027720257755,750.615409010602 394.2166274972821,757.2180206972555 391.3843085087512,757.2190606569786 385.47050757611447,763.9218016611617 377.40794371108217,764.5951958930063 377.85343056621707,767.5192534176542 379.38685536178474,785.0725589243323 382.4034304374615,794.226918733241 388.3775240172786,795.8318369733843 402.3638096568985,791.5837845061069 417.0412805466994,790.7300062529916 429.56532443050736,794.9019893037166 436.6126488069675,797.9366994165894 446.22749212644044,802.7749525776737 456.6206806183397,812.4780164513888 480.5754774460483,827.2637911346374 498.12081813098945,833.1042699034182 513.729105410521,839.5518516885925 533.5306511739847,841.8191919268663 547.446833662522,844.420729533386 560.2298672085627,852.4886901869097 573.79376353419,865.4099386656196 583.6699215988428,874.1268745139114 601.6405025645986,870.0879151522968 615.145396071844,865.3313998399021 634.7025891752984,870.4965586306045 641.8018388174604,872.9512182479361 648.0296201195644,879.0122673059735 651.8107605725429,893.1619994729876 666.7127151638198,908.2205129221843 688.0163200440378,924.429354320412 708.8346874186883,929.800876569833 710.8434044804061,931.6040021269206 718.5483109039345,942.3542490619141 720.5320832767676,944.6555077523012 723.7834139900754,946.724784481468 726.8344882606797,949.6270635720006 728.7917246856505,950.2690368560651 736.2681512874165,958.7527019431559 754.8674124283809,972.2895173010838 768.5714640016696,986.6238429381551 790.4115648555767,1013.1967445535042 805.8623676251749,1024.0" /><circle cx="271.7156608864724" cy="393.9583837305323" fill="rgb(100%,100%,100%)" r="16" stroke="grey" stroke-width="8" /></svg>