<?xml version="1.0" encoding="utf-8" ?>
<svg baseProfile="full" height="1024" version="1.1" width="1024" xmlns="http://www.w3.org/2000/svg" xmlns:ev="http://www.w3.org/2001/xml-events" xmlns:xlink="http://www.w3.org/1999/xlink"><defs /><polygon fill="black" points="360.1516777410369,8.019093710140965 353.8475371121614,19.65305904239426 350.43643096179636,34.32731895790255 349.797350002008,50.461694065231995 343.96479648277295,70.10463865777251 341.7155221497817,86.32204303996934 339.6201573795716,105.22327513443622 334.5964892190105,119.99412336385842 330.8213962215759,128.79212404238763 321.3667451573431,132.55405971119978 298.10968890117596,129.0913760090633 280.06162487127483,123.6970557516654 266.97805077726883,120.16374984455683 256.8497274823109,121.2880858901716 251.04361341858353,131.81570384530494 246.2451735922779,141.19859892318323 240.40664551024759,151.18250766829556 231.3483246004997,161.36776120197146 221.60464550389455,168.895064151601 192.8101591194998,171.6189320721918 182.87281025987153,175.95901129828542 167.83620228677853,184.87833133854997 157.0199181309147,192.4710399939387 151.96892098157156,206.71573714368003 154.50170189181586,222.10746030682265 160.98059761190456,231.91888688754796 164.96704439767908,235.966707045102 157.7598588131872,258.91197769573375 147.87636567704283,264.3272344764416 137.47319938940845,269.75155550296574 125.21965334942162,280.65992049085264 117.90002973452243,292.8863903083104 109.52917071506404,305.717719167142 104.41589563689355,310.3073606746753 103.17208718114854,325.39531125505573 103.48779373898404,339.8407345685377 106.55742505901136,355.2183426744864 105.65285457478558,367.0647931036386 97.54389498588657,402.39696820484994 89.55970333321311,421.63658872359434 80.72017042052316,435.5693304310016 71.8376596185411,448.97480936668507 64.46722985756732,460.6694874135136 49.99309508737297,479.78610969552886 37.64038927166183,489.1136012785951 22.6826950738561,500.2116196392103 7.130438447925005,510.2848396845496 1.9573688745848894,522.9295683702956 0.0,535.3794675621684 3.0248123548159622,549.6714110956082 5.638548200360628,557.5494266645624 14.346384126491278,568.2718305884614 23.16487953295565,589.164031605302 39.58268286340717,603.1812947571386 51.99390412360514,612.5962862511502 60.84718677244689,616.3466373585366 72.15674373705498,616.7446725297922 88.53944347672316,621.1113266692186 102.28735929711084,626.1852134944054 114.73334329060611,636.70892162868 122.21611303815219,644.8394207303456 129.63442782233017,661.0144393632057 148.3508595577749,669.0210759220911 168.14714549942624,667.8743564631916 184.34968841985574,660.4879255846138 191.61761470629617,656.3183968947017 200.3152990400527,649.3859880450786 219.528678114727,647.7332905087316 233.27323431491524,653.3905261263734 255.38799340810652,664.445151794196 276.57563897121685,678.2367969213959 289.5661936879822,680.1625826688661 306.87197045552307,682.3844679831973 322.54173898207364,684.1416711815152 331.772688950314,685.7640578548734 348.9480823916113,694.9338498652917 363.0609389100851,706.4359922367632 372.93027000195474,727.829732352788 386.56280258150116,748.9899179646387 395.51033969824624,763.9977378364781 410.06549937209746,782.4279300784218 423.79195237807716,796.0695172759971 434.63231555298466,806.6632585609831 446.1521723463828,810.2419666524092 469.433908358509,812.0232689100535 492.0506157594809,811.6955003954324 510.6386486839541,806.7831105490174 524.9617872919074,802.663660338156 535.0019252414345,799.354896473492 550.4396810825236,795.7053451072794 570.2994617050657,793.9142783812118 584.2577125877293,792.4846026984908 594.3697602004023,790.2448401770971 593.3961493012829,776.5290150170787 595.4993154045135,755.1967293636133 598.5182256694479,735.5540374366057 588.9265583860679,734.1065127945218 573.1263112239671,729.9373564654414 564.764083802886,721.6182938922899 561.7370098434594,703.0145770348863 571.98254641846,686.759013376521 588.6635137126129,676.4847102368088 600.2120274206877,668.9521645992718 622.5365661818876,661.9154744840813 651.1337843226567,651.1544661173072 685.0216213883881,641.4706496845182 707.4178869418964,633.3990317128043 732.2591563660751,627.2045260832547 752.5301008856602,618.4121598092746 785.7550902599335,609.30932517307 801.5637984070856,607.1255224740191 822.249379147111,610.2625594073239 833.4436630013546,616.7748494675598 835.5337353665853,622.9036024952936 845.5897979832599,641.1281917929696 849.6824500562022,642.9138559600744 847.0231156186888,643.4098823519325 845.3155824531042,647.1742350399929 845.6090901868162,648.4097509931265 847.1919017920649,650.1207671966415 850.257503402462,648.9806177387587 855.65851829159,652.0817073254219 856.4045185045663,658.4458127682674 859.0423059392482,666.5769616695925 866.1409326498143,674.1060871288798 865.5273300076994,683.2463099410026 868.1614517422967,690.7634077326518 877.8905508465509,692.816512911945 889.0355900697871,682.2785789842565 901.3975651637587,675.8121734875824 917.5980680689817,664.072161913507 933.6067586063521,656.9928451306216 937.8589026487471,655.3781750530418 937.8583794429003,649.0789135569144 939.0792726800292,645.2266296955214 949.2129138623177,642.5993091256624 963.4773464224719,630.9808540718292 969.3294089973997,629.5971085075171 971.0426708688924,628.8992411076651 977.7064986089201,628.1292605641534 979.3131981249361,627.7186198100236 984.6552316613402,627.7750553947895 986.1443385278944,628.396733781934 991.1831687821042,627.7361854625738 999.1076687669449,627.496599305718 1007.7872400024733,621.3622903194001 1018.8771527135118,606.8499129497136 1024.0,598.7452027157507 1021.1515835136848,591.1742651342827 1011.0786182949898,584.2595112382423 1001.0169531576072,577.8786666517165 989.7401712815197,568.8987369440305 975.5781814208942,556.3167469091993 944.7171703515176,533.440055612923 932.7925812910981,522.3400836679341 920.2297325020337,500.53719938133713 908.0457353996121,476.04463645695097 902.4625938548147,454.3808098542334 897.1182751217419,436.4681344741019 887.8217763453468,406.43856561920785 880.1844768103792,385.9554648006226 880.7017673216728,367.69731908315725 884.4869703114933,350.3317548870656 890.013663555173,334.99518391767134 902.53867913034,311.2199083649722 911.849491813145,296.204840613024 921.3338386548191,284.4026286239689 933.1207553351085,275.14803941539026 947.5572185435466,265.1918425056389 964.3844128158472,259.3982540385135 974.2677304480603,253.99529159782344 973.3363446651272,238.4968049096476 970.8797640479768,224.16841896496703 968.3258345371568,208.22417642786002 969.554365197545,201.72569352994128 976.5805608710592,184.66963576239107 978.1059935647276,177.85594873287278 969.3195746816093,179.74565614509754 958.836936958294,184.10945325011744 946.7438407558051,179.43169418589707 933.3861140254721,171.10013028737046 919.2635412110159,168.16238113805514 906.1978573699867,156.0491095946062 897.197493942769,139.94316279589634 888.3937115229985,127.03812726495926 873.472284506254,110.7342571557225 859.4415563638813,100.27894289219614 844.3114545672881,89.35474597384302 831.0607840846144,64.92466106624181 824.5676134540877,55.110046110816256 803.286525169481,40.26036665593233 787.4844391494628,36.34889627902078 773.5677075333858,39.28659102430254 762.3458830648093,37.28637034280462 760.3695172266404,37.41172120836109 752.9756343435084,40.1476731499323 750.315035195257,43.94187555947133 751.1054781747252,46.975997505493524 752.6642137036961,50.072578329533485 753.276753159361,52.02495020849938 750.8391449291139,52.46619844681743 737.7727647118276,50.028725882657454 723.5871578336561,37.47505414657405 709.7943565564487,22.761530281047612 716.8565547729389,12.334635442478316 708.5918028658728,3.197040798574676 700.781587170587,0.3179572014751102 696.8286126467098,0.0 693.0696898879224,1.6085551529480426 690.0303342347978,6.245886663615693 687.6716885510511,12.645116019067927 677.9808505947688,12.913290025881906 659.4372283356271,18.33521634423346 656.8122500438487,19.573032701440752 646.0378759465002,19.715674634633842 628.8168581686568,20.254553685852784 607.289091229429,21.07702940644856 590.4386552465834,28.033939251062407 583.6830841792349,41.329852468950776 580.8660620028452,48.474818991846405 576.8930099420872,63.217555517162396 570.0821360486498,75.9676508443415 560.4687879150499,77.65877547956222 558.2902684167793,68.1488817389669 553.6353125032992,62.53353419716382 528.25990846955,44.308801324373235 513.6682065690962,35.04202274524607 498.5319339393463,34.376564993888564 488.5065662910497,38.23890822936687 474.0164423231004,39.66852111117066 456.57537971449307,36.474062619248116 444.1465656357101,26.511124252326795 427.76560378065676,14.129469450923125 414.9248757561383,6.316085953250763 398.03785903590045,3.06533499925672 377.2265169365556,5.92368196879022 367.62511822147536,7.037124188474877 360.1516777410369,8.019093710140965" /><circle cx="649.622167167599" cy="481.92729420419954" fill="rgb(100%,100%,100%)" r="16" stroke="grey" stroke-width="8" /></svg>