<?xml version="1.0" encoding="utf-8" ?>
<svg baseProfile="full" height="1024" version="1.1" width="1024" xmlns="http://www.w3.org/2000/svg" xmlns:ev="http://www.w3.org/2001/xml-events" xmlns:xlink="http://www.w3.org/1999/xlink"><defs /><polygon fill="black" points="77.60039501846109,793.6626601632345 80.06985536764016,792.9538625457174 79.64914436457344,793.9280580881654 76.38131675890743,795.9054773748428 73.18734819989454,801.3530218276142 72.74302527116303,807.8921748521324 71.29940076637183,811.4586889491272 71.84299602794995,813.842742011315 75.32480024515911,816.4040963809338 79.90550606085077,830.7164497784747 81.92673180464895,831.3817961629702 82.28909354700868,832.8418123919554 82.13858344763074,836.0961435723339 81.19570958372235,841.0625217142255 79.42027931121869,848.7883463072446 77.60272052216915,853.321195299131 76.20180675695782,854.8549398875928 78.11117907409674,856.1984366103528 82.46427187138796,858.3536248904793 86.80500592350305,860.1896011967478 91.44902365417907,861.3886470785251 96.111283496431,863.2256031496845 101.07670921923977,864.7351257600426 104.18484292826815,865.332792877823 108.82134217629115,865.3105546542446 113.78617469165428,864.9596030859784 118.12427958803485,865.8604302372269 122.16525436043894,867.6831903440846 129.64858994776085,872.2722585284828 136.2006826676044,877.4954230852348 138.69083075425897,879.0239586262703 143.36844160402404,882.6988547792525 149.00947427210568,888.5438347908768 151.82855033935786,891.9237723337986 160.69765595309798,896.2401369820857 172.24497728033776,901.4166156117826 179.94955394495378,906.446706902875 188.9258784803379,909.9395570145361 195.721772553961,913.1057324458317 200.0431074799592,915.6270054127815 207.14622960555798,919.1017160335192 212.0960993732042,921.9327200284831 215.18449180017166,923.2060773500799 219.53201622474708,924.1750009202344 223.25238972932567,924.5255165700012 226.97098047952812,925.4814734172487 228.81832991519846,927.6658844824451 230.93840287597206,932.3381799833179 231.50752267330108,936.6760741171314 229.76850405317205,951.2043019257273 230.2047483094025,965.4523579018683 230.3734100772481,977.8410363191655 230.1089718444513,997.9600319434194 229.69103583152847,1007.5530171351428 231.4532373200929,1015.6196027920067 235.10420244630444,1022.1615550202658 237.96653642448624,1024.0 254.82123512591,1021.7644333487204 258.4643486996417,1018.9764196343442 262.53065317361575,1016.5408721293622 266.59598478875125,1014.4120203680629 270.0528870432883,1011.665078921374 278.83619129851456,1006.186513937549 286.30716389928665,1004.7144810584656 290.9631486072523,1004.4489177165417 295.9640668324393,1002.6512194787123 301.86498241365564,1002.4085294659019 308.0715125692811,1003.101626871525 315.48486292620373,1005.9665804983822 326.00043624225134,1008.5810654164203 328.78382123279874,1009.5332614012034 334.06014195187623,1013.6373670128842 339.11320644065387,1006.5733119718543 344.41625743226285,1003.8592264291059 349.7208422825332,1000.836739412738 355.96120674206855,998.4322052131465 359.3682502090002,998.7888425547437 364.32408860429615,998.8590371079729 368.3479041857085,999.2273949119908 373.60298516702136,1000.2236623260648 379.18141197002666,1000.2943838930316 383.2297955684015,998.4928815375886 386.3615022730605,996.0611737994943 391.3870462049265,990.8670260738484 396.70525714055043,986.9166810347169 399.8527057160199,982.9329466597318 403.9081025164096,980.5130746525696 407.69326474286896,975.3068724765677 409.60130607731156,971.9278936034384 412.42549495817383,968.5597121316666 415.26516693039497,963.9587667022261 421.8572671472607,957.5437619437475 426.54232179848555,953.8913183070543 431.84895363262785,950.558522264232 435.9246204693851,947.2130935944436 437.20848494239914,943.5138803000398 439.11604156084087,939.5086193115493 442.89043145820955,935.2272197928633 450.99520160462504,931.3117832995038 458.7835467886989,928.6281927699337 472.4515968052138,927.5640740145693 479.2947764084739,925.7933299911003 487.99672080558355,924.6605025860916 497.6566575595982,922.6032993512276 507.0100430074213,920.2369431731037 511.3970071094844,917.1771796454965 518.59565997214,912.6200794267135 525.9365709503022,908.1653716755012 516.4513407044204,895.6659929937526 516.1643700336607,885.3917106221397 510.23618099304133,875.6812701773038 510.75734979037594,873.1648097015217 514.4375120563747,870.4964162451215 516.9266620856814,869.7478805409773 520.4103358504896,864.1622553264826 529.4336304099124,856.4954135155355 536.8160717416282,858.4200032439898 548.6008391206329,863.7562700720914 551.5793707644966,871.4295503015346 551.7211185884817,874.2654250592012 554.84605572184,876.1872828601976 565.0003678788456,871.9380097934677 565.2877076263248,874.1048263519743 572.3164291805749,873.3562942921321 575.2972936637283,877.5173390314026 581.4107790959631,875.1244828905675 594.1905165509775,885.2752755183182 596.4605563483376,891.7782373010767 595.8246283094444,898.7744967801557 594.0598096157747,902.8632670785962 600.6188356061999,901.5792123736302 607.0127329315621,896.5344660582305 621.9148059518792,892.5869580173284 626.5846130562157,888.847239137198 628.7724076226582,886.3609853425336 632.5059310914587,884.4892865770486 634.0563560333228,881.0785662417046 635.9226345935068,878.9004594673518 639.0465118697072,873.3116314883848 642.7826834376109,864.3122142694343 644.9625774803274,861.199842730711 649.319618878794,849.1100338130345 650.2623518785031,845.6898837842355 650.8890351493129,841.0371243797526 651.8238749930921,838.242792342101 652.1423988972447,832.0505860285066 652.1388890164734,823.9904844046057 650.5934308736693,819.9563625913524 645.3075043367379,814.3935891764195 642.8191851470855,812.2277553890884 639.7014273188425,810.3810826402022 636.2776743617516,808.8317975191799 633.1669181065613,806.6767730115428 627.5825659222047,798.9479151123668 625.0929710815424,793.3741108323139 625.0922951161707,790.2746828301312 623.5405929129055,783.150242531275 622.9237244925956,777.2596892460601 622.2949230884747,774.7754007017337 622.0004076957447,769.2024219253785 621.371315800666,764.8608969986224 620.447881971964,761.4547940157289 617.3388180942774,753.3992051070975 615.4729225308155,747.211409313089 609.8772989534425,738.5409222338174 605.8334822857449,736.0784462559776 600.2322890253683,736.0989486459796 595.2396721791561,734.8783523912982 586.5319336296283,729.0087676105345 585.2830118014735,725.9105460813203 583.7258473427021,723.1299256682178 581.8616004920403,720.6574332884733 580.6198241600442,717.2509743031461 579.6910099960653,713.5268978083448 578.4480186212418,711.3626300032292 576.8859700811956,705.472997244475 576.9004056918698,701.7504035790132 576.2787651878767,698.6616484358112 574.1015622903426,693.7072432980947 573.1746433849553,688.1272133773368 573.4900500247147,680.682067123231 575.3616189601511,676.6408133428065 578.7814460987269,675.0828707805664 585.3215481843214,675.3810902762891 593.1114853290312,676.8996135726522 596.2102706661827,677.1970735022799 599.9449198785538,676.8794197955983 606.498816421696,675.0016193299737 615.2159506488539,669.6993073673982 619.8844192863243,665.6474926474178 620.8186879521676,663.1655817897561 623.6242092993486,658.8165753373278 626.1281931280035,653.8538940740323 627.0546202209518,648.2656960591185 626.4330029639856,644.5540329902968 627.2505505946773,640.67712398271 627.1069013333187,635.9515601384538 611.422847016633,626.9531759401702 603.0827578912199,619.7153505526019 602.1825054881156,609.2801116855426 601.5469265794429,606.7997248319134 602.4891506558231,604.0016324528824 605.2997185934844,599.655714738992 608.0895067043172,596.5506134783557 610.9067958742925,594.0591271875958 613.6977011825504,592.8084607406521 618.0640776656406,592.7875529454172 620.5472247630464,593.0953174604597 625.5339598709644,592.4576451226665 631.4424251498614,592.7535656926399 634.5596953138734,592.4350273996492 637.6702527817537,592.7314464867005 644.5205144902417,591.7869050950226 652.3031331731247,589.5898809054248 656.0477645376221,587.1077640028518 662.2653483454002,581.2017026616395 664.1266159050339,579.0284970262667 666.6220102562628,576.8549117337054 669.730340761085,571.8828465643444 671.9163348962087,565.6717213028458 673.4714804275651,555.7531468292981 675.3355566792413,547.9957650036345 677.5155571492884,544.2757665932904 679.3950356102297,539.6232313460192 680.0200735175335,536.5084257012527 680.9464126765167,534.0287278760715 679.7137352119446,526.5923127304304 678.469044530782,521.6363209776325 675.3702553262756,515.4405987205082 672.2583446613983,511.7252392390483 668.5341607736341,509.2483429097374 664.1722206255529,509.87526536776454 658.5699313472842,514.8457768688811 651.1002130830028,520.4413501123818 648.6190952296373,521.7022106687988 645.8157634758458,521.3856725913386 643.6325782683209,517.9868877746617 642.0843098686048,513.961984062955 639.6117732602405,503.116511759624 638.9892610675641,495.67134898295797 639.607998469174,491.9430463447153 641.7868651682919,484.80510617651044 643.0338796608953,482.32691638259723 645.847729417516,479.51964107484196 649.5812141172837,474.5518352026163 650.8329074565888,470.21086005720633 652.3911802842474,463.6988347443014 652.6965484240977,461.21013902425125 656.4030246957731,459.1308044820131 663.7994015479284,450.43534891269917 665.9846423611547,446.24645034326727 664.8858829812375,443.35025939177376 661.8724602344918,441.75544824004976 657.770178822211,440.48822007305944 655.2974886388334,441.4504895084666 652.2943995066584,444.6771202684148 647.734387621634,443.8598905711292 646.4934464595187,440.1349715840664 644.3119111658433,437.3512128673117 641.5234585554697,431.466720390221 643.2393772146492,429.2749161764125 646.2565996823811,427.32995347658164 648.1760770494396,423.7876009737861 647.3564955405349,417.36035984522766 647.3536546137,410.2879974552403 648.4415194257456,405.1400823768473 649.5287561313356,398.71339561391653 650.6235817542274,394.20077569267767 650.9068791219914,388.73686006461935 650.3508522965132,378.7705994844746 649.6609424827443,374.78185582964943 649.0893074860709,373.76827680801944 646.5208614042222,373.00287243662206 637.7092189548496,375.2864549074284 625.3767833995922,376.67132087995753 618.3006567556574,376.1306403371966 603.2641077384692,371.9174258203574 602.146998312732,373.57472336386024 598.9193375994442,374.1371207940882 575.2533398882643,372.99007508623924 550.703180344356,372.5532064729821 529.1578838204948,370.81410847434097 504.4090268051348,371.4925275611938 494.3240214848761,370.982916438787 487.321453593823,366.1794018432395 478.6218396261856,355.6856281973703 470.1266622121778,339.7208400802783 468.5787481351651,329.83915600508215 468.85733367149567,290.7367957027026 469.71541181556324,284.60334908030666 475.9627247602419,277.03439401870617 491.8700728804417,264.4452712199205 491.29949434601986,262.9929666022092 486.85859960268783,260.75993105059615 476.40939365296083,258.900756266282 465.4464109009055,254.53528500254765 463.1857873906292,250.17873144116288 463.94445508390953,246.93934866939014 472.4546740218923,241.15330164699162 478.13484313517534,234.69073069546903 481.1697852653618,226.33424791551704 481.65297692598017,218.19021264147204 480.66542098108914,212.3238738103022 477.6429829998835,208.30612907658121 469.24457367643106,201.70760167765786 463.95951431472747,196.6759659207728 459.06084140049916,186.62804519758936 456.41894465384013,183.4888547027091 449.0616998916565,178.1175395451578 447.2747983037319,171.9755032316441 448.61116846665226,162.61191991868532 447.94975259911314,159.485758381251 445.31308163659395,158.359143665504 437.1016827183006,158.00117390934793 430.6888050458694,154.51977862996637 428.2460285383243,150.83005145023594 426.69464732575136,147.58086327456033 413.93410114400643,135.18518572996607 407.88664903360524,142.27285390731083 404.989121795617,143.6768756359138 402.0940043010105,143.53978056052142 400.49867090845447,141.7609404785867 400.14376850595806,138.94186043447837 398.4176872443522,134.56867220168158 395.68477193375827,130.6425874086184 395.12099796544874,126.1698859694983 395.90862250949,118.53350336116216 395.8409671369694,114.46986596074942 393.8270831620505,111.3938526823755 391.56024512713475,109.73677236918013 376.94035694717127,107.60769826900435 373.47727075345324,106.2441470699199 372.2979947190451,100.92260077129629 371.58781701448845,95.7154644949776 372.05535979866033,92.29625403858142 376.55207667700495,93.29539499734449 379.0322778389049,93.11603595620807 380.3862622206127,88.53447690083988 384.9937735750473,83.72612814070146 385.0458011904195,81.45923235673206 382.74682732945973,75.06652487166696 375.7683439893514,65.01135461319859 373.68665406094726,62.82300057837665 370.30182654487606,60.08198794022428 365.12238492275367,58.4094456950445 363.9153743924875,53.67171456242488 363.06998981022616,51.8748707662204 358.8570372492434,45.86593614032972 359.43207202324,40.22457353840491 359.4509648649745,37.59261773008893 359.00060728399706,35.101680230951956 357.08912338281857,29.975856485228178 353.70636531720527,26.847745589608053 349.4512307089091,25.3399436607466 343.95954758390826,24.51208281931531 340.63443596419285,23.556103817332087 339.5642705660368,22.308802153250554 338.7204356671572,19.522246197505297 338.8259526364209,15.095245395471238 337.96514736017815,11.186629785695686 335.44557847759313,11.273132594114713 330.5015415991658,8.762815249766732 328.96276677190787,7.504920205999838 327.02238907117095,6.8679502408026565 325.02271053192976,5.149353565371143 322.7979997053788,1.3294718651388848 321.3338900039578,0.0 319.6964817507258,0.4558791934754254 317.8937066417822,5.175022930011892 316.17921101350834,6.78243502477153 309.94222215511775,11.092298277452755 303.3266556895464,14.758806304727727 302.3303476365471,16.71518388377956 304.6207112535021,21.618408585054226 310.01538515388086,40.53659068080299 310.0146574867048,43.74041004628191 309.6139373406566,46.779709401040236 306.5666006559867,53.874915867168625 303.1697347521111,60.12160431933569 298.27420068022286,64.77341943673264 291.6183166843578,69.52335527328682 280.8194630473248,73.98642625541868 267.1637374464651,81.3999458047756 254.2522906197292,92.11248983035523 247.1430484375916,100.16663110005015 242.18458668489473,108.61598642810418 237.1775206667408,119.71861409744713 233.47505603140374,123.7711568116639 228.71964060784373,127.67845995886717 218.65823993223887,132.59926215618987 200.93733645423805,137.47560050343566 172.78334800012382,147.16376474335834 155.84964877951012,156.75419136754704 101.77972048432662,157.39374985168843 52.465094615939314,204.43919606428494 52.310052418537275,224.01704960575182 51.05609793096177,235.15996174407894 44.486382604342616,248.30393276964242 36.432725490444135,270.10188443885204 18.961316991161194,263.65198109432015 13.973722330884259,286.4768403842636 7.429320922103229,298.69432362332225 6.84816883043806,304.85718642419624 6.570477161555239,310.13336146967197 5.3750229309140956,313.85996407154937 5.409030220726189,318.20623492371135 4.226303488172174,324.7257476304634 3.3187875310958797,328.1468590604304 1.1958831084877437,333.42485816126873 0.0,337.1622171221659 1.8993928666458555,342.7355535932263 4.710129750661533,345.8178135528898 8.752349103924333,349.2127921192997 11.2385336908607,350.4427001834598 14.660639424186813,353.8345078952201 15.616681389724329,357.55248323129615 7.7282155041213665,368.0413433678149 4.867569777642801,375.1597103373548 2.7756000141083605,385.26789162078217 3.3462595780401436,391.3186574178385 4.7844791349451175,396.6260596723448 6.213596742724284,405.515685418476 9.420221953592645,410.11642171801634 14.333584735599123,415.3902765128681 31.727460336819433,427.1607016120464 40.59667647878404,454.55347779903 46.16636639013804,467.74504092504446 48.597795650965956,497.2992337765912 50.06182040739735,503.73754639116896 53.24025117041079,512.5598608582709 54.132589005866535,526.8534744565067 48.81016567558557,539.8204682098517 49.257565006882444,546.6556956599302 54.85043492044842,558.9140223116581 55.26252315213998,567.6050348356923 51.75566054847563,572.3964627299404 51.10569658588796,577.2505011296373 49.840911674746415,579.5307360182951 45.89957675730091,582.1775110775543 41.07157355615683,590.8152728850816 30.434847293107147,595.4926309954596 24.723170398981786,601.5438167272116 27.397585568010673,605.9643295712567 41.334126978630486,618.7385986298318 42.92153211669027,629.9613397555768 33.93514532563031,643.0652217978545 40.94577364774229,671.7894784396426 43.42616617378623,677.390136712776 45.1134789913588,680.1255305208003 53.61506479324825,687.6411182861407 56.49880073092442,696.4131216441597 57.69077606579089,711.3240809258498 51.21955807168307,735.3554609122136 60.84470010806899,760.4264115390226 71.11435252494475,771.2478616331763 71.39951835401672,773.1982773044203 76.50466418387886,781.062604772826 79.39309903575322,786.3397104203231 79.19394562284229,791.5849558969694 77.60039501846109,793.6626601632345" /><circle cx="352.32844391289666" cy="113.37060448594298" fill="rgb(100%,100%,100%)" r="16" stroke="grey" stroke-width="8" /></svg>