<?xml version="1.0" encoding="utf-8" ?>
<svg baseProfile="full" height="1024" version="1.1" width="1024" xmlns="http://www.w3.org/2000/svg" xmlns:ev="http://www.w3.org/2001/xml-events" xmlns:xlink="http://www.w3.org/1999/xlink"><defs /><polygon fill="black" points="1024.0,503.01383473009537 1021.7845482515264,502.88052378496064 1020.3342851476042,503.48192062398863 1018.8122868912902,502.35878057585944 1017.9094448263079,500.3006040860178 1018.5740273002232,497.9230897642286 1017.4083457292069,497.63592272735116 1017.2735286580565,500.02509261242517 1016.2372525838599,502.2662297768961 1009.545961373921,503.1803630910013 1004.0289299463757,506.37393131159274 1001.7975615972973,505.92475120346904 1000.187097429581,502.80737691510575 993.6545040435627,498.80700453560326 992.0726115576036,497.60802966507066 993.5304621589087,494.28659966742043 994.5400551753038,492.8474531950079 998.5508700679821,490.19772532671067 998.831135637814,489.5065205970936 993.2598774712677,489.98858254565926 989.0171433277629,489.38202909978554 988.4577159339879,488.43894796565513 988.863281993044,486.21471649501416 987.3520450916513,480.37908222360903 986.3566691714019,478.9033056638677 976.569137662283,474.81504619614714 970.7083467933774,473.73389590576124 964.2649886781026,471.729475960753 962.7000747659639,469.36663875037533 959.823283999245,464.0517087718238 957.2487491310343,460.3536367457053 950.394921003256,455.87061121944976 947.4983317501589,454.64207569986405 942.8098631362254,453.5607541925087 939.4712141404854,451.1582229898376 935.9981130704231,448.02703348841305 933.0958695481274,444.9085359799352 931.5340992057409,441.80967954052136 930.5373223751922,438.57471645549884 928.2225734380226,436.0564304888874 924.7149932216237,435.40113677847876 921.6790825186005,433.1640916101315 919.6658453732423,430.3447832549467 915.598301358562,426.03591968398894 913.0034808815082,422.77533463881485 909.7143134394958,415.54285271703566 900.1649986077189,406.4749933365505 897.5704702815738,403.6244793496544 894.7070755478634,398.308968405728 889.2187527561086,392.5241261232801 883.8790524754567,386.43737479244203 880.1230091050115,381.83744845407807 875.911956154504,378.9887156099137 870.6799906977798,374.93226787485344 869.68874660952,373.3176016226238 871.0995427918442,367.1700162241725 870.9656972009855,364.0952285949527 868.5309407629268,360.97618241058194 866.343825377857,359.63448593684245 864.1887154282164,357.6858049570104 862.0304408727716,354.5652438363876 860.4580350985825,351.188680560438 858.5778786717719,348.8000103454078 855.9721401504585,346.9923379174139 850.4345291487198,346.08490623392083 835.687524167397,342.45558410175886 832.9165507607445,340.7926437112387 831.1837699707494,338.5635170044385 831.0829866705049,336.36633859867345 834.0407201233111,333.3232579662557 838.3025570824371,330.7687364371234 842.2876702849015,329.63865511427025 848.0029479623068,329.44261715580103 853.7339563354691,328.0468211072666 856.0970638799042,325.73622826009387 859.2451913702015,320.2151860153127 862.5792301937105,316.36242298721174 868.7842251514006,307.01044926821044 871.4345497687736,304.1011230979327 874.602568912154,299.90091288795554 877.4490667642692,293.75753397795415 878.9257429509622,289.6319231360643 880.5045370171551,283.71119018941897 881.0312517627896,278.88465151384844 880.9049854560095,276.3869480525768 879.1905152477495,272.5431437316937 871.7610847411547,258.6420176161172 866.6746676129819,254.01415552328592 856.3983818915007,245.51729585982832 849.0336298104488,238.20404888387236 848.0195240007663,236.72204412978272 849.1761760782506,227.49951141253814 848.3135123581096,225.58247542295908 845.1616565399869,220.5416175593963 840.9743990924094,216.37205584744413 835.9044838744644,212.47977544297635 831.2367564112311,210.0760573590759 828.2161879324228,206.50720016975674 826.5064850371604,203.40921367590283 826.1155868996124,200.03101266990836 828.0565143676664,196.08543147597197 831.0485051636749,191.5842882342597 832.2731935331598,186.9146681374741 830.8514964263928,182.80016112870487 828.145009826754,177.48197782748025 825.5902262488975,171.72105268293217 824.0377169181507,167.1470854094241 823.6287088263729,164.06845786185295 822.2121438933804,161.54120761000127 819.8985196269934,159.02423807405273 816.7003810073394,156.16908465464314 812.8296669458504,150.99332561924746 807.9446385987247,143.5788445514504 802.1946927517007,135.28287509935672 792.0693665201718,127.05051119030418 792.2753558172429,121.65247862063063 794.514220903178,117.55497132998096 796.6276191112975,112.7571147281077 798.5808846170489,109.26844319822214 798.0623645326133,104.3179216153568 795.9071232711059,100.29912204625055 785.4421899759152,94.10479336645494 779.2743307650612,92.55012014794033 776.740588036129,91.70974591473214 770.9470483763467,88.96343671471539 767.8778812807661,88.39014456251425 761.4928448297034,88.34551314982912 759.3681014675037,89.16320772752397 754.6180931353622,92.81017928116762 752.1613319191727,97.43061753495067 747.8627370410911,99.89811428522967 741.9979347513504,101.12157139105454 739.2355428241839,100.49865729710439 738.3039212322811,98.95136850495362 738.2945147790685,96.79461520589109 739.5384371719057,94.01554812129712 741.6767212360578,91.23665601546236 752.160323621848,83.84269026088703 754.31176940083,81.37429885788674 755.2413465218806,77.67505505643908 754.0037990458304,73.96422664992099 751.5560938306165,69.01510422203955 750.4248944473302,65.64262246819283 750.620963445374,59.3314175911612 750.1961345944541,57.87279797828023 747.2899246023749,54.70798562527307 743.1487816217154,51.77611003559025 740.9867199802247,51.15936072288616 736.9881094206439,50.84366315696013 733.303342319551,51.455753804741335 731.240452569694,50.98995322772873 729.9953242969046,47.23263366539811 723.9514661781087,39.5047023945765 721.5107779176436,35.960606140938125 719.2120227955255,31.21969582116526 715.908213909023,26.345125446607085 712.8809989563194,23.215525265271822 709.0922429881173,22.132414178364 705.1210323131535,22.811799611514175 699.3546008798221,24.174984642850063 693.99375832829,26.532213872989132 691.5378608205599,25.908195593922756 688.4400052801705,22.199683233385144 686.9064041151092,19.104640108913713 685.9790169590406,14.472335902883628 686.5924658012351,10.768408128376564 686.2955859659661,7.366315946262603 684.7482606013683,6.132622129435163 682.9099626483,6.125554756696488 679.492694174483,8.286867980966349 676.7342666679737,8.901885941823593 673.5171134195031,8.649653854615508 671.2334780984044,6.716529964486426 670.3639038394248,4.790864613118288 668.4705861200467,2.2642352122679767 666.0960761510552,0.8058971407016315 663.4562726402959,0.15677606224221563 659.9427306794976,0.0 657.2842288233551,0.24533718239729296 654.8239838411486,1.4697576790597395 653.2771166101586,3.331054389473934 645.270701526211,16.921213362112212 644.6454763209581,20.617139970905782 646.5068051056345,24.01762969842673 656.0700015194919,32.06088552570611 656.3814356581736,34.829989712343604 654.8382917658876,37.30427525882851 648.575197126792,39.38822563576048 640.8130370381925,43.90371332631412 636.6753698707987,46.49384559962607 633.0114326545614,47.46670519862698 629.4809772534169,46.25782259004973 624.3878950621603,43.981186720816595 619.4255776421113,40.9997656316101 610.8507421468105,36.335321329205726 607.1722158396808,36.28430356653871 601.8470415145009,39.58955259879929 595.4520294789033,45.10041727770181 587.4662075328218,51.30175625723825 580.6625102864954,55.16655892753272 575.4825837974179,57.8978291217162 566.7726099866599,61.02980473919695 557.3236041011509,64.1439418290214 549.3569927469343,67.27516123036821 545.2683655300139,66.79559949463567 539.5652027504933,63.79505966301997 537.4082169862678,62.97167225683211 539.7604198310893,74.73711145667153 533.6584994433473,82.88747057943397 515.3068115479703,91.06015450910229 486.7859998866674,101.3057876446776 439.35088060349227,126.74559029276338 429.8496975172178,132.1267699431362 402.98848556781587,143.24095479636264 400.6223590147951,144.3374618966185 393.5988858955996,148.6699230566952 388.3927312379228,149.78948959320599 377.2407869061821,152.77454782857444 375.1866092044139,152.67823892690467 373.14424194381513,151.81794988992192 369.3217325570263,149.17534122791767 363.29205831845223,149.05613600940944 361.19372957684317,149.92550396013075 358.6857752581161,152.23640961909086 358.37355958767745,157.53240994887597 357.105339061504,163.65133800516605 355.5222798247195,165.93870254190517 352.466900689579,169.34408994096657 360.48752038390023,170.48930496791309 365.90040928838033,173.82229157113647 372.33667799168427,181.5245884167947 377.3006371580577,194.1045538083231 378.3976137122571,209.59581638865438 377.68069426990945,224.39399135303609 359.2744625131797,315.921618451693 344.718150722976,335.03136122314277 341.2388287226904,342.90682047169923 344.0001728635755,349.8244096742652 351.0012317008842,358.7946078520629 354.31234277567495,366.9769872893021 352.5376757486665,378.01271548831824 347.2651709561376,384.5698952978843 328.9794813746016,391.1523573272631 312.81504669810033,398.7629144974692 293.95005105230416,417.6701710219617 281.07392447248964,440.5504972108088 282.5089898753729,449.26719397568587 288.14716984800725,460.64681352827034 291.39796371042934,470.0697474084833 287.9760154743327,476.7100944767203 281.71474435578347,478.2794826416365 265.7456883718063,475.6777761219893 252.50319191856323,468.26452870782236 241.51444712957448,465.2817664897923 218.62210818367146,465.4397795200499 200.25007263382577,462.0948625446125 185.39458965381505,462.6195213940486 146.72182600388285,470.62058846967903 132.72322428684473,479.2021541950186 130.0401796953036,496.3778793729477 133.79991407894934,520.6661379555119 134.83800164913944,537.3992840278902 131.40544936073124,544.6458235288227 108.59308010723824,544.1359953988738 92.79493498785631,552.0039072354534 84.17253516460705,564.5512645805512 66.52991987783531,572.3225623200158 64.53674549028153,572.2156277627113 47.35990538976806,594.909854396928 43.265066973733795,620.4648857052213 45.64944473189699,630.125756603413 48.699485055364825,631.6754037760313 55.30376813317554,642.9436265404113 58.73991429103749,643.7026928680774 62.822867645643804,643.0315166254517 71.29761423430264,635.6232564835848 95.7898158227945,632.4842256396084 106.90708110473808,636.2318711855914 107.98235249358524,638.0286460787911 107.831340269208,641.2128978714948 107.10734015178461,644.0852143280476 98.11197299484199,650.3169170348338 94.42805169824122,654.4842457236115 90.73151039617498,659.2385637178459 85.85109411748623,670.0313514823806 83.34499655320231,680.0735258827201 82.98140806835316,687.594672745206 86.31611302524935,696.4812452432309 96.6431971353717,710.6401323979624 96.55843517811971,712.3718062643416 94.961042719514,715.4939970715463 89.05899268790505,717.5177382135903 85.86476307279742,717.6501168245843 64.69281529492078,705.3404591926992 54.43977502254714,704.0371071758836 26.2055003909276,695.292612976549 20.16562035558025,694.2720385854195 19.512388993960723,695.9431111448822 21.292082270027088,700.5205553212462 22.72839043963847,700.9751710009814 27.088231189159316,701.5066794294744 29.01164778173552,703.2253046709686 29.73440535361375,705.6572211469154 29.665609701710178,707.1943990470157 28.12620520775869,708.8147547170162 26.699390145207097,709.5146093731404 24.77393847897797,709.4938725283052 20.348853204334755,707.1165297184822 11.973810215322471,698.8931489965537 8.875914518367217,699.1963805947005 7.6802631287346,701.6846381658577 9.783572211786781,706.0344485276399 10.71844067791549,707.3176324598387 14.631553269689894,709.7667403281017 17.89751777257368,713.2893946974945 16.678049916297745,715.0973836534595 13.667311576821996,715.2054092531079 10.260955427969451,713.6925703344805 4.395444299871184,710.213837622678 2.7751769599627902,710.1545654070817 1.104637837701135,711.7073278722784 0.018018693027550353,716.2836163785419 0.0,722.9980819625567 1.1107919532257147,724.2011400339175 2.9606628138445874,724.050814563851 11.587423679450017,721.6057152077633 12.509149874102318,721.8805473617424 11.737293995475358,724.1641656985705 10.06125004089073,725.4834376828618 9.038882208588392,727.9915115101489 9.848780106306624,731.4901380511992 13.08140587893807,737.4101424159716 12.121051350154723,738.2911005837209 10.376722388704817,741.9298714924435 7.079997307116686,743.6438981421941 3.414568701217427,743.037520869838 8.541875112053484,787.5843464330351 20.72300524333493,811.1061772658027 36.328424088886116,821.5845164484839 37.477402006379315,821.7546939530476 42.90686211749971,821.1458237043653 50.59691652963243,819.1859346347844 53.473322538340575,820.3589746519849 56.6813028872982,823.4434629869195 56.76369625874852,824.6202357106646 53.65475794930051,828.5710194211649 53.97807604634431,831.0798996697152 55.079958946007025,832.3003895845034 58.92388953987614,834.4031833991916 60.17648281567851,835.6377144189216 60.24052247937748,837.542428958591 54.60831630417506,842.0912427306473 46.66412547554278,846.3865739473526 45.287081404919896,847.6290313460838 44.721986188139255,850.2462581432428 46.3115428248621,853.5412385569643 48.94977746055978,856.4549085328849 57.54623481792176,863.0431044359573 60.939916760112354,871.3079589987582 73.33560542255823,883.8314575650105 83.95025544111729,892.9522036143196 92.62910914379145,901.9854023844384 94.86020828029658,904.560016354865 98.10328634998295,905.0261071889894 99.45482379193719,903.1569508580253 104.43478493836852,900.7144874891094 113.81499291419378,901.6957972785258 123.35022867614452,906.8227260117734 134.52281551860213,913.305865579523 146.05818046480428,916.2710579714029 155.2537013058856,918.990327392551 164.70213853449098,919.3663018049384 170.9268334954678,916.461218779707 177.93740079380433,911.8571688594229 185.30008143347342,903.748089703651 193.21183474339236,890.3615429182989 200.51218053880422,871.5970104760195 202.80142756917343,855.2833765942313 207.63753220240082,848.6784296954714 212.83467556032815,838.5661976440196 211.9500665427309,830.1963657226386 206.92531148414722,821.4086769964179 203.96632120311148,809.8739397088253 204.0788175129751,797.4739586930696 207.29802683090222,783.601819230157 215.8482797272099,775.6089631532304 232.5928555520168,774.3631608389987 253.67661081537767,771.1714375006757 268.01173891220725,776.165585819712 282.4053007092763,780.5653974691122 291.55068448579016,789.7601363913839 301.39913185881613,809.070961836014 311.9582654958258,833.1737917479036 324.2347437365377,852.134805929518 332.4553136566394,858.8612880974031 344.5002774973586,863.0259248243466 363.850782306858,865.5356118478547 378.60958574698367,866.4048209225045 387.81159868874755,867.9780661121378 401.9420332549258,870.8106732185656 417.87104975811536,871.7418282802427 419.6154753950236,871.3271769274261 425.2707189512409,873.6732189326559 429.2026363176186,876.7985136691647 432.91343036810434,879.0311635966681 435.8573302394291,880.0350166174485 439.3751342403788,880.1011526364139 439.2401982877156,878.9490684865965 440.93561729881395,878.8613596765794 442.7152889095849,877.7370651619364 444.3385427225237,875.9756154184325 445.75302832682644,875.6734535202829 447.9647157108989,873.6080488793543 448.7672344846393,871.6218347090861 450.21080360505357,870.0996890617191 450.8244803803595,867.8756037883621 452.2297319285365,867.191097859757 456.8780450831258,863.4040618236014 461.38054546679405,861.5060153497288 462.6833134947402,859.9343047532509 465.69208815073785,859.0725273413503 467.60502129597063,860.1258798645138 470.1445584901557,859.2708365854494 476.68544144898476,862.4780322137124 477.69333910863554,863.4892782890159 479.19767192992776,863.6378634352866 480.56087959947365,862.503462162811 484.3606003185593,860.514006262811 488.3599749287993,860.0396592397983 490.90818566169685,861.0335544330349 493.93355353672104,861.5899756415482 495.9113766242954,863.2883185418386 497.9372961696346,863.9235745063203 499.32878351521657,864.9720326815875 501.26936657926353,867.4720935951851 505.07417749306455,869.1290032355606 507.1289504205438,868.9340197316571 509.0435167653485,866.9278381662415 511.0563448240292,865.8932942135978 514.7396264071698,866.6907058208628 514.3901289203426,864.2463165699471 516.9271412904341,864.3626947070463 517.5231149572431,859.3788737235185 520.9009082687363,860.2228456893862 522.3336094953517,861.2721578148011 525.6573429203246,860.0453748028934 524.6672033308479,858.3731362468939 526.8738869615897,858.6201074758387 531.2041098392559,856.6246370747175 532.8642714569376,856.6637845730173 534.3821678095682,858.0791764642995 535.9112925654607,860.6692836434231 536.8911307175078,861.1308714318029 538.565140851091,860.5830793613547 540.8552886304666,862.9218252610389 541.3165368220508,864.1276582991677 541.2376340994055,867.0901522942795 543.7344640196587,869.3029516310041 548.7755934928061,872.2012587003551 551.5507401167846,874.3564141189535 554.2545714868728,875.1661670614493 555.6511683424291,876.4939493985235 558.4294708280331,876.764341273279 561.0451578481689,876.1641566418334 562.7322025366249,876.4268417142557 566.7329227428785,875.7949954844561 570.3152200484896,873.0992936525936 573.7169979507364,872.0507239941821 576.6376970456503,872.2960703576962 580.9155351326852,869.8883511667707 582.1647261870738,868.4251747703331 585.1767207541794,866.526275957555 586.140187586044,865.4410435487852 589.8650188427184,864.4639591384624 594.1157475663687,862.3246802546466 596.6947045339302,862.0130947568101 599.0165767876812,861.246739809539 603.9644993765718,860.6980544899081 605.615779164388,859.8416424573196 609.994121111712,860.169367928014 612.4589297617181,859.844726591438 615.7817081515809,858.2425355632962 618.838159686247,857.4649255745089 621.9437506575433,857.2294823055324 623.9475519378327,856.5581054215412 626.4805588174966,856.8400935004665 629.4135578554238,856.1543813769155 631.5808315819631,857.2099148524097 634.0410312526299,859.3466433898807 635.8358367690812,862.3551227047694 637.9664973265578,864.59698447038 641.1298916904376,865.8165790212248 644.5635861766256,867.7142257045762 648.4720618717993,871.1434020654538 650.2168765117673,875.530149873305 655.1708418282044,876.5012726114272 657.1464225163375,875.7648989014743 660.7237096411383,875.4194092694333 663.5555576812765,876.0438640665458 667.1021190403675,875.6411725733437 671.6089684044678,873.0861744899398 673.2078505906267,870.9230056558558 675.9223416741057,869.9881716546014 677.6329011811587,870.5199510303655 679.5071244180796,871.9914187582872 683.3849426980609,871.9038710537848 687.6823315792561,873.467002879984 690.9192897115491,873.2902322951678 692.8953279735834,873.8203321976425 696.384552759181,872.9210811709527 700.3402688319085,872.9274031488129 703.9857670742094,871.3983077245714 709.9409944885213,869.6144888538945 716.2392847417638,864.9383713180297 718.902311606364,862.1455295133065 719.8220886526077,861.6435253791967 721.477812124261,859.2763023797138 723.3131225632699,857.9567912632699 724.5214973939538,855.9408507552611 726.9222291529131,853.1060444018811 728.0516258107323,852.3395833290804 732.7894785463262,852.9428837631258 735.3781451953536,852.4892642368245 741.4401400383068,852.8124356932279 743.5919877836883,853.653900923863 744.7042898571585,850.5279977118754 745.830673271207,849.3896062247311 749.1110254859751,847.7952425352366 751.2393488331952,847.8617526162703 754.7222682296004,846.3104121941872 756.1183225978552,844.980698193694 760.263104631062,842.4905368317017 763.1377913949098,843.4329402879938 766.1658740827028,840.3506019852098 768.5121647954129,838.9783625100074 770.8970778913286,835.4044251550345 772.0338563021455,832.9969553687371 775.0133926429093,829.2236975740675 778.9100245979856,825.5558727825361 780.910268018247,817.8603318561062 781.8387800926237,816.0557940834155 782.4015209122178,813.3352579280905 781.5896879663321,811.8168217911362 781.6617785383157,809.4492395634423 781.0225862051168,807.0783155547068 781.5377537130782,803.7336250971462 782.7962332226534,802.6058136344211 784.1147955697705,798.9332206277619 786.7634029845033,796.7190271125407 788.8348724723198,788.1891855807589 788.0768664908438,784.3027653156953 788.2452484956448,783.1322359532653 789.9322696803108,782.0628525350234 792.2297639291588,781.8073098258367 794.2680833623385,780.0715211590091 796.1356856417115,779.5087621226544 795.9935960719749,778.2106777470029 798.0040844121759,774.0691277664237 800.4232954405468,772.0727126824692 803.0538875874978,772.0502814634347 807.4239449204272,771.2621005988736 812.4530362825891,770.657996176233 814.5056826342848,770.0993135829987 820.2568065671189,766.8909360563242 820.4397673639835,766.3848228745039 819.2108257276363,760.3520111675676 820.0560918931226,759.0762670094518 820.4241793505744,756.753854329521 821.9565235888715,753.0039321945128 822.220636622167,749.4125222255389 824.1112755000908,745.996326971123 827.2286886226782,742.9360321753969 827.8454950997537,740.4320570989269 830.8053330042488,735.7374342779592 831.7715338980885,734.9746437592921 833.6632844294754,732.007138788397 837.876576371597,730.938107487265 836.7777248370991,725.8236815933316 837.840207714744,723.5271804283135 837.0753649383026,720.3330675222521 837.9264694944641,719.1958786494824 837.8013218967831,712.985484187088 838.3565935260415,712.392893533996 841.5782227510288,711.888634930707 843.4774383797175,708.9853569435031 843.5563528304494,707.3102479746908 841.3936959222158,703.7461778273207 841.2519157043453,702.3276242285006 839.4565479566195,699.7153858566697 837.2176846201482,697.8110599845942 835.0067074507506,696.7996350019929 832.9753919542685,694.3127852525654 831.5946964810367,689.9483359008314 829.5370495759392,687.7198278664061 828.3418858811018,685.5697703975446 830.7517278054448,682.6319652202388 830.4872362858081,679.969617052634 831.4311201216535,678.7704496467296 831.8641489564407,676.3007826484533 834.5289727734273,668.8508375470117 835.7524462032346,667.4169538465944 835.4557597614994,666.1795032649677 833.4566386395469,663.0882368835946 833.8507045996838,659.6100106075971 835.2018681297799,658.3918345836337 836.5067593617171,653.8572735486883 835.5535584843489,652.3357650862275 835.8387285756154,650.9447912695663 838.1436738578305,649.0943135839874 838.5520170166978,646.8035696318575 841.4074909469948,645.7783090902913 844.8954450488046,643.8724349119324 847.3626681260386,643.7409081444646 852.7429688227735,644.6903770730273 854.7581425186183,643.8229741467987 859.4807160217185,643.221634532918 860.342202574574,641.6102924812593 862.1755842097253,640.6925972080819 864.613284654529,640.550003880181 869.7043763321454,638.9055360860673 874.9494904084054,634.979890723273 877.1776067822096,634.1914814580241 882.2308375670013,628.7229976785553 882.837927762977,627.1341010904408 885.1396188614636,623.570451706353 886.5022233375429,622.2318176724992 886.2218517723932,618.8333298263636 887.7802163945942,616.2042509627342 888.1165812676242,613.4349564096183 889.8948944989669,609.9646742820197 890.2305335158211,608.2466112366142 893.6159847049495,603.1252052074117 894.5583176402145,599.6259186030154 892.9552047698977,596.6080480249487 895.2068893007687,593.4252675035964 893.5035906187749,587.6385732657196 894.7433725451473,585.0407966410567 895.0054114667407,581.5057559204904 895.7491599279409,580.1352847232333 894.7464036829182,578.0718564698135 897.8452153199645,573.8952636964221 899.0959099688512,569.4798316649285 903.4809198453341,566.0294085141124 907.8766414213759,566.2841634850192 910.8881667242147,565.997670879681 915.2914060871478,563.5628382383052 917.9026194307901,560.6315372151089 923.8881283277556,557.2268320758096 926.4244931589778,554.8783874681199 927.9288045011753,551.8761682717823 934.2197755479519,553.8240028002838 940.3019092340264,554.2748032927302 941.9685342321204,553.9324217969912 944.3748548262383,554.339781918771 948.5834232923759,551.4899134027443 951.6021878538602,548.5007431042818 953.2509271821755,545.3606102752622 957.7246568545363,545.275346748264 958.208314615519,542.3247006997026 963.1048894895492,541.5103217932108 967.7419444074402,541.3721222156234 970.4344971942173,540.3036460036567 972.7138673479003,540.8669262800017 974.391761118061,540.0092612860094 976.2099144156181,539.834138937687 977.1763908385598,537.5659223986361 979.3900168106003,535.1099279098029 979.0315871647977,533.3405645375308 980.3999134589311,531.8068297200081 980.5821810055343,530.4878647248714 982.2686036942943,529.2406301456524 984.3868802594112,526.0286977945634 984.8601622003329,523.5341876431629 988.4768351363497,520.7527690862792 993.4853574571622,518.9840367880449 996.1671211615302,518.3894364552318 1000.3413392109509,517.9790070778065 1003.6914986390296,515.6684282308345 1006.3089717267723,511.97509623594124 1010.1647503294142,511.1831823349129 1013.1982602142315,508.51171089351004 1017.2905238451742,506.20963751809387 1019.70348407347,505.77813570728307 1023.8969993477727,503.5423006858475 1024.0,503.01383473009537" /><circle cx="477.62735282318704" cy="347.9689097012207" fill="rgb(100%,100%,100%)" r="16" stroke="grey" stroke-width="8" /></svg>