<?xml version="1.0" encoding="utf-8" ?>
<svg baseProfile="full" height="1024" version="1.1" width="1024" xmlns="http://www.w3.org/2000/svg" xmlns:ev="http://www.w3.org/2001/xml-events" xmlns:xlink="http://www.w3.org/1999/xlink"><defs /><polygon fill="black" points="700.0036523041937,814.4930405778465 709.9519021923145,812.7054279829438 718.9283061680255,809.1506958611475 722.695883228459,806.3056591528929 716.5774732683284,805.5914781703232 715.290236280377,804.3067286240464 715.5106254093504,796.7982286466109 714.8647820098053,793.8709628283157 712.5861204880313,790.4342284875728 713.2573173756947,785.6490359928649 718.220884111851,782.0753556560624 721.1541940608664,781.4038089255494 724.3247526515444,781.4595103273301 725.5631182571631,780.7527575125008 730.348064315441,775.9704432572723 734.4413114880924,775.7943224962739 737.4123271329354,774.3789699595914 741.8117916805171,773.744659836465 744.5320849345876,771.3513235601873 746.3318432574888,766.7359644691504 752.8733146884056,756.8314578538249 754.1214571659337,755.8806592775727 760.0015372511574,756.3899660333916 764.8945706454329,756.0790810810323 773.3183641815762,756.6436208613618 781.4792227822968,743.6493369989612 791.9613096415762,732.269357389003 802.0670404892277,724.4233623549703 811.8522222889094,724.38607668175 822.8124369512075,725.9108296001496 837.2797348303416,724.2870656790684 845.4653365681273,719.1731089564713 853.2557674394997,715.2250554075448 867.7298150415011,712.8164745319964 877.514486261619,712.7693132732628 885.3565346094427,714.2934897805894 894.405883619099,719.7222750216629 904.2142916823885,720.0557453406949 915.200094143301,722.3327069563716 921.488063372639,729.5098637810429 921.0114779002395,735.3777951445009 922.1147591340451,739.1994414507631 924.0202920353431,743.3841990970261 928.0483913591268,744.8194093055522 934.0305050874707,745.1443818238154 939.5914364314644,743.0394486832897 948.0916100146884,741.8829571747235 948.1666401591418,738.1550637161367 947.3370011777737,733.7525507299366 945.4280589893073,728.8910432231444 946.555774615053,724.1779547339717 947.986403191549,720.8191331824854 945.5838434428744,713.3082516817614 946.7140942317399,709.1834368377056 949.4967332715869,705.4416947631089 955.1620237552979,706.0607586714582 960.1508781436872,702.4981745786304 964.9790816396284,699.531316577145 973.5181230732383,698.7828211622809 980.3306848925376,699.1265002143859 982.9344404488485,700.860548865855 985.0816640610121,704.0154260991285 986.7783005377437,709.1947612258991 988.6442280179415,711.3329065471974 993.1948003167818,712.8360496331567 1000.6279039277836,709.8561270719258 1003.5535119484388,708.2683588473291 1013.4443412210891,704.4356303246868 1010.7293621230378,698.6815877321612 1006.9793674690054,695.2089038678978 998.8955776405738,692.5871115226182 996.4347529477477,690.5183628886064 995.0776134273525,687.8168769516901 994.1265022112982,681.8838007349727 994.1244801957135,674.8446889181223 993.2093437232077,667.6222931797101 991.086044862396,665.5433743726348 984.8414391590211,663.4615162399947 982.4815745112863,663.284928558243 979.7910330268207,664.5200588130509 976.3432064618158,668.3539855189337 976.3021710386827,670.5726545182272 977.3313462514338,671.6592327790615 983.411536606456,673.441964241495 982.9629543342822,678.575032184885 982.0746733724257,679.3942516593706 975.5018029237954,681.684087298484 975.0391267360278,685.829878928918 972.7918445854026,687.8796590353348 971.7982900632513,681.3669229616356 969.0023421934535,677.9795718863437 964.5648303444069,671.7588059088248 961.9332906359538,670.2957941047097 956.441436499458,669.3334028923512 949.5826166134057,669.5348504053648 948.2867527145637,668.8961009028964 942.6170779505582,660.0970287095327 942.6181728478724,655.4656854939154 945.6589929865356,652.270181452086 945.6505280955831,650.3791447132024 947.2777417482577,645.2340630376776 949.6874903189946,642.7353423633175 951.988631583709,639.2514704479022 952.4260760211248,636.3301780736014 954.4692452718713,630.1139837339033 955.0268744543642,626.2951974160569 959.3669639120577,624.6777338863515 959.3076314135642,620.8532091467996 964.3936928248323,616.2481187535063 964.3950028623141,610.075230580708 962.3377872295088,603.9032129020582 959.7909685921844,600.7277644615098 959.1185187311261,594.9740099610653 955.0830827913402,584.4830662810907 954.9612648574059,566.5071968416765 959.1671031771382,546.9326059049407 962.933388540085,523.4566249804648 971.4184540115342,498.7719344111877 972.5080932625157,486.2487765963035 970.0116161019981,464.7794489612136 971.5163680233413,455.77736736242093 976.568427305389,447.1339591387838 983.5705288599252,437.3080820033495 990.966996193114,424.3509568042282 997.5653311501775,414.137665243847 1005.3571212300471,402.7366852068752 1012.7645843840138,394.84836071278903 1019.4105884272892,388.1520217132697 1023.6671570997705,379.12240153240356 1024.0,369.73842898001993 1020.3685624176989,355.70648217475014 1017.9511089331256,347.12712401476057 1011.5813673919316,334.2832393040459 1006.0118090801494,323.7800633716575 999.2892116637969,317.9734333175843 987.8203017181817,306.73561667870143 982.2581221422677,297.39819969557846 975.9356273271702,289.24423031862193 970.7801002696357,283.4225787063525 971.9157372017751,276.77530637572465 977.3819437985528,272.42698660277495 982.0875130419254,269.6526407298661 985.593727421659,266.50186196549487 988.3138243985338,261.79271229278265 990.2400291190046,255.5235520679846 990.5925431798202,250.0513737233606 987.3802997070117,239.5160634750157 985.3547713246371,228.98533998157723 979.7525319699108,214.96365860331298 977.6814673692928,198.5583979379229 979.5637760681548,185.65086044542215 982.6441309561577,174.68336952791026 982.1524214879893,161.7971769702989 977.3796961113557,154.01623956050992 971.0673031644333,147.42413574199315 961.5489883557237,134.99584758935305 952.4540749256976,123.72991075642813 944.5108059484386,110.8878072732598 942.1333119014259,105.43144860559823 938.9255915794988,94.90389308380793 934.1310861379869,83.99461156743178 922.3031552164774,75.87225450736696 913.2723174662893,73.19557947493354 903.0950668726307,74.81908918983731 894.0956456281172,77.21634891480164 884.2970773567667,76.49425541237417 871.3426916703863,72.25332200839932 851.7427713672603,68.0491312659567 839.6174232597427,68.49744296291874 827.8374732032479,63.07074133794117 814.8314369729694,47.88214253076728 799.0818344495949,33.48432265059307 790.4817303422318,32.7293632755501 775.2273149556908,32.7867924338974 761.1338190545154,31.27683715489445 747.4467243312672,28.97663893097831 732.150864149219,25.526755598657928 717.2279975193568,17.772115008273204 703.1133324048618,12.755727321296604 676.0034348330533,0.0 672.905471914121,6.27001491530757 670.5736348291506,9.017879834752875 664.3225200922041,13.744421404431364 652.6505731883619,27.880319272406723 644.8880661280284,39.655327877124705 640.6688065195029,54.133883509008456 635.2932803352855,71.76542172390498 632.2109397334323,80.37939850235227 627.1271018469934,83.14529674392861 618.870258956139,82.03941167444862 601.5973678853647,81.38231446689133 589.4166941880959,80.70091859585489 582.3396141170209,80.76173434852706 569.7797231262983,83.60153165909207 564.7045512785695,89.8939651299271 564.3838514190336,99.66404222792619 567.659524832197,119.95919620053292 568.5153206763052,129.71752910068005 566.975561481865,135.20569068937732 559.5226212933658,136.83551788391617 553.228450607876,135.3227111903858 547.6805513376638,129.90452515788434 544.4904712791093,122.1183350402847 541.6613186610922,112.37357091596027 534.4995502566253,99.14932950704826 528.5439344538729,89.43624016810122 521.7828976614552,80.89648103862362 511.1453813850361,75.5223974383573 490.2601944493552,69.06713180786039 468.20729347297566,65.74317358298708 445.7922031312534,65.15792768058179 441.4901941658314,66.36242592166184 433.68698008972103,75.40616641100712 432.1558106104828,82.06136014096853 424.8115897802254,100.88144285700605 418.9613497673392,105.6115539944733 412.68313978397265,106.44424724101168 406.78000199088683,104.91943052375677 399.6883479162652,102.63108652693495 391.0763512965515,101.90731590869461 380.47485961389816,103.9356016638992 370.2943643049712,107.51603551421147 360.53891268520124,114.21915637324582 351.1972407368177,124.03821368836952 341.84284627783336,132.30171913685558 334.38643957511715,132.7298212104306 319.0648553464472,125.78117794105822 308.86373773773374,123.10396054915702 299.0798501340011,125.8839688514197 294.8106836155796,130.9817151375663 287.8284723057574,140.3972386673429 282.3879795852005,148.6372785904241 277.7551959672659,157.2512417501224 269.5694651784246,163.93259176246863 255.0982926436382,166.7420405489312 242.55541772711598,165.6331650170623 233.15277450130532,165.29423140279516 225.8119423707433,177.92228180658162 222.2266695856866,182.96319672863126 216.60267709882066,195.79370083191657 214.9612763458412,202.41828891322916 214.09975206400222,210.61424186374916 215.99094352139264,217.67685467038507 216.34149803684005,220.80890106979564 220.57527154857053,228.67389445631818 228.32037577769984,236.58618239232158 229.4513574987603,241.289525896962 226.64331307825847,247.50961727956644 220.68607309600628,256.0383724124712 216.26463568034472,265.3634006376815 215.02323883616043,272.3899590745233 214.9288187618849,280.2048343015674 215.98511297464452,292.341124886735 217.0685331219162,300.5640215376244 220.1264748310058,308.4165460505457 229.45113943271883,316.736347816219 239.5903950952845,320.37243601349286 250.15745726513148,322.07046240261803 255.64442189142764,321.7467298738769 263.0950858772703,319.880651852053 268.202927512301,319.15805270267396 275.2556953031459,319.2546883466215 279.9192844951425,322.8311002374781 281.4085915938349,327.4381757059236 284.02242877845407,329.46893198789905 288.8791513962223,332.18207099934745 289.13144195489843,337.40122866340005 286.53147822241107,337.69806435257993 285.3480282598299,340.26593733735854 282.2888668195203,341.7995825388816 283.8476472334474,343.7038617668596 283.52675315374387,348.5333089990945 282.3323834701979,351.1318695145313 279.7615692435374,351.31433456396826 278.4784369676842,356.0717214889011 277.2725235020585,358.23204014039044 276.74475712993893,361.63622927962484 277.4555050676134,365.22806495879604 275.12302203014104,366.2490957952417 275.4635414633725,367.9657456499328 279.32334975153634,368.40913223885775 282.38913113561085,371.51696728970995 287.9219024146752,373.1379207876641 289.7561695989395,374.300034013813 289.29749439882556,375.913741885641 285.84005435926593,378.21359175249546 278.242516592986,379.57592620303274 267.40878512026393,379.3307317085537 263.02568010869186,380.0114734435759 260.9523053874522,383.69547243788753 260.4967988961994,388.07828056335876 260.4936109695556,394.3089154273307 257.49901635329553,398.68629923075343 247.82102683353054,408.1222273501257 237.91220410649584,421.4849115141862 232.6117468315417,425.85768018127385 228.28051547787672,426.708142256563 220.47860619707959,430.6109529708842 217.95276770067494,434.775824103314 215.48682782831523,436.8807869470618 212.57118112772264,441.0391649769845 211.82941231335263,445.9353749403307 207.57211896166655,449.88357582039174 202.3403769485025,452.84534094196147 198.08148545684057,457.08663096759875 192.95822574229663,467.0306076426473 191.35194629010468,469.3629847817686 185.71228971389883,475.3820068743326 184.24068887941777,479.2198466922783 182.98758559754742,486.24609375448057 182.52059949608218,492.0968181592997 180.8670879007511,499.5138633409055 175.58426101239627,517.8297116765912 171.4705478660585,536.9373458835347 168.4945360283886,558.018510182869 169.15086436354264,570.9223848798553 164.700466583665,582.607665387399 162.24832724440097,591.5767793580271 161.4213681427714,597.032088925476 159.0066998832674,602.4868724857137 154.62384698861757,608.3045402137676 150.288276219348,610.9983021184885 139.20091726686772,618.7026847941847 131.3195439557918,621.3727432732285 125.01534521495743,622.0943523006897 116.38176718878664,622.0105219540626 110.84756195564661,624.7041089613018 97.38019556873469,634.3649525714219 90.64690784875566,639.3911352574796 81.14428030646823,644.0021005617688 69.28314109369398,650.5538094667237 60.55846836915159,656.7459360953306 53.013993344268926,661.7711243997178 47.46747245107569,666.4222072194714 44.2687914267055,671.0880393087209 41.100552734242555,673.0205267592346 36.393213456502586,671.4236424755842 30.52631408426101,667.0849931598223 25.080606101798928,661.1808441996384 21.543849934656293,660.7651413558682 14.016887239211215,664.6243392637359 11.207573282660839,670.0791139788312 9.546638055757358,678.6678035420687 9.229772255909783,683.92806934075 1.3629826352480554,684.4669755000762 0.0,687.8515982945189 0.4195564444910534,692.6565923734081 1.6706138956643237,698.8870577493472 2.8813339325445964,701.5146272584209 7.598448258688592,704.532607847523 9.476052895571314,707.2163906047047 11.229485001318164,712.9591162612232 15.10773396867807,717.5831646041787 17.517011648566598,718.4321515204851 22.80958375481047,718.8716328991667 23.907087652494244,720.2424282219745 24.009927229648582,722.7540330384624 22.10330087895022,729.1994988014172 22.308985900339607,734.6319301258069 25.715254075708533,738.7442890846464 31.14231182819438,741.2160250126531 39.30688301370637,742.9028201650426 46.435957383993575,743.0975542489941 49.00045757510571,740.9843908407202 54.026330106774594,735.1978276775119 58.44704873271163,734.5197841769833 60.6115309137493,736.9830726435748 65.46571137280405,745.9317558135838 65.50897734803488,750.288270191387 64.94559982387278,753.4616244338625 62.94545121281947,755.6413183314779 56.72945780554503,759.2168804249245 55.458427855805226,761.8924980556296 56.5176545519124,769.9863231725735 57.32987630270125,778.5627435548702 58.715870405530616,781.1404842159136 65.33369008748056,783.0977836103204 69.43787354250097,786.336208239834 72.25276774489025,792.9936914686053 75.13655264686788,795.9715215720688 75.85558394459292,797.8877981895337 73.49733929936876,804.2707579111301 74.1654988675254,807.4607589943987 75.85932389830177,808.7168327766315 85.23647619482796,805.9238577618423 90.44759985394698,803.0572090457514 93.88543929063623,802.6226632793822 97.78430177746098,803.9014724044717 103.09198985343758,808.3885285885574 107.00130510947217,808.4599580574331 110.02718959824686,805.0874797623807 115.25805110512637,801.9917261884232 119.69117457451954,801.8836069244173 158.76614057826555,777.1976076609569 167.68419995523465,767.0574412679881 172.29848037931342,763.0877296754804 177.01517469966734,760.9797999899583 179.11862500527837,760.9780549420576 183.37513444809076,758.9914280711529 184.18296688701713,756.5029943150814 186.3960293918594,753.882047345831 188.97105183749593,752.7936438792723 194.2742479236542,753.3038436018793 197.47352348324011,751.513972472059 198.69173961085428,749.2109582477434 201.37237367741986,741.5320815622687 205.34789942668766,737.3269294918828 205.74488614121168,733.0927738964529 207.13514622522473,728.8730028023145 208.81386938333668,725.6333753870472 211.17120549475496,723.3632700899649 215.04746462824676,721.449688000247 220.39148643722075,721.5499622699031 225.0874617707514,720.288404125343 228.95447001459712,720.0643364999261 231.45818749627728,721.1716635075835 238.0359619572774,725.0793609112528 241.3449234098311,730.2728135169646 247.29487700112279,729.9079331353701 251.81134871563088,724.0370825493214 258.16210359110056,717.2175833945031 263.99831040333805,709.411265175785 268.76261287055115,697.4234912388143 269.7042830211567,696.0599164182192 274.3041140693602,692.0078103230665 275.73712020237076,689.6648388338813 277.9492301858901,687.7215435624746 280.1923562296246,684.5777826976048 288.49369113993885,680.6432250982236 293.2372722106615,677.6613143341724 303.3795914924314,670.4446770172389 307.41759622237726,668.791734200221 311.54893116785996,668.3048781898717 319.8956972055687,668.5209697995816 328.7947940260016,667.1449997907437 333.3081930348738,667.5625442141506 336.623162503468,669.7347583230057 338.2496473413281,673.2958778433313 336.58925169975373,680.703849514908 335.3343164947786,684.1399426072302 335.57682491491556,689.106570063728 337.36490419767375,691.5829821022057 349.53247262070454,693.5208014697535 352.7419774898841,693.6058710026668 362.01016983085526,692.1699221072319 363.6425956952486,692.4945179192155 366.70426866670954,696.0785335454123 368.34039145934906,699.4109175300572 369.7844160312171,703.9678980684904 369.6329002459003,705.3220258092505 366.46990364845396,714.2930114648141 367.8088560136304,718.2789677757295 372.0986818606526,719.0558573508833 376.9335550057032,721.2656977678132 379.88797287235815,721.8811017923052 382.85187648276496,721.7120935415079 388.1093601558918,719.4671499593321 393.76376341594704,715.0677734215716 396.94436217206675,715.2988674561858 398.96765525250885,716.713737573748 406.92479098425036,720.9989596325617 409.1641097996124,723.1396997374736 411.1846744759658,727.8828514196534 413.2269195877026,734.1366757240064 412.19580236418534,736.2837164710112 406.7039704079823,739.6312094293354 404.2881425081838,742.8431414847436 402.94106805582294,746.4997621446795 402.37987841793444,753.0774543118038 403.32245336866856,758.2489864762402 408.34917171626165,768.241594006791 412.4314111199636,773.6116464971014 415.64225962824116,778.5178283223618 418.4555122560593,779.6206375660868 423.98693354066637,780.100759572423 438.22682616299414,779.7769183184496 441.8420874519947,781.4268108534287 446.65423825907885,781.4082348365841 462.4240679043046,786.0499595654429 470.5621450111666,787.4200733924347 483.0016754367327,789.0239800970992 487.56740167223575,788.59751116549 492.59543126907465,789.0667651978449 500.55824274588963,789.1624097804813 510.53923250153247,788.5759842638203 519.1941647998713,786.2053624915945 522.1154115047399,784.7948905408288 524.0258829177687,782.0892738778351 527.0289319183954,776.083221941637 529.8522008275902,772.8688603130544 535.2320868463958,770.5466335190625 538.242217497355,768.1399145789072 541.9834633442357,766.5241708789372 548.191196029404,762.794468675103 551.0088048324188,761.7845601823658 560.0980743371092,761.3924696300536 564.5626519053536,758.2807169334067 571.2230357352053,755.4562519300463 576.7007430952501,755.1311052554099 583.282601926971,757.2019074123516 590.6801668341109,757.3690130592672 597.5207808642908,756.8434386636285 603.495731191551,758.0678701217089 611.980958609908,758.5414695861125 613.0799914232172,759.0361972047435 615.5544687336013,763.12477274128 618.9340744986773,764.6069381667503 627.1422951681124,764.8863552172496 638.81933162401,768.8415507230309 643.8767667137565,768.7768175847178 650.3708285201446,772.2730138388656 657.1971574537957,773.5410707594934 668.4943445003887,777.0064417211763 673.6065245131284,780.900168994507 680.7686302700465,784.4342454398802 684.8767815935566,788.8202987135529 688.8836399961573,790.2106660599047 691.8951559576226,792.0049135154791 695.5461380495028,797.6966878222707 698.2954937978735,803.889268883877 700.2689158688991,810.991509767667 700.0036523041937,814.4930405778465" /><polygon fill="black" points="130.28153282506398,803.7138737423522 130.2716221696702,805.3303073793683 137.3004299567321,805.7829195721353 140.22514429047416,805.453661853503 141.93775835887342,803.9674064264617 145.70977827161397,798.8564318313512 148.69602498484983,797.7205053801622 153.636935422195,792.4534124252355 155.47424115699434,791.6609297451145 157.616803698715,789.4478633725051 158.68171404211938,787.1042796749156 156.2966084468334,780.72555550542 154.090731124325,781.26595627672 150.0721254095672,784.3123905842597 147.76523749321163,787.2757359688301 142.0124684617501,792.2652994207467 139.07902428149075,793.2374090480781 136.40112996005305,795.1164264890276 131.54335353813886,802.37461169452 130.28153282506398,803.7138737423522" /><circle cx="734.8437369856634" cy="472.8366043557984" fill="rgb(100%,100%,100%)" r="16" stroke="grey" stroke-width="8" /></svg>