<?xml version="1.0" encoding="utf-8" ?>
<svg baseProfile="full" height="1024" version="1.1" width="1024" xmlns="http://www.w3.org/2000/svg" xmlns:ev="http://www.w3.org/2001/xml-events" xmlns:xlink="http://www.w3.org/1999/xlink"><defs /><polygon fill="black" points="100.33872380077234,981.7174832322817 104.47962913126185,991.5813495585811 109.76211247080923,999.2351613049102 113.76512018244563,1008.9673092182367 117.55297086250825,1015.3893745018786 127.6916431363651,1022.5392162643732 139.17997758242385,1023.9853836008757 146.6369965805618,1016.0071409479197 154.4521596050126,1006.2195243961667 160.7213431515287,997.6153667022653 165.80809712046155,987.7680270741586 172.95921849659507,979.7911728359343 177.9533765705611,973.5715813475614 183.53987669064358,968.266333700769 191.45589841242827,966.0417859127982 196.828555992088,969.18213751003 207.67351135740654,983.3205055142656 211.1261453056356,977.6768230554397 211.0367588867078,968.923333260275 214.02415579430487,958.1335159003908 221.27429548979714,945.6452079784797 230.6777380390914,943.7667363324789 237.52604562302648,947.5600315156601 241.28113529628249,954.5928069432134 254.90188496603974,965.5092120776801 263.3869784733945,964.5222563620837 271.99689672988177,958.1107953142392 280.51670314653524,954.709255613389 289.99553594840637,961.6001078973519 294.6436194829522,968.6617639501624 303.5075100669091,976.4359926159638 311.59984456947916,978.7568165852852 321.7885790785728,981.4418265154887 323.6162243052958,968.5141280100893 330.9589090472435,964.1860838034798 337.9526560216782,962.2533916365721 346.97696330544636,963.3874742386424 354.7140627366285,968.1095178254087 363.54147662597177,977.678432937086 367.20509445388933,979.7680074628671 369.093942943419,983.9458889584104 373.35923838195623,990.0408795274082 374.8032790913953,993.0391051525369 376.847520720851,995.8809823486672 379.04726464536395,997.6025129153074 381.8372783907594,997.7505871433743 384.73695675179596,996.142134213573 389.95257185324533,997.5903290816113 392.2520032498115,998.8592401224728 392.5639809505398,1002.7128469166319 394.5086874147211,1006.3052965638315 395.99504138144925,1008.0596502500506 398.44406930918075,1008.1779047036409 401.0848471970504,1009.4248981072633 402.6674130711817,1011.3130562108256 403.9404580794365,1016.3870459896566 405.8370435438714,1020.1963489679008 409.6511223267708,1024.0 411.5638383228343,1015.7534239264513 413.31664035727584,1004.0853894027166 415.2414671795844,1001.3269880995573 415.4599155152678,999.795028015132 414.5836798924344,997.7318700068319 413.1671577551392,996.4297542699211 412.94674575509333,994.0351340758884 414.46077977557024,993.5492307401158 418.69923801801224,995.173452503854 419.29516890897696,996.7442792101967 422.16278878969115,997.5907322489778 424.0797647417398,997.0617162896074 428.11153312120103,994.2258517342701 436.0265749797608,994.4328487013627 440.8107469035291,992.2323447944887 447.16672926038876,985.240093321651 447.62620948420584,977.5329687483542 450.6552366567702,974.8738163726975 453.5093708205626,971.0135345258068 456.03844226468306,965.7158976922275 457.9256481426026,963.3789687231005 461.6759883189774,962.0651288792417 466.5170371061548,962.4835244100371 469.17511750778556,963.2980410418219 473.01270739155115,966.215263176139 475.16431734387845,968.4389391570322 477.0722663703761,971.6596905951355 478.3992814564805,977.2561166267132 479.0932476782133,984.1175640369297 478.7922170767353,986.8001030476863 477.0319459388513,991.5531248451031 477.0093016211846,992.6731953771558 478.09206240630107,996.4614401186542 477.7011346007827,998.7551077063881 476.1105660308065,1001.1125126836572 475.5042571247595,1005.4193532832036 477.6626685772984,1005.6290620722834 481.5201194615191,1008.075391141559 483.1208360611979,1009.8075041977099 484.50001445724837,1012.9481114068806 485.8644586790365,1013.7159617246409 488.0925090099504,1013.7097325446827 489.79450189011607,1012.7689821398582 494.31900924539707,1012.581334843306 496.2461094476869,1011.1166695032169 498.30280733469493,1010.8544311079983 499.9192409790368,1008.639991806519 499.4893510357045,1004.2019466274725 499.8288807523608,1001.6204751639631 503.27199522382074,996.4836859932215 505.59973237274914,993.9069118088305 507.9988728075397,989.820763411931 512.7753185701997,981.123886478799 514.6414968910113,978.6324620746386 517.2730578729522,976.6513921796029 519.2645639163487,975.8645266569333 528.4283437696416,970.3087335943478 532.3631734727054,971.3652719562546 535.3720969559114,973.2567365646045 540.7855806376696,971.2980211602537 542.5082324496824,969.0419867631731 547.3025207254366,964.9369743065213 548.9658439376536,964.2545982882106 555.1441006997926,964.5210649446597 558.9915073636072,964.200794781461 562.8986792685578,962.8929726868666 565.5318410542917,961.6721343433022 568.0122907912078,959.8562559613055 571.3563402154209,954.4196789376374 573.8331099578508,951.9253829432411 579.4569297607071,946.9961315922988 583.7244743969918,942.3789882137401 588.5096298798018,937.9242165996267 590.2272839854626,934.9090819539803 591.0297220070612,930.0067815666322 591.9197329648438,928.4208710860445 595.1452441692866,925.2465209821861 598.667629580787,924.474101647768 603.0869625929355,921.8290050238019 604.4346254143694,919.6353292366466 605.8329272303674,915.6457220348511 607.5479942863794,912.09664586099 606.9949445473341,910.916843529162 594.8306245746621,907.7162575936798 591.6589408221715,904.5435741879847 591.0350539334887,899.4622519152691 592.9329141166397,893.7554531160573 595.5312819685445,890.4097670962503 595.427372576399,889.4241916632454 599.5627140264228,880.4859025892472 606.7292637438205,870.7161400276495 608.0754948977814,852.6525505187458 609.5413433343324,841.5295789673529 614.6342901300246,827.7560688646736 626.0723908888274,807.2670564272145 628.2276144306468,803.6778646269061 628.8707135218021,800.3809950611227 629.7995063438149,797.9756527062192 629.8193726713662,796.4571980597024 628.8171128677179,793.0535433355237 629.9002769519377,789.5407032670133 630.0524896095436,778.3961249013155 629.5232270439581,771.759332276711 627.2270536474401,762.6880216703951 624.3246843812072,753.3021429025782 624.138823188575,744.2543180837963 624.2409592981564,736.1190559524221 621.2933763905958,731.2582013544807 620.137051417489,727.0268404265862 616.8760885240787,722.4641775146006 609.7825216187515,711.8131482906222 605.0432920013725,704.2109955274864 600.9701189747462,692.402103289756 595.6519676637408,682.9875562868874 591.1802995024524,679.0149773257547 588.4867762030794,677.7730208247116 583.0657757117257,676.2027388623476 578.549031403937,675.5322605949584 571.311745778743,674.8394220608509 565.5831853151544,673.5666322222456 558.952029233073,673.1787355772624 552.6150437390603,672.2045557017027 534.5647613255303,664.7681455158399 527.6681199975918,660.1767957352854 520.4432333231794,657.09267316207 508.7255261831642,650.340723533063 504.1963537086644,649.3905428093758 498.149885081368,648.4249184398147 493.6056811883154,648.6838913179308 489.05531511060747,649.2398388208971 485.40834779654966,650.7159570103167 477.52380432775715,652.1537904956854 472.676775771991,652.1053061302096 467.55333450189113,650.2432342469529 462.12659754037327,647.7770614046212 450.745063863118,638.0274010295645 447.14471106073495,635.8832855691169 442.0003531318013,635.5282103976296 434.73998909039847,634.2539993398963 427.5163089329879,632.6730242915647 419.34477540548323,632.2823229305243 414.20692937379357,631.6278078238661 410.61803206727325,628.5717181277894 406.1118099378136,625.814715324985 403.16996714088333,619.1483682346347 402.00822630534,614.9179165437139 401.75298113534154,610.6959527996107 403.31889639534194,607.0956732137795 406.07442719635696,604.1171312551571 409.12894516867203,602.0304743321931 413.73565605275485,596.6602007419563 415.6316917575889,589.4517027408806 416.6233681684283,583.1273960458699 416.98298455253666,578.0140061666098 410.7418873663773,569.8107910441892 408.4035790907716,562.8499734619324 406.3631626019755,556.1947459782282 405.51625713326223,551.9662131113257 405.5581571218817,548.3495952504782 408.3517067111119,542.6575106006592 411.7102191390167,539.6800758292202 418.7890427170099,529.8091532984463 419.6573698419816,527.215977372232 421.3458498663194,525.8092722530539 423.4447615923337,525.1482742345961 428.1362594184166,524.8096443754885 430.396224910217,522.8887388045002 432.2495327422243,522.2899949173161 432.5924179525371,521.1007299335521 431.8036377626092,517.0772716189111 433.5270655887903,511.99331254248534 435.0015152385176,510.7920471211613 437.9731138479869,509.58572587742833 438.85729917977886,508.40560927097613 439.14186207785184,503.95092755602104 438.82013860670776,500.9924965847473 437.55902236018545,499.9202753363579 434.9355869294665,494.48815467585075 429.5720499785698,491.87073929866233 429.2647733924054,489.4946320698432 427.1635229982741,486.551008855261 426.5686163854328,485.0682261099993 425.65813602637337,480.626961714579 427.7298992417309,479.1364205894257 428.3175881133878,477.65077341563756 426.22447593763695,475.58791964319903 424.72242955609823,472.92940147854665 424.7188606525622,471.4438729875119 419.35239367857037,467.6284481618493 419.3430615731594,466.1429328883496 422.01681767361185,464.346051531164 422.01327634466236,462.8605217902159 420.5145096771012,461.98459555497004 417.54656472202896,461.4079101075339 416.6435016127866,459.94552758696386 415.15755237075064,459.04848046720576 412.18685653822484,460.2635369266832 410.7030074720311,460.26696319484324 407.7333230015905,459.4034851483707 404.7540296675822,459.420771627897 403.2688761875839,458.84042488871 401.7857085358826,459.140863117188 398.82198928985935,460.9288009995239 396.7404662359252,460.6455004141311 395.2540329346135,459.47217246855587 395.32134488401124,458.3256641740753 397.3197415515029,455.2397616883336 396.8527902968294,454.5847898475621 391.387727806251,453.49113115570117 394.00976172108614,448.21373933589587 394.6393144770793,445.5515396568326 394.49688982413886,443.7494860175476 390.67748720441585,433.4194982554211 390.6760907899302,432.77401447532407 387.66803156567346,425.0740853680762 385.5294574770594,421.2307053992905 385.7976596206736,417.68849804512763 387.0026719746206,416.4475365283163 388.8857263412646,415.6455111320413 392.0154717156623,415.6900125943913 400.448387410339,417.91157293583 409.8303710430116,416.83727366214066 414.1640241856835,410.26585733793195 413.1087564503554,399.72881908442787 413.76552597396443,395.5204281540615 424.52990619385827,382.724452808817 429.1215756323338,379.17428781632896 445.8637233339046,370.95660891947045 450.94976843447944,369.58282722520426 455.92262750646415,365.896682792069 456.44241729592056,358.36628949213025 457.98750017933304,346.3212749920202 459.23919287568646,342.1136802589963 460.80137802043,338.81498616147326 461.7410127174854,335.80585070900463 464.21273050360037,332.2193957228062 467.63487820152625,325.00973765938954 467.9740075087842,322.3085011649762 467.10457536599876,318.9755697102644 462.3081532226904,315.3179833184586 455.69130575450544,311.6334924273566 449.12242546942224,304.33850691128646 447.0297908215353,301.59232314560813 447.10262873377604,295.5696671715991 447.45560826408587,291.35526202431595 448.73380696992893,285.3400013436574 451.54306461262064,279.034140622663 455.87037244255737,272.4376187879883 458.32489587592477,269.7518237760222 460.49947176865794,265.8519788514211 465.5329932721379,258.5683048856512 467.0267039088829,251.44004592940792 467.38092511453,247.52267388778876 468.33094365415093,243.9218234206936 468.7140481198708,236.99113317942374 467.5875486439814,231.24908387783512 465.0885458817075,226.2075272769299 460.8377153769526,221.1798342415143 459.3616900594601,216.20642108161144 458.77741693133595,208.83921904829822 459.1513449499331,203.12594843343732 457.10153785798883,196.77493751472252 455.9991753370723,188.01026626970793 455.48484468582205,181.07406057600815 454.92277480796884,177.1525386376236 451.44542898971787,164.7576593647035 450.9023659766518,158.71153822696317 452.5620759790499,148.175253032466 452.6379066312477,141.23877225561398 453.6210732696114,135.822305144334 454.5710020209075,131.91780581805665 454.6267376264059,127.08749434994763 453.18815850582394,121.34084136424951 449.3004817576344,117.0822308429091 446.3155267067415,114.34227760663669 439.71053026297994,109.15039618487663 437.3548242728708,104.90859280071811 434.99001692566287,99.7570061835064 432.6268839692417,95.20881727466065 431.16117780235635,90.66888422789759 426.4356173293565,81.57233060983503 422.85017009224805,76.7114297056388 418.6816275790818,71.54419284484914 415.12543279321005,66.07037583052727 413.05971814514385,62.135108554661656 411.29512043468185,57.891468044671 410.427908062781,54.259677153889015 407.81868452170545,45.48751728806144 406.33734533939383,42.152923701845 405.79365160240224,37.325294970320556 404.9438880804762,33.09129274053544 402.58215677606336,28.238882721857976 398.69908661757,23.67515143598405 394.81264278328985,20.61138995409965 391.2096283916314,18.16086228031793 387.9033788853444,16.616739091788872 383.37751659943075,15.962573483320398 379.1361455927396,16.51323852629139 374.12529283251246,14.685769060870484 372.49192939264304,13.026053349882432 366.3153632185541,4.844138555610243 364.3511623567333,3.54127725906244 361.74698703696333,4.731012223386756 358.84934264443126,6.543126050699357 355.31006506336894,7.131125843040991 355.11312516233477,6.070546985486999 356.3816598359235,4.00663952114985 360.35747778469636,2.4777412988468086 361.26201266110286,0.588045885558131 354.7382960444457,0.0 346.2836041378708,2.678356239834784 345.4456924568779,3.710645277961362 346.4242394236825,7.15857811951139 348.25239148315836,9.58338409401017 348.79091845724565,16.471370821724122 347.600212675112,23.026052937340523 345.04024015861114,24.550631172228805 344.4038480107806,26.093950350854698 344.39438325803803,31.615677351368277 343.0603536839097,35.51621074645891 341.9230213291987,37.26421795652652 337.20597721727574,42.14111451146505 332.59067257978654,44.37513978510515 329.5874216189856,44.217407625162764 328.3607179851408,45.423804703384235 322.2976970919201,48.05703460145503 317.4432635953537,49.80057911316396 305.59359502739187,56.56806113868049 298.906226585105,61.30473949003317 287.9695008153565,67.48689435891788 281.59761606362576,70.4053783797616 273.07974651839095,76.93132081964347 268.5065466153519,80.18464449822307 264.849691126969,83.15004279864684 257.8862360385143,85.46606276436808 257.37818971710476,90.45983679314747 255.1858286893288,97.36457008895661 254.19669560658588,103.98384719003286 253.491080813105,111.86748906819241 251.2157980534464,112.92325518258872 249.86977845454123,114.45643741806782 251.8871164050593,118.06940809438447 251.79390350171963,118.76366652524973 247.8235160441777,118.84983482230962 243.19125095347422,120.8876113813908 239.39314052957374,123.55799107812368 238.20988507687485,125.50894445412314 236.58704606256876,126.82931938408854 234.15390282684,127.17899458038107 229.93914593150657,126.96910958198475 227.5008100928472,127.94182795969414 226.50516498900416,129.61772365808474 226.16988789285725,133.35566888804624 225.23964532859944,137.80018330864573 224.25108073468863,139.69034466042933 219.2166355245185,142.3718992339093 217.7060904520706,143.7313830517495 216.9742908810596,145.92888114760194 217.14708149149016,149.4020716180571 219.35407120158365,154.9873201855513 219.73358165492274,158.3985176583327 219.781597255762,169.74929389349643 218.00897889965077,171.84523797575707 213.58811744649577,175.04660098132808 211.90647215238897,175.16118484731953 208.6371116080475,173.90726898444143 205.98981469186597,174.76803843524476 204.5862821352537,176.88452747852796 203.49104979272218,179.66333338110883 203.79529092733893,183.7306430418722 203.37558945352725,184.63942684560652 201.54358149939537,184.2636422698355 200.47600135677487,182.65011402547952 200.45518699638197,181.3420421703321 202.02081566362085,177.07993225102962 201.44282029293026,176.1614605344081 198.77070860930218,176.60273543442963 193.6851888418835,180.18262006312284 192.21800586218276,182.92218114584193 191.48941976930783,190.19806679677356 190.7395737987883,193.99931239598334 189.24633267179723,194.7563498270481 187.55629017324716,191.65104262526324 185.01314761525552,189.33380110275357 183.2317193929452,189.88720553452742 182.9323686246218,192.04345575493278 185.13740473229288,195.86363015473069 186.60233755873696,199.31619691557535 184.28243997428186,202.45461839469726 182.55623520400334,202.47685209492658 178.11351537882888,201.6410880618081 172.74788829347457,201.68526293262528 167.21194872932952,200.50406858583676 164.98513968558987,200.59736540343727 158.2950968901953,200.28413674985882 156.7505920482055,198.91504920299792 157.48250274193165,194.5210888020017 158.37961505995352,192.97721926366182 158.35996614179672,190.91321389587551 157.6055521971865,189.81060111505792 154.78145057249995,189.0455660944383 153.68974790531567,189.35241224199092 153.03898928610275,191.17221335508054 151.42635674157745,192.83733245265796 149.14916155150794,194.2897579522686 147.78866292379087,196.29390271145303 145.17170835486405,196.6210637963119 140.08916866224783,195.28478749265344 139.6497079765903,194.29370300508106 139.97414229649206,189.15457596045417 138.81909223882136,187.8876823686444 134.90373474794154,188.3794652782518 134.07501124879525,186.77586574196425 131.06830451989356,184.64053734904905 127.46557929535868,181.59688993333145 123.84491306712306,180.36212676245248 120.49537250465373,180.93486207477588 116.53080441372549,184.21585104747453 111.94446526184164,186.58709658879422 104.59745376162329,192.55548426177074 95.99548969463413,201.83519486012892 91.06335732854484,208.73344980776903 87.38541569636152,211.7177925776465 85.53359506855483,215.0175785203386 83.03568264282143,220.42471602245905 82.30112852769173,230.36873804087793 81.0461408514346,234.27321422451632 79.48319597865363,237.5755518321604 75.47754466147653,242.97194035041514 72.70343042169698,247.4691163309776 68.98643962529879,254.07218964722642 66.79403271681585,259.18325546121855 68.83973747587982,265.5319652879879 73.03952928495544,268.8860969298802 77.52886152585685,273.1393383800994 80.20878825409189,277.68947491081565 81.36394096346015,281.9121640797373 81.62182953971472,286.13481372576007 81.56472742022984,290.3587649395612 80.19602335292394,303.31452101714467 80.4340888604133,309.0411119569625 80.96748259332028,314.4719164943574 83.27849003988992,323.8401128985628 85.01777509746088,329.5772257893965 84.96772797844552,334.40589138652365 83.61058025147149,345.2384799144128 82.02777531846247,350.9557903581767 80.14948340247904,356.0604466429745 76.14044647102587,361.759149245834 73.08156107918582,364.44863192352557 65.45296240281183,367.70141588892454 57.824926945661986,372.16061700041087 56.87677183315885,373.3882871354954 55.17386371059128,374.1451463488986 53.356578697028645,376.4979211371616 52.72200170193588,379.3623524873111 52.627047022937724,382.44251053913115 55.446532509062756,387.6517274227341 55.89827994044075,391.0277960344205 57.531760936870285,395.1218975519246 57.34760468602529,402.48903778579984 58.16363347802784,405.5601747981152 60.97908022965286,411.07557378758406 64.16315004269255,419.15186251862053 69.13325947956098,429.89830424050206 73.37644344352655,432.6016286062535 78.45532081534212,433.9731607101912 85.60200067234918,433.55401986612935 89.67450888467334,433.90236022900365 92.49039982430617,434.8540543908334 94.97365454164017,437.658016261615 96.79028601357972,440.964169796738 99.88437559673628,453.03344675746155 100.01767339212114,459.5855000337831 104.69486216949127,459.0420331214066 107.86949822393419,457.9767435179326 112.30710292269887,452.38623253131993 112.50812815224002,450.7692118875617 111.76475165510898,445.619976201804 112.88356068444236,442.20043879003447 115.60561272185335,443.6026024347025 117.41665836344407,445.4137641639344 120.39787159258786,454.6062212063182 121.16557320181371,457.82028014847197 123.13955012644189,458.6598213224538 125.13386664637957,461.433134579175 124.58157679054976,463.33816869368957 121.16728324578521,464.75095331895375 122.74027983048828,467.3206360917943 125.08540832270198,467.20695462908986 132.47776160929948,465.9150901304405 133.60208999541746,462.61896775833054 136.5946263297645,460.4054284857293 138.1657108021936,460.30363413404416 138.93317697283828,461.71525153428524 139.3753564967305,464.6335409548203 140.18615883556976,466.6695785905191 141.638710901827,466.85437778613107 142.6692005518138,465.15416755761476 144.78084887761014,463.4429885053918 146.2647008309765,463.4016124654488 149.38992036605833,464.2192574343368 154.76726525585477,467.5848044998637 156.38405749072044,470.32893465041127 158.5034126553891,470.2042916645446 161.33652618563895,466.281304403792 161.96425998442203,464.89930397942146 161.90604113538427,462.67762787697677 160.1492475954022,457.0887934891623 158.87508315511576,448.3577405689541 159.38829096647152,443.90484984875025 160.44799553555794,438.7444011447343 161.46467896588862,435.97000675177696 164.58751301729143,433.4297671571886 171.12316749631998,431.2870892563859 176.78480809394895,429.14467085138915 181.580563126693,428.63932080452196 191.73812694460352,428.5400571029445 206.23965830885908,430.412308496185 214.9398730665014,430.8134758471922 218.54172513201482,431.51609256460347 225.63519424318525,434.29362840172337 230.9682449968146,436.90829861794373 232.25728669693228,437.8088014525099 233.1020341606119,440.0086065630452 234.81740508764145,451.21529855378947 236.65990237865987,458.0625323200311 239.97636782921725,460.98661880758505 249.1150153531088,464.41540722282843 251.35605175362,476.90433684595575 247.24164006774592,481.0659249364876 238.67608888045618,485.45838502445963 233.2643705347565,487.44000168070465 225.82275854899083,490.9391866552279 216.72752486087526,495.4123307789456 214.70531649424464,497.75946191615435 214.97664657336747,505.52070624028886 219.95189403118763,506.3153675720606 224.40634517345774,509.0152416045478 227.74535871730168,513.7537499662424 227.095338209015,518.0453006028735 221.02592394995708,525.3026299172803 216.89538805236933,527.1193612091815 211.96680263143398,523.303570404872 202.227623951383,519.4403689548428 193.51649462816678,527.158765809427 191.401272692817,541.7775060815206 189.83235508444258,547.6168411877113 184.8850964882828,552.0571796349797 180.14896561021968,553.9652688737287 172.79381416001422,562.0022035377835 166.84388172690012,566.4109587022917 159.45322283744954,569.3136758843254 152.23303094378426,573.7645283735872 144.76524230366482,577.7024160689464 135.30892677639926,578.8326180423123 119.00650076502907,582.6588645146962 110.84662767004417,586.923761646671 103.83117735868983,589.9260326559395 98.47511036224742,589.5992548491813 94.38545140273857,592.5297880330313 91.15758596157876,593.3909956968075 89.07478591571301,594.7648067309817 87.67109254822917,596.4041316613113 87.60820559102085,598.6376364335277 89.8798611846154,600.0008385711711 91.5725367337073,600.2571340034212 92.09566438160996,601.9069355245842 87.65250606824526,602.4696917722746 85.44373617734595,601.6296649796576 83.99571186910609,600.4714858564528 81.40369225573929,600.656775794047 80.01251148816996,605.6982046583893 77.86653336228875,606.7129605885475 77.84664993148482,608.0038945091467 76.73273139377433,610.4424010474288 74.4921994504184,612.5232370953169 73.89403405810958,618.1089068605211 74.27135741491921,620.0558567648518 76.6375552044522,622.1160121975995 76.94035225108385,624.1457684321947 71.14255232915735,624.5146618497708 70.4001720503962,626.1131275359164 70.92197200984344,627.8655409064239 70.09800605844846,629.4850289695754 70.41240277961687,631.2886886447689 65.9235411333821,634.7218292397422 64.50032126663896,637.7662149005605 65.50650612787032,641.8047975833714 66.70880690551914,643.8044658137632 69.36013160585222,641.7132933539533 70.96480671823545,641.0574959367856 73.9734588586131,642.3184873540447 74.98128250747273,644.2457653142028 73.49541555349388,645.301255027586 74.76624788886845,651.7389219513075 72.61251959027683,652.9797023123087 69.01806145072825,656.3932986953401 68.03521457556967,659.5192707201923 65.73048704934537,664.0398275687071 64.17553010480482,665.4133378768654 63.81695697726931,662.9326503972396 61.53704626141268,664.4295857446741 58.26342930146492,663.3930758622389 56.40633920096777,665.7510682235763 56.43738622662105,667.7400484727364 58.5957417766345,668.5397591984847 58.822796442289714,669.6677209714667 57.493777538464066,671.2673102961862 55.33396026159083,671.6559709425273 51.827068546618754,670.8138210449493 45.82197384255011,667.7571220858495 45.009986311324504,666.4961957651456 40.70459987379762,663.0506462088563 36.48187501604519,657.133562659896 31.788372658585867,664.1333387698271 32.662588934320155,666.9127161552537 29.584178044344295,667.7423349757942 26.013243059279766,670.0781971411445 24.532352795681472,671.6248293750483 22.49101309678439,675.2850528044023 18.966909075061267,683.8860828032102 15.963928207186306,684.489331957049 13.84138951114232,684.3029040972048 11.857879242351762,683.52363867088 8.5334524301157,683.5928384579156 5.995185099953159,684.791639334203 4.596648618950227,686.3998938980629 2.0379504568913527,690.4486366021381 0.0,696.7140422360203 2.1653894480897153,697.6579035096422 8.611972976643997,701.9379334665239 10.171333160722556,704.9636398881062 10.523602145873843,706.7792698259742 9.759522711601006,709.7945146312145 10.400389217600159,712.6251579709858 9.322354490482892,716.1831527197255 11.283864146883618,721.9170989704753 13.107558274777965,728.4002541717026 14.106421436759755,733.7655700198779 15.47825332440843,734.9769904856461 17.172554090705013,734.9357605187498 19.97094082959344,732.7627825643817 24.001209355798043,734.4157245631449 24.4170954147164,735.3190231766455 21.499528862440982,738.0559882460836 20.03600529690848,740.7436260502133 20.078764559917914,744.0669013011603 21.174706196057514,744.5498594142948 20.668902937814874,748.9403172285436 21.70677009731681,751.5554888842956 21.055850533804456,757.0238314380503 18.97461293487817,760.8903424247143 14.077383174499225,765.5967441503924 14.27093787912599,767.9972572158997 15.026450088373046,768.5313562967933 18.27258792941242,768.0412989345921 22.683537094172333,765.6731666516639 24.731926934443198,764.8629776716698 29.285807422616653,766.1781424922768 29.595474852247403,764.6914820107704 27.957333994079566,763.4485435576885 28.92258268536599,761.6532270120591 29.723785561067842,758.8022335489927 31.903530255767947,758.7518183027536 33.672502272229124,762.5174316208427 34.62383363804695,763.4918821353294 37.51522648887086,763.031490830783 38.687719993224306,761.9145003491292 45.38628288927146,759.7304536657589 46.37499298770644,760.7166676993519 49.14723824052953,760.6135706921297 49.133962114648,762.3172571886125 50.92238036089942,764.9442367427453 55.83714932727091,765.0781519145667 56.78096884254785,769.325742806085 55.425157966480526,771.7363826027255 55.63937198632161,773.5636869031684 54.62447605344675,774.2404689018024 54.76190839745515,780.3756128873716 55.95957355375016,781.5760794907948 57.375884274525006,786.0406633999919 58.0814136334413,786.9846684115524 59.01963149892182,791.1402128391383 63.3464929421008,803.9790737574698 66.42839897820899,806.1853874000781 69.44052600619534,807.3452287151977 73.39730976806399,812.7235453485392 77.09086479015795,815.7407686969426 85.4234756536456,828.9511509406838 87.03603750707529,830.6232805325587 109.39681630906935,841.655886349608 116.01711746115483,848.7270164201952 126.43934072972705,856.485648163502 133.85588664180165,863.2796563303816 139.47524483464034,868.8316951189958 141.13632609569586,875.494570879849 141.77095564501323,886.6759601800196 141.8010816694681,898.1349400825162 138.78404709181513,909.5359001778907 124.04194036955336,921.8855126172313 119.46435007839288,929.1889790387436 104.81442681629328,951.6046821817998 101.59782756483517,958.8981675981491 99.30845909989925,968.4945778933361 100.33872380077234,981.7174832322817" /><circle cx="333.26539844077183" cy="451.46354838552736" fill="rgb(100%,100%,100%)" r="16" stroke="grey" stroke-width="8" /></svg>