<?xml version="1.0" encoding="utf-8" ?>
<svg baseProfile="full" height="1024" version="1.1" width="1024" xmlns="http://www.w3.org/2000/svg" xmlns:ev="http://www.w3.org/2001/xml-events" xmlns:xlink="http://www.w3.org/1999/xlink"><defs /><polygon fill="black" points="774.5155260822163,717.7222537758934 777.0147839501303,712.838719886156 780.9687820752081,705.7558937010698 790.9439868711893,666.9365436966754 800.6319327334543,631.1194047727446 810.804537259151,602.2339721974613 813.0684008097912,594.8116643482927 824.0530145004963,587.0462706199517 835.3729466217471,580.2441662048418 850.5679519060177,570.2083652915117 857.8365616821051,563.5715920095845 859.7742832952882,559.3757232310561 860.4244894398753,554.5325241483328 860.4237816425849,550.0187232772448 859.1304886769814,542.2752341251538 854.6053981644585,519.7041819755616 854.5997887320441,515.5113768856676 855.5792327114774,508.4157149608521 860.1040057419174,500.3374502570846 873.8339461670995,478.2125665157409 881.9166473832736,473.35748459100887 889.9855282845097,469.46927849140405 895.1554701695982,468.1732919264345 914.0331786118834,458.3268104249008 923.7043448081391,449.29183301734776 924.9889647499946,445.09849457209475 924.9912576734092,436.7121942606757 923.3753406885603,432.19189514694546 918.218432666265,424.4473985776719 915.9627887752517,418.64151906504657 915.6440890326413,413.8009699894359 915.6375376713964,408.6381720094371 923.6987812832565,394.12294601269735 964.1198454325902,325.3069931569874 994.3468313948653,269.9217781050491 996.9615217066726,268.5291066880855 1004.3149997924862,251.3308479700582 1024.0,209.08901789586605 1004.0036115833911,202.79889523018403 998.9702359523902,200.90537513654976 985.4823860861604,196.42426071435455 937.8055825220302,174.64714629682499 778.7367549491955,114.82277791357603 737.6572741870376,102.02230567727781 720.100913342101,93.73363217628389 716.7719410339979,92.66752635928867 711.8815184355273,89.93093643233976 704.9444792672591,88.82489876882437 702.0809522074986,86.8600100984628 699.080024060397,82.77465040336472 688.7622901367963,77.3874810740964 687.1708267947394,73.26544331145817 686.051635714136,72.89543138151191 684.7288121435372,73.26278718620028 682.1740836489943,73.21874766409155 679.348806181729,71.02142855948807 677.0702094222129,67.88845807000075 674.1674956464774,64.72952802791099 670.9949830383107,61.876003600560125 670.4370975538449,60.90026807548509 670.3688244600353,54.244019432075106 670.1669377427347,51.26464310706581 668.2981514264293,46.30547664531446 668.3394789186918,45.105188045571936 666.8853636295246,42.324867327130505 665.8130126569731,41.11364046291317 664.5491264190563,40.65937337188291 660.1024459783634,40.99802415987995 657.0829043620321,40.580407809723624 654.4795006618451,39.378754470760214 644.0679081573668,35.270307529184606 641.0085642387122,35.528406659836264 639.4607256195757,35.1215044828582 634.4161021980394,32.60826162383876 628.4306688203567,33.135521273330596 616.9867816801727,34.59584017704242 604.6522127103256,35.997308512830614 595.6425157656209,32.50042599757785 579.563179600756,27.387782473095513 572.5422687507827,25.59777101745317 569.9101447316287,25.738215811121222 568.2206031357424,26.748757153847237 566.3300299024811,26.691113914137304 564.9825947052462,26.01375106693672 562.007564399249,25.750731993942736 561.2011811904292,23.046422498963693 558.974084627007,20.28420399019774 556.3257086153316,13.89344325558045 550.7516677796497,4.328272342341393 549.7139715056794,3.215454186305351 546.1942085583989,1.2715879827135268 544.0312617156211,0.6644280383568457 539.4388398087478,0.0 535.3160676295801,0.07516339477535894 527.0694749009787,0.7721495554681042 522.2643108943329,1.6606659326575937 520.3072817719151,1.804835734111407 516.8539115969842,0.8634465164483345 511.8564829880568,3.2430707002442887 507.86325198108676,3.7887223016014104 505.7039341971323,8.38935805004462 505.1620948126934,8.993447569764953 503.00006189388967,9.13315994289303 501.05782838572344,10.38166253497127 497.879402961679,13.639681646117538 492.388327420865,16.592248515204574 487.4808664200818,18.946881072190536 484.3474160217631,18.95521886398251 476.37701366037294,18.47164764832803 466.59914959662,15.634579570476149 463.560346528609,15.17407993986285 460.1043534528048,14.028504039915674 454.16300974414656,12.544963258169332 448.08611439495775,10.782829311124146 441.3032858769219,8.217802597234254 439.12383573321534,8.548607823312864 434.836115794975,7.0189567296297355 427.9487251356798,5.682938562989875 424.53124669900603,5.772210611633909 420.54235949200296,5.186426269538856 413.9610784456154,4.527732142512832 410.79002833145023,4.053081845596125 406.9660415565982,4.290554696218919 400.122908244869,3.90610277525127 396.8391280360916,4.121986759253559 393.8256293926305,3.9246530505472492 387.28605576018555,4.900319656147076 383.3515730061729,6.093742364979107 379.2653265843472,6.606361045349786 373.5208825909635,6.745728542102029 369.9713870763501,6.970956072788113 360.2289079911047,5.693865202550569 353.1377496327686,6.688983542218011 348.22118349816174,7.756578255048794 344.8380276979784,8.99140074957677 335.5463720939309,11.175756217486423 333.3963973959806,12.3014689897459 332.75308146096563,13.114493611431499 331.29129339306706,16.25715598115812 329.8355635702158,17.389369239905818 326.27200957217286,18.955828066470986 325.40178941916963,19.605895243361033 323.67347395592236,21.825264031164238 320.26714454085777,23.771060775609726 309.7765614254867,30.861622455195175 306.85670815726445,33.354012316639455 296.7881754925366,40.07840796374171 293.8660237745734,41.59377279578189 290.56131287659974,42.790370783017806 278.3723668512481,45.57758796623625 270.78226147293793,45.271598321977194 249.0847963526263,46.202916864546296 242.89552220610577,46.114164050424165 236.92430214790087,43.544383984785895 235.41142804454336,43.38162168942074 231.55450868156007,43.618292251283606 225.9365545625209,43.39358211932745 221.4629110063581,45.16033490187249 215.54127292092588,47.97055691590754 207.43658229183836,49.21495193613373 201.76723765164195,48.9751510618363 192.0970968625016,47.96445694818851 186.95760327113214,46.68196860902788 185.60946934844307,46.68222672626018 180.71139802518292,47.9122177171306 165.89604569411756,47.97324983462249 164.77948860517984,47.56826521991809 163.55171481326533,46.35122332198921 159.88632225792102,40.34541360949561 157.59135700847824,30.61883648114656 157.3363192061207,21.705531918074826 156.6743992389181,15.799467562665086 155.6040221583297,10.96160113132953 154.07534216242135,10.151182053335788 152.39843004963828,10.86478810425183 145.67525241260836,13.11000535888536 142.7180462995704,15.459202202374058 137.2184281406795,22.74201118829103 135.67377893460397,24.438633226757247 134.57587774283502,24.945418491275063 129.84002373004233,26.041301389741875 126.00201331840546,28.12675160182289 122.10905427626628,29.825217686842507 120.12965671600541,30.94362342476245 116.97635939711309,36.283987992512834 114.7928537549817,38.525429344666236 110.47865134611467,41.068596414166564 108.24677601883171,43.61132676188515 106.72794845268463,44.87662652782819 102.76500601755579,46.89799276168617 101.6739759063338,48.07976755344055 99.23996060133182,53.05435505281696 96.34745682911445,55.985701622632405 93.9703166978072,59.4289033008904 92.58444284902706,59.78733472094825 84.96390617761043,63.81977302045232 83.46574169701704,64.1569321331092 78.47534288561823,64.51951135725028 72.66637709385827,65.86698774277693 68.84937204064155,67.21800983267906 64.53602382490632,69.06803552645465 63.053775244118825,70.07317230139302 60.748406811860335,72.58839430895955 59.09514450328907,73.92633612151758 55.9382534211263,74.93245273861555 52.48287367016785,79.11908708114572 48.03932107440137,83.63752821479079 46.224098976195506,85.14114035624561 43.72766014367072,85.82475087983028 41.737531359355124,85.99399476426674 40.07787558494987,86.67010842291882 38.597446178739965,87.84743967560826 36.61830095727629,90.52475486593187 31.474670139322782,92.20878194229431 29.319160893135894,93.38597605074301 27.173704256859434,95.73316913488702 25.049622578911563,99.41242448201615 20.58689502697973,103.26800511796398 17.768389539133047,104.61622398670931 14.773917033062268,105.6333474558121 13.620279215641272,106.97426838717558 11.29877759127094,107.98555600120721 8.987944201141342,110.16215632016679 6.020439284632612,113.34516908820683 4.690698144992256,114.35494475758617 2.530104051076168,115.03564251521323 1.0377073417704825,116.21237623959234 0.0,117.9546208769492 1.6264661285377415,119.41571148519631 38.57598755153901,135.53537255607716 66.34613999838399,150.0569465654363 119.54819819196528,188.15940527859038 138.27940688644105,201.97034754411243 149.31267340403522,213.6618137157107 157.5153841920051,231.51737297411256 161.0949235036355,243.36568600062049 162.47090710109703,256.8440666804676 163.5010650629813,256.47303053252375 165.07273392913342,258.0062548311414 165.67661564596492,259.93788476225524 163.3881626650614,264.43547517487025 169.9984932031467,264.158744558822 170.20491326380568,265.32444443858986 167.8994143547175,269.044170853627 166.97844697903207,274.10527327299417 167.62148946435732,279.9214597043203 167.07214232981366,283.2275789259605 168.74729944729594,283.85201995042246 171.3405961885475,284.0982927650208 174.57474678459522,284.8721791164087 177.55214298976713,286.67177257957775 178.58982183622118,287.9583069185519 179.2344608214562,289.8975864366281 179.87980226491675,295.8443322638354 182.34527497809265,299.45858775799854 184.6705690203493,300.47958909159024 186.61165826752415,300.9923970376225 190.63095464866794,300.467104837241 192.05487625387423,299.5584102701379 193.6478681868094,295.2167396069468 197.3464094753592,292.4603424421008 198.516272113031,289.8322294617347 199.82566318861768,289.6806141191257 200.73330037068067,291.23543613192714 205.9838370471883,308.1694459599467 207.66407686862277,314.8842424327314 207.79212907894552,319.15170007087244 205.59496405898207,328.2017679288634 201.70815525560474,333.64497765120245 201.18492573110512,335.4600497213283 201.57227903804036,336.2352485474819 202.86847920879202,336.7475772517366 211.20248949046476,334.241978375655 215.84743080544294,331.71843281884486 221.68220014496728,330.278318640942 226.14966774080605,329.4431277979097 231.02434798742723,329.1807121358783 237.0616213040018,329.481460413845 237.85571098083255,330.82832541704545 233.41315667859064,333.99954878631524 230.9044167048183,336.9485753553713 231.70491558418968,338.8799286535347 233.086972768147,340.6100210964632 234.84958925672484,341.5565453782362 239.33687336109475,342.4587906864696 246.92615516433608,341.1910732135441 251.40587803326412,341.3285838158616 253.7576469310747,342.6507508245031 254.38083760934583,346.1414210214152 251.70628671160057,351.6176406869614 250.20196451692226,357.26728233464075 250.4467519882661,361.729399371165 251.44903182176392,364.2358118978982 253.81463989127573,367.70101946481844 256.17947707933655,370.19199798791715 258.51683232218085,370.1655351002083 262.3933880431632,368.55581853924923 266.4565176389543,366.17260880706556 269.7489792560908,364.57621652726664 271.30457289237614,364.363520318729 272.8824996542203,366.0919001970491 272.509097050973,368.42606379498307 269.84492896043963,373.8969057014106 270.0662897244977,376.22422873213156 271.6500196225959,379.31641827468945 273.22820949273984,381.04362650098034 276.9564099536883,384.29185228366606 281.8538930606957,387.53218708936976 285.1844522126065,390.0193312567423 285.9960776314407,393.6977645582556 286.61761966723316,397.76807945421587 288.0086000920368,400.08288206963346 290.56010248439765,402.57892115576175 301.12673986683166,409.8385225417309 304.27238070581353,413.8788264571995 309.3495588812466,416.54031247761526 313.257068581831,418.2471571247057 317.5381613980904,419.3729870312352 321.44525568480395,421.8529818818836 327.5244610222765,428.39922943761445 332.24105375074134,434.9546838191737 334.7983411664555,437.6535374505679 338.14481098818436,442.8615460438851 342.73162784024464,453.75348934371186 345.9414597146332,455.21545509946077 350.8106953846042,455.6253678152939 359.60608611534934,455.7829653310644 364.06645938163115,456.33373108921427 368.5277405661392,460.14170053640754 371.9106083291477,463.9409298690657 373.2586516533216,465.8454310316922 373.1313996024663,467.9342858637407 370.16698215717014,472.94195755611076 369.47901304077254,476.142751927335 366.23157478624347,488.8844060496001 363.34789517912265,493.0542447683612 362.115361180057,501.2634192560304 362.578645883164,507.0456040518824 362.26394344364314,509.83911799543046 363.7796373202523,512.8115364305745 366.5660464901926,513.8825819097417 371.7981138316576,513.4561338834219 378.5376350364834,510.48662595977703 384.32206882702366,507.52877736902576 388.9504656384192,505.74974537874743 393.21123753778,505.7170923585709 398.8342020258447,507.0316374117819 403.09505171268586,506.99848448540445 407.93157017572133,506.1840615075756 415.2874143916522,505.7329395758357 429.6304326241115,505.61537834307666 439.51719954601646,504.74567863251013 443.9807283054817,505.28525815279215 447.85114880039356,504.4745544366889 451.50755395264474,501.5267777209136 453.6053264911058,498.008526621397 458.61875145567143,494.4643958360317 464.41769647646214,491.2988494781926 471.3836156106547,488.6954644181628 480.01046554242123,486.7625802442913 484.00521387037105,484.6474991000075 486.66811220160974,484.16219063736133 489.5762894670313,484.39557665635084 490.7915649131299,485.36207640347095 494.31237586654095,488.99013180506574 496.48832867083064,490.4400416231012 498.92228338193263,491.165185082766 511.90247915255713,491.3771367747275 520.0313251829268,489.7867785610283 525.2517612540173,490.13727501158996 526.8298225583903,491.34304425913774 528.1612480896588,493.27459922120164 533.987066094368,506.9497547114578 536.0484514492573,510.9450957218444 538.8406848453236,513.0010195745517 542.9642840590368,514.8051453656449 547.2174275630477,516.2536325333533 559.7048457843111,516.2205778034543 566.4653217365608,514.9704965611562 567.3076489614859,515.0302416218591 582.6255209935016,512.6014436405201 591.3590498552369,510.18529611931245 594.3976614237606,510.11674050064335 597.0289469131857,512.2665909045742 600.3507741837541,515.909787786425 601.0061018844732,517.8004644719409 601.0021454649664,522.253084544709 599.517215190007,557.3431486209788 593.4372053477217,572.3641420194426 593.6102716932696,575.0019711982766 594.428680676893,579.4594998377303 595.1561093094247,581.9733555940444 595.0960943277043,586.1479096378498 594.4866322665323,587.2854990191342 586.0272402063744,595.4450996573058 579.404940319461,600.0816005105139 567.5181625400976,604.050690675386 560.7067267403222,607.1704979930316 555.8206091411388,609.1096968157934 552.2613745659197,611.0360606547829 549.8915695497642,612.8222713767711 548.1068279003085,615.1925392459876 544.4030072646073,628.375287927324 542.175491584809,634.2988407422741 542.4749249366752,635.7785870063541 543.360149370749,637.2497703948189 545.4406183229773,638.8772989473247 548.9926040937391,641.235745561041 559.8141164039631,646.8376493069447 578.7824570765724,651.6872514710361 585.5904714151943,651.5344634711444 593.5836200523149,648.865022069552 603.3398780080323,643.0909694198551 609.1040912856768,639.3900214852358 636.2331989916297,636.4849617587848 644.3889326702251,635.8067853157771 648.8162948646473,636.7494385340503 671.8871899352682,647.5864059435105 677.2448860655915,650.6420569441664 679.0673111618208,652.0033805196612 680.0472924621469,654.6875322810699 681.4253572349604,657.1995176172952 684.1529205704021,658.5378621805047 687.4701546765644,658.7953468417774 698.8996763090335,663.1342684858375 707.7407467273468,668.2461883665408 729.2467289913403,681.7567701594224 738.9879218786923,689.349865109056 747.8574885267712,695.2846188726465 753.1573708551014,699.389182368833 774.5155260822163,717.7222537758934" /><circle cx="380.0731738093597" cy="135.57789473271373" fill="rgb(100%,100%,100%)" r="16" stroke="grey" stroke-width="8" /></svg>