<?xml version="1.0" encoding="utf-8" ?>
<svg baseProfile="full" height="1024" version="1.1" width="1024" xmlns="http://www.w3.org/2000/svg" xmlns:ev="http://www.w3.org/2001/xml-events" xmlns:xlink="http://www.w3.org/1999/xlink"><defs /><polygon fill="black" points="448.06746498356875,1.293267313213505 434.9787520754819,0.0 419.1185239031177,13.459483075976777 400.7732881636392,25.977415980180353 388.7378149022441,25.963223223995556 376.51583855565366,25.20221943547199 371.1750597448183,32.711307066767176 361.1510347899141,42.483750958444034 348.75178947732206,55.148485367772764 336.3897466865991,66.05525142885188 326.9698580485191,73.50044760563708 317.5683152097603,79.21606896418155 307.01132680892863,83.74168256529492 298.2310666711385,87.70284461669064 283.60107983343516,91.59942097138594 264.8927019381793,93.70208734970697 248.55016288936383,94.07883535508495 235.69597128421108,95.67734924400963 206.44482320515363,98.84973847161461 194.1217545692369,103.37187363175019 177.69087702400864,109.02580433685068 150.70146836569577,116.91424556641539 141.74334533463116,118.78341205915024 140.170515287314,119.94000969174692 137.55147438153602,122.7202888026136 134.89410374227364,124.32350562080569 132.2074064409826,124.7699458180025 126.17161030209367,123.61996905040223 120.8264318712802,125.50665606636835 118.08136714774365,125.81091396737429 116.26644500425228,125.35932149996756 113.6323006014568,126.09256412081118 108.83206247949884,126.40934220872066 107.02066803777593,127.97656320752833 107.40048190023663,132.62228796482975 105.30134688048373,136.65766976384066 103.91063690068239,138.00616491523726 96.68440632375587,140.28266589722375 91.42563921878163,143.02761829026053 90.15477104288732,144.11086894011805 86.47909301404994,145.52393271560652 78.73686237298566,152.47139565428643 74.90952035924504,152.20956682479084 73.04113462849865,152.81319570083156 72.8358866032642,153.9713448274283 74.60605796937315,158.3723090721295 75.8830789606916,160.13691069179436 80.01995211280561,162.97006499538838 81.3015681359633,165.12110063314992 81.88524746976421,168.45613499182343 81.78772083032749,170.61546050534912 78.13109765275478,173.80306801568395 74.70262518694244,178.1944850067913 70.4706749478028,179.08937850946074 65.15372490091771,179.2965049092188 64.17024073993741,179.69138260156592 56.887424366783534,180.8813145012507 52.35675121326437,180.98943900000256 52.46410743775759,185.7003827902405 61.49019873250233,192.9266752703901 60.89904710522234,193.51245413827405 58.04329544034592,194.29725994777095 56.57323275214566,195.7807072434963 55.09733870384105,198.52534591810854 52.14309151951153,200.98882851038047 51.54779791012498,202.7544084482895 52.03943721531631,204.03047521939664 57.06161832432212,206.97066744098595 61.44486875836173,211.00027335108325 62.72711425666677,213.24547424250125 62.76615150029923,214.6081151696592 61.29372317532165,216.08142934934222 60.11472361155534,219.3226955153583 59.329820335206676,219.3070029516183 59.09493595489145,216.97422140037804 54.07912117264676,215.1502610209967 53.803246851642996,212.98044800532682 51.642814942227176,213.62885271561436 50.23102118222752,211.5165792563596 48.77425353949633,210.3987466692014 48.06488607506484,211.57000236039607 47.91993349490909,213.98893292544096 46.80978682714943,215.4295195645699 44.66655916178672,215.62516761460722 39.05187455248545,214.95116541097696 28.71810851427497,214.77739157180406 27.12623353380948,214.36453779194449 27.737334191168465,215.6730110909633 27.915071302413597,223.83393136852067 27.753555206573463,227.2445783508757 27.010966208695947,229.19401749117776 27.33016323676389,230.48384071659245 28.79026389371596,232.1738757661767 29.428730205700294,234.76114498497282 29.430462969515794,236.58422332684574 28.55498698077323,238.4962965053869 27.23212984564938,239.8947977598043 26.95607495830633,244.1477242470629 27.118273163156477,247.7217642389022 26.87403404852067,250.98032462832384 26.083139123551213,255.29470811557758 23.42280346410878,258.661309399109 19.692772317904222,261.35515546554745 17.53081957785807,265.669771564219 10.59343739080582,267.7996368364297 9.08386415181149,269.84493699146515 4.6223268028410045,274.9913048393472 2.6262888843876935,278.2191246816059 1.357066535417366,285.612737760071 1.5949020729684207,288.1616607054465 0.0,291.1812184458638 2.1452176992515746,296.6611411882275 5.227711588504342,298.17934833377274 7.88911904091481,300.3050733940813 10.43847827303048,300.6185047246943 13.643071608404682,299.11524685531674 14.779532474700012,300.2351221612821 20.583453684288926,304.26999483030374 22.924079608350578,304.80825686029686 26.62177322532469,304.8275793307905 28.3222830471981,306.3357005236343 29.041068574585744,308.63517877412926 30.15444042330354,316.434661957024 31.42694023085973,322.29825946611527 33.73723426514664,322.5314832628151 34.93967189866292,321.65236495641534 36.9375720476792,318.7522879909643 42.02968994978911,312.4930852526418 45.69629172908242,309.07210243888846 53.865655604710255,296.68967760552596 58.030396786432114,287.44541910206624 58.731787345643234,286.7649253937699 62.388706261816985,286.66191206051474 65.32631106974455,286.08001270588466 67.97690570542136,286.3210666755173 72.5117757655261,285.11679382847865 76.2541973392642,282.676359601522 81.10374993405925,281.60226579809523 92.43375093722884,279.67023746538666 95.63591895412813,282.63086476468663 96.35099105743848,284.22587072198166 96.82394535949386,292.57058750360045 95.79359493935783,295.516156787823 97.06660095780204,297.5781733247885 97.46028036541973,301.2321426578902 98.17323809227177,302.4686398953984 111.78659460917007,296.25021375184645 114.82780633566513,292.72777523097454 119.15702978220784,292.6172749241614 120.28500423915418,292.28487185208974 121.82129470884531,290.0302282876928 123.10162848681068,290.02233586320847 123.97654803763879,291.687476830292 125.88839331325714,292.95718190192065 128.9187306358543,294.1462148602169 131.95114666268452,294.23930536163607 136.78672918807334,292.69383492124155 142.2138240424722,290.6207864916846 148.23131573191807,287.8497678450684 152.3511797815801,284.69895898089237 155.13557509874423,283.69743001643656 166.84974211947312,282.0774726738182 179.11379842399808,282.7876461228715 187.82956806925495,286.37803073026157 193.56596243750627,296.3491598890155 196.89699943595338,309.79885362588243 197.91765870842548,322.6404770219069 198.31878179980964,339.54167826851096 198.16191789310668,351.2136210358693 196.8443870944477,364.0194539924337 195.52809480742522,375.6683390154701 187.70048258388826,394.81925646463196 188.2150373220936,401.23112705821904 195.15572866967605,407.1516388320108 218.59305084740123,401.5786194557495 232.60780793313745,401.14849456106947 245.46940157035942,401.31007047738467 255.37290236353024,403.76393318138173 267.5409162039678,410.3137302292747 279.7376654440692,415.13118586855103 289.5322208706472,425.16934277583414 294.08916770882183,435.7158921893895 298.01544289836346,446.8514993969078 298.4971058116522,456.76980540294824 297.75929209345304,469.5773201867247 295.82855891795066,485.3068942629095 285.7351702909004,499.74942973390387 286.14541807090643,512.582117655279 288.9722485360329,520.7757828183665 299.35156606199337,530.2400805400638 311.02009926081314,530.3964921668687 322.13186522373246,528.7814271409868 331.45058541880525,530.664399433387 340.697148416775,534.8664768258543 348.2090229660105,541.9689284603976 352.154948059836,552.5136940567584 352.61187909418567,563.0118067920749 350.72088860585467,575.227504217893 353.54924886202616,581.6787417504146 361.649633119089,588.791934234392 376.7501103778942,590.7467469318085 389.5977002668922,590.3470720172752 400.6578965335895,591.0860940188326 411.0969819403536,595.3075760294213 417.4097728850457,603.5482817227668 422.55384241280046,611.7897611681154 425.3755665339531,618.2402976498574 440.42802478470014,628.3665537733978 451.9537436332541,637.2671500798317 461.73921650144973,647.8940275331015 472.15716742168553,654.4525423502887 479.04934947384396,662.7103267554546 481.84417237322396,672.0871446600606 481.1101872198848,684.3129632654463 478.6637158614351,697.1034286792842 476.7308832224604,711.0723526845561 474.22612699014985,725.6125593427627 469.44622861915553,735.468300495265 462.8864529955799,746.4458302315631 458.75102228739337,752.2129578142928 456.91753279126806,759.1961197404612 457.9414897384623,770.8671013622757 463.0206967673775,783.1766095307688 467.57986274421796,793.7354492803249 478.5109063552005,804.3786504239877 489.53399789887516,809.7776687111909 503.47188862993397,814.6200967874946 520.34911223285,817.1813174539918 533.7602597195256,819.1096728134012 544.8526368418964,817.4955582011085 553.0590423836404,814.6804442342249 561.2803148147215,810.1079248823271 570.6829573216704,806.7285395510798 580.5917968218224,807.4207835366115 588.7173082917091,809.850785148283 599.7458816047642,816.9792153283012 607.2488906885703,824.6287531561507 614.1697815514984,832.8675905671357 618.7160931241272,843.4163946858196 621.5698394648774,850.4469273875612 626.0452249596985,864.4873520766837 631.1719594106937,876.785741673007 634.0279850374723,882.6464695468874 632.76016669412,891.9605986203553 625.6196295439429,901.8027842841383 616.128526014031,912.1899932761577 607.8590251202808,918.5215812255252 600.8098520194784,922.5216576601389 592.5705786665611,928.8397689561986 586.0713053733501,934.5920620106796 579.6024772291605,939.1819220928724 574.2535522672025,944.9553263639402 570.1130344110692,951.3242854003046 568.8814225288595,956.561742777347 564.6639235612859,967.5843364560787 565.1271228048952,976.3326661402608 565.573343029928,988.0077639410608 570.1265823894007,997.967399157108 574.721538718054,1004.445684016925 583.9443456934385,1014.4598636301548 594.3776277547577,1020.408520603732 602.5392037210526,1024.0 611.8705941795456,1023.5262533454193 631.1713968850739,1021.3978483579872 639.982579969689,1019.1473772410172 651.7012235489044,1016.351622662155 669.8844190039787,1012.4520253952027 680.3961226060388,1016.639568518669 685.6594493881789,1016.6773250892722 691.0169166434802,1008.5672843352511 694.0003697430151,1002.7704490901851 697.6245894315045,994.0491664219114 703.6029923987868,984.1893199976457 710.1526110399603,973.7498564068832 714.8761091678482,970.874987347877 723.6757710283244,970.9533390058483 731.2873301203794,971.6084997330225 740.0208965335836,974.595759106795 750.5222024189376,977.5981228016243 761.0785266362177,977.6830459042295 771.6657996743031,975.4431808162774 778.7585044985908,969.6707632164132 779.6552962213146,967.2193905653733 785.1260889081843,966.7396272892684 792.5728197810843,966.7892174290798 797.1250703859428,965.2390692595872 802.8744215655406,960.873670106375 807.5694459782227,958.4295632130186 811.5604800451194,955.1168440139164 813.3344219109077,952.3499435342736 814.5293070252327,949.2982535103566 809.9038425861196,945.756181000918 805.5601790537628,941.2122432589376 803.4109629075045,936.8346282087068 802.2902351654589,932.1631937083345 802.3329904050764,928.9462014130384 805.7343239514181,924.1715356765219 807.7159172144279,915.2823583042467 803.9691373507757,910.7357014975189 800.7913238920361,906.336575809939 798.7872548849689,902.5450370867924 796.4998610270907,897.2760618327954 795.2607204903799,890.6934578215923 794.9872559566318,887.0520380516799 792.969654120711,884.984583870848 789.8181909623908,877.9584064875257 787.5584722089054,871.2422717136502 786.8825393492053,865.6616629427103 791.8035897080473,857.8149244275468 792.8051407627873,822.2732095619009 787.2799250457844,809.2947215807781 788.3288002335293,805.5603766327577 791.0432924221674,805.536673560978 803.5622441413229,809.1013295826632 817.1374685518383,813.281578473456 837.8252800614064,820.4796663860818 853.0482174409007,824.6357141627666 861.3248761337619,825.7411403075439 866.0850712501039,820.543909064487 872.0621744790353,809.5175842518875 876.8493634590411,801.9804824974415 886.9603783397906,789.2303114486607 893.4873860179479,782.3050703632765 902.9712116839607,771.8917100791851 910.1177275263376,760.8739610875805 916.631043978488,754.533046653585 920.2493509438245,746.4006152220537 919.7505515851554,738.2274168105425 915.7871148121467,727.6934191334324 910.6963795800708,713.0757673238179 906.8114014506015,694.3834417738221 906.9473129366619,683.8852811639235 905.8783168391008,676.2818106364838 906.621003044535,662.8868202019731 906.7370073700986,652.3989940445829 908.0369019797641,641.3281034198751 908.8143373801462,625.0109961513151 909.5219963415965,616.2646309244963 906.7413426328056,604.5752876919448 902.1497668357719,595.7862030516134 895.2254711844286,587.5626361455205 889.4669166829387,581.1031424458433 883.1726310867431,568.8023719252833 880.90462912968,561.1919359405214 884.5395572004591,550.7278946223437 888.7274350327975,544.3527435986769 894.6980787308513,535.6623895808522 900.0401361761745,528.7119058291948 917.2330215356179,510.21884898062365 930.2216547624536,500.4299572769278 940.8529026048415,491.2066417480137 949.7303628579106,481.9764662284309 959.7868127535231,473.91472275634715 965.1402577329469,466.3904643425642 973.9562745752861,460.65899637690643 984.5986116896312,449.69169484030283 994.096955516416,438.1398320077311 1003.6007836493856,424.260735061334 1008.4451104248361,410.3143500764602 1008.4995635490272,404.49303919033514 1004.5392916563301,395.12236150371837 999.9872157425575,385.1521028576907 994.2813927005978,373.420420964424 988.6967707199873,351.19529725835844 980.6881588121971,338.8725436544262 975.6319986664236,320.14882261642936 971.8384370419327,296.2101304480956 966.7230185685844,283.90518935009766 965.0218534995289,278.73629594800354 961.0251228415467,270.5274722242202 952.2713183694019,270.4475959649602 935.8747599846188,272.0260472981993 919.440178524857,275.9483587005002 904.1601495066892,282.80105238095507 891.6956180279624,295.5162662139553 881.1369031689802,300.0811405968792 864.1257320904052,301.68082447016445 861.1501867997004,305.73328278932 856.2044596621172,308.1455984643154 855.2506881601885,306.38184308978725 852.5268521921365,304.7866836283406 852.3313068897654,301.01988153675734 851.2041501758674,298.9093044115641 851.9852097430281,296.2576255114591 851.2032329989984,290.0066310066894 849.1836563899182,286.05034586726117 848.5032825164649,281.97768771663596 846.3708461893794,278.00205881815737 847.4889130005298,274.714164809802 848.3947890076203,269.9736436268462 849.0967409207885,267.63037277595583 848.9141059645865,265.0408086119447 845.6202997233092,267.3744346815897 840.3793784457971,271.5615319138168 837.5249084073749,272.355179779757 836.3355351138895,272.15227267040484 833.6676920740358,273.53669256134594 830.784597314001,275.58162282170065 826.8525488820629,281.99951088207854 824.971615313604,283.3564441983632 824.4858792373141,286.6614576955393 821.6128672672477,288.62226833159957 821.3287483493594,289.4970155921841 817.8388882222519,292.47789902571355 816.2339328222861,295.5334911740024 816.3430363620678,298.8433540365477 816.0125593742249,301.2213506452491 816.2040361449107,303.35058119959865 817.288078061109,305.37014437541166 818.7852601063438,307.0885026000394 818.8959479485495,308.09195448592175 815.9272954312199,310.770633150811 814.007408612601,311.26069736681075 812.8148283718751,310.9636162386372 809.4064900155071,308.4739073231374 807.1569987051892,307.95986611382943 804.0692513689173,304.1983479335705 801.0733635381611,301.55993375160904 798.4132913647185,300.3755870844859 793.6046885946386,297.5700130589004 792.7775942160357,297.57730510002614 788.905023232111,299.34056571486747 784.5800625478362,302.48343189307536 776.1971288173693,304.6878333910288 768.6068299983568,304.4667775246659 766.4511031639972,305.5611944637012 764.0040058484439,305.707096201745 761.4092913655604,305.1549695688709 758.5320687019787,306.708215593093 756.9917620727872,306.8538066757674 752.9220373629828,305.81343681304156 751.092575026783,307.3041246234153 748.6627910865756,307.1522128674235 736.8776012332539,311.13668917990344 726.299111284115,314.5356049327984 716.2872359456808,320.8713192029837 706.2027111058002,330.70109605658786 699.1127571743474,338.2090048463009 693.7034254788529,348.06993598206066 690.0891997433293,356.79172652413376 680.6497921873703,363.11094709074825 671.2667453942252,365.36081177415144 666.0794768571703,357.1448580982909 662.7441345579904,342.5411369889057 661.1809826694034,327.9531996408142 659.0408136095178,310.4406890120963 659.234152306092,295.8712208959747 657.6528683559478,280.1162269593334 655.4953160583271,265.51788806102365 652.7199979589142,252.6639326726696 648.1818576099331,242.12067612987073 635.4862863876211,226.83079502429052 627.4641954200421,211.59624761246005 620.6274489473197,199.2811514753364 613.7285390239063,189.30324975528265 607.3979039551975,178.7331765176359 597.0585513751366,165.2100036677391 588.4791876991326,149.97116040194317 584.0180005043668,133.58533252981397 582.3887111055534,122.48874938614904 583.1325519784932,109.677086862691 584.4333784499146,97.44325497648492 584.5825345733487,84.62615893659859 580.6691859769105,70.00058745630486 580.1606499472967,64.16121204007243 574.4399490197313,53.61346423533348 569.7857455523803,51.807013055140146 562.2261672191183,50.54736997800194 554.6101885843356,52.204578801701246 545.2009383535076,57.34408671596941 532.2697375706574,65.35873693235362 520.5261687083131,72.19377718560588 508.80833940538236,77.29130605302419 504.08867015389654,81.31990853582477 501.7025747614032,86.53577715027939 501.0117447692552,94.690798035498 502.0647503656035,104.61237653956505 501.9332620251945,115.1050153390396 502.9600510253001,126.77877652512018 507.46650350982094,141.998380436145 510.681266115635,164.7749167719976 511.76972439768207,171.19726426398734 510.51729506571775,178.76413320873144 506.8445791114431,192.12432547499475 506.1931483648593,199.11185784189774 504.95559712561317,204.3442770703707 501.36790431274363,211.8781583162454 494.3083586430428,215.86592140704875 483.2420212735278,216.29863421808489 474.57265866088864,209.7785645336346 468.79766515218097,205.0290501448469 460.1646345518846,195.59165872558003 448.0725492344938,183.7616458996456 441.18504703975856,175.5107919584973 435.46532770384226,166.10176422347968 433.91622719158744,149.75045645926286 438.7641817017913,132.92446663790258 441.91850368403857,114.30050187973495 442.55351991721545,109.06525149213803 445.02359013822604,97.43898603600121 451.61520493659276,82.37195151231674 454.0666865553015,72.4875156150706 457.68701510416463,62.63494510267196 458.96691719689085,52.14388405512523 456.17032178194086,41.622442406481355 455.2739338678264,33.46422756756101 455.2124335385021,25.27685168385733 451.07773550616236,14.778113731061467 448.06746498356875,1.293267313213505" /><circle cx="652.5531273742089" cy="681.0154443257222" fill="rgb(100%,100%,100%)" r="16" stroke="grey" stroke-width="8" /></svg>