<?xml version="1.0" encoding="utf-8" ?>
<svg baseProfile="full" height="1024" version="1.1" width="1024" xmlns="http://www.w3.org/2000/svg" xmlns:ev="http://www.w3.org/2001/xml-events" xmlns:xlink="http://www.w3.org/1999/xlink"><defs /><polygon fill="black" points="519.6875717207699,995.6141551688936 525.8157383225736,989.2194542051493 524.240699190319,987.452558478839 525.4547160850802,970.8658385206918 525.2411703463487,965.5113828632249 523.0591228228395,960.9519717951002 521.7556605857358,955.965917520013 524.096301574742,947.3101281350961 518.993955641993,943.5392405871199 519.7741309531528,941.9923191298493 521.4169032887029,925.6856326611443 520.5187542027162,921.0475405331936 520.4806237776752,916.4333907510284 519.2389381744517,916.2150397161333 519.7707905921006,901.2659695746398 518.6679470552015,901.274374407971 519.233313094701,877.1046842988641 517.752331656641,877.2987877009969 514.5315594347205,866.3841355577094 507.2667341392013,866.9467593816687 505.3991039583198,845.5069287045608 504.83056309054757,840.9951142329468 535.9159616043327,835.9872230704215 535.9108637237548,839.5868813069292 543.6737349150765,839.0741176469545 542.9518164350872,818.695988602425 545.1807695132537,818.0923860872941 541.684568324026,804.8871077769659 544.8639484244429,803.496921931478 551.0916403938768,804.9401568852488 552.8741759189892,816.0738113290513 555.1381821673201,815.5632684247252 555.1417060086784,812.8698137125779 556.9008180877399,815.1577709634282 559.2274791298214,814.6271192385293 560.1577046234195,817.5080476903282 561.3534849777735,827.1355382899568 562.7812093751679,825.3324823550332 566.1478364251317,824.6797071936761 567.650746210224,819.0253131867973 576.9944348822954,820.327980823016 577.258406931121,812.3536442859274 572.8408185276168,811.2709768739977 575.6572693995843,802.1744920831119 563.8551135472786,798.1726914362794 564.1267006478406,784.5924413254265 562.717194828855,784.6435247203817 561.9419736956421,778.502951649099 557.0655480122546,783.2719258359875 553.5171226193254,782.8166954078704 551.2665639452183,777.9453384033365 545.7176472888378,777.5401401547422 544.930948589481,767.3617871556474 544.5685411628373,748.9903144304868 544.0808035220988,745.0048173660116 549.9416048198934,741.1991061157244 536.0529756197899,706.154695163814 545.2276265062668,703.4941259357092 544.7417659764327,702.5092083324992 543.6411046985723,689.0277029630344 543.7663399670865,681.8989540197613 542.1886522750742,671.1756990497969 537.6083603668536,650.7793407362722 526.834350881763,652.0526652677113 526.1991172629199,646.4105015925921 519.6549651208891,647.2188451197879 518.3706327968066,635.1138002955797 526.9140826989377,633.7546552944332 525.6221934158617,625.1713254707952 528.9529562700973,622.4651023308054 544.6950662467295,618.0846508585162 552.2297343804189,615.6782258151129 553.0357498315727,619.9058173014172 558.9585983173238,619.2288572138299 558.8118946603158,616.2179945363398 560.7766165406434,615.2790556549803 556.6500789694878,594.3072357096971 566.4195151335889,592.7539496358545 570.5502296558768,582.5011020952581 571.0339528084952,570.6880431718932 568.0035431282388,553.2344252531939 566.4345547289809,547.8379055374129 571.8981960456379,546.5759292403604 571.0046292411342,541.9178378500351 572.9232500472456,541.1851239995144 571.4223780493033,532.8006926923847 564.7555530780458,533.6306851557479 560.8363728994123,531.9793930055657 555.7768014932313,526.4977086284002 544.381678727276,530.1752945500125 541.7750875325388,526.6122282460509 540.4133294091015,521.9331833455469 540.0346444750311,524.3568162747704 537.7643493952626,525.0005718867988 535.0207052027894,510.79153155317465 533.0017988793044,509.346221501611 538.5174385210662,507.9620041934271 536.8498523924987,499.96971883295635 539.0727930916098,499.41904880151594 538.3486717318499,495.9617672652006 543.8882223517463,496.7473350038339 545.0244448265331,496.2152278709218 542.1584000264098,487.0331692819061 536.8019423606349,488.2742391206277 536.3665032639435,485.26543675237644 534.6191206349592,484.09743128189916 529.9448366410069,485.2662658528709 530.1117215014585,486.07708261201014 524.568199559504,488.22625784611716 524.9730632756708,489.3218891405486 514.0887629844079,492.38405829643364 512.7142777094032,486.4788354587715 510.96473463511194,486.7832187415804 512.9587785476606,496.40496660226074 513.1146226653302,500.50842100047896 515.622625036235,500.19511500757096 516.6818256083668,504.08346339485934 508.9026308959909,505.606933445799 509.19840100581473,508.92269251441985 506.42391316535515,509.57280327385513 506.94071992078597,512.755499393902 505.23183970571205,513.1303754815883 502.24223614612816,517.435205303015 497.8408131778868,521.9919246443428 492.3788594797292,529.4013902369584 488.4075237428476,518.5879267614364 480.2063169991458,526.2390605798845 469.3960758208427,528.8077344392213 463.07746524002243,528.2348956441522 453.33793362570833,530.8674820318897 454.23956791906824,529.5702535091754 452.38650845125704,526.4553601253618 448.21988441503095,506.6764685411147 445.32083443560373,493.83007133415856 442.3005702363119,495.23641066352184 440.41303136343186,489.072846865913 441.5839789257989,482.9177907078656 446.4606568228659,481.4521232051351 447.37327902330463,483.48032082198574 452.89310726669726,481.8848122770921 451.6301308677275,479.0907137942405 461.8649196320231,476.58248720048084 459.7736779000473,470.41874923155774 468.41807305268026,467.4490352478073 465.6917500481563,466.6033067459922 464.6456983044821,462.67438382496096 456.780783341292,464.7869689256214 457.34553958738604,465.8100560806894 448.9242430778959,468.5480631640622 446.96687758230837,465.1887166379229 444.25230243616926,462.38923968801964 440.72516530145305,463.46731551839343 440.34232854327206,460.40802093357865 436.7362329109944,460.9119131032877 435.04909956752743,456.4377946469068 436.5723259920041,455.87946500382884 435.56973598238926,450.10777068009793 433.0353528399009,450.2159820101199 431.9135251057347,443.57554823196165 442.5597984755371,442.5519743996007 442.8616878759358,445.03967793964944 469.91537852147894,442.1753397146065 468.69977670974316,432.62998422771045 475.85065781530824,431.2708083080106 477.30069896006245,438.81273858586667 478.84692456053733,438.34470864057823 477.77733168229184,431.06022561159364 475.76007800157777,423.92761825417017 476.92908672589544,423.48914668794805 471.8101880279183,408.4994684158737 473.2990981792439,408.26549605145124 471.6613117155282,404.3657519097957 470.62334423481025,399.3342715249387 474.33860717342793,395.98530405465567 474.17184588166543,391.9975596795831 468.3000043108441,394.4112255456007 467.5611902154245,390.36957439247965 471.69534588680824,388.61992445611247 469.9980922618642,383.15678995531914 465.1539655001481,384.43436399122663 462.7898650133256,379.5640283149422 463.2347250273928,370.2406466441064 471.16209457277694,366.84908626027106 473.2485902982127,365.3298282791195 471.1734446524057,350.7180251453043 476.6437255114036,349.275247475887 474.94289473100275,342.65668075851045 481.69721835808235,340.3903309194511 483.19205827499513,345.43262472794777 498.1472869855191,342.1852555117184 497.607682610503,339.0276297033148 500.0968146550462,338.12042747376245 499.2590150344493,334.61240986963594 500.93139963118557,334.0134915919681 501.5316607832391,331.09938908794834 505.6403976236699,329.5125288800407 505.19393090212475,326.6596707236811 508.8189186701479,324.6918432569821 509.0224597540429,323.1490362551473 515.505560450102,321.2686337882901 516.4224554211155,319.2158971906024 515.3964906667524,316.0349174803274 522.8796618189883,313.6246257874002 519.8283837306211,304.46193531588415 522.3375095090877,300.2441451204804 535.3453943230008,308.17523117123926 544.9364346718299,290.12928179595247 531.3109325020254,283.3635250688176 532.0345077192744,282.4457445765065 530.3806737519309,278.76549886399425 519.4938805064875,284.3579252587133 517.2588525609415,283.0580798314538 510.13409227273377,275.5654583446167 505.1728204257304,267.92498122378527 488.92716270167085,272.8019970934522 490.0542269906485,276.9424235738784 487.97115689627105,277.14531762894364 489.06579418080565,279.6896959289214 483.7279916966368,276.93163145175106 481.54627241951346,277.73592564739033 481.5423693440599,279.98391059200185 476.3820773362173,280.66966352078805 475.38881621085824,277.19396640085404 460.2477024126954,287.6210455622946 457.0741262980224,283.19969458963317 449.67285207197057,279.7419264495402 449.2444582018045,277.16585542240955 450.9693123980461,276.49450841793805 449.10577770733977,261.9708545623855 451.99392016054844,263.25519404124304 452.419909907761,261.9671202873277 438.9373430890503,254.88984886906326 427.62644077840343,246.67310676610327 417.04763233986097,249.03259198170906 416.25850142252904,247.49785946664213 417.725510078162,256.1556190003588 410.6844969112609,258.52211535455365 411.3542453030906,262.03777583360534 404.76412860461073,257.9555314887417 396.6427533697414,251.88093285469233 391.64750405571675,254.02463485894816 393.53355360181877,258.94274676014015 389.0114793656304,258.8822265687977 385.9467079922508,251.40626222966694 385.4896231621461,251.57891722386876 381.9576514441031,241.16908495641212 386.79366517651425,245.43197891649868 392.9245445597986,249.38800819355265 393.8099959441608,246.16273502145236 393.13615694816724,232.45923141605192 390.3822627059856,230.89982877393845 389.8114910244237,227.86511804609052 387.2948396261378,228.43085659483813 386.0705762882934,222.7589657680736 380.59886465380475,223.6551718944885 377.7531320956943,212.1970735729061 376.7088736286421,211.5099156146115 367.89468380541564,210.89754146384394 369.0314617571833,208.7655198561995 368.48598520768974,205.12662442597502 358.7178890558971,206.97350178708098 358.3706653295579,202.93731169189857 337.1842717758442,207.88890718853463 335.1614452424138,184.9026184600616 341.5066635625952,183.05847827280957 338.88176350549537,181.1234946811917 323.79017330791714,183.88116743352987 323.36253545222496,179.59042941483256 334.7050401470091,178.0365601871855 313.1892371442499,162.75223167191905 309.94945159255076,164.0726416803077 305.4017517120479,163.57941447476958 296.1347593892071,160.50018185700162 285.8063839158195,149.4121470679172 284.8994046664529,143.26209832027075 262.6332274054708,128.06499883612855 253.07224748164808,121.82829615661944 241.79732985460936,113.83867825424113 227.33698867766734,104.02315286242379 201.0304683123972,84.25624449604106 189.78429744123667,75.52068881572279 169.91390189861292,57.94836484939367 152.33873279754798,45.01410803998522 147.57072249436922,46.018864767840455 142.19191384570502,43.466650169838886 131.90165377649404,44.35745049655304 130.1564214791404,34.084871636970206 135.25567471916233,32.53302215880069 90.01763090061722,0.0 89.35013254826433,2.2026184463327354 75.91375883335407,5.179628700765875 65.22124262481135,13.808507474367048 65.13639262325411,27.31923515577978 42.93363186790232,7.8270543380347135 42.62209365249669,17.397040068811293 38.05003359068719,18.633774800496212 39.1271905352159,29.770486540327852 33.2428477375254,29.664738065549386 35.198673265193456,44.959011163432024 29.280193051251594,44.966273616561466 27.835063158795315,46.45790054729764 28.239645219090033,54.32915570510863 31.6745720065071,54.81473745976689 31.30483598095629,60.08968753485317 38.18251477443337,64.31321662692653 55.835432776604705,61.286188677872246 62.865071881175254,61.4361774585675 74.51851924933486,64.62815064304357 75.03183641904809,86.11645401695216 76.5075858909495,89.56375019017491 79.98423422493455,90.05861561352333 107.68238429175192,87.13450629512147 109.98715106138081,97.74928845334261 112.51474113501531,106.27543253383203 114.00571100182395,107.51468683523717 121.84048785085825,108.7403148722725 125.16710828298883,110.36654716943474 130.47468699449044,115.76617992033266 130.2099792773463,118.7558729014703 133.7122664701094,130.9003271016952 133.79083390695564,135.9958502544722 131.32325333092018,139.2114533229909 122.20386886809901,145.66201446250568 113.20399448573802,140.10453209657146 104.0832384508259,140.7011783929688 103.6730138625476,136.34949898243133 92.10142272768961,134.30275739896035 92.50101923524892,128.44380150707218 90.72181657121354,123.64863590834568 83.64674939516976,125.93898124276143 76.29725779781127,126.11330375915668 72.31694829564864,123.16687832668379 63.065849127046505,117.7064666144264 60.55870748369815,114.67269170546365 53.647620800036144,115.04423423183073 53.857473305201694,117.09680842671162 39.19191392150633,118.90289432780389 37.1786552643465,122.24248132139007 41.16933483128028,155.6807250723225 41.743984117520846,157.7071655674548 21.648635789630664,167.44374394367821 21.647689410320183,177.96402038506233 9.27596478080843,181.72863098456412 9.906388722087332,186.5220613002963 0.0,191.57575486544044 7.848293515868291,207.6063600341805 4.570903959386216,210.08404441339894 4.092873175789639,221.47320166092197 7.77153214570661,222.2875586228456 7.923249224208298,219.3151700690205 10.413245113634588,219.74407348152135 10.636586228260196,230.59508983861895 11.621376680577814,231.6416405670717 11.379719242371037,245.730496188791 10.968717105901726,254.84168615695853 13.863512102825728,255.65244688311748 23.604981048907547,254.7031265380184 26.034883752070563,255.61236483054017 36.83650969791403,267.8379219883718 57.38713122775466,285.94130427938796 81.9663496553269,305.8180520795304 93.91547472280058,320.94208911342014 104.11279751815113,337.1736943402078 117.15614977662283,355.75918886892475 134.85274100267048,373.2256176578138 151.88933570677366,397.0315854640951 159.17554568262534,416.12917469061335 160.25600123153683,431.4762846610023 153.45749664840727,430.83776096897157 153.5871148916554,435.0019271355493 158.33601018021105,452.17213874448396 156.39696619051958,456.756861618063 153.96603160338356,456.81109011450053 154.6212199800874,472.45371428045723 154.0894827134086,472.51222434489785 154.5018208770874,489.9588950681198 156.48241368942934,493.00441228845636 158.17926228144853,492.8770458724945 159.17091464203503,500.34952492426044 156.42110591223408,500.31958587124916 156.03695590591676,502.2615999231225 165.0997030466699,502.303825809767 165.30506163046547,504.4845642991942 157.88397053014737,503.89690995841227 155.79717813666406,504.820877364284 155.01078693060182,509.37948290429233 156.26738305735572,520.3746727812837 173.6385656067115,519.2501978069378 181.09576949661934,541.4209116265847 181.4850467909696,543.0585108840717 173.9964988700002,542.8388484808773 173.2010908237775,553.4592185941403 171.4076472349892,554.7745765311365 166.15365948404852,554.9903038664655 170.49171865144777,564.5763762835375 177.93545039938692,562.7494379796995 178.98977113947186,564.308776796368 180.93900551012774,577.4382884585604 179.53599855738574,589.1239198793478 183.8666925078022,605.3452565497705 181.62890345246618,622.6492009224002 178.2718173531521,638.2626518243692 175.70048533881797,658.4174556133175 172.03351402887054,672.7936911019972 173.40078069592766,701.6442446320448 174.39390433263964,714.337403866397 174.78237224467773,729.3267497776283 190.61072910733964,758.3069806924534 186.80540660469782,768.8063388514827 186.27589076887776,778.3450713878121 196.7483219848815,785.4915923458514 222.11835333028716,788.0865081299288 231.7168699215437,797.3703613470224 240.85585801828393,805.5270433697453 255.746631157466,812.1826529494169 288.98097239178304,813.1500906362578 298.1384566552368,828.6240555413854 298.7844479396642,848.6053747093264 283.85749302278697,873.0969170533797 268.0335055003806,893.4688535986983 259.8495102922449,901.4521420715992 258.3529700449224,925.1275301391079 252.36067352389037,927.5009845478089 252.7058189783666,951.4914464909946 278.10745555990997,950.2343988457637 286.26502540192615,957.6834584579802 303.4902951777814,963.659280528567 310.5434346895883,965.5864036418443 310.3395349395883,976.5836869826369 328.45140287856844,977.1952048103651 329.65530154869975,979.2297189397824 329.55410803424076,986.56720771407 331.08775822112153,988.4364210622367 336.6033218156997,988.9639993314478 339.49033773879796,988.1103967551242 339.0095971333194,980.5675434962859 340.400794103003,979.0934263914945 343.8375293224405,979.3386499689334 345.11541431586625,984.0087893137365 345.93328972246604,993.2239035806296 347.3124675221815,992.6634598860134 347.4491248363069,996.0494783836185 362.25386211249577,996.2088150275468 362.697118898454,997.7176960961543 370.4949023091344,998.0356887454781 372.3968036336901,999.38433665937 375.91631488735504,1003.8555610348317 380.4946940193847,1004.7798438115439 378.90379553021336,1012.19447415731 382.3817049009528,1012.7360756721591 382.682484926899,1010.6222878796775 385.83060725835657,1010.5060751947073 394.9766120085432,1013.0084642842263 396.3089637120914,1014.131563225992 397.27601131544384,1020.957886601941 398.1977907341429,1021.6269694053962 398.90187178409764,1017.862737521203 396.6558095269248,1012.3878865799112 398.5086159091965,1012.1452566122656 400.6245885583593,1016.1723961723881 401.0109747556657,1023.2843983193349 404.8357476300231,1024.0 405.28154779414626,1021.7857996268488 403.8504606387019,1012.760983610275 400.2566338262761,1004.2072138437981 404.0400021450322,1003.0247555940442 410.63976854502533,992.5948687953704 414.107670737888,989.3599864845812 417.6534332434463,987.2629863953572 423.9267835713635,986.2916765722923 431.49674929337044,986.6442897041397 433.4926162001328,999.0531708833382 435.96074592094254,998.7610297561863 440.63833632535597,1000.1546809631097 443.3561405339339,1002.511045236805 444.4338526439246,1006.7194089212609 462.36572123105356,1005.8091032043843 468.59499006284665,1006.6913301981671 475.00192913777545,1005.7688018293562 491.51532349508017,1002.0010499233305 517.2060004144073,997.1383587423098 519.6875717207699,995.6141551688936" /><circle cx="191.521530257642" cy="118.0531263832687" fill="rgb(100%,100%,100%)" r="16" stroke="grey" stroke-width="8" /></svg>