<?xml version="1.0" encoding="utf-8" ?>
<svg baseProfile="full" height="1024" version="1.1" width="1024" xmlns="http://www.w3.org/2000/svg" xmlns:ev="http://www.w3.org/2001/xml-events" xmlns:xlink="http://www.w3.org/1999/xlink"><defs /><polygon fill="black" points="775.532953580211,1018.989320918433 812.6978789372045,1024.0 818.6246710289486,1022.8948470473274 834.7326767028472,1017.7882051340046 832.5590451870229,1003.3246566980379 821.8504370842104,973.4412283486392 816.5802161428799,962.5155601817014 813.9730259363164,954.1262062003378 813.988915162515,949.6325422364678 814.892712132426,943.013587373352 820.7969951174939,922.4801373647799 823.9860485711564,913.5538614805944 824.6958361440518,907.4921143059184 824.8245367298182,901.9754078199574 824.0341943234279,895.7745120318938 822.2469701828101,888.5246641715406 819.5795007321368,874.1155184544641 820.1011568100705,864.6756819950347 820.7217754990608,861.31332822728 823.9026703811547,853.8354578192261 832.5096865882822,829.4894574438896 835.2126365962246,814.1831050784963 836.8031026983804,786.0566488592237 835.9686600438823,781.7608987233568 835.0141167022637,773.8614166812455 834.7973049719725,767.5571053839616 837.1764263802945,761.2912549768921 838.5058688105169,753.0000488007328 836.8492194887974,727.6286607438094 838.7757493759649,709.4480236446764 840.6941136205251,699.576791702073 846.2922640961199,691.5996991758416 854.615801127895,679.1761300482428 865.7870819094126,656.5586122708336 869.4927269426621,633.903074573507 869.4220413048563,621.7447707106987 868.40749818506,608.4378477182307 870.4707304723851,599.923742429928 875.723582740183,583.71696046419 880.1157584516037,562.8698355813469 881.3571854408657,549.6184664645245 880.7583986688924,542.8508535416797 873.1251383956733,526.2467981094709 868.9191190654306,522.2198044332367 857.3603626115641,514.0922408914425 851.4925539491561,509.0099627080473 850.6802393593827,504.2601993496048 850.5850340738125,492.3189232001221 849.7911667333061,485.6633675987466 842.7445238841731,468.4027525362379 843.0799230693096,461.66309294085477 844.2881334015974,457.4055103878443 849.2935095685594,451.8890545992307 856.0057729760018,443.4709856373537 857.4435979907132,438.5496512382813 858.4094293847058,421.4730828621824 860.2071833745662,400.00069426318316 862.14925861579,349.1557022745633 858.33433214349,336.4678866492186 852.2050896705955,327.3237123561473 826.5566815499816,307.6192152326661 807.4760624584092,294.5714087394954 799.4955341266033,284.93084075092816 791.6073343221316,256.37152910503994 791.2141474195175,241.5034445278958 792.5657856375512,231.6284778937869 797.6479252191704,205.3890397422963 801.6298730104381,179.13933576711906 805.2954267290996,134.6336645554602 807.9013461499576,119.38820346317368 812.2728474698989,107.32785351757957 822.4066823817524,88.18535004679256 833.6289708695944,71.32790015305147 836.8210502001574,61.937937229874024 836.5934260825107,56.07492126537227 834.4366009191399,52.42626275085979 830.0462580239672,49.170005072610934 821.9108205125056,46.75012063575491 806.4650054719895,42.806465172543085 805.8201341713029,45.67905044834265 777.1742412165639,48.355266627750325 752.2598836840199,49.98119640965672 722.4432048654107,45.33603285618483 702.871940480044,41.45145259607489 687.6970439054303,38.34990792858571 671.0329805866436,29.142087296890168 613.3726424345972,11.365013065765424 598.2125331730713,8.927602024719135 568.4932836660984,9.051839419734506 560.4979048073978,8.378817429691026 547.7746209940042,5.591182490281312 536.6294411518263,2.4409996835602215 532.5969441133565,1.9848031899407488 488.2131479717093,5.922844929474763 476.71191653163095,6.709885738982848 418.86147561866443,0.9986570438125 407.3892124885363,0.0 396.62072972810654,0.5999733886070544 389.68046436604027,3.3320655576741274 382.497671698702,8.321063076479618 378.0836856592415,14.279475032451614 370.06575909946525,22.84547352225661 354.93162035490906,33.70247544176266 349.7514378175391,40.07665951603485 349.52270212525656,49.09217043456533 352.53206434031125,76.5417296436733 352.73409899882193,97.93530953444213 351.54244629074225,108.26789636727699 347.1334291817243,120.53591473935376 342.2862422229773,128.74928434809317 334.4931696505277,135.28426551428925 326.54465976073095,140.9312674968038 314.56877190373757,143.77035015016725 308.4457026490768,143.1597558698836 290.0399438290876,135.91584429803606 250.15196925505165,116.53730878024248 240.80362203472637,110.65894445451545 233.24116406437946,100.56801599577318 227.63041556011976,87.13385240559967 222.26583431487174,78.44713118973584 218.6177894519589,75.19934962235368 208.61941136898542,72.9235158325962 172.06018326425118,74.49951408303684 168.42526686042228,77.78881145388891 166.599684988711,83.60320765803044 166.51902760202893,93.51623688414622 164.20654473822495,110.79562323370362 160.24958580416987,119.60380605321643 155.7687860262413,127.15455157708698 153.10754294403023,135.64290052794786 151.83623747280927,141.9167856771587 152.10668615160228,152.2777606393696 152.57351039640207,163.32569191532423 151.2387761957252,171.6276658739257 146.0977132250152,182.3146194366317 135.08158075549971,197.13793503418765 130.52534980015412,200.40909251415746 122.41412566541,203.82702836641215 115.13795517940656,203.19131135940904 106.10844173063487,199.37160161427528 94.39527342927248,190.30082018152643 82.25162497413201,177.07014727606975 73.22584743338709,168.40367701321736 68.64024612177985,166.04136216274196 65.02392105473163,165.16614688351467 61.92259963366377,165.76291635190694 55.32816577485643,168.53068714957237 47.22529775629539,174.97705352207277 40.45202931738496,183.49141113236988 34.985702185876576,195.9136679673892 22.92663827496307,220.02090998590188 17.849958528175353,228.74086711053258 15.455125570048562,230.64706337919972 15.556490556231596,233.5192889329934 14.610111149176289,239.725656248718 17.152691576745372,240.2288667681147 16.386121569326896,245.76761652907794 19.815432249804417,246.63844769823913 18.564191863363856,255.96194824168742 19.013596956100024,256.06543152806194 17.996442808265282,268.67820910874457 16.526468108262822,269.89872356148874 16.534915267325278,266.53065071033484 15.554003640818491,265.08403338604444 13.439420554994038,265.087820318329 13.4358657179035,266.89341295318036 9.649403937241788,266.7643414532039 8.883784087305237,272.55564919566393 5.5655392122851675,272.50842622059486 3.88115657847472,274.8091127798291 3.2199743778153933,278.93008702991676 1.8070603762876258,278.98403017886596 0.0,287.85390085518804 5.228729061172147,288.80434219122935 6.829210067990385,314.82733798738207 8.053787278411294,332.19382703974475 6.103739596462265,383.8343546557502 4.012599821878122,413.72400139771776 5.630680460831185,423.0068618657317 9.266098732715355,426.25068372435067 19.868353419181066,427.63674934857045 39.253623383027936,428.99264083594574 49.77175409552754,434.6621030233599 57.01238216791851,442.9437362164092 64.32695863196845,456.1831119478395 69.82026268837458,481.41713350826114 73.21349369457846,490.85016040745325 77.49005666058801,498.83214482569383 81.92496429128947,503.7814619219381 92.137217457258,509.9901348074594 105.24854929090465,516.4983296490834 111.86138722012831,521.7281424694452 113.99719680434215,526.3957962021079 114.27714732063635,529.6007908422871 113.9801775139602,537.5667243429427 111.70111159782091,546.2921505286015 111.98512463077981,563.9704629005823 113.4206869053228,580.4445670490412 122.05125241247302,607.2232452426061 125.33763287371157,617.8930187356896 124.43123342554738,624.05638457886 119.14340463732688,632.9402315813454 105.54948682702371,645.6729808350199 99.1635590334542,654.070121567651 96.99814017248188,665.5163175144282 96.27638907721241,678.1082187039784 99.94479202297447,695.3066976517758 104.30909428377473,713.6501438863002 110.19430883045268,724.5992746854351 119.27389098467063,735.0600570834754 126.91215343728027,743.5827253077146 132.21256223075085,747.9787229951684 137.23435972673767,748.9929804215519 145.13411892261016,747.1651047409384 158.94895090486898,740.9667917097838 166.84359996198893,738.9140548826738 204.8415521109035,742.7723836930708 225.7080315966578,744.4253854854421 244.2960964715531,748.0512829997124 249.99153533280744,750.8892548441561 254.67523910037556,757.981452948294 257.06817120963433,766.61230288768 258.1834150945545,773.4997379266924 255.6202423434038,800.8009012730184 251.76643050755118,813.0822517595452 250.38812464428693,823.1730172579668 251.5139365420041,829.9628712766555 256.2884011002474,840.4440807208555 264.1221239023486,847.8529187038941 274.9945183203061,853.305974650995 289.7414227212992,855.7540503368928 294.8552482760903,855.7100535368734 295.1265669923227,854.2018492351624 292.58969091118934,854.2606679017326 292.06558561950425,852.1010220911178 295.57475142855037,851.9153350573371 295.4600530267509,849.4125504067047 301.41074002838883,848.6889150709987 301.3617764972363,847.4156433724878 308.16964191144444,847.2817104207036 307.9763063038706,842.6021899416858 312.7693704295915,842.2846203664056 312.7686259533334,841.2777105347368 316.19751081467797,841.0487024204297 315.75804159451536,834.185065562164 315.7688173712159,827.020315588264 311.4665018513433,826.6874797433597 311.2460717646363,815.6218692082684 317.18239537020423,815.4341684123544 317.140436349026,812.2230503246798 313.37767938517595,812.2068717722518 313.4087602200407,809.9413598471256 314.19206218739254,809.9295954621624 313.7992898755529,806.8200793813995 319.08813930182924,806.5465432760075 318.6496297296767,795.7090140424441 320.0668348944352,795.5838369769928 320.0755628052147,794.2015541910237 321.51486534003453,794.2379045844937 321.8318795916316,803.1501078571299 320.3438973547116,803.2766663512724 320.4147894770933,804.7209306005743 323.03270393393154,804.5439876447208 323.133994276963,800.5316091861635 324.26098620105773,800.2854511881868 324.01701085332036,794.4936192742995 322.9591390135878,793.7661926768833 321.65980526877746,789.5353735576714 320.4756214749203,788.9373137400273 316.97043333010276,789.0002627283977 316.94990321647407,787.7403386077744 314.81571225117386,787.3297208960291 314.3763813154603,781.921157593666 307.22243151701167,781.4150743060143 306.98142228954146,777.9021967795125 300.077926550825,777.7463013245132 300.1562263013511,773.6228411602891 304.3491502840008,773.3818480354246 304.64839093971665,769.6301307159816 306.8517706557287,769.3702775155658 306.99175918151144,766.9433799447854 313.79029776943406,767.0964639049052 313.88909878698996,771.2654247197971 318.04219935104675,771.2504741238641 332.17176548664736,770.486671957942 332.10796445123054,773.0164901612752 333.1698264284171,773.5830105086286 333.2195555567496,780.749272094055 333.756351306546,782.4104411343852 329.41905544294497,782.3515632606841 329.30593378419155,784.6560332240836 328.38548781339614,785.9553411888461 329.7959580945558,785.9909228801232 329.7085325225827,787.3806867456929 327.95452271065164,787.4690062098557 328.0121298341891,796.8102269389564 333.201272658012,796.9505551972034 334.10204650257714,800.7956440715252 335.22410354703044,800.6408511994521 337.0759199177834,803.1179240931839 345.38595050083404,800.7862556519532 346.0222484672538,806.6163058669522 348.74514181042,806.5332858560148 348.6435980549601,813.6956931551139 355.47420474549386,813.971520894368 355.3019329933507,816.6595713085467 358.88365223055234,816.689545819863 358.83605610801914,820.6716762699829 364.75653146004953,820.8013032912676 364.75254285683036,823.0485266687792 388.05354753650255,823.7234651074532 388.0277661366323,820.4591740908849 393.8193734300714,820.3987103418863 393.1414958327045,818.7057710601555 391.6011339578984,818.7272644623475 390.92180784584457,816.7786190359391 389.6116818561765,816.8090087793563 388.826652720135,814.7945880184693 390.191001104081,813.641904066204 389.5027805446674,810.8976346712255 390.2770777499953,810.1973413571201 388.6598509323829,804.8100937942407 381.69932658288025,805.4471886377235 380.59013892615314,802.7870419994335 389.29862429000207,800.9406136681902 389.6478689685062,791.5781854362531 391.23024274735434,791.9649326495926 391.14400467931694,790.0721332026926 396.1248208588939,790.3670097696715 396.1214186681507,789.4547454790276 417.16469393763384,792.7633038695161 434.80958065190146,794.3824141752348 439.57951787349117,796.3188151575004 445.08502536302336,799.8514999823838 451.71509233861383,809.2636402303043 463.67812043451147,837.1894692440985 471.50710419662715,851.1503354650616 478.61757011865745,857.4235284860678 486.7549731409774,859.230460282464 513.1638735773192,859.0774548595004 518.2303375615685,857.4215020153837 523.0430756061459,851.469970027426 528.1491944501931,847.1131095449914 533.0183841768405,846.1211865856749 538.360364999917,848.072823551925 541.4387890991075,851.9922190388755 544.0507418728204,859.0405908651371 548.58671615833,863.4499286874641 551.755859168578,870.9694238895346 552.761265518924,884.4234196666724 554.1430105660671,884.3655423445518 554.3218126962158,887.5639370096711 553.4853034630983,887.6035337048079 553.5672739073129,899.1886587264493 555.3176007340895,899.2723029606773 555.5207852194449,903.7305944501054 558.2689249287237,903.7154126020565 559.8509686427041,901.9959198788729 564.2511789170309,902.0113911786034 564.2599950614242,903.9116104417393 559.7446348277042,903.7828751390164 559.5683692345046,914.2601865786735 561.2587648847061,914.6579418237845 560.8949222289402,920.1408035840257 557.4513261410411,924.1852998657895 556.5342342823811,924.1945489780296 556.5133168729767,933.8834407733505 557.4661177117127,934.1307063478498 554.0819009173763,939.0634980826691 558.4245760234329,939.74672286389 558.5046331692682,938.6092986188871 560.0584358406427,939.1362856405451 560.1789776805315,947.0011877503217 563.6860081794887,946.9317729415627 563.7221637244957,943.9343117744844 567.4061952055166,943.9101819029302 567.4116673776342,940.3407156006208 568.5308000680492,941.5072600699856 574.8777972881519,941.7528253266555 576.2996063691842,941.0266819744215 576.3048869563496,944.1576971088937 577.5604848297924,944.1281774610635 577.646779816037,947.1601588099957 582.7572128214422,947.3029509295659 584.7804107051677,947.923216645495 584.7520248784027,946.4991156060333 598.1233178107587,946.8320857547678 596.8798315894793,943.1093724588687 599.8816022230624,943.3460393047319 599.7634964461444,933.8148721008206 602.5312261374464,933.7586546916464 602.6199987060213,936.6991409758652 608.7039835218322,936.7639689102813 608.7135777270487,935.280829606719 619.7834649745452,935.4246514147305 619.808617109327,934.3805887782522 622.7631673521298,934.3980960294289 622.783674897753,933.5464439551006 627.9795956204516,933.4979249089736 628.0354102224927,939.9976584770822 629.9036201645704,939.9826320771627 630.2171303015299,941.1074273466747 623.4142881417545,940.9752947125683 623.4145334578031,939.87697986486 620.5928429348572,939.8879333380609 622.8833638586584,963.0299104640244 617.0357573988275,963.8958828940489 617.1821463577841,969.5646000124488 618.8075113307993,969.3070782316303 619.3260846278126,975.1898982451137 618.3230271102553,975.3898243924438 618.3755171907045,980.6081081544999 624.2780152839645,980.8511866781419 624.7222704134268,988.6321560312333 632.811226825822,988.94024609283 633.0275494255741,991.8237849926314 629.9019566068265,991.4835645532037 629.9205573845088,992.9989294260265 632.4447657517538,993.069057630494 632.4824038836498,993.7927033877337 642.2254308404066,994.077109852806 642.8529767350794,993.1484996619872 642.0562031460496,991.5197913104686 652.7207616044868,990.1910885951527 652.902731303691,991.4547142383598 656.9798403005474,991.3408749995363 656.8498880707386,987.1370551392132 675.6947944775517,987.5369745792203 675.8758987620928,986.2062923676688 683.3357047712768,986.0812406211229 688.0949681309166,987.2424483626002 687.9903806434212,988.6633256199129 695.639174109144,990.1772454768504 695.905037709261,986.4910262109669 696.8229774309368,986.4528982515504 696.8237059008096,981.2454815981329 708.0034494067119,981.6847740285762 719.4873032968618,981.0104235519756 719.8527214449258,977.6421637961861 722.4786382452567,977.6128685725264 722.4232615178105,979.9501516874232 726.0992259386015,979.8352355547149 730.8939142081264,981.3815446671656 738.0214536064335,984.3273554895995 738.0966350637405,983.3634010890748 743.7339850484323,983.1809695808262 743.7618537365888,984.2199447431635 746.2026413881291,984.1544805160228 746.3090017779544,987.0857370606664 751.6302624877779,987.0881874609166 752.7099022020648,995.6379187554012 754.0554375351749,995.5781125770657 759.9398015220963,999.9362603049095 759.8610451101063,1001.3893043029701 764.5170051912742,1005.0682806482373 764.5857735633374,1009.7186224821313 768.6312453405168,1010.9530642052498 775.532953580211,1018.989320918433" /><circle cx="416.0912412264264" cy="327.8119190751778" fill="rgb(100%,100%,100%)" r="16" stroke="grey" stroke-width="8" /></svg>