<?xml version="1.0" encoding="utf-8" ?>
<svg baseProfile="full" height="1024" version="1.1" width="1024" xmlns="http://www.w3.org/2000/svg" xmlns:ev="http://www.w3.org/2001/xml-events" xmlns:xlink="http://www.w3.org/1999/xlink"><defs /><polygon fill="black" points="762.7644600482656,349.18030347195275 754.7693105100428,328.8107016870245 744.3114432739576,326.83278937377736 734.3122811765929,326.139280527274 733.7158927245372,323.6439400186424 720.5464681192082,323.07188129533046 718.0904352909222,313.6752067178258 717.7826819510233,309.69077067703194 710.860664497012,294.9713052626419 701.2320021544134,293.78033390616787 701.0448262459174,292.7522217145724 698.7219348864222,293.43826012355163 697.7334612052226,294.50356503167075 696.9004255263013,293.3493383367025 696.4136387224762,291.2129475399141 695.3632406363183,291.46498112227073 697.0919083797392,294.7281221884285 695.5721747129792,297.5102968880377 695.4113543930218,299.3935848455413 692.8253740944705,296.2305541519462 692.1680373873668,296.01431915491236 690.8209125083297,297.8755360809416 687.4951608944463,295.28855823852155 687.2347831473492,295.7319588075744 683.7298439925572,292.6172286611102 681.9977511953358,291.49608740173903 682.2034991394677,294.084187200758 683.5888965148831,296.16499226941977 684.7206052018859,300.8553543498515 684.4589133732361,303.7039049185701 682.3817486436678,303.6470563701727 678.4442074957634,302.0150292829897 674.8265923745564,296.37599023188375 674.409193001763,294.8057247365308 673.1998961664681,294.595825519525 671.6422528419197,290.91187582345924 669.1026591419427,289.7695480328266 666.8072516716951,289.341459949958 663.786299689691,286.3990366101721 660.5640534442493,281.88347762623766 660.5435349853831,280.12947848290673 657.8269925384399,273.33255583478785 656.5456346361256,268.61655620320835 659.0105792696725,268.7668289733103 661.6325125352126,267.50507879007887 665.5033800418088,268.1608973073191 670.0880359465299,269.50925736364724 671.8099991861275,266.5112702356026 674.1665114635916,258.5076209267159 696.9929803329968,255.20504594167676 716.8924717417992,245.49185156726423 755.3155313691203,247.88052514143658 783.8543278965301,277.4211275263673 784.8080108265517,282.4905616227677 789.9143391355898,282.765958422763 789.955810913287,285.5654277482364 827.7447659900712,251.9947401727369 827.5515406418928,250.77378482769512 826.3016335423354,249.91369889741566 829.3884206681319,244.79224988447817 831.1311562356178,243.88493430235587 831.95956763923,240.7244674198393 833.1739801408249,240.00369448953296 833.6575994784652,237.02042658959454 833.4452216814298,234.57073476119353 832.7182213295434,233.18074077645156 833.4146348778817,232.64715953967368 832.5198757203336,231.61057778640145 833.0237611747714,230.5510503481512 831.7346442266605,226.5451349853072 830.1161067189852,224.2966953918035 827.2732621203863,222.06823299775726 826.9068559563267,220.85144283772593 828.0710086311648,216.97919180793417 826.642871698725,215.77914436858168 826.0922271677025,213.86519701344469 825.6716205897187,209.84687552081414 825.822570779093,207.74362041875736 829.7977100382622,204.18564763266397 832.4134197570758,203.09333549515156 835.1747912727079,200.24765802590957 837.0837460927403,198.99527194680343 837.4016589083845,196.53924392272654 806.2141110566295,184.3268505726869 793.5842859939448,184.25737087965922 793.4910032525996,184.16927789276735 799.6366868450475,166.9437432976664 767.5221656021231,111.2570613604887 760.7839143049226,113.56907996904067 755.3335174999999,116.29340906412926 750.4642891749018,120.57781305544324 741.1089950594235,122.38753426619519 736.0923651895444,118.96904915558707 731.532433019671,114.63665875267816 733.6970514879937,94.8139298582646 731.7517350022034,92.47681319179958 721.908897717043,92.37866173892041 715.9980555602492,90.24996795436857 711.8827199060013,90.72030230707412 699.7771725233694,97.51224114216257 696.5478749764703,96.48308454168773 695.3166412553338,96.51310905390915 687.1567924524768,102.45731276930917 681.4326076358547,103.850948496564 673.4175160438399,102.74436941276838 662.4345699916939,102.78716564417618 653.9719986865542,106.00041620835805 647.7392558997251,106.65989070840726 644.6569120130943,107.76536551276001 642.9803900717408,104.49163224805591 640.1498779733699,100.80801593857211 637.912237589484,94.63583806425572 634.4636821376836,90.23138891939891 632.3465288538324,85.6040437058416 629.1031181554072,81.19832532340013 628.3544441007219,78.82952038924793 623.4301682293883,71.33740153059068 619.7995864849449,69.51360302241278 616.3682104787698,66.33500880255338 613.5679134589992,64.06299074576509 610.934685000646,58.404556375591824 609.7955923226386,57.40706856690622 606.1733998551197,56.20549882826731 605.4560368920785,55.68551278042571 606.0356414879559,52.784966305286275 605.3034542533711,51.76792950500237 601.8940552104724,50.4526311038876 598.959354243137,45.82997129946705 599.6464283120654,42.512744142803626 599.4125841639972,40.526345856552666 597.4071234859302,35.30077746770439 594.9028113313599,32.84840617389398 594.0656354357574,31.506795468853284 592.9063788362116,28.417772945254228 591.956867761967,26.97335058674014 587.3665631003105,21.123325697892255 586.8351796260796,19.786433589552075 587.4267440290146,16.99137871879691 582.516196281534,10.426029810166256 580.0239603715561,9.004594264514026 578.254035165712,6.6421160795517835 576.4468267720474,2.530696490050559 575.615426200559,1.604325521248711 575.9246811925332,0.0 571.8749288585738,0.17294916296316387 569.1477304087692,2.712720645216791 566.4112755449215,4.26592662379403 562.3252377538132,3.8746791055763197 559.42554194249,3.2424311789279727 548.6628272067121,11.097291246151713 546.9108892870522,15.006366476642597 543.2017624555045,14.816878013045311 538.9964638748288,12.481767728663158 534.5006199315644,10.542063642630751 530.786889473071,10.93745039533951 523.1557686692868,17.595644769171372 519.8265128239292,21.509656812953722 514.5477284507766,21.909468402313678 503.4050618453422,18.232733811993512 498.12209125639913,19.417015493789904 489.3364892614832,27.4287014388766 480.1577803252588,30.94725821762961 471.7731709008982,34.844050209600255 468.65370340325904,40.497806660007086 469.24636994171124,49.47304987731559 468.4488536764371,54.49597520930479 469.32010481523184,55.49924498327448 474.61845983822474,55.75029158518214 478.45653253248605,57.79308131960238 480.44119038956546,59.47050419611264 482.6770054951476,62.02268705493316 483.43912362867064,63.345423508099884 487.13880971642703,63.10966264038234 488.0121748659135,64.30591376840493 489.9779057118714,64.68415927462388 491.53837728447013,64.01912397598198 496.1821306404889,64.86631608511277 496.3714321029502,64.3900260853095 500.60377159652785,64.65327825304644 501.8916961300671,66.75227815655035 502.2826134651183,68.57552682238236 503.3363795038578,70.66840920226343 504.8609837722344,71.81436269755625 506.27135859472605,73.88266019484968 510.7087925635295,76.73521117457938 513.5321957355037,82.3643298246509 514.8529202686136,83.41562626743666 515.547731124938,88.6833079935634 517.6737192940684,91.05774434944863 518.6591193304307,93.28647363055882 517.9976941333744,96.96924644881517 516.7519701225767,100.10050999193845 514.9034618380294,103.04404697866596 515.2880889309555,103.99914531990123 516.7550748112086,104.1580092940302 515.9195251625222,106.49857161850878 516.252441873277,108.65121227657903 518.5749036045455,111.22602530142115 519.9760104176494,112.00950669660585 521.5270025409714,113.63161523388044 520.5056208604192,116.85128661427291 519.3516167076522,117.70882209111846 517.5912999926883,120.295253654524 516.1525064962769,121.14712600011103 515.3103018165632,122.73076690487994 515.1247206905679,126.13748222178651 515.3863476054235,128.23226094778715 516.5825361200785,128.7873680008064 517.1624263356642,129.94287355910012 518.8135108398372,131.26768203884808 519.0957569001359,133.36226617879686 518.0581289652145,136.00327141199512 516.9622129961525,137.72326220650064 516.69588149507,140.0013582659817 515.8374947638049,142.14291745095022 515.7770640903525,144.71010083307124 516.4372935113414,149.3834056125205 516.6266587907154,153.8239182016698 516.3002497473037,156.199911877844 517.2609851368625,160.2104587980939 518.1713462268942,161.82502105187768 520.3737868791469,170.440403922698 520.4824271171216,172.5010579821169 518.2089924722007,174.95463173184623 515.5178676833951,176.27214370776244 517.1006878723771,180.24146982955028 516.6572144495972,185.84459975880668 517.5313999410731,189.19559345818948 519.2775790583463,194.29708114832943 519.5880122112557,198.50273987835908 517.5031651658022,201.7606640513269 516.2712024919433,204.55685419824124 516.2398669487822,208.19241076547678 516.7768003420689,208.9701660697948 514.516994617459,213.36223486765914 514.6973721425101,215.41002399596357 516.2477860805,220.2484077878123 515.2561948928267,223.8189742736563 515.7063142478721,225.20935006817194 514.8920825940058,226.73639397504655 514.3498710735468,229.0808968117965 515.3498938207281,228.9983681080472 517.6917434462313,230.71587816116528 517.1535830065997,232.30056916867204 516.9435499811465,235.29177216193295 517.3803455829669,236.28681807627117 517.6713698333033,243.09170413019234 517.3844608063004,244.21250809942046 517.8652173092771,247.97440207261326 518.9765430105502,251.4482063861206 518.5472995670186,252.6221493237585 535.3519205206641,249.13138750780865 534.1808854975542,251.90806250589935 536.5895024580469,255.17605432990456 538.4841234069501,255.6891229217344 540.1812949526562,257.01705872517346 540.8856153220099,268.52931752603 543.3129482595642,269.1269490526646 543.5826758982846,271.8333362074561 547.2721864978404,274.1577785319864 553.2618515696505,276.38018259595 557.715818389426,278.331619829097 559.6368090443353,280.4410681455269 563.7322084259832,285.5225033240512 562.9404159879944,290.49434686209986 562.9819030278985,294.93597176357326 561.5177995692128,298.04011922242273 561.296527472221,299.5278956857569 560.0012304146182,299.92884575337587 557.63474382457,298.37479374091663 555.3612221620091,298.06013935162713 553.9313077598604,297.12434020513996 552.7897984027964,297.5380941046216 550.1057098444928,297.0104140061489 545.9528438501385,294.65858891226776 545.6182256343944,297.2224219285033 547.5370598650982,297.9816680228441 547.5039099397842,299.997305903224 542.9724745103646,298.7540152336785 540.0928275032961,296.8903579019622 538.3303189384324,296.4728694918638 534.4722059495504,297.37952497999515 533.2714372073935,296.8826371698798 529.5510480126632,297.078348244037 526.5497763528441,297.70130580262645 523.6527477522328,297.38946969246336 522.3090373069863,296.87109797925376 520.249620491725,295.2156846588057 517.1507569705832,293.87540887125846 514.0670087456659,291.9149614541625 511.37997127268187,289.6451365260855 510.18358996265357,289.6916083950799 511.2597952203085,292.51214253253374 513.0021143754088,294.2824176797327 512.819193619102,295.657753683106 513.6701662775492,295.9416136197458 511.87079807778576,298.51705276610244 504.6581604751574,296.85832028691635 505.34624860364886,299.7867025296922 503.9838491426167,302.1274132294974 502.5425583549332,303.51263763912306 503.421426524169,304.7229647540289 506.24664538962213,306.2684843437648 500.86937696235276,311.859730702863 497.521616680515,318.13735233093 495.6366168264162,323.157316284741 493.82616090156034,329.87296891115716 492.36961141825253,333.46297428722255 490.5453534389459,337.2057918258229 490.2411560040115,338.9419691982378 488.58930132800725,343.917223585265 487.4911095628916,346.2575059613735 485.8106941338887,348.7961994314273 483.54359654448706,351.0180839489413 482.51556875712754,353.20113002214697 479.34205734981066,357.5688198267131 475.21600309968926,361.96477109772803 472.49684697151343,365.57390856197986 471.1614517934891,366.51058931031025 469.53808883964336,368.66865474385787 466.919100877106,370.66840385663807 461.0710174817712,378.2936690952778 459.89748203680847,378.98210313365644 458.90160841616813,381.72709751094516 456.97241461543894,388.8623865906485 455.55398718740065,392.8829140076143 455.57546895600115,394.55166062638506 452.9994980392519,398.6548913040891 452.4297192982285,400.836242400902 452.7331128511834,401.75489124016735 450.43120706627974,404.00036518788147 449.3130657339458,407.08429752574693 448.46724220447175,407.8604288923757 447.94106402396005,413.62882906978416 448.6420242414588,417.29967363801495 448.8669741528979,420.35311846348435 450.0244525312449,426.38897125334665 450.3728973211686,429.4495275253236 453.1110933483543,432.412004745967 452.9743132543336,436.49526710778383 451.6036549726407,438.72951315661186 451.79271645422864,439.34227437683586 450.72903465508944,443.0275913750445 450.7239445218335,445.297515875987 449.1517368717712,446.5668890001796 449.18566825814986,450.1778514190359 447.62712203218524,452.00191783809976 447.0002569375965,455.0558348396964 445.1468376524209,455.76481499419816 443.6170670280671,457.32590831157 442.94082997941973,459.15133733806056 441.44179766330933,460.72730227592893 441.3974255431233,461.75429522751193 440.3124868472693,462.3232382323946 439.6654557706097,463.9240344664467 437.8150917317796,465.20193378098963 437.21986149197846,466.8853379366155 437.31898117422026,469.57522553594987 438.0480632371686,472.8246602802054 437.47790374847466,473.60024895489937 437.5768678105893,476.3435244751198 436.674245281094,478.1716968607565 434.32314882824005,479.9482257226975 432.4644064408335,480.00441476381644 430.3082838881868,481.74271954870386 430.1826587217985,483.0782689504061 429.2434223775591,484.03636055019166 427.5101645905214,482.74884658212267 424.72798745025426,482.9985538129564 424.34238379545536,482.08598139418245 422.78817537286164,481.54757314794193 421.3047204006304,482.5382794976966 420.28602816001677,482.1697905202427 418.694156087798,483.9936513976991 417.3030608601855,483.281652660376 415.8167482572911,483.80753124935853 413.42349495293655,483.8067758965816 410.3240116741871,486.11865504044 408.41913892159073,487.08961596485443 407.3497037772579,488.79757132383287 404.8473769913881,489.5992337495965 401.9071858836933,491.0849318125398 398.49382651365977,490.6234580855227 392.961036651086,489.43756658315243 390.5814511614496,488.25001349368586 387.892370349221,490.73054031298017 387.1898677941671,491.919515875368 383.7985952541245,495.87444452168563 381.63304895299353,496.37289229036645 378.97419988698203,498.9363757450013 376.46710095320526,498.9780649867554 374.10843563097404,499.93447339276554 371.5180924293589,499.7966095143311 369.8723853016901,501.5971859494316 364.0874109111595,499.3956782484055 362.1467449218222,499.7492466161463 359.15565828731144,501.8634499302881 358.12752578948374,501.78497557056653 355.2745838881356,500.1920099473841 354.7428811575802,498.3718092081641 353.4951067375252,497.32664540957785 350.70535669651883,496.0859104512798 349.6110521973288,497.3804978154155 347.1274722201987,497.99103215548064 345.64316959566133,499.47469778205766 344.7667128971718,501.2487799979418 343.44666636425484,502.54411421344525 341.56840190844247,503.1367316601518 339.3196414430566,501.0006128807045 337.3877995968071,500.91072733708063 334.83014073259136,498.5194352000748 334.21843600460596,497.07445813797085 331.3696568391185,496.4026387963563 327.9603812729023,496.8047996492347 326.43564569669167,495.67037959932946 324.3883035247013,495.00240369832807 323.7272907163561,493.90232081588806 318.40586010128806,494.1084199950802 314.8788044192919,493.1152903177905 311.6022571614688,493.4709473629541 309.45049216230296,492.0601763528879 308.0991131535679,490.2124321647837 304.5091141354492,488.64144480399176 303.9215015512828,487.9527929773488 303.9664222583277,485.9952678854482 303.2352572808398,485.2854025205981 303.8362162645434,483.6335266332465 300.57217439465387,480.89961122765885 300.12690863507936,479.76099450831146 298.07101957537037,479.0996997915876 296.9588332764354,478.1808884369306 296.1811451382375,475.52158168378264 293.22443919031946,475.777485117525 291.95311957918324,476.56025119236267 289.7050012648112,476.9712085993656 286.8707811449328,476.91897527302183 285.7528658326042,477.61167889024654 284.09693823613856,476.54388983959313 284.2756158964952,474.2498258891001 282.53053967761474,470.4383996489858 282.5154146305997,468.54958972051236 279.9763449944757,467.4312228709484 278.34995536315586,465.6062943676528 278.6125355663831,463.8668658414824 277.11940278051145,461.99682743324007 275.04143976687044,460.39797020270623 273.3418924814435,457.8616349801538 272.3975015822696,457.8789895556413 270.3890121946127,459.3070970835718 268.7568479734259,459.40096197132436 267.35868608926467,458.36223723468237 264.39303265694736,458.7510479901124 261.5865218696317,456.8081998777318 259.95382931778965,456.60158475125553 258.5548454508825,460.1569878859908 257.1494022908672,460.7968333800182 255.01000088516403,464.0238368696346 254.03500035622292,463.9730152000608 251.91610933045786,461.77353737623264 252.28228321541414,460.1466387697471 252.83909714696972,461.2545319508786 252.80372022365873,458.8116501472913 249.09837374245987,459.0802525947386 245.98306183936984,456.22278314423465 245.67291379026756,454.9123679047073 243.78320336280123,454.3087371752336 242.77808293392945,454.55711959329534 241.41567113550036,456.43299275258113 239.09664621947533,456.81104633773697 238.67793918121626,458.35565970894123 237.20023623531432,458.61977232833283 235.79566457677728,459.6939533691364 233.05453141532647,459.4950927191973 230.69119298488292,457.65489953901255 229.27374572990598,457.22242033453756 228.60500476167203,456.0992063130079 227.29134444196384,455.97315824069136 226.17075005982895,454.80573275515553 220.86302553467647,453.48576835813475 220.52825081792255,457.1729149619422 219.0106182257036,458.6506848058755 215.59261947631163,459.0660865455827 212.5655817838661,460.3805512278377 210.91575760020282,463.46993471576815 210.26918117665957,463.7850468903423 209.33758052924512,467.06855811701865 208.15831020866122,468.8385739340063 207.21404523873287,469.371758542422 203.53834428257161,469.6442372371918 202.50083492631063,469.25532566235154 201.2392488084729,470.70991156861203 197.72769898932006,471.4543473179626 196.47485488395137,471.33523532562066 194.15396121958614,470.2865932216169 193.42498775735777,470.87131521228883 191.11499019896345,471.1651751390239 188.52654130594559,469.22457158242173 186.50403451903406,469.3896615513325 184.65557191256246,468.3410844764182 183.06399996678093,468.35584128367896 180.90819438678952,467.5546227120054 176.34950605850236,466.3631035417031 173.70025292833944,466.65528888126323 171.42124691028985,466.4754934297863 170.33271250370018,465.92777537232587 169.07998962030243,466.6397112508647 164.20351367871984,467.1336439116907 162.6637705899922,465.9261710685334 159.99426044827996,465.17638525041167 158.38264343437436,465.44560069167403 157.51047302590445,464.41785033156407 156.15480859345976,464.97207297625414 154.2880784000472,461.2389535937342 153.66204841921402,460.8338836926482 149.60779546115577,460.3070775630704 148.55980478782854,461.37782351171813 147.98368503963906,463.36369241753744 144.6058145390921,463.66870636329645 143.2413686678037,462.73841592528464 139.70991037695518,462.2781456963006 137.14277149548457,463.30255595360813 134.77061019643844,463.56294806295904 131.86628154742561,462.78805157578125 129.39062088311263,464.119432871323 129.27655595678985,465.44611367354184 126.11372727434266,465.8393350316299 125.65014535675186,467.3755451236149 123.85294215746391,467.35101084007687 121.79866001147636,468.1052725369613 119.30512929870858,466.9404276026404 117.41389984689867,468.7365122799712 115.3190972283738,468.9283656460592 113.61280767208437,469.98285930089753 112.44911344832745,472.32811042709426 112.37503037777554,473.7146868994846 110.97677593127305,474.9571192799984 108.30753934288435,474.57055165338585 106.42572121957842,476.08910527779847 103.2393222395652,477.62843861400995 102.10657695366103,479.4705814511353 99.89582839724403,480.86922129718687 100.48947767394576,482.0022885416849 102.3889874450132,482.418322722179 102.64396564938907,483.407915134751 100.95757878513113,484.61993103120443 95.90942266687254,487.02546882503367 92.41711931470806,487.056226724577 89.83280963157439,489.8857336289857 85.9751725555898,492.4728561518967 85.15152094850738,493.370778801946 80.863566188412,495.05681885712613 79.83129235844754,497.10925565003424 77.14575014122886,498.8064695976616 74.66759967717286,499.5581504027265 71.61566747187005,499.63296558125336 70.29944407348269,500.17007950804407 66.29082801573458,500.6093348100784 65.28428961397469,500.374390174147 64.39058439870675,504.18289339101636 62.63047616924093,505.2885602197605 61.09900957871074,505.37460423260825 58.92279385376551,504.4682167649215 56.38331835818987,504.8290498566073 54.86591814976055,503.6018116286582 53.582520255953995,503.35063940808226 54.78927923405506,501.79356073729946 54.668804384455036,500.7355232420437 53.417494526222946,499.92168211170133 51.41399278611573,499.93096298257177 49.155522122269524,499.15873860374813 47.5987849918289,497.46648021047076 45.9989546711399,496.6066208430477 42.14775514732959,499.18974271268695 37.35741670443622,499.871933854471 36.12718733579339,502.1181750460613 32.017380837161866,501.8792338310602 29.462889363711007,500.7600657669221 27.970127124348906,501.57301122766546 26.614861885577742,504.08909321126254 24.572235063007646,506.33211067331206 22.740471992118483,507.00801269141994 20.83252609245199,508.786703089086 19.27201615450298,511.08462562316214 16.972958026745854,513.0124751273297 16.67183032981288,513.8215636056246 17.00072552130244,516.5694909953324 15.30868763733651,518.1236422507109 14.791440399424676,521.7095992920724 15.336980229628054,524.2108943793382 13.739487130568378,525.1881571599864 12.696161138050652,526.5275284243552 12.049596263736664,531.5017965397017 10.223082267639972,533.1316973093823 9.131967534253963,535.9274610232497 5.759774285191361,538.2119025077595 2.601910331786221,538.3938404778286 0.48608761530861544,540.1873494468359 0.0,543.2263648923035 0.41023183014874565,546.0367958151019 1.7406929416784696,547.6115287524717 5.779974207195507,548.5291403278005 7.176571856524598,549.2259256303848 8.557630883380067,551.123862960721 9.471350965682134,551.6087026174748 12.238937308579821,551.5964408243565 12.617527082042633,554.8279591047294 13.593825663894513,555.0193089089653 14.81289468030772,556.4135423231023 17.760426191441866,557.9722529103174 20.12034617351287,559.753690722834 21.107887365843187,559.8705942836208 20.564296564731166,562.0770309819968 21.32044017106219,563.612216456006 22.971400600465884,565.1585730973106 24.57446930612534,565.8627329933722 26.700844950102404,564.0673364694117 28.691117395901276,562.9697447379237 29.956587991033985,563.079471208963 34.130516284987145,561.2005416547318 35.26139667502869,561.4748740898805 36.26519087680076,562.9355779572969 38.19609811332638,563.9866067452007 39.62721214266107,563.8931263460867 42.34810048680677,562.594507138977 43.57254800920003,562.6438119287665 45.347701816926886,560.9437749911942 48.572177001172,559.6693944176857 50.46980066338342,561.7406404806932 52.84143823116258,563.5808677826425 55.41604165823244,563.0024496500338 57.041383639693116,563.2768797665635 58.86709051849531,565.4687463330022 60.52113611916015,566.4119223634766 62.58440643588905,568.3640224499065 63.28958509895209,570.2965543482414 63.203702998905335,571.5740453976211 65.78289896665574,573.3239011890212 70.09394735529757,574.086665728554 71.90348726291036,574.9323794801359 74.53232908813374,577.501401725965 78.0831317176125,577.7355693654449 79.83115454297787,578.7914656651726 81.42156845790204,580.9673723077403 82.67608979812239,581.669249498404 82.5500905374855,582.9235986007575 85.7774280059928,585.4037603477773 88.29742212261282,586.7170538416051 92.77517702188501,587.2599467342563 93.83507136125813,587.7280745989123 94.63334836263441,590.1724820119443 97.44415326217474,590.4331673661063 99.006671665256,591.9547023511348 100.45807599289492,592.2127026006265 107.30276293214153,594.126795432031 110.54795737560804,593.5381443994456 111.1238290839863,594.0426046391462 111.17187289009102,596.3657795705398 114.46184831237561,600.2124282037594 114.94406597284734,601.3710630146959 114.16970003568444,602.8215225301543 114.62056303490154,604.2737483613664 115.80393204928107,605.0950112090255 116.59512163087207,606.7432087077614 116.00556262303715,608.4645036145539 117.07477451111471,609.8569631208798 117.01051855898673,611.5494128878502 119.29564838004539,613.2746257830681 119.38604967068531,615.1476466038155 118.23884271110545,617.4706423484819 118.86651063591746,618.1482120118612 121.93648969813704,618.6940189529084 123.14425779745275,616.9200265300822 123.93050718686801,614.5668801354047 127.76331266223015,614.3758575079646 128.19766536147552,613.1202894299074 133.6182655313031,611.7119377743732 137.32625831288277,612.8358586311244 138.96325354641598,613.8004433021363 140.63080764904967,615.9755913909765 141.310805620515,616.171658732777 143.18705266036773,614.3002293393479 145.7747183490268,612.4140688037271 146.45553043797753,611.3691498262644 147.87728649854188,611.0764646492312 148.16444446590953,613.0700326474628 156.03549076967997,613.6313196322419 158.65281243008033,613.4888620040253 162.77420447687504,611.9636838187703 164.79311438102204,612.7917426967887 167.9150458109799,612.4540392400711 173.6948071057572,613.605370605962 175.8688297538537,615.1319940174576 178.03283443302868,618.8704850151076 177.82700594049825,620.3451504781709 176.85834461908306,622.0983314846694 178.3526854548616,624.2272576974 181.0114723172183,624.8734007722222 182.11463076458256,625.6408620054742 182.6199566102895,628.5749257713246 183.70234906389095,630.7044505925321 186.55798878861435,632.0658838690424 189.52601187578847,630.8760310918896 191.85637696977753,632.410428728096 194.3407691247263,632.82277007382 195.79461181719,634.0110402007994 195.85710828049943,635.1249312346429 198.85688189217703,635.4018403829193 200.19762981682027,637.0568004742778 202.74352166560809,636.2197781151909 204.0741547194668,637.1668777117609 206.04310991361572,637.5269344045715 209.5676898226974,635.8836348330834 211.48316723212818,634.1058189602718 214.17320238616585,633.8177285315703 216.20493690146668,634.5682804736161 219.59592909871864,634.1435252496583 221.28719410103986,635.0449725940646 223.33747546829082,634.2375452221071 231.7905129119452,634.2797325074074 237.1743809405455,636.4841506432434 239.84665773208195,638.0983638332073 240.73607863305935,639.9633910118382 244.00732583076348,641.6665886592889 247.08441733954342,644.4318411933709 248.98145658583988,644.6017194325451 251.91686929274536,642.7070073816376 255.6522087127995,644.2504604422535 258.59614345370613,647.0973745673798 261.5364002985575,647.949996948336 265.15880823278934,649.4329603154849 265.65598056233773,650.3127920897166 268.1559785975944,652.3093961528225 268.6331196982184,653.6639520525939 267.997113544006,655.2309033628424 269.5815269336924,658.0966068898831 270.88339271571266,659.057538694835 274.2592619676606,660.3822827983211 278.19032525370204,660.9146983169732 282.35758325157195,661.0399732235214 283.3109184938187,662.7322356159091 283.6572648063132,665.0277278225008 284.4542606978024,666.148253686222 291.85476325130156,667.5439717435239 293.5874056245295,667.4266098239992 295.75628008050234,668.2710733313692 297.4157293290808,667.6718333915593 301.79109471794675,668.2007713465654 305.0460840798307,669.8177765556715 306.86206867588896,669.895128527927 308.9724307987175,671.7188303483738 310.01569358288054,672.0315136728607 314.6009694201289,670.3674064225498 316.2304653808601,670.1361884584287 319.8148608119,671.4645433583772 322.2415460804727,672.0816758048871 323.74217962905266,673.2588945080571 325.37076689186017,672.8989091900664 326.36501106441006,673.9118959449773 327.90428519867226,674.4337492794125 330.0901719520412,673.9893207009274 331.94792500119536,674.11810976599 333.15684275061403,671.8157776618973 336.17458641837584,673.1607344660831 339.66981078471616,672.5896005398864 343.6409080714573,672.2875517057457 349.01251460718754,673.7873679628077 353.84789150049426,675.3645258382714 356.898758102264,676.9856310480945 358.735957957856,679.4717782887557 360.5051426542738,680.5412016641486 361.9385585419094,680.3465981328101 361.60326817190327,679.0898543099614 365.4839110249437,676.9558159683993 368.46138663868334,675.9632955774102 369.3112081838233,674.5431781383907 371.0831199676677,673.9549541475103 374.57375583149144,674.5713631084891 377.1030900328643,676.9921300793455 377.12575577353505,675.2446433784071 379.47312221367343,676.3328779734297 380.89663760199716,676.2733120949816 380.9220009328086,677.2377827656528 383.64385936472615,676.7720999594326 386.4363293491464,678.0388413191013 387.68472583645496,680.0440251650905 390.83040321743647,681.6860280895387 395.33046441799866,681.8129160999982 397.00783912670124,680.8474941854116 398.368079458563,678.5655640241079 401.16871035846435,677.3826434293572 403.5442673587536,675.8937666131393 404.4110873019996,675.9186577530655 407.04101202061895,677.5016489212783 409.907602742967,677.1770510965279 413.09943469334075,674.0403139983191 414.5499021403505,675.1092811127767 415.1016641195962,677.8109375315072 417.44833336447937,680.2909550008603 419.4277236998367,681.7787834135527 422.35785770083555,683.3590963964239 423.1699783697623,684.6053698796411 427.01214756638706,686.8502528603194 428.39165899467366,686.209292854761 432.68505664852745,686.1610186594012 435.75821137772067,684.0549918293785 438.94899348201903,684.3663762284256 442.64330501611283,684.2681518623075 445.37609987727217,687.1590445131044 446.56578058678195,687.5886440273532 451.05187201893995,686.9413342991277 453.6536362434588,690.232250475498 455.1832797825151,690.5237343995199 458.1384319247684,692.456390427391 459.51197342554735,692.582823335496 461.57659409389925,691.0761722423733 465.3447722680934,691.1111106542935 467.94037644464646,691.8168776014991 470.39534324762457,693.0277800129293 469.93044170428846,694.4256344132137 469.9370990608772,696.8670642463247 470.83024981501075,697.6299302810694 472.53111327999943,697.2111059631425 476.4529000467897,697.0246548634813 478.1885609424621,697.2157249464735 479.644851136166,698.750683833019 481.3033313484771,698.1961733323637 481.725418373343,695.2155750393423 483.01357989043794,694.8822830396858 482.7691355961809,692.4800887751146 483.14818610446076,692.0632028621858 487.7734744335349,692.2024518273848 490.9795901576222,691.5834293275334 493.41816719925043,690.524785486169 496.0669008696768,691.3568584026264 497.04748660445347,692.6906512342424 498.69444634118133,693.3938075576278 500.45714876706757,695.7619185133735 498.7422559147077,696.9431423980521 498.12415581481304,699.8345155788393 499.88050485623353,702.6933072231953 502.6387374862937,704.1943985195655 503.6803159743946,706.6595768523107 507.595734314171,706.8772193159781 508.94498791754876,707.7114669097001 510.92569915966953,707.4844181492984 511.7779268539167,709.4833825232289 513.9459532210676,710.679638343415 513.1406904307163,714.5842512920119 512.178643848433,715.708049301001 512.8630005446882,717.3237752555231 512.0070614796199,720.0902603650691 515.0047033802024,720.3455455959496 516.3438163157102,721.1341919144721 519.0546253454735,721.6707145987455 520.8225353984101,718.0510720063576 523.6912157846532,716.474216816868 527.0244684839375,716.0469674234562 530.3825737357444,716.1848936128814 537.430644630556,714.2406924980187 539.6161976088052,714.9528217531567 540.6790030888244,715.9992101530732 543.7861696880585,715.7688342038227 544.0428823238074,716.7925631585905 543.4967710338198,719.3160432741146 540.7205004367501,720.810479003526 540.2856681169142,724.3286078310044 541.0600111658349,725.438077218731 543.6980157031616,727.0515691323636 541.25059118252,728.3930985630074 543.9139668695037,732.8432594067774 544.2695715157893,734.514743917611 545.9951798435799,734.5220578850707 548.1470975947185,735.9822446543649 549.8246366203531,735.2279318662997 551.0451892608113,735.3001044519931 552.0553722910914,736.2189787401511 554.0234844915949,735.5528239537919 555.3364486384406,735.6543505206403 556.0768977121245,737.5336899687647 557.3728708620415,737.9823454258221 557.0081450936507,738.8081319504211 556.7425264781756,742.5976356429543 557.0043855668733,744.1421587938751 558.960249718302,746.6677738627792 561.0081842156319,747.9623201653277 564.2968022159306,748.0751505392 563.8408428779193,746.8491823592868 564.039983761541,744.9087042393398 563.3286253731972,741.6778735678586 564.1146480313187,740.6295583453648 564.1903831935058,738.727724779135 565.7851547199627,736.8718128410243 568.6626220843428,735.10280176202 573.6243919220483,730.8919855097928 577.7344388114736,730.6042488657953 579.3874865298926,729.472360531919 582.186288319641,725.063177897141 583.118988687745,723.2064412851147 583.238957204957,718.4693308672228 584.9903833306546,716.9286103326164 586.9528081070489,713.7428931618115 588.5074498769463,710.0408500425793 589.8488664265096,707.7809616162501 594.4967943680196,702.6536005033183 594.9175508540676,700.2821513053203 598.9465833713867,695.3580905194405 601.1046307756898,694.3486773133203 604.0006287362108,690.7544238597878 606.6879032037779,684.9924808574764 607.0036076178471,683.5577656870785 608.5547375673204,681.8160288757553 610.7083126316243,681.5154046386511 612.2563550747619,680.4972446983746 615.2342667906414,679.9916080129901 617.0780490451659,680.628251281626 618.7281410564789,680.5352212158209 620.584448850013,679.4081751446377 623.1487136746726,679.8334921378745 625.0044751272337,679.6406315524848 630.1460325767189,681.7329093190897 634.1484278619843,682.4653185193747 637.2395358446763,681.9648390983691 642.0792550254143,682.808564991019 647.232162648779,681.1690556109982 651.1645760915422,679.3312506210972 654.3570981846407,679.6494791302594 656.2114513241376,679.3419806586073 656.9452133862121,677.5932775267853 659.4311082416489,676.5626687061091 661.0885105861518,675.3235327033219 664.8981306516134,675.4303907920059 667.1687716655736,676.3608023668447 672.6501043854258,676.4619153173084 676.2688750537421,674.4075195998897 679.4811069226697,674.611052914056 681.1365930355681,673.2650699860792 684.2458551139077,672.6476252332259 688.275622332712,673.058547028086 690.9745745595955,671.8199942707326 692.8386984338727,671.5114772538458 696.3614735331879,670.1643479538305 698.6318628190286,670.1593891879444 698.2407516370997,669.4181391694002 695.6996236213928,668.3346969273601 693.1065355561569,668.1031773957169 692.2003125703179,667.4057028699317 690.9662366905197,665.2063255221751 689.6442587100099,664.2656546308648 689.4047711862744,662.3780948826053 687.1231233859586,658.8586326914773 683.2473017516421,653.9497812716628 679.7707468281626,651.3411850657568 680.5864752101915,648.8391863122449 692.1999407571301,642.9311935962497 698.5522484553084,637.9217704041793 705.6246704409202,636.9979171707797 711.5929161981816,636.0493963579834 712.7490591053689,635.34991774567 715.7505341769994,632.2102680160576 717.6073077025691,630.6740261365156 721.4768783323187,631.7079134669541 725.0594657568823,630.5169633911205 726.7905559096203,628.8765934432204 734.7842935426584,625.2716628913992 736.0402111593233,623.6220432061602 735.8603112828376,620.1478477473796 734.8682057537104,616.8496795472963 733.119474699449,613.1942226231961 732.8955020927234,611.0901622766536 730.643502648254,606.7716349994564 731.177020047859,602.6955886285533 731.224334167817,597.6785066101233 731.5771833802593,597.0871992180051 735.1525820424365,597.927380245121 736.1124564221519,598.831749144521 737.4762337344486,598.332271530477 739.7750835902989,600.0015920246907 741.1657717060143,599.2007315687255 740.2081546710336,596.9348051240684 738.7116023032329,595.2172634820773 740.0307766607834,593.7109557950768 740.4075290707224,590.2992729908622 739.0667362604523,590.1815871081346 736.260312923609,588.279437124884 735.501157614603,586.9358438181321 733.4770556245034,584.992792212212 730.5080019986525,585.5357237794836 728.2913333186175,585.3621347210117 724.073939889308,585.7478094752321 722.1753841848807,583.893512342471 720.2089086822714,583.1144496653695 718.6755875505814,583.2013786949748 715.535512477495,584.8884443909368 713.8176859637636,584.2263974349912 710.4074850282178,585.7433492077978 707.9133259651819,585.602522178224 706.925981737853,584.9006416385919 704.9682757922484,584.7976011191944 703.4181796601622,586.0199425132688 699.9396137587598,585.4017546087347 698.0156981702816,586.357959919033 696.6445040677232,585.4275389150081 693.604616904418,585.2774682774668 692.275461267961,584.3990651025033 687.4489413495523,583.8187549611189 685.7541392980944,585.0118891735513 682.7695560675626,586.0184814074889 682.0165412018283,587.6510748772121 681.2247462636741,587.7356401106929 681.0071324402992,584.2199014306381 679.502429550072,582.3957955357331 677.8661087540642,581.5884521093797 674.5862657337693,578.5680572869702 673.9550766547287,576.5688716836088 670.8552632528729,575.642927373129 669.6380621834851,571.9368667488612 668.2542240253559,570.6680016837868 668.160227343098,567.9264414136055 668.8172645539315,566.8890656409083 670.4950535069255,566.0272788515533 672.0356534025544,563.9880057611152 673.6035787823711,559.0476484869874 673.8168897675994,557.0838991594626 674.7586191603357,554.9166749829567 675.8067862850341,550.4867599866559 675.7259903266076,548.895217553922 676.6844496104159,544.7001254200245 678.0249121344648,541.5301159793172 679.3259664989216,539.3440336939088 685.1385587092346,539.3712937259755 696.4126829837227,540.1493396283837 696.3518507572016,535.2462318840915 696.5114974986568,510.0270724804501 695.1057005287892,505.23442848840176 693.9859456759705,503.64998158493904 692.7671612217847,503.16931127556734 692.537568822299,500.37383531358677 688.9462591712455,500.84516738240507 687.7573124489026,503.63637016559994 685.9143687333799,506.7652645197845 684.7153681831824,506.21701275621103 683.8790446989109,504.2009635309869 683.8662384952002,501.44756310016123 682.4450684980715,498.68885360721515 678.9276143713296,497.5904409823006 677.7397232457173,498.7981894713623 674.9479829128668,503.430897111346 675.0382041395266,504.0900656381519 672.948502681393,506.4181916985393 672.4637369772922,506.30415991273753 672.2950428977558,504.18977579740204 671.620107166001,503.6205090018447 669.8637696346651,503.71630562360065 665.9628000484886,503.2368298156006 661.8925695710137,504.1321105165947 663.7847302064732,498.90251293006577 664.5338401399611,497.9485144765978 668.2281595728791,490.48598248158737 669.1615253755568,487.7221721077476 671.6006842206067,483.7708428395434 671.816976363596,482.05019703958635 673.1595559628424,478.3448153606285 673.4772560130059,475.6863369991211 676.7072813721547,473.52560618444545 678.4046191325759,472.05053014987277 679.8534583806517,469.51403837427625 679.763293575975,468.0077315926955 683.0312032343202,463.9576337891259 689.8449623989887,459.42147100664226 689.5583628404531,456.98168339645395 689.9210814425614,452.2327492873753 689.5992351688919,451.1052495395643 686.1654392065556,447.3322741813667 687.1595536760025,446.35390407659395 690.6951873497273,445.08159796151654 693.914627329469,444.8166514475066 697.5210567135409,443.4757727096987 699.6460517016079,441.8681518661938 702.5822945467808,441.91348342933367 705.5598507542177,440.39220826779695 708.8680289035019,439.8630310843994 712.3808124018609,436.1017754565977 716.689767448176,433.6266279078235 718.2324309841067,433.0971576925743 719.1265068522785,433.99187354372503 719.4005347864825,436.130765165477 719.1339328006429,437.7224965271456 719.6423239793942,439.73927008545644 719.3045086002372,442.1408507533857 720.2142545354227,443.432949272746 720.1451765274397,445.23281859817155 720.8635227112493,446.78212553237285 760.7092217046635,418.0225190350971 769.6168413024728,413.92696976293456 777.7975404893481,412.93364304626925 779.3748588988307,409.2196488971856 781.9834370818587,410.14737567667356 781.2487144192143,411.8358684298432 780.4652712688552,412.25856919672856 780.0151713477892,413.7776538843321 783.7199673270231,425.85753443329935 783.5964204214097,429.3722845931555 782.7704875884443,433.2573453426586 781.9009060080624,434.1467689890298 778.90998987333,435.2465530117389 769.1960033831717,439.91107761346416 778.3177959511763,481.0578878725945 788.3561077782069,453.049051106403 786.7109388967295,449.3783399138409 788.9087949290209,448.7313134168145 790.5808211200318,454.95038222322023 795.1326774558339,457.9191347425408 794.5716301294876,458.8944422138251 793.421258306149,458.8667106859452 793.668840154453,463.7882486515731 797.2821947480832,462.9928560030838 797.4141253818589,465.6746810266955 805.2484945183129,470.31170039094025 811.7434815929532,470.5584124998306 812.664648947965,473.0117145912365 832.312544576929,458.4465686342674 823.7916486404259,441.3780518273738 824.8153378986041,441.84928088678123 828.5275784325016,442.2706269259979 795.028550772141,403.187374530714 780.3342859464921,399.0089206144642 765.6595914407175,394.5032479262648 763.9712024900714,393.2996043201175 765.4056380436668,395.390126962736 767.18105683725,396.2403208787179 767.368813068523,397.20393116019596 766.5097572741532,398.8029975303775 765.5063200708918,402.50765911817626 763.5107469741841,406.4586496978881 763.958117578938,409.08053823047754 762.5732832646426,408.3509886863835 761.2097954409139,408.3701509093825 759.9976505347041,406.7627517567472 751.5523930324733,414.5698884700874 741.1279614533676,402.98029800991577 731.4182690615444,392.30959698769533 740.6965551915029,384.7607396352228 737.7504922690763,381.41832135665146 740.212596420423,377.80141679632356 742.7313973778165,378.38058553036274 748.0743254143849,382.3926642479343 753.3766893183034,383.36728582579906 759.4378476927761,388.02684068499593 771.9352909890762,374.54638262468154 771.6484003146543,372.39565592904637 757.7447492718994,367.3936406988687 752.0522049062957,365.4529831544947 751.9923883397057,366.3212193562725 740.3839684425645,366.2558902422149 740.0728074577529,365.9757875243498 739.8967926352489,361.319318087589 735.4406249611111,359.77891901399846 735.0349682873683,362.3865719938326 733.8131086673495,362.178549542716 732.5019982920061,358.36714850533707 731.1427908912331,353.2032956659726 729.1068808913449,350.31432798994183 731.2759430799007,350.9211666907471 733.99794396359,350.75771145871556 734.0061090173211,349.83752158048435 735.9011184553319,350.61954703368986 736.5847594249634,349.66138645030946 737.7102172273336,349.5935142686907 738.6283528771007,350.84467819018454 742.1681733662083,352.09051115613397 747.2102282392696,354.5335606096245 753.3826626714659,355.76457825117944 759.095616888934,357.7487576106454 761.3742695996767,353.72317009735514 762.7644600482656,349.18030347195275" /><polygon fill="black" points="832.312544576929,458.4465686342674 812.664648947965,473.0117145912365 813.1566420922486,479.03431234450244 810.5984311494566,479.6880373313751 811.3303855084349,503.5799453785463 812.9657224325881,502.94748526704825 814.1261543625492,501.526225047655 816.8455057444183,499.87904317937966 819.0131692195534,496.44613802922964 822.0490907050332,497.36785937954227 829.6097054626101,499.0813626680431 832.4002342924857,500.0509191363776 835.0742130931219,501.45728603729225 836.5422123120401,502.6119022257574 840.6798516437672,504.25028146161424 842.1453305460459,505.26258217895884 845.3815250571357,506.3966840100527 848.546460070643,505.67845890287623 851.1202638577774,506.5297576945103 852.6561116835202,508.6894558058118 855.8394009263105,511.00210107669125 859.8178730159,512.221213025336 861.6980836469423,514.0148666655673 864.0273292641314,512.4373739070702 865.2611098383568,513.0550562325101 864.9595184647845,510.3732386890621 866.2035807646871,510.36719958480137 867.2319018615696,511.6117307571619 868.7827841476999,511.5031287366096 869.1908191127263,513.1634437875866 870.7417921502876,513.678294964359 871.669045295105,512.5443203833975 874.8702007567603,512.138161309569 872.8479676972298,511.7135724418483 871.3448667787258,512.2191739665479 868.5431278798335,510.6814972546148 868.7406058346473,509.5747963333174 867.2421339038277,509.7344950182504 865.4539988670441,508.53350618971274 863.8324240540009,509.3482204434148 863.8057694503125,510.23414641730346 861.9675824295765,509.11610356906294 861.9989117434693,507.88442389341105 868.6057228457556,495.8132685286843 870.6692526295656,497.5349244754566 871.7133452590442,496.6393122321589 874.3084118734922,498.1794802410539 874.7666764300621,499.1403282761723 875.8833847648606,503.8566110685169 877.4725156969121,502.9748423564977 877.2303581815072,503.8571792945974 878.4268379602789,505.3230709957867 881.3870142776924,505.2884902268489 883.0441829661122,504.7799158507822 884.5511755443331,505.7453251454307 885.8229631300076,504.95087476822175 890.1734907066574,506.2806162541809 890.380105335756,508.1303818856045 893.552290249348,510.2686638525412 892.9466909684645,510.93215515922554 893.7603452346684,512.7946122433398 896.6460272403757,512.5877654253388 897.4805409535286,511.4620073157769 899.440681055604,511.25573273468956 899.8427967543164,512.5023650693136 900.9804852325585,512.2950610728834 900.9864522215594,510.85374118597093 902.4276481316076,510.95652377083286 903.6679881822765,510.13897852735624 905.116411579877,508.29008271163826 908.3096485633383,508.60968007165764 909.8583035462685,507.79377247984667 911.606213782272,507.80065209796584 912.2311893319666,505.32796188279895 914.6088592005801,504.3175914700892 915.4323995409104,502.0520785060661 918.9284061380708,502.0724975660227 920.2783967585,500.5322329325236 920.3878598458427,498.57951945665263 919.7678376686335,497.8471783031606 920.700910752277,497.132708863395 922.0279156147898,497.75429753280105 922.142759133316,496.10892608581054 925.739822108257,496.65236349305604 925.4127790614097,499.63815035925063 927.2689592566192,499.9570936008981 929.0265422098535,497.0812728586984 930.3604635089619,497.50761595859575 930.0513135531104,495.7500419272714 932.0024783161118,495.66217993799216 933.5473007682293,496.39206373230195 933.9445270805371,498.45619515780777 932.2036025308688,498.2473323347292 933.1212380869562,500.1072083037569 931.9878239448163,501.1258068113597 931.8805058525305,502.56900153095114 933.0103464761855,503.08844116705205 935.571833078293,502.5917285461021 936.8020308816596,503.53072936742876 936.6007099115483,502.08518227730866 938.655597942202,500.86204394858714 940.2996100990122,501.39501992009605 941.6482593378696,499.23194171711475 940.2149673652001,497.8846878787143 940.7352580288348,496.546508520231 942.689558801432,494.91216950310843 944.3347163166433,494.92748678628465 945.14980270285,495.662392989621 946.9991762216238,495.05100945448913 947.2108102552769,493.7112039610936 948.79434564739,493.17896935571036 949.3937472540567,491.6825943295515 950.9808080338846,491.93039334623717 950.6892353631509,494.47986991223553 952.7531523132299,494.92230885794436 954.3165014061647,494.41261303827866 955.56999386814,495.48488078979915 956.9364302283806,495.45942332428984 957.7917541153126,496.681952784379 958.4545958727693,499.146549705129 960.4447501146573,499.45431397583104 961.2318679736504,497.5782221389755 962.5474319244032,497.0057434812285 963.2388963642231,498.78625755701194 964.4953043231169,499.9939019793053 967.9390964566571,500.54385619572133 968.7164151507706,498.68295429258575 971.5684489436677,498.92912579500364 972.1013995361934,496.6823335528368 970.3878642579175,490.3289315324197 968.8066598502413,489.87894544311905 967.4696539011516,491.479791180791 965.8703650818615,490.6172032538167 965.2086175550895,488.2284682323719 967.1801725714535,487.5756150598405 967.0074643722594,486.0632310483697 967.603050589893,484.94915783594877 967.4231938735506,483.0320145749345 967.8823985095646,481.7855480280546 969.2371094502726,481.13703332958875 969.5496767108052,478.6483226995461 967.3639172504863,479.89718298918007 966.5721184908282,478.7941759788347 966.9010388762513,477.70824000828526 968.292451026848,477.3737354387215 966.3273482723517,467.9907577020087 970.8401234012398,468.6926630549929 968.6685565113827,458.7449586329838 966.924423183347,459.9248395929353 964.5819555949198,459.87959183548713 963.9065494248213,458.9251939310204 960.5591668728433,460.61494283756707 957.8996669307837,460.09459190126665 956.8270064857572,460.96989503955143 953.2793005666804,460.1807456642526 952.9606971624769,459.6172204687479 949.1570331703459,459.440181974907 949.3184156742648,458.7096926147556 946.4926698215793,458.6420607555426 944.726357156093,457.52775186521365 941.7631993018917,454.418088668227 940.7147644723385,454.9396054915522 940.6431926179748,453.83883925100383 939.5225076372558,452.62950688513706 938.8167685875322,452.7925131291839 938.0574899150148,451.1196938568473 936.5117114015695,450.81802562579804 935.5713013779814,449.35848298574996 933.4753563040241,449.28394130651014 932.4264326169811,447.50368988550497 931.0195316613693,447.50676366601044 930.6961528927316,446.62849767189635 927.945444228999,446.10793643806903 926.7733784831944,447.1863331625684 923.4814506159486,447.97212585376195 923.2547699069438,449.0703023337648 919.5047955668891,447.79553102473926 918.709850249973,448.1171195173617 918.5797341792116,446.5829040890581 917.4583191361633,447.02285799782175 916.2663502592573,446.3843496429607 914.2633713039825,447.48359410099704 913.5734007300098,446.791390745846 914.7442955557939,445.0768464449549 912.7526934014509,446.23644226737156 910.4525592331331,446.23219584633864 909.9834515403849,445.22860469118734 910.9923185764474,443.65125300432527 910.1975588322621,442.22686281495544 908.5003398447711,442.63844455293344 906.0548384555384,441.92418773166725 906.2623211282394,439.0878596008178 904.9110775022292,438.1371611740973 904.9447666737036,436.53293998971503 904.2130968401592,437.55753876038176 903.3973556182317,436.67972694374896 903.8324019477129,435.7433100264406 902.4619456013952,435.4221999300995 901.9843483468532,436.8695872629085 900.0430968636673,436.2140640158032 899.6677827629426,434.6992175266198 898.1606753093588,434.2006327703174 897.4874654912322,436.2352047820629 896.0549447788953,435.29357283234475 896.4731357569419,433.96780862460196 895.2484198518558,434.3411148729284 894.4414047587604,433.3879291334034 894.5858255581402,431.6244914102265 888.0839366694802,428.3049471319736 887.2181603657785,429.2860620112153 885.7218603208796,429.40174199495374 884.1972024930063,427.84640061153874 882.438074055366,428.2211817285334 876.6428239003369,424.7154544006556 873.234056004869,421.5213278207157 873.3998511397132,420.37251101359345 868.8693219470478,418.7772828914919 867.1768722163054,417.57704293905294 854.6137106463283,415.3266988719186 849.4904624584169,415.0582784679755 848.571566736951,412.7810543330114 841.2801460149392,409.03415476484156 826.2428788321563,394.50746803617574 817.9447754228523,396.96423182575825 812.3282303256333,398.4504002318619 809.2571124628473,399.46276192307556 795.028550772141,403.187374530714 828.5275784325016,442.2706269259979 841.2788683264164,450.16368657900597 844.2599433585085,454.86902469051324 845.5997588494432,458.408293659491 845.5852715893317,463.2516415747262 843.4926759657964,464.694518996847 842.5105545252161,463.65294630905953 841.3134463196067,463.9346999611552 839.5524006083181,466.8644985111751 833.7570451909155,462.12743003865927 832.312544576929,458.4465686342674" /><polygon fill="black" points="762.7644600482656,349.18030347195275 768.229235505192,351.0541455042173 776.2685086011643,351.708851942357 778.6084631403817,352.04881890022114 781.921077740055,350.9463378685195 783.9913804773839,351.0510634916868 789.2042736827423,352.4178222487583 793.2206799948623,353.1955208647115 795.1512147648089,352.86011372947206 801.2017669696221,354.0411512597729 802.6570058777993,354.06398977842457 805.1444469506555,355.34274910706483 809.1023367962382,358.266779703773 812.5646921095288,359.6197451204442 816.7925961107032,362.75616079666486 820.7705751121803,366.2474926197016 821.6054430657533,366.54125829067647 826.3462634901923,370.9483108193453 831.2439646843758,374.1709976302301 848.6167739978125,358.44618984924006 859.4825752461048,355.10588024507075 859.462418288752,353.8793287027369 861.9044912580011,352.2614932510337 870.747161713527,343.85985851148473 917.1560315410445,356.18950263442446 937.2424277028541,356.5304636897583 942.8644500259422,355.2897318994924 942.5982201702271,341.4075020995954 964.6197014328106,341.5195600846515 969.15612772613,339.33219318916696 1008.6608354220325,320.5732100514799 1012.7030171062042,318.95959124085294 1016.7407356303844,310.5830809917055 1024.0,310.2109408442828 1020.9774199081312,306.0211307121238 1019.3606701581884,302.00467770801447 1018.4395738629465,300.484495918297 1016.4826374713236,295.81800688660337 1015.2854254289438,292.26425376458855 1013.9180925993203,289.9171597380818 1013.1907715398912,286.32498560689794 1009.4623293752386,279.963051165427 1008.8191684529177,277.4749259941072 1005.7772376334101,272.130357130899 1004.488814356976,271.11096917555153 1001.6053189936325,267.52559731513287 999.0400458803933,262.9491829810674 998.513273105034,261.12338752496487 993.354237844936,258.1809931350736 991.2622822212246,255.23688549405716 988.9686844588539,250.87253898544083 987.6577540943648,246.56316216161514 987.7101775234909,242.97408383094108 982.8313552379379,242.72593813673672 979.4683983877947,238.97238332935262 978.1571760819977,236.16335634231507 970.6900434216477,227.17183905102183 967.5145615997676,225.09987863894833 964.9114137944165,222.47326148126274 963.9729703507758,219.85159533053945 957.001857807153,211.4113266619147 955.3271318701863,210.83882430594076 955.1356322566581,209.90339937194346 918.7610955950181,222.38865754340054 911.6541896476905,267.2431609888843 827.7447659900712,251.9947401727369 789.955810913287,285.5654277482364 786.8848685736605,292.27036395732364 788.1637312339258,295.76097350133 789.0560485091662,296.6217308801934 790.6437697852685,299.53325480838845 790.3006577815697,300.5465090466813 791.8430821403609,303.15267458578074 791.8224456147672,305.21406577689834 793.2884525342605,306.1109621336528 794.2871135980166,307.8966552866791 793.2801334511205,308.30712330785 793.2970288108368,309.44277777356587 794.7552592201397,309.77178915668804 793.6307045819221,311.23765271954693 795.022958074509,313.3234578606649 794.7772938813026,314.6867440489679 795.8372780899663,315.10465012911084 794.7780659718826,317.48896818821817 795.3607825588517,318.1377168893941 794.2449778596236,320.1714090109212 796.2932987459551,324.39291872225556 795.3399749067994,325.6772816012268 789.602794350997,330.1494411005127 790.50889251623,331.8918506473596 790.7060091942801,333.46648840369664 779.6058883843348,333.2778134744502 754.7693105100428,328.8107016870245 762.7644600482656,349.18030347195275" /><polygon fill="black" points="760.7092217046635,418.0225190350971 720.8635227112493,446.78212553237285 725.3516676623832,457.14119933121947 726.81864366209,460.91466069431794 729.0851787519689,465.39045112286885 731.54121142806,470.8911798784711 731.5968939565046,475.0822617029297 731.3005968064112,479.07596358518725 730.1202652694157,480.7036848685859 729.4041950447609,484.8385819156777 729.451481573141,487.63561804037613 730.1833020950007,488.5712347813895 730.016373905035,490.73392858176044 729.1227963597147,491.5409550885336 729.2906714398171,493.3391370063474 731.4711965217218,494.25555852880404 734.3526698718564,496.12298216983623 737.2532218871792,497.0518699183295 738.1892109276802,497.8720456861125 742.6589128438779,498.56947782261284 744.3051797304643,499.44773328941335 748.3070386778259,499.71578629038265 751.1950194120681,501.9723841070163 752.5184576146512,502.5249809006839 754.9594772442259,505.11725696126007 766.1717633944725,495.4389994822943 769.466882427668,490.8158889331028 772.8063948872021,489.3576295972579 776.8060134074644,485.24991312679333 778.3177959511763,481.0578878725945 769.1960033831717,439.91107761346416 763.9726919910559,429.031329781845 763.6375941650041,425.63572141176894 760.7092217046635,418.0225190350971" /><polygon fill="black" points="799.6366868450475,166.9437432976664 807.8939933783349,168.12784476875606 806.2141110566295,184.3268505726869 837.4016589083845,196.53924392272654 838.4521841498264,196.52239524293577 918.7610955950181,222.38865754340054 955.1356322566581,209.90339937194346 949.1797081927117,202.58460717500418 945.0780707044897,199.94877066561844 944.1476198166469,196.01653228358077 939.6730730251643,193.007476538814 938.3724876724766,189.44863557467318 929.796496161734,183.0503564241659 926.262625536893,177.23886455835031 917.681564375803,168.04074175125982 917.2045996671484,164.78044634585854 914.6984163331338,160.36638170127503 910.3997638254967,157.17508070682686 905.7431716635693,158.47110357696545 904.433416727122,160.52675321724473 894.7145797295173,153.40987932215103 894.710519511877,149.6662112676338 892.6570795069936,147.0531609794242 881.2354139930588,136.02213057156507 878.0519735016792,136.96214357013605 874.4980147662936,134.72385678109322 863.441569364553,131.0039912133892 860.8091030629216,128.95773807982584 858.0007835951051,129.15306813942948 835.1337058208255,109.75269292304165 828.761796309293,105.46053400049038 827.2656661323309,102.2805415615212 822.4673907303633,99.49469782603546 820.9399139711961,98.82008221661249 813.5338531365998,101.7605004989764 803.2513015654002,102.43120406600156 790.501108922738,103.54551988055903 781.8497718587275,109.23470875258886 767.5221656021231,111.2570613604887 799.6366868450475,166.9437432976664" /><polygon fill="black" points="763.9726919910559,429.031329781845 773.6986942246075,424.6311754815029 783.7199673270231,425.85753443329935 780.0151713477892,413.7776538843321 777.7975404893481,412.93364304626925 769.6168413024728,413.92696976293456 773.2510733929106,420.6079629457002 770.6370647033639,421.49178639744736 770.7980105575467,421.96865836631844 763.6375941650041,425.63572141176894 763.9726919910559,429.031329781845" /><circle cx="725.0642363659401" cy="345.0899354429224" fill="rgb(100%,100%,100%)" r="16" stroke="grey" stroke-width="8" /></svg>