<?xml version="1.0" encoding="utf-8" ?>
<svg baseProfile="full" height="1024" version="1.1" width="1024" xmlns="http://www.w3.org/2000/svg" xmlns:ev="http://www.w3.org/2001/xml-events" xmlns:xlink="http://www.w3.org/1999/xlink"><defs /><polygon fill="black" points="1024.0,334.89543767783846 1020.1979195285043,328.0934388823699 1015.8701456548464,318.6674766830391 992.3466120332918,293.1204501524476 936.4506352268558,233.75690906947716 876.0286154113364,169.07357570032525 869.9351011795076,162.10035814736227 864.3642914103224,159.04733315845112 853.2108572269088,155.40922647423827 827.0058225923581,146.16899982447194 764.056302951879,122.62022035911559 715.009077747393,104.03740906214068 703.2209669906005,100.25316737030278 695.3589776842912,97.11743917988588 684.8062974240518,92.31505943416778 657.2101417150913,81.72518908489792 629.8329796661114,71.67064299166668 625.0137660052513,70.0309068634906 624.8414907854151,64.68699502188497 623.9815689120136,61.619794470115835 623.9865878429595,53.63388742448785 623.1309906777683,47.91945126390465 621.4085958416288,40.76855820896208 621.349269457142,36.60022620173629 620.4893578271243,30.0141644578174 621.1041431330748,27.224641538600167 618.6860877430045,21.090491581632705 618.5649118612021,18.702544602474518 617.0151442541991,14.553764652935456 616.6274906585711,7.087285860384327 615.2597423837518,0.0 609.360707061484,1.2741576112670145 603.0005013700669,3.9444671278064334 584.7380935310964,13.208656743078564 581.227553402558,15.738573465706168 566.0375146469376,24.07295835632692 562.2833267515729,27.128609504609358 546.1952161588423,38.37159874216036 533.1808922828517,43.21277746208648 528.8545636142916,45.25827982453359 516.2316781314113,52.93262240490549 507.07447047495765,56.77922584993644 493.7633697806384,65.78000661436067 488.7613511552637,69.66719631106832 479.7401475746634,75.83841035447688 470.38654861272096,80.72336812741162 465.8951114452788,84.32240528255818 461.3363175815878,86.6318307534682 450.5135552041932,92.87437463194328 440.3491943824982,97.0127674657341 435.48993679116825,98.02692966891766 430.60556816874987,103.97776490513866 420.2956343875684,110.20168093526081 415.00330151017107,113.05355064454386 407.7545946996717,118.33648572208517 403.700563143708,120.09483601689817 396.41071153398354,124.34937334878396 387.7738655020719,127.88147843976049 373.387258535296,135.6169598538886 364.767963244018,139.6803119242743 360.73169181679714,141.969065620587 349.5491350868516,146.6910334053174 343.65752434807223,148.29371709826614 338.3344572376335,150.8981339278239 332.32303372313885,155.37282613799573 325.7174796536134,158.56477323872878 319.0615738195468,160.73526170644686 312.3223030534771,163.5261046852479 258.51031711819087,173.31165478627554 240.05651550890227,176.01710968628515 231.43484089566252,176.39718966062412 231.2295344317928,192.36937334541733 230.40584817347965,202.22067504952656 230.84389226323535,203.57507270104065 237.08364393341242,229.8345979813995 253.8668137590321,239.2037276907563 254.50559834092414,241.62749869717538 253.7442246335491,245.84494627009008 250.59599234041679,248.0708826816384 249.66549080161695,249.76591605698798 246.94475626994216,263.7637939568815 246.5193543626173,269.3626951598342 243.70550700229708,272.5159544809469 237.7526842432015,273.64295591491975 232.56060127477127,273.41287645843295 224.73296801261122,269.55017698045685 214.18797050322758,268.15512851307983 208.58225878240813,269.1971118342226 204.24859936285208,272.9395208399442 202.4666386998713,276.7560774324385 200.5979564602457,278.4582713329397 195.41890431076754,280.4303317963597 183.19861132235192,281.5585585047911 177.26056522838007,285.1292547202588 174.79985867845213,285.9867582038936 164.62303944631427,288.03423051619427 161.91809101166766,289.8164597534595 148.8764187765488,304.22800503889175 146.58746623150998,309.14492409712307 145.3185574922322,315.7570341400789 143.20511189376757,321.0129627864228 138.87910415318163,323.30000888450934 138.46430324567234,324.98985520555493 139.9803410447254,331.2599224245233 139.38852216952364,344.30520276723996 138.62738513879117,347.3615432905392 133.12215616788197,350.8612134587439 131.57635326201844,355.25474157289716 126.44190798161868,360.7425246437256 123.50528763803388,364.48146616521194 121.31457173420482,369.90048104559855 115.09347410552168,380.50026072141156 108.86314704574387,388.3869087097995 105.9385158240622,394.1883180086286 99.5629353797121,402.9767209988951 98.06812416762892,403.7379805306259 96.54690766668627,406.95869731820017 88.57101903317832,418.7784560726359 84.9047679594006,422.6102216497111 77.41225824273553,432.36969089615945 73.81929294468854,440.03162084414873 70.43141638977582,442.3862724524569 67.99467516875491,440.67274313467783 67.75197641418973,444.93858940359434 66.6649637271293,448.6773954519141 59.613135499634446,458.57607889929034 56.207370670689,462.0981765075772 53.60072823795977,465.8383109394912 52.94072496874621,470.0229549425424 45.63761501344892,474.9015640276271 45.21973834600781,481.78982509561007 41.71571715126532,487.63679388418365 37.294342536712556,499.43955999826716 36.83423684242079,504.20967601119867 38.948079668828136,513.9421185859815 38.74245000785953,518.7556439917741 37.220936022693756,520.9475126243428 30.54758325393119,526.5680782500085 29.094871693721664,528.888264723872 27.74692980464408,533.2046562877756 27.93047782803449,539.6147592584907 30.809037199565175,545.1189314974936 34.035052790871404,548.0680769966693 34.706766616767176,549.8513473901289 33.52414570419968,553.6736096931684 27.499823396344325,564.032858813552 24.457473443508615,568.3381776971263 20.46079077161515,577.1061319258879 17.426021625311023,581.9288189544311 9.573822462460319,585.3936084190531 6.646059298097136,589.1124193401417 3.59850157823081,594.3781826931958 0.0,605.1170050751249 1.9558122931246056,609.5434541842016 0.6047256251384778,613.4824448644765 5.919212659067777,613.3117711098892 9.654191905868371,608.3330303196835 15.624177459441121,603.8334823127324 16.774132231906307,604.4056233226667 17.04137471494392,609.8791724710536 18.77007232320236,614.472943537676 20.27280152887639,615.6784146076916 21.15442482339584,612.9699054452938 23.761411939285182,610.2754505719674 28.756689501094645,609.7968610395407 30.23419694224376,611.6457382241588 36.01207028826014,614.739110189809 44.06659592699897,612.7075894985712 47.76588544621751,610.8998182267023 54.230622351077244,611.2797317673296 59.164857156806505,613.3904682629695 66.94583679669333,613.3995200464126 73.27522978751183,608.2343146909614 74.91539988575943,604.8818921200996 79.95413957712236,604.6730594818837 87.26470952815907,601.6240588600671 91.47354284140877,601.0772281006789 98.4877498327975,601.528779841645 105.77628263131372,602.4671729672477 111.83136054754443,604.2552317203156 112.72813209060858,606.561370953667 111.36094375939655,610.5274576793253 107.83218643765852,617.4655534382752 104.4103455189163,621.5305215358021 98.38215658772504,625.201498993305 94.39004438743287,628.2556292822331 86.47697409418478,635.6646574069999 81.73520456774422,639.2816653299406 68.32433277407083,650.6076246002201 61.54472399213542,660.0380493924704 60.137137107540795,662.972326777794 61.36538797814019,666.8117315366586 63.01474256752655,668.80997790451 63.94452991610577,671.8895059294557 68.52006930060679,675.0450372468077 79.8990266593097,669.54727118678 99.27128108989072,663.3987942033978 103.67349911097834,663.4544850366834 106.59468780899822,664.8639880452371 109.35474441770249,668.3843904543422 111.76809605326758,675.0257820619271 113.94081580570509,685.5015149990247 113.864521771198,691.9886947363124 112.84260198467095,696.0396701121615 116.37035457829424,700.0232588418487 115.5676737222899,703.8618905984481 119.52998493372623,705.3771541574815 120.87243752380493,707.0411474107686 119.73803309309238,712.8703369843766 121.34345792535608,715.5489263892626 122.20253371734229,719.1535617119409 124.95585407356937,723.0840575278718 130.51044096387608,724.7615291119445 134.29650756229907,731.9106798314884 136.47714252940554,733.6294593568266 139.6713122931543,737.5602541697194 140.87747237463245,740.7841311906425 141.04443390713155,746.5351335833034 142.1086859053409,747.9026853888023 147.05652883293206,750.2932499225217 152.62608847220173,755.984711235388 155.58608775669654,756.7218632926931 157.12711462536285,752.2880977011815 161.18738513696226,748.1286948864711 164.52326390055413,739.276791412783 173.32750478826648,738.8260684582623 181.5216775808541,736.3189539309055 186.401606594642,735.2916717699181 198.8110773096674,733.6007243878225 204.47867291008993,732.52503828449 209.66836345106773,732.2480093563686 213.23870475391445,730.7539667213459 215.22249652638544,728.8271414178771 215.34581796062372,725.9602738456053 213.85867099307688,722.3976000099303 211.37140563062647,719.665654559199 206.49822537720112,715.7658333094103 201.92973917597882,712.8899731475867 198.38487312052962,709.9535048177929 190.96301455754818,702.0137369066987 189.23786205068006,693.5268392454652 188.33885857964108,686.020167894093 188.39356221701053,682.1193891238672 190.22255162102485,671.8798151808354 191.14806490382014,669.7413613653035 198.09639671965095,663.1430791312745 201.72807081168622,662.9505150577079 208.9507379033189,661.5192273026141 213.86634567138773,661.0098572948707 224.66566060095414,658.0856168531889 234.63279399267438,654.4347871312875 250.85960001349608,655.6337141260293 255.84849784769685,656.4094058797261 268.0693572793331,655.7420055361456 276.9356254616818,655.782765470209 285.72562391724784,654.5328915995907 295.33774020431576,654.024685048787 300.3370808042774,655.3073379612864 306.1133071694491,656.0419638008118 311.3129064129326,656.0309107699303 315.59049632374746,658.1501851151235 326.0723220250843,665.1482660495735 332.1757169659605,667.4406701665158 335.2893462182067,667.5398279257633 341.1749023151721,665.9436871763804 351.35132923290445,661.7845338302991 357.4309021286945,658.6235530154099 373.40242815060793,646.3882341585769 376.08234634197674,637.9273068881097 377.75403647150824,634.9857570426614 383.9119902148172,628.6972600951483 390.0337645232669,626.8399875349915 401.17866729090616,621.8815419797941 414.0957550543574,621.2523852901754 424.0393591632797,623.3746231594605 427.7816287138497,625.7937355477918 432.39809997823585,629.9893414327508 438.9150841177355,641.1203580316997 443.5946591578429,646.3509514860077 455.0482671573951,657.4935299146673 459.8301621039737,660.1139887175987 469.7842801839443,661.9591612623565 478.2452216198041,666.7147521564157 479.8849326684708,668.1145634517077 483.62205775848395,667.6211271304824 488.3852982711406,669.6589643874593 492.75653132068396,669.6759059888695 494.7069529144102,670.8547633418659 493.02831176423945,673.2369262254906 490.4528352816012,683.892832676599 485.28313247716284,683.3619851151767 482.4970252966916,685.9691427300759 479.3531122939641,690.2197349020837 479.66802007586904,694.163017478478 476.7902728860865,700.0799044042694 474.69835737828294,702.6544214936478 475.2401870325168,705.9579451153238 472.28482551122596,710.4675951142094 473.91987706528806,712.1129832236941 483.99731145477887,715.4116463531641 485.85670466565904,719.9197733063548 494.10669014557266,734.8927483496856 497.8590246454327,739.8629634641956 503.81166870161815,744.2369643430056 532.194986608504,755.5064255082198 550.6431936358035,759.9824095780389 557.4036530772087,759.891895860389 564.2492526914597,761.3471228738667 567.6158195593672,761.1783650778052 571.6065522764343,762.7823905682717 575.1065571224577,763.2154582235125 580.305765958292,765.8924853453469 584.2043643526766,764.5711329674454 586.948959309785,766.0612799985013 587.0880494218137,777.0241441673311 589.1267616972493,783.9783254404041 590.0469213772049,788.7890838139052 592.7571205730268,793.5580418182552 595.506634314798,794.8770571649018 597.6238073470372,800.2717124334777 601.3361581120502,805.1309910336729 605.458229868901,808.8065077734777 608.8937498294315,810.1185791905641 612.5764714294941,808.9631042056658 622.8334459914298,811.6251958010082 625.547871331174,810.825263588569 634.8691039664063,811.3257453313465 639.8395561342201,812.0803595730405 647.9268136911143,814.8573649978875 650.1070112313948,814.1666929859971 653.1474369204403,809.0936196616211 656.5987557442256,807.596390054843 657.434272981315,805.9295573374621 661.1811569266002,807.607852335368 665.4631289233391,816.079995643965 669.0818504393969,817.4921619837239 669.1684250072143,819.7466561385592 671.0140252991416,820.1488520129844 676.2626552073458,818.8530364314342 678.1082625068241,819.2550792970685 678.7740851651431,824.9069809940255 673.8476102245033,828.4340892925959 673.148325515921,830.5310295798779 677.8414317703455,836.4493141083741 680.1756257477308,840.2212233984719 682.8399298575724,842.562318358718 684.1220680639257,844.9366454660932 686.6094992640485,844.8768686831056 688.4343184830693,843.4428377584936 690.2957497193905,844.762588796425 692.2407949241523,844.0761344739481 694.2968123694459,840.9640787153646 693.4465492460542,838.406672564263 693.3658966578624,828.6836309387736 703.094824247175,826.2488043017203 712.0090984257089,823.4821260942236 719.4442955791515,822.3537911255465 724.2553754864934,825.509021338723 728.9324155342275,826.062596983412 735.0213052665084,828.6372514812796 739.3106238974384,831.8107010983565 741.8646136769333,836.1103964706083 741.4615128616875,843.6734342309627 740.3280734170095,846.8448568071776 735.6510827970758,851.4984224751682 730.6685079337715,855.3843289149876 727.7152767217194,858.3735368714994 723.6925214579478,865.599707822699 722.9160841279278,876.0413349127372 724.3245665623449,878.317364259614 733.0793199536004,882.8344183221143 737.5206284876061,883.6666466924922 743.3375471723448,886.2465079524787 748.2020468117178,890.1749961073829 754.6968488531106,890.6381555033272 758.4059337212934,892.539951102348 768.3966944889223,895.4357042786088 772.6615537177203,897.8272502276947 779.1841506498627,898.533364060007 785.633408311258,897.9569684791788 795.3207731952368,897.917707278119 802.7596076199274,903.2001555350705 806.0809204835408,903.6491761811847 809.0526463538786,907.0202938915949 815.9817140624024,902.3557924115703 817.2797918438785,899.6746875419922 826.8287531697187,902.1486727229769 832.4746053500351,898.3006979204439 841.0263101253033,880.8235518375603 845.2658301948125,867.0041634001924 849.1981520375875,850.156802408648 855.5224135926875,830.4846029864518 860.1587699009846,812.0466727933969 867.656916690659,801.6980798776074 868.696728202103,793.8755239983519 871.817303408943,782.660050832904 873.9486865589375,780.1198478765251 876.1616689226032,779.8505780256787 884.4320803577777,783.6961617637102 889.4561374713301,788.65874228748 891.833616533155,789.8079743311566 897.9692310761459,787.5852899502925 899.7165408648955,787.6361056145147 905.1729565120582,790.2703809453419 908.5498720215376,789.307605410063 914.5215344533538,785.5019593944169 919.8009151943038,779.1532566819751 924.5546272140903,775.3488450595617 923.7106449361746,771.1159947248909 920.5631150050796,769.5217741579197 913.1696698712493,767.3264620840238 911.2473072771201,765.8580303119244 907.8549583851978,761.1098908532731 904.8887968060754,758.9913483681693 903.7315637562092,756.8790260396221 903.8501718629271,754.1219721824912 905.6539098354704,751.4781652752026 912.9262739426904,745.0413304846068 917.0873181044306,733.4988821962497 920.4439025187243,730.0144179624047 922.5607289477937,729.1803547618897 925.4708407600712,730.9071999255079 928.5497074739231,735.2669455591596 932.9220659177006,738.5188782889384 935.4015510100136,736.4457369763359 935.3632400555298,729.3133105511715 936.2977413407315,724.2450894791323 934.7231016275098,716.5945949695758 932.920202819425,712.2971262104072 927.7545501394676,707.3486702046273 926.7298202527975,702.210438993171 929.2258127967762,699.5764816843046 934.0807570792994,697.8176624252882 936.2971943663134,698.6173807058967 937.1587524994372,700.7333200943972 938.4065795023193,708.3421667871039 939.2138534415718,709.9221587547679 941.5215925463009,709.9885709828404 942.5825923362619,708.5507049858076 947.2314540987942,693.6085811998024 947.8158493974153,689.5348142554824 950.8634888109178,683.7256153309347 953.7205028648185,681.513193106175 953.7171256506291,679.4006144819411 947.2878458771127,670.4675539558559 942.5790283179776,666.6517142129537 941.7837953056235,665.0096550511729 944.2184620321042,654.5070288023796 947.7141672295039,648.6958799780558 945.1641183238509,642.2729093924885 936.9913703772359,634.2167938865512 933.7569332646162,631.7809817753177 930.7500308102988,628.4066156841641 921.5568293541116,623.5353829942143 917.2813296467092,621.9642181291968 915.6878832462975,619.0438480445766 916.3020959696622,611.2863113182809 914.2676241144727,606.2666270977843 914.5834765756496,603.2530405614433 920.444808038985,593.7734431843483 924.316370883018,584.2318989046174 927.8945591328817,572.8679056876178 931.7017809382559,568.0550555493331 935.8769265142482,565.4839633856698 939.3086522751828,565.9003426767795 944.7972245536033,568.9155276895754 947.6558047992065,567.9017163238589 948.9002594176496,561.6062563173604 947.8198964242487,556.9290864287384 944.1468264806573,545.3540194605634 952.5352626106051,514.3145642186798 950.2375676386786,500.55556503156566 952.5420093164485,485.6378990864907 951.3912281529422,477.03782341243414 945.659128608341,473.58850208861315 940.4917981317336,459.8162395616399 940.4908067657435,448.34787534976095 943.9479093569213,437.1615670457868 951.5059879524731,420.66978801467513 958.278216506854,403.37395633475484 969.7137948426539,387.21731706939886 974.8395160922028,381.9331699318907 976.261362937778,381.3641062090496 982.1091920855254,374.4627400642054 994.9871963324192,363.5490307018973 1006.5827934855993,352.34818359188694 1024.0,334.89543767783846" /><circle cx="163.11888032661315" cy="504.02696209503256" fill="rgb(100%,100%,100%)" r="16" stroke="grey" stroke-width="8" /></svg>