<?xml version="1.0" encoding="utf-8" ?>
<svg baseProfile="full" height="1024" version="1.1" width="1024" xmlns="http://www.w3.org/2000/svg" xmlns:ev="http://www.w3.org/2001/xml-events" xmlns:xlink="http://www.w3.org/1999/xlink"><defs /><polygon fill="black" points="668.9220522473588,68.39518249279024 669.4917139308233,66.84114130961427 666.4209699544249,64.96666103632151 664.5143490301443,62.59714946541078 664.2535951545484,57.331080630853876 665.6879219167535,52.97641161189051 668.3570918556736,48.168608402744894 667.3497008942177,45.61149856376289 664.238195650525,42.3897334641548 662.0426638698693,38.06154651361203 661.465413989576,36.124547067707795 659.7566463925817,33.95828630647338 654.1666023668379,30.60398609370793 650.3690673455578,29.294384153444753 649.3665775940921,28.094090229962376 649.4199718967016,25.695725622536656 648.8999502174975,18.738948301694563 647.5135045308539,11.550344615679137 645.3513217912556,6.519491889380106 642.6862634647766,3.8058261912764237 640.4025248128271,3.2436900023279804 636.2586586954654,3.006325759159722 629.1840012957933,3.6573394568836193 624.5470741952446,6.451328719490789 617.917473619154,11.294714505956904 611.1974586825346,10.983950655417289 606.622138288581,10.02343213562915 602.4024734892703,9.784096196731412 597.1883489901786,10.591045119067871 591.3458392607055,14.031088795498022 588.9205626676954,15.070662476127268 586.9130692346286,15.232109221049427 584.9858480444558,14.350681451855394 579.9129023698101,13.482450114501944 577.8225167439408,12.042167211065475 575.172304289513,9.40896759049076 573.3769508661275,8.17031754654704 570.7384526926342,8.333900890855489 565.3727202344497,10.098496038183612 562.4431600650237,9.455918808657543 561.4301152743113,7.143153251244826 561.0640487410561,2.8191606866794245 559.4848603739738,1.2229776214310277 541.6569471093406,0.6537780149083119 538.3666693124735,1.1443836626547181 535.3008330149007,3.7056082619259314 533.7513823579793,8.507204212654074 532.7453283123189,9.856728991888758 529.3020569531193,9.226189419505317 527.5061413741929,7.712090595583959 525.3466345489464,4.444861728508954 524.045670892886,1.642875802891922 522.7630965806027,0.2902986228490363 516.0305507148737,0.3851227695289481 511.93657931343853,0.0 510.07798722402765,0.48524018301077376 506.6529041081591,5.292750056770728 504.0170022736945,10.7291092947155 501.8678031454214,12.735447418408512 498.8597339990373,13.786384696472624 493.9859287997315,13.55709852553332 486.7286753335801,10.029312565387613 482.1287774845521,7.565373998185123 476.8894998662724,7.101241386558627 474.3855044637721,7.752727585163143 470.21981758897385,9.489892657264932 468.14200640240466,9.414558857566703 456.3107959305769,13.78621432773707 453.0806316937903,13.723612874007927 448.3166172756404,7.983221538828275 445.0781027171484,4.564241837572808 442.9973339506517,3.8557129930794645 436.38456584109616,6.640150837514739 428.77064991218236,8.120530127240613 426.5553947171859,9.086187737840078 424.69462971361,11.569713733582375 424.69972189625355,13.416578347649306 425.5705400427354,18.44443402002196 424.79529908084277,22.845325786914145 414.11276788985134,32.08836376163049 403.0603991849847,40.45512633717101 400.623112471883,43.135834705006914 393.40926052422134,61.555028382403975 390.97514593845824,65.68501903726667 390.6228179089271,67.83899742746667 391.78102885132006,72.87852499066162 391.72362149597393,75.27809390116113 390.1435841212429,78.24224704356095 384.1287713859798,85.93330545647598 382.9749683942699,88.01848185495078 382.76155856995194,89.62225244816386 383.84164313018715,91.77264893821234 386.59553429753913,94.63473291547962 389.3436501334885,100.97818238419313 392.3665078189674,104.31855264984347 393.59566102589315,106.87815836182438 393.74140881689823,108.95056571001908 391.09224772895044,114.31684928030677 390.5971058036726,116.0751309176643 390.8238614653834,119.27967107017844 391.84436983514547,122.86191288028954 393.7064268029365,125.89897381363096 398.60354693299024,128.19464520891665 400.0583437160333,130.97817699994073 397.6289377645573,137.30484115323395 396.9920141311598,140.94165594290473 397.64446160197684,143.34074755085612 399.9559077743909,148.52147874337754 400.3196713820027,150.75798702174893 399.54131967800527,154.03723594526105 398.04087229639157,158.2805503017404 395.0463615802851,171.7591691617779 395.2021944134851,174.88357005297098 393.7763790294693,177.85004570088347 388.66276077598934,179.4661978030456 386.6563874872604,180.99279095701218 385.5116216914594,184.0401423692159 384.7419257866257,193.94993143631268 384.9709579709576,195.62471739662237 390.36605853247454,199.75809041552077 391.3840407540144,202.1467470114137 391.39273696083626,205.58861901959176 390.7568639618678,209.82011814857287 388.3951236762091,212.5942675833428 384.9401415042459,214.2074714053009 381.3423629971056,214.941763884446 377.1000022576999,214.00219233330745 375.653637677412,214.33233829146866 374.2148452094299,215.77572336909577 371.7850395595301,219.3786073559562 370.0029095314749,227.05599598267656 368.20873647161363,229.22556371392113 357.86336325945524,234.37926846117432 335.5894490693629,244.48387961100207 335.66451605361567,246.4053908715439 339.6345379631052,251.6582080473578 341.5832285103531,258.28587483624483 343.95955358672416,261.3985755203744 346.7051314706488,262.8323547380112 350.0745713335237,263.29567738698233 353.6079225424332,264.31926856859263 356.9942764335972,266.26448707600014 359.44854550990726,269.058310653597 360.96881206885024,272.4068200841591 363.9399090558902,282.7839826822167 363.87559228626395,288.7328716057559 365.54956958746754,294.40140093092816 366.2989514542431,305.1838358528994 367.87972240945396,307.0201096418017 371.5562707226458,309.1589455665253 377.24962365357794,310.25984911360376 380.13215138600395,312.20443304734044 380.28384089319354,313.7174425339889 378.8529863560979,318.28012996883035 379.49947015082415,321.0698670594413 381.66418169626274,322.98623288244414 382.6853515431115,326.4092398467003 382.26251242525035,329.0478046498921 379.8832138751651,331.4557142160613 374.99456255772117,334.67806144045585 373.4922575061082,336.12292255717466 372.27337477511077,338.4476247967034 371.7753610331399,341.96550828852344 369.6575190805355,359.83434997370284 369.87903509988365,363.9860692043761 370.68711119263537,366.29503216665796 372.9175966465056,369.40899135045674 373.068503875819,370.6049004272676 370.99214437174265,373.64748996307173 370.2758975547652,377.04338903512087 371.579355060601,380.7937664989165 371.43977137757344,383.8317243671721 370.5907160296816,387.99686984492484 369.00434323766893,389.8311026468358 362.83088481586594,395.5329756715538 362.1863388699292,396.7307418513002 362.55901594774946,402.80510981951056 362.4977342257034,406.4471251576716 361.34897427502597,409.242438614554 354.5174734475365,413.4212353519274 352.14687310822467,417.1909598035528 351.00592680188237,420.3127982754527 350.93672373746705,423.8228064790926 352.46535064305056,430.8472254697963 354.4971027527102,438.9143193533338 357.49595957210397,457.07864498815707 360.3181616227659,465.78075193544043 360.76830653272236,471.4479852502627 361.44838732042473,485.4666983022963 360.8814883304369,489.7045750711104 359.73868932049146,492.18409661878275 354.5496747717342,496.03376663855136 352.98285350134535,500.5923291768653 352.5647288213189,509.02691857114155 351.4935770235913,511.9049609566697 349.04625001515257,513.8347883001688 345.09152414581433,515.2875055023339 341.76687875658087,515.3764639276627 338.68088073980283,514.8306459503094 336.72609553080173,513.554242120683 334.2674654434375,509.72172136605093 330.7935726361457,502.30800699134966 326.4749436363678,501.83668577821595 325.03903464780336,502.6385410092339 320.44971970038387,510.4869257030722 318.29963307165224,516.6331503587812 317.3077216544914,520.8730683891979 317.89312915727584,528.1092403680833 315.9511055806477,528.9011485462128 313.28414689264565,527.3101604842449 305.7252695884222,523.5676377746789 302.76768008701725,523.5733963940932 300.4714310036037,524.2229034344009 297.30529064717354,525.9790982610207 293.27680183392476,526.3868213086071 288.535569158545,526.1602116960901 284.86340685046633,525.2047846635442 281.2017327028304,525.9680887448769 279.1197221067863,527.3232115763591 275.9578077206809,531.6388445604739 269.8592825622976,536.9924443875639 258.6538349622479,542.9490608042837 257.0002350138295,544.3861904707475 254.49903175558285,548.8431836261431 253.494001158044,549.9607638365868 248.78954100289474,550.9209657520963 246.95177054285196,552.1922497730437 245.8206291835773,558.0609088944079 244.31535547040482,559.7426306774202 240.79855742370228,558.9805414000068 238.8156246678209,557.5491907063436 235.90499633989097,556.6227553794449 225.12344296985404,555.1226288212815 221.0692612116664,553.6042105553483 219.66508680738568,551.5580296299457 220.30385229837282,550.2465754338017 223.45464288945269,546.2491912874825 224.28403230672745,544.6611823145636 224.03258691970777,541.8567118375142 222.84075245746266,540.937084330329 217.7461525437333,539.6133133402093 214.28895232986744,536.3423973059831 211.99141016624523,535.5371595217366 210.83679002799738,535.7836893602289 207.11278261690322,538.0096854504504 205.24610719790186,537.930500966321 203.6598756056831,536.8887661818682 200.27945162609427,532.0918653701524 197.8325519145367,530.2632103209814 190.22157919259087,527.8148956760359 188.34517097791635,525.6574161427304 187.7703174180373,522.2190942629576 188.3418149988141,517.8267488232527 189.70460250324047,514.632398129874 191.99718950621522,511.76350805515267 192.42403997257225,509.35689010569183 186.96249748124674,501.20624799212715 186.96105728962692,500.008647108225 188.38971946942024,498.7385522589036 192.8394060816852,497.69880386320665 196.72548700509842,496.4255658588146 198.86491697798112,494.7434781340909 200.80451842978903,491.95791758284247 201.58257379551532,488.5995356216562 201.08547647544438,485.7653937525374 199.2092988946102,483.51685511333176 192.81785211217888,480.32131970987757 191.23101051527877,478.2465236409747 189.21909737396234,473.93080135212256 186.40474271783341,464.9793739848608 180.585986509887,456.5050141988439 172.01949722372964,445.5566350849383 151.89378268035108,428.4096767004852 151.3925495682407,426.4980745099699 151.0292580503393,421.69982184510627 151.73249579363946,407.4802156848493 153.44693544058003,396.3298317115391 160.8326323512423,378.2818814896144 161.60739833851636,372.6862968575392 161.67608082925835,364.65946372241615 162.82054235314496,361.7023217592307 165.0462017620703,357.38444922383655 165.82425029078917,353.94862550445157 165.6096956469951,351.2283529560249 162.43909582749976,341.0070330463659 160.93158651509498,338.2078106816424 153.7510316594004,334.28883768956007 150.9439576754598,334.4440347033852 145.8503504749645,335.4927727024582 140.60631047643068,339.32050645589504 138.09465876121192,340.28495724216134 134.49949170354753,340.2051216127953 132.4951526121481,340.8410536701409 131.48204657802216,341.96741292524246 131.48463953509017,345.0036492134536 136.38024069445945,350.5928192513097 137.17033241273404,353.1479457646477 136.67638816722928,358.98677464983643 135.9540885163837,362.57754520048275 133.66684301078618,370.24837806042194 130.29160170731788,380.75490412067643 128.78774923213678,383.5583150873533 126.05784160212782,384.9201374802374 123.82730252796537,384.99407576383646 118.58239682128786,384.20070255205144 106.41279955635767,380.8644524904829 104.1883788557886,380.8659780379588 97.13861378657543,383.3556534260143 93.75298729237149,383.35776216268675 87.91840405424338,382.3391700161268 85.10409140814356,384.3345170131274 83.1001007813609,387.0152798828858 80.00089538017394,396.693099828575 77.48873100058654,411.23856474961826 76.12854449976693,422.3892647412264 76.55374801148103,428.3022430388744 78.07080074085734,434.2867910376517 79.37899726594705,445.632078175498 79.37673541218471,455.4225022764913 78.94279744941777,459.0141792532811 76.43048554222806,463.2519798536973 75.34707420084645,465.73890607860665 75.55992625208958,467.8876820843948 79.31582539326371,472.5210469545742 79.75374510673664,476.512373350076 79.54044642502956,485.41556276206416 80.54428655534748,492.1284056045539 80.18543752445883,494.28835663340385 78.53212452349574,496.048868602035 75.43374957929443,497.49435148890086 74.42036203614227,498.4556493676225 73.99884675387727,500.3706516815163 73.71522312086067,511.4757912097407 72.7011581423301,513.7993437497184 68.37096763740908,516.4428619183425 67.22422937739988,518.0805408304197 67.01325104132371,520.0866079296164 71.55330975665524,528.6215016720224 72.13351504543091,533.1666471285371 71.69834721345855,537.5693730203109 68.53192837960648,544.9210582843215 62.40917358573006,560.3113874068081 58.647176919600376,563.0469296793342 53.88547970032221,565.8535063200695 51.42773325364856,568.2604287596512 50.06175764529922,571.7012365947656 50.20348393362213,574.2515112533476 53.24929695115282,578.6325587441729 53.74978834124977,580.4750359961224 52.94673294771784,582.2376791764916 46.66969426435236,587.769065693682 36.777961078457174,593.7420612119829 34.896546190466914,595.9131401315224 34.03687506041713,597.8281171491885 33.60957811849623,604.6190716060513 29.19871749424002,611.8191285294121 26.171332722558716,628.0537633397855 24.00057443325825,632.817249012235 21.406720383917584,636.5777914700734 21.40760075091658,642.4881268236502 20.316269772409246,647.201037271334 21.18322259036036,650.1513136367296 28.629520870656517,658.918226529013 28.99032153051291,661.1527289882958 27.615544739841972,663.7958314757007 22.927560041764455,667.1267273176078 21.33428219361973,668.7246492830668 19.742385816504942,680.5482274691244 18.14920706887152,684.226903011169 14.751275039524112,687.0347999818705 8.391582585781004,693.9322930879143 1.3816833699082156,707.6135211928388 0.07718215447660137,712.1738463087855 0.0,716.9600524391813 1.093790878800577,719.4300252150474 8.033047030683507,723.6416443561236 10.925709253926186,723.7952115043217 15.770455978089135,723.3742276893372 20.18590290685826,722.2468619550434 25.524843719576715,722.429738276094 30.003101189796148,723.1256618384407 31.82295772976178,723.8438248342632 33.19172109584755,725.1962362801094 35.576328155632275,728.618288960801 37.31917646291103,729.9705746948237 39.695829481406136,730.5238413507884 47.36315449303067,728.7484110849036 49.606054751555575,728.9735998590013 50.83260919089486,729.853681016006 50.031311053971194,735.645830978156 47.36730698363468,742.0427939630001 48.01685936119048,744.5942276385506 49.09620393270875,744.993979252201 52.20562542639597,742.9842945834037 54.51971678116021,742.7984055506674 57.69423201326928,744.5908705310775 60.70111589151228,747.172644741862 63.4729141582518,747.4899661531734 65.35583223783055,745.5213528148199 66.39854023762618,743.3271770701476 70.65751885122528,740.1993504622383 72.90018711785912,739.5205890512921 75.14341157835462,740.0216737614749 75.72261991773877,740.7807581961936 75.72491623987965,745.455359402692 77.37707414410906,748.3246215645745 82.15221424865746,747.3790691453535 83.95180345709376,748.2177610306971 86.09029158709892,751.9589868513083 88.03058697628983,752.0803737882302 90.52600622015194,749.3218055434412 92.0710311040195,748.8799718554412 95.21084773548209,749.1951583741993 96.95310375925273,750.3834824474634 100.33394339793108,753.5290333884652 106.1520116258121,760.39349174636 111.45372538816802,764.8793002838527 114.33916274518678,765.7182263323007 121.04907527135154,766.6249409857505 125.66504438081796,768.7034228918924 128.944686121933,768.4544286285103 129.6996202510948,767.6944362951892 131.383104710291,764.0853550799033 134.125449628988,762.4418097626935 137.15244059780318,762.3684145106722 140.6778920937866,761.4834327907406 146.6616129179465,762.3175899416185 151.72594742307655,761.0825271124845 155.4020244959647,761.3048227086779 160.11612099281248,763.0937014509127 164.4846673760826,765.0991826588831 167.58190634168105,765.3013903433523 171.02446729681222,764.9792243174716 174.69212732015941,764.1450438064917 191.46089352494997,763.777075246634 201.70843441487722,760.7907192686171 205.08593002487973,759.6078220902789 207.9995215698913,760.0952641217427 213.1820174499183,763.1747803501044 215.9566242191817,764.2066160016658 221.7406553959122,763.9726503298809 230.3352836275417,764.995911853133 243.03225272530622,764.0432283390517 246.67131297448321,763.207424401045 249.00658057829364,763.1738038014495 252.50037360183265,764.3263403064755 253.6817237443788,765.9642983815012 254.5201445042704,770.1762245237952 253.59101452038246,775.8893304581413 254.3297740983735,782.9211513151281 254.07370445887966,786.1509248809692 251.78340357617435,792.2662986726998 247.32919129313737,800.1677940917419 247.04342790167644,802.5674630859831 248.78432664803213,805.6824823504339 253.54147500137722,810.6284722483271 259.0196008256283,815.8589190718033 263.26541136466346,818.4157657941439 266.6535990508273,818.7380393727194 270.3137193106551,813.7795865646917 273.41308545992825,813.8654184858228 274.4954235617415,815.382272278681 274.3621070597632,819.8529733828047 274.7273104784326,823.1238756640178 275.73353329531784,825.2763802972279 277.47174085481197,826.401494293621 279.2702620903854,826.2336537450285 282.14071670894947,825.1112676603356 286.74847145073863,820.5590000591615 289.0537825790026,819.1190690921738 293.0183060481649,818.5578767043235 298.28189314497985,821.1023721417694 301.96199279876834,823.2183354894394 303.7621559283299,823.2965322829045 304.9888347021918,822.4939712456783 306.41724122715283,816.9020872732779 307.6429175151101,815.6177563332856 317.0041317206308,813.6000952094337 320.7565816064477,812.6385357344573 324.5765999808817,810.548579826079 326.5172201669581,810.3812703189142 334.02938815237786,812.0367066467222 339.01153090046034,811.8614168503145 341.24136362425315,812.1029308055424 342.9867047866635,812.9714718205315 344.14173871258913,815.4498417244477 344.7226303664615,819.6332784987169 346.68666607635316,823.3822825078914 349.64973711777725,826.0838984534173 353.5625232754238,833.6648072328635 356.2373888161851,836.8473355959088 356.9672670512932,838.3644279488091 356.53508623045377,840.4366592822821 356.12370808555,849.0233582113253 356.77741244286426,851.0223718580519 360.3229682786745,854.8397524849734 360.7684345620257,858.5933922021982 360.0515334038516,862.8314297595753 357.97589324619616,869.226805899321 357.9810488631333,871.5048962035249 358.8482716179856,873.97427680248 358.6419112418221,876.6121160934665 357.709782376762,879.6408061979184 355.61728398690076,881.4092128006741 339.16348314558365,886.1035989301884 334.7576894571123,885.9483179346611 331.3694443480848,886.3555472085665 329.70469835035664,887.4055336009162 327.9802847925311,889.8818154901356 327.26021775632137,893.0840670870964 327.7036620793812,896.1927304628526 330.0275358807797,903.2984283520499 330.5422605516716,906.4055719512394 330.18740155437644,908.7265882882293 329.0388414119941,910.1646926349938 326.2965823969851,912.1300141359063 324.35364965117,914.7713618701746 323.9210695255689,917.5633791177178 325.08701094834447,921.5524016581971 327.6149404318656,924.5029864285136 329.0673119094427,926.8188856788585 333.26036379399454,929.201155087247 335.2148185600469,931.9895217626137 334.7796892152897,933.5091643034395 330.16832885703343,936.6787622956542 328.87363353200175,939.3909295716563 328.4531474986044,943.8676723112598 329.0439449941236,949.8596738584997 328.1094927084368,952.2526407205728 319.115519496007,965.0099902028066 318.8179790291778,967.8942432736474 318.03817619090853,970.3698452278346 315.73345250894135,973.0839138644932 314.9403561475289,975.0873084979996 314.8051843961984,978.7632448408582 315.8964462372059,983.3907004623699 318.5749615328718,991.207529293078 320.1762197714119,997.0763853501287 326.6191396207422,1003.7681774743347 327.85335835194405,1005.9933480691108 327.9325139988008,1009.8226203027506 328.73652758979625,1016.053654322849 330.5955464622831,1019.7458652838394 334.92256964606713,1017.4995641818306 337.80494997675237,1017.6472378069376 340.4164596667723,1019.2324987810272 344.6155700969945,1023.2175452419084 348.3766397220866,1024.0 351.1242003191101,1023.6768757701926 353.4234532938868,1021.7516183015734 359.6274285855693,1015.1756702278101 360.7779150842651,1011.6620601200647 361.0522201877859,1004.791843814864 359.4555915552722,998.4103315490128 357.7004830761253,994.1425674384213 357.32783442079267,988.4768001189432 356.2415844838192,986.0868545320169 352.04225637092804,981.7020146737142 350.2988852053993,979.2427200035511 350.5784902583192,974.601577618313 351.74102041121955,973.2449511489245 356.2053687235792,969.9498795146101 361.2480719670052,963.4607854764532 362.62238618338216,962.4220353469269 366.59163716368704,961.929808452312 368.9047657726933,963.2689786720543 372.39317367180877,968.7736805380074 374.20453123835716,970.2786154230382 379.48946240843225,973.4572888343986 381.8781438573566,973.9237801182074 384.19452569795124,973.4364467838654 386.6469003999512,971.3048270791701 389.8853805108299,966.7393775590297 390.6071177903544,964.5819956411697 390.60199089460156,962.4985258611899 388.12314350469507,953.7283931510324 386.30439094749164,949.6692887256004 384.91143852592387,942.9186986875934 381.86492413697795,939.3442634257515 381.42125235956047,936.626320202158 383.4492083619217,934.384164303211 391.3884372036041,928.8437254308736 396.58972053858434,927.4549626815689 400.77858058595683,927.7628741420232 404.04223904083017,930.6995147727833 407.22601289834824,933.082420400244 411.4285230082748,933.379132068224 413.3031845870851,931.8555270661394 416.9530582964722,923.2466267347764 417.8965119253552,922.0438538103128 420.5028978946626,922.4370605334607 424.4112884398267,926.2438978988471 427.6000796852486,927.6724153480761 429.5500675375996,927.7487992648325 433.0151992211247,926.9282976718425 443.40866506467313,921.2152113415041 448.5997654329368,918.6353631248562 450.33815201586515,916.8653795075245 451.33507449685004,914.7069159045636 452.9861017423354,909.0273467262177 454.995523032553,905.5023604429841 458.38332701041577,902.7735646060318 467.75754677033524,896.9488304469667 471.2956460659631,897.0104786920929 472.4485168093581,897.8888993510013 474.7790770781548,902.5919523177753 476.2248421522587,904.5064611857454 479.2616334573097,906.8067304585624 482.87236848788865,907.6667435965607 492.47099566120085,908.2741262945962 494.55824878077493,907.5490857420301 496.072119565501,906.02561149779 497.3619676646121,903.1487440274515 500.6656107749266,898.111237082458 505.83578922599315,892.1844960210734 506.55759418870167,890.2633393681799 506.75977790444904,887.4619846189788 506.2454554471078,883.2367065752194 506.44917255322525,880.9171001908254 507.46098993827144,879.118850308366 509.39082643317056,877.675559645927 514.7965126994408,875.0315737606493 518.388860284088,872.302162594645 520.2589244240971,869.9049455944335 521.830831555526,864.9447631893304 525.6831564977657,855.5976484496085 527.8934993657235,851.9185989301675 529.8340819127941,849.4393689539193 551.1671633506529,835.704478730831 555.967165595496,831.7084148862571 560.1290250257211,827.0680295208649 563.7187214799645,826.1829462187318 569.4604711429868,823.5480928511521 577.995510301564,818.1021015188071 591.1862635066171,808.7107205698035 596.0683529804571,806.4673114876078 597.7754255427959,804.634524685693 599.3530492465848,801.675371385423 599.8374999984658,799.3667841186999 599.5492609127269,797.7674403060754 596.7303085153795,792.9795120324281 596.7209477038219,790.4985977087491 597.6306350765204,784.8242231614319 600.993474295805,780.3925767853331 603.4871920275401,775.5232360436386 605.2796606593558,773.9989573196517 608.0782821894153,773.1988823274653 612.6018938856258,773.437268852192 614.1256734541857,775.4006092118989 617.588187219918,776.5561518772405 620.209190763632,781.1390018360664 625.6619511584001,787.9561520177234 628.8167130025291,791.5323909170882 633.1936884806748,795.4520774561965 637.0690366437368,797.5296175858971 640.4464929486772,798.7258422039038 646.6960587074427,799.9102838741137 650.7830965473061,798.4985807352693 651.8499494862832,796.8842156174682 651.961223031806,794.7103601717613 650.7487655642321,790.152169892132 649.1671131557096,786.1902099544354 648.6243783871481,783.0759164395165 649.0737436479302,780.776829287492 650.6338717557423,779.2216835049733 652.7110002855775,778.1066897295538 656.2157934148952,777.8349689487662 660.8331641503931,774.9142395458297 662.7665069282252,771.7174888277086 662.5173941005595,766.1319130404812 660.779771127857,762.1407711285885 659.1221066116032,760.5377112915892 656.3227067754318,759.2673646390217 654.7302614060649,757.9933343520556 654.0766553507783,755.3612790880843 653.9743917293779,749.3232501562136 654.7540882789324,745.0970481886015 656.7495823724712,741.572113315637 659.6767746052476,737.9820191705435 659.6703964693212,736.4550773457079 658.6651271105275,735.6604047984838 653.338451913143,733.7554502655655 646.118731055184,722.335625825893 639.9612094526311,710.4402923170787 639.5911040346547,707.7675562181817 640.5142015405427,704.0947292950791 640.430464354578,702.4959697705766 639.2754092142352,699.457602633106 640.671157978109,690.516027035537 640.374326075017,688.6718013758511 638.8589121138558,685.3273203526021 638.7729783171552,683.4835974273267 640.6201877196062,677.9738252413265 640.6094395917647,675.329563423089 639.9505894296251,672.781839029039 635.4025583843829,665.7914040355178 634.1011798078771,663.1632282589794 633.5852757247626,659.2417127233388 632.4332388062292,656.848365080273 630.6936866296282,655.5746955565671 628.5414676563888,655.0103439267584 622.4479891839912,654.624903522049 620.3583639360829,654.0697203950141 614.2453503392017,650.2313410027086 609.943142443902,649.9200804059901 608.8539977905518,647.1983373103066 608.91117818804,643.6025168288877 608.1840107866003,641.6074700658777 605.5935974737262,638.8928590350743 604.4232590719151,635.0962558325871 604.4860715720945,631.3479874711467 605.7565397826779,624.5506481730824 604.6344975479519,614.8038202872274 606.0418723713988,605.0989627103155 605.6733390890176,602.9500919131738 602.9962605674027,597.5941823107845 603.6407706106521,594.7241983254772 605.8520396266518,594.3155715128302 608.8634850753365,594.8782524781377 614.7581698992007,597.3540032872029 618.9161791657499,597.5009995048541 622.3500749735922,594.2511075983862 624.8642611150949,593.9240312220857 627.1505785330995,592.6859881940827 628.4623310184681,589.4961268047318 629.8576945015109,587.6165123431402 631.5026619292437,586.5755881264348 637.704162653329,584.9323725058064 639.4896088692587,583.8077747782097 641.4195638742282,581.7734497797765 644.2022863168515,576.4774816210054 644.4740640936786,574.0388974916575 643.5725262082418,572.281518327672 641.5602891613383,571.5316982700762 640.1186764546605,572.2139741094228 635.6233750372717,577.5671649074623 633.373148622424,578.569748310637 631.6086489883039,577.8909325007647 626.6116350527195,574.2962573788591 626.3558328641944,571.9006419059008 627.6314986584491,570.1453650767685 633.1049811467227,564.6237832242725 636.0234972504225,559.5955101414861 637.9433509655062,555.4408890131904 638.6846726789682,552.1811060307789 639.207469185705,547.3053905946956 641.8046213665166,544.9920506687864 648.9010608664934,543.6617924872312 650.9771942027526,543.0598159118379 651.5467916719176,541.2963694377821 650.6387329496694,537.9426471751316 651.0233560588201,535.586589214413 652.026693027709,534.7522363806277 656.893048086121,532.4496034181489 661.3324156393572,531.1611740856606 666.2815512818771,528.7966523716339 670.5061543390075,528.3077589866978 671.9382333925366,528.6690925198144 676.2254467539395,531.3440245380299 678.2362848865063,531.8470685439121 680.6442626227933,531.5698916151252 682.3529201283197,529.3318440073801 680.6147764867629,524.773346627725 680.6075370079012,523.1048308587172 684.1689048467157,517.735283856104 684.802646000949,514.2212147265894 686.3697685410829,510.2022207474578 686.6789196684957,508.36899945579114 685.9293145356568,501.34013815381445 684.3475467390668,498.90002338654415 682.1858869030534,497.4150990521648 681.5998863595587,495.289087725217 681.989316354775,494.1713959267953 685.243858561359,491.04601344207094 687.9964646011456,489.36539766443923 690.5580962414829,485.7625155297052 691.6548707870022,482.08304227012854 692.6912607540644,480.81955982961506 694.3439936325784,480.2188571531749 700.5206572974315,480.120587699916 702.2090584863469,479.8367499706238 703.8517283886514,478.64124341752154 703.9942679878333,477.3925848865622 701.9368588753533,467.7306962178087 700.0782089772631,461.67176584957804 700.3542634075783,458.79477815261316 701.9740121047811,452.53517195607674 701.9313519509803,450.93893067320914 700.515931441407,446.2281059218652 702.8260102430592,441.6244272072769 703.3864019197038,439.3912554257762 703.3427929949057,435.9536036877979 702.8664457190938,433.4596977676257 700.6828014985351,426.91090569390883 698.6163751121094,422.7255922511712 695.438042974558,418.9344440481822 692.8038494372919,413.8927985553629 691.0370215248146,412.3354852725573 687.56057123202,412.46377762204725 685.5178142600615,413.83237375957924 682.9107817373214,416.59569511552536 680.9110869501488,418.0375335780677 676.2213750872893,419.24330533170325 671.1592042202785,419.2351783199963 667.8671353543062,419.87260640965314 663.8109167173847,421.2821649062852 661.2026665633906,420.4031375775953 659.8984906114008,418.20930579081573 658.9060235568599,413.30307814966716 654.2995983202497,406.0493557325168 650.955528830392,404.1402590379048 649.0690370677496,400.7511023441966 648.1974052265736,395.95862762731974 646.1945592563575,388.36721084091835 640.2877076779723,380.8639590192222 637.618023019208,377.02875361408644 634.961738715553,374.35028332994614 634.3840833907674,372.51122484412906 634.1511077870002,369.07569349850974 632.6997281619916,365.0830205084883 631.4581219527109,359.0956456277969 630.0970953618511,356.53433579161845 626.923524588607,353.1827745878851 624.259434007027,348.7144670769984 623.5230567857847,343.84101090345575 623.7996476870983,341.11929824898857 624.8630091412067,339.36617528097554 627.7979844308842,337.92398857685293 631.5867226415535,337.0798444662066 633.8028178041519,335.1586644970648 636.1476461462108,332.123638794454 640.4309720345134,328.44504002869166 645.2163170641813,325.23514322591643 648.5825482421908,324.3623850501191 652.2350338938235,324.67514014512096 656.9009532165521,326.58679036309286 661.7093541155166,328.89783033236904 664.4322227500286,328.8971354541436 667.3606624134234,327.7699715894054 668.2871480450739,325.60882682069723 663.6702776628434,318.58405126120306 663.0921304731512,316.664788806347 661.0114633185119,315.47731591172476 654.9164848641286,314.838890745139 651.1956213796666,313.33017603697 646.3064837394761,309.9779982634675 643.1378216067877,305.901332825111 641.405814620576,301.9929009786065 639.4614963730527,299.6708785523683 635.1380799660205,293.3300187628813 632.1089220861055,287.015094031579 628.440003361674,284.21950218280176 624.352256208426,282.150915933012 619.0517481338497,281.35413734258486 608.0501869909481,287.99015015148984 604.2698349494713,291.03035070055785 601.2694696400013,291.8299825208795 597.3320215742037,292.2330254079628 593.2430774517537,291.7165199365388 591.3105817725327,291.9593249138197 587.6635013969751,293.1585569836708 584.5847817668825,293.64105234519843 582.4459217754547,293.3224356877013 581.6471339493021,292.2815487600743 581.6265821295796,286.7832500305899 580.854226094946,281.6756378412515 577.2885082807744,276.0870970779263 575.4911687439451,274.8062658866288 572.5531871261508,273.57044744226744 571.8266023355159,271.17098237918003 572.3919949070548,269.97395725614774 574.7187699765376,267.6340063719157 576.6483825474039,266.35978396068117 587.156603459391,263.192907350861 592.9579431026791,262.7938973739316 601.3977830496328,261.12557157128117 603.4330048809708,260.04522480314154 604.4380843277162,258.1713176227008 604.0453146917553,251.17189778309137 604.4948219553031,245.72345379003252 604.0141812754554,243.16120965124094 601.9655681130945,240.72617445224455 598.1628585322079,237.368317068274 594.5422053123559,235.86062391228882 590.3537719449657,236.43868705017405 588.4528573393294,235.80214957827513 586.8440066423743,234.16279551899743 585.896776758283,230.9680380794482 582.5049654380938,224.8917134543508 583.0368818655382,222.33513227124047 585.7502665874767,220.3215365598536 588.6774878786174,218.95219298546328 590.2821557609306,217.59735410216365 590.8879857672604,216.19594588743598 590.9830830222132,213.2422222621699 590.2196720554148,210.48638689176641 588.9687146162539,208.72456497707958 586.9182798976566,207.56731907115739 582.6527474429163,205.96924982991504 579.8523815745483,205.25432756107546 577.4915177886382,203.7415380902255 574.5745951519566,200.2478031935052 572.9228530820786,196.45401156650485 572.2660127215995,193.65686732756808 572.3353181556737,191.57292636165107 573.2406206085532,185.54308870762532 574.4772082413104,181.54398414892012 577.0391929032835,178.7457850334173 581.2629493475551,176.58507309191646 586.3982757821279,172.1846736983896 587.4584026317735,170.1064935190675 587.1960221565768,167.61549288754713 581.8834267560459,162.1819932147347 581.2374549129692,160.33617637959412 581.3636219532768,158.46568578970505 584.4130597821542,150.9278653358126 583.691736272215,147.88737927564955 582.3674049286547,146.93285569759598 580.1855463883428,147.97132325799237 578.946257640591,151.13212692981506 576.8760085292718,151.65022591423065 575.4042639089196,151.13579631617722 574.1055162705935,149.49516278023543 572.8406748514992,145.7829469263669 571.6755834157161,138.62837426821454 571.3660670788157,132.5539939609023 570.617723763887,124.08177521574953 571.5281158422434,119.53401662576766 574.3224367772798,119.04459733725139 575.8318416376691,120.5701214107437 580.1579509442921,129.1922772522271 581.9511754191818,131.43256874762733 584.8167632134246,132.9433768705237 589.2547573880981,132.2215491567065 593.3860452622679,128.6222365139688 598.67220612574,125.50694989988631 602.2383121548243,124.6261546181147 607.4673572479428,124.77857322151112 611.8971484693596,125.77236058056963 618.1278478202092,128.64792968081974 622.0848974225964,134.16596277782912 625.5337718263861,137.5124130102464 627.6840335016722,139.03485427643523 630.763816726913,139.59396991098265 634.0487506805405,138.63057155537047 635.6936920725489,137.2668983104918 636.7538037066546,135.1066961979741 637.0897445771333,129.75516202793096 637.7228244574561,126.55688977710952 638.5738155798306,124.95963197768754 644.8453321011082,120.79886755830853 647.6989554268285,117.59128245629245 650.5372781652956,112.51502413997707 651.3050997294232,108.0394789785172 650.569607463479,103.64238851703544 647.7459685391615,95.26217008550134 643.4937572775034,88.07193992163809 643.4232633378364,84.63156608152667 644.1931251112227,82.39355983052985 646.6144112799518,80.22895224556328 653.1112797183599,78.15058177578862 655.3947937687008,76.66012252794724 660.4388353581827,68.73788991334038 662.3659277191022,67.61768363734325 664.9767491862615,67.04436900365647 668.9220522473588,68.39518249279024" /><circle cx="381.533973068675" cy="641.1965060378459" fill="rgb(100%,100%,100%)" r="16" stroke="grey" stroke-width="8" /></svg>