<?xml version="1.0" encoding="utf-8" ?>
<svg baseProfile="full" height="1024" version="1.1" width="1024" xmlns="http://www.w3.org/2000/svg" xmlns:ev="http://www.w3.org/2001/xml-events" xmlns:xlink="http://www.w3.org/1999/xlink"><defs /><polygon fill="black" points="631.2153734051334,88.57388140933097 629.2832193638058,86.6668814796052 629.0326945020349,84.9632863178872 624.7904941643886,85.5536167700202 622.3191691002122,83.68136214790263 618.4961893550441,84.10943617924829 615.8583013149195,83.25566411075818 610.7678033280906,85.29103354763902 607.9553072872825,84.95594073476877 602.9380353931238,86.13358166864032 601.8369884031537,85.96752557909724 593.5851369279726,77.7437349432663 591.6875782409275,78.12033514235225 592.0208877124008,82.77277878518873 587.9751489929647,86.41933045111625 586.3367982139921,88.75470241670803 585.040135673874,89.56922578811043 582.0356876927136,88.94147275873229 579.7758223010738,91.4666514287619 576.9600132056271,95.68102769089228 574.9388315106497,96.58535291732608 572.9402205937292,96.84353897300332 570.5370308016448,96.18102506809805 568.1555292720694,94.81800224375627 564.4673329497041,91.16513052439007 561.9187953700854,91.17530073396688 560.3906648012035,87.80227827694853 557.7573489904996,85.62748297455846 556.5354455741347,82.00173293476814 555.0077680756987,75.36154410029815 553.5994636052432,72.69082247286894 550.2543844981243,67.30079852020333 546.3511208756036,67.46166359220467 545.3840723037473,67.10369011473983 545.5353301891249,64.71879270542968 547.7001605290372,60.1211826646944 549.5113623608838,57.67980028863087 555.3609999826834,51.010508978652865 540.1067684453096,51.42555659657535 537.6570847097646,49.96947056802583 535.0757340864338,50.825810824372525 531.581278778896,48.02083114274808 529.6472912676887,47.41328770740631 528.0346674414994,48.071992982192796 525.2469819695142,47.243993919732816 524.201624397659,48.686671490423464 521.3724057794733,47.93088719737375 520.0545095490824,48.90755459147124 520.6156337343481,51.7493849145925 518.2484235967612,52.64983604307292 519.2583212934002,55.08413098767153 516.2840587192328,57.62951139541485 514.9672909461701,58.243776706880226 512.4735004539847,57.61577053132339 512.7568508050392,61.09375015205296 508.64407464340445,62.75308244230882 506.12247141989,58.44857636207803 505.3741239031769,54.223040427931096 504.91133196768817,49.71773962517432 502.9471376764208,46.47203188558274 501.2653159787531,46.57446257659126 497.0953227764175,50.124828729818546 493.6386853257834,53.62490399495084 486.04640429793824,59.236109829963084 477.7671790364571,63.13498142528795 466.6785117074,66.02078675853795 462.1730063848556,66.42201730134082 444.81134168488416,63.50000077209893 424.3578150469164,61.634548063975785 413.26659296804775,58.29122264059731 404.5963380417781,55.93941545118855 397.2786213143054,49.79021269111638 393.4165722611934,43.60279407411383 390.5781826273497,34.29947848971619 387.06325467105074,26.040553595598908 380.7699304646445,17.44924366180601 378.33032448401576,14.354199028604171 372.413843464171,8.184384307131268 364.76576253806377,2.015959682144512 356.46657124066695,0.0 352.8605304759809,2.063236665470754 350.9454515427902,6.091896359917428 351.36656688749764,9.3129594453153 350.0709552689917,11.717295006196537 350.7619778792025,13.757614293923211 353.66612989943695,17.539690757388826 356.0361732889959,19.988794529856477 357.1528339072441,22.68802598133186 358.2569671140189,24.04951437833904 358.7918848430566,26.834797239418435 361.2210149486248,29.90459530388864 361.0671441540234,32.17753056886454 362.5474022491176,33.57713321504764 362.38867693875784,36.579266439745425 359.07392664835976,35.52502348519283 355.8024746617607,35.643992206164626 353.43615787880344,36.15105724284308 350.7884899430201,38.03804147771609 347.48180410368235,39.16659800766968 341.40549319289283,41.75538192523834 338.82008742644547,43.29664649784797 336.03631008856803,45.66564711744991 333.48397799900454,46.571336656660264 326.8015888795383,48.25462835729138 323.23659447090296,51.811727617389806 319.91563600201,53.51302362844308 318.44052861212907,53.09568934743788 317.4606023571998,51.50647959924095 315.63756455225115,46.0278835691189 314.87793045946745,41.57430532162448 314.94290017280633,37.13439138991305 314.0315871028107,34.39054007727418 314.21078572052954,31.47161733799146 313.3042240193113,29.529480178826475 311.01437883073595,32.936277433718374 309.201054237972,34.59134420038242 308.0092012607625,34.63895620689152 307.36373742396165,33.58901742949388 303.28652502483146,33.8209800210758 297.4337354020892,34.888036125378676 288.15654045775887,39.42840431373338 283.7272637377035,46.016751815857106 280.37174724126237,56.74357719319869 278.6984989731092,64.00477698184613 276.3506177307886,71.61672006478841 265.77684721823533,85.84317082009625 263.73731289295995,89.31685955501075 258.59712281915,93.14593039749855 255.14951804475558,95.25499783229657 238.62803563587084,101.23149102302955 232.4725339926763,108.87710095661794 232.55257941001412,117.17239553448508 238.12049508268743,123.34515757903591 243.6706206562094,126.06611876405259 249.91829525634685,129.82078562190918 256.15823194318875,133.22926917515372 261.021793978601,138.37727655846095 259.01769199378276,145.98787447137818 251.43326022091514,147.07039048350555 241.10159875876496,150.25628208554315 234.92736073964767,154.1063321292496 229.42929074958747,158.98096828057044 224.99786415795361,165.9306152906131 217.12516425088947,174.97130386505307 207.17196636203846,183.68959848278257 201.353682777458,191.6858560084844 194.8428584054206,199.35250176452087 201.4347576374904,202.393770621076 206.26686024641276,201.6605492783509 213.17361867480545,200.22211410049044 219.7577909107711,201.54098020100878 227.05616483974944,205.9711327040792 233.32054914100735,212.48217024769053 238.24004079072202,222.12009079705513 242.10521939797917,230.72146222024423 244.96742872753538,241.4043991444862 239.50431180262504,249.73113769679628 231.91174503895542,250.83186639848225 222.59969573130243,252.6229441658835 215.38643609989023,258.2194726415455 215.77905337764275,263.73873205162363 220.30324440161968,268.1903385830809 226.55062243769012,270.21004284016544 243.11261388318502,268.692291241087 251.41125752721777,270.71272842881035 256.6683119616852,279.3084674312081 255.01858742046028,288.64672875830036 248.5967390881249,306.2937792378897 245.68399613952013,308.1175386572037 243.10459156618268,309.03292406764376 239.37616389504925,309.05478277690963 237.8594270144151,309.7653629719907 236.50775867817129,311.8281955208696 236.0493921319128,314.8357405454441 236.41954627334172,316.13345304223594 233.8937084720874,319.7936770842483 230.48353066717814,319.44432724062415 228.5630941708154,321.01878875392754 227.5101631462622,322.71805711861487 225.6820853408035,324.2220993405268 223.47950181223555,326.71559947954563 221.9823185651072,327.54534272450155 219.77386259464376,326.1360104556685 217.4185216016064,325.3899639215183 215.41326584361775,325.81470259339255 213.15546415533845,327.3881795563293 212.23093865760956,329.62711776320873 208.91749415465188,331.6585669487839 208.3148911526923,333.2051069764483 205.67893360360026,334.6928843857477 202.25909648346777,335.7284834300714 203.04286572069486,342.4053188252127 205.05087066157358,343.18411336616236 206.48766481391775,345.2755918396256 206.17272422074467,346.62322593874467 207.77253020484528,348.77917381424083 207.6017563922095,349.89979174537973 206.28592914401983,351.06869153433126 206.39729710876946,352.84036988719595 207.32022327776806,353.850463777184 206.31214461054498,356.31676686102264 206.22334443621085,358.95371612622193 205.6514212971517,360.52912706067355 205.9353163188016,362.3110059922824 204.61627324508123,368.6175475843528 205.04697285339302,371.51459735716753 204.81919673317105,373.41235185257597 207.00493731393863,375.25211813475096 208.04763672283235,378.3721102091374 210.1716649719026,381.7453004317588 209.24673364548468,385.5362231620089 209.38079379563234,388.595852920482 210.6808883340724,391.462358068153 210.45504450854793,396.22713818010686 212.8075147636569,397.65721114332666 211.23783533762753,398.48784084328224 212.5313482692692,400.8062361355387 214.0632512895608,405.75614385446994 214.28843295087992,408.8163530491392 214.09662204176882,413.15258568574814 213.45931992653155,415.19411606147594 212.06417066107582,417.45864677499134 207.6252289787986,423.7039272693792 207.0682687778209,425.9286267883491 209.42652986801096,425.00360770658807 210.50366834550167,429.284763310487 213.74317858590572,434.2836021152854 216.23144642183382,436.9298004413894 215.12567920903152,441.92887724948054 211.26538342523568,450.2434030157317 209.87918125611316,452.6453472542672 207.79944034153553,454.7241485128927 205.52952263974242,456.1162302748204 203.30421850352116,456.8503134057061 201.9195567784033,458.9788995262151 200.75890671454505,459.6294187284948 201.30972625902263,464.42951564623235 192.97205579986021,464.42803038983794 182.3046867849811,474.3062808759173 192.97766128126844,474.19605966733104 192.27544355661533,476.6944675845205 182.01660243138556,485.0959077141473 179.27489965280918,481.89760513395237 175.20341461605202,480.28885666935423 167.82944189034382,479.83453175548055 167.04507163382044,480.8073631469549 163.27250764646968,488.9863596680711 161.96926965814382,492.4601637126227 160.58325075368816,497.36761944329197 159.41597826791264,506.19739019557204 151.4369458951554,515.5101718211673 147.68839615432893,518.7096552335092 145.01783349028662,520.0522438614769 143.4829286977418,519.8766180792104 132.58553575265535,516.4336927172246 132.0538470516343,521.997726697919 129.39675068049132,525.5427217731259 123.28763699501553,528.0022783005252 119.58265154394466,527.8011242941882 115.92454350700513,528.2674931979557 109.45399680852437,529.681795571253 108.11971830376686,534.2069920839883 109.45458606072775,534.9477934768485 107.79228882445449,540.9243923091728 106.96268732188567,542.2527288144315 105.04774639647893,540.9307727427158 103.40881213777705,547.7302903987298 102.36524399221625,550.347794629244 99.37242600667567,554.7500226788158 95.03815021144983,564.456164892101 92.20953597409836,575.2818986194893 89.87452235817204,583.1945471654867 88.71200158403931,582.6178888647369 87.33951313523012,579.9742597817257 86.50391239875783,576.6553961212783 85.8457413091539,571.7300241278209 86.03270772607539,570.0752866947789 87.35329160771899,567.4978381558146 96.04416424412445,558.8129178784058 99.5336775517986,552.3552901915107 99.99182408716243,550.0277442117942 99.7062357470402,547.2732962061347 93.92088246367344,540.6539692705206 93.99714532583558,537.3361285983198 94.82554974175073,533.483584682109 95.48787863976962,528.5880294626286 96.69465349466596,523.3222304906469 95.83204617680313,515.7472204116827 94.23032525820587,512.4436360326724 91.03187618959514,510.2977467946356 63.428083743627845,498.61839557708737 60.929757710180276,498.6632794826595 59.66698277396938,505.53463678040407 58.516754894148846,509.8584017668849 54.46935165765582,509.05725426768396 50.28710296818336,514.7830746484328 49.2051839308099,515.7525968482914 48.08160807230718,515.4686626681689 39.682676162146194,506.131348213141 35.67081853208545,501.070673708056 31.95251666123259,506.34062851621877 27.128051101017903,510.4507610070554 22.922832482827324,511.4481934883794 21.460600268213003,511.29850550446525 15.199696863012942,506.0172521748138 0.6737454713511477,502.68473815541483 4.727529607244704,509.78538895834623 10.886368218822874,522.142741887822 14.623779499949881,536.5566134738177 15.078323418587221,545.7579909754907 14.094500330798157,549.353470286178 11.676129163487163,550.8230698876362 5.8902274276185365,550.8189811548996 0.7916574960691047,551.8546807186569 0.0,553.4210427358876 0.5231776452009186,555.7204062335181 5.765978914665321,561.8286765597481 12.591848143292175,565.9753433646031 16.466135266568728,566.8959217792559 23.32175473839963,566.3497574845373 36.0795265799932,561.8738579599934 60.322351806096556,546.3155146039032 62.632361571093185,543.0140812016282 62.906289547685276,538.1699539244905 63.54209364536583,536.7860648187251 67.88883691575987,534.7357686415235 74.93404932401303,535.842371485155 81.8450770765023,538.5024790866348 94.51752350030381,548.202770787665 96.82674211358139,551.4755210406618 96.50854803342862,552.9813162707756 93.92783491517339,555.6231663678263 77.48882135953298,566.4243827416924 71.89424694064533,572.0131500314916 71.90193552116718,574.9768477242444 73.61609098299647,578.3933635877859 81.63708332085369,583.4052964090646 85.12027657922086,588.6561607438454 84.92260590109986,591.6816564053329 82.0904970235862,594.8979837550426 75.77980202970375,598.8463266725162 75.52847503705604,600.8855217975586 77.75528442643271,604.3059800146319 85.76967416461704,609.2721866577518 91.03817596120318,610.3743185351274 102.66935697044315,609.9515955949628 110.70226590781286,607.3038812055975 123.16436964134527,599.895025013225 137.56744227438193,588.7305012242348 144.7213669775817,585.4336303873002 147.22742436460587,585.8818971410632 149.58450099827803,588.6238206973014 150.50657158096382,592.8938676033099 149.98900840704292,599.3215986573077 148.60300139158142,612.6697222529209 148.70516631905824,615.6430940123624 149.83568507879755,617.8931044425415 152.0263267890251,621.1213989998123 156.2284080455983,623.9411693306937 161.5411172372681,624.7017637334545 170.68201262514017,624.5647409919633 176.19320442073737,624.8307590225859 182.24752767095498,628.1769738597941 189.86263151602813,637.0770031830555 203.18704690138532,655.4076911600611 215.99314421634816,673.9656602256903 224.1076724416443,682.6593918238968 230.00221838913598,686.140539917947 238.8449733580106,690.2240666787432 245.24477593439903,691.6739295163011 252.30919702348032,691.6902394970494 256.58346273308507,690.3983587477005 258.86729741661145,688.9659409237618 262.6718759582133,683.7880583430251 270.72166797758143,673.2789971305613 275.05187520050737,672.7007665401828 279.25607787961036,672.5428156672807 281.2684555344414,673.597776535338 283.8637327288383,680.4064567605102 282.7006212157818,684.7113315705307 279.07542984297856,689.3882746427954 275.4421792879351,695.180695757896 272.6700332767351,699.1664773956888 271.9653229115614,702.1756199779281 273.000205261274,705.7989345425233 282.4218466248224,718.5098340127122 289.78215062356196,726.4208233743659 292.37562326509425,728.442050355632 294.497604048796,728.7198746694515 295.7318519924038,728.1411542278803 298.2131219706702,722.8880113131943 300.6053919710008,715.1524097053588 305.77646082645145,702.0035602233755 308.2935214467367,697.3753760694277 312.3765586089765,693.4140221497921 315.4143821365011,690.9685094058136 317.3400191339408,691.3444274434448 321.1971909660663,694.8362358575706 328.85774330463704,704.2451457493737 336.89241678036825,716.7517500649615 348.49129404634164,736.6523679883885 351.237992611681,745.0768301417227 358.53717470758426,762.3573681236328 364.7418215154915,777.2330159153186 366.12221271717516,778.4219742577723 369.6931100268064,780.5381574728642 372.5018608987954,781.2027081029664 375.3141647294931,780.9146130947661 377.734194586535,779.3307618392485 379.1870040458935,773.9861548546799 380.6227619991413,771.8856703871676 382.19886059988835,770.6116209435442 384.9811286844748,770.4967271925011 386.5984062007222,771.2185583386292 388.1916878096378,772.8566024931996 390.44636128478146,777.7797327976104 396.23804269352047,792.2226761195056 397.7030580291351,794.9529378496284 398.97871017074135,796.4338221646499 402.49510793626655,797.3755985977182 406.35802261737626,801.1237511480659 419.8784101489743,812.1117656727671 423.7809622657563,813.9633226038734 426.2557095183028,813.8640478678494 427.83493777311537,811.8903556746312 427.9049598229368,807.7844677178258 428.6184376164471,801.8758798045351 429.89582473780547,795.9410666220125 432.0663706778912,792.6232986983833 434.9198616986215,790.0511781048922 438.0774015480459,788.4796606990526 442.3839952340727,789.4596847161306 446.7964132024451,792.2198264900934 449.4096068954954,795.630469360682 450.28280728783074,800.1433778443459 450.3252505296244,804.9290771832451 450.73361230301396,812.8683995588875 452.96527179142083,816.7558987176798 464.01798308173136,827.7564235918659 467.30969052906283,828.9350758675764 472.9070208817064,828.453106206415 479.4975761811981,826.075589802542 488.0463640158156,821.3969012982428 494.5330445269186,816.5981073154214 500.6926871913947,811.0021333728887 506.20614312558064,804.9626425022363 513.7721393954752,798.958845911545 517.19508266093,797.5413297863404 520.9080559855915,798.0857058886664 522.0313848028118,799.694334816375 523.1267421399012,803.7212633171417 524.4891593379681,813.4433737442847 525.4078631234237,814.8021692947175 528.8513939469162,816.6118922944645 531.8059245089696,817.1261101420058 534.2709848089432,816.7947300669 537.5085995341188,815.5948082816699 542.8776358285662,812.4875732376719 548.9569329993031,808.6939528092942 552.5325857223982,807.5308717379811 555.7224737818669,808.119117850118 557.4705654275127,810.4433572226415 557.2698893959562,815.4938955240884 552.1961996609801,826.1403120870649 552.0366298054269,827.9830408997768 553.2201852784054,830.1772355178551 555.8611580378646,832.7986873437815 559.8384371724829,834.6905467704585 565.0624342467657,835.6606655736895 572.576013617727,836.3701482921235 580.3428026147974,834.6976536005611 584.3111466251128,833.0213326703818 585.2102468969714,831.0523522245 581.9852714810171,824.2861068160562 580.7995755957978,819.0488689230858 581.6119206700985,818.2903731022221 585.0631139286348,817.7960643897815 589.1749192471559,819.5029990589319 592.2846385694314,820.0340197934694 596.4435078087465,819.4039189452658 601.7520721401504,819.2718984680778 604.5227023904506,819.5631168515077 607.3637456876484,820.3314813330707 612.5133960191715,822.2243751471541 618.5621353214748,825.6047330196833 620.4010025536708,828.8278345123481 619.8549571362178,834.0889426592192 617.1411164764794,839.0335895370337 613.3747419684264,842.3058397287723 610.272892544999,846.4431765191227 605.0780565448139,854.160187776469 603.8472993133194,857.008549724068 604.4749854732081,860.5230609397746 605.5969374216238,863.4063547781396 608.4057326904319,869.447620787922 609.6246840839567,870.6886782900152 615.371544002055,872.9241265859964 617.5374066954358,873.3508096554887 618.9150848161096,872.6945942282614 621.3759235674391,870.2974835034123 624.9845709130677,868.9402356166312 632.3608617287734,868.2787902874923 635.0196515405252,868.5417338026376 636.5899934705039,869.4723212301759 637.5814745061479,871.2167151699359 640.4005598294243,882.7263674037392 641.4428602882804,885.0867512658759 644.7853701849715,887.9927928057091 648.8477525549647,890.2315788650382 657.8855151637572,891.4891538885777 669.946613074068,891.0643595252119 678.9182018533315,889.6238199820101 686.5877849747833,886.6931418164419 693.2746494055054,881.4398960184968 698.9024913062639,875.6801762468442 700.2832816468575,873.6008412706393 699.9631431372228,868.8209246689792 697.212562105945,861.4704621608732 690.5795836152338,849.3712903847293 686.590679057581,840.9555037417656 685.378207325728,835.9474178099907 686.448031350578,834.3718842994275 690.2178895252753,833.4428790764567 693.8531788586006,833.3950997358629 697.2594059813134,834.7763782057665 711.4116264523877,838.596873633526 718.7604341961405,841.2034854717044 722.8559515429165,841.9886817546718 725.0509964252229,843.6328905467988 725.5672254841816,848.6590921628084 725.1134768198517,849.8313742444782 721.339911419844,853.0169893841141 714.9530578943326,859.2628375238179 708.9602501639479,868.6986984014305 708.1038068603972,871.2937861449802 708.8708219046704,885.8610704647658 709.4851604127299,887.1180528105483 713.2833390152443,888.3635587591366 721.7708570530025,886.790183690012 727.8330524074617,886.0006110267325 730.5252821132316,886.0044924460566 734.9091534110503,887.0281224905515 743.6692365075265,889.8296016578452 757.5204631618449,894.947560909274 763.3129697835905,896.6146873357658 767.3793693881302,898.8940555488454 775.6836793262664,906.0127244945198 777.4805651182551,907.8214516948115 778.4430955527515,911.273281583486 779.7142474253129,913.8256846362092 781.44972952354,914.7164577769454 783.7828689225519,914.8106882874297 787.2982327125789,913.5940817050098 790.8967749080657,911.0278603604851 801.4769054932924,900.7770862044547 810.1643109794884,891.8750726309112 820.1336260530098,883.3504311439647 823.5159468547045,879.3427958271565 826.6522633249175,871.8417463795591 829.5813250346642,868.982477851961 832.0773757776157,867.0754850638953 835.0875136524927,865.9943865186053 837.1617593463343,866.0691833588332 839.832128168073,867.5088221147726 842.6245536989801,870.6844556177009 843.4146992417506,872.9777777350084 843.5168499952458,875.3071008161052 842.1677215891054,884.5981410345187 841.1474959605486,895.2297776356996 841.567408711314,898.3411701976447 842.8298162023088,900.1213940383042 844.9667199161913,901.7826218506433 847.7923991688338,901.6913807110352 850.648265904987,901.1320996105602 854.9434536721659,898.1607487327253 868.5976997586931,889.8147894903583 884.9415183289507,877.4588855879324 886.1428619524751,876.2013015260183 892.4292386344238,871.7895400939298 896.2697708603604,868.1930565141586 903.1804098006775,862.5411409796045 911.2294702426012,854.6255083247 915.1503458005899,849.8643890091289 915.8376857399601,848.5251248174249 915.4934310760536,833.799196643964 915.8509529289398,828.6558798572911 916.3942968984774,825.9504811351719 916.4242350589402,822.6595552823376 909.4220059940316,820.2693067472164 909.390352056063,818.8487883829541 911.995869651931,813.778710187918 916.2439196039784,807.5425370537098 926.2614461654649,807.3283697650598 935.3866992184703,806.873708971148 936.0023863073498,806.4793508986394 934.8505231358253,802.7950813584614 935.0964035995617,802.3647066388537 944.3639156441119,801.0849228567128 946.8888032955862,799.5796689599663 954.0696723718187,794.3965855530201 957.3935177243732,792.541747961295 959.732483406815,791.6507282220123 967.2927762972407,787.0626945317032 968.4195835851475,784.8712616256641 970.5522488166882,783.5589984048288 974.2157611906234,783.6189845458567 974.9754390832121,783.0868795503937 980.3326825974655,783.2280379009203 980.3792360804014,778.995064635335 983.0168549790875,779.1750258920147 990.6205837780693,779.0566584532751 991.3601890795153,779.2762360629765 993.3135784261577,783.214097218443 999.4307018054222,783.0695827850051 1009.8157912888752,783.1758810464999 1007.7870624480896,777.7348637038758 1005.0017473377902,774.0096648613395 1001.8661663695246,768.9639126512835 1007.3974129732441,762.0762202236665 1006.7553281126794,756.7179303200751 1005.068529314352,745.2591064971042 1003.7827684663656,734.70702060389 1016.3780141207315,734.1501700975443 1021.0964165596409,734.2357093517006 1021.3325691968264,733.8323093568531 1019.2535706860618,721.8911624686689 1018.4588367951548,718.2933443571126 1021.5978453001817,711.5938003879913 1024.0,705.7481512170646 1021.6819241572726,705.7514630289998 1010.537950205169,707.2596607369434 1000.0281365338536,708.3809263524345 998.9881952186884,704.700219840394 995.6209945265563,701.902339462357 993.0536576220118,698.8558639678009 989.8379360436128,692.8436424561585 987.4735408767676,687.1066585986655 986.1927892628888,687.5005382799905 985.2339230267165,683.4180390182937 982.2560010086587,678.780582250965 979.9350835341882,674.2148376707987 981.5432743011518,672.5284644554258 978.6437914620087,663.8993747332528 978.5589895686877,661.0160787038573 977.3477410803354,660.211138892889 976.7148053069316,652.5232432445927 974.6232384011664,651.6376080467809 974.4564925858148,648.5988918374973 973.3473775662302,645.7995903304682 973.2608467925141,640.9130112871862 969.3252593258514,640.5135820136741 966.9165913045094,640.7633142789826 961.4549222356579,640.6124949105207 960.9721544220697,639.9713025152632 959.5238633821521,635.168852334639 945.3105947382803,635.9115405584441 934.1827882412164,636.0919997409824 935.3432332907147,641.9486915234402 934.7806390767397,642.6721227092104 921.1724164003335,644.7199427843329 917.554360341238,644.8120242784325 914.9808005748401,642.8188012894301 912.561404579281,639.3052662592377 910.1511689922243,635.0685584912715 909.7409137417576,632.8268955675827 910.0675689548672,629.8528246330013 912.8845008790709,626.4023719463362 917.6275603994159,622.9601475658176 919.69523462596,618.9693522864998 920.0528590404101,616.3801869400818 918.6791919234946,613.6634242653209 912.2325943865076,605.9169234107126 906.9230445276412,598.7282446418094 900.5196777053686,590.460153988278 899.5567930876457,590.3048796844607 893.4317108573182,591.8519184754339 885.923890719227,594.2139212897655 883.9982776167956,596.5102241839365 875.1775288844588,599.6836975240399 872.70964006786,599.7198549787829 871.4284463875388,599.1265075595556 869.4831663995071,596.5645360405694 867.9566286138253,593.4455098298636 864.2296551006234,584.2423802289281 858.7515415090068,571.3915224058096 850.2626552341447,571.7655471200385 845.4078182194276,571.6539529984566 837.7063727280606,571.8248802622556 834.546746163313,559.615164124565 837.4451766382975,558.6380852987116 834.8896890388287,549.8766155373353 832.1392355370581,539.9193492391461 830.3506515658105,534.5427037599511 819.0380117567366,534.3451612538623 813.717120775581,530.474279736098 810.0937820669328,530.6002802891023 804.4950770102445,542.152769946444 801.0634674523294,545.7975637465113 793.679266145403,547.921889618596 789.0708342845392,549.491058388046 773.1430300276527,555.5931161764704 771.1458723309836,556.2130304702985 761.9644901937002,553.0675366803973 752.2850577052678,539.1855189029977 750.517593015873,535.982886757484 750.9421864924589,532.8116466500476 750.4731043210313,530.9828816173124 749.1845795264901,530.140396627984 749.3307641206585,527.5258707442124 748.863396075796,525.2940231150253 749.0451782353941,510.8801194413637 746.63981363255,510.52078518818377 735.998696238964,508.3492875964755 735.7785536510053,505.08662394896504 726.3525869076587,505.2376399548793 725.0220998624364,505.0711067397014 720.3323452500894,500.16515922258276 703.0773236742166,482.7186732330511 696.2652545927297,475.45286837922697 704.4349250518063,472.15941599425923 708.9813212993118,469.8738675234678 708.3666791035605,457.84990903646104 707.5822668858048,450.35765677309416 707.3171711216314,443.6165645436511 706.8963783878012,438.42714152794537 716.2061364885473,436.51598970835073 726.0479534864631,434.2756705075275 735.1738547051146,432.39722837305385 731.672619674314,413.15157001003104 731.7549492664281,412.73200012574455 740.5418473039332,410.62463103563493 738.8917560235852,398.38803446569864 738.3293979365551,398.05815851855164 733.2574002300028,398.7455418637778 720.3327119470302,399.96734060209246 717.7289655866776,391.35513206913765 714.6081768698696,380.36730062262984 713.8865056907196,378.32204111152 711.5001839700914,380.98274835686107 710.4924442037964,384.2948337992748 705.153766962868,386.4507945188102 682.3766041695243,397.4468445550839 649.154955831131,359.0483512433856 655.8383353457814,354.7726478581385 653.0553908958743,346.9735411293374 651.3403625785069,346.3854849255622 647.2585176220156,334.8981577947899 646.8221339506855,319.92558167841753 646.6829129875537,318.4382198932433 644.4463318734199,309.32815484801836 643.6068605352763,305.3496910384416 643.1579704355687,301.06112500677534 641.9106799449603,292.5299685489058 641.5265936955233,291.0797671491529 639.1209753065759,276.0994503864923 638.5828311922511,270.3160353579307 636.366270649544,257.91010002073676 635.0068875762971,249.62915351224603 633.8169844947247,243.59955753117526 635.6839431277845,239.94904041016287 637.719445098753,238.34000906333495 640.9537919633041,239.0224588061991 641.7212992597862,238.08521346390887 642.3900573277189,235.6259501825241 642.582459965401,231.94422526964536 644.1104498451996,233.04984618540823 646.0705569580352,233.1373817595645 647.5015230210347,232.4658059621754 649.540147355083,233.40039721714243 651.41943727135,233.14947291477847 652.4332327306213,231.4563339628486 651.7465942876105,228.14553010712905 652.8645147912913,225.58755683922288 655.0637071014348,223.47731700988584 654.9787273211014,220.32335307572305 655.4827063445437,218.4101518077042 658.0273794109003,216.88486108293296 658.5320910149832,214.59874803611785 657.7787820541744,213.91321708876217 655.5639933121171,213.8268580217665 654.0384293907576,211.6993399526864 651.4908974868484,209.90769433003675 647.8371315174758,205.60735933800663 645.6281744293083,203.56119033537345 642.9120682431994,199.81839097773673 641.9725519899052,195.82603852175805 640.0278971584179,193.8709409583911 638.9109029037813,191.6641300625961 638.9984725702009,189.11292113525974 639.6810817411069,185.54254648733308 638.8384864323504,183.41790199728302 640.3570296580374,179.89629241628904 640.6985008529142,177.7744334910234 639.0859241196852,173.95257052410693 638.9907486748765,170.97367531545694 641.374992723898,167.91907924746408 642.0452358783499,164.63247913196562 643.580654468735,162.08462297247013 643.8334589836202,159.02500933102908 643.1522700337902,157.66619432830362 641.269138814247,156.22304572128974 641.4357166562986,154.71069649629953 640.6446915382226,152.72356335861616 638.4895428164797,149.84095951429174 638.1460294721512,148.48290712710946 636.6177645120521,148.05957091061293 636.357011082361,146.19293330342123 638.9908181097338,140.7974049222455 640.0108262917365,140.55523426456853 642.7289277616626,138.2562454285203 644.088630169215,136.55643127972746 644.2652960754347,135.11807408269237 642.3068171855149,131.207877158751 639.2443578339215,128.22352016073194 638.6560107659934,127.03699614655795 638.8274455236344,123.46841246240274 636.7575346009799,119.30269270897679 638.3140096949053,116.35638906017562 636.6119362652832,107.69405487170616 635.9350015866767,105.2255404079499 632.2648366461423,101.01963833313937 630.9017352761763,99.9972475879938 628.1005554248626,99.07093463973581 626.3202564945233,97.87382972794842 626.5748243441171,93.79668032286611 627.2531414002312,91.42204861958658 630.3115372526303,91.24691422337435 631.1592698841629,90.40353903896812 631.2153734051334,88.57388140933097" /><circle cx="332.16059606040454" cy="427.1306262828265" fill="rgb(100%,100%,100%)" r="16" stroke="grey" stroke-width="8" /></svg>