<?xml version="1.0" encoding="utf-8" ?>
<svg baseProfile="full" height="1024" version="1.1" width="1024" xmlns="http://www.w3.org/2000/svg" xmlns:ev="http://www.w3.org/2001/xml-events" xmlns:xlink="http://www.w3.org/1999/xlink"><defs /><polygon fill="black" points="461.395325341554,181.98461978152181 457.5815306533449,180.86810815542628 453.2353244334216,180.49604627931035 436.5059038978706,176.55776556682588 429.9829395019776,175.86056287354984 423.2452792275463,176.01416730827145 418.25234635520894,178.06646301970966 416.9423251152503,178.18226950740734 410.38805589540544,179.88232177564623 408.0693000293577,179.2508194410077 406.59397339981905,177.78082071562176 404.897285544128,175.0324485430457 404.4660206773559,170.1796783650301 403.62936452344695,166.1717177073226 408.2821532393113,160.88662599627833 411.0318613730637,154.97650422063964 417.37500778175627,148.209396724209 417.37199822015157,141.45779061877874 413.7739415262139,138.29928351597994 408.0718784954914,137.87862585789412 408.4977070223371,134.08421240471864 413.35389045938035,125.83772613540418 411.8768676236827,121.62203277630726 410.18752023650916,119.52020043315986 406.5926238412984,112.76697902280671 405.1144678267869,112.13753513398296 402.1464290245123,113.6134988041141 399.18354560167984,118.26431483739452 397.073588920717,124.18675405438717 395.58693930155124,133.05329429404208 394.53105808983736,134.9490654774304 392.8400755098496,136.43196362450237 387.7607667572466,136.6491775854929 383.5285093177711,134.9727357188542 379.29813776401556,132.87660017651683 378.4553574544983,131.39974640062746 378.1948064711237,127.41729044475233 378.4861580161652,125.00689951198137 379.8618921234835,121.87945656773923 380.9682664498573,116.65423975613407 381.1123541438043,110.70176553907822 381.96523450902794,108.08050159520326 384.9418088996351,104.82338929869536 386.8583297169412,101.7713387796997 387.72509711329025,99.42638971922929 386.7096934706964,97.39976943293323 382.2638591158711,98.24574512819936 378.246921169968,98.2562230615116 375.49354156657677,97.67150348230928 369.265214168849,94.04844870108354 365.92965723279576,92.75293155478914 363.9537980446435,92.8546222100274 356.8069365631303,96.96336121067202 355.3053283001139,97.37918108035979 351.62628411646756,96.21897123853068 347.3009124908288,95.80265186667123 343.03969102647676,96.69651669982954 340.4561042828243,97.58273448240698 334.4355346936359,93.27116950917889 330.10359844813206,88.91196117000959 326.089019594209,86.32120594861613 325.4117716776167,84.63745557790355 325.4124259487302,82.50800971816352 326.29552138287676,69.88334724475851 326.29887003513124,61.69155745497471 325.7681026856954,59.20846774178756 323.45430400645836,58.853649619438556 318.9915453988331,62.952745330039534 304.92546623943093,63.50423627933719 298.5162583403465,63.86545146814865 293.70298066238996,70.45573935739776 292.1071442711043,71.70138471333121 286.94666818427334,72.2436590264399 282.4919650040568,71.52976002100547 278.0457870758927,71.17468187184056 274.1359704128245,72.06324465571674 267.90577154068865,75.9745703745483 266.3091070311958,76.65458555966939 261.32468642461254,76.50925141302776 259.5495864146804,74.73414938440885 259.53210848806157,68.7450438152157 258.70176212789363,64.96477261848622 255.98061802021786,61.090071000596595 255.17613748935335,59.326133624030604 254.6612731029603,55.30755802660735 255.96480155492273,51.18879383507601 258.2008775732368,46.509335471885606 258.3132236543261,42.17790554253406 255.09847725073442,28.16307145264068 254.33543418034472,23.523757759629007 255.00954918591677,20.28183304536344 257.03686055000685,17.180807507382497 261.7253179420281,13.276590100035264 262.95679663085144,11.708772149803735 262.72161361397514,6.481074568125109 262.24281534783506,2.749646552158765 257.71354302066675,0.0 253.95140558467023,1.7973503512830575 246.3065928255684,5.985810174837184 243.5368246757252,8.72383083367879 237.9974754799222,10.906570628781083 232.95499024460483,11.569838576802113 230.73927383802237,10.515346763698403 224.55032755033253,5.3651240542897085 221.90721348259356,3.5277574880518614 219.43426113665876,2.55809574329362 217.60895092049077,5.124354305542397 215.95919267286826,8.620187080365895 214.58589641502562,10.392543851797996 211.54486255482587,11.946797802922106 206.61124859106184,13.159790561263776 204.7473127125916,14.149847169693544 202.2987405217786,16.967990524437823 200.90047507899556,21.63738646715285 200.3491722535538,24.652283769939686 196.50069475588725,28.444947035486507 194.06414947522248,32.59299415208329 193.20566479531564,36.08253582008331 189.53197404392543,47.4279243178604 184.07355047399815,56.70300675595138 181.11236162636837,61.41000732061059 177.06737001884565,67.09943780938545 173.0661150295144,74.35371587319833 168.36336452242446,82.26079432145775 165.95466299549102,87.19899271136012 160.0725182703,95.05464452542537 154.01951470575793,108.82225297976208 152.72069853010362,110.66758558004244 150.70711494891228,112.36530135666897 142.74656549706495,115.60205996833474 141.56691945896975,118.6236713181039 140.56421757095447,119.59552886159804 137.27442119726706,120.60847837869699 132.02324170914716,121.58657145795769 126.64914125892075,127.39089790617868 123.39968941252211,127.81996979187443 117.17869427137138,127.52553205109643 115.36402691912421,127.1632466440069 113.67448873028857,125.13959592124093 111.35700411602684,123.69503015995167 108.14546341260876,124.63514813771906 104.42938873710423,127.55621363215005 99.04121087065384,129.88651251426495 97.55273792638455,129.92008334331206 96.5782920872067,128.914797487363 96.76076772551967,126.14844408613249 98.83832297183841,121.06026594920593 99.03172300188885,118.84538969265907 97.77157181727915,115.405196134819 94.42173536859563,114.21558052999944 88.9645316321915,113.23943515602718 82.49326467961545,113.23330278932553 79.4966055890428,112.98256037968792 77.61680825001801,113.50073235574484 76.56363289662892,112.65969039986692 75.23951878067,109.77283743540931 72.56635044702897,106.99928272008708 68.79429999580297,104.09199228727664 67.88619594299867,101.9800749893742 68.31020939763395,96.4565837025059 67.34193624323851,92.06184426789036 65.66346062751488,89.33198984807768 64.83614961904522,86.6760477041463 62.07731066567284,83.2084331268934 57.577801217500024,80.43085965071714 56.0625808312734,80.60733745361313 46.78869298869075,79.9480569476392 41.98519335280367,78.61549410121279 39.41288193935024,76.83505575103356 35.91997698890902,73.44465373296384 32.147112253452086,72.94365675007032 28.78662653137756,73.7293711214761 26.894430018285057,77.64588987184447 25.0452909970727,82.74907109352705 22.990196680227786,90.63102275420329 22.04705723166409,101.76919613504822 21.863900310523505,110.92591331168308 24.64342530251764,117.71444676510566 25.54650751242723,122.58171990344522 24.968210244918254,124.27694718884618 25.47554559605653,134.23812784240533 26.25449596629826,140.83814347229315 23.769259154510987,143.4293561133819 21.198745597814042,144.0763008472885 15.469090758848974,143.55924265078022 9.945411437681404,144.1874485628664 12.848014531768195,149.2351946559677 12.543023624851209,151.2651263576787 11.546312815059578,151.72439609201956 9.48061377325686,154.25142936704162 9.091232838092733,157.3177663168642 9.475217892027702,159.2196743824835 11.623413743547555,161.1993936744891 19.672935326617253,165.53933756871493 23.808394697991393,168.51771990202997 24.56047163620206,170.48809939283217 22.100936898366786,176.27702090393495 21.086439739605307,180.16829257882853 21.57707866996897,183.8931765408961 21.5849477630572,186.967290106203 21.03019875195486,189.46143565630712 19.21477384293509,192.3867841901057 15.883531518130285,200.56913311310416 14.499492752489784,205.15108521063542 14.494484987223007,211.52503246979848 15.329351084462061,222.8933237172089 18.559341653797205,238.91727089294955 20.15571186061107,242.8806991745637 21.499514029187495,249.54208415352298 21.311522658190523,255.4581052813644 20.836753678435635,262.0229309654736 21.021565605514546,263.58944551186653 23.488184875450838,267.69978371133004 23.9368515821515,269.74692234847487 23.26811333548763,271.65878207350477 21.126730998270983,275.1011780460864 14.68518636477805,280.3102368442319 14.753278568999718,282.9024162016856 16.957022677778166,286.48406276699234 17.383052870105068,291.53401641489177 11.694699429289175,299.5165694770765 8.912444828751003,301.3945669435245 7.45988542828912,303.1599996436031 6.762001141315353,305.03211675280124 3.438005802781733,316.0611017479541 0.0,325.74846775595984 1.2350075487241077,326.9173124016479 8.121498188125999,328.072268455679 11.37859430401867,329.43102109134907 15.321101606326677,332.4030502681177 16.55690964047441,334.2594995330444 17.275385029962575,337.6592713918408 19.736421594420776,339.59789181516237 22.903080366922815,339.69449448174134 24.18862330034148,341.4074364321225 24.911792078887608,344.60082358066074 24.930742435486316,346.9196764152325 28.635762473550066,353.0114842283624 30.321387635956963,357.89013923275206 30.110465888686697,361.01001286545716 30.49682039531324,365.9928460761197 29.999327903299896,368.44797435688804 28.88154891624116,370.4680384328152 30.740793540730706,373.24220708371513 32.4106268134044,373.9052233958165 35.99885080491126,373.52772793988004 40.857911661696136,375.579702567681 43.067382334094745,375.44864002289523 46.714399864875986,372.45430514943655 50.87444492141307,372.1941392609921 52.954614964630935,372.453268141472 55.293764829381956,376.7320403552719 56.85414626438541,378.801437033184 59.063999371941435,379.45003516389477 61.395998009538154,379.4511132559064 77.2513666393164,371.52113078791194 81.92083455148115,369.57362832539025 83.73708941305446,369.957022325243 85.29855241221108,371.39067979531455 85.74143003700401,374.6687609366876 85.4132711167752,378.1501213533214 86.07298218848538,385.93099981527655 85.87395168817498,388.1485757408134 83.69682647599801,396.15860788773705 81.18793393135299,403.782162205418 77.51442651388358,411.9918637953125 76.32821245181259,415.40755883613065 75.95484190158416,419.5866127070285 76.54456889315216,421.7878487427047 79.70763142157527,424.0291384395729 83.61186473275384,428.192450259266 86.48239705762681,433.1457608288972 87.29464122041378,437.8800345253319 86.52556094994412,440.23588287644543 83.72986635270284,445.9761139971298 83.26052321043608,449.05975565859524 86.77455068501843,451.2663038959024 91.24753072395478,453.5993684026042 89.91114370243656,461.0520246689812 90.63207723252425,464.5037579413038 91.8498511264515,466.2085329276798 95.47363286887553,469.5954862310265 96.16093948825925,472.43265753057074 91.08236775231057,483.5417084972455 85.89036065781544,487.383638336833 83.19163285799604,492.53977898163316 83.61057668433531,497.6487636954482 82.95769776889337,503.5164726976393 76.4357323501152,508.3349034781428 75.1349517579348,511.19993892763 75.29972082981278,515.0071515774381 77.23396693886109,518.8929436631597 78.60978986999729,520.7904229196666 84.84254836493564,526.0770404512597 86.00803907038446,528.2953522004639 86.84651108864487,531.9950438021119 87.48070670641202,545.6258034982477 90.02459388440022,552.5982664408134 90.65449128642938,556.8237599379445 89.39030038612114,558.6212352944949 82.06610700982388,562.2265956292365 81.08271493615948,563.8166789768293 80.87572661995132,567.9268654913719 80.25665545270213,569.790320093857 82.52566955394836,574.3210593423978 83.8287666982666,575.6249330366506 88.28353448431949,578.3407255636389 90.55980830663708,580.1905685675747 92.19528255884771,582.7954635483461 92.40620703024123,597.3485616162222 92.72815048808441,601.3620948667035 93.71462290167099,605.4937466348587 94.69429931460373,606.7906742346504 100.2270088878231,607.235742491698 102.61848021157289,608.4283603145964 105.98186734103248,612.0154761432823 105.98378721299227,613.5353219665897 103.930216260799,628.296316589389 102.6222085713402,628.9443754059025 99.80282591851596,627.6440020600081 95.77783420448327,626.3415031020414 92.0932097012187,628.294410016487 90.03096112446676,629.8125579775638 90.35294188571021,632.5221726333801 93.43318081727142,635.3210857880745 91.45384704466959,643.239799983174 91.95360863725078,645.1157613756293 94.85189313762085,647.4953217690022 95.347504784619,648.8789048841829 94.71574692442911,657.2799247927762 94.71668623885886,662.04715763065 92.5927100643609,666.5670265987412 88.1872309381831,670.8283898290463 86.05763646581666,674.7210093989241 86.0521590996626,676.8584656223202 89.06900750479151,687.0179171736954 89.19520870727537,695.1676069466317 86.56250446363647,710.4749658691244 87.1946969503382,713.6152013832386 91.70534971237625,718.3771823375417 92.46496560977502,720.1395225562314 92.45737485933687,724.6523412738627 92.07724184020964,726.8039749528282 92.27962234131519,730.1747850716168 94.02303221231519,740.4921218355584 96.5721888922366,752.5521139027244 98.47464066697519,757.1518139396396 99.42462956296058,757.6278630072507 102.37482519306913,756.399187364985 109.15031899104414,752.5050907974279 111.78286009364453,751.8869004421064 113.65944718936062,752.1375731179446 125.07324624390725,756.6657578665361 137.92106483855662,761.5615945679153 140.4602510515672,762.8872438696555 143.84523086008403,763.9674636299646 147.56653843585013,763.9044112726363 151.8895737076396,763.2376333964878 155.40059342492341,761.5821272156079 159.92381333684693,758.8680729096898 163.03713203082586,759.1291719285719 168.17795869255318,765.5203057643032 174.68871619563686,772.0640348612956 178.366267880314,778.005871195483 183.0763709616669,778.0967808639015 189.5975802301091,779.2412189347832 200.754866532321,780.6401501590375 204.37757503434767,782.9108557103004 208.14606308634168,787.92693031357 209.5174407635283,790.8247845737492 209.887624948271,794.081209487832 208.74907822497346,813.9532360842345 207.52596596333936,816.5365643122369 203.11240357804456,824.4157046003779 200.58646752723553,828.5128725951638 197.11653149553638,831.661286586376 192.39919240635402,836.6929286863266 190.18721396644983,839.8517565385265 189.2426197888566,850.8885968954029 189.12010153875931,859.7186479276227 188.56027279431368,860.9987460921991 189.71094160194724,863.0982510989024 192.62096582885928,866.1899919014625 200.80986881487954,873.26640697478 200.47039533932696,875.9557385445985 204.68316444998283,878.6750302712701 205.63003212074298,885.6219775973254 207.5207685242231,894.1461609867861 211.9336924639213,898.5731288523771 219.4251782095559,905.4817931031693 221.9231121455068,905.1189910078683 223.2998041663548,906.5889914370928 223.73900362239223,908.3963895589443 223.08150335710184,914.1559561408242 222.93902098434316,918.0992953910064 222.21149235020366,921.2654120323008 220.42995646766917,925.4920894539428 219.64761259717392,929.5967444365141 220.68121129048922,932.6544430776593 222.66072734295594,933.7062602846685 225.9807714444834,934.0359204341969 237.85974724262675,933.5445024221677 241.87636019815992,933.1369736299704 245.30853477848797,932.0333466988429 250.8721201689527,930.8078122727605 258.4845373027471,928.7498184326345 267.3387479792916,926.7401661591283 279.68147419689143,924.6360734001189 284.71576012066834,924.3717555908958 295.0369959156687,923.5004599545833 301.5836478526142,923.1067934139683 306.15942787477115,922.5986801563943 309.775757577106,922.5949940085761 315.4100206340976,923.3224502825316 317.294665271686,922.8816721354564 320.16817386587684,920.7640550795952 320.55302488654206,919.9666120698301 325.5626013820211,915.3272119939173 333.7849374510162,910.890977490294 338.4796380594196,909.0121326063105 343.70511887823017,905.2956817413082 348.39416822665953,903.4991209838619 360.02955075813463,903.7012024746734 369.00374363133943,906.8840736256574 371.1172167046258,907.3467898728017 377.7675557712534,912.0644785962966 383.5584430495898,915.7013058595969 380.6292163530819,927.6101710826048 381.0971983903212,930.3536591738475 382.84799781515204,934.3302456680696 389.26107671860154,955.7610336583792 391.1006557972602,962.1671611090061 396.7374671774689,977.0802543410028 397.92581954193685,979.1175247047307 399.60659228361675,984.537592369581 400.78908412482554,987.2035137886043 403.23104719422696,991.4313799642614 404.5158996286876,992.6835708219181 410.9743442194333,995.1407366995801 414.28827188825204,995.8986080541955 420.50597363518983,995.7513060811882 425.200339623286,996.4133903665872 428.022940495508,996.0743350952615 433.7240689838414,994.6870924550423 436.53167340096917,993.4003073518088 442.00095718827487,992.5599171643457 448.8161061681892,994.2387930038198 452.2041790886182,996.571475017023 455.91435057240574,996.4494580793057 460.97352915935744,998.3005985354296 463.818936493107,1000.0927603568508 465.2611588800034,1002.5189010265218 467.73121253662237,1004.3150194942206 473.10652830711797,1005.9258191784745 479.11910907579653,1008.1581942006752 487.6455433476918,1009.7551231751224 494.7571141629398,1012.6132741706749 504.40831564725,1018.7708179602456 507.73739216013263,1020.2488375963082 517.8618910197413,1022.5475004176394 521.2534181507451,1023.4674636106173 525.3408588294888,1024.0 527.2379433531516,1023.0408515477759 530.8443615114011,1019.787518140961 532.8133421230425,1018.5909033367914 540.7642610403785,1017.7608727278179 543.1131567414947,1016.4058198467815 546.5893999700596,1011.8962878679456 549.0232255480443,1009.3668216936175 552.9640221014339,1003.5134778152726 554.5020727191869,1000.5194125703252 555.4913187018497,995.9454651648444 555.4967675436968,990.2491136220693 554.3585371181722,984.6811932829976 555.0408370460249,981.67610849141 553.8301139140813,974.1928110462552 554.4397028135843,971.9107250776916 555.6102414073358,970.0941369794368 557.5722819715432,968.3525161458236 564.939886227846,964.212556641524 568.4344395487844,959.940202465344 568.3353200536864,956.3579042079015 572.185934552547,949.426501479782 574.766352406446,948.0999108871877 576.4530256349905,946.124566794339 576.2884871820403,943.2528149751936 577.0636600500454,938.3124342983804 579.0840970111032,934.6660098082782 576.8367354251168,932.5911448107395 576.519735227987,930.6276531052699 576.3154280739171,921.8797736400867 575.2386020900368,918.1339196985183 571.8249887890925,914.684325914443 569.8311867973651,911.5981752407296 567.0444995974419,905.7725683291484 565.6506217795022,899.5803220815121 566.0576015090973,892.6385335597015 567.7588890575967,887.298346056621 568.6582139687913,881.0511128908087 567.4585667241828,876.1965027681928 568.2653350666548,869.4661015560863 569.3105750002392,867.8598622799213 568.2250212264425,865.9271222955412 565.1185845468317,864.9128930088717 561.3588560649396,860.849428473544 559.4586002835249,857.8350287740673 558.0216127038931,852.830363115198 557.6024096545287,847.4111037103598 558.1529632506081,840.4181602737211 560.6792985949352,834.04106228975 562.4891829009699,831.201872875684 564.0092709946767,827.789575558221 562.1519013985151,823.3867374582035 557.5972678727403,814.3126665997286 557.2445969144273,812.2381205843794 557.4754608117046,809.1596365328039 560.5371809209169,806.3365022263167 564.7763634206318,806.4739713817617 569.3693110644388,807.7889449925441 573.1420337985711,805.9052374144974 575.7416381119514,802.0168500612754 575.6140552534179,798.4705855385192 572.4332126232963,792.9109912370704 566.426461440249,783.5676450337672 561.9096570155854,772.7366134903024 556.9437965675307,768.9977584563588 553.6713829033587,767.5230912320995 549.8632007413453,766.5372641795278 547.1155226537977,766.5476954160969 544.7072885225864,767.4800362684334 541.6183949354803,769.3870599818986 536.6449209761066,773.6495995539199 530.0590228023951,776.7676331093109 525.1313082177691,777.9438038658739 519.7635760232782,776.9650287252515 514.0292428125506,776.2886486306168 508.91603246414815,773.7220156212835 504.2178844301397,771.0584871781289 496.13587573334235,763.5982123882243 490.8581657521733,760.7976252674565 490.1358446557747,757.5343929849287 491.2157704617626,751.8468983359573 492.23348957386406,749.8920398491828 492.60165041529723,745.0858261264079 489.78746292592575,740.457552619687 478.0904505952188,719.7850349303906 478.34613030746925,710.4365226614477 480.6607321105952,704.7259927760163 488.86036921461283,697.4186110100002 516.8469656101366,676.7765508215224 517.5484086252776,674.4659621671674 516.6637953890435,672.1427859175737 514.280945964527,670.5557297320956 510.08493478633653,670.3974042734769 508.61482044141377,669.9817787931695 505.8412078131934,667.9463641191032 502.50608639512313,664.7244657035958 500.2554989064404,661.9444795631696 499.4281835629483,660.1749591507967 499.6942003397809,657.6340328037675 500.6494072838542,656.3799355928873 504.59876468588027,653.6840816724969 506.28660188960646,650.9210431235239 506.3348113977446,645.3094005040673 505.17665338278584,642.7938689738137 501.329676238158,639.1264407014266 494.0546062978842,634.1816480939029 491.28764725829427,631.6644857742815 489.53903769775246,629.4634860453679 487.0014780407575,623.6450407340583 484.13583463953563,617.9828500152278 483.415271329794,614.826860179737 483.62927393994875,607.9808899466341 483.3821853352399,604.9022455189586 480.05158592281094,598.7636315260888 477.50934508223105,593.5820194089899 475.81852311704677,588.6689515556843 473.82243743231425,580.093217918476 473.19469504910484,575.9801336670696 473.39174518530217,569.1467359620065 474.2159529374281,563.878803779965 473.67969151280073,561.2146069742017 469.9514918167938,553.869634317768 467.4451802078532,550.8774667658579 463.08693589261367,547.0112320206181 459.5061750426822,547.4819930675646 456.19850871343755,549.1299851813145 454.26415696491534,548.7808468191474 453.28558049873595,547.8367451312774 452.30775351381754,544.7769607206158 452.5443669619153,542.689001587373 453.710792608639,539.2154057842777 458.6516784426661,530.2893466316168 461.08114485523885,526.8116228765476 465.5451754556749,521.8756048508023 469.12241268642936,520.1116407294978 477.3779026145097,518.3170571660942 480.2414962940082,519.3215067320416 482.9858317871453,522.5570905413599 486.6983558479112,523.7488156703271 489.0701194914885,522.4089728017789 490.14791852277824,520.8770284836335 495.3136267086342,521.0758275035141 496.6167336154474,520.6404651333943 497.7399793429794,519.0776978468958 497.9093690391861,517.1348163312662 497.4013795300334,513.9159827237827 496.05922615239604,511.9389439598706 493.7816453760179,510.22948316280645 493.00914617932415,508.08104727406703 493.8471595545196,504.15950960242503 495.0065480886353,502.1754129519461 503.3772098389576,492.2261644742638 504.90907281725725,487.9790518346671 505.42521153140837,482.57257303614915 512.9813109662322,477.1810142289513 515.312150389035,473.3760390100123 517.2970459952354,471.0028176662305 519.4948518590431,469.71530840488833 520.8339526279077,467.89404355903764 520.3400258393564,465.9599403094388 518.2853442364664,463.6526839529339 516.6896334457504,463.14647223943234 514.8687465467173,464.1105762199254 511.69250325152007,467.5549668788856 508.30298695320846,470.4472851314848 506.50119176315593,471.13456994512103 503.2038309066133,470.852157380977 500.8630800231974,469.2150545651341 498.217552453135,464.9029494856818 498.55043871495116,458.05135757324297 499.57610777504686,456.56253350905706 505.2668660300617,452.35164915619293 510.05500400534066,449.34194222349765 513.5208705792417,445.56691161303866 515.0672973731614,442.79966874392255 515.9898271426167,439.76152917346474 516.134945061309,432.7083483143498 515.487990006905,426.28997160100243 515.5589586934689,421.35335811548055 518.0357895711263,415.3015742971354 521.4765456796056,408.2841785568928 522.6159283057642,406.7113481878072 525.9728960864584,406.1300810615635 529.6244964285627,406.73534906633995 539.0110401359614,409.74745099248616 545.7312052959778,410.64620381139457 548.7792729121613,410.24269373124935 557.4061585264152,409.73246745969686 571.0609507924138,411.719646756059 573.2508888521878,411.3558639730194 574.474382005751,409.5973203120461 576.3358160341945,394.2850450063182 573.4487619963099,384.72456490189404 571.4222123061795,383.7630760815804 564.9964625834953,379.8562061878788 562.7693911627415,378.8969295865653 558.4025718669714,377.7779246296557 552.4017087812468,377.17004826259154 551.1786994223711,375.9418437369237 550.5335508129078,373.36435460636756 550.6882022597342,370.7556860365438 548.7339573648588,366.5616476737001 545.2778270158614,364.45790074590695 541.260982262149,364.1130811927984 535.8788837296678,365.6931168813272 534.256200880673,366.7680721682292 529.7554001331031,370.9337480368847 528.4817080082369,372.86584636095324 522.4039207503205,377.1523148564521 517.3343768459642,378.49154760030615 514.0256503146289,376.1488644557329 512.4989636799381,373.98972412088494 511.2678659886795,369.9109736413193 508.9201309789613,364.43743854801585 508.1400099580705,363.67718825745953 506.76258499702374,359.45560496800476 506.8951957427005,357.91476725747964 508.3864296376189,352.7283670906651 510.5316346838065,346.8976803829672 508.9774384208844,341.26392419948877 507.2510487844462,338.8208516457722 505.14398692310607,337.21291761851785 502.5941771671745,336.7599511652335 500.37856810585885,335.73782267036745 496.15169202225485,331.9083608060439 493.50502559765323,324.85046733085835 493.15656164325975,322.46483929215196 493.60641207066783,319.3825072977222 495.1878442049545,316.7387897844843 495.66495620109976,314.1087329350795 495.4352070106343,311.0449632926171 494.6097681834404,307.1871967018319 493.6669513542717,305.2387629089967 490.6068779896654,302.26836764106326 489.26560751496226,301.66834897414924 490.31782609891275,298.53806112214306 492.7010791020721,294.98438964040884 495.74735325308484,291.5044494321969 497.96277137496236,289.4602746677798 500.45527067805176,288.50936793427957 506.33861719793526,287.6841314730784 517.744647887254,291.82174415315 519.7669145752747,291.441235966368 522.2145472330607,289.15746713724866 526.7098054233178,289.17807746549204 534.1513833400861,290.2820789598577 536.3677778452808,290.86211813720956 541.3675099236027,289.738878454688 542.720774105481,287.80570239268866 541.4787640462918,281.38998805809854 541.9380640421053,278.68840154123336 539.7381046659817,276.06812793217136 530.4274126509924,270.9962293126921 525.6180699170651,263.9757625232471 519.0869816687533,260.8512873212478 515.3969337248366,259.6122116123855 512.3250422423192,259.1846147194151 509.0424853360699,256.3106410906761 508.8418399002922,254.8670709211268 510.0699146322334,251.59292665059286 519.7360071117687,235.83971025798735 520.1375318623778,232.71926012421557 521.7814936217919,225.9969648077515 521.2177459249763,220.36582615142015 520.2392406619782,218.31614698116618 518.284781135181,216.8415371469381 511.03036865637404,214.7911647779822 506.6363418983351,214.7800976652752 491.42940901318906,218.02494802776596 484.2265779889696,218.91533056529283 475.58011469313715,219.2875792805138 473.29398606039683,218.5534528478895 469.4955957023494,215.7765950656069 467.06531657335717,212.27753200795746 466.8365943872279,208.24250428483924 468.0569793472489,204.23143059328822 467.169594917804,202.40744507414627 463.19793792330097,199.5814656527292 462.1414869710615,197.11275420882816 461.9141098952678,195.21959832256562 460.405311363788,191.32103200626602 460.4003925119376,189.4048012163513 461.395325341554,181.98461978152181" /><circle cx="174.69428880862668" cy="189.88520572215964" fill="rgb(100%,100%,100%)" r="16" stroke="grey" stroke-width="8" /></svg>