<?xml version="1.0" encoding="utf-8" ?>
<svg baseProfile="full" height="1024" version="1.1" width="1024" xmlns="http://www.w3.org/2000/svg" xmlns:ev="http://www.w3.org/2001/xml-events" xmlns:xlink="http://www.w3.org/1999/xlink"><defs /><polygon fill="black" points="122.8824948380362,255.3303782937453 138.71037198817186,251.87237334347117 150.37423705511293,250.4027947089449 165.7734932386037,252.61679704496493 175.41535957650441,257.660747043197 181.83785818973976,269.78520799300725 185.7059448501447,288.4468672733295 185.24137339768762,306.9630696571352 173.08219646320993,360.73579943447015 172.86551408085546,380.7639514878885 173.99096717268984,395.73933877651615 179.3681919852453,409.0493927087838 191.5857693913767,415.3511534309578 205.9565499114205,417.83218841954175 222.2869630424147,424.851673285285 248.01486663271066,446.47446639249006 273.8633149542663,473.4979351920183 289.4934545532354,478.39606511149805 309.3551711572954,478.9373789925844 336.2823425864839,474.8708575485622 373.2393910797639,459.72350582089564 397.65659220850927,450.80948185205534 414.2572096876905,447.6501940010811 430.985197981687,449.5984200533934 442.4129154000273,457.0796574006439 461.6569243309811,480.6098937205449 481.3007916668508,500.86271364305196 512.0431486012577,529.1562878597821 544.5522863489759,550.6340470030661 579.1436608297436,560.1990736745008 617.5127157505418,564.7693702266281 649.2664540569286,564.0803184753102 669.6536824827657,564.2958345333813 686.8898997467122,568.6109350150406 704.6285498314311,581.613784656783 719.7602212610478,596.6364906904095 734.9133958932583,610.4751039141778 764.1617354395697,628.8255780844968 780.5842702697076,633.9910138935659 808.8807811084313,637.6643710731681 840.6030888934753,642.9073927238155 859.858120828956,647.268035521703 882.1689032596929,654.3739646172177 940.2697700890045,667.10188030412 977.740211711563,669.9268290801382 995.8424963808714,665.8013916378377 1012.4161164873458,656.8649026279003 1024.0,645.9625606063906 1012.1204537940176,628.9492627338828 1009.2390172563777,619.6350302859194 997.5325663188621,593.1789647414835 982.5181239717368,557.6917610377652 982.1727521863014,557.8486616795254 979.6081855513116,553.1964319699507 979.137748828251,551.9548754340631 975.0650680406075,543.9703754178526 971.9739539018501,539.4155488024093 964.4921116429686,521.6447459292506 951.6455208131424,494.4992017817759 921.1444128239907,509.2110496577293 894.3481311168524,522.1115060982213 883.1282718143437,493.4802936293888 881.1522708999607,492.4224334826091 880.5898980991988,490.06772422565336 880.5942310610329,486.94643114628536 877.7403537097059,477.55880435505674 875.8558424378923,471.75678589457175 868.6137463916596,467.10064999089116 860.787319050129,462.63221260244643 855.6615690771722,458.816950613361 853.0829788049471,456.41317145218466 849.1591187435056,453.15039749116215 826.4971917882195,430.35402974025175 820.4498447859235,426.56198652757115 808.208691185449,422.7107223583629 801.6226536836542,421.1454897206239 794.0042199987379,420.8770385602148 791.40779619097,422.14489177267296 783.9309558185275,429.41715479852695 782.4658515496735,430.21683868985326 756.8557115416221,445.92387257395353 751.0332290057067,450.1607843709811 741.2017820515376,452.35333420311906 713.6554072298136,452.3495528162038 693.3538836206565,451.33816979804624 692.5270197175904,451.6943186290292 679.0827059363935,452.53071001677984 664.992592285695,454.4343906795468 662.811682294777,453.6464119770471 651.0870340469498,440.0831673325838 646.5300469851052,435.7848116367883 639.8729343118554,428.7081311525137 636.1317966988535,425.4763690951035 628.8407883213125,420.605776532373 627.9727001931224,419.73061984513464 627.9384286898763,417.89360930464295 628.7305759056575,414.1030327649578 630.207414018738,410.24665840667757 634.1373257767052,398.68358474935104 635.5339281302711,392.27296026190356 635.8891822940665,386.5436672622051 631.3297270963685,381.3913178602417 619.1712930809699,363.24476981585053 612.0078177258898,355.47596053660624 609.623945446597,354.23296668609703 590.8752501013903,339.27475500905035 587.633857040779,336.4130969582278 584.4515111171705,334.37916075725553 579.1170815699861,329.7582454314014 575.1176695495056,327.3644401804467 572.9394232267357,326.80579220897295 570.69965892361,325.1989978406649 569.3290967695253,322.805709388645 569.6716047203026,320.18841318450404 571.1849120266364,316.7920646218101 573.4264903635888,315.1029573535227 578.0916716426266,307.5610825306699 582.0555834048406,303.01324388130473 592.6533449926847,291.9175992529243 596.6134198284782,286.55251429099405 598.9779126727094,283.73713157630937 605.9831860576645,276.2894984953488 611.1008217282127,269.38293184603714 613.5765984021041,266.8824077152271 615.6005863792162,265.95905078808477 620.8622532804343,264.81239337597697 627.9584412003347,263.98626035523506 633.6293958379722,262.9873111402467 636.2041782896481,262.27025347715636 637.9760826163173,262.23119376947557 640.9950687511358,263.15005595554925 644.3845068243713,265.1521727639178 650.3821585343421,270.24804918767364 653.2361349764668,271.41987505196187 656.8422422806785,270.7464573160736 659.6305385910781,269.4194610244998 665.5785297450958,268.1333276754725 680.9288105931541,259.74245318425596 660.271487167373,190.3147030115867 649.3773652149205,196.74899580728385 638.2690295869504,203.16872102148477 632.423137999677,205.80673737067224 626.0562878864351,207.66988692752528 623.7684113309749,207.7053963475147 608.9776579157494,210.15064242546885 595.7691370457801,210.5781154435561 588.4850217618496,210.02218728208516 589.4592342646979,201.10398730462396 589.3553444247194,196.94247113911302 587.986830021451,191.57462388951643 577.6863221362996,173.59227009139937 571.9076377648769,162.5611300125301 569.8519445621619,153.8344182238418 569.3722118145005,148.49763241725236 568.054265230166,143.34214082880044 565.9951134500175,120.92652337336392 564.0870700853912,105.9052841636285 565.5110664650203,103.86554047925893 566.4338816881299,97.0393260110252 568.6748240364382,89.88759034386169 571.7389581407997,83.16013076169213 573.3771433781644,80.80433170972174 577.198764492739,76.84065715405086 582.5060212992605,73.16150601832953 590.4530732358252,69.32708879457368 593.3371809625337,66.67147116736282 595.3370857223758,63.81042640314456 594.0425307573016,63.18174577811919 564.920058416631,63.80359685946053 482.444866205882,64.9400832705179 478.58163552396263,65.11976558068238 464.0968438029621,64.89833089308843 449.9000607617148,65.868168146176 440.67682744187044,65.74938254678716 433.2318223990838,66.60196086197573 428.5478254971461,66.89875902120139 421.3282546754776,66.98562779101542 409.37058461511253,66.67002719144614 402.22287085672343,66.74016620068767 397.9635684628314,66.56076847708982 385.37158655189063,67.16554204335398 364.4759397174825,67.06751456878271 336.15078229830874,67.50900478335927 326.0607544161928,67.11952159554687 296.62591570301964,67.47697933666382 293.12074135961115,66.98540214854188 290.3318883219201,66.10774316421362 287.08836104027006,64.0435090386353 284.05676223923615,61.442867690561 278.2936466354469,58.21384161549838 273.3451558970019,55.74883635130004 269.02812199734944,52.482470116759146 267.41105679747335,48.567512853628955 267.659613552253,44.029008883232336 272.63758703737807,31.66706112661757 271.2067767414793,26.021509126096248 265.07853022164517,24.06860957640106 209.7396737317146,5.347386751102931 193.85970250770833,0.0 175.43966120412327,0.005476413111068723 165.6862060407865,2.3586109537857283 159.08695364403218,8.09627767457539 147.75407495726122,21.46389191980336 136.26722758617066,27.372223919144403 121.41550424911657,30.05562385158919 90.64526398798645,21.35637839604476 66.00594760649899,11.993721027181778 47.2583524605588,11.428238673344708 29.320521456260053,19.026839467060995 20.799533855748393,28.80992303416167 19.47929206611242,32.348122737582116 11.9213228800214,40.778282129656986 9.955534023619876,46.604692762372906 10.433957673495751,50.289410222198285 15.847383890455655,61.343239712891545 8.745473841784529,64.29438902678305 1.2044799843583136,62.94659686860098 0.7724696105873563,64.95559264152075 0.5419304874574017,75.62786602193523 0.0,75.7059586671146 0.32765825771510115,91.61664951414559 11.666107856967944,91.64658285637688 12.254371244819446,101.3479592833537 14.027446166540598,107.84742271137941 15.055233910333572,119.01058823819369 22.680028342650292,118.63421297406535 29.15367459554126,121.38709873104415 34.77497868564613,124.24692949617713 38.5774392918708,127.43719577520449 44.45948038806637,134.1230388492196 54.116912752504746,146.65177778234636 64.08112439206691,159.30748532096618 76.58691503846636,178.8856945574404 83.9116769361432,186.6451015207084 86.43558512975555,190.48230223119623 88.9062432413599,196.11770780754483 90.87639094570791,202.39236704328687 91.06837779406644,210.84410159043028 91.34882581114593,213.2658802369183 95.51144369585693,225.5085999155533 99.6946858256567,231.89407627241008 107.06342175861288,239.19526256585414 122.8824948380362,255.3303782937453" /><circle cx="864.5328867538832" cy="577.1593791840119" fill="rgb(100%,100%,100%)" r="16" stroke="grey" stroke-width="8" /></svg>