<?xml version="1.0" encoding="utf-8" ?>
<svg baseProfile="full" height="1024" version="1.1" width="1024" xmlns="http://www.w3.org/2000/svg" xmlns:ev="http://www.w3.org/2001/xml-events" xmlns:xlink="http://www.w3.org/1999/xlink"><defs /><polygon fill="black" points="853.7967935455606,180.19907184459282 832.284341576219,176.71408525772438 823.9164243823535,178.43841788001635 817.8018435575559,181.29707826642414 807.8487390436495,192.56058576766827 804.5446938077429,197.0704471415429 795.6370361763716,201.6026981396185 790.0473954569701,200.51676507857974 783.316887952293,197.7578811445983 774.9016468148725,192.7770104033757 769.8335402002457,188.89156152594546 760.3007852491119,183.9109723302122 754.714042272458,183.38534228209016 742.4396008994748,185.72136676790365 735.2051166430662,188.5562143527045 729.634883432435,191.39494133622145 724.0849291538387,195.36793842901295 719.0683174315966,198.1963806740349 715.198073234792,201.58735983575343 710.7334290042455,203.8614480962641 704.0504345715876,205.0354943208041 699.007454985732,203.94701872392352 691.7164828416599,201.20734906933205 685.5235918971426,197.88413065768714 679.9152898392625,195.6973201833041 675.9872192555579,193.49270985496696 663.1203905768981,191.35376776324722 653.6050383061906,192.53722667286127 622.7942868210305,189.45988329282648 603.6964468513663,183.4801108499064 591.3371684818557,178.56044836055707 581.7458100296835,170.80286545329432 570.4531406146341,160.84131027432227 564.224567904906,153.61303524171524 558.5971515667126,148.63643446260642 487.80454555780756,96.12075693230065 476.27623680053256,84.97473176618143 467.34242247761375,70.53905372809243 455.7926224754166,59.392321491953 441.8016128471089,48.29781294446548 403.2135537739126,29.519045744328423 399.33600829827583,23.64322146949371 396.2555282755775,12.061138463872453 392.170433880001,7.806489199568432 377.09747161715546,9.966269717682621 361.66290611366986,4.822277575595194 353.41611448207004,0.0 349.298311951078,4.305372075616788 348.12487612853164,12.474710900616742 346.4982634507017,16.81289298434399 340.70604238591307,22.5384884453631 338.4884915938594,26.690908880701045 337.73304906136184,30.71724301616848 335.32397022264666,34.32121818901874 331.0981961733894,38.967079653220935 326.51208892689965,39.05056446217702 324.0261468080461,42.633659535826155 323.6110077079644,51.263998948361746 322.2547996974187,53.63078994109014 322.54641861041443,57.17904455853625 325.6026797212907,65.36567934480854 324.97236617008116,69.2166716327547 325.85134525575785,71.73305037667501 324.79575961736185,74.46349380854633 321.77390506405237,76.56172727915657 314.1319169497618,84.7049999850633 310.33178946881134,87.45969933517938 306.4219315691869,91.89491853084235 302.6415909249756,92.12843487900045 298.68124879594933,90.75910504731416 293.5363612022291,91.60956167950565 287.7269870155424,94.210265644576 281.78458076831686,94.4996179394326 276.0600279695118,92.70388929156888 273.6662540322939,93.58355066851709 268.5323107072445,98.44724944486165 266.64948946628584,103.62077047718947 260.5511560715193,106.64490757427257 256.94628044343466,110.27636031081181 252.4189610451354,110.36934492787168 249.49423637213096,116.5716655447685 249.16000250574746,119.44651212627343 249.73078272259104,127.70478933458605 249.50990521165303,135.25805552263 248.80656579063685,137.24802204313346 243.23208356585616,145.11191995207423 236.15941642503222,148.56282959686132 230.69703144063942,154.13818556667798 228.62800766115268,156.98871204557508 225.44392732699728,163.25806870953068 213.46967497311218,170.12470247352348 209.0620262987445,171.81306620025998 203.73954710308655,177.04871701695265 200.61247034004077,184.87596870222546 193.7197507641082,189.9842094266885 192.44083970525173,191.797329843101 191.48037577477407,197.4877517158294 191.6360804357919,203.70761515645768 195.90978238338175,214.6687785981793 200.62932079321908,221.95797190705923 208.27494188508314,227.9794523076181 216.91993323593408,231.8623083587289 222.07635145814842,235.9135782264375 229.14732944095203,237.17767205429686 232.68343195674473,239.00893471310042 233.90008385278114,240.93966864729316 234.8622733165978,247.67894419834317 234.24214784973267,251.18527529809785 235.147953638853,257.1372672434295 234.99706427990125,261.89539656249224 231.2002553755399,274.0744423291179 230.53483791887325,278.5550551122675 232.2367601329713,286.1149189211401 237.66839071732394,300.51984187268863 238.25314746031566,305.18599120800195 237.61531713863843,311.0521714676124 235.47220012834012,322.0366844045468 229.49707529229653,342.9288553200731 223.2054617472788,363.1912322245005 223.75800490122293,389.2989374764817 222.47134480345298,393.02288212834253 215.56560560928625,400.08375249798394 210.30782436698308,403.66384814477715 214.88442547862218,427.8476786762193 228.4681992668194,457.8557675229031 228.22122140425688,486.7183345437322 223.68858128054967,506.02343165337413 223.23650810324355,521.1514822609622 229.62646308210915,532.7333480519653 255.68374403705153,566.0042250096465 255.32209403886765,587.3263174096162 243.80626687071356,601.2551185422169 232.90263256705504,611.0378226521426 224.77862237490015,658.8417005121993 199.79800782967672,658.9981603283718 191.20649264672747,639.1821257994276 190.26907785064378,622.6920938301895 194.1142387828057,603.3864803217097 196.61074533297602,586.168064137883 190.87288817402938,571.8204562170165 178.35939554978225,566.506336564114 160.39004155906332,565.4025067296783 143.79995361735948,563.5907169457798 127.09972840322607,555.5962585773682 116.49601958709552,538.5793474251234 91.79988435041525,521.6902127481676 103.1098420452543,533.788569879028 104.69987248296854,536.8759675296582 104.81029480218491,544.3163047420564 100.9317361004635,552.474589423801 91.51971409769472,560.8365893404894 77.47645548840707,602.3815031968877 76.76167841661669,606.8498207449259 76.96237605971677,620.5155530759587 76.174719674577,627.1516156072312 73.45053633769864,631.371238598826 65.7444176221297,635.5295491186133 61.41391542651104,635.5733217488819 48.68383581162479,630.9936251547026 41.24796644319816,631.6237725963385 33.42034334356647,635.9070180282265 11.841994434344135,650.247576798272 0.0,662.1678637252483 0.9182176196928059,663.911475035726 4.48030611371813,664.6827625418216 11.603004448382983,665.1345293704462 16.089818205357087,666.8268320795986 17.021579568656055,670.0609745999881 13.519276268105163,689.7209244811384 14.893642269968375,692.9462805602986 20.710781873809164,695.3098936600578 14.299527308870422,721.0870268008508 13.571304925611578,724.7549044608899 15.831463235309757,727.4234456930051 28.43292335081884,729.430719582045 41.894421709162714,730.2121184676545 48.79220085172767,730.9440880189075 54.154938754749125,724.7955928444724 65.04298042632732,724.80036571124 75.16999110243891,726.7066614600192 80.01078716587689,730.581066324675 91.60510080273882,733.689874620505 100.44878158379173,738.5930219740035 108.86829564080575,744.3170313150449 115.31184834408572,752.4929359404448 119.89627784089976,761.2330927389373 120.72748727925823,765.6907452450282 120.8219011719413,772.0405611602141 118.24927892213594,785.3277692935419 117.25065348164473,792.9162224976895 116.9021190308874,799.9533456170446 120.69412975904035,815.4590581541861 121.30779470837354,827.4886660677331 123.88455182692852,836.6514239485143 140.56115490706256,867.1657671488765 141.94922457374443,878.1052977240242 142.27264078705204,900.2820716135747 141.4171124717973,909.3543878765472 142.34775310901406,911.6437948316266 155.85883031387945,931.1074828470014 161.73762038973254,938.8782819258385 169.81620595077737,943.1168870135999 176.74443280243418,946.0061849207405 184.45618903315278,947.2681344976942 188.49424403439042,945.2940124883266 204.08507464796776,947.2773890188327 216.8853051198077,947.5259938926985 220.88641910756368,948.2870028067942 225.26922292631457,951.2039079816379 228.14467258485737,956.7253858058443 230.74502014551285,960.2014644742474 236.22139401577616,961.351866544347 242.66393742124873,960.8621839692014 256.53321999330046,958.2516693756452 264.81634206811253,953.5456890754278 279.59225981177946,944.0044521740598 298.6045610090373,941.3008544426141 305.3820686803321,939.9889075830271 311.056704051047,939.9117042631509 315.51924775449686,940.6538196105623 323.76808034620416,940.5233960720598 336.20947079264187,936.8172489473548 340.7870049881606,937.6911851917079 341.70281230522255,939.0235190476632 345.36191091284974,951.5461763699016 349.63861806718,982.0445851440878 351.1301657940352,984.4584067047301 354.7375842311661,987.1068391241887 366.2750984661486,989.2183226316461 384.79426701353356,994.5791591011414 395.5014689612693,1000.7553710991217 407.9668876316978,1004.1964637724366 413.53729411316846,1003.4154276016548 419.8945923315721,1001.8210684499626 427.0802354484211,997.7606837599595 437.43192678125837,987.4259257434051 441.6197521196352,983.9728511081411 449.3130142279895,981.7992627862685 459.04242050999096,981.7513174370724 464.6716295718669,984.0863451810566 469.4240819930932,987.5069407733638 483.17068438255467,1001.1805701885256 495.0943949262394,1015.7914552493876 496.38780971283643,1018.2905681951538 504.3590577853089,1023.7772303038397 506.94504577094415,1024.0 522.3557217218219,1022.8999874641742 526.5680274173648,1019.9766759974134 532.9671151602962,1014.168780163051 549.669760260994,997.6278673543386 560.9832775767336,991.4575523201296 574.740638514895,985.3888666607473 581.7570288192323,983.7658973914572 600.0889714416004,983.8323901975313 613.3942143912234,984.9405615667748 620.6501025696714,984.1271336107336 631.4168949325377,980.2877226939378 640.0014459460606,973.3670404676895 645.1650033695231,968.2771645779733 659.1908918754948,959.9137775177657 674.2914397907016,955.3177740872012 676.3195082173286,950.4260332440828 676.3415458263329,942.3898553763054 688.2002903718794,930.4849102520975 708.1302817041491,913.631280264442 708.415225937842,911.0663608563249 699.3735142640338,897.6805020852332 686.4617440143473,885.5949243622514 677.462613844403,875.0576979487885 668.0988671047653,869.4021797472807 664.9525187269043,868.376332064347 658.6113284733871,868.6118738498266 644.9153843356147,876.5745408987857 639.9268652480512,878.152438975556 631.9072303631684,879.7731159075938 624.1008520084955,879.6401194237799 620.288851038898,878.9057446198676 613.9833997127632,875.6301910676394 609.1174555696431,872.0636289164315 600.2874713576407,858.4358423629511 595.7701120736948,855.5413711620826 589.5773509048965,858.7639324830261 582.3167670027449,859.0421596305532 577.9479189442914,858.5727758461603 572.2678636502795,853.2696724575105 571.1676499321452,847.3441007506344 571.5390045610878,843.1430295955488 575.4008032544746,836.7129463598499 574.0460826120737,833.2197531858953 570.0362405884428,829.9158800873706 570.3610353772542,826.5281928860992 573.570217730913,820.5802301203414 573.9599127307043,817.4598457718155 571.55564496486,814.0553489848213 585.1026554309778,805.6193644169169 592.958865547641,801.6801013241858 597.4111466833602,800.8640980530167 605.6778222024196,801.246243320923 615.855555967993,805.9337478020163 617.9339492183836,800.0167569380025 619.3708597538582,793.227480708332 621.188795775301,781.8268138658196 621.0961061180207,776.4818157147512 618.6073031245435,770.7781545635189 606.805356634309,763.3468045069114 596.796329182044,759.2026642291232 594.6489438669246,757.4924288376044 596.002123209122,754.3529336494759 600.739234556571,751.0867623447059 604.1853166447083,750.0097102312586 612.8349180124314,744.3696065762531 618.742751271047,743.5180979945994 624.8299768022881,744.4202903719378 634.3242942527949,748.4890346118045 651.1315972127106,749.9428830685912 658.0102214696109,747.9629083326413 666.2730721352742,740.787389140947 670.6889484849958,738.4475769719163 681.382076854447,737.6222036216902 685.1450009310014,735.2545414903967 692.1160843943642,718.8714360481966 694.8290024762697,708.2812040881802 695.5785077195991,700.148974343394 694.1258126003864,693.1368437658732 691.5373595435353,685.7421745823275 690.295817415287,677.9136545896529 692.7746536241475,673.6797031536119 696.2478393821121,669.8038848150438 701.6662802926987,661.5911369463586 700.689881737718,656.4715899575426 695.7105641063656,652.2259775936662 678.0319828949407,634.397569444076 672.5948370727739,629.3468959602153 668.8888716948368,621.0199735586064 670.5815304835493,615.5775156543214 673.8427535464003,611.4715013812038 680.749255008185,611.3495034893576 692.1494705287241,614.9276862949177 698.4931360074062,615.3909890103422 708.7018752608383,612.4761536067796 713.526252516989,611.9069383279684 719.1949751924259,613.8922078548758 721.5791541710043,615.6969322783316 730.8284403908358,618.418262413911 736.9541733461098,617.2614334354782 741.1553021607916,611.4535252107813 744.7194371248563,599.2192845052632 745.1408684568286,594.6921298145123 742.8421202044929,580.7550585823265 742.6727815561793,577.6051445121187 744.0079193846296,554.4536670184285 744.011293319011,551.2908758885233 745.5302857545927,544.5085382733014 749.1849946637743,533.0436088403519 753.9333815800502,524.5922272132511 760.0102850783353,516.1239852441644 763.6433112447494,512.1974823762245 767.3621956503656,501.92674178678874 768.4593038726936,497.4506582155558 770.7104805477919,492.419160701039 793.0591889617266,450.6980936652526 831.0330413660239,397.3229063509168 838.8496180425738,387.255297342414 846.653647853085,381.6414394242353 850.9910203951698,376.15518616418115 853.9330848323299,369.3500853374454 852.3341696004023,352.86018487903084 850.0280964151582,323.9442445970292 852.5467107081955,304.1537798931254 852.6620380295903,285.7527206727266 854.482713246337,275.98608121687187 858.731519427721,265.89833285329576 860.418159203905,249.0907868199621 857.7953683863666,215.3166894064699 856.421579705161,201.53145729628181 854.0139928905659,191.83872965445698 853.7967935455606,180.19907184459282" /><circle cx="428.34265153129064" cy="442.54539234209756" fill="rgb(100%,100%,100%)" r="16" stroke="grey" stroke-width="8" /></svg>