<?xml version="1.0" encoding="utf-8" ?>
<svg baseProfile="full" height="1024" version="1.1" width="1024" xmlns="http://www.w3.org/2000/svg" xmlns:ev="http://www.w3.org/2001/xml-events" xmlns:xlink="http://www.w3.org/1999/xlink"><defs /><polygon fill="black" points="24.72470571448885,731.8528756290833 14.581682846198987,738.810708642317 8.622003828385484,743.4950756720937 7.47971482570031,745.42806197101 5.733234716741908,751.6783906208884 6.2351470457666895,758.3839264589269 2.9374541824233242,767.6535388084749 2.320957532470137,771.0599809147875 5.639075856668672,781.1976981317582 5.404646409752133,785.0292365900341 0.9872972594449224,791.25868603359 1.011895229306185,796.0906673966446 2.2935080414219615,802.541517149097 1.9396006946746613,806.5470614331016 0.0,815.1124838809892 9.947284265620624,817.0756419163724 14.11738742944578,821.1541249170873 23.98362352408594,832.6857664305935 31.409626165916062,840.02093356914 39.73038376483958,845.673218791844 49.52321311018613,848.7042169832494 61.45459046645872,849.909548695958 66.27844359552958,852.2978990892051 69.46422273282612,859.2875578633822 70.67826641178449,875.376307393531 67.1045676888984,891.5756190098393 64.70629348790062,899.6287613137487 67.80077791659299,910.865778664556 71.8821438166232,916.1845900792397 75.4914483550615,927.4677908053286 73.19271982591646,949.5093060083464 78.28317857884737,957.9137144764368 86.84076363043575,963.5937353961057 97.64742918698333,966.2245006627543 112.4736419514405,968.444737041472 120.82250231078378,970.3757568198164 141.87993163953936,972.1245600507423 143.33588291689222,969.7493928700061 156.46466461875724,962.501993118942 163.06124148353825,969.7396096096605 165.58820079443717,975.3388038594492 174.4548570158524,993.1842057833493 180.8679679606999,1002.9150775186456 193.92142809498688,1014.331692280899 209.24111331107767,1023.805928460644 216.3583481565645,1024.0 224.37539112265154,1023.707718634082 231.57060239661638,1020.886984845562 237.45835357798023,1017.0166682553017 249.36815029897525,1004.2530246045043 258.31156330198036,988.5561520522817 262.5574200742622,973.1769726110278 269.80218129217513,951.7844502419348 274.1325527222534,944.634597467461 282.6870432995494,938.0784999649602 288.9422998151962,938.3285760355043 294.63513981917225,942.2824703681418 301.6990655329047,951.0761861081479 315.0675550619814,956.3715572246649 326.3118239995332,957.0026270314236 333.922417572329,959.1075550237993 341.48083537906484,976.839959771912 343.14891281510495,979.5226138967271 345.8801634079352,981.7855762257923 354.5921869913624,986.3400357576512 358.08261489674595,987.6175887180794 365.3475149531641,986.925645914299 374.13900451384177,984.5088589969863 385.9041699872872,983.1174390997822 396.433294413723,981.4774635013966 404.1816931693999,980.8046767257915 409.9336093596352,979.3699496367238 414.1885376586225,979.4093471685487 421.1490411364557,982.2288018279692 425.34853010104746,985.5090618950661 430.00110928344054,994.2804201032507 432.706654626745,997.0483305365295 436.92809159116246,998.8378031405754 443.158297506846,998.6643751974282 446.4205083454393,997.4577810153683 453.7706247650396,987.0881033315707 456.3132658261588,982.3835581796205 460.1912764568025,971.4669680209993 465.8095614534604,958.3341057742404 467.8696406255479,952.884029241601 471.4266701002924,947.4497033339179 479.22540374891673,940.323286015186 482.970926116186,939.1283426444492 491.6861246168925,939.9951223574135 497.1219097080513,943.8084457007636 502.0701509944128,945.8595056342858 509.0424712634538,945.2043903813586 514.0399277589307,943.5298396658943 520.0195750268164,942.8716740825924 529.0418672242424,938.0072333131787 534.0693442673758,934.3341329540232 534.569662257914,928.3938220534159 533.0357666739602,910.9279147856464 533.5957429200043,905.7033272397364 535.6624240116099,898.7553826265806 537.3045503207006,889.9144138200483 539.7393392212101,884.7341831655522 543.6432019469765,883.0758298188504 555.7427171045988,886.3027246995395 561.9670541467777,887.3869052747368 572.1456830097928,890.2472945371824 582.137078703687,889.3677664901654 590.3097380084274,890.2880416664711 599.8129720556777,894.3005057305629 610.9260514471104,905.1358516394436 614.1250549689647,907.9093687833137 617.5576919154529,913.4191096136011 621.260089241015,916.7005125104693 627.2494758092215,918.2519352359159 631.0103829295218,917.5388050074657 644.0873033372089,910.6983064673665 647.1195415283665,906.9885461089527 648.928912856125,903.5202135828926 649.0610244479558,891.0649856942171 652.009402436142,874.4004735292896 652.5949336795209,867.430373480002 655.8095034637751,849.2746384795006 657.6156821892803,844.5569979622001 658.4678517624786,835.0911423498707 658.0277553301073,830.3553746743111 655.8523305119724,824.1026178513259 648.7569361878185,811.3294217393886 643.1425901352503,799.314855027566 639.5369819515148,786.0726500439195 639.1124723068367,780.346569044631 637.6897078432211,774.3503037849811 633.2912348424201,765.580261591781 630.5977430442683,762.315887414459 620.1915331993245,753.2451913165071 606.1423153930931,737.6424758844123 600.448256025329,733.8450247616431 589.3239923213265,724.0023388638506 588.8674580994154,721.5020644474714 590.4371169225359,715.2870738286047 593.5274421845842,706.5961813309711 594.5847039031685,701.6296493859161 598.2061179348959,691.2056978130742 603.3323922880436,679.2991175315893 611.2523533553248,669.4084374756842 615.6546733303969,665.7069879037795 619.1847271891921,658.1868092282377 620.4005222311367,646.8241197073069 620.8071896434103,638.861497536791 622.6228949765693,633.6466808239961 624.8100690533267,617.7154793869433 627.4634471829442,604.7782280238544 629.0158456837627,600.5609665681019 632.0494069141355,596.8522077039108 638.1069066846643,591.9306236982482 647.230128478487,581.8043562415733 658.5441740316642,576.928873871263 664.813586445498,575.242075492311 674.3227170246045,570.6652709753737 677.4414317116933,569.8581220284141 678.237127260359,566.6249595338024 676.8363351748739,559.3812720107453 680.9191421133243,551.4458661149995 684.3834718457372,534.6445276261227 683.7609421393067,523.9553058223313 680.2497528447282,507.8506627135007 680.0354932346106,498.1315001099865 680.6592413504711,489.40073864307806 683.3444526557557,478.4477569418167 685.9070394989132,469.9785226638826 694.0966210475431,454.1091027510081 697.6883872795934,446.41699813274727 699.7580092636509,440.7004132560768 701.5920386485143,433.7424357585346 702.4293444734295,426.52652836286927 704.276386000069,418.3130749010926 705.3709006910481,410.34068635485335 707.2164058089162,402.13804865699683 713.3891101536325,388.9946577744223 716.2279462826692,380.79530864211347 716.0740921100286,373.0552748058651 713.2350117286553,360.0668090265202 714.0608416045142,353.33876774034 715.7996884040218,346.1883253038692 725.3853080618721,334.7939919437723 730.3465827023094,331.37037751704884 740.7585073404066,322.0326848235144 745.2886636322302,317.59126728480214 749.8116530602016,314.16825037774277 756.1493246630037,308.2534651977628 759.8202028371473,302.7840094403332 761.1530001299135,297.5530438764064 762.2561444737429,289.34254021164793 763.6946188907731,273.6474429443798 763.8025701881953,265.1696650489247 762.9143296195979,256.17778843818087 763.0819680638559,242.21853399687382 763.6621159494388,235.24585646376033 768.1083937322749,218.84179716558992 769.173873935031,213.402786661258 764.6460022897973,211.69014339942692 754.6731037267747,206.92659585007232 741.4523314759961,203.91208258251083 732.2350841081299,203.154199824408 723.4907327499171,201.39812231866654 708.2385942111567,202.15102569199678 695.2424853214181,201.90305852838924 689.4970914630169,199.90241144858066 679.0016831141103,190.4317677594064 670.0302715587299,179.4514883911744 664.7962391001498,170.22172312674422 654.0646430236714,160.7451019654054 649.3140818844226,155.76373852080872 644.5674874085153,153.27001751299156 637.5793025945175,151.52619927533078 629.8346624445559,152.27524219082557 618.5889970322505,152.2624990950228 614.5948465190045,155.0084107419317 607.3533293964582,154.748709947551 602.1158917534312,151.749188896173 597.639158894488,145.75288099692284 595.1423480981433,140.0100873578093 587.471518825741,112.79481019670766 582.761254075675,101.79998923876997 579.5262524634088,93.31652841243351 575.0634001162101,86.56350784729557 572.8175203923988,82.0611072155159 560.6336958390518,68.3021223128394 550.706191121003,52.29621764068406 543.5051930694581,37.05435580436108 539.790317810225,29.713718054950164 535.3035807731737,25.456959991285203 536.0080962918069,23.61424681825349 543.2871542308567,13.41471272532715 541.9624707357499,10.086012534832548 527.4647845327427,0.6711442263485878 520.8885997458067,0.0 511.02668268108766,3.295755729295479 506.2672295388375,5.429774005683157 491.95068558769714,21.742309386762486 487.4781236968689,23.153987230908797 469.05987606036405,47.247740568937274 463.81952271795404,52.97576290004815 456.8307408819021,59.205534233263506 450.07934290704844,63.68443274346532 438.10179496448285,68.67128863914957 434.34911880748933,70.91129650050584 416.6956696892584,87.11289340963788 414.3667809414267,91.59766932296668 409.0777062504222,109.33236342110547 408.8108610960106,113.70532027721606 409.2058632855021,120.46999552550244 408.72541622965605,123.47056490642717 405.8518977316847,125.96885000158261 383.3097027140967,136.057383644487 379.99253621985,136.7146379316829 374.19980875527193,133.299479613735 371.70674697703606,133.15395020991207 365.5880028917561,136.40360118905846 358.8000947533636,143.46112059274287 356.90942144236686,148.34986125092496 350.258411183771,153.54955486621054 347.90107947386576,157.23322995981857 345.95918516166194,166.48298241445252 347.44268491131595,182.09531346445374 344.28765190160635,190.24512088508823 332.11127364833055,204.61792419008452 322.62642757041505,216.87899690772463 320.5610100228035,223.18662211256265 321.59181054343014,226.13546547658495 329.52505745441584,233.42943186011848 335.27681977448105,239.83412171024315 346.4937991093917,248.86877743931166 347.0963992037355,253.89679569709642 345.7331520632236,264.3325834908169 346.5563061567252,275.22505858776333 349.42501813475116,279.0563662341607 352.60618049120666,284.5627434052244 352.6279205703492,303.3665847713462 353.1324932636406,307.2619931966159 358.75940317183154,317.9293757673621 365.795915832799,322.8958990782012 368.63740719475817,325.7894183781714 372.60090584498755,331.1220664458874 376.3027698603111,337.00373390661525 376.3857170245625,340.0139834829798 371.53049631439586,347.11393121632045 367.36105078019216,349.3999669798434 345.6369896310581,355.95211813058074 339.65663902330573,358.33506851685445 331.7533589083344,364.0079020899084 325.63823350619344,372.7971050347986 308.19907867208013,389.80140779456485 301.9650771747569,391.68240255960586 294.2220919792966,408.5543266807588 292.28113570798075,417.5351253058526 288.2022948813944,419.63614206898626 283.2366023646626,424.2407994938882 281.72772964678995,428.996285027058 277.9624904873565,434.39518568860717 274.7025870207954,443.89112883916675 273.50807720959716,454.8226845001351 266.4045541412541,455.72155334771355 263.3549128603203,457.03490532230796 261.3068451795546,460.1067446521746 256.7016074276673,461.2154348718128 251.88202608027134,460.6673123282875 247.85048294099843,459.41834796717467 240.27805860891462,454.52790065915747 236.6692596008406,452.97953553310015 230.78953115843487,453.1979017094437 226.65914446548936,455.15207067569725 221.26881028991795,459.13642553034265 215.68855469160107,462.5891300385 190.21284301062107,472.8921129529257 178.24671842116317,484.38741442047296 162.02972457651992,493.12720172960326 155.64524502848516,499.7256343499531 150.42692419309506,504.1360048011968 144.8488335832968,507.0506277290309 135.4314144751122,514.1149309298676 132.45618300007243,518.4207453367125 115.52531779027922,531.453173622773 112.82129418304183,536.2717814109174 112.6223256816891,540.2825604791256 114.16546268579832,550.1722148698605 114.38727696608741,557.0639848023447 112.06543660730112,568.3686401538987 115.02456342364188,580.364399035612 108.1493069459961,598.6839977728702 104.86895247784737,618.3028162821735 102.95453651548114,623.1786927687579 89.00706610060064,643.6686143544066 87.79262010446112,646.9207809081997 87.3975636267974,652.5720975024863 88.04727196284384,664.224977052397 87.19122319543493,669.6070333399007 78.95523158032105,683.7377290620267 71.68509928891127,701.5048832278338 67.6123859288039,705.6014186165371 63.89033882346561,707.1020817685269 55.274061502936945,709.5749051378526 52.8998386406773,711.525566481627 46.2720096199323,718.8910546407363 43.84293269237522,720.3744631663587 36.946516773587014,726.4822107582443 32.49258094944381,728.7265934337022 27.569016664627664,729.8841282719297 24.72470571448885,731.8528756290833" /><polygon fill="black" points="618.7798588098095,743.7880817125088 622.4445719921798,744.1184412531868 630.6680710570098,742.0090038502487 632.103894998071,738.2793486254293 631.3356218357349,731.7517543826935 626.620650441035,732.8136409252867 622.8550230180948,737.2856438146987 617.9968989918166,736.6185259202032 615.9766979286311,737.7515691814308 615.8923893697988,741.1495011987251 618.7798588098095,743.7880817125088" /><circle cx="512.9804146856732" cy="527.9386211170995" fill="rgb(100%,100%,100%)" r="16" stroke="grey" stroke-width="8" /></svg>