<?xml version="1.0" encoding="utf-8" ?>
<svg baseProfile="full" height="1024" version="1.1" width="1024" xmlns="http://www.w3.org/2000/svg" xmlns:ev="http://www.w3.org/2001/xml-events" xmlns:xlink="http://www.w3.org/1999/xlink"><defs /><polygon fill="black" points="558.0619727924434,201.6457723486085 534.8028023702445,210.755246082594 528.2637592817262,213.70066744358212 516.7034339557197,216.3079431416087 511.2572261517287,214.3399814240439 504.53939561250513,211.11518599869225 497.07661158182333,198.9638118424922 497.06698475011314,184.3273923520519 496.3112245597322,176.62671050461938 493.2538754575839,168.4004424678776 487.66589948344,152.44189963774397 485.64450532795,144.71185488475942 482.0557335973265,139.05588822893526 477.98492622195727,129.79281933216566 476.60220775110037,97.88964880416552 472.5095789936004,90.16717965825057 470.47814018653156,85.52647056301714 467.910380726059,81.93641841000078 464.84427604632407,75.744704321776 460.773479841863,68.54526520994784 457.9060768455623,65.21930098612961 458.6519835386943,56.685183946924894 458.254219456751,50.77134666083748 456.8445761086467,46.649174233240274 454.3894962687891,44.614059331129056 446.77721630637694,43.7176238423001 442.1269091589367,44.26050832562942 438.3836171704546,43.477633129389574 435.02784019853993,41.947043881503305 420.87019201006296,33.10704736617902 413.6305102154002,36.268665165019 410.2838548898895,32.62617826914345 406.447045340364,30.156530973619738 404.4505386490294,29.992769462409115 401.2688905148059,26.91012158907654 396.69931068581013,24.837050154715143 393.60507792280214,24.773664258775625 392.01199899312326,20.41971302514878 386.570038463561,19.077242181419138 384.2497231705191,13.872025821218813 382.3633644211827,14.154786040288172 382.79654875878805,11.839075833732295 379.7527225975949,11.846063845813546 375.3983840912803,14.458940498986749 373.5092621392233,14.035708789383875 376.72312638466116,11.270323057089854 376.0541162308394,9.677895572201805 372.41898911030165,8.092548792004322 369.52077280087354,5.923755152919398 368.21512858663516,0.714578546731218 364.1113107544226,0.0 361.6340876579297,1.17009248168074 362.0727617484853,4.335547875831821 360.9067681325795,7.335573396041809 358.7149705850928,8.47801056776359 353.85625264493706,8.992165953266749 351.24278819686526,16.537091350678224 348.98481834043037,18.735501040036638 350.22506240260014,20.016568932375776 349.0683541932815,23.05670796312711 347.62078220319825,23.70769599928576 343.01598742049504,23.315655790481628 342.0902391939133,25.07955210110913 336.1951454583081,25.01718832820984 335.235904818957,29.65062570456132 339.74633993209767,30.05657160319049 341.83806085765286,29.164309165745976 350.68001640024926,30.7289464966301 349.71539165816677,29.638634133242704 351.363115014105,27.044500970749368 355.59527422105594,30.173011378775527 354.6583462863794,31.23133019368845 351.7020604521728,30.765602103288757 354.7745679873062,34.40509704019712 353.40493219951657,37.81945683715696 351.73244463193436,35.83458948583473 348.21593435095616,36.325211484730744 347.42632496836603,38.95795042810187 344.70764603499697,40.226101101474 342.17900448492725,40.230317802146374 330.18986749618307,42.689090949671254 317.96040946167125,46.42326644434468 304.9448498011522,48.22948034005333 296.53680773071125,51.06659966085567 274.8711517586641,52.104665094373786 258.4100023224656,53.56433253038142 253.26518594427424,53.52933251817706 246.06330257976657,56.07706817774044 238.85592895227086,60.139826814930416 231.6391049985918,64.73751107470787 221.85475624164974,69.81684764203919 212.58190267713238,75.92820017068595 197.65779326228687,83.56348646147921 181.69979650554376,94.2553124909823 174.46861003189667,99.87331997597278 163.65099120671456,109.56681752750569 157.46105438616848,115.69348697476482 150.25718386378222,119.25260800974115 142.53010321338718,125.36437780453059 134.80540743758957,130.46180248203837 126.05002209378969,135.56353831766387 117.82126402595756,139.62692364197483 101.76213745311074,164.72853503226702 96.09997425490114,168.29951493313763 93.01390888199205,169.31773177876198 87.86205987957807,172.3725961959401 81.16220947322287,177.47398087378963 74.44478545255708,182.07416906390768 79.0290820058976,197.4374546369188 84.28889939540909,203.8330771443085 88.75565213651032,207.9523561880835 89.49052555095986,212.3227958975208 89.47341124937515,236.41468135119896 89.02283736961596,237.28643856359122 84.37955051132246,239.97368076403745 84.78957833271718,241.5217150182416 82.18811606952468,245.83028312836188 82.84462937267699,251.11753062944967 83.76360073560387,251.55865108032162 83.56757506157184,255.93111715095597 82.41390515368676,262.7295218520984 86.09097344541688,264.24219712153 89.91594149670019,268.9725760304095 90.24333017556705,271.82639386045685 93.0074458977097,273.79237430930175 92.27160462942327,277.687727885982 90.2121901797591,278.60923149717473 86.81914505135775,281.83977388213634 82.18238381126073,290.7939880532135 80.79937984923906,297.6292870859843 76.03417022972712,298.25769631550247 70.30605229443024,305.03224966749565 66.72736925444258,312.19833444691517 68.3518169572849,313.66808519862934 68.68190758180674,322.46538941905135 70.03725353678684,323.22218693556965 73.31737951103986,322.9598140384106 73.31576821396013,324.4165145743964 76.5755236856457,326.05406587350853 78.85103786013497,326.0492936534621 84.54721168069783,322.76403202646634 87.87788341280309,322.5203717048205 90.16006883157307,324.3136296778413 91.62535281793055,323.015236175504 90.16322250117823,328.0586375241262 91.13248256933535,329.93272799501005 91.05493218863782,334.49342270419606 87.79843066227109,335.1040277711968 87.88216654345624,337.379195627018 90.40362590291646,337.4627997075711 90.40135952765476,339.8254461143172 87.96216755771992,340.1490001879231 89.589741359816,343.8978940152209 89.7551574848336,346.6251936017153 91.54007837721576,349.72290220822117 92.59876135236887,357.4260217629097 93.57419478734874,370.3890672718562 91.9018849104217,371.4338848869314 93.35397182528517,372.59956633635886 95.05955203394876,377.71330347553646 94.71604855860961,379.25012218194775 98.69996420374477,379.0940763915539 100.89743127066764,381.1365251836037 103.09783341609327,380.91968630991767 105.77760670483634,382.52789159439203 105.45063820987937,385.90316609018635 107.23855796204661,388.5195934290473 109.49974754652835,388.166332848706 114.72030553930131,396.7989197167344 113.89743770465738,398.38103185102955 115.84848335847897,401.44304329486704 117.83723691448154,406.42837778052376 120.46727653065683,408.0285636559863 123.40922382610236,411.80845818100534 122.83954382840814,413.42273118055436 125.30949698022799,418.2008213552208 127.78288039755392,420.9646218635892 127.21321162610512,422.0056798909991 130.93120675977679,425.8993654661797 132.24637567312192,429.9544139901881 130.58907842377624,432.2131610145693 129.42975573709208,431.96463641130936 127.37159788397574,428.8603904108131 120.76024316512688,430.8989673360145 116.86262397919587,431.4648061231467 111.75377586166601,428.32354497812867 109.64596517090817,433.9400583300144 105.85293213951,437.3579874696186 102.912050728177,437.7364242264031 98.82952603506584,436.79785774464176 92.35097086569759,440.87536448029687 89.75618573023787,444.9633485433136 85.96794086242487,444.69403757477914 80.34216067067636,445.1764788201052 73.30233650174738,448.51793794731054 67.111869053823,445.1019427348331 65.22515687233171,446.4819342801891 64.40153077235361,448.5762711395075 61.78261878178476,447.5188574530739 56.02030343536257,439.1604046245344 53.67457578010244,438.97083635346564 52.221960012142645,436.6223884814067 49.0638367548867,435.7101373495217 44.43565628025559,436.8353552891565 39.040476630726396,440.71191337164294 35.854340167904006,441.03413826980193 33.51205190557069,442.6087678595761 27.457752658097004,437.5740692733506 18.275330086133188,436.3506034963028 17.641403222179633,435.5651974263602 11.364252869790432,432.35364550315387 5.328128787407168,431.75498613496677 3.475746180016113,434.02804827865805 0.6726745051494855,434.2372201437015 0.0,435.42176896478895 1.0676776968600268,442.5855392043678 2.2035482877891037,443.9887159594066 6.442110996488476,454.9808348427006 6.335920364047513,458.73273203329586 7.198573688269789,462.7992134198846 9.066797042613436,466.1566362994896 9.02049515776006,469.0641923603439 7.109692626113691,472.5592152718847 8.154917815089583,477.7026517550454 14.44816695185218,479.7541521708773 17.165444752643293,479.8345083427555 25.166415160579987,478.87621797308907 29.95124141438996,476.9971976722039 30.974872706020424,477.2811338371505 27.683321397411174,483.24551835456555 28.40793987017908,485.159444269661 32.465608218194,487.66277147478434 33.84950392779758,492.8992845556222 30.045343239971757,499.07129909480057 31.586179712545405,499.9387909645793 31.675257501804584,504.6931858685716 27.609743064034134,510.65544994444633 27.725912362074375,515.3170389958907 29.407323847008012,518.8539727892609 26.388639818085302,519.7474332478489 26.25414992547955,521.9085276664707 29.55221790423825,527.1744036094316 28.424443385996522,531.393094113482 29.131264633336016,536.4521924959558 27.541121476905747,536.8176394074562 29.50740535638683,540.6154001951376 33.012318620690344,542.4349022693104 31.81410968676203,544.5377809050594 33.302361813915255,547.7914903626148 35.342218098160394,547.9301947293043 34.931176026366785,549.953925195214 38.05273702749462,550.7640419527654 40.11079673493665,547.4787608474672 41.84831507969956,546.9748519906616 44.47400519461671,548.331490219575 47.26713074863521,545.480625392606 54.455927478225426,546.6980936290354 57.13713213130316,544.6117100569411 58.24702400651258,547.6471080776937 57.59071915724643,551.3626180244534 54.90949695116992,554.4065973752411 54.04801598013203,558.0122834972872 48.62341510048083,561.4085585238911 47.25849318040709,564.5877164706161 49.84932204257669,567.1679426361882 49.98462171934287,571.3682693346535 48.62407527956121,571.4295388596662 48.62461266113236,573.8774532328391 46.60024478147037,578.9715682506941 44.2712837152409,578.9948912158696 43.63959016875835,582.0128895008711 37.568691238831725,583.2861929855906 34.39096473801699,581.0679447827647 37.286222063390014,578.5520954094993 39.19260873612752,574.611794263792 37.69044714499035,573.5074059568301 34.39205689770294,574.695252833662 31.789748865291987,577.3772686901623 28.858916482558644,577.7853620363119 26.90376443123897,580.6162223695353 25.795519407374965,587.7655814617474 24.64994042216187,588.4397587218049 24.050337174528412,591.8862380649368 21.36272623860299,592.863931712222 17.724078629884783,595.7362268727975 21.358683892895662,601.2844334763948 23.352114356799365,601.925687867213 23.26777033996612,599.5022394975394 25.002926307656104,601.6825371151534 25.573344119097833,597.8748378872224 27.40115733743283,597.8747813027273 26.87892281611399,599.4492538077297 28.4183038678755,600.5843531853778 31.720569105541372,600.1271300350646 30.848530705635866,602.7280875296344 33.983603906752464,603.7021185850795 30.45148344021609,604.1040776099737 30.044248473317708,606.006300439527 27.466972146755715,606.8264023320835 26.65598766717972,603.9771304799331 24.892165571425362,603.977925618457 24.301228224807996,607.2803338416848 25.028682175234085,610.4822320479175 22.61960994258602,611.6894377652864 23.42225961542645,614.4062993274393 20.15841736353643,614.9658293502771 21.36197860042225,618.6174289440667 21.230905298123993,621.6033674735688 24.88715378955959,620.6435257752412 26.363191241022545,622.1712594946501 22.604129135788593,622.36252879997 25.18027423406794,623.9994383683681 26.387648369766172,628.1027330227655 24.88916743446002,629.3201302449202 19.12489188134397,626.3100469691934 20.278408694388265,628.1128567379269 15.957368762344661,631.6056482854144 16.546603558197365,635.0468209666533 19.329311126335487,638.4075990407091 15.391778638277724,638.6837564621267 15.390160547923175,640.1741032150414 13.35518483255275,640.5924156821135 12.543368801128258,643.5739576745495 13.76000377327459,645.3348854756763 10.81674123005974,647.9434657893378 5.210389361299003,651.4455892539618 5.754748899792804,654.8271397586499 8.585049589489163,655.6155026466481 5.75519949161219,659.1676606725056 9.008530108676373,659.9754097496284 7.1085982399993535,662.4157642337957 11.040487130029772,661.573534052184 10.964735984500813,662.6340196139633 8.197935687432528,663.9122069677753 8.744316433771635,667.9725428655652 15.123623802252576,670.2719270100094 15.118628722377807,671.6184877526719 19.841927108727848,671.4364490451658 21.632986170058278,673.5345882728172 23.12586544507883,673.243488214726 25.798397262322794,670.3735294460423 23.803995873222643,664.8342648737688 25.382724669664007,663.6262659525833 27.170817960521024,664.9309265028623 32.211159625679024,663.9498480302475 31.811259224325767,662.1789233326258 34.52393464957014,660.1507909585376 34.65544086798381,661.7728973236949 37.23175490774945,662.7195544256817 36.15320298041242,660.1440846011556 40.35178176445132,657.8337487210322 43.74293349504409,658.3812882029752 43.339853601231205,659.8720850100428 45.14099570836295,662.390075454023 46.26270369962478,665.5421741117066 47.67071666992406,666.5071238200907 48.94203309764244,665.1195304878186 51.33675191195953,669.012668067118 52.964603755155444,669.0148148324015 52.55237080842782,672.5424063274907 51.07614011140889,674.7170997366188 51.31444845280222,677.1908703704094 49.439704232393886,681.3485288610403 52.69340474295548,682.4341225955088 52.28315551084966,689.1401170220718 55.50986600063901,697.0148013248113 58.24358793684464,698.2159428921015 60.240123357569054,701.0596185438783 61.09361265386367,708.3135416931689 59.19008936047839,711.2581407596867 60.14393333909916,715.495333375068 59.0562313122,719.0298583402318 60.00618898349806,722.1454672086381 62.72055010068634,721.3306896345534 64.3470656184513,717.8755839488686 67.32308834585696,716.9219215617702 69.5942176379946,713.4829948345846 73.15313661900696,712.863854805568 74.44519314114483,710.7337813842779 76.53309689858673,709.881868732218 77.21026806758188,711.7787646230374 82.67809275248055,712.112234518348 83.3089571047799,717.5303681506671 84.86075904519659,720.3640798406458 90.56107787438519,725.2909206034665 90.67823759681667,728.1069681599655 93.33037552919681,730.4311625138204 95.77680691454484,734.6641608326431 96.38407495940376,738.414900947769 97.66099769755223,740.2367584699839 100.73090334518167,741.9754402323107 101.41063999513499,744.3262605800976 103.5203123336029,746.1169920610827 106.27367283604634,754.4067001886767 107.68139010308043,755.382411673439 108.02022636425902,758.4719054872512 112.3087604753536,760.4285642345308 116.55631002552933,767.8394634881948 118.4570824398377,770.2217112411944 117.38756102456497,773.8304286574228 113.5030375184304,775.5282823371049 111.60843055812589,777.3943224256782 112.84168881531266,778.5292690037879 113.4152813541091,782.6629062856246 114.44523280472757,784.933383816065 116.85572882133673,786.9550554471384 116.90287582308103,792.8411313213869 118.70309130608763,794.5581720150963 119.04916113874522,799.4615170208384 124.02540929519414,805.8365456525289 123.85686416091919,810.7409702169341 122.01095374380041,814.9459927401441 122.5214473031467,819.7622235335149 126.7544928604066,823.2327359953138 127.27100978567132,825.9065804457979 129.50832146263923,827.9030225881594 131.0554760400046,831.3344074592662 128.73188680929096,836.5175452453763 130.96972724454952,839.975086745041 131.0569998928774,841.8791995555541 127.85461459045086,845.4873859551818 127.09341348177044,850.8398401141156 129.33752253327788,851.8762934790791 129.4239764356005,854.036682458758 124.94082077274147,858.767944306246 124.42658880376253,861.2619059251995 120.46487458944938,863.1594580554541 118.57620140931648,869.4559189159895 111.76817114072931,873.1498098429711 106.60002671123961,877.1977189876163 105.82405495594935,878.400813479411 109.10244961019077,880.0423474426109 111.93680695156154,880.2220554929058 113.58001519947702,882.8083685815163 112.27677061095176,887.2070418043525 117.51812546990617,890.7190240151956 121.50843217725016,891.2193848393356 124.67900084892166,893.4094229363834 126.53027379123226,898.733040305434 133.07989544451289,900.7903192848394 146.03456363884047,894.3290070088357 149.1817074940563,892.2144242550473 150.5345063717408,888.1850932118472 154.917219312337,889.4191986320512 157.98034914477205,888.9339282037056 158.5802007959492,885.1901843811102 162.5378912607741,881.0371201619794 167.86075692336073,879.8473639123663 170.17244299477576,877.7727701669367 172.35243456815047,877.6367822529032 178.30381528909152,874.4847266561034 179.76705142309947,871.1852222832306 183.23849559475983,870.6782714153894 184.54830826482132,874.0542803594639 184.96344641393932,879.2885907920995 183.4988584294053,881.9610067540362 184.07986024243783,885.5300708712402 181.9566212471858,888.5781410598893 182.85385595929165,890.0309776456814 191.1742138246559,893.0611097062655 194.46964538155322,892.7133285096758 196.34987290457207,890.5881586898336 196.48895748991603,887.4016973418117 198.86500898716193,885.2733899711534 200.7788972677807,881.6209865365779 206.0333326552516,879.9797413433287 208.48890355127742,876.149881377924 212.85224939389568,876.2993245870576 216.97355311713645,872.376797963753 221.30342836808572,870.0360841564536 219.66404494865645,868.1723093262557 216.56433667256263,867.711093538612 212.10640876149319,869.2837657298146 212.85446614227843,867.8245060517231 211.72239415840482,863.5878787112472 212.57479125159378,862.566660649466 215.43948039483863,862.5706335577586 216.94495005023012,864.2106885719505 217.35095754590307,862.0292066705194 220.6263367166478,862.5872455535823 221.30073970135035,864.6298152818761 222.80618658420624,864.5006757328138 221.1661182547152,861.7602318045942 224.5738161448614,861.6338068994327 220.89565840394874,859.5728664587016 223.1301944313923,859.5494546415293 224.30463502122512,857.6660283817571 222.1053916412279,857.3603898518263 222.78753646537072,854.7067761407434 227.71575211060963,853.030028774931 228.53346452980324,856.1727971629198 235.08232408985106,854.6829753333334 234.77151122631176,852.8360600266963 238.6289550199062,854.0087979411036 241.07995859361378,852.361239525628 241.08279372212365,851.0011437473897 247.7656417444694,851.1552294252309 260.58785018612514,849.261753364371 266.5921570714665,846.9500702028134 271.309050739096,844.3307376168914 273.9623643213228,845.0469931525388 272.0737531625724,848.791979165622 274.2363566484098,852.2899895696027 272.92146464229955,855.4024913060163 274.66727680189797,860.3338604854199 277.4339813582411,864.7542118341704 278.9487459386087,871.3300966302206 279.3819646121857,878.3443157789834 279.17142965241203,882.004817922233 283.8744854481244,884.4929827230543 286.93087245548145,887.8471578677385 289.2544369179248,889.0772346514852 289.68174222557616,892.7128331623744 291.5990127320563,895.5176470898614 292.545741444097,899.7382278757841 295.8955199024509,905.8567188359308 295.13593556177034,909.67711120207 295.0085424626195,918.1080933094405 298.9137203874901,923.1111235427944 300.74669432021324,924.330862048951 309.04668723839217,924.3610708690649 309.17011621470925,923.2654343492352 312.4855842584718,923.3462931800777 312.747866775097,927.5030470603629 323.73898858106855,927.4019144030349 328.41918751128674,928.6237797437481 328.36540531559535,930.7562762435774 331.62630881091354,932.4477105444897 341.8460221720956,931.9421535444918 342.2268454668659,935.6103256180484 348.67086491430325,923.6493205893078 350.59461710297523,923.8478237879845 355.15836971846187,922.7316110689773 358.534419761421,923.5540604997447 361.9368104383113,926.7744582918217 364.24307262787306,927.8892710406658 368.724748814941,934.3080469225298 373.06352631208875,936.1982354450336 375.54723025333965,940.5860662625284 379.02307300585755,943.0533973379341 380.3637295504824,945.7483226711794 383.76699281664264,950.3913098658234 384.3303789976588,952.2023487258002 386.90339479815935,953.8877935259113 386.51637497019743,956.1232998173386 384.4911816421521,958.762640214886 385.8970178178872,960.3340683479222 391.22268297859216,963.9295879984172 397.6618113913998,967.2873107555374 401.4824914988825,968.8191329209261 402.2816805374105,970.0035923108863 402.7859832299823,978.1534790867586 404.65228864956043,982.5702637786092 406.4600415367739,984.3672543405156 409.16091316086107,985.1228718572814 419.641985868318,986.2647909824811 419.1101138512637,989.3314348711162 420.1979358240099,991.9404196110163 422.1756382192599,992.2401171166641 422.84838174819424,994.634983201503 424.43383971336203,995.0684203357938 426.4536806041829,993.3684056843391 429.88431521485165,992.598593225704 432.74727885476983,987.0616350875187 435.890886216372,987.1443982721377 436.0856563295886,989.7067132204728 434.7728463386179,992.2968085731238 435.25036364567893,993.5119249878433 437.82051444522347,993.3622045038303 437.15857698174557,996.4210567866013 434.72116574609134,998.0803135210463 434.2730236057166,1000.751434795842 436.34131940973305,1004.27691904374 438.8189204029678,1005.3053572468115 440.15766035783173,1004.517557389315 442.57915583636674,1000.0327360876921 449.4954981036208,998.9360325237998 450.86795402098625,1000.5190401364113 451.1090333762947,1003.718617155659 453.787502971433,1007.461849559085 473.21636899191157,1016.3393772115795 490.95425936709074,1024.0 504.8966345516192,1023.9934177181997 507.1346554816332,1016.4188292420108 509.89991585343984,1009.2304724734934 518.6921332172088,993.3802787918579 530.5018251935004,982.9441470750957 536.7012405789332,981.163280496107 548.8500259925033,984.6533859140441 561.0212150510891,981.936836812355 569.1076709368847,971.6800753759317 568.4300554485205,961.4012120697256 564.1165734563343,952.7978354206568 563.2786898509684,947.2243350132795 565.5729147507514,938.1452642559906 569.8096243404393,933.713000737107 606.1153522426031,905.4087366449725 612.1813791920875,898.8370577270714 634.6867631291126,867.3905827780105 645.0291146720042,858.8573143508365 664.7654611634223,840.9106325424086 659.9473533371211,838.045617899524 655.0354297334275,837.8293510510322 646.8713563060663,836.3842443641587 643.4940723109046,835.2713263385692 636.6016824284761,831.927111564411 629.6211853325254,831.9620073256758 624.5453822973759,834.1909367636044 621.3518032684849,834.5339729731504 616.5639073745439,833.5734356162549 611.8200690803117,826.5545892058778 609.8074258590685,824.9093664760428 604.6861543257004,823.276273703307 598.1208697315258,824.0922024161899 594.5458549773604,824.1077507089401 592.3115943832546,822.7875527013271 591.2389592282328,820.5614253825325 591.3295134376064,817.2314974834088 592.5073622047458,814.8727440658247 596.4708381582002,811.0785789812874 594.631805417876,808.657325030185 590.9635476608111,807.9019139004658 585.6186566701849,808.3651867816716 585.5161212144495,809.3864268414363 575.5418020515887,813.3935756544953 561.3892198822992,814.2564429063701 561.9813636550051,819.7308773084985 563.254052558852,824.1348967836643 562.7985587637711,829.3361070795451 560.9036929878511,833.692260702458 566.0880038893937,835.5521746216718 570.5413650511446,837.9553760750847 571.8547562380955,842.4414384649929 573.8556818781852,844.7574407818478 570.5239432800596,859.29648109597 564.5769309170433,867.9137772277583 561.4437276229556,873.2000902217313 554.5978192101082,873.5269116933605 548.3695301833006,868.6547476430185 540.1301613536119,866.7945750728578 531.2037647900681,866.8767116792679 519.7851593175584,868.6632989534992 498.1162659753549,882.4414560476804 486.3245019006435,883.7407080845106 491.5467910710841,872.7761940561061 493.16875182886514,863.6890305823823 492.5300878534875,847.9167100552561 493.4174335108083,842.0322917503561 492.23381628312336,836.6565055015309 488.2155355293812,833.7968072575984 482.37969653885466,832.7653103354924 474.88845109716243,827.8448991169485 470.45666687677203,826.1893972850255 466.2878598271985,826.2984666079843 462.40636794338434,825.6580185911293 457.1343722301568,829.2038922585419 453.40159010229405,828.4154543372651 455.0071724296515,821.7010173422302 457.0339958548689,808.015201247253 460.46569107584344,802.7368000633887 464.38626646054996,798.927077903993 471.97449108574256,793.3867590746694 477.30337450094584,786.5856320438771 473.4439798154842,781.1989916741384 467.5188817418018,782.2399899245602 455.8976966446478,781.8130885228319 444.212141819656,772.7809912463961 435.8322329583314,748.1094167428241 432.22901648431855,740.8852183369961 449.047676410461,737.9363843892124 462.5266500983431,730.0191480561136 460.698639908701,722.6681483572122 458.8293782801353,711.017407873201 455.7411603657652,703.7600161788362 447.652600805418,693.0134914511985 447.26868513744705,672.5199753177828 453.4369450560817,649.1327243738838 464.64897065743196,650.1859192479792 482.4366432062558,659.635598459029 495.73470701261823,668.0171558984473 506.1164315966851,672.6393634965402 531.3387675852784,675.9513451429216 536.2666645406528,649.3105465159435 538.8045772531735,648.9438038803942 539.4420203280122,644.9248373541573 542.89483010719,640.6890162831055 554.0117273244972,642.241904006353 563.2372485882643,639.845063024963 571.8810349234312,637.978174517377 572.3189007843874,640.4125622757385 570.8009560402467,641.8631013347865 592.8476826394078,638.1927011911553 595.333251668572,639.1641901849587 596.3372370349896,637.8015019804116 595.1016004176286,634.0599783556077 591.6286046816795,631.3457512049471 596.288567306594,630.6935580971976 597.2278312382216,629.6293926176938 597.2657624008241,623.6117924673438 601.3773978891503,621.0114672679824 600.5194362607059,615.2969325602214 598.4861251125577,610.425898983237 600.5014021613257,609.0739840380004 611.0728787167089,605.6415911848594 612.7260464764663,602.3769941723342 621.9790990755115,595.5733623934746 626.1783558016125,594.1323199593905 632.6210377135951,589.760936388838 638.4304502184863,583.7720065463582 638.8059986646923,582.3115152051573 602.7462699391093,589.5063741688107 594.1918016825106,586.6332550088325 588.5884041964216,582.5669781134505 594.1869870822576,578.2717660474952 591.6095554573308,568.0508398668644 597.8436945580498,565.0018218271246 597.6210893317121,562.345799892676 596.1333049463406,559.568933329502 595.5707109705775,555.2246132377329 592.8596794635137,550.9294998535349 601.5913036982179,542.735804958138 608.5698754291441,537.8291369861643 616.0398290131014,535.2200744999095 618.909363848878,535.0272134868686 618.7432121614155,533.4398861889133 622.050553352102,532.1670454943905 632.2387571016546,538.2832122294359 640.064728757077,542.1094035282006 640.956287388207,528.0931490567802 647.6158313999666,528.5895233177489 671.7039033264318,528.1423298734669 675.827088864642,522.7760992460759 691.3487066583147,518.6859203330241 703.1390875448038,522.5226244725268 709.0325399180604,515.3276323729278 717.5171587046523,499.0571366689064 716.1811908411661,496.63682658683615 713.32654323097,496.2847526901106 713.2622735668649,494.7868060638756 711.4114157332223,495.7423011928729 710.2827486422523,493.8018408938934 713.2912903995692,490.18109997033116 717.7057499950712,486.0398657234556 715.5993216094485,485.8310936017317 714.1086529517381,484.24927860688115 715.6701819769522,482.41815856022413 712.6599537216655,481.93777104575656 711.2335456557457,480.61046739152505 708.709746314493,482.8685858320031 707.2134911379659,476.7966486436785 705.206409956521,477.5405806186483 704.3354735157592,480.99825466430866 702.1914894915992,479.1871872503974 697.2128555158798,481.5246316625746 695.353967806721,475.5233968433895 692.5425670672778,476.7122153110979 692.9490970732953,472.7840969563222 690.3714942202229,470.05180661600014 690.3331083559971,465.5514403937178 693.5263741485221,463.35597059289705 691.0327783682154,460.5291783308709 690.9952253600974,458.9270619850064 692.7401428488897,457.2844483834855 695.9386556440273,457.3394911220332 698.6168751948506,455.23241124249796 695.732199648146,453.7701535629096 694.827720548779,452.2236045330337 698.015095140177,451.3840125675624 696.5307383472384,448.518001731729 692.1914586726261,447.0578941571316 692.6967259758106,443.07755266983816 691.7421221702709,442.7128314199857 696.014199044308,438.7110100751037 686.6746833437926,439.8135460664107 674.0276334293757,438.97216625627505 665.8944004649646,431.954641268454 663.8682003844841,425.7216548158108 663.7311470921325,418.18638259944555 669.881197380247,409.73769559266964 681.244410992369,391.24426062414443 683.152924314095,381.06419590932103 684.4487900332211,365.01905923660786 683.7278974884297,359.16603299371684 651.6657036327618,326.3257743802975 595.2509794884667,319.44102197197947 569.1182329629274,225.32148757022185 558.0619727924434,201.6457723486085" /><polygon fill="black" points="640.2452486380427,874.9442466966904 642.5519903030091,877.0982319652223 645.7131341129531,874.1993358145066 644.9880126846201,872.3529958075897 641.0002775829381,873.6893320887534 640.2452486380427,874.9442466966904" /><circle cx="291.8286133860104" cy="657.8316000919153" fill="rgb(100%,100%,100%)" r="16" stroke="grey" stroke-width="8" /></svg>