<?xml version="1.0" encoding="utf-8" ?>
<svg baseProfile="full" height="1024" version="1.1" width="1024" xmlns="http://www.w3.org/2000/svg" xmlns:ev="http://www.w3.org/2001/xml-events" xmlns:xlink="http://www.w3.org/1999/xlink"><defs /><polygon fill="black" points="294.229171163719,201.56914784055846 285.5844903892744,203.39564377535282 281.92307607952813,202.86527607222536 278.6915551551241,199.9023571386374 278.67805373467496,196.58026537850583 279.97622769462834,189.395090355997 281.0625225910347,186.39623645831898 280.48156639304847,179.54751906725244 278.5718386561729,174.03688233674063 276.5587615675249,170.94929976435924 273.7805278546714,168.96739260136303 264.23535928722976,163.93109739610213 262.9002681016762,162.16155461832045 261.873462701041,156.6464547867805 259.53212747589413,152.783605564587 257.53228725027634,151.79400389801845 255.10080799822,152.0231760777266 251.02688241025407,155.46965806781918 247.18788982385092,162.88875534703732 245.3442009695554,170.6266928228406 244.0317538506822,173.07293119972041 239.90413746758836,175.60266031880724 236.16565564987678,175.9348294452584 232.9677858164963,174.66151546230253 228.30611845550447,170.37308904777353 223.85975968993938,168.07215281497395 220.86918836198583,167.6448788209408 217.6783538251326,172.63354678332053 215.80452058584925,174.6374774885711 213.36187147809756,173.97900939568376 212.11691489330136,170.00852856955544 208.21671787085552,165.50016774686458 203.77574543677517,164.8676594364107 201.54388971181532,163.34504705652137 200.19657045653906,160.14807754173182 201.18199122976583,156.9374542675713 203.38366638159545,153.4912668781501 204.25721809304423,149.94406157029266 204.45249241042313,144.25477527237035 207.31150176313193,136.5689512522589 209.53369217229897,133.57210819830152 210.490818037076,130.72914655826662 212.8966717480269,127.09233935587258 215.95108741383208,120.29522845870747 213.3580898349723,113.47046941301028 213.40086671792926,108.51609120216335 215.30570431492427,102.8829456235726 208.91014169060247,101.69900467492027 202.14445317299445,103.30888454117257 194.8164356328304,102.69660927283178 190.44153959840713,105.92993894848132 185.52557075630943,104.12321232806278 179.72583643875143,95.36223202452425 174.9575948943829,94.57301274291615 169.92807990089617,97.11814920536642 165.649263910472,97.31847316281983 162.52359752182366,94.91381075238269 159.49963422947036,89.967295556095 157.83168747740257,89.75075194561043 155.3944398411609,91.98907518739986 150.86605050090395,97.88253627012023 145.90176428796033,103.22343213600891 142.47208196505204,106.12559550184312 135.1603476443481,109.38160884876095 131.9684538043511,113.93359465294111 130.77378080023942,118.3601673890903 128.2772036717509,131.19276912410078 128.2050013698802,137.82877087101463 123.45487140119401,141.27990803315606 120.93182212615945,147.37710259123662 120.84521848199938,151.79515390935012 119.9772279475335,156.0032132869469 118.44799066123556,159.31969443544972 115.71841727235747,167.51471163643123 112.74102092422275,170.29006730794208 109.31780544912496,170.86088418119687 102.3393482470327,169.44472164713306 91.24835991093231,163.63134624872407 87.59706686540808,165.07503876225348 85.73040877949654,166.74831973890548 81.23286188248929,174.94733266903313 79.81122283284883,179.59971488575525 77.0637842096959,184.5764594027453 77.97534507319509,190.10700321244792 80.64833372005403,192.3024498773185 85.08712295561385,194.16713156838114 87.42045514268628,196.032994500104 87.68053153636697,205.0951339062558 89.02824502385239,209.52045054951918 92.59714026637734,214.81217557525076 95.28065233577621,220.54514827686592 96.07027982186975,223.5287504932786 95.639299324604,226.07365376596067 91.14886521444706,235.93400230370491 89.95746312952556,241.2466893381304 83.88658788205032,245.0259536158253 79.03188140750589,247.041668088228 75.21017928606165,247.79147902853458 71.15550983217047,243.7148800495886 68.811629797669,242.80553572143913 66.24407632465724,243.94372064503932 65.45070004666778,245.76195575013696 62.30968973027599,248.79206430064357 53.79648753897102,253.92271331058816 51.504841931062245,261.8986872643321 49.228531981398916,273.3041621236222 49.132969370073,276.40508358432976 50.589776072440664,279.6034509114602 52.26592399276215,281.24213338732375 61.829888420430684,286.3754779531349 68.04949433611914,288.23052146521366 71.71892461116748,291.8579665220374 72.62118805490302,294.17282328591637 73.42431904970567,301.02016082381374 76.0032842121013,305.98496885411475 80.43906871733067,308.2926754068079 84.98200015774843,309.6000026532864 85.66889935095385,313.2412005171527 78.53040871537736,325.54256696838297 77.93463246840565,328.06992767708925 75.90434891351683,330.91116758952637 75.90370392827715,335.43633764093534 76.63690115490014,337.53707023503193 78.73968848584164,339.3338623676658 82.84705177499362,340.2292359743718 83.89601217655857,342.7826369164716 86.2562386582144,343.2842370564083 89.430310981897,346.990579138636 89.84773144130718,349.76313873661195 85.52122015872483,352.1659893927026 84.1305966810219,354.82060934131016 80.58554254474853,356.7398064593158 79.19355976988227,359.5070268820276 77.26925580531316,365.8354007408491 74.62153098629823,368.9079734726946 70.88927366878382,368.84268353068694 67.45240750888668,369.5569022167531 62.61119952758859,377.70928262455595 56.97661126509501,383.05408588501336 56.11116683435497,388.80181630152924 57.45874868438841,391.7795247390725 60.690286292482085,395.62421683608284 61.60691320389604,400.0505684173223 64.2839745135931,403.68555940329315 67.72868963441455,405.8752082348557 69.51265144283896,407.8556471976791 71.08237656310789,412.60575071491576 71.10110427510791,415.02983693870135 74.34020448996961,421.87227056317647 74.37879325903309,428.3996167979742 70.73102396709952,431.18018760540883 69.5284114730607,433.62430752810167 67.68644160833338,442.25422917653714 66.33682947782921,446.3660137965991 65.83497254195129,450.06608890445307 68.44543055078033,453.25307510172456 67.26107047584453,458.1144760388297 62.158907509545166,459.20289501986554 62.392927024150715,460.5157771858061 66.72315623832507,463.0637311824563 67.12331933702056,465.91376568477074 65.72280384196551,467.48750100728694 65.57435300655395,470.23997165524133 61.47020480922607,475.8949439241338 62.356621627317786,477.592514711642 64.77291542871416,478.8129514420365 65.8061665670447,480.59419245560787 63.84111470560701,483.7811569443286 62.29289529189543,480.90983129082156 59.261351869008145,481.4137833966063 58.6987011532758,488.96630436667783 60.58789403858573,495.7339435381389 60.60615006111581,500.81452322791415 59.35073502160205,514.8691563182113 59.155204826801054,519.9602418691072 58.17209385373177,523.2915765910233 54.9803493679243,528.3959915604044 51.882993691276816,531.287774667474 48.79924927220373,535.296581671126 48.14719011981468,537.4021236379676 48.94126784020569,541.9298613530384 48.52276954021525,545.3603461241728 44.99448399534377,551.1393196159366 44.69236620607796,556.1195314348303 41.61427139605588,562.786055556352 35.53757414286466,570.2447407096068 33.561211321643036,573.2404731995542 28.367544561187373,579.261998441981 25.045854262375602,581.1681618106885 16.838897432446334,584.3285092547824 14.529454763589968,588.4398113652969 14.658974171966667,592.7499126015409 11.826197627674784,602.2846330241837 9.73203298545693,606.1734782768638 10.641869768083936,609.7130279549141 14.769561961386694,612.884542322978 20.11965635943762,618.0495557170416 21.588938598825496,622.4571299192219 21.171379410611152,626.4462284905871 19.290113724434455,629.5590864769799 15.421669248893418,633.2368807684486 15.89939863703361,639.7613524316644 16.804131599757643,643.0771683479719 16.15636004022305,646.1718537110564 12.972193054844038,652.836089278429 12.411981415505394,656.1888404063058 13.528269576831487,663.8728417976047 12.388493985432103,665.9572934323861 12.606660855849995,668.8149302733941 15.363909473970503,669.582278308195 14.212693788143586,671.9749308200661 12.093239219393372,671.6040814533549 9.070842427174524,669.3859593950158 7.484779841609719,669.9860874557711 7.4137782574166335,672.1534661541758 2.0760011539530554,673.445318213358 0.8427205701568169,678.1895029880844 0.777467486165736,682.1859306686335 2.067200709994629,686.4634591498211 2.1872633890829505,689.2599341879973 4.365601203405315,690.3816887793961 6.659667261183601,693.8888841782746 3.4247649701337433,693.8663566557389 0.7054315680055647,694.9283665294331 0.0,698.7342628111829 1.4659736375158932,702.7370680861252 4.547199277971979,704.9782254723202 4.735791239264413,714.9004805771699 5.4082965361982325,717.6215549391846 2.5494628783560245,718.518042101932 2.795194341292069,720.2892804293691 4.852323766992965,720.4742835621043 5.963209386442759,722.2132635116209 2.5670202106367372,724.9550002881913 2.328285937395285,727.3590927258185 4.470647635064112,727.3084485325373 4.693893214786037,729.6656532771792 2.258596773468447,731.8212079621334 0.6523513394964643,737.5028239476172 0.32336093475731287,742.343802058197 1.0348050962907582,743.6674439123965 4.97505481442062,744.3241864291394 10.083004807877487,743.5111377179321 12.969729540887863,742.3881235159772 19.93248987672459,737.2421072141326 24.486946404477585,736.535641112638 30.05271604126868,738.5951962055581 38.07733808273213,743.7323490555757 42.52051357165103,744.3605476930884 45.17961667499726,743.6755572002874 49.62920384040809,745.4144817240814 54.30408237668636,748.5847071228636 56.52273150920633,749.2428331691527 60.51185089863854,749.1044781540905 66.17291791216482,749.9582403067187 68.61861128547295,751.0500002553576 76.1796025155329,751.3847120558189 79.54438406782322,753.8626208323349 82.78215084824828,754.8581492880471 84.50922632666216,753.3608423525305 85.59241068108045,749.1115427667767 88.88784508728007,749.1608177728538 90.1410280217971,748.0917828727041 92.0702392379778,748.910802744268 95.83676210228265,745.8778490700438 96.04584458956212,751.3101610819501 100.119012079093,754.8939371769654 101.57488383829185,757.1487364426451 103.50375571646025,758.0598369970272 111.6451786245683,756.0290982214528 113.03083884454605,753.8904982273439 114.19922589647953,755.0728903364275 118.74096988755706,756.9305986164937 119.62738145477266,764.4377904900583 120.93127669254778,766.2486980238436 118.36209330991805,769.0776693251387 117.65326557191177,774.1035099227959 118.7329849627726,777.1687215867524 123.06494405321115,778.6544127614673 123.06915180171528,780.208181702285 125.7181334192394,781.8867199626577 128.60011253554447,779.1721438282755 132.70013630400268,779.8321796764119 135.7190359637246,779.5679020606626 136.6533200618243,778.1346788624962 136.19692808844383,775.3733247310984 140.78401711003664,771.6634907926327 141.12045422884185,776.0806584955639 144.400136608128,780.4689940647684 144.66222105531602,786.0794823135354 142.37730824880944,787.2866453346714 142.841023934159,790.2338886434816 141.5931207273012,792.746019364447 139.80298917203925,801.4095129982113 144.31976002227137,800.6000842433156 146.32553298067037,801.4390183286185 145.61795680904774,803.3586312176283 148.65784971199514,805.91464517129 148.495188331106,809.9488687093378 150.18482706675456,811.1560956556525 154.79028406829374,810.7380826900862 156.77272083680958,809.1669622180616 156.31395946967245,806.5589707367806 160.13331515978655,805.3005322116364 161.87770411288437,808.0417672456143 160.52494214782675,811.4704730467593 161.01593356345631,816.4163961409175 162.16958657113918,821.0276561519443 164.72346284929333,822.6217604715969 168.5383819211069,823.1750157527675 171.04582642290993,822.091254843044 174.1641373426347,823.1948930500502 175.75092204841698,825.0599420333007 176.0756565472076,828.089623557148 177.59067225423522,829.6762170469789 180.99163287556044,829.3400524386601 182.9521950771358,827.4173234787299 186.77600170105376,826.8160363569791 188.16670648075635,823.705405713787 190.9833979544342,824.3735903571823 192.15261468587678,823.4858584647043 193.55241896555842,818.9953949736464 196.1020834797242,817.6229108144795 197.90638636583682,820.3846121293473 199.55024839733758,820.0143041679286 199.52388873706678,822.6812126486084 201.5044246721798,823.755502506947 202.08434730268195,827.1161182980462 204.52092313153324,827.8740579386322 204.7885683746459,831.0375095743922 207.29012369542417,831.9811753606326 206.63018126959065,834.4690540031538 209.13695116879853,835.9168978862017 215.41719104263402,831.8176636179206 221.97125036964522,833.7856496964135 223.34952293318125,836.3179365307549 224.80015754579279,836.543357029026 225.62395498295118,834.1280991650079 228.28932703665865,834.0008622101437 229.15546529344087,836.6839044669944 232.48841413389368,836.7359441175743 233.29792679064045,837.8635280961514 236.5892499689674,837.9661299992986 239.87854879308688,835.6481017393355 241.810001162015,835.5567409263049 245.06919447282195,840.9324937511105 245.0338660045812,844.1150528815028 240.67686024298513,846.9316093794478 235.81289628037368,846.2017511969302 233.96730998906716,848.3743850767032 234.15765945457392,850.9920000675405 236.005244935107,852.4558024236949 236.60696981365112,855.2825201503668 235.61332659340763,858.5011084157188 238.82174076626762,862.9411176569222 239.42040980743096,866.3138836433288 238.3092411021022,867.1316019383573 238.2172781243082,870.0161863569882 239.1639051215741,873.2475503798361 238.59787373179782,875.3673969419115 241.1342156771878,877.7944824782678 242.1419340331322,883.1494232717068 241.57637003414854,885.2692941379057 239.97814477907272,886.0123630868446 233.69344622142302,892.8909740797212 229.49117773090512,892.7826723092749 229.42406232892034,894.2255470667175 225.00353748308768,894.6202781841856 225.20995374243762,897.2505181268582 227.2725624640951,898.9133211096114 225.6961240481412,904.0380517740391 227.40727479378953,907.7607505130306 224.62066966834234,910.8884967754282 224.32363229558763,913.4852242909582 225.89594766830072,915.6915550275411 223.74452377489033,920.14372329547 217.53909701199055,925.5192523566702 218.7190465541778,930.9319997266995 223.74011360872382,931.3658631340807 225.73408094030978,932.2755294393253 228.0053036802184,935.1887527445061 230.00417099565558,935.335009049619 231.17104272013788,937.7149129054274 235.06278136327677,933.7258110815807 236.7737951733572,933.6432718380765 238.56400084209557,936.8729240226646 242.0389584007728,936.2128588202742 248.72261474607524,932.2188407899243 250.71877774726218,932.8907582142164 255.56202088182505,931.2584028611134 256.35366381681706,934.4191418422063 253.50929415227594,936.167193133333 252.30262109795407,940.420611569348 252.70339998563097,942.5480884913634 255.3981366330803,948.2384183754851 249.83584831600137,952.4058956383269 251.94223360514124,954.1103828330344 255.6700910852572,952.7079324135266 258.2152246615466,952.8255595585815 259.4824621496494,955.2579241858907 252.97265202018747,961.7631064126253 249.24982835736668,963.557913877861 250.04001288756842,968.4340225234508 252.71225155788832,968.1191909575599 254.4504900640148,969.2132198736639 254.89992738048525,971.6000165363105 252.77564672914318,975.7682040848886 253.5517385357599,980.2632402090288 255.85834212296433,980.4007387602982 259.1339614747196,978.7984864872803 263.1726976933519,981.1130101862368 264.4062698331629,976.4541022612929 268.305036658897,974.2456837994057 267.8072498209464,977.5464132535091 269.2708970970543,979.0097609622021 270.6760723829011,977.6344578472315 275.6910751944916,976.9187349697602 280.76448045376554,974.489065076724 283.69981161103453,976.0735264082061 283.61849354371816,980.5327603473891 282.58538112154775,983.5105214816491 279.6710107931541,984.1350177298231 279.29996473062204,988.5931805242088 280.75922493287356,989.4889404539165 280.55164298941605,992.7609461021068 285.3589482927111,993.9945386502353 285.04056896582995,999.5066201543247 284.13531703726346,1001.7117005798292 288.21414862109714,999.9984646101511 288.90059464126404,1001.6643302933014 293.2501056669251,1003.6075936461027 297.5437723583468,1003.5470261606505 301.3383735911227,1005.6828957327751 311.73316453191865,1004.8457570901437 315.4794573859574,1003.3246364486002 321.2260948951535,996.8667167124074 330.6426331494668,992.3669736102578 335.07552082926213,992.4484126006928 341.7378379736323,993.2932968312438 346.9394615683032,991.6017668070424 353.05317023793066,985.1333692811179 354.2674643313041,985.5308380372263 354.9131113222115,989.3530418442682 361.7101817152034,989.680108695817 363.430238067852,991.7517806991119 362.28294770896645,995.3096060422241 366.6422423545733,997.3300070767277 378.6339276835483,997.8197520342267 379.39409283107364,993.5788432583239 375.92271918627296,984.2226995341965 372.21882312539634,979.6557267012741 372.98450138801496,976.2320566438548 375.0822137906144,976.8901034878645 379.30141839259477,980.746153423094 384.2731293085411,980.1759873295001 389.2527743245312,981.9384666448461 390.3425377165025,980.1664414630309 389.74911223410373,974.9618746154352 392.65903846260915,972.7224091398542 393.7931498069333,967.514266715965 398.74798999507226,964.2805021159033 401.3701383667465,958.9747023858004 402.5374401347324,958.4523008374239 403.7139479247064,955.1543570507652 408.7442619238095,953.6025252035349 410.0889808934405,954.3493925231945 409.9173018841731,958.9099021987206 410.7822646455308,962.4317075471179 409.47806898575067,969.5690821545642 410.8748166455554,972.2258341022792 416.2354893406572,973.8944064606105 422.23585928040194,969.1957566036498 423.33336622953044,967.0938196202608 425.2956104913505,960.5571549084688 429.82562207954504,957.6600866623078 440.1463193594179,958.813960154778 444.3660854009311,960.3320204952847 448.4064298149308,964.2843935445787 451.6625910283159,971.2180246567129 455.4563224516513,974.9535547905588 458.6846844322083,976.8090565880466 461.57663435555656,977.5589766586185 467.0405203212463,981.9381308206218 473.33875599010963,983.2012493262888 480.5106075659158,986.0347951009084 482.2929341217344,988.0102629517662 486.6373138419316,990.7443316194837 488.85293027653955,991.0582538745747 498.50600242094305,990.2295775315164 502.16771544851343,991.19608718762 506.0654396453028,994.9401465968891 512.3899230361696,996.5608884561223 514.9290801467847,996.4405188691538 517.1407973632064,994.2240152039607 517.8849824127099,988.5778941053657 514.7526277593503,981.7395894335593 514.9549577703356,979.2003755747301 517.4777371955565,972.8875741399183 523.7480260216287,964.5676113558235 526.1720291888344,963.126307350392 533.3568690860278,961.7731637795202 538.1172732643832,962.7484856589322 539.5699771152789,964.7315474732582 543.8338134425426,974.5407313411363 543.0400741328264,990.3851079766681 545.6337812264395,993.1853495689605 549.6346462463873,995.2751339392366 552.650152053164,999.2012402844871 551.9199990998836,1001.4930673101152 551.9660248343312,1005.7780784690942 554.0888014289366,1009.3224185572176 554.5483161880159,1013.8875295956225 554.0316383900122,1018.297233640292 555.466292195702,1024.0 557.9579647927646,1022.7212235629548 562.496358889395,1017.2913281023455 567.3242983835322,1010.6026141152369 566.5154947958151,1007.6277983627148 567.9065989083756,1005.5013863012261 573.2343004695936,1004.4408899938879 573.7890688026231,1003.5426937449324 570.142693088882,1001.1759129383379 570.846388537756,999.9374032293846 577.8523536307341,999.3527237826748 576.4889710147218,996.3989518965701 577.9054052086511,992.6313288700339 583.001952276935,987.0378809379838 585.0772977973003,988.2053634155191 588.6889165030943,995.4850833870984 588.1332891813598,1000.1209043113021 589.5544930995778,1005.2946736402962 592.6645761308341,1006.5551092832814 597.02391098175,1006.8554723101768 598.7034867240102,1004.3773905731802 602.3930755685357,1000.8771988290932 604.2045775589405,999.9894029799174 608.8529578765156,999.534894227611 612.011990700788,993.6910991290913 613.3846094070927,988.9726372543145 618.5779211126605,988.9304689127042 617.3862929072504,983.9552125437923 617.75772993928,981.3227167563566 614.8798292310045,978.6912009561444 610.877987960011,978.9906031943125 608.2568104094439,978.1446926922188 603.7507996095813,977.9274551143072 598.4926518358801,975.0267908660695 596.0287074838243,974.933466064413 593.2510779007197,973.2090837878594 590.3993773864531,970.3289192886793 593.0123779040448,967.7496160768948 598.8488210089668,970.1861755273497 603.7182788354743,967.4930378764526 605.1735435823015,958.5980614455716 607.4961457012715,955.254919161145 612.2567934500183,951.4574548442358 615.3554245860928,946.7835025186458 618.5181293673269,933.7136099280791 624.9356535549314,926.027965884712 624.1501960497876,924.2648626776312 620.11787611856,919.7694181433978 618.431970747824,916.1400471894835 625.5346922244865,913.199573555485 626.863813732037,910.8690677568877 626.4087826435757,908.5492375097999 621.1548996004474,902.9524944945566 617.6942386858406,900.7781571367796 615.9017530244639,898.798900021577 613.9941525689264,894.6142201000332 612.069388225009,887.4507609180015 609.9391979633326,885.1419845116956 607.1489682169594,884.0600655132108 603.1367905944792,880.6695147868481 599.4310367510305,874.5166949555262 598.7463197799897,870.8690339909433 599.7292301335676,866.6654198481898 604.7141461728312,862.9671933613527 607.4870388522979,859.7323233178136 608.1306450543741,856.631265097622 604.5578141421726,852.9022572163459 602.31385958002,849.719208318178 602.189920335722,847.2884311836185 604.7394819734399,844.9401539583336 608.9720086575717,845.012395343487 611.298541474294,843.2301281234043 612.1729044596109,840.8922239232007 612.6015768745501,836.0210070140255 616.113799675092,826.3721021517008 617.2188463798877,824.703892428362 620.1054406488843,823.354559130544 623.9984611991532,824.6508431867662 632.8976602450301,824.7921463487247 635.5607284843336,823.2259600939025 637.4312957499901,820.0127291328149 638.9537778387942,813.6908282447038 641.9364964944409,809.9115250154914 646.8267616902011,811.0921122118517 652.2599375656815,809.739497906803 653.9073812101713,808.0711589835904 651.3307036180177,802.3293307781491 651.7652800770056,798.7887429753855 654.5248883353288,796.2339951188058 656.2971817086648,796.1092973703188 659.2994592037611,797.8667901479772 663.6095742178601,796.4115375332403 665.2644758658269,794.5165482002802 667.664959918119,787.6503102427852 671.8344868669524,779.0133779598848 673.2674047688782,778.229792632417 679.9085673095527,777.100597091122 681.7764342510013,774.7734161081397 682.1984459535223,769.4643587053383 681.3907476284634,762.6048085807438 678.6971092493652,756.3133338651337 677.5603831866576,749.4550666180039 677.9842787881853,745.5882324288158 680.2822875999469,738.9430087989371 681.4696508279843,733.4104861753015 681.7756950409046,727.9922014095673 681.3167245479417,723.1204574354489 679.2912065343975,716.1645422210167 677.4046701635289,714.9537679049153 673.7494167928743,715.1842892589312 667.7854432192077,719.5279680460101 663.0273679262715,720.2111167611672 657.1373964793278,716.3620241641129 653.5606123610222,711.5238982514823 651.770720433964,707.1065617847639 649.93000540717,700.0382650058903 649.7956371993545,695.743402918977 644.8244857860095,695.6234827411305 641.0812016499766,697.444557279448 634.2754086544393,699.1021819997036 629.0912298949364,701.8270120716486 623.8073212617221,701.3765557770437 620.3499578493294,700.0522006718892 615.1648345141855,701.100987265397 613.4039055990237,703.9991710358225 611.1240697924534,705.3554159060228 608.5393242348053,705.1089839385563 605.8066629086635,702.4272383264522 602.4976877658311,705.9515439739466 599.0237677279094,708.4894278990629 597.8551912542729,708.3659832939179 599.8806833437114,703.803575464673 603.1894637431043,703.8655180223384 604.7945695000167,700.834240458913 601.8233389279322,698.9950137473234 601.4289776860472,694.9672853819836 603.5527194923532,687.0261758010373 600.6811496788279,683.656516038085 595.3658298906191,682.5669221362372 593.4163336132088,680.861329217594 593.3179803088416,679.0742621534987 596.1241527316147,676.517310425264 596.2480955219058,673.169087872717 589.799987389826,666.5534169236423 587.4580985977199,659.1492549941258 588.3724352507543,655.2990232671643 587.7237352964278,651.8797616154236 585.9326134526736,647.46471488767 586.0324547783013,644.2619077248567 587.7937257857575,638.9759541712314 592.4161035477433,632.0693032397048 590.1066814417483,629.8005418320956 592.4831711523233,626.8559493975331 598.3782240350661,620.8125503482881 599.9812732091857,618.3192374917612 599.5868308326928,616.7290725034217 597.2119059050443,614.8097021991315 599.4889486858013,610.6344085337427 599.4895012774006,606.2945634360822 604.6012182686529,596.8471924794881 607.2469837206912,595.0625632602396 607.6081410488233,593.3087016396669 606.565003075101,589.4624413639333 608.2159531092889,587.4624890991911 613.3666507972977,585.5956110209994 622.1878580216418,581.0200865849914 627.7159577892796,581.080047676617 628.6348549533892,578.5774964087516 631.1064736733526,576.8949063427337 635.7223553738198,576.9954151949696 641.1476876220369,570.4610188854974 645.0723650924431,568.8694398640794 647.6085084091457,566.7252476372853 652.0829755916817,565.6558018271946 656.4247360254992,562.7306378581294 656.6180304334972,558.1685596132214 658.4297390067862,555.102288561962 658.62416251904,552.0373983978952 655.1131085764665,545.5526358910961 655.6366170543865,543.09233327383 654.9764071584212,539.0346604909109 652.3197974783825,531.843503215933 652.2526920124614,529.9890127459669 655.9106858421193,527.2098041025711 659.3492841867894,527.2068404688498 660.8083989485995,525.637995040068 665.852510877435,522.7542980946923 667.6312349813719,521.0722695217776 675.0621454533748,511.0559873294037 678.7434610550403,502.35621535978464 681.2920445091116,500.4893269788578 681.3546582239322,498.1030196038165 684.9086647011286,493.69531008863294 686.5861654211417,490.70339859355 688.0374951908299,490.38404514994 699.1363792173145,492.16970615759305 706.7623616772233,486.4128863109212 710.5816949394614,485.0857468214707 712.9676885063404,480.4129957540222 716.8489547407399,477.4060396644868 719.6678879675524,476.510222734692 719.394596000093,470.8810083641332 723.2965908031015,462.29630081317214 729.0365600953724,463.31807159066614 729.8413514329594,460.03146787546007 733.2409333807426,458.959901033188 734.7617161527008,457.2782516540973 738.7371500990071,449.9015569053188 738.552929099782,440.92895696502694 741.2947380275315,435.9305089651293 747.9816060151742,426.1662646907429 750.406299891614,416.0049182825418 750.2151707567506,408.3157232574267 748.5147542846383,402.80896369461846 748.9550423033818,395.4471282811253 754.132084812027,380.1732493273008 756.8738602649021,376.81426492984417 756.5483823391716,374.393124109895 753.1635583815297,369.3232617517325 750.3108777205076,367.51138050685324 745.7009437402318,363.11883403205843 742.3465138564686,356.54759233571303 742.2334928583886,350.22438803772616 743.8206311258486,343.24459193880534 744.0137786192038,338.3823157653886 741.7449378326052,333.72088696238245 741.6051777458811,326.37910280858955 741.2026777340735,322.16307712595153 741.7137445335651,320.37511511266973 744.4659768134402,318.8375766589435 746.04487363751,315.80157029599525 749.7943795250043,314.2507583374612 754.4592080201237,315.9029664635817 758.3102198890492,315.70948185933105 765.2944119770355,313.19980504990156 768.4931031746368,313.792937081892 771.1114788990266,311.71314952640694 777.730095605834,310.2649474851297 781.314011828246,308.4370692266988 786.1529862337361,300.1648882576171 788.4729228420218,297.0550309112376 792.0190903557967,296.59485737964906 795.7913263390183,297.7967526142206 798.9905043188992,296.3369635864344 799.8760177787357,292.2522688603418 798.3710764909151,284.63469131650265 797.1141156107082,275.17066744513454 795.8803937425519,272.7772272339214 793.2034100382472,271.1537635284351 792.2979010881068,269.08620250627587 793.3779064261124,264.49235386557893 795.8446793900703,259.42530054202257 806.1262895751332,258.52355460622175 809.7070969855058,254.76827203776088 811.2403604343356,254.08950823161683 814.509822493662,254.64896214163207 818.890066312413,253.0623283975965 821.4299842198125,248.5968352187765 812.2302437534588,245.40799304922507 806.0633705264315,247.44876731615796 805.1863908405276,246.6055923314209 805.3874074444115,243.38280632439648 807.4693664352993,240.83688364275895 804.9072395186656,239.09219972799576 802.2580441774472,240.50814379706208 798.9923610803735,240.7942111636754 795.3064909073336,239.83791617833424 792.2403679070318,241.20419163424458 789.8978592376344,244.09715158730273 788.2093205046992,244.71418983493788 785.0769960196553,240.76795840680313 782.4883103477094,240.64351451618825 774.9638023741722,242.2362053465058 773.5900827804783,241.62856128915803 774.5205872889321,238.77125770664406 772.0559800352585,236.4637409429805 771.8699830647396,231.33642139383323 770.39904636266,230.90236861463484 766.1192739789776,233.37121291347285 764.970680974092,237.35068292006417 761.6722660177587,237.4410967707023 757.832400396138,230.6209826897682 755.7336880673388,230.43287255083533 749.7405392251965,233.5979697880374 748.8736788376762,236.23074592887076 745.5125249296995,237.55381490350385 740.0345547078732,241.5633083923899 736.4597519608112,246.1194417363838 736.2308116401473,249.50525608800365 734.2188297963569,255.67928643999244 732.4218240650715,255.54021020807238 729.0920151331828,253.05937329065455 720.2695093544148,252.50631107766208 716.6559776163451,250.75930032959684 714.7626616403784,247.26539768894406 714.5505842998587,242.92209353008718 712.747810756013,239.65286521806172 706.8356979699073,234.97350281288232 704.5777781600326,232.3472876581817 703.937395128362,230.25863706224175 705.543016203462,228.78839908612997 708.1797749096619,228.44713825446593 707.5304348152343,226.02237062620497 703.4103653174093,222.78817915928425 701.3646471443516,219.8460139871446 703.2450252157552,216.68344874189972 702.6885658933935,215.95087736802725 696.95669888768,214.70654584802298 696.0384345626346,212.27243451848278 696.2856705593152,208.3184265877428 695.1665770885576,207.6983957984986 690.5159929946299,208.8771795479604 689.5439587183209,208.14508741636234 692.3947412195214,204.47286641464802 692.6487413166501,199.66349721360984 695.3622515965283,197.14287880121765 696.8262469196516,194.10444118994633 696.8877631619524,191.71067881715544 699.4955519551722,184.74896679411472 698.7649645808062,182.15323194141456 700.7519876570226,179.9499299545497 700.1337666834277,176.08060654086364 703.4503285211188,174.13027172208842 707.3076005130109,169.01161152719192 708.8959623954765,163.3063165530973 710.0597406505236,162.09292187791323 715.4717152577915,160.64710515083596 717.0490024862776,158.3023891863155 723.1734159332696,158.54448380139843 722.2713792519799,156.08278685854998 720.1911800899223,155.44544370829965 716.9404093800295,152.7744559348646 713.4259962998268,148.05781343715603 716.5485574782193,144.03121259703846 722.0108679283608,140.0305539950623 722.9681774284352,137.96288155035904 719.815720431791,139.02739316310192 720.7069283568601,136.27789902117388 723.9543037288439,133.87997893822194 724.7738432180504,128.16947706734754 723.8102913951249,123.30744943466891 721.0901378797897,120.14866135191039 719.2331478626231,112.3696340731907 720.716899641966,108.79629969290681 723.8931106685106,104.28362217129029 724.6230771030232,98.76976295593693 726.2577428933072,97.64748710299057 725.716980200287,96.12327816028244 722.8281820156607,93.42391804950739 722.5707824859688,91.01432526483313 724.635036784275,88.87446925539325 723.855651317366,82.2159735788199 725.0499244046348,80.9631459645725 727.8101440194791,80.87589895193992 733.6369763749075,79.21589195717138 735.4587734943015,71.1399226648632 733.8148950318108,67.74854743531637 734.1073693222091,63.97661848302289 729.7785119338082,57.349659970331004 728.5438009711628,54.679697451305174 723.3330459166683,54.070845457776045 716.6547611764225,55.92366517878429 714.6411137924471,58.610307724426775 711.4796766415475,56.9700150774122 707.6259461877527,59.28410992859301 705.0034971952107,58.58746982021387 704.917512613157,55.843703817398705 703.4431635899055,55.276950759398005 702.1438520554336,57.027043913063835 699.4481076260607,56.01527588086276 695.8199791325777,52.41362550998156 695.3123591595738,50.46329221508802 697.697213864433,45.50097957971798 697.8508678324208,39.84141738440701 696.7080323855812,37.516431798613894 689.2961130398191,38.01569250715659 684.2019757713573,37.72816326897555 680.3593882949571,36.10776959909401 675.5363191467223,37.57709775327521 665.984078662294,38.04502527150055 662.768673093586,36.70693691308293 657.561386473262,36.76292234538141 654.2669920835975,37.69006388252046 653.405718858383,39.235408041455 647.220501393727,37.97008928118919 641.4726645060616,32.41672613212586 638.24340123849,33.39394199762796 636.8431239401208,31.77975726624402 635.159176621552,32.115850306670154 633.5708027585187,28.997989460424492 630.2364561139251,31.813224033063193 627.0712017603161,30.158558429902655 624.5328637553154,29.88535386022511 625.7597417653756,25.56799347356582 621.8225386698344,25.812882504998697 618.389035586477,23.193063646305518 614.9153857069687,22.878665736218522 610.6124935428946,23.377125623721668 608.1556737334522,21.884134836655562 607.7976100454582,19.314572320301636 610.7419905260538,12.855605039599709 603.5033192187003,10.59092386378984 599.9988910375505,6.579933460625398 599.9259430639113,3.6351419383249777 595.9826924358597,0.0 589.2088438768958,1.3584223596161564 584.9144700704992,3.6620491242600792 583.0923469133387,5.752606524855764 584.7819395752759,9.652706310716326 585.544852833155,13.775403966401768 584.2024472143056,15.623425078242349 584.1099582888776,22.143402750353857 582.6838279978782,28.338659431468045 580.3236579617194,30.054159804369988 575.9380246381589,31.057570135383685 574.6604200276091,32.17425803118965 576.3921908115755,33.95297190449435 577.692285647265,37.1536951249758 579.2538585736431,38.61771641836742 579.0476063683673,43.95130664807607 580.8606216427087,47.62035356558613 576.785763868343,58.38005947763418 576.6045855465653,62.56732601658473 572.9819644586843,62.93129529618011 574.1564153713797,58.99845302303504 571.2448402926358,55.35837481462545 570.7171843609447,52.76681625832407 563.5953061747887,53.21884018453056 553.4111912010633,55.486278555182366 544.3349710573243,56.513860740585756 540.1462816038459,60.513389290289865 535.0645860105137,62.40766776889325 530.628309589237,62.09693924149178 526.5271643118156,61.00367537173997 515.2365212823512,61.15880944684966 512.4680876083205,61.6117824987175 506.16952352852223,65.0768482837733 502.3909264058378,65.82227210269207 502.00588597089086,62.69088299516898 496.2418627266418,58.980328080529944 492.0496636576123,55.059039382802894 495.3425687966006,52.60640496668793 498.49749941051715,45.682689315955486 498.27989740107546,40.57153261002679 496.59591372539717,36.16889181101317 494.9234129362701,34.40804761742504 490.9343183806457,35.42632479365352 485.8633779658895,43.85838842131716 480.8899184557919,44.365688655247936 477.95587660709225,39.27860774904866 475.837847911639,36.855825137426564 468.7012353209784,33.709414332819165 462.5859904014022,32.53611674380397 459.36628670985596,34.77270595741368 452.37942512927646,36.928055045730275 448.5985332614502,35.962394322469095 444.59437338882344,33.442021505361936 443.32893865624345,26.490020910287512 440.8857239289496,24.624132534445835 438.7782449693866,24.749819879862002 431.271198962315,32.091283575411126 427.7531577391935,38.18559776579639 426.45376502512056,42.39782749998244 422.60777415812885,43.950219588726895 420.04618056928155,45.92327241041983 413.91256479457667,47.44718373678768 411.19800614650484,55.801229587707326 409.8919575435566,61.447422822629164 410.29340066399163,70.09882339544833 410.0882669641472,72.86326793770274 408.3492109152299,78.83541364384087 403.28806499492583,84.49070666787179 397.3762732218706,95.3297762635608 389.78554600400264,103.52910229256838 385.59050447502835,105.53670289221009 384.0457943285661,104.65594611695451 381.7007820207385,100.23229716539163 378.49053198846383,98.48014170324927 375.72790444242446,100.69653370637218 370.99715237358777,106.01704544156598 362.7224457642915,111.01707241603674 357.9958567923341,118.66774966040805 352.485029609744,124.55455678811495 346.29519650040675,129.01394831070047 336.13790026261796,139.58146382700193 334.4869006377641,142.12824668699523 334.3971806140911,147.2174655900874 329.87166988060864,153.99553045177856 326.89234328650446,156.34293273540254 325.68183416089335,158.66863609593736 327.70103692424397,162.62914049364008 321.43956278194474,178.484874473304 319.90178328657413,180.93163477043026 317.7172361500817,188.570660790464 315.18354015753164,194.23207527752243 313.41652301720865,196.6784556276566 304.50075284917335,200.63578106095065 303.6902059071119,198.07436744554388 302.9925026398574,200.32238252828336 301.7169344140456,199.24580490211906 301.2319887769535,201.42365511086155 297.01646957939937,200.78916931306662 294.229171163719,201.56914784055846" /><circle cx="300.1213872807915" cy="534.436778841932" fill="rgb(100%,100%,100%)" r="16" stroke="grey" stroke-width="8" /></svg>