<?xml version="1.0" encoding="utf-8" ?>
<svg baseProfile="full" height="1024" version="1.1" width="1024" xmlns="http://www.w3.org/2000/svg" xmlns:ev="http://www.w3.org/2001/xml-events" xmlns:xlink="http://www.w3.org/1999/xlink"><defs /><polygon fill="black" points="173.08211706097285,527.7064673737284 194.73516680953344,529.3103082345376 196.15767049614556,528.8250064938325 210.6716318676419,510.9380845997342 291.94410934715165,569.1488419114912 363.253685476114,620.6609782841231 365.2305765061764,621.7285866914531 367.38296201935475,623.6353104909155 389.48675340594434,639.5727084771497 391.9598614614983,641.0116757233694 419.8287884158397,661.4346708337072 422.3477716254947,662.7733166336039 423.3126432862719,663.7754903491319 441.5028073923873,614.9653046610331 447.0526051698981,609.8717794418636 448.6006888713011,602.9029263154287 439.1854432876245,597.434975779871 443.1247301075495,587.2632493057065 459.5455592904034,566.9524062426322 474.19946504989787,545.7564439914371 483.2785463291307,534.1777469482986 484.541333341869,530.7811322399214 485.928916621454,528.7739100415422 518.9016177363035,490.74501617066426 539.0688655854862,501.6444751580869 545.8362088995077,498.4389508478488 551.3801226058288,494.2602475899922 557.6441029513578,490.2540414879994 561.5151919799769,486.2676536864375 574.3743084472807,473.9836258867224 590.1481205213697,489.1202107699687 603.626783055173,520.8369630556474 605.6992614281141,519.9125187725471 612.0741526993891,517.8295762522494 622.6603358875069,517.6063621718997 625.6558089777499,486.3755392067902 637.2948610248621,478.28675878311776 644.2522300927459,474.2127882531739 653.9366542880523,480.45709022625806 669.9672754826627,481.0305282094734 672.4043887501707,482.43535834346255 674.6094902566374,483.30781899313797 681.0974536014331,486.4904983378095 686.3031578898566,487.4655349992133 695.6675085042051,486.7337698711295 697.9101117560078,496.140512713821 699.998147772145,509.26952754273555 705.6612967865633,534.6594819293666 708.4584011127736,541.4448603199908 713.2043610056894,550.7841022863178 722.3601209755825,563.4832530904854 733.3308143998948,575.9745290263936 744.1026494442588,568.2381361685752 763.5446895159757,555.1303157687034 774.14946974603,547.7884946230113 776.9751196436018,544.3922061896516 805.0395923395525,482.2815232312476 866.9417792329203,345.8421322132051 909.6206595057556,287.895772376262 936.979777574265,252.69383449224318 945.6364130657436,242.32299387522687 955.221902498627,231.3684170773156 973.4708243197855,214.19523869495345 985.6453262882255,204.15158309966728 996.136381558683,194.66742886200097 1010.2421661921294,180.17212811072164 1014.5633672552227,154.84291338790706 1013.2152584539523,141.39506571492586 1013.3889309712144,137.46628203141086 1024.0,87.98811649871129 1016.4444812018511,59.897960253144106 863.241536066351,67.93125371651297 835.9889526218876,69.37924756510472 797.7298621141816,73.11493624550212 770.823048425898,79.30287635950492 756.7356420429609,62.841702808324726 752.6430616657492,57.97570061758495 703.2219915029099,0.0 658.268211613449,0.18063995975967373 641.0811248649442,51.66673890724712 570.6049447423843,103.90970316819153 392.5273915517135,55.59858195685638 326.19869370003937,42.35562238779448 259.7431245879346,28.981949792255477 178.57915915625492,12.55873231351461 109.56509767003206,72.97872374514736 76.53016328576756,67.09409708029284 76.58416378656382,66.66038985351372 37.14137742281938,59.0198898767851 36.1467643124242,59.880963136182686 29.33198472095226,58.65778984369206 25.308424587315738,57.555960924266515 19.87968920311276,56.97065744006841 13.438826243317122,55.82096712969769 12.031958967052404,55.24086045648983 0.39470975630580907,53.01050357896088 0.9270152552655424,55.42270210579795 0.0,54.82240096746045 11.080409859232752,100.20052154148902 12.575686387859319,104.17761608692979 12.900562556496833,107.66248596572916 17.297902520524893,126.02924713779248 24.61063110260741,154.47867011424893 41.517096958186755,183.4085597410069 48.54575519955151,183.56938310001948 47.92378281436294,195.68231390349007 57.96312884282684,195.31014255943109 58.383751649451966,200.15239370973063 60.08747905286857,208.31711388489958 62.21864291427372,210.91425719381726 66.44362058701245,212.1718584750027 96.70765530069158,226.35434962984442 94.19644047290903,232.84855403183053 91.93945300062087,240.8770505186303 92.05166939248743,244.9788744773503 62.31252532558354,235.88862348514914 63.73991681456961,240.52677030791978 64.19142462863807,248.8923421099434 80.81534058853539,249.2461821101124 80.76690008850547,258.2621377300312 97.6435262835472,261.2460786043489 107.47718119950754,264.76354679759567 113.28817707343563,268.1706623292561 113.28408291027434,268.4884669755867 109.2869756984995,290.46446749117155 106.27186425181094,296.3059439962323 110.09380622400128,298.8874886194169 108.14425196573089,302.15217723186856 97.71887914300004,295.66044675883006 86.93319574302625,291.7966516221804 76.92483610896153,285.85004761055393 74.69262608268663,284.1575998685967 72.5693257095083,284.3260240339695 71.60973335797905,288.65761553026977 70.33393969067211,302.4201856669841 69.3233135100915,310.671357714888 63.031858696027626,308.8306776605927 62.20999638515807,331.0647534315368 63.75915175698965,332.57885502606695 69.54081163362481,336.7491357833122 72.83660623450405,340.10828212724874 76.42928648299326,344.5254769366492 75.73359048562644,353.0668140131482 74.74766130640991,368.4277189750054 59.01444320136647,367.078820966921 47.709895677536075,366.0519659049207 42.42566437697171,365.46374996546353 41.83865550176619,374.2660458905754 39.53556099197906,405.4072091137002 38.13648165788109,425.39806012734255 37.62425273648868,434.6410187365511 37.203982704908015,440.245708082409 36.88234577728428,440.46929811388594 36.49844797197509,446.37642662905364 35.94008103425307,457.6000864273912 34.76620298406398,469.6103310520051 34.21319754352811,480.7280998332975 32.881991613049536,498.58484539924495 31.291059093064153,515.622346049533 36.5754467211455,516.3695871205705 74.76668850809105,519.3038733135393 132.83839134784927,523.9301120262719 166.85950018081246,526.4566766058707 173.08211706097285,527.7064673737284" /><circle cx="160.02503511892567" cy="395.19667580286756" fill="rgb(100%,100%,100%)" r="16" stroke="grey" stroke-width="8" /></svg>