<?xml version="1.0" encoding="utf-8" ?>
<svg baseProfile="full" height="1024" version="1.1" width="1024" xmlns="http://www.w3.org/2000/svg" xmlns:ev="http://www.w3.org/2001/xml-events" xmlns:xlink="http://www.w3.org/1999/xlink"><defs /><polygon fill="black" points="83.92161614088442,259.54829551608384 85.26962918636181,261.12480213784556 87.90197776934973,265.1902471866547 88.42713788932151,266.5035539552142 88.16420757146821,268.73858326902405 86.58126586428382,270.1229906024662 80.39665382028512,271.18518110588957 76.65014690898337,270.60472592647227 75.26468347072311,268.7011184845129 73.23850711384605,263.38755517479046 72.40920162003582,262.60217163415314 72.07785326115619,260.13953822438816 70.31569648978721,260.206714040003 67.16901673639698,261.9719857666058 65.72423805569373,264.11128531117924 64.15140774741194,264.9931937245003 62.2657365139003,264.6834724001708 61.19531104196566,262.48789991474007 61.952905843895344,261.790972381457 61.445576741817625,258.7791152832028 60.068114445477114,257.4068638430565 58.55462959520215,258.34960655730924 58.43434065804024,261.67793718506766 57.3625541806665,262.8707058789769 53.905783891592044,264.70052697728306 51.450041620268046,264.07129055585835 46.92546709552108,260.94248879668373 45.356208622160494,261.5073037839637 44.97501281429349,263.2015535269866 45.98395146033296,264.71213148461993 50.31939863451949,266.46096288544095 51.940176834253485,268.260745128625 48.692996444119736,271.8473546585278 48.36487753770504,277.2459980127222 47.345124276796696,283.8023275777689 44.48637328606646,294.4887711795043 37.821709174770554,297.5519694822357 33.78039038138709,299.94394367518953 32.31470612382577,303.0657755553909 33.41534110218695,306.90963536013896 33.591436424397095,312.2312126871823 31.572095484531545,317.36915720082845 29.184244319335505,321.5900330665887 22.578979113768344,331.96369352618535 20.740568520540897,337.4680344503647 21.28963082232634,344.07438922213487 23.126657469832306,348.65700391373707 24.04225155525935,353.05795473448813 23.308801410469027,356.1813694213964 21.468128544230222,358.4813739303536 17.959463942222534,358.7455565471712 16.68456017010122,359.96225688010475 15.858990335594042,363.0358994794926 16.332684353943815,367.29005868016327 16.218808946849244,370.0046710969109 14.916062922417254,372.24599582541566 9.353044272045711,374.137558941065 8.646896042166464,376.1543358597231 9.473708861136119,382.1755376836222 9.301402339234338,383.735138072773 6.519540003071064,385.2600682607135 3.9836504923215124,385.64314983055635 3.4489995022661226,386.6345869988321 3.7382660455225696,391.02423032633646 2.5002463439519724,392.48591169241524 0.0945830277010709,393.7490518997438 3.162424976237186,400.6411537588541 7.070307148428198,405.3508097849764 8.378949478322818,406.50981413338195 11.06649101426371,407.82537320182814 11.296334470622162,409.2048306376736 9.202666540130899,416.48844329329745 9.295272200672619,420.68751581709046 11.157086677015835,424.58531843587116 13.94239669455092,433.5229609261945 13.760944892925027,441.7033939573298 10.498850563563828,448.2153399727914 9.45684302306788,451.60064673897284 6.521465968660923,456.1506954688748 3.552261430402777,463.1617363348462 0.0,467.73093130632924 0.39930143149464825,469.0986471178609 1.8537943131975188,469.2636882436391 4.291063339250339,466.4725246893988 5.604875486574725,467.3764537434346 19.586890874866583,478.1899824623573 21.759798381446384,480.08582466910275 24.69071402440269,481.8689547864806 39.84414218503896,499.3908492940093 41.39365951888169,499.6252856727431 58.02437325297521,503.67342553088406 95.73349016081865,501.3756385716298 98.05632959845768,501.3310074545052 101.24218524661455,501.86976203002735 110.79808646883426,502.3243935533077 119.04392569915203,501.5666616317143 133.2949452482731,498.8640347700201 141.40776056913137,498.8559869535301 147.36904315499217,499.07432620205793 153.16136871956226,500.4333537268358 164.1494437743059,500.51500801041846 171.3210559097708,500.7959180028282 174.76636542049556,500.04561075470997 177.83235306088437,498.83110649624984 179.4794996161869,497.6877817722667 183.3257222650117,496.0612186878616 186.24277538742663,495.60594615990306 188.28185777542987,495.76008642609725 192.99860198524593,499.0911982149295 197.0660550415441,503.65378703607234 199.59512882261274,507.1215894449359 200.27906339098857,508.74088141814593 201.01874000541247,515.5896832056185 203.00390945431326,519.9075332140366 204.53141574655845,524.1491637615804 205.42708357908185,530.7713519386505 207.33996484157424,535.3158043691953 207.6318555485693,537.2391369935732 206.92973951438938,548.7578195472597 206.115961938811,554.6262958220873 207.37212312096733,559.3969935687383 206.0058695978956,568.9483542517112 202.2601170208255,576.1049473154546 193.73808521162786,582.9236304403634 186.9115807459839,586.6805874681861 177.70705754057485,589.7536570812183 172.55736413252149,589.2569988618402 169.58464357983658,590.0415876932768 167.2020379889992,590.1902857828836 163.1075984037568,591.8628875993227 162.18327878869252,592.7896600243776 160.5566753469322,596.0145265213141 159.46631096295553,601.1000204795553 159.99924806438597,607.8848542554394 162.1148036213807,615.2822418415601 162.99579314632572,622.6874203858279 172.6428857047843,629.5927280301958 181.32179924653545,630.1487924056293 203.8411915330041,627.4253529270957 215.87165141099305,624.7353614721101 224.9395532454969,623.0151538053423 241.12178242381708,616.5035271502286 256.68223980360716,605.4847577180703 289.2042323905189,572.1160801556359 310.0288435350815,555.6051538937007 319.7641724691953,551.6105714368771 332.22137030346175,550.249309858378 342.5342017299815,551.6085502659037 348.3583061793929,554.108197518729 357.1445657753259,543.9008339235654 353.2304856793593,541.3191138321477 347.8840607623763,539.6429154451862 338.87565127765345,537.2988216323236 341.53799675681665,533.6235311887219 344.1276343142437,533.3044916265048 349.88879432780925,529.9580846329956 355.89326617641154,527.9620748351679 365.25697831390755,528.2999977538921 377.61619589597484,532.2997171847572 386.97907970735645,539.6311882594836 394.34011966411805,545.9699069785311 399.0229345799577,552.9789632208754 401.3625382111174,558.315475640687 401.3641202297173,574.0119994873087 399.695695331276,576.3587360381207 392.32687758156874,568.6844342664747 389.52561685699845,566.4743926806175 383.11582874059263,576.6979939893247 384.7879367838661,578.0650670922878 386.8563390121922,581.3454301448894 388.9037953848195,586.4507197198556 390.57983213001825,591.6145592134906 391.8879480836236,598.5191873204806 392.17300417665086,603.9331775151688 393.40456524777323,612.2756626046148 392.8321968739166,630.666824260524 388.5953768775612,654.6559684196586 388.59571203090263,676.4717649680315 390.37764191176535,681.3290926238478 394.0811332875468,686.1865455917768 396.0809411270897,688.3496165165188 398.3778396128698,690.047180999318 400.5313565658665,690.7401633261118 403.41881929597326,690.804555213934 406.6399397231929,690.0724912114781 409.67270200950037,688.7380013105983 414.2857453521802,683.2295058105736 422.34337078697945,675.6903044461544 424.6695760835512,673.1550118518002 426.4392679253733,670.1578465279899 428.16071047927426,664.3903016963509 430.35565598572146,656.0771222523426 431.59312564505046,653.2339021502278 434.1308620927025,646.219829789849 437.32120109704806,640.7251631642764 440.38894512426117,633.0762224980173 441.25534267589313,628.8428708488684 443.81392328834096,621.1219462333324 448.7578584963081,614.4274773682906 464.8489367172171,602.1742062039314 476.74805869889127,590.2803171345452 482.3404505171507,580.1466441898323 486.1979951988791,573.4211111342765 494.6334521223593,567.3323644077545 498.3964354120241,566.292991480258 502.8531930634868,566.2751937187377 506.27236427892666,569.3341561707537 508.6733847663058,574.1041064796987 508.66309114637164,580.2403851437462 502.16158211935647,598.6823128839998 497.71013351668967,625.6393986968543 491.5444792755103,649.5325225950776 486.0715200996363,661.8339991395108 479.90566913266815,672.7736471869408 469.6473670458913,684.0615556792749 446.70905399662735,702.3849881009778 440.5152368883614,709.98784736844 435.86947027410156,718.0568114220762 434.3836877184302,720.3322759415203 428.10300343332676,725.9434890682841 422.4677330175064,729.1093296375535 417.2809131077145,732.8742181099351 411.16227782890803,736.0597760036687 399.09955759184635,748.4338234596618 383.7794374154592,764.6132013632853 375.2572741124899,774.2475806306991 372.71508896089426,778.7898279391515 372.1445232884225,784.7387414750607 372.71772560051335,791.2541442710046 376.1185915699701,799.1929857979934 387.74561132326437,838.2934384316039 391.7072329198901,858.9730325852 404.4814271844494,897.792949491262 412.14301935139906,942.2745196558787 416.6912181406465,960.6869460079753 420.6597226104294,970.312488557313 427.4803763595945,975.4045392867208 437.1432942228488,976.5079082105706 443.10739468553834,975.0793502866198 447.9423687771347,970.5320485410903 457.8852402765289,949.2401164558784 467.26523883732875,935.8795309386578 480.07867346640217,926.4842543678922 500.2588769133991,910.8187420583205 518.4519547886041,900.5566186114178 530.6851103181813,898.5306898947017 539.2076559580846,899.6465928724147 545.7375126802689,901.6189793513978 550.5578417148226,906.7068514162397 554.2479241825002,914.9215905906239 560.790543904647,939.0001723404018 564.4767908681405,954.5739534951005 566.4635884191587,969.8812310395141 569.0133352649623,998.2305078759299 571.8498850248052,1014.0932024408593 574.9715494262152,1019.7599381623317 581.2118819265852,1023.7260687726537 586.6058931649316,1024.0 593.9769463386169,1020.0275238033688 598.2219422910081,1014.0728098739773 600.4920779112576,1007.2687566696526 599.6462620945327,997.0634858042898 597.9405237617298,988.5614810289588 596.9680928921026,985.007470530779 599.4634011845092,985.0443517217651 603.2411905609162,983.2883379757332 606.7731291990873,984.3778076944276 612.9940003846134,988.7214507959134 618.9946468399569,988.8178472864001 624.767104696788,987.6116882575939 629.2374367444535,987.5609784164824 631.8503848212828,986.1852760569958 635.2927038838774,987.4300842920167 637.6704469597697,989.4449065343837 641.8529194713728,992.2080354271941 645.7999994550602,995.9649627416844 650.49457359275,997.9262305395838 662.4972350881716,987.2071377892789 692.7554231989031,948.4420828668885 735.17975336459,876.2456480081532 738.6032268124426,869.5252131617626 747.4228541778767,861.777276897003 778.1769279631501,838.1600544870005 790.2687096828133,827.1694357366791 794.6615530989624,821.6650712759682 796.1513861950812,818.5620777034973 796.0344859579933,813.4332714586276 801.6724746000355,799.2910224775126 803.7293162750638,797.4726427469445 825.5755812300291,773.6361437776116 850.4761500892496,737.7272365913246 845.9705058688113,734.7555760454966 840.8916223931369,731.9698085525845 834.8151179502156,727.4982498270824 825.8226334049816,722.4787500311181 821.3566838510994,720.6255467150099 816.7393756400172,716.6896790262094 812.2032144583252,714.2937161486601 806.0551165382221,709.9661083017531 803.4496945018946,707.5008977195191 793.6913168063445,700.8522073156729 792.8671262495172,699.8504853520734 804.5907574674982,672.6584792373437 807.8006809067269,664.5645390971956 807.9540270709208,662.4759810317422 809.0107318882827,658.994426274698 811.9433605680343,655.342777391437 820.6971229887646,643.5140028427724 826.2002889054319,627.8185811903907 824.6855311353501,625.2716842045734 815.9573053224245,609.3691587446322 818.6119869125522,603.3014754863664 823.9237088166487,596.8517855901575 838.3518981479716,585.0773833728156 846.3187350005774,570.6621193938579 837.9747831849456,540.5583179741486 812.926940187995,446.46086379679207 777.6627235714838,398.5697057915694 742.4450495352673,365.2258226862929 731.847679598034,361.42441146331225 729.8399712750738,361.5868533674584 720.6785610091525,366.08804279876495 702.3176678674098,374.4740958106071 697.3696425533998,354.68093962004195 697.0923505384146,352.96468789408505 694.4578482124527,353.00565174269275 692.8337389959391,347.09449944270693 687.3060680316861,322.9223429158558 684.8031136400062,316.9473124001388 683.6276854199348,314.6640103876201 682.2557854592942,314.40410633758984 675.5731015792137,315.5141385376128 672.4917153779925,317.7238649469451 669.641995096701,318.4023020545285 669.2672647690533,317.3243755308307 670.9702545333412,313.64492044406495 671.7474321180028,310.1078794666936 670.6141099015177,306.0215738352989 669.8660081907868,301.71444732644625 669.5606764138655,297.6339264097761 669.8838512632311,294.63726097526035 670.8837827616989,293.48224421559894 673.6573978529116,291.9645530253266 680.2683860318492,289.85276971847077 684.1983270721918,285.7116907536954 688.2741027877976,283.8935447544561 689.8232645668024,280.5980777059483 692.632959903406,278.3017402735728 688.4850345649292,273.7011391828088 679.9479851959175,264.61834848174954 680.5194869055482,261.85323529935476 683.3544865762751,260.89811596513425 684.3616005934475,259.2822234699995 685.0738820315443,255.08154654034354 685.0714088627683,250.05521405147408 684.7247675007122,243.8376061620005 683.3859828299024,242.21411608803385 679.6615054274844,242.03941184684936 678.0531818775778,241.3543071667118 677.2094711684462,239.5789867350975 677.2080165839837,235.08442470417663 677.6743838119463,215.70996280832833 679.8725626250192,213.76518951245737 682.2465009251637,212.58380244678187 682.8364306979504,211.23099870553233 682.4111716501253,209.70420983477857 681.144393022852,208.3465762286412 678.4389272725601,207.1506654158493 675.6427866769862,206.46672346085893 671.2043787788978,202.85696340370737 670.1863347620149,201.66773775873787 670.6971594738467,198.36395869241312 674.8359339658722,189.3819103744811 676.2392172141842,183.3283237817633 675.8947936837043,179.84609015303545 673.2828886432417,176.04852213555353 672.9332942531883,173.1491928537538 671.1066222262452,167.57746316390228 669.121468057667,164.78043053764452 664.9721567195356,161.186548258499 660.85662722566,159.3618168035282 659.4286804478119,157.47664477813714 656.7940761258614,156.38109612700907 656.7267836050183,153.69126048054818 659.4773965799186,141.32231038531643 659.9078440326715,136.92697506047045 661.384869527179,133.47192426458992 663.9514213703619,133.21905484401577 666.0393551129226,134.38660663194617 667.4356604285937,132.40614992917665 667.0870177021324,129.61019168583266 665.8076815592285,127.9774172464796 661.8075184038819,125.96661517495477 657.1593658182223,125.79966980336087 654.7712752365954,127.02127850225065 652.5683827533265,129.5781786299417 651.2852730153667,130.39071519467882 648.1418954572816,129.52891734019784 647.6964873838921,126.03916118297718 645.5876549702332,123.74775896895221 642.9179208626407,122.11013657184162 642.57297175137,116.75726740224366 642.1091651387227,115.0082012015589 640.5921681684441,112.3255476963509 637.9250391065988,109.88073540551477 635.244410856615,110.81073914958597 625.9471316259268,113.47084536049726 621.761743424915,113.23226348802655 618.3832991951758,111.12669785495916 615.4956258192725,107.22322866634454 615.87453490557,104.06718353633244 617.1056019592049,102.28507429912088 620.0197813573949,101.23826546613589 621.0599317396226,99.61410994474272 622.9252900153892,97.98390121849604 622.2266750834126,94.83724216877374 618.3855332436541,91.81111149735091 615.018842089475,88.42823042336772 614.3165760600737,84.69881546246052 616.0418975889015,80.51585856859901 617.1420315714787,75.3629273956617 619.369657445855,69.15623586319634 619.684055430442,66.18532836502436 618.9691980461703,65.77973078689547 615.6891595165864,62.06896886354957 612.7809282680918,59.76119434675695 609.3329077411221,57.85285107404195 604.9045257911209,56.248695166595326 600.5876131282313,55.61320537327424 597.5996792181461,56.22057411260084 592.2412997290761,58.51808894657279 586.3394217719754,60.590414133360696 583.6366465837198,62.05025982668383 576.7733408137746,64.14926496550538 574.5805244432526,64.02708946141365 570.6335588424366,62.88295253933927 567.5871697498311,60.82251827804237 558.3333267871961,52.35477587885714 553.6767881375386,48.36025231421672 545.0865615638027,42.47659025659743 541.8021925657903,38.37619947633425 533.2589877922082,18.316408034605843 530.8128132716395,15.29501939776253 527.1778687112725,12.265507217455593 522.90565574557,9.337354975175572 517.6473608513951,6.377124079764144 514.0985642011162,5.2565300753768724 510.2918578899777,5.2321532086579055 505.46622558842245,6.218211238434947 501.6899404892872,7.4404847427189225 496.2173526515861,10.357915407154564 493.63821567154633,12.58986636108341 491.77327018686714,15.759748602161835 491.74082913291204,20.56341652277797 492.59698213085665,23.24582350931189 495.0426279354388,28.118209112633394 495.8843642707772,30.443679811653965 495.7890632457069,32.69317555063901 493.68777944989415,35.31673073294883 489.428896990815,36.94462436672791 485.5812369938549,38.014556000223365 482.88086677523245,40.09665650342822 481.25819276209364,42.15964303841599 481.1364115478752,44.37869185057923 481.7178538389046,46.70883932231254 485.7745135379149,56.50096127012591 486.8102697652577,60.29471203221112 486.79973541438204,62.993846539174115 485.93336744587805,65.47181060490834 484.82703652019353,66.78984169943158 475.455457948426,70.93258844784032 472.32586999091535,73.14416237210139 469.01886576239684,77.21981776836287 466.10020613127153,79.42751955082701 453.3372800815053,84.40551075775454 451.29897863524917,84.51223075572636 448.21626684434557,83.15473618174519 444.6333127404258,81.08080047127919 440.12713341218637,77.78615183815293 437.37199042192066,76.86180867656867 434.4270778591225,77.10752138549549 431.6183365702253,77.87178863620693 421.1909547213734,82.5699083475879 418.9919106862325,82.55671445568441 416.3934790916453,81.3741323717154 413.0769555963234,78.67179323980451 410.2413538340618,75.89937720460296 405.64021362108446,73.40147995484438 401.3587175429404,70.40789434204385 400.2135812903299,67.99446459757314 400.2644980703346,64.54957241998818 403.0004499650708,55.027412143781135 402.9114604581938,53.3022167145765 401.4802870458852,50.873548299102254 399.584497364449,49.86397657248949 389.0984955162521,47.52764166377426 383.1555136782514,45.76883870416236 377.91853904844703,43.455401451255966 373.72723520852765,42.11637235797798 370.241855696332,41.74548293120904 367.3601322226964,42.233061628773385 361.1357590953376,44.24962337084412 357.0798350317308,44.991637837528856 353.73424831762816,44.95632631104172 351.5858621181883,44.440399014925106 348.40268189966923,42.45940053890706 340.9108592684753,35.62515789013537 337.94529979548315,34.08070528785879 334.95083634740166,33.81354064635002 331.85402883831887,33.98705404568807 325.9161399945946,36.53830540960587 324.42146468848864,36.807348880543145 322.5715952595285,34.49762840349456 322.33988413212273,30.139171985652524 323.14642580185347,27.479495966973673 323.62737373577784,23.965887934455623 323.5877557567668,21.56587494308144 322.96325871337547,19.419878874339588 319.40523908463865,15.085392737125744 316.353512847671,12.867910285960193 310.87122569293723,10.300921760239248 307.22621335211056,11.93429555201908 305.227848742232,16.901250046397536 299.3835925001102,19.020161648693374 291.6601983384465,23.590155893281235 288.2614463774663,28.499010598376685 286.38918311622336,34.03686538549073 281.41367667975186,43.54942312910191 277.4048509182486,47.22184779581403 271.86229577874474,49.345297991040184 265.09471057679707,48.06451543856724 256.4958091201689,47.08792862142252 250.05316737676935,46.118055545934226 246.96828996198886,49.18134114607108 244.79827920449426,52.55759571643409 242.2819787949649,61.17274698833933 243.49340553044266,67.94972947407405 245.9269895764713,73.20491341804257 248.0314996857905,79.98914569335443 250.47632352741027,84.31500786177185 252.61156211678596,89.27007676600374 252.8761312783006,96.34940389615122 252.52854080369923,100.97616102882955 250.97975343767314,105.8878770364156 248.18266826125554,111.72835073381361 246.31052795339846,116.95258049384665 243.22211444474706,119.39408251704981 237.06992005244226,119.35857813815005 230.62266023342409,119.93025952569849 222.61999880722942,119.57551481838698 219.37251268604004,121.05764909304924 218.27467202571816,127.87497546731254 220.10244574024577,131.57867692510183 224.3685544315138,135.91939349953918 229.58817946536053,139.33337091800763 240.3293025366168,143.71517097606375 241.65417822269177,143.84725462824315 242.72186083013017,145.21052044387886 247.94976744251093,155.4158341611277 249.3263942861764,157.6951637389451 251.48340019670624,160.28966716515265 234.71736822629012,160.38198726939913 225.1211816082918,160.2765769101444 212.6640715847657,160.45145390627715 189.48283661587246,161.10795967807815 168.77660727016365,161.50783098695217 157.98257965188043,181.8316807053102 144.6011006019957,193.44966266666825 129.29486719333855,200.07400131932127 128.45322734165848,202.99177105731496 126.67787477220102,204.9407774963488 124.82049289304511,205.3887238124679 121.62366841288636,205.30350633926264 117.99247653335159,203.81237013506689 115.06032353443587,203.45724586082076 113.46787396771444,205.23016571066478 111.87336145771422,208.59931750208204 109.56365149127649,210.3720792980588 108.7697217554059,211.9706607079769 109.03650341497504,215.15780792124588 113.90902544255874,221.3375534953384 114.74904272741718,223.94428496086607 109.64484720801387,227.76416433073337 109.81086720313522,232.19191440218572 109.48274168776501,234.48973927759675 108.22888995254853,235.80781916689364 104.08966119239645,235.9508748149741 103.16523799478892,234.50121117799551 101.38614982941708,234.5073124039268 98.95305241616606,235.9541046060425 96.05855312257461,237.0102593588557 95.07224405177749,236.43138003600916 93.16342371153308,233.41064908179726 90.98957332337045,234.13794722457385 90.66358935673158,236.0463569576625 91.84638008568375,238.4736591651067 90.99112748742132,239.98037614569228 84.64268690867196,243.64427472005445 87.44241102723807,245.91641359108235 88.68800911771137,244.01469286052873 90.08009920780788,243.42240823460975 89.62105157248985,244.94344367412316 91.4284012556405,247.41395696907477 91.03557655256442,247.63451153603842 91.93322044972686,251.32523533351264 90.77894402579197,251.96640589899687 89.87659629427363,250.82375789025104 83.92161614088442,259.54829551608384" /><polygon fill="black" points="163.17312883020696,504.15844851997576 160.3340248924969,503.5863820566419 156.57578745414781,503.77583393052737 154.15178190356488,504.4177041531624 142.19337438818573,511.26069763522014 131.72458925257135,514.9028632835604 128.96872409076755,516.0002505911588 128.4969944254098,516.7147142023503 129.59955254723,518.042167262199 131.24786536624924,518.1197462133243 139.91195138494746,514.1769835123908 160.05319974995572,508.4919804510995 165.32088196536802,508.0944012429743 167.1380323569841,507.57426982149036 167.2243587969606,506.0049519374279 165.45434670887903,504.605975397718 163.17312883020696,504.15844851997576" /><polygon fill="black" points="138.6546283948246,505.7664128532108 140.29811737820626,504.90153670674465 140.3051583499127,503.09716339193574 136.05378924686698,502.5550428600146 133.29947383054014,502.5557266455927 132.0399523077504,503.10739271781256 129.7525485061651,506.1766334621133 130.3868944409483,509.088405390872 131.87931543565387,509.94824953965565 138.6546283948246,505.7664128532108" /><polygon fill="black" points="500.06293511727876,4.05618179722569 499.2311292891644,1.76144335923982 498.63620923068237,1.956015958220064 497.78481658912096,0.0 496.656993064417,0.5303595610795355 497.60460034476915,4.089285531579662 496.2571935718484,5.063983672446625 496.57625645333053,6.407789154820193 500.1969633788096,4.44185318125642 500.06293511727876,4.05618179722569" /><polygon fill="black" points="87.44241102723807,245.91641359108235 84.64268690867196,243.64427472005445 82.73138513095041,245.0844672663651 79.57610410629772,249.03035531538433 78.25930954127344,251.269975425108 78.05966056737337,252.6435393546011 83.92161614088442,259.54829551608384 89.87659629427363,250.82375789025104 87.0195993238377,246.40320438079777 87.44241102723807,245.91641359108235" /><polygon fill="black" points="357.1445657753259,543.9008339235654 348.3583061793929,554.108197518729 354.66841708611184,556.8050173941035 367.0156122983283,565.53600900595 381.89856999989996,575.7019361677778 383.11582874059263,576.6979939893247 389.52561685699845,566.4743926806175 379.62841482280356,558.6792917507411 357.1445657753259,543.9008339235654" /><circle cx="359.2021818605549" cy="505.21485031432803" fill="rgb(100%,100%,100%)" r="16" stroke="grey" stroke-width="8" /></svg>