<?xml version="1.0" encoding="utf-8" ?>
<svg baseProfile="full" height="1024" version="1.1" width="1024" xmlns="http://www.w3.org/2000/svg" xmlns:ev="http://www.w3.org/2001/xml-events" xmlns:xlink="http://www.w3.org/1999/xlink"><defs /><polygon fill="black" points="842.511491126185,130.4343706214246 785.3642869838449,130.54022320987815 767.3117162537594,149.8072708569556 744.9533306685574,193.27615698982424 716.4791738963553,207.21527758907075 685.2532066706549,201.90089402356693 652.6407088963834,201.33493493796948 604.9535410461806,204.54410878298972 562.3527324961324,176.6078510184301 535.468383821545,150.572503058228 528.1748864445303,116.15117233004264 524.8517454900378,80.05943417368042 510.35741054716897,72.83092831484169 497.8651466518796,77.8927779409338 492.26818061132917,139.03887016162696 483.7744139358907,174.95289618367428 469.476198801416,187.5641784849853 439.92263323234965,198.28225652753179 382.3396864241157,200.5547406778254 365.292014342881,194.30654519880522 369.49104084674514,158.32169269276096 430.04034217184727,97.3326627519566 449.7868163720072,66.37812469358835 446.171377568483,49.44821612125304 421.7730952841478,35.60045442814737 374.75094902155644,41.23048008184776 321.32621755742156,54.544298314805815 307.72614938625134,49.94044083266465 284.28324274814827,41.522267402573334 282.29347704619346,41.95403390792046 271.03277398120696,41.909675673945 266.058889863794,43.88834971281108 253.96788168922603,47.17368823773427 249.32871586955332,44.49092150879528 244.35222697471306,38.156512096648726 241.36838048282578,35.16144274940814 232.42463971771676,35.794715304806914 222.14521575923132,34.433130833803375 218.50513095753192,31.760066946238794 216.8388732573177,27.766519635675422 215.5222261538545,22.764571401685316 213.52456541314132,4.1465468459422254 212.20579679988458,0.1515996174512111 210.1703457127989,0.0 202.71395946966032,3.2590836130325442 194.71610719855937,7.659196159298858 186.09616251991446,11.65194489909311 180.5060109304566,16.24376303534575 175.39720635469604,18.632132666035886 167.85042234774076,22.64821493289969 162.01017351989378,28.372884214398255 156.444019766708,35.985419962821084 155.12576942671313,39.969966064460436 155.4794372030544,43.14235635911541 160.72810160363758,47.87200273174301 168.78083782975443,50.95159967933978 169.92328314414706,54.3222760092151 169.44178170877038,58.08825921755397 164.81480598476816,64.75265377286678 160.1786546147501,70.68090504671261 155.11966785367775,76.38855074600565 150.90970463066085,81.86365939152245 135.64452797975423,98.80607685984785 132.33482429642598,104.49980383089508 129.81118902075804,109.71126912240663 128.06571091641075,112.39874248133901 153.42063516461738,127.31447701233776 164.60879131129892,140.1670566478773 171.0006909502754,151.40636021566456 175.78902312785598,166.64519647624923 178.1949335082555,185.0810702998657 167.00054805248226,211.88344844568132 163.80557489276808,227.89678869881334 168.6884894402958,243.44084975063458 172.48602481327598,248.07195947881746 187.14300423961066,260.3480233594421 189.44737570938688,263.9849110703326 191.25920925175936,268.6099029374511 192.07748968451,273.0790991714118 192.56850517923286,279.52885404593565 192.41247245409787,293.3981964311076 188.1295783995208,305.7768618192298 184.34340805029805,313.53526031797 179.39782231427776,321.6107283387852 165.40539667090658,339.7361031726341 146.79095325520566,363.2961743257239 141.6839057214995,366.7537461637438 135.5896813490227,368.5483806486339 128.3427004803907,369.18766487507156 119.12927939997728,368.5080401838357 105.2815661748704,365.1515954971123 100.00616858570608,361.998133235336 91.44716013570574,355.51679910640183 84.68683168469639,345.4311156900674 69.53914484006806,310.1887056787852 58.00890310771298,285.88417805085237 56.08533792903563,282.6899339693314 45.3195925110968,273.2788277241955 38.879881167877954,270.5321495770937 32.39662413589829,269.3967655389482 25.721075686661678,269.9357343948925 18.872485149575102,272.32954191691454 13.13202423279683,275.66363855302154 8.319610630228567,279.91094069569226 4.235407205379687,286.4056006851407 1.6406044466551093,292.901646145294 0.012923416803341263,299.1301882658946 0.0,337.4166045690769 0.5284678559317937,341.0050719979702 5.349003293950019,352.16817908587166 22.774096241889527,384.5350762083299 29.431713097125577,393.8438567837445 34.988503472261826,397.5731507502221 39.078287118655645,399.0647777469763 44.2521459458091,398.3369255856788 51.30110997280703,396.12966972262865 57.162583795940044,395.05189491584633 62.34648522520022,400.25469274550414 63.94450113766225,404.26963437719473 63.94046826466238,416.2909947429586 54.34646855675126,425.0707692351653 33.569371252617174,437.8371064992833 24.324385446807494,443.8372931994054 32.70846847203237,461.4940874005004 43.323980928703804,474.87832632754464 55.67692338627747,494.5408308406971 61.0353757825931,511.2364997321216 62.3987329996896,525.349957187962 65.17963116869326,530.1868280889137 68.1913329362449,532.036581762634 72.69776523050152,533.5125697143317 85.59910153624398,530.5327169024356 95.54933586228532,531.8349733065284 100.71050961710004,534.0513758566922 105.27135750455015,539.9715935946452 104.82599581052564,545.2374096696026 98.06065903940704,553.7290110601131 85.99951749397388,562.2199633274655 56.90953694067182,592.2830990560701 54.218599475073724,601.4394566187893 54.99461629422018,606.3533795455504 58.03727679058089,609.7517280150282 66.05603299282119,612.2839507472838 76.63970307952664,613.3618315992818 78.17778031228654,616.1824731699721 77.20377914640783,619.6446490242932 63.433545802491075,636.2184174630877 62.83363739484006,640.1166711856013 66.49500732803615,644.5335150225249 94.3957849077237,668.3030988938657 127.64313943785461,706.162675272725 136.45403441976083,725.2889758012457 139.70429567704488,745.1521030190288 145.73215611177116,762.2404145113178 152.6925781347919,765.2064605977029 164.62319420891822,765.5626219062799 175.8711132739163,764.4351169048921 196.67165783433117,748.0816171241156 216.4561871557022,730.9815578694369 227.7526277680609,715.727532656141 233.14582527322483,702.6081969508693 237.48555834415546,691.6111860085934 242.8899731633941,687.5476538523837 248.6733944676927,686.6424096981502 254.02608983209043,688.2528525827023 258.35759086546216,695.2981643012452 261.03113469616045,703.8502169383113 266.46465232065486,710.0507172317489 272.65859154994735,713.8729982810829 321.2512334241874,738.7657144939421 340.3268847630881,747.610915201082 343.7472244357487,748.8051239448334 350.6592254714232,748.9222705228287 354.07017268235774,750.8387263587349 354.91042645242,754.2867664770374 351.34707363708736,773.9760283127795 343.47997218629627,790.6899344527494 344.38165588254304,793.9779995248567 347.46361902137824,795.8889054218519 353.22703280654036,794.4829620815786 357.38132288776376,791.4238845589855 364.6317278749641,780.2751416701426 386.08868988478184,767.2541998687306 393.34012900257744,759.4525348045956 405.8192114472418,733.8084904712057 422.6324007909678,718.5629489691798 428.90686396305244,714.8416525499907 433.44883530456985,715.4959456799629 441.85282868420865,721.8839791877518 448.89687315475356,731.1320455503173 460.14259711001176,739.7994830331021 465.1146734684195,740.7920398563414 473.02468838837865,736.1883093084529 483.9391832334833,728.5019134907654 495.83749279833864,722.9153524205387 503.70727231388514,723.4158830287846 510.99197655493725,726.4467840351674 516.425833450256,733.6456255366559 523.7914148103008,753.697692691841 523.5286365445305,767.4355981925102 527.586002927888,786.3701008419355 533.6063648758911,799.7262634988226 546.5448532071357,804.5307034408687 560.7763285689366,801.1552173210013 577.6144862000062,786.2673351655163 603.0485682041827,767.6390451767616 626.5284474524602,753.8314470665229 644.7369608045271,748.5891336719309 672.9118650340388,747.3913959867822 701.4652227006862,752.8717966482656 712.1659235668565,753.0932813695748 722.0128375462548,751.3184697063397 744.8335800847868,737.85753622366 757.3630077816674,733.4585074989219 770.1406525208281,731.6971406023895 792.2759062758628,732.4748937258663 815.1814820423849,731.9982880156259 825.773500355064,732.9132053684488 830.719011873361,734.7438878303057 836.8091165940895,738.284442600467 843.1160939850247,743.0114791070505 846.7997969382516,749.751156132784 848.6041328212141,758.2429836157758 851.7379922470138,770.7286512920299 854.6879608657125,781.1109044576341 857.7793796691224,784.7282001956498 864.5375186754886,788.897315218529 868.2462290221163,790.4350932383172 874.1063446362972,791.2332648778896 882.5178803880942,789.2550092756115 892.1361095688401,785.11791002089 897.2039343412787,782.6209506870721 901.0789272061278,778.7546789843416 904.4122191546267,773.3284332606046 905.3406329264834,767.5874736167906 905.714718770988,760.2380065305983 908.5082999020935,756.2241698910345 920.5459402604826,750.422038329005 928.7122273858747,747.9305486051051 942.2217976699129,737.1691803744928 946.7547454464387,734.5981207974676 955.3069611637623,726.0485274792148 957.9435431307958,714.2084160585207 956.6288340012024,693.1719663099691 957.2847917702138,682.6542000394055 965.7167548581866,670.0214765552543 964.977013534397,597.0761565071741 968.6288515026845,572.2370578238872 971.5566068509114,555.4228623592054 972.5689783940516,553.0010197184478 977.735661738276,545.7665760843911 984.6435426627015,534.141203238787 987.1671336136878,524.7808102006088 988.1391247400401,513.0252020815487 979.2738216908932,484.2618769731454 978.702309956983,471.6944461408925 979.6822127285069,461.5222359645792 980.2038308126255,459.0611458904505 988.4080933447353,456.12427475171086 995.221034892482,451.79139154955175 1000.7924340127275,443.74218300610426 1003.2662562316775,436.94463023627696 1009.7579455303148,400.77077497752333 1014.0967775294567,389.6440832855414 1024.0,380.35756607286044 1023.3699473638172,374.7978509363987 1009.1438178890708,359.9863261430074 1002.3350088005222,353.80472563217234 994.9117341911077,353.8140637471208 989.8598010938452,356.38112510685147 976.087915963833,366.57539860877483 963.0842316437245,369.0289786470279 954.0648784603433,372.65023734700833 931.8504325475468,394.156961752466 923.8847197192139,396.2795268817447 916.7055162458383,394.2381657114479 913.5025075423684,390.39941340406847 912.6519833329872,381.4793739384663 909.4657676688387,378.52252603890656 916.1886195920339,369.7876944146889 919.2646487704021,364.18893200051343 920.1644273182616,360.34399171461484 918.4450262828233,356.5188249552708 918.3197390088669,348.678638624954 918.9640491208778,347.16843824976326 917.6223101665639,344.41093541727827 917.5387530291472,342.5570540865687 918.8271587616184,339.49498503974473 920.4647374792547,338.0285317177394 921.9385795789573,333.54878640400915 925.2606192650204,330.0600388286774 924.279415263319,324.8839482875121 926.478429307351,321.4770959248425 926.8545650712152,319.711241695251 906.1466930312188,314.0136170095324 898.715081823125,309.6815172931729 896.249268032265,301.6513243177497 896.2600900012395,291.12973244542434 894.3963425551567,283.09659986052543 887.1939680022512,277.3326277862976 863.7619185519874,264.97307673239095 861.892446239804,260.8151576453496 862.6552468698436,254.27631596892593 870.5717723851661,243.54288985428525 879.9718440172323,217.57892172606842 874.8772567580439,194.58121505706094 869.8318167407512,154.75568211657355 842.511491126185,130.4343706214246" /><circle cx="93.96419367382504" cy="458.3866088840988" fill="rgb(100%,100%,100%)" r="16" stroke="grey" stroke-width="8" /></svg>