<?xml version="1.0" encoding="utf-8" ?>
<svg baseProfile="full" height="1024" version="1.1" width="1024" xmlns="http://www.w3.org/2000/svg" xmlns:ev="http://www.w3.org/2001/xml-events" xmlns:xlink="http://www.w3.org/1999/xlink"><defs /><polygon fill="black" points="836.7781528076891,103.92220481807169 838.5991348153697,100.67037089935388 837.7389764843093,98.34843209513781 837.5066668667204,94.74807437398442 836.1606735450399,92.47576832539983 835.2707907391905,89.55408806504215 835.293981607329,87.92657514512689 834.5086301588109,85.80402289936046 833.4542011272529,85.18796316833414 829.3337364122191,80.63475849661131 828.673900417429,78.1514479387281 827.3245443337778,76.87255096235174 828.242309724111,75.37258674770283 828.3732790641747,73.48498335478155 827.6751102450224,69.9183342495769 824.7726627478978,61.14259818346261 822.3945525013145,58.296304704131785 818.6045640480653,50.937404947223854 818.6767232860988,47.950690945093584 817.9661428862582,46.644976706047146 818.8094402425379,43.73774157465482 818.4549023471609,41.90087055010622 816.6186766021592,39.288240793729756 815.8011138996133,35.81635786712923 814.2395974626735,33.899689659087926 813.6010890194094,32.0179172498398 814.2994102559401,29.546701264183753 813.5532898486632,28.509087833862054 810.9587851452844,30.294327197662255 809.1543398095679,29.582013385075356 808.6656017751444,26.963773116902303 805.4391453442205,22.332201196066876 805.4123367870159,20.081709265133327 804.0936898543048,18.736323126765683 803.2340882462863,16.35017458923221 803.5178560751979,14.520095682186252 804.5960281069625,12.935265092368013 804.8157719243436,9.689590673564112 802.5942082168327,7.609497944729696 802.4673573156133,5.427531517061539 803.3825369609056,3.8044422276202567 801.7948671003958,2.6889066917533455 800.7939565618433,0.9467919168884009 798.9189685573976,3.3022505858564273 797.5716552089959,3.291440443129318 796.1752915621357,2.113863306198141 794.233232007808,2.8622516867005743 791.8760175032611,2.38408516664731 789.4781291382383,3.12305653864496 788.9581654907975,4.139912676492713 787.901742754619,3.9402879823667263 786.7522418435144,7.3762052195123715 785.4995587243943,8.813112961649267 784.5630119109373,6.628143654789142 782.2628275955702,6.532173586787735 780.7351173500462,8.481963882118748 779.2866665068768,7.846910493731571 778.926310910779,6.21934989539136 777.4142303074474,6.01828376572314 775.8663428383038,7.351963380479674 773.8071847766604,7.793250390701246 772.9207134064836,8.707468807493342 768.809322290071,10.598664168723758 768.6823837921262,11.53411694343572 767.2415868033848,11.340359160523917 763.0091286537763,13.916356890809311 760.9360237426839,14.099219630172229 760.0520075581403,15.822111075583507 756.5680041331676,15.810461726833296 755.0328226247113,16.72664369770507 752.8722796901551,15.852161129596652 749.27689366223,16.48420379921788 748.1477176647952,18.093755633261935 746.3122643808938,19.231247994265004 740.8462998002684,21.991915425563093 736.7600666835558,25.615072622659568 732.2246193255686,28.336363294149464 727.5835563046196,31.450443827538948 723.581188288811,31.370348146598985 718.328119891627,29.63392494668983 711.1891496272713,27.717841732199872 707.9987656494702,27.732985578238527 702.252548665016,26.803234721315334 698.8886059561465,26.029128910266763 694.9795793883253,27.388015304026 688.2789578538614,29.005839244842264 683.9631583819236,30.253789118092186 680.1853276155979,31.601879872950917 677.3858335096731,31.326357504955922 672.8799262893373,31.393008585698453 669.5223310766742,30.34261255835338 666.2404227565307,28.24008035820225 663.3299518990082,25.199273826154354 660.0343644975641,22.830398341989962 656.6755155413325,21.654441724686876 645.24047476087,23.595734143157756 642.7186524397729,23.565211365923233 637.4533386727621,24.323925690921214 629.3154008983053,25.99074329191501 625.0594546160282,25.784285823710206 619.3004686904142,24.58198949116968 614.3315844395735,23.352064830487848 609.0567282124881,21.209609070016313 606.4070788632437,18.56277982385609 593.4300253544405,10.710400815089656 582.3603946041563,3.780595086529047 581.8087319343356,1.913652291096355 580.8800095485464,1.3597246326874028 579.0231584083763,1.7850735947661178 577.2099651520173,0.9353517105554374 575.2578714886621,3.294589974538667 573.901564622649,3.296276670381417 573.7998395853666,5.505277899062548 574.3627379477169,5.963955299026793 573.2363339776832,8.00412366639091 570.0108947662344,9.047226206366645 568.2806922978764,11.378470599884622 567.177599229705,10.63536997293943 565.6432652694145,10.980529010251871 563.7942768442144,9.739031186077682 563.9197746099151,8.521151860700911 562.4237231055573,7.208026818053895 560.6025333638034,8.032464587128743 559.3438992089463,7.016409048284345 558.7068626955104,4.808696651172681 558.2420916147483,7.880737510021163 556.0056837330068,11.009830441546228 556.8660427743072,14.031326163474773 558.351058317519,16.80239619458098 560.4503487033082,18.582486205493524 560.5772805105473,19.747405767442388 557.2415051077181,21.675012628693366 555.3152108412302,22.233825666413736 553.0269238736043,21.497644759117975 546.9671476432906,21.086794745655197 543.32084377358,21.776361538699575 540.9088954524484,21.599406812037955 533.0067950838863,26.669345722331173 530.8408181601939,29.07217055478202 528.4269320852951,31.112142283627463 523.2400905565305,34.820670731881364 521.5175225324888,37.101628750994564 517.1369794204755,39.01605861202688 511.9529595549866,39.074225220873586 510.04582114743937,38.83165474270925 508.01211953362673,37.34917653209072 503.38956390975727,32.97385076116336 499.4452603604991,31.740668048692214 498.3330680317676,27.854503760279954 498.8271663458422,26.065628139647515 497.78057377484083,20.154487140422134 495.25859506615626,16.81973083068658 494.2090802799639,14.658913030226927 491.511700613421,11.868031546472139 490.05983235783,9.920269453500737 488.69294671873365,6.67176062335534 486.71593702240114,4.788717964627722 483.5700420063384,4.919510681901784 482.26400385501853,5.727049625223799 479.7717620283606,6.34926433195244 477.71223281628977,5.175362389047564 474.92426910358495,4.81841740219852 473.8052241220646,2.691093604222374 470.04880700678,2.604098506229775 469.31836038998836,1.6050368644795299 467.4934287333846,1.3858887733240408 467.5947100743032,2.184604254607166 466.0961701473888,2.968864628492497 466.01534273727754,2.1785438516939166 464.6870676230464,2.7947135295003136 463.52439683161543,1.2343375614149181 460.2401045316716,0.0 459.8609447355418,0.4627851687743032 461.00342344790107,1.9980945518665294 459.96579478471057,4.07626190145686 460.802013846733,4.583082278878919 460.6329699435367,7.367084586471719 461.52734289467656,8.472578984846109 458.44544202634205,8.901281076094278 458.0182245899579,10.439487615499957 456.0787459031243,9.92118438535033 454.8300721744988,10.452643473034982 453.02087320689026,9.01691415707046 451.6743179456146,8.97490550966188 451.00691304211574,9.865856343992164 448.93488452260624,10.115487352574746 448.6009758118905,10.969566158576185 446.89285397029494,10.32320956800902 446.54027552059,11.318700073617038 445.22758759220545,9.901648599759937 444.5864096594293,11.292472567439972 443.1079385852612,12.08467308211982 442.7134446065412,11.272726250263304 441.130816995952,10.958444041650864 439.38647478165115,12.395175312987021 436.36763051451845,12.198105542076291 437.2430868477929,13.495408181187145 435.0845330691984,13.270809443542703 432.83319676269605,13.755536289281167 432.14701111599067,15.663146129738834 431.15432478750273,15.633330576236744 431.1484335044509,16.816569282570867 429.5440529852578,18.118285810698694 428.0768460588074,17.335572789754337 427.06041401421834,17.839069820978125 426.7230820082248,19.292436301941507 427.45774191649224,20.642199871652906 424.2233980440823,23.69581863636097 423.23046377241036,27.098382611769125 420.11371436510603,29.850749528166602 419.94215950562165,35.13571815443754 418.5205309309072,36.50189594608389 415.8240573358857,40.599453739528485 414.4880287663541,41.556537041535876 412.1108370253898,41.74238004839651 408.8156662554383,41.38830791300404 405.90153004152614,44.20513614629965 403.5305529321799,44.990566942835244 400.24838851221966,44.84460472170974 396.13295165151845,43.59107499294919 393.5884584230142,42.4280076854119 391.12181926621946,41.897329354718636 389.41522756707275,42.30028659879406 384.50485708895457,44.14684790429578 380.13033112899774,44.12000160932291 378.79793558401593,48.15201302543949 378.596133016792,50.962452952007425 379.742817968356,56.69237092081869 377.0692652853792,58.49687188144787 373.93518495702193,58.99819757073965 373.0316648644847,59.716373913553525 371.2059500850265,59.50302666783034 365.93752002845804,61.15286859366529 364.3444405030951,60.861913168678484 363.6118833120976,61.50319998491989 360.6030419458696,61.419445608028354 358.7290833081477,62.2897175498008 357.4851473930029,64.32872681338927 355.5015442399419,69.20109877405389 354.73884806048136,71.73506474522037 354.75564129408934,74.24393231751515 355.76236540949276,76.46727687225905 357.791136956194,79.58836607287094 358.1684227474586,81.69342227314053 357.36423790616834,84.16158059228701 355.4678103601465,86.78323075167316 352.70559548280806,89.00553387950265 349.28633763011493,87.54957136147823 347.22503772871397,89.00583851669239 345.09976579703,89.2364541868493 342.75390902817594,88.71964110110605 339.92557444433186,86.59031137108525 339.6311478618808,85.59246609689569 338.131754523991,84.61653994977871 338.3434815911258,82.59684871574154 336.90687026763425,80.86131831846888 337.58216990284484,79.57838739560748 332.96286962269625,79.56004965987529 331.12393647419236,79.02954430975785 328.5676675768811,80.63974643313861 325.40149153093796,80.0560810108401 323.8383932476013,78.79647883435007 322.67246939498995,78.70021447851548 317.8516500111548,79.7502983624604 312.9916292697553,78.96688805846168 311.0560194962879,77.9194591362766 306.30853595324885,80.18510792521829 300.7902568805956,80.44946979858639 296.7481456829641,81.41550470896652 296.02576539551757,81.05568000140988 293.6593517328791,81.47117234951122 287.8736696043504,81.29534039767577 284.72630114627214,82.57687789618251 283.1767541563179,84.69307233263805 281.023018828682,85.07266490726022 279.4691284746631,83.64562395619214 276.36350943354137,85.10964734638503 274.0345085496706,88.34189841272848 272.22511427720826,88.72653736442805 270.7070262054804,89.93345704524916 269.8515595009131,91.53440659851674 267.7321747801004,92.38809623573468 267.2998151212329,93.76827150931615 267.8079144489138,94.96362888498334 267.78051852570985,97.39898230873928 266.91592637841484,99.1244393501114 261.6417190406112,99.55076769746017 260.25308889977543,96.34532018160132 258.605635680722,93.56814282959601 254.53687018117196,91.83095563435324 251.5977429110505,91.65883748104375 249.5112412633914,92.77908390309415 248.64682025242297,95.6382981913747 246.9559487047648,97.94691521559037 244.6358182347451,103.32160113767634 243.77825961221018,106.94875302112064 242.65197542165404,108.94370697036936 241.18103191465414,109.8914324091362 238.7755684389362,110.53895778955962 236.0513446433185,112.87416155924461 232.76194075517395,113.313009979355 230.55620421081804,116.94429077444818 230.1262659988515,118.67451389461678 230.72907192184041,120.31229993785803 232.80496389195866,123.47039051317086 229.78931452802894,126.17562663219576 226.09721610390054,128.06063596873366 232.17066071407672,129.43984253798135 235.64937749009098,129.69997174939647 237.1149620100946,130.38710052862984 237.55491924333634,131.95086816546018 237.46989257220739,134.81247296723632 235.16712999422856,145.59473873997126 236.81203288026674,146.98146806051648 235.5179820298557,149.58799417845114 235.33984082175797,151.1413240417222 236.0964374539974,154.02109219983117 236.98924470397284,155.21423207169653 234.1212553112845,156.43391134995 233.69495654193707,157.47208942896475 234.5638117054835,161.54470868792453 234.16917985599977,166.09563691679136 233.29769500310758,168.3484669760735 231.6509498884293,170.08231100763908 230.87617755019133,171.90035154064708 230.95550366301993,173.89439430300433 231.9129091831689,175.45461324339328 232.17080226258707,179.26605212109337 230.08886807914433,181.17149046707937 229.0522574248897,183.1670459272434 230.21529762469564,187.27965341646734 229.52719501632325,190.74995100334604 227.52983122157934,194.21541210236546 224.57697080369007,196.30372417041485 220.67424413080622,197.69117615426683 218.71753755387115,201.20671921096516 216.89077864214886,203.37681598465906 214.03422013188487,205.02191412579907 210.9939262224293,204.16389373473862 204.99221198264246,201.14467687739716 203.1709718465485,199.33246066778372 199.52245926937758,198.55483783655995 195.78752068633247,195.96632460785702 191.53335398976594,195.45230877403446 185.8975324074352,193.47203842441922 176.4348049909002,188.71960133254197 176.0914042343705,187.67964451521766 176.69848581956455,186.2888445391443 174.48505889342363,185.99062523978216 169.88933855562823,179.7530717018143 168.32382157078266,179.3236671802988 165.28562925369255,179.7580537644891 161.47276074554946,179.75624144696417 158.44601398577387,177.93692306862488 154.89369300334766,177.5904249258681 151.60008427996218,176.5491278970935 148.39783713848465,178.10253209172959 145.70719258325036,178.88366411603943 142.77362125370374,178.53163869936805 140.176534999102,177.14205060234326 137.5815988266468,177.2209708496557 133.85219411881337,180.0800766315723 133.07265820234943,186.66238638327604 133.8574458305007,188.39210359795766 137.7894169780243,194.42021410898099 137.6155103813379,196.75902613536005 136.41186060120413,198.4878170819959 134.68298802883788,199.18599195101 131.9975006639466,199.43249271862192 129.66116842163288,199.00034446475888 126.80384031635266,199.42374662448015 125.16381190347407,201.07222702219076 123.35143010489617,205.39357277783427 121.78619774985387,207.65152203229968 119.49323742709315,208.89644981310448 115.77299273714965,209.24256480942756 109.46556386994801,209.48262400186616 108.25131755823155,209.9176106149141 107.12775004168077,211.56234712738637 105.30776438667102,212.3360291717255 102.36872770188748,211.3810495005215 100.52544121366469,210.4096979152573 98.36601404832419,210.5514463830981 96.30784697674692,209.38111369519572 91.20210337938784,208.8514638743618 86.52131669535574,204.0855880324499 82.7277803706436,204.13863530399396 81.15408257633766,205.30174572251372 79.15632161319856,205.38305078944984 78.37649686831175,206.94133938721052 78.55618036228566,212.1407014533737 78.11934248168453,213.4464671647146 75.77962540484576,213.96396462348469 73.95355536667572,215.35457061258285 73.22424630129696,216.9544914719006 73.7438143636362,220.07334327045942 72.87504948598699,221.98305477991505 68.53261406664305,221.98055273444766 67.49875020982364,223.54915589127665 71.47142989519209,228.63917225863406 71.8826838896125,230.7903459960654 69.90676959627628,232.600162346542 64.59830987005977,253.99998332131213 53.62425475907564,271.2587296461961 47.24508598092417,276.6405415679717 36.938592467001364,282.39144797555605 27.45078003020489,281.55199871062314 25.697087268424905,285.0137069788144 23.238990780699556,302.0509743128831 19.936486745814882,307.99801038469127 16.48799192834673,310.3435344994199 15.837299332464998,311.7936808946316 15.877901847064843,314.95269079821253 15.135593671905621,316.44489188623106 14.320915121486681,316.10789154587474 12.402763065987578,321.1182220945449 9.115394578958067,323.24576401775875 6.996803272033935,325.5824434561721 7.662051837311899,329.5659187224881 8.49487797859034,331.14894462764136 9.062010081403521,334.1214232475268 10.89755631601481,338.47425414648256 13.534546561167518,339.31879572961344 13.383938547405428,341.2340804845596 14.833704779687755,342.3119370255361 16.880699585938295,346.3038262662553 18.47403043398759,347.6313035725095 22.03227830541654,349.48186472606307 25.49825855619075,354.3924739856091 26.011883342322864,356.78911682283604 28.091806173853314,360.99887922712327 29.337864085817298,361.9026968409757 28.26094858102761,365.1041207068302 24.87624417856407,369.76819354813455 23.843178681314278,371.8988940035105 24.406813235132493,374.12872957958393 23.520152568267314,375.38916506786984 22.239776696240416,378.5255447762756 21.105104994903805,382.27218554926316 19.750611825849234,383.51886669006376 19.32831997099776,385.81321831868877 20.53797117896282,390.55756393072227 19.703684774891187,393.6581828751871 16.952591570715867,397.46575244369495 14.378882609000046,398.7621246654465 10.970648174141704,400.0383151326182 8.509626698707832,399.9535108049575 8.18167217526129,401.1520702565833 9.018000569671694,403.1884488924933 9.126881399339332,409.2457708599201 10.480037121256508,412.5756443313772 10.201712656872688,415.263624206555 9.262790094542433,417.905617264371 7.935416969662969,420.349546133889 5.020334241359474,422.57691395068264 3.924782532361154,422.9771573845353 0.9946813093450747,426.1169608758065 0.50730427046791,429.5009094486512 1.0702108328316924,433.41472058078114 0.874562377149237,436.3204620472612 1.9851992435901797,438.3390889347316 1.6028943099401673,440.62670518536123 0.7690563947583234,442.3479358667457 1.4561126470926713,444.92161872873527 0.0,449.64393587711294 1.1757496262220055,452.2572530114586 1.8190649004111905,455.92860690829673 3.117939469208177,458.6834314925786 6.363876816378268,462.05410896136544 7.9027617077555234,464.08787088819605 8.314709439171075,466.57219299580606 9.223546311231859,468.6680313153715 9.141664487266029,473.49194950414056 9.938457105691123,477.2803857421631 14.1213544172196,482.2291353105391 15.821108782262979,490.3254391974708 17.785466477199854,493.5712868293965 16.868016008277237,496.5841434077739 18.560134011964394,500.1588979819964 20.347898928767773,502.7525504546473 21.466278595407314,505.78650665864853 21.60463468005823,509.9407941960389 22.566917851294328,512.3645227609709 24.94295300511122,514.5441839796417 26.235033358974984,517.5856148699568 31.22281957032382,520.586521090745 33.373142551083944,520.8491101011489 36.81277280320556,522.1672369293746 39.074576673090824,523.90369360363 40.99051360617956,524.201615571299 44.89926311216121,522.4159143851298 47.320383147954956,523.6314827758247 48.57363218842254,523.7740660254898 48.71534945232918,525.1643378185788 47.55226949358031,527.8951820110562 46.206888937861095,532.2955179262772 47.10367295814433,533.9567142346318 52.807142387728916,535.5782879629201 55.36065637344817,536.709224869771 57.222090951290575,536.378084832528 59.44509962293434,532.28152102229 63.34383232371244,529.1043754380105 68.50318398557101,525.6078274437677 71.43819509487315,524.5401908292065 76.42660444103963,524.3965325854696 77.88709553630252,523.5233206681522 79.43081248093014,521.5514791463175 81.12409542471518,517.5933586833698 82.94804799540832,516.3735569156268 84.47695740531515,516.5971778934286 85.53278578196989,517.5955194287435 85.99249658297613,519.2513778788488 88.71387690621732,521.0414499085 90.28527037394247,520.1170978044338 90.29076489377525,518.030465826753 92.66120104434921,517.8043109245748 94.49800825574022,516.8940921651141 95.68234252381617,517.4051629669349 97.14637787166846,519.883268279712 99.24387755347868,519.8760940644861 101.36540145675373,518.956161096808 101.32729125026586,520.741173886889 102.61548674247794,521.4524489097204 103.76914476402078,520.48019504729 105.5162474706282,521.2883008228583 104.04419298453776,523.2601320903672 105.2773523909081,524.8261190103234 109.96062800422769,526.0739658754562 109.25310505464228,528.1825213987186 110.09674862985196,529.3330783593452 112.97638960710509,529.0432529054115 114.33063307145356,530.3489743074085 114.88663752179087,532.5570380917829 115.74867399680384,533.4141734548566 117.93857910348068,533.4732613496476 118.6412863268511,536.1998453349673 121.66990979997237,539.4291489035618 122.86433942413906,542.4959286468563 124.44218980387448,545.0487963020864 124.51468277803644,547.9402595036008 123.55789217643212,549.3301230201232 121.7171627897582,549.7801051241855 118.3586043577746,548.7827505688681 114.20271933947856,548.7550054761268 112.07727360415998,550.6148615136002 109.30103324617363,555.3126780819583 106.91470329628388,556.3781524982837 105.22837399237666,558.3774558505797 103.81720434511269,561.8500721070873 103.49554263223214,563.8307075897374 103.5793508542034,566.8989148279331 101.1693504813602,570.3954582548981 97.12472887199313,571.8165802302219 94.72930368336459,574.4751826176682 91.62343142352458,576.1237337498956 90.65332036733534,577.2793722058583 89.34908256176435,580.0895779170554 88.87631116784202,582.3989931258618 89.39069192012866,585.9336165060022 90.8787973093085,587.4323411109406 93.63393148836725,589.4087589328437 96.35363553309045,593.4817087883181 97.11171869929086,595.4136126813303 97.42275495431167,599.0176415748733 97.00319555900595,601.5957457463747 97.12880828526868,603.4734406947692 96.02327551305058,605.6203780074541 95.54929627186185,607.7621898747901 95.78456852528912,609.303817846109 97.08405381667853,611.4086906964883 98.1307593379696,615.2263242763025 97.99459997169363,617.5005142600721 96.96262199586391,620.0075444413746 97.09119642101003,622.2971082578251 99.59886862293084,629.3262205248293 102.63605437618934,631.9974317921965 105.55572494031072,632.4964240577292 111.5299731085817,635.2553545411773 115.44745994027954,638.2641576501139 118.16730543279564,640.6353269041974 120.84063807712853,642.2434503089689 122.21756759529701,643.6682011296255 124.50740302437615,641.7125324911362 125.12222224416084,637.9990732756231 126.45993412288593,635.5723298672805 126.18731959660735,633.2331607320737 127.15758860515973,632.067916070248 126.93876771873764,630.0728425784101 127.92697192675962,628.6476342754669 128.322469577803,625.6242106761142 129.7845091138439,624.8492555960479 131.56746612042718,624.6680909065688 135.73340274342743,626.8514238571798 136.8905327139775,626.1794892566095 138.68710167899388,626.4341733124447 142.4435697881857,628.4025677622723 142.9511954150261,630.7479615066354 144.29613903811722,631.9122180013751 144.79713861263843,633.3935117396458 147.24320193568943,635.8914923257394 147.21703075691187,637.7962680224708 148.5211197320598,640.2702486209804 149.98237562805716,640.6949644296288 153.6586136593132,642.630117582873 153.66993315411227,644.0731528661538 155.8724468856097,645.3566776782177 156.85828357146173,647.4971850779125 155.20383474996177,649.8180507548994 157.10639626320318,650.5162883483363 157.0448736436032,651.7421332280168 157.98940406024423,652.5994097630803 159.61885556757775,652.3013703985241 162.3150158039403,652.7581675020353 164.34065361681442,653.5226755772502 164.90921893631486,654.4917559703059 166.16603494178128,653.5161846565345 166.75068898566792,653.9314920016056 167.44886157897687,651.9533367354036 168.98060521677397,652.1847579349918 170.37821277532734,650.9562321672508 171.75244231385855,651.9187917770204 171.7865994112068,651.0710680400463 174.66709761309485,651.6435132275234 175.1400189285917,650.842357661325 177.02614911825853,650.751601419803 178.13114293715816,649.9620018453165 177.9299271636492,649.0240075623667 179.48671529393334,648.5579434842598 178.96098004450658,647.8991254486541 180.17033819474156,646.1603720577439 181.44862254527087,646.5278632769039 182.67764448923464,644.6967309598816 182.8799486382304,643.2599861026215 184.30720831513696,643.1895206266342 186.47109961261867,644.6990022787395 187.25565215836806,645.8090431759301 188.89453239998062,646.6763963972322 189.57104193968445,645.865401733105 190.48295418758929,646.3947936832909 192.29476532872295,646.0018450648427 194.42442021771606,643.3075154222993 195.54780645012355,643.5245660691821 195.49782401910647,641.2170668898398 196.78203240952044,641.1308734422169 196.89614614765358,640.1395769111869 201.95827248914574,639.3838759959781 201.78727911193917,638.47908199573 203.8551546555184,634.5930084855686 206.89090421052146,631.8238269264891 208.77843658768103,630.7419666021116 209.32210636193508,628.7404997507919 210.25340489833084,627.943852245999 210.88987489206244,626.083881734442 211.6316183884911,625.7589506974434 212.9582607625284,623.5410473753664 214.20751308869194,622.9933930216499 214.504122518204,621.8748932519563 216.45499444626805,621.1114687128811 216.22367840093685,620.2913265282887 218.03932678877933,618.0437683418975 220.3068964725483,616.2036093503557 228.0649444937758,617.302196576026 228.93882973148314,617.0007210792712 231.90092228631732,617.6044440674586 233.31219256085453,616.9288938969336 234.87337678145664,617.116774177123 237.722826575373,618.8113396127409 241.2346765449933,619.3251777809974 246.59562274849307,616.8275386447455 249.82833317402898,614.6592730617585 259.1190233676363,609.4490985022551 262.1384339960864,609.6565706741598 263.5607429480534,611.337988636653 266.6928063278871,613.7589913368142 268.2173573955273,616.5721109427484 269.51920653050826,621.7621589625402 273.6379012764286,624.9965660155224 277.7685224887803,633.86949278753 281.6752733006453,644.8939861787529 285.79391938271425,651.1671120534259 291.73474571976465,655.978987990026 297.13742454346647,655.6424511200028 306.9218183425802,650.5624647464649 315.2489594706846,648.904105852504 318.410353462049,649.8884208587119 323.83423010085323,654.8046332138925 332.29679737460117,660.5546317884582 338.05386287988574,660.8837893996026 343.5707725463201,659.6950105276172 346.67675240637703,658.1609549940815 352.4237320105466,654.4847262481317 358.04080894089566,653.1763905662111 362.15568406006633,650.565411893907 368.0064492667002,646.2410390799431 373.42455149686623,643.5070120230541 378.6790212369149,641.7060493314323 383.5828858236699,642.4685312371527 388.70118201928244,641.3229347734252 392.4274502598838,638.7651934275871 396.79788593384876,633.5399778128051 399.87049751094486,629.0758354658853 404.1409906682965,625.0687794795203 408.1791484749794,624.1266173360959 411.91505359379534,624.4471814568484 417.00336601943235,624.4248660027331 421.0776568955588,623.0541130922132 424.9734087892986,620.3258012341809 429.8631303597619,609.8076218141209 432.5652597075884,605.2297825929256 437.1149641394881,599.112674793101 443.20550493743895,595.8895848744392 453.24375061630616,591.9835844067574 456.06389301212783,589.9124720050476 459.210470152121,584.2808437671036 461.109002536521,578.3286787417314 462.5867622732833,572.1801984755191 464.2834582071512,567.3211014276411 466.5290186959465,564.0829287692734 470.1595151896647,563.4539758009059 472.76759368670895,560.7398058838473 473.1693195884627,559.3849067319799 475.9719696059506,557.6577882453147 476.73844007427044,556.1228148597818 478.1623545094542,555.8795775419412 479.96860695839666,553.5186153909788 484.0705905167064,552.2541508759343 485.7812233666914,553.0221974546605 487.18230438107355,552.5860184726181 486.64988390525997,551.5360347358576 488.35629179483675,549.3691004057912 488.3242749270263,548.3546572633534 489.92473169216345,546.7093216927631 491.6987636292977,542.5539037955314 493.16823985378386,541.9075976424674 493.2240157659351,540.5820589571035 496.12552579166885,537.0342327761725 495.69520427172125,535.9663625741077 497.49679630512327,534.9972909277983 498.1455386028081,532.1478184744681 499.43880353249546,532.1402989551434 499.83023779599205,530.785913920007 501.7158703700025,530.8553452885246 501.9561295229436,529.6537612677243 504.6394735368298,527.4999443319795 505.73600551723996,527.1765942104944 506.7461306870992,525.6388803623898 506.73247271945996,524.515277673016 507.97391977737664,523.5781093004914 510.39321437203586,525.6359635268687 513.6617375913992,524.7160240298847 514.8396931131308,523.5697520974081 518.8029320413478,523.6132997880418 520.1700710724433,525.4573435076748 522.0010969740513,526.0387361436747 522.7381099550994,525.5265290107063 521.2569224247451,521.8645463785933 525.089145727424,521.2051618527024 524.7899307475732,522.5752804891786 526.2634307898632,522.2556267818993 527.9283211325292,522.645307522045 531.361880881913,521.0269954590276 532.0098505321201,519.9037666518486 534.0137067157495,519.660922046018 534.622768160259,517.8846188581407 535.5016672090728,518.0914757499202 536.7631389143553,516.3323461782047 540.625941897539,515.7306149813662 544.3485026528481,516.8657582205806 545.4283671021924,515.2845463191745 548.1814652461568,516.2888331892319 550.0472091309545,515.6531372755634 551.1431085722888,516.913474188267 553.4009589452913,515.8122417212305 555.0457623196658,516.1849248644255 557.0729297809522,515.4133022082051 558.6874149939537,513.4141445664563 559.6000928891203,513.1010470491772 561.7652974549419,513.5677895596928 564.3615433120704,512.6624593760303 566.4942427707773,512.945072829408 568.2061826265801,511.42280435836494 569.6328836930106,511.46316376445657 570.385302617937,510.5895115841483 573.802974114574,510.2017408214075 575.1076547394537,511.0902272850513 577.026117575667,509.76621762926516 576.8800564116755,506.3648393458911 577.584014296069,504.9223172575518 579.3111773788269,503.8099397739151 579.2729971221595,502.41108261042797 580.7767501462864,501.3517242917965 582.3552471308685,501.356438687562 583.7119864046215,499.9727351041164 585.0860506631639,499.9126420502069 587.0583282663508,498.08450194920783 587.5893162160197,496.65278881208724 590.399783613978,495.8365418418373 591.1287206112453,494.7203318711984 591.0506956371914,492.68511802270984 591.8360054563249,491.23329351079934 593.969587754411,490.0650491732473 596.0582059997145,487.82532255688614 597.117277582807,488.5904950766829 599.2802581469957,485.83788303437916 599.951821632116,484.27047322648286 603.5169657480328,482.8321562464396 604.6344810955508,481.8869688235631 605.5661522672643,479.97193104986985 607.2518783727309,479.64790150131404 609.9157965869146,477.8357740000201 611.0355544955318,477.78728035484363 611.7034736533478,476.7304542985602 613.2479418836507,476.517130347019 613.2326262176571,474.62339460012214 614.7929177971586,472.51587747253467 616.9611184601537,470.97876915678825 620.6040329357819,471.5996877413878 622.2604333343124,471.3506582506802 623.027614166876,470.1252216324646 626.912069059036,471.99100937634944 629.1110608557827,471.2237585182019 630.3900772740095,471.6840635328836 632.6326972474496,470.3714377056 634.1751687057864,470.7272012639514 634.5501642933539,472.0794257993651 630.9956421907698,475.72252588474186 629.0188334331073,480.10700455427457 628.5401872803276,485.3095837413667 629.960428446441,489.38820993824817 630.1771811041209,493.3074892484243 632.1938777703332,498.53530348689657 632.2640502040175,500.6715489838672 633.0497259526583,503.02451455352923 633.6299229060747,509.68063954610653 631.9452892489934,518.3637244354726 632.1966342694135,519.6092935722087 633.7489392242771,520.6192039404231 637.338837295079,520.1509849186496 637.8090433448356,521.7543541451016 637.4235998199675,523.3441070814197 640.1334975917678,527.0383563825919 642.4410784902452,529.6308549348353 646.5211501448708,530.6477790580957 650.7548725240126,530.3038413701838 652.0410981149312,531.9465576285777 650.7914526455979,536.5928534664438 651.0650638204744,541.6370393836805 651.7514793298332,543.3803077814443 653.5454416632983,543.3888381641309 655.9258953809641,545.309692967131 657.3956664673514,550.5902695045094 655.8326104756254,553.9833105255941 656.1321414497082,557.1919232706497 656.9242151243452,559.1936484511373 657.5485937276768,562.2720878144706 661.6244789978143,568.7670864366569 661.926676098139,570.6839721650122 661.6390637782839,574.1780163712001 660.9719256499502,576.0496274194202 659.1696068746296,576.9640941291966 656.1886439104446,576.6614244641362 652.465700575604,577.2749927023245 650.2739819761298,578.0269162232669 648.0282822756403,581.5144340739348 646.8120800256152,582.8067034255303 645.1928885159236,588.123551241149 646.4055357876152,591.0348713100126 648.1763238040297,593.0076525550578 652.1336255868863,593.0706646590304 657.7206792186323,594.4786432400069 666.7714805393506,596.366453915695 671.9604463451371,595.4965853984684 676.0647233423967,594.4151586682442 682.5464869253299,594.8353850316483 682.5617101197921,600.2481406750524 684.4864545801898,604.3669027716718 683.1424287640197,610.2946217661738 682.303925039352,613.009220624024 683.6847542187985,622.659328859974 686.0544044671602,625.027040436904 688.9381648263773,626.2115382093808 691.9330231840429,626.6306296799016 691.8234239628404,628.2524587694044 690.4253771735986,629.666095104047 682.0147251248925,636.5942464338904 677.0447601503718,639.409594051154 674.5932460522766,642.8279826750185 674.7930081205786,647.610932735268 675.6259573769372,653.1838790269107 675.9975397507632,660.0226948959613 676.5145401143209,665.608708634154 676.1529189877007,671.115380434925 673.3593687884917,675.0093005958831 671.2996988553074,676.62596724154 663.9551383175678,677.7107322721669 652.6911629333831,677.3115117640465 650.3067466768615,678.3776094219415 648.1236027411751,680.7088869067657 650.0373730977259,684.7651246263891 652.7262443293457,691.8014833512291 659.182323427789,702.4667110737357 662.5874830535693,708.7385419894941 667.3231131180398,712.2863738213471 669.1969249328838,714.8321946875013 670.7436924624981,723.2984431379022 675.4866903494192,726.5184450589704 682.2628679487186,731.9374959097923 688.1982467222399,735.6537472295673 691.4273601534829,737.1720179783606 697.35225562856,739.3661819132485 703.972658076866,741.5587105558161 706.6823492216554,744.6049658201888 707.0411561077386,749.0052582616163 706.2027032867196,753.2462424109899 705.2117899959103,756.8420832369575 702.0942122804998,760.3591752120341 698.7655660469615,764.8624313733759 695.739137134741,768.3698660915454 695.4014733068709,772.663524054979 694.1451441920873,775.6161841232588 692.327705030176,780.8303628880435 692.5472814731291,783.3420368093995 694.2541293884796,785.5469102632036 696.4552651587542,787.2318102045473 699.1698255901516,788.4125665013712 703.2400164063735,789.2553014593466 704.5979114998563,790.6072821226597 705.4468673767932,792.8074255492793 711.2222564564199,798.5543482999948 716.4983276183442,802.1806191896609 722.9478003636423,807.0768526749914 726.051029675304,808.8576500088932 728.0133780421138,811.6646851096032 729.5817981736866,812.6432542369498 734.9990557194851,810.4194100311593 737.8816213351638,806.8521781492813 740.8403184366757,805.7409705064696 743.5104307356661,805.1209452673852 747.3637748117911,805.0478025794071 756.8499287449358,801.4841675606925 761.2791146201263,798.9116793851408 769.209476645729,793.2073833255442 773.4033217868566,789.3003413873681 777.7356843061872,786.4343311107043 781.8039553955978,784.387730782325 789.2870521302758,783.7446747619256 794.5145674529009,784.0185079551968 801.457472888994,783.5002069843905 813.3085174758439,783.0398815298003 819.3468027044107,781.524678464508 824.0935492612529,779.7933952344496 829.6955441064435,774.6004511979852 833.9282819572605,773.3481744369076 839.9857530523975,772.4871401849047 850.3974125453785,769.6390095036446 859.9269745918538,767.9307613631515 864.6427317565643,768.7884062770839 870.5619848754137,770.131403058453 876.1553432887828,772.1607548758872 883.8820596478603,773.9693725616172 889.2508589216885,775.942791126873 897.3366125624326,778.4010796692296 899.0337266535034,780.2578647425698 898.8819501580521,783.4821017192704 897.0305149965316,790.2604316763174 893.3124504715216,796.7158538531181 890.7887772870619,802.4792826741225 890.6655702099235,805.5611501796346 893.0022590295381,810.2689961167173 897.2499374209525,812.9766011305576 900.1220809438305,813.4765779701954 902.454172540395,811.620369707563 904.5317017314671,811.0897284834634 912.6571272403311,804.6265102559894 917.2343143925574,801.8913379346055 921.470956380795,800.8612790530494 925.498399752331,799.548525968207 929.2799244227747,798.794935748232 932.8512996637206,798.9539647013746 936.076600923668,799.7829030450014 938.2901349490133,803.6754660713651 940.9454570247251,809.5053187645658 947.3071819021495,813.1256406151354 949.3476285604271,814.6483109314258 950.0296139960203,816.8415708797202 949.5389006369269,822.2709645063206 950.8943696958277,824.9751591428899 952.9449336704181,827.6761556499578 957.7017737250909,828.8490959814179 963.9810228721068,829.3308711025107 973.4731432348891,829.8161732970708 981.7830773251131,828.7796937220107 986.3494115871343,826.0570710883597 989.3877569913418,821.3738296818302 994.9518528941704,811.9830029264094 997.4701328818946,803.9259508146987 997.7984784670679,799.3503837227196 999.3154706020758,796.0414866202018 1002.1809700169619,790.9586535269037 1006.2415410898942,791.5511273396924 1008.6149322979392,791.0379493786623 1010.6392347314852,789.2599812873317 1013.6906464710324,791.2089910764403 1016.2233755815319,793.3263110294305 1021.3178853737206,793.3870232230436 1023.4495121793765,792.5075406512395 1024.0,790.6962097275547 1023.3140530095076,786.6355828118517 1021.4457350018429,780.5265164879959 1020.5894406724308,776.1240975081902 1022.9468814047725,771.8832276429456 1023.0983070164841,768.3300324725392 1022.5901816513826,765.1081371314525 1019.2102498022549,764.7650543947598 1015.6545313241978,765.4427712737257 1009.0536513646208,761.0429689627634 1006.3284414749352,758.4077086152507 999.5408440166443,746.2975063939917 998.1902450614859,745.6236720763713 994.9485301356648,746.1347582909457 992.0968212890003,744.9487385291761 985.9767829532019,746.259176286786 983.5983920076063,745.8297644777837 980.2209079028513,744.4173177370444 977.6444577737785,743.7807462331626 974.6066354852786,740.1081764358428 971.7677360179961,733.194375255533 970.2519473533808,728.8649847054567 968.2901622826136,724.7618674877831 965.8836433522468,717.4045463478562 965.0108552696285,712.434298530569 964.6726935773785,708.2620315124677 968.2724459751098,700.2554489801702 969.1075811817569,694.8356905215674 969.4916629195919,684.0623582836611 970.4611291681609,680.4819196839632 972.7963274717795,678.5503583954287 975.8475905264473,675.4880868429128 976.0042009929559,672.7798050046632 974.9831270681935,668.7134605582759 974.4610902348915,663.9752423551729 974.3092461162537,658.8268909020551 973.4257079503371,653.8522514968993 972.3820258583651,643.8060937550316 971.3480991897237,639.573326973801 969.8076738112616,635.5685534246388 970.2355630042046,633.1922674546895 974.3430398884208,629.9284908266545 976.4019511831556,627.4479031149812 979.9616835776454,625.5877409117727 983.1994929786088,623.4142244531149 986.0044583875246,619.2997614509862 986.8639847947817,615.4042636382906 985.8617501500396,611.8364811903734 983.6506001282542,609.129732653196 980.434254447298,608.4560960490923 978.562473886725,604.7272021488238 977.0188856010561,598.801262874644 977.1761881806226,595.5831453693809 979.5342625256224,589.3113973376308 979.0229059442432,586.9366165041339 975.9692049756932,585.5882570188251 971.7258487132002,582.7171248381585 971.8414593790043,579.4242235862113 972.5579294853652,576.1045692617319 976.7882773246703,574.2335563352038 982.0056474188275,576.2307920905893 987.6327402181781,579.4717653698522 995.2082089279828,580.973522917277 1000.399007491107,580.3262095791599 1003.6305623007664,577.934294477196 1005.3549734440965,575.1248241484382 1007.7253494504739,572.5216089205996 1009.4488046837565,569.1076829779669 1012.3189014439288,565.3793795268957 1014.606958334867,559.9660877949045 1016.0047062524197,554.9552733437959 1014.9899933698285,552.4138576524325 1010.4644467198327,550.8767677741073 1007.1964054859086,548.3513469671793 1007.1862334766201,544.9612704959245 1006.8359994032274,541.4014665469429 1004.4672825361991,539.5395947110148 999.391746884406,540.218297706793 993.9836482604898,542.2543515198827 989.5796442952982,541.7543640280581 988.5530326939252,537.3509362137329 984.6390300327962,530.5829485860802 984.6247786947375,526.346519607177 984.9400620095814,515.4945572116735 984.1209461204161,513.5716446670745 983.9402894444991,508.0222484820185 983.0150917696051,501.8824116830777 982.1379676359337,498.42605154036306 979.3707583781304,496.4208824125392 973.4684567661702,492.87818465992524 971.0755104436455,490.656805593325 970.6420839279651,488.0649773527988 970.3045279438038,483.4087758009477 971.1654296832361,480.2576565862571 977.3702588044385,469.42416821940157 978.0438284116134,464.3490736494184 977.6020636460219,459.5868641805473 977.5918550469707,455.0441330063609 978.851072364616,450.26875085497227 981.5432023105536,445.351112295016 984.5740467274728,440.60312398549667 985.7540392422297,437.7158264622702 986.0832028589739,434.5001533592261 984.6713981412349,431.86947052324825 983.1952394326239,430.773290490292 979.8117472697844,430.61616586617197 973.7049586413992,429.610971440666 968.517136586825,426.477833910343 966.0637731258743,424.20917961855275 965.205893031593,420.6549785319134 965.8705245466332,413.36289498882104 965.1800017720054,409.4712567820901 962.9637132176958,406.7629797807983 960.7599240873069,405.93085835230113 956.4115375345939,405.22898347487893 951.757874771211,403.4182107432109 948.5187685425198,400.38459018740247 946.480310722203,397.33838022530057 944.094830692467,394.8085657145792 943.3939124957635,387.3586352798563 944.226181703312,382.61267152323427 945.3032810441251,379.64591379441003 945.7437292712326,376.33918735906184 945.3968392973173,373.96723878593167 944.200595237887,370.7476119472904 941.6413214190466,368.7248629106727 936.8889733097294,368.6659392295496 934.1778167915372,370.1198599115911 928.0700886994882,372.85597893831215 925.5284188642333,373.5529770717379 923.308844820691,372.8800110255063 918.8778660068429,366.71900923528887 912.4235535562339,364.118202486752 909.5274670395636,361.93259615764555 905.924772489512,360.65509826103397 903.0769440977975,358.91303422737485 899.3380848629674,357.39486166192495 893.3994630979565,356.9098214249904 892.8866896826333,354.87624471349693 895.249368965754,352.6679596188939 898.9753568139967,348.07623595474263 899.636326990325,343.33560874249656 899.4509046178787,337.84834802279016 899.8786946608424,336.1088917231346 903.1141980831464,332.6386828874283 901.9664530207725,328.58292925382 900.9320968661212,326.3663341995928 899.0728630193287,323.51174003605286 897.6930489373377,316.56537248464247 895.3026221966613,312.3388647340612 892.5857536317978,308.02679109496296 890.7094494872622,304.1350649361352 886.2941793073841,300.9312306699911 884.4128022476704,297.8847897427436 881.5084205586686,291.4601200658776 878.827046273241,281.97104104940126 873.9954915034754,270.29499567300866 874.4968970551137,266.90824420796423 877.0341187625877,264.36511385470067 887.1871394746335,262.1273608355044 889.3899751804825,260.25836207955115 888.7009683083226,257.3853933414655 886.3974882979712,253.39490515880425 886.3055223877842,248.6146809520236 885.640478734504,243.58536096883768 881.1817223045886,235.28576661284876 878.2834242266841,232.07506319501715 875.0583605087161,229.37205527287585 871.3196897981098,223.284378880359 870.7417559648844,219.75906105077752 869.4363226966447,215.2185789142294 864.7548839610903,209.1980070765204 861.1081726972114,206.0842684220064 858.7419319213038,203.6344152449078 858.5834862383297,199.64362177143516 862.2570395319093,192.95662246236384 865.1210720746242,187.0269015659835 867.2981256802691,181.3433607999409 871.4893119501683,179.5013690506555 876.9051378884257,181.65601629426203 881.6717458660464,181.42391783002552 888.8083091998784,180.31577552424073 892.9235525756528,178.7910646768746 896.5978951419485,177.040239177128 899.9935355403604,173.28106245427966 902.0001746627983,164.96918422608496 904.1950629938638,159.87844269962523 905.0265922558575,154.6194216864003 910.9470382658897,147.97719353480022 911.550978744354,144.793321727921 906.7724268161537,144.81084047530612 904.7244496667553,144.30349066814097 902.2285850705143,141.98462994339604 894.9111519242447,141.25174478073836 891.3870542488162,140.4612139836231 889.0646555100735,140.51007742746765 887.3589458916297,142.1927468018996 884.1916701189479,142.64815856967346 883.1488084999941,145.13751514013927 881.5138078000986,146.23412632001543 879.9442297260591,146.3948817140813 877.6676139442851,143.8040268234672 875.6185481458226,142.62019550975901 865.8914356509753,146.9274205790863 862.0405043245801,147.1594522623684 860.078403787236,146.9176628815668 859.4536130974295,145.97627691247294 859.3728682905811,143.61474417326554 861.0486874270192,135.93083370895545 860.8089480021767,134.38211388290676 862.3617948582781,132.6190354800641 863.7700542773956,129.548332968237 864.6931929150267,128.95660201172336 865.164185906815,126.82033533752303 864.8431273670788,125.25628108884382 865.4869526780938,124.32736111762358 865.4643364715474,122.43301813029814 864.3969607117,121.66643453835025 860.6906523180527,123.2066997884856 859.3417586173348,122.628768278998 860.7216307926122,121.46195155166538 860.0473087024815,120.56351967070384 857.705473157717,120.62802375843592 855.5053807068109,118.26142942376237 853.3118995205461,118.6911723538185 851.9795661795666,117.8787548216801 849.0223297781431,117.5030790670437 847.4914643750346,115.11695790421413 844.6063857829485,112.41972156615566 841.4697771355976,110.41102812701547 836.7781528076891,103.92220481807169" /><circle cx="458.0384590259286" cy="341.61366465302" fill="rgb(100%,100%,100%)" r="16" stroke="grey" stroke-width="8" /></svg>