<?xml version="1.0" encoding="utf-8" ?>
<svg baseProfile="full" height="1024" version="1.1" width="1024" xmlns="http://www.w3.org/2000/svg" xmlns:ev="http://www.w3.org/2001/xml-events" xmlns:xlink="http://www.w3.org/1999/xlink"><defs /><polygon fill="black" points="163.4729483080313,108.98304129275857 150.2259718180684,110.93848054099794 131.49836553592192,114.49824159962009 118.76476450945015,117.62908287666312 111.45519806355985,122.8431991835696 106.78276456438947,128.5623732488515 103.07710590360314,136.83816768142526 99.11814809088779,147.0239369950715 97.41005179587731,159.3782536141564 95.64537090589647,179.50415175585965 95.01148409276898,192.75301160646495 95.57299668249938,220.38246951843007 92.4262986411856,236.25159875857264 88.83948633885763,256.78176839258447 85.6613079931998,292.7298128523263 73.93654218153772,372.65017014476706 69.72391765070064,403.6696814946075 67.36478172301325,414.2141367439104 64.20799658430285,420.68476887829206 56.02645304011326,430.6720087039427 47.20168912202404,442.9599271969733 36.218014534125146,458.7810427792836 0.0,482.9881860821539 19.06565524145815,500.9227597484929 30.0225559048205,520.7940272258182 36.08955961292547,552.9071612212347 61.92067855812264,670.104385632774 64.15186348491687,689.431998961344 62.52822724373691,724.2913352811844 66.81792497378639,752.2734791165229 74.08300231936244,776.6145529941682 83.61439904482346,787.8159500380611 95.07902677629086,793.6011788646948 117.48590160347128,799.1109712899623 135.6087533619768,801.7545844524695 158.49892580820247,802.6089932431977 309.56972389860664,787.0874683410652 364.0333003524897,772.684817390325 373.61454549652166,765.8461343725434 385.0763201543406,754.1001151217791 402.1413022065039,732.685125918987 415.65834609871524,718.4988958887724 427.03298663331276,712.6978620060946 437.12617726648466,707.2780242100728 445.98241767928164,700.62002593021 453.569010424498,692.3021865683561 458.2517249306549,684.3568116529699 461.8482438204253,674.7516509499942 477.65174988737874,627.3474110115128 479.67859320543425,613.0012863259838 479.55459274206703,594.5369191597007 480.8499880568874,579.0443522336815 484.8785219079744,567.0148351424929 529.2496106091289,503.8222311281759 540.4865797988082,497.4500972930272 552.453827374804,499.30215950193445 559.7909889774459,516.0708516269519 565.1621758636104,522.795725160252 571.8678641885977,526.5703209156013 581.118451411265,528.930498732916 592.9561358786326,529.066558871431 608.6651657167847,526.79166035207 618.7576427585689,523.0133601283752 627.1874631159453,519.2096920164959 635.1027124214929,513.1482154345763 639.1852399566558,507.34785439768217 642.2128531281464,498.9782112199828 645.5105972725687,469.6737302433074 647.0407874100914,464.96720844582563 649.4550256107674,461.7104309733884 662.6461415916709,455.5203328017072 675.2961926447746,448.48528198252467 679.7387219156947,443.2083925450304 682.3622671199976,438.11392475777245 686.4233473404664,418.8712037989716 687.9026208421611,404.1173530664656 694.6027087056498,388.7095232566567 703.0406972655657,372.2345081178933 710.2991512924797,334.6314806131076 737.7300612640422,294.3710509997986 752.4596603566561,278.9720115070246 786.2642300696372,249.489411807274 817.8048026321358,223.88291357448406 841.4210746499803,192.22226753824327 844.4472247020539,181.59754293783567 825.6700143127936,180.02835534480562 809.9151896252882,179.4482166208037 799.7092623662218,179.71083900602002 790.9994561104219,179.11176736957714 769.0879047788834,176.49805678110488 766.2609645001967,175.30603299414008 763.3799279963224,175.31200120643484 758.7877205419037,176.78791644141904 750.1998508464926,176.99379503572072 746.7799852669443,176.606569543329 743.1994657422463,174.33619804079342 742.064222712758,170.23585497916122 738.0583414941674,163.7058337788584 735.9780917887834,162.8521993927376 734.0467671973779,163.85432891567962 730.8011122038573,167.43779132759892 729.6622352286827,169.67078778969778 727.7546808133991,170.50738027955344 724.953538314275,169.01627718547127 723.4360823044118,165.0847789076139 723.0021941975846,153.80659346626214 722.0983702539392,150.80192135678124 720.1173229698161,149.37048983279897 717.3802385295415,149.2446928165383 711.6195260289073,152.10160978676322 707.8253562377162,156.02007760923766 704.1641610040507,157.70315491331826 702.6334327073286,159.34373151423472 701.8888014211342,162.14180732338252 704.9983299519605,167.41556692799122 705.5244955282612,170.21415181934196 705.12116409799,172.13876013273943 702.7207232012189,175.29276109476098 698.1287539778826,175.0878729598022 693.8000385608084,176.6287948457017 692.1484591910477,176.66396048512433 684.1851329302399,179.48297950121662 681.0372881592444,180.17773964018352 679.1058467936774,178.81464800177366 677.7957810724332,172.54523301388588 674.8348265318311,163.92153916510551 671.0174731631361,157.08585175175506 668.606979635283,151.06262986087688 667.5310261954979,142.43138285650434 658.087921965189,140.0651753928687 648.0619188914716,140.7923665463195 642.94227156205,140.13640722772425 634.3545015939798,135.92705290448305 626.560463085862,135.32987419551023 617.4011406138718,133.90123653987132 609.5971980339882,133.15124017929122 607.3118318816021,132.37813456773165 602.1839834529585,127.91300145117225 597.8603952166324,123.77675398503675 595.5575394522984,120.5840243227392 594.7751392046016,117.07219787792928 597.8742313110738,107.73081921658786 598.3553130448387,104.73908117629048 599.4945929746382,101.65300394523365 605.7454657879105,93.73532410292341 609.0410113288601,93.27719820816435 612.0295347483212,91.50465240364701 615.5848900641388,88.56274032780846 619.0647202106329,82.30888543753565 619.096520641383,75.34233019927262 616.9239893279707,74.44304008438485 613.984751503965,74.37057037501188 607.805318948029,71.05191486594924 606.020161052152,70.51118064154707 603.1689682841743,70.51318994556766 601.8287414381418,69.63325583814537 602.8151845641344,67.15942722247064 606.5359928831991,64.95382640809055 607.1360909334513,63.8175762061112 605.7360230322623,60.43872445135355 605.4677051811684,58.23053211399292 605.9427721771085,56.557078656357135 610.5592886073719,50.212762773849704 611.9064689548021,45.43596907309859 613.2337218807169,36.807064878761935 614.1906609963296,34.18873514501706 614.2362455615347,32.42517501807299 613.0456015788956,27.98089673603397 613.1874181506738,26.572021876372787 618.0854874157914,16.806374510381602 620.955435713066,9.345483011224474 621.6174284583021,6.470334619222058 621.623154613835,1.6100855800307272 620.5577095758708,0.0 617.6565641770259,0.012305600649824555 605.5122756678703,5.2513090264137645 602.4550642047624,8.417304976066362 599.5820004674249,13.246671700934826 595.3933238721504,18.226609729459483 583.5528991052654,25.784915059786385 575.7333212714616,33.938845584894125 573.3458954254935,36.11068309288703 569.3689480240672,37.52674399482498 568.5918655030192,38.92960880511009 569.391353505317,40.45197213045128 567.6875444186635,41.36368979852966 565.84859435631,40.903503921419656 562.6808494992839,36.47530673857466 559.018858905203,35.103830118537644 556.7742022509167,35.108272507860306 553.2772016138595,36.78081202699968 548.7823794834657,41.54661060530543 546.1388599740179,42.90464198092104 543.1320307088412,42.3466380421155 539.2898279642782,42.35062362211556 537.6334865012103,42.778962479946586 534.1547428432017,45.897696952273805 531.2499480470019,52.90886428271665 528.8818150318592,54.346677618218905 526.4845991928855,54.93050784241109 522.2735732082549,57.0521968991909 519.3059380828457,59.55264523552057 516.975231567825,60.539641178201464 513.2642404362495,60.60492553580309 509.66501680754624,59.209241958743746 508.3200893320804,59.20682085755561 498.8245922746018,60.85492588561317 493.71792614322663,62.47984349635442 490.0367568666396,64.70907265761821 488.10526942017486,67.2454654535311 482.6711707767299,75.22388975544948 480.2906063743738,80.60551712076824 473.6497878608205,86.92225831825226 466.37814690133786,89.3100881453363 441.1943222727745,93.86686409549532 435.8113983763024,95.22050647759659 433.74456152049913,96.39274137629968 431.62585828879224,98.3362520662489 428.3982684502558,100.24498094568048 421.1672261721723,109.19996355596754 416.24373341225834,110.70931111778657 411.8270523971855,112.61997019942544 407.8148102724221,112.8291729848811 403.4789094276829,109.91839816054585 401.37559161382063,109.92097802625358 398.44652381679003,111.12415231787577 394.63174649817574,113.342188464576 392.41411289715484,116.4529411040827 389.2979550584734,121.97292113275387 384.78753323394716,127.70938667199937 379.6555744238834,128.61438501136024 367.79783293821214,126.11148867884674 350.8662936154992,117.6683885724716 328.10553737178105,113.13568235311607 318.15662422686546,112.64835410110902 297.78188542354195,112.52472771297403 288.42397827877335,114.40195622350984 271.2229934744341,125.89837023898201 263.5232407189202,127.89984039470494 254.97867845593134,127.94217833888865 242.4501821743005,126.41100866128636 227.61443319649862,125.47838314280796 213.7776107274475,121.63749291043041 197.9952840097362,114.82531874905612 190.7774980851664,111.94960049071506 177.42588954060474,109.83503143378982 163.4729483080313,108.98304129275857" /><polygon fill="black" points="671.3070860460406,546.2575917567628 674.2647114213696,547.1177155594227 677.4272112155202,547.0672112446437 680.1689215376456,544.7604432042206 685.0105967146118,542.013899564179 693.9692771834517,541.5614072468322 696.6333653235722,540.5581972993552 698.5323489852002,538.9115473852927 699.5825347600338,536.3893244097098 700.9306369864547,536.1298279362904 704.6317791189897,536.705874881138 706.4760069879787,536.1022358653656 706.3409761469815,533.9096111853173 704.7620078324687,533.0353330413207 703.3244516759614,529.1076761677357 704.7029440054672,528.916518868733 705.4592397247302,527.6625177705521 704.6882702881608,526.9184658838874 706.5670903791128,523.8634899530884 708.7448008779108,523.7317536306023 710.8369934899874,522.4055992178751 712.1998876946874,520.0967465271845 711.3390207037309,517.7586805742924 709.52869492308,517.2592097067186 705.4426948259096,517.9312260766942 702.3143613832389,520.7196703224012 700.0513499688075,521.1084609278246 700.6898004166729,524.0443521262696 697.9874327901249,525.038930984264 696.8445613379379,526.0024082989484 694.5423798943259,524.6075147557067 691.265139774219,524.7898650616497 688.4322233483484,525.4482972387414 685.4891513833709,526.7820746920364 685.8755172292465,527.8146587715593 689.1857857222213,528.2362400567424 689.9718726869287,529.475244094705 689.4507405795822,531.5287441025473 688.0637102189038,532.3639280313856 687.8286237042488,533.9237778244058 686.0947291581156,534.5640962080802 685.925515766786,536.426534516946 684.0797979245507,537.1387546099477 682.0950411910045,538.887471233025 680.3664647530394,539.1228183544179 678.9731805978504,540.4254083086113 676.2504591026645,540.5741724140298 675.2134434368231,538.2689913429173 674.2328853426037,537.8863158930208 669.2671710546883,540.5331822394178 668.6223363869182,542.8160578789923 669.4564976478309,544.9690702040591 671.3070860460406,546.2575917567628" /><polygon fill="black" points="726.1025291182258,655.3251611746297 730.9624966565937,650.3491548646598 733.6041932817063,645.5779266002442 733.6379930262627,642.985258733755 732.5853360347097,640.1500999524498 732.3436723364532,638.1627027772819 732.9023490014638,637.0990397170865 734.9968361855424,637.1263455242458 735.6220980198549,635.7618318436498 734.5612035935653,634.2992340698996 735.049543442163,633.0824346369145 737.4325045150492,632.4285126071867 737.850471177426,631.0612947057812 737.097933839341,628.8742591644466 732.464514889266,626.680113954617 730.2997835682037,626.4996526053028 725.5529169387821,627.2748503381956 724.5522402413961,626.1908208024289 724.4432057500785,624.2051453272572 726.5565995575848,622.7785536864681 727.9412847481877,620.6683302837126 728.33776224784,617.8112965893087 726.4366827498335,614.799214035163 726.1428493461544,612.936158492939 726.924292124971,610.5027513276083 726.3448496458698,608.3614299577441 725.1459698165622,606.5871144723216 724.9123594878454,603.9909416258909 727.3549428105805,597.8363504285297 727.5880827316543,595.8578628703799 726.5193927826382,595.0067047857806 719.9839967780725,597.6665483697466 713.340838700604,603.7551584418206 707.3996501613947,610.5160838464691 704.838160512483,614.6738412788868 702.8130992981953,619.4610920300222 703.1309157277477,621.1396587850634 704.1982334833557,621.9147726002846 707.7308101972346,621.2761981710428 709.865436070155,623.7478424555694 713.184833235154,623.5576186022339 717.9342214255045,622.4048318436011 719.0679423110878,623.6346901961131 719.0439645129821,625.4664121555488 718.0822175284687,626.7503807828028 712.6544016281337,627.9785422592087 709.8752793281117,628.325351143887 708.3591060977849,629.6047338698696 708.2767707936677,631.2861936078051 712.10334239139,633.2363865604306 712.8961764775958,634.5433417436263 711.7381484871594,635.900827537647 708.2439994753818,638.374720603844 708.0190108570629,639.9048087272215 708.8796024854511,643.2132270633153 707.771497895046,644.6202815419942 707.2523028318781,647.443068487933 708.3519231124337,651.2765093090009 708.2429396873719,654.2541778908973 709.1462213802245,655.7827589935309 709.3890526408455,658.4062451189633 710.5082235056507,660.0191967071697 713.012322121811,660.2613181201807 719.0880238198473,658.2044043377489 726.1025291182258,655.3251611746297" /><polygon fill="black" points="910.0977240197006,610.3192548985445 909.5021681077488,611.8855981497132 911.2884490118937,614.3866844808031 912.218778740574,614.0041356587742 915.1394700614294,615.2200700649425 915.850352205524,616.7863436848785 918.1792553849054,617.7176533639345 920.1417052224047,616.9075651849091 920.4098784925989,614.331464410277 921.3554295142357,613.4978801759893 921.3998200887722,611.4734849378237 922.1788008844381,609.104853482553 922.2351493078344,604.5609751885331 919.2147209826968,603.8140912371999 918.4764435210383,604.6502408043693 915.2798297837314,603.922873016449 914.4835164838468,606.1309086904116 913.2483947588312,606.2161246640151 912.6679970670797,608.3099640575737 910.0977240197006,610.3192548985445" /><polygon fill="black" points="730.9806825333073,763.2878999838751 730.5482935840797,765.0082795201672 728.0925512856742,767.2785425330562 727.9827321667151,769.4135594722494 729.9373678695264,771.5482887982809 732.384611880807,772.3412252824312 733.9084086797061,774.4132367141634 732.885925172441,776.4439617710269 733.2170453320094,777.8725667618322 735.4303251545766,777.5588724128917 735.1305753422372,781.6919554593687 735.5265570368324,783.5128092603421 737.8768272113556,783.7961435667604 739.8262425188739,782.4461000618915 740.9516315850235,779.7317235152709 743.3831417123839,778.398790496248 744.0763217576498,775.7195668835463 742.2184752816177,774.6652892338437 741.7724887734872,772.6073197070373 744.6742420089394,769.2283051711868 747.7615302541138,768.8334445395773 747.708550027756,765.8509837928364 743.3056531138258,764.6712871763001 740.140080297139,762.1838734139446 735.5362948729816,763.1052734327565 733.8565606227078,761.9010372830854 731.9495891490187,762.221419215396 730.9806825333073,763.2878999838751" /><polygon fill="black" points="730.2498361534713,731.8269099053374 734.1997884837165,729.9702263339467 736.0322336867514,729.616254483602 737.4280137898994,731.3169331836569 736.6798042603008,733.5931464789502 736.8997525178531,734.8517824743279 741.7203409778622,734.6562237483247 743.6383210517603,732.5446883275017 743.4868514677975,728.4247628053324 745.0043278299216,727.0690942332561 744.8185416388892,724.8486928383783 742.8052096258505,723.9092579174392 742.9620727199488,722.228775459163 742.2467052133957,720.3113576658664 743.2851393964123,717.9627953303161 742.4258756635268,716.7284759508159 738.0970898728486,716.2128400932856 735.1760656958983,717.3979909750338 733.4520112018565,719.4331703013972 730.3307273135173,720.9934884893308 728.5575361720084,721.4297388094965 724.219753272401,721.5987544270644 722.9038933245746,723.9436364112066 721.6043033137053,725.2259342972184 720.2535252419668,725.4420481597735 718.0661778471812,726.935618354347 715.4999061447171,726.0567166320722 713.120366038653,726.5719245737852 712.1603566575067,727.698258142346 712.1404307176368,729.2201567504904 711.0322247085757,731.3502595198503 711.8621695499628,734.6337696050302 713.7653307763263,734.5934453032105 718.3186482768197,732.8943599227964 722.6821725659531,736.3082598047513 725.0539685981222,735.6515270804837 728.3327510454877,733.8622674150793 730.2498361534713,731.8269099053374" /><polygon fill="black" points="727.1163618785188,570.5429482163905 727.0020643333922,573.0176956434368 726.1518211658996,576.1107149011732 726.4625594508976,577.4140571119872 729.7867248471018,574.4186022516826 730.4704361562702,574.8461292753832 732.7877031216017,571.989706915755 732.6144796580487,570.3049077611868 729.5647892156798,568.7157288305953 728.0205366414909,569.0380358407341 727.1163618785188,570.5429482163905" /><polygon fill="black" points="946.1463039914851,677.6644216550203 949.4229315092531,676.8567015621257 955.0009582867833,674.3566993909895 958.8443329395994,670.9709978446317 963.0219777901956,667.8421210362151 968.0624775997107,664.721028245848 969.5002088274802,662.2788093123058 971.1163326633149,654.3130392425694 974.0227966689304,648.4559002139016 977.5648973934464,642.8483990615111 980.5775891395973,637.3539972179835 983.0998966431548,635.3000329431848 987.7878068641616,634.1503344843084 992.6850495537724,634.2180574090424 994.7299775049534,635.7350930370528 996.7595857956625,638.7142140874682 999.0223173982656,640.9595677458407 1001.392392085341,642.1081302507689 1004.7733853470204,641.790326619358 1006.9744804521021,639.9741758102407 1019.7020828599456,620.979700034759 1020.733695724539,617.1842326911059 1020.0221371314759,613.2318344327572 1011.6087129305695,598.2165145911518 1008.597415393751,595.7121204211528 1006.0967094639171,595.4290556582507 1004.0226935046295,596.1323438065623 995.0249423156956,603.1280018943446 993.8015456152276,604.8309147659422 991.9947160421185,610.7070304952649 989.86293059615,615.3533595778406 987.6710350114774,617.4086773980795 977.4194859772591,620.205548287607 970.0859131285806,623.6574949249506 966.5735004544738,626.0580039840454 961.9513953514775,630.2958444224811 953.3471821450627,640.9943838026297 948.9889234632758,650.3995360552225 946.0659116814377,658.3409794757806 943.3301312715107,667.9019322568417 942.8335237286724,673.1850977211694 943.126500230995,676.0181729310934 944.4138682773674,677.3903210440459 946.1463039914851,677.6644216550203" /><polygon fill="black" points="571.3477395327567,630.5442103271816 573.3238536396728,630.2367215576526 579.6022788249663,625.5405843677756 582.7594501024317,625.2408993433103 590.0054048026259,628.6552631228465 593.4569390723118,628.6937856094847 596.6305294905155,627.1791271052147 605.0008490865149,619.6239753500817 608.5714291475484,618.3320052437211 612.2433934928986,616.4895602154173 614.9331309219593,614.1907963148363 616.4651290718886,610.3270676766949 618.6660528932136,607.8042454205332 621.7325828879068,606.516226525233 625.7739918828204,606.2252457143065 629.2376170504994,605.1599334482914 632.3459582610001,601.6434397957041 633.868682400388,598.4509079191209 639.66894693102,577.1090494692036 639.8190317513001,573.4550698700237 638.760337231946,571.3397385126693 636.1118614905349,570.4181670823128 632.9554749767095,570.710243839256 628.0870725879515,573.757344290992 622.5736101029684,580.680036216817 619.7842522704767,583.4233009486437 616.4971771742527,585.7140614562654 614.0608875049861,591.2291705748619 612.0418124672357,594.7519895806586 607.548298033506,599.8044382910207 603.3645276873684,602.9691222479161 598.1186201643394,604.4558543749101 591.0298514136277,603.7158013882323 587.4675219571574,605.1163939451856 579.6597852506011,606.9105952449924 572.4623655176439,606.7122679523708 569.7834930001596,608.0132134533271 563.4734293487916,615.9298182602347 562.4414727867011,619.1314395149061 562.8881831695752,621.9074143207713 569.3926875923624,629.3025775313854 571.3477395327567,630.5442103271816" /><polygon fill="black" points="908.4378556066977,523.3777026833784 908.0222732051487,524.6282702196493 908.6399048852431,526.8865286439832 911.1419927334765,528.7496771285594 912.8463010654225,528.8877739082443 913.2852748697883,525.7565905840058 915.339100443354,525.6897330532253 916.6208075072062,524.1563782172752 916.9696851584852,522.4537724594313 915.5147770040529,520.6716529042968 913.4923701059863,521.5081134849728 910.362111881656,522.1051620449291 908.4378556066977,523.3777026833784" /><polygon fill="black" points="695.4364994945564,517.6580442961882 696.1838073463728,517.8174023327743 700.787900442163,516.5978311031363 703.1781721376079,516.7896846214496 705.0499013810133,515.7352056409898 706.1532006731222,513.0125178965568 705.7332889513837,510.6802319471382 702.1891830384286,510.0980925389223 699.881454227507,510.59501551310626 699.1210523881724,511.4303480278346 700.1564182655844,513.1347026037578 698.4872839735239,515.0888215108566 695.7638784790022,516.0396076363256 695.4364994945564,517.6580442961882" /><polygon fill="black" points="83.33953799446459,826.1779936614755 84.5273393235151,827.870653302446 86.2704297807264,828.7453245592072 89.44588224478711,828.8751283798111 91.76428117023961,827.7712843144699 93.15580389424969,825.5822711494959 95.47737731784115,823.6302790116772 97.86807101173943,822.527487670925 101.24489114626766,822.8967301401152 105.78921356928277,821.5247450470133 109.22147593424373,818.2275002691154 116.01447563184347,816.3538254906177 122.8003361324191,814.7870799224105 128.32929257255444,811.4532776709924 134.4867200008278,806.7451315717609 134.91451737383568,804.9274723563657 134.3878361643109,803.6962388227548 133.04898154655538,803.2139564645478 127.705619454715,803.0492350466058 120.05037947816379,804.2169321240403 115.05983120538009,803.2118577886656 108.61188047728302,804.7808046494036 94.49340713344294,808.5032423907968 92.15922696292428,811.2923261468219 91.24059570878295,813.6407499756523 87.66723096701433,817.3216785771011 84.376776977994,820.161418420976 83.37674427181975,823.7319098003737 83.33953799446459,826.1779936614755" /><polygon fill="black" points="920.2301900129673,516.2210096526503 922.1557786919237,516.5792505320617 924.5326991989888,513.7711025275073 924.0374868704157,513.0963129173228 922.0763449022112,514.0504659611826 919.3282209670325,512.7959128044793 917.7067432228166,513.5612761019859 918.4118479768149,515.570538137078 920.2301900129673,516.2210096526503" /><polygon fill="black" points="1012.542900781086,691.6399161479488 1013.5028472390451,692.2059775514078 1016.109843369899,691.5416370085793 1016.972598858031,688.9726747891405 1020.9902152477226,682.0820910492189 1022.12968352581,679.5517843736995 1021.9978854421624,675.8836325871729 1021.1790880627696,674.8110337185356 1019.14568443939,674.903396253341 1017.0715387551936,677.3734939708545 1015.5789245497594,678.3991910797074 1014.3040695708036,681.1561520108277 1013.4273783307152,687.2746339736174 1012.264577964578,689.1332862236901 1012.542900781086,691.6399161479488" /><polygon fill="black" points="746.2997722502395,310.5693688168607 746.2142517894071,313.245666160955 747.5394295789042,314.660117935636 750.3161828661363,315.740139194584 755.5920950801656,316.47759200169685 759.6350050307475,315.55984288715865 761.3698889530957,314.73162532790275 760.4422825658752,311.07176102392657 762.2603056217744,308.66264142033424 762.6705024852928,305.4496524098322 761.8878690234467,304.1592102554797 759.7892905703675,303.7051492252343 756.2817467345759,304.38794818173847 754.7328220243569,303.6990922236263 752.2484743049242,304.57729517902044 748.1698405203622,307.3183721107698 746.2997722502395,310.5693688168607" /><polygon fill="black" points="1017.3430199396881,586.0004606693137 1017.0417596932533,587.7961391675981 1018.5621933421187,587.8226576089393 1018.4236033504145,585.728122215091 1017.3430199396881,586.0004606693137" /><polygon fill="black" points="1017.6538362597685,691.2585644505116 1017.9046453343309,692.4520671439434 1019.3675312733753,693.0975585036832 1021.8164592631824,691.9447430686471 1023.6355983642574,690.0341630493942 1024.0,687.2009747122339 1021.7159636486884,686.4776645420365 1017.9256363781204,689.1119145393044 1017.6538362597685,691.2585644505116" /><polygon fill="black" points="749.9470090774829,299.1897261659981 751.445375122137,300.0600686740062 755.2618097083601,300.06090166349327 757.0093985720976,298.2516153499437 757.9518624447263,295.9561532561478 757.819875516467,294.25828787523005 756.8197123416079,292.29632168169735 753.5376791585602,292.1285079551923 750.7782051877548,292.87806924526853 748.97777926849,294.86059348078527 748.945246001439,297.35274720463974 749.9470090774829,299.1897261659981" /><polygon fill="black" points="998.2305439515303,596.1789377068526 1000.0486678731946,594.5185623126154 999.1840752510535,592.8772602436704 997.1892503581478,593.211811889222 996.7872444133455,594.9573279740001 998.2305439515303,596.1789377068526" /><circle cx="298.1921234101748" cy="516.2171171481327" fill="rgb(100%,100%,100%)" r="16" stroke="grey" stroke-width="8" /></svg>