<?xml version="1.0" encoding="utf-8" ?>
<svg baseProfile="full" height="1024" version="1.1" width="1024" xmlns="http://www.w3.org/2000/svg" xmlns:ev="http://www.w3.org/2001/xml-events" xmlns:xlink="http://www.w3.org/1999/xlink"><defs /><polygon fill="black" points="1012.2247797346402,344.9056525504886 1008.5796186064692,344.39797072902337 1007.7165341672533,343.8095699258499 1005.2867354743817,341.49955918926247 1002.6132161438848,339.40019233879616 1001.0146319700114,337.3683544890927 1000.4134264643437,337.73665155772863 999.2286810687613,339.51090072295096 994.4907056947055,340.68135559491424 993.2890348853231,341.55317269645644 992.712131859934,342.47369353876036 992.5987937158766,343.83687886627894 991.2544813077502,346.31414480449985 990.1230718464155,345.3640818874254 987.6699000724661,340.8954203458472 987.2224233697754,338.180040135063 985.3736205189808,336.97150798926765 984.2080044511797,336.99991851463466 981.8128714174851,338.3699978301536 979.8623565978525,338.80722244152554 978.8328052342032,336.16371292412 977.6952998211156,334.1888820471473 975.31099187821,333.9816002261515 972.1136607074336,334.4737209732333 969.5647845342871,334.1384807624568 967.0646861393142,331.72616441912606 966.2848935627042,331.33366732278273 964.8213544988708,329.4002202173798 964.6840174911076,328.6934284477698 963.4267576968065,327.1570743462618 961.8040122189801,324.2956910092208 960.7686538263724,323.829838864173 958.2627651532041,322.1182318595238 956.1046581217181,321.9770829416099 954.6265438983698,322.6726109101457 953.1408722903894,323.9151026235628 949.755547378249,325.58692585392555 944.9857220016412,324.8058467223991 942.1114529304241,322.867910858378 938.3001537532549,321.4601154693065 937.3105592886135,318.31056487170395 935.8450593691937,315.81188565606686 935.5252054485153,313.4817059818822 934.7738966882681,312.6088287675438 933.1950497897898,311.7890040081093 930.8316954307593,309.6319833752632 930.7024215538349,308.50027600621024 929.5716428574387,307.36752245751137 928.2829638845798,307.2800052784808 926.3175018777492,306.697647433758 924.7421017289573,304.6307095133631 923.7580134218249,304.15075198452695 922.2354828754733,304.294388469217 920.6133405134999,304.9227490621382 919.4624719066767,303.72278845032054 918.1846401755531,301.7685366671768 918.3161387076366,299.6317414709498 917.9422582673665,298.5552433902297 917.8905677769633,296.5074692577721 916.522334840624,294.85630702466796 916.3473140367496,292.727750339661 914.518364815101,290.82477848793707 914.5586861983704,288.8634530869295 916.4410664834094,287.25000270889046 917.0233467408434,285.35401441293334 918.3247747421466,284.03964127727994 920.1475481940348,282.95904159714087 920.4877206595897,281.64319285515126 919.6216072380307,278.17133643554166 920.1027623814637,276.5047657035706 918.0825292568906,275.1080665021441 917.3009228332556,274.18231508740695 916.687840850166,272.2993071200617 916.7690918602187,270.251914924471 915.6876855458191,268.5463767657935 915.3221983773524,267.1275546918658 913.6704602834394,265.76176785606697 913.035839929149,263.6906484861752 912.3559896522775,262.50237452494713 913.1351614895356,261.1182176868852 913.6667761861034,259.25663539337205 915.9807697877905,258.3892496258617 917.1823772406445,255.89016319761538 918.4240181920915,255.00199560766913 919.6193356152382,251.22408862723847 920.8725783813497,250.65935967637267 921.2801656441372,248.6432021984619 922.4772049361404,247.21593568380922 922.0104411102435,245.818608674183 922.0936581095361,244.17507908507542 921.3504469726776,242.76494040243057 919.6694954274818,241.58216020755015 918.8937079349057,239.80899561031526 918.9895536822593,238.64412839602232 918.6360251595265,235.5766742646067 917.5406795434021,233.03044110018584 918.0345373480657,231.930572512359 918.0469197270006,230.37546754268442 918.7633064375705,228.8374900535216 917.9073821571869,227.2595348493092 918.730375943407,224.56983669176236 917.0673502574944,219.03321696243302 917.157789228374,216.85919632000343 916.8427925951642,215.2188984513379 915.1093281911603,213.67310405527184 914.6576368558943,211.27966207969536 913.9040528111049,209.68900031865405 914.3975137117673,208.39436470533138 914.4014524654132,207.25750031182724 915.356369416713,206.31037128626423 915.4108556797015,205.15893016410917 914.3861116433134,202.34593134341338 915.7244572800961,200.79807044105803 914.9100368702307,199.14721484284553 915.8890308182165,197.1302333879055 916.4182582194397,194.94725985155935 916.2958857085852,193.15185068888314 915.8835236864553,192.36057138018316 916.8740499332307,190.5184931629202 915.4068455805912,188.99989594392173 915.3326372697632,188.46213241145267 916.2756027640212,187.34666559156142 916.2167692397671,185.9548092927107 914.6809643025545,184.9273978761401 913.6040556801298,183.78196157404523 911.3051978817771,183.20312052510076 910.5989750195298,180.76475773608172 910.1683512529873,180.41044631235167 911.3483905983987,179.75163040841034 911.6194189894114,178.93030752503057 913.2046270810155,177.73776216816248 914.0412511417296,175.8305069125558 914.3392526403687,174.32229572404094 914.1982849006606,172.7624902094027 912.8279785741662,170.18790632580271 912.4958192784471,169.1540617150509 915.0052655382883,167.32486660186072 915.2345424398761,166.31555612930777 914.870018968448,164.82407406716322 912.0593598940709,161.72556705771433 910.5904520657083,159.7303332501897 910.1862650395498,158.54167854259106 912.6720117654811,156.2163556464784 913.6848617479998,154.92006087103755 910.4280352494449,150.27099019042691 908.9277635964479,147.93361425308558 908.6732119004556,146.16638413714747 909.6678341959431,143.31078812832016 909.6174512478563,141.45004455064895 908.0683490209072,137.64038387271182 907.6501199231111,135.63298344592408 906.9273793888266,133.86928238574774 906.9585585646307,130.13829588338706 906.48639880719,125.55150306142923 905.4667674663825,123.54720621212107 904.2500763617669,122.69397283866999 904.0884362322049,121.06820909975943 905.5245138614115,116.94256677090937 905.5218356298645,114.50268174222094 906.3012998674243,113.3705841427693 907.0193283568533,110.45041544394633 907.3523824763042,107.9097298129966 907.5078015710695,102.45462856893027 907.2506841655096,98.09671479651638 906.6190082454486,96.08490686106597 906.5699267284563,94.60052751046226 905.0985676906507,93.7145197906442 902.8263942582188,91.54386042256624 901.6547888484243,89.64262733509827 900.6508580305398,86.51781070403479 899.6975953241288,85.35389078572166 897.2489563380664,84.53429198901847 895.2297814120109,81.99229098854175 892.7907885749424,80.91713965886788 891.7060232722588,79.90122324865558 891.1392588998267,78.64170650475296 890.8520171859202,76.14599113920747 891.1583693886322,74.30436333017371 891.7028539407853,73.08666262269742 891.4753884801434,72.45607711432058 890.2702221640113,71.67624888148634 889.8153466065166,70.41726720726501 888.8425696265036,69.2400684262957 888.8895997193977,68.52778396310941 887.2211874893538,66.61660837423403 885.742351983322,66.20010803806065 886.5517672245583,63.10142950352531 886.1296541667621,62.09648641556498 887.2337337004408,60.88269842332841 886.9931332385144,59.58192664730268 885.6063956590996,59.179281304226265 887.3972520463808,56.90892181906236 888.0923898269559,55.36805137752981 888.5820834873781,53.459497906498655 889.603034034311,52.038067797740496 889.1113447605823,51.51002460241841 886.2455808999251,50.38389073715814 885.870411955561,48.62704078200386 886.2150550839515,46.16233231339652 886.7586129707834,44.94467341330437 885.5427180590603,44.03824297405049 886.7071764533754,42.717410986886875 885.4059667281349,40.93865796952741 882.9485897697867,40.11853936604484 881.7528957091369,39.0842726717741 881.8151647469288,37.23174735961595 882.8483569078455,36.15263837892621 884.0979883078573,35.69097370766178 885.8478262858463,35.50088662869041 885.6114202440914,32.99277954413492 884.0830120503289,32.59739605918412 883.3864381470305,31.588256752989423 881.4893329888695,30.724652594835675 879.9014057585335,26.337748908670847 873.843512481242,14.875498641373042 872.4104738148657,12.996934356138354 860.2787092641713,13.944708963734115 858.2621046347327,11.283717173458513 856.356224308854,8.01907074194628 855.606006732769,6.292291329660543 855.2069099814836,3.5239472924482698 856.2699084185024,2.292176260791962 856.3587320832487,1.6204492905224015 854.2340861529898,1.9389936529804572 851.3976366608301,0.0 847.3383943382214,6.850673806056534 846.0901539001524,9.920985835657689 842.5583162813874,26.72574219927708 840.7954491142494,30.953641155487503 836.8938363221705,37.48484923007186 833.9443493255737,42.91803926166017 832.9655210481332,45.20448555484256 832.4799023958569,48.360577013763645 832.1640025336467,53.401212017232524 832.581096361767,58.3739881492437 832.8125153204347,62.84345325194931 830.7089817992777,71.57908104524779 829.510036243226,74.89422837513666 829.0404084466496,79.69661188792509 830.0320298933449,85.90412407546546 830.02899126856,87.65728661858577 829.3249330662854,89.92936036623007 827.6408600687769,94.2610548495561 826.6470714626759,98.10028122321455 825.3434418427967,100.88637851938336 822.8016102280925,104.83165008645449 819.6681326146755,108.80765949773456 815.9280512659684,111.29344099048035 808.348461446285,114.43228690920694 804.3302083426021,116.48143737167823 799.0890439515117,118.60276488584645 797.57541303543,119.85153624384213 789.5642121499959,128.91580977638614 785.0332818808688,133.62090689159834 781.4713924428106,138.61976154696436 780.9651705999875,139.73067340584373 778.4513922511331,147.75687290780365 774.8843422325947,161.61668513915868 771.3184800930761,169.72387025497108 769.2357116906043,175.73441942373228 769.0845005113802,176.47550751953867 766.13715731337,187.110612516225 764.2097678585941,190.97012679497965 760.0876520234217,194.70147240231444 754.5669525852607,198.3570867636928 749.1924734192803,203.31591330969422 745.949968509388,208.430622339897 742.1948814600848,212.5515791349078 733.1088459120335,220.380511458853 730.5924290905318,222.46520266478984 725.9404614124912,228.31168274794385 725.2272665993316,228.95925881964183 723.1616541502806,232.12772883837073 721.4324297115725,235.10611810703114 720.5082054773815,237.28928375277076 718.7035312826061,238.8415115483033 715.8894225184449,240.51022623236594 704.4524979687401,245.92625576312724 698.2935786515283,250.95353479742028 691.2307190204359,259.78608723132635 687.0405961509528,264.6218371676292 685.633260708402,265.91713159679574 680.4822354807387,271.34708534242316 675.1282922527862,277.9015786748858 671.8429422362318,281.55748125820213 669.9140240972256,283.45287016896776 668.994934388374,283.8722502599896 665.1837049083816,284.06524514677994 661.0852755904584,283.07971943952714 659.0716258080998,282.4019322418205 649.921642990821,277.79067104284263 637.0446185478834,273.416539910652 632.9789209108299,273.61543285611504 629.8624418693099,273.5097072869151 624.8459289155485,272.7039335155779 617.897674867472,270.1951172601605 615.5992420054779,269.63048243597507 612.5952333042092,269.7736413042403 609.9809047655799,270.7099750425466 608.2238653534482,272.0916402941544 605.8135419756418,275.3530577451483 603.1690667154616,280.4863531578535 599.7160332366425,286.49565157439145 599.1547779956212,288.98943334311554 598.8179168987286,291.97399074704 597.7963507334864,294.9047155352119 595.9163814405932,298.4627887266141 594.2912813208834,301.2394430634635 593.7595743572805,302.69541515902296 593.8313186006942,306.73196800825525 593.0652081067668,309.549239980706 591.7671062773042,311.7392489431701 589.1806379818828,313.7014334233778 581.5537728443575,315.50677827151566 578.7319845783564,315.2906451593086 577.3216658451079,314.27243518754506 575.6248519200883,312.53331459640594 570.3100557984917,308.91899498415523 565.3525404879797,307.124547686206 560.9063392426415,307.10281305017696 557.0217758922171,307.44421599060985 548.3815108287512,310.7008238026524 544.7118834783554,311.0151802622148 539.805444055893,310.4457397946058 531.8122683156132,309.15115712960835 526.5910170366107,307.0429909943086 522.3298984551893,305.76520331037966 515.8400533183761,304.5912221725023 512.3366646469955,302.4376636662878 510.37703647217535,300.58194952638854 508.61350711201584,296.96786091100023 507.6778558096943,293.2810997063211 507.50038718908525,288.6720371206299 508.25086335551714,285.35177761378617 510.94323630373196,281.582834614452 515.0951936415094,278.18532929989794 518.7772592641088,274.8552299795766 520.3455051614899,270.42536722036573 521.5134063019653,268.0287175659421 521.5166522681153,265.1124301032242 520.0590000926572,262.3155513838379 514.8456453545404,256.71341700999255 511.69259722089566,254.79793159924066 508.785576141051,251.64235585430657 505.45258476797073,246.89804625332255 504.06781541058655,243.87967729983626 503.7158743242601,240.26406682186376 502.7802934434966,237.35414265457945 502.5182069704059,234.8699563010291 500.6852894218794,231.5086100420832 497.40465091590966,227.2965580710504 494.427757269111,224.48573121768806 491.6951328342908,222.6777014874312 487.9702120828492,221.84294663092288 486.3488658149938,220.69681262140102 482.6697836487929,217.46052589472515 480.99771632988484,216.47483246463878 476.3712582181323,212.50243880163737 470.6703459493921,210.11012732592064 465.82556019572394,208.80191467054829 458.84701322692,207.5019940066698 454.71418419810914,207.4930099516846 448.52455025483613,209.63161368429775 445.0931402904937,210.51170024157068 441.71621955443493,210.07992818810033 436.8108596758596,208.6889307641976 425.6699531002424,207.1721787775727 419.097382586614,207.30936476472408 414.12586160720303,207.8334384130515 409.6118327719639,208.79645848499797 405.99468243025336,210.279084491326 400.1224577758544,214.83046072542606 395.443577406628,219.3784734472561 391.6044512100531,222.7447112092491 387.5068457033467,227.08600268556984 384.518676575654,232.3397667509439 381.64583552003205,236.4899711052148 376.5636102314736,241.56891531333696 372.22895933184515,243.03494652158759 366.569132092396,243.7959355862322 361.10496300057923,243.93644860484034 355.97586744632747,244.59058976665682 352.80427437704844,246.1202069077181 348.7385187237978,249.07350354126504 346.4426011077695,251.19940543126944 344.39950326838175,253.81706035700506 343.3685373732052,256.2098218830714 342.59173067610425,258.974461794163 341.788052691385,260.58125196094903 340.3816331974305,262.3264456122671 337.6442231468127,264.7869750454498 335.56434008307247,266.2596604073845 331.80787782493155,268.028980013527 323.71443621331525,273.31531794284473 316.85862311460494,278.11529149022374 310.0533042398508,280.36816463548035 304.6991273686893,282.54671369822177 301.9878348228598,283.3627277196796 300.2288534143214,283.59655718154573 296.3918517206658,284.73715001804754 291.9546027795284,285.0932306865814 286.4092142074045,284.3925318922829 280.85864561611623,282.76137313890746 276.19693473100494,281.19478969075266 271.4172616353961,278.71821323544583 269.7444996717975,278.1834576915029 265.24918015363687,276.21301401573606 260.2817767132382,274.65789667569595 254.9720672354725,274.0766626652858 251.63217865007306,273.89655079098594 247.2308913840641,273.4010880695485 239.7613536977869,271.863278292408 229.2052974409596,268.70300960068795 222.13915502488246,266.41155238388166 218.2738384403888,265.43188230154533 215.3642373688502,265.0642042946471 210.91224672417013,264.713282229234 206.3377646686322,262.8326361186668 204.4850454042055,261.75680140264967 201.57753042000826,259.52308070854986 196.96590502724905,255.514162506527 194.00741044884515,253.41401117949675 191.15724083169172,251.9274160170409 188.0344127479596,250.00088535710262 180.31988637622834,245.88330835573885 178.8441744734248,245.18008396481088 175.9659953933309,243.40314054070575 170.30870729553433,235.88427015948662 167.29237697345854,232.0875657043261 162.9771532616088,228.57110354437674 157.74138030897822,225.4781493891952 150.1791277416679,222.24040419167045 144.140191312806,217.3509949613496 140.2428856414348,214.30696811374298 136.691531556111,212.7873153799195 130.49066151239657,210.82280105635994 115.2567037974066,210.1815415773376 111.148036651923,210.8494831867701 106.4220722509817,210.8596417502588 101.08893649485749,210.21195277739423 94.83000036246928,209.23274556702455 88.82304719944979,207.39981826776926 82.95737213621841,205.78427795545116 79.26811469815999,205.19450104634916 74.63708154249554,204.8199900622854 69.96955114424826,205.22402313912698 65.64514534755688,206.0554645650385 54.91007464404714,210.53211034251638 45.478493291220076,214.0224837067442 42.34280350396067,215.36032044630792 37.42108042285171,217.7857806443484 34.332762332350725,219.52865413506004 34.85478115123884,221.5518573855847 35.41310761292198,225.333010769258 36.70036148503325,227.46547635256604 38.23126486262674,228.72404829839485 40.92308025156523,230.22962726145096 41.48297396138953,231.5740486074656 41.795925042208815,234.26335963738 41.74713728710581,236.28248067342224 43.278376017273594,237.45397649175862 44.00889030064162,239.13777064070587 44.817717378394505,243.501049934388 44.80459181731941,244.9757021768229 44.23158552004591,247.40726966044718 41.6457533397392,253.27004576939845 41.78722817019336,254.62501675210132 43.26355661198379,256.3220837874419 43.19605026615845,257.00163504348546 39.63962568576659,259.4416828703546 39.219068377685275,260.77069813402846 39.36183460618411,263.0897866775578 40.900687582135745,265.7977921766859 41.21156697327233,267.53837808891706 41.867911518423206,268.4467186988475 43.5483102861513,269.00650389982036 46.884485821546846,270.7475374563912 49.82776290790398,272.9834820959379 55.83314339480315,273.2375035340185 59.51754957737782,273.68770843282357 63.73093864298956,274.4514919177971 66.39102736721748,275.3029902435296 68.129143159581,275.1758364815226 69.75205209473424,274.13859272683504 70.72058599709563,275.616051902393 72.24138476027612,277.0233223644512 73.89397649135523,279.758937154054 74.28210594969899,281.0223421606064 73.25241134728115,283.1355512504831 70.70532428820194,284.6768308720397 70.02062562572098,285.86403569859846 70.54330663696352,289.29120143912314 68.58896942164813,293.20361361774764 67.99679043423556,296.6884467681898 67.71167052417762,301.3831986314219 66.81810818053754,303.0605394168241 65.35498512026486,304.46336465966834 64.9361829973902,305.6197700059365 65.44207374845672,307.4036960054127 65.82184809974231,310.8175636877083 66.31529303077001,312.89742292523067 67.12983612603936,314.46825471612857 67.95060739139531,315.31166124156823 68.19840176709214,316.27675274211384 67.47452197992419,317.23468140066586 65.65169254640965,318.7698216709824 65.2715059009449,321.3352671685008 66.34381135490032,323.8855992714905 67.09946134589538,327.6955483962809 66.9486835949823,328.5163770172269 65.45845013741389,330.5936166136864 63.588995544576655,333.9288052411564 62.657597882178095,334.0352738600345 60.43168509602758,331.23172431230347 58.84232718094353,330.510344195117 56.00367797807646,331.180180371787 52.50221430618424,331.57445346561735 49.69749428000408,330.73323230127767 47.7210611734175,328.66657554050295 45.33070598495846,327.2499145092301 43.454896963751025,326.6059304352721 42.10587901536452,326.47284816848946 39.94340823763461,325.81959412751587 38.2075903227948,326.72078925286667 37.834155931512086,327.2908252048582 40.05724227564853,331.3971528942307 40.69825843377377,332.8930465753757 40.630397149633716,333.68814406068054 39.19789648922939,335.9875910048387 38.95545210769685,337.9818310468247 39.40778044420647,339.941579452655 40.381580600655234,342.0743757507134 39.94274863759979,345.3886300638064 40.723773384348405,347.2434516526437 40.75120895125018,348.73495115568534 39.62365058997264,352.4205322009514 39.60356030791725,353.5473217700095 40.38208740837124,355.69266789668296 39.48473628227908,361.06084984698225 38.63777631668106,363.11019676520664 34.8366540278536,363.67029165190246 32.503270111245236,364.8432817291114 30.982825969767,366.5496467798258 30.33444855223306,368.1296505963711 30.280095659911055,370.7198649703208 31.764518407153705,375.1994098917347 32.91221308364338,376.18160515769443 34.26866959648597,376.6329967845455 37.66595383505058,376.74393773574553 38.182201997164576,378.55787909188354 37.931595019153654,380.242776545594 37.72218877907225,384.1951784089517 37.09655062628878,385.4717012421091 36.910614875397755,386.8060990202206 37.158726232894914,388.7452980176233 36.61320969643437,394.8011239579227 35.659050399723874,396.1297050167592 34.616926235550935,399.3537249450514 33.98030042028543,400.6301176255457 33.1758706661215,401.3051868180925 30.10750028357733,402.04003612879785 29.207169876108313,400.8971729014959 28.090718739547388,398.63966560142785 26.696881983830252,397.6815510223919 23.049983083689074,397.88468521468405 22.514095974981252,399.39851030521817 21.748492226766977,400.2751913862026 21.509299683373595,401.75102578022427 21.68664494264713,404.7230553557874 22.552023381479756,406.39177109998366 24.49199674533162,408.0912632689169 24.243453163782426,409.49988629591206 24.76834641852731,410.3620359763093 23.63355067392701,415.70578623649885 22.447003414552675,416.70076550844755 21.222849814156927,419.51238353355063 21.324857594158765,420.64138911122257 20.81145072136727,421.86486049933535 18.527364501570677,424.0998397664084 18.691378071693855,426.26174045375524 17.940404691647142,427.76142411464843 18.01273943098068,429.84213412743384 19.518724759240886,432.06379729660875 19.018961965416885,434.04565786726243 19.339254215551925,435.9734831561368 18.20728641668559,436.5165659034441 16.482223722758558,438.046805989968 14.486979825675098,437.73105732499164 14.564838965583226,439.29236255966083 13.911752769777035,441.1715011707366 13.236183691144575,444.46132552804613 11.58393811122247,445.8303334216808 9.549442783257398,446.38569594626887 8.475942622391424,446.1730771521915 6.77605574096784,444.98823323212434 4.3428241656880155,444.3708651430435 3.558244687364719,444.9709098789496 3.7558851098378865,446.8712403651555 2.823834857609943,448.9567178401348 1.14163832998479,450.19750204152245 0.0,451.7064484357932 2.5866903561807595,451.2854249043154 6.953579380272039,451.06274516346514 9.509757112612752,450.6004235625394 11.893875038289234,450.98160391435385 14.939010520106299,450.7932747706739 16.673006027072983,448.3442008577562 19.756589755924875,448.48065466740115 21.531082150397364,449.3818810629666 23.50804973882513,449.467211991641 25.122680347342754,448.82060073343985 27.400849035392064,448.40231641158357 29.2654352267969,448.47323088856194 31.64867181058568,448.9537877349914 34.50059760982422,448.55474252623856 36.5038813047334,452.5721220577143 38.24544932927159,452.62845149109035 39.55098715467501,453.281734423795 41.5507561685879,453.15758533047347 42.305268343779964,452.4412389583245 44.21150221589699,453.56638301955354 45.248950888167265,453.26410563627985 46.999365797881175,453.4556313226626 49.17554818576402,455.44141356766454 50.257822730074196,455.828379620483 52.309199786091185,454.47503571285944 55.180513961567094,454.2501857293347 56.57469521817625,453.0527766580486 57.17153716431665,450.32201176413605 59.60367977427864,447.5663384789956 60.31200839972616,445.0191915917063 60.95541586248755,444.1057715782846 61.849275250557746,443.8096895531378 62.88349446006011,442.68389272737954 63.533805390677514,440.8647667769885 63.956733751268175,440.5921440014777 65.92286743956512,444.2769669896311 67.0947529149381,445.0771006667378 66.3224429123595,446.6641141549733 66.2196360247837,447.97397345686545 68.06897433331812,451.0293225271697 69.70939985971235,452.11070086601546 71.20128007876964,452.63061560328424 72.82974706906259,453.955025118163 75.44648464990125,453.4761767190318 76.8864212239964,455.3403627029714 78.08631976099547,455.2215738178153 79.07042307302618,453.9927441261873 80.88709851046008,453.63689300652254 81.67357394862127,453.94052347646084 84.4631067055709,456.15239983204924 85.2323687523493,456.0233368709425 85.18040282558785,454.93559347661846 87.27378015012076,453.33822683484505 88.11585980616167,453.06115139510877 89.57801826748046,454.70070916947077 90.32448142530325,454.9092586153669 91.35018598202073,456.12703574242164 92.48782663828807,456.0822987762415 93.48744387143373,456.6241083470146 95.4230476569946,456.80914240593285 97.17113690053155,456.0659787953766 98.87302846759269,457.24830882461765 99.74507749785516,457.174909520916 103.10906164178111,455.5320727160954 103.41895545486891,453.8529251272496 104.32029914918043,455.2378808942997 105.10743370336772,455.4740836978169 106.80604988826835,454.534367740279 108.67252367213082,454.2925440238797 109.81304587666834,452.584628023306 110.75844227953122,449.6062776582945 113.50756410654063,449.2765197112076 114.94653349488148,448.69994749188356 116.36872220310124,448.9001780841621 117.26191766003747,450.06917857960025 118.8287329937504,448.790266289809 119.78224326668494,448.723811129781 122.71476140525392,449.7992995041043 123.71034410861249,449.57022605898516 124.84494782680602,448.5795289577311 125.94063353826081,448.762767385806 127.38677618239132,449.8818525405677 130.20473908739424,449.91613720682574 132.46118337474883,449.6225780712981 134.22958132234365,448.75086353916754 135.32497151210657,448.87340431874156 136.98615056289768,450.10830018359127 138.28440451162402,450.5173103553671 140.30128693644568,449.36991379123657 141.32524580554195,449.4654143062837 143.68645090618054,451.71768594731776 145.97117781737057,451.7748992192588 147.45956744941154,451.36080273083655 148.6953160030146,450.504659647167 150.93902826714006,450.58120490644285 153.5714797091323,452.1196932269857 154.9319958993312,452.46055966692023 156.07469696001462,451.7862973667801 157.12667688610094,452.1788681803593 158.56766016652216,454.2359067168338 160.52781410616598,453.78297463008107 159.94767160586275,456.2110471085784 160.89390798043155,457.1981872905191 162.49006613504847,457.5801416906528 163.41018758885843,459.3440164321037 165.5085239799637,461.22274446497534 167.59388346602026,460.5140304672417 168.4433000737427,460.5869721163092 169.76644646714539,461.9276072488894 172.0233514087185,461.5984845235023 174.5081835033547,462.43294321611086 175.72136466083123,463.42054731688677 180.3702084549992,464.0128461240688 182.8523493205771,465.2860461021003 183.97765236820024,465.6038025659262 184.96508353599546,466.6172478390532 187.3634175223449,466.5922279437318 188.0480065638022,467.02258383371327 188.76463257139062,468.6900974636649 191.57988681650693,469.1540411224755 193.51942676634255,470.3825808445741 194.40094727092026,470.4014446847526 196.09968972488926,469.28430620184884 198.08224682924975,468.6080218355552 198.76727762850922,468.8621812360346 199.22032035489448,470.09430297081747 200.12680830427138,471.03985796122714 200.44588349157246,472.38007192153617 201.19027530577065,473.00654463787646 203.03783766307737,472.605473282262 204.42844935732072,471.57311273902695 205.47339996803356,471.5873365347506 207.7115214253162,472.6951303681909 208.5486666159872,471.5447955627947 211.24915942412042,470.78448352011253 211.59597736619517,471.15857694603056 211.51238706735725,472.97607375057464 211.79541423003957,473.7008306908865 213.3107438233807,473.93239753919903 214.72077463190143,474.7520483365423 216.98145368034372,475.48877447057686 219.28075684156659,476.7329737953176 221.5494249969598,476.1522957691568 222.645213152725,476.3139963417003 224.10236668717766,479.48544980160983 224.35559072029744,481.7583529976258 225.70153643022226,483.04287352212543 227.0242755247272,482.90870254528477 228.72709623558723,484.47367563427366 230.77303864895532,485.2427471265062 231.11463856243364,486.5488067223459 231.92751046293426,487.81137859046385 230.75901350784076,489.5081387267373 230.42310598679944,490.7970498914474 230.8163149643698,491.98235713631925 231.85208998849222,493.637995834997 231.8986347378918,496.24750790187625 232.9869557263813,499.6344862502589 234.54987497024646,500.56240123913454 234.98094293895764,502.29593530031667 236.0111278117385,503.3627096754907 237.69743648252742,504.31215886903976 238.43439510570332,506.3786541002076 237.61542840949951,507.8750408438625 235.85906821723268,510.11657722237806 232.9467713914748,511.7912520948797 232.36959767606263,512.382172648395 232.29071363907082,513.6197542849336 232.76581886118282,514.8121195891725 232.6995224927042,517.3417347982698 231.1665343985413,519.9563916103373 232.84880839106492,521.6707744465031 233.6268511171684,521.9723939599021 235.24035866891327,525.0729127744288 235.50207765783978,525.973502753315 235.06337560715738,527.2827522188568 232.44997202615002,530.3523255332211 231.02613649128534,533.510142475689 229.94212571309404,534.592209603866 231.52517244364398,535.9208764135119 232.74206442224963,538.4105883458494 233.60014299560518,539.0516131933683 234.92300686541316,539.2352983119358 236.27937159456073,538.8237907313102 237.2722341242906,539.3774969986774 237.17553044380557,540.0999559672807 238.39347054252664,540.6956448709548 239.5734133094058,540.648418505245 240.07161155845745,541.5041050140258 241.61983611210525,541.6878200572636 242.66503039272285,540.083708707039 244.07529614195948,541.2019881788194 244.32689558215134,540.221774589144 245.9232456595799,541.0428236558537 249.34731894829483,539.7830309574315 249.36066863056487,541.0013250525827 251.1119334728614,541.7273511691411 253.4598139231463,541.9976805306212 254.43903272916432,543.1122733744999 256.1547748324141,542.7220873515055 257.1452797390464,543.61440289121 258.49632100275727,542.4573630092608 259.1859329103146,543.9290792807823 260.0002231462184,543.2973584473159 261.2797858812268,543.8191903883001 262.4867972011363,542.6007727683226 264.7783615711413,543.9114146578288 264.88790406814644,544.6493031508578 266.6698523328436,545.3156210889222 268.57750872784095,545.5555597596193 269.4234959962605,544.5992429938128 270.21325616762425,544.6638563094226 273.2685415878056,547.2568637290993 273.9802102289937,546.6046262304121 275.5582424938435,547.0385467022357 276.7859217543077,547.7897884475601 277.29214994376684,547.1694866652241 278.2640364788519,547.6960112686536 278.8832436273116,547.0080370302092 281.20458413647924,546.6279021133162 281.74097965406463,546.1364690898233 282.57045028181756,546.4454248491421 283.3548137154746,547.6059040941849 283.7369157657605,547.1070861910555 284.53525229587837,547.6315518576108 286.9752948333947,546.0137661709853 286.9855360000718,543.9229372923256 287.6125186731271,543.6684969245047 291.08153235264155,545.7289144308465 293.5135479717674,545.7340144929586 296.08084284002615,545.3611030926187 297.4433882433786,543.5804126419247 297.82943824112755,544.5033229493675 298.6299531487508,544.4190614662886 301.0556912508649,545.7564930809287 302.4044992533365,544.9099211461626 302.7000020132547,543.084530136987 304.2079821080005,541.0006402811769 304.5319936306371,539.6694785982972 304.37690895098933,537.667024331084 305.1536899555985,536.1816825708534 304.58735512463096,534.3600089968276 304.914318534888,532.3795854015234 304.80246046111256,530.0383866761013 305.0193658809608,527.4962177219718 303.28830699086416,526.8598509080256 301.1826895044802,527.4850188191103 300.1689235909439,527.0345875190156 300.0522651046717,525.5935335021218 300.5101372427335,524.1749800379371 301.695679402984,523.0107265118021 309.75009080739306,515.9266624470745 311.341171433107,515.5685017337685 312.0928574213223,514.9358178056527 315.1191081360129,514.7468646621512 316.48841474003154,513.6029547559284 317.0180096894479,512.2528263971616 316.7956480619183,511.440802158 315.1286005553224,510.35825717992236 313.14921508268293,510.3285131723739 312.7833606683559,509.54334237069355 313.10506402263263,506.4139618455969 315.218824225784,503.94184840429546 315.17465303011363,502.2579397796816 313.5232132426014,500.16188755001326 312.7020403820793,498.1102390575411 312.7075973397077,496.87223879545417 313.2041029867809,495.8400265090869 316.81554382394125,492.9904875377944 317.2295499564413,492.11304401230643 316.9527247523866,489.86136519480476 315.79917946522596,488.7139691190641 316.41701753872724,488.1081503341038 317.97600068639673,488.0402048436679 318.0624687599377,486.9599262703825 316.839545021717,485.2983245754669 317.42820689377254,484.30720270327686 319.39381117057013,485.004740502059 320.3483632471856,484.76571255442957 322.4464100168871,483.1934659652725 323.3034886277005,481.7775699630471 323.7525247453003,479.8878030727855 326.1215211863896,479.60084642899415 328.03888550880737,477.1219533380039 327.85485808991683,474.539473439472 327.1826915418593,473.4823664865314 324.7344951833151,473.06582204839776 323.5803468534622,472.27731748798215 323.4331029473693,470.68210108480673 324.3187763292513,469.7395153740804 326.76279292975164,468.5746849089088 328.9343650270262,466.5766512066133 330.17698559995415,465.9260147665607 331.97101514805274,463.3188249179382 334.30101377804846,462.42393644256686 335.3923899341852,461.2322380568086 335.47743635281387,460.4149397294432 336.6221211932554,458.7986580614246 337.25331808076834,457.25398555459856 337.3897037433458,451.4176469819512 337.62250445746275,449.68865869438065 339.6846269317422,448.9740507887899 340.6357527198965,449.4246941435381 342.647092184149,451.1814395826398 345.2933000388192,450.62525008362024 348.396001252614,448.3738116732119 352.61834495656905,448.17451123426747 352.72803487784,448.8979418031082 351.3588994233476,450.5411644557888 349.46385553950506,450.51289630316245 350.0640727578,451.4814458283226 349.0289830094308,454.1592557772072 349.44762965175954,454.6748084064566 351.44459203402533,454.8784447225394 351.6846982932296,456.3451966960031 350.8909447097946,457.58455497437035 349.3803104280826,458.70116094250704 348.24324398967667,458.65599954699815 347.67578005119884,459.5385505355897 350.0655114952236,461.8115504280336 352.1262786727801,461.51469799450365 353.6459814099439,463.467262882986 354.71186992677667,463.4097091805617 355.1492579177123,461.45914664729713 357.1510521179379,460.64908445652463 357.96919099955517,461.0978547862484 358.08862949775147,461.91595046190304 356.53797849627233,462.82239139063483 355.9714669058998,463.67860996084653 356.3064592685409,464.5448458594454 358.04869993601,464.5448146638213 358.8043418707198,465.23654130605024 358.317038295532,466.7544575946207 358.5996386055891,467.8372753003064 357.93954607406556,468.9836834233291 356.0495726226874,470.1111299641314 356.08485765359404,471.57818394357605 357.2290282262672,472.46067941125375 358.45018453791374,472.14063415280646 359.5113430336645,470.70519684497424 361.45616554512685,471.40241815140445 363.2389980753882,471.52344020138037 364.4546729072277,472.689983137015 364.4510429915174,473.6836887155355 363.0579403626337,476.33400301623874 363.0728386809455,477.7327466568959 364.78306883528995,478.158284010844 366.6925419837063,477.41580313573974 367.45777020723483,478.5124253656538 366.24329815365564,479.7317513377981 365.2837701530206,481.4108744323585 365.7296107990718,482.80457955700797 369.10171634239197,483.04672828075627 368.9003942529147,484.81004753389345 369.378499661737,486.0486752675173 370.24995597742003,485.93073088860774 373.19225067039906,488.77261202774025 373.1897133778891,489.4956052997333 373.96486836402534,490.69562088592284 373.71588444431524,491.5729164537354 372.7821117456064,491.85355913566576 371.9738619097637,491.29608057076416 370.8153628291557,491.25236489568306 370.0034551271473,491.72927967233 369.737374857883,494.57412029288923 370.8103978646601,495.4770112227873 370.67172690603803,497.18663240421097 370.0554681382264,497.47496314751436 367.9937459407343,497.5149101376736 367.0652942080694,499.0665161646797 367.4698574697986,500.62292254993866 368.31854431622236,501.32256290567796 370.24679355434995,501.3426549486273 371.2018192777988,500.7650015514852 372.69675456631495,501.4393544561317 373.43683125320877,503.88936970090595 374.4077971793118,504.9337965486444 377.047744071315,506.55181557947344 379.16332347463594,505.72822307621584 381.91827747510234,506.90074012024854 384.7213776164398,508.9316482188679 384.80290546927546,512.0153932190774 385.1282984571958,512.9562603399113 387.10414776925785,514.0918413705806 387.97947305603003,516.2042769562448 389.8147002320477,516.2773728652867 389.8912431557553,518.1241807940652 390.79929087740015,519.7029605095985 388.6482002958456,521.8605847647574 388.6556080980435,522.6650394986071 390.2998573612034,524.854767026206 390.91797109420776,527.3999025482486 390.24642078941616,528.7435893938425 388.1919330377841,529.5622597882714 388.7077645213849,531.9992378924933 390.178363566669,534.0530432740375 391.31990294129315,536.2686232251262 391.50737682575965,538.6704052140057 392.6700952043883,540.8188983134739 393.6474487416538,543.2980153780474 395.21564542134126,543.8983126857947 395.8987195234902,545.2936251129672 394.8014778777001,548.2536791995933 394.2246071337703,548.8945185642089 391.52255713973426,550.0567900542427 390.30463572473684,552.0622895460727 389.96964796700263,554.2400925544463 390.50067001508285,554.9251830979177 393.4023470062529,555.8544373740099 393.57311845715316,556.9994428989442 391.8113562301156,559.151802949945 392.9237548017353,561.2329935707828 394.7180757318243,561.7327772780442 395.70119740641786,562.5072810558673 396.12860530353197,563.5441385291732 396.0983075346366,566.8123620581813 396.2704309957524,567.5512982415771 397.5067855943553,569.3345692547673 399.18930990356847,569.6313919686723 401.01396355501277,567.3689726917801 402.0286879322158,567.7043939036087 402.46805032476027,568.4089084513258 404.0306727821753,567.7643580811966 405.54707188393803,568.6349399519659 405.11139152951046,570.3052128775674 402.594229624436,570.8390671662908 402.3343165722955,572.0432645163532 402.77369666906327,572.4979759494728 404.61160411031193,572.4969000222329 405.15452117685726,572.9243930690449 405.43654563247856,574.6452237141699 405.8980649867797,574.9371131786926 407.4503879583876,574.1636941272441 409.4885483017167,575.9226674410321 410.94601777972275,576.1777963861834 411.31172875203794,577.3156068210044 410.40516477191886,578.4772518279594 408.9673194410689,578.6216276579484 407.38214743593824,580.0321428088666 407.12241813214246,580.9315368652403 409.7972788154884,582.8420320578688 410.38676482463524,584.8267344306173 410.0941579589492,586.6878283097922 409.2332589714314,589.6102892170211 408.3359606492468,590.961205233583 408.5085382650511,591.6186721790194 409.873148371248,592.0694296870696 409.83933046341497,593.078432735101 408.9123945691107,593.9890954687909 408.53957412207205,594.9971065700524 408.6682307252956,596.6833527219851 409.3434193314419,597.6471053875988 410.7305941542457,597.2857862622501 411.22183732393677,597.7813005527615 411.555480892733,599.6441999191333 412.577265543332,601.4958640566384 413.5418584825917,602.0268251733345 414.3940130835665,601.907095503897 416.92637897929654,599.9367314130734 418.71363839456615,599.833850655381 419.49137281484116,600.92652514884 419.1405811407951,601.5550086935523 417.8147272918853,601.7879356115707 416.83469013557436,603.4578685443802 416.8498913909427,605.2054015574123 417.94274038036326,607.7009264721563 419.32899273684507,607.7377688973743 420.1146829351608,605.9660257274714 420.978392482931,605.5887353260117 421.5277794994551,607.4796750818482 420.3934305819137,609.0953222729836 420.50528291976065,609.7118707979414 423.59397461294895,610.864682752293 427.3011183340632,611.2673691347461 428.77938010499065,611.596955796532 430.6307659176905,610.7070870363552 434.15567531120286,610.1812303073384 435.57191894329776,610.9165584705531 438.29372207462814,610.9430801095538 440.0171017832737,612.1390366404073 442.7713798393193,611.522787872092 446.5622200218783,611.5382677529748 448.92677063539384,610.7381721071049 451.7036526687399,609.267643655256 452.65908448260086,609.2565601170776 453.90048037146653,609.862330794329 455.0926031573316,609.695467091834 456.14152974463184,608.9527465856324 457.87640340653877,609.600215686525 460.11535801131214,609.6588621746971 461.9145842120379,609.0936784400188 463.0373758125143,607.6874343183007 463.86018633945224,607.1741104088077 466.5809408698727,607.647262460302 467.54701389128985,607.3168457576636 468.55813197494876,605.274232601497 470.2147210240307,603.6785259161948 471.0389623722611,602.3595941944822 472.0888070987565,601.3734104694098 475.49108778150406,599.8556833523296 478.0174786582323,600.0638720693073 479.54659715212733,600.4528627647977 482.4433547473747,600.4172330276341 485.7615942969766,600.0168339545602 488.6273385980532,600.0413865358772 489.69581567294335,599.7515077003449 492.44827381746796,599.6205397295499 493.76428922348185,599.0404655791953 494.7821263726636,598.0065298169524 496.12915838287853,597.3043052135247 498.8199060549844,597.0442106450471 503.7463191275046,599.4413801233712 505.4817597188313,599.8366185223167 507.3416657675725,598.9862879961847 508.33945598107846,597.7551264095138 510.2212143716237,596.0442020784931 511.8466878736331,594.1909430606361 513.1001871398983,593.3462762842594 514.9704478684448,592.6244795565939 518.0950769373405,590.1698120949418 519.3378178122103,589.8124970967357 521.8129144549432,590.0793647871343 524.9138295259395,589.9814488764032 526.7735655045988,589.5024796931075 529.1570773532244,587.9070324747584 530.8702342458881,589.6418623062056 532.113196441391,589.7849868001986 537.0841892317496,588.7065894653994 538.9524570626356,588.9590476550782 540.0505312928836,590.6997177423642 541.9197293025961,589.8406530220377 543.038182132124,591.3105798063876 544.5061133070226,592.2129206727855 549.4659942240772,592.7511520284779 550.0920497043089,592.9947506155363 552.4319321292352,595.1156293739235 554.9070383523083,595.9908102034634 559.25098753837,596.7578969387107 560.4931614032981,597.3747351655722 564.0657854441647,600.1251859677067 567.3920177565326,603.8580220022899 568.9732697001505,607.3260151100629 568.1807274524247,612.1544126601877 569.0430724391756,613.3937849914781 570.8918666242054,614.5190082686458 573.367172566934,615.6366415191621 574.8459334171253,617.5000323310919 576.7059506279485,617.7645522479293 577.9589954394928,617.1485648550547 579.807944603541,619.0185082905059 584.7701709815841,620.8876215040984 586.0030249853081,621.7625440455953 586.9894641703534,623.001671733077 587.7186672288893,624.864715585409 590.5547205611183,627.2218467760194 591.0376211469213,629.0848532162729 591.5313308441241,629.7076795017855 594.254049347048,630.3787966489143 596.6794869209745,632.1194382174772 597.4607711845053,633.2978967673588 599.3416306044602,634.7347829399697 601.8491328906016,635.689507677889 602.7222593707216,635.6684223853173 603.8637615320949,636.7663921573652 606.9772089058133,637.686654726607 608.869210711762,639.0275112326185 610.7502185462718,639.6101238593164 611.8601727359032,640.4834707703122 612.39535172654,641.6893376696695 614.2759450398955,642.888078466358 616.1368723838643,643.1040955536739 617.3905276854996,643.5844317583159 620.4141315789325,646.1238764997238 622.0381885204632,646.8482270822378 623.9093724227378,647.1795495490493 627.0448911841586,648.7359339172841 627.9299328611557,650.2066547343628 629.1949539353933,651.174230456015 631.6822917751759,651.5049228426326 633.5541084714434,652.4587907648039 634.8194514624537,653.6848496772742 637.3181153174526,654.5027931528556 639.1785052158226,654.4749267734132 643.3332196559189,656.59197899473 644.9486164958668,658.2653972754179 646.3491733524347,660.7444754181884 647.2047272559579,663.0820749500351 647.8653221728065,666.0162708456253 651.9942379854546,671.4021013109798 653.6321215651377,674.7897152981456 653.7864407557653,674.4847410900791 656.8481139907219,672.2784716819914 658.8213346699538,671.041638299955 659.9703117930325,669.0948116838496 661.2115169419316,666.070548563312 661.7965677341483,665.2698681552387 663.337582605998,664.2380674876343 664.3119237897014,662.5686701001476 664.2263123697223,659.512911987857 666.4548752224815,657.6868006873757 668.5478488322683,654.4918593764172 668.524324721995,651.7947606959442 668.0882986675056,648.6437100781221 667.5937254998178,647.4514775090053 665.6477037924797,644.8998151239573 666.1874590735529,640.7923790333688 665.382015016084,638.0632207795757 664.6818843197383,636.7424645250493 663.3539741135704,635.0912221557 663.2918704857942,634.1966522795169 664.8702929292169,630.9022919879388 664.4366156250089,629.4260481446994 664.3386565158318,625.0706878854346 663.5562805582659,623.3098457325466 663.0711957579373,621.4066871131284 661.0623329404099,617.0810609284571 660.7518492392138,615.0973500336264 661.6014469630763,612.3739149700191 664.8738959071234,608.4073917641373 667.469495084954,605.7499548993776 666.4682454319862,602.3651867236898 666.4365408089193,601.0854275509579 667.8401463190346,598.3612105633763 670.89588798227,594.8843220079324 672.7202275192878,592.3498119491037 673.5503861065558,590.7167541317509 674.5050185221869,590.3633155543276 677.3184047797276,590.2108384630425 682.1520035429924,588.2395365639015 683.5487382995753,588.2517398749826 685.5430500878535,589.7441702704372 687.740905936026,590.012534305955 688.8712555597059,590.4773164655625 689.9419200020237,591.742188470285 693.6131770412162,594.8096388621385 696.4614489705485,596.8835064116456 698.3210229361076,597.3875701567704 700.28209905665,597.2014265644211 703.1515926849846,593.8179090382494 705.8904098150545,592.1467740883493 706.5585938759227,592.2951749732216 709.4992565515355,594.0634503186851 712.1956007825091,597.1525885501242 713.7098007981349,599.417563876741 715.8443056100473,603.2317487585688 719.5398988125363,607.3892409209373 721.8018494269979,608.3737441808181 723.4459353697594,608.6200130036691 724.6490947373084,609.2545522612936 728.6646270952596,613.4041993640514 730.2988656701741,613.6646144485438 733.5713677180682,611.5772850757545 734.9979635927606,610.9169972316292 736.4162681476381,611.3340182954236 739.114515627439,614.0225237072981 740.9565670230099,615.5355471491222 743.5670077745328,615.9968008237709 744.1136867128802,616.8416719139182 743.6323753128909,621.475682389716 743.818302102505,621.9968240068855 745.1522636865238,621.3101240701611 747.3005504616445,621.5886073544499 751.423806812017,622.9062009248325 760.5423310113813,624.7106443742152 761.1992474852524,624.2411462929099 762.8683244535952,622.1632907399511 767.6815224519177,616.6496876327251 769.3105300659946,615.283749363938 770.5383080175731,613.5601988201095 771.1000020503564,612.291956523756 771.8589822624053,611.9309872823849 775.0835241052374,611.6022932974481 777.7827173695454,610.7347151649108 780.048957971311,609.5019059781126 780.9600224046736,608.3953617416558 781.6737404404744,606.6720710214422 782.0663956194228,604.037507490296 782.8438865275402,602.9786675168273 784.8213692402462,601.6453396793427 786.785359240242,599.0112728718774 789.8349825493352,598.7913055514367 791.5683197926709,597.9801564941708 793.9662704010516,596.400863172815 797.7604449191441,594.6616364445204 799.978192637218,594.4450586569269 801.8579612896247,594.5266796705704 809.7698048714267,595.6292103514073 815.2325367959174,595.4741942215365 820.545380856435,596.1313818738314 821.1093487072981,595.9939217075181 824.4376792716406,593.3821421825023 826.1050025417395,591.8186680858672 829.6843419195515,590.5316785988459 829.8216664601792,586.123861857431 829.3224420737339,584.6093824542686 828.268884588876,582.8868533270312 827.7693339695142,581.2711212777925 828.460197296607,576.6454816184313 829.1399345482508,574.5575062722996 829.8654261395903,568.3613700198782 828.9276422098375,567.3701985663231 825.4862536740306,566.8353909206749 824.1362383315667,565.3923327028768 822.6244828123155,561.973448174954 822.0620373236668,559.7625607189201 821.7592963771359,555.7987770676248 822.0632345462378,554.7423036638629 823.0447333742184,553.6964801229556 824.304608342177,553.0149344763302 825.9100866915192,551.5067047286325 827.9818459842494,548.4736108980726 828.0192190516422,547.5600913688749 826.9659961255226,540.5289480273865 827.2533117436192,537.8009196671354 827.5190955226248,537.5027746575043 831.4382851152537,537.5282824850469 833.5538834611374,537.9733567059772 835.7183185761461,537.6940647877971 838.4121288334001,536.6884684492793 843.7481441764402,534.1973338967149 845.487600416944,533.0478820587077 848.3594434001562,532.825737507976 851.9061482758166,532.0327621071226 853.3999932542663,531.2219682552948 855.2682682324942,529.0559642286863 859.8586683409644,525.3429130832191 861.268259005962,524.0249816748856 862.9813343890333,521.5832039881114 863.0269388171292,520.3856993641617 861.4759428446008,519.8643228031607 858.9869401443618,518.4149137565631 856.9186625928072,516.8546400372069 854.8665092117485,514.3555342130836 853.4170908749131,511.20341565656804 853.1902533816756,508.4653327435544 851.3869228627598,503.9908178414345 851.2773268456903,502.3284820275189 850.6235933660339,498.15939041816034 850.8039659282533,497.0570626268267 852.4022727217371,494.35964226284864 852.8056898996757,492.7831573774404 852.5422370627113,491.20181059664117 851.4982194571098,489.1516797187468 850.8425169866382,484.4906823889945 851.068930307194,482.2590768917986 851.6519698986328,479.431703427658 854.3654833706717,473.97279883026044 855.0072400480674,468.368650204868 856.6648960546204,467.67149965118506 859.2687247403908,467.8362449191641 861.292145450561,468.84089842748403 862.9170222296864,469.9760084149185 865.2172601146173,470.98590947225523 867.4303783731017,470.7734937608452 870.471464709992,467.9216022312397 872.7086421790904,466.2628645006945 874.9978037265176,464.87341962996896 875.7652020871031,464.68718466438645 881.2997788641841,464.7558941661696 885.5443695078945,464.97227248361594 887.4591511986391,464.631810377462 890.0065091472867,463.8084024506385 894.3570606204478,462.7063859819234 897.0219653583321,462.7745928808613 902.0560228497338,465.2154623249837 903.6113846071889,464.67382976124793 904.8838972221192,463.07274252071284 905.7561378318768,461.2634899924442 907.0500577018474,459.8042080845645 908.553201212391,459.18238232424756 909.8969802721002,457.4047420470471 909.8294496266608,456.2704966607617 908.3232405554244,454.345856991074 906.8939955782351,451.3401117910118 904.737152763333,450.34533652731335 904.3287011157548,448.6581842426277 902.8113486615873,444.4708769697405 901.8262927238874,440.09925698395057 900.7991848424322,437.59205057650587 899.36837402623,432.1353612016161 904.0045158101381,425.2910665368006 908.3142047775428,422.818131109795 910.6442659368361,421.90803045425 912.1185767635687,421.846402884378 914.1498766245196,422.4167887146648 916.0026543771936,422.27823926677115 919.3465896897068,421.34261670164756 922.0918255573577,419.49774065274346 923.5854147000348,421.15690041979883 925.0769525180128,422.2833983005355 927.9495497159738,423.1799891046242 930.4569586683983,424.72555756758845 933.5159958794156,427.80753391743065 935.7699223335285,429.6866514908263 936.6066460129415,430.9783217778552 937.7073838918583,433.5989827337053 939.2137841283235,435.4810950725166 939.9294259667438,437.1255646034367 944.990351328541,433.5981157582422 946.4985755517483,432.29961908042907 946.9949574377531,431.30409666079197 947.6049405712531,428.78812848283826 947.7813541030661,423.8976083962349 949.5735729020394,418.5398524027865 952.1467520923021,415.49949042065776 954.1145035359245,412.3283435799948 953.3528011466218,409.94256796543084 950.4127745679068,406.17305858915444 951.0928228495034,405.1698158601169 954.0421933355001,403.62713056157907 955.0767609637691,403.6143925263536 957.5923055720909,404.86167594690767 959.23043159453,406.5125139808527 960.8850768828424,407.5689394196479 962.4916564697288,407.41726285399017 965.4163050238958,405.13134232896147 966.9529590905083,405.26390471573944 969.015903060177,405.97315120259566 972.5298333164542,406.2694343432902 975.0691154895782,406.3141112367823 977.5218556284539,407.16259655494923 980.4498873693534,408.7706178440337 981.2594475486776,408.83370322559813 982.6539991584755,404.29513623496547 983.2966120872792,400.77381275670075 983.431914923286,394.7322666523682 985.5679791165084,395.70351055981854 986.9003607016485,395.93813359871586 989.5762110845341,395.02938504324084 991.0706509576022,394.9734302685018 993.063816536261,394.4398512240738 994.3466891912909,393.46627811244747 995.5184283305671,394.0869494855827 997.2631763069793,393.24452802384843 998.8518010136429,391.9650917401909 1000.4160224615601,390.1531286303175 1003.350684123896,388.1965582429317 1003.9583295081322,387.22731813634937 1003.6446338969453,384.64432494926746 1003.892856838483,383.5630495963078 1006.6930911486895,381.36510428020256 1008.0205176327784,380.903775455158 1009.2505507664343,381.1716235902217 1011.1207916596761,382.3264802380722 1012.7358016507899,381.94451593946536 1013.675542462356,380.2850673586185 1016.4362251476846,378.33566030648683 1017.9687642714343,377.95412887628703 1018.0410552260116,375.1869222079221 1018.9377549931442,373.1293000781732 1019.9406394762485,370.20150952680973 1020.9707234989027,368.2034489646783 1021.8932505296987,367.0029033115561 1023.6079160308897,366.41744926521744 1024.0,365.3955966248624 1022.2944869006523,362.90504014414006 1021.8129868571409,358.543757616719 1021.2109598016015,355.8506081135174 1019.5702657583565,352.34704092441433 1017.628244953719,349.6158967476956 1013.1437230847276,346.1131997795456 1012.2247797346402,344.9056525504886" /><circle cx="463.65668882242255" cy="354.66382736185795" fill="rgb(100%,100%,100%)" r="16" stroke="grey" stroke-width="8" /></svg>