<?xml version="1.0" encoding="utf-8" ?>
<svg baseProfile="full" height="1024" version="1.1" width="1024" xmlns="http://www.w3.org/2000/svg" xmlns:ev="http://www.w3.org/2001/xml-events" xmlns:xlink="http://www.w3.org/1999/xlink"><defs /><polygon fill="black" points="129.14978186681515,967.8774239011036 129.97150350652714,957.9241388378503 126.1946468116276,957.1659604276052 126.43147974396186,952.9024107376645 128.60261120776246,945.7905487933048 132.62421893837447,937.4881759936652 132.1230742188254,934.469145892129 128.43645045990564,930.6685861887839 128.38789456901802,922.6160729586333 136.35020612243028,911.2349095431546 138.3423278963611,907.7377695353089 137.51277055008643,903.9485732382897 140.1703529663883,895.7958219887493 141.17210852897247,894.405163975578 143.47168813936707,895.4374796156029 145.1193019003797,894.9148216883789 145.82248794091885,892.2843187805888 145.92017295754118,884.8330209465905 140.6054859161232,875.0811542760737 140.4083861072898,872.3429072460891 141.90249874317217,872.2444846942417 147.6238048416116,874.1012700475216 151.8528123461968,872.4675585707748 157.7083597867178,864.7278193420456 160.95906927737508,865.4639041983238 167.04188487268274,864.4903249678293 173.6404333889584,860.4182077478254 179.46986132608757,861.06379346471 183.70778429223654,860.8218225909358 190.92267071027678,864.1412549204514 193.76577446434837,865.9492365457438 196.65766730181966,870.3238602458131 196.9711899264204,873.1304529907953 198.917842935587,876.6138382463707 201.5057617798935,877.9657447443008 206.0508268745598,882.1032931777193 208.46568909159927,885.5569072974216 216.71927666364144,889.3681780486112 221.01080493643343,893.0306994660705 226.42927428702316,895.0255051402856 230.87287067574067,895.3907388315542 237.46556429439045,897.8317639203746 238.90229837995244,899.4522439651337 244.1294591698709,903.0858175480772 248.8525536742458,905.5624119021359 258.56064430066914,911.442138857748 263.54082756813114,914.1603654809358 266.80296913896893,918.086643540492 274.7809414583657,919.0484207089344 289.51581377576787,918.8027018607953 303.31853329736964,916.1577727143779 324.2888432442679,914.0967252546517 334.78624083215567,912.3342624440093 356.78217907225553,905.9829010750749 367.3570926867407,898.9857354861114 377.94357484855425,892.94246268553 395.15105429106,889.8225156824658 412.27924614829533,891.9209522538579 428.00088890742904,893.5356524234268 464.3513633169215,888.2251642660775 476.8168647901977,884.5506676640543 490.8421794943456,872.8111360332025 500.5951395897641,859.1229804219764 504.08814703606987,849.6586848972246 501.940216360771,833.4699541752095 496.554940547646,821.4112780919481 498.91580146041633,821.2790015467459 499.4128090941789,809.0581402814827 499.13470226308925,804.9017465159764 496.0055921496258,805.6915174280136 494.1717490282551,805.0052552112037 492.9917076353993,801.3783266141684 493.6584029977355,798.7363371393975 493.2102369316989,791.567190037676 491.8576728208094,791.8195696369364 492.12774561433486,797.0493790339649 488.8386983097546,796.8417654048751 487.4280350956768,792.0446427641423 481.61203915376484,785.7240189548847 484.10722712156,782.471132397691 486.3924074249168,782.8429466873513 490.8160232488542,785.6446849930301 493.8729063185687,780.6839185032893 501.9157749154161,780.1465276855945 502.0258878739016,772.5671291038714 498.9731708829176,772.2427099246665 496.35416092800506,767.2881999526448 496.28373763518056,765.0393781021869 487.3899605085487,764.4068267403148 487.03321084576737,760.5696695603322 492.6254942192515,752.888550746608 491.9846145226986,750.479320476599 488.58010862793293,750.8865574879655 486.3378415732855,745.9448273845044 484.4821162824646,746.2699176701236 481.0636774202479,745.2760538100122 478.7699910038277,739.7021519433376 469.95158731254514,735.2641139851329 468.23897085777367,731.4757781598116 476.6106797079971,727.6631387273892 485.8922482998412,721.9607028470064 490.78294044876935,721.4913659351355 489.28600991168065,718.0890028434173 492.05669720874147,715.639770331512 496.8230828285946,714.0476805043226 499.6576243578522,718.3520373467427 505.7728476984091,714.19676687189 508.21137923705146,709.7612992988431 516.6609958581714,707.2734300273498 516.5052917443509,703.1372754540766 517.523367830938,701.2143126367494 522.0653705239563,696.6430197484196 527.7995032360911,696.1962721576804 527.5032748475401,690.5808415675087 534.585665472272,686.1590039383473 536.4994734934356,687.4264000896985 542.1524467785098,689.0235867763486 550.1945049246535,687.5555732159457 559.990288828098,675.9730189928648 570.302166213824,678.1757726733699 572.6760818677027,680.5560358078079 576.2544643817388,689.05543737882 580.6599474084521,691.4336477450636 581.6998028643661,699.8835016177729 589.8943301056976,701.2813692008988 599.8973853466309,701.1181869287872 603.7362274208408,700.2901936315407 606.0494501179908,695.6191095490445 603.5492423859912,691.6165018018513 608.7980762141351,689.755253182484 612.0208205782699,698.6997020899081 616.6557769649459,704.5887972369048 622.8433753064727,704.9260681419636 623.844133196816,707.9083825747596 630.4010100247378,698.1291780929523 630.75321500076,694.5735892262994 627.604982748576,685.1669548444556 624.3438265413711,681.519553934217 625.5114619566335,673.102905569942 627.5178852467694,669.1045064594094 633.0159184031162,669.5683867038636 636.7815739850977,668.57713598642 639.7003841537595,655.8206198994956 639.479726984878,645.0050729593781 640.9931188915824,644.8080678906254 640.7708957328293,641.6157982381676 635.2681203642185,641.6630477386086 635.0728367360533,638.3165626033009 642.4040320154411,637.8391302449759 642.4502681736706,635.0396035578744 648.2549423707237,635.1578101603229 649.2478916867279,638.4660999738226 650.9356657123882,639.26792094848 653.0546516740279,632.1110541471959 655.4322940076152,629.7296526007311 665.8264869477609,628.0193347410566 670.6317877023715,637.7522174503674 672.9766448056165,638.0784726336622 672.1629973738002,631.129067649603 680.2266152401298,626.6186293385565 687.6802488074517,626.771686434733 692.08081495282,627.9303921704236 700.7267575972384,633.1449810772931 702.9265689540022,642.4240857097852 707.0292278680708,642.52813947922 709.6140486730797,636.4416812592837 707.5685388476966,628.1598968350279 705.1504572612597,625.8946168212881 702.8695954150023,618.4775231042804 702.514028972674,614.8480835356515 706.0508774671648,615.4027372366127 705.4666877262092,611.9008700815148 704.192282017284,610.3866357108832 707.3143854212972,606.3934094229301 714.5186022138301,605.396398557768 715.7923521194549,609.5866836333585 712.8555485366352,613.688066171534 714.626858223475,616.8043106635716 728.1267342687732,610.434526299244 728.7292442669972,605.886792862432 733.0975368179436,607.2589309285208 734.8763476184729,602.8363741938576 739.2696675413706,602.933035990591 746.2426681649431,607.0263220943781 748.7144997849763,609.2794207702852 742.4044981461092,610.4530416360475 742.942025986519,614.977332842929 746.1219485087156,616.6519425902309 745.8794385285994,613.6947413987953 753.5324439525615,613.2568541882424 755.0254374370754,612.4675120770446 755.2805017455397,609.4991039165116 756.8573764077431,607.7465949961579 763.8066290600356,604.9655504093151 771.0258632025595,603.9739617831493 765.573637035662,594.2707925533382 765.3691315456218,580.1782875824492 762.5817168012617,572.4079178627748 761.2001156494472,569.9456536193279 756.3455167003025,570.0967285855543 755.6092757266821,567.7029138093342 756.2688437451385,564.3184385468865 759.5130402844212,564.122744984802 761.9623979841881,560.2784402747219 761.4123500739419,555.5925099179501 764.586978646188,555.3671317437802 764.482240970875,552.1431384359719 761.0152720462453,552.2609331892352 760.8724919311974,551.0599836616361 753.1022636490062,545.1999143791046 752.6544793876296,541.2466221450607 750.6368341269941,541.8547258098658 747.9947464778706,531.9985062732355 747.7098800608339,529.8415651356717 741.7027975328981,529.8126802875948 739.0565075544012,535.4071508339888 732.755918397738,533.2087134620249 727.6804141637583,533.3224258340413 727.983782385569,537.6651451247187 726.0305219899534,538.0057515990131 707.4397467387612,548.2760187443002 701.8723936770037,549.8074418175975 700.4738301223863,549.2468220110898 698.9437889404685,545.8593674448664 698.5995184472786,540.0165224985697 695.8410056395973,538.5871043020247 670.568906972264,515.2126668955605 665.451221562457,514.1399373058262 664.5791969905591,512.4338955834471 662.9743729610108,499.6576366921619 657.9681576253553,492.4993052729592 661.3000484701948,470.23467744304537 661.608772103434,465.15597666694794 660.8656502793516,461.98759234637396 661.6880169626139,446.45687099590407 661.3698965111556,442.8099331786044 655.4875255207435,434.6535995313827 646.6062578335011,432.83682072791976 641.419669409333,434.6860600011614 639.784821651925,428.93578478864345 638.5667670851574,422.9417811136924 637.0455864502869,418.7813580589501 635.5956181753883,417.262226078292 619.3212994759061,423.48417524613524 610.4861901547715,423.4311956419716 610.1147403762722,421.4400055670053 605.0917061530665,420.3240608411876 599.5311130421269,421.5260962987801 588.5714609164112,420.1705196439581 586.0741462795979,418.6735566790328 587.0783119680126,417.32531484008007 591.8829942176209,417.18220636230615 592.830322133623,408.2430217184851 592.1841693798157,403.1353496345205 590.69717934726,401.6581667372443 586.925789020822,390.37523102825196 583.4885740859066,391.7032690742908 580.6574282087229,388.5214613040242 579.7863450501511,385.0005516113465 577.5400801817503,383.782503386225 574.9817455086985,377.6259929788092 568.9443558126887,381.12094928190777 565.4246528069895,382.267684834648 565.2063506136823,379.19152377025125 563.6884006742282,376.95079855958625 563.4210256114666,361.5855337715532 542.3220385892582,362.055079304752 528.3775272921528,362.19998716385805 528.7439133068737,365.4245662952902 527.9577890108328,365.85021840505544 514.0342525345573,364.8599217107113 509.8212063831808,365.6713196867289 508.93896402746,368.12922961093307 510.7309684046136,377.2901674261834 509.2602467531008,379.39303832559733 503.69586681612884,380.0500588420948 497.8051608606703,378.6439850230216 495.6617639724539,375.27195289100166 493.79757503483245,365.9795505615539 485.4205693077227,365.9601067381401 483.95207214272693,360.504048530369 484.1628654548078,351.62689220891525 484.5271318898767,349.599331538667 487.7678487096253,349.45044783242224 487.9557783408849,333.67108669999686 476.24615937832704,333.7107529823887 476.1238641848099,335.9470622348339 473.37781328789765,335.56640311281126 471.97361048898574,332.759939823874 467.1617322089162,330.9026804653671 457.33499486140107,329.96545822593873 453.6025479774241,331.39860218895035 450.64543409195323,341.89374258611076 448.6813034066883,345.64627721939837 446.61869789721675,348.04314719813226 438.51001336619566,353.2596024007854 431.5734887211879,354.463572611098 424.0518478518481,350.6617370152842 422.04134191274,347.71581310322586 417.33148644013625,345.27163898993865 412.440295480823,344.0164082928276 408.0620055223623,346.0637099471543 404.2655316101366,349.3943643350199 400.13934097607114,343.63705067703347 398.8914217227279,340.14385167608657 404.7802789534622,331.11155274789337 401.43619896100114,329.2119586176391 400.0277854523164,325.39612924372807 396.6241720850137,324.670555971363 393.4210784448594,325.89841499564614 392.1977917283243,324.75045981409426 387.6764308234472,323.9457594812882 386.4753986959078,325.122334046995 383.65229900560195,325.45377152272727 375.72895937425113,323.9124105617402 366.41754626069326,313.2211912284031 365.8596384763216,312.11148850727125 368.07271235414623,305.46119425477434 374.63779760979435,304.10339927670884 376.60023107774026,302.77029525124635 378.9972458035812,286.01260506220217 376.2228318903977,283.84563892903304 371.368135648322,283.5372278840158 368.20202083369816,281.93026141755786 366.50161684751623,278.4273380079818 369.61865605776563,264.735866069281 375.5610091744456,259.8967828372539 378.8376730825689,248.85275612652345 379.0651180933884,245.31283713493588 378.5059148710241,240.43125485456017 371.37667230647287,233.8002198060966 371.18338895138265,231.03278850527352 389.09308916736984,206.63953573125673 396.2879195680371,191.80110393563155 397.1638908258906,188.68587118964217 388.9732128798524,172.34122320353765 388.6746227920849,162.2208646206177 390.7914269376403,152.50163678051945 388.84848287151175,148.22336034426633 389.57435201940024,137.44266052605178 378.14719650248776,130.76078614497976 378.21547417096843,122.45977271390393 381.1834571807855,110.31104939957163 379.073155294107,107.21730949753385 370.00920961519273,105.43792422304819 370.46223596716226,94.67533273262632 369.41226321855333,93.3327799717149 369.221856673739,90.04835506670486 369.8521559584554,84.55712579658075 372.98532851046997,73.39745476873838 375.67157353519997,74.4409379083553 387.35107427166673,70.52815875726162 387.4666527831926,74.30196799936459 394.333961537194,73.97874707937888 396.23317565823106,73.13642926677244 402.2092365602426,57.325692850458154 403.6287285868911,57.29652838728805 405.27203660164025,53.28310210156167 406.32947224611695,52.38529299954291 409.96833066570196,52.962262570035705 410.7699456351866,50.75766965335049 409.77213892432616,47.896756492278996 405.0579062996652,45.469372599441385 402.92444169714554,45.70629536328636 402.2375970369739,48.296694834717414 399.0426780111587,48.17961582673206 399.68796976135167,41.2845141668505 395.7747642125181,40.34758279252253 392.1578281710648,37.80599251023955 391.86060634671446,23.70585535866644 389.3283217741833,24.600562403196818 383.23530644137145,25.682205464431945 379.47814090742907,24.100240315866245 370.48845765066244,23.93679096551216 370.0726708132854,19.1830083790569 362.1572021258634,16.300577572172415 358.6042818642369,16.11941573834747 358.57606704765857,18.104595600286757 354.95823066636024,17.77104739550316 354.78984669540165,24.135156876821725 350.47946247244033,24.251475370964272 348.4799740385918,34.49100332581065 349.511328623087,39.81361988735489 353.44488503687137,40.701431596495695 353.0167638113385,46.7033370903348 356.40029205921394,46.73654844199757 356.3235782609935,50.45403858202667 358.9493566362626,51.918341745277644 358.0360272043783,58.12523788963847 356.64314924767933,59.467528390046255 350.84600215407227,58.64652482984559 350.10320564098845,59.670446804479525 349.3533174738705,69.43834120496797 345.35785034691526,69.3238881917847 343.4141448594502,64.98704486985832 343.3156380839966,55.134590634730216 341.8756523475354,50.00287058983645 340.33692011180676,48.67000811818127 333.3871498748325,48.241143132623506 333.03389423049356,47.37220780359587 319.6019603646055,47.245289551339965 319.71069131633715,41.24786630514461 312.42243167674354,41.0781531613419 311.9338877322925,43.29668530712115 300.8254339391857,42.5508943746695 302.01005125881807,47.26036041244015 301.2914463100735,50.26604680024707 299.5600196204123,49.976674380056124 298.99051674136336,46.710161006692374 294.12703591776966,46.25675542894339 267.6920095380128,43.05361189262351 268.077091950553,39.70800919597252 262.98221103025156,39.61528474487943 256.6273087557864,34.05023717502513 265.56837855203185,21.31739410005173 266.63648532108584,15.851309551896065 264.9377838595937,11.01060668363641 259.2373126949875,4.874401556444695 255.59574685189625,2.1082482497588444 251.91135333208678,0.6423566608546025 246.87546395641309,0.0 243.57967434444612,0.8056148203127123 240.42483048942728,19.419330066217412 236.11498070409067,27.76542057933011 234.79571805208434,28.29143951825131 234.35500709108507,30.701802059298643 230.90305614770756,30.299937359909563 231.42450652903244,22.51569756330332 228.479338045144,19.052407516529797 224.3110116404079,18.29900946643545 224.79298948037203,14.054897126426908 223.16177699975293,9.783367152766687 221.9427003022937,9.95859603812437 221.0867417119732,13.00804444065352 216.2234791463803,14.904269397273424 210.52727188577896,14.068048194985067 209.5000066676641,20.10164573828945 208.06261230305387,22.03299726273258 204.2732120911689,19.10457450531692 189.48430364117667,18.50318160278573 183.90961980885538,19.556829073779227 183.46562943243998,20.266976631077796 184.74195936375597,25.158035624067793 183.16004611333545,27.060780228500107 175.52581616339066,29.78104853943148 174.37498233083713,30.73925625868867 172.62697270268993,35.933151665330115 172.72209279065123,39.68647956698794 173.9327355768464,42.28924082587912 172.87477069409857,50.90955209517256 172.16239116872404,68.35995739924067 170.61658805954895,68.94786526563792 165.3855283165981,68.14258692666749 164.0474901135499,68.85101882611309 162.70938912882275,82.01838759426937 155.0367546245755,81.28827112490035 153.8454413102283,81.63678644465153 153.3516263678653,87.39817608662884 150.3371510261936,87.5570616027843 149.539326561963,86.54259246409447 150.13673540008708,81.39161540661325 140.69392940706305,80.78569870749095 141.02425091060232,75.1914452251907 136.74974499062517,74.08068694254212 135.0279744861538,77.48216903974071 134.4875510212188,81.24952322545414 119.31865770351382,80.25205366693206 107.84048246183941,78.53241836308143 104.24401258417245,77.75477520944833 102.21451631584844,76.16318604060075 102.75863679148938,70.58584693803448 100.44902691294143,66.68914898012167 96.65226141685636,62.4963151254459 93.38248607777808,61.926164819644214 85.38087198553316,65.26113874908174 82.79949508005609,68.48283859211085 76.55170075459743,69.21089699318065 71.52560423066289,67.0744628069649 68.87785723276804,63.36626072360207 60.71009423047872,62.69272237395569 58.4901021585545,64.42320905681174 57.87483916597502,70.84645179817187 51.79189869125004,70.5513215133667 51.33538821407508,75.17195584890533 49.51516717420667,76.67079140904559 45.71399811248663,83.48858447808323 40.62622826259027,84.19188900389929 38.019877161463455,82.81555056784475 27.22989489502944,91.96053506807925 15.767838622989071,102.07379191467783 1.7639803759117547,114.10631304464141 1.2315349002085365,121.37457158256518 0.6444656983584638,135.9149136916542 0.24112940538249536,138.94644015522488 0.0,150.62024137693925 1.6968154752825753,150.64158706905346 1.6809218224192641,155.23534741853416 10.526339562263495,154.78938953196484 10.689051314361837,160.8370649636513 24.537824664098657,161.14471360580785 24.540247121025068,163.3967940607222 30.065680342383047,164.37579534515396 47.30943790482838,164.84598935665383 49.42306739880569,153.83928293475014 55.451002605660854,153.8803590962949 59.150855549965286,159.3940503621592 64.18694456094909,161.11359324799093 64.33358737833846,167.90471630847082 65.7118984890779,176.3129940514333 66.9595127042711,179.79384310225998 70.14983314404476,186.27360112339738 72.07121048461974,191.01649308834578 76.53060053980032,194.58126735090832 83.01862051087777,206.57320600189394 87.1347927729449,217.57100010877707 78.92727705794414,217.52974368189768 74.5092443405224,227.0350113743292 69.07897418865035,235.99831047711302 73.12267701036184,237.63631350405228 83.32483846428254,250.80731315691742 81.21277261864043,256.0729821440873 75.04927315592015,256.32992518565436 74.85552907593902,269.05134608314927 79.58072464249435,276.11917373766437 78.64134817854989,278.6958505207597 78.04843956646762,285.9115567085895 78.73909132316425,303.0441242149667 82.83593119418829,314.9868497714707 52.875216174873756,316.62688140234684 50.322352899353675,318.38594699387215 49.06191841358958,327.7079909500203 50.48363664125221,334.8286005548425 63.04824882407884,338.4616170940634 63.51593235666346,340.60552860955795 57.40494572327877,344.00116564441464 57.324842084462425,347.58110199571854 59.6601592962093,349.82161706504144 73.28484408288378,351.1429327505939 66.85475282772069,367.53440628239696 58.90857601564641,390.2487835574942 54.46091006895949,411.422991402154 65.18941063056319,416.49070930173264 73.6732248940926,421.3623669470496 84.0153708400819,428.650740952595 101.21221042027614,456.0205066893627 104.33898869006558,469.8509782048701 105.59027091709824,480.33697857337575 107.55870542308143,508.886802112072 106.3451366492669,526.4654205157701 100.93008879320865,539.2148751385794 93.1115312362795,552.8843775928553 85.26721866801083,569.8749424402233 83.86841396033795,581.2960136103106 79.87327858550715,581.0331430691044 79.35804736295242,590.9476046221089 73.07265844069859,589.4604201608429 76.52852674526065,594.1233508388498 72.09882320870881,594.3996031479642 71.58602718576267,598.6163179102793 68.14649003316839,596.9522891005206 72.5295100316322,603.7362672693894 85.57999067769504,611.8596668335322 86.5530688713227,626.039219287559 91.76238772641544,635.5536346165197 97.79417882624493,655.1777637071673 99.5862557264646,662.6128940818237 94.31913540377636,677.0651610459091 110.69710860948271,685.650686742151 119.72114559739899,682.1332552144056 131.07553047649714,685.1704228356293 141.03725982262216,685.8126286024595 177.99479738154366,689.746072638907 182.87499735216466,712.6565320696945 182.2058788960057,725.9453633684703 181.16807812432057,728.6322848961861 176.0664529757947,727.9919324478327 169.7897792976939,728.550506843745 168.2322568479435,731.7992679714591 165.813053032757,730.3628235183701 163.59259627091177,726.8282405867126 156.15492181326363,727.9997081195138 147.00049293156295,744.3719692584318 147.31284481849744,747.5252880902993 150.1418962370259,747.9102715658843 152.0038079810001,751.1154956835121 151.5912361306775,756.9413296476014 148.2028864058318,755.7261904709499 147.56261849263154,753.5192893631047 146.50630217517624,755.7060536146096 146.71581902276674,764.8412837209903 150.66764704948767,767.0173190539716 154.34082587119363,777.2333979202028 155.13994601755678,782.1751021443348 152.02112082755596,782.746258592885 149.73656397021423,781.1824849237961 146.11151185943268,782.1407751908912 137.94757230772328,788.5098228681234 136.40463124779274,791.3490212945619 135.85432534289424,799.641123197049 138.60963538515628,803.8552280996496 140.7575210024434,805.9094952898713 145.406780719434,813.7475243025343 145.78123333586993,821.0322977577064 147.53247586466432,829.4163392297671 141.953840747751,834.2239478283557 141.1492559438001,837.6139596605697 125.52489403000673,827.8419383540999 117.87411149638305,824.8350093343722 117.95038439316048,822.3366101079096 108.6854412655944,807.056890117957 105.53709896766385,803.9662537144789 94.86738608350862,797.2301045092426 80.17567180951396,785.3239079119613 73.77279999305628,783.6911649483889 74.339293726581,787.4231507483306 73.44734790975328,793.166039044282 70.7659017032598,793.7255482358511 62.70619067450912,792.1640683851116 57.30164417359853,790.1575881062017 56.03392391985302,794.7386049792874 43.25027562613772,787.9565821183944 36.141413139798516,788.0038896935777 27.53824643935925,789.0283553764235 26.12270948365346,790.8429300235961 26.345305567376467,793.8941843401635 33.34556737851902,801.0390913036933 32.969006067014426,806.5046458795055 40.604297506452085,822.8513616107045 41.42051675245237,827.2534776996434 40.88173756563118,830.1378766886558 42.18384731667802,835.6063761326113 44.862795213148765,840.722069823667 48.25617485016654,841.3353256213911 50.947072527161566,844.590990754195 50.83275295080224,847.1792379716658 47.43738154030484,847.7636766839639 48.03492200471418,850.2684838428927 50.76124459549481,850.4641061568252 52.62213228150987,852.8339594541678 53.26111812040779,855.8610485519528 42.169929873427,858.6580082111242 23.995373197437576,861.7162008386769 14.336220767997533,863.524558734664 9.752337849387557,869.3141428904082 9.661407275933284,873.7242398981274 10.646753059839465,875.2218230096775 18.64126785308411,877.266683073702 20.059092730770015,876.2803371818146 22.14954514829568,876.9486107223306 21.084698086142524,884.7115851239904 18.14779000085417,885.725100869834 21.411769322175385,887.6011355500336 24.47883979422654,888.3224735584034 33.17259191899811,896.3421336332793 36.244881496379186,910.6000011545416 35.719527208273654,925.2815956154077 43.82843249866841,924.6644930056082 43.70637349960299,940.445135971277 46.36123031914562,945.4429765855841 50.164645048186486,957.1116694328882 45.92030282742799,961.887305676082 45.733297939163336,965.5851739158122 38.031968772022715,967.3095124682271 38.06530589491486,972.5289323895779 33.77320801441056,978.9924868556438 31.46879345665777,979.7706421075972 25.73191316890986,978.0012631115454 24.391536559499112,980.7379799323396 45.21641868741318,989.2994325852759 59.814102072353556,990.5613861409861 57.171549387980136,995.686024373063 55.1126741235907,1010.434808727545 55.35436010006689,1013.6745395673711 66.94741042747324,1023.1409632318531 70.96418037145015,1024.0 73.34888109650929,1018.2737723777354 79.14265411202064,1013.3675631378728 84.70261138339576,1010.8606113269707 87.37839378630551,1007.677636733884 87.72824833105548,1004.1095498722727 89.12026079436778,1001.6681363133471 92.89293242152509,1003.4401794907643 97.999650098363,1001.3520033482812 98.73703192719069,997.581667299841 98.36603592160581,990.3612666111842 88.32916693443633,988.2618745531857 89.12108232909092,986.180115960252 92.91341834861595,985.7412821563132 96.20272457916668,984.1658528572924 116.37502333569476,963.3854705466437 127.05467785946846,965.8696881043809 129.14978186681515,967.8774239011036" /><circle cx="192.59921825689622" cy="147.58825406043957" fill="rgb(100%,100%,100%)" r="16" stroke="grey" stroke-width="8" /></svg>