<?xml version="1.0" encoding="utf-8" ?>
<svg baseProfile="full" height="1024" version="1.1" width="1024" xmlns="http://www.w3.org/2000/svg" xmlns:ev="http://www.w3.org/2001/xml-events" xmlns:xlink="http://www.w3.org/1999/xlink"><defs /><polygon fill="black" points="1024.0,70.40706173526667 1023.7276514542748,70.32888353218982 986.8835993099859,38.45910458796959 1020.5552177838349,2.606377412130655 1018.0573987053588,0.0 983.9195683752366,35.8994966805717 907.9442823267434,35.83405162160841 883.1479916770251,33.65164693920815 836.108107317543,45.63776021950787 803.0677171024479,91.52779202304225 802.4696563955861,93.81934530576427 803.1959968122178,133.5557257080652 799.6783477027553,140.6241680434548 793.2068355246588,143.09560288272087 777.5833115013428,140.07349058307875 774.442238821145,135.85765468320812 772.1237168430422,134.88770691003424 762.9229861198983,134.78973652523587 753.6716291191157,131.27281078290298 740.304823050717,128.6467333154801 729.8230288804427,129.81117863217537 727.1212516559082,138.22708582092548 672.7239101362612,141.42436082313952 643.180573991847,141.0681970987789 630.6277924838502,140.04951825547914 629.9778109722488,135.00114969501396 623.2141988337446,133.38390022693238 621.7152701115832,120.53198944856194 620.224921119679,120.27157295223037 610.3490107676829,120.01923880942377 609.5957445648886,115.15078427660774 608.4420109842916,89.13051905552197 602.1710938378121,89.07077514086097 582.668140842693,90.32557506441549 575.7213202185051,90.27082762091607 514.1400388372698,93.43374095642412 513.5066583864841,98.99543342761069 507.9672815946202,99.26355230829847 508.46388130358383,95.33187182665392 476.6689020423295,97.65465072397217 465.46789848811466,96.41962139591453 455.82036117070237,91.5279261305185 453.1782980289908,97.43191692849337 452.2001302790582,102.40118373651819 448.6511650741056,106.89574300966524 447.3759696669117,110.12785548612976 448.0264713968047,113.6496142619269 447.6942448553723,121.6795233327249 448.3551597350868,141.45594765452256 443.549505830102,152.38673657224092 443.52258473016633,157.83939231527302 444.1568587494873,171.67098884243615 430.6760908798165,187.2619765492458 422.95758852031133,195.29504909340938 418.46733993919366,199.1451967055541 413.63015498331015,201.40394998140232 407.5422662032917,211.02085378015897 405.9345677303195,217.77951640568415 396.9530138876046,224.3521225590822 394.04487918242086,228.52114165765965 391.81189443371386,233.35317415322788 390.85485421559576,237.52858919192067 389.5614287658193,244.9140068528227 384.11744101462716,252.6293035127536 381.5366753641299,257.11557612830256 374.1605137441694,262.4121944280996 367.7285593434239,266.2409854356341 363.8736416914708,270.7432596420857 362.93506842672605,273.64291069853687 361.9531317594467,287.7881156866056 360.0230768350174,292.5783201266614 351.32107984565596,304.02726690859345 333.0452490775382,306.11678388518 330.3683041016284,305.92541794990586 328.78187828867686,312.53963231156797 328.75923908482565,345.3864833956419 307.5783084221722,346.90396758781174 245.5662002013245,344.39386670147167 241.37154495164998,348.91861967317675 233.94054169623806,353.5438908879577 232.09746421744745,355.37510380917536 229.60966672977108,357.19291791814453 228.8200777947763,359.0328569314638 228.9179771468618,363.27472487695 173.1249956459293,354.18160660984563 145.7825415772033,350.876845582039 131.96116176448245,351.7912276006165 123.24174015590856,353.5911944579374 114.21592918912386,353.2943383211805 107.31418790225248,350.6037181937976 84.4253332411474,352.31587241068087 81.35185904097298,351.7371208000975 83.52518156910826,365.9616783507789 73.45574332005765,371.9457173647123 77.11588362848676,387.8129460949443 76.66187771191564,404.24004048626375 73.9216266124903,419.41543849913177 74.82397093464783,425.5790236082505 94.4715589516509,423.95655959118494 95.62509903365746,434.67916510257623 96.29378754460188,442.0795901477611 102.2370246082624,444.1293328715692 103.19261732333679,447.3410533932274 106.42756984184743,449.7571631498098 107.64723518855203,463.7477760016836 107.71548234714554,465.6141585817244 110.7785739216931,466.9886035465339 111.48052172107836,470.18647092175667 108.50541382638308,470.7951973746987 108.80862311116836,513.1848848497682 109.06855722145538,517.9187602568268 95.26645691683815,517.6838198583921 93.16330938206993,527.3146989516733 92.57023177120989,533.3188443432696 94.6661100404503,538.4415737956791 101.39015438414648,564.6590254070677 98.95288895685367,626.8787998290976 98.65376772633867,675.8495496695515 98.33087396363787,698.7425825874158 97.6985043367544,731.7405553665717 91.7994939267469,735.83698763148 71.17931226801,743.8355290735567 67.302855466965,743.5989401778586 60.80757932827548,744.1748571943529 58.65314666061093,742.8021944548912 57.38909436364762,739.8852670061221 56.35592576002546,733.0558315946096 55.23778006818922,731.5479316601984 53.52022774019606,731.21222420395 48.814052156027245,730.9185538963218 43.07837526959719,730.9439874756248 38.139019517142025,730.1289668833424 31.76029035831262,728.2145145947973 26.76705189450054,727.5263306972547 27.99036039547485,753.0344920575283 8.064038290091084,768.935930557343 7.222556007500778,793.7340218212601 0.0,845.1092045781412 51.357784832632724,846.6949104931557 83.36769263845163,861.3695409908189 131.1930964284223,895.9238768783722 165.4266748780158,904.5377578128333 227.6593238058809,839.9181040954912 293.1352969820664,763.9044821348116 331.10447381867726,730.2306533781017 381.20672100567276,703.359655464282 414.7432148213474,689.0948987434034 434.85481498015264,679.3311568219676 461.8549377235005,664.8912124911574 493.34189394287523,653.9464382552428 512.9240804559898,649.7086717042824 534.3186640009002,646.0214063344033 551.1250613755686,646.7890698504938 561.993221198195,649.3282224949468 576.1907356709689,656.4187668488074 667.146844157618,716.5917151503675 681.0585222523805,727.7518557050255 698.1212414193212,739.758776859617 718.2295466249595,768.543825280072 721.7365125529813,772.5557322413755 723.669185961407,775.4897311508146 725.5851337987377,777.538777910677 725.8468194983459,778.3970529593556 728.0566902376886,781.6843067148852 737.8750869569117,795.5039452261017 738.7553034876202,796.2152912889948 747.2667922171112,801.8831891415057 749.739644906238,803.8120937018948 753.5262762997587,811.0821811542891 759.0193050707524,824.2065966970956 755.8725896094758,825.9254267812289 751.1580482584145,827.4374035689792 748.1986684402576,828.8468980069105 749.074185387648,830.7082024322364 763.9672854346607,859.5514564305545 767.557720585603,866.3341007950679 777.0670966374287,878.8759295668318 788.2386924431815,890.7032458336479 801.9850182559686,870.9588405948692 811.8177636013332,848.9716210805697 816.155255218101,834.7487239659287 846.9111923923299,772.0241597818072 852.423114315009,751.950612516207 853.9475603311561,748.0191516599091 854.3342069237212,744.9934978983449 857.8828242948648,727.6321705486303 855.8995395010519,702.3377382657791 854.3344062392014,694.847172676324 853.5388233448629,688.1660121433341 859.469845391301,686.2105525025248 864.1700707230569,673.1886053372344 868.4945432182687,658.1754408033528 878.083374267419,635.781847567061 888.2881217176177,625.0042066384565 894.2190203497587,601.3318142252599 898.8545591384625,600.6353644150022 916.1609170460509,595.137870847655 936.5212371745706,582.4177330967543 940.230720347785,575.5267075919209 940.2753910763122,572.2867005472283 928.3547041374422,574.2521705047145 925.3083929836582,573.5301924001312 924.5245057436578,570.9119213471514 932.9990935256646,540.6878679517031 939.7479797488096,517.2469192529516 940.2257292432236,516.4363697752311 942.066993768148,509.89901986982636 946.711234061021,494.43266129547317 947.0142158158809,493.76635833875986 943.8411609162933,491.9509861535527 942.5036459454225,490.62184847571365 943.7793022844788,486.2161562839107 945.5237711461585,482.9343823849506 944.8567734068068,480.63206192744104 945.2995150270253,478.6104371076378 943.8189503901431,476.0012323068511 944.489041644911,473.6149127608857 944.1464743534683,471.2518752708985 944.6016676907365,469.0465070692733 944.301461283691,467.35453115297844 947.0059734196161,462.8125467010692 947.2408312889785,461.1814932259456 946.8818184858649,458.5714586720804 946.1665134904908,456.8993709781521 945.9570410222352,452.2264139304297 945.3917396760451,450.76125838795264 943.1207018860118,449.64505248108054 942.8898935668125,448.6803807847308 941.9295102502007,439.17797252616566 942.4463067357729,436.10276424084213 944.7824979182402,436.2258055074297 946.9470246139243,435.4129052284606 951.6636669498452,433.01946470519516 952.4187420965386,431.7983193900944 955.5846671081806,429.59530215334786 957.3366037276912,429.48202762368834 958.9730855188509,428.2380502219329 961.8869069030465,427.332860862869 962.6138572627628,426.70960502881934 962.964442288784,424.73324649765846 961.4546444108896,423.54618147886805 961.4631043300416,421.48364757448064 962.862045830802,419.0327835373769 963.8852541757987,418.07602153760627 965.311874421255,415.19483435603127 968.2465918554733,412.74868830253934 970.0439591949455,410.7548791072064 973.6529226500448,407.8965152211588 975.0862450036396,405.96287586150856 976.5901600338178,405.3967528811405 977.0978123270335,404.5492937317796 976.9270125853608,402.23521538462825 977.3766006734684,378.9050388136459 977.4922086702679,369.7154888095321 976.2925980291561,360.6639397437699 979.0841293881741,299.816498942972 979.8301617385981,299.21441601808806 981.1577055305625,295.38893066984804 980.217383298183,256.09004200257993 981.2386836004612,251.7318989884783 981.2891037184689,250.21934582631332 986.316567878944,240.2773397545925 992.4772598316229,226.43719753333698 1000.7608418283181,208.77747280320887 1000.6700306228015,202.03882573596343 998.821918023983,193.91203559587143 996.7459908403259,183.74738557190608 996.586329964735,178.43954343660744 995.7549369904019,173.5532438728817 995.0206748385784,164.30545408619707 996.0247030954977,160.29622346320423 999.5611824242995,148.45956163493577 1002.6106825870789,137.43105522703672 1004.315942201611,130.80293028975052 1007.2831789598306,120.54616950293041 1008.644662506916,114.70023578430437 1024.0,70.40706173526667" /><circle cx="286.25827836053384" cy="593.541051763082" fill="rgb(100%,100%,100%)" r="16" stroke="grey" stroke-width="8" /></svg>