<?xml version="1.0" encoding="utf-8" ?>
<svg baseProfile="full" height="1024" version="1.1" width="1024" xmlns="http://www.w3.org/2000/svg" xmlns:ev="http://www.w3.org/2001/xml-events" xmlns:xlink="http://www.w3.org/1999/xlink"><defs /><polygon fill="black" points="905.3288746090197,495.81038620133364 912.4204772230237,479.2068563655354 917.2422922770178,470.7084835158124 926.52324058128,448.5684499156041 927.1422458400482,442.824054209667 929.8281235521918,435.6698181085053 931.4458191370396,433.63323017567467 936.2895848174082,422.99730026370094 941.5747963652706,412.7932439573881 949.036369736167,398.75237974494655 954.3402563945058,387.68440272119363 966.1022024272065,373.2672376601835 973.910630050157,366.94660330043297 982.5623562422874,361.47899234306715 983.183343340058,360.9167190568706 987.8307154058458,361.56078433558116 987.9151697328891,363.1394355751964 997.1619993821624,362.1686331534132 999.7199810716278,360.35500723453345 1000.8359303631394,356.0741206840065 1003.8794408186811,340.56448933998433 1004.5735774648045,339.93850618299507 1007.4554308256052,340.3377467449254 1007.763493770627,337.9348367640942 1006.6732176957332,337.4887081328744 1006.6879597616731,334.80356507866657 1011.3913175026528,329.87345149113924 1017.0149706102703,325.53838009524264 1021.9073379346627,325.83965539563576 1023.8163657884597,323.5232825938731 1024.0,315.7144820874863 1021.2706482321059,310.4663673549857 1019.1563154448964,308.97001123623915 1011.7793416538319,307.72767585728815 1009.1915686559678,306.2885435744463 1006.88075872556,303.6332089870331 995.9486474749569,298.02037924348775 988.929975062672,296.45850083839434 988.1897457575521,296.00977204448793 977.9495169070975,292.0398819858683 965.5699108666792,288.44527421175434 953.1691308143633,285.29410627136895 942.540468976099,280.8572101937779 932.4056138862168,269.15507422520864 925.4706673456151,245.0689437491779 921.3923213951168,230.00829424666244 923.2503109212835,219.33199322867102 925.7938994268075,213.59567956465474 931.1459807602114,213.81489650644062 933.1193862900543,210.21652571549373 933.82415244826,205.60011750955152 934.4804795726317,206.85310293291172 939.6265179946859,207.06114131153896 940.5628115977762,201.436961263552 949.8115608711033,193.54834045642485 952.0392983070227,190.487361068802 954.3059848801934,192.29362510582274 956.1461054276645,191.91022501495434 957.2332651200744,185.13776267803007 959.6172292154739,185.2038910453726 961.6668576129,191.56595169050223 961.7447951659171,185.19614921686514 963.646822355227,184.42709722607748 966.1024136003532,185.259843640564 965.8078974640969,190.81622371983968 968.3445857069725,190.92721049063732 969.4980322849192,189.65287618255223 969.3120448677857,179.1283168260568 977.9179910309755,179.48801312854727 978.9895844012599,173.70251980103393 982.8621337233601,166.4672275479889 984.4073219388678,157.39838111871222 984.1785643154216,153.44838614651434 982.2917834244521,152.0374238760911 977.9169647390129,150.62905493765663 964.3671876114296,148.30366250160733 961.2998967907307,149.25258417424584 957.945558266111,150.6299090861629 954.1140420721792,150.93087057740638 954.2368389654202,146.92424908168357 955.3207679117885,137.8120632954653 951.9755081783669,136.78810041237273 942.8129327803241,136.9940729221347 927.2815534865971,139.43588450702146 923.2988859764077,141.21335399831946 917.91239423822,144.47329883118186 911.9808188283346,144.8930713697602 908.060144329949,146.27710418963233 906.1829786651882,148.8657999354179 899.8589707257942,149.7911562174193 887.3208644384102,149.6913124084134 881.7357916972524,145.02415773708975 875.7121988263284,142.65703426990478 872.0755632965981,141.42718870285358 871.5212704897003,144.94762094696745 866.2091793088957,145.63782934909256 841.4704461777352,141.56827431051505 840.7550302320788,145.34064666888258 839.9684579828212,143.57686251677137 839.6166975141255,141.28396322220647 838.464008476435,142.15332595758258 837.8844989158997,145.8058163833045 833.5787608997222,145.78993478813368 829.8763291816005,144.2879232093992 826.7851705072121,146.10118460199487 825.097074790134,147.34537303367438 824.9665737323237,149.57885729662877 822.9083834500159,152.00654660094733 818.0673754417797,153.938081456006 816.0063791848135,157.19978134306916 813.2463767681476,165.5565091757387 809.2599812380231,166.253488236706 804.052268464211,164.53143831702403 798.33163915567,173.20038330528985 796.0814094138733,175.07088260550836 793.8444862535374,175.7072649157035 792.0556951603245,177.23272131212764 789.2661504273881,182.7603174765439 789.4743563154318,183.80203465928224 790.6768688124866,184.22864520433757 790.9031520144408,181.10741217307225 791.5105318489111,181.11794182062852 791.3892590556637,184.501945498934 791.9079305500902,180.82737270513246 792.1576325249848,180.75732210751414 791.692790281223,184.7101391037009 791.8118897349402,185.62229909794422 792.5170537373241,185.38105181301216 792.8960346078641,183.5357204208156 793.1213384836706,179.66257599640733 793.8205176376894,179.70171948907318 793.6669645766013,181.99818505175904 793.1076537267234,185.6305336305319 793.3606072024987,185.77565811519594 793.1060265477219,188.78391712790182 795.2513512823651,189.69375702183373 795.7708967570311,186.37643937399997 796.5927432134721,187.58966531161343 797.0493032485472,194.8063870516511 794.9122998672478,194.7047963724002 794.4828154171411,193.10920415240793 792.387277995197,192.23434513368653 787.1649794298644,192.1516534026964 768.0928407018686,196.28912134417033 761.1867074831205,196.45785020120678 757.4660823574676,194.8805544488642 754.6668957950781,191.1301621328543 754.7267047396305,182.0004894240035 752.0658744101762,180.72826951132487 751.3227698357929,180.1004329795985 751.2226808488006,179.21304481859812 752.1173917540028,173.47249625122168 752.0130423019239,173.13302145844887 748.11324742745,173.24893956320295 747.5535580010237,177.24030114014283 747.0151892473536,176.60672095873866 748.4672270189089,166.96827997370224 749.967690726598,165.0764832680283 750.6296198398306,162.99941753613848 749.0312457381355,158.20562245901738 744.1148358038746,153.73399730079365 738.6206498735278,150.8271023806924 737.2332049576829,151.5715211123861 730.8287737391039,148.88103434769607 729.9856404559531,148.15309910944558 729.9306714065982,145.98939808773957 727.9267240997093,144.8017407007806 720.5104959257544,145.75505180842322 721.3114311082926,149.19590919777977 718.8888288021996,149.41083262142183 713.1024852694908,142.16676180262021 714.3228646431796,139.6055816581403 716.6697290600501,137.6099024743014 715.5877466430171,135.8429052018178 713.441609867013,133.85435237378323 713.0526560470487,132.62238894148243 711.6372679721065,131.37376685562418 707.8396276312179,133.09424327762616 702.8652367300001,132.30984596698386 698.8022254369058,130.50826553592344 687.2952824526766,130.25587607348376 683.4959264025301,137.26350679483267 681.2706433497644,149.0857406109207 679.7460652039355,151.44569462441564 675.7827284805551,153.89219403387614 675.6653508208653,161.55233169191763 673.3411695235991,162.68385599841383 672.9280381639884,164.24747213977082 670.7672433473275,163.17626893636395 668.5408257977297,165.63844580679194 669.6931671408761,168.96586867775437 672.3132860881042,169.40623370747073 671.5301123135749,172.86571855386944 668.8835264358459,177.467439132991 669.3394137918774,188.60557001693326 664.3830985752074,186.71311884737764 655.046553977029,188.5363085467485 652.266245879245,189.77842008591432 653.1709076481011,191.30535375385546 651.4693315774747,195.17902788939244 649.9962799715619,195.31051051772891 643.7327443386181,192.6798485986282 639.4018834846069,191.98780969962166 639.5295934375355,193.31004878963518 638.2450678210631,191.80805325962717 636.9122754444977,190.91823624544168 634.8538760274528,190.56386534910956 632.7480447184126,190.52052619304692 634.1867980912359,189.7934529127008 633.3967385050529,187.85617079521887 631.668731165411,187.11247767721494 629.755190123915,184.551086063017 628.539741355026,176.47227610126453 629.6383272815024,172.823420700776 625.2032423772725,171.8212376976429 621.0358710652853,173.43761111690236 609.0163530655619,171.87791310184326 607.9927025920532,157.7192773270554 604.8788568359828,149.51795641274452 607.3324915291266,146.7057795461074 607.0044913967496,145.56681632771102 603.8432385972228,147.95145001345588 601.276859489655,143.41475065912334 587.0776326118005,134.2910499148515 579.0318168922746,133.38425407198372 564.4261960303359,135.46648893582716 563.656109430952,136.20048427833854 550.5724198136654,138.23259417119579 540.0974090653013,135.64793235733498 534.1934331338996,133.17563249053023 526.62486988427,128.9328165992443 517.9806372401727,119.87374657114401 511.0086771185865,120.64541086610456 504.1838017920931,117.73762030403833 502.4114431037907,115.36160373361395 499.39292473331113,115.2713176023089 495.95002624125124,110.20589782694952 491.20147851214864,106.59190416719014 488.9041298730817,100.01214393326273 487.33312090404263,94.59808840264947 488.44406087078744,90.27323866361962 475.73541023875634,78.00000527060189 466.9555231212773,78.07923287607099 465.13469703688054,80.25268150274707 466.3572237294749,82.4075729350655 467.3660912000305,83.43758838188427 465.0513029213958,85.66035433414157 459.9772556462812,83.39388890189997 456.683918002806,79.31939491281537 451.1258353474356,78.88120195138902 446.17618295285484,83.69290765390593 445.9362822825994,91.22496042124834 439.2006584280515,97.68876523375678 436.18438567436664,101.37230087856346 434.12123165516044,104.45874544772829 432.0810865560036,106.70213447017323 429.76534895034274,119.5146114327161 429.64626119010535,128.50937958664423 427.73623565525344,142.1923376888521 425.42854465209155,155.01436051972007 422.66431683415755,168.68169955767308 413.1924248050498,173.2706348314572 406.857759545188,167.6094401080788 400.11487385133347,159.79765330897044 391.6653513231002,151.95958825008705 377.5876574047139,149.18369160149234 369.4037607956718,152.91723642941525 360.39020236819175,156.21229884691138 349.6579260409952,159.89164735517977 330.89191847647515,157.0315356212755 319.51248530023076,146.57753515647465 310.63417749337356,139.15725366812165 303.47794991212135,130.903194659387 295.0825637586579,120.49727255055461 291.8139964331256,108.88157988645708 288.54023110812585,99.83246004169916 282.27385344588953,87.73486466143828 271.7670800686974,75.58507827200788 263.70869048492455,71.17768844684883 251.42008269953578,61.568835197911255 237.87612551124764,51.097161312361436 227.69444516274567,44.95925793904155 209.0373935032593,31.42948365977503 195.99285280221073,24.540385828896035 194.62531049637477,20.608301948259736 194.03494557950327,16.442022061306034 195.07994891248032,12.221509854490932 193.03380239248457,7.61356170155284 191.204890467826,6.597162205434415 180.06317066583412,10.076416660825771 178.114062639877,9.617423929705978 175.6738415815715,9.792406014546486 175.2296307932069,10.212694739485642 173.57603652641717,10.518711825076593 172.97185251898156,11.429850168410894 170.69957301999287,11.14407708931003 169.78502573010266,10.472012029531129 168.98214221483693,8.895956888593219 166.44773133600924,7.11073717946681 165.5770280977135,4.408048111449375 159.84162654606172,3.136747434451877 155.34078903887732,0.5509461068269275 153.75425848528252,0.0 150.55500061107597,0.7888790421064868 145.38721245379378,4.416312367398518 144.07454089116908,6.938633426068122 131.4996030447989,10.82399538505399 124.4755022695102,12.339922443104228 104.27342367502926,15.942027495587695 95.13109382486546,14.539971483037448 89.73788208675518,22.95971228302392 82.28246324105992,34.464934849932774 69.6349569182029,39.49918803407377 57.16843766164705,39.805980971209465 53.500629363855076,40.072627562804996 36.35527808007883,55.20148942094181 28.021966886780195,63.45029474757064 20.42631087048256,72.68416998798551 13.088331281759709,93.69960937343404 9.176131756598382,106.98844420830858 4.898818331081404,117.17422952640203 2.6087051172926268,128.56350247118343 0.12195401758281585,143.82356251613436 0.0,147.28510811599858 19.91489582029993,158.52165954313625 31.559805522766858,158.51281558137282 42.74731750881417,160.2435643869133 57.416576544787176,160.24107318804982 64.97303970754933,161.36616816761392 76.21402936279377,167.92899788186247 89.42900517282791,176.20345701041333 99.23936684433085,181.87149557407008 108.6055583618244,187.95891858080705 114.97959133377445,194.01731640782464 124.30115038049792,203.53367579051394 134.08788614963854,210.05893702306628 144.3139721298524,215.74580586784793 157.5666838305912,219.74278795247704 172.90507370198998,227.19511398569097 183.57741218359277,231.19010715384866 185.8345906839627,231.4038035249872 188.14186524389456,232.997916181473 190.963677272429,233.6068666164814 200.44627342191586,235.11102179586504 204.09351478824442,232.97792330662588 210.57447866647553,230.67160344072056 226.49012290456224,225.7480273345663 238.94867392677648,222.4929572227636 252.66209153433377,220.5471732705359 272.3961958427052,216.11810944465316 280.15967759881426,211.53699159612808 302.92984319487806,202.87564392175238 319.21558001281693,198.415347192909 323.3759339880173,206.20267361962078 326.25365690181786,215.23680522134805 329.11681891568514,223.42105158014033 330.25795268471705,234.15244020516877 334.7404519157052,250.50222560887153 340.5566933809797,262.59604316313647 349.45623475273845,267.8684214128429 358.906281631362,265.0129590904372 368.40007506093565,257.87785656994197 397.1561369004371,249.72397163442753 404.7124438673162,260.5356506113311 406.70009413222067,271.713451976301 409.9308001223623,285.47544582337105 414.4510671182091,298.8147365764595 421.5597635878572,311.3350072813529 437.18737517003,326.96432077033705 442.63831201144257,336.0361173646613 451.89347683611675,348.5791906276883 460.77184213133836,358.11947446366287 471.41523233872977,362.94904557999087 482.09760060580516,366.07659888570606 494.546691973841,365.3722680379614 504.4096665676323,365.4742080832738 535.3894891914168,360.259635556311 545.6620060021158,362.94047829847733 557.1811400582156,368.1977111463659 569.1022695996181,376.0503048252472 588.697252572353,386.10821784656605 599.3076006532795,395.22705105084543 611.1668867790912,407.3555763555614 621.7023133805611,421.1858903867323 635.1849066424986,438.0686290519467 641.0630993329029,447.5583916747517 648.5902124601348,460.50479353217986 654.9321911479528,467.44404322891376 662.9776442604402,473.5579023269673 682.0813646794138,484.9551417471962 700.823671089708,490.7903492445147 712.330760417804,494.39866303136813 727.2382549852729,497.6167033830707 737.4248045160474,502.07021980062655 759.9320171715182,511.43387390931673 776.0288852452117,521.983676577048 792.1504267194781,527.8283322078507 810.0419087078102,530.2668901764616 824.5604878941567,529.663683512198 839.9594592628545,526.9105817417509 853.6447326831767,524.9978708846969 866.4958737617138,523.4924443907803 881.0573356499966,521.5736212362178 891.3564107546938,517.0284530746653 897.4350564187338,510.2610438625614 905.3288746090197,495.81038620133364" /><circle cx="816.4336686055234" cy="311.93398537240404" fill="rgb(100%,100%,100%)" r="16" stroke="grey" stroke-width="8" /></svg>