<?xml version="1.0" encoding="utf-8" ?>
<svg baseProfile="full" height="1024" version="1.1" width="1024" xmlns="http://www.w3.org/2000/svg" xmlns:ev="http://www.w3.org/2001/xml-events" xmlns:xlink="http://www.w3.org/1999/xlink"><defs /><polygon fill="black" points="458.98506706193484,373.89584084632736 375.1816035055581,363.64320476918397 374.8403363878639,365.7718180990064 380.1652371018435,368.53240087810207 384.4366804837157,373.05249019431005 390.22609963894604,376.56231741149327 383.84594646315816,381.8305057505463 383.7242217230491,383.5784314556979 381.85267477867933,384.4620557552114 376.11087998170143,384.5355967409 373.07622718078454,386.3598992474359 367.73713031682144,387.15445624890424 365.1734725587487,388.16304097453235 355.628699945239,388.73547969931656 352.60760596953486,380.743898418619 352.0640009820505,378.26857485115147 349.64546738669986,373.45111607545357 349.501096990498,371.31286077038806 350.53842805754255,368.3622921177574 349.879271454233,366.09667106397967 347.25710307440426,364.16170926563905 314.79399710165444,388.067188114794 319.82726734062203,390.7258515467406 320.7687203632786,393.6030727311056 318.1210569886593,399.1377497853921 313.4988095415003,403.31535839090964 309.32895498806755,404.4390598990917 306.9357825016957,406.5676297953733 302.463938182321,406.4486837556684 298.0432078265309,404.10198972661215 295.3732637879386,403.6393733554942 286.78847798595916,404.81715266976585 269.25163662423074,405.6237134404407 266.64805804096113,406.4635586041753 262.86065440690896,409.83923209555155 258.45094386805016,414.9355042901914 257.7818264500321,418.06782986263966 257.8303571545759,424.56101006303885 258.9716241082606,428.58199197838445 261.4758882865065,434.6094693937201 263.0770869515554,439.51860851499 262.8973975785391,445.78972076593493 260.2376243180301,451.62807900990816 257.11184349230047,454.7799653031266 248.44624088531552,469.3947882633532 243.7550028011543,474.1219335325064 241.75346524323976,476.8273408076507 237.7599933595353,485.35794044344175 235.1380894077483,497.0189954794288 232.01845477128026,501.3005368145163 229.11388165436503,503.337122437676 222.14397529185476,504.96365758371167 219.68684486324318,506.99985200708915 215.90070242653044,513.0766424095164 213.43373884460374,515.5536957075583 210.12097299695702,523.8709941412689 200.0273658204287,528.6684732037778 192.61980841359173,532.7644300878508 188.5871998748673,533.6947705656615 187.02368858346017,536.1704917844479 183.78236991372177,538.17254226377 182.21734854521264,540.7125804197453 175.0979807706536,544.9885121450276 169.42769258291713,546.9413773043689 166.52589342489685,551.2455735077244 163.9857145067612,556.7430217065607 156.60262057540623,562.4002903827984 154.35187805662903,563.0888162926085 149.87966928463808,566.0398938842218 144.73014790464518,568.7641419210904 139.1561563334413,574.8531308144065 136.9255754713075,578.0045522929909 130.6920886605407,585.4305934937777 129.35736041573043,589.0238949819279 128.49711624905436,595.742950391503 129.19733579058786,599.7646162155532 132.37937928540532,605.3356237830903 134.4132622916376,607.3355154503924 139.39728318067256,615.3513002143229 138.53621657628227,621.6320706038472 133.65440103193652,631.5079595770128 132.1063748697078,633.5360302562257 131.43509189810484,636.0047259341313 129.43861518890287,639.5962062237966 127.45011105589754,644.7604491890379 124.33853695908402,648.5866489313996 122.55358187111848,651.7313401881531 120.32226399540312,653.3048981696443 119.67314069100458,656.6759792899426 118.1275260964087,660.0383336473348 113.21968008589255,664.5446072275626 107.83872660108332,664.3511455919089 103.58564882966729,665.7153859602726 97.76586605826601,665.0796787209232 90.38280178582708,667.1236955166383 86.58306820872986,668.7084192660789 83.23938797980834,669.4025013515834 79.44444136503202,671.2076360007004 72.05877921122412,671.907700782755 66.04811009693557,676.8497492210969 62.937178725385756,679.9944176176323 56.48261586786093,684.7243057274807 54.713524384340346,686.9679688431149 50.94337141968842,693.2465084913439 47.41507787576603,701.5362698781095 43.909255333297345,712.5149658578613 41.5011258709995,721.7052668834847 37.7515408208264,729.3202542151296 36.87290244127411,731.7878068474583 32.43335412983291,739.1954038643319 31.124185442673312,743.6705297325532 22.93534381724425,758.475611158733 17.13245252178615,760.9658087148684 10.207308287170797,762.5553942272563 3.748109739299897,767.0648788554663 1.0860719317169891,771.7784354169694 0.0,778.4976404087568 1.1680886374309996,784.7508747737169 1.4108418863107413,789.0039178636016 3.530013654219822,797.9236074897278 11.749818023720414,800.7294006102358 18.745016805777876,804.4849659918658 19.347516227238316,807.2901065812921 17.630696851692843,814.017215138473 15.698239203939638,819.8453708930437 14.061338797225142,832.2627376798391 16.317677793003295,834.5522613337631 21.676658640808704,836.2910058266849 22.028010101360728,838.888568017956 19.605545432076646,846.1568865227097 22.51593489745194,848.3959386246684 27.345468624217887,846.849486045514 30.624207000794154,847.1603247966276 34.33237129746804,848.8713820422113 41.46351554224272,849.3933506339587 44.51489148737977,847.9093562693424 47.4849555343373,847.420235630623 54.88206669696848,851.2472788906908 59.779079569563976,851.7660388022535 68.6625477364524,851.4831982541225 69.69580061935368,845.5218613913046 72.78835483776317,842.0833901751166 75.15927576317779,838.5008052942135 74.8861093217303,833.0293554962514 76.47471858136669,829.7622111309574 75.80373712030304,827.2227040844075 72.3945114229255,824.9116182061331 72.30719462728729,821.3242030540732 74.58872796586051,819.0410480704581 77.02040559569532,817.8572585294365 82.19002862843794,816.4818447106823 87.73244430960213,811.3633842066669 93.69754479988968,811.9015895040413 97.2441462351804,811.0264406248895 102.94213069557864,811.1630772542435 109.93450190083536,812.3207182111548 114.13992243394591,811.1450745010688 118.77897036417632,814.2166197718498 120.53550857423933,807.5902866894053 121.95908121598313,804.3209724870594 125.578089573907,800.8563697686833 129.65705199589686,800.3597354235078 129.35831348177675,804.0113132379158 134.00738820456516,804.0414787714376 136.4061484880714,804.9286969933163 139.07304493678237,807.1751936689683 143.20426059814878,806.5861986727575 145.45925997682633,807.0192581727886 153.80161284623333,810.5226206387151 156.0688308583644,813.4242730608134 159.45023582295872,815.1787346034712 163.0796282166623,818.2733426932904 167.13442133011355,820.0321133349139 172.78382087959557,824.6774713401796 175.50996370953342,828.6759864693958 178.45290720187955,830.4492259709605 180.26966018432176,832.4383069629243 191.54719428396524,838.3751878458824 195.16717002355853,841.0268489862577 198.78455712183268,842.7841781974881 210.0361970160151,844.9198776354044 214.32265846226457,845.3258520307112 218.1615197050244,847.3071650814787 222.20450281190972,846.6021287788939 229.17805400885754,847.8875977627325 242.44261203186772,849.3476616607264 246.94082768744215,850.438201793822 250.75694923751308,850.4087719255197 264.0203636859807,854.1238794847177 272.54341587164805,854.9738734529092 282.17453381159635,854.9318416935834 286.2068004475801,855.3566592643936 291.1331252382814,854.8841414759337 295.393191868964,855.082349468326 303.4447371158705,854.3812981931065 307.90953592081627,853.4767587539131 312.83461634898487,854.1282841446247 316.86027648952455,853.2143369504494 329.81409856813576,851.6036028790155 333.6062988108149,848.9063953779452 338.07367190434286,847.7699675471964 341.85460414251634,843.947851698124 342.9526549528825,840.1424087272594 344.50428128330583,838.3448229344614 350.3064025460206,836.0787829398672 356.5750593824237,836.2820110584737 361.06644636520167,837.8258533596736 363.9896298020622,840.9465357099343 368.25424553212537,842.0438752766084 374.3263904081188,845.3751887175893 381.95680447287106,848.2449723483259 385.7847122204387,850.4581429171861 390.7166907771571,851.3266575557406 394.5322666043142,851.2993512463739 401.2637446907951,851.9306007253434 405.08266282373415,853.4702493528443 411.1388889072549,853.6558802895977 415.2019982695324,855.8628223693565 420.5888538307138,855.8246760725856 431.15418248034905,858.4257384063276 437.00580206196594,858.606036408712 452.75303111258177,862.5071108761455 463.993008081713,862.6351216242743 468.0390160047489,863.5030531098058 472.07492488999435,863.6972377797434 480.8655142588069,868.3183405164206 488.0948598509266,873.6425325059066 491.031117178897,876.971327656375 496.87381267653944,878.5026836155232 501.13839965820824,879.1420884798969 503.8384914781427,880.6876042209568 506.76308013666096,880.8995902368282 509.664836145656,879.985913636078 518.3423049647395,870.5346483427268 522.1320890116039,866.9341401633787 526.5620651967262,858.8641044473387 528.1066484145409,854.601976815053 528.9785832930511,850.3489268318071 530.5167377756663,845.8573295346678 533.5726747872059,833.5479400388899 535.0935514687376,826.153728299147 537.7394176477643,819.2023106618664 541.5031104764709,813.1433635636633 543.5178219511251,812.0227424600918 547.0826275544678,811.5620662392597 552.4590776573767,812.6668228760561 555.8266721021912,815.1128214133967 561.6614016712485,818.2224975204153 569.9436542702371,821.3323995292276 572.6256841220445,821.3257664817302 589.1962530401955,829.3478459439807 589.8985572062192,834.9322792334908 589.0442293794182,840.3005091206821 583.2569327064926,842.7764704563555 580.795255353685,843.007301096532 578.348534710113,844.3536848337336 575.9154373565284,847.4957790073263 577.48995822668,849.9520643149814 581.9823435008516,855.0874552687184 583.3369263274809,857.3198036819502 584.9406130458393,863.3616254170221 585.1833469714466,866.9417023638254 583.6368427890142,868.7348588922401 577.6296820467327,872.7744738234383 575.1710151529913,873.4482599302669 570.0642881396312,877.2616946368271 563.1717079894231,883.7774388735443 561.399558282134,886.2401558143605 561.2100781946327,891.3908037698475 561.9252114241873,898.0959543035582 566.2202511019084,907.7043673449242 568.4765771754999,910.3846948371789 578.3416381117721,916.8494437867413 584.374186481279,916.8373281231283 587.4861398708399,915.4819553241381 595.9678704707757,914.1213337745984 599.7571991531988,912.5441537823867 604.4379829001356,912.0873386771868 608.2204942598134,910.9614909908208 616.6880568664407,906.9160334919729 622.9433820976714,905.5479507548449 626.2860687529848,904.4159769055667 631.6535452988927,903.7273976798118 634.563115677231,905.0597036814253 645.5305944704138,907.482242100859 647.9932278994532,907.2406345730102 652.8964648704455,905.4278472308537 664.9812408662733,903.8069638740228 672.6331615400543,906.89040327969 674.1993338315698,907.9998786323806 680.94265460706,910.4153121693391 690.5972933365591,911.9210521380655 694.6497674767144,914.1233373340017 698.695464870249,914.547451594008 703.1958365062494,916.073231403442 709.2530636436304,916.4767944825146 714.1723995470645,912.6319896587823 716.3789194688065,907.0269966190691 719.4667061883051,898.0505421414462 722.806195000448,894.6733413682083 725.41025561018,896.8834160006745 729.2736474892473,897.929144926809 732.7433162868042,897.9098928770987 733.862193863045,896.5603002722952 733.5156908185166,892.6010207347204 735.6343000135411,892.139644174888 738.1473469704654,889.4985770245944 742.6299459945495,889.1973345422002 746.3164100022072,888.1655264058077 752.9720342817598,885.4580396953387 754.2989107465797,880.5893268724933 759.1513611853209,876.8250545056451 757.0024270938618,871.7472474650184 758.1581229072377,867.4393162152843 759.4956257710005,866.5439548087635 763.1437719991885,866.0095658543563 766.3232864468324,864.6026426369963 768.0460172347003,860.6344677730201 764.9417085418946,857.7012554628884 765.6961439120491,856.0705250052957 765.5861219701927,851.8860623244207 761.0989316445497,853.4881240831969 755.9458656807234,853.7446786945098 753.4630786988232,853.3168708998716 750.5193892054856,849.0961430309549 748.9136400698516,843.0677743888896 745.9394955732877,834.1481261958526 747.4612271736912,825.1866913216035 751.0266390318023,819.7886026534825 754.6122625662807,818.4156812218047 757.7395119824885,816.1527292718201 767.6053770295798,813.837328122801 776.0983899189706,807.9664735366786 779.4334947630371,803.6894121537003 781.4256151184162,799.2013427213029 785.6419610137954,792.0165198347448 786.5307402270857,789.3295626154774 788.748598900851,785.508622425999 792.6894129530417,771.6185525681208 796.7018431899799,765.1049562269875 801.1504578686926,760.3831278843136 808.053557578312,754.7512679730426 810.5139421616675,753.3916389057977 813.1802316893454,750.248798192025 816.9777969444723,748.6650971662159 832.1144748432986,733.8291916923985 834.3277961042339,730.9115854490866 836.5558352546899,729.3367255514122 840.5468421766296,723.2843737813068 843.617535050398,714.0928120924972 843.5847322877908,707.3783124440122 844.2254971712691,701.3430225088039 843.9555620931998,693.9641693571793 841.4476330064127,684.7938600853902 840.2641408934024,674.7296594131923 838.8804695193844,668.6451116155615 843.4815831266387,656.3628419356269 843.5427277798302,654.598417654058 841.108051368109,653.1812517680689 832.795604234598,649.8657534820827 830.9920298303522,647.5834436558508 830.1338983672952,642.785141130738 826.3966366124209,638.8803487246248 824.855132184623,638.558411381495 821.8835443278109,639.5336131417115 816.9313657452097,644.4922769993223 812.4206502622937,644.0512211706979 811.1006835095318,644.7065131767449 807.9108284404953,648.5736866984887 805.5978444437757,648.8947709140394 800.9728378917863,643.599154758899 796.6702895770552,639.5201232581986 793.9182462456097,637.5384616204665 789.7366923844788,635.9975706989446 782.2356991985721,638.872371881311 780.9147358360849,638.7543471070314 775.0642247204792,635.685145338182 773.0796066688665,632.6000226338645 769.9449875034298,626.3201675293042 763.0577715005602,621.7390524225602 746.149823987163,602.6679887462105 743.2063585022084,582.8256165362402 738.799928980745,576.2291686637886 729.242662581741,571.8421967799969 716.7412388556987,570.399862766066 711.5903865665477,574.0771466209105 707.924452088687,583.6349672463678 700.5649890696136,582.1860459626805 690.288390067992,582.1925862240366 689.5562741437866,577.0486700368974 692.4916841049705,568.2261847868833 684.4115784293236,565.2962653020986 679.0466036856179,564.5157986349535 676.3556270983185,563.6334845132607 665.3602063779251,561.4604208177564 662.6694611810473,560.5776469328828 654.6126090792859,559.7206790917538 648.7895574109835,559.7485229384033 642.5226857378451,560.2194956197187 641.3502979582975,558.3837369028374 644.835980680441,555.5136495062899 647.1282248722816,554.3713184960077 649.0773120397084,555.2255602910352 652.6441719492619,555.2019310931496 655.5350783773816,553.4345001754006 655.7143663721173,551.4813984106631 654.5502632276173,541.8517105183321 653.2350441474152,538.5922594527412 652.8552895922224,535.2640542489097 655.3452069671051,531.6182876869134 655.2947004358916,530.1674343242764 651.0371680600613,528.0510154537307 650.8713207476984,526.1486425736327 652.9754861319743,522.4428290301526 654.1806529695533,516.236758654777 653.5988744399857,512.1445017548244 649.630481808695,510.5277970637338 647.7206736698454,508.4639880300452 643.4724760655516,505.78806123899057 641.7422683217782,505.39639428993 638.8008293542914,509.37293334300784 636.2289352134369,511.64006420009576 630.2861979653267,515.2715815567857 631.5218145372481,518.3088003255727 641.0956221818366,520.0341023480244 641.1966746318807,521.4857016201411 639.5632119538611,522.7651146974988 639.7553561580702,524.9528564903546 645.5890840391226,525.4763128630581 645.8410171873239,528.4631481750476 642.12915512088,528.0432604344198 639.9781066676284,528.5541041038027 635.2305417961157,531.6527233142494 628.639540334206,532.2466950405449 624.9231336374286,530.0166720330693 622.5230460705377,529.4958424144995 619.8691785337768,527.5659673301626 619.0594219530847,523.8916613223066 616.0880126710412,525.6566191724228 614.742104780943,524.6181120624476 611.8515432072351,515.9664462771382 608.5599951567697,501.5558210557596 608.8153297170361,500.04498482060933 612.7834967279613,496.7549814464493 614.8409080794088,494.28001044754575 612.7906342867498,484.50561871197107 612.2101438848933,480.4881030808846 606.3528339211421,475.61312078083574 603.0030822471591,474.21490884788847 600.8551806117238,474.6417641777029 598.9394031007732,476.48512589397853 593.6908264486949,477.14089729490314 592.4207147507863,479.9569652911863 593.8446662140541,483.8584269664788 594.2756182921938,486.975071944847 593.0724224263445,491.4072769576093 593.6767507941884,495.12278517693153 596.0260125721919,498.2777368835653 589.2145403447182,502.9210071044444 587.8308210163602,505.101952584794 584.7488430222271,505.4139134971049 582.3814463245303,504.1213731183795 577.309745500533,503.7238683308079 576.0644900990267,504.8332125561714 576.0723352234183,513.7082997219584 574.8846513310956,514.3607978510179 569.6865192955277,512.207210345045 567.6064935965574,510.74391499484284 564.0538918233971,509.8914761323728 556.429258066818,511.0317548031617 553.5868571480116,512.942845736329 551.6022958769379,515.8225006152392 547.2357190099655,520.3351312105351 543.8282559136289,520.6678692161263 541.4339986765697,522.4108166548525 540.2818915191639,522.0445067894434 542.0739182653383,517.2073228833881 541.8987105637476,513.42383744101 539.0562306079037,508.78103349402176 537.9659167339045,505.08379370495635 537.4285708148269,500.4865579620389 537.568625491894,496.05700474723653 540.0105533337833,493.80061896910684 542.8921953840492,492.61574295183345 544.5792358427685,490.55049668692044 545.943293067539,487.0475410971581 548.8478053075137,482.4324128163523 551.051495982765,470.5951919971306 550.3585019248911,469.41921902709447 546.3941668791168,469.0914308737027 545.005999699534,469.5930033360489 539.8436415534094,473.8615233343659 535.969575727384,478.16744478253594 533.5556930903185,478.6527986038035 528.7168658067233,476.4210385964432 525.544032409138,478.0409641154688 525.4820538850855,481.36114155281297 526.317461103413,485.0536194998786 528.0416640008388,487.1077795796689 530.171334246847,487.2788319966792 534.8984592806497,486.2793301352823 536.6182652180429,487.9584661017553 535.0485930416279,491.58591991365 532.8812803900544,492.5240585310107 529.3228912879329,497.34994824535545 528.4878668409652,497.46566273302295 526.3203039911036,494.5593838767654 522.1911654624331,492.38333572619166 519.7797919983753,489.46422924623016 517.9633527527797,485.554117146638 512.7285613429401,482.7100403756191 510.6173211753493,483.2629770396527 510.19717343390795,484.779750337522 507.4979614385345,487.8558477261838 502.3195328373577,487.24108711270077 497.92955003875386,485.54657738592067 495.24436479745174,482.6681509894664 492.74027983862004,483.06789927020435 486.7083371892752,480.0071854542158 483.0194727832884,480.1668248264623 477.4787301126434,482.4627214117738 472.904810630048,485.24063222257683 470.01609077725266,488.6159791626978 465.40356364625575,489.3930722827445 462.62627339966036,490.9263799546859 461.0014754295962,492.7529185503281 459.10512059693593,496.89680132346035 457.8015239569192,498.3616312939546 452.55287952823375,494.56765941970497 449.08834189795033,493.4636669758005 444.6895024255074,492.9587644585128 440.9715431913001,495.42915670311186 437.50814855848813,494.21439623379047 435.9799256262996,492.7110020150538 434.2458526076084,493.755372235915 432.08692083191045,498.3168763414273 431.31344850889803,502.6538500343795 431.31322626973616,509.8772313066226 433.03823515420106,514.1743975239772 438.3855980844926,515.7245145427917 438.390032386901,526.9885376291472 439.0708732716786,530.607237437526 443.0552953351489,534.7321784402544 444.5914348848518,538.8618953774198 445.3099226631795,545.7604575045068 442.26934928586127,552.569841552913 437.18768967709065,559.2258177728793 428.38186395908014,561.2900786211836 420.45895601655604,566.3822994294792 411.2851162068495,573.2248385186674 407.16099538029835,577.1695033792003 402.0803352630145,583.5580383955119 400.51559169188357,588.7956842150106 395.85558882494496,596.0568448734505 393.2887360908998,598.0708740898365 389.5088908974547,599.0897365244591 383.90208263547675,604.5516585502089 382.87654480081744,609.6803187897369 381.1568617094873,611.4793925752921 376.2643603982985,612.6988480598038 372.91900096245956,612.0604770196703 363.9107113345537,607.8582770960638 361.29472470269883,605.0918570697797 360.4482127070633,602.9452297905398 354.27683382012793,597.1386430859864 352.65806762234064,592.1105857808199 352.4006414438872,586.5660133438936 353.26657745444413,583.0618398347269 353.45638155154273,577.5262007883011 354.57279463588196,575.322654565487 358.87081478636907,573.1941461497936 361.2556328066289,569.3879141365269 364.35549054382096,565.9973679595716 365.28206044956926,562.4502447849102 364.69307006869593,558.9583208264075 362.6405770991539,556.0573425856795 355.91906430287395,553.972306949327 354.5577439414963,552.7631623199109 351.8234925184173,547.6546102881738 352.95229243957317,542.4763301066162 353.3555149286698,537.5622986448845 351.498475344879,531.1380008777514 351.349266023217,528.1056807422062 351.83931492625135,518.8780773823578 352.39569585176406,514.4723631569757 351.4340012901827,508.01128700291963 351.9049464570589,504.9997982940317 355.81990998879263,500.17770948779935 358.3934891804532,498.26852289692306 360.8671840067882,495.07300653596525 363.44655669796083,494.5038892477085 365.7948008596949,494.9583750742965 367.07138200586354,496.30253545877724 369.4140697089316,496.4815704164293 377.4309228287043,500.93685997425894 379.55940327481096,501.1938191111612 381.2131835828668,498.9837787553799 378.76186246917916,498.6011433882082 377.7765013724004,496.8767590720705 380.9700371340298,494.8586996207286 384.13859890590044,494.8594992909436 387.0655516049353,495.94716358049936 390.4736136017883,500.2649627864027 392.48269577207986,500.3828611205432 400.083989304681,498.39467006996705 402.1600529471317,498.7418778547738 409.68217178682164,503.6899411470775 413.47232681014845,507.12312233776044 414.80958263345366,510.9192562639403 412.83792712519784,514.5387386470434 413.68297683772937,514.9933798579498 416.2826391003228,512.1097806519562 419.73336966972613,505.71624367944526 420.2946053619647,501.9896432210435 419.1709469647482,498.19919319757946 414.8128244999242,498.8401887958169 411.71822456406306,490.3807803157218 410.587197487262,488.7929195042333 406.62150561763747,486.76101289468306 402.51285541999556,485.35889680499713 399.7359728579949,483.2554026874082 398.0530953625124,479.60228653672453 398.4366171567577,477.3884676352793 404.7583661987214,475.24992364010546 408.19734875542406,474.85920048865455 413.40101745674764,475.11348424206034 417.19581894696836,473.4811313478642 438.61291111345156,473.2304215060644 438.5094036974211,472.14531688523033 435.1241717023393,467.6025576289521 433.41109592982156,464.42698804630976 433.07008211727515,460.5591626739681 430.4604683310668,457.63480469161516 425.3152332664194,456.9511518019383 420.4642315153506,458.07001153543297 416.2137826332469,457.9154019490077 412.5354697799926,459.2832209896115 408.850476683157,458.68798137942315 404.9983947297049,460.16276901222136 402.25493940055316,460.3262223116403 398.2521074928606,459.32093010526773 395.85923402871333,456.24298324506856 395.4176194198464,448.8974942965679 396.3702529935183,446.68575552409004 399.1389104780848,443.2757015553976 401.76694522300386,440.99142293649857 404.72091551866913,436.8152922440848 405.19364641830674,431.79787360078694 407.2816262895257,429.5782920052556 411.15175047085796,429.35992489169826 412.5922739648021,430.56762379218213 415.6454326274506,431.2251392789811 419.8165544358703,431.22331037299915 420.3016421347207,428.3523333164605 421.6061261712969,427.43079280250646 426.8322197761579,427.4183061080536 431.4908075897392,428.5524466410786 434.06834037819897,428.5502046715696 437.6647388173778,427.106912112737 440.51724505672576,427.0446888409928 442.8205438702603,428.8256009125899 445.5319534162885,432.3740000799082 455.5041564477389,436.8047340911667 458.6736319942249,437.233176328102 472.5780705610466,437.11440278500277 473.8063994635808,435.8413931939166 474.4513003630451,431.8084626799826 473.52674207154894,426.3189640795895 468.06675639099245,424.5513625746406 464.1447372359518,424.2386728700862 452.72578814616423,424.4803555644823 448.2659784974807,424.231121029231 438.6967132506614,422.4482448818153 439.3068956204467,418.18555193812733 438.9560129155029,414.9070689222679 443.9916410872079,412.26874597117927 444.9319141723675,411.26655893579624 445.357485482403,405.8832018652755 448.2020893624327,404.419066348725 457.4553614690338,406.71880625737276 459.7411909627913,406.52744259873066 463.9463553854985,407.4492221363009 466.1389953134278,404.90105381749635 466.26639004564913,403.33570781154583 461.45512190761406,397.3892917091358 461.61138148244015,395.93471408655853 465.041030478353,392.76489162238363 466.74302245843984,392.87600491201897 462.05694303880904,375.20301316558414 458.988468626134,374.9499850736621 458.98506706193484,373.89584084632736" /><polygon fill="black" points="466.74302245843984,392.87600491201897 470.01912928592327,393.52545357551094 471.89468602930697,396.0129406271117 474.454898764899,405.0380944869439 475.8059487498937,405.5365620106017 480.95296266419746,405.28219795576956 486.3421930588461,404.49856479209984 488.1749042622087,404.7118683955547 488.5952296005804,406.3134584839107 487.1251669413049,408.12342709099914 487.1828371039424,410.81905650855975 485.00083493934926,420.2173935588595 484.9223210859185,423.8009000023651 488.12365185838314,426.5574188763169 488.9626392013075,429.88156680907525 501.40456132861607,428.5415273070654 504.0093349270423,426.8324812077906 506.3223786139886,424.3115558341682 507.8590994718716,424.015069977976 517.0576793305928,425.56519646508013 518.2535309790036,426.28102630125227 518.0138017182348,431.7875018200469 517.2896694001138,432.6748646127999 512.858766962889,432.456999648495 510.91678432506933,433.94853284519735 510.29973707138726,435.745194518015 512.2275656712081,438.2793003398365 516.4393713089049,438.91434232684384 520.7426920859028,438.86353682482337 521.663270653683,437.7869885969372 521.8596411530813,434.34203456148634 524.2498676767184,431.40022585470075 529.6605381885848,429.9903561698434 530.0557534317254,428.74051855596053 527.4047655935173,422.4741280986058 523.6081327518419,415.51024571605865 523.81792309374,410.60057374056436 526.4982277152302,406.590730531782 530.8585213610562,407.36505589394545 533.2927183517191,409.97007547890144 537.3233740723495,407.77879643755404 543.194355694483,408.6131637433166 549.7397672664438,407.1104006965197 553.3739451212118,408.8989413629053 555.4508281347569,409.06861334251727 561.4228255671289,407.27206964051305 567.5578966599561,408.07163072980967 570.7604210635254,412.8869568755342 574.5229397124048,412.9539482763064 586.329707354254,409.0071678538918 596.3357591826252,409.3590999491583 596.665099806243,411.8018621993581 591.6901777285391,418.8322213792062 590.8439783566163,423.8435919645134 592.5558754714942,426.7842915586748 594.9324196544682,427.9655317279844 601.5458405426864,428.0913084463696 605.7962195621501,430.84976589710095 612.6422664543151,433.80234407012864 614.3732713238683,436.8267412429167 617.919208789998,439.9772219583912 621.3137553876089,440.3205835749258 622.7979661049908,439.46196942382034 625.627255479763,436.05530916871066 630.5077919418765,431.8907491729705 631.1635418719842,432.12958191649653 634.8618250817242,437.427503331409 637.1567826356442,438.0100142016299 641.6585362348536,436.113177075073 644.8333290377022,436.20452876815847 648.7212687984236,437.4887038092054 654.2133538316203,440.858485095756 658.1795111857223,440.2266672525964 658.3129232677908,432.95822800445814 659.8039233966231,428.6698024973077 659.1588250349954,426.249278043506 656.5552449969996,424.54464382171494 646.6691450265247,425.6043100066916 639.5128234757736,423.75097219205526 633.372015129477,427.4762447361707 630.9290858326889,427.28475538730487 628.07115503162,420.1016686618006 629.7427061752924,416.0739863149758 637.3066136999173,414.1856817752128 639.1238906699795,410.5727326206354 644.9692347169487,411.1153165163306 646.5499410826379,410.49579790242075 652.2133086738795,405.99380380993284 654.5045014666351,405.3666794956356 660.9833474305567,405.52188279867624 662.7152755362926,404.27279612806115 662.8002566693102,401.10334065960694 662.0842423078936,396.5290142052306 667.2741385455593,390.91074439317197 673.5247086127076,386.2799590787507 674.3578220152781,383.25855678269727 673.0408515678761,376.6519486788999 674.7642668346766,374.51445853666917 675.6456562475937,371.6586429665115 674.5662791866038,361.8320063720605 672.0440095037854,353.0215106436642 673.7451497448695,349.51066513230387 677.1769918142586,347.6078273206182 681.9358017335413,347.9854058606568 685.168251926667,350.2279505605575 688.7102361512214,349.1322382470006 690.7800579509517,346.7884330364469 691.0184842044328,343.44932609692603 690.2357625968561,342.1288974992518 691.392460077123,331.0363750268767 691.2298409047886,327.3628568228654 692.1106925344588,324.47272134738955 693.9130135474508,323.8563866962494 701.0330841509898,319.59576853794545 704.1933596367901,313.7436339550046 706.8811367285582,315.738835246422 712.8415926464445,314.712084377578 716.5243810218161,315.0819187526515 717.0105590493826,307.6093743466256 716.1263580556919,303.3133541163685 713.9731594541431,298.4517204388734 712.901561896182,292.33212118382596 700.9417570620631,275.9529642656905 697.4941163252331,274.8165690016008 692.1533852950125,274.43266534441875 689.0812650020918,271.7455103825208 686.0775175733665,270.05654459481855 683.171198991115,270.79392522211026 678.0208261468027,271.2529474416591 665.4103668464605,275.10218750641786 660.3702340660861,279.9444635222525 656.9053235278999,280.04157390489934 656.3423904123367,278.3403489719001 656.9132493213318,273.78219462629204 658.9941113774336,269.8681573049812 655.9967017566175,262.08452720745095 656.271687950764,254.87058651759776 659.1670460786731,248.44347704830875 659.2735964915639,243.10381078072294 661.4925463909948,240.10710091885448 661.6045413113224,238.61847004645597 660.1891798707356,234.97574923859918 661.3188094894433,230.94956756077693 668.5879131353148,218.61552292726742 670.0688405134061,214.76791184987167 673.5367977215486,212.8239715255753 676.0738846781944,205.79207659571978 677.7152017438415,203.47389776561 675.9713492762204,202.27929992415955 676.776634277868,199.0086110041933 679.4363924538716,198.31495038814035 682.9024420997747,193.56389263032474 681.0459478275744,187.39554560272484 683.9436665224814,184.87622185796806 683.695991539711,180.17471860552553 684.1130219888943,176.36959789793025 686.3135290977544,168.7413183080397 689.6527052618285,164.91341299873852 696.5361106187321,153.4500940586496 699.3966546385707,144.70929898671181 698.01958707223,140.4606966800137 697.535791396752,133.7494877656079 696.400589978125,131.0754032412957 693.0084586353192,126.39768559519132 687.3642541195665,120.16305606217634 684.8762105997472,115.25161951920256 685.7450633367838,111.66553248697028 687.9679764101379,108.07100967532483 693.3375271416728,105.58002959782084 699.8375205320101,103.9621461842047 704.0713086054332,101.02538279667897 706.5173142792701,96.53073076798114 707.1567205042489,91.16122730055224 704.8771696235146,83.56167536559315 704.1743324921381,79.53609722822318 703.8768394200758,73.28805981308608 704.092254674879,67.89710460923891 705.1258371503935,64.02325414393545 701.9646628338228,58.89611138847113 699.4872630702178,56.90027405811202 696.7867013170156,55.79423439707375 692.9613852617207,52.69327075845683 690.0315374028789,51.36616836244957 687.1005070141838,48.69702793896488 681.703914282785,45.3734228199354 672.4991004896967,42.28636443501625 670.2637574137334,41.85352952311996 660.613910730666,37.41876073238234 657.6939757941333,34.748630410838814 646.9066892593019,27.404014810658623 643.0890763281311,23.38907029129132 639.9545978416019,20.935681431191483 634.1009204490447,15.358254240019846 631.1830947987784,12.004897847897382 622.4402057563478,7.332634184327276 611.940275854847,4.222000749628705 603.6533995070781,0.21222005659728893 598.0655607988231,0.0 595.1730440250653,0.4490507122012559 593.187188982831,6.273883122034704 593.4513430177855,14.113154948787042 593.2590028285687,18.807676697830175 591.4820719249329,20.824403474071232 588.1468046679004,23.072087532613295 581.4524878427372,25.105236171814113 578.3331984679046,25.112022147981975 567.8209247281153,23.353056871035164 564.4560257773985,22.242844324666407 560.6347668031005,19.34610886766211 555.0359598801823,17.798507339373373 551.4468477550412,15.57155775105241 537.3511812448828,12.01870085029418 528.6609251610795,8.168326148865503 523.4220709805395,10.693273879309572 519.0748777439122,10.504252059374153 518.0500826398616,13.944843370070203 518.4339639342152,16.441872141263275 522.261443115988,25.142332438746735 523.834895491307,29.630002191794574 523.8276216259769,35.13175355841088 520.6033735648701,36.59476008231286 515.6856126217878,36.58774705890437 511.8296925180243,35.88707888691147 508.7231188981614,34.43122349100736 507.5827604782846,32.551401972456915 507.15356571865186,27.8731095751084 505.37874605635096,22.169542195824192 500.9306877858279,18.20063090963413 494.8681606748151,14.872573809339883 484.9834801252108,13.131396253245043 482.14458145765997,14.471357966519236 481.9441651068308,16.210295016425675 486.488495957852,22.25211408857126 486.940053653633,24.86855705458015 488.7488306109094,28.438533486490087 490.11878612464756,32.904078220130145 492.40395179158924,38.252339205593785 494.44583117758043,41.82695696258622 498.27709730577675,46.498587139987876 501.9074694334402,53.63025000473942 503.73902216524357,56.526710439044564 512.5981656706616,77.05382972219468 514.188270366445,79.95487665605674 516.9186384827375,86.65438678628766 516.2898498840894,95.60219125854042 511.1553189068862,99.44590450232624 510.0741621896371,105.05422411950929 511.2221118540376,109.07251898023844 512.1425868309103,114.65851033156889 513.2875637481145,118.23066828400647 513.7795754225649,124.7144797554688 512.8991410570524,128.52822948148616 510.8880733673758,130.9982925511996 504.6300543750595,133.50981774684783 494.99823571604446,135.8203850937516 485.3500461708572,137.23355556646663 478.6300301658321,138.84926760056112 476.8414233343261,140.65558418428884 477.31490182926166,143.77991005433591 480.28017071434925,151.59524974683302 480.98336381506857,157.4103462603066 481.6743873466313,159.00291692224232 484.4950762752495,160.29187284345085 487.00529679274837,163.86050525756696 487.5140372348663,166.144951983454 484.31848501838425,169.80328924862783 482.08991403453615,170.63525725127147 478.21547663529924,174.94880929545172 469.84655341857086,182.47096616742658 468.2106709646557,185.9447889990778 465.0131484610201,189.62191741529762 461.0061849659212,190.8443241410505 457.37734692005057,194.28458697623887 454.40861808429554,198.16623138620048 449.2556222223001,200.6854944476919 444.16690344687333,201.23977367637497 437.43392493375984,203.8594006261452 430.23264795409693,210.14727360269535 426.4142752518967,212.69771712007707 425.1953029947839,217.0758921679011 420.45007225320177,221.13672273826398 418.26001800830625,221.94035453044796 414.3584397608012,226.3189502054679 407.9385728649174,227.02175042735303 404.6060518164071,229.47034688239194 403.5521612916694,232.4612106344107 401.46065838954934,234.54672669816523 396.8899055882069,235.3999969763271 395.5046512519074,236.49237120785108 394.04866152260905,241.57171260269524 392.6928806040867,243.2677741698808 387.48474270362755,246.35140009864972 384.90108147244155,251.08180640223213 382.99653953422205,251.67971568692155 382.5929553610841,253.31044451986418 378.3711752399243,255.001488311476 375.2935465985932,261.23384480405707 373.15938470221084,263.3735744969048 368.665642390067,266.6064049891738 369.92996971713643,274.11548506089264 366.0417044296807,274.62301834134496 362.51724180680293,274.0387820835957 360.963691412381,271.9787456831973 356.01360434940005,269.5746007971494 353.02215690862744,265.27376630962294 349.89250870814436,264.72339546103433 347.86661543045335,265.85809528752327 345.29226074039394,265.42691003973084 338.9371706017283,257.92630806501575 333.6528523809757,254.48091593994218 330.7605875632349,253.73205281030198 328.17620246999223,254.39823699401393 327.35490703445754,256.11284390083244 324.8328878185349,256.6619608327036 319.8712702369582,256.07572764967085 313.1482246799111,256.574235075321 309.20678694542806,255.5855221489112 303.61815940253416,255.54595224612865 300.25633461729353,253.33278911384002 297.53725840489244,252.54104812420974 292.6409061654352,249.05422918414774 290.48066036095076,248.15266720568627 286.90395971239786,248.24148806548567 283.8463702206954,251.9721924806363 282.49626390279565,252.1663089356598 275.2423653982126,251.25962224667524 271.3260296061933,248.47727494106482 267.2933186712684,248.60144316385208 265.06767154401155,247.9361163333691 258.0668918824233,247.60960342722524 253.93635405700942,246.50613442595443 247.8413861379494,250.62505311692826 244.90209331586448,253.91740023782427 245.71117500962214,260.7789494078497 243.57081020645066,263.00708437918263 236.97554638490686,260.4990636557616 233.02336351291717,259.58935092649824 225.82042655792296,256.5931155991094 222.9765777434504,256.4826368807852 221.95914879748707,257.7434020876806 223.84469338882732,264.3433315565735 230.07201835304545,270.65233634699894 230.80834509837493,274.9687396701122 233.1430656573445,279.93032695046895 234.75468948395968,281.958011746854 239.19648597141526,285.8895400938576 249.1671606799286,290.5319012879763 256.7487320925683,296.1804057118494 259.6716100230898,301.2265489696631 260.35089139928954,306.5234636279648 262.3419830121612,309.98588452160607 266.70393027506606,312.93608660798486 267.1069883539799,314.63737845428386 268.89204901790634,315.12039573913285 272.40450926585083,313.19095635921826 275.3673169195182,313.54000339666925 281.2474389212714,316.09644423907116 284.40981699838073,315.00229050058977 285.72283176719424,313.62626671581984 289.1778668733334,314.21248110869055 291.370693622006,316.17757989700135 296.70432539192376,319.8392909418699 302.7466405577052,328.96444851991055 303.8883140662785,332.9887285818347 305.53735511633596,345.73420962109606 305.36285504261014,355.1397092877336 304.4894291718627,358.50474990792554 302.50049953063234,361.8676093979592 301.978188292179,368.6936084251698 302.09999646778766,372.49879670375446 304.95545551036935,377.1072902471765 314.79399710165444,388.067188114794 347.25710307440426,364.16170926563905 344.8891623462395,362.2039155957717 344.5661997334965,358.77105566283933 343.68936937782786,357.3350100969726 339.3860760964789,355.8925426948581 340.615418930908,354.6683580114508 343.9079945649993,348.62642852816225 343.9336178294504,344.4033679342152 345.83630985010416,341.7720594062579 348.6312022627718,343.0591827826835 352.4549046217197,346.33443482881523 355.26018464498475,347.6400457896426 359.54227571445426,351.38093305097937 367.0229352249606,353.15416155345235 372.8383237109344,353.3950300168905 374.5129067705867,356.19182388613115 377.0687239398787,358.436075912535 375.1816035055581,363.64320476918397 458.98506706193484,373.89584084632736 459.29793061359095,370.9691201947028 462.00708844250875,361.7147552167662 462.92743812982286,356.966144617576 462.10497658209476,354.5612663980221 462.7180315233349,349.4044583724142 461.8989056874794,346.85322445751274 458.6318318946963,342.154992615232 457.3530656472946,338.0207507845889 457.6571588415149,335.5721226342008 457.1929801219206,330.0049950193736 458.4745840497239,329.0825664997551 462.3664478628978,330.3010106865411 465.0231842656529,332.0765772643135 468.7057876213801,332.4303920190871 471.935237777097,333.9038468466066 474.7486707871459,334.1512870000855 476.3858534725161,335.6803019067395 477.20950965827393,337.97476262405576 480.43383486022503,340.37204526279436 480.8380058110358,344.15285981363 482.7383476908245,345.1180085061625 486.778820154665,350.32263427863825 486.8290110240996,352.82394967347545 483.75583025817485,357.8860381466902 483.7544458694203,361.7158179138206 482.735756204719,364.4748944357391 476.9017329486947,364.7452908679861 474.5949898439265,366.28361283993047 469.83641740776096,371.40044705893604 466.4085430978601,374.4777382459241 462.05694303880904,375.20301316558414 466.74302245843984,392.87600491201897" /><polygon fill="black" points="873.7755738001772,248.73299692198793 872.5641444200526,249.35032744651937 870.4311612597078,248.25513053519842 868.5049206857152,248.53525104938183 868.6300452023373,252.5697458247073 873.4974312035322,257.0719926425676 873.5718585517963,259.3962585259876 870.6414998708061,259.78289446776114 867.4789883298513,257.5232452962372 858.6013234316026,262.6985874578776 856.0275240152944,265.4942758418406 849.2762547967139,268.818130165624 847.3777800470207,269.2161683242804 842.7406887370979,268.37441273644015 838.843621836764,270.002291883555 834.4509983014946,274.1026170980748 836.3658621104188,279.04868521889057 840.6837674757958,284.6362884164722 841.1423236411999,287.7897669629183 839.5962609540048,290.8919442187462 835.728383185191,294.2131077108228 831.8748971892898,299.6488754237041 831.2603834166314,302.70749245099614 831.5847584764009,306.89475165723354 828.0858942462623,313.1406636632188 825.4848720134726,315.4433064661572 823.3038819298049,320.64429230430824 819.0721204602107,327.0380392986723 819.913985184235,328.6779365522516 821.997142607037,329.8294171307873 824.9113194837413,330.1487976659938 826.477887365011,332.0999143827971 824.9153572864212,336.4487354889577 823.8253051785531,336.9390260768174 818.3854452038335,336.80836896537403 814.1556806607753,338.0202918361665 811.9778343114468,340.4379911234046 811.9733950545282,344.0738550612102 813.1777359423781,345.0410489149716 816.3295990928498,344.20045694953785 821.7739676987666,339.83471411720825 825.1454330962674,339.24431855541104 827.0933131382268,340.6955394577658 828.773490843215,345.05726233291114 828.7787363412702,348.82104477085124 827.0828656874478,351.6030848479602 823.5773605214906,353.1814292224241 821.1662047402317,356.4396476482917 819.2276354701678,360.80330861716243 819.8373098261809,363.22881259874123 825.516457193573,372.2011185252402 829.0791890073134,374.35192918972336 832.495764087474,380.23718794070476 835.0464403803963,383.0898346793798 835.9237670897553,387.6993160970576 839.7324503952633,388.8904188113571 840.6169306406373,391.238008443471 838.861788361986,393.8917564442064 838.3641492631047,398.2017911068101 836.5062866897307,402.62437248916 837.3788105828288,404.29366477226847 839.5360612196147,404.4843188454996 842.1867208707985,401.65677879902944 844.7239791677735,401.44880893606603 847.0731113282878,402.6397805383275 849.6157304368695,406.28026041963824 850.9871827369249,409.5224032062361 853.5046665861207,411.90757656417145 857.4417075335763,414.3639233786993 860.5677930468773,417.6449214858332 861.3882755626736,421.2112289103721 859.2103724305091,424.4762026708203 859.7585223710521,427.0772175091425 864.7880438889407,428.9965307459626 865.9400379360883,426.7177635032513 871.4376357903182,422.35413365245086 875.2953778791646,421.2070466241678 877.484061461828,419.60939940532637 879.2127549261037,411.2345167658349 880.8622454936253,408.0088743889592 882.7624856478506,406.8020217384245 886.9554193158767,405.49331710738517 892.3910271689749,401.8985022449657 895.1306508802584,400.86670601150274 903.5804467168684,399.7053785737978 907.258007848009,400.86446619058324 913.5024823111241,402.0331399691504 920.5799983459717,403.9344456401658 924.0522342916652,403.5692953792176 925.949300889752,402.5077844438781 933.5882090238447,406.00842635290064 937.6327767421144,407.1056566848991 943.7127424268825,410.41492016352197 949.7848612763495,412.6054131957546 959.0065332788057,415.22258683550587 962.3918417746811,417.42987475399275 969.8124301678889,418.7068582133833 977.2165930416925,417.74756244776427 984.3991483524433,414.5489567050229 990.4423340377873,409.56926985812953 994.6172370068828,409.9594767990752 1000.5766442225199,413.3178255725431 1002.9471248925774,412.59879196571234 1005.9788922381015,404.4462516665759 1007.4859179988155,403.78296941720794 1010.4520748567046,405.3606068239428 1011.8900900141526,404.5043472925347 1012.2180961138607,402.0975018617022 1011.3563186781382,396.8386462652685 1012.1621526296728,395.30780993784083 1015.7284606562467,392.46521859736697 1021.231700860206,391.64832924799464 1020.8144503306718,390.82857828731665 1015.5103459248026,386.83799435258925 1013.9827854355864,384.3681350396264 1014.5049734570117,380.7815599034501 1018.8069225504086,374.0821257634067 1018.7980127634304,372.927745874862 1015.2415841563818,369.6595186177127 1012.5211624800695,363.83508144209225 1009.6130747808985,361.74577193078767 1000.4285811550378,361.9388552197523 998.893529801476,361.3654429065808 997.6080102820584,355.1527388616105 998.2347089413734,352.28347512606354 998.0043117489148,341.82410529877654 995.0109834968885,339.2025684695533 991.7910546268938,334.96766935054086 986.807718276759,329.8453887385449 983.5123330124321,322.11323198246464 980.2925851043975,317.9880845315132 976.2514665664115,316.00591637662376 972.3186467199658,313.29283528023893 971.7098564280172,309.45180830952745 973.8563985765679,307.56047466095015 977.5625796823175,305.6772881189987 980.8401145467391,303.056763428364 982.1196427619133,300.799230487194 984.4097686768929,300.640089135921 988.4316607117016,297.4687018234565 998.7525889225236,293.3445706959237 1004.1386817072239,290.3880323438283 1006.1452217227729,288.12955039614974 1017.5671037361186,278.8444459991854 1021.5786125204645,273.4310435150701 1022.6953568986902,270.9625110912433 1024.0,263.7848636697737 1022.6152392157375,258.4301643125133 1014.463923393628,248.43592357828084 1009.7507219506191,241.94169689511034 1009.7879082534905,239.23530706261533 1016.0998553091935,236.37112085049193 1020.8555496729813,235.38427022626263 1022.0230024446688,230.79592081282703 1022.0271038539722,228.3097317769417 1020.6416805330338,225.16893321703458 1020.1096953512588,220.55523558627954 1017.4867048571613,216.7085189880106 1015.428884316822,216.0482423488695 1008.7645517716678,217.89308096889556 1001.9504752144533,218.36492955925235 998.4355456218198,216.7753586821517 994.2002768011171,216.43125799796178 988.5543886812902,214.5455415686273 987.9721861249058,213.0867035465833 989.7981104498045,209.56708653393332 989.2150937614786,208.19021249162518 986.0604463789733,206.08266826803606 983.4858380937952,205.64559738195828 976.0929144060847,205.45066036993126 972.806047238254,204.43799357525677 968.7881367120602,200.7224792016077 967.5868630193875,200.5089606215622 963.2841935547394,202.77662155029088 961.1544500553961,205.21229074574535 955.3045156181356,216.0843415633219 952.6745047130677,216.98936058494132 950.7402345038826,216.16381375036826 943.3939779421897,210.6190678744564 943.2792818270769,209.10048502216716 946.793692028971,203.99078860608972 944.2880865133178,198.03216288424233 941.3442082293966,193.34799643233669 934.3541903083737,186.91133602075683 933.0007547475184,184.90505094414914 930.0824353537379,183.58428425955424 923.5735590075038,182.27970334443444 920.4250878660996,180.72771231507215 917.7374311722043,180.51558802749742 912.7992192192293,177.18899438116284 906.9480287064697,172.29935901859233 901.9954605135664,167.61942520224318 896.3988573168383,165.40069024406466 889.6821997261627,165.65322394416216 880.5850057610861,170.65641959540108 871.9453898276141,173.64495544767033 868.955335033495,174.25029276999612 870.1589278270458,177.66311823702097 872.9424126577579,182.68584046850413 875.6272956554758,184.04212123367574 874.5828653308702,186.8999232608636 875.0357388720483,189.69211491464011 877.268925358856,191.64713263020656 879.465559000875,197.62203601445128 879.2506488776976,202.19029256865736 878.0709593981816,204.50792536259655 877.7643523568818,210.052887338784 875.3503270689475,213.1973933039468 873.0522865488732,214.22272312048653 871.2454719306057,216.46858921157207 869.7047395802325,225.40284439290065 868.6853713291549,226.04868757063537 868.1253523321867,231.55651487915418 867.2257091683098,235.8532933343123 871.3175984958556,241.6259775239139 872.1367012361603,245.16596871317347 873.7755738001772,248.73299692198793" /><polygon fill="black" points="556.39671255175,452.39636730594594 558.0337664671338,456.81519904309096 558.210967611487,461.12862004343566 557.1526280312501,463.9464669632029 553.4264225707919,466.6500214949124 551.8792999276134,470.1951514509826 551.6200674361456,473.87823267789787 555.6622569217103,473.72093692666675 558.4714888579806,474.6170716592892 562.1543770684046,472.06778991614624 565.5840916488769,464.8554067872139 569.098576998806,459.39695500161156 570.2343374785405,455.4334360507616 572.9589550180907,451.8336681159786 577.1692231155535,448.5871548555062 579.6358429310507,445.86356120442554 579.442167241655,443.2110016121729 575.8490209859009,441.9279393166848 573.6981727913422,442.5921275896941 571.1084885324543,441.36994642201887 569.3696174895969,439.591678375632 565.0726544530204,436.60122406905225 563.5073566319603,433.4503797773025 561.9083742497488,431.82144185347835 559.7840279459684,434.7039664645681 555.3988383165723,435.48947516424545 551.7924887234873,434.42567123741026 550.0324656925357,432.74813067404534 549.0709739238218,438.47276215845034 548.0994948665686,440.9336775953549 549.0705912673164,443.75455350041176 551.5334645446139,447.9013565527514 555.3048286490281,449.49078531723114 556.39671255175,452.39636730594594" /><polygon fill="black" points="513.232974237819,458.00388802703293 512.6117630427136,449.8310612400587 507.15273836997727,448.51517742796375 500.41997490838884,450.0214416247495 498.43056334123673,451.91501632828096 497.50665030541705,456.3212763368358 501.1683383262171,460.8930606456144 512.0847459228135,464.44353019513085 513.6301825089232,463.036398808723 513.232974237819,458.00388802703293" /><circle cx="601.1707822214591" cy="551.1345715617633" fill="rgb(100%,100%,100%)" r="16" stroke="grey" stroke-width="8" /></svg>