<?xml version="1.0" encoding="utf-8" ?>
<svg baseProfile="full" height="1024" version="1.1" width="1024" xmlns="http://www.w3.org/2000/svg" xmlns:ev="http://www.w3.org/2001/xml-events" xmlns:xlink="http://www.w3.org/1999/xlink"><defs /><polygon fill="black" points="221.03801864864343,719.2328836406986 233.42103164157237,723.9913749600921 248.8358218859478,722.7542448807936 263.53550741149064,712.284410821955 289.30267155933797,708.4059186177421 297.1739275905958,714.0571087869268 313.85815321169656,715.9754406213511 326.30998386797563,713.8416194566871 337.80334904202505,713.2813111899208 348.2417291310707,714.4790565748883 353.66774055007,714.6123857237515 365.4168148139941,710.2673621089604 378.78337792184084,703.6311941139869 390.69394740615365,700.7179065177475 394.628795378121,699.5476359198606 398.4874067688666,696.947600391643 403.58742067222846,692.2587295990569 408.0978679142579,687.5461243711857 413.2288843991695,685.8293624901851 431.3401724840338,686.6167319792162 439.7718800225186,688.1675738287555 450.48735614171693,688.4930198463941 479.45950140893865,686.6370084536746 566.9592635966869,676.9622985933572 591.2757683682014,674.8235838129723 602.8606185384768,674.5640328639164 708.1503382372264,674.920541355751 740.4401065657661,676.9955577400683 820.9040857375682,691.5196811386868 832.1570400679864,695.7476206354798 844.1238405896091,700.912764449789 858.5047627153566,708.5424273876973 865.6669868933849,713.0732290391209 870.1054062909096,715.4727239517068 878.6037325545352,705.250619453387 887.1730204157843,688.9204057367256 899.7816096950091,671.6324103670386 912.5229664114056,648.3025371895316 917.0362942260789,640.8412691165412 915.7387817693368,638.92503378067 908.819582996833,626.2184391048917 905.9960426484349,623.4515959562967 897.5662375083913,619.5828513584312 895.5215267348922,616.5925898197777 895.3072068425643,613.5573380183863 898.925822179022,602.654143923456 902.0783940846931,594.1856079238762 906.2079952036838,585.3055509656183 911.5377819946724,578.3583582744492 919.2113129956183,567.6216057993304 922.5661312199231,566.0114787835766 924.7027059645768,557.4172062052115 927.3954222353091,554.9422126980331 930.4975465858466,554.4874716562622 934.860151770382,555.7347368164964 938.1074247023407,559.2497387749644 941.6949226452851,564.7700938350189 944.0546260048206,566.4837958007855 950.7249121754575,567.3052957535413 952.7370593112522,567.0844289891029 954.2316470732325,565.0598605586785 956.1496586788674,557.9190099181294 959.9326101771275,555.7653120480564 976.1062101207291,556.2154339900535 981.9190532524011,548.6418708745889 984.997425864809,543.5100486662353 986.9192736752707,537.7384836440301 986.3571622364625,533.899073498278 982.9003975523219,530.7724424248232 976.3154116616554,528.2744367075201 975.3849303530394,526.6593312405781 976.0265293591291,524.0681115785237 981.0607430756395,518.9915081670285 985.0717113632571,515.9657135869069 987.8991820589581,515.1606116154404 989.5850919215427,516.0413263568005 996.4957113979583,522.2039869468061 998.9968241726766,522.5134429303083 1009.6469722811505,516.057652376048 1013.8287541874787,514.386339057725 1020.2790739891174,512.9015551823902 1022.191237314488,511.269646502602 1023.5903215656936,508.2411387335949 1024.0,497.1114391769811 1023.0928960850785,480.37083734089725 1021.8129184133534,478.21636561781173 1016.8662473868227,475.06737200213274 1015.2214189853144,472.1598589424159 1013.1793973127542,463.3637366029471 1012.0822415275804,452.0559416034957 1011.0094489533722,449.40348962544704 1008.8275630559887,447.4819165844967 1001.8166585347828,444.3391791352826 999.0735943232669,444.6364610860655 994.7314277169115,446.49686061681933 991.9644124142982,446.12172524562664 990.7429891599317,444.7503180988923 990.6236188704185,441.18819172596375 991.3646401163517,435.4479076515944 990.5660136546421,433.34566917244496 986.6369580016645,431.96890928814395 984.5681492479896,430.60586660980414 981.4066309297552,426.1634473994718 979.7384084147562,424.8569014672151 976.9210289048202,424.37045854411923 970.1727054823365,425.0453490918226 967.048524390363,424.22079151195084 962.4817915024406,420.1777369237564 960.6296325209339,416.8443348199329 961.6029062996341,413.900813297476 966.3101710702728,412.96814868997814 968.2896581134661,411.41584791351414 968.7361463216669,409.8460668234874 968.6932999323585,402.4431189729211 969.7531704976432,400.0381115305297 971.4713371802142,397.8648386930518 976.4943609676022,394.0991686712422 986.431810244288,389.4581593038135 987.9544335897522,387.7508119546918 988.1900208215916,386.05235258504473 986.9488069479615,383.29819205113665 982.9764229426398,378.34200134586285 981.8163059472381,374.04647270687326 983.4074082770647,367.0642744209306 987.7373725847801,358.2088456756065 987.4516926191029,351.425554506122 988.677355883894,343.14128240592675 987.8946844022203,338.39138367114845 985.8280046839147,335.8270425435153 981.0953782895693,333.3165803430347 978.0618685332072,331.0090834988099 970.7478655487504,328.787288451138 964.0955451512103,318.52354246284875 959.3478604030137,313.9004194330809 958.234945622595,311.5502340611228 959.0259794888741,307.46482146931584 965.9696896265757,297.93427076464053 968.025291062723,292.7284849452386 967.929833927666,289.0894919982743 965.1206365503863,282.84191749900873 964.3540125751483,277.53694859074994 962.8574769180547,276.05431083186147 958.0929868290694,273.5556055504978 952.2454240237433,266.71171855879635 947.932222075038,262.8564193600392 937.8394195436459,256.583222865595 935.3552024731571,256.0994634732993 925.1977083612954,256.4638559876296 915.649264306553,257.4653919650125 912.9251343315942,256.18028340018554 909.3171908359453,250.52972398736284 906.0988788957625,243.43049525785898 903.1415238581143,240.1687543371205 900.1068528762934,237.931756922744 892.4433364711343,235.04649229301555 888.7630693934143,231.7641142356885 884.2223471665658,229.14833887667538 882.5380883250986,227.30487042604187 881.4731465224845,224.79436943906052 880.8297377071888,219.52499327820954 878.4293171251204,213.08824106358145 877.5379005621719,202.97408760016424 876.0551913268241,199.70244839841916 873.881378323279,198.30359104615832 864.5326961436846,195.51845787116713 859.0952451928856,191.28154172621703 853.5675154493832,188.1464660648113 851.6822774223459,185.27664124212072 848.7622235087208,182.79713628506443 845.5272266793509,177.26647473180333 840.9354851463079,174.9588498497468 833.4279083852359,167.40081423975232 827.5603149306037,165.67024868835574 823.2108195929106,163.14331135748648 821.0673090606623,164.07030864752073 818.195613243791,167.97345430071266 814.9569002316858,170.65181521936393 813.419491286542,173.62422075536324 810.9926737477722,175.46026116032272 810.6203907176223,181.1722683904802 809.9262803392238,182.95448252382005 808.2631973372451,184.50877139183376 805.7313972990524,185.3277339838387 802.9183068306372,184.7370443736969 799.6366836069024,181.97564011524491 797.3836886640275,178.4814779071935 793.9785815930879,170.11009845682668 792.5485385367209,168.01521954831617 790.1833621579182,166.94638848416525 787.824093255532,166.79489293986785 785.3137511785574,167.8016818146025 784.3937145836004,169.98431899512047 784.495970717177,172.96484532016984 786.4807149317467,177.21355353517026 787.0457746758024,179.56788469051241 786.544378620037,181.54290298118985 784.6007145165848,182.9728319086472 781.3132311407059,182.47824953072188 777.0609363799537,178.99132990499754 773.8587901408301,178.69937335508018 770.1782526601148,180.88686846530675 768.2545255833029,181.4324291528369 765.0126477317344,181.40410268964854 762.7983400316987,180.11987159990167 761.3959492937305,177.06330163241728 760.1720180150741,176.194993924624 757.6746890021899,177.11806967407847 751.7753004238442,181.54122410000218 748.6922100367381,181.76925844199297 745.8032300190705,179.5290346375092 742.6042784147872,172.59062973451512 741.6509124696394,171.82047048236927 736.5657697892249,174.94919650743793 736.4535340987613,178.11090768079544 737.5749925753339,184.04022226997984 737.0279352400968,186.47895161779581 735.3938016715792,187.94990162610281 732.6772443022818,188.10440752148736 730.5251773863104,187.08019122928079 729.0723839965926,185.22346061089831 727.5175426908972,178.15133287437368 724.7862229387176,171.17456615445155 722.6118994029553,168.68992221571534 721.0088783979377,168.1464938399646 720.1570713454577,169.06502997237328 718.4079108197262,173.04520061274923 715.6732004495614,176.62886109640988 715.9963184873577,186.26862678777422 714.9108565010404,191.210898976281 710.5254470334168,198.32540181347792 708.0782493757685,201.03887253421965 704.7601136493539,202.35149323881603 701.325242584061,201.38713886620314 700.2258147660738,199.35964151994835 699.6329530098161,195.18938671945182 698.7009962195208,192.37223673237077 697.348056100044,191.33213285803015 695.5659557225764,191.235615018545 694.3567011271851,192.2794672448581 694.2053317099601,193.9996864341449 696.3762269995852,199.21008086239374 696.7645112705363,201.92115701801276 695.0865463363696,206.0260460666883 694.9045813059878,209.55392870019125 692.6498565672034,211.34923197922137 688.625471424875,210.19343173585457 685.9626187112835,205.87310829040428 684.7619680769682,205.12802073157047 682.6133739626943,208.07606155378778 676.094950401305,209.39319074950777 670.3015693372222,216.60894402900294 669.1387564227639,216.78210771522447 666.1212993714187,215.46786005798987 664.2814623982027,215.51168229304636 660.4118348615339,216.79522494616288 658.5975557276989,216.51035043529458 657.325552081717,214.52299028296488 656.6270264607328,209.38074391422072 654.8745669943795,206.39772177591965 651.4330826821433,202.50686861311294 641.106553390606,192.77183416583534 641.5934105965902,190.57687046866135 645.3836155279929,184.0592713302609 645.93919127541,181.7112708162805 644.5332374996732,176.3870778783546 644.494736994434,171.96790793521302 643.1694547163855,169.60432816037144 642.8356526580582,164.64697405132995 641.5596393505847,163.17617433257283 638.9707848044169,161.88058468647 637.1381872489957,159.8252817054523 634.1096660255362,158.53633605820562 632.8854331517546,156.94428513102594 632.5261073920831,154.35668952866433 634.9874260581344,150.23584919139319 632.7690583444739,144.1000984633879 630.8439786748688,142.836569534992 625.1258682949831,141.33413790118755 623.2886096227979,139.81475308128802 622.2619661519848,137.87959162097195 623.0938383779883,129.87489986029334 621.019743627936,125.42909933154488 620.9824970530472,123.56777653702352 621.9833587050324,121.7623311611095 625.5343648880084,117.95081231908841 627.867406197561,114.0006962184882 632.1716835019382,110.82455345554786 632.5612565101658,107.36078404327202 631.79397105484,104.61282138267961 628.6614628391964,101.55745067282385 627.3493369746645,98.74850269885701 624.451502468474,96.47499365590261 623.0746569342252,92.94073005306552 620.8075309744436,92.02250178356928 619.8384656624388,92.7307998796955 619.6680423838546,95.47102304532916 620.3865586652303,99.16064034505018 619.5303650303374,100.22746131624365 617.8940029887976,100.2899002850728 615.2291146262859,98.85631910171458 612.6367019056327,98.25159968966739 612.1050633138191,96.25323012710464 613.3139605457106,93.00050611644588 613.3309844335424,91.30222991639346 610.6788440602912,87.39511584568072 609.624509520696,83.83139307259796 608.427055735275,82.4338137687107 606.5385860522006,82.32097130315526 603.5888851871508,84.98712800578369 600.831260588888,85.46270549246674 597.4792663205642,87.40020072631273 594.5658485802192,87.70329227472166 592.8396566967788,85.68963837197612 592.016871782189,80.98284294490475 587.7139508094118,76.90499756338386 586.2767420461723,72.69064247611561 580.6883295921702,73.02584986413353 577.7040051295894,71.71197736524573 572.3994630697212,75.7435687593636 571.6414839919447,78.40860608758794 569.6473216005388,80.64373122757786 568.7754540419023,85.753513726042 566.980751707722,86.10186444878593 564.918164007904,85.5252142657929 559.3245888834786,80.13070359273308 555.4813237786414,77.5774060550408 551.6385624777233,72.42746659398983 549.273010104144,72.31992819484435 547.4370299743362,73.71987309688541 547.2462864900065,75.30330705879408 550.3110043324137,77.16872641063424 553.1083790196376,81.04164564475036 553.3033910134952,85.39440006472375 554.9082522311343,87.15275466625508 554.3769473076597,89.75977212414193 550.014421701937,92.34584254417837 546.433135011295,96.81487074083157 544.1468471767089,96.37374263355628 541.331932130225,90.89191055341553 538.5846632504893,88.06033104825883 536.2791513153281,86.9920561482196 534.3885945058029,87.31813464860272 533.3670077111138,90.56325934034146 534.0655935726085,94.91777092685902 533.5856684697579,97.96550390773473 533.8565345884862,100.99633140786443 532.2400638089044,102.58348454791849 529.5222751974869,102.42040518447334 526.5903975660675,99.85468205774498 525.1238821047858,95.18712728952778 523.5677423496392,93.59803945452711 515.6456212676885,92.53401809276829 510.80049985276565,96.95955355763158 508.09040224775964,102.78436955431926 505.6611127007548,104.85804320466582 502.8792048836253,105.42286478281676 500.55654403757006,104.94173771000271 495.230406775675,101.04643650297385 493.06903570249665,101.09964535001757 491.30338496487667,102.100995872397 490.20600995850157,104.99504906377024 491.4015389154547,109.38998181289514 491.24951543301535,111.11018621502012 489.4412413281581,113.93827995486129 488.3490106840844,118.12434735720649 485.5423592021002,120.45176357239177 483.5748968772571,120.6527070403323 481.71115150003874,119.68753184327636 478.9648380229569,114.80805684189863 476.32744010828475,113.17433408291618 474.9799423136505,110.49956460852673 473.3964338850227,109.11622469395252 471.1302990474479,108.90145604540157 465.90421518159127,110.38941941179701 464.3809470156317,112.26332731853677 463.30168927375837,118.74927209306588 461.5590842923459,124.0918976994709 459.511071380897,126.68036449412432 456.7269346275764,127.86499854821625 453.9229963440878,127.34376822582806 450.35055197578833,124.14524299834807 448.36456815713325,123.51226124892503 446.77255634927684,123.88554257373835 440.2522015563489,128.93328332391752 437.2314220055205,129.04509819962675 434.46566460320867,128.31818419445142 433.51509793740894,126.55277527134729 433.5959797445752,121.59433432791445 432.333708603489,117.11330947014824 433.2859531231749,112.78110860718186 432.8866667892073,110.67657274539272 430.5835536486476,109.16221383312893 423.40809880386183,108.7646681721028 421.21878073532355,107.75743467130553 419.5624575085026,106.11987419025752 418.45097608090555,103.81358223867721 418.80654343071245,101.556753223506 420.31825408030704,101.36206713944864 424.85258989699935,102.45094591200586 426.8742980435872,100.39795995345003 423.68575226544755,95.81524355073839 418.8664850946986,96.40390261269556 416.4331201470126,95.13111348356085 415.7267284248793,93.45033309550422 417.2339734640599,90.66530259833644 417.3724410501035,88.86718641384402 415.0065655642054,84.92862757143575 412.7988912655511,84.18564715476043 409.0512048056444,87.34418995809415 406.250334138078,88.00485524883015 392.7226949476703,87.29774316317514 386.95282392927857,85.76534182083628 381.4843721682273,83.46014010125725 379.3927747528716,83.32761941486808 378.51609181088963,84.7100147846404 379.462119250259,92.45686512225723 377.9601393018599,94.14385699975094 371.2124889252657,92.14331073390792 363.1840765572726,92.5079234339571 358.245046617564,87.69240520673179 354.83821643199843,87.26916600079312 352.7900157980031,89.12088260301243 352.8924400720628,91.64955517812052 355.879079157137,96.51747740652013 357.85020980975924,101.1100363104863 362.14062375762046,104.84065274404566 362.44715460314575,106.44515874952276 360.7368143396325,109.01738855607323 359.2899135159108,109.37530707352039 353.5465557611074,108.39240212067739 348.98840594565024,111.57193932837049 345.36614197228994,110.4511468764398 341.78065194969645,110.62976968383566 340.4180453575378,109.76281901930986 337.16278918655144,104.00840224047431 334.83006966828054,101.14270396162533 334.2361256565863,95.6540038215428 333.000713768735,93.38260643240017 330.18466909443043,90.9160441134452 325.87909773755354,88.61870919934825 323.6154364040751,89.04933892435542 321.51066830127877,87.9085240002803 321.0451041364279,85.88588198527486 322.1325176685522,80.45320382579484 321.6387818556809,77.93234760076575 319.7360889266175,75.93836525951667 316.0589314925747,77.05072590947611 313.00954195047535,76.1403793440171 311.2186119201519,74.53723398378338 311.337477374926,72.14425640058471 315.3336431562085,69.84633082224923 316.39155785842956,68.32080238427739 316.753788748345,65.48929927349661 316.0263389710571,62.354341151085464 312.8612558985797,57.37752593537266 308.4062929305061,55.06915037210149 304.96646121957934,47.422834026963415 304.1160521422557,43.192555349287886 302.777581677927,40.246226512390535 301.4402412261526,39.076302096237555 297.40792261802954,37.16141572782192 290.4910302295936,29.67706538870766 288.14699457141364,25.945192399001485 287.59888950645967,21.646293494583233 290.1849509028474,15.92206427344638 290.47440357747973,12.113018527880286 291.56530856871353,9.471010089223228 291.9183193867813,6.955756196446828 289.7331748902921,1.2971656274386305 286.4974210254291,0.0 284.66908645048557,0.5789633731068307 281.9899178327458,2.5667780355048535 279.669371459209,2.756509320962664 279.4784137249716,4.320537420331561 280.8942644596521,6.817065297437807 279.907662766743,8.286499478848214 277.48974982615147,8.143904550252387 273.52081563811987,5.3651017150586995 270.3776648638337,6.1893254556611055 268.4919536630177,8.161811188619595 265.41806293619766,12.980088002890398 262.107031088246,19.47082365171002 262.26006701082963,24.074587732938085 261.2124214816377,28.326272727214246 264.03624101152684,40.46349206602281 264.66584881167967,44.53875517841766 265.3837572419238,46.174906521750245 263.94582302656295,50.75739928456949 268.664531581083,54.28836682012468 269.7578740403221,56.45884741325017 270.1911255719785,59.56580804618693 270.1350792225414,64.35715677001667 273.67342428584766,67.21363550577814 275.53252834744103,69.40675472969531 275.5625148997179,72.5599124156048 278.0726356088433,75.03066068050111 278.91309972543,77.96232320210288 278.75838963110857,81.38131744988414 277.04318187724243,85.37427691236223 270.69298373043574,93.68075721909054 266.11292437276956,100.48281085982626 263.5271207660716,102.01471381887916 260.90934219188074,102.81572660612767 254.6369704545281,102.86900920563596 250.95794299432671,104.75605506488864 240.49999057626914,111.8488758980642 238.13703540371196,115.26055988850112 237.5557867250985,118.05325703556503 236.18751605003902,120.99703163581341 230.78332020358553,124.66088073801541 226.7484419894173,128.9595857753792 225.2231681984881,128.52030435633583 224.66670513963956,125.41610013014429 223.45856711942017,124.40485527840997 220.9330014212208,124.80147100722911 218.9406994842122,124.20620017001909 218.85093642774874,121.2708672328838 216.00037169638594,119.0739629711494 206.89222673130044,118.77122672660494 204.83577405473514,119.7953650401123 202.13925294676005,119.81215581080335 201.03085070329803,115.80654423205124 202.01630913005138,109.33742099275662 201.74321542794883,104.27786434212055 200.75872000792197,98.80958863295928 199.10475344382078,97.11322772512165 196.89816736315873,96.69882593901264 187.78554202602967,100.52332587373098 182.41381649891184,101.28728453490658 175.76255607230146,100.92142865806659 165.396804577621,95.5226053360052 158.18153926501918,90.88279078476876 153.04366302697287,86.49857999441429 132.4901347441405,67.08132794332357 128.92932426158472,64.99836185303116 126.46703020352693,64.5372655585453 123.3371243091394,64.8959873868422 111.37829269608032,70.33958602976077 106.79841137520525,71.1522851618439 100.65650768372915,73.83678929005248 86.08441610653178,75.4292114418065 77.77548618563002,74.58616279021317 61.7740546069084,68.42858962219327 54.34379968572054,67.59858908804961 50.43793268985314,67.91424819293161 45.99728191343801,68.90503540732118 44.995923040640136,69.9473204450162 41.56074132707589,81.18769387395866 36.20802066433052,102.20236055284488 31.822639577471556,102.4130791173792 26.4482750901624,142.16056462082406 25.757229408533867,145.5376863442957 22.892341783305113,155.25768170996537 10.271436335414846,156.22861242603005 9.250371978360143,170.9392979610867 9.51232026792523,178.09822030696228 0.0,179.42723107014785 0.48637015801600775,206.3988211284261 16.910896968195733,216.8017436675354 21.396482154867133,220.60561754574223 22.66697162097522,230.96655495190134 23.77988266524869,248.5448264816295 27.96629576277703,250.53734717266474 27.05430157741715,261.6337746757669 24.369497873950642,276.0619437183667 22.586839075741935,289.0120443959711 23.129365700828142,290.22984928882033 29.81568545901306,291.2960649053786 37.069394023809856,291.5006762571428 40.65274804469063,280.8913109624605 42.033540949045445,279.0076848261577 44.851663628784465,278.36219579790543 54.94686950763155,278.3868875585542 58.39398247613478,279.1167213654479 59.61087666795893,281.2719645673909 58.865382606989364,284.8606532019443 56.89568122019951,285.10527932997223 55.42819821858508,287.199515486623 61.66760275741956,286.89540328813945 62.727448013756806,283.19338767876144 64.4370554170951,279.2782698787195 66.52143743063834,279.3212807854118 68.30849339751943,282.1330823077554 69.05625479675881,287.2457489510744 68.01733007394728,288.81667897292476 66.85510353688255,309.02031755395876 67.80049999454971,310.2178228366352 70.8488421740032,311.20047421431684 78.33989737796526,311.90255215268485 91.46636025514394,310.80917637391207 94.11360482374603,307.2708210004258 95.39033718803488,303.84008960869073 95.70885425910436,299.8187362933173 94.47255376139795,293.10244464583394 94.52778558094731,290.89486777384053 108.26872576301719,290.9305672893153 108.90382548786704,298.7528572338997 115.93325551403275,300.36438975721927 117.3502708164306,315.23167647822265 118.66753477079675,324.8184001787335 120.39169670757954,327.5958138029699 124.29640734666907,328.635985604697 127.43014138296977,330.3572515212979 137.54587130230672,338.35863291818447 137.95272089579905,340.5412019837457 137.80847125553635,349.8840467326657 138.7727823197077,351.5341465631426 140.28387911936198,352.28971598539067 142.01924888857184,351.45642261806074 143.01256482530835,349.4318291892233 143.51927648785482,343.2198026346407 146.40163907317566,341.14163950288275 153.3164058821191,340.3203840213622 153.9795173498367,325.78651780295763 157.05048872563904,326.3752997947914 157.14290977314624,338.586789385483 159.7890352295334,338.85930444254495 160.27386394982275,333.376568269696 162.70937316699212,332.9774624703501 162.8150446236379,340.2412448253592 165.2459578592781,340.1778896934478 164.94308007245505,331.97159779051555 168.0327080482209,331.93428350373665 168.69094432266564,340.09299835903386 167.3242240071745,351.25337089651896 163.59701410041765,354.6953391410373 163.75182128257023,360.8495185520618 162.80824116697073,363.7282950522363 158.83743710114499,370.1279714958863 166.45886766235924,370.61946381775107 165.18181084636146,375.3357843835095 144.9523645260764,372.3503200302167 144.9086317121265,387.50982789179363 141.96442293372033,388.05522384448625 141.77479930674934,397.30626485576965 141.1744794246824,414.9490854020354 146.62167325861034,415.8992970045658 151.98956718053915,419.6957943663436 173.21719741497907,423.44041915400896 183.33473888078458,424.23830264109444 185.4010722966709,419.3063779311247 188.96172136682137,419.8577869870696 188.95354970003396,424.28882846326826 222.5215890555921,428.5720275008253 222.45806204747223,434.5193995887643 255.7599018515795,439.30289155311505 258.4979592722514,452.2705441854716 255.09001634399752,452.16983477554044 255.21350164428193,458.51673097921747 257.99990258202706,458.5990708951946 258.4235482832342,465.3165633036854 271.39018105224625,466.8234753819413 271.40409094262714,476.52605046495773 259.3310908581918,476.16951642207704 259.43273982170297,483.25860029001444 247.6810960107918,482.91131547539646 246.48403747059345,491.8352818324974 232.85644296062966,491.80042543457716 232.0251415830734,498.86839809102014 226.10268763589954,499.8106282951502 223.1412194137598,516.1431207779754 220.59707336757842,539.5740759996357 224.61653543766616,539.6930482595255 224.17532712937512,554.6015144556723 233.57871487598914,551.1525687321316 234.6494002674684,598.5712538117239 229.99669423705396,598.8083200449196 221.03801864864343,719.2328836406986" /><circle cx="745.62581304645" cy="416.5633802603365" fill="rgb(100%,100%,100%)" r="16" stroke="grey" stroke-width="8" /></svg>