<?xml version="1.0" encoding="utf-8" ?>
<svg baseProfile="full" height="1024" version="1.1" width="1024" xmlns="http://www.w3.org/2000/svg" xmlns:ev="http://www.w3.org/2001/xml-events" xmlns:xlink="http://www.w3.org/1999/xlink"><defs /><polygon fill="black" points="495.6050858457717,671.1945567389648 499.0719808777391,670.1499620133598 502.64674501952777,670.7138062619401 505.37569577365866,671.5647515331191 506.8175093752207,671.376446327334 508.1645774893699,672.5419497116447 506.49164775785823,674.3363574026358 504.6590899177258,675.5736300997936 504.19449506221605,677.9349026850964 504.48215971894825,679.056888567396 507.69993848698005,684.879618051065 508.54946219162616,687.5820323059538 514.3365784455099,693.8499159976069 519.1983381744443,695.6547230111555 520.6427831535295,697.5458089850049 521.9219093884948,700.6312324357815 523.4089271042501,702.3793746238854 525.5885310225508,703.8054907492553 526.3383193668637,705.1009336817948 525.0783943351611,712.417400965324 525.2925301758272,713.7839986901031 526.7838717076825,716.2402569248 529.3911741344469,718.260520476793 530.6635983873252,719.8383655221991 531.4412657973656,722.7097806313113 534.587561402353,725.5094299182535 537.2381313023069,729.7457929870569 538.837102899846,730.5770496528655 540.7708446249845,730.8469036731814 543.9069138855181,730.20039828616 546.69416190996,728.1854468550862 548.3792652836204,727.4420384001328 550.2884815369679,728.1660555427374 553.6250767712327,725.7263927025779 554.6883639594591,726.560743832773 555.5406484112864,730.4607482280683 558.2870885080395,729.6414036658955 564.478805225264,726.8372860438344 566.143187865993,727.2473358477846 566.777276679407,730.2353777643186 567.446649146411,731.4623329437894 569.813291030147,731.7012401775338 571.8895678967691,729.654359610465 572.7956782084681,729.7203830511038 575.6289292800913,735.8187567384523 577.112870768345,736.90963932926 578.2046140056669,736.9017335644783 580.1717554079225,735.6284870205965 582.3149060910426,736.783137336485 581.6506892245305,738.6823672995632 581.971435469471,739.8060509274045 583.2729825305859,740.5409134411676 586.5772427161756,739.4806559647751 588.2687482479462,740.4801218145946 590.1681100814519,745.1303146780543 591.8994605061753,746.3149676898622 596.2180010398562,747.2259738910627 598.4723751794121,748.7689260469168 599.7788612955596,752.9426708096851 601.6757366619167,754.036146679607 606.664266474296,753.7121893588322 607.8827496503468,751.9514935609984 609.468336767023,750.6912100758236 611.9868838311785,750.0527012800025 614.8947905138258,748.2629561007802 618.1922156992862,745.3468374095836 620.1069557263783,742.68119687948 620.0621093450799,739.0573275563212 620.4168507575157,737.096864718417 620.5805839271574,733.0535252243233 621.1360061516268,730.4206682982904 623.2733571166833,728.2037782557682 624.1887938988992,724.1666267503297 625.1790817857278,722.5646022809022 627.6931725715293,720.8816133501231 628.9737484103734,718.962161175824 629.8777115649443,716.4245858653265 630.2135033816343,712.7125719174554 631.317384777728,710.9773797127214 633.0556357483291,709.7687055642486 633.9967646473007,707.7289724773269 635.9828215963006,700.7030514649161 635.4174418088985,699.1574908922253 635.5936935660085,697.5761900434893 637.766151873965,696.0335894815735 639.1273050317875,694.2166596516836 640.6631084485504,691.0108259514502 642.7363409707291,690.3019196029982 643.7012250619542,690.6874581967571 644.5173227788729,693.08424066136 646.7471471561917,695.0706025194377 648.0280252884065,698.7087606247992 650.1074593030853,698.6810019165815 652.8196269197439,696.4011306989382 654.2510844586717,696.3020812056402 657.8205191627223,698.0189040024818 660.0907600267478,698.6074550303222 664.6061427637377,700.557659155337 665.8949200308132,703.2780658651914 664.0097135803446,706.5244801148613 664.5712909548755,710.2676119208792 664.362690244313,713.7028468158835 663.344201678261,715.0941517016705 665.9094113493798,717.8910638200572 664.0304692906057,720.2288483822373 664.7085737891158,720.427123823098 664.9625000780727,720.9258363353559 664.2394414862059,721.2996177552244 664.8854419212546,721.6913660813422 665.7788686220945,725.0754798159662 667.4945364889123,724.0425670196389 667.9364198723264,725.7812817722809 670.2240656332008,728.5512174149903 670.403484312965,729.4536066596476 668.6768725876564,732.0285870555027 666.9443868724967,732.3962703120523 663.6527147599123,736.4353887491689 663.6862542434325,737.6320194472925 664.7656800154595,739.4423214421872 667.8366278423017,740.6848906097167 670.625285195248,744.0659900178475 673.614957820229,743.6641537437737 677.0315557306234,745.6079338238269 678.441635888279,745.8027357950167 680.8455808397359,745.1694054645111 681.7386663423298,745.6217313380297 683.3172460720173,748.3709735763499 685.2478679787766,752.4956883433165 685.1904642839854,755.0406813458414 684.5114847564673,758.1129315929027 685.979635097272,760.4403692282715 686.7520334546726,760.5206581657524 690.1526924945402,758.6962964010936 691.6354119264315,758.8320808566039 692.6348694859636,760.3897423046992 696.6568602077839,764.7301908639112 699.2116594915035,766.3814603864075 701.9063439677946,767.2076604059299 703.6793940074948,767.0497263115551 704.561399396129,767.7127639831024 706.2723789033604,770.926767688383 709.0938842247369,771.2215542772342 712.729593639371,769.7847375964477 715.4742310687246,769.0760919735188 716.9854954049175,769.6498671827503 717.676246212209,771.3148917008946 718.9824202983365,771.7273560865415 720.4043357192554,773.5398599399831 729.1300139894195,775.5960563676749 732.2271925949129,778.1937581911773 735.6148097974423,780.5649805220758 736.5651292857834,781.9783738359512 735.9172408152448,783.5771748223037 734.4421530016436,783.7962535611792 730.0053503694486,782.9448433196413 729.7272987401079,784.748080590055 732.1398461862998,788.227474614894 734.2049090026876,789.3519703021781 736.499842567817,790.0224235246188 738.8898596180146,792.1020340193364 745.015233727396,793.3580458468796 747.3426110368338,795.6898247013687 748.2631431911321,798.9163756569972 749.8520711618065,810.2780031901059 748.1441449947285,813.4325414873706 751.5651651884248,817.7447859804671 753.9512776632412,818.8117462651437 759.862412850777,818.3026552431669 760.3548977711982,818.7523466697944 760.8349727502514,821.7160790474687 763.2442479889112,824.4536728008758 764.0994751113652,826.6184132728404 764.1707164488729,828.7872438305361 765.5283958788029,831.5112704453093 762.8267990015411,833.446753495742 762.9564670376915,834.3504250523898 766.8228754841301,838.6229317674631 769.8863625169743,840.6809908474432 771.9800523686719,840.784218595896 773.9135347960902,839.7724653411976 773.3773509530987,837.7022483736785 774.4789926909486,836.0200040131729 774.4234189360873,834.6608641646073 775.2036406811715,833.3569063124631 778.5391569594306,834.5969458158745 781.6995081644818,833.666885668083 781.956338941646,831.7188806037451 780.1462927739634,830.6888207215471 774.6338905794012,829.6411934797104 774.1369690733154,827.9678701377542 777.1398597381055,827.6282705624026 778.0974901055969,825.7764902414715 780.8369644542469,824.3474638650866 783.3360498681692,823.6844095903438 785.8518758212628,821.5366714551527 784.0339956541045,817.8917024414028 781.372055337395,813.8714393898146 781.4986655845199,811.1898065442487 784.4602664041565,810.5881065910547 785.0104160643472,809.865211882637 784.7144932408441,806.9959734313868 785.8579714098914,805.1032354664743 790.1858490962325,805.42756866113 790.4910819629265,804.0458405034943 789.9053613707546,801.5296226190852 791.1204478376462,799.5449562972701 793.9152132573672,797.0781022745317 795.6293423153662,796.4370889459077 796.8514639119628,797.3450810100811 798.0177894941866,799.2224352913652 799.458163515707,799.8785265929006 800.8303881914178,799.572731461193 802.5917711490937,797.5647758382071 802.8585493519225,795.5164613763679 800.6213184891398,793.3815266941052 800.0681628408178,790.4190299636787 801.3155632704311,787.9877921130684 801.2612981814488,786.3428277731173 800.4281334613114,783.691692596946 801.1350606667804,782.3036309718865 802.9344948611007,780.870026771827 809.6985199076536,777.6286135540346 812.0772977580834,782.7400299834716 813.4555003667818,783.3276505958925 816.9511230952388,782.8369472036092 820.1801103227721,781.9233164795523 821.884138501041,781.0704247415655 824.4602633980364,776.1569590528717 826.0385275316515,775.7082293930561 828.1139227744493,777.1166940260799 829.3043060473404,780.9322071471292 831.3808017569523,782.1294449200418 834.3670806322342,780.1429521065978 837.7321367154744,778.6385731442488 843.3354754576515,776.4681791534447 846.4248244310976,774.2292872173434 848.0304985327829,769.1604773897247 848.5066732010129,768.5382596406237 851.8287321505409,767.2777044257355 854.8123634479357,765.636478456612 858.9030026964309,762.4820443031066 861.3067802783271,761.5047796207191 863.1471028482091,759.7077637393398 863.6604069079502,757.2228905936252 863.648394765608,754.7872389998786 864.300519252061,750.9383792598571 864.1276467345253,750.2720447088063 861.5254886798914,749.2259890439061 860.7369368676169,747.900448340728 861.3208162517443,745.9476759909761 862.9315168192725,744.7396057822255 866.600689150349,743.9608829412334 868.123665056307,744.3198617071346 871.9953490246852,747.4337587429638 873.6827664147568,747.9706384354923 878.7708639325266,747.8442097825468 882.5494866731933,748.1677968551912 887.4622889995641,748.2424841396914 891.851545661195,747.4725956725559 892.3103542935141,745.6032324881755 891.6876369248084,740.5875179482022 890.5922537134559,738.4779972314174 886.56131695193,733.2841316525868 883.8329870078302,730.0402727215487 883.5104963016232,727.7649249479354 885.5127627806468,722.9442599273507 886.7858352295091,720.8171780505506 889.1903277086449,718.9383304714778 891.4433615317625,719.3494407427957 894.3654147615448,723.2075963020213 895.8244466336151,724.2227135810878 900.0833595368015,725.2628476574278 902.0190257173638,725.2435577945155 904.9140529916228,724.4852346238072 906.5860026880076,723.091869377769 907.6044185448433,723.2460569419436 909.2776292028693,725.0704132985599 911.1693675649474,726.0863592303411 912.9413586448625,725.6359512067675 916.1419132345685,718.2748289467829 917.3982434091,714.2688392576428 919.4388719464829,709.2971036004215 923.5008703461224,706.5456229498105 925.0968255787361,706.431333673662 926.5865299764545,707.3193799684122 927.8639584800029,706.8760305907035 929.3708013055838,705.1957948055581 931.0055214977033,705.7895234940587 931.9989186200702,707.939188866747 931.87568378409,711.9980277671709 932.3034415923424,713.9022007569597 934.5767823835604,714.6742206651331 938.1136353499093,716.4174629688749 941.90248554408,716.0131792844627 943.9125563569148,714.7036339971447 944.8365296006361,711.0762438885208 946.4251250763833,709.4038693953066 949.2153462138868,709.0305942805868 953.1759162583932,709.9991595079996 956.3065080347733,709.1124879224055 957.7572955138982,709.4441962864726 960.2629902291989,712.2446606340108 963.874355145411,712.8917569659245 965.5067568994292,715.3117174318993 966.4660468000047,719.7020351135747 967.357616410588,721.8851727270687 968.7036946834814,723.235250966855 970.4440743013773,722.9431786749884 971.7884319488348,719.4668523676405 973.0893195569172,717.2876146498558 973.032349419112,714.6096761157323 975.2491270389961,712.3983429473893 976.3082601302282,713.0739508233727 976.6033767630348,714.9775805616242 978.497212417348,715.1912137089524 978.9824899768008,714.2155324590223 981.9574473418446,713.900232608878 983.6653270363255,714.4839489824303 984.0893036280615,713.2546715670946 983.1252240890092,711.1818890949226 983.3633911282652,710.2387906325166 985.5069574603056,708.2044581665299 987.0710798332063,708.358161133868 988.7984542323768,709.573237441897 992.6205092595474,707.2969938401177 996.2537232515755,706.9987447712566 997.6856065553718,706.2259635931225 998.7081891593543,703.1621239556373 999.1972252187744,698.994671944932 998.3283335463536,694.5900297137302 998.617556447572,686.2479747920063 996.9746446216137,683.6277171256613 994.3835811158275,682.4452963881548 992.6095486958209,678.4110751672781 990.3192950645089,675.9671964793073 989.3568140358782,673.0699603032457 989.8415527529295,672.1197184004969 991.4156416888712,671.8442507715135 994.0053655266852,673.624026622177 996.6345560698661,676.6828898572974 997.5678450986323,678.6875562341171 998.1906782151275,682.2823180686286 1000.6083604841127,682.2518470910796 1001.3298286210695,681.0994249933168 1001.4370492000809,677.4888143856741 1002.9430061191119,674.3177623715387 1003.8313190085746,671.330871382755 1005.396741418405,669.666282386675 1007.6908642213648,669.5768452805423 1012.5338798628964,670.9704566443315 1014.3731017968158,672.6221241490978 1015.134055791592,672.5980175357934 1016.1030746531163,670.8652694453788 1016.1469616737596,668.1133463787655 1017.0544853914743,665.6905014920849 1019.7707128579419,664.4894165422646 1020.2975776638665,662.4117812065542 1021.2954632090009,661.7986967770407 1023.0222411378287,662.9611355877937 1024.0,662.4912232031431 1023.200606524748,659.2421817757154 1019.6563032690392,655.5788620197796 1015.5360639189914,652.2254905850657 1014.2477502601482,654.9337628762307 1014.3901573487185,656.5742652737428 1012.7754425401139,656.9343509154307 1011.7274682647804,655.9660532216122 1011.4543451950445,652.0193153577796 1012.4642878929184,649.6900571838689 1014.0602870004446,647.4710168066882 1014.5589778577871,642.995757680839 1014.236304498805,636.8126252372248 1011.8617811978286,636.5410115128593 1010.6503625402376,635.3371032628356 1009.3279022349541,632.1732046009978 1009.7622076886985,629.9361092038115 1011.3068916898527,627.3894989050746 1011.9877384166737,625.1196535615146 1011.5346880743901,616.6595002535586 1012.1875653483044,611.7497067500079 1012.324117561532,608.7568368371183 1011.2204936860936,603.3076368587421 1011.3082885328837,598.6002248546324 1012.1645221474495,595.4742503723139 1010.4734889502391,591.7656326949436 1010.7542220972282,588.6477375150976 1012.6790259267266,585.1866478646821 1012.9590022628962,582.632345629225 1012.3764490891674,580.3293192994086 1012.6154000376017,577.8086001246943 1013.9211148408732,576.5408092156532 1015.7082126743024,576.3577431307508 1015.3005591777865,573.3069740306385 1015.5384185153234,571.6855231085145 1019.045680012793,566.2024705032175 1020.0845464941802,563.9857946255984 1020.1785468153288,562.6749463439944 1021.5875281903128,560.0133188571226 1021.6227196707353,555.3176278183543 1020.999238788201,552.9143629744856 1019.8505433582997,551.3762363603021 1018.0749164530965,551.0805190163219 1016.0515169160493,552.203798932868 1014.2527175307496,554.4115057860579 1012.2626358376931,553.0230392970691 1012.6655237521685,550.8225915414898 1012.4115588756263,548.4788030719026 1010.4314573342624,547.5274741418548 1009.7553084768033,545.923050810826 1008.0530432440871,544.8287224005041 1006.9669222647353,543.1901532883201 1006.9906472509938,540.4686408983356 1006.5928797225337,538.2847033192281 1004.9945023706678,536.1833766278123 1003.4256027839414,535.1569605141108 1002.1470282635813,531.7126197417654 1000.1039717734411,532.0624769475269 999.5892732984404,533.3970421908218 998.429056484789,533.9080526085354 998.0679857414648,535.1587341780632 997.5274433021868,532.8319243597907 996.646004437925,531.9993168617709 995.9260264472878,532.8801871679777 993.9790649937366,531.1305780112446 993.3782183538783,534.9922119863784 992.0238517476272,534.8140299325828 991.6014220881235,535.9219684991115 990.0524500713426,535.4245972864608 989.1306497825717,534.2387049228405 986.8184944746772,536.0406608514975 986.4165147966557,537.0981495993932 984.0566163641474,536.9269597845946 982.4532948770486,538.0915095905874 980.9451170641762,537.7029577875048 981.9840720619133,536.3357633423312 980.9089212591487,534.772093986048 981.3211108812579,533.7819174632152 980.4403180531906,532.6800331563281 980.4437560139462,530.5725470247448 982.1594033898906,529.483585891044 982.4435195513613,524.9919156438104 984.6038570433129,521.5619328881443 986.4317382892507,520.4898410183629 986.9795138172939,518.0730360604755 988.7541274231671,518.3024090793264 990.0322404799205,514.4087994040815 991.5121716973572,512.3713484525174 991.6391538177023,509.86171412601016 994.3499828939114,507.93495069625453 997.1658662826464,504.2706404193699 997.8058045242485,501.37618021735454 997.4609943217415,498.3035154634721 995.9658196199791,496.55580503754607 994.6255217428027,494.24652054902276 994.7200172999356,492.90392569685946 992.0935586607221,493.5547417436293 987.7857060434789,493.6492646682457 985.820872289349,497.46456195915243 984.2928405501973,497.3195622518962 983.1560608168824,496.31071972019254 983.2650182026279,492.46705274226224 982.6228471483573,489.9823532178546 981.5870693162848,483.55351449925837 978.7448023544492,478.4893115750294 978.279162654718,474.9398779761594 977.0829196302437,472.7985799142372 975.0049643408346,471.04187004468355 974.0569662399156,468.02031012458536 972.2848743138437,466.9266860507548 968.3587133076016,467.1039435627889 966.6677194357488,466.7489342205679 965.6865430362369,465.027565492082 966.1651429783392,461.5134221654522 965.6413361668525,456.4553547651184 966.1269304472157,454.34312780906936 968.8185900369567,451.1108344274951 968.1870525549344,448.970997088793 965.6571724299125,448.0526410919188 962.500012566628,448.5161948509176 958.8731799390998,447.8464050414246 956.6273585203365,448.6216176479409 954.5954758454254,449.99258257301045 953.9915492934412,449.5721890049508 953.8847081432634,446.8721459861583 954.4412607616326,445.2129261468518 952.885394658018,444.3794955137359 950.9270022669282,444.86985735473576 949.9763265494928,443.85328906819683 948.2859254917882,443.5731167368754 945.3015415738607,444.53064673398245 944.2272629062589,443.9752050387754 943.217644197025,441.7171606781552 944.1666925601081,438.8351179163443 943.2474400715931,437.57499651747776 940.8522096077561,436.4883618638495 940.4968475266913,435.22139365767083 942.6378611284578,430.72469434048946 942.2844990637624,428.57772300394214 939.4214643402915,426.19889390294026 937.5578757574806,421.34914212371575 937.4492395147221,419.52158578122095 936.4840070949443,416.2925646877087 936.4168203477292,414.4657249833611 935.3562095358965,412.50199023166897 933.125110332387,411.83457075043657 931.2379714847003,412.7934331686132 930.0044185710718,414.7266810346502 927.8283968096729,416.5230131911556 925.4304867377689,416.91926111838893 923.630358771951,415.73255027333647 923.4852751744747,412.57268948862577 923.8548640079626,412.0959545351952 925.3466083670984,413.54967823775945 926.1788982297028,412.5546927816958 925.5544047647005,408.41269604343483 923.3235185677563,399.88510230155396 921.2038485052655,395.9166453682567 918.7147091773506,392.51699009307083 917.984232683351,389.8842915369953 918.5731798901072,387.9508038252675 920.3195599824588,385.735137949657 919.7305799489749,383.8657718014932 917.296385600891,383.0296727627369 912.1565548828331,383.36747563922654 909.1576884486947,383.0657111551332 907.0420991119888,381.7698393066989 905.5956627298382,379.3865339170431 900.0592405157709,378.8844688753454 897.4817882415681,378.12311629172393 893.4644312597733,376.3769045744241 888.992383123118,375.90263569588706 885.209092757958,374.68413187346823 883.2097880886467,372.583730245976 881.8601241104465,369.0703624112697 882.1120005522425,367.1529171682363 880.9685242579432,366.1781776312217 877.139554108167,366.62566025400963 874.5755545657862,368.14162307859874 871.9727582437051,369.0282981295902 869.864641250197,369.0377940534195 868.3940802306383,368.0610481141578 867.7031818261207,363.75431845538594 867.0207432671295,362.8556712629032 863.8352149111546,360.7092889239347 862.5432093527204,358.57770345620884 860.201109155332,358.31819612840485 857.7714461198959,359.5150516544152 856.6145384850357,359.55249640092796 851.6272364192854,357.9175497038267 848.99571977778,355.6721921029481 843.8647656844172,354.0864876779097 841.8015001603452,353.2076424434457 838.0391930655602,352.4302834186395 833.0897582245186,349.1615019586959 826.1483588486675,347.70942743291175 821.965655375088,347.25625814338684 821.3436904768079,344.3655282503859 822.1498952346003,342.5023753178782 823.8238452729007,340.93564777682303 825.6691451503312,340.1064065085983 826.5160495668448,338.2265519112622 826.4270116712845,332.6014041344009 828.6878694506374,325.1867757016935 827.786144097821,323.1749863255243 822.9398454965497,320.46814685633285 820.0270562614684,317.71886771621644 818.8609362209048,315.3626056196923 817.3949229233724,313.9585646426701 814.4455355870101,314.87484576594 810.812593170839,313.27726953393824 808.7018479964548,314.1708685362364 807.4415865840175,312.441766074017 805.4912171433332,311.8386821107455 802.3582350187551,308.3270228361897 800.4237243957065,308.73657809670044 798.0740558731408,308.26529489600296 797.1089483719251,306.9889106627537 793.993731531887,306.32138932542364 792.5702588024797,304.6079972418605 788.3434332764183,305.49941182597536 787.4694561455104,306.49917120664816 786.41689658108,306.36011306862645 785.6922959583535,308.1970541215313 783.8952206442169,307.7117286881029 783.4668995866414,309.54200994721907 781.4966531462636,310.94607983433707 776.7298588065571,309.2485740713935 775.8246897219393,310.31527621814064 771.5991313300439,308.84619417943236 770.2995895691579,309.0232314754877 765.4954168348011,310.64688180618396 762.4809622051259,312.16194071913606 759.1025345348941,312.9386995134323 758.151337504179,311.0090057843762 756.7681550993702,309.65496787164034 755.1938784568016,309.59600534474407 754.4894467472229,311.2906866995054 754.0822467242165,314.6941989947911 752.7819400821666,316.8459010830542 751.7317094891431,319.9867792225891 749.8773566302232,320.6206223289706 748.8518191437963,319.25093369347655 748.0319523948523,315.84876867363175 745.6004391186879,315.43414042659947 744.2212329221716,313.40092738599435 741.9048349524461,312.4928713698787 739.6516426543182,314.9316545693832 739.0350898012208,317.2295792762194 737.7148780410122,319.1883916474877 736.8953181763394,321.28457791410676 735.2326770600129,324.0280354150201 734.3596799055131,326.42533945732896 735.0655785734501,328.15344765473935 732.6682870401828,330.65903918133006 732.1536985362226,332.89893566253403 731.0297254758699,334.4495311064881 729.6083680071217,332.6499360461863 728.4954160627798,332.3083340489665 727.8392678023357,334.29698167182875 724.3465551702675,336.7540805230816 723.8354840996025,334.90118601782996 722.4648800043847,334.8930361948251 720.0038062960454,335.899176021435 717.9711609234563,338.79192608818755 716.0985625097895,340.5046547357425 714.7253299165491,340.9067738588963 711.4807984510193,339.4469108682482 708.8247858482432,337.1702127755523 705.7284559134631,336.6321466275251 704.4755557717515,335.745472578066 697.3984645068124,333.84278917239476 694.2888920238935,335.40493803342014 689.4967714087982,334.511285595657 687.1922488300233,334.8979875862014 685.5773679524755,336.260176264248 683.4438601675566,335.543529639495 683.2663747766734,332.98053287730636 682.1159507181976,332.16942429756784 680.6313839516391,332.3439269454061 678.8749420921922,334.94386646480797 674.8698153661646,337.24397062829695 667.6703189508074,336.8349196964581 665.9600809336953,338.63131852994087 665.0700841474804,338.6251718603631 662.0879584741767,334.912756722017 660.2482999781337,334.6152650021525 659.2741906365118,336.42534327472134 658.2104423800324,336.384240565405 656.1667712593526,333.1801366536361 656.1434327621878,332.1503715335382 653.0848306279718,332.13740254341235 653.4095278299429,329.6033910998585 652.6216315971564,328.17514872038305 651.074258794822,327.1425951946469 646.7673353771676,327.27108982414154 643.6450007957785,328.9638406227658 641.5016365490322,328.37080492964105 640.2223485303813,327.0558956504998 639.0580296084626,326.8380600021885 637.639492882217,327.7401222969703 635.2274504047123,327.4706398057954 633.0871021211075,323.6801019237964 628.5615904637199,324.33260575738336 627.4385510105839,326.7683084607364 626.5540190273041,327.33903307201444 622.9666599003069,326.96859264184513 622.0219562650925,324.79376717953187 621.2095558447173,321.33929618668844 619.7926180408404,320.6837533131967 619.0246464446379,319.50621383865564 620.2421492039331,318.0848098242709 623.3543622213975,317.7398604066533 624.517091326676,316.7950809637325 624.7720454970452,311.5081474763998 624.4243222682476,310.14139629164026 624.975645744731,308.9490339441593 626.9813673219833,308.74685289808644 628.2607719312834,307.25039344613697 628.9811839027137,303.9090904728969 631.9204495614368,303.2534658271311 632.216827399272,301.8834801542795 630.5936381584798,298.85969259179194 630.6013636049529,297.8307522248306 632.6806995167583,295.9135318159332 632.7260847937995,294.0066116303004 633.9388563336222,291.74028278173046 633.5729847571847,287.32942597459 631.7104231084694,283.56823699398126 632.1274393426193,282.41716076828084 633.7493250277082,281.5348283034547 633.0190346524207,278.00821819883583 629.7360520097586,274.23693213002934 628.6767980141412,272.3976607008548 626.3960413609803,271.31837097686685 625.7948157521396,269.733541566873 624.6202606139736,269.67414689726513 624.1694471354173,271.1675057784721 622.6057839042173,271.18919228830543 623.048531812798,269.35257158607817 620.8949980287446,269.06012214252337 619.8995685116934,265.5991706960174 616.9400841094181,265.0661534934642 612.8219630628415,263.83003531667896 609.6302391151405,261.67282196411384 607.4355282370805,261.4050903983024 605.9713041907878,261.7697121564436 605.2175090998451,260.225175324617 605.3485622937258,257.8436468681666 605.9372002930897,257.0790497031238 608.3143869719963,256.2283209208641 608.3923117278532,254.1054913511689 605.764147310188,254.4191609362315 602.4471715766349,253.99966582360435 601.5856922351811,251.8612150855257 600.4767878056055,252.55431938642766 600.5467815957476,252.72181809322603 600.2386407560202,252.95355088896088 600.1675753160365,252.8526931576256 599.8557992707794,253.5359950276793 593.9716683423451,252.2008337501818 592.7296955481681,251.63881662881067 592.2000048382442,250.22985020522765 589.6543648251209,249.18929595571137 590.2854268661384,246.99626234060236 588.4551086178515,244.75744989537327 588.0766967343505,243.558981113845 584.9181232538948,241.3265217205942 585.573548470032,239.89429841788365 585.4880234890376,236.6924863483747 584.2310822802121,235.52842737645244 579.9397290271293,233.27005291151397 575.7282662666777,232.50701316432458 575.4781472889606,225.88649274304396 574.5565760085275,226.12971336654414 574.2197384458849,223.7454709352852 570.5002874035963,222.83609011830026 566.7288649541625,220.81537169948365 566.5938806943877,218.74987433152876 565.8342046177617,218.00828151319013 566.9265665283939,216.8478731546296 566.8941053200898,215.88706082119484 563.2732115354371,214.25173753485785 561.7042837029575,213.8699547810553 560.2779966296371,212.37933873861084 560.0539594729775,211.1489906509189 558.5527508776994,211.18631304749954 559.5736833541351,209.9836758060768 557.9500108219804,210.05292560491205 557.8068380059431,208.89864886959026 558.8167811496178,207.8466743330108 557.1193848878931,206.97963063506245 554.123143572652,207.53004762551552 554.3258711724259,206.54575779709637 556.2827425794341,204.60019766371863 558.9529966210025,203.9216160726587 559.7360240573498,203.12677386621533 556.4027146565306,201.44367636861728 555.4992242124491,201.97827907305805 553.24817813041,201.44073984168176 552.8053090233614,200.73540732647655 555.0000878689676,199.56878139921923 555.1590125051529,196.62127899590348 556.9760407250691,195.42633288214915 556.0095913405213,193.8729801950799 556.5014631505455,192.54114856294223 555.4408696781147,190.12607680758288 556.0942060507382,188.95451778713345 554.8398136968791,187.6826525594147 554.8965485751056,184.71866635772335 555.9491482806033,183.40861012329606 552.9240468904372,180.45909119675866 550.3620065121324,179.38418170086425 548.7853467119878,176.5644436113813 549.6398143249216,172.24710525366856 549.2200836002024,170.12291158735673 551.3543945356377,169.9164581203446 551.7198968846637,167.849728250687 549.1019082737937,165.12971514834112 549.3568927679485,163.98830049421736 548.2714649477509,161.03213229754942 547.4289602861058,161.6923549244225 545.1526928266235,161.81328305755142 543.462578791277,159.24400782315968 543.582653833483,158.3437130787936 542.4100264268224,156.07123318407344 540.7950669659974,154.16161243158172 538.8295001571703,152.71656717006817 537.816178570678,153.14149480825324 536.7320032637808,152.3553956045904 537.5887978685782,151.1865175832569 535.4988205562848,148.90548328962245 534.9151074653404,146.93039676053627 533.2510331817296,147.09011511187032 531.4931680238718,146.389889152578 531.8156154812974,145.74190325681218 529.87969492205,145.54019897953867 529.8876490967261,143.58736262779848 527.6811219697705,142.89967039662827 526.0228106638651,144.6284206120156 524.5350424357484,142.3195835868711 522.3776363727128,145.12809394167198 521.1802939463064,145.53418633594458 519.4954753329508,144.6586166722676 517.7660800187551,145.3262252728291 516.0074255510826,144.67535915311487 515.4119003338698,143.0008234481095 515.5785526579854,141.52541205401928 516.5133932818536,140.84969534699042 516.6838169546604,138.9743873152354 517.509590908746,137.93880363926985 515.512847749754,137.74476228983644 515.3053169411564,137.05007012336853 512.5938174674017,136.97432252457054 512.724027465211,136.12400323655038 515.1018488775514,135.92994448662512 514.4136560906175,134.32988335219204 512.9262256351391,133.12271822400044 511.6541777123948,132.85137771945188 510.2623125347179,133.40550738201364 509.3603680513619,132.8380393339187 506.70934204348214,128.58198907654287 506.26746413822275,125.79125568543725 508.86607997749456,121.70367792438333 509.2690051523673,120.10596284577366 507.9366570216177,117.63244350637308 505.1397324972546,113.82650697042322 504.72954056031074,110.93638050631864 505.1680738407634,109.8648060287909 508.11419262536464,107.74169790646795 508.5220661408922,106.67790250751818 507.8871047421768,104.88700316870438 505.91623240104724,102.09139251238855 498.54775563771284,97.966403018596 497.60850099616704,95.06351444941652 494.9037079249777,93.47752081113231 492.54568223249373,88.77630681451888 491.3494394546423,87.12226793317927 488.99572622589443,86.10637619996123 486.96483662234385,82.40928005940816 486.6651473078518,79.76365367398068 486.87811968736503,74.80574825979397 487.4812506023402,70.56131592904808 488.2750827125248,68.56831977973536 492.59385803986777,63.46954508665988 495.7326952011773,60.17535344837211 498.997109427759,57.55753508763473 501.7580998980899,56.35994497595175 504.00284784226204,55.94834662799633 505.62882483189674,54.18130206162516 506.57988227692266,50.6160135775109 506.4205600826544,49.18974921531128 505.0440975876381,47.31803302703031 502.1884863137869,45.73205508701608 502.6567660646833,41.587706742862906 502.339487602922,40.69313227713451 498.2653280711191,35.72971024035644 497.1406907772414,35.202143178713754 495.87339808295127,33.648978255736324 496.00251535172816,29.901857876397685 493.1524816807737,24.75953429113531 491.01822034848266,22.464352517072484 490.4611027030348,20.151903050046826 488.96674453591913,16.947276432065905 490.45154772427395,13.006928023021032 490.18207869666315,11.429969015649704 488.93387536169814,10.068687242961346 486.4887893620063,9.369357941895487 484.97428947795834,11.211132461879174 483.10830814531477,12.6163330534622 480.7113378319458,13.166323976103968 479.00287463242285,13.049200983461446 477.5863454747373,12.285254286970257 475.0022693676274,9.260927138266197 473.0465432500568,9.456930946627836 470.85796237065864,11.499466850920271 468.38907118447537,13.047476285605171 465.74447011081526,13.911383380360576 462.18027505924834,14.164957508159773 459.69671027558036,13.272846864321991 458.1711502422754,13.190065135408418 455.2709918989298,15.05817338042391 453.6707484312761,14.358347072503534 447.77654566791887,7.941971337455925 447.4851103174933,3.800296325302156 447.0754771883451,2.1555429435459246 443.2735552351977,0.0 441.8981228058733,0.14330992564396183 441.37200086376424,1.7611169254164452 439.5022321487522,3.3892015090258383 438.0590653184325,2.341139342916563 435.27091534254987,2.360435661084921 433.7001308787955,1.8017838346453345 432.6241645281966,0.649220385334047 430.9046726310483,0.6470591615468493 426.79524648034425,2.3751755382498914 424.08304274279624,3.8183468171521326 422.2327285938907,5.471040090917654 417.15984108090436,6.8799436977848245 414.15419396626527,8.153018787903875 411.8668890578673,9.717586873225287 409.0447699355292,12.674618670747236 408.90202412752905,15.396155320031994 407.0013333022482,21.379594329495376 406.17689623435456,22.302794099743892 402.9081517179927,23.315013891622925 400.7931802727965,24.87306711779047 396.79557525663716,24.659793214297792 394.1031317690159,25.994717785871444 391.6342074894932,26.440608073442036 387.81031550431135,26.17081910502884 385.2367422721948,26.87376323218143 384.53127038121784,29.722578877329397 383.55386872191536,31.4268027823299 378.83448125060596,36.219072607067346 374.98719754384564,38.697582026054306 373.42030614852274,42.003225518516956 370.7853775002915,45.19629454262065 368.8697842395123,48.65587650215798 367.43162173632686,49.71382791123983 361.76069428097884,52.11149583440442 357.3704543509814,50.54073546000802 354.3994361050969,50.31294085493005 349.6054851354219,51.74521979697306 347.8053349455765,53.19758305044638 346.36383795069304,55.25496315205487 345.462387495276,55.677360790745865 344.00703385171136,54.80876131392006 340.5455887766225,53.89067965447191 337.9362494459464,54.057864070660116 336.73439053855805,52.43403625404062 334.8572312972763,51.06892358230277 333.05976595676464,51.47916805156842 332.3072558230269,53.01163882934429 329.96046212158603,55.73999668641454 328.4917665714572,56.72998167583762 326.0293902826351,57.30723456443559 322.2807917389645,57.35073698943722 319.60541915222535,57.89134191548726 316.7972632266923,56.87125077856467 314.67361302446943,58.81938294907184 314.1094845596958,63.05436938560695 314.48219357607934,65.7351872894485 315.80709857107354,68.81961864503296 315.7257175103587,70.3942398742912 314.89167570704745,72.63448002966743 314.86994413521484,75.0933481564823 315.84764902470533,78.28228880112147 316.21128738459606,81.6807024229114 316.97809650062214,83.85880203275485 318.89042614043524,86.45165939061997 319.722905117445,88.27978908208263 319.35649445570976,89.85135587126649 316.5724390418097,94.71064209420922 314.524270075665,97.83671189460097 314.11615437334655,99.43263293060033 313.8113110424472,106.43537292267001 316.46983561517544,108.98871160450335 319.6312340418683,114.4099826856741 320.2516969655466,116.11136196942357 320.26352111029115,120.7755378990305 319.88474042198504,124.04969199522418 317.5177864200272,135.2425457039899 320.6224198443565,139.66420860939286 320.9395960852528,145.16837098694918 320.78967426556056,150.51701325033014 320.2096376901433,151.97867975888153 315.99791799383087,157.40097206187602 312.9899320330942,159.6580057197458 310.80448123787033,160.59851364504084 309.65251010857514,167.5889209411389 308.2654431805298,171.4617229587858 306.5010365548366,173.72714693445573 306.8034759020245,175.55968200619964 305.4009831653966,178.24722206895694 303.8561241104657,179.31299169931526 302.91585360089255,180.97914130217214 300.97879508763526,183.13375259472855 299.9081351473921,188.5157825936085 298.3106568479418,192.780002860742 293.98981596738764,199.12219196060335 292.7431538875646,199.99912761497148 291.2045450122623,204.3736180471767 289.2380992432095,206.35305287111464 289.3950568105935,209.1457095071961 290.72025068441036,213.1575702251498 290.416113697119,214.5410291706886 288.20243362766826,216.65921380832492 286.2541349236539,219.5334871356223 286.52115813737623,227.10066963428335 285.9340830155336,229.74260316375523 284.30960499578964,232.83048400658208 282.37214768024563,234.84438980644563 279.991791400735,238.67466948687525 277.5346027208655,243.60784907284028 277.6338317593724,245.32315225837226 283.3670043690739,249.10394364611818 284.0635130764147,250.50135411589895 284.40412442265773,257.14552196880595 285.81340852239487,263.37774894703773 285.7033218876521,268.58727945101464 285.173105533527,270.76330882085097 283.53688955087637,273.1252115219029 282.36828853032,277.96175142283084 283.22501579379485,282.708177083775 284.5195510911365,284.5409138079981 283.23089653039443,286.85822457961103 278.15386294456766,287.2669607077844 277.18352603083093,287.96543619975 275.8831554608005,291.1272731305653 273.37340668225085,292.9843653136529 266.2353717849203,297.51555066369247 262.8023759421433,299.5023357815056 255.37920268887083,305.3174684950702 252.65793141211273,309.021255688594 250.93107131896122,311.86832559795914 249.63959812280112,315.7263507084674 249.7519871489836,329.01416765868834 249.02286097609996,332.16036389640993 247.59206417259412,335.7248424835175 243.41935248695228,340.65793175430827 241.22007587299746,341.30508624277354 237.5629997369499,344.4699744684425 234.84125384123166,343.6609965784931 233.69193949859215,343.8796828707639 224.81629456767627,352.6066983924814 218.9564421969344,353.64567064570366 210.61233010829102,353.70111981159886 208.1878344889009,355.6933818363323 202.6616004823993,358.3524728255992 199.7134020806987,360.3953307806557 195.1699290179269,360.9485139871911 193.8579495146438,362.4288821564987 189.94448624034763,368.0851393789195 187.87953181764559,371.99228268562723 185.85740343724723,377.1243242208766 184.30929964106775,377.2352409414286 181.51278502877352,376.6153105230964 176.56431702057148,380.7985888015026 168.28632730007365,385.68566629050434 166.60345825666894,385.86949115587726 163.42250364542687,384.9076806508532 162.55151329806128,384.25761874047845 161.70376841707895,380.07878624509567 159.81998593797059,376.67290095056956 157.41849820043805,373.6608852231302 155.52822167799135,373.363918382905 152.3004812597627,374.12731604685086 149.11117402785473,373.0972741471928 146.19318091218813,371.0494066806153 143.3722791907126,365.44130895767574 142.0238787543096,365.23583743290226 140.4507816209786,366.95404878119797 137.83412121549074,367.9436740785255 135.01624090709564,367.3972098906886 129.5247174374037,368.8521431976548 127.40547686588081,368.8354100898517 124.01372807442647,367.6587165783168 119.84991477546572,368.0366017597248 116.46989389278552,366.8091864847526 111.61769021565657,362.8597887126974 108.68924078101547,362.22615809113637 103.48402184344968,363.0465282749016 100.96358068205139,361.8913666537395 98.96600248009352,361.90862393783357 96.43168302099158,362.8560725444161 93.60409670522948,364.7956013211056 92.60529622885443,366.38809884093115 89.90313903490632,372.51131907759043 88.7427693124266,374.5622141900221 84.72158875763758,377.4126296226327 82.40998960017056,379.6624464988541 79.7004364199452,380.6063420103832 78.71597952746342,381.9141102122215 76.13268321689827,389.3990918758113 73.25048984975957,393.87799079370365 70.62605908896826,395.18374200169075 68.6825092211273,394.3796791562897 64.69304956395041,392.18325585360026 58.04488676273101,387.87012752505933 54.08721757912845,386.2523873937714 49.20448899389263,382.41320239239246 45.811592101648856,381.3572907749144 42.2716609761229,381.69076973379254 38.09877456891707,384.25083774114336 34.00111791030051,387.7840743866934 32.577316295324906,388.33759638699564 24.48175833548173,388.422951439147 20.81308238549461,390.2279832602332 16.574495988859912,392.94502966546224 13.049682514719324,394.67675873193303 9.091019101564267,394.8663213551424 7.899514733280764,395.5829510898943 6.75406977367486,399.4785788442438 5.311687806650523,401.0712411467732 1.9132616344944406,402.0082022136416 0.0,402.96352957908607 0.6412817872371211,404.9205928369774 0.5317378463118227,408.18097246443983 1.0162761551952646,411.4432663660046 2.2370600267265197,414.82839960935445 6.244278934177701,422.927640994374 7.581359037995787,424.98110427748713 9.775484634128672,427.2765775038242 14.275015200064571,429.68003213578504 19.253009959826294,435.78314795315646 21.314296990301727,439.28473309238836 21.441088897230543,440.25160679532064 19.857631892386603,449.8235863375096 20.591842309302294,450.6677605790692 22.294042995550875,450.66393931616005 24.965222353806897,449.81268605556284 40.13880626057118,442.3893142970613 42.56103763760054,442.2633592057149 44.02531229396776,442.99327753542286 45.35388584561567,445.0462553534843 45.229989260672276,447.4693993540289 44.50533936488808,450.2598701844073 44.745327239410436,452.4374997215284 46.08664171564818,453.7609627566973 50.56599576737197,456.9088893963453 52.02653146849014,458.48660460959434 53.83595493898783,464.8963688722518 55.53473583521833,467.56102260174583 58.19780127593834,469.620656156792 61.228503408858934,470.58653415865757 66.73991874875716,471.05672892589325 69.21429724340476,473.3818689079098 70.18186745954145,477.5031430307697 71.39325028078282,479.31979839868836 73.33103325468414,481.25755574207983 74.29382008592258,483.1964982208833 74.54342191196257,486.10560989818276 74.05508417081036,492.6383382252276 74.77912879008296,496.6395340171234 75.14745310018617,500.3911762990546 73.80846890525852,503.17421438682686 71.03182771340991,507.1677067049732 70.66931268012556,509.2279194309556 70.66547464609255,515.6116547099647 70.10077306778818,516.8628138314984 70.14577892325886,519.0812224524993 70.78253203812947,521.5362871337956 72.18705697062816,523.5342691788962 75.64675777907811,526.0529016856169 77.62384076968895,525.7160814684062 81.35377329558101,524.2821140508526 82.74496031700559,525.2458761013804 83.1433947028071,526.6220022439247 83.26348348542527,531.1944323470398 84.70870981506346,533.8401493710842 88.72944110036762,537.3005511840918 90.01271669152594,539.2206789200504 90.97482506864763,543.2198006043607 89.88753663176811,548.7906378364385 86.62660526586902,557.260772011218 86.14301015104803,559.1944384606222 86.62686742065993,561.0099419975712 89.65054914290786,562.7154229996413 92.93392000002835,562.9874854538355 98.55316611623837,562.3805324256864 98.08588122157049,565.2310941938712 99.44487923921736,565.7240618020821 99.8050175081872,567.5791825655949 101.13229339680231,570.6860597459661 100.95843386915995,571.9026396514429 99.71523143291432,573.8247885441995 96.88238354918718,576.7892406458897 95.56725994781988,580.5769225209401 92.37811199253738,585.2177705287772 91.81773722720126,587.4623926569889 90.21477023558202,588.6725844465436 89.76280765893056,591.2136738609795 88.06428227719543,593.2466111350714 87.99481355631569,594.9951142898856 85.93314703536723,595.3571952940297 85.52732160541508,593.1379827661337 84.37435734351712,591.9589662003975 79.53671954923301,593.595135474497 76.90931649990334,595.865514196234 75.42744837975613,598.4400517131719 72.49166709724575,601.9077590283049 71.06976613806684,603.9703885510204 68.7390319574327,605.6228872432647 67.95533477900652,607.0149820538315 68.19534497295605,608.037107489286 71.10498029026907,610.5247130268233 75.51278223052914,613.2561661137964 76.39582288965897,615.2060191171878 75.1355187385731,617.4147151211622 70.5566779064917,616.9441381486545 67.10801047605645,614.0930435604324 65.22836602891762,615.1809125575621 63.90081449503086,618.3229362415716 63.96422542025795,619.4767274731843 65.88989875629211,623.6573313192852 64.84868454719333,628.116999519704 62.44357679088044,631.1239472123859 63.656579500645556,633.0040833187848 63.41048309268401,638.5468097731047 64.92590095463268,641.4506952452568 65.04747467467767,642.7824001740343 63.67973706828676,648.9638543938127 62.235545976020695,652.2572109774416 62.80529399986756,653.2767230470273 65.96728452399672,654.3230353711422 67.65308896385604,655.6812471178051 68.8259682923096,658.2011005953541 68.40942419984663,660.3582133162436 63.008535886939235,667.6791882251118 56.9812445713763,674.8297904354429 54.31489184054515,678.533150094625 50.56507697852144,682.395811513366 48.07545720161877,685.3523168822117 46.51000541635638,686.6064255618023 43.210466157436464,687.5028323759332 41.550049064154834,686.4385172144882 38.30721283662894,691.8849223794937 37.508620631533866,692.814739297301 34.247913755521175,693.8459451930958 33.138808130448005,695.4788921177766 32.23118805039448,697.9739068199441 32.14518002691517,700.003149663523 33.03291846316972,701.6863584974107 34.71041699101049,703.5437640140431 35.557189089218866,705.2268523315068 34.7140530935392,708.7934922377523 32.178427492696144,716.1502942155503 31.423128977425698,719.9720035277963 32.18106806462787,723.862512796883 33.44433645072406,725.2748001017634 36.811169109940714,726.0230418385898 37.370709140330995,734.3359646755459 36.88615311941322,738.602211218003 39.9439213575598,743.0218799299764 40.06553703632269,747.4167600129547 39.31653832282722,749.0571767428537 39.18388542206935,751.3990198940384 43.40925758207326,752.6678738368331 48.76973269183033,753.8289549420058 54.719590779900535,754.8978069176732 63.41569590865186,756.9647638805515 65.87295296848185,757.9585720435286 67.46803877327815,759.983010844279 68.73321957079862,760.7801392731043 70.8662127722282,760.1739667004296 73.90296907826684,760.4261253140448 77.15219090520905,760.293419293002 80.69394946248543,758.6387750238647 82.1917063277565,757.1789074480432 85.0301335480143,751.8110082950557 88.48770424020746,746.3688639178453 90.51454678845711,744.007045663575 92.73134537267791,740.7211007513487 95.03845098587273,735.6321490937149 97.30492200185,734.9942444856385 99.71850443915878,737.4097198715551 103.07629177029357,741.3921152510984 104.47054597774513,742.4765395409742 107.04676029286512,740.527289559148 108.26762575718145,740.1926864356924 109.81010800136653,741.6924092757911 110.41375389357567,743.2782398999589 112.28219244732705,745.0447055129658 112.6151895308792,746.1290595963309 112.72687075561065,750.1781342642265 114.3035096513352,753.4913196104158 113.64256904635275,756.8541253708136 114.40496960104875,759.4803784739244 115.89540145669987,760.4058861072348 118.40043942725045,761.0605966763825 121.1195482365891,759.8550188068373 123.84337419369454,757.0132987045666 123.89139843500908,753.9194051650113 125.19215219214539,750.4655149270613 126.82335395363125,744.2853144569474 129.12586688021076,738.6469116329055 130.89068980451472,737.1227936123673 134.84669854119684,734.4361033559201 143.24040583101666,729.8942515235107 145.3732665426135,729.202118905238 149.37873835051036,726.5994186329192 150.80595330195692,726.2079369068723 153.46041010612566,727.0990512265721 157.76393270182098,726.5488266892035 161.39810085498252,726.7041603161731 164.9898741596658,727.6006634975378 167.8411691551126,728.4355064652829 168.92654314597587,729.5724046706843 171.02972618585787,734.3403120472476 171.82545450465147,738.3648979611421 171.07747707264744,744.3640656153101 171.4596760651699,745.701709395227 173.25703878933126,746.090802718734 180.6974736314794,743.1820962293405 184.27629241655413,744.3806123959907 186.38800458198705,743.6867513413086 191.1679342905905,746.6049457870013 193.81291386064166,746.8206311797275 195.8308553884632,748.3585470235491 198.05906320773923,748.8963777976096 198.920181710421,750.6456191882077 198.94316482611154,752.6694382840457 199.59457392253094,755.3937660265607 199.5687104229034,757.9227544681582 198.89077657536046,760.6448937238472 197.2595943680564,762.2911743696678 197.6777657058793,766.9104365475931 195.24564055734035,769.7513228608804 192.66055040000325,771.0212187886787 192.7551905023995,773.7718619168089 194.43490917231608,776.6891913991665 194.27442255594633,779.234310446924 191.51521843276967,782.5687773617445 191.46550683298153,784.5927950547066 192.44011941323973,786.3443498688821 193.89247851276141,787.1751088876919 197.04469030877377,788.080631777987 198.3306657745533,789.7275091241878 198.04821902496442,791.4609938490943 196.7329940399118,794.7328275059384 198.10105897875545,797.8828997038783 198.26771164840127,799.2178515702394 197.04950946151106,802.1708624488432 196.17698088315012,803.322753750611 192.25957699541493,805.3847648154883 191.8840306478464,807.100693006126 192.87640991770675,808.3976823683967 194.8095067638019,808.822241271427 196.39982871366527,810.1190061674503 199.20789318340593,815.7291968667142 198.83868805846024,817.7330648125227 201.4961846508675,820.9443483692686 202.42432582873673,823.1348463745207 206.31390278921128,825.3173729508933 207.06658791797815,826.0624887175204 207.55068486333582,829.8003350207721 209.47422516347456,831.6508728570429 211.4426738818679,832.5481980100251 213.65040569173078,832.5704122818735 214.8295873230405,831.6499506115895 221.70547386710348,823.135589591033 224.24093106418044,821.8369327584038 225.9510354883819,819.7418459195969 227.1431953636766,820.0878455805736 227.79793571126362,821.9788571952448 229.41834182426578,824.153509620958 230.5067092410009,824.5316516485344 232.8823960055603,822.8255268723149 233.48368145384094,821.0776182333472 233.6083374557255,818.7755977731688 234.65117664001644,817.1695271499926 234.65152570070885,817.1439903437606 233.30564311558197,816.7542911221117 232.7671757151991,813.9192710673216 236.43183692060424,812.9234183867343 236.86413134418177,812.2372011103249 239.08872111876587,813.9887470246085 239.91641574998113,816.0850544667107 236.91467575070942,816.8708772617588 236.93431275666683,818.4497356814185 237.50227974839214,819.8921597211505 236.04995834283798,821.2646859719318 236.31065543530485,824.0709548973047 238.80781014248484,828.5952626552584 239.19663305075284,830.3566728420675 240.29441254410105,831.570150239307 242.9310150118926,832.6779710483834 245.30437208487115,832.6252945998637 246.83028378565092,831.9450240657201 248.87924987670715,829.9467164141213 250.00708680323172,828.1640020185935 250.92310890162005,825.2471457642595 250.01546372549691,820.6350702721954 246.92124349849172,817.5465871766065 243.9821369837976,815.9457886344505 242.26590988965805,813.9901364169675 240.77432081284232,810.6532559304093 240.83345254187526,809.3290161750638 243.1327553477486,807.8414066972105 246.9767852426092,808.0789767899187 249.1536492147701,810.3272559054242 250.9631134792233,810.7483730195121 252.48208934525508,809.7732398511016 253.63283575513924,810.0920137011077 253.544678980615,814.3780174852641 252.9413493838014,816.2855393929968 253.2035198413635,817.4963324581713 256.2398430538841,819.5452509381777 257.49654536051366,822.7857528769287 258.24538967417686,827.7761994458336 259.7093096047988,827.0524407710702 262.4011225227235,821.6528305106859 266.00107595917575,816.1803595250731 269.6347995813324,812.0088617411421 271.3935183798865,811.6014329130235 273.3181001411897,812.7148607746337 274.6287539996897,811.0780288149269 275.1538873717352,807.1777568770875 276.2380987925486,805.4962102640708 278.3561336900623,804.3762583455866 283.87121827825837,802.1439201231714 285.8258413238243,800.9119807198407 287.8988048789699,798.4667676001569 288.98652465150946,796.4723483956902 290.5752710711052,794.7889365713579 291.53377993143897,792.3885387857639 291.3961145823389,791.0455923143095 290.45016640835865,790.8559650209663 289.65776597264227,789.1165438087033 286.74626929691766,784.642604686505 286.118838477112,781.3279531673498 291.102388434669,779.3423935598256 300.06169310780035,776.7994774481745 301.28108554636793,775.7185142605448 302.2326698518061,772.9983204587215 304.6001919141619,771.6196754337575 309.7599102240722,769.4498768763915 312.1201632930791,770.2804077635495 313.64029097661444,769.8775950230894 315.5790725823029,767.3040399406669 318.3343469542616,766.9924166568754 320.6142188615568,765.9584491537031 323.1068379172543,766.0987404660634 328.47282845997364,767.1928414064932 328.3022694275516,768.4895600682493 327.15423593192975,769.6728143599793 326.49210739164914,771.56215639006 327.0997081868333,772.4547537227538 329.8539989321308,772.2354113557242 331.5064243673428,771.1342288169219 335.65469233106217,763.8651169614575 337.3614675044303,759.0798668226531 339.37060269170144,759.9474837703456 340.92234932714416,763.726057667431 344.3529081472053,765.5548715024142 348.8818570117802,768.5850411767169 350.7395545328983,768.3877763795791 351.1007461614274,767.4477102438759 351.0197737570123,763.8631274960128 349.28765699179127,760.4620544723666 350.0284171873541,757.0728283699209 348.09662397594866,754.8834037864083 347.7834026597783,752.6539968728755 348.27566576766384,750.2404345135265 350.0657828738721,746.9826418177607 351.94162885590924,746.0187749025289 358.9452299167499,745.3007544691698 364.3733180348482,744.4702132694042 367.82502108463024,743.5409941779602 370.7082519287901,741.8550559610866 372.7776895017139,740.1428243834962 371.73536047731426,739.4057720676354 371.2228536371958,736.5257686832093 372.04637111664493,734.7487461271775 369.56362569154567,733.9109655768988 369.80396705051277,730.9393421064973 369.45288290465317,730.1093070961176 366.9820972399636,729.1450981683206 366.7043826773655,728.2405230766858 366.9083635622669,724.872306732839 367.7497985588152,724.2080683715726 372.02870643809666,726.4650863142251 372.9398310068723,724.2511570700915 375.04266725258725,723.1546902887011 376.5852291837471,723.3405450633257 374.99291961301475,724.8054532655108 375.2544952349516,725.3815287130818 379.5328110508026,725.8683216411958 381.5416006546731,724.9051120978431 383.7091353494532,720.852155440479 386.20949014582993,717.3666189508799 388.5171487842985,717.2412621903791 390.71944350097493,714.6037122156692 392.2960164970015,714.4868310187109 394.8486956475578,715.5007799696187 396.7458771823862,715.2353700892261 397.48754089201907,712.463604875687 397.2730542643661,711.3829791579167 394.8766036934742,707.4731218323208 392.0242225810139,703.810946301558 392.08066908693235,701.5709884396761 395.4189317653088,700.3786912613468 398.512689614451,700.8005595882322 400.1488382877527,702.6880291503206 402.38323288619335,701.702384869391 404.70771007662984,701.9049003379026 404.74823071078123,696.3546819968252 406.4005925450497,694.8990583482957 410.4576809745489,694.7248198793611 412.15358419804477,695.9050037708336 413.1337160326116,695.7219408412533 413.94249068847967,694.1983975079731 413.0977176464345,691.4266715602749 413.2123395194244,689.4321524298048 414.83438966343834,686.9488278647532 417.08678700340965,685.1711720574657 421.9615540654374,682.5969210706826 424.5980304412527,680.4861378231817 428.3854654914987,678.4890240845922 431.0668926267889,677.9113930216811 434.92088670504387,679.3579338601453 439.5663155170582,679.8949816855986 447.998923227379,679.3932379325507 454.9767120158665,680.2981876075091 457.9011969814149,680.0756634758684 461.26640847501847,677.9881880042087 463.75038228144365,677.5585065926609 467.2883219551366,677.7197912694235 469.1984770280508,676.0471196047287 470.30851544907904,673.0696080635526 471.38127041808514,672.8024679536685 471.1069235207379,675.5690516596529 471.3751785536181,677.5505929622419 473.26863344697114,679.5725280717222 475.2262973530912,683.5327917426964 475.68972168528296,685.5747778303471 476.7228036064446,687.2181190624497 476.7581073917997,688.9027123882241 478.49004686471994,689.6522148440416 484.0658145020585,687.7445904349483 487.3263287813976,687.9362554644708 490.25914703257973,689.0003476497618 491.09552652003646,687.6524015378959 491.6473237851999,684.820538878537 492.7363784738023,682.8608492476895 494.46867218185764,682.4980880522351 495.197593535924,681.5794647934463 495.0529155962844,679.4727970608722 493.29514321129096,676.0719637830128 492.8304965111182,674.1061037288688 493.67024727968914,672.3800786264673 495.6050858457717,671.1945567389648" /><polygon fill="black" points="600.5467815957476,252.72181809322603 600.4767878056055,252.55431938642766 600.1675753160365,252.8526931576256 600.2386407560202,252.95355088896088 600.5467815957476,252.72181809322603" /><polygon fill="black" points="236.91467575070942,816.8708772617588 234.65152570070885,817.1439903437606 234.65117664001644,817.1695271499926 236.93431275666683,818.4497356814185 236.91467575070942,816.8708772617588" /><polygon fill="black" points="664.7085737891158,720.427123823098 664.0304692906057,720.2288483822373 664.2394414862059,721.2996177552244 664.9625000780727,720.9258363353559 664.7085737891158,720.427123823098" /><polygon fill="black" points="517.3608836178132,700.7496791031949 514.396426802939,699.6698153660087 512.9609064343173,700.1617101008851 511.07995891177256,702.1231257460431 512.5619579434035,705.4977701293723 515.3135121487915,704.0151989180144 518.7625615557571,702.8341203436513 517.3934652998786,701.6761625322025 517.3608836178132,700.7496791031949" /><circle cx="576.3918558043235" cy="484.57977890434745" fill="rgb(100%,100%,100%)" r="16" stroke="grey" stroke-width="8" /></svg>