<?xml version="1.0" encoding="utf-8" ?>
<svg baseProfile="full" height="1024" version="1.1" width="1024" xmlns="http://www.w3.org/2000/svg" xmlns:ev="http://www.w3.org/2001/xml-events" xmlns:xlink="http://www.w3.org/1999/xlink"><defs /><polygon fill="black" points="456.4390246189788,4.85865188785408 458.2972111246445,6.442092206084453 458.8591133891514,8.116182182804664 457.81478093161735,10.543306831084465 456.86719250308454,11.777609900326524 457.0243348279018,13.476936344391788 456.32684558763725,16.032428155983666 453.3660148982665,15.558360013099673 447.9640808629604,16.69300929565145 447.06078241592024,17.167501738655915 444.3049249231795,19.75807606532385 442.4010736377479,20.875965771939946 436.7164616419836,22.638527182675602 433.76908610807095,24.35262572342924 429.9180208708709,28.02778625547603 427.32211046812984,32.11715706026439 425.61182684951484,33.85469551867857 423.66125855412287,36.756216937759746 421.8753747496648,40.82968591610404 419.17050588300356,47.69709172974092 417.24442426854455,54.47054179676104 413.20047571803764,66.61477793429708 412.5152372614466,69.46133576096679 412.22768051603117,74.97301321512168 411.0471493071872,77.94952161580693 410.6557376606982,79.74988641815435 411.2550725584765,85.43779903603979 410.83710284059464,87.45542439760766 411.0361891514724,89.82101844705335 412.29654726909575,93.99201934567338 414.523641735181,98.21597504598788 416.5510082945219,101.067088692104 421.5464891025247,103.9235903846776 422.0493012650169,105.69160991178887 424.5360580510661,110.11965696821744 427.32974318930764,113.59613951716256 428.5797117528422,114.58074217487251 431.53033889362797,119.76121431524462 432.7215421115004,123.38349477768509 435.07803725833764,126.80535804308158 435.7598954393559,128.33049727574564 436.47088376619695,131.81065271780938 437.7879195285509,134.08433365895473 438.9460485705183,137.52323942976432 440.848653214461,142.0461242818377 441.7433756707196,143.51930835242172 443.3074395384213,147.40851857030088 447.23110519479326,152.6926050914418 448.3594281139108,155.12365956106828 450.8646034936483,162.15365753240997 451.42159062572364,164.48449528468075 452.28933339336214,170.54749062348742 455.05696026680005,178.8835464889538 455.20213199496243,179.99575623509133 453.7882305485511,182.5447536079688 452.4716137959648,183.88769828157876 452.48136598252444,185.83752223645672 454.26072037204983,187.17342065039963 453.9919227372307,187.97392747020263 454.5966104562561,189.6549020170537 457.0148035502974,191.32292320999466 457.9884941411672,193.10040867304497 458.69185071638304,199.0345367095549 458.7991831899026,202.25206558859634 459.40210957688595,203.8295357383172 460.8190027926806,205.3334949308511 466.43510298230206,208.3322455689855 469.62095984654326,209.13332551525775 477.35634962072163,210.62483701355086 488.300706887142,210.60875456776955 487.32578086978685,212.6691947864814 489.5729611342532,214.81378798721744 488.11793230552865,215.38334038875462 487.80128195864523,216.32145506271786 489.97759745457824,218.46824830639753 489.21303464137225,219.88234490774641 488.3085981371037,218.11035057205845 486.6552317926504,218.48271788603495 486.45094934347077,221.82087614565114 488.0607940088396,222.24444817758456 487.94658507512116,223.11460158392492 485.10404558854657,224.1394945337878 485.60496711761937,225.63069619185126 486.65761813588205,224.81324061653208 487.98934905753947,225.11410494484062 487.59197284187655,227.98233620307064 488.08603460266556,229.63517366315978 487.41375888018064,232.51836437424708 486.0045100196206,231.9534292192959 485.1166472418722,234.3027865839033 485.81082759131453,235.2843486564774 484.6250847114929,236.10530065038938 483.609082429153,235.33962469585742 482.0872201968654,236.17533820912718 479.63211004569575,236.29940006100605 478.45199469016774,237.3934296098322 477.5058935834625,237.01138152521128 473.28343727432565,238.92450096131415 472.5875065696594,240.73952456015672 474.41374644160794,242.22048977672569 474.2907108793017,242.68873711478807 471.22423034025405,245.76729850315633 469.64595445144323,243.93560669902 467.81676235027464,245.71828264842236 468.6415256774567,246.62538588642462 468.67642505111326,248.29640534994007 467.6461103266172,250.2553451363816 468.2724779089724,251.4315860326043 468.1031773591749,253.09917339260824 464.1841898063299,254.0008923359179 463.8509243644646,253.67849877702452 461.49423949042955,256.1311254113082 460.27866461497086,255.56126946264317 458.15991759571784,256.21608609066243 457.44791622143066,257.29979572285026 458.09348079818426,259.4175759086154 457.3046364936906,263.2289382534874 454.7284446423411,264.4956555212286 455.9954094903907,267.53340125586146 455.2757195740286,268.280216753369 454.06944368552735,268.17631995548936 454.5048341910404,269.49441444423394 455.43322699596587,269.47536002622087 454.7230543711322,270.68831398949715 453.5390219325099,271.18732456411 453.84801278143783,273.3120583473549 449.94843263019794,275.2739354051058 448.20953041780734,277.0789448071854 446.50852926040426,276.7597473897763 445.12873299660015,277.6644927407432 444.24527786027966,276.8860492388312 443.12998579989676,277.7692863285313 444.95883171021876,278.86629866191583 444.716256462472,279.997561994962 443.2041271504154,281.4355775208178 439.62112393178074,282.45732724867435 438.57615837842883,283.2830791866868 438.4690719899032,284.5479066311549 436.636649266359,286.33048665766705 434.8458304500911,286.63972964312643 434.4757544918639,288.03914466771886 435.7984495730547,287.8113138390263 436.4165253424163,288.5959621525664 435.6008023934663,290.67969985735175 434.0474401871186,290.11579801931754 431.1037769896075,292.5159750885765 430.42465697491235,291.7408527514839 427.9080021764811,292.5228519902714 427.0154963891033,294.88198176120784 426.94028606089677,297.2738485029431 428.2883691046685,298.3091302982387 427.4610150152869,299.86295335058816 425.13899052726197,300.18226208950523 425.17189358123295,301.8476695881502 423.99614158940193,302.8042354857136 422.651979645948,302.50073419285246 421.96652762826136,304.51866251262317 419.368686390738,304.8430540512548 419.55286653999013,306.9403519811516 417.31518451114886,307.9503839108257 415.35046852473636,306.73311309971234 414.72569826231927,308.7413263147361 413.27484951853256,309.2366014803382 411.1447969972127,308.94799725497705 410.84133970509106,310.16128452758306 409.1976211971549,311.25580906989615 408.57413530563434,310.20519350424524 407.38362866513455,310.4295484817573 407.15428434380584,311.7700115191516 406.2349598880812,312.8504209199319 404.4506241331459,313.02181044497746 404.13517418468666,313.6235324842824 405.236021691009,315.59835945232277 406.41646336369047,314.84363033665676 407.3780221047838,316.49110099318034 406.34273612083706,317.380786642534 405.2591089591136,316.79761619863206 404.5660288510935,318.47766880312497 403.775445098272,318.82285293254915 401.61953838359,317.20589436914946 399.99926072559253,319.0322552304575 397.8529832623765,318.98444539062797 398.1564624469625,316.6764506864761 397.5425909433514,316.09250489020815 395.62747358848134,316.39463049782995 394.58318460285324,317.34779764238397 393.17736105664164,317.0367921294367 391.87160197948634,317.66555685639975 391.43476409172877,318.872805373467 391.602504612458,320.72998330296645 391.0304640918171,321.80345369160455 391.1908868270925,323.2741587752978 389.281610291852,323.9058416163204 389.30163466874717,324.968118164829 390.6672429296705,326.9397250622542 391.466914207063,327.06164444584147 392.7659240013855,325.5067045393221 394.2966125412415,325.94470259755565 395.9564278460859,332.0982751154332 395.435693756028,334.27473270656117 392.6818914693082,334.02911778051305 391.9290812544706,335.839382110307 388.59720104258605,335.30589090766557 387.3795417551667,334.12911781262267 386.70337311962703,332.410121992349 385.4260637464702,332.965412685658 384.67311502178995,334.7839235606983 382.74575700680504,334.481603068253 382.0983364150493,332.1013435780232 381.26882324202904,330.9171496895576 379.95119646401747,330.9416978501917 378.7258418325435,329.8934573803636 377.2121589196884,330.39625387535887 375.22187737271673,329.9661180016593 375.5031720548642,327.4888790177656 373.96590529479727,327.25164215059175 373.3793599682458,328.7040231050251 371.8460190866126,329.2230612028371 371.6449033112154,330.51520963227057 369.85691913794074,331.10387255598255 369.05694893154555,330.39428880867405 367.47289057935376,330.3827722684088 365.5703316508689,331.9639637108687 365.0728547085238,333.26148072674454 366.45621263223177,334.5652018229526 365.1552921343775,336.6589860396177 363.56191188467596,336.148323892702 361.5726470684523,336.93322205459606 362.16559547815694,338.6303399329507 360.57725428748165,337.82165421918944 358.0915378391346,338.3014821656729 356.99909097166716,337.7975880896676 357.09661417355966,336.4025389656998 358.20284164364483,335.4080252493659 357.3120610812022,333.6113703131583 359.0019361504301,333.81502147308544 358.60819861423147,331.81644605659477 357.1236332042546,331.1022337051243 355.2347205631446,331.1929151354385 355.52070780462446,332.8949461441336 354.2256286941021,332.4834169597851 352.52810515509265,335.2683139283663 350.7340031706457,334.95440351872224 351.05034740268485,332.06500271598986 347.56603754134835,331.53929671189474 347.4618230062103,333.13576942415324 345.8671120053022,332.5279762009548 345.7621030036981,335.8239310959001 344.459859441325,337.3130274724662 341.0660706075167,337.300369589272 340.2667473979365,339.48931141859225 338.8717645449817,339.77953098184815 337.6644424571121,340.87244404429686 337.3617763082677,342.8673363397908 335.6650855246019,342.8565403443142 334.16599089946556,343.64825565028497 331.0733484777437,343.339365305405 329.6634373961615,345.1360244144786 328.4708520504938,345.9221991022179 327.06839184420124,345.8255456080059 327.06207669321003,347.2196031293377 325.9714322138586,347.41531941759735 325.5725527438592,346.2142128910283 323.6742384213928,346.40772380256175 322.8654417106717,347.5017007848898 320.07769676222034,347.7026350015577 319.2800090386612,345.89521961974793 317.5748818053273,346.59336068947806 317.4792123582261,347.59395784815916 315.3716218096529,347.48445758635563 315.18746945434714,345.69099446140723 312.778344958773,345.88499042129916 311.79019660074255,344.8866866141075 309.98775957357094,344.07967589054294 308.68586165379594,345.6801111785884 306.8870108878092,345.6782203875 305.9800218138372,346.4749983733349 302.8824653149186,346.4625442054418 301.77852369685723,347.0611861133194 298.6772714133964,347.4588168349828 297.77552004188436,348.55311469504255 296.2746545985374,348.054375379148 295.88010358124785,346.4579709686964 294.37919873145876,346.5554570007941 293.37821280635524,345.3556054872725 292.18208424963456,345.35921105066507 292.4702221378896,347.9563407576681 291.2745779799909,347.35592972911934 289.01980990400097,348.88255798592286 287.1921032649984,347.1487219571146 283.3397426784484,345.96290324762515 280.25739231274764,343.7332084717232 278.55590022460115,341.5293025353796 276.275425703918,340.80891181535014 272.6164874512919,341.4630695658959 270.0854274727395,340.40799943581897 268.65947555023763,339.4324218241471 264.6483841655917,337.8363554500116 260.6443124871231,335.3625031889663 257.93163077340307,334.4143980039961 250.61012975893198,332.76435287623 247.6633250783095,331.8681179796118 245.568586323191,335.19335106360376 242.9359508299574,336.7881845741451 241.81240943278166,338.1662892539664 239.13973951073874,339.18128468672 235.53343967108287,339.24341686975407 232.84334449369865,339.77523065317445 231.02272787958316,341.05860966005724 227.17943652131495,344.4508531077361 222.59845011092642,347.7885739170527 218.79556768511486,352.66967414486874 214.23563364029442,353.34077396075145 209.47909392996792,353.15161699099014 205.50511929831146,351.20251097265003 203.3927094257063,347.8578860041524 202.28558099057398,348.3643530177458 200.89918114818914,347.89335467943465 199.65739636134418,349.706695794453 197.74605195447478,353.35873285698256 191.4963546939834,353.8336932537454 187.4413639299148,370.31992323834345 178.70077009114672,366.85350909246216 177.46074565491725,370.4163590680918 174.66718321391204,369.5113286382791 173.10498439081252,374.2715556593309 167.46814131455142,372.6382074755108 167.54058845616666,371.1868524691948 168.39332217142064,367.6295137904419 163.3636813419765,366.20557647103135 164.24478740417857,358.6434805538871 164.90411498552822,350.5628509932344 166.8812299590873,350.8831917660895 180.834718711494,338.23420058167 185.3142616084032,339.9605868933762 183.26010532435552,337.7500324054953 181.97573090558114,337.22038048883496 179.18676075941616,335.0357916125654 175.30033958346763,334.7748783017162 173.71506705366855,333.91843023335633 169.55897630392704,333.3544629182344 168.4739591493584,332.45893839941726 165.66276550696892,331.55499107340574 162.86952693611406,329.73983362141865 160.7634097271722,328.85834554246514 160.59737162335972,327.12146111150315 161.46579428212544,326.32920616749465 161.6221096541493,324.2420564502318 160.91519197754303,323.33364117127934 160.86935054789942,320.62147536383316 161.56153799724984,316.6203888479928 162.70526223041526,315.03529125655956 162.990908002456,311.176565517928 162.93692452453212,307.1133478520953 160.5587738525559,301.77802303496435 158.36781583579906,297.446648598615 156.94141329516614,293.7971196000539 151.9020347971121,282.2577304795975 151.83386149751504,280.1595481600308 151.08729020705502,279.2682697674187 151.4138924003212,276.9321826133564 150.91952607457645,274.984935319941 150.91327395565472,271.3670327565635 150.0448590153478,270.5101759979781 148.5520029764918,271.02023640026414 144.3795397859231,273.4135943332027 140.97787770908747,277.0590471542489 137.77043406720847,277.57447212387285 134.8911003024413,279.0417141025614 132.04389054721238,278.9971421411377 129.9920227199412,280.5584887079558 126.49752765976606,281.8489675523423 123.3681258007454,282.11273417505697 119.94479223761263,283.3444455614448 118.98678055021462,284.28929480217187 122.31748619917302,287.94815415885785 122.62732211249542,289.04593081318825 122.27543990166129,293.6432326741894 122.54954477269327,296.00449776842225 115.9473352724133,300.3971127456917 112.78884042851105,304.3215843168064 112.92447875284367,305.4061487772628 111.46769281504214,308.2314421369449 109.82064818792306,309.66731022816754 106.69041427487528,311.76452930203607 106.39399047931931,314.32766759015294 105.07863273078922,317.9247787326427 104.88349674504943,319.5850343266461 102.5182875410118,323.4118503827694 101.6102625921236,326.0953731226443 100.27903416854137,328.4532285302757 98.31786796044115,332.8076351698909 97.30257019589875,334.24465573140384 95.48123003143047,339.3144051781623 99.41541416077646,338.44728316677384 103.2015805125334,338.910245215952 104.89688734358882,338.81752163688344 105.54713749519405,339.36549329998485 106.17562859451914,341.52411863269526 108.21330424301433,339.2695003935021 108.12395800581221,338.6345098695733 110.81865932029068,334.14152468089804 111.97983820503698,332.97569746987847 115.37406866132255,334.038441887583 116.7551822420904,336.7106326857438 116.76716454029246,339.3840307922761 117.57770626083952,341.33129534856107 118.73915275622434,341.8644602805556 120.52130892580176,338.83087420237837 121.67349017979467,336.12714844904684 125.16215012896046,335.665574505585 125.37960416297703,338.37698941725637 126.56022351490336,338.8453898530882 127.6523355894177,340.37798714237533 129.0080362249595,345.0162992302757 128.8614723110367,369.45261847533527 128.91037522059145,374.198680667169 117.98812923372847,373.4464360610355 112.35270232664199,373.4179933181132 111.09991957561562,375.5361675959342 109.80696009389509,378.60675585411536 108.87306809771665,382.6718270140979 108.95279581472607,384.2106734605018 107.93001801269882,388.50392992355097 107.02379491690407,390.60315693973536 106.81112075819601,392.50053671070316 105.30189002217354,397.2915299287626 103.8105996694971,399.26897224898363 102.17289697115248,400.1024975207678 101.53988253588699,401.1017275546757 101.63248825917647,403.76223520563093 102.9774151840127,404.9884829095016 104.15599154200521,408.5804891678742 107.15509527183761,409.4725616172903 107.76210543450256,411.4175275598461 110.94960626252366,414.34033593141464 112.52511664419477,415.11969346714363 113.99013444443818,416.88514004619026 114.20498322087938,420.29553100781425 114.96196985952847,420.21373641285226 115.70036728553801,418.6315051614014 118.59645279138348,417.66059416187613 120.23062561905083,416.50354872599763 124.90588840544939,417.06706809098506 126.19633958530017,417.91440881833347 129.13650545270517,418.0640243359459 130.45815077707397,418.95907472202003 132.33075831786255,418.03272739921766 135.69635370234778,418.63578284645445 137.19680562556883,417.44687322794545 139.09211789351616,417.54390154817844 140.05303877198926,418.22582322443964 142.47105855518032,418.36500633678986 145.76986179714297,416.8942590220781 147.43633623556497,417.5348250049065 150.4765672523772,415.90624603661115 151.96023246502037,415.81437364188196 153.87411081678255,416.5723961593349 155.69970980656186,418.371546114648 159.79038793229404,417.9957912455117 161.9425396641963,418.1610783784169 164.82307814967123,417.6385979293638 166.78329660637172,419.5249490052535 167.50711198856828,420.82239075642474 170.2245946918456,422.666334131226 171.52683310496886,422.7781881184255 171.16139864500053,426.0836461887447 170.10601542443382,426.799553802512 169.99637502595462,427.7935625925 171.33679932882458,429.2126951138513 172.25327377862249,431.1372488069648 171.72584417011754,432.28225829118355 170.9156527595805,432.1722001558881 168.68147076073362,430.563686374984 167.36684987845967,431.0411328299337 166.44356580376817,430.16572150141377 162.97128946737635,429.35618613154173 162.63045261698,429.9254530874249 162.68185295412607,435.37323500302375 162.1556924605483,436.6390155571633 162.07028754816483,438.73075280716193 164.2462423117798,442.9167952426752 164.4682122166744,444.9562408850141 166.16459646087196,448.49429852140275 167.11907968375016,451.68708408551413 167.29695232148777,455.0607295742297 166.07780514575782,456.65169096484976 158.34513955466187,460.14559306885894 156.6643054658581,461.7346023583329 153.18407526576246,462.89394573263667 149.44018795708985,461.88471718775116 147.6451736379663,463.377656545122 144.7317790258442,466.4196775553772 143.6233669635105,467.09638768162074 140.51361508492892,467.62855142729177 130.98593118721405,468.91084628447624 124.83319426499483,473.7611597921574 113.58268007178735,479.4805002660598 112.79154305737869,481.90618890417807 116.15465633963512,484.4351761585108 119.9140043112236,489.1901122501344 122.11962725584563,492.59862204559573 122.35765687466464,494.4304422704457 123.64064388893739,495.3367078417521 124.83610093541091,497.47204318161823 125.71633794512339,498.1406380798724 128.2221889053992,498.3684689415415 130.68661475532147,499.4130244561446 131.06502762171877,500.135939940583 128.8592646058153,500.13872718609593 125.44888688435496,501.4422118073009 123.63665613579407,501.73904200006643 121.03486127156577,502.94281623128325 117.12139326979964,502.54559354956103 114.11213594309281,503.14784880186073 112.50645069328992,504.44468085192 108.80297019490102,504.44814037809317 105.88963874793072,506.24521926033964 100.58349402324579,506.13745040366365 98.38758155474694,505.24105134973104 94.69286655575733,505.1382932766039 93.08589317655549,506.3372112526176 90.68591443914812,507.3347280521178 89.47733887220622,509.3292268857073 85.08200557362014,509.0231720855311 81.2748535390166,510.80405236849015 76.28440500898853,512.3879718106136 71.59632830222988,511.5664976445957 68.6051985061763,512.059644468092 64.71864410087815,511.34190760438736 59.74075416749166,509.31657742980747 57.05339521286798,509.41006667049214 55.45979980004646,509.09489554933106 53.66562714133307,510.1816834575774 52.065824108595315,510.2788018971257 50.28429985224398,509.6585715906733 47.39573220081087,510.14979992855655 45.89770397905718,511.1353341039684 43.80709232375738,511.4237870976399 42.305601376984825,513.1130199837893 42.00183756406363,514.5069403307932 39.39020456481516,520.0813884107464 36.59248629516878,523.5629133871196 34.498126677221265,524.5463200089325 30.603902322534122,529.3173619918946 30.19579811607517,531.6109951945227 25.685998934079052,536.5742326278613 24.393220612189413,538.771613084833 22.877751140742212,542.354223900313 20.976832993713536,545.440092863602 19.28678134547334,546.9289664746326 19.166577191491893,551.5190408047047 18.259093533432832,553.316922479053 15.557575899444476,557.5920125431333 13.955296284944312,558.6842414865612 9.972076301241698,558.964376461738 5.171315114711287,563.0410680636592 2.3824922041748806,564.7504554061802 0.8372549513021995,566.5537939766555 0.7614316430243647,568.4009342944206 0.0,569.4115010792827 0.6865364490140686,572.5389963098683 0.4881275349241039,574.419404552289 1.6029244163872185,576.110254633331 4.2550104168495855,576.1745682264136 4.9615643052313985,576.9780304551407 6.8144179640078715,577.3256363255961 7.8879350431495325,576.7075993692831 9.473693617991472,574.8302391158719 13.231621013776197,572.308897725725 13.979755203293223,572.0914421204898 16.09387142454835,572.8729513400538 17.756873477432325,574.8733405185085 17.99475018457404,576.094111379464 20.828774607274838,574.7382701157651 22.583036840995682,575.5152345419824 22.36716761532713,577.6146867723555 23.293055108942678,578.7560732806171 24.33326521929964,579.0129334154506 26.610283719521348,578.4965867289369 28.971245370558346,580.2961022676222 29.887699728818372,580.4568963397148 30.554025165740317,583.4233868074815 32.91836384100817,583.4481696141404 33.87026161772054,581.9724231082288 34.87785110993068,582.0112906099617 37.91742477627336,583.746208043835 38.55329438723997,586.6646622920731 40.06989951406114,588.2127688647778 42.883468105022416,588.9208469672758 45.13055605386779,588.4848590195703 47.166231347438426,588.520579067767 48.23704555251989,587.6673826968156 50.59297527720211,587.821235963237 51.78524366964306,586.8366908802728 54.897759936416975,586.6175975196818 57.119074076751865,589.6162985555488 57.18734683828778,590.2396945502065 59.18730188399055,591.7254099395188 70.4153418791024,597.4549141798525 75.16496996028707,599.2503176358598 83.62043891347766,601.296110561082 87.19507742711156,601.8724760223414 91.6138015922567,603.3622103961724 97.64799515524912,604.8979220717355 109.10659528861409,608.4925052182812 116.33588010135509,610.9032313395851 118.33503725086653,612.0548606990677 121.27595359817772,612.8218135920031 124.50776768524528,612.9371271541022 127.34515909475394,611.954113411175 130.20887282158603,611.4486396061179 132.33456667823506,611.9571322121774 136.9706018302245,614.1781422711397 138.82278843387144,615.840839934255 140.54145783785117,615.8927110950902 142.57309394387693,617.11546689139 146.66211520066315,615.8231924671383 148.1868680883413,615.9820443183384 152.38774824866985,614.6640064591415 154.11464803081032,613.7178294349367 159.84464352363847,612.11930512124 162.71025818858072,611.7820775844646 167.56437384151215,612.4396003656002 171.6683138408634,613.9417705762803 174.97106247826397,615.5031899404701 181.54230466093315,618.3007080299507 185.58555843638476,619.0244149568134 197.10344044326422,621.5413840933396 199.7099682674047,622.502451072522 202.26962367127672,625.231664803984 206.18180319640237,629.0047536372425 208.35835277508605,630.7989239942615 210.49003265222888,631.5794387913687 213.0413625412167,630.7888884461261 216.31835171451377,631.7798849121506 219.82676717130443,631.6727105940074 222.3331564557792,633.4369318773959 223.53267097906718,633.817215043239 228.12705262077603,633.3524389659642 231.64262791612765,633.7551013974752 232.65359063044025,634.5922283064888 237.42378375040903,635.5434246457868 238.82298566390162,636.1956913810765 240.33245706110125,635.9543790483126 244.15309931410692,636.7078996435969 247.85054008325537,635.4841414789165 249.57064852159218,635.5552374662161 251.55888742451418,634.9574562606701 255.59015959968988,634.6931975694415 258.58235632278223,635.1337425315529 262.304499531174,636.1876678340528 264.3844207604605,636.2288109247423 266.392830194297,638.2574729352925 267.592717213528,639.9428851207779 269.087531873253,640.7226631097767 272.9885981860683,640.0044146464923 276.63528381993723,637.5374556340867 279.65921131035975,637.3510860290528 282.4957342547819,635.7806870966481 283.1094050299252,634.8866566760306 284.7712602219004,636.4258021584117 288.2337870426456,635.9969069194686 291.20296153339933,634.3594499768963 297.88339176214424,634.3318867711964 299.54196024713036,633.1527896823384 299.52282606966594,631.9850705929193 300.73080558631045,630.293942259195 303.79803063163735,629.6598046018653 305.22535191358395,628.8246947777969 307.1497742058705,628.8012327777143 308.77981721157477,632.1322182130452 310.2297417149798,633.8926765606402 310.07640911619035,635.8181987982891 311.48871178113575,638.4152569824266 314.3559404715067,640.5412767176342 317.27936330187083,640.4922383883693 320.9674081036648,642.4586137312974 322.600996637482,646.4964391023708 322.50265981434984,651.0179186061787 324.78831127965947,655.2158825619841 325.96832286568457,658.6049161104651 327.2628403472865,660.2059912856793 328.7547044032335,661.3171469565425 328.8454727956884,663.0121036358121 330.5454885623866,663.616354813462 332.72077855699376,663.7007034601329 333.82259616131415,664.2745427216728 336.13121565253783,664.3326544652252 339.7253109214157,666.0397318473514 339.8148588756489,667.6382350377223 341.6956343072852,669.7404009573784 342.3884597744668,671.6450697465436 342.46821715798575,676.2313484510107 343.3635054785436,677.3362987060864 345.4560706489838,678.542672687839 347.2412026184126,680.4526489093887 350.69989783466144,686.0526600895951 354.4789814335415,688.1795897650661 356.658402367803,688.9854457655774 359.44005058788355,691.2030015245828 360.7357198574824,691.6098372621457 366.50919783001126,691.604427469746 370.8522265504308,692.8991116807587 372.3591701415592,694.6837638207151 375.63467515512366,696.2083758174317 377.41281361994754,697.6146397761829 378.6955579835416,699.5247913693263 379.9161807141981,700.3147852702238 381.3166935304595,700.2080804782004 383.0628307443772,699.2743143303713 385.89279562468704,700.6364470137876 386.69392095152944,701.5639928936324 387.481464693277,701.2083331903233 388.8961073063652,701.8644670220873 389.7643287404589,700.8655492539881 391.2080551434751,700.863265441819 394.4752378302469,703.5490977362338 397.8140929248818,703.3973064595815 400.34244602232,705.1374117338687 403.4865492675159,707.7850285691536 405.7503316956865,710.2540221155143 407.4752055256704,710.9120704634979 409.9622904608454,713.6932922924789 413.27073759366573,714.6223032862464 415.90257218850786,716.8320957588426 420.0455970681002,717.679596112046 422.1842256565074,717.8334597300837 424.61230355327734,719.1036146123181 430.75802357061707,720.5124866238136 434.0930751247734,720.634726214985 438.7718508772794,721.3881080261151 440.79082199709524,722.2753063559359 443.4858643377714,723.9375944055766 446.3597583182111,724.1980102852192 449.48351797225547,723.5262696003487 453.3223703469755,725.1001080457637 455.0013766108834,725.4565432700948 457.3630767002757,726.9296011467359 458.9091147520134,727.3542713977762 463.7836174613028,730.5652200735988 466.28860035151456,731.4497500743742 467.5900895216515,733.5296304851262 468.37665271804497,736.165260198051 470.72782807330753,737.0442833943268 473.21683379074443,740.6377288049234 474.90262962181885,741.7993066236444 476.7147600616707,745.0813721355926 475.8438339658808,748.4262625165422 476.5626036136894,753.732989465687 476.327162731477,755.8616712732719 477.6065568239835,757.8130980429819 477.7972482443546,759.0465683416628 478.9491894309521,760.3084792413741 480.7316397743791,759.6124662010119 482.1043732188463,761.0654810825353 483.27524150213645,761.2362978655212 487.47655849347274,760.1318908355531 489.6459474351804,760.1356234381728 492.2289219582239,758.2017647316417 495.60855974738286,760.2792500151385 498.09262780556446,760.5283078183294 500.29435496752177,758.1706121009476 503.98006557533074,759.0685580659995 507.0861235670948,758.4656424217203 509.94987385035205,754.70975573739 512.2293862438464,754.0996136140553 514.4140803942108,754.8504689418021 517.0093656997145,754.0214480315469 517.8443600115304,751.5621244098127 519.0624349555067,750.5836467822975 521.2531446129449,750.1699654282551 522.9320501570571,752.3470438668056 523.1415541716689,753.4331409091801 525.4597274720198,754.6118911914438 527.0202383302095,757.0276978592541 529.5491323103859,757.9164000671922 530.8726409164174,758.9047270747546 533.5029478836917,759.2134957680845 535.3238160520823,758.8806022911797 537.8533169193096,757.4252903233706 541.7543580902126,756.826005051727 544.090705940789,757.8572240126593 545.555349044839,759.6229114025357 548.7169415602483,759.6504481525335 550.3286806062399,758.7356678831844 552.1536041633422,760.4364598708515 554.9368531605915,761.0984262894773 556.0940764367859,762.5050067629695 558.7426093578084,763.5773587353654 563.4675131492224,761.0285098257904 566.3261920368484,762.7136812247975 569.3081849695924,762.5647554213981 570.3317293473967,763.9656182724931 570.1532622758111,766.1105187665789 570.9428188258979,769.0073151629173 572.4964903283714,771.8866491241894 575.6060160601749,770.0570927849939 577.9603774416014,771.3377641665825 581.4181512002302,771.6329194943661 582.4047614430523,770.5110602449871 584.2753408376337,767.390079380334 584.4090431446465,764.6923760841237 586.5824588496889,763.5184495292632 587.1336024961554,761.4382010401147 588.7043690904932,759.7006150973016 591.1867340614384,759.837894512755 591.803705879716,761.9322324746358 593.4252903300968,761.9020715875424 596.6425871412747,760.3291338586912 597.2289134450219,757.5801776300948 597.8370969817078,756.6464778678484 597.7715934918191,753.8561691735223 598.8867974161399,752.9671773754469 600.2235734841449,750.9584329878244 604.2583268324082,749.9431278343957 610.1455010735136,754.2881961834271 611.419312984905,755.7310999126656 612.456797862175,755.925939666031 614.2890367765452,757.3799242554321 615.8906965140505,757.4073863117208 618.8141861443279,754.390248604216 620.1747716955326,751.6880347172421 619.9860611646548,749.8536595051883 620.2977140511231,746.9241956496651 621.5011410351927,746.293246221634 622.295635508881,744.9638109012253 624.7223178019572,744.9703368040184 626.3858152351087,744.5721565471654 628.4327892450774,743.3835986948893 632.4495469378435,745.4914140039128 640.9431903197803,747.3508625969374 643.3778687435621,747.673557388192 646.4197059680587,747.4763036961881 663.7704638749009,744.1478992241971 672.2241167831748,743.1455741907981 677.7907523237776,742.3212805294473 685.5949012572548,741.3816502155296 695.1924575464775,741.1263661514868 699.2348005564851,741.6888211654509 707.2154622863757,743.9474231743152 711.4627981007109,745.6180154274559 716.0294810867256,746.4427334451889 717.2468706168611,747.5742731724197 719.7050315133405,747.5667358440812 724.3168496808312,750.4557902122187 725.7227937345469,750.8911909955815 728.5407670856689,749.2609966107938 731.6336567488811,749.7973888774258 733.6290929547262,748.7104751771423 738.0559224553544,748.9092756425703 741.1046179231429,748.1922895021642 743.0855236836746,747.3248791856331 744.562570974852,748.464736591527 746.9050826246386,749.1503420840692 749.9704297441182,751.7050638287262 752.6187432246323,752.5939538496528 754.4016704751874,753.5629183578026 755.0728853189242,755.8244167800655 754.6476456893154,757.6675351021242 754.8842805818722,759.1345588500998 754.497888220986,760.8877989147114 756.5828022676045,765.3506733586536 757.641306097733,765.8833328129006 757.305745345815,766.8372824515578 754.8542416119719,769.8035274378755 753.7623787043362,772.977394109663 752.356946097101,774.1233299886212 754.5764723298767,775.1622868991186 757.3409554530109,775.3149076524181 759.9888353401278,774.6152622543251 762.6129295600506,775.7000780765045 765.0958711710635,775.387858719764 766.0129353691392,776.413741323109 770.1847051385342,779.2395064672636 773.3289046222477,784.5130270310287 776.2502520048811,787.6917188929756 781.6440027943535,791.9987041208476 789.3753753548475,797.7487751932739 792.6341203308805,798.5049113594339 796.3396477728448,798.595705935828 800.9713615193509,798.1473320467084 806.3891483771464,797.3333992531527 816.3217178006108,796.707018460236 825.6767551765151,794.7017773455884 834.1489830495693,791.8885148799003 835.0844262991831,793.8174726755916 836.3695970665125,794.9619850435681 838.7419629973539,795.7893524471862 840.0883872831627,797.6243736932255 840.864815548861,797.6429193067061 842.2617314861097,795.8898749966592 843.7718309081228,795.1769633801489 846.0350519714151,795.4615918388213 849.2443459345603,797.3065803417827 849.8875673303675,797.3610561773196 850.5486079531311,795.5727526104721 849.18687466917,792.5481023161728 848.9600190523757,790.4684529929109 851.5970833751228,788.7036599588328 853.9146030152765,789.075064260935 855.8103788548292,788.481061590636 858.1413591462687,785.8205517947537 859.0862784047245,785.6050295126211 860.4528150769603,784.2606631212656 863.4322973385567,782.5667033316803 865.1216537049247,780.6173217325647 866.6677028232072,777.6782590600857 868.0232142853749,777.0270762874047 868.6322398375697,775.9491897065903 868.714850868488,774.2275089999283 870.0469883862908,771.7598211761622 869.5210457121863,770.4235956017453 869.9270893350657,768.7901226220157 867.8212063241122,765.0980143945646 865.7985928189458,764.5311862446177 865.3727420126025,756.85576988881 865.9682209733274,754.9977393137854 865.5839219111001,752.1667443791316 864.8650056774133,750.9425663009465 863.7417901215576,750.6991788378319 857.5475478277732,748.1078395638283 856.8950334943869,742.4933644900323 857.302113991412,738.4679408977171 856.9906835426505,733.2189034856735 856.22677854105,725.5835783449696 855.4509158209042,720.6756729594895 855.0487472964774,716.5379118387042 853.2612977135869,710.5710300300566 851.9162681973843,706.6493870216698 846.8516646711712,699.4309057395964 841.822535820553,693.01728629121 838.2560234471073,686.8287850658414 837.2862592606857,684.012020430755 837.0827963236187,677.7833683431487 837.5594001655099,675.0388369899014 838.7552564604955,670.8099597287763 842.3166896349826,663.2456886023767 846.6893720111169,655.9584509310419 849.1879782514002,646.6972547389106 849.4736901039424,643.4804419352845 848.6896954369421,638.2495341277354 847.1214467345094,636.1040306038144 845.405238278808,633.1340255228757 842.8813645523684,632.1050002365043 840.5178493793284,629.5197541135041 840.4366799500448,628.8646818797863 842.0767872669791,627.541183777697 844.4299749229128,626.6357540439559 845.9027389258446,625.2366091081651 847.2702493265216,625.138692195877 850.7032799651595,625.9137656499747 853.8231165170198,624.1400259819342 853.8034278910193,623.1264135365634 852.7635503700793,620.0483857445568 850.0734212655236,617.2146258252299 849.2853719318689,613.2288487689583 847.8333245345148,609.7580047585582 849.6073639657276,608.1231021849326 849.7974930651144,606.5590745152019 848.9441776811075,604.1748717216773 850.1970766690208,602.3441922495304 852.5861631111429,601.3154190085648 853.531205568057,599.8673164548595 856.8406006051531,598.6408148905266 857.2315242733308,596.2278682779407 858.0131986558525,595.5231669941783 860.7459518851836,594.2975201190359 862.0659073411244,592.3189207381434 863.9707717568477,592.002064417013 864.5681111659636,590.3046421299105 866.0124138769885,589.0446959091579 865.8745958912616,586.5258741742855 867.3672167454206,584.8265412916658 868.5430731879749,584.5636541925682 868.7225849984089,583.6908773655922 870.2854054708133,583.9841986300967 871.6625397142925,581.5495451380657 871.4237514698609,579.1079242545718 869.4329409076452,577.246110237865 867.7324963554166,576.1462466123389 866.3311481401403,574.3727838326269 867.5215692184775,571.2150473331519 870.7667211166992,566.9331774251093 872.8541807557298,564.8839749229732 873.5873676114776,563.6208071702791 873.7686790619474,561.7917442982405 871.6307797338836,558.8006889918759 870.3230428354024,552.988537920824 871.0926876314194,550.8989074488053 871.1555812469023,547.5667647508656 872.2776733071587,544.2185124521154 874.2523708527561,540.5203905838175 875.4263926191803,539.2367249204892 876.433773831223,537.2131499929919 878.4109125046307,536.3105733206635 880.2017284022287,533.3556878340848 880.9949110202597,528.3817617694194 881.5716966304666,526.7447466069382 883.1828966296022,523.9735626248398 885.4644904900225,521.3040943188416 888.1442518508421,517.2294868732056 890.5648802908527,514.7498620692404 892.011914055459,512.3645611507688 892.1038969668184,510.3625102948589 890.1229919520677,504.4408414846812 888.4693796186174,500.7922020161781 887.2576822974386,497.47124298314213 885.6667973503965,494.5088980292155 885.1135735272478,491.22425965608534 884.33461027193,489.58971171835316 883.4814363649972,484.8900931476096 883.2868049163135,479.23285995118204 884.0011852036317,473.76657819196834 888.641234922821,474.77200292238393 894.106102985941,476.21230357234475 897.9870631324728,477.5480514486285 903.0834093274945,476.7098063836106 905.5823997382123,476.84146577837134 912.0657761253245,476.68683926264 916.1831839475194,476.3786243721234 918.9837708624015,475.33589364690835 922.7088638482384,475.2982623955662 925.0458533020869,475.8151344919553 926.7451526506621,475.6715177473838 930.7333974784826,473.894063400682 935.273802714515,473.0205311916945 937.7061131917529,471.71334774683237 940.1597188362064,471.3994174747048 943.0272641477726,466.0896062335128 944.7425200414249,466.76250634627456 987.3534149961148,473.23561857484856 991.1269966767203,473.7085680627562 1001.8262217677095,474.02897556318186 1021.9826273082181,469.82583764042204 1021.701879904179,460.4109029098498 1022.5908296698574,455.4863059144639 1024.0,451.67731933801167 1023.6741967496793,449.359266139022 1022.4698546904854,447.75137404231674 1021.4832020327267,445.60985322350194 1021.4567319266334,444.23590286637705 1020.3929016621958,441.9276828768802 1020.2682989778997,438.88347268418363 1019.7847720000746,437.0409733928856 1020.2733669794893,436.0300354342284 1019.9643387266278,432.39460661246846 1017.5886169425596,430.1073845830241 1016.0113017166157,427.47726983490526 1013.6612167133849,426.5309385148426 1012.2190419726545,424.2284408585341 1011.342862660667,421.08245674020327 1007.7272495666828,419.10414676650674 1003.0753908992033,414.95456583097655 999.2862570763992,412.0446021330256 997.0648760085706,411.53803825195325 995.9813477319261,410.41098588085447 999.421089342904,398.1141258458821 999.7705923855924,393.29708358870425 1000.2092215745906,390.81177700844245 1000.1831627989966,386.0885577247003 999.88341206586,384.2012071247195 1000.2030938454898,374.25311688775446 1000.1004290238609,368.79222075103644 1000.7480421171922,361.59665268179265 1001.2702563423192,354.04286176278407 1001.5959635574154,353.37833939263135 1002.3151455288121,348.6263005963467 1003.9052507753694,339.6837133248147 1006.2008007583448,329.84029523791946 1006.1735169752176,326.63249430243746 1006.5495580723199,323.5557936882023 1008.3226303210471,317.95738967500233 1009.2758434819324,314.11998186481617 1011.2734914917445,307.32213935341247 1012.644146206937,304.342141996133 1014.3886019953158,298.5616843685929 1016.5040707671885,293.1713928910503 1017.0175099478134,286.39534813222656 1018.3287512681343,281.1311723602014 1017.7226949578069,275.1121790650209 1016.2606336871611,267.061987852602 1015.2578819849117,265.22894552629316 1012.681560046883,264.57640949936865 1012.2989569931452,262.9557302990456 1013.2614529370513,262.41542762972676 1013.085987298221,261.47125378227327 1011.4757401773807,262.4843672375057 1011.2851372573302,261.38817274822406 1012.1902759418557,260.0773892574782 1011.3613553301744,259.7433644477884 1010.2109246913835,261.0387393168644 1009.0807063517562,260.84372916422353 1008.7233609041227,259.6650707372536 1007.6072864485301,258.9783521803921 1007.2100176133594,257.21330413719295 1006.863752404175,258.1508341848338 1004.4295976599888,257.1473073598104 1004.7464752938547,256.26747887741624 1002.3274249800805,255.10239256088687 1002.2334740398886,253.54388296836441 1004.0864383031125,253.38416903156485 1004.1673993377556,252.45571346384304 1002.917219184227,252.32971277940328 1003.9075540719338,251.4269311870995 1002.4413965471143,250.3581023455098 1000.6068395668902,250.46884544533282 1000.3050943434564,251.50135726989117 998.1500390145018,251.49414400508124 999.6557243754002,250.1226654689458 997.4256187241789,249.70795465688423 997.2826757963053,250.60560609858624 993.560445474358,250.45050901401373 992.3476587964782,249.61414745974946 991.973887354974,247.62360471317743 993.2956977338955,247.45783770695436 994.2764305927124,246.56401755399315 992.0583039686168,245.2873158323664 991.3518077342236,246.43769017830948 990.453092997847,244.9231700854325 989.0601692901741,245.09054988208493 988.4345485438472,244.1062245056678 987.0245162585954,243.46948666559194 986.4520945071897,241.62204259359373 984.7911181446826,241.7262462729566 984.2508243931685,241.14130603781393 986.4294976999644,240.35989060733425 986.8642345840913,239.00955974646615 985.8743703069472,239.63063854712846 984.5417050118368,239.46629893423358 983.5223743688275,238.29364995917808 984.4281241979604,237.00867014757796 983.7493908196632,236.55642535795346 982.6293289002687,237.2454749149573 982.5916952588875,235.517851341428 983.7328080220176,235.75235930706424 982.0135867026412,233.19617524544208 983.1126379187502,231.5744776656759 982.4172479406773,230.32724944082509 980.7526605895304,230.29500421408363 979.869511165123,229.5200211958827 980.2361727570312,227.97963836729184 979.8192669892214,227.11694109235043 978.1602525117984,227.55878649837553 977.529966620931,226.10780167318376 978.3037681823871,224.82736824085032 975.6762153942392,223.15429339876061 974.9438216426573,220.17932253053823 973.3870040037318,219.08180800090997 972.6658398358624,216.43667479536168 972.9569359149308,214.7624508917861 972.3425823226223,213.7782492018424 970.3058881333155,212.3587189528497 969.3432171900945,210.71861295284498 969.9467416736371,207.7081410347746 969.7799967761719,206.37944276788812 968.895149896679,205.5322552962307 967.5671301694001,205.7695858133054 966.8902465936949,205.05256902846418 968.5316239084019,203.808504028142 967.4337134815885,202.37437427298767 967.2260688467443,200.74127979324328 965.76257229524,200.5814655944455 963.4638822988672,198.31887267676245 963.3318305153182,196.16970991044445 962.4654494199568,193.72377318030374 960.2978240055794,192.62231029061718 959.3173846266675,190.42078042401715 958.3210699330992,189.58618108350663 958.3570973993485,187.59237547295402 956.497439563912,187.15570910743952 956.4570192939647,186.23350405528208 958.0139129765787,185.23400129386482 956.7763910322625,184.48711232074027 956.2509618155874,185.251703782625 955.8383845978898,183.8758240428341 952.7127156761268,182.43621800684207 951.3649080380306,182.98715633565052 949.630584675958,180.77036672014742 949.3859106955117,179.22869680686085 950.0563357688849,178.53149070885956 948.4649249819689,177.25098591113704 948.40762160454,178.6101792658792 947.3219010462917,179.38465824360037 946.6183066769745,178.43594505634815 944.7282140062925,178.29711806870978 945.0865734143702,177.40942503453846 943.9302939393017,176.65251342406737 943.4651860133476,178.01734518383125 942.0213972222504,177.5020698442505 940.4098679732906,178.39779163710705 940.1081454416693,177.58067487247797 938.3831674854123,177.19479037112626 937.6443095769813,175.78183069371187 935.672400047173,175.6291652782014 935.4031536129304,176.12766775623402 933.4171658034625,175.54158041448977 931.8107415955608,176.91882908494642 929.580827574723,176.6622948692799 928.0826673691404,175.08836974613132 926.9721686012243,175.73435515692563 926.5656612663439,174.18943946149693 924.2912495431993,173.17917508909613 922.2991079951086,175.55563290059547 920.4851376927357,175.87148114461013 918.1052379017275,174.43820281963087 915.9454138339809,174.45082772402952 915.7072827090507,173.38246244682853 916.8008778629819,169.99066535248926 916.1068541074179,166.78492491405552 916.4844765071155,164.886660022333 914.8230750077431,163.27765855421035 915.0663971946284,161.65585916899477 913.1415221146921,160.07203507426607 911.9174852834368,159.70962256809423 910.2294813302236,157.89352273520763 909.5462701662199,158.50930393320778 908.0444222947874,158.36412845178927 907.7627416411975,156.87245997555976 905.8028584535978,153.86014637098515 905.7976228772204,152.41563477168643 903.8224491340065,151.47524797503968 903.6216304700375,149.97329387422747 901.9468472517318,148.86236698988068 901.1489386838082,149.7146167595355 896.9916668287367,149.3167127808165 894.9709904868713,148.8586723354332 893.7633576031312,148.02229938139385 892.4196544858459,148.36968801613898 891.2413521361115,149.42540199388372 889.2904471450772,145.68313006982862 886.8571143850144,145.36639516488913 886.2545520902571,144.34222182259725 884.9909480425432,144.959691211188 884.2610277520157,144.40470297377 882.2664005237955,145.75084538601072 881.735435639145,144.72437289354116 879.197879669147,144.97989446437487 877.9698591281247,144.12762136925642 878.5591737456747,143.4271682244505 878.3712418468479,141.9730153841931 877.09600911916,141.56362427263764 874.5683984790783,142.46845653619323 873.3631418817436,141.687401500674 872.3937948839592,142.27924192563933 871.6773616998431,144.12243632758134 869.7243472490425,143.19655605495257 869.4714445665106,141.60727823542106 867.9551632828809,139.98572606566415 866.3524773279213,140.16326753663714 863.7910157264668,137.66720304708247 865.5985560200997,134.87546872265239 865.7250594807442,132.71411259090678 864.4689453105894,131.58950445195228 863.0846156784662,128.94516899983626 858.7615320502208,128.01972382111546 856.2824846952253,126.84427465214105 854.2050517772298,124.79874344602399 852.9348674119911,121.19712744572837 851.68282549655,119.19060262421692 849.5340095479819,117.79622617429561 846.6343542129707,116.45747368207003 839.5465299894256,115.22934768726361 837.2223588961617,115.07503702052009 832.2489967146736,116.13917711199417 826.916947866567,116.78811409517425 820.6541620222104,117.27938769298248 810.3782394003907,116.92722778282837 799.710178600316,113.5767913799391 789.5420051067214,110.57006437023892 789.732980113104,109.77899739034444 788.6829539215237,109.00014767322739 787.4861408281207,109.11527178017991 785.66597458152,110.19339519596167 783.0273229125033,109.69253967257146 781.0938442603936,110.7184579289742 779.811252923034,110.68333388063672 778.588586835245,109.90080394797246 765.2610833885761,109.06318335513436 756.4425217058442,107.95022376057227 747.3711783305266,106.50599585311329 746.5778677710146,106.49600236302786 741.1507196326344,105.15681560076837 728.6877303182052,102.72062989232654 726.6768698405899,102.07856857633124 720.8809282066118,101.31617225870082 713.9012239809948,100.01577822019556 702.3180410908262,97.64491888469252 690.2619617760133,95.00220259267758 675.7367057026414,91.17233686959753 663.1634921063888,87.6232533054399 662.1009151682272,87.40248148655098 653.0227055542335,84.52066231046604 648.989329931098,83.36646444404994 637.0055376284766,79.6188314532659 627.8136748184561,76.91129522009373 616.2245754638686,73.33309151540277 611.1834753402965,71.17631025340825 601.6132624186682,67.36034467966749 598.5153633439945,65.68258517274239 592.7604431016641,62.060477725480496 581.565784672921,57.64838152973289 578.3126211378669,56.20501453946849 568.4407590016959,52.214503921772916 552.3668355941629,44.64641207075624 547.6228834497323,42.29255727493933 542.5260058914707,39.98612425229487 536.3015492235119,34.93845248928494 529.8242022433529,29.431987165799228 523.0710399409967,25.97820218792083 516.8846724813933,22.44774309937759 513.2288882318,19.97130129538948 507.0538392071349,15.47976481541491 504.36946481851885,13.325126408770188 498.5083285959955,9.177858294178236 493.42330388285444,5.237358744734934 490.8261336085367,4.686838763468359 485.90643765153294,3.1871027333862685 474.3214204860619,0.0 456.4390246189788,4.85865188785408" /><circle cx="569.1434370739383" cy="385.68087443748095" fill="rgb(100%,100%,100%)" r="16" stroke="grey" stroke-width="8" /></svg>