<?xml version="1.0" encoding="utf-8" ?>
<svg baseProfile="full" height="1024" version="1.1" width="1024" xmlns="http://www.w3.org/2000/svg" xmlns:ev="http://www.w3.org/2001/xml-events" xmlns:xlink="http://www.w3.org/1999/xlink"><defs /><polygon fill="black" points="585.1153879315864,868.8961692358397 597.2877166825094,867.0518951134886 609.5458353735198,861.7618904400758 621.7515462503579,858.3299157011786 630.7388193439548,853.8840154739586 644.7786038772788,851.9052560867646 658.4511484728778,847.0977502276182 674.0548072518312,839.058254854899 683.9421688380951,836.4757014209288 692.8701406802984,834.825261824057 703.2258652675481,831.7818260064166 713.9059195502846,836.2249174104154 722.2360935363415,840.6058987184114 732.9598293847334,842.7098096298139 743.8280883075513,838.7264813064658 753.8352235541506,831.9451011145497 760.4822788618674,828.3363197239593 769.5442365718964,821.9907134080338 776.241027572838,816.0621900853413 787.2282489542932,807.3931376010803 795.731220274551,805.2384456693867 814.9550134790342,805.6162880039659 828.1388356170415,803.5560233191314 834.6667464734719,804.3687546959869 838.9951584021238,811.2219512477963 840.1227275794922,815.7038995799276 841.857954825393,817.0943317216578 846.3608090272631,815.7214161656209 848.4731589017387,813.7995903307404 849.7546271726993,813.9433446308208 852.4308525196043,816.2474007262854 858.0116686188499,815.202658957073 859.0939609279324,816.635191674332 861.511762987721,816.5527933446771 862.8910211363823,815.2781777634923 863.7874266672351,816.705849874348 868.366145607302,811.9693028836052 873.6212650540855,809.1165455917151 872.295127601847,807.4979261656682 875.8442254630605,802.1089723583351 879.797067884527,795.1194739901418 878.2867840477583,793.0075675477367 874.0534499777792,789.9870819833961 871.511098739821,784.1502729134446 871.079471203778,780.4144013615578 872.9429014374471,778.8967072271636 874.7305099155815,778.6771966239863 876.2453746463592,776.1896304827328 876.9004022082798,772.8600663128719 881.3432517906854,764.9019698894466 881.3417109865343,760.5435135114282 880.4172407444421,757.4286742820073 875.3530312089947,752.1952047859594 873.5424062560778,749.2720258817545 866.3079685033824,743.5036184820738 863.1120831866128,738.9354683713651 862.8066095105852,736.3169556081273 863.589647676064,732.880365333916 863.2869887950799,729.0108081860011 860.0905930157938,726.0432381881947 857.1693683407768,720.0714673863441 858.1690446822481,715.8780063436525 857.1363560976903,712.6333845490544 856.9155136670837,707.5515959404947 860.525704804584,706.5415749875397 862.7705295193963,704.2039858201608 868.4627410630454,704.711575525803 871.2568180415545,704.381305519043 876.2450105971421,702.9364110556888 877.3842582793867,700.9297746159824 877.1359447216424,698.0899458486994 873.6905915975882,690.8231686200379 874.2399880696244,688.7910525111461 878.2752531492779,688.8955398510537 883.154337619532,687.9607278322255 892.0868873662255,688.0543228095378 898.2112963773149,689.89042614785 899.6736552432753,688.9692816947561 898.4217818281718,686.5064186298947 894.439759740832,683.1268930726784 892.6589615468773,679.5566425610472 892.8447940892464,676.7709748235578 894.7681755033988,675.2300856459889 899.7051979380989,669.6515974825795 911.2835377427721,667.4407171074351 917.9686524928427,668.3316048868453 919.5439071875675,667.8669880340448 919.1324933258287,664.1093122089089 922.412296679173,662.9441673145263 926.0937346768649,658.2812484814834 926.789519490472,655.7416451632024 925.1147676932414,653.2007643639936 923.5730785991134,648.3287051061163 923.7909456704415,646.7090809337058 925.9012251429752,645.9514447737333 927.6547293023667,642.103955564712 927.9343298902995,639.2879633671248 926.3081446340187,632.4717096696569 928.9549889817856,624.818122024174 931.2325439287915,621.5911325706506 935.6932316072151,617.4814664470019 937.9413416918019,616.563647767417 942.9143852475408,616.7229693246825 945.0994350766962,618.7124103906683 948.6410592186811,620.6483714476334 951.2282250747971,618.6105233589969 954.1801115589572,615.2388092971491 953.779325173538,611.4672250488445 951.3819508513351,610.893286804393 950.8205427039214,608.9635704132119 951.6311665530953,594.557848372498 951.636641946528,591.5140908084957 948.6382823888243,589.4202476334174 946.4685780065295,586.0472573907607 942.0099239888941,582.7713243392874 941.0672682298557,576.3344502336176 938.6023875384004,572.3732155382426 939.4087865130919,568.7181713175378 939.7959330803626,563.6929979905512 944.5641637121398,563.301335891697 948.6404540768276,564.0980361449996 952.1569943384649,566.9655434865263 954.2130666886053,567.4286411888229 956.6717341124614,565.9251233355762 960.4874235208366,565.1857527533092 962.0604646154837,565.926777900545 964.3060577380843,563.896450211623 966.5788717465451,563.1934951581325 968.8615357182106,563.7050351460578 973.8029395302231,563.8032729452414 978.1755573529208,561.8877311965966 980.4818144599712,562.3301682231893 983.5579502737578,565.8521625150255 986.6553315993598,564.811891317512 990.8181882904927,565.462319124568 994.5298734815351,564.3166933959591 995.9916801808869,561.2849844691216 996.2769845175588,556.0691505574014 995.3486085490689,553.5151134081211 996.9792410913415,550.7779142120189 997.351105460444,547.5226140289111 998.3874224607775,545.3347035176471 1000.1975931256106,544.0819914739199 1004.3705671434059,543.4935015797073 1008.914336242354,541.2399436601048 1014.5717576022889,540.4327219024576 1017.4566224803835,540.435178609206 1016.4183862864872,534.7693146953818 1016.6037364576604,522.3982856148804 1018.9327984613469,512.7668101628562 1017.9036492976595,508.81012299484445 1012.3531857011945,504.2028987293753 1010.3247782162563,501.41907767811836 1007.2620753651119,500.26516317254396 1005.2919677673018,500.8904419380945 1002.9306189765133,503.55829600773535 999.161969021587,504.18134585148556 992.7231708070897,502.4292797971498 990.2494038214625,498.0189948877896 989.9195285838942,495.506503632812 991.47369593517,492.50375841432805 990.5810165095388,490.16722995830776 990.3293961648803,485.3508001228927 992.9525534810005,478.90585288970004 990.660266862589,471.8262313162995 992.8419451543471,469.72033586636974 993.3266162528422,467.3141816389218 996.9049650236615,464.73023039212393 999.6054152161115,461.7664216887302 998.3893630819915,457.097515361775 998.1326335145301,452.91468387441626 996.907023313006,447.3910188802165 996.7211445112966,438.71670578846954 997.5345147739192,430.6071758830252 996.3977521952307,428.19706012280454 996.4704157198677,425.6783282513364 998.68594381058,423.497593244357 999.8686238467508,417.4988143655761 1001.3483351315328,414.93977601575864 1001.2757615307406,411.6835131045089 1004.3834752799316,408.9097813780487 1006.197321813172,405.7621618162037 1007.342714757651,400.0526845233429 1009.4489530307478,396.425830141699 1010.0427372196488,393.317102577844 1008.0021685128611,385.6838625298477 1008.2228047999897,381.4210067409131 1009.6266969907903,378.57176304403527 1009.6381615232635,373.2018140403945 1008.8620019420598,369.97288946533837 1009.5245152228076,365.7987874743705 1007.1226565087168,359.4218226038969 1004.1624186840758,358.0412486549693 1004.390526474685,354.66577788119173 1007.9711859243481,354.7903895109911 1010.4154468668333,347.97277199478174 1012.5549294259641,344.9784106404255 1013.3278910406179,342.6080457839141 1013.7818925698651,336.42533895830945 1013.5544758520177,333.9358770442318 1011.632991246778,332.3422729681939 1012.5169316782664,330.4530501441109 1010.3387570707481,328.7855303175228 1005.6390902701684,322.62680902471675 1004.2031635252212,318.95399744575104 1004.0216013392919,316.32255732029716 1002.2044063067616,311.0292529191486 1001.7307525031301,307.68927636827493 998.1071045730835,300.7211710137716 994.0401092363421,294.1179139179725 993.3391790317098,290.4144087951116 992.112934602169,289.0771862528601 988.0440711956713,286.7053265605599 984.5675456270266,283.33230462577023 982.0195185104365,279.5840451707496 981.5337173993976,277.54994772222835 984.5319049871222,276.5505009541238 980.5938543107262,269.83144037427587 979.7025838372712,267.14719981275243 979.8798808177368,264.6351634084906 983.6803790676693,263.733751243901 987.3500723114483,263.8776508334745 987.7165383109867,262.06953965647574 989.6397339372922,259.47486374932396 989.2017643874445,257.21099564119265 993.229099947291,253.84965663369053 993.0179579027719,251.5424629184397 994.8677583649269,250.6753381182399 993.274826614486,245.8678740005571 994.8422925787521,244.278128030811 994.4531889067266,240.50886918386334 993.592780306044,239.43843800169373 994.925647704912,236.4690127591988 998.258620211281,236.47742208655018 998.8085480845798,234.7331977867367 1005.5372669999376,233.48796644973015 1006.2471277991577,231.07517332750604 1008.2020711697212,231.33692870306925 1010.0532043283729,227.86115747835845 1012.0105381559796,226.78596588422215 1012.047098091183,222.0441674152073 1013.7136420232957,219.34054539329077 1018.9555403993207,219.310515906889 1024.0,216.03518511052437 1023.487330993656,212.6370494083476 1020.3446473525833,210.40164493459918 1016.3533714448765,208.30637521687333 1011.3029403396986,206.8651215608911 1006.7228768483586,207.27127454038884 1001.4844556671364,204.70874021313148 997.6352950363344,201.50029453666866 994.809250189881,200.61943870348227 993.2263296223852,197.97094598117712 991.7946337975158,197.03937371891777 989.3361283843259,198.80074198789907 988.266746133828,194.62172191090417 984.981221826581,185.83392047930943 981.8243764158464,183.83637807881837 977.419593256157,183.00096753998878 974.8687694113853,183.55767403484765 974.0315270939425,175.47157647263862 974.4492123488503,173.24161675423545 977.1472548982657,170.55644527345294 987.4395114467529,164.89295554631087 991.74824362499,161.32017211016296 993.8362243853179,158.6785598832089 984.1936251599324,153.84096978691912 988.5521401920249,147.43205843191924 989.1512171489455,147.42882379661012 995.4834583345138,137.57594209976537 988.2078302860148,130.0630426262727 983.1416203244964,125.74992692014678 979.9764544738229,122.11657710011707 975.3547214272505,118.57491133595727 969.8730697487247,115.15428149518675 963.5364638699231,106.11420107527738 949.7265656561495,101.54362660455456 942.0397330298782,96.95110257139822 925.1522195179987,97.00912114306698 899.0450449621954,106.31991580004626 868.287023703231,104.90376721108532 851.3815999121069,115.73260725054024 842.1702419153495,132.66922419046762 820.6716447325114,151.20154538383144 792.998842549142,158.995896040424 743.831734715938,163.80177629456193 740.767964263764,166.88161363003758 717.7501853157879,170.0153834943318 707.018312514966,176.18499930045323 694.751928536249,174.6547839859835 654.9505661277716,186.98536399273257 644.2418688427829,185.44273466803315 624.3662618119106,190.0306901556661 602.9478029710059,188.47529550180332 566.2635918604101,177.68363928079646 544.876725647551,177.64525098822537 498.9668777265252,145.35270759202444 454.57704644921745,128.47087779215337 405.49093528273744,119.33634920885811 371.70132641720596,101.02190532215843 344.0264735289708,101.13767291546719 331.71501483166423,93.51361420403566 334.7669023995044,72.01082966882291 331.0143504866646,67.53372385842044 321.6370461074581,68.71674725719174 314.6145948312347,68.72508773250411 308.9882610472831,68.24781118090607 299.59735272543287,66.84609382267229 288.83867851945286,63.57175140520667 279.46689250183425,59.82560093650807 271.4985175224493,58.42239724863384 262.1406778612576,55.614099259471914 254.63675747366943,51.86414274103049 245.77097250189655,45.77928599783161 229.3944203628628,35.93598599464269 220.968080375335,34.05538501190392 213.48332510995772,31.71061685371842 212.5504213820936,28.896220576034466 207.87103433874807,28.877606880281405 200.39272592811182,29.336136196994403 194.30024696619813,29.342572922753334 189.16277246764335,29.79577082686626 170.44979094727108,27.872580642111416 159.70435384238127,25.974651041959532 154.56356555076675,24.553072262213618 146.63745531900852,21.251887527507506 137.7724690921798,17.010429975224497 127.99445303178001,9.008986627446689 114.93336573944211,2.8596979095042343 108.41872270282327,0.9590147342767068 100.01738544574118,0.0 83.20863676256916,0.8515138403524816 76.67723206882069,4.577287714584145 71.52202351701402,6.892780453741807 64.99471842659437,9.213071503319497 51.43693212960576,17.56918271206962 44.89896923994802,20.816793393868693 34.628131138349794,24.045616779337934 25.28578694521996,26.350705337497175 12.644494268817555,33.31966603678086 6.578652765616806,35.62779493886444 0.0,40.058369384223624 4.730996305668998,46.16856321601267 10.056822990899674,51.080941153283675 11.62066805460293,53.70481609513956 12.981018856635945,67.37903472152675 17.062917108822468,75.0792779457654 22.050234044973234,79.68349689733702 24.309242954335268,82.86762874266242 30.884017001818997,88.78281285417495 33.722223752608905,95.09842328108903 34.416920190206895,100.42430519796744 36.31918085243969,108.60145492409549 38.183015575135975,124.05235875654716 42.79852694131238,128.72950808403925 47.88542653940829,136.7124842062184 52.97571562937702,145.62591947143733 54.30886761061338,154.5206374609951 54.73517226215906,162.4739977708184 56.08715699771775,168.56523642366676 58.38870555010001,174.67057774698765 63.478849330975656,181.71817202556736 72.30969675699357,189.26773280391535 89.03702231844332,202.0097458474321 92.71189395860439,210.44461927732095 98.71999186026596,222.18084518460523 100.97511889852979,233.42124950112589 100.5363674173676,236.78799764916903 106.08174371337539,242.6455259430213 109.95790491188255,247.75250270922083 111.5515995249215,251.5415610125799 112.49301020931426,255.71079051717913 112.23687242023848,259.5680387074109 107.76014940577684,264.2998375094436 102.68711441602946,267.28851050626736 100.74429272337925,269.93261230254905 100.83133614723432,271.4119908923117 103.370749394687,280.2684007211344 104.38474762706952,281.51130029302624 108.50591189197924,281.48036059466097 110.27380187489156,282.44032041105686 111.48430543355501,285.3050597721674 115.9900330027347,289.47658037108204 117.51033846286057,293.63949187755736 119.00420887003128,296.0774828678137 120.72800825756411,296.76388963826673 122.6485336419379,300.40149099641826 123.73776406626932,305.83913575894223 130.8750144140287,310.7679877706356 141.59579494346553,316.45124361792625 149.5299838278331,317.42633090231004 157.01769056390782,316.5341116645353 162.64801505876156,314.2254830402387 169.70186222326998,308.6480403036587 176.2482577623479,310.0813602609129 182.7611393988996,316.20062538242496 186.96173919613366,321.36011269897426 196.71585257870916,332.6183659518025 206.03667912136802,340.6005495670464 210.6894022194628,347.1740167688598 213.4694132857234,351.85508387991354 214.36783337463896,356.53731446954384 213.414398117854,361.6654492436821 208.64197215028767,374.27904364644127 202.27023691459607,387.14980073793606 203.58199648119782,388.19858450236575 204.3121869470309,393.3296652709564 205.3313129145856,395.11990418557 205.33163413996095,398.13633724556195 206.1311347792495,400.37377348928607 201.29876640303146,402.8726617292998 201.79554126906956,406.52614776666115 199.25101477535102,411.5906787567621 197.44014340855884,418.29346912184957 198.2085047953649,420.52998362488864 196.36624549148652,424.96793952804774 196.26394551536782,426.9116465517366 197.63816988160616,428.9276487066246 201.26496365899547,430.6901979788966 203.55951808997648,430.6916070205846 205.7795232436907,432.80318552981134 209.27003997217454,431.96207705324355 215.76242783212118,432.6163108723026 218.68433912567468,434.43231738943217 221.9990235360232,434.94335837106854 227.3251478546686,432.8433331238574 230.03975881337584,437.0453633889503 230.0135153785755,438.9157299947723 228.42609767720324,442.8056361697253 229.67328511156975,447.9625706580343 231.98828516316826,454.7780276935957 232.00972243562873,461.45149141351806 230.9660822821319,464.4971752109485 226.77541767452811,470.28262105072207 223.75894936213595,473.8484269287613 215.21932408340874,480.83316568167027 213.69831167042642,483.504127780016 213.75289614136992,486.08865095167687 215.0443076198233,493.86467183737847 214.12136375360242,505.74429546048054 213.28539932781675,507.65107847553605 213.34280346632306,514.859427084755 210.28489686635405,523.4789860848787 208.54612578835142,526.8180628136681 203.78101800651203,531.7079674390645 202.84489564284726,535.5870904780328 206.1360627671443,541.5986653058008 206.7593386243743,543.8653356858963 206.70188529096293,547.7552001696029 203.4939347738778,549.768772000534 200.44152848713296,553.7707322570855 192.6636733662982,556.9865184717954 191.96376683729366,559.1714452370679 192.94393939164158,562.3142610426919 192.50011605723344,564.9529199102867 193.2327873961878,567.6688489901478 192.306711699005,570.1985294175302 193.3236501330876,574.4794942477865 191.28275811594062,577.205797890211 188.92629349596385,578.1165684413755 184.47883642723102,582.6579091983709 181.5623019070311,589.291588343531 181.7253339702287,590.6831618967116 185.041840153081,600.2379247044607 186.23649252681997,602.8168454304681 184.05528838254375,605.3669528547273 184.27461722135294,610.6437375466605 187.50217960742012,617.4430431938848 191.8764084919486,621.9750003270743 193.37420258004246,622.7411003959796 195.41905843067607,622.2316311024149 200.90577897392836,619.2679449000481 207.26429949527312,619.1816047441442 207.04825059551004,622.4960089653943 207.66585949050273,627.3493575085679 209.9061794448903,633.6391091963086 210.24863232288575,638.9624926715566 215.66382429991089,641.3374655934485 222.1046335907983,645.0687978253218 226.90299328667894,645.9683742838204 228.94577600921377,649.2578572070028 230.05128136001858,660.5123442677519 229.37266841189629,662.7246687084412 226.67280875386845,667.0080102316281 223.98252337376024,669.5963342112859 214.52842939385602,675.3145114746181 211.80496078580623,677.9527301354449 210.41659797292763,680.3660843754244 208.34930975880607,685.95280242366 208.17315953684093,690.9718770841444 209.3968561680673,693.9726406850066 217.84754519954532,705.5324642856248 220.37741113796181,710.8573493418615 220.40897719513734,716.6128078322614 220.96537086921072,723.5049692624837 223.8547176152717,728.5933182564155 228.92555906556046,741.6969483579871 233.56148758438232,751.0529938319132 239.09525024487846,766.0126927315445 241.37491801487175,778.6481509893591 243.66995124454962,785.6563996329722 245.03630827898183,792.2007799640853 245.4801734876377,798.7416229166728 248.72194956523848,805.2918308449003 254.77765108827015,811.387473491494 260.8613268200202,814.2016138235226 266.9671330729871,814.2228316958532 274.9549561861083,812.3661582039293 283.88225125376385,809.5844378965444 295.6379612168123,806.819687377669 300.3189568319579,807.293544550318 305.3052012865185,810.1075088496299 307.96586571419266,809.1607157650951 310.2288471840795,809.7417309077547 313.82137494544673,814.3989756585561 316.11639616260965,815.3243757872274 317.9347510545238,817.9654182806917 323.8516103600897,817.0296755866273 325.65721528667024,817.6908406091702 328.273906418006,821.3677170569653 330.1165605528628,822.8355780696147 331.39477286705215,825.5053136860802 333.0663665492555,825.7861364708123 335.8250351412665,824.3857270561325 339.0475983505658,821.6372154786551 343.2316842431798,820.3730864090822 346.52165633057876,822.3560299656923 349.4163871675346,823.0062370420479 352.6763547204907,822.1520126036914 354.2351618949818,823.7583502939306 354.5512523370541,826.7653653037543 355.8774866042823,829.5732603211908 355.11239639163733,838.2470800780657 355.79638293428616,840.3489092247816 358.2094426478818,841.166634041086 361.84135236096216,841.0776899208865 363.59732609350334,844.81219595139 366.3236569517617,846.2565414929943 370.1267645977112,845.246144524777 374.1785172555813,846.0423610841533 387.31984558602915,841.7074747481353 394.3811703250958,837.0644944323276 398.60994025268695,832.8780763617303 403.8186017756601,824.9681209155817 408.4920733714937,823.5793729017596 413.66398284294763,820.8105162037707 420.22004518598374,818.5173395639765 430.5206041575023,815.7745326275501 437.55303267338087,812.0815242562498 443.66091629740447,806.9812310880545 449.76081955526223,804.6816947709212 455.35681664817923,804.7146472592199 463.70776348834056,811.3288919539875 467.4159151876399,817.8948448219369 471.5608889006249,825.8717854390062 475.24545570491654,836.1723833267795 485.90489284844455,848.4128062146162 491.93955393504996,853.1287268384449 497.054954445117,854.1132270242806 508.2396281951287,857.4746229801365 516.1753297856179,856.604481650753 525.0590417384842,853.4115270681742 536.7593816844211,845.5767299322057 546.0683994202236,847.0561909200402 553.0433931275874,848.992720344837 561.4410593889037,850.4618124578412 569.8152625188627,854.2789277146678 577.7073665400496,859.0163790068704 581.892317816671,863.2552039070622 585.1367448225085,865.1613828883391 585.1153879315864,868.8961692358397" /><circle cx="435.42141862556787" cy="193.97418432762595" fill="rgb(100%,100%,100%)" r="16" stroke="grey" stroke-width="8" /></svg>