<?xml version="1.0" encoding="utf-8" ?>
<svg baseProfile="full" height="1024" version="1.1" width="1024" xmlns="http://www.w3.org/2000/svg" xmlns:ev="http://www.w3.org/2001/xml-events" xmlns:xlink="http://www.w3.org/1999/xlink"><defs /><polygon fill="black" points="0.0,1018.705420351156 142.72008264264608,1024.0 142.8910759185513,1022.9046608252972 141.92982554846282,1020.1136486468614 142.66841542118075,1015.9124234332919 143.96601703559398,1014.7615523576668 142.6131708931616,1013.499188059006 142.78405389495802,1011.9322876362701 141.21148505133897,1010.8195150431866 140.29877854069116,1005.4526984385637 140.53499597852425,1004.108891909522 138.7331499403243,996.3760548591889 141.1710475054342,993.7984530429296 143.61720936070435,990.3726456700001 148.05731116722677,986.428800267858 148.70635293277667,982.0839178085852 151.05550707648283,978.4777133082241 151.60633694108054,975.334687050172 155.96748211125427,963.0799825128163 156.94379119661696,959.5139345552077 159.39101592939062,953.1421727177016 162.11726592989885,947.5655105971366 163.49133709083858,945.8237309123634 168.05621115703374,941.2085576072484 170.7635910662951,937.2009895050221 175.95135111528197,931.3324581027009 178.44808099425057,928.8758337367524 181.83241354676358,924.797781909047 184.79165869107854,920.236104660755 187.46310850651486,915.2059604819669 189.99004883688988,908.888031649487 190.5908652385367,908.1348724390419 190.64367899838885,904.7753487151765 192.09378871688367,901.5556189348879 194.88773788274963,898.1190071435063 202.2968312490409,886.3609422523996 203.52906094780653,883.8348093941732 205.2782253428755,881.6175599792298 208.72998955132064,875.9827378963491 211.93140698476313,871.2061937332693 213.21456115139847,868.6725095288909 214.81859687191357,866.6700402284517 220.57739893185428,857.8598137148339 223.43449932540938,853.8039121635718 225.86506358230068,849.4745178735641 228.3167431121803,843.0229975642438 240.38635253497745,836.8902873598288 273.5767246439752,820.3155306914529 283.62921367705,815.1185337145935 283.11728510507254,812.1618117677156 283.71624539926427,807.1373594234847 284.0800031798992,788.6643308935363 286.5578601017749,773.5671158147236 289.71658864225753,758.2286508870841 293.5402350886565,741.5192857120597 297.37892344268863,725.9402363700165 300.06556350673037,709.706291561788 302.9731747707478,706.2384864948076 311.1492845671117,690.8138197104704 320.90962878250565,675.6065581663233 327.5322805432115,663.8839739326693 343.5106253124438,641.0826408432738 356.4584682217611,626.7441215009242 369.02186301252664,614.677060055546 377.09259784359455,605.6283005527374 382.2662870219392,600.5151334556093 388.87720395596324,593.4911296698837 394.5285067165797,588.4727570823925 399.5467590911457,583.2426317358975 400.4145249341556,576.5933983295017 399.5982195575133,568.8231913302202 395.9474791150422,564.091905244743 397.29045467716116,556.8831280588072 398.5073409219294,540.2053912124212 397.5570303529422,536.8004038721122 392.1340341665593,527.8793147660956 389.5010346995835,525.5427960160611 387.71681444237726,522.5906578704233 382.2820981380307,509.297659570351 377.24984604648466,496.60603738175803 379.707481457068,490.2062861668544 374.1188998558187,479.36475068212496 366.44013230688597,464.8948923306723 364.38035768977187,460.6902188232125 363.8439947458991,455.41038584398245 367.8683662010366,454.0620688876701 370.046659952632,449.684706737316 376.14727815015965,443.36233962526205 378.3725954836994,440.58416630046133 386.5318184906003,431.9003215911978 389.8185613911349,428.5974998253679 391.0090481366143,423.7069622918332 394.14443624978543,409.1833554228799 403.3116266241379,398.6515250305015 403.20605420043313,391.21084982688615 403.7644231848364,388.262489814264 404.8441273250534,385.1129342097721 405.34251057100494,382.04146613147316 407.2403562446156,379.71982830675654 407.6722159867776,377.56621898275785 406.77808004945445,376.1350356012896 407.68457714878366,373.73821546009435 412.49803532087117,370.7133456906497 414.8002828415649,366.7797655388961 415.2587638122508,359.65898524180056 419.71969548549833,352.85252155166734 420.7868412464263,348.6363660995262 419.9219595429475,343.9148835385605 417.63988915225343,339.5879309821079 413.8232134352298,339.96288922626616 402.49974833097195,337.8563013722419 404.4391714484402,325.61561172819563 407.11509925904465,311.35302335777715 409.08012201435315,299.36066558821074 410.91759985138845,293.2099228856538 412.4432648226975,289.95183596863797 414.9155531389818,278.86711962963113 409.9234212941928,270.1121670376956 406.63263746287146,265.27379379212744 406.5934456774617,259.33909590264534 404.97752740146103,257.19542761404466 397.0303362349616,255.55143874858607 397.1824094944385,246.37404215025003 394.47494012678135,243.00503325144155 390.9639246312707,240.4476575166908 386.98456823390916,235.14714881105772 382.55606221186906,230.4649191374233 383.4418324586217,225.94206707341982 384.8560778377008,222.0124472827422 386.5183951596523,218.90132882189323 387.72807198689634,207.01769924315215 386.26565419458694,204.73948446028692 381.4028958768823,203.12218521030206 379.5040558055086,200.8219241267518 377.5615199925046,194.7204514538829 376.2960906930032,191.7180146275299 376.45319986502756,188.15626440981475 377.6568186447335,180.7942663728021 373.2208249840344,174.96535568627678 371.73068010893905,170.93676844876575 367.7694623223775,169.06906830433036 360.13372977888275,163.31599474343022 357.606116254505,159.64433013164353 350.9299940238759,154.96791074843009 340.4748420911896,154.70626519330585 331.8098561176505,155.87756869798386 330.4641971248957,154.18968427150298 329.56825211929123,147.71056993516095 327.7312270170425,144.5327822040208 319.8511324887969,135.56889306282028 318.8848538824828,132.44718726919984 316.599047502278,129.37866768358458 312.14211285684627,121.52747448284322 310.4120795939097,116.60722151838343 304.2311237955402,110.53508773398346 299.3316936093302,102.64362432962218 300.4765480296053,95.77293562447915 298.9320279365328,92.99150142567044 293.45841852127035,91.77689577590286 291.4230167783351,87.12396351435564 290.6894110270726,82.70278238824642 284.0570413360424,77.34532080725842 281.34265781902127,71.60426092897626 280.3837886660104,66.87615850708437 278.3382107615122,63.97000254110924 274.1834406119052,61.73389493969603 273.01061334638973,59.93333133808096 272.9537696329134,56.898104504101866 273.44838325152597,51.77451939686273 271.2592198323092,47.44429455892384 268.34675387056546,45.75128754989066 266.0774011974401,39.94861338898579 265.58744200223725,36.2676783046378 262.07522489973735,25.515992538777027 259.17003410026996,19.19415261990639 252.68141517922516,10.907305636778688 253.04392468290808,7.971832019695398 247.4879517935874,4.46321672459726 241.88385366484738,1.525147510198849 237.0724231305892,0.0 228.53282945649048,7.108531637756528 224.40416965835718,11.718746907579884 209.5038997357956,8.106718344073215 207.1819796473094,10.511992971884183 201.035077237548,12.021332059979613 192.7742092209913,11.22214735435682 180.99697288335744,17.531147990286968 173.46321841567715,23.736626773094486 167.44033722121418,27.025244941419487 164.12000815450784,33.34100463430127 159.2925020820852,48.07826950364745 158.68493226447632,53.691083582634974 154.87850940394756,55.68001680108148 149.66238942621843,57.56726805847302 143.73907376362078,64.1671674028803 136.50486484540932,66.86560526292328 129.96366695554872,73.47288503474772 130.66129818282047,79.09983222347489 136.18332424771364,85.6342190170576 135.47164033987855,92.95872946871202 135.56727930616634,96.37589102892139 136.3612841530814,104.20415615665479 136.35780380381976,108.51856731926739 133.84267058638827,112.83184519455438 129.41323855940905,115.94257137983175 126.79475621822532,120.25269282195597 124.97414564907767,126.5757964864348 120.33442851965847,133.2095071696989 115.09155090349212,137.02841842696319 107.0199147419935,136.8437637286686 105.51618788193028,141.04677597641785 102.8577516758782,142.44274088499446 101.70874562946514,142.15622391049465 99.65868843794826,144.5877795565567 96.59977214089757,144.39890434471874 95.51200206701363,145.35903533676992 95.31614478048463,147.29545861496752 93.56799430402398,147.8456149400614 89.59544589749822,149.9392732997212 86.56390402164573,150.8340281249424 81.61635496994136,154.24553374527045 79.8919508168421,157.06483843639705 77.39324767652884,156.79449471936493 73.67543577480143,153.84234521918597 71.69921673057189,154.89861733510816 71.51357317844607,156.3296963554859 73.61631760108155,160.68720063579747 73.0389290819332,164.11940837175302 72.2046549259529,165.94048821769252 71.27627321869217,171.41713148395138 71.55124214834024,174.85356707352764 72.59297139949851,176.50665342120158 72.2424596613767,179.24046293589913 74.46888377178958,182.0147915720471 77.25586735653893,184.18306412081506 76.07173272350252,186.83408215273744 72.3883599669183,186.85120801419646 69.53599162221981,191.384148756606 69.31608939120969,194.46930161993305 67.26938943390877,196.0318599032388 65.42047319112207,199.996991776605 64.77360295205075,207.31937359610185 64.68879752474423,210.4428271921122 63.382871110159485,214.7163186436693 64.97691153953605,216.60727184912037 63.62204040477412,218.95012230510758 63.38737491578197,225.84772892980538 62.83319464648645,226.97372719590453 63.536443438404355,230.98472608176132 63.30488986015333,233.2618726122871 65.41660032757056,237.8676771726782 65.58557450836837,240.14134341467582 66.71849039239598,242.44256082663424 66.06168805673974,245.55829070055142 64.54602623453061,247.7758585390826 64.94118520586275,250.57776295330814 62.55099543340489,250.98130623511634 57.57824055846194,246.17704434046493 53.75403971656905,245.16001941474178 45.39850711663234,254.25135210486667 42.32015509629637,256.9853972985261 40.040744093199734,260.0467809455366 40.47399479268709,262.5265684272546 41.33928533185066,270.73425740262644 41.99788971166226,279.70982812502837 43.55154916719202,284.7320607515659 45.757589409338536,293.8870161430741 47.12655826642176,297.8852068454637 47.70303210710469,301.84226892198774 48.468950179298425,304.3188234920543 49.137666277755606,313.062196010015 51.89712324789063,330.20644916530136 51.156024205291544,338.03529007573684 51.09519132107107,343.91246698168595 50.73060870719987,351.67895687863654 50.93954219858248,359.29692162234903 53.52476801424259,368.2687674233945 53.5975522064883,373.5966913062747 54.34698982630231,379.0752883780942 55.13023600253819,382.61337109336387 54.46928879090882,388.74383193873746 54.82996419914334,391.30481913323933 54.21119629641067,394.37006591336615 53.97636255004914,397.910896408124 59.466061152552655,406.5291592777012 61.35138271962829,410.0222741164732 67.2541224352937,419.74437024670317 74.34579783455217,429.6164145766411 75.23084612038357,431.78151403591323 75.42017963805236,435.28284189823853 77.69938020034091,441.1092725133923 79.9474153715399,444.27045908912066 85.70172873521835,449.9134544311222 87.09954991758235,453.2167135638524 88.30746992031062,457.46715891139434 90.35091599447675,457.95486503223356 92.10629145590761,461.3542883837422 93.98316309296685,463.5484329448667 95.63088030806318,467.09852163566234 95.6478634281487,469.0691730634078 96.43169875127397,470.12470618437476 98.02124012516202,476.8441296553833 100.784326243105,482.50034591424446 101.32210278414448,485.9288790574973 101.33256508564742,488.8352352208866 104.42323588602079,495.7693545655875 105.98097334052513,500.2541329786793 104.9851724416238,501.4500925142876 100.8053191581794,503.50346913605483 97.21646205352519,504.46879454594637 95.33027713858986,503.68919057248684 91.17984561077402,505.5571749179576 88.92363554398914,508.38030175070867 86.20717938963398,510.15842961113606 83.86231048992532,510.4907597619441 88.64809748391195,515.6780373353688 91.1255512906188,519.3182968246568 93.80805462272883,524.9200915451713 98.15272616230385,530.3687831025882 100.5267049065825,531.8561815152318 100.96022446166558,533.65204318827 100.21515824996648,535.9596761398949 101.30743466138487,542.0400339602141 101.88193792736509,542.6068815780363 100.7139061562233,545.2906141077505 98.85396789391768,545.6435106397969 98.65251360340022,547.7455965167981 94.94187455986253,549.8823149879652 92.09228999124832,550.6505503488409 91.0823598071114,551.8376702360459 91.14606597376167,553.5284681563095 90.2758669538843,554.9066039861773 88.54781681843312,555.8404440391773 84.00446602837151,556.3999239751786 83.0433061067549,558.9071985198173 81.66316627801018,559.7716166090637 79.93200318664125,561.9201634424539 80.52243646267671,565.6405628124836 77.96580621498654,569.7259356586374 77.14385073770788,572.1988044080485 77.20345106046943,574.3959809087162 75.79068271295239,575.6713502311799 75.02610139458514,578.6207431366158 73.66694370586282,581.6098069449117 73.48904888268487,585.5408729470591 72.771145847292,587.0394118476281 70.0578465854932,590.5656120943067 69.14732174581412,592.5108777365868 71.2809401421711,600.6277083256932 72.41624560841296,608.3371958707751 72.77047935075113,613.6760805681386 76.39040319437227,621.2570616204844 75.95341095461389,626.269286309701 74.39294108225157,639.122238185425 74.80815622760998,641.8449928773749 74.892680087785,649.6098669391035 76.31245957449836,655.3081804430278 75.901856190321,665.106296705608 76.397203238216,668.7973900919867 75.61611634393297,674.9855270421782 76.86560455448844,677.5371817448449 77.29197787695571,682.0135634657946 76.70123918450813,686.3391222121229 76.53614369369335,692.8346645639483 76.02128399125401,699.2774709468829 74.49504939998323,710.4809952758109 73.44482064373433,713.4051791552088 69.47172088105332,717.7633782315761 64.09217693555459,720.7721512279537 59.53460062929631,722.4536771444455 57.80331762345919,725.1347025144719 54.66121950137483,726.393121155676 52.572929941019495,728.8637472223327 52.642144682292646,731.0134341939049 51.687021114319315,733.7666464282918 60.252882750465844,740.0816521644658 65.59554960706097,742.7963876928852 73.42434484333458,750.1284432121126 73.50096068080445,754.5840373663656 72.94127439870068,762.4226021865825 73.49373210471632,766.4827850646843 75.40042820545429,770.6781229113961 76.31836916409156,782.1304548594055 76.32019860324843,787.5454046113789 75.80735868180507,790.1038533185567 75.35546023440106,798.6332740330071 72.23695906574756,814.6713566484245 72.61322276851766,822.9489449274541 72.61855071649832,833.3185107860807 73.97279341062145,837.4097497524366 72.17976958789393,841.3840892194498 72.90222634958478,842.7027929188906 71.46570028291906,847.670717391469 72.20206150721715,849.8134277703082 69.72347250635086,860.7789495534109 69.24582949021996,867.9448699470461 67.91240997211267,875.0492551824132 66.79703869011193,884.3867184073578 65.25744363275717,893.4192278188356 64.11927513547334,898.6172882332426 61.70424900163831,911.2672853061623 60.08812189794269,916.8165916212039 58.47020603892524,920.8935947956475 54.93460843620187,933.8364144151489 51.7678778860809,943.588999910377 50.04956731482389,948.3250116072784 51.56648766813637,950.1719083744998 52.76273033966939,952.8120224704014 51.68106176479704,956.0882336505258 53.046987292612904,961.3000446909738 54.08763346381515,963.6943432369939 53.68421423798592,965.9193843691667 52.532974739433755,967.4046374914518 46.535517267447574,973.4696619628828 38.475075301015934,979.1631689643107 36.98022352859548,980.8239231889135 33.33004966876408,983.836887877117 29.274736513772048,986.0062188905575 21.436959991809076,987.6507364460548 16.112837458380568,990.2613403540676 12.859792073641469,991.4015615375043 9.789414348100832,992.014482252294 8.497422814005464,993.8921473496729 6.259431096067432,995.4388885373126 5.177070873283279,999.0549042855945 4.32872687695733,1000.447489302427 4.722565816074427,1003.7873179955615 6.2688626854897604,1006.0298556086212 6.57172428289708,1008.5068632300978 4.158496434051356,1010.4564003333329 1.6743482650861485,1013.9771761064839 0.0,1018.705420351156" /><circle cx="211.36528382053172" cy="292.70882217133203" fill="rgb(100%,100%,100%)" r="16" stroke="grey" stroke-width="8" /></svg>