<?xml version="1.0" encoding="utf-8" ?>
<svg baseProfile="full" height="1024" version="1.1" width="1024" xmlns="http://www.w3.org/2000/svg" xmlns:ev="http://www.w3.org/2001/xml-events" xmlns:xlink="http://www.w3.org/1999/xlink"><defs /><polygon fill="black" points="606.9223688143815,1018.9071914527049 603.582317004774,1015.8399590677898 604.0967165005884,1011.9171189741932 605.9902296247517,1007.3923291201409 609.9713845799639,1003.6478259026813 611.6265452807412,998.4365705313891 616.1015337710435,989.483770059243 621.0505138763904,982.0467441767255 627.4343554816411,976.8741368305297 633.0966737461445,970.8068942647675 636.6852167573354,964.8660271268197 640.4766845862473,955.9204773373982 643.7175686743236,951.0131059182455 647.4882171786471,949.6015872589624 656.8118298717585,948.0050469499282 658.9595497580868,945.2136841759939 658.8018533126085,935.4932832418041 658.222131863513,927.0733809431616 658.3402045528478,920.0317079923407 657.0383521515053,910.6328097189188 657.2274804076105,907.8560066809536 659.1694324891747,905.1818442654208 664.773625044358,904.1819928538305 671.1410562232838,905.8248493655029 679.4769298714366,908.9437499439049 683.9696871628292,909.8162211883323 686.9937709906753,912.0941029175578 689.2370739996654,915.5195496808799 692.7783723792563,918.129831686406 696.7958464707618,922.0603445424556 700.6485001255942,923.8346738712906 705.3170288333969,924.6623756087148 709.2796568440818,924.6781980228222 712.2024223218372,923.4004983262358 713.4851494990978,921.2998449171678 713.716609718463,917.5552597812958 712.6978028530639,912.2033501116325 711.2625697997079,909.8244425632558 706.1310986275658,906.7717223170099 700.9953236287096,901.9517959288903 700.9969017600146,900.0798463198659 704.7301798248204,900.2112558821248 705.1947842394524,896.701706947838 703.4488662246355,892.7144166688114 704.4910726759714,888.982467448711 704.500961495575,885.8167867881125 702.3963056474086,879.8408784627366 699.125830689125,876.324862709196 700.0581683164313,872.3483895053715 695.0579078455258,869.7352168834716 691.179158198707,871.6909055754884 685.5514342122942,871.0696532151446 682.0535732883243,869.6295018156763 683.1852329334599,866.8638072401445 691.0718069723349,862.5279629375668 693.8358359493637,859.5254541376503 695.1548472043645,852.0403764815887 698.5481880346313,848.6112910333188 701.1310590644543,843.7932726124244 702.5650067115346,838.4023789792842 707.652391201807,839.2270218939545 710.3275049573342,837.1804466779256 710.9330094049856,833.9593557053761 706.2409593064926,827.7581165085259 704.629829196692,823.4831239943301 705.7071342487268,818.7653774938854 703.6218771194643,817.0127167963985 697.5634234480407,818.1922735435575 688.9426520067634,817.894488313377 686.7370219861632,816.840285051138 687.2450132466138,813.938779263878 693.8105107677261,811.0266752663217 695.7910559612164,808.5068190846722 695.8686726280001,804.0063963996975 697.3493354443383,799.2134206033047 699.3953195023116,795.7980892186479 699.398698607987,794.0832755517033 697.0093861112626,793.7325635797731 695.529143931612,795.3196577975837 693.0216835133457,794.6317718419291 696.1187604130369,790.1260938692476 694.4419336927041,788.7091007793572 691.1553605346234,790.0413292391543 689.3686455003527,784.3517620550501 692.2207199180442,782.4483639495414 692.2262120161323,780.2922400736339 694.7353604916912,779.1323418341426 695.5181909707383,775.5787349469485 694.7619885621064,772.3011419189725 696.6740563462974,771.6943030574088 696.9658950137815,769.8511630693885 699.2077505486216,772.0130804209491 698.8887822094501,767.702691294259 695.3519023518119,765.9066178526971 694.5821873323699,762.248345437235 697.7783709916289,764.2035939803525 701.269679801545,764.1322477324485 704.109220841441,766.264908077541 707.8146201017549,766.0579481903841 709.0827005489197,762.7967674458694 706.1284109362203,761.2297273354754 708.2942641422005,758.1856441376759 706.7743476694671,757.0006338645167 706.8599457878199,753.2013099315809 704.879118503792,751.8061262911974 707.0189071838921,751.1642613223421 703.678452264711,748.6466410175544 704.2069789550955,747.3669113164767 702.3980632928458,743.7954748533593 705.0290315789388,746.3920127726544 707.7915305311548,742.786747052896 712.1578134938599,742.2615693033761 714.0424694280549,743.9540376192929 713.2787971541514,740.2151355920568 711.7309095409215,739.8747883721587 711.6758244906761,736.4458677440947 713.0002721476424,732.762837968741 718.8638476629689,733.5255217908382 723.1850486491688,731.2052662728443 726.0266260740407,731.6953755768022 727.9131386640154,730.1938819910656 729.0323379896618,731.2082185472284 735.6185264320644,730.2672229651539 738.6714248166031,728.5763962327833 740.5802330728142,729.7041555192307 742.347015389454,728.502196598296 745.0679976821983,729.8136399102337 744.7169189397044,725.465352267335 745.6414125457279,724.1384483513209 747.8655054743439,725.4175270249232 748.4893732859558,722.5950225393003 750.7161156079388,720.9260276875402 748.8188971101634,720.1589066763738 750.123120672039,718.0173746095727 752.4527620816696,716.6231852911953 750.4162401499261,715.5696011191749 751.0086922296778,712.852244264215 748.4859125320116,712.0402469543372 745.1753581701403,707.4796067834561 741.7371625924934,706.3198361216084 734.9037806977119,706.2262554230197 732.2943304637122,704.0610174844921 728.6223036291362,704.4010236927957 724.8176641566068,699.3845658743414 721.332035430226,697.4150257032384 715.3039227420618,696.9103171041056 711.6655790951353,694.2734596931434 707.4033146195807,694.479078288585 705.2826484175638,692.8619077026333 704.3527300258341,694.3499139150902 701.405378521756,693.2966090513604 703.2481986402366,688.2654897306088 699.1918596389891,683.1891619279276 700.4560308570776,679.4786839681326 700.8678066918573,673.6947212774769 694.290860212731,673.1355336747336 693.8197680392459,670.8197725793154 691.1919141972882,670.2562744897314 691.0926400654806,666.2838137304161 692.1876740750787,664.6689807656344 696.4870589716519,668.2735896236231 701.0979310147494,662.6556854135891 699.0494468106929,658.8392235383794 698.8330188269406,654.0077198811655 701.3314743904269,653.4442330643176 701.8830853152697,650.3063548153023 700.5239638954658,645.8067240965975 696.8331505808255,645.0906261256441 696.1329132593576,646.0741605057265 694.2031306525911,643.705071196031 691.3204451538053,643.4710293952496 687.255281425092,646.0336075579974 683.5611393235372,645.8009454397541 681.9289520427368,644.7017625565734 680.0788485778506,640.0002479796381 676.929857965973,638.6729813451477 673.2834381912146,639.7211565180611 671.8030158029597,641.2154765656085 668.7696630499639,640.6363356500154 666.2000652830692,649.534409339943 668.6336376310851,651.1704157376823 668.28783380702,653.6670263944716 671.1883527843049,655.2653183702819 671.8400090727484,658.1734328516451 668.812791087345,655.3454516753798 663.5283910816393,654.9758651529228 661.9854599730496,649.8716748718838 660.7532885320184,650.2970829624252 660.5869477705148,653.7467039857197 658.3370235672544,653.4142063384604 655.9266120837658,649.0898031922638 658.1035009313234,646.4167746219141 657.3381265418179,645.7063152782 653.8341581007967,647.338883795094 653.1450911981483,653.6699787366097 650.0949048832446,656.9595939419571 651.1710985970846,658.8553267708103 649.2310298290256,658.847591190907 648.3873602942847,661.8556923890546 646.969904127111,661.4610465196031 645.997794692671,664.6439133001558 644.1543750714205,666.5754602878135 646.2345305942641,668.665133070065 642.8799935398358,667.9039741667992 641.548721877281,669.7973371427329 634.1156481478686,671.3097019531867 632.1609643315338,673.3451902613529 632.8206984689294,674.9495909077087 630.1470541090974,676.376747492932 629.9259120541914,678.4124182490239 627.2232081958668,678.5764723198943 624.3324683259468,683.0345796245626 617.9234542287121,684.6374051476147 615.8720851512205,687.5866340713756 614.6836197116982,692.6517859154227 615.4158633267601,694.5838434242687 612.9904096052607,696.3565352808685 607.5017247718625,696.0907219901605 604.13361745837,697.0217242107469 602.9805312677546,695.6707089682052 603.467153795736,693.5393704501287 600.200291953644,689.8286757358286 600.8930278654125,687.5015612686822 597.2184182107701,686.9569631308593 596.2583022818008,685.2027470484941 597.6179019857733,682.4147013537681 594.4057983792092,678.8786169908191 593.9694287092984,675.383556695516 598.03417851627,673.2942180358384 597.9665507575271,671.4875517835652 595.853752205245,671.1105707972085 592.3828626653403,672.3730449052059 588.2071007006679,672.0193778583489 583.098696294738,666.2357559315116 583.759203119206,662.4925334703726 586.7440488615653,660.8669430562882 587.3452061477232,659.2481593397991 587.1734153818971,654.3134168833831 589.3819797897231,647.4918875979583 590.9995805606457,644.6304169078855 590.8467551319447,642.0146933142361 593.2481294185835,636.0855727900293 593.1765478546863,633.1304088882096 588.400495966905,629.7671751061555 591.0632922888724,624.0607830934374 590.4239489788986,621.5029651082892 587.4815928159329,619.3178296159568 594.3829133384452,618.9533993586771 596.3889149365754,614.5983832318761 599.1391861390238,614.065362603437 599.600672587108,608.311350812731 600.6982321952669,604.6658271574818 600.8691506140892,599.4813280347985 603.2885516308666,597.4226383854915 603.8216186776588,589.8623539879318 598.8222046685304,586.8605830437283 599.3160418066285,580.6165464479544 598.6579435644353,577.8433543301728 601.0012570673733,576.2771985478889 607.840533314393,567.270677204034 607.8448360995108,565.5881048724129 610.7719531129704,562.9996031477335 611.4038950187768,557.6264231503626 614.212478422244,555.4502861393889 616.3302601449464,550.9829179771949 616.0540933626664,548.2154552426898 617.6972705897997,547.5195568461147 617.2511395613246,545.2457066520283 618.5847932980547,543.1388184583243 618.0970871648004,539.767267992717 620.5581284714336,538.7234305243292 620.0753260563259,535.938193101697 621.0359770961209,533.0456878753006 621.4001137448278,528.187342447672 625.1173598905457,522.111616196981 624.7834327789884,514.9661951975115 628.4345308652994,511.8149430543093 626.3659335931418,507.9296648998918 624.4739678706331,507.4295765728797 626.0638954666654,509.52299328276195 624.1459513633766,510.06899339827817 624.0935286602761,512.7475506123376 622.0799208529213,511.58993246998045 617.9725675163786,513.6380660273323 615.9709260397658,509.5786442776847 618.4968824207181,510.90371669008175 619.9442999086477,509.26499381912083 623.3870972380687,509.0923898162672 620.2442452762405,504.81038176041636 622.3580121311323,501.30814697128824 623.6361598905211,504.1547518547234 623.0142432115305,505.3225611946067 626.5189822060536,507.23070526933463 627.069874030145,505.3987495310695 626.3588873711847,501.97940390815074 626.9844579553602,498.6192030971537 629.5252651640717,496.37336863514724 630.7775225822575,496.5019764248491 631.2247755168613,492.12824748661546 633.5371120389682,485.47411724063306 632.5695008223682,483.0330221592782 632.9757465008266,480.598208314241 636.2063352800009,479.3296530131852 636.2787970356958,476.3647124848693 633.9559596513698,474.11461627497636 634.1678560274437,469.43327746397915 633.256507116059,466.5321091744911 634.3892981854943,464.7961564740252 641.645733574415,464.39369435140657 642.4380217561431,461.70652432137945 641.5902766609018,459.61468690116214 638.9553260226327,458.8452832825768 637.2923966806889,455.74529246352665 638.196139453821,452.68003444350825 636.5477706796532,449.4267289926655 637.4659693273653,446.9859634072709 636.5095122649967,446.124538960593 636.2473770881961,440.680949952673 634.5835855947516,437.33713648578134 635.1011838942065,430.6231047161666 636.8419637017975,428.12242840171257 636.9723285091898,426.0998393582287 638.960548608981,425.12367007954174 640.3457194722519,422.8608313213912 639.8287754227676,419.63673059347946 642.8097763935938,418.14523884532036 643.4914634683539,414.9898277153237 642.5247586366503,413.2379050896852 644.4376007549132,411.081743196144 644.5397977382847,405.40015895125543 645.7102244672103,402.26927491941694 644.7577663608503,397.8512974542439 643.0486762455112,395.89039006464554 643.3473657868335,392.79181444229175 645.9424857727627,390.8231501140624 644.9276473892602,388.8158891953502 644.7586490435274,384.24370909323284 646.1398710144231,382.13601572841674 645.5172905999927,380.5634698635356 648.1678627067669,377.4677136842454 646.2135438683677,376.0336034035979 648.4874095416914,370.8909085517587 647.9835227021124,368.17042356945717 651.8099769540148,365.2442727566271 656.1437380394202,364.40374483185303 663.6462292909695,365.19849923879997 664.9838904670939,362.7949708914372 666.5942068185426,362.81637644746525 668.4078805091193,360.5906075138912 670.0138356977378,362.85883030706304 669.0446339990632,364.1296301295065 669.0762831382325,368.2097505053964 667.6101697213493,372.6157613120888 672.0313574495973,370.8933327346224 675.3311416878331,373.0388317062194 679.9367278515649,373.4560889872588 682.6257712147724,371.671256342035 687.0819017499218,365.87566880412567 687.8592735017821,370.26536609042273 686.8417498468964,374.63598689991534 691.3713773690331,377.4941637562863 695.764779633763,377.2466358410941 698.1783315355215,375.5777290868409 700.8003478100871,375.92542059011714 706.0255704166739,378.83752198829234 711.76670945987,375.2407019284776 713.4242478033465,372.8431268635527 718.9092953987865,370.0914737431426 720.4052474129431,370.0735729445164 722.6162122940581,372.35437024098974 721.4650767628701,375.03209670647425 722.9171865578581,377.84589939470425 725.5690442003497,378.11033685458574 728.3896379525096,380.37369984129816 732.2618393859955,379.95843420838025 735.1969717766654,377.74885797693116 738.3480525974635,377.7008482429982 740.7114193023476,379.39527298740484 741.9407254830309,377.5144735691865 745.358953200824,375.6173178941799 746.1067618375121,371.7735573631719 750.4316653242064,362.13544013104183 752.683497342741,358.50920583455604 755.1203072099796,352.3900330155511 754.7072929908088,346.67415865463033 753.2369247265101,342.9700835046772 747.9947937517775,332.3716448020202 745.6564246234124,306.08669379939556 761.1606648157089,269.85020830772305 761.3779325479463,250.1195267647056 750.760321026766,243.88484882487603 738.7305208212639,243.7322680097451 699.1703622667436,264.42622563145915 653.8055117338547,263.7950548927432 615.6665140204145,292.0923306932966 594.4698274342453,291.8139407104952 577.8879176608909,284.009469610137 567.4328035526139,270.210377740332 575.3821675818141,235.39117508576248 563.4781643781472,213.98964699434725 563.5946135883281,203.36308308132175 594.5050781001962,144.54820479438308 594.6802586254844,127.8514683578785 587.1839209001629,121.68068916177185 567.4493168787761,124.46494129881273 538.4822406549761,140.81178826328858 527.8615652920079,140.69510399057344 490.5371752370878,82.58175335297597 481.867927024294,41.50860838469964 429.14056437378053,0.0 419.91999882908476,9.023694570194607 416.7358397314869,22.66308602246488 417.7881756169708,66.7053690624341 411.56177607811935,80.30665646350622 406.62955177254435,85.90052561742016 396.21134295347565,93.84364443061486 383.98083060664743,99.80052425262238 370.29824793553985,99.68883623469912 327.9949791709651,75.02140916849964 315.83167974318593,74.91099255634083 277.14848339735175,139.82877695476736 258.79784746451935,151.79236849431334 246.64504558859565,151.66789880922568 225.52714009024191,139.3003302549704 213.54623457943958,125.49946681437314 194.27288688752117,84.28826033163625 174.55322337688995,85.56557746979172 153.15187097531032,102.00096525619517 128.62029672593755,130.53674932224294 105.34290060331307,139.61471749426278 95.17540678101979,143.76535393461768 90.69140979415944,146.80708601872152 87.28865947919073,148.17043498280793 83.60484049389608,147.08831936539684 78.92106571396741,149.26125471517025 76.85270795260817,157.18648761975794 41.951637244623356,162.8124982096955 25.15545729029873,176.2577488448752 9.698467424482349,204.91347124586082 0.0,262.4733148318753 43.53038136439877,299.4557822011881 72.14039896270252,314.9973160875377 85.56692841656864,334.9110514266338 83.75839369582481,362.21409055298955 71.09894462718587,413.6528935686175 70.70388480574029,451.6068621041293 88.28477611878455,506.4793148013131 86.61411007149533,521.6336746381064 72.8590668395214,532.0691841567815 16.711298131215386,541.9815514431958 1.4118833430606326,556.9735584946859 4.262261737057691,573.7110037698297 13.085560585452777,579.1634570334111 16.374580011513146,582.3659365948492 34.358125686598655,592.2935127115854 43.32002870563302,604.5474154613437 47.86845238272437,623.6646999457284 65.04561231429075,638.6160538930633 72.52992446304964,645.9482169905372 77.71291257008833,654.6752196152942 81.10286029381716,667.1256422419461 84.3221945059254,669.0061960208882 85.12620882001508,670.969264599809 85.83698138945842,676.7934433174146 93.31032743513349,682.7288796319559 102.14308655268987,687.7388759095975 109.28142234710198,692.8166160978628 112.48697643257157,693.3409983815864 115.38195167839424,696.507551237388 115.67354035350256,698.2597001295117 114.53970625016618,703.7422953821065 114.28164444091355,708.9286545399766 113.43411894204355,713.8444513630072 115.48021675368044,720.1900967358392 118.25198773888904,724.0971824240878 109.94283034909714,725.5482291328111 106.186298355779,727.5956704151884 104.64100924861893,730.7428631412051 104.8911782538528,733.7062651993874 106.44696993854663,736.0129002795381 111.79115606611231,738.715661505355 113.59852878975443,742.353689623601 115.39427235982332,743.9488558935625 116.52924436772867,747.7482297265186 113.87448489106278,755.7210120305043 110.0816251953487,763.692181360261 110.4684493680486,766.7288582122825 112.73995413262692,769.3975423036246 118.04885937962742,770.551177217628 123.3597937503175,770.5522372285652 125.93002541238894,771.4208653992152 130.48582766642056,778.0754585668162 141.6934234379273,788.137135623877 151.9270904063672,793.5856251186888 163.52670132644255,796.2504640750084 178.33694859075186,797.4859223058565 187.59464559148128,797.3874660493991 198.21274075056283,794.9646182691145 208.3363432291983,789.7716951317129 218.44331738215428,782.722849197811 232.2802881642996,777.4826933816219 245.62735879373682,771.3136406541493 255.7879029575357,767.4963040223653 278.41714020508573,760.288572936434 283.5273080382189,760.6909246451496 292.87482894853656,767.508217829937 301.3293264679009,776.645149449813 311.1998368730825,786.6822333392104 320.53093408345626,790.2648581422885 328.89545102642717,791.0825332307327 337.27230213702416,793.277933384494 348.9285597936158,798.2017597304067 356.92136359805346,806.8801551234235 363.1091823224197,819.7375884327251 367.40892887126296,830.313443654488 367.99661186530295,841.4031228223479 365.82553732824823,853.9175706896908 363.1651812599438,863.6625853994224 360.4684543253695,872.0116440516892 357.79857997228765,881.7586752549571 360.23164666056425,890.0468565796265 362.4125586400854,893.0244956182872 368.06354769030344,892.996457045463 372.33287555625634,891.7293424864168 375.72163547288915,891.7466616936999 379.38869086062226,893.5985816298627 382.8115866201493,890.9639108198579 386.8703331517954,890.726281978746 388.7673324004322,891.4762105860823 386.2956763250909,896.4866572163712 393.781348272071,894.8673304507918 402.2354361309779,895.8770778858735 404.66885737542884,896.7663351176639 408.0792395642716,900.3895503064018 411.99873205395687,906.5541478390181 413.49581730195445,913.5682417080468 417.48813482285016,923.68917063728 416.5147805087952,926.4839440137689 414.57387897230757,928.1484790838304 408.9020684470877,928.5263883074772 401.6457076251127,928.0684550594843 399.36335966208816,930.7337762289428 401.2584327030427,934.9068640046092 400.8792180635032,944.7755096885426 395.9922522866733,949.1544132560573 387.7830909725429,949.2076466777534 379.84843114838446,953.3498748878292 375.1254490017533,950.8399166139769 372.81856422831834,955.7456909683121 370.61328986704154,956.272164709175 370.33600022640377,958.9265403398028 371.87960056150706,968.4387336494981 373.34121637167414,970.7044285737709 376.73825043050766,971.4107790079211 387.0047389552435,971.3446769216073 396.23903854848936,972.8221780212807 400.99804302109095,974.374315000052 408.88691247092044,974.4771478795253 420.88597749916715,973.2308471629242 424.1778346848869,973.4016737542207 428.5723797099074,978.0317663711033 443.9519069584096,983.2243100154329 461.5997184729774,984.3719540509978 485.3118289567585,990.091081996171 500.6284824147158,991.2912087847656 513.5904147621368,989.2902336715636 520.9630951010714,986.9065534140839 530.6187838026946,979.8612500076784 541.1894121002374,973.2688347795338 548.9505547173528,963.942595785618 558.1325164755458,957.8382287568852 565.5558817251411,953.9433148138804 571.1239127433788,953.1497180285431 576.5550347665338,953.088938158494 583.0801568431158,954.3536608232378 590.5781705298486,962.6051087573313 594.8262061821112,975.6623566588095 591.9849506027113,978.809457764147 586.9414580636127,982.7509851889745 587.9609535395808,986.9547509941725 586.7462194505654,996.0456442939203 592.4489219364802,1003.7429981677175 594.5906468793966,1008.3552230901574 595.174605245573,1012.6867804683541 593.0122788330527,1014.3049412983358 594.9993248268881,1018.8665182399164 596.9913931964304,1019.0395155870912 596.6572661163211,1024.0 603.1467610766771,1023.3706429303961 606.9458050746383,1023.5432824212212 606.9223688143815,1018.9071914527049" /><circle cx="628.7308670906489" cy="765.0785920762512" fill="rgb(100%,100%,100%)" r="16" stroke="grey" stroke-width="8" /></svg>