<?xml version="1.0" encoding="utf-8" ?>
<svg baseProfile="full" height="1024" version="1.1" width="1024" xmlns="http://www.w3.org/2000/svg" xmlns:ev="http://www.w3.org/2001/xml-events" xmlns:xlink="http://www.w3.org/1999/xlink"><defs /><polygon fill="black" points="498.00251359250564,759.3495134587574 498.97365434885626,760.6276022622992 499.4674242975116,764.5838061240552 500.7014325183844,766.5676036089558 502.667978338167,767.1634440304485 504.36987489219405,766.6268259155291 502.84565395250985,764.9141186413719 503.1434555999083,764.0764928050671 504.97352720408617,764.3847977242392 505.41506691623596,763.1192369212927 504.41108148598727,759.0633770439981 502.68173821146206,757.9000163847994 501.0410258410756,755.4731935626721 501.1967326248482,752.8439725535238 503.32546366042294,750.3093087246546 505.4699639293521,749.0653804675135 507.803861584968,748.5447327172664 509.52135394240787,749.5028433658125 510.18374817603996,751.3663625287588 509.34347534064085,753.9149643047194 507.9156632238982,755.184179875743 507.82669350741656,756.1785697452774 506.0888074522179,757.8766736785001 508.0024245189027,760.7667459879748 511.80631731260445,761.1029826205313 514.5635673976325,759.7619056443425 515.3192322366848,756.9529063446788 514.6718998741654,753.9837181752721 515.1957225883134,752.7183019121178 516.7509704657707,752.1814288904834 518.8528345687067,753.0536754949323 523.5766806157213,756.8667246359186 525.5212553209108,757.2656238439449 529.2271593949721,754.8682005611449 530.6096473773154,755.0283054424142 535.2370129917684,761.6359028757443 537.7932268714561,763.5543404352384 541.2477383619573,764.3986851546485 543.2284397864289,765.5023579972855 546.0775905310902,771.0153275537255 549.4558742702234,772.7422756813946 551.8780921301113,776.1016923807539 553.9173694509589,781.3144620115618 556.1068270119142,783.7926364805064 558.3352210912961,784.2619371658526 559.338779202539,783.427691031679 558.5817527910324,780.5961849818275 558.7478232391429,778.9586623446054 564.6502288345956,776.920324349175 564.5271590300193,775.6472373617717 561.1889196467774,773.8941974770792 560.9222840605705,772.9106814358408 562.2342309185894,770.1131290397468 566.3754343392973,766.2559413383532 569.7626246124603,766.1675895745717 570.6108486281154,765.622553879233 570.8202192551832,761.4025224109415 571.456257275796,758.8057256931183 574.292113942486,754.4845534878377 573.3076808277909,753.339645793066 570.0305009283917,754.0410886386585 567.9289642033316,752.0498980488134 568.8713835047671,750.1673477116568 572.097680475168,749.6986472811858 574.6903465016139,746.392824750383 575.953998101341,745.9471969884974 577.7875804193675,746.7785241942167 578.9098078634997,749.7137587010313 583.0687790121434,755.831263834466 584.5235797315411,759.9353647160049 587.3710381317725,758.7056124157762 590.3368143567095,758.0507546477245 595.5477483191411,758.8263352051133 598.6395500530514,759.5718236491016 600.3481420999373,758.8980343878501 603.1901730924986,755.9013458756845 607.2761639786395,749.1509362896536 608.464392244019,746.0761144896767 610.3833140742373,743.5153000732531 610.7084012562866,740.3558493002649 607.8127061649157,733.2716755701417 607.8772055905921,731.1551946172663 609.1229093061894,727.6648319049505 608.4890381425027,722.8091808512628 608.9360645802091,720.5513746293313 610.3222309021803,717.7844063967785 610.461470770388,715.9376887791808 609.0957332615324,711.5824456775978 607.9309761757238,709.9703029780518 607.6900094105349,706.1343723146142 608.2794666746871,703.6175968242394 609.3560106678366,702.2733363533891 612.888789871808,701.0003102595155 613.665227360961,698.6302115256317 613.1347108586111,697.2357457510229 614.1420105977248,695.1977057037743 616.3515211488058,694.3622739139425 619.964658188319,694.0971386209475 620.1200913762199,690.7424475846974 618.1450578371362,690.0101351859489 614.0068382511183,690.5298134049616 613.3197052240166,690.1468823305439 612.7552981069821,687.2897668239133 614.0654154155546,685.5554867633908 616.3713662494775,684.0526590135056 615.3485166457679,682.0249882058226 613.0364345772973,681.6938987729411 611.4048821753747,679.8568024314951 611.5933666222915,677.7628002485849 612.8357727304046,676.6498143579931 615.629687488296,675.3934507938296 617.144482596328,676.8884221886022 618.3307780130905,679.8030575883913 620.407777321813,680.4968968845932 621.459389102786,680.0145880240481 621.6325879343365,678.6242619668712 618.863299775886,676.9464783094356 618.2507953448353,675.6191293100545 618.2750836024999,673.7675444142055 617.2179467783805,671.3707982978717 618.5560477900588,669.4612380284509 622.7402556845316,667.6268519415905 622.6692336321928,666.6745331837257 615.0987050793206,657.9923409356522 614.3520918881457,656.6300722438957 613.781947958351,653.0748232906903 614.299822372446,650.8689385926691 617.341919758113,645.50611744517 618.3033616933441,643.2508928547184 618.8678934767843,637.2750447046758 621.1757277141174,633.2245284267867 622.871483373338,631.194047875207 624.7815428286343,628.8941932431144 626.1215282736079,625.3707172614984 625.7859238992404,622.6954643245264 625.0716817608657,620.3565513512102 625.0339786408296,618.574654714359 626.7858667515396,611.7996918985227 626.4103716775328,608.2031055951 627.2985386918026,605.0660772931633 628.6076349231096,603.8444198137021 630.3106100459468,603.8830847350091 631.7502684475447,602.3461634626547 632.4868895658376,600.6596005540314 632.3898708379476,599.2211917205653 634.4591014800825,589.5056954527151 634.9556384563912,586.5775346440743 635.2237993649401,580.4343279051512 636.4352966087419,578.9284687592383 638.0432168252838,578.9307040365061 639.5491564561822,580.0492753007013 641.5807037989467,580.1295463795794 642.6755691253536,578.3577093758014 641.6939573851516,577.114153594556 638.4652337247256,570.7974790803796 637.6076815542666,567.5535594201049 637.7585857149503,565.1748599580354 638.6074717583084,562.5593164468482 640.9832532332363,560.2228666039546 645.0319999230245,560.3466354676535 648.3932458483754,561.6463251019943 651.5981943157694,561.8055719722977 653.4248938629527,560.2567634822244 653.4725870298547,558.966799765049 651.8151387240083,558.0637717768705 646.5129634268834,557.2177211836531 645.5969980424396,556.3067416270898 645.5048110279533,554.3830247797828 646.0730271485704,552.6183350429137 648.3611745400451,549.9790947904964 659.692319606106,546.0163243905813 661.5293037230166,545.5446373005659 663.5464999095984,546.4333918351417 663.8291745717562,549.5599178926277 664.7331365642744,555.7006052701622 665.745729418091,557.816539911162 667.1019119516517,558.436242675863 670.1253447991177,558.9356788982786 672.5502278607736,558.4650000949981 676.5300741355015,557.1102109986595 678.2607619129543,558.0196611995798 680.3290738256712,561.2828829051375 683.2736650112048,562.0301698706476 689.3255227451145,561.6423023187813 693.7362938245747,561.0064614172315 698.158142653865,558.8405425981973 700.3264477704951,556.8873238792196 704.8873652429118,553.6595238584569 706.7158956112595,554.1144368260827 714.4454962554065,558.376069067997 714.553021017826,560.2259016918752 712.9625893923802,562.1821631235969 708.353753777541,566.5007683050246 707.7728442376159,567.7616189481721 708.14729584886,569.5718642780404 710.5979277749328,573.2714970066215 710.2730688310743,574.4004534864323 706.787129438577,575.0093976643723 704.1001947917608,576.0310872944315 703.5283299290281,578.0205413614523 707.3674377972741,581.4641887248667 712.6625490266655,584.9618700951639 715.3456650584532,585.1188084718166 719.3928631274167,582.5090272264783 721.875976699431,581.6358032433543 723.9296454242638,581.7727889167099 727.1074931515225,582.6597221400564 732.4118386013588,585.1384181686295 737.6622884121812,585.2374456509161 743.4458596969747,583.7410363615943 745.2477139659386,583.5667214338152 747.7804944248612,584.6908684834393 750.1429312219794,587.4680739528108 750.5548953682398,588.7899992147094 749.7616132311598,592.252065755473 749.4902526544174,595.448436171835 746.5427813607015,598.4178195799213 745.5464965287123,600.12132114928 745.5789576401048,604.3572444021644 744.6459058160676,611.7011038505699 743.0414200841964,614.2090035193509 742.4832117097206,622.5570855078433 744.4218646034353,623.7294459148411 745.7333570470482,625.0861253332653 745.2829432317568,627.449118096235 744.3417932182939,628.7748620062168 742.1704231051283,629.3614686424794 742.847829649144,631.8464482882789 744.040673267075,634.2411311006401 744.0311134302266,638.4837881958701 741.9394400610262,642.4531782544283 741.907797471036,644.5153625413154 742.6990496075621,646.2883694457805 744.9139899813428,649.214752624914 745.4702407100607,653.2483817575298 747.4905010338425,655.5494085939122 749.4449432997651,656.1954663456821 754.9969234700956,657.3233408442928 757.4139260049784,660.450825350759 759.4315153276316,663.778663160474 760.9284262458223,666.8930656656792 761.3150315562616,668.4514884698165 762.9122031262278,671.9814437026181 766.9601054653327,676.5751958975331 770.2363367429289,678.7918546835986 775.6712747257044,681.242360659283 777.7021862158778,683.2286666663763 780.460314962105,691.012197329329 781.8657458050201,693.3058329495216 784.6749675208433,692.110542458628 787.2973550159899,689.676476425679 790.6173781164088,688.0830704012584 793.7869559074662,689.2711630530503 797.6692947253791,691.5123416864827 797.0569484900461,693.8952117360864 795.2137303095606,696.4195068904505 792.2818121155688,699.5649300152196 791.5303189008397,701.0979978952173 791.6944938354984,703.4687056967757 794.9663304954358,711.1655656149715 796.6889033397371,712.4346384991003 798.8553947082464,712.369990106005 801.7089099124809,711.2450889166645 805.6968630428121,707.9949074376435 806.2540635513628,706.6405988667589 805.8726697875026,704.9873528931475 802.5547932346507,700.7894640804931 801.2488589209939,698.3926312975007 801.0937640638932,696.0130559554722 802.4085901129421,692.3388642174065 805.3573153555807,686.7279112670017 807.1480338640595,684.2786350413779 810.8062763674319,683.195473317526 815.4792943399659,683.8347102220002 818.0185524054839,685.6420568665771 819.4272612761484,688.4981757681734 819.7690689442549,691.3553151118059 818.7966652733197,694.319914188291 817.5256497577677,696.2521334258342 817.6754048192456,699.9760194470082 820.069015232036,703.9380212698734 820.6285591122079,706.2181091516507 820.7753002200136,710.3145080428502 821.9380165539158,713.8088543467167 827.6069386444287,721.4433340743954 828.192257949877,723.9379748220365 828.1887138746393,727.1308573785324 828.5482915555954,731.4497825736809 829.75678409809,732.8107592495226 835.9271481567614,735.2125156308905 836.7403965710813,737.0637022502524 835.3591750131486,739.8381629127141 833.3207310316177,746.3779076722271 833.0294793065993,748.0461664439649 833.7609022600408,752.1764288219783 834.9669550561224,753.334049186611 843.1137865674464,753.8872253444754 847.6255971607088,755.6133189937311 850.9713566252753,757.7423311701403 852.4204263706202,756.3572456203414 849.8518440401812,754.6504138323063 848.9550978895182,753.422419942363 846.8020054341871,752.2279480978052 845.2235622794478,752.2766821497673 844.2218585520088,750.4187896687647 842.442330689895,750.2665355502132 840.4447238647973,748.4739565162154 839.4986313335769,744.0143789207577 839.3315287323188,741.7698955797132 840.5743111557277,740.4738938718235 839.700132267047,734.8722077875507 836.3667998873763,732.6417081978832 831.6694595689892,729.0156816390411 830.2946309129667,727.6302074131834 831.4753247800483,722.4482766019778 830.4387561946688,721.3911646792822 830.497360453066,719.5062008775403 831.7486441669337,717.6089739892572 831.7192214506427,716.5889288106204 832.9571987034542,715.090931335564 831.2477454907895,710.1693598401782 831.3111966435225,709.1199170824456 832.5938878434387,708.947901532626 834.3939857663464,707.5973602218565 835.3762893697453,708.0057247469726 837.2678060264667,707.6640092300289 839.4118702394899,708.0688919734364 842.0382881929492,709.8553274965932 842.1880864632419,706.2819653023371 844.2784483381544,703.3302507975803 845.4300539765654,702.8261055284096 846.0622742012965,700.1249547129559 846.791513319529,699.2304937716135 846.4109092408974,697.7543901909921 847.9468159675722,696.7700803812849 847.6699778963679,695.3200289409989 848.2231514620092,693.3722247628172 847.596163704886,691.4934428022693 845.9629523232074,690.0979017267629 845.189187667275,688.1108264993911 845.7029965897117,685.7381751989526 844.7884201129,684.5049778386158 844.9359584476184,681.9361819491006 842.1367960873243,681.27642107975 841.4988104366973,679.3154129409031 840.7649462999185,679.4036587430292 839.4639892347266,677.983169563193 839.6697383488545,676.8122655612689 838.9588307014589,673.7234448933917 837.6546868941224,671.0164939516249 836.3017267919464,667.3571336239404 834.5491390170369,665.5294403218611 831.5433240785802,664.206373370083 830.2052386656916,661.8244640080392 827.5161062651065,660.2270162472291 826.4422246378349,660.3578745555742 824.2747692613867,659.5463943534937 823.1040559889462,657.7723787574587 820.1055168960955,656.7535802045111 819.0880186872386,655.9855416335929 817.0835797878815,656.7157259075868 815.6819758616716,658.166044100275 813.444843469208,658.0487891885641 813.2326817988691,658.9224238854085 810.5294196392244,659.9513784152009 809.0258597026682,660.9402905304016 804.9699551868425,660.3823435092715 804.5151793450298,661.0103467627313 802.0889193344697,661.9223858665705 800.3936772865069,659.6473463756349 799.3416499937346,656.2327795118249 797.6055113882103,656.3551066134339 795.8128516237263,655.5898716294885 794.4421791660051,654.0683787238968 791.2663357045178,655.2971290599248 788.2175876609936,651.7868263424684 788.3265223196555,650.8693098771514 786.7631457183982,648.3052985732429 784.7650129775049,648.1816315577366 784.9150788933413,647.2448827142624 787.8569883304692,646.2987082050654 790.8131535149763,646.8315827345516 792.1353996885832,646.1342066315281 791.2274443296952,642.5799690786107 791.5853803870316,641.1317354646244 792.7933560251754,640.4267717911356 793.5336781353152,638.9720089586878 797.4556465097779,636.7881109061268 801.3831263881673,634.9638695957346 801.8676829523922,631.3227929085672 804.1506062093974,631.2553226483764 806.8055160747444,630.0257655194351 809.2062617589023,630.1960172560821 810.5323653527347,628.6381366808178 813.1154548708183,626.8916864927924 815.3923413321876,625.9452949504775 816.2023193694858,626.1710243623077 819.6419868320139,625.5265410761534 821.2332732532243,623.8437378847941 821.2588768415231,622.9839533481281 823.4114966273812,621.4848031502397 824.7609603878093,617.912372410944 826.8177961060875,616.8675980623784 827.8156098690871,614.9742358802132 831.734520294523,614.1161113336121 834.3581216392472,615.7847632123311 835.5019605070279,614.0080785151492 838.3220009812012,613.501988253446 841.23452261624,610.8049683228799 843.5185232307504,609.8376460214058 846.2813892785646,607.466526035053 849.5128028164352,607.9855320954389 851.091107040151,605.2676584955352 853.2728505677098,604.393803225981 855.159979037469,602.7222611807433 856.7109262860002,602.8484577157759 860.5920562087247,601.8016810643641 863.554636577268,603.3301888282083 866.6608560549419,603.2673442871173 868.3147127892577,604.8862341404038 868.8003391441887,607.9512409128154 871.3111379722673,608.5280808675811 873.0906071183027,607.1893182313825 874.7288006923317,604.0161507196278 876.8620986346085,603.8336024540151 878.396013222019,603.1276588128304 879.5943934010231,604.6445324570195 882.7509452400789,605.981914599759 884.0264964350185,605.2628062073568 885.3619288683324,605.4283698627605 886.4668156291086,604.4632696702533 885.8578512786542,601.0508149822865 887.8049494205328,596.4953140039418 886.4730373011419,595.4991769079345 888.2608540775043,593.1815162431622 889.2254695101933,592.9209820744736 891.0433826101422,590.5933293320766 892.3558258938302,590.685008232565 894.0585726159834,589.7350453816942 896.9828346781264,589.93006003623 897.5166703013577,589.3281537753362 900.115270528683,589.2530489290407 901.319352858658,590.0479779910288 902.4996073969689,589.7639377491193 903.5529666492864,591.6786346158806 905.9443099294767,593.8872040907222 906.8210352123815,596.6738740144268 909.2279729359229,596.2884298597357 910.9039562645116,595.5402669967073 911.7745064497941,597.5515597370585 915.0337527792409,599.7314742079718 917.0204650311375,599.4740946086274 918.0367253087182,597.845083049273 919.6236738336419,597.2643479661654 920.1836872451778,594.1960703855051 920.8392286002008,593.064566284856 923.6775216328472,593.5257908354363 925.3632871292253,591.4200234772701 926.5321282227238,591.0883595396676 928.853199001567,591.4963432766937 930.5767097376144,590.6075388029757 933.5679394304575,594.0824987211116 934.6756645093241,594.6656279541847 936.4139029230253,594.4035639944116 938.263580484834,595.8188368402218 939.1579313810417,597.4134383002418 940.9593591202581,597.6295743368205 943.4045988806403,596.2696638373321 945.1670937345286,597.0126730922594 946.5997979054874,595.630581033912 948.9132782665278,594.8089506455219 950.7636239699646,595.7803360276191 953.588563873949,595.6382981460738 955.824686963782,595.0487332952677 956.4540824713926,593.7593966187421 955.4364283725284,590.9504525236738 954.2985087989659,589.9902629295441 954.113090548369,587.0230630385138 952.3791618838097,585.726831777532 951.647185226808,584.0373862211675 950.5330364276808,583.6213299467133 950.5016552290722,579.7471430520827 948.5011140905649,577.1935871441224 948.8888988836328,575.7270371135323 950.7927395666143,574.2698896246711 952.669555614629,571.2736451948169 953.7464221817472,571.0352312311857 955.4740863254065,573.3913639251645 957.0524792776191,572.1353315380017 958.0014068196084,573.8368001803765 960.3875523738387,574.8299446714818 961.334365168679,574.3270162465506 961.6447298279835,572.6869047025325 962.8417690953298,571.8827249353662 965.8188465716564,572.9991402701714 966.5600755222564,574.1980466114868 968.6809041928631,575.2894278716009 970.7829935539039,574.378866056064 973.466586718787,574.874414209339 974.5495650833633,575.686782604799 975.262445557152,573.6855406410064 976.8072191388322,572.7796816923565 977.9400746570834,570.6850397917101 977.9155760797637,569.7171289482055 980.8738717200902,567.6408704036254 982.4940938648731,567.6921003466744 982.1065834181626,566.2449836817802 982.8019459952196,563.9958314653006 981.467244730966,563.8084191319383 982.1271154864792,562.6023126666928 981.9143596243817,559.9159210614303 982.5178918449324,559.3381091699027 983.7116318215648,556.0354948634429 981.0047288278968,556.1782142214156 980.054291423948,556.9028673822958 978.1346266710917,556.7949900669266 977.1946425143867,555.8972529561852 974.8108223298582,554.9437698368554 974.0694430787677,553.7458653237047 975.1139604435215,552.2541744438138 974.592183730223,549.5493198523766 973.3962493275873,549.1000920876418 973.3672458567323,547.1291546043362 974.5777013744053,545.6984927591714 974.5869739654429,541.9858373915968 973.6061220941721,541.071167308523 973.3736739635285,539.2073350053716 971.7350334344619,539.147280598255 971.6398081750249,537.4092988974087 970.2199260534118,537.0395015921811 970.5562412135936,535.2630222393157 971.6169321805019,533.62534050872 971.7534503794228,531.2739661352714 973.1523861800949,528.3757613234671 974.0283308934637,528.0130959612046 974.6448710976308,526.3405443319863 975.9681218052411,525.7548572813871 975.8160241372806,524.2215603529564 974.6305571496863,522.1071993450013 974.585599432087,519.9275526356435 975.571012300187,519.0192992275726 977.8268737491398,518.3085681239613 979.6369080794921,518.6857287768308 980.8573397197575,517.7253339627163 985.168829098963,516.9520812121389 986.4184213527689,517.5365514580374 987.0379658432925,518.8180582165298 988.2467737574018,519.0075315969627 988.2229250403102,515.704985639014 987.5750739480603,510.9469570350666 986.4471626578535,510.2862068039075 986.8556633397583,507.38774437770195 987.7880651064861,506.4620478730766 988.3096974144788,503.974780958187 992.4064986574471,501.39473726622447 993.8558154095218,501.3750388566908 994.3146957160438,500.0574548197347 997.2689855132588,496.29331979575653 998.0366946738046,492.6696204372093 998.9693550169013,491.01810056413785 999.9839699026219,490.5224140655737 999.75836706882,488.9936699573927 997.3581605002194,482.9280946987408 998.8218540836253,480.7856809874832 999.3257140965303,478.8616733316289 1000.2225528568993,477.8273698175366 999.6693788043966,474.3886239680193 997.4765007075098,471.46173382915464 995.8445560286344,471.48659012700443 994.9327864140049,470.3904366562045 994.4637535940723,467.39089803300146 995.8629957537946,463.23218363421137 995.0602595859494,461.1973290829945 995.8333305032563,457.82698898165796 998.5533319146813,455.1398232061694 1000.1543082075818,454.7760068799848 1001.572120145254,453.3069616699788 1002.7503910539267,453.6332537942911 1002.7044360761786,451.52413711890705 1005.7165702823423,448.7003214561126 1008.6014149038117,447.27402278067535 1008.752343107391,445.6462681591277 1008.1555999750417,441.3975246490442 1008.8969937345319,440.3687580512453 1008.9010008035136,438.62620045175714 1011.329383297545,437.0569585239125 1012.0469612926121,434.7908082166286 1011.396803925447,430.8572252372453 1010.7908363087338,429.6729278510618 1011.942805278014,428.68861669787833 1012.2314136081669,427.2508669449279 1010.7909323932198,426.6575763843061 1011.1467132050784,425.4198435249246 1010.5529895697724,423.17253441741593 1011.5113136020817,418.47354173374947 1012.2296390334636,417.766909578849 1012.5881571517012,414.38583142582223 1012.3814880713862,413.1914296134297 1013.4756919132923,411.2566077290802 1013.0336541678968,409.3177910194371 1014.1228350747737,407.2092790871259 1014.1910436552537,405.96219508343455 1016.4422647011986,404.0508848522088 1019.246584242377,404.77047244439245 1020.070462740534,403.8318375993317 1020.3795467854269,401.3149630353115 1021.7512611722676,401.3134362870055 1023.047110233374,400.42607887778126 1023.8783104869822,398.663708363482 1022.5108492486606,395.85487864962806 1022.9825428938425,393.6820767367984 1022.7139284981002,391.3738992994797 1020.7806961179917,390.659152909673 1019.323075609949,389.37260847015386 1018.6725026136696,387.3044744449762 1018.8880842129239,384.36173310086065 1017.7832627490886,382.87373298912814 1019.5632365530671,377.7116791800238 1021.0846947957045,377.2673179187025 1022.3741162032966,375.4663554823568 1021.542449803654,373.86201797285366 1022.3614598929179,371.69957014141505 1022.1616571139198,369.6572436056282 1022.4640355394286,367.299283881984 1023.7616742503224,365.08772603155444 1024.0,363.38111340209457 1023.3625995656357,361.77215906891615 1021.7531920751151,361.58853936280934 1019.2942272408874,360.6057029942008 1017.4449530955571,363.57217319877725 1020.0220331642845,366.2245747750078 1019.9742451953709,368.9226368959339 1016.0173306355576,369.61702435454004 1015.6339316901575,370.5416562692062 1017.1307386341902,371.44220363709996 1016.4587235143988,372.6582472344845 1013.8266856183143,373.22459233684594 1010.4395353180372,373.1066311741454 1007.4259295775632,372.0548541312189 1006.2061144628541,370.4241054992556 1004.1609585273229,370.0039719157493 1001.3693605460187,370.719228086816 1000.9640892273429,372.75966313869696 1001.6416536863511,374.77138637007215 1000.2376860609079,376.9304062321021 999.3435170228898,377.52120395820793 997.4178294235141,377.39886447930314 995.9984620374619,378.23230007076666 993.2214217517724,378.77229383414533 993.0954841291499,381.35449098166896 992.5466787539648,383.0247344383654 991.3141428325133,383.21246676384135 990.1051775070998,384.29640134501926 987.255921196123,382.11186405611363 985.3324695888692,382.8572281284179 984.7119697190354,384.16336618054186 981.3669164582311,387.68044570817915 979.5379352757745,388.5419393433308 978.335232301671,387.92345453012524 977.1496175875338,389.54589310305016 974.9592104115411,388.6961542491689 972.5688929587811,386.8091103606047 972.3348611598248,383.650234009059 971.0366895823656,381.6710503516641 969.3590990586675,380.83579395838024 967.6104331459021,380.82547675126887 963.3009455844706,378.1907936365719 961.6558523801199,376.59538984928304 958.7649641991525,372.9834047415933 956.9903454605208,369.4351635406043 951.3942052468358,366.274409845376 948.9012234971224,362.9366908145802 945.6765455772327,360.146561028016 943.1229159390045,360.5739784467262 938.9697284690125,360.7383961906172 938.198223766733,362.64814631675983 934.6325625943023,366.04999360364366 931.6982049592114,367.2529519235462 930.3030714828441,368.30952092187147 928.3413473139267,368.7488428818989 927.5188029131493,369.83725793476765 927.0776262679155,372.3612648602883 925.6347972733961,371.8465664088484 924.1963848185071,372.3919756656643 922.1834319717027,375.48284457565296 920.3042946569576,377.30904988983536 919.9133418622754,378.96372064602997 918.2046458534546,380.2284974693383 916.0759588516987,384.1267055326431 914.690412298755,387.91733246801266 913.667941487423,387.47414404462415 911.0387545945666,388.32990325294236 903.1750584041318,386.97097319116665 902.0103125930675,386.5486535307675 899.8551689615589,382.975609931897 896.7201963697985,380.8233800728684 897.024932063546,379.35394923828255 895.3436347934579,374.0341791339861 893.9695258352187,371.95344285414 892.3146758594341,366.8543428964564 891.8538307097764,363.53879123040963 887.1949130122439,362.5350151855 884.8020034488553,360.03844138401814 884.3262303634269,357.8659969456369 883.3459513018585,356.4441321717052 883.4407027420806,354.67967300923135 879.7806781377524,355.89057404698144 878.8335606437817,356.9608166870038 878.1725370971266,354.68295633114747 876.7739807447801,352.7678565837223 875.1707199343604,352.272318150213 874.5593991876362,349.42770260760153 871.3146930662189,349.48701537439445 869.7139158114521,348.59843305748495 868.3170413381542,348.6640613314015 867.2510516062406,345.01696723301995 866.0399771129456,343.21679568609466 863.756931584182,342.8442093730696 859.2570176889315,343.33852553633676 859.2561257961931,341.3034165226627 858.5761231004021,340.47786172662484 855.976649230071,340.083641015025 853.652945401471,340.2130763410736 853.3964692120509,341.14913813595933 851.1445096564607,341.79655268110776 851.2904082942292,340.9268444214032 850.6565242811863,336.806389613159 849.9182926361705,335.08766727072793 847.2459672886989,336.1084198376982 845.6220949150719,334.9819026111219 844.8328857084633,333.76625499314855 843.7434074303875,334.8825881153631 842.8581286997904,334.4801818006582 840.2328971009737,335.30721772204254 838.6839501923972,334.3342408416868 838.2954330674129,332.72741271758287 839.6102602921175,328.0047870162924 840.0884100602411,325.3597924579294 841.100686893488,323.9541577991646 839.8981735369621,322.4096150207213 839.9853429592937,321.1496388393381 836.8101302885286,320.3548538502821 833.7840847292348,321.99092693907085 832.4220884420536,321.142123846808 830.9597469445588,321.4252227660436 830.345374966482,323.4065142051753 829.4981209411674,324.3984007012583 828.0285729822979,324.31688990076464 826.607810230824,321.97354069173355 825.2425148273402,322.00858757622905 824.1841862217032,319.95028608165467 822.8232387758295,320.1948702593927 822.3975928806415,319.25458324361045 820.979177358948,318.6068175460048 817.7757661433039,321.1737115798767 816.6537854769991,320.574768075904 816.1418062029852,319.34427328780987 814.1868407729606,318.3505989683648 810.6745749125488,317.98693987100694 809.7957658918681,316.736078293874 805.756470135402,316.51783327328314 805.9091889740478,314.82898429827833 805.117301175903,314.41504709323954 802.9442468580776,311.4290902628329 802.6532981049348,309.96710007912714 798.4515836445656,309.1310379562085 796.7976812263496,309.49758232542854 796.2653469571628,310.5091656122494 794.0662358783392,311.7416271357597 793.3223614067595,312.8846657102514 791.542149870349,313.03415562938005 790.0837449695516,311.19143621559385 789.7839349271276,312.700247539868 788.5719313841494,313.3042805612264 788.1164047778765,312.30090513978587 787.1974653258247,312.7723370365694 785.6790446446237,311.5683715720743 784.158148052213,311.98628551265847 782.1262459175265,311.1098624609408 780.8511801562884,306.8043234191589 781.4349832585339,305.20925174469744 778.6136585596516,303.3718323589752 778.0868682869943,301.11278489539427 778.0851035489305,297.99859166158694 777.3567365804615,296.45374972192894 777.5479040662663,295.1122734060482 776.9687397646504,292.7550332919959 777.4559502866518,291.4722997242661 780.7447882128141,287.36616153517286 780.7161748666779,285.68315759803863 781.8113647486928,284.2719758954737 781.8944887148072,281.97746325890637 782.4302328125674,280.5852461274452 783.9857064554326,279.9399044419995 784.3418567911381,277.58678504157024 783.3473091464542,276.52120595585995 781.7929600078279,273.64617594159336 780.2034763994989,272.87283382405224 775.8751466587674,269.45373427140703 772.6279352582013,264.34326831371504 773.7017060473949,261.68922310098844 773.0574009853417,260.24554868090115 772.6609477925085,253.52656251479323 772.8655614159624,251.18780777918857 771.9184842668997,250.43122522000942 772.3190582512375,248.25307901330257 770.586867203275,247.32817354850556 770.2191254726474,245.96249684943814 769.3211024155546,245.71408746355553 767.8864276366724,242.47676126184592 768.0137236454393,240.95795149493063 769.8409267668286,239.70162151401416 770.4530117090693,238.6474242137068 771.4334164509014,238.98508213179718 772.4796919718966,237.80523699061052 773.873343024054,237.97273542555138 773.6285785841017,236.0883017961554 772.2440930673638,234.0321050360152 769.8213544434866,231.78477693623063 770.1363760605692,229.972953048146 768.6672391770522,227.05635237557124 768.3740691983476,224.6653956027144 769.0414769150599,223.3022233044153 770.4734038668145,222.17140270341497 770.3872445875977,220.64845600442777 772.78589800184,219.10224711938952 772.1577316874045,217.32544517269037 768.8252546813126,215.76621744742783 769.0100845459792,213.44999771075186 767.190793469571,210.75907481792456 766.9786001012621,209.57431624048104 765.3880007584341,207.79607629586724 765.305198960747,206.45550214468165 763.1869518228093,205.87329760958823 762.1355604878556,204.79358761163417 760.7830640578072,204.54353563887582 760.5486701947611,203.21451328340356 761.2244945704878,201.75310073490834 760.0883285081671,199.8225430358848 760.7083177668751,198.05396613588277 762.362063691878,198.17200965144684 764.022032355713,193.09686786643738 765.1533301645479,192.28078455241143 765.5676205381537,190.37121254357498 764.5128169729178,189.67260225528844 765.9989653020658,189.48537897441815 767.1321159155393,187.57301266837317 766.0700061366881,185.19907531447257 766.5411597686794,184.90142435289863 766.8352094148181,182.47777356547033 767.6743998229248,181.77560916660627 767.9569033347968,179.88708737129934 766.2317566442022,177.81475349974698 765.4648459107186,176.13402579346905 766.2167190006993,173.84885368273422 767.3728444294796,172.74341372903552 766.8822016737349,170.62406530845703 767.2576635854176,168.85235528218595 765.4726962878126,168.00385127812876 764.0027604090476,166.62526687457762 761.9045576565399,166.40616735374022 761.3967013085455,168.15225539748837 760.4836323763099,168.0043388000687 759.4144444936777,169.46998121226056 757.9382728016748,169.5572214906474 757.0845780596402,170.60265803919788 754.9156226189654,171.03586022076286 753.5700921437781,174.87812026031202 752.5497851651194,176.27961371278536 752.3201079581129,177.76830220101965 752.8589224320086,179.1814243292872 752.2360178752685,180.76702908566642 752.3096479528691,184.11721148715674 749.675747895756,185.36344892284694 748.0921322269443,187.70724964904127 745.4575691011552,190.2398791001043 745.1767440524218,191.06868170117525 743.2242214292992,191.90548986803628 743.9497733725091,196.89627253766196 743.0929711782184,197.19062021386048 742.4805932820153,198.8769621528578 740.1712013677339,200.9424921745591 740.6880890499561,203.59069091910703 734.4865169451361,207.06645689963148 732.8743604865087,204.3343787881115 731.572246763468,204.0275104352578 729.2969819942274,205.74757209888037 726.3560740209093,204.27669971448518 725.6322546698642,204.68601215580668 725.6738149713855,206.14524331391215 721.8036162538274,206.9901179920871 721.6951427229657,209.3039558671611 720.338024117333,210.81970740944416 718.4357540031801,210.3844614878126 714.6702317404787,215.12640787633052 712.27584025539,216.48433359880835 712.0274401296437,218.32010986143052 712.6291829524564,225.08016699137602 710.2492198245537,226.8465424196022 710.3883966684463,228.85023279940583 709.7544966520029,229.9572217133341 707.4596399323138,229.8435596256346 705.2886909375836,230.64447232074008 702.6248716112318,230.26332335627342 702.8290875042629,231.84887473679555 701.2417476162469,233.0594929538646 700.9477079944124,235.35086230053025 701.2233282401708,236.96313758779365 700.3444176392653,238.0461726443449 701.3199104697352,239.62211766654832 698.9397396471743,241.5608619529139 698.7187506042877,242.4992301522227 697.3175049727109,243.2715637676771 694.5187441185082,243.53529944538514 693.209030335229,245.09666098021512 693.2210015548521,246.0137161070022 691.4933926932391,245.12772865399916 689.7215965927402,246.32237083338464 689.493195014231,245.14485172059847 687.5707846219416,244.8968127892888 685.816751483121,243.50241821583347 685.0347545558537,241.89604628624375 684.8920788495171,240.24514029361694 681.3743164997403,239.01833788472936 679.256128918042,240.11633389810868 678.6448403055031,237.48155638596336 677.8263580031726,236.9560775108423 676.5578268685873,234.49357300598933 676.6601833380244,232.9218978617581 675.5398505084448,231.75593716717492 675.4228879320572,229.6699158114351 674.3792270277643,226.46101779111302 674.711788238317,223.78946315308053 675.42547866772,222.4287690192666 677.3436418862966,221.69731934551658 675.6544746412495,220.42988662949347 676.8717963057616,217.16772946414153 678.1808187058973,216.40765092983975 677.5350085210748,214.20291673831343 677.9387043468532,213.24539031117672 677.5844193864649,210.8378702003955 676.4239527519479,209.61894170118853 678.4344506755535,206.6294221611571 676.425284227566,203.1551207525846 675.2249661191113,201.97340306966032 676.3897367062272,200.27320261241994 675.0310196757157,200.20835828649092 674.4104224767318,199.16439518043114 672.4538687662643,199.08886243248025 673.1594491848086,197.1227807565714 671.2595975428463,195.84996663988318 670.6937570534768,194.3074922755428 669.5011305355351,194.53014092060937 668.7450145996085,192.30136245554945 670.1700317179486,192.02133370378942 672.3663831000891,190.22840120458568 670.4820510158199,188.51184687932562 671.586387482112,186.8679599307883 670.8658769359889,185.90776899066088 668.8899697188066,185.80450581481705 667.6655083951716,186.73419872536056 667.6511897082252,184.67820100970846 666.2309571473497,182.757297807413 666.3122437201253,181.06282249527055 662.3209250383222,179.12694911705967 661.0146153048855,179.0879547881267 659.4924156517526,177.0141591781363 658.5349100273709,176.500174914877 654.4762599429656,176.50111380900603 653.3264463831528,177.76377077165546 652.5609018464261,179.8908105061306 651.3673902924139,180.8913222518296 649.6179824003424,179.24467997076317 649.6542842782923,177.94986115073084 647.0623192200097,177.88788477403034 647.0341171280701,179.00164394452543 645.7859603001324,180.57264041499855 645.4099787644653,182.30627028158312 644.5827471680217,181.65443663895644 642.980222081613,182.29663731760706 640.6326159073703,185.2471328027484 640.2803289902673,186.3920096346285 637.3283098526913,185.89795042344838 637.3240093936768,182.60138510602542 636.4305506294116,182.37558370816657 634.4776824732398,185.38459474860997 633.1024754375097,185.5707368554771 632.8103411401987,187.66589818974478 629.7246353138496,187.95136444766263 629.1616805834577,189.35197159103598 627.353836437378,190.84671123820624 627.3361236127311,192.08810872712604 625.1377295266358,193.05209023191946 623.7403344272328,196.17357567150532 621.7011741096544,197.93371800701448 621.9415209575492,198.65627503287408 619.954163658295,199.53644118525744 618.1567100104014,199.12787449449274 616.7928558078586,200.57298523650275 614.9921939460827,199.82885559934584 614.2016301889421,200.85145275035404 614.1519882484025,203.10857876823627 615.3923241576736,205.67094896606307 616.7036495879142,206.08441562120197 616.6347018429223,207.34520605247621 617.619227138772,208.53253395990316 616.6728965365248,211.33421534046215 615.632794557007,210.7000677318614 614.2687666115753,211.16667909106786 613.2974389597347,213.52424351743343 614.0653361657013,215.3938929510465 615.7721486893562,216.8198652826453 614.6697559360884,218.19058671135997 615.8100595524226,219.72168021217294 615.5947395483882,222.6812437120434 614.445139824199,223.38137410173056 614.1224838410544,225.73426219538396 611.3412096770063,225.52441993953585 610.4435149422071,226.07707699560444 606.8185741932447,224.58632239533745 603.423765007299,224.9253618974751 603.1502520093668,228.3757060780165 604.309889922531,232.12231509185096 602.2586755337006,230.8066448506279 599.5754343453689,231.41105878130043 596.2168929830165,230.22421606347234 592.8315613345762,229.43648651750584 591.0173499618201,230.8673136861239 588.6910437004291,231.7397201214983 584.5636695040297,232.0275896479792 582.4052274468075,233.65124008970588 580.0799188242996,233.42464647751717 579.6824800161706,230.64147913483646 577.903434810395,231.49968157171577 574.4530352746632,231.39917044772926 571.1119574395271,230.9794587219418 569.1981814572282,230.14972880474136 565.8412172618372,231.71717966790186 565.1407155700273,233.07439943324562 559.7780450400394,233.75632664662817 558.2290850211931,234.28436917986915 556.2089252034392,234.1619887284245 553.8782303722699,233.1251258820107 550.8158378854457,233.40855943948782 548.1238807756628,234.50580136472342 542.859992647269,233.2682768193913 541.8065838846871,231.94079452554297 539.4489466473389,231.3015825207749 538.5144761090064,232.82279452524244 535.9102513461168,233.42796107832055 531.9111420140767,233.16080436361278 532.0385801908745,235.9914306834504 529.8570489078711,237.81927731117798 527.5426904789921,241.4905215763124 526.4708739271151,242.25869388374565 524.4633160525021,242.66919691255794 522.1467434771325,244.21554698135083 520.3118843501069,244.6972130091293 518.7881643576684,244.5050943325832 518.2068448978207,246.01560618469227 516.3911854070107,248.4037980526341 515.9280733092871,253.31981307531828 512.029660153852,253.64735644566406 511.0771341045979,254.0697894845166 511.19705537594837,255.8043339256709 510.27926063214613,257.1982410395293 507.8328026405118,257.52768279309225 506.6236589795573,259.7498938951027 502.7378984778174,260.92104794877673 500.5541002064618,261.0031606475526 498.9565061818913,260.3916585921737 497.91523421070735,259.1694338527559 496.6037631765318,258.91118010333105 496.3155236613093,257.91300397104453 494.7408710144857,257.8828656321364 493.11015556805205,256.4450244039639 490.27446109813104,256.0105730990267 490.71585374005696,259.888298478681 489.7354104222985,261.28228941666634 488.3455829468692,261.8141939217128 485.2258306955425,261.60728816730693 484.1959358459114,260.4932277658397 483.0563662005925,256.9537945008251 481.96445065707536,255.48597823685168 479.0280037234789,255.08681133918003 476.6666066639896,253.5044707291612 474.9522209776397,254.12754837687987 472.7854411340036,256.2961431816459 472.0798473146176,258.16034111523186 469.9808003389472,259.52935520647725 468.2382557182835,261.1877093069684 467.3384199251741,262.80763213779767 464.60353180574435,266.11384871893006 464.51847995156305,268.5408334855896 464.8723258809618,271.7668741425954 466.3066316901626,276.14521367146926 466.42345987660394,278.01830628349967 464.44475023243336,279.55099460016265 467.0736101894816,281.64506079338537 465.87565218652986,286.20538797068764 465.8303091338708,288.3522979930458 466.7160346078843,288.6321040859025 467.45252472110656,290.15841144442993 468.5925150116787,290.401052883955 469.64351785882303,291.58094204470956 470.0256678386614,293.5817718762146 468.7255317105097,294.4226845764272 468.28283187140437,296.23502739397486 466.25073625859164,297.33260298704397 465.2773666496371,298.73671752614064 466.76510851235304,303.2568196500116 466.0133173250137,303.90534371212345 466.2724820303041,305.6073028809477 465.23031087840565,308.14121831531486 465.1825311185968,309.2888089846665 466.0560342775131,312.3554313292792 466.0948197819876,315.56146017387107 467.92808568035247,315.5747883996311 469.0528071245088,317.184070010539 469.33451671883097,319.6340301823834 470.0906425058489,320.4699540156457 469.9316672761703,325.56407637038694 470.2601522472771,326.41974785635125 469.7472773368747,328.87299831406165 470.2104431720773,330.48477177753205 469.65361286173174,331.8172569440078 469.33938625553293,336.1483846870724 467.76483734161343,338.2317023554742 464.6467910175313,338.8325152252153 463.4266857926562,340.1395733217365 463.1266325325156,342.51129991529365 460.7415877864219,342.9095068557896 459.75042330881774,342.12732871745266 457.7577360662823,344.7219920790328 453.4495936419527,347.4676444565672 452.94303786058515,344.1122501946993 447.97657107772045,344.030308755002 446.96765016355533,344.3695497804998 446.04302706072457,346.3595062741789 441.0197625364072,349.5604191959744 439.96929419539777,349.6074419876171 437.8356636110559,348.21466020030675 434.64461203811084,349.39521828058844 434.00525665500135,352.1695447271346 433.50570726638824,352.4893720268185 432.08715272394,352.1534659774028 428.1192471398386,352.5952607081374 427.36497272637604,353.3440041719575 422.47867452556727,353.7582394780345 419.45939673842946,354.8185353334586 416.511531367013,357.18345082360224 415.76720218207475,358.4519945015011 412.4718156008581,361.3825444139379 410.6959463812257,361.0999255838051 410.0018683210729,359.98640251366646 407.9814435451437,358.3435512596204 405.6751658178818,357.6589758155958 404.24706250676434,356.54552144386 398.9314181527577,355.6675831510429 397.2487814393125,354.02425443076345 395.27198623788655,350.15454818141427 394.51743628678383,349.7256071191348 391.41655620163107,349.5042456761263 388.84516631935475,350.5330261509298 387.68034500396806,352.6120396160791 385.8222610717354,353.9516561832695 383.11860247580637,354.18603516663745 381.13820243053664,354.9590411239311 377.60844820987353,354.7810650297839 376.2307338355656,355.06193346323823 373.70995225015105,349.04530872840337 370.12986759151977,349.0029275830668 369.23628656764595,346.67515422965664 369.13254020823666,342.09647856412437 366.2909418411933,340.2673597067852 365.0616340954579,338.1582693171997 364.75051957097907,335.6050135115988 363.69742555644507,332.26610378147836 362.9535697428516,327.16036842179324 362.3952446104195,326.15663236294574 361.855619988714,321.24384993391106 361.3086530561149,319.84876208948674 359.2829995383051,319.19739559050504 359.69546073981684,316.9390752921156 358.9160648439649,314.75124715391973 358.05226683831177,313.92944688672503 358.40343450641654,311.7900455793109 357.4298304321282,310.17580841269523 357.5748013986473,309.0923887852995 354.0053559561952,303.2656208303482 352.49282391635955,301.72334026497094 353.0194211764917,298.7755500858718 351.44123426567313,295.1128176863011 351.7057200568216,291.3099440332959 348.36370714218947,289.45381330787677 348.8758701876261,288.21781922862453 348.5352376148038,286.3158253002971 347.4905897840034,285.1938434184011 345.38363882585753,285.78816667778426 343.50895077852954,286.8926490739916 340.95154470227686,285.0289600710347 340.97924550659747,282.64597626515945 338.85334026970077,282.83041993081235 337.2342228074041,283.48921949144574 336.76122204753176,281.95938610209475 337.1535120698029,280.2419893502289 338.89919348022346,278.05604322461056 342.8193504602317,276.1219872012539 345.43029674863095,276.6845101065559 347.3140496871525,275.67162961601 345.1713629180266,274.8016172616034 342.8182572753774,266.33154007526605 340.8676861591206,262.8903657486836 340.79567618287746,259.9278370456782 339.988472611871,258.198966706594 338.70040882953947,257.57707393490887 337.97309458598306,256.3300261820382 336.1457656763451,256.0426136879604 334.5479619389454,254.01163867805712 335.1149882255505,251.50630546585853 336.57543627156036,248.95914914682976 338.9286085492042,246.5694929542376 340.02177727187797,244.35767895207982 345.70040311828797,239.53578721195595 345.2175093564786,238.0093501581672 343.9136139183257,236.24456538651293 342.2220932320636,235.22301917889774 339.807832250302,231.7762546296998 337.3661118624249,227.703302520124 335.0600205959621,225.67253875086783 332.1810535963903,225.2817983536512 328.7411022620513,222.91067463036552 328.3368603531291,225.31308479552342 327.7869374644705,225.8735220391677 324.16220760508986,226.8485349408894 322.57186063286434,226.28892495934497 321.65374879269257,225.06056623400207 319.61485159876105,227.628784818496 317.20238201942004,227.1833576796165 317.2463155412248,226.43976208110087 315.85849686496044,225.97116144341283 314.4646364954609,226.97216898664988 312.9826382295455,227.21071603642406 312.58601661845427,222.82709625915902 314.15425990484584,221.39191067646072 312.68764535901516,220.4964408836404 312.393230054394,218.2732516414145 311.2671631168396,216.14609813489733 311.67926318173414,214.67019873963557 313.7175723659476,212.23996086810973 315.3546220340366,211.06857322640928 314.2444479967787,209.9668447547018 314.14553316980204,207.06553293095521 313.4999506846378,206.3647969007352 309.83446430696125,205.70511419286743 308.41131944791175,204.49316021282073 305.5702366094828,201.0179230694023 304.25283887706365,198.9819369168781 303.1616799200313,196.32185907618714 302.0609101438498,195.6189179130272 302.19835774315465,194.4509258656676 300.49500523720764,192.78451634819965 299.47135596877433,190.91351784646633 299.61446735376757,186.6575046852456 298.60862544915113,183.32005835278937 298.0138970399068,182.82844219599997 297.3615649999153,179.7468545088051 297.0982408156207,175.8892204463283 297.6692009244404,175.0322101199348 297.20291649433017,173.21052984528762 297.07629480636405,170.3140187371896 294.7761399326793,169.08055744229796 294.8249104016093,167.4970800906865 293.2846745057989,166.0777558580852 292.86938606979027,162.43876276004016 290.90137063003806,159.7958437126763 289.843050518265,157.3208653583995 287.63498694247426,154.39669754945214 286.7572696892008,154.0662745471882 287.3501411502382,151.10380823330615 285.8788092343211,150.36332569134072 285.1016412438704,146.6161287601558 283.5192182819608,145.87484319421515 282.63100216122444,143.9535055338846 279.4686522990503,142.20868428205972 277.9438717879298,142.0367558436693 278.27410218627756,140.9002606400976 277.00649136520497,138.35306778051358 275.5363404520844,137.5761876914729 273.1654675331161,132.23992871890312 270.222279991889,129.77346393217886 270.26025130177385,128.55437477196006 269.4496000739175,125.87564645925738 269.4332950732884,123.73542217060572 267.9061134638611,119.4907601487929 268.04350410085397,117.0271250329323 268.68751888812614,115.75845891266283 267.71992157576346,114.03727267233455 264.7001579347447,112.9162682348267 267.1245038035786,109.43050791519647 267.2927560081559,106.8600248340233 266.5789850532595,104.96057787083214 268.1660152931648,104.44780350975066 269.7066069841118,101.75150836497403 270.4416631154779,97.1919661200061 268.9035302941027,94.94574591275989 266.6678679282068,94.56116367949096 265.7779182203483,93.45496466840768 266.4762018698906,90.03345345040157 268.1115242137374,86.57328901841959 269.08916568999456,83.46081530571814 270.1045417192114,82.27789094697982 269.62121197235797,79.09328101811923 271.5658202700543,74.36670276638199 270.7413867133295,70.97384180010022 267.8307359791377,67.95545980194163 266.3364491286667,67.02696061917186 265.5978094889322,64.57273380245329 264.06373977832345,63.62559921079651 265.93428298732545,62.43151408430663 268.1067545933797,62.73425077692809 270.1932772303313,62.3156558794426 271.69143162916134,61.01962667215969 271.88403425964344,54.51218875280358 273.3272002453446,50.660067247686925 271.8907404816195,47.13260807467202 270.48929473599577,44.52317201798894 269.34541658805716,44.101762227932454 268.0831004703449,41.808743117782 266.9733102718568,37.77149763506145 266.8683194555108,35.42341058850377 267.3967267829484,33.06204224490227 268.31164492744387,31.53955661471798 268.52440267117345,29.73352916599913 267.52707869586965,28.540334303403142 266.13434952979156,27.901538565027977 264.41608755532434,24.878820672128654 263.29162634506326,24.727366871068853 261.7695084416836,22.47876265742127 262.29787318499075,20.163743938952166 261.37731462321045,19.600318522201405 259.4910464248611,14.959357760996454 257.3859953449426,14.342647037229767 254.2212969567331,11.67867766593156 251.04469732215236,10.73020676281908 249.23140950657697,8.79455496246021 249.15119546142128,7.428522352272012 247.8527870690649,5.182360789798167 247.97038594944786,4.240551590060932 246.54763573792346,2.52351765446997 245.3324428455448,0.0 242.4835541768581,1.028433301659902 238.4427071465828,1.7149169862846065 236.41390112456273,3.0815274910554535 234.5720828166652,6.120058699764854 232.24867928631764,7.825415679029106 227.51006658060916,10.066868672286432 225.40953207748413,11.414363336600104 224.776273663731,12.630900078376385 224.09653462414315,16.919833100806045 218.73952892094562,19.460971414541177 215.64990481137127,20.026391325387976 214.77079321690394,21.690106139606087 214.00267854031912,24.352494734714583 212.2143244512528,24.327002375896882 209.56381053248305,25.12062243226717 207.1044744728729,24.818980140080043 205.2690280799286,26.527517624204393 204.78281415943442,27.997220504187453 203.00786784674912,29.63441486482634 202.18348138922568,33.808069505799835 200.59180076496165,37.21903756142876 200.2086765014595,39.38330022820526 199.2893676905517,41.8842222414994 199.50004758809402,43.99164942147013 198.53193954661157,46.2765002370578 197.7776922824797,49.310599811579436 196.99913361882201,50.71607297620574 197.2186350090628,52.95031828307083 196.56854498988582,54.55512846908539 194.56070748783998,57.10111197928609 192.18914985565127,60.687545252860104 190.60876645371002,61.67102975082037 189.40359543357965,60.39812651845102 187.56625766023265,57.00270019614504 183.75805134325896,56.37787451235715 179.59646232771064,59.647309535752015 179.33613740714878,58.58199682203701 177.36254849674003,56.787091972853545 176.429073214666,56.52464277109311 172.71363140346162,57.56438573778257 171.7142481194223,56.93213889452409 169.5871111982852,54.523054899232875 168.88192748794228,52.78662535884848 167.13976505775167,51.99288235191352 166.39770388812764,49.9864862256685 165.074860824743,51.294366731815785 165.2322889576827,53.366629098413 164.19650237321082,55.06516227718839 163.87674537363128,56.61891155465287 162.16764943522196,57.31955761474467 160.56984476054618,58.8228220621603 160.6595783165534,59.7604178765348 162.32875189922706,61.68847913071852 164.13693900131028,62.04238390481407 162.0551419240763,66.20678167661538 163.78069641874956,68.5413654422398 164.2177642097124,71.7266843748655 164.7653180064028,73.16541418989607 164.26593024487727,74.56527398447406 168.39440568352165,74.72007993219938 168.26028965972299,75.90782355554461 170.1030800860121,79.61447386819191 171.29880475279384,79.8979202946498 172.80148698821063,78.859982374492 173.78150780240424,80.47507757510948 172.6663058576829,82.92360688541339 171.81263828033812,83.5543362957851 171.0163295916119,85.40257936758758 169.71031479395955,86.82128336327548 167.0258081559655,88.00851288418392 164.76641007359086,89.91248088678321 163.66875421801117,91.58626460961898 163.8610128678639,95.06041698780825 165.62073030480124,96.38833984520159 168.10616248612232,96.85835817695317 170.04984213326486,96.17654061540941 171.15723806494168,96.34210663716169 171.60471999565002,98.74626257032605 169.75499389543583,99.13177879103978 171.87806988319318,101.4015524626933 174.20993016204477,103.07804177140918 174.06506633295643,105.2692046164791 174.34464294509124,108.30429228358776 173.934341352266,108.92246642378063 170.6945402351354,108.09272054673409 170.7904973905625,114.00566774647086 171.56778171785868,114.92600368618366 170.6957920580256,116.1984521171463 170.89118061219946,120.425867917946 168.99863342150755,120.86550296633084 165.269509769349,120.31791619853527 164.8678565469698,121.91187107679127 162.88480872971377,123.16267275592054 162.47942551254368,125.0634992013479 164.3345923307731,126.18644960737663 165.84554940663102,128.3081487487691 169.3511723436128,128.19406491758377 169.59691862885654,128.81980050816992 168.8055576932212,132.77699551222122 170.4798667030412,135.74127064648155 172.88761597130008,137.26752284158897 170.05652555298263,138.38409086502918 162.64093747259705,145.42334257050538 159.99933153471017,147.5086129784637 157.49082930709807,148.52824579938112 154.8806623534065,146.96987325203463 152.81714952304387,147.10828291068583 151.5830056906905,148.03378966406137 150.08859440871586,150.4391877536442 148.1898463791947,151.9628066903606 144.91951836076748,152.33021701960035 141.41865950997837,153.35408170672633 137.45916807915594,153.04256822124444 136.15803074651205,154.3920415300911 133.00804574458337,153.99924220304354 129.02732730440124,157.65640194549553 128.61999226234218,158.66450490014802 125.36696132244153,159.92461668894248 123.41359823129655,162.32369187138772 122.328981495682,162.4812275071978 117.01366948584308,160.57348900730074 115.66441182613747,161.60468696001044 113.44273225992826,162.08134608588705 110.7069752556886,163.13878612595977 111.99396849719797,165.9253829801911 109.4571884405863,167.9176006784361 107.33896260011794,168.16858975841353 106.617003500841,170.59352260236983 102.87201866432613,172.07068391206076 102.87346282656584,174.1255490940406 101.49555496046014,174.9388317773885 100.74553559828635,176.43135175616453 98.94885540918021,178.18018946799032 95.47403369258289,179.05404750487526 93.50913811792951,182.58432179469628 90.37070102905282,184.6126108327329 88.92819316177159,186.98271614511043 89.50049131554292,189.39195496724847 88.613424794903,191.8339394973882 88.67460127126414,193.1941920594502 90.38578966719474,193.9352771111229 91.15751190507972,195.1970529832481 89.58084163234966,194.93831721996776 87.67413677911544,196.44177514239675 88.52817685672493,199.00121192134304 89.42281122822216,200.17454951172056 89.44411926676803,201.4799483491289 88.09207321074595,202.43920091896973 87.3577922239874,204.13253262343437 87.30051307323554,206.63407138704508 86.62412687908643,208.49173734501653 83.109732573283,208.25800081416708 85.105136854276,209.73892804026502 87.89575483721725,210.940833711379 90.06479319956073,213.75696372291475 91.4233379611329,214.46615390032002 91.62638417024223,215.84774497207366 94.79281639179536,217.78976044461604 95.91743924590901,217.86022515366176 98.21250801785361,219.78916976833136 101.70079189178134,221.2813889516317 103.17332748038137,223.3252389226999 106.2543253279651,223.54963093046547 106.26136136294767,226.6805128772893 108.04826890958607,227.34031506901658 108.77042142611046,228.67534068771965 107.88079912270214,232.102976118951 109.15494183512669,233.17359816389558 107.62146408641905,234.72292758229878 106.90138587846508,237.60012321088948 105.03643048953332,235.2226664982254 102.49491105167193,234.06119145525497 101.84035622540875,235.8496855403581 99.73594407812652,236.08319965375085 96.88363141852139,238.92064664921702 95.90095535718956,243.02015326869446 95.37600556042817,243.51220082102589 96.85381045284845,245.2590096666953 94.63899940400702,247.45278231431212 94.45525131172849,248.22209248407466 96.26065188271261,249.09281806439856 96.95115846252659,251.94618590800292 95.86493906988201,254.02037281624985 99.14563040275902,254.7852275200063 101.64113836189784,257.93740778545646 103.30019598769948,257.7334722053986 103.91983469887681,258.4780297423853 102.9082351658142,260.33620966724004 103.7599294217565,261.92041076701787 102.66339472498196,263.29602293741084 102.53302000088733,266.0666349773585 103.55263166330144,269.49054992468245 105.10899944552415,270.1487155425706 105.52010813252971,272.7549775674157 107.29250448019292,275.47143023993783 107.02545122320362,277.8782183667497 112.27387883449737,282.31648009120477 114.640338480639,282.58472868224544 116.57045516625428,284.2938858794713 117.6887737903817,283.5900287545197 119.2524976196242,284.55673633416166 120.03091883316753,283.3934862565536 122.4836661485444,284.062541247107 123.13847964307561,285.33601754400456 122.63880471276116,286.2120953688287 123.72303136584347,287.32694547020765 122.84345151291308,289.2448945049888 124.18483365464671,290.9278050046912 124.68059679294802,292.71800998725405 122.52964017241382,293.00860176739536 120.87770567250548,294.0337682698291 121.6915751778162,297.1575835729792 120.84410758325117,298.13866227840936 118.79902057729481,298.84938438230245 120.6866505048635,300.8317280776479 119.74287932126907,302.1486667506538 119.48933086120269,303.6206921181813 119.92108630166263,305.61150351619074 121.55563514124611,307.53652484245345 122.24483289096864,310.9066062322495 121.38757341760146,312.5986850317902 119.50971095609532,314.42367667813573 117.76138922475053,314.9106809042396 116.89576516079757,318.72632277662296 117.43893120588358,321.55864055741733 116.74270276483306,322.5608831870834 113.59421256590201,324.0684431443566 110.41259602946921,322.7037470664708 108.28407825814489,322.6110136593385 105.68594085640116,325.519160432274 105.37137332908783,327.64814695485495 104.28283245054662,328.95518079470935 103.95655941029281,330.427494160068 102.3289668190542,331.6450303808963 101.99259777765663,333.1084382084605 100.48702153776898,332.8685490968694 98.98259041903196,331.81696342295686 97.35152759360962,332.52324062098364 95.53749772629479,334.6224457403466 96.36517387986963,335.9381117557115 96.242177561117,337.42304128429635 94.65777542993884,338.3854028834827 94.0503492835827,338.08506549838444 92.83193252904155,339.837200029011 91.28179610904485,339.8330919600297 90.5157970401104,341.3087109333362 90.78460543597683,343.88543716232243 89.02756879283176,344.069714011914 88.70253203331278,347.4683819459834 87.99810350049741,348.197286060294 87.19195805220073,347.5100918676774 84.88698095471103,347.4581007216567 83.2270955328158,349.3226669712802 83.5309801579476,350.1577099796241 82.82251276846162,352.52019281450964 83.35020009058012,353.413163772947 82.85547569235361,355.8250460357183 84.05663598772394,358.10648977617063 82.62763703433521,358.797602910161 80.77998751527547,358.8065985095923 79.58181962112373,361.0987017095789 78.18315104065036,362.46579275020144 77.96352972858816,364.86422256599167 75.95477405239461,366.03049576079945 73.14125912915787,365.70457810928986 70.28102405445989,364.4552609443858 69.48935827115395,363.47525804583745 68.88317866947064,366.3701663936107 67.76969658091159,367.05610230500554 67.73418736122406,368.032859221172 66.1924820039452,369.3332900470241 63.59313056673019,372.91945783150743 65.48801701663739,374.5569774744099 65.88513154710282,376.62808748653583 65.43876771011398,381.0168326497992 64.40933820394656,382.1616292585777 63.18337901145551,384.7565197196177 62.8559649778487,389.9987571022466 64.24711030956706,392.5715077275971 66.46490815176249,392.61505254832787 66.83493585446894,393.8096247450634 65.50225081646104,396.6786282895839 65.09640952639408,400.4223847322771 63.25806030852682,402.8726815325599 64.47142572331663,405.087583332109 63.93490184512935,407.3666215031492 62.15044987248655,411.5570715896273 60.312879668517006,412.5809114994799 59.715432048918714,415.43639287766115 57.761342745018496,416.67776231431986 58.799716152844724,418.3327157609111 58.72128385224274,420.0526645179652 56.60230395622792,420.70583722964005 55.826745817330014,421.83793322055453 54.280978741476694,422.47269851442553 50.882474022940904,423.06807138890986 49.482331472300494,422.9172617312699 47.316247464059956,425.15310412521643 44.82802945351766,425.1582995842867 43.1663836930821,424.70968126822567 41.296401501306704,426.95894285569887 42.6234443838163,427.8325734243968 45.62836394755954,431.30763246953364 45.48071635716298,433.4582770418959 44.64654701308627,434.9742930287168 42.323892496460566,436.0448399703674 40.56619367605528,437.63757776048897 41.36393556335634,439.5842900653722 44.018605973285176,440.1501917777632 47.96791513426869,442.39576684673517 49.67182378443063,444.11907177351395 50.76036813786121,445.896416892221 50.801582739150646,447.15292242004455 52.11753678093759,449.44725464899466 51.566127071810456,451.2447847242674 51.43577671682791,454.24082276295667 47.93454833786633,458.3567248946676 46.94950258173675,460.9088503709486 45.719148909206545,462.76912014867696 45.5623771463306,466.09677960427933 44.99409807610888,467.60150308647 41.05313792794699,471.4270340770305 39.87539453802611,471.91259922190955 39.05496537779189,473.73416332571577 34.754505129486994,476.83827271594646 32.50948036976834,477.2869610737645 31.40068651108459,479.7285977972823 30.556786487631715,480.4578394591598 27.216777072081456,480.6856882347007 25.669438955248545,483.5142690963156 25.403109950708174,487.07265803453055 24.59870169152541,487.2609131340478 21.627412728422243,489.8454755030446 21.513636997412092,491.6714166146852 18.916405929079026,493.36237247038906 18.33338036826802,493.223283716361 17.508502513135344,495.1565660414377 11.649957952925917,497.0744467077672 3.457100338935836,497.34967635217305 3.6527670547592637,498.45583025230064 5.732729272951615,499.908844909603 5.830991335852484,501.30707219277514 8.960990854944173,503.2473141067118 9.633828986277354,504.7023927658164 8.117641571320627,507.87380073523536 8.34488283843815,510.1118160033998 6.142029872067313,515.4235461620246 7.523903769751028,516.3310214223204 7.19042421922453,518.3022667892185 7.862130513231244,519.2614099426899 8.833402645016855,522.461269280285 8.633679065409476,524.4356455840948 7.355988076826644,524.5507846974031 4.0016717249932565,526.3208945129165 3.744596690165698,529.1684816392667 1.9051436191307471,532.4385503105682 0.1421278343569467,534.3298187558403 0.0,537.6131485167946 1.0297173700502962,539.2795858611221 2.587773413052617,540.2101706746316 7.319933963866234,539.7888718734306 8.2185460038057,540.7531213498805 7.823468130693131,541.5562416481162 8.837314386953961,543.001344942569 9.3867080083173,545.1012035189088 10.387464991867217,544.980626494034 12.417326611494602,547.2173247555695 12.581940303481986,548.3988917925321 14.087864023815976,550.0002411594988 14.430489168892406,551.599649493819 16.147714502970018,554.1163061063442 17.724937920195558,554.0243936345461 20.699858046297244,556.5075557811276 23.25002282321887,556.155311178472 25.415144282550067,558.449494664661 27.15258835604676,558.036678134633 27.868570700404586,560.7669088371914 29.227287447740576,562.0613650241982 29.483715701728254,563.3462629628688 30.603777680689948,564.7567530154647 33.476216214524015,564.2703803920904 35.37731538278683,565.822537885341 36.60121338542642,565.3359978040751 37.901518365876996,566.4723679558754 38.731613521868844,568.6240517807536 40.867121226475284,569.1200386321232 43.97069821454425,571.5670894774131 44.81993308626869,573.2123667944618 44.19541025815624,574.2253709952138 45.48872316213235,575.8504989638259 45.12255511892945,577.4487958547509 47.13255117373411,577.4720766936142 48.75086328222741,578.7796316424897 52.114811623294166,583.1578643572209 54.07365029232593,584.4889673603756 55.91086176792299,584.3885719948122 59.76139633301046,585.4447078001172 61.17089598943659,586.3333911765344 62.149706046376885,587.7319976534716 63.83510754218256,588.8002366201301 65.69830933865067,589.0500434848951 67.80318114352984,588.3163259845658 71.04794976293064,588.5865539000986 71.56899499886347,589.599946776372 72.6048093493195,589.3110515712376 75.26568583710213,585.144752108268 76.7018194162964,584.953711383336 78.8380626944866,586.9587642922263 80.72395831614782,587.7610564566914 81.29717273124346,590.1861264043976 83.08569952038945,592.7489108365367 86.00910654234528,595.3558448547582 87.67319278332091,595.1396812431944 89.40445367031754,593.8081081023439 91.5947848388647,595.0382735942858 92.77974219356706,595.1470207470879 92.99949649769665,596.3959408093285 94.07836996953567,597.4533476504198 92.55648499900482,599.2869864463097 92.0984592242578,601.7904440759337 92.31333614307121,603.3902581693558 91.44220057300228,604.4210778415372 91.89269489424535,606.1439838209424 91.38751034071659,607.5676690929661 93.50788322441063,609.4806922262514 95.03850777819245,610.0284498324288 95.29360123692838,612.4599374120102 96.55059347360277,615.6446987583549 98.32622184888955,615.6597024568352 98.93745602681935,617.0347805997599 101.13874131313275,618.4133377202282 100.21071039929515,619.832171001153 98.74486529745329,620.523486258646 99.64103749838992,622.2075258667899 98.40210705342461,625.1834916337255 97.03705160796157,626.7815082641846 97.49432896600052,628.0995157598704 95.78665739427346,631.3008002769222 96.21869745236536,633.6910012443157 96.08110065552577,636.1566964012804 97.19127026615996,637.355195352774 99.17918612779182,637.0959540808963 100.83260487353684,637.8764712018451 101.75924828622578,639.6547283108818 104.71539429173298,639.6665827062284 105.38874312018679,640.3320039087173 104.4286589227067,642.5566000283707 104.33374209278122,644.2285173000569 106.53333651305297,646.7451778782254 106.14156475754001,647.4243679221356 104.70689030672398,647.9971135210114 102.12886011880006,645.9648098592647 99.26077795906221,647.7752168597926 100.16228247972978,649.9052200407396 103.27683315228246,652.065472998928 104.05053748604654,654.5175853663251 106.70194677960123,660.4830772011777 108.21100135377971,661.3637294001712 110.77648673862522,660.6017564931279 113.13772042281309,662.8070957708112 113.40240605956588,664.7352547797752 112.10743386250144,664.8479677025988 109.52397278950512,663.0094704602878 108.45774734890169,664.6146744925022 108.66981391613781,667.3664058869945 109.47524081403337,668.2747781217819 112.88163861175187,669.7632268184079 114.4202698416784,670.0238551639666 116.8892755407714,668.7782923732423 119.46454601660257,668.931746363511 121.34279166450347,670.9916824941 123.51491369060936,672.7409772813846 126.3865807613687,673.2304481046467 127.66647504193062,674.3664667127948 129.35992961606192,674.7022480043744 130.8502734922599,676.4238532653055 130.45897672034476,679.6320478766565 129.12371062812477,679.5970946923841 127.51810940601717,680.4939310781531 127.7932825944163,683.3681266693771 129.07086814576022,684.7453703545755 128.52919931248857,687.5173857053966 129.18467310088113,688.1275648157431 132.700119871295,687.7999095687712 131.44517188085828,689.6281133505875 130.99871403921176,691.4013361841321 131.55142111548935,691.9639544811934 133.4629471362395,691.5241088145277 134.8245920820701,691.9944880451708 134.33386918749423,694.0453559523278 135.09276454960488,694.6937315733068 136.23402874368483,693.6881368643794 138.3148964141996,695.5662322355367 137.1003841123357,695.7461642346288 136.20525053945832,696.968072544378 138.07775180511038,698.9550770119172 138.4275712795035,700.0527753419942 137.4534360135272,700.9214147542856 138.5857087168044,702.4364909486872 141.79569502207943,703.5773359096503 143.08690308605435,704.8344865167204 143.923703302718,706.8652978327243 142.9757963252699,709.0329562855167 143.85990823599323,709.6923040524098 145.6154171989567,708.4887857190001 147.09001842853672,710.0816199285828 145.56120301772052,711.3901607096326 145.85911645866955,712.5340840338347 144.81919818535104,716.3705293373314 144.97582352098544,717.1884810631535 147.0907748461857,717.2405033221698 147.13102206395172,718.2613190552016 145.94049035214226,719.8617114234303 145.97354115463318,721.5038317466258 148.58237171162432,721.9603537000646 148.56955125267618,732.185163077926 147.80674492351463,733.5502713121425 149.19408119336143,735.6821119373708 149.05792410517864,736.7111003194717 150.99694091475976,739.6477338236028 148.66311130591114,744.9414127765316 144.14709465105676,750.2574258862883 142.87299119878546,755.3239802673833 143.48789127842267,756.9659115333304 143.4271549913158,758.6007338507486 142.00768191656988,760.9536305675292 140.91758263020853,763.5334384695309 137.77314767331498,764.044679542051 134.4397418621467,767.3048486655581 129.69229191229445,769.6362452219889 128.07329658783325,771.1224357871536 125.90139565539164,777.799554600943 124.05413272629832,780.017984726047 120.01512053689189,780.3118907726443 117.86997122384733,779.7081905230025 114.80026076333074,780.654855875327 112.72339946381432,780.4141157912309 112.13889745484335,782.173913482112 112.64994240178316,786.9059165187723 111.07827791886328,787.7694513482331 109.11632366303091,790.6375780011563 108.29507980703735,793.75346584911 100.42769079565818,794.5334830284941 98.30581002393062,794.439757161618 96.81134011625294,793.377302058449 95.55347028746202,794.8024830255982 93.75341744374931,794.7778823082558 91.94772434885887,795.9070455383792 89.1664682310172,796.0734942835978 89.07776883490818,797.2262472381561 87.76108744268642,799.0790340727691 86.76479248731411,801.848507258775 87.33697789720688,805.5900346214144 88.19334255572248,806.9146827905263 92.1499127840094,811.4674156123768 93.33235387615262,811.8189184768627 95.89615808811153,810.94128686891 99.10775825889726,810.6399802251249 101.09392541786832,813.982516811432 102.80241979249988,813.1763992059172 103.57583848798912,815.3194775363937 105.14347909342926,816.5232719189726 105.932539887296,819.0861809811238 106.01032534465783,822.6742681229512 107.09226762348139,825.2041995617938 108.62913269023453,826.4076874213029 111.47221810766709,826.5566431869341 113.26000169854761,825.3026562712797 114.55585335783108,829.9233075554631 113.87395705962923,833.5125291867862 114.75123907276371,835.0340239246573 114.47613983662889,836.9790871194926 115.20274589430319,839.7013370262382 116.20003036038054,840.8144099353281 116.8504111988094,842.9768690200715 118.47856580232033,845.3660168754307 122.73209356686144,848.0399512976636 124.47997485140625,850.9441040617338 127.32216556116688,851.4171577200198 127.80563060030353,852.8317435515175 129.3326477216444,854.2403906882645 128.3474774781665,856.3371425151114 128.31658491478044,858.8844369805502 127.23494982413226,861.139044609021 127.9734020945926,863.0797900719097 129.84429568342748,864.5864610194055 132.30652047706545,867.3045253675381 134.3576501999968,868.6546234842186 135.36997070582393,872.2145047572294 136.16588468354595,872.8867298649153 138.13347308348972,876.9716561994312 141.1527602338356,881.3965166706279 143.4879858313,886.3653064082625 144.1021394535013,888.3903010920958 143.85838065309642,889.6207254606027 145.82969421738568,893.605566660221 146.31196916727714,896.2463190494528 147.3181164247838,898.781579920925 146.93292532018134,900.5065534021795 147.97587582347595,903.5099142670607 154.77134420180045,910.2614379803313 161.93594237358354,906.2522014359614 172.4894052786248,906.960306283254 177.46908462904247,905.6829868388289 184.6221573124114,905.5285282578941 216.17798019268673,905.4002593747109 247.41773823241013,908.368241374428 256.73294627710794,906.9442894781803 257.362339169513,908.2670036165166 259.1438843393554,909.2601227452927 261.49080680641805,908.517725313227 262.20890920431344,907.4001978868648 263.80580400751944,907.8218434046065 265.45620687918625,909.7861363737969 269.67561920386197,912.4020018971933 272.056638656088,914.7635981083888 274.6465738235723,915.3959346113068 279.1184151349801,914.3458231846946 283.2971042292098,915.2291122818986 286.34840321437747,913.7863083591776 289.2026602126602,915.9615411253058 291.7188263146219,916.8536294069772 294.68435606927557,915.7834398007781 299.66574917881456,912.9172512290849 300.5690481217005,909.8359464519733 300.3311338554781,907.0204482136866 301.9208454187618,904.6530645671966 303.74816515519814,905.1101386115557 306.008043403433,904.7184447819964 310.4172323695456,902.8209886773129 312.3811193436149,903.1283799046306 314.9056369409952,904.437993625639 315.85931838862183,906.4238622280308 315.94373695801244,908.8644386006781 317.0697598041098,909.6823184513527 321.72000782747244,910.4480907385844 324.5450663948492,909.9256819963638 327.82356223375217,908.2915802708452 333.8010582367507,902.7960868012382 335.59785171425744,899.8204004584729 337.6117335905244,897.4621222026103 340.96660938790063,897.3600601011682 342.5304261287311,898.6729411132036 345.3109936385884,902.3164705603444 348.77806662763106,903.5688949174302 349.90805094887946,903.1696287923777 350.655170224276,901.1432690134059 353.0613124957311,900.3361160363786 358.77642179684864,901.2367555194689 360.88539614850464,902.4563872081494 362.67937614262337,904.329565957318 365.2284642354965,905.2319483521518 369.33769174251785,904.7250281646216 374.5086262191457,907.2294626579678 376.8403048839264,907.1392436969006 379.1099133683808,906.3383056407298 379.93485773817423,907.1898631684585 381.0191569598515,909.7529333681954 384.2067617547234,911.2057052976634 385.5658209923692,911.3661370175942 389.82235676019087,910.706160574386 394.42560058341235,906.773100388557 395.8788425573256,906.5497613214151 396.6219825821138,904.6525902671455 398.3091330177822,895.5312951089181 398.0902952826994,894.2512226320011 396.09594640630064,891.9985338161512 396.39179776872885,885.366246678458 396.99834802355457,884.1240661279354 400.87427426003745,880.5583431176296 403.0251829257512,882.2865971130454 404.9574157991045,882.0442388875214 406.1583389534296,881.2036960345532 408.33059753504074,881.3814335070695 411.2548946582504,882.2591186982941 411.76610462503555,880.0084425893745 412.85191816220225,878.5608760231273 416.2041092816341,878.9428956572015 419.5232915620062,876.3179203764911 418.84429864218737,875.3938148819071 419.2195159387504,873.9746348760773 421.1400717165028,873.2734544669121 421.2438814180223,872.3304221361848 418.5195888280234,872.696048042615 417.3709253837038,871.791017909117 419.8547169619698,870.6882953705862 419.98909557227165,867.9069734846885 422.210861705568,865.7497759737581 423.56825772187295,866.635509835706 424.32854170769343,864.4884644780143 429.4518901680802,863.8591727265331 427.5285703942805,859.904738238657 428.6120688455062,858.0098565814261 429.6967385383108,857.5983647366457 430.9805240903689,858.1663727838281 432.20264019966277,859.8072840518564 432.5077112623172,862.0459633232842 433.36518934569557,863.8367650121733 434.40946947098615,864.4423226954735 437.7155891975804,862.9080189285171 439.4812942089893,864.5853410484215 441.22340319849917,864.1349387285625 441.8574712748413,862.4264062415443 444.7321003388455,858.914027836195 444.65350967999325,855.3969708289841 446.08078122535704,854.2941288517925 452.1112692442256,854.9736241215328 453.52924843812497,854.5793077885473 453.91183102186324,852.927695173212 452.9782100440733,850.1685945068451 453.7860577431934,847.3042113376931 456.99640296739557,846.5330594300876 459.68236782209283,844.569233482549 460.6389614740878,843.4479540997454 461.5812901176324,840.6302937611692 467.09448072653646,839.9924554873542 468.7485140493016,838.6364931625469 468.7636421985135,836.4461922486007 466.0115663053772,836.2668536829841 463.78987998595727,835.5636552622625 462.9069158103062,832.4717935743316 465.2856534863769,829.2975050555024 465.03197827213825,827.8634240186218 462.5814391813353,827.0027136493128 460.0645748466352,828.9370484371021 458.0738581026784,828.7084710558106 457.8112752058735,827.7027037369471 458.20209309089887,820.4264424196026 458.8450030216334,819.1956143095862 460.55249878466566,818.8657281420814 464.9278234873716,819.321317923919 467.0001918141908,819.2044285308639 469.5372574977328,817.5586092499499 470.1340275926723,814.8935970910127 471.1092514353083,813.5126712326676 470.6157648005181,812.0148687841504 467.8578690287438,812.5436754752352 465.08652022511234,811.8245433187792 464.4704675092761,811.0904902719234 465.04866656359854,809.0592972323934 466.2955093203602,808.1161084525555 468.67868047904034,807.7933733297443 473.66541951864116,804.223958511227 473.9297452862543,802.0733085984119 472.034657076314,801.7434035894423 468.24881952905935,802.6936283819721 464.37536274834275,801.9495821285003 463.8912153091665,799.670554714452 465.3239822284129,798.2989495178402 467.4456219582057,797.9121936132121 470.6637924837613,798.9552155858307 473.32870878581735,799.2921789951371 475.8672310228718,799.0523285013378 477.9976182096122,798.106258600301 479.31013627730437,795.1712927530452 478.94126969584846,793.5906523235888 473.4986422366582,789.4484090758973 471.05574433090055,786.1438610761475 471.34307852629445,784.7014285463905 473.35223492250253,781.7572284370499 473.603668612886,778.7625650731263 474.6510912157189,777.8576770569996 477.91800413218493,778.6105503919138 479.3038666893064,779.619598363978 480.72665422066683,779.1132689040746 482.12446376807435,777.2307845156961 482.5119665677024,774.8867047010707 484.73784301011847,775.3442120213622 486.68773283688716,777.0577572689729 488.09174030744117,777.219998515812 490.3277199420168,774.5071607335484 495.3205888567548,775.3623558855188 496.66608328722816,773.7863559251623 496.2470903042656,772.9421028708173 491.93892448913823,768.7568945567746 491.8199350874316,767.48417206118 493.58705381389336,767.5894299428877 494.5497245036615,766.5820217745736 493.1110924802167,765.3513365927153 492.87091140946984,762.2304729822308 493.8563957351386,761.8271924726803 497.0991196994024,762.1122643561356 498.00251359250564,759.3495134587574" /><circle cx="546.00615751402" cy="586.1070921913886" fill="rgb(100%,100%,100%)" r="16" stroke="grey" stroke-width="8" /></svg>