<?xml version="1.0" encoding="utf-8" ?>
<svg baseProfile="full" height="1024" version="1.1" width="1024" xmlns="http://www.w3.org/2000/svg" xmlns:ev="http://www.w3.org/2001/xml-events" xmlns:xlink="http://www.w3.org/1999/xlink"><defs /><polygon fill="black" points="871.3056984202583,992.470931972537 871.8556611256007,992.9724228280124 885.3217460394993,990.6217461164428 900.26796510498,986.6112644170711 916.2227134939435,973.1315327466629 929.0091492611084,959.2996325976513 943.4277350726621,946.4212910610631 956.1602264172001,931.5504521923488 969.9421419853213,916.607647820459 980.8146851055827,905.5021028349333 993.1444945420527,883.8379192027614 998.5335544138085,868.8596873558852 1004.4962224060624,846.0033701690086 1003.0606672250832,830.3921738508387 1000.2438287662573,818.507654715149 994.7905987645997,806.2687590083274 985.0127277658015,791.663760406064 959.8815676202896,765.9176220375094 950.5985800940556,759.6418268241737 947.1528140256925,745.7124734992758 950.058076546386,732.9805452017554 954.9307207568552,718.0422310658271 958.3341462573786,704.7516360138816 961.177236536875,688.5590500134372 963.4138994981664,684.8773599364008 969.391646014089,681.9735772890986 971.4855487310012,679.0750898199658 972.8310414691193,666.1264726327794 975.0348291094502,654.1869140757817 973.6267301954631,650.3966985619056 969.2426044596475,648.6876081347391 968.4758728356596,647.4086340573992 969.8946428079921,642.5828359880411 975.5811137326039,634.3987621252626 985.9083970955667,626.2132403607313 990.4965366123765,623.8275078989661 992.745751804661,624.8967353606151 998.5053397592565,629.2556044376431 1002.6464040035198,630.8522171988716 1004.4502749264369,628.4598502420902 1006.8135029490808,611.2880665572188 1004.2263394234319,599.7980914595047 1004.2226427656551,594.9987756264384 1008.8638447515447,585.4985137552908 1008.3178829262254,578.7616668340656 1004.7753667463056,568.7100732122967 1002.2801585349011,557.314962470799 997.0255269382175,547.2288514204163 999.3178525631187,540.0554405593623 999.6059467344154,527.4649859606589 1001.9044125896351,513.2029788220341 1004.3071139455174,500.48122860163244 1002.9969775482266,487.4768554813545 1000.0910438155781,474.03575731984256 997.0767168401344,467.4059582050879 990.7395509492078,457.8403597854523 982.3339371389744,448.9090448802259 973.1899418840724,436.3588674591547 965.6481343625497,432.6059343435476 958.7951768957462,405.78209143664594 956.09906992473,387.0875945649666 952.2802245999516,366.8960453707573 952.4415449953297,352.21367951638945 955.2281496498962,337.39598126151554 979.8065242746233,301.39519480212743 989.2158708364489,291.9494662880213 994.9658208317078,283.2232963730954 995.7853958434923,270.6048971112011 992.6195620198619,261.3680609089231 985.8416923929566,253.38645984386324 975.4224211430644,245.62254760856945 963.9472155962768,237.9200524194365 947.9426737974871,229.11979075743227 937.7298896149988,237.35532121244216 918.9595949857465,238.96939764753574 892.6836316696073,237.35201638926253 864.4963468013224,203.90687713034845 847.5525053622815,200.69399783494396 827.3358429755903,204.49485557082073 817.0109447606658,207.1953313387827 792.1794125541953,212.8449567329751 749.2558453952925,214.3568534403595 732.6845073964621,209.5934260101469 714.231340133888,199.71527169123283 679.8064139231485,186.64242003962715 666.2653851977703,180.14939176769053 637.0476026958542,166.77446670859752 629.1799140624721,158.36117898316115 630.1538123935159,148.3566425545888 637.6887927367954,142.64348597806634 644.7835408697553,129.11981963768142 640.7208413744506,114.18146705499407 629.6740211347219,105.44469462542429 610.3604101461564,99.31954538299954 598.8745165026445,92.18452315609215 600.7841246472083,97.81852510178749 602.0794309530224,110.30577268882303 601.9580502908624,126.02224567072278 599.8914492298488,143.95706259892938 582.8351368738453,149.20353765980428 567.1661888550657,151.2287417243034 552.1093161740405,154.78509105479782 534.9213483898633,166.33404125780658 517.0512218874032,175.28208896703234 499.9938497843605,188.88773602486117 485.58272903107195,202.86698918900163 463.02824473467166,212.07634242378424 446.05415823652663,191.62829158945226 437.3783939703388,177.99980826428293 426.6814521990698,166.06797087680536 419.96510719810345,150.22443250521667 405.57188989754667,128.56469804894436 385.7430445467298,104.05829548809334 373.2829960314419,105.82200786113788 355.26878419734123,111.04978115119059 324.85384583378874,118.53723555975716 309.317488216275,130.43130199686027 293.3113177397409,133.95250242905388 257.626527476708,140.687812533218 236.4420371564622,145.03948320660209 221.74169135886146,144.31172139156638 206.22375531955493,138.91297739480035 168.97135412289697,120.65536675170381 155.27858253677417,110.98961957269455 144.78810564500816,102.17036387109704 134.07290355297087,89.72196767057153 108.75150232292356,61.39272937009571 95.63934093716291,44.365167639453716 91.3429338845482,34.15797070272754 82.36105939666095,15.853720724648838 76.14466850119888,0.0 74.23325680162205,12.168510729406421 66.76848652686085,27.801980187898607 57.603633338705784,41.4561148702054 50.14747673284948,57.6359466985906 44.402009947793076,66.89175516208354 40.44624304099393,71.32315449205339 25.196553019637864,80.11328478421387 22.896669526353477,94.39827232835319 34.10721646676339,114.6620909342032 44.86639116813069,127.08663249558674 69.91506491814783,150.1572688832057 80.10499612652036,179.3797346436803 82.8724459476774,199.10938025729286 87.26328838825414,219.78751532668105 83.25812219613913,232.0716812671294 75.50399457275155,243.0190611509961 68.03231368791899,249.76782020262044 50.75204162503029,268.61967642453953 45.18314496401423,281.0161656110837 45.26736555358689,299.85382197753506 51.14043224163405,318.867222415342 63.30163101412996,345.8735173894795 62.14609432047445,361.65427077901836 57.80547904274381,377.10107559073083 51.513267279178365,385.86195058062106 28.66104366154741,399.8497324659262 14.886191164145144,406.98687162835756 5.8581135627120755,423.25436958487774 2.0771174462527235,439.19462112044437 2.2305195748128748,459.08731015939463 0.0,483.31332001265605 3.111438107938933,496.45169113950556 25.393996134222856,511.56162532404016 37.82308008817964,517.0839253550641 47.48164120428399,520.1585608756297 71.87076210333986,523.3701441109642 101.74541027705602,522.0780602072235 126.52206347700425,523.7189224145109 143.42495708888222,525.3388886371588 163.2816597211252,533.4093472226388 171.5504336484902,547.3877634700088 178.77603799611975,550.9702811950303 181.98604802481017,553.6182145096409 183.61794317484242,553.3735486968272 185.31347324808652,556.0991209889601 189.31852817763527,560.6217596784244 189.14626581155758,562.852185911371 190.47317498014598,568.3972343244891 199.67461043956206,577.8286836151565 200.93731972176522,584.9242043404354 218.64224167890399,583.8728263257062 242.87547161441216,614.5401169144695 247.00166061662816,624.6554499380558 253.82400073921988,625.3097548794176 268.31015447131324,635.5568583731996 274.9439648996514,648.6224384523576 279.68803450981744,666.6834257590999 283.285809856074,683.2296220050855 288.81951298311543,705.4149121227683 305.39487552960503,729.0874086113292 318.48475517519535,738.2960927811023 339.97385181181886,747.5398967510694 358.1939567414776,737.0794271632298 374.56156766945196,730.8976574073121 388.37417482251925,733.770770956865 401.4330032714563,741.913541387157 418.7588218361249,751.3591924153266 434.9252615394294,758.7925724405226 445.9176145618212,767.0289521464001 450.31095912156553,778.813740503013 449.41164188511135,790.3846099512273 439.777628383411,821.8403805964211 424.6753548214343,832.6848412519303 408.79523308544555,838.8521927798149 394.5133991970692,845.4397357360774 389.3387845853786,855.1563808273634 396.760983323002,874.0947452805734 412.1853093046372,886.2856166574343 430.43338151642956,893.5909881793145 452.4918631619205,902.7452400531026 468.4120753651811,902.3485435832225 473.7054272174034,895.8182700425587 476.94606573421805,882.4544996128034 480.17943980860576,877.7401858461438 489.36031106781854,890.396721929381 500.4651696792448,897.2339285519893 520.3363727169292,895.48964199076 534.0503244365048,896.2253597701832 540.1501524743185,896.0187606596683 545.0254658548744,896.8414244266254 545.4713031858037,900.2262398589593 550.2490465169233,901.3685823511217 550.3875235300952,913.2795756194299 552.4412466478645,925.6747912395488 552.6659649438491,930.5338037229735 555.2170671220957,943.4203753157873 561.4401271428344,976.2030476441122 560.6698953608861,978.8459256265402 544.6371317081107,983.1042433597368 550.6669634600987,997.7938801062373 571.12850877015,1005.4261249708093 595.9126798974327,1006.4924267065895 619.9851835029465,1012.8471662337013 647.3775408262036,1022.1409067155917 668.0057623806703,1024.0 692.6074651582292,1021.9538354199225 706.1719053101111,1020.0810272594949 721.1468543991766,1007.1302398956018 739.517149830296,998.1599652337997 745.3701312628577,990.4705307291915 753.9140335405322,984.2031016096446 771.7645595902704,984.1772821338036 783.996767926922,987.1194805438117 809.4622872468826,992.4256284059771 832.852736309411,980.0581561767651 862.3278012502784,982.5241479373453 868.2882373315067,985.852828168308 871.3056984202583,992.470931972537" /><circle cx="598.5447044713485" cy="666.0862614191838" fill="rgb(100%,100%,100%)" r="16" stroke="grey" stroke-width="8" /></svg>