<?xml version="1.0" encoding="utf-8" ?>
<svg baseProfile="full" height="1024" version="1.1" width="1024" xmlns="http://www.w3.org/2000/svg" xmlns:ev="http://www.w3.org/2001/xml-events" xmlns:xlink="http://www.w3.org/1999/xlink"><defs /><polygon fill="black" points="11.52771635752623,647.87713121986 19.597657623904528,651.4203774912836 35.251665771103205,669.1616047294972 46.29183267244223,680.3757038279276 57.83362313826901,688.4787913511708 68.49723829555903,694.3647201463782 80.51175585543324,698.9061930858728 90.28551592500473,705.6655679188016 97.75379171069474,715.0717305513353 103.05058327298502,721.3345460255143 117.66267884249658,733.9209664844038 124.3027552561883,740.6502596609548 129.54043183772558,750.0383252993596 134.79081723245935,760.3202012138104 137.82569600324072,767.0326487783707 139.62121487928945,774.5327574662598 141.15982281651281,779.4266972199824 144.30712443836998,783.8818160882829 146.71737451473174,790.0125887397625 149.79359291106215,795.431408116731 153.53388921403285,795.3039181230477 154.42669545252693,798.4857259860232 151.69129806688497,800.3832999827773 150.6265862519355,803.1567073016863 151.29477308087843,808.5492539239763 153.42678765223818,809.5412728327708 156.78801680034323,809.0725807900276 161.15390050876277,805.4600233366416 159.79054308373725,804.5938045156495 160.99848492869864,801.537170022496 164.49392725855918,803.6085916587093 166.38921132345877,802.3337030521966 166.45863208942353,797.291853716579 170.63732219104534,792.4148407725557 172.80960834777767,792.0938254576572 175.75292778343498,796.7036869671974 178.30518262981408,797.8716966788929 182.7949350520979,797.0800855036549 183.6029679908221,794.2678637330553 180.27982838952462,791.8941694390287 176.71141135587828,787.3040829517829 178.3504910228371,786.417043615562 184.1948478331686,789.7415368475922 187.10543569011054,790.403118967873 189.6357639226232,789.0966277774704 193.4969612853188,785.7182947229735 196.7151288605229,786.6995187190232 204.44654134107833,791.9575577348251 206.18882117430326,792.3074128436427 210.74774821240626,790.6017916387123 216.7940524744006,791.1715990483801 218.09600929180476,791.9385829316185 219.36537644855613,804.3657632688022 222.91668505873344,811.83670258313 225.0498275612595,813.820819518165 227.5315890006014,813.721991691815 232.8576568338331,809.7367800102465 238.112988364252,807.2407601804462 239.4662031268372,807.8039531679128 241.9932973162497,815.0814791294897 243.1831773425392,816.3370630542546 245.93027038874993,816.8893462526366 250.12211937030722,815.1133470567897 256.2707274576717,814.5436044882919 261.83905984111766,818.1977076235726 265.09794014920755,817.9813484723969 267.1760329789155,815.4778576524825 270.5869176317182,813.5373504832545 272.8518824648058,813.5933123123733 277.0693475399713,817.2192347705055 283.63637773732404,824.8431384138264 283.91483850759454,826.5182844249625 282.0322723600392,829.7023889906744 281.5441576449097,833.4590416434628 284.3856045532058,835.7152295994883 282.957503390132,842.3447514533112 280.16892492631735,841.754227181174 277.88746450838556,845.9897176234289 282.5623977335809,846.8517607271004 282.1889545804446,852.506725920517 284.609551218787,853.9450168656854 287.76407325122375,851.4498967490648 289.25583798336135,846.9417160760795 292.5897996763797,839.9106369920406 294.98536149601165,837.2610856533588 299.9674336874488,836.3887846516 302.3523330265659,833.494822846452 301.0791950797889,831.5299458354572 298.7729698870614,831.4258646082938 298.9236844006342,828.7011769743303 300.0899545190022,826.7820483410247 306.3850575558009,819.7086175734416 312.3926576904917,821.2490862368568 311.22838183158456,815.9953226195074 314.5372067139353,814.7561723776691 317.1217730954391,816.3684090360313 317.90836626290536,822.7608830418352 318.6385670057273,824.8523584647046 317.8133506557601,828.9701937970838 317.80880742652283,833.7114480913175 316.2013481048994,835.1425375262472 305.6313284129477,841.7267103364435 305.55213072268555,844.1778975434967 307.8794431676438,844.6619532233133 313.4494655396891,839.5845459107063 316.0420533984552,839.0753446466641 318.69744288584803,839.6558422917537 319.75649633586977,840.9887025289773 319.07151003914305,843.8517315626227 316.84845238174535,844.8472574067828 316.8724757598873,847.7869933679335 318.9860138017102,849.4385516301595 327.046926331748,851.4240418971274 328.10842478435063,855.9777967274198 326.96318851141075,858.2480436101699 326.6811424773698,862.2391809550115 328.58990235673457,863.9005896727782 333.38684781086914,863.4853475258689 334.2460436395964,862.0143653556753 334.6710518761513,857.7127675927572 338.69118556824185,851.2831261108897 343.05691526427086,849.2916794761087 348.16480072499485,851.6893941393364 351.1102539440073,854.3129509855258 355.4532770921997,859.3875663483249 360.8510542510146,863.5278640064881 369.69528764480293,867.7483467071415 372.9614834917196,872.0271602664998 372.98451257038386,873.7413419629925 369.7852412288366,880.228633877295 366.438353242956,891.1373575864011 366.0961632042765,895.5785142095228 369.52247348578817,896.9057534047201 373.5290715776163,895.4106099057418 377.5034816576347,899.8550658813615 376.971350587729,900.5365038642578 371.6097338908089,900.9729880470284 369.4173616883786,902.1745872672145 368.8672659959822,904.6284158379738 369.72202699109687,907.2062458298125 375.7658615320027,910.3620500243433 384.6539224020003,916.0070941975306 385.1712274042501,919.023622897758 387.57808720289296,923.8600436492992 391.6467290607345,927.9046089241886 397.6179843284767,929.9584414512832 401.0424522452846,929.6523894401311 405.24710545032195,923.5876667458369 403.36597775523757,920.7285361296842 403.56559042647353,917.3599034970417 407.1016842775873,916.4776379630421 411.0322793935611,918.5441095641369 415.0239993733066,919.3072916339324 417.78692219852184,922.0484764496525 418.48334685438414,927.5971533115124 422.17957592161827,930.3366935576319 428.53630249428755,929.7614086679125 430.38446552459,925.2690350030716 435.79301591771446,921.140712204325 443.7446821223706,918.1750024284765 447.02504715668164,917.7113653539737 454.20552651612627,913.7460531661613 457.10579195129645,912.9513677260239 460.4713189707789,913.2959812062421 461.1780958737298,918.2996016619983 462.46620173280263,921.6363718719667 466.2014938434401,923.1087739144461 468.24176204681055,922.9593892968969 471.54035329393,921.3163143762133 476.49577524450524,917.5290794697875 479.02039162189055,918.6255054291644 480.9059418439963,923.1690654636237 484.8782425754404,929.3625011458953 485.9620932030368,932.8856956477099 489.04076023406714,939.0343175994593 487.76789226061754,948.4922355139277 486.07916559237844,955.2342262363738 486.2896284949061,957.8729879197778 491.5911711339849,967.5152771682461 495.64980308932456,971.0807639301104 497.8362723144217,971.9624135415098 501.2909304836136,971.107777963159 509.76428143086,971.0025448138468 512.7376018025561,970.5094275260471 516.3002528872945,967.4727548871339 522.4440244847497,958.2735244039628 524.5850107710104,957.1498997920899 526.6884807701854,957.6125664713555 530.4534429599879,961.8993863181529 534.4880177224486,963.6432922202525 538.4997016253649,964.314817056079 540.1187206229943,963.678949068073 543.5252387154707,955.4316322688352 543.1804133765015,948.2168153277482 550.9606130779504,937.9250416988137 556.409925888085,934.5613137386016 561.1746686232561,933.0218929500539 566.3611403904823,932.0456359554574 572.2989946072792,928.0481253935436 580.289678885955,924.2586447749327 584.7702958027638,919.9929031686636 590.0282410843301,906.9522818379122 595.0636900874795,895.3722723966868 596.8116633171263,893.3335895838002 609.27662878196,891.8312403449402 618.3040757245853,889.9378924883845 628.0521671682867,884.8095683390135 629.5329500730651,882.6918201298412 631.7042518043717,874.4404796086895 636.112484164583,867.030352074273 640.0578641720203,866.532659336558 641.9865398960073,867.0430972283483 645.0057983342522,871.9892423108142 648.9780430122339,873.7116660143863 650.7158114459794,871.9440226943482 651.7358199994457,866.5288635734732 653.4853415520963,865.3177069751591 668.8318229558473,864.8447804928137 673.7257706564742,866.2324203045915 678.4913266375436,869.235667637747 685.5542868040934,875.9415651069729 699.8355014592486,878.8475784713503 705.3121262313016,879.5112903537807 708.2324968774766,879.0445468134524 711.8050792863635,874.0690381337275 713.0773641583572,867.347683583727 717.3882370132097,865.7769042695544 726.4188654116292,868.7170040668236 728.9792004672239,867.9292094484645 730.3053984036435,865.9198030555174 732.5990805819122,858.7877790132561 733.3516861652522,853.7919088950048 734.7840095262159,849.78669147969 736.3269568510391,847.7648999122454 739.7659348144789,846.1867817773418 746.3356170977365,845.9421267912865 751.0055769996709,844.6797048202774 760.5455024470813,846.2843579629184 760.5817629060032,844.8821932282401 762.9685208486436,841.3990598160151 761.180798434906,837.1311176084605 758.1416015698593,836.0903347475715 757.2895559864648,829.6123906655373 759.2005096514213,824.3778568410896 759.605737279844,819.9395894401753 755.6531306819192,815.3977135270138 756.2941837095929,814.0226021407464 760.4825003303486,809.4746128907344 764.6000614090095,805.7722682021542 763.6278278912522,803.1576454772835 760.6911650393997,801.4824359194567 755.510869727932,794.4062855334472 753.8078991060457,793.8573870448197 750.8727692499699,795.6473953492883 747.7919272346193,793.6932367422755 745.0546585174551,790.2563415313654 742.927316068492,785.3009388716196 742.7556046542749,779.842635670021 745.6229643075798,776.2029595417998 743.6550359220661,769.8372275201306 743.5235285832446,767.2488167476222 746.4608813114386,760.0581955426153 749.180398803182,758.27865377855 758.6202986615131,759.2786477405521 761.5034761608867,759.9689444759481 763.795999646616,762.218400095278 769.8774940208972,766.8110031640342 775.1147169254119,767.1904963859527 793.9178088129282,761.1905880771211 799.738518383689,758.5809739806101 808.2335238457129,755.5736756123051 815.8766403215631,749.893009690742 821.3254444462856,741.0572754320826 829.3943989672495,736.7183925622801 841.4398445655019,733.3260148929363 849.0094767954215,732.996618450249 860.9914084025962,734.0480338592422 870.7283423109432,737.7565769760239 878.27433312472,738.7487413044793 885.3545924754266,741.5324056377542 892.8133993701717,749.2069879207079 906.5044448241074,756.9740954735117 913.5970031381976,757.5285539317053 927.3916636573682,755.5045614459818 934.052023288254,755.6140986494198 938.8702637436012,761.0312328127463 940.6864336543247,764.0312404156754 943.7643116286946,764.5532908728259 946.6191667251525,763.6450941273473 948.8070694518417,764.900051921921 947.4218347540037,766.8239344260858 951.3173838078408,769.6190181571135 953.4479589857369,774.1728261328469 958.8138691265211,780.417116975528 957.6212454591475,784.2174119102497 958.2844091758191,785.8977833044576 962.4586491325233,789.0327502460658 962.7039980618241,793.5753174333672 959.9245942158221,795.4161767721149 957.0716810614925,799.2159482499626 961.1153588268992,800.5596554320974 963.6814112704178,796.7921123900692 966.5782467274703,793.6940565654625 969.2866564700364,793.9749484337108 972.6060855450304,796.081804459923 976.2536297603539,793.6027783060915 978.7759293435935,793.8940676393659 980.5240048956393,795.2185250437362 983.6689649246034,794.9523472037663 987.6675778823507,790.8173619339514 990.677735470457,789.839977599891 997.6839129482946,793.6130025974687 1003.1898769265608,800.9356705026466 1006.6481136806607,801.9223966067827 1010.991290518446,799.2359220315392 1014.5585386577732,792.4165292833463 1013.889864886604,785.2288855639184 1013.0853197797015,782.2539212869266 1010.3936817078044,780.7789589389116 1004.6201628600435,779.8514191767433 1003.7562869401595,779.174704053573 1003.7591489476007,773.0932000487902 1005.2025374302442,768.3179568983752 1004.4011435970966,765.6163783414863 1001.3746851776954,764.8041212304847 1001.097843694814,758.0412741034409 1002.1144773654245,747.3455146585178 1003.8876746702342,740.7982171343125 1003.4646175912263,737.910665875394 1001.1104628296315,736.1606050327501 1000.5696556815108,729.9167325927034 1002.0062417814828,721.4763243487126 1004.3401653817018,712.1649288729715 1009.5542431258256,685.5477904126981 1014.2097450792081,668.7011340196904 1019.7395520499668,653.2116167541992 1023.9513445263414,636.3589802616168 1024.0,631.4582012074674 1022.7358189537828,626.0962194943249 1019.2414991598263,621.1538568693727 1014.3713319146739,619.7570207498891 1008.5697658880267,621.0076091155306 997.0334337568798,619.4956219176719 990.420838248614,615.4028167397199 986.9484292425306,608.671802804733 984.8214867583669,600.1835058224418 980.9027669355127,593.900433536917 972.9001519490932,594.6653657289463 959.5678085798352,594.462445715117 954.2832831060339,591.704629353494 951.6819613832187,586.7766293588854 952.9724514629846,579.8497618307906 949.9665762973643,578.3754012686711 947.9063868543346,573.0571504556783 949.9989722118409,569.3246817817205 948.464629550876,562.4992768131962 946.8598556827675,560.6677911845005 938.0614246501162,554.980912186336 931.8588056888015,552.6453364772217 926.0022008225616,549.8019625226577 927.1099782611316,545.5114937675626 926.306901274106,539.5477478088137 925.2038091377411,537.6654923454059 916.1284931645962,536.3635376406849 915.918698579751,532.6894942795475 912.1043482136636,521.1414989287812 913.3836715961905,516.2375751074771 915.9573720975241,512.5325296259911 913.1047853673396,508.24116952415045 907.0265168421422,500.9087654926703 904.992751440454,499.0612727618701 895.0333171837968,496.2940115115051 883.1928338049236,503.66845342355947 878.2839648274621,504.43665349051065 873.7870031507165,500.7039961863227 871.4209358810318,497.98287806804694 866.8111836663512,494.1225224457334 862.3481374983651,491.09925370880217 857.6560375101706,487.02763423167715 853.801222699686,485.09943951700967 852.4472701540491,481.5965374590354 854.6877834881298,478.87677165407223 857.6511014653333,477.8646058190685 864.3089697319974,477.08034798186696 868.8388351854898,473.7677068838472 876.518138813687,472.1645156858782 881.7780274803791,472.3762094392975 887.4577022816451,475.1905187775971 890.837503867321,473.48579731479737 889.2207060018162,470.909229669097 889.8122720746795,467.92228866189623 891.8685322040374,465.3405306715695 892.6034791838199,462.4034182789388 897.8234986204801,460.01039984818885 901.5383728861067,460.2589146416305 904.0720317381897,461.8600317758566 905.8683422811968,460.8034711654456 911.1395264556361,451.4847159754162 912.213880341393,451.51903313286573 917.3626023554236,454.61590691681226 918.8745625893001,454.0937209510404 921.038027926232,447.52791305925666 911.1681284301453,441.13851930542876 910.8252249627484,437.3990647791338 914.7769491800491,428.3183779895611 915.3225114007116,424.2377774992125 912.6658252197055,422.48023428436113 909.5549502290727,417.2570968501349 907.2370012152475,415.75212359893806 903.6334528072449,415.01844659875644 901.1175780398047,417.60223563803413 899.1332147438526,417.61038123540686 897.0436120791662,414.395844857926 899.4832977357169,408.1975878420644 897.8571106826234,403.2319199055852 893.344408595414,398.1112367605739 893.3058194018122,396.17016673825583 895.9145099713521,393.39991712493656 900.1677892319834,390.5666441147133 902.5009325434089,390.87703022830965 904.9029880854316,388.0609677160262 904.1905372308726,383.94485480617595 906.8874858270154,383.21616557261655 915.2013769286413,383.036115054627 916.4788707463915,377.94011993559684 918.8085822679765,375.02722082586695 915.706516727951,371.7783354271195 911.6050019077688,369.1619012313146 911.2261411619551,366.5900344012106 914.5542382007466,360.3432479751649 920.2221713711443,358.162967638273 921.595309800513,356.4195704980584 919.8983599892529,354.1150752477039 915.548010006816,351.0168851319155 915.9421704676648,347.47019587155535 917.833115324876,344.85972444866866 922.6541810143236,340.799857730624 927.3363483542528,338.1871804360417 930.334703387916,333.97001405614424 943.7422526068216,327.19466084547764 950.9007612309798,322.85245611527796 954.0567697391027,319.7803616535249 958.1046229126366,314.94727506102606 949.8113805700771,302.80861944838705 944.1038188463725,297.37815322066353 942.0461591972918,294.34816003059643 933.9863488288361,293.7234856309269 929.4709450006156,289.62562499638284 927.9619676316163,283.3428672113895 929.0719864161282,275.16394223259385 927.5040787105685,271.82142539299343 923.828413978789,267.9545248211491 925.0261850378764,265.9888023091996 930.3407561694297,263.49162229403544 932.9071885037235,261.3260715255308 934.8554912485704,258.03639789614806 936.5532994227698,248.79989530383182 944.929890869144,242.76537709884428 949.6885597836801,237.20207216385847 950.0316604082108,233.86300035827946 948.5430236576113,227.61906363723756 946.3080036700678,223.61052535365025 941.982704319847,222.99902262276032 934.5165191040493,231.4459270827964 929.5308062473025,229.37086242122973 924.0350418030571,225.07537973961996 913.8037302068169,217.6851034708443 910.8466980695946,214.32112048572662 906.5961991385944,207.04117188202747 903.9961477786808,200.98771021399034 903.2554651490846,197.31188897408833 901.3053319448056,192.7121292751026 900.7987655388815,188.80455168526532 902.1862454639373,183.3648416631653 900.3562149245917,178.12265826067005 896.5180313067381,173.94758745547836 893.9170707982543,167.91338931974485 896.8138912013327,166.38883208606376 902.2538270851576,165.1252313275296 905.6048779492538,162.71433270851594 915.2954779086774,156.83452510985353 918.1139201191362,153.75658032306524 920.6118541475403,147.78065188333312 921.1157580509165,141.33606358108136 919.8436154416235,135.20152295486798 918.8730271956315,132.73297634237406 919.8526464615346,122.84405757086677 919.6760252326002,119.722477169993 917.9569598539659,114.13282076187113 914.7999983162815,111.86740200210079 906.3267336542218,110.3203557903488 901.9905433356197,108.92264620064896 892.6384923988678,110.11505744774377 888.1823211880042,111.832105661137 882.8338328053933,112.63924071042243 861.8519874004156,119.90045516007467 852.5381610260982,117.53992841397894 846.3398535744134,115.67312511268324 840.1008083626565,116.02681079028264 833.8736893963003,116.83599660610707 827.6123278156163,119.41183660653257 824.0167331970957,122.47978093066479 822.6067254426903,127.80073292296743 824.2967640500508,134.50637511911793 824.2196470390252,141.17984961812544 822.3255924163378,150.94557213694998 817.3377838786615,158.44408988537975 812.389187838193,162.82779690850407 807.0391321991398,163.65227624698548 801.2619688618609,162.68430413687372 794.6102042806758,159.48717388707541 790.1732879301172,158.55284021034868 783.0754627477305,156.2296147344091 769.762845823119,150.29164790240145 764.9099171540402,147.1163679781523 751.626078916857,140.28502877097162 743.7305515783007,128.18708747969424 737.1841482003479,116.09406286538615 733.7229608350723,107.15367492310293 730.2370605689088,100.44351054962772 728.5475674026021,92.85665951835426 727.7943252662019,81.12436372638729 727.1120676957324,75.46380810830556 723.995793233781,71.76019229424298 717.1012127025317,67.9329787231568 713.5124494132286,63.26106697353805 710.4246390990573,61.94250369728866 707.4742068927371,59.39199498006769 703.1095065961379,61.09299422221375 700.9348430694163,61.14831651456768 694.9881663802123,59.80938220646317 691.9076765456133,60.798289772826706 688.0996217532872,60.94578923854806 676.1952755534292,58.480340394335144 672.1041729651583,56.155772965807614 670.8117537515343,54.17185093547005 671.9961035862458,50.755125650345235 678.217128853857,45.054218004632276 678.7495106452461,42.17273086897535 677.3857710206986,40.22979111277709 672.3553998387507,37.78201249786309 668.965831117133,37.75336014369668 665.355080985183,38.87919458696024 659.1683093147519,39.48891972067247 657.7574720360186,38.82399025973234 657.6010730635579,34.21859076368639 660.0762075025538,28.81036052834463 661.0644006754442,24.639878151506878 660.3540963433179,19.155657007257787 657.6230782013471,17.311623666630908 653.1789605703113,16.0931142806744 649.7546641523901,14.512793020340496 643.9087533300773,8.529355657572864 636.9578073749863,2.0931332927924586 633.9205321717682,0.07510526344583468 629.5720002857444,0.0 625.516650879296,2.590540231031696 620.6863776712772,9.253730454372999 616.4893795334558,13.044901301270215 610.5664204489467,12.17853977652976 609.1686722970863,12.453798314376172 604.1964331569488,15.928739245474276 599.0878911410298,21.981247313478775 591.0104863122806,29.534597227043264 582.5424242809407,35.59728404892269 569.9464864410347,41.23356415816977 556.5804505223965,44.64847138331254 552.9307573631767,46.868061512535746 537.5871524171461,61.43929734234223 535.8771543983879,63.751018294097776 534.8826831498367,70.84142363103138 532.8696984480508,74.65676451857041 525.0359405129935,83.62442906851891 519.2847561367173,87.2638023987513 511.29582346945824,90.38431310516091 497.1580798345736,93.86863551954411 490.8734065046277,96.71320584868522 480.6380822605161,105.40483284396919 464.07413591897904,122.42981732330895 458.86768254636854,128.98690759901228 451.0617646810718,139.35169207483602 448.5029375989098,142.003609947649 443.54035775755784,142.895216027699 441.28115991338535,141.92004856969595 437.6157427273209,131.55746446319142 431.23708152843864,118.19380400805676 427.87051705813127,103.0501799609467 426.4556699150655,88.35102194790909 425.60372762619096,85.87024805573321 416.1150873028784,78.70171120828411 415.2730603191168,75.94937659798916 415.67617235755296,72.83614295118934 415.5475015279475,63.285406461240996 410.1446455755994,63.38185142965381 408.57494311468156,64.99409331069626 404.2483119343613,72.74872532505674 398.6542616933673,79.96232517549663 395.66569588947397,82.03249570137802 391.562862222883,83.37716850705897 386.74785986725067,87.52512786990474 386.44658161250123,90.76418985665998 387.22665310538434,93.29566027337637 390.32122313981876,98.88558694402752 389.9276429996772,101.85329952257507 385.67151269250735,111.04438649841711 385.60509553664326,114.29470986963202 386.4770090039141,116.72713296404186 389.33543264821884,121.3206512444209 389.33970439499706,124.02592704156166 385.39114359194116,127.72837135519762 384.0573361139234,130.42603092396325 383.7465751372962,134.21002662046487 382.3224505819458,137.99380295803792 373.20703427505606,155.56577970081753 367.9164003702472,163.0533727470961 363.1048769724599,164.21425308669984 351.0183659694554,163.12599498445763 347.38717174392445,159.69656291853994 342.64277034350994,156.3558318406773 337.8376894628813,154.64598872871238 333.73134324708985,154.7289411603648 326.0729961343937,157.0658679722635 322.35455606611777,156.97356339187957 318.32631373650463,155.53378227968483 299.0514921208529,147.41735709919647 293.828995381884,146.42445721637876 289.7129878236178,146.8749784040034 287.02990404696783,150.03109917861138 288.14673467325383,162.73787560959545 288.150605680652,166.3468322826442 287.29711460193744,170.6742311174196 282.71828997044605,178.42058465921423 277.43261140716515,184.64523326441997 276.08621352416327,186.80886989089015 276.6340954691166,193.1147707477021 279.1050977152961,201.5926046953614 278.7102187121861,205.1069356232665 277.4459827001356,207.80572680316368 274.056490963924,210.60361116429704 270.65382693977693,212.2262641198239 266.6175532483974,212.04596757783872 262.9804749912763,212.59243160322637 258.3183419195262,220.70867033214165 254.28540469157744,224.4008020723477 249.46251691138062,226.66626001244083 245.4262064668381,226.7570309525512 243.2081404186374,226.04140062521003 240.0895188070683,223.72467786881487 239.218830844727,221.17334928987088 236.81521643819534,218.37117007019094 231.3256930600847,215.4434271466887 227.0114432842807,212.57475295467725 218.60266533147902,201.68437792527004 213.95891792352697,194.50858259924598 212.80195945094138,191.0167985105329 210.61361306587844,188.1947585477849 209.4489912612399,188.32160468250208 207.030097517828,192.02914461881994 206.39855559160142,194.90159683907723 203.0914854589565,202.56962447569128 196.1660434754336,205.83386851724447 192.19339404892716,209.22219349823501 200.78227785740881,218.54276121326768 201.8671076522762,221.18138452699168 205.34565806528758,225.10803877809667 205.1531633121015,227.6311254564829 201.9237013465108,229.75863679380757 197.29582308372707,231.79969904486518 194.13682776074864,229.57925162170568 186.80753617401908,225.3714915590126 184.82529034637082,225.67318707392997 180.02216566580654,228.1910032070938 177.82653692915295,230.88965042280017 179.84267145884536,236.55506335056327 177.80147716893742,241.63113937548758 171.05830022349616,245.04179006189815 168.4421132316797,245.12061780909914 162.08436636993702,242.55209641877002 159.4067291787733,242.25268120000555 155.9726959603387,245.68852564956 153.06395756310135,255.40530606650066 151.58344483916173,259.0167560433524 149.2973581139116,267.6453140939277 149.66763302264476,273.7595939227575 151.02977052258882,280.8159579738224 152.26796681314207,284.377853387948 152.59748649197704,290.5231639519817 153.7980956981724,302.1018594875726 155.4787895746895,312.3636028922481 157.51156368407945,328.8384728968182 156.51105074560195,336.40188611235465 152.8334672848264,344.3736049619624 146.49641722618483,350.55245241792227 134.7921603191012,361.5285152438904 132.33765682824784,366.0650980647423 129.2212473715015,374.88363986572017 130.0310042232824,381.5640350678673 137.95181378818543,393.2066689099887 139.6514343892587,399.0043836114389 138.6219237996329,409.66848514990613 134.55305361055414,415.8170846390086 124.16118063452971,422.9019982805487 115.65119725482232,424.1663989716932 108.4689927145797,424.55562599272014 101.73865628536086,425.8288157459425 97.22827623474474,430.25081338351106 96.15574371117171,443.58691047149364 96.91415385126524,455.6041181258614 96.76210085910478,467.621420144525 96.23095401253566,475.1805161986849 94.77905635757683,484.07194188449336 91.48551122945811,496.06237562097715 89.13290488772894,506.73207518507144 86.40944492867175,509.8214216352626 84.1174751212935,514.2526357135775 80.04474121664028,517.7821614112638 75.54204508671022,520.7647546164815 73.7818558169615,518.8507753578996 70.16941395775338,519.1901129524551 70.01587081909994,521.6878016646908 72.94270051359408,522.7078468857479 73.25994617819273,524.001293996048 70.92659584523601,527.9766414347059 68.50112462526151,528.5971430630426 65.72759980272397,531.3875673484408 62.798923285679365,531.3680451369887 61.693383815837464,535.7311832125636 59.12454986761981,535.7698039553486 55.82935304945434,532.5621113116378 58.244810321697535,530.1421840836092 52.7698819154372,527.0118344314235 52.729090150629865,525.594274843013 49.92505040007922,525.2332791994263 48.911768547394594,526.313294279382 50.73314256093007,528.6638161523003 49.36150443796034,531.0159079817897 47.263752713869096,529.0822667895968 44.838199238787354,529.6753353315714 43.1902418151358,531.4921269588108 40.7937240839786,531.5887160583712 43.251225502916874,534.3291847561864 41.62118283958479,541.2305442392703 39.42040904251489,543.144176166483 36.88153002077096,546.7971834505043 34.66035096019717,547.8187283957279 36.727192201039514,551.2980319642165 33.16443856864471,555.8951912274722 28.341534764219492,565.010334616305 28.534697986566947,570.9695215375582 26.711021090067383,578.0840102712875 24.75530676414382,580.3194397391758 25.757968413630433,582.5749584417825 20.086487926872465,583.7700281872117 19.553512416957204,586.2578704973987 21.2326892133315,585.0249835153793 21.457455125087577,586.7644961817671 23.89336352987204,588.7779861520719 21.426071744379474,589.3882140873593 21.06742170819981,590.7494339980428 17.717328861697563,593.771740182185 17.450455234551182,596.3197628982855 13.345174335803355,596.5222034776104 2.5821638915212697,606.3387851324494 2.653079749492815,608.4874310284483 1.3516663669502604,611.8010455439174 0.0,612.4036481154346 4.9839717948603095,618.5312847627048 7.767459864374691,622.8779221974055 11.381278671491458,624.4439827148967 11.94262886676732,630.3470347026297 13.170545873131577,632.9905121218362 12.882096079624555,638.854519844265 13.167477324868722,643.328301333762 11.52771635752623,647.87713121986" /><circle cx="293.8732811784734" cy="491.0751545330195" fill="rgb(100%,100%,100%)" r="16" stroke="grey" stroke-width="8" /></svg>