<?xml version="1.0" encoding="utf-8" ?>
<svg baseProfile="full" height="1024" version="1.1" width="1024" xmlns="http://www.w3.org/2000/svg" xmlns:ev="http://www.w3.org/2001/xml-events" xmlns:xlink="http://www.w3.org/1999/xlink"><defs /><polygon fill="black" points="199.5139777718042,585.3396555475699 198.69562657891856,585.1650294373541 198.58527752445238,584.844325603374 198.02588938828114,584.3260774161715 197.19130307502502,584.5824896693773 196.75495248084513,584.659625937501 195.97459899728705,585.1460484427357 195.72116626562075,585.630714061688 195.80071495261498,586.115090761245 196.39575827895763,586.97553791868 197.33066234402142,587.2471679325091 197.95003655483407,587.1814736494108 199.0240705825676,587.3223678597159 200.05601044524062,587.1817653157188 200.50995108400366,587.1940145575252 200.85489070531307,587.4062377927737 201.6697374847735,587.5955852888394 202.17475653571276,587.4567397044511 202.71943904235755,587.4124557826278 203.05763404413094,587.3901256229303 203.35266342758877,587.2878707133058 203.55217746268298,586.7363641894623 203.33130100870395,586.3588707418703 202.2892380007877,585.5886463796421 201.89231562255608,585.5973466311476 201.3201131012708,585.4954131554549 200.75106042175753,585.7747539018261 199.5139777718042,585.3396555475699" /><polygon fill="black" points="194.42976455275206,584.9656874298828 194.4772005824095,584.5340631335846 194.6777049499299,583.7808976757259 194.60261516760215,583.639136504178 194.35983491353136,583.1246388824563 194.48124347395802,582.4772648816281 194.3510187725843,582.1752375057972 193.38450506150878,582.0049401594329 192.74138829516025,581.3818647027758 192.007441593059,580.9472370675783 191.54050801076647,581.6152164587045 191.5156883179599,582.5101857385871 191.80104639919642,583.3375216771539 191.4734169697912,583.7427682954275 191.3310968260594,584.0513948643718 191.36104971961194,584.3844627379909 192.07795192955868,585.1877889319214 192.83528554508558,585.4570167351762 193.34251129237757,585.2099376642273 193.93378020626702,585.2308549236161 194.42976455275206,584.9656874298828" /><polygon fill="black" points="190.5641402408639,580.1381780777294 190.831507234581,579.5946240796275 191.44787203372636,579.4428221616743 191.7214907156296,579.2345664472604 191.81826462839132,579.0862458409199 191.52597263616647,578.4204414915182 190.89643991686802,578.1343041592684 190.4173129128805,576.3890845051354 189.42350542621676,575.0715119953495 188.977718047856,574.9450951158627 187.51778789820176,574.5630838680222 186.5414929986948,575.3539561215516 186.27415839216295,576.1077487709749 185.9552512814003,576.9111870355671 186.09059408316665,577.773791062516 186.58001705982258,578.6432032199923 187.02357129556722,579.2587872628217 188.5423422055151,579.5828844677187 189.28587915167097,580.0101542668937 190.27176763369062,580.7224520290638 190.5641402408639,580.1381780777294" /><polygon fill="black" points="203.39375139628996,557.8309993594332 203.5449796183841,556.9945247279389 202.63035740860832,556.7353875258664 201.72598633842426,556.6959975268901 201.10108258870514,556.6206477462786 200.516830035318,556.4382854438121 199.74326647235605,556.4681785992361 199.6210936074782,557.6122953176583 199.02874481689642,557.9250358878362 198.6997700008865,557.6777719685454 198.27379744242813,557.283659910903 197.59201123973412,557.6144439450234 197.20147650275194,558.3855254484217 197.13852370455174,559.4425273710198 197.74130257387299,560.335784905367 197.5039266805452,560.6533260259156 197.07237643632274,560.8093371803467 196.10285432269671,560.5529314009998 195.52206072656153,559.7967646686568 195.07239134336132,559.2729658715721 193.26072736415676,558.9761627546047 192.60029770596577,559.1176989810613 192.11326895878383,560.627433957812 191.6954356934936,561.5475514508125 191.42086777991875,562.6484658937155 190.95375323451628,563.5804438176681 190.3932467828513,563.9549338953382 189.72823180568426,564.4448499858663 189.00678418825652,564.6809876684616 188.67898046428485,565.2182312165803 187.888421070279,566.0439887758988 187.35412550972492,566.7351029677318 186.2362505828923,566.8791109857019 185.72943185550457,567.1572750408908 185.77637758994248,567.9447284412328 186.3612614861981,568.4533450662913 186.25208173468098,568.91723326036 185.6913445905418,569.1285563105391 184.77514803648668,569.3038219057419 183.3361228409012,569.1014609535782 182.8514678317766,569.2528017032126 181.99804775580665,569.7533121361612 181.82573189468974,570.4198685728264 182.21869996728643,571.0858028647449 183.26013128050943,571.5297748094525 184.0055879561977,571.5865777909978 184.52646022447644,571.4811033951185 185.12206863357986,572.8478986773937 185.61912355005632,573.3127083281856 187.5953158316142,573.1479839435086 189.2185561959122,572.9260183064889 189.47291697661046,571.3196585663791 189.5665390901779,570.7901482111865 190.21001463835597,570.8853110443802 190.23632425740098,569.9604089974051 190.25175381066632,569.1512930443668 190.7621785460983,567.8649669916107 190.36862728683283,567.4317772003265 190.35918784827814,567.2742851707737 190.9164587780732,566.5186029851216 191.27731487503777,566.268535859559 192.0881137876072,566.0144369173506 193.15980692998434,565.8363976409594 193.914214203458,566.019520236175 194.76327485384863,566.1624735665066 195.37293324267424,565.2170378718861 196.3148064818504,564.7681410310555 197.41606401486072,563.9874614064984 198.2651945919343,564.2779978492341 199.5815946190397,564.4091820186017 200.7802762197326,564.1519779663455 201.52393273618276,564.3480995470122 202.3375622224479,564.4440223993918 203.99775726430684,564.841503125477 204.747329264009,564.8642959073266 206.92736441440178,563.8917149290523 208.34156607575062,563.1138390000783 208.77252409408544,562.6117618918737 209.1416584285856,562.181657037467 209.947858913267,560.0395270266359 210.20441798530032,559.0973861708288 209.98833228215426,558.633659484803 209.17324025179283,558.4778344605124 209.09184902424101,558.462229780005 207.93200174966768,558.3203420812499 207.44578169988006,559.298027320034 206.42302181931635,558.3340108565673 205.04061932281326,558.3049968570998 204.3197577694914,558.3083059677331 203.39375139628996,557.8309993594332" /><polygon fill="black" points="213.1459749079969,554.7415340297576 213.81085290905895,553.82453468195 214.87741914370113,553.5366214817983 215.2768999511036,553.023776867082 215.50191696292148,552.3306367550774 216.3367663496678,551.8102286087892 216.6015737624108,551.7708195492269 217.3647048283664,551.7851774739418 217.9036320126092,551.304681881683 218.18413393320716,550.3759815578322 218.7344328662712,549.0906625983596 218.97041264931946,547.6934462231806 218.76392537306367,547.1485289454671 218.73155112295035,547.0633111496345 218.3058028397765,546.9643680044883 217.42333406394093,547.0620667713035 217.1821308260616,547.3632462760902 216.9164692413314,548.0313972181309 216.63650708215366,548.1681864068437 216.17326380238453,548.4255281882968 215.5563213556963,548.6781570540791 214.75982189952583,549.4637024992105 213.9479957818428,550.4785405287157 213.5116891731696,551.1148437091367 212.87185493476187,551.4320428362105 212.56941231802966,551.5325706046144 211.86815569219254,551.9132011761983 211.28777003130548,552.4382847684606 211.03923682242345,552.7377397054947 210.99481007778698,553.2554716436986 210.9071298127412,553.8251935222379 210.5394849583529,554.531789217815 210.16225809377426,554.7858113282495 209.5553402945972,554.9631034499753 208.87260919114937,554.8044644587908 208.46242248350774,554.6392263675607 208.05453042736832,554.233839944394 207.3219732326618,553.7607250729883 206.780802533316,553.6582853827076 206.55920594679262,554.3367018047271 206.52413051705201,555.143840482488 206.80063389797485,555.5808554613695 207.36622707557743,555.875319311269 207.5951086204129,555.8897094529852 208.35032470752756,556.1351716526526 209.11295674565767,556.3822761071638 209.27983279606673,556.6928417935504 209.55439646526986,556.9740093342912 209.76736364654488,557.4506053621966 209.8618826497325,557.479693163091 210.4893488230505,557.6728052285348 211.23026661253192,557.3868208279807 211.6890579299175,556.654861984633 212.4543003031904,555.5747382471193 213.1459749079969,554.7415340297576" /><polygon fill="black" points="893.1293416249819,0.17555891840129334 889.5306107017664,0.0 887.9015636305743,0.45533145748072457 885.392180377676,0.784643923268618 883.242820818652,0.5841223254092256 881.8513447341769,0.49670289581763427 878.1373942330839,1.1440227297234742 876.2242489862533,1.1399585677553432 874.0680612209178,0.7017526413827682 872.5315229160032,0.5698933420263756 870.3861662499578,0.9524268939188687 869.3932422629476,0.9033403192366904 866.7527081387163,2.3866603428625695 864.7999081102662,2.916027011102983 861.9007431251084,2.1322848240354233 859.5619506082248,1.6829023352105423 857.2138167350623,1.7190956058515212 854.773950827986,2.320147630606016 852.251608020986,3.0005647372977364 847.636275536442,3.0744017148607554 845.2989382033595,2.5441986158759846 844.2923970217072,2.447408614707797 841.4484719244541,3.0275017420632366 840.8330477983479,3.268486435648242 837.2464685632816,4.576149299253757 832.945529970025,5.141705815775026 830.4964034598978,6.228335032676796 826.911364489606,7.4550956514812015 823.1067453857722,7.4634713357692135 820.1145470067604,7.672042960676663 819.2983227463743,7.745732119637182 816.3688945008792,8.010039286740266 815.0287166095493,8.131036053038429 810.6927813072692,9.289418237456516 809.7045128507623,9.879117275471117 808.4660642097136,11.150673026740265 804.8063418338074,12.052206713496957 802.0489866847452,12.323420956396262 800.2444471003255,11.925054507427603 797.5147278036115,13.398566269648654 794.8212527068266,14.56140169058142 790.7507668139638,15.77894549301493 787.436209601732,15.553826278728366 785.8411675714013,14.891348203935195 782.338803722508,14.691995368155858 780.6468349432553,15.320528442951172 777.4103801789577,16.47223588569068 773.7930257657375,17.97599363639972 770.7830552666246,18.604204446702738 768.234861399384,20.692046159108486 765.7858124156029,21.778590433228715 763.353650148079,21.975043930655943 758.4043642054886,21.83940597623723 756.2585504270688,22.526307393602337 754.3394462165668,23.0737788617555 753.2867123812573,24.16295686128842 750.2794374620106,25.866203150631918 747.2825779111363,27.0231931564482 742.7639396977404,28.39408764639279 739.0272600488223,30.14418522838662 735.3697551056547,30.92435841132658 730.9140870275264,32.17505050326122 727.5554148573452,33.20377431138161 725.9586485367031,33.78707207643299 721.5478200348351,34.71927796877321 719.875203954454,34.81788449158989 717.7265227788291,34.92302661676854 713.0341826607041,35.7915641081089 711.8597464845382,36.31012728217661 709.943294114109,37.18644155887898 707.4581610323766,38.59585773707272 704.8337871810443,39.3894734063947 701.8680720232752,40.311677962350814 698.8278556602055,40.93279143506675 697.033308324302,41.59687155232439 694.6403206170721,43.164854227456544 693.1105903976493,43.537549050901134 689.4180644794159,45.925482836068795 687.1323335633225,46.9341935943512 684.3703336036623,47.448190007409266 682.1747947828867,47.972941059638174 680.7089600366321,48.43069840783107 679.9745419401132,48.740480160814286 675.3205997614062,50.837266189627826 672.3906414883699,51.6717985506524 667.8315180419578,53.0419185098707 661.5197647209469,53.53145014822417 659.2102409856943,54.44146163025596 655.7841315441825,55.26589120948552 653.7698903429547,55.75758408308309 651.2417591868783,56.633335117142565 649.395984624828,57.80928021932141 647.8821728092224,59.763277109304 644.9444948274399,61.00240273226916 642.3320159596599,62.16677119428641 639.3225763493186,62.91886062516721 635.012423590804,63.96989555778134 631.6716101413656,65.12043434137956 627.6881982576764,66.0158095537879 623.3109794899236,66.46021257204279 619.4834802691028,67.44155876885054 617.6665671997106,68.56131036007639 615.2180921500989,69.29826412185355 611.7334809261395,69.90450509325785 609.0588082924378,70.06959124128582 607.1296667914688,70.26641951605757 604.3079059659509,71.65604010600009 601.5923054819182,72.6613699672829 598.2414436967227,73.56617404984047 595.5873599237214,74.1766778535465 592.8614234106354,74.95921221258186 589.7011722003134,75.98700637823526 586.1566974529997,77.11435921186035 582.7126434796824,78.54825475244547 577.7789289238833,80.0450301269741 574.9750931705211,80.82526304116823 571.4035174047926,81.86762700904978 568.6891691673818,82.40112438703045 565.5361244660145,83.13166903839999 561.7228647559122,84.40102425157295 559.5184053161403,85.36775699872192 557.2000817428616,86.41816108051114 553.0133368477049,88.60782004091561 550.2551264542595,89.19405117191377 547.273163496325,89.39788692017373 544.4569431530344,90.36405336895075 539.3001461480856,91.80900006441595 536.3853565445638,92.32735910252654 533.8451486347963,93.98707317657795 530.5832949477306,95.18006970103204 527.7129570917632,95.97634609532577 524.4126863096866,97.06600981899942 521.6564240493711,98.64403268635999 518.6236803430713,100.06335476545667 515.5291213861569,101.01208274375381 513.7440618575831,101.73009843918226 513.449817651078,101.96632072331033 510.42918153425865,102.9737153309967 507.10287203869564,103.77411024031676 502.91065429108596,104.98686346756529 500.84208968086625,105.57612821837006 495.70908188517063,107.98636847181672 492.4391359015776,109.41359341506472 488.5811038334988,110.94004797347645 486.7362898641889,111.9117085103137 482.9990576129494,113.32462335587172 478.79181219940784,114.80147340268957 475.04356286856296,115.66110562947301 469.3457763769694,117.13772776712813 465.17090485307943,118.54340834967036 460.7707238702097,120.57329322764474 456.7106964176446,121.69093492325919 453.32179540470725,123.0904337517893 450.1112095375168,124.79886238701295 447.45876753921345,125.94909186652774 445.08941596808836,128.33995066127386 442.9461026170089,129.31097847746776 440.7015795624758,130.27999890669116 438.7642979418324,131.05252429213488 435.6113859582735,131.90304314609762 434.08071228955055,132.58212662799178 431.9373138166923,133.55315187071744 429.6927893446366,134.52217199112476 427.0455975387937,135.3823796482144 425.00534123979224,136.25411468152902 422.8696596272387,136.82054223735884 420.6328520216569,137.38496459190344 419.0049068226425,137.8598708227844 417.382666839547,138.0313054051859 412.8043032212749,138.84933723957135 410.83829232263344,140.469472341705 408.1880697001253,141.93050156912068 405.77515280824326,143.11624146606266 401.29053561165836,144.37128120334978 398.11132127213955,145.07993283631345 394.8190249334693,145.93552574461512 390.9619513097257,147.25769223353814 387.49699402556956,148.51362308177545 384.9371537948942,149.52363041678427 381.85914344282116,150.6020119149273 377.26035189576976,152.47566023932075 373.6231148291106,153.59716100911555 368.7581748275542,155.5348182924821 364.13217408494296,157.5908634912431 360.85254577216995,159.12594289078697 357.7246187870888,161.48300551378316 355.6416976345121,162.66676747833196 353.2742074656156,163.92605795191525 352.68669156059156,164.22182192358173 349.86921724610295,166.94511306093534 347.669394340673,167.69241715663554 343.757596493705,169.0748935027741 339.8480290068347,170.33601316087947 337.0355629512999,171.37517573010985 332.9942536830265,173.1801694242306 330.48178334942855,174.40712751758736 326.70982709130465,174.82090395890714 323.1176178166131,175.35957707494765 321.4120469156623,175.29198909717798 318.87777761951406,176.33215961845463 315.94510946553146,177.370910592119 312.8289930464022,178.74467824436636 309.19593886928277,180.0926993429772 306.7085525627166,180.9726856922656 303.3564579310597,181.12725808902587 297.1376874111047,183.52665638728888 293.549541028128,184.91527742667745 290.9447272741122,185.67511941001578 284.76057470559743,185.3881021448334 282.716969122538,185.80268975742604 281.2147037957416,186.4081224638138 278.3871249962981,187.35593244441122 274.95847074851605,188.4577346450002 271.90117837288943,189.04795902023398 268.5375450322293,189.8291989106716 265.8967276626594,190.69456993625238 261.29679095126164,192.1954595108415 257.43937425406784,194.37760950848042 254.66959565711792,195.29618015673623 252.30141020321742,196.3843296982643 249.4538673508311,197.13947413059458 247.17116686758598,197.98636531804613 244.64574006919378,198.82864560210567 241.8791304017467,199.58541192433313 239.84996212387898,199.87050796225992 238.63470672673503,199.92826974754462 236.54808158686532,199.51317445807 236.4068071972241,198.70231077465542 235.2714579958304,198.99222512622896 233.0514988291631,199.5589636994374 233.5579925514031,201.99711973432227 233.9856728270378,204.05599498803122 229.35914756357843,208.04733929338767 225.95047130160168,211.3317375110201 224.6554439117243,209.78017918645867 224.11454911002465,208.96041030899312 223.3752576522289,207.93445706710708 222.12725854007638,207.0506294802405 219.63512259594663,204.9642092882042 218.80120499231694,204.89329297423114 217.1548819032036,204.51065247041106 217.052542237462,204.67854795732063 217.02804810970875,203.5764793470749 218.29946180509347,196.50798627013643 221.73774192871238,194.63213710024058 220.04233710991133,191.16977559614952 215.88320142042633,193.7749779453594 211.78127997094577,191.13799573460665 210.32172136840458,194.3391640414235 214.32330738238508,196.66960107045634 214.23985674617293,200.75700354467472 214.08250201520184,205.42517275753875 214.0479002637438,208.7630511227996 213.9345825223918,208.86036937167376 212.04276239149587,209.16548004300296 210.5926256826256,209.41587372264144 209.51366592089371,210.44489876332102 208.62040721782182,212.8178218737924 208.4007499656349,213.3118761815373 205.04577582798817,210.6889031531922 198.05632234557825,203.32115683425963 198.8736064390411,198.6490329848233 195.55172783541468,198.09725023548071 194.14558668473586,202.53810884763783 189.9048346413192,204.29038839645335 191.06226459932427,207.43888779178008 192.18433701801342,207.06140015952116 195.3220294834111,206.00574465573538 198.31716202253145,208.6763630940177 197.55593038056298,210.49805181115732 196.54966622209662,211.20486159108492 195.41769737013536,212.19509590398565 195.2419205177571,213.456538211546 195.82561731940896,214.68186796934896 196.35010518613132,216.3614452370134 196.8688046369728,218.3444091441001 197.2493614455554,219.61650555353737 197.27391363480498,220.98291893313416 197.26810465885225,222.15079483063903 189.52936365655023,222.81762191013985 188.49470197300806,221.48071501003398 186.48554020669476,218.88449722486422 183.9410948664309,220.81952559696623 183.8865593415272,220.86104580996653 182.22514567408626,222.00672419207973 181.2860495595224,222.43401097473452 180.18593531592816,222.81777276754985 179.2453768833278,223.32604959327944 177.71729123813097,223.40132626765296 176.82245507185974,223.20385210595157 175.52976438915448,223.5853065074515 174.87536523044056,223.72725447612635 173.94242386107572,223.9296542249093 172.9088635344889,224.2768814939215 171.8361770916483,224.65699092339185 170.57909370299376,225.10961200136103 169.55089463816776,225.3007680335682 168.16877203717607,225.08445295288442 167.36822481370433,225.10817960050912 165.75322503648545,225.7923166166825 164.84974480113263,226.25368432498925 164.10094201679925,226.4573135753419 162.90622572587358,226.9559243967575 161.19440079020956,228.54059659544225 160.64418595826206,230.12260122302473 160.4320621629698,231.46848296721663 160.14199282171907,232.34518619437512 159.56983943234806,232.8206180219372 158.6452986983672,233.37149931710258 157.83302711907012,234.20029547394972 157.76057653359524,235.26389691962902 158.00187751179615,235.5717607337554 158.76997007599542,235.59752504784774 158.65587543888222,236.85032704949487 158.8425741929958,237.70138483986972 159.01046234331778,237.87676131418306 159.43350227640644,239.59056540833927 159.79387301251234,240.68133851677885 160.26597032754754,242.18624714784193 157.94063888533017,243.0986904219361 156.5343497562648,243.61826700521272 154.94260239377041,244.3165036545024 153.10688851113485,245.07071946670231 150.84290764918143,245.9988971029486 148.583557574187,246.68436495470303 145.76990140947726,247.7842820468386 143.62492580964508,248.8361188777793 141.5325854846638,250.3140215520511 137.5894556298584,252.80896948071108 136.11892897853815,252.983277139398 134.38307437122154,253.8102487806289 133.39800898144912,255.0563164616363 131.9608008776411,256.1419191777792 130.01874381345317,257.16730424865455 128.04634480020275,257.12974494725864 126.57195576999882,257.50639516450974 124.57358393603349,258.83429257671247 123.08665059941524,259.86832434275266 121.59786887817519,261.0035721494999 120.41633485977572,261.9423255131784 114.80431302582754,264.81130932564093 115.41267682734097,264.2870817027395 116.40645429846433,263.35368850101673 117.84170012335188,261.7885396261101 119.88512822938134,260.03962073202786 121.65386441204461,258.83523887410155 123.69616173201179,257.0020414154668 124.61909541081751,255.5696901123153 125.11166293512788,255.4323728281895 125.43339791753273,255.84285851440228 126.15838428603068,256.2736105727904 127.38468445788052,255.72988775940604 127.76777546687167,254.41323883421353 128.08944527972005,253.31310613620843 128.88459906999404,252.69018448129106 130.37891023865902,251.85211435451743 131.51445777442544,250.80482431024274 133.307652690048,249.76342650974482 135.32200111509206,248.62664587343102 137.12556190248048,248.56331302165972 139.59532998983417,247.84702706348196 140.66551503913826,246.89989201827706 142.0774122022082,245.4342705489915 142.60299950292347,244.80109201300434 144.44152512631487,244.0115611328793 145.98397715791327,243.4574404701836 148.1778655932721,242.62463182801963 150.48563213104646,241.61890895513642 152.94626421113352,239.83052234474889 153.48888442075247,238.99155153231328 152.6870675291606,238.3541321506084 151.34831410720088,238.79825218184106 149.733834671412,239.52456969526503 147.69098506243438,240.5603197328739 145.47945281551517,241.55690707713785 143.75417685316816,242.3098268315353 141.1982260931221,243.6144189243244 138.64636779914005,244.10179342947163 137.66483822712476,244.27229663777933 136.77069226854576,245.44922082826736 136.31851993371507,246.21480220970392 135.32098702788002,246.85360632175917 133.93713640425483,247.44458143618215 132.47246126161832,248.46787618390556 130.9414939109095,249.15058756498064 128.78571214058573,250.6216731840782 127.36192195482303,251.560061202702 126.59165031084558,252.5663771140542 125.470970779784,253.06125666888522 123.88445120233337,254.0247409010583 121.63016863387587,255.3365737321323 118.96138671035773,256.8981870114638 115.31184867430045,260.0047057643741 113.20171849467317,262.12629918322995 112.14680565996242,262.9196663951272 111.06433839073861,263.87442461432073 109.520495564747,265.4562448617211 108.85171687246996,266.4756689892052 107.68592142357862,267.2957208875358 105.60962357892228,268.6069219737692 103.54171470655115,270.37117390715844 101.64653125711794,272.1126354587216 99.73983236327445,272.7158864083956 97.66485811799438,273.28345710302307 95.40550115720993,273.96892345159 92.71547621244977,274.9497040875183 89.41635726053094,276.0403116281807 87.64361305364025,276.67432349828965 84.59532618902716,277.3447996470962 82.09894756258709,277.72217905408957 79.9621525609687,278.34927419190353 76.65947407043788,279.62191131168333 74.07819487509359,281.27262284831096 71.43385462138309,283.0435348665961 68.36124504561731,284.9884083916507 65.53599457864591,286.69518343466933 60.95456112243965,291.83336838497803 60.11167803007401,292.6747058010593 57.99917200355561,294.8062269339574 56.16440474721953,296.8240165185177 54.35780226100891,298.72242861513547 53.47134282418864,299.6458899316823 50.27807067772653,301.6285269110113 48.45617315704599,303.779433677974 45.57470689165318,306.3147879027441 43.916227473158365,308.38786753042956 39.761139441337825,313.4986918436264 37.80060385827564,315.1619926455981 36.41315368768585,316.790685276807 34.34565351934237,318.93165273572436 33.6465564422463,320.8840038892779 32.360989320328294,321.97257301751944 31.231987022535176,322.811075027249 29.737404095806212,324.24979658355386 28.239927436038645,325.84017000134986 26.534314958946677,327.73017120722477 25.587384822708735,329.63467351712353 24.385576312224902,331.6354137339528 23.041763554666023,333.12762590238333 21.192137302262008,334.61005721226223 19.733683059790135,336.8083387519669 18.330577549442985,338.75471405434536 16.38174802017634,340.1341792946461 14.473873743829595,342.02033830688185 13.298223419563858,344.11586506227155 11.87044195350958,346.62683136808306 10.30584672511788,348.6968946541568 9.114432753160957,351.0344890763583 7.530319269048944,352.4026852884373 6.479361779495603,354.4570038310588 5.739518792215023,356.11239956909276 5.04826688528635,357.8699690150168 4.204395431841648,359.6752645861213 3.4111332828406007,361.481437467336 2.6731362433189476,363.03570164492527 1.8750460819570658,365.0948252897834 1.4338496347600285,367.00893851203534 1.0735812040615518,371.194375637906 0.8563201418554749,372.001951614892 0.8205239040351339,375.2943504221911 0.6360550441510019,377.01100939221965 0.3609893120162987,378.1694055664338 0.0,380.7243060533968 0.6783829708109234,381.8686651897016 1.2105956025274511,383.1436509030801 1.751495611181668,383.96342693267195 2.3838750488989637,385.2908563318355 2.606907732902677,386.8634663608144 2.837577927580477,388.03147149859655 2.812484674841538,389.3464087022257 3.382758345412338,391.2798245603154 4.207832030414268,393.11683065174395 4.97843716052724,395.1552184082002 5.9533167372283,397.09632142727344 6.525523210549899,398.9285227986078 7.047120476549827,400.7598469105963 7.91982286042658,402.74954843659236 10.144851243665112,406.28984866554106 11.81254280442519,408.909503019822 12.585079449056616,410.8467602184286 13.454971311049587,412.98819972050677 17.324464101381654,420.46864233581647 19.826688041762146,425.59988003743297 25.073726718394997,431.669801996999 27.657297412302324,434.14746261153454 29.641722193903718,436.20899160025266 34.971148588859194,440.138640264684 44.00143585758857,444.2425574894174 44.996166324697654,444.73259410286374 53.68206255656775,449.01174831429444 55.48923318523417,449.7544935216825 57.1914148059366,450.69757624992354 63.00587062443154,453.5403540466754 67.42749146536902,455.1424275281672 69.52655950757645,456.49779635083337 71.22295149537673,457.7443498702012 72.02242778531061,458.2655345453552 74.25453252382168,460.20606499666496 74.54851582842076,461.13457061684835 73.08618033948935,466.28100128072583 69.80478124291244,478.57842931726816 66.93329810132845,489.7123485260549 63.531930076886816,504.1637503212558 61.7531286003688,511.3660619613712 61.06527116751134,511.6888024831959 59.8441475282356,510.7440701971019 53.61308560504541,537.0909779972669 53.488799458682905,538.3028631746603 52.740281284154975,540.4134707243512 52.51486673857144,541.623350670847 52.59862935342317,542.5356891928001 53.174708100789864,544.1656255099713 53.2373331590917,546.1904735917856 53.10147097530546,548.0092194274916 53.08796563610525,548.7172093900575 53.0686686886898,549.728756575618 53.869393314190795,552.9249072822324 52.12577163159534,559.6168557824361 41.102392317478994,601.9251772808811 34.977165055531536,624.2615037851474 32.54774323523416,623.1618701820366 25.95070547013489,637.8147529005805 26.95995724466758,638.1237309375931 26.88110524583438,638.3002297951545 55.73071963989705,651.183613999253 90.76720081927394,666.8895493016416 123.40760573555995,681.3986496678777 148.0206762653586,692.4162326386855 183.15052084781078,708.08090469275 190.04964787078,692.9003411405542 140.50493471635914,670.8854839607179 110.34592957345605,657.2992118632375 74.0437535266736,641.0159286655198 49.592743895830445,630.1093318587306 51.61765564445449,623.1950246831144 59.116620491463244,593.8664678009703 69.55134991502015,554.9084998417675 79.01436271917001,518.9241992902208 103.6616666040495,525.2188501190092 114.6320662982894,483.9412999631689 120.26077166895139,485.41729127961173 109.67341081624163,526.6700944972349 114.99670486539466,528.0399274590511 118.25302127966506,515.0462483893538 115.68757138770712,514.3138383190301 117.97871408318247,505.72103097300806 120.45027808795841,507.45507121483706 121.18086596883427,507.34754754156575 121.85542161430656,506.99616210496544 122.71196175746233,506.64823218607114 123.9980129749211,506.0656621146252 124.30496230466059,505.8893088631886 125.64820064164702,505.4900076219964 126.7040963426416,504.56889068420094 127.19512748124023,504.4357610377518 128.92239264918126,504.0639866120304 130.3659981559676,504.45427945252163 131.33836115769694,504.71711791947513 131.71354717131732,505.78771919156435 133.74809896236803,507.34426792358295 136.8258064817487,508.3135470448788 137.36622240869897,508.62739200094893 138.80771657176933,509.44411416423765 139.64697606423235,510.006516985042 141.8750877939978,510.959660811944 144.0974970115724,512.2161937981518 146.9593196989848,513.3119047278701 146.507427536754,515.0446938735586 151.21679884405378,516.4094068633128 158.9539507984955,485.5336566323291 154.38677172104397,484.61591449135585 152.11713795992907,483.10932525583763 152.33637963930786,482.4435447374564 151.86425331132727,482.0297938221207 151.72312814873348,481.4705753713639 150.92100309578382,479.84521294758696 151.2380434373147,478.29822813427734 151.21696812467573,477.25475904019083 151.12309468329704,475.79280146197755 151.3552583109162,474.2289308167319 151.6361024154434,472.76706601592457 152.1201702512268,471.25852001249746 152.60134363639705,469.90170989253505 153.38599137342214,468.5506635981718 153.45291351433147,467.6918990193594 153.66586996010193,467.1394057276956 154.33579691916455,466.4945091292467 155.91812657031448,465.7976125490008 157.1165258034683,463.95451892633866 157.88573995596064,463.4125895720975 158.7618685251178,462.5692782819471 160.67200950131257,461.5003322716444 162.92129803451598,460.8429379302508 165.36493347767583,460.1599564506462 170.07188191747173,458.31312378600023 170.81015099055946,456.97198552605084 170.73668855961006,456.0937159832169 170.5941926325781,455.0791000701032 170.8142028962091,454.152385195993 171.6013778430632,453.1960598446648 172.6359970081518,452.0015522685306 173.63169039575618,450.7253728974113 174.18394012187625,449.3597552299467 175.38226699756544,447.5774541921367 176.56368658846478,445.2243473352186 177.29916326816567,443.6329305050999 177.67343178062467,442.635333667529 179.00622430334755,442.8902534191773 179.79399836575718,442.96591371798525 180.4008598740193,442.97752346775405 181.7046606445547,442.57020069520973 182.95674664768737,442.6619525126602 184.59882376688478,442.5111247546482 186.12991257312962,441.8118101493372 187.66679005515795,440.80902412821644 189.20135277984696,439.9275928209615 190.73244115256819,439.2282781677063 192.2565856175229,438.8930275855426 193.3594057991047,438.3676776978432 194.90356367735586,437.45111647277054 196.61499898403196,436.61897694502545 197.1212089562869,436.94204594432915 199.32535735876212,437.64314518002493 200.5495002465229,437.97485097686433 201.38715654225047,437.9492545375048 202.08112412668618,438.00041778820196 202.56624793587287,437.67255289474235 203.0595642719153,436.8430680862699 204.04795516258125,436.4433713573074 204.69170164231693,435.7748130303178 206.3566730292275,428.7608543627903 207.08408695493443,428.8825322675969 210.09145582983,414.37358125558336 221.78759991387886,416.43292087999265 222.04824799656643,414.84510895987574 224.39336185026102,415.40646262071016 225.6881053032244,415.43113597183833 227.80277160125826,414.9048532562118 230.248820456806,413.98011720710053 231.043606531438,413.39807661016454 231.9727775411214,412.71776940819075 233.92093955266512,412.4311211501435 236.2614392365139,412.79955219650617 238.96688635697018,416.53372422665063 241.3053235665587,418.53395725167917 244.12095878549994,420.90345613781767 241.78400382422515,421.073375350753 242.5544944406444,422.0594491439862 243.37986018317446,423.35006086028983 244.32654590391908,424.6430605223985 244.9698448366502,425.9302146283787 246.02404580678822,427.9538160065749 247.31527304327318,430.2854148147758 248.1312959805382,432.06152626394953 249.36880574918231,434.02790949884223 251.21656814760053,435.82369753345796 252.50663944633766,438.21597262831096 253.42439080949273,441.02615589374045 254.06421733886498,442.4954253987141 255.20991020237722,444.603659003677 256.03797785673913,445.7526890270394 256.7781631795367,447.26432990445636 257.36427421373725,448.3682994249553 258.02197961639956,449.95930607667816 258.566766983324,451.1029561541075 259.22687063447734,452.57261049903866 259.65187874554533,453.633054249902 260.15234067425916,454.97819307824795 261.44528128717087,458.49437867645804 262.1457704921044,459.9647988685993 262.44937532267403,461.02285227222404 263.9049009286519,463.75630209415215 264.42844751986155,465.48639223153305 264.3000194174385,466.95106807464646 264.71597865014746,468.9826904130964 264.2318154816453,472.75938835773667 264.29419729282597,473.6291387690509 264.2409587846942,476.4207983825265 264.0687122723756,479.0888004384565 263.172827167435,481.50018113596235 261.66305511802426,484.2640158868681 260.4099797893789,486.304334931783 259.740620002698,489.56997484933754 259.68283808178745,492.6043460339265 259.6203422593562,495.8815084345913 259.5486697551124,499.6442601516112 259.5046915156568,501.95041774782305 259.46302978155995,504.13513628809835 258.68392119825336,506.79161668019765 257.68283546059934,508.3509579537537 257.3011031200408,511.02804691597055 256.5841932543787,512.2934810252141 255.12615005179754,514.8671227314768 254.10577385900658,517.4380053569288 252.24850073511422,521.4499491061091 250.40048570972402,524.9763906349683 248.23797831117813,528.0111823637419 244.29843540991214,530.8502015714328 240.35263471790324,534.0129152468257 235.6069682214566,536.6746797221107 226.46102685690923,538.2286321152162 225.15265725081403,539.4739912985757 222.515625552885,542.501136679456 222.33789301195628,546.5402352179059 222.28928463833884,549.0891891630287 222.37134373790613,551.1548608954473 221.35173634317673,553.6852944036888 221.19569419202637,555.5036486294532 221.15403071925212,557.688454279864 221.946898500911,560.5166426074502 228.39304602612972,566.9380521329354 230.550084832987,568.4362106232275 232.7325835627978,568.5992148961298 235.41905691214941,567.8004297454484 236.78891004872222,566.0052061704087 237.6709064543374,564.3221186018935 239.77365689781587,562.2980974959719 241.4047547217376,559.5364769740131 243.89941641772086,556.0627769749808 245.00793985647732,555.2339486956103 246.31694282746426,553.6344284696488 248.43628899625108,552.5849137192389 249.94929097799405,551.6672392075994 250.4215071854086,551.4832980309327 251.05627205953502,551.452485368981 251.89832634805234,551.4623123920265 252.28162330879385,551.9301891360429 252.68847276448693,552.5422270017599 253.82259130351815,553.8268019595946 254.36656333068015,554.7154845373174 255.06660601720318,555.9481353749668 255.58676963836135,556.4047694064126 256.569727446793,557.4723467137837 257.71322454563995,558.3957186033688 260.0465029854897,559.1297161327004 262.4721138967959,559.277100694631 263.10065424172694,560.8068516768305 263.3790557205957,562.1275402011187 265.27482439026636,563.5296432130569 266.7092169700559,562.5957620084403 266.9616228271935,559.969748077021 266.744434262142,558.0937706722632 266.59705755642807,555.2072113003181 266.86342660183954,554.5039419047316 267.4303741903713,553.9582541292338 268.8025881699869,553.6302689384751 269.8910774652794,554.9157957439293 271.25920004082724,558.2584248555484 271.7863417097157,558.9993191907756 274.44308879552267,559.7252296238365 274.7360586468466,559.073067002249 275.49412582595403,558.0742851396892 275.9505669360354,557.2013704863739 276.1082111757435,556.5317046966113 276.33172463692415,555.6115223197797 276.54918566245544,555.1025889649483 277.11820670796357,554.6404431075484 278.0139734732917,554.093335794309 278.5734189126675,553.4051114436729 278.92481506582385,552.682577158329 279.0578751709934,552.4519334622653 279.2523717605575,552.6537745132207 281.3661938911379,552.5017004577049 282.65078828191827,552.1988358600526 284.09105914300955,550.8201715168935 285.29183094725863,550.2810690180391 287.0543579452949,549.606704446234 288.1462013172893,549.6786533301204 291.32412431180137,548.7371768070168 292.9482385832386,548.4645978743863 297.393982828943,547.3031977972249 298.08644484450787,546.0794300471822 298.443271919331,541.5268866441955 299.1915149430473,540.4888034030329 301.8927179740702,538.9213559782604 305.0400146214086,535.1767848917423 306.78865085024023,532.6198139953356 308.3724107738429,530.2215778738944 310.04010913842984,527.6630705930098 312.77671440876526,524.2344330597273 314.3665597546796,521.5125837949987 315.8084193197382,518.0592820270109 316.6762536867794,514.9998292363011 317.61568454839005,512.4274125389672 319.35043233788707,510.59873759884107 321.74485571797493,508.1349599821651 322.5163230957417,505.88316844824146 322.69354349966846,505.0770422095273 322.78528054805554,504.51217460973385 322.7630579136755,502.7718417192709 322.244107825717,502.0410790902108 320.10559349397084,499.5719247229327 318.45261985307485,497.1119879729734 316.13988918312975,495.2870664298481 313.97823333912476,494.0316223830828 312.0593873022999,492.7808728978723 309.7994710262318,491.4124991023874 309.55395555771196,491.6660599909185 309.1635562529301,491.61414558222657 308.89977613264,491.315747526977 307.7969531832579,491.32351080057356 305.74316612245156,492.90333123193534 305.1397413049486,494.8345852949635 305.01714318344284,497.0178486665966 305.8625387304109,499.3814390234877 307.5618023634896,499.4137842386225 309.43219587566585,498.9637857827847 310.5403801039065,500.279992796251 310.83781349786824,501.66182424959425 311.2208165607875,502.80231468060214 310.9168918487395,504.6609013699888 311.51043802418434,505.3093732024735 311.79331628221877,506.270247806767 312.116373500238,507.6531187607612 312.14080750296125,509.3861463943292 310.3685791551712,510.42754526369777 308.9744660187231,511.3723488144137 307.2674891141821,511.74451856856183 305.7053285029392,513.0099446598656 304.8634608329926,514.7370552019403 304.5993937733796,515.8219970035095 304.1786136276448,517.2912897007194 304.05222016909806,519.049487787811 303.6168434813905,520.6601197572593 303.0225931553438,522.105870308297 301.6161368599545,523.6979817040823 299.80207561643425,525.4442198748773 298.23682904685865,526.8714522071516 296.33257021190343,529.101740256915 294.83591840007006,531.1778170908899 292.7775012116237,533.0003482853665 291.45352154805903,534.5131785450418 290.3722728897872,536.0305321340444 287.9929467274867,536.6428937716714 284.77402529047237,538.3016773726955 281.75262557082436,540.2171666671637 278.93444833121595,542.0859735279779 276.995288227654,542.9596462770761 275.3807303154511,542.7265785037141 273.77397342415884,542.0888290243029 272.70032891092916,542.6754373383094 271.2885775607428,545.0769407504683 270.48368831618046,547.4900499950841 269.74059915877655,550.1017091830181 268.56078577962455,550.7296114168594 267.5710548513781,551.5276519510907 266.05163056438613,552.7690164970164 264.7019375765641,553.763044344561 263.5482230609582,551.3040601275394 263.25541651540345,549.6795177658391 262.31982278633666,547.7998899324203 261.1415839402437,545.9156561691012 260.4377753175843,543.4080161407185 261.94265821202663,541.3100645056724 265.3902932407057,538.8874592071714 266.88502044522687,536.9125104887191 267.95949712068085,534.6867013861803 268.68719944641833,531.5435671347616 269.2247310655691,528.8218859943569 270.1847712168108,526.663815955437 270.825848776048,524.2357266526408 271.65181185632537,522.3086959202354 271.91884353277857,521.0388289972386 272.4986046532139,519.2893064140544 273.7690368355008,516.3386591333626 274.5227644534712,515.0174183907463 276.2305000413743,515.0466096873654 276.4733125317475,515.0512201423393 277.9459658393601,514.2293907107558 278.387047677416,513.3878079634848 280.03598349861096,512.8728211769308 281.32318197312156,512.2295689005608 283.2195576986428,511.4764837250387 284.53487900544206,511.11061965607973 286.4844389969957,510.0834711813493 287.1487595379626,509.183645948909 288.0365396375852,507.19709032771937 288.678118034977,505.3880427767841 288.9567210402003,503.51132015627536 289.53879756513174,501.6403594633449 289.8769049228632,499.82546553982206 290.02955565390874,498.1892333645849 290.18328195337887,496.4922371312142 290.63353530930135,495.16523508993293 290.84453345224784,493.65150877260794 290.302947981835,492.00153406434026 290.22452402937495,491.93876447777376 289.99890842013235,491.7651985447919 290.1659632710567,491.64327078372196 290.1342943952646,490.1778570433781 289.90409245502076,489.0228333562104 290.6122517034085,487.0200185630342 290.0307678836291,485.6732583453835 290.1799483413014,484.21905773330207 290.21226929709195,482.519756268919 291.0897162195399,481.0794674366473 291.9823099170169,478.84343541012754 293.72490968086066,477.66245319169144 295.8586093821043,477.1972223762624 297.3758887662975,477.22611493059344 300.8187391816009,477.0893199180869 303.3512538895209,476.93524088126475 305.7787820885612,476.98149888303465 307.1871321532701,477.41306756703796 309.0116567367248,477.2454619471239 310.5384929507797,476.7687086725567 312.17417636944396,475.8891918127026 313.50261168100405,475.2062570517689 315.24722351782185,473.9240635475488 316.88869113981104,472.7411610593283 318.6409317234099,471.05445118980697 319.77859735674804,469.76073407861145 320.60901743089175,468.66351449582635 321.33629579933836,467.6655013190473 323.19746446001807,465.5761151266673 324.7358732524735,464.4924215178024 326.4804813625216,463.21031289290863 327.92925040586766,461.5177569539753 329.05928380202636,460.62864102959253 331.4164536287446,459.0546660725722 334.08564348398556,457.70412058216823 335.81036224684516,456.4013164293144 337.2900369363077,455.21534302503517 339.50029213031064,453.9218419060819 341.4631079001331,452.8664387615217 344.0398096450566,451.4584966461621 346.61179723860386,450.29334508835245 348.82668108297037,448.75705104425856 350.5421382121581,447.93983268387115 352.98123152786314,447.379233324188 356.648014637385,446.11346892828203 360.43380274930166,444.97144580871964 363.6266193578761,443.08952329903343 366.43910135860216,442.0503354421291 369.120920019909,441.49434320812765 375.08918416135566,440.51531980819146 377.64273654344413,440.32117089312146 381.652817314411,440.1547575109578 384.93926185276723,439.7317255201031 387.73091310344074,439.78489144938146 392.3409065899847,439.9942280796577 396.1104904157338,439.701764130404 398.78775991943485,439.3885643872264 402.05800468700255,439.8150927102874 404.46932216276775,440.7109910248754 412.0150684444872,440.406413281439 413.174198775766,440.77019694179654 415.0196896720859,440.70611947357514 417.72419209731333,440.88974598065346 420.41463544604915,441.07247960003093 424.6094742121317,439.8148881766766 426.7336021525509,439.85537913213426 430.0733736519606,439.8178651858236 433.2205281638309,439.2707862977743 436.38109828952315,438.0156384367503 438.20947014577945,437.6456859052329 440.01855619007006,438.2872687170921 442.0337562970946,438.7304339817577 444.3601413297895,438.7747625395053 447.40616485601515,438.2257628430058 450.45982017338184,437.2720788839103 455.44883956225686,435.64706333262194 458.58433765900764,435.70683321698743 463.2428903093457,435.49201873899784 465.3785843646179,434.92565374171187 469.4341331872354,434.49706349389663 472.78354283730823,433.9537352756768 474.92686550443074,432.9827706652717 476.969058869415,432.0098866438448 479.61626590569483,431.14965136110305 482.87611128128043,429.99763484977 486.39295701276984,428.5367434826924 488.6031934053844,427.24323772303575 490.31979444444084,426.3653381941623 491.14773756982305,426.0325387382102 493.85253089716184,425.91101557992334 494.9979533899915,426.18128336609004 496.0011967420551,426.20042574043043 500.24154911193784,426.02437760784255 503.31687859019326,425.3077667242769 505.5186288056058,424.4593080860036 507.88379413780467,423.5330196828105 510.33598050539223,422.28465581529764 513.0200977497908,421.60721504512594 515.609475886851,421.65661501605854 517.4767650079642,421.36841397102273 519.4387903038961,420.35345660592003 521.3947261301207,419.6622800430892 522.7564272218142,420.41676273310554 524.3763635423029,420.3666617099563 525.8483076508212,419.58528253213956 527.3217122577931,418.7229141333478 528.9586156853667,417.7827182737715 530.2779410247855,416.5127680479621 531.7498868939263,415.7313042559216 532.7316686233437,415.1834165938027 534.3685714720632,414.24322072999604 536.167261117086,413.3061797224347 538.9215122811115,413.19675912249795 541.7536132896305,413.2507636837173 542.785566893566,414.322713831047 543.5915943310198,414.4999585939077 545.1367608194024,414.12471129754914 546.5277689848758,413.34171090810275 547.4286971714081,412.7922890711633 548.5723510215241,412.2474736590761 550.1236037472676,411.5485302959397 551.5053570148576,411.25102802477653 553.7442636702044,410.78781598867386 554.8025986971776,409.41166407667396 556.034900902333,408.46378896688486 557.3197655658807,407.9418862771861 559.3259493171911,407.79794960844504 560.4275921297638,407.33326818687476 562.1233645242523,407.54771635528783 563.2660002342084,408.11594311367776 564.4821062356489,408.01771049393136 565.4201945255179,406.57849312831075 566.4154714022321,405.3225414131243 567.411904686352,404.0059130742672 568.2766062820879,403.23315734015404 569.7423762804116,402.7754710253235 571.6236824241973,402.8113440846063 574.3159704980303,401.70916575154797 576.4527275976621,401.0820324460281 578.6583239707362,400.031315823931 581.3436698211905,399.293281683547 583.4838955354543,398.4841182024291 586.6929364836827,398.00899685357996 587.8084081279857,397.87846166212415 588.9278183443383,397.54567330663315 591.2715405153525,396.67967326338294 592.5483837103866,396.04637914412643 594.2891076594343,394.96652255094176 596.071676949751,394.34282582240206 598.8870269813548,393.0289509520797 599.6735695387673,391.57678417799127 600.5516011902905,390.63225944034366 601.3372625579133,389.2307011759203 602.0101448778795,388.4340722630192 603.024487078151,388.30161780719413 604.4308952922532,388.83429835932253 606.3584487171986,388.56755483419005 607.8775519432353,388.4953036263119 609.3822800465629,389.1816388877271 610.937528189536,389.869016948063 612.2991123014131,390.0973533416488 614.3355077463107,389.4278484634485 615.0647798941623,388.32871267202324 615.0898425290634,387.0137996787367 614.8842128173662,384.5309088377117 615.7564590582377,383.88985171278136 617.0925830444565,382.80231681839433 617.8646655990406,382.1087346226289 619.6280379220622,382.49648512614544 621.4038577133886,382.2267768063215 622.7534773060743,380.43117942974015 623.784204434116,379.43901298653935 625.7050113207051,379.5261730598922 627.6888798365826,380.0998763249718 630.2503446384976,380.3663604219494 631.956607843019,380.03454925392646 633.6264157408165,378.4272081989288 634.9239973852939,377.2377776327441 637.490245989854,376.3759992124619 639.9327749364371,375.63335428290554 642.3753035764074,374.89070924477 644.6335385077076,374.2659644942268 647.6632570789783,374.5665048806577 649.5284467076372,375.45201669457657 651.6559398885865,375.31046182915975 653.6736806437914,374.5596708081608 655.4146394692261,372.40730974824015 656.7670976203214,371.52241251377666 659.5679687813443,371.0901434078801 661.838926220714,369.79778716922226 663.5075742834578,368.25112272097385 665.3409366523133,367.6182296566396 666.9887632810473,367.1639957769937 669.492032410413,366.4225026330882 671.5097710743223,365.6717112214861 673.8985758357838,364.56377049268986 675.6677243037378,364.1117534084085 678.336863386126,364.223354325327 680.6488141434472,363.9639021279285 682.5064643484668,362.0565490921393 684.1236189447095,360.02323539707254 685.743169726262,357.8685711959368 686.7512428354449,355.94509785673455 688.6695522628194,354.0388960171661 690.2740658389812,352.6731950722711 691.4404890131674,351.6755108848444 692.4884035266828,350.8455337331301 695.555126117889,349.2040862053445 697.0978225435645,347.8979109868447 698.8854739194679,346.4749015748482 700.6685813224227,345.2946847819965 703.1285343823535,343.6417246447579 703.4970364620785,342.8847806954108 704.7992392802012,341.45256040364677 706.4575546935956,340.4521559362591 707.3805954218035,339.80190427343666 709.2243617892374,338.62283837927055 710.5196239827044,337.55476125784406 711.7564548694721,336.3641782700447 713.53724810487,335.3053144227689 715.6902626403668,333.8286251422712 720.4987234172172,330.26945966131706 721.8088433579151,329.9025981358316 723.2203520972087,327.98617933567795 724.3838842417317,327.4619728518787 725.7981524029085,326.51755024496 726.9091206796247,325.5673737396837 728.267356073871,324.3790102800606 729.4996417231654,323.4312199847322 731.5710926284837,323.0457216325077 733.6981343043991,323.3402841484723 735.5358515457342,321.9316835030511 737.5683552253855,319.76697736818926 739.013306675245,318.2767681180603 740.8532126120516,317.3000414827787 742.5900634865469,316.42252337714314 746.6725419385639,314.57787430236647 749.735868702601,313.1184579457233 752.8964638225742,311.86338381421024 755.1428921224204,310.79312215390405 757.1832060025081,309.9214467333935 760.8533783074948,308.47362889773717 764.1208825337106,306.9170068380917 767.0850055424139,305.35454415773626 770.7341725598886,304.11994164411965 772.4569460708451,301.5529698230838 774.5434275616597,300.37850908466237 777.3605552408242,299.09660040062 780.41809062676,297.9407339287093 783.9656983537243,296.5512878424716 787.0278597287754,295.15263141513196 789.9686172677411,293.7516712218943 792.1835207008714,292.21545867566 795.2526199905047,290.4526599607176 798.4360987091384,289.05630465953226 802.5952596739588,287.4356689000918 807.2561373274767,284.97469333761984 811.0627344620594,282.7403017736819 813.8867953004424,281.09425027747227 817.3177013387021,279.45979683691 821.5578068512933,275.84749878305547 825.3620881178032,273.7344596020557 827.9433402476653,272.0838009223495 830.5223634142413,270.55449690856494 833.4654276130229,269.03209902297635 836.9032685620458,267.0335036543918 839.5989825770322,265.7492901426313 842.1756054810257,264.34142068932215 846.593751694934,261.8757550847286 849.6605257843232,260.2343927845688 852.8440776903649,258.83803854379335 855.7917622905751,257.0729357259343 859.4723202769516,255.0789448094448 861.9345598607199,253.30463255437047 865.3700823516328,251.42738914709832 868.4345406255642,249.90737883786346 873.4335503739239,247.0481358774507 876.5007069668789,245.38646325591947 878.7567522734388,243.81056564178226 881.0108704342949,242.33579487547024 883.0608074060265,240.95831415141095 886.133742489912,238.9932610540901 889.4147973918174,236.72858203286836 892.9953765610475,234.67199636489528 895.7591484292581,233.00456853500543 898.5266895919812,231.13488487031407 901.8115953113763,228.66795244533688 905.0107107117703,225.38983165127752 906.9807165710273,222.89786940258966 908.8475870516173,220.50502879057092 910.8079561690088,218.5187851061579 913.0921993255124,216.31609289298711 914.4831751854994,215.53309051104173 916.4529431432221,214.11362401032073 918.6685984971339,212.53696158118095 920.7207584740439,211.0381270697044 922.9317889666714,209.70416876624665 926.8281517262718,209.13089671572635 929.686407026523,207.8093005849094 931.90206278179,206.23255351052325 933.7955177420164,204.56884748672593 936.2739362815341,201.94481845792092 938.3946930334506,201.09489938420887 940.5155356080634,200.244897936953 942.2579977294325,198.01164488662067 943.9025673743652,196.66685536886 946.9137224324226,192.42336825324014 948.561374250839,190.91677633285428 949.9523445174104,190.13385862999814 952.3189887124904,189.12665904748644 954.1160901577517,188.2705154607072 956.0750609601416,187.41744292535805 957.4661143438307,186.63452745049085 958.9364772444009,185.93404648453338 961.7215846338185,184.20632606998242 962.7997763819559,182.85079272443772 964.0412950919339,181.4174269305156 965.2828136867228,179.98406119017795 966.6237677186948,177.5812468124326 967.6379001077187,175.3340929234081 968.8825010843365,173.73892491017637 971.7469997078565,172.09364178388068 973.2297802841664,170.745784188632 975.756662683843,169.82263924791823 977.2409004104538,168.39387818529485 978.1680133150443,166.46888115974127 982.1888463686076,164.00082131456907 983.5413842860238,162.4312961745236 983.6547111198266,161.07334408757288 984.0015347855662,158.80337392551712 984.3844262305604,157.2929375186377 985.0630715077564,156.19284886289665 986.6559564061148,154.90786307237067 988.5618559130545,153.12291499620926 989.8492694819138,151.9332118158418 991.5938852066956,150.65110466029262 992.6848259028204,149.1541855734298 992.96273739934,147.8440842591774 993.883928114238,146.2276285509704 994.6411625393116,144.72429497973417 995.5174006378305,143.34469883380496 996.4519856692503,142.0876050021575 997.568631434969,140.83396499466244 998.74833190435,139.4601260622818 999.8043161677269,138.2054202398948 1001.2874789490096,136.83733846888833 1002.4636249784186,135.64560960101892 1004.1230658295563,134.58444564005458 1005.6323757636648,133.19819776418785 1006.0158872889025,133.0815111213709 1007.1422598268916,133.58450525147248 1007.9528450989457,134.1400807175895 1008.539488672551,134.58064929645263 1008.9885094060448,134.89477008882875 1009.0587571635656,134.8824664135875 1011.1249339379697,136.0835945940903 1011.7258922642458,135.78598928549138 1012.5723512178861,133.62222451965079 1013.6030495764043,132.6300625451188 1014.832228368072,131.84407677323543 1015.890407103387,132.06656127220538 1016.2902983658331,132.84696385057396 1017.453917511736,131.38979487337838 1017.9225799416702,131.24918895919564 1018.180740838657,129.2265695431322 1018.7500470433885,128.02324460083332 1019.6927246313264,126.34133577804482 1020.5210225727532,124.29298642378353 1021.2885778185644,122.24348437152412 1022.179930417384,120.07493626018152 1024.0,116.95275669554485 1023.6509116629576,116.15689415582847 1023.425539270254,115.24189858508532 1022.8303308240235,113.48661474694984 1022.3708036536401,112.1863246257409 1021.9310287740516,111.36850865668703 1020.1919714595808,109.70963023499382 1020.8181648322864,108.70979584650865 1021.1247176235402,106.91321051196621 1020.9858188098709,105.78797604313058 1020.1514470741546,103.9103258685418 1020.1690739482402,102.98664910123864 1019.3555801426209,101.67600315087088 1019.002250660739,95.36961651608635 1019.0509003227452,92.82081037546482 1019.0867497325604,90.93943622178938 1019.2555613810179,88.45360703004485 1019.3111526411909,85.5405766456721 1019.360877700292,82.93100779217093 1019.3534123883942,80.13826085242943 1019.4031378961777,77.52869199469797 1019.4483206992387,75.16191341249248 1019.3662380447701,73.09620830818449 1019.0975547211955,71.26975482386797 1019.0646492795754,69.81213019474126 1019.2329464469716,67.38809511116017 1018.7798050652931,65.67962150017343 1018.5725495210926,63.813952541737194 1018.5425844397005,61.14208980550063 1018.1842559142606,58.70687236810625 1016.6091687511777,56.41034653991585 1015.6844688700464,53.964383647459385 1015.4055339145722,51.61160269737229 1015.120430731834,49.58251084243204 1014.0246117629858,47.61896758972898 1012.443276262954,45.64604293573109 1011.9154549319524,43.612345917995526 1011.051645992041,42.21980194011212 1008.7374440382548,40.47584761868677 1007.3364816185265,37.53501043114511 1007.8527111600114,34.692234182704624 1005.2288225269394,32.2137761272304 1001.981736384489,30.573430438661035 997.8290636128417,28.672941523606255 994.2912397935481,26.359232046230204 992.0782496003155,24.617195157428682 990.4593749735564,23.554276146157576 989.2606518714587,22.742204895582972 986.7863569521288,21.96645853338805 983.2267276089987,21.808156009419918 980.3183648074208,19.432829403755136 979.1036956156591,18.839105419197153 977.3952588377882,17.25945733123706 975.4821761751481,15.705286094627468 974.3395707908707,15.137070277355178 972.8969730326327,14.381068045328789 971.2024577583153,13.794372420949912 967.3046645370418,14.077765427880195 964.0787701298733,13.449614282555785 961.9187290665596,12.113314118820199 957.7205423681067,10.880961576450886 955.901464346043,10.962366909604839 952.0704198313734,11.005768591540004 950.31006646882,10.466293876118243 949.1546227803638,10.039545653373693 948.374046724593,8.650457500602329 947.029120842543,7.418829464968212 946.1265339383737,6.996879288221976 944.0207907914701,5.995487566522911 943.1600485104664,6.029692276699507 942.6533725987531,6.070616537923797 941.4615349921582,6.395325045158415 940.4060176486254,7.191388029138807 939.8439172931771,7.484210577435306 939.0776376841696,7.874321966562661 937.9105437168172,8.054415242836399 936.2921980385053,8.023534312766628 934.4287049633706,7.583348187938782 933.5805798129073,6.960020095672803 932.7810461004375,6.438861540163316 930.871853837431,5.744773114298596 929.6094157940427,5.61956702409509 928.9061884482213,5.353186202863412 927.1620024222965,4.167365310064383 924.8573803778869,3.8602365094740207 922.3771758906685,3.4139358665444206 919.6961973783269,2.830060386793207 916.2020774663399,2.850919729751922 913.6500917032789,2.647686985275868 909.9188621344405,1.701744992870431 908.3408007373258,1.807010854629766 903.8921510488619,1.8430812136100485 900.29456511126,1.4632489304467526 896.9324269369307,0.9493049343526536 894.5421803234672,1.0388764108491841 893.1293416249819,0.17555891840129334" /><circle cx="509471.37522921764" cy="-1017196.0937222402" fill="rgb(100%,100%,100%)" r="16" stroke="grey" stroke-width="8" /></svg>