<?xml version="1.0" encoding="utf-8" ?>
<svg baseProfile="full" height="1024" version="1.1" width="1024" xmlns="http://www.w3.org/2000/svg" xmlns:ev="http://www.w3.org/2001/xml-events" xmlns:xlink="http://www.w3.org/1999/xlink"><defs /><polygon fill="black" points="1012.222927892821,975.1904441431833 1016.6836947586647,966.8759313533875 1017.8522214308751,961.1336113764539 1016.7386315494273,950.656140715001 1017.0287168921573,947.1482481018688 1022.7700628031259,937.8136922099936 1024.0,933.5559379644304 1023.1781521573901,930.0645492388004 1019.3599463134265,923.3327732995775 1015.2363512593944,911.2475789867036 1009.9473809676712,905.0987185552711 1004.397061794086,895.265127173932 1002.2064216474836,887.4189190063548 997.9891359154027,878.9614264176516 995.9971495931744,873.9077324378301 994.2149577316591,866.1072709169512 992.1613612629087,860.9807929121725 989.878233310122,852.347011855216 982.4053036429502,837.0742548713408 978.8187873654123,833.258735801234 973.913722625464,829.8197148204003 966.1146662609907,826.3666187180303 959.8454835774872,821.4512198956504 951.9711659308903,812.0590606442568 950.4935094854108,799.2404529792138 952.2180525517585,793.852989373481 953.5887774359636,786.3103530669498 956.1965459047483,775.9281688227499 955.681288083461,770.6530523541011 953.2395700005991,763.7332494131231 951.5004527758622,761.6060037137127 948.7056415923788,760.5036072453606 946.0550440380273,755.5335897791981 946.3765127728827,749.6736515214018 949.7243913224812,743.7342266823765 954.3378790127327,738.0768701749544 957.1289264143002,731.7051418213256 956.8592726125363,723.3068747532666 955.812466356207,719.5423605042533 950.3365012481989,703.9552033410215 947.4685578592214,693.9003832853771 944.4255881566672,681.3734325012437 940.137180735458,672.4216182589486 934.2948502601209,666.3990592952443 932.1423293448992,660.3785200783432 931.7870483481852,656.4845820917869 932.5443723285689,653.6103614789707 937.1406210215107,647.4426279505826 939.8001177943162,645.2613036389525 948.2769704436032,639.9755162332931 952.6924747023111,634.1284890891943 952.9891754232987,631.9854252647388 951.4069005085768,628.3748698834609 948.8926781350946,626.0532520223928 946.2004621045128,624.9312181826332 930.2402362330497,624.501331248654 921.5145087538267,621.3266532485634 920.2892852933531,620.2695006360377 915.6645881786623,609.6277768920886 912.7639406886651,605.6843052276311 905.2289010719792,600.7675087883686 901.7962756130875,597.402730512313 900.3302192653458,594.1684204653787 898.9375440487622,587.1082942863607 899.19442732314,582.3586852427918 905.5961330313706,563.7848185083978 906.787464755495,559.7098980105527 910.0664525711437,554.1660518917316 911.4365277860018,549.8232168928816 911.207138191436,546.2463985198783 912.2993827170342,544.1035324325953 918.0230174499607,540.3102648754766 921.9961800960469,536.5574858168017 925.1572478044918,531.4950368336526 925.8475391112589,527.2935435417362 924.7910871892196,521.8147795462652 921.8005443462225,511.6060064277533 919.508025715742,506.6251387676559 917.6792080869108,504.37833778155994 913.7987884647201,501.7591223401639 912.2040749892986,497.9339862278432 910.2525666893036,486.13864200810895 906.897940190881,480.8237838169821 904.1422731713948,474.5409938696748 903.707284654063,469.1074241902304 905.1390407528911,464.73314623200633 907.9660273930014,461.39549045751085 915.5066821595764,455.1966957879131 921.3573935900866,452.02475625221325 922.920839024236,448.4884341627393 923.0721005865595,445.1928019822851 921.7330187639311,437.5844749039246 923.1516340861363,427.4564362481916 916.438643054818,411.53511775033974 915.2982452869,404.3328833689924 917.5173107230363,401.2990439451371 921.2286986065326,397.9907635000525 929.0491824286419,388.25296336888687 932.3003476636553,380.78212044407485 942.056017279065,367.38203327576696 946.1475485771512,362.086448252576 950.3773846307853,357.97409463301426 955.8586644484648,354.9100600084988 961.4731187422103,353.33575986031155 966.3368517918396,349.4805237148246 967.7582216461241,343.8921335341246 965.8565140017978,331.277017339249 966.2498533995109,323.15804472002185 967.2682153554682,315.4416665767326 969.2257980900239,308.816471815878 971.4235470467395,296.33206232552016 973.4257073542383,292.45445599792777 976.9051668817137,288.6189154767719 979.3474568093237,284.9398507645268 978.4176611111858,280.6201637261405 975.4201189062037,274.5497044909065 971.7041921813515,270.2171758228742 966.6417068195076,267.11578088733506 956.9631159176845,262.4087351567837 953.0605384138262,260.09916793936713 949.833363380657,255.82949155031963 949.7238240942656,252.0426542352534 951.0900104336832,247.62174118857217 954.5097053127602,243.3173133042269 963.7505131708245,233.89252970540156 967.4618008940612,223.0496300681176 972.6440165888316,211.96070202750627 974.2944615665832,205.13910226329187 976.8765359193733,198.15005068004882 980.7434299291277,190.7355309566277 982.4255993770623,186.51660640143416 982.9250126431971,181.96575351544493 981.863352908628,176.9653257460701 979.8193871964614,170.64138982707334 978.9570385836674,165.97549763761265 977.7684105556558,155.88272870827427 976.8272938069633,150.80919467626643 977.2163244928436,147.09754404978048 980.2596852114957,140.45176632774348 981.1554198498916,136.70283205013686 981.6217801774027,130.47891214191986 983.8635541827127,120.04703980833028 985.0091611976918,112.93557966842775 985.7710023346933,98.83890725251536 985.3916280819562,92.46256063058479 983.7489601577879,87.98261752992084 981.2331097391051,85.15692634876154 974.9630679351282,83.44278608340596 952.0989172231037,79.77003337752637 948.2802118643801,79.88079152251385 937.1741929952138,83.56532594382384 932.8234474868408,84.1730814983456 923.3944849699359,91.13321474477277 919.7951298098737,92.45644183228899 915.9766319762954,90.15762032214934 915.4614433060908,87.23413776142377 916.8698756579062,80.56110129527099 924.377463539124,72.80857556659714 931.7107735638318,68.68283743957238 934.7654168677946,67.75464788110469 939.3740300528831,68.21624312253368 947.0524641679636,65.79988221430187 952.1213326525465,61.937746661604706 954.5503811247368,58.11997653137507 955.6407861064979,52.9505341563023 959.0733337822471,42.670953037345384 961.6209092120829,36.268782265200684 963.5496318363997,29.1921607900332 966.591154552322,16.314298550569447 966.411647859411,11.84583330952944 964.2513857027081,7.476747509091297 955.7229884544189,1.4352785651884687 951.0046479206089,0.06622894302188342 946.6577649761628,0.0 941.6191868318483,1.5568617022576063 936.1370278765459,4.044960825818748 930.4889968118548,7.781481604546116 925.2772451532522,12.317305024673601 915.0863413127009,23.817107582665585 910.2652689921167,28.929883248915644 904.9137271061371,33.66313824724705 901.84180725227,34.93650017339428 897.8802129272955,34.87463007644749 894.4317438689199,32.83643503157248 891.8668114118254,30.06363529808084 886.4010153078189,19.458969167052373 884.2756312831146,14.392039724765255 881.9396619576677,6.473298292206209 877.8116978215373,4.40264150596181 872.302471864386,4.799273619484666 864.8125493007443,6.02580876435934 854.8723427829912,8.580379629168874 831.9439046263714,11.917957223972849 820.2316539573741,14.115109020894806 801.2998052015653,17.17522209867468 790.3738820418595,21.361476180905242 780.8961298906481,24.579366588190624 771.9428047931369,30.597842707322684 764.0380772898133,34.51093316054232 753.757166236819,37.61485495559077 750.2729649812603,40.096676538739985 743.4474424518587,47.62877403374375 739.9982099157961,53.029737876095396 733.4061772282805,62.31378324762625 731.448736238137,67.59447284570024 727.072661863053,73.58661428520486 721.3627153347884,76.07422970322011 716.3481437993047,76.33857199139527 706.7551887737001,74.30980407285244 698.8033908045078,70.91265794313779 687.641485505414,64.19839592981964 678.245884417469,59.05238463506248 670.8610555693651,50.36198605029551 668.5119153757848,49.15555816196536 661.7501778672925,44.19451863468635 653.7178061035238,42.55400220515219 650.7797914306312,45.80224734959563 647.3073982546969,52.852867267380816 644.7407913023819,60.873573720926856 644.9548644502931,72.30250081276881 647.1316527912832,80.46197301791528 645.5296662587509,88.51430896436011 641.5875539981739,94.59158447251457 631.3813005815621,104.31492522291956 624.6814726734447,107.46536223185763 604.2069823680037,108.82491515893287 592.757459900441,110.43523357178083 586.1609595986835,108.35706856266495 579.5739932525476,105.32857006301333 568.2740176361665,101.47681970710732 558.9379197962279,95.12002317207384 550.8814115867484,81.44235987328477 544.1487762210394,66.14780752438026 540.7368029000016,53.50254043192797 538.5727752889659,48.09624967676825 530.7904975790709,35.05033803515073 525.1902676347761,30.15429243090182 520.0097111133462,28.119911811687757 513.7690559431104,30.352959746706574 507.0299286586741,33.52913557243755 502.61356079201596,39.12908595260069 494.46834591989256,51.09748891581512 477.4596243036942,75.43954198006543 467.2378101185054,88.95162375241807 461.120002838603,102.67604069566642 460.44517540737934,110.74730685695818 458.86172118661455,117.38807790203884 456.3824585975915,122.08947662243031 452.5231064037796,123.90874691949477 445.3945207788068,122.31052492222898 439.7851253207808,117.42073329016375 431.00170342138387,103.71447669421138 425.00142434878137,96.39939240156775 418.66474379800457,91.78253336487273 406.2281083026367,83.83293053171519 392.04135933155044,78.29770559724125 376.11101972270615,75.8240966241799 363.63042350951594,76.08777657938595 352.04178410352625,78.91161266930669 340.1122021808972,83.25225974816078 326.59126630444746,87.06523881889495 316.77341365059436,92.45342256314404 311.2214058993398,97.67293605833163 307.61674658385584,105.77345423354257 306.5208307448494,111.80736092438406 307.88564196666346,122.20445991302063 319.80267315601395,152.03259891246717 324.77570105501354,165.2834025774206 328.5919676584468,177.70022774599772 332.54251119835675,194.37319283617308 332.76747967496374,205.32738411928642 327.7762460476616,215.98792762219125 320.606757668388,229.39802713874235 314.87965180019523,234.89909483261624 303.36292756367163,243.80940891934813 286.90407333492607,253.3206575170626 269.65649186473416,262.5934379497711 251.5397700955319,275.56306885889296 228.1171745789351,286.55893186716844 212.13148296148643,290.13757780113167 195.89273922268916,289.6624004629789 170.608844418596,284.1351950173947 148.45477618646993,273.8790073290553 137.26081825559822,272.63684403447735 132.5501496949282,273.1920748110756 125.16714775276951,275.99910585592716 119.86328141541296,277.4176676269983 114.92728049853702,276.69785692064283 109.56159165155309,274.6540897599127 104.81357624475469,270.2245003172209 101.37906932920056,265.86431471369883 98.52526551332396,258.4977056632074 94.86680297524795,252.95465167946236 93.73514849605498,249.4738858602518 94.51035295061902,242.08374771178057 93.41045271486725,239.6425082447928 84.9018490581623,235.95221544842354 81.53673115510512,231.45017178716444 77.75704802270212,229.42173423045358 73.82408394153778,226.10968527216528 69.51708619592114,220.6866427837956 66.2806761458812,217.93804047446247 63.45446090855077,216.8199327387772 60.450447624112606,218.1650690312199 57.700045652220254,220.91742434177456 55.335546740275916,224.47111153069147 53.140837107567016,225.68619284638612 49.516141516711855,226.10733549191752 41.22358804052157,226.03962191117455 38.337702911312796,227.2608232547633 34.764307722054475,229.9059385401439 33.070997529468336,232.5156488612132 32.80604546127465,236.96941058948346 34.03999949807836,245.37277095770003 37.755635656144406,249.28190155224922 46.322751272176106,256.01515357188157 47.25897331473554,261.736854654721 46.96697207007259,264.2011421259915 40.213749947838394,265.96608820376275 33.38841497157718,268.9183802649201 29.292516099781363,273.4393304516449 20.77899324702306,279.4604749134053 20.028408718382757,283.1034547818965 27.427022450721644,284.13813497638444 29.78107471235588,285.8431578473587 31.506227117281824,288.96338569370516 31.148485227671134,294.35970914882887 30.097300967873913,299.5273446242878 30.61863175026742,302.0864161110578 37.34034042726625,304.6508661579895 40.1698546442673,306.2391457939501 41.195954872679906,309.49841512893806 39.03749480418555,318.0794762999941 32.06544575018029,325.12886416241247 26.932847366337228,330.8438846833185 14.308973320570574,331.32462613978487 9.321395922437654,332.94207488881864 6.7858563091359585,334.641802034731 4.846864231514417,337.253428193887 4.000776137225042,340.54989164238964 4.410953596088109,344.284615497751 6.591973157824385,347.16808488015533 10.962287565161088,349.3047951083437 10.929147614814601,353.63587914497987 9.375321203481464,357.1756301229616 15.348589386866832,357.75566084625893 22.550819684345207,360.4286510283015 24.25327399771817,364.25595760984413 22.32594108863106,371.6703005042102 22.260968424781424,374.47976825094463 26.24065090008698,379.54300370946555 25.83654798311373,383.2972567539117 19.055539792627954,385.64591910420233 17.97240265892822,388.55844715941805 20.13591256180527,391.68506096372903 22.488920215371582,398.92012073756666 19.0474333241843,404.09062988998244 20.45532872774573,408.0738061611589 24.219786982536412,411.6457084782502 24.008897357704218,415.41864433983017 20.57052529590706,417.4636193759569 17.323850930592627,418.3199540477491 14.63648234256839,416.91394689679726 10.982376319823192,413.1243761588445 6.131746813464127,406.33018384783304 4.18784863748778,405.1421737212245 0.6340576198731073,405.7865140946209 0.0,407.72258596092945 1.930613175289067,413.22516870728896 2.579035187867602,425.57434985144755 2.512712451641548,430.7555052341097 0.937285503074629,440.03972290583306 0.9358876778002826,443.2081306554056 3.086461491045482,448.37986578509935 10.412822771941846,449.82858274233024 18.59073286907022,453.2918664846229 20.60320866156683,455.30854562956654 22.03536403343193,458.47437100960076 22.186213829662286,462.7956167207095 16.150669617315206,475.145142504069 16.154470697799745,478.87732058675783 18.451576906973184,482.04567526076585 18.167916199020706,484.4914035029625 18.448835146162995,498.87230847738283 15.356634225429135,505.8412990584601 15.517227488275488,508.9980455347717 20.089956632781394,515.3369936426336 21.961965221441826,520.9420951404898 24.836523322659573,524.8324864345298 29.296954481754362,524.1184666394638 35.02721161243218,517.656754520903 38.76350995975197,516.6610134407285 41.20841028339714,516.9576886622597 44.074937588693956,519.1094983306069 51.401217394546386,521.2924686761394 51.5347177082794,529.3358698953766 54.41330347753523,530.3536920607739 55.55457902676879,528.3393483896145 59.2817966943339,526.3321762512678 64.79668061803854,526.4148251193883 69.25134463794866,527.2935056607928 72.84036848963365,530.3188506521137 77.02263563104728,537.0178433181873 78.05476584874661,541.794732952161 77.54751928246564,550.9287533528111 76.62734650355966,555.9788565846288 73.18577197499145,564.7127204848248 70.42950058022245,572.7232420677926 69.91795083765386,575.7757870747278 69.89203834183154,585.2546861863627 70.2377604681717,595.3144375258257 70.81696854246387,600.6899290669535 71.23192014821022,613.8990551532715 71.87082581246847,616.9308924779584 74.02302598200487,618.5271307362159 77.2524716998563,616.7081420830114 79.85331302831025,612.7989309376478 81.49822113541738,607.8525194124887 84.11230848393996,604.4027642119645 89.32232615148934,601.9627982137199 94.0622560078072,600.4667414519472 97.69506970846517,600.5047511436971 100.66926565988165,602.787726860975 103.85267189018427,609.1707252476234 106.45449862304953,610.9892721988973 109.93708579789379,610.0969647543527 112.00618469575436,608.0737490719224 113.57461553172185,604.8784963952894 115.18366605170542,598.5328079712622 116.99845737353061,596.499648430856 120.72137065362577,595.1473385420147 124.23491660207458,595.4311918210753 128.14211991573683,597.4497651455404 131.12462109712988,600.7863991948502 133.43862182160498,604.4888070442363 134.8072353480145,613.5870266823081 133.70282508996902,617.3521156091074 130.91710614819266,623.2595325960274 130.54597782165334,632.3965129318992 129.92591476221025,636.9741720647118 126.0675054477999,646.7586141362981 121.45487075041716,655.2814040432022 115.30592111716652,663.0012286919593 109.2538387693176,669.093891237874 107.434480336797,671.698983242208 107.150285823263,675.2193434994823 109.11741783502598,684.1956600917155 109.82882280648656,690.6137297022644 111.11627938347021,695.3901656124732 114.18081855977366,702.1132647052174 111.08291192173984,710.4807442305355 109.81084248470175,716.1306828603673 110.18630751140772,722.6662480030996 109.44570854430991,737.1933927320198 110.07649915894805,743.8491568648726 109.7191808805398,749.2352595501353 107.91272249065834,757.694873603711 106.91456399787053,765.3176238378412 105.9383162753846,768.7340302159847 101.2854621701353,774.4477326508974 96.23179611082087,778.8739653112183 95.48068125032117,781.3485616626035 96.43580420288747,793.2635930888863 97.7915625056056,802.247610746575 104.28069154290573,815.5763975647776 105.06962562106851,824.8025633964602 104.20656832637155,833.941799707894 100.78551372862063,842.0913242904245 94.83460348557946,848.5235287382695 89.17779067977713,851.6782965503622 87.85248872361545,855.0895989183808 88.17452468462112,859.0700840496559 96.50296452812142,870.4804394096186 100.67027041709538,879.2997167155395 103.319925193052,883.8103535102904 105.95574564849471,886.807387274834 114.63686323676635,893.3010243599742 125.7763603592067,899.8634806297349 132.07014599037643,899.5087603347664 135.5334822434612,897.0905037699564 139.69418739296592,895.1355223470209 143.43149560506754,894.8247967601474 146.2192685470355,899.8055952041243 144.6759348959573,903.7013698299068 139.2998968252406,914.1045336395484 136.7906056142049,922.5769477514173 136.7400466214406,925.8540595150082 137.92035550998406,929.0584071247282 141.51356752443058,930.6325384021741 147.74507528610124,932.2023413792522 151.09314097249472,931.6091794395243 152.04847368322422,929.0896137672698 154.80463500668216,928.4917393385397 156.47706079711267,929.6935226562047 157.4338202449972,932.8181774939492 157.79512390838553,940.8450245124908 159.8338313908489,953.9140483526555 164.99094231761254,960.1552185624956 167.509110684624,962.4357240150712 172.8960478851822,962.9179520187154 174.81577337519687,969.7513293642498 175.4095044579277,978.5052384357225 176.36154537990905,986.5366813912868 174.6596709085402,990.8447271059198 175.1843147605974,996.7822610544514 181.02848038248084,992.7004804728401 185.78062719865832,990.7391580117121 190.44407308401617,989.9266403130089 194.59389548045917,987.8585251009889 203.2245210029902,976.7222601165856 206.81002015405187,978.5222903132385 207.29341829550756,980.0844850872877 207.16885844152137,986.3142219060177 210.7835605085015,986.9147872118364 219.89205065830305,986.1916649958983 221.69748622440576,985.2426934860504 220.72412086389795,974.2086142649671 221.20638500219,971.4481864704405 223.00878231324793,970.0069074409536 228.1794430440347,970.398073360738 233.33558459335552,970.0518092607026 238.5751600395806,968.9957591554563 243.53987076030862,965.8545013167411 247.46344891225928,962.6089182419342 255.94788338538342,953.6353660295008 266.0880947029656,946.0383750652444 270.5962677542353,943.2401239895189 274.38394319808566,941.7992364749028 282.0753648051492,942.2643571723431 283.7481969031449,944.5418675776511 282.67013850976167,957.9720632667747 283.1393310839121,961.213493995714 285.43098910827905,961.9179862969922 291.554450422541,954.4823539247578 293.12036922527716,955.0816445166399 293.4775507563885,961.3149184598211 295.7606924904806,964.3033105984783 299.12060581566163,965.981668737694 302.49621350087716,966.0909104444073 307.3049452986346,964.7618648726599 311.99022006985666,957.2073152920271 313.90625506466637,951.1759032657677 315.3317380421577,944.7796478555397 318.2148745747501,937.5821851509921 320.9995122385322,931.7870786530057 316.60657456358746,918.6814209965213 318.14164301415764,912.2145584266607 320.8155448260553,909.5440997521505 327.68461736090944,905.3480366987676 335.3113746192052,905.7119492844147 341.79076422849766,908.3589951242116 348.7444905402777,906.7109677211823 352.45754791310065,898.9733671264943 363.74355903501606,894.4940129890576 368.4104317148509,893.3407897378613 372.65534032328327,893.8179746599411 379.04216281448,896.5895922363094 392.61538451035375,905.0515119702649 399.09742833251687,907.0003816523508 404.0063549991429,905.7111575948946 407.6602776739006,901.299087768177 409.9072039870807,895.9823783936573 412.34596137610396,873.807504396433 414.11028431480497,869.0882340497001 417.0606830248874,864.8079707879623 424.97100313401774,856.3180675725068 433.3839850362811,849.2260451495165 436.6065449660735,845.6392642481609 437.9070623077728,841.3966041441415 438.28070972281273,831.4414935124607 440.4546009724635,823.1976399838633 444.6164218605833,815.9561355486351 447.72435882349447,813.0874557977351 451.1154773874184,812.0686647977413 454.2919919260354,812.7007748995802 457.6329464991911,815.4394102531003 462.0295261353674,823.643854156147 463.53704406188257,828.2856387461882 464.3865913628044,834.4707641108091 467.6032967273298,848.4427517919694 471.22655077979965,852.6940687129239 473.5959964814005,854.1517983751437 476.89235946627576,854.557627789144 483.5489940021953,853.9424793454675 487.48114026617026,856.5517843882785 493.3432617716968,856.7764333495027 496.92336533860845,855.2932637527026 502.4600060666245,850.840783685139 507.1183272579155,850.04238384936 512.0087666060704,853.7971833878362 517.5049922910603,853.0936335765059 520.2544149458339,851.1778995903791 530.2290814249335,846.4003346247864 533.0242406865667,845.6423109634952 536.5258349273411,846.2697897031983 537.5532002987139,855.3701771763157 539.1393815806149,857.8001950444893 550.7535718956474,859.4329807522549 557.16478970382,864.1037160613507 565.1030888762255,874.1222071975667 567.4219720983599,872.7847973446643 576.7093597070239,864.889207432379 579.6113249889769,863.7821410165632 583.2210714171799,863.8234493840579 587.3384488198456,864.9131989810221 594.6553537570703,868.4062585511249 597.3895753899127,870.575805627238 601.8638025364397,871.4161357246869 607.2056703370772,870.7306642610175 611.275802930343,869.2524778816983 615.2348913006174,868.7152664368857 622.970485919215,869.7449894062461 629.4676878623134,873.7141916062228 635.9479500543877,881.6693681708607 638.6100033496128,886.1867360812927 639.8596912022055,889.5516185242748 639.4991307363398,893.6520097244127 634.4650511006759,904.3904251814754 634.4227103110857,907.7904974003756 635.5765490336947,912.4476833268087 638.5304720294184,919.4092732356721 640.9139901424377,921.9439929017032 644.0042108456277,923.8740433943246 647.0365847925876,924.2908370743982 650.5209201811749,923.2784195536087 657.0923273681096,919.4233524144776 660.3549114971393,914.2128566925761 664.7182807603593,910.6199581768717 670.5594745153579,910.6342504977627 673.2261930367333,909.4143691505514 678.4715332857762,905.5842199734499 681.9739051293536,906.1585581058152 684.5342702309927,916.9038617103809 686.0605360698316,925.4383246877645 682.5634036598702,935.0362812030608 683.1930118789778,938.2855868938657 689.2661633143439,951.2129002375699 691.9731847087405,955.1673992347528 702.4718458726401,954.0704918526997 713.2107121574081,950.9742379793594 717.0142555395971,947.4482450126523 719.0798702849517,942.7617223297357 719.9914091049075,938.8896246709184 719.3666853154259,934.2163143488862 721.5509618715886,930.2270890615218 728.4349251754493,929.4901843120055 738.5022562456439,931.777990742843 743.9858111944664,930.8120391302399 747.9360100872856,928.6751004254369 753.3112570699643,928.0677538497162 757.3934279559555,926.6482459843692 761.5986574008513,927.2008169963296 764.5491840225324,930.924872127346 768.9859199519383,930.3202095041684 776.2711958502725,921.3822785083667 782.1945865834679,915.6170478231568 790.3086543420236,907.1406137241752 795.3018552766692,904.4079786979996 801.1457400711145,903.875581392005 801.3487825789061,908.9216450967249 803.1874556796492,912.6076285882273 808.1515270915062,915.8348331132903 812.2802618072061,916.7695013050094 816.1913579307738,914.8157396426258 818.9692388010423,910.2033119412498 818.8481842635905,905.2583979557317 815.9700481658757,899.956804242959 807.9209972498733,886.8029536890986 808.551723819376,877.4030949883901 807.6798444784263,872.8575288387129 807.8806091320498,868.2866817897502 810.4089437161699,863.3524879567767 809.7944764741725,858.903910318814 806.1304990366598,854.2594451727393 803.513746424801,849.4673883760655 802.8835353034935,845.3806217024146 802.9683364745567,839.7569309048745 800.1172004056059,835.6848229204362 800.5581144314598,831.0007384453479 801.7877156305702,829.7987808122696 805.3556038263966,822.3123998658738 810.0144784614012,814.9863463375818 814.8991120975621,803.6753684820742 813.99551946527,795.4648199934193 814.4476618211224,786.5941593536874 815.5542575822329,783.0378745391585 821.5535413498044,780.3862011398228 828.4231231506323,778.8372211698129 846.405530346045,779.7318287536101 849.7335724917426,781.0637876650349 855.7416746493209,786.6082612306659 859.7218499112358,794.6070203754439 860.4001120371896,804.1401627086279 864.1720675766684,816.5730474441609 867.5003064189198,824.5593527678848 876.393628095037,832.5479899602407 881.7233571659087,834.9804382918618 890.5361400990089,835.5672104532005 894.3055714220557,837.1770947441673 897.8742426620938,842.1810998585261 899.4361388848127,846.4930566602025 900.1734070118489,851.6346510459174 902.2326099946587,858.9928583810686 903.4692274713848,868.224739437587 906.6889936006872,872.9960108864057 909.886784842694,876.0083510726299 909.905030349739,880.6890275013413 913.9270870010102,895.8682702532034 912.209667908003,901.9621619318016 907.6319666430715,914.0559349703709 907.7733329111481,918.857641701185 908.75406237153,922.952098482144 915.5101573968055,930.8478485530429 917.65585341814,936.208694743812 918.6440253942277,940.8771579068023 921.2715669239766,945.5351951859935 925.6203642413636,947.601202935365 928.2495534061014,952.3735719708028 928.3593435546127,956.9815789875045 930.2438649112787,955.3498145961917 934.0377084279639,956.971150459602 939.0238074613374,957.053125429948 941.8155841257078,958.4724974815324 943.9038711869987,961.5700392448432 946.1210946997725,961.8892489721533 952.7355747793691,964.8495496715003 956.3340815143179,964.8650499762657 960.9607478711742,963.7906268377736 969.1435208578348,965.7660994803795 972.1667585954872,960.6051362161242 973.7175477767929,963.8952552435961 976.5283055612588,966.0515923033264 982.4448770735537,963.8854907327479 983.0654691305735,967.6880868212802 978.383156166086,973.916591157396 960.437496724483,993.9301893554725 953.9367134275567,996.7896192238048 944.3173608399013,998.1110781273595 938.3260543921998,999.4169280667022 934.4335881160514,1002.016005516096 931.828231294034,1004.8786867965524 930.7898424213485,1008.2527948638136 931.3138806011209,1012.6512449184498 940.413271300725,1017.5685949960604 954.7114289652781,1022.4686337662681 967.9730649728608,1016.2130549715149 973.705068772658,1004.2750091466721 978.9019947542406,1002.445182865302 985.9287911653814,1003.2049845929238 989.3047465759944,1001.6455393588902 991.3920925526066,996.710920442078 993.9919444877027,987.895762545409 993.2117676767144,979.5961083297418 993.2139214794323,971.0309701694346 994.8620591248449,968.3964672121359 1003.7634752058101,968.424558291525 1010.1632048548456,974.377376235858 1012.222927892821,975.1904441431833" /><circle cx="471.9557251884779" cy="403.5383555541299" fill="rgb(100%,100%,100%)" r="16" stroke="grey" stroke-width="8" /></svg>