<?xml version="1.0" encoding="utf-8" ?>
<svg baseProfile="full" height="1024" version="1.1" width="1024" xmlns="http://www.w3.org/2000/svg" xmlns:ev="http://www.w3.org/2001/xml-events" xmlns:xlink="http://www.w3.org/1999/xlink"><defs /><polygon fill="black" points="364.77839902002074,9.867121908085892 362.3430708848644,6.508694937804307 359.59198615680083,0.0 356.40068840854934,2.6215829961766985 348.1696481953873,8.199371431655777 345.5663641573151,8.981579876479827 329.45625204544376,8.614695358635345 327.48283744419797,8.743868964750845 324.97275293472734,10.26262740579432 322.10387530515254,16.526612753381755 320.7927664943967,18.484113833574384 317.59344804526796,20.600273088881295 316.0431232869538,22.23504239096735 308.1002957785719,34.543713577420704 306.75429972115006,34.8536205729647 302.75552124363657,34.437161526080786 301.0020212624483,33.89781826436854 296.39590618554354,30.028480202518267 293.3685887529196,30.024610085829522 292.12897387780544,31.064541083572408 291.0793909269921,34.10830401354383 289.231585257048,37.8467777337861 285.51389140685944,42.70957382210179 282.7256569743167,47.15871638914996 281.40336060162974,50.347854155365894 280.9027933213039,60.028831700623186 280.3686787935826,62.10036542991679 278.7388731431598,63.402115651152826 269.93912497534666,65.94105231551293 265.6715146859396,66.78100823724617 262.0230294472923,67.82099299880815 257.6573571245737,69.78733563027458 254.54930797894485,70.71341345466874 250.20089587268663,71.34036311571958 245.98798638440937,71.48408025978642 240.41083319836292,72.30412671859358 236.37483116318919,73.71928844686886 229.4818880775191,77.84162590132155 226.07172043750185,78.98929702410726 220.2773902614238,79.28995266093705 218.5301069505541,80.34156062791135 216.18923324822907,87.76682640714807 212.83284478808397,92.53187370388173 211.28649702308522,95.69440366143135 211.01285979094584,99.20593162841817 211.3398231331597,101.37077013937994 213.942978217424,107.17032193650869 215.92003854057126,112.28356808076512 215.32523631865476,114.82375403856156 213.17782284348328,115.90999992329421 208.0387245777573,117.59074061454271 205.37769775730226,119.18161557556982 201.05587189201978,122.67453678711877 197.6345666047913,126.7841280420107 194.790415293566,130.82330180141753 192.9838656312355,132.77927035644848 190.73421282414324,133.88040244884246 184.0793615358523,135.31213026277885 181.14733837006983,137.13020458430037 178.1353709436228,140.09953722407545 173.69226999099317,143.56968059429028 170.84215980925111,145.46784846388152 169.036022153509,145.92691709654684 164.33901478812567,146.3525193994284 161.30114910416538,147.26978928162941 159.37350908542555,148.62843889913665 156.483415610877,152.25153341267435 153.49684433812735,156.7041746604939 150.452455858459,158.6824904771637 148.53503917175885,159.52928898375376 145.9885981596723,162.62009128611953 143.57531393905316,166.648765542898 140.09634006353355,171.76956349899478 137.50810517295014,176.7053706682333 136.03948771152528,181.91190179606554 135.78051001762893,185.707177881343 136.6361581827229,197.58547136726668 138.17137594961042,206.89650785444053 140.86824956496798,216.7425426959477 138.1444731015404,218.93429196295222 132.6663777320289,222.77531037163862 117.1763238775513,235.47581483124338 105.05581039761334,242.16731273860057 91.55270425317123,250.91763322765348 80.09090974322326,252.81226535480425 75.61066598702487,253.0421625907261 66.3322236391179,252.27132400716823 62.75018604047695,252.6255731006862 57.690322660733415,257.4661832113062 52.726201247677565,264.5338176480856 51.77759671059043,273.8202595636167 50.481868082022714,277.90455427937695 46.43148437389206,281.33866285231034 41.21904741094935,281.31973240740297 36.22560145465493,280.55679819094814 30.549828596125682,275.4961278643973 26.51820659360048,267.7325441478539 23.86037077984865,264.3075563157539 20.214643598245626,263.6397581911169 16.43193878866458,263.79605556148715 11.281700071127705,266.2824451920227 5.9515239045807835,271.0274385516659 2.3144809903802637,275.6009423745171 0.0,277.434864116188 5.488264549846437,284.63486145199965 8.55425223707644,288.96002671003225 11.2541673675932,292.2768021227105 13.967743984511102,294.63332214536797 21.616805006235552,299.8763061974071 22.368434975425433,300.597938116725 22.491625257026637,302.47075145747954 21.912896019015328,304.4291490376231 16.676815280212445,311.74243799361966 15.86573340153821,315.0323638477645 15.712851077289045,318.66084424374856 16.74601259037794,323.10836332352085 19.474015929306344,327.4412050286155 24.1087697110032,332.9301558818514 27.61180004643367,337.4409195808079 28.572341688956502,340.6585977736546 29.098389249083564,346.683929444201 30.59077838311634,349.9714831026214 33.210554515765786,352.48791658336745 37.84146522904767,352.94350886501184 41.24939672074821,354.85443805479474 42.597626647933495,356.7116915059279 43.85391423751524,360.76878017335514 46.754705371239545,362.71027778432165 49.73148770862464,362.91961046741426 50.958234569238655,362.59453812259005 52.79401600682875,360.46819981361875 56.52784058141179,354.6668058258823 57.35955468066093,354.022418826695 60.259260328447695,354.17660025538055 63.882764099607435,357.31383599009325 67.14704732446818,358.2047598462116 69.43441389320708,360.20444262744377 72.66318987319399,366.50205220093744 77.5204142941144,376.3554329418489 79.61717663043804,378.3910380806386 82.55394447225216,379.94619457699605 92.18598574072126,384.10622802101364 95.57849155344765,384.36240593095204 99.9317655480306,385.1204689597995 105.8751994124744,386.61840657450114 108.28285639114614,387.44673100340344 112.4367658356195,389.7881053243832 115.93506355052332,392.87091644743214 117.73500848190217,397.0793665674115 120.14910967238065,399.5241961778539 123.2023062979908,403.1982906418027 124.37278063195836,405.2425362835751 125.90324018040187,409.5456265838245 127.14599934098354,411.2471557096933 129.89562720245527,413.7409670262964 133.31075711828356,416.105606609864 136.2907061385185,417.57724296201474 139.8331165086112,418.89682790738345 144.85500386191123,420.4029675888927 150.55742801879285,421.6595126011587 155.09500319178292,423.60624373376606 169.03126846027706,432.0278586954981 171.28985141013874,433.894985094326 171.9940252054333,435.9941903481468 171.5691685771868,444.51725442539237 170.66484442832203,448.5423297221437 171.0301139912983,452.9229897395012 171.9428993335065,458.80023734390653 171.57660028852234,464.87155886857084 170.2592613040139,471.44505615184306 168.96503389435517,483.7839431774423 166.7868338410934,486.5188219032773 161.95549084726397,491.6964753329307 159.21022672270988,496.49702261768937 156.80995288882505,502.9062359035393 156.796703069127,505.7800339809574 159.94568238468918,513.127171141168 160.85641679224756,514.141653873846 161.64526447644468,516.428364986597 162.04096514497988,523.2649891217201 159.3059030775725,537.3109668147442 159.43789803462874,539.5308951856548 158.999559759933,543.8671320047713 158.58856856405566,554.7328050287531 156.7891997439074,557.2945648760209 152.8961732838487,561.0797389848906 147.1773257783683,566.1072817510136 143.41958694296457,570.3502141230955 142.1370096251057,573.6703392034507 141.68030902932855,578.9542660825567 141.6759256867369,588.9262792205263 142.1471852050952,595.5779944026697 142.9368252630646,601.5402478797115 144.45083344645903,606.8225406844438 145.00601972286802,610.9461674924748 144.66179386034727,617.6168478623599 143.40904627215053,623.5697630051783 143.12131948522062,626.1531076614265 143.75428277187441,629.9781055781784 145.5174703420907,635.9998087666547 147.44034124549185,640.6410485952827 150.30773069087184,644.4771983867536 153.50459779011143,647.522556097058 154.51025484028986,649.15375798727 155.12406192205887,652.3413382440472 154.92016213752973,660.2465637563909 154.22442599383322,663.6919858296045 152.23139391274927,667.540207557671 151.74819398696258,669.9639081069315 147.66978862372622,674.0816650383456 145.32576806708292,676.0749869691097 143.12850058561415,678.6269436204071 141.60745116710015,680.9168703755552 139.4604606870404,685.0590916466921 134.39323974964591,693.8540387856697 133.63412854042772,695.7346815689526 132.71826093872926,699.8924711272981 132.28833369854104,704.234750220258 133.6611920121363,715.5325283786176 133.4889265982735,721.1760913003457 132.64239742136724,726.5953242527776 131.36352294971886,729.9152788621129 128.4859160328507,732.1924082687215 124.03016918539444,735.2765764984792 119.77803029061664,738.4885879665771 116.82523016567285,741.1841683887092 112.74689522110633,745.3583011130224 111.01486280391721,747.8045241002364 109.39702709010952,751.1385480786885 108.93325728180712,754.420594054301 107.95415323633544,757.2156578788106 108.20031488790664,761.1064843353923 110.14803202827389,765.4694671366622 113.79919764162747,771.3465581117265 117.37343696747897,776.5938708181355 117.81719403359864,780.9221857519461 117.32508060376091,783.3649663174604 114.54588526810424,789.915116335256 114.09739036124891,799.2531549134246 114.9614299728896,801.696104180592 116.72149296060296,802.3752868515309 121.29128216459503,802.4399357492163 129.53408945716026,801.2194457067494 137.1254467583192,801.725332319027 142.94616597137903,804.3625621080524 151.15470340062592,806.4642187993894 154.2583786564585,808.5139708705226 156.4528946486084,811.1784923413636 157.34797943620964,813.2164518615634 158.26155474427327,817.7737843984834 158.276199372923,826.6464404334382 165.63932148825293,827.4791440969603 171.4772360928382,827.3810098505172 180.02848578174937,827.5036718096278 181.24133632698098,827.6648306683129 183.01174893805174,829.1581350546658 184.27773553843173,836.9469493047765 185.87097309843315,838.6843597403521 187.6711257422725,839.7285620048252 189.93247763103201,840.2693881203147 195.0233168291215,839.6957356743693 198.93502017080112,839.6421803522517 201.78401598017567,840.8891391573321 204.6581969087794,842.8301737131706 208.3676299915113,845.9515492159896 213.82284534239054,852.5496453484354 214.35352323497543,852.5372148809028 222.2910080850039,848.9093318257735 225.49495539414207,848.9226094311073 227.2628973928223,849.7273933948903 229.7864909564402,851.5501542891766 231.76855590265274,853.6824317996779 233.87436298670576,857.2832717962865 234.9238673282848,861.1236272427154 236.79952632744974,861.7616393402128 240.2502024291381,853.8495351949803 241.67941510997204,852.009757661039 245.27555145960153,851.6220911664087 248.5157732801743,852.6068789665603 250.7566639949668,852.6488980838562 255.66212432902242,850.638848465258 258.62574376595023,848.0239773384823 261.8273168605035,847.3675571989172 263.1487965061177,847.5890397775293 265.9151747409537,850.0500042334543 267.8068318056072,854.5840694234703 268.46021984696523,857.5053198324379 269.24766378845715,871.4121732580412 271.00948222195797,874.2188720803557 274.3328317500659,876.4456103316746 276.51727559818363,877.3034924564212 283.6375059563244,877.2364734207641 293.4053874552068,875.5341957854065 295.57733911902255,875.8617658481356 296.911936016912,876.6322600666975 299.77860499599524,879.9179294940828 301.95882285943367,883.4219159794786 306.6716978209435,892.6824258764311 308.3102345491858,897.9927791867974 311.388194887252,905.1005015554193 312.0482431797768,913.5601443699431 312.94174831774967,915.4841236390228 314.8976172969751,917.7934310498665 316.5031687531737,918.6900640953265 318.5307295511044,918.9388301681331 324.7572570131936,918.2227870519978 330.83849729130196,916.651186835048 336.75577881595046,914.0034383981651 348.3043257156354,907.3881992874077 357.0702384968126,902.5629642684809 365.2882562926053,898.9126089802701 366.82983574051246,898.4337758915897 374.9708578079666,898.296423331028 381.44788407411585,896.1271577638595 384.7785886236063,894.5129353644301 389.8523154780414,890.9560564327112 392.66010338142786,888.1922099090954 398.3005029465734,882.2154508987138 400.20580881970545,880.7172866357267 403.4278165698479,879.2317920755196 407.95532920598686,878.4096952736771 422.5065570522092,878.1933926458145 429.5182728252962,877.8734741732892 431.8402236640232,877.1924597713158 433.13267302411776,876.1951317974892 436.3270061288613,870.4091314011137 439.6630095007841,865.1375626366275 443.6055849566402,861.3418278634966 445.17246691398253,860.2557469956383 448.21831021377403,859.4372035951928 449.7857784367073,858.3763495604603 451.40092955516786,856.1459660874573 452.40940723052023,853.9238714761194 454.08089645052434,846.2544388328309 455.6572935232129,843.7155037638536 461.164218879968,838.751373319112 467.20544021843824,834.6710670778674 473.04373530114333,829.0292941806391 481.00542462557473,817.2857898092932 484.10034636862264,813.9016131945433 486.8842400166738,810.0196841168395 487.5370077950182,807.8629151985513 489.8475573341907,797.3294743323931 491.7607925300825,789.9255227954757 492.06327876671975,784.5436412327765 491.78851421131577,779.6430841956698 490.6651155482802,771.5673815981677 490.71863493593435,770.4608590769889 492.13317188623625,769.7382208476527 499.1300513486421,771.4697689200972 506.6677771284495,772.6891383093688 517.9894237433357,775.0417307931972 524.4550332654342,777.1141072280379 533.169198557474,781.0200622733164 537.4446159883454,780.8971116875996 543.6318928768618,779.957056685309 547.4474421866886,780.1862277512288 555.39147274453,782.1336253927645 569.5933366397057,786.2080332344874 574.0729966455679,788.0501455503888 576.2616569887473,788.154555122187 584.3775355288934,787.6277063453492 590.5857043430256,787.5389482945536 594.763655372608,787.9861160956691 603.2035257567888,789.7561283001653 606.217522972535,790.5853738432091 610.6656997368241,791.1330998650518 618.9268216146124,791.612420115174 623.9344489393108,792.4115040607121 629.0919034594699,792.0447477810617 638.5208841043034,789.5770512098779 642.4419570313879,789.1900028191501 645.2050747857317,789.2482710421352 649.3142910470291,790.3407061247273 655.7394808160657,790.7254734338162 659.7764184803617,791.5985235113594 663.8221229577892,793.3681460273831 669.3840146824504,796.3697450455478 677.0345782810774,801.7385687630606 679.9494599774681,803.5991253188106 682.0566094246767,803.6480717563751 684.4807160142966,802.6218048965966 685.6193722600719,801.576800702233 687.8279631500214,797.9727021624044 689.216978320686,797.4899065807188 691.1897537877156,798.4200129309867 693.3922846561138,802.8622923683513 695.0832965189733,805.0246118768317 696.7910817485131,806.42230282817 701.3563565266398,808.4375952190895 705.6368348568656,808.502008638588 708.8613433052958,806.647311082595 714.4659912501118,801.9987865296362 717.3487093236778,800.3988061482129 721.1366093737881,799.496315939882 724.9142979196116,799.44035289469 728.9293727578615,799.9595002671753 732.9656590001003,799.5370240019483 737.3643616292852,798.2591677859456 741.3292801622141,797.8383723617687 744.6908461848495,798.2725610127733 753.5152359102874,798.2358337112952 759.5030447692078,797.8844007714478 761.4752638355051,797.5320357953038 764.9158149766173,796.3030072123314 774.6601525182251,790.9438200222305 779.8448457275156,789.5257886374418 783.3318733070452,789.2680526639404 787.5007152507668,789.3342753078812 790.0646349111923,790.5206372741844 791.0208415530486,791.6461816328999 796.1023299263173,795.3715914126939 799.8981017742203,796.571239059984 806.2459469484825,795.0984136604972 810.4536874668676,795.4665596420883 814.3291631251502,797.7061740969307 821.2591251447527,803.9554003988686 822.9692646706551,804.537711857624 830.8337675850834,804.4663682559043 832.3187804109018,804.612185896551 839.5485580220216,808.9271995724059 844.9983074573277,810.7668701631009 854.2199794098786,810.7176857398204 860.4935289475022,809.8331573671531 868.1385061354189,806.0085818334799 869.5392922981697,805.6447855756833 872.8051117085374,805.9854690310717 878.3883237202461,808.1560127643486 880.175324819903,808.2434743998671 884.3024627429685,806.4717117436672 895.0223302143844,806.3835807115511 910.1063499074737,805.7802431742892 921.393992939368,804.8558511379548 930.5791003612651,805.4751238572956 935.5571626956082,806.6433122051251 944.6936337642477,810.0803870300012 954.7973196608452,812.9430981105437 958.7210067424952,812.4767446116298 960.8286809434119,811.4882306090088 964.9225073776977,804.5751638841052 966.046225510832,802.9738075141545 970.797844004918,798.5892190101571 985.6315154698491,785.9381474294933 1000.4357948704162,774.0956113324053 1007.3208905831813,767.3378461370571 1010.5057472880616,765.2224092824157 1016.8629329094637,761.7244272509245 1012.6786222731172,757.9221759156337 1010.2577456130833,757.1189814793261 1007.9318478849557,757.235476654674 1006.0392807386033,754.7639062179958 1004.8563530196934,750.9098729440008 1004.0404567575066,749.3644120988313 997.2071454693987,738.9727958305589 995.1167310233529,736.259918193478 984.103621044281,722.8928857703859 983.2937642744484,720.0082337628432 983.4449748939921,714.06099113768 984.1343964615705,706.1356949775237 983.9721545575727,702.5839249379388 983.4707182159821,701.466185377823 983.1945661184564,695.030906292052 982.8106041233083,692.0532497365323 979.8581999269865,680.03989991507 974.7179868351877,657.8126126808446 971.0505860798853,642.2362995724366 970.6025471823204,636.7464930012562 969.2452098690251,631.974685050802 968.1900877407148,622.6223495176857 967.2312344242862,615.4655282126917 965.5995357718144,609.551203045722 963.0726345693587,603.3313034823805 962.6394944655176,598.2453339430164 960.321927725046,594.2812094335532 950.3799411336737,583.5387441472931 948.0654931386147,579.688159179341 942.5869461001535,564.713611998747 943.2076283793674,562.9987832424777 944.7563075455037,560.7802776151298 948.3259268996322,557.903887062216 954.6037171448778,554.2193714152304 961.9158369119401,551.5820452507954 969.0488362898467,549.441795141922 973.156800324697,547.7514270910774 977.4024335218257,545.3437739505846 980.3692709441674,542.7982695867273 982.8547899070094,539.7408299489739 986.6576435659813,533.6305532670792 989.3039787143193,526.0655902141552 989.5963410624023,520.7715532530384 986.2108263517158,509.7483394948885 986.1239945851486,506.3588377154754 986.5246876855373,504.07478928585886 988.4819121162816,499.90024925718916 991.8615112305357,493.99652818625145 993.893735417911,491.7085348844874 993.7177360121221,487.62654782399363 993.0268472094056,485.0230919997491 992.8786014217749,479.24136846606115 993.2848296224653,475.6118406653256 993.182214844356,471.61007923070315 991.4665791397119,467.98442821361033 988.0736207377606,465.7028741791635 987.2216536408367,464.2909597430346 987.2140294239426,462.4279134347582 989.2677025863889,447.07142284981904 996.2164596590729,444.2657319427477 1024.0,435.2335544438887 1022.3540538010707,418.03923668119535 1020.4698052705709,417.0455575253578 1014.0705586592647,416.9259043909409 1010.1329209000786,416.332342046051 1006.8886233647017,415.48723120726794 1002.2686025757752,413.6605258619305 998.1679223332599,414.0058032530028 991.5178042745191,412.26895574362567 986.1722273982671,409.4311351093972 981.7099738449552,408.18752594426627 977.3100905480303,408.8560367148212 973.5412638861916,411.5421155726841 963.4560348152669,418.217237745828 960.3942724972833,418.57972833195214 946.4028364774283,423.636196671285 937.5323697550732,426.4141317836448 931.9332148764018,429.00745290396236 927.9208402647319,439.30372495285906 924.3230029260671,441.37855818400897 915.1931990166881,448.88057302950574 909.8156211270849,456.0027808222359 905.7918931178777,459.5724970701409 898.1050293146124,461.0813949383689 890.0402200340352,463.50921101642217 881.7781943240831,467.3060883605039 873.5520527865643,473.58403523430337 868.0474327279637,477.14024787150476 866.5155423749222,481.0822568846925 865.1135058151428,485.75362552182025 863.2881353268967,487.43560700128904 860.0220380142819,487.49920677882926 855.7996184320531,486.41216543950253 850.2623917928321,482.5097745526815 847.1019228021123,474.2145948237837 841.88503468667,466.38811777061073 839.5994801368004,461.6645876439455 837.124339504338,457.7290016658087 830.1748162269288,453.29981348216387 820.4338586055638,452.18714288929027 810.523030886048,444.490975639801 800.3044595008274,436.9475480770976 794.2170615094882,434.3339844019442 789.4769577051173,431.2317878280555 787.4021040002782,427.94270753146253 784.8402370933579,423.00474340052205 782.9507264086462,414.48142665072555 781.241145426607,409.7557667944582 778.4431206365535,406.7689809447364 775.0963419654621,406.78333919191084 770.7408284131195,407.98504302911596 765.8153000864921,411.8788909141802 761.8228256491013,416.55145220002896 757.8062948061697,422.4056342469469 754.2679728556778,425.4625155091791 749.6663937306718,426.638516807459 746.5125548356715,426.7109405392269 742.8460304609156,424.09925414633005 739.8903560478345,421.39401154017315 731.9076905883693,417.4561562986124 733.2320090380816,414.61890658644006 728.0979735265739,411.2352274270818 719.7219269336808,416.5470056847026 711.9475265891006,418.2814811243984 702.6503148293136,417.92517962088516 690.2932155517095,412.08031628080164 683.7796784256878,409.48182757805245 674.5371471824922,409.8813531417138 667.3551718598403,408.72018290630444 663.7099518621304,407.47772696430746 657.8480295677332,402.7405555817535 651.9014065572708,396.5527551135841 645.3535530942307,392.539706993495 644.414338089186,386.2660482756826 639.8662786703617,379.30459829202846 633.9928500979381,374.611565718954 632.4266287868297,371.09439301196414 625.0797242443482,364.2838662725384 616.1230315188436,353.9759867493917 613.8549851141886,350.5391719749846 610.8603125132938,347.08863777833847 608.5966547646093,343.64536991800605 605.6432525908373,340.23799227295024 604.0909545323234,336.7266865437957 599.5631552579001,329.80849646396473 594.8768643691138,319.33205902616066 591.545853690973,305.24758551545904 591.4144056453027,301.7076702693852 590.5531780825619,298.20461509979714 588.9876692043628,294.68726395587953 586.7332714145509,291.2373358493476 585.1690648323608,287.77046469459845 582.2152310727043,284.31872180449534 574.8315283438488,277.53344667494025 567.5167938217895,272.09791298007144 556.6661300335675,268.3466093856938 545.9138607471372,266.6073029410833 542.3441917840175,266.73868345258495 535.1651375536298,265.5560065411031 531.5673021387573,264.349035225526 527.9838008781263,263.7290410731209 524.3241099572401,261.8098314383093 519.9290307320987,258.41167305678107 513.3361891930929,253.66486846087264 508.8992460640877,248.1707898680787 501.5476061785839,242.7980389732512 499.31952539465607,240.0164367796582 492.0082633811858,234.6425229319252 488.35198754204555,232.65972859088765 484.66636502083963,229.2818443648398 473.6814144557657,221.17988813778504 462.80170576071083,215.19713561756043 459.21576317050443,214.6333834671875 455.5763635634077,213.33195595850702 448.4223641367238,212.2038426973337 434.19608178494263,212.7746332794303 416.55499105429266,216.92593214134877 413.0092673932952,217.8449254820108 409.51416940622966,219.3879121236837 406.58633108389427,220.0709321459052 408.2735717726517,209.66010815995332 408.72365466668407,205.59465229116154 409.1853313764654,198.86372116183043 409.27825762163167,194.57949001473014 409.0306262936756,192.43181688834557 407.6803015889148,186.28760904031935 405.7811273511718,175.09777596898198 405.4283067697556,171.53792900050246 404.7236571429821,168.16337889236115 403.31242202453626,164.1110959121021 402.26310446026457,162.33005088336927 399.15363259790104,158.95645084204887 388.5538523682057,152.81328319748593 384.88101790962395,151.37935284967102 380.7890202220145,150.10701267744616 373.8502323495862,146.742911248381 373.36693751667804,144.6008686196492 374.3701886329722,131.45930587400437 379.7092454257331,116.40751357961119 379.20438726350477,114.48072525824614 374.30364698865776,109.17309799147108 372.7444771511175,107.10104793078779 371.80185581641047,104.7426479527212 368.06079758398096,99.13558437665972 364.44345517632365,96.64543619669928 361.05105310529007,95.55193550156639 355.057767799947,94.24904326329238 354.8989651437763,92.26342599146165 356.71592331544764,87.24958681947487 358.55116605475797,80.0248347069055 360.83855969013877,75.13865413830865 365.3607232293045,68.19689497552417 367.0098936289734,66.04166528162966 367.85487302965566,63.027821155181186 368.2873543601577,59.70807542796945 368.0714297416657,55.898613005609946 365.93135088831457,48.52270624443395 364.6274790775933,45.57296106525257 362.3932525935813,42.99916298910318 359.60252203637333,40.981815882159026 359.92422552057576,36.938435703915275 361.66127804203614,31.57909992213365 363.6305620148588,26.624706451905467 363.9564249927683,24.05907464894608 363.96928938101354,18.090500887550093 364.77421710564886,14.338686327243067 364.77839902002074,9.867121908085892" /><circle cx="582.9682868546439" cy="447.3790121219875" fill="rgb(100%,100%,100%)" r="16" stroke="grey" stroke-width="8" /></svg>