<?xml version="1.0" encoding="utf-8" ?>
<svg baseProfile="full" height="1024" version="1.1" width="1024" xmlns="http://www.w3.org/2000/svg" xmlns:ev="http://www.w3.org/2001/xml-events" xmlns:xlink="http://www.w3.org/1999/xlink"><defs /><polygon fill="black" points="729.6728732785597,302.6304078928482 728.7531897963571,300.20730711313684 724.6953477859,297.8141198461907 717.0056319991429,297.7947167341239 709.8410037846891,297.0956560225094 701.0570429853659,295.96299506346315 696.7263680460903,296.3405674717296 694.9336556955551,298.02243747696025 692.0284488876696,297.38542921758835 688.2205083838375,295.31574011390956 684.2044278050902,291.59296718083135 679.7402716442324,288.0898376182505 675.2093367290437,285.3624339769633 669.7760233893729,284.41097461430525 662.2445514484665,280.15829144249926 652.1775168953543,275.8151019679269 648.4428338278652,270.86515857248446 639.054239440168,260.30439056455555 636.2834612276334,257.8372944069465 633.4251047433896,256.36180293432676 621.0302121861039,252.0284661372924 618.296143946384,249.3861374301439 616.7491375376184,246.74535555558384 611.7889086024707,236.4828361674647 607.7568162282947,228.86983476815772 601.3958107102026,217.94826603297122 595.6803572537996,213.22968991245557 591.2140724206666,207.93714567861457 583.8518620310947,200.12950110662507 581.6725980200881,198.5958440188973 576.8027739640493,197.51451407776256 566.5809789158398,192.15857580811473 559.3491872061958,188.9931876932335 552.0832404170026,182.50939435341445 548.815244227102,180.1987405780261 547.5390701035744,177.44373799232415 546.1130232291023,168.37164051463753 544.1803785773645,163.0789486332642 541.3334183981921,156.33567155984883 538.5787214280157,150.92986145954012 533.5701438533865,143.55039694018694 530.1344647625277,142.45575037879757 523.543428890929,141.39685088626675 519.4106355055252,142.53233397472684 507.8586967183334,141.94212776745246 503.03616976833973,135.22410899346733 496.39505896031915,127.74676790518492 491.22269823020054,124.90046524788806 484.6920246446034,119.97161324851731 480.0536858357693,115.68148709905324 479.1146264362355,110.04648498605513 478.1841149716174,94.89461112782192 477.1577193855805,90.57629398829329 474.74347382809236,82.30181860205255 474.98324843359416,66.03186990899667 473.62300135392917,63.81764763091098 471.6264459482505,62.181632166087525 466.00964262122136,60.33900158447432 462.7466859350258,57.93563334934413 461.4606578340729,54.62032872979694 460.3379770450682,50.20336587813563 460.243173381206,37.80364297610663 459.6338235651255,27.29546233165729 452.26790977310856,24.659610206527418 442.8406686751494,23.486689928926353 434.99947176565587,23.107339093650694 426.3612180665797,17.61480789868665 422.0341591304403,15.27142282699026 417.32449633431185,11.737904441891487 414.5732037300453,8.607479394666939 406.31504966510437,3.906705778818491 402.79112983081865,1.1701310467475423 399.65123207625453,0.0 392.5706730722176,0.3965582857699701 386.6680470403308,3.957194096770081 385.5381261908799,7.553902098419485 378.8069117174727,9.853683637429754 373.298154991182,15.356729422826675 360.3318452013251,22.064783772789497 354.8172547259655,23.651581487904764 350.8838907704265,25.239311254151175 339.0919575058386,28.398247381486158 335.16298626549104,28.4042290563375 331.2247601600711,27.237906205229137 326.90120452218207,26.46251329856534 321.01573244551633,26.08239883823103 308.43569310252406,27.2878736252502 303.72305494777646,28.470326641910788 298.20246117506247,29.260817414859275 286.0402247791194,38.710027462166295 282.88817662936486,42.62501747800002 276.61099080190553,54.809860502994525 269.1413328930023,67.36976556552668 263.64400160568573,76.0118214894402 257.7470544808484,88.57495992554425 253.03618166373357,113.7085150844606 249.09948770524875,132.54813908589165 246.4206312001133,164.5568053043596 245.55326685691622,169.20475929200995 244.12325029005999,172.3159632684402 239.6289821342311,175.87515632069176 236.75960342325726,179.22082060336822 235.34028563787678,182.769946077736 233.7816377724924,193.1820787339343 231.48657104179733,202.70870792741232 230.79866416720031,207.58306784784963 230.16512091091803,223.96363864472198 230.90757072430418,227.06345531128386 235.80664268413713,230.80242878146305 241.06244866808956,234.31319679879152 240.6471810572057,239.636014486288 237.64019414534692,251.26498442436196 237.3336821453746,258.9058843313387 237.883534250426,262.0068125756818 240.70114355645157,264.87165326773425 242.26109339762286,268.293335592797 242.28576694789604,272.38822767720626 239.17739205118446,282.1422585171962 236.5083135671738,288.03127610306626 232.1902165445463,292.0305649021143 226.972380463339,295.2701047729041 220.74894005052658,296.6244138685755 206.06515884513095,300.23321870188784 199.30349147382432,301.6923243497421 190.20156963100115,302.827207796151 183.59542071546073,301.13768899104514 181.20596810435143,300.23210290416785 180.42094526566277,301.4001229864798 177.7259390303958,300.6193885097324 176.3619854800999,302.55723348432275 177.10639175191852,304.64766146672196 168.48933128759938,305.76814620408595 160.64736698772876,306.45436445881796 151.82869307287763,307.5748977162085 148.6750345999357,307.58151170371684 143.34741574565695,306.14847457156213 132.78646413373815,301.1884597687965 115.57815044888085,299.77487471148106 112.7868820967959,300.3315470332433 110.99182812892923,301.54536098450455 109.0242331959801,305.42782357903593 106.71800305870514,313.1827493074836 106.5464909079362,314.95130669628475 108.2116042563208,322.0342203253007 112.61487647206862,322.35930781735476 115.78543945015265,324.23236115201814 116.44003938090815,329.43969453353657 117.81752964857694,334.30792796512424 123.77327291343741,336.9536903022081 128.2901408240281,337.5035801390603 131.09131744929684,338.71424916524336 134.8810391283534,341.6993608241105 138.52414486018026,347.893686778629 139.6226790674263,350.88254190270345 139.99331128911146,354.3133015601511 138.48763456190653,357.9695590580877 135.08155909871732,361.2883848274356 131.30307604633708,363.51730520179785 126.1791434977838,364.5141625614641 114.37896267976475,366.41424526426454 112.5859063036826,368.19103914800667 111.87821624499243,370.17792575809824 109.85806544793239,383.2412847104912 107.16585203011597,384.3585901240075 104.18566516531051,383.5863971346265 97.04804469681382,379.3901526138876 90.44712369933501,376.4075788951204 86.56818588204759,375.19963963512214 81.68407369439645,371.5545742340456 77.32889556539926,367.57823909553065 75.16234369619605,364.8096563997407 73.43971068669644,364.15396902929217 66.52036561572106,367.81469758430717 64.17977866251469,370.8101145567904 61.4232941095694,379.11218058286954 61.81920983920639,385.64198406600224 59.96042771210545,392.3979855387171 57.707305941312214,395.06602825303526 51.50353197664349,398.94849880253855 45.485177220457366,405.49930278363354 41.89828341281864,411.03601435108396 40.20177162682175,415.9103730124283 39.16834323533978,427.21407578773176 35.31136532075343,432.64059070342773 33.038684363895676,439.6239141994795 31.42495045929265,441.5647936279365 25.419154465974884,444.95575107884883 18.609895075547595,447.797254728657 14.294716504950832,451.51911133394844 12.765124588033057,453.9077293269487 12.468830796348884,459.8314208115195 21.860302443036602,467.4410545716228 25.206076734239446,469.53273876572587 32.47182176243048,476.48541180320603 35.91413615626002,478.4754476246144 39.623731440832834,479.78826969021077 42.42847032317221,481.33099265637657 45.5241175632107,484.3131456900012 47.97768461519445,487.4128303467919 48.7221006074457,494.59980248974625 45.42184740022248,501.1413843777394 45.69389208111437,503.3612531434702 49.63191235978649,515.1896844821956 50.899361001497844,517.2920189628242 53.62818864501925,518.2821603204312 59.961280543446534,522.037819591489 64.13041665918098,525.4577344551067 67.21505370646625,528.7680080723877 70.67915471462729,534.963172141833 72.51087406144282,540.7262648014237 75.16173597322279,547.2520243679867 77.18367623802348,555.2147182196819 77.64634428314577,558.2019252204549 76.03475646397607,560.7575940487711 73.61093246541719,562.5299789267162 64.8628310504509,567.9650566526268 62.367962116834455,574.0668404085479 61.74966599149402,576.3832419704565 62.12277436126615,579.1553027756268 64.49587240191427,585.5730316113536 66.5876119823352,589.3397328315436 66.07214258891668,592.6601217795885 62.57987004932925,601.6345029793134 56.4692412943083,607.9481214632394 47.55743176699319,616.0573413374814 35.71848186424656,618.0771499289596 33.56069725750415,621.0659543021495 28.802415667469127,629.0543216891302 27.94352450063415,639.5748994285111 27.978390402425756,647.4392118475848 28.99234324077579,651.3053432076182 33.8941701635431,657.05008062817 36.85783277736685,669.7780311019269 39.245201094497205,679.2932592157806 41.4347221025963,682.8271575559793 45.1490141075848,685.8133641790494 49.04883221878425,688.242499103435 56.579432566635376,691.5479662439367 71.52270919640296,698.4953444737969 77.58773508763034,700.699509934743 84.13516676741366,706.333658066007 84.50324629220337,709.651517169053 83.61701955401706,712.3097964113574 78.30281880489956,718.524581476822 68.72156581198654,735.2623748043998 64.28384993296707,744.7321809425248 62.27459280058741,752.4896347115933 54.22898216516885,750.5078254445796 53.60509004891131,751.821435462841 41.40451439615677,757.40237905338 32.00048435578857,760.0779980484795 27.16156594020881,762.6935340457003 20.525610346417483,767.364986737563 13.794580237759732,772.8681354858826 7.73363974851924,775.7124132025956 5.470994320681524,776.2251407127857 0.7612846726875319,775.7933827962744 0.0,780.2763302097403 1.2571383877820088,786.5337454224895 5.849224644839792,790.8930283757109 10.129008454772045,794.0317576947374 11.039999655947383,796.6835143021717 14.316710456912205,798.2265201902816 18.03174045398035,799.2062952272925 22.110632506082236,798.972901353884 25.283912952746608,799.2960693989353 29.27536828083158,801.5046310767402 31.01794240994307,805.4838340408178 32.85633897833329,810.7870012536499 34.765872012846145,813.4444228566949 43.864405270487694,822.1696018097748 45.233321362802535,824.7078399947161 44.80636531448807,831.4670173244622 39.77420476108826,841.5597218072056 39.79012506201994,845.098253353253 41.98525037267133,847.7542901908624 46.87829315916304,849.9582865895225 58.03644220170944,854.0291777603184 60.762842577027236,854.5812019349493 66.90921059441598,853.5685976758268 69.71445942021673,853.5656721650859 72.16498630921956,854.5585334834598 78.42600418299106,858.7535513028097 81.77773590734918,859.9592528451966 87.32204722989512,863.0502138786837 93.50114596739498,870.1384781289869 97.23017378188682,874.8908509433425 100.71112563070771,883.961524302357 102.63052958544398,886.7326269118244 107.40545257957166,891.8183588945525 116.25171281676414,897.6209590526848 124.78494830811448,903.5905834126327 129.9087372072863,904.6817145103429 136.87684697223915,905.5081431858929 140.70838666826293,904.9440708138325 148.1647503363771,901.3868896465328 152.408239209971,900.666319846191 153.22861434194334,919.4895630019524 154.23703717069802,928.4522463725598 155.64704524460828,931.2783829565914 159.1962956264621,933.7628392851543 161.68548302791248,936.0783603928788 163.79892249365744,939.5662720125372 164.2167745121378,943.3319320402607 168.64902587260772,950.7890752578635 172.5708479164556,955.7660089914001 180.32234951022508,964.6540256456658 183.128658503118,966.9794083772649 188.48619276318232,967.9028719419448 193.82334214507355,967.679787321488 198.58170099278735,963.2383900402031 206.78550723857032,957.6291147685474 213.88301489222704,955.4736346816653 215.4744695886904,955.628769615875 219.06683519239516,957.4971812090268 221.33611778642202,957.9871421488582 229.17498543909537,958.1776968748887 232.75140220064955,962.3131151837792 233.4940033533048,967.4524429442503 234.89536279358214,972.0523052719886 234.73761265175443,977.2482505065711 236.31092904769804,981.6725494813411 239.58342963700335,982.7620506193414 243.11861384470242,982.4022922586922 245.1952565866798,985.6239960976278 247.32219556375225,987.3669452439598 248.72313946758172,995.5515097851822 251.75584616621828,1000.410092572758 252.33123075269503,1004.9445775844437 254.07625803218113,1009.0305556271643 256.37366857467373,1011.4602235238349 262.00736990371536,1013.9740207002969 264.8488061171389,1016.8314557824366 269.7958675413053,1024.0 280.5923955271709,1020.8311576962344 291.2950158862647,1015.9902741361185 295.9203764166873,1013.4047006467089 303.7279393684247,1011.6919582675116 306.8201606919505,1010.1099507627589 313.43571163775135,1002.9833459182441 322.0853813769749,994.7138359691555 326.8156721587287,991.1717033058735 330.35504701796793,988.0171025874316 338.2048035225033,979.3616492923594 343.3383698561223,971.095161989132 357.4084187626862,950.9852260421239 358.6742540602255,948.26616520197 359.4600349000792,943.5499841435567 362.6251767240304,932.1372066379706 364.1918477956153,927.4259400504869 366.16365267202684,916.0228878429642 367.7215115834218,911.3013611997792 371.27770698036466,897.9383195626965 374.0452604294643,890.0717884686288 375.6099230289068,884.181362778524 377.18464378082683,876.3127098253833 387.7624051247991,874.9472235226349 388.2082181557931,865.8029156058999 394.6445640712237,865.7081222279262 386.6348700783055,846.8196522245906 387.82207363059763,841.7136975369162 388.21336142801607,835.434285694133 392.19601965095336,807.6369698652228 395.83095305997097,799.8082630319786 395.9965621819281,797.8186717627266 395.4015286506401,791.0670260124265 393.3839408927922,781.3923909430362 393.165080428571,776.0224467781587 396.89329229976977,775.1661986073206 400.269957471942,778.5664159938722 404.3985047895945,780.3201476974467 414.9209395892174,781.6702310867092 428.8603905674606,785.8335344652139 445.67769218224504,791.6768039230867 448.76000052488166,791.7052402890822 457.41795751508937,790.3588432623212 463.6182142247429,788.2621353120303 478.30625005675927,782.1115621117112 494.91356995699203,776.9592616333268 500.58729003744014,772.814906444459 505.5947806727376,770.9001577354694 511.1190494930023,769.7597634294262 514.8217903567662,768.6233166455686 519.449907721656,765.1007818335779 522.3221547511985,760.4969001163216 525.1963821848266,758.095314676229 528.0447156463756,757.0269385483928 534.1800997360208,755.5435933432852 542.0297380610212,751.778657481856 547.5441533757528,745.9428909257563 550.7947865835439,744.7064743211027 552.0909151702126,743.6417280647624 556.6071933351672,736.7989743505323 559.7522826519468,733.6876634391393 564.1841051008685,732.9956251909514 575.6989545881222,732.254658884564 583.7959324400986,731.4885113196773 589.7927166531773,729.7368766458233 595.4198985349722,727.7622350649251 599.8499798502845,726.9047833103828 605.3303704493709,726.981099258845 615.0640940998728,729.2947805442938 621.4621688474571,731.4742497944042 627.709748720032,731.8202468756203 634.1278208164025,730.3282555891387 636.5550621432125,728.4313433849824 639.0506581106513,723.3165586794698 640.3600375703211,718.7649486377884 642.3137006194407,714.2692312546628 643.7836996313522,711.8792344686708 651.3736397393458,704.90501589955 653.5687593218886,702.2226553226178 655.2539499603917,698.8363392707113 656.7574888103343,694.2828073464357 655.8113463921009,689.8042434428526 643.1670140819098,667.594609401977 641.9642033131877,663.8352652825938 639.3295793895054,652.1190349513068 636.423170761469,641.1752358759626 636.115152364212,635.9755881963022 636.7911765271183,631.8727638491566 640.206452059384,623.4862844565976 640.8015799267282,619.6100391963188 641.5462194774144,611.4114079178457 644.0688976970864,605.3583749976726 652.2722130084802,596.4891384169451 661.1734635740085,590.3803024781234 666.6060350476065,584.9765498053941 668.976788260115,582.1296906605869 674.555191448223,573.1099607801391 676.388452829801,568.8354726337917 680.7056397716536,555.4784584450733 681.8818817444396,552.3359484550041 683.0632893214166,544.8739701653135 686.1995722976399,535.0392097732425 690.5233632134513,522.4740809040993 692.8822940035616,513.8254090532571 693.2735206607231,510.69003079026106 692.871406345777,502.04803675381925 690.5272188530328,493.0047057869559 690.1358409202365,488.6905927462176 690.1455057643335,483.97403048415833 692.1044366824914,476.5184036964398 696.0338498726036,468.65769950655624 701.141401568283,465.1104852586177 705.06590623937,459.2124648896622 711.3400597124388,454.1120087446857 716.4539074228911,448.2127269497628 719.9879366380478,444.67105126409035 723.1226692756094,442.3002173177107 728.2350764424082,435.6132505834081 729.8094962976819,431.2924465061262 730.999281833692,426.5782523447905 731.3500561574888,417.86230844819363 732.3850868248152,412.64642469407033 734.6109933016121,406.9707538718801 737.1851517187883,403.18448264399296 737.4912008113125,396.86142706646547 737.2470154568937,390.2287525249428 734.9675265057945,377.84994474522216 735.0769182960674,370.42663397105514 736.1132523484182,365.5512365683255 736.9877495821343,363.2119409352207 739.7528246281287,358.42258685210004 745.6777637725553,351.82453785946996 744.5491093231707,347.9608549982413 740.8774846758714,343.13249382711945 735.1076125457367,336.9944293373984 728.0967578561372,323.0195574080467 727.7849201597373,318.4856424125396 729.0479968384819,310.7175675655633 729.6728732785597,302.6304078928482" /><circle cx="296.58000114775393" cy="367.7869521764744" fill="rgb(100%,100%,100%)" r="16" stroke="grey" stroke-width="8" /></svg>