<?xml version="1.0" encoding="utf-8" ?>
<svg baseProfile="full" height="1024" version="1.1" width="1024" xmlns="http://www.w3.org/2000/svg" xmlns:ev="http://www.w3.org/2001/xml-events" xmlns:xlink="http://www.w3.org/1999/xlink"><defs /><polygon fill="black" points="161.67023462401787,955.3121080564622 165.52180139786546,956.0265279631979 165.99347383126212,953.9481335984776 167.3501919779664,953.4008793126513 168.67056386248285,955.3203336666106 172.49837987972472,957.2671507470194 167.7453640273736,964.4303125883994 166.73898444036007,967.4913428750982 167.55742152510538,969.2920443679462 170.69184110061371,972.571072019469 173.30837248413383,969.2688360620709 177.48026796601758,969.990977318441 176.66307806962516,973.070898123199 177.42089735541643,973.8849117521175 192.44505185079558,977.0013386043602 194.9943464650695,983.9334430370862 197.8794133670693,987.2141337728849 201.47996770049932,989.461205412554 205.08092361013323,989.0993854369532 208.29555458663475,987.9691208550657 208.45900451875747,986.1070760710479 211.76279588007313,984.4411296705936 212.2913006169119,986.5116888691371 213.47304238029733,986.470264497546 213.03375869581092,981.2442594319679 216.4413605074601,981.3553948791778 216.4531800524788,984.4070427334804 218.87022987064546,984.6605552815039 219.7369859700254,985.8956584563228 220.8845369480438,989.6039353508428 220.83222631643673,992.1325476692057 223.57210522194478,993.7196690258245 226.07902846585424,994.2600991316322 226.6295682279724,991.4497761259672 227.7021558811942,990.9251670200151 227.59289626724885,994.8307200107699 229.7672696754145,996.6399482677538 234.19569191530002,992.6905762827674 235.71790095087286,993.9808440660157 236.6787367003184,996.1815368995335 237.83695207412725,1000.7834140668662 239.5180995464865,1005.0320856524961 240.6663694988704,1006.9429707974789 244.17881171618342,1007.1345609785783 245.09106010763043,1001.7196823916754 248.07511033826964,1000.8263425013773 249.10577531470813,1001.279663187491 251.94369164000463,1005.700206479645 252.02418569175967,1006.830573189144 250.0643931272028,1007.5382375009266 252.58251960284613,1011.8195567069931 255.23531822215415,1012.286738058906 256.3972301757469,1013.7654414145135 262.12467186926466,1012.9266110959815 264.25926347898036,1014.9507831331389 262.7282818151568,1015.4803205469179 262.82877996185215,1016.8367146695326 269.1048330905167,1018.1911020703756 267.597236188528,1020.9195225899559 269.25381166476603,1020.9755997170214 270.77600639082465,1019.696173405346 274.9678860237595,1018.7899590572156 277.4643918807739,1019.0936982266307 283.40185658694804,1010.0708661959079 287.83880157631614,1011.2484237180289 293.8563760849028,1009.2644050580659 294.4993447164259,1008.1171123061428 294.6001957782241,999.4526696881396 291.5323103957749,993.8726516396626 290.8297523286275,990.9308970597333 289.36264565682075,989.1787934152038 291.4745880586108,984.8301375414934 291.5668124403374,982.1681470315998 289.5693046919071,979.8772685819295 287.4644632833934,980.6171213114249 285.85464638411264,978.4345349476414 287.2853531963968,976.6527087415886 290.43074191780653,975.6237243800074 288.7142706402776,971.3887437898858 291.9002171179719,966.7316059890513 292.10070279127336,968.5995532250446 289.82296783807755,971.848817925045 292.44219186563816,978.2957235612226 293.50417431389377,978.4904577476202 294.82254781786236,975.8363902516239 298.00916211033643,974.6628078706076 304.7374886135535,975.7337201092348 310.54867310619926,975.6415165306454 312.10895427012605,978.9444088696105 316.2606770506878,980.1333550339219 326.43749244246226,980.2317977299745 349.7470245048565,978.6571015953471 357.7642263503915,977.6559761090014 365.2856882063925,985.6919134710951 365.1506592999543,995.4770738929387 369.01950938603727,1003.8515834838479 372.5672123449281,1011.141013486386 390.2307779480958,1021.1015827118699 415.6253815425329,1023.920857822148 422.31253480698047,1024.0 422.1517104539917,1021.2663544865239 425.92096735460103,1020.4845579818573 426.0070465662776,1019.6403078000092 433.1211415802648,1020.9464302645022 437.60668805999484,1013.3608279611951 442.01505529615935,1010.4827445928117 443.66227405933427,1011.1424408587537 449.356166074534,1006.7493464811583 454.4903281477645,1006.226052110906 455.1608251909864,1005.3037635046686 454.01956112674515,999.1103673483145 456.70476039413774,998.6265546598052 456.38309215933316,994.6939635404459 459.3542382048262,995.0911614737694 460.2507990000213,990.5794939249799 470.2979593063864,994.1810391027967 475.1654908822807,996.7135031201838 480.39323879326565,997.433106076904 480.33542399623803,990.4454649627073 488.2830467095695,990.7811365863731 489.7069457810949,990.1375881065846 490.35781872474854,988.3419754183003 491.96061228890017,988.8670485098148 492.53233356429894,987.7194695962827 497.9672242180294,989.2474491479151 501.69464891021727,982.9229880844579 504.3330204777674,980.7947803456325 514.0141606327064,979.7122789557544 520.6998961630471,976.3525066492385 521.6820292413182,974.2029928669406 520.0344961129613,969.1886874065858 519.0596714706628,964.9255861578271 521.3651011154333,960.9530660064473 523.1324164643987,963.1084947770252 526.7479145643605,956.9712221325042 529.2982381030151,956.0570244014837 531.652678644134,949.8733836487719 532.2789474654043,945.4387407428665 532.1793842924133,932.4661281956248 530.019362959544,930.590972681023 530.089449107477,926.5745455114816 534.0425606549293,926.196695443919 534.8977677207242,927.0705680468783 535.2294192422528,931.6057397417521 537.2103433888584,931.4072008374224 536.3123495766296,926.4676722298686 529.5378235085789,924.3931880842514 528.7696046030674,922.9138162928992 528.910999501304,920.3948321217888 535.2436669512495,920.2360234139467 539.6050124667397,916.0620223096544 540.4572520247206,911.0201065906041 541.7964624941355,905.7854334130622 544.2173795229342,904.9848107529817 544.0316143634891,901.8860352857185 539.9815266816854,902.5945466167202 539.565739928384,901.7358315963561 543.4762803430984,900.8360424345299 541.9514149773835,893.9534976100088 548.7141077530891,893.7869916026469 550.6736536449334,894.7482176007396 553.7313429657116,889.0631069660981 556.2298390042675,873.228800738634 559.6003493512397,874.0803829374743 560.7210622478144,869.9794538707614 565.1254042840083,866.7420993902983 567.0271096185731,867.2306977642011 569.1510451729588,868.8777898772764 579.1132643949436,866.4206084917682 583.5618830365802,859.2185361633512 585.5809864390236,857.385807372064 586.9815750599493,858.4247808680781 586.7525140957093,860.081130783282 594.2265270580141,866.4627010844123 596.2836028392907,866.9915508199754 597.5986583635275,865.3828744151249 597.5141018317793,862.8271008899164 596.5005008228853,861.0854987739187 597.5039313550816,859.4080571939847 601.1739133484414,858.0363102232479 602.4267773979975,858.3397013009259 604.6512138578227,863.0527945778431 604.5331185257659,866.5557820074723 605.0832777639062,867.1752074840168 612.477528309867,866.6471274315315 612.3144311382204,864.0733905758067 617.1925558846702,862.8483634410898 617.4635247318698,866.4491349245948 622.404400389626,870.6754357814373 628.0803912451622,867.8398615140459 630.4112869683183,870.2315520496311 632.0337847996964,873.6499255100889 634.5656035956791,874.858541521923 638.4717550550788,873.7388388411717 643.3891595331258,870.9125708089582 645.5933082116135,872.7313056006143 647.7681386366944,875.6484666602396 649.579337190506,876.3837868384364 661.6979770896268,876.6217596510976 665.2199075669147,875.8465141836699 669.2086460834698,873.8718389279247 674.066643493369,869.2175662020433 679.765818784358,869.5610624289972 684.5197242512642,866.815956431161 691.2597899353188,864.4548420947917 692.9639035070247,858.0153992068724 695.0326977546642,855.6151849954821 695.2493018448714,852.5220424753287 696.2810739201741,853.0110237707352 696.1854396054865,856.7591469797671 697.0383330148234,856.7679900319004 697.1099071260703,855.0217647457569 700.1769688806687,853.1520202593672 701.8181507963611,851.5898437196286 703.2524863972934,845.7077319806576 701.3078919933653,844.5953330288011 701.7643835396121,839.5795623508822 702.8052221944533,838.1807071121652 706.5154700237147,838.6626467060635 707.9133439230644,834.445515029103 709.3689596619773,832.5867366712179 716.6738033910681,830.7716191455063 715.6712706404877,818.7364992802729 718.79923670776,820.1501921998147 721.5715352889961,816.9817273648526 722.1216816325781,813.7920595679522 720.5678864544784,804.2694126106654 720.9645982193467,799.3698510367266 722.1703494535868,796.9510796500896 725.7447124582459,797.5988294792788 727.3481942345293,794.0573260670029 728.5851333193832,784.6522103795232 729.7972201328886,781.4547664605859 732.4655585819962,783.2226360948779 733.9481860864671,783.3552393534237 733.1128784815656,777.7751616207153 732.9636624915604,766.6457819290658 731.208931967303,765.4711026203428 731.1844173283828,758.9064808625986 732.1094352425569,757.9282546903545 733.8970589300254,757.698951241556 735.4915526830557,759.102118660451 739.2351068307578,759.6125380749422 741.762461843124,758.7254886939127 741.9536591888557,757.0518641374033 756.2744918768577,756.8069880082423 756.314666630817,748.0973496899715 756.5991090572431,744.5235780097926 756.3126704607365,738.9895613126068 760.2411453629918,739.1991734492303 761.4199840034423,729.5728412281119 766.9183386383354,730.7154205689567 776.149940689312,723.8747502557026 776.0772681200112,715.2916533254241 775.1829890700092,711.2237550553126 765.947658949481,709.2651266950298 759.5222921771982,702.2733105907573 759.8654631627932,700.9756308850868 759.6234742003305,691.2810167011168 764.0606167235023,690.5495728722342 766.5024410234765,686.8038769463044 759.0952239448702,685.7108821473772 759.3415320816154,684.2310382111965 767.2890480649921,663.2062659748872 769.2564639131624,658.3090403373125 770.3592265992115,657.196560896688 773.7189169827129,656.3789813822902 779.1792127045948,657.4581265907093 780.551915800989,661.363990578151 781.7905427013166,662.0010833039923 782.2184069039881,657.6592371456748 785.5346358399323,657.3957705842156 784.5177570471216,652.582839422445 785.1864604778376,651.2518390652779 784.0884547239278,646.123615712921 782.591794577541,644.9143315162851 781.6222042596163,640.9219281585052 778.4708305909483,640.6607353092627 778.5576959478235,636.6118304683241 772.1003223859573,636.6642502233999 772.0995056549172,630.6181229897877 777.2673125061882,630.0511546565654 777.2208244832531,625.6354947725983 775.6823844138123,625.6783760177264 773.0041159492065,622.4274694288881 773.0167739635456,619.139168225701 776.3762602137201,617.7787235943431 777.8824705801721,611.978121719204 774.5354181549214,611.2386591542147 770.5181804319953,606.9421801002957 765.3502640652074,606.8221539535039 763.5011516024342,606.1921187084508 764.2316148944508,601.3981674003496 763.2519751297431,600.8283902941355 764.742627805693,593.9221255251507 760.2752943077999,594.1304203137358 760.2415283360556,591.1703366018005 757.3792287279442,591.1908773892417 754.7657695841298,591.7616031605844 755.5315289705227,594.2285783184082 749.9395537671386,594.5143047619164 749.4479243939737,593.8345916953983 749.7628435557021,588.2064544477869 750.2852631086523,586.8270993719872 755.8847684123273,586.4795228223785 757.2306860663031,585.0376865501161 746.6332634703235,559.8101060244644 748.3303906117252,558.9045103788753 741.440410090604,542.1792465534033 738.5324541161671,541.9025414719326 730.2950394093433,543.975042986712 727.6651488975953,542.6909344124691 722.9242445472623,548.3687065961672 716.4430430070594,542.6952857381837 714.1150189323993,542.7990993432302 711.883902834118,541.1308843920827 709.821481388752,538.6928439403717 708.1622073745328,534.8456208240609 700.8695151049621,538.1006925935786 702.0618787796899,540.4085667934346 700.4550457955376,541.044824504572 699.4631420736262,542.6962943163109 700.5160045878976,545.4365108774635 695.6515922724165,547.274545818435 696.3707970770744,549.5684513033048 687.6356705304416,551.747642841872 689.1921351374315,556.1804250550097 668.5336822146969,562.4744547735855 667.6901704309115,563.0903653005951 669.0136908573558,564.9268273120172 662.2698037005101,569.5437653541562 662.0295149360436,571.5343897117142 656.112950553093,576.3248688532526 654.3218572905593,576.7493402397458 653.4317401024972,572.5207792400024 653.9306718161401,559.8256137777261 652.5894491879944,555.3483729781885 648.9907837758725,547.830235533185 644.5789297094786,548.114130393609 643.7029160351888,539.1874734821129 649.1711057049865,541.367284936293 649.8069404203609,536.3206914131924 644.5657519998838,532.438484542864 642.5254822286234,532.0971434340836 640.3678185692797,533.2937472142414 641.1717652362589,538.1659635762849 642.0304610994017,554.8144622517343 641.3957144751213,556.8815155961911 638.8175045707249,557.5298912801234 636.0455579752563,542.9860436295858 633.6940208214767,539.2499284397425 629.7197493499395,538.2679450247624 628.4887895896726,529.7256703781832 627.5731643123371,518.2820199517241 626.2271507419445,513.3362136424128 631.9241174207789,512.1845988485968 632.7045277716379,511.3656597168655 632.4183793111306,508.6162712826507 630.037373799505,504.02130168756764 633.44326192881,502.99337828479133 633.0028467074577,500.9011155084544 631.1155728596444,497.87714384398487 634.0267206467399,496.5282399455681 634.1770040143306,495.5736921526675 628.0670371949358,476.61041496304006 626.6052870382753,473.2120515265342 625.5687842710523,473.4204248141914 626.8852728966565,478.7226530009922 624.3397205339836,480.3845933177853 622.4408940753259,468.0171716916012 618.651562331189,463.2887262439932 622.7532148811094,461.78193775670513 620.5801189823273,453.2884194097678 618.7891594710761,452.2582787221411 611.693488243541,451.9625513596617 612.0352510137606,438.78225380899687 612.9435320294998,428.8571825857488 612.986487520888,426.21891869103115 611.418262030238,417.9846852671793 610.020827099284,409.00292020263817 606.9529033880991,409.32961314695706 600.8478535152977,411.0962919856113 598.4277499962546,411.0471969875505 596.233130570061,408.5900216116298 594.7687696144529,404.28309079887254 594.8650710057085,402.4416241363648 595.8230187626802,401.5383135011282 605.1580921687776,400.10775416507306 604.7029664410101,397.40481547701745 608.1995210563837,394.4443309195593 606.824682564485,382.5697677030081 606.268117648677,374.14178894655345 604.466611299731,358.4530900581665 615.3043375166783,352.1552357175043 614.8792906371127,349.8411732421421 610.9743787548724,347.163186328448 610.0829423840132,345.84578212438 611.289498470625,335.9166727354866 606.8987965010513,333.2956006611506 609.2840873484073,305.4375473691658 609.7569588718828,298.28871062749306 610.3785108476604,281.72939213998666 612.583428162574,265.0288664358469 614.6782056240323,247.72050468635734 615.2229398697914,240.95197175915177 614.081375160946,231.83700027909674 613.7436011840878,219.83310345794337 613.3411312812392,216.64368622627353 612.3880738630811,213.90935320293022 610.0904783336828,209.94747777820498 608.9932998195907,206.61373394849545 609.664832523722,204.8991054337995 614.7922690299487,203.3407133640775 617.6883147341382,202.06649243751747 620.5407080523968,199.39556578782208 621.4958075497843,196.54412726718817 624.0413448818925,186.3531164668659 625.3010697678291,178.70146419767366 626.8080246975984,175.4359323625505 631.9731709599499,171.58022020970327 633.0424682417524,169.5452076813733 632.768478457487,167.01711128138322 630.7572266839588,160.15449209888743 629.3239339958683,156.66402100892822 627.2640612202724,153.15026765789491 624.8487805246815,151.19193712496747 622.199016854671,150.30002800027557 618.6867097523087,150.16165909184997 613.0846473129436,149.40054933001068 610.5215885208734,147.96448268369977 609.4153835213388,145.89673961202823 610.1616308866435,142.11138062311727 614.4771976968341,138.17744273313428 616.7503068770962,136.52534797115118 619.080249352068,134.07652412722257 620.742856001202,131.64603657597365 631.7783592880048,102.18830956448778 613.7311945897973,100.04303048852557 596.0690135695966,98.5117792027986 546.5809252114238,36.68307776948484 464.0064425951403,0.0 410.55166450498564,90.66916937765973 395.7497941066642,111.40029340408034 386.21572673295407,124.3928050888851 382.55789780936004,127.9641021333556 386.4778024727498,133.20459073711038 389.63323735541,138.12609044926603 392.18332221568875,145.52586488555926 393.1120718272678,151.249413865968 393.02663220033344,154.95444156423844 392.0894448131741,156.86220036608415 389.25843635599216,160.22175998077 388.2113893717987,166.13223828917626 388.3099326331435,174.84615365483648 390.2946547175915,192.7774603329285 390.2824836523003,212.91798912612262 384.3491527222165,266.49302180344375 380.88774837847166,281.1896761578728 373.6764061264912,297.0846588947959 366.66914207692196,310.0054451408969 364.6741375651179,315.6871310317738 364.46932259042256,318.8981283547521 366.94844229242545,324.3577866250765 403.70226602546614,352.13188288783044 406.03420067209515,355.00866995720094 406.6617441437847,356.66758783142745 406.3377769383807,359.8816189411326 403.04419620943764,379.4643396343139 398.901804878746,394.78612575998466 395.6458118745226,411.04226354244736 395.7626244121546,422.1464697397804 396.3568848462937,439.01556942580373 393.15770405561454,449.91511486671004 389.2524841903132,456.82426414303245 386.8914522724188,459.19402360918514 382.26163016151446,459.7664355557108 374.6892204440525,459.69740228610306 366.47058526275157,460.2394167015527 358.6700042781756,463.7017239473954 356.0700912799368,468.589133013695 351.63241370222767,500.1341288228974 346.9172636529752,519.0892932001692 347.68697373257163,529.102401092082 350.8456715366221,539.0800004486946 358.57451285613035,552.1607940812098 361.2295891420756,558.408144467761 357.7365882965508,558.8040112617882 354.9397621501795,558.3947568904882 353.88406778033664,554.536302025733 352.6028917859595,553.6895820477687 352.154899736798,557.5850175269702 354.61119164297077,566.0987554487483 353.6092900097634,567.1744901750483 351.6204451327031,567.5948801716429 349.6814540744358,563.9501119101878 348.93917071980286,557.2925209528152 349.82893342846774,552.2562977970389 349.02440371388343,550.135453459548 348.38989155714955,551.8827367995461 341.68659620653574,554.8934927852167 339.76328477665817,556.6040230987055 343.8799761695336,570.9461166281355 346.86391339417014,572.7364217555441 348.0511938331168,580.0552718548944 344.7619365506103,581.8329083278425 343.35187703033245,573.8503530572764 340.7629068056934,573.6631690974948 336.2254018726416,575.207226608541 335.6134739236013,576.6361698471487 336.0146359453854,580.3388494547019 338.02104191959523,583.1540560774561 340.5404898411337,580.8343354841649 341.9597315520647,583.4089985412957 338.8506583077496,585.9724299711379 336.89030378557345,588.2576135139584 333.41697105645363,583.326980037893 327.3222004398677,586.4236546858895 323.8758515214981,587.2799734535606 321.05607963312144,588.7750487288845 318.99434331666896,591.3568603247807 319.7673566342497,595.3831351698896 318.3548058328984,598.2570624619384 319.0575592307735,606.1872399068925 313.8085489740267,608.1176394332822 311.2034734763877,608.1340497471142 301.3897810988165,605.9635366768609 299.07334043574303,606.335805844428 295.43326576704976,607.582491805065 283.7640139082397,617.2293473875341 279.8031671714296,619.0626431611458 278.42726874400205,619.0261362877199 275.6970859469572,617.7536000600321 271.8769127671896,613.2139597109768 269.70962601529556,611.4941307994006 276.1311977617938,608.0586163431494 273.68416280120385,599.9609959022334 270.9650399074221,597.1409243790208 271.887328925812,596.5271406975972 277.66851398017747,596.1926991566843 276.8158296536483,592.698600197976 278.2381339653752,592.2742406647544 276.757949058887,586.1950434796562 273.8577459408539,586.62501670607 274.5569797538115,587.7649105942369 276.41615558785804,588.1034354695962 276.9031338686156,590.3213415643788 271.21382493350075,591.1468587858542 268.59670744992576,588.2149467890983 268.8344653690518,587.1667376055789 263.7619478552474,588.6722575986562 261.19193152817866,594.5885474333443 255.99892728013188,597.8764098469645 252.893386414928,599.2603597955174 242.24968115590482,601.6197210570369 239.87748584384775,603.3330088341203 240.98410209496797,608.2392337221902 232.80944915278292,610.0004142549974 231.82773206192897,610.7267975086949 232.9061719439351,613.6968590148332 235.63090668781462,617.1426732070536 239.09705260558752,616.4928890884763 241.97751661418374,614.8774095343349 242.5381606587941,616.7355642192904 240.9716678316112,617.4678416466396 236.20210171820344,622.7392844803187 229.60936654918967,622.8771211364094 228.63580657118,623.5527655193818 228.93631490361898,632.2878008888601 225.15480852828483,641.1562399540924 226.7461150986212,644.8301085062496 220.86011192248662,644.3228969333302 217.51898411382425,649.1413206388509 216.72281064462913,655.6957992082205 214.3815368412876,655.4432549414889 214.90498781401902,650.0068246499036 213.14304701315825,650.0650524448586 212.14980501313562,653.1486957535458 211.92985449539822,658.0490031653397 216.39756745426635,658.5277558445534 218.58690022861163,659.9303460996555 221.45713229100863,663.1725632440549 219.44261696134848,667.351551035232 218.41613140056984,675.0173215552397 218.84844919231497,677.8941123673203 221.476127992422,680.9425152678443 217.64003890305452,693.3407946810763 213.05402869601426,690.6387799599759 208.80655652996498,694.3692728090728 207.84660625089984,696.5317546095971 206.2526252962036,698.0643311645399 203.28192740060615,698.6561087523088 202.02295785150895,703.70238897493 202.17052873077586,706.5186704961241 201.52601754051298,706.6276839008501 185.13483499134966,701.8538439326853 182.74344802663816,701.8352697361127 181.27764643504133,703.2840203749362 183.8613222379884,706.3763759863515 181.28447036825176,712.2844043685362 178.92912749694815,717.0638481298822 176.69907686224232,716.8696001661008 175.96787855474219,715.9113822032868 176.4263105602258,710.6799081080615 175.35910243169488,710.7199603040513 174.92457690889188,723.0784531335314 174.563728953653,724.1165039196146 172.76142102494424,724.544679451217 172.12449400630547,733.6950009792635 173.88611375362433,735.3508081820482 172.9469921732044,740.7939910700206 171.89854823173587,743.6847199487094 169.82980148104488,743.3258730062089 168.3013936102873,744.6009934039728 167.02531115782924,753.5752541301713 164.578768005117,757.0753094959738 162.37116311415707,757.4849131999683 155.62211658903126,756.4696864539637 150.4700455605893,759.7063098993553 145.26691864416136,764.8210661356636 145.24185377807243,765.7958412662724 142.06947644182785,767.2295048231131 140.27752015027832,767.0811995505857 136.8301047979798,764.6411747082236 136.51527187003146,760.2443193887632 133.14935752714317,760.1306585509972 129.6039416710337,761.1575880941094 130.13839458089953,758.4031899763821 128.39784521222848,759.2082242987428 121.21731643065525,756.9751283806197 121.31551406370794,756.4316119895184 114.18886478820886,755.2844823231673 112.86239456209942,753.326535997105 108.10960840857665,751.0617267043025 106.9052698046413,751.1229183205076 104.88569007225946,753.355474340627 104.06712398607233,753.281950093525 104.13041140265486,748.7377589767528 100.97010659771733,748.5296288672757 99.85535585741547,744.016272643808 93.886520094618,742.406960900016 93.65830089915042,742.891460532583 97.09942680598019,743.7744599783277 96.97352636436646,745.1899021601628 95.73693224966077,745.4363601132535 91.70485833674417,744.938118019463 88.53524877601176,745.5302505908534 83.19271253551469,749.8524009886238 77.06980765471314,753.3187337714133 70.56880274922764,752.9752313147891 69.88275809830883,751.1854218340951 67.26712858023204,751.3514689404806 66.28943488503845,754.7547541422944 64.03648218812818,753.9826904888978 63.78175374666953,752.3759023683598 65.71696848385378,748.0928800122865 65.407325429843,743.9932682640803 64.21210667225178,744.0855878752849 63.6443673246289,747.2386089886963 59.953060825901254,748.2646612814582 59.300995680902545,747.5107409421692 59.2741617517468,744.3026010435884 60.98032729678227,744.6157985445623 61.0520644879826,740.8831774033666 58.761817872785485,739.6715251722089 54.533072405718904,740.2494432498859 51.87955268543529,737.7908765240394 51.17799696177678,736.206756368339 52.069870398235885,732.7236252931414 52.7588102812678,732.7906748919685 53.36100692000305,735.8706344820356 55.6009816245306,733.1767654521093 42.81079751820407,730.6058838820186 40.44791414192955,728.9135423083567 39.39334614690464,726.2264119571723 36.89466185679768,721.581462633304 32.43549304663811,718.1626929063323 37.69372514623056,718.2320916775943 37.8364413511125,715.7202380258618 35.038375611270475,715.4456919693478 32.95511882394938,714.2635010137888 30.78231800436324,719.0573306593017 29.103762444421893,724.2584330912216 27.063158038495917,729.2884131543394 25.903537516004583,733.7685990906841 27.250001184694796,747.0989268941008 26.825161267211016,752.044605199718 21.516251532019115,752.1079854778909 20.765920767724793,755.200540287855 20.957023575501974,761.7833729704267 22.326902135150736,767.288859818761 23.577616641042262,767.6584744825275 27.86438320475872,766.6604087280675 26.93980638651174,773.6825645468217 24.858974304586816,774.9412524987885 13.707643785092285,779.8099400337271 15.229359188303246,797.9039445418022 15.71263027952069,799.2432150156784 18.25942715732782,798.9760597408574 18.020184100110757,807.8736264860207 18.363841607931388,808.7219978922878 20.370502290105893,808.7881823691441 20.297277263164514,810.4720297331405 19.05063074113705,817.0995710403603 15.852591689664695,816.7755172747766 15.630973708060283,822.3997432110239 18.950229936180335,822.9284966005658 18.65125359172649,824.2123169908912 15.266118048135477,824.0969838915241 19.0846293544034,827.7810215307924 14.531027386294749,835.6562352074181 15.65240038984242,838.0076472540252 13.000856450563315,842.4425583510183 11.225894781503921,842.3332653684461 9.681405941107831,847.507588650574 12.716568748100688,848.9104647866243 14.985473143706054,851.6624928218403 14.310341025249963,855.4662573380156 14.319839374541642,857.764829827897 0.0,863.9227782233453 4.365528057179213,867.9842661241976 4.464841574794585,871.8119151709664 5.733038210360389,874.2666707345452 9.81064811490382,872.5511998650219 26.20610692459777,890.8979630076824 37.69463979806639,898.6800519844638 51.700916703596874,906.4813874741066 52.85125715901883,904.8708808306507 54.44070381939606,904.3340665750811 55.86398278183133,902.4222659161363 58.78063100557515,901.8949273682612 63.2569006134691,902.3906901200969 65.8504470599208,904.2895165976984 67.92864585031386,909.6730396188208 68.58162836839985,917.6060625010263 76.78546488082434,925.6999443979371 90.94829695883617,946.9329947997896 97.71834244827978,954.2910813850684 108.86841961663978,959.5365631629603 123.66839824572185,961.2334642028309 141.41983139540392,958.2602889279436 147.1930655482698,957.9818491821776 152.55517554620408,954.1631345215854 151.98608801486213,950.4094235268352 155.2881606789148,948.4476380978344 162.66690085126154,944.7650349983797 163.17836529959934,948.7865982836613 162.869726714866,949.8478178187858 159.64658380745385,949.9786842743788 162.41618247095334,952.1222047417631 161.67731441338609,952.385287475334 161.67023462401787,955.3121080564622" /><polygon fill="black" points="837.4815874040877,286.1049987982193 852.7474883615093,286.9758567939284 851.266961640157,243.2958647343994 839.6181049414712,243.2579699234076 839.2905406538271,250.5358758447021 838.2336245242981,262.7889627214364 837.4601777266547,276.83695984268934 837.4815874040877,286.1049987982193" /><circle cx="496.02825863463084" cy="809.3546597448749" fill="rgb(100%,100%,100%)" r="16" stroke="grey" stroke-width="8" /></svg>