<?xml version="1.0" encoding="utf-8" ?>
<svg baseProfile="full" height="1024" version="1.1" width="1024" xmlns="http://www.w3.org/2000/svg" xmlns:ev="http://www.w3.org/2001/xml-events" xmlns:xlink="http://www.w3.org/1999/xlink"><defs /><polygon fill="black" points="526.5302296538174,58.258985604042095 522.2278758760616,53.796591416637284 520.4762660873873,50.76857878964336 518.4195070629,49.9044959777126 515.5504645471306,50.29380849733923 510.8449527932364,51.815296531328954 506.75173920947833,54.216134788028626 502.19888920658457,58.68176811651654 499.53302896673,59.03670718753415 496.6448131913114,57.1061105984287 495.9264498740428,54.47135220909331 493.63093715346054,52.669496337281316 492.7029513901421,51.03056719129836 492.25463877002295,47.36445561966377 490.2112232884081,44.57713348584684 487.8710412920645,43.547417855344406 485.2276391695091,45.22927910204703 481.9423810235838,45.304297284771565 480.4988761328084,43.82869953289821 477.79109668895387,37.471590694795964 474.789525902329,34.49587619092199 464.98612216404183,27.485064294835183 460.13079851450414,22.250866416492954 455.30548691605173,19.937950887013585 452.0336127016893,19.72973914467616 447.88113259682984,20.37371625532967 443.9513190177687,19.96966267303219 435.35760917293857,17.187230504633703 430.76787984468206,19.102291024469196 427.3004212067433,17.818274959331347 422.30448494926924,7.898605592952663 414.26728788816246,3.425309882665033 410.190133344192,3.2679594856680296 408.7137312201198,4.386857801875067 407.92485628869395,10.705897336909857 405.79679270762585,16.105223142047976 403.0728583245014,18.122452389618957 400.30045201445955,17.713245300304152 399.4037907103956,15.587002843116466 400.4441349860416,13.409756169110324 403.7907939600052,8.579634583508664 403.9393112452615,6.3096853032741365 401.8614930591319,3.087897714312817 399.1232062655174,1.5359453844249629 396.9419113640116,1.2500871948759595 393.6474199491586,3.8523763623455807 392.53594798997005,5.68020689269747 392.20625303879456,10.339237875163121 395.9073653077938,15.08143239273204 394.6649340356439,17.846105477484684 391.6023145155415,17.876308428122343 389.50952877112235,15.134817202515478 387.7229908010359,8.18232550819107 386.8287332148836,7.483561004379794 376.37502323557214,7.052168353428442 367.25673663422305,3.6051373089633216 362.269730674389,0.7839809963743392 357.3418931588681,0.0 351.85786695307775,2.0042557758808925 347.6571009330948,5.502529278706788 345.4646504311788,7.859790436665321 343.82918783627184,10.389609701838026 341.76155999939306,12.454313771685179 340.4772163221264,15.111795499931873 334.77070496452683,18.374598485115484 333.47908125755805,18.39567475648903 326.09725226784826,15.670118722546476 321.7924712050379,15.492043491890513 319.2297295378211,16.01576999011536 301.1253034275527,22.44334080332908 296.22594177905756,26.68905882048773 292.81579138488405,28.297184716169113 284.507459712814,29.858206021831734 281.50035393623006,29.915531287358363 271.01599724803253,28.08927525888589 264.7368282148876,28.48827060460235 260.52219060063965,29.26874840318203 255.77185783129138,29.266157700638928 244.8509503907713,27.470162251298916 239.1053223872861,28.600999245383036 235.05857510051703,30.427339349739214 233.09722370240357,30.78149827138509 226.13300750037507,29.277023446433873 220.38302146715196,33.21331250143737 215.91603617476972,33.07777447301828 206.3602144813976,25.50116418080438 205.77098805293542,24.579907233806466 204.90397432435503,19.653365557966822 201.79648508109065,15.898718873395296 199.95567683803202,16.03751501954173 196.34173542461426,18.438946198244935 193.21186536449707,22.24616371501247 187.83097652824057,25.70081021919509 183.92456906540454,27.474314984783405 181.15794260860653,27.902865605801253 174.8309044163036,25.285137515432893 171.52497834338757,24.93563940052502 170.12256890103302,25.945644290903033 166.11211508746004,32.02968136576169 161.56639995005938,37.476109554593336 159.1808002879082,38.52841629520651 155.82512913653375,38.73324258550247 150.61882171944617,38.02245587729203 147.32984909057836,36.932487276251436 140.8654513012749,36.53045927832227 135.73574571493705,36.73183419226814 128.06709902699322,38.17662160379007 122.15340515230157,37.03007690440734 116.46466309557262,39.59964966369773 112.07478261699985,40.58274999641128 101.59390811699144,47.15084698180647 98.50270694286279,47.71163606178982 92.07542101007104,46.07195578553558 90.21201774531076,47.084571517155496 85.97080074497707,50.853588267273835 80.29457146171612,53.01479992177701 74.88474088827799,56.998320480146845 62.05270921376173,60.5263103401395 58.53557200629665,60.97690098919725 59.35654662521915,64.93872167358347 60.43403021530078,66.53400862014348 64.49169254958764,68.0803469461315 67.89341391382744,72.45555261819982 71.04802434723518,74.05567415658516 77.5569557651507,83.31647885438144 79.44622340708389,83.35292620451708 82.48439609363582,82.48987428263263 84.45689077987774,84.89425212408457 88.16148491644714,88.45461337331221 88.23696283551061,92.36320273723061 87.3291471095443,94.04225011285678 87.26742948499276,96.30914657325297 87.97411593599773,100.19488249681115 84.52615461038117,101.67110132986 84.04232469960071,105.9146767443109 85.49722905242015,108.27672828589687 92.3473871277147,112.3621201946388 94.52540275511456,115.25407336981027 96.97756953306649,115.54715224993834 99.03643605708814,114.63236879807903 100.21314646047146,115.05897180023396 101.79207524811356,117.9214223031521 102.64155361725823,121.32588974710302 104.36137143306773,123.53570854727491 105.31256234734585,127.41479019158919 103.70580870242239,131.26996971006827 107.92527643750998,135.98345011111007 110.75915782503682,137.97288799288174 110.10866768753777,140.83919717817878 108.05307194527916,142.53552599824445 107.10950795459999,145.71275429489526 105.74982967673692,147.72651555928246 105.04649753577611,151.27945599679344 101.85695224567648,153.15140121964134 97.22541578787438,155.3216673930275 93.1191546514962,156.8239081742313 91.79102343304103,159.08874469319073 91.69158040676585,160.7644635990987 88.87008818231048,166.6463557013907 86.40630366123655,170.72848378897152 86.19632504450098,175.13139439540623 83.66317691685569,180.67206600279405 82.31970064495978,181.937521761757 79.4373585494591,183.2203280432591 77.45641811906289,185.60630044432094 74.72563881460367,186.166927019352 74.99623517914772,188.60569753663776 73.53473853498562,191.76438555491973 75.55819492541904,194.48007577852377 76.19096297714219,197.74572750490267 72.95557368459157,200.60275134141148 71.11890486727542,205.05932672729148 68.72938308544799,207.2356324885709 61.87282215793248,211.36973497886822 60.59336918261086,213.61475591061412 57.19773314303518,217.58594023524063 55.8347091790374,218.51711740467783 52.264236596592525,218.83349621805633 51.33604834976203,219.41919832343638 50.970015210940076,221.65621466878235 49.74069054867062,222.80397801591687 47.39328136619266,229.64106650214626 46.49007094613436,230.86148058448953 42.390872570217184,233.765768319004 41.30015606334711,235.77480222673842 38.18272143777539,239.23220649394443 35.9647136549015,239.87315735750008 34.6885747162017,242.9613359906598 33.14928393010234,243.98130783450472 28.846934025035853,244.09806309139526 27.423275779029883,244.83092591560592 24.247210228653664,244.9719955045449 22.345473154804875,245.6555239302878 21.839752244343686,248.4914040628205 19.492782685605324,249.40709083346337 19.221130521383678,252.4454429368543 15.247944531173133,256.17147686054443 11.241315543078759,257.88739641790016 9.52693904557642,261.41610316361346 3.3529124768908942,264.18974962390155 0.06117169908003924,266.71624925906406 0.0,267.55642249423306 2.053076945758518,270.19909386268614 4.202517889596511,270.61757853289305 7.262220130268891,273.05078965432904 11.606569216480898,272.0623616217583 14.140068648627654,271.9175519697027 16.69127305249168,270.6034590433002 20.35126023587775,273.5530696355398 24.342808186957047,274.78804217962625 25.058283916394814,280.60745590634156 27.366819762646113,281.6061274563542 28.80506254467437,285.23457465841034 30.94277468418023,286.75370186543364 33.60511563608349,286.3265197035039 34.80851366689078,288.0302269361458 38.39333507194569,288.9058862572074 39.385402696259334,295.7113072016831 41.83392797867399,295.9802906482271 45.01823697809941,298.3737643519903 46.93427415858536,298.26490420698804 49.200030592403046,300.5722525814024 52.79823538325545,300.06631326528077 55.22634307822158,304.28012973040177 56.69327142754729,308.02447877325733 57.97269107320333,308.716811246485 62.932752455565755,306.88444748727204 64.66125175725817,307.1815446596099 68.87684414053233,312.0774358820689 70.99389223493478,312.55965654687645 77.39545708144193,311.8935852026432 78.74893728637015,312.45379785878583 79.74338816686766,315.06224519985267 83.90633163535936,318.9127346969336 81.08049279340271,324.66395502747105 80.28214895830322,327.1102322745269 84.05252206326959,330.7029499724862 86.14148842571403,333.49454838570443 87.00439177530235,335.78481090533523 88.69659017739113,337.8081238863616 89.8236911138645,340.54563285329436 89.45834873780947,347.5379798454528 90.30183207775744,348.17386096168036 98.92242872665736,350.48777824001877 103.55264963310633,352.74005379962466 111.14742829082138,357.8535720285453 115.22034399069096,357.4284917077789 121.37242441294266,358.57803237302505 125.91146367853973,357.2430308741077 129.52531501020937,353.7282130641602 130.4690191375781,351.7841676734797 131.49124426454205,346.4543001244282 133.34272525215053,345.6531619827904 134.70445098610224,341.08286118539036 144.95008568905416,331.72990466327894 147.0827092298239,326.8922492705667 145.9256657669653,321.7778873198788 149.32571479685632,321.1466909204521 153.0268888104244,319.68291504278034 154.67429587573406,317.929806525245 152.89545863782433,314.23825260095134 154.87436730120712,313.1842665254244 157.5404345066308,310.8442938456561 159.08483732041043,306.717854794554 160.97909440837287,305.0533721260024 162.6997060814051,300.27466852166003 163.66601580423438,299.0399745249799 163.33549932179267,294.82918208833814 166.53591215137553,293.4242902598079 168.32292973075786,293.85710975607776 169.738363423807,300.5537318163093 171.9698915210381,304.33741107939977 174.80346251593846,306.3657297432494 178.68904783277964,305.6766262800263 180.4490475693618,306.0327399648826 184.96101984825603,305.797948893564 188.09127600919825,304.4044446946241 190.52834341009603,304.1752684110073 192.39544695997245,304.858669166794 195.01933668770974,309.29965187692835 195.8073842391004,316.2109672256755 197.11557982767798,317.92136368605236 197.6796944759604,322.07504945898825 199.10768116085384,322.8296881409758 201.9227834984695,322.20690336982636 203.94607921768278,327.304032598247 207.3794943652549,328.46020677969136 208.84319802795838,332.37051034127205 210.33142537489672,333.3784788476812 212.54675275041885,331.35755646678444 214.36039767849124,327.94312670284876 215.63590809127834,327.8685033401832 216.49576502440073,329.65022079383516 218.23253385253622,336.42784956161006 221.5359530444639,340.822786559163 221.87496829491636,342.62083779928 220.14279008950754,347.2448580939358 220.886211257527,350.12867503418727 219.84246146312935,353.97913572530956 220.75824950557785,355.31263553162955 227.6242703588415,357.6007257564345 231.6258664954161,358.1162080054668 234.8993092492239,359.23781277393095 239.24066327254363,363.8116815871855 248.5199444057019,362.2791664218878 250.4890270021531,360.9703870572429 255.24931368846694,361.020731201457 258.2916759989905,362.7662921098422 258.20063230841924,365.27116411470695 260.7217586336124,366.7698765434127 266.10256387201497,365.6692709696581 269.3808476819625,363.8061405236639 273.8789887285041,367.814063208874 273.8582900113742,371.4039585621068 270.23560790535436,373.428450259943 269.9295308412691,374.65272179586 270.91878590151896,377.201230496407 271.5039344710615,383.4743792169685 270.7325328804765,388.25514922441505 266.4811735202651,392.5351816977279 265.29971030680343,395.599144232566 263.4491013572238,396.5931703539443 257.74997436060016,398.147462868139 257.1193410361805,399.24970496426806 246.51389259059127,400.25808839682054 246.333423728584,401.9951911331882 249.01380298070293,407.2527039177297 248.6384890495734,409.60430355174924 245.69707324078058,419.6225714597082 250.06400249619753,422.0378862935138 250.32815845178618,428.11512818153585 251.9190231432132,432.0045067582422 252.4840941067789,438.96887465233266 253.60096617458834,442.8117688419892 255.7459102291087,445.7690378541639 260.70707612572716,444.1972351182585 263.0662552629144,444.5948290513546 263.4703330728294,447.62038561157794 262.82577625938717,454.5978396411314 263.6873787793879,457.390314924565 263.5917392432585,461.2902431038239 260.7888464148166,464.6016974031994 259.5109990643161,469.4393367014849 262.86854371872005,472.8242452628134 264.41855974497867,479.42463831994104 264.03015682166557,485.5836416964926 266.8120226336576,489.4547669216086 269.5973170238376,495.97196079474793 270.84472502563386,500.5164544721897 270.20236210679377,504.08502809953404 266.9978676701033,509.43707096426755 266.9431645739496,510.5133884560794 269.6636881160655,513.3048387197632 270.8745256848162,517.0736162277875 271.2779875399355,521.7084596372038 271.98651499330333,523.341634048182 278.4095600559616,535.4010801422914 279.20054327398526,541.5907109456612 282.76837108882404,544.1684330172407 285.403527839955,549.0180219919171 281.33661424964373,554.0464714041655 281.26038681662277,556.0542300515658 285.8533985098621,559.4394427776509 288.45647684172377,561.7878480120864 290.4955373394185,565.6084601653292 289.5704928997143,568.3727352920812 286.887579515479,569.6888179376213 285.83946707141,572.0226262406441 287.370558343109,574.1413734645095 289.5274021874227,575.8879447000254 289.1419568388412,579.9196574092252 286.89277474269113,583.4892022757292 285.035384965844,585.2200832715346 287.6512252256351,588.9821967689987 287.88248668783166,591.5615300613322 293.04439369789577,594.3218350238194 292.6683526437248,599.3187116321349 293.57665513416765,602.7164082945687 294.9500809456671,603.6972557203668 301.1144118292461,605.5747921002859 303.91408110037037,608.6195945676455 304.53915462382105,610.693666735897 303.5088798907022,617.7911677403449 304.56474060602505,622.1927458772732 306.6593087510384,626.2403513454526 310.9656944580459,631.6737617537067 313.04256415886556,632.2793186614263 314.75920521392163,631.1152279450001 320.9055195801849,628.9286131418544 322.7045886619963,629.1867453183087 326.5937137185505,631.8850205875099 330.40981602592433,632.9182507894824 333.0057152514565,635.6459715587193 337.5291926770535,634.7908566435597 338.97055475069413,635.51892487888 339.93131892040145,637.3927856980879 345.606234022684,640.1117146273734 349.4018977309607,639.8697393329993 351.2258945844029,640.8362024078015 351.2455909427201,643.7913773280225 354.3191214207156,645.774289553656 358.1647161739231,647.4939420277656 362.27340104449894,647.8438658996645 365.87352242784755,644.7477700990773 370.268847966162,642.6488218254624 372.64601293467433,642.6569590414302 376.780366339627,644.1764534124136 380.61464046837324,641.451393475423 383.39975284297276,640.8391414439343 384.8269734703439,642.1110656282643 387.9397840189112,642.9978555988243 390.7330064307433,642.0182424690695 391.9458450311449,638.5359103354222 396.2158523654758,637.0938567564453 401.1618267375541,638.320518867802 408.7298679085179,637.8514685807952 412.95470182325056,636.1540138409018 412.8865374931568,632.7487303246731 415.31187946738186,631.2960194053162 418.7941726655119,630.9017968325256 423.43518645695735,629.0057871063977 426.83977935290625,629.1872913044431 426.50240526080813,622.5560905433076 427.314267336061,621.4243015471391 430.1371740354876,620.0433835336526 430.7877375914897,618.2018353103591 430.7565579050943,613.7732674688974 434.34510931069315,608.9373059735849 435.2595673107533,606.9120425681922 438.0129068927013,607.2019937153683 440.2711934051843,610.2903182132195 444.7492289941477,614.4321023876912 450.0362758446182,617.1334025233446 453.12350598305085,616.7343819875389 455.753608770727,614.9754581334239 458.4273307384487,615.2717940729067 460.9386622358417,618.3845349235213 463.13771781159454,622.7798490790931 466.5133654960701,628.2873787295625 473.32794399809126,633.8689444207229 475.7103097778977,630.3467251885522 485.28622284507736,627.5080551616113 490.3830379342723,627.3417541667562 493.84437656159406,627.8315856260962 498.86199751375636,627.8653100971096 500.7928089474636,626.3269632669009 502.0351717271748,622.0683149988606 508.645966219567,620.247666948633 511.18911079736773,621.8905822469525 514.6524813206416,620.5959952640408 516.9064513361072,622.0981926704867 519.973160240242,622.3469082676161 523.2070101729419,619.6407196179614 525.5849272029179,619.2839626658065 528.1679817475956,620.7304718213411 532.1682219488848,625.6621901058398 533.4900588797525,627.7938807236826 534.0259877903513,630.8244440421629 540.1434908458164,634.1810510841271 541.1729235309199,635.9432507070833 543.0980875094688,636.0049333209417 546.0386816377519,634.7582103080331 546.6390322574111,639.4639303889425 548.0106476316766,640.7289776587306 550.6684194571823,638.6290889161897 557.9299334692947,640.5427940959867 559.3506445280299,638.4164567309447 560.658872942525,634.2233650431835 561.9480067718465,632.2734683048793 561.1643526089802,623.7078240071357 561.6562194317422,620.4674239662668 563.999806386086,616.2976752668527 566.2748618886926,615.4836885693394 570.0044840278624,614.9862649553138 570.8049859063846,613.932038733082 572.0373788335618,609.8717635213226 573.7768356800204,609.5576932279473 576.6330769413314,610.1136500478569 578.4471328109778,611.4114949130928 580.9887283291646,611.6369331624253 583.5746914662811,611.0346563725842 586.9828594713832,612.3841055349833 589.1691144990086,614.2013664478006 592.7658021683628,619.8618948911054 595.9485577132649,623.8789318637466 597.8933023790182,624.4030496156297 600.1473436319401,622.6694072854493 608.0285070829764,622.4708065655304 614.2992564182225,618.506793132449 618.0079795527229,615.4192314555705 619.5269352623984,608.0598291448048 620.1553332251641,606.8628359595783 623.4473709574752,605.4096175648638 628.8679280001475,606.1891082006796 635.9613671658859,608.5095893028079 637.750460237394,608.5795402378662 641.3034492464066,606.1443978152029 641.1377440763567,600.5006503570966 644.6634567424736,594.7546379907587 649.7210325977159,591.992004749565 650.9192742637208,589.2061868101073 649.1461144452022,583.03715642921 646.3557718841431,581.7966375217682 646.0280282246415,580.2421234888541 647.6204341720606,578.8199326134971 648.1333445861454,574.9528190625313 652.2526632849356,573.0514615346237 657.6727147775782,571.9473083310763 659.6893572378216,567.7631053569322 661.1555608455532,565.9602930203998 664.5800742366764,566.4982960665877 668.672901258468,565.6563906453846 670.6978188509794,563.0231437812305 672.913944964076,558.8623903748894 673.0001648189342,556.4858587280858 672.0721446589738,551.8992515880043 670.3317321825693,546.7632556265792 671.3786910518079,542.5642292286742 672.1947750610486,541.4319500083776 672.5367596599759,537.2735129844577 674.701814670888,534.3830374996803 676.6195297849798,529.3122938219535 678.3904653713641,528.4111188320869 681.7765216593659,528.9814201112697 682.3055812168593,535.5682531991299 685.3751243435315,535.7270319391562 690.2349885978906,534.2451851443395 697.1181446120179,537.2018805959979 698.5011418026929,534.3018913501196 701.00741526409,534.072371252764 704.9798087638931,536.3300650142094 707.0373748584457,534.4787437666324 708.8476820855742,534.2120499048083 710.031751808797,535.1596914552787 713.3792646146544,540.5322948408358 714.9404272779743,541.7356844469609 716.5124281975083,539.4097703380532 721.013799606741,537.6308015751413 724.311077452177,540.3448723650547 725.8967097537427,543.5165468403868 726.2867570225917,547.9622139222618 728.8397972254061,550.3286698054188 730.3873231390565,551.0341533719889 734.3659360680228,554.3775780522315 736.2670460885942,557.3785235704751 737.3229730854454,557.7265066269039 740.4012253578717,560.9851311799398 741.000828075386,562.6704117239608 743.2220131211974,563.5440720613583 747.9502395053082,569.7277137577498 752.4137831885178,573.7549979377295 753.3514416929158,575.9668906509838 755.9440528612364,578.5820294559537 756.5336066782402,581.0848872096146 760.1255062059639,582.8884834336394 760.4286041112323,584.5093010930351 762.2945579245101,584.7604105681727 762.2634197116287,587.0847406430798 760.7614141682102,588.145426131859 761.880521028022,590.7853328212652 763.0940451142545,590.8481735003675 766.8270853129162,595.3648146567565 767.957130875383,598.5530601760186 770.7563336568722,598.9815075955195 771.1539800431062,604.0613914185042 772.9488994815961,606.2467243945005 774.7911768018296,607.1709024478462 774.3227800501436,608.1494134724455 775.3452873770887,609.988024036132 777.5446621781807,610.2450395898852 777.2100459260637,612.0751426564411 779.0296495255443,612.6247741648267 779.3932190304675,614.4202527855057 781.9358095939076,615.8767220868447 782.8600569789596,614.9960475462258 785.0435579763604,619.2562873351333 785.5140816410793,621.1353091555861 787.643300693552,624.1665564509558 786.5204527864954,624.6991366165292 788.733124490317,625.7923218978087 788.1968759514192,626.601743457951 790.8574185974853,629.479488139582 794.283663923899,635.4416901917367 796.8048216218173,636.7253679177147 796.908784003247,642.4966676414745 794.9699943283387,644.6818203538567 796.1252218316263,646.3360961104772 799.3705983800758,646.8023332188349 802.6200544664533,646.283439573088 803.9477892208016,647.2939602114369 806.6736765724289,646.0319302925847 810.9682912395072,648.0083864701362 811.5142093426017,650.1199572717619 812.8451091817617,649.8560566698509 813.6224672560433,651.2734053726516 813.1241101794069,652.7889069036837 814.1794472510359,654.1861679312725 814.1233830195845,656.1963954935113 815.7892992697397,659.2119496460635 815.3237715715865,661.3066694205313 817.8017123586442,663.6731384490718 817.1362535642018,665.6701651693427 817.9818062290902,666.6904046191542 816.0598017894508,666.9393175542823 815.8506298220544,668.4646668138113 818.0175846119167,670.5065981416565 820.3352407226693,670.3191049203745 820.3474455962282,671.6814028244048 823.6718292724701,670.0327902594954 825.7614740311894,671.129100776705 827.9100738252604,673.1803484219267 827.8232296021043,676.9647846605426 830.6340766559596,678.4775943236561 835.0485620513698,673.5898996897513 836.968860635926,674.2953762944085 837.6783869926763,676.4910657577523 838.8628279872119,675.108092321731 838.0767145796106,679.425053700939 838.714723653728,680.618223451768 836.2692689768443,682.8073992334198 838.6062738588838,684.0578037568309 836.1353134582811,684.86456970671 838.4929270268495,686.1046343356513 842.2171948124995,689.1181329042505 844.1510263152867,688.5743912162162 844.1500385627235,689.8135028951988 842.0713693137628,691.8838890515249 846.4666433083323,692.2747441703788 846.1494863236883,694.1278933024951 848.3935789747434,695.3139975286688 851.2917855272001,695.7752271717754 851.3850275234629,698.0189940248977 850.0209459006337,698.346903804481 848.8847581483085,697.1731080729716 848.0983927731238,698.4458242961425 849.7152516995769,698.9698510920962 849.7638793784383,700.644211895317 848.0665509956577,700.6854695974306 849.2179928602953,703.2255926835435 847.262808950388,705.0607331410865 847.9634598993491,707.7270947929694 849.24356148085,708.6049579292259 850.0644252298204,710.9081949681291 849.028741444315,713.191580012775 851.6438135537298,714.2376117029528 854.3454697058937,713.3686342685872 853.7801589086747,716.7295267075385 855.120689552714,717.7799111081127 852.2769525212562,719.2471897069762 852.5356148911081,720.7308329947999 851.1078107803586,720.8290773114494 850.1940883178416,723.3225697939258 849.8965123173115,728.6848855962605 847.9417130263931,726.5900606477613 845.9323206278738,728.469072039078 845.7856836796201,730.4659133673814 847.4082963289383,729.2729239349574 852.2754645660574,730.7231278786253 854.392981505044,729.955256557001 860.6031595105883,729.2291182018319 865.2137338973462,722.6350256301256 865.9084511264797,719.4505269759167 864.6085830869595,714.4985148052979 867.2657478659064,714.2980175070052 869.8637564109519,715.1376204477602 870.4835508796307,713.8692838529182 873.8158028310216,715.3751173769209 879.4908360251856,709.4436425391141 881.1431102540413,706.209694662858 884.3962371979824,705.6884559611617 886.804496044252,706.9302085542087 890.2528506303428,707.7666103033828 896.249862592912,707.3821683369503 900.8148523098777,709.0387200188469 900.6380302910156,710.628039871564 907.433159700933,715.6370456067189 914.5451349753257,723.1165480858917 916.654201117605,724.9323425791258 919.9031554840182,724.2276987398958 922.4023741637662,725.4805055625511 922.2911694740174,727.0986706414009 925.7698432328204,731.7071322635866 926.9020084024851,732.1398631830243 932.2284756154411,731.3821943773 934.3825981472959,731.4447854505887 943.3023988885401,730.6465728617613 950.5392999258603,729.2345890437824 955.8117730435062,730.5697851312545 961.2173716822516,727.0352466885981 964.3565777783978,729.7562405891872 968.4858564543696,728.984999040136 974.0582476229011,726.7590234228873 980.0152061379694,726.3871358065235 981.4645481479062,725.6711371538396 996.0741057521465,725.0099094159644 1004.597924191529,722.2848665551858 1012.0815270926485,721.5251543431662 1015.7736620614819,719.2656430535918 1018.4115123766765,720.5808003652684 1020.2767518610261,719.3325262027402 1019.3184023884994,716.4200770955459 1019.2494327452903,713.8098700013817 1021.1793590239203,710.7223179609921 1020.6546393223039,708.9052519265573 1021.8483103632134,706.0431405172984 1024.0,704.95445889506 1020.2339252567137,697.9472772689927 1015.2417270528015,691.9700862377811 1008.8788705520709,686.4462672147363 1004.6809226940512,684.8874470459955 1003.6690039144809,683.4001278875983 1002.0134552934975,664.9792663100042 1001.5949777065713,661.7887599855624 997.552969494318,644.6948332403283 1000.9890761993968,634.3786857286022 1001.5550036578489,631.6448900247972 1006.6730390027624,623.9767390785767 1009.6155970200414,618.5113717774942 1010.2485272748369,616.1143206051 1010.557165760189,610.794653733053 1010.001986197693,608.5402659605552 1008.0731642104744,607.1703625691966 1002.578361635524,607.2839951327962 998.7043534154475,608.4264574193675 993.5252237724975,610.8033368674086 991.7084392097579,612.4898043198546 991.5089069625939,614.5633921377505 992.1968752362463,616.8503485631546 997.8494892563872,621.3723281062014 999.6967745888599,624.2934914284253 1000.5115399167707,627.9553630677909 998.4198595332846,631.6866684974345 994.2337647438222,632.53675396523 990.3367255608381,631.6321951863874 986.3884395988778,628.9442636331939 983.3790267595974,625.0488115594087 982.351538875889,622.9416632923605 980.5970352624025,612.802892886958 981.5739910407268,609.4079209926309 984.3920744834436,604.8000220196418 987.3887678860118,604.2190893979504 996.2185351974282,605.4662793044481 999.4871706659325,603.2299095926105 1000.4655681065873,599.9701015121088 1000.2545916585574,596.9961394129839 998.969064915167,592.2134057559592 995.9485193439973,586.7072667865616 994.3233161845781,586.1206695566814 983.0239917926502,585.5632041879633 978.054165179577,583.3128246903689 975.0502779487862,580.6899698118332 973.4870613207191,577.6851565016718 973.5849260185254,576.4020145474828 976.4945225797568,571.3026161252797 976.6686567970761,566.9518453407488 977.87183843116,563.2498714430656 981.4677774018478,558.8186199862686 982.9775876331787,555.1406207946033 982.9143879619882,552.9659378461046 981.5850166166999,551.2800339659739 977.3236673406817,548.6162604579769 970.1583491468803,545.8432484333357 961.5208977105207,543.2670154088066 956.2140916915545,540.642212410059 953.3287273832722,536.639515357261 952.9973451892323,534.127835665751 955.9291279937468,530.15899745151 961.4035483348042,526.5295918564501 963.2576855302287,522.3767934088662 962.1480532492026,517.6879463824268 959.7014410001267,512.2280948188607 959.5199300980752,508.8720609147128 960.7223662325233,506.4116030042697 961.0590670487879,503.01130526331286 959.1130430857914,498.90763827423365 956.9782508275327,497.88944946328803 952.2520063263764,498.5017362538525 950.1060183389999,497.8557001095534 948.2839659105457,494.9108548068022 948.402633886027,490.98158979804157 947.1602595116495,489.4023780572983 940.7442769199095,485.5151499320999 939.5002570965595,483.6692349685911 936.5150826041017,477.11372716150106 932.4124667914351,471.8071313975765 929.2151651173926,462.2579584446176 927.6191517502116,458.96591199560055 925.5254089372787,455.8795270032377 921.1135010349806,450.6804244570413 919.2032705923888,445.8656010867065 917.2356320867602,444.04954884282074 913.9811224050961,443.568756883953 912.2399157896081,441.78893369622944 910.5684435065173,438.90375823305726 910.3742765368328,435.2551456264714 911.0754974163783,429.3143406216774 907.2451218325282,421.95982437638247 906.9482128305693,418.90927989677675 907.4957918257281,416.7774061227492 909.2875871921215,414.3779838117449 913.7010726446779,412.5545088523893 918.3812805577621,413.5424743085316 920.0501706048377,411.1666645033778 919.2008269730171,409.12181346254636 919.7014212546283,406.9077314683841 922.437454447921,403.3813237783511 924.1615746156641,395.3579543959703 925.4807027129041,391.71359726438845 925.6745161532182,389.27106901845593 924.9523981081189,386.1071354634047 921.6649374480564,383.83634272523034 914.0673486764381,379.1819634612292 906.7597746110642,378.15208775830536 901.5368148404225,376.07402711978546 897.2832405775649,373.07956133590983 891.7563254774941,372.8465721970731 887.0587108463592,371.53326076510007 880.3337500721976,368.0345214010101 879.3634479610786,366.4634784464438 879.0316659481302,363.83437135691236 881.6339320242818,358.5036368108765 883.2441359836793,356.43815962764904 888.3694740736031,351.2285676134736 891.409585221757,349.81364915930556 896.9149694996629,345.73529164616605 900.3586118454213,347.1380616791105 901.7026007227197,346.9894307207561 902.2356137961875,343.56886858490145 901.1237825397567,341.1701285743194 895.173268039933,339.56573517524737 888.3957372378586,340.07110705232174 885.3202330642902,340.01583461516 882.6106865873172,338.5006821878078 881.382879118577,336.5497796243076 880.6510237403576,333.3329690929969 881.5516182611404,328.6104033369145 884.4692861854352,326.83742209605725 885.5837641677077,325.0439706786419 886.451178149819,319.2337967733894 885.9878841620277,316.18795847291597 883.0233576525545,309.9200166790148 880.929535579567,306.5756193153916 877.7334999768999,303.7052329149003 873.5536398816362,298.16467606191725 870.648916769635,292.9998994592288 866.1731638289504,292.77934852167516 859.5936938476854,295.79644367630385 857.0011184932592,293.68587184628905 857.1273685538248,288.6020301972467 860.2280686583597,279.16741151012627 858.9341276485891,276.43983073898585 852.3787024266268,269.7937317991107 848.3500907304802,266.2976911114571 838.9235194762606,259.4109933437102 836.0153140672048,258.08452537729465 834.2396968693721,258.207150067465 832.5550870315511,264.2517418004096 830.7314935131536,266.0989969923677 828.4043410632128,266.22516298723235 826.8457247735845,265.1012119256708 820.9339400522457,258.9160372848985 819.1710412482311,256.44348293748067 817.1465141308538,251.48455707977735 817.3297422944721,244.7816602310071 819.829447797427,240.00477559688193 821.2938514865558,238.71044192933437 828.2152611716458,238.94350136850426 832.5318306500523,238.74212074224636 833.7994034335944,237.5481221048509 834.154080477386,233.69293006775 833.3054993781358,229.71292861368966 830.0669647731976,224.42617460482745 828.7306122544736,219.72331163510944 829.908092406512,218.0965564843333 834.8353990950045,216.03004604697526 840.6396395988484,214.67922327789847 840.6932803078594,211.77611492927485 839.187026640599,210.13513252624273 835.4733936008993,207.8989846933058 833.3438182077571,205.86495720136816 829.713495462389,203.41969393751776 826.5645761397709,203.61828394202394 824.0235007794123,204.7689844058017 821.0627028799329,212.09861519952744 818.5499568117805,215.42982068003687 815.3276926840656,215.12468592748633 813.6114569798344,212.17422710976905 812.846657108701,209.32497275827188 810.0073144317636,207.86600197455164 807.4088007260411,199.81964265680267 804.1908742044383,196.309186923722 798.9006054604665,191.18792443015388 795.1862106100345,186.0790358029791 794.459772621632,183.55942893920712 794.8685661827454,179.59111556476182 791.5905198943613,177.10855244587663 790.1295007226428,177.0920415139301 786.068481771311,178.42258718731546 781.9450556930806,177.3931600998094 780.6882544625084,177.77627119923204 777.3622551113803,182.49690490459523 772.4338646927782,183.0473381112579 771.0161766397308,183.92867472107457 768.6031971443766,187.42351176766704 765.2527411882634,188.74871199269387 763.1437809431153,186.30663436009263 762.8567305988839,182.05833009399362 762.0035154167973,178.0745133944547 762.4426679047363,174.11799954395417 763.5393726264242,171.56899905836428 765.9945932390028,169.78689792531668 772.1332500187723,168.0509168549563 774.2583718000633,165.21200785596818 773.2003871492587,159.06075738251457 773.4508591578956,157.56629902170664 776.3637659238185,153.35398170497513 775.018242682582,151.35579666060266 764.6914514473061,147.43507146451623 761.225593115657,142.69811618686833 758.911153361348,140.91212366180116 757.3025883360734,138.3773850205489 756.7249327091113,132.6472747324234 753.8044557534694,128.02408916530896 751.9778089956009,126.75830208185585 747.7256701837744,127.60696953618651 743.1584614304169,131.54746309789982 738.2820837948047,136.3503971796472 736.6933129476383,136.76754357179902 733.6639541278261,133.63289065549793 733.0897439655994,130.79229577827277 733.5849382223388,126.00000857170721 733.3103754584404,124.08517953664341 731.3067389250187,122.48058395803127 724.5508061162245,120.91979550265069 721.5563769764285,119.77355942544636 719.2573461648983,117.83596193306334 717.3404737927019,117.25342521797972 715.8332101369497,115.32588360399075 710.7614746409234,114.31205981778089 705.7785802234962,111.15871942040326 701.0596402473982,111.19215006252387 697.1974830895768,108.3787415001633 692.6100564138336,103.49206676326833 690.0726756885293,101.56891828130824 683.4436709470518,98.08407132785976 680.2412956513792,96.8999698891173 677.1882938414262,96.70746444554993 671.2854667921058,95.52010927738843 661.5871663619799,95.6407519388988 653.9310614047904,96.48860631625064 645.1103426263775,98.38830633479631 642.4508924282054,99.20913218654357 637.7070216945655,102.08873260402913 628.7473576828173,107.91289418803876 628.6411604162464,109.12524483493564 631.3367533954577,117.72709136950357 632.7710979036351,120.77554463929789 631.8742187435615,124.20099343328161 630.6538417263486,125.50017788270247 626.6822232065483,126.28873573438989 623.8267859242944,122.87793657603106 623.0297822646695,119.1830029279323 621.3783770374371,114.88325900900418 619.6456588369927,113.53297484887594 612.0621938732681,115.0271506877674 609.036415888396,114.8252962453347 603.0324268789052,113.53151081312501 600.3864152067671,111.44366399210014 599.2172874101657,109.19091204576353 601.2143551978795,104.85082901913893 601.5271154244625,102.27815706857211 600.436359688997,100.80056121395648 594.889937857679,97.24295007104456 589.0775975666426,96.5302798107449 582.5094568293375,96.34834624200471 577.3398933076595,96.99890289158884 573.8117518321301,98.8194126471177 566.4686362138684,98.37815644780846 562.5827143129719,97.3167149608264 560.9099784985298,94.60377555181913 558.1492278635025,94.51352082357391 552.2558603030079,92.97382775053927 550.8005016579552,89.15985884365068 548.1794726796878,86.09792518396819 541.9522250988489,83.29006278227291 540.8263503101739,81.0371256327403 540.4967900042701,78.21686873422414 537.1941659501239,73.69601729096337 536.6863162820879,69.7124383378748 533.5425498989218,62.965611854662825 529.123167628177,60.40848128882351 526.5302296538174,58.258985604042095" /><polygon fill="black" points="514.6504690660773,839.3065418983546 508.7433644187106,838.3896140019607 504.10983429498305,838.7708803490859 502.7930415011705,839.4646052762301 502.8083146837431,841.2431610320798 505.3593588409808,845.5762785269934 504.7499367238135,846.7977179055641 493.9268065711133,847.3820882982482 493.44322775893727,847.9460617015939 493.4708634403225,852.9834700372819 491.8889875978275,854.3259096388249 486.3905117671798,855.3978080590125 487.30529206010357,858.8892263179268 489.6160314177701,860.3068680819307 490.0548457495213,864.1290178119373 489.4443704721666,865.429633776052 489.12709431362583,869.8708440082387 488.54574698666227,871.0344291778724 489.6932732056891,872.2536201553239 488.4795941602092,874.7096588252508 490.55812885970204,876.5633255414245 487.70007377656304,883.0520104020292 485.02654411552146,886.2155470459857 481.45391330336184,886.4382633140565 478.9670863437556,887.1368559655592 477.3943364082557,888.8242288385065 477.09655710061793,891.839755111789 475.5500566891384,894.0176346684378 472.6292740683344,891.9438922214566 469.9326984544938,891.0147347057149 469.8257597301554,889.0736059067267 467.84324487636076,887.2728183433934 468.1304805414981,885.8374395616875 465.3532800942771,884.144108926146 461.12016663501873,883.4082219581667 460.5246195008028,881.719067014564 460.61885892754583,877.9832589330118 459.52323381576156,876.5254521140124 458.3498657098101,872.7563951448531 455.15378863653916,870.7047107467054 453.8063810336946,871.0230225320619 450.2911017864036,876.3415229594082 451.86595236987034,878.6279164098149 451.87142343952956,881.1176590861853 450.98988442094037,883.989773533583 450.99269397738857,886.2450816122854 448.787809645928,889.9952384258336 447.81107363794433,892.9093163444722 448.9787218564705,895.2423049574264 451.68369075981326,894.085450217674 451.2107029729452,897.9768272966734 450.05982225004306,902.318092698461 450.4276336987226,903.354962136217 452.6734550652506,903.2919812742535 453.6429040434604,905.579571288397 453.7538564046187,908.0928255950795 455.861989512513,908.816598496804 456.22880035631874,911.6321718505745 457.29192421857783,912.7899864242586 460.1481999735348,912.6795201413424 461.08046191569815,916.1678678511626 462.73489174781486,917.4958333631798 465.8494057969269,918.7279237502912 466.9804876517146,922.874022015679 466.3444270367125,925.1334062883362 466.54119815106606,928.4756851277933 465.33086381931645,932.9765245280505 466.3465588840681,936.1735736704253 468.27911244364543,937.6275062377654 468.66714097165817,940.1828136686544 470.99038558824236,939.0328928008798 474.11480412244686,939.7335625850952 475.44282332703284,941.5783343549944 476.48042364267457,944.5991137344797 478.05881544639016,946.1850553972632 481.31836924520337,946.5873716683345 482.2602260653479,946.1025243892483 486.31824640989464,939.9137723984086 490.44595423866286,939.1896101420347 491.78375699698546,936.9170401627961 493.9666865074297,937.2219391477148 494.9309307053668,939.2173284855321 500.1807974079496,940.4734959748998 501.63064118182086,942.4817485489374 506.11985334567265,938.3795756377057 508.1130886471168,937.9072333448494 509.0300538771976,935.8555791055159 508.2408424663161,933.0127009562304 508.82475763252364,931.222858903677 512.6300822255353,930.9985726784082 514.7113287279633,931.5475862826148 515.9989219029746,933.8703592965925 519.1138284597934,934.5309952533003 520.2592473984005,931.7376111381213 521.6748288853549,931.4200492003698 523.8371909540089,933.0787251065782 523.3789594789581,934.7102105123789 524.4911214316055,937.1241837854687 526.0809465867163,937.1480880593057 532.421230727682,933.5202374687361 537.9244749407418,933.477096801545 541.2619469427914,932.9376399877093 540.1475120344919,935.4572525375298 540.9352976446261,939.0378031419361 540.9904223587141,942.2474984596894 542.1137641445316,944.4840537392826 546.5444297882843,946.6731752496394 549.5191456980369,947.4777153368688 554.0163665746485,943.3276335592977 555.2232376960524,940.784102454367 552.3470501232248,936.0303925544074 552.5927438563764,933.8995863776557 553.8322325469449,931.445594514154 553.6820740450886,927.2266811325201 556.5446567739513,924.9997614672851 552.917284603998,918.6926219766863 552.4861553851991,916.3602943091549 553.5652938900489,914.4333891868573 557.1519933452114,911.7333237792573 557.238632229826,910.1690897420392 553.4912403632954,909.7760436762525 552.472999206068,908.6644135554625 551.9542988508597,904.3805838143657 554.0787961380373,900.5214015819387 554.3106569221804,897.6990372678644 555.1964133040767,896.20040627736 558.6332991073754,896.4609142020482 562.2908664619752,895.6069995560753 563.2398218868385,893.0662265050855 566.3554613752681,891.9274477783626 568.6497826024784,889.0274036980643 566.708908702354,883.5711445515997 567.3699795193385,880.8711610270022 564.1439298950849,871.1304414408997 565.2390723245695,869.2379676707976 568.2229410147056,868.621980447807 568.059274451016,866.1173928812153 568.9154170047566,864.3669395332944 568.6990343607569,861.8543990905494 567.5077705100194,859.8115347159892 566.8682998485091,853.7940266527534 567.7890599326241,845.704728249317 567.239489742201,844.3265588302681 565.4250942769971,843.4914240495929 559.4402468335188,843.781052049285 555.2466513671902,845.4041684675528 553.420349374744,847.3059128474789 550.3548179943782,846.6380166942612 546.9727191628765,848.1366025657186 545.270119534477,847.6580255901516 544.3118366746966,844.8974608017369 540.7679538755715,842.5149603946568 536.7406589022488,841.72404324195 529.4128985642675,842.2967427249075 525.3659406080287,842.1772896473661 521.8550261639988,841.5788125423526 514.6504690660773,839.3065418983546" /><circle cx="510.7965978632205" cy="882.8346964412804" fill="rgb(100%,100%,100%)" r="16" stroke="grey" stroke-width="8" /></svg>