<?xml version="1.0" encoding="utf-8" ?>
<svg baseProfile="full" height="1024" version="1.1" width="1024" xmlns="http://www.w3.org/2000/svg" xmlns:ev="http://www.w3.org/2001/xml-events" xmlns:xlink="http://www.w3.org/1999/xlink"><defs /><polygon fill="black" points="352.9397277767758,934.3110479740446 353.9295049454087,936.0303898069612 357.4201353483487,936.3969142965684 359.2530027403725,939.2193711817454 361.3044465984951,940.7084297685828 363.43224083488633,940.019422440794 364.7931373450557,941.468647551777 364.82355009116304,945.1549535007117 365.90846608624923,946.4617245187101 370.7200924348901,946.7696785270477 373.0343192329493,949.2307547324082 378.0867092204777,951.6313536251713 383.16002580786295,952.3492626830374 383.18947803868525,954.6348761245674 384.9184733007708,956.2390521214701 386.9637205922561,961.123126869651 388.61069669802765,963.9817240038891 389.8088841041545,964.1797792581563 392.0305707208573,966.5137366903137 397.23440677426396,964.573842934837 399.4246331206501,959.645805498363 400.8556615326557,958.8211490489422 401.20356588682927,954.9882206579451 402.464241717576,952.7884830290403 405.8339158020058,949.9693060731969 409.54933157749224,949.6817126400791 411.5267965086729,946.5047042947634 410.9978180833634,944.9753693914332 411.10387155058294,940.2444817113592 409.9920733395738,940.2469990380428 407.50150717507904,934.6715993674388 408.05393541317864,930.8464003984016 410.1539237434194,928.9398255956986 412.73618137911933,923.3428061561642 412.62977585632547,918.236787296973 414.6515867779701,917.3970106834239 415.8809241051479,913.1460921840395 419.25910503407613,913.2949170606738 421.7385970399799,911.5959166057047 424.3018379339456,911.7654413670042 427.15364982418305,909.9613254065421 431.88094454532217,911.0974408420581 432.90054093712615,910.4698372100721 436.60637066518,912.3052999996418 438.36271658338126,911.1779391276843 442.4590612044287,910.5751178308052 443.77716689388325,909.5193552607883 443.11543346517675,906.030108349418 443.3352509874587,901.5158628772217 444.6017090940334,899.5471055471108 447.8039012149099,898.7664795492508 449.230313823893,900.6261719428566 451.3897672697032,900.782972396272 453.6802067193599,899.9586254371907 456.3903674442611,900.7917865699835 461.5599644595436,900.2755227846047 462.6121740846835,897.5965305402179 470.29784701105666,899.4714715096302 473.1548871274858,901.7476385960538 476.8025392415288,901.2339410983017 479.1589631400258,904.5238924518097 480.1887420221748,906.8803581057861 482.6713651783488,908.3487495288218 486.27008805785374,909.2320197181809 488.2112018925418,906.457971024742 490.485593150934,905.9309522032607 492.85862231342827,901.8816540766857 495.3005509286336,900.8504452327558 496.65733559309194,901.9288240961381 499.53375956615685,902.0159843490017 500.9551465360178,900.6603051966719 503.13280855771904,900.7310141467487 504.46919501262477,898.3988966707075 506.7095980827817,897.880220974191 508.65275779055014,900.2976734193041 509.7867161818519,900.3548739925687 511.0641361714654,902.4046092149827 514.4904322136921,904.7313110859054 517.8764436183394,903.0143965943691 525.4830338710404,902.3347270007916 527.4931160271437,901.063488435569 529.3351747536782,904.0369632456081 533.1301952387488,903.1360763259621 534.3509248712531,902.2199797576335 535.5713196514163,904.329590208 538.1082374862208,903.0275479571059 538.7818494016877,899.674422230495 541.6103598725632,898.5446058028539 542.5335791983284,895.7878686683778 545.8620751422181,892.8140783651575 546.1672137418036,889.3396599191921 549.9237882120689,883.9831466595213 551.5424963705951,884.0075634131407 552.6286009414937,885.4804351164837 553.4760842140698,888.5232557418274 550.1112333868535,894.7805296609876 549.7199421768806,898.8436494869895 549.9296593169071,903.6356463275572 552.4957581981439,909.0278771482293 553.213302272104,912.785330689643 552.4070010465019,920.5126407530088 552.6265924768178,923.3376454616616 555.5253067046775,927.1223061752589 556.029413362903,930.5144173189009 558.0584635759052,933.046367498049 561.47507172143,935.7636777647778 561.9428893088266,938.5849474305243 563.0341951704114,940.3303735938885 563.4692946012127,943.5351208561912 564.2628387067662,944.568579582289 567.2467692629768,945.6270857950775 569.818760323988,947.880313491755 570.7930530236969,949.7479581024481 570.5389310299648,954.869558311807 569.8481425200544,959.184321282926 568.1813799997049,965.275340015817 565.0296017916719,969.4153693863213 562.9614854601034,972.9240565243119 560.5455471302682,975.3349675701679 557.4306873901656,982.7079240618359 557.8907717534919,989.4508807572784 554.8151396717712,992.534561784206 552.4099935104097,997.4414581282869 552.1244385103914,1000.7829315726872 553.3406570311685,1002.1911414930499 555.0330362779915,1002.1441157313357 558.3884934895981,1000.6863535026104 561.2566722283274,1001.6197482395213 564.1495570729406,1003.7387890129505 566.1197328985633,1003.4259394552198 568.7559255878414,1001.2249049127552 573.362160583386,999.0847440146642 575.7869815519999,997.0865749581637 577.7585317545819,997.0856695593685 579.8395104377397,995.3506823033639 579.616118474379,990.5134515800714 582.5067889607251,988.2753280430524 588.8893619607346,988.269117169182 591.0493063311343,987.0652052993215 594.0536582041885,984.4343311663171 595.3476207521851,985.2808050728869 595.9314912969709,990.3626247693331 598.558784929325,996.390311477971 600.121211973243,998.7285515559435 601.1595333482984,1002.1476858195398 605.5562148473844,1003.4503120257328 606.2631184405958,1005.6887164965308 605.2739267139087,1010.3064393299795 606.6827553573843,1011.7063526894611 611.9678113615511,1012.3700889437282 617.127890461546,1015.7029898558342 619.4778659420268,1015.3944371146969 621.8065119419545,1017.0712656893198 624.2376383513526,1017.2626979943125 623.959149325008,1019.337484463233 624.9648866142643,1020.2820255326551 629.2202556345715,1018.7080643491048 634.2359566155761,1017.959040646725 638.1665053504668,1021.0057822583191 639.9373343453484,1021.6522350788952 643.1963012268152,1024.0 647.2582240425787,1021.234278798744 647.0316028501503,1016.4254206062828 648.1737795724569,1013.0558894360128 645.7375671881045,1009.071329504167 646.9495538273793,1006.3797748721564 651.3526058392241,1006.5219366873513 653.7438231419934,1006.1277540115794 658.0829086787011,1004.3029963543026 658.3865990451563,999.7349359724222 655.3900311782841,999.8687725147483 653.8281323207647,998.6663721402846 653.7464717959108,992.6165769814454 654.3519304078596,990.1236068377848 655.9765332969878,989.1863911191375 660.1691118456032,989.4270109971501 661.5575307757825,986.9164139801808 662.9073579683305,988.9246341142338 664.2687213163681,988.8657794727782 667.4038634176516,986.8633042495904 671.7934581019164,985.2360481758807 674.3297834359637,985.4151295757524 678.2371473659198,982.0647365797005 680.2227521669222,978.2558499023853 682.964074868169,978.4475322708201 683.8589026206923,977.673370869628 686.2979214147849,971.8580406101619 687.4746317413666,971.4623804140379 690.8330865067096,972.1625439836561 692.268235980666,971.0963430177179 694.949832836492,966.4172249200383 695.348701982774,961.2439572931776 696.3834045526916,958.936230854109 698.5653513322827,956.9796049889834 703.545457532924,951.6129592359061 706.3251300453784,950.2990822330017 711.0810150505962,950.5214710516012 714.0239599580971,948.2546115553707 715.1488994648414,944.3201164781942 714.11818042775,942.8827782449905 711.1436836679321,941.5072722942434 711.6048369872553,938.9527016637945 713.8364895999963,937.8473988437078 714.6754000667697,935.3199026466395 713.390164627676,932.3233270098672 716.9717668847884,927.5382901441664 719.6164261370782,928.8762061512148 720.2282641057686,930.2548193488844 721.7577672028694,930.3201160623914 724.926529541741,925.0098029271059 728.2663568468168,923.9943173967616 730.1700907037379,922.7176554693385 731.4464593304837,920.4983275654432 734.6682288676425,921.201037873373 737.2803434750296,919.8314284562389 737.811853171776,918.4196673916942 736.1354607341874,914.0305827776572 736.9371388530609,911.6077949369992 738.490490216486,912.2013007036516 742.3758111069416,909.224512271644 742.7055795397346,907.0017035191801 741.4519336077653,906.7132819124191 737.4271666841323,908.0611871959159 736.799598153528,906.6322138475474 739.7270686543733,899.5706110346862 742.1253282224042,898.0636352517467 746.8086906827349,898.17526252054 751.6089843341739,900.9605422808718 754.2764116536952,901.7872645670262 761.0343142576581,901.7512607663166 766.6645803940204,902.9513817996176 769.1716639112412,902.966092552682 772.1485869155971,905.7744655438191 772.2874769180321,909.3504801148372 774.0751751018378,911.4274995021976 776.1629689712269,912.6791547608153 779.0341168222916,913.1650202640337 782.3708695400678,915.0866370936081 784.3017774341732,912.8232817560878 785.8679510725754,908.9277853077093 784.666031134201,906.653257937439 786.3278422529763,905.9504270898669 787.9166790090845,904.0040650905762 784.9193609329986,901.9637277159788 784.0978088591519,900.1191431794448 781.71446459867,900.096587783065 780.0150266780403,895.8062557431554 779.6094416265021,892.4764438227772 778.1681982274777,892.1148988240666 774.7657533088565,889.2197686226145 775.4331997310956,887.3135040229797 774.8332097970573,884.9862148770142 776.0113471604847,883.5946872229213 775.987958685785,878.8121056308805 778.3855650989221,875.9373978805372 776.6349477772567,872.5078668772687 775.0439235801651,872.3615737687735 772.0862595183038,870.7054766379472 769.7693370345745,872.5039603531294 767.5314031252939,872.7929189265049 763.5829535560613,869.2800863202041 761.1858212830479,865.8309335767995 761.1859786561668,864.1342559546343 759.9182341283465,862.1084969822957 757.8747124715824,861.4892344463893 755.0003122177676,858.7885403763819 753.0672531455937,859.0495422275498 749.4868268796009,864.6547725727119 748.0931996823806,865.0479601924117 747.3913248084057,863.6822417108712 743.7426567725739,863.348062558445 740.3204208699722,864.3304618242505 737.6907410447812,863.9596019202675 735.4216850934391,862.538200060997 734.096199303878,860.6554426726049 732.2019509539768,859.4575985973695 727.0195374633299,858.0319102381128 724.5464045325776,858.1689628501958 721.9150037007646,856.3792075507437 717.5658009587912,850.6317535993389 715.2164549271774,848.7224105235485 712.500784243495,848.6889479442189 712.9948592152813,846.5459402775211 711.2497674819957,844.3569293990241 712.0923396882584,842.9952086633027 710.9548459236026,840.7846338659743 706.5140523917896,837.4044463847847 703.8985269128997,836.8137271470717 702.7813907327389,833.9215807635819 701.0347516124355,832.393861777272 699.3916791440222,833.0486768138737 696.8261256496216,830.9597795757229 692.9601866506287,831.6182159150475 691.1022347884918,827.980090179463 689.2862675224102,826.2441989055555 688.3157406035955,822.5591597541222 685.9770168991953,823.1288966836083 683.0698323266769,820.0416668299972 679.6345240902263,820.5092613936158 675.6340276817401,817.1647183033676 673.1269995000251,817.0592213960031 671.3852930030997,814.4664675188537 670.7362985292883,811.7487683565193 668.7082753268835,809.5952361988379 668.4906017161679,808.011119692819 665.8224568104832,805.010105854921 664.4104675524193,805.1609208693425 663.5954852430705,802.1411649552663 662.3074339176079,800.3938180300559 662.3781514579235,798.2679361339685 660.09744940682,797.9585550273873 655.2520821362733,798.5733832665903 653.0305763063235,797.2835206067689 651.5928492565369,793.8918806044298 651.963136821937,790.6566544916955 655.0084728824418,787.1613355036496 656.927224232606,783.4082216276211 657.5045032629305,779.5592585962141 661.6767311471774,777.4983363649291 663.3907642093984,777.3432945749132 663.6593540776587,774.6966136642839 662.3526222923767,770.391957900178 661.5032083100688,769.3658229446768 661.9076036456879,766.44374164693 660.0472365313162,765.2239861765577 663.0153828245755,758.0690627636561 662.7008678140804,755.062543360815 663.8073333690222,753.5980782287595 664.7145679349586,750.4389586113103 663.8433374905864,748.8357186868093 659.565282126375,746.0995216650965 659.4985721932886,744.3459899456327 656.6875243995917,742.3987449494532 656.4369533098433,740.9001063102291 667.451141300704,740.5309926090762 675.3390872601123,737.9496328605996 677.1061392660672,735.5485936718353 680.3458380783968,733.5650712243016 680.8762542590356,730.803244756981 684.6944026222565,727.4489419721031 685.9679368598495,727.0793283235832 686.3282186417609,722.2858466099452 688.254242091285,718.6222131802381 690.2265872135499,717.9556778202675 693.222746789308,718.119802936 695.5247828516901,713.9059501740398 698.5498052104726,713.3085736571882 704.5206953633729,708.9505895889595 705.440562834334,706.6701610357914 707.0197408844297,706.0171190039787 712.3313189700896,700.8759991042829 713.2799209985488,697.7936896856603 713.294940076618,694.3678420557046 714.9603365278075,691.8640978818903 717.4366048170606,686.6475204360081 720.697052532807,683.3881848137551 721.494170941015,681.0043979457266 721.1778401562186,678.8501778001962 721.9182258936058,676.445379485504 720.3979652051883,674.0664969974314 720.0857803945139,671.6658499954158 718.623680743654,669.2569265186362 716.3362470244901,666.9482119491068 711.0101843623028,663.9216890438513 707.4419648908008,663.1636402938776 706.3680334353195,660.5458539398207 708.8508265030707,658.3563829183568 711.8582644026915,656.9671817138218 712.9845166629458,654.9202410715964 713.1785601124241,652.0259883166367 709.0421144112061,647.2632118055635 707.3563904618727,646.1769098995672 709.8761388454617,643.1471352503273 712.1158652638372,643.7489508435431 715.4494872487905,643.7524964687886 718.375604787279,640.7389480618169 721.2265468442125,640.8467386644854 726.8991748990951,639.2842792838978 727.9505417614828,637.7501312397595 730.8085400226548,636.8712417901747 730.9018419387587,634.5623500302696 729.5295401569757,632.2199929937804 732.1449512491848,630.6594756084269 732.9467141292489,626.8226269775622 735.4120743037304,625.4447020973043 738.5421272601973,617.4364157986961 736.9058299115317,613.7579495796388 739.3832990049077,610.4615586556222 739.925529007562,605.4229402493822 741.7191397577086,601.5733227612868 741.2313400176371,599.9556239172691 738.2453350525888,599.8989627463413 736.727110662669,597.5776289368025 736.3521647147359,593.9726599250381 736.7303936675653,589.5591944241328 740.2724691281402,583.0737740504894 740.4368189549931,578.2590567538767 739.9080832437201,575.6582030494653 737.3567975985866,573.445711216083 740.8545968559413,568.633431811449 742.9387481360492,566.8727750145727 742.9755768870841,565.5517890807272 744.4938871189166,564.6123538194283 745.2930327893175,560.7526073741692 746.362143946437,562.0597192740349 750.2136335971455,563.7473629400545 754.2145123009312,564.1661656351746 756.3457709729163,562.9693043649321 757.6735519041374,557.8985682047869 758.8324361915007,557.5679939503746 760.4798037319674,554.4584951103495 762.9826590052651,554.4446731276339 764.8895709402154,553.5202665251168 763.2218755114701,550.3728712243176 763.9428962405734,547.1994980110678 763.2377127525045,546.001307482831 764.1943291915605,542.8216120983075 763.7807226212475,541.6997648381055 766.0104955250041,539.194432420656 768.9267121666137,539.1656463235613 770.194746831187,540.1871772696134 771.1513864099118,539.198068845043 771.3850962916608,534.8620260136764 773.8337054202228,534.5393212583743 773.5857788610936,530.9131705022098 774.4900264015995,529.0338560695764 776.6181697562059,528.9620879431403 778.3491240370895,526.5721872975319 779.1710916097811,526.9827935578035 781.2922841427378,525.6831526978651 781.4584322327098,523.6907344630085 780.3475188789465,521.9158409364994 782.7900454697319,519.0967864771926 784.9864392875744,518.1458613864975 789.0282365407484,519.8797876206612 789.5363442138686,517.7901870326796 791.6672195564283,516.2758388556099 792.3671460044426,513.7899987971884 793.5855050758345,512.5289396913878 794.0062263376728,509.67171276559895 797.4999731579842,505.7424301118647 800.3616549610657,505.8838465648206 804.652629400793,507.71018923823283 808.8816651480589,505.69161057504095 809.8165793912028,504.3340208580239 809.1316222541292,500.32858523835614 810.2516003977707,495.3867281478307 812.6116766958057,494.7432105306883 815.1331237896987,492.28327898446446 816.3508306460127,489.7037405139687 815.2639768056671,485.3884160303253 812.5737712988854,483.4528782020701 813.1560406937347,481.1012519822324 812.9184334796147,478.217467501079 814.1886827403187,476.5388206466919 811.6565520685123,473.76882976136665 814.407804614304,472.8246307797307 815.5434534541474,471.49156541019374 814.4476731394036,467.30148108697654 816.6616240753679,465.91098988207864 818.7342244234061,465.9992511639606 819.6055767638787,465.0305841891759 817.0920061544504,460.85352947913304 818.2006657205891,458.4386074828393 816.8212905768115,456.767376427205 817.4847825487852,455.59221966072664 816.6082276093914,453.8765711044597 813.3000498909385,452.97561857754556 812.2510484668678,454.5439539627391 810.14688192474,453.2298029727996 808.6438940132257,454.18976693265915 806.0512438310938,451.8794843199905 802.4950134033883,451.413007116268 801.2995098999215,449.9987951693653 795.8063934823483,445.5566310895273 796.1586781429314,442.31716773065966 793.7727896492439,438.6630281739614 793.6599450366243,435.7135794805381 791.130774205053,434.27106402110724 789.7551142106264,429.66287553466054 789.9289467284921,425.92310010467963 791.4028615152048,424.06796031413785 790.2598344607965,421.9414943733259 791.6209986934747,419.45314288548366 790.7940003829777,418.4424487179026 788.5578164517102,418.71684016058737 785.1966341628656,414.48022019092116 780.7796240790569,413.4489449743527 782.2509626246591,410.657306622129 781.3110121550068,406.8226942312066 778.8864678194034,405.6465984621982 778.9304845805282,404.83232914746213 782.1125039505746,401.658588197079 780.1337207381281,399.30751592476395 780.8302302475915,398.6452124974629 782.1539841868195,393.1338126145887 785.9082014317048,389.378386844787 788.5709745281274,389.06960478482597 789.7130733534891,386.5910022390266 793.1248630006953,388.1460706549078 795.633836739854,391.3479143092244 796.6086037711972,387.47117888987907 798.6650734919305,385.39198867378775 796.9560713719885,383.9532632300368 798.1508187217728,379.3376340363594 797.1740123583645,377.54294741278534 795.4899871305674,377.2550228214636 794.64487319417,375.86927573316325 794.7733346244055,372.440934734576 790.626666269144,372.1487590014152 788.4147328855375,369.2480404432033 784.3838339076176,367.6541156993102 780.7926076742576,364.73356880395386 779.3398422100931,364.68175760162615 775.0828244647711,362.0767284645925 774.8113006445803,360.22094182213095 771.0115068344728,357.3269566272488 770.0619382266544,355.48218760181544 767.5832123656944,354.45855285823006 763.6270033735125,351.86701722689156 768.3433138647948,352.18136728966124 769.2598948978658,349.6830236451399 769.3420557802128,346.3083843586477 770.327992658388,344.03498288807043 772.1461171855975,342.74015215605755 769.7614563064948,335.9547242018465 772.3237032943107,333.93927001692566 774.6904345596196,334.25820997557594 773.4164446223598,332.5930235533946 771.1085287663084,331.5834003781838 771.0308010989294,329.75294203856765 772.2241801647684,326.4676763780735 771.4574163519765,323.23535376514155 773.3908909708073,320.0432789267011 777.6061181439168,317.32148011083245 780.2624287131879,312.56548637324863 784.9293363341169,311.39330129415316 787.348214946872,309.04133174635683 788.3596287140151,307.0347999941238 790.2205126069954,305.9237773146783 790.2110984016241,303.16181806237944 795.2581309855685,301.1819082773195 796.2297167534321,297.91665514322995 799.0697879472061,297.56992713410796 802.5215291828555,294.33916823399454 800.7615646857214,291.1381126568083 798.6980384189752,289.5263159399025 796.6351561918382,286.15907580909175 795.2359896349233,285.45939167539154 794.1492683782003,281.42638905337833 792.4398501231091,280.479152875021 790.7836146067364,281.4500797887491 785.5235190864445,281.66929864794804 780.9173483092952,278.9959892732097 779.2519897353532,281.69059786244827 774.8793585206209,285.0663710239313 772.1355665067654,286.0305733280619 767.7579242837949,282.6072996126936 766.2694745071854,280.94093674649366 762.5810906453004,279.942123567095 761.9278454674381,278.96831867334936 755.6266093146763,275.16946519436067 755.3438329763216,273.64349911704403 753.0503458519851,272.0664637799439 754.9292799478316,268.1499583178057 755.5328495239758,265.01551328531264 754.6352241666515,259.5669569022692 755.2815377387045,257.29567489966246 754.1550865127418,255.74738234804238 754.4357453193362,254.23154068887516 752.8800630468633,251.8557197672768 753.4172924376758,248.83348123990868 750.9821209488885,245.63386142823026 750.4920442171275,241.46118239021382 750.9977912387382,239.94935611332573 751.0706560583457,234.76314519762002 752.2038202181898,226.9916305251329 751.9678743365065,224.5881094821043 750.4143103973422,221.6779308806232 747.9139560532732,223.33008693843283 744.6404391984006,228.6257742405346 744.618727082085,231.52223759650758 743.0691421984512,234.48571420737392 739.7700898823047,236.2064031818329 736.6398586699979,238.92232569858322 734.5455304550794,238.17902802765104 732.1281799439738,236.04293962175564 731.9001056353222,233.74960650504977 729.4757568763174,232.5756752672538 726.8780361853012,229.23106916769018 724.4123027992516,227.6713003952126 722.8485600474953,225.52882549064066 721.5248147096474,228.78851270565872 717.5788406329225,228.2974497382512 715.4739608066841,223.9479589207466 712.3982665748316,220.9894358162054 710.9738665452196,218.74815793228197 707.7605772953011,210.2599728131031 705.2276667606011,208.53657062838874 706.8108231500182,207.08556589962598 707.8559375567594,204.6745120147932 709.3284448156322,203.55622493377302 710.4376089295314,199.6994157156156 714.7561421737597,194.98671020955203 716.9651340103895,195.37768912904858 716.9524861022328,193.75870133625233 714.1078902816996,187.752764184424 717.2018128110791,184.1438183261713 716.7549211101312,182.09360269147487 714.1445795935107,179.86528542279905 712.3193169051402,175.85039474999905 708.0345542257786,174.0287459088297 706.8633116768949,172.62365766921198 706.1292618419908,170.05321203000324 704.0131629952639,169.9864004633963 702.080379588008,168.11362699575704 700.7595185693974,163.82531520789348 699.5093832945979,162.38862884768082 699.0979281506502,158.8448304370089 697.023146403266,158.29298680442605 694.9238549960919,155.47770968455245 694.1243235902865,153.0792374138906 689.0366209985713,148.87757920385047 687.378715574801,146.57534600962913 686.5258609872136,143.63065719329916 684.660446732488,142.18322460368654 682.0416025785602,142.98448473484666 682.7960393982482,136.26281379633963 681.8500759238508,133.18638440865004 677.7572817549429,128.74070277473402 677.0850618726073,126.96202608633814 673.557253013784,124.97958091383805 670.5423304719442,124.74221702967702 669.0851080142496,122.57582686770218 669.850795590687,119.26933398854715 671.6109468719931,116.73893019388424 676.0002846298262,112.25886355484192 675.8228574118856,108.84576000505854 678.0623532894565,104.98276425217011 675.4992270671538,98.98567605450614 673.7617060270132,97.74362619832823 667.9847085247173,94.74299901434904 668.1735637410654,92.32668300414639 667.1761278233513,92.18705391279093 664.8335775260077,87.8486753837526 665.0337623023552,85.2718098685566 663.7660343086318,85.0564117528221 662.9206139891523,83.24660513815434 663.2288763239509,80.88351669553992 667.109775452691,75.17194439365471 664.7219822276863,71.17769514741985 663.8469988906619,66.27547916547053 666.7471325363641,65.90679903933358 667.8577566698877,65.06094340969412 668.6832543039568,61.93398995205109 672.043114819276,60.435230934856236 674.0941233306667,61.44996022880639 677.1805884004066,60.90232797506462 679.1506935932026,59.79044614215718 681.010774888686,63.38961161860141 684.0656206110536,63.27394147928135 686.8744313988299,63.949013209987015 688.8919181135849,63.74308843033384 689.8025754077333,61.97676764395794 691.0810872986171,61.969699863611936 691.8337229184127,58.75019838702019 692.7750616114672,58.39444986766705 692.465630910782,56.022585391542975 693.4609829212924,55.75845305815301 696.8218962786053,52.72668933144416 700.7886908393205,50.17912389294543 699.6334246961935,47.269555168151214 700.1106206957468,45.57717654365479 698.1701745125406,43.29827256361011 696.1927727086855,37.69840399748898 695.0319431573799,38.34198185423304 693.1307146600321,37.040234633982664 690.332589680682,37.26184245166769 688.1307098603189,35.82399357406007 687.2859986428319,34.40994078105598 686.0896680454082,35.67646916900958 681.1103025590375,34.23780799099018 678.9982521239599,30.98977624662234 678.9508985015325,28.333296573839675 675.4944029163432,26.629788192727347 672.3693266767002,24.27861877265525 670.676374993115,25.19268966535958 667.6660304240651,21.02317175117753 664.7803320315626,21.702809328979356 660.0387325036479,18.00320936121716 657.6516489259893,17.655867876960087 656.3081133933193,18.636040947611377 654.1429134554817,18.383326079163453 652.465187079942,15.997804707825594 648.7152724119609,15.171018346055916 645.8184533432474,13.978519581394039 643.4035705098032,10.995726019765812 643.7757707286254,9.504548311265467 642.5746614030224,8.104130831577208 639.1255609880296,9.07156164576486 618.2576248046408,7.134228425028368 614.6552271034496,6.969620899999086 614.0567184880565,5.831318320312903 610.1106871489947,4.945808858746659 598.5417101408099,4.351486216344028 597.0476843204297,7.104711340171093 597.05331941011,10.603924269873687 594.6637011605466,16.416055702737935 593.8163950387496,17.614715446974856 590.057694103652,15.382393631303785 586.3572524777626,14.176332982198346 584.8834705726905,14.797969732489037 582.6784531300749,12.35698774991522 579.9684543385157,12.96181891000424 576.9670986910562,11.54864480263791 577.3532304295842,8.862353228856364 578.4585497552064,8.293358286241187 578.7919085877048,6.188770930548003 580.5561490236728,6.489027271021428 582.5968780246212,4.341635987358359 582.3739359020965,2.85878644809452 578.9448453202758,2.82429421174902 576.2072730445577,0.0 574.3797541712274,0.050533832093378805 572.6127624179363,1.3381472690699638 569.8378119313558,1.3071747332214727 565.6915871233457,1.9689555966564285 563.8666921562935,3.6773384514440295 561.7116095925262,1.9499978612410587 560.1936976071038,3.1326494514072465 562.4577284409189,5.324836342348021 560.040246527725,8.88014359140459 558.2380409879551,8.849841749029679 558.010121938136,11.519425976318871 556.2185404423806,12.776115602821164 555.2427209827682,14.987054371304907 551.7662907075155,15.913573072387408 552.0834150188131,17.057657985572632 550.3412851742315,19.250998154405465 546.1227226894933,18.057753968914312 543.0338406000003,15.301073826631978 540.3055896651734,14.564373399066199 537.9916565681451,15.24455554116878 534.9351836257316,14.891903063442669 532.7109264929488,19.567373292781554 533.1227676560038,21.408118886256148 532.826429649926,25.536464539023882 528.6173174474214,28.667381658329305 524.6634363554379,33.11275796015343 523.1054067430387,35.833998207001855 518.8409152416592,39.83935145995463 513.6285227785154,42.67459881069192 506.7325279020729,44.390469088983764 504.65453670172934,45.40721927710649 500.55893976094995,55.38862987501966 499.66380250952585,56.696311512219495 497.65425404864965,57.150957209614376 493.39696386526725,56.06880048599396 486.4996300727679,55.72568334151856 482.8224365315856,58.29337778979698 476.6267577732905,55.1649577607742 472.8585921552126,54.051879053740436 470.94320382869347,54.86939449465001 469.48635524087547,58.076479110991954 466.5929490191617,58.062632793015155 467.00808098035066,60.26984416523953 465.4752995159492,62.67855515530698 459.971567271602,63.10087185472173 457.9234055287904,63.763601432189944 454.3862205980521,59.28811865393743 453.03688462254144,58.92043184613078 451.9270255702922,56.12061008243461 451.97409753461545,52.79749556959564 450.5330409257229,51.661391354386296 444.8890205338149,52.318761847389624 442.69527323038085,51.85761081084229 437.99679514251324,53.6061482115839 434.7786088821907,54.08446017431686 429.81545610296536,56.429684139837946 429.79466505566353,57.7991240876579 421.6520096095791,56.18827860968702 419.4566844376221,56.359811816084175 416.64718273654057,57.65342167933136 416.35879796609476,59.41910418717248 413.43640533157276,58.98574013939822 410.7599802493666,57.75321748830925 409.0548165262722,57.83698009457714 407.3373554861694,59.80474495536146 404.89433382953206,57.94312405994219 407.20180337939894,54.60171721919744 407.2005798332468,52.63681555328867 406.2167159789296,51.501269690288495 402.8841338069586,50.904827073776346 402.76793671215535,51.637128250197975 401.7639092038519,54.379635789937765 400.13500654200806,52.30885193282552 399.94122499078816,52.10188287054166 398.89895484920316,52.49584859082802 398.1971756573599,53.292124484624765 397.01548348017826,51.81821872781211 396.95679622727243,51.06139983649655 395.3851880408946,50.10016304758608 394.96066328623823,48.425836820658105 394.17721801415075,50.12641161058309 392.7828229777485,50.25816387878501 392.7447443938481,48.7766491896507 389.845848598599,48.41207660090686 390.10863937495026,46.1834149927588 386.3186534410581,47.08287170617507 380.13348623056095,45.374914471440775 377.03705794541673,45.76933169412473 376.01419129800286,44.379968775582824 375.5103101618528,41.34362143502415 377.2221266857213,39.630564986095465 374.76614198082194,39.17663930704873 374.0649071611819,37.444381290114165 371.6444380758596,37.706691379963445 372.19205848636784,35.073953715299126 373.44669868470015,33.41896270256041 371.6505385482155,32.81270095586933 370.9151954604844,30.626711719629043 364.04423671977213,30.385892407111214 365.8850271297422,34.910320912906855 368.74175291066854,38.05528546737082 367.8612038286194,38.92606830675754 363.0176314602752,36.23624395619845 362.8270114138844,34.29746810498693 360.37929827763287,34.94004624535603 359.0953017888453,32.9592158766535 354.2698114344007,32.141719340936106 354.2146650367914,33.74129142488971 348.7764769696229,34.44510608835208 346.90452846647855,33.452964201175746 345.1596983184113,35.68659367898408 346.65368582639553,36.22468870756336 347.05348140859877,38.895714010529446 343.5382604628443,40.19058245413407 342.23677784467793,39.35552884813103 342.0862423443628,44.09538940841446 341.1551162563125,44.49062738950602 339.99455546993664,42.9544850175854 336.9078285524725,42.216885164701125 334.21286103616325,45.69140050414626 333.47461898845927,44.98386491286624 330.1111873852584,47.027239421305694 328.46506915276365,44.91179647246804 324.33015988020213,43.68715492985302 318.5730744772857,42.45206386656537 313.314091082951,42.95423922189718 309.8577162470555,40.22760371779316 310.3135055486001,37.91457963887626 309.2895620062848,38.205359663571244 306.44401558390183,42.29662723990498 305.3240435339623,42.835880029922464 304.1781480366556,45.22824095879241 305.5110706947697,48.35309244203552 303.0314926076416,49.40387894582989 299.0003177160383,48.44073031553842 295.06234191279566,51.097696864402906 295.6105914733327,55.24730373916475 298.01036626810554,58.51808993042198 301.7283745257141,60.59117695132022 306.16292047778984,64.06680636272267 305.86076118178727,66.56802279953149 304.8562630174558,68.50285064324135 303.26578874699106,69.47122132699758 299.15791179646664,69.8262143260871 298.24997327101994,71.21946687906075 298.671019618513,75.63025801231367 297.57971682606876,77.75440374393372 297.27467748334834,82.0927674365604 301.0998100355193,87.48952152162087 302.3917449879187,88.67036405120678 303.8954483320059,92.55233749383865 303.7546298242309,95.5151932006379 298.4244533330031,99.99116810269743 297.51480974036144,101.66836632707066 298.4951869631756,104.11227954561252 300.70853652713134,105.31278519158127 309.3595279468165,103.79561907494963 312.5853249128218,102.5729222036747 316.8097824173042,104.55087648926713 318.45535917379937,106.78250082464842 318.4061286871402,110.9913933166556 316.2859848084949,118.42986014626649 316.7184444181693,120.00913968608529 319.2103558742214,120.81254380040525 320.4474130504433,122.02261255840813 320.9970948552455,124.75693235844142 317.55482627327035,129.0461227392551 315.6258652959329,129.724404399508 314.00606487438336,131.2914554348339 309.3985602548433,131.71494044489646 307.76513488628603,132.67456675788196 306.7185933936341,134.87552988014738 307.11090198387063,136.95984970993652 311.4882816659661,141.92683768753216 312.8168206138816,145.92078572316314 312.23915862448126,148.5218857027479 311.92727881903176,156.02572691330806 313.29930818264666,158.63692554688896 318.5754371601155,161.1456865712803 319.78865444132134,162.94294584061913 320.05582498767956,164.9643049693218 318.987675306538,166.56034283840359 315.260116786604,168.21650576977743 313.5583398282169,170.2995092675112 312.85975654527476,172.39273810527186 312.33791537381705,177.5987644539971 308.43288257019526,184.4222646055299 308.5849089871542,187.29206841218513 309.5198173360268,189.80154753728755 310.9663184851821,191.61808470466246 313.6069581953678,192.75277533091446 319.2277208441901,193.39081719106184 322.36063569026174,196.3218708567333 322.6526166561739,198.8725680592995 321.1532420505203,202.46338229889363 318.7851626896748,204.20426986005168 314.0211636905005,205.17321026871912 311.18561935848527,207.98350008874513 309.1561296943853,211.48735355772578 308.7067147361746,215.11147236024465 309.89406256724817,217.55016819466255 309.24622485738007,221.0877465136357 306.9019988651842,223.54994276683772 304.5744512350558,224.9477697652619 304.0298629952289,224.34287742832453 300.8721762445936,225.0050336627471 296.62816486071074,224.63980783044747 296.1439078224294,225.98318647509143 293.7354388621811,226.3335147765132 291.2998197563829,225.25364545914078 289.86840896909126,221.91382728930216 288.6961690583553,223.63073657318387 286.3216919219685,223.67743723226806 285.92993000390646,220.79592996971837 284.22060507200666,221.18765506753527 281.84415664989797,220.53452790844688 280.487398452826,222.4787306610184 278.19594563858493,222.44598614739857 276.5869424629589,224.2093437731329 273.24116333454936,222.68291416314366 267.10313192255865,223.68227971633655 263.3569224250417,221.11764242935305 261.0264255743059,217.3315911364134 257.9795951746368,217.04018720201532 255.85072907981746,215.73372859303117 252.51878009934597,215.55406218161772 249.79754863962484,214.1668872456263 248.5687224552556,215.0897849804669 248.94081455481543,217.96061605563455 248.31505277219125,218.89304722409884 249.6351299979364,221.30848260470987 248.65843142429455,222.3917394863662 245.32955773028425,221.60269504066184 242.43693574296532,227.81386009362154 241.98524665454448,230.7708246995553 240.27559599534035,225.54185667266302 241.08356874070253,224.95013610132503 241.3026146388869,222.22973429138676 240.39346057337383,219.32034114290627 236.87437117435977,220.64295324446812 235.4928353836404,219.84691733632064 231.30545687861954,219.98063013787055 230.0094580636821,221.43765775648387 229.16218994224,220.31390745203146 226.65033866579444,220.60470330360977 226.5289511874536,222.06088390197795 223.34844879982694,221.42633317052616 221.08086662029766,224.00632666353374 219.87778883707426,227.93097029584771 217.50589697369332,230.71027817623792 216.06589868565848,230.92525218223443 214.8898881036069,229.06979585637578 212.41173479482487,229.52293584403492 209.7528380293234,228.67124053405553 207.98246369962865,227.02812181325623 206.1706131262849,226.82416895456572 204.98570394503457,228.75099565914104 201.08112617191264,229.72214087798443 201.14126501852016,232.64540776058357 199.06968675657663,233.4259158626254 198.7495808804682,235.93085609233208 200.57539135254754,238.55066182288442 199.23167096333282,239.4583575637165 196.18701633588134,239.72823701575828 190.14741468533035,243.2219278562617 190.89868768879418,245.237307075711 192.0093323476894,245.7125663552231 192.5825849191125,247.98560846555176 190.9300543439614,248.96316891352126 190.08709056531956,250.96420143527007 188.76617199361627,251.19235922084818 185.30320129874383,246.35115345411214 183.60386012452983,246.1189066627719 182.27975109546867,244.61103160478967 180.70711115144357,244.6773973374386 180.47320798530825,246.2934303094636 178.12693932943273,248.4232313901124 175.6115951488209,249.85714755112122 174.29444173430576,255.66847771778987 170.05345187740915,259.16310149960486 169.05995160317858,263.3119260940964 167.0881128775565,264.37942930717134 164.7012465123939,267.3516447589774 164.11136037143484,271.00749587239716 164.5794592253368,273.02576494023754 161.7945692107698,273.35310013997605 160.24714404771007,272.6678035821035 159.63858788667838,273.90582251705007 157.0055853358312,275.3861310170721 156.73707520158965,277.9167510075274 154.63784812827268,280.90989905110644 151.93105247074237,281.06647765337834 149.73491334885867,285.1542693759801 147.91074704439552,285.1898233889708 146.06917808161353,287.93912061059837 145.88610441621822,289.87378216491356 143.20809664703026,292.30803719161804 143.33281823623776,294.2038405553991 142.05724120462963,297.3296879557797 142.84648172413196,298.92488050818656 142.36106686196376,301.8459333502926 140.7829045596217,306.1823456477266 142.5731699527267,309.3298960948632 146.1967616702175,310.69222636134987 145.51739273165882,312.06140200934226 147.92511858812483,315.577264344216 149.3072234358388,315.7596304451532 148.79209159474186,317.95899264306706 150.4939443779775,322.71185560226513 150.4614682681598,327.64695835213274 152.13707847698197,330.46580431100836 152.80954979332614,336.02814057130865 150.41275691188244,337.08257070461934 149.48708923745988,336.3060033677549 147.842893660592,338.2120110025329 152.09524807594732,342.87600155886525 155.3131875604638,344.4072148622281 154.588896985766,347.2535937281266 155.07806366723585,349.38941549216224 152.27583035971904,353.3739955443541 152.56238722832188,356.430757804197 154.59115562467053,355.3113648116712 154.1594263742401,357.6594904251208 152.71726562931377,358.4231445254402 153.41345110342087,359.52834615190454 153.6214387578813,363.42850053920347 150.7123464348242,363.3648819802203 148.97933722248496,364.33182366988535 143.17048119471278,365.5184977397771 140.49128559952686,365.3601520915763 139.26705606246568,366.11098453548175 136.81056234668466,365.15532434997726 134.86860351332845,366.0731526531997 133.70746466052148,368.41609164254237 133.49065978782463,373.0261699542915 132.31305987965854,373.3707618633731 132.76856902195414,375.30415491041344 130.64580859666856,374.94107478162164 128.7256628270332,375.67635995269654 128.31557105472945,377.1601236217534 123.84479294823142,378.3725999817134 120.41530131855605,378.12405447112053 119.33805068781732,375.96285946484966 115.33688703077459,373.23505373846683 110.80540851333807,372.82226717203457 108.99911265361044,371.7962352038338 102.634006169125,375.40214831801006 103.45837387391738,374.3522027625693 102.36475388345225,373.09782913215133 100.17599488056356,374.27995857338965 100.94796204196197,371.1787108014739 99.20083005747401,370.3073456539456 95.00231455197503,371.58654235069866 93.26013552811759,373.79479995622853 90.27180394041177,374.935649716919 88.82003501141438,371.6176733146365 83.99432040985454,372.5555201280682 83.13478891502406,370.2690903662656 76.39088864661909,369.54159026136597 74.84713885460694,375.3864805180998 71.81297694434681,381.6748700921779 70.55239708055872,384.9721571831034 67.41527725993886,386.9628057395455 69.49896243904524,387.93099089508496 70.04358708546107,389.13552871648267 68.69276650016975,391.4101485959968 71.1176612260949,394.0341425975744 68.4571528013952,394.57474078281473 66.90534581743333,399.0971829108937 68.57709035473746,401.1112457028722 67.99712325245795,406.0603623707467 71.62675485352638,408.78320111278094 70.11569420699156,409.1028174160491 71.82780933590251,410.3021977699101 73.28441812758507,413.0843510633782 71.64633818833639,413.3275433725711 69.66111229204617,416.48853136879643 72.19905422880677,417.0763994845761 71.03068466755386,420.4837901760212 74.19936899360668,420.278764060835 74.81036372681766,421.047517864365 73.85076898310125,423.03321546392567 74.96130969876096,423.8726458450227 76.49688712363051,422.7161106161486 76.8906668199373,424.29393179082024 75.63507541033874,424.6952992104475 76.97812525456281,425.8192998073871 76.04117919556354,427.428124246538 76.65539994471897,429.5869780991294 75.92156490317265,431.39787745534034 76.77574432489833,433.86225919787296 78.34475519769721,435.2406144191806 80.61760613916483,441.1322089510131 79.60293122437339,442.6469359762218 80.80713559897298,444.257012280258 80.47223620654819,445.807954801341 81.80237471449479,446.45178024474 82.27110531908103,449.27021452693896 81.14581618231973,449.20729468318416 81.82058336418129,451.2980950767188 83.90496806396547,453.4527052291138 84.83641983280623,452.2099199534881 87.10219636222004,455.37353194236937 88.8054015576103,454.7426980024992 89.59850099912651,455.8770705945889 87.87804728180657,458.46052472532506 89.48548439703909,462.3050134505753 91.82826186904062,464.7459032145972 89.88718806793057,466.2888938787121 91.31401553263595,466.97705542788253 90.7333489926567,469.0315264100981 92.39880216814514,470.9458592372091 90.76792506002576,473.50344446979295 94.62837381315248,474.69215245228713 95.1460285780502,477.3413134867517 94.2980100624706,478.9570079106185 94.72917584576018,480.4470164112047 94.00356800283679,482.6913721198895 95.79188426325076,484.16062749936555 96.2347141493368,487.5139154539031 94.3919583316735,487.27118033834745 93.35760273042945,490.15991025070036 95.0178537318477,497.0201924566561 96.09590205688126,497.7361338349723 95.39336084688624,499.78858147910955 93.37444891942317,502.2734699727714 92.77960252354215,508.8161314047728 91.44252108674593,508.9195211716574 90.65217410636903,513.3054206287277 88.85639173648799,513.2786336682029 88.83481118149432,514.4970183112187 90.70651480552918,514.6699132140473 90.06925916960896,517.350762547246 88.87239426976873,518.259047955642 86.95165398176597,518.0842074092992 85.75465937108923,519.8627409166667 85.92110874694168,521.7034627648331 84.68516292976298,523.2042761436354 86.57764686169246,524.7823362301717 85.48174635897611,526.8830988230161 80.90332657694121,529.6519496743008 81.57961359638857,531.9947740787861 83.43769302736618,532.3313949771076 84.44433661348289,534.3274628906868 86.91055254012728,535.3839528398464 84.97027790428798,536.7773478671586 84.48882628974167,542.6451924641331 81.20358609977836,546.8902029329313 79.40468825577014,547.3245683175679 80.21461879560908,550.442721507377 81.49664441323932,550.5529918791183 83.02732398764995,552.2622001206797 85.1295971566559,552.8644124060456 84.00538991240855,555.910523030891 86.32148140776498,555.8024200394203 87.14230277215081,558.4394133602398 86.77006054132701,559.9031616177233 88.6067112834678,562.3834633951117 88.46996817734608,564.943743558732 89.35924179564215,566.8551312622458 88.41029402788999,568.7084173176858 89.45117161175442,569.6197245453909 91.38433405424915,569.3226365342834 92.63860503384109,571.2887507935936 99.20090184699804,573.3399305077313 100.57763945797274,572.8979489316794 99.65110148188029,575.0398669485189 103.05029569858026,577.845367723124 103.24863067243105,579.752261430602 104.8404484439172,578.9996241350418 107.17927422874308,580.9750968336205 109.19081426935828,579.8991840540157 108.79174863536996,583.8788247193338 110.52386225543609,584.866704683212 109.56090761004567,586.679358115324 111.12446599212764,588.924231835805 111.1989973230291,591.1144456638939 113.18437792247009,592.7692724842198 112.5165047285107,594.5319861435893 113.29234475243477,597.1697361173186 115.03577903851452,599.205548100121 116.86135692422062,598.3273199595307 119.19202810748155,599.470342506093 120.74909390810802,596.7734115569461 125.32266848666211,596.9804212468757 127.62743340292646,599.5189296663482 127.35809515286665,602.0159371136162 128.73803680249748,603.0826260783078 128.55899921415158,606.0150653948725 129.85762472127507,608.6715652343739 129.2666729188363,610.3667215332144 130.24687980994523,611.6862553507251 132.10064212194277,611.3830103011421 135.0663202186317,614.1922455975775 134.96567323822114,615.8638395823875 136.79330077345497,618.1292830552038 135.94276420653676,619.7946691879654 136.048737974179,622.2967707217342 133.2184821974783,624.5598623342867 131.9172701436308,623.9888085862599 131.30434407135667,626.0643712673469 122.2960524575463,629.235790149631 121.5276302324374,629.9482152417634 118.20502820728868,626.8352827931324 116.13358501848215,627.2534463717316 113.9340586230499,629.3945671713057 114.54626017133437,631.1755593653565 113.34094236833123,633.795367815183 110.64996432007453,635.9595708610544 107.09104349312192,636.4056435403268 103.5774595434025,638.2825074487578 102.09746509048993,637.2404789717137 97.85191370091623,638.5854057193751 98.16921209393128,641.9203425139349 92.95038281757749,643.0642975062933 90.46649184061206,645.3076463123551 87.23286978371466,646.401347048767 82.64477770383805,647.2384301616096 79.20857045838824,646.9755297156153 77.16191662665888,648.6274281062493 72.7128115997216,648.572904150869 71.09324806824017,646.4844135391229 68.35088273806738,645.5778022279646 67.09177348021636,643.0395896031921 65.37461449759708,642.027374324595 62.75666803524126,637.8838478200801 60.972822534850046,638.1964448511219 57.22430181435646,640.3476321176153 52.72857965013363,644.507275042539 50.13348328621503,648.6886539254945 47.15635536513406,650.2723353736493 41.14398622837309,652.6025164762357 38.895841730270654,654.1107152858299 35.767655268731474,654.7198938302872 34.55695679239246,655.8050761110294 30.813086218428488,656.8941127154147 27.236439445748733,656.6301145886155 26.407365142801364,660.2633376196984 20.856449953919377,661.5583172571485 18.97946813401594,662.7304504836986 14.637044468845891,667.1212552166763 12.90543154165457,669.349390152559 10.086615650211664,671.1636867973168 8.586347526078535,673.7207621155703 6.958427035969429,674.5626102767297 5.111501569459878,676.7965646865326 5.2211668246580984,679.3668070290207 0.8343405118960866,681.0877044878894 0.0,683.5376773836908 3.0375789756995704,692.2461635708427 7.207170388947985,692.7223149558366 7.516866692830232,695.0129374594427 8.593741038604705,696.3242628362241 9.554458710026275,699.3218280876446 10.858551324102633,699.2495206631526 12.108852366228035,703.8266944566706 11.444623821208157,707.1624932108946 14.254994225583921,712.668893702665 15.054852630791794,715.4237886791129 15.357126489593593,718.9646713529037 17.661479985455554,717.2087681373191 18.571515696496487,720.9178090444314 20.2969852435873,724.1019824518987 20.092049923862486,726.8082845538133 22.4463053236052,729.6357655380373 26.673164881520822,730.8852562421496 28.740858126909202,729.5313859771516 32.73726674585906,729.3363536915186 33.38010678602155,728.1744865882984 35.577915827578714,728.5277848688248 36.94370514138956,727.7349088683636 39.434325783656924,728.5536107065504 39.90370924786935,731.4513257372924 41.59728436225372,734.0455042323733 42.279247552126336,736.5387324811452 44.712490827026066,738.4497963752618 44.55682659441591,741.6441824928654 48.31441217746236,742.1496679167674 49.519509825633754,743.6314347040463 48.830324560196956,744.5028593887096 42.82862956275253,747.7934232513819 34.67633288872021,750.9176153487314 32.986297374419266,750.5316208036949 32.3187818443725,748.0995630907373 28.72223295542078,746.8025750718248 26.847864028702663,749.0531444146861 29.526855978303182,754.1259497430337 30.795913537811998,754.3819173968211 30.560479500299675,756.0046417268914 28.481821935116418,759.6947991084994 24.802462178668502,760.4912720899381 17.72020478091988,763.5716658624783 15.332548878402458,761.5248498862143 11.995133588460734,761.7341760856139 9.201720919472693,761.2512496809013 7.056383197456141,759.3168445302467 4.002541133590925,753.2342151650248 1.59946411754751,752.2297220227799 3.0653917882239092,754.7361728541173 2.710826095771367,759.113170054281 1.9230895426813999,761.7991889572661 3.9606774776324984,763.5545108431193 7.214536409330093,769.1817620891236 10.451095988101978,770.5086237195633 13.635283719634927,772.960105269295 18.627131726909496,774.7275881766061 20.03431111049493,777.1192940540196 23.26030283592879,778.5374714115007 25.069465495098026,780.1075589751048 25.493142000686785,783.7632122222346 25.12713907252444,785.992657602983 27.064736982218125,786.8129761829232 28.56752894505819,788.4738941366659 30.582288669121105,785.6157107984836 34.66081510570434,784.9672038841177 41.5802691836004,782.1324453426116 45.35125459290775,784.5621117303363 47.643902399573086,785.1155275916253 54.75801076329091,789.636543384095 53.146120312724996,790.3709831527171 55.67908567062993,791.5221039898272 56.20874898837161,793.1352038285004 58.86522185037097,793.6392013743123 60.46346195193867,796.5127661680949 60.45909798770197,798.5809527521009 62.23795288549591,801.4720033753149 62.01140243551091,804.6498506912371 62.942934407130835,809.1130590655109 65.82667041035016,809.9457290043815 68.57500074734058,813.2877562655015 72.5465762510225,812.4945132189777 73.85416204699868,813.1021122454733 73.78994831420039,815.0350323248153 70.76340630370028,815.5945105032854 68.9661894361908,814.9061313203185 68.18073023650179,815.9221110803583 71.199299434993,818.2187273007382 73.75143911362593,818.9351302059131 70.95301394604421,820.6314948750152 68.1815559908166,823.5707847014695 66.33559646083292,826.3483822625417 66.25863613848395,828.1778150529499 64.01944601610683,829.3878459229575 66.14787610106762,830.2547028175813 70.81665421366905,830.429573128482 73.18174767693482,832.2260529400457 81.12859235434269,835.9592346075584 82.8121817575465,835.7625043821974 87.89925733746324,840.2169475972564 86.49109840164355,842.5261385750564 86.64038960175348,846.9544460720319 85.83808988066136,852.0011247217574 86.21583395387745,854.4702349431757 89.1778030673264,854.4137953354768 89.70348531849038,858.6915062067549 89.12736473753749,862.2871532162768 90.01278204773631,862.3608317857418 90.99257292625633,865.2575731187118 95.09439577259373,871.1914075922424 94.58307478150199,872.1263555483699 96.19571912545491,873.242738080395 97.40091828624976,876.3033825127575 96.94918581412766,877.6349236744911 98.82869784554674,877.3196721096824 102.22141589370024,880.1901684591897 102.45771908719996,881.1630931506229 106.17463146169227,883.51652889867 109.34334647518898,884.4292269373836 109.85458750346511,885.5468499550847 112.82248878980602,886.3170517862033 117.8082030820771,884.9811866734951 117.79833413128279,885.9559542975292 122.2413708026507,893.1665378888895 122.58751817951521,895.0044541057091 126.04028101889384,894.6809908427969 126.27708661973044,896.3594902315665 129.83977091670118,898.9853328094534 131.693812615762,898.4699110606983 134.2429569990929,899.493398745996 136.20084799702678,899.0740529084917 139.21747333289875,899.6779479285099 139.4699047412787,900.941889033622 141.32992393670878,901.8989777010645 143.8098883980462,899.7238098876644 146.00793590507593,899.7276233612802 147.5762096645339,901.0371336820259 151.83954966562843,899.4106503446872 153.3453220676796,899.9089261709597 155.04971207521947,902.5302709692008 157.25335795658262,902.6163381093758 158.17078978173214,901.5477551541996 161.64239840173613,901.8746480309579 164.66834052327212,901.0128060936929 166.99350034482907,901.6315047267144 168.37871992382438,900.848789213011 169.3229090878215,898.7337280952712 170.35213503127284,899.4636108735696 173.23403426318484,898.7108283980933 174.43736084463035,900.6082875720549 178.51906132273177,900.6522494168408 179.42384956174612,902.394268264116 181.7621039471765,903.1265200155889 184.0540710145371,901.3048919784417 188.42679907406804,901.5029125369657 189.72804001854104,900.0004656212307 191.07575700524342,901.0619192973318 192.97605204345734,901.0941279352937 195.90361585101425,902.4357634856605 197.9001110949646,902.5537189254553 198.92638075823427,905.3779677802637 198.4399512240851,906.1504926931887 201.100808604641,908.6033382317496 204.41792404521067,908.6293865284835 206.86606136541675,907.7964347563984 207.45422929511557,904.9110739670937 208.84264423266606,904.240461723223 213.51116843666958,903.9570574820023 215.5304661107048,902.1037373365966 216.95598209548467,899.0173754893337 220.1397162955408,897.5334730350859 223.2656564283394,898.3394154411588 227.67569145890576,896.5833073643605 230.33178325841578,890.9864068171878 232.41286498360867,889.4562360984971 237.39706040361156,889.5109006787084 244.01246491612656,894.4481652951197 247.7324564879785,895.2183154050958 249.38575902139948,894.1815962263969 251.84978220046395,890.6404555354995 254.47669761897052,889.5093638077306 258.3508699887357,890.0653386020549 260.4376287542971,891.7471954177946 261.9335268580952,894.7276622562794 262.4372597820836,898.6624678434183 262.1746083598752,900.7701366635586 260.0708311492093,903.8579009457528 260.42218594887515,905.8080478799282 259.0114670726749,907.4967063488459 260.5597094170646,914.9305219590756 262.632436137373,916.8725096910514 260.2291919990793,919.4960692843023 260.3622253690308,921.5860483181049 263.0882489773154,928.2606839591323 262.540932368334,929.7177354065311 259.27783196502264,931.0806010861982 258.6143405287653,934.9527978471707 258.72051539284087,937.375365623856 257.33731605085745,938.1425690474505 256.6429907830475,942.7311356651928 258.0465012150913,945.8489565406039 258.0008065480056,947.8520010504224 260.15319602935864,947.8145628806508 263.8255007051896,950.0880429477911 264.0187623523146,952.3793648264088 265.2972575270275,954.2362346348898 266.93435245102296,954.6188563837029 270.1174690234402,957.2927773676031 273.4168440976415,957.517829956991 275.11108806326484,959.5535764264125 275.7735986212843,958.9191183453024 279.3339764404746,958.964628527779 280.66170125881166,957.8618233678555 283.7656130972118,958.0072891770259 285.87895456534034,956.273831317976 292.7359860197718,955.232000537219 294.01500812348246,957.4101708841912 295.4677687230131,957.6298386415249 300.88158633373945,954.922924906539 302.9149614973866,956.9670317715887 307.1307569509473,958.836251533015 308.2335742329436,958.6189997429382 309.73189333632604,961.7897611233118 313.3773872171002,963.7350260137899 321.0226514926347,962.8136698962215 322.38388017836263,959.3519695096481 322.65396635759754,955.4126803898149 323.7597557373909,955.3714617268101 324.39971498385745,953.1778252848276 329.0859992270954,950.1343779850214 333.3921054491364,950.5685487450082 335.2362302268408,949.478702977562 335.7342027420332,947.0318034084246 338.30628609406443,946.1183476023868 341.69271521877545,942.9122474819878 343.51986760605547,942.1023741861964 345.1872611931696,942.5747866133695 347.6223121705632,940.3590791150624 348.459189839578,938.420587702125 350.18323015714964,937.7525646568429 352.9397277767758,934.3110479740446" /><polygon fill="black" points="402.76793671215535,51.637128250197975 402.8841338069586,50.904827073776346 399.0528541583945,49.86051906194484 399.94122499078816,52.10188287054166 400.13500654200806,52.30885193282552 402.76793671215535,51.637128250197975" /><polygon fill="black" points="396.95679622727243,51.06139983649655 397.01548348017826,51.81821872781211 398.1971756573599,53.292124484624765 398.89895484920316,52.49584859082802 396.95679622727243,51.06139983649655" /><circle cx="334.0762872116167" cy="388.1978158091068" fill="rgb(100%,100%,100%)" r="16" stroke="grey" stroke-width="8" /></svg>