<?xml version="1.0" encoding="utf-8" ?>
<svg baseProfile="full" height="1024" version="1.1" width="1024" xmlns="http://www.w3.org/2000/svg" xmlns:ev="http://www.w3.org/2001/xml-events" xmlns:xlink="http://www.w3.org/1999/xlink"><defs /><polygon fill="black" points="224.19397217381143,117.23921908133582 221.2020090494224,119.31243608805312 218.943258059157,126.67000188993961 217.95556462714367,127.85839447891362 209.6777008794565,132.06833154807543 207.9384012762488,132.38891337985206 206.0590990063032,134.0082844552726 199.33497865352442,141.53671699398126 197.224639900701,142.0911805507228 195.64775621450224,143.27614610510125 189.8163727245697,143.88596616082486 183.19240124657588,145.96688951688236 179.4124500005473,145.85956254863413 175.0996016611343,147.96122074792538 170.45212219976145,148.13624857462082 168.52021891573992,149.36887560647722 166.25432738674598,151.98033773771397 162.02881453366493,156.17999470942084 158.45686139448372,158.23922067069827 155.0459927541671,158.85138115480515 154.15622492748696,162.6070836950064 151.74786021602904,170.99330769841492 151.26269799862035,173.8013777805014 150.06228066881638,177.335627140758 147.64749610888674,185.99558386818774 146.230903898506,189.19755501646705 142.73483736311735,191.89530637193775 138.97477408796777,194.11105412345557 135.3598794071683,195.23214630521136 133.13888058839274,196.5815336495872 129.3629853802676,196.24864034731013 120.76534545896365,197.36670974431763 118.66108334026298,198.0808420602109 111.24480604956577,202.75439353781007 105.70272888914722,205.23141103785133 101.30679236316641,209.13669668263003 100.58839184993414,213.730105888583 100.53619835589846,218.04962166802068 98.65039107951718,220.79141411860667 99.7150450470934,223.12783951198605 99.97948705903539,226.8633056768624 98.85092036176728,228.40387557156737 96.62841879710888,228.84284938567794 96.75255427129895,229.67098756864834 99.61638102421949,231.96215859380152 98.78227591981963,233.42493387754268 93.67747171513244,229.6599205546803 96.85186775773785,234.93024588650633 97.73863525267964,237.14286857186664 97.31885199596589,238.22961872208066 94.2907938177252,236.49528005791535 92.0975926018282,237.47017569179854 92.98168127056117,240.7231069487451 91.67078825076793,242.67148455316942 92.31177440037209,245.41241700110334 90.77559720418867,248.3783180536742 88.84295530090621,249.04903420505286 86.98839490216767,248.87805021101667 87.10661853434064,251.41069763837368 86.35619468411383,254.62816802013663 83.32645558004006,255.30358763378786 84.70637337219299,257.1886373571077 81.8599451260619,260.6612982120155 80.22923944165989,260.4467244974643 81.61486625765023,262.12781454021035 81.57924057285088,266.5694531308153 79.46800553479174,268.3802918053033 79.22110246725427,269.47074281701896 82.7692378971834,272.4917084342602 82.35500140112913,274.28401013109374 80.85224450804483,274.7669827629727 77.38381392643986,274.0915523123797 75.42158528919144,275.6333954556645 77.38151906225109,276.9976056426318 78.64659885325928,279.528410375528 78.88879583029474,282.37353759766734 76.80963738235913,285.554820694722 79.00712627637571,286.72720648973063 80.94855242627463,289.46966890559577 84.67542311375158,289.46656999738025 85.58645390449183,290.059344388049 84.27215024573059,292.5895072821661 83.21033765319547,296.1207003234149 80.70695313490873,297.3035211484655 82.29744576545497,300.254962873178 81.69970020217272,302.052223146815 83.0224781200586,303.3272256044414 82.83568216154889,309.1657780312602 84.36941257260344,311.9297196741619 84.13755209739597,313.7617998435761 85.91430807730285,314.24086363533684 89.93221682014713,314.43185456990614 92.29603653662336,315.96562438528326 94.22849689969281,319.1677577278524 92.95117716494546,322.34701479124226 91.02459235702727,325.438789516602 91.54751564884388,326.17349437729547 94.95425709111493,326.4441389329801 94.49526943362406,327.9436540012973 92.3583920006854,329.51072996305845 90.19917417872949,329.80240359855054 92.04142537815129,330.55492638112867 98.91583325518467,328.86455141005354 100.22201915406947,329.95272223174914 98.03990316811642,332.2315812962577 96.2123526633759,332.6433480831264 94.63451987850607,335.1787007334776 95.3465210102325,336.0571304255252 99.5292975108516,335.23780732144985 100.60136748733855,335.9646018811047 100.23950755166821,337.18511757312785 97.71096000884329,339.03572834961096 98.4299488345013,341.44341100664667 101.9276145983119,341.3397404614899 102.01054543693822,342.7023396429238 98.01843451954619,345.9467108034888 93.52315839142354,346.599874797471 93.58738206529964,347.3801520166609 100.38370561105539,348.3809215252668 100.23684531777786,350.50671339412645 97.05301705878387,352.9913745105273 94.19533174996943,353.1355795919102 92.59422790117938,354.8270588810615 90.97159020845486,355.60844928881124 87.50043910182926,359.1269123255281 88.63235664051058,359.46120299729944 93.82536929707685,356.110636927662 97.40824679252607,354.4529620135521 99.06888261612524,354.7412430950624 99.05850991223193,356.14838662166767 100.14572250735102,356.12526440652175 102.9617333462587,351.8330957936221 105.74677515154697,350.36387095547184 105.02149821342188,354.7941897320213 108.26947818487973,353.0913310314555 110.88249373673996,353.47505624205996 111.19535429206614,355.0019273089039 109.53499263701559,358.07290083213366 108.17047235035965,361.9469884861676 105.99231176134539,364.02020908267593 102.32036165713534,364.18476401949215 104.43158807194874,366.67963368683115 105.4517041458093,371.1779003447174 105.0215227933602,374.1821276259951 105.64993425951434,374.7292096827167 108.46231967384703,373.4663862148892 109.33744023695071,374.84596323801964 107.95715662775116,377.58451522565804 108.41585144136666,378.0169229704727 110.87361418445508,376.1841937313608 110.63520064161382,383.05830106040605 108.65820899232374,384.69543248774823 105.65359344580321,385.01590514837164 101.05146448784761,382.49614281982485 99.03163020296098,380.95933302588355 97.12186784661652,380.9181638774767 99.43205334369819,382.64748511238713 98.11248073031018,383.99955439883274 98.11614794345093,385.21899019895443 101.28813282400121,386.1700459430631 101.28820387889796,388.5442977450831 99.50700604982369,390.52388207277784 97.29178922928975,391.4430347558067 94.2327152250849,390.45848472100977 93.05082725587081,392.4777563424126 87.38319317161918,392.2423527281363 82.32193323521592,391.72972302419055 79.8991248051447,390.4756316728434 78.5491895591225,392.6898416986122 75.85132342393116,391.97399657217886 74.86958578310762,392.6939027813447 74.743344418358,394.30623251566396 73.49120548854442,394.8322266127932 71.18550924083686,394.27521097488943 69.40760607539809,397.0422017988925 70.27170248640495,399.37088732610437 73.12599886020737,398.07233179320326 75.58302525539379,398.21897586497073 77.29096033668448,399.17649706881514 77.41278617583129,400.11739659815214 76.13310846386602,403.2821001939925 73.75632098592683,402.2544808920037 72.16989691339326,402.76422402007177 72.64958134506224,405.4963261420103 70.24404745279173,408.0723850727703 67.2405453435769,410.12859605974415 67.12144360238229,410.9514397402778 68.97638386757822,412.6159975367193 68.37176365942419,413.7200994541287 66.5634455565173,413.691328680674 67.2671410881199,415.42385248130984 69.56927252696775,415.70869592336305 71.71301864311226,413.92552454412385 73.72980183750322,414.24165089910355 78.94865862522046,415.9416474683288 80.53689064011978,417.712984003221 78.9545161226732,418.9463120273373 79.024612480637,421.3507482561329 83.02616572928281,424.39560499015965 82.82612766655677,421.41538399145725 85.21436473945542,419.635440922161 87.15319785337866,419.7526398051607 90.36255047919755,421.3332865189594 93.01240220871429,422.0011077348537 95.31444077105084,421.8359201275913 99.11847490575981,423.17484444435183 102.7999299097273,426.50384139026835 103.3934974418456,430.0833239753072 101.36240118090691,431.4022601841354 100.77654600109885,433.09782397754213 98.76436147387601,432.5478055409886 99.70044311859208,434.8866873712316 95.58151517324457,440.545572066511 92.57944753646699,442.518435492806 88.02561124836102,443.82918018074974 85.71530780294896,441.0647235051259 83.94235934516067,439.8427663879884 82.70681029708713,433.01729772886836 81.16757835420242,429.89521463782233 77.68126488536619,429.33065836916063 76.88919965312279,435.37980172097014 77.36981496700598,436.64900528610406 80.20818453789937,436.6444265104104 81.84471513132729,439.4875152630334 85.52175315039518,442.9674535226939 86.87274651874888,446.32172763200487 85.76711573221245,448.0722139687587 83.66892046570052,448.1950706124245 81.76657135900541,446.37044466312113 81.64502791506844,444.4322349536108 80.1105672634666,443.9584588818671 78.88046339843717,441.54674234531785 78.15863725824391,441.5489636700448 77.56373497610409,443.6399213263587 75.42425914366451,442.3919370563284 74.79375215118343,442.90284544511826 76.18989637442994,445.08366592721137 79.70142805894102,448.710622311505 79.50857182062643,449.6554208109254 74.91056534382007,451.99597929894526 75.85303819160272,453.10692344944306 80.17874334019523,451.11493659605156 81.1218407060563,452.14168713285864 80.3758933992303,453.2517478731934 77.41636581285864,454.6718263182552 73.0836901163166,454.16395034589726 69.80987750761108,455.0415900941846 69.33341329785432,456.78772330470997 71.83331907650046,456.4662110357703 77.12843584489745,456.65664928006686 79.66153376970078,458.02593149202187 80.5708617638479,456.9283732264972 83.14210718612303,457.519509396382 85.28665607027854,455.26513300729135 88.14957060635126,453.1677045397094 89.68727513209224,453.55726386403734 88.72703599548286,456.0915967670281 90.67128666498863,457.8990745309159 90.19476552895159,461.1099445080783 91.7438445837634,461.9043714682389 94.35427264705329,461.6133260117836 95.20090337976936,462.9547749885686 92.96118919984039,463.95035754546836 92.18416014909182,465.57729540076764 90.31601950666509,465.8467231875527 88.76994372054662,464.91088947805935 86.36247978349746,465.2258808836442 84.89571928408876,467.20489837216985 82.27331263345394,468.0397658465108 80.9733759404301,467.4475567905838 79.58674814418902,461.9885589526654 78.23854222691848,464.0828601856453 74.60294687445484,465.67439717570426 76.41233220214687,467.13364595075876 80.73644293338491,468.9840678748444 80.80970208140403,470.3285585672413 78.52178300391955,471.1705873109682 75.5386965824222,471.29376903867484 74.07492393976294,472.6621296285034 70.63336704786664,472.78414199251 69.60548936264401,474.20849341674517 72.58032578872098,474.01010305642393 75.58533637857417,474.3190028236581 78.43593963052915,476.1016504122362 80.25354112602493,475.7543468207747 80.73769371871686,476.9304876569533 83.18678966273666,476.091896122217 85.3350091830967,476.9745958218481 85.16543405018913,478.2296681108238 83.12180218822489,480.5327974201494 82.76191723467802,482.555462296036 85.45473737801461,482.69792981771167 87.03863956168543,483.8029305830296 84.89225163579053,485.1942869822897 84.45885330131053,487.84384063665004 82.51808530937764,488.1581213291496 79.86405710171572,487.60280915327945 79.15066639968069,488.6401626669232 80.69420732125867,489.70678546198565 80.21416691770756,491.678492568702 77.72849747872043,490.845665000886 76.77399111780159,492.16783342328944 78.35551840616827,493.84588758687926 76.30874305566702,496.27237190408584 74.96459656022924,496.31836045588665 72.93921276943357,494.8848501537902 70.75186695013333,495.841717196869 70.31875319247376,499.8359238601521 65.77238777558706,502.959745522128 64.74005088602567,504.57196761252436 63.46934624899605,502.1663677228769 62.451077121650115,502.21931223969773 61.54256033005466,504.6238398491124 59.83793813385952,503.03593002308605 58.56268228980323,502.7268909505151 56.07711793568913,500.97139863343847 52.02159194417148,503.5127032247721 51.233673329656845,505.5348284396254 53.445571066855784,504.44641212227094 55.69955734214333,504.74117445575905 60.32646070380926,510.4612633811506 63.389706370854704,516.5050679623854 63.77226307414074,519.5304833495848 63.18173355823339,520.4755207093535 63.48225116335662,523.4812377694898 61.65750735152472,523.1405496002592 63.08010799616071,525.1269094844345 61.37565943073398,525.3421222064733 57.41872289136597,521.9197445640741 54.91104991290704,521.150352161208 56.35845178868436,522.9672575135321 62.86745272981978,528.7964466079851 60.96927127446147,530.3807651600877 58.182518494437076,530.3018831097322 58.11621356326986,531.4463773239459 59.60160931296707,532.907739380242 59.69496002302319,534.6967395550071 58.42672110767658,536.3323963003314 56.34950215624531,536.3800126965348 55.068848767424406,534.4163685135011 54.35592770541472,536.2611093548608 55.70542247526411,537.8789057074283 55.68223471968048,539.3931951477575 54.51435894196256,539.7525594670321 51.51141754021389,536.4708492592979 51.07903752427597,537.148922804244 53.3738533915148,539.7185915961901 53.23310714647843,540.60719381843 50.40461659077096,541.4475305519356 49.94302426946072,542.9987440521678 48.682705144817376,543.8072288489914 48.723588804848625,546.6103305326058 47.80633604970176,547.1076301078645 45.67014026595211,545.6210285134702 46.16179481127116,551.0572058962134 47.43839190570837,552.2419831873517 47.060335306055194,554.1405978693092 44.660819680973155,553.5345096919866 45.61629579431378,555.9047409926484 42.54556959034281,555.743998459998 40.98184730172512,555.0505983642744 36.2673581747151,555.50157126053 36.200759019198884,556.2521311824615 39.60989622745229,556.3184766768957 43.002121707675784,557.6627834643043 48.016212116449,562.0686570440132 48.42276644157374,564.4482708704388 46.699909141742616,563.5921125536373 46.52593379175634,566.8972087499444 42.43364727863979,566.8357587709102 41.561479485917545,568.0573832739788 40.35935966865098,567.57070415381 38.52560548752762,568.0566600699547 38.592368681249965,569.2237807862771 35.72956829400321,572.9314422710597 38.40747088466933,572.5017733791815 39.97877236005224,573.3171259401331 40.282119636503225,575.7213578333599 39.68547067496721,579.1872271938462 40.695878270709066,581.9096519474874 39.174503061898385,581.6021433446936 39.22668752023358,582.9211358955738 35.41735298214803,580.6077873126534 32.14045180273725,579.5576676468753 31.218049737428757,579.8183626603637 31.06582555560293,583.0218694372969 33.40221827310525,584.2499705884495 33.78782540280421,588.4716601371922 35.81139158474497,591.3561962988698 35.528400713644885,593.5791734749755 33.59383031184882,592.1541078629291 32.86697080018974,593.6904357781981 31.06413731014732,593.716788245772 30.66766963256759,594.5638923993806 32.59410293038022,595.0004518013712 32.806897831429914,596.8583759351241 30.45501193934607,597.7284552223616 30.235003800772294,598.9089264816903 32.07421950714917,599.1645059516713 32.9398072428107,601.0279180742161 29.961504072197197,602.5609601254209 27.27213580311147,600.7054405368135 27.642592907859378,602.3878190947423 24.801501583802672,603.2558782137546 28.696532144406884,603.9904438991184 31.3038179020715,603.1171000347994 33.59335351036577,603.2053499357535 34.28747909780496,604.1141766161446 33.908761103117314,606.0252691394703 31.189062463699265,605.9848068395515 28.97158906404643,607.2141540705693 30.61047157723971,607.7679177432165 30.30066393162289,609.3313683036463 27.49353806846197,611.8762162525873 25.857464956956143,614.4075828759833 26.582653542084348,616.6242509789008 26.046403414524992,617.846046263026 27.155294626102354,619.2905388125091 25.629778237679822,621.0060754548063 26.470032743524182,622.15454605376 26.427080609581495,624.5994808346705 24.682511809715606,622.8203707212479 24.878354107462272,625.9474321548805 23.348032280026374,624.2106539509286 20.65438883586271,626.1830839779218 18.403670737634712,626.5752918087428 19.129722296097196,627.400774936771 21.401041808781834,627.4333682977577 20.990411134642244,628.5146875870348 16.450471957407036,629.6742314083713 18.15220561931319,630.1167801337589 18.43589417298865,631.9870570095068 20.65512851960332,630.7651190209588 23.453630962490653,631.3447529704966 23.93540362684655,633.9911323375417 21.95664306716358,636.3841327833468 18.879893746009376,636.775914600875 15.91276449900798,635.0536111111301 12.871931409896892,636.1353709769506 13.414410662291974,636.9460560066038 16.134513050815194,636.9511639697668 18.269830935619527,638.5511030172524 19.746668874115727,638.1416837570684 23.328525274281375,638.3895691969956 23.71926745398073,640.0652404065727 21.893071134872294,641.0488875091453 19.831582458400035,643.0460941400797 18.822492644438153,645.7703579574656 16.324963410967598,643.5141954377252 14.927344477398398,644.9692246260915 17.293086570931642,645.3316683491028 16.96732076289612,646.6995601406252 10.352225616091149,645.8179749118622 10.548045120234487,646.6316770872638 15.479662992817367,647.5885705327566 15.97938465826238,649.4242699526953 17.61719975334674,650.0551873366205 17.2021933136846,652.1713339480859 15.376962946620583,652.7054665219903 17.27437498100678,653.5391285894123 16.3275603779812,655.3139760982428 14.650275395232628,654.2040851528252 13.934016349542913,655.2338073818171 10.600850172245725,654.3017984643351 7.636407239093953,651.4888802732186 6.713573127678046,652.2399812763298 9.085317285448003,653.7415397099057 11.430021932886486,656.4582203303389 11.154926074268472,658.7475706763296 8.116267092163472,658.8014869001581 9.35668012684399,660.3081885454915 8.194167623693502,662.5974108983496 10.72132914487008,662.6430895022554 11.087629345892832,665.4105013413455 7.062979820885755,664.3788042331801 7.407011510900051,665.4500814153564 10.12859317459831,666.3774862578855 10.074574199319857,667.8445326118594 8.922373810311145,669.220813482516 7.6490209262662505,669.183420297504 6.515975225553929,671.5484886368572 3.0394578273253825,673.3633390976102 2.1355003113598774,675.4971379946489 2.85085385718866,677.7065847573293 0.0,679.7985558764692 0.6819691912514251,681.2068912294317 82.45873560263577,747.8195199652841 141.76133703579,848.135862433806 157.7909379785136,847.7735513753903 162.2917135059029,847.422895809311 182.99602787284664,850.1217887773909 286.24924335324346,863.8309491669861 330.96554486880194,869.8981570082899 402.5999375799285,879.6553214922876 406.9120620521995,879.5372734781722 410.8492160263345,878.7319180233372 413.84923534716347,877.7392853681434 475.8641625628747,929.9049516778888 486.8500582076077,938.5505196897444 489.95124651720585,927.6988829905806 492.0162610108837,919.4803711416741 497.8831341840863,898.6695713697932 499.7010282632577,891.6191911728033 501.0510358866405,882.6827828399062 502.2467838101523,876.1980119832307 505.3911045638929,848.4581860995306 506.25477731624466,839.9053372045885 507.6666255477974,832.6240291898353 509.32411066975664,822.9373640856898 509.9030921815827,820.7597622364601 512.5696011624061,803.9852392263734 518.654421388192,799.077476752989 522.8614765808838,795.9470567514935 531.0231466720213,788.8686647059897 537.2878524735116,785.2822481158119 539.8141132370938,781.9166880242243 539.1917359000289,778.8807335645225 540.0521895669312,776.3049702075817 543.8585396448874,774.4021263924935 546.1520931405275,771.5104508552425 546.2390993249646,769.403106317256 543.2218167024388,768.0702534822315 541.0854168008636,766.4980554883716 540.3717698343714,762.2772491301032 538.7820255766552,760.3848841253609 539.5736957312105,757.6486303291745 547.9213822546592,748.9466617344834 551.3829621736982,745.0685502810885 554.0834291449014,742.7976069079157 556.2986093480658,740.189038786602 557.8890791329782,739.057551901325 561.9667089969906,734.2388726918317 564.0289290411793,734.1606594770471 566.9111567130639,731.3177891963776 569.4625708782918,731.1814101819318 570.9445574759026,728.5047947151818 574.4745552592608,727.1887870638893 575.0514772524166,724.4200652341789 578.206577468318,724.7088320004508 579.7176952215021,724.0286035333598 581.0264418408694,724.9811984953733 582.8724741842352,723.7318374252272 582.7922762439557,721.847266328693 587.1722098526682,719.6032808900511 588.7754010406973,719.479388219759 590.0663682484743,717.261213646193 592.9343142800992,717.0345919023948 593.6247127946157,715.3990217515516 593.0324956874932,713.5812193680275 595.2405675522288,711.9885227764694 597.3931491788071,711.8645796564782 598.1868340678363,710.1071569196713 600.9266513533273,710.2756218111622 601.5192063197064,707.7254232017166 604.0228418922264,708.6310550454564 604.5547840160395,707.2559743817667 603.6633873698936,705.6606929154339 607.3644560532775,703.1415938773405 606.4562567789327,701.2721703440908 607.2492911190515,700.8429581967373 607.7004910518739,698.122145170164 611.7495821250985,698.6482379037942 612.6793143473656,697.8918240244957 612.4875042718528,695.9123846712314 615.136610380646,694.0919386993395 617.9850152843991,693.7891175579589 618.8565391256873,692.8347889712845 617.8498222590681,690.8600448522234 619.5561947516705,689.9747491796315 622.5224346318892,690.5795226664573 621.736129630083,688.1286279408342 623.258968720612,687.2116576506545 623.4952833142735,685.8317029481127 625.4380153335944,686.7295292478481 626.903620035281,686.253744159382 626.1542752622372,683.4472446021178 629.7409010404604,680.9541494791084 630.0179416775131,680.2246571162827 633.5972993549858,680.0387947827239 632.6219777093644,678.5927961584043 632.7266074735528,677.1444700099744 635.5826763027424,677.0310411595515 637.4852800795773,675.9785381885946 637.5248966451812,674.7565131379242 642.8036152791616,674.7837369538386 641.3796297968045,672.6736755218365 640.8942303900932,670.5571346893394 642.3135649023367,669.1208820537598 646.7233545568649,670.4998784182981 647.0376510339938,669.3860593619536 644.9735586504453,666.5390485901933 648.3086664382463,665.7079100537176 650.2681043531461,666.1723163430893 649.8185576573662,663.6804659462875 650.8977019106403,663.7173271733568 653.3379725133724,665.3367911163015 653.380118533221,662.0525798885244 656.2138164932736,660.7155651143653 654.5633670865342,657.4993828657748 656.8980757291131,656.7738151559822 656.8584022796216,655.4091111010997 655.6465288716657,654.6756376150122 657.808059535015,652.715697768596 658.6045448411494,653.8471383594791 660.4575776983488,653.274975145389 662.6352931525241,653.4508066318444 666.3992384309032,650.6119662588272 665.3256598452205,647.6127044574187 668.3741752800705,647.4530659174218 669.9377201499012,648.4944442373285 671.8377830587324,647.5450989436204 671.575829123874,646.0641378076723 673.1962199058515,646.0340769395975 673.2586889472958,643.9656802759675 675.4955539786147,642.2697023081612 675.1410971974083,640.8624867083499 677.2690496777152,640.9244497760612 678.1570066072617,640.2133435824642 678.2838676999621,637.9400894138759 679.6976628777173,638.0749668842896 681.9983100964452,640.1319265445491 683.1127326281209,639.8951102916851 681.8869624826173,637.4879801365574 683.6166781958234,636.292305885032 683.5881764851728,632.9049650267559 686.8569341393572,632.946911983351 687.9302573562774,630.7617626831686 686.0329070061956,628.3531897445582 685.6749098947371,627.0873764675089 686.8635108889154,626.6547649381777 689.2354371236574,628.7037220072402 691.296643063927,627.1657875057177 693.0975265455485,626.6853147468912 694.7253836791369,623.4847446766828 693.7767761847393,621.5886501814028 694.3267914834015,620.9580979707082 697.1012043205748,621.3214461570446 695.8742157074058,618.9878620628826 697.729064708982,618.3219737791584 698.595867407356,616.9337063665921 700.533436303889,618.0358820353583 700.4193313959936,615.5422908993323 701.7611453210228,614.4047777943075 705.8642945999729,615.1177347783577 707.0482182401182,613.0200191200864 708.1179963255927,612.9791599217049 707.3551793089612,610.212476547109 710.713022829926,611.082060774885 711.6316040762929,610.2977448087031 709.4204744667511,608.3645592809235 710.597245125992,607.3765601539869 711.8646054850876,605.0437761880314 715.1050070460795,606.3070315205495 715.533916849657,605.4865566891178 713.8785820298609,604.57694573331 714.840254625986,603.5856091923359 717.1919618214096,604.335773286045 718.8204738946134,599.7063454471809 720.9869995998758,598.4898583931935 722.0553627895497,596.5584865887338 724.5096157627567,596.5582001926987 728.2943693982623,598.1103431345332 729.1616874227415,596.6484390296704 727.578916102266,594.9131271133248 727.5306206831725,593.3979717111417 728.6820735119685,592.6546279923832 731.0129113150718,593.4506981948166 733.8603499386744,591.0019088163743 736.0640831007995,591.3555790255438 737.4547010546519,590.2487721108598 738.0368692387,586.7883357548817 740.2852207160156,583.5033269278399 742.2162921696198,583.0239532482822 741.7406348955867,581.4844904841923 742.6105382908224,580.5774446662394 745.2962650371505,580.7018592134816 746.7101352622481,578.6930718292667 747.1113394417573,575.6899337457314 751.0154960891091,573.3137711624875 753.0291040074115,571.4731691560914 756.8862721934661,572.1517634114944 757.6316826630942,571.3644665915156 756.5083131369321,569.5791564513015 756.5789827271997,568.1893092633094 759.8424537294428,567.0921442001527 760.3887431631154,565.9903973718901 759.1364424750507,563.2938378635993 759.6149304644754,562.5491058064415 762.7651738610276,562.2467579717284 767.095039513708,559.2479750641704 767.4145054758048,558.2645671659413 765.8433540194809,557.8564820130616 765.3005315832584,556.7028001148072 768.9901777919832,555.6564027006372 769.583486968837,554.7450515292337 768.6734357716363,551.5452749068554 768.9902057007092,550.8267551188974 773.3745689958099,550.9575847308137 775.266936958132,550.3356064040894 775.2242807479284,548.3909505797012 781.0665099605839,546.2390230699252 781.8544297962981,544.5696670474983 783.5458621587517,543.7476879015612 783.3100387916389,540.3896333891428 785.7579637138492,537.8977880782484 786.8560281450008,535.8570036133084 786.0693181259206,530.516463322956 789.1429498897531,529.1345670062751 789.7804272212944,527.9122722412183 788.9014012721002,526.8469091079929 788.7559562476961,524.9097150646776 790.21301376481,524.1128595352196 796.6365066265266,525.9550183213346 800.7309019672563,524.9795791265065 802.9873399074969,520.9826920675864 804.1309345118952,519.9931583328798 805.7435088776953,520.3547084643121 805.4355473474822,517.7099181188862 806.6968301052117,516.9583404031505 810.8260241658085,519.9676946818483 813.8348289993346,520.8843614827204 816.5561908079702,520.5008216672497 818.75885702054,519.433165673822 823.0672240068236,519.0989263483273 824.679589129567,518.0710768381953 825.7036116489946,514.7507316167219 827.5505169457485,513.6491945929055 827.8384482349461,512.0189495563153 826.6459725255442,509.2578711291264 826.9302914812941,508.5870508069606 829.9702807989714,507.9910767194828 829.1322674720308,504.7195062130437 833.1599108015398,504.75678442564123 834.935941963854,504.3218081586174 836.2821683409269,501.94568935567753 840.4712723249581,501.3279990145954 842.6860043652423,500.0630937610783 841.7711297331987,498.5949368173354 841.843881388829,495.63699166803605 840.5507845833818,494.24764327784595 840.7420864197726,492.89883646283533 842.4404022263468,492.1995017929177 845.0461212568886,492.8732981241148 847.6996984993925,494.41408157174794 850.1494275552079,493.74301957402434 851.7251025964704,489.47423734187913 850.8180901260461,486.6350897468246 849.2837906192844,485.7956156702391 846.5010345195293,486.98647856125586 842.9997539777696,487.136112760857 840.5090743879772,485.6637177567021 838.2244148668991,482.5132901673685 835.892691309894,482.6218484267816 834.9442828442623,481.42523596827374 837.1423977420707,477.680988372507 837.1892200362222,476.5735983581705 835.3387422121438,475.06354084352836 836.0854955811242,473.28937993109895 840.3586909087766,472.4670538833085 840.5438034227558,470.8460687901394 841.6559899390094,469.18082966658807 846.1200236332326,468.44507577448206 849.5444194610159,470.8021490362241 850.7679748073571,469.8239605152253 849.4761945213427,467.73124348430207 849.9531670911992,467.01472167911874 852.7886404210657,466.38837930455304 855.6648264940734,466.51255738162035 857.488293093544,464.13385651518473 860.131823277843,464.10431040412595 861.0436035256148,462.90687013998036 860.3768752348117,459.66657902844617 862.8210235995837,460.14257605850884 867.5260571027156,461.80430182196864 870.1001306460386,461.73594373320293 871.715038768256,458.8761778962727 870.9234980867063,456.518533979461 868.2020749764852,455.51263681031793 865.3177805600449,453.8295630589 863.2213555317219,451.0600027776751 862.866891569737,449.43151599177673 864.207568710864,448.80206264477255 865.7020096784807,449.6013900186856 877.7309742395421,453.15537351696383 880.3763210436744,453.0608807083726 880.6482904430118,450.97203040443253 878.1943240595106,447.57676164510883 878.7239844642542,445.9980256663278 881.1701572257044,444.0212398990131 883.7011127216307,444.88277827585654 889.0346470245988,444.35388986654465 890.0693995480227,443.8058613760013 890.8564272285524,440.44588267365987 892.4423417547647,440.48706840329226 899.8052076959434,444.0305704918634 901.8305331481266,444.6306454319315 904.7164899351566,448.5376921276994 906.8168978265037,449.59870903779193 911.2619083404709,451.01859394615184 916.5556186962284,453.49315648831356 921.3500731029757,450.0447704057869 921.0341772888313,447.03691350537446 920.2176269344502,444.98008044615494 917.9868759882586,442.2654154960269 915.8070162579304,441.8318768813625 914.5026330923154,440.5203115688631 911.76359350448,435.50926887609256 908.8349908083339,434.052410435119 907.3314513241021,432.43556295548325 906.6618385730147,430.0619468229528 908.3253536492489,425.78634880840946 912.3636717712702,421.78590319737873 916.4042875002469,418.33845248649243 916.636759873759,416.0610388350116 914.4624694916895,408.42083012592116 912.9516954498498,407.3696122806323 911.7622885412865,405.1483972562104 912.0036654453802,401.55721733990595 915.0630529823654,399.9655239548081 918.8652030071046,399.08709920902936 921.107951182433,397.81373376788883 924.9699470352983,394.66431524406426 928.8048873132624,390.5209246238817 932.0616910489073,387.8161340142934 935.6069998185669,383.9318148167348 934.1819523756387,378.7434751780711 932.6383607180182,374.8029952587168 932.5524042529119,369.0128799644517 932.8786674681232,361.1857505599759 932.8299695226262,353.32503993407636 933.6241134798182,350.87955240147494 937.3126597807053,345.29116795529194 943.6954731259333,334.8259983095012 944.8074711115246,331.3051830595448 945.0040771445601,326.36544598060414 945.8023814530421,317.348678547213 946.4251893655293,306.199460184406 951.5067782552877,303.44447313780404 960.2867633608973,298.0376269346906 967.5443679982758,292.50668550203955 975.5536349566908,289.2438384381228 978.8144415749117,287.5329104257663 996.3417749010505,281.95275126302727 999.4679133405142,281.1953420491312 1023.9648109348343,265.7465934408111 1024.0,262.064958711549 1022.2074775884057,257.5750683055139 1018.6817758742488,254.7392598838677 1014.3452174182459,250.09432291760174 1012.1259695800883,246.6192658375502 1010.2237439136657,240.49705782488445 1008.2412346677102,228.52935702551736 1007.2780776184236,225.25773025755677 1006.0517341064602,222.7238871201031 1002.4847606887182,217.54736190573738 998.6164727450738,212.99343365561106 998.0350264847518,211.69373671430753 997.9513005112866,208.63888091475712 1000.4164324062768,205.39220688404635 1000.5772740771483,202.19184099311622 998.9440328840317,198.97974384450947 997.4859131280922,197.20005695728423 994.0541873619131,194.34835544912096 992.8279295382838,192.65743513912753 992.7059659767413,189.49110026493406 991.9235342595308,185.5861005426683 989.5341708767264,178.90771069978405 986.4334799763594,165.12627041429357 982.5694395530305,160.46248405534425 969.7811939100394,148.2072710743363 940.2703890059516,119.31870860954552 911.944727495242,92.46672685122326 905.0829295342695,85.2568137598372 899.3414834173727,79.87498317772406 883.1450629139788,65.1198929245212 878.5692291253496,60.5028522466979 869.9580589280075,59.27208646817712 862.3768242088773,59.00728708425686 856.9653698407269,58.56645413043793 846.2976467115258,58.06201384575081 839.3953842313026,56.30847012175889 832.6406483372311,54.95037155555406 826.0492690201557,53.39722905453766 818.0484626741404,61.2305930876945 815.3439715107281,62.60404077990904 809.8190209866804,61.578976958948374 805.7195810463274,60.013997698103594 804.2417601437639,58.5997788789025 802.4672149017194,58.77982832715281 800.0976842429671,58.06325253258615 798.3112183534838,61.10372912348976 795.5726786439728,62.06440884917117 794.7246703116758,61.21062521510703 792.6100627857792,61.08656436215949 785.0658471029017,59.647392113847786 782.9388492929406,59.60707821234894 780.6419556913669,60.88177198707638 777.113831027545,60.39992614064113 775.0385189119614,62.40637428858918 768.737013095182,62.52929998664479 765.7431632143175,64.99089549776693 764.7514541927525,64.947442844595 759.1953075056601,55.90443418445477 756.2765480734345,50.63507303539916 753.3929003319463,48.42198917831331 745.5426704806933,43.22648533293841 737.2963149781306,38.13529261991505 727.800025769554,38.08334766713665 704.1858958165607,37.43945659942892 689.0103044363138,37.313143869465875 675.7406586782273,37.57276837559425 644.5266131420599,36.67927418868044 638.4493934617221,36.22637769798996 631.3760680508001,37.77449101906973 629.1791429833792,37.77625604435036 625.0968130276333,35.989108936707 618.9493981905732,36.02976169636395 616.2137674245221,37.34002058070041 614.4518766701738,37.34861382456074 598.547420717544,39.600720632963316 595.2974294671852,37.13332949650726 588.0233657781166,32.49676291809317 577.5426348710939,25.27062003802496 574.2666204739755,23.224570731429708 574.6954482234315,21.239217414575705 574.2248168884879,19.736381131586427 572.7208734754882,19.429902588206005 568.8273723235728,17.382176476484574 565.7332874667651,12.99183176556744 563.8744001323176,7.977867850083612 562.6088984668037,3.2371274504129133 559.9308259027956,1.172086506011965 558.5451268724064,1.0929729837473587 554.6432765862726,3.156838038712067 549.5625216324767,4.303412702239939 545.5644018379281,4.861418632609684 537.9647227695426,5.244392865476016 534.332796501074,3.3788061013590323 529.9390093040628,2.2356955929670903 525.0488809457083,1.694256728620303 523.1317709716352,0.1552414723731772 518.5395313566573,0.0 516.9628628699558,0.9643089990806857 510.98596266479643,1.8032152940733113 509.240938542583,2.651661829922091 508.0866291311476,6.099272898347294 506.50634757366663,7.894071767788887 503.50266679097615,10.04693174614431 501.542649892873,10.386589232269671 499.0709790257317,8.72632542681822 493.0285325908183,8.66604694236355 490.9029230417265,9.16011075671156 489.49963896583745,10.696397119378844 485.4754095136644,10.934633899405412 482.98283558007233,11.64758616887707 480.0106860010065,11.369020743147189 478.7598548320594,12.292000692401984 478.08746375125435,17.01904683429109 475.07042538972826,18.198671463272035 470.44115972494717,21.09847774954426 465.7719213874017,21.780897405798328 461.42269276469625,24.29324153519019 459.61137656097213,24.84065190203603 456.94192581321687,24.57760703676786 453.0011911659651,23.598603863317066 446.7043171430062,24.073392789316813 441.48199021381555,27.25113777222225 439.1332955379665,28.34876828785616 436.3988585676718,28.916506567536544 432.204002244246,31.288980200061474 428.1420491012019,34.673494465609565 424.66730949443206,38.566377444723116 423.01844577244447,39.583408542103484 417.797101300384,39.92579508406993 414.46388562161724,41.042274897544644 412.9640123712895,42.735083052702635 411.1011299433507,46.03070119389247 404.99168944616173,50.509667693665165 401.5288420309192,52.08165788368126 396.49762777185543,52.9886680139017 392.7249417527281,54.35762778363244 387.85955868619834,56.68888361150675 382.41117986800947,59.85042979577588 380.43328793813134,64.29457634867447 377.51240350388025,64.97896583323939 373.3996432658646,67.65137439302475 371.5472135614148,70.30016312777798 366.8608047487206,72.76630336513642 365.01410197644725,73.39550443997257 362.29375494635343,75.28821076490578 361.9707762949443,76.31155674996694 358.8443784445641,77.63605215818006 353.6311795420396,77.42562362880562 351.75777602979,78.4658691196056 351.1603039319657,81.60737168247908 350.02285112557655,83.83975202222632 352.2951827323328,84.78019853433761 352.0149518156218,86.74967241649574 350.7895383787001,87.2042876115496 348.6508945322371,86.75157114156775 342.83211619298845,89.99883205956792 336.8863227764678,93.03741818566323 333.2488369644747,94.62343303914997 326.0529323706765,97.29170331496402 322.95595264378437,98.12867489087228 320.5680974934623,100.05716985888216 316.3685433829504,101.2771564229339 314.02330943759824,102.54028685653532 310.36770360312715,101.31951093328985 308.46032139769073,103.03150975559629 304.81352096653245,104.47667085090245 300.49086765206073,104.71958308722719 298.78969120975034,106.24745312007508 296.4676397661762,106.81952121556571 293.7032048074626,110.26545120201342 290.6474020106239,113.0789058268499 290.1277871240723,114.24856503747174 290.4091180949194,117.46260440614697 291.329562786915,120.13957311134175 291.3922770612803,122.13537104554564 293.52850709628814,124.32062152599292 294.1969525510038,125.89684067205644 293.74087533434727,127.44197221779837 291.2689044858761,130.41555854311423 290.16781450287635,133.80107593801256 286.8690963752598,140.17622496182446 282.24052838294085,139.44014123725458 281.19186239633586,140.15883303324995 277.0895118974572,140.50720228526575 272.5295638519416,145.95985130315137 269.197037677025,146.33216634953646 266.94778564383415,144.69560120326014 263.8573215930325,145.1030022244421 263.11885934652645,144.55468605891588 262.0409585623888,139.1312971032595 259.3624344533328,135.69728135406524 255.8318795891733,133.79305948835736 251.59008512951092,130.99170126220383 247.2000429661511,130.9874729185667 242.37980578691798,128.18657788190353 242.61561891565526,123.53787601451404 241.87710539909477,122.51311946425722 238.21693832672972,120.04161187571424 236.92645945789357,118.1909641039274 236.48694972557203,113.84012034586067 236.02369529210736,112.68839655700947 234.51339374446815,112.72401248170547 231.19185585308895,114.06926267883921 227.19978392861404,116.49653657195779 224.19397217381143,117.23921908133582" /><circle cx="617.7731710673788" cy="224.45153523029012" fill="rgb(100%,100%,100%)" r="16" stroke="grey" stroke-width="8" /></svg>