<?xml version="1.0" encoding="utf-8" ?>
<svg baseProfile="full" height="1024" version="1.1" width="1024" xmlns="http://www.w3.org/2000/svg" xmlns:ev="http://www.w3.org/2001/xml-events" xmlns:xlink="http://www.w3.org/1999/xlink"><defs /><polygon fill="black" points="615.9220301284922,564.5162733571084 621.8902729214733,563.6940550762249 636.0942930845126,564.780471785185 649.3995076517176,568.9344506728359 668.7466847769794,570.227111800712 674.0062794475358,570.5160180130728 712.4574624635602,562.8871731352501 752.3209594628786,546.467435457604 768.3243764104228,543.4189465880797 786.4000064308971,540.1972810772156 811.130373048133,539.8410590499307 830.7000958300318,546.6572155659364 855.3656048445602,567.2829717086883 878.1745779259779,582.4071305589314 896.1492872578476,604.8855872454893 907.3006739183965,617.2181106153512 915.3366382962334,624.2720115700857 919.9511399495913,602.8386380706754 919.9349754022196,590.7694116465789 919.1072891693605,580.1619783081677 918.6382239027367,572.3276053966208 919.0324994551955,565.0323729501495 920.0190355481569,558.4738844106573 920.1754381545117,552.6560460995652 922.4833331000282,545.7557442446647 925.6458284055893,538.2639961197943 930.0711446337607,528.9936438234887 934.6758400945065,520.2825902369156 938.2755967290299,513.071393520027 942.0012784335403,504.8455005607426 944.6855875393749,499.9195430395812 950.8778281324504,494.46988667220285 957.3773290875201,484.7125452150814 963.0634705149118,481.44575872147857 964.9883913000032,474.4658773292653 970.9747308427081,471.33835133640997 977.6555303961063,467.4300713427615 986.7564587819409,463.64081367554274 996.7900006102441,460.81501533206983 999.764846378814,459.52189313319786 1012.4401073498084,451.28419550773674 1015.5052505930905,447.2491364691878 1019.9187287570758,442.02464269799634 1009.0709590825451,436.47232542810076 998.971591481379,432.95293194699326 995.8886787302705,430.5313222497484 989.980008915916,421.7933543041432 988.6303341072277,418.2561692088282 988.059158889253,415.2244679767331 988.1707949593801,412.4797021160417 989.0117380760538,411.39028530490583 995.7906871866019,409.3082238928071 1009.9606717194216,408.2222744091948 1018.0321203045996,406.3288800899721 1021.3032435318702,404.2601059033406 1023.0779346223533,400.63006983160096 1024.0,397.5638933327035 1023.3839332582829,392.8588421903283 1022.0823965453033,388.94701372984025 1020.1570731855059,381.92614942956294 1020.076332742869,378.88149202632087 1020.37757737568,374.00472214381426 1019.9619711948844,362.9847492153144 1020.0413728505453,356.3655659238972 1018.3381348110312,351.0896371841378 1013.0460197480857,342.7934203437794 1002.8809411655055,332.0468380656591 997.9535267352803,325.4914869883895 994.0004638877705,317.91927379861824 991.8714104836044,315.47506395108337 984.6748326249084,312.85453818541845 981.472872700037,310.12851682842637 978.9131213662926,302.5904938800176 975.8492083636739,296.13298740832437 965.7044128893426,280.4394122758166 957.469862553149,256.92975280520045 952.3974025152996,239.7175395086927 950.1558975272645,236.1248364875866 944.106204065265,223.66452325172338 935.6966438394729,203.0455181606775 928.3948922400778,172.35246880661134 920.048331411042,148.98958416205278 913.1791719928117,134.33932481337638 906.0246659089711,122.88282137547299 903.2927634691105,120.7458475943854 901.0862195489351,120.3434015021711 888.6657241629017,121.95484598363726 883.4530827309663,122.99484430132293 867.1895856565721,132.44210718720126 862.1295019465865,133.90448352743238 858.4188242111061,135.40048029110665 854.3307021643362,136.1057348151104 847.8839875770127,134.88467498628518 845.1642469341457,133.19895803172187 843.3315636229668,125.10483868123072 843.9062619847447,120.83640347879737 846.2891870726196,114.24207168696171 846.2028883264396,110.89525940238559 845.6498322054339,108.47016000936082 844.2220625794167,106.6063017349752 840.1817793276698,103.96105530411091 834.1588385161018,102.13160188430822 823.2209721945452,100.56038183610008 816.4361088059285,100.09925568717358 806.9535322666424,96.74168581758124 798.2988972121929,91.38567923305754 790.6235086767526,83.5751990907471 785.248031300812,77.38285454233585 781.7930042417382,73.65444465721976 778.6598603628888,63.30624830234922 777.1205975142599,53.83470467001882 777.0172898811876,46.99456868651339 776.5051164375196,41.305731893684424 773.6553933661414,34.44407220903486 769.46113351937,26.475719742095862 765.0727919754353,19.724266748240552 761.2333300617389,0.0 757.782734529738,2.049280900629242 752.0461402891489,6.092701077489892 746.2655692005142,9.644119581665791 742.66144490772,13.221567479520218 734.2399717893409,23.402652802890316 730.2232164252359,28.090489729785872 722.3808268166483,41.75772196749267 720.0387350650025,46.10579346948339 716.8407106872495,48.038674576272115 712.0737976470429,49.31986341970605 703.313439088034,50.94775614059506 697.8878537082369,51.180526824975345 693.7346743854059,51.72935442375854 687.5893057438076,53.799157241669036 683.0494879213379,55.9937596441132 676.037268164436,58.53716034785987 671.300351736273,61.03623252384182 665.5213487102673,62.75318542075979 659.9213399136985,63.784568692483504 656.6115032875966,64.9442889963027 650.6163309938693,67.79431643657881 648.2808502737698,69.12023296206496 643.3281763145566,71.18696271763906 636.3272084878971,73.37803491254442 633.1925774369058,75.89234954075744 631.3797085284532,76.92562476161106 625.7077370733672,81.64706845101773 622.01911312063,84.46962803526208 618.1510132957875,87.04246733111415 615.3259952928747,89.68857553625287 613.444920487325,90.41846666812228 610.319065416739,90.43204530975265 605.2641724175278,89.56825960800006 601.5230302444065,79.0831245672299 584.9679395019585,56.099741210951606 579.043335965468,54.359843689936156 576.4151808700369,55.842012078560515 576.4074828318946,65.91631139651008 582.5098226121611,92.84359248242106 586.3652844161267,101.8119078925572 587.7768232161383,109.40971382100884 588.5172527265084,115.85269513043102 586.7008929251584,119.23328140323486 582.6663041515582,117.95259355687165 579.0406991399552,112.57628390207958 577.5195639244032,107.9893770548507 571.173932249679,98.22308705575347 571.4659552964013,79.2848167962095 564.7151069508919,69.20309727938604 561.4164101296786,66.31103672082202 559.1854794816035,66.55354168756935 557.7048866495069,70.26614376988482 552.6803470678631,86.61640835867422 544.5692621583812,93.5748744029703 542.0175824388165,95.3138413667657 540.5204025290686,98.8818580755601 539.2721014296778,100.41377511481824 538.5079535692793,102.2032313800189 535.7013879872964,106.08504430416838 530.6722149696513,105.84637193273431 525.2263118767365,104.51501553040498 520.6060779832056,104.35511389536316 513.6006013638447,109.8093126506443 505.76002632435916,113.27881009511555 498.75268829695136,117.90423847006355 491.8144584547951,129.22749331114142 486.3675045287914,137.15076452934352 480.825111580356,139.03192338670556 478.5441493466533,139.3102689283711 474.6868308179529,140.78748501462326 458.37239250641744,137.19444087862132 449.3880802339467,137.85620187807876 445.32744940531757,132.82608201209382 445.1125929926204,132.83120569995958 443.3209695064768,108.6363160441515 446.15030668047166,108.26395138893236 447.8451634897733,105.65238134480887 447.5068281405326,99.17167084675805 451.3828291629908,98.59131238306941 451.07144295349593,94.55405047253953 450.3566104608481,89.00204017497322 444.22737437742035,89.76827396347903 443.383031392421,84.7274693278057 408.7522562224004,88.85093583739035 410.01086720259855,103.13488822024374 409.8544362774387,103.9312619316155 411.7076846966447,120.05575683940128 406.1987857215848,120.70701233583964 406.12925504042585,122.9723293846805 403.8560371559157,123.13027066799839 404.0131148258681,126.33024506930849 400.1398120553412,126.25413686303716 400.2346806013908,142.81145584200817 397.2874459504122,142.9852331776118 397.1123863568021,147.68182641899955 393.24817039907254,147.56469802655363 375.9966588812426,151.0145707205728 375.8100864002552,154.3547179256658 370.4241857228143,152.1058224770211 370.69327045295927,156.98754138834454 357.7755073584256,157.5546641166727 355.29680222575007,160.3641055728657 329.14741882805413,160.31393855411955 328.9147628515491,166.9983872742448 314.2384146647437,155.22123321191316 296.25009571358885,153.85451182847055 294.7045288448477,134.67138732677392 282.7306954954139,135.8269055009108 282.8812566250485,153.0352286571151 227.45735249407082,148.79814885187045 221.33292416435592,146.6538035490522 219.86731418041782,138.37994430009894 207.55728576261006,131.90730766794286 207.50006644606952,131.68504929078415 197.9077106850954,126.58296578232887 183.80343686703645,124.68174892016839 173.73807803690926,121.23293380144594 169.2686247670811,121.34634522197155 162.4570905758338,123.19154238010219 151.9550739154555,126.6715179754998 145.76160904927698,128.26602241371347 115.9709007739836,137.7743448579049 103.73163518131176,141.17866650465794 104.25028003923221,147.52561653504972 65.28677344922767,158.54563843125368 65.49703329384317,165.34902167805694 68.92680628632787,165.281131393721 69.64564116916348,176.12255900833986 67.63798904372265,176.799302202244 66.86039917329396,179.02394058445998 67.60194506757443,186.73013113031266 67.3417288568974,186.95178414824204 59.3496768553789,188.20716028530808 46.24488314710225,190.09759251307173 43.5718639418643,195.28749863713858 43.43926097064902,200.00515807509316 43.61538552268747,206.1436931922571 44.68676810447071,210.83753298813895 44.89539877158441,216.07609597718573 44.21285293538446,219.03775690715145 41.48880768709841,239.28997765052094 41.342215600991594,246.62185732826424 40.37851264322611,254.40089998500315 41.17767696691423,260.5842176808188 40.87057010627083,262.8695482176891 37.9675792589998,272.5961356776742 35.15606509832985,282.89221914071345 32.8587715594237,292.8417107292529 31.87111014323721,295.81756186380227 31.66354327288853,302.1981157316954 32.1327771551894,306.38183724627896 32.17190303174806,311.4335390872523 31.754997798178128,313.86602409470976 29.930916165907693,317.858400544905 27.68427843579742,320.2900872647215 25.100358511713566,321.33449449499847 17.392411000460633,320.81878485532917 12.204162625859837,321.01019350381574 10.443118704459456,321.3811746698972 6.738390106807828,324.8755743153848 4.231686138698602,326.21270424516774 2.4399519107529084,327.96615924853 0.8786141496862723,330.4258713955004 0.3163535497450621,332.7242379261209 0.0,336.5414115349525 0.33932419663168617,343.2453237336076 3.2958124294365034,351.38369557030603 5.421653376726919,354.7263131045982 9.910380565915982,358.9423406126684 16.760458550357864,359.52530893280925 19.464108129572615,362.04492252862485 23.971389466300895,368.1502035747403 36.54126539810884,400.33059540862394 37.15046682271349,430.58927858442075 35.336997756530295,456.23680731727313 39.35916885058819,484.1043823701786 35.16632216020921,508.6198497322504 36.65768745833613,524.8955798786832 45.15149991611927,543.3761485691734 55.817962935820546,552.5041842231112 72.33710342770009,563.8634371025262 86.59957592963936,578.1746037683223 96.25791629367302,596.6329565032852 105.48616509681476,622.0734301639155 111.3045331306401,645.4373013225111 119.92471107111652,646.3416990017308 122.89448755445575,648.7603783733236 127.27404365566852,656.0759112559128 132.11709902551638,667.1102042659553 131.45942453863677,667.9275044579788 132.31190143497162,670.8959605190216 138.7226251070129,684.7557223207776 135.61022543501733,686.5978724675138 143.94710013254962,705.1854138278255 144.9768671888915,709.0567706099728 139.63748526663113,711.1795764880085 139.52928827976265,711.8678479168192 144.99826219175966,709.6430970929711 154.81094501757005,706.925261810503 157.3253141786697,699.3652908655625 162.29679581668054,686.7715304410157 173.30406563745234,663.8891541218577 177.40293180955408,627.4558354604525 186.59993320984955,610.262557041847 205.27105626011007,596.2696353585723 220.98738254073837,590.6334285580383 232.56747237454263,589.029904946824 249.21317408839093,588.2555582318922 261.5857721882626,589.4953883673052 282.365206207557,591.8529205456621 308.61977757181273,606.588890377994 313.1703110584785,608.1708878626573 336.0783696236929,616.9599385091648 347.61815321366157,617.0836200724909 363.06434966924263,613.5540018557095 373.00951884583554,609.3514016699702 394.4649235098994,594.4957957260922 406.4296694811835,580.0770083681832 412.110979822926,574.4101376258966 425.6528083960501,556.2894819799834 433.2560900426785,543.2445575746201 450.8864443916751,524.1639523715395 459.84690319602197,518.0137424535608 471.5043121645174,512.56862264905 487.2037679392371,504.533842712471 499.0409892345624,499.842417253925 526.6597032330726,492.2932468038799 552.0034852185008,496.1089731057476 567.47982740491,506.4067207153555 573.0293840368529,522.1357295027325 571.6078453987121,541.0779448695707 573.3344356583161,554.0289271297914 615.9220301284922,564.5162733571084" /><circle cx="521.0118950987195" cy="214.6239829707348" fill="rgb(100%,100%,100%)" r="16" stroke="grey" stroke-width="8" /></svg>