<?xml version="1.0" encoding="utf-8" ?>
<svg baseProfile="full" height="1024" version="1.1" width="1024" xmlns="http://www.w3.org/2000/svg" xmlns:ev="http://www.w3.org/2001/xml-events" xmlns:xlink="http://www.w3.org/1999/xlink"><defs /><polygon fill="black" points="119.29874868406398,688.5434507728731 124.22206718272712,684.7732256810868 127.52644872024626,679.6348816915171 128.62555023656967,676.920270139088 128.65690802045754,673.1222148087107 129.24611216124612,668.2356684833214 130.36615528741052,663.6337759577846 132.8163906104399,661.741369265501 136.36121450257383,660.6752771271958 138.547203396717,659.6028047183004 142.36772180155822,657.1876775343742 146.1871306013369,655.3162407804973 164.1435697604446,651.1147168775892 171.4766080715435,650.0975325578306 175.55201877479368,648.234552891048 184.51849016435153,646.409531662976 189.66598913609917,646.4644059496355 193.73929219537766,646.2380704022604 198.87544965468848,646.8292877019503 205.93558200836276,645.5427460097658 209.19388657991558,645.8509887407282 215.43714667260662,643.196608050871 218.4310793016115,641.3287453637137 221.97736034410295,638.0996928234667 225.52207754271004,635.9725290958268 233.3895667682424,634.418706930538 236.9140018073704,635.270915359709 240.41607327454142,638.2906390129108 243.93080494056775,639.1355851743747 248.82132122650094,638.6412462969516 254.24188194700184,638.9660291575259 256.96008563209955,638.4458849342491 263.4894473164128,635.7907298825897 269.73901109853375,634.7563490919794 279.7865401762389,634.8304073556444 283.8625099729983,635.9578462923339 290.35699014007054,639.2555481839527 296.06449587846396,640.6587903711963 302.8701075380179,640.6981334964017 310.1992607993848,642.3707648914635 324.633704544949,642.9867174359135 330.08520034309004,642.1976144820424 334.99106542277195,641.948129075112 339.36130689421725,641.1574531642177 347.02544176594256,638.1945168123376 354.12347817522,636.8651374959744 359.8428904698869,637.7053215818967 362.85914974787494,637.1685724069033 366.67339742783304,637.4523644253271 375.62292591465643,643.9995705163302 383.1998578652458,651.9111185123153 390.54430141568025,655.1994962225546 395.71026938337326,657.6572425979818 402.50445671357994,660.677464738812 408.75660093540876,662.3420849691329 420.16760985786345,666.469660277961 425.338796639951,667.5821558081127 431.342176331273,666.5314250610134 437.0624594339178,665.7436765875693 441.4322233664553,663.8807508299856 444.44203530261353,661.4525770656074 447.21627269812876,653.0502809984176 448.36797429833433,644.910172590824 448.68356777291626,638.6612568893624 449.81746171621677,632.6961133925549 452.5479418100624,630.8172107268773 457.17989015507845,629.7650506456964 462.07708699557554,628.1703107036045 465.89097936241467,627.3838645414153 472.43424447545596,625.2615832844624 482.5149035243923,620.4544813114443 488.7920139997529,616.4347781756094 503.85422267263795,610.8219704528512 507.04062217952134,608.1736364575303 509.2307075344914,607.112913644153 511.67329945620673,606.3175698012271 515.2026544630513,605.8066560337123 517.3819153927259,606.6391872837993 518.4366589771873,608.8175983695704 518.7005357070136,611.5425951064241 517.8501953889413,615.6002295147348 514.2672511025512,624.2614534462804 512.8814185904847,628.3232584621063 514.4815310743074,632.4071493101252 515.5236779761481,637.8557092951262 517.1026768036974,643.8356317578105 520.0602974448632,648.7575791958766 529.7255367689093,663.5058577132716 532.6724927817577,669.7804527272297 538.8507922160767,678.79682027319 542.3661752977318,681.804428651814 547.2268139020426,686.4575193946307 553.714019900185,690.5892299881986 559.1447553307393,692.5318496330342 565.1334406425625,691.2205017999747 570.3058333252499,691.2497633400737 575.2217130506325,689.9183872210685 578.7592252159624,689.1254542482862 582.0300784079217,688.8739335314832 585.5665933577211,688.0807070106707 590.4757282280349,687.8353140504529 594.3073344885606,687.3071363606113 598.3815905920667,687.0584268961486 601.3906775795174,685.71796405393 604.6972497820336,682.4666866441715 607.7558644649187,674.6002756241265 611.3281657092474,670.814140306581 615.1375126263422,671.6442348551116 619.2081546017627,674.9210732254544 622.1933385382997,678.459824810909 624.8999110454813,680.6387992104167 629.5281800884129,682.5579055420375 634.1647682671965,683.926598603185 639.3393640986055,684.489280344382 645.356672270399,684.494240741899 653.8312954138727,683.4266297703426 658.2150864315603,683.168830219928 662.8593164458796,682.6315553284309 666.68420296444,683.1868069079558 671.5894359161664,684.5542059576171 683.8400557467675,690.2945361664968 688.4640047027357,691.9323823385888 697.7361906263235,693.5888322122695 712.7420014506075,695.0024450298444 721.4798716150141,693.670579847989 728.02076847529,693.9786023476295 734.8251962427421,695.3690443402801 740.5368054526265,696.755571939126 744.9076299804522,695.9634205922956 751.997334911928,693.8375834305019 760.1725263504534,692.2643325156791 765.0731423272711,691.2074554311678 770.5262559605387,690.4372690970192 776.2185932850889,691.0198113749385 782.7421952898535,691.88317993237 786.5420988206067,692.1896989392616 791.4459108870481,690.8732773529188 795.7886844241252,690.6360649007352 802.5677077064174,691.7777367402903 808.2635070597192,693.7323402261711 813.6786732405466,695.9525525661627 819.354402764602,698.7230154797577 823.9486357240289,701.477567837 827.1994895839956,702.8627684975793 831.5333763445058,705.0805620704335 834.5057096717894,707.2744024758737 837.2103044857606,707.8438242450013 840.2002923883423,707.051602883572 842.9360002382787,705.1775306873549 844.8632764680315,701.9292345100376 845.9798437807178,699.2230646490684 846.3040798079991,689.7239112260091 845.5373927499986,684.2822285452373 845.5601586428204,679.9371436557371 846.6692385083957,676.9531332705991 851.0422326271288,674.2801695392641 857.31407504226,671.3349326118216 862.2118493492211,670.2861122194007 866.2928700211957,670.3248572087446 870.9191859631075,668.7240987011505 871.5001443809881,663.3000273482683 875.0868532175352,658.1629387426314 876.9881276011008,656.811631740397 881.9019820823514,655.2169628443801 887.0684262685795,655.7978239214173 898.2179386971883,657.4884120820265 902.5821887004075,656.9736713877178 914.861567935845,654.5833310768 917.2066002261253,653.648171709093 918.0993055285045,654.3184090039302 921.5106264989865,654.7580331806242 930.2587528270952,646.6703086492868 932.984047806274,638.0055455279402 934.7215904706139,635.5699941380449 934.7036392569449,630.2632838836818 936.2949721060716,626.9880353799178 937.1594040039463,626.9720860471671 937.4112401379721,630.2338002140481 938.464833162963,634.5825878806182 938.4294246435059,638.6539324903267 937.3001279220136,643.81425472868 938.6445235328241,647.076494935906 940.2548773575055,649.529649376927 942.9800964281345,650.9026788396955 945.438554088193,650.3711214532267 948.1731445556463,649.01704233068 949.5722232734721,645.4888614743068 950.9625228069301,640.8725804864284 952.0968554084465,635.1689002419425 950.7755488239613,628.916975245132 948.9158067547035,622.9444443065878 945.4171966397919,616.1366524845032 940.5676168744885,607.6920550742842 940.319646345874,604.9815095755365 939.5190055663041,601.9863496519797 940.9054084815979,599.5469083754269 943.6382014339754,598.1929206416783 946.38056226219,596.031849656851 948.0536588424376,592.7837758413084 949.4488973625215,587.6278936636287 950.3051975864515,582.7359775953794 947.5783294101809,580.8227821042566 942.9745183734833,577.2786819900427 938.0850209242922,574.5439463866214 931.0246467635241,569.9005436399909 927.7750429617046,566.8992807744849 926.9873892198094,562.8177615492983 928.0891004654397,560.9231131532958 931.1110562921622,558.4841787666562 937.1137692082123,558.2382569920015 942.2973697617044,558.5354244817796 953.2334601372817,555.0405130725455 960.0596528002128,553.6977038552404 965.8145587052279,551.5480945711306 974.8498791686943,544.7997101568465 979.9155939878186,539.2957997880353 981.5731582197697,540.0940768923749 984.6656563958861,540.7092721243209 987.9171329950664,539.9773698875672 989.9427161092133,537.6928005341643 990.5644725806787,535.9742822940075 990.7173855827863,532.5553086027394 990.0942981865147,531.5862488182865 988.5431754061569,530.5582992336193 988.2836503036135,525.9565500667168 987.5551678654091,523.0334673916177 985.9193994535296,521.1285616313213 986.3298370572462,519.9885563615135 986.4752204022366,517.0414975949685 985.8433156299255,514.9949931439133 986.8427952536642,509.81095979105726 988.0072152105153,499.76634360203946 990.236741346425,492.97767962738044 995.724836173567,487.3075161960009 1001.7613002920884,482.17068515407345 1007.4926525188082,479.7556119619845 1010.0522514189679,478.27896334526804 1010.7763959869364,477.32374815465346 1012.433289516784,474.0790947854583 1013.5870216232069,465.66548170351814 1013.3645761478479,459.1472800415929 1009.3875535521272,444.7273889212894 1007.1338235850319,440.5433625250685 1007.9609901443148,440.70575686193973 1013.5961981234738,440.89246380163627 1014.1107232223458,439.44991829839563 1013.3487091518202,434.5698017536417 1012.5582294003301,432.3865037246131 1009.5267856250567,429.03930124227264 1006.0491639656323,424.76213909212413 1002.8089460498584,418.69478041250073 999.6688966741654,419.55170427684504 997.9267086403637,418.19546266562384 995.9194313701216,420.65465594201106 995.217275225292,418.2846057568311 992.9510070358322,419.15988813094907 992.0532738911706,417.8859656668347 991.6912721019878,414.8292426269934 991.8635403095747,413.24063974896944 992.9194316544565,410.9290014480523 992.7403652462492,407.4169071726644 990.9612581429975,406.97407667930923 988.8363904344487,405.12798057127964 988.2308386098533,403.6606181934572 987.3430684462696,403.12899428507063 987.0736375488516,401.54662179262283 984.9162324386766,401.52756269321236 983.1423524356109,401.98268328161623 981.8565553540438,401.16132624048004 981.8652859843708,399.2362363192267 980.5777086067792,396.46154484724593 977.4178953753864,396.56960026896746 977.312401650771,395.7170051341008 978.0636334801602,392.7723096357661 977.7084900153296,391.8326933677406 976.6209470210212,392.2118247085424 975.2758181278845,391.4644755665785 973.0332778222019,391.68269151798836 972.9743884387732,390.6719795069338 977.3107359836833,386.3102566985833 976.8508105023665,385.61708678678815 973.829527487421,383.6609310449259 973.1008527191817,382.1469397180721 973.6125712101707,380.59306087688185 974.5450035349313,380.1611771340125 977.8717479965171,379.42838960601995 978.860792842106,378.8166714088046 977.766793126927,377.4565137681405 976.0771597445257,374.2579227078316 972.3184833849717,368.55779985207226 972.5736688502378,366.633099182828 973.6582656947057,366.517858286277 975.9217434345853,367.09033173075426 978.2338819783333,367.1908853052722 982.2269962561588,366.4395814252471 983.4156839189778,366.73482943483174 985.608494753882,368.1074306389848 990.1865505629594,367.33960302482893 994.0673219661854,365.52853099637395 995.8110134323368,365.46604127068025 997.0009420560139,367.28669733298256 999.6880926440846,369.0658507436391 1004.3399726853673,369.86356490967023 1004.92687040727,368.0863355118692 1006.7995200294259,369.3531879615797 1007.304920374075,369.07534783855266 1008.579994878778,365.83169600583767 1009.2508203976338,365.5991408155561 1013.6403888297078,367.6797359775792 1017.1167774379235,370.4771634200758 1019.2742815982617,370.5594295658107 1020.9293873200571,368.0606219455781 1022.6832880280374,366.1935151595993 1023.7403180059288,364.3316440485783 1024.0,362.61331591059763 1023.11273957449,359.5155293572101 1021.0308194593923,356.6734016373579 1020.1891632571817,354.46548203445286 1018.786634956468,353.1287729429986 1015.6351232132515,349.41814438442685 1015.9300888731171,348.5757696136134 1021.2380325346514,347.57172078156344 1023.5934453076642,347.38449390070787 1023.3622532954188,346.1076894273428 1020.5030992286959,338.183917807895 1019.8006589042869,337.2779635728756 1016.4569380903378,335.5107763839626 1012.789330093218,334.24560870322364 1008.4659508682818,333.3538255859301 1004.377598396398,329.87565612381263 1003.4477613920607,329.2824518565626 1001.4987233207053,328.9231139009878 999.1392252432787,328.910192454511 997.8857839621623,328.48155749142 994.5968341142697,328.65823739613944 993.1536211664938,328.0422920259112 990.5478601770932,325.44207695114744 989.2969914384058,323.61710065865134 986.7254545105308,320.7603635151933 980.9750583890681,320.17736988245844 978.9814445077305,318.9287529755281 978.0727139648352,316.8518178902186 976.8785427581291,316.32855207510755 969.8973365403821,316.470075321972 967.1784789441507,315.69015279426554 965.3068851290512,313.63940845765126 961.9087613469268,311.65166241155964 960.3240468101192,311.48099720580655 958.6061536942211,310.54517757134755 957.8198443061665,309.14196599230934 955.2342594648295,308.00156429045484 954.0285880781072,307.04340347806425 953.5456618387632,305.87429595020427 953.5844727836277,302.77449049839896 952.1662243381707,299.2378108965475 949.0208450373619,295.1919072353144 945.7358038801246,292.03367070995495 942.4133952615392,289.39554678693344 941.9396924771697,288.1619703322331 942.2153502003888,286.22493934741215 941.7758013247721,285.1330187693239 938.0829942801478,282.42751410741636 937.2847786572272,281.3523802967173 937.3045591607746,279.80604953562346 939.434218632841,277.01459786936005 938.985079850066,276.35660387876504 937.2898653752753,275.8261057342815 935.8447425596995,276.20727627310237 935.2757782064036,274.9049465068624 933.3443872117432,274.73599058654963 932.1278669002329,275.6301588432777 930.602103646794,279.1109201736909 929.3234857253989,280.3845399722869 927.8406868748184,280.89369702728527 926.4340404807506,280.455012816684 925.8692104513815,278.10575073752733 925.740745960036,276.008547468173 925.0193699600887,274.333598211171 923.4237057617906,271.7921601135731 923.4902394953771,270.0521136041737 925.3149694627856,266.25217872797407 925.2340859559653,264.7655942232581 924.4681659557482,264.1172143049513 921.4044490560295,259.9208123999428 921.1559285140597,259.05893209615886 921.467477879607,256.1538753910157 922.110160011943,254.53502527461728 923.289473689374,253.3924848619106 924.9738486714766,252.77816764289219 925.9617500192844,251.77616909485175 926.1775739564005,248.36749305640444 925.0470798276233,243.65829532686 924.5914794285792,240.82370366279287 925.0690439311634,236.8459998566329 925.6463655339803,235.05894912827102 925.9300965778921,230.76682309011534 925.2328410431624,228.8500439963546 921.883982004204,225.0689172391405 919.2728754414077,220.15816242734775 917.9340436556773,218.75041345024943 916.8154858576221,216.3541453797971 917.993491775016,214.05323136772404 917.9850813447234,212.6086588650752 916.0777694627633,209.4516985592938 915.4045266210272,207.2858829747995 913.1605548298086,204.5501574592828 912.2992720518916,197.60821666402728 912.5330948247305,196.03004063632062 913.2052996829823,194.73243076547533 914.9807813860162,192.57953079538765 916.9989325719949,189.55272644476565 917.521286923215,188.01669867516262 917.9306081360617,184.9545314074628 921.3439951369376,182.0541439900269 923.688885921368,180.5403952825028 927.3564623873725,178.6986691549389 928.592682019816,177.47125263414262 929.0547269448493,176.38469097605605 928.7181894089732,171.85731352432754 927.8233942004302,168.67454554471635 926.8095954760782,166.3908583303437 924.3512605739611,162.51111230349977 922.2471307581516,160.0143158949021 920.5064504863697,159.61433241823693 916.0569025032137,161.26881181765407 914.330477029648,161.4006034551893 912.6212862566437,159.8815384185524 912.220490612245,157.5397001455815 913.5176664582837,156.26811180926416 915.7865947429436,154.63540043623163 917.169811435245,151.99742103212782 921.1899241548211,150.01218843589436 921.9687429268113,148.89694818980024 922.5639122896218,145.91645228596838 922.8270975695787,142.76784061297224 924.0233558149389,141.20052810391257 924.167429382166,139.34784737864334 925.3505141700213,136.1388007253595 926.6272553909363,134.16409880357355 926.7867797837903,133.25084049483337 926.0947959210738,131.86862909642036 923.6268761404574,129.51240944576 922.5248273569962,128.8873845845402 918.3717523696631,127.40092708888767 914.6504978191273,124.82857308630855 913.3762277949303,124.24368639296142 910.5930310640978,124.24097075734085 909.3328034630237,123.41444578226492 907.1401505600264,121.377122761603 904.6466132108113,118.02534694876749 902.3054746685891,113.476525342625 901.5510349789673,110.89574710209297 901.9704288067643,107.44602972315579 902.4645920934908,105.635165521045 903.2974773786824,104.25607017130187 903.7378784200042,101.23232321855244 904.235216018132,100.31010413291574 906.4487449816241,98.5602281497197 907.5697131491091,95.72381000005873 912.6015729821395,90.75917055228251 915.4082991762425,89.39826773663776 918.3457737439549,86.05898268226667 920.9129842104185,83.80246783427378 922.1397360160414,81.12690523735 923.3019282799468,76.060045897745 923.6620924103868,73.49454048774919 923.8738649865378,68.46040930635615 924.2932672784602,64.7003520111574 925.2175657842164,62.19683710834863 925.136394824775,58.03797514083806 925.9139754014345,54.68052683509359 926.0551588329533,53.064331927341414 925.5177378038702,51.72311714441173 923.6861451246224,49.01832935074515 923.7322047592465,47.695814180228126 925.7509992653223,41.80606876737795 928.4506054220512,36.95651343725797 930.1898930671305,32.87666970387488 931.7417005227416,29.818958859744384 931.780122829936,27.467645961729318 921.9331918280358,28.73560507540219 919.2534356837776,30.531925526974078 912.1044191781579,31.448998512888238 899.5973047768418,39.51996914934125 883.5366858649095,37.774784439224845 871.9335592988651,39.58521481065509 865.7013941504382,36.91761590863268 855.8762234591684,28.906520399583655 829.1669237278874,25.341094423632853 819.3855129816133,31.56745196198142 801.5848365707959,31.553531266487994 794.4782676686124,37.786959153060366 784.6869560588224,41.34876979180399 738.3759381269545,35.11314461687937 725.8910380962724,35.127768666401494 723.217970405184,37.811342099504486 715.1781488489229,38.72318513479638 704.3858265343343,45.84018808876624 700.372441685153,42.11863745428377 696.0965753551002,38.510116691008875 690.239312190899,32.41951720030454 683.6082996500629,24.680229253098673 674.8379050845049,15.006143309021923 668.1347309806866,9.716973826806225 661.1455880134816,5.2501384767447234 653.8521076184262,2.1156196064493997 648.7017245218499,0.6623307075523144 642.426591494191,0.0 638.5978758391714,0.4658173247701143 629.4830311761078,4.634527397952979 624.2103439892102,8.055367291246966 618.9241719108069,11.758855332355097 615.3256746148566,13.849197834754932 609.537574213683,16.18076637048182 601.5413030395149,19.819036758848483 592.6939410288237,24.25499179190774 585.7362236698402,30.066789779816645 582.6852136327075,32.448430323661114 574.9491708838408,36.88684803427168 568.9019222871473,39.19366186261698 563.9602546140867,40.7091722920685 556.8784054784592,41.08634875437372 548.4285117728501,41.975347626499 540.5785863630293,40.4245965309035 537.9369680750057,37.375122752318134 530.8525095735262,38.5517571644383 523.5136611626862,38.37078425597076 515.334809046468,39.50560836111481 509.6096354107572,40.72209135563628 504.1635752116998,41.13034556299465 497.0733585251996,42.56643655830271 492.17397507549737,43.25314555451462 486.489496896529,42.56528234644384 474.35059053799876,39.530912236013364 465.93868200382195,39.31715018635805 461.26252583193735,41.37385681642343 457.43712513904904,42.63093239027705 452.764710631788,44.41738767785591 447.05687029694894,44.55023054007995 437.7365347465737,47.844278414415385 430.61568419073575,49.84962517288113 423.4228961320182,54.828771545832524 416.7960967609844,59.03076074667524 412.069161384126,63.25660578903819 407.03254069671823,68.8448158622565 402.2841910284233,73.07874328226558 397.86523248874437,75.42432971728454 392.64329770515633,77.48165083885715 387.42649682670213,79.27481892463447 382.7946959674226,79.17579277897346 374.3532183173987,78.17912108899907 370.5747267078692,76.74172169739177 365.20995464963687,73.64517757944611 359.2188639446445,72.97519296851158 354.0063469187906,74.50348682077095 349.5305612443965,78.75004796169651 345.8933813010116,83.01569783489015 343.30981890351546,87.84393911504333 341.7894112384713,94.31908349515618 341.3328463481967,101.91740190708936 340.61035898396216,108.9614265881437 340.20895074117647,114.64287051789267 339.53581301799824,119.51358948427094 338.375975340103,122.47552662029739 334.17307376600235,126.73236612809205 330.2620743177776,131.26128184822676 327.36794893957386,137.70886373749738 324.7607022977248,144.1662759231043 323.7445970515773,152.01492841829327 319.89853782707775,164.4163499656512 315.88682101332347,172.4654057672867 313.05242000432054,177.287595398505 309.6641024882101,182.09873199904064 304.92898097614767,186.60960021980225 299.3687573876873,191.36957060952295 292.9994206632015,196.10143072177584 285.5335481767308,200.81148852108493 280.2785267243128,204.48473527398062 274.26141477607956,206.2298048830657 269.64842501453023,205.8453524768708 267.2579844580622,203.8843725767574 263.46907461049216,203.2505091178711 259.08001195002174,205.03591427432048 254.92989378606222,208.18251013910395 248.25228883826705,215.335261840187 243.2713199035917,219.54958925688663 238.02347729055674,223.20541252807516 231.93816997802423,228.19285318013033 224.2564558503189,232.047777782681 220.17240894212534,233.30051558987668 212.8205334265655,234.45493135350762 206.80939660292063,236.18849955038286 202.9918506137567,237.43564090467964 198.07080087646588,239.47726668185163 193.63968937417044,243.14540037627194 191.93338034278682,246.35410516183964 190.66089742923762,253.91610212549085 189.6639962805288,262.0362217976966 188.7506225019693,266.0790776927595 188.08649269327668,270.9489322901261 189.30200901387718,276.6770807217106 189.696646013088,282.93240537138894 188.73891377942704,288.60655267136383 186.9874745998075,293.980812534623 185.01920887876366,296.91233242671944 176.98896275177125,303.7465374868864 173.1120011531139,307.1722334842274 169.8062607270571,309.2579541186664 166.95416271351635,315.1503013402186 165.7775927448352,318.92172044484624 165.37193663215893,324.6027483349664 167.42330121701573,329.5451167179627 167.81612248471765,335.79691203395475 167.90538794575582,342.8601934852467 166.9495801112122,348.8010934351313 166.79826035161858,355.03595015226665 164.25043180679694,359.5881271502723 160.05220234664108,364.9006923118024 156.74985761294738,366.723219714389 150.43238510024855,369.8132054156816 143.83098755959713,373.1793122926831 137.80243030216377,375.1958290901383 127.72272556502607,376.03857820271986 121.75107961961939,375.89395875730503 113.88147669885382,375.17402847637015 103.06263970202637,372.75509885857593 95.20967790639004,370.4156194948354 89.81335233795399,368.39377484408845 85.21542372555348,366.94198441614054 80.05688866416753,366.28252365405064 76.21014834505235,367.5614834313121 71.52939889286783,369.907812423454 64.86517566960755,374.64906424789353 59.594884525757465,378.0713703837291 56.28907053027351,379.90378236030773 51.8816712747177,381.43952320484135 48.02570212760509,383.52941023735735 43.63420172012157,384.7865506588304 38.97185605005069,385.77681613092074 36.43875536789065,386.5135935840708 37.243220364318645,389.5080559776024 37.483882488750766,392.4897130855471 36.10459340301498,394.9260040911252 32.813301767605715,397.09319383437617 28.40958065215799,403.0448719398393 28.63345773204738,410.37530567415445 29.13405011565084,416.3549684538901 31.280456165732012,421.246982140584 33.40609518281262,429.4059810997462 35.83614671634684,432.66200420605713 38.51980820024213,438.3816619282622 40.66427324067896,444.3600031981302 41.169615150963594,447.8885892383502 40.61557918263351,450.599703568803 36.75546899319554,457.37586149899 33.450567402349755,462.2470243674933 31.78337479267812,466.051910545173 27.933975777895867,470.91677770088336 25.16184370657479,477.15696559965113 24.864097090191912,479.865268290644 22.93471037192806,483.39005819693205 19.101055198488403,485.27962590892287 15.554970372806338,485.803901733188 11.203699102310923,486.04665628361306 6.028375577086387,486.84399334738805 1.916314894138191,488.7237340772217 0.0,491.1564549098633 0.2445925584202921,495.22577973402144 2.392173114305069,500.13159427365883 6.725268242762188,502.05196221220643 14.345586850447546,503.98625207554556 21.927172051723847,509.454226291122 27.62789927801556,512.7363687553781 32.25578039657331,514.3873026916482 40.1239856418468,518.2212371554406 45.835748028922985,520.1399000132058 51.80865492168321,523.6880916040027 56.408352257469566,529.4062958541131 59.63887916335965,534.3105995587146 63.704858235134864,538.6663027000766 66.41556297189754,541.1155893276493 71.5204963693563,550.1037097961141 72.03455422366108,556.0793411980977 71.4291819474326,563.4083026784625 68.9110306530102,572.0886296792867 67.77275093293974,578.8700735540764 68.29635548822873,582.133396696161 69.63048253202496,585.9410451097353 73.97206648211423,588.6734996303313 81.29790663069586,592.7744259903471 82.92524579052571,595.4990521822964 83.99276441521722,599.2976032520828 83.43041575342222,601.4711854609299 80.94492559016088,604.9965757185009 76.55349098424938,609.052770738634 72.15653002647696,614.7379723260759 72.85566097779325,629.9490631543325 72.55107267479137,631.5331128031426 73.58320325177792,641.6305773097921 73.27795488245053,646.5109970501331 73.51301024171472,651.6691819741809 75.37928651436228,658.475083146905 79.42725993472084,663.9169376149868 84.28269418927883,670.1842745117395 88.33628485105018,675.9058497814478 94.02147381450237,680.5434338171758 97.27640849543502,683.8108522470877 101.87907911824402,687.6421340268571 105.67903577711894,689.5634704416163 109.75436596491068,690.6644343650624 119.29874868406398,688.5434507728731" /><circle cx="951.1398943132131" cy="328.97341884116236" fill="rgb(100%,100%,100%)" r="16" stroke="grey" stroke-width="8" /></svg>