<?xml version="1.0" encoding="utf-8" ?>
<svg baseProfile="full" height="1024" version="1.1" width="1024" xmlns="http://www.w3.org/2000/svg" xmlns:ev="http://www.w3.org/2001/xml-events" xmlns:xlink="http://www.w3.org/1999/xlink"><defs /><polygon fill="black" points="569.944876571298,0.0 566.573113831932,1.3700048180023714 564.1181791471497,1.0112723410430817 562.2614194022677,2.779486173047758 560.1036390367019,7.441349794612734 557.8781525118962,10.93542959567776 555.6751555862862,12.560232279437741 553.0723043591422,12.65056285688047 548.9979347588533,14.667512449377568 548.182142847626,16.310366354499024 542.095072034247,17.70725430793675 540.8211289263045,20.986549270381033 536.9204954836749,26.294788866543286 534.1574888471614,28.63921097399657 526.5335504252502,28.018857662563278 521.8386968023515,27.277525931200216 518.2698136893783,29.60381405199064 516.3520141557168,32.04668433758411 510.6608792377759,33.49026144533866 503.8392281693675,34.04581379710885 502.23803829991874,35.591805937511026 500.4031881203468,42.014238859763054 498.4568154427471,44.33481007015189 498.8874517153682,45.75068002232854 495.31266966450363,50.19631814772447 495.7827185750495,50.92882581454785 500.25093804082974,52.72388520955815 502.51618641199406,54.360480301305074 504.17799109762797,59.451697296850966 504.1321462807044,61.56158018217525 503.30807843261664,63.826465873562825 502.05253957587803,64.63399997844965 501.1201934242991,67.4422165877777 498.54234192243496,68.74327063722819 498.34421862642427,72.34879651722076 496.63253290622544,77.89214979473354 495.5220069755461,78.5783210491968 495.75226716373965,87.9878706748367 492.4959998908094,85.55070517740592 490.49642428629,87.12648792968787 487.8832550980175,87.15427994206414 483.5713226622708,85.07587208860798 475.69151672841025,82.73737374154416 471.5129005786751,78.92858216940851 467.41689312924836,77.63134209113105 463.25896514197325,77.91642425124155 458.5746259879842,79.58928994101018 454.3777956630159,82.95443892230912 453.33468556716224,84.75869321034065 452.85107754519066,88.24822201375855 451.7293015162222,89.02099025827829 448.5350387203043,88.18437493242345 444.8920863505082,89.73088863667567 440.71952202240107,92.80297718264615 439.09221576868,93.10219744269284 436.33870417422185,96.95234755645822 432.9400454208266,96.8917624473579 431.2468434451998,98.47217646593094 429.3747516948328,97.95450846446386 426.8271320155551,96.02699801362223 426.0856281816584,98.91632187449795 428.4896768542963,100.93703041826029 425.4312594584358,104.58508668356842 421.82261653365725,105.0502597275813 419.3920070470094,109.07829817181346 419.4435685821012,113.08586514196156 417.77716771008147,114.87395439846307 422.11969528554164,117.76800738030124 422.28900870778523,120.51370373894235 425.0887952264535,125.03274976303192 430.94147320716525,128.90803996892714 433.96081200961504,129.8203097368829 437.04362706012535,132.27371358266612 437.2005565697086,133.57385273401644 435.6356749762038,136.24666765252812 433.08204018896953,137.9620811461922 430.87392334782095,140.55710294777407 429.86777453196584,144.2848680403166 427.3716809288388,147.01404049632583 424.60321573716305,147.9744915066891 418.0148902916548,148.98919452129348 415.2811857277597,152.74568294754692 416.5805812887249,158.1824439315683 414.99150997227036,157.0888072474221 414.8367896380684,161.14725797244807 412.48022179147995,166.5881202614803 410.28034156059203,168.49113697614973 409.59371886240893,175.0882416910439 407.83123047557206,176.39861505384 404.9547432950111,175.30579209369898 405.60821854952377,177.677637522277 399.6079505844873,185.2798095834911 398.05537233962417,189.32965548479547 393.7425834187463,190.3568152315081 386.1860634045669,190.21509566620546 382.08813293654646,192.82131135804525 378.77551025123825,193.91193823002902 373.9629231488471,192.4736525935882 364.77029663215,187.89460711097172 363.22803366658945,187.86510598719713 357.1785544199151,190.44395451918695 351.73241954843087,192.26098457671333 350.33841786504354,193.39366723277965 350.2933011065451,210.8076020153926 351.8814966548733,214.34425219976254 355.0238235593482,220.0586322933292 349.8615224882217,223.50681645896304 347.71588817762,229.7661945414908 350.15192226899796,230.18760490195166 350.7119659984027,231.9013290740039 349.72224169433446,234.88489758081698 352.38111449840284,238.54930823269865 352.27399037420696,243.701841736544 352.85517318887884,249.962155337377 355.5561227137346,255.93165000672366 358.22279011685447,256.7547561405819 357.7278870907331,260.95734727480874 353.5109925890202,267.7719158936952 351.7473271762683,269.07379998402007 349.413561335308,269.41664820550784 345.62541199164485,268.456931521706 342.19137145461315,266.11660261018574 340.84541066976925,265.9075333898969 339.863228320433,268.3892893285697 337.15859535328724,268.9345485620187 331.22838168117386,266.9425567146276 325.46106072802826,267.2638473631562 321.8248627201899,265.60433445865067 317.8258055518325,268.21998944882444 313.4422054177113,266.7417708113842 305.8503482642895,266.0170080033504 302.1032151697439,265.0649384949854 295.4652762586979,264.76067585895635 295.3925326460701,267.8781041612716 297.0802344828526,276.91862474374057 295.68562059188145,280.3395676662992 292.82531118277825,281.8350320555876 288.7228899976615,284.5169851872082 279.5663114034088,283.74475045883173 273.66192007357955,282.1313268279489 269.5694335180175,280.20495017280314 261.75577378339074,270.20435285625285 255.20732685889408,264.034998445518 249.30269107100762,258.77356060669695 249.9741997629063,250.71751772783182 249.11265878083242,246.45364924641717 244.51562756203103,244.96942136467078 238.18966809441616,245.0995751724962 237.33857626796802,246.05824619575014 236.05422552958842,252.57206603307338 232.8449403503416,254.82336622559922 233.7445051530845,258.55249632448135 232.8606059510103,260.3592556870816 228.64946525238156,259.72984517033854 227.74920376905453,259.1191809851085 227.92634253645153,254.3568590709284 228.62985155665186,250.79832757215013 226.78065882179263,248.52833319620265 219.2143083052014,249.68873097504456 217.07577595076634,250.6910895997837 215.94010717744385,258.9481787396054 216.06494072525206,263.90474828802405 213.13556168163254,266.67891908397894 210.45971060070295,271.7278722309193 210.25832679460382,273.7353968628064 207.87461411998063,276.8382849707473 204.38075537802217,276.0442928903044 203.0958846532751,277.32605977171227 202.67423418750798,280.4574803968899 204.710415183292,281.76797576723436 210.659584124329,287.5508179757096 210.22816144494706,290.68076934270243 205.38187003983396,292.2598561956645 202.00778241435535,291.6589030765732 198.4301820148327,293.92331162769085 196.86431105863224,294.09157879677775 194.25684986736945,288.30267580276757 190.20903606274314,290.5844652900581 180.36864218799784,288.3240747158326 179.56396801839594,289.56156526074767 179.65346835163038,294.14565096028537 178.25290502606717,296.40538829647915 176.26225931534145,298.3878119689224 176.06913447601562,299.77976205958964 173.3234738935926,300.9538500455682 168.13360590778888,301.52200018515066 165.67136883424797,299.2949467212495 162.15354826989645,298.7688633183085 160.43658009580477,295.1401704447469 155.96038922128804,295.13848540720574 156.79929687886786,300.877612327454 154.44679697620512,300.98220366549447 153.38843377058137,297.7870436053545 152.00302934098966,295.97388727481814 149.9619176181972,296.50845708622364 148.5779117368924,300.45737852840284 147.08341953184333,300.56600977298524 144.16868608103198,298.52362022646855 141.44411055683798,298.2854616534022 139.7635187997668,295.0037166118101 133.6884214439004,294.60528792921036 131.94632650722306,292.77749976386997 131.3076676319455,289.5707594848112 129.91503855816762,285.41898244822517 127.89946288489286,280.6158064506145 128.2063598715721,273.4633382456085 124.92857804758198,272.575846133127 123.95966866805446,269.5905274203469 124.27901012436132,267.98356820572417 130.4688467519987,266.7122745956026 134.29278340043848,262.94555288725996 134.29483099421603,261.41302386904374 132.56121509352096,257.5414674211785 133.46905956692666,254.82527822518387 133.59232585511728,252.61854661122914 132.5594760381003,249.85722212193878 130.2904944844594,247.71933793838298 125.02021224100122,247.58361827932413 122.17854304298552,247.00611861637185 123.6049369319702,244.44464278562123 123.60042989678733,242.59880209840958 121.90164745027879,242.0296542363011 119.75618746344671,244.1645167390576 117.63292716561357,245.44170375435579 116.3438782731148,243.4475466433238 114.79541470483393,238.8957935457928 114.36449972514869,236.19519602987157 118.91750221530602,232.91715634228876 118.85093070695507,229.7024756281104 115.780301385259,220.85767516773308 111.58969222495972,218.18987288351536 112.21995042340893,214.88216053597046 109.24384896205675,204.4283259950456 105.8376135056574,205.4873674783205 98.15439750438735,205.59290482631673 94.42923548147775,208.89046369984544 92.08427346146706,214.85828724308112 93.36800861859939,217.9528471458642 91.24003322033519,219.55892483053117 87.31461592427719,219.7266856246839 82.6355621802087,224.56953208414814 80.69807199430873,229.92881532125352 77.24855801137133,230.424570087622 73.97838871773648,230.437000001623 71.70963131263018,229.10542927625784 69.28970673321601,228.95620991133433 64.21475640038607,230.23369042420768 59.974467048044666,228.86364092218116 53.99692556339105,228.21211858497145 52.79925941709687,226.21074581906714 55.78123649220824,221.5256335869309 55.58843802110951,219.97276415776344 53.684149849986404,216.1325308002572 53.99918223737235,212.0840714411254 48.673213394543204,208.89601062650604 43.49559419433417,208.00558551622385 37.12174839632996,209.38350912307396 36.64440561842571,212.65052904097365 35.15897547606805,212.85335396467292 33.17424617502791,215.79412769911414 32.86824393985234,218.53629855082636 33.70582741447541,220.64492060027317 38.014870897449775,222.1210467699617 38.86221023362132,225.66738553164907 35.97098238472163,238.0717051285958 32.80427148604976,242.789959907852 32.00846824838221,247.54339309014915 32.48171188398151,250.0709137280113 31.78337995790913,251.01359562202936 32.144505312793804,260.4276377323928 31.279959837093894,274.5726571532283 34.82627185428885,276.6518025069182 35.59879493013083,279.6615911315869 35.093768963188914,281.36075681966474 36.252379726218955,284.5931013023039 36.73283567880311,287.98806958319665 36.72531730438812,291.9313084360846 42.167560208335125,295.8065239804224 40.524062077046445,299.10985816785035 37.553873961241955,300.886369531852 37.29479515883267,303.8982722796592 39.90899935121208,306.83083743295083 39.147731201352826,311.3518842087859 37.38022067837192,313.3014463500183 32.291175987630425,309.8289164010473 31.139149219120924,307.48144011121417 30.519340212586894,307.96617638988664 30.544525504931578,310.3665620939722 29.256955419906806,313.14637264454484 26.48492928099991,311.90992421938085 24.07231179262097,311.9437000883952 21.23332214928082,311.0434868540259 18.406664731188847,307.3177218466118 17.74467014987508,307.1351894868577 16.104304407922175,308.86024284577707 12.647987917211895,310.27442409738353 12.924458578126943,310.94515096879445 12.911907330190571,317.93892749727934 11.907308869368011,321.5982819231458 12.197245050809919,331.59627008577115 13.789729046883341,339.34212839726774 15.238605798734566,344.3310762338149 14.62787054130789,346.8612160738537 12.204921330521687,346.1411214469264 10.965276511658782,348.4196017766642 12.857607275354594,353.11935403273776 15.381705084627095,352.5505726766669 18.728095490102813,352.98986297468844 21.210354196597365,353.8164852258509 23.08706619871238,355.5777606244486 25.372859202803916,359.95389780652073 30.907493757542305,362.4974318754658 31.91213039349708,367.87848516673165 31.56067016341876,368.82766559191657 29.613970509313596,369.76931244372565 29.727858015536786,374.56563934332104 28.60482173793689,381.2939148567672 27.015552727550624,382.30106931141245 24.359628561870476,382.114494764858 22.46705883195102,382.8239778362106 19.575084634420595,386.83819842729713 21.721832269840828,388.3183479772817 25.71791414495498,393.94320199442353 26.190846762374132,398.62303501704724 25.59793075749277,400.0371243892962 23.29239409533354,402.3962915964237 22.99958859215059,404.23779843051534 20.1109174274342,406.58829490584515 19.58594581652823,408.18541972029874 20.459884647920884,410.66932132908187 22.828774425406632,414.3465808938466 25.8980722035168,417.0704147881563 30.061341368488296,416.9766743236795 32.03053269713083,417.3176217441816 32.094126430557125,418.55803870899706 33.678451054373866,422.11110891125554 35.16098087917866,424.23980442440427 34.838583040264886,427.3390966846375 32.23526814009706,425.64495566554285 31.697097043967492,426.71185489000374 33.29326172718401,429.46733172055644 36.26447785662622,433.31787833402944 36.779502098961174,434.4966700935889 34.794649912623804,437.31180531399315 33.57661148097376,440.80615002635597 30.09741001966224,447.15568740185046 28.840812773206075,458.1331488598295 29.470583544121943,466.01029192420924 32.020518359781796,472.12744266441905 33.731271394643585,474.7199129693738 33.90948919918474,476.52686142576346 31.565608681894208,480.0916422360746 40.537411297457076,490.5983641518608 44.38724575284037,491.0804517569698 48.640904112603586,494.0834198489472 50.81344893551498,494.5836579704986 55.06946043353409,497.35225468384215 57.95661140083308,500.1007987191559 57.7132160398122,503.4287786158639 58.76931534737464,503.96483998666224 59.60090267247852,507.9844134887406 57.664316908539554,514.5402857705119 59.28731904521096,521.8520325860623 57.70735017176612,523.520893795756 54.91669592141926,523.3236357258379 54.2936464089603,523.9048317243278 46.594910197750565,533.9088496339134 43.8882294992316,544.7673777400005 43.71880709538791,546.5879426015114 44.29026581621101,550.2223041074935 42.96258252219519,551.4276212347402 40.529989047674725,552.5284186962713 37.23962497429998,555.724767253842 32.12769375142672,557.3778027845908 31.756373935990705,558.3093087559969 31.59300665953816,566.6458303632452 30.935521453929972,567.4432997402901 28.31968231726721,566.4585470592665 27.353341466041286,566.7227531062135 26.193945697694346,570.4026785296626 26.233959300568856,578.8305428598127 25.890995628127754,582.6442755161947 27.126402065421086,583.5993910298023 24.50856456483201,588.9845578395141 21.00881959387569,593.0128510242898 20.086634413187305,597.2691328941769 22.16370736624158,599.4440026266245 21.238254074523596,603.1634964825887 23.845521918654057,604.850889939531 24.805660747197198,606.3748405915129 24.093662408025885,607.4057375211668 20.251868997309572,607.6450433422737 18.266829138740412,606.1314040491267 16.67553337752471,607.1493223653245 17.42389395421964,609.8079317490574 20.333546118248208,611.1263772631518 20.228568313614282,613.36416280894 14.477700631034672,618.045900853242 10.012088422573553,618.7871323554635 8.88215017361375,615.5579955598502 6.576226816762904,613.6499795676918 5.701482844761976,614.0011187768334 4.40987487901935,617.5063372390064 4.233058371567288,620.4725634889636 3.2613539427766276,623.1753829000268 4.005685256379275,627.5272253286903 4.804824399502386,629.6043849757572 6.3111898646523406,630.9036057828049 6.672502980777397,632.7668105280782 4.632466547594939,637.8149960546288 0.29009387968051825,639.9298509775874 0.0,640.8103182795787 0.5290853810978743,645.1857505239227 3.5102759827303145,648.5895458365087 8.062337336219167,651.7220009275962 11.732200340969452,651.4107195646691 15.009070199642094,652.1362805181388 17.98096630471447,651.9725422412967 21.061514782033218,654.8996242248647 23.725451474866972,658.2823157389332 26.334884420198446,663.3560242125019 25.292831250934018,666.6321238443159 25.302076090193584,674.3942231351404 22.42558235608862,674.2998439206534 21.74742564428036,676.5653475362951 21.637894186624795,679.8805482482073 20.979713764186066,685.6103862144191 23.03039076879413,688.9840355747597 23.63096621557872,693.3697298162967 25.896871660937094,692.5784061769224 28.747143964434624,697.9687424698674 28.69530702569194,700.8337001871722 30.493276885190475,701.1116189397551 32.7150014281656,703.3499037899123 32.55454977131728,705.1464926273785 29.751254147215462,709.195977300936 29.796673226429117,710.2553880487226 35.09861535306745,712.6430116351098 40.20773708917366,718.4675662199246 40.23432609227594,721.5946494555742 40.91304133047097,722.7850642792589 44.53618125773108,723.7238002751077 44.761305760076475,724.4833108008529 46.47968348669507,723.2393819395157 46.85398814087047,720.0578981092285 44.22988912887009,717.3441704426473 43.653881939153486,712.5935611147422 44.494031794268594,709.0025797398197 45.377431871096654,708.1641421320431 49.84848804357198,707.776640641373 51.65883576766434,708.6635305980786 55.80944762821033,714.2729540753363 56.235899341958735,715.8946599885329 56.441303666529386,721.5433047201784 55.4677373617169,722.9439874833364 51.38392292791605,722.7456636058398 48.63418040206327,726.5458927117243 48.34506791518063,729.5117786257018 48.6324841210538,731.6347531789626 50.4320180866774,733.9710411438977 59.18083901521963,737.5374446350487 63.26566832589754,737.0837464252949 67.0982111940774,734.8983742788804 68.16085496200739,735.078301024426 68.98358691250851,737.6787218665424 73.3616114121797,743.1182312671078 76.68274121471813,749.4633142509716 77.84006962456682,754.492407230638 76.4289467006209,759.275887702597 76.1975756430731,761.8879064489579 72.87606074111416,764.8196652245806 72.48712665716005,762.6417722450458 69.84890380560702,763.0040842500979 68.22311146913539,764.1960377976299 69.24277524037025,766.686837491586 67.78760224008113,769.585097390432 64.54401739170527,769.2426426695841 63.22963067579911,771.595471317922 63.43653978216078,773.5445704738115 60.32154254117059,779.1988670815485 55.699464869167564,779.2540045741711 54.97569662744668,781.8495456859023 53.54757724909047,783.5408184727125 55.23549536489189,785.8151491176169 57.58428247407423,785.7192060425609 58.967249253221155,786.4686064792675 62.79748485152078,791.5978678006896 66.52533514974469,797.4643824993417 69.9390999855593,798.113023470793 71.10564372860843,798.9636126029332 71.63665201110635,801.2131311465673 70.15969220398084,803.4512539258731 70.37013553354316,804.5571555912777 72.62199551585034,806.900940365566 76.37534956693911,809.5526084818187 80.94199424552296,812.033778756842 83.72723539961164,812.9167535835163 88.87080525973845,813.7543100649668 90.60497219588473,815.0130305628643 91.00257392177942,816.6087473056592 90.38914333571589,817.9464850975589 88.60739321655626,819.3291599831687 89.11083060102852,821.3520097908961 91.40712890093852,823.4873575086107 94.51806500795121,823.167514730391 101.07259265350815,824.9375417112432 110.18831479761162,825.4318486450235 120.35221772675439,825.6700888723178 127.86448593702337,824.9591531405295 131.2249241795217,823.5982436792212 136.4233058338948,819.1177335765077 140.96070836413548,818.5895383378885 142.87570346501343,819.3898478078274 145.68978245671462,822.6880627521559 147.9646667231792,824.1705530244517 150.01777137388032,819.5160753637919 157.31239420153423,815.9930206877343 159.31699397401906,813.3801740802214 162.56461888326893,810.5221991462629 164.1668666166816,808.0429324452837 169.6269939884369,806.7545904290293 171.55083733197807,806.9109672300153 172.82846031045133,810.1085788672615 173.54373900822165,810.2656619311525 182.21786495320768,806.9962718887846 184.7967502718234,808.0742785331087 187.6238358663477,811.910012113458 192.01207921763944,814.707072805887 193.77723757925258,816.8351255322553 196.20590623836117,817.5455274096292 200.32168497803687,816.3597032613601 203.3414697929883,816.6698717728437 204.1913563704192,812.9715210583378 206.18537302944048,808.7065581575674 209.7545268267265,806.2778068498884 209.18079363369517,801.0142872703382 212.21905834887602,796.8330704201314 213.3389290543112,796.67429300069 217.14088883086788,798.1418507044616 218.2329657301865,797.7404254051787 221.14606226869378,791.4896402476446 222.32388149248845,789.9852187201418 222.3142656967936,784.633032904886 224.73597682438233,783.6245616167548 229.00964384033233,785.0367090367782 230.4447597678782,787.3058313075495 234.15580787165277,789.4235933067439 239.03715779076268,788.4641108757307 244.17045266273627,789.940976160037 245.6486720258637,792.0713511731176 247.0393465030356,799.1617306834263 248.72771713130268,801.6696163864186 251.372595846604,804.615860289312 256.1787324586256,804.653285294502 256.99404544597206,802.7182401354671 260.2807705837469,804.4389718265008 260.9912683223625,809.5313759762056 260.6827689378055,817.2935374297937 260.07369142266526,819.2407126672949 260.0116032673296,823.063463717287 260.72718456010904,824.7927282945471 263.18317853726256,826.5545034459764 267.37229459370326,828.3392507540248 269.47070762839627,828.5678346272007 273.3073140889979,828.245280196707 278.5528640557062,828.3829085874213 282.1127363178806,831.2202680213096 284.9765677392118,830.9274616836746 286.88522173871286,829.9876848511419 288.27306650738063,830.4489288239847 287.83409402840607,832.6245807021818 289.3989951986364,833.6181101731443 291.8288940008853,833.6072231139725 293.53856213278624,832.1950228106863 296.77830317890937,832.8196866421581 300.41594120066856,832.8767129020674 303.3001354546625,831.7849329367938 306.42445073953604,828.7758043239978 306.81706890883294,826.9903028215493 304.77106736134124,825.1314523970527 306.17868233790983,821.6997385847334 306.266931018616,818.0861722210261 309.2692443237823,818.1173503771535 316.2525952043479,814.6284518664037 317.31614099191364,814.7814725793364 318.1361506189138,816.3565906352188 320.37618127370354,816.68012894453 327.9444177223985,815.5270141536066 333.60432202679704,815.3138445137986 336.34430860034075,815.722606919369 340.5360494395619,818.0972175928633 344.3617078601819,819.4579641480175 347.8106522148345,813.4640478672923 349.7311972370104,813.8794821056866 353.5021223953464,818.7321982511446 354.6151591631582,821.4310028685308 359.4620509901184,826.2719162668773 368.8526911822737,829.2501660504136 374.69141967196293,828.6820178289614 377.67386690682633,827.8339374862287 389.90979377488543,826.2677004961447 393.1886901738493,822.9982402409019 395.3124420334781,821.9998960356035 398.9079031904226,824.591768744106 401.72764717991714,824.5054018754738 404.6431172203751,823.2291706163024 406.59884474800424,821.7428202585277 411.06218758281244,821.2593710500465 416.5134040756526,822.2133455813951 417.92886725802555,825.3597499993681 418.7822047880224,825.9257440861884 421.6682537402742,824.6060650469213 425.9708481221428,828.856192954737 429.5733813585377,829.214038182572 432.99286166904403,827.0844923921005 436.3488094221391,824.1538564451431 438.2467499447816,823.1964096784991 442.2349782506808,823.0194861403431 450.02366848843036,820.4389892153931 458.7673203068813,819.4516281293451 464.3126267025497,818.4074199438204 464.88387941601553,817.8496816525233 465.18823654972704,811.3551423385211 464.85368715835887,809.432087947687 462.7871158092887,808.2425978923063 458.95424535903993,808.3522509060165 457.26797953980065,807.1753832652198 455.0409626979509,804.0728858998723 454.05469869664626,799.2486123285189 454.1452069750415,796.1303794047989 452.30686262166444,793.9880803817952 448.18033409061604,794.5461903307546 443.9224147167895,796.6830116903602 440.8067121883842,795.1069462065739 439.5929542262627,789.7150208816782 440.22948951751346,784.5801487515455 445.4859621266663,777.0534043864955 451.8735638873771,772.5193094034579 453.4339722636009,773.0858289719297 454.4281335778,779.7783588540367 455.42045402361737,783.1869050841547 457.563046474397,786.4610167338813 460.8210189727595,786.4661638834973 463.37215431117016,785.6208805532377 462.66382243339933,782.3550402984895 463.2154569306451,781.6659305297046 467.3427163392069,782.6464462280524 469.35552006753994,784.7559302829962 471.21555426558945,785.9415116201035 472.75209204588185,788.4800552915042 475.5838459200118,787.3503155748099 477.9898691774184,784.938729088737 480.6955040596727,783.2346410700046 483.68608083450414,783.2441736112012 488.2225441585409,785.9581065453003 492.4394029416845,791.4728782958673 495.1772627845958,793.7901928616909 494.9052051510274,802.7419824905616 491.7753192488668,804.8760713929555 488.46195118577447,808.6070174243441 488.0762531556441,810.7916127795964 486.57461005057513,811.2939990789436 484.57856781248347,814.4319537572275 482.61312437198023,815.9631076602651 477.78791579620935,816.7998082690546 476.36140727014003,819.5016670886713 476.35711997990455,821.491494254752 481.62037803004654,820.9384731437598 484.74422591370706,821.0806955450229 486.44577061341175,821.9430007866348 485.8785476241634,826.4886186025406 492.692628711103,823.9481086844946 493.07063957163666,823.2220252682242 495.6273176259787,823.5927382060615 495.62523285595,828.9266648912898 500.3202233142401,827.8711352116527 502.6639362584984,823.928947868208 504.7100359274509,821.5729089943926 509.18495830869864,822.7813837921096 514.2287578262865,822.5821068947243 515.4949435836186,822.1195065057843 516.3290840649215,820.0432731581992 517.8877727566382,818.1951401568344 519.7353708591123,820.4759826331297 521.6725381958006,823.9046692891803 524.1475269791604,826.8606658058799 525.9815205773384,826.9520502830354 528.8213733049708,823.3727606450003 534.7739090857364,818.2392488229739 536.1326687056256,819.5064985477372 535.8975406804345,822.8825418407374 533.5179386013857,824.7746196696477 532.5783936023713,826.3184210866754 532.7397398772295,828.2312100944084 533.9872296174838,831.0266552198201 534.296331301418,835.2695665065187 533.4147729830139,836.953227857716 537.5756068579112,840.4789370886414 541.255278595458,836.0034615690472 543.878391701854,833.4972674518104 549.5620674986458,832.0788161462655 560.1514064036776,832.5937051849413 564.279487306412,835.4399713871605 566.5510117071882,840.1325263679875 572.9530299522229,850.0770550135188 576.6502871541084,852.9179897948012 574.9503475907172,865.1487642210446 576.3738363705465,866.9998362124036 578.8680881381433,866.698222446216 587.7014654781407,859.7350705730908 589.8576670721931,856.7103734496363 594.8285964424039,852.1979542759791 599.3171673517305,849.6080977067794 602.8157122582775,848.335538764857 607.1652159300467,844.4058096313132 611.3416941824456,839.3888148784722 616.6683178260517,835.1060830306724 620.2254819693836,833.2344253406186 624.6260993276703,833.7193011037558 627.0702857438538,836.7965415644197 634.4772311179479,836.0721401265532 639.6098681000492,833.4980226376849 643.3162056777768,831.9327084295352 643.8994160261504,827.4994981277683 644.4510254074472,826.7590495615409 648.8055908165607,816.7134564690415 643.8930826742134,812.5931327808712 639.5493108981302,807.0018236955526 635.7986123414657,806.1512706988539 631.3814966623007,804.5464360775039 628.7231116229319,802.1973879654406 626.0426515749028,796.4345517976633 620.6586675237448,792.437966242311 616.8797473183309,793.2205071747917 612.9626756471358,790.7524680257883 612.9672127937268,788.6155603856744 616.7388048596465,784.0033587405344 613.6818880136925,781.657533453931 613.8205796743226,773.1126114938368 611.8713547483277,771.5193741462372 610.6568557879857,769.3685064681949 610.1246647349636,766.6781568003468 610.5796836153614,763.6271179424244 612.8181401906537,757.7476527121128 613.0571629490148,755.6482126161734 616.0470300034773,751.3148075144039 619.9623874374221,749.2841083053266 623.2254577685227,746.9073612943605 626.6188458088369,745.7390176488624 628.7730109629877,742.7326989000084 631.5782932827702,733.8112979984223 631.7607280566455,731.3137878536102 635.6859172852485,730.1165492015548 640.2416995278306,725.7831627299521 643.568857436501,723.1726617714686 650.1790935111153,717.3167458917052 653.4917270886182,711.4409690490891 653.4186186519889,707.0043566269765 654.1845814756931,702.6373927714163 658.6462863194776,701.9408494153731 662.7371232425444,700.6325543568267 669.8176534711772,693.6974472405063 670.6091692190388,692.5689054823702 671.2590122523762,689.3286136124974 672.6350796798405,688.0246060114125 675.5412249395297,687.3103348223765 677.3060204060404,686.0106239056341 681.880554104813,679.8032418348538 684.1965049113317,679.6469635288688 685.8962648999409,681.4013012951297 687.1634381658781,681.6147130969476 688.3399603769105,679.9176707571787 687.6112715089089,678.1915065297645 688.0365807805832,675.9040813200352 690.542519354348,675.1864990703727 698.0188537910464,675.8845418832816 707.179433774205,677.9562257896721 708.7186656069194,677.5997794392492 712.2499068939256,673.0809829862535 715.2443416669912,666.0661190689141 716.2271135859695,665.1308427636767 722.5962502498631,662.1883242133935 726.2662699047065,660.7269493717774 727.8144259073458,660.5604588284466 732.0079258715646,661.7874726795949 744.075704076323,672.5059066330457 745.7578498195036,675.0154681176427 747.6473480529858,676.3818684717452 750.3215848260861,677.2000445465666 753.0090148870459,676.6735841937186 756.1227420678041,673.6856308155604 758.8971382955092,668.9679258616195 761.2038494354744,667.6732623844392 763.6739675922114,668.2897026646754 768.1840973185708,673.5280102509033 769.5191497475539,674.1322850255758 772.8316698242309,670.7568169000059 782.7823804585584,668.84041357856 784.107909781943,672.2302641074698 787.1404732227614,672.0535121027555 794.147322153121,672.6222846768295 797.3102008899629,670.6765274516131 798.692012236912,673.5811402523517 795.8441239174306,685.5212565555761 795.6627425008365,693.1059478099578 796.2287387246712,696.7058088992594 800.2105622439872,698.8040284015502 803.6172838776578,699.9515130787644 806.6955843802374,699.3587645612636 807.9917180578371,694.9019555938952 806.073384139419,689.3345422384776 807.3963070609344,685.1643522829622 805.3247724998856,680.6028491612789 810.617592641706,673.7926420596576 818.6742016865397,672.7912066275045 822.3527594482458,673.4367624204258 827.8396530435007,675.5419439492889 831.6818234067811,673.2119301208498 837.9204552876386,670.8194839748769 839.0488212050512,668.583214788575 840.3220242651602,663.2415798105459 844.2627063834975,658.2831654963131 845.8621108050322,657.0926487808717 856.7698575888155,652.4834122399906 859.720864364135,647.0811308594073 862.2444282372561,645.6055080698612 864.1480319432056,646.6042152977019 871.5414326612594,652.3373286667971 878.4396147294216,656.4769467096409 880.4705438516643,658.1725028886044 884.3351442902455,660.6851856927317 888.4208922795051,664.6918381082271 891.8527578846188,665.4124824833178 894.1615937214959,667.9080775844874 894.8917166352602,667.5514188081839 894.6473022038455,664.4074152167606 896.6690290542533,659.8101817937916 898.5244582065067,658.439814538841 899.5827118453506,660.1776570667548 905.4077156622319,657.0149298585815 911.1890249722607,655.1119682771847 915.1598330928072,652.0430279533634 920.9539247847508,649.9485739722032 926.2998008937143,649.7320727083473 928.1603264233365,648.8217373319075 933.2530014299459,649.349142329743 935.9702070026996,646.7973825784538 940.3922687979863,645.6603298787531 942.0340981801223,641.0429329352702 942.7543933421252,636.4326355757141 949.4142772019754,638.8412704746913 951.5206874520634,641.24720149686 952.879552999616,641.4690430907208 956.3784540989891,640.48727728228 957.668058052193,639.5189787889224 958.793262155556,636.4056946902547 958.1573859365203,633.3196131011946 958.2082492834566,629.0680944616403 960.2522990570611,626.2071551366732 962.8571310556256,623.5161512166774 966.0990877425869,621.5777998157484 966.8151664305892,620.5785267706935 968.992014741578,619.7752013003453 969.3940994159256,617.3319440641266 968.1085246949563,615.8278228337648 968.5266607655026,613.9132097441833 970.3817773137383,613.6366185547644 971.5918465826638,612.2594024024206 973.845792572915,610.9108818027217 974.2786719122154,608.4853046193338 975.392664071077,607.5419819786055 977.4368279822281,607.7434367733737 984.3213176297339,610.2212326932051 988.4166048923814,612.125150404695 989.5922009747612,612.2754250664386 992.9647907420325,610.6496062787942 997.8509951869703,613.3501584819073 999.777978967904,616.2488687868423 1002.6543300640053,618.4112435351485 1006.4894383945483,617.5093283539779 1007.2054167002974,618.7482692037415 1010.7754561519858,619.9015167085073 1017.892178892985,617.2599324115545 1022.0758044097258,614.2456864105466 1024.0,610.7929736113566 1023.6793090240221,608.9597188091105 1020.5058122483867,606.9688436681266 1020.6874247883012,600.6555232287145 1018.1244183360026,596.7182345181943 1015.3943503544721,594.3326791648035 1011.3032902100316,587.6155108556543 1010.2476748472568,586.599508085892 1007.9713879043879,586.0229447860229 1005.2913743517142,586.0058335071622 1004.5179134735669,582.3125586677929 1006.8134054270207,578.5865497809282 1000.058916657728,570.1863603076704 994.5724305236545,565.0611119364037 992.0706513327382,563.4238858092774 988.9901514865218,563.5244777644248 987.4528611192384,564.8973422133286 986.2424198939605,567.4025263009328 982.6484686548199,569.7967336546083 981.6578114687853,568.633992784589 980.3868152352984,565.62889468655 974.5826277910061,559.5272854221548 980.2889416128222,556.4937791697446 981.353862940254,555.3251944972792 983.2961354291032,550.1310392829294 982.6016940943326,547.8512500087836 980.0553202425502,544.5489994113749 977.4891223677436,540.0838355594034 970.6996469029947,535.6223141913913 969.3406667675705,532.2617010088982 968.8733914005247,528.7102845974671 968.7108864943074,524.3108504138829 970.3749020951594,521.4836664692525 973.4284999914674,519.8471961516531 974.6669576507918,517.517634461643 973.2294002164767,513.9489038176038 968.7711452992367,510.55050295618247 967.8126208351003,508.15570037735165 968.7942122887886,502.85878035289517 964.5399519504507,499.5746011880667 963.1256006110209,498.9107115470919 961.3866959385477,501.0186191308615 958.7688748283197,502.00750327045154 956.3479645366613,500.72638780795074 951.5420913119617,497.41112535367193 948.7886690113035,494.479628462574 947.7725365723618,490.64581290837015 948.8524555192839,486.9019663126559 947.9815653359133,484.9775118271287 943.5429613369334,482.86306329775823 933.6773184022504,484.6905354385311 931.3306163315917,482.08384903649966 928.9254151731827,482.27695333388215 926.6097716783498,481.6908633205108 922.9799096670376,481.6376729105375 919.2176163257822,482.5544806190756 916.9331659061323,486.08690786512267 915.7352663484455,486.1432787576698 914.0810203033053,484.9226868565829 911.917816568174,484.35397882116064 909.1776380506818,486.4086636861436 904.9204063602708,487.66680735748406 903.7721358994685,484.9847184257862 899.7756654189342,483.73927399309184 897.0542785820512,484.77040508992 892.9316249676058,482.87327628463464 891.6485714304928,486.4676499142231 886.8756992340844,487.1649343157079 883.5755037968029,486.8881672627287 881.4819843984471,485.56650119359745 883.0326608408925,481.9066471733897 882.9037561611532,479.43404810758835 884.6425053489272,478.40258817539285 886.2236193695182,478.73027672616576 887.539180427424,478.07585904935723 888.5225054710269,471.8439623178456 887.8020612041848,469.33999260206343 886.1585938596602,467.943954382779 883.9788265180507,464.12470846530294 883.5057486624291,461.33687597723355 885.4606262667817,459.15557474120834 888.0369186227798,459.1989305589879 890.1291876501525,454.4513335188591 890.3051559237363,452.25074474762187 889.0049029346836,449.3087603991619 896.0021064294795,440.8399303569713 892.7718111421915,437.7648622781147 892.7140028730522,433.2739268830084 893.4304655562815,430.23849877516886 897.2091738827071,428.5865388009826 901.632932152765,429.8966136511476 904.1438467957825,430.2334771544974 906.1619208287933,431.9783168297014 907.2530167765977,435.2579405101871 910.4847977459505,435.21120417588645 914.1431208806047,432.30934891056467 918.2448124284076,427.9641126101069 914.2787050421863,425.9056989681878 913.2333047903294,419.89705385590844 908.1617876513774,417.02067562268303 901.476979022528,410.7829819843632 898.0178461069166,410.1676119469514 894.300356518964,412.7996044909154 888.7557140484438,414.2089040915756 884.0686677956162,415.6775564930619 880.8543398674826,417.0927719760167 870.080112374159,416.0735132055073 862.9771853052373,415.91406746991714 858.935405909902,415.26657807259625 854.6741677435614,416.0631537955784 851.3198638010309,416.1076244982771 850.841053408106,415.02692157890596 851.4418614125401,413.2909861479854 850.6002279033429,410.5875305428061 848.5725257498125,409.9685486214949 847.6119372133654,408.94441902014813 850.3802430852819,406.17377364845606 847.2873207954397,401.69561653134025 843.7844072955397,398.38260255574903 842.3572862178214,395.1097265783281 840.1678992669612,388.3272918650337 837.6198224900378,389.60145784449844 835.5145396107376,389.552850547318 832.662746555367,388.5437708647946 827.752717654703,385.00034553109896 822.9865375100276,383.3730269148507 819.8467662470897,380.62794845966783 820.7754376497982,378.7483428713952 825.3309490755736,371.20521662257875 824.8280267419237,369.4926106924326 821.0140219300459,367.68515212099544 818.1627980954438,365.71509832632904 816.4851187979027,362.99328780679184 816.1329805574318,361.456179320514 816.9682149525095,358.78749775103876 819.1203219023027,357.2940572409813 822.0444322326368,356.19805108597535 833.0669309184818,354.7007657521855 834.053547310054,354.13968676057254 835.4459581571697,351.8754740988263 835.4830734190124,350.33309145059116 837.5803951945253,348.12034917915355 841.2699434595611,347.07481930314964 846.1324970155739,347.3339007728232 847.1394734809597,347.7938928159306 851.1021936732822,346.94233156038024 853.3105837674095,345.8398037807741 857.2907356360327,342.4406696277032 856.1716298148793,339.98590248784467 856.1292288697056,337.1180495689953 854.7663819697401,330.52755516293803 853.274406303269,328.5372334486757 853.7591172627554,325.17170345835075 849.8428667440584,322.411053208128 834.0409400715278,317.0059900737573 827.6132200527052,313.21510129199964 818.8793491399514,309.1374966626722 807.3872612362496,306.9812175833338 802.9084690673133,304.41290649595805 796.2034723070714,301.84758341695067 796.7335488329771,300.02540949355944 794.0691855819507,296.9302012393788 788.9513053431994,295.86272424340723 783.4170014547125,297.45743817383175 778.347343927512,299.637705528213 773.8129894497438,300.32628004421576 765.4059191177305,295.52291618974493 763.6876451360146,293.7113032445136 764.9403685422539,290.3127114807787 766.6467598151903,282.77762027700567 766.0859072344995,278.9339132066814 764.2324722343574,277.3723927370597 751.024485058296,278.2165708851337 746.7979816393389,275.14772748716723 737.897269925423,273.59585495051226 736.737333184399,274.03274023950746 733.3045981299358,273.19888038545764 729.3524672576531,270.23565078758634 723.1748529269287,262.6419583330204 721.8904145398698,259.5447396425909 722.3105967664413,257.6345372271305 726.0072315310965,254.0651240338509 726.2548438564233,251.9536315375127 724.7721070778166,248.41266062566444 715.5478238229371,240.18813861845717 712.4108297839033,234.77536597879828 708.4808208315349,232.7137320375599 705.2164759174851,231.52654466820377 702.9577353562985,228.8424569729757 700.9200255749718,224.79323469227256 700.911160127147,223.70255599772997 698.1534325050451,218.34590615864488 697.3207573704385,213.2623587382318 699.3769494594832,205.68343847978417 696.9575077525906,202.01123048119734 693.3340336995282,200.97497623541926 687.9121393557224,198.13464648778358 685.9991495902411,193.9661669663675 682.8081603911012,186.25051025711332 674.638835552944,181.79562867900245 673.0497247778461,178.71321408602603 670.5108589965788,178.43278869821324 669.4635175080169,177.1737131894439 669.0474219400382,173.35121305221958 663.8097276874947,173.36110993278533 662.4109426768146,172.40173978914447 658.7478413521345,172.18725334886744 656.7749208340676,170.63247575752393 653.255239877416,168.6089765476653 648.8915387463102,169.00046747463819 647.3537146304839,167.7530056880155 645.0194496395816,162.09109307827464 642.6817896411164,160.28170330328533 644.4191539482197,159.25394000515246 644.4352638108585,155.1686795289878 646.6681065920917,152.73617337462554 648.0802037461817,152.5182453167355 649.0691444900641,150.85958163249472 654.1465993654242,145.22265287408982 656.9188804926688,141.0900611705058 658.3503779075786,140.89904647182675 656.8127749289836,144.18804522190783 657.1023997052343,145.61116151186286 657.9611102399767,142.87641551575894 661.1061912400031,142.73979163194429 661.3059532894074,144.983505570254 662.4949542456602,145.42129730878503 664.095786464228,144.72099149137864 662.0288625446113,148.70518149052577 663.8006568400903,147.24541450858828 664.3645911637755,145.26066526734712 665.7029839315991,145.19832954921276 667.2093054582359,147.35389715897088 667.0023917251164,148.5545463238733 665.2821288418471,147.23690324997597 664.2968513327698,149.45771405825167 665.4824551928695,148.45959488093172 666.6509857000518,148.95734054482148 666.174216929904,152.20631527960154 667.6910398212334,149.8604151454931 669.9759845999254,152.7166560461327 670.1864275775038,150.4428402689972 669.0374498746359,149.09694708487018 667.8958982299214,145.3625093892673 666.9593486842077,145.16047367083218 666.7538523037358,142.54469627976573 665.5021304523937,143.15399863601954 665.0162050424738,141.0194316220245 663.4630511498586,142.86174319813256 660.9611323172135,141.12831735093778 663.2336526012842,140.6083271713967 666.69137492262,137.27295461653205 667.1243829031722,134.2750530957262 669.4629942637498,133.27133107356235 674.7759912183401,131.98159357649422 675.9200750942226,131.02576648500553 674.0738071772175,130.01721870349877 671.5607527114886,131.0109805185498 671.0007304486504,130.05183169408053 669.4239509193736,124.20080900251605 675.902158067595,123.55594900877986 679.514926911872,121.78777704531637 686.3534814613329,122.775176246446 682.4873243897335,113.57440307209686 677.8199532447225,112.91660403777064 678.4569221081697,106.22499950089673 679.8231724078607,101.8272533605384 684.9736930820535,103.97183546365738 686.8769492993387,97.29589145879243 691.8589350945422,92.64455604661089 692.7731233926855,88.44101883360361 690.6157910056679,85.18902227672913 683.1745294851746,81.79150290115103 678.7122990861548,78.40880916414801 675.962125134758,75.27966894917415 674.1877922584075,71.4871637024388 672.8766081893584,71.05738538919195 673.282834015187,67.67912315370916 672.6054682589648,64.43570190339153 668.0998407990102,61.3305394739931 665.504297082154,60.738812871596565 662.9059710788054,49.808255610386254 660.6189187608815,48.995167537689554 657.8712005317449,49.274062887076866 655.9173568774754,51.45825644096931 654.1694954210191,54.45708037726024 648.2355026571445,54.91591204366944 645.758135718309,53.85822716714358 642.1473676289755,54.569853194222105 638.9375165255302,52.412962713118986 633.7774969939488,49.54952716291916 629.994817440871,48.441638032826745 628.8104658272343,47.66640337131423 628.5426176891791,44.307080713226924 626.3382057058406,44.3844081184111 618.8887239437837,42.76640781557171 618.134642437417,41.83153650893075 615.1192052991543,41.3987313684363 614.3398220270211,43.46514247198593 611.1254947804016,46.048934784331095 608.1823417173338,46.51614469689548 607.6260563081584,47.815688744039676 603.6043695325278,46.202589167287215 599.8555824951136,45.700660999282945 595.6043692814205,43.616285837266105 592.9087406152978,45.548850826660555 589.8251729576583,46.57615282522488 584.3552595209649,45.792506077476105 581.9540447529396,46.06768666643984 577.2953711171783,48.26167501927716 574.3658683355799,49.125961152920695 572.9670041167974,42.39533245289465 569.5971497542806,37.55473473654581 572.0079778205226,37.29723737223958 576.4427548771222,34.14121386394788 576.8476866403851,30.192923781982813 574.1554547398963,29.252070651864415 570.785275124137,25.285334806684546 569.995923540616,21.330756747643477 566.9990605957045,19.383790327031647 567.372951409174,15.460555792696823 569.7964469127259,14.123306085951299 573.5191428378065,9.098697914841068 572.7210034341646,4.22866632604314 569.944876571298,0.0" /><circle cx="588.7770745586129" cy="595.3824118832792" fill="rgb(100%,100%,100%)" r="16" stroke="grey" stroke-width="8" /></svg>