<?xml version="1.0" encoding="utf-8" ?>
<svg baseProfile="full" height="1024" version="1.1" width="1024" xmlns="http://www.w3.org/2000/svg" xmlns:ev="http://www.w3.org/2001/xml-events" xmlns:xlink="http://www.w3.org/1999/xlink"><defs /><polygon fill="black" points="711.9632240130348,109.26502254862396 709.2311714392997,106.47049993020619 706.5505902715274,106.30885470617773 705.1526376004307,110.18137693982521 700.2629383966582,113.59785047709693 694.0449283566617,116.26419955253357 690.089808393192,112.35300318098712 685.2953937308198,110.76872654151487 685.0022460805583,109.12231929174595 686.2928404997482,107.81033400707486 693.0420227256523,107.04862803170317 697.7963303089139,102.21376550489686 697.4841561709177,99.5477549181985 693.3199361239451,97.3695150673177 693.0257435617311,95.80540849712452 694.8763430166013,93.74490695363 699.596639887726,91.89945318960235 700.1973228153873,90.24303256268558 696.5821981395031,90.23381174413203 692.8159848297313,89.36595975598004 688.550318019297,90.05312792034738 687.1953552052172,88.19183523462402 684.4800856279215,87.63061337258694 683.8849941389951,84.32968357441632 679.2528944699742,85.46048983530761 673.2692282532615,82.73008016522158 670.6994462182053,79.15109036149522 666.2616589710514,74.82672723501298 661.732137618252,72.35726957833833 658.5465164125255,69.18930298273438 653.8637128106553,69.5928460633445 650.7316542422957,67.03718991516291 649.4883624229817,64.37115073276163 646.6920407826095,63.16520775296726 643.1194564781282,63.071522086616596 643.6656469540009,61.05932229984535 640.5905980765917,58.04501703890287 637.9088332662791,56.5343297566036 635.5956094341437,53.620939748798946 633.6796003255721,53.52638379917926 633.6664487546562,51.323864100928176 631.2011402934817,50.20293772983587 628.5219461491433,53.43226065798342 626.352623925437,52.73276269247265 622.172047234647,47.502616291145955 619.5664099179171,45.60442438985547 617.006783178067,45.66446963046042 616.2088194605521,46.85720511920806 616.5608895045723,52.41739972075334 613.4890137972966,53.25605097427274 611.668785981989,55.924361072595616 613.6375676112028,58.23292121525856 616.1622331407228,58.59100445912907 617.5530509494148,60.576344239526975 616.3485067229537,62.967617354949994 616.7689462552435,67.89829770038727 615.2083343633677,69.0616028430104 609.0265871924906,67.25037917809107 607.6996143821987,67.38666063030428 607.5436900758368,74.95183124088067 603.9158286753247,77.5780468967614 603.759800261141,78.7796802697128 605.7254689543182,79.7835208570408 607.4893246218758,84.82463119669535 608.5992861729774,91.57147908618947 607.495527267262,93.8838203008628 604.7744153362129,96.19603479914849 602.2025365722103,96.99987481624714 598.2302123950645,100.52073326606819 597.9249794571286,103.19035567462868 599.3793494522378,103.35179524895773 598.3251729029422,105.66506634137363 602.0560948230684,108.52895061198217 600.6873923657018,111.10367265152786 597.9707381735955,111.39595037334584 594.751377628905,110.1400864852452 591.7285246197522,110.04019531062568 590.0127352187936,109.07896997009925 589.2193751764825,105.9559217004894 586.449385950339,106.50172976915087 583.3286133530344,106.196173760933 583.2836088824183,102.72578142628811 582.0661744875152,101.31205907870913 580.009866330896,102.62195268363189 578.2484111354228,105.17026071396174 573.3130817322696,103.81932640986804 571.3060223666873,107.436029931794 569.5497894292782,105.76981320055086 568.5001912159119,106.87857381636218 569.8507746117373,109.59048549307784 568.2417970069376,109.69164410358496 566.5832084718104,108.23056107847788 565.8760312514378,104.75124288779523 563.8209024283401,102.1828362156051 560.4555806067823,101.4232564442442 558.338692620389,102.68070529420015 555.7243480180708,108.06439817139517 554.932912566623,108.61505354499832 552.4877891660369,106.65316276832436 548.7448793115321,107.77580262140327 546.0485323025423,110.96383546839843 545.3119899815729,114.85282649769886 543.7268860891926,116.85229332114272 543.482556909807,120.02385799747685 545.0805934026024,125.89526340632358 543.0172849676301,130.50216291622542 539.3784431867872,136.31313916056104 539.2240193453756,138.05706240460563 537.2573977859786,139.97019053477538 534.0170446352233,140.18059998927652 529.2455124143266,141.339621707755 526.4746458097659,143.90519841177934 526.5158922932488,148.16502093773568 528.7801833602022,153.0685708865052 530.0808747034849,153.53614558718243 533.9305963250728,152.93576294423895 536.4229935268907,155.22766038779844 539.0477701676297,155.2434784711969 541.3347278329773,156.40868566048619 542.3440759342965,158.34284364105588 541.8422477852315,163.39269247208495 539.5215088216469,166.13983274590885 540.2261932306429,171.95294479518247 538.1624487805104,174.98979155581003 537.2607891197349,179.8518654837842 537.0683662786436,184.3255534524302 540.7721014522521,186.45105290993126 541.4395414855829,189.1581679563776 540.7909807117036,192.45067695760235 543.0077676108791,193.70761484867683 545.794525960113,191.53769984945052 546.6341119985167,191.94766640742785 546.7103878964435,195.22969686335284 549.9698759598757,199.77171456715507 554.0406662743917,200.15341651738288 556.7531149666042,202.04013462250919 556.997821875763,209.3329491295375 553.2048818465349,212.1857664158183 551.323369794141,219.604438045856 551.2424454105102,224.87002488469852 553.1341196402636,226.47063646345816 555.5434833080882,226.24720178757275 560.6700477884713,231.44936051193463 559.6903145903505,236.95995348218003 561.4963898936987,238.24193060718994 561.3495198332055,240.20400235834927 558.1040767265841,243.4347552646227 556.9530490246036,245.9054391835266 555.8354954509493,244.36622064148094 554.5597385897466,246.3543685095409 553.9815429856102,254.2248830354406 550.1532740355799,255.73912509571187 551.5909105867995,258.2037022649283 555.3486558966747,259.73795584457207 552.7229541352175,260.9512323682419 550.8293984196042,264.67126883476203 548.08083349313,264.5220391922845 544.3005625517777,266.89652941080226 540.4898226162305,270.74474727598624 539.9021321381854,275.4350221104032 537.3186796159799,277.93814923778336 534.7819384100213,285.83767878712797 532.880155710384,288.53529448344284 533.6332681945927,290.9515626924757 532.3889474167008,293.51482435207174 527.4402623654363,295.61804293295097 524.1547687577721,297.71289241512375 520.4346785805163,299.1769260858987 519.2563082908764,301.9664791759493 516.4145585210717,304.0263982867757 517.7217096524979,306.47185695386213 515.1861458429244,309.68348971922717 511.8131866105026,312.9142738794433 511.8145586389824,314.9628950799495 514.309507309442,316.87252106893834 520.5474152971889,318.68002355298154 522.9922134829734,318.39620480973724 524.8368545358345,319.9172474295565 521.040119678294,320.2439510815624 519.248935645987,321.4073265291428 518.431376836604,323.63964443873874 514.3261759329415,326.51275793324453 513.4150176919031,324.57399259528506 512.0813822543017,320.4267591353903 508.78352620597377,319.6736214963496 505.34049130928065,319.94276809545966 503.92042624748564,317.6484823820591 501.2206495926133,315.9916058574514 497.9379700087448,312.8000877521479 493.86450741049583,312.03497645008747 491.9574566959712,310.68624134573497 487.94793457291,304.80057043625595 485.6740908536778,304.46024073277465 474.63947860413356,308.7653838128721 472.82898501978497,310.50041906859747 471.579701676579,313.1558818549656 468.0177813915425,313.9638351278958 464.5534449043218,316.32009092726537 464.71936544983936,320.09266859656327 462.8943518458524,322.1046109431362 461.0118191186362,325.898520919528 460.5097399659692,328.4525454564339 453.3181098022172,327.00282526103433 449.02689848855016,329.25426637699604 449.7970444735731,333.0573009715747 451.8217820536982,336.633632463847 448.04231823893963,338.34991244494404 444.1409987317697,338.7828990748717 442.3385749775298,339.86247704890616 440.4507604125112,339.22901276364064 437.59621472085513,335.198916520804 437.3568786176303,331.04452043563776 436.1461171048997,329.7452104429499 437.1014265523308,327.3106061896939 435.0729211227968,324.0618457129626 431.72297798490115,322.7808995571528 431.89550932971935,317.4864468389037 434.55310042987935,314.53566401849423 429.6971490926379,312.86241109874663 426.82588077756725,315.9017011479874 422.174945363131,319.200334477997 418.61572957933294,321.0202871106585 417.57655575247725,322.3255832690411 414.10837926956526,321.53369638353047 411.0685785826331,323.01228689055336 411.15286144801587,325.3501172558416 408.02641543825337,324.6552798662599 405.21807115972416,322.97114547555384 400.02373612338425,324.1592486618133 399.07884812885226,323.2937964073641 396.03545074313513,324.98704850225 394.7608846361284,330.21360802420224 396.84629736505474,329.78596313617186 394.6584670382696,332.82550023271824 392.7795744561457,334.2302216022482 393.9728050960617,335.94083970664326 392.3110904421805,338.8763658286779 389.9901829730968,339.5155631860314 389.1545070966957,341.88027511525047 389.8254975758426,343.4591159448013 389.2116102218958,345.85837063127144 385.64858538314877,345.24740059046076 383.3018229198972,345.57843575515426 381.0275220633596,347.02819580737605 377.7473680026658,351.3626888114858 374.3224059471012,354.00315106850246 372.2622031302628,356.52288550613355 371.04178230814557,360.7686557376204 373.52662201965234,363.1574496160773 371.71728955307,367.0042442180744 368.3653728420126,368.8160385318067 366.0266090474725,368.592638643158 365.7146086086221,366.07519246007837 361.3613735468451,369.22360116076186 359.211340217043,372.2135954511499 357.40241687563554,371.08626238478644 359.2757206618084,368.94305158694044 356.760539116427,365.9473652128968 353.46787156485544,366.00535417106903 353.05488696925653,364.7471460820491 355.33370182313024,360.0882962775952 354.05390151470675,359.3289110878949 354.1678253429369,357.35162540885506 352.9748927560657,355.02463979944366 350.60493792613596,353.6619758247923 352.70740672987415,351.1033716440495 356.3564946466564,342.9316118378305 355.09351254422626,338.7791409764019 350.18874913790796,335.16069837860516 352.0815904050582,331.8097057724515 354.4800585792954,330.80430096416603 355.08887241975594,329.40032486606924 353.2441948006194,326.8583814210614 352.55071447254215,323.1060292434771 350.7815347775693,322.1130383117892 344.04075163195813,321.56879336976874 340.8279624265702,320.6328769091016 340.66507629036863,318.9291774223798 345.7458144449021,317.98030640829995 346.9655702670798,315.05971029151624 342.93041170447947,311.4771690804524 340.29366373915025,311.7089315451757 337.35386123700096,313.1239433425968 333.62835222587427,316.84139671075127 330.66776190036336,315.3458800702948 325.0672641600415,318.9182201037237 322.3712015116389,319.02515906343115 320.8263057647067,315.6065810179841 317.6871100440389,315.7055962557398 315.5363090283501,313.49584492175245 310.52736646539347,314.91458435659604 308.87151682286765,317.28353583835803 305.0731097961866,317.5548284094841 302.32027702321506,318.5926559534396 298.71070566071813,315.60812248472223 297.62421123399434,311.4485723369156 296.0990132579034,308.70611536129434 293.9214983989713,308.0522178982741 293.0254568929163,305.13677180293223 293.6433238544221,303.30332987398697 292.5170235334833,302.52516413938986 288.09399770899057,302.230902755025 283.485903526395,307.1788187928429 280.7356786601597,306.9446692612254 278.6426878317154,308.32119221233324 273.97090119317505,306.1458641116245 271.32268836058483,306.42557925034134 267.0274194465283,309.03208719660245 264.61851067345015,308.90564061116197 262.6758768208107,307.02540177579885 259.93960031530554,306.03239529542736 259.82204160679015,304.75964110590235 262.93771517818493,301.00524568766104 257.5575423606298,296.8283030700419 255.4120648771103,296.65538385939624 251.24501483703452,293.9960876634609 251.5201903319917,291.675510376146 246.22057303524292,291.90461297096624 243.6831130986426,286.8369781923435 242.19156458825643,286.77845182684996 238.14851875118293,289.37601782125 234.11331818264588,288.3372162311706 231.24104758079733,286.6332891294834 226.8216197297193,288.3112330518145 223.86218118134335,288.5212360836598 222.63258972250935,287.4222380819374 218.27433900098572,288.5169388334574 215.714315245693,290.51654109353854 216.72940113187093,292.2883072447851 213.20688904690851,293.9519778336429 214.7584770523649,300.3451202310923 216.69611986297372,303.98952188183694 218.8551789542072,304.53281710645274 226.59462633576575,303.42002050380154 229.0852066365008,305.6196289182667 227.46300802835566,310.27228999913643 220.57034161573168,314.03580349906827 217.32588936776006,314.834583081182 210.45160573624008,314.9383829709103 207.7686284379283,316.4343843090203 202.73672714042706,315.1989945219507 192.4006857397009,318.39052334966846 186.28437840892465,318.9161889306703 185.1848536369518,320.41139811290384 183.7688529224421,325.68390233725665 186.25980174783194,327.33260808392674 186.44552317394022,329.69454750484215 189.89532261603688,334.4686403551407 191.1510827752227,337.8770320600597 194.57369237628544,343.0507575657964 197.34848298735687,344.1714774863801 199.30437942840257,345.89138517239394 199.8663785449684,351.26623145247197 199.02926900003328,354.34735319807623 200.711535042215,356.12381797403884 199.43406010345197,361.587368011056 204.92938135566786,361.539545594435 206.70096930693933,362.37388823041215 205.6698869020008,367.13453929540935 203.46380002484995,370.4880884940013 199.13931935642893,373.6775762053272 197.0315644258249,374.0266786496371 194.5939917548267,372.6041820591896 193.50547084777716,369.88487517470696 190.77535639842552,370.5394175911555 189.67548966358302,372.5597215538894 187.24769574585602,372.7278303939297 184.85013077599254,374.44558721850274 182.16135157500383,373.9926947867757 182.2113359460433,371.4490628638175 178.64760610056624,373.38000773106376 178.54402006734213,374.5473725269677 175.97581581413615,376.1901741962571 173.31730019952633,376.26065317676887 172.91279705888644,378.8282868784397 166.46068896698608,380.13696235352074 162.9052365388777,383.1242353032393 160.4296820111604,381.59723671454856 157.16430895557266,383.6972005130965 156.26847703539082,389.0679292228831 152.57949213025017,390.5846477294267 149.23028627522822,396.79961912239116 150.03013838619896,398.242835448033 152.48439935932905,397.8199489298469 151.7654393925692,401.3984171105536 150.13482827424303,403.070211950959 148.08003598052574,401.70438903403635 146.11491532215362,403.420238554335 148.8354573279618,405.35418919743347 148.7902790529174,409.09052754695324 150.62738247552514,409.7334993187766 150.9614335652318,411.73210895131956 156.69936580962346,414.4658486802333 154.27786725221836,415.74217309849394 157.90166715582538,417.56044525516165 156.80575319806283,419.776948820341 160.41622306013247,421.76959345639875 160.66033298593152,423.72601771107486 163.73042837281272,426.46763628397593 163.6833611806908,427.81228986610245 161.54237687892368,431.23110152563004 162.03954439196013,432.1651941345524 165.80672934626386,433.4314889256468 162.42320583989283,436.27155181823093 157.56331099875723,438.0445107647721 154.85360135942946,440.52803908481485 153.7968552462235,445.8388914028328 149.95285705737004,451.8858193894829 150.6655482594721,458.2404136651795 153.1775757825298,460.1302200292463 154.57065507127527,462.8301846307461 158.3806024314599,463.07023742622357 161.42498158667988,464.1584294158687 165.74860150922285,462.45576414377933 171.92461664729282,461.75545383002475 175.6235280830864,462.4958890500452 179.40891722237262,463.98798493162906 181.1899113703173,465.52313540139414 183.39419304323343,469.78004771434746 186.05523062644772,471.35245938329626 185.95747968622385,473.2625989027323 188.8862925354498,474.08983621900825 190.86232228723287,476.5746552825899 190.67831400756126,478.7809848780064 192.485884550613,480.5631716648759 194.50613636097643,480.76666779964023 195.56987620206226,482.8225689688277 198.83502564919777,486.1952464063154 201.64217495378935,487.07119507698053 201.64370464922268,490.17594942712515 204.29746890108615,490.61729967396514 204.9287900700716,492.562055767356 207.38760596313182,493.6780151399279 210.1895276126419,503.4168345595044 209.57945065914546,507.83768226649863 212.7087756063308,510.48799324086133 213.25803389858694,511.9689992558176 215.6534002741925,513.279351387953 219.26393465378962,517.8621000929575 218.09500813613715,521.3373586683 217.75736536338084,528.5417309424577 220.91163351513546,529.9381044950336 222.57082676873767,534.3928601206104 225.1666995655197,536.4370744502421 228.33947883799271,540.1483111605098 232.8160359538564,542.4021592284807 232.35095610203285,543.9885296157436 234.58503871770637,548.1042001897036 232.58303323365197,553.387649611318 234.7526567887465,555.5269951530095 234.67970142208344,559.4983759487311 231.38861064977024,562.1240953797183 230.17634493029962,564.1091512568922 227.06887630905536,565.5440628267775 223.68435525666882,569.3621477006177 223.58765801353903,572.3767914395581 220.8985220113021,576.3829078884875 221.60874394028326,577.9817586358815 218.8522453944664,583.9231903599131 219.31886043407945,585.5586903184517 217.17020692044824,589.338876040584 215.1201582459925,588.8886777662068 213.0551768523497,589.807845508584 207.0830049440388,588.182445955718 204.90823015283837,588.4606558685748 202.4446681195167,587.3742150259222 199.2082014777434,584.7904285319307 197.17787848198205,584.9267968881804 194.99436044943818,583.5160401940836 192.1740790759176,584.1519413877811 187.65130464344452,583.1287033995657 184.5610581199571,584.0786326915609 181.6722615382331,583.5084530674476 177.97147501686882,584.0448838572981 176.37114408449685,589.2144663516336 175.19694481059642,590.1597454544785 170.69766580362,589.4857784629718 169.59034263879792,588.5374910238359 168.81064300268048,584.3101280123815 167.75889667594643,583.1362574945631 163.51475810159064,581.8695545829925 158.83058981515964,587.5552506705967 157.2364212698939,591.7982665366778 155.23578745621612,592.9947546112114 155.70261189027227,594.5180967871931 150.9262801481755,601.7068828397746 150.96988699097525,604.1182167431364 149.50429319518693,606.4382857154469 149.0362641420125,610.6325678079525 148.4133657440381,610.8260987422364 147.2240893587162,615.5735814016389 148.1249528902089,618.259877426538 145.76213253415446,619.7384999518075 145.33067942471067,622.069203889109 143.7022856063385,624.3660659825744 142.25370232010974,624.7596563934064 139.07918206521703,627.7370778237349 135.07981883024914,627.3069995647691 130.5287960181049,631.1020214629891 124.90060579702546,631.4013587540551 123.39271952118798,630.6805478595832 120.2648233555291,625.7631439483444 117.86308449886732,624.581041877608 114.09157182221028,624.4325298260574 111.31593625221792,625.6850892561242 108.30895205945644,628.3346968233512 103.37190196622616,625.5952599726362 99.98274665407331,625.0929075113386 97.29072310221979,623.7494691041755 97.44086734390137,619.8876702367014 94.239148905458,619.1723307651806 93.27635293975679,617.6372143085823 90.3800248568801,616.8664167574773 89.03451946040911,617.6526264065398 86.75321423932206,620.9860153093468 81.15165725680495,620.9930293939873 78.44304673744443,619.9781037896412 74.96250061217422,616.5762917412908 75.01596501978877,615.0005659431897 73.419055762894,613.2459020324835 69.37077927034699,611.7800245122687 67.52063523357356,613.400239534433 62.94217287023189,612.0564123957934 61.89375167150532,612.693827516515 57.742263400367825,609.4213480155257 54.25643059343887,609.2027904318518 52.887527138041506,610.585379817293 50.277260396221564,608.3346385862703 48.06997374253688,609.5446787879862 47.00298356975018,611.9744433315674 44.50131659513767,613.1780645652786 40.52352008096242,613.6387964531825 40.33313425179615,616.365839535872 37.88311638714735,618.9104589717463 35.75078839060576,618.4933993583965 34.67831546860814,619.748355664427 34.47337617814296,624.0631569269051 36.12148453715523,623.8716591426767 35.96559446110278,626.8681894327194 33.75287420172988,627.8103003333415 35.26403348556178,631.1625121198067 34.37511002928411,634.2463639465166 37.407123788698364,635.8068592158877 37.999760859553454,637.5108182344429 40.93011545411974,637.6663795726231 41.58851438279945,640.1035073864482 40.09399465578138,642.092407799586 37.44670974238133,643.8607939354249 35.08966049495393,651.9463357113233 32.38001835839019,652.8060877559324 30.775503383192437,654.6897453014943 26.33086088914627,653.6031122498425 24.797317568899594,652.208423816654 22.714805999870165,653.6383357841784 22.349788777402505,655.4867760864499 15.582805893350601,656.1024436859019 13.05859551730093,660.5339425107145 15.98758935522424,665.9418806068422 15.312291547932913,667.0928611242842 18.152702742368305,669.589456282825 18.851682525779104,672.0082940441657 20.60936247071803,672.4697975297081 20.61859822661749,674.3786190685319 18.485143798827846,677.1900476690879 18.595291238012166,680.5151642932218 16.960363767696634,685.1539613583736 15.165742367899412,686.8384249992581 14.135009447318541,690.3144517540168 16.843256587658416,695.6681169970077 19.25597320942118,695.4624437120547 22.173438956573523,698.2400865672773 24.84228217156723,698.421794324876 27.864698206159748,699.6531717341261 29.603218217129463,699.1438708059424 32.69427117338549,700.0050237715268 36.867617020456464,703.0155259866541 39.406851701523046,703.1008047333565 42.64341566510788,701.9103480384302 47.89958413816234,698.9466694119265 50.9953976353873,698.6404342044559 52.481180233272305,699.4979474023546 53.09511135460215,703.1436834156337 57.203016919941845,704.4897923143453 60.278539958916994,704.1826169614342 60.19626186362214,702.2923832110633 61.92604759915049,700.7390183550713 64.60203841868626,702.023564270041 64.44842957280167,697.2212120615161 62.22316971611572,696.2559717711058 63.82988626576925,694.2568677658858 64.34553907588233,691.9559777849958 66.50570969814194,692.640905256156 70.3527928339601,690.863811475303 72.75625100162918,693.5248237623 74.47370535499381,692.0435118104845 77.46735400915007,687.3177481447572 80.26529591471224,688.0880122522441 81.42183228620218,689.6493373383473 79.35271621667115,692.4130318474643 79.26523828787386,694.1863263351994 76.62731833382718,695.4729325986357 79.2268641349601,699.4794156723365 82.80148382209998,699.0991247821808 85.71856303280272,700.036618979658 82.45224175098119,704.2007184663164 83.35151757436714,706.4073563732394 86.52674589375184,707.6696813988564 93.12552708407172,708.4968432334018 99.41308773333736,713.641145976358 98.38957895656199,716.5001972173394 99.41614145504002,719.4943244609786 102.48578421397485,722.498413398484 110.025385990408,723.1256209918772 112.73562483560083,724.8320222779705 112.19911320635165,727.7532454765598 106.27326017498496,734.2828000316765 104.23014890438533,734.768299185642 101.9173221675836,737.0241518053622 104.86408049906532,744.6736173057666 107.63876241352784,746.2375713534473 106.56077604807678,752.825739322516 102.31672327726355,756.4999551155674 101.76533582605978,758.1208301992077 103.65652665670223,760.6793564278321 102.54702405689007,763.2393291058709 99.4817494550166,762.4129946653838 96.47684471164956,764.6353115091831 95.67271593493686,767.6772313279213 91.67882498269809,771.480801223764 89.13601641812288,774.9627155154573 87.36347807424812,773.0767584186788 80.40289975602248,774.6496690742295 73.60889845235889,774.5409243217011 69.45224138905517,772.3470706741105 68.92403481989675,763.9568492891683 67.6672502094674,762.7532832208824 67.95019207057602,760.3930757683634 66.42741234204827,759.2769102593708 66.19933481655364,760.9459181771064 63.8894342803916,762.4680483871336 58.37032277304119,764.1918214815707 53.912233908920456,764.7806557425595 46.59845749868217,764.7507664812983 45.88675636612256,766.1820264164871 43.60342211720494,760.1308426303772 39.71874349977292,761.040622577403 38.02539168310242,760.7771192192915 34.00823585727145,761.6837333061711 31.35967052949011,763.2803003192431 31.825242687988233,765.2948195298056 29.139398904120494,770.0629796907242 28.7494585463665,773.0619705366805 29.78550715060736,776.4841035755534 27.989767182879135,779.0913731644667 25.430567412945553,780.741949832179 21.8098594628564,780.1782177067215 20.64667794176821,782.2100920053481 22.716779335646553,784.3941731838289 24.290111472659348,787.90097229295 24.870385932861282,793.1440234478335 25.778589654677898,795.4066520001522 21.315841745820624,799.8808046745805 20.97814571190286,801.382775582497 22.56491020888075,805.2630445872041 22.070786931048374,808.3647288842383 20.034752871078947,809.7895999919926 15.882280680799754,807.8184698374265 13.141217614118464,809.807041873566 11.930686623984448,812.1180734278812 8.953839399748823,814.6388832246316 5.3321116311118155,819.6696041385883 2.022580079979266,820.5908998677971 0.0,822.7500026329915 6.934817989490985,832.1992927996613 9.103332461405383,838.8775962125565 13.009410954036028,842.448008445468 15.50314313190356,845.3986114008594 18.393076276081395,846.0293340976385 20.43020597438862,847.4903886978095 24.43536999401641,853.1736847303414 26.988852206382955,853.8383927139909 29.635691897003028,856.8229196454383 31.844642640289745,856.9214219681069 34.47562213354698,858.7671895770617 39.801857740064385,858.8894055568195 41.93786993379037,857.1231858710539 44.790136518693224,851.3058668619283 47.89608896730685,848.9391483341308 50.26912634279675,848.4716044936263 54.684447061499846,849.742743592217 60.18958109854364,853.488442442572 63.072118203027095,857.4694915944913 68.37226154313747,860.3411146246452 71.74074306224145,859.5305773653678 75.14912495342342,859.7555950481822 77.70393117207955,860.88374867988 80.6056655348542,865.5064185233445 86.48400167104063,869.0815925970571 90.10115372022987,876.6784195260456 93.74193470072179,882.1233076877761 102.8993515540229,890.5663662692548 104.69678817865191,891.9374462957522 104.95041022052997,894.5720587568114 104.37900495665114,903.8374940308091 106.66580864802596,912.4460013436162 108.388345156051,914.5510016558782 108.98659216589414,916.7895698803782 112.23764714037853,922.5804665730651 114.64958972714095,924.9169675572505 118.07246272760945,926.1542328563486 122.42698552695846,926.6844748403443 135.923656664375,934.4033991567526 138.84070840058774,934.9153201295092 143.11482483706033,937.0171170861287 147.7877235990643,936.9407679149735 149.75933931203602,936.2529179989999 151.78374611939915,937.5863212301945 154.34579482598318,937.4795507496372 157.698552511543,939.2521113470988 161.22099426327196,942.3225731987762 167.00212817036982,938.0803526072174 170.35960744188765,937.9878057133692 173.75263252178127,939.8017766653618 176.90578507005694,943.5480839630982 181.56293361857976,945.9961369747269 183.96381909781613,945.2323762782353 185.47484407332084,946.8037694211199 187.74054813304517,946.7312624960659 190.45113873380726,944.6679275217865 193.25299640806466,943.7142489065077 197.3822712497104,953.8795598340464 197.56557711671113,956.7008666257851 199.28351230524785,959.2911786497126 199.4717158669745,961.284157366294 204.22889109735152,964.4993311718165 207.88468140945432,969.4249115311371 209.73079886276918,970.028058331047 212.72542832209183,969.1804029614569 217.83295537831765,968.8362892788012 225.65321434451033,965.6906390140722 225.58858445136855,963.0062067629483 223.04683028666724,960.7853523977059 221.83339349416352,957.8937353567432 222.03954297689276,956.0535107282473 224.74250594549082,954.3404078573034 231.32958161054626,954.477784659823 234.18993679783756,952.5082260641149 244.5990857128615,938.1586002854076 245.9504646829623,936.7011962841902 251.40114364694338,935.7814150149461 251.77249291033812,933.1989291933504 248.22293066437584,932.0912135830071 244.5304642411386,928.6612833432208 242.5788086225228,924.8376961128521 240.12997148891813,922.0508809105369 237.83719450408017,915.032494058597 238.93758733605705,913.333236180993 241.7210126982167,911.5604390223008 247.56547826895115,913.670763733568 251.27784318266458,911.2097873779086 254.5717589265827,909.942242474294 259.4686960765535,906.1350134931401 262.15636556982065,899.7850168617574 262.0808321385218,897.0722423060788 266.46541784881634,893.9500009768886 267.8086013853179,892.2655838811676 266.3734872488104,888.0290573894493 266.70702269005585,884.0512317375283 269.48521781500733,878.2946497660896 272.77960412339155,876.2719609552402 277.5017882092993,876.5282570435912 278.5865145658404,873.2362270014248 281.03359150523727,871.8814355664313 285.33020296957085,871.9750685748076 287.26593459706163,873.1661317892481 290.9780109561201,874.1082825708879 292.8388617584015,877.3256369814828 296.43117671225025,879.9515703496373 299.91892892436846,882.1720047028252 302.8639135344182,886.4007284888975 307.0021270620103,887.5143243088216 306.4967522773026,891.5719653507957 307.17599211531723,893.0113751359979 310.21657408878696,895.2135215290728 312.6617012349343,898.9480303621408 314.4395434798893,906.7285474426436 320.1000096217521,905.2065643662415 321.2857782497888,903.0938239166369 321.19307775944816,898.776913644996 327.4465080119932,893.2702728715287 329.8161050692761,893.5258053495452 338.1954711832257,902.1455132523732 343.0277786057236,906.4449261997007 348.78841359688147,910.7483803340558 350.06227332216287,912.6933795840447 354.0394971052191,910.5621612709513 364.37415914350004,907.8256278268959 370.64250950913197,911.02744789009 371.66343907649735,912.8857331012854 371.9182951586622,916.191165671002 376.2632870890742,919.2595282679919 378.55625353726737,919.9467185745059 379.7440114733694,922.251962486236 382.5906768109399,923.3615018649378 388.17641491099084,922.6703864261297 389.1889887992074,923.7721627608967 391.2257344815122,929.951817614876 394.69142274648226,931.9813290280944 401.19383585025025,932.7408255878468 402.96763984265704,934.0925440093847 401.366467352714,938.240581840759 404.07390429736427,941.9669972116952 408.54725981631356,943.4930001095771 414.4611744026728,943.414176536963 417.747256969511,942.4891438521713 421.63689547907967,943.5088669396317 425.0938216274807,945.5469594162515 425.598762164815,947.9977574785396 428.04743041017014,949.2655235958667 432.27253901971557,949.6988374086297 434.21956177767765,951.1351741084222 434.9770020879198,953.7655170679461 438.44045223663045,956.1345903184397 440.80844301390835,958.8399671327113 438.69305010300343,962.7350735582767 438.4459748900029,965.776536855626 440.889580893596,967.4682487422223 442.2479539921787,969.5071791005448 440.7300315643876,972.9760282641304 445.1304295756534,976.2703833008246 447.4991432953041,978.9762769963337 445.37781886919925,981.8572917200219 448.6812802796174,985.5812343812876 451.3862985673839,986.9350611897559 452.4869080870749,988.4525616840565 453.16813312226066,993.0210111485602 454.6903976572605,995.0521142141395 458.4128811988417,995.8916254909283 458.08181660308287,998.4254471354603 459.6890649623812,1003.9296910473265 461.81206024539904,1005.3580497057883 465.36932501490855,1004.9302434107891 468.08108820922035,1005.8480813201439 471.8159732253232,1005.0808827809723 474.78019877921747,1008.4477619432658 483.26394532275145,1007.4014345299045 486.49310762436994,1010.0980781576554 485.6461943703996,1013.9107604896119 487.0046226528391,1015.3385239796626 493.2799557738158,1016.1682922254465 495.82548861249387,1019.7053466806456 498.6334958631685,1021.1311879160133 501.606861927063,1024.0 504.4869231552771,1023.0532401650763 511.0103547156749,1022.9516072900028 513.556272407697,1020.9943820671863 518.8134409018152,1022.5030880266277 521.0162332606673,1021.82638918102 522.8741099489698,1018.6061675526302 522.8740601801701,1013.0203641926797 519.4850733704307,1009.1424331448318 520.3226343612982,1005.9202245023982 519.0572325213426,1003.5515226654287 520.8312706687664,1001.2639322292321 522.4404799141287,996.6947409614926 523.8744060279364,994.6614469075057 527.4319986825226,994.0647484075668 534.3629834260562,992.1117161034997 538.5040950532965,990.5067914159165 544.3303658715334,986.2704652567638 547.0361772970472,981.9537475264403 549.8210686835799,981.8950435812765 552.1097672779651,980.7324114878759 554.8017323906722,981.5736418496384 558.2335379752474,978.674454314054 564.9117937039263,974.5923259507083 565.3750484163899,973.4176124572797 561.1290615341902,968.716032787401 557.4766582967534,963.0900268106642 556.2424943264461,958.995500059247 558.7245195576678,951.9858733952757 558.6092579165083,950.6077276136492 563.4262910259945,942.6028472946437 565.4550307662801,942.5860688762413 567.3881305068219,936.1616627264376 570.6615705659475,933.4484679305544 574.0696825686218,934.7523250584889 579.2467183014074,935.5805736102334 583.8950771006503,934.6216264858264 585.1693541475279,931.987789653288 592.352463405824,925.9982868807293 599.0396034308383,924.8247790102561 606.6194721703008,920.453408820503 607.314500920003,919.3647163217767 606.8846852893649,913.3795078386142 607.9805628349874,910.2267060904736 609.8738938017477,908.5729473759527 608.9009624357267,906.3788951889858 608.5444077498356,900.199945611213 609.007340477075,897.1645281002728 610.9933821057638,893.5881405685844 614.7275357143737,889.4219388760197 615.6102012844294,887.0228036852803 619.1749026952793,884.2403670406507 620.6985407824093,879.191593548361 622.9673653654291,876.6427449548894 622.757918820618,868.1837103139846 623.9110795866126,863.4313862853846 631.9649706563212,865.8584881973098 635.6902740991172,865.8483986255828 645.0967205304672,869.3845603917146 649.7567049021052,873.270881549981 650.6931627517274,876.062142122903 659.2325131361434,878.0772357808231 661.349027077008,879.0926896322665 663.8837756391249,884.8476162090795 671.9110517855312,888.2411850541004 673.2595222265165,889.7650188151226 673.4300375258939,892.9002028744125 671.4079790251678,895.4330688876036 668.1124507725367,897.9732048225424 667.9459087201125,904.0631424608578 669.3026638779232,909.6526671165182 669.38794518437,912.1877828853914 671.6763370296337,915.408470894423 677.4983132565183,919.7311342458064 679.5221649173889,922.0179151269001 678.5109474003881,930.139705681968 682.401888409926,936.1609204387639 686.2764982367445,938.8807672643566 687.965041524953,943.1924840945168 690.6597992880501,945.7451955413803 691.0892253497611,947.6022831454486 693.365160149805,949.3020630737071 699.0333986826624,952.1536146924543 699.8180879970213,953.1651974731698 699.0893212064118,955.7145592193918 707.0246974118181,959.2405791299564 710.0713259949556,958.3079731100449 714.0725925098883,952.5193840996977 715.1824801451494,948.4109843361956 717.1773785306144,944.4977723994034 718.0130864070846,941.3289250657542 724.5449667909004,939.1568612523328 725.6980788517941,937.8949382010071 728.3990505283031,929.2605778958762 728.5497883998888,926.2822794614561 724.707368275248,922.2624243632694 723.3957835395648,918.8358239113035 723.6877224030716,911.7944743406309 728.2391716674284,903.3884255951201 730.0825348113058,902.3201025624905 730.667853000315,899.657663478135 736.0793638694371,894.8696019977579 737.1119947587667,892.2736938539864 739.2714720268924,891.073689053429 742.2186988935753,887.2863896122988 742.1027494609333,884.4315869313618 746.456404102967,879.3135514191562 745.6490273232541,875.3159621254987 747.3684262760336,875.3735347506936 750.3584904414492,873.4265719870134 754.0300414235065,874.8355339823758 752.9382145944309,872.9233246592544 754.6292917814213,870.5202642788822 756.6530348492961,871.7998465074818 758.3878040913892,873.5317007410293 761.4846521122427,874.3141725305732 763.6153859209888,876.2148163964637 764.9874266637837,882.0675872173252 766.578098043012,884.0154118876112 770.4823553657666,885.6937847489755 772.2015632851552,890.4237029437566 774.9380934002216,892.9292510119824 778.8594520334482,893.9152274875362 781.4190406673616,895.7366782993881 794.8816099451299,909.781615231771 793.9471523228472,913.1144662415393 798.1241356540099,915.3012256489665 800.2746265312479,918.7741293407457 805.0362384031782,918.1206040521099 806.4078153895317,918.5559850085408 807.7458480614816,921.7632101443876 810.3723613182477,924.4230251604134 811.8683810082861,928.2729590194457 816.8369077855602,931.1169394918845 822.2969383567507,938.7446482749818 825.7167556875733,942.9729522954472 828.1044992466635,949.0038028720174 829.6566225166916,951.1687154032597 832.81997095105,953.1804091163867 836.0975633100915,956.2591934627216 839.2199591580483,961.0338550097778 844.5847899374126,964.480107674438 850.6925608707717,973.6049993495834 852.3177624516484,974.3727432505865 855.2690499665058,972.3036039344021 857.1070283331763,973.2284226743803 860.2157480401963,977.4128811618943 866.0569978629426,983.0153994033503 866.4809446883877,985.0370980718956 865.6378247180342,987.41257352478 867.9865499790151,988.3305672687678 869.8697653076052,985.9108239116047 871.8439720176916,986.421900528321 873.3610179221739,990.9783711774803 878.5219618668377,992.16438314799 882.1407366937809,998.1235258701633 886.3646439879819,1000.7939071609321 887.357547709944,998.7605127383255 889.3988217125778,998.4947078502846 889.6014588861146,1000.153048562843 892.0995275047661,1000.190902723664 894.2686854946134,997.6061715993843 896.3436871518372,996.8956281227203 897.3789509167752,994.551586495945 899.8332093729607,995.0238549417539 903.7728906718223,994.480692831662 905.3950613576553,992.7721580448116 905.5029127940461,988.8175343972835 903.4110859603061,985.9977591969788 905.2713632823722,983.7116817501097 906.7920302443919,983.4626572928703 907.51922208962,979.854278161062 905.7578872007041,974.9045550438817 907.7365426361589,974.7208771542265 907.4796908476535,973.445977133076 904.26165631317,969.9569644551611 904.2688716123837,968.8703594271111 906.8850355743114,967.8005830985888 908.2614211689296,961.527143567488 910.3128609595157,959.5017020436374 910.0027458192562,957.0885234834362 912.1565142338377,951.804184809289 911.9397331572945,949.1741138067572 913.4265924093122,946.1002401739719 913.361545254404,942.0339285832505 914.6006633217629,939.476102609095 914.5592796138266,936.4338199703554 915.4785071632806,929.7779414304073 918.4395580258582,923.9217098894525 913.8078736782643,920.4473671951469 913.510163628246,917.6633426286367 916.0149070091721,914.5668745851993 916.7152530612115,910.2380335717324 919.6340413564174,901.3023143628058 924.89270799668,895.6289929402744 928.6233475952586,889.9765913051909 933.669696091674,887.1036368827027 934.6680926587056,885.3109743682342 937.9465317592619,883.4810771417732 939.4362161174798,881.1648341861039 940.6362100300893,876.3246738847946 944.8646027880906,870.4184246237564 948.3717704971946,867.577003311878 949.3694231554987,865.7849992830018 953.1504887324078,864.711972751375 955.4473036194529,865.190579076157 957.5241801672269,868.4578116434708 960.5590895167012,867.9170952191837 962.5623872252959,866.3685407815186 968.1019721712889,863.7547427138236 970.3446924903162,861.1843196253576 974.410216351149,861.8891985280236 977.4152658937093,859.3121507767651 979.2240078803815,861.5744926387733 984.7535321691133,858.7014239272725 987.5513808568388,858.6647231978635 990.0609206693998,857.3558343478314 993.1279217404629,858.3326608538493 997.3950609563946,855.48276585179 998.64386120856,853.9291438155467 1002.1640430629766,851.8500218826896 1004.9905437812171,854.0959857180017 1006.2407740106058,852.2946596935562 1008.5130879514584,851.5001716162886 1010.5678465526496,853.493999329738 1011.8393735973146,853.4795264101151 1013.9115432305529,858.2212363885278 1016.4739610783356,854.3391203416606 1017.1286614376301,851.4909458984998 1014.580451431916,842.1507716544696 1008.7621872746086,838.3209725644206 1007.1171712863717,837.8065371559591 999.8380742629273,841.3224262759232 996.6694484385023,840.5005494503935 994.5991126628929,837.7422177379364 990.8014344011924,838.5590483808724 985.0703370435097,845.2422563837508 982.5509887924253,846.540265388036 979.3156381438945,850.3965500836197 976.0184382362206,850.6984349534416 973.4546223296486,848.948998161093 973.91950090365,845.8937051181126 974.9290558611774,845.3723664535387 974.9212526223765,837.6464733483383 971.4142838971494,840.9835943047632 965.7701359653329,842.7075543965873 961.9565081969006,839.132581226805 961.0630221854565,833.6220884482761 958.2463446307474,831.8810967521384 958.7088500739491,827.5256821858378 957.6905761767177,826.0639215062413 955.9233433141102,827.437282131516 950.1452373177581,827.9193418094306 948.5916726715869,834.3234551468138 946.6078115354516,834.4560717153646 944.5723515678167,836.4057534489198 942.456094388784,836.5374327115983 940.5044882221282,839.6758436096569 938.9047512663407,845.1201141479839 935.4077557344351,849.7470926472662 934.1935988460139,853.572489141636 932.4133545764598,853.6024845339728 928.6190446583562,855.1904895319573 928.124469104665,856.2205369965616 931.4534161482321,857.4294232504518 928.9392496723028,859.2527107535132 926.3957183259859,859.2883221852762 925.6185001774251,858.2917568348289 921.0248980378573,857.6009454427527 919.1581305043956,852.0511632553814 915.8517183876284,852.1123169588698 914.0832199073459,853.4128855979486 913.1225219567156,857.2395782020069 910.6125559197714,859.8265469169357 912.4719068025887,864.8712359911559 915.7652130110033,863.7871365158048 916.5573801766577,865.5593671515932 914.3022374839649,868.1384240159769 915.6015948782189,870.1412213725858 917.114734368464,869.0971194388179 917.3978794057358,870.8766305920411 914.3861586023775,873.9777550663757 912.6545281599286,877.3046765327069 913.6053024551737,881.3525635760716 911.020132519692,887.4961915696551 909.2526455604522,888.5389200900821 906.6364821222461,893.1321845157926 905.8771644115424,890.9665937753197 903.8124051528243,890.7560493764515 901.7072876158288,891.9722577514797 901.3374557053123,897.014994749555 901.803373850034,901.8776747332305 896.8233760494495,909.5890807916862 893.7952360978497,911.667480604454 885.9309614731903,913.5883736090564 882.3097210532258,910.098661825717 877.9668075322668,909.406081342982 874.2239246736133,910.2166781900538 871.0721900829326,913.7825560698817 871.5071449963077,917.0024626154913 869.5092870601798,918.6529854824549 865.0720045482125,918.2276276062735 861.5091930040484,916.6606871697467 858.6390842428679,913.702050457834 856.0157605353278,907.6737514689156 855.5098744373014,903.2028537491772 862.3318407095887,896.2328418656281 861.8951205743472,893.3452748710017 860.5094002923772,890.7605885085515 859.5625146101612,886.6905296288055 857.9125367724779,884.1148528449855 856.5209386117033,876.9514501084628 859.112857332417,869.1780853862772 858.2789538392844,866.4019958209271 854.8259522406139,864.1853864905203 853.3652555514126,862.2210797509513 854.5869792509467,860.7629101707203 857.051079329715,860.5334137870955 859.4958143888318,861.5230336428799 863.2130331280723,861.0444250624275 865.3267662703788,858.6319280967814 867.2198257167016,852.9836704040271 867.9904507586224,846.3566986144881 867.1856593427858,839.6155823015354 868.1616106981521,838.2694271446221 865.8919313267171,831.6010630034688 867.7796513878753,827.9692521771793 865.979259911839,822.54444734762 863.7670312117655,817.8605983610228 867.7260888821825,811.7563256528157 870.6023737932145,810.4868893704739 873.389625460153,804.6637277189873 875.9291850857626,802.0497738878473 880.3753671189894,801.4725408219794 881.8678215257273,791.7185969827026 881.5850442324166,790.0444832431012 882.5402321854857,785.7786708075369 883.9602975958186,783.2912624184951 884.6771491402303,778.2601834013651 878.6383654021585,768.8788966070153 877.2579063483415,764.4945510565385 875.190451660742,762.4470949326644 874.7269837879396,756.3675943495077 878.3323812967401,752.1648545132468 878.7926662224008,750.2909212417558 877.1390518936267,747.2570164666148 880.1019706418193,741.9773696522249 879.4361657393811,739.982112868468 876.6265168339801,736.7337740466008 876.7927091823435,729.2387065026494 876.0570014921074,727.1093608527931 877.889512258855,723.6068919534399 877.7983100681823,719.3896459011579 878.8622978611367,716.8409815723951 877.2534114043489,716.1696315683193 877.0096926838661,713.4257658634342 873.9779902830152,711.60986740969 873.3241532000744,706.6783868360349 870.8182801615866,702.4751092677734 867.8762622678965,699.6399587810179 867.3255282069639,695.9360605963768 865.1490687306294,692.5604182135924 866.8397934571528,678.1483459283247 870.2167381495536,675.526014857998 874.4941765946847,673.136514305314 876.756480625321,668.9404565956872 876.7538688151657,666.5095723927238 874.915926007162,662.684849459386 872.1618557387045,660.759330626715 872.3768494722782,657.7641062670707 870.9571817426724,656.3732090919746 869.221811271037,651.1598213482895 866.9179719332052,647.40469976667 867.4444613308831,646.1423563437045 864.4999213338898,644.0505161624592 864.3271370064243,642.8138607424347 860.2715161677619,641.5578823301054 856.8984926089645,638.5360684076821 855.0017977551246,636.0502914075598 853.1343533289769,635.0785892825381 849.101073032141,634.9751058717513 847.1140247027207,633.7033764592086 844.1544324567715,633.6800477121425 837.537594393272,629.6435346391331 836.7100073392927,627.9177863817979 833.6207247248059,625.1855416138947 831.5066360994426,625.9611839592474 827.6049936497812,630.8395233930212 825.7862821376609,627.6848199708459 824.6869114382846,622.1275295828983 827.7734462933864,616.461411542105 826.8435950934005,607.5725119709439 826.0993065264028,605.6730441198287 822.8950086570717,601.1187923434932 824.4119115936365,598.9912813471733 828.6146330710486,596.7005629071393 829.6115513622086,593.7046758422985 829.501759584583,591.0189592309705 828.1054856185789,588.3943103095303 825.5228007530754,585.934922897578 821.1591983371897,583.2757531694407 824.9479452442912,579.4807256782224 825.5908596470365,575.2385889505688 824.4608795092188,572.2980968199761 818.968241602084,572.8385915217013 817.0599472340789,570.9711809904638 817.8070239757285,568.8077349995876 821.9040111326638,563.1862601372408 821.059694710464,562.4695218691064 818.9439140262315,563.6858911044101 816.1056268531364,562.8903959611096 812.2997122832971,562.806832300028 809.8386045075225,559.3616245833034 808.6982776515155,558.8995093906888 803.4415389185818,561.5585495350673 799.2839227266061,561.1726156918492 795.5994417684421,562.2201212330494 794.0049673234093,561.6506919053721 795.7092317856158,556.6482721972561 795.3240713129222,554.4034592516236 789.9425673550415,551.7133071762396 789.2737609053031,549.5278161456395 795.5952730265942,546.6229877270057 796.9755455966014,543.8697224591509 800.8657758886278,543.451883224651 800.2898762421942,542.1720452272764 796.6473880581462,542.057864400424 795.1466398474214,541.2323484292405 794.2765039424069,538.9429896678643 791.3701930198794,536.8407129963168 787.3513984004505,538.1309545963452 783.9199320325484,540.4538770681976 782.537548811288,544.4608967807503 779.7411127059557,550.3365826823078 778.8860665658158,550.8735910574483 772.9269803857995,547.2514874156207 770.6399783834619,548.2691181843645 766.9764475196423,552.5633696447003 762.1339809366933,556.1888326518767 759.6789025486402,556.7207244474739 754.9359215930555,556.1823789120765 753.5968310331338,555.439573050752 750.4951130414732,551.6056948841115 749.4720314888414,548.5013500542489 738.6441442154266,540.912033630218 737.2080294136725,537.7321718993248 737.6945377598736,531.4871853985446 737.3516461305727,529.2948722212957 735.225575043734,525.2758982897038 736.1017256198962,523.6399474211537 739.7676668724462,523.3367776573837 743.9432051812747,521.5896577389419 746.4125062809893,521.5211880841009 748.001138812725,518.3610487085941 751.4099845887794,516.3490979623898 752.8145526848245,514.4102226142427 754.3066360100141,509.6570702790725 756.0207532376272,507.0639692006532 760.8951366745422,501.809071823738 761.7098333038206,498.02619108601857 765.3227780883492,493.4480079635696 766.415898087076,491.1680844860797 765.4217967003209,487.1944060452827 765.6747867445237,485.01936661399145 760.9015611791461,481.88334642193274 760.0801666247759,480.0271342177192 760.0733489855762,476.45358812075085 762.692280465837,476.41647509664756 760.9846985140589,474.1826489196769 762.5344673973029,470.6649621168244 762.1020055116428,468.2994808456449 760.1914813107139,466.15611084233046 761.8086859806814,464.0156821597176 760.2736399390707,458.58095205129166 758.472692969426,456.6441663666485 760.0194752827655,453.415282119365 759.58348199052,452.5183071980889 757.0476709241731,453.5098645139658 753.8558558050768,449.13758407352725 757.6992813387438,445.6031398257908 759.5207719649596,442.141200759738 760.166531188449,437.97065383276674 759.6526560381617,433.60508619849793 760.3657222801098,429.7946950265982 762.0137108801059,425.38868678986466 761.99692370966,421.8490442530907 763.4747309550052,418.3236020372127 759.2092788444812,418.6831674980575 759.0734892671318,415.9945194802842 761.7327873563966,414.5937611621332 762.9906152987394,415.06740039596366 764.1238856156955,410.5755275511127 768.203757676455,404.11133847383167 768.4247220955037,402.11372789266875 766.5443311143213,397.00961936096917 768.7836930397661,395.0925300916979 774.3928615492781,394.437566760055 776.6724309315839,393.53632569580657 777.8637341061404,390.2661672794775 779.7518405862734,390.25268270655226 785.7789322242322,386.86323101172275 783.4052137399723,384.82192561724753 784.9306117849726,381.3707512225585 784.4520505860643,379.64440158970353 779.7406464426415,376.15663459324503 778.0022332348454,373.1883082416791 783.2661106509131,369.2088263848325 783.5294556259117,366.91528155301467 780.8996237744167,363.2224383732888 778.3337572867238,362.4809494822788 774.2170405666635,364.6461306459415 770.0945220851272,359.8933505970367 764.3350507423704,354.44847730018625 761.5877835853858,352.68028125608055 756.3501001241576,350.7852843807693 754.5799544871421,351.29082833416453 756.971168823377,349.13161950233643 758.9911465663563,344.7045446707639 756.7656241102296,340.1444580061783 753.0909789371012,337.41467935734613 751.3570603283915,333.17708775399785 748.3358424886479,331.7340573659385 748.2354703744744,329.63334701494216 745.6956072083659,327.47759413583117 743.7073866243489,324.60060312340806 739.5456443290591,321.3122059303088 736.0661658936884,316.3821193911125 735.1223906617768,315.9732600379566 735.8186845910969,311.92537417324684 734.0598622913823,304.42265526908386 732.8798316935165,303.4687192383674 732.6503129257087,299.27922208107725 735.5865311726274,291.96903879665797 738.836850945843,288.47049374214987 739.1107206387557,286.2624737358358 745.1026734276563,280.56043923841105 749.1171693683219,279.116100885181 753.159461068195,276.8434518866867 754.8197475481702,274.9766780606668 753.5888081384871,271.05567086224573 754.8652640448324,267.26183926081706 758.7553989421378,261.8775435552343 760.6525981368187,260.4534007632906 765.7076433984442,258.4869504587672 772.0640802095097,255.16197399860107 774.5306776696016,255.23622227997953 777.5698392518087,256.54382501213445 780.2117865934366,256.1798964356358 782.062766050882,252.10569697453343 782.9170171963328,246.88696412777006 784.054272158092,246.93823913687186 787.6437056035948,249.6819203867717 795.4619362489045,250.32670976749932 800.3148987988319,249.2863248561206 801.9032740030851,248.43121266774062 808.0752009225164,247.36133145964425 813.7080210193408,248.02485268097143 816.0164253087955,246.5720501520816 818.619857044371,241.30762593892587 818.3613323629593,238.62643908078462 819.6366389447866,235.50841336494113 819.8305641441083,232.882455135045 819.0003048548357,228.80596911704038 824.3008453368426,226.92954009187872 828.7587970389626,224.6881402163575 828.7085883582694,222.3055104559046 831.9105711505505,219.76703762784905 831.1112845836416,213.16729946117312 832.4687037325956,210.93017019467607 831.6645493727433,207.25429802456347 832.3872106123303,205.10419918566902 837.8785633541903,202.96335244195632 840.255365418428,201.47088298329618 840.9673398517447,198.12530346920107 842.7175203327947,195.73866716167925 844.9302077960366,190.91392232932662 845.78136828153,187.69237828436667 848.1512252011496,185.70958424254275 850.8375351347039,179.49026052830038 852.3631448866906,178.59353783427161 855.7033959649764,178.40620687497744 859.0296030436151,177.44204951377617 860.6469269212937,173.92090554264496 865.2071042365936,170.74020660859412 868.2230671821236,170.77422248038988 870.570401386894,167.64726921969554 870.8196494333216,165.35152727681145 876.6203364324069,158.90205377108202 877.4707036688451,156.8055092685198 880.0418690189299,154.4971179220404 881.2364918152867,152.04586663225382 884.3986476290111,148.6398480435788 886.9899223440383,147.54648513933273 891.0229186054944,144.4836546910874 893.4687300690234,143.96112124937463 899.9924342466547,146.50024905968837 901.8316696347576,146.4929226844863 905.0901113584798,142.03540344921646 906.5453180237323,140.9231934305874 910.5286742724053,140.3902259372602 911.6754761687,137.37734203494017 914.7540659437069,138.24645466336187 914.6762306131208,136.49039564082398 913.12564075333,134.09110695543825 910.1758017336135,132.12086388118018 909.2244940427839,130.28688801809471 910.1031001859327,125.43566370877204 911.8797279447355,125.65266566254184 913.129322535707,123.67168868552483 914.8304804080922,123.22476888511949 918.2938076772188,120.71852268231646 921.7490291884437,120.78337228818623 921.3875458844058,117.84247632356607 923.7431931632332,115.63461826607943 922.1902228779139,115.12371049181775 923.2963786602429,113.43779587677466 922.270114165931,109.40094397164876 922.239699327367,106.56493556348619 917.8918665751062,106.42216474431075 916.4893742013036,104.52541361719557 916.5678170447218,101.95547413922213 912.0721739555396,94.4777504664338 910.1502091906099,92.28125937194227 908.5276355543017,91.76987763559146 906.3152573147623,93.62039196207479 905.6549751187622,90.53565319677114 904.5489024793663,89.36460166250322 901.8154649289411,84.2358041196203 901.3723859455658,81.74469976337582 896.4353320838064,82.78890823842721 895.3996529749364,77.65246256975706 899.453801641246,68.33344689392766 903.7232816904517,66.4076825085159 904.6820139672245,64.27397746578038 903.5039451249808,62.083942906803486 901.6622691151259,61.42831818731338 901.8145241864765,58.48389082602273 898.6442312446957,57.03343171044526 899.8256981388306,51.95633964864919 898.2010960838667,49.172502863666864 894.5822676946143,47.42304361194476 890.7539461500523,49.565000068019344 888.4747309415703,56.396255091652165 887.1434302676007,57.28291784579403 883.6876372335998,56.48211439067609 877.9730764482244,52.034685017895754 877.9017978064202,50.862251922487985 880.762997827003,49.32525155884855 880.8076224070575,46.17656909381469 878.5494573591793,43.73388360990248 872.5722676770856,40.935892038785596 869.5814197629496,41.115580120789446 867.6818142694792,42.83305071533937 863.6059457545653,43.19743071051289 859.9901521888174,41.293103097842504 854.3692359613453,35.602491180378365 850.1346890335348,33.37662202223396 847.1997068546722,34.106130772718075 846.6897345692938,32.71634688165 849.1079545430225,28.97715760991116 845.439533384055,31.096126997298597 841.9411335500597,30.852566250239533 837.401221524676,22.246484638833635 833.9034842964015,20.82073144085291 831.3147289009095,17.53903937649011 831.7483044763097,16.075888786194128 828.8925609453004,15.84763327899907 826.5471169524081,18.047630441334036 824.4148241741069,18.772321721057324 823.6807789362937,16.718716796782132 821.8476810319848,16.498658207722883 822.148558536167,14.219782664613376 818.550687648708,17.37599843998953 815.0921698952603,22.876266235948606 814.7251515499737,29.117923857277333 812.5948304058038,29.5569563209192 812.0830145352734,31.834778323209775 810.3252318400279,32.12450900073736 804.2974690554294,29.84871969920073 801.5769122781495,27.938887573255442 798.4084116010869,24.598500806907737 793.9199274265937,21.969117260362964 795.3898225430044,19.17142361680021 796.4899012861188,15.209338886101591 798.6221120152948,12.346527953927648 800.1663020548792,12.340476508776533 802.5262375589734,15.204148124928793 802.5287635800415,11.679863261450237 805.6892397915899,9.254352668132128 807.0493394656335,5.244056607739594 807.7160820359297,1.3906073336287363 805.9544050189867,0.0 799.5959145120895,5.715100946094822 797.7425966044962,5.586020867623688 794.9092258408476,4.062582132359012 789.4007501410815,4.530045036420347 783.302655000481,12.171886149261582 781.4451149133714,12.419036286247774 780.2216358074764,10.360070510027072 776.2514911540459,11.340331864931727 774.6598471500384,15.195164824358358 772.0856507217314,17.96126993174539 771.2694103796504,20.428668010817773 769.1038464578758,23.422865522180246 767.585584191297,27.911127971163864 764.9788560009083,30.85043623828267 761.7778253041643,38.073736084064876 760.6024608501227,39.234084638314016 758.7367883723878,44.24986031327171 761.6300973387852,46.90786498502291 761.4006733842156,49.790047779411566 760.3600547762052,51.522700545082216 756.4299952439592,54.184496935681636 755.2726818497331,57.53680898606319 753.0694678280887,60.07368102709802 753.1884738569926,61.22654068526117 757.0072733008997,62.73307134977233 758.0116358877096,65.68944347731554 757.4487948545005,67.76381216999744 755.0650124357072,71.26753609201751 752.2680077665385,73.89089428671343 745.5040842862411,78.61497791778993 743.1312781207375,81.91580233481136 739.813812279435,83.3196914603908 737.6602477664802,86.72427989968969 733.8924942231697,87.8994144023278 731.5313742280935,90.94517161986334 729.8367915356973,91.65152987111333 721.981070013503,91.91581170662641 721.3227112341316,93.38782894626172 721.5007517512798,97.43964906989254 718.906182799334,103.4722615273464 716.4061708280494,106.20063638068427 712.9476975815211,107.41844063431961 711.9632240130348,109.26502254862396" /><polygon fill="black" points="520.5474152971889,318.68002355298154 514.309507309442,316.87252106893834 513.1123438813611,320.2668813277337 512.0813822543017,320.4267591353903 513.4150176919031,324.57399259528506 516.2813324331172,323.015679959786 520.5474152971889,318.68002355298154" /><circle cx="651.5861045463507" cy="616.5872277796226" fill="rgb(100%,100%,100%)" r="16" stroke="grey" stroke-width="8" /></svg>