<?xml version="1.0" encoding="utf-8" ?>
<svg baseProfile="full" height="1024" version="1.1" width="1024" xmlns="http://www.w3.org/2000/svg" xmlns:ev="http://www.w3.org/2001/xml-events" xmlns:xlink="http://www.w3.org/1999/xlink"><defs /><polygon fill="black" points="24.598880271315664,197.49969475655075 23.837952978224113,202.28530704288406 22.42295932186737,206.53491829119534 20.60375388217141,210.37811225765083 18.788661672629587,213.81505207873647 17.980698307483074,217.45700296641488 16.150748217134723,222.11797435425402 14.735974274041453,224.74278203924425 11.912848891159165,227.36933852612896 9.697596475523024,229.9988549547316 6.860284559700234,234.64849155156355 2.00916764068215,241.73121080801877 0.791814377127891,244.76229802991216 0.0,248.61104328493258 0.6069229817108819,252.05469015375613 2.223482337430257,255.7033959765701 8.87525183815461,261.18718952685305 14.351201978555386,262.82285949334147 18.37819796942045,263.6377241852514 23.43469296631097,265.67670945165 29.080262237810157,269.3382285130076 35.149343229732274,275.8349360439248 37.7685985171044,279.08318405895403 41.41696981981491,283.1440351771804 47.86546032326311,291.8790016306618 51.116408972246944,297.15006000737026 54.524648531812595,301.8217525202858 56.15021153651379,304.45592226852955 62.003389395026595,311.56543832315316 69.26811990739492,320.5019472063894 72.10148355549869,323.5480553190202 75.32623420262682,327.611245571612 79.18267845607798,331.8760568850857 82.41786360812742,334.924893663357 86.24479431218894,337.77496733806885 88.26736607995716,338.38355393381437 91.68774267390184,339.2078201302877 96.12606321978997,339.22517331583157 100.97639273304603,338.43008303638527 104.40842280259294,337.6319337881964 111.47661455081705,334.41075794457356 120.1553940368144,331.0012995272383 123.98768731323143,331.01009803822956 124.47445817650613,331.3170653150508 127.74408689379068,332.3260132138455 130.4454919056791,333.0104396216782 142.93268598315686,335.8162560670554 148.70626770001712,338.013577044421 159.30355226433417,343.05745725826523 165.17854269941262,343.75842228417673 169.45743706187437,343.99701642345286 174.1897293551148,344.4685265811853 178.24455423314328,344.25859654021104 182.0886515660108,344.26376976587414 185.45106157183932,343.8265611848826 189.29524650353102,342.254630016707 193.5781690698227,340.68746650564964 197.86949067031992,337.30152287368946 199.89957815301537,334.59588458581226 202.15146624764137,332.34127783528487 205.08128025641878,327.8236619492724 205.76229285479508,325.79160620484413 207.12044452797434,323.5381771170946 208.02609616853712,320.59515995764565 208.92587888971835,317.2115031246177 209.81658934501925,314.7200075550519 214.3407014854824,310.2103045530793 217.9394300134458,307.50754539931216 219.7473667011877,305.9303651516974 223.57899413312256,305.0377248585533 226.05573629499676,304.3622189899063 230.13330217094105,303.46620312437994 234.6284483161508,303.25216463841775 238.71201506693725,302.8072719144149 242.54351385961536,301.9117028921375 248.6399588378219,302.37952437337617 253.3777325117928,303.2955675787082 255.63212367932167,303.522792234004 258.79307885829337,304.8873826177224 262.1813546433666,306.9285372440997 264.20884190112923,308.7437407418499 267.13602162655195,311.00875528335365 272.78596835931467,313.28211012929415 277.7545838026815,314.42560078457683 282.73853982572064,315.32719508623387 287.70125753303097,314.6599174852345 293.340949916365,313.7656468395819 296.50395046380606,312.1827945722448 300.34475457994654,310.60660835937057 306.8911688478774,306.08631493003395 311.42671506532963,302.0260694584342 315.72441353484277,297.72473438441114 316.85088990982223,295.9172354765198 318.8910987375034,291.85378809473406 314.8248246772801,290.4916486393774 310.97132105740735,287.5415354051502 308.0286671309715,284.1541519081761 306.44439117528583,281.6641757229842 303.9682479133641,275.5464059421583 302.39035682934883,272.1562927921324 301.93883270076685,266.950767673055 302.1680899663662,262.6572347152125 301.4931674756007,254.51040395644105 300.126805123663,247.72967362715815 300.1247970196155,241.62064214272073 301.26377859659846,233.93228812562302 302.8343508132079,224.88931572362674 304.6575155249702,219.23326690139064 306.68488258865483,213.58503127694388 308.9425446789444,208.8363165332866 310.74232433811846,205.22219967477406 313.678095821344,200.7004555305432 318.2014785917997,194.37278219373673 320.9149855267564,190.74871558568353 327.26400185040916,186.45874732781874 329.9667525552973,185.10473577727797 333.5834140590997,183.06640965880916 338.1017831494402,180.80852043319157 341.9488623862013,179.000539080144 346.9339703072863,175.60768220484852 349.87610939618884,173.7961470766561 353.72305218386873,171.99064340572252 357.1060826857213,170.86322295002861 362.0888329013742,169.49852060152915 367.5217768183721,168.81511726052543 373.6382572109659,167.90703779845728 377.02759838686967,167.90765182010057 383.8249718344162,168.582865366718 388.1304233632899,170.39190152259823 393.7869242546835,172.42358558687428 398.75756528981765,174.67450847750504 401.9245431031228,177.83740873078193 404.2012959421872,180.5454763079808 406.2415352272525,183.2595003899675 408.2706264780727,187.3250766203844 409.18244637677316,191.6240409773789 409.173741746047,195.46598769956427 409.4052209296325,200.22054582672746 409.4067772905579,202.47995127260367 409.62410660837406,204.73898237568105 410.07897763012386,207.22566550528566 410.98681704707246,211.07067069630642 414.15210282642045,218.531964794877 416.8840123332262,223.04958779518557 418.0222375322016,226.4373251647329 420.95794714231675,231.41136657063927 422.7662809958532,235.25163002864014 426.61848095092716,239.54629966067012 430.0051964036884,242.25446792250614 433.86300008993607,244.95860079257966 438.85659813168354,247.89354535509688 442.94660352719137,248.7915037178052 449.72976646674283,247.64667514808633 454.71039189778236,246.05467124113386 460.39191290419075,243.32952126100503 463.566289417239,240.38239593933565 466.0431146502786,237.6681879329811 468.99953275173226,235.39316795839733 472.1642982944526,234.71348462260391 476.4718694800633,234.92547584597918 479.649357773136,237.41035411061318 482.5938084548212,240.79594193805207 485.7773425182868,244.1807344117692 488.7108319398636,248.24877128735 490.2970215279952,251.40947040765897 493.2536852774178,257.7312833185664 495.96417337226393,263.38486974197076 497.78440828905184,269.2583073706172 505.0048085309144,284.1318277778545 506.90126506517976,288.1827439421398 508.52846239868086,290.6152760219675 509.8832861797716,293.3119165421272 511.51046260187513,295.73912346182965 512.5922885062138,298.1715208605709 515.0135234000835,302.22279713161237 518.0064881240504,305.9976495366721 519.910047874683,307.62165067453776 526.134919090362,311.12144322445215 528.0250770299831,311.65169356861634 531.5487323810275,312.4583265852121 540.7738201914482,312.9778516542901 547.5458262786308,311.60777142922296 552.4145527686494,310.2492778886052 555.401454559644,308.62072360833326 560.8139092434473,306.98864700445716 565.1573659990058,304.0020294006778 568.9551129600487,300.2108470339021 572.4663217982899,295.87949754632166 576.8117570360718,290.1950521368056 578.7108605668832,287.2174131784605 588.9922911718566,278.0020372353651 592.258397955653,275.8272907964525 595.7718478065303,273.1151820567205 600.3933848941391,270.9495866135893 608.2274512910863,268.50285052170636 621.2376887930021,264.69682976861066 626.6502507483823,262.5270095098356 634.2304219353936,260.35938835754195 638.3007811128307,258.46150469992665 645.592887600766,256.28721547980035 649.6502707299256,254.9283418635802 653.1815123419889,253.30643536098 656.697025666394,251.4112331021526 661.8393279564037,248.42957388916972 665.3582101879915,245.9925455079574 668.6085122205048,242.20801124561112 671.595379714487,237.8857285760138 672.9367155610062,233.55624912050007 674.284429255827,229.50014669647223 676.9907910807707,221.6612303866187 678.6070388915824,217.8798540704281 679.981134378228,212.19568509981542 681.5884601920397,207.05761719611354 684.2897712352953,200.3019827211904 686.731126131072,194.62823534028405 689.6972416970274,189.7563768959555 696.4765997836173,184.35160885551886 698.8941416074462,183.26892167496945 702.6749506494925,182.73379795134255 720.5403806182755,181.6503542480529 726.7423311344696,181.65160391824443 732.1595645774613,181.92488467730314 736.2150821095734,183.2782710135014 741.3477760140689,184.3628993046096 746.7481924580225,186.2611477540543 752.9460010900858,187.34519867578913 759.7142048407876,188.70181377394408 765.3901521354551,189.79093622881535 771.3320207862245,191.42017532953346 782.1345946660371,194.67105567299555 786.1814570716276,194.68029246064378 789.4226051856178,196.30569319483487 791.5824587092034,197.92918918948635 793.2119718719015,200.3680694489322 795.3742557775552,204.694551337948 795.3599228955547,209.01752919732746 796.7125515756753,217.4004824267352 797.7967946084149,221.183372497333 799.6757556897895,225.78239513445845 800.7717483348267,229.5704047019707 803.4597084326133,232.00611899658136 806.9725466759403,233.90593209182424 812.3788206946018,237.42788023697912 816.6840593288412,238.786872171329 825.3288132851366,240.4181188487467 830.1938756948188,240.16439795576326 833.4207317479659,239.63080169760568 838.2729245046795,238.5539983889778 840.9908087642395,236.93694091012532 843.1455818386496,234.78167488971297 846.3678049638008,232.6229566698367 849.0855831795651,231.00581167110286 852.867818848735,229.93486951064054 858.5189631982512,229.9471020501752 863.9295224345577,231.0410482304608 867.4362872193303,232.67201024167758 874.9886945735136,237.2795161764808 878.2236926677135,239.18015992656078 882.0053031512086,241.88997351175115 887.1293694954652,245.68578946087177 892.5209587168589,250.83149192300152 896.3070173525645,255.7077869552682 897.9198831903789,257.59937806438256 899.8126187831593,260.3070175917166 902.2435989511429,263.29023101910275 906.2853837703292,266.2691102161479 911.1377097996283,268.98014782774527 918.1588990424125,271.16005587475644 923.5662784463998,271.9820790612154 927.3431792031654,271.71741774298744 928.9693228609392,268.74672049631545 931.4022095017441,264.69834544693515 932.1943151125607,260.376093323112 933.81471398427,256.32738230202665 934.6212471343524,253.34848663758194 936.5127622599681,247.68097433223306 937.3371986451282,243.35817709640685 939.7400767716114,236.87788348023525 940.8348747442666,233.35796527330962 943.5461146422341,224.98738988441477 945.4235355052995,219.0465047008912 947.0346731284579,214.45082081246863 947.8460071722425,211.21155869288737 950.0208032726792,204.72681731816263 951.9073305369959,200.67367330543655 954.0479109616191,197.70512729341877 957.5715356246524,192.57676259859136 961.6301413605084,188.25758407416996 964.3135588374972,185.29348005832227 968.8997558935405,179.8902526987484 972.6936820133639,173.1401690405011 978.0981160995502,163.69002755726137 981.0569900065244,156.12215004529796 984.8404687058463,147.478721698304 988.0761466607797,141.26846781654214 989.157779980624,138.29283378514356 990.5168932870737,133.97437652214327 992.3935457933641,129.38462879106245 994.0158512958752,123.70762284423301 998.3450890367419,115.87293335540704 1003.2053231105714,102.90723894318234 1006.7199003451298,94.79883525816979 1007.7884535856905,90.4770116293763 1010.2357662255326,85.07585539426498 1012.3826866374906,80.74704503962852 1015.9055769493358,73.18535329342069 1018.076475457203,67.7806449330588 1024.0,53.44011864196676 1019.2634825352386,53.127217078495846 1017.3197505558961,53.54401094231258 1015.7102337065652,54.96970437079989 1012.9024201251549,59.00397669447972 1011.1964069331856,60.77376223409698 1009.4174333277567,61.341821132105 1007.6779401397359,61.059491444733 1005.9428862201291,59.76802097044697 1005.2903184055207,58.15088216266446 1005.252524441391,55.83066557284201 1005.8745021685534,49.30679899830801 1005.8550136841936,46.829613155780464 1005.4340210521044,45.474243787897706 1004.4015744760079,44.59618776426049 1002.7098611240616,43.96519557876553 1000.5990950947142,44.23323258060009 997.1149218231045,45.33083512201 992.271813966584,46.72397436953105 989.0577591367796,47.320519466993346 987.0788847158225,48.000549835042534 982.4313943929424,52.024488544859025 977.9982083620503,56.544082264191445 974.6683779750509,60.74568885685966 969.4231725659229,67.13436934603544 966.9058353550911,70.82086684756047 964.2983389038911,75.39303296985884 962.715417418869,79.6432785074885 961.1595188673396,81.25628101236282 959.5084460729847,81.42627965550258 958.3278700077943,80.70975890981265 957.497235510941,78.82188602025201 957.4541799498381,76.14861195841155 956.7654917359685,73.56805251085257 955.3524549549285,71.95243569771304 946.8105640257676,67.51195383269084 944.5245448338159,66.41217767149578 943.1406468968003,65.15982132402087 941.4864994977503,62.531002848051514 939.3465126400009,59.68691937088494 937.0021693855944,57.54711585406102 934.203806567114,55.873948672884865 929.772035947299,54.15786828741068 928.2492898893643,53.351111658131344 926.8675637417844,51.06570848456539 925.5732970904963,48.44698012161206 924.8867956489376,47.86581325928296 923.9773612480086,47.55640095202233 914.017127206563,47.30919574104297 906.5183907852966,46.96667555053068 903.618519482716,46.03566750964063 900.0227069904281,44.507621019412625 895.1938480773837,43.023013601181276 887.6543784270024,40.09963211906586 884.7365674384423,39.343965790428854 882.0080540833719,39.411081392621895 879.3301299263693,40.1836879244193 876.5837632979684,41.76191512295674 873.8503732898412,43.57623144763505 868.9770256996935,48.22301882331692 866.3876704728506,49.472048582836806 863.8932145972436,49.386583107706315 860.7925871210539,48.067953287093076 857.3032824657744,45.4808539048301 854.3478168507467,41.73821833387427 852.5262267715173,38.71856121637876 852.1825885509879,37.06970106836167 852.1875658045833,34.87898474535592 853.031768445144,31.050014387091153 855.0081534539798,24.89840504514342 857.480483272351,17.703386718657214 857.8948835318648,15.304412042431863 857.1491338386323,12.859980515746884 855.0843338507955,10.879752817289045 853.0171402107145,9.92450355930066 850.0696767542379,9.171608579492613 846.7072193462434,8.717287355407336 843.2738013132245,8.468498108078677 838.6230864175438,8.371521046993564 833.4613411463124,8.364781906736368 830.7452206167798,8.609108027863385 827.9710576035957,9.738531661431296 825.4551170937997,12.257924691972448 823.2813431158783,17.0900261268107 821.7671259172855,19.317575995460118 819.6828849404409,19.939589078577683 816.5239262712521,19.452500634979003 813.4197634877514,17.867884112840215 811.5276855819803,16.386499540351224 810.5460665798894,13.95626093737593 804.4023994590057,5.685043833209988 801.307492295037,3.3380879132997165 795.8850969597514,1.0192718096864155 789.6992307072608,0.0 786.6904918386979,0.5086365363771392 783.27721927681,2.146683098096787 777.318018273852,7.09002680982951 774.4637239386312,10.24875220872741 769.5795431099366,16.9596421573616 768.46997330257,18.989444045330515 767.4474588710386,23.208494344205008 768.1644246055,24.440109543865105 772.0387491553167,26.058495295661203 773.7162086071108,27.017716448599003 774.1877244677718,27.66894609540742 774.5308572288416,29.917974765070483 774.1874866989082,30.958830365676477 770.5768192243687,34.4132777982731 769.5580702638376,36.32219052003887 767.9726680367002,40.587085314697674 766.1245679331884,43.307993851884135 758.8961661715225,47.083481709143086 754.6081089228155,50.702102531337914 750.929038256627,52.45262753926096 743.261417802726,55.137784751611605 740.4882100707324,55.62366409918377 734.7125030739525,55.85802646310981 732.0160924027425,56.81793137105143 730.7573235530472,57.76382997986343 729.9789992773935,59.19095329699451 730.3891579968837,62.51170671253158 730.5919933687702,65.01250030928065 730.2176877458502,67.38403025026525 729.4525315835284,68.46045706620373 727.9746958921668,69.18929604259995 724.9840333107139,68.96140783733648 720.3838952439472,68.12870621055106 716.4183384704754,67.99787724846851 714.4715169126862,67.47519508006548 713.738398764557,66.54373426351702 714.2481684227502,63.61523395781143 714.3070517914441,61.38660201156728 713.3188870987102,59.23761347569928 712.5288088703841,59.8974979409233 709.6870877487811,65.498058498727 706.1012441345688,70.67175854776002 703.920380441068,73.06798307291302 702.9629110299541,73.55247323766417 700.7987250142783,73.072814618204 692.5610772390144,66.65505136403539 691.4665972570348,66.20693746613483 688.8885932864041,66.11579409490844 687.1420444767139,65.33499185835501 686.2177611448575,63.869996429355695 686.1494756795248,60.72991250570129 689.9266561905331,53.317908271519855 691.0749949474736,47.05547972823257 690.586634660313,41.29042224144274 689.4778523151934,39.889299560965526 685.3494084144778,38.462101008283526 683.7250736603401,37.469679414103894 683.3422664299363,36.68951471053208 683.4021270498904,35.124690176305876 684.729513551015,31.963530353163662 685.1552671543524,29.59926919404313 684.439318538885,26.41320145328251 683.6779642559447,24.826257803382475 680.6778473128496,21.32151712127404 679.384650513207,21.36757817507646 678.1953792117656,23.384889045794523 676.268105839589,28.28625488281432 672.8052896255291,41.789699134063255 671.4098784883591,44.44997642225496 670.4991863357808,45.419552938919026 669.073681211481,45.4648923473913 666.0465889419437,42.788818975474214 661.4336234863372,32.25058155700884 659.6301105017428,30.434944534552244 657.691889820898,29.840053941781434 656.6154943985318,29.965061500298646 655.3452723087166,30.772701169459822 654.9038173953215,32.10691756596509 655.5332128375999,35.11113130050478 655.504094321143,37.19058696596204 653.6888074215019,40.1597498176626 650.7378544636882,56.96086529534915 649.8652550108699,59.708770966256964 647.7711682458862,65.1407523302284 646.7667474610347,69.31379435643396 647.1097586673523,74.41724381889338 647.9187214444111,79.195102934614 647.6958385518027,79.95516336907889 645.4698469547483,82.16303232640843 645.5065831572272,83.22455671879669 646.5176543785352,85.6973534950775 646.2859916437611,87.26737398296115 644.8080893152396,88.01166669068022 641.1729277312629,87.96239687544369 638.7051064952217,88.4267034342464 636.8903553731819,89.91411445528644 633.0964278931165,99.13896863339909 631.1142645651847,103.25479133290864 630.0891762231552,103.4187372406819 627.4897905706849,101.28547759522439 625.7721790864613,99.64357020113906 622.597784963502,96.11423118681125 619.8973595691398,93.88416491673675 617.9942003947066,93.01762038090197 613.822930165534,92.00945214106588 610.840714813266,91.10309341444318 604.7426024946228,86.8335810528481 603.4054369945881,86.74980381085823 602.9082597276155,87.16339337930077 602.0948657566239,90.3483287867451 602.4232322747449,96.71584926047078 602.6943487110163,99.68030564680578 603.5103485889672,105.61313599087418 603.5667566275392,110.05703026610087 600.606121071136,115.49073224180131 597.9636036613192,128.34349239542377 596.559593137111,131.29017745954593 594.9716688787823,132.93588822269018 591.0606023701017,135.7681470056415 589.5302885739501,136.44650170327583 586.4194404313771,136.5984890649552 581.4927335854582,133.1528645386381 578.9069218615502,133.3554649723264 577.684387935816,133.98409457645187 577.3144410021179,134.69844566810798 577.4985054778609,136.64992276787186 577.0325070030287,137.77457347948098 572.8760042247967,139.3887930178627 570.765694171807,139.59230527613306 564.8243819807172,138.45262393360628 560.3757308747435,134.84298044655807 558.6882158915175,135.24466482534615 555.2555224166185,137.8198081172838 553.6515397497413,140.60984767554694 552.7663189628712,147.51279184585005 551.7867616334238,150.0175749744765 550.7895333672457,150.67464996979825 549.4773281340568,150.73094417442786 546.676069928984,149.53180696913267 539.4265542995038,143.78009137766975 538.370242684978,142.44664649558567 536.6729985972045,139.4683750950577 534.9538234029469,137.69317744502902 527.5319416186404,134.25361542539963 518.2916941053473,130.8162608464906 516.9497295881333,131.0533788542211 515.2886865105116,132.6465450907454 514.6440806244273,134.9126899873075 515.3380703225758,137.50997065685348 516.2139027004105,139.0452386247505 516.3424148777199,140.87539898497548 513.5833402658902,141.13296947350148 510.3574381840031,141.6733764106976 507.32276175739,141.31887643332632 504.45120319105433,140.0486418759149 501.895189647957,138.61984057184273 498.9983956816897,137.20388427974956 496.9251753412917,135.79198872821135 495.16084944481946,135.2119912130255 492.7509960237247,132.6472863169082 490.1074243601115,129.3106325592416 487.9276853486491,126.93375211411299 482.16042232581344,122.99398503324096 476.77993880740775,120.7849907504852 471.5421032486397,119.94918441102561 468.9979220392043,119.9722463160318 465.5153726647374,120.55561606124905 464.3003869034477,121.72524522033771 463.4686944030931,126.18965518862072 462.8207652879091,128.2512591425642 462.20462935295694,128.9636332107901 460.216689681067,129.93715877229894 459.2473593981092,129.62970012194936 455.5312820100487,125.3840399774488 454.6282323556655,123.21176777662262 454.8222065176611,122.33549243681807 456.38841373748573,120.57945143203179 457.2625801107354,119.2554071598982 457.3784158077954,116.63851744104687 456.765616970938,115.46573535508406 455.36123195011635,114.8989509906973 452.305504901115,115.80796183123292 446.5375950238427,120.26278448209138 445.05120863670436,123.39826270956218 443.7604687381478,123.48560401536957 440.9363289072471,122.08660346785933 435.32744795121954,116.8214152208246 431.30968364916777,114.98519690117047 429.387312266312,114.85306655391906 428.57606776041564,115.54953250225503 427.786969391243,118.63522790285776 426.5810966279818,120.46034611515958 423.5879186016418,121.53806086334515 422.13945246725024,121.46025583937674 416.5263184275664,118.66394780685388 411.3619181948002,117.25511459085786 408.78189230314473,117.03384850364341 406.68277679981105,117.3633611954138 402.51787118653186,119.07591800544148 399.3810348705847,120.16864944956163 394.53578753194205,121.00648839199405 392.3044631770081,120.01287729823565 391.8882322247008,118.94341416530023 393.09327476179635,115.55200816337023 394.3897215763992,113.55586121991445 394.6175927570513,112.10567821864964 392.79930561757755,110.62307523111613 389.01236870189604,109.34057154395913 387.0098780775232,109.27829267953257 384.40570205683247,110.14304151701108 384.1622385695873,111.1447312796654 386.030093734437,114.02058675985214 386.46870353649945,115.36586763329362 386.2211447984148,115.90829673046781 383.50898152726654,118.01443794238827 381.92744862308007,118.7029225162878 378.8196316137343,118.88698717521586 377.32347130631877,118.37949384813493 375.5029536349922,116.732197302201 375.32451351646785,115.74436037928552 376.1051595696777,113.50857708562472 375.8260460730487,111.95396845826357 372.5036650267196,109.21512201830609 370.7239415936947,108.99297478684147 360.3440555234206,113.28433370507508 354.5846621459896,114.76602731763825 353.43163921130923,116.08560682001118 352.8900362211001,117.6754912839921 352.69188717785926,121.28904464346769 352.087396348389,122.86121174187602 350.71561041057856,123.79617349055522 349.1620117064853,123.66102050292884 346.47270868974294,122.91497688411329 345.14327090371995,121.71204678715182 346.39908414473024,120.60879653939529 346.68810861047234,119.87202063313734 341.58401898746854,116.07949709679622 338.96817934840396,114.76685436631817 333.6874407491788,112.95194672032983 329.936028282732,112.7115492389594 328.03240593838166,113.09085396240235 325.28621042993973,114.2676046756041 324.1925281793302,115.3579059539033 323.0008338406016,118.26290731247764 321.6612712651024,120.1982053414958 316.9484234408232,123.09042965984236 314.4231617575176,123.81268346821759 309.64796028360394,122.32755947783826 306.9231020649551,122.7020158889587 305.5489264841232,123.64208108943035 304.10711218687334,126.25304481513777 304.0898859464733,128.04804597896046 304.9933917430161,131.70222653365954 305.407969208317,134.3727796579192 305.22148054800425,135.66299265164 300.6227129934009,149.32723050312853 298.31959325384605,158.87671974900067 298.1701758031738,162.8904172009735 297.3333544812821,164.8080924172639 296.3323917441914,165.23590835505297 294.0230100883561,164.63813819179626 291.47624193039184,163.81259714261768 286.36210508752816,161.49532926777295 283.88607804936015,161.4333870400774 282.68266574616507,161.98602925440747 281.8674427660226,163.96442137967864 281.4524155323414,166.7152830525635 281.12936902037814,172.31366663591768 280.38815223796735,172.91046813517676 279.8111033007783,174.32276803652147 279.32885071636105,176.56743748530664 278.624104720536,177.6310109930389 277.3263764644088,178.9336003705152 276.29253654403504,180.70784462738098 276.07435951020307,182.07013736960363 276.11409447793636,185.00332401616805 275.66831164573944,185.31999206585948 273.54859180614665,185.8876502037554 273.12163972176126,186.91027624944974 272.71057666689586,186.87867031619464 269.3365864160952,184.93575275116905 267.20332463717375,185.87523638831215 265.3019637290963,187.32397532119415 264.8114956426396,188.9713567578237 265.0657934608437,189.59183541688105 266.2981595907201,191.1708140786348 266.964223833034,192.56097339002747 266.97997828640405,194.41391432306554 265.79172739221787,196.10258235679495 263.16783679103713,198.85932630511087 262.3341824835903,200.17946326944534 262.0003151552893,201.3999320980609 259.52989097655274,204.01650740287013 258.58822441493066,205.760222262312 258.56274666597085,206.96856400529106 260.1026091037463,206.91594806039387 260.6067308668813,207.6525347008848 260.197952261276,209.34127967359692 261.2996558790689,209.48572050631824 261.9710044012532,209.03063523389432 262.83835622526374,210.2056938567516 262.87603384063505,210.76272358246334 259.40633128342307,210.8573031049533 258.8795858213501,213.60695637989699 259.15742867326315,215.97407374561652 260.4838765545673,220.5678258217971 259.77155960047725,228.83163377268215 258.8458410399303,228.66622692375785 258.13328593287804,229.16698989208237 257.662006970833,230.0096431053272 257.78987660991623,231.06193094130498 257.5635197540082,232.51723011149932 258.9007919365811,233.43375479643737 258.4333897731199,235.42594432253009 258.4420236949724,236.75595132199004 258.9662057473765,241.38971911014565 258.5098500428672,243.34193425125582 257.8822439388514,244.12297288497885 245.55337263566327,254.4756743087326 241.7326716842332,256.1251801427009 233.89529458534602,256.75313780569155 231.55401312295257,256.0702686141585 230.68418510865533,255.57745902297415 230.6655498683978,257.3087148704628 231.32812409985027,258.4414752622511 231.36110293277136,259.34636168504176 233.95921921291304,259.2771117133335 234.1692015974432,260.4026441308912 233.68197617745722,260.75695481086365 232.41120180447047,260.3040255067972 231.58015629399145,260.28327509198505 230.97732253610246,261.3639184211833 229.930957951668,263.81245793908073 229.8787884216355,264.4237857127333 230.8401234261893,264.98971412983883 229.5970684263092,265.7443874546013 228.15481988969597,266.180469457075 226.9731567577637,266.1458005261518 225.65827166747678,264.4748218045734 225.12866534490053,264.08896032545584 221.49451148402045,265.1277003717474 221.72116283173554,267.3335665236906 221.30142893482287,267.53031381111776 219.96047503356363,267.03578198793423 220.05231135483882,263.12918403118726 219.81468092138698,261.4916142568622 219.85187853249167,259.75480631306044 217.05222526949686,259.32747947715586 214.77276906664986,258.57992484501233 213.1565615994765,258.32265565533953 203.40340516708127,255.53177708257 202.68961350555622,255.25185781667363 202.52862674376524,253.9610542822207 202.37814755842425,248.0373035417114 199.87719980129623,247.55009224655495 196.8150572149904,247.43931981773767 195.10525202630234,247.81770714744155 194.02157233219611,248.3417856182262 192.76201401646236,249.253145683934 191.30023760148777,250.66629319876728 190.1043221672239,252.7077846648276 188.5354680416132,251.28690053377977 187.2112383663036,252.04775779987114 186.20218266759144,251.19558196244571 185.2981380742906,249.50837992167294 184.6289807155384,248.73932494428175 184.28718103567758,247.63143330701888 183.78466670542005,248.58851446765777 184.20547019968302,249.352883050831 184.01755197892575,250.58723296195149 182.2214544538534,251.4631396796255 180.96887410188876,252.37965927617398 176.4347241349089,253.44292554809292 176.5085919614433,256.76322017347127 176.15529677830983,257.24840482461 175.45735959195497,257.2894476177507 174.7706306709303,256.59493706433386 170.00013724348338,257.8682797178604 169.10514084309028,260.04376736027154 166.2367338542365,260.7345256229112 165.94679072436162,261.2746166863632 166.05927379429866,263.65722554136033 165.3007116798433,264.5618732346615 164.91511526160056,265.59437067734336 164.31389749174016,265.934116261176 162.97537647806297,267.38530253102994 161.8449575748602,268.07180372297535 159.04656021305541,267.7367790393092 157.90556854850524,269.2119001539646 158.12868072801368,269.7691586720119 159.84829794191288,270.83514213892283 160.69031180002477,271.69225830825144 160.63123307270618,274.9771166744329 159.70833141804863,276.62726358922873 157.30691031730447,278.4374670157082 156.09748643255247,278.5886894637478 154.74376519885547,277.998428517864 152.16445117680038,275.61090036270923 151.17484635930614,272.1592206652891 149.76479430524626,271.87232823069144 147.46436923070834,272.7094413224172 146.58998431251612,273.4589052719199 145.64314515068648,274.8809933150402 144.16386396433018,278.00648096967717 142.65862450527402,280.03318114753756 135.59478985270079,285.7720342411141 129.35891733501776,289.70259922008347 128.4343367464342,289.63229807579177 126.62259913746887,287.9035959270367 123.90153928918154,287.09994017089514 117.50788027747787,283.69159518030466 113.97569854954797,281.3532112150024 112.42518387983456,279.71396409346556 112.13735337483466,278.9902530576178 112.4199441423788,276.2547593898171 111.93016135706037,272.4726123176097 110.42442966025946,271.2416248807699 107.29282039706308,271.335143287321 106.52322484459359,272.1202875183684 106.43658381219808,273.4992721463962 107.18420952924981,276.4073082183363 108.23524905286328,278.36895589532514 111.71450130879026,284.3425855997242 112.06213348874876,287.5398455070802 111.27237994297437,289.1031322086872 109.68041134075104,290.0077492626128 108.96933871717651,289.75675091088357 101.92981974568404,282.31835732731815 95.68318879093512,275.87313442738184 91.9910809410897,273.16485509783143 91.35433320360067,271.64915371930294 91.95817916104697,270.60335470972177 92.73853460188005,268.12432572067144 91.26453882019071,264.65745119384064 89.69947720205286,263.4934877605079 85.81405204279626,262.52122685783775 84.23277362465642,261.71849963415076 83.69923976130221,261.0085311695095 82.10485001478823,256.82634957485027 82.32116565025702,255.96075528827345 82.90647129751582,256.0036976789374 83.65697804714513,255.17638856455412 84.1746601397909,253.20251552505482 83.5380050588486,252.41156915143233 82.23209836621169,252.26901364369678 82.21159509491282,251.3931789478915 86.60578099972795,251.3394974345585 86.56737327832457,246.71790800939166 86.4424895820151,245.8460666272688 80.5651463270955,245.67715925622235 78.90709696020123,245.21255391046023 78.56192383248529,244.7125528416546 78.5035162897487,236.1620593726527 83.78867490658921,235.9456771750854 82.24473569199841,231.52656993739595 80.18964609318598,226.68657374651906 80.1076677313546,224.2717161533956 80.71292694250594,223.52326057688828 82.89372317943203,222.96699629265214 87.15004642535901,224.13893359003652 90.23266046635258,223.34536975683795 91.75079679335859,222.50020239132613 94.72879869906879,220.06988629538807 95.1919797744007,218.5612805236301 94.64979727999906,215.5523438770711 92.56967081621944,209.49683194855666 90.86141890294415,203.66749905495797 89.28551149292491,200.9107759078637 88.72119972009321,200.86758379082482 85.3419555263468,202.38972583334748 82.27306498116924,202.60696847887692 80.76506684491979,201.88294289023548 79.37484106428563,200.0290903511379 78.61704191169076,196.10962439351113 78.99448538834878,195.14904389799042 80.78643399992401,193.23317299942735 81.09794260002921,191.83538381597384 79.96930938724486,190.29676389914945 76.98763828329052,187.53144159888691 72.04763444313323,183.46106100750728 70.40098684423575,183.13167374303197 68.48184304601754,184.17034778851348 66.80481757179074,186.18555308155496 66.87339341892333,186.83245917118404 69.27640110052674,189.16457764819566 69.95605407216668,190.97446124883186 69.60704378295137,191.8019224507502 67.43356641330284,192.9128605131249 63.04197241967928,193.0936784336063 56.4671998886249,191.25799689033323 49.267464248365094,191.8990932020814 42.20201798894103,191.05689818084673 37.91934929283817,189.3934759488476 34.54943969233548,189.27682820939162 33.02290821935449,189.63860305223542 30.707153353743582,190.6979398100846 28.080398883799955,195.7912011398128 24.598880271315664,197.49969475655075" /><circle cx="190.312840195363" cy="282.7212720058678" fill="rgb(100%,100%,100%)" r="16" stroke="grey" stroke-width="8" /></svg>