<?xml version="1.0" encoding="utf-8" ?>
<svg baseProfile="full" height="1024" version="1.1" width="1024" xmlns="http://www.w3.org/2000/svg" xmlns:ev="http://www.w3.org/2001/xml-events" xmlns:xlink="http://www.w3.org/1999/xlink"><defs /><polygon fill="black" points="0.1741407579739312,849.5981516947661 9.753886133616419,854.6987107003735 18.261137282017902,857.9238088082708 26.657277046542315,859.9870757956717 35.595910116236645,861.2438181955489 47.603886484567894,861.9531011563084 58.79015095521543,866.3470726865345 68.70332226649244,871.2246742141739 82.22809793723663,880.4549380858639 96.15444755288681,892.472395200794 113.55203883307767,909.1826032615988 122.41110339493808,922.7529263956432 127.32868325980216,926.335894003179 130.6531022547831,929.1125643299773 133.5590445513721,930.594038015913 135.77456597505605,934.6267361269041 138.7019844886486,936.7211544753235 142.8203071139703,938.6424309326641 149.95248835702446,944.4174995196555 152.29483441055925,947.6700015828848 153.80035094032135,951.2536985822596 154.36155388030883,954.6899454368493 154.651109730519,963.5661546371884 155.02346889856506,967.9290290515544 156.05555832509438,968.7578368668313 171.22308863021982,973.4076995192338 180.86138443978612,977.6950302327091 187.7228903527356,981.4884413237088 196.86705160227237,991.064340929038 201.72852984248212,1001.7515832441211 202.5448459609328,1002.5746492098563 208.63298734278212,1004.7058336755732 216.24651328831237,1005.5791894943168 234.26168067387295,1009.5287066248865 239.65028599398866,1010.9447446575545 249.7900497835701,1010.3607581823617 255.6650165189372,1008.7796298126295 266.0069872203111,1002.2154233572616 267.5752526605049,1001.6111274053652 275.93513574035524,1000.3316065070192 294.63198753376327,994.6681765659416 299.9748734401012,992.2042087246028 301.29461371984354,991.9552708535855 308.64948871481437,992.062376825831 313.70710124834585,995.1208747193372 315.9071857127655,998.1406961887097 327.8971734535499,1013.7997564527731 338.7918968393721,1012.3887928071757 346.0471871625383,1009.7775079101605 351.0406974313612,1006.7245783439944 353.9153598149852,1003.357098511412 359.731891899866,992.5861808712231 362.3411344122536,985.9035655917994 365.07539203946806,981.175788699384 369.0210007490844,979.0274718126191 369.3231563221979,976.8305890977757 366.80971950857264,970.1745540670312 365.1353082740992,964.2742525973955 364.9297776932497,960.2561595926599 365.24755653716204,956.8131928306804 367.429476518566,950.5400730130036 370.33489463650636,947.8863692512039 374.56381674910534,947.2756238031463 378.9035683074477,949.9258269606801 385.5780966258378,953.186461091076 389.78469828268413,954.0082468244907 392.64238039119033,953.6570718282821 395.1512572961285,952.6073445564884 396.4517394551671,950.802598015059 397.20907888675487,948.0658547976075 397.33724487292045,937.0946682220756 399.4736369826551,930.5280190055579 403.2049053150976,927.1436892846283 412.8511434308858,923.0621981463124 422.9827806249003,922.635815228216 428.3591587762841,923.8426106296308 433.8530352126837,925.7521778325244 438.0002460230381,928.5189104715106 440.3344383948428,932.5153947439901 442.07506937427996,937.5761232342066 443.44035880732497,943.00447036659 444.781576204952,946.8965537474455 449.29440419148654,953.798334942029 456.9602369915166,966.9320785545971 458.81036994332925,972.1139396761658 458.78889788931474,975.2067629209848 457.4705249259249,988.0316558795607 457.56580587902647,993.0131011550582 458.6268791831127,997.6092829417504 459.94066463762374,1000.316091012497 476.93956748083235,1007.3387216275306 485.3225743854732,1007.2788319135864 493.06900026720865,1009.0237839248556 496.6396308719928,1011.2063309911988 504.0214208958654,1020.0693336915989 509.6544798721951,1023.3881693376741 514.6445971548009,1024.0 521.0841150967636,1023.3947579291936 523.9839381404144,1022.6302976230679 528.3375444015403,1020.8795243435052 532.4804745319469,1016.9920759685767 538.9192920598101,1007.1216568515418 542.7507368754734,1002.8922506557863 550.1828760605534,998.2353460095208 562.2773348868251,991.5615142916191 569.5798082218189,985.3634634029692 577.7650137762695,974.0380016468641 588.0412705846861,929.4599256881608 591.2437536107567,924.1700811129288 595.5003577412032,921.6926769909725 600.96044877566,920.6239228639197 603.7503404045278,918.4408737994685 607.6242587409122,916.090958520067 609.2803171949957,916.1721277521265 612.5480583164122,918.8302046821341 614.5188854760867,918.7786439263309 616.2375271829884,917.5494251791682 618.0383745460952,914.5572794317501 620.6868300936823,904.0478490343735 620.9445179725583,893.139812487573 621.4961076160466,888.676654790037 623.8069151234502,879.7928338573896 628.093212034921,873.8770207382826 631.028297621203,871.3144607438509 633.3637443093933,870.256277247932 637.791516964535,869.3905461921204 641.6520480410203,869.8229916235327 649.8077331534024,872.1368089108095 652.7756448359623,873.1939791720187 654.3697316392144,874.746471887441 657.7115107621687,875.3755797957708 666.4416881448664,876.4821565184486 678.6356321085656,879.7548174384867 692.9776014966073,884.9317380729411 711.3396069300957,888.458579298667 726.5828282912312,890.4122774744786 736.3560601668242,892.4979106035862 751.2860106632473,895.3956947816636 765.5087332622895,897.010516027498 776.3455848155504,899.4303799563945 782.5522984106519,901.5964517942194 788.1938278349724,902.8315792629111 804.2754030213,906.8918739313572 809.6397517658072,906.6491333712983 813.419447298079,905.3731212155791 815.9320270495186,902.946708206047 817.0036123555868,898.8833519751922 818.3447774544037,888.0630394665441 818.9334582397482,878.0993277964326 817.9242284055665,859.6145285479948 814.5847921132864,844.9311836011631 797.853357224501,842.2384879248293 779.8228738531778,834.3630436637386 767.1083356361019,825.1702750483128 735.1662128828737,787.1637694735055 696.457643673068,744.0786551509859 671.1178034902272,718.7108066308062 652.6063264098356,707.0580711981398 630.0717376579313,694.4215544214239 628.7292102448637,692.781761490123 619.2382478251048,669.7567373823751 613.3940904896203,661.6572806532415 607.6758945196734,656.097578835509 595.9107219436702,648.2950785662447 593.6355059498602,646.5122669436439 591.0335489235894,640.9413249853353 591.0356269870215,634.063649448741 592.0926017254988,630.4759147847299 596.8912523421717,621.3596242012394 600.0035106539143,613.7026794113333 601.8269393747186,603.8165591085958 601.9743414791866,594.3208832457304 601.1723109356425,588.0535567991208 599.2676767054991,583.177235197372 596.5090517802491,580.0443078244227 592.582490504254,578.2814878546822 584.9090809916643,577.9332458031668 581.4779879448279,577.181865751721 579.1511769376693,576.0418922703661 576.4160627932333,572.8988191996772 574.3106235665484,568.0863768576137 568.904090083824,540.046570759451 567.0457421851578,535.2323885684009 559.0640991211471,516.726253468953 556.4761108853822,509.25749344203984 555.4164048751891,504.88608460844625 555.4054649573993,501.81270973038227 557.2339347927349,495.0667934889492 559.040814572518,492.65024145013524 563.5629451154756,490.3036568853173 576.8383924506412,484.7332049736061 582.8164606624686,481.69352179024645 585.227221388549,480.15341716510716 587.797691029971,476.1815977918857 592.9109007667118,459.2294102077369 595.7824462637384,453.1676661034562 610.7661314539752,436.71522437495287 631.8238739675297,414.8124882200964 649.8985077055535,396.714723212854 651.3433309529889,394.3173119521257 654.5730932466245,387.06492619209916 665.7836661165663,359.2939584256343 668.5078451395073,353.40808433740267 670.8476605520309,350.3601036394458 674.6093137280644,346.89770959625446 683.0060187624243,339.6642138500582 697.7915402286882,327.75721892002775 699.9299626037412,324.91855240389145 703.7036540891063,316.82903730555313 705.7584451519672,306.66185183182597 705.9466422350173,301.47191006970934 705.2819782264992,295.1766253198232 704.3132518450632,288.85903328947745 702.0256029766238,281.99575834228926 689.7900598833655,261.95393953351174 688.2189116307387,260.8630545910536 684.052829062225,260.79533211932437 682.1571811001319,263.556272142729 679.6086854534132,268.30360427529797 677.2180399592448,275.3530122084395 676.3623600677864,278.9941928808199 676.9821741925274,285.0311106584139 676.8084943815531,288.64906776834766 675.8956531281731,291.5166394985156 672.2324281849358,294.1517852197162 667.6233698557356,295.56944640480424 663.706761232887,297.7415420284135 659.1618756457149,304.30272275870675 656.0890814759547,306.63168137798175 652.8300550548396,307.82908911219465 650.7496627989161,307.88025530195375 649.0185389435288,307.09906854938106 644.948407473588,303.68943417110984 643.2093771062617,301.6023685035997 642.1904134264889,299.3143213267781 642.0465950997179,295.75652731857565 645.7986997218917,280.4331684942116 646.2684934689097,274.6052495929679 646.6567284253631,264.5763450648609 645.1983337809828,257.44307520877624 644.8092427353602,252.65374819060037 645.4380244091863,249.84573872598992 647.3754196804834,246.30633614017404 651.2193243201956,241.70729593798467 659.6260697287518,232.6716644406365 661.4567969624484,229.13427533480626 662.0288694600367,225.97001159199954 661.8248554747902,222.66006537896305 660.531085587314,218.82810503246583 658.1349467420798,213.3264714641232 652.2532790386821,202.96480914530355 651.7684144607388,197.9339026090256 653.8680794461762,195.52640681647824 654.7934882199404,193.29425312935382 654.6985734684113,190.6335373570613 653.97426510866,188.2795445984168 649.9188979166393,183.45308761945967 645.8902260117164,181.89264727626937 633.7001499231956,183.66718641428542 630.1272086371036,183.74808317413215 628.2147468040242,183.19494706619355 626.5843341561408,181.69698112669823 621.6606397806343,175.0501920458654 620.1246511166725,170.86873028891512 620.2665762870798,166.53996019173326 622.0185271773495,163.4755869173688 625.6670766627979,158.2324973566624 633.4021199395185,147.62036984703718 638.8040743659509,144.35001665976813 644.3953620615358,143.15651273981177 649.4966868385169,143.26924329283156 652.9881306266668,144.84038234064383 658.4116261158267,149.1080154471373 660.4913480503889,149.47414278763995 663.7651103952464,146.663449223543 665.1301110034794,143.6065250728724 667.476539073572,134.42031324033906 668.1726466561099,132.92634921471927 672.0522806036907,129.5657391581824 673.8462396846105,124.25488652619538 673.9635406723257,122.35515072058513 673.2524127360055,113.71115333346688 673.7827346344279,102.07273038509754 674.616467885794,97.25239695081962 676.897887623614,93.88279619541254 683.392104266921,87.38594154832629 692.3192109170427,75.42895181978884 696.5292961722524,64.12379852682773 700.1452931471613,52.18232194827567 700.1644018393175,48.266985868757274 698.5964703012365,45.870125318305554 695.8895525615583,43.815738068644464 692.6891728850526,42.86864335764028 680.5347978086306,42.096290055273016 676.5149092617152,41.00428148147887 673.7328840251927,38.94170413962411 672.5885920636501,36.71007774819577 672.6324987380887,34.517718408122164 673.5563310864484,32.12102425963576 676.3003325209338,28.324620712839533 683.1947484387014,24.014207097494136 685.1535951046745,19.990073483264723 684.4550536158625,16.984198250931854 682.3411584239957,12.827405462234196 679.1465182724396,8.935941608239318 677.4033267225401,7.851710586804302 673.885295085822,6.809635326904981 663.1655195444517,5.100016437513318 651.2826683283524,0.5862574299998187 643.4735988318154,0.0 645.5108357797931,6.83074090189541 649.9451506321765,18.5180137081079 651.1381233743064,34.020857103161916 651.2215292145431,38.17125885491839 647.9542814932621,45.24134489615528 645.6685862145588,53.30044342029646 643.9931968101856,57.669541836289454 642.276340575806,59.844839587605975 640.0146912159107,60.97168496768529 635.6130572005865,62.312142663913846 632.9468344835632,65.63847493202161 631.403463310703,66.38403695325644 628.1767364829007,66.58140424206454 622.6414349551461,62.3186446818371 620.2318900264671,61.367500044752774 615.897938013499,61.16624537993175 607.195071317772,59.65742844772649 604.7262071421844,58.58715967279579 599.6886885840349,55.07612652246655 594.6821453304516,50.6378506701609 590.8910105952094,48.64505976245539 584.4973997549127,48.37350527115177 580.9215281640702,48.99463033689983 575.2495960364536,51.257295202108025 569.3705888864531,53.93501211530099 557.044217062839,60.85703834250921 548.0373624108245,68.63962693781673 538.5569338704721,72.40569719539735 532.5555199642587,73.24769169341289 521.3140588761248,76.21284053135753 516.0631476560914,76.32509294284569 511.306486787719,76.78490529716339 507.22943932785984,78.0566859080667 504.0067859941222,81.79086859590473 502.79125414794953,85.14118325043444 502.7598668837679,97.35723953866466 503.43228032679247,99.65882801170778 508.4109949086434,108.55802796380544 509.6196384644714,112.68635267805314 509.5590345059669,117.55094704376177 507.8962852226603,125.23268203591147 505.8521549540342,129.19048840417906 505.10985332253836,138.33412256839517 503.76047230192376,146.5409367924875 501.1377394008522,152.23017850718566 496.64379482391405,158.66413935632977 492.35121508649627,165.32808890331762 485.3770406494032,171.75628667236276 481.7639407487449,174.03043530852437 480.08490140259346,178.26548762957873 478.6424515880972,179.72274758048843 473.2572080118305,181.8445584290257 467.1487974885479,185.47276488687726 452.5069509577062,195.0585389779552 445.46897550594826,198.4005575579971 438.8974341006378,200.78161045811567 434.4953731299987,201.4575481882523 425.43996009866987,200.39501479061335 420.3410637560712,198.82001938696715 413.7330467634885,195.50936672919795 408.9162193978508,193.34693383476895 405.0790573411448,192.7657134862642 399.41501642631357,193.231166058731 380.320336659044,201.10469324923372 379.137174396204,202.72717779534673 376.6170051405995,207.5718869170389 375.308074054305,208.31136337519524 371.491902114591,208.842278617827 358.0551802209671,209.55530538880362 346.75629184917625,209.4620775474874 336.03593719557,209.64520540992714 333.55891529415544,209.38512227138835 324.91860278990634,206.50890136883834 319.99934361024646,205.7633464258006 310.45916476579634,201.36048388001336 304.7918638400037,199.028683597346 302.368865254128,196.93333414731273 301.3165800014386,194.75858172599374 300.50530567459913,189.79675521894217 300.31019061630184,185.46529364629885 299.40730920213036,180.31861836219707 298.29880158584143,178.73936499807326 294.4152234326284,177.8633239865577 290.11320243673435,182.08269235417458 287.6205537782435,183.19162136208195 285.4845221106595,183.39587088557096 282.7587432717389,182.85221147937136 272.926873646606,177.32464130062294 267.5223684885744,174.56979820761092 263.53133147790936,173.62257098776695 256.6987972624941,173.43307619480947 252.64898253580114,174.6305920832907 249.27040364644503,175.1010183040263 244.94719163570326,174.70034898928213 240.01123789557394,172.57816552454312 213.67835161347935,166.7802912222869 207.50753274276127,166.1694593280248 204.21657266098023,166.46378249908776 197.66931614888048,168.5219687520772 194.9078908021751,171.1115304187838 194.47117570984548,172.1914145484974 193.36044615265706,180.09759213361133 191.37447065547676,185.81588700695852 190.23883923357698,187.96777883355026 189.30885780056437,192.4336024212139 185.18341910734992,197.47630593911947 173.3995723335284,207.44241685382644 170.78471937328626,208.14450992302795 164.2681843639734,215.53535135095842 158.33427044484404,221.74553340757802 156.38496970989289,224.97124196297557 152.69150619167277,229.29409382979918 150.0707769703425,230.1162192428951 146.5024617453215,230.46852945649562 133.8864201990237,230.56365250125612 129.50325494668908,231.90744731089637 124.5315353407252,234.56761828531683 118.00806045246256,240.81585977451505 117.05055811947598,242.9673354969607 117.14236419434003,248.0752699890728 117.64152247402914,254.4848962537103 119.8688219983991,259.4659061671106 121.89968279807643,262.03160186943285 122.38703879235356,264.17290761759455 122.40737709839873,268.9090251065966 121.6521386647563,273.6559294175911 119.08327962612671,279.7033418528205 116.08590728200191,281.97998930324275 109.44830599891407,285.99769899034925 106.18221734071007,290.5176356759672 102.44581638840198,303.4122070297665 96.73137331108124,316.1460340991897 87.82310243675741,328.95250894789524 74.2381862792811,340.05225072676774 70.45523795455495,341.7035846121498 64.64387265497149,341.8067993689051 50.25601110701075,339.4469582762364 48.614918514604,344.9680541012675 48.55533164534146,354.0719537820926 49.57283503677844,359.3626325359935 52.39418457656832,363.774026412823 57.1107650128502,367.77240940788727 62.66804110567095,371.30998847819694 67.35031349009402,377.45251804169527 70.73689215052431,384.13969282431253 73.17921449620218,392.45614012806016 74.49666133851952,406.84744327895237 73.56083152545587,413.9307289676266 68.85425994049199,436.88367501558776 63.90213826877046,475.92487560380164 63.15518989643265,485.7934229541071 64.12934224022813,488.7482514120503 68.77905109281534,492.94374085010645 70.09217143610667,498.31447502768674 69.84752083592477,509.8498799643586 67.26271076373429,528.1139444798675 66.87725640141095,540.951308135719 67.83821681347831,544.4691585495677 71.09524644713709,546.0871717035941 73.4117805524319,548.2719840240753 74.3988159645968,551.789352264819 72.7855922935152,565.3915234408427 71.24773831873627,581.4996224160541 72.13954744844932,597.6658089616124 75.80085746140391,614.7156028949582 79.42594278157296,629.7013560582848 79.7401884021061,638.6246405828281 77.27539959648796,646.2914095381543 69.21056213361085,656.5709441998142 60.783627634753195,663.5999720023094 46.43978634227971,673.1517073762548 45.269756642580404,675.76810512173 44.98398755915255,685.0718350384057 45.13274252150146,697.8047274704604 45.74314441944813,704.579086483925 45.311084713681716,712.958985252058 44.47921478444337,716.7866826713436 34.30610198393579,730.3554059455179 32.90488818200855,736.7066180586933 31.22922701452952,754.387933835342 26.173366695289328,771.590932619165 19.944577694243872,782.1177841008 11.80875682382958,789.6108868835964 4.839280093961783,792.9004556136623 1.2532865634099193,796.8707776285441 0.0,804.3257450108898 0.35719229905973554,816.7829320472628 0.1741407579739312,849.5981516947661" /><circle cx="515.3258405920288" cy="695.7168573141203" fill="rgb(100%,100%,100%)" r="16" stroke="grey" stroke-width="8" /></svg>