<?xml version="1.0" encoding="utf-8" ?>
<svg baseProfile="full" height="1024" version="1.1" width="1024" xmlns="http://www.w3.org/2000/svg" xmlns:ev="http://www.w3.org/2001/xml-events" xmlns:xlink="http://www.w3.org/1999/xlink"><defs /><polygon fill="black" points="558.3036888976736,17.814080677536936 558.5713230900171,24.544255208679033 560.3933840877604,30.381129229024964 557.4862681132084,30.93332026967164 552.3249485514234,33.1615102191638 553.192677665497,35.66182799104695 546.0400081280561,44.0075789584705 540.8524936252982,49.77842924405513 533.7073619475234,59.39571951869607 527.8703878074278,65.80994606778006 522.6771258718621,70.92494579168863 514.2379211032734,77.32210302503404 504.5403637297892,82.42703786634343 494.85559207360694,84.31344608647225 487.7672639460196,84.92244767590387 476.82884338669686,83.56947876001675 459.4502126455763,79.62065033184342 453.6909595932523,75.71278141710911 447.2487563922589,73.75567770490352 441.4822356140279,69.21153862015365 435.0647504729513,67.89044474021773 416.4023996982414,67.75801574780098 407.38617604332677,68.33728065924379 393.86411504705256,72.11186793612853 372.6187819017424,75.82160059009016 359.7576129340018,78.29045658996733 341.7479214230895,80.73399634215684 329.52088470160004,83.20508125517915 321.17283139030053,83.12755580886756 313.4642612188077,81.78741172020113 306.42535065994656,77.8630951320946 300.0238780968072,73.30368182029065 290.4181479777264,67.42780598437105 282.093195197456,64.14487004318403 279.5753273990639,59.62857651711329 271.90496984231964,50.54246468027554 266.15699992526635,44.692136538368004 261.68681260592723,41.44064405201493 252.09951780376505,36.213513346798436 246.97132146502534,32.30196036018674 239.938805560983,29.03417582384816 230.30154382892366,28.301312605821522 221.3163594185049,26.300573721750425 212.98219558317265,25.583980408550133 206.9748211027801,26.800517615040803 199.73307475652211,19.132315717164374 196.54796608553943,14.01662537024356 194.80256744101484,8.990619148164228 192.35368362290674,6.004227387695096 188.66554523672997,5.696872962986504 183.79013044140322,7.758582862680214 177.87190023024752,11.236878534427206 173.7031636294445,16.04355621538548 171.97331514625424,19.514128188453583 171.0428306873087,22.863095515294617 173.93112719272258,31.48896606168387 176.27243188134537,40.96408764795922 177.29985773856393,53.085926094964634 179.46127243043682,58.15098605336152 172.3560630818735,60.076494906365724 173.13510341892533,62.979919227758046 174.50276561770735,65.89206167007251 176.5677632866336,68.58252944206242 176.59144756217825,69.35335659282805 178.99612661595808,73.63319389271794 182.2192841014454,77.44717448840811 182.48127476395734,79.04344254284194 181.7989515242858,80.48118913338715 174.00444332965975,78.72357541211056 171.75204418127728,78.79433161010502 168.72863697057363,82.22836370361995 165.6888592135064,86.61729934020718 162.0506298719281,89.51536726254847 158.04327868861625,89.3638989049648 153.93979135058933,87.93867589044805 151.12076887056037,85.88872744515038 147.0093880365457,79.9418699524465 142.16641042277556,67.22927769782962 139.66655216639163,61.04787377394723 135.32868329877058,56.544622080698105 126.02343120617812,53.91535132428976 123.73743907293998,40.740167931189944 121.99124540345902,28.214328280143377 120.83152475641566,24.381519872687704 117.02967868143618,27.35697448735027 115.15861694918847,29.35372544168831 111.64197998803346,32.233912307411856 112.2126729935592,35.09982554048338 110.11603562332017,35.02746133184917 106.86360891049289,36.184378869274155 101.54911432600943,40.65078996471311 95.84653566128146,43.17924094389264 88.0581902844658,46.05267676479821 70.7133780637971,59.268601873743705 45.50276793512594,77.13321254143511 29.948465178690835,91.84506266224662 11.122232190781887,110.45423517321854 11.264439117335868,111.45441703760912 1.5816527447636513,138.7468588719728 0.0,139.4152839368195 0.16792331878731484,141.42171148667387 4.570720784910089,160.100969270811 9.005328218118105,169.77971306646396 11.524519115877725,182.02231403722897 16.640316690282614,190.40912577780523 21.112349728723235,198.15535498144197 25.57386548200479,202.69645391466167 32.01053447324892,207.88219804875473 36.45767518709977,214.97208340052805 40.901760370508434,226.58607977896486 42.16841724311948,231.74080086365154 43.41343702907646,238.828042794427 43.37199924209749,245.26202442890644 45.777179948684044,272.30995797061667 45.05344192508432,281.9490815196325 43.08919224165419,288.37822136755005 40.449178568627765,300.5815087010636 41.70735249475557,307.03305602747787 44.250856713588796,313.4906690399798 50.63287014918942,320.5991659705255 57.022716421667646,329.6433898862484 66.61018689818808,340.0060715535634 76.88953745002172,345.85510549827586 87.14459834340133,354.2972815482178 97.40159788806434,358.87041558925773 106.4102428712065,360.22218094626965 114.75881875889522,362.2077379349828 132.764781470425,361.0605758003925 139.8445478239396,360.46843641354667 148.16795261423695,363.74666102842536 149.37407708486296,375.97832004280474 153.8103217817394,388.8922473323129 155.01272568009378,403.695340504741 157.5221272735352,412.08660824409185 161.93565215077172,428.2101180564363 164.46269840523723,436.5932173880566 166.94336184803308,449.47980919058034 165.59147911639553,461.6949800242767 164.88598013688176,471.9926775769861 164.803344987421,483.57428769241756 165.4010997376407,493.86656618932466 166.64646586168013,500.31972309050855 166.61871250444213,506.1037781211445 171.0474727221721,517.0868963567027 177.4096231755527,526.1410214255365 188.28914979264155,533.3105462817234 193.41555244290734,540.4270122753175 194.0089278942474,547.5088104775593 196.4994037904392,561.0393401663493 198.9916057007005,571.3596526912486 204.0574471174911,585.5589303315439 207.86818993716636,590.7363490094224 217.50081227827317,592.7457563767255 223.22515792986536,602.4473227975254 224.45246128235155,610.8297113227238 224.39785576996766,621.1118422310575 222.3948885126913,634.6114638951464 220.39541724119744,645.5256423845827 215.1893543503091,660.2913254369291 213.18928745486434,671.2166636084992 212.51088228459656,680.2122274045205 209.23161165753024,689.838354183217 209.1817834613711,698.8488286076088 209.77176485357882,705.2833288236673 212.31140991972507,712.3772426573229 215.49765196729493,717.5563510403349 219.9714883195637,722.0906915024136 225.74038107812282,724.0755442496366 234.70750652051225,726.7182594856055 239.8130817100928,730.6284876365405 244.9655886961788,732.6011059526359 250.0663213926302,737.7939593485589 254.64584382692652,749.3045442145923 261.6414217666787,764.95636031714 265.3995416983001,776.6667063347572 266.64637032258156,790.7913586780448 267.8621136602605,822.9014306658011 266.1091740734046,872.5151752568726 267.35739679717324,896.5864931084553 276.6318675125575,918.958589634676 284.7783422804624,942.7122257842267 297.37968899978415,970.8380848340162 308.7973310510989,996.6467711313222 319.2790459387232,1017.1376124182418 322.4007317251281,1024.0 326.1448920929897,1023.0927054361429 365.1140701093587,1011.8019036612579 442.2178995349926,986.9428125071006 519.0468895324453,941.4714606597391 536.3934275798025,930.7686432835037 571.4948792615313,916.9941327096994 636.1544307567419,894.7569517304457 661.4695398245269,889.3298157416093 681.9467284627242,885.2385767649369 696.1859620727502,874.4747441391737 705.2636267601823,866.362318705239 727.83515324662,848.5328542443747 733.4260817395228,833.7660343462721 746.8761417365725,804.4478194738571 762.2901338549322,782.635434438542 796.8542042542729,739.517820897549 862.8113679247572,682.4518021079032 875.630818792677,627.2811311474559 895.4314362480185,552.7092255616913 920.8034187265363,488.09371012257486 945.3905554264926,424.36513489638696 883.4182711780762,350.30419225603214 870.831834017539,332.21097728894676 832.4357207894699,274.23592574388636 775.6306547138871,194.8816747693951 758.8480176214795,160.0217478268064 768.1887620769951,153.94664330726278 783.454454029477,147.41096011338152 781.3480112301744,142.9771041478714 780.5160861572151,140.50632385721985 778.1054108309094,136.01674473185108 782.7458163431497,133.48677588684438 773.3637524496389,105.44131657959599 771.8669978780681,102.90012527337456 768.6260356909419,105.22734794387918 767.2432860130095,105.04925574397578 766.8252499072419,103.31383969941851 767.6056418187094,102.74202697439534 765.8001411010359,96.78394858385354 759.0094447415465,101.63729937638743 755.6770207506573,96.0026438173146 753.3310859741217,91.18340335710161 759.5840258775454,87.15269752152824 767.3132857080325,81.80311973840435 766.5538993440539,80.19620259225792 769.7137795331819,78.19811462175414 768.1010086847109,75.37477998113013 768.8418433201762,74.84429353130633 767.3500394254213,72.58883558248556 763.4016519345624,74.65719169477813 762.0284790174167,72.26932435513015 761.8291481977479,68.41462368767077 760.9616962158766,65.92352062058478 757.5403059847578,61.11076307234305 759.9420368943291,58.9623310314762 758.4152768578103,56.08160173811041 756.8276936933408,54.05127390915459 755.1883223034654,53.879829681378396 754.9919920331183,52.49836074336247 751.9719227586276,48.16306572778899 750.2513340969912,48.7604199576806 749.5504174833609,46.591478601292124 750.9177896421837,45.968354379934226 747.6653515765795,38.167019224578894 750.6962431794386,35.90923190486649 750.6525061029984,32.86668260535862 749.2485110898073,27.96576942805939 749.452931322834,24.445797722418547 748.7258051100247,22.534072198094577 743.6281585737031,16.394946036753254 741.3152766651368,14.587083475065697 740.1917454709483,13.049312405611317 735.760051199477,15.640942015205269 736.782860431012,17.95002083105544 739.1478487408111,16.921504434916983 740.245822357282,17.56813956670851 740.9358764286221,19.932992557307784 739.7822325157741,20.251702542753833 739.3303132439607,21.577024519133147 737.9506722004406,21.799338838371796 732.2719142618506,23.94893383632666 732.2073890214676,25.418285964397455 727.6273925307762,27.749514097107408 726.7470704605752,28.638756991774926 721.27240163149,19.16506380116391 718.1858074888175,21.967731956722673 714.2849771912004,26.027659505344104 718.3024854877632,37.91828241419648 718.9836914068941,41.33058903125777 716.9881931832883,41.9929247833478 716.7346985095589,40.705639686243785 713.7152538898114,41.742066806080516 712.2257342143406,37.329581504313865 710.9284174970765,37.684859356574975 712.1983534219113,42.18591727680939 710.9232618137619,42.790870999763456 710.3955107520961,44.148430865599835 704.4419552358275,45.76887389371427 703.5534808507076,45.46470664873698 702.4704209229855,41.22458452189301 701.0353388535902,41.835073064180506 700.2388036630301,40.57739554295665 697.5386638441211,43.005750783950134 697.6334372909052,44.085787568395176 700.1633226606085,47.049037266575624 699.2643129928799,48.439239248358604 698.0797651255457,47.20551650720142 695.1535449178895,49.537429505228374 697.6381430163125,52.323440610451826 697.2096540515473,52.9937012440048 692.7240421491796,54.18887456863126 691.5751279700626,49.84390308307081 690.8094255856041,49.17214025862938 689.6310968069748,50.19045009769184 684.7262482911017,55.7727655173187 681.4923660327302,58.77692763081836 680.3108427755168,58.46749391178514 676.1201673410269,53.8136344374135 672.5134172782668,45.612847525548545 671.0427318091137,45.49430232040561 668.7965939541781,39.939308375053315 666.808561060703,39.492235155225785 663.1962353821768,35.44502301173816 663.8083997706298,32.48688674520076 661.3938934235128,31.099459794241625 659.2945191378498,30.51589799306248 654.7390887121584,31.966880674019876 651.1196956124963,34.17114315304639 652.4634049361996,36.517113416545726 650.6426912516016,37.963561126594186 648.7111045384664,36.11967154094896 647.3247637344197,33.85694884740258 644.815549960891,34.520799204661444 642.5722694601855,35.755177049759936 639.136969829763,36.59569841136465 635.9749322391224,30.28454316821933 631.433763824914,28.766348987177366 631.5368078415759,30.45159020683593 629.1868420363464,31.14895996131827 629.1761685415091,33.36715497145303 630.0931786904181,33.56004462869703 629.7091416369469,38.63696539224452 630.8580161214888,39.1393122163538 628.3046880104166,39.55573925134388 628.3679201693891,40.75849774377002 626.0435167094851,41.2406281684091 625.8455340858224,43.23138657290144 621.8836138996985,43.84658337586109 622.9840095624646,46.10711784095167 620.4729716647246,47.80709154586964 620.1066771752069,50.26539538990096 618.6011159300447,51.008648876292455 616.2724349180759,50.10413177753139 615.1322285243161,48.03892290837575 613.789064675396,48.776664137173384 612.1706337372091,48.38624993952749 612.0200985598932,46.249180323097335 613.7161286107754,47.03873292155754 614.4264959288221,45.5221499698921 611.7925720685629,38.82803346921423 607.7973916196831,40.21550343896547 607.1587608294471,38.28252131752413 606.4062144607088,38.372615412199934 605.8582239216054,34.50016132867074 610.3904274020499,33.82263454731458 610.1503033438066,32.49344007171351 607.3535252109208,32.70921971721907 607.2764715665909,31.74148519772791 609.9491858269054,31.41983831486732 608.5473775597162,30.708374049201097 607.450237027631,27.873618425160885 605.9550304184193,27.50778331594131 604.177583833324,28.153624126641375 603.6417718677525,25.760313328809048 604.9098937674663,24.88122521854018 606.1940315199569,26.341263614481022 605.6986703290323,24.391245488974846 608.7511563859177,23.152119393772637 608.6050210436354,21.177579561817197 607.4922089851366,16.524681981491653 611.0613780166371,16.045506030872275 611.0757164149737,14.709682918101294 613.405465009009,15.132514472066646 613.9158375734304,13.150173830454378 613.5617265693854,10.617299335859116 612.723808535743,10.745084806599039 611.7989111140159,5.204862000659205 606.080506392697,5.337232803109373 606.1241758337812,3.3156872297141717 601.909298829301,2.808397066913699 596.5970220622639,3.522094547081906 596.8651066624037,2.3561047926428955 592.8201535113215,2.7676722942861716 592.5776172948363,4.127391234806282 591.9345701886972,0.8413814005195945 588.9822023840256,1.3734583573996133 587.9994655554634,0.0 583.9445254830474,0.5625094536582083 581.5490845735129,2.1717740795309055 581.5819126704116,4.105079963136973 582.3922340792916,6.573446573364777 584.5829788575668,6.775537174554756 585.8541661719976,10.414651579063388 584.5532365718753,11.500334145627335 582.2827907077098,12.086694302049978 582.0527371849804,11.146987862726633 575.7513956300154,12.962809283731644 576.114448972519,14.448332239234787 567.2585851689711,16.20927533123438 562.7937240626209,17.45310671223217 558.3036888976736,17.814080677536936" /><circle cx="517.3687669985735" cy="326.00578805891314" fill="rgb(100%,100%,100%)" r="16" stroke="grey" stroke-width="8" /></svg>