<?xml version="1.0" encoding="utf-8" ?>
<svg baseProfile="full" height="1024" version="1.1" width="1024" xmlns="http://www.w3.org/2000/svg" xmlns:ev="http://www.w3.org/2001/xml-events" xmlns:xlink="http://www.w3.org/1999/xlink"><defs /><polygon fill="black" points="130.80672318492148,329.2774259898978 136.30606623306488,333.85412353084416 142.62368470801206,340.85296633710925 150.3008354811698,347.0395169597888 156.87484680669235,351.32852841071553 163.9503798538157,353.79143367755853 168.9193058690691,357.7037910997999 171.21195986999928,360.4453402590916 172.29852960555155,363.67939934848016 169.80718562210222,371.33519267671795 166.85624491146743,375.6103186798431 156.97351213536794,382.73767909338073 158.02598282122153,385.1671878788833 161.9458781251896,387.04999915997917 167.10648590669973,387.29502145421236 164.48691621858717,394.749167105305 165.07866265605153,397.0549451184029 169.0611430231993,402.06156719997705 168.76793377312154,404.38492884238735 166.27019414041314,408.4374535515642 162.7404245354911,418.02545709134824 159.5651591451591,421.69272390185597 159.5227118987905,424.0217489542291 166.1703144767216,423.5839899090938 169.24038905518486,425.2392248203829 171.98688961912436,428.1663384142653 177.5898527702217,436.13413821968834 178.2833585829406,440.1955755777841 176.2532584501765,444.2495926349643 169.90639596881567,451.4445937035397 167.9238337416613,459.7790779682556 163.25429506451,462.006468533932 163.66467580252277,465.5837147562536 161.35245729518803,467.6836721097533 157.10229873435742,466.3883167565501 155.48103823699822,468.0238245547332 156.34675790643328,471.22560717811314 150.83832888797247,477.9035672084311 149.43931804833596,481.8947730821682 145.1578150511524,488.8447702924898 136.02859788442026,486.3872451842627 133.38786762985157,486.39857258712084 129.85993254353286,495.9092269489445 126.4417697899125,497.7121852443528 116.63177083666592,499.69145676786127 113.93351990387222,501.31760447344607 112.71999397494893,504.938212534287 114.61139963441052,507.6091493474937 115.20743048760482,513.1052978003706 116.6277074054972,516.0616854208567 115.85198043148259,521.3199605937124 113.90740290000734,522.9931179743855 111.02955075888546,531.2866385258999 107.36724868588186,537.6632556675168 93.27452498086498,550.9055089990097 81.36264801585594,564.3308484094978 74.86512644307052,570.9157621897464 62.701551862242205,585.4609627266764 57.16726040843358,596.2093098791752 56.58066682262116,610.0351834915257 69.01415593017632,619.065597833875 71.64472115680424,625.3366974114209 69.69905688104589,640.4906188891209 62.46828562323157,647.5828805961534 52.60518206134106,650.1833626019552 45.29425778061103,665.2974903270273 21.885793593424022,681.1720919979616 20.913078255968074,689.2019458839565 6.445579592276177,706.0360163297614 0.9184847336019817,722.0626419278401 6.840120967120935,756.0495780309479 7.353102652703976,793.5546688029006 0.0,814.907884069324 3.3137636494592724,840.8432533875401 2.1918385821263424,863.1563787955172 8.445049498732853,864.1079412842389 22.606560534819465,877.6283061635299 27.754123911182464,876.3960792051026 30.251819158783547,878.24491179903 37.37051830292104,881.4334936109882 44.21079647779775,882.9975153324575 50.77325113262992,882.9263144463733 68.8000712207856,883.5625773392312 75.92092381633694,885.3853629914237 89.6761452824588,876.9380872580728 95.53907414116057,876.1307530497153 97.40150463059203,878.226452313744 97.22276049387386,888.1393063065311 91.90566156632475,896.2853663618263 90.4866724099486,900.3502413767849 93.67635882625297,903.3541787799995 104.84150328546284,902.619051304393 115.75520563048526,904.8917134150454 115.22362387656038,908.3552778189462 111.8640575045127,913.3908260674981 114.07827258387435,915.3064904339336 120.63394320606716,916.6575571570238 125.30173694624862,919.4285239829537 129.01965474164027,924.0818759354929 132.56273322711368,925.8495795590718 137.16203279363992,930.087307618718 140.52431760027815,934.1530911472632 142.82425169443587,938.2203459844415 142.29609949876615,948.4734740843745 138.57867528772596,953.0765998919243 133.09282240314917,957.3246114062168 127.61923484793591,960.6293175593931 123.73451728291221,964.1690073734509 120.69426747155332,965.6016516556123 116.98466768655854,969.9584131627715 117.86101340534488,979.9306128326434 117.24557007469758,995.4493033395971 119.3017422167911,999.277317762569 128.66022647570486,1000.6364971443405 130.78855692273095,1000.3087163277697 137.69278953111237,996.7607005515465 140.8800067105321,996.9353785026009 144.59323098340002,998.525327412297 152.20352543305407,1010.3788640107936 152.72895203387813,1016.0315411955734 152.5556138353202,1022.4057217503981 154.4990537751034,1024.0 158.92262318281104,1023.9962208299165 163.87112078597204,1022.9361071863735 165.6401262712141,1020.9935804280583 165.4486865084307,1013.9184012236831 166.10833618082486,1012.5512361887256 172.2807196750532,1006.174074554224 176.04550817040743,997.6175352414664 183.9393596598213,971.350667885594 188.83690745630557,965.8086254901317 204.08549420095153,956.1769728334132 210.71775639694062,947.544563749002 217.61932060175886,937.5958479847508 242.61075253540506,930.7906690394316 258.7969470189115,913.1486578705596 271.3362317786704,905.277870616066 285.5916632594602,903.6864943407818 287.4828314743388,892.0955841794344 297.53713545813804,866.327338372131 297.64850039632734,855.1652150762674 288.75558948706265,841.0233814337156 282.9996168082387,833.9891636870258 276.4710107526851,832.390842379951 268.0054960619019,828.6291016716646 263.29328767731636,815.8881538552666 262.6955466899257,808.0130036700359 264.2355266778577,797.4210227797829 266.86426396816125,786.2647901950007 269.7689727737759,775.6567133925955 275.81289172434805,749.5546726796924 279.25593239840134,737.0445491906258 286.196361349106,721.2587766968163 290.76575128335463,715.2580013282328 302.64235497309437,704.6035610977542 311.59358532976995,701.0197875042218 322.9972931907027,697.4138816731895 330.5719604133022,691.6571246224544 337.06074392971226,685.0840325352926 337.00295518439947,678.2993108906498 334.4987541057461,670.7177966449447 328.98193140329533,662.0630109386796 326.99079845649396,651.7603396572345 330.450490605065,641.9579737506444 337.21574637714497,635.6563536245358 345.07187978767587,630.4368287355173 357.5706870057635,625.7128137275188 367.0641597505204,618.8415532776505 371.3973576411808,614.9951118938653 362.08820373056756,609.9251389477871 358.51720305205424,607.2382663452316 357.76455434356785,605.0550475980659 355.34974959617205,607.3468794664656 355.3436487840494,610.2009405619305 352.6770764519644,615.0245781240302 348.89286021576396,617.4875464410791 346.36308452278695,617.1008682997731 346.2658257898416,614.3925359955448 347.78533156566203,609.9918239099572 346.80235475240465,607.7932566004288 348.19476659231566,603.0796885982351 350.4597363142584,600.7911598501432 356.6061399650323,599.1676941501627 358.75625894192206,597.8956143439405 361.194381217427,594.0279508193814 364.2575500088748,584.6560956974339 366.85326688260585,582.3613716143739 371.4579747311234,580.964428920161 373.5911462591887,578.126642268473 373.61085962711184,572.4206250240268 371.3571131873635,566.2815096533694 371.80814713604053,561.7928182755662 374.4551326247012,557.3806058835166 382.29787321530114,553.06234511937 385.18761796177614,550.5461491645544 387.43422731154226,546.837304930019 389.56633307100253,541.3420556898499 395.54177439569065,539.9146269032981 398.01156399045016,537.6230221887895 400.05746210880426,534.0309124639907 400.71401179582966,529.7332849036284 401.42763464189403,515.3751938679072 401.36594863333426,505.9732772014762 399.9293094234904,496.8560936077049 401.4752047505202,486.52144188195757 400.0147636310947,473.22685027227953 400.7596250178328,464.2594032202861 405.5972345562407,450.99449407527857 405.1010096543966,447.80713652556847 406.67906822765434,442.1335062768709 405.6317407555225,436.9248766311182 404.8138859834853,427.90222808595877 403.10988999089494,427.8063162141 399.5012817628926,434.6164098378773 399.15004601104437,437.34168873982253 395.52087217478834,439.95396964643885 391.13802641711675,435.50176990327463 387.55319624772744,433.61823450369445 385.51502904859314,430.9338177557689 387.6751864271766,426.60735109174607 383.19966621924794,424.52821466265414 376.0340790228805,424.29436026225244 367.05434006590167,423.29113695350156 364.49445441594526,421.7219721293899 360.20370038969793,415.67501940926593 357.0610995915924,416.334004470364 354.83574325870086,414.71720567440116 354.92051908091605,408.80216821028205 349.84305921868787,401.1679745819573 349.45676928002547,398.52147643459864 351.9384051463457,396.4971625013303 357.0192106821429,394.75540857618944 358.39569687969,391.7332099317032 368.478648052903,391.64083033913914 375.8155022969327,390.5130136554569 380.3597439006428,386.1970209933369 381.2718316855182,384.35057980520196 379.7556885728525,373.7118824975588 383.7456088879434,368.6531816433518 387.032264768784,366.3770178409658 395.08433709044726,365.2016534196407 398.02904903066576,361.3608043668403 403.9610227753081,352.0740997983364 411.5042588833474,341.138575243466 423.3734361987992,322.54640636933925 425.23393773544535,316.8197617453334 423.304307106817,313.5760684538752 421.11217663181606,313.06180729945663 410.47147259552196,314.8057593780046 403.4713995537408,309.32474370851514 414.8832947509118,274.61438984508163 414.9004672814517,253.6571301739217 418.5326464756286,241.99933826625147 421.6756709305082,237.58494747435032 426.4546959104289,227.86135782759334 428.5577753882241,214.84044847176244 428.91126883604244,209.67223060526896 425.732087502106,202.8379962869143 413.36207300310986,190.73089996825115 396.0756647440318,178.83218597852908 386.0405778277773,174.9011207147919 378.4791714022985,170.192095038081 367.11996616202754,164.33223755056827 355.3301137913604,160.55904026739825 352.85177745113134,164.60878102657443 349.6608733919935,166.9916613699819 347.16473130291456,170.22550995972472 344.1804096906954,175.92762781006502 338.88028703321726,174.37909367148745 332.5554716472597,167.70399244719488 328.11757186147463,160.12252259376896 321.4562822748282,160.92612934431406 319.9973720911901,162.48614670731342 316.93719823137997,159.89159869304422 312.07043327377465,163.15479121640658 307.86340932278426,160.20591808414076 297.39147543617906,164.12660372478115 287.9007262848717,165.5395475177511 284.53049560206523,164.93764454304232 279.5657717679038,162.50315678137713 274.93854613150165,157.9310755347674 265.0924933671236,155.59792669928208 259.70361213783104,150.7363694325186 261.1810882669425,147.31205462065407 264.8535701768092,143.0567975199741 264.37292088423646,141.29347952304647 264.4915634935173,131.7826716995836 265.95937396019696,123.92573332379618 268.83206557485266,113.64573818623649 275.5938117855757,96.10192810276953 278.90788256093686,91.80492481516012 287.1511503182148,85.69136610733642 296.9576880770164,83.68168961947845 308.8359843648525,82.93215410639436 311.7447139504471,76.00340808358942 306.17104671831663,72.54637568881583 297.97605476415487,66.33322529535792 287.8105520155127,64.61176150087431 278.7362085086475,65.17021185400483 277.8750912064527,62.712691592450824 279.518345068294,58.654633896880114 285.6673933888751,53.199348525741584 287.3005430267342,48.53046795148771 287.10776998585686,41.87398843600181 292.4226518785623,40.03123544099901 295.42392085595606,40.832596331016816 298.53561673586705,44.96363241107554 301.6479038765625,44.744738234845386 308.47555569332906,38.84558894977147 314.9739160491556,35.82607298203118 319.9108901347002,32.55362643781916 319.42083789057256,29.783541919273944 316.51560905299914,25.446917524230116 312.15755584714776,20.39739752885123 309.6300605692381,19.718063600583037 306.63348657194354,22.041492590613302 301.14370949947124,24.714247587553132 294.6929706387196,24.748751348396468 292.6778419649711,25.48407935874161 285.99251784079456,31.296361441013573 280.6618988904199,32.325471653437944 277.55956907043986,30.700318620549865 275.01106761688163,26.762256934981906 275.3896817267264,23.618005452286866 280.880320655914,18.920350257720315 282.0070052158857,15.424625081692625 279.4298663943465,8.870496355636305 276.1418657434527,4.633689125641013 270.8729538309135,0.8345585417810071 266.03525748341565,0.0 260.9648377930412,3.3633045662894574 253.5675092309711,5.76779988985129 248.63732163536116,16.560220784948115 242.84967434620975,21.018196615057718 240.93260718740825,26.240298460275653 235.70898901574924,28.476374743983115 234.41641369932606,32.04733877886815 234.09097277418783,37.358570703761984 228.0415817549447,40.05020449546021 225.55239466244993,41.88306708662367 222.09891078076785,47.0758918512978 217.88420471729412,48.79220530824773 214.53189507022273,48.891782930255204 207.9407229966866,46.155040424004255 204.15376428111546,47.76962411343618 203.50814476746518,49.71738110748902 205.88503199440356,56.77735542637788 204.80341960778208,59.152719847785306 200.15714444010842,59.78714319008827 190.69972642760152,62.26035501697538 182.8797292438271,65.08757369556497 178.1847951424373,64.00111050572264 174.69884484214376,65.51732578389544 167.32545488081405,66.31816801301466 163.24077451632584,65.61623250888647 151.82970860292184,60.751774167668714 145.9955302238214,60.70578132418643 145.13884995672387,62.290864100878935 146.7544248740815,66.12882636609402 151.305414579989,72.12850596532326 156.5520068006547,83.65553374965339 156.55261829307173,86.36572859221542 152.11111393766203,90.04005332240479 141.92294003555307,99.9001363473036 137.3687576827854,102.1801017983828 136.070951453275,104.13202701528883 134.1155020340058,110.62892147444916 125.65787116772812,118.11184394428483 124.35748583027258,119.95099163396117 120.14863996154939,130.41666051152583 116.57816154399679,132.67755589658714 115.93341669630921,136.3693434110968 116.89596552592145,140.7625046650419 121.86121881616282,147.46202180497187 123.26915122989547,151.0624046744923 121.64236203678568,153.121402830565 117.40921731643658,152.58319885184608 114.69766554323982,149.5492088146117 110.90148352777067,150.41834985164712 105.13263042456487,148.96221581323937 97.47049387130114,150.95616274882923 100.71142749451943,154.34781619447313 97.40970545951554,158.68193619196313 103.40552432691581,164.79273606452375 105.08297660124086,171.59859788925587 108.91344567712093,169.76003038648344 109.92215821255024,173.1857040276368 111.87414298484627,175.3487400976088 118.06128430040498,178.16277808977816 127.06474208678792,178.9130762467014 128.6907777469852,177.2810301990104 130.97233009468016,169.1530626109269 130.86021723929179,163.95681262100072 129.34405966472775,157.55598477971876 130.31988081315706,155.72323624986325 132.4882728805357,156.58652396643004 140.67680075609525,164.47651848036685 144.7647252582022,164.77255297643194 155.16696846762648,162.73065732601572 162.63608633806658,160.4915924111482 167.01108471686757,156.6334356282506 171.9132630435725,146.03820847373902 174.3243808205978,142.11716181494967 178.1164167263349,137.98440209839168 179.41342419659216,135.11519602087435 178.44577165966015,130.315583434205 185.9872098422475,130.72323829591835 192.8793264780791,128.56619637481992 195.14812141054355,140.860495471254 196.6547962047196,142.32799905679462 200.40566790388866,143.1390738167504 202.10835176258948,146.17176929590005 199.83829438333717,151.15092712278897 199.73087984201112,153.42569786846377 204.8120389296331,157.3481242002066 210.4323309216386,158.33441949903022 215.9418804615222,154.56281954018266 225.89009762615288,150.81268920282412 230.42193993168382,145.67502948338597 235.24283592464977,146.77863942284046 235.18114548064636,150.83533058190346 236.98215424190286,157.93290630893546 237.95535478347682,166.10792703471486 237.71708023083536,182.13759246661698 236.52159560116775,189.45218732533453 233.98820528991467,197.018412800948 227.2500148168694,212.6652165557624 219.46456798067146,225.57038451245512 217.7678088184713,230.4289193226873 214.45450345492367,234.17810866906984 204.9761204866006,246.28272902908282 202.85992931732346,253.03656123814187 187.26126670612518,272.6716407142933 178.63451633095983,281.41309566078974 165.11023097529232,292.0899638032374 152.6773428764677,303.5809083129881 133.171429779838,317.58772505102957 130.47740828831698,321.6814685907468 130.80672318492148,329.2774259898978" /><circle cx="223.85987819145367" cy="519.7191304254533" fill="rgb(100%,100%,100%)" r="16" stroke="grey" stroke-width="8" /></svg>