<?xml version="1.0" encoding="utf-8" ?>
<svg baseProfile="full" height="1024" version="1.1" width="1024" xmlns="http://www.w3.org/2000/svg" xmlns:ev="http://www.w3.org/2001/xml-events" xmlns:xlink="http://www.w3.org/1999/xlink"><defs /><polygon fill="black" points="763.0668748500359,1.8668180201390214 757.828832094172,0.0 757.0490551782123,2.397850268453908 754.2557800216758,4.825995946237185 750.2530546461239,6.854813559247532 740.2607102944194,13.74316989081592 737.8432320954798,12.562413865673193 727.0531236455299,19.8520123234606 725.4468647258914,19.865950355627206 723.8637859459436,22.283325345377534 722.6555714705169,22.29379839024523 720.6580700644038,23.910159547729222 715.8310366055571,23.544575258724535 708.1368214411523,16.820101900449572 704.088927827168,13.649296527999013 701.6382271789482,9.680358597733743 698.8227814545448,9.30734752440651 693.6072025517676,9.749389180310459 690.7859342688425,8.969009878096813 689.615463192824,13.376429027536346 686.0448262856411,18.608980052483503 687.6955331565391,23.786688899287014 687.7399920931769,28.978150084719687 682.9711513867295,35.42019557755623 685.028030510746,40.99167375353056 679.8563719457284,46.635052990358645 679.8836732845386,49.83290588618843 677.0892938005362,53.062424994636785 677.5727354403015,62.24267040830705 675.1720718734723,63.869766782326906 671.1795041259012,67.49907309055754 670.4193920700241,72.300126113479 668.8197394774834,73.118308205257 651.1161484092021,91.08542241190128 637.8239225333429,103.81255649079958 618.983277369428,133.82555931904437 610.1025421922751,160.77165105414417 601.7274644525824,189.83341811449634 586.9334340190766,215.4790810801445 582.0160533449578,217.52591045167082 573.5489655848644,212.70736239613314 570.2367097471613,202.48774342443596 567.3951897250204,189.07888950682286 565.0590710612552,185.87976313909564 554.7828091393127,182.29761860277358 533.0999966321717,189.9677085246235 526.721857440772,197.65745635993017 519.0867297648861,205.5216348159945 510.26751231273704,203.96311876562015 507.0492647227151,203.18435729725468 507.42190045231723,199.98339873114776 501.34564858509884,194.82773006620437 498.55145146351896,197.26371458594986 498.20426958874566,203.6624256367985 490.93754397103004,200.51228021319525 484.92262868046157,202.15910744935422 480.8781552375357,199.40059358996257 482.96348904914777,208.58071064352862 480.9828624472757,212.5989380616195 484.22328547978003,216.1683933643502 480.61561364189487,217.39878865799903 477.827298645875,220.6188470552977 475.40955376459885,220.63799221443617 472.5895193760342,219.85575300908977 470.99187563542927,221.0701442257025 469.38393646193555,220.68563272546498 466.11530416189623,214.7127434289082 466.5728729584134,206.4890803223484 466.1336349104692,201.2984023995076 464.50997147789354,198.90768616908906 465.29139742567185,196.10078278098126 468.4714963861544,192.07317404587457 467.6269748617425,186.885695196577 467.6017396262951,183.69046758509796 465.96952830463727,180.5053982383979 467.14665027140774,176.4935969969365 468.67463106634267,166.49043191634576 470.2791784805088,166.47774627361957 473.0860385912825,165.65098631139233 471.0445970077266,161.6646289615702 473.4366241009445,158.45026263163697 468.9849653783243,154.48297261552466 475.4114964499549,154.0348858049382 472.58570970815003,152.45828685467256 468.55768373330505,151.6957234078941 467.77004880134194,153.6981456776241 465.3432890174256,152.51555041503912 460.9004866690452,149.3526433986873 458.48958495354566,150.17619140204442 454.1010757151718,154.203114441063 450.4908569111494,155.03603174833063 447.2567729226341,153.05510210554928 445.60923576198076,147.87387848028584 443.583975571145,147.09532154243243 440.74664170826134,143.11756824486156 443.132524392832,140.2981498055276 439.1077501447497,139.9223197999553 436.31671138292137,142.75499466850636 433.4943104214078,141.5752745374092 430.6789571138417,141.59723713967833 426.6417410476704,139.62238581145277 423.0005080466133,136.452771905634 419.3864771835481,137.68261133615454 417.3528036393163,134.8976677570614 413.75510992470123,137.3290782896836 410.5152681760136,134.55344075287167 405.6903997827937,134.59074782991536 404.05286948492653,130.6135652733791 401.63587898387243,129.43046302497964 398.8166708550752,129.84941097965623 394.00720933527896,131.88008528679995 391.59339784511343,131.10675055995216 387.5688179164118,130.73032369198108 383.52989646349,127.56336465918491 379.5228847720626,130.39475571337425 376.72315821819876,131.22070194356093 374.2663428553312,126.03525365278165 372.23242376045346,122.85285503006139 368.9968748343286,120.88388525496441 368.98490118916067,118.08326573179352 366.1659809548486,117.3001965932923 362.09376357805553,110.93786590747982 362.0755703674289,108.5446247688127 363.66690681045776,106.52623342400045 362.0178320337751,100.95000360552672 359.6154510836787,102.56722020046675 356.8004436301649,102.58859079371678 354.76372959774096,98.99879147480453 349.9393943182489,99.03533641325384 347.09659933349747,95.06703619649977 346.25979720760444,91.87544715022 343.4442250834782,91.49950765697236 341.0005563412007,86.71349003063119 338.57512472513463,84.3384042646104 335.7542170894274,83.55511636399365 331.73036146004705,83.18817970974146 333.35491165002105,85.57945614205164 335.7782921987934,86.75284620272328 335.799356890685,89.55085940854474 338.5901689527199,86.33445610877664 339.4001309783238,87.53009774774102 335.82948573029233,93.55308017562413 333.7930453290893,89.9631662961225 331.765344199222,88.77666771975771 324.97790943639296,94.03180503322153 322.9872019150054,96.8448874206465 320.18053912463813,97.66031309318714 317.8085203037107,103.67411453966258 314.98690762759185,102.49597922261148 311.35313610367314,100.12972595571216 308.53754916743594,99.75349908625878 306.53472174236947,100.96002986481483 302.5107112546349,100.59274381004525 301.2814896097008,97.80118798355875 302.46321129475626,94.19983893586743 297.21011959625633,91.04093950828326 296.7794051866935,86.64703080273466 295.14568177550376,82.66683514293038 292.72594699226323,82.27743238794903 286.2589342731707,78.33548027775362 282.2651635869126,80.7583089335294 279.44041079996265,80.38191995636078 275.0449979848986,83.60961968152913 266.9915999088213,82.0697944958099 264.1802883582443,81.28838692077522 261.7518940876691,79.70721691339224 258.948228238445,80.92944512069334 255.7224383977957,80.1484673986547 254.47855665144334,74.96352309796839 252.49679603132205,77.77864157709041 249.6924230379485,80.19241115313002 244.5397927651924,81.73520370408642 240.85086228955757,78.44267123613554 237.9762073562539,77.95498787302984 233.96695242790477,75.04167016534632 231.36378550762416,79.06288217927647 230.52906812341885,84.75878310036035 229.01037684077474,85.57427375322379 227.82226427338287,84.81880088440698 229.65578364563652,81.8733500723963 229.88836000551422,77.43412808159997 227.47376903173486,81.30973783083425 224.657325572348,83.05041213721938 220.68687445972265,84.22000616644004 218.31684056034325,86.16992984580565 217.38728379055732,89.129061093382 215.14712110605697,89.6030665150513 214.03876318081902,86.25124641154696 213.40801856538144,82.55192460282171 213.45586191708335,78.77436597113774 214.13184251792407,76.04981924797835 213.49130766708748,71.96348423178699 212.49444969943002,69.12949957273133 211.75765887235013,75.13076581605492 209.65440549221486,79.34049308693045 206.01296485157894,80.34311411898511 204.54858189996602,78.27649677503848 206.86258977186836,64.8942293923509 211.95412848093292,59.747253642417945 206.22899076773177,62.09051858355906 200.41050786951044,66.45830832632817 199.22314533183814,71.69871012483668 196.01995471116436,76.02750917563094 187.4706595109928,68.87037324779692 187.9766556870016,63.28825615744586 185.24247449026484,59.13325544548161 179.9481485274032,54.54097816359695 177.600829101489,53.74294565147591 171.80395125829602,63.524157023329735 169.93781382795444,65.21719399010317 165.182976420715,64.39555648205555 165.0254732401935,67.97146301341138 166.14602036264873,70.80216704481472 165.16748952813293,82.17098486308623 161.32919974293986,87.17686033304358 156.6267001744445,95.20188747818793 154.14971985611874,107.69936136744059 149.28534762388153,106.69609190524841 147.4930011645317,105.92432592284888 141.33626821179942,106.99437746566264 138.45428882884502,111.52527095468542 136.03166701948243,111.72678471217841 130.4985968568825,114.6037255060877 129.229514008829,116.67945595052356 128.58966669517397,121.01257162546256 130.21638675211452,120.52315598262373 131.33531793916467,123.14145895778836 129.91632841858242,124.88174951685812 125.74920618128711,126.50948227279662 126.3421046636131,129.94606744221073 125.46862641576242,136.40844331859932 123.68845908825969,138.77102681414624 116.33165842812151,138.7913788591253 111.91296580730665,139.97286965783883 108.08597112994008,144.10264554344792 102.50182945775016,144.4166539002847 97.19305828135394,147.6709679071405 89.81466607262593,147.9843594105795 82.45776748604823,148.0140976502995 79.87040453110595,146.065907290753 78.61438008029131,143.90629375373817 74.48415661734145,142.74265779838117 70.6428185678886,144.81528809337578 67.69039690450015,147.7673456382006 62.977054304187455,148.3607152117438 58.545713688417415,150.14117442307213 53.82248983077714,156.60888055997407 52.52622417158881,161.01450266438042 48.34082358349933,163.52683971570946 40.78588058656164,165.1659990370497 39.911103550266205,167.82060857375416 42.36110668182153,175.53307898501168 43.72661773902987,180.43194745253356 47.27627046778062,185.1113175458754 50.51382914684277,190.39738205015317 53.445548419492845,193.02403019040514 54.027886579852755,197.4297166239793 56.52203341245675,201.51648191491302 56.53001677110421,202.70800276233092 54.0188379167184,204.47802608961422 54.291818937501084,207.112334651742 53.695426722430575,211.811782994944 52.804637765076,215.9313252393165 54.2518889124322,228.10300875899702 52.5576980932114,239.96934005142487 48.54630823624613,244.1299420899503 46.44173136444955,250.0107514732191 44.0567359881936,253.55074936219683 40.50208328202896,255.61347059826903 37.82321510506461,259.72459336676195 36.60049004434099,266.48492470233 37.169783975781144,270.0052523926048 43.310189426509716,279.388213952515 48.85058845453415,287.29510394558645 53.25312555336179,289.34527736919404 57.67467252477211,289.3258350542245 62.37723753592458,293.12455879662105 64.39237840868395,298.7020584289644 64.05329788653879,303.6957702834392 61.958573402425834,307.22380717416 61.93344300917858,312.2154086975645 62.75622991722996,317.4973207011884 65.36510038338218,322.48137473693 63.30028288753096,324.544417577854 58.587703664370274,324.5658592934541 52.96273714297408,325.1726661997043 47.91017001856964,336.07716941258195 46.029338598970384,342.222069498673 48.83504161207188,349.3249538994867 47.11831425771902,355.13481927499095 46.18482151390911,359.25710869474506 47.597966069381705,366.28577436854664 48.9877839692991,372.2672285491411 47.35832432037729,376.4169168119945 41.5846872204746,379.82756599484264 36.84182657091189,384.23817216420116 32.108851978367206,384.8412168731825 28.805885521765834,393.65677508215435 26.990591289498912,399.53798858853975 21.671949002991873,403.0768288563893 17.190242428725416,408.07993132378886 11.270215458267922,410.73709976648934 7.450145498204166,411.9232668862345 5.641148602667296,416.32687626565723 2.0796349648012273,420.15244239492415 0.0,423.6900448896115 0.2589700229379897,429.2641159471548 2.8708725182101733,433.6591403133424 4.310362805825718,438.35778212079015 9.3243799182966,440.1085956076522 14.934383558128848,436.5655443115128 18.50363945595324,433.9136449926432 24.05353804265538,438.01348209517937 26.68388688003083,441.236902645766 27.230135809121844,446.22721326931105 31.619332262150916,452.37363158360426 37.774189783918025,455.0044945691852 43.96980138629219,453.5138634820431 49.83364958404387,454.6690154832585 55.12756521964521,456.13144977560773 60.45763397691762,453.1713844474468 66.628691484356,454.331791326759 70.44747543552488,454.3061959372004 74.85811563519343,457.2314521175364 84.00809884274108,453.3902309700634 92.00120100229135,448.37261766997597 100.86779180402897,443.9408599537967 105.91643984060585,438.6367916803032 113.00602430908536,435.9700040396515 117.46295308137549,431.2516654068414 122.20079954759639,428.88664843518393 127.22298111203888,427.9945261662764 131.65364757621393,425.63148618788193 136.65596867773277,425.6071089524354 140.79624854854217,422.96007514617236 142.60147427033655,418.2495946337941 144.40252442958965,415.31257867111765 148.80734208535924,415.00628010689115 152.34328051286911,416.16317949694235 156.1896947725955,414.09986577847724 158.55720166777468,411.7381695665007 160.64163235102015,408.78896559899283 165.93336418975454,407.61103361884716 169.08958138632565,406.4277345958686 171.65937110951054,409.2027395206852 174.44603682504112,408.4697720463263 177.370009126135,412.2693896667963 179.379757662708,418.72674158612597 180.73438260194249,431.3540421641326 183.34075093724707,436.6231881970451 183.6067560742675,440.4439858197112 187.4163040378286,442.7800776198934 190.04092372684346,447.28755188684124 186.6414797122617,447.93387203986515 178.23776239980938,454.3910673416708 175.63834543027738,456.80510996901705 171.47278263372712,465.243637731474 170.07079922830343,466.2502221272996 171.09708262475726,469.8506592837716 170.1127868865809,472.25334630811835 167.91184730331383,473.6753481383322 164.0569036170626,469.89984861754067 159.02354163418082,468.9280356689893 151.35957202402432,466.5855142274236 149.5293669825118,464.00002628526215 146.93981724340026,468.2150438953465 147.5571616511749,470.0145695138964 161.69148636071236,476.31694485882565 162.3078663283568,479.31055839476414 158.34473070074867,486.9404485345161 157.97394235338902,491.94712818463745 160.00088845789654,494.136546858344 156.99825979604327,496.96054173990126 151.95388583293692,494.79205526946146 152.34839721776427,493.1904360330144 154.54952467381418,491.76854202762377 156.74467673921816,489.15257213156985 153.92616253760357,488.7749671229377 149.91215715707932,490.80142274983723 151.8886205506971,485.3864273191808 148.2563114289285,483.6179325614148 145.4516686492752,485.23623622239825 147.29017286448106,490.0252104574272 144.68764281301156,491.0425249249025 141.51228531880037,498.0646342111222 142.34134614404374,501.65891411916937 145.40463379137856,507.24140160264653 145.42402378529252,510.04436557326267 142.01424356926375,511.6693440088628 135.9661256468518,510.5093806662077 137.4139063604121,516.1055911894464 139.64287281897967,518.6883938301237 140.4940898133991,525.4903959812361 141.11972864227408,528.483971503198 143.74479817110483,529.6675293415808 141.96169243386964,534.2791457430305 141.776232668147,536.2866109352461 138.57652233327815,539.5114955137981 138.40066403085135,542.9153767892021 139.41804905135228,544.9069562882243 139.43737646763367,547.7099135612522 140.6611328064684,549.7000668668444 139.2670119492714,551.9106634694704 131.0152048866578,551.9674543777113 128.61288298708135,553.1881644524044 124.9911565873336,554.4146853987324 121.55894411762213,552.8393175840533 119.77111079303485,555.449710626657 121.60002050630789,558.8423893835195 121.43076001993062,563.2379094448625 123.28557329204386,569.0362973598326 122.90178387387456,572.2391929193714 126.33693012668756,574.2142522648251 131.77695845517374,574.7790307201309 134.59340390122924,574.759671700607 137.02180346241485,575.9446453344121 134.6112719008832,577.3577147192352 134.43123045575211,580.1645668323454 137.4594744314896,581.9475202288895 143.7537800753437,589.7138095683736 140.14243449024178,591.1351991072755 139.7546164513395,593.7360370570924 137.98875406776034,599.5516940669195 135.17388319997073,600.1706366672163 130.53242027303727,598.806039833137 127.92469899180738,600.2204057604677 128.36615583559836,605.4288789227227 125.99351976421029,611.0411708355974 125.40919561262251,615.449643918404 122.60219135314598,615.868564988879 119.99166493001098,616.8958148974605 115.55482097960349,616.3239859686839 115.77504524158797,619.7276600752895 112.97442582893984,620.7460311980101 114.01271461568166,626.1427124777119 109.80663915957756,629.1692026699893 110.24078312560748,634.3752004484213 107.03191420585836,635.3962923355253 104.99944613684775,632.8018195378063 97.94248654730902,630.8510525020613 94.72526753089863,631.6772894347538 97.18506361470612,638.8580584623284 98.821469068458,641.8549696892104 102.86106458566962,645.0303939568573 103.29089740902626,648.2302585766568 105.70623141549251,648.8159819672908 105.7266377592791,651.8238240093442 99.49445204723379,653.2625192180183 97.09536060137862,655.0825173003611 98.53486159021831,659.4772316901274 103.38314761856753,661.8426982686674 105.22075760812325,665.4302020267266 110.65806764873979,665.3932891661693 114.4764777165339,664.967600799014 116.71153200423616,666.9610727652179 118.31966687434016,667.1449092816558 116.92725872846158,669.3578930244516 118.96017620252861,673.3513046183484 121.588962124621,674.93475811917 119.19253238788109,677.1520723547033 121.22119163194924,679.1368069419148 118.2265447837799,683.7666032066145 118.85359983952742,686.9651066780862 117.05821245231003,688.5787304057217 118.70057201754014,693.7688891392206 120.13096224469267,696.7671158860817 119.74424960422621,699.5753446032893 120.97695703268462,703.1668985417137 118.98456385558785,706.1783418582022 117.40661949053914,710.7984555207391 118.65128216272436,715.7990539907375 116.04531495758928,717.6104521931752 114.25402307192168,721.232711868426 110.04405813961878,723.8619808760791 109.67486901415486,729.270737856529 107.47201076647525,730.6922642799666 108.90003963392762,733.6829607046047 108.75767581637108,742.0981423700033 108.21071087075808,750.7108597039725 111.87508828089192,756.4894305681679 116.50765111092595,756.2530366688667 118.93356524105766,757.2459309620351 115.12885056303041,760.8717620516318 112.51070611064537,761.2892606038145 111.55913542310557,768.7106455494924 113.18676686168739,771.6974430990495 115.41135401022937,773.0914454420526 115.23497793623865,776.4876731246003 113.64028052276068,778.7019851355675 117.1300624153248,788.0841691668293 118.37241864105737,794.0941780908296 115.38328347451085,798.316536847693 113.77893217256961,799.1243258461282 111.58788071391804,802.3520676658558 108.77105464387749,803.9725355711512 111.0638416718934,814.3621573448822 108.25092241994003,815.1882254435845 107.05354700722286,817.1948874515001 101.6287372900555,819.435022836546 101.46851960295415,825.2521543179298 97.66423132909773,829.0826521399897 91.84387747258234,831.5200829961526 92.46020321794033,834.5264176807895 82.83681141521849,841.3936319035603 82.46566902711207,845.2034776471552 76.59542292454196,855.341696406274 84.31957554436397,866.9018731240443 91.62813972920844,874.8723594051344 94.46045854957389,876.8544083899064 101.72041494281962,877.2027084190676 106.16838043361803,879.9782475860618 109.36353627450761,875.5497136750577 112.98747299641782,875.525177553451 121.80622565182303,868.6601024391493 128.6709453060439,870.611899111187 130.34429110896875,880.2112671216528 133.17695541361107,882.203129937579 140.40143352145594,877.3470278493902 146.02778640731302,875.2997370008843 149.27025901053509,876.461402866183 147.30912876550164,884.4843159076527 150.58653754421422,892.0740188353349 155.07378318328,900.459841409214 155.5516964587598,910.8768947518286 156.3816795876932,914.4736420580164 148.75715184898024,918.933078797725 143.95172636321593,923.3755459121595 137.12108320928695,926.227891479814 137.1813653379055,935.0438858542273 132.7585779541686,937.4723607088854 127.5314252281749,938.3150030723959 128.3966761899432,947.1255013530921 124.47515010565336,963.5757005853935 115.2924898363106,975.6596200748425 114.1271562347076,982.48532175738 108.98417356175102,994.8604339515797 111.90290801182704,994.5346185461856 113.78191574275688,997.7474110053413 114.57944728467905,1000.4058956988519 119.22002023485616,1005.7224738803452 121.83163609238007,1007.8778651107542 123.97301480217955,1007.8633320088122 128.26318413338467,1000.6394161015114 130.13165639385073,998.4839554860454 139.02533829640856,998.7192750127608 141.67000254967456,999.5157891740162 142.85182455135183,996.5377061535249 145.69046113559693,993.09037034079 147.2974837140171,992.5480918426126 152.03777992837908,994.5469869020105 159.0884321378354,996.5197856275738 160.97693338885716,998.6596376263202 159.09762866029894,1001.6021186685999 159.09221569323492,1006.950181464143 158.5583357158093,1009.8935020920279 159.08168734397822,1014.9647001105009 159.10175691242793,1022.6501293063127 161.8232643181249,1024.0 164.17550974367876,1020.8392135822737 167.1365356029943,1020.8288797351826 171.15222438109117,1021.8813326495529 173.6494433021559,1023.0505191182702 177.04746548058023,1022.7309656507144 178.66281719192574,1019.9926080967015 180.2660391837415,1015.1748145603636 182.41763604306985,1010.8819283947762 187.77727669767953,1004.9855323450399 187.5079638810631,1002.0578749558152 189.6451917659492,1000.4415878941857 194.7310394076674,1000.4262961162326 206.04251819762257,1004.5414646079201 206.73113822178323,1000.9543872128211 207.68986330177495,998.0484624680041 209.14025315354843,995.6096238802452 212.03099300006016,993.6488929950921 216.43610779103696,992.342799662604 219.11465417330197,989.9357230611738 218.44643808481104,984.754279743391 219.74280880697887,982.468267439352 221.6271770372088,975.680038594281 221.16502181131384,973.7429214693225 222.8652926203414,971.4742751820014 221.28228487742567,969.0770693163472 214.34244115036012,967.4842267184866 210.282146360859,968.0339907504979 208.18961386320436,964.2817965720974 210.9478023806204,958.8738249395188 212.62628908573393,952.1857530566151 213.29515003125618,943.4960986759227 210.6093234899704,939.1586523876257 211.63513759221698,936.4773811162552 215.65184785866458,935.4598700475983 220.0066473213533,933.1218715443747 226.36617179182218,931.4324203676225 230.71158775683986,931.424337912016 235.39491767468326,929.7466253509596 234.40609093035627,924.7319137398563 231.04186968290279,923.063373631818 230.7082458537079,919.3924049078955 233.057837510434,916.048944741661 237.74778529157405,913.025260574808 237.74476860226642,907.004233516939 243.43918622110235,902.9841271060931 247.45512945052667,899.6286429619876 251.46421454851347,897.6190423340571 256.4754075627929,894.6028997181585 262.1790510386429,891.9206959956443 265.1804412800015,887.2365278100091 264.52003309326795,882.8924515575743 260.1699841664923,879.8930096446613 255.81363181165062,880.9059240356205 251.4588420919733,877.2309390617048 251.47005428905288,873.2311475047112 254.14053012319377,869.5386195505882 256.4940223301587,864.859169583312 252.1442637734324,861.8596369411716 247.1137525029681,857.855515046962 246.04935112786495,853.762231333945 249.2129460224631,851.0983859156227 256.4608499432762,846.2092371986157 259.8443749207108,842.8176329931841 261.2739042666697,839.9106345411947 261.75273777165296,836.0086540474337 261.7345922810174,830.2356202793752 262.2075717508103,827.8035338943886 262.1787392664246,820.5505992480148 262.6612100782851,817.1596200156483 262.6333807882726,813.3017642295223 261.1742400532735,806.5499359390377 261.1464397673421,802.6946084748824 262.104009249576,799.7783460800656 264.51886089936,797.8331508907003 267.4216387845238,797.8121764410133 269.37526692376963,797.3198996765848 273.2471985663094,797.2918627494727 275.6489303323769,796.7836532521908 279.0258729671071,794.8414917305718 279.99032874223184,792.8965953768718 283.3530250142227,788.0375360378633 285.305482536089,786.1056699187598 290.5805249149444,777.384639242687 292.4905321004188,774.4739697612569 294.4250313174749,770.1033621675285 296.85599700528303,768.1679225476082 300.9834918762924,766.8727441091069 304.99931497472005,769.5477391587272 304.3110239812101,781.9163787597867 306.6552285922538,796.2816055024706 311.33761645883595,798.278696050068 314.3523567458436,795.6127675604861 314.34120246008996,790.5935393108023 316.6821194565225,787.5783625363936 320.70617548520755,785.9168866212816 321.3680332754709,779.8933706113138 319.690007214549,772.8777050511572 316.35779648811916,766.1904731545366 313.1029158145681,763.2949608116659 312.33821827578953,759.5082761212145 320.8290253434942,741.8805326754613 324.7790373457717,735.6808760657523 325.7395755782639,733.2652928768518 328.6223389610707,727.45044104118 329.0946953155923,724.0720401813411 331.9709970940927,713.9310521823946 332.4036150819328,708.3696234782199 339.0734789861532,702.3443482005086 349.05056328423063,701.8929229009409 352.23334299224604,700.8293095838267 362.13553900136105,701.3444969661407 374.92208809056314,692.0392169181744 376.8640323196876,690.096734875458 378.762023644551,685.7587282133193 380.2044907295534,680.4450729359752 380.6779274904132,675.118508592577 382.610813374987,669.8314811639191 384.03515581361836,667.4045937389931 388.87116436450714,663.5324976995737 394.501023443367,662.5713049324884 398.8438422720457,659.2644624181885 403.844796878003,658.593793451129 414.875836154086,659.6123716636107 419.53057138654725,660.2900656117567 422.86080007349955,662.3035894749623 430.877715909269,660.3038484662696 440.57175622047976,665.2559000005892 450.675936878115,666.1970474169534 457.4537040139068,667.1461412421351 461.317316718974,667.1261203440099 467.57741111881523,665.1695974835511 472.42893545930804,661.2961661048912 474.8178317053498,658.4033828093816 475.30128998148086,654.5439121678063 476.2453485250786,650.1925383638854 477.67793330413383,646.8164215670488 482.01990898676894,640.5408294411374 486.83613543957136,635.2304153249156 489.25807284621527,633.2935849403302 497.4228806240833,623.1344140377646 497.92146277779983,621.2253877365181 499.8211761463555,617.3445200819269 501.26503705817305,615.4381140436169 506.0958451595623,612.0450080342497 507.5508093490098,611.5426284510665 509.48881288864465,612.4962051779006 512.8683756275021,615.3863880820013 517.216580484673,618.2561667904133 519.1547306254718,619.2198114015516 524.4627738932522,620.6675756958465 527.3712020531248,620.6443081498128 531.7145941033448,619.6708861438539 534.2836325349554,618.5699712397595 535.8157197417684,619.4937735373569 536.7233045558298,618.8868755456358 538.4385765192915,614.875693488221 544.7644180495222,607.8495730183677 543.1198718387099,603.1519501351403 543.1111379385436,599.1546127351426 543.8141158764736,595.8675336574585 544.9961138570603,593.5228140906657 546.8657197195599,590.9372537434228 557.183674234197,590.9677355666929 559.7518291973079,589.7932514028305 559.9813200263687,582.512543190023 560.4524696861208,580.1634013467936 562.1044396577812,578.5282668855976 563.7461847912333,578.525066893568 566.7739849555311,581.1114583731481 571.9169967228214,583.6477271014896 573.8479597890631,580.5630929821853 577.1039051602584,579.4764806516289 580.6072211143613,577.378337976803 583.1828933594455,577.1447771680159 586.0958836502539,577.7205757764135 592.005935872395,574.8183081311126 595.2491202239513,574.1895588757737 597.6455238483954,571.2654079328724 600.3998523558233,569.6615012865229 601.2002757479247,566.3203361614601 602.6810782834589,565.8603364471315 605.0931079295241,567.1257340450795 604.0769251475982,564.4826274953002 604.3999293148566,562.4103997806372 602.9186359418694,562.5237972996983 601.8753824442458,561.7177123833335 599.4889371483765,557.5678471994677 599.0107609634015,553.8905807058804 598.3140600710373,543.8849654243402 598.6670515517495,541.4658804504563 599.9263011729877,539.1734323735619 601.0762465272873,538.1342459755012 605.4401444233522,537.8022897827648 606.1244181477662,542.2925260237464 607.3871942328879,544.6982997702664 612.7557776460993,544.7551847895357 614.2845163186632,545.2839787925976 614.1790312288887,549.5454382006974 615.3226348377641,550.5758299139976 619.5784618274338,551.0516806603166 620.4821624236209,550.0144685665839 621.2823372558734,546.6732426279689 619.333003928527,546.332655028087 619.9078625477783,544.9515508366414 622.5513504586169,544.7247107673996 624.1741053344876,543.5803231021468 624.276586116061,542.0816864883875 626.6815494298883,540.245153062293 628.2976471672695,536.3278677168303 629.685257824577,531.7293585817533 633.5901191477939,532.0434902629368 635.3106943291783,528.8590090712303 637.1413250915085,526.7842924887411 639.5617599734278,525.9797912292486 642.5417514840615,527.5943915104885 643.3159810986501,529.8826839694508 644.0349831209614,533.6995890118606 645.7537844387035,535.0818148317237 647.0245013619856,533.3583428469515 649.2871160012304,531.626564433685 651.8983844285432,530.6458061233883 653.32441968968,527.8735625698899 653.4469820233741,525.7093350983143 655.1879829335843,524.7054824349118 657.76985144642,524.4206889736 659.6865182547853,525.6266113099325 659.9303118426267,527.0110366570977 661.3479376516234,527.1534571382267 662.3584197546201,526.2872707472245 663.9995760717298,523.1741393867057 666.1248004565247,521.8532680662422 666.9462436720962,524.9962805667626 669.112276655143,526.291134748974 671.254107213897,524.7145554980727 673.7210477598087,524.4280816858194 675.7145255485194,525.0032831067728 676.5791515187002,526.5848608542703 678.0110636459897,527.3064784111803 681.0408224973711,527.01772483834 684.9075675459189,529.4720404998482 689.5118017817035,532.0516217945788 697.4298404644699,534.63585602971 699.2810633818159,536.9452396164475 702.2955970202675,539.8139699703827 705.038608926894,543.5629294786959 705.9065743548002,547.4391946467795 705.6250219570082,550.1740798532587 704.7450980130701,552.0462507428942 703.021551386632,552.8983981433804 701.8727920187271,557.3535272774773 703.4579265379812,559.5209464580198 706.7603438015767,560.0949455269997 714.3804527365209,557.6439858710912 715.2407369357227,556.4955598968048 716.9822116674849,556.6425796729775 718.407319107006,557.6398780935365 721.8511846014218,557.2030191735955 723.3047323598644,558.5061945526106 725.5927596566506,561.6668725118941 731.7856891596638,561.8084638597772 733.8572551282793,560.7912505658444 739.9600144625746,560.2680577941752 742.8667763085449,559.2840634924563 745.2879390274295,556.3889610416315 746.228501205226,552.0594305553137 745.298639054779,548.130643956516 745.4552759840733,546.98821744621 750.0442711060228,545.8276809052923 754.2175127181544,545.6776660159289 755.231297744632,546.8327193215148 754.6479952838354,550.4254567538273 754.795978970096,553.156678677776 756.3776439598684,554.8861973142189 760.3796963889663,557.6952854805575 761.8495963146373,558.1632327398092 766.23077353865,557.6342892440057 772.0621620781426,558.5423955799677 778.6872091978722,559.0158824685577 780.2709307296051,558.0127662679663 783.0063830099165,551.4029629184056 784.3037060019918,550.1063090540238 785.5795357971932,550.105254677374 790.4889747796839,553.3968980386143 792.2197746019195,553.391827566684 794.6532824616224,551.9510604031183 797.4781059942387,548.0728620271889 803.143420182615,545.8420247274285 810.914019294741,541.9403265921619 816.2266723059663,540.1602116346344 818.566742280631,537.7232214707574 821.119107549055,535.957345124739 826.1794342396871,533.7719545823592 828.264612142607,531.6939035946635 828.853093013941,526.9269649434866 828.3576144347787,516.8285494986233 826.8934264090991,512.5099752904079 824.51310143986,509.3305021853098 824.1051699437611,506.4371225516368 825.380480280145,503.49084126423224 827.2174623958139,503.322709296129 827.8426086409144,500.84014968210136 826.6048332017865,498.77138196992644 826.5844582255611,494.6322619567684 828.8889404521655,491.92982587921574 828.2493330582499,488.8285072056037 825.1455582197057,486.55114588481524 819.5514411159926,485.31550113035223 817.6876005033419,484.29467364375705 817.0642420994642,482.2204297871958 818.935348544324,477.45224902532766 816.6506480243852,474.97526367051546 813.1199926475316,470.0120571766124 809.6017921824824,466.71100580049085 808.7739022976423,462.97626225358874 806.2811722941515,460.2885250047344 804.0045633205478,460.29851254053847 802.145885940863,457.18514787202344 800.477377188934,455.9575739070692 796.6605791010784,455.19422565478624 795.6024136246259,450.8517259282273 796.3345467407723,445.59779131489347 795.9143986863455,442.0846133094841 791.7718516963483,437.32142758030966 790.3250709428082,434.6319767644585 790.7489504361423,429.24666639157954 792.9795556469547,421.105321418481 795.9259480254037,419.7130978577395 798.003082489982,417.85031957075637 800.0807089915736,417.63970052765546 801.3067504231249,415.77175964693083 801.5522108994998,413.56837496429114 796.5406025554354,407.79328442969427 796.0086066463684,398.2391276279824 797.8070690935876,390.8453901267533 799.0230574992504,387.8490974063743 802.3574363222114,386.3622885346558 804.4251302605059,383.459650506912 807.1345957523533,380.7663794537881 810.4377767886501,378.68011815618775 812.1189763627253,376.6157989023793 813.409596083803,369.1050014242386 815.1702485944049,366.756581116755 815.4281631822046,361.4839941565908 816.0438544471833,357.9641507993083 816.0493035872875,353.8273090578356 816.4670924833173,347.82208290532276 815.6411011073969,342.44020075372464 815.9513112181497,338.31076907382123 812.9589934424571,336.0247844384429 811.2945006276406,335.1919548388886 807.3598874750859,336.85878385639603 804.0387245101913,336.8679518144485 801.0728860571522,335.7100796546762 800.1011156986343,331.83742834173904 798.6569538685242,327.55147532514604 796.7788269473458,326.9355297110628 794.5010040220728,327.770343530726 790.3598213914539,328.6013254534879 787.6601348126192,327.57762644380534 785.177291062333,328.8215345331897 783.9350786098378,330.68705144056366 779.5800058058812,331.7221918926606 776.8945984251565,331.52310797959626 774.8119939179103,332.97848750299704 770.8881010229765,334.00973487494764 768.6046605861218,336.08924481084216 764.3715460378858,338.7550528234707 762.5592231238539,338.9631683223698 759.1479611945764,338.0466631279538 757.222920068475,336.6162117875226 755.760527273722,334.21268270191354 752.0289352192993,331.7605851332221 747.9006150966551,330.30876578585924 743.1252688825983,330.72721178030656 740.6353462837965,332.7956690244698 738.5652141606397,335.70806062997326 734.8546018491506,337.5643910900935 731.748674626012,338.6083483471955 728.0068110160827,343.36944104357553 722.2185933490945,347.31064725408567 719.1174655725565,350.8339481714397 713.3307572363475,348.1511607235225 710.8461557919496,348.1421218201849 708.369706881943,346.07602029599445 706.7170984849577,343.59296880738316 702.1717117500181,342.96899230419774 699.6970832933463,341.1052256021957 698.0539573491137,338.6245859288639 697.6413255695543,336.14102119430163 700.5152752449576,335.0968288742898 703.8485564035284,331.584358252486 703.8401194647756,328.6824003859489 705.2836438414545,326.1930657774474 707.1602029918101,323.9150712129592 707.3550599703634,320.3990820475818 705.701982386395,318.12097251437774 704.3498300156688,313.76053096208943 704.7342302264778,311.30303421809435 706.7564525119949,309.6234235548268 706.9613597234747,307.5545680092956 705.9411521471284,305.2811553860322 703.8787993205515,306.1034000363769 700.9868348636098,306.1079165078593 699.7369061717126,303.0015183293982 702.0089544858713,302.58485017970065 704.0780710158109,298.450645416895 707.016103532197,297.5399248948188 707.8847886820989,279.9684387661987 711.0867181157757,278.698662473317 711.4279459309405,276.13778509532597 710.9881838574166,272.1389213464373 709.9871029401517,269.3568035506131 711.1107073002306,267.0346256216785 708.4515673293362,263.0042193182886 706.5649956278852,263.25318145990934 705.8250771292494,260.04122349778174 706.4192759187071,255.82854441299037 705.4495169876457,254.77674593079848 705.413735675248,252.51765993631068 702.4248211930202,250.45341206869375 700.2093543320897,250.86961900116717 696.4079723483006,250.7908256887389 693.6944428849287,249.95884454490897 693.0328716053955,248.22125048511202 694.1944572340896,246.5009698361663 694.5107539920057,242.93333877537282 696.1655616008453,238.8861890841465 697.4097939697425,237.24615080371143 704.2357451841904,236.74742989385697 706.7978740683606,236.32821547207686 709.8731036107928,240.53975068290367 711.6679799394869,241.35926183403683 714.0547534951811,240.70873158219058 717.1978770053862,241.3622726356407 718.5110743110735,244.74385160842064 721.3132731410292,244.1706554775625 723.9441095602184,247.90518655513074 724.1699107256422,250.17528824600788 725.8193008043664,252.04598746112913 727.6745925483748,252.25260828227943 729.7431636654092,256.7990696592751 733.2512507288922,257.63401657197176 733.0452044564679,254.9462760832606 736.1565924450448,249.7553317014458 739.871535722794,248.51117835803757 742.1504383445812,248.9291050698048 745.1380259324702,250.54266923972045 748.0240311584702,250.17346836283798 748.1553289389219,248.2974966555346 749.1785260274844,244.97664417659416 751.4487824712871,243.327463138005 754.9639352507858,247.66636289507755 759.7282757317997,254.70409812898038 764.2942286666246,255.11454654835813 766.356413723334,253.25202619319384 769.0596968901389,248.07444815431631 769.0540147209736,244.75242029008916 769.8742961675997,241.02844896166198 769.8801502698304,238.7563282150968 771.1348103312687,236.47325524198482 774.8642760769676,233.9761580290491 772.5796259138167,231.29655054977297 771.7596462670444,225.70200226737404 767.8243287414864,225.28867800721366 760.7716728518639,222.61027121135555 760.5657793930149,221.57218291858408 763.0638364135416,218.66849816095225 763.2598677747077,213.49263727342463 763.0572565499234,209.35003323829278 761.4033331971068,205.6249518928961 758.0869443782584,203.35151910395973 756.409319111187,200.6589231055898 751.0673207545709,199.56445014532028 748.2202791487285,197.63346507250617 745.2705799146213,197.3631229825653 743.397587464013,195.08964340533987 743.4120616192995,192.1747974616119 744.2360862110505,188.86832645641186 749.1865287714452,186.9933913255071 755.8150769780598,183.05430831717842 757.6761490454485,179.94114522269604 757.477149651661,178.08069682872258 753.5423461323005,179.5395435625171 752.5160358759798,178.71355417546795 752.5218877571826,176.43131244560948 754.1707908285887,174.77738281157212 757.897417724769,174.97000180260352 763.0647934342306,174.35549771790807 766.1935784728132,171.55756362233228 766.4282207461025,169.9969327236621 764.9671474963227,168.48153082769784 763.8852324254729,165.85459504544087 764.0955685799117,159.648819987445 764.7237470002633,154.87903647091036 765.7590236065064,152.1905261592608 771.7478860390539,152.59590805181642 773.0006261669494,150.93523481413445 772.3889786179045,148.24346436363567 776.999385231383,144.54682654957298 777.1777895215919,144.05693496831657 774.8701969196139,136.84605051267067 775.2829968426572,132.91307931352083 776.5025927452963,128.5631168524908 779.8401658637048,121.34551755570249 783.7973434068965,119.59009374625543 785.6657802864107,111.81357142758554 784.804007068984,108.91908228504735 788.9251469483756,105.06462955252312 792.6428379444371,95.07296689657187 795.4742975761028,92.40131148591388 794.290697511857,87.81953855651761 791.0205069393764,88.55189882184231 789.9041962465736,89.44734178254441 787.0396845980924,89.44232213994587 783.2860362830132,88.74174545334154 782.2628379392755,85.32999204501118 778.9501118599792,79.64610593634166 770.439123486182,77.26934514094012 766.2941129690759,73.58897104650907 767.9593362736365,70.92778520128081 766.5404018517095,68.56696067924679 765.454107261807,63.54653620731642 767.9732643246099,58.393220087353484 770.3607154748853,56.11277994797217 772.3262092959526,52.725292756332465 773.212785726465,49.15500478563001 771.4233145971306,48.060019772292776 770.4087702065591,45.6070958235166 771.5862144434909,40.23023870094221 770.5407474788781,32.4009743679195 768.0836592340445,31.537039138439923 768.971678661762,21.48191491234786 765.1230433654096,13.616573927636864 762.7384640363971,13.526202795511836 761.6426613101991,6.603160377432346 763.0668748500359,1.8668180201390214" /><circle cx="200.08016121655177" cy="293.764996017978" fill="rgb(100%,100%,100%)" r="16" stroke="grey" stroke-width="8" /></svg>