<?xml version="1.0" encoding="utf-8" ?>
<svg baseProfile="full" height="1024" version="1.1" width="1024" xmlns="http://www.w3.org/2000/svg" xmlns:ev="http://www.w3.org/2001/xml-events" xmlns:xlink="http://www.w3.org/1999/xlink"><defs /><polygon fill="black" points="122.3519248136365,449.74038906057694 124.63411084741298,453.00877681939403 125.2741483893079,455.2800104019743 125.08916637777278,459.46533214869453 125.35954113342324,460.9167813233079 127.18446704948164,463.92157512641745 126.27698619839873,467.1984430657651 124.45074167801937,468.2865097760978 121.80090063391165,472.50932414673605 123.69723311967306,475.4615871077683 124.30363416222332,477.33281299295584 121.33151165274784,479.489459191032 119.94164865025614,481.4265105401238 119.56000188428189,483.13634035724544 122.42716152331019,488.46138213597055 126.28718542679223,493.3853206525765 128.64062306936333,498.31389097371607 130.47688298802234,498.9027845701745 132.68293752958758,502.83845900312315 134.6507582369953,505.0554527425978 138.0874418895138,508.01547387441315 138.2545093551552,510.30692769545783 137.039858369109,510.5257834373591 135.37047226822023,512.2284184539751 135.26190601151717,513.4161340878294 133.87838827530612,513.5931765369289 134.28826804737054,514.4933710901938 133.01669002057707,516.9734928972408 132.96438285686028,518.682588517963 131.7188050270764,520.2614964613342 131.9437188179465,523.2814025795732 130.58348131992025,523.9389711038484 129.9365182635082,526.4687611323609 129.95308434058288,528.5880029430734 128.78521498099312,530.3712220163552 129.14802954399025,532.7248645413092 127.82307732760371,536.0550718662978 125.3604198286705,537.4743552249872 125.27608376721834,539.572092516989 124.06549261261178,539.6157237340628 123.82346952778926,541.438998695169 125.11645836036918,543.1054313331385 125.11632535883632,545.6439602830571 126.39319111726114,547.9341863194461 126.63261308735925,550.1449498205938 126.06023779867876,551.0064812658616 127.26056079615225,551.5661754093335 127.64585430499929,554.0028491780665 125.84862410024915,555.911454074688 125.31931392260067,558.7272679706844 121.32701253001855,562.4225822029514 120.90834755669042,564.963316853355 119.85935245231988,565.0167797538511 119.9986153703034,567.0232574400767 118.52176539937417,568.142409458039 114.51580546198892,567.9160389854961 112.4776264203502,569.6703545407204 111.436422041048,573.328289310645 109.5279104614098,576.0051492444659 107.46745979199032,577.8323047697854 105.30359626264297,580.6630449632073 104.02125585912752,581.290816279821 101.49262267323837,580.7529313617243 98.77121231087608,581.639330681325 97.17930756879109,583.3733417274975 96.13622503327612,586.3345517353282 93.28640278931375,586.9757094302208 88.96694284667012,591.9094566997267 89.2761410568226,593.4861293652302 88.80621697908306,595.3200253273269 85.40594225758123,597.5087829678157 85.66583273611681,599.0651091089425 89.9564299001785,603.9928363465428 93.16323895982734,608.6044118510977 96.51744002223575,616.351042525268 99.1781669499509,621.4864156857502 102.78650779118237,625.4936521016311 106.51966415720288,627.4630942252682 111.81121295736015,627.7380231257684 117.86209851728002,630.4192375913012 121.0190430277143,637.3362539757588 123.49457285502878,645.6901515248292 123.59691485268137,654.2129452064644 121.43491785103996,666.1318360295354 113.95346147975232,683.6378240634308 110.52149798566572,691.966285332981 106.60438580343917,698.5113452131698 104.23677173358254,708.9489499806157 102.16394256877287,724.6941933169423 100.26956942869028,726.6461189064846 96.56217140328633,729.6665081570209 94.20463287147871,729.5486598133334 90.73398737619304,728.4795181339659 85.48791005322599,727.3116102216495 78.75099859789991,726.3509734602628 74.04774327746418,726.0929824875067 70.05419281086834,728.8167834493456 67.7613128273049,733.0851534955282 65.7952651197827,741.4929008621754 61.879115119127306,753.3195383571642 57.50320378303843,773.3272288806029 53.36050180190193,783.9550974322813 48.395127270856484,793.6640197179427 42.259331998014154,803.0041399665323 38.457067077714285,807.7795365302844 33.7386383307001,813.0983267959779 31.399990631047626,817.9528875834249 28.860382407502403,826.3252570350044 28.409643686194954,834.2225070671359 29.807090855807377,840.7631242318923 33.757552476555006,843.9251070287344 37.02366721243848,848.5043654620267 45.81427899989452,854.8173912524894 44.74204428573537,858.1015892151377 46.27232804554158,864.2430416012157 46.869972953973914,870.2110099864984 44.13306235738506,881.3153440047388 40.56421965563608,886.2667124348912 36.72438448516304,889.4533218586433 27.26289627645768,894.6392277328664 18.425955132345056,899.2497051675077 7.470045916367435,911.1573563250811 2.681639830629873,921.0663951539788 0.0,926.025753467677 5.246067693027271,930.460809271752 7.570311005204307,933.126081044988 18.310696763602824,946.7064185789238 23.524491156373838,954.4666930749385 25.748205151757663,960.6825683483181 27.974471902108107,971.2300489612603 29.800831348348943,976.3997108662984 30.883549375205448,985.1941255182351 30.529032892099735,993.9717324850823 37.23827222767365,998.72289080729 45.43713647477807,1000.8446087227477 66.9328710051103,996.9151462229779 76.07195364881862,995.8203341440895 87.82700173690702,997.0703361813319 93.40258610292675,999.4505378936082 107.14548879359914,1011.8546590568079 113.54286064851509,1018.3391485912687 122.64204790096933,1022.1998184900684 132.0627199502811,1021.9640775381812 136.49220236576573,1021.1117124775586 141.529003596127,1019.0985402734023 154.81086168881066,1014.4876289484283 166.0094641710737,1014.2559151882456 174.50598223081624,1020.1679659254794 178.000869079289,1024.0 186.83279484493076,1022.8883922300453 187.80560431547195,1014.0972655216883 184.62605152220277,1006.7548000743803 185.27693666639908,1001.1892984638723 194.48918180298753,990.1194079181802 195.97672134667815,987.7853900660574 204.3026701772461,978.4734585902635 214.11739944971302,965.6471417881596 225.41651198528314,952.2536186052379 229.84594860522702,948.4844935188203 231.96942632829706,942.0543270246372 235.2580364867342,934.7592764934976 240.7235146983084,914.2925872219762 241.72527818025688,899.3720357937069 240.97674346576176,884.4156843238217 239.2923636231073,875.9066399452848 237.85882140520772,871.212219745105 234.72714856004538,859.1795434914759 234.23227360960004,854.1334259150798 222.91119372747733,843.3357113224571 218.10888102650122,834.5591262848329 215.02307982281778,826.456360971781 215.7147325276774,819.7477975230589 219.74219585513603,811.1637416534531 225.374654208481,805.3026758597392 229.35213477413612,797.6017304857553 230.75125201303885,788.5749578006814 230.57679900335967,780.1572809592915 228.72063965232678,773.8483323116856 227.7613270803745,772.4770197914022 226.03283040203246,771.7751125439239 225.45942591538844,770.3106568788544 225.51803649908544,767.3987635247354 224.57957200773433,765.4943662162534 224.46389056695207,762.3682304362579 223.44187978000727,760.3720336550782 221.4820878500221,754.5963006418447 224.3960510574618,750.0568414485292 229.87274499948006,747.1409573891195 235.3998956513611,748.3239230774768 238.11091614657383,750.7969987260066 244.3312143316191,752.1719251898605 247.7608224036416,751.946992123068 251.20167468653585,753.9051191301147 254.63453812153244,755.1346255536316 257.08000650931075,754.6657805280857 259.5315142214304,752.7205583787559 265.6442600524881,746.1727155145667 268.575936984863,743.9906778042148 272.23035527500747,742.5438471983886 276.85662675304235,743.0418493136895 280.74174108606366,742.5783169049662 281.9572681241467,734.7952788575687 283.9028433639759,735.5368067374493 286.321704193804,737.4872511633961 289.2210052504098,739.2098639844655 293.08532696237484,740.6838680949384 297.444547920686,741.6844984862909 301.30822202624705,742.9218454989682 305.4084549946497,742.9389029122508 309.20526517014963,741.0101635342505 312.9700031657467,737.603831014025 318.85683194728966,729.5898832386245 326.8298850571605,727.1645126921705 327.085999768699,725.2258510864951 326.17667808168136,720.8319420979847 321.6027064353001,712.5469885605216 320.01066085351243,709.1498412614425 319.3669350569336,705.49379164465 319.6294486537764,702.3267503010281 320.83638145261494,699.165415112645 323.20856669393464,695.7661414244294 323.54034835142824,688.2222282257376 327.31159574822476,682.7383876467447 328.3805521197411,681.8117944518972 330.7279078887712,683.8436467223819 333.31095363847714,684.8277758132325 337.12144505586923,685.5825646718349 341.2795976435516,685.1281086476088 344.5349030814055,683.8152584658969 345.2663472617623,679.078098184376 344.6130306614206,674.5107871013831 342.6587482532409,674.4973221980983 334.1856926791815,673.3795009988755 331.73226753427326,671.1755096766944 332.81018220879025,661.4687345589803 334.2994369462797,656.3723296616591 337.2213748686328,652.4787663811824 340.919686625769,648.6143387637045 341.9416704612327,645.4547512456552 343.464683280637,642.0492218089794 346.71926123147995,639.1487455436236 350.7354638662586,636.7465099323592 353.9717590471552,636.2950405986074 357.4276138257937,636.5585124472983 358.0198335803276,635.2755531414746 361.2398301331245,632.0067742091392 362.2461134449646,629.4938881810965 362.9152574573588,629.3687043308064 364.78277408442796,625.7354365882636 368.4382926875862,622.6796329068933 371.3413835872332,618.2026126368862 372.6074800319109,618.116051031257 375.10430982817996,615.7201771874253 377.0684681255384,615.4264261724404 379.32187434473923,613.7996280694452 380.0712717449993,612.5977903084843 381.770541745136,614.8039467307599 382.6798482705032,617.7097461900482 385.45884175967694,618.9070411795439 386.7143509377167,620.3364027454083 388.9528563988151,621.84377262162 388.75159489269276,624.6924652629335 392.4225466830103,625.7328142670896 394.16314747091576,624.0157689012079 395.85699694434805,619.0406511843723 397.991770491919,618.2947650177841 398.7117502678859,616.7964030662813 400.4762011905595,615.5201854370873 405.0847782010913,616.7713069748272 404.7543209357838,617.715957393568 407.3741676783317,616.8862207978016 411.16529191872786,617.1983519514249 411.4127525896098,612.2198805631849 412.19716328290576,608.69262265412 410.7971060744582,607.5107299478301 409.51412847566286,607.7510454937312 405.06535932013236,607.4210338429368 402.1045675033075,602.6290875687127 402.3518984964428,598.7460845565515 403.16749089052837,598.9282119522741 403.35763319290373,601.9479530135617 405.27753481784805,603.2620652182959 407.37206198165444,603.6627949984406 413.37354635730946,602.9217443779752 414.0462874311892,603.7281752178276 415.17898102721114,602.2804846543766 416.9887272330296,598.3502573786511 418.91951599695824,601.1788912240889 420.6786874464225,601.5718593036186 420.38161343205604,599.7298303795626 421.96621310412013,601.0233784558627 422.3900366004145,602.3126865210306 423.48828474954064,602.2161846547275 422.9890396092479,598.8180764260887 424.602417788249,596.2409448963065 424.4779176270689,593.0253775793084 423.8046249075165,592.086052788919 423.0976831378206,588.351330335475 426.64399423372686,589.1549339950025 428.5820346895519,590.8777417758407 429.6479277061933,590.9155456907722 430.9486325383182,592.4555987334013 431.3701899259802,594.6051579150217 432.3791929204049,595.6248756314264 432.77440067613077,597.9177039386764 434.0114290549811,598.7830802795027 436.32292767429146,599.1927690523225 440.09345424574093,598.5826893586635 441.0344103179099,599.5732395033133 445.516632874447,601.1931662900486 448.15695600157204,600.044394062608 449.2911740512232,600.1418611768602 450.3733893778482,596.2667279763899 450.7350252277007,593.345662603605 451.6904737134927,593.5985386168654 451.003991243212,597.6049436980682 454.13367297841376,597.1314715340691 453.5211345764613,594.8089341119394 454.9464774124335,591.423154391058 454.58436034590613,588.9870649153797 457.9637199685315,588.5431282078823 459.7407920443725,586.5593199528079 465.00474723564975,587.0683806378753 465.9506842941671,585.1290011516535 463.2375369603194,582.0895333355429 463.3134773062514,580.3993475714927 461.26720111078185,576.7421251858027 461.57408765811317,574.2315809352692 457.3343915319912,570.5326164036303 456.37416809651563,569.1344764820535 455.6256529135103,562.4101987421402 453.2215191017304,561.3352141380308 452.106417376177,558.7796068663524 450.8550476346305,558.3554290703917 448.5477601194113,559.092537347261 446.97965893254565,557.7774456014149 446.21153723350136,557.9762601863436 443.58434362774193,555.6723930889748 443.5223371802106,552.6316771533171 444.27183857305045,550.5193994666904 447.30347788243955,547.0259179117866 447.448617201233,545.8684792124357 449.1790197611406,543.4656960543151 449.00625266887397,542.2482454737547 453.9582698815692,539.216883563385 453.60187329465316,535.3491034922497 453.95212550393626,533.657745438251 455.3683362015915,532.3823791214093 455.92571269988133,530.8959301066714 454.79353328097613,530.8905465626335 451.8287327609677,529.0497089795899 450.3791283003957,527.7047478979575 451.6549542843369,527.3209582185355 451.18585109605493,525.8695681152747 452.22798577729736,524.5536344896591 449.9492189420841,523.8884008290958 452.08343053018757,523.3577950352271 450.46227459556326,519.689681565421 444.57107129654105,518.311074099875 444.5711951143668,516.9497231543647 443.2001805604598,514.4679936078988 442.5225553001961,515.2390780824377 441.15362661536034,514.6414831976218 441.1536780787522,513.5357853912203 443.2018675344958,510.9681005275338 445.59445970308343,510.88643720689936 446.53194459715525,509.77677888251685 447.04458241413374,507.1337159288206 446.79188346932887,501.4132682253977 445.9348552223937,500.4748087587408 444.2319242473773,495.9479846319275 442.09453549229187,493.13201108177236 442.60727498176976,489.11737749366 442.01078047250274,485.1904927511579 442.5878616676623,484.5016370019405 444.51077975733125,485.3844900525562 444.66947115551176,487.45077912131217 446.2224223190214,486.7283907298587 447.52621713620806,487.76593954408554 446.9111456904464,486.12085656136196 445.5172422316645,484.82803016961077 446.9599579566639,481.5981369066759 445.83038000458924,478.2461817776175 446.23907288904223,475.98191758926043 448.9399611543212,473.8523777396533 449.0637851327383,471.5599134891062 448.12280391258975,470.6831797943188 448.06378964785563,468.37103905409583 449.44572096479214,468.2526829050902 452.09924799713195,466.8697966995845 453.3152046721772,464.378364565953 456.4369989035957,460.21060172017144 455.60823034922174,458.17786979440734 453.3773228198252,456.713576493161 450.36675603414267,455.3650634059295 453.1905910523159,450.8509346139026 453.09806600726176,450.0332349751545 455.0169628626146,447.59885363423325 456.5419003539363,446.99918784010754 458.3484222064337,444.3313227906302 461.0952223191596,447.8296096182254 459.08387320511116,452.16653657772395 457.1361847115363,454.1703102224683 456.50928386856043,456.3115570047104 457.6479426414028,457.94285207668054 458.6553177026358,457.37607404702715 459.2188893245215,458.75545900315797 460.60194578440155,457.5619723584466 460.51050502650793,455.6487904393274 462.55248102638353,453.511626996324 463.6775934584554,450.6625839619322 469.04978089722357,450.12786533848896 471.9388398214744,448.866326230019 472.9466527199205,447.3573636820455 478.64078617765864,446.5448005253263 477.0023332538228,443.9737663396328 477.5070435109527,443.4090898788601 476.6255956037049,440.8960566628142 476.8807326768357,439.25745157123686 475.7473234481763,435.11827692810675 475.6830847052645,431.9778250694733 474.994534405337,430.159314981834 473.48752510925254,429.72623055593226 473.1094367998668,428.7154969896774 469.9669410122745,427.65426661192964 467.7692845453306,424.8912947035525 468.7889843197195,421.040488960002 471.07276271666825,418.084038243097 472.67218340565006,417.98497054091035 474.4335053304394,413.9672362205423 474.43239750257806,411.32758632852233 475.36960071914353,410.331499649782 478.8890534841276,408.2591495420977 481.0256245310308,405.9896388834602 484.10638896993527,400.6569370525568 484.04394947712234,397.95619611397376 482.66174607132035,396.8272557706832 479.64662051222564,396.6361673174698 478.388278653665,395.70094019195244 474.30339954839684,394.57240301484853 471.3547601220006,394.5751679819349 470.4705087912541,395.08014105915504 468.5897149682266,399.5994535903102 466.8741736603945,399.88306608622656 465.9336749401798,401.4632948415232 462.7242856937299,401.8556352826341 458.97641261960547,403.9273439959604 454.79592282876314,402.6363875851341 451.57935555990673,398.61974947857766 451.5807492308097,396.2063497240208 452.3862399047104,393.1542037637206 451.45240365616576,389.7413521578792 448.87573780787073,386.602662368368 447.6201768974779,386.26031350149526 444.85616688720086,381.1576403578837 444.93354471027084,378.41667672768244 444.3773385820292,377.3043706241174 445.21863685749315,373.3010614192349 446.10575101614205,373.4813708771379 447.82015627490256,371.88901336572917 446.8005911024025,369.1936148583634 449.8281773332489,368.3217132276261 449.8918578761592,367.6056022478855 451.87826150056236,368.03683999036457 453.3626670193858,366.0772587212008 452.8473806878457,364.1364753741915 454.79846283418146,361.8067308413662 456.4052734294295,358.11706987930336 455.24366099733777,356.434734561735 455.4635420470097,353.12046809401477 457.11193340716903,349.05352020605756 456.5915464895959,347.2866147560144 455.58202522365434,346.9240974385565 450.2568743246398,348.6330074722482 448.368281516036,348.8455945784509 446.22037462194817,350.84886190633256 442.03607563004675,353.5765508289023 440.4731246193563,354.12513591530717 438.572374666396,353.96951258995284 435.81855931065263,352.508476830973 432.76474066228104,352.3678335856372 428.77832925605395,350.3595927288336 424.57450236496817,345.84799654307733 422.44678805438525,344.55800694307925 420.76918608855135,345.97610533000534 420.5548747096833,347.95959667993645 418.8374110025208,350.2368410154394 419.15553279520407,351.8819678792237 416.5342625279156,354.17309844774525 412.9402052975417,353.90133680592476 411.51023369467407,354.64340135727525 407.6153533829255,353.2171720784953 405.1313383775466,355.03715737360756 402.80547189162496,353.07277383169367 398.3980497943571,348.7134425137524 396.2342191673168,348.3129373383232 393.9849643608973,348.81264556349777 393.82774921122984,349.91769347698744 392.4458741115943,349.8003991924469 380.462897863583,346.1974359219399 380.76397386972184,341.9933118789387 379.19427106835747,340.80287846011447 376.27622032862735,339.65849124502563 375.64148242239713,337.13504478681034 375.36117042956425,333.6183026665342 374.337518604521,334.0823836848414 373.08694575826405,333.36108216478135 373.84069221310943,330.8745274507818 371.8617153637226,330.6775237626523 369.7263635034472,331.53438528001334 365.5426338163482,334.6065000417825 360.4003410728256,336.19033037771135 357.56717573299363,335.4645681575603 354.10995856844903,333.10614851795435 348.80320669559273,326.21272516341287 344.36437821080386,323.56112652290994 342.0830311173184,319.9799974746212 340.68266775558646,314.6482678526295 340.34051893726536,307.7187109179971 339.84023734078914,303.3449859155173 339.2860054873453,301.20970822821903 337.50193785975887,297.4848373575338 335.91195922747835,295.32385942217206 336.60578050165674,294.62599539038365 339.9166614038469,293.69374653592 340.26008688768417,293.1927039653564 343.28134776026315,295.348461950314 343.5527284060989,296.6053005953603 344.5080712081349,295.74283511465717 344.6694312956016,297.31580515233145 343.57257962960415,298.8537128302378 343.5624532876253,300.5806975045724 344.69642611674715,301.52762024307503 347.26757091414225,302.4693014018104 347.93029524248476,303.8371934959189 347.4572410208674,305.69880793575635 349.595950763326,307.10220856839385 350.40878238046866,308.5411246109609 349.5163763450291,311.2632803533945 350.0181103648576,314.35869975499975 353.0782386296356,314.8485491883017 353.7397417726852,315.85850586598565 355.9838932498105,315.6559245403638 356.6140118061231,317.3511406742309 355.85070919024264,320.15466153520595 355.8791098091055,321.8214246829376 354.7453044692479,322.56189718369967 356.29936005766734,324.04917857963005 356.43316118211067,322.5658870286326 357.6680923007581,320.6899208868318 360.17928667684515,321.77479260690393 362.0004643937443,320.18294177069345 374.4974850589512,321.99695863102136 373.2145413662924,321.35759230057124 373.3605480228061,320.35486837153337 374.94924867165173,320.45107825294076 374.95494351446575,321.94408336035303 378.8940824072058,322.0619514328107 378.86838928383867,321.1621430236379 380.48465265937364,321.42181265096474 380.48258727692416,317.84392164800227 385.9926442496196,318.0271449988486 381.07664753317493,313.1490746727404 382.55641334929453,311.1185722061291 385.4807070339519,310.9743093043486 382.8898664683175,308.060917946137 380.80516532729933,304.9601866938168 380.88330772298457,301.8523874040246 381.94309497349445,299.58957855386586 383.92001020769413,300.8589371927735 385.42454371119146,301.02695015317227 385.6147505478536,299.6776251932595 388.97023815598726,300.3177627489291 389.2544839607201,301.77900706339415 388.3266114921632,303.63357920346505 390.3814699320827,305.0559506235836 392.0791324385594,304.6197983076738 393.5033095335536,305.47321146368336 393.3921419763555,306.9666814214687 394.8053275277947,307.9939730778776 397.18979738759526,305.131437929501 399.5418414497047,307.0957902465583 399.99798766312375,308.19841589948237 402.4762269049768,308.03516293367045 403.4101164563902,307.42808814009345 404.1151023630592,309.58173648691377 404.17914117348613,311.84148503939343 405.2897412287719,315.0263593024903 402.747064999606,317.25561341231526 402.74382162153745,317.9101066649239 410.6612416982074,318.011295185619 410.6610132604004,316.79437033620184 407.35767194558576,316.71562957333003 407.3131769251823,315.25345252031 410.6260469992891,314.80038903956563 413.3239744807796,315.3928301824284 412.91176326449255,316.7852727709276 410.88937225035716,316.8241275331651 410.7223111884928,318.06218009680265 417.33583253344085,318.158073254858 417.13215866408154,316.1443267471934 418.39268391841244,313.8382718715736 421.5791484919498,311.11654147571835 421.58042671626225,310.0018705471424 424.2026344518678,306.9960626964048 427.555112229892,305.4175912120321 428.9459138795438,306.07653600113724 430.4176122788346,310.4255509880885 431.8714968737826,310.48085731838853 433.2626837701515,311.49768539514275 437.60326483801606,311.6533518548465 436.79750402581425,310.6954621548484 434.55058767919655,310.20378793617397 432.6188929880081,308.1167422979279 434.22915441537015,306.66810651712217 434.55066828365807,304.9078353782046 437.44119651331926,302.3301866065002 437.75952284930503,301.2141791642015 437.1229430702099,299.2853571839254 441.2971586054073,298.6439618176962 441.2979743271841,296.068200227749 439.20729698837755,293.1727451982475 437.7645348721792,290.43943990157345 435.1920206856594,287.8642556156992 432.46299873324034,287.8654427659243 431.18003941476184,286.0926893557994 430.0536092079094,285.9337570899007 429.0909916536296,283.51539618772426 429.7309465480561,282.0708238482614 430.69522471535464,282.07703798428724 431.1781605462192,279.1822512873506 433.4277954788861,279.0296921435636 434.2302790557659,276.45057423170374 434.553510167074,273.72006401444276 433.90533877434973,270.66637737402766 437.123450782978,269.0588429568594 441.2960206343119,267.93679410950733 442.58442213636624,267.13495877210323 443.7083314756915,264.2476313265404 445.7973029296619,262.9617273188171 447.0832435936331,260.22707840587816 447.5685633083915,257.9764796396554 451.10474863736334,253.96537192185713 451.7495370038573,252.35833555424722 453.5120889012661,250.58158210503643 453.5161695676154,248.81367474812873 455.76683887269894,246.56565341094324 455.7664589845484,245.12500916081353 457.2148270281735,245.11873946522576 458.8210372555619,240.7796038711449 462.6798952418671,240.61962540096886 465.8939000565447,240.94174949483408 469.91604738066195,240.13789434248793 471.8474599674821,238.52508666795984 473.7775715300049,238.20974137074109 475.547961018684,239.33573480997325 479.5710581423591,239.80866200763012 479.89098110362767,240.451497751553 482.78725399531857,240.61236325428013 485.52347166667664,242.37817563495662 486.65291248899854,242.2196824074308 486.81475522114766,243.34258451621838 488.74700961848646,244.78472616831925 492.77176768496435,244.29731164983002 494.058234565972,243.16653649551574 494.05895890344965,242.04289881820762 498.4032117159154,242.3604982992515 501.9475483196713,242.9974142374815 505.6533705922944,247.1705943594519 507.1025260620017,247.32749890002037 510.48362985569486,250.0614214256234 511.2862292812308,250.0576779965171 513.3848493163824,247.48229642392994 517.0893345451648,247.8023918981745 519.343733954016,248.76201480643294 525.9483333137599,247.78093987126226 525.9469925821555,249.71248157499042 529.0069462686864,249.06385067172607 531.0995191547303,251.14900375238767 532.2299742264725,253.39214550332792 534.4850489894857,252.26662307491824 536.4167778768737,249.84641318738375 537.8718805186649,249.04171953408058 537.8699798689105,247.43743886833659 537.0642809462945,246.79705689806985 536.7418626149032,242.29253878668317 537.7110141371595,238.7507491508229 539.1586311474537,237.6303310602865 541.4149695641935,234.41080658964813 541.8965521776117,232.64054894891478 541.2495633615349,230.22127181827796 541.0916371429845,227.33047432768262 542.4318789633072,226.04691803413027 542.7611519319935,223.75584019725807 541.1155524527327,223.10038939988044 540.4576404177959,221.79585861433452 540.7845816845703,215.88841894649715 543.4208503074756,212.93289600953221 546.3761475667171,211.60946652755797 548.015629388371,208.64850779340327 549.6658965721263,202.41879430257802 551.313318935101,201.102964043513 552.9572770485449,198.1419242500707 555.257710788402,197.15008047411175 555.2537745346053,190.91824238505308 555.5363432094122,187.2799935286779 553.169688963356,185.9635089410957 551.0479155901194,183.54258610543855 547.202465378551,183.53079587385514 545.7657245221869,184.61034793219198 545.9468649460506,180.75785606080717 544.9009918723198,179.7313584434188 545.3033225358568,178.77959306117555 543.9611583690904,176.4672603177953 541.383010053342,176.33665205258353 538.4620885850717,177.62788736325604 533.3757101493575,174.40423240829182 531.8659413269171,170.7542021728358 527.4371010711387,172.17520075611571 523.729345683357,172.03948157754098 521.007570975742,169.7130706798273 519.8303010987639,169.2891298998819 517.3119779589955,172.141466861823 516.4446444096345,172.47152846701658 515.968399792589,174.14965416629354 516.5722884999816,179.458243616461 514.4320000635446,179.92850906808883 510.15608708013804,178.62036414696695 508.8099488280752,176.34867800779648 510.982353572244,175.50123074863416 512.7026145111101,169.76245256835136 513.9915398016244,166.82392837799205 514.103428738588,164.50452227128676 511.4705624381229,168.1230226806424 513.8755633748696,161.05411593227973 513.4169595516265,159.51333141390398 514.1144694902972,158.64207214269084 513.6350142576512,157.1422923920676 514.8689156282509,155.70732394287018 514.9445958110936,151.6623438007142 517.1245325412169,147.781295713879 518.5200625240873,146.42606675558852 518.5943915812364,144.34204044745775 514.6012640817673,141.31717976117454 513.8089665571289,139.66674995448489 512.1532644970164,139.14274052413884 511.0835099525156,137.65722515723417 510.73535845993763,134.71742378975125 508.1245495505875,133.19819205535885 505.77568030610394,134.44400025055234 501.70280600501644,135.55586419985627 499.8800552462709,135.04400839690595 496.8245413709327,134.93536227596667 493.44891703121453,136.66635320458488 492.01175833233424,136.35589769122657 488.49335157348963,133.44200867690745 487.48653915488165,135.97893901603686 488.15151819793346,136.69050227307275 489.91454798245184,136.41659332796132 490.43008090438724,137.17101252114992 490.4456658984179,140.59173372259318 486.17260275450656,140.9281682037256 481.5692029607377,141.9089713475703 479.93057840140045,141.26183767383998 479.27634893775615,139.29360403454712 477.961873557546,138.96329814306807 477.96064189095074,136.33891163310182 478.6150459150197,134.70100670964723 475.99085261793294,132.7313536172228 475.2003184613896,131.3773067422503 472.9549333759869,130.7034102457717 470.90916390740335,128.63906342654832 467.7957019913057,127.81554693813302 465.97472053648113,126.33178171937527 460.19822682932613,123.65093055215766 458.5270061129456,123.2402164018888 458.39780281732334,121.76048684571447 459.8154032367851,120.04902227493051 456.34012433794436,116.88754647166854 453.10478686000914,117.54457516409445 453.3990877407613,114.77702017643878 450.9318939314749,115.45113138091733 447.35007751745945,117.09000852513202 447.56797728313165,116.10860383379179 451.70309154752,112.39389951499936 454.3286278798225,112.39276267890659 456.2986592661888,109.77132281059073 455.2560335341608,109.25429920158024 454.99263305638976,107.55016421118785 455.71108141129486,106.63815819909325 455.4497533383825,104.06603493098817 455.8016392840733,101.6548713317303 454.29408707371203,100.38565363709324 450.39168232718,98.61544291615417 448.09242983312004,96.97119932960254 448.09225228131936,98.2891478468324 446.12200726075935,100.58452018597245 445.4669484442352,98.29018773050166 444.4890506581649,97.30367610580765 441.528260177866,97.29586025983406 439.56177121402726,96.64077636046864 438.2716242157102,93.95027716450579 438.9066388682567,92.92620734646425 438.90701124583217,87.7809717579853 440.8722804842054,86.80237407830145 441.3573838335081,83.24785665180514 442.84457883759694,79.81050072465575 442.84550198706233,77.28964706900126 445.1408553318502,75.64613328715416 447.0715842899868,75.64807550081878 448.19434951932317,74.20385570571568 447.5701756883958,71.19481179374293 444.92067767284493,67.08231430050478 445.76635227609955,63.168296299378085 446.75805987422575,62.24620140036177 446.687990321015,56.274169512751996 445.1371010066473,52.68745519664503 445.14284082430765,46.12450641554085 444.15357366718376,45.139322362096095 441.85840998000197,41.525083129489644 439.7204055540514,41.04459862735382 436.7376694843694,43.057845310061 435.39156361796216,43.053317212823345 422.38900166882445,32.410774801856746 422.84681267296446,26.173209489267606 410.4761358385964,33.58341293597482 406.10253132376556,27.456289709842622 402.4398802691019,24.01194237079585 398.531478008794,21.302253827869663 394.1199974032844,21.024559569735175 391.1733768511592,22.46412890219699 389.69805890179913,24.90004342416512 384.5432286648848,27.55236355918987 383.8044172782767,29.24007590257031 383.54353969375217,33.63978285306814 383.04524193905775,35.59116117897781 381.32533918769076,36.7918136514711 379.11909750570953,37.02537176445526 375.20730269156707,36.743931596627476 371.78747679529215,35.25633931478933 368.6103171175595,31.819599800637548 365.4378973038172,29.595900841745333 362.5014400865006,29.81154932052607 361.7757922296535,27.619425056862383 362.033212627776,24.93527374906978 359.5981849321291,20.525317587741256 357.89765602448875,16.612393206149818 356.9334385305478,13.075076402714785 353.5178168066865,10.965829612929042 351.32292908639135,8.504285506543624 346.5045572760894,4.512021937763052 344.98922613312453,0.6391888097731453 340.099777881157,0.11634152947601706 324.44855235876696,0.0 320.279876470077,0.4531796564966726 316.85235570427363,1.403479676094662 311.9388382054464,5.033082953661619 307.767091025353,9.395007178111882 303.3367383321508,14.726654125941309 298.92696883353653,19.323075624272178 295.48005719022194,21.263657345557363 289.34864686349886,23.66178820559969 287.1398430940002,24.863044832465903 284.4236930311727,30.955440495285302 281.231528752248,34.10925177042316 277.55618739996424,36.02972960225043 271.91309450104666,36.47618519067885 266.2708218371135,35.71828368817785 257.4309565255187,36.15518006415175 253.9891520495624,36.62479640695233 251.295439753786,37.58162026593823 245.86704377143315,44.86536476879826 242.41799038078494,48.02939053125806 238.48530977378823,49.72603526056298 234.55105522600337,50.9214968625281 228.6467269739153,53.33832032569342 222.85660088845052,55.30463410264542 210.4924123125043,55.309393705394314 200.49025677006713,52.50979849189332 197.2086410640983,48.08958175929217 193.3071631310325,41.2409653403879 190.14543355947106,33.90067267044242 183.8137096949263,21.936280900749466 179.6593809664245,17.53976293811411 175.239538375628,16.060885053422908 171.06944320873527,15.807118001238678 168.3745484180531,16.803458433682863 165.395414206984,19.505711639760648 162.69753443791458,21.206297739281126 159.5745507031007,22.06040377710167 156.73402849162906,22.35385512583707 153.32768994583645,21.086594231938307 149.49209830362304,19.115979960878462 148.9264034978795,19.964867901816433 148.49821496737525,24.496152149780187 148.6404116947474,28.18109426364356 147.7622754160528,32.672566635790304 146.76082279697772,35.00275750557864 147.76194409532542,37.32679117457235 146.0933212952718,43.99580816564071 144.75876074125756,46.3255125600582 146.0949207331365,48.98620940057765 147.42672415273333,50.3200514490793 147.43077785822064,51.984361520472476 148.43039394730516,53.6462435417011 147.76300806509593,55.97433962109221 148.42962077605722,57.63703259748809 148.76530766699236,60.6363326322853 149.4350000653751,61.63558708226458 150.0978935335527,64.62513452485621 150.10279677604834,66.62562741997465 148.7656589873489,67.95575118271688 148.09436336773427,70.62131908407002 149.09797379677,71.95594682612216 146.09438750562933,74.2910016293223 147.42738676479544,77.95258100099079 149.43294772112702,78.94857854692941 149.09876124388137,83.27763712218655 149.76595115774398,85.60374506442213 151.10310204594478,86.60135681469808 154.43938246457336,85.92970526166073 155.7104520572521,87.13068858031784 158.1137507628163,82.59193327418848 159.11282912748166,81.58854245424959 163.4718199634259,81.00617135187292 164.70772615205473,83.5353037539951 163.7829127115217,85.24159354734843 164.45362988813366,86.56802196437968 162.78921605053955,87.90931547443745 162.89364390569582,89.91978001558937 162.14358486849056,92.35167715313514 164.78783451724456,99.8906430700514 164.43351627569677,100.28908589218224 166.2217255542501,103.44954797346622 167.99839502054039,108.46863066101548 166.89385177186028,113.99615192513522 166.41269176147188,115.0890240277837 164.3810433612939,116.93234406968281 164.00654085769023,118.6078301016322 160.78248871037545,121.8640521020958 158.77966774525578,122.20525684994016 154.44108700928695,124.88123883401556 150.76740669940654,126.54436232507123 148.1004157848813,130.21695021667415 146.8906501081971,129.3417181132903 145.32452343368854,130.47933353557357 142.0436176456323,136.12438753496724 140.69192343544123,138.97687668700678 140.77795188581388,139.75257948704143 144.71010314142086,141.35632027182191 146.15948429332155,144.59067019082238 147.58378123794174,146.61966216090843 149.12752479677013,150.15031380981316 150.14299378285838,150.87261255083092 149.86833721783316,152.35351604358948 151.98767041897216,156.92452011917942 152.47673205627947,156.5756305315864 154.97636144924815,161.20701697308573 154.32693626745257,161.96407654936945 155.4541628279385,163.39166901044564 155.13517379433594,164.9033680394507 156.70072508692974,165.3085330396582 157.1118839836032,167.4831190816111 159.4455123050602,170.1437632926876 162.78431828275131,169.79792061755586 165.11770034328126,170.4656686473652 165.12357780546424,172.78442740868627 166.78761321277577,172.79042719431663 167.45778314509212,171.46060214775343 168.4583320169659,173.1236287741632 171.46034190893252,174.11681212500673 174.1330305764046,172.10814585988783 174.46370409498908,171.10640612503278 177.13482829105905,170.7722222511877 179.80647857549627,175.095997971957 181.8102379420763,177.0924908065075 183.47726367773487,180.4179700935108 185.4775775408143,181.07736025632664 186.14657771987734,183.74204347914554 186.81550218690862,183.74026016118728 189.81852597945246,181.0759811517787 191.23822305061987,178.90677511198953 192.82150823839402,179.72953828413006 195.1009641621017,178.95767225266036 197.15644964717796,181.39356102883767 196.48921018099657,183.72438681260462 196.48751912015385,187.39174080321368 194.48913837964636,187.0597166736128 192.15268773299215,189.72228165970603 189.47999451469062,187.4004761223208 187.14716029479183,187.06925874436968 184.4775441214795,188.06701982038294 181.80674598212954,190.40308282731576 181.47169891464563,192.40700679115469 180.47466164013085,194.40116602451883 179.47084167283782,200.06395289279487 177.13339196935343,202.06159619573202 174.12812160292745,202.7340974377313 171.79753161207853,201.07453562752517 170.89676275269284,201.45521676928377 168.36874480982436,198.94862505383298 168.78959621571835,198.41579320252538 167.4555725459668,196.75362029364192 162.11446031815893,197.7692924915399 159.63222206178162,200.40106170768604 157.64075931865628,198.6484155632296 155.48106047779322,201.20773484343204 156.99892695382758,202.5218616400997 156.68037908099316,204.23935547414146 159.11026841053305,205.4284857383717 162.78351939983867,209.4138452968258 160.39904213104452,210.98314081168235 160.14587852207134,212.17894677426557 161.62391134635197,213.41132164573207 163.86718185015155,217.52295110460557 167.12227265696697,221.1321805883481 166.78964659090317,223.72789169562327 165.4551498584292,224.72320486748663 159.779394274891,223.7353217877302 159.4435225754673,222.73528406498588 163.44883517543408,221.39713066647266 160.10980419866547,219.73993928203197 157.77540109276964,219.4082967079413 155.43725750728152,217.08510345408763 155.43716292140763,219.41409015942645 157.10580871725764,221.08575563742534 156.77489498321063,222.07722607027995 154.7691856226784,221.75622908377773 153.43404420229552,224.4157349652312 149.42598404195934,227.09197875835434 145.4191784442436,227.42890959247813 144.4220330906663,232.09054856644786 143.75567367390454,232.75683988462606 143.3756638877049,244.06902166874454 142.06262120365193,246.83190786009698 144.18889874819163,250.96580480854163 146.4462588725911,256.52972172526165 145.77597103667992,258.0332828543143 149.90419089542834,258.71866144234514 151.02093488688152,259.9111066753652 153.70438241578933,259.6910698059364 154.59365302289106,258.7685412325691 156.93818332808476,258.7116225051559 160.54724228909384,261.3703599666808 163.00373123908238,261.6198549908138 166.04316263348323,261.04975540367764 170.62049158374154,262.96954175426424 167.08816421354499,264.8077280145093 166.5895159133186,265.6475271491564 167.67278591666394,266.95243028724497 167.9836564841911,268.6491599348675 170.7165182360154,268.02862410026125 171.85985893215312,268.5574460112514 174.9112451973861,268.4984526928383 178.23248172089072,267.37519103038824 180.2698337835358,268.82068580230543 181.3009276757362,271.14823943172337 181.27453556844915,274.0205455676397 178.7653302368137,276.9709305617738 176.61408018705225,278.5615630946169 176.86392024392964,280.5946142081493 177.70230335387046,281.7057924482431 175.66603459951668,284.79805718148543 173.3761078863416,286.66510468325896 173.2089559848863,288.5560684010687 175.08031424468365,290.89171843218867 176.64008794889443,290.83654841654857 179.12334273186323,292.6400893151455 181.35337583963815,293.36030019574207 182.98228919915002,296.4429950130219 184.81538108477764,296.6119993454297 189.549038167362,298.3263287338235 190.444566429953,297.9864732852068 192.00199125207632,299.2094146739631 196.1670387640243,300.9250805857133 197.7594771372855,302.51600899987704 199.89308931765294,302.56131292621546 201.6289118547964,303.92683896986773 202.6855845330403,303.45353504543425 203.96845583817395,306.0665795531585 205.91973577106629,308.2904507599669 207.26059189610686,307.73452078880234 208.79443160272348,308.3949376060134 211.39481004185367,308.33652755917115 213.53940141121876,310.1698986718137 217.0718253226462,310.25193082169585 221.61295639534694,312.7238853466174 223.00492131928647,314.477483372857 223.70108603093382,316.4286496895289 226.154964699742,317.06579748904676 227.60048408493785,318.28872621562107 230.65173037801344,317.46174637130946 233.9912656636511,320.3446330027639 238.29134350820607,320.2910053611607 239.34641539968666,320.85029838466085 243.89655420730568,320.2640229433399 246.66063756749602,322.4133849365402 248.19128507179758,322.30648930017105 249.13797696980015,323.77616645095634 252.15173179552838,325.6166178645768 253.34684002025756,328.30241130050786 254.45029897584078,328.5751298392165 255.49274471100904,330.32057991536 256.89037105671156,330.32649937207157 258.9830041157291,331.37331214537926 261.76779731062925,331.02719989363834 262.11678546674494,330.3307403513803 263.5151660386577,332.07503021002196 262.49517098704786,333.8051407714206 259.12101400646156,341.5362969188077 256.3190997322565,349.3052352627385 255.5586127036456,362.7765252503698 255.66323719278873,371.2944704835485 256.03098879988244,375.1383174681315 255.76655359766528,385.1018079760107 255.1059622699003,391.52703477558623 252.60070709582854,394.02984033965436 249.66185647347834,399.1530482110552 244.05440177771254,404.4171581863351 241.19321674145223,413.35680151739746 238.2004420681271,424.6385087124597 235.02196043487024,433.85505152091366 226.08155035641727,445.99494757974503 220.3726025334114,458.00371372826464 214.39100792630495,470.01301718503953 210.63190750822037,473.91319315695523 203.52627975792683,479.4074936121724 196.383859720899,485.7720461602462 190.02757970657234,488.3570265637179 181.92508662982922,490.8555659643381 176.70665424488854,489.10897943886494 173.9591016834467,485.4411397124786 170.74359070171823,479.68838026835556 167.2005441128231,474.50902825639207 162.93361373574874,471.6334914660546 154.4329427088583,470.6523418973783 151.40172961506457,467.0679045133546 147.72966254934963,463.4031452181149 145.04647522694148,458.2723805600624 135.2948904112486,441.40232458769276 132.85292607783356,438.96274186071946 130.63199572726703,440.4212053015224 127.41474515976643,445.1861235287969 122.3519248136365,449.74038906057694" /><circle cx="369.41359792112837" cy="317.22911364896095" fill="rgb(100%,100%,100%)" r="16" stroke="grey" stroke-width="8" /></svg>