<?xml version="1.0" encoding="utf-8" ?>
<svg baseProfile="full" height="1024" version="1.1" width="1024" xmlns="http://www.w3.org/2000/svg" xmlns:ev="http://www.w3.org/2001/xml-events" xmlns:xlink="http://www.w3.org/1999/xlink"><defs /><polygon fill="black" points="245.6288141014375,724.5631346790697 248.35925980011228,725.3799127409045 250.88989389596645,724.6767096007014 252.7079581157891,723.1553366564149 254.0146946900736,718.5022967259865 254.42562523318452,712.1204462324476 257.45401273669984,707.6648249868401 262.00463450424087,705.2454751211952 263.82233507490275,705.8587446970052 268.62810850219853,711.9460898536045 272.7677553461401,712.5565223250428 278.1209172862308,715.8171976878225 279.23420930096626,718.7504268272905 277.9211027086712,721.689260782967 278.73212443939775,723.0107271359539 283.6791454000101,722.4048852617905 295.15679667558095,721.9306356843176 302.03436899495273,719.7103613826234 308.4932778052075,716.7846306768195 314.96933088018085,715.4819221040725 317.49319373289535,716.1999135566737 323.611012849163,720.0596075284811 326.6394551427044,720.0597940966829 324.7209882976374,711.2434317586573 325.12961800034793,707.8997835541015 328.0117919108489,696.1626471294949 328.0038139814743,694.2328312876948 325.3783454210042,689.4775652751102 326.69448760336417,686.9463724520049 332.96055365000046,683.1074707992274 337.5640501925401,680.9799553035627 340.29628770652727,676.9321211705453 341.4066960914337,677.4395483057356 343.82922683170733,686.5642903330942 344.9417065145158,687.2748268598659 348.58788835548336,686.5680306012044 350.91531823746084,684.9513164785305 357.69749360192884,677.5618769890971 362.1451619031509,672.1971829116266 363.1546289238858,669.7720934700701 364.01058454045284,662.2803124743333 363.10607541603196,659.7517303631697 365.42819717467415,656.7128249915959 367.56070934191393,654.9857476974862 371.20261405643515,654.0753820195912 374.1298802240471,656.2088591509469 375.7797756537036,656.4164538704159 377.33413630602763,654.409611548496 378.9929478714305,650.3929706573185 379.3970787437261,641.7602779323229 381.801064745302,635.7571306334421 382.354426313962,632.6657648084049 382.5754549050961,621.2030411192815 383.68099741069585,617.2339442308055 385.2265015595666,616.242856643754 388.0215231981884,617.5140541617791 389.9589898024919,616.905997995951 397.12986812500367,624.0696084619526 403.3006282317234,627.2659558741618 407.93174905175397,628.0417871127545 414.1582237187265,626.7591270628716 421.9029818570838,632.7601151683214 430.36190422120296,632.7026297953012 440.0281672448267,630.6234675958344 446.4532589761937,627.7650015973715 456.1115767413486,624.0703656082813 463.7990514781645,626.4258002214553 477.5732240925939,637.5696253737408 485.2972877251944,649.1621693248162 495.83050433837064,658.3093796941071 501.13966800200063,668.7204351208002 503.5984703255252,676.7362915691235 502.03585868271244,685.5972952923973 498.83546145475884,691.6526090254586 495.2309719157356,696.097431206725 494.4669201118063,704.1494601791167 494.53756614983934,714.5884139450743 492.92978778171414,719.4287014714503 487.3005791874825,722.2818895111263 482.57759609814156,721.7732729416929 466.3405946044191,725.2649827909945 454.65088468608445,726.972323565084 446.20351174951895,730.645261647465 443.7969188179047,733.4846170472235 444.26348279701426,741.9193266339244 447.1147861485656,750.3415154432644 457.2461666837518,761.9171780500177 469.41414558368365,772.2730737421123 484.7948585887222,781.3858745427037 494.92609110831717,787.7390259280214 503.02297665279576,793.3025361956104 511.5031367474954,796.4430345880136 515.5675328343436,799.2225781427164 520.8299778726781,804.0031815897892 523.301973325339,812.0239334508188 522.5482782919103,822.883301390354 525.4212772404273,832.9032335908064 526.6750464935868,840.9283200684717 525.9301700840947,850.5809184193131 523.9735199119978,861.0486581865658 520.7884657068574,871.5313136199903 513.2019079809908,885.2642121637832 500.77573049483635,903.4493132876402 498.3634418471767,906.7796674506119 498.1730870896664,911.051374695952 496.40900134979336,916.782856078544 494.28862717165487,919.6932369018554 488.4265055822628,922.3471894983396 487.4541459624706,923.4047375976667 482.7793891718486,932.8287388971819 482.7143132392622,935.5439331235008 483.8858697071254,939.750462300586 483.1853729732133,942.3199872667717 480.8507129295817,946.2797212111708 481.0862972075786,950.1213312196246 480.6177056769038,952.331137630209 478.7517312189492,956.1843301077076 479.57365947167824,960.254449397697 480.03602796271497,968.2932658274642 478.40227099929893,971.6746557080301 476.6258690993394,973.3727861571505 475.91480551781336,975.8513107075532 476.8538579166066,978.4333653335035 480.825209072236,978.0063769410694 482.85154718075034,980.6190050576547 484.47291277992093,987.6281117991452 484.54841049655477,990.9425062791768 483.7191470918589,993.910911083528 484.79177611711094,996.554573568119 490.82595103185054,999.1756824947071 492.73373958678553,999.2571055725039 497.19557324674975,997.766837051492 499.5989376478981,996.2755343575367 505.29570143963934,991.2326014311234 508.5204813097825,989.897064756874 512.2474135995383,990.5473433998103 515.3895955368763,992.0094005916789 517.1981829590867,994.5014326560182 516.6247149061212,995.4952996385182 512.4898364118349,997.8984669922183 512.4867046366338,1000.5324551619741 513.8915931189464,1002.5121914737214 516.1282400473258,1002.6704351500204 519.7098258336049,1000.2223309941294 524.9656801715988,993.421708336108 527.645971988249,990.9831158981007 529.7628743760481,991.4892426908848 533.0287092162586,993.9759583366584 535.5256598387132,994.6723238251542 537.6377274992954,993.7125716996884 540.5784327024962,989.8068813101147 544.169726946623,987.4387505977207 546.7274403404759,989.852353367821 549.0357749975474,996.6206565993283 550.0277371514564,1003.9741690647411 551.5627676086265,1004.6685238784997 556.2330802286737,1002.55289665944 558.5336890453456,1004.8465667722372 560.8479937448271,1004.5270916841564 563.1477000350625,1000.3005477158447 564.236343255196,1001.4480208562912 565.2528806131279,1005.2828071428205 563.1442717730953,1008.4179633672134 563.3383321464142,1009.3107677799153 569.3245388280828,1013.96506774444 573.806857494314,1014.2101167651715 577.838582766141,1016.3724705860869 581.7356108356109,1015.6587961243963 583.7180721570732,1014.1325415256877 585.400135409783,1010.441433821402 586.9370470369065,1008.6030700153516 590.1108892291948,1006.3507797436903 592.0522462181016,1005.7811145617839 597.9281413784126,1006.0714513408906 602.3033495111162,1004.1401082758155 603.7918110368123,1000.634861124429 606.3313528347933,998.5329627551419 613.6787248553537,998.4403622809531 620.7807574367325,995.5533315688645 621.8311606365985,994.2402793872401 622.0916773005381,989.070864544101 621.5613091376205,986.6249311600867 618.2414612192305,983.0421617410772 619.771171755067,978.662374244104 623.6191182479452,976.3003345899007 630.2712174810622,976.3882649387164 632.6317296554257,975.7714073437618 635.0012016176055,973.3242470928897 635.0839546404902,969.7330212179589 634.1200551085996,967.9032404968946 630.0125628305185,964.3996301757081 630.1899453877626,962.8214043907775 632.2823888862404,962.1270045254053 633.4701864961438,960.2834081869165 632.8571084967954,958.5407274463728 634.1662789656345,956.5241194274695 637.4885143482205,954.9505723990306 640.2064338257762,951.4520629543307 641.6918113260406,947.7748524768356 641.780446556784,945.6792103952557 639.7183123642047,940.0789667830908 640.9450854352446,938.9371669654553 646.9015623928144,938.2389810493496 650.6563559084572,936.8441545562262 657.7400179133417,933.5494949871339 661.4251934198655,933.3146595742496 663.5123045485196,933.9615161343958 665.1034233156126,929.7539598358175 668.2432013129014,929.2099997297329 670.7768241864899,927.6851821591254 672.1386532824508,925.820044513238 675.8590765838127,917.0132255410807 675.5190729867181,912.4407678060579 674.5042691381387,909.7290609752006 674.3388793670504,906.8937170772932 676.8762689062364,899.5050960828794 676.0755856438219,892.214536479376 674.5473761509558,883.2860581365655 673.992458202713,871.5826406619449 677.1525594923714,865.7227573243958 685.397635531696,862.1717806640771 692.8754354641869,865.8048755061529 700.766000405299,868.6710129286458 707.5554391351511,869.4550522453266 713.760561655346,866.5975226024248 718.5171520394696,860.8284684836789 724.0467659978798,855.5195379418471 731.8754320800488,852.356733215098 739.2106230294031,850.7652394760194 748.9337449460496,849.318372218921 759.0256465654543,848.7002735512505 764.7101712300839,847.82814632411 772.916060346058,837.8406997148763 776.9852910311738,829.63156554106 785.0413182040502,822.4599132682542 792.140820348271,817.6482377405406 797.4245444519312,816.750186519088 801.8160522257213,817.4181927415156 806.0204053493585,821.279567745624 810.3559867146726,829.9768112819623 816.1710317386629,833.9408430263338 824.519387626012,835.6368640046023 832.1854625713697,835.2777282338608 842.634800421348,835.4739826711036 849.7800286981065,830.2619829416777 855.0944773380235,828.5597928660787 858.6606001441899,829.5713747791809 860.868893555869,833.3147138290271 862.1701275952913,839.0205587375556 862.5778864735296,846.2824057139148 861.8979366334885,858.2956545016367 865.2060909455146,862.3404597723215 866.5183529563972,865.6676135901605 867.5535865167972,872.2927940875707 869.0185364227884,877.0822683819483 871.7988413311385,879.954847335883 875.8299963527389,881.9884560146913 878.105851711655,882.1016838320933 880.0973159414652,879.962538781727 882.6544202177836,866.6136316543077 882.9732569777258,859.4739846245091 884.6338801347937,856.2512636950398 885.792077480995,855.5150080220792 891.414713728651,860.3620936185639 894.0212265601486,861.4587822797821 897.1824220250087,861.2452717974843 900.8535892645347,859.0337548785037 905.8878829424148,853.8062009261557 909.8847218182162,854.7500859970111 911.6693147847674,857.3598320082509 913.4692143408995,857.9883990993088 917.9174626081253,858.2152366787863 921.0510277313683,857.3115844017807 924.5770415701826,853.4234940653957 925.2123987826136,849.5427071378261 927.4612953479024,841.150251854341 929.6800117712677,839.2808472376021 932.2666605882947,839.6854183125392 940.6052216724478,843.0335783958319 944.0067039558523,843.8022908045782 953.767084235482,845.311642143103 956.3351455779288,845.1153602775577 963.1755146419392,842.6791832394097 968.5308994312493,840.2008671944745 970.0466970259661,838.5538520679779 969.9507861668719,835.9943344407743 967.9669066377111,830.7253293819944 966.3531190083862,824.749099689567 965.5417430446087,819.8623546739149 965.6012523075897,813.4281161062555 964.1471379948941,803.2950953110931 955.4587076794924,792.7589483170328 943.5496910589392,781.6546902769417 934.1144737840765,770.2743683839617 924.0880092272932,762.0837992212175 919.0054598244237,752.1408387233901 916.6781208825059,743.1608019733042 916.1807525906394,730.6611899449822 917.7773106745999,716.2780395788186 922.7032343881342,707.7021667165684 934.1332918184031,705.1182338070821 950.2074032734419,699.1609811007368 955.7202351965644,694.2337671384474 956.779817169846,689.8637822306391 954.3627365363649,675.6568284364521 951.2411164073017,666.2320651556225 941.8423564560997,654.0583867284511 934.7237659361377,644.016201336894 926.0285250139681,633.883812149224 921.6040362587561,626.3969478190268 921.2293121692971,618.7369537489061 923.5771738626905,612.8284166789845 929.0226405916952,609.1147767362734 935.6055383071657,607.0589625910804 945.1823104307449,608.792883717784 959.4038478333442,614.3838461526339 974.1687020490674,617.6002504818196 981.871962232206,616.8084948067618 986.1385090875181,613.0159169420183 990.0519484745535,608.0000430423131 994.5314031646518,600.1950104046193 996.2371659920585,591.4318317189109 994.9996945377223,584.5259345078608 991.2554292163406,579.1036526743358 980.3502621169501,572.0823040999948 975.382886049851,566.9912018766148 971.4999272584648,557.1266096718955 967.7125669962899,545.2621243512258 966.619165513355,535.9492570344883 967.9507437958929,526.7796225198604 973.6823431142556,503.2132795387024 976.161159689201,500.5023172067272 981.2156231348876,497.5838041907141 986.4064331272451,495.08898020165884 991.7802414141655,493.2431743186369 997.927676891901,491.82129710956815 1004.7046898164599,491.0003647108032 1014.4493598757773,491.0940143543344 1023.044418757424,493.0471289088349 1024.0,490.4278213064199 1021.5644996399848,486.46163536461995 1020.8934996742721,484.4124947613765 1019.7891258771729,473.7739024852357 1017.3894474559951,467.93294291244774 1015.9534112034687,461.45893032710956 1010.9139542942645,456.9110417077143 1006.6697620715789,454.5033876018813 1005.4084961385794,452.67405721600414 1002.4533567501645,445.6632837899507 1002.591783161988,443.78543435099834 1004.27682267862,441.44022084722735 1008.911313396711,437.89937612341464 1011.3719006381849,434.62933216017666 1009.1197253922535,430.56247553638434 1005.9580592865019,428.11929178604987 1003.4716163173256,427.82853998950964 997.4360327223218,428.25431142259333 994.650837051675,427.8658407347981 989.6145528239015,425.7924714507724 983.3232227315309,424.54665217523075 979.7567646499493,422.31337679144985 974.3887542147244,416.68473231155997 971.4267535348239,416.80449464003266 964.941457123316,423.3711102326997 960.592303916508,431.4612992526294 957.8910021485985,435.90913460185334 951.2671171717288,444.4651000893348 942.7265124434872,454.19313416160173 938.2343606731306,458.61322123426964 936.117945252365,460.0806076158649 934.0868293285627,458.76883422533297 933.3127290587502,456.61744275797435 931.0006139791179,445.428568422599 930.2860102115424,439.22145754816165 930.6074247848511,437.2292207602702 932.9253327318222,433.19141939379267 936.1282965922435,428.71816243598334 937.4677884113593,424.9067364043957 936.5753232161555,422.2717086925784 929.4332691151133,419.27137917372 926.2622388013958,416.7272301437265 922.2428126047954,412.5195129845248 917.1063482728304,404.88955863880597 912.9873140137526,395.3493686089146 911.3227268346475,385.2204106629265 909.8750247460994,378.2520126478802 909.4133789939551,374.2117981157023 910.0398996950695,370.5236135313503 904.7680790609406,368.09736652679214 902.7315451426382,365.5487688153718 898.8050174350922,363.72334838787265 892.4256907381578,362.5581455573133 888.1004726703649,360.7078505384942 882.2513991518641,357.1638893727818 879.2554831214624,352.96331812066535 876.7764265289952,346.8013571629656 872.687017151133,340.93312131712423 867.2224384586602,337.8094833247891 855.9619388366499,337.5668302830976 854.0047651322133,336.2936525620331 853.6141321214761,338.5178220216119 850.6160946209751,339.75198218565686 850.7269852383507,341.26218382817365 840.9307902240519,342.1053915029007 831.9222105937486,347.9249108534726 814.2956698910358,341.00711733110074 793.2293985116243,328.43591151458986 781.6567886398809,316.74824957276223 779.1995221550336,312.1963516303241 763.3328666908286,325.15161281066526 750.0128451649326,328.5061375026918 751.9008103229667,354.6263907494275 765.786544894428,358.9803981089143 744.9144233227653,367.414421376165 742.0183796144424,385.75075652696523 726.2966623845118,390.19714091854087 700.6641347797249,368.9566905465397 688.297633607111,353.77351641955295 686.4441233693152,350.7652444096228 686.0078648606168,346.755979716492 683.5814702259485,341.8768287867091 678.7121923510709,339.5834386833012 673.6335168226481,332.41451910824105 669.3351792904174,327.3976966373506 666.0495299187222,321.5160233265116 666.119431298538,306.4139944174167 664.9481184985798,304.0561460554187 663.2847335991054,303.2733427614256 660.1365744045106,303.9492556589578 657.0974812825746,306.1126000273031 653.6745448191482,309.53789612542016 647.079735204448,311.47952649611716 644.0620028462833,313.7632517668228 640.4835530512312,315.2039256907767 636.8994653846951,315.3467623438564 633.8974644553772,305.6011127811406 630.7472778164,299.86971878759834 630.1722999901655,296.00558853712005 636.7580031301338,288.8452638617912 639.6276084481553,284.4037823225617 639.7655560713122,281.2513044196744 639.0548722504252,277.2363745634883 635.3263760883505,271.7972111284379 635.040345053175,269.92643279908725 636.1844393182828,268.2108429030269 639.6266278791121,266.4985408013871 644.2063368941599,265.2091513392696 647.7491391170769,265.21022521128407 652.4250909188033,263.37130797820157 657.8788765103022,261.79821199826495 662.0724760894079,259.7036843414935 664.1881750544337,257.2777471128628 666.5491215661218,253.0746672356845 669.5221091357747,246.27219739478937 673.9693258675187,239.83772700852376 675.7105480909335,239.4722751919753 677.7212080154425,241.12136337133154 680.2779181262298,236.2782395479361 679.6380516683407,233.9860464574059 676.3433120424498,233.3363864811871 673.6072069165335,234.1583844060208 670.9507286495867,233.1456008892452 672.4196338196155,228.6603543211893 673.2884931937404,222.6232948519597 672.5567186731108,216.85719864736757 671.4550495140724,216.02938544112533 668.8046930157243,218.04484020058874 667.3374931211288,215.75352978642036 667.9807144079525,205.31237785028475 669.0760645638635,202.01726797002993 668.84361613818,198.76746496030216 667.0401611427696,195.50801210102236 667.0852900077798,194.17985267456572 671.0724516983487,194.64988127031484 672.6655332111441,192.96028680300572 673.5364062526918,194.14459669024836 672.1188734215602,197.80782771151382 674.223583642435,202.34229638432157 676.3696094463191,202.43796907984938 677.7482573822924,199.96968352495787 680.696684055154,196.3497059972923 684.1234725131617,193.47368257522737 686.5003367214598,190.73083249603246 688.0116611173067,190.82509547446568 688.5570064703412,193.80672353329805 689.9314859666717,196.13925914964227 692.6741541600576,195.0033935769926 691.8950789907325,189.49186007160165 698.8746490543666,181.5694419922554 691.4270206859682,172.40093217943775 703.1305089420093,168.6768048733336 715.916168842469,166.7921035684543 718.7466685335786,168.7532215230931 719.778244538412,165.41998046389403 724.0609576252923,166.83641181252472 725.4356116937552,164.88622535923957 724.7668696330113,163.58761578918416 722.7875378100883,143.26562909290567 723.6818378453899,134.47622820771892 727.7672248741488,126.26498447160452 734.319250008795,116.99221927046688 744.7104285443706,110.65029624591523 763.9468123273942,93.49779610731139 765.3808238751993,88.09420881855965 763.4018118275089,81.47651515475764 765.1877412239195,75.6237174949789 766.6435843017913,73.79477287275495 770.0027865175975,71.52559842241271 771.5100830374079,67.18423628465439 771.3441913809555,63.67438525169155 772.1827083545355,60.444708420547386 776.3066076546614,56.5580663012239 778.2729254700564,53.9222638110225 774.0828400745717,50.77547098648404 770.2893929482206,46.63058398954263 762.7565148071161,40.42780927778699 757.5788586197443,37.30327547900447 754.1209923435599,34.7549221486679 752.7492684042687,31.865809492394874 750.515402174112,25.17404449236267 749.0909068347793,19.472546550907964 744.4288911666881,6.79891655991355 742.342934877251,3.0303801930946292 739.5930653702654,0.7552009600648262 736.871001911954,0.0 733.2732078675037,0.06282423878315058 729.6743337260211,0.9365623931696518 726.3978788131367,2.3931119342827287 721.7970471727938,7.295078687258865 711.7296185807513,14.803974484858713 708.9305571408104,15.15100962442898 706.1892111372073,13.696730304355128 700.6786050703812,8.17509733961117 696.3255062026026,6.538466560151278 690.0926586477834,5.447765247678831 688.07433234666,5.583804759920213 682.3511172115191,9.608280315057868 679.9699070984796,10.860741445377357 676.9670947342075,11.320057107552998 670.3398286777602,11.440155114406593 667.5724807672844,12.89842055838335 659.7077792593499,16.15913178002677 656.6308064749697,18.127039924597398 655.4495369085538,19.96241627550944 655.2396408718438,28.20223399463623 654.0512176870418,29.431656479058347 650.166148697664,26.08603263911766 648.3648493701381,26.3294520260705 645.8996734798452,28.281289049556904 640.7179774930515,35.31420905434129 637.7311586740802,45.915639183985036 636.2736391003665,48.75592942423157 635.9266232294385,51.269843619711196 639.346423045828,56.82804774841554 639.7817457453125,62.74307470399333 638.8939452873683,68.88885876485233 643.9573808552082,79.83308371454916 643.6939741083895,81.64718968610964 640.5530861016169,85.31795720612149 637.2698712143606,91.61229829873332 636.2361831169285,94.84349426523443 636.3972289639704,98.15195460279631 635.6697105967668,101.38135585435941 634.1036315730619,103.6150786411041 631.9114545014443,104.67375199297896 624.2350006365766,102.51496819701902 620.8023027959125,102.0884927179219 618.6057102009263,102.63037262142018 617.6576677654416,105.36479332128499 618.0528878496497,112.31540099491463 619.5301294602043,113.83627158656702 623.7785376327913,114.20261928001685 632.7744078386934,113.17778789551255 635.2768043753521,114.20330406119353 637.6819117633212,119.3178920366912 639.3002942450179,121.59713449940068 644.9379788633607,120.27777206401879 645.7334959852036,122.11111644970435 644.1244292777252,130.30048689147725 639.6847639343376,143.4144904215026 639.3240627778637,151.08491824618307 640.9186944077132,154.78313451329416 641.1808748736406,157.14986296713494 639.5463868478467,162.38293232849708 639.177132254959,170.9361914928145 637.5377871001666,173.0709131111596 636.8998061480756,171.69110275461708 636.6571696340642,162.25516356956302 635.2779505577975,160.37772402402868 631.5044848666001,159.6207856221813 631.0016873461939,162.00683694950578 633.1404520094592,170.55920582499834 631.1181174366087,171.31110904350658 627.9837879565737,166.78105563898941 625.2152665417896,165.65688354556312 622.8209955607523,166.78953671193665 619.9300841677996,170.18374486842674 616.9763110590841,171.6257300623338 612.0675744143527,172.51199618187582 609.684326894934,172.0329977551039 606.9080552445404,173.77580161563674 605.7686519034739,173.27383536690206 604.5098103347607,169.37887864114361 602.5042255954355,168.87448094599233 599.8518430538626,169.8871647110028 597.8382620136739,169.63677109999855 594.6944318827623,163.23050186568219 590.7902675723142,162.72820217767173 586.517459951815,163.86934677439967 582.6081260433641,163.87310889480693 576.5622615362332,159.72881968789795 573.7894226310186,159.982361354016 567.124303579086,161.7576260496587 554.2585953698966,166.55981196236462 550.1068217036794,167.70052929108738 548.7147188192457,169.2151878953805 548.6005457072013,174.49178973165465 547.9600426804258,175.6338145970558 540.4565121843468,180.98330346265925 535.2992734582443,182.50781840915647 532.5261912958723,182.77124937662302 526.9821465676972,181.64812004271323 524.342061315728,180.13752965120693 519.6703575392698,173.86771037611402 516.398876220702,171.48294575818602 509.9662621296048,171.1186378942998 506.4430370622232,171.88550138316702 503.0414148289721,173.40058782071787 494.34213915802536,179.58256295310412 490.4394807997431,181.09230710393535 486.45488877230173,179.7585582928774 483.0091694921872,175.45030944328664 480.36962119515437,165.23987418832826 477.4768428488417,159.09363737788055 476.30261423253205,158.05360622994363 473.80885366876146,157.79654091795408 463.5965373164127,158.8669082734101 457.7044328118882,160.43916450985114 449.05228775670355,164.3784961363092 427.1869184733465,171.5942661435555 413.63899012942835,176.94202336557908 409.39694104133184,179.213690285403 404.8172916671594,180.42565629323553 400.38068924578005,180.73408016191092 399.10853159475494,180.12017914203966 396.6859366208818,176.81222466695328 394.3219639398535,176.17798343024572 389.96455993352527,177.07381515631937 386.4316515525707,176.0258599578665 382.61877249545734,173.2906292142702 381.0432939969434,172.9616757683291 363.9129690362628,175.3947661073853 359.5476416846519,176.5929593746614 357.8621737123725,176.4575720568024 355.25145515225665,173.53806765624165 353.99785044476977,166.7046284971267 351.8752259637472,163.5962845260085 347.51192216523185,159.85362592277488 345.3481297465681,159.9155754422162 342.8448947754702,161.64117383016867 342.2770757278635,165.97093143345614 344.344853606716,170.7612205336826 343.91492771393183,173.641235331502 341.3575598069307,175.1046422641432 337.42499100923476,181.97936587660524 334.9684077641956,185.3051044105299 333.3465004752841,188.44037327920762 331.6280567072162,190.15974824791647 328.063691775416,190.94467868703623 325.0226647482358,188.8276493528931 321.8609033201243,183.92713884406987 318.66251203806706,181.44553975063877 315.03374989518596,181.83681596091776 311.86506202258,180.30754146666095 311.38963094480886,177.65894065448606 309.7403267830607,176.92556739250585 308.81742634890253,173.36015157496172 309.6119468789596,164.95820157524122 307.69446474072754,161.9191875459154 305.58622397467525,163.3671949608679 303.00961270471936,168.12102398863078 299.8258192509488,171.22047893227125 299.3759494781858,177.3825505379275 299.65922651256403,180.27648493954553 293.2998700795488,192.6625488705405 284.55118127418103,202.99792561814525 284.61451189358536,207.4526708829194 284.0155014181306,216.2711031617804 283.1368682543733,218.2148055753372 281.37670843181155,218.74845179948318 276.7718140934299,217.6685253832244 269.707739646589,214.2916173729933 268.2954570797883,216.0687377395709 267.2466192428614,220.55514401911182 268.8181295413638,224.83429217938647 266.8828762748817,227.3957440560672 264.22752829489593,225.09192236775164 262.6422589372731,224.73230088671676 258.74879100985146,226.49100916717066 250.6138445088623,233.02196966776955 247.26554493492262,236.2025637494595 245.14795982605162,239.92135924033812 244.09121828815927,243.81048155760902 244.79660838646626,247.17681003317114 249.73942732682377,252.6728537970231 250.27391038749386,256.21241308694493 249.02868669105513,257.4501295776928 244.91854751216314,258.9181027756382 238.95705707385451,262.19676748936104 237.5470576828859,268.58125256160326 233.1370480043401,271.9466746382477 229.06904258688456,272.64332296089356 223.41317087869928,271.5719129807642 220.2291675851656,272.8065125194747 217.57457727822546,274.9292831795774 214.56316045183283,276.16217689266364 212.8092643018086,275.26780295057654 211.74879505253335,273.14984001956566 211.91855351932975,267.3024872317176 211.5629381204893,265.36011349894386 209.09462022678608,263.40755924974917 203.7849451059169,263.2237743594866 201.12823181462662,264.1081814801437 199.00727381188142,266.579525323235 189.3262476839623,280.85378621157304 185.8455771295217,288.81888729218554 184.61689271809544,290.5726253262361 173.62097102753222,292.9231106535127 164.35409811260214,296.89828138899406 158.0114795132281,297.86607508543545 151.79869891745827,297.3544332034926 148.2881508509659,296.44367974362297 145.46812478372306,293.92605538691794 141.21468013463547,284.18674101593047 139.7921481310771,279.23460606489493 138.91256550111024,274.44925441821476 136.96307292602341,272.1566869232828 132.3579888064876,269.857885804974 111.25549067795616,260.4994763607758 106.42408890823972,259.11269751484906 104.90364905454939,257.97189514423303 100.2146737946831,256.4926560093785 96.96533318653927,252.58059820471124 93.92967605184506,252.13058982365635 89.52679552517118,255.28939695522513 87.29240157123277,255.39975668630245 84.24485296177403,252.48745806642648 81.43530910584721,252.27872542576495 79.97787752553621,253.73952411238906 77.55370416860724,260.1943664237135 75.97625216258633,262.0011520217598 71.80778576474957,262.796859567846 68.9975979779455,266.1744603336738 67.30542881437088,266.4007879997537 62.55965051831185,264.26264903361994 57.8602986872772,263.73512922230884 55.374890537204415,264.52671146778835 53.351219072054384,270.25806141162025 50.88246255853583,272.8514465835225 48.85346360374451,272.0682424567266 49.415779441700266,264.76966787475715 47.84340845786067,262.4117608605218 44.69533719678596,263.2087819495242 41.30539030063899,266.70115315286546 37.25337874435026,266.9382308364251 34.43442127807784,267.8531582400278 29.820199340183425,271.5691787291411 27.789499852486475,276.7433943107485 25.653183028892215,277.6420006793686 22.39528368396663,276.3013227392994 21.487314497907995,272.6120372485907 20.2456401892667,271.8307678691616 14.845456085660498,274.4181283155251 12.252134765937791,274.4202302275569 10.274268959824614,273.4032892333274 4.023437652476516,273.20065345627245 0.0,274.28778227933697 1.1568199626429638,278.4006630158816 1.2724167745213693,282.646384759174 2.7003521152746313,286.22992859599435 4.436011156604679,288.62713048574926 5.906039107500789,294.8668817364261 10.65758242339878,306.41034280597137 14.375519629395523,314.0605316382871 16.863267388793442,318.5493758731126 20.022727965592733,325.2216446680061 21.602238668438016,330.8737281930663 23.418850365305936,339.40281274231234 22.8935052159053,341.36325237282483 20.40533711939571,344.22076804136907 20.96337779273506,347.5311787008743 21.888138857173917,369.22438446373064 24.37172536004653,380.44477707551005 30.07317357992488,389.22705331271595 34.13358378302493,393.61332220825557 36.98746672040517,397.5945387922119 40.23443623356634,399.97884231439946 43.47296048338806,401.1583387642629 47.89689599875497,398.7098546216348 49.889266643081456,393.8668066658722 50.02843029504842,392.2737933703901 64.53532466918728,393.4086616138462 64.88424290208802,400.95866058442095 68.98448873768383,413.38368002085156 72.26091480395844,424.9960720011636 74.72828551522596,432.6190607172947 81.61462342571258,438.58437066679164 89.70752724503727,442.12415180851644 100.24695459131294,450.8768102386674 106.31819058096347,454.4439158337475 110.75972089076892,455.2055821279208 121.63088694228819,451.51181729371694 127.65827888564283,445.4451708108993 137.27693412501077,437.73367504117084 144.93322145021082,436.8759325403788 152.2006439199096,441.6480676430335 159.51031439957106,448.83276251626273 163.99617933482602,461.2665349673382 168.00027306961928,478.07563291630106 165.3267499295965,483.16075141609986 162.5141505518126,490.81437573454025 156.0225678919682,499.88958595264523 154.61815830017048,502.9142407012283 154.68245015950424,514.6503704667518 153.69383338126093,517.3280574389375 155.13922579999422,522.3674333676702 156.21887202385,523.0775431523255 167.72252756688462,524.4051760246041 171.4620810165263,525.3644530977546 178.03009759395408,528.1561452410269 181.55136738205218,535.4391481630705 185.41828208696862,539.0676375784367 198.49766486832758,543.7362711544 206.49200918949248,553.6169916784299 205.56984794832624,555.6744107779002 202.66106372533085,557.3857924881582 196.30982643820246,559.5436485872332 187.7925419745675,560.6562431400487 177.32590484006855,566.7595564861092 175.70024448981187,568.9457537774231 174.70562668488307,578.908674334617 173.43676316389062,595.8071233890923 172.00481556482777,601.542995369306 168.9741436957809,606.7976233849492 167.05680104159347,607.4435220701057 164.34592703527494,606.3207809919181 161.96209440423945,603.774843861668 160.0470368666283,597.8746204149146 162.5987065824847,591.5001425186649 161.95668995483584,589.5865577517659 161.46462963982438,581.442556077034 160.00595418748532,578.4627764837353 157.38958389093906,576.1815548393213 149.51774863877642,575.32878944139 142.70902720735396,576.6272884661228 138.75242525536433,578.0019457777838 136.6602029666805,579.6437799216362 135.72720129101688,581.6308698089955 136.36450838301207,586.5776620084259 134.92650798600496,589.4412969714338 131.8943412060912,592.310185769352 130.4578787869338,595.1842751023089 130.61303104575572,599.0092886133477 136.36082507712112,600.1250142932038 145.45616221270055,602.8255495296696 147.04480789448166,605.5310910125759 146.73213084192102,608.4075937287489 141.4613007388138,610.1581753521419 136.84303901164205,610.8083561301771 133.00479642006584,610.4866549156366 129.49920442834843,604.9153629653695 125.83102117192102,602.9984394225116 120.88278213973676,601.8946801748718 114.97424516965391,601.1038629318148 109.38284730944976,602.5533943614785 107.15044591691226,604.6233890724207 98.20536061368303,608.6285686127085 86.540306520368,612.807196908321 83.18647629902415,615.3645558212583 73.99584179345393,626.5452341819376 73.03560712133037,629.1013398771065 73.19228020284619,633.2415430005477 74.47185280245267,634.5195561301741 80.38225551943447,634.3379803951067 81.82553197275669,635.6145526038123 81.82152017257384,638.8017313073419 80.22979942851289,642.793963654927 80.0635160056562,644.8670211343403 81.02125095613971,646.7764056078029 85.98527488019744,649.6270141884135 87.25702006600187,652.3374786599791 86.13565248633653,654.0929840211477 79.64393454131256,658.025421666263 77.71115513069218,661.899688323067 77.12337392596753,669.7832056133809 78.78853529068428,675.4953919407185 78.54397083965372,677.9035795788697 77.45876129605456,678.9880160053143 77.4587470538634,681.5569830827153 78.87297940418927,683.0474749767275 81.03178923074249,681.7104866377857 80.45217547190562,676.0696401715903 82.36200092618859,673.3320609879554 83.61341009220925,673.8292383702901 84.52532898425375,677.4761624111004 85.89152353469895,679.3627790671405 89.55104629098194,678.8762061366303 91.88051103135447,677.455325656143 92.63240411344547,673.1427401248417 94.20644436642657,671.810605930348 97.44792083272102,675.1222661974427 101.27435191050951,675.2014131684086 101.77108531280571,675.8573277423477 101.44669991502396,685.6159411149933 103.63223483946292,688.836782878233 105.34542966567811,689.3491040552915 109.57463379878007,687.2934323964691 113.23470105594251,688.1145413753168 114.48250354572981,690.5098374104113 113.98311650934414,696.5645046010848 110.33010364108684,704.8617335862752 108.45128845094625,710.0982485060257 109.1197827915216,712.7525061322481 114.18637635898558,712.9835565105225 116.26195578006364,713.8989190193518 119.08926752131102,718.9510135707264 121.91311668581544,721.262503459758 124.06630053822877,724.0876486085181 125.43777336215096,727.5692857768715 125.906839793398,732.1760490099866 135.4047030051459,734.5708087468856 143.7225724682206,737.7057687212991 146.55997035105526,737.9556501989966 148.73516204598863,736.3323262258045 152.53551553589924,730.8647158807589 162.81959269928623,721.5409201140417 166.67059809938104,718.5014545886988 169.09994841387112,717.7897335657158 174.56170171727416,720.8368468049573 176.99949845523992,720.0233806932458 179.6257978686092,717.2888658477405 181.3430427879709,718.1962634766837 182.70954997769508,727.9241205688427 184.22639733634352,730.4584212415041 186.96481915819578,732.1813617367021 190.81196792339264,733.2024883038971 193.5441654189373,733.1987067631122 198.9063555756671,730.8733592945437 213.93436812299214,715.6964187252493 215.34880535935307,713.6730145780393 215.75401790175275,709.9216808480583 213.42553273662577,705.9730869123059 213.82356349654847,703.6438107365777 217.06257461258406,699.7963441361196 218.98705504047504,695.4425832395734 222.32098285246832,694.1316614306295 225.55861598595646,694.5500292954822 231.2221014668237,697.2889701740712 233.14669335768554,699.5249162965788 238.09649518772994,708.1404106126035 238.5070735523871,713.7124887851514 239.261563846555,717.8681193810909 240.7797301660874,720.3021729866306 245.6288141014375,724.5631346790697" /><circle cx="821.2900142739393" cy="568.6805598187568" fill="rgb(100%,100%,100%)" r="16" stroke="grey" stroke-width="8" /></svg>