<?xml version="1.0" encoding="utf-8" ?>
<svg baseProfile="full" height="1024" version="1.1" width="1024" xmlns="http://www.w3.org/2000/svg" xmlns:ev="http://www.w3.org/2001/xml-events" xmlns:xlink="http://www.w3.org/1999/xlink"><defs /><polygon fill="black" points="387.1851176174424,4.341741003364632 383.13482180797763,3.235556246196097 378.870589078853,1.0533890216154305 371.60603386084125,1.4509915398631392 369.1296829115744,3.9282437542268553 369.7286489333394,7.5294559042245055 368.1422066943151,9.160204328606937 358.43539515915074,6.890452079540978 351.2301722939905,5.643277440158499 344.37607880869933,8.39245265787622 338.66210145370286,13.329211494863898 332.5567767415896,12.667487857274523 328.0223541847049,7.245725211855188 319.31582110881584,7.038677562881162 311.43490137437345,10.566314355010945 310.0088743285308,13.095143233869067 311.43510580646625,20.01020617052677 311.90427610280926,32.33249957860221 306.5085262862448,32.71482064909242 302.290935083216,34.24721636557854 300.23469099499147,36.993597173917465 301.6682594439304,39.8531196587719 302.73480763274785,48.48016763675014 306.49489994559985,53.08559471432193 309.4436262902572,58.56003382061738 311.82921259627165,70.19234303833252 307.4899722680873,80.91958764286073 303.33453905745165,79.4305261483762 299.0978224088237,78.85840882866887 295.8454175719912,79.96249616478087 294.14875180265386,83.18459889043231 293.52293054713004,88.05312837056954 294.1418417568916,95.13023330140288 293.9188689423842,100.17606883386657 291.9244020182907,102.50189248205265 279.28248406476246,95.73719765517558 275.1307886210568,91.11571499073602 266.1127068128984,85.46017077114732 260.91392003785495,84.37913596063288 257.1634816991874,86.04410809526996 249.40866376058335,92.10471522473131 245.59541343305904,97.4896222517458 243.78789747749408,101.68135171382119 244.8257768334966,110.48528019238643 247.55639286555368,112.38100324055233 251.55610978844612,116.72819798955311 254.00194458749388,120.73339166077551 251.92058588134154,133.35259323695527 253.2745781398513,140.73511400836765 254.86572889910883,145.50652484255613 252.354659684916,150.74754651934302 250.9032738416143,152.41732238701366 250.48265234831007,155.68990253091818 249.23370422683786,176.02457835243104 243.39138833654383,178.52920932513427 240.67354490141724,181.92616410261064 240.76437126767226,186.7334835044444 248.3084007947008,193.12881580554802 251.76271557326982,196.7784853899626 252.1591347046231,204.5319295253928 250.7441332248841,217.51426679838517 246.79360664652867,220.64478311278367 233.12490809209558,220.8886385115361 231.95744201665585,221.6073958329531 227.70977264908964,221.66966105174834 220.87466651860785,226.62717938921332 215.66490410224273,231.46367626951587 212.21998181118457,231.7894554564515 207.47747952105516,230.91365279828335 197.4328833537592,231.65856233987358 195.68018098265276,231.14321741987249 192.00719222281782,226.0458625481623 188.88436233667645,225.18485320102297 184.47317804193668,225.99831730259393 181.6258585360015,223.5181576214909 178.3649517887489,223.79767232249537 176.46056872834748,225.85516813153777 174.14749961999098,225.05124188600234 172.45278654363977,221.6563432070576 169.476690586371,221.9937282175406 165.81005505763824,218.9618832052695 162.85156589071144,217.99438977674413 159.49199693289623,218.70868794071066 159.43639861522405,217.11547933497422 157.51647927475986,217.1170607375975 156.4336934915361,214.10278238904516 155.4358945436229,215.06532862707866 153.31195127418204,213.3849768733005 152.74192934933916,214.78197328128954 150.0044001581309,213.1097545804405 148.81838155188365,215.0942533020003 147.54115188463354,213.84946050877306 144.65370517025696,214.26801941261522 141.51571869508584,211.84272333099216 140.94451190749277,214.4125041761189 138.15461421258826,216.59564086958585 137.0713349416261,220.04689226526477 134.0236415323652,221.43209293207258 134.7526690025413,222.50980885784327 131.35639312008462,222.7704522273043 133.41713351344603,224.772138323714 130.73569582460456,228.25984294319414 130.33543650824882,232.39656746054857 130.55401537312605,238.49800928428044 133.11058839912585,253.44297586795278 134.1857746381666,261.9163874956712 136.80544105336486,271.2271844833691 138.48854904928746,289.36460731240015 138.0950778216351,299.19911005902384 138.91929502237198,301.8794904429957 139.32804955587343,314.20229816353105 141.83863343373886,320.3813059748335 141.64633482543948,329.9673814330729 134.49989732246837,331.26822498729007 129.48772084052337,338.35306962607785 126.3730840686596,341.6228680249611 124.8591736959605,344.445011127092 128.86204643820133,353.05057281451695 126.10793054736287,359.32842199667004 126.23837964557138,364.3536657488389 128.43610488231366,368.66841299675207 128.43346633786524,375.06713138680334 127.41861670294118,380.3704565426698 127.35090248815614,385.1032200509836 133.52450829570623,392.76763039778575 139.1420566230949,406.3272400926172 142.23007973916555,413.2097383832469 146.10363579954733,414.99713663932505 146.97472277260655,418.1000547020128 151.285521236653,417.4433952883784 153.17126551516228,420.0048813386313 154.52516449180035,423.4177869968523 153.96088974075903,427.06906212659817 157.6543786185909,428.50069449111913 158.84125217797657,431.8454484543993 159.3613735581666,436.78523344143275 158.62036573273002,440.30576696560433 161.75787859483336,444.21569032884406 161.8903891815976,446.83657409928173 159.9859496172195,457.93169304598985 153.17835426228731,460.5642184828656 139.07724151908937,467.02342894791525 135.3593370487744,465.80851993515626 131.38424364484092,466.2343846816 126.62370256472181,468.0402671340455 112.30802361638706,478.85364713543504 108.44688574199506,487.45005087101265 106.0103854289498,489.4443333373995 88.8827139453468,494.27152677976153 76.57893287405732,493.22449454200216 53.96185240384473,480.7642048024928 46.46145401374398,479.1663852974897 48.16801286321752,483.32783058230757 46.94992937227594,490.1487867645491 52.817079802551994,484.22986081994213 60.02188595478523,487.98524913105655 68.50390076707185,491.1830977707964 71.5548817843174,494.58142202151544 69.86443103326964,502.32770733495954 81.94086979005367,503.7900682859985 83.2739164739866,510.73825242753253 86.45356622604152,513.0546921453247 89.08180538867708,516.2124752852724 86.79252308798374,526.719226999197 79.913830227847,530.5773776586849 68.53177395358196,531.7266293725027 61.55835392645912,536.4403204337337 59.67646930561202,543.8411241163941 59.85749225588107,552.1568152780445 60.77252794152738,556.249815024778 60.79147155738769,560.430070836861 59.42786607456639,565.5580808148195 60.39510402197219,569.2714846495052 61.3858081886758,578.088673272532 62.83521725244928,585.0573691231198 60.187606459844126,608.7854342972973 60.235575075414395,612.9652074147981 59.34840245278523,618.5615378361812 55.234443197045714,630.688779923464 48.31179585619291,640.0472550407874 45.070571229508495,641.9338471233523 29.730047154325916,647.2122239763369 20.426227120585764,648.6998809012491 8.808765501756943,651.6006559610339 4.631109413345221,653.0373633771964 0.0,657.2599288379839 1.4254281037704546,662.8216885598094 5.177691263505662,666.0481595692249 20.11130718149323,669.6153083287182 29.894587803761873,669.9855710006295 37.346903251625484,669.9101992126282 43.413358843813036,671.7098013856958 46.74503931108224,680.9799640971212 47.24895494920269,685.618304539912 50.08804962216155,693.9604948214348 53.407851064125055,699.9657455784638 55.303030827030035,705.519691950275 58.60043867616741,712.4629974566857 60.98164757530969,718.4851227462484 62.140359244069856,718.7967759776236 63.89817122992028,724.847049148532 64.43324206819216,724.1073193349745 74.0830059004584,720.1207742256076 87.47642165245841,718.6883092086468 97.95558851592534,719.4995915806267 100.19281328453047,707.4159738023473 106.9312508645716,711.4185500270207 111.18798746346529,719.6660688702959 112.83140542447389,743.8052358180053 124.85825815343621,754.9988262032693 129.2880633272243,758.720294718839 134.07772911399863,759.3732642298495 138.18998986309833,757.4000257571427 141.25856633364,753.7930269767534 142.59655617689964,750.7916124178012 142.3784398062555,740.4166113335882 144.12859118693788,738.0910053184942 153.38302153331003,736.8978284391555 160.75903948728376,730.7666327763452 166.54647232638908,727.4039103595503 175.82865201675966,727.8173489790504 180.13370011791477,729.3642844703027 194.92379332681645,737.2181078303338 198.07894015633053,739.494781294979 199.3350325390822,746.2248547458528 197.81172685665473,750.394508770385 196.49905453598635,758.9701771973837 196.76808203880722,759.8832460127976 202.0689761602687,760.1147340578684 205.05352537576053,762.6210206210409 207.89587348279622,766.5637134972271 213.9879767397876,770.1925985372492 220.8234655652445,770.3876755799037 230.3823222503483,766.8237683559046 243.10280690787735,765.8774939744196 248.1854975090179,760.7092166333779 250.22874929164857,755.005014864271 248.83840860969053,747.3497612338471 250.6796440742989,745.3091423584374 254.41905795279308,744.4819395222075 258.47511375454854,739.8979311563098 260.1029447024616,736.2120343797426 263.0048086441423,732.1337081525242 269.1883332006287,729.6683191022818 271.7623964961218,726.4907392467665 275.3317725360759,724.8719634992149 278.3133231574651,725.4710708513317 281.5098724881888,728.4059803918815 283.2112394444856,734.1273812093166 283.42876064932517,742.8012098509319 282.0844214164862,754.4915846204412 278.6708793661642,758.931429777457 275.214692683938,759.1871105574223 272.9878165731755,761.5343633369221 273.1311092994751,765.901053787061 275.236531252591,768.9783198445978 283.89448729292087,768.2323783692839 287.38125647788456,771.5430503723996 287.80396008315336,774.485019963745 285.9469986645073,781.8980966386277 286.79662945578247,788.7279046546207 296.3803667365579,791.6885304860792 302.42718724359224,792.5322454548 304.1211980615043,791.0081250616739 304.80186952316626,788.5109830778027 306.822928547087,786.6611424620827 309.8814350046154,785.4962086061963 313.7387135909412,788.0687733178827 313.7317745403309,797.7694240827436 317.40979892885696,799.0871418212854 323.79196736427957,797.1938577600084 329.5465745227816,791.9690327826805 329.97815237825756,789.2715271714094 336.3276434460992,784.4493235568295 340.8434765124143,783.85395442507 347.7375589158326,781.7543558008615 351.72083645202565,781.9944856425936 364.8825670252078,780.5256130000565 367.22871520972086,779.3499471261093 367.52072813733565,777.623021830944 365.76544812854274,767.3556674026769 368.63499827405786,766.5009290100802 370.40095652939345,769.0990532175733 375.45281107850263,774.5033891822266 379.5094252472913,775.1123011469907 384.5465363296711,771.3324355967229 382.7635986444972,765.0764361488068 383.6371610356533,761.9171760478343 385.82878120155584,759.299703422166 390.60940946194944,757.7199751428907 394.0444904157376,757.9182437452644 402.5171595711202,757.2002932401246 405.1030980527817,757.5755343222576 407.9588690419907,755.4847524119305 414.7346610781218,753.3846184243223 424.70053493116524,746.5355676777331 428.0584323150468,753.4233340811479 427.41910624957757,757.5489485134344 419.5942710872894,763.2233820622125 411.6403821952217,768.3244667523894 408.549332536662,776.4620160430394 405.5641184288052,777.3721117328162 406.8099371245207,783.0824882578254 406.71224763110655,793.4758104539029 409.1331186628135,803.7026737505257 410.0219892346025,811.3154061583198 406.3851522727671,811.8866655919869 402.8529621634996,808.9901138049696 395.53711420360884,814.4192746175825 392.14516313979794,818.9358814897984 391.75964511114694,823.0243715755837 397.84237986319323,826.3721176052985 405.985148608121,826.7944258605579 412.11540115273345,826.1483249568616 415.21498578113943,823.4333025116753 416.0213110569288,819.8821110068966 419.50539707776875,816.2303573636982 423.35846325644843,816.234304360333 422.7323957669749,827.6398231912381 436.7772657031349,834.3702678539971 440.1364863820767,832.9364391396915 440.52286546025056,819.7099894669412 446.3941591239768,817.1814789443577 447.4597976877554,818.2439625949788 450.2279816014497,817.2561065453285 452.6903363557016,819.8510772530884 456.3185550256574,817.1865281732737 462.17495688239836,818.2047309977573 465.23018781126285,816.7779434488652 469.5427830393665,818.4640295644065 471.8768082815539,816.1528465740203 475.12286542318867,816.0735538162182 477.02676832391694,825.1018471281092 482.4125540400386,835.6669833783149 489.9626977051465,844.2660302157298 500.81922254623373,854.410630905162 524.7212511888544,877.6233836508346 528.9341901848106,884.9536745003343 530.554261480993,902.1403200857541 542.7721578882572,919.4955045656111 551.3655170964524,923.391573809892 565.0915214706824,922.1981746140885 570.2898391993723,923.9688796002137 581.5886175666664,922.7770211314985 591.7131908879645,917.3868807257358 596.1114777809818,911.9379090268087 598.5033305295874,901.863314427477 608.2950069752695,901.7413674341275 611.673276613396,900.3060568114097 615.4237089424338,897.4071001815987 618.4226636050727,893.5337214569382 621.3135669941224,894.3763294659515 622.778887193456,893.7185104596814 636.6111028291137,898.7590252072088 642.5296842917575,897.6960797213552 652.5907677715871,896.8555488748761 656.60003170263,899.347497473199 658.8671835150755,910.4358590057279 659.065490719375,917.7371148445968 660.3489896680155,923.4394640831439 664.354431725306,932.2275657555263 673.0987298671388,943.2460912368101 680.0390014867605,948.89212657296 694.497944983416,959.7489014025078 697.6301086916841,964.8176768650045 697.047460984621,976.678002558623 699.747462836712,981.2284062159418 699.1027140189397,990.3246823973436 701.0321253390613,1000.0335570135037 703.3509060900576,1004.4778636024876 714.3718174932234,1018.5217804556363 722.9399102383062,1022.6093448888925 729.439204567273,1024.0 734.090259534607,1023.53846312747 737.8053345310609,1020.2751369736577 742.4657696914248,1014.2461600096943 745.733755104139,1009.1336966013316 752.2625203347117,996.1231339822865 755.9775006244419,991.939631830232 764.3472399223807,985.4480261480653 773.6324153013708,980.8158900992016 777.3553270009935,978.0275718825126 785.2521887638715,973.3898541576021 793.6183616233892,966.8968441122511 799.1947922023568,961.3260759020669 805.7028667858023,952.9812888055259 811.2763357369735,949.2780440045531 817.311154167245,943.2436731816956 821.0420998288256,941.8682939503663 826.1219350705672,941.4037709458238 836.330135057992,941.4376654918138 840.0303873137723,940.5061852286751 838.6448464655431,936.3323002324688 834.0199990671686,931.6684949579895 830.324439281252,927.0163014212051 843.3299916113532,905.6724647454663 846.1067718251405,898.2379068224981 847.0623254351933,889.8818161029819 846.2934228784704,885.2133488344016 851.9924126400576,868.5176872126153 853.1184589077726,866.6593727027533 858.2274560384077,863.4196683984719 860.9986695102078,860.1766119585307 868.8776617578202,855.0954687942793 872.5984393569079,851.3871819415956 873.5214353274583,846.7369986367148 873.5253387119209,840.6934186085834 872.1486193383815,836.0373873979164 870.2925845392011,831.8570809657896 866.5882346102164,827.6616797930816 861.9644793023455,825.332580087331 853.6264778724218,818.7978087795833 848.9936709829468,814.1367025294192 846.2288172145588,809.0142863725785 847.1521087820299,805.2941640185375 847.6147704505528,800.1793616099087 851.3244813018191,796.4736917812011 858.8474794135273,789.8764572467735 883.8424705762866,780.7465363391339 884.1359487424237,779.3263869997872 881.0025981390604,773.4096897390597 884.7038657639945,770.2727273659691 887.9801671664507,768.4207655567036 887.6332161966952,762.9536024601292 889.0705347796035,761.5221700641937 889.1110197167361,758.7254503318203 885.5189235054786,752.3461720855796 886.5939434033625,750.899882430419 885.2634780393257,745.0618287865702 886.4759375271414,736.5095349733646 885.9088805678778,734.6146722622084 889.4020066713942,731.4088685301541 903.1347781666046,721.8294379046466 909.855089613731,732.4431729915926 909.9854405090701,733.1090760122152 905.6831369539166,740.651438813426 906.7767492735771,746.783987480164 909.733919310015,754.1160520262205 915.3494947643857,763.745480976384 916.3699538603221,764.8164582741265 921.0757949671513,765.5033797474754 929.3986595567724,765.5683043119851 931.5783244341261,767.4418246847715 942.2153458871567,774.4379543637854 947.3108164505294,775.8576659583557 957.0413425298378,773.5519868556271 960.7783101449967,767.9894754984759 961.2493165010835,759.1622122665789 960.8096231125317,752.6454372852737 959.8718689038691,746.5908717521452 959.8923933165797,735.9090186842968 962.6805654717253,724.3041950673121 965.4771213789136,717.7926710895628 974.7646703230366,714.5569873491022 978.0112387469762,705.7382013036181 973.3680562984383,704.7942119894014 969.6637655741671,703.3968605513552 965.0189860689047,702.4526995292533 959.9281108804914,700.5918300653365 956.6730814073077,696.3908860598342 955.2962791038062,690.8134886894954 953.4488527843567,685.6875889619724 953.4489947724057,681.5037475666027 954.8571519498198,675.9391223167668 957.6347538280246,670.3559972258129 958.5726229397843,666.1728056091374 958.5932611541988,660.5986293840185 957.6555948263001,656.4222178520295 956.1625347177605,653.7242903188856 946.6034275781738,647.0796978360756 941.9687375645311,642.6743196862677 939.4579161360509,639.4078796695145 938.2286563853271,634.3743624534484 938.9195003060822,596.1664995830834 940.5365819353216,550.9856588261025 940.5762618138301,501.80151355291537 935.6512308640125,487.5716579346979 936.9905374654626,477.38286987301876 936.5232866511268,469.0228151135657 934.209764120297,462.9563043741683 934.2117211549953,455.9864932017157 933.2938311779119,449.00546688591703 933.7736997618954,440.64793641392293 933.3249950399711,436.4571904658517 929.1686806903454,427.14678315308663 923.5985222782422,419.2353686283193 920.3483058083282,415.5040453998208 917.5781723031878,406.1970240665671 917.1213418570753,402.00845312362867 913.8824801092974,391.30097157852845 913.425951718936,387.12251880758686 911.574052859293,377.81865380321517 908.814755583069,366.18738826199694 907.4315012656109,357.34585033226836 905.1212520009508,350.84137633670764 904.2048926630712,344.78007056146055 902.3624593238285,339.20192882927233 901.4293798038219,329.437262728802 899.5875946479972,318.26302013050736 899.1415927135906,310.36238806382084 897.2910374380658,299.66241517259516 897.3057815431043,294.6738629589589 889.9217791629111,264.9113865566628 884.4209100266379,264.8609587730173 834.5281582039383,267.80715337967285 790.8421705482914,272.4137385222981 778.9968238730886,274.93511905744697 767.1366538436108,272.8792675939553 751.9837247373315,265.4910354560577 744.7939280892886,256.4422145391728 708.009670293623,205.4997020998851 694.1010855259151,189.56547726995632 686.3980182675863,184.9170142940834 678.2121850087997,183.45234214188713 676.1710398890119,181.715461240452 669.5591024110142,173.4469415175165 665.6487513042706,169.29905155619417 665.3537156770014,162.22615994790442 662.6148238782051,157.11941601277647 657.8907548034972,145.73436469659293 653.8746757220802,141.1162796172091 649.2713208488099,134.3215004366748 648.2163359612244,128.66124265961946 649.4908636258584,122.99631314962767 648.542057232035,118.84331807314084 647.6451241379884,96.6604883459579 647.3181744993041,95.92736386502452 634.653422329014,102.36590019027733 631.3424225256356,103.38610480235366 621.9008447634112,105.26386907185224 607.4639199456691,107.76980062864413 603.9723003655503,109.54253438445812 596.7663789035436,104.13148370377428 596.1417645000498,96.39840248103803 598.6886085639518,92.0568045507274 603.2705979597653,88.70331516731517 602.8851683259447,82.32098249393187 601.0012499964346,79.06091490326787 602.0284260799343,70.15559874927112 603.7080953489017,67.84425803964746 607.4054623148751,69.71417009363154 609.1722298863625,69.36218940155288 611.157708553401,66.78760922489153 619.8597915520509,66.53715770870997 621.0788859832031,63.124300193131035 616.9624702219909,60.25584840063334 611.8107217772028,55.158438877463254 609.0187669653693,51.22709325038022 609.6888632885564,48.13482410618758 614.8538750950181,44.25515546244242 613.7902261469654,36.562921188178166 615.821260417982,34.337863609186456 615.2997957792951,29.522141476984302 613.9278174906923,24.003580843282748 607.3788510332002,17.608030018833688 604.2717624111049,6.837101333779174 600.9485806657124,8.203525380821134 596.0455110597014,9.39552560523964 589.910137820057,8.313560742942514 583.2844028362625,4.97983325213761 583.8230286970642,0.0 577.7690836617611,0.032365989146342145 557.8054952484406,2.834523625270549 541.9720761166467,11.389129927286149 512.7273524330794,24.88515814019297 502.8733342046028,29.011252535272888 495.1557743185979,30.28523066048774 486.5244892180579,30.003757875171686 478.67396240462665,28.24884245392309 469.37117051531993,29.056707437487034 456.31436498759007,44.40141902443429 453.60597768719975,44.821844754021186 443.8270154550015,43.55251196339714 435.15879292601903,42.95116898478466 424.496731148854,39.13023237849359 409.040332433073,32.47030189230372 405.0731057697288,32.696024977868205 405.058152441281,39.995171292587884 404.66844329845566,40.45396322382828 396.6166059285244,40.47775918696982 387.52597757371814,41.24712287323882 384.89915802496694,37.556794926858174 382.8874871706258,31.781009349663236 382.7145008660763,28.139767258678944 383.1972787717906,19.1670897281964 385.4119750081671,15.7179315213491 389.81074611915415,11.307713475438732 391.4454220673734,6.864122137253958 387.1851176174424,4.341741003364632" /><circle cx="598.425003714756" cy="562.669981482586" fill="rgb(100%,100%,100%)" r="16" stroke="grey" stroke-width="8" /></svg>