<?xml version="1.0" encoding="utf-8" ?>
<svg baseProfile="full" height="1024" version="1.1" width="1024" xmlns="http://www.w3.org/2000/svg" xmlns:ev="http://www.w3.org/2001/xml-events" xmlns:xlink="http://www.w3.org/1999/xlink"><defs /><polygon fill="black" points="389.1697258186816,365.1295566142486 389.4701871104985,361.87693916332046 388.10443104469186,356.4671027672746 386.65014544931023,354.78651330704486 383.9307257211644,349.1632658063703 384.67355563684276,348.4353915799401 383.42479332839844,345.17540594459695 384.07131247384365,339.5915624780898 385.75417512955465,336.189772481952 377.0003522920339,304.00271928273503 377.00039912731853,303.4332288368438 371.33466117789476,291.6302395102758 360.11300265795666,267.85218039008373 359.6426192210117,267.0329480119166 349.4051260476786,245.21414451567784 341.2899386176211,228.19302247658572 333.03150434469916,210.4310086029509 329.6093993173331,203.3376385049828 319.95457642876534,182.75171565219728 304.72931064422636,150.92925910463987 304.2875772901893,0.043699777187384825 196.65013363994015,0.0 196.65380987046194,149.80175462252294 197.0596670758476,153.00595268903305 200.65937599136979,168.354775083037 203.55369805496628,180.04878920561146 206.661501028104,192.02112790038086 211.72451986377214,212.2022081954001 214.82803962690426,224.17803580423765 226.86673227245655,272.05015053836166 234.82418802722935,303.87059669871815 234.7076931302474,318.94090705428493 234.95120825319634,361.1353705909023 234.9973168755788,381.8853794501688 234.9267678686879,394.1226193683199 235.07392433391007,428.3961634720889 232.0730043197233,436.31660238952225 231.76646867446698,441.3639920972015 232.51736248033902,450.23365904999116 237.04117330502982,458.0578769481824 235.6636129057259,468.61322264953367 232.9321672730746,470.03890181697193 231.24276401888588,475.1353321554873 229.82577834575528,481.5425368222907 229.50687137340282,486.69069082702003 228.49390768687854,491.55406186212997 222.00415674659402,512.4931836080927 223.4513038194162,516.8457967047586 224.34473095474354,518.0845528310588 225.24030910593208,521.1988681619398 222.13245976643447,524.5328828401557 216.42145979538626,529.7039239094777 214.9336811587425,532.8730362060992 212.50924399306234,534.976282868114 211.25351002888166,538.319712937358 207.97977021655615,543.5006996065763 204.95998064587602,545.7992962509434 201.4267823404339,547.5030492339704 198.28560216632238,551.0016383398959 197.79243505385762,552.8690015732843 198.90769459046027,555.8135736099752 196.7016082967321,558.1739302589394 194.972784502531,561.1603725210948 193.02989213410797,563.4181920751921 191.5956576416647,566.7744134330162 191.2884080502426,568.8273480592518 190.07588999752008,569.7408489191455 189.95463097926702,573.0261365609265 190.3385299208078,577.2770277200907 191.0848969132434,579.2182610590812 191.49267185331038,582.4843656984451 192.74435047834083,585.4530154838981 192.65420747792066,590.9796843161078 193.05838420601964,594.1751484158826 193.999895604833,596.1071356404575 194.01528301784734,599.3956235472203 193.32241761258192,601.7286489007254 193.0885563176268,605.3467379452768 190.50824074729692,608.2351099270589 189.89256342875075,610.8564197801935 188.91795614317297,617.8792135763306 187.83488677387825,621.3553621380258 187.75228938058203,624.3279236804863 186.65717590786065,626.9201253916713 186.62542379695617,628.8850246173223 185.42055382405172,631.960799527601 185.2133558736955,634.2965130416696 184.3438319632056,636.1075017845915 180.74766975542852,637.0525137634827 175.60045791439742,637.7287037317908 173.27812219239578,638.354543806468 169.27320690971504,637.8361864262567 168.01827309764417,638.2672776964284 160.10103635805126,638.4127240630588 157.13268902438023,638.0383148445785 155.05068932375983,639.1466047942606 150.34597142440137,640.2615524588181 148.87454527011639,641.7100792456686 144.00084286156488,645.2836766373383 142.41863348119847,647.3294621911136 139.9715002391665,656.7768607752862 139.79554713517658,658.8674719337763 137.62195114249886,663.498312090113 137.51727353345305,665.0224176392447 139.17442008265826,668.9923146404759 138.84083721096331,670.0941846566607 136.25387000507325,670.4183537708954 133.05875625332192,674.0178544161297 131.0900009496382,675.0438932128483 127.81611802633941,673.7583503398912 125.47199688211921,675.0507911859925 123.07902152884019,675.6630325301121 119.23719597623604,675.2198742129599 117.2645851223,675.9872674624601 115.0768696828617,678.3511083277655 114.02111149864243,680.3995340812597 112.6907943177662,686.7454509483199 112.63246416533545,689.364354361688 114.18413334178814,693.9474354802275 115.86117252731935,694.5088850081931 119.0295719921565,696.5808478271548 120.14261925879062,697.9450234172637 121.8025061645185,702.0754658247322 121.51987188535296,705.5620487187398 121.81081196593132,709.2770902149036 121.4808356464011,711.4427802770108 119.08025835667043,716.3795544674272 116.76503159300857,717.0749079463945 112.41158748824905,714.6264582802798 110.74727637402609,715.9219790490372 108.69079180042013,722.490483080697 109.77852340994536,725.8698069362065 111.23294446193331,728.3319584897008 115.70938061089251,732.1864834384666 116.78407650719183,733.6973566564465 117.76703969536089,738.6681795801046 115.410916120145,739.3949413008202 113.70946625954687,740.763420298009 111.22215439250297,744.7232189330412 108.55064059406888,749.7054323512864 104.46166759323111,753.5573044046164 102.60306314675383,754.7398343790574 100.78381853496562,756.9144198985141 99.3559534024777,760.2276161390016 97.12668623830695,763.0831355844459 98.49139145497767,767.937226927536 95.73834936189361,772.5809565476774 94.47159010978027,777.4375410951247 92.11379414226512,778.6285461140518 89.06761577103023,779.4449285246715 84.80716717872464,781.2591924760569 82.34970741130496,784.653096845392 77.54684322841112,785.667737347102 75.38833156953143,787.4999733526172 72.26374165068148,788.0863353746195 68.86362523459425,786.2501175989387 65.13770628823201,787.2157094842471 62.67388622243142,788.8181413928536 61.088681515377274,790.9426589111429 60.30644717945844,793.0705567402487 59.130399479060436,793.95506716118 53.81905573047114,795.1391407757148 53.17739254499711,795.7157690252064 52.71077142608227,800.3403141093589 53.23211630561381,804.857156218533 52.38243006040156,808.4977588500277 48.2172699075089,811.7794045370163 45.601758094730904,811.8071163155363 44.18658986997615,813.207732894511 36.59688024415507,817.7335774723136 33.22284424519638,818.6153344447667 29.005934341405172,821.3253681902047 28.93695041907263,823.7078807210487 26.495071939444042,828.5529572626621 23.326611699267144,830.8238239294686 22.261727581161182,832.9626625837134 22.43647096069932,838.2815443739657 18.61566145689841,841.0461297518793 14.97885099862374,841.4165491036468 11.987080800093949,840.3187336325925 10.053642066436485,840.68961296611 7.283980644209521,845.6688333448989 5.432116009902967,847.8131644398811 3.9815823850526084,852.6259211710874 5.051955447934119,855.7556410367001 4.567867853826285,859.8809503807726 5.415951674975889,863.3831960820846 8.825968537280753,866.9036091437389 13.34071140747644,870.420286730171 14.527690431451362,873.9780688397774 14.219378378559172,883.3196763956755 16.258504671565994,886.5619853251198 14.577410339584096,890.5806719003955 14.180768415602946,895.335602623307 12.749937104368465,898.8066116167162 11.29696954408818,900.8645472985725 8.451199686053517,903.443053200262 5.2049333141356975,904.1381020529769 3.048205639046054,905.4325836531671 1.078536108222243,904.67080100472 0.0,905.879013310402 1.152744400764631,913.1938467050122 0.42943095316315466,915.9122912756768 2.1844135244993246,921.1225076769646 7.01088992868546,925.7309180301154 10.344564167738758,927.677149335364 11.93746120054497,929.1541152733523 11.905431897875266,931.0260763789407 7.313603882616207,935.7282795402949 6.567561459682642,937.159015955523 8.369737863966929,942.1550041627178 7.3020178135047,946.2790855084686 10.284164862187392,950.492972687781 10.845919410300425,954.3794304790238 9.269069725244414,956.7839194158144 5.385667818048464,957.517916847407 7.159580630830934,963.9540646727504 7.3578352595340855,967.9339413032669 6.294551995630915,971.7907360518939 9.164099736384063,977.352085111098 16.80810832807429,987.3422695148162 19.343666619221352,991.371136829537 21.19311664052816,993.4881038857151 22.05293409229346,995.4847184231667 21.489682896770898,1001.6948771371065 22.902374616786833,1003.0801522985865 26.12199674099666,1004.0591382140087 29.183526205723265,1003.7643029146166 30.91170627205998,1006.6215727845512 37.40909164413856,1009.0259582369714 48.277895814747616,1010.2221373967042 57.34118939940513,1012.4999544197364 66.41956873578455,1016.1211974652056 68.23011866444932,1017.5064331003849 72.3204379585445,1022.3968144431086 76.3155395623701,1024.0 80.54271607163761,1023.0888507010106 85.42047254322895,1020.3955746702449 87.01809547088443,1018.9413446284466 89.51224218820377,1015.341031933408 92.15035441177845,1014.2451957843459 97.81218584488136,1015.9031937534069 99.83282863247494,1018.6641007210764 104.27836266418572,1021.8086758471155 108.37886512929352,1023.0010546622213 111.3309522220478,1022.7070216241415 116.7075426653205,1021.293304924295 121.39820251335505,1019.198365186349 125.02264031748955,1018.2895074236493 127.4545828459422,1017.1270575283531 128.2304986753115,1014.6669429468151 130.22688752276457,1012.1684005007642 132.13634185643392,1011.2967821913024 133.65427813336802,1008.7029489439329 134.10593264704056,1004.4909275316866 135.4262824252398,1003.6388835715233 140.90050723308354,1002.3257380824127 143.4665887250749,1000.1197997109632 142.89993117720334,994.9687930901374 140.8846057485838,994.2457544479746 139.28612798460702,992.3458111817009 136.40439532340332,990.8387004980259 133.28911470149163,989.9463911176784 133.65967698926397,986.5079269301225 136.55993066882317,984.4926555480114 138.24440257345876,982.5580663084103 139.85523453448155,981.7902862773851 140.88969011634254,979.3335169747627 140.8754414058952,976.4786451084359 146.64197316394848,971.8333843717205 147.88080579336122,962.1506411225417 151.14626512274072,958.5951955379243 153.17751736160673,954.9967412028606 153.97985011709778,950.8132740747888 153.79841938836896,948.2217110626124 154.91923167076214,946.9018033075923 159.93900057980514,946.6381449451591 161.44614224060373,944.933411459034 161.76072669894086,938.7431821210378 162.48727182719963,934.031746346466 160.47593106752362,930.0041414145977 160.68531316763736,929.348895303531 164.42959959844652,925.8800148905291 169.43521486036795,919.7402888443135 168.85142116487762,917.0682003514966 168.91870469553703,912.4425669260272 170.10636957487236,908.8163535954349 173.17153837262273,903.4987674963457 175.29390296630882,900.4561348805947 173.81053713990474,896.3413398051239 171.74374772811825,893.9504796890816 168.1869930051356,891.8078825262248 167.44544026431905,890.4878685992975 163.46482067778118,888.4276668854351 162.3246934385841,884.9369733974469 162.01013182430253,881.6140864506515 162.3581947771816,879.7873000878727 161.63140785647025,876.423113114353 162.3366075856454,874.877297510496 162.1829669853971,872.0230806513517 166.253417250106,868.270531146653 167.59203882072902,865.4806584969781 169.1485116097526,864.7867627459099 171.54288424134575,862.1535291410822 172.50361676416782,859.4258915045208 173.91398692197208,858.794410041417 174.65390932168583,856.6372427392198 179.07289998214836,855.3126260046791 179.9687292994999,854.0891844023294 182.05776868019723,854.1003448222459 183.73192282044303,850.6268124175024 185.47890685026903,851.4466633113035 187.75696572155806,849.2699333597479 187.39281716322552,845.6089718576093 188.20576654385823,843.4629154999487 190.09422758071292,841.0062545922228 190.0867731107161,839.8350132894514 191.52352307293827,836.2069215404305 193.1799792165893,833.9269585598697 194.42003028354614,825.4088003382064 196.96968896208077,822.5904386574125 196.94595645274237,821.6580257405795 200.47164721060332,818.6224337359955 201.87503318798562,816.819650477383 205.5996029636526,814.6845976473255 205.88566988195493,813.8355045547366 209.53497769582125,811.2859988171565 211.63824269120437,808.064465208802 216.59054883565597,804.374974972872 219.35699190691105,803.1299430157502 223.50787686474644,799.316575112 229.60495336381942,795.4695214776314 231.30547575914537,792.4142872676443 236.50592896732937,785.4220774409548 237.9738945363167,782.1091295916417 239.8419687250971,779.7682305289013 240.59351401559246,777.1292440292839 242.2580889567519,774.8719410113672 243.24114035477342,770.6092011543894 245.2936553354632,768.9717394411102 246.11489366575898,766.4887858724801 248.32557575532934,763.9307421560143 250.76770324825796,759.8422831804833 251.70940322268032,757.2562215031694 254.8895412129699,754.9862837041288 255.4657668013218,753.6207514463047 260.174736158066,751.2436767549484 262.74666384841964,748.6437168455642 263.27370868935355,745.0776701372852 264.692574085436,743.152395626087 266.70401961288957,739.0048745308393 267.39736477211875,734.9748254782244 269.2785812041153,729.3728282319787 273.59998562666016,723.1247981788327 274.1308274266892,722.947703063589 276.2414403073578,717.6979883824433 278.0036411049544,716.268387245445 278.47145588835014,714.6363165215269 280.11179935289726,713.2174888217073 280.0854944365664,712.2268856651604 284.27314284987096,707.2914060525211 284.6682175287004,705.1029103748311 285.81756895302016,703.0875166845663 287.76993738670274,701.7607116657556 288.751467482174,698.7348913102321 287.88470185866095,696.4997135403742 288.89265412316126,695.4446340121917 288.5103457445684,689.8048003531791 289.11288346925255,686.8334127441167 288.44585785309414,685.7633839550615 288.8237842439582,682.1436016836761 287.8214208502429,674.1801442018947 288.4642839979785,671.6427634925442 287.50769243460354,669.0699867564323 287.25340984896195,666.5260035906442 286.2313526729196,662.9237263487539 284.7739879997411,659.7459797520995 284.13912254081043,656.2771357049028 282.58030048998853,652.9042980483218 282.9601124489216,650.9262536846682 282.34912782259903,645.1421113540839 284.2919027154803,642.1916960154088 285.79120701361745,637.102096105897 288.6430639605255,631.3815704264205 290.21212537994,628.9582858370248 291.78971034508834,627.9033627980309 293.44832039958254,625.5620913468856 295.04674091118903,625.0419188307833 299.3458951615546,617.805664767747 299.701707722184,616.1483603540375 303.54048389069203,612.236066021472 306.35424414116966,610.2611876871547 308.43514997531133,609.8514920517514 307.4712237382449,609.228296962998 308.99963083341356,608.0808677047912 309.21199373700045,606.7128543976562 311.2769622398192,605.4291793533446 313.0465493772445,603.3658622348779 312.3502207996462,601.6212031560281 314.6220108601243,597.9014860847515 316.9308370477032,596.5447822681747 316.9181799425524,595.4867055586484 319.4273698218111,593.7488251299127 322.0540540523711,589.8223688547395 326.1185288024632,589.8031660478468 327.38432624221605,588.5537017807089 330.7837116643257,588.6190817962298 330.7782992426225,587.5302497955561 334.0786136150037,585.6953611319993 333.2121961309633,584.3642429346235 336.79690977438014,582.7127972921771 338.8177616409596,581.0485273207034 340.8748200104063,580.3907106413936 342.24864758989844,579.1509651853207 345.0792747955196,579.9264083559385 346.0476216321758,579.2842497566674 347.49408022720445,576.4827369971014 348.2602158068581,573.7674968708944 353.52461343551613,574.0147868605594 355.4672509648667,573.2125596923495 362.1209495316013,579.3753085801878 363.9659897351495,569.680937796473 364.06684520870783,567.1339322348481 362.2447546574229,564.691862392712 358.42733725635645,560.5580117293346 360.602475586371,557.9178010575285 362.87745472581094,552.6295346127507 364.1493683097004,551.0004785830977 363.5321103767139,547.3112490733272 367.33215232962664,541.512417133778 367.485605394737,540.6192378503581 363.1406621303982,535.4779722145488 362.4843500667728,532.9291914304436 363.77474284545775,531.3421957360488 363.8940690444777,528.6657443724283 364.7544410783933,527.2661340760102 363.11810971425683,524.9494989725147 366.4826158412717,522.5507689113865 365.0587079594414,521.3195170743102 366.642758183281,519.0244600244689 365.58914231069195,518.6413853153033 366.101877846397,516.3122588431654 367.05779387238334,515.9678552377072 367.57808122035766,511.7946116992782 366.39178452806686,508.1654038253117 367.88001167429246,505.6159367626051 367.7301704472812,503.36341793795316 366.7065080751839,500.27694876458895 365.7013746329017,500.15033205667226 364.2973982869407,494.4248047288851 361.1818312078995,489.4690100899388 355.27125497875824,482.72859240635205 350.7661367853546,480.1043451403725 351.3969909889208,478.6991057594752 351.1559798609339,476.5414661127106 352.54799993266874,476.81995877929785 353.0598495274441,474.23842239325086 352.66075533784965,472.20504825892783 354.77929851037834,472.26414966660514 356.6135384907426,470.6985115486523 355.12203318467135,468.6409520732459 350.2401035845534,463.39215605424863 346.184062903093,459.42670644572513 337.5452069912328,451.49953452163516 336.013457600657,450.83266854485146 336.2517289443769,449.08365187096854 334.79188713746356,448.86612263713346 334.85274339451223,447.14875387317636 336.34721878230664,445.1378221124045 335.56049095321225,443.38452226266077 337.6503119892671,441.30942809713406 336.68147815447657,439.50576863407093 337.3302122084681,437.11176687707587 336.9448498275556,428.553227370742 336.2923016212674,425.7891684477729 336.6860868500079,422.72342691892425 341.42726560609043,418.8283764982401 341.06320535640947,414.4099618359701 342.7320481710524,412.2060268417507 342.08060419211284,408.96386659288555 342.90989722526507,406.6017144074101 340.70874479815046,399.6036836452971 340.3035248533625,396.0758650073616 337.142762778444,392.80849088484365 336.7701098603849,390.99478629075134 337.69981471219893,390.0719484805585 338.36585948119136,391.18027765003603 339.288131233862,389.67604162659813 337.48807008282023,388.76771212641336 337.88432678953006,386.30757253294837 335.08292233141356,386.5469750955059 334.53144791979514,385.14269484526926 335.4848484471342,384.383034720988 336.5607837481931,381.28799145887945 335.1642325313037,379.9188780524479 333.492238501119,381.2324454898617 331.81506333177754,378.52898135015573 333.352948857254,376.6760883086871 331.6895473961481,376.62361766660035 330.5581235683511,373.4083532809533 332.07989074266396,372.16725488442546 328.79543817056435,367.3429124378297 329.7500195526519,362.27394015567916 327.12061878198,360.11689602062825 325.84574122559746,360.4491374301839 325.47428032727225,358.6375524423531 322.4383138663035,358.397664757346 321.56371998537935,356.904321299647 317.8184123902891,355.78095538811 315.9812820031251,353.69117574184327 316.7862632156818,350.1226488353807 319.71188702504355,350.0381419142758 325.25208442227176,350.95863640104733 340.8180075980023,352.90561640181477 342.6099723407828,352.0402352245211 343.84178230504926,353.0925886659768 345.91025433462903,353.437295239833 346.0046488853794,358.56062140553115 364.0384330027511,358.23894912174273 361.82263145243417,352.28388137596187 359.27784728430834,347.1976990103676 361.280586711171,345.0674680650113 360.5602355522947,343.2594142290279 359.7748327820232,337.1458126476607 377.138871121882,343.55902550942733 382.4769921788582,352.9521323124071 387.6346469548062,365.1507065507766 389.1697258186816,365.1295566142486" /><circle cx="295.94612177882743" cy="604.1320658086249" fill="rgb(100%,100%,100%)" r="16" stroke="grey" stroke-width="8" /></svg>