<?xml version="1.0" encoding="utf-8" ?>
<svg baseProfile="full" height="1024" version="1.1" width="1024" xmlns="http://www.w3.org/2000/svg" xmlns:ev="http://www.w3.org/2001/xml-events" xmlns:xlink="http://www.w3.org/1999/xlink"><defs /><polygon fill="black" points="357.6021994558502,982.5580424103533 370.5928537785128,982.8345164011947 371.9349939429277,988.3529198811351 369.4023402630001,993.8141963431058 370.6983535465656,994.196184827847 396.9940578992186,992.4921168195788 415.43467899404004,986.2298159709834 420.31968348173666,983.8612926794499 424.766434407785,971.3674750820851 429.0598781588396,965.1910218580555 434.75103195014697,961.3253695618887 443.7359889433746,959.4838918162761 446.1629424113454,957.5867116886498 447.4094159517318,949.6493978651835 445.7700747294794,939.7398909456622 439.56809823340876,939.0054696565902 438.6498940704736,936.5526606482915 438.3959623447841,908.3731344735156 452.6829764791495,908.3192884696273 452.4629296065552,895.950421416829 457.1197528200705,895.3669283509314 460.0654938542312,889.7808522538689 466.0015709334947,890.7790352757997 468.1739738285321,878.3756069514035 471.61864093643584,871.6616080879877 474.9834698414127,870.8981048791203 479.40002075315044,871.8883900586331 482.8208138515373,877.2665957820967 518.369423615428,874.5018606121274 529.4869007670025,871.400969240749 533.6088971580592,865.824901518389 536.0753864682756,847.0227923199645 534.8177321175244,844.0330066238656 526.393606067349,845.2728093899378 524.3127659845718,844.3529117299505 523.2593053657907,838.0528865273484 524.3081105586225,822.1716715620275 524.0906473535979,821.0408943040479 514.5917226484737,820.1548037245886 511.1324259817596,822.6204825388857 507.78152055324443,822.2032951735212 504.8518916270338,761.8674386932166 503.70014300185255,760.371277003425 495.6790329154888,761.0822254658647 494.4130761732363,755.8956502117192 494.0532391939032,751.8263697917753 504.1639908564855,739.5171530703668 503.75974861010314,736.1034604254725 506.14166649890404,731.0064756127274 524.2020473638855,730.2944460966404 528.9984301919634,728.8796684445979 534.5558880693172,739.3818845100974 532.5847597662612,741.9217370539711 547.4779642517987,751.8270940492139 557.8665042942835,755.6600775483981 565.2780228648516,748.8821502340006 568.0065073013798,744.382881217558 569.4384490134993,722.1944717990348 570.960009644684,721.1225439223352 571.443422658911,710.4917606879303 578.1746983680424,706.6504838913188 589.1673114796331,703.6986436337672 600.3543950006607,699.8275524036114 605.2862195030116,699.4188860569286 608.8623635888781,707.5129258986907 619.7550849565035,711.4350586670097 644.0687549695048,721.9426850057216 650.4578674662664,722.4701716757169 669.5670761340932,724.9662529667303 708.547374441878,735.1496980672712 710.0629729423316,734.5506210291667 710.969737298996,728.8605070742435 715.0327926324684,725.9634284529079 722.9375620838036,723.4598119117629 730.0433426371253,722.8988596758842 742.9637636425782,727.1144079519081 748.5208114373406,730.7053498886646 761.6973600643588,733.8035053815383 763.4607817915534,731.3096423148027 763.8310541967423,725.6521905222971 760.4993416129226,711.7059674398724 758.2413475885357,711.6176299417248 750.1390951886497,709.9347275085584 745.7424739365198,710.9315667683593 741.3474601225205,712.7447487429166 745.4423251274196,700.0829390587672 735.3521239750658,698.18100297234 732.9844330447315,694.5208529436193 739.5503471055441,651.8180867422137 754.4903413003252,654.1039946790274 755.501683465617,647.3429404400289 763.4391513166498,637.1356590002049 766.6703020152155,635.3318284001673 774.7493300180672,636.7385543166405 777.290178788291,635.3650833929312 782.3883272049269,620.1995162344809 785.1579386220205,598.493449596844 784.7934604969304,591.4952957634218 782.0611985819891,590.1187623222343 770.7040777983431,589.5228714222302 767.5328929925648,586.7943017000878 763.1122551267306,574.5300760704138 764.6665441882113,562.9211213883061 768.9764197453464,535.4264011425199 771.0612504303809,535.2141186582066 773.4717427468927,511.4723879249842 776.0335397408746,501.36862465556806 777.8475565101193,500.75165481254305 784.4169277668502,502.6745608703201 785.7194321770102,500.98303451709137 785.0876543821641,482.1666550337691 814.0542881618919,486.605694273061 813.8807133922711,469.2216107432946 779.3708876418066,464.23060909009916 779.5418359832979,459.79601929460193 727.111258255958,451.03848395414684 727.2191736847493,447.42565448750713 711.4928727826178,444.46793079414215 713.6615435627189,434.2044920849904 709.6541783036771,432.5495904539317 697.1522227348846,430.989359304304 697.1565293443772,429.8304391349649 692.409021503559,432.0688277747398 688.5586300618936,434.57511901725536 687.0066075304569,448.2488710184424 692.9981901660539,455.06005683250885 691.3527508696036,468.90834011408367 689.8128933709089,471.20048852462867 671.3626202542226,481.3627369186893 643.0938478363162,477.5035237032919 616.1632188170859,463.937013799875 609.7225532174446,450.65827234310393 595.3452150473989,429.2099303812098 577.9228007579304,416.53189206612967 560.4031851457071,408.9831296840441 554.0081697913029,392.0502106787568 548.5158138547936,363.39199920821045 543.8223812877908,328.1358720450195 538.9680305112731,305.36675697446447 535.7362349905234,273.07177712831333 523.6268504305013,245.0619682113055 507.701693670276,226.55752285552649 491.7453121469588,209.53693273084775 480.28032727752,187.4078919333664 473.22262671405633,164.59769714543336 472.7771559657456,140.40639702455326 475.2910524186788,118.4257100306213 479.2316791233815,97.94958012671918 458.3796335963549,61.08043995685762 443.75233263695924,55.798245208696585 432.49964532477816,54.478844650055635 430.986925651428,57.49022782669658 403.0825503460557,60.252823566086136 395.79068605843497,50.74880814767732 388.9169321372783,51.072344676998796 385.8317362465926,51.877606208648785 373.9005452789225,51.791742767202095 372.83328774332625,52.121297101791356 360.8513164885196,51.64640371087785 358.2933524250405,54.55499427963946 354.9221996550964,54.07385245293642 350.0710508340503,30.751833475686453 349.544900332016,13.506209965813696 344.73304842687025,12.918416283426836 334.88046406244746,0.0 322.5698644060635,6.167390676551349 313.18018082934316,13.838683810883253 309.2239231304147,33.591974495124646 311.1509304223294,51.222343958905526 316.00508252985054,71.07126699255525 321.6507674611234,90.19497923641245 323.5452058289379,109.27499422447772 318.10454724133103,131.2071348729346 297.35089033217446,142.6864843944369 276.7474550757444,144.634650855603 261.3250073238441,143.6936744603496 245.17402056680575,143.50326860896746 219.75728353918527,137.95942973394597 204.98281937815653,161.01628472210427 195.95820627489957,177.02816929810047 183.95381306273825,199.60805184037508 173.4480265154862,216.3338702491576 165.1931721909549,230.17240964490827 161.03521067503004,240.05446338999047 160.80116920623496,243.08229825005276 162.2824411031987,245.78427467515428 182.17373499412324,273.6460535424418 187.50383646559976,275.45716577634755 190.72538408739717,270.318274159128 190.90340778110644,277.65420131213205 192.18979803597236,280.4419122428201 196.576281141559,286.0964979856061 197.84781335355953,288.87748517045827 198.20068383196292,291.6474748754615 196.78006619546932,293.4136804107743 194.50931497377744,292.87755572518756 184.76315443698365,296.22765371038736 177.90338078732927,296.45589816260633 172.88243774446195,295.83841526830497 170.06506511649513,297.5650577499408 168.11325069033572,301.16532785337586 165.53179393589164,309.7903184404687 164.43686789716483,314.79016640765485 162.35097576702876,322.50240539621564 159.0351887795826,326.1790431677774 155.89364811869044,321.91800510806195 153.6109599492618,318.1760563455332 145.0631241559797,315.26833171237183 141.73479171297458,316.5685989066336 135.92218645160094,343.79587719648373 132.51360206800535,363.5444843576879 127.61482891769873,394.62834123655875 129.01984352433334,398.3216341611302 138.33751471640258,399.85488479121784 134.0399303992076,426.6692612788528 128.57892553833634,446.72423007895145 124.40358175249406,452.67018330608323 80.42519123174492,452.43562108262495 62.04954417729776,450.20186970041993 60.96301629100946,449.3321522662543 61.729070701755106,444.9282630765306 60.758818117866696,443.1354183588684 55.47367164989833,439.7630361553016 54.56066746309214,451.17332634187267 55.50155398715554,454.4705856108884 72.6948452800454,462.4615287785009 80.48388704289069,463.69189003579504 90.29416397504384,463.2032215709846 91.35181424420654,464.40204148015687 90.99156733528434,467.52344079561465 93.64525243123313,471.0073603047749 94.16414220914321,473.48935510973604 95.6134924838472,476.32555364267296 96.0269482029678,480.48335831314694 96.90354582415065,482.58161336929004 99.55813483336522,486.42409194583945 101.78684736464771,492.2307494703431 104.46527161055207,495.6317438533923 100.98848370640977,494.4279214454484 96.79994563161026,500.97836550138607 93.35760605549582,510.10798624526296 92.64782576280719,521.6599161561951 90.43819237493311,523.7176896992119 83.89332119358163,525.6722694751325 78.7412393161687,524.5477361010841 78.25842592329512,519.6873119636085 73.68828166230564,520.008454405432 54.776436060066736,522.12195698407 54.79063017032781,533.4126033688926 46.61583596925144,539.8140232717035 40.74274203920715,557.1183174648315 37.02791346455158,555.5502894062705 32.82144016738186,554.6353914854656 18.66949836443245,560.3679753258014 18.711710743203497,570.663400464002 19.20769157973258,575.1848328153752 11.642384559539709,575.9807014723997 5.168038572124022,578.8471435553444 0.0,583.3402150246699 11.723725221452375,587.9900021559209 11.706552129029491,590.9131377918633 19.901493528700588,603.5237624734361 29.833540305148407,606.7861166306649 52.62986163136614,611.2725632992735 56.76002287010463,614.0907581210859 55.65940882720302,619.3398407661455 56.52267296505168,622.1360026690138 61.60654435419534,627.00594385575 82.88441275702569,635.6863876730407 89.57937516349268,665.264558515112 85.95775050518824,676.3758858812281 83.79514511409154,676.0586904992542 76.397159998968,683.1679698392827 83.21576004518687,700.9268976297867 84.20185663403703,707.0585490869826 83.38271814071729,710.4207977319858 78.37917131124271,726.5548264990848 78.01329069782888,733.5985037180715 80.39835152512048,736.0045164467413 91.89060441888606,740.5780401308957 118.2106096625926,753.3062605759221 117.85072417900238,761.416294662656 112.68868587506512,779.9749841691211 112.24245903046017,782.060490359436 112.97843544007284,784.33199170312 117.59987180047223,788.9674170415719 116.9648924890919,796.9504885255658 118.22512710560048,798.7293146488714 135.1019562508078,799.5261241792371 142.33294101820957,801.2554638446886 145.2373354914223,808.3902677034876 146.5310113783808,816.9063979419516 146.0048078028445,822.8071142816315 154.22586425319395,823.3349700545342 156.7256699996688,826.5651770268272 158.6414247869185,833.1814849966526 158.70337778170608,840.2844870938754 160.49287282887022,840.2672286047934 160.47436939613726,854.9379921828773 167.0896090759893,854.9001405868014 166.93976063494728,851.221523797512 173.8345543460065,853.0746982515589 177.18953447442746,842.2068968500857 191.76025292317894,850.2433083424613 201.1680588473782,856.5583917045126 208.966225756724,853.1924367965801 211.30767343031457,853.3516405984326 210.55875374386073,869.7311422957297 210.61247795513816,878.5724948339696 210.15282271044592,885.8545126474918 211.19623876846316,893.4720965406275 217.26826825518773,893.3809597442485 217.76990799134245,901.3693737017901 205.31656770327518,901.1967263591013 198.63377749132772,900.46600649899 198.3191366678647,911.5609582722589 198.4635148795485,925.498182259382 203.10164755018468,938.0917874401379 205.140399678349,940.0319621572099 211.09066119788147,940.306854488222 216.4379346257387,942.4497921035015 228.2199379633403,949.4899576617139 230.90143298107904,954.6149072061335 229.28204408221185,965.0899139024502 223.28250660587088,990.8006961296301 223.03268019700934,998.9030703145183 228.09958543113194,1005.3244722947107 240.10222819434506,1011.5578984089411 275.6989131139791,1024.0 301.47857673262604,1022.738806794833 304.22464152649917,1020.7560220897824 304.4673879331289,1016.0538617240873 303.9830574170352,1007.3457584574061 305.2644324121702,1003.5655327853758 310.51142516317105,997.0979933302016 318.85103663684026,991.058277264455 326.48148591425166,986.3596960589828 340.6349931273637,986.8543393726831 357.7862514983153,979.9231353127201 357.6021994558502,982.5580424103533" /><circle cx="384.52340994337436" cy="428.44439688857756" fill="rgb(100%,100%,100%)" r="16" stroke="grey" stroke-width="8" /></svg>