<?xml version="1.0" encoding="utf-8" ?>
<svg baseProfile="full" height="1024" version="1.1" width="1024" xmlns="http://www.w3.org/2000/svg" xmlns:ev="http://www.w3.org/2001/xml-events" xmlns:xlink="http://www.w3.org/1999/xlink"><defs /><polygon fill="black" points="36.04055702571411,317.8316438270748 42.68250201103357,322.82194867333055 41.08656239005356,327.18470865152904 47.17136266986285,337.2317051226597 48.549140414304546,337.44509682154853 48.24461436955731,330.5533691413442 52.56796346237721,330.64878778190257 52.68944345969405,338.3658659165909 51.32075671153159,340.037765525136 48.90375517710499,355.52419309368474 46.97467604030886,358.4575153995894 45.08089990736863,371.33875697995745 28.306541723058512,392.67311609207405 16.79063978132971,400.2088267396224 17.059521030192897,404.04549101959265 15.931491720666237,407.39287774791103 8.013799048789704,407.94275023453383 6.230593352724613,408.6346225469716 6.27246667281982,412.1516780820053 10.651055421355569,415.65334275796164 13.858901180679544,416.588258633763 1.8340531210640907,426.20880182149403 0.012781655073939517,437.38527075314136 0.0,439.3401411037833 7.201177461753186,445.0029082818601 9.16079026095517,447.46246809635534 9.325279557354083,450.11965126081276 5.454153201588839,456.6039012974273 8.751691483362778,459.3890945374744 14.547971928548959,456.67589627338634 23.49280822015716,449.76574736075946 26.294974072162802,449.06751625284363 27.26289505590584,449.6899278156644 26.95730456861461,453.618083304062 28.023773995485964,455.4199819649008 36.39542975625751,460.84383693343034 43.139062748597105,458.5683525152082 44.183833422924394,463.4378516877917 52.78586094105219,461.0532067338329 53.57369335829716,465.90375617748003 56.16776367928806,467.22278223578803 58.509782619119136,466.7816511364298 60.06932219714233,469.0931630010039 59.69905718662556,474.4126047122312 58.06163392806166,475.87691060670085 59.74028091794465,482.10755766189334 61.66762787909695,483.54331589910015 66.67261079664506,483.8270784037974 47.554919089045995,504.9161643992299 37.46172181787671,515.5625046245405 30.80717449919777,522.3829324543698 62.13922046277537,518.4401986147648 63.8989146480985,561.441928392916 94.05515888655854,564.9375439658274 132.61206325792534,561.3113476568845 133.61642631992214,570.3286005846155 144.47370226375182,589.6145161783774 137.1790833839239,593.443489917352 121.36820373571794,596.6396087483399 119.82247711531384,610.4141945388008 108.3584821945016,611.0277163212199 107.4361433180202,619.446866297145 106.23903057090575,620.7210085693157 92.61337249964559,620.8530031758874 96.27842029555923,637.2716316411627 100.47283233061039,660.0541996998664 124.65323411367119,661.7706349821176 132.20444670187936,657.0345169500418 132.30106090155638,653.3828115083462 133.4882358589989,646.9520138066865 138.73462243357145,647.0092778879188 137.80729339138804,656.7500174581949 140.19828989832502,664.9763894700392 141.01749371054063,681.0684087058511 143.02388632122074,683.3474978041941 149.345569109591,682.3193880321919 151.3848687387167,682.6335001283887 155.5551029003261,698.0353407521642 144.8457239808345,698.0541671440801 142.27419298490986,705.2410554494119 147.40673284647116,709.9781854103934 148.63313736763,717.7300386088781 148.13275846339295,722.960730748058 151.11329616590427,734.4929135012463 167.53466124216706,736.0830766399768 220.69931652434022,739.2591590459645 212.47456043364576,754.1486432754233 209.51756048986596,757.9452935472112 211.50475421286873,760.3826960769394 220.408682571545,762.8026806450661 222.32445492470887,761.2959130212794 224.97482659286018,755.8909496019038 227.91381466988028,763.3237250420318 229.8849362615993,764.7947802327028 236.1343561798694,765.0159205212301 257.16019435138577,762.599351588972 259.6973319313798,769.9913695432589 264.39210172205856,772.6831705452078 279.46639903188736,778.030570068871 287.8458730111997,778.2566545118447 288.094879072785,780.4486622902634 288.6779059022466,781.8118473350269 289.0948203412767,788.8142791893264 288.33346866860495,793.0208549295828 284.8757720488771,801.4710733158939 280.54739978053937,808.524679512396 278.3569990834407,811.3573297401264 267.14879545766763,822.0390468700101 266.73330005099496,823.5289368305562 272.0841804815583,831.3092421832581 271.16550482421167,832.8637362935899 266.20523274973345,835.2901768517521 268.30763375883276,850.3643138924955 271.42911055461224,861.0220220201076 273.14983467490373,863.2862142055261 273.4357800758767,868.9678726284883 273.24823051258363,870.8143148644282 276.6681402109844,870.9711578806275 276.27746944129154,866.7952477619071 281.43696987471947,865.1151938067011 296.2272531353952,869.5064225704004 297.87197517378826,866.8253938397341 300.3447630198368,857.2101178532213 302.1607605032968,855.7402981424534 301.6985625431989,858.0576348979569 307.27636457483817,859.3851534130611 308.40235525373714,854.2004723838523 310.164566420854,850.3363962291393 311.74735253652193,849.8214923659339 325.4149392869874,856.2703416975513 331.44628494376235,857.781033290844 336.3622372884031,854.8289650133574 337.845744249629,853.0376501063171 364.8320262023683,858.0013542039608 366.9785498942931,855.1952319884914 368.6313760115355,852.4091820240432 370.7977511171338,847.513956130575 372.6075952442041,839.6946493241883 375.3072399865661,830.6210043648517 378.8896939522242,817.6501551559581 383.3886205440479,802.6646382339284 385.5350708350841,794.3837668834295 386.3424102413671,789.6548804528145 387.76245210113086,776.715752807242 389.7665934295105,759.9903367041768 391.6504672942498,741.5268155794704 392.8787753523694,733.0820649149838 395.06915157169766,725.5012389244528 399.9245990477056,716.156605611574 403.9053385435469,710.6892381984668 409.5131668365648,701.7672748296961 421.31236607671013,685.2011159201467 425.7979465978582,678.232508424833 429.8629914161021,671.661183381963 430.95322439876867,667.8891782599862 430.90980015490027,660.4624856923482 431.13804893598854,652.1151461787601 432.3971453352015,645.6644587769869 434.7592872553659,640.0319527449215 437.00336546450234,636.7325210747247 440.99378363934176,633.057617946446 448.07790461042595,625.9811377852614 453.5553998827587,620.0541060722936 456.6484085680306,616.2351691703603 459.18675917121465,612.6554836645794 462.85220522514186,604.7667784284885 460.55156272791766,603.4169436412067 460.92482682222914,598.8492059807254 458.9974715003051,598.1478998821342 456.9835419227277,598.4034117174814 456.773187855404,595.7543027907498 457.09138592157774,592.4735861980017 456.0758213140319,591.1606975685543 457.7335545248747,591.4637359911787 457.76428093322164,588.0729639099795 456.79559726152877,587.6962459990996 455.3812342441301,588.3381262990831 454.4140097763312,586.562925053687 452.190121652988,586.1762999138397 452.0885672230137,584.6294074504722 454.7707791405887,584.1439098407022 454.7433092476059,579.5537387639768 457.9818342610513,577.8477273070781 457.87560773615024,573.8939173611275 457.0186964460747,571.5094990378386 455.4555682190944,569.9192039651738 456.6924117633718,568.5207796755435 454.33170406367776,565.9118684239845 455.05380859308497,564.4892104017053 456.80412617172294,564.8786378899792 460.07007273945845,566.1457091706436 462.4460877700223,566.3922170238011 465.90612481666204,565.6410451105353 468.1089138382995,564.2019222566496 468.9407556375353,562.4332727435128 468.8812877201308,557.8085099875207 467.9945500435773,553.7551023588237 468.50313824676886,551.476716413262 469.76843217746807,549.6259456139114 471.3729482450201,548.3394459819658 474.34723296208824,547.2159814593228 477.39940836844966,546.9539254471449 483.56841280591016,547.0477685971218 487.82910849917727,546.2738629593887 493.6371692104708,544.5339434543562 502.86350946591443,535.474608716762 508.4166166853906,530.7376540142054 514.9606044648797,528.7241484296208 526.0146620511645,527.5933056880024 539.8621738039149,524.8366456518928 550.2323954403674,524.5880710040557 556.5576396585953,526.7525407542348 567.7039408614992,531.9030370676411 573.1674497529799,534.343384030929 579.7062078418413,534.5681356499972 593.1899135241005,530.8882931234874 605.388340612451,528.8606095506102 628.4824084420246,525.6340318904965 641.5654038830656,525.2372136393051 653.3523910360334,526.2322241231223 661.2065467771303,526.4372850052295 666.015248371136,526.1173185942755 669.934402607472,524.9764296055114 674.0437947634168,520.532838598079 678.5867600485195,514.704910536808 684.6629947681942,510.78340895481745 690.9748456798062,507.9753058185713 696.2011488952287,507.37328003335716 704.5165249815748,510.04965577731406 730.0956608235949,516.4025232739716 740.5608864326094,516.5746252186079 745.3532849512922,515.7037125791741 752.3074552147538,510.95850831141513 759.8720381486135,502.89961777842797 766.5711085431957,494.7154096857495 769.8230857129088,491.2400023281757 783.1869300762507,481.10079945856387 789.9526031252308,476.39283188736533 793.5911725073623,471.2471542342341 794.8099983650327,461.4727715631653 794.7058076073495,448.21867991321324 795.1946328395959,441.2396082360625 796.0734303216765,435.1864997284465 798.0602453039957,430.52317833106366 805.8876105209873,421.3870375496083 811.5237944012556,413.2044815850646 816.2259471691135,403.6207293988241 820.4081976656748,397.54354402563763 826.9835334854026,392.61204765161744 842.1017129323045,385.9492142400587 848.7126146539894,381.6500598037622 855.1065752940749,378.68887410428306 862.2463060272104,378.63018002118366 870.4513990979408,375.9565726632727 874.7515635908687,369.48709591280436 876.7261912412923,358.73939347637713 876.3661046973473,344.938273244692 873.0720881822084,326.72741659941005 868.7650205628445,317.5595572602509 866.2754993829045,309.44722275142044 866.4111199998914,303.55381574081025 867.4640093610502,299.24760783766556 872.0634589834184,293.13583996030775 875.43480324356,291.0161946172972 876.7136773348083,291.74332500014725 879.5779994432921,294.20851628668083 881.4612334799986,294.73184066379827 885.138716317848,293.814247815519 887.4533656927349,291.99138182981255 888.4621588676262,289.74224934781637 888.6746886452939,287.02533300195796 891.1047152049249,284.24506536881074 893.9882321165284,282.9265686502707 896.1244062064387,282.98804752361355 900.3692831285894,284.730804913169 903.3147004762386,284.7058591511159 908.2594048945379,283.1709194199684 910.0562558892949,283.225183900106 911.8996039283211,283.90254780151804 915.7832725872387,286.5000804866943 918.1979188014308,286.7824918731702 919.5992898539785,286.2239857784398 920.2166792667914,285.26479365718774 922.402809386823,280.4020087234413 924.7626275828472,277.7361488528046 927.459535488074,276.192661859096 931.6415198527726,274.2661821700841 932.9863618014988,273.0820577022166 933.9456879304147,271.31251898523794 934.0015057164152,269.3769015821771 933.3291584692597,267.82019913560475 930.35151890188,266.35295554881316 926.3109703702831,265.7816477449503 921.9970231823382,264.1965906558713 915.1133149043616,259.73443869873324 913.2082678009866,258.004370156105 911.5868100930967,255.4943341657597 909.4921131248983,254.28005816153438 914.2487576456549,248.73715781008298 916.8597562183435,243.15287845041257 919.6746922588133,233.93252781540275 922.715311987289,222.26331301426274 922.9089735284513,216.2823429040276 920.6863764608141,210.63015520234967 920.099906263241,205.79361181984711 920.8894316917639,198.43131406130794 925.8618507561091,187.20497105986874 930.3793528291079,179.20433203244534 937.153406141407,166.5858464412088 941.4634122468282,162.10922009496994 942.0502903798644,159.96029188224588 942.0115578658821,155.51151873038873 940.9567363676664,145.09720741065053 941.4781447873949,142.41227045384926 942.8962029433003,139.1829436526732 946.3630518312535,135.63265669720545 958.1261270679234,128.49689651926258 975.5976969841145,117.36480070358039 983.076869474201,110.60327206300303 1022.1439615351604,71.53133805258562 1024.0,68.22029269287486 1023.0445302485274,68.05515836678615 960.5851392506517,56.04690293099668 950.8822363593158,57.88357647779071 937.9535626966118,68.5541667414991 933.8393782380075,72.99431102595236 928.2744204129966,73.46727497953975 922.3752652287992,71.75688617103833 912.7751760054597,66.74427418400114 905.7998422805111,62.82420913620979 900.0652222385505,62.430788797747255 894.1785132218915,64.66422047591982 881.3324317864007,74.64684430770035 870.4772842927042,74.04443071085257 863.0450947803998,69.27696216933646 853.6291992243894,53.813925241998845 838.5788573766548,47.774046079069535 829.4349466232356,40.35121252793488 767.8332248164074,23.428495725383527 750.2913611947052,21.683321191589812 740.5363770340834,16.670363144110638 676.7490079984435,0.011816598318659999 675.9813885751614,0.0 635.3403044821416,2.63037586065343 626.5104142953957,3.5765882097555277 612.9723895776083,3.8171822028131146 589.4715088032809,5.433681090442178 579.0748739197861,6.380734673971801 577.6475035159864,6.094717499506601 562.1764553907765,6.883519337048938 564.6964513625643,49.945504137649436 558.1779630880641,50.152600893408135 558.2657102339961,50.98418254316914 560.8493919218519,58.74222222836579 565.6351021629888,64.76912782719353 568.4190572843515,71.64140522679702 553.9138802299826,70.63693172380772 549.4898226339033,71.34163353177564 547.1427856744142,74.56391115692998 547.0766797639388,81.83020447351726 548.0882609955313,98.4245167312232 549.1193722953132,99.42381017496848 553.9146838603933,97.27593963857362 555.4159311131136,97.9690522918745 556.6969353845775,102.39962035286169 556.9172345812107,107.88544133197342 545.0791603713321,107.42650088400421 529.1680572891074,106.64528216556118 516.558946923338,112.13624169886725 504.52688325760977,118.22132916104954 490.68325293188525,133.37615399332526 480.9537590910347,138.90874279056334 464.39657279248274,143.7620414193059 437.2227416384782,138.20192243134238 420.67315445169703,144.19630045912038 404.6188133286824,154.71962534827867 384.0705556814807,165.1674957766022 358.4142225290236,172.68018176887279 339.093619137162,175.75109703738815 317.49977042543424,178.22583172648365 289.847029722672,179.07969090213908 285.35325985114565,175.25242783264287 285.3299436880932,168.35700487826807 278.15504992811003,165.5665866121775 271.2410647676286,165.52434992959877 265.53979670315255,164.23382585777074 255.79851587856027,160.70015691773995 252.77107111835255,156.34571797594265 253.58469287012454,150.8421861139758 252.91298332461065,149.7276929237878 240.33364783200284,151.0906216036135 237.36551130199624,152.4214727416513 235.960554533672,156.49700191786883 230.55689673104354,155.0400088910335 228.40796473253138,153.95733074758027 227.86401596078034,151.66224733826436 228.8859539562149,144.4935734071455 221.8894765115919,144.23127077150616 215.41004352041205,140.57812213368265 210.3164143888163,141.1733231736954 208.39262432947658,142.50875085015537 208.70011705403758,144.57895240665368 214.6524834970157,147.40516894494522 214.92180186903255,150.09156569304753 208.44908800672104,149.99270630192427 208.51577548763353,151.26667439134746 201.18465424144912,151.5689934450504 198.92645183984925,151.38815616799445 198.98024151736155,149.8801362319963 198.3407397053665,148.87707541507984 192.62943546100598,147.29866166802594 187.0719482515368,147.63699631819816 183.06695102314043,148.97415086318097 183.81405574822082,146.06452231217872 177.96500622160298,145.61399583986838 177.09677163709605,146.44257626328044 178.0336429544092,151.72673817625946 176.72243109365502,152.09777315620818 145.99586516916546,153.15963712547432 146.4565279553478,150.4799323512642 149.38120097214332,146.21720038979606 148.2910548944927,145.60590386328283 143.30981027096,148.71498895684726 143.42896448365408,150.448283282322 142.600214606244,153.2090503796651 140.88061370872163,153.86723736730733 139.48352388859175,153.4236307203032 139.34297447441048,147.14477182140433 137.49561157734092,144.48986623038638 123.61839033031413,149.50166431476293 119.57951610025476,149.88122880911442 119.52305628180336,153.72415177820778 117.5496166748155,157.44341446083342 113.826986848128,158.05005605118276 113.59356904469684,163.2002685066807 111.82477097727998,164.80476902524902 103.96961693006354,165.54746076146364 100.43777309660507,167.34037579108804 103.89736778182612,175.20040622376212 99.9889470578864,198.18295623119445 106.7492066860659,200.61943641647986 108.23277729396538,194.37614466455022 113.9741158713073,193.57249850882374 113.65224769509197,200.09668950732987 114.44672679566487,201.203725760937 115.1451720122832,206.0917304450728 121.60070424961052,206.31572433914403 122.16594147348289,211.64143501094952 125.43648192073739,216.07647381805327 127.90301316015928,216.6821101376729 129.3981959092117,218.42946889484188 133.11898456694445,229.57658493561712 129.60447839984147,238.02447220203828 124.1091524579852,229.56244031355197 121.56495373545017,229.6426455562265 115.33003930820695,233.18338996994123 112.88661707439161,232.99478903508805 113.09033284129539,225.36823114661104 104.25044863130773,226.591890075626 98.47420261117901,226.78927437648622 96.55447277260234,229.06985566534468 95.16405244565452,238.16670402169132 96.52770452243578,245.2404311705085 95.52198467105423,248.16064029656252 88.55711515002174,253.79238664675415 81.85309491393228,253.6128970299228 82.80727802281423,261.3639674036003 78.5418780218863,262.12849719478334 75.25800037891358,262.2010274976856 73.89685551976872,263.5948833630308 72.22263391478907,278.70871613103225 71.0426223465946,281.33386998222625 67.61255893771477,281.21804976343924 67.6553018013977,289.70547401222234 72.74706176746848,289.4670572574536 74.94479770521913,292.33236120380946 75.3750996673677,295.0456091839901 68.26649306079678,293.58051495255927 67.93670841284957,296.0210135933037 69.25488662921433,297.1187561373504 77.2994739246571,298.6844588764013 74.86781213986697,306.7121279089505 68.65784304984417,306.98723787249764 68.57433855558703,312.2485183577261 65.89173772820484,313.86353492090893 63.35789043800812,314.3949465895332 62.61594375384317,311.18609074864264 59.85095502202674,310.25034444993844 57.25002301608661,311.6935291590801 54.53522057294528,316.2072392369205 36.04055702571411,317.8316438270748" /><circle cx="336.298051010426" cy="355.56390870456937" fill="rgb(100%,100%,100%)" r="16" stroke="grey" stroke-width="8" /></svg>