<?xml version="1.0" encoding="utf-8" ?>
<svg baseProfile="full" height="1024" version="1.1" width="1024" xmlns="http://www.w3.org/2000/svg" xmlns:ev="http://www.w3.org/2001/xml-events" xmlns:xlink="http://www.w3.org/1999/xlink"><defs /><polygon fill="black" points="1024.0,227.2031991743819 1021.1144622888675,222.02437678865482 1014.1465135062865,215.4113385852251 999.4266762312495,201.00015137244873 993.6508906911415,196.0556291688909 988.6996392514518,191.31272256472585 987.5247139101257,189.13643131544842 987.222019659533,185.01897254837257 988.5415970737018,182.26320534578002 1002.8518903512356,176.27106637021166 1005.1314414937694,173.54127183289006 1005.6187301581583,170.1071571460427 1005.0563730580832,165.48374821683353 1000.7224054934197,158.52904898793463 996.004910206415,155.26680646966554 990.2692234819691,154.11480581171497 983.1140948633395,154.88676581725633 975.0440885638312,156.24788084772774 969.9604252179325,158.23879781912024 968.4441352240278,158.19732103750516 967.1065529154481,157.49886822242615 963.2022870107276,154.0950760760801 959.8322655266008,152.26459430403872 955.9306955073675,151.41740375360314 953.5528793064684,150.27586732903455 952.0406998783069,148.2611520221095 951.2743136912497,146.3390670296144 951.3147661017939,144.86594195126906 952.9174806552818,141.37796765886446 956.2277929992454,135.80075038081793 955.9955541912592,134.31395866575008 953.0114754573173,132.41554480898753 951.5972679085208,131.99938649061642 950.2012624044972,130.48061483189497 945.6271115249989,127.59197037304523 943.3180644035274,126.6026702525827 941.0151030531131,126.08361490367474 938.7245223831554,125.11537880681976 936.4105420617838,125.05988277141739 931.7838040358279,124.0271686724551 927.1290489675725,124.82452225658801 926.0653233587369,125.23640071762497 921.7476880537831,124.77485759534147 921.3567968540705,124.28775497453876 920.020358572427,120.31257436481019 918.2202009590086,119.17410833830309 918.4417900572678,113.3491606919572 920.0878599459236,110.55956054703233 919.2150633883315,106.25696302472625 919.4053271255192,102.68893647882726 919.6924413309735,102.49068682579025 923.5384491948763,103.18053873076553 924.7980811668758,102.24006547695592 925.2743619406518,101.13567260196908 925.6085602576587,98.54484478589484 925.1854535698328,95.22379778042853 922.3000114973472,91.29240073972835 920.7580281735723,89.57548765768843 920.0233635250221,87.65408347433367 920.123014682431,85.86297675054232 922.049517786313,78.73462637274861 921.559927926438,77.76023395144114 913.5248837012125,79.38734305944513 910.22479645537,79.83817139957875 905.7678967511941,83.00333401206615 897.265445130205,87.9426834860426 896.0935170098774,89.01943281687295 895.5991543603818,90.39543603517563 883.6474266916819,89.50606588348091 882.0764923676701,88.53028131557119 879.7221504288821,88.82135599792161 879.1317132534972,86.7614916184998 874.5241741929675,83.72142845323117 874.1298727032804,82.2505508434507 874.7218692591094,80.97216882541898 876.88418856876,79.20150880839674 877.4667866171004,78.32081575695247 877.3722592440762,76.26034314417814 877.8567921849145,75.17896481844673 877.8587658742158,73.31294729470153 876.5484574929849,69.13389735664532 875.8485406873443,67.78232970039221 887.2730016600322,63.23886366493775 890.2495545307423,63.10938264508536 895.1205028764141,62.50469896842185 900.2601304573514,62.11354601625487 902.5367906542413,60.62415651773972 903.5182333532115,59.1214583486061 903.7830631589354,57.23595674685146 902.9577851476992,54.92016416664876 900.4294971362109,50.921926892283636 897.6374261144017,45.854405983413585 879.8777470439784,52.77649736611443 880.9128141415388,56.29215183152712 867.5059040889289,59.76938445656981 865.3811834192235,55.07668269168141 864.6848780643647,51.81164376266588 864.4974545289283,49.806279548503994 863.1388728168002,45.95151974554733 862.208526282756,44.508884269796 860.9689933074131,43.99165838944043 858.6853536436215,44.305008731368275 856.6216580162396,45.028647484728936 854.0060740086078,46.33682110814232 850.6611227856602,45.566618303697624 845.3862351602088,41.80377642556664 827.7322891659966,28.42326071999355 815.4774045285837,23.002469755075253 810.5676335111641,21.39743962265254 803.5627869182948,20.223653106945676 798.5407837736608,17.953175687034218 793.8004374034658,14.709006150918299 790.8856582490452,10.192749432271853 788.0217421942842,4.197312143719614 784.7944368000572,1.814524512861908 778.3544021148082,0.0 771.8738597903813,0.334831412561698 768.2571370537487,0.8935179656580203 764.6289131453343,2.2766422915894964 760.5008919517933,6.942698745987059 755.8886583005208,13.735281312915276 751.4157072722725,15.593023311708293 746.4178253390447,16.779862628527326 728.8112471318129,14.366748668646096 724.3473698579231,15.89622573008512 723.3665447282519,16.608288093672627 720.3693844753913,39.2281278908531 718.3534889516723,42.46534469893777 714.4256261865612,44.010088495146306 704.0304776452843,41.11174201302413 700.8749344626912,39.71931953898263 698.8337363901344,39.338596363407305 697.0009790003121,40.11250293163414 695.4091522005779,42.70806656044124 694.9037057907695,46.14549443208091 695.682155833514,52.49678752202249 695.2715301146816,57.25467754223098 694.0979173102575,59.36329936192192 689.8034740333335,60.24118072003591 687.8632129353495,60.18497474137894 687.2929243471433,60.66749456913715 684.2139386397538,71.9407947977769 680.8778980803659,77.11290357082828 675.4042114641412,80.26385409148611 671.5791999758576,83.45843608077246 669.6711422365921,87.51704213937751 667.7086939816983,93.3846484037125 665.5697932143422,95.63004381269752 663.0450511421683,96.8805316295842 657.3877282987261,96.57356494731641 645.536493378013,95.69390265741777 641.5187725724638,96.40352272604957 640.081064645047,98.17626251845206 639.9802214634434,101.62751757099363 639.5730948617847,106.21641114849513 638.1648094011281,107.33422008804882 625.4634767477669,112.26247985058274 620.3378874164466,112.7804204228978 615.9155668202891,112.83010817488355 612.6731416873846,115.36840122474598 604.8243935905097,124.2054537704297 599.7046740166844,129.3238952104017 596.9262721560576,130.2319910777494 588.3964006053415,129.1763589601294 579.8809612106085,128.27747160033744 570.4179622170959,121.84384089581431 563.4747794924651,114.73572995152392 558.1937006692613,111.62385752748071 553.970542362701,110.0239628847628 553.0298518907168,109.34227729698671 551.650497589717,104.69411287562207 546.7940583220361,101.26656231713503 537.4863815193252,99.506713383445 527.1710588633156,99.02793511401171 519.729905431424,99.46974352098312 498.66327925345365,100.13398120153727 462.888680566111,96.94911705094228 453.2399113843302,97.79583609640702 446.59460948774296,99.39098670524731 443.9311456070462,101.44694628169714 436.08795063946974,115.16760892926334 430.9369626157693,121.82758146092635 421.84413470568273,126.95892002056905 411.80092635215595,132.0588269664346 400.6298661515903,133.9908986405752 393.39469006698084,133.27070567519877 388.3998435623704,140.68930325867143 373.01730836926373,152.50839863028148 364.2898103300172,154.527765063806 357.6064482656535,162.20110706962794 352.25137830169524,179.95756323498028 349.5245378069959,183.3221525173185 346.0207948788515,185.35100900480217 338.9616908923147,185.4118199044658 303.8157048263882,182.55032272186486 297.1134051508481,181.92134598788556 294.40989613925706,183.21922206064886 291.3333809774544,188.38931240831454 289.47015630551317,189.02230072175377 284.2655110012672,188.7179225453213 210.62616849784698,185.41868286341315 203.07198652344124,185.74320090803764 198.49167573435787,187.13096484550618 196.65656417890565,190.08651733642273 192.53972454176912,213.6546227785409 191.02939501507913,217.2144850119542 188.43910349241207,218.38659744159395 184.13515267649964,218.39257521037638 165.7778080210388,214.10931167174243 161.08035815915832,213.76186437062717 158.7800973905978,214.7282705250144 157.26802945270717,216.4190199406225 155.6504644369585,222.39897034615592 152.96175188808223,233.05610183335853 152.2183459364349,235.04978315222638 147.8640450954262,250.2949877172457 143.52508852258964,265.96349527098226 141.62447629147678,269.9458682909765 139.57212072083448,272.39076135979235 138.0552459265282,274.8094092475893 138.12868550754686,276.62903969519857 137.78347729978364,278.8788013575254 137.13378585991015,280.85481240945444 134.0700765269804,286.027348938405 130.4695228961017,295.0524374182601 128.58904215946356,297.467669136309 125.95576817026375,299.60922814719834 120.84079964280302,301.7992622080528 113.81040927432086,303.3213615438414 108.93886091679703,304.8195979228121 98.83234498277282,307.48223532284214 92.15905170342292,308.5941897431828 89.55397610281565,309.8388647578481 86.14150479364908,312.9367440307224 80.11118607728358,319.869612545295 76.73200798054337,324.12566247894244 74.04623111676172,330.3863915927464 72.49566226933695,333.2181614038982 69.37405388522163,335.75583349028403 65.2052574757875,338.3401083904019 63.696402008003815,340.5171886968401 63.60624499392367,343.30941430620004 64.2727003600221,345.884715345064 67.11400307740361,350.1639548269867 68.39950523637503,353.40899147877496 68.41242235148486,358.9666527700281 67.73813701882109,364.7888805491177 66.54793251968184,367.71064085724424 65.0935608381924,372.27207005977556 63.98698074040236,382.6886944646586 63.836580762312074,398.03329717220026 63.60951943803958,402.5497372174329 62.80973721177975,405.9771009287339 59.82530646504098,410.82539914251026 54.89433925268858,415.9346773222744 40.59383745213501,428.5734205382106 38.7212281053541,430.990280148393 37.06243029801338,435.25410699140735 35.10101681227358,444.74156517265635 31.911493872934663,453.6879598009134 24.16844409418451,470.7195392100616 17.123566934105924,504.3176971407371 12.512472250673946,531.6514775609223 9.264909953059433,542.0006059810528 0.9959892867918351,571.6496538936326 0.06260902118831099,576.6341375466736 0.0,580.7475122585229 1.7633217855087708,590.1825630378017 3.6022360749894764,595.4283037405809 4.084489093361208,599.6377421031259 6.6699005645016705,620.0902135517231 10.249137042061621,635.2670724279927 14.55105127155791,643.4659266954496 18.813574247219346,650.4297874041727 21.54260303652105,655.8628266212132 22.464677305196897,661.5653894265387 25.61661475200507,668.9489819225636 30.536171714742075,683.5887279113379 32.335789887798086,687.5908649471721 33.80586294896604,689.2823281639942 35.1745329812671,689.6544431177143 40.72246915940482,687.3619966592191 41.97809567054632,687.1507757888174 45.08152122101832,687.2445009959713 50.307837657253366,688.3120111840184 53.97351048809027,688.6670684809692 61.942595339596124,688.4217368272509 66.67806411572533,689.5452063059489 69.37231760196829,691.690208229188 70.30121345413272,673.1531166838328 70.50684627159866,662.6272664619358 71.89437466326248,649.4226476168957 73.51565230067362,642.2302111050155 78.08051416745134,633.8098640076022 83.85543279899481,626.2491516092016 88.74904631150831,620.8053696876719 104.6134643406073,609.0533000990941 110.71037183896027,604.7117872256487 113.92746941446129,601.8419190799807 118.49590981830603,599.2666773979189 120.94151663075282,598.6803186841985 125.27460322484828,599.3028799608511 132.80323477311686,600.0144562382775 138.73090855496463,600.9740283759544 143.92598577809488,600.7097040223066 146.2431076456421,599.962175760608 150.96709984953662,597.2178337833183 155.42666313499555,593.8957221880473 157.3159975124063,591.9258103181423 159.85212606384283,587.1504765880028 160.88652312404477,582.9959616552478 161.23889480208766,575.6866969834003 161.69964416828267,570.1031830160878 162.43817161097192,568.2329992138698 174.67568740204086,554.4015190679669 183.86011889124637,544.0787328253075 188.9245785842818,537.5552559437322 191.34778543176867,534.7252634004627 193.9998233531933,529.4107784811847 195.38415817117067,525.0629677678664 196.454993437111,518.4508318642412 196.61469131583814,511.44495191105864 196.86612117441942,510.50198402641666 200.2706501140685,506.7539670199158 203.6511148750809,504.0983376327055 208.84594858200214,501.14897154669916 211.99188893979647,500.162758217321 220.4289571676477,500.2189393942922 228.78124210218286,501.04555085452967 232.97061679181692,501.36836866030234 235.8741998843366,500.9248909132699 249.09614108771441,495.8675181025295 253.26229042309023,494.9846089545349 267.00665963516497,494.93368565127946 276.15759673615725,495.52511341701967 279.38854683078836,495.35305715998527 285.6231448390809,494.73979250891375 293.08821768726773,494.7790115799834 297.1958666766522,495.38451143888403 305.756259823219,498.38169467506003 309.58830503786254,498.71439580317826 311.59180190812395,497.89753453157743 316.10765395698513,494.53248696477635 317.17174288169497,494.57350859825453 321.0166737263436,496.5109915604173 323.55895429659114,498.2804484095708 325.16840004908096,499.0085024077894 331.859730180689,500.09892808044015 332.7948467017295,501.012447194792 334.0831650564769,503.3434127553678 336.1021179749466,505.63284868208535 339.25624409261394,507.96532005593326 343.1033756709337,509.1681086270898 346.76126523346664,509.5936547481375 354.6211287597655,509.64855226272346 361.99857806763265,508.1972300806072 367.74557128571945,506.63813638665044 371.19852008596484,504.52220504719946 374.3721026913456,502.19145941953843 376.0301362476572,500.0228047692705 377.1509361547187,496.552881468305 378.36862872770485,489.8437678897336 379.65028324881774,486.37873636003314 381.4012916667618,483.1981680002031 382.94495728613157,482.1046384560286 385.47156896230894,481.038943377113 387.7373794177635,480.9160601043925 389.68889835048316,481.44563025148204 393.0041544846901,483.7799801121076 394.5794949325932,484.0361375091611 396.3496201869639,483.182431533408 400.22547072881184,480.40239294124666 406.8498961514535,475.9649428676636 412.20302905874286,474.320454843655 417.19160855881427,473.6732970041912 423.69105159866626,473.34802478775464 438.0122949060469,475.59301954581554 447.8119612499202,476.4449163390805 451.2569522209384,476.554702113717 454.9576605124842,475.53162826155 459.0699726921202,474.00731737603985 462.34582830963296,473.63335664163344 466.9717041420625,473.92263716411446 472.2944162778757,475.63711087506204 474.9825905947016,475.91763799657264 480.67951456146915,474.61969823706977 489.3947737149889,470.3698187852118 493.3067701893276,470.0864821865437 500.930145022847,471.8336620421812 505.56303864470584,474.26900549182085 510.1488520262373,475.55412676891035 517.9550880466451,475.58605239757594 523.3741459077164,474.0640741417866 528.662204736996,471.1150997545158 535.6872372879565,465.35087548256587 541.1374560522027,461.05973050362326 543.1288728454923,460.2400951390741 548.6789325217867,460.0617532522223 554.2653552609437,460.76282724006364 558.4176434280819,462.2979033576253 559.8428373438308,463.82471270452595 560.5024607162472,466.53329383965433 559.475596674327,479.697163617269 559.5162873558851,485.89947280045646 559.987172513554,499.19611881993825 559.5852430303158,505.25752332135926 558.1416851341355,509.8694429890921 556.566640462872,513.0627984964441 552.7557529275658,519.5310535421181 552.1994115601259,522.8905166084886 552.4486011797196,526.1314305523877 554.0981866740665,529.3496808415591 556.7588663701124,531.6490665315594 569.2352834758608,537.1261892735313 577.66197704244,539.6502020416924 593.5331779849125,545.2477388389209 601.4355772551344,548.3635848026547 609.2999143020351,553.0905559090774 611.1074762163696,555.0919662479661 615.0057859602748,563.3571762622278 616.7344366127085,566.7069208566355 618.4893094093484,568.4427465700173 621.0617373760181,569.6517303732721 623.8978732379328,570.1342161031882 633.2149842703128,569.6272767415044 639.991582354292,568.8957530479245 643.8398995761323,569.1267936003915 647.6751214523849,570.1100431949587 653.1765862055447,574.2303919978176 658.4667417771329,575.7750763044736 662.7046037834062,576.5613354735052 667.354729259382,576.8108554833882 674.4991255377054,576.7237482996392 680.2687440835897,576.0607132830767 683.3714290769163,574.6878550744743 685.2495151444496,574.3273181046385 688.3787762921344,574.1387692946865 701.3134632978337,576.8870494976214 702.3087668264883,577.5857034916293 704.8311158739601,584.8049258056825 705.7496188179241,586.3736031803302 709.92152881316,587.3568472707233 714.692366343788,591.518186508379 716.6879627624513,593.0536129213795 719.1158108203631,593.6507460098334 731.8257964369454,595.8273314871326 733.6974928599877,597.7652438799524 735.0900060728173,600.8957879105844 736.8575081462926,602.9667893293129 739.7720000026504,603.5795157020643 752.2426287627626,604.5683239805646 758.9331860324934,604.743302751753 768.4884229007531,604.1061175566854 781.5581766277245,603.6313856861872 788.7834116369761,604.6286092318034 795.6593794888124,606.1559568541871 797.9294101790616,606.2135179750052 800.228481007157,604.9274810649886 807.0812542055725,599.3091384480513 811.3062921938373,594.0231946509463 817.3140389753785,589.5994557153747 827.1651550854247,585.9489084930474 833.5326253243778,585.3121515529123 838.7164034830024,585.9927458594864 843.4457749787877,587.002815810305 842.730510845652,575.9166938787181 843.1349394043558,573.7732689182598 848.3728862896727,566.7023977596555 848.6714199754705,563.9415758530467 848.6371677830848,557.2023445464978 848.1582486052896,552.1270595953906 846.6382834020911,543.7567396628845 845.9306764073924,540.3678898054418 845.9490990543371,538.2755706114464 846.9584094071965,536.6129119012804 848.3441244970714,535.3030018672303 850.6578722537831,533.7549813055589 856.2630297321809,531.6839925960576 859.3304762718283,528.9361770645131 862.2206020557287,524.8988379940178 864.795959845949,519.7805472540803 868.0993027232365,512.8865208834216 870.1770022879131,508.90490546111147 872.6718412491607,506.67712462464317 874.6713457833204,503.69950153283355 877.6748397817629,499.6073834741844 881.4327154566739,496.4082753613349 887.8159278801318,490.3125839216429 890.5258111273816,488.36889227648965 890.9919277490316,487.2910405058177 889.8234796317042,486.6525727920866 891.4723923344507,481.99500568488884 891.211951012148,479.325940929407 891.8940923517288,476.25610676093754 892.9994247963052,476.23096515874215 895.2154952326944,477.4900945281281 895.9841572334145,476.4267707904463 896.0746134949655,475.0313241476008 896.9909507163591,471.1885584377221 898.838228073581,467.80240521930637 900.5702995537509,466.70791160224087 901.8697810749811,466.6715807981952 905.2646977995562,468.1857724131221 907.4701946496966,468.31869105420094 908.963131254704,467.4814522973289 913.9373136881197,465.33587158698947 917.7042410959991,465.85181401828766 921.5738356552619,467.0426549347652 924.226408131189,466.78146535039406 930.5320462026912,463.4225205812905 932.059337849938,463.5365489227338 943.6982620123581,470.8880075161659 952.7694825141755,475.7377196646214 959.7217581489588,477.29013090009136 962.2582727623827,477.1592298933625 964.1893435623352,475.164447380714 965.0889732090164,472.9622002432201 965.4863618512198,468.79376367664486 964.7728207316061,466.0053519126475 961.2479872751487,458.8270806522103 959.5418300017213,452.6384790681325 959.5619260367905,450.37723023124624 960.121996203961,448.4379093253374 960.3910744886269,444.5360673204807 960.2396040126935,441.9010780062807 958.1661498357813,437.320939578615 955.6690632355247,433.7436151869874 951.0919231110986,423.5631719209617 948.117162253284,408.6037771864832 946.5347032987448,396.41635055956164 939.6502760685713,378.1084568095601 938.1997258279066,373.0130672227256 938.1204068914727,369.9738032992014 938.4649232566024,367.75852505221457 939.1887676294632,366.15982742916 943.1216720559102,360.47797555459357 948.3313805279436,349.6702435250191 952.3486270257021,342.78025558664933 955.4984602040931,338.68912994950557 960.1257731946632,334.7166747288522 965.2932153663489,331.2928693583756 974.0754590612855,327.50559700017664 987.4470046817703,325.2302665220353 998.6768822891029,320.77435434437996 1014.9107971661206,314.44284669691604 1017.0868094525781,313.35322768169175 1017.4993516532484,312.36028867371533 1017.3842339884673,310.60261404692926 1016.5603135054209,307.74336225068134 1012.3785440377475,302.094472671104 1010.5069448826077,298.2646119309834 1010.2304062821279,295.76443928381474 1010.8067932502059,290.9534085691646 1010.7117357962737,288.45814466990805 1010.2400482665532,287.16295350131196 1007.9564783323983,283.99403501525984 1001.2877531802624,276.78676725226035 997.7568026738026,273.71169162569026 990.9748673809121,269.87194230673293 988.688512187478,267.20779178631545 985.8778846428496,261.12529280994465 985.5157761337616,257.3382008335025 985.8439154893616,254.17606371123333 987.1660238589765,250.64304269476418 988.8069962397678,248.73514827384042 991.5403212188359,247.60537711934893 994.4208655436576,247.41975035385622 1001.2298363639685,247.55513078744485 1007.789746665682,246.79899670315342 1014.6696904540555,242.45553592785984 1017.6908545915221,239.30232355755862 1021.248179897591,234.28321688443486 1024.0,227.2031991743819" /><circle cx="735.7234834847499" cy="305.12893982001475" fill="rgb(100%,100%,100%)" r="16" stroke="grey" stroke-width="8" /></svg>