<?xml version="1.0" encoding="utf-8" ?>
<svg baseProfile="full" height="1024" version="1.1" width="1024" xmlns="http://www.w3.org/2000/svg" xmlns:ev="http://www.w3.org/2001/xml-events" xmlns:xlink="http://www.w3.org/1999/xlink"><defs /><polygon fill="black" points="0.16615194428198038,469.13856496055325 0.0,471.8465665636464 3.735212860435797,476.97238151438967 6.363707789850172,478.4423242694126 11.417561822476811,476.59926000666053 12.894673474734933,478.9905037199498 15.612088839099536,478.5748970717711 16.62218303043115,483.5131710085335 19.313865641347586,485.4597829677575 27.67123382831919,486.6429229884364 28.267285867017463,482.27476251012723 31.831535865901085,481.4098134567416 34.241476749336606,482.53189388645876 35.6916359857322,478.9253052011608 37.25129909286336,478.6220436665247 43.24509773386702,480.02128545099697 41.77418514456182,485.2883008117097 48.26661115860299,484.08497237963604 46.209249346442256,490.72435179129667 47.38730776502629,491.6090754361459 55.60205657959804,492.3663121293825 66.68660144281509,495.3957127201654 72.77107293730401,495.7379002254146 74.4428425238276,494.9507599325249 74.38090045207602,491.1880520462951 75.02131254800356,487.66505472723236 77.49792495722015,486.90337614705845 78.53682014529268,489.35705036969864 78.3697867888076,491.1214628009963 76.96195486577118,495.2962213899552 78.04020124428318,498.79084736372016 80.50524248540579,502.446600705847 83.8956359826676,504.2861769090873 85.29567315312048,507.55542599058305 85.7229568833889,511.9150856227709 86.48948476270958,514.6611060593806 88.82111424043416,514.6315544864178 92.19446482894021,514.0316725485607 94.7278991747811,514.672224602546 98.28567344975716,517.3972620191455 97.26070453264366,521.3631798912074 97.98216881843877,523.144399270313 99.71735908996298,524.9117201838188 103.76176833724365,530.6240231562225 104.37138959558399,533.463645701003 103.43051465602576,535.6457999070052 100.75213926613462,536.754927585916 97.3190618545072,536.5628623111675 94.65866758456534,535.6783417528533 92.48826059816592,535.8534391269868 91.83192953997704,538.0307699124075 92.36346561558955,540.2483931308246 92.22826760490774,544.1522979322472 90.45415108112124,555.7643442761912 87.54475801080835,564.661554219975 83.63552934744884,574.5520092572344 80.59054253536732,585.727903979885 80.24906987965574,597.8452027651714 81.9880110169337,606.9474695617516 85.76310720103207,612.3725664994079 85.22662622195267,619.0791661214346 90.8777882088166,634.3922572777286 94.60014528640285,636.6167534134686 95.68284340593252,639.4678470687134 94.45872084157155,650.0144775501639 93.96606610695295,665.3129936002565 93.7186912232976,670.2930884700536 92.78412372127346,678.0272557856406 91.75604334671362,683.1731706925709 93.36490500581847,690.6501832020208 112.39000781509343,692.420184086832 111.93910854356078,703.3526806658834 114.19142092727138,708.6874760977274 127.32726139668738,703.3465248436972 129.81408595933974,703.3117319701468 147.34194894700312,709.6591516455563 149.23076055591642,705.5159024336359 153.8867769677777,707.0930031403045 158.82106693220442,706.4320919982955 160.7803840969552,708.8489744919948 164.0153232865043,710.9919981559267 173.39635338965854,713.7551421153507 177.1480409832918,712.8455740862395 177.82212006290786,711.2228012156631 168.57351337499674,697.4401075615592 168.1675732326145,694.530789263681 169.8724647188063,693.0721428073243 199.81973509368044,692.2962863681671 202.74638005026853,676.117223532847 197.46876827093735,673.352071278227 199.12861323941422,666.602613265003 196.40087452186964,664.7644050584477 198.525875947354,660.9329300240091 202.7911134088995,663.2394438187877 205.2895209796105,660.2921965994162 207.26058603970088,661.0024584368225 209.26344194717242,660.58158047001 210.99624628892028,660.9110350798934 213.35076391345126,662.444659469448 218.56514112127056,664.8319242943294 220.93015329059511,675.8160258951499 223.00685560081033,682.4739771219836 225.10233123570845,683.6975339607943 231.30911109707333,684.9074069664387 232.50082196832085,687.5257840129414 228.04184568777868,693.0034069832337 228.732762650414,695.4600327400672 232.9318656610545,696.2820884321046 244.04129919673895,696.871784418546 250.0946105051873,696.5499248479366 261.07815725454896,696.7143866081485 272.0385110558639,697.5518567563047 272.3523007661691,700.0548883358824 273.86566939384454,701.7531685665397 276.1907123511032,701.5715365381665 279.5572863582606,702.6574182648687 283.65193523491286,702.0016867396012 286.2586091051575,702.1124265362324 288.1958915751658,703.6300875586628 285.1765668050351,705.866818166893 287.09060288449933,712.0633714962294 291.25967149330285,718.0870222994923 289.2949750904799,719.7757475167618 291.46534880921865,725.3767072073947 290.1700362919396,725.6584825003895 291.379724740374,730.1180330720504 287.9756270160569,730.4786900916013 288.1442614314901,734.7236226461171 290.259574750273,735.4967927627997 290.9980805876397,746.1580611064196 286.14885808175205,747.1919619391487 287.51454203714525,752.600373340785 297.0187775705732,750.9841217326378 298.0287120845468,757.4261632577441 296.3448568451621,759.4429927001529 297.42970992121127,762.8245087321791 299.76075507816364,766.3530804030117 301.7757207770337,766.3893697789002 304.4350196751604,779.5646075496903 304.01666903957556,781.7492131001651 306.2075040032178,789.6797824520829 309.4876703280374,788.820692389369 310.0917701901247,791.0516473072595 311.99978740045543,791.3198793578813 312.69189262140196,796.0954744055251 308.7557296341119,797.6065680551043 309.33934486526033,800.9789929367505 308.51600517123995,803.0215441463688 308.4732503209679,805.4010895280885 305.9224212822308,805.5358024684097 305.3781436281269,807.8987029688525 301.8387409718571,807.1967292717784 301.5178342851403,809.0779157961831 297.7364963938897,810.0067277407001 292.2541856214637,809.7477147383537 292.1294939473917,813.2600033457413 289.3460032775205,813.7743591306314 290.58265834193907,818.4708520081274 288.339130830802,819.1754979278115 289.7155357649375,825.1155377222844 292.0797285052602,824.5274900495936 293.0911197838634,827.5033215257703 292.05127233458353,829.0231387906706 293.1014616561047,830.3339524415381 290.6414074965076,833.318407344921 295.17972967143623,843.9183562291119 288.4251408071106,845.0172820267207 290.1301334215158,853.1655287535056 295.0856107823172,853.7685222698877 296.12828935144626,865.1217584436066 300.2198316709564,865.393736379761 301.53118677962084,863.5278196709864 310.82407606790207,863.6591224229322 311.94199272066726,873.9175237143215 316.0739194433533,873.5338414523148 322.88791392843297,872.5775818457405 328.2650248555312,870.0925264465975 325.6891448864565,869.8761021544817 325.55617688055423,868.73189663549 327.31971539009885,868.0437398616017 328.58528168863614,864.8036283374572 330.96064102918297,864.2179288215917 331.78106459873123,865.2828562480746 331.7541019233399,866.7929425540318 334.79334294322354,868.0627625323698 339.1536899353714,867.52002005357 340.4951151148296,869.1155231852485 339.8499804825986,871.4944817392469 337.38562064287015,872.5211724797497 335.35578476977895,874.8677995848681 334.77832281312885,872.8357814776266 330.4096948525926,873.8360526184257 329.68752313070576,879.908656481241 332.5262564058794,879.1582811943274 332.9052160238538,879.7855465112797 330.8917068814376,880.7210458167249 331.39344761671543,882.9424492726026 336.30112970056143,881.5906521537488 339.33963889199055,891.5245056839304 344.55041200125015,894.3332460921102 342.96754212599535,888.9291061202975 347.6594403952192,887.1409211271731 348.5192703614635,889.4500220333877 367.4229661813449,882.7463308737919 367.22121844929717,877.9237434558537 368.3261554590414,877.4143582809162 375.8475620485263,875.8562852561536 378.9049315897812,874.8752906493319 379.886489297955,873.1582908214517 382.3405826967863,860.0339130972064 384.1168089176932,853.3949454096362 386.0154533618867,849.6266410855357 395.0853141729852,851.3046123368994 399.1959789962785,850.9725872847876 401.9446249948446,848.8288375677452 402.91286607573113,844.4871530540396 400.1321385244338,841.3536228778837 403.7421689414391,838.0730249498878 407.53104122568345,833.8368092895219 405.6825501079593,828.4106569003545 401.5983783752404,818.5330796651956 409.4924780179958,816.5966596808851 411.00263412180897,819.6976407201953 418.93664447140526,818.982253693496 421.02404933708596,827.2962239240882 422.1831157553352,827.0545770901363 423.59859327433855,831.5727926032496 432.611406224401,829.4568204941081 433.3333190662916,832.1649754805051 431.44002393772445,833.2915323454939 431.44688158125166,838.1716289581276 433.5531129814701,838.910244243038 434.31653073276743,842.0056485192829 434.06152597020457,844.3127659851846 437.0465369722482,845.1811064407957 438.75955389735395,852.0159501842368 441.5803340645956,852.2532530721414 443.0244573603,854.5263733008454 445.3658783362295,853.4710897621688 449.6585642667796,855.6487457077482 457.0573501367431,856.4052971264497 464.9328628818222,856.0840341475363 474.113470260084,854.4271336436874 473.8519364079896,852.9477061683667 475.36493540352404,852.3915060624978 474.5173779844588,849.9483524341243 476.51447539940756,849.9116407275203 479.9732476798041,848.226877249584 478.77009563688483,843.7839352349647 483.5966414306764,843.4730316832921 482.7997068284388,839.235463457038 484.8037655717956,838.1536605450975 500.0019279759082,838.7406307156732 499.76361689713366,833.6049003082129 511.889368590356,832.5185151878637 515.1372493285148,830.5779224176329 520.5558757808274,830.2204956947494 520.7564102905542,828.1031281138647 516.9217279937235,823.1042899217033 516.6846843580387,808.2724418585578 524.541315739625,811.3896096832559 526.0113182031328,791.2595239592968 525.0508494008727,788.7434246940909 526.364573502107,771.2196894702284 527.0510488562908,760.9147657217902 527.6504940379687,755.8315231762633 536.3289428334181,755.6210598377676 536.4500679201643,748.5156581456367 537.1848219667577,735.4829880104844 537.1055365092865,722.7898968593606 534.0453199348154,719.2157395991455 532.5435120655892,713.1430178259827 522.5865827260138,702.0152972584457 513.1638158207028,691.3361991232291 504.3039972264282,683.1177665436912 496.9837339478073,677.6006939167515 498.3674111631341,675.5876177559106 501.5102150212381,673.0275661072059 505.7998783574328,671.6467877167869 509.3637411756232,676.6922261544789 511.2791904796474,675.969865494633 520.8289687349801,675.6123461726588 522.273141931622,662.8943842788858 528.7551199046677,663.6512318548788 529.6174349228196,658.0435335961556 524.3452707416884,644.0612062378827 521.3010054602247,644.9957185892714 520.0962132163631,643.1085428616265 521.6171158522088,642.1377741660236 520.2539187577503,639.912213860049 518.9983756593589,640.9866992570778 517.3006735541823,639.7547645284018 515.6607125848121,641.1557655859053 514.2119569593142,639.1982523521854 516.3130727643955,637.7187144610973 518.4804748186419,635.4367236258588 520.3910305092709,631.9144375839826 521.2001073880099,628.9098231001844 517.136889349444,624.926528784277 511.7479674282377,621.9070496347522 508.29980340895116,620.2406239714055 510.4228627953075,618.624200785672 508.66531915324373,617.9557002663415 509.86659634451934,616.4683784604117 507.0455467601639,614.6245300258322 507.73943322661506,610.5600948208219 501.72336732055453,607.8779599525001 498.79146768581796,614.7595702576923 496.0176214099529,611.3270430686716 491.3715813388801,604.4952514285194 488.35131991196454,597.5999115502968 494.0293486906612,595.1117855866953 495.9886668239736,592.9560991258328 493.3194588605796,589.9474575612466 496.38634592217306,589.9546207869419 500.6915466884466,586.9569549498431 499.4980629315952,582.6641820395168 504.545595172894,578.1178724376414 509.9580944685209,577.2853966157368 510.38883157365194,578.4600282383471 514.8734696259288,578.628668898406 514.6633887365219,581.3002586175267 518.274966546008,585.4030510540754 516.4552753853686,586.5822584809155 516.4144131290504,588.9617697763128 515.8160661294417,591.6800929142789 514.7820916733489,594.1417219864775 517.8386559228796,595.2622507320934 518.246662107361,599.5515979952688 526.3746811475042,598.9458690830226 528.8947953232673,600.4613915517264 529.4738036374688,605.5165176324795 532.3793807854232,606.6444371100226 534.5529122027361,602.0585201261126 533.9994696285263,597.4234349813703 542.6760827540315,596.9892960955594 548.4290517843158,595.9735782411451 548.9038278255952,599.3307182115964 550.9072238264687,599.9573439971668 554.2381094172438,598.991777742361 569.8351628683445,601.112980532266 569.4765761207863,595.1462854893246 573.8479339639508,594.7804252326298 575.3451050066683,598.1548022755355 586.6866137850033,598.0591704780604 587.2758428123315,595.8338952604839 590.0097721970791,595.5926766081741 590.9633424439692,594.2177866728787 590.8874853536341,592.0957188356509 587.9135483469986,591.9031418348087 587.8306152541899,574.5107422011502 584.3855544559998,573.8422567751206 582.202138639496,574.809808409912 580.4850889346362,574.2162463912152 579.1352380290442,573.008411113951 577.7306550982292,565.3355263460044 576.0397435681651,561.3933354562594 573.5134971435177,557.7955274985346 572.2913197825737,552.1625660207638 571.0705530543139,550.5805081519534 568.3062399332537,551.3498983546606 566.2632179296077,548.3094725752285 564.2529309382528,549.2721651199903 560.4833580980306,545.5717022917117 558.4805481525631,546.0945455793094 553.6461435894545,541.1832091390827 551.4137745760037,539.6372101923815 551.4373422652867,538.2542485218847 549.77631786385,537.346076133286 547.0149700456117,534.4813937116031 544.8258144666094,536.9488429923395 542.2917564415076,536.2850947777554 540.7801722507861,536.7526057703915 537.3971794731076,539.1461911380811 535.713426240101,538.929215625199 533.8552519781867,537.0105465489893 532.5643920199478,537.2402039711283 531.1447246617901,534.7670239339157 530.0930005729937,530.4920903314957 530.9819104056811,528.8111611201027 529.9731439092744,524.4581274408115 532.8135743038536,522.6860167552973 530.759262984179,519.7060808800213 533.0363279317477,518.6236335013814 533.2279283036733,517.5308970989249 530.3618763198509,514.2878430675469 528.8951127912287,509.7209672036996 528.7530472970408,507.9231968353236 526.7791028607902,506.7755288853684 526.3682786703102,505.0824934607547 530.5956373214409,503.58341764744364 530.1038473782133,501.250717104965 531.472861864443,500.1527287130682 531.4064523030155,497.3873853178004 527.4284072875894,490.35399191710434 530.1492524754652,488.51630724891555 533.1616650365474,492.7765400129621 540.3154842638827,487.5053475918217 537.7910354433383,483.8816691454788 539.7614658082457,482.1556482078167 543.453476022637,487.3708104685248 544.3940905010918,486.7485987067193 542.9745290471533,484.4102471863232 544.070259088296,483.6737120006778 544.6951512002502,484.7524319090782 545.945046039855,483.9574911349558 544.3948907251546,480.16997175880755 543.1211501540364,481.2086206784164 542.17569848975,480.3227667723897 550.0675706239867,472.9278503019003 551.3606869702328,470.8774021097604 555.6824028193772,469.7024995368038 556.0265199696896,468.64032238052573 554.663867751882,465.916477129149 559.9541923365646,458.8634471549367 563.755120059809,464.3649686356677 567.6360537438029,461.4353595708047 571.0495255636054,466.83099278491335 572.6851152657545,465.6025440548069 574.8966197673662,468.3432192870119 577.4231116910732,466.4457993256334 578.0700865226398,469.84142172931007 583.9933273619127,476.1592273683083 585.6278298405757,474.9942473626784 586.3024267799558,476.76536951054067 585.4353998757074,477.31523449006846 587.8327136887938,481.1167771454749 589.5124516077743,480.9010487082066 590.3158640634884,482.43275463441114 592.6118503481098,481.3577339611107 595.8233741055562,485.41451244449564 599.0419864770851,488.53810704394726 601.8548184568402,484.7100972520558 604.7220701788233,492.3312039476421 607.9390244052205,491.792837521173 608.2151466315383,493.7199274134785 610.0434876899101,494.95092832023846 613.5587904608258,495.02017213118444 613.5830450295465,493.576204733542 622.8624274963208,493.62255077144755 623.3984035987478,498.2011358821096 629.0925874482987,496.8699104414802 631.9475402813588,505.81018598761455 635.1623509092584,503.7024485241375 639.8822912706621,502.5326915087243 640.9395663555065,504.0862394642838 641.2998558605863,506.3630532581898 642.0302993436513,507.3084773831417 643.4467920826729,511.8635275834201 647.2039562915667,510.95728808053826 648.4411901147006,515.7712327622387 652.1544547541156,515.0065850226034 652.2825481376099,512.1733990133473 652.9925808839502,511.32317008545357 652.7473090851138,508.17608500736003 655.7005375671504,508.23535709493495 656.078548444054,493.5234243381805 650.7122588086764,493.57656718907515 650.9706941727256,486.06917268960245 656.5016013255453,486.50191929140726 656.6973787587235,488.2826509666047 661.5763653213166,488.0509209003971 662.2248034106484,489.58741416873323 671.4734766676315,488.9600831089702 671.6835105951621,489.8866252091358 673.34485675391,489.45641195148806 673.2014566339041,487.6765684951178 675.2281406812928,487.5143066909829 674.6823610981143,480.2987681494426 678.1984618229576,480.3035299925823 677.6110863443802,470.04348956053207 682.9590359255733,470.5361995167621 686.5800217252585,471.46818565993357 686.4896981861724,468.3237080508046 695.1935144471629,469.76914011570284 696.1454845621575,468.9583837230171 693.5447095111143,463.0745893870045 694.4900852522438,460.93635571668966 692.1561550414779,455.59601955999193 695.4983644776969,454.31353910298424 695.3266074610316,452.919762120445 697.0574140622342,452.7702631377124 695.2167045769718,446.0445809678557 699.8509141382135,443.2143810265186 701.5075493716308,444.90975371859787 704.2474117904859,444.191943010262 705.0747772240967,448.02746156099914 706.0750091693404,448.00066654226123 707.3729213153385,446.7658119855585 716.0375170810056,444.2862699286902 715.9731363538855,441.4067027313742 716.7758733906693,439.8127727156655 718.9607813147487,439.3120219364885 716.4357761171404,438.1390864755077 716.2027872723928,436.0704691363216 717.0681615655985,435.72610756714164 716.3428361209949,430.06145127532795 715.0403206100907,429.71715662812284 711.8685838999914,429.9702771036946 712.0627729009716,423.2018259521576 710.5781842825921,422.0916581447613 708.7820540259388,421.9706235453628 708.8965029838037,417.5326632286404 707.9351002697485,416.9345553597293 707.9267314985611,410.6535407101794 711.8439899826733,410.9416400440483 712.1652537229162,407.49370452295926 712.4756633417932,395.51173646841704 712.9968861776617,381.21412636167474 725.1828269667276,386.86829886251263 734.3897651037969,391.6188099580587 740.6774502927157,395.1389633985417 744.1824553450946,395.6105477091253 745.5265710292128,393.3896426009862 746.689715907137,392.87966291848954 748.28667947232,393.26418770431053 750.1059694874315,391.40953034537927 751.5199956725838,391.7452883102534 754.2924111454198,388.9754134070037 755.8944403159832,388.37334990931134 756.5971402179404,391.70316242918483 755.9251373374334,393.48749614252694 752.9783402151361,396.21895797298885 753.4302469601073,398.0215440672863 756.3836596074877,395.42241097629915 759.4754484920479,395.614980542363 760.6029604430026,394.73818915103243 765.7130134782784,395.23293979796944 770.2322825941715,401.9632108198348 773.6303790984464,401.6138409348308 788.8441017759261,397.58984017181075 797.1622859309797,395.53425101977825 807.30098237972,393.9652681005971 813.4594867281043,394.0003017196951 810.8385700442979,401.4214825687884 810.5815166537822,406.5487412677195 808.6774576738369,410.7164215290064 805.5039640613555,421.88951205159793 804.4191734221699,423.380008535195 803.3142093547002,425.9915533329149 801.518246211446,432.2689051331535 801.766022837361,434.5512296615042 799.0024620668778,442.50146922278196 797.6055922723664,450.61601977191617 797.8553299334278,454.820735920198 801.6134707791539,454.9801848589018 803.9667996675996,454.7483655034644 814.178539157293,451.9061873509426 817.0964881602706,450.9738273844208 819.6408338070693,449.59811202735585 821.709291334617,450.62534340882513 825.4649334519816,449.5638495861707 825.2022465681647,447.5152643650752 826.3220744863515,447.1186341234237 827.3216850498943,445.3418951328331 829.7415106797184,445.4592531976111 830.240093229622,448.77026327519246 831.0828875473608,448.46074206448765 830.1670409739676,444.42602851835505 831.1074950152046,441.14046435730336 831.5966397482689,438.03333943148516 832.2407995103488,428.34541378399155 834.3148453843901,427.0866740415117 838.8799077114238,427.0956644004187 849.0805798508455,429.4035900393599 850.9652062520273,419.51916825464957 848.1974749282481,418.1835893293233 844.6324843753997,418.7093578897771 840.9615702702954,418.3281633512825 837.9169711690557,417.6263047286674 838.1134475209913,416.27412404474364 851.36119581667,415.7850189908247 851.660739580885,413.5826345748464 853.2663683441531,409.70489810373783 854.8063318190574,407.2093827438832 857.361395230275,408.4321903672202 864.3953056067718,409.4231165121998 869.5844214579224,411.3077866922233 877.02652691127,412.3581700909227 878.9189540835058,412.1921409030491 879.0662054806952,415.76448741644015 877.9090592580043,419.2451260189616 877.7037183910617,421.31424374901627 878.4123294911705,422.29417682453027 878.0973930331828,424.09966731896225 878.5353979688693,425.5966090795322 879.7461519599292,425.8038053414778 886.4952814946025,425.46226263371767 884.8278659519603,421.7389349334487 887.224131097646,421.3900389441509 887.3620981905028,419.70635923991955 886.470861961291,416.00538627721613 884.8049299013575,415.39694894443426 884.5334671560257,412.4863194804564 886.0140388395931,409.8523831501668 886.3259528630431,408.235001604669 891.2260925447205,404.5612972043477 892.7845038576431,404.90864912676096 895.4801330007149,406.242586026073 895.8807595125953,402.1677467786166 915.2967554720965,407.05550051038705 929.1226147593686,410.68786589784685 929.99819162386,408.95205448038513 933.6193601075546,405.9035377250223 934.472136544388,404.3656916298058 936.6539548619045,401.8872807208055 938.5727493053508,400.714283187779 940.3483398133516,397.48707875253274 942.5518718427694,396.425252593499 943.5824418768872,393.85015536162973 936.4674672520118,386.95859443072845 934.4138520072888,388.2286472705958 933.1950306111987,387.1418060365748 931.1939107981927,388.4101038985926 927.1151047629064,380.8050472666089 925.886339082808,378.95518995253155 920.8538520967969,382.76987425199616 919.6018433775857,378.48113569470354 922.6506536093663,376.92155833377547 921.9000265853057,373.86114154711277 924.7517673538257,372.45358276830507 923.5797639525796,367.09815667196597 924.3116567383008,366.58064728520014 922.8072313187251,362.2142552518585 923.9535490811462,360.7801793817823 925.8961894451905,362.55978318578275 928.2524769564674,366.7130809054403 934.349182534078,366.7263246257286 936.0149380816453,366.06052516630984 934.5452603225286,362.6838791778316 938.3115569808715,361.5141116038484 938.1417111351649,359.9146461290088 939.6507505551969,359.48032790081254 940.4830424447754,361.0900485960515 941.7975072881967,360.6527043828062 943.2919265651175,362.435395011129 950.4783403484953,362.67868306389835 949.5012530324543,361.0947347007592 954.1218103938221,360.25067393870665 961.5207182517149,358.61784838131246 968.5056979399457,356.73434160626914 974.7124308825252,354.82853008667416 985.5761125474385,351.1020787782702 1007.2015300069684,343.37923629759143 1011.1224046604907,350.1210276993753 1014.1741074555687,349.60035303745735 1017.427859107905,347.8673021237902 1020.9888923969417,337.97431058778375 1024.0,336.657046861401 1023.2758209895583,334.665329812546 1021.5861860828605,334.34223847901114 1020.2236055589208,332.49339666125513 1019.8406505114057,328.76509909573747 1016.7376492374674,325.3362571466913 1015.4685680567715,320.79100760465656 1014.58324405636,319.3409451198753 1012.5373196242141,317.58083718326577 1012.6584710242878,313.6364192138493 1011.4977610026453,312.0397667678708 1011.7125162757942,309.27403733032725 1010.5907386398242,306.5566417679323 1009.4726949298065,305.4640787744082 1009.4374010402701,303.7599354719456 1008.0178441564175,301.07613482060253 1006.0602884312665,299.55631705785186 1005.8057621157222,297.6072765919225 1004.0376812945128,296.28102744810155 1004.0239007027468,294.60263486027054 1001.9206382310505,291.8905737614 1001.707281023081,289.8251889305668 999.3469885119803,288.48987069303564 999.132998891121,286.46769806150144 996.2507807932163,282.0934753694238 996.1655887322503,280.22836947218866 994.7773067140422,278.95106674842077 994.8654564453161,277.7598827521274 992.8246165931938,274.98511136621016 991.6917656598381,274.30414413210826 991.8655036677027,271.6623802517531 989.5838229450461,270.63327974644164 989.2409215149801,267.75730867889115 988.0499064056695,267.45175334055284 986.2265758900194,263.9021732992404 983.9534670239426,261.60687113576887 981.3676042302078,260.4662287689464 981.8245743495385,258.034768120305 980.7262429829782,256.393123237607 979.3648395671579,255.94251475616136 978.8404815904722,253.50616702096033 976.983784363969,252.85723679903106 976.1820354431354,251.8329187074106 976.9407605949622,250.25028353556036 975.8674290905861,249.1200836266471 974.4146366627593,249.21472641689752 973.92282562244,248.07819694453838 974.04586387833,246.04590654687695 972.0906983873397,245.69292010939466 971.9487975086294,243.69215314686005 969.4580007383316,241.64507527423405 969.7087377202298,239.98090288705373 968.3423125839404,239.15382386384738 967.9127156959734,237.95466816643534 964.5732416816495,236.6649126644155 962.1282266019966,233.64204553422746 961.4061744874333,233.55208351521492 959.7760468393468,235.93744711078227 956.8622366570564,234.96944918007262 956.6402055694929,238.73181658824433 956.1231971137156,239.7994097897166 951.8291733897014,244.8337838639411 945.4745384134707,250.52526820612434 942.157323801056,253.0115292986061 938.1909097636649,255.35291031467534 932.5685882369642,256.5013818527485 928.9273247647212,256.33797476077143 923.6349731828396,257.2065861654472 921.0379615227893,254.1351528427781 919.1545960921773,253.1013978542203 917.5336923028169,251.07750316925194 911.3798408414037,244.97539463144346 903.5512990979104,235.85149784937664 900.6990687250571,232.22149075148036 899.6542199630798,232.3678455660347 898.5395193017905,231.25442642804092 896.4751801915195,232.0204671015573 894.3465378827965,227.13797058065416 892.7944871262692,225.90322759269827 893.4580190152562,224.5685214478417 894.2427941583289,225.25468484952773 896.3778027684684,223.32518284634455 895.645450791702,221.8058179291379 894.6471343970571,217.7394933043953 892.4906690209034,214.63901962098828 891.1080732021691,215.00379027616088 885.0872251849827,207.77399939013935 888.6317780121421,204.31566291126853 888.3622018718249,203.25362212796006 889.149362120431,201.9768147034465 888.0705816439198,200.39856918517194 887.3000592161492,197.5639475664167 885.9140390601431,194.1271601046734 884.6725953605463,194.55513790372856 881.1202871315178,188.8083824823525 881.4515624885212,187.75580420394067 882.7137039392086,187.39936891593732 882.3129127760868,185.65378069945746 883.4188614993336,184.6693530464595 882.9053471557218,182.31171853528144 880.4043239256368,179.19804232420393 881.3461840025252,178.91793348823978 879.4865803875549,173.24104883260827 882.6213364819303,171.91229865470984 880.794037430042,166.1291319719412 881.2995949745556,164.41563348709917 880.918409677872,162.12364527824184 874.4338285159089,155.8651307909189 874.2983199720219,152.1352395931715 871.8166547599442,148.37841968561554 872.5073152176789,147.94943784229133 871.6305646820014,146.05389430181822 867.9251944884406,142.8675967873064 866.4760669239124,143.45492003242884 866.9201678613441,145.07409565545777 864.8374137456383,147.0397479049941 862.9009924834506,145.01040443165834 863.794166368429,144.0735527896652 862.8676169791361,141.3278833742205 861.2912970821793,141.6690488740171 861.0315686056732,139.99938584128245 862.23814072051,139.1387107437929 861.1565801720145,137.90354759904653 861.8378902112323,136.68617602854897 861.1391708986862,135.83342066570367 855.4580101031794,137.5257389204711 851.7242427494699,137.51978767875528 850.4343077664673,137.02630530385238 846.8586560656587,137.38133180877833 845.260607437594,135.79458593522736 843.699524985023,135.17977653291985 847.0307272747051,130.96598543103107 845.5830878858349,128.44333127507025 846.5706147588537,126.65874159930354 845.6867029569829,125.09353796519599 846.4888642636008,124.65877893845095 846.8611789423073,122.40668009994158 848.408036001909,122.12617329755665 847.7697415889367,119.2680460485517 851.4389597857096,118.23303353029257 854.2763992502853,116.19813021520633 857.0701843117847,115.67039505169043 859.4525456140487,110.23354103091606 862.1969027840732,109.64902425853631 858.6283199965612,108.76087372739937 860.2044318048607,107.18138089156992 860.3100992513865,104.37832811077953 862.6109629278097,102.82812644199794 863.9842030714883,99.84938574907574 865.5347899538791,99.87397579068875 868.1355164814719,97.3164389729867 868.4177013240434,96.32666889923155 870.5835781912291,96.11940839656916 874.4429087445253,93.39356821874026 875.5421680649033,90.87577173495004 870.8040301948075,90.61261826415296 870.7600963061956,87.59359979293151 868.5969457494166,87.49576255845534 868.9833749209075,91.50682250049533 867.4716363980192,91.65323596783969 867.3396390433217,90.33396417564359 865.4259381318365,90.06968471082916 864.5224793260431,90.97839938208324 859.3260681090325,91.23665769559238 858.9721650283788,87.80076759415647 854.0751553762391,88.46543177207593 849.5099005601356,88.73351434428321 845.1753872604393,86.72172649362051 841.6003387578187,83.1149054180745 839.6664003665335,81.66004602342264 834.2033400378064,80.02416523377929 827.7300655421542,80.36811029245769 820.8826951764208,79.79299795516704 821.1087345829386,82.31404470371524 816.223702635087,83.45364599705499 811.9003039639716,83.895270318396 811.2084444418801,81.82188816985615 809.4404255323034,82.69107098914083 810.0753394131185,84.5016286110889 808.6760859038054,85.1224542861529 808.6459311073042,86.99605341190829 809.3287906466254,88.94978365390841 807.1425010641922,91.10144987322008 801.2979711579378,92.93477142660822 801.7207089415081,94.490187879073 803.3137970838849,94.45229377361272 803.578095542447,95.80935270521343 797.6270779790804,97.19333397379705 797.4835570126379,103.51511095310025 795.4018563271529,102.96276678707193 794.9109361370349,97.91997399216541 788.0141524876487,100.50393982759203 786.8626051627319,96.60743658141826 787.9704190760385,96.18544511195398 787.7897100917188,94.12279920285857 787.0364748297354,92.74763415885343 784.8109914207787,86.51209293713191 786.337376512509,84.924626118829 784.7926177172936,83.86975278916327 782.8321029227067,85.9612940767405 781.3584283591291,84.96857896075164 781.329792367731,82.96178798137862 780.0672660520846,82.68957621917662 779.9265433737569,84.49782079400222 778.6105722908951,83.88399003748157 778.3672252537851,86.90097803052709 777.4809380115141,88.07666627407332 778.6276788220486,91.04500122528032 775.6686990807085,92.33200421550873 774.4962087061471,90.27867108950193 771.1734854280791,85.71872173422537 767.0017675099137,89.44741679189258 763.4021962819747,93.04550357625021 763.9397830411726,96.38797390344519 761.4808389517405,96.33776446691456 761.768196333228,97.60625769496437 758.3872300779806,99.03875892164626 756.7458397038138,97.74818448118788 755.0555010711585,99.325176221643 751.1744454771392,101.5453459491224 750.3287046500512,98.88947147301383 748.3676074854842,99.6533574191825 746.4690090884376,101.00311521550998 748.4161313413383,102.29875719885092 748.7236116005868,107.81422466338176 742.4301529679311,107.11882776794414 740.9312451838216,102.73068668335407 741.7448214894691,101.6073303910407 740.6571822215221,100.65628238972442 738.8134664202588,100.5192866356133 737.7532229738218,99.23046777525178 734.7974011133795,99.63719668932822 733.2535626316334,97.99967728412673 731.673866085473,98.54845424393363 731.1451448304487,100.94790562093795 728.732655186154,103.65209206558518 727.3288928550407,104.65891215181114 722.5166809792213,105.02736476516122 721.8367600446608,104.79240526185231 718.6487732791852,100.7170584555081 716.7143981894375,99.18742782878746 714.0479625712644,100.05893890032485 712.7627685688288,101.29140778642284 711.3797449845812,101.03719468929307 711.2178936735157,98.40006476071756 709.0559276770316,98.35422056015886 708.9775019045751,97.54682146065147 710.7670029653182,95.40724317617094 708.722774263357,94.45042929709973 707.0267500314543,96.48473429738544 707.9001318864404,97.30526022090191 706.3091613326908,98.53264765322683 701.9543716391574,94.09703119468816 700.9048477493229,92.70141067730037 699.4188004762634,93.13201061552297 696.4060909789281,96.97282028857217 694.6319709644815,97.515597506218 691.6478786420555,93.56021041412839 689.2802770484856,94.19228246959722 688.3499612449565,90.61928802663851 690.4072821228821,90.7805615870476 690.3460403760106,88.94100723198221 692.3196228189776,88.7499522894525 692.5441685416274,86.8007045735842 687.4548681528801,85.45245310260214 687.8405639395068,80.63999588030458 686.8006083942275,74.46628825232574 682.2215292382849,68.85424081412555 676.0180202658614,60.984886841575076 672.5241928251247,64.85808067446874 668.6591710949236,58.76430779852444 665.6512940130139,57.33583099179066 664.6817003996415,57.45441807971554 663.6176921336832,58.77932704427542 661.6772924658915,62.61728443521952 661.8405728036845,65.65629909396307 660.4271353631668,68.41212664352804 654.6494508415506,66.85328917022537 654.4679596167198,64.90743145085469 652.279521865312,64.50205897346859 652.6558255827874,61.596672636042285 653.6405410277846,58.228483586875655 657.1607323176315,53.31591990290565 657.6142467391918,51.14419231774764 657.6690713318586,47.86723603550922 656.9363281083425,41.66541159265944 649.5834045454357,44.606518610683224 638.268839096031,44.782751469556956 633.4420618418632,44.253991886217364 633.2805269835922,38.66944087616821 630.0514849764055,38.33787608648083 629.4765253181025,40.96271452164001 626.3035019081258,40.41589173162288 621.7445873055285,38.64534555454338 622.7307270196056,35.7324746584527 618.0374857842602,33.387411189089335 616.4737738635794,36.613462802785875 613.2627899101954,35.21646249621756 614.4023740533726,31.759472699032813 608.9850951877522,28.845058659056235 607.5531924395784,32.01988866176487 599.2184960787164,29.083774408566455 599.0857303402681,27.899024966989714 597.4648149089659,26.635599089986727 592.9993219574129,24.148937697103747 594.5643273884598,20.862010844986344 585.9972356519235,17.239925324229034 586.0832555172766,16.292847560343716 584.4938270692302,16.26576480330266 584.0634952432038,18.193662961340692 582.601330490285,17.746597329596057 582.0825848819447,18.838877030656704 578.6815785804379,17.33896918854066 575.7021766696001,17.369479493747576 572.7183936839928,18.2950211907646 570.3871355893724,20.396390392683543 567.1189388906602,24.155016259499234 564.091167599016,27.131926137723212 557.196831314278,36.51706159966818 554.1728957842125,39.76348904231543 547.8919125440199,43.15736728860202 547.9277964060656,44.62785667541175 552.2245421633816,43.96673050328695 551.3669526289361,47.4817299566447 546.4301160330056,46.23982482006727 542.9161758281138,43.54734348663874 536.9797046305421,40.622341406043915 535.3958265263218,37.7290328863445 536.1238565035286,34.01348464914008 534.0379127992703,29.588223377891723 530.0168826799852,13.154318475107743 527.5854980503104,9.78091983762829 525.0221172556691,10.003630057923147 526.1761762963105,5.779226965932708 523.1183311308828,7.445450342294862 522.0000728932663,4.8016682850449115 518.7398081863928,0.5008617217559959 515.811248731015,0.0 511.67574147493644,0.8437905101918659 512.5567155329022,3.5623490446018877 511.7597615427667,4.812427310442445 506.671151109215,11.236890591548445 501.400309703668,28.127900613176507 498.93259788943277,37.40278677001834 505.81869619462725,41.461654330761235 502.2666414996468,48.6578573266803 500.402596123378,51.97467621166436 496.5594487355961,55.41981679775063 493.83297141656357,56.07171187263987 488.2879764924345,56.38709670878711 479.7373740959927,57.69762352679413 470.87722859648454,60.212942623820254 466.4857092530294,60.51241707257452 458.95646061698034,60.48973586924819 457.2219614713543,61.61384943879307 456.7720083033403,63.47766349211656 458.21761213017606,63.630198469145625 456.82037952429454,74.03487954603531 455.6749843338487,85.76892424002176 457.20602106229643,86.41377220341496 456.09897841533467,87.87441574357513 455.89767149468645,90.63013110356462 454.0263485693623,91.44666184480775 454.14343933973424,92.86521835313943 455.4808251632851,92.8454705859192 455.3416666510413,98.40730060049782 454.3628493150962,106.49747237894849 452.76405785736375,110.44932478685098 453.0538954026313,114.84632349567983 450.2384011830204,114.17634959075417 449.0049503231965,112.87549738144196 445.8534132203496,114.0458459314084 447.1915957682969,115.60286553061837 448.22486038497414,114.99289110687926 450.46583697247183,116.27839272450785 451.6386015515258,117.55273863358013 454.4661783669478,118.03471718290973 455.8640591525689,115.1982846272033 457.809144058712,114.79500248502131 460.3923310185303,115.8804219777179 459.9031999674395,118.73026827388833 459.90075778106603,122.35919949491256 461.82081109265374,123.51180653143376 461.03185301166053,126.0156274391245 458.50534240713756,125.80349287854483 458.45068642821127,128.92034936388757 459.58594647382694,132.83879192214442 459.07966821467835,135.4187694631455 455.03617107320065,136.22775495458848 453.23708373261115,136.89298303762894 454.74424375009545,141.15874991184774 454.7754245877736,143.49130056703814 456.0879837584987,144.90284842777623 458.55677657606253,143.80684217024816 458.3795327336919,146.31375103093558 460.3171961325475,146.34771218891456 460.3163909074637,149.38667192300022 466.43622604311474,149.56503210524215 466.392323414537,152.07427373322128 465.88810221523113,154.66446842455707 462.85922167415697,153.9222791409187 460.372293859533,154.92646572554213 461.0917146955271,160.3888727787055 460.3690210278354,163.84496321777442 456.1717324889087,164.549579847799 456.4109428444299,167.23417430278198 455.6911555482257,170.39530930189608 456.88269695158624,172.36165127697564 456.6100594949595,173.8267677812952 457.3297038205081,174.7879484543472 457.20016160460307,177.44064477338918 457.943518409644,182.78649166500145 458.7032970758172,186.69832910848356 459.3791714688855,191.78358929461103 460.2091661022268,194.55989531008436 461.1887994414801,201.52470142198672 461.64333882647884,203.0279791992191 462.74795833723283,211.59962962304598 463.51260591577153,215.11988736434478 465.94524011827,230.76154145382463 468.06372015738054,236.8764567466278 468.8188003531778,242.20716815330388 463.1534886011403,240.4043276392557 463.4634333515189,246.0578748532538 469.602140857889,245.29539511278847 470.6500112191671,249.6368721566124 475.1718611426372,250.83468641068055 475.91672910244677,255.0080939798852 471.64892592561716,255.5338326482613 472.2126988188641,257.8044374425193 470.99313441741975,259.1640362767449 470.9432325373403,262.024094777766 473.3796305692524,262.84730689834385 473.90051344690124,266.95323530953544 473.75093044316316,269.1376461419311 467.29323383154144,271.7333233121112 468.7845813764663,276.853081557049 480.8981101417566,273.2699750174338 482.14602555474664,277.19271013995444 472.5396819260266,280.5500551357163 472.8493279768094,285.6135666614856 478.88243963175654,293.98608458715387 481.3824241945444,301.1043096805913 474.9993756681853,302.88776312059224 475.46328112571734,305.62960941642825 474.0480185626047,306.53825058737687 473.57568399146624,308.4220414391847 474.55641112832603,310.74311978223545 481.32731056503104,309.0503311663497 485.13994522739875,320.0490939124569 485.22756239156587,323.8168408018247 475.89957413720265,326.9122427420815 477.07718176339876,330.8693559191888 483.88595334303534,328.66343012698417 484.59888080835316,330.5500281080733 484.39382061636877,333.5421514340803 482.1804358903051,333.9360036400027 484.21351520590156,339.2633714788344 477.17824541314116,342.65552121680446 476.6922725579141,344.1906842213234 475.3759725106585,344.67892410729064 474.31420478952066,346.37444297749187 475.2688839919402,350.83119413426596 473.1092365667989,351.6455098052005 471.8055730475521,346.7605250949289 469.94251948122917,347.4986008274798 470.6166471762062,351.6097190280475 465.28402092071,352.90015260189784 463.7107093427862,354.57653399273397 466.1513320400467,361.73198577059406 466.50300143632313,363.76491697439883 465.003375884967,364.8500674354059 459.0642672940574,363.904644803706 458.4352893398564,361.84905244287756 459.94324374198084,360.4131477813703 459.90340987266836,357.9355318122449 455.7029425228715,358.13168713117375 455.6082144739751,354.79355890637794 452.6025419004613,354.8299900458593 452.3413350313149,352.25948647346854 447.64026921653885,352.4467351471385 441.00249881558756,352.9483162794729 437.1894951787789,355.3684891479211 437.5276958187703,358.27859711063934 433.1747281592645,357.69096707071697 428.90082557539677,358.5770808560179 425.3670256115679,357.9223437143738 425.06781155226975,354.66958209251834 423.0489238499274,347.97881352852323 414.91597666335866,349.3052522045359 414.438468514422,355.5400620967024 410.4232312112767,357.8748848485949 406.0971264990301,359.8506595849302 406.1200905460444,367.2081834349025 407.945808242233,368.6035551178178 410.43947366740105,368.46706942970127 413.1241224158669,370.89225878345997 408.65636419267423,382.10965506831747 406.3517108480496,387.63061375993294 404.0053998425343,390.92563039946214 399.3280769178824,392.5645099638048 398.1960224478373,390.1590553298717 396.2681373448827,391.06583738268023 394.12908664514543,391.29748833532545 393.9561941896699,383.777078461884 389.7364334364241,381.57619679399056 387.42401771619626,378.8877868944953 383.1899953935696,380.2036198467847 377.9542453931311,381.14297798690677 377.3105157979047,379.3360956836798 378.0592927029649,378.0677059157599 377.17401860038217,374.47127093236895 373.57442372455057,374.6767240213055 374.545392411133,377.5117736453302 373.286487676177,377.5783521814436 371.1492919649558,382.2500749434365 365.1017081048861,381.730206438339 363.6808014530386,382.90518017232387 364.7684566361386,388.3897241120415 356.9162537368003,397.76826349911414 355.12778157128116,398.9391651457879 330.5541496583723,400.2022230258485 295.5286267795317,400.2053802639752 283.31257985852744,403.35831199032424 279.393800758642,403.6379783567907 258.840827026622,398.37252479950473 211.32899048325518,385.7545187501491 162.6981045761112,376.82162723036174 133.10482269335182,389.5349763321681 114.36274083234227,393.03991593730956 110.01117123573856,393.98010257203333 107.81229083568034,394.10893062851136 94.37737344262275,389.1621177535644 91.73586778439555,389.44517285825526 55.12159755987079,391.7969763905413 49.47966253331801,395.09959148719065 47.12449666705645,397.5571127131408 44.33126332430039,399.8103799620871 40.64800658214779,404.8899911962125 37.52281792133349,408.4720717288204 35.18147567827954,410.6525346070612 33.37336285929972,414.3437914095983 32.11762041488624,419.11894081948583 32.0064343191289,424.9054381897651 30.98808686912397,429.5071116208383 26.760641046715126,435.65447252261015 20.6201229582457,441.93534597309656 18.527883480711342,443.4286847125931 16.317032337259263,444.1490877902281 12.379555732908521,447.4837972109121 10.388798648482602,451.53763788313097 7.789724568965707,455.47290260069065 4.783861467328567,457.0120808197751 2.7013858683446452,457.4220185734907 3.026248587199403,459.63592612629503 0.3309509050214374,466.38729986642227 0.16615194428198038,469.13856496055325" /><circle cx="562.5908833806893" cy="359.04369035774835" fill="rgb(100%,100%,100%)" r="16" stroke="grey" stroke-width="8" /></svg>