<?xml version="1.0" encoding="utf-8" ?>
<svg baseProfile="full" height="1024" version="1.1" width="1024" xmlns="http://www.w3.org/2000/svg" xmlns:ev="http://www.w3.org/2001/xml-events" xmlns:xlink="http://www.w3.org/1999/xlink"><defs /><polygon fill="black" points="582.445291278821,79.76900201373292 581.1198628710123,74.42192572656768 579.2755685147206,71.55658685342405 576.4299283761376,69.4062760626008 571.8972442560615,68.99721614079635 566.5788323534807,71.38437170169027 556.1107247861835,77.28586798644744 554.6373621868838,79.23638462323174 549.4335181260226,82.02844737273995 546.018077849793,82.48922099017716 541.2352964280576,78.45191288329397 537.282500253972,72.37093488974256 535.0740437609319,62.80639897977892 534.9795021761088,59.42099210021445 536.9099366007886,56.63204619198541 537.551086698157,54.042734579274 539.6540167189644,47.96461983073891 541.2171139344047,46.871480689567534 545.1757039393649,45.56388267758723 547.7012573892296,45.73250717102496 549.1651163662368,44.61736931386588 550.486109276719,37.519847296677995 550.5566997526028,34.09844719062255 547.6859292429656,28.998032564859727 547.3173183427556,26.36826968111552 548.2664540566352,24.219760004403838 548.119815792582,22.383786345312387 545.3935443464999,16.649127496616074 541.896343576798,4.714827138534702 539.6240433361309,3.0654706784448535 534.9894363937034,1.4402461347351618 531.6564699216133,2.3198708652189453 528.7182188298378,0.9301779397694645 526.8260610931728,0.6423323498275977 524.9980450359013,3.9935578477834497 524.6069876328511,10.599472777847154 522.9107334575259,13.476383330526346 521.4496192541806,14.776129253515705 519.1385894864148,15.42594972628467 513.2859843861637,13.986183209509818 510.3307064872251,13.575063393358505 503.1085395151105,13.434755446329405 502.0257800318621,14.12760057176422 500.9215272042278,16.593157852239983 499.37896174465385,17.91217757077277 495.4107670011503,19.773430260967416 493.0903718838882,21.575484262991267 490.40071845383335,22.727171532970374 489.5041319834798,24.189017376114975 489.5509221842468,32.24744818413819 483.65918897426326,46.84696725601441 476.73089208064977,56.586693277456334 450.05098360808176,70.79203783062133 445.38673077559196,71.25268069630101 442.2960683742345,70.51853835587974 439.22796054204144,69.22194647920026 436.6785241617626,67.60796714878575 431.5934071578918,66.00376666811371 427.7670597389466,64.02106113006607 425.84257984641965,61.05850936316995 425.9090888195624,52.9889934567442 421.88323319987205,44.28223459657556 414.6877182238791,33.559132906679906 407.06312068053444,28.126632323234503 396.41417971770977,25.965204628734796 376.5605343033763,26.010483079766345 361.3123526929849,32.27243518241869 350.52502744914074,40.38749509899549 342.89556306488754,47.56377255034306 336.71121622560935,57.23440297771913 335.84529551449344,68.75581332457443 327.9297023252169,74.70228348797559 321.0144881304773,75.6555293592005 315.68527143688743,81.89594592970604 310.50264009105854,94.82449221977708 307.91837849325435,104.48811798806855 301.60456105182317,102.0470913978154 292.3883279003582,109.96427998888521 287.1724065340656,115.30549589184284 277.2280381773136,123.32445008336049 276.00327026443324,130.90613594981926 270.6413282226233,133.18146550562494 262.53653211337775,131.40997413204468 254.95560902026943,127.70290047724757 250.83173294647398,123.54319356159442 242.45207336885287,116.24094516009222 233.57142229643435,104.927240537829 230.8190008812738,100.11108040138174 229.8268919907996,97.65472852166602 227.31878548802592,93.65732908490031 221.60063413443558,81.42237577743879 216.06605649230323,76.56204691503899 211.6354409983687,75.38210665502118 204.99713729537388,76.70258655223256 196.60901344808443,75.72912875108943 191.298470613096,74.2980244160292 185.01916016090902,69.94720799643221 176.03629173463827,67.04064181444585 173.64303738019052,66.74540593693337 168.93780828328224,67.15014015678321 165.593182341291,68.15323982671532 147.61772146939379,77.1683290655152 134.4789381874233,86.78460190985902 114.41378015129919,104.41292438291794 107.49721716937601,106.17542227779461 97.13452118695633,106.19435733396983 88.15016826876328,107.08189432494123 75.94205364364755,117.3084052872855 72.01949764861762,124.40869722819548 72.47696095721062,132.13370550638 74.20434446783656,138.48349989597637 74.5401433268946,145.20494376156432 70.67836552295763,152.18117546589758 69.725849594309,154.96251405799035 69.85714663871407,164.03550921400802 72.86124391189794,171.7284025466471 75.56220018213087,173.9955887157995 79.21500392555123,175.38365308441803 83.28725396988429,177.7891226725709 87.22503613511239,179.26542780650186 91.10460337574399,179.93114474140452 96.37289277721413,181.8213236118695 103.63868599329079,182.73884245435545 107.31242361872792,182.77575508192263 113.6655125713095,181.46524316960154 116.25505741835133,182.94086987496496 118.87476622087192,185.93001943488878 122.77154893693239,189.5397652872541 127.57965783264216,191.34116104772374 135.70556629821323,192.70761533377186 143.3076507206744,192.87730043380134 149.09068587240844,192.7019062507435 157.9112013836247,194.57801269976073 166.1595815519215,194.6453150037521 177.15086782097623,192.39416250954332 182.96186190075298,192.2568335228499 187.32259093867893,192.99324962878404 191.7520825451472,192.83087158531384 196.7464072798133,192.17498154412579 200.6441846953897,190.78841343070917 211.32983623884698,189.88985975169282 226.69939804665387,191.8442262775951 244.51409632393162,193.50275686080363 252.94826075916953,194.15806597533094 256.64238411489043,193.39122557563746 260.8072703480873,193.37416053631102 266.21896021899784,194.28869698585765 269.618044593625,194.2743999480008 273.22821658609627,193.758282556753 276.41088392317954,192.8645102404423 281.27290924473584,193.009747435034 285.9900526084301,193.8276304761248 290.75849814264865,196.50634283526745 291.1380765298172,198.77793910559888 287.75391647535275,209.7483096829916 287.0878987224421,212.69280208436123 287.60244484986623,215.5626175043002 288.71721122250733,217.15586897606715 291.7377031695744,218.57778393870854 296.014994161338,219.29362734568747 308.89059740929514,222.86891448158633 314.0995392460218,224.68981312666267 325.6852252037507,227.48190946950456 327.92696380605497,227.71003353767992 336.1236015120723,230.4890651203001 341.1089290054145,232.47231175702916 342.80864664850236,232.46344211157935 352.4705151359233,233.59572487085546 355.90811503893514,233.54477498392447 362.74356488340914,229.5803966146022 376.34014801832984,221.45830562382207 390.41060343161956,215.8580306942804 398.9137787367508,215.58915068513647 401.8523621411369,215.25682021523824 404.8591775606484,214.0449825971831 411.2131888401983,210.69197689991404 413.8638836662398,209.7614604472759 421.16848184122705,209.42379733562734 431.9572817529766,210.79870864671966 440.71901019395773,213.29386648260925 453.83023395571064,217.35740973812653 463.93371759376845,220.64787082045393 467.95785099732547,222.68243516375992 469.1752528604229,224.3495048892206 469.3318925186985,226.39225107299518 468.1382997377547,233.35147360012058 468.13991756406847,235.67552998489862 469.092791832651,237.42824676471497 475.4819694848195,240.78988832246364 476.3232025092834,242.9203597582017 472.88663594828813,248.12505957349913 472.6146397589742,252.10895436910067 474.18079730681785,253.80608439439368 476.5755178484225,254.09935762527488 485.4862976557412,249.90788875323454 490.92742425622123,244.16396329056084 497.7095459944883,238.66979279875898 502.87545610015223,236.07702482946735 510.6744110892807,236.07077514746618 513.1913572401646,236.57599068304455 518.8862523290456,239.92090534292862 519.9921740196385,241.8167214700668 520.3022423679301,244.41345202244418 520.4924819551227,252.79699263806197 521.8163101951953,256.5507623831848 523.6508678478502,259.38329407359544 527.1649169903196,262.1675146385762 528.8831890423585,262.8607746319691 532.0868980959273,262.769781302626 537.0089029385211,260.4993045649844 540.5140976043582,256.09068327868965 541.6872103453334,250.43801041347479 544.4175523269698,247.57941505139752 546.5140631542066,247.31285294888107 550.639694159564,248.21609483304888 557.9922714122173,252.201229701332 560.4709824563613,252.4497668813877 561.6655931823655,251.00953634546596 561.2026498389333,248.51774685421424 557.8436802678261,245.7226761651197 557.659132927237,244.30029376394776 558.7423100770357,243.43636714652382 562.3966034292923,243.73340492089955 568.9938385325022,240.23132096082412 576.2949044150951,233.27403306788784 579.8763802147236,221.91481869230233 581.3709652775833,212.78799458352398 582.8636630952195,201.86642146462577 582.199026755938,191.19238026675816 578.518576014148,184.57124063348158 573.4372396894686,178.7564588717247 564.111274129584,174.28831017400387 560.6505425512039,173.48659622759715 558.5427007631648,172.07154392756308 558.4999020043571,169.85227918602038 560.1954277061147,168.41157345956708 563.3258304386418,167.02187113279513 565.5032230789635,164.05611249176377 567.420535675322,157.8870712278473 567.1496635207983,154.00561375538757 566.2140448222988,149.30875376658537 563.2023101563043,144.27202621048275 557.6115569872408,139.62367688374036 556.9230407977567,137.8406069887492 556.9209063900236,135.56891920721625 557.9084101985569,130.69929477380708 560.6854091159207,124.47708644081001 568.1059626052659,117.05939375910134 570.7550661381932,115.59565203258796 572.4335879462279,115.27696266127941 574.0902094251857,115.96731573188379 583.93587955803,127.56680865177077 586.5956869129961,129.09970093306322 590.5671064806022,129.65527812350842 592.1806764361254,127.98016716203426 593.6404281125075,122.72674179349883 596.4293644653817,118.82280441518685 598.9232352241856,117.38934709142984 605.4615886269243,118.35558300546586 607.7326880028382,117.95338858973287 608.8266153312773,115.72462369916661 608.6794639668097,113.72602279599721 606.3329757947146,110.22727589136844 600.5295543292076,106.55299207130201 594.4264411858359,103.20148761736903 589.5866979583111,101.44483500091565 585.6990631466749,100.43702969294475 582.6272912634128,98.78875642508933 581.7244803693482,96.42148073436522 582.6010848384508,92.99099801110458 583.6164858332044,85.9846562971785 582.445291278821,79.76900201373292" /><polygon fill="black" points="486.238149705368,23.24585296065527 486.4923088630667,19.656156759813143 485.86648034915095,15.923758657017402 484.47326686726154,12.96938113421163 482.20259519128047,13.243997130032426 479.0239836754679,16.879944126910004 476.6724412867113,17.893438314892933 475.83517648226666,20.571008264681723 471.7651186249861,22.440347516870247 469.53647551852987,24.719132691219897 468.1589324836881,29.49231880490629 469.04167719177,33.538852414214034 467.1919694764263,35.952444737133646 467.44968218310333,37.18184913013704 469.00401525841573,37.85896397668523 470.0079709624019,40.63998535988014 469.6735209893918,42.41567304622504 472.02598928144806,42.45812317214654 473.24071979427526,41.18356558678511 474.2101887827696,38.357036550407884 477.902078607508,37.30675034331398 479.4973159540634,34.76371447023007 482.1331867415596,29.482288704744064 482.46585348038354,25.388023001132638 485.4027102230492,24.88408553715078 486.238149705368,23.24585296065527" /><polygon fill="black" points="494.2025204663384,271.0052752131541 494.61329815146314,272.39994401232593 492.250283995131,273.81878947292876 491.44208562827015,275.1923324798334 492.24212167532653,276.4681619235294 496.1293907524309,274.9295974226118 496.8358609277888,273.66088436056765 498.4861982475734,275.3550879805584 499.67208441080913,275.37070447352136 501.4114501589649,273.75104951281844 502.54441410278434,271.20555171905545 502.8198743113384,268.77651780012707 502.0402410898248,267.5834013457904 496.83000285844304,266.09048108109187 492.9330281109434,268.1225440453838 493.1583510013727,269.9364027022582 494.2025204663384,271.0052752131541" /><polygon fill="black" points="946.0719589685974,638.6216963222907 948.8466933400332,637.6871159792115 950.2566816435042,635.7930931451626 950.4643764634818,632.647090918072 951.6600850198524,630.6128892671685 951.1387410787181,625.9382798040875 953.489282975791,623.1132967393522 953.354236059034,621.8205949673655 956.3774041475939,617.8336005802431 956.1699129015514,615.9869139457896 954.3220543078384,614.1435233056508 949.2320404394568,615.0331471212427 946.6789699853692,619.7579907296712 945.3483556189856,620.5518532331877 944.246538148899,622.4066529677211 941.0815311724878,623.0111458588183 939.8455876559162,625.3265934167366 937.3207312842243,627.6500796371668 937.421773890721,632.4137502057201 939.5721271358408,636.5227745826884 943.2947478327259,638.3101562331572 946.0719589685974,638.6216963222907" /><polygon fill="black" points="240.73854154287255,61.908026132249574 241.7306854854961,65.10044658638685 247.7356274565827,66.56935056996372 251.614215810616,66.52484719308802 253.976652122685,63.640863389739366 254.11889317356875,62.01151527526565 250.24253725244205,58.565800426776036 250.88589323909378,57.65871110787464 252.63570636530264,58.005894218663684 253.01455160174686,57.06850398681456 251.3155076891761,55.77294103247209 249.91394985781125,53.625455319139746 246.4474882008012,53.493460782990724 243.37803427466417,56.435352557636634 241.43503173311564,57.135765360851565 239.92961336087166,59.81283800852361 240.73854154287255,61.908026132249574" /><polygon fill="black" points="982.8848436913889,574.4990842100706 982.7749313979652,576.7516842626828 983.335846382029,579.4770678601237 982.5325122466784,582.638126979335 982.6083558422594,584.8103893127791 984.1904455186375,587.4509340882134 984.385124770813,591.6382253066643 985.994247103074,592.5721982149615 988.186308998413,592.1320153677673 989.349901406891,589.5215632837028 994.3537717690365,587.8513652812287 995.9887286061244,585.3501681841346 997.8201088402336,584.2021739259343 998.4005810233951,582.8941780612303 997.831861573433,575.3553184909418 996.9110093336958,571.0896228471629 995.1560269163116,569.8003688767335 994.9697267796274,568.4195658585202 993.4724781847032,567.3585789738227 990.9520272417546,567.7994881825103 989.3737002392022,566.9316374608177 987.4384475058259,567.0983598102653 985.2482010806691,568.3352755333228 982.8848436913889,574.4990842100706" /><polygon fill="black" points="584.1299441873794,178.49490426419402 585.2255588676265,180.10933663853405 585.1864575508877,181.68908048851142 586.640902471111,183.3913646006573 591.8125153822673,185.2083652448282 593.3462066656193,184.77945674969897 594.2149982461582,183.51589328102637 593.6704255462482,180.94978468122292 594.2108904111644,179.56801518050236 593.665504076371,176.2134331010302 594.092911559866,173.76485980781808 593.5479834167352,173.2912391481956 589.9148528159287,173.12682441874358 588.9321902650343,172.49926056463448 587.6524272598573,169.9256251651467 586.5557330706858,169.72824830246702 582.5268079274271,170.59524538024925 581.6578129730142,171.66579893797757 581.4039556098352,174.74275646766944 584.1299441873794,178.49490426419402" /><polygon fill="black" points="7.485877383909835,81.47530629448181 9.620457894030249,84.92814339231484 9.700614509718289,87.15576830369844 10.457770882433515,88.60907669918436 11.716800818821895,88.60976958683261 12.579121101576646,83.81598135210015 15.096661313780475,80.00454576248626 19.497642776844117,78.41615805474282 20.009542465561008,77.13997960791482 17.28077137475692,71.78461890883386 17.106905277525986,68.73814234917438 14.430295554660402,65.8833024185742 12.332837586276693,64.4292696877967 8.81332914619215,63.6085249375991 7.476583605405983,61.74962115071753 6.298982138732095,61.8371803738504 5.24370942641392,65.9719482658029 0.0011352072229484514,71.64817327971957 0.0,73.60282076117574 0.9606175409020452,74.95977626832882 4.191805438943666,77.55036660207713 7.485877383909835,81.47530629448181" /><polygon fill="black" points="1008.2985308609949,554.7500196668738 1008.0103145408555,559.2774455505762 1008.5249876890617,560.5610444261304 1007.197643703887,562.7142732644633 1008.0916515759723,563.9308907545403 1010.1695409262168,562.6031034347433 1010.6246072371007,559.8700475651668 1013.4093694226553,559.2078787859592 1014.1700668092907,556.4962096735392 1015.8971272360055,554.3145157946703 1015.02979353287,551.3113964682856 1012.1105499074591,550.9979322913523 1011.0574695042867,551.5846715462988 1008.2985308609949,554.7500196668738" /><polygon fill="black" points="469.6810443213561,463.88851842575497 465.182120628112,460.21673483532174 463.90184392487396,460.79930755806004 464.047842920485,462.0783910028265 462.85954844276813,463.14886142662783 464.13428458183114,469.3564409214988 468.9665640443765,468.94785329861395 470.47214330587065,466.4739001662344 469.6810443213561,463.88851842575497" /><polygon fill="black" points="525.6371324603807,464.46553317595425 525.168140083931,466.8671577364449 525.6610699084694,468.66696989247674 526.6747751434766,469.0713661179061 527.9441021683671,467.67531044925545 529.4485057647323,467.2604910225554 529.5271819462346,464.00456952609204 526.0357215470012,463.1143320623634 525.6371324603807,464.46553317595425" /><polygon fill="black" points="491.74759418044454,4.844774637872888 493.50908077692816,7.173022328356296 495.034110932213,6.228981164570541 494.93754045584,3.014487627290464 492.88056361629424,0.0 490.84432875092256,0.8065759715854028 491.74759418044454,4.844774637872888" /><polygon fill="black" points="552.8246730254059,362.7818761221107 554.0757051019209,364.1178019361199 556.4995184706437,362.0175616159594 558.4445546736507,362.3934303985487 559.0857177444038,359.39610236735103 557.7122160413422,357.75153799155356 554.7947537400526,357.24424115356874 553.5456048955472,357.9180788967182 552.5151794373883,361.1583621910258 552.8246730254059,362.7818761221107" /><polygon fill="black" points="843.6187488022741,737.4592369650105 847.1730482725084,735.8734901478063 847.9479504975429,733.0849888527923 846.7472150454732,732.712115892377 846.3207045814852,729.1509989959949 842.7624454868416,728.3741272515756 839.9974142177814,729.5752945863071 840.4021249988126,732.3369694009727 841.2144084913701,733.5320628844856 840.8489656500212,735.8980575149169 841.6408649261685,737.0876708565422 843.6187488022741,737.4592369650105" /><polygon fill="black" points="1019.6290049643878,551.2186630071423 1020.5442396468804,552.8184120003888 1023.1858120367522,551.9276600354843 1024.0,549.2599612626493 1021.7036268637844,548.4517204557482 1019.6290049643878,551.2186630071423" /><polygon fill="black" points="424.9333761617386,419.6693911061135 425.45918734060774,426.45924288384623 426.0154032128735,428.57067819094874 428.0023323997319,430.5627334889608 429.8759358308112,430.30248794901644 430.63406114272874,429.38676145451973 431.4695083921962,425.7858024955209 431.29496601619445,423.3846779112584 428.81527574291863,418.93656343819765 426.1009951526907,418.11935833083646 424.9333761617386,419.6693911061135" /><polygon fill="black" points="1005.9776184195952,566.223652956178 1006.6148622091139,567.6558624169382 1009.0515049935542,567.3335728053869 1009.4976244625398,565.1684564991235 1008.3292184011327,564.2612048742277 1006.2193408639973,564.9329120016654 1005.9776184195952,566.223652956178" /><polygon fill="black" points="587.0687860266595,321.0866409641904 589.3700414146293,319.0634944355727 589.7472472733074,317.10020666732146 587.7816429868401,316.31926306166076 586.0430353882573,318.51275559553693 585.8187246333594,320.6826503302195 587.0687860266595,321.0866409641904" /><circle cx="281.55809514633825" cy="180.7194726947688" fill="rgb(100%,100%,100%)" r="16" stroke="grey" stroke-width="8" /></svg>