<?xml version="1.0" encoding="utf-8" ?>
<svg baseProfile="full" height="1024" version="1.1" width="1024" xmlns="http://www.w3.org/2000/svg" xmlns:ev="http://www.w3.org/2001/xml-events" xmlns:xlink="http://www.w3.org/1999/xlink"><defs /><polygon fill="black" points="0.0,76.13531292850735 2.509041103114709,83.06160106149275 2.9164134976973832,85.62085856421186 1.9672544355464605,94.53388008146544 2.2196372229928785,98.23091219661683 4.761376949617029,104.76011217516987 14.761779125636412,121.1956294477543 16.593547468382845,123.80258470160277 17.757817713265723,128.94017881754758 18.093981722754823,134.19902420320284 17.272300920533628,160.85056056605447 20.187418726269843,166.60148106916847 22.45519678698047,175.38287320417703 22.217822084781027,197.2295697883959 22.720620474197023,214.13041567209575 24.89272507236829,221.8488226736871 28.32729677564054,226.76573962559462 42.64115478946156,241.52810766559958 45.136734624406834,245.98620762332428 46.25616257277548,252.97029572182703 46.044716544414456,265.3123819039715 45.53352466343485,276.07899972860866 43.53674917049551,279.7206248428979 40.15056407529002,282.3250382149706 33.885304900434114,285.1459522795999 22.296391273326975,288.3930106283449 20.931173070835335,290.35023558480987 20.39398122688439,293.1012030535212 21.213931522196088,297.66650171472077 22.765321204403815,301.9606730231901 42.07029288640524,344.16334681954356 44.91285007653387,362.68077706325334 48.48632079729469,367.14503733695346 51.012939355777384,367.83991855118006 58.36391844456379,368.2373995408917 63.04735290140224,369.060158819919 67.32131088066974,371.72409923565976 69.00073529077169,377.4413497339759 68.75731921198604,380.44873067255367 67.12609631001597,389.847185583272 67.09663321748363,395.3765710833757 66.07334513281347,400.8819910331545 62.634573786505435,414.1003384006007 61.65304709134023,420.0404949114511 61.72948925135661,430.1857474089078 61.130580751912646,432.5114613337639 57.43447911420187,440.12126114862235 54.41702753955199,443.9432920144397 50.291011680877745,447.461737604021 43.28198469725199,455.94335749545183 41.96290864832234,460.8740002392403 42.26113269182332,465.705814547973 46.01492237365792,478.3903176711776 46.317040771685996,483.08096867910353 40.173266260251005,495.6294199027687 39.43482163491288,498.8744525219767 39.73129697291352,504.9853093436199 41.081653835881305,508.34676327447363 45.27203585794969,513.8872208762216 46.285253678277,516.316772680982 46.95926874560168,522.1549887141757 47.01102022254103,538.4006266775427 59.13948835719294,532.8969258833667 72.25579329200929,527.2590053986612 75.40611305173125,524.7052093750194 76.68658784824991,521.6173952869883 80.65147418510975,520.3617744996297 86.196580783879,522.0592882891314 97.14139876017047,529.0226139758242 108.9643670157948,534.4821152689228 116.58715437166113,538.7067379473616 127.19306740003327,548.107912200168 134.99293080793754,552.6822962427527 139.4092981135307,554.0466713350972 150.7433668822646,561.3285081735415 153.51081668505418,566.4933960399062 154.06274689039057,570.4101915389366 153.64445493511775,577.065143820488 153.84845447528093,580.831823826959 155.0421529764812,583.1259281636897 157.61295283074347,585.0374178485724 162.29985571733195,585.5725822760705 165.05830529581547,584.5706723157862 175.16063120233622,578.4901673087221 179.80548643699146,578.2440665538829 182.63981435109653,581.9997994640728 185.05877051393992,591.4934882312214 186.14300833910443,593.6512922085526 189.56533329482653,595.0766066202469 193.04033561348115,593.9591160158941 194.6983727964875,592.2884176059973 202.27714371853432,581.5815689206511 203.93116741224097,580.0618676810693 208.54661048003692,578.4656506421788 211.80868020779312,578.8322813617139 220.67060840355683,578.7628588954974 226.100796987698,578.1095993120405 241.81182335454773,574.9090630686612 243.36057790993806,574.2476488559439 246.47589123693152,569.2753046497751 251.81614209285502,566.8626899716976 259.4774596391086,566.7693208110833 269.00238371995096,565.8805936435995 277.6072846226137,564.0356701737971 298.0743114469848,561.3400060265744 305.46274665531905,560.1916718292125 312.68887245830547,560.4850377441837 316.3983031570872,561.1531045101199 320.0122426022134,564.0802263022631 322.67884318877975,570.9679479404963 334.63165676618706,579.0955475597601 337.8257510142955,581.7653295385827 339.02291120912076,586.1942054931276 338.3545951372263,591.5023359365039 337.94833570496695,603.4819024199745 338.6166986830409,610.3840397447935 341.17979050157265,613.9969590992428 344.23199989931163,615.7481685594742 348.79002828674584,615.6544824869629 351.8028307730493,613.9617134883033 357.99081591280736,607.2524730677519 363.4799657712528,605.0608571997618 371.19919857700313,605.1686921403759 381.2079359967628,609.9558490867287 386.5210424208103,615.4524087153509 387.70553867342664,618.2595425248389 388.0165356138648,622.0917429835558 386.9413315531578,632.7780853720703 384.29926146075866,646.5332600939058 383.63734722782783,654.2561416796318 384.1776888485564,656.329711175635 403.8977995682306,656.164507408715 424.3463466643086,655.3780557198747 441.78760895370635,654.8616660894345 447.02496013850435,653.5842148494303 451.36260958931604,650.5807795740811 462.60641151920487,641.5199971152618 466.2999834260734,640.267050575924 468.28121295317857,641.8851574794921 473.18728494013624,644.5748030338591 477.7789000320449,645.6856929194222 481.942314294868,645.6507323750582 485.0423712987863,644.5981789043487 488.23584682476616,640.0036898649633 490.73928670542006,639.2114433097516 493.80913003269166,639.8604637119059 500.12075783248184,643.5668509955275 504.3605626176436,645.1043110902524 508.4508607068106,647.7578540251718 510.59824669925985,657.3226097195126 515.7014812740731,667.5252761838449 518.9474021800346,670.44116823519 521.440230202738,675.4693952652249 523.3430928825737,680.9113920754743 522.7031120294989,692.3220233947129 521.8541821069533,698.5330682142956 522.1264865717442,702.3757869848405 524.0593994836903,705.6884557755387 530.8655250100035,714.5121730421974 531.4867630994021,718.068639520283 529.5573452356124,724.4076759591496 524.4892389990292,732.9725785382489 524.4468713128732,737.4383790439363 527.0758486820886,741.5487804469354 530.6946286497011,742.3529700566435 540.1119661777715,743.2202112483196 544.0465488259005,745.0874768532786 544.9652420050622,749.2195383699711 544.2505338909003,759.460957767047 544.7104477732461,762.8723873425197 546.3592741974132,765.9653235185981 549.4275114759328,769.0215012029073 558.4990912250789,772.8547748565361 566.3010306939746,774.5880120781437 570.726070086766,776.3604963435836 575.8817690798865,779.7466085911587 579.3988077276755,787.1996266210992 587.076237161755,797.1642521169155 590.0045169202732,802.3045423939079 593.055185315331,806.6998168847907 596.5086195367323,809.3283258868425 605.7966573003669,812.3643784465047 612.6434091985649,812.5204123051327 622.6674593974798,811.4616950478014 628.4413260937741,809.0949678542139 634.2809652335152,806.1011315439468 642.5531271858573,804.1743380545397 649.0304525507265,805.5197721019069 652.2540841318303,807.7859608925264 657.2011383093093,813.1295451179269 662.610527081809,821.9038180691106 664.5508948680058,828.7068017955413 664.7141207663717,839.4252370377209 665.278999311396,843.3376334732017 667.1055120399985,847.4215240218255 669.7075703130294,851.0972143811914 673.758625426894,853.4431127740914 679.3789323874302,855.6490172691246 681.6399221934748,858.3921629889848 681.5972697720348,860.3002816209954 680.099423053311,863.8204535294348 675.5139503557799,868.5521989292515 674.1749524250359,872.3523053626327 675.1334650294759,874.4359627299219 678.0722783639022,877.0431723023847 682.4756313352484,877.6288117810427 684.8128435956176,876.8994862872579 686.814128716169,875.060945002027 688.4184627783915,870.0576066718354 690.2927863758382,868.7411928038093 694.7940823234228,867.694085717227 705.455360577423,868.4124667542783 706.3330752801917,869.4879041313723 706.2508990824314,875.5194722148099 702.712748502621,881.758640283628 702.1039746828275,887.6631691757151 702.1134040307525,892.3485060182733 703.1425370981925,896.9113277716431 706.636624047059,901.0953438957102 710.323620399904,902.2350526577142 717.002900235966,901.653195676736 724.9288818818716,900.0426939923731 737.9826515161643,894.8023202952804 741.0891275519041,894.0175872256808 752.1861993384549,893.8178870825182 762.7133401403095,895.0884705472968 768.7636806266088,896.6683551481618 788.3845838927026,901.1841057410038 796.890460927378,902.4345083680884 805.8850144552632,905.0293407337422 807.7903497948346,904.6429959035623 808.2198855351085,901.5343037250882 803.205898187859,885.5357085018758 804.0085665169859,882.0075650987692 805.9535997482537,879.7747910392836 812.2196420199868,876.2235266811869 818.6835923968348,874.9412232109918 832.7505406700695,873.9732819544952 835.3446674512302,869.4793227427955 835.3952625286743,856.0024322842911 835.8180171072869,847.4311729067974 838.3375135731178,841.1061787276502 845.7322161962293,835.0288248853658 858.2458483199367,833.3158967745944 864.2311748939754,831.6042384745516 867.4397823301438,831.8137822540718 872.0160958007655,829.0875621406788 881.7132462357621,814.549143495479 884.7294700867308,812.5610381304467 889.0395979352709,811.097409803903 895.817156662264,810.5389096346532 900.1330836331166,808.7927797396478 902.1909677342155,806.5713873705444 903.4537573024352,803.1958084220544 903.2018416906651,798.3685128943935 897.8315572692004,788.7443321504591 892.3056639763164,774.2846875073593 891.3284966121305,770.0027219495898 892.2040604751875,745.8435630417794 891.431511980014,742.7013252535322 887.3888204491518,732.1125000618144 886.5932726399749,724.7183859861655 886.6836593028037,720.4609970861968 887.5686938253409,718.2149152591611 891.3513431094173,713.2007083845018 891.6857244441281,709.230858604588 889.8523769051577,699.9694314555586 887.9586177101454,694.0353907328891 884.5254865490311,688.4245399633612 881.6397426451277,678.5738712364297 881.8200949774144,676.4460533655571 884.3384785558759,668.9831525295098 888.959865015701,658.592129752156 889.3919723157771,654.3419801093286 887.9575831943532,650.2032967204458 885.4449676524412,645.1806513972003 885.413149120288,641.3461706983142 887.7026310444342,639.8418463782414 894.7543662337238,636.7364648129835 899.4664803873852,633.7224286224854 902.2417144247289,631.233982898814 904.4379572072928,627.7409948982488 905.2182495509389,625.0591488735854 907.0725837404643,610.8509606854153 908.6329019032075,604.0714501827003 911.9458417941107,593.228745711687 914.6041428453899,590.8728952170256 920.7940034930027,589.3173078328944 928.5645116180038,586.9357597814495 937.0712685371745,583.4518242266645 938.7493741057872,582.3516407418689 940.1739817511253,576.5712660000722 939.401380952517,568.0404812716888 941.8224384116404,565.12052468508 952.7534309895408,564.3830765778761 963.350742099468,562.2182417522075 968.140713267323,560.269967643736 969.8284411240844,560.2076736298216 984.6762843243315,541.7234957330222 973.4758639407753,516.6552775768639 974.1735381973488,515.4727553185089 995.9857744125679,514.5333561820671 996.7903058578725,507.20873637534 998.1091958703337,503.9292596430873 1000.688096882186,480.22288779224874 1020.3677218271702,479.72578100344964 1023.6594831124763,468.9963533749645 1024.0,463.4457420248786 1023.2917319051057,456.6586631770034 1021.2908377747966,453.3744358569128 1013.3494319762198,443.40010713017136 1009.249794245638,437.1733177063948 998.7173571515542,424.53985452976735 975.5585216153783,395.8824180410311 967.8839152942627,386.7025633863235 964.6637189655173,384.49962735565407 953.8139456809934,382.38529158327015 953.7062655141574,387.04203942352126 951.6426380263201,397.24139478260764 949.312426922313,398.8767205873192 945.074366548666,399.8694099861343 938.5094301815051,399.48271043682877 935.9593580554692,401.2723151777957 933.4933131634215,407.9175656044623 930.248171200812,410.28699873846534 920.8614989831743,419.1442704332733 914.3887959168519,428.9059866783273 913.3300828517308,431.56007572938387 913.3911895507188,438.970530265187 914.7489501503354,443.1910550857499 918.0129677148565,450.67128612264713 918.3568120250046,455.437030088199 917.1102601244954,460.1174227588981 910.8823798740276,476.33098137095516 909.3956260104983,479.59838837253744 906.739216524306,482.4850380443202 896.4062727513485,490.8022094072303 892.0130224551214,497.004336839236 888.4146067200734,501.38592695595383 882.6383155196954,503.5157249550438 879.7764826318075,502.87795246339715 878.3563076937093,501.5888804359344 873.4925143217646,493.9225283771994 870.9258320715439,491.1015440510167 865.0749833314604,487.6234827672141 857.1409643321754,471.33798533354985 854.3243739327179,467.155145380158 849.98921653181,462.9574298134817 845.418083085206,452.87832261234956 840.4811384783314,444.03200365228355 838.1495192746277,436.1009278144732 838.4784846833718,430.97754966693026 840.9890201742363,422.92247247303254 841.2649113032211,420.7131770771625 840.3121832998295,416.41120156859733 837.0400308841645,410.4920380423265 834.4125611107912,409.56614202397554 826.0654910912938,408.410737163237 818.5970160613517,408.586500629623 816.3780985562065,407.9436326498391 809.585890879913,404.13665481585645 806.9061605092272,403.7838868110039 771.5049783573222,404.4534518973792 766.6010355822212,403.7070137576105 764.8238160928622,402.675480865398 764.1842119785366,396.574168611107 761.6932038600365,391.8299699405237 758.7273388481964,388.53886258933403 747.7728311174559,385.639503803543 744.829731603948,383.5895511456797 742.2905717920376,380.6715177547329 739.2023300111774,375.86991273096385 729.6984666210559,375.60670989854543 715.6686423867109,372.1036974977783 711.0750588598576,353.8283333548866 710.0213716055135,354.7175347372229 704.5035341286768,356.47114373178465 700.6679100509821,358.84903424567915 700.6978133869301,366.26553159158163 699.6041276742374,366.1872762614903 699.4369062678246,358.8830346771141 700.0302736090612,358.25799314490234 699.862971276552,353.7001303659748 697.4990015551695,353.6311007328345 697.2462057095423,348.73322813329287 693.6784980088496,350.6735026571108 691.739479546779,348.66303741921956 690.9582532263073,350.3119790958848 684.8187071633683,349.4378045201621 684.8162414173879,354.5666206137198 686.9153577505082,354.57019299579804 687.508270309246,367.19192410408834 690.281170436358,367.5188713028647 689.1330894633629,377.69305319517696 685.0579057712391,376.8554861384214 685.5808472592217,372.490141801929 680.8417262212447,371.7906290938954 679.3585223649111,368.83176424735075 676.8507584240747,368.1904494361371 673.0691010254912,356.6678836148826 631.6605981780035,341.4172568217176 630.950472827405,338.18520346260186 628.9517988785962,335.18021232992874 626.0449025179224,333.02348269087145 626.497148391263,332.2462904367766 622.904662083546,330.73804682771754 623.1934248772228,328.01608302699697 617.2594707839967,326.34663560618606 616.2134909597153,329.13076352624125 609.5912945205554,325.90394624012777 610.1894011240993,320.52414415486305 608.5606845981831,320.3454752068068 609.4497666346025,315.41387567759 605.8954752033447,315.37582541569634 605.6698208485805,318.01968426064013 602.7443608455578,317.19854965404545 602.9126597851007,318.3459774306285 598.5064886366367,317.64179308602934 595.5584551807801,319.6023278554908 579.9576565593949,332.379510550158 554.8968020639322,321.6799162681124 552.2199603946707,319.4814753265499 549.4541264371395,310.904721759341 549.5784893248618,307.7891404474369 553.7927828419851,300.36776108343963 558.6692358042773,296.7961918072905 561.8921982975398,293.7547986344762 562.156369814359,292.2017145933738 560.7172692990604,290.53934547146196 555.4675662433319,287.00611123986096 551.930370547908,283.6200975904246 547.4976458462478,287.5817043214993 542.7291252465884,288.7450107540873 538.7240393153205,287.6508397935486 533.2485799447348,284.11358661661995 526.6326513644298,278.55451999009495 520.9468063959381,273.01904748579227 517.9135156024369,271.5216076383381 513.645251487218,271.51846572000295 507.9320183620138,275.48470519293517 503.28842947173365,276.5703120417826 501.06179586541174,275.4456568591586 494.22329493778074,267.53507466962435 492.24805596444963,265.9210146982506 489.371291826459,265.20441054219987 486.7617586936733,265.4984923008875 481.61072195855945,268.3336225190599 473.6255559797717,273.4739070234924 469.77023828886826,274.0125429114512 464.78850718663,271.89089844125647 461.82367100434817,267.1262777951432 459.6531331221374,256.77580117112916 458.0378612822437,250.49396088315154 454.68719923697637,241.9926885841718 445.7736412479886,222.10453143077575 431.39436241616124,191.31194327744265 427.67573022704806,184.0421503707464 426.5744464387513,183.01513500447788 420.6770815792636,180.0941569776012 418.777233128591,180.10989872816367 409.0497393717043,184.7335476026443 400.2878177264017,190.05439658737475 396.45055007929903,190.7309354425139 392.54616009921,190.3356805023153 388.68108193050574,188.73596066773223 378.3362965373682,180.5615891758373 374.8030064027562,179.35151722781143 366.4567822965739,177.77499127619262 363.23499607543084,176.48278977932102 359.9884013771261,173.69416834178935 349.22060023572436,159.74523867317816 346.4283985842823,158.18080176900673 341.735515705,158.83502893874152 333.83530324296044,167.2011275653539 328.5021395744996,167.8392175054264 323.6391289148029,166.1436716774342 299.55793961297655,156.60541976130935 297.11609430043825,154.27908134887014 293.9675674016077,150.14690473103417 291.7541648128508,148.603902694485 288.69192155318024,148.0223091543146 286.19305877986386,148.45722890058755 277.14126245383324,155.28442704904728 273.63698811312463,155.48119241105985 271.36507721125514,154.2189090998645 259.8681418294859,144.91986298057873 257.57220593094354,144.2256636611611 253.2786541354077,145.39274978233004 251.64768483973054,146.62675117173694 247.87053135080075,152.70992100692 243.64535295014866,153.5940635242921 232.89404098455265,151.6319556250944 229.42299370549011,150.44619769111011 227.39342451410397,148.6245102588473 226.04543604797945,145.96272171779674 225.45333077731092,140.839576680219 228.16804105401064,125.37495893411153 228.08420159677635,121.32887706672216 225.53359309216393,114.42356848513032 222.9395921328006,111.66650173701794 212.24123557526585,105.30812190014808 204.60536827664836,104.34409602661242 192.54408097003525,105.3017588386665 188.9855956653055,104.78519720664178 166.4201018263994,93.82745434133074 163.27555450933855,93.25929920318754 157.82557360373968,93.24445329818923 153.11492418474472,93.7676736913379 149.9310698452441,95.11190637827747 141.83063554906067,101.01783056439854 137.98296478791727,100.50068205355865 136.84405652242268,98.63118388188923 134.0123734826124,88.34710343458232 132.65591944568743,81.71959805475001 130.24646968787522,78.32917356373241 125.41400991197662,74.39050711617404 121.02772505967006,69.6039026887529 120.62714715140645,66.71900379139197 122.56334875248601,47.401704517611165 122.27472274135589,44.625139551355005 119.8594544649535,41.87290384321159 117.37356838451834,41.39253942343407 108.7220709472115,41.115694104296495 105.48489814390936,40.251543127086734 101.91823843293336,37.6818632620176 93.59994852280434,29.431836436748995 90.34789417413606,28.638600301412907 82.16274941122231,28.726656853701684 78.79736904085567,28.009799106715718 76.42219009911662,26.107362450577625 71.15076146418438,16.96324818438643 68.06053380844492,14.831012068120572 63.39870058011567,13.93848211383795 56.42010717754456,13.23143267759383 52.919105611414466,11.432228240928112 49.154057524037896,7.865394106746521 42.638737580171025,0.9631849558207932 38.34151700793507,0.0 36.00704714801679,0.857260653848698 33.24602932176613,4.1998463919201185 24.572607375003642,16.44910356824778 16.886009381703534,26.92386480797859 14.912799978353013,32.05373311453525 11.773069672708573,43.34749091280662 12.323347696078468,50.21953926359731 12.002224720610316,56.103547709504596 9.745087976322028,64.07860678176962 6.679771229655373,69.4916869083122 2.976105510223083,74.0820156918287 0.0,76.13531292850735" /><circle cx="591.0444269438866" cy="410.02154308797367" fill="rgb(100%,100%,100%)" r="16" stroke="grey" stroke-width="8" /></svg>