<?xml version="1.0" encoding="utf-8" ?>
<svg baseProfile="full" height="1024" version="1.1" width="1024" xmlns="http://www.w3.org/2000/svg" xmlns:ev="http://www.w3.org/2001/xml-events" xmlns:xlink="http://www.w3.org/1999/xlink"><defs /><polygon fill="black" points="933.7079697369369,457.58423292771533 927.0991983130888,453.4798577038764 921.5641433213784,447.8788030490299 916.8069629132741,441.29785782799036 911.9647983203653,437.1642358865994 905.8959581489787,435.9278514158907 895.5630323665422,434.39340573739196 891.7730927214227,433.48205390312194 887.166593376134,431.5228080650429 882.6631707211802,430.9710572031054 876.7025863953829,431.4694772713981 870.9268256474948,433.37200639165246 864.5613948254779,434.58476766384285 860.0985482786609,436.898205500582 853.6246952473815,441.07050910843554 838.5739123377258,450.0619187657237 830.8695387602587,454.16982132622104 827.0016921816235,457.6131280743764 825.2840271772546,465.14159717421387 825.4982261394583,469.42437017042516 824.8998045228067,472.91824178965066 822.8940030282497,475.29525455462885 819.7147681521698,476.56032588690596 813.760928566277,476.186760459551 808.567532286117,474.32389959595537 763.647195053814,446.26760401832905 753.30714702564,439.2225367941418 749.4616486123128,434.20297736696807 744.0717503806035,428.4169795668006 736.4880479524286,421.7021230807791 726.9694929337231,416.5716377753595 713.9833850188303,413.84731694502113 704.4775460231882,410.3043812498381 695.078277921868,404.22356053077556 685.0565710834666,394.8351440215205 676.8372647167951,384.3823934377548 674.1704757940479,381.6239009275 669.9286302060265,380.01382165254915 665.6477830484764,380.77283936528795 655.918500401676,383.7908183592492 648.871074794809,385.4651861126878 641.5395394562629,386.5222159315615 633.9562018358516,386.89454075647586 626.3656846935423,385.9579326370615 614.722972152011,382.549956078748 600.9478181700484,377.3425199564517 588.9825086466859,372.27939413541094 582.3139647451853,368.97265439907426 577.5451962712883,367.3883153631349 570.593151969516,366.3636131064684 565.5454614250789,365.0418637741676 562.6524241337152,361.764219435113 559.0229181660428,356.5812310280097 554.9254918984494,344.94447101651974 551.1781675222214,338.4437397526252 546.4189481420284,335.9010157887776 541.0175996256795,335.463350664191 537.2897523185976,335.77939302489426 534.2882097090866,334.95076960073027 529.4744330531195,329.78258703590996 526.5361170919649,322.2339971125574 524.2358463950426,313.7112891703033 516.3755845336185,285.9770155016338 513.2074031875928,277.8144820423371 509.2514863790105,265.0335416762075 508.81294040241346,260.06993576772265 507.1986909799018,253.54514904210941 504.2161457697099,247.82603750032035 494.7623880932684,233.1208443322331 492.0706600015092,221.4544047073348 489.8776136326667,198.17064629629283 490.06518944441916,189.78931594084122 491.9561295153355,172.89857436887633 493.3669300114617,163.45630967502996 495.6637045484624,154.51278280325198 498.6036828139951,145.21184472372602 500.9504095720447,140.2041157025119 502.8500080167335,124.80568439492765 502.7809495511984,113.19135253469597 501.77438834094374,108.04892643579228 499.7799946509025,105.86269973307935 491.7850432629012,103.21182026342763 479.56385268185386,101.13494392102234 474.28219771608974,99.94561221512504 460.7362598954302,98.84174422683373 457.2528303721442,98.81665987082806 447.61549740062327,95.23958892218434 437.65643677769856,92.50224793402413 421.26766316169574,86.62474100379131 408.97774021485213,82.89034929534023 405.06588576746736,82.68975441137752 400.19848053701185,79.68904560768806 396.8540122869456,76.19081319687893 392.61155191894744,69.73496329862553 388.50136920518264,66.38601991362145 384.70625818281366,64.15993845794844 380.28888534388034,64.7322038552594 373.8532295531073,64.28150898811123 361.9845542979509,74.31326609565792 357.8917894830906,74.97093936911222 352.1035354745488,72.04903058446257 347.0432448858268,70.5753031821805 341.59216397585493,70.34159543538954 336.45671371332605,71.02168956101957 329.42080502922255,72.9576235236259 325.71361616890005,72.80304117659477 320.362797420587,70.7424913205225 313.92265799661044,65.62788541459065 303.8963902892921,55.19100658928926 296.63402154036015,46.376936326798386 292.1321174113531,42.37193742450154 286.7811305419534,39.2860879454978 276.5226760077571,34.682917358920804 269.4531637269423,31.82344091550351 265.37402888329245,42.35427657182197 262.5338894753726,41.082545720530106 258.0844719653399,40.655006492309894 256.3286351483476,41.172705144620636 258.5072191285603,46.689526654185556 259.05270605290644,55.37335187407086 250.73023911305077,47.43513134912962 246.71384782750044,55.66315196417645 240.26597391861466,50.543977960097436 239.2518604718162,52.15054796462766 236.4235026792862,49.153637425719126 233.95999056610287,52.36957713226673 228.12732675000157,46.95660186934606 230.17006709867684,44.09252806309121 228.50758851562566,43.024321297833126 226.78860604546028,45.88471324968316 214.44874107777008,37.9714601638326 216.91901458921828,34.41706149400295 215.1194098250447,34.60664378752983 214.94460816776552,31.757227254615373 216.23884483495178,28.893368513989117 202.27258296675043,31.989225541586734 188.65102294253535,32.46081588628522 182.92097402823987,29.683427441085087 174.94032773961052,24.85070186363305 170.09962227855138,23.75845318989832 167.68759518410656,19.848672413245026 165.4489444478986,17.7702736290629 160.81934917559903,14.791980133674542 151.1762750128765,12.217371590506218 138.21227592220936,4.1490406193001945 127.51937638199418,0.0 122.13176936549503,11.097444647662428 110.98793195125403,6.444281291551192 109.69762757833743,9.81525727479675 106.26961783822456,8.256792115974577 104.64432171109215,12.379661567752578 104.26332353486488,16.48928728456258 100.84613099148946,15.956993722145967 100.71663960387858,17.204253994159785 97.15416517298382,17.252475209867043 83.53138700304369,16.499461930741973 80.40236617082464,18.37398463098566 72.4420786733454,21.81664633726814 66.0110857744576,26.386466825823845 64.28252166060373,21.862029102155702 62.604831860302355,20.04620205017261 60.79987973261279,20.721344510268068 60.73525270989579,22.37551925645039 54.16488757403348,32.00927948585206 48.17561196728314,42.186547223794605 44.62947183629748,44.88205297218144 40.115687625847634,43.20597530101236 36.62393598632555,37.29255884158704 29.415703197028666,37.31611826746598 20.639820210229107,38.44231547410948 11.098795716013974,38.96751163231556 6.148814033998017,50.09852263675225 8.778318274814094,55.870699592607934 6.4264751850583375,64.52554568967469 6.177249151358156,66.9194373114151 1.2463948047068911,67.93478400301842 0.0,68.99457221112709 2.2331488439934377,73.43716407779357 1.60811613881503,79.85250155130757 5.0444682466057635,86.18520292002677 9.853578981607757,99.11582168233872 12.91773864588037,100.778082045313 16.442817252652784,100.83231524549376 30.761345127661556,103.65719992899028 36.62673866213585,107.77382089894843 40.323417648554965,113.67678628057445 43.54739371292463,123.89279530615556 59.314808435264446,125.6344798389207 77.39445374063537,137.10016320538432 85.76668055587004,138.55720171169685 96.44573633085783,134.9558350915463 100.38996466956416,137.34733559961478 100.99826192715919,143.14382334955258 103.82361630605824,157.282557058389 102.21844206878134,168.38699208955165 97.92769529617857,180.4186557243812 101.17557282012689,185.7294265953534 126.00626674623757,187.22086485599482 131.60142320563838,191.18062372902125 136.74004076188123,199.8004508602803 142.86294235143598,200.94260028024541 150.03511053268696,196.00681158574866 154.5495021437969,183.51148212433338 156.2563397990597,158.83234219544238 170.73514042208652,157.9757980232613 174.25389682162321,161.13756898923907 178.1656194410868,165.80213762427945 183.22354048030667,173.4349100636016 185.6395407978957,179.23212355730664 194.90467595239974,194.297553257382 197.80561835079513,199.93035874877933 198.8410276655246,204.66618957900323 200.4187473425249,215.38085233220806 201.11247715367944,222.12727532893894 203.46402125073806,236.73401107924076 207.02777423106545,250.92164593694235 212.88102096030966,270.2803820427515 215.9920828738602,277.4010386160404 220.09102479015567,284.918188474899 225.472923992204,293.7879491512383 234.39746916384442,301.22324067999205 241.9479055855987,305.4983529120535 244.16748062658036,307.19984697447285 246.69244901642784,311.68228694150605 249.07402712028207,321.32549155965694 251.49597874976973,335.410353265479 257.7167247730935,344.6333983387151 258.06282418806165,373.0988808664672 259.2106673045777,382.1226437248288 260.7150348792934,388.6045557716865 271.7779568812731,386.5399114580871 274.88787191754454,386.9849331004707 275.9479589180232,388.3105968903841 275.9117446564039,396.6768851546834 282.0560302336741,417.4266333920634 282.71853268888253,425.5465385225484 282.08843421081923,432.62570163997896 280.8698678769899,437.70275472006995 279.5198661217576,440.3146191598205 274.1763592958827,446.90867592522216 265.9017304431797,444.72715397580555 249.1025367571913,438.8858213712988 249.12708144643278,465.17233668930805 239.9876713526864,477.3039884560449 233.07132348821588,490.2880673584129 233.30039650471315,497.1482301983362 233.85701930152115,497.9112252296131 246.48885771376342,504.6124758369567 246.60686794992262,509.63643831665394 252.42444792768364,509.7899245597236 253.3808279171623,519.7606796227828 258.200689907578,524.852384505861 258.5895124438956,533.2408800471121 259.8787112752043,543.8871850128858 261.6150338915654,547.4963072899643 265.12214289262295,552.211914470085 267.1360963451513,557.9458346695963 264.74791100045496,561.3302908764488 253.70824751902683,566.4039630592329 252.49244633502778,568.506060233273 250.11014181375248,584.9237592931606 249.5573956469166,586.3807460942355 260.6695984899657,589.2416562173626 280.0326522688715,595.9977666151141 282.8959735075888,597.7646496360474 292.50423622777123,600.3315686983449 294.4949295184691,602.1292681840099 298.2862769554068,608.6031942242628 299.43277182124,611.9867895523772 299.82111329157567,615.6530188509291 297.26172278779705,624.4790749966251 296.057166665637,635.3902397832373 294.4608825901059,638.7282537975077 289.6751206223077,644.8038695432128 308.3170274651774,653.5262839064239 312.8040234043303,654.0634795128041 316.0866521695339,650.7954875353889 318.59013999862975,646.7860955915495 319.8715204979598,642.5422194413275 326.99964463909396,643.0982790939809 340.9061863450501,645.6435334059356 356.12724099020863,650.1328894901499 368.55216125937983,654.464269729893 370.88327260916367,654.8167928382961 376.7983951323958,654.0956561145184 382.3552461939988,654.089387017194 386.3679486218369,654.9607651522383 397.33310715634826,664.4377405873115 406.45685049920354,672.6759984520683 410.2543024316185,672.4708223283515 420.4738172203686,663.2649406247012 417.68967501974413,658.1795698212832 425.34420890157935,653.5744726487994 433.8703549783062,648.8516668692534 439.31530808050184,645.4543022040066 441.65197578669523,645.5445362295106 443.43799717007363,647.0129041143914 447.7717698417271,654.0290656654797 451.1008013642359,661.9857898314447 451.8239046591087,666.1869770303277 451.71120169265413,678.3401918581882 453.83737604388506,683.383097712461 459.17079054277144,693.1188014245342 464.2553837492334,701.4965861663916 465.4266659787443,704.1932667568351 465.77420637033015,708.3698325104295 463.9128791334858,713.1049792479218 454.7600002244797,720.0402198277131 448.76526923448046,725.915678054946 447.0270585969164,728.3684182935838 446.71591104234204,732.7350284620334 450.31502238987173,741.7942708516449 451.195582174575,746.4136706434916 450.38685366874665,753.3577015660769 448.8975043854897,757.8580775738317 448.82403863196834,761.8015557982399 457.7289093424449,762.5521996218031 457.515565328942,758.472220481441 459.8705698502102,758.2317588324155 460.6226729367498,761.4960220103619 468.4428475728912,761.7474948305171 468.5461811590722,765.1180940025796 479.1150560859172,765.556303632532 480.141918458106,760.7499904570544 490.9333002505742,760.4133234596036 490.936324541388,763.0054534091596 495.9091273372476,765.6037320294814 515.2769042856469,765.6878424868436 529.3959602264872,765.5467861554202 537.9680520763129,768.0893126025244 537.9505179186195,771.3402340826642 543.3288111045268,771.4213492870322 543.8599395913759,765.3102782317087 549.4698026164615,765.1979764455899 550.709578876358,758.8895466508262 554.3120579317651,759.9528641270209 577.886051701568,765.2875483462172 590.0447612474703,765.2092534870021 595.2179012780173,765.9103121083625 599.5867693407059,774.1288873499516 600.7200192933424,782.218794509914 604.1300913237834,794.0330916961329 604.8470897398163,799.718133392231 606.1798108826302,797.5075240262497 609.8857162246037,796.3984567322401 611.2478305439874,784.0400689733642 617.8009515214161,785.915844995171 628.5763708999084,789.6142957683862 641.5310972781277,789.6996461727817 647.1382061286492,785.4304969430195 650.9989776967179,775.5026940660837 654.4103022837942,760.8165288641109 658.536097022377,754.0060960827508 662.2198081413303,749.8042851047611 669.485926384278,748.8859569955755 673.4547295203467,741.648715609417 677.2728622827527,729.5507965326844 683.6140156324224,727.9023530015261 696.6591691418456,725.212318861766 697.3241079231078,725.5230124452584 704.9299536369206,736.7426435448158 708.5704615880959,741.2643668632356 710.602182567871,742.6975443689078 741.8614402096874,747.724555012917 744.2652611822592,748.742395141612 748.9849402991762,754.0886227290443 756.5159511809628,760.3066137941994 761.7024678550843,765.4870666772435 767.5558223680927,774.6509791200297 775.0715630113659,790.5249417178328 780.5287540550206,802.4683302520642 791.4462374637703,825.6940052745548 803.7313479046678,853.2395917099273 807.6296426960516,864.0547880194572 810.3045408351942,876.0122394520715 820.5437686777378,889.1527131179978 831.5700579785215,899.5174852331435 841.3115770901965,910.9623421846868 844.088623971113,907.3783773361067 845.8725378671033,903.48477895185 907.001872039373,977.0887968125353 911.2823662032083,989.0190645462989 934.7029983834619,940.0902169512799 964.8041281807698,878.2923522570037 984.3404917078855,837.9548989088444 980.0397484047678,823.4632543410846 978.6426615914456,819.9409096040448 979.9706297459642,814.9572322079218 986.6241646818586,813.7742612165299 996.5180153088797,809.0663495962383 997.9975682052238,808.0525344690976 1002.6479489824981,802.8752040381722 1005.6018873786489,800.6384585323232 1013.4796301756902,804.240015504678 1024.0,792.786558422419 1022.6558124123558,772.4897070709964 1015.1631152136612,765.3513701640131 1012.4978153380272,763.2706514450031 1005.1099189266821,764.8862837548045 1000.4292634174946,767.2396429865821 990.8257693176313,772.9323451572387 981.8615517408314,775.7713260318935 978.5490467682694,777.3044382355358 975.2016084414067,782.4988537081125 974.5487930484577,784.9716988364976 963.0213477862494,781.9050358760403 965.5768083354527,772.108758986408 968.6377457586325,767.4980236282249 969.3967545829316,765.2242828165131 970.6655978657624,753.1874888902481 970.915518116198,747.5805592776514 972.0848507909014,743.5694116889999 968.2783174132703,743.968393721463 964.5803704482976,733.4981250924709 960.6463330157783,732.8577289469085 955.0505446472375,734.5527578072981 947.9784234006909,735.3814582161049 942.1162540206594,733.5781970577791 940.6032015212247,731.6609244009653 941.2450854578886,727.7583318934264 937.3496379705637,725.6073712807213 931.5245675450903,720.9034320643434 930.0826746864716,718.2428104162314 930.0298835157314,716.1320047399246 934.3588306197455,710.6643373213369 937.1816397044537,704.4311301419368 940.6106478477365,697.9649857023073 940.4035353685539,693.0570568639681 939.3065523798724,687.6629162507203 933.5012804032217,682.8082535664386 928.8979755585077,679.5367751339193 922.0326253719893,679.1007558569679 916.1220205216215,682.0809790356043 910.8274906613988,680.1198368298042 901.446531716232,667.7870604686982 898.3423516424226,664.0931378824591 897.9759398715138,659.2063965506645 900.6405532264388,657.3372917951718 899.6349372107318,655.2825186621508 900.4049081310689,653.8409968847133 896.993264491829,651.8911005644089 897.1848602741353,651.1481409163475 888.1490821991979,644.1324953887228 885.3826961349292,642.5533067669478 883.928300787565,643.2041879366665 879.3671832588869,639.1113559556138 879.9255070724054,638.3546209848907 876.4588566862815,635.4852753186206 877.6881655820929,634.1478607752952 872.1494529433436,629.2497879950643 866.768835480695,625.33811528402 862.5117145096629,624.6314788517477 858.2993870555732,621.5030886371362 855.1584721592177,621.379892873684 851.1757516927214,618.5281226585557 852.247595752871,616.8126903580039 848.9194000888609,614.2732359758636 851.0014269535467,608.7839846931929 851.5821321419498,605.3844024089539 856.4665677765101,606.0235179700867 856.4760451842826,603.1027092001091 861.7481324079907,603.8551508292542 867.3600188590103,603.4839134612571 870.3479485343903,599.4194183538027 873.4051194201835,581.5093280457379 871.7027467083265,574.2171088952553 869.9206659216459,569.0857328867462 868.2047959437128,562.2829057634622 864.6861013686907,544.7730897514048 868.0851136564756,535.628396446381 869.943182473873,533.522779484576 873.1130974719495,531.696689598157 878.7400697256948,531.0822426199578 894.9931448777946,531.5198080041325 901.0261531234887,534.2395522664822 899.8547326089322,538.1039785956575 904.0123778845702,541.1506410271782 904.9960668508161,536.2980011141735 906.5323624136307,537.2137050978986 920.1996949656656,549.203449118153 923.6541442942298,544.6040604935077 933.1382683165925,547.9982501577636 938.6735271355057,547.2955236448988 939.8617256684685,545.9666103070022 940.1087767558414,536.8180072687264 943.1417966854252,536.5921418989401 942.3371737466987,529.7174925570469 946.0977487389715,528.6609476747476 945.7149825269413,527.4875957622965 951.4684595983728,523.9628048519969 953.8791605980678,521.5279568471913 957.5378269417286,512.4463476664846 963.1083678662181,508.1942695910554 965.9025647773801,507.11235371202093 963.9038723404807,497.8997748184443 962.6225735528249,490.4951442766503 960.3953016974858,484.23399289729343 957.4912118119728,480.161731485342 942.9121188517804,463.3905002912934 937.6906449918898,459.1838429879515 933.7079697369369,457.58423292771533" /><circle cx="437.8503079770046" cy="190.8470746538403" fill="rgb(100%,100%,100%)" r="16" stroke="grey" stroke-width="8" /></svg>