<?xml version="1.0" encoding="utf-8" ?>
<svg baseProfile="full" height="1024" version="1.1" width="1024" xmlns="http://www.w3.org/2000/svg" xmlns:ev="http://www.w3.org/2001/xml-events" xmlns:xlink="http://www.w3.org/1999/xlink"><defs /><polygon fill="black" points="649.6021569667953,31.36792597491865 636.4000915083868,30.92679739436244 635.0712357891977,34.00306202595857 636.5175912344818,44.62800393924283 632.8488165049234,40.84998959902521 622.3410719902063,36.78143063752793 619.2928521261667,32.32809731945133 615.8378897906935,32.10763035848379 611.1833594875551,33.364456635138936 579.0213525860004,20.382990865764214 554.5501684872905,11.920802326544162 530.033753319621,8.681269188314218 510.23074093436264,2.5807642877513217 492.746146792298,0.0 469.9484528176705,0.8444612941048035 431.98293128656036,2.6067681787054653 406.82532442658527,7.461342821063454 390.8501856302159,22.97409535336874 380.1355641576308,38.55626177581826 374.6363421127035,57.142868785373025 369.760436220679,71.65966647030552 357.18310659535547,94.22105388479508 349.3853323959193,109.8517614429959 337.5255632832512,124.24309095101717 327.96551999296713,139.84803632903413 318.35752790284636,158.95754731329032 318.1226985126668,177.05135878600117 319.6537191310431,192.83008041361404 324.68883030270706,206.3390607295903 332.08662365076844,220.45289244535655 337.1695112605245,231.62903043644275 346.2186478436561,252.20371876764534 357.62460846647036,269.3168717755611 367.41986900228557,277.635689444226 381.7680443005723,294.78738441388896 389.63693682371587,315.3394193201776 391.7833859746598,328.7965006353596 396.19165054713045,346.9593917279322 401.1750697090346,365.719947690776 404.4715915634817,380.3545690725788 406.5581417628253,397.9027928611661 408.0698322879332,415.4318468769518 403.2318249831339,426.43645979397985 384.2995175271718,444.83483166134283 357.9303512345389,453.72764288437725 346.27537827604067,452.9723165868048 324.7309809182793,452.02739573346184 311.3241135997112,450.07237210636845 305.6981832595052,447.5556561048371 294.82620152437556,442.48797710322043 288.01501508397456,434.23983382708013 279.50077130724827,423.20282904315525 270.3935500685297,411.7355164407651 263.6873230518737,411.8548319149322 261.7195294992264,403.27246436592 232.41391480544087,404.0611907006806 212.36054208217314,404.40408551890823 188.32607090561697,405.398983349999 182.63513379319141,405.51436059071364 167.5942609246711,403.38248752465165 164.45965508452315,411.75128016680947 154.75220682681132,409.3229044197682 139.5978122029288,403.88533670655045 125.67811409314321,393.7987961600389 118.98026801189931,372.1262999734566 114.68610528584396,361.9966415195024 110.58076496010482,359.6082105745523 104.54702299918515,350.8252719030439 101.5795444531783,351.32914192843657 100.04351159904422,350.0784265632245 99.50952190949141,347.62144486988814 93.26441659433254,341.85122881348633 79.53915478861914,335.6739253697723 64.82192656571588,328.51205642244133 60.665748138129494,326.81843995129435 58.27293977609257,331.7848077920006 53.5775562624073,334.7100898437849 37.2160177919318,339.6596357176846 26.564508652214755,341.627045403855 20.89592774263281,344.1999009959339 19.7090069396183,354.46251358407676 17.82733362597185,360.238883478308 14.96282393051574,364.9651344313385 8.401665328457202,369.0186944842151 0.8998447193202141,369.72261720679546 0.0,371.84089628838785 1.9537749971761447,388.01703527046 8.403013861134273,387.85099671228363 10.891240567943537,389.52297071536253 11.321464399129287,394.1698282085509 15.323104958008319,394.0547303185115 20.16436710689144,395.0431692888663 28.78423404616326,400.80263655855106 33.145175045810134,400.4755243280862 35.07059982566801,401.448854762645 41.4798558583016,409.2168356875477 43.17097335864653,416.7539018499774 47.98318592956293,419.48771805345564 57.936221404304824,422.58427026867133 61.71385292508437,426.58494671201237 64.39894803957955,433.9965559347274 71.51496303272715,431.8118229294171 71.03526946827468,438.48537861535084 72.43937629114848,441.5920720476045 74.49039763557892,446.92378370108275 74.2476664029057,455.2999905388527 65.74897365554601,454.6763208967753 62.44130221133314,457.0787198202753 62.74642009505011,502.7392487706497 61.81421905108983,504.55193430001293 53.65162153663979,507.38661583783335 53.532090799407854,519.0840904145257 50.76241098302022,535.5005834071161 53.06339859920915,557.6686355681998 53.603789118579485,580.7344333376514 53.2364679390118,588.2846986212018 59.85754559171383,592.157019860407 61.359957784005076,613.5451676874922 61.98681024521135,615.089639523686 64.00536053069337,615.6930237689966 64.81977398225918,627.1632162321889 54.101014537536805,633.225848758416 48.50856817307849,641.8150856723275 46.19320117482832,650.2885848658723 43.958867899718406,652.5603314414544 43.64285697959909,657.3907538709886 44.14683322296826,660.4443151870589 47.21163399688836,664.8277557098714 49.71399151251969,666.5680064764383 59.677155062423616,666.9217098733636 57.04889862715994,682.0610402332925 58.19874756073989,687.6786266728776 56.48829761420581,692.1093308793357 56.796212778155784,694.2350845692339 59.513908626729666,697.7619704497417 66.54764585893851,697.3363016855844 69.42957802377768,701.5894425796129 69.9293307946924,718.1092058555888 70.30960826798628,723.7856361854964 76.94281373012842,720.5533127388621 77.38374770575948,721.1291905737127 80.13605206143419,727.964335878499 85.0571031410599,724.9364114439829 81.3627012784152,718.1756903691435 95.53979431992896,711.7783689175326 97.47819327394424,715.2974718798945 107.62580896403882,708.6388407103422 115.18094198735704,704.3926692388368 124.29272651703901,701.0500233147914 131.72530732714748,698.7634409855274 145.15467627228756,696.4744370602125 175.5196692721997,694.5156956776414 184.50188143347833,694.4992412756884 189.65890012669885,695.3988825111555 204.85855670614345,699.1499957224053 240.3317260246359,707.0345697209705 263.4083648027708,712.0093772637266 274.5686377634483,714.8403981631424 285.6054486728237,717.3523265315932 298.4776827606513,719.6287106055282 306.4870376452436,719.7838977818647 316.1550207607639,719.3369178730645 325.8232283388971,719.0423817868249 330.18005111349044,718.2113717380413 333.64416003186,716.7038325412116 336.9815276728641,714.4470550670982 340.44027482345433,710.0768798122394 346.63012771031697,702.691206964739 350.568882554686,699.0693505908267 356.2855991227132,696.2087141531969 363.4487797053385,694.1046859955736 369.53748780643684,693.5013319588563 375.8645926992161,694.8676767237743 383.7448426082027,697.5764883943895 401.8477181509608,705.3408186870563 408.06527282402516,707.1574955016059 417.01952628519393,708.8123799959434 456.8782326475372,714.2860756763997 484.978294406928,716.65717528711 495.2045621745632,718.0654453285683 520.1033928587724,722.5223173160184 529.3214921913742,722.4964532139745 536.4955426742868,720.9619017610198 543.5527721849849,718.221734515119 553.3592386649772,712.1518274353244 569.91417015878,700.7003899078892 575.3077612481862,697.6607495876726 581.6469419597506,695.2144862734295 588.9524538307126,693.522028073067 595.7757547549859,692.1392530036861 601.2847486694359,689.993202118209 607.2596823959669,686.3466527660989 633.3877845919708,666.8288336548896 637.3370092915422,664.5416937434844 641.8955040640079,663.1572873878914 650.7579055859951,662.2013889290645 679.4685991798193,658.7932973230996 684.983414429618,658.7579109827502 690.6254014588943,659.779744964507 699.268741658923,663.038480511653 707.9175467686124,667.6630862164308 716.0927005548173,674.098926470579 720.2354824217039,677.1648348827033 725.2792040007412,679.5516730761486 732.000181197408,681.317515258202 738.9524391261889,681.7337652910962 748.8925019404141,680.7690104283824 757.63338685046,679.6632860792397 766.8619733593904,680.2145892006723 771.474709404058,682.3164687802343 776.5433581457698,685.6475374289691 783.8596169121595,689.9096866520731 792.0240648106488,695.3532807454104 800.5812194321396,701.7660357042145 805.0452676470362,704.805785293514 809.8212513480105,707.0232911921536 816.2358472480231,708.1094256986739 823.7781689316859,707.2837069914949 833.395240420124,704.8298353521545 851.1459944563064,698.3596785158671 865.9781758309288,690.8587626787573 873.5774464509012,686.8240624605243 881.3436007370307,681.3811850806939 889.568404142125,669.1833331074606 895.1181949824752,659.0371380726491 902.2147147448939,647.0862363453681 907.1694980905977,639.1143275005271 916.3488867937957,623.6860247433857 930.0959405619872,599.5269653719545 937.9652492515386,587.0788024440429 943.2988922765298,575.932906454706 950.5319780610037,559.4827481266318 957.8032463348646,544.8266475659844 966.616557172607,525.5254663876544 977.0027797626856,509.6518223090601 984.4666981635156,499.37805618912455 989.8111266292173,493.1861274175749 994.6636784891741,488.7275025799603 1003.4103301850946,481.1762323155269 1017.5770860229582,468.4153430474679 1020.5757738673386,466.3112870115891 1024.0,463.03225700992965 996.3129227420524,457.93303101619324 994.7864385470473,459.77651760148467 989.7433517374395,462.80101848590454 983.5495580135582,461.2532162891261 969.5169381819511,454.6401059329915 967.9026179669842,455.1582862096013 966.0901213613296,459.13152722360246 964.940597709042,464.44981284764566 959.2082227548443,463.09001531815875 959.6865856011684,460.70923984442857 957.820868976402,462.2176773370306 955.2811361218024,472.09062404294855 953.5952053713548,474.83696636807565 938.4164162319435,470.3278451264327 933.1193989791232,472.05713684150936 933.5203313700752,476.34273467006994 930.0065664812199,476.1843409642338 930.2111303759178,474.2842403480442 929.9176485870722,468.4482449807797 928.1436766763538,466.1297179607512 924.9462648836799,455.1920361980692 922.7906713254727,439.7244892702472 927.8671043805949,437.2343838661707 928.8119165762149,435.6364991711891 923.3245227712382,427.65181015434115 923.7468826024777,426.12025647824794 935.2616375508596,415.16555201168615 937.4994435683458,412.2509005495805 941.9475627398197,405.01198843343724 945.4960946606973,396.3423590480022 946.2734472550726,392.032957708683 945.837484395915,384.84153725329867 945.24720213294,383.4399558190535 944.989650513933,381.19293031684236 936.4001257183098,380.95320945117993 920.9178061891342,375.47305830899626 916.103755522752,372.71053242614744 913.5080339242188,365.1217614234335 891.9238737651634,367.60438449309146 885.5062782558405,367.38000375014553 883.4914163096294,365.8626232844856 880.467183870404,358.2397490065203 877.7612832114044,363.7789697921852 875.793196023752,365.3304230336388 866.6513665111172,362.849441442854 864.6140049819587,360.3505559630444 867.6345051057854,356.4440491957799 876.0793223967073,341.1608985475783 821.5303208456633,337.9038853043235 804.6675438395312,336.2745469826988 801.6187815814307,324.43430944289594 802.1283349243348,319.0815355763576 800.86563847806,311.1158872531303 795.5962880794909,306.25943488370353 798.2353650268419,298.8837702044917 809.2340797497149,298.8567672155854 804.9502949452834,283.0554855360667 802.8614740815489,282.7356544530211 796.3596232286659,283.7908298609452 794.3146359511666,281.4492671344505 793.4658581278437,264.93714582386764 791.0161126002064,256.4997745279801 791.9657397717144,246.49298936608386 786.5855911980706,246.43675319570315 785.3652058862127,253.03392668685234 785.2580093344164,256.78668280254 777.5044066531824,261.64467089823245 752.6908905737702,259.8856899839499 748.3923547337373,236.50467277506192 744.6330643952156,219.6573208111776 758.6125823474707,219.5193264778269 759.8451508664521,218.2066020081494 760.7916957710062,209.56120991919147 772.5608761862551,208.93920341388878 774.1471825652206,194.79770542286656 790.3713467472638,191.51764305033726 797.8495192836327,187.59067805701534 786.7131159664974,167.80070676379512 785.6823500009441,158.5415014677012 746.1107064095105,162.2731507142048 715.1603189045233,158.68062581952688 713.3665137218677,114.55443088671768 681.2033775996395,118.59056219443755 688.0266733598784,111.59100607506491 698.4011339935067,100.67260783221741 718.0129166761933,79.02706046402625 712.870444702882,78.7409658821083 710.8924432619283,77.25984755233026 709.1717280421677,70.86808284559106 710.8521611510452,69.36531437054452 711.2301276767141,63.903606674797516 709.6275999251571,61.52883739669278 707.228112018603,61.98663838022992 704.5659038415182,60.632965727909664 703.7593920209882,55.65500033398132 694.9294121010532,58.10483887227133 693.8592130413193,53.107426105486866 686.9404513680788,55.44012361101602 678.3367853827514,49.86619838007732 677.2463412405684,48.019503996130084 677.5599866392446,43.995815847229096 676.5767219302767,43.359567905346125 673.6968959174233,44.068506657620446 664.517125968516,51.165261133954345 658.5706011238207,53.947170124051354 655.1884614134518,51.08881175537567 659.1592735133665,44.43934663837342 658.9863989543577,41.70218571223779 656.9753044966641,39.17547205529911 649.5870165562641,33.37160241583808 649.6021569667953,31.36792597491865" /><circle cx="458.14879593758997" cy="167.29526979799243" fill="rgb(100%,100%,100%)" r="16" stroke="grey" stroke-width="8" /></svg>