<?xml version="1.0" encoding="utf-8" ?>
<svg baseProfile="full" height="1024" version="1.1" width="1024" xmlns="http://www.w3.org/2000/svg" xmlns:ev="http://www.w3.org/2001/xml-events" xmlns:xlink="http://www.w3.org/1999/xlink"><defs /><polygon fill="black" points="718.9365134148509,943.4829777790468 718.5583989530894,932.1688568908517 719.4520858203841,925.2566080467843 721.1249029353564,921.7405818111891 732.4967439365595,904.3766145280831 732.8197120782387,901.4068516968462 731.0003971510673,900.1213006539535 728.5162082719322,899.7589533511925 724.9213465219258,900.5467087947538 718.6241214826723,903.2079648031856 715.3538797764683,902.593427605551 712.9018568547284,900.1785420404514 708.3736865012105,897.0058965138896 706.9476566226938,894.5836929895563 707.4788326385197,891.8495037546428 708.4776867732523,889.2465981962728 710.6920105888531,887.006653129941 713.1884733437385,886.5562374782869 715.6150584219324,886.7965490053741 723.6815439881652,885.142222776617 730.6451479852097,877.921528896066 731.9321775806382,874.1009235015599 734.0795147139265,871.8608810420776 739.1491424089277,870.0425985395849 741.5215878034054,870.4785937399339 746.5427285440297,873.4075803235872 748.8904797030423,878.0877885367945 751.0604664441737,885.1897221973916 760.8186279120426,900.1380824867749 764.0862084895106,905.3696469755838 767.74990532198,909.7922360750616 772.107022380195,919.5490086476672 773.5962521098584,926.2578313855693 785.036533859292,921.3356520208167 796.9790089270501,918.6851873774929 817.8984666742058,921.8148143356196 830.3259342198578,924.8262721795905 837.1812142652077,922.0985638850697 848.6319528324989,910.047230276586 865.0432964117043,882.9413789388077 869.7860060477515,870.5590921750006 876.4924548514044,862.2192843621941 877.5203594937747,860.2942759757645 878.816688634572,847.583458081059 873.1019548284348,833.9384167420005 871.6039292416374,827.8965683849015 867.1829551515203,819.1437774054382 866.6467665007086,816.4822065157457 866.8292701805315,812.8359188403786 867.453828584292,810.617620042146 871.5408951115809,801.5739565429839 872.4572392422407,796.625376077788 869.8907535015285,777.1050826958794 869.9486261928789,772.96697357542 871.6932372031918,768.0125833975266 877.2782250792998,756.9136574276231 877.8277569984504,749.4701486795192 872.3271880780973,731.9706977539608 867.6418010838642,725.5003939685329 866.6694055208798,710.1035746761113 869.0757530974151,699.9965751371933 870.7571207100726,697.482273176901 873.3763701923452,694.5808689644598 878.7204130319327,692.5693690703911 884.7068011794985,690.6249430742675 886.4556519894516,690.4030721992453 887.5819796119156,689.4583842454924 889.017877763018,684.4800064970988 889.1415697231381,682.7311007953001 890.6984591892839,679.9308613323244 890.3942200207973,678.1858047784872 889.3654662356913,676.622774848167 888.5821307412073,674.3481730790049 888.9612534723256,673.0079585427438 890.0157078398554,672.2686426895896 891.2558270468687,668.3933056727868 892.6132211003023,666.1506062408645 894.6302314809042,664.9301207076512 901.479318172053,662.8012243220091 904.5956618438785,662.7215395642042 910.80531188836,662.9935307102432 914.029722506937,662.4488826301267 915.9960563668915,661.7432232898842 916.5002024040521,660.8843812064069 915.7649301261789,657.9118892703233 917.0197908145126,652.7401669275603 917.3077170022431,649.6645581416071 916.6517313088484,648.2431562776408 914.5093166208427,647.9851512312964 911.307745912337,646.8534738267524 908.6879131142576,645.3053391856938 906.9758342771149,645.1982311289194 900.0491384790099,645.7647611783814 895.7431455168329,647.0573526600908 892.0808417695532,647.3888550720882 889.3221755310431,645.8619012274239 889.1609317260007,643.428129072887 886.9063281405552,636.9032645922831 887.0596949582613,634.3745204608691 888.2976487681314,632.3494043931663 892.3184579075014,627.4120019859897 895.3830324907542,624.734032025548 899.2202257247702,622.2434454628534 901.5753813187603,621.3897368099974 901.5586788363437,619.5616338539868 899.5434459404241,616.8274029140257 897.4740423353004,613.2292224153341 895.4353529485096,612.0469402269523 892.6896581272073,611.8451022387726 889.4469927593484,612.2136859145626 888.1883750167339,611.9061646805608 884.960022956223,609.6549417310773 882.872591593931,607.219371048644 881.6217807112971,604.5086380288419 881.2104458882727,601.244855802813 881.5402791707351,598.5200118420488 882.3737607887826,596.099277563663 884.2134317860825,593.8026289152242 887.3550234506271,591.6288091562704 892.973505653998,588.7948008745115 898.5787294011934,586.5573044952309 900.9745365626595,587.1819181382841 904.6685352669986,592.5699887803651 907.1472678782432,600.1893487948507 908.1545242474225,602.5217129421758 909.4361614631716,604.2767296439553 917.7848765511405,607.0645782304066 918.9377989605956,607.0333525522512 922.026577186923,605.1352628345605 922.7367515205366,599.5721375975425 922.1788728555983,598.5696231972138 918.7867304186664,595.817979895603 916.260544495073,595.1438488739609 911.598488372783,592.7942670694733 910.3490558671278,591.3578326407272 909.1321685789038,587.477055864739 909.2308656450418,580.0402184635045 907.4994497921381,575.8263023918266 904.9585791433425,570.4277617392117 907.171456910235,566.4656616634352 910.3448042068339,562.750585361473 914.6164892840416,560.3079088390098 924.8000695916215,556.8559873077887 927.1752546262544,555.3549043561057 927.5076781033633,553.1856214183636 926.8878227727147,551.5387020742733 904.8234414616462,526.3617753173389 896.4549230926972,516.6373017223978 894.5795182942793,513.7203367521861 893.4702969635155,511.185444492609 892.0658937750494,505.9444378090851 891.313621542975,501.8368926386937 891.1664241206497,496.89309720215863 891.8226478163251,492.4246913128609 893.2602198521021,488.0310972060771 896.0851499790703,482.0656916656958 905.4705528680339,466.48169290039834 909.3424968155605,457.44195574989544 910.3958266985959,449.895229862006 911.6073597942078,433.40735550922886 920.8578251618421,417.144109048657 927.6768098202185,408.9825711880701 927.2386859523813,403.9025446685945 926.926535299305,403.2502312965298 923.9931640444153,401.1146826206632 918.5427179818947,400.75638242373816 916.6673315459744,399.7486215105031 905.2629108505145,395.6845469887121 902.9609763281823,394.53710303866285 899.1463447070756,393.47513962009566 897.3976967200646,394.03524305208555 895.4215951903126,393.9903898954751 890.3465191411823,391.9566489472892 888.8857652849679,390.5247865122933 889.1723039458126,389.3345286933526 887.5282022994418,387.15543200769946 882.9247405762583,382.76071001611604 881.4271312199609,382.3543733655822 878.802159158495,382.4700196571671 875.923982882577,383.1816767459077 870.7837200463322,381.0860103394558 866.9434552953775,381.16086933744884 864.1800449450649,382.31285843127114 860.9847982856561,386.0705634602929 859.071434700278,386.8961041648955 858.1462469703102,388.2673403670575 857.5202012513465,390.96695858980627 854.501673940408,391.69085024074275 850.2318090315847,390.46697683224943 848.353834563724,387.7889859355438 845.9848233045815,388.50554374558465 842.0237388820698,386.4493305829858 839.2069104897859,385.8063628948041 834.7917641023882,385.8130752739553 833.7693388862153,384.51119932046333 831.6433164756239,383.25810055666363 829.2548125874248,382.80721192954866 827.2729356557134,383.1924043097565 825.5858057623509,384.43657710413106 821.74752486111,384.7654644576753 819.6457834513002,386.4225028856016 817.7615164922154,385.2080320909788 812.8146983013602,386.0473750249879 809.5737224502797,386.85350371751474 802.1660266959915,387.4973429276464 799.6946574795053,385.8470038051198 799.0350416030884,384.59301007809256 799.3736855459467,382.9097344480764 801.2199539585296,381.7261976883534 801.8111426169621,379.1808504738376 802.8972008251742,376.96935406222315 802.5081515982328,375.8755422197503 800.9497447059647,374.68002842337603 800.1663386959074,373.0262854357949 802.2794618908243,371.7074686616535 802.9234289938337,366.3856296489223 803.4221283507983,365.06961556123895 803.2289235870721,362.8904152664137 802.2799068077197,360.3268193610759 802.683920725132,359.8204043805798 807.3529156777834,359.0145684074056 810.8351738815809,357.2865317982504 812.9174242239475,355.68103430701944 813.0104566103006,353.37517270291164 814.0518273719379,352.60896728428634 817.4371037911882,351.56743970782304 820.9032823190025,351.200846461707 822.4635521171234,349.271828956367 824.2599360867937,347.9053880218688 824.4656920872686,345.85452670513985 827.6639061759884,339.1099086828376 828.2727373372616,336.48230251919574 829.9998872603695,332.3007508834811 830.0156773815188,330.9783969369929 831.1415828368118,329.1771923278617 833.8512475898457,326.14422113618946 835.9963386309032,325.4810373435514 842.0890683425167,321.34256355573973 842.9978667670631,320.2495134661773 839.3860772482209,316.3897257737026 838.7884646161029,314.71570387152406 838.9078735564453,311.295035316194 840.1945382330745,308.95993623675963 839.8016235733934,306.42414110098025 838.4333286032181,305.73957710683135 834.3679199633544,306.1733797060367 830.5075137663661,307.8236509583743 828.8926620504967,307.6324663944514 826.8908089967728,305.43775891282075 827.4756651115438,301.1341608696473 828.4828413634228,297.4091393999021 829.7639648395937,294.40873083330644 832.2294431301908,292.270043529276 832.6283177986782,290.0653986315882 834.8860843128358,285.27661665896596 838.9837843727216,286.47042110781354 839.8343141600878,286.2788780855436 840.8244601104226,283.91556897165435 842.588238976888,282.0677933155516 842.6804400501278,281.02413698689395 840.0753924863587,273.2987621154199 839.7756829726674,270.7021947229 837.678100115613,268.06828547176815 837.7898550148599,266.0313288406128 836.1529607300282,263.15944022303586 836.1611177372276,261.8400623610896 833.5511030345394,260.0090170007684 833.0344565119921,255.90042255105197 830.7902266810532,252.26714803288155 828.4667199908448,250.31214380422273 827.867531457606,248.50642297780848 823.2367087460348,246.35563974384388 823.2707210284645,244.89124564695896 822.1648030689245,242.27210043070943 822.2727838845778,240.77783618665046 824.223912868503,235.93186863667438 824.1521765612474,232.88430706127622 823.6233059597495,231.6206127480334 820.6438969475593,229.84495205999212 819.2767292657765,231.33945342145716 814.8395118378284,234.65987220980628 811.3542388930598,236.4788818801636 810.6289486971469,237.33464066914144 810.2076067658049,240.1098132526704 808.6897569942545,240.31679473401528 805.2512401616821,238.94369189894712 801.5922631794343,238.88131455596226 799.8299044267997,239.70297844602885 797.2501091796885,240.24599072777426 793.4619092297985,242.57866738946166 792.0838635743783,242.794485426096 790.1076588899589,241.23356874142735 785.0799352939866,239.17763299790352 783.9162041287298,239.5642180912455 781.7164119226161,241.39235836713158 779.806571437785,242.35959352001748 778.3398756801705,241.9718315185096 775.8089578167812,240.53928840174217 773.9824744440208,240.20546535929952 771.5360007007594,246.01510539677713 771.5514458780018,247.99977759773026 770.8652288918856,249.09916404856756 768.5053985801729,250.60205014490157 765.4021906084329,251.81223369410918 763.1735695854717,249.9777076362368 761.8498800527383,250.1516906067602 760.2301721957891,252.68129077136723 758.9661183726759,253.34621723035764 757.3533814740221,255.67971737590824 754.0058418232506,256.483293997195 751.286587362034,255.88958085376998 748.7773428104457,256.0416069834432 745.427520422542,255.25939776185317 743.9367507392735,251.65787321328082 742.9753612000131,248.21765000130313 741.6109797146308,247.8387687013137 740.1371644878884,251.39952672272307 739.0377833733006,251.80698956098036 734.2520801603573,251.1271619662084 733.0349008142374,250.58325286850356 730.1546760581473,250.72725483741874 727.613096217992,247.7577007056957 725.3342404499123,250.28123136849104 721.4163301435844,251.63915511893356 720.7049303569355,253.2107583830806 718.5409707134025,255.00636095493894 718.9970293930122,257.8478687694585 718.6368336030132,259.21069502077853 716.9876693133234,260.52281265506235 715.6316390460617,262.67087892620543 714.8786463221273,266.123651717547 713.77401603826,268.5477847469199 713.5502367210581,272.1605748141378 710.9008487405418,274.9130678177178 705.9408662960685,278.4891655072415 705.9821609384281,282.97177296602115 703.2726422767915,287.81159653919167 702.0625490180814,289.5488866969537 702.2270266914115,291.9844371992 695.7211042923782,297.341984188736 695.4324636017667,301.0297475561115 693.6339709099672,300.98076853552766 689.840353035817,302.02049663610353 688.6944923771215,301.10692311674836 686.5428783890255,300.8759367685043 684.7049777780726,299.14798393148794 683.5989933118577,298.7050328059904 678.3799323922962,299.9587302375344 677.2137834087074,301.6046991081512 676.7088894355577,303.6542721054028 675.5902391905372,305.49442431145155 672.4338524731429,306.1298488508786 669.4466379627845,305.83236488728414 666.9740443917793,306.0535252901252 665.4690793415976,306.9541930429193 663.0297376556349,306.8371663601189 656.750732396472,307.5539463883623 655.7891245084569,307.95948428026736 653.5285228549116,306.69436819868076 647.544737618815,307.30621805330793 644.5867307722958,308.5434487490504 642.5503284025289,309.00687646701124 639.9809321759076,307.3850502610743 637.9758794326946,306.8448410211578 637.1768653878122,309.50154318421073 635.4270213427991,311.22229589308904 632.6232286544953,312.0384023341787 629.5503097100545,311.28966120874225 627.2247926885968,311.48834529286535 625.2068123770802,313.3948393024252 622.8613480720225,314.91424737370323 620.6600732991434,315.7365232940564 618.7684854285741,315.63543378162285 614.1517190802717,314.0867436164989 612.2959647273973,313.8522083783847 610.9103029013736,313.04148445267947 604.0164719148588,316.56351628957066 602.3750560298057,316.5425075057408 600.9890824949746,315.6702063396908 597.9045179841202,317.6847381180497 594.8722355839457,317.61029691358374 591.567299783068,316.72852646387514 590.0577036302378,316.98295926223545 587.8167509690802,319.0127505381404 584.1992486467756,320.3132071116279 581.450977832772,319.4688441295548 577.7993130239023,321.21971067683387 574.4198389118777,325.2826963513347 571.5136958785239,326.2525047766459 570.2708705459681,326.1263149935462 567.4656464919082,323.55015937280245 565.6492020315031,316.77236697642104 566.0860558849391,312.06047808518997 564.7263505429916,310.79843817503456 564.584562679831,308.6901850615516 563.377780059807,306.6491965001661 560.7877333892682,305.89548887879005 559.6491417677512,304.49907503064526 559.6837242761802,297.20064098081684 558.234002908134,292.9714292261516 556.0912026023757,287.48665897965645 555.1224989018738,281.4221899196285 554.3873443069489,279.15476527568967 551.9320253272903,273.8660976990583 550.3703224366211,271.2959196224616 548.287242919441,269.783005212827 540.2095603086196,270.1312420350673 533.3749326974852,268.9395878521617 529.8903663782924,274.1144980034352 524.7409293245267,278.1832131626355 520.0227578345242,294.58332093764784 512.8427058848117,300.6988129514847 512.8870561554872,309.71677171799377 516.4506432172914,320.0087912886494 519.0414733461967,320.9173296916622 515.5476328717194,324.7943790924178 513.356906579886,329.96656539186154 514.491639844946,334.373520479411 518.3759418066525,336.19856719988763 518.682931147801,341.8600725501566 515.5572318939683,345.4603096251159 497.6170847180343,342.05462981112885 495.124540620802,342.43498826214136 490.9363703680765,355.0209145373108 486.68391358601224,356.0542246909382 482.80786777232777,356.07206309920184 476.80766230419204,358.0357672649184 475.9087082843191,362.36311732581373 477.0336092421563,367.05867552206496 477.32471709413505,369.99854481808495 475.9518401805634,371.9396888094376 472.36799841037396,375.326928073045 468.1248277609314,378.4800041046195 462.95604257596,378.1341249621854 459.43772588504197,377.41227403725577 456.0975847231985,375.0295370005093 452.7588907314221,373.1995134069749 452.77220461272975,376.3336872599949 445.9354692897482,375.99391094678424 437.0742526997233,379.9032604681511 434.8597375360712,380.6391391611968 432.4540974341111,379.9219685358446 426.6958799400912,373.4907699502314 420.2105939893918,368.1794201124238 420.20198597197395,365.96663042598675 417.9841566953989,365.79095103849465 418.3010859245814,354.19469956068747 412.57483348716295,352.92525726967415 409.59883632943024,348.32807062141717 407.93013227854004,348.33435458894496 407.74665358552056,346.4922408611908 411.3972649090366,335.98178591757596 411.7378560579953,327.88091740121763 407.10833513488797,324.40583449365704 397.7088087182863,332.35588038654146 393.60590370080905,325.87851433029505 389.08420176080773,316.16876403368815 383.23222677403106,304.57967449975774 379.28755295137216,297.4590461572168 379.4965734483958,293.7946444120587 380.791250783812,290.1557390174348 381.10569617401774,284.6496149313415 381.1073195084323,271.7747753240551 378.37866990741065,262.494062929665 373.97699352684236,250.94760225848086 367.04457625556,233.0589236110128 362.30046103876373,221.1283570619197 355.1024466974954,214.26876301380253 347.6601150060037,211.80727120166762 345.4306569926701,206.57820022054875 345.40285291245584,200.68855764927616 344.4074023890922,192.93126866877435 342.66304599381147,185.51410128569364 338.77924925853654,177.6543465967145 321.43189351903266,146.87983079670312 308.14710539905553,133.51916048289593 300.9187908508759,121.47344593592584 293.02645847864756,102.05452398980105 290.83255244181845,90.20144832405936 285.5098656391751,76.38877617520745 282.4283824442039,67.45107029281462 277.430460099075,60.632635873173285 272.1750636778961,58.22564687661702 264.3424056811049,56.824435400165726 258.7541033824782,54.02981047070591 254.3799038635924,48.719613437961925 248.6696921795986,35.614892481284755 243.80754374817442,20.347900275749225 238.32792551155003,5.501563695645245 234.91754151922225,4.447615228147811 233.70069273879378,1.2043996599204547 232.5811749681935,0.1051388593922411 230.32784087555706,0.6196980743856102 229.06513208455922,2.162082764955926 227.86534170752972,2.3280443512798 225.0161582652265,0.08802251935048844 222.6512786333656,0.0 219.96511375480583,1.4335502693390936 217.16843233254548,2.2441432413049824 214.11766481323346,6.421932834117229 212.76652230744804,10.535451940314601 212.2709194569952,18.464910518283546 211.44409755462218,21.26269558001377 212.3237294486598,22.608317428355576 212.9373736262849,25.291160386903016 212.24644306099077,26.56764706560341 210.4274327954192,26.80603726400159 206.73341500983338,28.54646283983891 203.75955815985313,29.174085599922023 201.25860466245987,31.136240764621448 200.98231217576307,32.18824604510553 204.0839912925068,35.81662402191307 204.63174814654596,37.61183444302537 200.4364795066897,43.93647733362957 200.24582080086572,46.33538423141965 202.45836777322754,48.506935873710404 203.30096031889002,50.10864823642669 204.12916203067647,53.51665449877487 205.3523468782033,55.53606347099992 205.9200633131232,58.35210840946638 206.901208037872,59.23837345977404 214.5879909424191,62.43207848405791 219.7144012035884,65.49640774794875 221.23336045755772,67.58676466924567 222.44320492390304,72.11866317027045 217.24273569172394,74.486606950966 216.78204838801292,75.63987985559902 219.8331054691183,81.07845107871992 219.05830388050768,82.4677402927806 216.3778055511157,83.01337060417484 216.73249834531057,84.58504543698268 218.86388651542535,87.49199620407398 219.34319696417987,92.26062641700571 218.78335438630353,94.4978375257873 220.8299619597062,96.61948295978982 220.73143523063325,98.65262042049915 222.09304549521823,100.05874297996263 223.12663709675388,103.60076130103664 225.39557350306913,105.58882346656378 225.6602240604911,108.9390986623647 224.9687923299617,110.19665590606212 222.4120380732815,113.2242179693518 220.95093413396577,113.4110051693857 217.72105589097606,112.1703508932834 215.98043008944163,110.84523150561063 212.76313030023903,111.30973032125826 207.19726364674605,113.0253605124127 205.58494375298554,110.55465359045206 201.3407185526472,111.49126173918262 197.8254382139227,110.90408684854265 192.95401741285463,112.59589006931844 190.0425794840112,113.85624794346973 187.7874700501677,115.35110829042571 186.0340750165465,117.8968342303923 185.2429644452214,121.41241106074438 180.41875471468745,124.56457010009774 175.41496632868555,125.12356492047718 170.45714965084596,124.61748531308365 165.3667038504195,122.57997691052606 158.7732771449674,123.91492419713563 157.1364884282095,123.76446662373803 155.17684119932449,125.10464413823672 152.43644358588762,123.10503353939941 150.6714314205839,124.78131768390153 148.50761417721384,124.9266275516427 145.58326443045158,123.62169106706006 144.3430760675115,122.56971848643423 142.38193588028813,122.31689143027995 139.37329285326436,120.13282515613173 137.43212186409997,120.61407992319664 134.05711416102173,122.28250522719475 132.83586353865226,121.9557903606227 130.6689024665678,119.10827680122134 127.77399158958067,119.39547072760968 125.76582098154466,117.65050265640264 124.73056665880353,117.52831532391951 121.73423721749428,118.74556880863179 119.17380960445138,121.81261004511407 114.38279821736488,121.01815537396863 112.171686987477,121.009050271781 110.31353189098294,122.51200906129918 108.05629499050893,122.69588304693741 107.07558090684964,122.1347006009496 105.54030181048293,123.02460469149332 100.32277224653932,121.575820732735 95.98587762375321,123.1612676334438 93.23958482429705,125.71573447266167 91.38081392716872,126.46215977401528 89.59484664863781,126.43191002228559 87.83820414974014,127.82176235675172 85.31233105427368,128.15869743614473 82.1493998464717,127.4236155643116 80.59526416787931,126.5565652656262 76.68191372399001,127.3541624924627 73.1302926112019,126.29119215962783 69.92030176401518,126.44492037581585 68.4962488472942,125.77071516659703 67.80246227562307,122.50190477733645 66.15514165863634,119.57971011945529 63.15920983390162,116.60624687703682 62.862912682052695,114.93160213856015 64.01952777068256,111.00906026158634 66.46985620332477,107.73004630649223 68.58826509205497,105.88135659972909 69.51267482376245,104.40999846745865 69.31830797306512,103.16390044552111 67.08938635776299,101.28453624939391 66.22082710296189,99.6815635660123 65.43501352573948,95.40209231049312 64.87998652038254,95.06569104844891 59.3595339843854,97.20950846617518 56.73337108674197,98.61915783063114 54.753579905396826,99.05767892694712 52.77445874671476,101.92693628934433 50.785287234423,106.24700910307115 49.42579617254707,107.21789507448227 47.872073713604706,107.52325382245601 44.82081242695798,106.58358932904855 42.47104655647868,108.44189620118675 43.525243815554255,109.20855935684062 45.05030437581609,112.13991665163576 44.12466193540408,116.58294551961615 44.34529606823064,118.86166979694292 42.00451155311544,121.99677859616395 36.889421450423725,122.51734859876774 33.83679446377178,124.22162127904664 31.911294977065918,126.91785088466702 29.174604633692084,125.02711851204947 24.031342000183255,125.55572337480658 21.27397406081139,126.72880225395124 19.108842297869273,128.873252060131 16.722498495096666,128.85147767007277 13.66004433411243,129.82085756019285 11.690070257270284,128.5530955542107 10.19185894891017,128.60335406262175 7.552994982421598,132.06499199980146 5.6928572357628076,133.58627005133076 4.109425151623649,135.58742177412523 0.0,138.63974638468846 1.337200035207061,143.11615280829903 2.1115986566500813,147.67403707209155 4.488187294856201,150.0874679357388 6.513111106344618,151.66255661452726 7.075796877289967,153.60520430508734 6.750146316545398,157.04783973358826 7.284775985305063,159.2361750487736 8.23674768040656,160.70812822587504 6.125539460572241,164.0691382990351 4.81072729532169,165.28508590422564 5.231295977654585,172.4401774957032 5.905259634458289,175.2311828993885 7.430802162296473,177.27684739306312 6.6431439875536995,178.9114554085993 6.918572603037211,181.63051885619757 7.982794650213461,182.70473164824136 10.36043987857326,183.4419160303912 11.830891117936169,186.34598535457974 13.930385668446354,188.81163696448232 14.039933080700708,190.76420261281623 15.242388340635118,192.88120570190722 16.70427956709269,194.34457851815648 19.897030002892205,194.95910673761125 21.932462927218346,197.4142982230652 19.672593968084186,200.75652301294326 18.735652814280183,204.21202243954212 21.862296422801446,208.78409076083005 21.685497329795815,209.8063207219285 20.101207669700898,211.57519072976186 20.100719662353434,212.51560614931418 23.154528768039984,217.27332998033137 25.03182795026673,221.22162331158313 27.07811523760211,222.66461665773522 31.0866505045429,223.7909928842796 32.08619744133836,224.54751849820536 36.53834598033736,230.51337045129117 37.29799091106667,232.0478279583382 37.89902953731808,235.37091381444623 39.27824611296627,236.3746493802754 41.481765362511595,238.97276774076533 43.96296264030979,241.09119020149535 44.94410079452111,243.59822543851226 45.980879054443335,247.53708631261748 47.23114281461403,249.36846492524808 48.52685932039731,250.05320638324622 54.16841017266835,250.32036581376133 57.10449391895967,248.38726183489962 58.43889871081868,249.98302617064076 60.865019304564576,249.94227307274707 61.45752150097253,250.699905536639 61.411160387871014,252.6026625926106 60.568922154056004,254.98654014118006 61.040902088275935,257.2476527795036 63.18964080621219,259.51908686840784 62.27215435663883,260.80753652877615 59.669189591334955,262.8856238967775 56.90806670959026,264.3171782869242 56.8615421282674,266.76252997234496 57.85266781743869,272.51331688669495 59.66811401122501,276.1054625693247 61.095471802703514,277.916182071188 62.93924927895531,278.76601520955774 63.5598697950852,281.0183396685336 65.74581537453565,283.1259045484552 64.99594694112552,284.702498945142 64.56014672355782,288.12042151327785 65.24544568267291,289.31824968835724 67.79420859334589,291.41553179041637 68.70229317760507,292.82832301571864 68.70232081762603,294.3332654554624 70.12059611302857,300.06487735800226 70.66735574703483,303.8323282919273 72.4936193506787,307.3730146255714 74.42107607769597,309.61493125152253 75.02383749608444,311.1710079953507 74.58813732707839,312.7783612707906 72.59645150741636,317.22165725506 72.42865357293,318.73684310382737 70.84451408625158,320.19067285489507 68.79540747076128,323.0368077782489 67.7848022669122,325.012691331121 69.59315656596537,331.1976683657151 68.59215762835483,332.7231018714217 67.34893079366691,333.4909387918557 67.88714372595852,334.96515749562764 70.13046889274524,337.1574287099594 72.82916003175482,337.96607090352734 73.87696557559715,343.51626454353345 74.9805409004717,345.1746725668937 80.50774292756664,346.93635692290957 81.62000152559898,348.0213746089306 81.62037849175212,350.3672556457374 82.41855440172442,352.8241557477619 85.53494943040964,355.9372759808581 86.25886292661023,357.80183610258314 88.45675013802745,359.36770060546803 90.61787054200212,360.032610427382 91.55487133807821,360.99616119744974 91.44467650309889,363.6287217837446 92.07504173439582,365.30751938755895 96.11998591014795,367.0993589564789 96.66731955741517,368.0819929212853 96.76088459935656,371.01284429723194 99.12675131914887,374.17692238101256 98.90604969375008,377.41354553392466 101.01183744858967,378.50966800491733 103.40565096033657,380.68057457167697 104.22263555184928,382.2685338799365 104.69763333705029,387.5860367116127 108.64973880273332,388.5568831703537 108.16903351212076,392.5629236356938 108.51306814937458,393.5265626122349 112.16958042340413,395.1335826138753 115.25995714552997,397.33453716557506 115.9847993367305,399.1783761711648 115.58612531863095,400.9730909249183 115.95837075242395,402.10926202107623 118.46362026496584,403.3992753788101 120.8952021415797,403.86879499597364 125.85017673509792,403.40503220648236 128.32751153403316,404.5719408284041 132.58761274123583,405.52252429662553 133.63668020164582,406.7502700595129 133.66790491659276,411.13631382934136 134.43875127291008,411.894787732131 138.88324112573616,412.5363495099084 142.65175998359902,413.82468795068326 142.93230953869744,415.6394277335261 141.54398913392387,420.08806434529515 142.31645340101167,422.6292664416852 143.865670459068,422.4334568333711 144.86001281878202,423.51925416544293 146.604699703964,423.8248704537542 148.880375977234,426.2827875412994 151.91783484077104,428.5761384315341 155.66806727295346,429.0244745842498 158.34862202285112,427.6061151770158 160.0728299880445,425.67824486901407 163.7096473181352,424.9256464220865 167.63350096650606,422.6662015953657 172.65255051697943,421.9541173398301 181.40618856363915,424.012975854051 182.93136279960507,426.13314431483855 184.5200007936074,427.27917439183125 186.55297002981806,427.8717655500151 187.27862146183313,429.04959037706124 188.20200337809203,432.2351691929763 189.15899269064033,433.1157809901199 192.1015787907903,433.68654684633066 197.1999106648676,435.37005058434397 199.24112881014028,434.7835653425666 201.26956308910832,432.1246790869087 204.40172284379258,429.0458079882826 208.84327332912295,426.24998361387486 213.66689941145265,424.6949962050089 216.02405983175342,424.465937203796 218.93831526703767,424.91156777014487 220.53720624938435,426.12861591149533 223.67560644420828,427.16895783057043 225.0599951740608,428.28392006351953 227.8926283276992,429.396310535314 230.41270160378576,432.23054935820494 231.96355205021757,432.3520629624687 240.00335572101474,428.3898080136689 241.96108247043279,428.31439946491207 243.67536931365476,427.17325110956244 246.4225189485707,426.9119326945781 248.08150631388864,425.6377212045826 251.6792260435304,424.5540762718798 253.38270412930078,422.4387317824462 255.2572016132829,422.3017812752714 258.557782876684,420.9215871862258 262.50640406811556,418.32014431406367 263.7929105196663,416.8621664609915 266.93485254569697,415.01985419191783 271.07219660592114,414.6421066333553 272.4805915075671,413.8096874640712 274.3650238832056,413.8668340078408 277.1316764475462,410.6005309368163 279.4015334135222,408.73054555190083 280.77381343681867,408.64542739073966 285.1387332515592,406.2774770743705 286.6364179882828,404.1634555442399 289.55633372391947,402.63971946018637 291.01281385031547,402.66685385360006 293.25465795009023,401.42108324979154 297.8430961598581,403.34592022186985 300.8839860828335,405.79810397294307 303.1314202664557,406.7253803530639 303.7322883130241,405.8009670933951 306.113540788683,404.75926880726274 308.78730957323836,405.17193814434654 310.53847106324,404.1946859771423 312.80225098363877,403.97360074340406 319.5606087054864,398.8303916131114 321.32720424776977,396.90955895699085 322.3149004510317,394.9704077586779 322.319814894365,393.26947860020357 324.27109678900865,391.20473978396717 325.4767653253895,390.96585110794445 328.2786277042114,388.0883616942432 330.2195927904685,385.5218754803758 332.8224420356253,383.93622978027076 336.9356876388047,379.27179920435367 338.00269764769644,379.18672016116693 340.0084679434041,380.06261775001053 341.2029266270855,379.3833314496527 342.2179749028806,377.43363558891156 343.905278375466,376.997060717875 346.2363475651753,378.2403860171074 348.26982393900596,378.6538571853083 351.60450709852967,380.17034964874847 355.13322798731156,378.6528179932802 360.33174163762664,377.0069177353141 361.93028961707284,380.7721449844313 364.9719790631983,380.5369874540165 371.8126284642828,378.84407660813656 374.9039100230254,379.6029412075369 377.86525063153556,382.9727656197399 381.5912158203753,384.70181316450066 383.25250497246134,384.8496102762201 386.8127161881142,384.41739837039654 390.6739987795051,382.3444743051177 392.2149681840574,382.58467561739394 397.13323665077274,385.7333189954004 399.32994912286006,385.31579924662117 401.14137874534214,385.8619919093419 403.3639668905915,389.8187192773165 406.4958477907816,391.1803887886615 410.03816406599793,390.8189990443195 414.6048508312504,389.0699987170726 417.0370922823085,389.39850516608476 422.4061213329183,388.78386895110816 424.3918346024472,388.95012038330003 427.47512561410696,387.4929509465487 430.61061946899827,387.5316432377259 434.08592562922763,388.76813617628375 437.6394947720032,388.835609193418 439.17660174700114,388.33644913249316 440.68740427606707,385.6362491556505 444.7500595487289,383.3144811857883 449.3027912650122,382.8435076581827 451.12215023134416,383.1649035823343 453.77403515644187,384.99791527298044 453.98158635328383,387.9572152205543 457.79595709090296,401.33337017248675 457.570387851329,404.99361274620424 458.1627480308844,406.7124730188823 458.0555404747982,409.83837862355324 459.4474804141586,414.0854389178875 459.6688104998533,418.18397456478 460.472542564056,419.4207304527158 462.95911434350865,421.3580330901751 464.7302525417407,423.27646280422516 466.4684414834927,426.01694854517825 467.61321588211695,426.6057016070756 471.7664395612717,427.66373478752996 473.2453776975004,428.5083357094942 476.1711747383321,433.108058725628 475.69564327482215,434.71898719127535 476.435310240098,438.16139514774727 479.2344604124408,441.3473169660024 480.74908044415577,445.7075708357312 483.09847749769244,449.9206559620584 483.9397630233487,453.3420602785744 483.1640612468725,456.24727908812906 483.6692928238412,461.1254405772638 486.11976452539426,463.06228137282517 487.3945841403275,465.5383195830191 492.07990119340303,468.8394314955092 493.4841360742055,471.27382973357396 493.9505684577815,473.72284760540765 495.55401755850033,474.935064730961 496.48980109277886,476.53066479406357 497.8247303575838,479.99055807100206 498.97593721579204,481.74891644487184 499.44910180768056,483.7576512081597 499.3582154205745,486.1888097850697 501.8938305841195,494.00273646286576 501.0594353669173,496.0893595697654 502.6909845426646,499.46732493658374 505.3442848542221,500.67580641306347 506.4019230590789,502.4038078543166 508.88670447628647,505.3051463902466 508.7529845451748,508.1986772817172 507.87814960015805,509.9477116189794 508.8377513487517,512.3342964650242 510.55035575628784,514.9629132027923 510.40566709985296,517.5903169796713 511.0868894280063,522.1427713615565 510.54236000059325,524.8437843516281 512.3174863278663,526.743724686373 512.3870183143928,527.7276649196073 509.91170572510026,530.6954908096587 510.1663717403997,533.3735983751083 511.9145539264633,535.4681930176084 512.3358027281297,538.0006907416987 511.2296419301064,539.9263811804545 511.6897766699336,542.9106107320549 511.10554878986824,545.016566114286 509.97365020858575,545.4432785595543 506.8238315663177,545.5916158559329 504.7740891556062,546.3210404135715 504.9732163616152,550.9387254372539 505.9929807382645,554.3210195126494 503.8876531889275,555.2027908423952 501.3763069050494,556.9390962454179 499.7610779574624,559.247316024756 499.2397304767653,562.8622071590473 497.5291909075578,564.9031950981537 493.9016141485515,566.4193221612005 493.4134969738817,567.2742517520961 492.17388709617984,572.4544158823511 492.31794287364045,573.4906673433154 494.73836953590035,576.1689172596393 497.33528361552953,576.8748018160934 497.9750627111205,580.4768807146288 496.579634229427,582.3510902032192 495.3739702117445,584.882517738068 496.41335421301727,588.5339155476158 490.9346787981643,591.9276894487737 490.06635112803065,593.2362775897725 490.11402963981124,595.3713219431137 492.01470553718895,596.215136598669 494.058760919459,597.9313601790866 497.4650647620908,598.6744061577093 498.19968727474463,602.4398296248165 496.28843229667376,605.35630513351 493.31690995977226,608.2967069083137 491.8055309475286,611.3545419262084 489.3278512803003,612.3517632166283 485.74662473789624,612.1737402216328 481.2257537854254,614.0736768220154 479.44938249425877,616.1877234587062 477.1266431429891,616.6398590844466 473.86217021371294,618.7590019212777 471.2101086259358,618.5046007668193 468.0777818032506,618.7948213673874 465.4813498895867,618.4171595374169 461.93869016425504,618.708958618444 456.426451109636,621.5377020073427 454.97608409060336,621.7588610423029 453.3721325672844,620.6468466284946 452.4617658354333,620.8861551941338 450.84126041934843,622.7620534279415 448.3421994087803,623.4715943264767 445.0697994279018,621.5444601820351 444.1522353269201,620.0477293229246 442.7441147260611,619.252083007106 439.3180979234339,620.6320850701688 434.67071210553695,619.0699489355973 429.70459048748194,619.0488532555248 428.0310983126232,621.560739717253 426.9268353394715,622.2129831306443 426.85316824139187,624.894028377917 423.76865992591206,625.625673766112 420.1319416706826,625.7114655366838 416.75035456950724,624.4608788317123 413.8370809681185,623.9484127572758 411.80591431189634,625.3937329758494 407.26204020019316,626.6231761135582 404.38256703895246,630.0034367373042 398.186253102261,632.1832807309727 397.03561718411936,633.2462870479636 396.598968752842,635.8467078754646 394.35258144832653,637.0569489154861 391.88041399200705,637.6610041533341 388.3165299234352,637.4074315263997 383.8870130719612,639.7950537511637 382.5492612770629,640.2311162322708 380.19494529149483,639.9730420493208 376.1295369182045,637.3865821285035 372.82158074422034,638.3951278864679 369.93885345021437,638.6811390820644 368.06517425978086,640.3735768558519 366.3808627363818,642.8550971740974 366.5513697207332,643.7993037377837 368.1575695246037,645.7976296940521 368.4910493809982,648.0063443790723 371.566083436207,652.506451774864 372.92062992807496,654.1150486992046 376.5035901668438,654.4013357998826 379.22381354603294,655.4187502448822 383.6368978955448,658.9486349684543 385.74563321649276,663.2995103113221 391.80551488838654,663.6993816141136 393.52102837883643,664.8954341748656 396.3570704879957,671.8335253258552 397.5892453777126,673.1643272611623 397.7089805202128,677.8921018175386 398.4073788974868,680.3874941574634 396.86643133188323,681.5542743090957 395.9603454374967,683.192591370226 393.625889826294,683.6733371536817 392.2996335076959,687.5112240020219 389.70175293700714,689.9364399828801 388.6823065145009,691.3586344892256 386.8157057204727,692.5073734299895 383.521953126272,692.8566583822296 383.31864367011883,695.9417272452195 378.8792284451973,698.8365813727144 377.69587052805997,701.3999396921826 378.53926501233354,702.7849624693782 387.9464650092872,704.326084383309 388.34971223613434,705.2796668069805 387.4447449720114,707.3493184134124 386.3683636116821,711.1072551041889 386.48665305362243,715.5790907079064 387.4389352544259,718.9687032669812 389.375174051391,721.481749507981 388.9780220739818,725.0515821710026 390.37218561455103,727.0824324346567 390.6501575190053,729.2619974994269 389.2566457948911,730.1926563609725 384.4312131278617,732.2555053888234 380.88907876994875,736.5776135124021 378.1117214409879,738.870003540417 376.58832903048966,742.7214578032103 375.87326565979134,743.2591348060006 373.95446263240746,743.0696129154733 371.29637118621145,744.9197269522873 367.9220855200943,746.6902195080118 365.42624110452095,749.6203903195235 362.6640126233315,750.8110169887221 362.8282009656486,752.7658033408309 360.3511504644427,752.8863760917304 357.38009401587163,755.7973680560469 353.894636259568,758.1950859586711 352.02818343047034,759.9704896765481 351.6146473727638,761.9256247583896 354.48395912633885,761.9678564072997 357.0405712685321,763.3286673063022 360.0561218177736,762.7531025281626 364.0385226923923,764.1910473094453 367.0770657410563,770.3132585840574 368.7126673984018,774.6601785934142 370.128778667219,777.679879003064 373.4171419654575,780.292605554828 375.07427023996297,779.9579992510263 379.45788693560417,781.3939295139576 381.40328528525015,780.5843883107525 383.2390876470109,783.4488894661044 385.40163768889545,783.8026347801916 387.32724363370374,785.688355350595 388.816411604779,790.4990295143683 390.5133135477524,790.6685553738562 391.8125085430294,791.8675698532579 395.00443627563516,793.2148382536557 397.9873005162744,793.5638890221022 399.045159993126,795.0020535421115 400.69803919103526,795.8296590407671 400.49074975559597,797.7345384222797 401.6474808414533,800.745922117876 401.4130753878194,802.9273065736768 400.49996298431876,805.3290658602887 401.16623502530985,806.7481532770563 400.71808552554324,809.0750958498256 402.20886542839287,811.664065805604 402.3745813366706,818.5180058486999 403.7044304722646,822.9092862937022 403.34703928431554,824.6099723471422 402.0030151904989,826.7149756173571 400.90502665629333,829.8281585333466 400.8280463448079,834.2552923979947 403.2692441230942,838.8282568875231 403.9945000856094,843.5610263227239 403.76650008199385,844.8502847551275 405.2046621574503,847.964414058905 405.0186984682311,850.6735622833628 403.41914965834536,851.976630392628 402.5025045869601,853.5345699826487 402.0365221659885,858.7469864790919 403.7598003005028,860.7398567950033 403.5153114422359,862.8613065584234 401.93552235934106,866.9765642700406 401.2372777169027,869.6875633124205 400.9354538594453,873.9326873205005 401.6106910599739,875.0022060940968 404.50911695456233,874.3320433392712 406.87701622691014,874.2721312183852 407.07638081835137,877.5253426659085 410.035325211616,880.873591580058 410.8750630318969,883.3215173446395 411.9150754785853,884.584101026109 412.1328601810522,887.7875067877992 414.77842622939943,889.4666639731836 416.80467610355277,892.3034373620744 419.0953945704895,896.2915621226314 419.2430026884803,898.3515843346725 422.2406153010061,906.37619550404 422.26497045960707,907.6338045643686 423.47003237874225,910.5657322187475 423.4876082994353,912.5853004628814 422.6760236824294,915.051198388741 421.03321880706045,917.4486308183052 421.4806540591297,919.7034580011114 423.67688488909005,923.1273240167565 425.95727775658156,923.9213371596206 429.8409988635763,929.0699907360641 431.8357406897567,944.9456815960897 436.7962435599799,952.9254366245018 444.71198553983754,955.3151063588423 449.81560071739386,954.8201993339948 451.5545513426506,953.142845343454 445.4215352062641,946.2713826695345 446.6213243832523,942.8955135979684 453.9713774807787,944.1328477874106 455.7607911828494,939.0754887430985 453.1350733166122,927.1515255598013 451.72663087461723,922.7554610630768 449.39071369353616,919.8593170214253 447.6415729001518,918.9291418713623 444.75531905432075,918.0855067937522 441.5476215674154,914.1105300911861 438.1932696327985,908.3533107871515 437.54826466286886,905.5436247949963 438.2906889888804,900.0184252787204 439.38743549806077,896.6956929390084 441.6712050257204,893.9253097464485 444.27166720861266,891.2983513710642 447.3440962664888,887.6076255288247 452.5283493654251,884.7737330268183 455.9704883438899,882.5962625900058 459.33243844039794,881.4588092206305 465.33511878950685,880.4853205276004 467.8463925246085,880.9891879083813 472.6757302280776,884.820112279291 474.49586885748704,889.1497079930259 474.8900926659711,891.8374163743875 473.5013025292293,898.3748911029982 471.5397607830238,902.0616126983866 469.5471113024096,903.1320975214983 465.7865257264098,907.1672994080203 464.84201549262815,908.9321812543538 464.59775211349944,910.5624079316414 465.4312646074327,911.1759555760244 460.6803986207856,915.2985832763953 459.1733826230427,916.2833986556215 458.4624357144096,917.997491801954 461.59644655245563,922.2705403221688 463.83852817924304,924.9093916117728 466.1362247590503,929.5997619424691 472.4515132945072,931.2525074177528 481.40971484213213,930.9756868730673 492.4895507360653,925.5857130768201 495.04451881024687,920.9773719526842 495.56366136611854,914.2769135700925 494.9005875863224,910.0652039627499 492.9421155096994,902.3569132552425 495.0457078149803,897.2577938355724 501.3044836057444,895.0947177698291 509.74568355533023,898.6301751581427 519.3407447326173,907.1564231070236 528.7046502632049,913.9512875734047 536.5407228307323,915.5408061094428 544.0335069491591,909.9990059687134 551.4387570842096,905.9004969243925 556.9935862807155,906.5306428798107 563.1169433410902,915.7508477594913 575.5855819366981,933.1007470690761 585.8295099027857,940.8151173286732 599.7283250296656,944.2090906169162 607.6694322913735,948.6262506697038 613.1565792560451,957.8001107902567 619.1251559526123,970.7980431345233 632.6958142900867,977.7063092189435 640.2719923615577,987.219647354307 642.4534752684111,991.2278421621975 650.6180716083993,1012.1673220161423 659.4056115685019,1022.1189540458166 668.3962463341419,1024.0 672.410380534345,1020.6831792070695 669.3554478743569,1009.2827453881513 668.7542214980929,1004.3976257808525 670.04119000114,1002.7073716600315 681.2356724587405,999.3531256255753 693.7464626651259,994.5143851548846 693.2542208704601,989.4122106312936 679.8344976477149,982.3655340722028 678.7705868426666,978.3917350855195 684.0465708213496,967.1787993908923 694.3889315407475,957.1903486256133 700.6989313909843,951.6525683532348 714.2787063077267,951.3314141930994 717.6976026340946,949.1208861594324 718.9365134148509,943.4829777790468" /><circle cx="525.7744379372162" cy="424.02001453271987" fill="rgb(100%,100%,100%)" r="16" stroke="grey" stroke-width="8" /></svg>