<?xml version="1.0" encoding="utf-8" ?>
<svg baseProfile="full" height="1024" version="1.1" width="1024" xmlns="http://www.w3.org/2000/svg" xmlns:ev="http://www.w3.org/2001/xml-events" xmlns:xlink="http://www.w3.org/1999/xlink"><defs /><polygon fill="black" points="118.73271043753978,0.0 115.88972965336943,11.079965853209501 107.27201007236748,23.68666470103983 98.0952465008948,28.84546208521442 85.27515478694076,35.802676513822576 70.93218132919176,40.440868502148305 58.66425297796811,41.79181336296608 48.11034988822656,38.98113883680969 38.63736623786854,33.659790807552895 28.69298964942593,24.375768337180602 15.94115408298485,21.781996552103465 11.43702395855893,23.488817414815458 0.0,34.07698000376752 9.65025874454484,43.316568777013345 17.879702711796646,50.65613323830598 22.837489960732817,61.19547670121926 30.80437776275224,71.57635578923237 38.34881010177081,81.97666709950715 42.6217302837659,95.59800234858812 52.92858078447061,108.88081611814084 63.71849293215108,115.6495268892503 72.10639949453763,118.62580137776149 83.24760802547361,124.05619345354887 93.27351339618892,132.59441931422077 103.2644429202473,147.62330982196067 107.5162159842485,153.45142069730343 112.54412569322082,165.28429072214544 114.18905413388069,174.44126580395482 107.16780450959146,184.21924745335832 101.94086988139522,193.99058169833268 100.36772531778365,196.50319621610674 96.3165477641135,205.2917437204444 93.61325581190249,211.70514160751634 90.73379876565266,219.7185090292137 88.74121746101548,223.323866611325 84.27417872353263,226.19181485448053 81.70309067130131,227.08331755706376 77.73720133291225,227.46333475391532 73.87828934128382,229.23508687933293 73.04210314614136,230.21009458048047 73.40753215722077,232.7971469684892 75.5912072201955,234.50293916864916 85.9751348833674,238.46521448373744 96.77086555735505,240.47408728885182 98.53346530260433,242.83122817445576 100.12138348915134,247.9895804524108 104.80592407114993,257.8482347015671 105.49171344735714,260.4300686141206 105.36825049348357,266.034559981386 103.12660765514198,274.0623560135583 101.68734970639673,278.1718689071341 99.95777953617497,284.7883800160365 100.01644544709731,287.68579307379696 98.41045538331791,295.592004797566 96.14919235681724,301.9812595004711 95.79222821717498,306.19778692547663 97.01228703506293,308.339260004125 100.5768570069484,310.02446461919806 105.87057821195724,310.60690451045764 107.41823964821482,312.835425026017 107.34535201723567,315.65386706234324 104.67893016186291,323.25097207404633 102.01365226784472,325.65095818502846 99.19331561946032,330.11257863607966 93.03158224853486,335.60254337362596 89.25590299709893,341.1465350445063 86.77040584395684,347.43731915650073 86.18999733879703,351.5574093942239 87.44117044531892,355.6369709571919 91.295108713842,361.5097469480892 94.59442375796077,365.6922858067064 95.71673663137264,368.1445987919742 102.09314066378239,376.7958497127062 103.05113404780792,382.51302347608396 101.08372926594762,387.8245682171581 98.99422583331403,391.30135881740773 98.16954686951213,393.8998678357516 93.15024472460065,402.5110698177821 82.94219548699542,418.54567843330256 72.17405748908592,424.46031817965286 60.46486941150623,431.1884641982466 51.69860855588384,443.80745872530645 46.970268798321484,458.79334620854604 47.474993743619194,474.3685460135016 45.073836046691696,492.2670192754641 40.342891353630264,507.24879401892315 32.83346802903741,533.666564470569 31.0870772822884,548.0603398974547 34.12079465653761,555.2503395894576 41.91994273745824,569.9709113590752 51.478264591887296,578.0864972337675 62.51982579116683,589.1650652447613 77.3897612484392,599.1565886433245 87.96482827850144,602.4491975772223 105.73327316407597,610.1121312467928 109.8328540844534,613.3426273368741 101.72590601289048,637.1939844182809 94.12852640156098,647.5862475721308 83.60073256642562,659.8724224137172 73.92540327438228,671.674785565019 63.71257584197665,681.7783640976602 58.039113885676954,688.1747013868472 53.03158163046053,698.403295335226 46.99475911719845,713.4673416958842 40.44218776282581,726.8363613790168 28.701865251209515,740.0589059441229 22.222374253932365,747.7935490628015 27.40172419723141,754.8564079408063 37.818132044696576,762.4980338075381 41.05912764117041,766.2095757252218 42.0094781358334,774.8176962342343 42.52225955229525,783.4552255104784 42.81488363298357,795.5505831967276 48.41837788853654,809.9600462633313 57.8535430107634,815.9318325516258 64.54989835678143,821.0823338638265 67.27925705150037,828.8233709407773 64.94756481231782,840.6543515219798 54.24368853822783,849.4820396551904 46.743168366141305,861.6004607837995 39.919924138511256,892.2979097985935 37.03641119959262,909.3390715738215 33.60324341015941,924.259782579556 34.34595204154015,936.7817227463516 40.097433099000625,953.3331251966778 44.50912041827633,969.5486978386772 50.949513950792834,983.0344483918543 53.313777226385604,993.736080235315 57.90984595006113,1005.5852344880849 66.92960094253337,1004.6414105190868 83.56534149334226,1000.6962580640254 114.41296928377099,988.5528617424216 122.60687363452864,980.7230404567777 134.6570986711406,972.2537336514039 147.14364610593506,963.723514537817 154.5445604019193,957.2433784947016 162.28412746141768,956.355788365137 171.32227029775407,962.332945555155 173.86909799892317,976.0320005499325 175.44618536378485,988.0724327351013 180.26569424631117,1003.3747036089013 201.9213284308483,1017.2568018799315 218.53816121526546,1019.2986608952825 235.62080568741297,1021.73250675653 248.36144984428728,1024.0 265.2615154244114,1022.9619723509638 278.8773317449761,1017.7974375356663 294.2182703043123,1012.5209155513235 318.6772131994057,999.3101713481899 324.76980678418784,992.0085027357775 329.0873559159383,983.9435595696793 334.2500264553946,968.4640672427306 336.3085320894543,959.2464454020057 335.045675144676,945.4554032749709 333.45208083469004,940.3671876832317 333.7985555047308,931.6848124671285 336.35958575597374,908.9997350613563 338.7045626768941,897.1670813618146 341.22503379682377,888.3371876996255 347.7480814079646,881.0096908172588 355.94157895548506,872.2758160081675 362.0730560522068,873.1953536225723 367.4582803424568,875.898601566568 371.81818296539285,876.0589538026596 369.70960723252705,869.6978728283473 367.26878112752746,858.1473178172153 368.8500093139381,848.0793835181222 373.029630371607,837.8747799373712 385.591448326206,829.7308342131142 407.66367579909036,813.2304283075819 419.3559783553068,797.7801201723421 425.3046714096273,788.3356498431208 432.48095094995733,777.5013403380333 439.6302489112347,766.2484475015177 446.0792377626975,750.7006524119754 452.62764671055606,722.1589479294355 453.3599864816844,712.5879493389053 450.8770022728989,700.1679160006584 450.62483879395364,688.489589419004 451.628318834611,676.3054332045436 455.76088071352973,672.5935768724684 462.5209895648235,662.2363864625751 468.43917587408947,652.3564215501456 478.33300374278076,643.5453455291658 494.72580707552345,634.7764783599898 500.5501824682597,616.2404183378547 497.32952743386056,612.9738786449198 492.0951756518036,605.050812655736 490.0473047351109,592.6118070892787 494.12968987467275,581.1069897989346 502.86674519195947,574.9670698810588 515.0165519358385,567.757183902706 523.045301084883,564.2601783021375 546.305944606423,562.0633421886128 554.1793137991621,555.9686663567052 561.4963637331988,547.749263421973 566.2101669254283,539.6718219152208 570.091725716035,532.1043136172576 574.784076973212,523.5969380433432 582.9622036683622,522.6792271752823 593.5389254344775,525.5431606110071 608.1172236851265,529.8995072282244 626.9100381271484,532.6951298626329 634.5441478958281,529.6596510706223 637.5894877064807,522.5478995077287 641.6557582584762,510.6122179224029 643.3442374611008,495.3491871296345 645.167391660025,482.2391792388313 649.8766976733963,466.3749897641403 650.3946155099737,453.34346444602613 653.1533980440624,441.4802517161554 658.2374152321013,432.0754764158131 653.4469171955403,431.93477024889023 644.118545867437,428.14927332007767 629.8233215076314,428.56498579991626 617.6349795738198,427.97240443118767 605.3202570128453,417.853083815427 602.0721456375805,406.78696489621154 599.9598083559594,400.40807940657305 594.101054041454,396.8518312176417 583.1972796268344,395.7487306117604 572.3558717062137,395.50740876304155 557.6967765165086,396.78511092802205 549.4338220970136,396.38887269861607 540.2249045840376,401.69266278446264 529.3585884880255,408.38142719981977 515.2048269097126,410.93516123405175 501.7846962234643,411.2803457129494 491.1790365581607,400.6388056582166 478.4745490686168,384.0383966244002 469.3969490088074,369.86286385760445 468.822869696757,360.3589659854607 472.633775061044,351.4713217710731 479.3327105837598,340.2439139431617 484.43654880712205,323.91239267574156 484.3217826176738,318.7489008584348 486.1243800992089,314.8206703204647 491.1581797360302,294.12597050436443 502.79552009149853,266.8660597566293 508.55258249966244,259.17577519055067 507.8779979557816,255.8880430080702 502.0059560583834,251.92133921413654 496.245017734433,250.78129125477733 490.03249013529046,243.18248580822024 485.9290877769499,233.8050574606258 486.7749375586468,230.6547092071919 486.9726896088296,223.41828099195357 485.9902266952943,220.73409891743893 481.44641207514115,214.90857585722017 478.7344374370035,211.95873426154458 472.1068949066466,203.2637355938624 463.3670423100131,193.39132803333996 460.69179205235434,182.18562517284374 460.5628741419427,166.20444010929907 457.81509711060914,148.94418945910843 451.19603068605244,133.8755487362123 439.27317804939696,137.4531126270242 431.56085125189543,135.59801727542447 426.2847621936356,125.84845554955291 419.58493910341946,125.6432212175024 417.16415511696573,124.54278828136171 414.3947302433136,120.77442036011587 411.7735173676868,107.37365163490881 408.53427478670716,103.14606059299967 401.77882059488655,96.24786003292388 392.5828493739051,93.5898989660102 373.00776090912115,70.95248517389541 353.7124599580658,78.8501092701814 354.0991490016877,82.26990092894505 358.5069529779951,83.89020971017283 365.5738584669254,92.01056336009356 356.0034442519302,106.19259280701658 349.7283592579696,102.3952328653063 348.3118509936991,89.37379253681672 344.1870133301364,80.60619649245962 340.56245669787546,79.42226083591652 332.4397471556492,79.94562265106686 327.3420385747508,77.12977724795769 323.60233918021817,75.67023819667384 317.87201772931445,75.68089299620647 315.9266234370762,77.57656493388151 305.9068792476267,83.01252181536972 300.46250268379424,83.02499632260424 288.1591120254643,80.67327534479625 286.0657970264899,77.40381127487672 286.68931971304403,72.87062716831406 286.51564292145184,68.11559318115678 278.9178294900329,65.87533790585792 267.92292157690406,63.79343593769761 263.7317073800675,64.09216354891021 259.8200581595888,69.1930011908936 253.073760457552,74.01432922754384 243.7874665207148,76.85531897907902 233.0279692596122,76.42436876616739 231.4963846054388,74.32324594058741 230.47419704618136,69.68452335484608 231.8322197658517,62.050132931450094 231.94693273707895,58.4782793004664 227.75851399505362,53.50688255719194 216.31971918324172,47.000744422566186 214.4587264580828,42.75519125552 214.00409121215196,28.954803699671288 211.00193437314886,27.195204414042905 205.7400032039818,27.02951074901216 196.35376991753722,27.657173392072423 181.65083493445508,27.64899775632057 177.89189939143668,25.67507407429366 171.661303078413,20.49106744207404 166.70745970132657,13.886339192878268 163.4227256214519,11.455362256333615 157.55250661794184,8.32034129263161 150.62477209928767,6.922396807105088 146.7718117241237,8.273918920448978 142.50699437722358,11.453786617370838 139.83031130801623,11.925846918647494 137.22898185810334,11.549899468522199 130.26526832662904,7.113562675808225 124.17738217066835,3.746946013180718 118.73271043753978,0.0" /><circle cx="354.07488478828043" cy="402.5050775138143" fill="rgb(100%,100%,100%)" r="16" stroke="grey" stroke-width="8" /></svg>