<?xml version="1.0" encoding="utf-8" ?>
<svg baseProfile="full" height="1024" version="1.1" width="1024" xmlns="http://www.w3.org/2000/svg" xmlns:ev="http://www.w3.org/2001/xml-events" xmlns:xlink="http://www.w3.org/1999/xlink"><defs /><polygon fill="black" points="24.099901422818736,709.4037137295819 27.78197369473771,712.595689770617 39.740259535654005,737.0189793312956 50.70685990355502,760.107182217307 63.416926674958624,772.8061069955081 85.66779076347642,780.8511493061496 120.77253056191684,786.0178526608614 220.3935488665103,781.5051817268959 244.33464662252882,783.0757705803968 259.58439577493937,789.7347788829962 312.48659107805497,841.4426460017917 350.9459183062866,868.703391567838 370.7439626500171,877.3453363992558 405.66884788630637,880.9213941102615 445.0480204976476,877.5875500085396 483.03075975173584,867.0665521875894 525.8611286627453,847.2374810636528 549.4647604989271,827.2611435249156 582.2268380863992,800.6048517327507 608.0469857194475,788.8602349660348 619.900046444707,783.7281111961397 642.3642198415752,776.4920045775494 672.7148568034578,770.1653464763638 697.2098566073067,770.3000407719211 731.6180745984334,779.1487585785403 783.8638439961567,786.7831118308331 848.289144888261,779.7626293529897 907.7147021962516,764.5008203780807 955.9895715983894,741.400380681944 985.1932493972861,712.1148500210159 1024.0,550.3259823838388 997.8936947337551,545.7266283403649 986.1606486142448,544.5350937364948 981.6998427527606,542.278202110017 974.4369220184778,540.5612389063137 965.4799712370201,542.1670458341262 957.6474015287013,543.2281183207695 951.4816079584841,545.4086657843422 944.7719366627113,544.2508997683358 939.773407120868,539.2112201199893 935.3225666870331,536.9540349919619 929.6687409822879,544.7022294390076 924.6279082128247,545.778795620409 917.9583397173815,540.7273305991343 910.1242559770874,540.1171066803013 897.2507172153826,542.2503833390683 885.5054726375137,543.283190035219 877.61683942458,550.4459002451216 871.4349862089524,554.8519618388966 864.719411342104,555.9196810117572 851.8688528953716,554.7142297190619 845.7305874250239,552.4546815208223 842.9661965957428,548.5448443240482 840.2006344563638,542.9643024064122 836.3314776358429,536.8167592928062 832.4150442806433,537.3481697554296 826.2652559938093,536.7453655618997 814.5001103181298,540.5554281584464 810.6001922212666,538.3046112276814 809.5184845746758,533.291658541953 806.1875389064834,529.3844042430012 799.4822111196397,527.6658314654467 790.5367317521643,527.6018319301227 784.3982605579266,525.8905539027216 780.5145257556095,521.4131846916032 776.0723046687539,518.0467046246752 774.3641539021979,521.3689964445975 769.8706849560056,524.6746547565463 767.6567260678598,521.3207335623292 763.1847676001584,520.7327512638526 759.2610956362429,521.8159797955727 751.3880360921864,528.4351026447478 746.896764229827,530.059687218821 741.3420158264078,525.5801807684512 736.9023049310034,520.5427105792421 730.7687870741847,517.7261887109337 721.2760775812953,515.4238724135159 711.7728566827637,515.9103830525314 701.6986957364765,516.9517453419514 696.1102732707477,515.7959106797547 691.6636430812875,511.3171949153829 687.2463971829421,504.6189928832354 680.5538509976476,501.2318230390332 678.9366352552357,493.4459893112035 678.9897890229314,486.2179731264785 681.8378367348986,479.00709589659454 686.3828769266764,469.59582665269915 688.6696629033219,462.93998148305565 682.5402587440965,460.11610785425216 676.4027261556689,458.4036462502856 675.3763243697102,445.6167896730134 670.8935275624801,446.13952525029583 664.2106701290517,443.30795150057526 663.1805513857757,431.06656094116823 666.0334371966634,422.7578842574908 669.9895133850972,417.2259645004568 670.042845693859,409.99792539289746 672.3213717029341,404.4638439334154 677.42308621185,395.04993945156644 677.4681577676224,388.93338251978247 676.4091751700855,380.5958312388835 674.2388089081883,372.80584779766696 673.1635901220046,366.68101870338774 673.2046010710083,361.1236048603372 677.7097931165438,356.15148283995813 683.8748910658343,353.9738211021752 688.9065375270399,354.0108466594312 693.97487412521,349.0529847145732 703.0293799412667,335.22859485793333 709.7876571648765,328.0531087052924 712.6070373767352,324.17995022092396 713.2102278209392,319.189257119466 702.6534797382279,309.663813577571 702.7105157839143,301.8902628948438 702.2107902739366,294.102395432123 701.1534408612491,284.6465271605391 701.7412936588412,281.31280708479767 700.1124438731488,275.18736214255046 695.0839637146895,273.4830897109364 696.244986256245,267.933910119341 700.1941184916942,264.06912419768946 706.9393873151284,258.57115892385195 715.3599281019808,254.1832975659288 719.8485286296461,250.8815254943355 719.876986838604,246.99134084906234 718.227739599289,243.64464982110337 714.3456465367328,239.7258284106473 709.8888471333934,236.9211246963181 703.7675141608959,234.64629470094997 704.3373700442648,232.42739260322764 708.2845406329823,227.46124142661256 708.3130861762853,223.5710495417734 705.0002139827137,217.98901093334314 700.5657263112881,213.50683767791816 695.5336916288051,212.3582734308219 692.2192536323197,207.89791138454473 693.9419136521993,201.24132408894297 693.9787027469439,196.24645651530466 691.8115552273047,186.78234276240198 698.5700215871248,180.71861419772586 696.3578594472353,177.3676891969676 695.8281213824275,172.3720564660191 698.10574604127,166.82768523985987 702.0436215140237,163.52202568084988 707.1111472096394,158.0117821388012 709.942901454757,154.13194595414518 710.5615806106247,145.25435342399726 706.6883276710827,140.23416546291025 702.2152040341908,140.20126543445474 696.0737358578509,139.0342626404646 692.7925417770886,130.12791340316255 686.0838095451041,129.52261685100325 682.7527402413589,127.83067414449943 685.6451403761309,125.00157367947145 691.1955731406852,118.44486544795598 699.0404258846663,116.83538737136598 701.8711646388577,111.30872368909513 703.5869255426459,106.87516243977018 724.8777493049579,112.26189362352943 742.2340724012522,107.66981610972141 748.7916918340222,89.66017522227776 714.3503453883945,86.40090157331701 719.3878579533266,85.32633447966862 725.5532926432342,83.1484447119974 731.7397446825756,77.64624126933313 737.3548901757191,73.24112152011355 735.1771181796054,66.55593280078347 727.3859064414762,60.95140682088095 721.8441462340478,55.356453988004546 718.5289677654876,49.77438397579397 718.5697756968393,44.216943138869055 716.689208847822,34.78565432183632 715.6965628762586,36.0910787028796 708.4611877818396,37.30625500827216 696.8322244531706,32.22196486496671 691.5086411822762,35.940100713996344 688.4940989032863,35.53593221296421 680.7614686977395,33.5590504749116 675.4413439870189,28.456241791280945 672.440254602935,27.56109376867687 663.1424165766325,30.349313055403286 657.5783695759665,30.485200805942895 653.1750129682442,29.497675191597068 643.6666613932603,26.023835168507162 639.2291223037126,18.298391204890777 633.3017049162776,10.899303370680059 630.19355788743,6.501365921880733 627.3886985737132,4.202649642029542 626.6813480413751,0.0 623.581066801608,1.5042731136169323 621.1670259565694,3.5149138322092313 621.225803869268,6.52271376850365 619.0073858718848,9.353146014466347 609.8654855726569,16.06627163279336 608.960879409708,17.75408315892389 597.6272101772341,18.108461453007408 591.7079203916544,15.295045535040003 590.1779869692674,15.300523433250532 583.7517974213495,26.128880354306943 573.9318667528092,30.302939264647648 568.8538776220367,31.147495391232155 566.4909514276028,30.24641803976249 564.2298823324035,27.93788866817067 562.7647645551923,27.548262890627598 556.0556141540562,30.14312517296935 554.8751610179331,31.269568975198126 553.8069036781521,35.61224130481867 548.1144737480583,39.3263447906387 544.4966539838782,37.358583392834134 542.0794883423317,36.74000141147678 529.8953627804979,37.986783353616715 517.6747088590032,46.09685423438225 515.3070499111221,46.658315975831556 507.35781837602246,46.208447409861606 503.63501439423675,44.35555239701614 498.68729137922026,37.985488096695576 493.838009183927,39.956397486430774 487.474977261688,40.244781682746975 484.5354249754259,36.46448204884325 476.65231215044514,27.503927575500825 468.40416661301833,19.051876125690683 465.6068692999116,17.519606673459407 463.0777018841729,17.92615934231003 451.0900328149895,23.210005742918497 444.89936624185884,24.78475070625302 441.7992499143434,26.18241325580243 439.1559742213974,28.268998622174763 435.6129857768658,33.84356281876023 432.19990346580795,37.36984683893286 429.1958195711611,42.28710038181214 425.75332608625166,40.00284664298829 398.9195830612605,26.408420735399204 397.9613572340043,22.01926854388921 396.72719645848946,20.836559626171606 385.81652424519564,19.911552562922793 384.81221850475873,16.83478120183031 382.8083247404968,15.847128463792615 376.5820018892033,16.9707895436095 372.9883362716716,18.602876524964472 370.678066352943,18.485664061066814 366.01246381700753,15.318411529063383 363.93640970271946,16.041847204921964 357.12794867907076,20.36250161439409 351.376755525245,18.21966521592924 345.76384287065633,17.925998283873355 341.439784051198,18.4745682453962 335.1129272813204,20.347161153281263 331.9361433293193,22.34037445158799 329.4111375654547,22.61341413698426 315.6213018026393,18.223524417878593 306.64665379231707,13.76634452179644 303.9681289555058,6.0180802073005 300.34370914082825,12.65855615067187 295.2154251354433,23.723105440847576 289.6240145130913,24.789611796136228 286.79079362303537,29.76558049660639 286.1790767403473,36.986116799426554 283.9203429350624,39.74690172155499 283.88450610828215,44.18282994898311 279.3996409285024,45.25819440678538 279.8359928434033,48.46357508949541 276.87963454095234,52.541721371650965 266.77460464215926,56.97454673221762 257.82662954471294,58.01356506266313 248.29586361833503,62.65534822973029 242.91206102758613,70.9486498676506 240.46805694314338,62.046029192606056 238.5589973229493,57.01795692457665 238.32984220673083,51.185206655848106 220.19056498932446,47.98516641290439 201.5107966301439,42.83306438185241 196.42209168864753,50.01337734261688 193.8953162689995,51.66002584668934 193.01336295581126,56.37206036628095 191.02226233939533,61.357984488170246 187.92775883198405,63.54552114050591 173.75356665084956,54.81857904295214 166.51605461326207,49.76662556556744 156.47492099218303,49.12762208492063 150.279665450797,54.62414203597166 148.55430762627128,61.279607624647156 141.82332186034864,63.44693519191446 126.73477481331395,63.32126593710552 116.13578305291807,60.45366572484306 112.82183822383797,56.53521955614883 95.51892105060794,54.16692777133403 100.45190645318013,65.32472109258072 109.8646559859046,76.50972823285554 115.96626415922944,80.73450864256858 123.18614029988419,86.34275012085698 128.48147882137238,88.88979446561609 132.88327989032297,96.70108167310354 134.52191569132444,100.88505222665015 131.44502520825685,101.68804536218352 128.39119745375172,99.72236030439296 128.40978105242786,97.49242729006096 121.71540722624697,95.21332919966778 116.9822749594373,94.3451978991294 114.1885560609276,93.21021723170065 110.8205329497325,94.56648738491526 105.55021957523508,91.75351827657278 89.63127636970175,88.84090882739167 85.17029479652989,88.52721167888001 82.62437144257011,92.38972523157122 81.403981390132,104.32448931578574 75.81594915385088,104.83327586001644 64.586605442235,109.45797113380752 61.20188435041223,112.76432736803952 59.543458314437906,111.3624686405235 55.992774295218105,102.71550534928906 53.19671253078465,101.86323729593767 48.422347568412505,104.32573531812113 43.38777299193554,104.83208481720897 37.229331511770326,106.174526428587 35.530032608593245,109.21202112140679 32.45286393674957,110.02133247247548 25.472407296474458,108.8537580222561 22.339145410793137,115.48677085130475 20.3227489951647,123.25116090941947 20.82900450649924,128.80349162101413 24.63751196131919,140.7912389307595 26.860177703600854,142.46737701589893 28.21915230448466,146.92551878555298 31.568816147019206,147.79281864269387 32.08937254260089,151.67777468556505 31.18801623928976,158.89583159549716 29.49598173366098,162.20958809230365 24.448658418981438,163.0055580803421 6.746848727281148,174.2168566250507 0.0,179.16171278421996 3.8378953180727398,188.08767924201254 10.399360568222608,204.52851365148456 12.207743715945949,205.5498539233413 13.559584145254021,203.58699272950582 15.40436049811679,204.15851757830046 16.22844246404484,201.4546079488316 18.693986431266655,203.69887601345624 24.31626187921701,203.87964826076177 22.480950354969497,206.02597087423578 23.456985992471257,209.5806217343909 19.852786854365043,211.03332675990873 18.568472691760043,214.63014726505514 16.55022486299536,217.6035209226569 19.557938463655947,220.4354924986817 17.57673401294329,224.02979812751164 17.561281640850193,225.8471759088485 21.450970977535665,228.36609494512754 23.10927741830792,230.19768825244319 27.36034786072179,231.19879243514242 33.45549778124258,230.561668951775 33.612154669687285,228.98418861097116 35.395655425787986,229.11182937311355 38.30711245392189,234.4832892524238 39.98435846981052,234.08488300045065 40.07359038893834,240.47247162312567 45.80501950460602,240.10834200875297 47.3230056386377,242.75705826652518 50.647091490994654,245.56423998625712 53.021223034928234,245.17167906696807 52.85145201208387,249.46677191385788 53.68548214633982,250.58545070035518 52.26581860685144,252.10112345349194 52.220091782275624,257.51913302908736 56.26500042348177,258.6648958057317 57.5452512582615,264.02929148856776 61.46137773945764,264.618109006631 61.51934735497824,274.74951221928075 55.21957360315824,274.50206025577245 52.989249641002914,274.8208340117235 53.65103710420812,278.9899498414776 56.59888942240029,281.2551321576682 62.84091278364447,283.72876290104 65.13719719431363,284.08908110647803 64.7986688139914,282.90639648255296 65.50825255403774,274.43868734573175 65.26600203378457,264.13865255351254 68.17761039964132,263.35158718278046 68.55943718340299,259.38563826266386 68.10608029094782,255.98212199889133 68.42673663036268,250.77103241313432 71.77254623702916,251.01058732547017 70.4635900142834,249.0490997777539 66.41879483132968,240.54479195220097 65.73785933954137,237.48716710586848 72.87836609665649,236.84820776938716 73.98474004934381,238.1123635604015 73.60538628546585,241.78849101242338 75.57722166178459,248.96250557370854 89.05234520815631,249.83256396815852 92.55702217225807,249.3777086065137 95.21608006098454,248.0121284524895 93.30933880520486,250.151239207363 98.96676726682215,251.23859696763418 99.86620232179249,251.9451500597869 105.24005248266178,252.67544366058326 106.51232789789884,250.46280266011127 106.90132613450493,245.60692209622812 109.39277676471345,240.90498733941024 110.71870310718172,240.84444314642496 110.06873773795594,235.21948162435137 108.78289945603869,230.47919729789533 106.24986418771164,223.7882483147273 106.55598962828299,220.66732095863597 103.3273176320552,213.83755302188945 105.1529907036517,212.80937678831594 105.96617975580386,207.46259880013054 111.31583256227236,211.043359972159 116.34999979577731,210.67957646677246 117.99252643308293,207.00715331736046 120.10932673962292,204.25253576364503 122.66656670914125,197.87684398054728 123.11064640847769,195.38448691760425 122.28751382726225,194.12619260777285 129.03332507795093,189.18683155586882 130.74443453046223,185.86617355968997 131.99916663688828,185.73680195793816 134.07431245942058,187.97731359186412 137.2442087550025,193.2787759647889 144.2965257604012,203.19192165179834 142.13214905149863,210.12676069635802 142.11141874429714,212.62604647164858 139.52276429752075,221.63058032493643 136.85122852070106,224.527284143663 135.55205144947791,228.82320496477757 136.2119801791254,233.2751964036604 141.61462350225952,239.154358066996 143.54728688946514,242.50525916200786 144.38780150263383,241.68020961327431 152.9257084780261,239.80384747904236 155.27968566290548,243.01497417749556 159.3361241933207,242.76888724992637 160.5880894815026,244.17046314411675 163.79291598061502,245.30854547358206 164.17744653372037,249.61840600431447 162.3196670781513,253.35394892520117 162.00732660635987,257.6580579167037 157.85132308446296,252.20542427320265 155.90233573535727,253.57373361254452 157.94735304216985,258.3201486336218 158.34563070479837,260.9626922916477 156.5113301902561,263.0309800766754 158.73357815207402,264.8565786057875 161.1289588027786,263.0691171425125 164.47890982661062,262.8137414820053 166.88547659654367,260.061353905547 169.11805471037076,260.6355701409816 168.11075655988435,263.126711642313 171.03092508775276,265.230804273657 175.52969840260826,263.88343762003615 190.17258715764822,260.9860413527591 191.08110494685442,264.1714973493389 187.80043245359104,264.71743077379745 186.7636835611304,270.01127200872145 182.61900973778046,273.0495235113858 177.403116098144,274.4694764392568 168.29709000051366,274.10465956135624 167.9871284373986,278.1257655638084 166.4318701210651,279.9235934703797 164.0657300956218,279.34486187862706 163.081762474225,280.5813530212515 163.4800024240705,283.23411753278094 162.19128551848198,286.2753323440411 160.50480527658655,287.7890445697907 161.31555918275896,290.5747901032081 165.90473180902865,294.0907159831902 169.27372190866336,292.73065504968656 174.39873139204028,297.62851315902526 177.33878054299802,299.7156706080068 167.63510160726543,307.41032570787286 167.84318129091858,310.61732549158955 160.8527797519293,315.483572374872 162.22933445830694,317.99095717836906 167.537131475214,322.86308512865673 164.88179022251518,324.94851485444826 158.47225451918314,320.18320922658154 155.444038279093,320.0900164738234 151.77792634837087,322.69898626716474 144.80518341356455,322.64133355294393 127.6473778274843,333.61878897737506 125.81278979368425,335.68359283423695 125.61407762867759,342.35510817688316 128.5119877268677,348.35329766441794 129.58515917584396,354.0533120058177 128.0736397021061,359.1794794280097 132.4996367790678,360.4232870439621 153.71225598452224,360.6089801124052 153.79978183215957,358.68653040217225 156.5490648112786,357.87038630588756 159.44523975745446,354.24911213616747 159.29018471594756,352.907751755968 173.294413973133,353.09125603334394 175.57955758928077,352.46557448869294 175.72028285785552,354.3660284441704 178.7064932295872,356.8183866893904 179.40155776438132,361.02505101340057 185.7500399993423,362.18875716365005 201.13642697639742,365.44496966741053 198.64527109899612,380.11085619999403 196.5537057906443,382.14989662644535 198.5576457261972,384.4542959971814 198.76863221028682,387.33393858647787 201.04051852101082,389.53822154892976 203.10931320646446,390.2882385957195 207.4106222775042,389.29016510125655 209.0324911112838,392.1199323853193 210.10550681540192,397.54693309985817 203.86897447606694,399.3782871649822 201.467974096386,397.8208370667449 200.8988773815704,394.5154504778512 198.7935338998552,391.8590194730636 192.7748062292841,400.9107026723518 189.2456156786219,406.654704183827 186.13242004996295,410.5198554913766 186.59174025535387,416.08509670069503 184.6234905806512,416.96917482206686 182.98040013173278,420.70655441789637 181.7587032945317,425.4908022336355 179.15989141007128,426.9937003708621 179.13584244326876,429.92598273776235 174.2425925858976,430.3700322070795 168.64448598819592,427.79051896010674 166.73833742890147,428.6409548660057 162.1909514816644,418.32961325869604 159.04322786969757,422.79790418951956 165.35979812329802,430.29704326656633 163.33944119612875,438.6925654515016 165.2009076051049,449.6194440150035 174.18093294995666,462.88936482910344 185.79262826100324,471.11361349494587 193.64751298281638,476.25170233158565 202.73633158821158,483.89915357393795 205.52412828947448,496.0063544107193 204.6171255154052,511.3602915184124 207.3296979469459,531.5345182668655 209.64364410251503,547.470450859473 208.8136534242011,563.7899754208311 203.00482592231037,574.5109597087524 199.9975464146009,584.4909222259764 206.79419285820535,590.9464890687484 218.0369096294077,590.4035843200465 226.17447089302934,589.0374282742266 228.47970388039732,591.2622491618245 230.14373446430108,590.9858840622487 229.9747319255426,592.9451616750955 226.8617004269998,594.3043460773188 224.36080455069134,598.5327242551136 220.57073125508566,599.7977382695785 214.48351574706518,600.6485462349406 212.51126955609465,601.9589543498139 210.2323476460412,606.5232489232885 210.4224840607906,609.992586261123 209.4131904104292,612.6951978919839 204.85125013867236,615.096142343019 198.78699859455722,613.1031929585849 194.15928542438152,605.976450355455 190.3203368477221,596.8408836209528 186.33186239312434,588.4746822539662 173.180634281149,588.5001168476848 156.94064001242307,590.873150124098 151.33563230935428,592.910496110942 150.59725097583964,597.9032709588901 145.4641710301702,608.7043733570029 135.94626528743973,626.838005468164 95.76032554421859,649.5799274241538 93.52397691635028,649.2851393766521 50.448859912466595,683.1165086725607 24.099901422818736,709.4037137295819" /><circle cx="211.9075924664308" cy="521.8878354486659" fill="rgb(100%,100%,100%)" r="16" stroke="grey" stroke-width="8" /></svg>