<?xml version="1.0" encoding="utf-8" ?>
<svg baseProfile="full" height="1024" version="1.1" width="1024" xmlns="http://www.w3.org/2000/svg" xmlns:ev="http://www.w3.org/2001/xml-events" xmlns:xlink="http://www.w3.org/1999/xlink"><defs /><polygon fill="black" points="264.7701405302952,101.8124579369968 263.4252122431717,103.6528471210072 258.1401601593981,104.66339474520828 259.75795488664437,118.69226497650152 261.37462187859285,121.09086274054653 267.0106030637775,122.90133958282854 267.012519643871,123.83990419440272 262.56750968141614,130.41169698753527 259.07710275052574,131.08599322375767 254.203816062674,133.5482752051173 249.1224278568568,143.44594294846036 243.66570209092282,145.48600319787488 243.92185785264238,152.2388872463763 237.77488393348423,158.7292955086267 233.43626600656478,161.5420114622425 229.4189427556955,162.815784024584 224.90535405821097,162.2058421589727 220.72180204071282,162.6299567847874 219.27827879308063,163.90759788362277 218.0008225512742,168.60874857030944 216.0337754141509,170.05768270986687 210.57973790082542,171.41340853464328 209.3613893777086,175.33927066093008 211.06600787417938,188.660710449544 210.1269958901761,192.95586380017096 210.72666481474357,195.60533180228208 214.2231272511934,200.5728011857193 210.38168615892423,200.90628201865604 208.8434867731628,203.64540363391438 206.88910714073052,202.95943047983974 206.2018428847043,206.80648971279527 200.11176219591155,206.06348896374118 194.82477162650892,207.86008067831938 189.02839473711094,206.39256544611578 184.71645587820572,203.2998606544718 182.28523714550224,202.72262903008107 174.7172492947732,204.92233576044111 171.45858886499502,208.0984814255322 171.11860587646302,211.09114343521082 172.1423167406341,219.46622737155087 174.3533324714492,223.91551546169217 177.3466895653095,226.90876189300343 176.63162656291343,230.03079357319154 163.56502526587337,236.20084192621107 160.8274639293261,238.33987046247194 154.59349473361934,246.19945936532122 154.16228445649804,250.0491388970379 151.2636134379349,250.39880735117163 148.7860966126096,253.22360233296206 146.2258646540114,247.23776609205595 137.21926098642834,247.08538745462045 134.10954701277922,248.63887050153403 128.8438796136131,252.6721482068424 125.21610735821243,253.5053065009306 122.00767498465386,251.12325809550418 119.93450390242702,246.05913246400326 117.25333266147373,247.81975817542536 116.41989939456579,257.7488494374521 115.0753473088729,259.1914467607962 106.99892923022027,263.1330365717878 106.37920287704449,273.8414605378564 104.48875001580735,286.3627679122835 104.2481902304554,293.0166516231857 106.54940190399294,296.77409254093493 111.5227578193124,300.2643200572668 118.10231989695083,303.06946453719684 118.75754669679945,310.0680967271927 116.70499531441507,312.20173886168607 116.6242546651804,314.94175847938436 114.30892862202437,315.3247458025801 112.33768125433969,310.167642987215 108.49759437184822,307.5232613648227 102.67325784572738,308.3939580361796 98.38768019439456,308.11807408553136 94.87735967424902,309.8321054910557 91.21017181713769,313.804699524257 89.32601025041866,319.620613302715 89.92954144185616,322.69253824783925 95.65791271844009,328.9095023355295 96.09124121940825,331.81722886660646 94.63501145239957,335.57062773428106 90.52461848873683,339.17256459760665 84.86510820908394,337.64991191552997 83.24746430529565,335.42965030455764 81.53331190454281,330.48774730438026 80.1603141203547,330.15094177389517 78.27416353105038,334.0745344232248 73.47984451071437,331.5357343110843 69.4528742731939,332.2329390801043 68.43011468943207,331.03969806934106 61.14944332991992,328.9415658041835 57.29362246529135,328.52538181721684 56.43771962775863,324.9394099566259 39.38287475166033,325.42882237574634 28.06464363277686,323.41249727697164 23.858649289132497,329.05663817837205 22.923516765740004,331.9648351298549 20.010109498735204,331.89219384822866 18.46172594324162,328.9954663125741 15.916531849335025,332.0244696977387 19.182189735445917,333.961988799701 15.88747698923297,335.8907388064978 18.34104672423786,338.91564897222247 22.154505874020813,337.70621810149123 24.48254260880336,340.7924954848089 27.08547514422678,341.5990351553306 29.333458338622034,345.0013446127283 29.10606615903855,348.2731507150562 31.843278166277454,348.8759986747044 35.9880819022032,347.2802632020379 36.15234718199309,350.41162847451017 38.26560171322,354.15030586757496 42.94593315571271,357.1922590001233 41.53606421149671,359.8508815563888 45.02110683190833,365.1761152631416 48.81639014603779,364.35419817948446 50.74557306932032,367.5700191699449 47.65802357878861,368.90804683191607 50.57443832384695,370.698910938724 50.33526286673007,375.6593829137654 53.3300982822004,376.52951336340436 56.09559690437228,370.09506295395556 57.673398499860966,374.4849273906723 56.33407855124167,377.0124250348799 59.31299577731789,380.1027573054247 58.74574067137878,383.8841801654546 60.54714810491816,386.638881664285 58.34015253081038,391.3806031988654 62.64100975255667,392.076133313754 64.19266332533846,393.7135676073236 62.70986349688138,397.7450461177201 64.73554993457473,398.6195220533758 64.62265856583107,402.33254179100686 62.76241953229127,404.6621835126465 58.41954780627735,407.5576795647439 56.990248332709264,411.72241487328665 54.07801886584217,413.5947331026408 52.54614158432228,416.77619214135154 49.04532943895243,418.7666776519345 44.9562899391852,424.4469846464134 40.436477003062976,423.6152755450404 36.953889191509745,425.22763649430715 29.223236087189452,433.8189974043721 26.42304893100619,435.09748338935754 17.518894213582396,436.2391142836743 14.581104033436992,438.1509272350062 9.99799647940851,442.6106024985943 2.8546028634311877,447.5813272462848 0.0,450.82507081441395 6.475007955027978,455.746147378935 10.214078571039959,456.45050330953734 13.284299327052112,458.84774116204414 19.313261969393864,467.0521790111844 22.465366614319926,470.10519441646534 27.71577584952772,472.75523031778823 34.32300825468353,473.70434054725126 40.5396981694612,473.6169400998068 46.417428784351344,476.10671313182195 54.897105518548074,482.1357637128783 57.76064699872801,489.4359908048216 62.05783438813837,487.8185016381244 71.39274971446504,490.19894334703986 74.60891025610498,489.9246235827121 83.4393990296244,485.09277796094125 86.92744227516127,485.08593561742646 91.20732202564778,488.0134449627658 91.74209212048507,490.9553386349146 90.13869038282618,495.5005834249837 90.1425084608193,498.4387906386196 92.28274448041552,502.1708657610674 115.02325457512504,511.4902126525359 117.16606148068752,514.9664532555457 119.57064989766177,516.8250853884467 123.58665229359511,516.2891878993498 129.19449475174775,513.8901885855985 133.73785538068503,513.8892125266507 135.8735201796814,516.2890217172301 139.61072107799478,523.5030201018972 149.76208563766184,527.2451489699231 162.57204050683575,529.9298984427891 172.77129297982154,529.9442850302989 176.58348109050308,528.329526673255 178.89817324863276,524.5553831231512 183.04392561798358,520.8019835763489 185.62285868571348,511.14163884907055 194.05310183211571,507.53959246583145 212.4695951314897,498.5705108663484 219.92095440155865,498.7694289026549 225.25126612709053,503.0606935113341 227.91325933528816,507.86864086144556 228.18401722652158,516.1539600178894 224.716590989341,521.7550586802054 224.45859221208818,525.7676412190431 226.85295415718377,528.177983312331 224.71870941529264,534.5764728611987 225.7097491774614,542.764380532388 222.62298639457038,551.3705029679061 220.13885083904964,555.9337123147222 218.48108908229082,563.6052130412478 218.26968753722932,567.547550088465 221.5226955288424,571.7060818344452 222.0525029873955,575.9811192481045 214.85118791136938,586.9189964758796 214.53047921141615,589.3962558821781 217.97176360927782,592.2961586033939 221.2106547557317,593.6367361992795 223.11852446835368,597.9003784791943 225.29088058705605,599.7372346048908 228.65404151745597,598.6604456713733 233.26283996328922,599.9684393379205 235.84558628330194,598.5701712021005 241.68202009757533,597.4672102143984 244.38110131481906,594.9009650631313 244.98408218769455,600.1402411321942 236.68796153601056,606.9662268369916 233.78305697073176,608.619194699638 232.13291761486437,615.0448984243968 229.63844484686032,617.3243500109294 228.8205523993286,620.6400905099638 226.3247043247573,623.1252117480988 223.21959036391755,624.1526529035971 224.0504985446122,626.4426355203523 221.35571013974072,629.5413694247256 216.79655187524395,631.399058009694 213.4845941105927,643.2167377537985 209.9605091710831,646.116077687175 205.81492200029558,648.1816807257945 198.97344288376502,649.4099980685979 188.9826505008036,659.8036101195098 185.78128707516828,660.8701297948754 180.71089615111293,660.5922252601961 173.51168984583538,658.7114616736546 170.30628783372188,659.234385308541 167.3788872648318,661.6452874793978 167.64063353165992,667.2537764390663 172.71358826748096,670.9972550183593 174.5780169086159,673.4073323416978 173.77979093126268,679.5430792353741 165.7725409417351,680.3429504280748 159.89887400231774,683.001902023881 157.24067509945766,685.9367660942047 158.3070437619097,689.4087289590318 167.1121207991903,697.4412056348758 170.84675857372707,698.7778951983081 177.24929569382576,699.3199126333725 177.25400435866823,702.262608965434 170.04883533527237,707.323461626277 168.17661911181494,711.0644750940505 168.17267162597494,716.6735514127886 173.5099552092944,720.952572900075 174.57726153135354,724.3839305628046 172.454755444974,728.1442233998889 172.86954066317884,730.638740754149 178.88300312464258,733.54755717436 181.99433357966413,733.1370694489088 185.92943341117066,730.238594549008 190.90426020430326,728.7923487604123 199.8125101841739,724.4586422015453 202.91994410087972,723.4316520798093 205.41349684011732,724.2674604509496 206.44646151643784,729.6574049251549 205.62285081252554,732.3488500003382 208.09902231637238,742.5174734835757 217.42736436008167,734.8715895611241 220.3288724815712,733.001576128053 221.77670721868412,730.518359073214 224.0606650022348,732.3881661172701 229.65571841148522,731.9914253618167 229.443722462389,728.0512677287211 232.34613970933475,725.9764531885627 232.35353576996306,722.0399050377619 235.03989137025115,720.7936162550568 237.110515252396,722.8769385667911 245.41083391355667,719.1621807971118 253.70363141008252,716.6778169738167 262.61985943896354,717.3136587767858 273.9502779938179,719.0697451100941 281.63424157276114,724.4650293450816 282.25453285964966,726.960311627473 287.23594665148266,729.8380066853836 289.3168265652878,733.0902400518737 287.03146306073694,741.2720238936079 290.76594078439905,741.6820693607863 290.5604374946459,746.2438957991551 291.1825266457842,752.8837000210901 293.67423737163165,755.584491602346 299.4969254497897,755.1643069897034 299.9080551639411,750.1921459920725 300.947922428869,749.1518208551453 308.0112198282782,756.821390578964 303.64717069175737,756.8279488338901 304.4796678691085,760.9758333746599 306.9678371068578,762.8361266148318 313.00324748917166,765.3197906615025 319.6493237719736,776.5150206807502 322.555688759637,779.6277593034777 326.0938305898766,780.2415462364941 328.1692438658497,778.9903232141314 335.65723717013077,779.3990831614237 346.68559266151215,784.5640909182555 348.5965449325557,789.271912157259 352.541512721826,793.2110219756632 355.6684471881328,794.6529706476564 362.5397192048134,794.8514866004299 368.57660208466876,798.9843101156268 373.57058647776233,807.8941925624897 379.3941277507397,812.653051283711 380.4386871819308,818.6598470089203 385.6382585839535,821.137455277792 387.9284617983702,828.8132714494752 386.8845900913943,834.0009477017254 389.169795083084,837.9309882831211 385.01079007961306,847.2712474550751 384.18327322629386,852.8806261582769 385.85084792270396,856.6031617467595 388.9764794072762,858.6718850538625 393.75453499420985,856.1798264908386 396.6666314681543,860.3195777057138 396.2610638903045,863.2219891090803 398.5434801437804,866.3324289694633 402.7104044399997,867.1529529082221 410.40241491860155,866.9322656555021 412.2789505537228,866.304156519599 410.81668797097234,872.1175859268819 412.7548948591162,878.500339025412 411.91717887132,885.1476177670914 414.41897933907785,888.2495502453769 422.9466050375948,895.916292892155 426.4750269512542,894.2484199610941 432.50183437131574,887.8185920998559 433.9670877225203,888.0204676954031 436.0459183126961,891.33508302622 442.6947955520337,894.8548082148487 446.2263674506528,899.6330146354883 450.78729360936444,900.2492904581449 452.0415865675467,902.1131219932025 449.5523746140517,904.6067001977144 454.52565158898926,909.5770364728487 455.57474338158636,913.7293938413 452.24366817170346,922.2371295392556 452.87384028688336,927.0036705855032 454.6527154707037,929.3008172257025 452.08640488564794,935.1017269801538 446.61973344110027,940.3155463491541 441.5773100270024,950.8391777025821 440.84977231509197,954.0615314610152 441.49274763776407,957.555740270775 442.0556283669056,975.8910802753192 441.4375770923435,980.8705729215511 441.85067414118095,986.6763030196272 442.8935677948066,990.614878847711 444.55358133448203,991.2381471098146 444.34348933059437,994.5552281701761 441.63583325904165,999.9473697498058 441.644724660974,1005.1353224542343 438.5289527539758,1012.3851238651919 438.52722965165566,1016.1249413438574 437.276290632701,1020.4752179612752 444.3477428430327,1024.0 450.1637730578141,1023.7895793127556 457.0163566034186,1021.5066048338284 463.66447132225034,1017.7755238139583 465.7360895992948,1015.9144010732141 474.66352470760563,1018.4065835604903 479.3731454151542,1018.251638544852 483.7227995208758,1019.5026869420831 487.6654982617598,1018.6763362124841 490.9853862462665,1016.8199513990487 500.7218983428631,1015.3798694648173 504.4578309388232,1013.3191321523425 507.3589609591233,1009.7965389771072 513.3700250081104,1009.809741728071 517.5104625864276,1008.5823450338842 515.2338745044328,1004.639563631658 516.0538815194691,1001.7350625688485 513.3628584265705,997.574520492435 516.8844885070412,997.9985075576226 520.202477754907,1002.1625594022728 525.5958675233696,1005.4908329747311 527.2503134566086,1007.9830118301428 532.2232506982087,1010.4888965555244 538.8378199329109,1015.0751781430971 541.4631137317692,1015.8650289901295 546.4464952760517,1015.6684900212445 553.0775694841828,1011.531154473317 564.8886766376717,1000.1497785674484 569.2437420140137,993.3028109439795 573.1956291323513,991.9102362541712 571.1499925074993,986.5707904724776 571.0534600259494,978.5489192756842 567.4428729769575,972.3013146303008 563.8160446929387,968.6214660636358 562.7042124618138,963.5960786765944 562.568040046899,957.9362361474875 561.4990487408666,951.9043872526931 557.6386487922339,947.834060591556 557.5156994577931,940.6244774701329 558.9283786908965,935.9571540608097 559.094974234491,931.0703739044092 558.3738005487163,924.4965583461168 559.2560446378516,921.2649817190132 559.7034978453528,912.3146619924604 560.697826737122,906.3837966859163 558.29791039058,902.2169861826721 552.020084234807,899.2483167132475 549.0415141638222,896.8451171593243 543.4441210998249,894.5141972030876 542.2961984066969,893.0121510191196 540.2086859141864,885.1618376863821 531.2430461932433,884.337528858305 528.888469384072,884.9341399710567 528.0536298541343,891.9413871405759 525.0804934769525,896.5088464223786 521.1260736490093,897.1812328385238 514.5785866627309,899.3839238704912 514.0540968997487,897.092438103583 511.46795738076736,894.721193858775 508.8005739751029,895.0180825224302 503.01571568484155,892.7160498404997 502.2581250772541,890.1265689127636 503.0885142413042,886.3935171623922 507.8545924992221,886.6274450273726 511.7124417433566,888.4293908553203 518.5963894771902,890.3135284312154 523.9685185274194,887.9119849014576 526.3163788869157,884.9543431858201 527.7373835948798,880.4537351259443 532.9488182034289,876.8400851355933 537.17800729751,875.9627091517302 541.3085765751229,876.3075658745029 544.2123028551428,875.3938264853691 546.7495906308384,871.8829901097578 554.4693943015656,857.6142599421803 556.7485324288048,851.4650189964104 559.1233648065856,843.0382145763026 558.9787401111321,835.1466063358135 560.2230541225383,831.5083512988565 563.7673178534951,828.6480456567592 570.1817968201973,816.675946760395 571.3888452930253,807.6311154512607 575.6508780186621,799.151753233996 575.5561937072733,792.4425938712674 576.6689594369473,790.2818722149757 586.3926998972702,785.4119798946132 585.5845983658998,779.1522505995295 587.757349018044,773.7545111322477 589.8635081361524,771.7403987788587 592.436503659677,766.190247736399 596.7733392912826,762.3587480658302 600.1749598929553,757.2527271346444 600.2970245935263,753.5710764810251 598.1893118881866,746.7442234965157 599.0095098552429,742.573739620696 602.4708068118352,738.0826967712676 603.9248382622117,734.2737176493724 602.9926937205846,731.870225150614 598.2069651585781,727.3631543399123 599.1497043535779,721.860547526506 597.1151820556382,716.6449428013785 594.7442707965364,713.9198664937908 595.4769949603531,707.8329305927998 599.3078022526172,700.5359973858796 597.5200873268315,696.6745425739757 597.6433634922026,690.1452062201515 603.2926545065327,684.2492238518003 603.3706682794352,682.0455471395042 605.9360997858064,677.8415141650036 611.4490990930049,675.3078796442464 613.0788772960448,672.330327312342 618.709630716351,666.8647714652998 621.5070444018688,661.1345240435815 627.2151684991751,658.3027506463419 630.6530365413155,655.3214773382037 635.7264804117294,647.2208095796769 634.4242771758921,643.1278519620689 635.7931620881626,641.041439610548 639.6759025167896,638.2450968096631 647.6534033340538,622.0387050152801 653.1090474083243,614.1050103367297 657.4833255430676,608.7289648398997 660.3891463103951,607.8869479140747 662.8678123538966,605.6602371356471 666.9260635652244,603.9916586464433 670.1622793954417,599.6474456256485 676.0214942868421,597.7179711654913 681.1453015912365,597.8549211974082 687.5456365063333,595.332459850454 689.9091798505341,592.1838714994649 696.6789038443072,588.554850564926 698.7738812139214,586.3889027730346 700.3684170481334,580.9544006784695 700.6718763160247,575.8539083355262 702.2836723727655,569.8045892097906 707.2314732688657,562.3309575304384 712.660626912182,556.3839405069016 715.7411346105725,550.9843010248144 716.6518328943783,546.3684102289166 715.6169563385678,544.347884676801 718.7510040507902,542.195867791921 722.3839510681573,537.7197478559095 727.382129284154,534.1275891113457 728.9596161450688,531.940270313487 729.532369980593,524.8664120165565 728.4935733782246,518.0439731333885 730.9898370118918,514.4570238192593 735.8252826828239,513.2495684433047 740.0025639275564,509.2574133197902 746.0896135365476,507.90930285573097 753.3697765227186,504.4256213127536 754.4937400562937,501.70419223133456 751.0010528949492,497.4176656979481 751.5060830137808,492.2285220858257 755.7835770603206,488.1737338580249 760.7110716169175,487.6937588436923 764.7703630997438,483.53650890441247 767.838734273504,481.5681968398335 771.9628075664347,483.276140354673 774.3866126662682,483.19009779510895 780.7891712014119,479.8868926705775 781.6312284011843,477.15540844759005 779.9477255976568,471.39985147337893 774.3663672268714,463.8133266525957 771.9799717080273,454.13709865557166 772.5833711127202,449.78828810075663 771.6231569361058,445.856749141804 767.3158521281616,438.93953677157174 767.780662505821,433.4971182574593 766.013712274082,430.2490875166907 761.9302142582019,425.26686947545556 754.5678464344879,418.7422031078636 750.1910646056864,412.08199724666383 742.2265359893667,409.58759247703335 739.5822278230332,407.7598121544585 733.169255056247,406.7826331643739 728.6340232433298,408.0808585246439 721.6512805398912,406.80471814122654 716.8137487148668,407.30434690104994 708.4810559614563,411.0168400714266 699.7896541332038,412.1089973588506 693.2678339514558,410.9147618142141 689.2116322501322,408.2130545666852 684.0931671389883,408.2184540851647 673.6868769694056,410.01035905849903 663.6601148499495,413.31664060643607 656.1698655066892,417.0701823038838 654.125331242104,416.0100084302794 651.6901899492087,410.09914457687603 643.0397807400988,415.15793400142365 637.006924241936,417.60436347464736 621.5717455537995,422.722518665036 602.6895521006719,425.2593802495335 589.6284314644015,425.88970881276396 579.8242952329065,426.97072055960984 571.7895483429601,427.27960064598756 565.9926344395341,426.59413061756777 565.7586054195526,424.3522831164805 559.5111352481425,425.1176883988494 553.486995017351,424.98216505365906 549.3625673039209,420.2709552833801 547.1281921402916,420.047597969294 537.6433669767183,423.2546520351226 525.9255863276677,426.01318340369585 516.0958699188465,427.550869067102 509.401405225681,422.8467221073961 503.03372862468933,420.47821668778727 502.0245300318984,418.806341014582 504.2566741690097,415.6740677724164 502.25100637994393,413.097801016413 502.24178174777086,409.6801738235198 506.2722265218591,402.3100762840269 510.06601631567867,397.40415788635244 512.6330267928212,390.7029525318484 509.8415411705966,385.4445664841147 509.61762159074044,378.8454014633934 508.39418374067407,370.33980288228497 508.7248230064588,365.8717872438865 507.9426703450107,360.1914932253678 499.88937587944713,356.3850912504756 500.4539249712143,351.90764007001576 501.9818051034244,348.8557269010339 507.0948064131608,343.99919544167483 508.27758922617085,337.4993075760443 505.5955592325973,328.66294870149113 506.0917755232319,325.6588002811892 503.79246468675586,314.91344631535344 501.89169599114274,311.74578252524645 497.8652787686206,297.76396909693835 495.294611038705,292.61127338360075 489.48687234043916,290.3679754452719 487.9254376622983,288.4601676402973 486.40739060785074,282.0033633321584 487.08074373121866,273.960788713798 485.8596964256166,265.4617843159267 483.286264451513,261.2091735165351 474.00556481772867,251.80766708129943 470.7613499316412,247.6651865038906 470.19218965820323,245.53722327702542 467.51781362759743,244.86103481880969 466.3890563209498,240.61436278246174 465.26640761343674,240.28237556797774 458.5608401379856,245.9764250119092 457.4464354328784,250.67211342724272 457.64418203073154,258.9935359205866 455.91572569236877,263.39061236313296 452.2161997982436,261.41164387539936 451.27294340112456,254.07970962458728 449.50928585697886,250.56630296422873 449.154751481121,244.25869806865808 445.6703118221593,241.58586922515235 438.6915080763044,238.27410190893397 435.8869323987529,235.31747887357835 435.1616567573948,224.93160546459046 441.24237441895747,221.39369594368713 441.53259767699427,219.3007032553735 449.7153201982203,209.73290936502258 453.7473850294172,206.60368210622403 456.8786816782372,202.68440963568867 462.81355493714415,182.22750911390165 465.8360786806928,177.76665304988603 470.8772998517858,175.76596013111327 472.9547812780048,171.74005832774196 469.8392189031196,166.97620792770283 466.3895873239574,160.0668056925307 461.90870333770624,159.03581268056917 459.1900367705427,156.39897847974237 457.905539993891,148.87708238967855 456.0509776424427,144.81427383590824 451.22602871273807,139.08418702486915 448.6914942402037,137.22350405600844 454.33483459074023,134.4817906544073 461.05569766102866,124.43297058051144 462.56335822981606,118.48604659455418 460.3589093643635,114.25991760948023 460.7543614794553,107.74751402740424 458.11665989527063,106.51066554112094 461.6972522864698,100.96244039419469 461.5449659870324,96.6737024853229 462.5937402308327,93.96217128118792 461.45904477036646,91.39472295138694 458.4701611015014,88.41103874874159 457.671426858629,85.67167477134615 455.8360988507661,84.5608523339954 454.0108944429338,79.55032508103841 454.8333757828139,76.95110309335723 452.79233396750533,74.90079295610394 452.4797540237702,71.53133719365462 454.8410385690427,61.375331987082745 453.42409565655123,57.43920157764239 454.44380333989545,54.157772214563465 454.19590648435764,48.77747295767938 449.6986196459914,45.20657430119627 444.323770161972,39.31410679314956 441.01524444025983,24.818824163792897 443.6561300783921,14.851473766923164 443.2310826409417,12.288220033650077 439.8137365381512,9.793331535758966 438.0565043252104,7.244744648598044 433.48724798743194,4.632274513494167 422.9429037883529,4.908962025994697 418.23666597893765,1.5914364285995362 413.8961165713997,0.0 411.5146325057415,1.0080573021967894 409.01539838216553,10.342153500943596 408.6362889418882,14.514052598357011 405.9604912554285,20.102337014556838 406.2660560021682,21.399502665009663 404.924625791926,29.577488466458476 401.002219067977,31.67018704910322 394.93092917976855,44.34664086666123 391.7874434075599,54.271372348834234 387.22759398854157,62.117773364504615 387.2976943792361,70.01939399942626 385.46559200777807,76.23678050567662 379.7049965170167,77.60663334982519 377.9532240863666,78.82188535451348 371.4497281509051,80.6268938311008 368.33846387052904,86.83874965025348 368.3351982532849,98.23178402854069 371.18581705838295,101.85012003127804 374.81758000574723,103.9212016202722 373.0049609784539,107.54599889135295 367.81190123703425,107.56131402748827 345.48807365850814,105.78169112123544 326.81142889741943,101.41404658825843 324.6959358776732,101.94475119539231 317.78552710575764,100.77345542986279 308.4388272563694,101.54989689369177 305.11936901880296,101.12241417832024 301.34573557725116,95.4655819093706 297.1853851110547,94.77894449118139 295.44555182448386,96.50530185746732 293.021779396851,103.09739803217985 293.01827910394024,109.33549948664108 290.9439247025088,110.7235751881692 286.4368069736067,110.71778962177848 279.0043143999972,108.03093920130675 276.9131074114317,102.80145240582351 274.09031023604155,100.04934368925262 271.0285740860715,99.58207913471972 264.7701405302952,101.8124579369968" /><circle cx="354.8919587197252" cy="606.0889463136812" fill="rgb(100%,100%,100%)" r="16" stroke="grey" stroke-width="8" /></svg>