<?xml version="1.0" encoding="utf-8" ?>
<svg baseProfile="full" height="1024" version="1.1" width="1024" xmlns="http://www.w3.org/2000/svg" xmlns:ev="http://www.w3.org/2001/xml-events" xmlns:xlink="http://www.w3.org/1999/xlink"><defs /><polygon fill="black" points="463.94712467444555,175.87134855661935 463.87471733008414,176.2729456046756 462.27488780829225,178.5179428134786 454.2306811616771,189.20502999205252 453.03013371928307,190.65651474333492 453.09888997984694,194.1983806518262 452.19995698034245,195.00267071086176 442.75472023333344,202.50922656621867 437.21869437879303,207.09852555097672 435.8929250954157,207.52843853246594 435.2114991342444,208.07142977472404 430.20358830417615,204.70634809201857 428.70154971659247,203.60210101485256 422.5742869328872,199.33762706899125 419.37568587860505,197.05267027778405 415.8798482589957,194.6945814610366 405.60691478047306,187.52416578004846 401.314936399854,187.91462810981614 398.21477885463815,188.2794776073124 392.67249466678305,188.80713051106954 389.9853133225311,185.05928974642046 383.54772734830067,175.86913833365168 376.2689451344122,165.27271244403937 375.5424561945373,165.59183182885283 375.00359654651265,164.64860377890403 375.8139345657102,163.94352661737008 374.7790594413461,160.69113669629047 373.6379851819012,160.17597570907088 374.1703867647672,158.82636681349442 374.8162770904429,158.05033468057735 376.1450001851409,157.3089041195343 376.0770844905881,156.48400843679957 375.13625507039535,155.3144392671145 374.7039327081565,152.61972380932832 374.0480291099754,149.47185651107463 373.4044336729125,148.8720434293777 363.12283694943534,148.92387457933967 362.70389402685663,148.8258440400828 359.43868372650576,148.98829100000637 359.7228675297093,150.43760469212026 355.0219587674014,152.56990182524743 348.106271441677,156.99626212428734 347.43875011939974,157.23360215138848 346.7023547417577,158.5861426003121 343.58817261825754,162.23212937166556 339.0461729898597,167.33495385722188 338.37161692140444,168.24488156092758 336.3302985626158,172.62666568858185 335.6190223752039,173.76036864471672 334.2132777693318,173.72954806677382 333.8886827012141,172.2751263854575 331.9454728814837,169.27864934732764 331.3254561780583,166.25682862768502 331.0029400190612,163.8471810729401 330.2477730265046,163.7497026230747 326.95804148722004,163.74586175430863 324.2829501393783,164.92287902602868 321.0450625923781,166.00991728417824 319.5935947001768,166.25717693677257 317.47036408098006,167.57836895073552 314.60007916344335,164.48767210023084 310.7348497069032,166.300840760371 309.1426155489077,167.19000527323692 301.157449567241,161.79727842911564 296.07324999825056,158.40727214346168 291.29642599118233,155.10677351033058 289.3040482503027,153.63562049740182 289.2424135850712,151.4670651295554 284.65837535010064,138.271336103703 280.00493553323344,124.50391530349316 280.69739987965363,123.97458891727132 283.9461492805932,122.50754333471781 290.6383195249008,119.70704765056371 290.97811151038917,119.39656688597523 296.2967391620593,117.14417573465391 297.66545965094537,116.35631941979238 302.4565398575627,114.2189977288487 308.3431582686985,111.43787215702775 314.35050498703566,103.88604888378416 317.9011753153223,99.26915675112554 318.3606970050082,98.31245819920724 318.79030887839525,93.22496671479098 306.8594770467412,87.73280940314822 294.88724353840644,85.78971190762331 289.0624131511532,84.74001292534217 284.7597521129403,84.03860428027554 279.55720661634734,83.06112305207688 277.3039540009296,82.72473509436674 272.6731777539767,81.84241541477837 271.5116039656272,81.69867625539251 264.04791542204543,80.44149391190518 256.634723994423,79.11361857815302 247.796375553826,77.66067914497836 244.1042095602801,76.93956581063071 235.25704657716517,75.48935895541041 226.3662385326032,73.84737686608224 221.32159356904052,73.04156190864876 216.89691025377863,72.2087650278969 218.3398449304581,61.0959344758902 216.8059234825993,49.96779421258498 214.1166956611798,48.34455965974297 202.49303186865862,40.90151327484756 197.5438180711173,37.662537824657136 196.44989655480563,34.82566731285715 193.33313910082563,26.425326325986703 192.08739904215255,22.953912807020174 190.82656625212806,19.807421997889946 187.4717732118213,10.998441647276195 183.88668683828305,1.696525537200614 183.31056387749456,0.0 183.38922926720755,1.0611928974033162 183.1803177219135,11.059282379756723 182.8380819492868,21.604029115031835 182.6013660120072,22.639063134779747 182.2761633605425,44.64452486432515 179.3759175863947,46.745645805481274 169.1008635535742,53.76423067494579 164.99337830240464,56.63919204061443 153.58885071399695,64.47217764591318 145.96270192029604,69.82369703647169 143.0210756252696,72.09903710617283 141.00167261629275,73.54595909615796 123.01331916554695,86.67606425092936 122.23069307740681,82.69105852652552 121.18738607137755,76.2307111281217 113.91545762346125,76.50039499252085 107.41347209113819,76.60872366093082 100.84201798352187,76.812992795274 92.79662818457176,76.97428018504371 87.42594954751611,80.84612346373228 83.0428099966034,84.13967203201844 72.7624004759767,91.6259486689226 69.81794111636432,99.07218680302884 69.20270301599899,108.81842224955636 69.12825263288542,111.47711825893293 61.26918366068224,115.96392802159852 48.40025149441391,123.112724653366 42.159712177055944,126.47865275159853 38.048047979776385,127.08246990222693 34.28762741077036,127.3351020983672 36.791304920951156,131.9997600736533 37.71530026899289,134.8961189012914 37.88496267849983,141.49030324648749 39.04351878966551,145.93409503670358 39.250943324541986,149.2621677300396 39.40087676934685,154.37126298867628 38.67031768777432,156.81145239853032 37.26760848171809,158.51960163255808 35.5780090420123,159.28894814907096 32.94020392313968,159.18524524074644 29.698087318155,158.79115163020907 25.663232953608865,158.48158274922446 23.23554526029902,158.89748911918548 20.841827664617696,159.5309135629667 19.327163486765887,160.4989475664729 18.511585494458934,161.9485764682933 17.63271896031091,164.04501200326973 17.78067118162832,166.0628924968144 18.649785038658766,170.2531417755426 20.468799860530403,174.6813489035004 23.328263420421973,179.22479128904354 25.795088847092323,181.75754723944993 28.390545609251827,183.94730791953697 35.985514760045064,189.87311514402006 36.65557390091069,191.20328657666977 36.74710633312542,192.73777784571809 36.169961203513324,193.78635022865586 34.999124465864945,194.60159231615074 32.536511533987635,194.78874864103892 30.279864758868214,195.17131831864026 27.615211307388204,196.25718459167655 22.316549828512244,200.85509228166057 20.35899993451463,203.11592340660025 19.020730286698377,204.43022105686322 16.931653965110495,205.16682220201636 11.308323773849478,206.05022647125986 6.179929808028781,206.64333001812082 4.4529140484952805,207.0550799334382 2.3757851733696733,208.76728639537617 0.9740544969328995,210.74270246140344 0.21054527534597184,212.4548205543196 0.0,214.33595403328582 0.26048968954634366,216.44000743056625 4.656337496945103,224.77020712810986 6.680720588247507,230.8939163207291 7.87546126899138,233.44621376176048 9.174163134242667,234.5672240920003 10.925047106598994,235.13226838956376 12.574610983463739,234.96168269043324 15.201301259815345,233.87063678076834 18.418151412406853,232.67599440922396 21.72285767530596,232.0243706322351 25.898750301916614,231.7089039137207 30.633482642423026,232.02591254613395 32.35919213814297,232.99030772206203 34.190777007425154,235.04284518271498 39.80280260979372,239.170427223278 43.73408174743329,241.09286190951917 45.95053763165568,242.84155198187676 47.02806088766588,244.11403681372468 49.32854150332314,249.04932115371594 51.11468102086059,251.4017059084258 54.2784946442944,253.02476066431097 55.68362140468919,254.31404952721897 56.36343088696858,255.5331257510319 56.70590832565969,258.18348815120464 56.724871190820636,263.31656661029774 56.53918301043001,268.3417513259472 56.81938276387312,270.2023936271854 57.420053232595734,271.5836308353788 58.71788152812989,273.18988031069455 61.32478275066628,275.01841633176275 64.7348004567626,276.59609388098 68.35192832620409,276.9034039178599 72.5088784093534,277.84472413767526 75.69612586715093,279.50982961422915 78.08403430054994,281.6618938477395 79.78596986395156,284.33660215609956 80.33625011639266,286.42954929142024 80.3123688808384,288.3332211952955 79.65262793494705,290.7638928040508 78.29232383213245,292.7608729870154 75.2194223387473,295.659313625023 72.52830159061998,297.39729861571607 70.71707549895741,299.2830664879108 70.79525486794981,300.5227617066787 71.19536708580378,301.3828996355775 72.81981627714302,302.15149908764397 74.6848620416455,302.6440426047151 77.87224211191689,302.7221081686963 81.4473595660078,302.0831672564725 84.01610216078647,301.79456490701307 85.44334844291107,302.3251519125563 86.54290316944245,303.55019110637704 86.77364255107467,305.3808204593714 85.27988173440443,307.33282279377863 84.08321211047901,308.6386510137918 83.88373514495441,309.6790787365606 85.05515397886458,313.7316839517541 84.72886837765552,315.22332455934225 83.28480394962432,316.38313743121773 79.59972819592646,317.9654945373532 75.8440627733469,320.3936384968002 74.72208597790967,321.94432627479875 74.88958660246206,323.67510420794196 75.66890225779966,325.35430286122227 78.09601134236846,327.2084643108078 81.92272967108526,332.63280219130377 85.97376189864309,337.2250622157009 90.32138954330037,340.37861600259055 94.58222146241107,342.46241526457334 97.97947942978244,343.4621903527718 101.5922527579619,343.7679463229749 106.57682999717875,343.56663142876414 109.37595256259816,342.7916720336639 111.64351626932724,341.3239078310566 115.94003986068374,338.1991201256674 119.7620418912682,334.08559332591176 123.6615006424563,330.4629202914002 128.84212754974814,327.77868342804163 131.85940751016167,327.9738219018417 134.97257014553014,329.76665852111864 137.03228677186758,332.1637424809377 137.79304910555456,334.4370570583037 137.82441261654685,336.4696539790814 136.68277463059002,339.3125815253863 133.73465807653335,343.6768365203915 132.79200706039245,344.852803040817 131.3299429322442,348.1614560965902 131.22159155727527,350.4431858391049 131.57353522688751,352.71788056761915 132.80643375569724,356.4735326477865 134.6526506478063,358.87565976747135 136.94366075998138,360.92307838627835 139.2961110922314,362.2788078073162 143.57763712829865,362.7635040283442 146.31190784956695,361.73042529436793 148.34748657804977,360.4569743062684 151.484794049198,360.35905777653534 154.01765836799498,360.8066153042405 156.12818027977144,361.72086604455575 158.21323495572457,363.62099518254865 159.0847778058929,365.68983609486406 159.27049645995953,368.3643619569381 157.71940256924316,371.81075879939885 154.55529997347733,376.77204690270185 152.77561784100556,380.66713380605086 152.33793823909573,384.7178654288781 152.42366237462156,386.9239070363798 153.10351298895137,389.15778480170053 154.91339217416797,392.34867665068873 158.3448386669757,395.80960980622956 162.96674664587934,400.1080440292683 166.15316757164675,403.5293757965403 168.70610541628452,405.1076761142734 170.7369214458846,405.36418476760934 172.97576701372898,405.19922878853646 181.03475534567102,402.9783504470343 187.39379127323892,401.9150310556101 192.94781454362686,401.1211106693973 198.41314211466883,399.9264976974341 203.77913360992608,398.2933947142645 207.03602343866302,398.45334462096343 209.62924026202518,399.90401283878936 211.9920283876046,403.4329153180694 213.6710045182456,407.6656580789228 215.84233654067356,415.5564025727544 216.10471763205362,421.95210016525346 215.96152891129313,426.1579799670354 215.35777935017236,428.5979650530719 213.6949956157432,431.9614038982768 211.7425774341301,433.98389631227207 208.94642189364802,436.41793250717245 207.54238544186757,438.1839541054501 206.69905298192054,439.78600305848795 206.31150850285397,441.7182565096249 206.33704116265108,443.23544298537786 206.99869424363746,445.4342237801629 208.9963392938085,447.8731725283784 211.90041795971325,449.9488876108944 213.81726278368356,451.8470629043245 215.59802714057253,455.3361503646571 217.21506680135815,460.0143073181123 218.59300980730657,467.5243788571699 219.24175387435398,470.0735089832138 219.7367531463126,471.4818806749255 220.86513921480872,473.3090027404102 223.36970207164586,476.5128013992341 225.585186891109,478.94983497957173 230.20166397462611,482.70840481968696 234.3936620359465,485.5932555044746 237.84056886892466,486.84838566260476 241.03634563373686,487.27078249769664 243.1546153292347,487.0080414078521 244.9507191677819,484.8019866272885 246.5269734745836,481.15562004052293 247.98045713605316,479.29420739560373 250.95692924593368,477.1801813124706 254.84016626016773,475.3232433055026 262.2420498554014,472.52867120679247 268.01263069944764,470.78199270173997 274.50632920680033,469.97148159043064 277.7740545442573,469.8521852600174 279.80370251686224,470.41637750823986 281.7775209405349,471.8291716922705 284.74153325061405,476.34738077746215 289.2562730282048,485.390551115061 291.26211729333806,489.06859618339854 293.38888108735927,492.0090056099727 297.7089482054535,497.64210795981336 302.76145141376475,500.6833411013229 319.42101995731815,507.7195138145173 322.609049167623,508.1258254205125 325.71689328447894,507.57177448300286 328.29486371877704,505.59350306903 331.96553738812867,501.80012387000164 335.0001769948754,500.14552518479223 339.82514064840404,497.2311409573933 341.054119749476,495.05304383578624 341.773739548057,492.5098391981413 341.8033076361826,490.377622381226 340.5287553063123,487.6266226648998 337.6300616805192,483.6136153371446 336.63548618330543,481.00161785343784 336.51910269484546,476.6340530066676 336.9385621008781,475.01058415923296 338.23864059456525,473.873823336848 340.15986755162527,473.0412500489789 342.53127351021215,472.68884011535954 344.8973602865738,473.0981891238095 347.4656747158635,473.8793419172957 352.9995231246907,476.36199110780706 357.6567580958294,480.05383069277883 366.08036783702096,485.90337390553026 370.06466242297677,487.69656347540985 374.3250378607504,487.92138105578823 378.46104129583676,487.0692884219091 384.4393021030802,485.0667692803597 387.5852756780995,482.96678008761467 391.0043297056983,479.2125285869146 394.5130859847151,475.85438790448995 399.642330444205,473.06273887846834 403.75293012988624,472.54680866012893 407.44407889855785,474.0100125181363 412.1272393548095,475.3709307613492 418.14759649801283,478.32980814838515 422.362351657602,479.7806971441393 426.69307133989514,478.9845516469858 429.42501663973184,476.82610882992503 433.2121919750963,472.2459470483665 439.6038080379753,462.5733136399937 444.2613033472032,458.5160335631101 448.77419466921356,457.7244892442499 453.20777058602755,458.4529992427547 455.00155782967084,460.7699316798179 455.62217753420856,464.24483851516686 454.24972923835685,473.57275466589283 454.3439401671322,477.8335507182484 455.49170118251845,480.60022632187975 457.3254229496131,482.3427631771235 459.9733993531178,483.8357793053671 463.62792081366314,483.9956959733414 468.06300305971445,482.35550435957265 470.8075780268658,480.8280711151667 476.3994027168892,475.05344923409746 480.13480968965325,471.543840615458 484.03424818176626,468.54579992875864 487.1079385965297,467.55771062286055 490.55159116337853,467.9508303660003 496.24790026940184,471.7881235359221 503.0227087164191,477.8490939732653 506.2120073329902,480.0731988689929 512.057672907818,481.8385289592943 515.6169010380088,480.52488770386674 517.85663612118,478.0726658051942 519.6921466315724,472.8367614970076 519.7084422905881,466.5552735917151 517.3414874675203,457.01858900665843 515.3626217988633,448.6758804249044 514.4728693478668,440.00432326163786 515.737742271275,434.53476703110056 519.5203202586326,430.2553812135476 522.76626702317,427.14854808616957 523.9238517909888,425.8494119547213 524.5683123284208,424.52602983319224 525.9837140647213,419.8417195745002 529.2751173401168,414.3954922189677 528.7226905258345,406.64982304746314 529.2115273010996,403.09967096560496 530.3733149038177,400.7185072075196 532.5239046881596,397.7509601955602 534.0412402741503,396.96933397992314 535.6764484420911,396.43192265899836 537.5036231489706,396.2005702202674 539.3531519336453,396.90076853229436 541.8865270567363,398.38438526721166 543.7090439006406,400.07755715778757 545.3265516354544,402.198721544263 546.9805571240619,405.39160488756835 547.6195429704479,407.67682286991527 548.2705838955078,411.7310379875246 548.6771759511228,422.200611778298 549.3279091325394,424.52850006989235 550.9390920975195,428.02477009993544 552.7311704529943,429.6977258217903 556.338113861532,431.81487705956596 560.3168481606264,433.649149692668 567.5929072043247,434.9517896332555 573.0514403505975,435.6701638251278 577.1668510958679,435.4939823758618 583.3408791179834,435.3132990693348 588.8627736805087,435.27208941299887 594.1465675043534,434.3131010818037 597.7328412616522,434.2921996250555 599.3532547449605,435.16367374274927 600.6201986985836,437.45557073613054 601.1731046158435,440.2638384562556 601.3231145060284,442.95419636092254 601.7253801065073,445.09025140815874 602.7085230115377,447.8934038981422 602.5558534571841,450.36084628200973 602.7119339138593,454.9195938247255 604.3409274716325,462.15750123665833 609.2219061336405,473.4655734621467 611.1988100112627,481.42253006359806 613.1789055263391,487.47359688332136 617.0872196776975,491.0753683041137 621.775948649048,492.6791529874193 625.8238920741243,491.6940610048542 630.0889153412993,491.16497966571234 633.2543064239053,491.3681554098178 636.0107968767975,493.2139783855656 637.3889603336639,495.7194838885467 637.40953994529,498.07763162102174 636.1490008474242,501.31287325263963 632.9476404211769,504.8942460333062 628.9337614591295,508.029413733166 626.4012553635417,508.93271967070154 624.3957522521321,509.95704456266856 623.2565177280019,511.57142140285725 623.0084457508508,513.4967682244268 623.0989725121269,518.2241110662804 624.2706688018579,521.4683344952166 625.6447600114759,523.4056978150678 626.6434763812861,523.9014746541474 627.5874653874098,523.8771615568777 629.8758125970346,523.0495589806551 632.3357296791676,523.6793719428138 638.4920261917528,524.7073192542483 641.7894769161109,524.3908984618337 646.2399077353085,522.1994531129088 650.8197707858483,518.3214993704823 657.075869781621,510.3202288153001 664.6697982853581,501.7460742340626 667.2477457748236,500.29065138344083 671.3060751073892,499.3013396047968 675.9030668069472,500.43037235417455 681.3869872995897,503.61452264860617 687.4838550502491,508.184867189616 689.4290264484357,509.1264578346241 692.0240220604529,509.8081656108041 695.0114250839083,509.4368390284473 706.1751534634037,505.1494870164057 715.5903785469173,498.5860819832073 724.1333516143127,495.0493799466823 729.1849812853073,493.30158258299605 738.8080629866492,492.83801726217604 745.0305552937722,493.6938078064542 749.3477232523616,497.55290526225855 752.8168204884822,501.517618913424 756.8035054479385,503.8282651111501 760.1747543120756,505.41395606015203 762.4760101490493,504.746302207073 763.7699189069299,502.27412497922677 764.0181854095508,499.48312031685424 763.2718380674971,495.9949353351851 762.575835358341,493.91376870884534 762.7496106684532,492.46311696681477 764.4220033684435,490.65782068592824 766.5386827623352,488.9636605766408 768.7761355869455,487.9106428705194 770.2263437087797,488.0407485217686 771.6467411004706,488.8916198651556 775.0045868148391,492.50255321939454 783.4120473426823,506.3236016765601 787.2975132486365,510.02172405628556 791.0292275600204,511.5897955434314 795.7359940381945,512.0808335772848 800.135257301075,510.15604318155596 804.1914753858975,506.0149063874584 816.2528309756483,491.505094783286 826.6710252594725,472.07552847640466 832.2165031273115,462.06305562283944 834.482451899549,458.9979430380126 835.6516198270792,456.28254594853024 835.9945268413261,452.70102632764855 835.3360890980433,449.24656299944024 833.3608376592334,446.3271182983244 829.6412132415849,443.008106415767 827.9297022643611,439.6349410115745 827.8122314061126,436.76092980725895 828.7608346319477,434.8971634864548 829.9715641994242,434.2646030677848 833.3869871165573,434.3167440706925 840.0489376204399,434.61968125275564 842.7512165610199,434.1455752434495 848.3728192370259,432.25610966753806 853.8073840120896,430.9726776956817 859.6282374891235,431.2498571374724 862.0662590820876,432.5270609355611 863.37707723293,435.4659210374623 865.6030613463583,442.45116022123256 867.5608467274536,445.08055883475436 870.1478427573161,446.498274239058 872.3692580844612,446.3862712161492 875.9874324471663,444.3573553318287 883.8467703237703,440.90574163202433 888.8344093166259,438.1028376897021 896.7318966492952,433.9665131333728 902.4109697437424,431.3551340023749 914.0720824617877,428.948764989395 921.440195525812,425.9964709645219 927.2913215591118,421.79231668136146 935.3882661807705,410.40509503533127 940.3953526623862,403.9966889404732 943.6322788436986,401.45533991539367 947.0537394328353,400.49512249831434 952.3084586322534,402.00274673823316 955.7424398301457,406.40156915261593 958.1404579460791,409.1939919095886 961.9805074332364,411.2830081988469 965.8952599343858,412.19436843555127 970.2181818583443,410.8975004682929 974.9529230859085,409.03831108352136 981.8571816252621,405.8889246529239 984.6286533688481,404.7922503945377 988.5710049182683,403.7908022019426 994.47499678423,402.9262121680779 1001.5316700934466,403.1115590799245 1004.8744726791714,402.55817006984176 1008.4949773740459,402.34318172930847 1011.4834451680512,401.6293952764842 1014.0943700423835,400.6711680086815 1016.9832901250592,398.24384877819574 1020.3778073324681,394.45200192744375 1023.839064744203,390.21767325664695 1024.0,390.131927298734 1023.39930651083,388.16231167920284 1021.6236207666601,386.27609270790623 1021.0111840307544,382.4728535553454 1018.9319738165159,378.5909912273718 1018.5971314527652,378.38253663703324 1017.0631816920675,376.07527150117835 1016.8208368634608,374.37857541447795 1015.9767410830339,371.87067533491233 1014.8862823641313,369.9351285940734 1014.3302650076047,365.06406968097804 1014.8943207580686,363.2859956421256 1016.9190965478481,361.4255696508326 1016.9116007609313,360.0052587191069 1018.3334833112299,359.36688838954086 1019.0425374910436,358.55369230680753 1018.0448041482143,353.3455719021909 1017.8631853409635,351.6418295532755 1017.2687231881946,349.2444569693597 1015.6386712845181,344.6856081334623 1011.5259557483395,336.665299448622 1019.8967178219281,331.89796978210984 1019.0318419872667,329.95644042624826 1021.8628620925168,325.70716998874224 1023.4926494302822,326.38441676585023 1023.5056370725644,322.6232779749637 1020.3326738062693,321.9719252477837 1012.1087184677432,319.9242923714248 1004.3823579916178,316.84041378787697 1004.8191764539023,315.2561179977463 1006.2868202960084,312.6997798048077 1000.7354133234564,303.7587870662912 998.9618826975552,299.4177312476686 998.4414721419554,295.848488684461 997.7095512154798,296.27440214049625 997.9220362839013,291.38536743865274 1002.3132512409227,289.45311673963215 997.3431327581912,282.18714547467556 996.3733639990196,282.21018733381663 996.3652185902049,281.6804430965505 993.793845197926,282.105112093553 991.6530626795701,277.7515050073116 991.735870458698,276.87636009644757 991.4326136229062,275.1634571343259 991.3569828784774,273.23943215789376 990.2271736290738,269.74618024272655 989.5023248339666,269.7707228191954 989.2081612407964,267.4158590551879 985.6762851944809,268.7234639368398 985.0992827862563,267.667206579341 981.849126146635,270.6823712092772 981.3799585079572,271.01899066793624 977.3921986535242,272.15854760984337 976.6662753370887,270.61522486153603 975.6707360501576,267.44378842122546 975.4178249174948,265.9862788975942 971.6827375248317,266.12798695557575 971.9562289997453,266.9746119405926 963.6147186914347,268.0716674673698 959.2685010026556,268.5750133467499 960.3121927636447,273.52693922246857 955.9502940407402,274.18507496819194 953.8332488985078,274.14269841611554 953.047918169898,274.49525984140735 949.1543785242391,275.10501440232576 945.224166759973,275.21873058057406 943.983751804603,275.7299622528358 942.2127004978436,276.86958702591494 940.7282202996656,278.0361225993879 939.5952629940939,278.69914403465555 938.6068019159112,279.7220236932061 936.9060726248346,280.5209645463789 935.7491396352574,281.39384785512306 935.5066871041131,282.4187280378264 935.5103075626051,285.35125209281773 930.9375101376204,286.15852136425303 930.1600248035379,283.0048304954119 928.3888022258174,283.21210360436123 928.5107267908251,284.1448891010299 927.3233946270598,284.3926577620722 927.0316924449724,283.6042861799448 922.4888126655278,284.3832975024138 921.7644634822193,284.42824664713885 921.3113868695186,283.3614834392216 913.5879174828398,285.3552691814957 912.6859003038725,284.6352456531956 910.5365489032043,284.5332082959651 907.7745590121489,284.77729425224845 906.9655607343723,285.0388575302337 904.5187507895185,285.22386560025916 903.1399444787302,285.9045670136999 901.7751481422974,286.0449052647241 900.4856857583318,286.9475478533283 898.0151317326583,289.6115664322357 897.0763525730436,290.93614978500534 895.7413138885595,292.0170204029576 894.3840590128993,292.72899828396714 893.9015558703928,293.6380373984385 891.2744713764998,295.2467330711233 890.3120047085822,296.80339756276237 889.7742603118488,297.2536401904621 890.0385266646921,299.1352026830564 889.640118806317,300.7640949307787 888.7772074356071,302.247290825528 887.6638477556601,304.5419727508397 886.9809661285409,305.24809019489476 884.2702914468632,306.8275549069958 885.0799124648927,308.83165067491825 886.4577136822073,307.46538854932874 889.3166114705499,305.0725537435592 890.1595978317647,305.87095799186164 889.9029309028155,306.48342997239627 888.9610895518795,307.4185116486912 889.3310864112206,307.8028141659312 887.4863263741396,309.2748641812343 889.1378408930246,313.318308537352 888.3048919046965,313.83159328286234 887.6186378474871,312.81986092296376 886.1666024458135,313.7866983749486 888.0613769293072,316.14753600368886 888.2698896912791,316.5964776110689 886.1617175532033,318.815044551436 888.4370170706601,320.26934083384276 886.9848011863683,322.2117394218057 883.5422018427719,320.71891935954903 883.1418840893859,321.6574632075196 886.1111350875179,323.05860406381174 886.0329594291642,324.14822253321563 887.4091096425144,324.9563238806203 890.2205091209487,326.216700554755 891.1511071534444,326.85690917914434 890.8307210140252,328.0451482805788 893.5216314575674,329.66878570184696 893.251793022525,330.83973279320986 890.6232918399894,329.24634482849063 890.3132242038863,331.404011246993 885.7504017468982,332.04083635298934 886.1659559175869,334.84026644358516 886.0101802059762,336.70945263982173 886.1175497108129,339.4706478956961 885.7090901426279,341.4445222925033 884.2881207509125,341.16190150608634 883.3120796295037,340.7056824805714 882.2368680491704,343.278371148628 882.2302071694445,344.04495302791844 881.4206312483,346.61587499637426 878.8066833693055,349.4037757888542 875.6218746429488,349.3373656560869 860.093317586428,347.8539340786674 858.4322320760394,347.7449483856548 857.9425794439239,347.47074318153136 841.5348718319483,335.58889097642236 834.5890302359693,330.52986023130364 821.7095722962201,320.970305359853 819.1284709397403,321.5143328723304 809.0782885515363,323.29390721096433 799.097880229866,324.6881145669115 797.8168580242389,324.93525068378244 786.4468585129747,326.3951571196483 777.9956414432501,327.6447186689795 777.6479809745009,327.63834271852943 770.8853948748578,320.1578249393857 769.0347116628241,318.04256996798074 759.6321111231954,318.1914687316348 749.0939533596681,318.27507749424615 748.2669202926272,318.31443388359526 737.3601545295103,318.40013230197013 732.8608664988092,318.0034380008327 729.6397052730007,317.6232023324585 728.8228697471058,317.3031938954458 726.9931948919568,317.3009751214208 726.4412142478235,319.4903728478935 724.0387473576833,330.432136519257 723.8525230484241,330.7208712121952 718.5423634372232,331.35717745423153 717.5113740368458,331.4124147787695 712.5254594650237,329.73620186768125 708.9489241023896,325.40769050859933 708.3526607508978,323.08426346139277 703.3630407199887,321.605605050289 698.6558854354247,319.5888434429615 689.3893791202697,318.3064005654258 687.9425003519616,316.98626512864496 686.6016783747709,316.171513059677 685.7284671848134,316.0242201001879 685.0008430837293,317.8376043906702 685.3828778870801,319.090136168898 685.3214892326912,320.2216715754185 682.2502676271215,320.06964346840783 676.5332342774011,319.60305327201877 673.4302654100496,319.40915260924623 670.1792482888841,316.72874330137597 669.850621401507,318.95429499404054 654.9092829342131,314.5039018095878 642.146841713384,310.77921355501087 641.6813857673317,310.5616943778239 642.3915178738968,309.1941791556551 632.0495293037285,301.0053536915148 634.3978085119803,299.37615002865545 631.2600391583854,299.73664541229857 627.3162258653216,295.4251480039534 621.665979386403,289.0988139715416 620.758391930123,287.9726805347625 621.1672301959031,282.8379505458015 620.4032159465751,279.7774499844202 619.4596954835578,274.0958676120762 615.6395845106887,274.841639597743 615.045122806455,274.36438366481667 611.2729484388708,274.61102205871657 611.3420760579377,273.7166597628402 610.4202541469882,273.61718726530296 610.3524099265803,272.1701295059632 613.3392315193074,271.5743401595371 611.1863401352564,268.8494488271408 610.6628098483638,268.3554433921263 610.5362335496485,267.3958565858411 610.0884717337225,267.46107265493106 608.899704046709,263.3162516417251 604.453304269901,263.49949935110106 603.9029134394669,261.92592042072334 595.0940256010701,263.192231766602 595.0081008225646,261.0133897567767 593.8858125830309,261.0575287752905 594.0441374601553,263.26180968669604 593.5713943903182,263.5514693640595 589.2817350072681,265.49376445515384 589.603884336534,266.14266719831573 589.1516708571368,266.42184350141747 590.4690494925588,268.4572126992648 589.2234670608944,271.29030636022145 583.4347028405209,271.7408613957171 582.3392738307783,271.6187450311718 579.9267985860303,271.9146874513899 578.9849753227618,271.8200545249895 578.055728189048,273.45813361118417 575.9754824097117,274.37613960323546 571.3368402328528,275.9303469383775 569.3193968954245,276.93739077674223 568.0946713644885,277.3743256648055 567.1059364048401,277.4467211036874 565.5016795430165,276.9888574686828 563.3240856683211,276.0640957111017 562.9605947137958,272.9020548642444 562.3367492246006,269.1381754356975 562.084822122231,265.54115760653565 560.6878128418673,263.1318070427088 559.8943453904128,262.81992801901595 559.2593493171835,261.9107675688111 559.1301527449638,261.22470335808265 560.2432502586886,259.98414016320305 562.5926373702808,251.3528974476963 562.3447072448649,245.45415844709737 562.1484054517324,243.26812773111078 560.5610475250251,235.17515555322547 556.6300876237653,230.89670260344673 554.2670536771606,231.47283135259704 551.584778549315,233.57395767906667 550.8593830681717,232.28262462386118 550.5470896306557,232.45636314600625 545.6128295851959,233.43689592411613 544.9907078188454,233.4354883480699 543.9867731532471,228.21954694750605 541.8110668004379,218.4296773252126 541.3174618349361,217.42101405571225 538.891861552151,209.88660413719128 538.5722481468509,208.485290368858 537.1764244593383,208.52398613480557 535.3792958712482,209.2615505731785 534.0747417234056,210.13676179608797 532.6410859756553,211.5860911863703 532.0713276215383,212.90800419482304 532.4836206942701,215.62112123707954 532.5667101078055,216.95956433877154 531.0707766157535,216.66990640103637 529.3873454947525,217.0516100024348 527.757712203457,217.14437293488004 526.758510315087,216.7253310780356 526.3269318657537,215.7315680336722 525.8730808559253,215.52342086255004 525.3291228031804,214.52159257575875 521.8813149303322,211.90811038370526 520.2436384976658,210.36618236096496 519.2924793600931,209.8177533129354 519.2416129609254,209.3809687231854 520.5394405659943,208.65096834675273 522.0418056143731,207.52599285196857 524.71921940476,204.36556521848564 524.7932588780145,203.61589668340156 523.9091061471237,202.01973199230957 522.8378649759017,202.00810661649064 521.7156702210209,202.3819494950078 519.6137695413129,202.31463354874586 518.3692492728677,203.13921316346 516.1617813319872,203.35191740785393 515.1373185625288,202.7035012916562 513.9190434190765,202.9298484043456 512.6268182715049,198.7060985075999 515.608042809447,198.04301467977132 515.2459183598112,196.96239750405158 514.5864804570117,194.06908215086082 510.10570939596045,194.68238102963358 510.874487091884,198.74169447461298 509.3310068344971,199.00286809711372 508.5208825435641,194.90070988042459 505.43162566074614,195.315481340911 506.3483134755284,199.19039804564375 506.460754262625,200.06290740525543 507.58205605925986,202.23062294707603 507.4024802289112,202.3893821749307 506.24568347699426,200.01507160532657 506.00178553220013,201.792589177891 504.7887101205465,202.21608059692596 503.371553878402,198.29915402324673 502.5884379718293,195.7713860754763 502.2460463995386,194.21091181113303 501.9753823230284,193.96024036603131 501.0711235307698,187.11325702051033 501.09117763805256,186.21615204524255 500.14318027222384,186.21683576494422 497.72868850267463,186.68971365457713 496.1946347951251,188.20883397544708 495.4072453788508,187.21318659441374 493.9493697159865,187.18841815017316 492.8761299505368,187.49679879185862 492.5033126232704,186.35264533398555 489.3615198379692,187.97244872717562 487.0850691029477,185.61864911432667 486.9405821989091,185.09392796133517 485.6894176945241,183.85265481358113 483.6970452207857,182.2978696035525 482.955593278165,180.6448227332279 482.023839763979,179.1085286801174 480.5301613265528,175.749737701021 478.5041711319801,175.8069552068572 463.94712467444555,175.87134855661935" /><circle cx="629.9253403016379" cy="412.3878267980181" fill="rgb(100%,100%,100%)" r="16" stroke="grey" stroke-width="8" /></svg>