<?xml version="1.0" encoding="utf-8" ?>
<svg baseProfile="full" height="1024" version="1.1" width="1024" xmlns="http://www.w3.org/2000/svg" xmlns:ev="http://www.w3.org/2001/xml-events" xmlns:xlink="http://www.w3.org/1999/xlink"><defs /><polygon fill="black" points="616.6280377193218,1024.0 620.9073488017109,1020.5629110416361 624.4716280193169,1019.136452223921 629.3241642196313,1018.2692206834242 633.6005361039332,1017.0925345481553 634.5803637861954,1015.8315989336127 633.4567701902365,1013.2783260230214 631.0320422709348,1010.1541273107887 626.2076271318127,1005.2748004357611 622.7053905342216,1004.4319922005038 625.9535126129014,998.3317261243319 627.4684192543838,994.4160402587775 629.7123054460446,990.5169121963976 634.3050210947772,987.1535256364093 637.8431009479026,986.5041612068657 639.3412961828514,983.0796736020196 639.3384176547398,980.7380843812906 638.6977071075955,978.5063266183593 637.4194897603012,977.5468403474396 631.8529092335993,974.6872070215175 627.7944096203674,973.8509138405054 627.478945885182,972.0396256288597 627.8965653131783,969.4776782197705 631.3273358257279,966.373237773518 637.6345961201737,964.2199495613152 642.7706068667804,959.9414111495795 646.2944274808216,957.4814066787982 645.8635454982467,956.3134653910445 635.3789372685628,951.8576397672132 634.9602809330356,949.9532748226507 635.1736909477,947.389908052118 634.1086364310784,946.003304556628 632.2832285552216,945.5814533747698 634.882624596827,934.4700747722668 630.90841229302,937.6311264232639 626.9515208588585,940.3123435434808 623.4883678801809,941.5149604397153 622.505926135289,943.3685824398198 617.3960895681386,943.8847444458066 614.8667728575798,944.6125478370806 612.7627773942778,942.88108933493 610.9859209778788,940.0882344100478 610.2101234062236,936.6800982676145 607.7505470552007,931.3598960519571 605.0790429207873,929.0212916662624 604.4233977877959,924.4899946507187 603.2623763083249,921.8861448105642 602.7218625829529,916.7628683872033 601.9174657986043,912.7719561498286 599.7725230730597,907.5769976399366 600.5990928884038,906.4280878513498 604.2858103508177,905.0543303801827 607.0080970514965,902.8050607678665 611.0269676276664,902.4753536401225 612.9446231218025,902.7851982915711 614.0710897850232,901.9039239053276 615.8354042688105,899.0152503370208 615.7524714573866,894.856238116466 613.6653347048813,893.503379881558 613.5607634836309,892.4402633646077 615.1111924912441,889.099740742771 616.0708724703752,888.6163234942244 617.6777787146676,889.3319629579767 617.9259829017215,884.8596270549778 617.5917523452457,882.0678937258336 618.4819483737175,880.2149409186018 622.5668295402804,879.8046060989 623.8638632429827,877.0858188861293 626.7832420428857,874.7054639691492 630.2447775566368,872.5122892680045 633.9532836236311,870.5670974536536 639.9792971511096,865.9189147079846 637.2617965541472,860.9360664178035 633.427682665894,862.155522702524 632.1975011847883,862.914308274469 628.6695858579992,863.3184558684944 626.5843885640454,861.730954282888 625.5415155570032,860.1301385581417 627.0288748520463,858.1593996858489 625.5386167773428,854.7771389660974 622.7676619201142,854.8502466912984 618.5539773490565,857.7526763531424 616.0601196180365,861.1777210336336 613.656329978123,863.0097833078321 611.625704764855,862.903141247717 608.7335807490806,860.5745309763143 604.2649376567066,858.7954267680751 602.0320040529207,859.627731546393 599.0776897589834,859.6067667811071 596.6242851154119,859.109444038367 593.1870539931004,857.8698551930363 590.2485639680727,855.641939826129 587.5751890471748,851.9659841816232 585.123154258916,850.4779516162193 581.4681031585756,846.7845588659096 581.0787388817454,844.3810897054736 583.0191663707863,843.231322050257 585.512278822202,839.1536517130198 585.4384059689723,836.6408329018814 583.6578152624404,832.7979924746118 582.1867152253658,830.6728534375286 582.6739510116711,823.0984324372339 582.6747579421146,820.2089157667658 581.4656707985358,817.0745753263536 576.6333968650673,807.9411780196765 575.1810383711,804.0916121865647 573.2503890260344,802.1683284064426 569.3833550735646,800.7402864069298 563.3437614345227,800.0327267634071 555.6189453632081,796.9233718493024 552.7955406715275,794.3285916138724 551.0933557086429,791.6817672429606 548.9792683557941,790.553629519894 542.214781786279,789.6038028877932 539.8096477344603,788.1667072165847 538.3493017073272,785.5215474553594 536.4247454316145,779.2583602629549 534.7431460115453,775.6530133191643 533.5296267557007,774.2144989856149 530.6378313065255,774.6918508174509 527.2577137275217,779.2817001629852 524.3621621028478,780.2400877544094 519.295538744816,780.0078711450187 513.5182635532741,781.9436768183629 511.58309864977696,780.7342913474316 508.7019103208164,776.424017090077 505.4280294171998,773.8569965395208 502.02176028781474,769.6759945465246 501.52968469238624,767.3240751490582 499.34847547038527,763.223028639537 498.3862088869392,760.5813211580898 498.6335742681215,756.4797872864872 499.8334681630962,753.8342735584395 501.7668722490102,752.6251064719987 507.47836447322186,752.3932328016681 506.33256479130375,748.1783289092568 507.07854354412495,746.4698082302791 512.968585204498,746.7395473971874 516.4232469012329,744.5499994657634 517.9272264383549,741.3767594772258 521.3618927278244,741.6377292790941 525.5309834182603,742.6188950177291 535.3445526819628,747.0620085775026 536.785383799714,748.7986294125651 535.3453501874012,753.8509890681918 535.3504409460369,755.0545910172057 537.5099712999119,756.0203165917862 539.2032263762972,755.5325990739266 541.8550851601568,750.2236745514017 543.4343747621853,749.0524472392668 550.3367775237459,748.8177308660565 555.7552765859623,748.336950413494 559.6961529816851,748.3557848210513 563.1524100488285,747.62547776619 563.4083230247328,745.6680526196101 559.740758158904,741.5068739860277 558.7578653409472,739.7956526674529 558.2919379583522,736.3624574087771 553.8869995823185,733.6648478746471 553.1544669003488,732.6804017201655 553.1763923881526,728.7709163391307 545.0874851401328,724.0979186298539 539.9600706607304,718.2213583038239 537.7405274530246,717.4694695802182 534.5566158822476,715.2616435891598 534.0802019039982,713.2987256624476 536.5864772875469,706.4593056089434 536.1099490489757,702.7911197700846 535.1368088491213,701.5699567634738 534.1297196332189,697.979883010137 535.3413809397916,690.9882853006175 537.5197217705102,687.6172349618078 540.1711984957523,685.6880940701785 543.543768548836,685.4375064909595 545.9557417204863,685.9149046281048 548.1283835287493,684.2168738299711 548.3764707304624,682.5352683449107 547.4069739896001,679.8848023714339 545.9598366711463,677.4873838980538 546.1986488731475,675.3155574054426 549.3360466386155,674.8282920393276 552.0045166290488,670.7267749668024 555.1355808306936,667.587144714617 557.8551588137973,663.5462276797062 561.2379342339053,661.846732495936 563.6514052721259,662.0788216994599 567.022774330814,664.4812565216579 570.6474687379987,666.3953235742083 576.6873852247021,665.4193961717289 580.3143352434078,663.4762228948645 580.5577799113555,659.631217625784 581.5192043645862,657.9342288414709 584.4217063535463,656.4861231150708 584.1801678335307,654.5571363524459 581.5194106830377,652.3950261465006 578.1428173651389,650.7178053408417 576.684895614852,647.8406930799977 574.5182976277182,644.4682348532006 570.8397521017954,641.9315213836281 570.1767079777077,640.5088102962486 570.0558035938884,638.2124209786086 571.1630800118388,632.6813126820949 572.4024056598071,631.2930786437105 575.3046128959033,629.8348791635369 578.9297159989642,629.820276388042 583.9953101991958,630.5307492686891 587.861759556955,630.5177006030797 590.5213529718849,630.027519290496 591.7385646850789,629.0675480692925 591.2520697278807,626.6556337159686 589.5630344224402,624.9715420067084 585.93847492059,623.3029284998486 582.7890242784155,620.9037409806842 581.347828501968,617.5366230444779 579.8889430996916,612.2433961690124 578.9275888757911,607.665911247344 576.3277738185867,600.9875225017643 574.4019659545387,599.5453151499039 571.7386501660604,603.1672986696093 569.8115617672308,603.662547035589 562.798724708623,601.9889827875006 558.9413240095852,600.0742213124569 556.2782913731772,597.4330137342703 554.1034226178026,593.582835317909 552.6632227391968,589.247945781847 552.4159193251104,585.6353642854347 552.9046430272275,583.2331341922052 554.5961010668699,582.7453181566743 557.2390474788288,583.4591552022912 561.0120300872962,581.9371283462687 561.984110910341,579.567969174635 562.5056785445968,575.4106356490756 561.0439502883155,572.2291906441985 559.092802933211,569.0325481655507 557.6455408682883,564.8721412841679 554.7020124406129,563.1577769978201 554.2111145106591,561.4411313667408 555.4827815921909,555.821489831265 555.2474866445898,553.1277160345137 553.0521299769748,551.164822191935 551.1087738721594,548.713621899917 550.8772329152428,545.5297050473285 552.8600140280623,542.8537827534918 552.8685432876736,541.7118526142588 551.6999491460882,537.9512188638405 550.9681506506212,533.37776438291 548.7991622856886,525.4304167525465 547.3505307611482,523.2689993523371 543.4813072823962,520.3849060158541 538.4188290136709,518.9506318831725 531.5387002311138,521.8445613063839 526.4314966352072,521.9583386306691 524.9612080155056,520.9783258483283 523.9832117223085,519.0140390256299 522.5203306264499,517.8403027923384 517.4911705743791,511.3397289741704 514.0345741665092,507.6830488465707 512.466889540367,507.45794216709396 511.0644280455928,506.253764905892 510.65512389218975,502.4383331589737 509.47350971848897,500.52369394787036 507.94719192724034,501.0418108798799 506.7038555832047,504.50824771477403 504.17973882050046,507.15889791154416 499.9078722843761,505.810385148873 496.05073341634403,502.4376038484677 493.87321889357025,500.0248773988178 485.44771041154155,495.68821628959574 482.35881911863004,495.3468640485668 472.3628649533828,493.7289479272903 469.6956979812959,491.26064451115997 468.92052459271844,488.60468986000694 469.86481165637105,486.58481876895905 470.8276629642592,482.9739523734178 470.3439412333211,478.8831701021518 467.9350489857006,473.57464407170255 465.5307831303578,470.2024285714059 461.0543615453018,467.67965235505255 458.0588359932935,463.85343888160867 456.3354517026115,463.59571862425855 454.63100427755063,461.8701691725172 455.13712376958483,460.661653070788 459.0780432829957,457.5034834680755 460.8298731281457,452.6158391606177 461.34369400416597,447.22931925184434 456.48261197061805,440.5868154078721 455.60016662956554,439.041135555452 450.860571320106,434.29597536051006 445.32815174846195,431.63195257021437 444.8456189289122,430.67075401592126 445.3356906316837,427.5360611374492 446.2968069941667,424.17166630195686 445.81003610953144,420.56063862222163 443.41217507708393,417.42418089951 441.7297529649034,413.8033577215167 440.27946255633515,408.98334118740706 436.9211991940556,406.5716050428181 435.7134634159078,404.8806867063339 435.4741681020946,402.95391809409443 436.6736951653557,399.34643796063847 436.6707183405261,398.13507201931543 435.2357361902301,396.20745156864496 433.6798683135533,395.5427749421858 429.2599189782623,396.02600019220654 424.4199354318082,397.39231883904574 419.1883454430265,397.2051232971887 417.7397029240361,396.2357815580283 417.2605021890466,394.0618806416916 417.0257448208552,390.21029538307255 416.06231590958987,387.3188830788936 413.8974743830022,386.1086924502381 411.7374812815698,385.8673371574737 407.8035861736669,388.2685976066738 406.0972479285222,387.6229163103386 404.633069333665,386.1438825345732 400.97034308316603,384.4011951198303 397.05640168024223,382.9013894337281 391.65307142371347,384.5763527530934 389.93692886652883,385.7846679751385 386.01332121233224,386.25040878994264 384.0620821387407,385.2456661062196 379.91091948684726,381.8083126845719 377.3392228691379,378.4549937308875 376.61703162804696,375.07775230733955 376.58889241617857,371.5127043929681 375.4435272787863,369.5061526268005 372.45866072758764,368.7066600859448 367.54989082568216,360.658180594741 365.86347992502664,354.7779158415426 362.6886600656522,353.283633827945 359.2643498544061,352.7752074106369 352.90845540451687,350.5292523295649 350.70762035522097,348.3002463072065 350.22813134448387,347.08466482552944 350.975339096566,345.37936762110564 354.4202795025284,342.70058885160574 357.4022585729953,337.83876364264484 357.6572266952855,336.3652615368162 354.97279584062295,333.40833599298446 352.77305858323945,332.42153190007525 350.82686219844857,330.93773751817537 349.6031012284302,328.96235899520445 349.1377340212173,326.2801435397744 352.68713101159864,307.2088776747877 353.14530930476116,298.9051539186179 353.4372756918275,298.4393265940863 360.88837346096136,295.3181314391403 362.57604008118744,293.3887164756926 362.8152653567678,290.7434663808805 362.0913950111928,286.1662456355465 362.10181903087243,280.3840321204607 363.7793627914253,276.7644876043654 367.631471651217,274.3649362968821 369.55168305431295,270.5138954785182 370.03129217548013,266.415520643303 370.272426456195,259.73960373354237 369.43736152975737,255.92625502672445 373.62469494933276,253.2754113261268 377.566050062472,248.89253149373337 385.98083272685386,237.45423350511976 387.7124795014511,233.30624352146685 388.49587624496536,226.45402521792596 385.3598523204419,226.8749812617258 381.26789253577397,226.8705939917745 376.7070337842701,224.44954813541085 372.6165983537791,218.17627828073034 371.64745491927255,216.30587896325085 372.4921750386041,200.1545002808516 371.0386279241157,197.68958911926381 367.12788730677136,195.7011861273951 363.9305290642647,195.67331197915234 359.7618166701327,196.34010059170748 356.39554723081784,195.48546404339243 352.6903705090483,193.11352615990563 348.52254882891765,189.95334164832434 344.2468789479448,187.18861523392582 340.0156123324327,183.80306041843824 337.0929884468385,176.41239965416742 336.6057011278736,174.69874609794 331.2981417810662,171.45605704400123 325.2711728688437,171.2095929638184 318.52702064387574,174.58683422998138 316.60474124037216,174.34620418472116 315.6363267322162,173.14657680108405 315.39901524439586,171.21181380226676 315.88674166364586,168.56111356656731 319.5031635046142,163.98548463604664 319.98376392570884,161.3347104857138 318.4552871671163,157.93307255739694 315.135516219722,154.25087285735617 313.1851482946069,151.30477362329736 310.508673175197,149.33762322346718 309.06175523751324,145.65172647315046 303.42870495322023,141.70440384737356 298.55044812968237,137.2761262981926 294.28714096846585,131.99865674196326 292.4306202781911,133.09037381922735 289.3002594276234,133.05131228495634 287.02538648699766,133.55008374191493 283.8290910457556,133.53084158607203 279.62745359337833,135.7184809678347 275.21596906978783,135.2104169276903 273.5053676338664,133.9740877945694 270.80815043920126,130.78562176114474 264.1885433131303,128.5472806368116 258.2984429248025,129.26456544630196 255.09380265275954,128.76599798158963 251.4229938235917,126.54460805599149 244.75940256712897,128.24224612499063 240.5900834929761,127.72396861691163 237.88419378230714,125.52170112854901 236.68330599741876,123.55704119229858 236.2232101297802,121.2144430834037 234.6635565419368,119.8264023353023 231.76681083845975,114.53067043510237 228.8654460733418,108.26848481198692 228.87516988205354,102.48206142842844 231.2771683560475,99.59578487876104 239.32076324141778,95.22976574100801 239.58637797095506,91.98805669390288 239.1295681922228,85.86224896725412 238.426386671227,80.96479246627598 237.22566557371735,76.3166761069416 234.77426882728574,74.10645810187941 233.0611599227145,71.88402081147876 230.16049166655512,65.02376472519086 226.74853993845946,59.135136496144014 225.79127714434293,56.919873844715084 221.62754170111518,51.27797400900158 216.97560630733838,49.55567057537894 208.6198476577964,48.538980019102496 205.1859351485967,47.06174801369468 202.99374871944383,43.86919478858192 199.5627350677715,40.673459683056535 195.8970793985104,38.20813194565949 191.70762894335832,37.953906630879715 187.52743051408666,38.66474511197464 182.6015632756694,41.09677657127281 179.39753677795852,41.319129694572894 176.44971743456023,40.079654282874685 174.74571863451553,38.354558957053655 173.7954640501888,34.930080277395405 171.84815268267818,31.494371475576713 168.17119076913536,29.51594116359786 164.73311915259046,28.52672228474762 161.53475670630115,29.490550977652788 158.83350232653606,28.498329411126406 154.67989291479114,25.294300542992346 148.05908305443612,23.043133602551393 144.43954937320754,23.890707025806137 139.55440399683735,32.43971105212631 135.70279849760541,34.85046369995791 130.89562985165688,36.957471930271595 121.7280103857294,37.737485999222145 112.10790798522062,36.76433237643698 106.81347767275906,34.34036911645546 103.44698404799598,31.448582647663784 102.48287779951546,27.585808860593943 102.96349314992285,22.772943264403466 102.44334306751567,22.025730204601246 100.03023980779801,15.149833249787662 95.17925110617034,7.759439983878906 92.01535736972185,4.302214918260233 90.55815798011223,0.8615392800729751 88.93202254475014,0.0 85.26335102245854,0.5107506826002464 77.69961380508725,3.7447798590027332 74.93209845540298,7.21153138336615 72.17176280361093,8.107643668973196 64.81979203627697,8.577587684302216 56.540811960368195,10.492686676760854 54.69875075797412,11.397041926187626 49.53406926316844,16.485633615565916 46.410534375191254,17.743199508404132 44.936340188592844,19.008198113239814 45.63654640701553,25.459798735527443 45.617861139865084,28.397351581928547 44.68553664436322,32.06817841551026 41.908660879474766,34.98630430986964 39.32675250541345,38.63804301236587 34.71753196415239,42.25884809911463 32.68028015618781,45.54034042140927 28.838207177443326,50.45016046846274 27.272801122607653,53.48387815602905 27.35272374064466,56.93074879551398 29.664059044121917,61.51070158054142 30.53121982107153,65.08930334112245 32.71295866798387,69.6280057212955 33.05499597580955,74.78721288662712 34.017752248040054,78.54906100655012 36.08342883269473,82.9953170636901 36.14226885155064,86.02610452920123 34.70678206772686,87.2311412506964 29.865394646519054,89.83290554558369 20.547234951778606,91.47078841785401 16.66812370708455,92.54766942933713 12.33832729552526,94.79772174100185 13.360983448999805,96.70067422609577 14.871138348049467,97.60273347978568 17.57804992397614,97.58092512624091 18.959302483145944,98.89736899589661 18.456449561142552,100.77339375776478 19.909239979582033,103.93232050285201 17.437301388909805,105.75609830121368 16.111286018627517,105.93543936496951 14.072669021300168,105.04816325566787 8.629440675857023,101.21535183480376 0.9303295381397467,101.34516459581414 0.0,102.90071712436054 1.5801625256285496,109.92564832495975 1.307013098619964,113.95005701633102 2.7259088281151196,117.29230525896912 4.716671522006191,120.09021951180728 5.413657240570163,121.93958582457276 5.002358858112547,125.6172336015834 2.5516436691122806,130.16704924245573 2.5143347033579153,132.92344602149763 3.4173431393218103,133.86897759238605 5.346422605572226,139.42427342506107 7.155554459644646,142.22142380543846 8.388789691381666,145.1855131244689 9.050732624757837,150.900138293002 9.001569863027388,154.21596657389512 7.4718810156863915,158.59368039349897 3.6976778682758527,162.4796314321501 4.061251654435797,167.44918362257135 8.392455332610322,170.51775341526297 9.910599000284247,172.5801089283898 10.62338097175281,174.73376713543132 10.624050151554723,177.68563858466018 11.103044218292549,184.0502022899111 10.83862887094567,186.11233761289373 14.921056906895654,190.62438276820865 18.341794123751225,191.73963223148678 25.115670306644752,192.41368210564292 27.389279916574612,191.55270718914142 32.296975496739456,190.37486426866838 37.42778065995932,190.17594458189524 45.98405028838469,193.18736158774766 54.0477105439897,194.72871423296374 59.16218235417327,197.95815170337414 60.84597809473379,204.09135687535127 62.059553407726334,206.05880920623645 64.00950156428614,206.81225035856585 70.15696693463751,202.45970809721678 75.06650521136814,201.76956167783703 80.20300481744155,202.28032496204946 82.14724357897641,204.25526448556263 81.14337233621038,207.92806165614024 77.82085838469428,214.74266111600514 77.41367598699642,218.17785224087288 78.01472687523338,222.46935845878852 78.89818178927385,223.46553266009084 81.54153969790389,222.86177467477125 85.40828208075666,222.6480567720331 87.53194609880522,223.66738311171616 88.8114056116779,222.3986195456082 88.72052998245864,216.68793853050101 89.44162087657203,213.87715587538332 91.15735614262634,212.66297195909885 93.61706304924192,212.19059069435934 97.76539009289338,213.67870339298133 101.46129035079589,212.24107979444454 105.35863811447429,214.72357597901157 107.05911768831395,218.17026106401374 108.25468555028849,221.8363151054125 107.98473121680381,226.49471785068727 106.95831044389921,233.0896275095996 107.19682244868929,234.56795203572528 108.65448977068289,236.29367565566793 110.86250140227632,236.7937821540919 113.80285173719005,236.55958622827882 117.00678915753005,235.36166604252878 121.67765175497192,232.45768180708342 123.8955940116634,231.98107944493142 126.08947293636406,232.4821194250975 127.31945844632185,234.20406413164926 127.53778445102215,236.4149373900484 125.56273951292157,239.33628957704218 121.61944957363089,243.22573376033665 121.11130095981339,244.4410198153705 122.56209425853066,248.1313491539894 120.57729209778759,251.29638900587747 117.86324358215148,253.7327090393078 114.41389675202745,255.91633682209113 107.03402081227297,259.2915348377634 104.80543122247585,262.69901908195277 103.56577103396185,266.36051065334743 103.77957937346957,269.7841543899135 104.49748180505773,272.9781328756442 103.99523409674156,275.42546121516034 104.47341593389513,277.1411039466242 107.6370881267676,279.37332220553196 111.54978602540714,281.10366117899275 114.23877399401265,283.80828106122556 115.90028350912863,291.1660528682055 116.10012307818319,298.5191326113352 114.10039036905579,305.60588960801135 110.86824314553725,311.94721350807663 106.65693616029778,318.27843357611755 101.72058666476642,323.8795688724547 100.12501403263752,325.3094745641448 96.54726238460523,327.6968269556452 92.52356428758978,327.053333442724 86.17165407761627,329.90069118383576 84.89264173557885,331.04884086740265 83.04399261114585,336.671270327991 81.01842216145712,339.97023895019606 80.52384714449092,344.7930940575345 81.49072957740697,351.05698084617245 81.00919550582228,355.8697017706379 78.12853861425135,360.19926387115197 76.67756696738155,364.05474563951066 76.20370873448101,369.3564971653111 78.0183800111455,374.60126155238163 76.84605164788466,380.4770900798111 77.06859656792234,384.1677817154982 79.98126693491106,388.09952083202325 79.95339944558212,392.02116589962384 78.45302500368341,398.1194565288383 80.1479262953896,400.33804512360655 83.08372092049854,402.0792578864937 87.47648528898586,403.82652102445104 87.94746565888597,406.2671943997992 85.97235250174583,408.94562731309156 87.917034995663,412.3897386928991 90.83436609586987,415.83360241165167 92.5131441595673,419.76385395121906 91.00842732968825,424.37478624504195 94.23296498296877,425.99682395882087 98.07725232441597,426.48555818307307 100.4884115448928,428.41480444213835 100.97410859091005,430.8247687088983 100.97052424511992,435.6449560117842 99.52242539177706,438.5342921150087 96.1522865172671,439.4891138750701 93.75214179179068,440.93126673306904 93.27470178197771,442.862911409713 94.23174246447837,445.7564372959606 95.67424964658069,447.1983578012495 101.62222824651175,448.4824560066123 104.0934226628616,450.44432121665545 107.25660243417755,453.6452153801167 108.45660753374868,457.08268371369786 107.45483532225205,460.49639038893633 107.93870988349671,461.72434601270004 110.62612403019499,464.1977822776116 111.09964358618917,467.13886662146945 110.83450107264737,470.071142130692 107.36665914129233,474.20532644050047 106.12985251626961,476.8928291697091 105.86112061716474,479.59149702097045 107.31171295138257,483.5101952325068 111.43861880884955,489.65831952516317 115.3457088402782,493.84701671863877 117.79346523340762,494.8407511975014 121.46770124840172,494.8574124365631 122.93048100954209,496.34031636677366 123.8928313353429,498.7960437717144 124.07983330370433,508.8296378699115 123.31182259205636,512.9913884012349 122.07206160335195,514.6921002273978 118.63528379091615,514.4225021633395 116.68620867293379,513.190023578923 111.28643145400758,513.6446917401893 108.58555606908531,514.3718050097975 106.84962854727782,515.3230296433371 106.57275255206329,521.937033108281 103.14038471537202,521.912279091297 98.47372800586726,523.5970436062482 96.98370943572068,526.0290858242522 96.46035531248572,531.1634530960599 97.67130737134916,532.8878211286524 101.2047261365108,534.6782814864404 101.20826430247246,543.3150963501628 100.23971246040817,551.0243947356703 99.75980085738662,558.2497353171866 98.80494986814142,564.032894976405 95.43470377313328,567.3940783522369 90.1397254070308,568.3497320174414 84.84838886246415,564.4914886484654 82.67175448770817,561.2055251810289 80.56431614093353,562.6210875344402 77.34690363707504,568.2383172152163 74.88362676888516,571.1503468203709 70.95001525593601,572.5879221750563 67.03103588582937,573.2914912589638 63.58733405656057,574.2450467524251 61.13777274657569,575.6991590924083 59.39584146196706,578.3733963233735 58.65033031901077,581.5572646030744 57.87051727787137,587.9042033992591 59.052146699162776,593.7916870578993 60.02455049341825,595.2610049785342 62.47014143347241,596.0206069901301 64.67778085546497,595.7779741904732 66.1011614572932,597.9257006511199 67.99342148409303,602.0867037277275 67.06339282863459,605.361079999986 67.53981868205621,607.3256831552426 69.00586757074561,608.553668589497 70.4715744087863,608.5688887021656 71.71009528153034,607.1033433841335 72.71242851178098,603.2059978625234 74.91803260748051,602.4845201620665 77.86574051099275,602.7498662420812 81.02481824094734,605.4659259614953 82.72662205730738,607.9307747747571 85.66232565792288,608.6860802330264 89.33326131236024,608.7032707043822 93.98516970071611,609.9649773874106 95.44380148915718,611.9382456572039 97.16109183008221,612.9144370989211 99.61999948548413,611.7152556585663 103.56502192204432,607.8285116406853 105.29166029685473,606.6115301249893 107.98517232579789,606.8737448133804 110.92747813590576,606.4030991544751 113.64695014929575,603.9833655331711 117.35680722444765,598.8491292422996 119.08808719467987,597.1521032682075 123.75257950075024,596.4445118354643 126.94367742276627,597.2003697570618 130.124105948666,598.4360126689537 134.27826829556298,602.3749764269039 135.73006113714598,605.0715775769662 137.43517837138077,607.2817521843915 141.84199687739488,610.2438620717236 146.48559058042665,612.9720658961367 150.39462467156312,616.6527666201177 153.07090275367165,620.5868362015262 152.3179861988269,623.262759712334 151.44138195021958,624.6310690146529 146.5983819716897,625.3479794676987 146.11540063056003,626.5571862556465 146.83324794451312,629.4517079251267 154.78304050638275,640.0391265224351 155.50825488690424,642.2086099874435 155.03120936153422,644.1326884728936 152.85718147521771,645.5806153206368 151.17048727890386,649.4305093600242 151.2305988944879,654.553982618521 153.88254290220695,657.6818429138738 154.0345699337246,658.8665293519672 151.23397589640277,668.7689658596677 151.71429146036658,671.8959342612036 153.40424808407744,675.024555214431 156.05540553627768,677.6736805318646 162.37871619119352,683.021571935253 166.00306781663633,685.1911203994841 176.13449148031586,687.3404851052419 179.75090974178204,689.0181461929426 181.19996017467358,691.4306053771567 181.92237973450173,694.5610673619506 182.39988966860224,698.658021618298 183.37079580567107,699.8518599824212 188.4396370231758,698.8805641674667 190.8524261638362,700.5668938144971 192.06069037212808,704.8953991623625 193.01746897795636,706.099304303022 195.7912958872918,706.3915489306429 198.7679612405613,705.1842756334092 203.19708034967044,704.7171379107028 204.41169704300486,705.6975792607818 203.89959831326328,709.3679394334367 205.354925751311,713.2803347220572 206.10182425578918,713.8995587352755 206.6587619622357,717.2733984098352 208.591209443131,718.4762161303495 212.68998990280187,718.4637866653895 221.3818587149937,717.2395985106116 224.7649062822698,716.0356886828278 226.69508996379108,714.1045853844462 229.83635407914826,709.2757097930555 231.7643829668329,708.3146651359414 233.94154774476152,708.5493446143939 236.10747590489376,709.9875699209898 238.08286120041763,713.6709396395665 239.03389248262607,717.0483080788426 241.46769535413938,720.7346140795305 244.90860634979555,723.1854894875595 247.12330293380327,722.9519510622224 249.5874807168968,721.9841163841171 251.53911827024666,723.9513951975572 249.03583213357248,730.5433063436394 249.02223590006108,732.012481336367 250.2304237447651,736.668954669858 252.9202413169317,739.61314806865 255.62908470014924,739.8626880496008 258.8307471797644,738.4125887845453 262.53238722422765,735.2410779005166 264.518330428475,734.2686301323707 266.24081139484946,734.2741328155626 266.7164838218564,735.9838889533312 266.4404411657877,740.4007866487814 266.65737079972166,745.2828677247203 263.1899715519424,748.466887809299 262.4283579872674,752.3698903568227 260.1963660513237,754.3204488586496 260.18802211021165,756.7700470467569 261.4050672105971,758.9768080168 262.3726917050987,761.9152755011341 264.3261409618207,763.8836606950994 266.0280700322342,764.6242458103602 268.01112921883407,764.1316386374103 270.23033825499925,762.6813134978541 272.7220181426195,760.161953527822 277.7921361064132,759.9526618027321 279.2375314654901,760.9153460056498 278.9993875602011,764.0480823637884 277.3077784770207,766.4516049408443 276.33870051447667,769.3531436868082 276.3035772030723,773.2230016088413 277.77858669328907,774.4413196865203 280.7254772270983,775.9283068707941 280.4454576630167,780.8263611267745 281.40110782620286,784.4908744753579 283.3498832022962,787.6844271593075 285.0617785673726,788.9240553047617 289.7239688187025,790.3968070886274 292.4184151992881,790.9009243966884 295.3503755329174,794.1018528565012 295.5655390096467,798.5051676660531 297.5171297873998,799.9829093684837 300.2225281268283,800.7320790384488 302.4147880215557,802.4569973645848 304.3881581205904,802.955765047606 305.8637560308963,801.2429840135251 307.1922847399464,798.435600137887 310.2125952769594,796.9007448746887 312.3736853347907,797.6243600455446 315.5093132795904,799.3061192020879 316.9495914878945,799.3085658903026 319.8398652570307,798.3434132545306 323.4508910206821,798.1095475383495 326.58207663561984,798.8312255065409 329.29016644074375,800.7643225575323 330.1475911200485,805.2860770948405 331.3701271128259,807.0123797476411 332.77160220320604,807.8214711836604 336.9960323832758,813.1077787350148 338.44432041176015,815.9998314150521 339.8875307791809,824.9176461448197 341.32300622825653,827.8108341313917 343.49423540458656,829.7390067762906 344.93484287539,829.7322173190104 346.61803522039634,827.5704871942484 348.78610976764463,823.7178449704937 353.6015783833771,819.8687045554345 358.41417675951465,817.7042189166802 360.09086008786267,816.2685860721723 359.85362761163276,814.1005570203074 358.40298308864845,811.4435101220256 358.41244641823744,809.5136945446754 359.85333167221086,808.0760463959152 362.9832831832659,806.6322927600366 364.9026414578668,804.2273275404946 368.2772550133973,802.5507460409854 372.35674728794123,801.8309133837774 377.1631780855625,802.8109164121988 379.8138435179007,804.4975833969638 382.4484696065857,809.0737615054552 384.3830972336249,810.2859580350416 387.50068270026355,810.2916231622677 390.63223092601424,811.0223338550807 393.7487137007521,812.7126631381481 397.8341940567159,816.0970765728217 400.00574509424143,818.7494741570692 402.40229489879425,820.4336399052822 409.85668713219184,823.5800488196744 412.2544064229774,826.0006023905389 414.9898818785998,831.0787344231419 422.3968029750443,837.6655527028988 425.5547317695666,840.877388919496 432.1394024828069,844.8740525380196 435.5023887927613,846.0959099058057 438.30786071397836,847.6006184115442 442.8136665470912,846.1446561833982 446.9383601750411,842.3681717410423 448.19410929640424,842.6335893120869 449.45120537668447,844.350235057881 448.9487877255814,846.5827163581254 446.6305444687514,851.3438096604349 446.12198948679674,855.0685216488487 446.120898188625,858.5830216277833 447.9346365373092,866.0333315862385 449.1135032450699,867.6774849854992 454.86029584950404,870.0432895275089 456.2554698186892,872.669421837504 456.10171290629796,875.3948483566868 456.8196710777478,876.596438682578 461.12218343036403,881.0740836584064 463.0990288113943,882.19323460662 464.40476225224,883.6342514570606 466.0834750686558,887.5713135556479 465.7888726174707,892.473086536161 465.0478534797536,894.1725041534785 463.9654393154821,899.3747133977676 462.8428265226611,900.4090132302831 461.0019779390445,900.4047014392968 460.4444631542776,902.0041883054423 461.40551167961087,903.2063920542357 463.9626745584759,904.64704412314 467.40036271673694,905.8495227906567 469.65478782449105,905.0088738857572 470.8913190373633,905.2328827562985 474.1903374507518,908.334426413798 474.26801897791745,912.5654760455727 473.9089262962915,914.89280201065 475.3884843008156,916.7739000939894 478.0045948361457,918.4098141190037 480.8617519512747,919.2392023597312 483.8994927100403,919.6003259093627 488.57158704135037,921.5266373353078 491.7065678209692,923.6564952707485 492.73098781789,926.0137873956096 493.6787885255434,930.6608284845661 492.9026212751793,934.333507032965 491.40365287510633,937.5104486047986 489.66931997983824,939.694996912279 487.6897956462712,941.3964624087856 484.97927750296964,942.5918165194049 486.1971866228766,943.5815683650972 488.6211157825432,948.0155366173632 489.809097304479,951.2042725545157 492.2312172347018,955.1364668114165 493.69477308571726,955.6494544918371 497.1368600909044,955.6759644115341 500.8323097602042,954.9678457364284 505.2473377998005,955.4917925557094 506.93903582383774,957.9580007061718 507.6574653057953,960.8966476368886 505.599423079759,971.1739615944907 506.0637575675918,973.8668808408553 507.2856475714189,976.0831305761544 511.12756195463345,985.6496284365752 511.44617487592507,990.3032663450981 513.5139091823645,993.3457765489887 515.8635419067332,993.1390354811715 521.5112419161117,990.2472582396035 523.1169585806489,988.5412931633309 522.5817011479322,985.665707100516 522.7974865297347,983.9595381692449 524.181615209061,982.9986550861445 527.7008516065996,982.2488196055947 531.9841944837506,982.025558792395 534.0084326018631,982.2344243394862 536.1421534165304,985.3271754410995 540.0932613158197,984.8869532220515 542.866736263674,985.7351146470367 546.2854814214095,988.0404464254683 551.5701667551815,989.8064316489304 555.4037121759308,991.8887953205403 558.5461365245199,994.2636874732436 561.0297216429185,999.782377101252 569.4541495900163,1003.5953370587338 572.2165056871676,1003.4305654704252 575.8579697027186,1004.8990189029078 577.621559436119,1006.7721687805081 579.3167182119861,1012.5915228078966 579.521063719122,1014.3713219638141 582.0889965948983,1018.3056628145653 583.4681560409367,1019.8398211558664 585.7749195321253,1020.050057328193 588.5615903755796,1021.143863562291 592.2503529735184,1020.6786967059957 596.4605369234034,1018.7352060916575 599.9417713111734,1016.061540168002 604.1190552496986,1016.080712574669 608.5418095173649,1016.6018933484802 610.5237862062418,1017.3522453627598 615.889682256853,1022.7567141790496 616.6280377193218,1024.0" /><circle cx="286.55063596993057" cy="650.7490455027234" fill="rgb(100%,100%,100%)" r="16" stroke="grey" stroke-width="8" /></svg>