<?xml version="1.0" encoding="utf-8" ?>
<svg baseProfile="full" height="1024" version="1.1" width="1024" xmlns="http://www.w3.org/2000/svg" xmlns:ev="http://www.w3.org/2001/xml-events" xmlns:xlink="http://www.w3.org/1999/xlink"><defs /><polygon fill="black" points="1004.0892327369431,501.5979427087792 1008.4753603287952,447.2536589032202 1008.1862494977554,428.3525902536063 1008.9565250049237,416.6562500419042 1010.8211874136427,404.17686101488005 1013.7101471876604,391.9105796256272 1016.1543252593447,386.76217189852304 1021.1815095078596,383.5952414261292 1023.6117481370151,378.2059754835511 1024.0,367.2766422035874 1021.7583793777187,361.9972552538268 1016.828832530152,360.3396750637077 982.5056855310589,363.46923042169834 967.0251752537508,362.8103522257214 962.1828844089245,361.29086777200365 958.7001115712877,357.5157260151422 957.0515936527803,347.18453564823267 952.5883406981253,338.75458966792775 936.0852536562418,329.4272977798741 930.2689592699935,321.6300523869102 928.7936112517187,314.5248751045131 929.9072754204918,305.36790189689543 925.6320209582482,291.5788054471232 914.455386116707,260.9394516666347 910.4160585764492,247.1600781064588 907.7945392527884,235.263045180588 908.4479355396259,218.2198456521432 883.4127631336291,208.41221624543772 835.7636957259067,194.3955550987057 799.7001844075105,178.97430714266454 745.135007591284,152.13532077953317 742.4678151223558,146.75355621865197 739.3501995228709,142.25060513909204 736.9525779703173,139.99231295403604 734.6793389319382,139.58983692035946 729.2974506309404,140.8575067255885 722.4040185362682,141.84661336922193 721.0131071150903,141.32940188276132 719.0062299143358,137.5606057117825 717.4878086574681,135.42370922182306 715.3176943572718,134.16998953972575 707.5785404565947,134.83068702345292 705.7275358055037,134.17274641849184 703.9903991320781,127.374140576618 703.8249235351241,124.00726444334236 711.6074863475795,125.3498803693056 712.5496631080618,124.13388121377977 711.1745386983246,122.79753869497404 703.4285434532078,118.89236073343932 693.6870619381175,118.08945335338649 677.3622270022516,107.22735859301224 673.3368707923512,105.09948755798814 667.623254505961,104.00775026503072 661.9762410212544,104.82827244671967 656.115979253953,105.09577820677544 642.2100814424203,103.07083271179533 641.946388103017,102.12215768295118 642.5944590755611,91.55981598802634 642.0804398853032,90.86267892120884 625.7745901076124,90.2905170900965 624.429319292074,91.68077054675814 622.1489296253635,91.12216831922763 619.6016101301235,91.21225319998234 618.26067294092,85.21858312280483 618.4223478559235,82.79903472222463 614.6461619832794,82.67447891501479 613.4777214224628,86.82353536029166 611.7186642178198,87.10755738568798 602.9191694470329,86.77462564543521 602.0765564477423,84.63789688090219 597.6800167487369,84.5215179545147 596.8833923372764,84.13178999148215 596.2341788723388,81.43334140199272 595.565444906507,81.14132067705702 586.4838760756023,81.52739172314102 586.6171687875625,83.43828165200819 583.6576411942414,84.24525180928538 582.8623210631872,82.35360227755211 570.7165784583106,82.1873062447495 570.4255424398392,86.21191729459042 569.5066335332208,87.93942917857464 561.5036707801881,97.18743785372874 560.2873282139576,97.1682871327173 556.0755256348857,95.89224176380606 504.94761871740843,71.45243505007102 474.2201124456475,62.55217745101231 467.36778021541414,63.25511141758852 444.21545737278444,79.23104001303409 425.9993742687202,87.00962665883333 400.0006979178192,90.98827590105952 350.1013453391484,89.65996954836658 318.688186981923,99.20169449087803 287.1500351171723,125.98667376866683 282.00246943814017,126.6561679849516 266.60069615640833,118.3065910205662 254.81363679598832,91.53370001566157 236.8511139749685,45.626217771250595 208.74625748676038,21.16838079610875 188.00887366544484,6.678088579287078 163.45964755548684,0.0 136.2716760614151,0.1350116290667529 135.35191847986255,2.916270790172007 135.22419263530796,6.304137967114912 137.29485056861603,6.713827435244184 137.15989005966404,16.5107243838861 141.75469534748285,17.772839545382112 142.55010089787962,32.26695801417736 142.29164402222102,40.12262290339436 140.2643993297394,53.730219988276986 140.40317052229955,54.571183311266964 143.2682767073494,54.86917909388751 144.73977012770953,55.48698920886511 139.90080516187865,61.77888398109985 136.77697835406371,66.2576457309392 134.57268242056824,71.21985010920707 132.22996061313745,79.25870982461856 131.73638062292218,81.98100730928252 125.38070358236868,80.9505784399895 124.19569538573269,90.87935712310377 123.66534317888322,91.39244244750967 104.36139903735894,93.1471087263784 83.57030040915905,94.13754969552224 82.5102930458504,95.6156306813873 76.42853557716198,95.89482650084676 72.1140063724295,96.48966461051157 72.39379809914169,101.80791105131004 72.18319602684042,103.82623368707323 65.46560040115799,103.56066189797741 64.24504603789042,103.74110306966247 63.844182113104175,104.64826671401534 62.09023495720355,105.19611399041798 61.83531514615341,96.54740760826962 57.49860041897621,96.04762991733298 56.693098149949726,97.6761855722417 52.92246388495975,97.80276086555841 52.084067922165325,98.22153695210761 48.5856628318707,103.72171510296403 47.230608624879196,109.2739334794029 46.125266549116986,112.249549878008 44.66257796237188,119.53168694268209 42.44129621736255,120.19437202687993 42.604044543804584,125.75605850758586 38.292467073200285,126.3052732115462 38.599544186212995,135.48528979717975 33.79078328121906,135.91893476939185 31.35416640493626,136.9274364181449 24.914415901308104,149.41782974858756 3.4039855334222127,178.97167324654606 0.0,205.70960028921326 1.4588217190345434,236.55353599114449 13.88211547147454,242.8730300249781 27.476420403754794,251.71499240644113 26.671853353269363,293.3627448007254 30.78765698669493,323.7964880465364 40.444869784058156,371.0492680185948 56.95072871919668,413.5177567388166 107.69901345330975,469.02806018998075 162.1592157901339,527.0891641122261 184.27509697536243,538.1183545885779 230.93179353567803,531.4144058170715 258.6698203242507,538.5923290462104 272.2840759775105,556.4276201472759 287.4423694710107,580.2627701964091 290.005212827291,592.1334507358836 298.15797315892496,593.8178369046238 305.4667941599756,593.6662262553093 321.0127928970067,588.7526134999035 333.840266101176,583.9201378400934 337.3031397067933,582.9138105580417 338.8176876453976,583.6858943437647 339.682384066976,582.0756888907366 345.65637532374325,580.9215404599794 351.43386384701506,580.4092894553489 358.59051762209236,580.2147368253533 361.18787215967205,580.3764811296461 365.53645319380297,582.7919813111471 372.51793182018275,585.4587856396615 377.1769347870165,585.2508499846825 386.51816044098416,583.538478121567 388.8848390759488,582.5044570764551 388.5278240881532,581.0905031083001 386.0051037985427,580.4853588462668 382.716269188932,576.9679897330234 382.8915018957807,576.1154811486557 388.25156500319986,577.5201070965342 390.3509783747504,576.9537644978667 390.5405113193668,575.1817925190785 388.4396187692499,573.472871401442 384.78203986065955,572.3892204055561 383.7803776327898,570.2554430606455 382.2541265140156,569.1271451891372 382.09475473186825,567.9300500030367 386.7630440861068,570.3788272287636 388.82700087164454,570.3255507027272 388.7328106118589,568.4339545149946 387.3699521145595,567.0912966572531 382.9321775643928,565.8280881449343 383.46922309447973,564.2145947918747 385.3886237563167,564.2748591861115 389.45234487194716,565.1139238235901 390.4258167085786,563.8981178147613 389.81255572044165,560.4703952747003 390.5932428968226,557.6664205627407 390.29748943403666,552.9663160282523 391.0514587353476,550.891195107224 394.12488441084736,548.9432498015515 395.77405697269825,549.1296744065007 397.08005306078854,550.5639063867696 398.2130568969798,553.9556091854915 398.5395179522833,557.3139984571844 398.4881144146218,563.66884195277 398.21625781429356,567.7178474544291 397.4469381436058,574.8662657044449 399.4282216457691,576.8739958871265 408.9018776692347,577.0820571057268 413.74359539560123,577.5831156951174 422.36237954892664,578.0549547089252 427.77615041727813,578.2123289244909 439.01142182539314,579.7488659178282 442.85002336755525,580.0497289118115 445.7990937130557,579.9674869505523 451.0343202708172,580.8114341141531 464.34942729432805,582.2381600577143 475.06169622710786,585.0304780102182 495.1318701104232,589.4727344369742 505.36629037294875,591.0890693172981 513.914748398843,593.3638001743973 525.2320210580438,595.9512047078995 543.815205222523,599.8954863796532 550.0641032653344,601.3997817311683 557.7432508714098,602.2556692979913 563.0735060699621,603.1967270267144 566.4638722020186,604.5056336347874 573.7466047412062,606.4496254450272 582.1286339618011,608.3649657483646 586.7829307884592,610.0786528282238 596.3175916686439,612.2955491245128 599.851561725175,613.2445049975062 602.2241217225484,614.2585112715175 606.2414195676304,615.4281104649826 610.6138901173842,616.3238409915954 620.2324059575395,617.7397882775889 624.8338539631063,617.95739187413 630.3796209223813,617.9687990619767 639.6028870434379,618.3731677008802 643.7447461344335,618.6908743630636 649.9022786814963,619.4272322837047 657.0990240211929,620.658462924243 660.4118370162214,621.8528082119859 665.3190072455849,626.8954628990432 668.9478054398096,630.2779557725686 672.3946867955945,632.8154721595307 675.6223299814734,634.7248078925857 677.7229624336853,635.5735143306782 682.2912813116443,636.1880527419528 689.3722408583541,635.3467940020812 700.772156785153,632.910031723414 711.6813458754559,630.1119014774721 721.2906350110452,627.1960384313012 728.6568342456114,624.41910178263 734.3127352720212,621.9554790404814 745.0617351813506,614.7095711365665 761.9920924591554,564.2561791681961 770.3401707915466,553.8320440537589 755.1973933783744,540.2385377530054 754.6667693293582,528.219946614851 751.7981171591713,527.1673606320155 757.284687551881,518.5437574438427 751.2789496498896,515.6709130425199 749.9745860413849,518.0250011741258 752.5864293520123,521.1627275346025 752.0529790748507,524.0324586622141 747.091396055098,518.8061109518229 743.9622236762326,524.289084841626 739.7812136113441,522.7174894212694 739.0082879670442,532.1374037607927 740.3035682073034,548.0673396737402 739.2566589664084,550.687021490431 727.2493140126924,542.8359866273522 717.9719547084214,540.6515973818695 715.7717531034968,521.6672208287999 721.7678621878921,502.85643265531223 727.7747854518917,501.55551048013047 728.2913548586308,498.6761373306473 721.7638569563288,485.868697461175 723.0681851832223,461.30794373465574 683.6653766775314,422.0792223097449 694.2287674616502,411.51302478380416 697.990920971318,408.9199446738429 702.8639092848816,410.9188716300892 715.5069238941826,419.2387295015427 723.6731344415208,402.28431267250573 723.4104524174206,400.43150495472537 723.9369547726858,398.7875694092837 762.2433345980327,414.036545362487 783.4082645749712,428.4019844617106 797.5187439815779,450.35025974770747 789.2850145723835,455.9002609669443 796.3171742692855,456.9919816354768 797.7619905283459,459.7280433873685 816.8954006511353,468.3801032077618 829.1124666093668,474.7020354387122 835.9321457308631,476.98828835178324 834.3700758674394,485.3459307199089 837.4900823690156,488.47702669942106 859.9037246361094,496.1861602034477 862.5978489737541,487.4166489976574 866.9149257588012,485.82451740323324 881.1630094078475,493.4012403494267 883.8185425428866,488.79158170728317 901.5628405114367,496.54152692394223 939.6616334105131,498.33334882374197 1004.0892327369431,501.5979427087792" /><circle cx="965.1481421562388" cy="457.74602509349825" fill="rgb(100%,100%,100%)" r="16" stroke="grey" stroke-width="8" /></svg>