<?xml version="1.0" encoding="utf-8" ?>
<svg baseProfile="full" height="1024" version="1.1" width="1024" xmlns="http://www.w3.org/2000/svg" xmlns:ev="http://www.w3.org/2001/xml-events" xmlns:xlink="http://www.w3.org/1999/xlink"><defs /><polygon fill="black" points="375.12296223133706,18.694567161109546 371.3846330461165,20.298071530333516 367.9220748536352,20.836285487267617 365.2352363513772,20.841867769021007 364.3338555715912,21.224199877650108 363.2731466012612,23.483278641345578 363.1141439272371,25.914688670564715 363.636945971513,32.05077371740168 363.3741873748759,37.12075835401566 360.4391125988025,42.99536621045797 356.69661911452823,49.40777950470289 352.1599445655897,53.148923245953654 346.27493959366814,54.759834345338106 343.8766433791625,54.8646075272884 336.71373152969414,57.530271061053554 335.54394222590713,57.238772561190956 334.84841931405214,56.09143648618044 333.98814316697144,55.92612829216063 333.47432610855367,55.25698571701747 333.74613984626603,54.501836986550984 332.51254278713515,52.91783208993985 331.0770002817197,52.62326150092093 327.03404492657523,52.789903904238486 325.9901713290066,52.66131417743583 323.5254029941536,51.40186823151191 322.5748280105063,57.43629227329666 323.0304185231218,59.44786957188484 322.41320996437895,60.30311178549209 320.1921119911164,57.845602164168554 319.128253459229,57.79680117843594 318.04458069113804,58.30300880708779 315.3069200168487,58.28966877509225 314.22651128486916,57.88356036186843 313.2873490769659,59.57108323802976 314.0651696364625,60.772604838019845 314.0734912272532,61.772093257977644 312.8684828382768,62.909835104619276 312.9726314357255,64.14913325641879 316.1964207741009,65.57916228515558 317.2520727328425,66.3464786887555 319.14540938666744,69.31542827167294 319.5482090182927,70.63188546932395 319.3748073049255,71.7713873524857 317.4499277497507,72.61405171954664 315.5063773607358,75.32282000653333 314.55515213954175,76.35737782828983 313.5699760413476,76.6313001826241 311.3519755512534,76.60835417879815 308.0853197892834,75.57632306337001 306.26058055197944,76.35187024586651 305.0054408575235,78.11662431981097 303.857301187032,79.01327509574014 301.2084304206149,79.96592203431021 300.7931837691493,80.77924590540249 300.8765894644379,83.07894421865154 299.5147599561134,85.73716052562429 296.8060993424713,90.15853665462629 295.30059114042155,91.60356314795041 293.1049355986313,93.36627064076629 290.9393374812852,94.5054224983113 289.70738365658974,92.45229191831845 288.38176785077025,91.53397822136634 286.97458880404383,91.6310656356656 284.7858037643942,93.22508331773588 283.92628692934176,94.28798622232199 282.5316757096798,97.91447563786397 281.97369515177076,98.1137148582651 280.6137657361043,96.95758432637172 277.67167472325195,95.86348773187734 277.5407184012895,93.13081196167121 277.0423608215825,93.22883606520503 275.59406280062683,94.52802858313959 274.36184446337586,95.29249852404433 272.26045401299933,96.03771844480224 271.3883363781179,95.30179076873532 270.75316608059114,94.07686543187145 270.7713805312404,93.34549719795854 271.8035788786678,91.71377852613477 272.96403254085516,90.8536804739179 273.0020959499144,89.64041895498963 273.64933503565146,88.68947922185015 275.3584729284826,87.75109598769654 276.72454590394557,88.14749863673228 277.46890898153316,87.5110386672294 277.86203833705804,86.02276055139572 279.0212350107516,84.62389401644435 278.995918403293,83.22742590427578 279.505917893169,80.38459324010648 277.9143320528674,78.26481795126324 276.646649886302,77.61713963468054 273.15811538877347,76.78558533739653 272.72347756476455,75.9018999911188 273.20207927529316,74.16257687614552 273.84020483378015,73.26423924814839 273.9235280490181,71.63218998854751 273.2865464565823,70.85705874825783 267.5820148522701,70.09730135424343 263.37902654178464,69.80451784161403 257.98093301745826,68.99761678087975 253.42585434100064,69.06375689094028 248.97697189692346,71.06352248228268 243.09727631827866,79.80478512743781 238.25687861114594,84.53673860726462 234.80223011509543,90.1464197052664 231.73326315574988,98.48093140896913 229.71379640009542,104.94523517458947 229.7098311637651,109.92738813914013 224.8996933395148,146.7580505076808 223.83274508717844,157.96638375177977 222.22304780885742,161.1717600423721 219.0239678805134,161.17140434631838 215.28627693732832,159.5754970058823 213.14599395450574,155.84238352176504 206.20601032248598,149.44342921063893 190.72556957409736,141.44367504170134 185.38282167499074,140.37606548952925 182.70796244856243,144.64385030120215 180.57964288532125,153.18312073935897 175.78781718319544,165.4574176353116 168.31384807829784,172.92682485226018 156.64584660237801,177.81671971661743 155.49689679012505,177.59200163281355 150.99044805339184,179.93964683196756 147.80661709594744,180.25239947462336 144.31439163688216,178.11527923443998 136.13810831487731,167.48601993424236 133.2755943559357,163.88379414823078 131.11468455264455,160.0977844603497 130.29801236967072,154.19568851881533 130.03871487041192,149.28191123820156 130.34279439895238,145.54068388533176 127.73664189925069,142.02772813866457 124.42027195555603,139.3422071551699 121.98273578502742,134.82196704289657 119.97955229984645,128.29990345164845 116.12664097901613,121.15816088130498 114.71446538444211,117.9868112138875 111.29391030542375,114.02685525531456 102.57367213098534,109.49040790698155 99.07750815708441,111.18391688052219 95.65235060502431,118.78432960623496 92.41940432819926,120.92607201578693 89.25003123974335,122.61060145434425 86.5140327019637,126.91758916919503 83.23463458081584,132.97380904539966 80.11632615018819,135.8284234236745 74.87606393578919,138.37103019287997 70.20139209653408,141.06914404420718 65.33317817549812,141.96683045999325 61.865492715854906,141.17378775543904 54.74295518873327,148.98509580887355 53.759861802859135,153.14907878610052 50.88700706698929,154.24627332260798 50.329722539260956,153.914018896099 48.81747485443618,152.12480726480604 46.750465254329015,151.9339582457931 44.451145130525056,153.73646388745166 43.506901880491725,154.10510354785902 41.647960464707666,153.53886459935092 39.171458659646106,151.5162996581963 37.021639531532074,150.73243554203188 35.06938172080892,150.64917516531773 29.46846345837156,152.44959666478078 28.37737879920518,153.1829107035217 27.880654616489213,153.99049675208846 27.382745786123493,157.89033658536349 27.531470127140533,159.4339676291916 26.01488545341274,160.3666477625688 25.13994849655276,160.01102479685647 22.541885799558358,156.77785488246508 20.741518712456298,154.8359301039788 18.16535610320268,153.5933800385912 15.999867236012843,167.7383098094289 13.853845799017694,175.6904780589016 11.386647286291424,181.0165440946122 8.617454094994985,184.69342421617392 6.766451264720373,187.71624041865292 6.019605440898506,193.19161598741533 6.030304801325211,198.7497603780486 7.300209347671318,204.46498605826048 7.816410568695019,207.91885279768758 6.768863692606084,211.30331569311892 4.548588785934397,214.23527064258644 2.2151795872681106,216.55571328211596 0.0,220.40913145010472 3.9649054805197337,223.44839961800193 6.934304781335551,227.40505738733273 9.473482071987549,232.5700950153177 12.21945776659185,237.26450878793102 24.770560386083726,244.45732323591633 37.550117490630136,248.74717386115742 53.537499664738675,250.37943993913584 59.39782963702342,254.12623445886953 68.44618141661017,263.21538673719004 81.19901099021924,271.17353689389915 81.50086387991884,275.73214950280055 80.39954524089983,280.11592165597784 78.19288002639469,283.25194156962084 74.15144332457285,286.7479014301761 68.47815004160627,289.921727430847 62.90066703167529,293.27489565430244 59.12120944721467,295.963607920831 57.759344866253805,301.99143450794725 60.6152858759368,304.5922826944408 66.20440670442439,307.33453246573055 73.09926590695301,312.2506080344297 79.40622848958331,314.44326734818617 85.25068796771522,317.10597863284244 89.26714923943968,322.9744741386835 93.03026089999486,325.28616046038735 100.5244655425322,328.0967662135488 107.17757723300106,329.55962932124095 120.02722128823989,331.45006410481034 117.466627441147,335.47771721587196 116.9333267248908,341.3473022868166 122.26387746322168,346.1613965154922 129.7148059016667,349.3705203079234 137.33187176791446,350.9111544033696 142.40167852447146,354.82821767133004 144.98781116089108,358.2573050733679 147.3093527626542,364.6704574184931 148.64015248778765,367.0723979356621 151.5820550547587,369.21287790988293 156.37250588296968,371.08294436018593 158.5096948777724,371.6179842467043 160.916216132216,373.4895188294692 165.18011051602622,377.4931193028465 168.64668942476715,382.62762894871975 173.0179297798739,383.40335009789766 175.57257382831844,388.5027730082173 177.70715620900847,391.17181591078696 181.9756868275265,390.6397165888819 187.8469319035045,385.83976966338156 192.65648909156837,379.43413251079 193.75872706524493,378.1435353772373 198.2597614235256,371.6318795921566 201.7171312724333,368.696460421521 204.49602408676046,368.4426222593798 206.25530430312054,368.961515924687 208.65603644029162,370.5560626752917 211.14364431146774,371.79944341965336 213.36477939880473,370.67015647860694 215.36415180154148,370.9241170781603 216.89678010354322,371.8950470608204 219.30374245362947,374.4015182790632 220.84152017730145,377.4429686079114 222.7990024414518,377.02221413335457 224.58876509095356,376.99056482428404 226.44868938004421,376.31405588499496 226.99088474580694,375.0903577778601 229.03786515799274,373.9877975608332 230.7564497723608,371.6372008146885 234.83475882560896,363.96240086999546 234.90507559021654,362.11933292784164 234.55136629502493,360.6540626665959 234.66906824736105,359.223331187497 235.34540853954866,358.14659547257946 236.75828777184458,357.04723905680567 237.8602198622395,356.890994065123 238.97332400436812,357.28280037476003 238.8615336013137,360.2517293694921 238.13222964391886,362.93763809504395 238.0096657433267,364.0935372777228 238.34746453876699,368.7691644749344 238.4955711544629,366.7149433333969 239.04523070514637,365.9980046893725 238.8620998238709,363.18210987235375 239.52066766368108,358.7716383741347 239.57107332324483,355.81174470432774 240.08008148849802,353.3744711919328 240.6610010075614,352.0848721164198 240.63511578811116,350.6296694479941 242.66180472876698,348.40693133477305 246.24418852441465,346.76668493179915 247.89608179626237,346.4813851764848 249.37371633532197,346.6949963980738 251.03314344881824,347.39322410053717 252.91549167482387,347.4327228387913 254.54533875968514,346.47395157651647 255.067115581844,344.76422338395827 256.0223455489194,343.76981493553114 256.5820767304088,341.94339250485643 257.7676922714046,340.7112458027511 258.5767422434395,337.8664655417247 258.0041698829709,335.61373442894563 257.22776970050387,333.96376442008716 258.07178906347923,333.71505812255697 259.23657257735823,337.6385317579661 259.0999414175724,339.6782904288733 258.6307466329119,340.88491792896133 257.73654241048405,341.84964632198694 255.9316540222181,346.140880678278 255.15427466871526,347.3196306976031 253.88940781839636,347.56312159685706 252.85673425927467,348.14889489550114 250.0101930323282,347.9629156266575 248.1997899049792,347.4644264078904 245.7970031942148,347.5279137241359 242.75170874658846,349.43828100492635 241.24993368880683,352.4526136014369 240.6629204028701,354.5257748103712 240.52762432325812,358.98733878264284 240.6667001835606,362.78452411826333 240.5432715871241,365.6614909704304 240.06140985500068,368.4208750051779 242.04006875876817,368.0710389490022 243.83614766552515,368.3982308805839 251.0675020513415,371.1362318930828 252.86724181467852,371.10412493834536 254.0148017067123,370.61325239336145 254.079558513836,369.6713140170314 252.5114893612663,361.99505822944184 251.11534561345405,357.77373817384705 251.5873390519293,354.9540930524453 253.76869819540394,353.38320049744925 257.38078801929333,352.2825239839093 259.4231807308904,350.8666014100825 263.1879976492082,342.87878567667946 263.7524456463022,341.8786192764246 266.6441229195299,339.39852553911345 271.19099099637276,336.18941909830323 277.878250282819,333.7775828237513 284.0236520210178,332.4288920814895 292.4877733316844,333.81917326064416 294.2886080907118,333.7866086612011 296.10098027128726,334.4705458822157 297.92274266947226,336.22541665704216 299.37393114700654,337.26866669065043 304.8783093272496,335.05046924075907 310.8402180414242,333.76459048335226 313.37072368656953,338.99793365606706 318.2434099382,342.5596655080428 320.1284392522727,345.4923878034789 324.93072938785997,346.2772970639336 329.3282136288464,345.65825246050014 330.41257724177586,345.6416139401058 332.18903700449033,344.8939837834818 333.97038654027267,343.78866971037525 335.7537246807536,342.32413438344093 337.53494217682425,341.21401607088274 339.31794481787193,340.8269459606877 341.502931542487,341.13651576976304 344.98768411731334,339.8345554995181 353.0022417690747,335.55361171245335 357.5416963167093,331.00739741758593 360.4920569084286,326.7367098342785 365.2965182162636,324.861677813433 369.56682376736177,324.5904209182544 375.70511540538826,324.05082883364935 380.52441156933355,322.44527904568685 387.20488072775095,322.44193929003796 391.4766894376214,321.10055590213375 393.6059820728291,319.5002203046579 392.80965013433956,315.2335431209077 392.27430203585044,311.2274113051549 394.1374710846218,308.55925076620207 398.9461884084457,308.0245388395449 401.61089391329233,308.29103881725325 402.9498063269773,310.9566814727563 403.7499539295921,316.02744500769484 405.0723508408138,321.0963898956277 404.8145030624587,325.3668562321736 403.74810823568174,329.09776788687026 404.2837167949171,333.103882974205 404.5791478715577,337.4275740811016 402.1090861164117,339.3315814800826 401.80228002865937,340.98698390447186 398.93791447267245,343.7739937276334 397.27111001419513,346.554523550585 403.50483262259553,349.4753352185172 408.5008043656107,348.48879922077094 411.57768482223,348.34223391363525 416.488686597156,353.28512468555806 418.2125565193923,358.44343869850815 418.0221393117383,364.08899406624704 418.18882527534464,368.62965267100293 419.7910648732477,372.2549862656895 423.19170913913837,373.4753438854674 426.38494458312033,368.60458540989885 431.2476729121368,365.9877637501097 436.453436371407,367.4552102570588 439.5407395990242,366.7803603615399 442.69516829017374,364.734203198438 448.1760941890639,366.7460335090614 454.1092309500822,368.2183160373733 457.52857527498384,372.07438872203863 460.8530316204498,375.2217823136807 466.733403967401,374.49824143347496 471.69533247797716,371.24269738795215 477.2483234444111,366.7169784160882 482.6351157964765,362.64561186182254 488.1005522673028,357.3853147996072 493.1652111073349,356.7702391837897 496.2881713644643,359.014957723515 501.35216010319675,357.39360655038297 505.4447731876937,352.52145854676934 506.8445897282873,349.7751356392005 507.0712714042813,346.6794558143627 508.1216074161685,343.8476545389884 513.8100658706683,336.8592871199087 521.0529942308178,335.76588440729586 527.9177961980017,334.14070607455716 534.8821556570537,332.4147869747073 539.2161272218941,330.6125398032377 541.6818912571705,330.10212394086847 546.9976348147615,329.85410923120463 549.3975079993148,330.66407653424073 549.9206978551376,333.86766600938444 551.5187894317038,339.2087298647339 553.9096212226736,343.21830631487774 557.8950903528365,343.49819355218517 564.2740638448106,340.58735545163984 571.2005196209298,336.33838343080805 575.4446823044738,332.0813537522067 580.7683100060623,327.56617492565556 588.4825141384631,323.32164492937295 591.8465596891539,323.23470988000685 595.3986005285891,324.40761423125366 594.3316180818734,327.3389345550411 590.3431997908378,332.130238090567 586.0841124159784,336.1225021429149 583.6958749414473,339.0495204670773 583.7004112300212,347.5815090023207 586.095483911355,349.72625577096517 593.003432771711,350.27851742279887 597.525808369007,348.15805705505693 604.7161818391396,343.37487783443817 609.4992092269285,340.9882684654058 613.5006089455957,342.0629624992539 615.697633034312,345.53529884447704 615.5932871169389,345.90294352608606 617.7929280359469,348.4930590257923 618.8197560748662,351.77082210643016 622.8100493364848,354.28879705722943 623.586408432978,355.25566643061575 627.0054674580632,355.3116964154527 631.7317240949696,356.2508222486791 632.6613828590066,356.6471649842073 632.9236011342538,360.1117637093984 630.2612677071298,364.64229549245266 625.7347031534133,367.5679041281022 624.1303792432682,371.8341055948472 623.0749914790646,377.4372520316251 620.1452150389979,381.4292936184458 618.0177946672101,384.09089513891445 619.3416984953229,387.8332561584617 622.0157577176859,393.1700829847821 628.1292880825944,397.45312323690973 632.3879417294838,396.92660102552975 637.714096044617,394.0040477925464 641.9819351527033,387.3385534794495 645.6982634390516,381.7457128990121 651.304690326369,378.5532457817153 655.5640257766427,380.1560406258236 658.2325930844606,383.0955990993734 659.5610643145062,387.0951602733023 663.0186036454191,390.0347464078949 665.6847298608471,394.83715972004984 668.894178662032,396.17624348488 674.752178975729,394.308434639545 681.4160398009421,389.24198519585474 690.7682925281828,380.4332488731582 692.7436486983731,378.93730461132805 696.3246003320457,375.7875185304976 698.7543492857573,373.477996920648 700.9846955737975,370.4444743894826 703.0515646474183,363.3084675163491 703.7190735638101,359.3814868166215 708.3988362473366,356.0247083371814 712.3858525245719,354.78803519787186 717.6280418436695,352.42255323089915 725.9373206463143,353.83307447873574 729.0484060062412,353.8664820201729 733.0215927162473,352.45000616091625 738.0123270965136,350.81866704763104 746.0885416429009,348.39742198184143 750.4978724836749,344.3249381784092 749.662905263722,338.5910051658245 749.3230433264115,333.9643670675963 749.8845988733018,329.9518466777259 751.63746154837,324.0899707134063 751.0215758671442,319.5453068454706 749.8438136741154,315.0265080360433 749.3165969257393,310.7550157579035 750.6676228292192,303.8061633266635 752.5613845547921,296.9526101037645 753.5517249726561,293.8325091930814 763.5870221167046,278.94550757665036 771.3754484241804,268.7380471013676 777.2461002165842,266.67859968581206 782.1207381726308,266.9557237965746 789.8731681947747,271.7922921510346 807.3359409519563,291.83102772738795 811.6835894046321,300.6023772462469 816.14656578982,314.38657253742656 822.13789548724,334.68962054363413 831.089241033103,363.79435417729945 835.4007966519093,370.25319517294804 847.6398302081487,373.4500500435758 865.7073829083819,373.04147078024886 889.2991189722642,370.9794971880448 917.714170775012,368.0543389229095 935.6610812735709,363.4333784077835 953.8868957793549,356.1210132608992 970.9729468522746,344.9730811035958 1020.9148738318739,300.0115251135724 1022.6109431255198,294.8230329374791 1024.0,287.27242435028194 1023.3247148595971,280.34607890439065 994.0990670437913,194.42796017998305 966.0815483653248,127.68601403946195 960.3709539288404,118.52944882372753 959.0613594920203,117.02705120748828 957.5918875855759,111.9971730582709 955.6002157755349,110.22506542126592 951.7032780284305,108.21307355602539 947.4599052149013,105.8476656573817 943.8835831352515,102.59486471619118 941.9267842076949,99.58819344009999 940.6359804905542,96.63539221129372 933.5428000969666,92.90241645391933 927.1711548736748,87.95009755124943 920.1047547517855,83.04600921881126 913.1357558828311,80.78019274051343 907.4258143753539,81.40896801117867 902.3583699981045,83.39727728795287 897.8130334964844,84.47599216906178 893.7372456849447,84.98967590343318 893.2326993949379,85.32482655102842 889.9495419473093,84.74036213423216 884.6063095094723,83.40991697027926 882.4850041758319,85.01015212516836 882.4864159630248,87.94478382598112 887.0093550325985,92.48033720335428 885.4197591142315,95.14862679102293 871.1507459311996,107.55655927645438 863.8165381580712,109.6890351768809 852.6963045598033,104.41097379590565 847.9280090601214,101.75252276241531 842.8044531299608,100.19838897667108 836.8901666433258,100.8578235901519 833.5758155486182,99.26990425218457 829.1723104023691,97.88776073007898 825.0719508186095,96.77731525818803 821.5634727437648,95.19329434331547 818.9597564537726,96.79017457951585 816.0898704319834,100.75169933679734 812.7730505342541,103.45241684541628 805.4054622017169,104.48156731507976 800.8626652079929,106.19675248881327 798.347323820465,108.61489384430337 796.9435571561606,111.82520949883843 795.7413159385464,116.4015731384369 794.8140426001926,121.41409036417338 792.3907607894035,129.20639195612404 791.3108053167783,136.2266085681731 787.9087506854518,146.12486619356804 788.1440909965531,149.5901472067308 784.4429796444747,151.54791424495687 780.4441829162441,153.42754848137824 778.790090603286,153.50968558738967 778.6389929586002,153.12019173721694 774.2890833697069,149.46553702471417 770.5633258452901,150.24242814895462 770.2729882989415,150.51392853069098 767.5304698539658,155.331815343571 767.8629122332512,158.53436619159072 767.1751955481367,160.32901970423148 766.8536993292872,162.13196593305716 765.7472766548755,164.97491137296228 762.2645377175139,167.07547604784557 755.0463279152186,167.08821391671904 750.7662528346925,165.76353230888103 747.572466398206,163.0969616732025 744.3704630188389,162.03760247367165 739.827142806376,162.84658872736185 737.901847553411,163.64925300729595 737.4021706703476,163.20173824639622 735.1011034801139,162.21268757019834 733.4042578084841,162.72129632974597 725.8991396270943,166.64442020897172 725.3938890865727,169.4079509462611 719.2526657006408,172.08037832784126 713.3824348054815,173.957021226951 709.1082071120561,173.95537664693313 706.4428205135263,172.62847671824247 705.6428048697182,170.49412436440505 706.9744812369754,168.62303711345226 706.9723861219447,166.4898789626824 705.6312802149856,164.88636620126192 700.8409334271898,165.15736527004464 695.7542886343102,164.3597295115809 694.4216470357765,163.16607985037774 695.1070905880307,161.15563994644197 690.1626593350522,159.32811486489607 690.6169345215633,154.03519351408434 687.8382124781677,150.62805381299538 683.5136911088767,148.04864062168056 674.2521800380739,143.5488958802138 669.0766843156304,143.9032184382344 666.9276083100232,146.2960129747436 663.5108509804504,148.7159710710703 659.6928939562812,149.46699609512177 659.2274504497251,149.2157025269123 656.0244962450994,146.00585792080787 653.8947293643527,142.26888133704992 649.1017070273647,142.79931937094884 642.1732702363757,144.9223019179578 636.8534720782151,140.64676949348006 630.9920583360475,135.29790887539622 626.7390126419762,134.22586878514807 619.8525553017886,137.94144299075083 617.0568785555587,135.6082211381855 615.3730509622419,132.17829762422986 619.3868063270752,128.93352360065825 619.5194586369711,124.83791738798556 617.4779917578695,122.3958762913503 609.2385793824296,118.23831205827935 604.5878525117871,117.1943923205879 600.0060078669827,114.43393918706437 595.6241212246221,113.026832284313 590.4558215770476,113.18971984985689 586.6391056592261,112.96013284728394 583.0522858441113,109.82672950906897 579.6283779253989,105.67278924308971 576.3705033382944,100.07546510758885 571.4655727210965,93.35187298461057 575.6490007858885,90.46231931456197 580.4178830162526,85.67437818024672 580.4365862418474,83.00687579291423 577.7662180065369,78.1974825634465 573.5028197196966,72.31484343898177 572.8929367949453,71.96925481218966 571.9695054686543,69.7113678074341 567.6794995251125,67.67883101734765 563.6492737397859,64.90039831615081 561.9935746650739,58.103095759064445 558.240756562299,56.40947508963086 554.4074093273208,54.176952317701364 549.0104261932476,46.237133303610506 545.0148573078163,40.4504440315618 543.9141831777005,33.28136150065984 545.4097033535916,30.349701751662167 540.407162183681,23.75141885342191 538.9005195322312,20.86270672863526 535.8797959143191,18.34853020245896 532.4294733331154,18.481182431111222 528.4402117304495,19.25371117874255 519.7419214884412,18.908382774937934 519.379403288102,14.452325574039094 516.4655161213379,13.296332251733702 510.5370794551057,11.458231617618537 504.6870742183106,8.42795383232533 497.52332023002884,2.9752562967991025 496.4188232283121,2.8853844714431602 494.7623484712197,4.314539654222756 492.80165848511325,4.861080992448251 492.41156461889756,5.297765288022447 492.2087982013456,7.000763836238264 490.97552371938565,8.674410181209964 488.83477680156574,9.442131610682452 487.2152140645446,9.681619162326001 485.22759388005073,8.83627494646521 483.4486259719625,8.735494478951011 482.1664465661025,7.358368087502242 481.2190583746122,6.971334667422809 478.6920134099282,6.743471355036206 475.0709948153298,5.412925281334594 471.49796339138896,5.460981647551819 469.7862618997985,5.141032645328096 468.5190205073264,5.6501400073663035 462.05905289479904,4.799805623378575 457.5342912841289,6.39163784934135 451.6717521924877,10.114844768513478 437.55487407006433,13.217927853726962 427.16003202634556,14.953967457656802 422.35490178710523,13.082234559228993 419.1587280031322,9.875075035456973 415.6933109980138,5.341091382116247 413.017265953282,1.6027003218165987 409.2954816566789,0.2680430499578961 403.959864342756,0.0 401.54417182669897,2.4056944291913283 401.55802020080677,5.339343719124145 400.2148042943773,7.206680601520247 398.6271195271586,6.939366945893823 397.01944313157657,5.609154456263013 394.8789394969876,5.870331202613841 393.54070171969875,8.006114790947493 394.3564811567626,10.142729876035617 399.9432285381437,12.811009502737818 405.5435699686894,14.145424375546156 409.81718554849317,16.550512994718815 413.0241611985211,17.08276434691186 414.7777926220483,22.343717410862723 414.5979848445454,23.033711818276743 411.818423352777,25.169853077813855 407.19998499833923,26.68582852246061 401.5667829486615,26.965217791109296 399.5894888090953,24.44997450594559 398.0899431631305,24.015693848954243 391.9467104648486,23.754481039616508 388.74613284647984,22.95472940257912 385.2734439896295,20.820229469964772 377.79833468969184,19.757068810580563 375.12296223133706,18.694567161109546" /><circle cx="614.5126657989297" cy="229.79143911717935" fill="rgb(100%,100%,100%)" r="16" stroke="grey" stroke-width="8" /></svg>