<?xml version="1.0" encoding="utf-8" ?>
<svg baseProfile="full" height="1024" version="1.1" width="1024" xmlns="http://www.w3.org/2000/svg" xmlns:ev="http://www.w3.org/2001/xml-events" xmlns:xlink="http://www.w3.org/1999/xlink"><defs /><polygon fill="black" points="1024.0,339.34784630277136 1013.8006153455103,318.90017886960356 954.8746145930487,327.2114056400396 939.4294229812788,326.16599464952924 922.4800746595774,321.0120493893224 922.3261701218685,305.3122216153341 911.1375928931697,302.97971673185793 907.8606891539753,293.4566587146178 910.2965949506419,289.94874381322967 919.2450683297609,296.8404920961862 923.6926520973086,295.8035262489875 933.1456831054717,295.7013741965615 943.2124756293412,287.68128913405116 944.5090884303053,272.5850519552734 952.2803967467561,273.33820873588576 958.6997707999276,268.6119164055206 962.9884073465364,239.83608293706538 969.6369174507794,239.49017968610082 971.5820929259381,234.94845502590488 959.3878060658119,227.1614151169194 957.0442103193402,232.60022565071853 953.4244953589963,231.0866260399086 950.3530084393478,245.22262852801992 933.7385218354726,243.20638653300864 919.8250523503601,242.0429894093685 918.6012040749603,265.7564152078019 893.5033151719249,301.4002041821846 886.0886737638906,306.89821767644025 888.7995904032142,294.32332487239745 882.4639330558686,288.51667826295966 873.1007655969373,283.69163732023543 863.0375123106718,283.3187501960687 863.5029087221412,273.9374118721572 859.1768974527789,274.22423245000215 854.4391393673909,278.8260205365233 845.5331376515107,278.1274579600344 833.3849458250519,272.66938629876074 820.7759721994379,263.27786367541125 812.0605671536152,240.5584111826584 812.1459485039622,217.8181751843598 805.0982340270511,216.69130727536287 787.3632427573646,211.52615134156463 777.4707321972323,198.97655659861107 745.352483295484,212.01723411116762 736.9366131418552,210.63556687586242 737.1988008472681,206.1773116456659 735.2030402104073,182.25845583477485 725.6654625604297,178.40169236652991 721.12731762273,170.12557366139276 721.2805614531447,160.8608873473362 726.7020313917661,143.5461439844571 726.7948611129367,132.58070940909306 698.8429651698755,122.9537909856216 689.4943603097655,121.1039316158392 692.7116139845979,107.37672872055737 673.8946295021858,104.53546144722009 678.1137063086422,75.2912228577593 683.331115831573,75.54238820614432 694.9373329619895,46.82803264452116 687.6495798075355,35.09351460427558 680.4988735424619,32.38674968190628 682.8121106555177,17.75977328328395 689.1730267849325,14.242599515013808 677.9722513138607,13.093036546939402 674.9073001277362,9.961003094515718 638.4635326753038,4.594178456252507 616.4812695975355,0.0 612.666239071283,14.409186315706847 594.3159468737258,12.253097041715705 579.2088265488627,19.103793640167282 575.9590820416773,30.073733098539492 559.5308275088479,27.212517321801556 557.9551156061705,23.479656402508795 552.1585186002072,22.05574613161241 527.4100847735542,25.403648795888103 521.4318680203858,37.08064711507859 500.3172059462362,46.29070032221921 497.4370317307851,51.41423211155882 498.86823301052044,75.23135927262615 498.7030302553802,82.42798193088618 494.0003738250003,82.4814772187218 493.34312323513484,92.94446086665232 483.11327619252285,88.91383007388299 446.1089024138188,63.600590231634555 425.75690060451615,47.052344284955325 424.00412189610824,47.59994721473265 422.5033624872526,54.00954195247277 416.3671001422518,73.16105163903421 413.4174377627567,87.47655359567818 405.26023275559515,80.99081686935506 401.49807277029174,82.34330248539754 391.22059768172403,90.39355837284222 377.157450006569,108.12746276256667 370.11613419365074,108.98564664683681 346.73982614415655,105.87929107815683 333.1683148191217,114.85367872220627 326.87843613471296,120.13607878693495 325.23999847728254,136.42896637480237 297.01146048443843,136.8654153289865 286.49809411098323,135.49801018088465 288.5175623345551,124.21860470962918 286.4906944086244,121.45434403928027 254.03311275436985,117.35095952963047 249.3284221274574,113.9975904696413 235.31906716385788,110.0397080950271 232.8035181428922,110.49653222338839 232.63128297099308,115.06687437825076 226.5627397015052,114.31346511834431 225.54231164877513,124.29345443085606 226.25436361331367,139.01871880797785 224.99180588864238,168.65237281023917 218.0160740906883,199.17654283721004 210.46492233822437,216.5188851582688 196.7199590996944,237.58923384319888 181.95333284160563,250.0603389779078 159.7350121724927,290.72434398761794 148.4240600048062,323.0460699046044 140.41942225248422,356.92573677480544 131.70988382867472,367.66765569691114 84.32223274006067,404.2927244668938 40.450857222778914,491.9448514165342 9.980393163520269,512.8340063027354 0.0,532.9333224475337 1.7843442814829928,564.7274619300944 16.789128800841038,601.1235404668774 56.3471538557073,582.9639137328717 103.04649326430415,575.7156131964425 126.56955760550812,577.8374794159137 200.592469368841,597.7805708034844 242.35851484064514,620.1107762391323 276.1772571915628,643.4437471179848 319.2060257672837,661.2080394406257 379.2296591074634,690.6053720670207 421.19155696369654,704.876115429409 456.4198948240999,712.1867485017491 495.2235507052533,712.6937592112162 530.6726800528137,706.2743100005137 611.8703820838593,698.0762634018379 645.0218411018368,698.4397604839455 700.995595461696,702.4322559153221 754.9497874088257,688.1383611731208 813.5820657314549,665.9003873366453 834.5522449790184,660.6337496635986 861.7249665591512,661.8171040390114 865.5869210154231,624.171994739306 894.7353740902973,582.2403702931817 911.2753681621394,542.4545092617177 941.1652893753745,440.0664678494644 948.3810065927223,411.62643702857486 978.2717101589748,405.41958994561554 988.305186456562,384.6663194910096 983.9203887462658,361.76822751495433 987.9611507752542,356.13636770660884 1024.0,339.34784630277136" /><circle cx="564.2512060450933" cy="452.31616334374206" fill="rgb(100%,100%,100%)" r="16" stroke="grey" stroke-width="8" /></svg>