<?xml version="1.0" encoding="utf-8" ?>
<svg baseProfile="full" height="1024" version="1.1" width="1024" xmlns="http://www.w3.org/2000/svg" xmlns:ev="http://www.w3.org/2001/xml-events" xmlns:xlink="http://www.w3.org/1999/xlink"><defs /><polygon fill="black" points="953.1061041268165,553.5726513629321 948.5210642687031,547.2927454297844 892.0856653287166,488.3727778052505 845.053174298501,427.7567383852887 797.1986798323304,354.41757045664315 767.8242313724986,300.530617620051 756.2253818936429,249.12360639266524 752.4797043031067,186.22097890329087 747.9612275557993,141.8818543582496 737.7515026218235,117.56304056767408 716.8775695241197,100.83546784249847 698.877348595762,95.40806212212829 641.86533226836,103.44622521191923 597.718428121748,120.43684875378199 510.21730075451507,174.36367817354028 456.32512328980437,187.2637970952867 432.41864318857716,185.927744104564 415.58099243826484,177.1796478925537 388.9448158727174,158.73260151454474 367.8189209090241,136.58930998444316 339.66163740741854,97.93956339480746 327.32635244564426,68.01222166972127 317.22419567795515,70.83931684156835 305.18007024938026,73.78384866784904 285.6341160675116,77.7360607842271 283.9538935505271,76.37937289911008 279.70298802330655,49.18343481224315 275.6542683410706,34.05924899584488 270.4773703491194,28.119103559920177 266.2358560662918,26.17269794037645 243.1209529953496,22.452294378536862 243.09396867481698,9.586681188851799 242.20482872202203,6.556328414126483 122.31439477326727,2.440023226227936 39.43839038234735,0.0 35.98119333763042,92.41861323705552 33.17284824398871,134.02505191704188 29.08290422305092,197.14289863911608 25.011155503127135,258.4470163421678 20.92321933389622,311.7313632366304 19.22513679701607,334.7455239183603 14.74612350850985,391.34620078021646 13.42916619355584,406.2548081114627 12.298840351635016,415.0986271170626 10.268417270769296,448.7403191994895 8.98624486934734,492.4123081771095 7.6302048093914925,565.7263662727333 7.407682494296661,642.9488412980832 5.1482121364569995,761.9176792252283 4.945014263553615,781.9816201983554 2.731697113342236,924.4993961186075 0.0,994.755434754595 12.233371066861181,995.1563277914433 31.582438895200156,998.4618475663888 49.361707158682385,1000.6934631151764 68.68812804614942,1003.6586111191626 117.288240697667,1004.0421919680657 132.99480660024344,1007.6091778445362 159.96868446079603,1014.1567970718415 191.35987087712337,1021.1766710235688 210.09023215870343,1024.0 237.64630282893992,1023.630819994495 255.08607060196337,1021.6955931986489 271.1119857694802,1019.4514750958436 327.198233718421,1009.6407175357326 339.03055658632593,1008.2834996191996 353.38034817902917,1007.0624930152586 375.36973540880587,1005.7115378297772 382.0792673455335,1004.3367897717176 380.14551391880417,998.4466029960661 377.0848766749734,992.190452235757 373.03529633701976,988.0901451511187 375.94322303023523,984.9949858825214 400.0614882475899,967.6563405976325 405.30428075850534,962.0056130182966 417.1689325393154,955.3769321288197 429.6606782101648,942.7390816499989 430.27909922044455,942.822743472147 438.2108129109794,935.0406670554435 438.27481560343927,934.0203466353424 461.07656003623276,910.9311584672271 489.9416278719967,894.2043928675042 508.64987557733235,867.6097727857953 522.9636062963696,850.7448535649211 553.216288235089,823.3304988646166 583.5152517886086,797.2191388294628 612.7739869151375,789.6996592643659 625.0002254398228,787.46135648194 635.9213621761735,784.1491113607558 669.354295613771,758.2843006994661 690.4413558243224,740.3823360684844 694.145132518188,738.106673932479 707.9373366348171,725.8891137727533 730.8941735795445,714.8119176340624 745.2105889225955,709.7624862947774 746.2228184684957,708.343191374052 747.6908861273947,703.6072331352852 749.4014480292336,689.3206625167807 749.1768708639822,678.2975504710103 749.5381212015824,662.9089472851529 750.0645690182937,661.4624521469644 756.0359027013589,656.5742129227718 787.9228255210484,641.3095864233424 805.3243622134937,634.1837087925837 824.8534229001602,630.5382297691581 857.5450685605063,610.623065962149 876.349875051393,599.7241847735372 895.5048108806433,587.6340633111737 922.3343038155056,572.4078576370205 934.7646971289412,564.0460530202681 953.1061041268165,553.5726513629321" /><circle cx="365.8669569249796" cy="531.036189993348" fill="rgb(100%,100%,100%)" r="16" stroke="grey" stroke-width="8" /></svg>