<?xml version="1.0" encoding="utf-8" ?>
<svg baseProfile="full" height="1024" version="1.1" width="1024" xmlns="http://www.w3.org/2000/svg" xmlns:ev="http://www.w3.org/2001/xml-events" xmlns:xlink="http://www.w3.org/1999/xlink"><defs /><polygon fill="black" points="123.4124161363728,630.1792000485411 138.39358794673515,639.4988972360767 163.59652239788957,647.4888279182027 178.01185370293285,658.8867500940323 183.31586851818008,678.3891974039146 174.06486604032523,696.0306650464454 164.22506218429314,703.4919500934782 162.96380102566602,716.5471243719842 173.22577621485667,727.5229550591977 211.34822264021574,744.9793372979382 229.02555832007786,753.4522461763844 273.94052734857246,770.5085121170387 298.02073168413307,783.4077603653988 319.64754095503883,789.6147670444898 375.6550137242601,787.6329573825421 408.06821802339687,780.2753746610704 421.52706793307686,776.7485806021828 447.91079850250725,771.7827489184577 470.02852421584754,775.9693281666313 506.80874849955467,819.6278681841308 541.0898405875173,821.7325547696375 565.5813752590333,819.6233413529072 578.9155788651656,808.8764670532279 580.9398920337628,790.7091248712286 585.6122470535419,765.8503081676398 592.9672520250236,740.1370010121777 602.7482951438237,709.4980684668221 617.5862299302435,683.3259227951903 627.9352239569996,661.5350172924436 633.3393103392051,648.9175109828503 649.6259048783583,634.9582537435647 667.9511399371095,620.8923988477403 679.0602397021822,612.016681922644 695.9620046360584,608.2625583217856 716.2292333380967,603.6269716921975 741.3271564256357,598.6690687301775 761.2185065431256,587.1987046214969 777.7141162122514,575.9147783764379 782.6591924250107,566.7256141476316 790.9212895423422,544.3462934192502 800.9930505562033,517.7354179772117 812.9511464656022,499.22201767196236 827.2653480106667,486.0250520587413 841.3896240832032,469.4103103221238 848.0586887743708,454.6290845622342 846.8998389292204,435.55945356492714 847.8229785867547,416.37340538445795 853.3926891606188,405.7627752128811 865.2608045387063,397.48865720739394 880.043386704846,391.7576008222149 901.8390752624141,388.33002038443834 970.3408516224356,383.98218026525035 996.2904316514627,380.96822322490414 1013.3268594230086,378.53366668160515 1019.3493590709414,376.09645993424255 1024.0,373.0700864333871 1021.1382931882694,367.22179547090224 1015.3212992932495,356.3652288113688 998.2353535992656,341.0189238001428 992.3534322977915,246.43166105634862 991.1908089709707,237.38974574495012 985.9692164181943,227.29671277966395 976.957135083673,214.0844039270745 963.8253235118559,200.49637269475352 950.8986737480166,184.86721666928463 950.5859827518647,166.9966396757792 948.5316606115822,138.64697190764377 942.61616118978,114.75995177040306 927.3562472558468,94.7922639794466 917.3241031014106,91.79456893624752 900.3836690237756,88.83004349209921 887.3031680384477,88.98418957970932 884.8673672454647,99.7361732949156 871.1820246364787,112.86584397296792 852.6480553279417,119.36733558703565 832.6199831411269,105.80691023136251 814.3202475319636,88.96627076441212 800.1096418589556,79.39406287523468 788.4944854663482,71.42274186713121 775.6614743779512,55.084004007345925 764.5291757389656,49.2163378669934 752.1317924958202,42.55123198119895 742.29990900383,37.48503413433673 722.9627743038337,31.50495460221987 706.6809277365735,29.234063496087288 691.7592311831788,34.640566525027 665.3517213261899,30.698759324209163 618.2793684321725,34.98513193301358 594.1241863967115,36.69443244873537 554.2565701743808,25.477334092987917 556.724075943039,36.97598229142784 555.4260699032408,45.327641968053285 549.564851640582,53.53856175551846 538.8963639529296,58.73037229046781 520.2972729250847,66.45518874741629 510.4726043189308,66.63066131974313 507.02793109140924,65.90504309855783 505.4626009629159,64.72559084395175 505.47098884260885,62.11908786135416 506.38127703091504,58.53175834634976 509.95068106321696,50.252794385282414 513.0795360010533,46.407971665044556 522.7050585374911,40.042343566514205 523.4229971383695,35.60269174437383 523.0317421213929,29.53634962382955 521.3346355602345,23.984348240156805 518.3069945918893,19.399137201820736 510.1477361089758,17.759887876619814 495.5171803876269,17.920276348297534 492.91698215135074,20.007780601473655 483.15443169275704,29.637338668473944 479.32437942273833,31.651991830535167 475.21958480758076,30.143127009134787 468.12722230900675,23.015543444676837 460.34945100710274,16.643396678875433 456.9164171983453,17.455213278437668 432.8264922370685,25.347662261166988 411.2226038643164,36.227915530181235 384.2377338408896,45.89173200408675 372.5315954839975,37.335208527035434 337.3749143499683,19.99041673502586 331.7810921449857,13.947596090637376 318.9884559140046,4.453898106461111 308.42584992270446,0.0 298.6262284686943,1.7699761267092526 286.0071411241485,11.53832397760766 263.44096894298536,17.57715887938275 220.2918620367328,23.034026645825634 196.2091749870803,37.20009451929309 145.9863994694605,58.4967200564688 110.3070803904942,71.08512617696385 107.0418623704869,89.99197160943095 117.51973322206692,115.77938693291378 136.2344486604973,143.51019930674488 143.24995410424265,171.04673398107184 130.27386597085646,190.8560674530155 122.3344877966187,201.76589349643518 117.92712473335266,204.00158747764021 111.04499592633063,218.82194666160797 108.2526488370003,225.1043534306524 104.3637984318375,228.20194202645393 100.4539481202428,228.6397500890415 95.14851796236127,228.70931509348634 77.02211993089786,235.98669516653592 38.10068460947744,250.70370741956503 52.09055800574329,277.8776466802158 66.43461495577372,299.52337894503535 73.05719610035857,318.2488596027916 76.08719714807043,334.4727991865504 78.29826620038861,359.6130444002109 74.62143249345931,389.9346739120853 64.65261380031221,406.9373494568623 51.281159022988405,424.1677459713082 35.82797890861815,441.5361374213149 17.78294932840717,461.10427236741185 5.55603742664434,474.1531279484061 0.0,496.36023346004583 10.480606485482951,510.7601270723822 32.92708149144764,518.9516019879802 40.61204513436852,521.2002679841082 57.82491671388007,544.7344342086167 73.72813788196059,580.6529742914763 87.0449451041065,607.844200059106 101.20835918480051,626.7816598334214 116.60631056745665,631.2919894936082 123.4124161363728,630.1792000485411" /><circle cx="234.98025960982292" cy="437.30991693931526" fill="rgb(100%,100%,100%)" r="16" stroke="grey" stroke-width="8" /></svg>