<?xml version="1.0" encoding="utf-8" ?>
<svg baseProfile="full" height="1024" version="1.1" width="1024" xmlns="http://www.w3.org/2000/svg" xmlns:ev="http://www.w3.org/2001/xml-events" xmlns:xlink="http://www.w3.org/1999/xlink"><defs /><polygon fill="black" points="27.116460927634837,1.7132116073504449 18.990555928060903,0.0 4.070453870446948,1.0215881290998823 4.016103628891679,2.776430759630216 2.560405483039555,5.931650031641084 5.61301981181366,11.22644849405583 10.119732534880983,14.515684895738218 5.713704914933781,19.574023862856393 0.9532259676394615,27.380347375490146 0.0,35.29102219638253 0.9358435150857601,41.66061122207918 4.1739855140011,51.77460148273417 11.67672198961957,72.74483667578863 16.152485965939544,81.69810563639487 17.161240153893434,95.24802963280433 18.258464184055782,112.20482594054192 17.723665719683936,123.1491782560762 13.781429699773591,140.91715537789094 41.424280447184124,197.57501945816512 40.30824562383982,221.13277086560208 13.217073684307026,264.68157041457994 37.09331669527123,317.77421567957776 23.683444638669474,362.4720784533862 28.61945668330767,376.98196018015096 30.04091996306839,378.63227204598115 31.27648491720962,381.4299248800106 35.64748062411874,385.804865049098 38.535181650562116,389.570806290669 40.14014936184264,392.37641389708426 43.66728131274376,393.3838835031587 45.82353552710271,396.3842536982006 46.632521998690144,402.15887684911456 48.22963817036595,405.33976753422655 51.88617591947264,408.20129560671626 53.88150720572797,410.8339914691752 56.460768536007016,411.8320954493922 59.15292049274038,416.14842465049253 62.63592551056616,418.45078854702945 63.832239951809115,423.11022759014145 65.65486768123358,424.8182152865817 67.42662425637046,428.5610165639612 70.19028309007369,429.91533237795295 72.55662722642906,432.56725744209484 76.12211362377147,439.32174310149117 80.68597453119895,443.13263661162296 81.74481344700945,445.5652128772123 82.06828819629293,448.1615314505069 84.7653707369357,451.9239337259372 86.31182513353785,457.53280164215255 87.19840171649066,459.39335197257765 90.36121661110226,459.4611128332682 98.1678225384838,460.367655721216 99.05125801654557,462.0551037934638 96.54906446453607,465.7160133360263 96.63122776613609,469.7961548092211 98.27439827777285,471.69419884125455 105.84175526667735,474.07268303303647 109.06233055437995,477.62169668435354 96.41348610487391,493.7495143144124 91.37885643824428,495.2314252598202 85.41821020579329,495.6309097761065 82.15471989510226,496.95774640131583 79.51826504908587,500.373419166449 77.3081449990288,504.4653175990602 74.15219337637213,512.3039577485287 72.66423077653982,514.7015553679015 70.93930730002408,518.8054629152125 70.0785967274063,522.5639269049857 69.28099099166168,530.5454654570619 68.20086619098201,531.9387935088928 61.66089307836596,535.8186573426117 58.873747512455346,540.4562975461486 58.87884754865342,543.4641678093595 60.49283347636963,549.91806253658 60.229484878110746,552.4539852552859 58.37765727546291,554.4894862933086 49.38918467268881,558.0129682882555 45.031180623974436,561.3003016018472 43.49494457438231,562.0066033948832 34.55332864902878,560.8209242610608 31.984351087920313,561.4223034970513 16.563736523894942,576.0856548896975 5.95605609134389,595.5444410179268 7.141071952812215,601.0506912544151 6.953115226672035,606.820073928381 5.73227241770525,612.4778890069758 5.757294427884616,614.5341638208872 7.536249001570724,618.6466704275285 13.177483596099462,622.8517995373893 18.41655423566846,625.3381243765336 21.689513654254288,629.3907501913858 23.339021111489004,634.9085522311385 26.74018069000959,641.5878100538707 27.237639307299883,643.5851419106377 26.690201428251935,646.3998243421488 26.022180230591314,653.2771566311048 25.37941352383376,655.5115984204683 22.187518184612664,661.5433642835643 19.722716880244036,665.0674102740352 15.643939980575297,672.0318302252024 11.455451091362507,676.6218000170525 4.8246587592446195,685.3965391960578 6.753822493551222,686.9788472652384 9.338845546200497,691.3938099204872 11.614632012570974,693.7347352047511 14.868936102437864,695.1745211476598 15.924964100168348,697.4673673243631 15.813220356673213,703.3042327195246 16.29402321665356,705.686662957831 19.231528102934952,708.2345767165178 27.67919317167713,712.9495574033256 32.26532596903234,713.9615504178414 34.11100446213917,715.1562063488293 35.73055103164264,717.4726093355898 38.63586751953387,723.6085878705999 40.75687928091622,727.4462176295506 44.76705956600063,729.3776388148246 49.18431379311508,729.990107492762 55.805566815867955,730.2133648067731 60.16994048376677,729.6993661041645 65.92064577754088,730.1769068544315 71.02933742172482,730.2567008268147 74.26967100585836,729.5238713611502 78.10494573545749,728.044353894106 80.58118619706046,727.5701434211171 85.41250199528851,727.6336545895061 89.15228972953231,728.5236973115685 92.74257774343766,728.7318502909327 96.38508575560547,730.1780145167963 101.01853159323268,730.0539880978524 109.93162335727662,726.512043994769 117.35448241832017,725.3396431677502 124.03520916469475,726.04871922452 128.00857483420225,726.1026868272564 130.6147876149684,726.8360777503949 135.89857361019332,729.5823573337849 139.0316025639203,732.1417346322091 143.55117371682155,734.8420579917783 146.95446362429612,737.4283184126142 150.36277470952007,742.2645028360389 151.44519845292976,746.3619555051058 151.25275611936343,749.2683188962826 150.0273764865062,754.3025565377574 153.3041666526519,757.7375234956207 153.348131319219,761.8841146568184 151.77719442260528,771.2511871492549 151.65986328168617,779.8382021666287 153.1887587620241,781.7773713172743 156.0949034088729,782.638371053891 161.4407888972424,785.954739424049 167.07474370246635,792.0949842591319 168.8356836877496,793.0044331909302 174.15624631573903,794.5244958564303 177.50682037499666,798.599399699123 179.13581107771427,803.1871296323582 183.72327104545917,809.1946774414091 185.40805987139436,811.9074904767767 188.46326978765688,813.8068661185388 192.86539234290677,814.5348333287445 197.64948603379887,818.1132749075429 202.63023179803167,823.4694173823905 206.0059606884343,823.7114845074481 213.9858400809444,825.0406845459504 223.96017888442935,825.7001918482179 225.67011597858018,825.2886385119749 233.26931722053143,825.9601470921584 239.14595836428495,827.6010667403928 245.6852509088206,831.7206735351479 246.50176916930056,832.6891226360453 255.97036185318976,836.5429243582641 263.2209411845749,839.1641091708481 267.80849698089327,839.2248753960097 271.2570162431948,840.4715637652376 274.1441240780387,843.907276069581 286.9556974911494,856.357075225306 289.3106092449998,859.284468871724 289.2708583671577,864.0318207927461 290.3129979572207,866.518029061849 297.0983799734131,877.0532513065451 299.98155719563476,880.7534463405894 302.1905140424248,882.1559306216343 304.73238605130007,887.443485875922 307.95264565082215,889.728869817972 309.9163242851641,892.6184917407433 312.0605056240854,898.4546931691777 315.2258173756398,901.9789414781217 320.03525697417984,904.9755206133025 329.2845375965507,906.9424790947332 334.3158999773269,909.3055752490791 334.8749863388371,915.5171060767934 337.49732677447207,918.3582593403477 343.76487564053986,922.4908788928502 353.43917677847537,927.7122172455763 360.01712621924827,931.0069383273795 364.01406859182845,930.820930156448 369.5567465096905,928.0758335236175 372.3919307671929,927.1359280699601 382.4612497397901,925.9698361229158 393.6836852254787,927.3119623013569 400.9324933192329,925.8780857802926 406.9207845686196,925.2514653916093 411.69917290142143,926.3175617651025 415.0999188609491,928.6055835989598 430.51663038985856,940.9860281817703 432.38285892659457,941.7624190862407 436.5205849515507,941.5557458757753 439.83149007273585,940.0867186248745 444.1628771650255,937.345752036264 446.4162627891002,936.495623985545 450.494911697209,936.1359620530881 452.4274792398369,936.66962373313 460.00124630409243,941.095081132778 466.20534936006806,944.1737972064443 468.5828056584482,943.7423019121884 471.78482959647783,941.3961140845067 473.38940301770043,940.8579028436891 478.2173756053402,941.4139078633219 480.57572908298886,942.3816451336301 484.3987418457133,945.355995087103 488.89996924726523,949.7639893374246 491.4356297588176,951.6273865396024 495.9114598728463,954.014080037416 505.2262073046183,957.7694449075872 512.4161932250164,957.8507547446261 515.8819248001569,959.2351356550482 518.390145937156,961.7776568690014 522.8184425959646,967.716333441578 525.6200830107949,969.8886295265194 539.5917715821399,976.4176571716274 545.4113712216376,978.7152590621588 547.5840617348581,977.5871619428834 550.2280748815509,974.3877556994681 551.4343031660839,974.4491403476679 555.287738113144,978.4183773109494 562.6854407437826,986.7955521422604 574.5204850841902,1001.6791898354808 579.6092538555946,1006.8357624058143 582.9066241729255,1008.2253602313644 590.3132714319916,1009.7393379450605 593.7124169715039,1011.0992203589714 603.5125570325412,1017.4058902510466 608.2356769421646,1020.9329219678236 611.7285607830162,1024.0 613.571495532034,1019.2094829039949 611.8361002469189,1014.4363172625345 606.6018650939169,1009.5714417005174 602.4033007596779,1004.4415417258863 600.6948164237431,1001.6595410740431 596.3283947240949,995.9665794514267 592.9978298587793,990.7810228891407 593.0707353522395,988.4258933031359 594.2240039224306,987.6050002348508 601.6011418095354,987.7248573660281 604.6031682839723,986.5201452620288 606.2547288573969,982.8542977005936 610.9444072189356,973.8724624659604 614.8930859346469,963.7411731432383 616.5303798257826,956.96932494281 617.7998255191213,948.689172435211 616.7681866734187,942.2669249980272 618.0643093341323,932.4755734150357 618.1844496928584,925.6883771199253 620.7692202893871,914.2780565330205 631.7810760428439,884.4796315152619 635.41321129293,877.2405451183555 632.6301169021948,870.1403678787143 624.8964256663812,861.6352917697451 614.5474459035169,855.8218226069989 603.0277239434575,848.5277266071201 596.7269443594234,836.5983317907679 599.5631767277952,826.7719682094778 598.6930583619509,816.6043511826459 608.8585761511017,785.2213457591438 621.5508168385735,728.407869089823 626.62850129179,712.2925581676925 626.615082899909,701.2773642552296 627.5150949919993,689.3265539438798 630.3026325128384,677.1984201253263 635.1878079118903,668.4304833810345 657.9194821235951,641.4906475718301 664.4080292880274,632.6710100386699 674.6300293475292,630.8143994104323 684.3537139648408,631.7428990747759 694.0965301761137,628.4983726519962 701.5167356537441,620.1495636979678 704.2840096415854,615.0432085865181 708.0022309467358,610.4093391760539 717.732561895753,597.4230462765694 727.91382548501,589.0809767130754 739.9682034474473,588.1637599500513 752.4638978944341,581.6840529839704 760.3423588765377,573.8080630642662 757.1795493422765,557.609027332142 750.3843508611754,537.7551713777166 742.700457964472,532.4720078618259 730.1932125554281,538.0283758705787 718.140587531609,542.6496672078332 697.7389582772238,542.1656890525157 663.4072312927058,535.6664466230445 648.1115865120872,524.9303156655471 642.556470198836,512.5967132138213 636.9390859350046,477.2713537430502 632.6625103001874,471.3279062901013 629.7051620452877,456.69642848420665 632.9033236237173,445.6953559276636 637.7274099696937,440.3089726235388 642.4221313562073,429.6603967297724 638.4777944628141,421.0732631372447 629.6347572789122,415.22124694588865 619.6901349330458,410.15915668444165 617.9138559813982,397.3647568865216 624.1243007470645,385.1794262961363 628.2454277220797,364.3521291955544 627.2480429295748,351.5552438804042 617.9048121863149,338.5494667429647 607.856233940638,329.716454222792 596.6402307595317,318.6465954747671 588.7787002990367,303.73869932086745 581.748360327694,294.4643882906895 569.4555424687967,286.8210244574542 557.2934513519556,285.58849819825434 541.8394635391877,292.34730057293893 526.3294874355688,295.3437549456339 516.8106514865235,293.68110629996 499.0595084057187,279.76719474227707 500.0594598590352,289.33626366124986 491.75413730543494,296.89098516884087 480.44140716812916,299.19421500946453 466.85692078571475,297.74468172621334 454.2521795816742,280.0311201778069 450.35280833455994,275.2168594573059 445.4738041079801,258.73334755781536 440.3009331128425,246.78125556827035 420.4008302946935,237.78142922300856 412.25790581741313,227.77345141582782 400.8863548923797,209.14614379081956 395.06530084150563,182.87212355453278 391.1461376886536,176.15990292180334 376.78487364084305,159.09403739344077 371.7175193805289,151.26995848044817 364.2017964619049,134.45078924827442 362.5666517839814,108.4532689249877 360.1994595034468,97.77658473312852 363.1927323900622,92.38412762054804 363.83121167986036,86.56299267894656 363.745726131159,83.4731346184692 364.27732139568843,80.72817096056463 367.71204536890207,80.2409667093799 371.179000723801,78.96704541670954 373.39181411630597,76.81024567315251 372.7676414232939,73.70978682551038 367.5622727752873,72.27465938967191 363.3809531162034,72.34356619466291 359.43749116941655,70.12604841540474 359.3976310804715,65.93686321041605 358.8817566591974,64.00950309804159 353.3220081087422,61.46660462033822 352.06713802851255,59.1605499283836 355.54328007445383,56.141340272290904 360.92242049809624,55.814760533490585 360.8818543601771,53.564113533124214 359.88386973060125,50.33428620629877 358.01535272066974,49.49021841273236 355.6340368082167,50.01781735711563 351.1597456243752,54.04659582861336 347.7449864985237,53.555436766858406 343.6211333432516,49.99151652578291 342.9695178712459,47.60679197181048 340.3233700532804,46.71735178391384 329.63905747425764,47.250036696068605 324.42139577800947,52.615414286027885 320.84191155054776,61.1017508401294 319.96477395781164,60.720148509389674 308.46052166603073,57.90455347433556 303.52860880681186,55.968609589258676 298.0966875121098,54.74874504163188 294.4105532916117,55.11887613053659 291.74267856552234,56.06297356866264 287.5634000310106,60.651015844156404 285.9683216834959,63.80905284751145 285.30847387562625,67.09477288312405 285.5433039032886,68.79603866227876 284.88179674095073,72.16243081362893 282.6805446926631,74.44012015888802 279.6429984342791,76.5887761555773 272.71547841613955,78.45555758589046 271.0244590661844,77.19070471910857 260.0764400854889,76.89622596435845 254.44024936850312,78.12316508866729 245.92616745266375,74.3757642407943 242.81385596607615,74.16020181388274 236.45713177200398,72.55505033232566 233.02343867915135,71.14177768749619 232.18959512254878,61.57615348481147 228.0843023418646,59.78649763195483 222.93754857272302,59.2961451542086 208.23930952027612,61.06951725835802 187.57511702611083,68.24771515347948 176.94620070858528,85.05303345659365 170.916583974595,106.29822506515882 157.90608836682082,118.25079505311032 142.70241313516112,115.545250080541 132.54690665062117,99.91309256257284 127.03210832866274,84.49124977186557 123.2500038018391,81.70405986098694 119.33224629190286,79.52168137467254 117.40707585422231,77.38024670258744 106.40384457564471,70.72320636160316 97.04712626015498,59.08660243701718 94.87742076313206,60.089077619110526 94.35849652039784,72.0384846984955 95.07052373702265,79.02001766317846 91.77174725515671,80.96668315079296 89.76083875917563,78.15752638341814 87.45780253205156,67.56043493905622 85.55056163864988,41.861615069293634 84.55067481549753,26.561680450459107 78.63559729065469,19.671373750490034 74.72707974084082,16.782807994805353 67.80795393445446,16.500430353713455 57.979358363426044,10.22067070324988 55.57509279350046,6.525957672966911 46.349645516180914,5.748950532411186 27.116460927634837,1.7132116073504449" /><circle cx="368.053789174477" cy="394.6324133793738" fill="rgb(100%,100%,100%)" r="16" stroke="grey" stroke-width="8" /></svg>