<?xml version="1.0" encoding="utf-8" ?>
<svg baseProfile="full" height="1024" version="1.1" width="1024" xmlns="http://www.w3.org/2000/svg" xmlns:ev="http://www.w3.org/2001/xml-events" xmlns:xlink="http://www.w3.org/1999/xlink"><defs /><polygon fill="black" points="539.7029554199481,538.532672112216 542.4141386293347,537.1395798426064 544.234954390412,535.4314786515681 544.6461645985075,532.7643457610989 546.3409723778149,532.336327297225 548.182608125592,530.5862132216114 551.2021416703739,528.8856303555397 556.0599099421399,529.2955077199249 552.1216986637354,513.1135630459762 551.0809228980444,509.38719795183874 548.0581854754832,496.9515404108761 546.9995952334848,491.97192702071663 543.9271179892884,480.0865437410208 542.8021445592069,475.10077627854605 535.8098697424118,446.9055767583401 528.9727164331327,417.80871345453863 526.288768556542,407.2249385607349 525.3116699865335,402.8576580831051 520.3459495314002,382.83709640956044 516.0620700269302,365.05249064995826 514.2480532126358,358.26092450924205 511.8785169937087,347.79409335507626 507.206475963382,329.22365196884857 504.51808262596705,329.1841766137744 502.860621907997,331.33030516340716 501.1102098379976,330.05512081151653 496.87998483331484,329.4730177937238 493.7849247627829,327.5372560008291 493.6115460113906,323.77065980837904 488.6743699883242,327.42884030192 485.7616511798719,328.1322207046287 483.5312869769175,327.9975429453265 480.8409684933642,327.2593308549426 479.76867611969556,327.43155383291514 477.69265997427516,329.73150434965737 473.7754212860151,329.63092339928755 471.1286326106989,330.94122193424323 466.24528335605737,331.47968993605775 458.2348659543266,331.74185678767344 454.2139542598728,331.29324567081835 450.2184167613663,332.0123250871337 445.7579442852259,331.9235294122444 440.2791894372741,332.82380059972274 438.7095487233819,331.1735660619163 436.2280456336215,330.5504081028671 434.6906116323409,329.2578355678918 431.8924341610628,329.03215045722334 428.4961748773016,329.9696331013779 424.7124195764583,330.5073519240133 422.9062759191776,330.44069110471094 421.32519812248586,331.1362370480375 416.98601556625323,330.5806683169727 415.5050913655978,331.72490912029195 414.1296107938585,331.1138645715338 412.372231228192,329.2525339676996 410.1866003099919,330.42468704775706 408.90508472337785,332.2087022017753 403.24066241224386,328.8258695053713 401.79839691230046,328.8825748336985 399.0463950319915,330.92915007189447 394.39697670508946,333.0734882705988 391.57324512547785,337.192036222463 389.26763352335934,335.3426594471604 388.45048231783124,332.59563330891376 387.4232972186629,331.69912521338097 382.3880843877888,328.9948700090523 378.4917072379304,329.2444030937353 377.00298865413663,328.2867897709747 375.5256798992095,325.5557260020406 374.3464076131653,325.22594099114076 371.444171378377,326.1677993602282 366.54305954752004,326.6248564346024 364.9098553918968,325.89647794649716 364.3457194456433,324.1473404799043 362.8851319514205,323.4147186242809 358.20699146643506,324.3677009685607 355.0490313434732,323.7058123656409 352.13356788460766,322.69995241088986 351.72758414178196,318.96992939444044 351.9935233253877,317.08893021603603 353.0446435805909,315.55801150999014 352.0127885333146,311.6390983944648 353.5357466639462,307.58755213089034 355.84741964202743,304.5007168175621 359.60320948793304,303.32498803524265 363.4417461784345,299.4123007298824 366.3748059366715,297.27216207653294 369.1027505966172,296.3054154058058 370.90625867573385,295.20634177667455 371.4751177234101,292.1309414131978 367.4779372251153,287.4269293755964 366.35569422746374,286.4506140203009 363.3637754758285,286.5541186978437 358.5886601262081,283.8031984690813 353.24815258830256,282.20145044013464 349.973910056303,281.624653320536 347.02363601963947,279.3104354424265 342.9513276223232,276.86884881119386 341.70819513276996,272.64062315739125 339.24952184360495,269.01479788730455 338.1525294377893,266.2268816463768 338.56563933302675,264.26312512340576 341.17641719743557,262.16466787927686 343.4728191893853,261.5166121203571 345.76110575838356,260.3164737084695 347.3561669955903,260.03243657008215 350.30721006438114,256.4219235094289 350.2619178914597,253.8446600983175 348.78598064258335,252.84709656854852 347.8977084995998,250.4748593834929 348.121540212593,249.395324225781 349.6358675275065,247.60974414584143 349.909144707957,245.84356634906567 352.19325893712653,245.19532781398698 358.8242628779174,245.35288192720157 360.1285262341915,243.60294974212638 360.8155795239058,239.71001320056666 360.1112969361494,234.87969500070835 359.4882350886184,233.40168817483254 361.00417089547614,230.3383490545441 362.46856646686905,231.1104765534185 362.81873970325154,229.11859559480456 364.79101956306243,225.48154314630165 366.78244600584327,224.69683857959194 368.60516194659783,225.15380327723733 369.7745921987587,224.27635927507868 371.8758730618026,219.62427540471776 370.9926427500707,217.9282544035367 369.5848453660471,217.20659201971785 368.5349046322023,215.47414094132614 368.8086043688418,213.97514622737242 371.91602177162656,210.16797704497526 372.4146339820716,209.04187941292355 372.49601969225887,203.5513761904681 373.3679665312512,200.74051767077083 374.46037883462435,198.79216909020897 374.4668782961088,196.7895440559314 372.9859685158777,194.63936097494138 373.247016601622,192.6606407838292 374.67070965382953,189.31574431299305 374.72946172238574,187.19917125850236 374.11109636461015,186.14172315770475 377.6624931722362,184.04157232076955 379.3994113909024,185.15310724004405 381.9970571627175,186.11080925466763 383.52808459524607,185.36840036540343 385.1774264645947,185.36798962023147 385.8719061123991,184.58435470605616 386.35986286135517,179.28117130919566 386.7622762179758,178.1064891886232 389.3958746268027,174.3128672343239 390.07580027543304,172.29421252282032 389.33880516098196,170.0149207827552 388.4962666688663,169.51464165382595 389.3658902335554,168.00221352872052 391.09449999600497,167.4481809795883 391.56303644082976,165.58868344013524 393.82231712350375,163.69394838366645 398.8660869086684,161.2190747334039 400.31144681056446,159.52850555508417 404.45387451284205,158.86239243014734 409.2414328016648,156.3523366879092 412.1717458544798,155.86935376736096 415.54092039696087,153.7215246257175 417.9036998265837,154.42688625293817 421.56746397918636,152.1377799194346 421.8442243289342,150.84455413787907 423.24848247971033,152.99362673304188 425.46034142722453,152.54884240914657 428.10793942501755,153.9715585186717 428.48993632740337,153.1341737626335 428.09893582029014,148.9073536516588 433.67623601319747,145.37457003381303 436.62642815671916,143.7873965123523 438.89338357114997,143.779281687688 444.78046789491594,144.74853940046512 446.66943275330595,144.4547613097435 447.86361792550264,145.06618303454422 452.8238585166885,143.38478347017542 454.76657257213816,144.07868994975388 457.81285368465115,143.62064692781064 462.30459726609564,144.9411231059196 460.48911021854195,137.7624050526456 453.62289886491374,109.27142583702357 438.9673825323344,107.7583252713539 433.8328039785409,107.69818066016774 427.46873011871696,105.60865454110933 422.1010490056218,105.26760154495912 411.92301194494496,106.7513583899431 405.7434328060014,106.87814823268207 396.0823682312194,106.75450197846692 393.5670774580907,106.48121643698084 390.48319562655735,105.09935079668412 384.8518126269272,103.47607951057796 383.8543876669981,102.69479545206627 381.8492410522799,99.59402949055493 381.712380477751,96.7523094849638 381.1308620849204,95.33942111624822 379.9955484645526,95.00023258264287 378.5924168775503,95.65700962957499 377.0750229243714,98.18262452901126 375.430903435513,103.41359232664263 373.8181752717543,105.21785725321183 370.6726781430899,106.48850944088701 367.20457918974165,108.36822539482739 365.01902078087386,108.23843781128915 357.5963028288455,106.73656486020468 351.0789764193524,108.63822535818883 349.6659090801296,109.62039618912308 345.683477923566,114.04087660384187 343.1544930243517,115.72318976230747 338.00224687164643,116.77461227804827 335.2283499611285,118.16718487665423 331.84292122963745,119.17583009353575 329.48036250359235,117.42614758791501 325.0105504048919,115.32861299989156 317.5661050767546,109.1187242212552 314.77217999054204,105.1666121627278 312.1254225460312,102.98482090351251 306.74825925013243,101.45812837096878 306.2029387290369,100.79802796485762 301.7051489576505,97.6391216880454 298.67825036231847,95.93503279641925 296.74685537836336,93.84859092824786 297.2202071149077,89.68860853164074 297.02507169486097,87.21632836075798 295.7055027635526,85.0554895325929 291.59155180260404,81.90829179940067 288.77109009182806,79.28260027662725 288.01403729741213,78.03611407234325 290.11594263538393,75.30826650945983 290.09072129819873,74.452845993354 288.12580396456656,72.53107703590251 287.44850960016015,71.15028013015797 289.3677316016305,67.92761426729317 289.7000986453213,62.91730396044227 290.58791147414115,58.302835545558196 292.100343514381,53.501074901506854 291.94882255809046,50.275693706743596 291.3715150552123,48.68005144298138 289.3713898011193,47.330375448888844 285.6894219717603,46.283956640064844 285.2898588467474,42.290730031901944 286.95111696633154,38.95417993906631 288.80707681816114,36.17240168133287 289.70546955322,33.50528937842091 292.0965220692542,28.827725253675112 295.0294145098766,25.167292725689435 295.40861077111157,22.735706674725293 293.4188511794069,21.082157121681803 292.7468051989547,19.66245393959764 292.65174079146175,17.44567308060823 290.7954984819525,15.604901380959518 289.6025124302556,13.098333693372979 289.6800291832462,12.160420772867383 292.0234709926002,7.853572184593872 293.11667126356446,5.060483995697609 294.09971807213884,3.7050528085671885 291.3974122754975,0.765976321361677 289.72089886679464,0.0 287.35195470346963,0.2882895269497112 286.05295582000736,1.559558197572187 284.6937501427134,4.062621405095456 282.6775860515093,5.818207105385682 276.8147806883916,8.33210186619624 271.0284138330774,10.121576546173515 264.8683942226535,11.714783944806072 262.294872822725,13.715920682139995 261.33326241894343,15.854726896921193 260.6500900341444,20.083236310105917 261.04170645253345,25.77445570996315 260.0468271008196,28.646181184849297 257.90409201231313,30.475589381969712 254.0609133184558,30.51000463513128 250.49655017433645,32.66558936412355 242.01407591722628,34.154391527161806 237.55811575904255,33.66137036341058 231.21169110431038,31.926098960161198 229.0660850400401,32.419864937945704 227.05262442344406,28.829234999810865 225.93592920661553,27.927512121227096 222.53823251811406,26.340946897589788 218.6112108942114,25.234278488755763 213.07847209701515,25.402893895644297 210.23493924499434,25.717842155892185 207.99442056802806,26.426824615180408 205.11603226652926,28.502453018980987 203.7391455889761,31.188880903615768 200.92493488407916,33.48736889855604 197.29258969418515,38.8465117388663 197.52356018573798,44.105765325326615 198.71032647424107,47.82832812891854 199.1671450471455,51.209963048411964 198.7862515210006,54.62894292995634 196.56688143334767,57.7309066179472 195.50497042471844,60.004297165650996 193.46786720202869,62.06312958746423 190.44698936425175,64.07165170246822 186.2186332679702,65.87007662269582 182.79750150647624,65.62478156722523 179.05835802729263,64.64247528851888 175.03597113798298,65.20294550811025 170.41400535919448,63.708047957276904 163.25753567006487,58.77038114745301 162.06611443547817,58.79434760250251 161.46306763727824,61.18933421258657 159.80513670398847,65.17447926215016 157.31070287845836,68.74952323147068 156.93288431390832,70.56007867100493 159.6925351897542,76.08759171266797 159.30949918008028,78.1743121454573 157.5120023925926,80.49238270908359 156.6706943905089,82.58822914652649 156.50438387024556,86.68775499980427 157.8014038352901,92.196170696933 155.7721811059128,94.26493913231059 153.6077795607227,97.3246496777059 152.8170569948215,99.51140553350899 152.03360110874166,104.55278687277189 151.06357932510542,107.14125278757183 149.84295300808918,109.1024618162478 146.8417056118473,112.06809990759655 144.0069829390267,113.97924973043871 143.8436917440369,116.08287770997197 142.82771634023084,118.07158102200594 140.58076452501794,121.24642836281271 139.71767304050968,124.2814665037879 139.26727965274407,128.39034500725472 138.73191656250742,130.39016025310843 138.39395496540567,135.99676622560185 137.24676207658285,144.35488524218147 139.2230663295898,149.0303083544112 139.30804941858008,152.53934784689795 138.67628065852787,154.70442119892925 137.4762838215525,155.84067733435722 133.56497930696887,157.40634922949766 131.93029690617695,160.3672951368012 131.2113674192578,168.93498253094242 128.96611334645706,170.08088439829532 128.1436027835667,171.31190792661835 128.31934363590483,174.42257502824611 127.64062876792963,175.0789256303459 124.99858988019983,175.4462119385263 122.15360555374784,179.95209125095448 123.39157683971445,182.22623554271297 126.20801227063201,185.1228304727939 126.22140096922465,186.70576781160366 128.0425133816051,189.05028799238175 125.2682422753019,191.20793616641458 121.87357988468143,191.6402093018204 120.69510474259185,192.81680185934613 117.40424941286513,193.75835864383055 116.84685105821734,198.1917050913405 117.2393376202882,200.19652936337718 116.79821887041497,202.62568287389036 113.7876227431795,204.9710921461782 110.72663331108748,205.8054629665147 107.45200662465307,205.03985915246665 106.52597003466259,204.33150966401445 105.63729035104538,202.10114766576294 104.47856628497755,202.27595362866975 104.61885401539516,206.2470867142747 102.6560710464179,210.17666901452696 101.64810698939077,213.99633281385445 102.730703631835,215.3554228807543 102.65193957986654,216.4911172055331 99.13513937871778,220.26630500164924 94.86935925482754,222.1951215102091 94.98234635516569,224.4003833906953 95.82982307378899,225.3356802481112 97.04850486214826,229.24793142362887 98.16634627498519,230.99512413114428 96.9858984156556,233.04117201354734 97.26076061446481,236.7980091055539 95.90509945712053,239.8593340081219 96.91749556593611,246.05731162268432 95.92180684652644,250.33974478495043 96.36716123827037,252.53011472586468 100.6158311177689,253.10558465460326 101.49741627647511,253.73321032883166 102.57466166789736,256.83260787678273 102.81229831213072,260.3664380624672 101.88379215752997,263.75940881405666 101.3925301158688,267.1545261853224 102.23033116384971,268.6839826433537 102.43127803473811,271.13504414783483 106.12093835610474,272.8364586343778 108.50379930639677,274.602579783697 109.7358321438562,276.1443432600313 110.0849666324916,279.67842944319057 109.07650521521516,282.96120105417424 108.00335106860624,283.9846693305118 103.98661724822635,286.17829373273935 100.48813665628818,290.0402303124205 98.79139362347853,293.32599982961653 98.31316573981535,296.56930843206385 96.97333942262,299.08140964546146 96.58487504288797,301.15710950065375 97.30707975059163,311.1254475368021 98.09494598135427,315.3089678584719 97.43245362927875,316.39672209239313 97.59264021142825,319.3632764195422 94.42513236417679,320.28229880046297 94.0303649777597,321.44675765130535 94.78451286810939,327.14741735586256 95.46711881984793,328.6513123364981 95.96969220110063,332.12470592266754 98.7915972631865,333.78336241776174 100.28309015263018,333.99129842381046 104.24438725456312,333.6305772741947 105.92340594538021,333.8142195876776 106.66669298482823,335.8593432313754 109.01036988122279,339.5044315894843 108.31281797251816,341.67879912568776 108.2005042097773,344.2935103468632 108.63132010659399,345.94549889079644 109.767828549944,346.76495533236346 109.49510141391087,349.08603813772595 110.17783302094465,349.3698855135141 110.50800466335436,351.3005514650524 109.9120364926159,355.0426553605737 108.0152426775646,357.5479752866139 109.47139269813742,362.64522190713046 110.91532306073681,365.9192303467197 107.57115135129189,370.3281708575049 107.36094374514524,372.1674114852908 110.17547681694195,375.3547794994423 110.40707202201916,377.6164379506587 111.59654695142737,380.916610504153 111.82740053851116,383.77312929923664 112.54770823035653,385.7289817704932 115.17403196161115,386.5203698997399 117.0777946090267,388.2080069842352 116.72620948110006,392.2453661784542 115.82289609608128,395.0320146496032 114.82480153003762,396.3324974996675 112.39625151662246,397.8144537912401 111.82713346352813,400.07127426078546 112.61417722390046,402.8983251604726 111.51994630018228,404.71447736307425 110.22801657181856,408.1657671877455 110.53136955025548,411.6070447250188 108.59970916825162,417.42106049611357 107.32235497060238,418.37837424192435 101.75206173201408,418.1121652586063 97.07037847734624,418.6910763005443 95.80407811873702,421.50614202004476 93.74205323172603,423.3507023072897 90.72656911972817,425.3965880619461 87.82307657543214,429.00107831483683 85.60042894219738,430.92986600289066 85.59584376274994,435.89878880048116 83.11588637680377,442.3710646452737 84.06776945275534,446.73814084730793 84.1149860102165,448.4004321332171 83.18768172917491,453.1306375545215 83.96514325843813,455.2016522558656 86.3505420774546,457.26413369001955 85.07437685283354,458.0573736918801 82.78589234573752,461.9913255920336 80.85486674670324,466.9259482077349 78.19114458658375,467.9811009594123 76.94106274362427,471.20844652855465 74.47602781916464,470.93454808541287 68.1337434280055,471.39646648401276 67.59919273511666,473.8819819402934 64.7044115570103,477.64249638378544 62.38413987557897,479.8921757393082 59.94279117227244,482.90522001014483 58.02395772948571,484.58293796361056 59.081578604038604,486.4757338230495 58.8429758383237,487.4665147410925 56.01324281463212,489.64308789806546 55.81458030881027,491.32234007445993 54.273051264475434,490.7425306498236 48.75931997452534,493.870259857717 47.59560357929054,497.4267182255637 48.430970154211934,502.9011470634749 48.09277067899176,506.84461118853005 45.18211013546535,512.8167104267657 43.77326536787217,516.727789512297 42.002463922460095,520.018499499047 39.63307872243651,522.5270962575237 36.977867335318095,523.9816938509757 34.70544177831327,529.2966053768289 33.340078818568095,531.5720729697728 32.527884361216024,534.3012758044831 31.159654626440236,536.0842280019074 25.960527548893765,541.119715010136 24.952846626143202,541.5069826735681 22.190270357980143,541.31690472774 20.86665097341317,539.466612486956 17.346124960910924,539.6077028054485 15.824906894815268,543.3158663005137 15.950699539764509,545.1758583074286 14.786628558198323,547.2530993514879 15.844361625353875,551.8764927207529 13.427233820203094,554.0672229087991 11.720064136690036,559.0764974872964 13.444145512014822,560.8078210139238 13.575878878009402,563.3790720198176 15.355650270920487,565.7993603123808 17.122450066784786,567.4267569231201 16.024871911028146,569.8542162020034 16.478888290710067,571.6587996602483 14.683740692864292,573.0676112973347 13.93573817399593,576.0554621289305 13.975509528840753,578.4640640595184 12.998135507394725,579.0773513726996 14.813067648171124,582.5891076042199 15.116345451403665,585.3851133694634 13.870847473371098,586.3430586860754 12.948455347787283,588.2528418656007 10.18787766653085,588.6590952203272 11.915885896858775,590.2572026396294 10.984015302047952,592.6104038524045 11.00791270891839,594.4125826051661 9.025763197466654,595.6917731906965 7.764516416018173,597.3912866458452 7.501096920676308,599.7025313610764 6.35705659140109,602.101123213976 5.934900754505995,605.2912452643147 4.770505729429849,606.103266882069 4.928290312267767,607.2442451177953 1.340622153837365,606.9829954867207 1.2587182813805375,609.137395547004 0.0,611.0333047089437 1.2104320048420147,612.0232132539415 1.7768180752620026,614.5897776934144 2.4775556347077283,615.1247972399528 0.9759193936229277,618.2300703409398 0.8645630421054069,620.3032585316657 1.4975426413126143,621.1074350064064 4.448666681857655,621.6566342535789 6.725708198093339,624.0104923489778 8.171413381846433,623.6260402220918 10.449769340982229,624.330996320005 11.394020099691637,625.4082938286158 11.567113894073808,628.4459295862532 12.711158977934813,629.0861338486523 13.413941681572824,630.7343828569512 15.400814902974671,632.7119688006512 15.450136647438573,634.658840046488 18.241264853725706,638.3240902257814 19.405957818290002,640.5006977433699 19.009252141949325,645.5485768721499 19.514686817750732,646.0556698949098 24.485669378245625,647.6748425567132 26.26079610087085,648.9544945586338 27.627349162337588,652.8087753819882 25.27345365841941,654.0654417884293 22.420791958656515,656.1962760926842 22.58705127919106,659.5036219471652 21.5402136804426,660.7280160196856 19.476665068644675,661.9589305026211 18.0633940769458,664.684168062603 18.67310679859912,670.1309012691243 21.11640969893567,673.5464295734843 21.85813544080194,676.4849711297048 22.002272276107796,678.7736324072537 21.156105780107385,680.6758736380648 22.31344015116447,682.3791139323642 25.723617490357388,684.7164922579583 28.528845096166314,687.982094123573 29.643621295883655,690.4408441657871 30.066976472017807,693.6843725483745 27.145867701588674,693.5373844609114 24.678043506283313,696.1075057564804 22.56339573279033,695.3892991127491 21.2141761129778,697.6718036791242 19.544460553144166,698.1435470165623 17.40313510014297,700.1916072362865 16.61836529902725,702.8262687799186 18.082050058281567,705.4040268301007 18.758007964352487,708.0669272097682 19.89688302824983,710.6698248999091 21.56255503966144,710.9316967664411 22.51074918844961,712.4441219332165 22.84331187913072,714.2871338334846 24.54786165290818,714.4959209326687 26.608573999861523,716.2998210783695 26.02632267432115,716.9494971547322 25.736088671371625,721.0336359390578 27.806362333919957,722.7033128102246 28.310748358328624,723.7480212080724 27.61207268005758,725.1332032276492 27.3484693991626,727.7815350683977 27.98556732747144,735.466371795618 28.64231587466462,736.5814927421052 28.193708252594547,738.5413990923071 28.6816983973951,740.589549008552 28.23062418458669,742.4043713994777 29.632077995931382,745.5530330636278 27.625710175854824,749.1202228579346 27.2349505577417,751.1838224513237 29.519337141613683,755.5477364274525 31.343029774310022,757.119122981507 33.66939257067771,760.6248990703339 34.355593462487725,762.4737919507331 37.37039869894026,764.5832134832582 39.50254345148695,766.8215831552791 40.53193005997861,767.0936159687037 43.789104998134945,769.9019556186984 47.24557956432758,771.6004137931875 48.675187452435814,773.6537131876893 50.62412192821611,777.8598625865152 52.803732626172845,780.1801275286427 53.0168906027888,781.5103346297276 52.02866845852964,785.3013127156855 48.761292985664134,786.5261874930733 47.574284539233425,789.5456678675915 47.23141758683262,791.795766372618 47.693062194951715,792.563464935005 47.29334917541499,794.7526760778292 46.0091164500747,795.6952561233102 44.856605935670515,798.4349183909952 44.964642505001876,801.4743046971055 40.8526665924144,806.230749868814 37.81241519810714,810.4200027568265 36.738153645040306,813.2112440213157 36.89361233110192,816.4679012297747 37.81319385534884,817.7767521110159 37.586006417883326,821.2682341701616 39.0763127260455,824.2034338544961 38.78236595540528,827.385184360401 39.55591014331264,829.028739037728 39.163777753029066,831.4056545302226 40.32969730223181,836.3438773354029 41.77913988896713,836.8269181637303 43.71518146280078,838.54352536952 45.62127874524516,839.1329056711231 46.50656004768563,840.7221216086996 45.19601199927036,843.8196805928585 45.29772950082321,846.8615245339095 46.53180062835434,848.1664743073748 47.49330083186893,850.6036936843257 47.96964427707101,853.1847627360204 51.12207912659504,854.7986916914105 52.77069088212913,855.0702476039639 53.82849724375668,854.2654532945048 55.83116270324799,854.2310721690295 56.927856842790355,856.0242472794175 58.737605281852986,856.8526955256373 61.0252811205893,855.7775040583705 62.01734615637006,857.9665090616866 64.64281610618879,856.6465948830271 65.29823310534775,853.3735151156029 67.36993231006817,854.3937527679585 68.47691451311796,857.3776173477414 69.3408694386973,857.6837065124255 73.12497676093668,856.5405264006533 74.04357681916856,854.5148722064723 75.07635466901777,854.2381891690618 77.03239839219749,852.5050754660665 78.76576493125914,851.8638464784833 79.36648528398901,850.3099933325822 80.59741609823107,849.4594930762601 83.52125074387148,848.8794611850929 85.52285697623556,849.7653504240318 89.53007015007843,850.4606647995297 91.40216339368986,849.7332164468723 92.62866380632242,850.5391323733935 92.59293666610589,852.6214963254788 93.30581959179453,853.871996363059 94.8220593939044,854.2594794418043 94.95784409156659,856.2039423915458 98.03518009815278,860.374538795647 99.77480784065116,861.2852085173231 100.10521068128195,862.8018625957656 99.4272781706672,864.7412189324477 101.8283667825979,864.9879692472988 103.04316243040388,864.1990433153021 103.8884037419344,865.2923511210269 106.54210278190943,864.9537645949065 108.22364426774557,865.4409193922254 110.36135608956434,868.1576352310547 111.01298221370347,867.2860324196679 112.8526617442544,868.7233719308992 113.05187023794177,867.6522709498786 114.68726291883065,868.6896345570574 117.79654438705282,868.9637904055934 120.05532796549738,870.6207247007995 122.05701650700745,871.1117854520692 123.16799180515038,873.7954610372147 125.6003321087511,875.09759997924 127.45282857742605,873.6014487074277 128.90097634687038,874.4864018219426 128.74684026129452,872.2512801588472 132.0371839974811,869.5995088173348 135.57961926770193,870.8073322448965 136.59672795796584,872.9635224797262 139.72673791865986,872.5419475785737 141.38063059783832,875.0904498340815 140.96532161774104,876.2799875968503 141.85867646296424,876.9054302331682 144.83838307760186,876.8385021930428 145.9090904550152,877.6365566415898 146.11378365566787,879.549497356872 147.34528050784235,879.6505245842436 148.2198579417326,880.7631555316062 147.97043708107944,882.0947199732122 149.6990311446898,881.7611109887415 150.17253613407144,882.7473513373732 151.41511481814143,880.8059119649727 152.98241747367985,879.9677074925035 154.30879568186714,875.6524963067163 157.49668720796765,875.0311716171228 158.05953063824293,875.9838922142499 160.47422778761722,876.8801722345092 162.11375069465774,875.7396817989968 163.11680478528837,875.9169009051309 165.44353464331857,874.5971905346663 166.28939638038568,874.8091254490175 166.7874509593923,873.2862207784915 168.72737885740094,873.7353163956345 169.1950081953111,874.669154469271 170.46475674138972,873.576831818047 171.48780472487906,874.510086065481 170.74240305976855,876.0172670119468 171.79638667248352,876.2036189197629 173.96317773172626,875.0523744020838 173.781334728493,877.7920904598371 174.86940898428958,879.7391504957515 176.5666461330424,881.5401654781642 175.0342083561469,882.6996704154388 174.20487420850475,884.2188615845412 174.29368299374858,887.596447859475 173.15559408353056,889.9813782124677 173.13495443160696,892.9257036859573 172.02996145128463,894.4502482758256 170.9282090802503,899.5625916787089 170.27314224443845,900.8189462493615 171.2437229841335,902.4900188791459 171.1418090245321,903.8814859908815 172.38857596576094,904.1370411295877 174.50658314150888,905.8680481926621 180.22889867238442,904.0764311630761 182.16210532130896,904.9605727031656 184.5234829370829,902.5186625549285 186.24431516809437,905.1595791452974 189.78188511578674,907.6191045511038 192.4616116536904,907.3268616229122 194.73500907817174,905.2597400043949 195.60277381701516,905.4080898797197 196.182696217392,907.989076000544 197.20636388475634,909.1502237474696 198.5831164632871,918.1138560170618 198.15576371627128,920.0623603644311 200.74124673077142,918.9523097829019 202.62594970423967,919.069717115174 203.74432390220164,916.5686775584392 206.09412994637387,916.9041541683674 208.8067772234134,916.2788319189052 210.41219983314846,917.0138835404508 214.4491973699654,917.1384914105656 215.93595959136852,918.9441042674168 214.96663622904708,922.1070246968238 216.06689500630992,923.4224731288809 222.04386093388945,922.4701016273482 225.73849311802877,922.3002437161146 230.5085289271546,923.0626753383199 231.45852637939882,923.592553966175 233.5644627234598,927.5840878411055 234.541781170587,932.1281035337953 235.66946381087507,934.9685195202962 238.70153823942843,934.821842873404 242.20529605021875,936.7509759278446 244.72053683810572,937.123966115684 248.6173167680139,936.6364359391708 249.34303647778788,936.9327832640123 249.29186978009642,939.5591166182123 250.79156090311955,942.941777675968 254.078210917254,943.8888271972057 254.1252695351555,945.288493590143 257.3931047403395,948.5088400157974 258.78832229517434,953.2854542900053 260.6340086744105,950.6921391990247 262.51092835753127,949.5931325894078 265.624509830855,948.468282156131 268.5907010425433,948.0618117673935 268.28080638929356,950.9015820920526 269.1476396470114,953.5510203776207 270.86729476134786,955.5689424930853 270.6545679025379,957.4524825713843 271.5643352916526,959.7273889925293 274.46689212808985,963.3606367326046 278.141553511073,965.7618569179763 280.26364767009267,965.5705430471924 283.1960765272857,966.9294959181211 286.19355027658486,966.8742542731441 286.9238288423256,967.3460423054553 287.60490510896875,970.9447020714422 287.92107191641946,974.5933941625481 287.59231370700473,976.0330287855031 289.6354603307256,978.6159031794792 291.72000183374644,986.1422866678304 294.51668218354433,990.2050743897021 295.83462980675097,995.0895681103109 297.39086888044807,998.2761810536061 298.1780600529376,1001.7914740814423 297.53360288767357,1004.9957751470826 301.34984592599824,1006.9687261328008 303.77781802974533,1009.0452335506886 305.7328575979042,1011.8808978555858 307.0681815027837,1014.6985817280505 309.0387692221215,1017.4616040787657 311.5769757463072,1018.3820398420669 325.39190047766954,1020.8565130299206 328.69789801050484,1021.3533532952076 334.42256921212737,1019.4763114812986 337.0074339182958,1020.4356146794646 339.67336329892856,1012.1840892363374 343.84502507313647,1005.550653413989 344.3041523818773,1003.710973232212 346.5072430822943,1002.5789739258663 348.0239545734442,1000.9543294380346 348.88602528208804,997.3388227871895 352.9766194382658,993.3682945896988 354.94462026223505,989.4159690022669 356.80146078098915,988.1884042328841 357.78887020896656,986.3679448009375 360.4803343206644,985.4427542962557 361.9506169299933,985.5018842215879 363.62492022284846,986.5738606418261 364.2963683050505,981.8416709522276 365.69447942867185,979.3054110675068 366.8301008328858,978.5520810837565 370.6436176485432,977.7449902870828 373.6842463206051,975.4503980670908 380.68160253550155,972.4799160928475 383.0708004881135,969.8052021227263 387.8554376993505,965.4221708518669 388.65461094535453,964.9674852268429 388.21762044880137,963.4097688540053 389.53288448050563,961.2491112373621 391.90932733993736,960.8912440394638 393.5337607576513,961.2875415972387 396.5597853127439,960.7892182748849 398.57645119166557,960.9061501807773 404.1460256954341,959.9711921893094 409.9218604502179,965.4169812524805 411.14687056080953,966.0414110725475 414.10831004999284,969.7700202661531 416.58108412537143,973.3129749125555 423.3160568455138,977.3431052194695 426.6557114935706,978.5795458935584 428.7675224272635,980.2104040678947 432.64627013698265,987.9267102934245 435.4480013892075,990.9941595094238 438.92898828309285,995.7912279701877 440.80497675646615,997.1887446133237 442.5181632041159,999.25504403186 445.44136634242113,1001.3122573722749 451.46642141524507,1004.850509825909 455.7056321976686,1005.0334158845465 459.35577568695186,1006.8429063801627 460.9237076280923,1009.7865045057201 462.1803390423605,1011.1474659730624 461.9417736036683,1015.9354726102054 462.69405114785985,1018.0272110762616 467.9031528752447,1022.1468264270876 470.3686367061136,1023.3933173305214 472.6605319106697,1024.0 473.0538403413769,1021.982852750878 475.2454262493581,1020.4707207974537 477.0750985108076,1021.4944759774586 478.93642294302225,1021.5923618234633 479.85307632904244,1020.2168749340359 482.00039078894486,1019.8177734293491 483.36224984125704,1018.0252938686322 486.02084582507456,1015.6381993009593 486.8206482709359,1014.3385835858581 489.14410272789627,1012.2813054222366 490.50066003140415,1009.4185562231809 492.48812515202286,1007.9005898513893 494.6770700336603,1007.8123641978408 498.7162939514301,1010.2116931951283 500.89017983947275,1012.5559060417186 503.50917273242976,1010.1997611188002 506.1037406580203,1010.100321439139 507.39599740189203,1006.1574306374246 507.7733917834506,1003.6008611090353 507.3582711064488,1001.5428486754726 508.0440880220601,1000.225221394561 513.7255759952882,999.3469511309651 517.5378455572283,997.4270652402805 521.005809922497,997.8120036508607 522.958468701795,996.5125897989776 526.0142914135525,991.8165079410365 526.022677896991,990.25735484946 524.4046426212184,986.808485965208 525.1873997356896,985.1460370368255 525.416616403377,982.9891137550827 529.6139945330789,981.6393451593494 531.488668333356,981.4436012236632 536.6312149113668,982.7904914747558 538.5960688041396,985.8955819182224 540.0862982130785,986.2605332717246 542.8830066662408,987.857690185009 545.1672626087435,988.2008705393753 548.9052335317441,987.7560691440515 552.5503146156888,988.4559781000985 558.2758906826687,987.2077492234442 559.0765872735295,986.6350859750091 559.7456605340698,984.5586145564315 558.6862290415115,983.3096805741983 556.4830069733081,982.6118666954152 555.9983507387657,981.5858716832042 557.2557459133587,980.6269910644476 565.9222329933827,979.0888730441984 566.029545294304,973.2053046777116 560.4159942814895,967.4387550336867 561.1817175567518,965.0073025712226 564.4469410834928,960.969868855145 563.0534292273812,960.0325812003438 561.4868292539198,960.9795752163144 556.5088090935378,962.685419060875 553.4143676846495,964.5564140283651 548.7818688876907,966.5843518503502 545.7325703992038,966.6161371220941 544.33511011244,965.9481738357134 542.7383313834023,963.1141527547644 540.9618471780307,961.5218379672673 540.0913330712046,962.0024964774155 537.4254395692601,960.4025016271179 535.5227807045,959.7480062457684 533.9427904887472,955.8438234245332 531.0676610070977,953.9587994271337 528.9741390352932,954.9919305863338 526.8507801384517,954.0622137438444 526.2788687069497,952.2711393951023 524.6831340092591,950.2576894059 523.7130316462321,949.95134572863 519.4627145272328,950.6889157456567 516.4612612575819,948.038487995327 516.350019223463,946.618988239303 515.2603775051314,944.9868188098205 512.3028321543687,945.2418015225066 511.2511068328758,942.9238848778634 511.8248671588187,940.6031532939879 510.04137694028407,940.3911887520619 508.42357343028965,941.9399429532064 507.13707509520503,940.7277530247032 508.8957115604463,939.591804609693 507.0205455371182,938.2500697062906 503.8777096527548,938.7070116818302 505.8389072330893,931.8664582182258 505.7944018648696,930.6014664282861 507.19991224240636,929.3289454377169 506.9339384254101,926.9178974620621 507.42052111965654,925.1405844174183 507.14954299405497,922.3456903141887 505.86274910587485,920.6678069369062 499.3969431684746,915.9828740576772 500.2722087458684,914.4135432557769 502.08317273482226,914.0237367046373 505.61215246806836,914.3967285485224 508.46354586150096,915.7323604198394 509.82998718740083,913.4238625189528 509.0384287839363,903.3194221844122 508.3778937829417,902.1438005766674 505.8345160985574,900.3240192000903 505.67856360637893,898.0560137308106 507.29718373284,897.0070454348764 512.3008489759434,899.1974925248205 514.6782117861499,897.7337161922404 515.0348787269921,896.1477795314677 512.2074841078672,894.0138317696296 510.98091149264076,891.0080117574159 513.8217071940389,890.0920015816281 516.1704967765938,890.7241439361628 518.3035584181929,892.5337542475266 520.446978674276,895.1308077272056 521.5233338945399,897.1352702954352 523.2208697407615,897.359350613242 523.7442487122364,895.9140306447146 522.3107520666895,894.0128397493611 523.310759737759,890.4594204559941 523.7005540280056,886.7986464038834 525.0386229106252,885.1449037895379 527.9903692958359,883.789464925742 528.7476648077526,882.2861752564261 527.9265573157198,881.0024905597137 525.046606411848,880.0330162467544 522.1190735795627,879.5827241463162 520.001055089898,878.7479427243891 516.3486573733088,878.0684564669344 514.6429932432197,876.673390604153 512.8599115653071,876.3680325889512 511.54127546897473,874.1120399903403 513.4649824606739,870.4326034902455 513.7560177335481,867.2426495469765 512.5374626703168,864.7356910819113 512.4628332373934,862.3536379506621 513.3141944456713,861.024997099136 513.3353560538991,858.6713193071687 514.9343778396963,858.4111269222593 517.7099825481184,857.0101788110069 519.9204428406227,856.7333942324676 520.8955314450324,854.789583028356 519.6409013277913,852.5955595779944 520.5136511402193,850.4061775975011 519.8203790891052,849.8861346317772 519.7240809539097,846.5208683806511 521.386560566895,844.2483218440985 521.5856327563235,842.6784265804318 520.339074054725,841.417219118857 519.4137567682084,834.9880415680063 520.330928145904,833.6066813939669 522.3379993764955,833.3248852474723 523.1110721534388,830.9833988442846 523.1654640457211,828.8382254777483 520.6479737438663,823.9348336021696 518.1161214304497,822.4178400379287 512.7622274287005,819.8593392619518 511.4038062692073,816.2604973015243 512.2592927097699,814.2811415786575 510.9535662635691,812.451681629636 511.13756790139837,809.4755875279454 510.79610634075516,807.6004730827324 509.7602822506695,806.4063952244146 509.7193406522259,804.8754936100864 511.4846683197241,802.7472356357764 513.3885515827537,801.992482673292 514.3909558772909,799.6473421805874 513.8917133611664,798.80151848788 511.2610827827448,797.5368024007558 509.7360008088179,795.8591849003433 509.4786867863331,794.1999886730823 511.79384089769843,793.5580424218768 514.1780562507802,794.0113651022775 515.3120025167058,792.8011530414414 515.8366648376078,790.0133999627536 514.9517428033215,788.7955510953308 510.69114776908174,786.2917195202153 509.0737288892876,784.7411303179963 508.4313163600851,782.5130683622443 508.5588421998113,780.1612727935449 509.2548283804112,778.093364967004 510.98577835343326,777.4265831274131 515.2740773188541,773.2660028206361 516.8098052123308,773.0485394408174 517.7048987834426,771.5352448372158 516.1061817122604,767.9366784046443 515.3362364797136,764.5236402545311 514.955403397684,760.7788050055859 512.7056930266058,761.0979244221846 512.049992004644,759.6366691540857 515.713373762333,758.1315095468394 516.3966500749533,756.0447515831562 515.2916375999273,755.174811414773 513.8976124472276,755.615356296524 510.89940456448954,757.4746416795456 509.40594994536133,757.5773563962175 508.364477307533,756.7571281856323 508.2357374700088,755.1055879640875 509.5593967222515,754.0982433467746 513.2642459898088,752.6952788142878 513.7528534364444,751.493653365141 512.9958523245414,749.3837692711513 510.4301234214828,747.9325429609835 508.05052197456763,747.7583045837057 507.3328895403217,746.4851001818179 508.6585636140905,744.1027833851501 510.8051383503235,742.6909164273998 509.59826178725797,741.544327856833 506.1104642895158,740.7800858197306 505.1872963537809,739.5536079012988 504.548510490694,737.2444907294941 504.92853445748284,736.3663804425164 509.1948496156282,734.4527832356664 509.6747186947866,732.073248299823 509.0767404282883,730.455710290069 506.85512731880806,728.8515155967234 505.9433754965545,727.6152342095063 505.7427460946513,725.3570838148053 509.02536642808144,724.5765219429803 511.75425675384577,721.7335264731284 511.9033062795246,721.0368909760131 510.738341723408,715.1884025925094 509.94613731114185,714.2488905892917 509.8688580897428,712.2056111875588 509.095470319863,709.6534182402194 509.701614974285,707.8393242909256 509.29369952978504,706.4245585346399 506.41130382047226,707.4523429848759 504.15705499106406,707.0993257366551 504.5455380201408,704.465212027175 505.784606145675,703.6981643236543 505.9094282203721,702.3111552478447 507.37371781247083,696.8173655535338 510.57367935803416,693.8498269754668 511.82961754217104,692.0808816961635 512.4455950590705,688.7701179893215 514.8084149455353,688.0042516077297 515.9207814169424,686.734927573225 515.7655512175619,685.3244900213213 517.065858040439,682.7282500848708 517.2524261397517,679.5012007531575 518.4027048272919,678.5822530059927 518.3093601913304,676.788515434764 516.0548053448974,675.9513761248223 515.5848680214607,674.3019005688864 516.7395795090864,671.9166585449068 515.9636852969162,669.4804719611141 516.7279755867595,666.7138328317436 517.426127702451,666.0657694171789 516.809186142142,663.9458282663419 517.5312041775348,662.3156720949285 519.8680001280878,660.6425162851531 519.610475931438,657.7281729284189 522.5845931267951,655.0465995799159 523.9786012646392,654.296981139104 524.9796584657788,652.2465123967506 526.8519331627163,651.5972269867666 528.147287495,647.0322389962216 527.3655334037833,646.0522959635265 529.1949450423924,644.4749768093607 529.2443480925829,643.0089718669922 527.971408005551,640.8047362851555 529.7296642490281,638.8786336294555 529.6993788337483,637.3735474614302 528.7054103360268,635.7607338164496 531.2065961534356,634.2474484959127 530.09266336924,631.730273971805 531.2216801434874,629.4817267514829 530.3523341719991,626.7206232111665 531.917832060633,626.7602341389403 531.2110819471807,623.5924181114606 531.7699655495288,620.7413859942053 531.1275725893543,619.5212548409904 531.56869312216,618.0857501501703 533.8805159483145,615.2071979665043 532.4434244591655,611.8952193844527 531.0260731204304,607.686882817454 529.514817785446,608.1813558954542 528.2170708009214,607.70195589808 524.6979570352297,604.0039840347514 523.238458402577,604.7753386727294 521.3394572435875,603.3219598113608 520.7723984379284,600.9563405761971 521.9344574638219,598.316717247402 521.8545967934973,597.2366646153929 520.1365785441416,594.8404982132486 518.7253549986607,593.8585415646014 518.3801240409916,591.4456125634447 520.9467113216465,589.5310751402936 521.8708552341268,587.3826919470474 522.5987584427205,587.0335734032794 522.5884345887268,583.7982644449721 519.8619279440024,581.2550533195821 520.8151001266584,579.1471476979391 519.4755272558717,578.761524675203 518.8688769351729,577.5831362905523 522.1371403828784,574.8147014073166 523.5230485871732,575.7043931551714 524.7417607187474,575.5679518805559 526.8685813648078,572.7176833135832 525.874077241615,568.7991671848237 526.1641928568064,564.9184808988093 524.9867910419226,559.6251781828921 522.7000023590787,556.5980616458096 522.9664007541164,554.7166979975522 523.8344647961521,553.8170235777883 526.1061424791698,553.8476928099807 527.3325559176959,551.5694544641798 527.1320188468663,549.3295249063315 529.1729043309167,545.2373007690894 529.4091639468128,540.8549853091126 530.8160335933974,539.6840692050577 532.294021539843,539.6640231980884 534.6262711237003,540.9176577308986 536.4237053117654,541.1663784934398 538.5247108988888,540.6964963676425 539.7029554199481,538.532672112216" /><circle cx="449.71296536862593" cy="518.6825330684131" fill="rgb(100%,100%,100%)" r="16" stroke="grey" stroke-width="8" /></svg>