<?xml version="1.0" encoding="utf-8" ?>
<svg baseProfile="full" height="1024" version="1.1" width="1024" xmlns="http://www.w3.org/2000/svg" xmlns:ev="http://www.w3.org/2001/xml-events" xmlns:xlink="http://www.w3.org/1999/xlink"><defs /><polygon fill="black" points="544.6199683976273,70.34012502737471 543.4218453578205,67.71527489791231 541.8746422992908,62.85494860174606 539.759027648469,53.274413113931246 539.8291871372685,51.437431888898686 543.2746600896093,35.21197964351029 545.4930288999793,24.077139348200944 547.6541566119654,14.683004686285813 543.9686464425487,13.34100847903801 534.1898725525768,9.083615490552006 519.0864511049183,6.228035525428936 503.76221235226234,4.401824944485611 490.79314738769517,2.4896710162886393 484.5695011794672,2.2872718159396754 472.8996255537647,3.706636757526553 466.41297551658784,4.842698176567978 458.78376179140145,6.865574590576443 450.05254990197534,8.54956210825253 442.74135022103553,11.76026400575995 429.6585444574551,18.530533210709564 424.1003339888586,21.668308626839575 428.0357624411921,30.238134916910326 423.8443753342199,32.03884191845464 425.76638130813666,49.007909948059705 410.1955691745066,50.69848092708844 408.5623506420709,35.15554010352639 404.89783016677313,34.64025300717776 403.3566451732885,33.152600729299365 389.7095453997355,40.390474651921636 377.48774913205364,44.93778197676704 367.10258706995694,48.489934580463 361.40023141986273,49.01081502917964 355.69471180785337,47.555968366291154 349.9393685712817,47.84729069473758 346.1739542470926,48.61876925342358 342.849672576219,50.52778770812665 337.5341318678496,54.52063532968043 331.9449407999732,57.96718500902034 330.3296635101551,51.429703379824105 328.67534235724804,46.417763824242456 329.9078278548084,42.17469010721686 328.1171865871546,24.54802549718022 326.13380631646646,16.24449433925747 318.0442643101582,17.455497940016812 319.825356594809,35.8209773678426 319.1625651558517,37.258974928203884 311.73543515570856,38.82614969008796 311.13405081057414,48.25127868308607 313.3728603182001,57.024709560925885 319.9438273824865,56.683257690566506 319.94536905832354,61.95614583622057 317.7508437905443,62.99267280339188 295.22013864215,72.13401541892028 290.02636031188916,75.25100494213996 286.8718633044507,68.23223934809539 284.9738661960423,63.03034321046482 289.9340237788563,61.323015674140265 287.16618767730336,43.51500273735553 279.1150881844307,46.08014807696304 270.868454914836,18.391629245330478 263.2080945875763,17.882383125064962 247.16872610074174,24.44823793948717 245.9129704817661,23.4405476044534 244.53657569552118,16.254233294558503 231.0287848306175,18.986728449309794 221.3673838282322,21.75025297633124 202.83705482457398,26.916682537905103 200.83880513238606,26.60758058738986 199.50282423258105,22.13525353250293 190.93147260869716,24.775937578087564 189.34666627810708,8.376446670078394 178.64770748720755,0.1388647918741981 178.2181900282414,0.0 171.46573972507457,0.9140994391857475 171.4434885818118,6.294549237174124 175.2791064297963,5.916976445829846 175.09323342776545,7.813217736170941 168.99684425246488,23.371639499967387 166.42587354507327,23.01098158605373 164.14199919705976,21.272060746900934 159.73448743676795,19.19240421881989 153.26142515355622,27.654515522366637 151.23223954237295,27.633594220108648 149.2495250293538,31.17606045021273 143.66431467843688,38.4184820435122 143.96737230915963,43.88118836825777 146.44474041675323,46.478036964999205 143.61756722506826,50.43884390342828 134.96551609402425,48.67592474372418 130.31325524745878,46.38602431068193 133.78754879529387,40.37100229025293 132.71520333669025,39.27214799678734 103.28278935170825,47.14763173561937 104.71210540397658,59.32764281524874 113.2494233521971,64.52496564288617 126.05700912096572,64.66424450905765 125.5695879804353,74.99741516871597 110.40553593143134,74.81671562380575 109.06574646704044,77.5696005451473 98.41145850074348,78.90842955892231 92.12430778277562,78.49563838679046 97.8339060188829,97.95033979024902 103.56370766091119,118.35585410909607 91.9137572575316,121.5021199716058 93.55279355331213,127.89434721939142 89.89740121439546,128.55070913150155 89.89616847289612,129.98850635439828 95.58646843418931,150.31775693740576 98.59652415323535,162.92358417407434 93.04180589356545,164.06809205439083 93.25435701390039,165.62776900926292 88.62884801215357,178.26962860868332 87.59771317272255,179.9272934927336 83.51212631614052,192.15909979381138 80.26542806154242,190.64763799089746 69.98552293395402,188.2917525806605 67.87538884122512,185.9320819854555 68.2842500538831,184.96168303246031 62.78696150366676,178.54566707799677 61.498413703297224,179.42177862343385 68.85285095825904,187.55195749314134 65.46423142660535,187.04770603126371 62.03060811837014,209.61313295655077 56.26344199547501,207.85818325854166 54.30128011969758,209.50339763395232 45.08149870807228,243.83646632643388 33.64535407525872,241.8142830199829 28.10485357694576,262.6445220793016 20.2626929745892,261.12386337671626 18.993535583279836,263.6129884592124 11.328829028361053,282.5410393079675 2.974646268044699,280.68226441030515 1.5573867331825124,295.0526329145018 0.0,298.2884557834104 23.108077728899005,307.63171788704574 30.676792097761478,310.62934863232704 36.83476182152968,312.61753730302814 34.604811766422216,323.6899171611092 14.515081189130129,332.1513718968007 11.634185013325888,333.16953600817715 16.513492411249995,345.44197807904675 43.04034583411761,327.7267670970343 51.8461819187916,338.81386872742814 57.28695462899417,335.36937169501596 59.96202358859074,328.1661891533912 83.04100110129062,332.5551609670082 84.9766116375525,337.10512720296094 88.27921875711158,335.4381423614773 88.62047818329134,331.2100035494216 90.01917747362006,331.5423461344071 97.03767072168219,335.0973877625843 108.47544910851785,342.78214160657296 117.39398734752044,347.3086908574262 131.10995517583981,359.5646569172644 136.78695771544815,351.1199039068215 141.38163243922537,339.917655195468 147.25707950893351,341.63057117431936 150.7269409629923,331.98411108915013 154.9872091023226,333.2770229934715 148.8888139948502,347.75903451022873 178.47979441176315,357.73034922217505 174.497987823955,369.25635007204687 191.7181334315603,372.6735462977608 192.6689205395967,373.9927790907342 191.9303160896876,378.16150775438166 197.10338519259943,379.41421109488294 195.96497714558828,391.50473609594405 212.88971785912557,393.64922487816875 239.90420536072122,397.7238637444764 276.50907945749225,408.0747288660424 296.35307837020395,415.6517013141198 329.7142504637766,431.7954253938601 345.84111671991184,441.3697197979593 340.41533091836754,449.54570149638914 335.68362404355986,455.02687606143866 335.09051614716986,457.2997875327611 337.9949032427234,459.6393218284785 350.9518343649832,465.365232098453 349.9323412759322,471.8271470858904 344.4428772028517,471.77005256711186 341.02613055636385,497.7729257529204 339.48672136170705,508.8086548626486 387.7108384084289,513.0663259301982 389.5128845104127,498.92810979999643 400.754546410491,487.18642846448665 411.44829255170185,497.5431056207715 419.2567636354653,505.32030949394493 429.0609102231371,513.9474583842605 435.12075863272315,518.4056138615902 447.46201127055264,524.796592998456 455.934296420504,528.9631901447023 481.8583991196516,542.835782102798 501.49873078553395,552.738967227761 520.2227864744481,563.2555773994034 532.1837408858313,571.9173581880658 540.3392545962894,580.7422287640759 564.0984822588127,604.2101994335185 582.3179821174912,632.7730124032158 590.272290945538,646.8094491984195 605.9591273832258,669.9231817127875 612.3565605341399,681.7764497708652 633.0814543190736,712.7557191329767 643.570571395726,731.9957586471983 657.3146294633992,754.7383454804026 674.7927001564551,779.6912519514322 690.4706114751584,798.5728334122897 710.8482135757303,818.8012842329326 754.8681959916958,862.9940833814709 767.0614460900047,876.4158915746744 782.0340165515614,889.2496305060304 812.090313838283,920.316336910632 825.1377904833175,927.9304057523135 844.3715773020416,937.5919405384154 870.3609673700556,946.7502891916289 899.1460013458227,957.9625619935366 934.9247715941663,971.7853401951741 943.8915365842636,974.1722812642128 954.1685274638634,978.3486938982004 970.5110341237571,990.5383725397459 985.2924510480372,999.021930918605 990.6043844336409,999.1924825268445 995.4136722899696,996.2882836775194 999.3149758417894,992.1306695766308 1005.2940948532342,984.7360790520553 992.3730776271294,980.73314550943 994.890522229143,973.5126576959793 994.2640394138626,970.4554699251495 991.0846050868115,964.7612573014283 986.8657482124962,962.9820786048905 986.1345801673604,962.1724289806943 998.9035462547862,952.7610934917079 1004.8842253536845,948.5165124810294 1012.3557780044436,942.8935641082908 1011.5006202369024,941.484458998092 1005.4309832212354,924.4689624811111 1014.3628636210162,923.1651233450931 1023.9232943986141,919.549055736737 1024.0,918.1761075951152 1017.7672876570426,901.4445919449929 1019.389058642091,896.6469415949399 1018.5667370256032,893.3329973145491 1009.2107329127884,893.2772681175641 1008.2077532396835,882.3449777926338 1016.1989356497568,882.0549031967255 1011.9391540552465,871.8366595783953 1006.1695898814011,871.4674391527984 1004.9852391480279,870.0963098773968 1000.3814162092401,849.6761017411161 991.0798070940208,852.4778865638467 990.5144790522638,846.0241690759132 988.4557121511259,829.0643400762776 985.6771832312685,828.4148807679547 978.8129990385489,819.6911297317027 963.7876419152117,823.1006171481816 942.8194691447226,823.0309595018239 934.4889358145351,813.0795098693904 918.4218007782264,795.5057609851136 904.8322598841191,780.0398673678699 904.0213039072125,779.5613117429216 880.764730948067,752.9562527525565 857.3624107830036,727.3310401393244 863.9027429365494,716.316127786958 850.3896881497651,706.3794580002832 839.1118712405356,700.7034956046763 843.625883419586,686.0892922248395 850.1131284373113,664.679453180439 850.3862126049352,662.8276732464761 849.4901613812451,661.0076107449236 844.086676917167,658.1506072127811 803.951881687068,633.7300998247554 806.3994803772661,630.9017346012838 808.5081863104878,631.0658329913372 825.5550290339467,634.0528380864068 836.9205024623008,636.2622450701506 855.6441317245079,603.541069125431 856.9521693595271,596.0511687197309 857.9142115778349,592.6237056893365 862.8704606048426,590.517396634689 864.8387270963462,588.1793707724252 866.3217501976677,584.6625641094747 854.8190955177733,577.018298907926 854.5277560595333,574.8681576043617 855.9405530093178,572.2318442441035 865.699260577952,561.3034277399984 868.568074617325,562.4750142751894 879.7472120066756,572.058224940915 880.0032162582853,571.9697000284318 885.1874471965473,577.3679999553251 884.9866713338993,588.8679894808154 888.6634700671683,589.657531723293 890.6018892559106,588.4712622967073 891.7737869325532,570.4104955043883 893.0864569684202,555.0436766404812 896.889275412816,547.6560144519297 907.3391745693302,533.6015566730614 907.0055271842847,531.5025626267256 901.5612744336149,524.0338794085678 909.6399647602148,520.3173238024795 910.8971245838409,517.0216536089634 898.7571279972944,511.0970924389679 913.2431298594139,505.55708786709977 910.0225987285467,502.6749530473933 904.5897966873852,492.3675335709591 902.4242223517056,493.3339149978396 896.351508238978,496.96745269511035 886.4162881322363,502.1411974511227 881.3276191494147,497.0426343807669 878.735615431455,495.8392490360616 874.5443311264314,493.0529266928132 870.903287025706,469.22170760145 867.5586347703661,458.46825182622695 863.3701613101565,453.36085511727674 860.8942395916544,452.35784413925785 858.533641959179,453.0045162398943 850.1189659188119,442.4157738835835 840.9607557213568,446.9934933580814 828.6770131917525,441.87742850928294 831.8128226630585,437.44764753412824 833.7434735099853,436.2619287257626 847.1328132953065,442.0254300369961 848.2323714030891,440.5306614037711 841.9454524067108,427.1163844826274 841.9163993862954,423.93805529470706 844.7354525693935,416.2966003312507 843.1315562249314,412.831316205843 844.7631414207822,407.5877164353428 843.6113878504815,405.4909821490686 846.9043918630028,399.26042744041945 847.9980179696856,398.8383528578722 848.6365267449222,400.54598381291146 852.705972074883,394.2139981539782 851.4542814569053,388.90804707438645 835.171628486726,392.88367756334856 822.5773516181953,395.4693581204274 819.9280776066412,395.2984351728393 817.5173104663672,395.9645829701291 813.5784629482476,398.02458113763 798.2261076121606,402.0880428456794 779.2754275163777,406.3153011937951 775.6060615079612,406.9473909886781 768.0836872682471,407.1957603989505 753.6574970579737,406.1023501100915 750.088997320575,405.57897076654046 742.0914210524477,403.7189622786476 742.095758357243,350.2152110294463 741.9121531858491,341.73609558933913 740.2094858934024,339.35139770101944 736.3160931836321,339.0295044550935 731.7066012977347,339.1620619259771 728.0658331357415,337.39030689258993 727.4282263504795,335.5436075139396 727.4559369477702,330.3725976503631 729.0193907268159,329.93026493411946 732.2307084523192,331.1737458445634 734.016498129359,330.50725917136583 711.2904313270217,297.9431761902349 694.5486484367357,304.7387730470863 685.2699234261595,308.37570889742017 667.4440102563858,315.64963639668304 639.7881441170613,327.16070665442396 636.998290603997,327.93578598917713 631.2759834821532,327.5756471741679 627.1660033145931,325.6246219975217 624.1243818497019,322.6300387169979 621.7157601084602,324.35519269215933 620.4015379164721,326.0755321924048 617.0945775373426,322.7133800880721 612.4597871270391,324.6008523505036 602.7573128438304,315.3201007649235 599.3396965869645,312.78711833238515 591.7702584260604,307.8721943048811 590.8804033885066,306.1047276416243 582.9293973355503,299.5994739632903 577.7722204591377,294.67164949637197 573.5178563588385,291.31876060238176 571.2589340748171,290.01466892633175 570.3063764130986,288.9066645196066 562.0624436516639,281.8208234063769 553.5616537956017,275.1878634754336 539.5675184357792,267.7018288396978 532.3386792053992,262.73607228318394 530.9190697092037,263.44838873182005 529.2936259507771,262.0014571308799 533.3965733809209,260.43644242160394 536.7864890063664,258.5128766473705 538.7464341598165,257.7799595281623 544.9227498011834,254.7230944690965 550.6881105667802,251.31850491478735 563.2708860501809,243.40625698486917 560.3932182872037,237.95375557471482 558.1056611913162,231.74181883883114 556.626422739985,226.1994462699215 555.2758821410666,218.12941366300265 553.337416194861,190.91604783288767 552.6820664620011,183.026107101295 552.0005095506432,176.79475937469147 550.6578355993529,173.8192183252803 547.3136512370936,169.60968992153857 537.1181518782148,158.11594516201444 529.9709374875538,150.2064474618893 503.431335066787,120.60690572628528 509.07281508354544,117.62534283298669 511.8180817968761,116.64263763559165 530.6330803211222,96.68710580968798 527.8541150986126,93.6057754139722 528.0387381958977,86.60614318364685 531.2526219684212,85.40460784685558 533.9905755126397,87.5462811179192 540.0872942300316,83.2839061079494 544.1971027106833,73.63522263543894 544.6199683976273,70.34012502737471" /><circle cx="288.4769481457148" cy="106.75546321533375" fill="rgb(100%,100%,100%)" r="16" stroke="grey" stroke-width="8" /></svg>