<?xml version="1.0" encoding="utf-8" ?>
<svg baseProfile="full" height="1024" version="1.1" width="1024" xmlns="http://www.w3.org/2000/svg" xmlns:ev="http://www.w3.org/2001/xml-events" xmlns:xlink="http://www.w3.org/1999/xlink"><defs /><polygon fill="black" points="705.004435426541,422.01148355765133 699.7822758044326,400.84116122694866 692.2665413495075,369.74215413496313 688.8466352170269,356.0452368894738 687.0290125413705,347.882537195149 680.0340662660659,319.13534590156644 678.9980351290901,319.23352363516983 675.7837004213801,322.8080216470471 671.5981987192416,318.2947462910646 669.7684173092096,315.2776505978833 668.59286279309,314.0764913521043 668.1174316221892,312.3280076914698 668.8152776725481,308.44239967272347 668.0835108540922,305.5103284649248 667.2085313350633,304.71901339212525 667.226611314597,302.1234576697865 668.4339552339226,301.0139872601079 668.7676146500752,299.1630870955304 668.1705208614702,297.357511732936 669.3573346143032,296.5536089644801 668.8531406778841,290.96115867738274 665.8494208283897,288.64768008001136 662.102325047235,287.8990041225587 658.7219175326311,285.7373528065576 658.5439528783779,283.4534693950154 657.4698555416966,282.02682324955526 655.3481096235108,280.49370300840144 655.0505064452283,273.7897416598255 655.8579320948362,269.7422598861983 654.429846995314,267.4093625949215 653.3762600071173,267.05976856431414 653.7086142494128,265.4142426193108 652.4084073891489,262.2856511360926 652.5354262429544,260.0661104413914 651.7522394571406,258.95763945574936 647.313635800801,259.49722000432337 645.3869368890719,262.2606182194437 642.6520549107177,264.6068897517623 641.3261012717084,264.64026623200334 638.4587001934137,263.13627474980444 637.6493881880644,262.0987558875328 632.510855589237,263.4372933413133 630.0989631206403,262.9182237834159 626.7164595659007,260.80672265052226 624.9459167664,257.9941942921628 624.887263678149,257.0400554313584 627.249606466283,253.31193118140447 628.3490622646656,252.42089886915585 628.4804069712923,249.47001053642623 624.0787583038237,246.05254460139747 623.477172936089,243.9946271658855 624.0700993677549,242.5877328677418 624.0201403711036,237.7317497587037 620.1220701133666,236.65004360058504 619.4194186423377,234.46225695542955 615.3999703344879,231.3206459096349 612.8354701993328,231.09927524837747 610.9627292466317,229.21506606627247 609.7704055594211,229.4574470414001 608.8856562278912,230.76987261628233 606.7414018924078,231.8888389514642 605.0614578061275,231.81814146694603 602.5269131052939,233.40361234586805 600.1966111786634,234.14091262995703 599.2074509984202,233.7687572578078 596.14627217806,229.9422316475983 596.071078723817,225.95141186004776 597.4257813267565,224.54782743918668 598.699695683798,221.5614574219718 597.0240336387977,219.02221010959806 594.8043344736279,216.729817724604 595.178767481749,213.8469056997858 594.6230198182386,209.81857878183052 595.1827101278602,209.6322998537869 596.2540610605116,206.74358316574148 595.6737067760173,205.77275209224058 593.0566874100853,198.95292762329598 590.2558531725869,196.74651048458497 588.4516734093627,196.14025932045445 586.5296695760344,194.14620380313625 585.9625416407213,192.81997533236097 585.3062155478771,187.49691149684793 584.6899136294761,185.87789130453154 580.9751091590902,185.4693249595225 578.2729373439798,184.38737620213328 572.8231377234681,180.60059753307155 571.7097602533016,178.49564210267192 572.2833165277792,176.25001263705724 571.7707926924259,172.76163013317387 569.1378409954834,167.4274469151925 569.2784598821783,165.63818749353823 568.4239892158805,163.4375005103824 568.6453537826633,157.64026779261008 567.4883221178048,153.66159476783366 567.6932462057006,151.9025069510153 569.0072308987236,147.06504895553303 569.7731063059084,145.23163368906205 569.0863797461701,143.28132684350362 565.4421788099158,141.22826512179267 563.4882735875015,137.74611483051365 560.6609505480983,135.70432203598898 557.9317839594795,132.72748304706977 553.8132305216994,128.68880078613222 549.2719260915075,125.1865252963272 546.1204808344833,123.34476888139056 540.1656666415147,118.28346278204026 538.85238378581,116.53105570260811 538.6570076657723,112.93841795386516 537.7627789218698,111.98606937455497 536.4264331050971,109.22075430551752 536.1422426472699,106.03661640740711 541.1218726809918,105.20225832455708 544.5148852746256,102.66186789425478 543.6870453200373,101.83011434412742 539.8337430208179,102.09205312058691 536.5350371426437,99.89894977905772 534.9190065513611,99.62239346864385 532.0707238459551,101.40953830056571 529.5324246804815,101.69033672376622 527.4248559936061,100.81705287193734 524.2480823610256,102.09460346624246 520.3120668453419,102.75133988733978 519.0859012431514,102.6072018487572 514.745343284322,98.74458275603752 512.462114292548,97.86428856695488 511.29437631635494,95.93594703478448 511.02036502933134,93.77515485645154 508.76415652177934,92.20556944088435 506.32103739937577,91.36898075052329 500.93804552523636,92.03584141433316 497.7113685253836,91.36835853776643 495.86181005741406,92.57404358331735 493.44879465710363,93.11311044845047 490.4603079603742,94.32391477382032 489.1778705307122,95.7695555554227 486.41393503031543,97.92667464290662 481.9974693555209,100.72741702620317 481.0769945387559,102.03417523994483 479.845704214162,110.36727408590536 481.5478999301696,113.30833728836944 481.4964195510492,114.17066719430568 474.49046430340195,116.6332442338612 471.8457921223493,118.54436610235814 468.4125430093396,119.78382384912095 463.43021000057007,119.60637070080088 461.3747990518424,119.85316074507023 459.1486522346166,121.29901874547943 455.2627573880609,122.09076976084009 452.8648469034276,121.78748515303221 451.3800297037004,120.72401572652245 448.75316221536684,117.21356672130196 448.48068061024156,115.97309951422471 446.71931048114493,112.44428533401219 446.6771136162399,111.1078507838339 447.922720729937,110.18002156800401 447.57774779974125,108.48553182945011 446.11614582956355,107.85795329014388 444.72089710933284,102.68140374690552 442.03327154960544,99.52682371979506 439.81009503511035,98.75339773148733 437.695772931262,99.15170753115365 436.01614075502306,100.17941567334617 434.1031956233308,102.50802339607071 430.322987639602,104.94653820772783 429.59183462654215,104.60674445739835 427.9147860526285,101.34013727111187 425.17418186604607,99.9991448973243 421.16789172187487,96.57740785871079 419.7598279603429,96.11032367951327 419.0995873151199,90.65582233677924 418.4041091738151,89.6266767540319 416.6306520628734,88.81284819554048 416.422053393596,87.54160699034401 414.5951057627587,85.80663411380453 414.6605458755985,84.5504004840326 416.5552690396286,81.32299976759623 414.0324939643353,77.49724633836888 411.6983467119206,74.63960644474537 410.5483787009358,71.62632513797541 410.69490298506696,69.51838233085459 407.5615639057588,65.99941099316209 403.1091792631031,62.52742623704671 404.4845315506749,60.04140544257962 403.1683998401993,57.10340677760655 402.5448908143535,52.299984921445116 401.42840005996214,51.594394860697435 396.38230257011065,51.69561662338049 394.7331737121367,50.686796349828114 393.0800405307169,45.924426950065026 392.70304961762616,43.93948939948916 385.2043000664722,40.28564853552973 382.2373473099279,39.31272963322522 381.7049053105051,38.30125233380579 383.0094378836449,35.424336452339276 382.2422794947716,33.15390016689207 380.0831379169652,31.133458946117003 376.9387636683951,30.75074252366096 372.3698265375281,28.91891149878154 370.9909541254312,27.30746944433065 369.1951317363791,26.240420471634707 366.58350383553903,20.39701256836213 367.06960415998117,18.669278291243586 362.65596472357703,17.531454757230904 361.2491596725711,16.61900843353601 356.1983510699203,19.192448496696784 355.3177693236112,21.93845212683891 352.00217790219017,21.708626313316586 349.5150856031194,24.858999047939847 348.0562000134854,25.635316669268377 347.6839970123096,27.1079437715498 345.84139359549096,27.244229840299113 344.759783969396,28.659733334720045 342.82953601589304,28.645447901191233 342.1848211287152,29.426023027347128 341.67676405684705,31.892977869022843 338.7354539318692,32.94876724079995 337.78116280389213,34.07888922172788 334.9222302601865,34.68846078956915 333.3211553619997,36.50866485997631 329.66975521642536,37.557264792390924 328.07304353976855,41.14613970997675 328.32784019318694,44.296695246325385 327.7602828164902,45.48042297511972 323.66212978495776,47.83198438459226 322.75867653323513,49.840937832267514 323.1932670180046,51.73497014882298 321.2276708176419,54.036711015952164 320.03031516253606,53.441557876234924 315.68227163385427,54.836024413660994 314.79215569401026,53.780426697864414 314.3982602220364,48.335059844257216 311.75127562114034,45.21763788332191 310.14535613735717,46.065857677184795 307.08912239537625,46.283499137966714 305.6703897465967,47.026780764364844 303.6948610669564,46.06101802895955 303.56381165334625,43.45396850500629 302.9640620868703,42.503839810700356 300.1111110892663,41.92837074299143 295.8172938874885,40.437301545853984 295.26551724739033,38.60692094068759 295.6098067554695,36.285296196544664 294.34169559361237,35.6099511272555 293.94135484512583,33.98916515207907 293.0691165503411,33.478653196658115 291.84135069771605,31.114424664322087 291.834279109264,27.96015131878619 290.6299020585778,24.908673363487537 289.12733204215823,24.470239594964482 286.7155421812048,26.948676273880437 284.48974297210464,27.250813650873397 281.8779338154741,25.53800909479787 281.41549038881857,23.160118314793863 282.3997625617787,19.67560237424675 281.6261015595331,16.343857140790988 278.8653384800086,14.926606806849918 278.1902041875543,13.624188194692124 278.3400255724024,12.146575724336913 279.6909460904864,9.970700884908865 278.95044286598994,6.527433283859068 279.89744236766654,4.550294626821369 274.6853907814444,4.035080732543065 273.6249020344958,1.5169892696931129 271.97900113695806,0.0 270.4296343816544,1.6633813178564196 267.0401236814102,2.711983280914751 266.2795462217219,2.1190565208464704 264.4759009975276,2.836799763088493 261.53283343275336,2.9782381499592248 260.02721941667113,1.8719348218334062 256.72785838345413,1.6357330751920927 254.79863223381938,3.2242030844452074 254.8847864725277,4.172529235783713 252.725266044284,5.45190372982313 251.34699156248269,8.566882252371101 248.38503643453342,9.677353795955923 244.7197724958081,12.34642332001249 241.6714345512807,12.063721754211429 239.38970750946967,11.090837817177317 235.24640443090325,12.463189082045687 229.52051228498945,12.708519636337542 227.7683259179915,13.646515048066021 227.53001387507072,14.924147567494174 224.3727211319963,17.016856763121723 223.84337238468078,20.279506990273603 222.55274877296253,22.0288509484908 220.73581600364582,22.463022355404064 218.1012646415257,22.1918360255288 215.65716462135165,23.33296239235699 212.440478841425,23.111974479960054 210.95874240523125,22.5486617378034 206.49863058337425,22.62984780237184 204.96718685669435,21.61324775575224 202.62652015079868,21.751587795951878 200.52458412686804,23.69444937094272 198.8788421296622,24.327035410109602 197.8883069349133,23.342115507555377 195.53669338009888,22.317440343965018 191.24990370594838,22.717603279106015 188.68072449934274,21.251580393183303 185.64693260067955,21.955014906384122 182.68679716570895,24.68885943608882 182.03320447521241,27.367459070667223 180.72375004367035,29.35901738889288 179.8434545731108,34.18446015269001 178.81963208545957,35.60524472980137 177.41924461088354,34.88830998999117 175.73032434764428,36.4205113798763 175.46501648895264,38.35566356741015 174.35817160643637,39.86868787767253 173.88908823760553,41.8069083014376 174.28626641714425,44.87502430809889 172.74762429490775,47.99217979459286 170.73365983821805,53.15051562287999 168.87640436055662,54.30079557333386 168.20213896741004,55.686760550536405 166.4806015755372,55.560433554828705 162.36315796505377,53.861749304198156 161.8660236379099,53.009715811148794 159.71116739946913,53.03134810640381 158.70432031623906,52.328602810311054 155.94496851728334,54.64493620010387 157.36797928682813,56.91944085037187 156.36679593832622,58.51201621854079 155.11068174563667,58.54078156961657 155.4850840256714,61.09449799675065 156.47437886730356,63.456987859929654 156.44667509717584,64.8942320426346 157.7395015613167,67.839162120472 157.50065342899708,70.68546269066303 155.95921395652795,73.75369564461471 157.12261987353986,76.47876304276758 158.3470981687969,78.07973277963265 160.03510197575173,79.18827574573925 159.80469609571392,82.60238015384982 160.7985163352394,84.73343022501672 159.7016869707007,87.98845968015974 160.4935055637896,91.65042053188802 159.2237879090645,92.26640352236757 159.47120258922382,93.80175942714686 156.9118488212426,94.60857476011722 155.22212246710288,93.87458251759074 154.13496301800552,95.91506038118223 154.95021203741024,99.78032194621824 154.28281875449426,100.25583980973556 155.39891396965342,101.63670188738774 156.03673819885205,104.3908902803912 155.3429791174508,104.98878792113419 155.8001402360641,106.4600917612147 158.13653821627446,108.13742335952315 160.62326309047714,110.88488871980269 162.46496359258305,111.39466605654923 163.6228883241585,115.55965921456936 163.1968363847174,117.15646748456516 164.9761829589876,119.12528796139577 166.1945954183225,118.79270389425938 168.18741681725842,121.37683695531189 167.8129303800546,123.14479991878602 168.5433533647928,125.4435885407205 168.41887035261396,128.40306188873353 167.54610340454875,128.3250002387108 166.0767422016748,130.25104246451224 165.82663611321732,133.2844482703806 164.1609510042944,135.22363638601325 163.70771162763089,137.84498995569106 162.3474275322212,138.58433828960506 163.9056099789617,140.76004835478602 167.7228413094236,142.06089805551665 165.90900048126213,144.00313979111706 164.68083148463046,147.0217522825492 163.46298306963754,147.44455869334024 161.9910071280458,150.16254516989454 160.51350445406527,150.61049222507415 155.70366560983305,153.63003294477824 154.1853456019935,153.68312719938478 155.3081256214239,156.8595250456466 156.23161586690088,157.4844093902234 156.22479807681202,159.40051323055684 154.97102920647689,160.28062667903112 155.90013988595945,163.20717390952257 154.87497634779362,164.2962066008223 153.97140025288502,167.4728993777178 156.32102855202592,168.39140070467136 157.4468575425776,169.82516717615806 156.1947413821373,171.7595148356287 156.48884377731667,173.12468361489857 155.1273876810141,174.82773184280438 156.67256116058965,177.48229184218303 155.08380285080563,178.1241328976945 153.56682616284849,177.86192316302152 150.9586439187618,178.54935886941826 149.30964750902055,178.42119854204122 147.48710364029944,179.9176174311923 145.06543856958362,180.8657703868837 143.98417673694107,183.9742876801945 144.92018503220916,186.89222404967154 144.83800518350318,188.0292105976274 147.02747752018828,190.47284148668757 149.8784825394175,190.94883324928935 151.60809716044855,192.71933101260402 151.42517019547017,195.63358381726607 153.0527690645973,198.15638171478884 154.34175664870517,199.15222767595992 153.4464080443438,201.9453886649601 154.75191349822651,205.03121921806962 154.9440829658574,207.58596147209664 153.05591812901454,208.04989096712984 151.65525207928937,209.541880240301 148.88081988172152,208.6379445145094 147.59750339095052,209.488923549839 143.2820692658867,209.6523625730025 141.2674249903091,209.122800396181 140.2063598054167,209.8080217469485 135.34593279305284,211.2671385126489 134.30657295209386,210.94680786273852 132.63258300126827,211.6405090493431 131.89556784913322,212.8278693933953 129.8676549526486,212.8769747135882 128.06859711840065,215.6727508597187 125.21491492657125,217.64121751602624 121.59629033596495,219.3151675970397 123.51615620150484,225.17653166150797 125.51721385005017,228.7017672590515 124.62070274378746,230.1248653268566 125.56150003715872,232.40629502669185 124.83642569340235,235.50295159021402 122.88695453274546,236.20009541258423 123.28903955342717,239.74916334341458 122.88198183480718,241.40936734542322 124.00283941639468,243.4554723646155 124.25341893801236,246.27558801899283 127.52516805612089,250.37393246957265 127.28126385289178,252.6116629311174 124.93840281982709,256.4943664139944 124.58947896131016,259.3030046856385 125.11216911304737,260.88059247567776 127.45590799159966,263.63114205004865 127.26203966231347,266.9160215269079 128.64289096801343,268.3398213746822 131.51288598991218,276.83533957519546 130.39258723813703,278.93408662695936 128.96225334391895,284.0872372598866 128.31181185512696,285.5092990423682 128.71767159450008,286.814437295008 128.06509487568562,288.5723425487324 129.25515518953233,290.9143802949644 129.85594371627045,294.0471581233354 132.79727885010678,296.45566418334477 134.0593496882798,296.9060034021853 136.88776859685174,294.2935875668501 139.50628684071273,298.34415734030756 139.78103347517307,300.8003029855969 140.624286517686,302.5070276789454 142.97151592822289,304.30398229014816 145.39692933275828,305.0827329385179 146.43371157059173,308.49499977423056 148.19609042211735,309.31400167017216 149.20437819578322,312.1777423538339 150.63931490193133,312.31942758543084 151.93022086907857,314.2135456653367 153.28689491047086,315.2615767779339 156.07263860088221,315.56726267382874 157.02487472408265,316.4785009651349 157.4896881407817,318.811402899668 156.91629981107923,321.1594275544311 155.12476395772265,324.6751770986177 155.7094775541087,326.0503671669468 154.10815630135184,327.6299504163775 151.3519553790594,329.4202047868605 147.54659733678395,329.9834527749174 146.12175840683415,331.5705081679521 143.20566991407003,331.61216822355243 141.4092339844193,332.8994367392014 141.13042961570773,334.66407019620885 139.06613114313848,334.99828153633655 137.14680260657843,337.6406818320904 136.5629317195767,339.29791107345784 137.2844793832213,342.35047544001895 137.3264638704331,344.84395727297283 135.9111024538562,345.6781150160656 134.90226057121112,347.2597222374061 132.46932532105654,348.58644888827075 129.7720216638458,348.1861756142647 128.3159711417126,350.66013249963623 128.14215175048656,351.85295058082977 126.53376656779294,353.0561958848482 123.5018269872883,352.4566457989713 122.7511268409464,352.84400736854536 121.27153058057037,355.20558342323875 118.64488235908908,356.3512658278157 116.47437505249103,356.7682550281071 116.08330724649419,360.2037822365505 112.83244426287035,362.2747778827062 110.45276283212284,362.4186951739546 106.69186362907617,363.32476740060906 103.35233417616391,365.15153844886856 102.27755482802877,365.0843177848027 99.77742316484022,366.2984850236103 99.21899837895855,367.8740606697205 106.53573907018965,373.28549819012187 108.02773256682366,369.14147770986415 110.42041039897381,366.7973332079266 115.20341324518566,363.565972682502 127.83598599535938,369.99035621977805 135.29891405461444,373.4604039339008 143.44644067393358,378.27467746456045 146.00282465044168,384.03421969671535 145.5878304306032,388.63384593889543 140.66545910993355,390.53813310522446 130.2988695198308,392.04841626422444 119.92811633532418,393.75124022875013 117.92709806390863,395.85684700154127 120.21087120230689,413.8832191066275 127.49703694712638,436.32473509191516 129.0461188731818,452.05135942825905 124.76003239721017,472.9463829556611 117.60682210737431,490.75471317100994 109.50559115063467,501.6771034623823 102.67905790452734,508.57999824856074 94.78524086824503,515.2827711030562 80.22946567523364,519.1378879637207 62.60097957661156,520.6982195646575 51.432870560510665,525.3201494367995 39.13827408613621,528.4005274085748 26.508653119188196,528.4056118266662 25.958283802544457,528.0445424607796 26.836282826351418,525.5104372116643 23.426469575071167,518.225314014206 21.58806266716502,518.0224015011245 20.39125045732976,518.7306968493303 17.017614425508718,522.5793370569954 14.37347046002916,525.1428402901063 9.49227706769837,525.5456727740745 5.744824190150211,523.3195931625683 3.926109481706019,521.7362153633551 2.6211987404815815,518.5125211382324 0.0,518.6841052337113 1.7470833174706302,523.4456480923709 5.0828781667256635,527.5257971676741 5.857956938461048,530.9089805976525 6.451889812954884,535.8376464506424 9.484650866279265,541.8642777258215 12.304788887146934,544.1211642928723 15.215405191819368,548.0747551502914 15.47062086855979,549.9115080137638 14.472083558837367,553.173717366205 18.982781685718766,553.6640085030457 19.77089415369909,554.2988247332672 21.54261927284675,554.1557415679447 24.506483085604064,555.8186859813295 26.49469308847929,555.9390017209247 28.26262803587844,555.4171628387428 27.782144136029768,558.0195033759987 27.36981814489546,562.8297440574615 26.749428989273877,566.2525485879645 27.495340686236258,568.7487679718183 27.067671804807937,570.441338971141 25.58378128039289,572.2578032816483 25.384701101996118,575.267063391678 24.657897622552586,578.1089862592689 27.235097269151474,581.1985551034074 29.095899800046414,584.3272189311909 30.65714340766684,584.8815801177718 35.4859051115046,585.5313496281868 36.91619703215394,587.0080625555772 39.12426206476945,588.1682481361142 40.69005471132508,590.2775803932461 43.71315647423985,592.5128056458685 48.10168380159157,594.8644572094765 49.318538509135045,596.200824569675 51.293751833620874,601.006162270586 52.48538173627558,603.1925033869757 55.231382512544094,607.0475034108506 60.587256844436524,612.7749146656955 62.34459680009996,613.5927115866532 65.61482222610229,616.6233735523235 67.87778653576493,619.1444858854528 70.33832561868927,623.3110480223797 72.00164511982591,625.6042609086101 73.8915380997912,627.2800216339074 76.96264965519731,630.7020608744926 81.35310594237306,633.902797299171 84.27607475831962,635.134955126161 86.60774633159576,635.1565253065781 89.73459973774371,636.2225850426473 93.79129160970102,639.3552171300576 96.84234644487043,639.9806814467595 99.41302051048825,642.4669990460741 100.46466105493855,644.0917307141107 102.58932470917371,646.1434174607147 99.82896417625189,647.0809752809059 97.12249075001839,648.929984899351 96.28700164801316,650.7948418433673 97.45416463063934,654.1604138524499 97.60392787710943,657.4371103237072 96.66776375439319,659.8362615208766 93.30136328886414,661.2636046803195 92.4147150292886,660.35249196884 92.26439180806612,657.0045228769416 91.37700761889988,652.7331876992392 89.9787444922318,652.3521258644163 89.21468461107878,653.211740480622 89.14604380607452,655.0776491610237 88.19543045939348,656.913737635387 86.36431879974207,658.8426811316772 84.38048321312431,662.2290844806157 82.58744660213631,664.3624927482135 83.59511245822725,666.4300555952307 86.18364730160606,666.9299057657124 87.18403858319171,668.9460128345698 87.81594471240086,672.7399884533392 89.04741742872105,675.5426493789251 88.72467691383702,677.5662466493383 87.93555426706976,678.7247067544383 85.22390772957635,680.3069282027393 82.32538383581561,683.4498925175785 82.41378088086341,684.2692102142361 80.65194422759907,686.1574046311912 77.89499759374088,688.1713577155547 74.63183333428995,692.9489999722596 73.29685692484794,696.5650623189017 72.22413835623743,697.316568627384 73.34560646599371,698.18394256015 72.9341861941099,700.0144876653824 71.6240911098271,701.1387784984865 72.61002854810066,703.6804118675062 72.57966800567159,706.9419407750886 71.91926503296477,707.0832414523127 72.15581549216671,710.0650489648324 71.55313718028626,713.6932540782234 70.97083141340848,713.8034704576384 70.85508984376281,715.938354372289 69.15879270675616,718.1039985403479 68.01654676555965,720.7338989113754 64.47518821779866,721.7010743143878 62.831291075536384,723.5371815214596 60.897148119759756,723.7763194266475 60.176415488794554,725.9914235683486 58.86321217555072,726.8999611545327 58.480047285107844,728.782267899307 56.333813968368005,730.3375828532382 56.01803049987649,731.305969667814 52.58908828189963,731.6658311980148 51.84991579621182,731.2130623828268 50.45812186899128,733.3331347370442 48.15231881720086,734.6848748003611 44.839395494250084,734.6214764240806 43.9725584607384,733.0107500015973 42.97823019798426,732.6527360061793 41.93600047555706,730.6536436786898 41.830399583795106,728.9514999746291 40.23872496887119,727.4419386637321 38.6090334481159,727.5324255155037 37.21200066216513,726.8210900881418 33.70213147577006,726.9128594349347 31.255866990015708,727.8544057410295 27.925900560773044,726.9086327567982 25.574209896634354,726.771008960836 22.788407660452446,728.5166222697303 20.279812492975825,728.3607274015735 17.99183243981853,727.5655122782398 12.733188421136813,727.9534483415922 10.731960890554628,727.3193777213419 7.871272117927062,725.60672109593 5.11307041061261,726.7047769525434 2.603672959634424,728.3740522389821 0.6432558715123302,730.8274821673823 4.114939460287645,733.7034673464025 7.012532101489088,735.4769248642344 9.439527638331484,737.8929290416067 13.380836224053448,741.2452750564512 15.877924691230577,744.1115500835031 16.172629201968824,745.5866931275972 15.38884373373985,749.4037508895634 16.276629602577078,751.0155396296061 21.27943269087727,752.3549313327233 25.110721392340505,752.1472116890424 29.443723927525298,750.3828398308787 33.870338863589836,750.5159464281091 35.45777802949252,752.2015818156917 36.09540737037183,753.7034858329355 36.561565939807906,758.2253255754368 38.76244927794487,761.7828469965434 41.5645203532751,763.0746663751198 44.548350031501805,765.2574289439744 45.72932737325131,767.4923881843554 46.714076192676146,768.1791135610096 49.57052647680164,768.0111312754357 54.46442684035058,766.565588672325 60.81676081228577,765.5333076582278 62.384267258878694,764.8671243732149 64.10174121535731,763.1418418832521 71.38326771650289,758.91396772213 73.99852487587039,758.2857969723427 74.81454521537049,760.862770899967 75.93137861446135,762.4199280668968 79.20400853437796,764.7711210345503 81.64492112757162,767.2355880675213 83.667520216452,768.2576255012397 86.24243785295802,768.3689485889399 87.49962778153736,769.1329214553307 89.16639570809158,773.4663386932947 89.14997981346372,774.9870361251069 86.96469128520515,778.5786492050657 85.65869469110599,782.9508650285244 86.78084405618165,785.392282820075 84.93473745034936,788.2619677388341 85.84365977521554,790.2127571565914 84.63038006072905,791.8207490213263 83.897624278497,795.8783305619104 81.97961496355204,798.1635667168674 82.27475736794567,800.0715063325072 79.62133477558717,801.2453912445013 78.75628026792793,803.362772529657 77.53343878558623,803.6664061698136 76.46808418710366,805.2010354803809 76.90227842104555,807.9292587991877 75.84344483930198,809.4020187808499 75.67539284028437,810.7915455921033 76.53336171877274,812.6829593052327 75.11120628499027,815.3219783876023 71.234478675747,819.1738139124222 71.11776221529503,822.4141503658477 69.30847759414074,824.4004980602092 66.63844910270006,826.0782461478437 65.23858545371523,827.73074376929 63.45798012557816,831.5362835618732 61.86704165369317,833.3660209405174 62.24214315384024,834.8628762907688 60.24242183362944,835.956331517292 60.000066936588944,837.1526698446728 56.91887863614828,840.3267659788136 57.56874138900599,841.5122803946088 56.47218445601492,842.9549233560638 52.3900307523468,844.8555560412433 51.99878145367855,847.3705467596901 51.2210757137775,847.996752404977 51.508098508553736,850.5036060107601 50.75765616493229,852.2199075142839 49.67858892874915,850.9578665751847 47.650321046393785,851.5577528306353 46.00336374626709,851.1346596192344 44.89590014694666,849.8728494327559 43.19996725282839,850.8083260144441 44.01722717673384,852.8868751896222 41.2873847223913,853.9168476538324 41.2190308502209,856.602934252563 41.99065157927768,859.0740358933518 39.76094598398818,861.3840349376103 37.35617763373185,862.1739687545296 35.889741078440025,864.4233835384655 35.29777711444639,869.421496642562 36.8774393873914,871.9656248557377 34.23399427128939,874.394979770451 36.5101212757065,877.8060602348244 39.33298842811815,877.9069140425988 46.21963671578088,880.8317487782058 48.021204308967334,882.1074603608258 48.35784490597936,883.3593820364331 47.859796112181016,885.9801021620675 49.97995794900049,887.5916728570693 50.93770006006677,889.9685548513033 50.59372228785505,891.1264374088985 51.19825529139918,893.2604640494853 50.89094948474583,894.4274116608625 52.71453604683738,894.5299145437981 53.63237314927897,892.4180377073344 55.75019051991873,892.6087463792932 57.059430837196295,892.1091080110145 59.4774518174114,894.6645524071462 58.53328854421819,897.5592482445845 57.08399434709487,898.3076829508593 58.30772389423563,900.1775727723056 61.189436162065064,902.0375918213725 59.355242627200404,904.0577868632951 57.272637775605986,904.4124094499919 55.90004424984126,906.2312909193181 54.5709153498514,905.6810896924148 53.12607419058128,906.7793514067545 54.98328424201798,911.4441938814969 57.46484102153113,910.8575940978178 59.17583275698104,912.8459027388735 58.821633903220146,914.2922089005215 62.78609823737434,916.8913171596299 62.847524073283275,917.8487467725855 61.455467557546484,921.5645737474008 62.944728576673114,922.2575552420913 65.501521951223,921.4225615161206 66.98907928330468,923.7427585993328 68.370572535054,923.241941838102 69.91520518903715,923.8199944865518 69.06535793599062,926.8499238705252 67.46660103622685,927.6939365371876 69.90591321468433,930.0237296711601 72.72664882972657,934.3062151997393 72.47755578440446,935.5359285905673 74.37885637214228,937.7074498182699 73.73676306871215,939.0346999082853 72.37583940050595,939.4744318580878 72.41797016872977,940.5667086792173 70.77970414025152,942.27683640813 70.19369687605739,945.2425344259374 72.08252299485626,946.3840665195114 73.10123953788197,949.4851342617444 73.29790251385515,952.1006570518948 72.3837698077161,953.9887323387613 73.16316089183137,955.6388656362203 73.09052919858235,957.9085018091798 73.83410340780149,958.9714934051251 72.44750067332154,960.2976420211228 70.99182767941126,960.6252491929987 69.02555364822302,964.8670065800436 69.38358632840455,966.0488352554754 68.34428826450592,967.7110864819646 69.63656128051208,969.1601737611288 72.00763660820246,970.4715873607585 70.43987200539766,971.6256885176633 68.25244307299744,971.8893584059168 67.52289186663506,973.7037818734317 66.28625371788667,975.028683457318 65.75101868413256,978.0878987177168 66.34502793471938,979.2256863463514 69.16298748973239,979.5419401595972 66.91044447483105,980.9727674241483 65.56994730185603,980.8450361632059 66.53485337627795,983.0401919545604 67.13976762667268,986.8401119627857 67.82479515551628,987.822352990139 67.94543762045774,991.8237869139712 69.22791188068256,994.1504078582262 70.80138590907167,995.1628651516309 70.3027207084814,998.306399349311 72.19574010630964,1001.337321970783 73.06964289725828,1003.6696776449227 74.85358260119918,1004.8037309132912 76.05409490051463,1008.5969490052113 76.16413767106003,1010.5364603002384 80.78392433943812,1008.1459966822653 84.36347786349691,1009.6388720621421 86.4626331368128,1009.6020953875463 88.20959261900082,1010.6228874276262 88.73045842271537,1014.4149162069464 90.44438722505403,1017.9130403641792 92.65008685622101,1020.0428045516563 94.24512700812251,1020.9314966584375 97.27952227125596,1020.5726531114893 98.42306215517176,1021.4662193792462 98.87128995177483,1024.0 101.10252123649185,1021.9376344848419 102.78757705053249,1021.4406714153291 105.74517016676974,1023.4571379776612 106.53913641598615,1023.373927301069 106.51286376545949,1021.3613036930234 107.83848953167042,1019.1140348458821 109.36427356640228,1017.9790736526645 111.41312948000744,1018.4890545688556 112.62444872213922,1017.4198898785929 115.44054266748064,1017.3929693133604 118.49266412382019,1015.7211536608062 118.9813043956391,1013.6810734819309 122.92737155927212,1011.346898891686 124.16281892155878,1009.4614517749807 122.37179611159627,1007.3489509616091 122.03900167481004,1006.0325307873152 123.33860490769833,1005.1788704554839 123.94182210700741,1003.6740920718454 123.16975237471156,1001.1353488313767 124.39091763885595,998.1667622439418 123.62579437534552,995.5867530696712 126.31288501019442,994.0752836707194 127.43133835906998,992.5642895120932 127.5932099731988,990.766076612118 126.99060305154671,989.1128155950709 130.35473152710355,988.9437258946936 131.49088550018305,989.8057130522808 133.11780073709062,989.8968009324861 137.5130903388389,988.1855514211535 142.50185481393868,988.4470266322371 143.81753486691812,986.2518562776122 143.50493798500258,982.2942769515513 143.86370850539464,981.3200084637921 145.76963134063095,980.3646324142088 147.0372948493957,978.82018356476 148.55344635797613,978.1797573802883 148.8383507620378,977.0520554263036 147.99809151740618,973.267368525333 147.79394251843908,968.8972815407556 147.0772833396991,967.8445330065173 147.9152471206332,964.7903139168991 147.448467963167,963.1369796910371 148.0501206751075,959.0343873484139 149.54178317195502,957.7139950106449 152.9929590409839,956.2836541725866 154.37030156596592,956.53270815301 154.5815006778931,954.7455381650389 156.6452811000864,952.376253023453 157.29987338325728,949.6142691552964 159.146751101843,949.1239966250348 161.3687886639721,945.8858754571621 165.25414899080937,946.8408117232877 168.46232851460755,943.5264156976358 167.94807415261732,939.6478377923033 168.7045077623371,938.4926020251913 172.45736793241403,937.2845001253164 177.12034884701353,936.6599337893495 177.12790898473358,933.2584720452099 178.60586658038096,932.5977796735215 181.81239207354548,934.6327512154821 184.3698880856624,935.862980679994 186.2871782100894,934.8859170599029 186.87057361336662,933.6719537289356 189.41679234757115,932.2118617718177 191.09753064335217,932.1559684693729 193.0043636019621,932.9107543205757 194.55831550342054,935.3916381605202 195.0421886707337,937.6319236736895 196.48148872141581,938.6715482739745 199.6670319545922,937.335144396301 200.02600307633472,935.5264743919633 202.4444654515456,935.0567389770703 204.40192287195381,933.4708961580362 206.2721565800656,932.7415992417193 207.43456205567753,932.9503931625669 209.76692750637716,931.0909237370015 209.7914117900876,929.3997347556331 208.37861235971823,926.3509303659272 210.792763979232,922.8713966028292 213.98137516054072,920.4529114414524 215.01078289617493,917.1710339377005 216.9596007904726,916.4709604113815 216.85357802698232,914.2369039596547 215.96870296059586,912.9731442587201 216.63048907459827,910.4595458136083 215.47283107533204,909.1176291174418 215.28441354616362,905.6897748567103 217.59815237452725,904.1397978149853 219.53195664775117,903.8730324097182 220.15471312547777,902.0711561253154 224.22325615176888,898.4542435098926 225.72681879893437,896.7620611917448 228.91091896151832,891.9642631732884 230.582282673202,890.4965673015279 235.04335742068372,888.7478536267247 234.43758767139107,886.1621642158844 234.71233760398437,882.7602475423046 236.1841549319531,877.7949709316985 235.13467057437026,875.1553535101493 235.57299898321233,871.7001364210961 237.78220223843473,868.649152967648 240.12284782851836,863.1154750258021 241.2910513759987,859.3198339943458 242.30006984007557,859.0050909132191 245.4349068987308,859.3665582707735 246.46914065076854,858.8454032743421 247.35342449148175,856.9992792692465 250.4875250912403,856.897107235747 252.6151440194356,853.7445185350384 254.71309394470322,854.0810196564272 255.45509802072272,853.1327873942139 255.9075985786277,850.2338452163128 259.13510894010574,850.2119236656729 260.4794052509372,850.714162181718 263.67826163836816,853.6972288277009 267.7470904918241,855.7192427025676 269.05855164979965,852.0954817065108 270.0487049368493,851.5238378668386 272.82152267489323,851.6312991840374 274.1451524944911,853.4822756551071 276.9057910600384,853.6728644870466 277.9062383281138,853.2751214509403 283.0998247414423,848.2589632195502 284.4690680509638,846.476744135301 285.28027918469326,843.756703858505 286.6409092958633,841.4803440906503 288.7113343314703,836.4253566681032 291.5669862047495,834.7102252723123 293.9299117330348,832.2113488479322 295.70113674099167,828.9202040214027 297.10476975664534,825.0191223223532 300.01386611974755,819.0556970550738 300.35282667004117,815.1214028418146 299.5155644251313,809.6455751525647 301.0323562080064,805.7439544204556 303.5750246941021,804.640904718932 306.1858798151751,802.9710157204734 307.7230959164425,803.5508876737204 307.9222037448584,801.8817708325026 310.9483486215263,799.5057748889271 310.1218949091508,796.3030260718851 311.84939243817934,795.1527902410435 314.28629261540493,792.1398035893322 316.60056509918104,789.8891996421494 319.4944422366838,786.1383735621248 320.0282136255462,783.6521959995757 325.3259435129176,783.1777208542566 328.5284080025273,783.5623909955946 329.55125010534044,782.547651727895 330.0661012467103,780.2470156679757 332.73577003320474,779.181211264583 334.65820499306574,774.2667076451016 336.9475303977973,770.3315673131669 338.2162732314572,769.5378992599335 335.84026642079135,767.47566455879 335.0616847466873,765.4145643318185 335.9883720164063,760.6929982618873 335.9440248508745,759.0304849200071 334.9883320747675,754.6724613637491 337.4653979398694,748.199258706305 337.46832525432785,743.2401250514534 339.68511843783153,741.3107805143632 342.0110035755032,738.3425225244664 347.6640642682858,733.8248378356909 348.92348520208975,731.00964133765 353.60084238970467,730.4409683463259 359.1631775865884,730.7068348281609 360.4348207228406,729.7492816604324 361.5652124085188,725.8074045032215 362.35981620506067,724.1196882634774 362.06450456005956,720.5125355929323 363.35349305992463,717.0610942047824 364.45192249611733,715.2448689041776 363.6652789432337,712.4176195902079 364.2286362915039,710.1702230889244 366.65733662732094,708.687792999305 367.6512158412288,707.3867132860788 368.55345042997493,704.6100955879097 368.90444996327597,700.5717572414894 367.0005155050896,698.8943302317401 364.3865600316639,698.0919436322029 363.5203653122583,695.5647999955679 363.4352048309378,693.2994484439935 362.24835663081564,689.9988812604812 362.0143563091074,687.7474022886988 359.2072438695207,684.5483516744321 359.4150440497268,682.7195112143756 362.74838738165994,678.3094096519709 361.31406529200075,675.0554416610524 359.85969811429396,669.9570382017503 361.7484059406376,667.461482265238 362.34006714454983,663.7188633250566 362.01198065018843,661.78755901566 361.1577970409369,660.6249267067371 361.69027448453966,659.4363250745104 360.46799921873475,658.3629529799715 360.04624128424985,656.710620698449 360.5577668443665,655.1636050268094 360.20884021888406,653.6326850420999 360.77086361871244,651.7163972475223 358.5089106392914,648.294873586766 357.76674250199443,646.2595889910374 355.4808006664624,646.0772335983072 352.137887577178,646.436359158076 348.9342802538216,645.5015723823295 347.6721195577033,644.1418889207114 347.3241629192557,641.0948200147299 346.64262292008976,639.6016298191516 345.89043718545145,633.8990089181735 346.28124116376017,632.734573832654 349.4496483220849,631.8158842054186 349.2880714040733,628.8588390637542 349.9252180713891,626.78841383551 349.16233931364786,623.5969424551948 348.4873662512234,615.5301070118794 348.832872235719,611.5608883903101 350.3728954812166,608.3584640164127 350.5067293185964,606.3805034955595 351.4214288923291,603.9777521367574 353.2498245633486,601.4257130282738 355.8341972921324,598.6852335248316 360.5499079607722,595.9363453049143 361.9214398196858,592.1845421168482 361.779260648446,589.5162408992306 361.05055752038277,587.8007673085649 358.8997690237345,585.9788722255055 354.2757805263894,583.6604494184947 354.08070456319814,581.2085741411795 353.2428349593148,579.678792104105 353.7335485133793,576.2937208888311 354.65731348101673,572.8997714031188 354.4212161369975,569.3753583783387 353.3481492400783,566.2752681032022 352.4631778924604,565.6477676466486 348.2214404925699,565.0817498631712 347.7760506689145,562.8911284781263 348.7687897593617,558.6183664281766 347.7598307500814,552.4190659346239 349.1154987553353,549.3673129501974 348.8397635985714,545.6099372750774 350.02274935552674,543.5736560697529 348.90462979254363,541.8256452112269 347.7717996123015,538.1158405223143 346.8424049309625,536.9876734899597 346.7238366784472,534.7822744219644 350.98730297136416,532.8527860152058 354.4995269045433,529.0873567456731 354.5775897443224,527.9515957718688 353.49525051000387,526.5919540999691 354.509338524791,522.7819700793382 356.46448849495965,518.8616546458776 356.1765355866612,515.995636879811 356.8166270760652,514.1958396586417 358.37167224873474,516.9358958411528 360.4142324237892,518.0825001041453 362.5622717575012,518.4103548394548 365.6176646125382,517.5858332325083 368.62968200403503,515.2299662187704 369.0733513162647,512.8198176141356 368.6800103898778,510.8050048070944 369.23446158197424,506.3807493031852 371.65493546604336,505.79282994610026 374.47005640588594,503.93141093383235 377.084176467593,503.84012026205585 379.8575564284025,501.68290407683014 378.0399169945429,499.3375128038168 378.02386424667145,497.7646479772882 375.21107330353766,494.86714411140144 373.9394565291562,492.14438529359575 375.7935449096929,490.1475519037998 376.8176548574599,488.09608112102967 379.4544740722697,487.7285228256794 380.13623998124484,487.0721745455612 379.95554092238206,483.9609807668013 381.29902697740283,482.3222790813496 382.79731664978954,482.0992601889578 383.0975764021129,481.1539777856001 383.69113736127423,473.37318992179996 385.08346888562977,470.273494509251 389.27917901446847,468.50703842494306 390.4760700447409,467.3818246978192 391.1063571124757,465.2156750039885 391.02384495285196,461.71599683543946 389.04852477477823,457.0499759168233 390.19641450232825,448.7005236178991 390.5326251772803,443.0926661895295 391.0674328107644,441.10342202953086 391.5184382382215,437.00393075791374 392.3791443022926,433.96739756394663 394.62472022612445,430.79197694253446 395.64063532619485,428.8138076963487 395.8047793130972,426.7097803576153 398.6339815539824,424.7980313110962 401.41872184456116,422.08135022594684 402.84712641645626,419.89124777555344 403.81501310401364,417.2919731703149 404.5997399278614,412.2596094836929 405.74639608897775,409.4436339569053 409.57689345538836,404.9532970573715 408.28558452261757,399.45369261464907 408.44419555269053,395.35341640467675 409.28679204390806,393.2674315040226 411.0795633598798,390.9485217140575 411.46204376300227,388.86219361929295 408.70665102727963,383.3435847239972 409.08729733554424,381.53219562734023 411.5762717221345,377.9674819542894 413.2354746584351,373.9915141110645 413.98955765478695,371.3891004342262 415.02542890543964,371.5821498987732 422.174411581102,376.50055153595395 426.7869027187738,377.99591062808736 430.80619906553784,377.4353457441159 434.53873542109096,378.4187593485566 437.9525025393745,378.6637873232057 442.179158057722,376.8652906058934 445.192784986547,374.8666297996135 447.2288162527145,372.8073256227441 448.29151367473895,370.533735998158 450.5101011900582,367.4310883427512 450.8917188026665,364.02137098694425 450.4322144229869,360.64904367570716 449.24464604500776,356.9259228047341 449.01459660784093,351.67600904013455 452.64159193985023,346.32557030613816 455.4480488277695,344.02704684080015 457.0266326196703,341.1331264887094 459.707131751703,339.2639778397365 461.9397955641834,338.5655455934833 464.7801215153611,338.25100309316576 470.3088936924562,338.0817470188539 474.2262384675336,339.18941967385877 477.6166380989782,340.7755249705257 478.73133837707303,341.6784396193177 480.7448503554102,345.25949485276635 482.8894936528702,344.77505773308576 489.23073617099203,346.50082678720946 493.67946575225966,346.9845078013227 502.1491670581955,345.5056359165251 505.705342782321,343.34981786358674 509.5422937837332,343.31547353932365 511.6851874798064,341.49634787870093 512.674122592024,338.62378105272876 512.2932278730798,332.9414678909932 512.9691225757504,328.71157892131885 513.9316632853407,326.5731836886953 516.5008007590777,324.5818533394946 522.6531608333867,322.9883709032373 528.4337254996874,321.2091501016673 534.2886648096521,318.6946302155924 536.2970189600832,316.93911340433533 538.0156912302624,313.9589140609869 539.4345075438242,312.99077610008453 541.3247119272969,312.87616973140746 542.9952858591924,313.65151493969574 545.6899276975618,316.58124080296386 544.711062492797,317.9371847145702 543.6163434055484,320.72029795098695 541.2784321030688,325.02850867844245 541.2008185597215,325.9564669709713 542.388359546927,328.46375991066634 544.2467121456446,330.3043619541737 544.3468064064258,332.52125309176563 545.0151916643047,333.9415135914711 546.9964997555738,335.5858730293561 546.6212684035874,338.01732316370123 543.6952360488806,341.6791704408473 541.3070285500938,346.33627664825815 540.407111401501,349.0046670622437 538.5548338458951,351.7866889819112 536.8990613948924,355.1139849429295 537.2934655585096,359.0972666646426 542.373758633897,360.824814966301 543.5430122005395,363.0900828183243 543.6944409422985,366.31593694227627 542.0537938379774,371.55006027282934 541.3006443712632,375.7140553101582 540.9694465864322,380.7248336133903 539.0715153744479,383.723338339497 539.2493163389087,384.6977372382253 541.6912422371869,387.2311158832895 541.7175792199062,388.08616774679035 539.6151775679772,390.81522569678384 540.3721583984889,392.0513222780869 543.6749823093568,395.09498387114104 547.2964590656015,397.8260823884855 548.6124168995902,399.97696734650174 548.8107783820302,402.44984943547706 548.3157816188309,406.15243753611037 549.9257551218476,408.45023665266785 553.2898261664782,410.3921922473709 557.779258383257,413.5414178327868 558.3255712932465,414.2013951580217 563.6981603527657,415.73867948303916 566.339321581846,417.90098731789953 569.1293639302177,421.86449928365744 576.0778125853651,427.71949292726606 581.0281987714221,430.15297135360004 583.3851718649107,431.8924681544232 586.7672227523593,430.8843421307504 589.5381946910649,429.5015217010912 594.6818897776482,428.45074260437855 597.2119718382772,426.76738479672065 601.1841220939058,422.3568496273581 602.5975405251393,421.3743432664768 605.9616978238763,420.53791095043357 608.3991876073472,419.4590952403122 616.5213575334031,420.97503049840554 618.6977918771439,421.1047982742547 622.1634958269121,419.2251447095514 625.3038838003631,417.9641244615881 626.9161119555525,416.1598353943863 628.5569779077847,410.93820967540967 630.0728271218163,408.4119716053676 631.4723806893422,407.75531597436213 632.6062079988703,408.09484652277456 633.1929819074799,409.4977877950696 633.3274962012274,412.3397539070555 635.3301011641588,415.44115800073325 636.3262228476294,416.2221975706025 641.9524989378905,417.84721824317285 645.0309405491187,419.21856868198927 647.5372358157219,419.49163376516356 657.1905981591829,419.61577956757606 663.3614344560812,419.48996393976904 666.024418783053,419.23824852759606 673.5261740619832,418.01609349265743 678.8802660474137,418.3473523226776 685.2433368747145,420.43708413310094 690.3711254000107,420.49794056980295 705.004435426541,422.01148355765133" /><circle cx="346.89675551757335" cy="160.56284421170278" fill="rgb(100%,100%,100%)" r="16" stroke="grey" stroke-width="8" /></svg>