<?xml version="1.0" encoding="utf-8" ?>
<svg baseProfile="full" height="1000" version="1.1" width="1000" xmlns="http://www.w3.org/2000/svg" xmlns:ev="http://www.w3.org/2001/xml-events" xmlns:xlink="http://www.w3.org/1999/xlink"><defs /><polygon points="802.4023956409895,74.74444994821715 771.4819651460962,62.55910298554829 757.3985680190733,54.449047597605954 744.6976178682265,51.880037825911245 725.0979420903047,51.85076777592883 710.564236502003,55.05696402035642 694.6435808528598,63.11748547755349 678.7206736614478,73.25618048363197 664.8714369342838,82.47399468636536 653.5506822173121,87.07839870311454 635.7792587922436,87.74935831044729 608.9678930067004,85.42126356554559 592.3447561579493,81.25591029855536 564.8241545458637,57.463862745986034 532.208312694184,19.363263835730322 510.2400144098422,5.5207817354925055 494.9542936911551,0.0 480.83487188722364,0.02026388076319563 458.8305489260052,4.442292970691824 440.99833385868726,9.31688206421643 425.48971045164546,9.34615211419873 403.2332147520979,5.462241635519945 387.2585220876077,5.491511685510204 370.5723420543062,8.526590714645408 359.22456882962905,13.171522492912914 345.32129508711785,25.43567343630957 337.9204755257177,32.83424145540096 304.5593731706188,49.0543522312779 273.3169721258798,50.013509253840425 256.66681676948707,53.48989057504343 223.8190660602494,59.951816994644105 195.15918404104983,65.72477146845767 180.36655108748474,71.94578286126546 164.67780429593137,82.08447786734382 131.442788309965,113.45071373891471 62.93511055072508,166.40698878732564 49.795109650103285,186.4682307380623 26.74156797405849,258.00423289953517 0.0,324.2175890484973 130.74255865265786,358.22263250327137 148.42392038543852,365.90939793759253 153.12288917906903,376.7956049894228 157.72504165350938,409.5555455487055 160.16571351374682,417.3841581483366 160.5056964020308,421.3648849461896 161.2779754131554,424.64313054442664 161.29598775159374,430.8326203449352 160.90872247489705,455.59733417391203 159.5195208717867,463.28860269285065 158.29017877244883,480.7875894988109 158.87332822982665,494.22704552619047 160.7128382942159,503.5664430134628 164.47966857294944,519.6874859278647 168.18570720943347,536.3376412842815 174.27612914844312,549.4506236772218 183.2192551897916,558.0109875264591 194.11671995315788,559.4227045526175 207.7160354842938,561.433331832307 218.92871617057133,568.5234385554135 227.8830999234238,591.5296978430215 227.1558517584431,610.0846579907266 224.60710586751154,616.5263205295641 225.13621830954227,619.5073625433444 225.97154050521712,629.4524249110665 226.88566668167576,645.3888413563313 223.48583779886778,654.7530058089844 219.14486423199162,660.1544558022229 215.5131264916258,665.3465123609674 214.4886747421722,670.8492817580056 207.49313279593912,674.9403341288776 205.50952402394702,675.8927365245218 193.33768631509892,672.249741072636 196.2714459404584,682.1857972711308 193.56959517268876,684.5656774890788 181.8638267212892,691.7413428198315 176.29351105507516,696.8433376863202 171.5314990768624,702.2065114603492 165.65497365694026,704.2666726707844 159.78745440625332,705.5770702931509 151.23159364163348,705.6288557662051 142.34925924256643,699.094879992795 140.7258972395975,696.5731526095369 137.22024586839615,693.04048273067 133.3881208627796,692.8513531769313 134.6534876390262,704.9781600396275 132.05295627504833,720.4777772774341 135.61264466156476,730.8348718872417 140.5480253973867,736.8667537263026 142.43031476558707,737.8686900526843 145.65227180618425,738.8593686675379 148.31584635474437,738.3392623947423 151.7787184221026,736.7969559148019 156.18273517359302,736.8982753185937 159.13450713739084,743.9230873148092 171.03615976943956,766.8302787409423 171.26131400006304,783.5817535011507 164.22074120771805,791.1086594317154 169.56590264330862,794.6615931913374 173.71099202953565,799.3560589003503 180.19543387217635,801.1572927455301 191.98225784659653,807.9929751880068 194.72688791820926,815.819336245329 201.28563065700018,831.7444949790658 194.78993110279148,841.4824154545869 190.3408835051892,847.1990813707446 189.6676723555556,855.0164362588398 197.94884495877443,858.5108299184972 204.43328680144714,858.5310937992523 228.6891520691563,846.8883685324429 240.01891295536316,863.885261404062 247.56383122436614,866.627639933358 252.53298509476403,873.8956184986752 268.4378799477377,872.8554059530761 272.50866843787844,877.1288332507763 276.286756428148,875.4469311478348 280.93168820639943,869.390282343409 284.3405232584106,867.899761336515 299.0250821812815,867.1995316791998 309.5735578871286,865.1371189264639 315.26995992253916,865.3870401224841 321.6035484306746,869.3610122934267 328.06322330794256,880.2517224298666 331.21988562162477,879.3308416265136 331.61390552525575,873.4565677489082 337.3193137299015,870.0409780699787 339.8410411131596,870.8830548926039 344.47021209527344,877.5206016121067 350.87359841489354,875.0979420903316 360.79614535955176,875.257801594096 365.0830819110808,874.9560949250215 369.0930787589401,873.1458549106146 372.65276714548855,873.1143333183235 374.6453820867158,874.2963930292246 378.7634529652693,875.2375377133328 383.8947178817404,875.5369928400985 389.7059485747475,874.8660332327657 395.6905480253958,874.6273697482815 394.83721349121856,876.7888503625004 372.4028459494603,883.0458864322088 370.9145764848911,884.8786418696797 369.4961048318064,889.0822713558794 367.899761336511,891.0951501778698 365.0110325572954,893.8172648264106 362.41050119331754,897.881298689601 364.3648399153353,903.5484306750133 363.468726077347,909.1142432566337 361.9511865627714,914.8511730535465 372.72481649927397,917.6948709866263 370.0522357815107,925.5730175170029 372.91394605302077,928.4279731616185 374.55532039446007,931.251407213943 374.9493402980911,935.7972711307275 372.65276714548855,938.379790156259 377.02301076237103,943.8667987571516 377.41703066600206,945.2875219525371 378.7184221191254,943.1958391498189 379.0674111766446,941.5837348583779 378.29513216552004,931.4000090061716 379.12144819199165,929.9500157607957 385.4280181924536,938.2289368217217 388.81884090599436,944.1865177646725 389.33894717878997,946.1903904174358 385.8490566037582,949.7928581078033 393.5988652226775,950.2048903498887 392.70275138468924,954.2801819246231 396.19264195972096,953.908677444048 398.38114108162944,954.3702436168788 399.4753906425677,955.1807988472129 400.10357094608935,957.1531499076851 398.50722745079395,961.9984689512353 398.9102535236602,963.8019543387238 401.85301931822283,965.2046651956629 400.44355383437335,962.890079704598 400.88260458411634,959.0557031566647 403.7533210248935,956.8536947809274 402.3731255910184,955.4014499932508 398.5252397892323,949.412347458009 397.01670644389185,948.8922411852134 395.5644616562313,945.7198180753857 394.9182690142712,942.7140090962328 396.4875940018931,942.3537623271936 400.38951681899425,944.697617868241 405.6918989507738,946.0688071328889 410.9740172017821,950.6056648804462 412.0772729319555,952.3573647948884 412.06151213578596,955.750439050754 413.4597199081315,955.0006754626934 414.88719773041925,952.8572071869208 415.9724411221543,953.4178412212348 416.2313684873857,956.7321114963805 416.00846579906306,959.1164947989381 414.5359571306313,960.7173413788431 417.10271536000124,962.9216012968891 416.18633764127384,966.1750799297535 418.5099293015499,966.8753095870686 418.84090602059877,966.0557481875073 418.903949205181,959.9765839600177 419.69424055477594,959.3956860449406 421.98180753814336,959.8257306254804 424.5012833791006,963.2908542351554 424.96960417884986,967.1770162561351 425.5437474669925,968.5369478092471 427.973161615694,967.7961903904215 434.34277480073814,974.5350565137161 437.1144233799924,971.6530823614189 433.7776376817987,968.7485927860578 427.9371369387853,964.8939523573692 426.6650155356363,961.3185031746752 429.20250371503187,958.9048498221274 432.67438195162526,958.9656414644008 432.81848065922816,965.7045075876954 437.1594542261363,967.5169991444191 440.17426937451637,965.8035754491863 446.0575494213409,967.1072184446344 453.305264105903,967.1657585446071 455.35191606247736,967.8862520826774 454.928626108872,970.0995181699506 456.14896203897473,974.6363759175078 460.10492187145496,977.5003377313507 464.83316071509176,982.5978295132219 468.27802044397964,986.9523123339508 474.2693745215303,990.3363804205892 486.38042058809697,978.0902418156469 505.89003467373095,969.2191651281158 524.4134732291527,974.0757418831939 528.4775070923591,979.1011843112557 530.4678704912858,979.3128292880664 531.8323051289913,978.80172918449 537.3936146260021,978.0407078849014 539.1340568289005,976.7595803125173 537.1414418876731,975.6563245823438 536.5672985995304,974.7669653712819 533.1427027513818,972.5829693339991 530.6119691988886,969.5704057279278 528.2343405232334,967.6678524789484 527.1941279776422,967.4359436213824 523.8933669563572,968.647273382266 525.1407213941335,967.4674652136736 527.7682712658168,966.5443328680198 528.1712973386511,964.2815328500011 528.808483811408,966.5150628180294 531.9043544828087,969.2686990588534 533.6357905165038,971.8534696266936 537.1594542261436,974.3459269599693 541.6445265006545,976.8901697662914 543.0900166614126,976.5479353357066 544.5692799567469,975.3973972170965 545.7716035484111,973.2539289413239 547.6561444589443,971.0203989732956 546.3367406673506,969.129103435852 543.0900166614126,968.7778628360481 543.0810104921775,968.0280992479875 547.8880533165021,968.7891205475761 550.785788264953,967.7759265096585 551.1010041878642,965.3847885801825 553.7825910748627,960.9087224748987 554.57963705136,960.3976223713223 556.5272211464753,962.2799117395466 554.6696987436159,963.810960507951 554.6967172512893,966.4542711757559 553.2444724636288,968.548205520783 548.6783446660971,972.6842887377909 547.4309902282889,975.5977844823711 547.0549826630962,978.6306119691976 546.5258702210974,979.3916332687942 543.8532895033021,978.5315441077147 539.7352186247487,980.0130589453815 535.0610167964909,980.1143783491733 535.0069797811437,981.1253208447821 536.8915206916449,983.3183230512922 540.2643310667794,988.2154275678886 546.1386049443687,989.9356058900397 550.3647498536484,993.6326383572726 553.4245958481403,992.6014319809086 563.3268789120274,997.0774980861925 570.2526230467759,996.6452019633439 575.6608276669486,996.9964425631559 579.330841626492,1000.0 591.0726347548003,990.4984914666544 597.3679470437262,989.1047867789425 601.4409870761358,988.5756743369197 609.6050794794253,988.1839059755974 615.6774890799967,985.5608591885476 621.9030035574378,977.2706804160856 624.0915026793143,968.7283289053026 634.2099338046536,952.7176115639196 643.3421893997169,931.6116539829821 644.8754897104301,924.1815643715997 647.2711307245237,922.6505156031874 647.9443418741573,921.4887197730493 657.2904939883721,922.2002071418924 664.6102580267195,930.7200432296115 676.8451389201499,938.8998964290546 689.3141802134388,940.9037690818259 701.9363263835659,939.3096771288313 716.5128112757106,942.9346602422706 721.8579727113013,945.7085603638498 734.4801188814283,944.1077137839447 750.5628855766126,933.9149817625112 748.2505516278405,923.2606835682467 725.1519791056838,917.9650560634016 716.0017111721503,914.5314540460257 709.4519746025944,900.8758499572259 712.6108884585775,889.6338992209661 720.5678389696819,881.6634394560328 735.1443238618267,871.8737335074576 738.0870896563894,866.8190210294055 740.9217814202577,850.4120322420906 747.2981492322044,840.8429774395452 762.4127527356152,831.0825415409603 776.1651731435891,828.4910163462016 783.8339262394558,827.741252758141 797.1743144053603,821.5157382807237 801.4252262799806,810.8456792903136 801.9183140451028,798.4734543162068 805.7571936776536,784.1626514162198 816.8820642139762,763.0364299545192 816.7289593371381,739.5686044940803 818.8724276129027,722.5086684378789 825.5279866708518,709.6816319178675 836.6978880532862,696.8433376863202 845.6320079253995,686.1372540190015 856.7996577655651,673.289953618227 865.7247714684432,660.4539109289885 867.8142027288608,634.8628810735402 874.4517494483714,617.766920340438 869.8608546854351,602.8729679830733 867.0261629215986,589.8883235015983 867.5192506867206,587.2990498491483 879.5289773494635,584.6782546044074 882.3298959787242,582.4762462286701 887.3350745260307,571.1037060386361 886.8937722339549,558.5423515107907 892.8603593461328,548.2595577970933 897.0212095284974,536.0494438690517 895.9990093213767,529.9072364569718 889.8455441977527,522.4884045571252 880.9564551717833,516.3574548565814 877.5206016120986,509.59607331022295 874.1027603908524,505.40595307786003 857.722790111227,498.2955824739984 848.8337010852256,495.7265727023037 845.7558427522632,490.5570315666231 851.866528572044,467.97631377493724 852.5194758409384,457.4075741883189 854.861079839685,454.51884540911135 859.2313234565673,451.2991399108389 862.2528932318498,449.6892871617067 869.9936956815341,448.0591705318194 870.639888323494,443.25888233440514 865.4816048993495,429.2317737650302 857.7137839419918,427.68271265817145 847.9105687395637,424.2130859638869 841.6310172468073,422.6032332147547 841.2189850047059,417.2850902868456 844.2585671184587,406.3561039311961 845.6230017561963,404.6787049128642 847.7484576934905,403.408835052016 858.7269779799094,403.59796460575467 863.2660872697675,402.3078308641434 865.1326158418303,400.26793353447135 866.1818345566567,397.73945152429496 866.6839284910138,393.1710721844464 866.3889764488417,389.12279911740166 866.3169270950563,377.97541315801516 867.3391273021771,371.3783942000307 867.8592335749727,369.34750303958594 867.0531814292722,368.5887332822981 864.3693429999408,367.8389696942454 857.9389381726472,366.8595487909279 854.7192326743829,365.85986400684703 852.8436979330849,365.88012788760216 848.5635160084581,366.9180888908925 844.0176520916657,366.429504210388 842.392038546396,364.6710496690274 841.2977889854258,361.6314675552745 841.0118431125209,358.8418066375499 839.6474084747832,354.79353357049706 835.6193992884855,352.5352366370961 830.2652316836918,352.31458549106605 827.0635385238658,353.59346152114153 820.3809609582431,354.3837528707204 815.5536542531473,354.40401675147564 811.2667177016182,353.41333813662993 808.3059395685852,350.63493493043325 805.336155266349,346.59791957490836 803.4358535596783,342.8085738731029 797.4962849551739,335.49106137704825 792.9211509884071,331.70396721754355 787.0288647723474,331.23339487549356 778.9998649074575,330.2539739721758 773.6524519295663,328.7657045075905 778.4077092808445,322.9071914261308 780.8033502949381,320.8695456387676 783.1899851397965,317.5710361597753 786.6596118340891,316.7897509794235 789.5933714594486,315.0020263880806 791.7098212275396,311.9534381051086 792.7612914846667,309.4136983833962 792.473094069429,306.8762102039926 791.3698383392556,301.81924618363973 790.410681316685,299.90993830774187 788.6702391137868,298.02990048183415 786.2205610843141,292.714009096234 783.7888953933439,289.43576349799696 781.0802899986398,285.1375692349318 778.5878326653561,281.6904579637112 785.5923807808243,280.1098752645613 790.696627189622,279.7901562570405 797.5233034628475,280.44985815283735 801.9093078758674,281.9403791597234 816.5128112757178,264.2612689692435 822.389336695608,282.3996937902456 822.389336695608,283.6785698203289 827.5025892736408,285.94812446525793 832.2826135902918,285.94812446525793 835.1353176925986,285.1285630657046 838.5621650830802,288.05556806412983 840.5367676858372,293.69342999955177 847.523303462867,294.89125050659845 851.5242941414592,298.82919800063235 857.4008195613814,297.39046246679254 870.6038636465854,281.87958751745 873.8078083487122,270.1175305084025 878.1577880848236,257.38505876525653 878.9030485882746,238.31899851398316 878.3379114693352,225.40865492862633 880.893411987201,212.6784347277893 852.1344621065425,206.08366731211368 842.6712297923985,186.4592245688351 802.4023956409895,74.74444994821715" /></svg>