<?xml version="1.0" encoding="utf-8" ?>
<svg baseProfile="full" height="1024" version="1.1" width="1024" xmlns="http://www.w3.org/2000/svg" xmlns:ev="http://www.w3.org/2001/xml-events" xmlns:xlink="http://www.w3.org/1999/xlink"><defs /><polygon fill="black" points="9.949527566237329,709.6788821463633 11.047732828443026,735.3141460302668 14.638283176076555,751.3536473376607 10.601902104009998,759.3292197991182 4.435740869543789,789.6453353922409 2.7050851308958324,801.6411758213083 0.0,810.2890598758522 1.2974395397825502,818.3057321464369 2.9421898211454027,821.9943061877242 15.909287023249863,827.4329936750563 26.19389294621845,837.5107426982622 33.18294229198331,841.8945421800022 41.19506472232896,839.6211673835759 47.89738186029523,834.9950051249538 49.940184767265436,825.6661626194624 51.971658627067576,820.3368283208177 58.00723791779629,816.3762628097513 62.32722773055373,818.0610718081869 71.94250857438034,831.1286712444883 75.58237251329653,838.4851315135184 85.20866207186575,851.2165080602193 97.82388867366298,868.2850584101762 96.46094626183948,872.2937793803401 91.38818250215814,883.9365504877372 82.67099858080343,891.2378857034699 78.28154264746746,901.2223477369168 75.88994551498985,910.8829747675358 78.80345013410077,929.2539670885049 82.76462512102997,938.618140411111 94.00303211483234,963.6889648545136 104.31879268308889,972.7424465103263 114.9854761971113,978.4604546559499 121.66940427100403,981.8260710230877 128.97506452029037,991.8574342862034 131.62264310672813,997.5427275010994 138.9365633713594,1007.9134942727023 148.93442272475693,1016.6265251756853 157.9255908053469,1023.65332264777 161.26812021870313,1024.0 169.65430936353,1021.0216982348975 173.38857739208322,1013.3701877006107 175.08161261647174,1006.3599570276734 173.46551256754458,995.6864845751859 167.4916066115185,985.9899124204532 164.48784652584834,982.9735048617927 154.1563224548028,975.5965303920017 149.1625537336312,969.5773974934723 144.498011056703,964.5552043228053 142.51081400321632,959.878200780483 148.5600045101579,955.2334858231312 154.2980034918517,945.5775316955409 162.3695406292907,937.5900085259308 169.73621996671514,936.2836471074418 173.09378155153146,936.2917895757731 178.07866785603835,942.648620360954 185.10306154429296,946.0112181029128 195.46990776577223,948.7044682633716 202.15301681518707,949.0681737809371 206.1642255698392,949.7553527274024 204.1923184912032,941.733122368206 205.2613006621775,930.7318694874972 207.64829951891284,920.0617408822899 203.73701340692122,901.0343886082626 201.7659686765766,892.3484107473902 203.14205926048578,885.0132943134698 222.89537837882415,881.0847277403891 233.29988477757257,876.7876821314039 241.00019464646482,872.8112983061446 251.0341965765201,874.5247647181139 261.05314419392965,875.2413895860718 269.74891236930205,874.9500182155044 277.46544855311674,866.6531074095737 283.5163949136295,861.677067411574 291.26540746344824,847.7056861403715 307.35178214910286,837.4744858849544 317.3502855639418,839.8710583050082 334.6688878449607,846.6582187242858 338.96860598650244,847.3210622345052 342.9050289193174,841.9506498127587 345.07039989174194,834.7317881789909 345.7944602370703,826.7716260143986 351.573135825594,812.315506855912 354.82209923045167,806.175607825843 357.3511121201669,804.3739733488972 364.57230263953744,806.9179691431024 377.2178474535075,812.3716689842984 381.54750006063136,815.997553643438 381.904932989652,821.4148713985518 383.71237528772366,834.4451826376533 385.88169694969525,835.5355677260991 388.7662205750303,834.4513276616362 390.74842761121187,833.1307054813497 392.7238386707986,830.8341459827172 393.1353807577942,826.4749973133257 394.7706346260227,823.8614242925325 399.614634594874,820.1739600282539 401.49742668854395,817.8771955137449 403.2165302729124,814.4329543619265 403.1362720516618,811.8783661615207 401.2527818877541,806.7062517530239 402.487978478829,799.4043002898098 404.29103434335616,786.7499846667079 404.3003113142945,778.4329667015454 405.02387748512314,776.6286264353351 406.8297371453297,776.6306243844869 411.8793587773563,780.2565694007894 419.8249879808613,787.50581916233 424.67495127309377,792.1666371818852 427.0176444145003,793.7591727422296 433.9651750300737,797.4879925986567 437.8064351684358,800.8157756842191 454.51849791233843,809.6005366591608 462.57040915290014,811.4223371830875 464.01193655190644,812.1205378271779 468.0031802415727,815.4376052279888 470.1752724541427,814.9469179855162 472.4214353966821,812.3737433926799 477.05313144619913,813.2687318406566 482.99166917356064,817.2127305582918 491.14942396434844,823.8343991596112 496.0628710669465,824.2062549776426 498.30133290978733,820.8122339969258 509.1702813944508,811.7605955342624 510.9858928078797,808.858500316621 510.6224932654284,807.4118823464788 507.3586650291065,804.5274820592675 503.37592801080706,801.6440764817216 502.29156668103343,799.109310224351 501.9294731805949,795.4988312274126 499.3880849096176,791.8144968254044 500.7504928094938,785.4573506685665 499.661464391077,777.508590435444 498.21471214091275,772.4408665888932 497.8516496685284,768.4716641881529 498.94078475910436,762.3191254002782 501.1212111906946,759.7774877072025 508.7521644189377,756.0072518783306 513.4474069678605,756.4612950327862 518.4862032869027,752.8127722291624 518.1914148958364,745.8098884923927 520.2415749564535,735.8033828267933 523.2928434817661,727.8173715715193 521.6824977903076,716.4658461077263 518.3831187603373,705.4446230383431 516.0862353421305,697.0988686398562 517.4908706834242,685.0951833177012 520.2106417036525,676.7633941339711 522.5629042021313,673.104765439851 529.6461131392068,663.7915334349439 533.3754875138527,653.4616204116934 534.0821897449223,646.1236087239711 532.7761656784169,638.7136585703227 529.9962605415776,635.6802297600686 529.8478650043876,634.336825056284 535.8098592308642,629.420316879932 537.7468590183034,627.0436664962966 535.5135411447177,625.2609184009203 530.4473175384281,625.1253484222439 527.3200861035923,624.3863134741721 526.8729167986659,622.1627058214783 528.0670205003372,618.883987894815 533.1329478721733,615.9045145851451 540.284700982968,613.5094392998158 545.0614188493918,611.2672722670579 546.5517589212392,607.5484828163279 546.2552726123942,603.2337015563685 547.5962458719778,600.7144281407031 551.7689005020459,598.7681545492278 555.7989518629754,597.5711157133926 556.0976042211678,594.2919678563431 554.601063667613,587.7563632505801 556.3897701204284,585.3794595232241 559.8239689735318,583.8844591299955 562.9599346431517,584.1727158796166 564.1519816727231,586.252621774871 564.2984596342478,597.8388617495609 568.625588203165,600.0529696544271 576.7444185665686,600.157387278328 586.9911658524937,587.5571568028467 594.7287948139113,582.5777635390327 608.1502837206422,580.6011802775861 619.8836719163314,579.2888997209027 632.9420055342024,582.9946454911104 645.992554150119,585.0205939482544 648.3004615942327,582.6339030223531 651.38624590816,582.110222911212 652.6448638780819,583.0117160614673 656.0221239135435,587.5693644391291 661.716434946894,589.2579229622447 664.729169975683,590.5580854737491 668.2644439150858,593.6195997315579 669.8624106454059,595.8424033383646 672.7619194202418,603.3915864970629 675.5442921259184,607.6223342103299 681.6522332883851,609.9664921180979 684.269393952291,612.5256153830991 686.2073368793685,616.6041026979269 690.9014446053478,618.6407391192413 694.9084890198808,619.6929824529539 700.6775590228098,620.5611548312778 708.7817769353386,623.0774918756674 713.4768604596026,625.952933715783 717.3105154319117,627.4273862658486 732.5841508825598,630.2339815918324 742.9652053018482,632.3679747299163 747.4448390762315,635.1206920095204 747.2361105320352,632.9686069360379 748.6928933139288,631.8302605761987 748.2278825888957,630.5599179750045 745.4795579496694,630.2339924054947 743.1614509258854,628.9448222506803 742.306590790303,626.3227185353535 744.7052193876801,624.5983785890028 743.8681083301079,622.7343508543042 744.1545463228,620.0488729217288 743.160505397258,618.0310287870524 740.5626182091821,619.3459681055774 738.2348878272968,617.3189874939374 737.1515035559659,618.9376598820986 735.9012920505684,617.8741141128899 733.7989519833503,617.527175752771 732.2858906054281,619.1577611554312 730.057471180858,617.6316305199152 725.529687402653,616.5805605431281 732.6590118782652,598.315959096049 734.2807796304544,597.781748649319 738.5856085802757,600.7395999740261 742.6274603356784,604.2407074424156 744.7882403634891,605.3150793751995 748.5572682870181,599.123817423724 750.4424858427142,596.9699520292578 754.2177312161101,598.3187547093619 757.4476029519257,601.2872471651654 759.0563166451481,605.3231172295134 759.3255789056966,610.169101702236 760.1405629374445,613.6726914098517 763.3700579189195,615.8219924984045 768.2140895389707,617.9784145119962 771.857484026449,620.0138868795707 785.589753890604,620.6868850852571 794.9476235861694,618.7510685743291 797.6460615136185,611.1033041712908 796.4018275314464,594.4151731075702 806.1633350699535,576.1372816416438 816.8813610906286,564.8866586375232 826.651700988543,545.1668745088616 825.504912426929,540.5384726594491 826.5890039260955,534.3518010877563 827.9292656321655,528.7064885590203 828.1990451682572,525.4689943738732 826.857065964763,524.6618108187959 824.3774697993829,526.2625114685738 819.2639217382176,525.163783559409 819.1681489975879,521.2514467631165 820.0670804075843,512.2795505778048 822.3204080602665,501.66774935103297 822.6586546942369,487.9969212186908 816.9364019560214,476.17954240497147 810.2242813985544,464.00298951542345 801.7713551062201,455.4443952644449 793.3017696538661,446.5484758024354 787.835264673583,438.0788285501304 787.3481647684049,430.7191153197756 785.2384087416558,421.3351648659673 775.512802821677,409.74858255408276 763.2245375533853,406.7730876243173 738.7587101291116,399.3845426581845 727.2031424098808,401.15349132033225 725.9973015498157,402.81143328381074 721.4113169605267,404.6982962506846 713.3195206393711,406.0543426471389 708.4664160846132,406.3231773530375 706.0359999908039,405.51718427975015 704.6942285044929,402.5596603436825 703.0701334483214,393.94413913445794 701.1832857531775,390.4553630923008 695.517184421464,383.45845363637795 694.9790350831908,381.3107943011772 697.4080129075073,380.22459652939233 700.3750171122654,381.030404877431 703.0717125849154,383.17824649906834 706.5767709958536,383.4419247535693 708.4647382990944,375.910591530591 708.3637100446927,374.2826246550512 705.3067663420182,374.7971477433043 703.2731169362715,374.28569375367795 701.734312672151,371.48365123913834 702.0297614431631,368.0763805992442 699.9044397919174,365.8875318683562 695.31725520767,366.7091799856223 694.5068885684109,364.825982432733 695.5884976674572,362.1342812275982 695.3137508389151,360.25224658483046 691.2645033670489,360.25439728359584 684.2489003276077,362.6832450214889 680.7364037379331,362.4292873821039 677.4954929311498,360.28133759206185 677.2312340699817,357.8561088379694 679.931665737561,355.1652380596013 685.8713919912057,351.6522204030988 689.9198225146489,347.8756573024036 691.6040477787961,330.0317625865505 691.0647141748221,325.1944087772109 689.4432957335799,321.69663383587715 683.7788743961075,312.5542433384427 681.075317601694,306.908934214424 678.6446198710127,305.0278461026588 677.2986909461928,304.7626707901371 676.4887830206766,305.84790058692613 676.7546176838562,309.069006954604 678.1035725339417,313.10873600771924 673.2456822631151,314.7374128416892 664.4841595539806,305.48382460669177 663.6162870640062,302.93678914085467 664.4572283157421,300.1959743708562 674.5096121722455,295.2004115183755 677.308256085902,290.6273258808511 678.8361146904408,289.0930052333699 680.8761212300213,288.59102954897025 685.8409235318966,289.3453254122469 686.6009268846419,288.70012521822514 686.5409688816654,284.4869963005128 683.9116421634671,279.31368246825684 677.4972355466481,268.76266672363465 676.6856159271456,265.54178867962946 677.5015632036296,260.6936010189979 679.9300306299399,259.0673696637234 684.2481296083168,256.9072057821205 685.6014609566719,254.21685939722363 685.0631692375421,250.70977564697262 683.7072882191247,248.0221888438607 678.3120541726113,243.73017816037805 675.8830051760877,240.5100039016919 677.0275816118977,235.5919529240732 677.2992092880536,231.28715810347762 678.1066096717894,228.32116252761477 678.8913953093939,227.75876301756023 678.4337164980006,221.7274801382788 674.9872210714631,212.31358639650534 669.1046616918624,205.85461937966966 662.5871514882473,198.37469310706445 655.1279420877929,187.87833530209707 648.3791541063915,176.07435923356604 644.0257900037536,162.3088832659049 640.373373633266,147.22585790417668 637.1752044057729,126.83000449388237 632.4353596012872,115.05976451424056 622.1597211565227,110.17713178917211 611.8112683225592,108.29877395572942 597.0149092680045,110.32217997111309 582.8528035204484,113.35521040545382 571.2982631827668,119.11648235898144 563.1099566480939,124.60180439438705 550.6466543554063,127.67467180517497 538.8438445805092,131.08381956650078 533.9851187467609,124.30686822536529 529.7572910239805,127.74866330212888 530.3526945293185,124.3664209894273 527.9192812176326,123.29358710408633 524.3870794042804,122.61672294119671 521.6398777058837,121.03243902717077 520.8731103459303,119.52020448386929 517.5480578982343,117.3415807964916 501.24340330936565,110.93685165209604 490.83607633229246,112.6878590201078 475.6295689006585,119.65597557720707 466.01500093727043,130.08231666471556 459.8104136177506,138.27143521381277 454.89901983747285,147.47515309705898 449.9960030062711,157.0258404471573 447.24462682962843,160.28390287983189 436.7724593573542,165.69147836839443 431.5547448231005,174.22034635564398 428.6475646886499,184.14269992893753 423.66407091774636,196.67852644906156 416.82842481028086,203.17346433881767 406.22198106970643,200.8918747592744 397.4655258556633,204.3267298807208 387.63125041628297,210.4088654115127 375.90331124100123,213.092451371813 364.5041561672919,215.45908638944707 349.7121907873283,206.0736420027332 340.64686736149685,194.499690647781 315.7599309182084,174.85539953605257 309.32061738987153,165.02250053028274 313.1350105442502,145.45715302306633 316.7788198326178,133.21122326122327 322.4177078193554,121.35766372160845 330.35828393525685,110.22208939070822 329.44868129119106,106.2063785954183 322.5137595002272,103.35454447850123 310.4370156848129,105.37809739493696 300.94539870774906,110.80816881621638 292.12932207349496,116.59475541300094 280.2849190570612,122.30558644732241 269.82010932359987,113.38730156457723 267.4962931133231,98.65889929534717 263.9867262480338,74.3701834597424 264.8185113966974,70.92827163093807 264.0537745051807,61.57069943423335 261.56043257589556,54.180570081956034 255.71710700870986,47.04078663484029 245.15414058369896,40.78867323156237 232.8616435893147,37.1784195331893 216.82461136026365,22.477419419110788 208.19534772033106,19.620027645248 199.52046082851683,18.425055592588592 193.1455531780596,18.288075935338384 189.28295712095388,12.202165437703684 187.41596180857664,6.489870082219909 185.14817779415944,3.1047356847528818 180.54614161996867,0.0 172.99553505052987,1.3291916250067288 165.8266563481604,12.134308649888794 153.0321459203225,22.160638516006998 156.83693399719542,24.28369616798841 163.32237887450918,27.007520718499222 164.2997029186531,28.520467834435863 164.35947146191498,30.850223016094105 163.11786468085361,36.15693973645432 162.74661439203527,39.06654618737912 163.18011851973122,44.22501353167365 162.30428416197992,47.70556793591663 161.02193489136567,49.34783341557602 156.5560989567926,53.217106607195205 154.85093012757912,55.765966567278156 155.4866873858131,58.842274909671346 157.204428704014,61.1138514122822 157.8425856548166,63.28097285287913 158.52279295984502,68.5228598258575 158.17224592581906,73.03736718116158 159.4357178983562,75.76814912445866 160.7117996969186,80.26648083834118 160.6087741638486,82.02357914184643 157.14539388884282,84.05672910752594 152.23264128967818,82.06299527192516 150.60034263521857,81.73195960838223 147.3052163129536,82.6935066741836 142.39261653547652,80.69803828116926 137.46167490597037,82.63684208241057 134.47428627126533,85.88790244770189 132.82923925487083,86.86379480745154 130.8324028168088,90.11747746095989 129.1763381581943,91.73670400659512 124.23614273184187,94.00189171857357 120.6196135528118,94.63526263807341 119.73747509289629,94.32635561481197 113.78643623734332,86.41312922031034 110.52247647762347,85.08513046126052 107.03643190629953,89.29432152384675 102.86659025956334,95.90369037808694 100.37569056908471,101.18746592295918 98.34524649251735,103.98173368039534 98.1576006849761,106.1466693225027 98.86949351080744,108.07022474378516 100.28660881323285,109.24930584047365 107.53101512494933,109.33116029597807 108.6022085488953,110.18240051479813 109.30207412306332,113.6076227571989 111.67421278999473,118.20093122860135 112.7351251668583,119.46168179761094 116.37849391119565,121.16830407888813 122.71732148445157,120.9913547640574 125.04121310096818,122.27440091483754 126.49046269321768,126.69357050256349 126.59475477021674,130.3523571014964 127.51705412804395,137.18098495892923 127.46561887215734,141.0833368443872 124.01819708062051,142.95466464646563 122.92427900893031,144.51583480251702 124.46056517347166,147.45239158808658 127.91511743863954,151.6519354641589 131.13758738062327,153.76664209975013 135.26419785936093,154.03342123961147 138.26314546792153,152.78373136393873 145.14503312863135,150.96187586916096 148.04801667393866,151.67535058712735 151.6729966618838,157.81665401891996 155.29927882567455,159.9827844554478 158.19642638418267,159.96989346097757 162.42760370462514,158.46732240822723 164.02530912978207,159.77993732098457 164.9008508401998,162.8683976872826 162.85096604659932,167.2478703041437 159.0133070731523,173.115778322775 156.3326684150052,175.75509548469017 155.64002975325454,178.2484548581774 156.47516287910557,181.1828999810482 155.35887701812382,181.7537078695708 151.63491088071274,188.1721856319515 150.2308092752579,188.6797623919556 148.27590577492205,187.65365756328254 146.9678015727399,189.15196266207374 145.56416872747596,192.47125503826805 141.18334358542924,197.47754803950284 139.9201001572704,200.3469385722517 138.60335806929032,201.5706637458403 133.46750178716408,205.07301524035233 132.94706981292208,207.9036931633716 131.9008025844313,210.2013855652848 129.7009525915863,211.19753562806136 126.78732838905793,210.66818960069781 124.24946536013167,211.68367810196435 126.63402028689444,212.39461476357178 128.5632583987712,213.7287876594561 126.98777650169184,216.21962135576007 125.08706958135114,216.45985754962692 122.96772079388535,215.4010684562793 118.17089611326698,215.41826505599295 116.0144923345853,215.87263693390378 115.17549077288301,217.3110186872932 113.21536232140568,218.5632473081929 111.3832017038068,221.05321902584672 112.87082939158675,223.7050520080977 112.21050652137738,226.5759400749189 109.56452669912403,230.36199615389785 109.18876081683513,232.09939335816148 109.33333096323028,236.30145116529127 107.75644751037147,241.88996829889675 107.66745566040929,244.04790525708586 109.02141729374343,247.04649422534737 109.54484558499024,252.15152774648436 109.25687550989446,254.45122924106215 107.1354142676967,260.0076898000831 105.53471629236593,262.3254273503669 106.25719724852452,266.3359639653647 105.3616518250409,273.6445141258299 106.1003828549784,275.20208334808046 104.78681451895241,278.2555176490695 105.63450421750983,279.434337643846 104.80911356733682,284.7199634250775 101.61585895395031,289.0780038709306 101.84117508006851,291.23683337168984 105.69702187978716,294.8685635909227 102.13353679197738,298.9089451786856 98.54145435165216,300.953654364013 95.69341756471033,303.1645708485928 93.45666410139962,308.2121994012705 92.0948255506548,310.5188909178879 88.46562480325112,313.8747506690878 86.94807913750294,315.8541662162178 82.43052128827848,323.1954004630579 81.62497611379293,327.2653586467892 81.69342566168832,334.743661495962 83.7314896264071,338.7698107318158 83.29828461278053,339.7517547850159 79.86681085798848,340.5388393166355 78.86305104929427,341.77322119655 81.71927748673123,345.47506924021343 82.6757808595396,349.0593868069558 79.80591205072896,352.51899342922286 74.7846937857863,354.1101631670832 67.45581385863996,353.77123138127763 63.699807062496404,355.13067987292004 62.41935650057675,357.6842897997551 62.34213085213099,363.92620143441434 62.59427426603072,367.9281721264924 67.49712237375041,367.3390976698478 71.06760259279042,367.3398393957626 71.06646511749108,370.3069587173359 69.58082604667942,372.389436143043 66.60845464993979,373.8747903804699 61.76206398987037,374.8721240005706 61.639686693819264,379.5381014219055 58.98927075571231,384.08439650644516 58.31364584236023,391.39915753987214 57.78363890538885,394.2121299679393 57.637970225727194,398.71391167536206 56.10390603667087,408.1565493891909 56.06926315135803,411.23683852467593 57.00432677710172,416.1631649931154 58.69532960069217,420.1696064369611 59.453915235062425,426.0059754485799 62.677778219967436,434.1954750937791 62.16930954645699,441.10262881468407 64.70559220502405,444.3767279278587 64.61090433354724,445.6254376829154 62.38911504826763,450.0815919443702 60.912405443730805,454.5618103057561 57.171570057842644,460.9070231375583 55.012365196557695,463.7570066848458 55.00950982250766,467.196103584555 55.90363135781807,472.2573434825357 57.38794532423183,476.41852099696166 57.38332496686536,477.902780887361 51.909937167143035,479.68799100337367 50.928400599510326,486.9348997973948 51.92781040733133,492.43653589093753 52.50113825918107,499.85243666975873 52.39243017230712,502.5955289719493 51.30469927274401,509.23792778853704 51.94458944962377,510.99143602843003 56.81304510572342,514.7144277560528 59.51575162801792,518.1633593593938 59.699430141519734,523.0800207245006 59.388383411311935,527.3909847501984 59.39435438944582,533.5459166483481 60.4433569690663,536.3956982621252 64.8276288052776,544.9415309897157 64.45332065210593,548.0033112125996 63.018040172139145,549.4846209167465 56.10304415038814,551.5211570098764 50.35676750862606,563.5196127397442 46.68928157565782,564.1732001569789 37.313747482519894,569.4398574541173 33.301357019640136,574.4155940176367 31.24752177267113,582.4097175813847 33.542964125349684,591.76133943269 38.508583941548494,599.4716839292304 40.125712947729276,608.482628908435 41.37082801243658,625.5076366598411 39.651986445937034,637.5025373787726 34.94170997405797,645.48088811359 28.87608152935819,657.4412740395827 24.495923985105836,667.758628530197 14.015974671516803,694.35477410996 9.949527566237329,709.6788821463633" /><circle cx="280.75989475123026" cy="324.80820910259547" fill="rgb(100%,100%,100%)" r="16" stroke="grey" stroke-width="8" /></svg>