<?xml version="1.0" encoding="utf-8" ?>
<svg baseProfile="full" height="1024" version="1.1" width="1024" xmlns="http://www.w3.org/2000/svg" xmlns:ev="http://www.w3.org/2001/xml-events" xmlns:xlink="http://www.w3.org/1999/xlink"><defs /><polygon fill="black" points="230.89630023783698,1017.0670565947519 233.03251829504984,1013.8015064350551 236.65594364838634,1009.7927386518211 241.68458779750702,1007.1479102029774 243.69578260079012,1005.6485276153145 249.38741561132827,999.8108433326599 251.22575297117814,993.8728918226755 250.86902108047948,990.2736613940624 252.52199569228324,986.7782180194255 259.3607338576292,983.4306708721895 260.37329033968024,982.2644370214391 266.23056438212683,964.4810224073505 265.64008056472807,958.7988072833695 263.43492303622355,947.9007639519389 262.9573501652719,944.309212145738 260.93378579584964,940.9967406178895 261.0052732385943,935.4042679166954 261.6811771321633,933.0470128777025 264.4104850873662,928.0706438813675 266.8572560679264,925.2341456366378 269.1600507500706,924.3803076814839 274.61355121371616,925.0699916429376 278.3533538613983,928.067784470379 282.3039022706482,934.084169553606 285.6560267320681,939.7665810156865 286.12247776558877,941.649622650939 290.6481338971252,949.450404745162 295.001300911031,952.7837494765585 298.35482188610484,954.4242620499899 311.2668941314117,965.7966486339752 315.63143897215025,968.4916090336549 322.78804688116315,971.6097859750763 331.7032610962241,972.2735707835277 340.8811498179083,966.0427722536152 349.7729500191267,955.6180427913907 355.1947096308343,948.77602390402 359.86911608846606,949.050374754036 361.16897933347843,951.5004756110087 361.541813284411,954.2664491686196 363.41224324707764,952.351806861474 364.9067426381617,949.1495938388034 364.0768355337764,946.0537349698644 364.722069834859,944.8268505149829 366.5218209476683,946.7746721233441 376.2835483470663,952.0957880062824 373.210286029393,942.8042570349251 372.7393224421989,938.0928020841956 373.0703407830408,933.4742814801918 374.90729178076003,926.7960775967101 379.27885038444333,914.068484608966 382.7394937080504,908.5019623491405 388.5404208787734,912.7013325532621 405.8439144419137,917.4838716261886 410.40121786908736,922.0102783962525 418.1466946927058,923.6066188386653 423.3063826604757,926.369478073055 427.54269447286185,926.9181521782741 430.3771659220349,926.178616290041 433.49097696653774,921.4048156045708 433.39989227283013,916.6942755014117 432.73533489395606,911.7324123039946 436.21926847701735,905.9504202420638 438.46658380526736,900.0050893065518 446.620159811267,883.446372545908 451.3957657407031,875.714132947965 452.2127191323676,872.4254876289057 457.57980271456535,866.6817069167776 458.81001035203593,859.8881439816006 459.57003245309306,858.2427433678024 464.9318459753025,852.3775463656993 472.88128053308594,846.2881611786413 475.89578450392185,842.3263619598604 479.6228744673831,838.8324548894573 480.7375758848627,836.2922138706308 492.2400369939006,833.3347741106961 495.36007684415455,830.1849987322325 494.24812077603707,827.8148461320162 489.4340751204383,822.3101403575863 488.3185784652192,818.1415335126787 488.33641156047395,813.4790231443949 485.2205529354231,803.0446993023586 484.7970666492236,799.9308378099588 485.88443745265204,794.2776310532856 488.43274778168717,788.8562886575437 492.7389175389342,783.0687365481393 498.54521807284704,777.8825569360391 504.56504805679225,761.8882132593607 505.38983135131986,757.13203602372 512.5911684676555,749.1373966229514 521.8679228526673,733.6160763569098 522.3535906175721,723.7908724377482 519.2043151973521,720.5712060765101 518.8475724888174,718.4983289751749 522.5703273795949,711.6708739336073 527.2031656557341,705.3702652096063 531.4977011984055,700.219631080105 539.5987189239795,688.431186128068 544.0333030195434,679.0148683569196 545.0594399130417,674.3177974620085 539.762352445425,673.3766267272429 539.1606610860744,670.9181747875805 539.4739941761726,664.2551166241012 539.1818274091461,655.9034223489043 573.9732205420631,636.2695377220923 586.3015873845573,629.4106190219647 593.1619320344266,620.5896164390394 597.8769650290384,607.242785132461 602.9520295429099,590.1726432866847 605.4121770550078,568.1786198007112 606.2514481432562,547.4587737157356 607.5125707050894,526.7329650137765 612.9250800399685,506.3364859505757 614.4504633871126,500.0989054827153 620.1072484143893,492.1279125112774 630.298770840695,484.0721605574382 640.4493093409277,472.7147695691756 643.185198057618,464.38470921032206 649.1814530327503,453.1011880980127 654.2510160255081,437.27688047924505 658.1982094348397,427.6874354019319 664.73902027739,422.59930292841955 680.1865542941135,408.676916777746 695.9381116987585,388.12257030345086 674.1708475078929,376.062748503222 662.478496143861,369.22315498097487 643.5780883995812,355.45703951785765 635.163628315093,348.9823734841891 627.4899173890925,338.3576825925883 624.8476917371208,330.52882361911213 624.7888511829876,327.22000749880647 625.5514544813448,323.8897369117559 632.9282497309742,297.6781144185147 633.1294874210431,286.90063593458046 631.2845624993971,277.8261773280002 628.9358245155659,262.96314922541865 621.5503634368661,245.69561425067047 615.113627933507,234.21631776485026 604.5722658681632,225.7169935546833 583.6462667175415,215.76134722822178 571.0030978631333,206.49166299174578 554.4547488058081,189.42736058292735 547.1624448410842,176.73940897356 539.9156693778599,167.3687657822769 529.4998649304257,166.7599036655388 520.0797426003421,174.00348642940753 499.6406618050657,191.83401767617102 492.6676077738142,197.77717797990817 483.921528376826,197.13556771664582 470.32928198502833,182.93301608796014 461.46946143039673,176.9135169071418 451.92956200994706,177.94876901731323 434.07125572110954,179.57730316660547 420.72867239003784,177.3802370729386 410.64732806976843,172.2064022488255 400.4887377977363,163.3063013138941 394.5548555030303,157.21776872018415 382.3900000716176,150.42234030998293 356.07068099858424,143.07200706794583 303.12971306452187,129.16843023058584 293.0868666718188,124.37799356876815 289.7303030394893,121.94564435122027 282.54778432697884,114.20297191116038 279.49706370816233,107.22499603232438 279.43612137256997,103.49049296498447 281.41890740005897,98.90868275070477 298.0752938182278,81.62593358065362 304.879831571914,69.49349901330265 306.3299335758286,59.10912180864739 305.66083531598,46.27853812425258 302.9910730600016,35.57101332475247 298.16695070235,21.15797069926009 289.28260431049864,13.445601934842784 283.30555588116147,3.625124461809264 277.0157073991727,0.0 267.0867133492839,0.17230224277375328 255.15055951992161,3.6955772283899933 244.476378479933,8.846578036947449 224.39480726009606,19.139458443220292 219.9485234490698,25.41983761174447 205.1986475168308,33.147474209165466 193.19279591165463,34.17881099763599 179.03628588635112,30.7138721381433 164.00757489621276,24.766754177151256 151.02512617733933,17.9671498895417 140.25071867710628,18.169717310264105 122.52394350777715,24.722738100368247 115.08139392827465,26.531291836410674 111.5835072212775,24.59336735087686 106.6592413924504,27.155124098876172 103.66084178773822,32.22565726779658 99.32286759585054,36.71633637814523 90.6786924525716,43.77830858752975 87.03189625024042,42.867992138563864 82.29673096102172,42.92862610275688 80.87372754593265,32.61978850635944 85.6059564964395,26.104936201830128 79.59770083443694,26.274358146450027 76.59335785019856,26.987227327673963 79.42701257861701,23.866853096280124 78.78196077484317,17.81392734576059 76.82281617550282,11.859642716381245 74.13022116098432,7.273162300368313 73.44244856584629,5.015606930924719 59.97716621017186,8.767229768263292 57.9576807324036,11.429351798659468 57.24659983814021,14.734064003592835 58.42040971552937,17.40497905643099 57.3048821003028,22.07772695425865 58.70509648175848,28.938574712809782 61.24994718504396,35.32003365533535 64.5486909237076,37.36738853225586 65.23807673773244,40.055304049632014 64.0979252886466,41.61957420601857 61.2005589714314,42.2936165354854 49.101599951385154,38.56754536196911 48.57247762075094,44.126457137846046 49.734868426065354,51.71829901878198 49.68519020909333,53.476015614500966 28.326587825016976,78.06658785104946 18.736626399240954,98.16440731777345 19.932580154514334,114.17170148830587 17.948444147535444,117.7691921663677 13.451711142845697,114.0597385324736 10.876002872316361,112.50208620789817 7.620020110773595,113.87199382467861 6.759455009278538,117.15424745742473 5.3959819472395,118.41531917001964 2.05434880060953,118.57496043327933 0.0,120.89021995579685 0.5052190109083347,122.88075212445142 4.966878721786346,123.87762029496764 6.535996809786616,125.74295989415793 7.681201635158334,128.73341653881653 16.784779056345528,133.00430190027714 16.10509594189361,135.64629213647163 13.268287026048275,137.53991907177226 12.23300520703225,142.10630020599092 14.78920167588874,145.11691992673013 14.797669805314628,147.01008895865334 17.687597537306285,150.6846125547827 20.356851632558985,152.18326887183218 23.71048854584849,152.10487645181684 25.445236631853327,149.1655494448488 27.114219747355527,149.29422786902603 29.83323393209434,152.3091811605468 40.07642702996447,160.0802240669717 41.506845764407494,166.13017543435956 40.7650778627125,174.96261438035413 39.3212057496799,178.09653485245303 36.472730940587326,180.38983414819006 38.474274245737746,182.68822957361579 48.0043105314588,185.66005558875884 60.117825534788786,194.03723327780403 82.66860518141492,207.49826312791458 83.03325948400003,210.27269232835442 81.25417410234141,212.53701481928942 74.79474978200872,217.54844011597038 71.71572770735567,222.80626734464954 78.30068564049465,233.19971069826045 80.56163043482479,232.30116077655646 83.67094772282924,226.17082553353987 84.01528991710148,223.69282527072585 83.54232953627397,219.46185458120908 87.61429789647964,216.61614583439757 92.58014822211878,212.22967952391127 97.56060596915066,210.85356608542452 101.33971742167844,211.6855919493628 104.67234559058423,211.14198694103084 109.06729782493967,209.06406232712686 111.6792096815022,203.60826817763348 112.4940290513547,206.6608428243909 115.56582124858207,212.22387626464672 119.69720238470258,213.01461157927383 122.13900650447233,212.14945789408068 127.83889317443851,211.39616989004412 129.9664488877926,216.3397670894983 133.58115605720508,230.77386455129783 127.48710444019721,238.33560186009652 112.74393209177595,247.74902116364512 109.63498845997752,258.98878984453245 111.10464699984726,271.3806755693886 121.1206229207878,294.37708928252107 117.3854450971482,315.99278079007206 117.31518488707617,333.80681731234245 119.72605626605593,349.9105557259278 112.91653348586684,384.42302132007046 102.84918788264653,400.3584243916167 95.8127043808082,422.86938131786235 97.25799429162532,433.19413567524714 102.38900703687358,461.67551680994006 112.52840421502445,476.9081828648259 117.07229870659059,484.96073666239374 120.36721823150476,488.5803749060807 124.5157695881268,492.1095469562532 130.63091597933715,505.015315133391 136.01889992335794,526.0374874519118 156.42357179673786,551.752512565985 158.58577106752256,556.6743066630431 164.38787965116606,577.7025924044488 159.25370304323397,591.0464509942735 151.99361653730452,600.7095109109349 146.45325508061774,614.4758588117331 144.36556453959818,634.3941739901063 147.79282489693912,661.6704595555142 146.38427085704916,674.5282599400365 142.21645965273592,694.4891590061784 128.11032492341175,715.0531102945251 112.63848483111572,730.2602410361637 95.09606335886899,745.5247556031775 81.12501814496012,753.6643973743543 68.52267642910081,767.6059162353088 65.21751036569982,789.6161746054217 66.92232275276254,812.3618536282602 75.4958902678742,825.8572933116992 86.49222685607566,835.976985966567 102.78976217892166,862.5634305925018 106.42903665342533,878.6399291083491 109.29238237643395,897.2239848148781 116.77052915094828,918.6113157635157 132.38143905581254,931.9839050058539 138.45371461343433,933.0547873145973 142.77733110629896,940.4517828700114 141.5857315935608,944.586091166668 138.99857046115054,950.1304135911731 128.6386142334847,954.3333620019317 131.26699511934643,961.2542293173503 136.43455471710527,965.7675665211917 135.31941993033746,966.5181606520244 129.1744177414227,966.0526784412205 130.2338596408134,967.0685159497692 136.90657787013726,978.7919976434534 142.09712240322884,977.9857552465371 152.9045583749291,975.3377001347166 147.3150052005942,986.6449797978537 139.3108493982253,996.0789261396085 139.69996325523346,1002.5591081831146 149.02769474434774,1001.6605626142331 157.86123361781776,995.480660959809 162.5348285829675,989.2892532565378 171.52030844254162,987.9066488143817 176.97710193064623,997.9702721722989 172.96773434114564,1007.0703503390027 171.70514626278623,1007.5099342847933 171.86595932558052,1013.6150030027842 172.5304663006814,1015.196497701409 175.91105881840423,1016.3576268655269 186.49658629885312,1014.5851033105894 190.94503890163142,1014.4261030183904 198.01856490949854,1015.3567791724467 200.75816707754365,1019.3598229267766 208.32930650849005,1022.8249196112042 216.1252060427774,1024.0 221.0538411448713,1023.0196615188873 230.89630023783698,1017.0670565947519" /><circle cx="337.1472148837535" cy="528.6754758049883" fill="rgb(100%,100%,100%)" r="16" stroke="grey" stroke-width="8" /></svg>