<?xml version="1.0" encoding="utf-8" ?>
<svg baseProfile="full" height="1024" version="1.1" width="1024" xmlns="http://www.w3.org/2000/svg" xmlns:ev="http://www.w3.org/2001/xml-events" xmlns:xlink="http://www.w3.org/1999/xlink"><defs /><polygon fill="black" points="1018.8605221706546,177.81387973416645 1016.4549461797055,173.99650895393836 1015.4527093078394,170.78148813524638 1016.316420676024,166.5266272259678 1017.23232503122,165.17635773746724 1020.2773288800694,162.72078161739148 1022.1925133617722,160.8157227366096 1024.0,158.3071658601492 1023.9993326601374,156.59880946952933 1022.1514450273775,153.02052642864828 1022.0197777576269,147.40335250642352 1022.464015892517,144.31070671827752 1021.8407786615243,141.24984688216648 1019.5495147188251,135.54335444920093 1019.0909275036839,131.90029855848286 1017.4971723176884,126.48445122575299 1015.9850792869563,124.90129480452754 1014.1663558916457,123.98578894624961 1011.5350533549577,123.86802218962077 1008.3380447194928,125.1408393373747 1004.9390627715262,125.99127299831127 1002.5318278368186,125.30175132906254 998.3035856758139,122.08368642639778 995.9163622510814,120.54546789514859 994.6385705106734,119.31236991361754 993.7993713151942,117.35243287741991 993.7881146047276,115.70145382515295 995.0193655376294,110.80818474441537 994.9488785456368,109.09121808400778 993.5214116258225,106.51647279550627 992.2558447341562,105.14749579703084 990.384617289571,102.23466588179167 987.4034685111463,99.47101436580067 983.5332386876082,96.8870257598229 982.6842046545352,96.65013815434327 981.2064605649412,97.51389615922858 978.0950315064907,103.26704415188044 976.5356445868359,104.59370158632089 972.0176381776755,105.60807947839169 970.5758579970048,105.35821506788466 967.3682325440653,106.6203073757863 965.7398421451599,107.87250818831205 962.6553460345723,109.47423226513968 960.2293566935151,109.18468553635137 956.1282960772418,107.45128321789116 951.2610860939491,107.06295185766771 949.6076061358706,107.26340834541122 946.0538312988765,104.9508772442797 943.4135126670665,105.18414544743348 939.0966271719817,106.21118554063378 938.2108547697571,106.64675410243228 934.3662595709899,107.22696500289703 932.4629809283117,108.60012741424771 929.6203818421217,112.6685263143263 928.7474458376629,114.68360938069361 927.4366371602622,116.48049065863188 926.7057373547839,116.38212641083089 924.1929244352872,114.64650518361873 921.4341260655358,112.30269300214218 917.3588975593847,108.25998793367205 913.9982987820081,105.886390838995 911.4051431501018,104.61223011992593 908.077101788416,103.36975944347455 903.7906212260569,103.0890580982574 900.8993090295859,104.56569010070837 898.5679595553986,106.99380078331444 897.9179488267515,108.4857479806235 895.5641019661566,110.98593431572817 894.1735394392548,111.12734664039726 891.2767285456049,110.7681760712237 887.3402455980796,111.7540015110211 884.0862720917501,114.08771740638701 879.9149157589025,114.00963289148933 872.6655082296295,113.1657748743653 871.0294289720707,112.64441398465408 867.3863379320836,112.7311218621553 865.6749911169298,112.400479313515 863.0848845080426,112.64108074983551 861.8046101320981,113.19434671293573 860.6332152898761,114.61669205806163 859.5485170520382,117.01140294672189 857.7281967191991,119.85282652478054 854.877124304327,121.67423007616128 851.6261019543907,125.85989616295717 850.0397730816695,129.3726865134695 848.7129956985473,133.0118865058604 845.4062093704046,136.53842692872456 842.872817389729,137.30953369187068 839.4406112748197,137.00027183608586 834.9124459226327,135.8525120097729 833.8172431232429,135.02336281724433 831.4967400075019,134.8846417802522 828.8189087362647,135.7810204418878 825.9728715463892,137.4011029888237 820.8138770698481,133.72763581201468 816.9666286944137,132.34003730453264 814.780634816853,130.48068751406652 814.2324687714712,129.07899143024565 810.7661408131241,124.14038030749475 804.4180722058314,118.63969281883783 802.7703344060991,116.99438849866908 800.7434962089669,115.9970842293344 796.7060357573769,116.19137465651693 795.6560381724323,115.95709599678833 789.7780774457154,112.18292237932587 787.9149104709281,110.7326310192501 780.7524789020162,107.64055121324509 779.0429068554156,105.67250759096282 776.4972729320875,101.01331114969423 775.0981599381087,97.53016573149796 771.8894694091538,93.24729762288291 767.6884379900054,88.87426075883661 765.1092830210488,87.12477480274015 763.6729525160863,86.679474920095 758.5314015472749,86.42734556600601 755.8575312654127,87.18347287884467 754.1602987923569,88.64773580804774 752.0683580068675,91.80822956287727 751.1135582793022,92.56932901912649 748.9791989194686,93.0749975220399 747.3508801370306,94.59632646570856 746.7053421912049,95.83034900610039 746.8193377408674,99.99496657766849 745.6769318800333,100.61388158149828 744.2338524229923,100.4242914722538 741.619630378624,101.5843087687607 739.0159301032245,104.26637931545167 737.5374649816653,105.06227087009631 735.4982651971648,104.98518968094811 733.1073599372205,103.31132825076986 731.6714941338079,103.25790208932597 729.8423008067857,104.3814898864133 728.8458152784602,106.32050479298744 729.1040763018581,108.37981398889838 730.1978102495179,111.19002015462263 730.179498758109,113.4428980119319 729.678519504505,116.46089448950966 728.628153137833,118.20583178836 724.8273290789401,122.81449446894408 722.3150028528833,124.62518323894221 718.7754092978564,126.15290237976956 717.8893535804287,126.9639986087434 713.9896657913697,129.13177142188601 710.4069864222356,131.50846456782483 708.9292471729234,134.16511802680816 709.1935656229778,137.9334432001482 710.1717912880421,139.75549397941847 710.1372241243733,141.0780056160919 707.4156447568287,143.21291734470321 705.4960767671214,145.05492977147492 701.6231527959734,146.95187879675416 699.5682484392732,147.06645093897794 696.4981684391646,146.359347793727 695.1497615155554,145.1931838736341 694.2614754946611,142.64297152109827 693.317878829072,141.4147266987669 691.6288103754305,136.79884327280035 690.4524019026665,134.84329507861855 687.3596878507524,132.74030975936466 685.1230904653763,132.4644070320386 682.5277354716419,131.69898721027675 679.8130571676214,130.14342817715203 675.5967027366154,126.4145876798251 673.9073803025078,125.62330627223844 671.8828416882766,126.86080178148723 670.3856238001226,128.32917518981105 667.9408441739777,132.13084931973856 666.7756134844072,133.20645413709553 665.7848693838669,135.28130357382486 665.0827530891016,138.2303581577213 662.3355057877357,145.05622779756607 660.328673209875,147.4894099165748 658.5836102007693,148.41336257286582 655.9451190168243,148.51963298261876 654.3094569943473,147.98680087382854 652.1112539224164,148.90664743115656 650.5766796483981,149.1068497883242 646.6626924863556,147.9753478055767 643.3856185360205,149.3634909373875 641.5988864242373,149.23488529987196 640.3798960279731,148.5283698028461 636.8545407881263,143.77333778133368 634.7882526503627,142.44283813027243 631.2916963550581,142.25196616749008 629.766733701898,142.46019652664017 626.3005784465875,141.54071709929656 623.1748417927756,140.29336017023525 621.0532023751629,138.76837482693645 616.6700222338216,133.78861320195074 610.2280447321427,131.32838618658297 608.352437082949,130.00247793041046 605.2955626263173,130.68113423588784 600.5946044586636,132.63049061536879 598.9094500111041,133.57242275949227 595.8659460707267,133.39266531435953 591.363708831529,129.87742405276958 588.7717991581233,130.51174997415694 586.3777240387261,132.33997312075394 584.7920781129794,134.01369764775188 583.6527050352794,136.331963460902 583.2409918752279,138.5108775169324 582.0803495308381,141.56822491545847 579.3254407835893,144.4526906970092 576.048137791884,145.45339581572796 573.2931199563301,144.64856093079652 572.2540194440819,142.15637240466208 571.2093362774559,141.72727528083283 569.9444809594809,142.35029167712844 568.797938055789,144.55745801210605 568.5212598625777,146.91545480701586 567.866961897079,148.02142343725723 566.2518464104803,148.96365456116257 562.0468677659528,150.011138523397 557.7974659534951,148.29003855812857 555.7823781253833,145.4499338227787 553.8064573912394,143.39786604579888 550.4870813452471,143.35460122973757 548.738745714504,144.3563582232564 547.4805681529497,145.8297842406771 546.2010632806516,148.42657861087093 542.7278059318321,151.02604875488998 540.1773984108594,151.93390185920498 537.7443906335342,153.31116577894056 537.5313467525085,155.54282223865425 539.5472071968554,158.31177421431494 541.4382053628914,159.43049002675582 543.5720487271384,162.33878550794032 543.996381296782,163.7387684681479 543.2463207268582,166.09287249266004 541.1572089020809,168.85991910704615 539.8601198088965,169.88331195954152 537.293399608663,173.16557622833352 535.9293969761866,175.88919269988753 536.2621666473374,177.68825133688324 538.2240498662096,180.26181447973488 538.3752271867794,181.71078521761012 537.2285115178576,182.40137001702328 536.3733574484604,183.83050242178456 536.8239321356798,186.0897971618117 538.5733879029457,187.27036348984802 541.2678464324463,187.74661023289661 542.0561026972873,189.8305856711503 542.262356686383,193.26358738874455 541.0819902660731,194.8118452009437 533.8552726003556,200.58330759632258 531.9476603739713,201.83895604277996 530.4327692782543,203.4424493339451 527.2420135631818,205.58554939257465 525.6727505072647,206.9866802558039 522.7456782217736,211.95503745401766 521.6308948833473,216.17066026305565 519.63150161068,220.7389795711639 515.2954408868139,225.6205978022631 513.2068352850114,227.21596276902778 507.9218164456251,226.79589551174183 506.5234878056053,227.08565618507782 497.1499400085835,228.07497994844869 495.11810577300537,227.28742085951353 494.09522599985957,226.4081664205379 486.72894618293503,216.22778044014672 481.52989533024765,211.32072580768124 475.8558061483231,208.64798889156327 473.07938158239824,206.78639221827552 472.701761784092,205.9090094733009 471.8660769883042,200.9321752467455 466.86666022962464,196.16608111167 464.7627804876108,193.65857474971278 462.1191903366574,191.39186585858158 460.5408268558382,188.8426516375897 457.12525092146393,183.98487358620957 450.7547060190803,176.86831581394438 448.9936598214037,174.03321471729646 447.69821328973444,171.08328815690038 445.22661073201533,167.7776861775369 443.6754689933197,166.73845226098706 441.67869213626454,166.18383052375373 439.35990533522585,167.34529203522084 437.19552423567364,165.62130122569647 434.33355666506947,165.73992155551662 433.5022860602875,164.88970345262248 431.6546899998178,160.17403903412503 428.8710155356226,158.63400009099007 427.5960430164458,155.71549409917714 426.44230567070593,154.55123276488473 421.5017008833705,154.4883733475524 418.49405734883555,152.35527504283823 417.5743996882074,150.39555715836843 416.6515934874774,149.59792991703773 413.5450851945171,148.78673411048328 412.25469421633466,146.7585177587497 411.20815862609857,147.79576730857832 405.40886319457866,155.86115077408635 401.44363215882794,160.3521546756706 400.77217658005526,160.59694315476315 394.4720020293596,159.86086855125222 389.3272633547005,159.9186950445095 386.60494348035945,161.43660302065382 385.95850405509674,160.15047866671568 385.85345690672386,157.9002863831007 381.9065561246195,152.76901707840625 377.7709312054636,148.26566283409352 375.31608343750264,146.8537607150779 371.01283105400955,145.00321763681018 367.7098822470765,144.37644988784825 367.05123914509363,142.8162744215623 368.39974519688343,138.3627154222088 368.4764656877162,137.12077323107314 366.4229607010616,135.75273237403383 358.9306478803232,135.23552369170284 353.9750501666536,130.28213353472142 350.2821958514175,124.47707479905398 336.7098519511692,105.77483585501955 335.5838080682652,103.69609764243432 334.1083106877069,98.1662251170851 333.6647373673091,95.83420272444755 331.72013106602327,90.88357502042322 329.8708362470042,84.74918532621234 327.83916173307904,82.37092493166074 325.3848529901476,78.6480165027732 321.6304932650427,74.36561692999533 317.9926597438422,72.58893210872975 316.40015786228514,71.01765736798063 314.7000088180235,68.32812632762591 313.12904936232474,64.04725968486355 309.6500969881627,57.647593739418085 306.9628878248478,51.01646941522063 305.39344999236545,46.02212728182144 304.3414644229172,41.88592550425619 303.24457948252433,38.886455219263894 301.39337617183713,35.25479204346141 296.4141541129702,30.006250345392232 290.0113009078416,21.611657212275645 289.59593521684536,20.40556328665332 289.80612134429884,16.114520732478468 288.92162090480053,14.445208373802984 286.376635560583,11.522832384252752 285.07615035036935,8.965921259150377 284.90474173783963,4.0157378024273385 284.147097044269,0.8196142724576703 283.3076246238673,0.0 278.7372522829382,0.5746283915526647 273.4708195844564,2.1863874566249706 270.05666154310586,3.4041454686803263 265.0087138547611,4.4288445097062095 263.19297252443874,5.287664535535555 258.12870756716416,8.507075339903622 256.6567940622982,8.982678522529 249.5255284142958,8.764381362062409 245.9279326772322,9.71259727697111 244.77486047799684,10.590298060580835 243.34974273497147,13.464724728785995 240.06635116227824,16.93887603139035 237.0244395279926,18.737336173572885 235.3098697728614,19.253685379572403 232.6664384676889,21.82616621026375 231.3825036762562,25.32124807695152 231.3025563500199,26.930260235722812 232.6580610647818,29.93059907667191 232.44468013129656,36.225620025406215 233.26543071773443,41.253818030016305 233.0010064378028,48.54230206089039 232.46623926688505,50.563270097377995 230.001986699558,52.1958636891718 230.992090374347,59.563364520162395 233.04180548977507,63.57195630600222 230.00578742310515,66.75921631935068 227.62537305335098,68.61831802575978 225.9681547569886,69.50576125000612 226.53575784873723,71.32749269783142 228.01470497002302,73.61939177809597 228.48855489164333,75.52594954816516 228.3246288998772,76.93266848269957 227.567546804308,77.69547445867886 226.16462943673392,77.8369738061316 222.37303173525163,80.09463769522188 219.73739725422274,83.66341489092656 217.15609121751424,87.75443540393792 212.900988626504,91.9783881692482 209.541022066694,95.54074388544075 206.24894535785057,97.8537834208089 207.11975891469294,99.63769001196408 206.97202807977405,100.82903992767297 204.37269307431416,101.2622381586823 207.03314384684003,103.73531519956896 207.4591834010393,106.54783464818297 206.51754419728147,110.31424307132329 208.3515933657797,112.52156736070629 209.4334372658585,113.32498195377582 209.7855016081237,114.94850759290375 211.11729680483117,115.82427127707115 211.58884834955938,117.83703369364434 211.44709204145926,120.45650738356551 212.58975454990156,123.86944358703238 213.94756823398532,125.84605703280829 214.23098351035682,128.07693149760894 215.55462216052615,129.89200452140722 217.72513302672593,131.611954227394 217.54763776428476,134.76015915794778 215.58464545311134,135.75933372825978 213.68335110060002,134.40781200018034 213.43191643211344,133.4292434447534 211.0985722354425,132.0574062675796 206.9261290223925,132.88311725923336 204.81035746120432,133.9327842524275 202.42355091993792,135.93791582074482 201.85197045877004,137.1565416536023 200.11643770926324,138.25022459896923 198.39588768644603,138.57438336177802 198.81888476554496,140.50489962956192 200.2107003335699,142.6836020846979 202.20704519368186,146.83071268595404 203.57351035361063,151.13489875149196 204.2402248965111,153.98139254353555 204.37433142541832,157.48439947597296 205.03205091587185,159.64029517543713 203.9160080348082,160.56159737241762 202.89276898845495,159.78308087728772 199.2563879797608,157.9043570225175 196.57409796774883,158.05443565268274 196.18986528715322,157.11903168090782 195.5048064650804,152.90743397878543 194.70535238812084,150.77245042870982 195.26256618897787,148.0596481264579 192.91906234531479,143.4687130400822 186.72750512404522,145.41884774669995 183.02842937600877,145.5773256695063 178.52622248252146,146.2797524980556 176.1309045277331,146.89537071302914 169.51326103884466,151.21509644821367 166.23532966849365,152.36511065341733 163.68654140998203,154.33209619030083 157.30014661142965,156.03441547992543 155.56845523953956,158.2923751437488 154.63330448620871,160.502591900565 154.44439688101258,163.95644901190553 156.58507137034084,167.28368285969304 156.5132687013723,174.08092114449107 155.75089804477702,177.19701423297658 154.5469821768735,178.9578266134297 153.2442491564261,180.0494309251617 151.68213909672744,185.52427722196967 151.7300268816786,187.22046218652838 154.66454259847208,188.70129097697247 154.76255591011576,189.42702600412997 154.045577853545,193.34685573266927 152.65665836322384,195.89725370558256 150.7760621881045,201.87813396679678 150.73620268306337,205.0884604926132 151.65712730679874,209.76039728353555 152.52947748987523,211.1926726656062 153.92228584801933,212.37689201804403 158.44099628274873,215.41827869006386 160.7176869735763,216.70162448098256 163.88111088804595,217.67669326330508 162.78640915908153,220.46152051921513 160.72735153301417,223.17694448776047 157.8293878792278,224.66782443704676 157.80650796682838,225.3989983314076 159.76699673871866,225.21097724285073 161.82820625700754,223.7169839375341 164.25775577404332,223.03791960191984 166.8455022149014,222.73314511541082 167.08672338252234,223.40675592470393 165.2781105428695,225.52748320826083 165.15980517192406,226.73705483983417 166.576891618453,226.17869647865018 167.53847019168145,224.76225205460366 172.29064978528393,223.5540142039846 172.50514049233115,225.08679094199306 176.65312803698524,222.90255807114545 179.35934209661224,222.07015615611556 180.6488878410138,222.07099318281485 182.20197888085087,222.97810282013324 184.8396753603127,225.30063419301905 187.79628188319896,226.11614047114165 191.43766040448165,226.29247633940986 198.46305257619935,223.59509853948066 199.79980470737726,223.37090699957866 201.70202585500653,223.75865096992595 203.84261761284506,225.20647800147287 206.29156831415318,227.80425258755247 209.86841987408533,232.37251784237026 212.1557830109724,233.65613013101472 214.25843406197808,236.7001336287666 214.79532409110786,238.91794635487543 217.0779641230405,240.36173543671282 217.79695984040077,242.8898579277768 219.52186029414716,243.7866188807078 224.1298832854576,247.63213677895646 226.7761633112223,250.3958133949751 230.06072012014351,256.00005786949896 230.90480602734613,253.77611854847794 232.05189454411322,253.17631133005136 234.15466480881082,253.28903318631933 236.36460918420548,251.8536026998579 237.56928987247164,251.65026972956787 240.59754036070964,254.46560353584005 248.42061909140142,262.303569488525 253.56957001777104,267.2894572595027 255.52306439392393,268.99586556354075 255.41093468693958,271.0413048960063 256.5633961145602,271.26900688859655 260.07276317784823,270.8524348304327 263.244044253047,271.6398120036571 264.93199480737434,274.79236133908944 264.7478099722955,275.8798815095413 263.30672329055886,277.2018056243463 263.97391093938523,279.15075521156155 265.33482804296335,280.1245342689633 266.13269304578154,279.4087601129196 268.8062297547373,279.9962180181403 270.07537160498015,282.02676741274763 270.00496030153,283.35088341276753 270.886653729203,284.8722417144089 272.6124073853293,285.80843630022173 274.52597474936766,287.8502578989883 276.7347057956453,291.1555880463144 279.32158381679835,296.98847769053015 281.78700801710704,301.80419822741385 282.28511932541903,304.6885967862698 282.34284220084515,307.4789680665531 283.1435272534312,310.01001048577234 281.81677028304915,311.5457062901147 278.75795041547474,314.3636416584829 274.4289588444667,319.2093837635167 269.6077149589105,328.3085660434567 268.7814224533781,329.2728582944541 266.09943193461845,330.94415310329344 264.0070148045474,331.77441784302835 257.733884747591,331.4879584060966 257.10642550495794,334.90983700852763 254.0785791458499,338.9989751601153 253.08437096751217,342.51478219110203 251.62314028242926,343.82103067824875 249.6772933084047,343.1433983418021 249.14734410545327,343.98726862241494 246.21755272214048,343.49674969147827 244.87152856270825,344.3077641206117 241.6982034783345,345.52267645007163 240.13875430475971,346.7219177519984 235.90263910874623,351.03132293354776 233.6488736564424,351.1958958261904 231.18496737787262,352.2866843216869 229.29119642960612,352.5429363388726 226.98881081721282,353.62239925212026 224.11458689925374,353.9444559112988 223.35169854591857,353.16625012194356 221.3542784857474,354.14179069670166 219.86151243317607,358.4548040709333 216.48224805533079,362.4215298918403 211.5357535049002,364.5059713825592 209.95205573453975,366.1542721183526 206.88425147818904,367.19372656145094 203.7298141128528,368.71409764438414 201.99312523015635,370.4060822875669 201.88442519749285,372.9838000588928 199.76277882605066,372.7339061801487 197.82835845227712,373.65559519678294 196.3523961457611,372.7502126642838 194.16076105473763,368.25820274344824 191.8694940577889,366.9732507696831 190.91932065101685,368.0301870633715 191.9556581410007,371.07032003135106 191.58288186606748,374.64533810529736 196.83975299320014,375.29087190082043 197.11484659028534,375.52442856215214 194.87741078714222,377.7561444664784 194.5564694870259,380.6413148881324 193.0712671317255,382.3328485260624 193.0577409056778,380.15306124406163 190.6247840301949,377.5847487280437 187.84030054843248,376.2764447698566 185.70210575133007,376.2416252371723 183.4717675938199,376.9288417486927 182.42750988705706,379.72009613589694 180.95222335342703,379.7795473250313 180.59478619753648,378.29671028655736 179.01032315624352,375.36762010059755 175.32119818653797,372.97705440787786 174.29238302623747,372.9775066731166 171.84353519190856,376.14303562491443 168.05647448131955,376.9109560578815 166.75742270162357,376.8383080980602 161.5629375351693,377.44108893962124 159.47418143692374,377.1106095067876 155.78086317843045,374.86349250047783 153.41710972908362,373.98522501208214 151.68016565814028,373.73019563469154 149.07574297060506,372.8119945107714 146.09182592845926,371.1026561843216 144.14218391280275,370.85701113934596 142.08674519409644,369.49749519849934 139.74940000680576,369.06993793394014 138.43810001590495,369.3590286218309 135.23127227833334,371.25333383380183 133.05779854653937,370.74303418644007 130.901348291997,372.29152515026044 126.68534401558702,376.3992398962725 123.80995172673407,376.40465370239133 120.03068296437034,377.21848348950317 118.51713947217401,379.4877307442058 116.55107653435236,380.06994779267865 113.29739702321731,377.3444965723552 112.27043748143304,377.59376939257453 110.90845663754418,379.4809776045966 107.05600056972699,381.66814197825477 104.84105625362389,384.70354074099725 104.77320819205836,385.88468933242376 106.1375002285426,387.4158851398614 107.59035501270557,390.3178551043404 107.6990861519189,391.6408019837679 104.5834367127715,396.0561647715782 100.67310035175338,395.8839864696343 94.8436933536855,396.72100438701136 91.55177132405615,398.0492533789336 89.8960632735792,400.2744256651859 89.95582922730672,403.81586123651596 88.64358763265035,406.03576480738553 91.55679170047324,409.6446671484024 100.62718680572321,416.7720217850848 102.92433128590883,420.43492713978355 103.3025171242641,424.13181220198766 102.67656474245642,427.6214938707146 101.77510479537446,428.67932306193654 97.90176389501113,431.1566173100053 96.00585760795937,433.6236735005104 94.57492120055475,437.69162387861127 92.32636886285617,439.1985202607709 89.2894984363941,442.9661751963781 87.90362882850091,443.6783837467609 84.67520881460729,443.2700019509165 79.9698294321314,442.0099166015077 77.6087372818732,442.6194092488648 76.06656491615217,443.78597341930833 73.10638403095145,448.9237211140193 71.45812581098384,449.3064383990277 68.09042495484809,447.5805015398714 62.76627495937536,447.65988545606814 59.74744510040753,448.296478992657 56.77406390614504,450.6488482917248 56.07131693541302,454.6427907794378 56.10566714455476,458.2758817564751 57.008529482619096,461.93560310760677 58.8795691179946,465.95644270980324 61.395318582975115,468.1391279174076 62.983125896434686,469.9688697669363 57.75862329814289,470.06747585823774 54.415656236365166,467.8593825567447 52.92026755655597,465.66994501587175 50.52185897753855,464.2562171217273 46.2232402344603,465.08467367890523 43.47208879584336,464.60152246973803 41.91443451460991,463.7144789602054 40.286198522478735,463.4924402994984 38.234298833263615,464.4735926937743 33.45919188952207,467.55713385757315 35.342272201683535,469.927921491099 36.113007490845824,472.96481791602463 38.39405752989575,478.67444066360065 40.051723115222295,480.8381322213567 42.92489475545974,483.51530917761966 45.457103556913346,485.19090675709526 47.86835175777508,486.2183564469086 49.87220697600163,488.0062004763333 51.218132886276976,489.82950698468414 53.49870937568574,494.2998906023935 54.90481976070796,496.4633182147353 60.473843068612375,497.9538565365091 63.82910569621684,499.5028219835752 63.9680717398995,500.8279561661987 66.57936814771725,502.5782165456928 67.3488637528922,502.53807778666487 67.87570295427165,504.70560640732833 66.02106213682744,509.00460958095186 51.2550413262988,524.0158552866721 49.57305151526124,525.1061402434709 46.604252283688844,523.8023835952852 43.43611304513299,522.0811514553518 43.20611487178765,521.050907825094 43.40963243663848,517.529332911993 43.15023911598373,514.2826907428164 41.32644637623337,512.8549769664412 36.84684006136079,511.71137651646353 31.32598829148362,512.8072855218959 29.049102313211225,514.7797766410813 28.63149886940107,517.1030421797634 30.53257209800827,519.8622967624851 33.13560274531223,524.385051792254 32.53138918900087,525.8964869539625 30.764352633554502,526.1617657317723 27.177025020990147,524.9183643976558 24.34433338448273,525.6329535922963 23.864957779856677,526.4152667517161 23.668409760550585,528.7537322021102 23.640770870402452,537.1322346157202 23.21414321353271,538.141377717508 21.810060553189608,538.4182296697132 21.278561954985637,537.362038465269 19.5300795001997,532.0364668271882 17.49213565228751,531.6243380602873 15.944800707205225,531.9761418193973 13.494937078781422,533.6703231535184 12.486227145226099,536.1026124293514 12.93196906871089,537.3096372039461 18.39091470611424,541.9665913862015 18.89174581667222,541.8049554481879 23.3748890575812,543.488443935875 25.913997454618652,545.3273645817236 35.32013859056515,550.1426356257637 41.6305675993254,552.5685273379402 46.755664214920216,555.3682527394037 51.653102429225775,559.626600685888 54.751035596011185,562.0136288482763 57.628201645630064,562.7668854202624 61.32443845391367,562.2473845610116 64.53352685649371,562.7281783954109 68.130370519254,566.6060222832598 71.00017769228063,570.4525567428327 74.13211406804268,572.1000228183534 82.14585055900747,573.14347514661 83.44780623366717,573.5148199720829 85.76573870990494,575.667203868438 86.03962033575415,576.91801250138 85.95187236325152,580.6624822580887 88.48870941059336,586.4407847420216 89.3337723119428,590.7399333791195 87.41395542265036,594.540861436001 85.02726456268854,598.0765163410023 82.40962542403156,600.2749456494375 77.67988292194714,603.3900730767774 77.63941404738327,606.9120927686143 77.20137246439411,612.4371535577724 73.54568273159396,618.3521498471634 70.93129938024406,624.2527297706431 70.3121955505294,626.8940688184518 70.30921099391122,631.7806666710793 69.67817507600941,636.042443332186 68.92282206059951,639.1227638314261 67.36012080802121,648.2278509018313 66.4011507208906,650.6967914945828 58.7979452110838,654.7061404988397 51.425820015759676,656.8590955699148 49.24096499203769,658.4115231077624 47.15010281664811,659.2719295889101 45.48732631236062,659.38862861035 44.74243400577748,663.0752866968829 44.81562726817745,666.812273321622 45.48000650679784,667.229430691368 47.05564263479117,673.6602811253562 48.398161637190455,677.5669684917505 50.099332687524374,685.1815609451141 48.9720834950494,688.4854947920934 46.57135756189607,690.1361231129774 42.079136531938026,691.0654715479736 39.15551695208753,692.9255538951372 39.660054696352795,695.822011132798 42.906174538019975,699.3865495278359 43.484746256270796,703.4640191703459 42.76846344130591,704.6683756520797 40.7700156683921,703.8704528803252 38.73151445160294,700.8027128410308 36.19380773398936,698.8180228412203 34.98573085806252,698.3026518365814 32.21218624827198,697.9889056301035 31.444946467297783,696.9877011444962 30.71452033907081,690.7025305214819 30.25665939845826,689.8405054942111 28.610865321956958,689.1020830503842 26.514957984377226,688.8017685156516 23.8489690213229,689.2647176151248 18.90267415030207,690.744257621963 14.791376555888982,691.1363453808773 10.531294935196096,692.3789692163318 9.914671658967155,694.5538126769235 10.386064624572777,697.8130938957697 8.662985830224638,698.524228960052 7.5811366138515455,698.1672998178536 6.482302691595111,696.7753858216136 5.596214918185714,694.4470890313951 3.775597578554066,694.0824731887938 2.475542730451752,695.169656212008 2.442168895675918,696.8472211522193 0.0,700.6983658840838 1.2077599176480356,700.9151195327249 2.671562367077491,698.2099987060349 4.231174857090356,697.8573534958578 5.246859741747842,699.318192164338 5.662963743511602,702.4221767316938 2.851175744593592,705.4948937087357 3.936202649961017,708.5731094047824 5.901852548390829,710.0806920603561 11.914869840474575,713.857654877199 12.355847007464817,715.27567753113 11.786376026616338,722.8931242753695 11.750141325292576,730.3499077488556 12.912778305473529,733.2122576495713 13.987211918156891,734.457797268754 17.35477303762779,736.4707138681404 21.619768207778517,739.5616614676651 23.093811797400022,741.2805158165268 25.505173923874853,746.5966071841927 26.368684909194208,747.7786752193031 28.656213170004456,747.8032911828909 31.783748859606856,745.6346612135803 36.18908910020159,744.3459832078411 40.16057322400952,745.2390714770462 42.04505415871243,747.0999871813707 45.360104830161006,743.1522067571979 47.54846786462422,740.2352464403233 49.369613838404504,738.3721307302312 52.1833539385481,736.7990925877725 57.18933124644141,736.34371110054 60.422358039028815,736.2360245663773 64.27700305230462,737.6013115188051 73.00629409727254,741.7362004987089 77.95278146224432,742.1980176366693 82.88661137278393,740.4889513448926 84.81238005282258,739.4516767495102 85.97101224235715,738.0116292044938 86.12555788326581,736.32877143585 85.31274470584786,733.5188405725128 86.21382949054185,732.5463081626683 90.10051133511855,731.9180382729331 94.02002990731097,729.6110417819023 99.83214201138631,726.9926348835506 101.59298585886333,725.0622297514648 102.21894608424748,723.160943888349 102.03292616736843,721.3473787451201 98.84974360627596,716.0103207716728 95.21816609175009,714.3149887824679 91.3986375069983,713.8003276542569 90.29932789470104,713.0154528879574 89.34443878119518,710.5554677758894 90.13794908244786,709.4514074108838 92.85363527858125,710.3274416834469 93.77770776402737,709.9039257415988 94.53988712969301,708.1928044690463 97.38266061547841,705.6442050658289 100.30514078643021,705.0824150023464 101.70173827999794,705.7310476095006 103.89650077782431,705.4684430136714 105.27030362364002,704.5752289141542 107.15485077961674,700.9471086140522 108.56823391411362,697.1749521637478 110.00617787947142,695.2032108968109 112.50690744096661,693.5382303157337 116.16436224871339,692.772747683271 118.80083366438495,692.9195935780513 121.0331407710713,694.0061285364773 124.05170709175779,693.9223277032451 126.2775355116761,692.9665042142374 129.07837966751273,690.1088329758519 131.86107501535184,688.8158276007126 135.0226943106771,687.9939391795621 138.91731848335488,685.7679221567321 143.4164049821369,682.2687959421276 148.14192155794586,679.3167345809966 149.13389720458727,678.9768517985099 156.805489271701,673.3335426408207 159.40339673271671,670.7760102779896 160.50417776136703,667.2200148396877 160.3070797563725,663.1172910553871 161.31642806331536,661.5346583239977 164.4080404490665,660.3554890344067 166.21866996276412,660.677841132548 168.00978650553571,662.9826543744334 170.09413596309028,666.5961777030351 172.31170905767624,668.1556210796693 174.07256209031024,670.1373252884617 178.0219111777018,673.2837913893266 180.22836709571789,675.5687472192791 183.4552826915901,676.902563031899 186.14302546395325,678.3560051411888 188.57730448448538,679.1321541885766 191.22491290381848,678.9301579596122 193.72519971348257,679.1922403114955 197.12467455054866,681.1830344503892 200.42788818986287,684.3642841621294 206.61634304330647,687.8119354990001 207.90498000864133,689.3596481825083 209.58700380210573,693.2900956994425 211.48135797924851,700.2129649770386 213.75154490053828,701.4440387341543 218.31980545745088,701.2913697196813 225.52529334267328,701.2584876651999 226.81822513782885,702.6779337032402 227.92946728109536,705.4134710193285 231.82420514273463,711.1864485957591 233.24056882166576,712.5437172617583 238.4350824216755,713.7894188558568 240.10481475095807,715.4854497750358 239.97056182823619,718.2492102919236 239.07755773482856,722.3937136517259 238.72524431957817,725.683017960175 238.7869816546896,729.0505387806481 239.52776764178853,733.6965155802336 241.11486702843024,738.8191464229621 241.93251017898763,748.3508042140511 243.64992366095592,761.3327086639375 243.94514737149052,762.2856765603711 245.88943377494286,763.9747253784292 249.18569150947258,765.4779143626768 252.39058457508574,765.9441167965086 254.35480777347038,767.6659027420433 263.64754372284176,783.0219037426714 268.4661633512252,788.8735182040126 271.835726509358,791.7018862067084 279.3270104271697,794.1765750050924 281.3827852871939,796.9415048920716 283.92544373406264,801.3446338614821 286.2942131963065,804.1521479199818 289.07611852882246,804.6046412286714 291.32043775504155,804.03367430971 292.73495021633414,802.43645525695 293.48709851077854,798.9211855024815 292.93418326212776,797.3791487209908 290.80250688984177,794.4668143021896 290.7314302598226,791.7190342604441 293.2420508962611,790.0410109536722 294.55245814226237,789.8949264049271 298.46565197552826,787.6844655279601 300.461978635062,785.2248358802055 303.7513449863255,783.8764748711569 305.35883683066925,781.5415445621461 305.81366123010054,779.8675655148314 310.6823008229415,781.277508030686 315.648789691824,783.9018920137256 318.3769868306521,784.7560409918661 325.9467962780576,783.8632337750107 327.83878276907467,784.281902313044 331.6931218390543,786.4680044978527 333.99754370064136,789.7479937000685 333.0732949132709,793.3218753667358 332.81734583884315,797.9492440920008 334.31917223363536,799.9467544362132 337.74826889771725,801.466998436304 342.42496665369225,801.8772841843845 345.6486096223996,801.7686824574148 358.3507074741357,796.3953333000976 373.8256921187966,791.3506496322887 374.8950710938951,790.4454038083126 374.5474170798833,788.0777257681716 372.37534068269,787.2329425427029 371.9246331292481,785.6378064472477 374.1757934036924,783.0377494248797 379.26326060328,778.624038519576 381.2342876485314,776.2824184400863 383.08117142161507,775.0681698325482 387.5815298924234,774.1801977978085 387.710061274475,772.8602005919452 386.67448294618634,771.9027544881045 383.8875190616502,770.2408466920139 382.2431317093929,768.2815313985658 378.0541859699127,755.1196556359555 373.6963524359516,751.7908994593274 371.8152415442005,751.3894607989216 369.88244401839074,751.7216324556749 366.5971709629894,752.9980834153735 363.0349058207242,753.6790399463242 358.4012354250666,752.5366892969188 354.85848056715395,750.423940571087 352.0580190981557,745.7843495126496 351.93247955725144,742.0761373793547 352.6391867935983,737.6026261966373 353.3061020283609,732.014279227961 353.8913741683766,729.2799034169911 354.94508773358035,726.1078379826502 357.1880935818004,722.7116513343294 361.1791515215531,719.4144043820439 364.4295778539328,719.0073714829956 366.4242314296004,720.000848933371 376.777004919365,729.1169493010705 381.8855934923997,732.3460364902978 388.2659520206817,733.5847605291781 396.26817621232806,732.2728329506316 398.73950334151755,730.0606842012423 398.27321054740844,727.9735994876551 396.6322810154797,725.5310112847473 383.08024564738304,712.9127284230304 381.8359529600369,710.7962819644524 379.5001213530787,704.0668882252141 380.2354014322533,700.6512454638115 380.5451506846185,696.5632612865516 381.29489308869324,693.019931661597 383.5172610477517,688.1963389977575 386.24481794963685,684.7662959651492 389.20580371058406,682.4069188678118 390.6447029673005,680.1989146951273 392.99580057775165,672.9923170243815 396.4892748347331,665.7549043863684 398.8993231235877,661.3969318183961 401.9184626470021,654.4851311979629 402.29221470734944,652.3758442774139 402.5181147269286,648.367406829385 403.5694222202343,646.5913687479908 405.94570422526084,644.8450650315199 412.2228393525286,644.194270375401 413.93369214071043,643.0658764138494 414.7630758813878,640.5587074447366 417.1114153708902,637.6342900214912 418.4731016446261,633.1111638471535 419.3249215522187,628.3877379817586 420.32408284924736,625.240273874816 421.7930944396963,622.3081084814587 424.4178855413086,618.8605899121717 426.74562016241043,616.6382373341945 431.8056116834033,613.5573679292685 435.9849649008555,614.1118852008574 437.37424567820796,613.2475889129948 440.91890830995055,613.0015532038253 444.40416769782337,613.7773212871195 448.54918603448,615.900955945526 452.59364244955873,617.2957269599551 459.67390454908286,625.4167095840487 463.384397514771,626.4716153658437 467.31764426232303,627.8799631392493 471.30285578834093,629.618487928297 474.30805947101237,631.3387332521794 476.5050191031633,632.2874265809993 482.28160241006884,632.5280068831156 485.14390645361345,630.9955791028078 489.256025625911,622.3583423264299 490.76412347893216,621.1747390860287 491.76724336502235,621.4610725001795 493.2579403846451,623.1052668103216 494.40007536736067,623.1057905753909 498.3997428598092,620.6618206251142 502.1745775958011,619.4277445683083 507.15074627091843,620.0407032051511 508.2383734197574,622.0139451003746 508.0824474859966,623.6285987696955 508.53316682325783,630.7572922406376 509.303777338216,632.1171036788132 511.03134727745635,632.9055614758961 513.3829354620945,630.8263832915767 515.4274239007143,627.4417049925025 521.081635734675,622.8673430828387 522.2001085181546,621.1810571062972 525.8297915231127,619.2983060033421 527.821533605989,619.2883266519245 535.4182712173579,622.0107286594266 537.128279145936,622.322879866191 544.9544521597462,621.8118721477261 550.4317744748632,622.226443110045 553.7136447248625,620.8652672862024 555.1498851946992,619.7204179524126 556.3169911499733,618.0351528563338 556.9029049964439,616.1979404127462 557.7918681676281,615.1016642405361 558.9238954522291,615.0689269147422 560.7900142180362,616.7061243486876 566.965748018036,617.8080495903755 569.5488878866273,620.1914085719013 571.1754023591908,620.9680665107535 572.9617518896392,621.08092955214 574.4238198304438,620.4673132844725 578.6813897261313,615.4982558539666 579.9330236405659,613.2923567570192 581.2377347261692,611.7478793468965 582.5671595963951,611.1871343431355 584.7193092618194,612.3088944353103 586.1571348470526,614.8617885227129 587.6100195204775,619.4608234124152 588.5894181588737,621.7359670797076 590.9152097713022,625.8345241951108 592.1879403623623,627.3917258641901 594.7627089433965,629.3795621467857 597.8958688974885,632.7830187676836 599.0760659980897,635.5226245999097 596.4125939195198,642.5104919956909 596.6948880960035,644.041100201457 597.9461247850613,646.782605188774 598.4991984934511,649.9092633684975 598.3779628804793,651.4209949678042 597.5088308706753,654.4369326547294 597.5841011459247,656.1558378278396 598.1959342337112,657.8244724423914 600.2996977550044,660.4675571516409 602.1119687105794,661.5163081212486 605.0506082346792,662.3919916484858 611.3194082515554,666.5488283269053 614.2445880989274,666.0462366315028 615.6079726333007,666.4862905311657 617.058913434307,668.9754971146954 618.0911749045184,671.9773942742847 618.9023232369748,675.6991503398217 618.5261707897969,676.9468153548008 617.0752511372723,679.0197768194557 615.1715943238581,678.7604057485624 613.7738031394106,679.6094012156314 612.5013500828942,682.1958811550071 611.7527433721702,682.9501873077725 608.4248852851717,683.0070534355433 603.6407935040442,683.8061388899265 603.6482972215078,686.9274050034542 604.3802497525066,689.058388972382 607.2523182738877,691.7240257131697 609.5843910493967,693.3817856194887 614.3533261260758,697.3633487562331 618.9300124103564,700.6126789513179 625.2779048781255,704.5709013860385 628.3460669687375,705.5957658346452 630.9185198847463,707.396646808992 632.7451469106163,708.3159245361248 634.8957621915126,708.8410352376848 637.9943204691807,708.6803245544533 642.6328133210337,707.7050499901579 645.7954760797331,707.8042466863379 649.7726699733679,709.2561398061507 656.5748625959415,710.6029255059107 659.7239884974528,708.9188031126255 661.4593205807845,708.3191557845654 665.2109343607955,708.3685364827053 672.4100457670015,709.9992413267003 675.9769027895248,711.6967406894407 679.6173348824461,712.8803002870776 680.3983959508998,713.5616325701392 681.5582503799288,716.4460094789645 684.0364366672499,719.5663905553808 685.8327304135078,720.8796453448095 689.0844888238067,724.2217861526881 692.9655738151644,726.72513489437 700.5023925968133,732.1928162868076 705.0895133794166,735.1822257696161 710.9242346659084,738.4133452375831 715.2205299495009,742.1124166062842 719.0240768863937,744.8792218163301 721.8972509022972,743.7180902820998 723.5787565788131,742.4469167047018 724.6110534815408,740.8349961584254 725.1481237562683,738.8008959406689 727.5021317468588,734.9729444076347 730.2654065880812,730.9061710212767 732.9992085252533,723.2575847752114 734.1915078195237,720.9251562843897 737.0782709834398,717.176346188104 739.709892810466,715.0822904589287 744.3076972077777,713.6425032784994 749.2895412403687,712.6067902096913 752.827447599745,713.1080065965407 754.5840779198072,714.0233422170365 759.3669841874516,717.2806578107965 761.578991586512,718.207330863296 765.1043768951797,721.609223727736 768.1530747163273,725.468552822614 770.1184116694142,728.5738306270686 771.6560750909251,731.7894802339548 773.9039703756257,734.0953529555602 775.4039725803749,734.8031434985012 777.1810792479073,734.9202572460226 781.3257085271653,735.838235747168 784.7132664808145,735.0840393810937 789.8324687323935,731.7921899670978 791.9177977090815,730.9326964700977 796.8486483306916,729.4908749247722 801.5042446680895,728.565758174219 803.2991908993832,727.9572709383224 809.1417975611159,724.4402345577305 812.8087876377484,720.926930106579 822.0186820199082,714.4848878090974 827.291254819984,709.7936001378253 831.6924914121379,703.9513772821928 836.9493758387345,697.365128685128 841.2024002115811,690.9317983220233 843.9803515012792,685.2283079839626 848.082664995295,679.5247645758712 851.0733920242092,676.2684367910076 853.4851234572951,674.3614692890218 854.4517692380058,672.869200229161 857.1105575038456,670.7662986009561 859.6114213741253,670.5767277971981 863.2905139848967,671.8668528967037 867.0492718718938,674.0216325700254 869.3743669497451,675.6813347880986 871.6607763506626,676.8647821776407 875.286586281383,677.4356696408022 878.6537704855676,675.2847554465226 880.3498193098527,673.6898915725551 882.9577929230502,672.4468643748277 886.4065960903116,669.8385880885037 890.2915063063782,668.4322829031623 892.1462800772964,668.2195370845151 894.109282196334,668.5480525068608 901.7239278126598,672.2115710602818 907.8338213473302,675.4360821392481 909.4130227848013,675.7482353676834 910.0284992866369,674.9808058593409 910.1158823117705,672.1383159047826 911.3755364469491,665.5032859473897 913.7768999518254,662.2729010336236 916.981666736784,659.2703467872896 919.397793011999,657.5639973582611 921.4101331085237,656.6358705123132 923.0610031492671,656.490448085086 925.2241769612564,656.8877456791255 931.2069590741933,657.3441549165473 935.466486852407,658.0087548014956 942.2515594240787,658.2885169385911 946.7729117865457,658.9668910144989 948.747543969755,658.836748333912 950.5499769541917,658.2342196595642 954.2983130168674,655.6955533205886 953.1811986750627,653.3324462941221 952.9281706082731,651.6424381533459 953.5171798549613,649.3354319076632 959.4113600554672,640.5788680251662 963.3402105947797,635.0405220332277 964.4331550896799,632.3588250018506 964.5360619313375,629.679399519546 963.5104268072323,626.4407266369294 962.0611744544225,624.4736544898731 959.5793207596835,623.0303168760158 956.7346129415636,622.8264887563093 951.0112163836087,623.9092651810302 946.0737845925555,625.5327586315598 943.7048361250462,626.5809315985108 942.1654885355321,629.2911683478312 941.1999366827383,629.969756521871 929.1715273670343,627.5990919292981 926.3575377577181,626.5496680035328 925.1191164487612,625.5213780825138 922.8080466834084,622.0025670880706 911.0951812450545,615.7798611035896 902.0787725859104,610.8926724562482 899.2978467011053,608.4901670059594 897.38189825298,607.929763217991 894.7836143428941,606.3366761387842 892.399009059772,603.3955455230855 891.7347171126206,600.7944846691533 891.8507292086218,597.6480921932379 891.3274358456938,595.0423371482709 891.1092885265427,591.0919571410699 889.842620750307,587.8719189157177 888.584626809025,585.603746581871 886.1417628686941,583.0243791527712 885.8886771581978,581.3917660161196 887.9917515626796,577.9229558912289 888.3821898593405,576.7972649304113 888.0543578314177,575.3243539043825 886.3419268637967,575.12965956283 885.5028931238869,574.3607696180967 881.1085532051617,573.1438185339198 877.4008008140931,573.6251896747253 874.7866836257909,576.0663041793117 872.8724135747458,576.2771754861517 869.7947845078809,574.4802649283206 862.0844793267961,573.4230998258136 856.2198375043062,571.661727613593 853.3693600584131,570.4962467853748 849.1728166934082,568.2526113253152 846.3480998979558,566.0816236969773 843.8751746141411,563.1393437425138 842.3575676876832,560.3888602661415 841.7741124693538,558.2080829510928 840.0518910476145,556.378874732944 839.0467617021153,554.5753289386421 838.9846817338506,550.4911978340411 838.5591582762534,548.0985455638008 837.2263435642687,546.4553427372832 832.9784519665593,544.7092017081482 829.8760196444757,541.9436552779698 828.1252418396031,537.1833171105163 825.509220100337,533.1502524800383 822.9933761466698,528.3385788935382 818.7128870473937,522.6236459193245 813.0461073651524,513.428153108907 808.5945453008367,508.97976228301565 804.7221088209456,507.209358185021 802.9552288963466,506.83535167779354 798.9153508170634,506.9283049440402 797.4908173346734,505.3387334769091 796.3238145147567,507.224617502906 794.6076795393908,507.22206273443953 792.5249730285495,505.74630922582924 789.5485481291142,502.47608034969846 788.0560195731746,499.2118478361471 792.2289730501612,479.3143097305954 791.964240193651,474.96297669224447 786.9591980418526,462.93032311239097 786.5977196943186,458.4496066387502 784.7419161203941,455.19341186484996 782.4747176868734,453.08510402928806 778.5369842533642,452.01215335749197 771.7409758361281,444.6818869631321 770.6610210029762,443.9069752619854 766.5532428856178,441.9928077387473 766.7267801026774,440.6946848324598 768.598398378074,439.29421711186666 770.8270889108074,439.32641221446056 772.2741195390086,438.76771723030856 773.5941848985314,437.20093172653475 774.4264672275247,435.0103506673292 774.3298836682537,433.6569405666871 773.1682401547561,428.922823120266 772.8935175387476,425.8274439071167 773.4462429670693,422.7137694545682 775.3167987711222,420.9509308579479 777.4578179626883,421.2461536467335 781.3146493575824,424.27155186541063 784.1701454690344,427.0050695867986 787.3311294340778,428.46790912823235 789.310859663568,428.3400348008291 790.896179559779,427.47193947768005 791.5765467030171,426.1057794951204 791.0546169968843,422.7712397580591 791.2534574637729,420.4931155766623 793.0527511691965,418.3428772848528 795.1246822373347,416.9228089386041 797.7099295415493,416.007039602868 798.5823902600214,416.1892709698706 801.6501525386311,418.14774578269146 804.3369551411057,417.96578222682865 810.4964450511503,411.5991782252182 814.3646375040285,408.149311639374 815.9671200091619,408.18923781767546 820.7894272025296,411.3491019024463 821.6665173318005,412.17499394562697 824.0585296712144,415.739179677581 826.6218562950297,418.1112188118516 832.4662421583864,422.7909302602266 836.8817546955037,424.9097017843881 840.9356330433658,425.75037003824184 843.7830225416169,426.83342354695225 845.2071254080373,427.97827363311234 849.527817901825,432.7324644834597 854.1896256601142,435.9432020870627 856.2690206925994,438.36599848239644 857.2411730193002,438.62284380051887 858.2835173210389,437.65972892401425 864.043532463428,430.1926012256951 865.7753658298035,428.65101340632987 869.9352412700748,426.4049530020186 873.0126918513542,424.26850912680425 875.3351136574631,421.6798624097742 875.8822602751635,420.3261693338732 875.4604784314105,418.1852169505312 873.7991820233142,416.43975422842254 870.9219334032709,411.9882659598918 867.7986490979025,410.658085671279 867.7305887085539,408.4934181856948 865.2564576947863,406.9944244463376 862.9433455104904,405.06439633889704 859.7969433593398,404.28827490575736 857.4528715665706,403.2260256689624 856.0427973021991,401.92015547473505 852.3425741576001,399.8843019187349 846.7439109890424,395.4700951325003 845.5107447211589,394.77292074573376 843.7645324489752,391.6023912131083 843.4864390799319,390.2042561544981 840.9956814216617,385.7059263786152 837.9837789437642,384.80436079055403 836.734886490138,382.72346792536274 838.979778000699,381.2111774827768 846.5817430351333,379.55066286631916 847.5296697395879,379.13217920163777 849.4522070007037,377.21028318254065 851.2529617220622,374.8827467461317 853.2976806092298,373.3018103142271 855.6991539739643,372.79785646650754 857.8718646151555,373.00463348757813 860.2949389935765,372.0188966437799 863.6669330974917,370.16460737575756 865.6385010937496,368.7097158913844 868.5292448958025,365.9113925811682 870.250398780692,363.92079819736466 870.9939570277564,361.56022250112795 871.6574972167805,357.88834364654264 871.9000579780743,351.2967780363058 871.3513174202568,349.8286695646342 869.2644973047765,346.9732269536916 867.7070110845349,344.29219425231764 860.83839575509,340.41152015209553 857.9398021512382,339.8662058664265 855.1004920168701,338.1098052261157 853.1844581989471,336.12571430871157 852.1323971442455,332.2120727819774 852.5891375346047,328.78434545064187 853.2326509833732,327.2254853607623 855.5614575405,325.122055559987 859.0305342903357,324.580931055519 861.2725950425498,326.44372679233135 864.0308390288561,326.9290126842425 866.0883747305322,326.86639308819764 869.0233655021743,326.3118537865781 871.167661587658,325.5925464215878 873.5315757446209,324.08487891529006 878.1951744769179,319.6269776702013 879.9783512653652,318.3611172874036 882.1115729652465,317.64249192287457 884.1510458992412,317.90902944151196 887.9912474153315,319.4963409881766 893.5034547140608,322.7390928370584 895.5598357647084,324.37973848588643 896.3800028637293,325.47590590150907 898.2346007974566,329.1672996724385 899.4508241125925,330.136896103148 902.8038023147777,330.65168301817727 905.3747967881351,328.88993595133786 907.4417276376884,328.43452313512074 911.7243304466938,328.8503139847081 914.6682852771324,327.9094509181965 917.2000728972522,327.8087932260342 917.4691253412209,326.6674519161121 920.3083945539441,326.72753210043356 925.1781128481601,331.2543243137924 925.8464941385745,332.7964876949098 926.8927243638908,333.69707608665556 932.4209237008388,336.3843110954611 933.7321415535839,336.3106269044953 935.0139930890166,337.05640294802436 936.8753084326688,337.1895911657167 939.3509070467553,335.6174275231184 941.2057294144716,335.15515622245573 944.1821049167136,332.47009325659906 949.3423647863443,328.97853574673286 951.6166655851074,327.84314731346336 951.2499802275619,327.1515624130049 952.0260812065628,325.8606845746602 954.2215463039948,325.4789472422312 956.245692721404,324.24180404887045 957.2908167208002,322.61927145366593 957.9235611147238,319.74347163045434 959.4114249756534,315.17603367647973 958.9403835564085,313.3734606966508 958.6690374835018,309.93758322819855 959.6273739327785,307.32671358507275 959.8299414174655,305.154778359022 959.3657179942539,303.4815586320052 957.6986063209495,302.4293266213423 953.2353768483251,301.6015260661378 949.6434123668868,300.60041879600305 946.8630412545575,298.9205748893883 939.574901309273,290.7160761767434 939.4704186926996,289.99145836574826 936.3413334777155,285.2506615279839 934.7357247728464,280.37081316967215 931.2796144127793,277.50231811153606 931.5002773190424,275.4196404886819 932.433377620489,274.29416317734695 931.9822524226089,272.50918489435844 928.9912962833504,267.9005911444457 928.8322824558929,266.998149354783 927.4385528378115,265.8803896491479 923.8293801842157,261.8924093709494 922.0778986828622,258.10120931723884 922.2636790732107,256.2114958091063 921.7243674665986,253.08386777750843 919.8497614728557,249.85144183702278 918.8418286596911,248.62284693567779 916.143625106884,244.4245695307544 913.7923789952367,242.16798970541106 910.8712014988093,238.8870380076711 909.3899267071553,237.71957634801208 906.8470406582384,236.70291498592803 904.2702965963517,236.68092510918666 902.6080381485314,237.15401214076724 901.0432219251649,236.52197809100994 900.6513973971773,234.38638574400045 900.9272486614025,232.56230624683303 899.7351970727323,231.90006244570202 893.4333839894581,231.90732891729408 889.4149254826601,229.91527944986626 890.1604079810363,228.681766344283 891.3548979098393,229.1999842899346 893.0492728250467,228.65518362991918 894.3291816574468,229.8583822786485 896.328566830699,227.94815115155052 898.5366265187622,225.32194982119984 898.4628073504521,223.7950883274052 897.7654997631287,222.64646476474388 892.2248537731607,218.6990499613221 890.0633276815446,216.11075738380487 886.3345747357754,213.01119036683758 883.9158208016821,210.68064880148756 880.5510600830164,206.67490904062095 880.634836447027,204.0928323556102 881.3998815158292,203.26132385630285 882.9992048246312,202.85859161479777 887.4211860912596,203.14309676944072 890.2449482553311,202.05603935211707 892.8930215623268,198.31015961930018 895.1638253075182,195.94976855832226 899.7459488466637,191.68898564126243 904.2734749537801,188.81449988383167 907.0147300172654,186.12844718950043 910.2885560557347,183.48060393097785 913.8567455758091,181.5527127540969 915.5900130039327,181.02586606569298 917.4385983785996,181.16624810259816 920.3491241925724,183.11335443832218 922.3320054163013,184.76578367203263 926.0856816963527,186.8218448588724 929.9856871007181,188.6724743413272 934.0462513320211,191.4012106717065 935.6884355171195,191.72895575927157 937.7863075964466,189.82272077748019 938.7688634393116,188.28083105998383 940.4712663393392,186.94995094107753 944.3844951589268,186.57048939087883 947.7479818913188,188.55182268814121 949.2340177644141,189.1328799624972 951.5304606938495,189.4205941563655 953.0248211484499,190.06523941034516 955.0224934213686,191.53278124870724 958.4002457686778,194.62149832164084 961.5257760439561,196.06721740203375 963.6279975959815,197.81044590696308 966.9327592482058,199.3167590042658 968.842968045012,199.39422098262185 971.9764773815658,198.39312734527743 977.7732851237868,198.35330855598534 981.2439284622671,198.82026548516194 983.5997833091885,199.6369730531876 988.5413886360741,199.16811375782936 990.3033073408517,198.24621516311402 993.1550908024667,195.52146509894976 995.7508975456564,191.19418626443655 998.0397235636894,187.99013803547166 1001.4391681251526,185.02076054363147 1002.2433652218716,184.6473274674795 1008.5863422903712,183.98418843209447 1010.5854530463037,183.26129383805892 1018.8605221706546,177.81387973416645" /><circle cx="551.7371666864112" cy="319.9092743113782" fill="rgb(100%,100%,100%)" r="16" stroke="grey" stroke-width="8" /></svg>