<?xml version="1.0" encoding="utf-8" ?>
<svg baseProfile="full" height="1024" version="1.1" width="1024" xmlns="http://www.w3.org/2000/svg" xmlns:ev="http://www.w3.org/2001/xml-events" xmlns:xlink="http://www.w3.org/1999/xlink"><defs /><polygon fill="black" points="595.769756082134,908.1799619707388 597.9299189069968,903.373073142388 602.890252424973,896.017143784415 606.9712165490591,895.3014305352476 608.8955882888902,893.2178491165447 606.9612214639458,889.476932175993 604.4589490323515,884.0154544122289 604.4597026050128,880.6618148858527 605.9620446729306,879.1158413110618 611.0530665667337,879.4697336911837 616.2205624272002,880.8334931483042 617.5593576247351,880.9198504004581 618.0886267081921,880.044498365465 616.5828454717554,869.3868080111863 618.2519083221421,864.3562579938657 621.5970074348785,853.0497626957283 619.5125885923909,842.5689559498464 616.6597934839492,835.2931490399463 612.7158895835347,833.1711873281031 610.2445628862226,830.8198661856779 606.34522444176,828.420976382686 601.9300509778019,826.8855493679087 599.4181894644653,823.9984196463054 598.2909109743828,822.0745170218729 597.8983469744992,818.4668514493682 599.5545638645781,812.5329003339848 599.0511335624315,806.7730645001051 599.8325015895869,800.9360660856446 602.4496943605593,794.6399780809926 602.5881334552835,793.0178187604042 601.5594175223756,791.6306160915592 599.5266387130852,790.1823418512159 596.7318386842823,789.5845072655966 592.4599494636318,789.1940266733112 590.0001259226273,787.6034157372305 587.9525999672111,784.952214419209 585.8794928809705,782.9585494477967 584.6154612183674,780.9492935420615 584.0581791672674,778.0909470120009 585.9706284174314,774.2606705683689 586.2798018157982,772.632214741596 585.0835896177615,769.4720394213107 585.0869561694004,766.3050066493556 586.2000252403725,764.6405577623752 586.7572932282371,762.5837427397614 586.757956079362,759.612882610404 585.4557054424184,757.0070229447974 585.4570697805893,754.9610561634952 586.7626098332266,753.104088395714 592.0730492244338,749.7111674809221 593.1466742936799,745.4543460904911 595.3089891137294,740.7876683894547 594.3974149877965,736.8840111941485 594.5285686071894,733.6679893290568 593.5001145106696,730.6570433488187 593.4499287153036,728.6926492147762 592.3631441157867,727.3664156635446 590.5187689469453,726.3331100091344 587.6099514620294,726.4829700446372 581.6582166125236,728.445451158739 578.4604401729309,729.1136264721597 574.3974175535081,731.0907345711463 570.7162508440001,735.2551584725668 568.7187798586056,736.2442892885792 567.2943079065383,736.391388555932 566.1697675831886,735.7330558823844 566.0034673410292,733.8991765797607 564.0621406607107,730.7063367981755 562.1926039034962,729.3538925641121 560.7880336680743,725.5743526913425 559.3050767436416,718.965900434629 557.1047185917022,716.4463130231754 554.0338272092878,715.8409100707785 550.1301175688511,717.1013262960123 547.7491468548666,717.3946740138222 545.6168380019445,716.9007407564194 543.438703667686,715.5324116753784 541.2296216876252,713.4742370379222 536.6883175323953,708.5644396849873 535.3670245032578,706.3380938645654 534.7062991673474,704.2898177710924 534.1641467027939,699.4080636131667 533.0708371052277,696.5184866591928 531.0777765564305,694.146067431694 530.7080909139738,693.0284072167108 527.1713022607614,692.0338999001177 523.5972105049307,691.9431576017225 522.2122543030149,692.9640328086916 518.1253304905168,692.0302407916133 516.977205591577,692.9229286811487 515.911505620585,691.2362634115611 514.6391820562128,687.4910095321278 514.6757459239751,678.621633632865 514.4727270517844,675.5041654964893 513.1328016253694,668.5004889011977 509.95860499959014,663.586722462714 508.38894646537767,662.1687708963043 505.9758672857829,662.531303933406 504.13586861194597,662.0017721078691 501.06975219191037,662.4744953168245 500.13573014033835,662.0969430278483 498.8578264991268,660.3041681739915 498.9733046714685,657.3365612300431 500.85272519429594,651.4652674170239 502.5245744722548,647.0807664387657 505.95095639759904,642.761040852853 508.41832341486634,640.303226321066 510.0692209060978,637.9416554132295 515.206624297507,629.7836082103394 515.488382982276,628.0422021226827 514.5380428612322,623.4105959924318 514.1492145465041,614.6918556459055 514.1510498866812,611.373800035818 515.0254403396249,606.7592146327065 516.8379342158025,601.9669890578613 518.7792847792241,597.670290271333 520.4791757766714,592.8052094805198 520.2249305530967,591.6287328083231 515.539090875893,586.2780958425651 508.8301515538121,579.5923290337738 501.798463156556,573.2491416062264 500.5962645835482,572.4342071583953 491.4314146051373,561.735284950391 490.51076753253346,559.8058698969793 488.3230414962869,553.7143828453004 485.8907965743538,551.9304963325272 485.397285257429,550.7598791324957 485.0148655237581,547.1887034469723 485.7681656864711,541.4134512127998 485.4156650242991,535.7081219785526 485.850161404889,533.2314955526408 486.79518442139596,531.7212141697412 488.48386151675766,530.3072285308862 493.7365501999971,527.6101371647708 494.9012346710695,525.5693351781234 495.52454325715547,518.3651153621554 494.41965405880615,508.34415068802514 494.5065442845503,497.09540582664545 495.05667137710947,492.9494283359802 496.7514742382096,488.0163009003046 498.77601329707886,484.2480838866003 502.8030167009878,482.56373051427465 512.8578770704454,482.549190430909 515.8744687584625,481.5419507926455 516.8841507503245,478.6579371656993 515.6034842834148,476.76454911514315 512.760253770348,471.6379009379573 512.186056535461,465.9414210818494 513.3243915596322,461.3871580726152 509.32673600817105,461.9642720949962 509.9472002902588,457.4200198242505 511.4092795856239,455.9103983357477 513.0745872605763,453.0083927750218 515.6061502215274,447.5078962285651 516.1964732371487,444.79023619483064 518.46160205992,440.31107384503434 516.1817377572104,430.0574447599429 509.8981316873294,422.65775793540206 504.1930027430057,417.5476647543061 497.9126889759271,414.13809662183724 493.5421696312087,410.7571005859279 492.73190431754296,409.643486372026 489.3814196999287,406.97093052651553 484.0112598402626,405.98064438462666 477.9777077488892,405.9914675082107 470.6017469166299,405.66726201081497 469.1492122660178,404.8384188120326 464.2292932827298,399.3930061411178 463.64765713463225,395.41188514939256 465.36167349785455,388.0107788471473 462.50484361832616,376.6191281425903 462.51065834243957,369.2143479924365 458.5135491124573,364.67169113491207 457.9394815570919,357.26580743521424 462.51214976496993,351.5648909892727 467.07665819201287,345.2904988470931 470.4982152590679,345.2775667092028 475.07477282209425,345.84325737233496 476.212386945905,344.13361081397034 470.4966519896971,340.72547044958424 468.2234975243744,338.45462659199166 465.9368417889088,335.0442450302337 466.3011394033652,333.20642358374994 464.3835803717543,329.906435781636 464.37910433573813,324.5548807893083 464.71560986791525,319.1995087866122 465.39363904494763,316.51726321046135 469.42368099877933,314.17019648783173 476.4648732455747,312.1499146783557 478.4783157306295,310.14095886714074 479.47966761911925,306.1226015092384 479.4786777738535,302.4416858853724 477.13402482801035,298.765797091991 474.4539599640973,296.42567743617474 467.40193927950196,293.7606301816563 462.03750383449125,291.4360562696737 459.34591542857356,289.09537217576417 459.01650674840755,282.406418660226 459.684399268371,278.0534333437828 463.511347095033,275.43681161131246 462.52453264752626,273.1716823573822 459.9879233674283,269.091782455215 459.0188055879242,266.28488500495985 459.9398416542002,262.19436768144305 460.9460026137944,260.7598130924881 467.3484866198922,253.19496350460452 468.5520884412556,250.40139724743312 472.1236920153545,244.14155063794453 473.7543841200985,240.76312438809418 475.1151441496834,235.82112549688918 475.2024621104305,232.17547139163833 474.7714107559925,229.82001903154514 474.84514575598075,227.42460094524677 474.2257975469335,222.90412066110878 472.41601907972176,220.28476558971283 471.7493150723883,218.40673684107878 473.24332410076715,214.93339969117778 475.8614446491352,213.12242793648056 477.5597068812665,210.12471371271783 476.6660251457198,208.24207866282018 476.2720626348763,205.66359803620662 477.4854140452637,203.5881998404068 480.59457423299204,200.85497975491637 482.04187558662414,199.0200627286289 484.2319226765663,195.32628119112132 484.5502309810157,192.06467436991295 483.4434274911866,189.23596168706547 483.0520880807027,185.25386602297226 484.5263649461111,182.7230310201479 486.2545656856804,178.54954820763294 486.7955715136239,175.7639568726894 485.69200763260193,172.46382691153553 485.77147412763986,169.19854891173122 487.18986904493244,168.76671172209205 489.09959532453473,167.40308318143775 490.8035918175567,164.4065933096474 491.3475619755883,161.1507668275475 489.8198679228401,156.43954709550405 487.972166317735,154.76370641592757 488.7179107388442,153.38596968417357 491.2997421298399,152.97778660519452 492.49046093938836,152.3055411160086 494.1214035714097,152.57443102556306 495.85516240411374,151.18681961770164 494.9957071831856,148.8550230449979 491.4946775944088,144.0319037947604 490.1412331822587,140.01108967487312 490.1396217569224,133.29536335151533 488.67680030852887,130.9919005624712 485.6769234358346,129.6610828067072 479.3551306540009,124.62801848966797 475.23705823279107,122.97731055121574 471.6569501203786,122.34152109102706 467.26860275634823,123.3871470040666 465.11209241738527,122.99581464390064 459.53718929603855,118.73460431072283 454.55762346981504,117.32160105559876 452.9481872377015,114.51324028445242 451.98020107208765,109.89671439357357 450.53156106735986,106.00741271115157 447.04102451240766,102.00524568423896 445.04064498529254,101.08306079116733 440.86652742668684,97.59789303112177 439.65492733151257,95.06443889674858 438.3310025717753,93.67629185717738 433.06813184742686,90.50571596665918 428.85168481339207,88.77005723674222 426.5545587625844,88.51754697377271 424.41517831131586,87.643594284713 421.63526653347486,85.21124390364457 420.67628309157595,83.22616889074993 416.9034974097628,79.82035116392649 412.4703202211482,78.55112674130339 411.74908160850106,77.85984924919887 408.73998415099436,77.0499724791141 407.20401692974553,75.646258066207 402.59969910197543,73.22541592087123 400.0441388661062,70.32695493675158 396.3495767718812,69.5526208554403 396.1886197425874,68.21962464172543 396.9059948076617,66.73041368109068 400.2485014287609,63.90346118937282 398.64080747251927,61.40307888541474 398.8419777219887,59.289048175186736 399.8701721990932,56.47677439695576 400.7162772397426,52.717614341911144 400.55468262630023,51.15842116483725 395.87844229905244,44.15331663350253 392.3612548527305,41.56105531542755 385.84183708864634,35.232239463203996 384.8716362656524,33.51345965180337 385.14992950828736,25.425535734398636 385.06760176135384,23.398838740444717 384.3097495261547,21.75515292109128 381.82039251129106,18.449498232931546 381.7104232890305,15.336721249171546 379.4651911435142,10.613203906157992 376.57889932930084,7.708286280863831 373.5587826980559,4.247527211177044 372.48404078030114,1.5749365567377254 372.54242275310946,0.0 370.50727981506634,1.962468375666731 369.27586402505057,4.615848850562884 368.069682595285,6.033467457413394 361.8916429968417,10.893439112134729 359.6251599659765,12.19618471768581 355.2980725222046,14.006518961903112 353.4527709149793,15.051305352874806 344.784257218956,21.07560904786135 335.85949690537876,28.731194148550003 332.0803637960916,31.03502305681684 328.9919573414038,31.356162157331937 322.8338395140548,31.13093858013849 320.5328564902798,31.398310919385494 317.7699745935779,33.242652834809974 315.9846848188787,36.3755993115293 313.9353985336679,38.08095368786826 310.8927745404519,39.76472287170873 307.1800121435082,42.458375462791196 305.27543944779933,44.155997338600855 301.573916077118,49.79642775679372 298.9861084453448,53.394080343831206 296.7105621813867,59.06547943095359 294.56035367857606,62.20224870352888 289.20743115208404,71.14328414660713 285.1939512634429,76.02018512567304 283.41233129151686,78.68375132447409 282.7461492796305,82.95875400589819 279.7586556454071,88.37982626008579 278.4415400742528,89.01644713108305 276.66178505945516,89.01815272973795 271.82247744574045,87.31539206620232 269.6774751121438,87.02293564830052 267.52011988814456,87.29270855353218 265.2029986998078,88.1932838725769 263.16601064732384,89.57156298743166 261.0418112515412,94.61396207180815 259.6664504040694,100.19348426060469 259.0608132788599,101.68582903357299 256.72506939065755,103.4667971371191 256.1709325517732,105.75859475730465 256.6829141427834,111.65618017332008 256.117632799476,114.74725484254611 255.09251168734903,115.6043733155002 253.07315215145505,116.11280680655591 250.61552231295136,116.00830430566282 244.79644045836318,115.02872632906474 241.03263660248027,115.6324500086472 237.9522332061578,118.07291732690805 236.5021835134227,120.7338110149858 235.5895142890843,125.57780266852978 233.84310690708156,129.65523252306843 230.95478852431964,133.308732048837 230.78421947253975,136.7556364249823 227.230068626186,149.98156462634324 225.525145694699,153.0472747162254 220.4861423605216,155.761119419779 219.11795230841938,156.95031989879124 217.95204413346067,159.83286749673016 217.00708291801962,173.42556780570703 217.53183896706346,175.35351532118182 220.3071397148298,178.77500825006098 220.61468867485536,179.9703821115612 218.80994279569495,186.62936659584625 220.26417020299112,203.08571474583903 223.10759665135822,223.94030181686207 223.62790777249444,226.32889120670632 223.15807253580704,227.9067606753141 221.79743524478968,228.77784490333602 219.6431526297461,229.04840604949902 213.0059703444712,226.46157623312138 209.25776905746469,226.7575433312843 206.64016372807765,232.62275238612528 205.00926812148376,235.12744673316104 203.1535601871424,236.408646921456 196.0210621738664,238.79039194255165 190.23362803074252,242.6897299824775 183.4399586897104,244.5051574078102 182.50766632422253,245.6009726373361 181.30707501442748,249.9715715358335 181.041998191358,252.81433632811968 182.91798354956853,263.28177593587316 180.97583326440605,275.1393409124711 180.00237113489084,280.0381031497161 177.65264222554086,284.537310907416 174.86915105588983,288.9250087611456 172.15623124030094,294.11381406116686 170.9598386742724,300.5360368163848 169.38403420574872,304.4792322609153 165.52347005535847,301.54120473441833 162.77218725640628,300.0536362136793 157.6760040057211,298.3083917611134 154.75090859987898,296.08897334833125 151.76417035360294,292.484399427855 149.99132884556016,283.93384560296 149.4186530551868,279.7386711905574 148.61892797907018,278.8790807524631 147.21551917669706,279.0627219199308 140.24063054992865,281.8369971488287 134.44796617483277,285.5296234205548 132.86165430709156,285.70896997760724 129.32103202450685,285.1662718488218 126.10044841918311,285.7284247556196 124.27624468338409,285.3288898936903 122.43021650376048,284.17951383499565 120.66028381253118,281.974902211536 118.65485497491099,281.4574298438067 114.2650159106684,282.2283703262192 113.21814858165745,283.89695207291527 114.42871673981224,287.46181957898284 113.43316623957094,289.345844438625 110.89718784990055,288.9286382890681 110.55439243047365,289.340929201937 110.93108597362193,302.043784958999 110.6147565754107,303.4729405780288 107.69404333381057,304.9537215224259 103.62165953518196,300.58456270125646 100.19174099547584,299.3063526015528 96.9695961773689,299.3962359756131 90.70006127541956,302.60469147356923 89.097164810501,305.69555621824736 88.85644356189023,307.96674446913494 91.39396782965477,312.13700578340536 96.04887963589316,316.4085919544283 102.65129640286945,321.72899267660193 103.01970160060635,324.6389926967498 102.34078689599387,328.6549322522138 100.27911979194417,335.2737456344903 96.13214587629415,342.12234683017834 93.22311031208693,343.33746820648184 89.28115104157199,343.4215138037242 86.13241147373884,346.5294552630693 83.69905833424248,347.9085832582681 79.81345762844697,347.9829092678391 73.66107362736226,350.139018568319 69.16993789124962,353.49210234180975 67.27425882627732,354.5051698804185 58.44167561108753,352.30952746193236 55.713091968079006,352.25687055019296 53.6327046295847,353.05957775385787 52.48430153496054,354.9924264182122 52.08169583521237,357.68121365995694 50.86259777454572,358.55541055253536 48.9910856224338,358.5213965591471 47.3380065846887,357.47854124971525 45.15085919626188,358.53482149708293 41.956031600526686,361.7019136976837 36.09416433720056,368.60371228047154 33.540989526228024,371.03629678115874 31.65231411480401,373.85549346163214 30.963296533761905,376.6405136785461 31.913011786479885,377.24691343721713 36.78198921065763,375.8728207746311 36.791187349408105,377.9355807760371 38.29093662494283,381.1931146186678 35.97079118706679,381.9900255123848 33.14132664765474,384.0474746518089 31.737105216949875,386.6625453673239 29.297724116064497,384.173003194564 19.728811424613852,383.74392810208167 16.537154858515883,384.83849830696875 11.535102514739389,385.6749253041214 6.5541053242380976,385.6605450451376 1.2593709200915846,386.59267364184007 0.0,387.3123212911348 1.2044037139934356,388.92093530589705 5.226127396888058,389.01582257907523 7.4248890289017835,389.3860784367638 7.5560017397690125,391.82046651215796 5.9074858427575165,392.73570215153245 3.1093907094889177,393.2036253571347 2.993267850302428,394.36087443508006 6.7039547546871505,395.61792428047784 6.36644976940612,397.62109009849746 4.2384810398629265,398.515440006198 2.851001262963078,400.39209009278386 3.2104279232152955,401.4576040019117 4.816529817759485,402.34660606605223 9.977327539122324,402.5711056124047 12.125656578025492,405.37135845721366 16.008807007877856,411.3845921365038 19.927411938823756,412.1134087611314 25.56638224483689,412.6561602259452 31.26847198210251,410.7772970205357 38.469464647760326,410.2990437295232 43.06193420485989,411.3505752673608 49.79849974239293,414.3503245072902 52.94139980359612,415.3666142314463 53.75203154921266,423.3804782053827 55.04941831046143,432.13580121098323 55.43114099188223,436.372590783007 58.739774964260995,442.79354243906323 61.9316330459437,450.1549331193737 61.61223127096514,459.89015652616706 61.870230362417296,469.73088874348446 62.87419511592026,471.8692303475 67.93410735841134,477.36663670807366 71.90544886426537,480.31185180261537 75.98687092235782,482.29467846494094 80.12446627383447,486.50748658688633 84.80593981527399,491.7799905412096 88.3068936899569,494.2829491774621 90.60216863851684,494.96153202668904 94.9249530321403,494.9478932994865 99.91324954470262,495.3598801523883 102.96086281139992,496.79515758005516 102.42293035156601,499.3288666782728 101.32241211066936,499.7251050732102 97.22354340574358,505.6392147288095 96.78227951812165,508.9663291175772 96.57236742759079,513.4597991973592 97.82929735481626,514.8123526679622 102.78837265938236,514.5866950572984 104.72827382117349,513.6553518606152 106.16358313090913,511.07982742699176 108.46454678427915,510.33141928067937 109.95072315819515,511.3299808565032 110.1435039731425,512.57681876937 108.89225771423258,515.403137967493 108.78833229236434,517.2081992083034 109.84451615295849,520.149228419338 109.98301119843232,523.2130240765539 111.41785683465034,525.9052885762194 111.79133842937571,530.3198013743895 111.44891979822765,533.7018291380118 112.30986960912368,535.2714467347978 114.23148967044932,537.1128959327518 118.1831461606599,537.9314423276262 123.20349427275099,541.2086559437791 126.24404914615214,542.9615120287417 128.726880166023,548.1943881830541 128.75780357078708,551.0509963856146 124.05093325837034,555.0849100073567 119.71602230359197,557.8116665098031 111.98384381282871,565.2168086700193 109.13115063330491,566.0150914968714 107.74711957493497,567.4631151561648 107.77402029283687,570.43339053865 110.26939395277043,572.9138689421488 111.53725623375686,576.5897560066073 111.53265793579915,578.7058726939804 109.60584344241964,582.9472892223421 102.00755120143256,593.5941190088536 97.08243166794745,596.3069570216385 91.52672612329904,597.3630267736461 84.30948977370333,599.4989249121973 80.85538306507974,603.0791610242791 78.63014204627216,605.9465172987818 73.68359121304992,609.5535134853147 72.18477950200675,612.4266627734862 71.90452730120292,613.9104949955688 71.5657764474548,620.4083813866358 73.02427190244975,621.8087572501142 73.23142258253174,625.1746468334417 69.36425949283915,626.3392912970952 65.43678139084106,630.4123526425808 56.26007752574035,631.1363238687131 52.04994776989974,631.2548390274591 49.55167365340917,633.0274844522723 49.25861411731547,635.6206367213867 49.485477685391324,639.1929605412282 50.82636872131709,640.5190293189346 53.58884918295757,640.7059475386417 56.46271056861644,639.9186190960643 58.65228313779829,638.6426921834834 60.40415232369419,638.2819605277513 63.28763568333637,638.4415517747578 64.5906892931356,640.0024171509658 72.36337703355699,642.1436219009174 74.97055729994484,643.5702341295748 75.03797076302531,645.3193723810558 74.33045231618375,646.4139916617993 71.12025339413744,648.1491758252314 68.58244254696915,651.6485052956252 65.04873678685776,654.7539030482394 59.64697709660844,657.4979411278453 54.1987515788286,660.034847767827 48.843972340104344,662.9340232644323 47.78906177029803,664.822537658585 48.29270808424916,665.9952395544046 56.08720056788488,671.9213887553901 57.28021431786597,674.6947093511058 57.63073828554119,680.3669463611132 62.82485257195823,680.3735942973797 65.41354301702759,680.7417377350694 70.787638029795,683.6501134045857 76.22358784092944,688.041528963223 77.883584783726,688.9232746811425 77.75288336178805,690.5134652247593 76.57106589105383,691.6487635114316 73.10454867193532,695.9182397759515 72.30676721011602,697.3914515582217 71.22650283691485,702.343808316167 71.45040027053662,704.9918510630489 77.39866322388724,710.1872034561552 79.7654133578399,712.0306076784375 80.4971271323785,713.7433766302979 80.16210095326777,719.8749908392865 85.25738211391214,720.0842832317993 91.73413617234284,719.3564088271437 96.8304505871964,719.5653164571253 106.18616302274597,719.2108083376079 109.33162111204581,720.4332828376414 110.04388764209672,722.7845770691794 110.42108134081334,732.1004508485512 110.42253095777701,736.2251170607194 110.81009494738596,740.3680599584004 109.41510809526223,742.239734718205 106.92918604467035,741.4535296951503 105.86004390711771,742.0661700803439 104.27017734941771,744.1500515646756 100.22520648047072,748.3065981558921 98.3339256591621,751.1329035878124 95.82754625608113,751.292841223353 92.38412819473466,750.0621973887189 89.23339371773253,748.5197137911034 87.56783385691661,745.839048714697 85.39913879298435,743.8974210000029 83.14504177776163,740.9866681257015 82.22301896512946,739.277990955304 81.79855701234479,736.8408994167936 84.35391749411615,734.564924810938 82.34018359857801,729.9730784838607 80.46101094112412,727.8224668274777 73.99743014217428,724.0950595683887 67.46175474941872,723.5352731522923 63.493500804686775,724.3075480821394 63.16255969696827,726.6245161153256 64.28248843141422,727.926120692649 64.3104998133614,730.8785170765423 62.91205710476557,733.3972959600396 58.32479813150029,736.0585099426262 52.48069367055169,738.6919609518097 48.27506405110118,745.8982664622611 48.49976954670031,752.8986616528977 50.12369020203063,757.3695971205887 52.68298018746636,759.649911470149 55.81938728592801,761.2958199740298 62.52823456280907,762.385356652271 72.47892713319517,761.3161305155277 76.27793374863603,763.2962488528108 89.1398740999253,773.8139525875283 93.88640630711063,773.0572459718089 96.16312858296097,770.2480576796645 96.43932698820849,766.4384517341487 97.29130547431075,762.8573170663034 98.22133311253897,760.3372392323072 104.26486625699835,757.2743487720277 104.96907065380941,751.571281617699 108.40842266207042,748.4602399214834 123.39059293521065,758.9184377155644 127.68659743488136,763.0160401076421 123.31120400610645,769.234072310212 119.24084888126902,776.4570913523794 117.0431677654444,782.2929893219303 115.26840506046331,788.3442442419826 113.20421826509018,798.6177070989781 113.21177566316221,802.486323466856 117.05517034773953,800.8646370486292 117.88415659726232,802.8378046771879 116.23632981439425,804.972027969167 112.86217899980268,805.3798017455354 109.07859738567313,806.3145107235573 108.26554384211055,808.4159705780619 111.0610282268047,825.3039452118303 112.05836577523193,827.960763555006 116.15840815216546,829.8433631268069 126.25571174640167,830.8821630093071 129.80291876806405,831.7956617796467 136.31116722603804,838.3837214768224 140.71229599073422,843.5553169083423 133.33967980652068,845.9428924473847 129.1815172095912,851.1619534386552 129.79510223643356,853.7070809935223 133.6698745606425,856.9640518952679 136.1599922037721,862.1972567233937 143.08312325286374,871.2248817813548 146.26311476903908,880.1690979613461 147.1251618077198,888.9804432882156 146.78752321834338,895.6335535615746 146.62105608659465,903.1462161761835 146.9792504127622,908.6633439656979 147.17259480460226,925.4106120651206 148.89724296606187,935.2630599823813 152.25227353626292,941.2592728118491 156.95342790388088,943.9578020686097 164.68643130609732,946.0849557908128 169.3776516369904,946.0336729424554 174.88664839464914,946.8140200653049 178.22191594627853,950.3471484014848 178.81839620791962,957.4669911973465 180.25225285877266,964.584790222329 182.22360499324844,971.1482008176652 187.22740068407134,977.6855848661334 190.54928790614719,980.684225074522 195.5094622434439,981.4612342519492 196.9550824895652,981.0905476101033 207.93510027739003,983.6267397347043 211.61502007668227,981.5115049715318 214.70155123197299,981.9911681812201 216.86733014976318,981.9554015186525 218.41211046016647,981.3700318728638 220.06113559313022,981.798181990031 223.46553914278286,983.6739812074675 224.48575388825049,985.075862727441 228.1817322994539,993.4180212392275 230.3805777084774,995.390933106763 232.89343225438955,996.6201751641386 235.68309851375108,998.4824174088709 237.9429563102806,1001.7765353445325 239.99714464265406,1005.4874583785343 243.0826885405108,1008.9846561491444 243.97024517921284,1011.0130093564145 242.9110611122604,1013.7512660623686 242.37150446982827,1016.4491809409492 242.37381869639407,1023.4562529520236 246.14295855924883,1024.0 249.37018157465903,1022.9260375658713 251.52606688468927,1018.0773435067634 253.679714687362,1015.9284487058438 257.4461254890772,1014.8550615759087 261.21216895950477,1017.016367713048 263.90328037015576,1019.7112041512357 266.75080476557326,1020.6788203754797 269.5659296110341,1019.9451322616894 270.99127290311594,1018.7391389601574 277.4826858654502,1010.9016638218714 281.1748065688442,1009.6717490608326 292.06157312010424,1009.9015139528699 296.57983423024285,1008.2661911508649 300.89240742935095,1005.1831920590427 303.9693058897674,1001.899432751191 307.2583640461584,999.6408578913777 312.8035836794144,992.4536091463907 314.0342707104045,985.6594058152842 314.0402992319354,982.9825227744477 313.00927075068347,981.1263945833407 310.4699541446875,980.5274880564685 307.70357600206887,980.542465743781 305.1031462422715,981.3530949187641 302.02217960958455,983.0906025054372 300.5388147462544,984.964574802629 299.1448284442897,988.0670436523684 298.87552889636385,991.2027410982714 296.72515497109987,986.8936071555186 295.80367147092016,981.3417977277511 297.1960118238673,979.8680488538783 297.8132520785509,974.9266543612603 297.6063542153031,971.2244534988793 294.93611248899754,968.129730499449 291.65285775350014,965.0327777980259 290.6220026264738,963.1884103121606 290.6241921111387,960.0985209341499 295.34954146098966,954.554506823055 302.33328401704773,945.0932123308799 307.3303374130363,933.8199918557882 308.5563782086921,925.4436618063036 310.1737701272095,916.2833315409786 316.09628418095343,908.747572420965 319.0870593199842,906.4121006061846 319.16942955410804,896.1604655065362 322.8645165153354,886.489570108617 325.7442975918726,883.409738737014 328.61567325765003,881.3492742451048 331.70095748496965,880.5389923113456 336.01884927333504,881.576936487962 339.308151825414,882.8087143664519 342.18618561613897,882.8172128494132 351.0226291410411,879.5317698556535 355.34545846484485,878.4989838267886 355.5466752618497,876.4448767018973 354.72901526120916,874.3804091989815 351.6402261214534,871.7123356504422 351.0212683152691,869.2391087032112 351.0958371311094,865.6494220248121 352.1778350693627,858.642600510385 353.25567442451364,854.8667255153621 354.8688867671617,852.7186747531667 355.22126829018066,851.2851885790391 357.47411311276676,847.257249477124 357.9628564859386,845.3227879828298 356.22925121411305,843.2285311374724 353.7768443422011,838.9281925131772 353.68677801070004,837.7739166922319 355.6309403694451,834.9015797373243 358.3948054271097,831.832029977532 360.57486896359705,827.9461671935096 361.9785426117289,826.7199569319351 368.8624418289591,823.8169665203053 372.8549476061023,819.3928454930673 375.1304322657151,818.853472576215 382.53572225597816,818.8111045952928 391.5428312812791,819.6137790689063 394.11672998985125,820.5102349767527 396.82333631546766,829.4543981756763 398.95723156774056,837.9559538806764 410.92226289682014,850.0433478569851 416.38454769833515,856.3602066501169 422.21581957531805,862.6112938771246 429.97444593779386,867.7499470849499 434.9992830417151,877.2986717165509 437.8223417165675,886.3205407339769 439.26474827518524,895.0775769897821 442.360282805206,904.0951837151663 444.309947880357,908.4576605366885 450.0708499854189,918.0646154246087 456.22698945844905,928.5442757331278 459.46515190520415,930.1944607983504 462.7485167457879,929.9094203912136 468.7022384715676,930.5952717534401 470.8540731972667,931.1933091132046 472.08001684951523,932.227593429174 474.40765643705475,937.3795760037896 475.73745821638806,939.208003138624 477.99712996092325,941.1158907709357 481.9550633145336,954.6830534594244 484.0905021819206,954.2622639625042 488.5056321312587,954.6989584420736 492.75071912365934,954.1139079236958 493.8013532975529,955.071520920042 496.7807664744495,954.8418845871537 499.47184715942853,955.3998137357847 503.5174546649061,955.2831537892304 506.0990448626875,954.6650129897989 508.5042708348372,950.4597788324953 509.90887302656796,949.499007536171 512.573437694177,949.5201384746629 516.9962500285387,952.7775117555866 517.9529581735745,954.3205860292956 518.3337827617678,957.1900964268651 517.757863850236,960.0732050226436 513.7110725433365,964.1327773069785 518.6567760995312,967.5247160548561 519.1799448743868,970.9019234426524 518.655006214785,976.3501547406951 522.8112568132548,979.7264685074961 530.0429284093041,981.154767711163 535.4272438361066,980.9291755471315 538.5698709784904,979.4765946857128 542.149586833025,977.3420451350808 544.2800121752435,977.1260558163553 548.7597782700863,977.2330456967509 550.6685110524442,977.0126792537915 553.8000581360418,975.1061136721299 555.87712947095,973.087032539159 561.6951986758367,969.3895184865688 564.4463192880606,968.1442610268823 568.4317784678007,965.6161147824517 568.8946487858045,963.5862170465582 567.6429357525285,960.2264196756643 567.6371438439992,958.5476590121461 570.153512449604,956.0427119757488 570.1506633881968,953.5300703785629 567.2419126085824,948.7995821432221 565.5524643830443,948.4895183528771 563.8705876865677,945.1321539437268 564.7099807774355,942.6261345978062 566.3826748981662,940.526192507807 569.3169805041068,939.2760476152204 570.573473833781,940.1125874913062 570.5711652315415,942.2135474117284 571.8290743163866,943.8840396500115 573.0840772119562,941.7987452979046 574.3399549615798,938.0228497210514 576.0181023506575,937.6123325655667 578.9414437284966,937.6073177667524 581.0328376736212,936.7823052891508 583.1228911250943,933.0139432066335 585.3871383661711,931.4408051893076 586.7759694342113,929.2742259528588 589.2641019804348,927.18126471379 594.4534204835652,925.4891144707253 593.1466477913848,922.6740823047021 593.6302660016022,909.5593769574918 595.769756082134,908.1799619707388" /><circle cx="540.8900360334843" cy="787.2645651271839" fill="rgb(100%,100%,100%)" r="16" stroke="grey" stroke-width="8" /></svg>