<?xml version="1.0" encoding="utf-8" ?>
<svg baseProfile="full" height="1024" version="1.1" width="1024" xmlns="http://www.w3.org/2000/svg" xmlns:ev="http://www.w3.org/2001/xml-events" xmlns:xlink="http://www.w3.org/1999/xlink"><defs /><polygon fill="black" points="444.86764292349375,113.27323737504503 440.61559179280783,114.33529157544024 438.91935176591096,112.786590590581 436.2044179767266,113.45743228064543 436.1270413766515,109.30880333740743 434.107005259386,104.5132382753012 437.3760329114951,104.09755168949448 433.1843261242604,103.45990922075282 427.1109338163983,104.91849504410482 425.1276585723717,104.30793836195392 422.8253194096756,99.88010415652798 419.13744224390086,100.33752582395982 413.7345144026755,99.21683950561442 411.09726246478607,99.1722429767043 410.18913657029987,101.94329840465025 407.2754335455431,101.06145759119352 405.8604920618259,101.45496411240413 405.77903529687694,105.91557829897602 402.31313261608074,107.33862630381248 397.26381363964407,108.07070573048429 393.7958949943825,107.36118798013285 393.1283684862599,104.07775112819866 387.9914975864008,102.94613337121052 386.7433151003662,101.4160215706172 383.03448435956005,103.62275899483245 382.8410323231192,105.83260035061141 380.7893556372581,106.45888823401674 375.43225805690685,103.3658515310018 373.0682734371045,103.36252735055632 371.8858155696453,104.26565303828647 373.9327558970327,110.43930587414422 374.1277095701406,112.56903881425251 372.7096850193223,114.42766655759533 367.81751926811273,114.92163296266051 366.09254845007473,113.35702591842107 370.3842421657316,112.76177336582884 370.31029491273944,109.83433572220338 367.98134211009636,109.23804390766259 364.6340837060793,109.51295084848164 361.3959695465195,112.90325638534125 359.54474925415167,114.12761977701177 358.3556594286524,113.54354770854366 357.8279093175082,116.95970864562446 356.7346744834538,118.84004435250404 357.27360638314696,119.74766789908426 358.9973646646595,116.62156831086997 360.5699351295587,115.1553556101129 362.08872641307374,115.98958269924105 359.4984260337769,121.338338750508 358.8477026942554,120.83282821798014 356.341910312877,123.83722172614739 353.49101019023595,123.78473890124235 352.33553804898577,123.09799716131033 350.430514338457,124.424395050047 348.2836329531173,124.30094427602626 339.9963096490682,131.83872397405287 297.39733837583566,144.65495321267144 277.4065166942938,147.5860620696826 264.28822880862987,130.36651132209397 266.09483211769435,120.11870247846014 271.07615956725533,105.30974396713054 276.7345348753641,85.17513205885098 282.06838699310526,68.3185762056986 286.4799834208585,47.79360263703143 273.0473091230579,28.045492962989215 265.6698109304871,27.413049847707384 257.6066913748942,32.92386864384844 253.76271516795404,43.621560659122224 252.7717502351297,53.03319137249457 241.968384627795,64.31795055304372 230.18006705011453,67.88424799643724 220.58607517687523,61.60564236740959 210.48325764116666,50.0324631177042 198.59621069500182,33.19727683502845 183.0032221498492,15.643282437815287 172.51000340629827,5.305223737262622 156.80131050803536,0.0 145.0052901069373,3.9756534213382793 134.10450917416972,11.19488365002178 126.14728232462039,20.363269937436485 114.846138731936,27.585266741390228 104.57012817691825,42.929552741866814 106.47225703374878,47.455140476273186 111.47196289636037,47.06802947836752 117.14164170757216,51.21962321011006 123.44721981885537,58.01526645282797 125.94810034757045,58.60599920942161 129.59772740241678,60.88205721656709 132.89270813193207,59.454520074808215 134.54533085680472,65.02181962716884 132.76758081899703,66.87442794215247 131.62301581700885,75.94663909456642 125.981296350811,75.93684341743801 122.69302509628297,78.26487862277338 122.6615672752558,82.73433525188466 127.42248720329644,86.24017787796072 128.25676766975548,91.17179781956565 127.88824511164748,97.69224921306375 128.21967106249429,100.7425395487785 125.17248534714614,101.60388190762842 124.4974482132097,102.89214056796584 121.25050276816712,103.2134449164497 117.7289840935323,106.30583445529533 116.15667926928572,106.85999098130333 111.72700805144716,105.92626144477367 107.42075042040213,106.24368092677037 104.87310631544693,104.20715244879591 103.92344625449832,102.29124379636687 101.66371448759178,103.04003151064308 101.39139506919547,107.73166217542484 99.71359659044522,108.01192672296474 97.34974051552264,107.19777873274813 87.86537247804604,109.56579957580004 93.52455783541849,114.21724191688736 96.22272704069398,119.12506050519494 99.98801439396523,120.92866992285576 100.37348358055462,123.78963514648967 101.46793950354856,125.66464347631336 104.00967905571349,128.2877029218016 107.14946213141457,129.0268000548739 109.77087423995411,128.55627297104627 111.14579798398513,130.98924835017021 110.87045799267884,135.87158153266853 111.7327211258089,139.63250405990811 110.67596162211687,143.97624111811456 112.58974432914538,146.87568494463778 110.49215973849273,148.44363199729298 112.39210256134707,150.25859781173756 112.58138058493559,152.45480174735656 110.12444730677274,154.90167560229327 109.04204038490468,160.65162635695765 107.61434394985702,161.48040554194267 105.51895146714523,160.9228843569084 99.53964750227472,157.5817558022726 96.14115094497659,158.55133111019495 94.37928240830378,158.08231638321877 91.08891434861066,164.04010978131566 84.1059008655742,179.71837158788685 77.94785190531655,196.18765801417157 66.88079702566492,212.36573563310844 56.31068503017774,231.3820486833411 52.0890837586337,242.8964833745842 54.21022878482105,262.8523704379865 60.87203301763988,285.9572064077971 67.33776162951838,300.0892244096538 75.90755519022038,316.21428642521056 73.90806932751767,335.44419422644495 66.93710133751216,351.5235305886954 55.86802580965971,367.29480546413384 48.46378201804386,382.5724209314688 45.9837229551675,398.5374325075065 45.07629537523488,411.61833326794886 47.00194331021796,423.8194681352002 50.601898107163045,439.5777738162834 49.17140793048933,457.64688588306575 39.498949450657705,477.9125610605787 28.370697732988074,498.73235623116 26.350780501617475,499.8110166325829 20.16677674522662,497.4999161584589 18.490111048257365,507.01966625113846 12.68368777083888,505.93047690110427 12.056213789318903,512.8470989917207 10.621495241907725,516.5511200200137 9.145141639495133,522.6969385208295 2.734898127506988,521.9876508545678 0.0,531.6671484992419 7.046990700556416,533.0919447004928 8.272224539667413,529.9977252896242 10.516114131827251,530.1589895708004 10.465998474480907,532.8787430663291 9.07653981006415,534.4316943846057 11.50775053127526,536.5164034921736 12.268961536454261,543.4616444300051 14.718162898459983,545.1883358921476 17.200798201260664,544.8402938435004 17.060918186974924,547.8947368237211 18.48221924364596,552.6529529904911 19.426296061839224,552.5006836068087 19.804121133627397,567.285226327418 19.633179911425884,577.4980343608726 22.912856799649056,600.3416957442552 28.824794055059986,595.9106082913256 50.69406503493446,595.6074656789744 54.68375396692,596.746644578825 64.79277784629859,602.5644821670827 74.13799856059076,610.2896874050025 78.50218394646268,620.9358517425687 85.11583115509625,635.7019790223515 98.16137846097395,638.832531001488 103.29861168843175,637.4741645447892 105.7181042806698,636.0494469649915 111.89104677538022,623.9597625095258 114.99675900419679,621.2183435408964 120.18345365564566,620.3028114375292 126.41119795789102,620.7377458283386 132.1193917781056,622.7267472298307 136.70090450683247,620.3103323865096 143.73587139903086,614.538293107768 147.64437426705314,614.8488949967041 149.4980707398376,616.8220922263012 151.78622389009507,625.2514437410064 154.76343181649094,627.687316704056 158.94712792136463,628.8940505237442 163.7581604382125,629.1443590609218 177.0487120650184,625.1450197867266 181.10738774786628,622.7125646878984 184.03521989679237,617.1411179433508 188.40044735758542,613.0096803487512 196.14242994767295,607.9173864407226 201.35356729241957,603.8881900141417 206.86274192856098,601.8522357337041 216.53488117723455,602.7339379966804 221.55925482901296,603.4438422278885 230.22562969452994,606.1544666758305 235.31697737114797,609.6022224993762 240.37552290601133,610.9808154986385 247.62302877876309,616.1789647415375 261.1280495322877,619.7468839008898 265.18534436226577,623.6982560158929 269.1009642784408,629.3541089544049 271.7579087654294,634.5965753201444 275.3151755887045,639.8015301686355 283.52664617077454,641.1819569066852 294.39365844318576,637.8840137874572 300.0973505042131,637.5693174038994 305.1355792966428,640.3604745246745 309.916775478859,640.5531472922848 313.7510882718717,639.3114249982964 326.3125558371351,631.3137834642363 332.96201571474086,630.8148148879221 339.0448811631483,633.9285699061429 347.1653456353322,640.9455825903283 349.51484343823387,642.4121090604255 357.9456071723229,645.7487841734338 363.4785470095735,647.5097565351329 366.3813874483448,647.5856993918982 369.55374996130996,646.1863003355065 374.94553682320543,642.9856268707787 377.5056685409075,642.3813404422393 384.5325866840862,643.2273640719104 387.2241727060805,644.4817774108016 390.2693502198368,648.1848420654611 391.1481318277944,650.8844640334187 390.85035159439104,656.2847745656528 389.52701774986576,660.0303684836083 387.9954988928755,662.1435169107034 378.9766607860202,668.7360596229879 378.1018835221367,670.27588359457 378.1054548976402,672.7914583436711 379.6376095378249,675.5721288267114 382.952538458258,678.2457219777926 387.29826779631117,682.3565761790887 387.6061264853768,686.742093795702 386.5196101873146,693.0994926837367 384.35204137453826,699.7102191446198 384.67495986854095,703.500641749856 386.99765431834317,705.7038632136021 392.1921479869739,709.0245484171668 394.83220875905175,709.9085081464478 404.6099535358711,709.6305370949191 409.0198563846884,710.490321522953 413.54895637300916,712.4543961957537 423.48817183957283,716.3378255801922 431.5162789418269,716.0860352521246 435.29643114835966,716.3263875254777 441.1891005564399,719.1456250461434 443.38615173003785,719.2378144076447 448.1087844530321,718.5274100933009 449.29385377736395,717.7072172747686 455.87715682290894,704.7465506062073 457.5341743632329,702.9278532611569 461.8704206948143,701.140523183079 467.3798524510428,700.9034447070774 478.8774503039484,700.9829801371701 483.3247040178734,702.0889623139161 483.9630734574921,705.1069444131474 483.7666557737674,710.2919686340226 486.51203547059635,711.9857786582315 492.195259642594,714.0404721200522 493.0549340946524,719.1383160729406 495.1749325575626,725.559999266566 496.91986514969494,729.8983302521125 498.6754798796848,736.6060250507197 502.3337965005541,742.4001122264763 518.836443056445,724.4174901820816 532.9210954495161,713.8603038164081 557.7684521100025,707.9310729165007 569.4704562517021,699.4561210866802 579.0072317098135,686.972767960097 577.5020855551584,675.5798288838093 576.7342577661483,660.9137876679531 576.9024041511595,650.7137094053707 580.2237864365875,635.0999160039784 596.3954706444132,631.9831329368797 602.9481112676513,631.5776446524462 618.5926285717603,634.89107387596 629.6395788666138,641.4657004483054 637.274538074719,646.9300254301214 641.186307320653,650.1087476618839 647.3957068874405,660.2305701490612 650.1933114989366,660.4211970721407 657.3249362566622,658.3121206646183 660.5946440027702,658.4464585246386 662.2525998490459,661.8144724925337 666.7882404034949,664.4849185576371 670.6734415114876,663.5124008589079 675.9205650618791,660.0475807625701 682.1733027045249,646.0009044024447 683.5061588638799,638.9821801170306 685.8571696064739,632.0576363097729 689.4735718839157,629.7492939065385 693.3182868256308,628.261981782204 695.7856725625843,629.5553919509375 696.1231744106577,636.0133390196705 697.2099302227969,641.2942335612352 692.6159886705542,649.8802648394427 693.4840653291725,654.349178295344 696.2272600381325,659.6589303381306 702.1040102021676,665.8406581075525 709.4113615508091,669.5238793028747 715.1389750650719,668.9640321117623 721.5017591564088,665.8857779683113 726.2848464836209,661.5254657127352 728.8463370843173,658.3193242253421 728.6459270294744,656.6004696096419 727.2557985563104,654.5792652286648 726.9022311464829,651.8359049254005 728.9166539836813,649.345860875233 734.6550654600371,647.2257739212218 739.7766910733477,642.2337966583106 743.6372453757883,639.9503993524305 746.3031291834162,641.0561509899217 747.9174863042311,637.5809326079694 746.6683331430264,632.6858424526772 745.2185242048013,631.0753646518837 743.7791910012909,632.4650214423133 743.1391174520794,624.7070813019955 741.713783276702,615.8601088448993 742.5300044703868,611.4275738668684 746.5514692462516,608.6928699741154 768.6957022383654,596.8090986652682 768.973600824337,592.1445849015577 771.8748344629549,589.1673845191272 775.826916761417,587.8350730170907 779.4297456317315,588.0535321209181 782.0311408056835,588.8489651772734 783.8595455634701,591.9211347691263 788.3784206633131,596.9828290867225 792.9521913114974,599.8102351139956 803.2537566847532,600.3967865394985 814.5955982843634,607.8138757019392 818.4207687232606,611.8233593325384 827.8731348157454,616.098673432135 836.37655317611,616.7060433691261 846.9093879338341,614.4275918986007 854.949007730376,614.6718128940356 861.7891360625515,615.6372992452623 867.8874729329276,609.0270724717544 888.5956552146346,599.9856695836072 898.1824851285821,599.4568317878143 907.29376813356,593.3518449887102 912.4090726310986,591.4496433208371 914.60534479895,588.2404397882809 911.4687642521687,569.4941079687353 910.876302653744,559.2946651269026 912.5795033153024,555.1510340080381 914.2990463477822,553.4353103482083 916.7823845052691,552.864153495326 928.5689237776521,554.6477612195318 933.6585602161141,554.6105003244356 937.4094953755365,552.9026267711362 942.7253796410749,549.4828012949081 943.7425669882401,548.0903449716337 944.0834625129414,545.7386966187362 943.1863168962416,541.2961549119186 942.36269234207,539.459035175719 942.7811322102945,537.8342763755628 940.9417094680147,533.5450392370942 940.1413544105226,530.4802834456127 938.1645082199416,525.9299553856865 937.4980939299883,520.6129990930426 936.4086056334445,517.7708857406171 936.1985761464332,515.3856519339563 937.2253704356934,508.5785590857348 938.2903835050528,504.6453805361129 939.3822880596282,502.52894968249456 939.7913691840923,497.09863751475467 941.9068865282261,491.11416154653193 941.0182606149276,487.30624736962955 943.795602630372,482.4892356922946 948.2083666701608,478.0683947470446 949.9025797400132,475.3536693133015 953.0225036220645,472.36988018517445 953.5682450099878,471.0077160868597 956.7652996540573,468.2320548199417 961.7132503197831,461.9707630343753 964.6981451609706,456.27677411227603 968.6451589358934,453.2136836842602 969.3846252219284,451.3845428807755 973.3317005822125,447.7705760901322 975.3683818826402,447.50023982362245 980.0153819251578,445.68507598905296 980.5568737441309,447.89815984948945 976.9149066978176,449.3720497646219 977.6791449763598,451.6338579265779 979.5434739321378,451.2871668999666 980.2135843400754,455.3170898192507 983.7052203168782,455.3446219406171 983.0933752779189,450.3978895819366 987.0638209097406,448.7249639391384 991.9494754175001,447.3237685149029 993.5362901364622,447.64725740957147 993.8143806501639,445.3246532482189 997.0097718046183,443.0988204915733 997.2503714473178,440.02692982980625 996.6385782499345,438.29029355242017 999.2104590334582,437.8013670952386 1001.3136498092421,434.99737512621215 1003.011037330559,433.72225068506185 1007.8724897088235,431.352250714588 1013.7429066509812,426.8564707568963 1014.3659275996702,425.1996460331717 1023.0567297292027,422.6944691638443 1023.7961637475569,420.74030569188363 1020.347330672443,410.1185263486971 1014.9438999417133,403.2054207286325 1013.5935716636341,400.58193015477553 1015.2134292780789,397.9167996316591 1018.0601730265179,394.66640225756 1021.4240594398397,392.0189550230798 1024.0,385.656850605925 1023.470962562366,380.5674717578924 1019.7425417148165,376.9468752223003 1016.1466572850584,374.9576707434368 1012.5765836201983,366.003393362408 1009.2096781172593,359.4161453271139 1001.0636331763199,344.22073952353 994.9974954666885,340.77709530728015 977.7283597886741,338.55559876861355 969.5018634934244,337.17538698921754 968.1360999170121,334.3977699465464 966.3281506453388,328.03100782735845 965.9789305711254,321.61139533092745 962.3000238274141,317.64595274249336 960.3415660788005,313.8607248325215 961.8075513544364,304.7820203928729 959.8796852414126,298.85489676617226 955.5529321220395,296.8376671412597 950.6961640517343,289.43808808153835 943.8000355078063,278.3260969867673 929.3502788852629,268.3104335926819 917.0469099184232,251.67682581035132 898.5641951123016,244.85279272652338 888.0454485683881,247.92725674885634 865.9771776818556,256.72379554035354 859.913683033108,258.6657020889159 849.2388321499212,267.4702132088228 836.7730205608324,288.9976574034122 824.7178571726447,300.89429675899345 815.3751708070173,318.9347638727501 811.034975821229,324.29389140816653 806.2418302009589,326.2963091847498 801.3880138872238,326.19933692674965 798.7516775627216,323.34983229736883 786.9401206988487,315.2323498016661 783.6796877420479,312.5107859731587 785.1299539919523,296.75036877405165 787.4930189027317,293.82644575923024 799.6891250155828,287.26197771361734 800.5409370077308,285.9439270221291 800.7359364601558,282.31684190517717 805.7594227099333,270.78283548094873 809.8106004731831,257.3094998407769 813.7841302966712,253.9039458674822 820.2819466069585,221.43651154422412 823.2724658067996,210.46043953016056 826.0250083339745,208.3654220149798 834.9512708570448,204.77418664344782 841.4249758062783,203.1357210000382 842.4609440276945,198.63931218414507 841.02682982857,193.3401241811996 838.8102196302485,189.0004733258462 840.4683478554648,182.95668196306167 839.2349634514875,179.88955745234432 826.6789274722352,170.29494056080068 822.6315927906928,153.5407191688572 821.7335914277579,151.58701433904537 819.2905521051608,149.90375810854368 807.0609276107671,144.09788644806065 804.4640099314826,141.52533643366348 805.4257529290301,125.53203892393219 794.1709400474057,127.07956791381253 782.7072649013452,126.84829695553992 779.0019601201759,128.72167577093853 776.0116840577936,132.06223935508262 775.855034278683,133.75963047636992 772.0003004486723,137.4480190580707 769.2292952293732,141.523750184086 766.7555632368711,143.41648135694754 764.9927337922314,145.93148935605518 760.9214960153855,148.28182310358977 756.4215217100432,153.17237483309225 755.3893152493475,155.8198255027121 751.7901217724758,158.91217720841996 748.791155433508,162.61210103685482 748.3299098881491,167.22667225122825 743.9660959337525,171.87364622323673 738.2183717058896,172.3636266961812 733.6570143716797,174.21292291279826 731.5091688529998,172.1009353555953 730.2284083847946,169.04060207961425 729.6125830503529,163.316497000935 728.1188458760686,158.66167265307195 724.3403459011276,152.63164682760714 720.2588857049061,149.51334751544618 719.0895856005465,146.93113376791234 719.9952444717559,144.5237412250127 722.5357736430412,133.51698890321632 717.2505168634867,129.52515416956658 714.977676338196,121.69520191737547 712.2653761130878,116.90612459949273 706.95342564128,114.24488508377783 699.0938040060654,113.59817728358598 694.6299956116736,111.31419675933455 692.9013258178051,109.69511410117661 687.2006004618829,108.11768232593045 681.5674449426067,107.72865504200433 678.6961945202643,110.57765297419314 676.7386225139887,110.66131338063792 676.4226365736124,114.53726492262149 674.3656337131247,115.9664818479963 669.786262855976,115.33530271344671 667.9033970928364,115.71454876543066 664.6332180176997,118.18050394901718 659.1049242775656,120.00503883255908 644.1838890228887,121.38939480293027 637.5475447678956,123.55673962996696 626.7155752070931,128.06569223489566 621.7671410535787,131.2434930775895 618.3905252939418,135.2980420701648 615.5950517023274,140.22067596877196 613.5388203270782,145.40336373592072 613.499680583506,147.22620794332272 611.8352560153883,150.70947746612353 610.4954233464316,156.15531016635816 609.4936647184771,162.93649896730437 609.1159427440735,169.13033232685575 608.0623920118984,172.62669774862536 603.2950168793491,178.72607160909297 599.607487767815,180.10485214547612 595.4993038756237,183.90247785229258 592.355029647997,187.970401855486 583.6170909355835,191.42511171479111 580.5025241671358,194.03339938818976 574.6160596093985,195.24792644569834 569.651774196778,193.4302911212377 570.4778879900192,189.19652148617615 573.5169546045529,183.91810587749956 576.9049539201226,179.9806791574589 577.8689455560093,175.01718091256078 578.1311336967925,168.57839591948016 576.9026048014921,163.207141509218 576.309213688144,156.75153004478136 576.4280921639884,151.2847598812965 573.8536826389687,146.48673371616712 572.4313873590135,138.80435098777662 572.7630985161554,134.80224675563227 570.0052953711081,132.30873893062358 568.6295800884724,128.6366389850657 565.2556800875819,126.37202834980371 560.3603465943858,127.1153820056943 556.337577717949,127.02731532464918 554.3490554417673,128.56680426092942 550.0392272643247,130.41365705055284 547.0196242357821,134.35671127597698 545.4775318095823,138.21453423714797 542.3172617222776,148.47243165387863 540.6595872769575,152.07808488814896 538.897546389028,154.34971652442607 535.9453092053421,155.13502860212895 530.6107953125041,153.5572442736942 527.2749045810559,150.0838187991411 527.9060376113604,143.6620470770365 527.2803133927272,138.78129834197068 524.7862978260811,135.44940845201666 518.2486324571856,133.4789661701776 515.0043923209117,130.97347055789646 511.6221411159878,129.56478593639815 508.7865106478915,125.12677759890164 505.3951257823349,124.20085018325403 502.2774930414384,121.45716372715128 496.3856362065621,118.0488179611508 490.53832812648625,117.55069803495985 486.89285826140275,116.62037309708978 481.4600413154122,114.0648908823332 475.40538685706696,111.9872263799931 470.6718028246039,110.90535815511419 462.07659101471285,108.16002486719697 453.3177095834681,106.75286698629793 450.5118140645784,106.93164791856373 446.2091526319224,108.04263496461624 443.4939020781488,108.29642813780276 444.5672393696563,109.91826138840827 444.86764292349375,113.27323737504503" /><circle cx="406.6854009788799" cy="347.1894366633171" fill="rgb(100%,100%,100%)" r="16" stroke="grey" stroke-width="8" /></svg>