<?xml version="1.0" encoding="utf-8" ?>
<svg baseProfile="full" height="1024" version="1.1" width="1024" xmlns="http://www.w3.org/2000/svg" xmlns:ev="http://www.w3.org/2001/xml-events" xmlns:xlink="http://www.w3.org/1999/xlink"><defs /><polygon fill="black" points="664.879019873254,50.063581917399915 646.4164023632277,47.58682246318051 628.7486271637611,46.78053150859114 622.8823546791002,46.2562830438402 622.5798708747905,39.94116305264765 611.8027566066769,37.73621669556974 608.4278359987794,36.47805155687513 605.9358247568506,38.83392747034168 604.1394106479266,40.00729438735607 601.3547425776521,35.844381474943134 598.6295449294568,32.782282051970355 598.1463994580704,30.64331137288832 596.2411065906575,24.705624380991935 594.199516685545,15.818567526541756 593.2289546140834,12.983108961818061 590.9387210963241,8.457715939172317 587.4974497698046,5.424772756001289 584.4458066068771,4.672162706995664 581.6683745823523,5.346017908881436 576.0928209665552,7.600450732711124 573.1620676040865,7.429161520150728 565.5898985003237,8.205033913358875 563.9639124275652,7.386138553812543 563.1581157519754,5.476834008893434 562.6154333808037,2.1866612301222403 560.170112798804,0.0 556.5963579313592,0.5384888264082974 554.1376522817104,3.2779880616629953 549.2464279922596,5.943194763103179 546.3862584545558,8.799939446039502 545.9480310217581,9.83453381246693 545.9221725479518,21.835755577066834 547.6204006838055,24.920298751664177 548.6501315353976,28.920120481196818 552.0493697746095,37.94676359058474 551.4082619798477,41.536147353957176 549.2020069175244,51.07252367247611 548.4031115425655,52.47051170163786 545.4260888101413,55.24820695147855 543.7404214416434,55.23461733774343 543.2029876994951,53.3208723803732 540.324839129729,52.779854397424174 538.0214571923503,50.569632838712664 535.0062414129609,49.74342095507245 528.9960371974038,49.173416918938074 524.2793428065831,47.732976098848326 521.0615164790086,48.5929694070669 517.239695672416,47.48952968576282 514.7928002363111,46.10532384923738 509.331212986079,43.89690703467954 506.05370653899513,43.61394204183284 503.3197902341447,44.968299301131424 500.0336360064261,45.7666888166234 498.3935786559156,45.49830571939742 496.23227561851473,43.84573714979501 494.05981075133104,41.08168228807051 491.5948978604896,39.69851016998632 489.68378987135304,39.146231839233224 487.2302946804439,42.69175795153308 484.4820390634634,44.59719396975618 480.1109343167958,45.12070187228403 477.3809782309439,45.92422679492813 474.90610978929453,48.36668108766719 473.26031106103426,51.37383267501957 469.96950186751974,54.62206607520966 463.68956090505947,56.78651405731671 462.13087202909304,57.03667346596785 458.7659740011524,58.672352442301644 452.5508163902095,62.62305570435228 449.40438043199634,65.00112817924105 437.65166579563555,72.89298718642988 431.0771977001447,77.45873074580595 425.46926452678497,80.08409068152241 423.70870485321416,81.31525791909951 422.6812058438692,84.04210302026706 422.64249600982185,87.13640606911451 423.1247542126697,89.45951056658862 425.37803489065857,95.83110600954126 428.02576657278524,101.29081204499641 430.70495013609155,106.00388189745422 431.780824721148,109.43573292547887 432.9301808618202,111.39582438961816 433.0334040358833,113.19248357698552 432.46558777112335,114.90381411541568 431.3442528136854,115.91563669141112 424.6681320224311,118.25589419172002 421.38545687242015,117.65348271710388 419.54739252124864,117.79380668001284 417.8732428579942,119.12717024488188 415.27297205509404,118.77316525100628 414.97851893227244,117.9794958781954 416.52114988132445,114.94144822870851 416.40480839420576,112.7567271178815 412.8933575735512,112.17620725983716 410.6910995548013,113.41263038841703 405.34909511129905,113.90006245531447 404.1550235880233,115.3419393663454 404.6050548318958,117.40042895601584 407.18994247025705,119.2975239488585 407.3332023526784,120.27594821076366 405.0715624527014,125.42457732636342 403.55805591835633,126.57286804832324 401.2697075598981,126.79860054175174 394.5514837912005,126.6963672029159 393.2678753592122,125.75689011813154 392.6539649126361,126.68201511492794 391.6814557824883,137.83743498621243 391.09465225614167,147.23184528062382 389.0470775402116,161.42345100078114 386.7823310447917,174.00409275766333 382.07886898418263,174.4643764258841 381.9072243812637,175.6719458289416 382.6956419873552,186.6739619443632 382.8245413104105,195.73957931186055 384.92406200390104,198.89062364765437 384.5047215971171,201.35800826850448 383.4125243218439,201.39783711528617 382.99213642153813,203.75349966185343 381.7283857207272,204.03976939792085 382.871723605196,207.52737279894325 381.94406694955177,208.87488028409348 383.70533898798016,213.88957868462683 384.03370689970194,216.27866450152385 383.41118658809233,217.4186345696546 383.6630821063774,219.8098349149957 386.13740267517926,220.94363562128694 390.99653864108393,220.40875401481492 392.76896704068474,221.25220185746025 392.904299117558,229.8407593233576 393.1489955118763,231.5258558319473 401.4502646499532,233.88421750542136 405.3968449245358,235.320672938518 408.82562360139616,234.74783949673827 409.4500658890168,236.93073637313273 411.77952252525813,248.12890415122843 408.1766865733502,249.79774026815505 407.0845180098169,250.9751080490936 405.7047686201952,255.37500310413145 404.4830269754813,257.21813036637514 402.8047131955964,258.389334967287 398.8279179506841,262.1581614610834 393.0328105589274,266.5490884998029 390.69389190450505,267.8477704294643 381.3604951130332,273.77364017609034 377.87087879506294,274.19273987680106 370.2915076745189,274.55599235213924 366.12085071413367,277.25374009766404 362.72942356659644,279.05219445843034 358.63829580329406,279.86540997371753 351.7499808887208,279.1369480997753 347.0504639297769,278.3693048906905 343.856922053247,277.50557945422577 342.19247813235364,275.9240972589346 339.64903338844164,274.86135818927244 339.2975034162557,274.1481679930969 338.88740405319663,269.8646947012061 336.9432260419579,270.3523255638338 336.65258191105767,271.15257602942984 337.42995345553726,273.48930322761396 333.2084009476232,273.6064334636502 329.7318041475052,273.245929784194 327.83616925017185,274.9805177409156 322.9297385549161,278.2239136339357 320.9780439274048,277.8304060192396 315.0560201859549,274.33987511165674 313.6064930905507,274.23859199114906 311.18507539665455,275.08768042207555 308.02336345967245,273.37458872235413 304.1916377061768,271.94181762717744 299.7648479735849,268.00857094239234 293.4882081631704,266.75971957040736 291.3754465435997,265.31272443450143 289.1234139448071,264.49270699761394 287.38026413849997,262.49125604982373 284.9076657204442,261.6915065330428 283.8822288178414,260.71845729054405 281.28055857121296,260.5956811387688 279.29809636375865,258.57591325340206 270.5399591800936,258.89902791892973 269.7006028459953,254.68165422099082 267.9153887588851,254.5206956349108 266.12193775412476,253.4302024456655 264.7152139081774,253.87070470202218 264.3171728789453,249.5782819737393 252.54033911508577,248.97184840342834 245.4105955250855,247.6862337013605 243.13751227261434,246.4241644439935 237.37883342100122,241.01560151835247 230.72459959052836,242.7618631078808 225.62477737937553,243.36198875527737 222.0528580980468,243.0513171732308 215.8406741084065,240.9576643897425 215.26435912327764,234.20280530968262 213.08648711051853,232.85771420636752 212.20634419902396,233.1089219833616 212.3665335815327,236.87184430497382 210.68099312010713,237.1388089482433 210.5453247142793,239.72792621948372 207.06290461130496,239.6810387070641 201.17408119426347,239.9775136573985 201.1195834042578,230.8155369802904 196.4037346915085,231.40140157856206 188.60657882815633,233.0195157494245 185.47044725310386,233.07115717272018 182.66256759472748,232.2209793313515 181.00344607059884,230.74988186740984 178.63902992635215,225.8274413810533 174.38219741339134,220.5696839279491 169.92746519654722,209.8431665366562 169.41427824255106,207.77122062031776 157.2380522445208,212.64728204134803 158.57333215924697,217.31060887470483 155.1014568536971,217.40501542049492 151.40312782347834,217.96196542291148 138.74887492526523,220.52706270172598 136.6325758402735,221.08336730475492 133.19292755469363,218.5184711269568 134.0254987412804,215.2304262048749 134.85175387431224,213.88601377110297 140.3240386605749,210.3650106624749 140.4983208723513,209.08630207288047 138.09512651769583,208.12912611491197 135.6558111654253,206.12082673568295 132.45833040838085,205.4865155105423 129.63889401854024,205.54581105804903 124.97554041651497,206.69934178421875 123.87655509846878,208.82309370848077 118.3053270732595,207.36374403225568 114.2112374054875,206.06118346605535 108.31977094889795,203.80687623033782 107.76004055674727,209.6983451461249 102.23768867195591,209.97655104389946 101.57779431733047,205.4215852943653 102.7235936578965,201.3771338894452 102.72804146796865,199.02531377204696 106.13539147984233,197.94204191070207 110.10036159841634,197.13025497317744 110.34116252524008,192.53977686915073 109.46242628901513,191.56401124642605 107.07094170141691,192.4163956644711 106.55931853053193,190.3641744478357 101.45538871246166,191.37744246521493 101.5776721909206,192.6428404597782 94.56911336112778,194.32025576761453 93.28371942436439,194.37942070532563 93.59377616812948,196.381337695693 96.50856220114458,202.85512246005123 93.78175840778572,202.3083999983835 89.9459390531266,200.61370956650558 90.64906167259788,204.44376658422095 91.28018234620718,210.6962092789854 89.8688489133089,213.72086317041715 86.3335048226358,219.2113802845422 82.39259311431766,226.06475967173503 78.01570199708824,232.26592564757345 77.92905427483706,233.92355143672387 79.02841965533865,234.8682537958341 88.88103976694812,254.56912178688583 85.42761963032375,269.5334693171718 83.84433636048902,274.5770487070844 81.08561680585866,278.8783159660436 76.86993706210404,281.78853905582616 75.1899520396857,283.41515745757727 75.1391622765315,284.47817935246155 77.94251473511777,288.0742829202379 80.51898252314815,292.11131553911764 83.08161925291795,295.4222081381314 79.38936302964774,299.3320718206227 75.28466846739491,304.99435193313366 74.68977455605456,308.45662651209057 73.51042498650831,318.7798219745166 72.61930567364696,319.02979847307677 69.3115800887984,318.24073023559833 69.74396203555574,326.82460192108556 69.77592161321701,332.4860833220047 68.94053129090061,334.107798313274 67.6501180647606,343.7268404468714 68.04812292495426,344.4622066781924 70.37913056193145,343.9878840145607 71.85151030547243,344.5223743647166 72.62917897303782,346.21803742852467 72.92141940180163,348.74428610388975 72.58474427880684,355.36028501800104 72.58959701108688,359.49656672274784 72.96055226494418,365.66884584571346 71.92273274660269,374.1034470481811 70.70594012183196,376.4649248712758 69.14952849591148,378.1952510507126 64.42264466463826,381.5502704281937 62.444122441645725,383.3830968617515 60.45152115608757,386.046654412351 53.331875118859735,393.1338493138952 47.23764538040425,396.3006871380269 43.582181396757335,397.2527486687702 40.552786795266385,398.61095067795316 40.00346279030185,400.0890722031754 40.73895550509535,408.2688886634261 40.89118669782642,415.25589946617947 42.294556926922546,424.2126880612208 43.13485297931556,430.42833103686576 42.65751484361964,436.3831969050867 42.07323582800756,438.528922608828 37.926840916566356,445.31392861318614 32.81297439076426,452.5664307346814 29.93196141047811,455.225372379232 11.496563915169178,462.0024827279798 0.1151252967847706,466.6506687951261 0.19053890781636756,472.1958043585962 0.0,494.10660547903376 0.20153936997531552,497.8880637300621 8.441234099685158,499.0474888812337 15.581009240402718,499.57589227235667 20.259266815047365,500.24957812708067 20.781355407916095,500.7696632471675 22.474877196318154,504.69811588529205 23.289366019238063,505.811051272946 27.727493951350546,504.7010868409702 31.55514907723214,502.54859988903524 33.181837753520846,502.83798234968367 34.544309199424006,503.9379243183356 36.18084047804171,504.2171796347268 39.453713952351116,502.87650083348535 42.19387628674523,500.70787350994556 43.83733313238526,500.44415499524564 47.91378157366266,501.84729276737164 50.63899427512344,502.416891299868 54.735093165268616,502.16829836721956 59.350935888730696,503.5680082894378 66.721560289602,503.9066258992266 69.7104286429191,503.3885984784773 72.98433130149313,502.313167923331 74.61997644150841,503.9652749975047 75.40124185992842,507.80633769675046 76.49467385931814,508.9072242442021 79.7642960379361,508.7868789267312 71.75110368238168,524.2057748489207 70.94981214259805,525.3689479900647 67.15038400241001,525.5234605777214 56.171512819533994,525.5226375435245 60.51348562316314,534.6892312570577 61.5778109828412,537.4417789593945 61.45574213227657,539.7511705851816 62.12014557514531,541.5420480077826 65.35958291941988,546.0383707814658 66.25685809605253,548.280499730367 66.42545733542238,556.0965329118313 65.61750237001219,561.2412158564729 65.39206641232886,565.6550877033727 64.82736326826479,569.8030219619104 63.18267745580369,570.0484673084417 60.93758003132759,569.599719642349 61.04080122365425,574.3912919416928 60.6698197445201,580.4988051282966 60.77782870667764,582.5820581642151 55.22220793791602,587.7226313871777 51.35453687258891,591.7266060688773 46.71172900420499,596.8832062575077 48.07969355865624,604.0296527291678 47.99043251079382,609.0499654748863 52.7016984044134,611.1498661036908 53.239280425079485,612.5633829482722 53.10478583451775,614.463199946257 55.41009480824378,615.1080208094038 59.7152800236811,616.901880132991 68.76329707807055,621.162580040906 71.30828729063785,621.6510089970166 74.13889681805122,623.1660738106823 77.31478684524359,624.4098434223171 81.22315355935008,624.0180516937057 88.60093743371918,623.9970383848902 90.29958817804712,624.581536621085 91.15382342994558,625.8096868563366 95.99506192785464,626.7566980652211 103.11175676845666,629.8454243506623 106.6127931228133,632.1447060368682 108.97468813204306,635.6838349962472 109.49087967427519,639.952982113487 109.38854473263717,642.0990298225315 108.68080496318247,644.4964820743385 106.39290746415038,646.9434876472017 105.49168690560168,652.6175011150278 103.69926243800208,655.7403394637874 100.55873599426516,659.0358286050155 99.27922376074301,660.9539344518053 99.53318588505819,663.2525360135479 100.76582711714921,664.7247045360081 105.27480601905255,671.0969563776589 108.60229155609537,674.7749802515426 110.07933651490036,678.5055659164068 110.9162470505951,681.4794904333846 112.45968969048053,684.9017190072353 111.69375245306945,687.3410619145698 109.60476392684821,689.2441181856373 106.43381379242149,689.2516480555292 106.04615782513382,690.5286102838934 108.93116489580292,694.282304983856 108.90807124669998,696.8403320156867 104.82539180750689,700.8920357388276 103.6015878906741,702.4718543909403 100.56005680817135,708.0997441836408 100.76564853247069,708.6957501391482 107.62368236248264,709.3839561370464 110.35482547072176,709.9118140160826 112.51349890244411,711.2966331301691 114.40874655166458,713.9676704750681 116.00802356170583,716.8968287022465 117.2600668513474,718.3385986615215 118.58455109193073,718.8647444884368 123.5678753523476,718.7211164366342 122.13472229020516,720.8982409524913 117.2679448713564,722.7067176394721 110.53161713190865,726.5398495617728 106.84612733621844,727.7735493486057 105.02550122158533,728.0522198801089 104.1723669549035,728.8492900497656 102.79354164340897,732.1357365891872 100.71517662130735,734.357888970871 103.70133036252668,737.2074309347693 104.08617654894795,738.7476033955115 103.02804993305645,740.7474770899828 104.64981848128568,744.3054066586656 107.74786635754269,746.3220658846146 113.00657827412421,746.7946218922987 116.12687953540042,746.0969010886561 118.99234156153827,744.6917025742082 122.3876355543431,744.7841011467629 126.23542312643146,746.4561551213642 129.81667048116563,748.5307240295583 131.70646380207174,749.9583290905957 134.32700223205242,752.6259028832982 133.62762442576906,754.9948052885377 135.45782433390218,756.1763755847523 134.82786924821062,760.1589211786151 136.66429512372267,762.3157473815818 139.32391723479327,762.0426729362525 143.75461058560586,759.4854303899613 145.9674156356066,758.5977349106813 147.92664403374866,757.2375547953933 149.40844812341703,756.8270673854728 153.90268711639789,758.2375401462837 157.41538418290816,760.0866973394352 158.96448050925054,762.4211331431148 160.38746998536283,766.1341307319306 159.90604511497335,769.3238812540002 156.83789769863222,772.0377407397132 157.91755058415987,773.4700899107783 158.20456249314603,776.0390006334808 157.85268474370565,776.8547644665493 153.48379511829174,778.4970715696704 151.60998345615485,781.2345658644358 151.77022050385045,782.0556098091636 154.77251810546517,780.9879239786782 157.0825924196453,781.6518447013186 158.47867809809478,784.0689125731031 156.83273446586423,786.1777303714811 156.77644005092054,788.0084245847423 158.38606152562187,789.2740681168667 163.45791249318182,791.6986537951398 168.65255863064462,796.7043980396223 170.99094116015593,797.0899654871077 173.6220914410105,796.7015849374569 180.03956823779546,798.3773631000563 181.4379235259392,799.70420166177 185.59145091657584,800.2734111056225 186.5127898742718,800.9460303499596 189.38889532860094,801.0081377198172 193.26320977607114,800.4374673499592 195.41899564507048,800.9368455193035 200.7365843907031,801.1565526861956 204.062384559527,802.0185748356062 204.95607731660337,802.8043577992578 206.91646625874588,805.8455526157234 210.54206126907363,806.7868984817973 214.74296195298734,808.700805163271 216.90384738210588,808.4807166281275 222.43430545951412,808.7292506733002 228.04506455495883,809.2848164386305 235.66843324841628,810.5372399864116 238.33758994219585,811.2682543647381 242.93902604027687,813.7237028495301 243.75756213483052,813.5014210794383 244.20544413392824,811.3183162567307 243.0318288383883,807.9526878030026 244.2730130911174,807.3563524973897 248.09028168067496,806.8039787397247 253.19849953894285,807.3317444670897 252.91028940098627,804.9478424850066 253.48299187869137,801.404596408893 256.0403980358149,798.9693544663902 257.98649877662024,798.5838238151596 264.72635135787544,799.2018379480103 265.7040734873787,799.5539103623981 268.2892815366885,801.9718842866276 269.85675261931146,808.8732078586213 266.19262077254496,813.0874205668056 265.1548820112017,816.1501825346483 264.8091899236892,818.9928623287122 266.2457713887112,825.1647971788461 266.5197251113175,828.229065497267 265.37626200623083,830.1311076178715 264.8733758865293,832.5524732668323 265.5250220915198,836.9930910006607 266.43593196308325,841.3902030210761 265.52013853970635,845.3485849651073 260.37937127594233,849.8329338586814 258.53365434780045,850.8335830530741 255.0433052539228,851.4984670000512 250.58568984685064,854.4748091849275 248.5386455452987,856.9805625786738 245.65300142604883,862.4255826589286 248.66901571781472,862.8558842647257 250.39686248682793,864.1607006735653 253.21769819973068,865.5504478496086 255.01427101453098,865.731833073565 258.1864683302055,865.1123118170608 259.0889831214508,865.619699788871 260.604573933402,868.2220677156869 261.60979517059366,868.339103624329 265.0752949000768,866.9323075635274 270.16499893230895,867.058366561178 273.6369107043048,867.8038089257204 275.2451397482721,867.2257682482419 276.0786813027198,863.7505852825109 276.89274633278825,862.9007647153679 278.94541165110746,863.6254096984163 280.80774448156745,863.4878662570289 284.258935511644,865.2528187709324 285.7289097958579,865.5808283166554 288.1760490253028,864.9645359914231 291.5341437486828,860.862223892854 294.1859646561463,859.2974860567052 295.78607041880935,858.9769632597852 297.18143213764324,859.6133122956827 298.8950912109891,862.5228986535936 300.827153780122,863.9698737534034 306.82201449359115,863.8089920779007 310.68832970726766,863.0977103575501 314.377497943077,861.9780926047545 317.95263265484704,859.8280663884291 319.1365808323432,859.4689997942146 321.1478940560153,861.0266479009595 324.0937870786939,861.0441562853355 325.96700363748147,858.7544771853193 327.522681332274,857.7234187020003 330.55407032637976,856.5140524275761 332.39871039214927,856.520322728408 335.5445369343871,857.4510195900251 340.3162591319446,856.5462928405248 342.7900582694339,855.6304992562187 343.99650104835933,854.4273632027913 346.63684336951724,853.8380539131973 351.71261171021456,854.7118948768359 358.4874432447984,856.5678353007481 363.8709505187313,857.2536699688455 367.876831696732,858.2575896884832 370.11614264460434,858.1050668488654 372.68335864502086,856.9513878926423 374.4962231215886,857.7276793795752 375.18436994343284,860.3355166100762 378.1632263748673,864.127898551757 379.97419131504194,864.7923942823261 382.0735506185532,864.0937121508766 382.8775679326751,864.4576111686922 383.7736399990661,867.5376358513596 386.8305377501446,868.138067997976 389.45128277516557,870.7917834371556 391.91856927267474,872.375481754643 393.6539294259013,874.2850082798788 397.1708539194405,874.3783236964942 398.76821771679045,873.7553716705805 401.6039900467299,873.4636086105602 405.72994784847634,871.553188349136 407.9876548008462,871.3366205337306 410.7607326526376,869.3551153244604 413.4723208227456,869.094206170898 417.64633963579456,870.4454803108322 418.7559006600774,870.3952469444057 420.30497400200886,868.7239795878312 421.9672983597531,867.7720654714552 423.9510061110181,865.0454850579141 425.33005468698167,864.879551454776 426.5515135126334,866.4738461572165 430.20503459112734,869.9390782312557 431.4103270525761,869.7732357531395 431.8372779718974,867.8858770115235 431.71117624113583,863.6576255132676 432.49034964245817,861.3229995719286 433.4305095869064,860.5738003296095 436.63077316491535,860.0183884301357 437.74732542906924,858.6086679632934 438.98316275495176,855.4891455820878 441.4136310854279,853.212037727017 444.40107033184853,853.5649744115527 448.8521832588189,856.6725482019648 450.8491953862416,856.4989793500539 453.8630767944014,853.5987298264212 455.63197727576085,852.8099260665673 454.9083082267106,849.8119383586877 455.34373480080575,847.8327152272938 456.5484099348394,846.5952333921889 457.86300481359257,846.7373832867052 458.78499182908604,849.3023487309695 459.8522492865138,848.8796604989506 460.3693780172457,847.4037860157079 463.1306447366074,845.4008135539691 466.51474873297826,845.8423618261334 467.5534395778357,845.4298886869292 469.17158377767385,842.0398671149652 471.0002665246822,840.5297711543532 471.8344789541666,838.8846180785107 470.98072857695183,836.4651972176495 473.82233675777996,835.8819371652202 475.69232648145413,834.5675673880153 477.8966680133239,833.938821561618 480.2358404034164,835.2938299617812 484.8432698226794,834.5697996619222 485.90755813862717,835.7739067588792 487.40575413471305,834.0203921782971 488.5401404253197,834.5234011393625 489.74023061280405,833.7710798651833 490.8774712006301,834.5619202067617 490.1764254698709,835.958147396989 491.52135497128364,836.2843063994768 491.83061731273256,834.3061463575857 493.46890630551235,835.0504639487697 497.58923407874397,834.8964035969925 499.0804772465627,840.1924228272803 500.3019665142362,842.5778689533568 501.15054061272537,842.5278640181591 501.5501307891198,841.0214188347986 503.972240472579,840.8324826048316 504.99671669487674,839.0218488583322 507.43293802397574,839.3669229396486 509.6271026045154,838.7175105940453 510.7985719708912,837.1001215417607 511.7345037926027,837.1021367559991 512.640498596802,838.8217465806298 512.0370645759709,842.2337962716072 513.091064048243,842.3778353349704 515.5540974146463,839.60436896249 516.9348266525926,838.6751424324292 518.8053920968571,838.4398696876533 520.404747061268,839.1125241947846 521.5633263949204,840.9941952628545 522.7075680339577,841.4666354116318 524.8685686588461,840.3746434786443 526.3350478317589,840.3080716598456 528.0233215820937,839.2409012042559 531.3236429030717,839.1138850470641 535.3600267549996,836.3552046858458 536.0699910696544,835.0315925271141 537.5134599164107,836.4675581637975 538.8782599888409,836.7828382382837 539.9005881010196,835.7839508177158 540.1136840431867,837.6651967400753 541.5854113868733,839.0592744854067 544.3314571423833,839.4632313163554 546.0305015536057,838.4987573183271 548.439916624222,835.4270796381143 550.9330501843433,833.7452150201452 553.122273442175,834.5443490019532 556.1817235493621,834.4304809357164 557.4132521062124,835.8683957630165 559.1697517019018,835.7782138297318 561.3553200344014,837.0512947848295 561.9841077603145,839.9264055681309 563.3429131523695,839.6641957389522 567.4746719443173,836.9547179935759 570.6576861162363,836.6643404310374 572.4899147777442,839.2271607297722 578.5806055105661,845.3363610453508 581.0081655160366,848.5013402275243 583.4324939200942,850.3371211497827 583.9972443105174,852.513834605556 586.4229744890389,854.5658070208292 588.0466746111508,857.3067857603095 588.4086703873234,862.1712447637768 587.6284442763613,863.2611111531719 584.5909400757959,864.570239972122 580.4926622241272,869.5344880495904 577.8696860046508,873.5058614744684 577.5042596945563,875.4347977358234 578.1768701959434,876.8999598721764 581.7987588866026,882.2864473795719 584.5036453173793,886.7875535692016 588.0507579197007,889.6824357010044 590.3465633856412,891.2330023641903 592.9998665861818,894.4783221824725 597.5200986204621,898.8575718567063 600.2865737343061,902.6471691392662 601.1432962900069,904.9953211720673 601.2266366858287,909.0735912495959 601.7567552945012,911.6416036303684 601.2748299598956,915.2620194067795 598.9717961930187,922.8569806653637 598.9108418153527,926.1333063361906 599.7692295734105,929.5227275924531 601.3733226441326,932.1419725610684 604.0748536247355,934.3380455607357 605.2687007656257,937.4759405982438 606.3435484991419,942.8939151507932 606.4270954453519,946.0755502678873 615.2708769029168,954.0141955115582 617.6391933132957,956.5630984130787 617.6984787260373,959.3138780351658 618.7135722509584,961.9609015758926 622.0204926827718,966.3855652860085 623.6511267806056,969.4997436345956 624.3622148733767,971.7275899847866 625.6357965786299,973.2387025131663 630.1333058052882,975.1561101551681 632.9559297123128,975.9177625496183 637.9532869225477,978.3763105234419 643.2913761935957,982.7786572985251 646.6934939637839,984.3884007760397 649.9065334215774,986.3095746355657 653.1683253543472,989.1066562485677 657.160232295493,993.2043403419472 658.2274875244658,995.1915207241727 658.4197665775005,999.2498853908708 659.2481134871915,1001.5291396941653 662.1765533533484,1002.9690992886483 671.1081336836669,1005.144025938148 673.6624258454658,1005.2788866050163 678.0151185272799,1004.505973578017 681.2908227046431,1003.406099425309 684.7376430705052,1002.9013676250493 689.9546321440691,1002.4686223181155 695.1642051799798,1003.9120253174491 697.0429390533131,1004.9509609811646 698.9597109568545,1006.679785244384 700.1824449914423,1008.6861601648865 700.7304055752138,1013.2257838561302 700.1765715508886,1017.8616696644996 700.7039169971927,1021.5049052499838 702.8865507986438,1023.6859549391595 705.9570675837884,1024.0 710.6627898851121,1018.7353790220232 713.7111043127932,1015.6777542550725 716.7646179911269,1015.4244603686219 721.3772117211299,1016.1618790858362 731.7378685704034,1016.3144066350909 741.7857723454616,1018.5208249285403 750.6933032426386,1018.4916940213377 751.7478046969886,1017.6950362674519 753.7254080045747,1018.021235232589 754.577280285431,1019.7007362119496 756.7915559615237,1013.4150789482667 757.5669158005392,1008.910651227187 758.5389026255207,1006.2070660435206 759.825382470854,1003.9850788705581 763.0793310985396,1000.4391366864648 767.9415211842954,995.676711014759 769.9718316122988,992.631577342072 771.5165685820514,989.3547949224643 771.7380023042058,987.7950119613151 773.0931443742201,985.6450071750581 772.8020994839173,977.9182792919993 774.7559283317854,968.1347455740834 778.2623366663058,964.832812772331 781.0539925682575,958.6250420507387 781.6458345689272,955.0523022000042 782.3095459571585,948.7585698368285 784.6097501804636,945.751148608108 788.9297952468567,941.9355690042667 793.1631086140883,936.7186151379922 796.6867393514319,934.2006762179166 799.4485585677484,931.7856194840558 801.059670678386,929.3639862909818 804.1030712707366,926.3578456772915 807.3544968629385,918.5690178157776 808.3961898745289,913.971745231494 816.9436672019925,914.38506615916 818.9908176951101,912.1120560927206 819.7531077820258,909.073907922659 818.829422408622,904.9780168061185 820.6788782514269,903.1716682781163 822.5021947047156,900.7267809386992 825.0612437895194,899.2403893726702 825.8373085702179,895.7708455659196 825.7718610085361,891.5905488901237 824.9118814091493,887.2460520274561 824.8852864480691,884.4976338747673 823.595058056879,883.381733658789 823.3170964180812,880.5951103511936 825.4835443330218,878.6712829451645 826.0600346845334,876.9246872928417 826.5713480138254,871.8514871222869 826.5860706572034,867.0856914620526 826.9364970053227,865.8864055073086 831.478624046003,861.7907716151328 833.9914786734385,857.5974704958618 840.2551455186393,852.23358263055 845.0689188337362,849.7694356554487 845.742254474188,847.4140499990151 844.3355273080548,844.0883517503439 844.5571695800778,843.3132895261346 847.3206318116919,841.2992232867924 848.699218186344,839.0474312658755 850.0095261690813,838.0928811038092 851.1395020607968,836.0091476720772 852.5325979304222,835.486029020874 855.0718209895094,832.6210510020594 854.7021720609583,830.2697461558057 855.2180623148267,827.0412091361891 856.7227633124052,825.5181071423074 859.1753081808355,824.1467747221975 861.1034890269976,821.1882577290096 863.5270448052997,816.2676488978086 864.5634577521558,811.5708344195361 867.064249672673,808.1416533898274 868.2585434936024,805.8304831311605 868.5848582292596,803.5727784398572 869.36664312058,802.2141023333069 872.2479939131451,800.4984555726242 874.413739178556,797.927417128443 878.0207397187351,796.3849159573446 879.1678223240008,795.5353385919545 878.899588758965,792.2072016452765 876.1648585650088,790.5877441518112 876.5274158919326,786.7566801940173 874.8555729259393,785.9045854924666 874.6021182071256,785.0658145559339 876.5635589343472,783.0934293909737 875.9222277973508,781.3948356879051 872.9466435618784,780.4590389441078 872.7552847671639,779.8958671374482 875.0243525235157,773.7035867295549 874.7603377124157,772.0198212263502 873.2455492785048,767.8766481470652 871.9911216110304,766.4228512050865 871.6356413282157,763.0443292015362 872.0983632824394,762.3274515291167 875.6910273230111,761.9082213614874 876.1082829339991,759.2595847003575 879.1664011704911,752.3271229813943 879.942648487401,749.8998053682649 878.9968925198344,743.59870254183 879.351146098598,742.678449251049 882.0186454294391,740.9768662310778 884.2433755948142,738.025117496969 887.7930307639843,736.6391017804247 891.1274437000878,732.9941194247134 892.8732917468907,732.2806337094742 895.8654346045907,731.7458501356869 897.5876844519362,730.764739680111 901.189438926323,726.9508947333925 902.2847718463415,725.3110146923289 904.3149463938399,723.5862762733499 905.6498405282597,723.1978053970831 910.0767213526733,719.1971579225078 914.6361831099365,719.0506187666176 918.0049313038729,716.5358202961766 921.2466171970461,715.2861622452422 923.0901774151401,713.3788960220012 924.5390711243759,708.8558254716611 926.1950335344475,706.6732855372578 930.0798124794684,704.5717696428012 936.3176015411904,701.8816701400891 938.0696776218,700.2934357215414 938.9500484481872,697.9070334171261 941.252635591605,693.7723756193753 944.1564298319704,689.9068011850841 950.3971639871193,684.2046016996521 951.9449676115565,682.5789747300935 950.8221597274947,678.350930713253 949.1044861621747,674.2146612237752 947.3735369663326,671.8663140446332 941.6024935688496,666.7820064115534 941.3448438024315,665.6770043279569 947.1843102695842,658.9135709172641 952.0413763175133,653.6439378232286 953.744139683528,650.794060387519 954.286363048426,647.0472629602198 955.3397697417216,643.9490339079239 957.695488971475,639.015202726554 958.8941890399778,635.3618369903826 961.6191746530377,631.9724248586267 962.6418065229271,630.0878891112303 963.0608762536607,625.8400251783296 963.8611210514789,621.3200694325217 962.3397625604422,618.1179785051238 960.943732848523,613.6605657126353 960.9703486521671,611.5242940598331 960.2260192432437,607.4182381991354 959.930078334057,603.7252858508404 958.4281369850657,599.8051642271498 957.7938619722938,594.7419794576266 956.5070099933885,591.0335374755791 954.2389439304179,588.7877903347327 951.0754142121492,587.1209826506745 947.3047121336892,586.765118560013 944.6546975983371,586.0646969805716 938.9407333504483,585.8400244467578 938.0779158372566,585.4314191545193 936.463498204998,582.3749951229152 936.0733665697762,579.383857287936 937.1277927181611,573.7330483286487 936.8757083297954,570.2772033016616 936.3407846690504,569.2478409592047 933.7765849189644,567.0890327956686 934.3495202504964,565.449092836803 937.6536191650579,560.2583725941602 937.3915364346085,558.0761721976447 939.041205735204,555.0653726232442 940.7024250879084,550.1462622003305 941.6548504445686,545.4423113657499 940.8650189839939,542.7965177887943 939.185793263583,539.1680830256643 934.0380690474533,532.7364759079661 932.5137931537222,529.7832651760682 930.3679140705813,523.1975872016927 929.8777061885186,517.285535761031 930.1256339925868,514.4197781315422 929.3375277278319,513.8252378884872 927.2603505105925,513.926916493323 924.3961479662127,515.5583726196962 921.9839433729439,516.4555162184079 919.4112135165432,516.2561706831665 915.3091356314147,514.6834271188718 912.4974286948296,513.9444054057576 912.1055408384855,512.7595972558834 913.1488488940026,507.6778890952189 911.6818505934307,504.6734195622796 911.7158849491551,501.6875846070028 912.5832221592702,500.4031079749111 911.9926311626251,494.7502789131821 912.6765275291209,488.08361178974053 913.173029255061,486.4763861747132 914.5573338263658,485.1028252971164 917.9123601139746,484.2753790197903 918.9981611282177,483.4905072267603 918.9723699955439,481.69736797661096 917.9178611875341,477.2617019541033 915.9886088872071,473.56630514861195 914.4710252828779,473.04515557494744 907.9109096474459,472.4112896103461 904.7984998815041,474.01423344208183 903.0178476019989,476.6438755848909 899.9954477956995,477.88581774611805 894.8923594421175,478.933627041054 891.851310775861,478.1657708219385 889.1473529694002,479.4644739107424 886.6629222369378,478.6083989865191 884.4766227310192,479.080304468083 878.784941171612,477.93949605162493 878.6079398042965,475.62418836975394 880.3860532502405,472.76871633893654 880.7979836897002,470.5683645748326 883.4672705035725,468.2146212222848 885.1096443378312,465.9353874104912 886.9529660542364,465.0170408102548 889.4267247962945,464.43931149888203 890.6298355103544,462.49420630667726 889.818744782184,458.19952575244145 890.5362200261208,457.17519868726913 893.6063017671155,451.2055780674465 894.0634259673863,449.5187831000911 893.4074109634439,445.96970154134317 893.5287533644677,444.4008205327025 898.4785960770079,442.1776659902973 899.1664250954187,441.16371407173756 898.9727797011003,438.3257874147537 899.94014946739,436.0171646785383 901.8539450279184,435.4054973750175 907.3397722358164,432.4064101219784 909.548992790364,428.86945716218145 910.6674894783752,423.67631581006583 908.7727334909853,420.9271993927224 906.0433060965748,419.00793457529085 901.6728746433181,417.9027081633608 893.1979509578798,417.59172578890445 891.5695643405467,417.29671919801217 889.5311961823177,413.2471199157752 888.8440762202255,410.80720970352877 889.3091825163856,406.97870288160016 888.8805944096595,405.9404431891512 882.8313781803896,396.11685308314907 876.849870445808,392.4603636292386 873.5069664987963,389.86405769079613 869.5491096411808,387.9107962454883 865.5298710859183,382.22941206046835 863.1770239227452,380.24503894897487 861.1344242776474,379.15593743477064 857.9917077104874,374.2614794045593 857.4281910465816,371.73944456265303 857.5248467186327,365.49095206308164 858.202859198161,362.4289270838492 859.1820313598245,360.2537571227168 861.5130211159478,356.5041789495464 864.6218063738672,348.63673973087907 865.0329489131633,344.35068538908195 864.191081002618,343.22494567637284 862.3775076652324,342.6570145728349 860.6665017760039,341.1951762937904 859.3523034828029,338.51019174225064 857.2402132815658,336.52237527161765 855.4069577796721,335.9431298149948 850.4752865682908,335.64279395201015 845.202175645753,334.93717931935055 840.7175424971632,332.18208500515505 836.5558704688531,329.90372431509536 832.2699507288503,328.2929857250682 829.4593570857412,326.45729077411 824.3785116639255,325.7579895859625 821.6983545279945,324.2483615414577 820.0461628363485,322.7764461142708 818.0723435619431,319.58838484426656 814.2456725851661,315.6056663458518 811.1888688611708,313.9575400309874 808.7394735418438,310.34588864490513 807.6867122145371,306.28587598095874 806.2789633957618,304.400795299954 804.4983628534833,303.348621479956 802.4430576380946,303.2741479473367 801.3179841503336,301.74337863784353 798.1282400635233,298.67415222818374 796.6561082594368,297.69082484299304 795.077264535833,295.16322429024865 794.860561759178,290.41737187278534 794.4290319734406,288.2112864738299 790.0704365642085,280.19504238048876 788.1125702246927,277.3342409557308 785.0320204209957,275.16421558840716 779.9510399777438,272.7035750458749 776.7083015917507,269.1330001582086 777.4009885334058,266.31059981423823 777.5152630818948,263.99708061269564 776.8353647094948,261.908751318197 771.6869747361656,259.4070328146381 769.8168710373213,258.01877438314284 765.739219609806,256.61881730347966 764.2782558037921,255.74804315406698 762.566825720594,256.22986262114034 760.8916864650006,255.7915327674648 759.8707272033928,256.2343646451312 757.1355542319642,260.0239012376794 755.6205690968832,261.5989280751884 753.8729081425876,262.33746446924556 750.097613541589,261.3211938698296 748.1305605687218,259.8521048350568 744.07582034038,260.2415402940152 742.2703680418158,260.1311395926457 740.1018460201938,257.846493953655 738.2377619872487,251.59861795706468 737.1184048615893,248.82941204184704 732.3779143932712,239.65235820249052 730.9125861257917,238.29983786127616 729.0329112999897,237.63862969813977 725.7061175656099,237.86351115958917 721.7092508486559,237.47348090383525 720.5241473661854,237.01834754439176 718.3227072089454,234.37552811863713 714.6526422085125,228.57073907351742 712.6272433602887,224.57623962002037 711.6711314909871,221.75604233645674 711.4764845994313,216.86943401016367 709.7924410663617,213.32189937590294 707.5849424224839,211.63151562556425 705.832515870088,211.13161039836586 702.7317748289282,210.913185147636 699.3931466244068,209.2880197859813 697.0889275077599,206.81072848438487 694.3148303903629,205.85177360268722 691.8323732447085,204.33770791394454 690.9323812026037,202.92761413227117 689.9147952471205,198.93191256620662 691.1546070162726,196.7395555056312 690.8717357248794,195.57695945489024 686.1768102726444,192.77167372698455 682.9619146745644,191.81915596484646 679.5626534804106,191.43026846955104 675.7843784804,189.85972205523274 674.5705318381034,187.02221333090677 674.411930870002,182.52619481965212 674.6247661797368,180.3162348684274 673.8925687497674,176.81832728998484 675.1440265967376,173.95134543719246 675.4154403188039,171.80227552218366 674.574348463853,168.8786569192274 674.8578971975384,166.92282418595187 679.1546896003526,161.44374761733798 679.497466977355,160.42831336099346 677.9404228120794,156.09374372945433 679.6585790470875,153.1093537368447 680.399809998872,152.5374885346681 682.6608884799857,153.20502985451787 684.4035991871848,151.4579040143085 686.0482876795957,151.9079012305118 687.8019402626962,153.41944384334704 691.2347725682276,153.53113110528955 692.1676265753362,156.96346518515372 692.2044730108594,159.99841912666852 693.1114196819033,162.81939459513865 694.9706847396433,164.27796136667837 697.1709128729043,164.6708776854192 704.9964610963485,164.09384970497365 710.9685135101291,163.97023750986864 712.9448774156241,162.5047684537874 714.3052585106631,160.07565837750417 716.7286651523699,159.1761350625436 719.9948344910198,157.36791204763222 720.7934667284169,156.07018082960383 724.2235923755887,152.79863542705084 724.7916077590127,149.9194168150674 724.9163648905967,145.3912074106172 723.6091060874198,140.48263586408405 721.8669134022233,136.7641316588314 722.7154866600937,134.93430094374844 721.1339656122618,130.25401594656148 720.0109257517626,127.83706279578496 717.5263590451469,123.83119292266929 716.9066652541325,121.75604992461376 714.3718602747704,110.49804949238273 711.6370253143482,101.64617046249771 710.5852329573403,100.26965272453481 696.0862792265343,87.55814264631829 685.4240014692996,79.66147592614914 678.7627089568298,73.75834604712338 675.8815181306344,72.36334037627512 673.4491281147548,71.6261151048866 668.7282914257886,68.48666332428229 667.0421578104256,66.8121354152205 666.2522101676815,64.0640240631277 665.4011531310714,56.907474448996595 664.8421028380395,54.20817454607334 664.879019873254,50.063581917399915" /><circle cx="427.2348877790335" cy="447.1344298723674" fill="rgb(100%,100%,100%)" r="16" stroke="grey" stroke-width="8" /></svg>