<?xml version="1.0" encoding="utf-8" ?>
<svg baseProfile="full" height="1024" version="1.1" width="1024" xmlns="http://www.w3.org/2000/svg" xmlns:ev="http://www.w3.org/2001/xml-events" xmlns:xlink="http://www.w3.org/1999/xlink"><defs /><polygon fill="black" points="649.8893715706774,282.78823902847887 651.6632688297169,280.25690841701703 655.1685639802558,278.5075568608779 654.6650953813418,275.36098255131594 649.9156036851286,274.83173186987153 644.2963259144135,270.5264320129194 641.4180422564598,269.1754049978639 635.9401870988956,262.336202304929 634.6637879708635,259.7611468097898 631.6937732395294,257.33488900567795 629.5779803494606,256.7002579947807 627.7733567094483,257.8892227086709 623.1482733485082,265.2717001627577 618.0164116671457,270.22354403121824 615.2560640592974,274.9364632861441 610.9444607314194,277.49831588142854 602.4959540217986,277.5402100002043 598.6998141092662,279.3312764324479 593.5205894727366,289.3964012441809 589.7998456834725,287.5880819487784 585.1415546285128,281.76416763861107 578.4265611031148,274.47571892912504 577.3660506535622,269.78535466177755 573.6754172091034,264.7451887091943 568.8288822785719,265.1870289664971 564.7138145814957,266.5812238337354 563.1577213383742,264.929336141356 566.3502062563488,260.6777396244854 568.2716082698414,254.88252662153525 565.3434286695857,250.9496977454114 564.087369403214,243.97908080233628 565.2923910052959,239.80926519449054 567.9967304783926,236.78871645446827 580.2201045592542,228.9588476376839 583.6292579252022,226.03182687801734 583.6349126894706,222.50793689050386 581.3846451086644,218.9374179973081 577.85315660874,215.32581809553233 576.6586107832031,205.73796350209182 578.3387306947603,204.74463430580352 584.4186225287317,204.05705765997664 589.6358508367839,202.31391493937372 595.0908886121086,194.40845168578437 597.2305763384342,189.70642580096558 597.1196080632279,185.86749534471085 596.077980831704,179.63654326567757 593.4143124497218,175.30879008039494 585.5654108656506,167.09228146108967 579.6030519226621,163.6701357294686 578.5445521166198,161.80658992655503 577.7746300787082,148.5672007523641 577.1964580289055,145.39685962529472 581.147060897773,141.26165879253836 586.3722654005522,143.25298084729332 587.7182019581861,142.69371800937392 588.6375587251861,139.77265715657268 588.4538098876131,136.56883399806316 592.3272407373203,134.74563132687956 592.9740840615518,132.90098554212068 589.9090431590467,128.03062807019353 590.0672886837951,124.5279554378094 591.3295918667263,121.61355461906703 589.2935674926648,118.46283527200796 583.7134054530673,113.06372436448748 581.7182505666476,110.21997754475183 576.6774143556794,104.64672606113936 569.2391308607241,102.19087441495242 564.3988307392971,99.2274606586077 562.8021558088235,96.98049259164804 562.6732083134696,92.94604458871561 560.5586291632601,90.8939532778669 548.8890092237224,77.41892627824348 534.2371255087994,74.62995287578008 527.493653893431,73.93118956729415 520.4827090801524,76.8398152832151 518.9347196830959,80.58908056344671 525.1578078411148,89.8835723825224 525.244897866092,96.09715513198887 524.3171795330475,102.14082367881713 520.9214573103261,104.96299748028014 514.9640288376239,105.55934300003253 513.0879244629343,102.37802646404634 507.01220567358024,99.69103352077593 497.82592656048826,90.19446800991489 489.5201038359285,79.72641256914414 485.0553413439181,75.7741131092746 484.8353839813042,72.24783677005962 489.6098002305517,64.66272073322102 495.0949320008049,53.58168048615255 497.0782222735398,43.54710340557165 497.325120735347,39.11689484510441 494.43128994083673,32.859227286921964 493.0618140028695,28.644526493931266 484.4442495723629,23.714755582301905 480.5677441982646,22.248581518859964 474.92345473723606,18.634005493085738 461.7064483742019,11.183141004118625 457.437652621165,11.069632030605362 444.10463245648197,19.052701683982036 437.5476748560272,25.714078534280702 435.9460491076797,33.12616282809188 435.9122318176169,36.400578285568486 433.6368091320999,44.43212965676764 430.6774078627635,50.42603690030239 426.14522604988724,54.97485915206232 423.70557360673536,54.34556230822591 419.408198438436,47.89889052446199 415.61606655584796,44.78959470426457 410.6299479647786,39.21459601540471 409.43901947251106,35.67051523998953 409.9604718088965,28.246404855902256 412.3663758994347,20.22214343445353 411.01305876957605,11.339112868322331 410.157848238978,9.42066301917066 395.3639590906126,6.07384236982864 383.70092210614297,8.704153012269671 376.7231144314192,11.788169887724848 375.9445136236382,14.65876521438122 374.1345137264748,15.280643867826598 366.4241471058968,11.941933863460577 361.50777695632684,7.148668669500125 351.1677947841997,0.0 343.05227618274455,4.5361477358151205 326.3283969516123,11.267131483774392 322.3944124668379,13.42458983545896 315.6264861801662,12.904405794374384 304.6431824001144,9.103019703632185 301.9556334334284,7.830371409792747 299.13063858725945,15.4821118080946 295.5035050449269,20.716189686455664 291.06143554013835,23.58155822168817 283.8783014567568,29.525558376209347 277.9188613358484,38.42818656159466 273.08355571757846,43.77726518888471 262.5817560572965,56.64423409814037 261.21412803140504,60.12321412727397 261.73355819034833,62.56876824164385 263.9523599244432,64.65889716526021 262.8393148011215,68.64349905376469 264.65178953964397,83.42348304183668 263.7625622978042,85.74497297286905 260.6565408429343,88.22681420675099 252.90269074895514,85.10536585203965 249.64841244999133,85.78999159494435 245.78025513081414,93.88628025983553 239.54663844272454,98.2471428347726 235.87445072874777,98.80915421987277 213.68207572179813,87.46437214084074 208.19885107782602,87.4680336086692 184.653224087299,93.21136451000689 173.96517834487057,97.55888631429661 171.6059728853477,99.67820414982486 169.25016604831944,103.8361543251732 163.53230676922888,106.35547214035944 161.4250271582575,109.98005199879833 156.71089896763127,116.58421267803851 152.95891456497932,119.78767845608559 145.61636930442452,124.81257306618431 139.9132906122012,131.81913374417468 140.8820574224139,134.85475281496758 138.6541886252382,166.94015623786163 131.54131896046755,194.92436767285756 123.32927165649805,208.13721714339397 120.29159049082591,216.56808954398014 119.84318894416792,220.3682592661445 121.66066497757815,228.8520022642457 121.75687936962618,231.41113769139326 118.24431379379953,236.60153955821193 112.20276071634704,244.54691607479424 110.50972632099118,252.00864543079945 107.13260605795767,255.41419622951253 106.14640001986679,258.7535397662409 105.09409834688132,266.1020077400934 103.34578873484143,271.33475218827675 103.91697598395822,288.39514556266454 103.90971944111462,328.82804352896164 103.5431984963096,333.5427803312449 104.72180881480055,338.86488723825005 102.10952450367047,345.41579962178275 102.2581726835257,347.68598228617645 105.2649171705476,352.4444826903855 107.66265170704206,357.4629027746754 110.2113511704892,364.5074455444708 113.69322682943499,368.8180963527458 114.50089818052571,371.8665382625687 114.34715019772123,375.40188368383986 111.98019864770187,379.9849995476686 103.54395700507445,388.55950406512784 102.43303958953577,394.0201152306853 99.85647828410335,400.7764086919275 98.67877428093044,406.3087506434773 94.96360178207695,415.2530322228572 94.26755136676,425.8437582032566 95.70589417331891,435.8182075243741 96.11468414643458,441.0083142376949 96.02197652904688,448.81585840056425 96.28532514183308,461.4155660468789 91.34787539260746,466.8007630372731 89.08517309048896,474.1113635153688 86.6079112788507,479.39140557992687 87.79398347763546,485.9867098790347 91.66157732352882,491.0825083344722 94.46493254866313,496.1392575038532 93.79840321600832,500.0621735821527 89.76694324691748,504.1293154257893 87.17423172597229,508.4320086162695 85.24414734247132,513.1546179910046 84.01086158752157,520.8003982657167 89.2315403316478,535.7202926789303 88.04201894805102,538.9837712963727 80.76226753649132,545.7045165700767 79.80575737564517,549.1191733836961 79.71563430592695,553.5261988617049 75.61489564952923,562.8717832182919 72.78792401454217,574.0485198071898 69.97874402856704,578.9906479407788 71.93640567927487,583.127811364336 71.10304492094924,597.3463374973887 72.19510284843068,613.9026083815043 71.79580085131191,622.9519815326405 64.58772051536364,633.4545882588051 60.977972484200265,641.5094697515099 63.52914307222123,650.8221369482325 68.27757083447305,686.0390381223397 69.04929876989657,702.4445671358733 59.725417837459496,720.5410599528282 58.55448335608565,721.3053429089296 51.521335579289165,738.5307616460022 49.61710046089198,744.6762499548215 46.43909800900593,750.590299184905 41.92303028751199,757.3782310207021 40.67300783831139,761.5874960488254 37.826190316432985,766.0007178144294 37.194643157013445,771.17105375272 34.82169108098387,775.7230146590467 29.21404335262347,780.0385333580906 28.08158698007393,787.5477538064758 28.247417184342446,793.3026869420731 26.530705116572793,805.4097637247387 26.846230905802535,809.0878741366753 23.35488819944567,810.9886407904527 13.852420615366393,817.9626086063791 2.090744838406838,825.6897350403867 0.595214583125623,829.2448610521129 0.0,833.2308156705128 1.8849518189655126,845.0590543662977 2.153421327802679,856.1381222828261 3.7187318058796044,862.9598997940304 7.281729177051986,871.7712884504875 13.262829059811086,877.7259188897643 16.449897326914584,879.1667008955066 19.89300530009655,883.4701562124164 23.242011560031077,898.1875045992249 26.149845646081666,908.4082520077307 29.280601708505404,913.5564886123719 38.97361655563176,920.9680105944649 48.343010496101,931.4968519547333 62.74256489962435,951.9486168770526 69.66898281754743,964.6588234194897 78.46756090280046,968.8189025110387 89.1348019004781,972.4034892204284 95.93602114648591,975.8207532411551 99.20839509230527,978.0921093522237 103.17047583060857,983.5345678428209 108.96349186590237,993.5106037990649 110.154074510869,1000.8792381001455 118.88539084153714,1005.8018430856062 127.15984522998819,1011.3573703327523 142.64478325561538,1022.604016711156 146.36143378276822,1024.0 150.61431539349093,1023.9929742396806 158.58975888525106,1022.3096484747816 169.1620882055592,1018.1486775324693 184.15815271268625,1014.5634326146429 190.84565037506562,1008.2627846584248 194.1362508042815,1006.584107759341 198.44708186543988,1005.7207491902071 204.10163853807816,1005.7119945028194 208.40698590477422,1006.6793896923351 212.38900714895124,1008.6690619253069 216.5319154846861,1008.8303589482525 220.94285751049847,1007.2800409207381 224.91978645272636,1004.0026486034272 227.87169146844323,997.5994988691161 228.30452039676499,993.0316754617123 227.60638028778868,987.6469830571642 224.32932235988505,975.7012781249206 224.32765460634093,963.4413766836327 225.3531894964031,959.6183113638206 232.71320758152007,948.3890066848977 233.52280908106476,943.5132061061722 231.8518719175548,935.1084777883012 230.02970910027688,929.5587945734361 229.86679619694175,922.4595973353975 230.29783170803003,904.2332059528806 230.29146257909088,896.0000326441975 232.6078046362562,878.6277670753586 234.00671460882631,860.2968878152712 235.45544631227793,855.7258361900232 244.69105325850117,835.5264483377119 247.12365444383377,831.4368322680943 248.10393071133996,827.9974230827786 248.11566370627074,824.4429354118724 246.19808855735863,817.3409460569576 243.0905397299888,812.7187245904522 235.31967211760838,793.0706141838809 239.2767173187793,792.2839035871448 250.70966370141923,792.3144557576019 258.38864650871176,797.505739566461 262.1168487781744,799.3425044355977 269.25381656044203,806.0012357583491 274.5886605706591,814.0378629854289 275.10336773656417,820.142569461647 276.2967301668183,823.7243226026451 279.1578502111292,835.1383898856486 281.4165186641435,838.8694450386797 289.75856435235494,846.2101857800631 290.54279573772743,848.4986878759543 291.31682033329196,856.44873357216 294.76627209439823,864.1279808733542 297.97778877002816,868.8571052286192 301.54776186160416,869.4235454872033 308.7921219246177,864.8838196470656 315.9983592027685,863.2259236827364 318.77715180198686,855.7465195950394 319.21503195868655,853.1842825133557 318.8603202565769,847.142309853933 320.3743179515029,844.499777668731 325.15764174952596,842.1462465659184 326.9397469327339,842.049807046548 331.2358599682304,843.6763535804278 336.6605246668155,841.242304338437 337.1488247058877,838.381340071331 335.8781369171161,833.627726120212 340.03340889090276,829.0420122256595 342.3290495214639,825.1525239724482 346.86343669132003,811.1165373486958 355.65693965386896,810.369204867442 361.55336833579264,810.5126351706613 362.4177217020747,807.5062031001698 353.1928814789739,791.5306052437656 357.51976364728205,784.653898683315 362.0694845388876,770.4226793457153 359.7260681478874,765.0550848529004 339.61266160007744,753.1356659697037 314.3333795749885,731.953922857391 306.55742216217857,722.4040668803136 304.4893961200069,718.7194044085452 304.1129838661949,714.7413263777387 305.73504280001237,709.1230505928922 302.9671020381322,700.6804616369536 305.03252145777356,697.7399672722211 308.23469823971976,696.7982548760828 310.83112199567825,694.3350123329567 312.45994098302697,691.271506160964 316.86771877899776,685.3150474154919 320.8142979062516,678.8629387174406 321.1796293894249,676.3202558318069 314.5746933683867,667.0258461114117 315.4976247251972,662.5753795225326 319.6391085380891,655.1202901793461 321.7325171421959,648.4055296513718 324.8091091425358,643.8701273101672 328.0821690342253,640.339770460593 333.16047096432044,625.1194541004027 335.54248833828757,616.2283241495629 337.08017082411254,612.1164001725779 341.4564909224004,610.1168910563772 349.97024655422507,603.6697986722247 357.5431055891028,597.1706561400367 360.31411148027354,591.8181871859492 361.76448213325546,583.4497167880004 361.3240636287118,576.5575392101775 358.57125175589164,571.6466622066932 359.5246032885566,568.5456313155464 364.6558019539435,566.1713623439634 368.06079489721964,562.3697143421233 371.84971290043404,559.534363257152 377.469794101029,557.3855006855365 382.7776006650897,550.0706519509711 386.93901928021546,547.1604819235127 390.327994271764,546.1694520962008 394.5106887179118,541.8483327639914 403.3788980680942,526.9294577597666 405.5726138912364,524.8846519923559 411.94662236459294,522.6248212176113 416.7883515970371,519.8303194134572 420.0534552869011,515.8513883170694 422.63063750405956,510.5640115275776 426.4489787204249,504.509005544705 426.89711383571347,500.00265305907544 431.54058280451846,494.34553496711874 434.18466072737033,492.42298268683817 440.3121139604352,485.623413940197 444.4790578248806,481.88983709041054 453.4919028125237,470.33566614683036 459.27515066178677,464.1158071108655 464.5869567945248,459.3258355055913 469.9134012501399,460.9150191594807 479.88282612304715,471.6720940483692 482.7069982861749,473.3788720124089 487.3517398096162,474.8301980265413 489.55695192082385,474.57244110329566 493.5945200658735,469.88823148233007 496.0568091710097,466.03835184026445 504.20232585574223,460.40036935628655 506.43558764900865,457.4512904443411 504.5505117660271,454.55186710688156 496.73076371593066,446.46220066019055 489.0733693831309,437.70804694383105 487.8234628850114,432.0900137853796 489.8656343510581,426.2453174205434 490.3186475186154,421.43956811880696 491.88028408173125,416.96247559975245 494.0612455881211,413.6769627339778 504.62460349477305,409.8450820371544 512.3879670633579,407.3976145223696 518.2858909563209,407.9019617834705 523.2034189832119,405.46427638791704 524.3428250538736,402.93975762418677 526.131863192799,391.8007795619011 528.5689595138714,387.156417163068 539.4269811103683,376.36231045146155 542.6571743767978,373.50570741239835 542.2737697783033,369.71677046014145 543.5624540940407,366.56089820745024 546.6413296843773,363.139242299658 554.6867431750248,356.93098799081747 560.6989009395294,350.5044577474049 564.5614094335507,349.03199224749653 569.8284688368495,342.2757991909897 574.8552180190834,337.1952048202595 578.5392323040754,337.96209692269804 583.3438020337114,344.1855514480701 592.3475374704152,353.9796215124783 594.1776534638556,353.53767827544937 597.287010830537,349.8675250478191 614.4810462942323,335.72315584945113 619.5443854507398,328.24333475772744 622.1987775269944,326.50241647053883 624.3424193120117,327.2000954389846 627.7122840957479,330.13832789461446 627.1632457164516,325.8198864043587 630.8410160839128,321.4519388829873 632.7172557050769,317.36468531220385 634.7399360047249,315.43991854242756 638.8594251301981,308.2853037183845 640.1155191379484,303.2996943301255 649.1982263653891,283.7700569699813 649.8893715706774,282.78823902847887" /><circle cx="263.724490352367" cy="470.6202440111773" fill="rgb(100%,100%,100%)" r="16" stroke="grey" stroke-width="8" /></svg>