<?xml version="1.0" encoding="utf-8" ?>
<svg baseProfile="full" height="1024" version="1.1" width="1024" xmlns="http://www.w3.org/2000/svg" xmlns:ev="http://www.w3.org/2001/xml-events" xmlns:xlink="http://www.w3.org/1999/xlink"><defs /><polygon fill="black" points="158.2319869055561,455.36581773882745 156.445614096551,464.03089388024887 154.5547292741695,469.0112960739093 152.6873168183421,472.23437673330386 149.7278937488988,475.7166149019971 144.75813588675007,478.1283078471116 142.74899237625615,478.38853780389786 138.33354561079994,477.7049676141802 134.5784265256165,476.07963046672853 132.1646315173396,473.51150145474253 128.8049184015832,470.95577970405486 118.60997063691458,467.6876635321804 116.61061424910876,467.42019893337863 109.37054933518468,465.10736278652973 104.54815202495504,464.4187224964113 99.71628804800879,464.80664738877135 97.12240905793173,466.4046288253684 92.40655383902464,470.3236570092322 89.5048081467362,471.7313206272148 88.28120351133481,475.70771834229265 86.91236004459499,483.7476098475314 85.13751228498437,502.7605173854349 84.64799744625549,511.5325331173983 84.62653948757105,517.1698264486101 84.96813796076586,519.9894665248454 86.37304219471923,524.4813229468912 87.77839987451596,527.2856894632407 91.29206039389483,532.5333110001312 93.22033890034008,533.9812279589812 119.48234210185257,570.3655042730106 123.19914179363235,573.7724121276108 124.6582129450692,575.7438944517089 127.73785257972989,584.1978291717508 134.67019944514522,597.9066910127513 136.56305101028096,602.9837372208942 136.64156283224548,606.0103972899284 135.27578303492868,608.8539868041662 132.54002438773958,611.704496394747 130.41682729186408,612.2516938833307 127.39589188421306,611.9155735119996 120.29083341211833,609.5379915607875 113.97327488059138,606.2564019436095 110.61628965220912,603.5565166572723 101.67347512112892,597.7686653202952 93.00770978483595,595.8379040609934 89.72587815941344,595.818590613062 80.78734774780084,596.9593758186708 77.09951132280041,597.7279586191323 71.4759044515132,599.6497992088537 67.20840655754353,601.5841815492872 62.93416316561241,604.301481328125 58.28207058177126,606.2294469032704 46.434362495793295,611.654479931996 34.198236183032044,619.7953433709229 29.535558171657197,623.4826065363554 26.433886864657044,625.421813205966 20.21027868916724,632.8061420004606 18.073784237365643,636.1159477593793 16.33319726146807,639.805966902833 14.195588932759277,648.1779659718165 8.753570108017463,659.8534812511299 6.814953103289121,662.7755050017947 3.5080032543237714,666.6582833334751 0.0,669.384844951316 4.8069547986952985,673.4329525795076 6.8240672458557725,673.7238021440658 13.765024175503832,671.6050070379002 20.106888814570766,670.4783211618812 24.117827278873552,668.5185193850332 26.18429361504489,666.9979728539581 28.723504200828753,663.2458186253193 31.088413126220846,658.7223253292543 34.03040397456956,656.4598896571508 37.58170783984484,657.9197813244307 42.812227342355804,658.8612982829816 46.04134237229443,658.8807163212634 50.01520411748957,654.5718755238352 53.30911639124173,654.1436075412364 57.65965947399879,655.4809030211056 58.825171440031454,657.2151591504906 57.7131858506616,658.5109807080529 54.0857625181736,661.11716020564 53.742832057947986,662.4332342554773 58.37197225538771,668.5057134371453 59.300959590464814,671.8688320331623 55.20334386618004,673.8416674817519 54.44789134936818,674.9088068070544 53.214886995463274,688.9952156376621 53.03690806547284,695.9429035269311 54.63010732057564,699.8769832434582 55.34719073973261,708.2577152586852 57.95527841050324,712.3636488463274 58.19292604695288,716.2848215707253 56.55001636642608,721.5840910214779 56.63407607668915,723.8608162607825 57.89621948453846,725.1061147568389 61.57605062794612,727.18587017501 62.80044216377401,728.6131393945943 66.540484373549,739.1433714296306 67.18690009445116,743.7523189434075 67.98540193906271,745.5132833991281 72.29586675990335,745.3464960697835 75.59876235894865,747.3281483819575 75.7671142329048,748.2715351724231 71.51482107528095,759.1273415692839 71.48376896370083,761.0408887085752 73.82215182244089,764.8453832848222 76.59173307483904,768.0555776404567 80.72782595466394,770.7700231809904 85.89044081538165,772.910880480159 87.84901073343023,773.2725719536935 94.35237712679024,777.2176216101604 96.37111909447863,779.8878149555117 102.07569821193103,780.120680396283 102.66051718941547,785.3412113561463 100.20379818451599,791.8842294244253 97.71830829998093,796.8506267483984 97.62049557040328,799.5795599245303 98.47569473922235,801.399652201144 100.59963873966345,801.8916791225411 106.34934750093502,802.0212514764917 107.92056177923389,803.9741302661807 107.58583210777388,808.4961760687638 109.71556903159579,812.4276123310426 111.84263238299411,813.681886915611 110.59990426423639,823.1311847963445 111.63945414259524,824.0932790374654 115.92258287334258,824.7513636094914 118.42375826896959,827.6187032111814 117.84898906663926,829.9465812739343 115.40127625750239,834.740680069047 113.29360560295724,843.4687386846126 113.26317112370533,847.7548068193814 114.332415077939,849.7157085893987 115.04590426950264,852.7498625387109 113.08994505359956,857.3844160682972 113.44475077165416,858.8052308412377 114.99684213471785,859.2334651335979 117.56063595941221,858.5594120053579 118.59512057459249,859.0037845494237 119.84313036974821,861.5006144312206 118.94831556376164,863.8231595897561 121.12113190363651,870.4721287446401 123.88668167941354,871.9942457766658 129.42659345557894,871.3413341672751 136.30794743266034,872.575998947378 139.72660669756425,873.5178995083038 142.29664935712808,875.0012304583498 143.51176049181586,876.7469525064328 142.21531638300678,881.3748115715792 143.37381442940335,884.82135121853 146.4046136576766,887.3151642355907 150.71902266614478,887.7889066412213 154.94380573093878,886.1863667021078 157.05804083712135,886.4726396488144 158.18278769392836,889.0134575244267 157.32785990155156,893.1794304782605 155.5438612140876,908.5146883986417 154.1164803752536,912.7686663244301 151.37760144086812,918.2016546067357 150.39469824703383,920.9832966472301 150.5673218131206,925.7971101032616 153.40249975381252,931.2594482462902 156.25746809685745,935.2645045558438 164.78369451330522,944.918441702597 169.40831268884543,952.06644134371 170.15518725662565,955.1125904618393 170.35416355240042,959.4682785507881 172.1453261290502,963.1114836560698 175.09239942545972,965.6296356586273 177.79328923146403,966.2962324819123 179.19594282723946,967.7945677778183 179.18865633054017,970.2698048590487 177.7870493879154,972.2947389288324 174.84717531943758,975.0330391317029 171.56588897260943,976.8997175351351 167.31511462427383,977.2321830952238 165.3182553162266,978.265654983721 162.4809319356934,982.1846724189538 161.86450267309604,987.2456444571071 162.67040299526855,994.77246097964 165.33244914874209,998.9756862692342 169.5929111634829,1003.4213663360048 173.14358418865632,1008.7745245075358 178.12813497322392,1013.9649525588268 182.109670732954,1016.3477482119436 185.5950598976607,1017.3700516160583 193.5810428381577,1017.171992907958 195.0279682912955,1020.2813090111025 196.48296125956327,1021.6067626945988 198.52006348761898,1021.2732634832456 200.95679126618495,1019.6305102698095 203.8570813833616,1016.800748298526 206.0874194016124,1015.6910711884065 208.90806362866545,1015.19378695964 211.40561798609787,1016.331441235487 212.5459756147522,1018.1613940433273 213.7104305020069,1022.3935590970267 216.20614133110539,1024.0 218.7403744427744,1023.2222798822505 223.86523140216127,1020.6162179963552 228.52290857884296,1019.443339268414 230.81574767710856,1019.371157024963 234.5108409804959,1021.9192072929602 237.68675036719003,1023.2808675465252 238.65749785610674,1023.1160926811585 248.2717428746306,1017.3997603008266 248.79068670162687,1015.7225310104436 247.56339789666552,1011.5214171287377 248.02541163948283,1007.4092423947715 248.9880917040834,1005.449680817861 256.2760230118241,1000.2761125868657 256.84188618783463,999.1996374213204 253.21328908157983,994.624299513196 253.82417862909304,991.5803165774672 260.723941496749,983.4362155891657 262.7186520648138,978.8655607002596 264.68165973897334,970.303081647446 266.9493555256666,966.7578173000613 268.8914931493024,964.724568622277 277.8978887926876,956.8693054648198 280.38353131043294,955.48030553339 281.8312758594705,955.673263185759 284.84708678030705,957.4339968882564 288.55180928177833,957.9221830466166 290.9914369174041,956.6157467523478 291.7200098015418,954.3229067771713 289.97533922385446,949.1426608041368 290.7445075490419,947.9716386755792 294.3116469322838,948.145886158726 303.7726526840535,947.0549093174053 305.72917030529635,944.9104720800512 309.08362781768864,945.6256924039085 307.51271633818044,955.0800095386433 305.1941393623087,967.741482328092 305.9099730455747,968.9848255262389 308.0410084284971,969.1789958557528 312.3439121236977,967.5492170130665 316.98220829185834,967.8909990598403 318.78089414723917,969.0779373801985 321.8008989073624,972.1624201962968 324.65132467459773,972.1725386980376 325.9020869276514,971.2597219491611 327.16840674637615,968.6133531534529 326.9826187479996,963.2376436793048 325.73835886169934,960.2101542203475 325.60348231194,957.9309667894398 328.0572262845617,954.3205526035802 329.5956823896538,955.9183501548107 330.9178362694205,954.4835244217164 333.587965669289,946.8176109503754 337.3473408829637,942.8837512616524 340.7296892046931,944.4740666308336 340.9094392629971,948.230210926162 342.516688308955,948.0446370829482 344.9304613098688,944.4850216305795 345.73479228269116,942.5081091796519 347.347821284577,932.8711250556412 348.6492704110537,927.3130334176227 349.91296036138635,925.1148040203868 351.0890390321969,925.0174082591492 356.63276224132056,927.799775642537 362.91396201017096,932.8098397380254 366.22067787435867,936.7339577716197 369.1218307616408,941.9173284860344 373.06036898540674,943.3363436258766 373.8223538685139,942.8580216770944 372.87310668849443,939.5913477518804 386.800009124618,938.503334298721 388.1832459002145,939.1146301440649 390.55006222194316,941.5238591285274 394.2946564046812,943.1188553000848 394.65342848832,947.758026786883 400.5437711339823,953.2839483765231 407.50061263327507,961.3009305166929 411.45158810201076,964.5422420436159 414.03273752184447,963.8632960406366 418.5488109268505,960.2210078185193 421.584859246005,956.2957809838897 421.8682108478669,952.1254696955175 422.48351663623305,951.2907236790521 428.3668436837324,948.7898047602332 433.8914742691552,945.9372103213719 437.50272578669853,941.6984048381963 440.57298986802283,941.7031914057702 448.8539816860385,945.2263378893896 447.261146210069,948.9679669648931 450.1151637758345,951.8269320697295 452.7792153069684,952.5416741798873 458.1316955784347,952.3588166741106 462.1858855357422,950.4240040352674 463.6462408503589,952.5411821310196 462.2219020235543,958.0738390555767 462.61803852817314,962.4882401149498 464.00874392927955,964.6664570352394 465.47626594562956,965.5931782191496 468.63015537403527,964.9536748490884 472.37639839573586,962.8906520256802 475.8677989084004,961.6665242204296 477.3588939904343,960.575197001724 479.6657008880799,957.3513023323554 483.4111111716905,950.5929259851449 488.0328789703432,944.1763364592778 492.1326636048902,940.0819389336533 494.42606774208883,939.1092526514655 496.75340318059835,939.9089206748612 499.432644540706,951.3264156632512 500.75243337667575,951.9172335274801 503.47762485723376,950.3584420990851 504.2454711455241,949.1958107448004 504.4122487416962,946.2394631555591 503.82465363398455,942.2447986272203 504.24055413892006,938.0942782453848 506.9848524142736,935.8104796860866 511.1720649879136,935.4716005954064 515.4433699833035,936.0075185878002 520.5918994012401,937.4549618933065 523.6356698250889,939.7824914423225 524.1582726503325,942.1362292739445 523.6194844102613,946.9123267569312 524.6342674686315,953.5984289039479 526.4569273753566,958.7548990304589 528.78492079802,962.0801095691762 531.9349454402529,964.7011001329087 533.2155490454969,968.2981983618668 535.0423398871653,978.7117372456072 536.2584760409317,981.1778580688604 538.2955913060332,982.9602931910617 543.1907611173368,984.0463593740144 545.3326336299037,983.9104899613071 549.5896927827213,982.4581768216451 553.2958797744915,978.387287925284 554.5732901981355,977.6537819556985 560.6211466718559,976.2348058259486 567.5544926357476,974.1102265612515 572.7177594417117,970.3822815008136 577.2414833105728,969.8833299971799 580.8942303313115,970.9246475134869 583.0107001111177,972.1764109151055 586.587116967285,975.3990972629413 588.0958852047582,978.4428301697225 589.3067248157503,982.9768870199314 591.5925417775584,985.0200006595758 594.063818412653,984.3288655304327 597.8473853205522,979.2563013767 599.2177155645695,978.4499145720167 603.1374134450036,978.9986759912717 624.6535149463585,991.5431386005179 627.2348335472371,993.8257703254577 628.000683318418,995.5154367163552 629.3078339202706,1001.1386772074912 630.9006037491113,1003.9975881437423 636.4176886630555,1009.532650514861 638.9174206971182,1002.75726350168 638.92113283619,1000.5768754625992 636.2416630874427,994.1911023524212 637.0976313838884,991.7412376181863 641.2329362581154,987.0597914466532 644.8031425291306,977.6082829646515 645.5402632053589,972.7052200496687 646.4044307272678,971.7234484053319 655.6587704670432,968.0181687146589 659.9083382352427,963.7021735823024 658.6518413473806,961.3385540417485 656.2032141659068,954.1662298589663 656.1683551407118,949.5408430675105 658.5201598646335,947.8527947402691 661.7095884726086,946.976817560276 661.8278566114711,944.6208618169478 659.6839414238283,941.7017269792548 659.7919414454999,940.1621939637733 657.8577109927525,938.0337820457141 658.9828285852948,935.3062374359324 657.4469731707026,933.5597418542521 652.2736487026241,936.0576949591328 646.4874917034684,935.1125054773105 641.7147464465571,933.2539908003648 640.0686823258068,929.0430133762345 640.3425091513114,922.1439007754788 640.2713036717173,916.7881204893054 641.2339150607448,914.1138480494822 643.9016075917748,913.0524072775767 648.5376677505967,916.2566158054726 652.7059909791642,914.7839111098916 656.0188825799631,912.3366412991118 656.3469621416532,910.2740975292276 655.4170825976171,907.1836407919176 657.4381413853843,905.470932496958 661.9899386203085,905.365317636806 663.2739188671666,907.5642521627549 662.0884114897153,910.9038438730711 663.1480609176893,916.2546273324456 667.245054874024,916.6157321029716 668.7182447644415,926.0726151481078 669.9339892106761,928.9152093171723 671.9371620046385,931.3581248761922 674.7377721229049,932.6559590452547 676.889341959768,930.6961677810974 677.5608417800352,927.1106837528157 679.0121934788423,926.1396186123326 680.8267306931632,926.6182821653057 684.5932373742679,928.9405763479751 686.5145839042165,929.2548058451515 701.5171585343264,926.7357908441384 705.2567699684558,928.7517732939718 708.6533491658946,927.6172101944522 709.6009535652611,923.6796215651434 710.7106274515671,922.41867022835 716.0026024506772,921.9645885830656 717.4057650268946,921.3602596901719 718.9977135231023,916.9445435908627 723.2923834141918,915.1000115625512 724.6846705860414,915.7604736437704 724.928020464378,919.473090714091 726.7321129612885,919.4019727796701 726.8698965489677,915.8661505675441 737.2025075821639,916.8540152379148 739.5402683266336,915.8075423830085 738.8750900759887,913.0682664397693 734.8622918680911,914.9385109255263 730.6883519959667,914.6309082678565 728.6211169712643,912.6286611356112 727.2327096078509,907.5488896492328 724.3868956260193,909.6125571839298 722.3194942272453,908.5070425624904 719.1683860271492,905.0464836553725 719.1859795437857,903.7720404036586 721.2504057643745,899.4605192733117 729.2617497162582,897.3928310849894 731.7034073317195,895.9468392393846 733.4744236288648,892.5052622492875 740.4517221437516,876.0547924688977 742.2536176424652,876.7887404189129 743.4995575725862,879.8829795526651 743.7062261155147,885.6740476918615 744.7790139965958,886.9491451486128 745.439164537911,885.5944166859609 745.199381807529,880.6391381001151 744.4780263519754,875.0509172947178 744.9274549008112,873.7707764586763 747.2004874466506,871.7163140686096 751.5388695064124,869.7596637375929 751.0899529408287,868.2704276559557 748.759901506767,868.3301832000589 743.2518718809758,871.7321500902343 742.1100043193351,873.3491631425688 738.8473769121771,873.0581201791587 737.2410238921917,869.938315467508 725.08660378057,854.6353216099751 724.0036070942276,852.3119068114243 723.4784779860072,847.1498191857391 724.5572490918823,841.2567819173505 722.7711235230613,837.7040937898995 723.9351967619052,831.6991069135798 723.8367192341864,830.0302870382192 721.3375150860516,824.1480014655258 720.5124218434274,818.0135738134029 718.4618410362442,815.0241905599122 715.2641103214779,813.8159228599525 710.3894013454097,815.0874740513815 707.4664861744114,814.3323653873053 706.3707852363142,812.132223368321 706.1543968076569,809.0206845508341 705.1618320003894,806.4414733121104 703.6074151873008,804.9609998117733 701.8656715286526,805.4587927991013 696.3316059638419,811.891139446792 694.7316149296133,811.0018352235908 694.5525020768143,803.5130460001178 694.5546782604134,793.1729669880658 692.1558881881856,778.6095909152996 690.9841338741369,776.0537988865032 689.8718083122976,775.1674682752636 680.6240838182624,773.7520378439317 676.0746079478674,773.7762904022961 675.022029106635,773.2346546262764 674.458155604498,770.8424575182784 674.3977107747975,767.1599580958007 673.6760583259638,755.7439736461317 674.5615523194805,753.7874291533178 676.6637795790496,751.4224835164716 676.8875556421738,750.2172859392585 674.0593255301352,745.1166399277924 672.0770563483871,739.5236755725309 672.4793372081999,735.3662273411855 674.3891684585949,727.0331607053698 674.4986037703482,721.3142667714958 674.2098727497372,718.4801989114821 671.7240930323622,713.3028612269159 671.7121336218602,709.2043052126949 673.5898510364062,703.233731855536 673.6330811850631,700.1400049857074 672.2562986891247,697.4374936586044 670.4634077370366,696.1848973537155 672.2318389569587,687.8667516440051 672.6125597048824,684.769053125719 671.3529423866288,677.8237500105856 671.1831914369877,648.3978016599397 671.1889750189322,619.1583466698532 671.7053800422658,584.8532017621905 672.0825129301846,580.6392374766426 673.1552850530533,579.2084445161902 675.2034495463774,579.9167445939247 679.5689301518346,584.7329270968642 684.0700113664433,586.3652786417667 685.6322651205543,585.6083818552413 685.6374691938864,584.0025523730426 684.382728062473,580.6176382608268 684.391951546179,577.4170510874607 687.2305366857888,573.7622297874696 687.6024683382789,572.5971476402559 687.2486476660057,561.1796289226406 687.2387054797293,550.66111070282 687.6499269142563,547.1191119760385 689.2108040531875,540.1428423708176 690.4637228250025,535.8542338361508 689.9181410874287,529.969213527419 690.5479594731341,523.0399456787995 690.4597702757552,521.0598725118439 689.4099650879314,518.181585793719 686.3500061621903,512.6761973104333 685.4598591007294,508.5857928973153 686.8922837725842,500.55691481815813 686.8930363502407,492.53126696520405 688.1348007048227,483.4397462564573 689.4622037313437,480.83772116604837 691.9866614188187,477.68839814468276 692.7714893527207,475.9479879489876 693.0844419521354,472.1738824607627 692.8258647017699,467.01826100785763 693.1366546547396,464.52627505943235 695.3185463629629,458.2531426340489 698.5933102044771,449.93121138172387 699.5698032448189,445.62020165351066 700.2834549751776,439.5546401817785 700.4391615707876,435.3173317513705 702.0320089254362,431.7775587564429 702.7326707839524,416.11854520805457 703.4898755229901,409.952731318803 704.6010684165881,406.20781103695936 707.4213994960915,398.89105942700814 710.2146307801868,383.48414811532155 711.1788715994472,375.7026568149754 711.5349870291153,370.3566484376744 710.6478718406091,345.93091050881503 711.1144157880125,337.8845848984208 713.1526406038369,321.8569713430353 716.8982459738226,305.6188902628593 717.0680013154243,298.50434894218097 717.4417984301967,296.5290629292547 727.830394911812,269.4380402119667 729.0533194747908,264.57771131464335 731.3799202941135,246.39249966805596 734.0633550810848,242.81625604292788 735.8491785431255,233.3640200989464 738.89248637197,220.16703059476663 738.8918881877836,214.63107483355623 741.2119466361206,206.7817560629544 747.3011785870726,192.14766840296488 750.3189017553619,187.63370493178672 753.0292901109166,188.4493740041595 755.7064783571383,187.3296978133626 755.8009679216901,185.52326179260865 752.0019642848567,179.53452129209222 752.0720759327189,175.90316726022468 754.8048769259449,170.72604442776242 757.0568565539576,159.00893253502056 758.0253495790413,155.74739162529954 762.8508036703918,142.89158643288158 763.442410304503,139.53700926782642 764.1054986179607,132.73417462256873 767.6832254063669,121.30970922080098 770.7247495080503,107.93006840852036 772.9435021203128,96.18624320416131 773.7643446280007,87.23464457615671 770.7331872526577,84.04379087176437 769.8586911335956,82.2556620328113 769.4719275648379,77.98631125175689 767.688117913945,68.7260935032632 767.723430013493,65.82794029358513 768.4843254471197,61.93348652172676 768.3188927540663,58.745102216711985 766.2869893803621,55.44689624663454 763.751704723379,54.27486395304095 759.2178209777071,53.15781452762303 756.9429399125814,51.65748427810229 756.5210452732189,50.286257352521716 758.5675764766327,44.86170858753326 757.6730239414036,40.05475315746071 754.386735728414,33.34522548350094 755.6908619500838,27.46766943951536 759.4139124452628,22.844736637245887 760.3331679321944,20.945061162688944 760.5137627017539,18.319147936465015 758.8900233846762,13.809017830449307 757.2520562978665,12.540898527453578 754.6294119820857,9.375945650995277 755.3308564431213,6.112599121142466 753.7127778674226,1.9165614526402805 752.8984452523869,0.9484343326153066 749.1983708951727,0.0 746.4529481551486,0.16881884339943554 740.6412990424797,2.283494373225267 737.4162641235591,4.050467088423034 731.1302589987902,9.859930777450131 727.902271480856,14.696363226927929 725.9773242213812,18.556763224618294 722.0970080616285,24.994246357510406 720.1678301875398,27.73194557873478 716.2895875733186,35.61716796282758 714.6825245188114,38.025612069242015 712.583354248774,42.70036711093644 710.9784232943971,48.006203755577985 707.5958694088014,52.99631373708041 703.2310263958187,56.22182572485292 701.7891222561816,57.82676366426642 698.5655699178989,63.939781084257675 695.5051818036599,72.30950135429919 694.0531864621084,83.07266106361408 693.2466798316485,92.23646555753339 693.4101628269061,94.00691771193237 692.6003792721525,99.78699277600617 691.789106418701,102.2022664872461 685.1893552269419,116.19701411612311 678.5959295267735,125.53016099576155 675.6936284498069,129.0650098414602 672.1468680405234,130.99999563568792 660.7184259532617,134.8690925353909 656.0661235398255,136.00098809476754 652.6805259742067,137.28231489143275 645.2775144107978,142.7572714925916 642.2262644152488,146.77073262176827 639.9745887805166,152.87884981716127 634.6673200653324,166.05392957113338 630.4872711520507,173.7661304866739 625.6566207033535,180.3441113121288 620.8463516820024,192.08150151187283 616.0200077574978,202.3710804339238 615.3818069541784,204.93616276437342 613.2947837174487,209.75740580828153 610.40354223507,217.4700368665384 607.8293095708857,222.12541630141754 606.8673874558199,225.49778408386294 604.3002967059203,232.56711738963804 602.3749710650574,236.2597805362583 598.3631839024426,245.89912980681243 592.8979415818005,255.5317790502886 586.1621384793145,263.0752266249077 582.7913709148661,267.8865681905522 581.6641420668741,270.29825019184227 575.5594850892805,289.41684324555354 573.6363473342213,295.8388902418412 571.0658225719426,303.3875007297436 570.599048369075,305.9621977381978 568.1868124485753,310.12942917522196 562.7217151815471,309.80124251959444 558.5483190874004,308.5081957705048 553.2542775292894,305.1218799412205 547.4828414554088,297.7152913052913 544.2755521893705,294.652501814237 538.9747587961739,290.78905200106715 532.5631859575909,286.91292382210565 527.2595314367502,285.2927045770964 523.9048329217002,285.2837660241686 521.646367786949,285.9285959430189 515.2267024288096,290.41189018848615 510.4159709995813,291.36954759680293 507.5260192408137,291.5251033145281 499.82592834888186,289.74867434330247 498.83383543865756,292.7764794360305 496.0431292645985,295.86374308482755 489.7504605007129,303.6310764708493 485.05792257707355,308.1668654828735 481.9820889660949,310.07097581779533 477.73861388322143,318.43611220366336 473.19331361272316,326.50102394023634 472.3117622695159,330.7567999758829 469.0936583586346,334.13424784253027 466.88462530446316,338.96762459979857 459.4141731415607,353.3493316264593 459.2671573112833,357.0159517775353 453.25211136172345,371.97499878418455 450.1842934663511,382.2426600355511 446.3614880304889,387.09224776236454 438.888085751899,403.6687920112579 437.18563866531684,406.9736023396813 437.2716276460326,410.56716571379604 435.66263808793724,413.94158542028015 429.2065445610258,422.74884681477874 426.402547756537,428.324539169482 420.39295652938625,438.89286965477777 419.04462996167354,441.91742366363167 416.8684446264145,448.1449990238451 415.84578731674355,452.5460533433122 413.9420228510615,454.4642479275352 410.92946297649564,456.133721288095 407.03761837572193,457.10578824468314 401.8971670009987,456.2270764461442 394.554041406824,456.6817129255338 387.36042318659344,457.7210934869297 382.86573299602173,458.6619936457216 378.426655472978,458.12741594686975 374.25067954103343,461.0225817514912 370.005464423388,460.33336661684905 371.3354990483835,455.98817178926527 370.7361747305188,453.54835813297314 367.6962597581563,451.2990094181313 356.2060226735677,449.7002469162552 353.3061403360415,449.93507606957724 350.91192496540083,452.65055256137794 350.90083840381067,453.50321812407867 353.27062702584686,456.6072349655469 353.1299000229259,458.80211398838287 351.36912643912393,461.48784774354624 348.4104447680515,464.2525214019348 342.67326167656444,467.5546815714397 339.88158146998387,469.8494671118922 339.0106165986214,471.9033217416559 339.3550408348447,474.61055250935726 341.9371790402933,479.9755246412833 343.1722331851421,480.931708073521 347.56990337314147,482.39143096018165 344.4533667178804,485.5450706718848 335.47776524957015,489.66576788531415 330.476428919923,495.7005675246022 326.4523274103457,498.52114519030397 322.5458951242156,499.6333641537925 316.79366707135904,499.786803014107 315.3645397321486,497.8165223573809 319.27463637219734,492.6203625734373 319.1335343789973,490.96791964435965 315.4352024232741,490.1983586291266 310.8770576010743,490.6486819003022 309.02553069623013,489.27322928818694 305.938198196513,484.1581047122796 304.3743183404779,484.25141503831344 301.86164906154227,486.50204909935474 301.06782581083763,488.48352362981325 302.1102698130495,490.77357325745277 301.46488329216425,492.70241964359775 299.616541758004,492.61659533421494 295.6440981309308,489.16988806374513 291.4768483177264,487.85705620056933 289.6222882680076,486.83821427237956 284.0357320825132,480.9750182910217 281.8173414892254,480.2043412675623 276.98226241503846,480.98282489796884 270.92819087439636,483.49584837973214 268.03043590976523,485.1103935654262 265.3778078695567,487.46342216768403 263.6204562472862,487.7516362437806 261.41684063437833,484.67405742355015 257.79285659192516,484.1468492335423 254.9482874389472,484.5306394193218 252.60727417432548,486.15766412627966 243.2143464569788,482.3383008280847 243.95707485711205,479.4138277979421 242.76762897728062,477.21547085964903 240.91816540963524,475.93238739597155 237.0522245701551,474.8681805223878 232.94038871799776,475.3006699832989 227.80916564045023,480.1546407718538 225.17084182614775,479.5610486040073 223.26939891638818,481.32366949860716 222.5182834932325,483.06100733821313 221.33345892639332,488.52986328562463 219.20241777476465,491.2916911980509 217.16434871378624,490.5571283977429 214.7562813862841,487.9190397044306 206.40382909134493,477.05530104090735 203.62064301985623,476.76801149195023 203.3284285449225,478.2353729568498 197.41204426075606,483.01691137031617 195.547262302604,482.31130643186043 193.06077922409412,473.23637575704106 193.93647450070046,470.8881534514459 191.74468526183946,467.95319855747164 188.93396891735276,465.6154135708322 187.43977507683354,465.12729947390164 186.12457495041966,466.23273546368534 182.95379576048003,463.91865824203524 183.7779481975855,462.862497113578 182.1145438548556,460.8848279575394 182.50356718062739,458.39168465375496 179.68884079422855,456.2463977480995 169.64423081081733,453.0915612970588 165.8297605738541,453.51837035325366 163.78758968312283,456.44874674012897 158.2319869055561,455.36581773882745" /><circle cx="115.41272539403853" cy="622.2157990844662" fill="rgb(100%,100%,100%)" r="16" stroke="grey" stroke-width="8" /></svg>