<?xml version="1.0" encoding="utf-8" ?>
<svg baseProfile="full" height="1024" version="1.1" width="1024" xmlns="http://www.w3.org/2000/svg" xmlns:ev="http://www.w3.org/2001/xml-events" xmlns:xlink="http://www.w3.org/1999/xlink"><defs /><polygon fill="black" points="126.41970519960208,532.0059204042534 145.63382104428388,532.0994744339107 149.56735710415944,534.2475116584523 156.33560799980583,534.0726659363049 156.70923424267573,531.3334178436028 163.07910489325775,529.0687650900599 164.43962600481757,528.1047900986478 163.98468030796687,526.6161238343473 164.0928661929215,524.2335620631721 165.39882972897132,521.8611492231113 193.09817568915432,500.5296090460055 236.6245595058974,489.11477177144604 264.40756131166165,484.5785544037506 290.03410994850657,482.1457727042517 319.98235563356485,484.31800771674784 329.7526071657352,480.3495290939785 332.56430243973887,477.2735552496787 336.0507073630438,473.0202940403292 336.59878003747474,466.3751025539389 335.3733171991601,465.2255622404943 335.6390834789994,459.49793674169507 347.0145125619879,453.39044290356367 348.6438059214707,455.36749679225403 349.5534379951801,464.11662500510306 359.6190056063181,464.06107551254854 361.8266762746803,462.89137583130685 363.333094729073,460.96739547020155 363.5317814683852,455.9590368626485 381.61071212478635,458.18197415472986 386.03809295940243,458.25338005778895 383.3257756515772,459.47382476126694 383.2774939695615,460.95956875057755 392.1107337227587,478.0740390905819 394.74922540656,479.6848953501085 403.98281155805734,479.5578543311116 401.9163524825072,487.56040586312315 404.8468691937539,489.7457401639746 408.8274071583246,480.33171540369096 420.10388245171805,473.48163427689207 420.86679215942456,481.1985823403193 419.9595690756056,482.6055262462791 416.27661337408296,483.2922219860554 411.37439187169986,496.6895296229934 424.10734459623507,504.8522851570085 421.9904594859897,508.2722483855218 428.54493941348153,511.74213283322956 436.1030482654321,511.28814210043817 435.323197451314,509.1723975454908 456.68773733567514,506.8653164720818 470.3525136426393,509.1199528955239 482.40016525773353,515.0830710548859 482.087551683515,507.12849486891463 479.00383821455455,506.594610903437 478.82334986845444,510.2697901854686 474.26622314584665,509.27136633183983 474.8626321432326,495.17133774807746 478.91349697486453,492.10523891853285 469.2038011396165,472.27397549072407 481.46032857551677,466.01702013609236 480.6753650656556,460.08523918269634 495.98750354076,455.4266311437724 495.98144635876827,442.4048846766384 520.8537784754351,430.3623451906741 520.147517399436,427.8484618635553 515.2091567473112,386.46629034214106 515.2579251031558,384.65342185543443 517.7076915684856,382.3492351808142 535.8511835432737,380.10799433835666 535.5939221634492,377.56487594382327 544.1414061564724,377.10508046928067 547.2390967022673,380.8624023263986 552.2046956041964,384.0728299231168 558.6967723931405,387.61957556779566 563.6102719053481,391.259429833273 566.2711449359978,391.5536687845437 572.7195539531152,391.04999841793574 581.469947475191,388.21884459462797 583.6692687694857,394.1496267931841 583.1796043798421,401.3999688320416 597.4919777353726,403.9233903324591 598.0044362884596,409.31162731692456 609.2887599219866,408.5701666978183 620.4210694214445,415.4474048309577 631.7109246841095,407.4650022903646 634.7596368292885,403.4950951850833 634.659998079428,397.18949369069514 630.330813800963,382.16414449338833 630.6632217734327,378.4613711608164 629.0184392170039,376.8789051234107 624.0904005372979,371.7763167108938 622.198323042771,370.5230806287703 619.9786107923927,369.763909945656 616.7858088942057,369.1567797803217 614.1445605477095,368.8351945174702 612.1890433770495,368.4165129213161 610.2832787985607,368.24099320124645 608.4358128471786,366.7105504975361 607.5221695870378,364.5793281451266 606.7384489855874,360.6729131604749 605.3103794326897,356.16276811827885 604.5303746877607,351.31243774430806 602.4630972386685,343.0303536417721 568.1752095667634,346.64882410701864 563.8850145612822,346.0333730834403 562.0587958090751,341.77053874820234 561.4187768591979,315.17300837961966 551.5451972452659,312.5034143947796 546.9930407075824,311.23234096567046 542.9803081510425,310.79518306257756 538.2988750614448,311.0405229002797 530.8980799391031,312.5204596051786 516.4585943367949,314.7926515013555 507.9404140985057,309.5598702465917 508.3979539124498,303.0322410486418 504.1497101225032,302.4344704567658 503.6394131369118,292.6908165690591 505.4301404710244,290.8449730840568 512.7613470055148,290.8391323549692 510.3435099998623,271.9034864864506 517.6252085952154,272.0436932705839 516.2898260995313,258.2653740008386 521.9380371480487,256.7255565922465 522.3259310528983,244.89227561735538 549.7989370082588,269.01027579592034 549.9087869146822,252.28485096412925 563.14050405862,241.61304284911085 579.7725555263916,237.92285018265727 580.6009686315974,235.20028539571592 636.5771823029488,275.45913167156164 635.4680961964635,275.96902431566303 630.2718098857725,277.3764125070619 632.4266702875558,290.08847412944317 645.1606184306626,288.98924445527484 651.8143465382948,292.15065763876487 657.7170618584307,290.907303128399 674.8367452969703,303.3797060524147 679.4635384774906,306.9069090633995 690.583135558002,316.5655990810748 704.0599327963921,328.6522800666737 717.9743869576747,339.46543581263273 726.8028328661081,346.130174688494 750.5304834764339,363.935882451916 768.4200261138765,376.07300803671 779.4807179540511,383.76116560671534 782.3724674626241,385.96309132128636 788.9694894526594,390.3599299860558 794.2039507286825,393.68398239680386 806.6064091978805,402.0445115811208 821.762695862053,412.4775959687561 822.8777940430941,420.09746447619494 835.6685763487841,433.8186792086269 847.1338436815352,437.63226681467336 852.7591122118607,438.2395022605955 856.7682638341087,436.60864042805525 864.9630629506578,442.2504075427008 878.5263522379441,451.92135601093054 883.393599416518,455.5132990296524 869.3599255296388,457.4361829274727 869.8794443726534,462.75207726161034 888.5597920933936,459.3301879644829 891.8128579509826,461.73092817115673 883.9559840794487,464.0067665820516 886.4567706987752,492.45176317580496 912.6695998341745,486.3304966714282 913.108946720446,491.3220973094927 925.189482148512,489.0428420784298 925.890027298855,491.94786198835175 933.6150833215669,492.5828988387513 927.90740965752,488.36707060781276 928.6461651675756,487.38130512699337 929.0707607305123,485.488275742489 934.1570195964994,484.89900523970937 933.8366552678989,481.4808960164119 933.9849108722105,480.03268126627427 933.5909074756372,477.1346346116113 938.4487508690952,477.08677205153526 939.0929423037484,478.32187981568734 943.2221689736974,478.054157838204 942.497988214639,472.7504440164176 958.3623870120007,472.8237650890322 956.8709391373231,466.0729409965289 957.751984960168,466.1434433063501 967.155757113998,463.82472305784324 975.0309555904889,461.5895373557156 987.6508678626064,460.0213616810571 987.5524297849189,457.45735712243055 986.4281127970315,451.38661403962175 992.3120440912106,451.00326460845747 991.7569872730807,446.2639124543556 999.033779073071,445.82408053770325 1001.5993652863464,449.64852547801814 1002.9193937730984,451.0717272408072 1005.7474476532745,450.494894836083 1007.8372203426476,450.9040629373121 1010.184356966327,450.5785396398303 1010.1453898413447,449.53798985414534 1003.5530457247362,445.7211180699347 1005.6033977090182,445.30158846814675 1007.4087595620176,445.46408872080013 1010.5866849901925,444.9252768062405 1010.5295048760803,432.4145675012717 1012.8132828742895,432.28826250523105 1012.7860988069943,431.3879190249699 1006.8618367962005,426.8933513627901 1006.093542382041,426.0413609535209 1005.5772542318941,423.5107872783415 1004.9337978018202,417.0174314918147 1005.1906979758205,416.4977121834535 1003.3298894467125,404.49422929500963 1002.3333942366976,400.7726675118132 999.9566200809886,400.50304159630497 999.58010833193,399.3216142608992 999.4113489537802,396.8664953311677 998.6535886616347,392.11115661326124 987.6899004695076,391.8579277806192 987.2695276241418,387.46461667742824 994.9636585112964,387.3310941673808 995.4546510407567,383.2948092403873 998.460102483416,386.4161796554177 1000.2295193598135,387.3948507607318 1000.2753089439208,385.05854566180585 994.5028688002953,358.03791128434756 1004.7858483371506,358.7567131520369 1004.8478530162921,357.92507923953696 999.7693107415973,357.4692977405909 999.6473081551546,356.9488097651132 1006.8588384641582,356.26872504489734 1006.9143610003403,353.8545543804081 1018.1253905291211,352.5154392562164 1018.4910306556391,353.09558213497905 1022.7259788306757,351.7767451500381 1022.1869788606587,349.7539346661528 1024.0,349.2932761342332 1023.0036580600656,345.44407518165275 1019.0832849712566,322.8948276745173 1016.6093962807785,304.9401459102828 1022.7335687489025,305.4910249064145 1015.739480902482,288.5150356833378 1016.346259409246,287.8558044995241 1014.001963125922,282.75780609003505 1005.2364403461634,287.3072005813424 1005.9358201817606,290.98767869457026 1006.4371706532895,291.1911769697062 1008.1682671206121,301.2910582604454 999.1175052385968,299.796121579173 998.6822000467344,297.96348534913625 996.2640955865053,298.3977654208879 985.8892786102739,299.12692424082076 979.1184108953469,299.91005019262025 979.1757178094969,301.3151343212445 975.8707938358165,300.14918529536726 972.24118604976,297.43110440588146 968.1687042356475,295.400456019413 965.5803284395357,275.6287189128711 957.2348998060891,276.44818704530974 955.2201845843331,261.6837467839843 953.1920241017893,261.5421066376497 951.1972356061352,256.2572889505569 949.5892291654926,247.44689591222942 944.0599998556354,248.01990857966848 943.402711607678,244.38292619157 939.2857634779624,244.38897922800408 938.4213004587994,237.58019700776646 930.8955692296278,238.07345323945583 929.7914991877573,228.69088630006257 932.0863625188048,228.09195093510635 931.3795973109501,219.98445269211084 934.6546633888651,219.89246878007816 934.7644762980681,216.25413521493368 942.6823202555022,214.79904720288414 940.7617114972335,203.81652514198123 949.7496561078867,194.9587461223535 948.7496095944742,193.62937790715097 951.8981320262571,190.6770614091231 950.6645768400833,189.18518017217775 955.4599195394894,186.18981804657636 957.7775578868979,189.18564540988854 959.2021010769581,188.3134489787236 957.6810908725646,185.96427596889987 956.3810709423641,186.1482750077938 954.2484930098309,183.43945112308126 956.5853785775131,182.13630953024193 953.6351388683893,178.51287744495363 955.8888166937744,177.73603046457475 958.8137213655714,174.36566816415012 960.7440180952079,175.86528662133696 963.3482321743032,174.64054798415685 972.2096226365288,170.8967756321046 978.6134885262397,167.37480104887265 978.4003724546326,166.69522242210002 981.4023060780477,164.27798397224086 980.0950508649137,158.89206329648886 983.563621356892,159.18916392830204 981.6242058306505,151.7801189624622 984.6754406962576,151.01401657027992 984.8795369002123,151.40073800298478 989.2718103020501,150.31030274321142 984.1382220034556,144.0067037948342 982.1183895375466,140.4603861388719 978.0649647903166,140.99377550662638 977.5683195933973,138.77465649771608 975.4875456825819,135.6144343821348 973.7172848543194,131.5763656919167 973.4096762811807,131.14268005224062 972.510585397698,131.1251525639342 971.9507918427953,129.16133189951972 969.6896678959768,129.1906699104934 968.0916317794971,125.83205279406633 967.9081651457022,124.85657859183908 965.0296948521758,121.75057514350743 961.9394145508095,121.7998070152284 961.5833577585873,120.40650055791087 960.8387582285238,120.30827136246188 960.1913175933909,116.63395246307817 957.549732518879,112.25112326403973 962.2756465221314,113.66664334551524 959.7306805770196,107.02861425038196 958.2705852796305,105.71694576249229 956.2870664121499,96.01472129498609 957.0250772528664,95.78896580562702 956.6301676968244,93.48590807747053 959.3317826755894,93.54180462870858 957.5906379967594,85.40709898165693 960.3539030388614,84.79022696316662 960.8108350222412,86.30837338321493 961.6180752255091,86.36312926676953 962.6103658530928,90.99771351143835 963.6664550298793,90.78510206757619 963.5559412951889,89.53875662008545 967.4862202452971,88.69073116218976 968.1272481788612,90.91019736519837 969.0674160182939,90.80322385494844 968.1155486780166,86.35567368811633 972.169570376919,85.09039118547219 973.7969123674259,89.2714769374964 981.3628991021478,86.64289570214817 980.2049703176334,83.78062245782655 979.1488985222192,84.00889063146326 977.8674957923198,80.30833673674437 971.6438842044415,81.90857451801492 971.512726645377,81.26966207654976 974.522981909143,80.06748003739085 973.1584262048403,76.9741913561578 970.1394170858654,77.7869286515425 969.5816648661033,76.06608946021197 970.6765455622304,75.7102272670358 970.2387989568662,74.21394970227857 971.4685888378469,73.8739544281064 971.5514477717817,73.45046037671159 974.1191851107542,72.89529249016277 974.772763649313,73.77832422816249 975.836362942363,73.39121580484209 974.7209989449144,68.74396143100955 974.0068664750388,68.01033022879079 966.6301300667537,69.21539932459171 965.1840982886977,65.99726798822678 964.3402180208319,68.37857386598785 961.8319993052675,69.2733210010241 961.0801295787985,66.02555151674079 964.8906111701845,64.67575129216323 964.9332565723246,63.9157229929927 971.0354415182694,61.427566152416034 971.3309916402463,61.817617526940126 976.9314383586087,59.505770431647306 975.3725558521334,56.06004902849122 985.0909205306814,51.479598435591356 987.2178340726177,56.4373464619938 985.795471621516,56.739640976939654 987.1179704524413,60.374819049355324 978.8851891635019,64.25450356838627 978.2561464293336,66.5397507700983 981.5100849276146,66.21649689796726 981.5804726960204,67.11072501900492 982.1418654302131,67.15553477074081 982.2629220453917,68.02183321051501 979.354810952229,68.88789388894048 979.9721054572094,72.09169648674583 980.4948597522788,72.18004131482809 981.0458532581583,77.10331802891892 985.7537774008913,76.47468813440776 989.1299094237615,76.55656015272837 991.89076869824,76.99535202255322 994.9996529270987,78.12329987358743 990.4758487251416,64.45661984163155 998.1397272354807,62.921113381998964 999.1430701098964,62.49326859129695 999.062755222962,61.70494458663575 1000.0878038352112,61.26467893947171 999.3664669907191,58.138601209406715 994.5321495893126,51.365416333756 992.9761112732248,47.60518618910453 997.5932329548465,45.10695838557547 991.3258818123908,28.972500777373625 990.5991911374796,29.67191581389858 984.8836677929053,33.28293522595931 976.4410164601642,35.49853406500284 973.7941733662409,33.85106748059775 963.8268293187289,36.86348512249833 966.4892120475542,40.19023304753347 956.2537967350918,43.2982856798713 955.1824686288401,41.819239406418035 952.9332456583091,41.25029442200571 948.1244094311315,42.04308654307408 942.8379819257248,45.12127047674579 937.3960312531844,45.60083435009915 937.5066208608298,50.86588406778708 941.7417603982625,55.46451371820484 939.1276074535972,57.37744271095056 944.1477249907938,71.71925873310227 935.7934620802978,70.36028242327552 936.0433326740209,86.11783308406882 939.0412412183239,86.19336840470027 938.9582930616085,90.76636826893917 926.3235077723365,90.21945112637212 926.7225667627855,94.68767794566452 924.4919912564126,95.19013390779872 925.332042621598,98.66876726787399 916.4693528504424,99.85299963674146 911.5572838013363,99.89395830868676 911.4277603582248,98.65688431467231 908.7974423761158,98.9868582788265 907.036857660961,90.68969680122922 900.8504593875637,80.94534366315162 899.7440522218105,65.6715652317788 899.231927170257,61.37121797108256 889.9661666074988,60.5128498211638 889.501327905718,54.764000086422755 885.0854831051047,49.656087825589964 878.569590738589,45.12828551687079 874.7602646741294,39.53575648462146 872.4248368048549,37.021819706419365 871.4055319655403,35.2309650458684 868.4754347632928,33.48176910710367 859.7674805433251,27.290235169135713 858.2145644258738,26.868597007365622 852.0091538086369,22.032408496494213 849.3525632903592,20.825754875146686 843.636908951621,20.227439420266478 841.3992721765189,19.14022834196942 837.8686210825541,16.061835243776272 834.7981146450873,20.738599240811936 834.5106545063562,21.005704605804112 829.2020299299197,17.922161909864258 828.5780294434728,17.92039061839182 826.2932732211191,19.02915872319909 826.0973131256676,19.31209018732943 826.6861054141885,24.908803652091876 826.5801071597306,25.74962600390262 819.2969242737972,26.46084336610977 819.1365990623252,28.584999128764196 811.7880330762346,30.192975584128988 810.9142969342439,28.240262065938566 810.7248325413153,27.115093695077064 811.2101738601968,25.10404268092418 811.1721715406301,24.091466698815736 800.993963672193,24.45402956538095 799.6534362960616,18.28179588185344 794.0779657564195,18.402216877567298 793.3664898296674,6.611858747486508 788.1092374623272,6.76111684418845 786.2169322900545,7.126098481388794 781.8527506133495,2.779445078554204 773.1036099219759,4.076523146327872 773.2797876705888,10.201717003515 759.5333883734944,10.79112763401622 759.4136596587336,12.846837262492613 758.38568555177,14.887213313943676 757.5421077639361,15.753706569084216 753.4065641629356,16.89633510635747 752.2261802030264,18.35363804302699 751.1203305391625,19.10088808110254 748.7640198443146,19.853469635629494 747.2571244530469,20.935863574014775 744.8022193634907,21.619548870561403 742.9596487980064,21.442254539998203 742.5827583681684,21.01735604906139 740.9990065906748,17.557371719391995 735.0228923771551,18.618903306971788 733.47219232694,11.000061751648104 722.3929776794516,12.206442577389794 722.0433004115847,13.030829143121537 723.1538502831424,23.20282637948162 725.8295861876553,33.700878514203 729.9061319813396,35.25018530840214 730.0698228145295,38.22270534228835 730.9098102023476,43.6336020867754 727.0578851128687,42.602196433788095 726.6897478826725,45.35488836673517 730.3555758250762,47.301580241450665 732.713423078741,49.12865542695721 735.3032932515308,51.49229147437137 736.6473785411727,53.8642950104437 740.9234416620968,53.47633617696249 743.6651711187687,53.63163017369982 748.246012929973,57.38160119877904 752.929384909269,60.76731278423716 753.6645160654436,61.476822940819716 754.4515329717265,64.81578881150028 753.5934777200957,64.86601752468704 754.081717846461,68.95169844719459 757.7537812006036,69.13157790469955 757.5704896935251,65.37086030934898 761.5933500655764,67.39291315938868 761.6017318537674,68.55805230369856 762.4908043007913,68.61069334313703 762.4649998883849,66.85359728931832 763.7923935826096,67.75808052619988 764.4551230000131,68.52028581330887 764.537337362404,74.58286634494891 771.1211364699775,76.17349630905505 771.0329530462435,78.18568841721265 765.1868324389185,76.5007937284393 764.9919215415957,77.17619762383339 765.9620812492706,77.51256784652776 765.8882146011067,78.01389572733649 771.0102022827454,79.30400040156076 771.3586079865338,78.86271291688155 774.9054061605752,79.86434311064687 774.6377180768259,83.82614153118436 778.1953334435283,84.47572472957933 779.8901989095584,92.93264738381555 780.6884201845435,92.77932692369126 780.1170200634524,88.90841462656203 780.5782088978366,88.62633654993977 779.6497060297073,84.1094683199509 780.5291108148282,84.19315783958803 781.9155471537599,89.4995837874456 782.6001106967124,89.46740480157888 783.2060585650951,92.29791581037051 783.9730007034323,92.12579635828814 782.5328880882446,84.64164781758728 783.7903552340568,84.8292808870035 785.2718532530995,92.19205091931195 784.7298417956266,92.89756969757156 785.5263142024975,99.66946525928745 781.8606341143777,100.38104683158218 781.9391950979793,101.49032165666188 779.9045185549496,101.63674915061438 779.7640090160647,100.2967540304885 778.9661892815869,100.30988543906915 778.4451404094888,93.38616177525148 777.0544204676944,93.40992661193047 777.2930657576566,98.88418658179722 777.5021524397876,100.6480706539856 778.0225911262858,100.70262893168848 777.9370849757805,102.64629304712895 776.6158087034069,102.7979947081775 776.2230219048075,100.4229519920325 775.5889598301849,100.48018886643104 775.6453655656608,102.51151705561887 769.4186976291029,104.39255281745346 770.5362867083769,106.96923669164545 768.5685569650313,108.04411561579815 767.0097016986101,108.62181059579143 765.3000035802679,105.79403506092922 756.9424137764677,108.44685199613116 757.3363462805916,110.39825730955647 756.9667216599607,110.66499987251314 748.2735617465346,112.6404076077178 748.2239924064919,115.31937934834997 745.7458255794064,115.41110458864142 745.6494149224076,113.91235007138033 732.5589555041023,115.30906317534794 731.7634942404912,113.85162149558585 730.0069605932445,112.92995693016792 728.4337034739368,112.71604917482608 728.4152274829795,111.74090843318265 726.7562081316576,111.95349758557853 723.8269966520866,104.16184144859301 721.9481470076373,105.98737469001344 718.2495814847337,91.94071849699327 711.7006626213653,92.12119397338387 706.1578508858125,73.56649669969448 704.9613337168996,73.21039447082893 698.805119472042,78.49152851456654 697.5402724451915,80.47784139883623 693.6052268314023,82.42688422120523 693.1593210367549,78.26644086337882 683.4579071749257,75.87747186485842 684.0693881543231,79.4995740490607 680.9672399454089,80.32357397337967 681.2374818350833,82.28715250840429 678.9225921554792,82.64659938063613 677.894974327533,75.41239950614084 675.8202981662835,74.65115939864341 675.7236896092196,78.79102868142593 672.7255743148953,78.8177669047966 672.7023274344145,73.8363453416435 648.4298283581222,67.18160042724605 648.0738146696763,67.00583733819246 648.223773473296,62.26180278218351 636.3106393799736,60.716167640388164 629.8142201629393,61.25884502106709 629.0750411773117,61.732706801818836 628.7155248769986,62.49460133828893 628.8684862193396,64.75376311743645 618.479354591777,66.73938483162311 618.7295178415765,68.12664254588651 616.3122428171239,68.8027902053081 618.3353441732704,72.2809409510304 618.1336514937499,73.98423707361854 618.3848418687791,75.1035834491102 612.5255122672354,77.1808952423865 612.5617618060968,78.41157439161174 609.8591853965673,78.66599215172039 609.6546988750305,76.06705179313332 607.3303679551436,76.98333523355421 603.4618382357304,77.11790413108167 600.616267553958,77.58037670078454 598.9858598821435,65.53964536132929 597.4501046952867,65.71433986617467 598.742720200124,77.83476425137536 591.5208162358708,80.07753426668592 589.1737038933348,70.85013382846694 583.0409980441364,71.93490766931944 581.4509605008942,62.72288219291704 580.438368571191,62.840346733960985 580.8451903052201,65.9759571665681 571.8703833744768,66.70016408296533 571.9113751433379,61.90276792375175 565.2180989193671,62.205954613438394 565.5781142320978,66.72771474379175 565.5861047790712,70.10784719288881 564.6233052682566,70.41547322083545 564.7176629444335,77.45331592372787 547.6793229590179,78.55488790702873 547.4030538501625,78.34190497911021 547.3095675567449,76.47233788055888 547.0846190366242,76.08822522757254 539.7730884435058,75.43167345079951 539.7988191580456,74.46292179552387 536.3208339425918,73.98732106688101 536.8309607369542,71.87105055931386 528.8516327208998,71.88423806045455 528.2690645198162,62.037412887987614 528.122786541083,55.59434045058396 527.294006197255,55.553452595384556 527.1663356946998,54.40336402525355 520.1183060684046,54.29866410584856 519.7168949914718,33.1595699306975 516.9968992828619,33.08252752775303 516.5744669999847,33.82527944804497 511.3473215436028,34.03960500990638 507.9774462088954,18.18680874785798 505.471676628425,18.20088923345702 504.2778984440005,17.912219868251213 498.4261249870421,15.590765137950257 498.41358258846475,14.048627546841317 499.3530052733328,4.70365217756671 498.709764754674,4.700845691507197 498.7495551311737,0.0 484.96247535783976,0.45341442799508513 484.60467753844165,2.909819785967443 484.8958197375458,6.256965910552367 481.90091569752377,5.773269169791774 478.267334567303,6.426892370501037 479.95612656152036,15.643308916596538 470.91479806196867,17.606033181198427 472.16257807552876,19.81105250897008 468.3450473068509,20.591414439682353 468.14062002794054,20.50949521399707 467.64952134873977,18.27982641291169 464.14836588643215,18.8964279076273 462.0220545904232,9.60936224061686 461.0800923515407,10.128464242682298 462.49240817701883,16.399786997102638 461.46963276013105,16.669298669761474 460.3920545787458,10.436873325851707 458.1901077315439,11.470496665815745 455.329682639978,15.3017710399821 454.4027510487139,16.213443908186036 453.3780224964816,14.800632585973176 452.28244051022676,8.34377760891482 448.67158832690455,8.215062171501813 448.54506827282006,6.9122735983668235 444.2487005341587,7.070057812974255 444.14103526301994,5.863928509021889 439.29087664606527,6.4738949462263236 439.07256291611435,5.236096135690218 438.49215180764,4.672642811739934 445.0514143704957,3.840050223144658 444.99523834124045,2.9612682388127496 438.3022334027246,3.5471267536925097 437.7432504692133,3.039846749571552 429.61021565957935,3.478551265945839 429.9928336231136,15.4089443972764 405.3059597168087,13.101886696037582 405.0471846719401,13.30625761779811 404.7324514898144,15.130333475797329 397.57559756329636,14.874686721345938 397.662984674261,26.211810146848677 402.28939064317245,27.657814033606655 402.5110073251641,32.68079437340441 405.2547194101242,32.32947353171119 404.4085226031504,37.9485861807911 405.74669163053994,38.27276675178797 406.38459559623635,39.91448610713161 401.67951606409,41.73929229779122 401.38855199923347,40.613258199006225 397.8526684002553,41.81742355522715 400.0209718397173,48.39188166181913 401.71244809640825,47.917148779216745 402.2201069923141,50.58631134971267 398.30531177140807,51.87900778834586 400.00649459414274,59.89983354240508 397.65900134910703,60.96641496741296 398.9581647921461,62.910417111358925 387.74947517089373,66.46674201621516 388.5246623300437,71.08431861631834 376.1031186197712,71.71195829302798 377.2008482919707,77.3436473383739 367.30471996495226,77.94893329875686 368.2632198777377,82.45845819596622 364.2325871943556,82.65649047016962 360.4614434596934,85.90565282120866 357.5852801068108,86.08440730220303 357.49209582123314,88.32697759506107 350.3090769927008,88.48400630638349 349.2644249692586,88.69369098921021 348.6770441559589,89.51005585133657 345.28941399290466,87.87605521036903 344.81152137286784,87.06053084766353 343.8516401057368,78.641147386422 347.1567566048967,78.45228603372124 347.92840511444496,77.88919897502598 348.02299332436274,75.38806475451707 347.57878033251245,74.11164664094241 347.41185425031006,72.80859259855868 344.7812707082811,64.98823715457172 341.9220338663401,65.68089693745344 343.02240446826397,70.61183540911094 336.92895344349273,71.77085329074089 337.6346548370147,76.10165791371895 339.5681629511022,75.96821360120185 340.72190415461046,84.61914097063692 340.66571169978766,85.71545216900984 337.6941825304785,84.27036855587005 339.044061739982,96.52051014089068 335.70470658883335,93.45043859322999 324.86338294237294,92.55983182120036 324.8494310318792,87.32599694095882 321.4318661137467,87.32390203136009 321.4346087217615,86.79430908811486 316.7986549584713,87.03817016730585 316.76555710189507,85.52394419971841 313.5217379377565,85.48524356819297 312.71979913046306,86.28793224714622 312.1505665816971,79.91097802158725 307.93557201159,79.87334969117006 305.0420847128879,79.22575020724554 305.91343697202603,84.94074526067453 297.24909662544104,86.75805393598313 298.6453505654798,95.27654411271357 291.66625579016215,97.3673356293175 293.6419497620088,107.04160894092217 289.47080159362855,106.36521647821809 289.80117717130895,107.69410972283896 290.44222262250315,112.24591472348743 291.4708799792484,118.70636276940888 293.6620723176419,118.69619073115064 294.0784465513305,119.2716209535244 294.08892491064216,120.93215033090769 292.8819355427044,128.52404828080307 291.2434770298636,128.83622462526523 291.2105312919226,131.40620027954458 285.55452178497666,132.4321603991488 286.0500739948377,137.5938006206697 287.1564370616632,147.11393135191122 290.8092240770328,147.03680661689424 298.81457627977164,146.75833971356622 301.0251069287472,146.7918062926591 303.19394321690106,154.7535419626003 303.8752165176616,159.53292023656996 303.6444838051256,160.31365454131168 301.8414354454265,160.70604663109998 294.7512386439008,161.9895019380278 289.9047358862322,162.97937140191914 287.0476672951686,163.4407994001637 288.46858591374973,169.61983790248456 285.1494953791371,170.3466990141506 282.00112979786945,171.1554225430213 283.6775839455047,177.32651331678375 284.5537029167285,180.32191056975944 268.212723867908,183.06581554234538 265.6724368446975,183.30126267991488 266.1868265752,188.48484797223466 266.31772702170804,190.57905926449916 262.0557337976346,191.2474918984729 263.2030320402429,198.87071516408133 257.12717321432945,199.5977142591055 257.85095614777924,206.15009052279675 258.1788984611068,209.68466329037352 258.26768841508846,211.97179801350137 255.8104052139041,211.9583612150334 257.41904881236775,222.96114453079582 257.93275796395204,228.25377192324868 254.18964013687503,229.5978029062843 251.14317761161468,230.55618293500925 246.04918559648533,231.50011744196513 245.3140349125604,231.42129213392832 245.20027601308186,229.74773417508766 244.97497314067616,229.494148631565 237.8660236378377,228.47344378759908 226.80498969186434,229.0565857394567 226.536772502581,229.5784571978652 226.33694055393457,232.5275533411126 222.07779643563794,232.51920142138795 221.7011593296284,232.1619337737386 221.65459118991296,229.29556776956258 214.93666836691136,229.51309818079562 214.20946927307457,229.73639946262585 213.20111205470045,230.63101632463247 212.8426378138821,230.476332566795 212.19272220163592,220.47865770175588 203.7109922391471,223.43043194547442 202.54796542745876,222.69168039630063 196.61718136216393,223.19663672206013 195.27524710729932,225.05500862132862 194.33505737150173,224.9904072389935 193.6144969593706,220.2914449642139 185.2234018893827,221.29281984755664 173.36689163313645,221.42935790827084 172.98962356036023,221.19661407212163 172.3688178014365,217.2520704604069 167.53918512295073,216.70034669991668 170.23319056846242,228.57939438773388 172.15931792830045,228.3134213846377 172.41379637628745,232.21843346605152 173.2827602622877,232.5070170393638 177.98097249511787,232.49707994608855 179.86809415005874,237.27765833456203 179.78328304511132,237.7600418524733 178.05283474354746,237.95868700825582 177.8146109410142,238.2781777146849 177.49256015564632,244.28578518247912 180.53161436651425,244.69290665731575 181.4075734487151,248.7666300634353 181.56998765227019,249.04172382679758 182.95237730262502,248.98433397705787 183.47696839612135,252.10271425809321 184.38746282931035,252.31672474649997 186.40442813986672,264.7212072966056 180.73931403045944,267.0372916583382 180.4598945793009,267.38458353585037 181.7675257962859,269.83460674649444 182.74369871897423,272.8746097919445 183.57652863243268,274.01653971231593 184.64863637206042,276.32810233114634 182.1613889625244,279.6844552006087 180.9503727712448,276.3720518712021 180.38824232445359,276.38435923890245 178.79617779651164,277.2068854346629 177.2579706520337,275.82405966841173 175.22611794095627,274.70937364156543 172.35004020807477,274.4121752961833 172.4835007812632,276.33823204340234 169.6947913055983,276.7704981043748 170.1441938571937,278.7046401922439 162.03770607083922,279.71927963117923 162.2640499689081,281.4247028023091 160.71710091219563,281.5339524910285 160.19200468625155,281.8081146053572 160.13345588991342,288.44965926437305 151.77844255768733,288.1851651927425 151.62243249817425,300.6237638727405 140.49436133180888,303.27074511712067 140.11460568411465,301.8260667153588 139.93772417417227,298.7377082494967 139.69384324932992,298.37175011938245 125.81398095109381,297.2786146585595 125.47615493575199,304.0493095254749 94.77861544026183,301.28135673720476 86.3653205758324,303.7056498141008 85.53259524233577,307.2394779771374 86.47460817691663,310.54140030423287 87.85413477319877,314.4909244977685 91.997613226235,313.5790247875083 94.37926814590793,324.01776240774524 90.53421895596502,325.0219135060395 90.37592326985184,325.64399591179443 93.06918272742304,335.65164822501583 93.4249497172586,335.8688174575698 98.78352081315161,335.96435358853637 99.56207698826037,343.9008179142925 98.3932468271585,344.0493527403969 98.35278840535253,344.3481745793031 101.2946953862475,355.61272370645236 94.4563418230345,357.85392373333127 75.14437496147693,363.0853441223056 72.02969387099495,353.39258315161305 61.15471964951888,355.87514787870236 54.95826015456066,355.78268564198464 53.82441170169595,347.426314123858 52.51128573767294,345.98173829689836 51.45348014756933,335.19586284337817 53.94525933398184,334.94389279099425 55.83652054961647,333.8874155274108 56.28291704596305,332.7531642037195 56.2434816676185,329.4817971193121 55.96895520995882,329.0189725217266 53.5009546689548,328.9595820008692 53.279057366918146,328.5687436200959 53.18341543899684,322.7766968066144 52.8980583747328,319.1081029732347 54.30361018094025,318.9021365318172 53.81290792803715,315.2727295979004 50.43800202297687,312.9364063657349 48.67673858529686,312.9344502563747 47.6334467556761,307.83414572800257 44.98955720638756,308.15048210966813 22.96340211395738,309.0418499829979 22.980861903900305,306.3721010139727 13.538251401042842,306.30079571713014 12.9230065103487,304.838754896876 9.341029145276208,304.72167232313495 9.23654796025602,303.372030073579 12.495708600940295,303.0477219803022 12.33216940435617,301.50453977193445 9.86419774225324,301.4882635057031 9.537806930925134,301.227533664166 9.291580326800554,297.96100624662245 5.294155848988204,298.66356761979904 4.610465993200575,298.07646585140174 0.0,298.4508696373276 0.040943454776459304,301.728507040309 2.3020797339212278,302.0114439589879 2.668854083074307,306.7305397890008 3.2849779389312745,320.42353151139787 2.8722075983577757,328.8198087170948 2.135832818933214,336.1609438419929 2.116841620189203,339.0238329863881 2.4130283508415986,340.9355124495863 8.706120621072296,343.5068269131518 9.13701434664267,348.05186088883335 13.070207202912322,348.0777864256165 13.365407298589783,348.3227270273394 13.688450003853236,350.57102331073395 12.74261742810588,350.91994865812615 12.669308482166121,352.89148525207816 13.893106653870369,353.57557094221727 15.77629643200719,353.8029101977545 16.171343713232012,360.89293207132675 28.741286227319083,360.9938098436388 31.265924524690753,367.9917232968965 40.663505985914895,366.1054874528609 45.222721637246025,381.78634828004226 47.532294286533656,387.443072915657 50.526352983449414,396.6618718584656 41.89282510602537,396.279279027446 39.91121364205705,396.65591358287895 38.49680974797464,398.525328784022 37.352191345088876,401.2220449171939 36.05981817778104,412.57221071397805 34.53161647973625,418.9456428191748 33.27902311050412,422.6354300220862 27.840223031204197,422.2979094816548 28.881673556816406,427.33284099065247 28.817841590953762,427.8682638584555 24.218784306621504,429.04082337101784 24.61986381672343,431.94693493522294 22.987978037163163,432.316355192985 24.088003350280047,439.83461358456816 24.80202730154387,441.770779655076 29.961164841856903,439.5239385157398 46.11143303605985,435.0393983669859 51.82588601517274,432.3407722651788 56.18586771821333,428.51807472153837 59.13863627553832,425.03214095767373 60.32245967335974,424.11753467800094 61.00741624800947,424.2122341392749 62.45612889334722,430.2402549161357 67.2648102696435,444.36135687312594 60.57246032997295,445.926426393033 59.64634530430691,443.50304331580037 56.28926829355369,444.1016128387903 56.122509483305556,444.50865742909696 56.24812494946792,447.5250959016136 56.57542541746042,452.23132671133726 60.676695561092,452.31662336906123 61.77065155201223,457.2115187314825 63.034507747100264,457.0263909380583 63.2387735785366,460.22089408509714 66.12970489468314,460.06787053695473 66.0718777608317,456.2356564452831 76.09894545996305,454.23344534457243 75.43962201706526,451.1980919052988 78.49876641748008,450.3792846665022 78.68733173636726,449.9536685055971 77.9600310105389,446.59078697128564 80.07341943346839,446.04951450493695 80.37495175261222,445.70248789564266 79.72706214498353,442.7637931914215 82.68242389999808,441.91935561040896 82.48271840524541,439.4975003268378 89.70486091259149,438.4708948551805 89.95820540448732,438.8805784974117 90.14426740133194,441.956558290707 90.35789584930728,442.1541524073292 101.520279358937,441.85257393486484 100.60805588097163,455.09950601651474 105.77007266710244,455.4428364983105 105.40202372741456,453.6554975014517 101.2857850444994,453.2531899246765 101.270476488997,452.21257968372333 105.43283237799348,452.1790272716942 105.75389343284378,451.39905727779166 108.33008024456296,450.972507294263 112.55560633303115,460.34122374083336 113.33876041169778,478.3618577267486 110.87472901207585,478.95426932897476 110.76926734000091,479.221540212532 112.06763553716502,495.11756014025843 112.64751767105311,495.85008807075747 116.98260625139854,504.45921465143033 124.7988740703142,518.8931636162557 129.90895336390597,514.490981412086 130.32782080501852,521.5185077648392 130.19791492343973,522.6361164356937 126.41970519960208,532.0059204042534" /><circle cx="752.6453756902823" cy="321.12380167605954" fill="rgb(100%,100%,100%)" r="16" stroke="grey" stroke-width="8" /></svg>