<?xml version="1.0" encoding="utf-8" ?>
<svg baseProfile="full" height="1024" version="1.1" width="1024" xmlns="http://www.w3.org/2000/svg" xmlns:ev="http://www.w3.org/2001/xml-events" xmlns:xlink="http://www.w3.org/1999/xlink"><defs /><polygon fill="black" points="116.18666210430655,510.98908272423773 114.52446471762444,514.0717160421484 114.43126483613742,531.312928059536 118.81364206978117,534.5083964917658 119.91222996861003,540.5062156538299 128.301098086826,565.1673802491649 127.57460789350388,576.7528931443255 125.22727051644004,585.0931621267788 118.81281360378117,593.0021648535014 116.63710823431818,604.8272126284422 114.01195837327421,612.8569504318336 115.11673291257651,626.2848938961213 112.44474266659549,628.503606052255 107.1040022071836,630.9581358455649 102.99417165456126,634.4479859482365 100.35415419946005,639.8305549823604 100.63717578158884,648.9973489682927 99.62270682873093,653.2758324000854 93.31938863060648,664.0475797588983 87.89743610990404,675.5850129036594 84.77234947927039,683.511298347462 80.81288481441098,690.468457276454 77.5264282575908,691.3108675822785 71.13655789230891,690.6247575917978 66.27556160619895,692.7468079288996 62.91788570086052,696.9687746753231 57.9063677127493,699.4078854435157 50.20214369701536,704.5475309822293 45.97350146444242,708.2528874780417 37.89272558044079,718.1247496340084 29.416017860940947,731.0976005034943 24.61499328059609,740.388073055654 20.960928434852395,751.3940377397798 8.950139636780113,763.2322846555679 12.159172051075108,772.7398790723653 12.24816697100325,775.0351558143301 9.051513538325219,785.0353214148759 0.8736580725263263,796.2503281316582 0.0,798.1907688212643 1.2170769085425583,802.3066862669498 3.1342388478070764,803.5435085810025 6.157994393480769,803.5100354817962 11.37616570548273,800.5397412476034 23.58815720720386,791.1384580297449 29.085672935413644,778.6335938863789 30.66926058839676,776.4477146776575 35.60396880855,775.1696141635969 44.12331342177736,774.9668403765079 51.52874157835116,772.533825124127 58.069560551901475,770.9412096035464 76.93610689438844,770.9711974385534 82.46714625196785,774.350444426177 82.94714359614886,780.6954373977588 85.37403707407626,785.8063099448153 97.44738539599479,790.5304006604774 131.00077840299525,790.4548612557552 140.68903209803403,787.7916629323947 142.8327575491589,786.0433031148876 142.91964799486993,780.2105096294653 147.40621615997188,776.7178579541405 157.64678517973735,775.0687208768517 165.94525506964635,774.4090907504791 175.43302118979537,770.9879922492125 179.12303133286034,769.2624385549515 181.14730097393462,761.9366054162881 181.6569727637691,753.5722681115737 183.45939740456504,749.0109863399473 186.44337068736954,750.9771624457758 192.8456722636068,761.9505804933208 195.83604805158444,763.5156712538644 198.1498676017399,763.0441711451092 199.35242873786132,759.9040726550592 198.56715101636303,745.1448263065064 199.31454745896318,741.5974233497516 208.06257106993752,733.1767001379233 224.09230448654358,719.3366618568234 237.90437350467886,715.7869433334204 249.77384746345217,714.0165684443666 257.2814561114834,706.4818275820517 260.2107102084813,709.8721395379321 262.16885981423576,719.5408078321434 263.6800147942365,728.8038336381526 266.3072925988839,737.8871106899403 267.18802008196354,743.6986491656572 268.9834222380161,748.7410570036659 271.91204868186645,752.328113458673 275.22155648073135,755.1589862824655 284.445275473807,759.4779028210727 287.3051363855825,762.1695708989462 290.5680797485961,768.6102119105442 291.6109559861918,772.5421702096213 290.42752705000674,774.4813221883745 287.05761156012164,776.1349916928639 284.4110295735869,781.24348109777 285.0607991163732,790.2846618689052 289.1361612534104,799.0738221875904 294.07213784817134,803.6042968651782 304.5181193912368,812.0041894946722 323.7696365812554,827.8130494067971 341.26242868565487,832.1619592835257 358.57627508963407,832.685469614954 372.05813020366065,833.4787947605328 377.5524695159809,837.3332786997099 380.18082791312503,845.4249824925378 378.4161105632484,859.5500309990463 372.7245122089273,873.2494459474854 367.5762840765624,887.6568184999601 372.58279713477,943.2419231992474 386.6880990820503,982.1126092871444 412.19029610135476,992.600549071307 458.1782324342565,991.1732943675119 481.3513290430834,1017.4905395057993 496.8071303154053,1024.0 526.4853071131281,1020.8750380169867 550.6966318396604,1013.3427577732382 561.0019699601808,1002.4299641189195 572.824131304867,995.70767655686 576.2641827987021,995.5248922526175 581.936803777264,978.195551088207 579.9732546156541,963.671083050471 580.4801884832881,957.2032105398937 582.9617728481905,951.7745701860255 586.6547268496299,947.6975356888174 590.6289895464481,945.4573975991427 595.8126464243979,945.6103090559036 599.8738216163586,947.5854352858355 605.4759375114949,953.4103878453815 614.7314511702374,965.3394803802604 620.9925560343269,957.8827111458222 631.390307084884,969.1415042728399 631.6267715452735,967.0400240341697 642.51920175401,968.8596204989357 644.1838210867887,972.3282025480205 652.9517213099914,973.5700142833209 657.2141650366793,975.6072986672561 659.2679012177647,982.3266488593536 663.8104933978537,982.5316991199878 669.6658902802809,981.8287294046495 676.5945260889222,978.5998148465642 693.178798292342,969.1719819881594 696.1747502346634,966.5471218718061 696.6480199244455,957.4906960110803 695.8024512728844,953.4130481776601 694.064421651952,950.934749946063 689.6112689116425,947.9407315280458 681.6505281319445,946.9560170032813 671.2545411576705,946.7233789500347 648.7529382277197,947.9192731651922 634.4029293875534,947.8012783610668 630.7994565877214,946.2946714314171 627.9878767238577,943.4044901445666 633.132653492028,936.8760020918718 636.0075711356925,928.6580758462476 636.3278970906767,919.243932394028 635.7715234524914,914.6030987326387 632.7785867322035,909.8580898582239 625.2474360665938,905.9780819188526 621.1072172789471,906.9085579152614 617.7241477771416,904.3426938211409 611.2602456085827,900.7910905704741 608.1853438153781,896.2719567193365 599.7831312321438,890.9086677912329 588.7609910881142,884.7900288345006 576.4277847345796,874.9694265123866 564.7807281588113,863.787072520537 558.2362971847325,858.8107343942618 539.5274290041107,848.8627527387009 531.0043689210493,841.1687120248965 527.9154725480855,836.8650371811783 528.383130508708,832.7837916338669 532.2212873750059,827.5323437868548 540.0417177078791,823.2176540152019 559.8323552622708,810.33787801286 565.1643657527136,805.6156213769901 569.7409373189321,799.4266871101579 578.0188898552612,785.8044313348572 581.3763120111438,781.9684272235813 586.0539799099627,781.078059336947 590.1163610754613,782.9679259031268 599.5530424472535,788.7986997397652 608.6122119894662,791.4971400474502 611.8371458540544,792.06202765183 615.0357178545131,790.7125015984687 616.5811370875982,787.9708106310007 615.4805183831439,781.7886302098862 607.6324334417703,770.5345439029301 605.2745454801054,763.4061247535637 604.5968083458146,758.6183959463735 605.7178442580679,747.0914879021778 607.1228888307224,740.956684862515 608.3589246627491,738.3968138500745 611.4667743859676,735.7634012958583 614.6650968203535,736.0713416605154 617.5835964311041,738.3083244922219 629.8004563263049,755.2526310884602 636.7476039686821,763.2133090846253 644.1627789075377,767.5062536152789 647.869125268869,767.8275558038617 650.1988320510076,766.2123471088898 653.8060408148453,755.2518448012383 657.7096208810947,752.5099882643588 669.2193683376362,750.9238341303908 672.3146341432274,749.686324331278 679.5683297679413,745.3983000312019 683.1019380966134,744.5964976029304 689.9184030740925,744.828513110981 693.6291381507032,746.700306995179 696.7873171100533,751.9086507315602 698.7087457320841,753.6414126349753 702.323144841818,752.9519847274588 707.9726508467419,745.6356673939226 713.5499074123308,739.2968928013693 721.244972601723,731.4021211824424 728.4511490239825,721.2221468974687 731.0579195705117,716.3604572243303 733.5448600733149,708.169081357126 733.6336924278694,701.53141686554 736.8818960529193,697.6821857160435 742.671143652562,697.0599532101617 746.1503217224747,699.471262671885 746.5481638030067,702.9673459007881 743.1555427151703,708.0281951156364 742.5702717551853,711.1272682676815 743.9426867700739,713.7586373091319 755.3329860575757,716.0662658972419 757.2558413452525,715.259184917501 758.3816192715815,712.2867547242267 758.4542363807113,701.5896232691648 757.0096746346514,697.6950019507942 755.0853314790329,696.4881818882054 745.0598772284479,696.7397083383103 743.0073757302979,695.6340143693802 744.0161704704192,693.8036988429585 749.250265399942,692.497823037373 751.4344161198824,690.4489149804731 752.0431541112446,687.7317504460611 751.1027152095264,685.442630960277 743.8540322987334,678.6369728329933 742.7211845563304,676.7179327155429 743.545446550658,672.9443540267187 744.9033667660991,671.4340601738164 749.0642309525495,672.1034251751458 751.9711603484845,675.8754474919012 754.7185235330933,678.2277005795918 758.1994762152707,679.2099836067728 761.2477531103623,678.7097255710523 764.9611389408027,676.4672310836031 766.3428810325098,674.1653827860449 766.274788489078,669.9537989001503 763.1738940838886,664.2604802415499 761.6206660371803,656.925173985755 762.1611310012186,653.5297996253121 764.7739803914033,649.7505644057708 771.9796665450908,646.3734615541612 774.0867396860799,643.6268276598305 774.2294670036189,640.2802588985403 773.1031800232338,638.6195699286513 767.0239347097911,635.1645704567477 758.0801513061122,631.9035345835889 752.8405628829262,628.567653558981 749.9324242389321,622.8069811808654 750.1178768358409,619.7591130905596 752.3477260649397,618.6271066699941 758.9448259774671,621.5410100007574 762.4959500020076,622.44025852302 768.8058344230448,621.5648762023249 774.5369184215816,619.5128010980898 781.4884765866198,613.5388664622318 783.0371060121214,610.4908232781625 787.0752304645964,600.2561462896333 787.0205031145827,597.7715671696697 783.4758610532876,597.4068887069541 774.7266077369568,604.9276953949291 769.9357576676836,606.9349747425626 766.0842764218174,606.4332629893104 764.2183624233431,602.4470241811266 765.755178567864,597.3372569721797 771.3694208995743,590.1960562873537 778.691858227823,582.6044069696527 782.9529056861533,580.0086968442049 787.6657640260433,579.9103619231014 790.6452668360963,582.1683767916138 795.7060744509149,590.1883599407042 798.6456592778593,593.1550136727451 802.6287312253545,595.2983783784991 811.7116781824427,597.6403940224963 811.767408918765,585.8178976006736 812.9863926546132,583.2512050077598 817.944474457169,581.5005486942194 820.3345921884585,583.0972922447959 825.6612680257384,593.425683685097 831.6325975018591,591.4649346282222 838.1948817457859,579.2676503725679 844.3885728345866,566.6274857603378 836.0509471645435,554.3231463180355 832.7063199663615,545.9821616306326 830.739697159529,533.8463357563248 832.5469975670024,521.347867582583 836.1193661595717,510.55525529036856 835.2150269504618,493.4695807820533 835.915469259971,484.4755558281897 837.2003284194253,475.7521848493684 833.5766956170704,467.70379126663784 826.5335832719254,462.91134184087457 818.8345061798107,454.07831575792386 818.0245976686053,442.20914105766906 818.9637216552779,430.3128782540141 812.4902733776578,421.8782982440604 810.3660600570743,417.81908418331284 808.5932282188032,416.28065843139075 807.5479515779165,411.2137828541963 808.656004877976,406.16337400146654 808.3716957058742,399.18780094935494 809.9113260845548,380.05419066003776 796.2100087203082,377.15241726004626 792.9156026870396,370.842733170021 790.64719637812,358.43276454107865 793.198939288323,350.3461634341455 802.8862456659031,339.96805590777876 808.2838980571405,335.2389050922342 814.2614244881369,332.29354373798105 820.7931318856752,332.54383602083806 823.412052905817,333.7073406870253 829.1651508179389,330.6683432785543 834.2630494578099,324.7685822310484 837.7368206031739,313.9497878281212 841.0193152880886,312.76443314303083 847.697406588782,313.7506687319393 856.9829411534771,313.5548255449128 868.230701371384,310.4361270162848 872.960365422596,302.19283746552685 875.1123618673232,300.44654015050116 884.2737509939818,288.079794487511 894.4779871703298,276.8637735203155 903.0523458813627,271.4865081696902 908.1481889587017,265.88443192531804 900.4912549249348,260.7997422408048 884.3042487402201,258.39163346718465 878.4905608704091,269.3646482481023 865.1873525868036,265.8253577657923 853.6159440202185,264.32945117515294 846.9564599918496,262.56749423693157 845.9821273353149,275.2579786508312 843.4558914428447,276.4586674331763 837.658662170748,272.08470189531465 831.8826426023979,264.5422234407363 827.2166174535704,269.7443944163673 820.5196440047232,279.86033647519434 812.6624008242708,289.7033698686622 810.3036055707838,298.9613790208299 794.3118457489755,307.34536997415364 791.6610013699349,316.90038197902925 786.7074222259068,321.25244087108365 768.9738480497235,324.7109594475095 777.6747092102123,331.95847699230615 774.4324946733063,335.9546407191922 768.6957496500287,340.04440493770994 764.2702283091395,342.05772144174296 757.0164292281455,338.62539829404454 748.3525632009722,341.71014103315144 732.0081037573427,340.63925604769906 724.0169062869138,344.95446548977543 716.3552040530526,346.3663045945898 711.66471419003,343.23791291295856 703.2330786444091,348.4375728410481 695.1520457749999,335.38561358805794 683.8417187787201,336.2300602546826 678.2657251001172,333.7773940849504 666.3783347490198,327.473734818824 662.0065811867686,328.3670038062261 657.7801417073556,326.00703141103395 646.5466361174832,307.4222994145366 637.205485803451,298.82737312923825 641.8268886619554,295.11576373230446 655.2567341401464,292.159409611583 662.0032168533342,290.09153803003846 675.0276391071452,282.7514160253131 680.3034584193915,274.89395879930294 680.4945824448298,266.2364049528934 680.2693952657128,251.75944620544135 682.1923532905594,244.48857375261025 684.8682936426108,230.24514787818578 687.9441895275638,222.65910251383116 694.4822769642841,213.58012508723016 696.0498445719877,202.54080970265363 696.8394972240128,193.03734548482294 698.9265005405246,189.51109069014603 698.5258068101858,188.07777840638107 704.6685718079693,177.4876348788721 704.0082600856138,171.6511074209276 701.8233979986627,166.58818649792283 702.3932896846354,164.9999334211684 705.936370117815,163.4264297641629 707.9681306401259,161.0234672437216 709.319192378267,158.29872673649004 709.8813032360553,152.22836767055367 712.2831267937903,150.65649942480945 709.5254254104743,147.58032125591728 709.6810755212653,142.83537433167123 707.6345493524753,140.66395625142172 710.3452209526846,134.21572197068338 708.4332114597919,131.015014463458 704.2579537477628,128.95977421669454 690.3620866396857,119.41163816086282 677.1698440686795,108.8279376359576 671.1181323725934,100.95005955724582 665.0769951853694,92.0097557068575 661.3164749083475,84.0299832836439 656.4088634063775,76.01950845993849 649.5386591096175,65.88077500731458 638.9550096943408,47.18439350018866 633.7263418462148,38.45891762665906 634.1426749309377,37.99369168707642 631.2395675158797,32.03442459813027 631.8249511507956,29.75515928763491 635.2090191070952,22.579635728995072 631.4213526080733,20.139744485338838 633.6204556505519,17.92727056784122 627.584263378092,13.437042726219602 634.3848141543331,2.147515349608284 629.1430333491685,0.0 624.1887219841574,9.31885457072508 620.7393457241023,13.883681489456308 613.6449962928559,9.535425488284886 605.6320296484748,20.599261298464626 603.3710017105843,17.988098887490423 594.9983102633936,28.049883389153933 588.071702745756,32.21283110553111 579.2920741656219,36.815830465569434 575.0065598913241,38.49658447364516 580.6778135978208,46.3123654664131 570.8824595146747,50.93605866433393 562.091263755263,54.60026022240106 557.4437813954837,57.39796881964617 554.4849809846759,59.96865011411478 549.9384764757691,66.78518125490973 545.1037809433506,70.27444009118187 542.9338423290295,70.95628328839803 538.8334858470445,74.45277741096106 534.2580082654505,74.45693791593715 533.0189180660394,78.05380272379682 533.0992303694031,82.29918256577173 529.7414361414518,84.26298466292201 526.0223049646754,82.1022079173656 519.9008144461635,88.22913534634824 519.2602784070748,90.26305403452545 517.1578303610144,91.33185511235729 509.23138824948705,89.92196965749451 507.58776852198906,91.69972611731805 493.31938585659327,100.75726566786625 492.2176042832061,103.01100638406353 486.28121974796807,105.88425401549273 482.3424077029967,109.8109652101441 478.5248493470792,110.84969018619017 468.65849571836924,110.22990231274798 466.12592448139486,99.99639748347602 463.0855044010196,95.83000066924126 453.9403348867648,91.17549028476697 445.49556173356683,91.19117810880448 434.96158373156857,92.58899585607355 420.0803900980087,93.54726699224545 402.1531558762817,90.3226857409677 396.72500417776024,96.86886293955433 396.6194622361436,101.88865694006336 395.5053197291347,104.23206622379826 392.3892235277284,106.56126222094997 393.26708529019123,109.64450733435604 390.70057593488957,111.7969750977835 382.8967919600138,112.08976765232455 381.09239764348825,112.81236153991699 380.5074671034725,115.14185333831404 374.86882773335367,116.71608723953887 373.0756226203659,115.06023292296334 366.87741198726303,118.25938932699921 365.9258421061174,122.60606521302361 358.43013871366935,128.3097231354277 355.886766688137,129.1856089674634 350.2809109920501,129.48278537514818 353.118621166254,133.67363766971346 352.70676203314423,137.84364340638058 350.50946061466067,139.80610932586626 348.8245100694959,144.49104817399063 351.4652402131838,150.12975866738896 351.0830411319055,151.94320027194703 346.69733873606685,155.6961541413665 342.4988941679706,158.18555901903358 335.8919288559695,166.9750099120405 332.9514142112526,170.0111380881266 318.450068547591,159.91769061205014 317.1160067712909,146.53368048808147 296.3296477834178,131.3857097833428 287.84086102718555,131.05730918574534 278.84528168545864,131.569649875584 270.09459269476906,133.25779600487238 254.08587514447163,135.82500675105848 247.85450874553706,139.63834899287212 241.64266063786727,151.01826141412153 237.44806608678175,154.91112846654596 231.04400703700406,155.53556653359112 219.66451043314092,157.43682348129505 213.4043541548091,157.36900268359625 213.29824303474936,153.52716872264307 210.1280920731655,151.6128000292182 202.06084466557036,149.8629072201154 195.64943715665413,151.64911708982572 190.75141851957488,154.92755760863167 185.0331021280769,160.23591271662815 179.50908736568144,168.1617890856087 177.30785834006375,172.4388795027994 173.13002482377522,175.49300368822787 165.62254806994585,174.0640227448239 158.27844099875338,176.13070530432606 143.25553091213624,189.2555528217962 134.62090904970552,194.46706653711033 128.9274515606499,198.91727771300168 114.06129380938201,207.6906981278505 109.82147377125088,212.19250241575685 97.06687594285778,219.0041002417704 81.53341508370846,230.36012335144312 75.18650087464593,237.0979519063219 61.13376513867008,248.18941175790337 48.44794023953214,253.51539078116468 41.343788920862416,257.89898127913364 38.43232392320613,269.24272490889996 37.75278997372711,279.43804034963773 38.12051354459189,288.2923285252808 39.51603805764434,296.48812241230735 41.19505471234112,300.5571336587707 51.01962719890216,309.0542245007448 61.93275681746451,306.39642727373314 78.78619048315454,312.7847342233458 79.18031128136572,320.27080567609676 76.84729583280904,337.93747944393283 73.66304540300688,344.0173980651209 71.18922175671429,343.3229583510065 66.88780599803826,343.76641361992563 60.96391753162117,345.41148183433177 39.058827826055,373.0364713867077 30.8806199622419,382.8863900767549 27.170616199921604,388.8371817204271 26.05882391241486,403.3019638941804 32.17875084031762,417.4770206864256 37.034039752934476,427.52489164328017 43.04391410274419,437.0499513012837 57.09007973410096,441.3448937481239 67.45799361641362,443.46834717255206 82.2187696588905,444.8606817819002 92.65984193475134,445.2396061803656 108.57390282716449,447.23959789072444 119.84999022821489,449.07332716728695 135.8829549241472,448.66101299550337 145.87778197028504,443.3603142343601 148.42096736698238,442.6599668948835 152.53837601683713,444.01255460507593 152.65910830595337,443.1646199589874 162.86402692511376,443.6437651914614 168.94388603876922,444.5731307424894 171.79947424613488,442.8423321386723 173.89554650105805,443.06782998677545 174.17239853923726,438.9939495015482 183.27751473346657,439.43424273953474 193.58326795616975,440.3827518497768 190.50149964187042,431.0152816559172 197.95703459227542,437.71071594187674 203.86682516097812,442.29318189304126 213.43581679070604,448.82389515978264 209.7794154721011,451.1592287087948 208.55843151180437,464.0860909022091 199.0343585846607,463.12041757818736 197.95315379373096,467.4609567655075 196.25108619750418,467.3340627983574 174.60318522770348,465.5327529499631 166.29555105795126,465.1855657118783 166.4645565632606,459.88863201102606 159.61369822232274,459.8492691662981 159.75724163026808,456.23371489412693 157.40277670246414,455.7372269960398 156.3942195764598,460.5184215189747 148.79113644560798,459.533791397796 146.78571485486285,457.38321708074386 144.46177890507343,457.2762829014613 145.10168636572374,453.07387099582195 139.10579875140354,452.57271022248256 139.1383278649633,453.967937263439 134.239979827359,455.39994644647174 134.31953568826572,458.48651977702207 132.65885221040182,461.57708696726297 126.31400149044892,460.834540418591 127.65268500609682,468.23579062891235 133.47458604883667,467.852485742818 124.53966291235216,489.12212585289296 122.08772154158771,494.9595713163517 120.29082191694026,499.249108831479 118.0680187449567,499.46167894671555 108.29314739567845,496.40939906491246 101.56845788921805,495.5567741140022 105.1842471083408,506.14356453293647 112.4502428102047,509.9479412834621 116.18666210430655,510.98908272423773" /><circle cx="506.47735652356687" cy="422.4818136573424" fill="rgb(100%,100%,100%)" r="16" stroke="grey" stroke-width="8" /></svg>