<?xml version="1.0" encoding="utf-8" ?>
<svg baseProfile="full" height="1024" version="1.1" width="1024" xmlns="http://www.w3.org/2000/svg" xmlns:ev="http://www.w3.org/2001/xml-events" xmlns:xlink="http://www.w3.org/1999/xlink"><defs /><polygon fill="black" points="808.4870427565342,109.32687548617628 805.86794237711,109.78518895047 797.2783732656219,109.8854506187115 793.9582983385759,111.49837992153152 788.4274580561573,120.68593183802261 778.7867376982598,140.59177470341194 774.5293441269438,145.69998232085345 763.3619872210749,144.467543580324 748.7497630913703,147.18630247085628 740.730994389781,144.63951734826117 737.0920883440521,138.44954980992168 733.6435805706568,121.26581937968467 732.4880200855159,113.23068925898315 721.6485969550062,101.91773334483162 715.9811536817942,93.86555167201948 707.0532988647362,88.54934539520605 694.800025021515,82.32445038650519 688.164915466343,74.92434881383019 678.0049335879665,65.42282998084181 672.935313685095,63.13433014028374 661.9635698322845,62.978531153287804 648.907869264808,69.50785392050216 648.2256169920847,69.60428945662204 638.960911711532,67.7438479408321 630.4206557083144,62.63919207389267 619.7568917277816,56.831671440148625 611.9346326642224,55.80897400253912 606.9503609948501,61.12784503065609 606.753460963175,73.6670715902959 602.8182787284188,76.52740047169493 592.9147047329795,65.9900051366609 589.1473354172157,66.36763194210164 581.3636124858315,69.02842917931832 570.913992539895,70.75331144999882 566.2586431171064,68.56363589793852 562.296957756111,62.14486959508724 562.1816773033601,56.556293875333495 551.0622189838293,46.18691830416083 538.600173057786,36.5984862532606 526.4735287336184,36.39836197690397 527.3671115779271,31.082740885747626 523.5176592990051,28.87255815702531 515.774971872562,29.05419374447058 512.4058175141664,32.749655499161804 513.0020364511774,37.27213135910563 509.4110486945416,42.17115533877484 504.8330735569465,44.23881616695155 501.28845891035667,42.641916171842695 493.74831975694536,36.038399547035624 483.1703307030353,34.9700740207918 481.2326824006957,39.53745362727784 478.56631530975073,43.32984027189741 475.0382613489012,44.82590023351156 469.66011951069123,42.35586657392582 467.52486410252357,36.6577045062096 466.0285012861925,30.399450858634168 466.22752691876775,19.75123641409482 466.45365059496424,19.147809081578657 475.0051936049509,10.502248986232189 489.58704407667034,11.209095193196504 489.90306180926876,8.41348614348226 487.7516827187679,6.258300006582203 479.30644033271847,1.2571461213556177 474.14429288725654,0.0 471.7974964718801,1.856576318493694 470.037381252645,9.127775580740035 466.25239673634667,13.38929739984917 465.31537172427767,8.45935049264358 457.1813035876678,13.087684250305529 451.706509417206,17.985457541005303 445.2637387650582,17.646810927210026 441.0383577151871,12.227614544173207 440.15839302554576,3.9074732386575306 436.8959428434624,3.0248283150071984 432.51939771639894,7.2374777969097295 428.6366522032886,13.406997333653294 427.7202463909149,20.5785957553486 426.2266845624917,25.978716796109552 421.6476462025569,38.41452296195348 419.3005281269244,42.35074828450547 415.68144205831493,46.05941426051106 415.4349919550221,50.215552031907464 420.4397167937139,52.81838584207992 421.94154706013114,55.05909700489087 423.0209270464619,65.09301290865062 410.3219742213767,62.57288191214013 407.72662038663043,62.49478398238773 402.2778801675974,69.59360328451157 400.0927961551583,75.54581837835906 399.3461817581316,80.75776667607477 397.7416416954458,84.21252943472098 394.8094041203643,87.69532527872138 388.21544548965346,90.06670457068094 383.661447016528,92.98494135686292 378.78245161822156,94.66058206718401 370.05645797480736,91.77876025132457 365.7084311679281,89.45393656600902 358.1336012238123,88.34290605076524 355.1118780504418,88.34533285557961 351.5495958466805,91.21156280861351 349.8789626983097,95.72252110464274 349.7057445399777,99.30871523173096 347.55208337968065,106.88458437003067 344.9326257868047,110.62452098698975 339.30112723110705,109.55470498242141 332.7654288842387,109.91286195451676 330.13405586549646,111.83536922660846 328.05981200347225,115.0343259224037 325.55168459864467,122.15182004454732 320.10177176447064,129.04508692643117 321.55244031932455,133.76766859440977 324.26078600424574,135.47685435797212 324.9899205535233,143.03650939767192 324.6479790248587,147.19593029448583 328.3953539361348,148.2142934928578 340.5989312046078,155.99306164097163 348.6797325961151,161.4813612151503 355.2575761330423,162.6948007080848 361.8075955156413,167.01571079546238 367.9251436611764,173.2538932214427 369.34062763596273,186.40651565884286 369.6283838196006,195.30722156019874 374.2145914641194,201.52838334306477 381.16217532772305,204.29770251972684 387.35664787756133,205.12183267839907 392.7338428826313,210.19970271256364 393.04329702890516,216.76497129924417 389.8269901450526,226.4020077347542 387.40040638412677,234.89446524338769 387.6987402034622,243.01605924107344 389.946081654542,249.60296663591362 391.7965734792896,257.7425079994192 392.5002033188893,264.6973423864739 391.60547608600945,274.7558443299937 389.6002159332661,281.3005788696529 387.6040993448059,286.69865369038246 384.4169590360814,292.07951281377495 383.5966602814132,296.7211723393601 383.481235989469,307.15097070651836 381.1000897902005,311.38695196400886 378.3219314041371,317.54469448469 372.10334922742265,319.03513773743987 364.37926873099485,315.87327116645804 358.2008322401927,312.7295096057012 352.425580829005,309.20120920514717 346.61204338546844,309.1380040599962 332.24431445842475,310.938847827687 324.87849179094894,310.8680968393718 318.28317211647243,311.1959056539936 312.8424995018887,313.45198697321814 308.16270452094165,316.4964443170612 302.7150409106575,317.99872896185695 293.81449423116976,317.5111582134858 289.1963141921955,314.75955752589505 284.97412651432313,311.62384316324585 278.40803854491145,310.3849738619158 270.6418863512066,312.61428217535297 264.41652371435737,316.80639272745543 257.3525995666821,324.07320223310103 249.50019951062092,334.40511886521347 246.73605569372629,339.7877909369208 247.0148052825374,349.8345982081328 251.51066742458138,361.8819951671936 254.14723114684438,368.47775679263657 253.30479906406458,373.8926256842768 249.77373246006482,380.0324548211156 246.61623526851034,384.2445738470076 234.8872011671554,396.4670584751044 224.40296724415535,399.4324883005804 210.85761249648857,401.9589696826157 194.2908124496473,397.8835482434039 179.98509311640146,398.4602289115728 169.51750996071428,401.7976098034302 160.99997767437162,403.6212134991507 154.77906672953836,407.0162186207401 148.43177660722074,422.00603581429755 148.30774449277328,432.44296727207393 149.3420593071739,443.27374638818696 149.21577327314162,454.87046618219654 150.6897237559017,461.84928718902006 147.95653833273371,463.35714320176214 140.96976272949942,466.36171070205376 135.55736665042602,467.82851269863716 128.19968819379864,468.12403351314777 121.63518517033746,467.6504511581836 114.65296251558321,469.10629871435606 111.92177975779764,472.55705286645593 109.54811809415061,476.77293242488224 107.94123137881324,482.9378758509338 108.20219759447696,492.9929253954833 110.45915824247264,498.82084222184085 112.70244908503855,506.580771117033 114.15504070419766,514.7132118923278 113.28877670010257,522.8277589417032 111.26850756604246,529.3697693531303 103.0231391686188,541.2495859050487 96.72185793108672,551.220770665725 85.00524558640207,560.359019271416 79.55639323313615,564.1555957479221 65.93114178986401,570.570797601111 52.70210819159732,576.6115588134421 45.6784060589787,580.78369900291 40.954025054768834,586.1548055974965 38.13538476075845,596.1727390289814 37.25992681516337,605.4413130264976 37.18777205199807,611.2360400101696 34.369815277891085,621.2555085613994 32.72604327829965,628.9724233342279 26.74814178085217,642.8380326555279 16.457711455559778,660.8994198039429 17.152497505148485,668.2491116473685 15.4596356118846,679.8400605409197 12.676335301174474,686.3792680904144 7.190780802792038,691.3484640818958 2.8746369000343597,694.4114649018832 0.5122597348910232,698.641873285216 0.0648996445664364,703.2735681096076 0.0,708.6836871183007 1.8951280594480264,712.1834065581734 15.00283987054489,719.2653432378654 26.205618874168547,723.2347024936225 33.149976742958025,726.0082719362873 38.867734439170356,734.9601255615416 42.611508296463136,745.8213017151794 44.83319876116113,754.349324897016 47.878348635908665,759.0188478141438 54.413933876780085,763.3398869173818 64.8070426215664,769.2486308358287 68.61770180169805,773.9354791254634 72.01633960863322,780.5465168803711 73.1229430015189,786.7421527815505 72.67433784139104,792.1529002445432 71.05316095994468,798.3189131368852 68.15818601910354,814.5177967043782 69.23563075158857,821.4893579358239 71.49612027548413,826.9317873129164 72.58250793988341,833.5171681587867 74.83265009582125,839.7132139992061 76.62270774177772,851.7196598949745 83.07993795801191,863.0162529408507 88.71155940484157,876.9914478841725 92.12754040100812,882.4540016007776 98.5996827898786,892.192346826087 102.78990010259905,897.6518666439978 104.22054840601044,907.3320840882377 102.58601290062727,915.0442802987959 99.7793423404056,923.124162861164 102.37753396317919,933.5913735641586 109.1618455015028,948.7528177012234 112.5594302538892,954.9840427243539 114.81127774997795,961.5825191402048 119.30937561280523,973.6164541924826 127.36335546836061,977.9839127357311 133.49718508696677,982.3151990422314 136.5230871274319,989.3082710001493 137.1930144627752,997.8161853475219 137.4868236394236,1005.9435939059445 139.3335480859896,1012.9305102163185 141.6084760686829,1017.9792100105548 147.34894010503461,1022.3091942865859 150.79731644200143,1023.8966670004559 158.1441492156372,1024.0 168.99603068801915,1021.432826423259 180.638564013006,1016.1863044759726 184.56117514017524,1011.9872304489515 188.1328631494812,1003.9178907273013 189.3534572622374,998.5254209626765 191.69775801459295,994.6939069894155 196.79159086269675,990.1143360052816 204.14204107215514,988.6764288541275 212.6323288550753,988.7953391645622 223.8646076513117,987.7794619777233 251.3082339256139,988.126457574771 268.6626945680312,991.4447846810572 270.90896014572166,990.5420127616896 272.48724594970963,991.1646070677507 277.9397560126758,983.1161035019542 281.3031914263155,980.7832841518989 284.0038514924391,980.6685731014611 287.21789771175725,983.8391166020197 291.40502904501386,989.1427611088722 296.9211253694574,990.2575723497781 300.2987368766014,989.5760860789605 303.95267505748956,987.992156138318 308.3044079073717,987.3954015849603 314.86614546055944,985.7020035990937 321.5292915702909,984.4142308991588 325.391938143145,984.2938622096201 333.92168410997385,987.1214449922347 337.2166483666045,987.4017438963822 344.1734993158224,986.5757142739104 347.3567025009928,984.8065083276081 351.1044738443449,981.9855860867558 356.02947548475646,979.9159507551343 360.36832220315375,978.6319356988637 364.24024466391455,978.1142912678121 368.98081524244117,978.3642968116843 372.46197129935825,978.0584592920932 374.2079274442992,977.1746115375003 382.46637281825076,968.5047755194195 387.19161450369853,964.703566426383 390.1669051404711,961.5907903234773 392.7549807830327,957.3126377479618 393.3921043957134,951.8913761301841 395.0125418719258,948.6952504636965 397.7788245141903,940.9354578678632 402.55175428401844,931.6234514164735 404.7241157403164,924.35458196361 408.94263799810795,917.3718400415103 413.8295409059225,910.6599348047367 415.543584111744,907.4514626233396 418.14555486168473,903.8468106911952 421.31322355428796,901.027694133024 426.33645651025785,898.8608932892172 428.27366435381543,898.4646388797024 432.1370145821607,899.3008239778794 434.65852124640395,898.9006766564538 438.31590292395344,896.4485598547553 441.86750712473184,891.3956058437591 445.0288860849386,887.8916463106485 449.9550978750058,885.6468664926674 456.47420909413074,877.7577107154215 460.1389564651562,875.6909477087071 466.82739739730795,877.0077114745263 470.40266003199616,877.1865186450984 473.39674408231474,876.001895475438 478.86453231147385,868.8994249597886 483.38661215443733,866.264269605991 486.48036505920874,866.1461228732878 487.84012533603334,866.9128939083656 490.6680276932937,870.8616824137744 494.10328899471705,877.7950110409666 496.16871389559776,884.6462754407074 496.9790826729898,889.565307163894 498.87340575844985,897.6745206079845 501.1832061412611,911.1006242205988 504.5211677437315,919.0878984110152 509.01957244904884,927.0013898499458 514.1762710642902,933.4406728237055 520.2015385199062,937.4739121263657 526.7680646603918,938.5988915178173 532.931929430765,937.4040248773404 536.8952342741607,937.1870526168794 542.2324894363757,935.1835506360317 550.6737574899746,934.2860675555893 557.1983859078421,930.7170545234096 566.3589523444404,923.630822109083 571.628398707013,914.6714716412102 574.2054595679966,906.5242979428092 574.845586184664,898.3906867618865 577.783827590368,887.9206757565643 585.3413688539828,876.9953963274041 588.3794750550354,873.8586356081513 596.389190550962,866.7972215931829 599.7717202035503,862.1133236530604 605.0387816737352,852.7664789176639 613.7286001415752,840.2971823601639 620.0054562763563,831.6220286032174 617.2273859516623,789.2479500042912 614.0092815026068,783.7536101844328 613.7114717190447,781.2210436732887 614.3442169428965,777.1706907698418 621.1966520842988,763.9099534072686 620.0039085789721,758.9828336933324 614.093045596811,752.9985791274488 612.4324268658395,749.8150252423952 612.5691297054051,742.7694435898632 615.2127786143432,734.0682714577947 615.1470776312544,725.6513443378426 612.8884563118208,719.1899191695582 613.6452971859803,715.6982255804819 614.5996745040791,714.157951238756 618.5305864917665,711.1471648620708 630.0559217586264,708.710899928783 634.0294187719026,712.6571132578492 636.1743117407935,715.9409448990743 638.5880200965428,717.762001352058 642.8357581988208,720.0832936969518 648.9995383138222,721.2285877765346 653.0439695799367,721.0267612416396 655.6378575962262,719.7664657671789 657.5447090786299,717.7358249879774 661.0962832099021,715.8823697925312 664.2646632688532,714.9260077257024 670.320893964502,714.3311812871686 673.009106454454,713.0667789615327 678.0819717989195,709.6712809010797 680.1977692794717,707.4332932831948 683.5161490573219,701.3355938510392 687.0158503558871,692.6472118814652 693.9382659889126,677.2580932137917 699.3794127584702,668.9333312598126 702.3177506346802,662.8352971352191 705.9815448756065,650.4465845537429 707.8745230154497,644.9319802266709 712.5370312136065,635.7306787896775 716.4440985012856,629.539352420221 719.8739266416794,625.0820580906388 724.8686463590842,621.106501723482 726.2940752852393,619.5563211567824 729.4640674062936,618.3843086455425 735.1075055999385,618.6628894977767 739.5041537557449,620.0895548584676 746.1501981512578,619.1003158784927 750.5791397031747,617.4402437609529 751.8099788668344,614.5301825103907 752.4532041357286,610.370715088465 751.7634937235326,607.2789953005338 749.0254229970348,602.5567587013759 746.1696395218589,593.4767449042135 745.9443779617093,588.9410576554785 746.7436655189877,577.7314615614018 746.0145830467106,576.3318756108397 741.2917986314326,571.9402564672785 735.6371300112248,562.49962430349 727.8619897059567,552.6606872943435 724.5626630126762,548.1348268724912 722.5029970126726,543.3056579184517 721.902168492118,540.3163694099384 721.9516837334105,534.2281763950032 724.00616645523,523.4924420277316 724.2531931644847,517.3996982845417 723.932924745191,513.5187360657674 719.741280429605,505.2379813849302 719.9014533233235,502.14018782932214 720.9470478064238,499.42002322209635 724.8459796936176,492.35821424950984 726.9351413684323,486.8453207867444 727.7405063417826,478.2390942978444 727.4269860085499,474.27703075221405 727.6943809856158,470.9845140928704 729.7837798075633,467.0177657094805 737.3614939581078,462.07131536908526 741.7854294127312,459.6288085286218 748.1226153578942,453.74423259426624 753.3847546871538,449.72561241438495 755.0053781531743,447.3981907265536 755.3780995865359,444.9782695058676 752.6485794190426,440.1582465452876 751.2592784940264,434.6461640926709 751.5121359995051,429.6238305167831 755.3046438979021,418.8655684407389 754.8823035027754,413.56377959916176 753.4890221786139,406.81243701753897 751.4133915374174,400.52375211504955 750.9708885977749,393.28158972957976 752.3806288219854,390.0956780980273 752.0052413175187,385.75056463853673 753.0782825895451,382.0851270477341 756.3778387455219,375.2552198650419 759.574594108326,369.9536435064317 763.0605097832682,365.2253187425837 766.8440463470082,361.5573542968999 775.1274720705395,355.1824086086634 777.6107855215009,350.9138432260787 781.1654374672711,348.4817934280686 784.9094239623305,346.8192142740701 790.2869222122386,343.1436336624206 792.030815723366,339.2091468631289 797.3297090179377,331.7730678011427 802.6537953463702,325.1202920764198 813.8097457115513,319.90639946103295 818.7491159552246,314.41212655802076 824.8037214825124,304.6299807718175 827.7740713510658,295.694698992986 826.4758514330349,287.9802736155907 824.3874064002141,278.3520636125778 823.0789413159131,269.09321069352336 822.7932327502043,250.5421704170767 823.8662898067107,245.89287081283408 826.3639349383415,231.5353713922318 827.4057226873667,224.17516230943204 827.3488943279663,220.31484351152744 826.1159934836176,216.07604683860814 823.3051872890409,209.93542713762872 821.2550558010273,202.62835241688174 819.5807745545441,195.31235059694177 818.7242766095638,189.9179000936998 818.6481739764968,184.50494353248314 819.747053630354,180.23273347130964 822.7363261494407,174.7790551561235 825.7784824866264,170.4606270618849 831.1247808182018,165.3453155818985 836.4872285142644,160.61726642811504 842.3931484374954,159.27738805987735 846.1136613939028,155.02324214058137 846.270888721459,150.85589114005438 840.2920634597415,147.72887450408348 826.4695134658181,143.3145461061472 809.6205650045902,133.35536261231834 805.8824864685055,121.61435765559042 807.2556215731547,113.43693666399895 808.4870427565342,109.32687548617628" /><circle cx="518.155275337742" cy="515.7832259940612" fill="rgb(100%,100%,100%)" r="16" stroke="grey" stroke-width="8" /></svg>