<?xml version="1.0" encoding="utf-8" ?>
<svg baseProfile="full" height="1024" version="1.1" width="1024" xmlns="http://www.w3.org/2000/svg" xmlns:ev="http://www.w3.org/2001/xml-events" xmlns:xlink="http://www.w3.org/1999/xlink"><defs /><polygon fill="black" points="9.565921829644237,232.30472464147704 8.464291856247254,235.65919133609975 8.216243625915036,238.4214291133684 6.581660863720161,246.73087472101156 5.903587484309809,253.4185869868288 5.358747519451838,264.00419647707724 4.053740118482323,276.31407003410243 4.120432368264549,281.6481266274285 3.734010417799422,287.7728190475109 4.200296453987504,290.158639719004 5.398935680184577,291.91866345953974 5.499984084149034,311.1167248185011 3.4154729611074126,314.95833098078754 0.8244674557461764,317.3199674523814 1.371473494869946,326.38042121870757 0.0,344.25652028158163 0.571866630641294,347.78260454462463 2.2640660531968972,350.59741746497144 4.229303833913788,352.14833453204216 12.531446914556742,356.93990985287786 14.976692075314858,362.9497822811906 15.48956983401974,365.84180210391975 19.508110364421228,440.598134945638 22.348797883711885,449.85670710307977 22.98018432016648,464.8107383705449 19.403362376484107,473.24041364834557 18.5806361340983,476.99057692243963 16.870450062306674,542.4086544234991 20.262456346489977,548.3735577873838 30.264646392097315,555.6021084169571 33.836190737260125,559.9599722663111 40.621272828854806,568.9335280302423 45.65610076030249,576.5533684897067 60.356260375454646,586.5607339751887 87.29502957401405,605.5141035066094 88.95869955410258,610.9850588645288 89.2153396817796,613.8348432929702 88.60347084771391,621.670024802119 87.67668500642617,627.2176017424179 87.6662259735751,630.9309132677256 88.47464134875425,633.3908576766084 90.19826703248472,643.3634962738834 89.62840069336302,647.5730574312618 86.26798952207037,656.2208686329022 83.97241737315204,660.5622771919063 80.51721219014772,669.0249051990235 78.29687505321998,671.8402553966762 75.85257335489625,673.988480073849 72.7466696817207,675.8713998661103 65.95366306718384,679.1050792310134 59.77977317793535,680.5956685498119 57.024840763741736,682.4745021447828 54.64854847014026,688.1205029824557 55.149385083410564,692.6257050474372 56.71928800903129,698.936913368593 57.628546140203305,714.70504802721 56.096230570275964,724.2660590840544 56.662747883903435,728.0644646632259 56.554764178736896,732.448285250936 58.137730567842006,740.8925164215449 56.93246680989459,746.4477779373914 56.84512266222853,753.7038480682126 57.491598616304394,758.257300509918 57.583696919485085,763.0027913972435 56.928470255341225,764.3040374721011 53.04229706761784,764.4754052103817 51.70227107177582,765.1493479285195 47.96852004361141,769.0254302247785 44.76369772180742,771.4337865980738 50.54147633815654,777.7581368206947 54.477147236539594,780.2577542194726 61.71552828104604,787.5097094076752 65.46758923849335,792.9068089129378 72.63922691116983,797.5607141664364 77.4821359675374,801.1199173986522 79.73004681218522,804.4430981888338 82.31804985557582,804.8252701695451 85.72573683760277,800.3223720753941 89.45582059311766,793.3072153065079 91.40233398442153,790.6293889794151 94.47143244655643,789.8880050008946 101.47820637258445,790.0120198243673 105.70286154018754,792.3229339900441 110.9344820942846,798.3955853529701 114.28527860670523,800.8621711885905 116.51151488339997,801.1099526420821 123.609786889134,798.2233357338795 136.36286771899304,794.0104737755778 146.79681736644136,791.3579251110898 156.7283449130813,787.045713598405 166.06767835331388,780.4153574490811 172.12045224364547,773.451533610074 175.84406133055714,770.6992195835904 182.71709220100382,767.1281620911849 193.99294275368106,761.8579068969328 199.07434539260862,759.1774332457928 203.13133094113988,755.9371637339466 209.32157595012688,749.5335462051427 216.95847337268137,740.1537790500964 218.37544680981765,737.2346960052267 220.0819648628937,730.1602915967452 219.51316615633414,728.1001286927227 217.03284407367505,725.3462456615446 218.007783786218,721.6996316516081 222.20061651672296,718.7878822240783 223.343906993545,717.1495921296276 224.31653642979427,713.1972538819854 222.39210315874197,708.77216554739 223.99087781186344,705.6581519528154 228.05348014720693,703.9140922444054 231.5229219580788,703.3980822044383 237.37608723598393,703.4087782094571 237.89505617959182,701.2394450291074 233.38143963061404,687.4462557081838 232.87995461090284,683.2786208484326 234.8437463185079,682.3549439559133 242.89808239666488,683.3778238838395 248.49609512162652,684.6372257405251 250.59568850366819,685.6589778684302 252.8953356060711,687.8662635919884 256.08430593211096,693.1997456612959 260.70697831592884,695.3725742029296 268.99683143901854,695.457730126653 272.58782968717605,698.1327605987797 273.84111328550034,699.7259902894348 276.6631322430988,700.045925381959 278.5519817754749,698.978110283108 283.3854257414963,693.8373599222602 285.65517401522203,693.5274739433547 292.08365849433824,693.6755672683921 301.9522783071502,693.3296085154276 308.57258450312855,693.9565857869876 318.2377778933489,698.8575013953658 321.26661015718895,700.0331671415092 325.73786168300285,700.7590277323455 327.40201591749616,702.267084082659 330.4244218297533,703.7417444118659 336.101559757347,703.8244072892368 339.2398340961705,700.5838235644458 344.2362222310415,696.3165456807495 345.2561377730675,693.9229366988112 351.2420564585104,686.5062081715271 356.3596607881155,680.5157060921915 360.77377682657027,674.9525491932629 367.7011158161858,671.3847306051966 376.06591036347464,669.3486812343824 377.451266132928,667.4270892671088 378.9640475151015,666.7882298678821 382.72524829868746,666.6193631792119 385.85747714635266,667.0631851453725 392.00034961600016,670.5873914012516 391.7674074279591,671.7235139832562 401.65763773494785,675.5619420442151 405.39275219724175,676.5427098300017 414.0108149441463,680.5578969261453 418.9880875772902,680.5587422433725 422.6848870411639,677.752988447989 423.562297825807,678.0224809066801 427.13050749729535,673.9970468943769 431.03904851132427,670.9457787146052 435.27203383593945,666.6224461769057 432.97827217933815,665.8313562644692 436.6519385591234,660.4933660046971 439.4356145018778,653.9289870502539 441.25080782822306,651.243585678826 443.21717406366173,644.3208821945957 446.5861852449359,639.2507821428986 449.5708469914689,630.8757859832898 449.24378983617225,626.2260137432834 449.6639445434216,624.555639944424 449.5537331209943,617.6848434020859 448.7437260671355,614.7129088071327 450.47217173305825,609.353378923267 452.14993614179406,607.1763916165157 454.12363989570275,606.3712921679817 459.149974564015,605.5826432730421 464.8966509655408,601.712118837055 466.65262617969944,599.9377105241356 469.8870423774603,598.9862196384707 474.3362052025108,600.3830577639743 478.19295137440605,602.8959008803025 482.2447446138624,607.6409123963914 485.72039466772054,610.0855419105304 494.79310952120085,619.7483599309965 504.4779466462751,628.2693630330187 511.5268730116247,631.8088787733345 528.4056562575664,636.1162221564898 531.4919900178685,637.8191972874486 534.7962231030799,641.8819786686797 536.9790027623113,645.9133819322722 538.6198477340117,650.8826135934373 539.427937148369,652.07798275397 542.1095615416392,652.6214894562522 546.9989273084714,649.3215224221825 549.0407626425224,650.5000562136565 549.5183854214401,652.3595447666812 551.0138153812164,666.1771004294644 551.8678285579987,672.3416818900963 553.5822901592285,672.0358322691156 558.6333223268939,669.9330471598465 562.2012128503656,667.6078220285918 564.942479593963,663.613949580964 570.4072155112434,662.3492335727003 574.8223302675054,660.4474339024791 577.6239895533904,658.5278808711084 578.3948566547487,656.2574368535211 581.2384483903146,655.1564256303694 585.1701769669862,655.3679706259798 590.1886527531387,656.890361260919 593.2575736488645,655.7860280956136 594.5588111478457,652.511155689844 598.500019850248,651.1952154085811 601.9973129906366,652.0621200066555 607.1814826887039,655.801679512218 610.7245572024942,655.5345327836154 624.9553130843818,651.0264256432607 628.1786335337799,648.4321003428576 630.3740327792905,641.558456933811 630.0013363355954,640.5584017390684 626.3447297093961,638.6640750513012 624.9561916715758,636.4087902696467 625.0108048173074,633.0066013612392 626.7904320131481,629.4605017908177 627.1536331364491,627.5012731659338 626.371566196158,617.8978920835945 624.7415307950336,612.405764709921 622.3663044531064,608.7585791771248 617.8063065573766,606.1523248966065 614.3899348348185,602.2305196708213 612.2324722203107,595.7171219738666 612.7357242904111,588.2907580406415 609.2282031621082,583.7835837665057 606.6947640335125,579.7595727682623 605.8457292111771,576.3799903040249 605.8394257384615,572.996939086338 606.4679707268662,569.3956446237813 609.8773232591044,564.0921130107133 615.1619773597577,558.368379933369 618.7086671768869,553.2953470348841 619.8217328444442,543.2913898900921 620.3292253810597,541.3068605373102 623.234329798533,534.5478132332803 628.2786454635088,526.507265096596 631.4750422734131,518.564128058097 635.9218365636974,512.595559508643 642.6364935201217,504.2400293460995 646.0035547547425,503.3330567043167 654.1493600979115,502.4708543272462 662.6828970960213,502.23581984670585 669.2145887575747,501.31459497090617 677.2410866942068,499.2864871543635 688.7536258754495,497.52993479572064 697.6872889012727,497.26410409586254 703.6704112148535,496.0520794167872 711.0372021145535,493.9522120084397 718.7511632179294,491.00277021582394 726.2987384401764,485.9034547716491 732.2609177061239,481.22098270329764 738.546426903387,477.658514388339 744.026889731567,475.24768681575483 755.4615127564971,471.8242902852526 760.47653300426,469.90174960586927 766.8332881377494,465.59099222924385 770.7574120977179,464.17465234990226 771.4317496673034,459.89047343205266 774.90411379715,455.0758051913471 781.9649663594037,450.58437026836816 786.54653726905,448.579454676594 793.3413294033624,446.8384665763749 801.5026791299762,445.1645839184166 805.9451708626497,445.4827722695992 814.3617120843705,439.0665916050211 826.416647822274,432.0708716321077 837.6312537917016,428.01196545292015 847.5770196077559,424.9440397710352 864.9814205442705,418.6605673582171 879.2336060620445,408.03055444097686 885.915273933309,395.93748272833534 902.818996373465,379.01013554135704 914.2326426959444,361.8886907222938 917.1296668734531,342.5433294749767 919.034532177914,326.74843421325 925.0207500753348,318.4502002466471 940.9793648812887,300.98816375976804 959.9854182636672,284.90454117122704 983.2651228619962,270.6121280926927 993.7056095197357,260.77275581522747 1002.8059591101772,236.88281894606985 1016.0621682129198,213.2311967517977 1024.0,197.55403839795736 1015.3358289701397,195.29883234246472 1011.9261259813617,193.7827751344978 1008.7743170585762,189.92069510374756 1008.7797042692437,177.1117814077478 1006.5430678720193,169.03979890498545 1003.2036363494722,159.85577308662187 994.5672622214362,137.8649882360496 991.7782141229916,124.78609096879154 990.1082887949126,117.90960318467535 989.5468329745445,99.30304400325531 988.2933197579505,84.6865590298363 988.6369810174141,76.8895899216908 986.7093807657674,63.78322363379266 986.47978259428,52.254516424567214 985.5144531215934,50.85929980616652 967.5481873140866,46.41583137625821 950.9895684832703,42.798710415338405 947.2738805213709,40.541989464421476 941.6377823955697,38.06021698833251 931.5480443884583,34.47984322050081 927.3909189083478,31.50187810774696 922.3515412312606,29.71626317183143 910.4761182581111,32.3739295591007 822.3932019174434,48.54751660114459 814.9869259289746,46.753724867457436 810.2425898188867,44.07123425185637 807.6692245974602,40.64074064460408 806.0400657832163,40.657407738406846 801.2419996504725,36.53966187393564 798.3248685271773,39.42106267701763 790.6119160522786,44.35480882726188 786.4033164677761,42.527687324686326 783.7178956064921,41.86388963460445 781.3893046612341,42.314720051203835 778.2381737759298,44.02936268203871 775.4433573509018,44.90596288258985 764.0614064702872,44.37169645402162 761.8619761225382,44.685699961208 751.4644352672909,53.07142147378579 748.1840972799665,54.37196109709123 732.3020425325533,56.62830388294583 726.9686793254134,59.777004032712625 720.6129936039266,60.99303997401853 713.3930184473943,61.38073692073999 710.5875366791986,62.26304619956795 707.5842428003466,66.35383622003542 705.2011403028115,70.86085074294715 701.8316437956404,82.90859645071328 695.3155406684568,99.1236262101196 683.6413234716033,113.96288714732611 675.4066422540727,120.79137533067887 669.3117970994409,123.26117297883525 668.4651442992722,124.2522275817962 667.9080675511785,128.30836387286104 664.996819786055,130.4426822590848 652.6652582003115,134.82992590003857 638.1937769929675,143.7203081246954 615.731993423829,161.31731351892427 603.0607214022485,176.7327777492976 591.9860228904852,165.74173577114527 587.6800808494072,165.1208113288708 582.2975874272523,165.90236134408065 575.4537954912743,167.82576579924796 538.8228115824226,168.93394566851725 538.2984550636435,157.6350309451085 504.2130375293562,164.17785825311785 500.54285838630136,155.15144124900587 483.34507803650115,158.71780654356667 476.0514169606095,162.29492434288272 469.14853801679226,167.39854839302927 465.093270717066,165.4950985999492 460.14734494989494,161.3601604359692 454.9211087834699,153.89388991139663 450.8095889934993,146.0422019710304 449.19727642226843,137.34156039605773 457.3197773911096,126.76566971124987 465.5938311036253,127.64938723939224 467.05123025411336,123.8945852947661 468.3119269034602,113.16177804335962 470.2624053755811,110.28934427128308 478.27135241532864,45.511899289809094 474.19723724806653,41.23951147212517 466.814020590946,32.38017809652183 461.06946213854894,31.08756489742734 453.30165940628467,34.81159346733739 442.9438386932364,40.23612031901348 436.98348380382276,43.59982704792094 429.40143207067655,46.66391231553632 427.5638766610055,44.90175889553859 424.09234112234543,39.540278659746946 420.44880355026174,32.72040428120454 417.7299169119251,32.468482448547206 409.3350612105777,29.76646225717684 401.5474373880519,28.09635124907811 394.2330780994372,27.37355131292327 387.59846045813595,26.09002232716989 380.86022226178835,25.472222489404544 375.459896958344,24.556199738701366 371.8114580699195,22.871529675480247 355.0194790159383,17.97452676634589 348.903315685999,16.347303654715574 344.01961650270664,14.037991058088778 339.53236281541894,12.396494317484098 332.2901173463894,11.638621460666286 319.4914643133296,8.017268968534154 309.47918641332643,5.980392584847436 289.5151957619974,0.9570752355086825 283.98166307881024,0.0 280.9431284365737,0.24502575812596206 279.4176653791461,2.834200392310322 262.6466810848896,23.569379517483753 257.93903154698245,29.066515859460765 254.05732762312473,31.62085869637656 249.41276074839632,31.396238344089966 222.76315735012406,12.178090561131171 218.37896311008546,13.072753015946773 205.8100500738521,26.90302847844862 206.0794777555239,28.845496758609897 209.77957508555716,31.58973726866111 227.0599343637811,43.37707759261082 228.83870943917995,49.06819438458842 229.64312045397085,55.47544573479627 229.71651566455353,61.61229758929528 220.79963203614085,73.44082920421727 218.42071764213014,78.48529562733393 219.42013320290224,80.70983344423018 223.87033995011677,84.35043687464224 224.7505656757688,86.84719809145213 222.48760894445905,91.34700780991159 217.04667968058467,97.40484649817677 213.37623823474,108.61218192065292 213.6209254016873,118.79608508482545 213.4473542163431,124.09673710656807 212.64404416322628,129.8202231137151 204.89288482615112,147.00217054072152 201.89110421856364,153.3213742742056 198.51225431098757,157.1294157655151 173.42163267746233,182.42789787991785 123.3117223798963,230.3119502360057 121.48158391123245,230.75627863300872 117.16283215627276,229.6984112431668 111.45054642922867,223.36433888434726 103.26837991124869,216.2220094211167 92.56333654209308,213.57503335402816 81.39621449538164,212.67204999716978 65.95741480376876,213.98009037149552 61.44219011167397,215.56968439886748 56.097606933596815,220.09398809548065 51.66799518487689,226.7580533507687 46.56937036501376,233.28635893972853 44.80063507157175,236.5851889768917 38.454098087004795,236.84655654480196 34.0924780063682,236.50814491605695 28.020520657356936,235.554995065938 20.57809568519233,233.95006767342522 9.565921829644237,232.30472464147704" /><circle cx="169.49228060532386" cy="576.8628864181076" fill="rgb(100%,100%,100%)" r="16" stroke="grey" stroke-width="8" /></svg>