<?xml version="1.0" encoding="utf-8" ?>
<svg baseProfile="full" height="1024" version="1.1" width="1024" xmlns="http://www.w3.org/2000/svg" xmlns:ev="http://www.w3.org/2001/xml-events" xmlns:xlink="http://www.w3.org/1999/xlink"><defs /><polygon fill="black" points="377.7668935667668,1024.0 379.65570517866973,1020.6353818950681 381.62366143081283,1018.3482139913872 384.32012222257435,1016.2483982340428 386.90608608539395,1015.0735364340513 395.0749520803039,1014.7195032032864 400.12919056616397,1015.6123946774792 409.4837970319232,1018.352520652494 414.35887188980405,1018.3828285785074 418.58792697268115,1016.2022813441082 422.4047079878791,1014.6686749832294 424.13668271387513,1014.6000094482656 428.8093483789545,1016.4574591899217 433.01832527977575,1018.9293692795828 437.09204146323776,1019.727954597372 440.07508393883086,1019.7021539232746 446.0039409901551,1018.7363946519002 449.7692543074414,1017.7259918372331 457.7557198584189,1013.4877196559296 462.5421034615914,1012.3238090410565 467.45794965096826,1011.797908970462 476.20823595250835,1011.3186198209353 480.32253704543587,1011.776910110092 483.10538907530974,1011.5656213033913 490.5959100467626,1009.9332244103113 501.2864033503798,1010.0202310894326 505.71319440219935,1008.8039855364764 512.9708984670193,1008.0434537608915 518.5993475408023,1006.9115702087588 519.8294495744825,1007.0877810223359 533.7565960285261,1012.9592270344596 536.4890085759841,1013.8144989069524 540.8511616090595,1015.7911932366205 544.1137812187732,1016.4427763055717 548.0284045255678,1016.5697691568561 557.3904540399959,1014.464966275912 561.0957513217076,1013.297284560661 566.2432922350387,1010.9002262796574 571.8242816191022,1006.5727689935737 574.0387873896218,1004.5612000792044 575.7422568880116,1001.759084678491 580.1214177502942,996.8964680365164 584.189485208023,992.8023504575909 587.4070441877329,988.7496107217947 592.815856398797,983.4355816513871 595.2717853069164,979.5974837162523 599.8880641795279,977.2806823783754 610.4834042190819,969.424354146975 613.1366716599337,966.973280484238 620.7575709369924,961.3319932364644 625.1345875189064,956.4077241182594 628.6005909225457,951.399635906025 632.5593696483998,943.3429718494782 634.2121312219524,940.7472745372813 636.0436694027214,939.3008013395413 639.6074823967734,937.9891899445676 643.3801308525907,937.3240174360241 647.4727041158208,937.3884219033134 653.9168542380049,936.7456971304398 662.5040360405056,933.7323561452993 673.191411183571,930.7294075037304 680.186449480914,931.029510173113 683.5080148655518,930.2196767543297 686.6814128977844,928.2704617040156 689.9338538457275,925.4283941457253 691.8757167441192,924.4644197144502 698.009186326836,923.9326763080503 701.931472746082,922.189023288208 709.0966918950406,917.387407627047 712.5592550191438,913.9901348096059 716.3314673772056,911.6715714490881 720.1537318925638,910.5837414762148 722.9362283834713,909.1168418996397 726.5881359972943,906.4389414082005 729.1392575665809,905.4028336373354 735.2927036231065,904.1713380942273 737.6138128746638,903.401245226893 746.5776629880576,902.3146351627281 749.0485104944117,902.211907683721 754.2007180693016,900.0150947421505 758.7122147117065,898.9996709352847 763.3554214604237,898.3418206957053 767.8667590330256,896.515019594072 775.36928336366,895.0257417201261 780.4808984373489,892.633844028782 784.6430796113041,890.0673463336623 786.2132246717596,888.1898760617657 787.4125189716613,885.470331860104 787.5120572778792,879.1684142299137 785.6294382756515,873.66815222778 785.2996214872921,870.805245367429 785.9296000988246,869.6151634219681 788.3997654341804,868.4247295808404 794.4110786930767,868.4642959683947 805.9449491429082,870.8102492764268 809.8969659548565,872.0412668611341 815.0684772204944,874.3181112026703 817.8501466276223,874.2551729678506 824.6002658920487,870.8249537007151 830.2205632839192,868.2680798302457 838.2005221560748,864.0974882910016 845.3502971902228,860.8930260885417 850.9112648042881,859.5762012980312 855.4218072869332,859.6145394789561 864.5952372615294,861.7228876038437 870.9270995594588,862.5300160465176 873.0678619302894,862.1483780032893 877.0770638253927,859.7558673189354 879.3453023463189,857.0758018203096 887.5447412689372,839.4526425109436 890.6033788584349,837.6027069015172 898.4736170451921,836.8684643854211 902.6029812987974,835.6652540610255 904.9706177437216,833.7748052230522 915.3514177999947,822.5222435506867 923.7660975487328,816.73779652821 934.7879740975578,808.3971642160957 948.3862691592904,798.453282455424 960.7007246680106,786.8903367930582 966.5402626455084,778.2057784842311 967.5246659944289,765.9484703405094 974.3344035720347,758.8847992526889 983.4012226308349,751.181444975134 987.9383636395679,749.9137625917413 997.6536871033404,742.5285029232077 997.6684394144514,731.5664920984134 996.3745195506816,728.0095437687687 981.5046170881427,729.2289242578724 969.8504823293354,738.2056072083103 953.0225523260079,750.386934143834 940.4006711861318,753.5592762989493 935.83557022007,767.090368139413 919.9728854423437,780.2547431164488 905.0359533565533,804.0858828875192 893.377743630951,804.0432373396922 891.1359144439259,789.5103279721989 892.7863773962947,777.2628178495031 892.493781045209,761.1201288810071 893.1797066789527,743.6965414204856 891.2687571228114,727.2297447829244 881.8907120353928,723.9751649612397 871.8528096618594,719.4305589345572 864.3972652744055,719.0959411543352 853.0666192600048,706.4816982008592 843.0368792977031,694.2054759047817 836.5767880448557,684.8379565764985 831.0849146392505,669.6691001748848 822.3471740102297,657.0756669894542 816.2000721414428,650.6209892785205 804.5475331341446,635.4462973740517 791.5586166095474,627.3730736582245 785.4040397876659,617.7008131820019 777.9223537059919,620.2847885306242 761.0121448780803,621.9044370724084 740.864855913293,621.597173242036 725.6135701370423,608.69420855618 726.9122361910073,607.7311399486075 735.0523566163788,599.330342251965 746.1393767306978,586.7382556230403 757.2145628739728,576.0832678418349 764.0651729810135,567.3544251901527 773.5193579087544,548.9557249038235 786.236458084425,530.5460582891345 790.1755750499834,506.3339033908179 790.5329080984926,495.6828875567867 795.0927907693695,486.96733128315987 800.9585607253996,477.279578748478 800.3465213739415,462.7601683750206 798.0782790967179,455.3390059004329 806.2189164400963,444.36186322100184 809.8176373303895,433.70270747295706 810.4932073842846,423.3739772476721 815.0776304007061,408.20215277796626 814.4253396187372,399.1652596808095 815.4391073572729,388.4997729830876 824.8902019911983,373.66808896402574 833.336231038434,366.56234897943773 842.4477901810268,355.27035215485364 836.9562423556737,342.3601747545847 833.7297492003103,331.3725625512609 831.8025195079227,325.8908408342179 825.9825515407301,311.67210680426376 819.8374608079828,303.2767022106402 823.7419294303215,293.91547390434323 825.426386815389,267.4439071596795 816.9989610656593,256.77906458479845 814.4231132608543,247.42303632384517 813.1434314078615,234.49781634794715 811.2176736660479,228.36376559647113 797.600814529057,220.9443919498641 786.5370992348602,216.7443599846788 771.6174960100171,208.6796078748448 762.8564656578569,197.7093718609974 754.1068102507984,185.44161066169318 748.278411631397,171.24267411986523 737.8971742092415,163.5046561705932 724.8958542484456,161.88767743866163 714.515628430914,156.72413075476175 702.1515036186713,155.76048919030677 693.4071707650656,146.39507379746692 688.5705227607505,134.44638051226286 691.4754350101953,116.94168271665228 689.1859647885308,111.31029009382087 688.6202789570128,107.52866807446958 689.8868258902271,104.02374899137124 694.6693292634889,98.6821302226009 695.0186859377329,95.94441432134147 694.1721619822941,93.56261182760102 691.6442553448545,90.21127813825785 689.6530984295712,88.99375380702736 685.5303114771182,87.63315482502844 681.0992671266741,85.6695580577375 679.0879739327047,86.76300992613562 677.3035788924817,89.35643098871321 674.8832707532458,90.64260138925988 673.5478259926971,92.52214936587495 671.0073638895565,94.89264162710708 664.4811766938195,99.272253539183 663.2762481131573,99.53781918997629 660.8847606723637,101.79416407300971 653.8727951927269,102.51564084178585 651.2123342178598,104.8956365606216 649.3795494357336,105.68042256444869 646.4710113054829,105.60826293227535 643.4642190057734,104.32903801142913 641.2433834588811,102.62071697766612 639.929266446932,102.62973336644586 635.9659272345629,101.34976034202589 629.6237064705487,98.52589645483067 625.6090826717161,99.04411734957955 624.5344710800483,98.61378668986424 623.0332641007357,94.33129211346818 623.5727902741507,93.25852676901354 628.3941501405756,91.76071453231611 629.3603480139402,90.90371180631757 628.7136328764932,89.073805072862 626.0873215048503,86.71152525524053 623.5076103501879,85.75900128481715 620.7815737001579,82.81491725703131 620.3779825166348,75.86720210887097 619.1244350803685,74.26213352810532 610.7714742978305,73.05986334840145 609.3494990594327,70.03496496584637 609.4463245822667,61.68912531200431 607.7379245871259,44.55645125395563 605.7812394412092,38.80448565253516 603.452772714055,36.595612655230525 599.223261498043,34.50898491560429 594.5949078194756,34.39219123699411 593.758932524815,33.54359980619438 592.2896127505286,29.559411475402158 592.0762960458687,22.52162950598563 591.5517786191406,19.886099640390285 588.0890049157889,17.5745645579442 583.152074463901,16.731867979769504 577.6785133612249,15.357542137521591 575.0401723720432,15.212635294620782 571.1201032736373,14.218526297988205 566.0530868314451,13.803354688804802 560.7072605525279,14.51301431736431 557.6593135896462,15.213822931541586 552.1295706194767,11.490889024456465 548.2254108455764,12.456730453937894 546.3248809275831,12.260142788064968 543.9232113951957,14.157177435331732 540.6982920121179,14.48989657997231 533.1944117268794,20.39436807614186 528.1742358994844,22.46111069671383 528.2310639814359,25.249747780530356 522.6653793897012,25.629818667951554 520.6649423561045,25.08636447695733 518.7428379867127,25.564057563516826 514.4918987275186,25.037226103066814 508.40822854681267,26.335802135551603 505.6773386048315,27.936097915058895 503.5550457683581,29.94564507594953 501.51446562229626,29.615987161312887 498.47601282788827,30.510137859075712 495.49979863545695,30.138205758447498 494.639679372543,32.9255059784723 492.87682733174125,33.38202569565237 491.5751501232745,38.313596416651535 485.6050312582929,42.277591564308864 474.68804772837154,45.62096235258491 472.21721548957936,46.588795619788016 467.4628374625446,43.97563866995483 462.3346460947875,38.205578807827465 461.69215525360033,34.99765718959043 460.41453405439523,31.145048065955848 458.1222019566359,26.93299708274833 456.50546674519893,23.048800000405436 452.3369396212334,4.597653027508841 452.2124780320767,1.491975221373309 451.09958964747216,0.0 445.1563798877429,0.5614510092933642 443.6497843995596,2.2840544550898585 443.53676041900405,4.428808895872862 444.64443310669236,8.862915433610851 444.2542861854597,10.015685958678205 441.0284427796148,10.071937985374234 436.0788647498922,11.023562654925968 431.9613739803375,9.52459541526855 426.62425357709657,10.147091380650863 421.494002344956,12.12889885083348 419.17109884038945,13.789186547506347 415.4857188833819,14.845447752141581 412.90782768949924,14.737650572560938 408.50338428900113,12.165800088925266 405.2882926563915,11.955232894111077 401.53385743438406,12.815300016656124 397.9867135313201,14.105262248926238 395.54107479230953,17.215618608789896 382.1332031539122,16.8511472838984 365.3961682777704,9.164598004811523 352.6707946234372,6.236117917660522 339.032881434011,6.245258762270964 334.4875864183698,21.20698012766252 325.60576969039744,30.46960170681416 317.34117340157064,38.74322055455764 314.10407540761366,39.46046454003954 307.50770320155584,48.98421112603171 299.81063268571046,53.367095927616674 294.7818007425027,61.24097202657481 294.5790745417798,81.27465028846336 295.4504464256217,91.27077366823119 303.12397485465465,100.78304838769327 310.87943011515574,113.84145623418988 310.0918055393974,122.26013000510477 316.3508844816513,140.84513844748255 321.4731103899561,152.0289442888219 331.45021384785355,162.77500397302038 335.6349881250643,175.59403068871006 333.54251459926434,184.04204345757478 330.47281598125255,192.19333971547974 326.44660795332794,201.00701354643695 324.9918943680618,208.7945280709166 327.48965405913344,218.7492099352604 327.2002546758348,235.23190533933382 319.8427856490419,240.25450137055986 310.60909928104036,249.19014534142514 304.9209188090596,255.78239249722174 302.7648079948756,261.00331075086433 300.6882908299616,269.7734557247825 300.8757866358309,278.48741135681155 292.8312886079846,281.91429396443914 285.8721476798355,289.5067752376041 276.3963354694156,301.6749983090567 268.1208313888501,308.9759348613186 251.64029907046543,311.61150070797055 242.93826400205023,314.06110558061573 234.20044988882017,314.5779179359854 222.52583700634167,313.8588409973271 207.8515290807232,309.00609936747503 198.4417482062141,307.90227395968475 185.3866457140509,302.67386578990204 176.22013418203795,297.3769257701274 168.62600955997576,290.09890281523974 160.0049842671212,280.2397771550817 145.89209184109853,269.8614467305325 134.15454180206393,265.237871321198 121.90656246131987,266.76066129917695 106.46873495336418,268.34138256915526 94.17610020747577,268.24386496213435 84.42760211938803,265.2003458561991 75.2582608802297,259.5614378542041 68.66360849347275,253.22502190423438 62.07463004963411,247.8615660612943 59.92019438512633,248.21085437559918 58.027605065942836,247.75273037045372 54.49861931529787,245.51917877456015 50.50144238250879,245.18643191982278 43.398231094057344,249.1874446461435 40.45249074480678,250.43468792478075 37.18069672052858,251.14677979853252 34.60944663127921,250.79832389669923 31.556817164475856,251.4097991681109 30.421940945064833,253.55296393009087 26.85968052355687,256.648093790954 23.385560824721743,262.67861643026276 23.764748789767292,264.9815013519934 21.56792183929681,265.86111855852107 17.0565894351312,264.6466559809253 14.742382325007972,264.96374944515435 11.348096993485992,266.2494855297565 10.534964501294674,267.4009571259553 9.573270675767843,273.26852479276874 8.43015084617911,274.8284423423746 1.794995434149269,278.43121679147885 0.789002249110658,280.41137207069187 1.5332766460367844,283.67779574816575 3.398808043759685,285.72084962245447 3.750307021486483,287.5236792505425 2.4097041357001427,290.9953251466535 1.845129695393805,294.80827389384433 0.0,297.32709061438266 0.9835247722112256,298.2326485601162 5.569283059536736,298.4661624396506 10.63582530388533,293.3426351885636 12.385133990840906,292.44859737785384 15.341901799209607,293.4031712651906 17.975903291170262,295.521094794585 25.57415350636569,300.0734461794335 33.043976548625004,299.8997914649716 33.32796033639823,301.29243590246256 32.98510015018332,307.0907866623112 35.47324370807789,308.13465193776744 36.85848675118829,310.9950659580462 36.73118294104731,312.8662973962189 35.05511002506208,315.3664345917588 36.51419862400545,317.17226617899723 41.64784594556281,317.6746426211263 42.75822905173845,319.1311473877438 42.34713596609909,322.43497701694264 43.10528124741914,324.7294608343509 44.56898817362933,325.421207546038 49.41402279218269,325.71657327325465 51.434970584800936,326.4808953343571 54.26820344135596,328.91733425057896 58.2248768711859,329.55681823129055 58.70867945076512,330.9501963507354 55.52033194231688,332.67701608756374 54.623970691046814,334.6902847624956 54.90492225527791,336.911000664468 56.32217851755749,339.30096946350454 58.190560019045066,343.5545731595547 63.728890868139345,347.81261169690276 64.0009890551854,349.6966707524497 63.226833231575355,351.08513517113465 60.01011643968947,352.41335828922286 59.737065950495186,353.4150549952044 62.28171326177497,355.6967048634326 65.33101303219273,356.3733181624075 68.37689630972683,357.93995854100785 80.7493058530756,367.51496519199577 81.79295947405907,368.737161461608 82.19278990259993,370.9596765426636 81.58961063279875,374.82478025065575 82.08126734110095,376.6082301333457 84.52227416147599,377.507539104634 84.46537332817286,379.2776454939443 82.18802875966945,380.0478742100479 82.14032621785039,382.1039138112104 85.52691976307898,383.6419554418253 84.68598731380841,387.037182839058 90.23367870208565,392.0830527970695 91.22969008332522,395.085183516445 85.07474150711904,394.9607174717014 82.63559919716711,396.2303165582134 82.86507831904093,398.90285668630577 82.29454672698044,401.95122471895365 79.47643139291029,408.69508055940764 77.86707251566249,414.58579761368696 78.20013623560847,416.09119873793804 80.0897870298599,415.0956141730587 82.1360087256745,412.5443575964789 84.90300206899363,411.49992660882924 90.73611527391381,417.9411061517568 89.95921069791267,420.0465268907012 87.0813590719247,421.42722128316666 86.95387762970638,423.4745037837341 88.73673453569779,429.6850189448694 89.56847182647893,431.1936663957965 93.12357753560161,430.6435637580611 94.60587136654374,429.04212384935556 96.11435484728243,425.92537189052734 97.70551871806884,424.8256861535874 108.97120486128891,419.1024794740397 112.46523401078258,418.6137419448072 115.01012078327499,415.90054523351046 117.73168283486548,416.34971209848334 120.06154378120544,417.91426944974864 127.92802947469256,422.4150788858062 132.14287173841961,423.93539724348364 136.02595738586444,423.4475556747791 138.9579872324536,424.17457054419424 140.73559838233777,423.46385555204813 147.2846084635196,419.7598099510608 151.4464910697549,416.40658513313804 154.04232987076978,415.9646882983568 162.0352346886485,415.6027683641912 165.70258351793373,414.04885072808895 168.85335169760438,414.83665607067235 169.74326000182634,414.1128727422923 170.37365592504344,410.4292871142011 171.23573363360035,409.5420364035374 177.34521769951917,405.17071680713343 187.66736614435925,403.28994996660754 188.41096842450077,401.95156804988517 194.0628126066178,397.076853441253 196.0648512206474,398.1577198144349 198.1096919016723,398.3274950351148 201.95710340034753,396.22132894259425 203.7186859980811,394.27200334550275 205.06350872968594,391.7171920844621 210.89549917095792,386.63829678969523 214.29032141769082,385.4205606017747 217.2844757841028,385.0817679755377 222.18141001964855,385.4232288313531 223.62544152005233,386.1950941880219 224.75697027833814,388.1124114136146 229.41131542034415,386.4587300353777 231.84632147368873,386.1785992264779 234.79627817220955,387.2927943193283 237.30002684891053,387.2902334921363 243.12269331254967,385.0762501899361 247.1684866106528,383.11192865234204 250.31740620837837,380.83936504813596 259.0681723468904,376.3600737762906 261.01283819586564,376.35562242173967 265.0690018490016,377.9638926803076 266.5846635531875,378.01875758033896 269.5300268079991,377.06491565665453 273.53799302306936,377.9560133154855 277.16168880512197,380.4824812211225 283.18282137798184,382.3110709168062 286.90905210781034,384.13202884245754 288.1904276410545,386.131008473307 290.1926238770262,391.2640045681335 293.2599165520243,392.9915613047052 296.99476086225206,391.58863981365937 300.12819866238715,391.14599995084154 308.6978667371417,391.29019851269277 313.13517551251266,396.3571806064084 315.00279075160284,399.47422010683647 317.6250974899767,400.03274130338923 320.5723080788413,398.3513573071132 324.9236218960731,401.9038670230768 326.54062796871517,401.6824277541616 328.26953855918794,400.44724246736814 329.7749754375313,400.55364823213586 332.5061448125884,401.94171573939275 334.12471014987415,401.0554786985847 334.4574990384533,399.2141661540752 336.026450121503,398.0503535919519 340.98006799744564,395.8409887979361 344.0441919438206,395.27488845835694 346.2759102024102,396.5489258071568 352.2758571787492,399.1736250598494 355.37403462486014,401.23675723162364 358.0746172157206,407.20001959996625 360.36329790088513,414.27912793795815 360.7578617880639,416.4291072531696 364.79096504700516,424.6879464616369 364.2073476907281,427.0723723438249 360.73298483443006,427.68861914743286 351.7964924667535,430.6176877166391 348.51842481649794,432.66781616746937 344.65917018098503,435.8840517785144 343.3268271407985,438.2357046940309 343.3239384237437,443.95772389768945 346.3966565055159,448.4390289314955 348.0305567028823,449.45675326668675 356.8371363881109,452.08622672801096 359.7065490569542,454.33605712746134 360.9389178754701,456.3752130559162 360.1198127025329,461.4729355223494 360.93484051172555,462.89713885362664 366.2536407130566,462.8890729167881 366.8676295158774,465.54227385812703 365.64687328942745,466.9831460520086 365.22824590375234,471.0579097968274 366.4620847913748,473.0970251703334 374.4453489912508,478.18273345303055 377.71272846985926,481.44709422208814 379.55328473095045,484.3070329954411 380.783654250047,496.752074527781 382.6248461500994,499.40777074871176 384.67965217985306,500.3753212314141 388.883347422065,499.8206454286492 393.102645716003,501.733265742399 396.3582376336511,505.4788865303492 399.78248454503256,505.4857139557256 401.28704151557565,507.1575415000543 400.0918665500173,510.6477868421332 396.0076318047758,516.4362504309961 392.88752691482955,518.8874695984708 388.9123306676386,519.6793075145945 385.70558857070796,520.9416109263668 382.59473835125357,523.794039044487 377.6452276246778,527.5213343732757 374.690918620899,531.8076152867543 371.8940922664951,537.1278835025955 369.30838816050215,546.0946738508055 368.1142131743511,548.7143702494618 365.9419113041608,551.1784320642826 361.3928536022593,554.0273649102103 358.35620742685603,559.0300230757573 356.0460106384641,560.7768313620181 352.3800126425684,561.16718553648 350.38542120683434,560.1289954591193 348.94781936437846,560.2074262241443 346.4613658162932,564.5759832725547 346.85287533107993,568.1525700643181 350.0290160097124,571.8058810926002 352.88522287787856,576.1780601351312 354.38514447929055,580.0021513285612 357.5746600968985,583.0216118873906 358.52701571453207,585.5643011315015 356.91374501033175,588.0196283408145 356.6703964666564,589.6076555404948 358.6554159235852,595.7297225391173 360.94838693312425,597.321929355629 361.4212457814262,600.4282740623091 360.3104023079916,601.2961657052351 355.36412765043775,602.4020050332931 352.96379252156186,603.8317052005798 350.97948185313726,606.6044227788389 350.72523290485327,608.9909230367734 351.50996951910207,610.971352953671 353.2629698033785,613.0440792082582 355.41720652266696,614.4740870599445 358.3612139150916,615.6692199466243 365.1150738810236,619.6497819100473 368.37441910551803,622.9973121807893 370.7550512906449,626.0161781911029 370.6662404346543,630.1549753453382 369.4605594378424,633.0844676554302 370.2435530444984,636.0266698304501 372.31839286518937,637.384472624788 377.88984622869225,639.3030807700575 379.79173723217497,642.001129346542 383.4516150336281,645.340755031353 384.4711840808453,650.0367022854927 384.235343564909,652.4443978922234 381.3171491900828,657.6969247982503 380.8642048287975,659.6535101284239 385.1218449627728,663.5477922684545 385.92932073560803,664.8098713792378 385.11849186276646,670.1991448623688 388.10583265875937,675.3624187060864 393.1633653972834,679.4834522471756 398.3375884748114,680.1697553737054 399.1434297077164,682.3443383013309 396.9659640426579,686.8197851974858 396.85196399715676,689.003812199682 398.43537674805447,691.3742843499322 397.2518005507658,693.597030374829 392.39258305002045,695.1758611720575 391.1095783036834,696.7533715525767 388.8676015854409,703.5860592087961 388.2195864657141,707.5532905898623 386.3723988496233,711.7631110982657 383.4040181355932,716.5240596904334 383.31666129956125,720.0924727624142 385.9293229619941,723.3580184616558 390.07405660863895,724.556455329911 391.55858717511717,726.8056651828906 394.55164964635185,729.6817524654458 394.54912757057406,730.9435680712077 391.6701765387739,736.1061849899718 391.78717181923923,737.6034237226065 392.9358221340303,738.1690455113298 393.51017658207405,740.6924284921353 392.01196547516327,745.1719769780404 390.1755363761868,748.3876013812346 383.74234758642274,751.492411422071 381.6716027303807,751.8359840609448 379.5898937446608,753.1033420658711 378.5198444928083,758.1371223882904 377.93411107179656,766.0743701993081 375.6874951930881,769.5664195158073 373.3520298893792,777.1929573407695 367.9901673830018,787.50985277693 366.0704744398574,792.4290650154851 365.56508343683737,795.1360916804076 367.37140607421424,805.7766800458576 369.62152288084314,810.6132805920813 369.67054208279876,815.4761533147827 370.9185918335118,821.1118996257298 370.43138875290555,824.3724222862247 366.36529373045545,827.6168380817805 366.50670807701994,831.5053797682323 367.37060930831666,834.4519279953654 369.82956715139153,839.6170826502257 373.33022335541597,844.3858593303677 377.45067051999797,849.2473948076299 384.44586514929483,856.5679378819993 386.19541601976226,857.2798677183806 388.66180918956246,859.1930742853788 392.2011100689319,874.7671516924883 394.9637330791454,884.3882768882899 395.4886158871668,891.9333734173049 396.4459139425401,893.7617828556727 398.83159092693796,896.3112103666713 400.3363244449226,898.9321137961105 400.6491812726735,902.7505153865272 399.5956730655176,904.493286675726 393.30159403834426,910.2800543069006 386.199481722898,914.3088651795563 381.24314378636507,916.2083204354326 374.381928272448,919.69498676952 369.43710202057025,925.1654892692745 367.99507606081147,925.9524524337971 361.36713991341804,927.6112061239622 355.9485198488723,930.310268939729 352.51033783008364,932.920629251027 350.9092329992264,937.208036788343 351.06412505030687,939.5897473216417 350.65090236802024,945.3063560881155 349.18585730981806,951.6585538262966 348.70294529473824,957.3031760291599 349.2499714766219,958.8140500284419 355.55564594056835,963.2640330888539 354.3556492525747,967.2143619774204 353.27104781060626,973.2998506573022 351.46820512518093,978.6767936988911 348.6095463775813,985.7750615251094 346.9632730361287,992.097244148685 345.7159487033178,995.0926091687174 345.4192837749594,997.7112894887974 346.06291661981436,1001.1319724371428 345.9259451373008,1003.9974550716187 343.88933412412035,1006.2207155674458 345.1173758040575,1007.240244057445 348.7818274623047,1006.9921632658233 351.90389806671874,1007.7173161361405 354.7616539748376,1009.9317610931352 357.0432083165203,1010.3071356692471 358.2690629068237,1012.9685861271737 361.7530893839884,1017.310735741797 363.871575340253,1019.0404038714642 369.6991637795262,1018.488127361469 371.3000082465376,1019.3434981952828 375.1624210916884,1020.3275135594947 377.7668935667668,1024.0" /><circle cx="358.63825443965465" cy="361.113630880767" fill="rgb(100%,100%,100%)" r="16" stroke="grey" stroke-width="8" /></svg>