<?xml version="1.0" encoding="utf-8" ?>
<svg baseProfile="full" height="1024" version="1.1" width="1024" xmlns="http://www.w3.org/2000/svg" xmlns:ev="http://www.w3.org/2001/xml-events" xmlns:xlink="http://www.w3.org/1999/xlink"><defs /><polygon fill="black" points="1023.7882563923627,361.9736970213281 1021.1582604609146,358.9190181916795 1019.5914114886308,356.30217330751384 1018.0224736246216,354.6267476757044 1015.968526360615,353.95185750932336 1014.1034084892269,354.06784866974226 1012.0171888567645,353.846521033229 1009.425319630577,351.912574827638 1004.8815876284082,349.7589499921517 999.1859952676931,348.4821665706199 998.8335303663997,347.95495077501806 995.8863027930811,347.3912264822976 994.3253504445047,346.13816113630816 993.5203761375394,344.9129716575703 992.6368820816075,342.80261079765114 991.3938165288299,340.9932711982999 989.4868140947692,341.0952507188917 987.4791200834896,340.26003814934796 984.642517840685,340.61100037033907 984.0617623228428,340.318810487122 983.551236350042,337.71790698468806 982.481242771422,336.09016331937755 980.8864907838135,335.9824953387176 978.6055593968282,335.3008641465608 977.6316423313325,334.22717167300704 977.4986885753108,332.50766051368055 978.6213586824881,329.6814819043368 978.4404418660803,328.5663105867992 977.2687879417222,327.7113122854365 975.5802632063093,327.0957474002043 975.9119750732673,324.3779089780837 977.8864048735875,322.4124362475624 978.5706518714139,321.23982614039676 978.7576358400818,319.5221653841437 977.9946948859197,318.3112906682684 978.0179194606488,316.87892558394856 978.4838587556767,315.89563106149797 977.3868025756076,314.3596411208757 976.9588458729479,312.2540171810015 976.1279938214035,311.1430976135052 975.214675181079,309.0273439932223 974.5797784360152,306.1616866277227 974.9176446582161,304.09990888331487 974.4336811990481,301.3942425031379 974.49974837196,299.4862101454498 974.9533639472562,297.7434795670635 970.5219461703801,298.4234466320386 966.3830420772788,299.9578602330111 964.8963597710599,302.46639892310736 963.6272739836329,302.98508918926035 958.6249551483764,303.35747202067097 957.3809446916183,303.7465519782901 954.8337127197068,303.5728327665168 951.1696991781821,302.33844737990034 950.6434522352457,302.60077369749916 945.9808891572737,306.9781357265858 944.7596255619501,307.925193033576 941.6490750106389,309.12874110823486 940.3357406496887,309.06156792731014 936.8401678069424,308.1811341875838 931.8371379708988,306.5179013834821 926.6903242097745,305.62764308767026 925.2047280664734,306.68223487140153 922.7993265622906,306.68181265159006 922.3588445442982,306.00025443659706 921.3851719116742,306.69501716694396 920.2204027459419,306.23715884115336 918.4351196671504,306.506079634047 915.4625110201158,305.7598794861775 914.7415083204181,305.0367593924107 913.606680460212,305.315891107633 912.3169630704988,306.3622505800006 911.5267430735579,307.749963867235 910.2351424529185,308.49412231059796 909.2984235596072,307.7872302365316 907.7151133431544,307.7001310345882 904.9573655100334,306.3964661502657 903.0835819584818,304.9890306971869 901.9163517686824,302.93564364274346 900.7497530206128,299.3462541256574 900.1276287040969,298.50567586258705 897.8971431919695,296.9689486161077 894.1197405478516,297.2343693635915 892.6489438672623,298.14407525360355 891.1227867825971,299.71114824910035 887.2754932812068,301.33358570565883 884.2841266066525,301.4006698515452 879.6350882083394,300.2765292884541 877.3906537179919,299.14016668979605 875.8008653135048,299.1432740456496 873.1034618019952,297.4970805375388 872.0607678370014,297.49336999422786 869.9187141228903,298.9182873724704 866.6340230387677,299.64390472339096 859.6650530635694,299.8757725602797 857.9035973621795,302.0536420419093 855.3810908414763,302.72576876854714 852.9791342591839,302.8209841048609 850.2495932351881,301.92855932159966 847.8760929337392,302.4585117209921 847.503283553829,305.5751868971648 844.7354284079265,306.0461359614732 841.9514409427634,305.35735837149815 839.0909646537459,305.06435113606403 837.5871700254896,305.9287621240443 833.7624981411575,310.52167159459583 830.2278488868168,312.7986607253104 829.9066284648505,313.2926361539046 830.8412561750597,317.1111244072557 829.908211724283,317.8028914840772 826.5400124588305,319.0639842864074 824.1252985253335,320.40087546092536 823.0828498363986,320.6759094507982 821.7078941578352,320.36063081059496 819.9627314317017,320.88760547840224 819.1820021701966,320.722792492132 818.0346929243799,319.38187208984715 815.2497038249988,319.7173224291346 809.8515057772127,319.4907981975915 805.8380620043808,319.81220405159667 803.290732181107,320.6948032184644 799.4822865212861,323.3875798004855 797.4662975197577,323.32225583802744 795.8029618520778,322.4909797764235 795.9231267965691,321.8690004428699 794.733406889827,321.5308987207723 793.5728815030509,319.5663246567766 792.5393248243467,320.320796534442 791.0702125502746,320.7769699025883 789.9482126327587,318.72775293576143 790.5730934709568,318.0787083004645 790.165260444199,316.6105479067662 789.281512794453,315.3734002347384 788.0039395913368,315.97212023779826 787.6122135578677,315.18863456054834 786.6874193220536,315.5632457373729 786.1063003948432,316.5569939836691 783.158560763658,317.2201060286669 782.2082008151106,316.93299943833586 781.4781528355732,315.14698923291445 779.5648290057458,314.5138515415975 778.3492590533268,313.2278506391492 776.5682687570107,316.0516431971231 776.0523337955457,317.66009157206435 775.1199519829258,318.38125517240013 775.5178850057748,319.6005621475992 774.797143845575,322.0748410452133 773.0598040818619,322.5409270842713 772.2121143334849,321.692865732018 771.490826899541,321.7356782094236 768.3352676275944,323.17340880609066 765.6603091479966,322.8701781951176 764.7872211626524,324.3486638399234 763.8435075743847,324.23479567455155 763.4480897975033,322.80381974639374 762.0657217522605,323.9186493677567 758.1918776156292,323.84876625668437 757.4208912756039,322.5907537460458 754.5484039759613,322.5266623449275 753.85436383436,323.2837420899737 752.0632348781795,323.1405186047985 750.1166964679704,323.5459919258415 749.8190962897331,325.7491235778981 750.1773348536875,326.75853552567406 749.5525731140661,326.89563925782886 748.7659167318625,326.02232160885706 747.5471002072136,326.8295180026097 746.8609207306979,325.6048658466138 747.3202339681899,324.9323382637182 746.4190161330254,322.94210118814806 745.2341080829871,323.5440071929141 745.7675318366457,323.9985597517348 743.2916972540027,325.4092323578369 741.9561426937755,324.76820812562636 740.8098343509681,325.03726385452256 740.645541816967,327.2341913639358 737.4844086822546,328.54437129219815 736.1452188242143,326.1778056388449 735.9711139879385,325.1149597329956 734.8804110906774,325.773539398492 734.2640914500457,325.308015911282 733.2176709338935,325.73934899840975 732.1878053233881,327.45638295752605 729.7834552065443,327.48036517782333 729.1299631471749,326.8575676167016 729.278146119952,325.85807809343123 728.5974997517194,324.79169568212984 727.0045491502448,324.6942885338451 726.2713954180482,323.87051704582433 726.7026261469015,322.72546035336 727.6430829022693,321.92916062292994 728.6887882256058,320.37670646108876 729.9468932345518,317.5967681810553 730.8074808151154,314.96672343739823 730.8948681308335,310.45473330303065 730.4295065587845,307.98057641754707 729.8413778890264,307.1751083068141 727.7811379478136,305.64180922444143 727.7202589671379,304.56064595059934 729.0124040723317,303.26215929366583 730.0857912423982,302.98092326217284 729.935392690147,301.73695494390023 730.503922082534,300.6697541726527 730.1945892162211,299.31201201976666 729.1740824009669,298.80779253880473 729.0141414160207,297.5652632306012 728.0307870674541,297.76754631895943 727.2656209370208,297.17163492247255 724.0241297452297,297.4224541280713 723.6948872067933,296.6373909652986 721.9643431213096,295.89007393666475 722.4855661427858,295.4786889282809 721.6372313687241,293.77973747693403 721.5397212811106,292.02225538237167 722.4591162697114,290.6785812693019 721.1841456498406,290.51623114946364 721.9594471419657,289.74886164891154 720.0489401346355,286.1345469643145 718.4361287185606,286.0593466541082 716.6955773136164,285.5907157790526 716.0921817120321,284.0940034998313 715.5427094295867,272.21935620632564 714.4563028780416,272.4188761850364 714.1638470689413,273.4151310751305 711.9703402155059,272.1357518059641 711.7692423914835,271.1958318141803 712.8723580100642,267.0547228180859 712.6221860208108,265.6191686897677 713.6875384598372,264.5862880657056 716.6175860404823,263.52849543105776 719.6688824028012,261.2929647700664 720.4650757971466,260.2398985231091 719.6862723033905,259.29157166544144 720.4208691665511,252.78789052528157 722.0952675085754,250.42285065364877 719.8649776525751,249.2584678607907 719.1006660723505,248.41535291334992 715.6464752266429,249.77903324580552 713.2295258777315,249.96824311128807 710.7129508590185,253.23557183906155 708.632865617004,253.8705738871402 707.273718405439,255.3061404672951 704.2548094679033,255.92983650685852 703.5587307547621,256.3476565230163 703.1788060769856,257.4895834545267 700.9630599320706,259.1675343017282 700.3102326274108,260.2074289318718 698.9791267961084,261.0093901542562 696.7286550470988,260.9500277014878 695.4335508925483,260.50958770428616 693.938036263967,260.7909806663002 691.7431299644085,261.94121994738254 688.5025293657512,261.8893785189042 686.3943836796542,261.5017189896925 684.6556185721714,260.7765252465652 681.8402469698282,259.9488670696638 678.4754259825212,260.1482861786554 676.4148641412535,259.9387692545449 672.5905917368352,258.04316302365186 670.4715038847143,256.7900089421015 669.2812127952194,256.3829821862707 667.0827613868473,256.90019780593406 665.6056818765759,256.27062393465417 661.7949941362251,256.68208591348713 660.3272011204385,256.5851202756683 648.7711382041169,252.76173741712012 647.9678538390824,249.9791827605817 647.4400887546037,249.6446071703126 645.817494207117,249.81738727893378 641.2262367281306,248.9021148508283 637.9775881811153,247.46488727850624 637.1823545409842,246.57674824163917 637.7505228276013,244.90829575324915 637.8033296189606,239.86938728731445 639.1651729362846,238.48159525085907 641.5081824840349,236.87659031375222 644.4222875815036,233.4097046880595 645.3943713393661,232.9230312545708 646.1667419221905,230.94053970586845 645.406860161911,229.0509182495723 646.3850681191881,227.0533181159417 649.266518117578,224.67721612267007 652.6910481799606,223.62767968672676 656.0334876081163,223.43668973754257 658.7273156625081,223.81869884857792 661.3374543344041,222.47392919134825 661.7099413679668,221.9648836994345 662.3982062348379,218.2630465892937 662.3552695981545,217.10030336046873 661.6579528875875,214.6830109354712 661.0086454628341,210.76941491524144 660.1305329232821,207.93794579913197 660.2629868786754,205.93459936049146 659.8950756080618,204.8960741130478 659.9793055187328,202.14994058072637 660.5001190745776,200.63510677440786 661.9812041576075,199.1754407923421 662.8624492892801,197.09153580699058 663.1753166704518,193.84918448407336 662.9314270493173,191.70865753779913 663.369981793875,190.46120434008378 663.5415083312214,187.3136332805227 664.6268251519223,184.05132211653313 665.6119358482964,182.55701048224557 667.9606998445504,179.79602435745483 669.0907874721797,177.4923489388517 671.6689605637621,174.24249906584373 674.151549902254,172.58020957711653 673.4773419521761,170.50963254075964 672.0040018491057,168.8367009014404 670.5364551571514,166.75778491255812 670.9419612467605,166.02944838168833 671.452415193256,163.41201636519247 672.1830406082443,162.01010589084296 671.6756587846263,159.99375355668974 670.5874040778191,158.97555352342795 670.550083985777,157.97013376522557 669.7544053517532,155.67958963057572 669.9490751216109,153.14941717899399 670.6747417240053,151.05706919168483 670.1915965846106,149.9710805501104 666.7701760554394,145.73627695398102 666.2044811980733,141.860609639328 665.1388794897998,139.48184026017373 664.3156859092595,135.87900894736288 660.0767027528402,135.6755283172729 658.2159470998363,136.29251470105305 653.797330854555,136.22261377290909 650.034536889421,136.36134918226196 647.4198662477806,137.47088567709613 646.7130349226069,136.43939757330577 645.304697198779,135.64951983051253 642.9963799807871,133.07012912040796 642.4281523387482,130.5012252084282 640.7585302332709,128.18318525005316 638.7563879509399,126.6423743959574 638.4373115860286,124.9577800465737 636.767491830094,122.91051497255125 634.2713586550268,121.07261255746528 632.0874379961612,120.73281384951815 629.20318668709,117.84391103619805 627.87899440257,117.08840715037968 626.5205273250057,116.81539121327444 625.5466874474921,116.07078936928019 625.1461326050832,114.96750798908874 625.3152440947631,113.12262206766002 624.4869887099969,109.03301455182407 622.8261490425002,106.94737027758106 621.0609121182288,105.6542863089162 618.8611780598687,102.89005488768055 617.4064216236238,102.20063808081431 615.6806100411214,102.55585937647243 614.5853010322105,102.41549194202241 613.6992464049064,100.407228221948 612.4536881314607,99.53746176805839 610.6209641616209,97.23228788103654 608.0559143152199,96.83872117800934 607.6448138635799,95.72063980376936 606.4848093749406,94.9372333391359 605.9810145655977,93.53008546113756 606.3858311921612,91.3476257792845 606.9886112081124,89.82482849207895 608.2794217699061,87.70085517488599 608.165502406169,86.54178204365382 607.2545512950857,85.53247504450144 606.306217391128,82.91890225728889 606.7507656485346,80.71232916915574 606.2081341376152,78.8048416062154 606.8053102054499,77.39553610961173 606.355680801654,75.78465013898813 604.4377641864585,73.92701964335629 604.0159088078434,72.79421002672188 604.7230011585117,71.5989032902786 604.6555682118963,70.28923462541525 602.728825874792,68.49123677559726 601.3829518064416,66.81567506869021 601.0042769880778,64.602252126959 599.57859568538,63.828388769902176 598.5996722077683,62.64988807542227 598.4199891710862,59.094493336207165 597.9452898076402,57.33449194032164 596.9314329017245,55.45155048409799 596.4952741934907,52.791313928544014 595.0100627674474,51.51022502950457 592.9864170249962,50.69850346863325 592.1772518960792,49.92599124372248 591.1569994085702,46.708454430480856 591.006109337491,43.101309309976386 591.686948029794,39.19330999404872 591.6709085821662,38.17420452804913 590.433937952325,34.65156918961952 590.0419593130889,32.05769515236739 587.9710238241653,29.629034759130377 586.6785731889037,26.55075372816566 586.517948413611,25.236891124258932 585.5318361383847,22.687070174661812 584.4859372850499,22.462535173322635 582.63204200341,24.035580516703135 581.5966557005033,24.125696163123507 580.0296095688165,21.963568488396845 579.8734231603237,21.34658741365763 577.1835147896359,19.12116612800378 576.3949433621108,17.46297116094604 576.2326648270534,16.09736563163335 576.958229888478,15.134731710486903 576.884832619919,14.223438833426144 575.7490454825427,10.645186468593806 574.9157731808314,9.738502891037456 575.1087035893502,8.825205978104123 575.767961403491,8.883550866336805 575.4260873345754,6.513350499291619 574.9573001778698,6.028431539404778 572.8206744823362,5.468453109098846 570.743490028216,3.1161986221679854 569.37177966195,3.2473331499668348 568.4237974172518,0.0 568.0391934551432,1.8869272319667516 567.2826931402994,2.273306423783197 565.5627331331556,4.462618440727056 563.7571816808824,5.665488234305826 563.1177904074602,6.452258123761226 561.157933538399,7.669192305968181 559.4763020612446,9.489015492191015 558.6182225691751,11.370080650856494 558.9969176204656,13.335462831655036 558.4680776469269,15.79607455673613 557.0064540587477,18.606041229666857 556.011009280016,24.410838390630488 554.2576271293221,25.95681479481641 553.4977304655329,28.569079763455534 552.9945001645922,29.156667554328692 551.7137490809744,32.74015009611219 551.8962280326924,33.54290705579706 551.5975112520186,37.28571284639588 550.7539422856048,38.42484881658811 551.6998433415807,39.875950784450424 550.7858502963121,40.47054151010332 550.1432662104008,44.08310403489543 548.9558115834797,46.55399328560134 548.9347910818682,47.694137246703804 547.5007394094396,48.996571662793144 545.65094631268,49.872390449997056 544.3121051935572,51.54578027031198 542.1062368224394,56.032441392968735 542.23763795928,58.576314084241176 542.0332381954894,59.18344183930833 542.7192390205646,61.160678555423374 542.5971606974309,62.0648501039384 540.7861724648743,64.93305226908763 536.2133909692956,67.62128417215729 533.8970991644073,67.53023967736817 530.1977862997844,68.17072085340499 529.0022307328256,67.51465659277187 526.4136221379557,68.16876413151158 524.4138772942906,69.18298929675723 524.4628903186054,71.46862549790171 523.3463936360668,73.63758918326289 520.548224608418,75.06267913460181 519.3385228560921,77.21971795784611 519.2447967153493,78.07751138188746 517.982964466926,81.09840638713558 514.9655273913197,82.7488386854111 514.0840078860301,84.00202860852835 513.2903597800197,86.3105636673057 509.5838258447563,87.6697149954673 508.47665075303473,89.83049292651765 506.6486833180481,91.37867782225976 505.28896090875224,93.39928201757664 502.29383898629055,93.62306702634305 501.6085862099288,94.62973355021336 501.6688328850282,96.06690612890986 501.19010915107935,97.38899237845794 499.6951062606141,99.96115734696059 499.52236433409695,101.4970310313688 498.3145522597941,102.86701133285987 498.1197508066072,104.06702441450989 496.3971731552731,105.4019248560146 494.3746513534694,105.22374591338053 493.3340976859538,106.07752244592314 492.05867789496375,107.8542961507294 490.21957853348147,108.5262923444725 487.1846180785696,110.90311023021593 485.9319432745497,111.56231787125637 482.6290278615237,110.94021718364888 481.3436967055406,112.46248500179877 478.69159044849295,114.02411741386459 477.5485149503275,115.18107261942203 476.33464337802627,115.4859663563185 476.2098988178755,116.64571789656247 475.1370280215149,119.27071866704262 474.9204832034352,120.45626785585614 474.10233384760085,121.49736308909223 471.59084786626266,122.67841306873163 470.333510524355,125.00970229523818 471.234055939673,127.86809516555832 470.13017147854106,129.29434895719862 470.7087408349326,131.47328574043695 468.5349866857326,134.99994592803466 467.0714042283275,136.14497312393473 465.85030769653775,136.55454217220245 464.6828102027094,137.62251906943516 464.9586306463833,138.7761170067098 464.2199039022982,139.43999036159494 464.58684405394155,140.85264403586257 464.3292807962335,142.64800709416136 462.91346170564367,145.78824966441823 461.0755341811415,147.14222329305835 459.9102581269047,147.0621283049411 457.50257466282005,148.29944554379563 457.4448971583944,149.3295435715553 458.1517318382136,150.75440564989879 457.0753085805155,154.51407300881624 456.8890521108666,159.64057985500767 457.3394662761571,161.0666112116195 455.65529459231266,162.09259921900787 455.1388755725808,163.26556196586273 453.4751160607353,164.28324443916267 453.22303525667206,165.35768094784135 452.21294343676317,166.2334106907889 451.7966901392968,167.93588919307376 451.91722025952345,169.96001059465698 451.0843369182745,170.5956060730565 450.5488277438061,171.82310931205643 449.0877642850984,173.35918834542917 448.1495599831702,173.93141849244375 446.3132808392283,173.82843756870386 448.43891552889295,175.49132526803965 449.01677788566764,177.35648931591038 450.35206944711564,179.39883711719278 450.7285601621849,180.76807256836014 451.7393377219174,181.43940363095373 450.7228388461061,182.1340630645293 450.76210500670624,184.4986039312381 447.8940266856822,184.9559480409149 445.89505326017877,186.74313540451715 444.9773820537876,186.72233865314206 443.48774263693815,187.42529762695608 442.9820747340626,188.9300454142474 442.81067475222574,191.78929776218968 443.29560940201037,192.7266174497846 442.82202380736356,195.77729968528763 442.14918685185904,196.9036111017566 441.91295418725434,198.76713445891642 441.08969293349753,200.93631875377548 441.2384288456548,202.5980741130296 440.1848164882855,203.72315887637149 438.76235223594455,204.2964194566664 437.7926825508416,205.49415386016415 437.5677714842164,206.46293571278966 436.28289587127045,209.30023977730787 434.7724004076747,210.32838233387963 434.54872594209786,211.02632782107878 432.8523746729546,211.73702286428215 431.0808554673369,212.0672195373337 429.6267013112831,215.09127958325485 428.3401724518563,215.43427456431994 427.43152801927846,217.2231266482388 428.47019071371284,220.87028162899765 426.1478053958871,225.97407952047 426.94718899027987,227.99165232388236 426.6879439408135,228.56345188538296 423.48406991141377,228.58098976615463 418.0330431948086,226.0949979002953 416.5305525044699,225.22053069997537 411.995309097299,223.9441794524222 403.45194897670126,222.00315412256805 402.31221768799514,222.12394555691958 399.7271980110357,221.51795651544023 399.96474568398196,224.03440339194685 401.40986758810413,226.61663848597232 402.0834297859881,228.91585276881517 400.9396194961958,232.32804393395497 400.51644176054367,234.19102631217822 398.79016390107654,238.6968544186617 397.8994336580523,240.11677797853963 396.55501531641687,241.22047719734098 395.01990463612526,241.56451969196655 393.3869354552434,243.91714371577154 391.60332360780075,247.02009039972518 390.84215596875015,247.37630970882822 389.606115633063,246.45472127257403 389.9214608099,248.5263273898545 388.78786798286114,249.48052369801007 387.56810485232086,249.05458368990048 386.0536342180267,251.27689234037433 383.8216168791744,253.28860372451334 382.20863092075473,256.58953606076255 380.29560870462615,255.47204838953428 380.40407142513055,257.1966249362905 379.5003361331305,257.3092630300031 376.3832519466133,259.38093450882116 375.1233108527523,260.8880730419884 373.0116569288611,260.9418864623102 370.1543421473973,262.1547420793602 368.95260500021766,262.284492565375 366.98060959301137,263.7542350570253 366.95343818329235,266.0926917740385 365.10149439019773,267.46893012531854 364.75108104081863,269.0735722124705 362.9415046179761,272.07937205443585 361.57929171357927,273.3123104951661 360.61303978835804,276.88503482838524 359.918263882147,278.36596338899403 358.5081536610003,278.12579360146134 357.57138207955177,275.2986498751885 353.88522725780985,272.8840408225355 352.1853682456952,270.7060697884563 351.4476848330998,272.7448977483459 349.883501916333,273.15675044335444 348.97218762320296,274.6294394059846 346.4854116753125,276.16798514542273 345.8319278305276,277.0012851863165 345.91706844780873,279.3220357798917 343.64475001726873,279.8460622818313 341.0357330582435,280.1553849748274 338.5682387481834,281.00911174732414 337.8953782934565,280.91851987961564 336.63200085368703,279.7854410309964 335.4711902248994,279.92836335006905 335.52559261199065,276.8060111592914 333.0545019535361,277.86999915738835 330.3939254433694,276.56471950068016 328.90492304060103,276.75470160785227 327.5944552023795,273.4882919484105 326.14097632394567,273.1593235879838 321.44123226472635,272.8733893704848 319.95566142789374,273.16877939665596 317.90540324714647,272.2416379452436 315.30696093686964,271.5648409758904 313.74257290451595,269.7042142618127 313.0477534781107,265.9908889537066 311.92296025305274,264.9662577836816 309.9772321046598,264.3969334673561 307.4988631769116,264.26509052272417 305.8241922321639,265.40751075582097 304.83939486953267,264.25106272805255 303.68653321586424,263.97900775143205 303.0251514342186,262.2934895951991 301.7265232153888,261.6355404483555 298.5998514431175,260.55415052267165 296.3380286070899,260.07639382408576 295.8953730109829,261.72230861614565 294.3740737768888,262.1984076067846 293.2318591334679,264.8575678539588 292.16891898130444,266.1465072603912 291.11168426002746,269.5547530801607 291.33978594305654,272.562355001268 292.1866831466214,276.2117172938745 292.89319850351666,277.0470277514312 292.6083811668498,278.4765312029143 291.2313831215291,279.6102737278797 290.281942718806,281.87283213261486 288.62998824551204,284.1196515281 288.47189957833865,284.9745627620573 287.58444234672635,285.6193522434573 286.8653975194549,289.9800918766776 287.0348938107479,291.45572705117075 286.5521846391971,292.1708696402691 283.728315616811,293.8685398974323 281.9486129256296,293.9910483959229 281.28200602164173,294.43361234362914 280.5941281262733,295.8616057181979 277.9814063502136,298.7173197694086 277.4973975831688,301.3728419750387 274.89133072749695,303.4764170862274 273.5331519514884,305.54969669040264 270.6556457748024,305.5485585664251 268.68631687564357,304.9107860611727 267.26880381214556,304.09728982205064 266.2839393232329,302.9316735298372 264.785986002441,302.1810256930307 264.14959612047994,299.59917717621465 262.72706481338656,298.2820501819323 261.22733333752336,298.47839027531444 257.5615029472082,297.30603168012243 257.2467568101278,295.1499511752416 254.46916563914763,296.01009826532186 253.4616197011435,295.78554115676917 252.90089627093317,293.30590739491174 252.01201514980548,292.2288308486447 250.48097488332036,291.7420868716596 249.9495990981743,292.5781645475333 248.67594276843087,293.0681994489834 248.54032584733326,293.6817670288218 246.19365439161479,296.84401847112696 245.10338394133746,297.26147390009334 244.7669101098421,298.061318767609 242.7870254204096,298.05411652181675 241.64788420582113,299.25497505479524 237.87946887638947,298.7458834196459 236.87384985890736,298.24275392715737 236.0808111976737,298.9583599789457 235.71181918307104,300.7147523669436 234.8892674681552,301.46144311154137 235.27845323116938,302.3825085960473 237.09405849069302,304.10879781514944 237.90233360697462,305.9046926992099 238.10634594411815,307.52276855652946 238.84460943278222,308.04917033698445 239.54081700165128,310.2615698090218 240.3028089866368,311.5616415804071 241.27728296839422,311.72054717374397 242.28739673722743,313.381868877068 244.20098545690527,315.2333440030867 244.38804189840593,318.30368256650536 243.38449539315494,319.23721542675787 242.90799562744576,320.5159003111688 242.01867435378264,320.42235056593177 240.3269650613633,322.1070980402737 239.39185785158327,323.57990705455904 241.44138638461104,325.15767046876516 242.5825138583577,326.72438611208264 243.60063000243036,326.9412570822048 244.50927393202142,326.3040101935237 246.64194300603612,326.5394988925014 247.928418278463,325.79353360373455 249.3625317714339,325.78721858102904 251.7997027736842,322.1766967550568 253.52379849264457,321.8895626052665 253.94536097661762,322.8623959168638 254.10924209649318,325.16658032750814 255.32124685663175,329.33460522210254 255.67901796653697,331.249916661015 256.85832871862215,333.3653187896325 257.818836258284,336.38267548981673 258.18387375055187,338.1931322155114 257.28959428873156,339.97340634263634 257.26744470281716,341.93062779152916 255.66074162668565,342.04055439451844 254.66424496931228,342.846746654888 253.16194379278852,346.32393377873177 252.8258689802401,349.8256076570402 252.02126348279128,351.1974884367083 251.17651421932644,351.5772299649503 249.68255764319255,354.0089228537065 250.3329182881889,355.3587245065348 249.73524677857924,358.0724184111394 248.30782025956523,359.9897045595503 247.08859196948117,359.26672213417186 244.9440804030068,358.6777748220617 243.99750146659838,357.7511673667682 241.0046181057211,358.10593002081845 238.94944643936967,357.7103649650489 238.07560401027774,358.16524269121896 234.84325442319806,358.44507498757224 234.3215005917992,357.5722577641127 231.60293716326711,357.4372113811002 230.43724416262023,357.0962785814296 229.14681501604056,355.73558199539383 228.04830031733204,355.5737632917658 225.97169460446958,354.49251757737113 224.87569596768213,354.4125422789659 223.34815092172232,357.48526132539763 222.74821307620653,359.1288054976424 221.55517130580162,359.2857560257821 220.4960655415974,362.4639165009263 219.38023255512647,363.4532707623814 218.3236180192054,363.6728997336473 216.75373629309445,362.2600325975758 216.10738232295085,360.67687005231943 215.22298400878424,360.1244163095473 214.23617404659248,361.2748023541917 212.56663515497203,362.0251420237503 212.08608951812207,363.8914603437013 211.43243089381576,365.14607567375543 209.99406955316698,366.393044855817 207.38939364255418,367.3072976681228 206.44524629000844,368.525295817417 204.8463687846996,369.23555594861665 204.80074491757628,370.4642768357078 205.54832420025068,373.7161892991738 205.58966885242154,375.09221079495217 207.2956708372062,376.5540894302238 208.33135617493653,376.98993685845846 208.75456153366915,378.0309155024386 208.72415221283683,380.80254157550837 210.18929990528866,383.52160859651866 211.26778077293824,384.7089371057269 212.89318034154942,385.53248388940375 214.20414418273052,389.6420268448764 215.4388564884388,391.1934421362861 213.7977519465455,393.6297069309895 210.74552346826627,393.74430683597643 208.60009396769757,394.18525936618863 206.8561411373333,394.22258133632573 205.90312077408998,395.4796334109853 204.07884260188615,396.2871929407589 202.31600324585813,397.7550623955381 200.60001934113603,398.03296533689075 197.6485364254106,399.48452661954803 197.13440014229087,400.2526941806867 195.7530283908148,400.6779259390264 194.95539182903184,401.96683105411097 193.41379304215798,402.20913864794466 193.92551031278896,404.1513384219937 194.63609435064524,404.77830289103713 194.844562735177,407.2493868344701 192.6750243611684,410.6887385116198 191.73005838396665,411.5602946719631 189.65240946583475,412.5486164647796 186.17975572740278,415.24245604254276 183.93733786044814,416.2505868777599 182.6459663548382,417.61436925572093 182.32990856377018,418.7992908573224 181.0367585554101,420.13289227303994 179.41921089867796,425.51497371451063 180.49928145597397,426.75558437345734 182.25990833587932,432.47434029608087 183.90128707579984,432.7869464489469 185.25114295196676,434.05831318458263 185.6599327181133,435.64340623138133 185.09062419197693,437.7018742261258 185.39044598754086,439.101469327438 186.46733330790497,439.5224522358541 186.50554875331514,440.8090242216327 187.2281710920737,441.48102044570487 183.43161894289238,440.9908520128264 182.4294050893264,441.33009112583346 182.27582987235903,442.4271405231159 180.83895163828998,444.50371795522665 180.1144641706358,444.79694641167515 179.0151558104575,446.4116029543201 177.2404571435482,447.541481981369 176.13832857264362,447.6797431176184 174.01970974882548,446.26480397953804 172.99008051323804,446.0320400330235 170.50613181923126,444.13815342477807 168.84926398197146,443.65958597838386 167.50111519522002,442.4407003117672 165.93858469428935,442.71313411300184 165.10680650686754,442.19511866075806 162.83581054526985,442.26937169764034 161.49333347484566,441.2389394866145 159.1043262257513,442.567538262768 155.95687342101021,442.7049827324588 155.2998674057195,443.55244874785035 152.6896748924038,444.0428546474486 151.38773978443027,445.08381933365564 149.04079451791736,445.0314898337907 148.0728733740176,444.434202919935 146.08168796310858,444.8912145516445 144.5793883706236,444.0387449850621 143.88936604123606,444.4729319018588 141.1658116963842,444.2662832303932 139.88598087985505,444.6647083009105 139.0391662342732,443.98074551667105 137.39087842687366,443.78804547938756 134.92393472161217,444.5744954339708 132.88063539813032,446.0884047704471 132.74820706290188,446.8902685108997 131.33840535232937,447.7905166822826 129.76349971699796,448.0020739510961 128.81306841880826,450.14644328947634 127.517901188924,451.1036889390223 126.60974901746474,453.2996428425174 126.78873441450055,455.22377474295644 127.47626246211108,457.5624599347033 127.5613485020882,459.4289054627334 127.0906760998239,461.386856048884 125.89691085318407,463.00435749603326 124.98579156622787,463.6560681048304 126.62180969753598,465.5533442368782 127.35184417648274,466.85876415142684 129.22618199707537,467.69442689023606 130.54168434641252,467.7923558324126 131.28989765639744,469.39054501866127 133.0591896837638,470.1687508621743 134.95417636965217,472.76689096377964 137.16355830711433,474.4672644713289 137.43364003791436,475.95198447071533 139.85453521396448,477.0810615932787 141.1908060513669,479.3264242147444 140.7523294498342,481.6685418682046 141.4196061266343,482.20673747542713 144.08612451675057,481.83493296246735 145.04226259378237,482.01097973856986 146.8530031141443,484.197165286317 148.5876440706041,485.5572876326798 149.038397401033,486.45652155902866 148.84612904243446,488.39898496578036 149.20310909926073,489.63310555240287 150.74439648275384,490.74214464520134 153.2772521162284,491.77586382303184 153.68683217245885,493.0763738881895 152.9675336344659,493.92667204782435 152.60601881415886,496.06388877624977 151.62808964276263,497.9850452480558 150.2240618301233,499.14212004780126 148.85602590965198,499.3857630796932 147.0893908453716,501.216551721075 143.89065460415532,503.24739260258036 143.29122832612052,504.6678159477334 143.53670668359032,506.0173518634379 144.43949885266585,507.55271256736364 144.43744416350933,508.5330602816896 143.74049393801363,509.1119084257638 141.10260499114366,508.73545392628614 139.80078700033548,509.859130346903 138.85520021035106,510.0601285702064 137.6061614725777,511.5672266024739 135.6745184398416,512.3768769932904 135.12639082210924,513.8032773704945 134.93267433050426,517.1045042384699 134.56853185978034,518.8426358405835 133.99466168267668,519.3800740845354 131.8644465662848,518.6866346690238 130.38704361678424,518.7443111369705 128.7179170482975,517.5252489360727 127.23424908763006,517.364123049051 127.94088806406509,518.565627394256 128.3428278325989,520.6742074332846 127.93027246568668,523.2203309005745 127.02789146425509,524.2049868521406 127.2971565540506,526.3917956211351 126.92182220578358,528.0848970232468 125.80032438451104,529.3842528441047 123.98010932992258,529.7611259993794 123.01567235081653,531.4711055737528 121.6904057589719,532.8668160955219 119.29733012106925,533.856330456963 115.81566981100801,532.5604957174129 114.14297428675222,533.0450348964147 112.89473050678673,531.7154326682892 111.90941325766985,531.2679796620351 110.60365309084428,529.7210685863807 108.68553888703241,530.6664734322344 105.95359598955118,531.3772388573115 100.73736948052023,531.993410423127 98.75430037604121,530.2843315048184 94.1469573881822,530.8751990895162 92.31187780093889,532.2092304729772 92.28499677043754,533.8167573558602 94.06606291702272,535.7128938237789 94.37409825653292,539.2800576904933 95.87543635939132,542.240865258111 98.16874356796207,542.8704339324844 100.54193560170687,544.0778288569966 101.39368833830112,546.015238574229 101.07935997786765,547.3376114730063 101.8536495044039,551.3002428713363 101.56224123425204,554.168351980761 102.27583589068287,556.3285836759246 99.75345293033641,558.2645849558478 99.0916466682905,559.3778726200047 98.52106109669018,562.2387615778375 99.05826790661686,564.7825217216152 98.59012342444124,566.8931973053116 97.79860549477347,568.168654810862 97.87387058459103,569.7215291696639 96.17758519220311,571.9661196157736 94.37895223953761,572.069767251139 91.95065404383047,572.5836493884078 90.6395178211648,573.790627924179 90.58840862564102,576.0264247344123 89.93324335328667,577.7583899080644 87.88315972068497,579.2125682627178 87.14798338463203,580.6750056272845 87.49320421102647,581.5484677866253 87.42938820171277,583.6800093964493 86.78687701882582,585.124735198129 85.48237612775586,586.9805721932037 82.28639839314856,590.7776333968739 80.78966825839524,592.0348822272367 79.21860220951663,594.7445464563314 77.07455878595025,596.9180785317219 76.27811535153862,598.0736768571334 74.68213070754196,599.4996120866645 73.29722054556854,603.3070506029942 72.49282027128977,604.1824504133788 71.32762552973932,604.343255931793 68.5531094319723,606.2407460937824 67.63866225564907,608.3656926855866 66.09439907002009,610.9157345021175 63.919789680876036,613.1511071710327 62.73384494730055,614.8306101875676 60.63844760690795,618.453620365195 58.462838184844856,619.9415459903635 56.37231919724967,622.2422510065801 55.80587813749674,623.8591991093706 57.39582724600238,624.797600966293 58.068498978367785,625.8885858334203 58.409492735687614,629.6112036826457 59.688989946767265,632.4311826672456 59.17158602693591,636.5776024431848 61.38350037136118,638.61693651488 60.09042590653358,639.4388267252585 57.2299661895882,639.7745681945312 54.31922653563058,641.3203607641385 49.23720396572578,643.0023565141983 48.00058491107469,643.6326708221385 46.73748972965511,644.7931346832847 45.873111247936016,644.628176426809 43.54549615325316,642.4934121084647 42.32427773491264,641.7796414441449 40.265942075827596,641.5405861268625 38.808178907533645,642.0269049798156 37.90009440406731,643.2907055448281 37.63314969912974,644.529415464059 38.1835310039617,646.4488203718157 38.073970997250846,647.7662547946387 37.19937314220232,651.0239612791083 35.615475837973115,654.853104994171 34.59405460086209,656.1587579612517 31.100690378368558,657.6514566539802 28.251369243608476,659.550221373156 27.132945771966778,659.6032709533326 24.197578067945148,660.6501997277463 22.838887327272765,662.1384114968334 21.996246615846566,663.5522262403551 21.076397054669,666.3051770430632 20.050208368802043,667.4511299115773 17.481157714744114,668.2840357626719 15.540669988256456,667.784387842144 12.360247649243586,667.8475502242877 10.873390233233577,669.5804856341994 4.642569797460156,671.0785869259622 4.28409529452592,671.6025357270236 4.503021345498415,673.5838847278186 4.2007511696944,674.7036766875157 4.214908401106346,677.9305117018714 3.468129414641872,679.0697698604031 1.595316344297365,680.3513310972846 0.44558150535694674,682.703593362314 0.0,687.7347670757538 2.4947817304356383,688.0011420150158 5.65750452395016,689.1940525596817 6.936064740345358,690.081630948133 8.282782609375065,691.5873522974213 14.002066775857722,691.0786535229039 14.658675520679195,693.1322874855495 18.159402836145325,699.1321371152886 19.768375421628665,701.122261162924 21.819474100565,702.1935676501402 23.984907155130408,702.4907579358509 25.997965198123005,703.3128186473123 28.492616707901977,703.9028566869828 29.611367181148147,703.8649159223658 32.2120266699138,706.0704323376724 35.63474526172402,706.8549308985985 39.14783328032531,706.7590758289671 43.37600525955755,707.0521419492992 44.731447023162715,707.6878785227889 46.74878183046828,709.7654461770154 47.879726114977736,712.4571070709583 47.2737863806511,715.3171705728082 48.5348821867204,717.4078846287503 48.91241055388385,719.0764198442831 51.01132367953887,719.5935196093492 54.85036165568069,719.2615079931647 59.592461283209985,718.2153330703874 60.7158031990933,718.3050927911089 62.08315838347781,719.3865984875604 64.25694334287975,719.6068571380603 67.81484947406204,719.2128864169018 68.55831205677872,721.3413423299269 69.75597084965796,723.7591205890778 71.45030817404817,725.3834785496324 72.80568473834056,727.1239693465403 74.188674238728,730.2320452652831 76.65448976153489,730.860047405312 80.75362868014471,731.6300547982008 81.36786844481622,732.081987838471 81.04660473614297,733.2113208484076 78.92635837637489,736.810534530789 78.61626238595743,738.7191603576582 78.86826418450917,739.9295557443245 79.89483303833235,740.6654757711887 81.53701047742388,741.1189473927525 83.50350850669653,740.5799013345246 87.25324381153992,741.8219175727947 89.52128115884135,740.2002526346474 90.46110441016164,740.4230140455894 92.07627707545667,741.7773977500142 94.07750659744059,742.4480343433718 95.79193445348936,739.9628579946915 97.14020713791531,739.1841430809105 98.66460123726083,739.9133431710903 102.01818749501197,738.8645538871216 103.54183823410396,737.7098155130847 105.36189682581899,738.5814949360471 106.47871361561144,737.7401119617647 109.86403146141718,737.8190566240389 111.19950193332089,736.6230975953856 113.4250107301999,736.0531945628967 114.85329130358193,734.4695556065511 116.11774362089005,733.6992987493556 116.34016370420572,732.3989603138926 117.51401777435375,730.6251449962633 119.95934769967076,728.7029794061463 120.82848739717268,726.4158447666954 120.34015134969547,725.3028670355446 118.73519947345946,723.9488378937798 118.46344824468034,722.7757697682172 118.99674542300396,721.1117917615727 117.15244976368852,719.719252226429 114.80840089761128,719.3847060335489 110.95827252505033,716.0302712754252 110.50806070108224,714.0383801337697 109.16799609976795,712.8664366401749 109.7693884010611,711.7829157402659 110.26042273879011,709.7039640689452 111.64138888512177,708.2877606864993 112.42115045495848,706.5413569062141 112.35044157712689,704.7586898978665 110.73305356962703,702.9444067941818 109.44322897987867,702.4590425454685 109.29645567070102,701.3136797978773 111.90968994661571,699.0990590618223 113.00127598000117,698.8416246788679 116.4038962064909,701.0666480489228 117.40991682209103,701.4230072954947 118.8257138876649,701.2694850114416 119.57779446850452,702.1786933721369 121.57169476742136,702.2803952458785 123.13926350059066,701.9714869823046 124.00511623576352,701.0538901435195 126.8292773279556,700.0652269858169 129.0658139647695,700.3193712028776 129.50304409320944,700.01246093614 129.47361379672236,696.0880331399753 129.13736803286622,693.3974174065921 129.41295388591246,692.5354568348881 131.65966345755976,689.136756444969 132.38063678862832,687.5276358445947 134.44809039801987,687.6807497914192 136.0814529561261,687.4893332154659 136.51336793802227,685.209087196855 135.43346895850624,683.3421694757782 136.41235477448683,682.0588049405894 139.23317592717322,681.713461220376 139.72605171050753,681.1924311157119 139.22372595738887,679.9592021072417 140.00817646440487,676.5957774252536 141.50662332964657,676.0608591591557 142.79547411974917,674.3985656226486 143.79342317870902,671.9725118778258 146.39792803293423,669.5312996099585 150.40869041765941,669.8617254304247 154.01024443999665,668.9560827820828 155.72778586879593,667.7717520482813 155.68063402020235,666.1479669244702 156.1055066741548,664.7067420636322 157.11938316475278,663.9299502299243 158.06311465312314,661.7931534716781 159.8243758529086,661.0689908734627 162.96975476893448,664.0767329246954 164.45900222420326,663.9578216081777 166.66528712534847,666.0179108571712 167.4699645869667,665.547946805438 168.94798031534336,666.1172985741127 170.98259830239152,666.2087726538983 172.91007695232392,665.4718622612256 174.34974229044485,665.444778126295 175.51208620216153,663.3703207085733 177.50078176225878,662.9409862995482 178.9748380090701,661.2649538683332 179.00087907366012,660.7271312860679 180.31061504035281,658.0356971052578 181.96391329223536,656.4686308057896 183.43828595591893,656.2052243904068 186.38098376142455,656.1562408426126 186.98805932368214,657.4238308300409 187.85437977797665,657.6322887233897 189.94582079836223,660.715262031497 190.40087827017513,662.4176159057922 189.7788482371277,664.8700289236629 190.7295538588002,666.1878361424202 191.6473960590048,668.4890627644268 191.55695232239322,670.684204118893 192.1181158582083,672.1342949160598 191.0211016696639,674.9933029835883 193.37875807559308,675.490869509842 196.15807956904737,677.2613747599848 199.41952391747472,678.5106086776444 202.91042804182257,680.8410342552995 203.9956165265725,681.0891816918622 204.05414257579469,682.0019677287344 205.012198618151,683.5232163116988 205.32443106369539,685.306315901028 204.81150097655552,686.5466882663799 208.1299222876372,689.3371202869591 210.51107399056426,690.9517994598954 210.68303403349768,691.8320846294349 210.150236363356,695.5384362044933 208.95494267177347,698.5764573420905 207.5481529286394,699.7604168362498 206.5208675131789,701.1444335999782 207.4658611352512,702.5689918907751 209.55725166495614,703.8224412233109 209.946751929052,704.7339937516639 211.28414093377174,705.7305343986278 212.39826995891028,707.2858783782713 214.01153762761615,707.1083337729932 213.1751002508868,710.0310989773998 213.6727977360652,711.408534884365 215.7641804783147,712.298380156341 217.15310446487499,713.6642713382877 217.77577874118202,716.4442574329114 218.76020136247652,717.7995651602669 219.84630453839642,718.379642410403 222.26248211176122,721.1220936891211 224.74255452755258,722.174761149376 227.13442293342564,724.4184615128587 228.64242799964507,725.576745219313 228.72503851584003,726.6106701217698 229.93569191207823,730.6304078253984 230.25436704170139,732.9513973535646 230.8101662896282,734.8791666634804 230.8797964924545,738.2138498547557 232.65164476002312,739.5075725035334 234.6567777257974,738.8874944436182 236.28869244945395,739.6784615662419 236.80178100607233,740.5031268157499 236.5660949732042,741.638312371091 235.57714584065369,743.6050440824848 235.4261729966726,745.1464113700448 235.9619094888994,746.0534441172456 239.58425040085402,748.1011709807597 242.52932586121784,748.3681343166132 248.51027377001824,746.0452716623419 252.44829647120562,745.1536106653094 253.57400959701027,745.3157038366892 256.5601321993648,744.8927408158723 255.77683767190467,748.4658821185681 256.3877539786025,750.483492483884 259.377819879416,751.5054843324347 260.70101776307973,751.6916518837177 260.21499521040136,754.1212123725455 260.22372439942944,756.1269452271922 264.079982357334,759.325728730368 265.5008214936785,761.6744602385236 267.62987937256446,763.0632289645257 271.04051964292677,761.186908326132 271.7315568304137,762.0662979156124 273.75007229132376,761.86855409038 275.4421380379771,762.1952161481811 276.53380642342205,761.9190490443642 277.8493303391196,760.7969064218975 278.7299997521614,759.0582491400239 278.4844920518526,758.150136298871 280.8382091069586,757.7445067953948 281.22270505437314,756.7253432539846 282.83159848770947,755.3740470927476 284.73531821945613,754.8311402105721 285.55868706332075,753.5945771382127 286.70449115435764,750.6903643154933 285.15747711818887,749.6778944274807 283.85038794553435,749.7030860161835 283.14320658435827,747.9614946271437 283.66893966144346,747.18817492827 285.3247601953579,746.0089957657829 285.8561389508322,745.0542903943 286.7383702877717,745.3905314125229 291.29104722625226,745.5982433010355 293.1243233332057,745.1327573554313 297.220021681533,744.9983065339113 298.1855042493242,744.665287721031 299.7930871716563,743.2909432435914 301.45384595165604,739.6370249657986 302.2705672514869,739.8607793549379 303.4695331436783,741.027145171846 305.75698063439074,741.826335239957 308.25253122674684,740.9763365797512 310.98512805182884,739.0748056550266 312.43450298997635,738.6056707897213 314.0782368639302,738.7354974426987 316.5552502608132,738.3031655525388 317.95722767935973,740.3096103447444 319.26080049093474,740.8447231635457 320.9108414609069,740.5050198062323 325.5161983658686,738.7479772083948 327.57107044864586,738.728662335033 330.5129946198938,741.5201523359165 331.30679401936607,741.3441433248396 333.5720050179284,741.7570077831725 334.84897322621134,742.7456789432426 336.6849739425814,743.36937088411 337.88808896242824,743.0131766059434 340.13414327126844,740.8302883578123 342.1206610934697,740.9647888391005 344.0550779560318,739.7601994452323 344.69583162873624,739.0280177192535 346.3271443946123,738.4315856392674 347.96175294261496,736.2904632522931 349.07915238607353,735.8537314227001 350.6227462944496,736.1002033498605 351.8676319976289,737.6957631789239 355.1062657087225,738.0316486601415 356.4681770386977,737.7833116289086 357.03838758749964,736.7889958203332 360.4657776020818,735.86958313053 362.38014993413117,732.7656560386583 363.70653530652686,732.0652859843186 365.5619051056718,731.983257283695 367.31063796221304,732.7976891024418 369.10157010258456,732.9667918696015 371.821042929237,737.1864625080694 375.09928001908423,738.7238896476715 378.6745149134688,741.4467275411387 380.8648189023425,742.7471091243943 384.1830799145752,741.9885974972356 387.9785759906225,742.1841877073057 389.5477243306479,740.9674300130005 390.82803178610396,740.7372321965947 392.6630844310451,737.4828615496892 393.0204977420108,734.4133245234268 392.32856750804604,731.6355893630271 392.3427330899677,730.7797657471691 393.4149155695387,731.5173222934968 394.5222708528116,731.102807405337 395.97305848690286,728.8078298776259 397.51708615037285,728.3941874871168 399.5064680902112,726.0665234059546 401.657259452984,724.5436085163415 402.53203156471676,725.2798990596126 405.4214386476198,726.3733659687275 407.7791892773535,725.1466087833652 410.25017078584636,723.5903083566901 412.8698212963485,722.4443355090976 414.3861233006546,721.2146515397851 413.4140463558367,717.5077946599685 412.5129595476464,715.0326054126308 413.4853137040068,714.6146238822791 414.7161598985943,713.2346163668595 414.6547083207736,711.6779460417468 415.59493198131014,709.6418917409396 415.3964731982721,705.7975241099174 414.37104098573855,703.0168542269669 412.41500851874054,701.2568595179282 411.9508868996211,700.06932777419 413.00418401029015,698.0220472104488 414.9294007320807,695.9925609513597 417.18287682067285,694.7914572268107 418.2115823617263,692.9347326404885 418.1451715806867,692.1872286989793 416.25436267069864,691.7724841921829 415.55105419461296,690.5852672041777 415.55225845798725,689.3447468919042 413.8911835357763,687.4101059694195 412.2360123936491,685.0135644814281 412.28632237787497,683.3777223171514 413.2829753697292,680.5696408078034 414.47254090777074,680.1369391213995 414.96960490804037,682.0115698050929 416.5542483996365,683.5333946981893 418.38062507962354,684.4938872628836 421.9618854996058,685.5336443154093 424.60480400325,685.1446526064044 426.2675880833632,686.5116066541009 427.508193365888,685.7447634773234 428.79032065635823,686.5794672358428 429.79565109101605,688.1276711167792 430.4954296231822,688.5662611220133 433.9894311002874,688.8284024706018 435.79341890358836,690.3652290182537 437.0398365798264,690.407048119677 438.4886021503935,688.1207696681336 440.84526867498016,687.2325660715164 443.2252242525004,687.9939329631209 447.2996627846663,686.9880620336896 448.8836698285635,688.4639201267239 449.8025839884264,688.3200757697955 451.33059278111114,686.2261033742626 452.97708981037897,684.5973844324565 455.12247589175746,684.2388954497128 455.87815493498096,682.6322639972498 457.635933094912,682.4603033554067 461.9772894013826,680.7574553083673 462.6169252729502,677.5667191037139 462.15465964037236,676.1453190768223 463.209400909123,675.1337449711051 463.22275431635927,672.7438941878816 462.8772864444582,671.0834218169463 463.2881915462072,669.7460464767556 467.5044036099194,665.5658578982566 469.93620138583896,664.5014514950929 470.59107470564715,663.3143951966116 471.45821860908234,660.1094033255744 473.04139602904894,659.3830033079186 472.8013653425316,656.5561199878763 472.47447717105314,655.4775800662717 470.4161108401812,654.3979419091689 468.6626178588783,652.8311984633254 466.48666898055774,648.84386691591 462.89618596123245,645.6525616996325 461.59629103432957,645.5299961461486 460.85497907849765,643.8461015907308 461.92790146324995,642.7443605203396 462.8276866585326,640.8242439598247 464.05664103525316,639.7700905273429 465.5983402775953,637.8208416452385 467.1650050730924,635.0843033897702 467.3081199405012,633.7871520838478 471.5690165460302,633.8099932008653 477.5839275538056,632.965408125467 480.167553839871,633.6710614070245 482.91077693388735,634.1684153230574 484.2824681713047,634.8706728440947 486.0590968129404,634.6972526065399 487.42584044841715,632.806244540914 488.88150899230055,631.4041095196138 489.8897983935482,629.0559282733452 489.72720999286565,625.7819578078825 490.84523954508444,622.3803736697437 490.6706086082592,620.6019987124865 493.6260396110649,618.8089806258744 496.0267801144816,617.7898555051805 500.21796148806754,614.5639000430315 500.90475700365727,613.7540376986068 503.7442599162198,613.128518859766 505.42051885116456,611.2351361618627 505.0247908182393,609.0716400745339 504.9622524724774,606.935593794777 506.15297715742383,604.4697426063964 507.3477647162942,603.3479150237406 509.4726344906042,603.0788411346814 510.93761740197215,602.5906618991291 513.0933672857532,602.8943432291416 514.3573928113956,601.9890074654949 516.9402554685894,601.1678078424967 518.1501893456203,600.188737007577 519.5007153779541,599.6967486610611 519.9807138842287,600.0880322177597 522.2771521045514,600.5764566592338 524.5688134066655,603.6325765514987 528.1817681261979,606.553503177662 529.4601884456102,608.4674470996213 530.2925390989759,608.5519792960325 531.2026866475478,607.9077593442554 531.5648530431192,606.6783203036912 531.7502998497408,604.2466929695631 533.300270716904,602.6363378214004 535.1065471623152,600.3222970372061 536.1112491098896,597.93024111533 537.0736902277481,597.5937434935835 538.0066208874415,593.4132572413305 537.7357407794292,590.9823038140939 538.7890775395438,589.0955580126445 539.1600420082729,587.2464933721644 539.6707622566612,586.4358200498423 541.3394521043438,585.2742298806559 542.104810137806,584.0393339100993 543.9069862572389,582.5331969529996 545.1134750280428,582.0758799594311 546.4252591535867,582.264347295725 546.7506342278836,582.9941963351162 549.933966759375,584.8468395682258 553.8274222374141,583.3063476054674 556.5485888359766,581.1333924082924 558.6245620235743,581.2571527682484 562.0737265262144,579.7619137470831 564.2114287595697,577.5184384279629 566.2363860331218,576.4656125105553 567.2931017345534,575.0011512914493 569.3529966454585,575.5405112970615 572.38565571782,575.7737074959983 573.6152270927626,575.088487456266 575.4271549808085,575.0699810522514 577.3364044212719,573.1135348831469 579.5629327796512,571.9247924926257 581.5975955330849,571.4526680556862 584.7897990820801,568.5832109398037 587.5893521470123,568.959907493849 588.498229040629,568.3084148673579 590.8079227022951,568.2945074208546 592.40982682087,567.6183763968738 592.2888282377558,566.83721996702 590.9830025875282,565.9308701395188 590.7019640942971,564.1282625992075 591.3754620552177,562.3975258239982 591.2531456049559,560.1059329097371 593.2557885216767,558.7660357372787 594.3116601055943,557.5730062133214 597.1019263489317,556.8394030153822 598.3701715344126,555.2233615754843 598.5116496074494,554.2516080227006 600.5270785622528,550.932261595279 600.5960241733053,549.979268019074 599.890836105629,548.1917896742943 599.004064772535,547.1282605731989 599.6758437682352,545.6542534749088 602.6904020897259,545.1163073210216 603.8332722959419,544.6374876721874 605.9564228422839,544.3502204839162 608.2383595398892,544.4574971224965 609.8425587676176,542.9888737223102 611.5386138882977,542.0671807756863 613.3221411807375,542.7132560205735 615.9866400850253,540.5105588703184 619.4118909187372,539.2849310913375 623.1270045020752,538.9474703551789 624.7374944636384,539.6750039279789 627.3894548448901,540.2819036102002 628.7896918340505,540.0803801958909 630.6400674570325,540.8368975454523 632.1254461541869,542.4146948459191 634.338357431214,543.7687316512802 636.4119054652738,545.8236824812755 638.0937458891816,547.0921515784088 639.7713399774889,547.9528838064901 641.6021291040099,548.1811401409668 642.2917879283741,547.7785064398421 643.3207595875258,545.6037407072691 644.8471955391284,543.1390010772186 645.7562840382203,542.8038937399207 648.207830528845,543.0169839191883 649.7602805682751,542.7113147939295 652.4327964584004,541.3085165135345 653.6442777961179,541.0227172071494 657.3342196328183,541.4018581185163 659.020858742629,539.9505714646008 661.1989381921175,539.191275837527 663.07488662673,538.9641144253006 666.28160678335,539.4284108128336 667.3919013941065,540.3545636595322 670.067365180287,539.3275134828973 673.1241901128309,538.815079022016 675.5418637766493,538.673434642495 677.2753936047164,539.0553692616458 678.1796553220555,538.025098195659 679.3005501446097,537.53067482426 681.2127407683208,537.4376354036112 680.7467042672931,536.3077801056062 680.6316555704353,531.5016798546919 682.7190238652983,527.7474325557394 684.0886208611728,526.7009903339972 685.4622465300088,526.8758445237622 688.4533199663371,524.621360278463 691.6818761330526,524.0121299646052 693.0846609790405,523.3030855866137 695.2001927589977,520.8767320147604 697.6169822733357,519.9034133048415 697.9992690638875,518.2059032684746 698.6281239605908,517.284798743602 700.7313203169886,516.2247939802539 702.8424228242226,515.919772560062 704.3366861361037,516.2947765682017 706.1863157796789,514.5350730498787 710.1021160326135,513.2108966705846 711.357658263063,511.9037268822474 711.560964981929,510.41672733543066 713.0480755738896,508.3832928799802 713.6225317504981,506.8522153862262 714.4654596344785,506.14200044345534 717.2808747382298,504.7602472166199 718.9276756171282,503.13721755300884 720.0014623912084,502.7797845775322 722.1156182032837,504.5199792369517 723.479721613575,505.2835898456257 725.661772243503,504.6730245892779 726.9286002108277,504.7916790773884 728.9853284161803,503.6051494077984 732.3165145720409,498.8754013425923 734.407854616421,497.2492640339527 735.4569724215418,496.79538331832424 737.4390308756376,495.27901073727804 739.6183997486622,495.43855709951447 742.8169368604657,496.01170304287723 746.0592121849126,495.806078537175 746.9883227003933,495.19791956994044 750.3271619093279,495.3575001766393 751.8905706274983,494.8234428909911 753.3673235996127,493.10666149900527 753.5302113169579,491.1310554614326 754.3545238000684,489.9451039316265 755.6830891848832,488.94287658456864 758.2063985427534,487.5423463554415 760.4938206730799,486.7226366673011 763.3572485892097,486.09350723666284 765.90975603958,484.917103246623 767.7518818581087,486.5594842539043 768.3072340352267,488.62863054585205 772.0374167453463,490.6445531590337 774.0438403327425,492.7726124500562 774.5503785863002,493.832413161868 776.2498423009106,494.6954999635662 777.8219239043873,494.93750568375043 777.9046709928455,496.0286168118859 778.6257735867207,497.548540474253 779.4468767673703,498.1958957582689 779.7751813000922,501.0819767568312 780.7263422477536,502.6686154682178 781.2214013197913,504.2425058727693 781.0173061797906,505.6694377847346 781.3714717187246,507.36203930705926 780.4173162472964,509.20296609051 780.4708152605909,511.67005893603664 781.6567448828714,513.4441131667844 780.427853008338,515.1444723105878 780.2526248936745,518.691934432893 779.4322440732449,519.1614804667709 779.6050305353399,520.9667886309994 781.7948866780117,521.9178633087355 783.1396178076952,521.8738950600912 784.3934643994081,522.9816251983661 785.2740583640348,523.2640546197555 787.7919867878592,522.4961885356743 788.5479499938656,521.9610273127264 790.0580351205197,522.7264338131318 791.5153024344213,523.9988977446714 793.1853023675968,527.3103641080921 796.4886462569981,527.5836040853374 797.9231883110552,527.9891566722808 799.3828836440472,527.1699075495504 800.2538168380904,524.7804446573219 800.7728305140935,525.0852618587155 802.8706760643847,524.7021256557645 803.8116378503119,526.2737958266208 805.2010281204589,526.8622475448202 806.4512628952183,527.8639907623365 805.4537671154941,530.7192540905132 804.531621600593,531.5103165469252 803.8626212214207,533.5067659082167 803.7682092693693,534.8097635333811 804.5903472293276,536.2575961997021 803.8432672377257,538.6282978712436 804.1628988976106,539.9304180681432 805.1767103144925,539.906378203857 806.7199153449255,540.9723624559144 807.569816267685,542.8648058875067 809.0646803220865,545.3603972567385 808.7085614316937,546.5904269807961 806.8160767423363,548.5597247741662 806.3777695442805,549.8080207190567 806.3169471494725,552.522389249089 806.7720311781217,554.3934036963353 805.4955245955896,555.409658042314 804.804991683326,557.1058255685889 805.0059454935202,558.0196998204585 802.3480246319241,557.6085432574553 800.8827020482455,558.0276361910753 799.9221142613385,559.1686548387665 800.337206894031,559.7343445866833 801.5535922543244,559.8461102468013 803.1897871674595,561.4374211910933 803.8795656194338,563.2011914691732 802.753506224439,564.891460513563 802.5243537287731,566.2082705552216 802.8723410296094,569.3298938862403 802.6750730663001,570.6605815667386 801.1978794023369,571.3218513120855 800.187186254345,573.5903727462556 799.0982950090299,574.3726130374871 800.2967313452372,576.4351956731475 801.7543889903974,577.6859434545772 803.9990889293309,578.3775221001156 806.8197047166444,579.773099918922 807.8341067275317,579.749048668927 809.6913561011337,578.4675360877717 810.9250624668002,576.062890277353 811.8755289177138,574.9070096356547 815.2506995438589,576.4318840190218 817.4346784858164,576.362386973974 819.0445363505803,574.8484435522723 820.2680821408655,574.5970122275811 821.344489994071,575.3635693488607 822.4047124141027,575.4432820455365 823.800929980762,574.8526850968917 827.3034669882444,574.8449497475567 828.15326161827,574.3132871644144 829.7539687807098,571.2280763245514 831.0796703860717,566.9523517263083 832.3391606712378,566.3064504015063 833.8955000909683,566.0946668941618 835.2613506305062,565.2481391819966 836.7356860535501,565.3265653460585 838.4674321579056,564.8283033796573 839.9532759146883,563.8636662966156 841.4242938138373,562.0070412119491 847.6342130938157,556.2855383217438 850.545487960161,554.6981126513111 854.3110434669776,553.4849259682786 856.0802378872006,552.1083490132911 857.1877977749773,550.5160140125688 859.4192622398973,549.5668761878303 860.3067185912593,547.1067848158815 861.50144063926,545.8735627716846 864.6193639788291,545.6069913175266 865.5810195726825,545.8258853731697 866.7869497730069,545.1436303154073 869.0551216432336,545.9227921770789 869.9480351861338,547.0056135825537 871.5385941575419,547.1617723835599 875.7509975438654,545.9976506235955 877.0386553120538,545.2893023799049 879.7232544877094,544.5405899620603 882.738000144392,545.0781253351646 884.6099495583209,544.9885875161997 884.3773423309171,544.6200822481849 884.7573727437315,540.1021067201306 884.4602424793296,537.8484643492943 884.6494513020184,536.0956993350535 885.4864615459039,531.8703614574447 886.4012444067325,531.1766447301129 887.4459100578613,528.5360588155124 885.8958131229465,527.065170282865 885.2839360796761,525.7522650472505 886.2294525603867,522.9656139155621 884.7412042674836,521.4695822728073 883.3861705035578,521.2590760816771 880.703079972594,521.7586394513751 880.1542497241137,520.4507492026544 880.2037436668988,518.0548859489298 879.3678426997541,512.3947750898484 878.3649806202654,509.3078783003367 880.092750392048,507.69904510664213 881.0497246289617,507.3059011469742 883.2111051964788,507.7487713727751 885.5055449024093,505.55814586213467 886.5788214817013,503.9298656174528 887.8068553621567,499.41145292065914 890.1998460977933,498.9155530463142 891.2429924009425,498.0881607352636 893.0831071746744,498.5208634906874 895.7195540812253,496.37661313165285 897.5488653171936,495.25430760124476 899.1128826332675,494.7534777077077 900.3848473955344,493.6836291994518 901.5932882679365,493.35564781681126 902.2408724873648,490.1445492288868 905.241998768908,486.24966117382246 906.5127473216077,483.09550127297007 906.8434496362901,482.826409409663 910.4810268428379,482.423275711628 912.4226380956081,482.82760683372925 913.7503789458157,481.8761129669785 915.3888611641976,479.64381573957286 916.7691657586321,478.9621348335326 918.3751091048787,477.7197625774739 920.693050253088,476.9386287098426 924.8741231293229,476.9283048328356 925.6306339227324,475.6672104015897 924.6784474111354,472.09089820513566 924.0742807279988,470.46281016783814 924.1920314676337,466.97813554445577 922.073616264591,463.46408101740786 922.1307047015099,460.7827624166792 924.5090057351707,457.41928349128636 926.3896103904174,456.5886624520911 928.7772133496818,456.25770145008585 928.8775504936513,455.42358598099406 927.4411077168514,452.9009879841314 926.9404274123641,450.51532348626 927.7069419332504,449.51065822782965 929.4066898590664,449.0790779582725 932.5236939553375,447.866737145121 933.6681052728193,446.75598187239103 934.2819715956574,444.7848933771108 935.6790054220214,443.0151131746754 936.7684671990966,441.0699910551919 936.9284395878312,440.16542261102546 936.4606908177643,438.5772172954181 936.3856526552461,436.4754357150073 937.8242910429758,433.95802794102383 938.2190942112345,432.7276295674265 938.0581540187725,429.28655865039417 937.8138296176882,428.86689978581455 938.5548965415333,425.7291203935951 938.5868932027245,424.74015961621785 937.9090814310432,421.30501706164705 939.8790760568475,420.4109095771698 943.9364813726634,419.73275701969453 945.9772274351311,418.8042729178231 949.2958075933028,418.2617388045424 949.9192651119059,417.82066831261864 951.3325500813909,414.1964306801489 951.0852735473087,412.7050637835811 950.3219872546755,411.49279024803354 950.3260595694876,410.57187188297775 951.3282845530276,408.54039729907583 953.7630041552417,405.36432568813296 955.6178388764669,404.2024028539979 960.337316214467,402.80194999720777 962.4465083753139,400.52834317733436 963.1131303589741,399.15163175084245 965.3470886751849,398.9010763128186 966.3596640634408,398.3844482482675 969.3398095991259,399.95863025827373 970.8372002250617,401.15557009819685 972.9242053331141,400.37649500259164 975.6681524690156,402.4642766407968 977.2629052834798,402.2634773669785 978.7903235970491,403.44390719285866 980.0934496643322,403.4504815111672 988.0933439809112,411.0900908439246 988.9007394863997,411.373979465265 991.7500230796443,411.48892534928433 995.7102807048294,410.7296079191558 997.142328136901,409.855041224627 999.7092755148465,409.8993532167153 1000.5698203311314,408.21944300671004 1002.3535017364059,405.84471410941245 1001.3298921952959,403.1270779615565 999.832746996066,400.94947456408227 999.9786322369723,399.73003921354893 1001.2809239231046,398.484015306289 1003.4467220222168,394.6165356024212 1005.0659764470405,394.526312717023 1007.0353312898412,394.88130468291223 1008.2828133909408,394.557161953257 1010.2100454821518,392.4255351735674 1011.9486915682126,390.9883078376968 1013.575202734196,390.076053990861 1015.977555299937,389.17659607326385 1017.7838413610207,389.1084498802246 1018.9674702548647,389.4658005545397 1021.2496999834755,386.4520591398095 1021.7217192346146,384.6380528437188 1022.3559366256991,379.31088645586897 1024.0,376.6109652812988 1023.9525621215067,374.01234150597423 1023.1668329876844,368.58719964837474 1022.3612391794471,365.1697586599762 1023.7882563923627,361.9736970213281" /><circle cx="349.6129010624333" cy="329.4405604104375" fill="rgb(100%,100%,100%)" r="16" stroke="grey" stroke-width="8" /></svg>