<?xml version="1.0" encoding="utf-8" ?>
<svg baseProfile="full" height="1024" version="1.1" width="1024" xmlns="http://www.w3.org/2000/svg" xmlns:ev="http://www.w3.org/2001/xml-events" xmlns:xlink="http://www.w3.org/1999/xlink"><defs /><polygon fill="black" points="558.2899045783654,283.52896043771636 556.4318447615972,279.5506965505264 553.3304837753781,274.4729086325174 549.4391092336485,270.77582352552696 548.6187507266538,269.3827886510555 547.9141215744352,264.88890701086746 548.1893547779122,261.04245232782205 550.2350961783922,256.54186831786296 550.5020097440857,255.15837106733136 549.0593367015781,249.19161057582073 549.8045195186501,244.37936340272523 554.4397897635904,240.57235845136773 555.0463868191524,239.10342453976904 554.8146675676255,234.4786200768457 555.9187598288801,229.48174065541127 555.9261946487532,227.12061042538517 554.7254627358209,224.59440021577666 554.7011452086348,222.42790656985966 553.6500577138296,220.30138312912453 552.8050895538921,216.6613854603222 550.3968014726223,213.76383952138616 548.021730521212,211.71392416256015 545.9936587284466,207.41230042832768 543.205501966719,204.40486009219183 541.4410979262841,200.5364444939404 541.322188493344,195.84706973941383 537.8312465968665,193.67399784634608 529.7547819855916,191.70801680549891 526.4124522993432,191.42557982006917 525.5746152716258,195.05267304214516 523.9003979886317,196.7206603350785 521.6658408338546,196.44047076855497 515.8164944237448,191.686135345011 508.5181618851743,193.6065492653197 507.96198716650815,192.63403856742968 504.88836882056864,192.25271398433512 498.0674711935146,190.9476779642144 495.36507216571016,191.64664598173835 492.66573243543775,191.81249477555463 489.96285901584815,191.2528009517713 489.24128018326036,191.60411557776087 487.77629011652897,196.63802218706445 485.40531031857734,200.59468707536462 482.16803416102147,202.7350899866699 479.81134079426477,204.8888047667341 476.90343282423584,209.3666074221951 472.24274161441525,214.89264718965404 470.84433167099223,217.8071284173305 465.1273692948498,220.77585363073803 460.1025434935412,223.00193170800708 456.625521139059,231.72077795757286 453.79453549195506,235.35771126740934 448.7990830173519,239.04474189299737 443.7839875723622,241.27045930853484 443.1144330436106,244.17943146786325 441.7199579559133,247.80161566903456 437.4269083385725,250.74728240718264 433.8299481782103,251.52469610545035 427.33001321329704,250.89858088964814 422.98519215520156,250.23617498912364 421.51935862250883,248.81821622695225 420.72016434514387,243.7771471823384 420.6389572682583,238.72322305465656 419.81287434889566,230.78374614821894 419.03322144302274,227.18372939290214 417.5152447364363,222.15168153250937 416.0360105748976,220.00679914794017 415.27019217995013,217.13361538897033 413.78986715043504,214.9886994139821 412.2838224293347,209.95668496895792 403.5770641025599,207.1986066784632 399.9270031327533,205.8084050091437 392.6213619062104,200.14962483982947 387.5589138345962,199.50650791319822 383.21978707894715,199.56352770246383 375.9725974841804,198.95657671802417 371.6186226060514,198.30653559461757 368.01813667593524,198.3632874810429 363.6141582596721,194.09892975001804 360.63116373924436,189.0949617781041 356.9880388802909,186.99093362504573 354.085656299773,187.0396640753848 350.4707509307598,186.37543226942165 348.248588572779,183.53053860910768 348.20307710959327,180.63188444490032 348.8802979733582,177.01786534306706 348.1304284556415,174.8661696705501 340.00405376984867,164.88615477505755 339.2146630566321,161.30064063586974 337.7007825179089,156.2765238235312 335.4909486275626,153.4252434706998 332.5705513515537,152.02742176251115 330.3596938676852,149.1760566444774 326.67942833718257,145.63126099547026 324.4699751421282,142.77353297883667 323.69163251617135,139.17543917282114 319.294227319584,135.63911226685002 317.1022215952687,134.23372114148287 314.89578073182435,132.1089380087751 311.94034133345457,127.81839585408545 309.73515623373623,125.69983445584808 306.1007050345841,125.03565687022058 301.7802421595384,126.55681063100405 298.16136683351,126.6105842857852 294.5544004020274,127.39871628858657 291.662203596354,127.45271194937789 288.7569349283795,126.77346905424542 284.3461950632873,122.51681594253319 281.6508341920953,121.18678045407523 275.1421371384705,122.06087903009666 269.8949007362985,124.03035558957549 267.0003104708844,125.4695861196085 263.7298708814863,127.61822302916903 260.66395088699113,128.6848154304738 257.77007358283925,129.03497703263656 255.96866911618636,129.7511829179764 251.99049713519628,129.7276880123951 248.37629267542022,130.25828124903262 243.31252385646647,132.22115896953824 235.71390524597993,134.34847712499516 234.6309426320183,135.06499509010712 229.94813029154156,135.7598447886554 226.15206078131737,135.91856307950832 223.09368965784765,135.1763818632428 222.3226196050094,134.3290386045387 222.28168237886433,132.155792305839 220.814947023408,130.0103928059483 220.78202637470883,127.12425191450586 222.17008977466458,123.49222178397349 223.58861797444953,122.02704333304848 224.9870671543153,118.39509415499856 225.66109152945455,115.49684854618886 224.89910708598643,112.61128628505367 226.24234706572807,106.09423341258594 227.63008178458153,102.46971066264814 227.59713349402207,99.57853972452551 226.12016442998157,97.43306730194718 223.92942250087918,96.0201258252647 221.73513007494512,93.88786158856772 218.05472027820815,89.61621027699232 215.08966837355078,84.5918551165538 213.54987968898482,77.3969858974774 213.50550279804298,74.51196647026916 211.95548542227456,67.31067948269254 208.9875196819613,61.566878822128615 199.4925642293729,54.483313593057574 196.88945234596827,52.34040235669397 196.49170577276612,50.031598186322526 192.96092098344448,43.240787051212806 185.83766315689533,31.764533052490037 182.02562406570883,27.499445103890366 178.4784156752023,24.607516961085025 174.17213587644437,20.68693003589749 170.03480957767457,18.29321724406259 166.37344672454918,17.55771386406434 155.05228858729566,14.27345423010081 147.7032222398815,10.35561982405045 143.59196961146324,7.511301995097938 134.7735714695732,1.9785217982050654 130.63400683000634,0.013824803661350415 128.82323947807646,0.6883118618679873 126.34864428145966,5.1788307920035095 123.14135464450524,10.288089083949899 121.32812399418775,11.190088071515902 119.33194395545206,10.060588205021077 117.0622720709687,9.500430533669487 114.75677413935398,7.439668853747548 108.53221312132494,5.870549815424511 100.01543309290743,3.128159384090054 96.80642188878285,2.2549512871941033 91.32716385573552,0.0 85.32990270336929,5.139985084742079 82.92714816165662,6.640312364786041 77.2631913180142,8.355504826485685 73.32420415235958,11.60770687953584 70.85662542252318,14.384845553300465 67.49482467382215,17.29339386931497 60.41000313563754,22.561988450521085 54.2938239335109,26.23470548945363 50.38063854224973,28.94847813291858 47.95034027406487,31.00640785954465 39.03424014959102,36.72001339100689 34.61436126239409,38.87095379520463 32.304756428405,42.01900670934401 30.06497009504267,43.53423110004337 21.59610761866045,47.48997609832975 19.037370782869367,50.06426015720422 13.148280597972377,52.47549085740138 8.624112056175372,54.617133217055994 6.913492990626049,57.328722599067305 3.0242329132074888,60.59383198038665 4.734407551983123,61.681348474340325 5.229551246910172,63.25993064319937 3.7402825321807533,64.55537677865368 0.3702131978448634,65.2443163599188 0.0,66.30920825230123 1.2756048546494794,69.67197274800264 2.8601874034327337,70.96688860497977 8.294806610870792,70.81085697662058 10.853921932448129,73.08331396179403 11.713862571274984,75.06949164442631 11.778770281694722,76.71129734895806 13.237117537726265,79.24845630275206 19.51782083427425,86.28932441330812 20.459523433985343,88.37692756284912 22.99015128272483,91.38955463600439 30.972926253357013,97.467333983103 34.767883210767145,99.2357463544464 37.47097684251219,99.65441783371045 42.29652189689489,99.02672145780093 45.361018393463766,99.07939535720641 46.678072380070326,99.63159175424312 48.38949476297243,102.64139384227849 50.38633454828121,104.7676378455833 53.72448770646518,111.99848503146677 57.14938672041235,115.88892134166178 59.65652192450572,119.35212606396215 63.718520157024486,122.15884209762021 67.14211912019859,125.21404075526777 71.23105829739903,127.36190419540708 73.50971903865307,129.10094968386136 76.42019811859572,129.34004858516107 78.67004367623824,126.02101749617952 80.79420909633787,125.82053405317083 86.93705390876839,127.82084208925778 91.73594883980718,130.7225031812859 94.96270637266429,134.06554648961423 98.44461872973277,136.50826089459417 99.37805414487828,138.50219327548018 99.36775846508444,141.5427158796649 100.67629126995975,144.89858905702658 101.7858276108612,146.76604591617206 103.83378304836573,151.97421796154958 106.99089137751784,154.21848023521136 109.40331009019978,153.99416309511378 111.71464789851937,150.5470927223032 114.54759830444684,150.31442341186107 115.60880098830717,150.88355740256793 117.43156664850052,153.19576416023096 120.55268847319161,155.90466634516372 124.19350467668157,157.91835157775802 127.91376375911362,161.18520693251253 134.550638425959,163.23016747773306 137.16798410996697,164.9918133317094 139.64539064979405,167.58571615423278 142.13771000554928,169.6289540835363 146.84548106901647,174.74240963851383 150.9621662121286,178.52319800975863 154.23363117539827,180.62178455516352 157.34860799216747,184.056690525338 161.3922148498641,189.02728506648015 163.57860452238293,190.96025650463594 167.27878819232387,193.3381872361142 171.77836433080995,196.7801589646951 173.43186175092916,197.71058594126845 178.8254198053207,202.09668124038654 181.74354298028945,205.85357335428768 185.47280451576484,209.4888019627477 186.4401319331178,211.26117242102242 186.68464344703244,213.5521060469913 184.43800411273125,215.5886390011782 183.9430049933671,217.95283735434725 185.3164293280111,220.2673591693055 187.12265025844349,229.7183013945176 188.904647188045,233.1747445023655 190.45556264489795,235.11370290567527 197.38022689235027,240.53751256272022 199.7872725400017,240.9719577195263 201.81771493308744,239.97554792384727 208.53188082321097,237.52280502765672 212.07767245935509,236.84387388256442 214.68297164011747,237.01720972631114 216.5734866935461,237.8425652154275 217.7204118679616,240.14078786297807 222.61024100811144,244.93295504600223 225.19165834341297,248.61159085147898 225.33166803173708,250.06650234075255 223.80236141694948,253.39670328270108 222.136761895157,255.85671615478884 222.10546866886813,257.0622869300203 223.28922569568945,260.9024052345683 223.4110585113475,264.2684247549103 224.6631960493052,266.4418364708578 225.93922771607168,267.20715325322163 230.40308172542953,268.22524006071103 239.83750459645842,267.95721650542225 242.09173253718498,268.3292431832781 244.18528817435248,270.421127195791 245.10880861023512,272.61768983936054 246.98862347963404,274.6408851962841 249.2567900721165,277.89366386260593 254.95253615452316,282.34903724361885 262.9924513604991,289.6060689515643 266.5787610554775,293.57619995910716 270.89325110543973,297.7365424975651 273.06992557217256,300.8799735455737 275.4345887077376,302.73250019296523 278.9042525123767,306.0084401874996 283.27448631339763,310.76871582778375 286.0086990194348,312.6508654953395 288.1984197074664,315.6936006757323 290.5652598767466,316.06597330346654 297.00513239495535,317.9149875893306 299.79460457937444,319.3874964920041 301.8503027152775,321.298440381836 303.05397099673087,323.31483040577217 304.0611161374122,326.5692108964258 306.9695164953861,339.98017956591815 308.8065447477258,343.42430132143 311.4978190579393,345.50175676667516 315.1676772788788,347.29873165598997 321.12327650657727,349.4731073025401 322.584068773473,350.2946095471956 325.2012288909017,355.0983968956064 327.4860248851497,363.7316247023467 328.95576063352775,365.79792984403434 335.2669367718459,370.85049423307396 338.8872653465076,372.53205752190183 346.4345705994435,373.6633142179427 350.8160152371241,376.34836126180915 353.69019028653094,378.83155577663484 383.1782130882023,409.1376038915514 385.98029845177916,411.84841431008266 389.1857879194576,414.04458279427246 391.96961601549447,418.7907435121297 391.33164108584896,420.1520468569019 389.3948076723804,420.88371348536106 389.3320980879705,428.26621063622787 390.23509338133914,429.6343055699459 393.7317784322627,430.27752373295743 398.8052268960191,432.7784743554863 401.1941606638037,434.47588107688364 407.3153684975071,444.3633343818922 408.36869086674835,444.94424195951785 411.76898895018815,444.8783974312055 418.65763641903493,442.8549844832829 420.85991709448933,442.4822675889551 423.8237051981495,442.99218370953383 424.76246090454833,443.746805658149 428.5699985461744,452.8472733946416 434.5624333450884,458.65637688968224 436.04735788888956,460.40743221690707 438.00231256532265,466.31142844985914 438.59494612739707,469.31495319190685 440.29338161432474,471.3707222042384 447.4834811471228,475.2490978898147 452.89281910629705,478.4539006033956 455.2406954725768,480.3186349452038 458.4459110896706,485.4114446058398 469.9613101677267,501.15099592897866 473.7452513871864,504.6123729531596 479.6678530370752,513.1637945995376 482.44764809037883,518.941681509435 486.45805111286717,530.3090304004835 487.8455362164058,532.8684833871016 490.86947642640575,536.4780659706126 499.85838046932173,542.1836902368326 502.1907557825863,544.8635503054282 509.1835732402513,550.9578949446462 510.6340843877908,553.5842586209164 512.041137074866,557.6070889923129 514.7975943914394,561.3561961873472 518.0722424282147,564.535937337692 521.8857200076346,567.1942183941372 528.9563226358355,571.4149613821364 533.3239169886731,574.3261441206466 545.3140974901182,592.7552728078075 547.419506749314,597.0734330656021 550.7058331608227,600.2664015559357 553.4181980800587,601.8444746486593 555.3263224318115,602.4521828497959 558.5345532307035,600.9662186672597 560.6073076447959,597.3470037331226 561.8365132716285,596.6081061083536 563.6981013848277,596.5603568732002 567.0396566795941,597.8537294099891 568.9515303491695,599.21565789576 573.0627723588506,604.9237279057801 577.7781154860246,611.0937591099774 587.697556015921,621.2481118396514 594.3995463648797,627.0486562184511 595.4022169566257,629.2133193320218 595.6028760198276,632.789055795664 594.0341672264631,636.3657970389995 593.1983515666801,639.5291905373379 596.3387797606599,641.8048887147603 599.8845586666105,642.1397908328868 603.1553887281846,639.1359842455344 605.2187420873944,635.2861384150917 607.5033494895717,635.09384800043 610.8330745374654,636.7156298676764 612.1336091620951,640.3809136090989 613.1952630616856,645.776919256723 615.1728125562006,649.6821018379087 617.3931523661975,651.3234879272 621.6744291565321,652.2301687813028 626.777626294711,651.8689950010975 629.8340743466531,653.0572361647705 632.3967913496062,655.6990547258075 634.1950925301328,658.7591478974864 636.8692354201664,666.029440095887 638.3847208044341,668.4676980523224 640.1319933034092,670.0036300375737 650.0988396433552,677.3520783787324 652.1436749709732,677.6088553842905 653.0094009426097,674.3762956552513 654.9602333661936,671.8275875907356 657.9956698443901,670.2015602551024 660.3188386385143,670.399813677266 660.7663809102413,671.0578830697128 661.3402349470331,675.7825825024586 663.5775587182949,676.5874244525343 666.230894971692,676.5175576868602 668.4466391796204,675.8651038746415 671.8223891742232,673.9997784365261 674.6268313418623,668.5211254793356 677.5967371164357,667.2199361569875 680.5228373663948,666.5180815328592 681.8425060639,664.4765088514861 682.6268233622015,660.9277236676353 683.4471033529658,659.8394951884075 686.2254553477895,659.5489138624963 688.7356854214328,660.9210065599524 690.4416482654742,661.1750705992106 693.8852787254824,659.7347232402905 699.3347183716263,659.9935297268698 701.6509276009556,659.6380317963467 704.6921833077301,656.852138676553 706.2487178841708,654.7918474321543 707.3630551529848,651.0628606964419 707.339304430391,646.8750312051958 706.5693943085292,643.5522429478679 704.394008537222,639.7813944593473 700.4944649277778,637.1393364681591 700.608028875095,635.5145497071122 703.407363957404,631.9928871261385 703.9939807442827,630.3511181239094 705.8946413605163,629.0222813662307 710.2377223468078,628.3154971879228 710.7901679898827,627.2404728024229 709.9041870198848,624.348141367198 709.7363116389433,621.8251229275479 712.2905970292895,618.0389637210681 711.5867372952214,615.5124190514778 708.7111280390578,611.9004245668394 708.7303712543769,607.5708017800231 706.5670191912214,605.0484155054935 707.3039431999674,603.968336405053 711.8285346199966,603.7957861215829 712.9202965522251,603.4383889860121 713.1085188928686,601.4507592858392 712.1733861971318,599.8341486801025 704.8432530596448,592.2337900595105 703.0385782523251,589.8897292079339 703.0589047203903,586.8286043149931 707.0626743469915,584.4891140003785 710.5010786437409,583.7700944584076 712.1451760467223,580.7209380939365 712.3570081353866,576.7445875985804 712.0190284777368,571.8745212513137 712.94633241076,568.2750115157336 714.4116717003861,565.9312003216461 718.2093628238713,563.5901209070449 720.2256536178638,560.1661812651454 719.3553774883189,553.3125678525521 723.3888120108221,544.8529348409663 724.6741513326724,541.4241727406987 725.4767329324545,538.2751209616722 724.9103320277617,533.6738791048413 724.8672635356071,530.7958877915821 728.409105681418,524.9491568271231 729.0862240236559,522.0494534968266 728.9046246590613,510.5047374274817 730.3146867909719,506.86805605290556 732.4249303049406,503.22208320228185 732.3061686623621,494.5567391009992 732.9504446782552,490.221091412426 734.3451551097947,485.8576231381519 734.3020232811563,482.9733402729131 734.915528657906,475.6340463823383 735.5753142204214,472.12823607341113 736.9908312660908,469.206885624935 743.3639926425803,458.98682259359316 740.4131934945777,456.1453865924477 737.5055671761244,454.75875173179975 732.3719172246725,451.24298914811567 730.1774002153106,449.11408639256456 728.6492851221922,444.09165767336236 729.3355255875802,441.18571735915384 732.8812340059462,436.07693147816116 736.4489736192997,432.39514454717505 737.0871996617271,427.3340250928659 738.4382707852797,420.0824498261543 741.2273827671712,412.8263376946928 742.59567859584,407.7435154084402 744.6438535638143,399.0418141142174 746.7455898528576,394.67149478477444 753.8726943090322,386.6032643350582 756.7299716464004,384.384965661361 761.7163175808323,378.53177415041415 766.6754927521989,371.9440741157938 770.2292743050922,366.82961830366884 772.3206238815559,362.4664958980723 783.0954606070669,356.5082845021367 786.6818312324626,354.27520907146805 789.4953070891237,349.1884701672428 794.5344244402595,347.66450028198915 798.8172823829917,343.97462593633435 800.9395604158079,341.05966364859125 803.0557734147396,337.41044039065287 803.7188735459184,333.0721615067225 805.078692560844,327.27099909218333 806.4659396380497,323.6449366893179 811.411287781373,317.07231096417775 813.5601818360363,314.87019708849317 818.4939452461618,306.8502867561609 822.7801536796363,303.90162679453215 826.3493400473584,300.9611369253252 828.486181836048,298.76003406754756 831.2975986649883,293.6676308582348 836.3303716036049,292.87038577541125 838.474329995858,291.39586270507806 842.0698006420287,290.6226093011347 848.5990722486805,291.97986323062884 850.8428246751281,297.72075026368026 854.4853586606545,301.27598647200165 858.8168646215972,301.2270373319237 863.1253035753144,299.72454730318424 868.8350488941168,295.3146253626571 875.2828067432157,293.0497162338435 879.5518648458383,289.39306088382347 884.577826729634,287.8740198268696 886.7044181913141,285.6721691603843 888.1158251567756,282.7722981645542 890.960179348889,280.5744484588469 893.132153045352,281.25924807590184 895.3093101884671,282.68578021872673 899.6561337276178,283.34872414371114 902.513349083316,282.5839347190454 906.0899658564566,279.64944035085966 908.2056106531996,277.46110459679625 911.0601753956915,275.249162087692 913.9553970381869,276.651756128351 916.2061187995666,281.6839792348548 919.7850590602864,280.1962201245926 923.3508664808533,277.25503426584424 927.6422232243112,275.02297929366637 931.949351343933,273.51880358630655 939.880078297432,273.4205835015811 943.4587009897255,271.91851412857045 947.0410740375123,269.6972967337647 949.1958367146245,269.68105758414976 952.1084653423059,271.7959039376831 955.7372719059208,272.4687313757808 959.308968132997,270.25349363299205 962.8741654760179,267.4787160827768 967.8766794314718,264.3555518687627 971.4173580928867,259.9600048086105 975.0095227536159,257.75210304794643 977.8629049008812,255.53279832288075 981.4512185524668,254.04383901258728 984.3707397467482,256.88480726896506 989.4821811372902,260.41568984822624 993.0270117522908,255.29939180949174 996.5978472707293,253.08465763875358 999.4912600037724,253.03755979613948 1005.3611966035688,258.7265084843263 1008.9737252692615,258.66270527202 1011.2327244595373,264.40770577779745 1014.8570673492789,272.1632651924924 1015.3465008281305,270.73881090612434 1022.1439938772252,261.1159334676034 1022.8836443534859,258.77873506978096 1024.0,253.01136493465737 1023.4865505082502,248.85778028822796 1021.5368870943685,242.7184468063091 1018.6888638147875,235.67457058450157 1018.361555803687,228.9987741308949 1016.7534584545145,226.46150721693004 1014.5972094673496,225.00393144025372 1009.5506913939012,222.83306621307202 1003.0809346349236,218.28019229878112 1000.2228872094637,215.5693137628411 997.8796126064407,214.2928682275408 995.5320497629797,214.10632115754254 991.0205830938805,215.88631070233674 986.3071541312783,219.10460153517022 974.8239935010247,224.0907800253637 970.0411775071284,224.63178933087636 965.8201015669291,221.76994201554737 963.5926684408474,218.19301999961652 959.9221739795859,213.90952348962088 954.9057859796078,216.14982339681586 951.2886571141183,215.47825176724194 949.1306870537228,216.22740425070833 944.1697510847424,221.35414712495043 940.6175421952697,225.73399905984644 934.9515302902552,232.31754466763255 932.832848501341,235.23281357374685 928.5386786343603,238.17651112881902 925.6730100679753,238.94040180130037 921.4350576376149,244.77823964446475 916.4620257910009,249.8978752781431 912.1657827206647,251.40799622853478 907.0914702883721,250.74759399071763 899.8144957166544,245.78904429958004 899.7506728729724,240.73609788349415 901.1353169724779,237.1030456388736 903.9957658021403,235.61917029103427 905.3503335725591,229.82734860872972 904.5869055154951,226.95045686456427 904.4211494103694,216.11895167118735 903.9840313832945,213.6537063177317 901.7536065527592,216.28512090368895 899.9076324674428,216.40304256376942 897.3563216282881,219.5241660509547 893.9925009659665,223.13098678534635 890.13517136827,224.97867875273425 887.9744845765633,224.28130235348272 884.3701883003661,225.0478655947383 880.8140128107256,227.99458430323068 877.9314895621928,228.0246471689985 869.9229353109404,222.35402986775665 867.0863938041607,217.8708678884472 866.1143418588033,208.6902797253124 864.5722363488711,202.21687181462198 862.385876670816,200.79109422787923 858.0349401184077,199.41426545141894 856.5599634275137,197.26590397389884 856.5100325785214,193.65369365375784 857.863619496003,184.87130176173594 857.4798608734516,181.97625285219647 854.9748636077401,180.71822414540753 852.2108826912951,181.7165614449782 849.9586844768404,184.60995221379244 844.6795103969646,185.86238225562977 836.8927625497166,184.7198334521725 833.5003901370943,185.9781385430345 831.6057249027887,190.76175801819636 829.5568049160197,198.90870344538558 829.1044649919413,204.206346610045 827.5940467261348,204.70894938347948 826.4720445751122,203.5795163387536 823.451199921284,204.5834056002533 817.673394211242,210.11782997747042 811.65061655689,210.49226535596603 806.1088343919992,219.42473159665013 806.2464300020362,222.06319278506606 805.7273035849288,224.8321447236071 804.4816133303264,228.853837645147 801.5409871533328,234.89799111388004 798.6811108951711,237.83352897593625 793.7163982096188,244.40942009885276 791.6115256525253,248.05733737991835 788.8268498281642,255.32049541702088 788.1680356859174,258.94343078805474 783.0996455216151,259.0261800104711 778.0688917499579,261.27518777226834 775.1810946677269,262.0377284456265 772.3084858388464,263.52698523645 770.9055538877501,266.45243907725427 780.3640681022307,269.8964499809631 773.210945291222,275.07386893610544 765.9753460187759,275.1889530679686 763.7570102932601,272.34862708794805 761.5762777690165,271.6621138761453 755.0388836349377,270.32156145116744 750.7078082595251,270.4005608565952 750.65416569586,267.5136465523542 747.6111426527599,257.4601438759713 745.4027461950054,254.6070456013221 739.5896777813434,253.99095178251247 735.9838053994906,254.7808455454196 730.9732968937337,258.4756953523215 728.8621671652319,262.84325183137173 728.9037446565794,265.73639700669753 728.2342575964292,269.3666277718817 726.0953135078404,271.5589747077155 722.4992418775777,273.7969907212292 721.0849738069343,276.7081712038178 723.3350897265141,280.9963477325486 724.1109017968549,284.58832515549244 725.6059236134708,288.1724633301551 726.3678251737259,291.0577746003421 730.0058081678673,291.7140637297057 732.8944607627623,290.932143189957 735.7458631783094,287.99631703013796 738.6611022034434,289.3819200191153 738.0022942813396,293.0047013118393 734.4488588038521,298.131081833958 731.580971216473,300.35268387094874 731.6495118397969,303.94751911762 733.1076722337573,305.3777168472392 735.2899962339812,306.05075559558634 739.5988062389165,303.0841370123962 741.0722081666152,305.22720477286896 740.3970573429424,308.13704313724315 731.831360606646,316.9458182843406 727.6067117334554,324.24266691741866 726.9045724485782,326.42561173287777 727.6761055219778,329.29838877147637 727.713212233032,331.4597861410828 729.6002394091206,337.9279590746249 729.4367823433536,339.3877708773119 727.0270132075862,343.64020827191825 726.4999991572682,347.37318811068195 723.6589545226431,351.7572727862142 722.2591992342597,355.39020374791954 720.832829082193,356.8630547347668 717.2293263303662,358.3667601527396 714.3821992943238,362.0239947207213 710.857982154269,368.58588191885406 709.772115444556,371.4275075584691 707.6256531832911,365.26541087655727 705.1881254379555,364.46839836939887 701.7573882407629,364.680526249251 695.7803528935115,368.1278739239227 694.0706358197599,371.9684695638502 694.1993836228611,374.1443309242026 695.9298026092433,374.84872606482173 696.0583491651737,377.0585278354355 694.7285405486214,382.4832709260823 695.482830762001,390.82497367376016 695.3709656261219,393.7547960439103 696.0524256401055,396.2977070732527 695.3601739411374,398.4743190416395 693.2086200634185,400.6901218807082 691.094230443532,403.61145058415656 687.55900326112,410.1740961134205 684.7104643523803,413.82585119400125 681.8765948243648,418.2181656908598 676.1471656058435,422.6572935152333 673.270965337022,424.1538095523719 671.0886016086022,423.46496474910657 668.2024385993923,423.51929562448345 664.6025847090826,425.74365010381007 661.7058790146591,425.79780177498105 658.8251146552631,426.57994964645343 655.9394527351246,428.0622921260933 654.5266966471571,430.2614104649491 650.9058638261411,429.59623694796795 647.2394494793851,426.7820612241147 642.8069118336565,421.7936913200573 640.6032499913623,419.67608853180667 636.9667758985714,418.2901043070848 632.6329598272255,418.36754883051225 628.2728228453542,417.71675713741905 623.943193318,418.5144115427445 617.6278397966481,420.01811740259484 612.6209798874676,423.48478688517736 609.6494395037328,426.95220057160407 608.6603668090969,430.16485505488293 609.6436669038663,434.86021481049136 609.8985391080363,439.3076613518738 608.4170805206436,442.52430345493235 604.2053453106311,444.01634670991837 591.5904542771442,442.78538641306216 581.4446176656188,438.3393451988467 573.3001810101273,429.9321211771129 568.100997779592,419.2984944136144 565.8493728484713,412.795468865223 566.5581551677785,410.03982395674245 566.4590783451032,405.35075681739755 564.3932518871931,400.0824552785492 567.2362819969607,398.89801416933705 568.198404897435,396.56795351753976 569.4318248910463,395.07599223625556 573.3689551030302,391.66420877715046 578.8908903240206,383.68389779741716 582.9646611151147,381.2900491464168 583.8038731941558,380.2451799929604 583.9940468389548,376.7589492979305 582.5503240708867,372.02853059391464 580.8236148552272,368.2037407059089 578.6015033428405,364.6795111044596 577.4105203250081,360.4953014466699 577.173502558773,357.8683750831153 575.9145197847621,353.1191311041846 573.7208431610209,350.04513136084165 571.2270687006904,345.79205638282093 570.3607319021128,340.80303274861535 570.3467218360114,338.6215674956989 568.3823971277535,332.20485786969726 568.2933553504628,327.5925235766418 567.2627846994691,325.41098047718293 568.303075040577,322.24793749452385 568.9665832643641,318.6445377792895 570.0910902383134,316.52565141743094 571.7241850173002,312.17638924199855 572.2656317384968,309.7627023574767 574.4095460629252,304.4277616021394 574.7086530558576,301.52192398747155 573.8733393633994,297.8683442825821 572.2701975252388,295.42605954199956 568.3918034962163,292.5228923657613 562.4554900299524,289.10625605702415 559.6260731306527,284.7032976161193 558.2899045783654,283.52896043771636" /><circle cx="647.1124818512853" cy="671.369751417073" fill="rgb(100%,100%,100%)" r="16" stroke="grey" stroke-width="8" /></svg>