<?xml version="1.0" encoding="utf-8" ?>
<svg baseProfile="full" height="1024" version="1.1" width="1024" xmlns="http://www.w3.org/2000/svg" xmlns:ev="http://www.w3.org/2001/xml-events" xmlns:xlink="http://www.w3.org/1999/xlink"><defs /><polygon fill="black" points="340.54631197447446,546.8490951898436 349.9065169943477,557.3497880423429 360.6806820459884,567.1885220738795 370.2055717521664,582.1743841516336 375.07063809155915,591.2142964677232 382.0787554322006,603.6357042222335 386.7094240388604,615.4081338288829 393.60786097359266,625.8864995993484 401.25345371715025,635.9310610119044 408.8614651153868,645.1885810110375 412.3971037492088,651.990885759534 413.6092133866669,658.9295622539346 417.5298591852903,671.9295815303612 420.497612882085,682.263552995573 423.46007530647904,698.8333748685143 424.2194057630704,711.2529564087064 422.244495788475,723.8391011563167 421.3275664756464,734.4058986791979 421.78371226940277,741.7849945870389 423.4445145929144,749.8602498889221 432.4041363046256,768.7775503179464 437.89890208055766,782.0875354170867 443.9623045624275,791.8466729458474 447.6101092705209,800.5837076233898 449.49451984268256,812.1599297056633 453.6026293637644,828.2740630185488 452.9562726777029,843.5088092029046 454.3204520067573,859.3931410453768 455.05822180764955,871.4277588422851 454.1796191667871,876.5523185969344 454.14373176507485,888.6257886205977 454.4829773991735,890.324449866413 457.09742198892485,891.320277210087 460.9987501817812,893.6907144947986 464.31332507655947,898.2902720017773 464.2420660845844,909.3904922758092 462.8461160308203,913.7022918166157 454.7782537037907,921.1173221144993 448.90021310015163,924.7460057159982 446.8487542725083,931.3542192292543 446.64944256534886,933.79468802182 436.53375078684786,941.4942000050172 435.05781121113097,943.9288060998342 435.6442799996138,948.3172084177522 438.5987667768384,954.4786966839375 443.34924513125856,963.248858235725 448.7241178557143,965.1296400956866 447.87753775357305,969.7919059434897 446.0752127543131,975.6163657878482 441.39620219849854,979.3467768608134 438.62948340574275,980.666184392461 437.3000864777375,983.2625357744014 443.3747056117179,990.003195848225 444.49377691330136,992.8303699287181 444.833780006434,995.8576092392127 444.1530762521977,1000.3129823725657 444.5682448099013,1004.1515179065543 450.8606184223199,1000.5644190738359 455.2002925807562,999.5127250385016 458.175319243748,999.1764130876279 467.66751671376016,994.2295342152469 473.05508185874464,991.8925133040731 478.93593251058905,991.683494008451 486.79705786615995,995.2002793915626 490.6275442094523,1000.2658515159621 496.9466530223464,1007.5472033569825 500.1513588871972,1014.9088287449625 509.03709991926735,1024.0 520.7588068436432,1023.993118156311 524.9479837543818,1020.8836741773644 531.5309040202974,1009.4165168226399 535.1748873097472,1000.0037044589495 535.2310339885436,991.3944973408268 536.2568749679779,984.8443505377247 538.7038765441193,975.7134233647985 542.2322290814955,967.4581737560129 550.7709457636455,964.005044124352 565.6846864848068,959.228269157619 577.4768525327644,958.4419970413273 593.7601609985245,955.7512160171199 602.3959087634915,947.2134582341046 606.8005802986199,936.3483475724531 607.2589925443631,924.3739350419567 610.5533290599834,910.511184446485 626.0143758828829,897.3220009019483 632.7524294731619,877.8507674899547 638.9689354607436,867.5993024415014 644.2516717866499,854.2855328569763 645.648228929062,843.8604898702015 650.5032293832587,834.1630940628417 654.6328300729915,827.9138095423361 660.9070672878476,823.8145797022432 672.3893712885306,818.6601834865004 686.1877845009157,813.7025905625283 715.2563038600379,809.3963678113571 728.7624017833565,803.6068173549426 734.0203101339492,802.1476592426957 744.073161032009,795.6411008561925 754.7904147387344,790.3730673422571 765.1653659358866,784.6907415933989 773.3523740028253,781.1418597469853 791.6652881701652,774.6234087313196 804.8382119841514,766.8229197936018 804.1509961390685,761.2430999762756 804.5388928995076,758.4511365333094 806.6420090664119,755.9718065842476 812.7806944024475,753.3690539624415 816.2544999430436,746.8228465682023 820.1772540083014,742.1348482825956 822.4446258509564,740.1843686863168 826.6449585658469,735.7274251620315 827.7369094361004,732.9210385934682 827.4113576959883,728.3394465347261 826.5190164709741,723.8657751316224 827.820650031587,717.9437993372901 829.5512176935749,715.533555490911 831.8769738153509,713.5730389789136 837.7044164048242,711.941590145518 848.4403322169212,711.7163801809593 851.2633320909305,710.6554265484303 855.7349749073251,710.7581007068045 856.9095672617926,709.6958456796626 856.433612059854,707.8484188364976 855.9367256714733,701.7654077038756 853.8591297120403,696.0343849606652 852.2013901983022,694.5246644116708 850.1758772276949,691.0512862576531 847.8860472946586,689.0299002324705 842.5443235939829,686.1568021851831 840.0245558165191,684.439233248983 829.2540782680552,679.7395583248772 823.1233016670412,675.026953842133 820.0313773411796,673.1471864617735 818.074121436457,670.012898616608 817.9633312938439,668.4964920558818 814.3146084078479,658.946377633281 811.1268408267666,658.0444188697716 808.5676163395648,654.9422873816702 805.0615171231835,632.4787807244627 803.0459490681766,622.5775208366007 798.6089168231902,618.2481669187057 787.6084502046883,614.6296587214139 781.9829514998903,614.7965692307494 777.8425109681634,611.4950775834974 777.4749258387096,606.4798963171371 780.2087940640023,602.7071461603757 783.6262204789297,599.8405201693585 785.0674693682608,595.9642470507999 785.6864385996341,591.7568072394097 787.5686438108668,586.015651294363 803.8700039382608,581.6193220767343 805.6711426819805,579.845827695999 801.4180723895374,573.8119635953237 799.3476426970248,571.5828766423557 797.8547585487631,568.9928189547397 797.3945698418715,564.4023082315766 797.6247651458779,561.4237589387706 797.4007907666976,552.2558683391379 796.7721373153923,547.720066640584 795.9534482113917,545.60694938061 798.0136908670939,544.4335686003303 799.1955646206162,541.8866504015778 798.191311033724,537.6155996404478 795.756865871128,531.6440522935691 795.2718430721071,529.3299325843766 800.7464350945315,525.6915505558461 804.4798816826477,520.8126882080163 804.1877845645837,509.0157248008363 803.1211751987214,507.62615758227525 801.6326073273477,508.22329071226625 793.1342566015262,518.4248907217111 791.4629844533811,518.4523761044884 789.8632806999022,514.8820215188537 788.5065967719788,508.0799468051258 787.0687317572562,506.4321546438392 784.9906928127469,506.4364644882737 776.2357508537041,508.7034539477853 770.9772703717061,506.8236683719309 767.6248494145816,503.71142581737513 765.2554002863229,499.7897047767955 763.3601535873674,487.8181699331211 762.6423455862133,486.47140369973476 747.1445853710236,467.2535978055164 734.8248167163383,445.4606393627365 729.0464047841527,435.99447738949596 729.0658505675898,428.82723043970043 736.4283688790598,411.74290268891104 736.1549641384008,407.8184619641779 729.4031725904024,403.3616700607221 723.2634764594533,401.6759772329598 715.997946732556,398.8572775617529 709.5646586641745,391.8434060232962 703.7462428874991,388.52220990470676 702.382975722185,383.91556838123347 705.1474439278895,378.9947113188198 712.8201061119629,376.4830039817065 716.7353072821179,373.79881758210377 717.0122504089718,365.59576837387806 712.8051260238929,347.95860358572327 707.8864870632443,331.90333342451675 704.9327730886886,321.5767166344166 702.1663213736041,308.5051391595383 696.0591398728648,291.7643909346367 693.9447834799515,282.94491925174634 693.4873228232238,275.57423997581645 688.1775489735785,272.00896641254974 680.3151030773257,271.341524962887 667.5412075105086,273.71398375529816 648.3245985333407,272.96154022099245 637.0213370240995,273.66316679261433 621.1084379029521,275.4237484240849 604.6653348481258,274.4611146657861 595.5367320842084,271.9038589084553 586.5551700051416,265.4363139576383 572.4911792175972,252.24687873020252 560.739451891707,238.53968241561233 548.6839813633615,226.00522569687598 536.3001797510658,214.6710620847083 529.5845307873044,206.89046974581163 518.8168894907392,202.8508107233473 507.6951066940864,199.22465532936405 491.8362422193969,188.48089476583198 480.4552005788204,174.35843441575037 474.1356964397102,160.31881715305087 471.53599488523525,149.57647293779507 463.1022139537456,139.1863059938887 457.33476802205035,134.07274833767644 449.36880806770773,131.43421001930403 443.0110117623384,123.25852881788194 444.2282315573391,117.7313011827082 447.50765459005504,107.40840763508709 458.7646144939194,100.1205808020743 469.3353229756219,94.42858904862146 480.5647314498158,86.74199722412061 492.36493974733673,75.53337057469696 503.46965573982345,65.9293286289975 512.2002453035321,55.690329744280575 517.8911670268158,46.77868274980335 523.067983120494,35.95961046821196 523.6710179749481,26.583144543802405 522.0507081416024,19.280129536348795 517.8229945504435,13.695183761295652 505.68630253139463,0.0 499.17986152909185,1.937764638026806 490.3465197488905,4.013837261571439 478.30891793484096,4.735008399482808 455.31669128436465,4.940434159965321 448.6286708606806,4.175690198193706 433.72034572132833,2.7465761822631976 416.73560944303256,6.119577680650309 416.3781233311776,19.366108902338283 416.44679667002544,27.158805797289688 415.6892146583354,33.82392337148087 412.8771852221071,39.05114119141945 407.29997933460794,43.68055923508473 393.3450730851356,42.05274570939207 381.0544478089978,36.36447795071649 376.26708748534054,34.71216811409772 366.0687342009562,27.950445391007747 353.5832007563274,22.118917709263656 339.53888449662884,16.398758285791246 328.12703941757934,22.183219806729426 325.7952666963587,35.17084549892013 322.7367760484455,42.75730081819222 317.2279111070645,48.563699114107635 308.2625572700049,55.74933494884101 291.76828077261683,61.473552450642956 281.06435353711976,65.65007489352888 275.7371883630837,68.1761339559124 270.82884812148046,71.40863984351006 260.91194807680864,81.7639454947514 258.34992191335243,97.49601380453794 257.11515751221265,103.02125285351406 254.33590140876728,108.65426883611747 249.11268930780403,112.8620432067828 244.41957712059013,112.77385495985163 238.6629055487496,108.06049294620766 227.81002746997822,96.65963435495132 216.51461607068333,90.73960847507794 211.97407461945997,86.72785285684324 202.87575892642144,84.55298320184556 195.38704208252005,83.4400378550564 184.0552305034987,82.95581997420197 168.21479946917955,85.05870066264015 150.8396616876979,81.01485252090538 147.8302582045834,76.52461218293558 139.14360457520897,68.06320028261428 132.72787001966122,64.93929374885306 125.77160448258961,65.73188179271699 110.36053232346222,68.17769790573936 94.37797881616909,73.7513439738243 89.20280914963688,84.56315393057673 86.06638364254269,90.58471171144743 73.20037616461619,96.3813846652024 59.91448244945059,101.81703611101057 46.673023129308355,108.0359717057953 40.490285964279714,108.7903412520401 15.049807095183276,119.61216709412054 11.682762985281071,128.37366030391286 22.42850637791382,151.04771474473705 26.026203483926174,150.78420678967473 30.795799677412287,158.68121926488516 33.231787971647734,167.09616234146506 37.99382868625658,181.22321395421648 43.089228811059755,201.1676281937173 43.97462341365705,209.29379323204478 41.619676120848986,215.2671627753292 34.621947254903624,221.90811837187812 29.38139194969528,225.33385075935416 13.916229692561584,233.6441251116902 1.1308398533173434,241.4192273249505 0.0,248.48848762388377 2.183785081110266,252.24394313372397 9.6791915562215,253.75964958305156 21.567870545537097,256.94998949842443 34.13941676269589,258.9234513247379 40.101010053108155,273.7571328057901 42.41832633040907,286.08631917184164 53.28697239878087,290.8358816162274 58.053869597368106,298.69977917408903 71.24013446502349,301.1005211562856 71.61776283409255,310.130729663912 78.4079305376223,321.3876879856547 86.48906271334016,320.1386971803722 95.4984311079088,321.18449913904374 111.43743332062301,321.0389763862721 125.93765812275753,316.3261804534204 140.3523886991477,316.65223441861815 147.31314341998893,316.2478934974512 154.40313908563124,317.40358791010556 158.8458778700122,320.2504111082378 168.7934971633866,323.565020964552 178.02496308767275,328.0874885461875 177.78348152589007,337.06058995362673 174.07924710754958,346.62500056752435 169.8907939813937,354.6553432411963 168.5364911326283,364.47735785268674 174.05094196147036,378.1708799874758 185.74528509712232,397.3437019248905 193.1855876199316,410.91456594781584 197.13874881131088,424.6904885094867 201.6627635766822,447.793315538813 211.56458472573212,456.54529862511174 225.68114076800487,457.64575188165827 249.6468269393513,453.44026864348314 265.7645834268195,448.552796388483 278.7598811401059,443.4451648677358 286.46055578269,441.41090529953226 295.14918722825547,442.8075388650585 302.3605323312601,445.46773887561244 306.0822991235119,448.7366594376882 307.87390299918104,452.52133935184133 314.9498748216105,465.70001300329193 324.1129392144059,481.10303012517375 332.9629070656797,491.4446375087807 340.35303752102794,503.44192348854756 345.1535252083361,517.9359095387855 344.3697286738197,530.836093227141 341.32992967525564,538.8221762609764 339.39359421356284,545.5590441267441 340.54631197447446,546.8490951898436" /><circle cx="508.4797238825297" cy="424.2293780215592" fill="rgb(100%,100%,100%)" r="16" stroke="grey" stroke-width="8" /></svg>