<?xml version="1.0" encoding="utf-8" ?>
<svg baseProfile="full" height="1024" version="1.1" width="1024" xmlns="http://www.w3.org/2000/svg" xmlns:ev="http://www.w3.org/2001/xml-events" xmlns:xlink="http://www.w3.org/1999/xlink"><defs /><polygon fill="black" points="225.34042940270777,57.769294798960345 229.48883729963572,66.5100461275689 236.74979014178396,93.66179291384435 238.3125796163433,98.40984294659813 236.70471749524245,106.56749248345761 237.7277242703597,112.62270890427226 242.92850771458416,129.7707389156027 247.63533404254596,137.4191410017205 254.99149228277943,142.46430614788744 256.57282005737403,144.8449204094677 257.59789732223425,150.90330393653517 257.2948543407522,159.32030416185478 257.50530751550644,171.95794311237887 256.17444155241486,175.1105063944227 250.36101026392228,177.97190500384295 243.9908548993281,179.5286163874173 240.70620923905557,184.15849606674476 236.956791317828,182.36672640217193 234.74354754601856,184.4843947611372 230.70023400071142,185.06781927977477 230.03901363718853,189.7747050508816 230.3406005214264,193.34268118425382 232.974955486159,194.31742318865076 236.04956374178647,197.27999210381438 240.03159787334712,197.68845431158525 240.53165753273433,200.54780859101606 239.1252921431379,201.45917087135228 238.60984096098656,205.3029611904317 236.31045726396002,209.18170662378452 238.07203397327615,213.08098009684807 239.03067672892158,218.71394041819838 238.60708297013127,222.4982064106306 239.85685488918594,223.373897129179 244.63150694795146,221.9025962215402 252.82109723489444,220.36196046313285 254.88471184856104,219.55511572997443 258.5960234127386,221.45901849297672 261.5526103405271,219.71220202282404 264.1188010430547,222.929345326089 267.57913434406174,224.2919363480189 268.50459893464915,217.62987624717266 271.31661035942756,214.83056205199148 275.1906858896959,212.6600261399118 280.36609990331704,211.40627846133657 293.43723143877577,212.0007735410137 297.7132568982125,212.92124246693254 303.261213815248,214.77677620358418 314.0614520001837,224.28072361007014 316.950376894868,229.5469525057257 319.56182638160675,238.50205706842064 324.0209145715898,245.6166397399213 329.2991153235086,248.77854571272485 331.93955536703595,254.5663376241465 332.7075004733686,259.04680593284604 333.7182385961615,269.5773610056267 338.42651350698003,284.85297585135663 342.1197081498679,288.27431320168614 345.0252880707775,290.12457227403104 356.9268098447997,294.85911564835897 365.1493973005771,293.019912749157 369.64829037822943,294.07285360123944 371.2246893292636,297.23253501820227 370.66177828183606,303.5539459348764 368.7938894145104,308.02461610485545 367.69105371498733,316.45261788836945 365.7941396349965,326.4547213135829 362.0459434717033,335.3981285488903 352.9782081291119,349.09817105457114 352.41753983570595,354.8873451182791 353.72711577340783,360.68156437993343 355.8243431878327,364.3664198692992 359.0002005821296,366.214253119647 361.8895642071535,369.8978724626854 367.68793605404755,372.7628941369517 370.21932259123827,376.5549231005288 370.0802750313469,379.58293672317967 367.27240799683364,390.9789067106509 364.516057043669,394.38307059619376 366.9616162330867,399.6307969489998 365.3629676064035,404.5197929252099 354.5368601673967,408.1303016181498 351.62812555972664,411.82178645608343 346.0586218916938,415.7351857790317 344.44618762958123,418.63384811689656 345.29517054385815,423.7290603581097 347.6838298740874,425.76094721939114 349.47030795730984,430.92361231786646 352.4496428710736,434.2641985507495 351.5769866701739,443.4565799800934 352.8625225621663,445.2067312497848 356.3079504169876,453.2606171956453 357.8493171321586,454.8871210220385 355.963470688632,456.3885607786217 351.61705159616844,461.3981549966861 348.4820258488748,461.7198400802105 347.78554553320157,464.69661305764544 351.4358139947428,469.05336850382287 352.2271739085528,471.67545920372714 354.017261090126,473.3865335393199 355.01258020512904,477.660757278419 354.10961421001423,480.57215254449494 355.08952232148465,481.73864541146196 354.5707815842341,484.91336163906266 353.0198673434783,487.0703738143234 350.8444791235179,493.97958554453334 350.626550189256,503.7848419391975 347.2720512613042,506.6733542695516 346.9169867679053,508.0802222778911 343.84079740986135,510.09797925708 343.2583344732626,513.2319419139972 337.0428619930783,513.5532077319342 334.7694089342911,514.5919156487869 331.12492985218455,513.7569195101314 326.55750951942366,515.9639606899552 325.5934192895305,517.2567898870261 321.59359011897806,519.6744163073131 323.03626673216286,522.552743604686 321.7770395744498,528.8822069265694 323.33635216181386,532.0786525372864 322.7298532317486,539.6934930236447 324.34831314244076,545.4031177997349 323.88982752884414,558.112946135833 326.71520408545746,561.1161879930027 326.83042487855715,564.0791388717937 321.988831580689,567.0275811684639 318.53816511391256,571.8240979633586 313.8619024605074,571.9702879021603 308.46752664391437,574.386135555418 307.877463370434,577.9736474969733 310.56384082955026,582.4346520942564 312.9388869525346,583.814104668113 314.2327750621879,586.2105108395637 312.2754287895594,588.2434470660971 315.47637933511453,590.6973150964216 317.98581985621695,594.8831024695003 317.195447811832,596.1842290012337 318.1927150183682,599.7464961170951 319.68946836279247,601.8028253527839 320.6248471651895,606.2929092953766 320.2141192149493,608.3527953022785 321.9686597517758,612.2456775253521 322.71378785052264,616.2621652366711 321.49487556217196,618.0103463611392 317.5249349498382,618.8865697304316 314.3426536732803,618.2696688127922 312.7819081778711,619.8054104525764 307.120513354415,620.690156869188 305.32287792709013,626.1219151488001 306.9431601579967,632.0558645032963 305.4079622477745,634.0679606517019 306.9509121504823,637.5647662486798 304.8080434394507,644.5293748827098 297.0382183502847,644.1513736457689 296.76373587280744,645.5168719972792 292.55173562599714,648.1130528266926 289.1344920938052,651.7415579332855 288.4569078106391,654.9414311138105 289.8565121253343,657.5910344085721 291.484147861802,658.4068821506263 292.792478457642,661.1355184508736 293.07661002926994,664.6389431594065 294.20790388429924,666.2504008361411 293.4478542787847,670.4587602855356 291.5693018683521,673.3783303497482 289.11901428355577,674.8447546922079 288.9203545980925,678.5703816781128 285.1841461982337,683.4106224501621 280.79459051110314,682.0580654008567 277.76593354466047,682.5409163523193 275.59254264622416,683.8914389605809 270.98441189273257,685.3277532970048 269.0614471671258,684.9567969437034 265.1460837115217,681.489157510001 261.8608836846609,680.1162456362216 260.16575077392343,680.8192600114708 257.3271970033172,684.8850157963916 252.37759566446127,685.2126670947999 248.66804574690292,684.6763599283867 246.05048018517934,686.074097561113 242.8110979013069,686.1497872873074 240.05169595175906,688.9020809325484 237.57497343423145,689.9511767202197 235.627271584565,689.1798136580852 230.9533583872701,692.4639928896715 227.7447176389525,692.5042703555455 224.9761044479971,694.3795044682108 224.77591688836804,698.2806688475262 222.80848560165404,701.9024093116752 220.48760528766303,702.0119669066821 219.90925194852954,705.1952425532555 216.8972948928495,709.75736933295 215.78996008407412,709.4554138582034 212.9397567016528,711.5492430649666 210.15103198821416,709.1871252081801 206.49666657287872,710.2543219209277 204.60045183797797,708.3018079795484 199.61079796586972,707.87041859636 196.02411097143835,706.2791915561903 191.62753755194566,707.4318035027837 189.48972097282083,705.011262790104 190.22347721932007,701.7314661034786 189.1285427234278,697.147251545161 190.65333909200717,693.5304756197879 189.34540276908353,690.4003635929676 189.54841665139602,686.7083919373897 190.83383387627148,685.021570851235 187.84822352539746,681.3243551866842 186.7297672792056,674.1209314159573 183.28807826190467,673.431957756623 178.52538515259903,670.3858336115612 175.0291379305294,669.40977086194 173.55567018821867,667.3148498664325 168.61373263800348,666.0481429513352 161.59788737302515,668.3757676880316 157.1109221913502,668.4496063642529 151.94598459545426,666.4370223029223 145.29166037586057,662.7722301474812 143.62667759671123,659.8523740785491 140.93235430807286,659.711133552781 139.16050995749018,661.184114775459 134.12392932272587,660.853443259743 133.91512693225673,659.319208061945 130.7676431924331,656.7252151947097 125.64624797820606,653.5915364838105 123.17235984129378,653.7603173970903 117.53270667607073,660.3495500069939 116.3135214989744,663.8830441703635 113.39732721782408,666.7445469189884 108.77452883758343,666.5834318278899 107.53022441321401,665.7858853677333 103.11917242390454,667.5918071237111 100.3113430983144,666.1219898371896 96.39429226100037,667.7845568189458 94.09791322236536,669.5466905168639 88.5382199290643,669.7042345780914 86.89336154914206,670.4282403051606 81.23089664010901,669.2396322306349 79.8615097728513,668.3311710712959 73.2230476392899,675.741536347395 72.29714725288041,680.1324981391585 66.67745694958727,681.9018258814668 63.98313781088938,684.5000712592515 62.868202914497445,687.2253916880948 60.906957352575425,688.4555246709363 56.430794993197345,695.7734740581822 60.21319138339569,703.2987710627831 62.976979383134626,704.3981856897118 65.19296920341678,709.5385518243354 63.13333213928524,711.5426186992672 60.5856077738558,715.8524868240484 60.847625044066646,717.8126962022682 57.96370240253512,724.287031438391 59.86980568212645,726.5130215442966 57.6661192362704,728.6753848654743 55.378328607060624,734.7982336266994 53.955481198300035,736.4423380607801 51.97962192154717,735.9962113555839 47.10319735130462,738.4030129261159 46.22002582714488,740.4853240246113 43.15843076171214,742.6879463606607 39.60028780560162,750.3933073276047 37.08114820227179,754.8078031642004 35.6240507273959,756.156551742314 35.79844535006164,760.3254355062365 36.99966065836039,762.3077233081663 35.910942149290726,767.4241827028337 34.046796749552065,769.6707049650629 32.0636272613435,774.0823455135296 27.976988698437765,776.1801330588943 25.14357461591037,778.633118259579 22.719663281876,779.1979861761733 23.24502145311718,787.9205230140005 22.207802297123205,794.7423341904985 19.620000233920777,800.1848215323121 15.005054240834188,803.703123663289 11.175715548359262,807.5202291196534 6.7390495615769535,813.1574483910117 0.0,819.3243888205989 13.430367058138756,819.8335790126373 19.06097713704805,822.4210585795678 23.021285334585325,822.5854866329379 26.53318648023148,823.7350559623974 36.08866690263766,825.7802320754369 38.88714896669371,828.2393329513471 45.00570717554469,830.8995461823937 47.38578494595694,831.1786756872192 49.406142038608486,833.2076586476096 52.54236437614391,833.8016227335348 54.238932812660046,835.3113051326357 54.286137719071064,837.4591883406281 62.667189697523334,845.3478447429012 66.43934090816983,850.4868464423464 71.32605573227205,854.0870485931734 78.42853604830749,855.1288687211687 91.20951188825455,845.7992545694894 93.28634112989648,846.9317469993836 92.701514291413,855.3478126370891 95.33569753718841,862.827551468691 97.37618419635965,863.2720990477874 96.941331227704,865.782204440141 98.98791152677255,866.9837168527824 102.39893294099129,865.3643536146611 105.17891314856367,865.0641168466625 111.11671763789775,861.3355545360204 115.35358265143277,860.9875276323899 116.42293795644333,855.1406083510019 119.62962445802933,853.9310980678966 122.55310562245901,849.818465383343 131.42798247880228,848.8406662983962 132.65244207824313,845.637886375233 134.10523054657324,838.8833506044692 134.53126736596238,834.244329057619 135.56434757232935,830.4261859575157 138.77526764031012,827.5029290554893 139.6415012722524,824.8257545690408 141.91182788153097,824.2757281585885 146.2369409863143,826.0298218692539 150.17836307505834,825.1435566012002 156.02937542763667,826.2854102078787 158.70865291289124,827.7222294290689 161.83982910073414,827.5558423383701 162.9001734633948,825.8164201840599 165.199729528239,825.2309780002894 166.2712582311615,820.1253632326511 171.23052407106124,819.7769993487556 173.60955103539106,822.260247270049 176.94952127226892,822.4475082451273 179.29484873044134,824.5483273502126 182.68318130392325,825.4402837165327 184.05525522292047,822.8269286647492 191.32987522459484,818.0125872701291 196.69700972120222,818.2160134829604 199.2866186767765,817.7302534558366 202.15459892652876,820.4516559834973 205.95293280630844,817.5993175551122 209.51727799222792,816.3309275139915 211.2512847437961,811.6974484932373 213.5027781512811,811.4590847205787 214.25751276938604,813.7036737986668 217.38626311054304,815.5523783972112 220.6862165047688,821.251380709347 223.6363702566534,822.710935234842 224.9576758455132,821.4104231646445 227.9978671520939,822.6081607367121 228.47446643648317,819.472977147393 232.43187070613482,818.285885377662 235.53090123499763,823.3784807641302 241.99927632003067,827.2902691363481 245.88795129298543,830.521620894881 248.184276456262,833.796122720502 248.40044132784885,835.8033142871955 253.57711440910558,837.4912688110804 259.1618593411411,834.5207978562789 263.61838728419946,836.5898254050338 266.7508627965302,836.6109890376403 270.7812438418,838.4403669288928 273.21624807659134,836.8841005941446 274.6510380865593,838.6271709035658 276.53855937984866,843.2434500371559 275.6440785930757,846.8106210224036 279.4706346977984,845.8062725404925 283.52025173866946,846.3813957249694 287.378799882696,843.5140194155402 291.2778657747983,842.6300966282978 295.10690927510973,845.8872010503507 295.6381114794793,847.1947670555008 299.1547465147229,847.2714652397973 301.9291866335081,850.4348167765842 304.91520085478356,852.1344703568213 307.11528632092006,849.9270638450079 311.1933435992843,849.2837804051402 314.33837193636606,843.6814666244177 316.168149976326,841.6523940957544 318.23198565757457,837.4723586855102 323.2291236209715,836.7656256367526 324.1271709034901,832.8588784200384 325.7038506573237,829.509962098751 329.0869072061149,828.7687217384956 333.28629421261536,825.1564931079084 337.04700856335086,824.0361995322371 342.20152662863114,821.7272134521462 340.5135070964828,819.6056111533163 340.7373944256234,816.5160778101283 344.3888093149333,812.1360878967121 344.8074874995826,809.7922846371063 347.3009594607447,804.477226517633 353.918235622481,804.6463917848677 357.6840674399889,808.6306587342252 361.308415375974,811.0320369284789 366.6474894778813,810.5804623339666 372.42506884124174,812.3833380394567 375.7858922738165,811.5529367583451 378.6045986438729,813.0942619622717 381.92795993732375,810.8474309704436 383.9645880797303,811.737051031132 388.18069478307257,809.0256942084992 390.57185544196903,808.3898297849606 391.67203279626676,806.1939594538567 402.08099715330565,806.200455889682 415.74251404201465,808.515792586645 426.5313708530165,809.9493706574078 437.8509153204065,810.8796808013318 446.1498126176851,814.8631953386861 446.56496806404516,824.9122573540292 450.3536201552798,826.9007332042195 454.38326712529476,827.5716188498536 461.9857113499647,822.0479485114474 465.5240416477622,819.0203155032726 474.4466190443531,819.8884419782034 481.5909655739531,819.1011307482888 485.6460597141852,816.0991609986588 487.88719093920093,812.7564202207841 489.3760812985032,808.0676754778675 489.2623771447611,804.1029942738573 486.6055084764802,797.6690725732825 487.2014319254438,788.7236357604297 490.4622585996512,785.9419512275417 494.11495260674184,780.0171812770467 494.4799340321881,777.1354050240185 493.8320661561605,773.4144064469398 486.5331432192342,764.418238036645 482.9437263989508,761.6408320596654 478.1966406736235,754.8626596604512 477.94577814808554,747.4620571478769 478.6053243565204,736.94059596649 481.94276293406585,725.1859930331095 487.5837298063403,715.1234068907256 491.5975243044965,706.3076702887784 491.84117886551513,699.7220390242042 486.1333484264039,697.3908626653904 480.2125941683357,693.7257888202206 475.6591449278519,688.8005801653537 475.8215252130034,684.5875329519492 473.47923543203024,676.5784915661696 473.51114906879263,668.6605680690025 465.22089457608826,657.7956730288338 462.3015349707199,651.350543604751 461.6139884590425,648.4260152484328 455.35883341117267,632.6177159143061 450.8349428643682,626.3855344306313 447.6045908074577,621.2467292094018 443.3897456788148,609.9272355693615 445.46005452057756,608.1065805884247 450.3130086600639,607.9236789219666 451.64540418673846,607.2737659416488 454.1723473057012,608.2126543664899 459.1754842643644,607.5941206716277 465.36543336727533,605.5031483066332 469.0930688901483,605.1599676023579 466.3654594623586,597.4762260115242 470.12480253481027,595.6423529584545 473.69612039253553,596.0293975988234 477.7851582420518,594.9526447754247 480.32120755052966,592.5872225258056 481.368345647754,589.9113831414837 488.66480502085057,587.457010864221 493.0549848786064,589.7408430342305 501.4172375364806,598.5186364745771 507.6981881190796,606.4145819637198 513.7901564399424,612.455808897419 522.7581808130112,619.1538767189345 525.6640609194371,619.0006248903237 536.1957363152234,611.7614321333098 538.7021079405093,605.0557872926888 540.8176741450844,602.9629652601991 543.5814792767297,597.1222211633433 548.3060634584791,598.82608073488 549.7604534708864,601.8150875167973 552.3805463755987,601.1798888420739 559.1057278339923,601.4670994375408 560.8227584566845,602.5620811421425 563.7414128160697,601.202996820281 564.2253112593224,595.3074318452537 568.6064231448238,589.5129177151506 566.3580412949718,586.5090713791442 567.2046818084227,581.5022663515253 566.3754135404246,577.5429873692266 566.7059086532696,575.3965207971329 569.3017555690413,571.658670359042 569.7819184263899,568.4874226957149 571.6385607702671,565.6860996402256 568.5510222588387,562.3323292286036 567.6794606699037,556.8569388176977 569.8080570997618,554.3654735027653 571.0616385552179,551.2440988349119 576.7556844620567,547.3928156865129 579.3761524626915,546.2625189727698 581.3766219065399,542.767131971126 582.6662210359964,538.6327150356005 584.1463742477082,536.2707908250934 594.4859242029671,533.2437814926218 609.247766679695,534.0420672598462 614.984544381517,536.0979170925857 618.0498651728499,538.582634601181 619.8689402990956,546.563361699036 618.4636098813166,556.0065321670791 615.3970001048781,574.3702435420396 615.5521690606681,584.1406142016385 620.2019115008461,586.9419286213058 632.748834585579,583.693199941172 641.4226177761205,577.916910290775 651.3297234390209,567.9691393052179 655.9189811942588,565.4972604841379 660.1009402209569,566.6900280976745 665.0067276399774,570.0293426425953 671.7766339095382,572.6384342618805 679.5628617156545,583.4688119645225 683.9281692692658,587.050985806751 688.1624738614761,586.9326286007583 694.9297486183145,582.6980832768552 703.7422649106641,572.9846778070687 714.0676768416549,565.1797213692371 726.9750742781357,558.5378130965294 731.7126754331539,558.9810216131677 746.6594596084244,568.0119613689914 758.332071914749,572.6902090607482 767.158156520577,575.9506315770138 775.0668840028643,575.4793876436011 780.2553280684044,577.5414695300672 789.4999911262313,583.4628561142902 799.9831089753823,588.2184208482488 805.7611166909911,589.1160476096495 807.2023968000831,587.798274838914 811.6384697152537,580.2631928961127 812.0592250978482,574.2020902155083 813.0875482899705,572.9178053745042 819.1380872086709,569.9599196127781 821.8045884895093,567.4241004410694 826.7801511272042,563.7650384013268 830.5316342300906,559.7101035380767 829.0314055428695,554.0837883283057 831.0314063630428,551.8202222601672 831.0134704168768,548.4925203948363 831.886605827457,543.0931814923783 834.8568564872377,540.8996656766435 839.7614369510115,539.2002591986112 841.5021788462226,535.1126386635497 843.181063520753,534.5368423946671 846.2843969137364,536.3706841970954 851.8172860987672,532.9434904149322 853.5937090358593,532.6254248435494 854.7037478395135,529.6244454389287 857.3300370593059,529.0048401013456 859.9380661146696,529.6863659096921 863.7769817614259,527.7701554449272 867.7915348367469,528.7373539125738 869.5729048183908,527.5523154803722 875.1284043466169,532.20992091254 878.8700851747482,532.3058318515168 885.6997314074436,536.7485882791551 887.9982503873495,535.7006966524466 891.9383629176599,539.276743989635 891.9824492977826,540.5331739782808 894.8086049786373,539.5707097705522 898.8403454223362,536.9561578397926 901.3168352198526,537.7249213803132 904.1568125166565,535.3230095352342 912.164904729222,533.2839425373968 914.2357446479285,529.4399686135064 915.6631477125178,525.3218672462632 918.6776722729591,525.1272196863781 920.3299360196992,527.0026580089116 926.9347038923377,538.4575540032204 929.3554371977826,539.5206783990229 930.0062788479016,538.5383648461807 937.344269654957,535.3819297877997 944.5805400041394,533.3886030847757 946.2713717894525,529.1694173522238 943.836158533061,526.2602605528876 944.80437765278,520.9033957129543 944.2383656378485,519.3110423376298 946.134344624997,511.3102867066128 950.0188258932785,507.6222757480253 949.9346496582818,503.794553458137 950.7208924311773,499.723647453368 952.428528042056,497.47262183574463 955.4676027767787,497.52652323650864 958.8769013735686,499.1499244057445 962.477200355332,497.8939864162399 965.5751074294575,497.798083331119 970.9910639780379,499.3220777250674 975.9896496895794,496.3475468588446 979.6885977956821,492.7914146519482 980.45358291224,490.8191313247901 984.73291244009,490.1026914939358 985.8802018035411,487.69756141600067 984.7150710716453,482.3752157050868 986.2423949089115,478.41217273926424 989.3192256495673,476.2377513376902 990.4227415686581,473.747200453246 995.0530936495243,471.0314314833485 999.5024246992594,464.39524838296524 997.4318644762524,464.3238878742162 998.3292274657989,459.7501660038994 997.2976430383874,455.5366845786728 993.8730608153437,449.99393572851375 991.2574300314434,444.7119790391851 991.27121704252,440.24436442154 993.171924373224,429.18591422149797 1001.709899416626,413.14937934453525 1007.296095781438,403.9508823910622 1007.6050413291463,395.2661417484632 1003.6808609525555,385.2389147038584 1001.0703099966663,377.5919068667272 999.2519580653701,371.010495400633 1001.1268589880436,367.59051467576586 1005.0983843755163,363.653730896891 1013.3466129049858,352.0977342796857 1021.0721425226728,339.22956849429886 1024.0,331.60505257972204 1020.3223986463191,326.0951450945082 1015.7737560536298,327.76887256411067 994.4489773454072,332.78799597444583 987.4778503326146,335.7024225706775 976.1517268851478,341.37315473188755 967.6783945569897,341.6098054778615 959.2503459965774,340.5206252797409 952.1750052212707,338.6951756353176 946.0876586546958,339.0210121782487 940.8807219186544,350.4476186671925 935.3459086711492,357.11743840320713 932.3199987323225,360.1761210549385 926.4590842901825,368.15816930171275 922.4407466540127,369.34130162915733 916.5698744849967,363.85673356368477 914.7601564187033,362.74166232351786 913.4164749878197,356.34952351208256 913.3055050748227,352.1234649032431 913.8242201332386,345.28242473710577 907.6672047717317,340.3152260724992 893.9600392031622,339.29143481809047 887.0850037782421,339.83402145095226 880.7506516058087,339.6052033580836 875.2712555355823,337.8132676613029 865.3866632047836,327.14541231775377 858.2437481556777,320.8017693974083 850.0106289364811,315.4620728251134 841.7096000811141,305.1120982767576 836.5228834646175,295.9330330457318 832.000004646299,289.9481602884855 828.4288853468897,287.16165412841553 818.2318036558959,285.43225622701846 806.0918311316968,279.39146713797163 791.3837891119881,264.8006365632333 780.7384981444892,261.1916659698154 770.4200596771909,262.88034463283304 766.1315733544176,264.8183505423534 760.1979040552784,269.0638819698197 756.4830453894226,273.9806544814926 755.5497468491282,280.145631518707 758.784235544803,283.8662475636429 761.1804878947407,288.9316474307792 762.704440592593,293.432538823208 762.0650544925352,296.31170411105427 759.3783978705771,297.783172163028 748.7885397439001,299.4720850223483 738.5880695583347,297.4906345970228 725.7264536563105,289.0806003789718 723.9838879759344,286.1121637716535 723.143118773569,280.5375613942899 722.6380298324683,272.8671227047639 720.1705316249323,268.28671183289714 716.0512640400513,258.63892497264044 708.4887913921433,256.24859044778066 698.868460717491,252.19905873791686 697.5022260925699,246.34078260661806 694.8272817215052,240.1771073908493 693.8792714757758,223.2652313485495 676.7620602839369,214.47532257052967 669.3737025920003,207.0923449781052 663.1297797987933,197.37069046448767 658.6891547489175,188.77884301110066 655.8679446951794,179.44570088391254 655.30380743939,166.24044294007342 654.9017576180286,162.79809875102637 655.7219703003898,154.91139510036055 659.9486009296588,147.9299805778337 665.7796936259587,140.75191769338062 675.11357562976,131.57940335252965 683.8273724862245,124.75981995958148 688.6043935144411,117.27942600127176 683.8477926245929,109.98690188906437 676.9461147397996,103.67620284777684 661.2541560000095,104.9403243338644 651.2918474204272,103.84636175787159 643.7296350883535,100.9386983569384 642.1941651038916,98.31699728284707 642.0045408352296,92.00417537837097 643.2063676571986,86.9454799024785 639.5001809646436,86.31415565372572 636.8879708539373,82.24486837573 634.0190752450422,82.10721907234768 632.16524659726,80.71404084114988 629.7624883750301,81.62173333330702 628.2054168595298,80.24922023316356 623.8658220341952,79.63481273136631 620.9633059118305,75.94861902214768 623.2206503607874,73.5460716644917 623.7982797062625,69.13608737530592 626.046164356548,68.86065928377491 628.5867005243322,66.2467850576503 630.3757521179045,66.08163017916138 631.2780392150013,62.149258737853074 628.5354114342646,58.16903472589752 622.5137435479287,55.961033439692756 619.2795313331682,47.86479070449491 617.304311315463,36.97654360913987 614.6229161632875,30.818437766105944 606.3290713368201,26.311764335685325 599.4993098369808,25.27700979021688 589.4358936458249,26.24398116012685 577.4665495037352,28.433598352500326 568.9232154781791,24.158604357884883 566.3579754851299,22.215665569919338 560.4102333147292,19.099673091032855 553.8286775300044,18.840921718878917 551.3815556858727,20.855667106655687 544.1000196982064,25.32196340361702 541.0236181204837,29.953712092947626 535.8824223779102,33.968445087309306 529.7356362728783,36.3696667055583 524.4907588059892,35.90007274038521 516.9238309289224,34.016487786207335 509.23635569519274,35.29150683746593 508.0479516803482,38.941142195465204 504.8826664076549,46.19818843765324 501.52079731958855,51.86624450053671 497.03318406664664,52.21983243479201 482.37831778253866,56.91899471717534 477.14619748256246,55.92074311741487 471.1704603686782,60.70023912607087 466.2655838630605,65.2607294965602 455.54666317420924,69.86855148416032 449.00123187999696,54.32317339206122 446.47706695277935,44.20466416672264 439.9164270548987,36.0506726548374 427.95988820216235,37.99993439494892 417.8106324446671,41.328998023658414 408.75306666959193,42.853030686668944 401.10352661867546,42.32729806104851 385.6042415836121,32.313374818952525 377.4104573377855,24.66428114802511 359.1557091221679,17.20212303051221 351.37449037538835,12.99025989449774 343.5449732774083,9.835262338460211 333.5371686698359,8.443709688368472 320.1536215350327,12.473861199876865 316.38078457420846,14.460968230218782 313.0653964591916,18.034226820054414 309.27056393767475,20.81287240024983 302.29250114822236,23.47086071256581 298.10609503939213,22.268414845986854 293.4358070266283,13.135897295606924 290.34957002934584,3.790817126435286 287.5787741701318,0.0 282.5584770778391,0.07986174929396839 258.23108221108436,2.080478145867346 250.50163587294142,4.155360149692228 240.89095374192866,7.470883061067866 235.24665814674086,17.800476510623525 234.61078786065306,20.681574580573624 234.83481042171854,35.98150976431259 236.43355920556766,42.37804262774944 234.24525482923127,51.78356753297817 225.34042940270777,57.769294798960345" /><circle cx="467.7853244791689" cy="305.9207351048343" fill="rgb(100%,100%,100%)" r="16" stroke="grey" stroke-width="8" /></svg>