<?xml version="1.0" encoding="utf-8" ?>
<svg baseProfile="full" height="1024" version="1.1" width="1024" xmlns="http://www.w3.org/2000/svg" xmlns:ev="http://www.w3.org/2001/xml-events" xmlns:xlink="http://www.w3.org/1999/xlink"><defs /><polygon fill="black" points="2.859986303640613,524.6972172137716 3.3717337540368018,526.8778274209166 2.9464768841158007,530.7768844408654 1.3907864023430812,534.612044808821 1.3477974538223498,535.9950973321843 0.0,537.7444544722895 1.2272811775133436,543.1537669470616 6.017142851691848,552.7959944162637 11.272361078047615,559.6949883172352 13.419334113496506,561.1504109398566 16.666279544074595,562.4824466323678 18.710819636276533,562.9763293735951 20.41653286211793,564.1349301870275 22.038564818836953,565.9811943521913 23.69035517611146,569.2505628890933 23.9117324785214,574.8479930082665 26.179729152742876,580.0329759366587 25.397240821734982,581.8068678775528 23.97700969744254,583.2990526002412 23.780158113056682,585.1675120605875 24.313162238387246,586.9738735849749 23.74690698928008,587.8795881644826 21.484988585552212,587.854923762102 20.230178782785394,589.0725374325399 20.618569640057963,591.4973363484908 20.16464750485213,593.2163309582861 21.499161923859813,594.8676905446807 21.498048317989664,596.1426368210967 20.478693363502355,597.7443473891392 18.03122883416176,598.5164325255275 17.16691970535109,599.6413662692396 15.407830633370077,600.288582208592 14.552722273125108,601.8752547717006 13.133730421963817,602.6871233811889 11.765625457499254,602.8339755161865 10.03751642815445,604.3570603964714 7.878255680553766,603.839133433653 6.428415418507848,604.4940931436935 5.933461614797892,605.424666100648 2.3629930318853845,608.3764469561927 1.0846661266804791,611.3629723935932 1.1451035217540344,612.7461186291205 3.374034250088276,614.2818126333525 2.629285943571443,619.2467363487492 5.1379456095081615,629.2671643186566 5.24948380031309,630.8547364536656 6.121972359288946,632.5220111279784 5.955399959799859,634.7040601176444 6.736820507101221,635.6045433419631 8.905718381251509,636.7323906553108 10.765365945404689,638.6979674263525 12.245483945551024,639.1524758452466 13.470039769845927,638.8649038986056 15.886461821958166,639.1169442395437 19.142606964464825,643.3588755005144 21.702810506537816,645.1994646689782 25.73335116480995,646.7438607735912 27.624880566212617,648.0906562760274 29.156850266496644,648.0291849608859 32.00535346374086,648.8370769083672 32.47786271305306,649.3694820122703 36.108703132933556,650.35090531621 40.82901589969431,650.7609548701389 42.3000821152749,650.6992741298216 47.194425615489706,654.1759663408703 51.24606369985551,655.453507608965 52.10975901031763,655.4464758338953 57.43685329023203,657.349624895881 59.93607697650734,659.1039375952446 63.53435691119866,662.2818623632577 64.75736759070286,665.208683087299 67.05968501118382,668.6129135148295 69.6926559614792,670.6006635437448 72.95256070541768,672.5269997134629 73.43560748973381,673.9048770960351 73.02372222057767,675.6338004211996 73.24942962299959,677.0959094316365 74.35890547797376,679.4916252859431 77.30071186934859,681.7615774358256 77.53719361064739,683.0528257452057 76.83566127844784,685.7905553553712 77.6484215348867,687.8487286373381 79.4881092072974,691.2687424007428 82.65648919612084,694.0793317170653 90.2182918282164,697.4784354657247 93.82969495667656,698.6527615913867 94.49808618903661,699.2714834954745 95.47567117401202,701.5101652290607 96.13177168841001,708.6624682329636 96.71809822444511,712.6777137974452 97.84835609130268,716.4270721911133 100.00944915893612,719.4088872315956 103.1065054313484,721.9842604237404 105.69973499248664,723.2683217900725 107.7684378827955,725.0064159426669 113.48067177844601,727.5429844402877 115.35304079451353,729.9070331382317 121.97157525356897,731.050496337998 130.05061605122572,731.7004749712928 132.7062103085304,731.5284487634004 136.17573002213643,731.7391086538595 138.89241569501127,732.9132346319471 138.80079019496503,736.2319323526045 139.71682035813748,740.8351823747277 139.42868698321718,743.715947458406 138.45136028605222,746.2442538234899 136.0115927643257,750.5504152029122 136.62922379468137,751.7009320369349 138.4626711277786,753.4547362171694 142.49843346058518,756.2171612438276 144.6192494095957,756.02115197567 148.70612829533277,756.4433106515208 154.40943276101467,756.2464473274628 158.77442407181402,757.6706224166278 160.30915358830237,759.3765941178367 162.48177373472947,760.8174314562199 163.60477461663572,764.4028735639127 165.0575828079416,766.7900616657666 168.10566226476072,768.6208916763982 172.03814719702197,769.0271805626561 177.88593611942076,768.0776255090204 180.0381246444814,768.4443728394183 182.91205123755998,772.0375146050109 186.56805311030027,772.9279072712583 189.22562979382954,775.0406312894024 190.26668824744326,777.530453999663 191.68860612958176,778.8057073276008 194.8392454865445,779.250600495416 198.80394352722146,779.3662060920059 201.80147439766594,781.1021445116586 204.519101156439,781.0225955669644 207.51486846459906,779.892809547193 209.522596400608,779.5151606958682 214.4961534990944,779.6371409015535 215.44435162709556,780.1382067957778 217.64707321345455,780.3160985948576 221.36435314327792,779.6633931154222 226.9028687682795,778.0229047194721 230.1749056185609,775.3416723845266 233.43763650097145,774.3678181115324 235.61913783637988,772.5416529281551 237.85359485838867,772.602364908229 240.3263866772685,774.9412302504028 246.10577661438447,777.5591006478181 248.55513868653546,776.5229133643786 252.4776198113784,776.0961382527447 256.39923683352424,774.8787668216946 257.4796680094411,773.9692788368485 260.68797537003985,770.3800327199228 261.97380223338047,769.6811435313309 265.9337090238598,765.7935497001312 268.8759313759945,763.5431053078671 273.23179046714984,764.8842563383021 274.14845950546015,764.8204362109472 279.806796665397,761.7835188862887 282.25692496757097,761.060242151234 285.16037549815445,761.3300982863682 286.2012274372226,762.2446561714606 288.2638506479243,764.9831931109857 290.82742120635436,765.1041357922503 292.0714229192631,763.7096695907885 294.85005806378814,762.5542325684615 299.36080701791076,763.7147327527362 303.1192030538919,764.02296161489 305.85910073440573,764.9035294565111 308.5815741544342,767.7099632617402 309.78704507888295,768.4997192018706 313.6495254693124,769.6520103494919 317.89599858507603,772.3942594583799 319.7420051547089,774.1139644117201 323.82794535266436,773.1828828294722 325.74265676435346,773.0392039087892 332.27791932040986,771.0008383391825 334.9196209620552,768.5762811574755 340.3489083219705,764.8481076930188 343.2973269517022,760.8656654699764 347.4867941171668,754.8922830659319 352.65028165754177,746.6785233155798 357.83665035336685,740.6953464336124 364.52067007026784,737.1831997529342 374.2133042956986,735.1363577932705 385.65861517728683,735.0509635092917 399.1143282543957,735.9364983717767 411.5805438022569,736.5741473816182 431.78531024830596,740.1100396103902 439.0366560801381,742.0251856723378 445.77430524171575,743.9498979535072 452.5185236539331,744.6284775847337 464.5136999159222,749.4804283016771 471.24795714581415,749.9082052996032 479.22419579345757,749.3447302279402 488.1917816342747,749.5142175429132 497.64327089394675,746.4644672958849 520.6248306882434,722.5013567626318 526.048891636373,716.2613908812889 526.9741629963128,706.5928918522025 524.4381487290146,698.9244089603068 520.6322409242543,686.8078961974081 518.8041523512668,674.9282098666746 520.1979974202233,660.5433157949852 523.8568598172028,650.1121517699588 530.5007796532363,640.6485508254318 540.6379327825936,630.1810502893528 547.2854584801464,622.4542725597881 549.2225633058284,614.7673959683165 546.9203625047684,606.1035881141615 542.7060635400394,603.5843796544689 533.0422510288029,594.7269007113471 528.9717437624404,582.6060006005492 533.3879099860156,581.3476384362464 534.1839430477271,579.7736758257598 535.0801945921903,580.1221163420857 538.7865243572147,578.8043045129641 539.9450576104061,577.831414258467 539.3770517728075,577.08285140819 537.3317936099401,577.3785380269688 536.2184903571214,576.2954891253726 536.976556456733,575.5186340393695 539.81186859914,575.0558865320254 543.8477718664712,573.79086151288 545.1538211458446,571.059034557355 544.9184446493573,568.3930838933103 545.1725640689474,567.5324826918369 546.4156339857981,567.2935138612299 547.8781730425444,568.1881716922221 549.0579833685217,570.3176910735958 550.3452814358765,571.1112778054149 552.3791918189304,570.6499522598767 553.8765747289006,572.6301554429999 554.7306944605918,572.8153059082638 557.9134585976661,571.7020547905533 562.4241472357559,571.1149230533987 563.666095353304,570.56325209015 564.767075941457,570.8566637341703 564.2783575767123,569.3487744798485 561.9305716468226,568.2477032150027 559.7478094206771,564.3624334240245 559.101141763962,561.9023609673707 555.7316384901727,559.3351727739805 555.6961135567933,558.0375996184547 556.9402619083787,558.1348369228272 557.5606357061577,553.4976788264868 556.0543152888284,551.9468734536224 554.9649086152002,551.8653017696132 554.0658759799566,550.4139745591654 553.6760854522713,547.8523923876605 552.8913997604101,546.7531948485655 551.6459974043231,546.2644491925557 550.5198891119394,544.5175849845823 550.4543777504146,540.7123066339523 550.1129407453806,540.0646516603753 548.2322074569868,539.9695671523169 546.4312771177454,539.2015350011384 545.3888781846468,537.8695974198404 545.3213294623893,536.220669638094 547.2278375133567,534.8536318475147 550.8530795496084,537.0221924681584 551.6322177285896,536.5652618025218 551.0855396522262,533.0504079787638 551.2184777211102,529.9084188440065 552.0817605183711,530.0383993739678 554.4607733947151,531.4607245537326 556.6797136389118,531.3274096812808 558.4755605935159,530.4147800617685 559.0777655448436,529.4047441480108 558.842317828434,526.7874662779388 559.3831835929055,525.6522023923819 562.0499015668884,524.3297822848447 562.618035060369,522.1940891773158 563.8268885965205,521.4478676298354 568.7728149569557,516.7570475567637 572.9259497113756,514.3583227430161 576.3036687718418,511.0561045838852 582.7350181541149,508.05483000155186 593.6405238165329,506.7706040437777 600.8025191397797,504.2662281658767 609.698839020711,499.0271225406635 623.0113922370339,488.567556649264 630.4224410529326,484.5755436539233 638.3373189123309,481.0740646953655 642.0227657178107,475.6057502701135 644.1825891864165,466.6756786622378 646.3250128766858,453.7875344068458 647.7294698024537,441.38700357663055 645.1834884251004,431.98830635294047 643.1993293732074,431.49720392753056 638.9836974072896,432.5069000002681 636.5145621680846,433.7588801467673 632.3169758752216,434.26863498315834 628.3253055525181,432.30195570367675 626.3193201422703,429.0929935704054 627.0086870085398,421.90608053989456 627.2194907150999,415.956160339335 628.6535997450001,407.77551442316974 629.3354069224862,398.8496210557278 628.286043881771,390.9302080901037 624.0324020087551,384.99989517577177 618.3038111937799,379.57510866337117 615.7527110035137,370.6646197240857 616.9500381924955,364.71282784235456 624.3560098080409,358.9852619423364 628.798119982032,356.43075305675774 632.4976847817455,355.15100041831636 633.4646926108579,353.383064250932 633.4693068651104,349.67688634239204 632.020145889097,339.35181533540447 633.3087596808924,338.3860444132543 638.9409412942588,338.2377616804716 642.4557297988932,337.21586214199135 645.4398401446792,336.8515206040309 653.2522465915617,328.601595984331 654.7102236710629,326.51228230160496 654.7087430039693,323.7664460264972 656.4823300267127,309.739555661748 658.5743891948714,307.1639617260289 660.4994512021813,306.5227412710342 662.9202118415443,306.52815428333287 666.1352189301533,307.5043505905802 669.0382495872043,307.51503849306357 672.0978459280848,305.9016536762439 677.569977712165,302.5305398079996 681.4409270808314,301.24086289339095 683.3792903645136,299.14894921284787 684.989911606274,296.89522735013463 688.3731354248919,294.4774485715987 690.311462830502,294.47591224061813 691.76104180997,295.1244568361387 693.3715086348518,295.1244176662229 697.609308957272,293.39555341437926 701.9166239002791,293.51553311225666 705.3102020376774,295.3247232234569 709.1533818836623,294.77508581939713 713.2181578452708,295.37169159897167 715.9594139600706,293.91553662293757 716.6058198656518,291.8218470961616 719.3461831693506,290.2098816923159 722.9006117589765,289.23187649792936 725.9489077463285,287.71231130029486 729.5891833700703,287.5296485370758 733.708966819395,287.01783511847776 739.4635902843,285.26462431180886 740.673772218066,285.2659937247185 745.6702391563131,287.60331836470357 747.8303179507071,286.86753165209785 753.5379285350396,284.09187226721076 759.2422878728893,280.567556245815 765.1670592821746,274.32073783130386 769.3547395048927,267.3496944339888 771.5627092652477,260.39025925064664 773.9679452245296,250.2089903648034 776.1320150945709,237.05914948007626 779.0382647859377,224.8969235774681 784.2191904354097,218.15666720322338 793.4027003515554,212.6181444272081 804.0811665131783,208.8094876269364 812.0357442940623,205.51302938751758 822.4374790143767,198.24341543491107 834.0934546154255,191.94744325432532 843.0520726046261,194.1078508311109 851.8769445280745,209.40139859838132 858.1043835667614,212.0758651173054 866.0469254326977,210.2889056475102 874.9622356818637,206.75620875266736 879.8913146910335,205.04989862925243 882.0934763282703,203.25036108944755 884.7068861661648,204.76199548293505 887.6622104001812,203.81522382849766 891.2090620745345,202.24919290862374 892.5954964884879,201.15767957791866 894.1311129856695,199.29297037336892 894.8385094042817,192.8738024598307 895.7163526970269,189.14223557019739 896.0639816833993,184.3314579634889 896.4846129785986,181.2820372555891 895.8833759887984,175.45640177254302 895.8809103948264,170.2985352594568 896.7230888839683,168.98334492529318 896.4722196333174,166.68668358334912 897.989205170845,165.14972950385754 898.2194042933331,162.7634303994189 899.0431446046676,161.73711223862676 902.5613046566876,159.236421327995 904.566107981774,158.67067250589878 905.2667285969608,157.83222026153555 907.715377124996,157.8237570411129 909.4102409424768,156.86194707001403 911.7087024428655,154.3852079166843 913.2225978210245,150.8298913760268 914.7731741506832,148.31908815377392 914.9436778929294,146.28463997296342 915.4698508693842,145.3066749967686 915.2933162465627,143.37619045499935 915.7485390482716,140.9969996772371 916.4963311714106,139.45731371988018 916.5969181639421,137.63422665411815 917.1644495946525,136.6559768732385 917.243813355302,134.68485610697178 918.8166403682601,132.52426190910933 920.6154726990027,131.9120072205949 921.8554397529555,130.54096377088888 922.2571014330048,129.2533880253336 922.6724961651694,125.55817043959337 923.144290438171,124.1057237287057 925.8287284566625,121.1664238006557 926.7274312504435,119.33795212466418 929.5535010395329,117.72251958784625 931.1292107864981,117.47825179751396 934.5751914598802,115.1338528482039 937.5374429840821,114.03104045383668 941.3916800986914,111.57441192656745 944.8756841124991,111.86954432862149 946.2766346911188,111.57219645736973 947.465425803576,110.1146935267783 953.4218397007116,108.14173025216348 953.7562022289934,100.28936705017065 954.6914048247928,99.22399528365247 959.2636849311098,97.1284016635642 961.0625526424265,96.62474685793484 965.879441551156,94.29355221811193 968.6582884137476,93.37077185457474 970.5950320449006,90.73961128684005 973.573123335091,87.6661992668545 974.3611306609774,84.6310742142199 974.979722493908,83.89550883283766 978.2442220659599,83.61472532166613 980.0833781106472,80.1826421520974 980.3274626127671,77.17625273067415 982.356399050239,75.923232484354 985.3679314457162,76.23569452698746 989.1296098837702,73.92735995097257 991.0210893760581,72.19279739078593 992.3805222633221,69.05277696140342 993.3384169485029,68.4076485811014 996.9461746863166,67.61007218517977 998.7695906575772,66.33555203490937 1000.8649912417343,65.92318923717414 1003.027036664192,66.19494366734239 1007.262322505753,64.36598116167227 1010.9426104654061,63.76969089365866 1012.4606404681197,62.74599493103972 1014.7971064796537,60.346854757029064 1018.6457426432798,58.862149725766926 1018.7211870224141,56.73516285054848 1020.8144518148255,55.94173245091304 1022.5114593827107,51.62308254378149 1024.0,49.53407533878499 1022.1701170873213,48.48145192194113 1019.8968495556004,44.27062829194381 1019.5860238342108,42.35853897889308 1018.7532404347727,40.52717161658711 1018.4488412289751,38.18671748880786 1017.079664663697,31.690107119022514 1014.9889873485001,28.537792914807028 1013.7276527104423,28.18166251776222 1008.6847998181851,29.9239097274168 1003.5014129011289,29.339381845032904 1000.2800485730206,29.65088168645366 998.2382961984902,30.33542514390274 995.0292392246567,33.77573952220314 991.9337408402363,35.923709641678215 990.5769871186467,36.47115815692416 989.6026471211717,37.59878446379662 987.5710539973977,38.383650539631276 984.8708924040799,40.00722846020949 983.0100417533056,40.32461280577513 979.2805863082182,39.751215620272205 977.3968074892581,38.21591811237249 975.8662677791082,37.48816996528535 974.3620848383121,37.482713690330115 969.2798659495757,39.63669528167645 967.6007236331379,41.01790461515316 965.7224739364779,41.739650854966726 962.7721164311989,44.23623746943838 962.7457462202104,46.22869666547285 963.2688315027478,49.29994269648773 963.1857805043317,50.62438373925772 960.6000837873308,52.59701021604417 958.1934775864191,53.90531367350309 956.2476876525791,55.328236170747914 955.0167496537841,57.82014142522803 955.6474462984493,60.19845057596717 955.3923165443596,61.84314866692296 953.3748997605038,63.0945468682562 951.3439555308673,65.45245472847 946.0675301637211,69.40538629475395 943.91638686931,72.09819241301125 941.436326817668,73.30713493169605 938.5633380191606,73.7940599992279 933.5071483952631,72.44953668754954 931.6533061895803,72.33017295449906 928.2813906683867,70.35209392434172 927.2578937188815,68.8869889732531 924.6460749218372,68.69475577624996 920.2183481487855,67.85270360419565 918.1222109225629,68.19333468505795 916.522283540507,67.88493256942354 915.1636451667591,68.25196549608245 912.6504366295816,67.53641865202894 910.5321740718962,67.58936585063236 909.264210120884,66.2360466888025 903.8537274687017,65.50802319370018 901.1016369853573,64.15567858988288 898.5877992846099,64.79503794253753 895.2566506236377,64.2326194840474 891.7699344127066,61.631291716293845 890.2242567305625,61.649901723824655 884.6257201401136,60.206229687531504 881.9786332123432,59.2659342869905 880.2831457041351,59.938629196088186 878.2531700050572,59.31987824990904 875.9607312940096,59.506346556558924 874.1225671455223,60.14848819894314 871.3494630645657,61.96455049227188 869.3781717836146,62.568516105546905 867.3998221703106,62.19909534820374 866.0184972420257,60.635134215769654 864.2064719993718,60.69291918774445 858.2998742382127,62.29449306907179 853.5414453709317,64.21536767066368 849.9400324440546,66.16793601418487 847.8407211301894,66.16557070158558 846.1988639042371,67.15649947534826 844.5727633852472,67.41510293750184 842.0309612960299,66.82370495632097 837.6651771407812,67.8384725297874 837.1482982157796,68.64407336637032 830.4123730322589,70.43522189712792 828.3723385249746,71.6780937274342 825.0414725524134,72.7641363996263 822.9808060997522,73.9518753695578 821.6061511236765,78.70896660799201 821.7106835919667,80.94389397612883 821.2752533387417,83.52374610474362 819.5049496118568,88.8130678867335 819.5204802023212,91.47571905142138 820.1817233288098,94.2524890831487 821.4138703548219,96.69064239917759 818.798240013384,99.37621710889982 816.8289151484455,100.63359847005108 814.1204958408754,101.45936573469237 812.8038282483417,102.2067434067335 809.4413859842336,103.33251584156062 807.8445077131821,103.4119785981103 803.1756066565213,105.41676482675894 801.29265057206,105.4815436048633 799.4359287338312,104.90804189550568 798.1952457444474,102.9369417901413 795.6591960087154,101.74425840661013 793.54018364458,103.65641250017109 787.2130708353234,103.76204435475097 784.8098111260449,102.53702948427258 782.7406258202816,100.60172395038569 779.852862968473,98.61572816232501 776.8797419107067,98.0793744676439 775.9752870569571,97.47650328594614 773.5046821232561,96.9221777753038 771.3993744312106,97.68095253953311 768.6552988132948,97.6493041425008 766.8655186509169,98.00937355952465 764.0712627427275,100.11065009396532 762.4162156566188,100.82899333020202 761.2050405720073,102.27605178739884 757.8938774997043,105.34573202454033 757.6788343780764,107.27846700069892 755.7072870424644,112.07896025044647 753.9606095416513,112.99125549448536 752.2253995650073,115.90535133346816 750.6962711811286,117.37018770995564 749.4336600013243,120.63973854275287 748.1489533013889,121.72148419312089 746.522050363936,124.03576208897425 744.5505546964237,124.91014832523081 741.0386361053726,125.11543945078517 738.1666904689165,124.3050432088205 736.2573356814736,123.41178054617637 734.6086007239198,123.57595594886448 732.9060568589109,123.00819951785195 731.6371357146168,121.16852032612553 727.9003648021542,117.4486849700927 727.5368933364413,116.40686382632532 727.5074542066651,112.67687993674872 725.5895367327868,107.92790513301804 725.5029082991099,106.97769252628541 726.3927857966279,104.73014986802184 726.7043359908662,101.59867945673227 725.0853768663424,97.29268639864688 723.1242880500412,94.23429304265312 720.8235954685017,92.74251687908145 716.9730244102409,90.67439129767217 714.4288132081421,89.55033632089612 712.9237194711957,87.51804154683487 712.5842808113413,85.05927577214231 710.7152024763668,81.81312882551549 709.2269678884984,81.02660819118967 707.5122797485338,75.85780708406435 707.3393516917265,73.9584347768266 708.2423313372226,72.40528799112815 709.9072747990066,65.29697893452283 709.7892295898638,64.19116925741241 705.150130589663,61.83994830176016 702.5505679802427,61.852591739893 700.0265696312705,60.57240463896153 697.5061227755629,60.2190044209367 695.3180865207768,58.532616325247204 693.4652078616807,58.493894910954396 691.5867287963064,59.546512039415234 688.8315021308302,59.194045896073476 686.1743152044968,57.78982514173799 683.286660769828,57.50707234908998 681.4694120050613,58.49651285941343 677.3661268627864,58.819530909133846 675.1595560682599,59.716587852002135 670.2349828837085,59.56079850831304 668.0560561526104,59.78057158727984 666.1405241356609,59.50918474501259 663.9733120541721,57.85349694739625 663.7781319719933,55.5572599807432 661.0599176097007,54.19169419325942 658.3750219355718,53.589461289582914 655.8597818071471,51.74808710007994 655.0253546635897,48.28017140942438 652.8061527530139,46.32061272836779 652.4630264099834,42.943508021804405 650.7909529696274,41.94727137761572 650.5411009002815,40.93608518711153 651.690240359947,37.06245200217347 646.034676499058,30.822190777666947 644.6940782286089,28.563380697600564 644.5102349716935,26.34601212592088 644.8389695138039,24.29079188870469 644.3737981348088,23.08586190996141 638.9939113109898,21.397216444803576 635.3689740672872,20.80610797401107 632.6510243377749,19.237663903073212 630.1604222712846,18.40037236904402 628.7715859806327,16.686671180723465 625.3413508075764,11.10544634341386 622.13455130808,10.107694935161703 620.5148025750196,9.258988017151069 617.8763177781832,7.254033054474576 616.4219114954707,6.824209376679278 612.382747539577,7.362128216137421 608.3828610540121,7.394686340335852 605.522989320381,6.24691129520113 603.6260104488911,5.071401005154939 601.3453192154568,2.7153161995090613 598.6036655375397,2.702480849146923 592.768238812741,1.931769503641135 590.8728662184584,1.115109957523714 586.1848578998414,0.5104495659428494 582.4838805819803,1.1628386999427676 579.9427225187762,2.752664202240794 577.1713624739963,3.019554196893978 573.9129248233957,7.280030781247547 569.5653376441318,7.452101938294277 568.0132633830802,8.127341757282693 565.6258154999585,7.155294967470695 564.6394885533598,6.038515052064213 563.8343047503046,4.213759498915579 558.7959120144719,0.1085019667062852 554.8273206825551,0.20835493526180926 552.022525043008,0.0 550.6525398743682,0.21580435778002993 549.208441294998,2.577543959595573 548.4291161609696,4.969343910313455 548.4033465887316,6.37754164814919 547.3740575992932,7.4713479186573295 544.0421236223208,8.408892541450541 541.4524648775753,13.919541583102955 539.714432533063,14.306297937204363 539.138215653083,13.491778569191297 538.891921216854,10.17029128793888 537.7114727576392,9.045314438670516 534.9858851767452,7.864016528148909 532.69286313576,7.693451306443308 529.0790840847419,10.087225344413582 525.9316962830494,11.038770099203589 522.3013819162757,11.72038966919547 520.244284518108,11.634232117200213 518.493643832122,11.126326471700736 516.0902953095115,11.351628759954565 512.5177480419865,14.13408919051949 510.33654953261583,13.464159388954045 506.7009728578255,15.553411184498827 506.34596875902196,16.75283669948783 506.98564423435454,18.221608124489535 508.26886496500913,19.656942903727327 506.95705692566946,22.205896439840103 506.1161075829582,24.59002333468254 506.62223369301324,26.1057269724688 505.46903495761376,27.13682806200336 503.5063270659068,27.76601748444557 500.9165086071555,27.555759841206964 499.8973239146437,25.637173873239703 500.0000644229185,22.515684431327145 499.2287463271094,21.078653901543703 497.43271257358566,19.605894358112096 494.1400799748369,20.106059785878074 491.0040781665685,21.80501804107155 486.6665901430007,22.330891683894492 483.41172429102244,25.18935642644351 482.2233813001182,28.360587705787225 481.130410714784,29.017074753529528 480.21884789809826,28.561247524642113 479.9897870513149,27.246848137945676 478.98693774762916,27.148172569852818 474.94884216441875,28.467611955334405 473.214055328841,30.106811578885413 467.6544035820103,29.017653228082736 465.9182407579108,30.213341596316923 462.58575414359353,35.1338233616259 461.2336341509812,38.46859771243214 459.65585676512245,41.31407828287047 458.91610025114716,44.1420518997503 457.31650537716354,46.457635053167905 456.0031308143455,48.944355986199525 454.3799460617404,50.42830720233235 451.82492210908777,51.82070296656673 449.7994932524352,52.2847785583964 448.32887527491675,53.2934620516628 446.25160895720074,53.46237440488471 441.96033803721394,52.68761634109387 440.89749441753827,53.2592892544518 437.68633825893374,58.11706904506241 437.90476498806737,59.5721587688347 436.7343775388489,62.112353736632826 434.59155764458757,64.5317727171797 433.9827576527178,66.55678174520312 431.6515078099961,67.61397901049281 429.05617981441173,69.30229926479535 427.77289552286555,71.84376778259593 425.22355611562375,75.80513243001758 423.85380429101826,76.54828995240723 421.0748262017449,78.82845191930824 419.96750867690673,82.18698288676262 417.95644856285645,84.84692851676357 417.32550014166515,86.24140143135605 416.87351226312967,89.97248177513984 417.3744999959504,93.68501075411041 417.0978533323056,97.87528177022841 417.3403936997273,100.60755003710733 418.7628871467797,104.74715493380359 421.25171543043217,109.05497799750242 424.7241071761718,113.49330947205567 425.1294426392679,115.78932123487414 425.02268438648264,118.14177023591265 425.1862056230149,126.13985298311582 425.69255222241304,127.9932887008465 425.6482216312505,130.66460861009875 424.87695864147196,133.77465961903306 423.54080198671824,135.9041474688396 421.08892447072446,138.2310442509637 421.5584322063124,141.93820593803514 420.8600044407377,145.36707403068 419.93198754607937,147.0986125467076 418.2036317959448,148.06102423666368 412.88813374132394,152.45272511399457 411.36587805994054,154.27105338327476 412.2503060453485,155.57749974982903 415.7062850307434,157.20541456454384 417.18390365608235,158.42495012814584 417.29874324768383,159.3049753192479 419.3329671580734,161.6294556757116 419.8014958941612,164.53525722602558 420.8567988260707,169.0509779889477 421.15947367200664,175.37673880258933 420.375087205049,177.24093540548904 418.58690884627964,179.13137782194565 416.552234364017,180.70228129434975 410.37028503919186,183.5700066707484 407.2186369091312,185.46999539356545 402.51102130578334,192.40873499416762 392.1606996693399,201.2081448890857 388.3437273304189,203.6790209060979 385.3747061986661,204.88589193922473 380.17088498991,206.0033644307846 377.63177900411904,206.89010178912656 375.7279002644248,207.8987471574436 373.82612323498864,210.40515776472193 371.3349723548684,215.01615185445837 369.84736175616644,218.94049930097253 367.5555061434305,215.96684535947975 365.31351790549724,212.33228594653156 363.20198296967374,211.73628167037612 361.3734401561717,214.8966171854821 361.31686018086884,217.49218987643326 362.38741235643676,219.8908855996084 367.16112606356774,223.51286244115215 369.2222702667303,224.33492139245675 369.3383330311293,225.96441863443624 368.6757807796584,227.64199534403122 366.6287856303988,229.09525049471097 365.1555173864004,230.71278779761735 361.28680319079695,233.6122083288676 359.0040846609471,234.879784154763 358.1662826790471,236.74472782547355 358.4142137310157,237.35958678110433 361.154256667461,239.2565004785065 361.60971424343967,241.48553417427968 361.23358818705213,242.84996599782448 359.56482308433436,244.18663811837587 352.8243657479398,246.74851077509584 351.1771272162954,248.33483491099548 351.605129856996,252.4510608184628 353.5165963896589,254.96503869301137 357.2277119820144,254.86494776984284 361.66161622414063,252.21329680641395 365.1110424200062,249.50829004023876 366.41328047714495,249.49054910271389 367.6043839856597,250.2905848275617 369.3000734186741,252.2521329210672 369.9891805672426,253.61550888211707 373.4534049465157,253.01579044470157 374.9624800840534,254.1741348012905 374.5450470720755,255.55491452378828 371.2923896372294,259.24173496477204 371.6845150163006,260.5440648234828 373.8846731767588,263.4713185071854 375.3890842617267,266.9612436904366 377.20752278366507,273.50771150151854 378.0452560180543,277.13957931947743 378.16447773734234,280.1965453234773 377.3517433145425,283.91838184174276 375.19685701286244,288.1653326359216 373.2853344707281,290.789591688167 368.08940137926066,292.9532971415865 367.43743421829004,294.81899611707115 367.59862102148065,298.7334535878015 366.4205190352446,304.1959567481669 364.4438987904889,305.83068664180075 363.39805068308726,306.0901349213328 359.1723092051494,306.19897058530177 357.57359358784635,306.82604225094366 354.7465900282844,308.6644703032427 353.385008181503,310.2827040934658 352.56073523978455,313.5209718738082 352.65903456868926,316.55527214152863 353.105285662544,319.46455133699806 352.60162920488324,324.4898072379397 353.9296467389894,326.9594410759792 356.24074502853074,328.4841816038384 357.754204463949,331.01722232343405 358.0861014451408,333.06047731353095 357.8631339634616,334.4894692635751 354.57162937543546,340.97889750174386 353.9080841658703,342.5871497270485 354.500535426331,346.7300420036527 353.11006011267256,349.1204510941834 348.6837048975614,352.6941560435918 346.7796388581739,355.00757311882296 344.8993432859077,359.295589450571 345.42831736047265,362.08793695398913 347.17464270510817,363.1229112807974 351.8822282547384,367.29712144000587 352.0173545228615,368.35017122280135 350.2118373857892,373.9498839897969 348.995180094298,376.62864885803384 348.3805765766979,377.19212022367884 346.31369329940213,380.92680143008243 345.1940830176487,385.5886652521539 341.3835130615532,390.098538234015 339.2414926758854,391.9764316392833 337.730533732836,396.58375374278785 337.07663011895386,397.94315425760897 334.12529872800434,400.7588678789472 332.9917711395236,404.4451896312102 333.1168921106882,405.36633919490566 331.7647393297049,407.1097226681416 328.81224469332943,409.44082893785287 328.20930115670393,411.3624261317342 326.6942653778133,413.91816217179644 323.26276423530044,418.0461446055678 321.1093424356166,419.92372014005855 317.97193850227825,422.2472802560637 316.9353107045476,422.326781549872 314.9068119633498,425.18812857485983 313.9461132011961,428.17971853959443 313.3193593349811,434.2711788457733 311.69130999426,437.1859153412699 308.2449857555984,439.94765445491475 307.6407666176789,440.69797630979656 304.9207022895772,441.7726152370622 303.06173177995566,441.47795909755115 301.79675624542733,440.00476323544723 301.6091158824749,437.7708504877055 302.386657707171,436.0286569460901 304.03616496512814,433.7779997347783 304.3083170274793,430.434969986497 303.9752913223191,427.1717716407259 304.46123501289975,422.1814390446497 305.2852971199366,417.4025568587333 305.5275633320321,414.7862682062077 303.26650241212076,412.51863996896043 298.9126072775211,412.05560539669597 296.3030935339466,410.3420255943527 293.5713935338435,409.5574894190195 291.67748132903455,405.91466289085463 288.6678057882464,397.12795689468976 287.2399843357962,396.09171236201496 284.7555781432413,395.9241328828696 283.09353406391125,396.5664961654228 280.7058915060003,399.6213110800282 278.87152789156323,401.43500237413525 275.65911820701734,401.8996942314631 272.91735767688385,401.30178599143636 271.2311096440368,398.77440104632853 270.4076474283657,396.9802443852215 266.85404732675045,395.27471748654665 264.3083967241151,394.6763852248368 259.23266618069,390.0147028556753 257.4358331200339,389.2196645925569 252.03571645538835,388.58520265835 249.55313585160786,389.057089044665 248.31067766326854,388.6203768660419 247.92914813310676,387.32523112697135 244.4389533306615,386.68092336286577 242.5420087990953,388.0020804789012 240.80752488858246,388.6979986674269 239.0734704028072,388.84020934125925 236.09701420804416,388.56177770371437 233.25489913469931,389.5873340069753 230.72106039736366,391.1586692264992 225.90939711115817,393.6910529163085 223.10735888192707,394.4038075247673 220.43818237665673,393.50076918022785 216.56680806107624,390.3341015598944 214.79904070678268,387.9865827886967 210.89772199479435,385.6946133850119 208.10550440386862,385.0801228744699 202.15325369653334,385.021262216482 198.3658545122485,385.4993854545521 195.13341945110892,386.165241781981 191.4189973454316,387.8845616154157 187.3057722346643,393.20181066767526 183.79711463289738,396.04437158458563 178.15208181531736,397.9750454601836 173.74952496930453,398.78139713642497 172.55854061051423,398.7267005309296 170.72185168893603,401.2340796406423 170.36357445935684,403.34186944538766 172.0069646095553,405.182902783692 173.20856616718933,407.5950651918973 172.67539737340152,409.14059620130627 171.06414407252103,410.9060476062739 169.71005365862692,411.23419934979495 168.3236580085426,410.25925390932684 166.73108462036427,407.42542462799395 165.29358475211646,406.3953089462785 163.54838560279887,405.9200304046474 159.50430576162884,406.0379758979492 157.6358268594397,406.4915718578675 155.0400156758816,408.825872803228 150.79108094742386,413.23026037454713 148.75857829285476,414.8700501983943 146.66432260735755,417.0018540019583 142.91780383255983,422.0774271487248 141.44986132328057,424.58322001606274 138.93551989032304,428.1521187851324 136.46144270859156,429.98747308113167 131.7591860059959,432.22083604580416 130.3217204985256,432.3852544291928 129.04838521724838,433.68079920433496 127.07702505368718,436.7963292992339 128.02123181667008,439.4046655026819 125.28031819736135,439.4122217480789 123.07235130009984,438.8887675327371 119.60139311339891,441.707808001297 116.60348531891185,443.14476099059004 113.10162933528288,443.6440071548516 109.43541357156334,445.4786559838396 107.0327808735588,448.2823454823907 105.79968184022535,449.00018123028025 101.46611240103991,450.3186381231302 100.99370703718611,451.4983423610016 98.90882919100099,452.6063034949533 92.49087754857995,452.2531670762501 89.92318966791711,453.15861066718503 87.42762748760227,454.8296535813241 83.79054652729724,459.5216645549147 79.6307168945006,461.8948413355961 77.2673932474722,462.9168859628385 74.74103582893585,463.47813783166555 72.98409716540355,464.4376401031372 68.72970013215205,469.85669233564363 66.48871441152188,474.8224370117884 63.48783969263979,477.28214380666304 60.21104421483879,478.9987034237926 56.90279504990088,479.84030642670564 53.215066690329984,480.48693493372326 50.1841902213575,482.3980238230854 47.923569669465884,483.396848022676 43.37097328120657,485.8777310151476 42.34339999925344,487.1584648126398 41.23204019753418,489.42319919336836 39.903054046519514,494.71891326679395 37.32042124346828,500.9663886408246 35.48743598471301,506.81750598510837 33.61539026430869,509.2459560704521 32.17649512620299,509.8850150085203 28.899075624781727,509.54607517253555 26.691744238849417,508.37310784881885 24.934152139071408,508.87880329621487 22.853791390567817,515.0896187837889 20.458862689918842,516.2586705372122 15.916628161306024,517.0677725757826 12.567278289439967,517.0332762353196 10.305946072276315,517.7729411715341 8.309980833021184,520.7567130708994 5.512796452225759,522.980509411115 2.859986303640613,524.6972172137716" /><circle cx="402.4243303142215" cy="512.3435466178688" fill="rgb(100%,100%,100%)" r="16" stroke="grey" stroke-width="8" /></svg>