<?xml version="1.0" encoding="utf-8" ?>
<svg baseProfile="full" height="1024" version="1.1" width="1024" xmlns="http://www.w3.org/2000/svg" xmlns:ev="http://www.w3.org/2001/xml-events" xmlns:xlink="http://www.w3.org/1999/xlink"><defs /><polygon fill="black" points="815.6793728363148,21.015995847764202 810.1918316137527,20.147061250357638 803.3360012556755,17.02440826098507 794.1985356601043,15.275749829074584 785.0514796036969,12.1745181372645 771.7881070889329,9.106789849870097 761.7597517519504,7.8132179805477335 749.4408282951217,8.368540115497126 741.2508445510997,13.42988893046197 733.0959367548808,25.291389659744368 729.4895547921593,32.1273890838321 725.8839273803218,40.78123562004248 720.9306746626514,51.263135185219426 712.7492532768879,56.31390647318926 695.9172474752836,64.1483347312419 677.6627848412377,62.45827999138908 656.699655461863,62.60397161318633 639.4290334504948,67.69472622738795 618.9419305484593,66.89384819119675 604.3889021975144,67.42129705875209 587.9997747340758,68.41610103246319 570.727993099034,68.4937065670739 560.6991719391625,64.90717708905936 542.0938098399116,52.63462259553194 534.0860519332167,44.44137729115539 534.3232449442675,25.12243239372151 527.2913635469179,2.129001163633461 513.5673154953834,4.252962098338912 500.8601109094229,7.475917087097514 487.2584519372947,15.245671841674607 478.191799203856,18.915662685857228 469.57278743673,19.85557610765602 448.5824608051531,5.409613171237993 439.4605363571703,0.0 426.31274756906015,8.670866329823752 423.6293269113526,15.960432399690035 419.6124902909639,28.693254253077725 414.6816893887546,42.33864965736336 409.7504312501423,55.06994526250003 402.50264042694164,62.37606201248809 392.08896187284853,69.23339460935108 376.61738735653734,72.4962406176968 360.2138512581297,72.14341134256995 342.42480966773036,69.53005280569448 329.6496012819601,65.06479601549279 314.10435497096915,60.64414795255561 286.6141690207976,40.43031314759219 273.80327626185493,33.71604187643845 253.20087581859403,22.548969234872402 238.5596538582294,19.496464205166262 217.54201076283275,20.583945503303994 202.4792515918124,26.62832923928397 193.15838539758587,30.808407718552985 180.80430840072492,63.85542262083652 178.80477997370238,86.05341746288752 175.5632790742359,105.44906782808528 170.00007702940425,125.2066472010855 160.711007589623,147.05073321644034 155.7925873952224,163.2010044444221 149.43252913764852,199.2883541132378 145.39153480550948,216.387950941521 141.5847989515177,228.9423610773506 138.0205811504712,245.6073750363455 138.81758497593026,257.0248289760125 137.88581512175355,276.07609034966583 142.68600117274778,289.9388659997479 144.17340851115736,306.3878721543059 138.4552567032348,320.22237684210404 134.9739762257336,325.9753172913847 133.77602567898802,340.92526186633506 137.37218938270445,379.3093006031196 130.20742984133736,403.98893861215663 123.64704739757157,425.97649987116836 116.37609264313056,443.3719948961832 111.04348805094361,449.9481465779504 103.86322369791257,465.5252657510765 94.73776554212843,474.65563546374415 85.68782353677554,491.5112168317522 79.31174312108216,509.8579337395531 73.62714239018692,523.2363433465318 59.364141610952466,534.8371813406598 53.668392604612926,539.1051324259583 35.76919745930805,550.5139695058435 23.46894996189216,559.4644782534294 10.965519673843744,572.4924362873139 9.36602149093243,586.9725072624651 4.154408465048958,599.9093760795452 0.0,607.504359989862 2.713178414579523,609.2117033390424 4.287263495802919,612.9768911526568 6.364804187827681,624.7402016386686 5.725044152267868,631.2425447339415 6.645413873583749,637.6526917952708 14.167796023449176,645.5688570032345 26.310977575321502,654.6498485570505 29.14677527658773,660.9722497663828 29.145973593069694,665.0988457762711 28.128868597897878,667.600083474827 25.08428677491877,670.5906418353957 20.024859794384703,673.1962565126585 18.80322400970388,674.5006257253292 17.8887886489692,688.0457435570688 16.938511703494665,692.2817501699698 14.992064567626635,694.5041742410268 8.346018521877166,698.730146497232 7.5525750285704705,701.6354500960549 9.753800717256917,703.9525428858992 25.14853086162286,711.6580925192243 28.511374908425303,715.1934093051888 28.20784531592088,717.581376548005 26.109658781483127,720.9939253319219 19.34088244241242,725.2172587181776 16.663199461952733,727.7488639914459 15.984284382751369,735.8544576399597 17.2940758014036,740.5428779801401 16.76693794831985,751.9836450352594 17.043504442530107,755.5777081820281 24.388312458155934,766.43724784197 27.866923612733626,769.8464204261043 34.27408779227718,773.7340826267018 37.538580442924165,776.2692646095416 40.78598485157729,779.9362425666086 42.80474329941777,785.1831626691051 43.59459533798532,793.6816898057164 43.0458021266866,798.9885005568137 43.50640967918156,802.26177075001 45.26220643743416,806.1676462057961 48.36990260372019,810.5666864582358 59.875827502402885,822.0797863335081 62.00085923356713,825.484885435588 69.24615071131198,843.8889154427418 71.5096208802005,848.3977753422084 72.45782457808335,853.7430541150018 71.31258914963894,856.477336682003 67.72412523274933,859.5922249652765 63.72946788062445,861.8286275861367 60.411056939270686,861.3609091509642 51.45917720554012,861.9470977473632 47.71382269514972,866.4538587460959 50.18910072635556,874.7000274102325 52.74779485216354,879.6168503800446 60.20854499667138,896.3863606334293 62.096713130359,904.0805797207431 62.72696721857758,914.9762387417265 65.08625664358995,923.8855105427881 66.65771292762477,932.5098240057065 69.82001631472889,934.8414193015255 72.20361623750128,934.828062687003 77.01215542807698,933.465803501347 82.9269280342602,930.6114261701854 87.97783569694985,926.8595054595575 96.9406453656968,923.4263926618593 99.37074913750055,921.4865290596152 101.90730381187242,918.0799090943161 111.53423772081696,912.031090461995 126.19950306481451,897.9678030706702 128.19395655076792,897.149386303143 133.60417637997043,897.8607246399655 145.1318185475875,902.8591823190055 156.1253701837313,907.2116575165267 164.82963711633377,912.7837051513744 166.90882242836443,915.6887099330761 169.86519631711312,921.9081063918175 171.28580651726443,927.6525444243312 173.46227605272387,931.6205826940833 174.3807899936418,937.9636882426619 174.85488017707738,948.3569405986784 175.18923003098087,949.2928709707621 184.51563696221356,948.9541690323163 189.70715822514322,946.4565762760672 194.37753894590708,943.6312184212862 199.5739454828151,943.5307114135853 210.04869602404275,949.6741352585459 220.64551621485575,957.2058298906828 224.39080249362627,962.0470604018243 222.50305730812565,968.6307405159914 234.36984821902166,991.9008235225815 236.70820025192245,994.1984209576784 240.88216284145093,994.2967678280228 247.8731344594353,991.5149980764758 262.35531255540434,979.4315739457704 264.1161243733613,976.0150504310336 265.7157738765526,963.8054207619798 267.38451091746543,958.2553224747824 269.94784441193934,956.1741082003872 277.1748954571077,952.8657631747332 286.7723584290135,945.6869016850764 292.53098279045014,938.8978999216001 301.22383402710085,924.581592539839 302.0408221614909,919.6756810272011 304.1624535903691,915.1986999493619 310.2324636116246,905.8788174714472 315.5107692984569,899.6095635176263 320.87707882417226,888.5501723010652 325.20778228055195,866.0822181041376 328.02132328924836,858.4310836822492 330.12484706461055,854.6157433934525 333.6177715991258,852.8331388884965 347.50496885830535,849.5565131084484 353.3857447509817,847.4303755983868 358.5941474060745,843.1572372840461 364.80828652300977,836.7164075151226 375.11792303737576,833.2346907054475 381.25324742098906,830.1858941996837 383.8293050307579,827.0551275933085 394.224488012658,809.0718598847654 395.7258272437142,805.7755553729204 413.0799780595535,800.2016617842912 418.6594441540983,800.0734830931942 428.6694242745417,803.7774514261826 430.81377738543426,803.4397439767812 433.1352204924849,800.6992194621502 438.12234234455843,790.8385463737961 439.94399947353816,789.0144289482253 456.18886651845025,784.696868540462 459.7399578816501,785.1739267017504 464.3197388884649,786.8875450587334 468.88465702284566,790.2006275485916 471.75075622560837,794.3930956400102 473.2603607430746,800.9477585867807 473.670539348504,830.1120013485629 476.27056947256995,836.2233451080297 483.4164067301659,851.0511466497387 484.9659176380062,855.8757934954074 486.1617617306112,866.0134923314442 489.5014899047937,875.9436629301208 492.47942686614266,880.679409576222 496.67409072883515,884.2390613328811 501.6202108389856,886.0927019840151 507.4266171025331,886.3656453088657 523.9452300578992,885.971985564115 531.398922645841,887.2187934554031 536.9311647505464,889.2075960817044 539.7120604493799,892.8062140386377 544.0774986567299,904.7583563092338 548.6806910596,916.5728970970691 553.8827538031078,923.4881100045282 558.3592995339778,925.4528362650003 566.1944836927811,925.6362673126547 572.9546624523506,926.4597762791291 578.9509469387209,929.2624969770754 581.8604453160842,932.1516090579867 585.8693581911709,939.1724262184134 587.8957916148407,941.4076107917581 591.4571538473439,942.017296599174 599.5372076364753,941.7350579383913 602.1856670196577,939.8068882947209 605.1496726711763,936.0281304452723 606.7939501426494,932.0776564675098 608.8349421863883,924.4347834876083 612.6027249834308,912.704448262056 613.3891815977174,909.3576034286664 631.264424250636,913.0613086198367 635.1323966131496,913.0942201291047 640.8578913493222,910.5072548229169 645.4053012993976,909.2305985277619 651.980193960928,908.8444241424156 657.197047600123,909.4871204745907 665.4248328310299,911.2357415552185 668.2833126372474,909.4739874038544 673.4967363727945,908.8832206095301 680.837284047286,909.3374230794561 693.5608454628101,911.2019691054289 699.4622506305363,914.5701967348685 701.9779010116301,920.7298118672154 703.2943800836921,926.6514820698856 703.7214335852975,934.7543432958755 703.5844868753035,943.0195085469313 703.9633257138811,945.7790645987432 706.5421127298998,952.2471739634054 709.3096275159893,956.1304335453535 710.0614813976963,962.3451524078454 708.1048085387253,970.020143968393 707.8981588439595,977.7445983990847 709.9098801668182,984.6206705117963 713.9303926771962,990.3345570216786 715.6961516353246,994.461813127783 716.6187358356793,1000.8446440105201 716.4708423343551,1005.3471594573172 718.0529097214295,1013.7541045152491 717.7733103066498,1018.1943271095508 718.5138866868718,1020.2400106599615 722.5883067979279,1023.5602270486551 734.1776861804458,1024.0 738.6222539019419,1012.7959873486768 741.430134056563,1008.6851883065196 745.4344780285276,1006.1301227001459 753.4163436177773,1002.8527950186262 762.9836984699363,995.418426600437 768.4973511149208,994.6274668392082 779.021451701168,985.7043081749704 783.690565954188,983.0497106546019 792.3003297206468,982.232409930526 798.3613831906521,982.6356684735359 805.2686139101783,987.6849584263581 809.5161698080512,987.6830532909703 819.4094744288868,984.3723219574553 828.8273350879807,983.4179375500992 833.0711027717019,980.1112526209389 835.9317228050364,968.955983961386 842.2213069634522,959.2399926546811 848.7687031981792,949.8959453625887 858.3445638336319,934.4483472904103 867.0749313531825,921.8173434117092 875.9016024722189,910.9105564528079 884.1482874617919,905.4462994741002 901.3736615166874,890.3518154448709 918.3433476375136,875.7623377035258 921.5969037447113,868.5331340077188 918.0249574249876,847.2035761290597 914.3638707023446,822.5024263012137 917.2913631623524,810.2558152678757 917.6599997142772,795.8078534410074 921.1136831747378,787.1696015763087 927.7269833720076,783.1195101722639 937.0443856168347,782.6291291347495 945.9894333756829,784.9096269154652 960.8483274805019,788.0261100905618 974.6802450995352,793.5427426358674 994.977998179388,802.3489212909338 1005.4741715969757,803.9784679372065 1012.7173616599417,799.916887379882 1012.2092652222581,790.8408157198779 1010.8101077708503,784.0280611531671 1010.7610263850306,775.4012471063979 1009.7823297993033,765.41974868744 1009.2523963898691,750.4287710245501 1008.250356105137,734.0824085066486 1001.4179159789053,730.4715356261623 995.4914247575675,726.4110475069897 986.7979234626441,717.3548306153133 978.499338032585,696.9529085555314 972.4328342926328,668.8322402709225 969.5614696434837,645.6742923788469 968.5790852208944,631.6070956575676 969.84651340477,613.8912627018162 972.0350626990082,599.7996968460911 977.4283061210884,587.9816808177748 985.0843557737791,578.4078963710825 990.9477233124518,568.4029423356171 991.804068774394,559.3127005005578 989.4818628013372,552.0624441299656 983.5371861008734,546.6390219949715 972.1309635537972,538.9570188416421 963.096091407724,528.6887889444683 955.7657312358327,521.0616485069787 946.0333659351967,508.20342205957684 949.1633807095009,497.2809358685415 956.188836790684,494.5474974507987 966.9603364099829,495.8371620605667 982.9750585039972,494.61916267638173 991.5507163034691,489.5338611719077 995.4522289612119,483.0130803443366 996.6817212677596,468.5529864966114 998.3683237007033,437.14929982717047 994.6693737518267,425.81543232876095 991.8824195929744,412.65079148432744 986.7828175939536,395.8808317280975 973.6434379199367,379.60768547362386 964.6805076309294,370.0676836521071 954.9187917892817,360.52462846260016 941.5503634208596,357.9292339021223 932.904443889976,360.2516227112385 925.6349441754159,361.1988963546178 917.8723611625056,357.610350872627 914.1853321987123,350.823902243946 907.2531755536606,331.79107471439283 903.9995930775322,321.82206364391436 899.3962076445763,310.9505941804175 889.6383653001511,298.02049933729415 879.8601117538473,287.54936498132383 872.696385547855,271.5448040081419 865.803464246273,255.3315134204072 854.3131948664399,238.1683398574686 843.715768246181,219.17779952886542 839.5419907764713,207.40372310790633 838.5443104256755,194.6919730641149 843.475353174824,176.5101164438688 847.4846518895423,159.67047748983202 849.6819976752076,147.40712574441955 850.5265616751565,132.42115240502858 850.8850680280141,117.43873220294142 848.7357006848098,104.9721042185588 842.433405620439,88.052116341795 837.3862061231221,70.32599728896639 829.0945741850928,53.58897511412283 815.6793728363148,21.015995847764202" /><circle cx="505.7082640821162" cy="348.4267755286651" fill="rgb(100%,100%,100%)" r="16" stroke="grey" stroke-width="8" /></svg>