<?xml version="1.0" encoding="utf-8" ?>
<svg baseProfile="full" height="1024" version="1.1" width="1024" xmlns="http://www.w3.org/2000/svg" xmlns:ev="http://www.w3.org/2001/xml-events" xmlns:xlink="http://www.w3.org/1999/xlink"><defs /><polygon fill="black" points="932.6498010166807,131.02380452339537 932.9365171241075,132.51188861989806 931.7124716232626,133.07155220737332 930.2218020755134,132.20252746533538 929.9281886233946,131.13388526136396 930.2581209298124,130.03052031623326 928.8047970090952,130.13306240464635 928.443101003231,131.0681222447472 927.0284193354846,130.7560447886774 914.9010455001879,125.258865514165 897.907963378445,139.06497075413472 896.8940865233499,128.20794186659487 896.9399975822257,124.43179608037383 895.0825808991696,109.88178770898878 894.2453764676078,105.5147048476141 893.5140831948883,97.01248414209283 893.9606436300933,85.79092906762014 893.6839793062944,77.99016593405906 889.3198141568638,60.168569047499886 887.253569928845,40.01296091127949 886.6525991821449,24.829783187338876 889.0040421599409,2.9090700108286 885.6963272506115,11.530522767235198 874.3734274493873,11.352316695666218 871.5154454734992,2.611539148179304 871.8481383450755,0.3945440256401298 871.3348818262801,0.0 866.2947882405656,0.23138921964925885 859.7611636739222,9.957371402187505 856.3893248350556,10.536291472431571 855.6369823293477,9.60976051082946 853.6302679358628,10.859103791828602 852.2662275679003,10.188558969593828 850.7635712067041,10.380476652586367 848.7157020008439,11.515959920405749 851.9568098203983,21.18864566111756 851.2243724865754,23.430892911233855 848.2708834204942,25.51981896804614 845.3125705561704,28.425955950980324 846.7688024955917,30.54805911057747 845.8761682069152,36.702689808581795 844.7612731779716,38.38976928970135 840.4551212985955,38.416539256480974 839.1504320090991,40.84723792314128 836.5455570201574,43.10095378476433 839.1758086837777,44.94855121170326 838.266485111253,48.30807725173145 834.5387885651635,52.8088322550841 831.566134662263,56.74607259406014 833.2985482500624,64.00961636993748 829.9222901428014,62.34130071770687 826.0760915222505,62.55605620604388 822.2441234151521,63.32050419879556 819.9002211485775,63.17373341273219 814.4793863783387,66.82116637835168 814.5128266246818,72.41372078386757 816.0643174463381,80.23732728673849 814.3784454029116,80.6211934946449 812.3364441907665,84.82983804796481 812.2581060110984,87.26049890746208 809.8462641390379,91.19508091245063 808.7237004695796,91.75924006728349 808.8369987607814,100.55565171672947 798.7314539894062,87.47717562070306 799.3597593929982,84.74555721010574 798.7364846991499,81.24076034085533 797.3388898694702,80.32525045273655 797.9615546585986,78.31208352588635 796.6264952029507,77.44054717205302 796.8354046003838,76.37754615493577 794.7759429897234,75.98408753820001 793.7555800894443,74.7673209758351 792.1414078878203,76.96993641248048 792.1175915138998,76.25166117476613 790.5170672955979,75.53490900362453 789.2609848794519,74.1433493286952 789.4180644673382,72.98183168940682 788.6216836997728,71.58761118442249 787.6191149663937,71.54777459280558 786.4214807420778,69.67437380347224 786.3009472776122,68.26991637550191 785.0021829992778,68.55232263628454 783.1507215087463,66.69784445246705 780.1641356851044,65.08801586728737 779.3913954041914,64.17507816061652 771.3776173261457,60.110146872794076 765.3053291246382,59.15080175106107 760.3567848505342,59.614158563232195 751.9795731104371,56.191098344511715 748.6118669490805,54.032696050595064 743.2876853949654,53.2354367617412 737.6719149004467,53.21999931403252 734.3854226783155,52.718054733024246 731.0181046357968,54.470501628609895 727.5282108094779,58.04929121178213 724.5528984528188,62.1523637497221 720.1938853034865,64.12382169370039 722.9492488522503,66.57002089559455 709.5500845327721,67.33365000627089 708.224420409966,66.2254425903194 706.4418218090074,65.85949159442544 704.3359000649991,66.10712902605508 702.9952769849918,68.07021075874923 703.6593360725858,69.83941509120507 702.3152750772475,73.29252530801716 705.653838044346,75.79697794399215 709.075670570119,76.62084037482657 711.0876589676977,75.90734086615691 714.370571884375,75.61551739831737 717.5493995603587,72.93959946713528 724.1050236402427,72.53041413464518 724.3905487690517,74.30275887995913 725.9114837411795,77.41167340529717 728.5341307431847,78.0098522451209 729.6094963478421,76.3228316818745 732.419374729434,77.43055091571819 735.0161473471895,80.95556666610014 734.4136648097185,83.05950723555327 731.8358088355224,81.25500413611735 729.4424884515333,81.50459384169949 727.8096060004908,82.25441244313492 732.2339570344635,86.9456532663745 733.4306190971312,90.61622040090288 729.4629840493672,95.11489251003411 727.5965275500702,96.33980300533403 726.5476777905169,101.24490152310386 725.5189601594269,102.09033600913733 725.8512424206186,102.97551063963886 721.9997040947009,100.33616794766965 720.7209567631251,98.47016712316076 717.9911824507486,97.08554692565099 714.3025462234358,98.22845190791156 713.6436907482288,99.43931605365901 712.242446696332,99.63783791710125 708.9997447902605,97.88061143341383 707.4978862949499,98.26331080662362 705.631397955754,99.53349159249558 703.434153881042,100.19461355457133 702.6760831319785,98.00523604674481 704.0315996476238,96.97335630746647 705.8760419558648,91.37009726231452 704.6826643980221,87.96786768916286 703.0824502158933,87.23476770833076 701.9739873186024,88.73038935284762 700.3284384094262,88.9680206494271 699.6315782807526,90.88979873182336 697.2505407523322,91.4592441970218 696.7903753366754,93.55593358270062 699.6280080073436,98.21192663544593 699.873333968512,100.30380865331404 697.7416468668293,105.77156518386982 695.8637530049242,104.80282774305681 694.7401009531587,105.27470129871483 693.9303746540978,102.99430548891439 695.0985817808817,101.16904107131597 694.6557510138164,98.65621953336802 693.1520291801162,96.6998340476174 690.8472252336659,96.15379565553371 688.937931772818,97.18699798042121 688.186911466408,98.36016471157143 684.2822905149727,95.16115289701509 681.3697890612692,93.82349570834106 680.0675504246682,95.51117548006641 680.4782870273182,102.0355731778593 681.6035397243589,104.12446192612992 679.1288679241285,104.37344778199713 674.164848784171,106.59067611428725 669.9538916539043,107.59029938784522 667.3247306504505,105.69093003707655 664.4106071988452,104.25278132724247 662.8473100395546,102.54084612573945 662.2308208879598,99.88430066125647 661.4296645270301,99.28371679386203 660.2844249995375,95.18525973031956 658.0258643304453,93.51454518177843 655.3126511359219,93.38913286258867 655.717378448514,90.02585982847165 655.2891528960109,88.35413546063 653.1292270664042,88.12726589046304 651.9584673197148,87.15457029092443 650.5980979779619,87.20648729489801 647.8618659250168,84.18462889589853 643.7438719637402,85.32736887721683 643.2800431887653,87.05642482328824 642.6566336631012,82.53477514296128 642.0361372658045,81.27692937603524 638.5642354563572,80.4070687118467 637.9637711872349,81.15098917615171 639.0469022735715,83.0643365666665 636.9937250316088,83.95926945740291 636.9052006858585,87.08538264450192 635.5965673054574,87.22938982193716 637.1749668301866,94.58865875326512 636.9584489562491,98.87719214971492 639.1911634019706,99.2269210804244 637.7879833510093,105.78243523233584 634.9425897482251,107.88962702780668 635.9976256826935,112.73877704171264 638.9579013697729,115.47734082279464 640.0955919156725,118.03280095324737 638.547758140943,117.52667834697752 637.4630981679978,115.3383962572392 636.2408758251333,114.36578280355127 634.6956427822219,116.61153486109345 636.126173881858,120.6645802612145 638.3304049832772,121.63275736496132 638.01224775494,123.4992263315969 638.8591512685424,125.26920096790138 637.557907133572,127.14011407563089 637.7993205290818,128.59227653367498 636.6980538009451,129.52215908635753 637.1337231394149,133.1134138853763 638.8139634994402,135.55873857791312 639.313347273515,137.52159840256797 639.2517210470297,139.5934257923144 640.045608902146,138.55848864833115 640.9418688593976,139.86196724939032 639.1240887205122,140.8407333776986 641.5532388481279,146.02061837339852 642.4017531226798,150.25994460314644 645.9292272073245,149.2276995016348 646.8564384281729,148.1984434026906 649.4356343350058,148.14096718001463 651.1207895133845,147.06256875301017 653.6198726976821,149.52037514716324 656.2784509292238,146.8016782575802 656.8478539110189,148.0140762753116 658.1562313000242,147.67980331383444 659.1816490644076,145.71747609163776 662.3372774136362,148.36334297278074 662.1516095600341,150.23051616036923 665.1550121405415,151.14883504208706 666.2947039159591,153.9422422227492 664.7560096328093,155.48641426176277 666.5515061018486,158.3223234402949 665.0090257135175,159.07843873091906 665.203634948686,161.41007000130912 666.6576979281768,161.35629294574926 667.3595395067555,160.51293383125983 669.1451723129195,161.2532281093819 667.3641910756088,161.49103854210819 667.6539776991576,164.2960726720337 668.169568621251,162.88724481181873 668.4142461142967,164.70549632980874 669.4434850422006,163.7756763259332 668.7871759009097,165.6907147632354 669.0126347745062,167.82960806941048 667.5273751952495,169.84107899028038 668.7638365344379,169.27644428550366 669.6113848801849,171.02339964369912 671.3940425707424,171.10736981948514 672.2212071482921,172.92282328776264 671.7896670600373,174.76837986826843 670.1198916530707,178.88271916980113 669.5129229119846,178.32813574239958 667.2193400601828,180.44227760118076 667.0830448639429,181.887305697834 665.1205947264184,182.63907412617345 663.6359354725382,180.66450601476936 663.3898247140922,182.7004694938271 662.3976422350927,182.95728135123534 660.987346276259,181.4498541396481 661.2538165279016,183.73553483334683 662.3698438577615,185.87151024639616 660.541991779193,186.9127114725827 663.5788389468798,188.0146387482522 667.3754206774066,187.53040139763334 670.5215904372892,187.93605468613612 672.1586535574534,187.4619663339579 674.3682048269735,189.22516123134324 676.8512577142137,188.0893651419998 680.8992649119303,190.5480039857972 681.4177719281149,191.99113063620712 686.8753225963094,195.88835673529877 689.7000865741887,197.54943052098872 693.8088833613988,197.8268372806274 697.2864155420069,199.07145082100487 698.2306201469852,201.44616326784057 705.0945993368267,203.7898003847804 711.7569039795814,204.68970113872524 714.6797271019775,207.24547725546677 713.3781086041533,209.20967904172085 713.4980738637333,214.4874058758768 711.3561488600681,218.461552778822 711.3252333016839,220.32800628203665 714.2859944391889,222.32485186697852 712.8923379619026,226.41807797093406 713.6020368821912,226.8807001212831 709.2985941712899,228.73095982105554 707.829719186662,230.11565583250183 703.7087182532587,229.59296409385422 701.6534176357899,230.25454941066403 699.3073092931351,230.26631854689117 697.6450552595188,233.89317741546313 695.303114889446,236.73531987522585 691.6716651174579,239.95249101231138 688.9624499577611,241.08967720697592 686.6822005344228,237.84976642597235 683.3954911526528,238.2712731982341 678.559363641489,238.440459905819 675.4170424415175,238.8838588736122 674.5890270733588,241.54218858903232 678.2339095673458,249.37618143727354 681.0708792405114,253.32559334782457 678.4652927303079,256.98081286871246 676.3556168216437,259.41727547613255 674.9623274397536,261.66654734393137 675.7915799353345,267.877143369868 676.2151180496877,268.62389625020666 674.6802180782338,271.24126821252037 674.2212047852106,273.81545509787435 678.6435688998764,274.86604186015506 683.9509235506981,276.6153384749847 687.1056326937932,278.28375022392794 695.5812337983174,284.5490073755981 703.413530538854,291.0475196807938 708.5599810286681,297.09167402456114 708.8134072954875,300.6873737547896 713.8926991503245,309.7268144736598 716.8125971913084,313.35571179425534 725.0884378549258,319.78977848131905 718.8129858728422,333.42085240737083 793.6805266740837,307.7154095654577 821.0861163433187,301.32190370177216 835.848071236633,287.95169512342886 855.0318333845688,269.33180136602033 854.7156497329598,272.8016381880451 854.3046283371266,280.86376880809775 851.459690999158,288.215097292407 850.9793663355978,289.9475810280233 851.5768830338466,290.51781485419195 860.2127509286352,289.6375114396286 867.263704876538,289.4699018001616 876.0026614942925,288.82475800507666 878.0785618033023,288.114502721558 889.4336419133429,278.2578725492747 892.8830222372472,274.55448052801364 896.1333227117167,271.54030179146446 898.5897778958805,268.0789642631539 899.5853537068164,268.29535859833777 901.2978426153282,271.3907596959496 901.8026415316234,273.45394181721093 903.0980833245923,274.0192825832365 907.9530839947296,273.5281568555348 909.4401405140607,273.63221045210946 910.5452657973435,275.0033226399942 912.0672071500007,280.2817054479988 913.6733507197689,284.4039602772287 914.3887441841558,287.16254443827194 914.6137491985922,291.6476122975436 913.5284297878472,294.86181521399135 912.2467509019999,296.2173167003534 909.4159137152855,297.55406990980964 905.966839716701,299.85783687589856 905.5356630334754,301.30767259640226 906.2751225723595,304.5716825673169 907.9647022552252,305.94651295468583 915.4397928367414,310.60452257747414 918.3202882294796,310.5850206990287 920.8808726842553,308.7304222779005 922.9436081764404,306.0745945477887 925.9770106957701,299.96066791315957 928.3302311062944,296.15481008154717 929.2051000622905,293.7287474472859 929.0675539195832,288.67799083729864 930.0040795915443,280.2824459892789 931.1699562330878,276.9370155209621 937.0575589955171,268.7364912908574 937.5353327734698,266.66661507124365 937.2999426365632,260.80561030009113 937.3771605685442,257.1242914291056 938.4518504243296,255.5101972052039 940.0372230605064,255.15451714462472 946.9614074596014,254.65371137712953 948.74173404803,254.1901145804411 951.9102871898446,247.30411548281188 954.7549853388269,243.83250467454127 960.8685567823131,240.4680164244495 962.1300088448613,237.8184422641574 961.330983715845,236.32522449731107 958.751261900367,235.19568500633386 957.952013563706,233.8164832830006 958.9040250823585,229.32556987807254 960.777355115022,227.70556134333503 963.3397123944452,226.43156155738893 967.1955722777188,225.48650587510122 977.6672320930427,224.28550351634954 980.6302580244102,223.11591456393364 982.4925924893781,221.38920794225896 983.3708766262654,219.65322006978772 984.70904030978,213.5538570050702 986.2796405497405,211.1323382840966 989.0308874642456,209.16836911738608 991.8896060418639,208.00052875211838 995.0527006424823,207.6400189218749 998.0051481933583,206.5929751989995 1000.2652756109597,204.62606967417526 1001.9227392512055,201.74500350537585 1003.0686429175606,196.10551698249674 1004.3473385770436,194.4816595815637 1016.1534322997682,187.1801647900478 1017.0231248503218,184.4125650131781 1017.3929577275569,181.8857126646286 1016.9846120512796,179.35718657777852 1015.882768727436,177.17731878009465 1015.9509394207151,174.0724384440432 1017.88551985752,168.6573709070318 1019.1629088662119,166.92691334882363 1024.0,165.98009394628002 1021.5088333154038,159.04034033870073 1020.8936834462531,156.19283012442463 1020.4749159917027,149.7338701634476 1019.1977974751542,147.32729531448308 1017.1950596055443,146.47209693440482 1014.520068434847,146.14782427193836 1003.5550781406398,146.20032397967532 1004.6626354367557,149.20386081680772 1004.991312957579,156.14502212998707 1001.9418403302426,159.08983164488245 1000.1430719607029,159.65322382054956 999.1225671606223,158.64338984158292 996.1207497249602,157.15923570273003 992.5732511446586,156.4899946324739 988.1597174194404,156.46946273859749 986.7803072462759,154.04051477234952 987.5837582821432,153.3465599458524 989.3710387215496,149.90715979815695 986.2072479347936,147.1556188026393 984.8789414678685,147.49358034742886 979.0929373605735,151.58816475851086 973.5428516315376,143.0961284381624 974.7497535655164,141.54277743335047 974.6447377031077,139.72401555309136 975.9803182711925,136.19686888729223 977.4373031795776,135.09274413768594 975.0764186957628,131.49371741462699 974.2791527621573,131.67564796753186 969.8262391330205,137.4035026698523 968.2911122562125,136.02335756325476 965.9168389348763,137.50143950746155 962.0547126144809,138.70633632831846 961.52291561904,137.37211949578898 962.6569762568412,136.92050218772397 962.6651638357976,135.3226592758333 960.5419986621233,134.64986950325294 961.7557883886591,132.6759287875043 960.660941816049,131.27732538024418 958.9582238604388,132.25249637456966 957.7550452864912,131.58827993001114 958.1480367546621,130.6300961421249 957.2297159480406,129.6191938040605 958.0922634535224,128.63484890589484 955.764751516255,128.08634595935746 954.9499184023883,127.182390897868 953.8468356536433,127.5260169244591 950.4653440826829,131.4716172541457 951.0721000526225,131.8423715113138 950.8287247939669,133.5723857587085 948.8731244673717,133.5621540863673 946.9133869745308,132.96526540874356 944.2429721055215,133.06009899372316 943.8696581490341,133.8812523986743 945.3253920404353,134.1155558342009 946.4175464482529,135.1544628512147 945.3299724721048,136.31769521972546 942.1271180184218,136.52266201083398 942.2915983957566,135.20755517264718 937.3393054728668,134.10310421594806 936.6057773450523,134.50481179378085 934.8070803831708,133.49354247160034 934.1540700751835,133.84906067453733 933.2953630601548,132.58668896818563 933.537866336803,130.6958042927008 932.6498010166807,131.02380452339537" /><polygon fill="black" points="413.5643241474638,675.9888895781977 412.785817688256,677.4339197004477 411.11251079641175,682.0307630517057 408.39887209305124,686.636611935865 405.8876012013633,689.7912951131423 397.94457309822576,696.1015133016998 393.41208510223606,696.8501034795888 390.4046142653637,699.2759629304584 389.7850597409284,702.1722973564833 388.74005234000987,703.8724597130382 386.6440968071974,704.8454289954848 380.7757041706284,706.5557950794514 377.01930736416176,709.4683053185962 373.0404068284078,710.1996482460207 369.2711039894855,712.3898297141158 368.023755346513,715.5332439067242 368.03195271663674,719.1590251264981 368.4517458128932,722.7826067577081 370.7622315933178,725.6810330204129 374.9606721245589,726.6316715458972 378.9446175915258,727.8284462242565 381.04851775978653,730.4889945617371 380.83970149236933,733.6313385494582 377.9167630477995,737.0182315785543 375.4014460005928,739.2056462238119 374.9948254575109,741.3805430246333 375.00153034393304,744.2765990515863 373.9565095276621,746.2147951263764 372.06776487725904,747.9091445153642 368.7265518158038,749.1304178886868 364.74797692972777,750.1072519520559 363.2806241895087,751.8005240180232 362.65961356279354,754.9450062224873 361.1943069488013,757.6061356826266 361.41484532726247,759.5338247293707 364.14314241605854,760.4956680681952 367.0740922172501,759.7669920316451 372.51539695912646,759.2706846631693 377.5472010134993,759.7429844054753 382.36556459841495,760.9377038119803 387.6207693665787,764.3064001812376 392.4546294553995,767.6759102266216 396.2318228809697,768.1429277199127 399.3650484167867,766.1980580608208 412.56289380214,756.9603984526196 416.126220325415,754.2842517982582 416.1198390169664,751.8721378699944 409.8054413907727,744.8828612797555 408.7415766916541,739.3303650419855 409.5720921220938,734.4887425318599 412.71080927550094,730.8547546473853 417.31687889218006,730.1052782061845 422.7742799494447,728.3930386624486 424.8640022829022,725.4849534292008 427.1506991755888,719.187383842695 429.0280254007416,713.3761086326747 430.9107702066623,709.983265252198 433.00378088261476,708.0429215396865 440.76697433609223,707.521902425831 441.8067616250383,704.6152352653413 443.8960243349269,701.46103723841 445.98098279182994,696.8549612832343 446.38768029788076,691.7773654720521 445.74325473547174,685.9819472483003 444.8865947866012,681.1461699926563 443.61579968013285,675.3538064833615 441.50762964895864,671.735273692657 438.35282413177873,668.8570038381049 433.09441286226615,666.9448438080065 429.11456635131196,666.7253085221193 424.9210004575839,666.9825783279788 421.5620927598666,667.9671862013811 417.79621286143026,670.64155024153 414.8734415023773,673.5593487389991 413.5643241474638,675.9888895781977" /><polygon fill="black" points="44.47888433402119,497.29703712348424 47.64155263122425,494.84412036971344 51.18483089444692,490.42120747263294 54.12250839505101,484.3041831875837 55.74530212335317,482.7716640058592 61.49387195412901,479.53101623663713 62.377034631999095,478.3352458430839 58.83612608238278,475.80447100653976 56.78406784206059,472.9217756608206 51.7783244776604,461.21551352876634 47.29408114494361,458.50802343097513 44.5022982065609,458.514680415222 40.366093255911345,459.97010394671804 36.40266845260414,461.8460721589391 34.34004312390439,462.3595607864205 25.300107488489488,457.02799139036676 21.84204264978569,455.7542220252471 18.681423873748706,455.4142307035243 15.736176182755134,455.7660139694053 9.636872437487215,459.24882553443547 2.212770002828388,464.6789209844559 0.1577006803432611,468.1652644813177 0.0,472.7488067900612 0.5844658969596161,474.95616466720725 9.097389384880405,484.291341798748 12.482073907510326,490.2352112003391 15.940276554919125,492.7748684852249 21.226309575258494,494.8099323072676 27.990507784567534,496.7530080630204 36.74704069344698,497.93007571976574 40.57718616538108,498.08488938100595 44.47888433402119,497.29703712348424" /><polygon fill="black" points="932.6498010166807,131.02380452339537 933.537866336803,130.6958042927008 931.7100431432311,129.8836231135598 930.2581209298124,130.03052031623326 929.9281886233946,131.13388526136396 932.6498010166807,131.02380452339537" /><circle cx="969.2013579636827" cy="138.91838382249045" fill="rgb(100%,100%,100%)" r="16" stroke="grey" stroke-width="8" /></svg>