<?xml version="1.0" encoding="utf-8" ?>
<svg baseProfile="full" height="1024" version="1.1" width="1024" xmlns="http://www.w3.org/2000/svg" xmlns:ev="http://www.w3.org/2001/xml-events" xmlns:xlink="http://www.w3.org/1999/xlink"><defs /><polygon fill="black" points="914.7998020024997,668.1247905281882 917.1362671670886,667.9100891678306 919.9480175055947,668.339342658558 926.2572979136773,668.8204190106273 931.069467811609,669.4894674874627 939.3230435519755,669.377138447057 940.5746120358235,668.4926453070298 942.0604176103467,663.5358847376096 942.9483873685293,656.5091422902956 944.9374824951641,653.1313597997805 949.1544601797765,647.6064548861693 952.8823276353409,642.1385191919289 953.9744406394324,638.0087619433721 953.9685929006547,635.1425464936581 952.8839068468689,632.173080060817 951.3296975908369,629.2688999725111 949.2587339560222,627.6848145690781 946.336798606066,628.1316009279227 944.8248448290776,627.7035925242728 943.2734201470887,626.1248503197735 940.0056810484522,625.8759123542018 939.0614421512607,625.2367117930396 939.1496912167595,623.9008427410372 942.2498057699912,622.1379047635971 944.8665174735596,619.9377820765583 946.6356491927655,615.5777957934922 946.8050444352738,614.3748310500441 946.1604238115076,610.3341759839782 945.0475972921087,608.6703155112945 946.33473881543,607.4575451337321 950.1633205085299,605.7495374407132 951.9980558776019,604.3880701074277 952.8014506669524,602.6972157543908 955.1796285492576,600.7250257935768 955.6974423066788,599.4886537764306 958.8245151269007,598.6694969496905 960.0268681073263,596.9339728655 959.8970425529296,594.7483789106291 962.3841057662269,591.6150166311825 963.4244708649593,585.2715750883999 965.0618045956684,583.162582364823 963.8958933768364,580.0427343471981 967.2544645661426,578.4929143383188 970.439711793066,577.6120697088624 973.0920447718457,575.2779104928253 976.6799632735434,574.8241916000794 978.1389490777315,571.8440255865545 979.3521055790073,571.3813479422032 980.7676929327672,572.3433096744728 980.1808578637896,574.627010616578 980.8104425575402,574.7547589390592 985.8565900269052,572.3263242185171 986.4922767406135,573.1001021586585 985.9333275528805,575.1988984641596 988.5298818120558,575.4415932998905 990.2635385774554,574.1214734057485 990.5353108190325,572.2712188144282 991.786799320092,571.6641981033313 994.4198616534031,571.5772270041222 996.5875229859375,570.7558060572287 997.0841750120222,569.5299566349586 997.0208645990554,567.0878012313813 997.851194266073,565.2636371480022 998.978640281371,565.2628339228811 999.285730792341,563.9978184976815 997.9490360422789,559.8753602866352 996.1626788316208,558.7742644325745 995.4311918593309,557.3856131125176 995.6406195315485,555.3108689498631 990.3833998890344,553.1863654270496 989.5767419271039,554.353339422493 986.1802663961955,554.8678295679388 985.1929808844432,553.8817822318401 985.1513473003034,552.5892479007624 986.338473996072,551.5523749118724 988.1582648363421,547.8416567495105 990.0901726536075,547.5156392438455 991.638718820831,545.7256719527071 987.9758188246074,540.2213268971814 985.2503953301939,535.641526227892 983.645592120744,534.6921897769896 982.27362781103,531.9156391708085 982.3424165575981,530.7765047397961 984.2835060082441,530.4398477681787 985.0028621340487,527.4386813598069 988.2233337428598,525.3568213319672 989.4553983539374,519.6740475740255 988.3354086022428,517.2236569434165 988.5431945513346,516.0012312739896 987.7810579329417,514.4709515618766 987.7967943670149,511.94795603100397 986.576740331909,510.4629946894802 987.0387351145952,507.68990303021883 986.0449605181842,506.92017273528904 982.1955467140518,505.6548207974603 980.7112616138622,505.74066288297456 979.9380034508996,504.0357782690519 978.477451965556,502.40919336629565 977.0212665990878,502.289807040868 978.0117541657088,496.3346581824344 977.6779506023352,494.7491875218302 978.2930342846478,491.26868431888727 977.627764342872,489.3887714594682 976.4351351416877,488.6106714303912 976.1697500081858,485.8356258508245 977.7806680872989,484.4475512759574 980.162539882192,484.49642396240404 979.6253400089697,482.462138419452 978.7157233652445,481.09767595807546 977.8391455326062,481.105897468306 977.3142173609115,478.2210720058051 978.3139372071627,475.39318992940616 977.5640824174287,475.15436585967257 977.7867595483606,473.3695113426518 975.7586815535158,471.65678814223634 977.2033190271127,471.72522519546396 978.0876845773182,470.4157908176363 977.058562660593,467.94607757607196 977.3335039159234,466.4576497397276 976.3319961922103,463.73172408216203 975.2627314781548,463.35213332299315 973.7038925352773,461.7478082310763 969.5910642610819,456.42822832232366 967.6821368509834,452.45102467581864 965.2877109256235,448.70390944426083 959.3349920799385,441.2200078305153 960.3394662056184,440.03328538554456 961.7789113791185,439.5593368184136 962.6257555135428,436.3668225635373 964.32737984837,436.2692808151155 965.3631506019861,434.12964540953215 965.9019545565537,431.0527456595029 966.0748804093389,423.8532262849144 966.8950952197545,420.0065112336483 966.3597748814359,418.0761107023932 967.1808751678657,415.3968832050523 967.9207058967414,414.69407999360874 967.7523794775907,412.59701957154834 965.8817987152173,406.1450743877749 966.1567748573732,404.66865126427035 967.663342982697,401.911838438479 966.4070372503337,399.45666789794996 964.5768293997716,398.460473481388 962.7788769028284,398.7228489839133 961.2677452922545,399.9848908503137 961.0983296532753,401.010216587767 962.2889820184595,404.98095233496565 959.3905751327636,404.67962335051163 957.6855805652443,402.09535601426387 957.6338277610344,400.7656762192511 958.8719645103205,397.98063829909756 958.1110385396211,394.2013583112 956.2737281089584,391.25010435032425 955.9260433242699,388.01991380463494 955.0173375229045,383.188529579632 956.0327667322478,380.01784577866067 956.5784396092492,376.5752888948091 958.0021241587388,372.38841583043995 959.369910372637,369.71625007525256 960.8641384376152,368.88431509388533 961.7835574021069,366.1449538619195 959.3933109466933,365.73689602733066 958.6509081681759,365.0281590760393 957.4654036308627,365.8774059958431 955.1150103608405,363.2699551580067 955.0895108070828,360.4573049864724 952.5270743513078,360.7364286844072 951.1329013735648,359.3992921489232 950.7082764352567,356.44713339895327 952.5908966220447,355.714023593294 951.7681289445374,354.8628301269679 950.9479476923112,355.4426285874972 949.7985331046416,354.7374510297832 949.7080602690593,353.5518367006323 948.5031210158656,354.40108819624857 947.8219915025389,353.8347785492251 944.6749876442135,353.25956398143296 943.2467548577915,351.3495190339012 943.0671919513812,350.2056653515059 944.2271582772906,347.5980870629933 943.7276629663845,347.29551955988154 937.3018820570029,346.8719081972255 937.4637288243273,346.0118761689356 936.1191028623444,343.4364917885649 935.8530291103922,339.15459220283594 933.122991879798,337.2973190530007 931.8076309561561,336.8592909441368 931.0429925390295,334.63682567178535 932.8761329828768,331.7689292605527 933.7307263277154,329.49201539724913 933.6522860835804,325.04581507781086 931.6468332580548,321.80283137287245 930.5478442948072,321.1176747389601 924.0087643402684,321.0000993509956 920.3573113307804,321.56272331069056 917.8843939219095,322.8716337350629 915.0492354194587,326.03371582410114 913.5912776757751,326.34226498299086 907.585216636493,325.8918671532508 906.2772766551221,325.1153404458846 904.9510223007096,319.7502747297393 903.282625767642,317.4233633180206 901.2836143410925,312.35058682106853 898.7413289707766,308.8153110952479 900.0482613519953,305.8102406823107 902.0540342305245,305.73264416272934 903.5937025238002,308.1520538338808 906.2815995745053,310.04058425179835 909.4366366072501,310.729867214265 911.2070480763101,309.80541229650976 913.515408453514,305.4942743172777 914.824300328511,301.722898494019 916.7746960318166,298.5802456969525 918.5977087244868,294.57999009846253 922.2802680835886,294.2932694004362 923.3990025521617,292.73098885004356 924.8625202129161,292.03379258060363 926.0380601765312,287.8251407228073 928.7184114928697,286.60670431396704 929.7232048455407,285.637867781429 929.4210301066445,282.88244173084036 926.8064304630988,281.33221424023225 924.1249219117452,278.9856132488227 922.703010542233,278.7425057073549 919.5682798549504,279.1166575050546 918.8100647330309,277.5193540209267 916.8214830421596,271.32671736699433 915.7356824508557,269.70189521942484 913.7550863644723,269.0856944806603 911.5743543308447,269.49174051779846 910.5971975940791,267.8047685838693 913.0551804294261,262.59711807514975 913.6845731152838,260.7232791522407 913.4599544669549,252.92447355606294 914.750160851625,249.40155361003826 913.9191460345733,247.40764851788572 912.6158913598445,247.0000465593771 909.7323841902412,247.53489832249386 908.293939132691,246.38319030505318 907.2979490225283,243.55402302252003 906.0813288105301,242.85935420260967 904.9128911755705,243.1344625992224 902.452861029369,246.89125528150646 900.2107678622071,249.36956953133995 897.6194899703762,248.01273252876592 896.6427289359053,246.2851980840162 897.1672585362662,244.87258784841117 898.7469928087756,242.72636582814926 899.6101426985019,239.06480868432402 898.8503106164003,235.9580838133054 897.5517450477213,234.88693584211615 896.0069368175003,235.2462743440368 894.9578990522994,240.46009194714452 893.7509518185046,242.1341682389559 891.1023318254584,244.69738775951157 887.0845568736081,247.29162022240325 886.2085277545686,243.20540950139775 886.8927116201656,239.43327617029354 886.2532226432838,237.67262413023332 882.9291641172096,235.1068648899875 882.8514974834245,232.83109114017077 885.8299429004628,226.87841863714812 886.2453400488266,225.49766113905775 884.1653442591249,223.40176201067015 881.9998590097383,223.0110890567646 879.2085223451417,223.7776526544494 878.3168890773233,222.63166005932305 880.1005021583752,218.64857484482627 879.5705233208348,216.84664401211126 878.0874912357111,216.19513592045587 875.3702443366303,216.21643925093804 873.818866570617,214.43315489554402 874.0295752329504,209.63602141852846 872.5809327198562,208.29066886633575 870.5613690831595,208.75518412490885 871.1306801237928,211.8315610923811 869.5982938060771,212.4763407077295 867.2118289314991,210.4030457935014 864.9230127992787,210.66518517867598 863.8774027882376,211.35715658936863 863.0972145087983,213.11751053113233 860.7949801690972,212.98243807740562 859.0021733325252,210.64901122539254 857.2278817932641,205.5006543868068 855.1517467088422,203.69058951635554 851.6468507939841,203.10460462464744 848.6105392910736,200.09738056934782 847.0076317886623,200.5681154530896 846.2048809375519,199.29934473837454 840.4543849649425,202.07466643123962 840.6788493338794,197.47303265824826 840.1701737479691,195.7324066311611 838.9675633643137,193.95644466133308 837.4840181205711,193.0896235592296 835.7459233795569,189.86942757743304 835.3651822389071,187.89396826947484 833.7282857154747,185.00962379550776 832.0924552563972,184.9191499142505 831.0406235535938,186.1703901851481 830.7368517003083,188.07949224857862 831.7602012772991,189.8266268468069 831.0339551391513,190.88201890332857 829.1956491512273,190.28290669735497 827.274244928796,190.4905978606506 826.3756736862045,189.60930811294213 826.7041492917405,186.95556268613325 825.5830581016404,184.05729734237184 826.4728953306206,182.31747350530816 824.3101059032736,182.0369519462987 822.7003606597802,179.99875077853233 821.2045116658828,180.16231916540073 818.6269242900315,181.50520999276296 816.0643043760676,180.7789333141061 816.2464924504267,179.86991988569093 818.4138232780875,177.91784268527067 816.9698715472538,176.95884741434259 815.0366962258173,178.31796556162067 814.3985387571179,177.78207096584913 815.3291622729367,176.1953240202489 814.9556473191176,175.16844134176233 810.2907590620622,175.64830973046912 810.478496105438,174.10762342569467 812.37184270369,172.70857554813517 812.6853642727748,170.7282718771811 811.5169325114103,170.84840373945917 807.581412594776,172.20000269781053 806.5575823442008,171.76873457616216 806.1323322162621,170.42568901640243 806.4181823267279,168.64985409720157 808.7082734577651,164.36358258303846 809.9909747693673,163.54929770387832 812.7426337864939,163.06165334290426 813.3406767231924,162.18133758623685 813.1265061309646,159.81754976694435 812.2967413485352,157.25495495145117 812.675516227227,156.1309073568517 813.85345372442,155.93944545568513 817.1970459019856,156.67114945037054 817.9158808113225,155.9828547193389 817.3595835924767,154.33566968787682 814.7618126961154,152.57007854046492 812.1204573937023,153.2096372713271 810.0975366027513,152.95856727582213 808.8429621153573,151.9678496238805 808.6625410663048,150.24682203615112 809.4808299720471,149.61973772375882 811.0068011650188,151.13813810194472 812.1220790379127,150.49891966102552 811.8960227760526,146.37261193144843 812.3419807427532,144.95307955933083 814.7322982246651,142.4713000046753 814.7984667417537,140.59540994847077 813.9223684402012,139.93947497237934 811.7702358695032,140.99301786020658 810.251689508059,139.0982411405207 809.7287049539376,136.48310011034857 810.2081076148427,135.61369201182617 812.1043533144322,134.74475516823827 811.9264056511686,131.8833187735978 810.2828678184012,129.072161405511 810.427217211917,126.98266858389036 808.0253640628066,126.15351507055982 806.0398815018762,126.91071584202825 802.1568569447935,129.799229312742 800.3524302414861,129.49533653771493 797.6870351884718,132.35532587599425 796.0305833852203,131.93812055051728 794.74706378665,132.54788076036584 791.5515652995626,131.53914597115454 790.3701131358292,135.74455078752874 789.2163149285268,136.52608151541688 787.4419047928446,136.28275058450106 785.8877754429909,133.3279088938848 783.5118973627286,131.9674449064811 778.7690035524375,135.29857217011295 773.1243861797618,137.06518040300568 764.5888366034239,137.48386123766454 757.5895133964009,129.59894399187738 753.1348636164477,126.50771947297994 747.3899594782944,122.81271043872641 745.3513296540181,123.078997729364 742.6825960760044,127.38259646936274 741.3334286546951,130.53831446186166 738.5364680840242,133.3963291424866 735.289780787027,137.25520561458404 730.2630776205675,143.681642825719 727.4795115112042,145.52034296494116 724.7119449748823,146.63578133132876 717.7005582431468,150.87162742140356 715.7903320042182,153.15403916237085 712.2940243209558,155.26107767466578 707.7738766374059,156.78241236341592 697.7176269638335,162.825138652296 688.2580314962156,167.7223563612929 684.64115948975,167.8004144790558 679.0199177559919,167.26587006337547 673.6932814498371,166.015911702283 660.4109658976984,165.05441446975078 656.6630511319015,164.56022732079418 648.590811527003,162.98283492321298 644.5711411780185,161.18477470671132 641.8960382314431,156.23189529249885 641.9751387026583,151.16663406536316 642.7901142055953,146.80194829493723 640.9152661143066,141.12345600616402 640.3670499452829,137.6207843943364 640.3659454380117,134.84908073998156 641.4678176660916,130.43347170853463 640.3912114793224,128.72625515604602 638.4379617414793,128.01083996310115 635.7525446351857,127.61398697654602 632.93124718849,127.88949600530066 631.6420717702333,127.39511858980234 629.6651961312635,125.67092503356707 628.5842018765354,125.28790902884214 626.5847704433882,128.1168102919886 624.342694531958,129.7242526124412 622.7378452323661,129.577531668054 619.0409310923509,131.44468167527748 616.4153216279431,131.13814631396747 610.8840915748967,132.4514366389942 608.4053831889612,134.63963851086123 605.4061677192158,137.99184724542386 602.9257567955891,139.79277887796627 596.5785872016545,140.22111546671294 593.4146923733134,138.95712889413494 589.7135610864215,136.74782712099466 582.9413874065082,134.0374716874628 580.3169958184133,130.7647778915466 579.1366492762,129.98403145556586 577.3170159927326,127.50375833443934 576.6863493463844,125.03014510897094 577.8967245165284,122.36784344289663 577.6746912651641,120.94261078191664 576.6527499011739,120.25339424636161 573.2563183697465,120.00829549503987 569.6739369576846,117.20678254971358 564.8902739249596,116.62899641389299 560.782261944079,116.73113357766931 559.0604759492167,117.17364629103156 556.6734431082704,116.73150168311724 555.3528868286905,115.21753442109912 551.5935972563585,108.34201669360641 551.0321498607465,105.34981057820971 551.8284196886091,103.06724765554952 551.6271566818134,101.6727547772307 549.5419811061493,98.98930298458401 549.4452831017982,95.85413203515611 553.9020422060457,93.07350906308511 555.5762633418227,89.6490230934287 556.3823276971159,83.67181747921711 554.3393170204855,77.77294549252372 549.9564205181817,73.69195964532969 547.6980687396972,72.74108495397059 538.362435653781,69.74993499844743 535.0145364708616,67.78294170355014 529.9872804865743,66.97975189487477 525.6151431929992,67.0491450424048 524.8441731679719,67.35640227133092 521.9705100974874,70.03853541241233 520.7874167582793,72.15755832721868 519.6380611276977,76.44429763455628 516.73894851735,81.81343200571041 515.2466345729699,82.64067092569223 513.0894028640814,82.50209115261282 510.1157099861647,79.64737976385368 506.10460568843746,77.37418381219732 504.7231359172264,79.57515409379926 502.7255332165681,80.14824028729333 502.1110802838021,79.48734904695277 500.26436472553036,75.65328147423304 498.50167482494163,74.30263649740198 497.25510169701903,74.365682875414 494.9624481371109,76.33330638336645 492.45588105214256,80.73369372726609 487.65056396204557,83.35636613539896 485.76270527848186,84.98772853477124 482.11165536260893,84.91112147821445 479.89244780413355,82.70447778856408 476.4584804214825,82.34233739527565 474.7377874331699,83.4026820511632 470.09166986165843,87.75469995419394 469.16283677556174,89.07878762527037 467.2374687437342,93.32619303279148 467.22967809254385,95.25066964380824 466.21254557296027,97.66404669494159 463.78770497528757,97.95194860656022 461.074269697107,95.96885235642117 459.86627183554384,95.58289553150689 457.09548988762924,95.83994211193476 455.31392969917965,95.40394196686759 455.1742313585992,94.44654862817902 456.9037767157269,91.53353013332912 440.0776807262764,87.290297066746 439.9591560693865,87.99257611351766 437.3475639452356,89.33786569443566 431.9366024487442,93.68726439093496 429.70933528217085,93.25004918632942 428.84780432142844,92.0697167288705 429.24342296157215,90.44074065392476 430.60775971161587,87.78328371466523 433.1996014104189,85.57345348901902 434.35580189496187,82.23395374642848 435.2266367394641,82.57961581901998 435.84939194881855,80.63530719198752 434.5129817136012,79.6689696248435 431.9988523009756,76.96269246877091 429.29601484588966,71.86480810953083 428.4636409657083,68.21156610493642 429.04527360615026,62.96048408185402 429.2697672335684,54.94288008199396 430.06991395386314,52.3889957996596 433.4402187134379,47.71790638909192 435.62449468173503,45.34675117509221 439.12372637696325,42.96473720127199 440.9029176168652,41.25484827795901 440.2981752767812,38.61019293087713 439.0028900968777,38.18414487754626 437.48815416083454,35.224757698026906 437.240535658994,33.58783356993217 437.16824573961105,28.370360787119466 435.85314159908813,26.642553762868488 432.99523487545224,25.484623631030672 427.9523354049744,21.16482273620977 426.85480701584214,19.78217650037095 426.70588604626903,18.399206688660115 427.5855026927478,17.300817785766185 432.4071485444325,13.790992135469537 432.85080256256987,11.086535840001602 432.5620843313897,6.2069982358241305 431.09846583051785,2.710962015341579 428.60789502704637,1.9901405912745531 423.993620633026,3.251723190642906 420.4162151455874,3.0395584656045003 417.7089714881713,3.344561909803474 411.4734190545338,3.4367286607856613 409.36890825230176,1.0685506555948905 407.60026223383704,0.45901974592698025 405.27788519536176,0.7634508573095218 401.8587016140456,1.9628194416056886 394.61658976401986,0.0 391.54341718761816,0.3547841807178429 388.89473118453077,1.442028961395522 385.69289848296813,2.0605920745456388 381.40412236457183,2.3639611361491006 379.20120216329843,1.8548766127207728 378.15288899874076,3.2979076223465427 376.09684223529723,4.6893353458140155 370.38452787050613,5.8143930643217345 365.7377918738743,8.820671722583029 361.71395275684233,10.576422413642263 360.9722467895309,11.287528107359776 360.74260667315275,14.306798807187306 358.85081471318534,19.16539158323485 358.1854982058027,23.28301267441634 356.4935121608813,25.030842031565953 355.1485568435281,25.619690933040715 349.2078277619155,25.39037080527214 347.5263254810023,26.059401494144595 346.18112354072446,27.299212455109455 344.9501682996033,31.772247536656664 344.04921984979535,33.00175955144209 340.9027662873095,35.2562707892281 336.31258522727177,37.458470629481326 332.66953837933136,41.21725158339905 329.6994275079058,43.83762910481357 326.54420967991126,44.56588881807636 325.35838513900563,43.984325798458144 324.2934459415301,41.94866219974847 323.1511864435623,38.50904949326525 321.39602775185386,35.13975537847409 318.7607301474752,32.22736931045097 316.1140059264554,30.240220567231518 315.4637610516532,28.916708505013844 315.5443828317584,21.50373251324288 315.30025713566897,19.479876591428138 313.7722102954152,17.19996250918814 312.84313868232425,17.177682642289824 308.8060384000314,19.764422569739054 305.99728415033223,20.542591257688628 305.1218570192916,18.1923357811487 302.26914874310836,16.072450721424843 297.5553227916591,10.1566982392834 293.7404208346389,10.220719621208673 288.7941111285874,12.69150922104211 282.76580762283567,17.335651658001325 278.0117187243677,17.091576148962872 275.83372820033924,18.866305598570875 274.05226621266917,19.756811283986508 268.97319882402616,19.196092038769848 266.8710407640593,21.85571032712369 263.2878444980298,23.992240567288945 262.194665061341,26.338956714976007 262.3652816720556,29.206925889464515 263.3245628921609,33.30792687942596 261.553914160681,37.667001368475894 260.6606055509006,38.99739262231742 257.32002929299483,42.29467141227235 250.3166347200517,54.49492667971492 249.8930536718289,57.56620813570248 248.54631508173478,58.1425522598189 244.44151376604398,58.151585124908024 242.82095060706507,57.506026278242075 240.43799619181817,53.84701553680088 239.25420400856643,52.77519600100993 237.67227234533527,52.66919816854829 233.334026871566,54.854081685312735 229.2185015927063,55.086437819721596 221.9417305511281,54.22951056087936 218.45908258638167,54.707049455479705 215.23040812696857,55.97821404299896 211.3328018513845,56.2610959485944 208.96082179755848,55.72369231320647 205.36713195560648,53.85006654190829 200.2293296800011,52.41777635865026 198.71402793811131,52.8909136652062 197.72147535724432,54.016408863404536 197.52293020542132,56.99673875890733 198.57653166925527,61.10102899724518 198.62474939281512,64.28646559360106 197.66857010715123,66.0739768460661 194.65884478876276,69.57442702371952 194.41582373821876,71.19171704046744 194.68926837728014,74.80535037764116 194.27724700866688,76.67670157476346 192.98235038229993,79.08446370528497 190.38751922637135,82.38321596977869 189.28955396100122,87.75372128778088 188.22009258713535,90.62111437886688 185.0979376211368,94.50834430834072 184.77410421550093,96.39067236601068 185.09220590213621,98.6422764233688 184.55063557961856,100.6259065408351 180.12797316370384,105.21147821563932 179.47984769935638,106.44136587819071 179.63516615552197,109.93482458982612 180.77414185878652,114.99029912500225 180.6934789205353,117.9943141013282 178.0917366778085,122.4763297252864 176.2219681767049,124.58775511458646 173.6999756127778,126.37066756259878 172.89269364232382,127.68180481231093 172.56228155485255,131.0932975583372 173.54244990108347,133.70497061198262 176.6858389679203,137.76226808752244 178.3262227626656,141.38561590564836 178.22259702916878,142.58731773286775 176.6812408599067,146.6371187782628 177.23764218060577,148.82977452629586 176.7955886825344,150.36677763471823 173.1798721469576,152.88043401899074 168.03941551953446,155.00010290639045 164.08444096327688,155.48334795019173 161.73277311584351,156.3707147117682 159.5831972231152,158.74648459004902 156.98878031322343,158.36878084907323 156.05062286805358,157.6720669751137 154.88128846628877,155.3429792979981 151.2508461722519,154.06424995683608 149.99705202806854,153.05972435565593 149.23343119106414,150.95730835263214 149.648016429189,148.93121673390715 149.10568798057187,146.09600632300885 147.06499328816417,143.82474445683738 145.09501151350617,143.59232765747186 142.85573267926264,141.50347905558272 141.2220782709382,139.152496214674 142.3496707955675,137.2935231729242 143.6827168491791,133.7334434705873 142.01648278423463,129.75282523730323 140.15785496130653,129.04165125958093 138.70580880340785,126.10137243464419 137.36537645892244,124.69966640253256 135.764963112454,123.86722940367031 135.5902045962834,123.05136096606395 133.96599190602674,123.17630087281668 131.9761916593543,125.16351736982733 131.58536071399664,128.26881192184067 132.11524880420245,131.4703990347134 131.82821448701716,133.64889492827388 129.92564233991027,135.98315234332892 127.87614007175763,144.23710032803876 127.15773754169753,145.36524133084788 123.38741124580733,148.70979296074654 119.28560623083482,150.9115398315497 115.45428368776889,150.41445387818453 110.458601056659,150.88904101118987 108.5575146859879,150.70619168607072 106.20966517393141,156.5952974024301 104.4073938196688,158.339236084871 100.84743571786571,158.88145150298863 97.60762337060943,160.81130977447697 97.28148143628556,162.54251140183464 98.73944610104408,164.23190436429877 101.29477010187736,166.4166960021388 102.33747975567856,167.8491947686848 101.91859763352717,172.2810816013748 103.44864890162631,175.40859081423275 102.88433449981427,177.26152464000086 101.18125578471732,178.84324073122673 101.2062224782098,179.78135866832383 103.384777806294,184.02415053338143 107.02338912673183,185.89835386308255 109.67832545744483,188.2263456193765 109.86883058412761,191.72456596758775 110.8896676895611,193.76950072262377 112.7238276474696,193.7483107558204 116.30781166203258,192.7862801923295 117.28822257761792,192.94422403453598 121.08863914789791,196.39928477058925 122.35610475938012,198.72066153003334 123.65431435855098,198.92035562501792 127.25972647251822,197.57072707938084 128.597008960152,197.7503255327531 131.089641146117,199.04719939943254 135.61528315682298,198.09907163961486 138.52512228736313,199.14223137439706 139.67983083273364,200.32050939906378 139.37836724989796,201.24704792104353 135.73855573159796,203.62788614652925 133.65325075993462,206.5148826590529 130.85725234945699,208.55258610019848 128.44500685768287,211.3055177342129 127.80243554046127,212.96540767558474 127.75887444193113,215.91339325141303 128.61824269035188,220.86571277521216 130.46673941579937,224.36394594931755 129.71241535369234,228.72756570228216 126.89728169175471,230.43847977645692 123.74906184383468,229.10747543504738 123.18047465728587,229.83977815680623 124.0831391917336,231.90532023775597 123.42937079481683,233.8002309112809 122.09235279871828,235.44730804372887 123.80447102262654,238.35380991211014 123.46518753780812,240.88308293404634 126.47218299338053,240.79512743950045 131.85662554097664,241.4019267009685 134.0247848919376,242.37124762561996 135.4145997285895,242.3057063585876 136.4822430976951,243.13756184883357 136.3070835181806,246.76003764761015 135.73619177403003,247.8801127633452 135.9004590538775,255.53710816823036 136.90407910842518,257.39928314953454 140.0465441720665,258.23029444177337 142.88065418470785,261.39774680605524 144.18722692873868,264.46635184119134 143.66256401332697,266.41434743620096 144.26281164703565,267.63166038793224 147.65603026947124,270.3014502771224 150.40036685283667,271.48758736903085 155.28773269468266,273.0293165704352 157.28546522660452,274.7944354604964 157.45069582046742,275.61204920584976 156.95628747704822,280.0116833822508 155.77506160136747,282.2532957549404 151.03243212587316,286.26746200657476 149.92338762772917,287.78437386925293 147.23663760110784,289.1620901598528 145.7015930853389,290.5755962230304 143.56875717855937,294.59039569498987 143.01201895648495,296.98893063796345 140.14647968935228,300.5106097060651 135.17336281475923,304.3195539117788 130.83123090974485,304.6779707458768 124.76265592087465,304.7210174047975 117.65029507007695,306.904768489234 116.75752847889288,308.7700735668343 116.8650069486963,311.2327239986671 117.67173568939724,314.854162529193 118.9151289946,318.6409365119923 122.25300661193518,327.0882924759808 123.87481716958746,328.77202023104815 123.87804509855623,334.435022593914 119.75461013777732,336.3783838469369 114.20066004005429,338.2017010703822 109.26765212529872,338.9749107911797 106.8339222507112,338.8197482773111 105.29072802203395,343.37131536717834 105.25429442252802,350.65095913548294 105.48067586372954,354.99766653405663 104.84636011384013,358.6038254931524 105.89763106675701,365.12364644135323 106.27638058048463,368.88929033981424 105.8562782075684,377.3356212786773 103.04745809815904,386.2219185399705 103.76258006426889,388.342811441809 103.27057282376768,391.2260205720403 101.20742434878211,394.0804981664942 98.91645799064594,400.5556562325561 98.49217255798412,403.73605677398416 97.19592355254578,406.22682103399575 96.24320537191244,411.6459660341101 94.87379233652851,412.88761308408243 95.13524936491952,414.25048240818717 98.0181514121568,414.7361229172558 99.07132102484991,417.0037537427122 99.49514164366349,419.81025707312904 100.82401010118728,422.6219664296982 103.13720089758446,425.80670036805134 103.558887365427,428.98252718357 104.89094071186747,431.34409437758984 104.60306960876368,433.1447704768244 102.59254178296771,435.1107897659555 98.14962211111184,437.78108714275015 96.33392045498316,438.58052472878023 92.685488470651,439.5551237757136 88.65060317821734,436.4416685366218 86.62754798460946,436.8508136931006 83.70416040003633,438.1665593369496 80.01646957792165,440.83956980847154 75.94149681318692,445.1699166826237 73.82163353143768,448.6806148400025 72.40598317841787,449.00059872419706 70.66200667637769,451.0597125672608 69.5433846600859,451.7399363089105 68.02521242477653,454.33286362182776 65.09889629662614,455.9452352999408 62.47891425240428,456.1655383886231 60.408116899828634,457.83359409423167 57.619320335427105,463.08279869874195 55.82819857628552,464.5783391922512 53.35225468179264,465.6802984884889 46.174599302111694,466.8880476676354 46.97771638782626,469.14689450388244 44.64998318134048,470.3313277306854 44.27766934279442,471.0054575416649 44.67510930137435,474.5118664459259 44.41065464148281,475.43247068328844 46.02679794553711,478.3107442453361 47.93019483977072,479.93062850821286 46.40094460327812,485.7729694924084 44.86953932735626,486.9936529197719 41.75544341889327,491.3300137377099 39.993682125576804,494.34312548348043 38.36368973118349,498.57605135894016 36.28589551674578,507.6660770611038 37.5573541652871,509.9291302430238 40.472049360421224,512.5197475575515 43.38612698202177,513.5217833247182 47.64049877368006,513.8029361056188 53.21534268651664,513.1901037588158 55.38071011989037,512.7513239591062 59.21692954796077,511.1332325822332 62.688366891546906,507.0829347888615 67.2375595234986,504.40249437243506 68.34127567370429,503.0553331196239 72.56834657343076,495.5040746879946 75.8888280662521,494.96880517261957 80.78266188779416,494.7185230035184 87.01920741981277,494.84429327568785 93.00398672704644,495.45977719973496 96.062841943775,497.41246032688355 99.1082567602266,502.06079511997984 100.34582881402308,509.539471006074 101.65514318716055,514.8255889588461 103.20897316882092,518.9449111361675 103.87191659208165,519.9630210086088 107.03855740736704,522.5724355273426 109.2408283118344,526.8183139022121 110.21348231918077,527.6739795559206 113.87095207523039,527.8864392720236 113.47200019734035,532.1504749302508 113.6121717571171,534.0282184716925 116.33102964541311,538.8511381864859 114.66276841048905,541.6121227655522 113.42308352528984,544.3549556518101 112.0435191533341,545.0252580490185 111.03061691192393,548.2513260872404 111.35289071303062,549.7505039962109 110.12236317505698,556.7100839186919 110.79052291225584,558.785782579245 110.48502635529253,559.9951232500836 108.91053666600247,561.7926655321301 109.04775053170307,566.3901713787543 111.44291507873864,568.1874601348892 115.1711843876102,568.6875569331592 116.02712037084393,573.3911960033074 118.05111112839244,577.8444408631799 118.12354819565361,579.3531006883421 114.21752704804545,578.2775088039182 108.42917592569617,578.7014580703017 107.18975365201436,579.0748402115156 107.16988630780844,583.1288696124982 106.79458185320624,586.4216351228046 105.97547840696456,588.6243095789112 106.15475634474322,590.7398630935486 104.21316035976773,593.9530380803369 98.99605446507408,597.4277318414083 98.1880500524512,599.2918866636421 98.86960066073809,600.7840981902016 100.79726207273039,602.5289906251168 102.8425188048639,606.6355179905115 103.96406990206849,607.9451700565871 105.08106552440343,608.197131247123 107.16993113547036,607.6117513947745 109.69021300740248,608.6709605294079 114.4178644824433,611.6309107332053 116.23344024645932,613.9495964755833 116.69234283737232,616.0670538151373 118.10491580164091,619.2472765632967 118.24979873057602,622.4107918870384 119.40941830204915,624.2239315699942 119.01425577155803,627.6622364677226 118.36874582964182,629.0048859736423 116.21197579066325,631.1314082807874 116.07325996385374,633.0102940993584 116.87794900515952,633.8971474279667 123.36715216659603,634.2356903343406 126.06285939194599,632.1838742940201 127.02800258520982,632.9585041255208 128.3162912211987,637.2888108217472 127.87725478484,639.4335943756173 125.02376916690552,638.8450983403927 122.77577075708815,639.0918930571029 119.57184267206591,640.781924529475 119.02199209075886,642.9885292958302 120.53847031065058,645.4613293923908 120.50089663685516,647.0841590636214 118.36685312360616,652.7354612506022 116.28958240550608,658.9932981652688 113.74685047804797,660.122051263834 110.77233011579553,659.5632191214327 108.0832588408039,659.8993868249629 108.05172276161927,662.3454015140194 107.00477009672721,663.9740227044813 104.91933586819984,665.3618053436703 104.59521516126384,668.3509529637096 103.78370614877828,670.7824096933793 103.5265279595655,674.3479661020185 101.6631959982098,677.3093166839382 102.36645239608424,678.5872510392129 101.43052642426387,679.8677771743762 96.98914347927342,680.6882735979527 94.68030351574674,682.7017352017581 88.74437316756078,682.5994886134565 86.27877873088387,683.9330045411242 82.97709954561391,680.8424029311841 80.98602999177861,679.3513280546881 80.14369252901528,679.8813528833812 80.51493381777006,681.5176795028979 84.83252980937147,685.3234482735944 83.75276935812207,687.2918721575828 81.18388853647743,687.3501913312723 76.24320485163287,689.8015515017659 72.76966508491469,692.5592582617429 70.0116755219963,692.4106143036743 65.50129734821853,689.1775690127931 62.97621311454027,690.3667597583348 62.259418783339555,691.6271313265065 61.86527193482768,694.1543104223518 65.82173512410992,703.5847707842556 67.63483369007024,706.5363613388763 67.64008208477547,707.3690092015913 65.0857197667439,710.0702119039129 65.05357814920676,712.3220755483347 65.64452514408656,713.8991918570572 66.13514154589926,717.4296564509073 66.01382416170316,721.2970938346228 65.57880460769103,722.1273060327244 63.03080103103321,723.5640968983907 61.688300715131625,725.7783862196131 61.656497407039254,727.9489364426385 62.72908054560411,729.2816897357663 62.85984705154458,732.6778004012637 64.20171223861276,734.2389283618138 67.51566969890533,735.4610806058872 67.51372857334907,739.4942941974606 66.19047792441931,741.8537488792249 62.75538199567841,744.273306061868 59.504534945802604,747.794829430009 56.40266058447215,754.8580000487025 54.779499017702506,757.061727694088 53.935185568027045,761.1632516038051 53.74540673631769,764.6312789106823 53.95785345033641,769.5531509754495 60.69129049956597,775.2738309437441 61.40614129154265,776.2969943593491 58.03377263932964,777.9874245472972 53.38879579064543,778.0739097051521 52.500066674984204,779.3665915959227 54.043885920632,782.5671732991591 56.608979977743765,785.6291565233048 59.052821937972936,787.2495165763971 61.623115616047485,789.4572750612879 62.90326024366093,791.5241563777871 64.17179477205569,793.8272999039752 64.71848669881766,796.4359031998476 62.44211884484761,802.4796734485076 59.45591810420856,808.2206380124842 56.14949811801122,815.5467007997029 53.717899651594266,822.1678771347014 52.79955503157627,825.191773171878 52.84447222258505,827.8713464929396 51.78318230713554,834.7277659691579 48.30940700029865,834.2439395887499 37.17178166223363,830.3560349209988 32.51847874335949,831.1626741303755 26.229701971149577,833.9790359586252 23.47106017220959,834.5186245027185 18.671261237351978,834.6022885570073 15.918511402715238,834.2755672705367 11.279041261566496,834.3596692861577 8.368447627209274,835.1862973684888 3.184564082496702,837.3475233896498 0.0,840.1094990888039 2.3798355632640393,845.4642016619122 5.699875004372198,848.1139984461003 9.763573186779672,848.871828309357 12.379856909491926,848.8059025599283 15.091788432907451,849.3694937080394 18.770452411560477,852.4746333659427 22.57731676744101,854.2920394953935 25.236376049981388,860.3181299138538 24.465323097091744,861.8701926534225 19.854179375065424,863.5018678878735 16.082796729014643,863.8905228930663 13.680886060236967,864.9374327416206 11.493357676093053,866.8724212461921 10.563464647056069,871.2072710465679 10.821957431782254,873.0959799651682 13.11300034994914,875.4406481317088 15.410623929135042,876.7648438595393 25.94149089347761,881.0995895713943 26.457003797516933,885.2896657513859 26.22125074385729,891.0747919819903 26.633642095730536,892.5212677191491 29.065341100467613,895.0117577270236 33.10818870696254,896.510942560976 36.292833064562714,897.272394827879 43.642793778896475,900.978104736612 46.95066417856866,903.039966688069 49.801556367942794,906.1099855687112 50.22280848281975,907.845628684474 48.72409995141632,910.2818594725603 46.80615025661187,912.4276083276144 39.74073692489179,918.1231904316279 34.584145843366926,923.1285343677562 34.12404788715065,924.5602842276872 43.21186476387617,928.4319585004106 46.39908501579712,929.0491642116633 47.66703755633083,931.9569374148051 47.43904777569775,936.7242047315654 45.51972090620931,938.8699119769261 40.08725788728348,942.8537216578909 37.30812021331425,944.4067340680517 34.76562415589513,948.2734750215976 35.82599490887541,955.6614190897917 37.08531853630016,958.2813051999755 36.77405779241756,960.0139501278961 33.51609283391449,964.3005794056295 33.027577746196805,967.0449819412779 32.72560041528647,977.3088812755464 28.59097725242822,981.8799517697779 27.252175278213222,984.0311418654464 26.481586905845717,986.9080295820984 26.448693399265377,989.0771875017048 26.987100954461592,991.3947632106482 29.112861100424283,995.3334730663745 30.352847283553768,999.5352880474616 30.599281639732578,1001.9960301816631 25.995867319512172,1009.0259237707182 24.644846628266297,1011.4568206332383 24.90060435412061,1014.0726821172683 27.185336126995313,1016.7014527123149 31.64138341645048,1019.3532085431956 39.87117154852913,1022.7811786731937 45.07961701565731,1024.0 48.15346946141738,1022.4470175014943 49.78403936765435,1020.1508394122842 53.18146427717746,1016.4395870281095 56.83750354835957,1014.8995469909095 61.78664133874669,1013.8000201770604 68.57603358766764,1016.2034967205444 73.34669543708264,1016.5497778784425 81.78314866748087,1015.374439941126 87.86056021239752,1015.6015765370284 90.91716051282746,1015.2142871144474 92.96340441957267,1013.9432559407969 94.59060999803594,1011.9465614023703 95.63908118227523,1009.2234445381239 97.2694817395547,1006.6481360983923 101.16560266712328,998.7217520448197 102.01352799549679,997.8788280758334 107.04682070041702,991.3321578090248 110.43786906466967,987.9191165672462 114.5927918063162,984.2403464675108 119.18998581786278,982.5675067741258 121.50686151010825,981.0081584390266 122.54959493088906,979.1845635018535 125.85876833365379,977.9188293417263 128.5174926934873,976.1231571377117 130.29564693154967,973.7455645653783 133.05604698411886,971.5789404750799 133.48849018141965,969.1228881999294 132.16970875416328,967.5988693666143 131.21490209412585,965.6226491897224 130.98426852823215,963.2052848383204 132.93504108814952,957.8649765941359 132.72000907739326,956.6356916844255 131.3405687452451,955.2563363214404 131.89937596006268,953.7310820982469 134.7875436275516,954.3733135951732 135.97409963163867,956.2471290788577 137.71798202284367,956.8016999404856 141.17634671097676,955.5572469141063 143.95438728494005,953.7412736882112 144.8975550651458,951.4738363849353 147.05532554899042,951.4935445083102 150.4336752942661,950.1240977147322 153.6413911264015,951.0554198178606 158.3623170867936,952.8194770138256 161.2297996359944,953.61544395458 162.9063414877709,953.4770461072362 165.4097132483827,952.4651371401172 167.36670322129208,952.5243363300699 168.74474166904383,954.4600131866329 170.51119985245737,954.466708627622 172.0359740038379,951.96347303545 175.11923953885096,951.5205662970325 177.2642575803276,952.3238324363851 182.9829205272586,953.0876019221703 186.77191598487508,954.4642419847078 190.0056942506172,953.9385718697629 193.13264114316638,952.4109284476541 195.40340993057757,951.7682426281577 198.4918837157031,949.7032449132207 201.28318819181382,949.2587126538097 202.650298025468,948.6228735897448 205.27890514935328,945.9062707695458 209.6232132292014,943.1225183747885 216.04571048725563,939.9528418658443 218.4421073163601,940.4970710014534 219.50350600956182,941.3365808110416 220.76998043040504,944.0030963787301 223.60472479323448,945.7975478136796 228.69585476606557,948.4031438385836 232.91835098252926,949.4782324469835 235.41161997156127,951.6638229447344 234.97655896020393,952.7775041848549 233.10370315062545,954.9812818880641 233.7426773406612,956.2737627021111 235.94601643208867,958.1276522032016 237.01515288630878,959.948142060172 239.59719679901335,962.7734761735898 242.05152730294876,964.83515901349 245.64881635593972,967.3124960553529 248.1963366253567,968.2378760288211 249.61262425267387,968.0763318969449 255.1242495587888,964.0010393801024 256.57129774368735,963.3125453895021 259.65427500426256,962.9480445000238 262.4129941654949,963.8424638437385 265.93914940371195,962.683963169808 269.3476818624963,960.099438548418 271.63162444389496,957.6786859196068 273.6757015602,954.7922333405664 273.6794211353919,953.047147457298 272.60509059729424,948.6162512455535 272.6596773016134,946.4282226700232 273.62380815974336,936.717225747433 271.3286651785094,935.3396473171125 269.78799821139285,933.354213879907 269.7133117659336,930.9289288073442 272.07351363084746,925.1863799834714 271.6266066155474,923.0489329127586 268.0124488061216,919.7392127114935 268.3871827770154,918.0377918200151 277.5042387222474,914.0125546862948 281.1168376785818,913.2876209138656 285.26871810956214,913.5536261638507 289.27152377114265,913.2827484572699 291.3778536714145,913.4310118048047 298.554101693355,916.8490337791375 299.4064732311189,916.9532374948853 300.6827419114564,915.5626204223477 304.530020206665,912.2780057870107 304.8244912569653,910.1117603350632 305.6475036894298,909.6902201171832 310.36208292938835,909.470827129022 313.94159809576865,910.2810787915295 317.56075481075385,911.7819123802357 319.6871209003793,911.7130828281524 324.4141073177143,909.646078347921 325.8086056689852,909.4720784775891 327.6025244956314,910.5476707058309 329.58369892856905,914.4084203908733 332.40161804642315,915.216660423914 335.07786891913514,916.8294093530193 338.28717906380285,917.6378338744385 344.0046292709235,917.6955623486795 347.42512679971753,918.4211711778636 349.30921710037734,919.8365441103431 351.406071582784,919.9418109559697 356.4932191605749,918.4600801439774 364.31843593272936,917.9813079534242 365.8623407678381,919.0033161507572 365.5269654778916,925.6280175354946 366.3770369778436,929.5914290141963 365.17594566393126,939.9212479353703 365.1551989045816,941.4280951565247 366.46825216414214,943.4935724351035 366.4662253731822,946.6005629195379 368.93359574170995,949.1828786442243 372.235426997022,949.0505781323486 375.0150698115094,950.5589308803827 379.2102000070738,951.1602938161419 380.8362038114884,951.1194080477046 387.4205270253964,950.0378683038173 389.1866702285841,950.5646388674174 391.42461902014026,952.0002584989384 395.18813751915883,951.9084593838817 397.7377976529831,952.4767303961727 403.35816082018613,952.2605449634765 406.4698528860187,951.7445160785056 409.1495494134536,952.7767967864775 410.55474873130896,954.8413402623014 412.0503896335782,955.3882766004864 416.0756679592409,955.8321508292187 424.6482404535696,958.359442950423 429.1549981529617,958.2653966431174 439.71549760419674,958.7669042783946 443.5396619324927,958.6715427794298 446.85279619813275,959.4024894623587 450.61592423591895,958.2126741619413 456.99992734987484,958.1361020571201 461.0160908580185,958.875824498383 465.8240900731096,959.0473592480489 472.4912203579579,960.6925982798874 475.3526805300403,961.1231538846847 476.4165491368371,960.7816731548191 480.5416793888308,960.5803684614467 484.627918350642,960.8748238401754 493.32284028992444,962.1132412009704 495.7910742619465,961.5520657298279 498.1506668861037,961.7245274803863 503.3230254848906,963.2961644364208 505.481618222055,963.5613005363123 505.89956189545893,961.1960549871352 510.5086595129499,962.2524614526235 516.875143576028,963.233012227588 521.2219275709483,963.3796801312786 524.3225692620287,962.7343016774854 530.0370474748834,963.8281709101999 540.1552847304151,963.5699811183546 541.0402767759197,964.0842553956102 542.6326006874064,962.2947884520428 545.0499511449337,961.4733900007205 548.3626330650893,961.3941875341922 552.7378637178597,960.816369959002 555.085090427586,960.0981023582651 560.3033373136818,959.4768002754013 565.946296072247,959.8963860072627 572.0592627059187,959.9115176715802 575.250774277495,959.6654625729791 579.0519580061812,958.4161466956425 581.2565010560364,956.9958413965269 583.2282437103374,951.3844536641558 583.5707147630163,948.2039812453258 584.9780445854432,941.8617766323609 586.7912723430022,937.2634800227017 588.9939261273015,935.6985671327515 600.3909069464546,931.6391766382575 603.7818147462502,928.3570805506981 605.834131674769,926.7926649117019 609.0671941778768,924.5223027748822 611.9827707744487,923.2643396911008 613.2436173030555,922.2486734270277 617.3584482646146,913.7948401627857 620.0563932157103,910.7630921940047 628.4634072978293,911.0534696439333 631.7122366749722,913.6315647677005 634.002981131421,914.6858953143712 640.1051211840819,915.4475128406953 642.1051361502219,916.5032603733365 644.6718106997781,918.7221175053604 646.5305903156968,919.4788954371788 653.3468647940368,918.162363138248 656.1054158371102,918.0789799369542 657.9637420275751,918.6910959508298 659.6754603258358,920.1697053806637 665.2297162501054,924.1926124645861 672.7291415607355,925.3789060483326 680.3571994471412,921.4347871651131 683.2676064050906,919.472034263782 685.3025843821997,919.0710139184113 687.6042246459807,919.9790229024755 691.8833647118682,923.3750411056121 696.0064498980804,927.6494306934585 700.9517091102223,925.273079061964 704.4540383658833,923.3065554203746 713.3871056418374,915.9475220262001 716.6072358824974,913.8266332128967 719.6417588029929,912.87247586726 721.4417619446259,911.6974876433136 721.7855638769265,910.3344036478501 721.6625367344874,905.8053566576536 722.8595099872721,902.426182081208 721.6036157905822,894.0872399685712 723.2473574445976,889.9639773214828 726.9970513611916,887.8404562723975 727.823379483648,886.6399832751008 727.3797685868523,884.290747668336 726.1480847129129,882.5745398345816 724.0370139727163,881.5132066854786 723.7280088712512,879.8647454346166 725.2853127524032,872.6384223027359 724.7450646607898,868.9087463866331 725.4842038156206,868.3686257493996 728.4110028553865,868.3227472547641 730.5155951357694,866.3013302084962 730.5721012199647,863.682279726722 731.9330672356344,861.3558272918638 731.5526010025674,853.7807256503309 734.9416091426408,852.1343873573778 736.2255055454474,850.4271564515242 737.8685530869901,846.5838957104941 738.0360884828398,844.2226410439124 739.5286197308883,842.1738785433643 738.5164181653532,840.2726969414539 736.2403210806223,838.1002388072125 732.887214672059,836.8295871949083 732.289154380715,837.3684422477255 733.030391801753,839.3020226760873 732.5990602551999,841.0665145628509 730.6449503276974,841.0048397234394 729.2826821965244,839.1878956380901 727.9370433896477,838.5658292358571 725.3851805592966,839.2079257743881 723.9311893290643,839.0092376418816 722.7112593663237,837.4794628122288 721.2720084051948,830.2115361646108 721.4005903274987,827.9337209953724 724.1162759391464,828.0642862270008 727.0365243372709,827.1121363812666 728.6237183165366,826.0318676719892 736.7318909637102,819.3136002089026 738.3113721581094,816.8528121833182 740.0159620826383,813.4648042152279 740.6625099093266,810.7007281401275 745.8204308086757,803.3906116299697 750.164757934207,794.0562790649177 751.9427946312677,791.5234158363012 753.9432909259,789.3907455089409 758.5021664881011,786.4815687467764 763.8234768644517,783.9697923516321 766.4407169794324,782.9865793023396 770.1529540226365,780.9575145625779 779.1392482660515,775.5298177541739 786.4136696293359,770.2247191050574 798.3529084273348,758.9514356550892 805.3481806521633,754.3056929574248 809.7676214340096,752.3112201764598 815.4359118440454,751.5335161449386 821.7510961415119,751.8105071188636 825.0584923862501,752.6013790734421 826.885568517456,753.4947781818045 830.2840915960008,755.9210355502609 833.1225923108171,759.7716772076852 834.1793486905501,762.1009555658308 834.5746080484986,764.2501007063843 834.8421438652498,769.6733065366667 838.4031667676113,779.419029962649 841.7343155188021,784.8428990780963 848.2867021410386,792.6024068421842 850.4867842053219,796.4284620789086 850.9068412214856,797.733349266054 852.6054047564627,800.0697172606115 854.3537439803957,799.5005977749694 855.6646465313739,797.9670648613053 858.5465366250558,797.6783121897853 859.7879573615677,800.440118024891 859.6935617258796,805.3540585808377 861.0779345313615,808.4135644502496 862.2333839498011,808.8791090286996 865.2809451259299,807.9194572864928 873.8400848311798,806.0732714803248 876.5919546632608,805.8363525974734 880.0441199119628,806.7682620102 883.6310766255151,808.2857725029878 889.9620420999875,809.710607047263 895.573798890126,811.3969981965904 898.1863586539771,811.1602224556558 898.9031786194321,809.3827307906244 900.098062865988,809.7438961972565 901.3113818044593,806.1597190118898 901.6339838914733,801.3982308741657 902.3400480694778,798.2302842835843 902.5369139712973,795.3449905477504 902.3135968205694,792.4422444310019 903.7213868811733,786.9112592338685 906.7271641676136,780.9658662628087 906.0646538957943,777.0480459527557 906.2666811959675,774.7709417169312 907.0523152162207,771.6451256713747 908.8341183109021,769.1497663837688 910.0069771713954,768.1619962845219 910.1676347358516,767.0078210603397 913.6375612714677,764.1481285375578 915.5269267618423,763.8962892695879 916.672623669142,764.4838075427183 920.9744456948018,767.8659678635968 923.2914664262127,770.9044713428106 925.4052613543284,774.6556074458892 928.881507479368,782.1324822651806 931.6387221729376,787.3920691365006 936.147162814129,793.6262745106809 940.7277835280706,798.7987005778318 944.5483662395311,802.8446724163803 945.5458978651342,803.5779431608817 949.7149717287338,808.4967613701001 953.3047770091187,811.2362898207986 958.6792411078958,813.0124194018231 961.908940379153,813.5194793587629 966.1853431210421,813.4194095929267 972.5472290853629,813.6089871626903 978.3346872837163,812.2475009860467 976.9798112502579,807.6243700023157 977.6922495770092,806.6288218028809 980.4527288839734,805.1504716527563 980.9364422175418,804.3940029419513 981.4832215633896,798.5071695589611 978.8969741172506,796.0587981778731 974.8450432599309,795.3956455392766 971.8679599396986,793.950294402878 969.1679420694226,792.1619116759284 962.0043105984178,786.0981289916099 955.711546158588,779.8518928087566 952.0876117828641,775.2810669869389 947.2383082601731,767.869691847689 944.4614953076992,762.7464509202991 941.3214761901319,758.4292812576043 941.1293095272996,757.0618365559086 942.2442788032711,752.8730514759611 941.8386577178672,748.7497020132184 941.5864016682924,742.7623590396529 941.8840155687261,738.9417956010495 942.9640512351947,734.3019406294613 943.1568093406644,729.9994218497944 941.87695397025,721.9439569088187 940.3863692077505,717.2865912817699 938.1224665046395,712.1731671101727 936.047611237029,709.2592196905757 933.4427690230611,706.3610713916376 931.041109235463,704.9821208727035 928.4384636326396,704.6240450330175 928.3965778311155,705.549745007934 929.8754601633883,706.6378293265442 928.8553891592377,707.8188948959831 925.7605072307143,706.0245226348954 923.5600973463737,705.9610144986736 923.9005587441629,707.1614922864003 927.3750028797881,708.9527621732607 927.1358066272511,710.1889892926724 925.7592361558796,710.6222595541394 922.1656262358233,710.1997341961765 919.6175212047282,709.1922056932212 915.2477169306967,706.7498024470611 912.4130614580828,707.4002425296859 910.8799467858269,706.991067062308 908.9138633675869,704.9811614223765 906.9918201576926,702.1892202386144 903.859662326996,699.3760836681956 904.0106924484244,697.0400961842736 905.5886320580769,695.5983972121844 907.2720825019326,696.0682505525842 907.8738718211313,697.5541248167533 909.2727201359421,698.6742225875156 911.740569493765,698.4895827277869 911.6704192116962,697.2559491607981 909.9724781507375,693.7424178172753 910.6964882682242,691.8650323196489 913.8607398951322,688.8166391561779 913.771111333544,687.6758244037062 909.2630876503927,686.4173270248884 906.0522514710435,684.9318207535247 905.7820916861949,683.6594561149027 907.478981709619,682.1240698971851 908.06064236354,678.726846863756 909.2517705227249,676.4447723509677 910.0339444565936,670.6820969369501 911.7131370469939,668.2428040568252 914.7998020024997,668.1247905281882" /><polygon fill="black" points="435.84939194881855,80.63530719198752 435.2266367394641,82.57961581901998 436.73107816015215,83.28110511964383 440.0776807262764,87.290297066746 456.9037767157269,91.53353013332912 457.111475273283,91.0448326068165 455.7622736717914,87.03500645228075 451.82174707273225,84.48326231354633 449.94958460450584,81.53268457129786 448.01918665952564,80.07854892681132 446.1988268350245,80.6395230939745 444.75529468149415,82.33043084352846 442.69763930361773,83.00301882738108 435.84939194881855,80.63530719198752" /><polygon fill="black" points="734.2302209066781,890.4230243538453 735.6190205914297,891.4266843717177 736.6970004565636,890.3993527479806 736.6673999899718,886.7591025701445 734.6502474817061,882.5721457282715 733.7647270949299,881.9477774911168 730.6477292394336,882.1908912082333 729.5629419304336,881.7836763298181 729.5563591092814,884.4345989845353 733.5106729160781,888.9828520762153 734.2302209066781,890.4230243538453" /><polygon fill="black" points="995.6406195315485,555.3108689498631 995.1269434835926,551.69420212369 994.5952298013106,550.3345106735323 993.3382385125138,549.2383412376298 991.9784590678411,545.7633987511408 991.638718820831,545.7256719527071 990.0901726536075,547.5156392438455 991.2755741992522,548.4272210821441 991.2799164425348,550.9922438543429 990.3833998890344,553.1863654270496 995.6406195315485,555.3108689498631" /><circle cx="565.759870059216" cy="546.1259460893764" fill="rgb(100%,100%,100%)" r="16" stroke="grey" stroke-width="8" /></svg>