<?xml version="1.0" encoding="utf-8" ?>
<svg baseProfile="full" height="1024" version="1.1" width="1024" xmlns="http://www.w3.org/2000/svg" xmlns:ev="http://www.w3.org/2001/xml-events" xmlns:xlink="http://www.w3.org/1999/xlink"><defs /><polygon fill="black" points="25.573742259884668,947.6260040105516 28.520656529429115,947.6368451726498 34.6681650885474,946.1706116498297 37.89613547744814,944.9917829412302 42.00414935527864,944.4099228435347 47.279419036967106,945.5721663765274 52.24626957935644,947.617881402227 58.66721702248879,953.476264880787 61.592745083535334,956.6927269784217 67.72525438897082,961.3636728545993 70.65508439386791,962.5308672942725 75.6286578626904,966.0420406095267 79.41813222301228,972.4812483089441 79.70166516338132,976.2913472751882 80.57485583894766,980.0865340058248 82.62550502970973,984.785691132643 88.18457649812247,992.9752649063519 93.44675253155417,998.8300086094805 98.72069592642367,1002.9230978165768 100.48062487204022,1006.7334359949541 101.64148438135362,1010.8249382388937 101.63633035479599,1013.4679048684433 102.52053964626381,1018.7305386391726 103.68670247994962,1020.7821058737626 105.74119677670294,1022.5304151729019 109.55070420412967,1024.0 110.43335560206118,1023.6952294345024 111.60689153896853,1019.874712648026 113.65605793879618,1017.5339692337378 116.59553721094001,1015.7698384308909 121.57751601271173,1015.4569886087378 126.84751224083656,1016.9156799698256 132.7207196582036,1018.0621645911643 142.10576412631323,1018.3412677926505 151.78280757542052,1017.4501317979319 159.1291034311566,1016.2589089649728 165.8766478117413,1013.3180980525524 169.4077579233086,1009.2119185830026 171.748879884012,1003.9377001986471 171.16883033137205,998.0791938455 168.8178105559859,994.2753827561726 167.06852727371998,990.1686067091266 165.30544752161308,984.0127694184035 164.72744365853444,977.2634951147071 165.01254664693226,974.6276249770506 166.77562540093842,972.2884054287471 173.8362079486452,967.2865137594658 175.8982720188651,965.5187859344776 177.65334326531385,962.8933740365767 177.9731077228596,959.0787911586541 177.69804616013838,945.5874680654895 178.59220354303602,940.3147531552607 180.07582645204232,935.0268160168832 180.09180825217314,932.0960183120397 181.26249089899457,929.4657275141245 188.62081427888393,927.7085525556046 190.6691418533801,926.2484272411846 192.45311186122385,923.6026308678152 194.52687217012434,915.6778262579976 197.48187677737835,910.6969536939271 201.90465893092409,906.5970771943238 205.15654030447476,905.4244777708054 208.98166320747384,905.4366163028037 215.43727568947625,908.3775378314486 228.6660810623039,912.2194093563168 232.4852843224989,916.3279942160568 233.05408392066528,921.6096091021568 235.09966949209596,925.435084282635 237.73956425727417,928.9481975945774 239.4896043702254,932.4805685040864 241.84663522494708,935.6989330865263 247.71552915743166,939.5357577445089 251.24412160245507,944.241678154634 254.172710952573,949.2276715424484 256.215873966212,955.6883138350479 259.4550188694387,956.5733771971339 268.8795690984408,954.8598811658617 272.1070490996648,956.0432898529837 275.33799574580706,957.8296898098739 277.69777330460266,960.7522568145705 279.4507176221249,963.9965975065261 280.61811262561247,972.4917324508006 281.7907872923499,976.8991709106148 285.9041953347218,984.8290146834579 289.1353088666017,987.7844299192462 293.8452907497671,989.8678220372809 299.1516210328738,991.352415883959 305.0322106227257,994.030637394611 310.6316087047266,996.9863768113632 312.6925398824851,1000.5156218741581 314.1685148498327,1004.6342608946334 315.3456867882314,1011.3691747326847 316.2419922308774,1014.312565840752 320.8326573548149,1017.730172928415 329.32658471328824,1020.7446380320353 338.65550145351307,1019.4271895031653 342.1571565607489,1017.4303109300806 344.8206867834275,1012.9280629426094 345.9493703308348,1010.1924667748808 344.508441646012,1006.299893913829 344.8126976908259,1004.5450393818955 346.5845302050302,1002.787135789702 351.58992551351014,1001.9467101134015 357.18672147784895,1002.298103300724 362.1983303647949,1000.8619646664508 367.2151000056472,998.5441054961669 370.4596796814621,994.7657735408859 376.6526699177815,993.0638266689124 380.4811552590666,993.0819198840686 384.60555278839183,992.2266236384107 388.4348729409366,990.2060638580223 391.69064108659444,987.2980389608396 393.1684224783839,982.9190957825117 396.1289811375442,977.381174811468 399.96947455663854,972.1309795916712 406.77391497396036,965.7195680663671 410.01960180852706,962.2174276211617 412.97691823264216,957.8561823053066 413.88716064513176,951.4142422422731 411.5461461769641,940.8390122501664 410.9818318630541,936.1422749646898 411.88064950155723,931.472782990792 414.24210919131315,930.0167536838212 421.6277055443498,929.7782677172446 433.7368489693259,927.2131547573409 438.7451164636465,926.9426941026946 444.0533397291437,929.3141471013846 446.69363518103114,931.9538421710552 451.7053530684466,935.218538949834 454.0669098127803,935.2189950567109 456.13331476137216,933.765085671981 458.2188688345939,931.1447831400949 461.4721165640076,924.4045881543741 464.4421723940811,916.7868339117576 466.23281233657457,911.5243527394609 467.7159415415095,905.9584519438903 467.7346188702001,898.3271848759289 467.4642956012544,890.4000431171771 466.5926117461345,883.3506633616475 466.3191384559999,876.0097218420259 467.21231044512353,870.4291088216678 469.5849074708846,864.8659008443916 472.54663106192686,861.931297584497 475.20826310074744,858.4147197659072 474.9329170286845,853.7062137831846 471.74699173676674,831.3785670412967 469.9750714516176,827.8405737110246 468.80680984385367,824.3186508320287 467.6271770100024,818.4413215125026 467.6561041800779,811.9684236150647 470.03394198426406,805.5173570935058 467.68184860591475,798.7505847878115 462.39374251276575,791.3856312085536 460.0354158892898,788.7344336042765 458.561410893311,785.5013808256313 457.98727766941585,781.3817198480081 458.59345393210094,776.6867937438227 455.06781832854705,772.2644183049933 451.24721832427184,768.7262135690014 447.4082660770033,767.5328364587799 436.78742799496735,765.1397434571677 430.8981100914168,765.4074138195115 427.941525191469,764.5120111888966 426.18821299535784,762.4489605002425 425.30207166757526,760.1028401354118 425.01832081348067,756.8605873808771 423.27155390028395,750.0987863680284 421.53914368820676,739.5197508854594 421.2645086017421,735.7050775623878 417.75291686323146,729.8188309159359 411.56476628444636,726.2607465300612 403.6482125806138,718.8789566491232 398.95968062379706,712.6980570705559 396.32144781708837,708.2793031507196 393.9924552924117,703.2747304561092 390.4741371070172,698.5666173154862 386.66120584726576,694.1487011690597 381.6796980405603,691.7670383197576 376.37673253695567,692.6204488228057 372.24672392972525,695.5314192114886 366.6282199851276,702.8351779438959 357.4594779074566,712.7475015170703 356.3154056438645,713.4233966743913 355.6397799414006,715.8338219483757 348.6031586854542,726.5568070008367 344.00783052262744,735.7558236077728 340.635862643419,738.8150468468089 335.73802889567526,741.260832649974 328.99680997532374,741.8603063407919 322.55914656026636,741.8523952816231 317.3461200961388,740.3094843189001 312.75723286820886,737.5427984474213 304.1682133094764,726.7841977257992 299.27324430756323,719.1073506994242 300.1920438495007,713.2766432526622 303.25557872258634,708.6775522507274 318.5773370451167,707.4770827567636 321.02773955973066,704.0997260387699 320.72827509252323,700.111357372577 310.61475842107046,695.1812427123773 309.69554674956754,692.7226333441458 313.06767099856893,687.5161756448556 315.81423712460173,681.9886769609014 316.1227244935622,678.9260470835594 312.7588508149312,675.2307664541831 304.3026558084845,670.3681943394929 294.0616072360438,662.0105974936056 290.38500043257477,654.9513035565305 287.3124055887471,652.4901858268483 283.02732706843653,652.4835479199664 277.50535102815775,655.2407358606725 272.5994575705457,656.1604488454163 270.75476376232064,655.5399507819743 267.99657934943554,651.8590628460998 266.1596498561447,648.1707271340583 264.6277737166933,642.64759042226 264.62209536245064,637.7383362353371 266.80359349823783,635.0807385385406 276.9198602539427,634.2728234320687 279.10219997676376,633.6520310973824 280.0483615891919,632.396632204669 279.72830630732653,628.0206888816642 273.6314252029407,623.0054139379105 271.3664317991974,619.4852081533901 266.05533616367364,616.6741679712486 257.45206319570934,613.3786180860102 256.05075421351984,611.9682817113807 255.58256409555068,608.3704383921842 255.57065652707328,594.921097428474 256.9002681130591,586.6980030178444 259.84647108759435,584.2912452521622 261.35151980565126,578.1328842124267 261.1476776646513,575.5467821926275 259.9557804589073,574.5855744536962 255.1139380354809,574.1120991085055 254.00904937010168,572.2301436580942 254.7984924869581,568.4806792557313 254.631963251451,564.5650188529876 252.60597582301176,561.7596463927205 250.10454782468798,555.6533786696086 246.97552099232476,549.3905468490751 245.41171699508382,547.66451807 238.51999822613493,546.7377426134071 235.54757166708208,544.5427984458466 233.2014010412893,541.4213097195288 230.87699342816632,536.7672927987281 229.1565615935671,536.0347015683649 224.75627669875226,532.5000694907218 222.02876728764147,529.5368426917735 222.75857898685396,527.8233960548839 227.55327387006062,526.0471893444126 229.75714892128846,523.3005372091231 229.62206395384155,521.523113075405 227.1417012908585,519.1903258344614 220.01493352604768,514.533972094425 217.89556585907377,515.1336687736518 208.71477964241095,511.4637763502567 206.80433574191323,506.5293520992111 204.4621038934433,505.7921609646411 202.74650558183563,503.63775895476215 203.96200445341796,499.75443419474266 203.09211977010486,495.938063451252 200.21184248983593,493.4957510809188 193.87436939276037,490.969329275899 187.69303509446402,490.42460314803986 183.18282311593617,487.00378837974984 181.08750946066627,483.7290320676584 181.22076971143068,473.3725381979285 181.44701087070993,470.7553976688155 182.69553390660136,468.03657878675597 192.91783423581978,468.4072212756681 203.7858785529247,471.4615805841572 204.08769562308822,473.17618318632424 209.0917600148943,474.94649016546293 212.59169328752327,476.9222806147627 221.44435706183907,479.6837235434406 226.436209655419,480.5752151879302 232.0371570297524,480.8894423613639 234.10029908312924,481.7715853044866 236.45491956068585,481.7836835586379 237.3346643583124,480.0289700863873 238.54476323094147,475.0423239550522 240.6288081133875,470.0671724277296 243.2981127244572,465.968884704198 247.14012084872496,462.4735039251642 250.08365884545742,461.8976243382534 258.33586596163605,461.9236522265337 266.1884638714806,459.6924958493979 268.1855189699983,460.2394149862689 272.3596919151149,464.95799823359516 274.5334055137238,471.1235973825293 278.51944446359823,472.39886627485134 281.4198954176944,468.77814999631437 283.319040327656,463.8763039533163 280.8727342346796,461.5762251904396 270.6265271998779,458.96111539896344 271.2713380722049,455.70654613639726 274.53794693805173,453.3491431222541 278.51835588800907,452.08127949362006 278.6985035615917,448.8089283964281 278.1546510036974,443.5501081322783 274.53267447774664,436.10860543079684 274.3515537120514,433.39152486789555 276.70627029567333,431.75843341826396 277.9066268222437,429.19316435574547 277.9164579240553,426.26067085076966 274.4093310382042,420.9644631917221 270.1575754015501,413.69418075616943 269.4433713146511,408.3859487245528 266.8958567870584,404.7788069970534 267.4263103441177,401.66823912012217 266.45331484904904,390.6311193462135 267.3757635098767,387.8142995482201 265.44047468555726,382.8236627722723 267.39028418227656,381.2862461835133 268.3353741155879,377.1091811188013 271.45637973908896,369.30041389634584 271.4587466784452,364.9279129949741 274.8954996149945,355.86875009935113 281.52509122384845,330.2579903399637 281.93293048087236,327.6899109313158 284.5658116942254,317.1293265062045 288.63070359435915,308.3831209707379 293.31642711218916,305.8935267834637 300.79817948898796,306.2099729468572 308.2871284983957,308.7308051464813 313.6587157648433,309.92133619023093 319.8228065092672,311.8712564272371 328.8620215944019,311.5811854019705 331.8188422817511,310.045304122434 335.0116264597889,310.1397792406319 337.67596794167605,308.115487463623 341.231529871614,303.7557264709668 348.92063895459944,298.5527996073489 353.6594741662929,294.4980546779442 357.80956650938066,289.8574426944216 358.1346353790261,284.01270470168924 359.9169904045167,281.68026060433044 362.58085058950064,279.67559355192543 366.7102717004648,278.2305498966249 371.7167531031988,277.41169120882773 375.83863049628815,278.01897125894595 379.9711013125964,278.06449157825716 384.39384857335335,277.21962366110847 388.2382023905565,275.19348100618413 389.723888817022,272.5879337944174 390.6311758114584,268.80120788703243 389.6089198025501,263.33744893165704 393.78809509568265,254.98926653224794 399.93682473393363,244.9495835332707 400.7479250775785,244.47314161173654 402.0484261292649,241.16289663731357 403.1476690963651,240.05153139266338 407.53572244123876,237.6231757105253 409.14207362292007,236.00568679843173 413.87228655506317,236.3420700973029 417.76305338713814,239.63533203838927 421.66422487350275,245.17478185839127 423.50135098662054,249.0786751303516 427.6024125927265,252.57450582444574 430.07010915663176,251.54146523117947 435.8135470362392,244.78140675502175 445.4562134540648,231.2389909406803 452.01259398399907,226.51273370430022 458.375284545578,225.07756896752664 466.79615685684996,225.07112077416275 471.29541735946316,225.8267148924392 471.1393819919741,227.8083584724708 472.3023068476196,230.45176160835706 476.1349856263208,232.22273107286912 480.2865515837549,230.7764886807837 481.1944875464619,227.27539878947402 480.9165200814186,222.30667454008847 480.06177863830715,218.49726199306428 478.60975374368,214.6918372985789 472.16558910480387,202.67471891961748 469.54190389699085,198.27997951206282 466.60178241772036,194.45894992238834 461.3053840767575,192.9766745318169 456.8822236292313,190.31230199624724 453.07205426428715,187.35605397600034 451.052240148317,186.85289572046258 450.85348387517774,176.61827615754908 448.85705192938985,172.8083946286888 444.6461281118872,166.98920615596808 439.2231202164987,161.97639409325257 431.601082447923,156.14630106297773 425.99258557502515,152.93191920314757 422.9976117571791,152.52957822542282 416.5822331286294,153.3225657380441 411.76728804118295,152.71169618501233 407.364743490486,149.49525469090918 394.9443038755328,138.04439628621992 391.1437297565559,134.83305637027513 385.94014905378793,134.2157639668825 370.1166857072911,140.00709360706185 367.9592681834113,139.58738024506692 364.4738753259551,136.05584193225332 360.3834733487278,130.4585475472793 356.9111018559867,122.22484448824878 359.30960625554536,114.33727238139443 361.6986785254968,108.78685952795718 364.0769667719478,104.11349990995132 367.0409172607075,99.44577467542672 374.7145964731838,93.35980226993627 376.19391749305,91.30666953483671 375.63326145762676,86.62807699499149 373.2975793963484,82.78200922510882 371.2680360654673,76.02682562038638 369.5424460671143,71.89997874227515 367.20574129022583,68.06462591062086 361.6353704790736,66.55295937018127 356.0539306282059,66.50905205229242 353.7167205995993,63.55055368392823 349.04544739141863,59.1135807353711 346.770859084489,58.83777314674796 344.7426283704591,55.3657005977916 335.0250385490713,45.37282176878159 326.04643661375786,39.26890964884592 323.6133969520817,36.34166322139765 322.89426534803295,33.176743173369005 323.3699090085601,26.359832368207208 324.8293265819533,22.960988081845016 329.45095298502207,16.150272440722347 332.57009587356293,9.84309011975563 339.4212656313929,7.204158035959608 340.31062569629773,5.810241954135222 337.2905248583371,2.8374403575088536 334.1308649767574,1.5905566592964533 331.01285317506836,1.2695012930640814 325.62088357629125,0.0 327.7688916694155,4.122050541766271 325.7795149377616,7.9116327783018505 322.147347923305,9.381110730882256 319.5916705922257,11.146029395398159 317.63705204152785,15.089077392374861 315.2762705329875,18.33086308571444 312.122885370766,19.500677790209693 309.57769902185123,19.205197112167298 305.6457767681051,15.95495837618705 298.1816087510927,7.67538643461296 296.18572904687994,7.233587237711504 289.40343400293176,11.46126045223275 285.87492464536666,12.601453840463023 281.45732413404295,12.853495660798671 277.33830141741305,12.539850839848441 273.81342900085286,13.108977404811299 271.73906306622456,16.604773553584664 266.7072756006891,22.437296009592615 257.8746804147556,27.965298778429997 244.60168497016866,33.47804929199515 240.18652385173846,34.615303005636065 236.36065983160088,36.053886814239604 234.29950325866469,37.81363262322179 233.39815624773317,39.576358244619996 233.98853500380855,42.8041197475809 235.43735846888026,45.740351811862524 235.40948553407856,50.13622134027355 231.5737139621684,55.113438126617666 227.14457376924975,59.49373524405928 221.2212963969055,66.20132330623551 217.75503229389307,69.33980348630917 207.84703384850258,70.90749128598009 200.13967046259876,71.77430007048974 193.575082276856,73.49806933401192 183.30166129104595,77.79052244106606 181.30701533384783,80.64149002251543 180.4505482897262,85.20831861198496 182.89228350364337,91.28967286640477 181.3747556957082,92.47378544738979 176.36427217832463,94.21719596557182 173.40336074041585,98.02478629508585 169.2616501985138,100.07670786551785 164.84105892972133,103.87381370528533 160.984454903763,107.97420897135794 156.84122604292278,114.11677153807409 149.44700806593056,119.6715364621275 147.95950305273055,121.72439513201823 147.64650232418361,124.35915447371701 148.2199898844789,127.00721211469181 148.71240944075808,140.48237700962352 147.7847741885106,148.97887819394214 146.27364375436449,154.265827882557 143.5744565303433,161.87869733147102 142.3899271138241,163.91843768772458 138.83551145220736,167.13907443981668 134.70406178854643,169.496242923075 129.96979435630996,172.9916870231168 124.93752303949697,179.14158772611358 120.49884867653593,182.95151217395426 114.60673880089539,185.00432047190782 108.7496685903095,182.6596817936712 99.64760969613168,180.6031953694718 88.75172362546644,183.82551202340085 84.04382416426947,187.04419306211378 79.89711860876422,189.38024451296997 74.61085623397832,190.56128033821597 62.581877857205086,189.6886157625371 51.962797500946905,194.65145983126502 46.65304508782259,199.33343240700685 41.86366148228934,213.9623973946667 38.23204975279396,229.46313153540643 36.4472345060171,234.73247530199842 34.9637141840663,237.66278486261479 28.759637323236472,242.3196249009444 22.561586899773303,247.28236222539363 16.559141755818413,252.73431148458826 16.250504168887055,254.05333896681157 16.654650699315013,258.87976576297353 17.561902193199856,261.2227625984509 21.613475245250946,265.7779971469504 23.044140698566085,268.38198572911347 22.910100989131983,271.37519370164216 20.95895108215302,274.2470448371805 17.043450520134193,276.85695219563775 16.128024341937053,279.08012071278915 16.38736925854572,281.02755812589055 17.694252346186957,282.59090303265407 24.758911477990544,282.83930257848965 27.39511059063419,284.0965055771602 27.91949762609142,285.31903122291567 26.69494854988436,288.982834605917 26.869474192244432,294.72004420253404 28.350880226117315,296.8959596792597 31.492900739699575,303.766498435862 33.23996950329447,306.7266891096731 36.462862483811826,313.25044347143444 35.8570707300335,314.29617674170197 30.376910989324866,316.02948494561883 25.67039549816914,319.2480621729235 21.53567114636835,320.9810746810946 13.907480328674808,320.98249914156213 9.498895447721317,321.5432873875352 4.754424711853851,330.0215081719292 0.8952425795878977,336.17673295127986 0.0,340.83961472699764 3.4816649164595534,347.87443042018606 6.980054677963195,352.5691175729488 11.331947151087443,363.41783416977967 13.665274460906003,366.9372749405504 15.70236084878987,371.3463875037926 15.171858507242318,377.70373668021534 14.585914804578806,388.7305980483453 13.270732978159627,390.38413550172254 14.007414082529083,392.3929272746933 19.626476706149123,396.4406657261659 21.897372298610968,396.3128217707093 24.048734017408997,394.9596394313004 27.00693843069707,395.16393598941875 28.13305010745697,396.9130834234694 30.04055275524351,397.1245612870757 31.033461001635636,395.05467506499815 30.707374023526313,391.8277461670648 32.502352100509036,390.4169228552913 34.90232933074931,393.7095170706323 34.72230573340786,399.00298499689677 35.75411286104245,402.35733247632777 38.134348479714575,406.22386479158445 40.16096707078565,407.7728617826989 45.01530475975302,409.332933163451 46.29070373110631,410.26403198318474 49.592733723410774,414.1347747245553 51.018988026768,415.1047894889814 58.020294820941174,417.44642914904114 61.16357094118172,416.50585503785953 63.21927204976884,418.54517972580516 63.253223699260616,424.1541021955742 64.43033179395421,425.4842380752135 67.165112732542,424.65722364116766 68.9513861929985,426.1784043564436 68.56315066816931,428.5718959512611 69.8271417248492,432.0275147720067 71.77165542765276,434.02600653448405 73.65318759627301,438.2433638995783 72.52856605346919,442.14515254300363 72.22527810127832,445.00880890598614 72.93548352495016,447.139124910601 75.04004972688752,448.6672272201913 78.41553578077779,448.46011811378696 80.43723713318857,449.8041414383832 81.39079843738256,452.10653688104173 83.25808766202587,454.2808575248275 87.0124090530396,457.6370099485779 88.67479062287978,461.24196758383096 89.96055562790676,461.5804214565437 91.3124747743906,458.9861119428093 94.155200221601,459.22102512196284 99.83370217776104,460.4769253935525 103.32369276328541,465.16391084025304 106.22639656663948,470.15049027958673 109.99915813989672,478.06451854509 113.48802314288794,485.9913232874587 113.4580544938196,489.21151864438093 111.37715714806563,495.66664697049816 111.66236680500681,498.3014686440057 113.69257249243117,504.75737338405133 112.79165092946991,510.3362032273351 110.71000532798709,520.5943439379341 110.69281251723106,525.0005745801898 111.85438279579823,527.9366992947749 114.19903189186533,530.5688089611248 117.14584058057272,534.6872450766473 117.12653892500238,538.787341914521 113.31859605810253,538.7843669820625 108.06048504957171,544.5687010102323 106.44119541733876,545.6850517685486 101.39345320433969,545.9569750050518 98.48183316617151,547.0825914186671 94.03278972322983,552.114538198048 86.16548476066428,566.6398711545803 85.56824863902256,568.7702472351787 85.94153896725406,573.1336457379958 87.6999058150958,577.2425351095858 87.98766227883091,581.6480781075796 83.57448100819876,586.3333238522048 82.98712794238189,588.6789939518598 85.02435868175348,593.9720458918657 87.65324250139236,596.325534209074 91.75861071078599,597.7899727510896 99.06977976813778,601.9004394387969 102.55936273301877,607.7659273102664 103.72068581101892,612.7697471182677 103.7059462482464,615.4082610675507 105.73885611273909,617.4596786136774 108.96406609759052,618.6532229263382 118.92865675110293,619.5330224542363 124.49665331539828,621.5784145152672 130.0607702467623,624.2282867562956 136.77383472607582,628.9141044871141 139.10084126624452,633.3368315944386 138.50085865456214,637.1458303465444 138.77123448904896,640.3760896041913 141.11463865686943,642.4264024241668 144.3404154455374,643.6086129886681 147.2553176875005,646.5438302235627 148.41246058872062,652.1305259781476 151.62406042837466,655.3496252762559 157.44290726274338,664.7490878958013 159.78576183733048,667.9761057158166 161.23139553697706,673.2744229471432 163.86118097059972,676.7946241634979 162.60212207310443,682.0947848596338 161.13671126783004,693.5148529510328 161.71602312475753,696.7427672247928 166.0930274092025,703.8020876018735 169.89614275515532,707.0272407498641 174.29376239390254,709.6647597028306 179.290054503233,711.1515024062695 182.81054237730524,711.4416735487735 186.03969549229063,712.3278427172968 188.0852917086918,718.1967915800527 189.22672102228955,724.6664681166906 190.67875889997046,730.8368444086814 192.10809196047592,741.3981022516703 190.31115561731656,752.2624666433923 191.1720621590813,756.6666018513054 191.1489851498906,761.9482443814924 189.6388853753366,768.6965975409032 188.1626813951892,773.9893103788938 189.30029532662323,783.0712644456946 188.99179976544772,785.130505506003 186.32081779877726,788.6630914749312 176.60597845775982,796.2919861375383 173.65619225198392,800.1018642490335 171.5733476082644,803.9267048998876 170.6840358145246,806.5748773134725 170.07890042565566,812.1485324189832 169.18722549923723,814.4905647130915 164.17900983959652,818.9003303921722 158.8798350246307,822.1336968609455 155.34446194764755,823.890758887821 152.40198103864168,825.9494976366469 148.87298851338292,831.249362388204 147.0813309753266,836.8132257262497 147.65102873554014,840.6381255422439 149.08985911998877,844.1612142012655 147.6047137000844,849.4351184223583 145.24359570719156,852.3817036693472 142.59165310777016,854.1412084384797 139.36915605152316,854.4418433151454 136.4447309850199,853.8587296714737 128.23106994072123,855.9372187189508 123.23071635972839,859.1781316973573 119.10789157924255,862.7002322376447 117.04383864193782,867.4165340401313 113.79716091591266,871.822900036585 110.27112437332485,875.0543422534892 107.03903489633763,876.8190513961548 103.81262225297955,877.4160224464034 99.42091040343652,875.972128472804 95.61839535441639,876.2654013989978 92.3763589924195,878.0391640152956 91.49541283453406,880.6776100764657 92.34204693246922,888.8865964349548 93.1897659751839,893.8680289332506 92.58050325884295,900.0182208420795 91.08286283428447,905.6008934888181 89.31031410648727,910.0194003756457 86.6575183276441,913.2334045687726 84.3203490126511,914.4175516124533 81.6680823470512,914.7239352917052 76.68130985575928,916.2020103927687 72.30050037657091,916.2034875449405 69.66980535351928,914.1512225933213 65.29869051604186,906.8282620606252 62.40076435936533,903.027093826589 57.70056813084916,901.8720803377701 53.01200859021286,901.57682793695 47.91665760695822,903.2395346701476 44.19023943026559,908.3355979958386 43.0078745082749,911.5604346412105 42.110343945399066,916.841650616724 39.45471653585006,921.8287384933186 34.44925519105729,928.2963081048919 32.08951670258387,929.756872146928 26.798940018819625,930.6326751021866 22.69652511241496,931.7972296063454 21.81468452832662,933.8522703296616 22.380056668716907,935.9067867562109 25.014181408881065,940.5917841023511 25.58957901863145,944.1230507093667 25.573742259884668,947.6260040105516" /><circle cx="224.51330737559215" cy="434.80173332754305" fill="rgb(100%,100%,100%)" r="16" stroke="grey" stroke-width="8" /></svg>