<?xml version="1.0" encoding="utf-8" ?>
<svg baseProfile="full" height="1024" version="1.1" width="1024" xmlns="http://www.w3.org/2000/svg" xmlns:ev="http://www.w3.org/2001/xml-events" xmlns:xlink="http://www.w3.org/1999/xlink"><defs /><polygon fill="black" points="454.4665537669666,31.568128250835343 454.08041306298253,36.9965415794336 451.7553907284486,39.31106617093508 449.6724971959643,43.757334582217254 445.3098160575678,41.09633269794449 438.90123272705677,45.039965465504906 437.1563862434377,44.55934418820516 435.83105846518185,42.860362706034266 433.60575832181246,36.4364549666858 432.44608242203503,35.18663895049917 426.41006879189763,31.286965565004493 424.31460598201846,26.333790347046943 425.24614559287886,20.678833159624673 429.8674577987153,19.556555285436843 431.8613731778568,17.348306538795896 432.04120733515146,14.639322506416534 431.36457742656165,7.143754113866976 428.03888700709285,2.1979660523063558 423.15102338387396,0.0 421.44987375902286,4.015675203833666 417.21031221673724,6.14499370520366 415.7998464946697,6.0407649299933155 414.5897816543106,3.606002305732204 412.37177787391676,1.044147632571935 410.80668553687985,2.0764719699872103 410.86053281563545,3.801847776712634 407.89408570116314,3.1968148657750817 406.05974522206657,3.5741590001147188 401.84576169737466,7.276889048681028 398.4253464373366,9.259461794898698 390.69429853594954,10.284611399524692 387.15312212178696,12.011878324798658 384.4429562266174,10.085150515341184 382.4046965097935,5.929235283293224 382.41371651269435,1.6985281618826775 381.267337143133,1.3572040967992507 380.05751116244375,3.1119517115604367 378.8114854363113,1.688364098476427 377.216910621129,2.075988190267708 375.5577140287179,4.629594456913537 372.99764630454507,4.939097514902073 370.9001032211688,4.113688306319432 368.10531959236755,5.048557273517645 364.34485627571127,2.9142942582454907 363.18559035020814,4.842573478302597 359.9399048632033,6.045854974371991 356.11545342546634,12.451498438655335 357.9803975347909,14.557285929087016 358.2090031413002,17.425887740029452 356.07514321701206,20.657211902694826 354.6286049116589,21.400197899198815 355.2181678650276,24.64705827673845 352.22486939212075,26.839515320810506 348.14312985161905,26.923467964195083 344.1642460557191,30.08296139288359 345.808955734626,32.72040158033087 346.07932352149004,35.26308526826995 344.81417736553755,36.65978982944671 344.14841363234996,35.161160103501516 342.5389550347198,35.92540242534051 340.0405712649468,35.19391329032112 337.22157066962785,38.1627330362079 333.36788124875073,40.85065694005198 330.9288231571892,41.6090685601406 328.734100977509,39.864591366127456 327.0587574025876,41.2940795288888 327.82804687528244,42.99512806080179 326.5020651382947,45.730612571327015 322.31876024323094,47.48050485478052 322.4086502927348,53.26406451046728 326.31177133527416,57.985219972619575 328.17007957715566,58.84484160668512 329.4019554670054,55.9853791376579 331.27164578166,55.884878603148536 332.0416432443334,57.69844909817334 330.9751484115749,62.68171481245065 330.04097205554837,63.69795786646557 324.81363128233465,65.18923750269607 324.6317982352016,67.83668571936516 327.05863970766694,77.60462882728814 328.28902638762617,77.79238015594501 332.32257889258057,76.40127465882506 335.4960727071297,77.19059544992672 336.0199975093454,79.22204794779532 335.0665878770901,84.75719688151003 332.99365553890055,89.99147834659311 334.01898660913724,92.95977759905054 333.2576161834019,96.10147340939363 328.07459546583164,104.29740718064431 327.2448043282128,107.36952739378933 324.58937632729686,112.39197624010899 317.66875111316193,112.36766456316468 314.3373230044534,107.7967500199328 312.9895167065735,107.97614030539773 309.6024705791998,110.529721538702 308.58056514848033,116.13837939246002 306.7429691258195,117.57873967485284 303.5337635567332,118.13789761687144 297.03819914869257,117.78316516977043 294.64022967754926,118.2560769280235 293.50116279333207,121.16423329345821 287.79294842210794,121.07107841712912 285.9114033017053,120.46864141276023 283.52833618387683,122.38220732861964 283.92882514648664,123.97448979693888 280.69490980666296,126.21979222210871 277.0269531690576,124.15314907904906 275.038461137415,124.76694023748814 273.82751058305564,128.44266124696242 272.1321383497597,129.44370608690065 268.18172428838216,128.7987358941299 260.75375073690753,130.0110694427326 259.15040238020015,132.22902448209277 258.3468025650649,135.66727489012646 254.77130949553006,140.01970331744587 250.9354607844141,140.29457768077827 249.85980857690214,138.81812388645744 245.89536333567318,138.7149826021822 244.07765451700877,142.80272396918576 244.41950147738788,144.49938825067716 246.7076078566913,149.18071855295102 248.24256728743086,150.15530136891755 252.19408773626134,149.42974798918306 254.4680016064602,147.88376807350858 256.00990064441464,148.4285482232308 256.888612330117,153.35210454523622 258.2551965929922,156.5458749766309 260.9826517615244,160.2648209121836 265.3893087130395,162.9726226475292 265.2565936812443,165.68281046955155 261.7810905797225,167.7976674503018 263.44940313438525,173.33108219710573 263.2046438782968,177.17747219551768 264.46819461673886,180.5354105237668 264.83367259823194,185.07443458438672 265.5402163050907,186.30882549744524 269.10969180420335,188.97984240917833 269.5323888976558,191.38028546130067 268.7699335439301,192.82671769612887 262.24047530218036,196.44901453247132 254.57260285307154,197.94017355236133 250.8062048984998,196.6390992193801 237.49232451157465,185.32270273827555 222.71687509824724,167.87722101636257 213.74270927077188,162.335765027903 198.15728016767042,155.69269033803198 188.91594448666123,151.1436867867145 180.19924049595264,145.39650512592868 178.33462949222104,143.1866248672759 171.42118523008304,137.30971743791451 160.57635429369932,133.16557031383297 157.72827718709465,130.60179845598304 157.99111535355934,132.02272637524834 154.7528876712713,136.04425127769332 154.72653335929138,139.62348681147682 156.5063216774166,147.938429478864 154.9312055432343,155.13264724844748 153.1290109977606,159.1289881816333 148.59647983684056,164.08712231033212 147.51485333173213,166.9241348836357 145.20217739117868,169.5210007770496 143.83603030302996,169.78275841887137 141.73467006370356,168.25901783366407 139.69279492963958,168.25769072892717 134.33294745456953,171.89074737513613 130.61815630131755,172.7746954347533 127.03320033012537,171.56409399163692 123.37465475027986,171.48765723367706 120.20100085948711,170.8054674671862 115.8263206143223,169.10691957468896 114.61669464425664,167.84339912942494 114.70395777758884,164.20255129075167 114.0572962549112,162.9468824737421 108.9687192642165,161.8854942919803 106.44615571074598,159.50372487352763 104.5085235051527,151.89322475188328 102.97244247002384,148.28130052731296 100.05304901119068,142.92561832827823 99.68906211113242,139.56287623261278 101.10615277981776,137.07261054854837 102.7090190002525,136.45210491911098 102.79522186290478,132.5060404009988 101.25585281235698,129.87457181473656 96.14026771004714,128.6066304509534 93.70385557267791,130.15128264654027 91.9270851458783,130.30180263859938 87.9116969470876,126.12526055141393 86.88302461467042,123.23752543530497 85.18541607628049,123.91795845343927 85.87361523932849,125.08148115023516 85.55936786170221,129.8060053008528 84.0563499838436,130.11903001674955 81.07729933741719,128.46345254695666 77.06811090363055,123.87912193833768 73.70972107466233,121.64349563331768 67.57840650755911,120.17590506363013 61.135577414855575,124.25956534990496 57.90242718880904,130.0799409160843 56.86284945842252,132.78323642151577 56.07767060359812,137.66299314534024 54.444204914610644,141.70711852230386 52.88036002924879,143.88042280105776 54.11931410051743,150.12322576636382 50.153625283561105,154.39120312853436 47.141087389773254,153.4632942352556 46.465970418692734,155.66380785483898 48.355838664387434,158.16137189695598 46.26348105850206,160.6947269777345 42.409081073124796,160.62765383633212 38.29574147039543,157.54510653842613 36.580346383354254,158.0426946309998 33.1164536169957,164.27269530798105 30.878981298185693,166.81664564752202 30.909365418772392,168.0749163838717 33.45234818348636,171.70579061569435 33.65267883776226,174.80325280485113 32.850153829724384,177.3008806826399 35.17087696216174,178.78581269896904 33.50431484783679,181.08209196777227 31.906387542831716,178.7674337830365 30.035377503065554,181.2895265468851 28.752649742287304,187.76869806502452 29.71127854175667,190.6484724217571 31.955331013969925,191.7756572334306 33.172156800464315,195.0636721409502 31.83143690874498,202.1756772411203 29.937454508422196,205.0780886775981 35.07814329907356,210.5611730221924 39.64894850027139,210.19600474454649 42.588292596867774,207.5350409672094 45.266663662295954,208.08748429763693 45.78652428778247,210.21348651423318 49.842213820575246,213.27563425954577 50.51547219277292,208.2002875592874 52.35762673061494,207.19054933229165 54.68945487887858,209.0639642817057 56.246288688620936,213.8646601227956 60.078965002288356,214.64769823236213 64.06910396558646,214.00796082914155 66.97219683111284,208.7396019769551 70.95458317325333,206.5668305422506 72.9229909941083,206.96822793701824 73.58101596331083,211.48590243843955 75.9774885553244,216.24216481029237 78.28124092317441,219.68070377249308 81.40143315019652,221.53868174148351 80.07158625676058,224.56211359617703 74.1854832341771,225.6496949207908 71.88421217282968,227.38786118498922 70.10593802110014,229.68490957870404 67.41146775222595,231.27111553616453 63.50145956948213,230.4987605559195 62.57227392860212,231.07533279262816 61.69453831190481,233.99453873184086 61.75754074166774,239.2818793325863 60.96475811349508,244.2468924564672 53.97806406445935,252.54054232476892 51.90892012433691,257.0500670755292 53.556514935826094,260.64490225903796 53.599996898809366,263.29448771728914 51.98212012956227,267.00426345044525 52.29405958448046,268.01589733222295 55.837107116923775,268.9740817323626 59.2828615403238,268.9811219889134 63.10649400963966,273.70297220609405 68.012388969202,281.7045282615172 70.37455525659682,284.47793280347855 71.97525928473912,284.86034819654026 80.58249782200859,283.6596534555324 90.40015200709587,283.8040812294065 94.69024276580124,283.0499440536928 96.9825125378343,283.40884544935795 99.94222145570167,287.7873502267978 100.53779836491809,291.2224187544516 102.24904559372678,295.29740877309894 105.93194259761833,298.8236747006232 109.43466553452117,300.03676995612796 114.98998262152901,301.28210056237833 122.50688733972275,304.945335194771 123.46053826391959,306.1689721448844 122.71471025113178,309.78359267896394 121.93027454710166,318.1897650780803 122.05415848787119,321.40168828880167 121.48051458776503,327.175954408822 119.84537810019873,330.90856424633944 116.70361627351109,334.5042787499591 112.12317644575182,337.6148906551397 106.11795612965999,339.5939951691605 99.46203090251028,341.32151800319014 93.01734551625296,346.7207470778619 92.50211763488723,348.5456140217426 94.4784479699536,354.933418478578 96.37400636741535,364.4350636559162 98.57407287587665,370.7843916084746 101.30601611720837,373.81335683552436 108.93483106366038,375.0503421230245 113.03102852450058,378.72991669741475 115.2426445113903,381.5357819114107 116.32258661649064,383.9678480220682 114.57238610117672,387.07679435721957 108.22641267518132,389.97982249427776 105.0791385736956,390.3611907369966 102.20971281022838,389.6057565976656 96.14260253597826,387.24525061149916 93.06230277482227,387.37037291365004 91.05312584673803,389.692382738461 90.09302031993106,393.6265519287708 92.70922811298429,403.4356085221722 95.73048662064284,412.085203645099 95.28565715779057,416.3872917059364 89.7941676608511,419.0303915990453 84.69827795704617,420.1269097807524 79.20341989962331,421.99217551378035 74.09100711811016,425.43297186803295 70.5637279008227,427.3413044615294 71.63436576379642,434.00229383898954 76.56590736827847,445.41197742501447 77.2994108117606,448.94201231805346 74.53213499878943,452.4143608672299 69.42169035879891,454.67677474104073 56.462994277996785,461.13853733825874 50.15331327757433,465.34202297305967 48.570484478945716,468.05235652400506 51.221816491158584,473.95202311930996 56.65502395654646,477.55609015828975 62.449755352040164,481.93781409316455 67.87435795390493,485.54329360426675 74.80226835208525,492.6755997880696 77.09338387479791,498.17733983727715 76.62235332711585,504.42835745973036 75.7415825598904,511.4499909149838 74.499267278688,517.6835939918362 72.45856972249473,525.4668506630294 68.81936809774963,534.4055915768754 66.7918173779669,541.41119875625 61.562530251615826,553.0517239817273 58.76464520744104,558.0925599878847 53.98974294673285,565.8383930071147 47.311925194870554,568.8665961390557 43.06824229547349,572.1104189877667 42.93579067945888,582.6670113170456 43.16924545116675,594.3901803714564 46.941228961128154,606.5722103827629 49.916313213051325,618.3275285932332 50.601256533910174,626.935488854793 50.406907309394484,641.401988519001 49.002037831165524,645.9581603113925 50.30500017921671,650.3727065886872 50.27771387789181,652.3404508862404 49.0730322717269,655.4516672336667 48.24048806520604,659.7396536555551 45.439060374535686,664.3846468344411 30.60986943354259,690.9675047215023 23.999725424016358,708.8250154592022 22.098512298288156,723.2515672565066 20.358473893179735,746.6732943867366 11.058917382262958,759.3549738013475 5.690809761834284,770.9462922902263 5.831649186871297,772.2279771662011 2.4615586244897276,776.5690543323212 0.0,783.9639819516317 0.8121888779268582,790.5476525352384 4.925933715923245,794.6779843755996 20.703077009142987,798.8172254736107 21.411324501279818,800.3542884057213 27.69668139049253,795.6730874887364 33.071224993190675,788.0197591286225 37.93091289502898,785.3332638772649 42.49828287614608,784.2709370515566 46.541778057125065,785.6299337076939 48.78471919366091,789.3247759757776 49.6613399310781,794.0716862942423 52.80289414877262,797.0963908354702 59.10081838982179,798.2640555159744 60.094045187391664,802.1477185686903 64.38840551958918,804.0185818766516 67.68974022886862,804.0279058888932 69.1173251361939,802.7486685913782 73.77086148147674,793.107167415741 76.65955925422257,788.7547411415184 83.00974096096867,783.3023950492545 94.93656885157068,774.586029462802 101.42308650977452,769.4001674775735 109.86888880464285,763.2306956862857 115.65492714670349,754.7223472018736 117.09654932979332,750.808349646979 117.93858999723844,745.4407234152635 118.92667305630683,731.5693455589401 119.69595151705754,728.744250504883 126.7653322791764,721.9761059307722 130.8335184314015,719.3330693798848 135.299462091957,715.2218848015465 142.78460415613878,713.8580912675759 145.52097379645528,714.1429489424912 148.84704959659044,716.3740970803885 149.29043388326127,725.7466305474561 151.35662051608122,729.5535757306525 155.66177823561523,731.9747132758632 161.9026055898817,733.9166179507349 169.81489649687447,737.9122996752594 173.52184440373034,738.4908087978865 179.37400052628746,738.0757583872772 184.92999889254136,740.1222849747751 190.35316156839434,744.8769078198618 192.7467754452709,750.8575813107291 197.40240953012685,754.5276813645223 198.9044354579399,758.8294750097648 196.3079193525377,768.3830046653809 194.72725926744212,771.3639044540339 194.12550718710196,774.8552341369633 195.20993573253523,779.5391960206383 197.20120939931627,785.4909615422307 198.77629515609112,788.5102036712134 202.0209137367737,793.0000112053557 205.06515060290792,794.7404204582302 208.0941414578308,795.1457836529103 214.2667790334103,783.9129168757229 222.4926905124548,777.338591708208 230.71530423070968,780.6448106476864 234.01144011266786,783.111609647383 231.53721931260094,791.3419216461624 230.8389390882905,795.7358231083864 233.17743857685852,797.0801619811655 233.78778087517946,800.8829570430242 233.1558662939066,808.6952131376727 233.08679714879048,813.8772528925077 235.4703836801976,821.0902004891171 237.1398449077332,824.0166001582094 237.06490716810794,826.0698639347986 235.9026916895522,828.7950354295706 231.8507981912828,835.3721437848061 231.5692585236823,837.3121501619037 233.37551695196018,845.6992534106108 235.82256842286745,847.7506497909612 243.26632372401286,850.9373380215566 246.3136729705784,853.3539866277385 247.5958713077552,855.9854930596475 249.501886732968,866.6311728622048 251.09129947426337,868.8604676729586 256.8162320748575,873.1854708831513 259.9088389066824,879.1431038675648 259.8995055799217,887.7042826752727 258.08201645710704,900.1567795043766 258.5356297348783,907.0532306112141 260.222262723918,909.5496664057022 265.1752447744952,911.9174084231547 265.8813690242451,914.0588789088843 268.0221881948942,916.4404609891336 269.9392723665136,917.3959955340138 277.340666430793,918.1092426982818 284.3529149858369,916.7695596048814 288.21920009227966,919.2956420824034 290.2920784624592,921.9552449719791 294.1364948507177,923.7225641711772 302.7302549092945,926.0809267240099 306.0868410232631,928.1267364960813 311.6871850503063,930.6246127040702 315.2109819143516,931.5713266577962 326.189441191296,935.4046866855903 330.50709684454097,937.1278466917407 333.8612615957427,940.0461752599883 340.0456235202103,944.202552778229 345.6419797508532,947.4701403210452 350.84422729597816,949.2903809444027 354.373940633089,951.221866439924 357.5424252243147,954.7171029400909 360.40754025713176,960.647087067581 365.0932366796327,973.2117368072956 365.98760150010577,976.5351391551558 369.34512346098666,979.83306268678 376.8024024455394,984.0750270792101 380.1262490478865,984.5288807707351 383.2576721545287,982.5506026578377 385.6856228515531,979.2087308099681 387.52371243494673,977.7406017251651 390.0786120784889,977.3255798839278 395.485818002232,980.3148394102453 397.82175328477433,980.311872156884 402.22847034378407,977.925354875216 405.0232400010809,974.3850501650254 408.04412890860016,969.5833496989325 413.1192831731766,966.9966571871133 415.08509997380895,968.5557483521665 417.15019574751284,972.3445022713867 419.8411445580596,978.9737069388158 424.862074782611,984.7896869120691 426.93352504825566,986.7385104829906 430.1015099844534,994.2292803084166 431.5945701035021,997.0544291444545 436.1213874468663,1001.7118365846075 440.04428240693187,1003.1483674675874 448.29304286309593,1010.032581069731 453.72675358306736,1018.6809333499746 457.659596474595,1021.6993693101552 461.29308269651574,1023.3213439423895 464.4145398893991,1024.0 468.32760770535884,1023.6899953149706 470.4765474740858,1022.5056285884368 475.22470078055517,1015.6445709815564 477.93730542093846,1012.6799821197264 485.5222822495714,1007.6718581391186 489.131346747723,1003.8388233253899 491.4318148914029,996.789425042306 492.474147471262,990.5269803163604 493.9942368818785,985.0527448643235 496.9925694385407,978.409875931923 501.0612535327441,972.8072392926334 507.45981466930533,966.5334949788954 513.3075906508776,962.8922596705753 517.1014471761324,962.8786279340172 521.3019912678094,961.9790980887389 524.3972297139385,958.6430501475294 526.3161194572513,952.673192864438 528.3370250375485,947.9883202529948 531.8052993738124,941.4151455043985 533.2119438327435,939.7828863124261 537.0594757515403,933.5567254761245 538.8735357333245,931.4290253110532 539.827190834995,928.8976079611823 539.1214258778958,924.4858677076456 534.7018259855131,920.6128826652065 533.0352751449033,917.5952411562757 531.2463936748547,911.5483585139023 531.2188636609939,907.2362706345782 532.5530282948989,901.1813669344774 535.3593438709954,897.1699943480995 537.5718592903289,891.7863481483091 539.9588731611833,882.6962946792063 536.6884584782945,874.3093071095559 535.4595789689992,866.0131944383398 537.7417003369748,860.6802283007385 539.3337981721118,858.7824038267047 542.34607982682,857.7058075384668 546.0053226812714,857.1177597710752 553.3859552552682,853.6305761429336 556.294641795872,851.0965269051901 557.2634078422034,845.6507965186702 558.2304513978695,842.7303853160862 560.3833676962143,840.0170488349688 563.8723960411313,837.0988172385023 570.8581048735966,833.6151988242868 574.7535871033331,827.3911899835069 575.3403949332848,824.0622540824468 578.0980701241976,819.6616942218269 580.043016978533,818.0987635303347 587.712122846538,814.3626713053175 595.891477588323,811.3219230360339 605.3211279332132,809.3295066160902 612.131333017507,805.6902921837595 618.7316510595341,800.1970398844912 631.3417056749115,790.6905656813436 634.92410820479,786.6840773572472 637.2476521050323,782.8517026552811 641.580287227228,774.6536292559288 645.8601797710742,773.6601873165782 649.5839971145887,775.2027547240152 652.2280835991851,778.0164119675521 653.3195650846951,780.7574538299325 654.4204945388959,786.1158728156478 657.739142843882,788.3500411431525 660.8568123331683,786.5835212537631 665.0137589336576,781.4861423983607 668.7107754285444,779.2327859562415 672.713736660191,779.1120514703298 676.2235740031533,778.2240312538311 679.8222466337803,776.6395863946695 686.5366661616371,771.8404069216697 690.1359484276621,770.3682920088131 694.6173013732678,769.8428806513333 701.3516504071114,771.5687790374996 707.6255353746557,772.2303721152585 709.9607130819779,771.4338974750194 713.9339952413114,767.3206121796225 718.2238935911546,766.3134681504675 721.3526104365827,767.378154048944 724.381605651382,767.6540222174963 726.6227704874182,766.8563279445689 727.763017127647,761.1848308911253 730.1949393355302,757.3606291223791 734.7609072786263,753.2339034405627 736.9563620811765,746.5892551052718 738.7130947594172,744.0318578494091 743.2902846739826,741.6594787241895 751.1843800066898,739.0657018252757 757.1607209901218,738.1471107325333 761.6318107761787,734.22502869842 763.3638659507023,730.8780505945297 766.4645526506863,727.1522118442053 772.6425362715798,725.5443482642038 776.9509115544897,726.1061652467612 785.1862239493025,728.9769198198335 790.3750032539913,731.5624995072692 793.3241468499817,732.5233498436945 795.779855504614,734.0746241007062 797.860983864224,737.0833713672732 798.9444668368405,739.7111468633401 803.2923693380214,744.272528105187 806.7185671008526,744.8303887599443 809.7379491751883,743.9146748717645 813.4491048649368,741.6479909309 821.0810348704084,738.5621690453995 828.420691204129,736.44182758481 837.5882731981052,729.3407749462447 841.5682851440412,723.1441462320674 844.0619075788591,713.4603023541703 847.5426761033247,707.1857115101669 850.6610323288928,703.8368007647989 856.090027463069,695.7726801049939 856.7651457775218,692.4436124904378 856.2954043502598,686.2744215148745 853.5280671494397,685.4768071261919 852.1507678087205,683.6310220893047 847.3170749132349,680.5531820246945 844.214350806181,671.9838988861131 839.5458482838754,662.8952069194345 835.6258740319888,652.9306839554135 829.1112072489088,639.9703690741046 822.6052861180995,627.8027167910193 816.8820421205077,614.0700058171045 810.8081432094702,597.9934877234348 805.8660404133276,586.2135895660654 793.9795863067559,563.8202354066443 792.116605434181,556.7631856930896 788.5109929653353,531.7156818013931 789.8165274842124,521.1720499954824 789.8990385621073,515.3104204753706 791.1473373769833,508.67225910128616 793.9924206050944,501.28313039350996 799.1810912059884,494.68542964928565 802.7940428450908,489.247711506993 806.0178760339195,482.2458603560607 809.686400327684,470.9379900299883 811.7557984149921,463.13519787975395 814.6227811355056,453.39220662525554 815.1494891038813,444.40628502738423 814.4667091617013,435.0190628096565 813.0162258205539,426.0182511917528 810.3912695179482,416.6073069497511 806.9836017966425,406.8035284039944 802.7383807627359,401.28831337768077 796.1464033952888,395.7591844589823 788.7791378151477,388.25098856366094 781.7770399940059,383.49367724492447 766.5469385154905,378.2578004496727 756.7894277736506,374.63615404292295 744.2500388664382,374.1081450304114 722.3355804698227,373.85457566592856 717.2987141513337,368.7117640084341 711.9692197324626,357.3161120959742 701.1886396671858,342.32854269191694 692.3328138190434,331.655878438896 687.7496164039467,322.60051463976095 683.9692104048326,313.17083892026096 677.4809640324357,299.79098267093264 671.6566325724114,296.20109687616866 665.443899946048,293.3811998560424 664.9307454163597,290.91739768799744 654.7125497559898,285.28163291822966 644.5325013481336,281.3110738630053 637.5553298713653,279.1709632636015 634.9430085578894,277.2863452896146 633.3939000697205,274.75985331464403 634.074962261764,271.9720888959397 636.7496904447743,265.5994558374896 636.9505540016398,262.61043719251495 635.2821029505126,260.06434121212976 632.8046852463045,259.0688876552897 630.3670503703657,255.35154239638155 629.797957033203,253.44225164187924 630.7194906093274,252.0033623741291 635.0354586336537,249.29230054326615 635.1433617197994,246.39601967774547 632.3833901922294,242.98792154963598 630.3918044237879,242.98147565727106 627.3405896262425,245.60171121820406 623.9065216315105,252.21485464344687 621.3196719528213,256.4994631515689 620.4806663606411,256.36207735303617 618.5931871020895,251.81199380158353 618.2698502568122,249.6144768082961 615.2524831351919,238.67754752272492 616.0465184845538,237.1373028843126 619.1433807156982,234.9995221186839 622.6065102694855,235.15950962085992 628.2180236786804,234.23004878078575 633.3220189878575,234.1327463193768 633.5517236541606,231.59370782017368 632.4973783001224,225.0938870196219 631.0544660568992,221.7191182718966 626.9633789621544,218.7398047493166 626.2300329980305,216.63896041344788 631.0490053040515,211.29492489080837 637.1558567922289,208.15336373568402 642.6385385678241,203.66546037051978 642.5086145529742,198.76546077855585 643.863502928581,196.7623746109614 649.9392253964737,189.3642380821392 651.2874167041922,188.97773088389 655.8448877023242,191.56264386045393 656.0527419380444,195.70324494005774 657.961526568065,198.32928064273915 658.0826990603559,200.90506737268447 655.0576218714004,202.1750521690866 653.162511108798,203.77453587015498 652.8872884752285,207.07960459108222 655.5494178078179,208.86127828333497 657.6955076558899,207.73062084952903 661.2440735905534,207.86878354535986 661.6036276536195,200.78762751724435 662.376575049822,200.1681556786972 667.3452601139853,200.2754798932491 667.795403715631,202.40039547869242 665.1975504152892,203.6674540038797 666.475283151029,207.71845546732936 670.6940156563344,207.2172236416866 674.0942974739194,207.92918392208855 674.9317029603079,205.59027671417346 672.9105140452587,201.66751613096892 673.9462211396971,198.16246873247223 673.5299660692663,193.85798109732673 672.6286875086763,191.14462872915738 670.3041264169854,188.8611088953088 668.722234116748,182.8273983169645 669.1852736498729,181.73948574837004 672.2778033572157,181.50215587733203 673.939666534057,179.63983894863975 671.8037261411903,178.78569138668934 667.8400108406075,178.97817389640431 667.8097556389267,176.05384995325858 671.0919796532728,172.44042342335774 669.8890899392061,166.8336920528684 667.7807747747241,163.73004366165412 667.9465445807432,157.24538363975648 666.7312427640375,153.44119760133754 665.7592086227387,153.6307043514936 664.810566977458,161.8501768309278 663.5527815080753,161.76718835911288 657.285483571421,153.02852381650223 654.762720704549,152.89318499900378 654.3382125876584,155.56498469377425 653.1884528678714,156.22805975704455 651.2246719664362,154.0730296282669 650.1850111410686,150.9308366440912 650.3470083127835,147.20877355056155 652.2476138436937,145.40462107355404 651.3656095858119,141.51609851306398 650.4869742802305,140.62200780226215 647.8050515028708,140.78443524878173 645.3709147851578,143.3170886939223 642.8405367058598,143.150948809037 641.1155380186082,142.07014138186332 639.863441029477,139.15449984332406 640.4200954004324,134.45763974226224 640.0328546221261,130.50245623585477 638.9271462060093,127.57724179230263 636.2186789687302,126.52212957284382 635.4469502482671,130.9033199668985 636.0310398427347,136.24691081529454 635.896665236276,138.79382973903898 634.6262684388433,141.80920956176521 631.1322356671417,140.657256222333 630.0542261819386,135.65478140847335 629.6143971286515,127.84604648504876 629.4550537659783,114.8734755020024 629.8373703097282,109.8214711722485 632.6221367604701,105.91549288226736 632.8214404178832,102.73545416062348 630.7222326029537,102.01360601551721 625.3021110699377,101.47028760814794 623.2897660175219,104.51980386765172 617.1198795665329,106.80201505768673 612.0243783509205,107.39003392667257 605.8854727547536,109.38515665571833 601.6145286263503,111.84807772554564 598.7368409482084,114.63724937015184 593.702862163376,115.65404910253551 590.3366216002418,114.54138485562294 589.1662209623445,111.95397570721445 584.6404990325292,108.72266564959534 584.0933649735548,106.14121527186205 582.4595042724769,105.71236486892928 578.0472638185157,107.83804595443723 575.0678339264513,108.11397665600055 569.6132750674773,105.13412913894274 567.4634401348167,105.59875647164915 566.8286282753513,109.027165850497 565.78646594178,109.08531007172382 560.3880502779818,106.58569515601471 557.1914641304586,106.42282707737536 554.2872974711627,113.03633216491869 552.9724386605897,113.15760100037346 550.9099751397339,111.34153139903458 544.5932774011874,110.96374141645697 542.9487143238314,114.17531068196206 540.1770729309804,111.18716405293333 534.4810135009578,109.03661272448994 531.4204451408398,108.67800584659597 530.5570216137705,107.22223261041029 531.1156309734348,103.80469664806344 532.2021937459601,102.69261927984053 533.6150610849836,103.26659917425002 536.2775435055568,102.74786360180565 536.9625185602272,101.59916199836357 537.5126805153537,96.91295188065192 534.8425403081075,88.39565192777752 533.5419535747241,86.74835020110561 530.6656827819015,85.90765795961283 526.7067141238937,94.42892947632436 523.3589114522587,97.43479889238813 516.5688834287315,96.32415466044972 514.8215561421929,96.97826261581963 512.2292049830952,100.43095489559369 513.7523040167923,103.38489590781887 513.2998321277506,107.40534358717696 511.71014754841804,108.66376649367874 507.28752967282213,109.29398511110014 505.43305600363294,118.4970315752629 505.17493213455333,124.87796030598122 506.664075329849,130.77881825951988 511.58631785772894,137.4029147204924 512.2584756623585,143.63465434721752 508.45063729392837,150.87894511488128 500.7373965424604,163.4546012416697 498.4327754266133,165.35005306792084 497.29554981116735,165.2242319830384 494.4469651455199,162.23588849481337 489.99238881345036,155.10536520549454 485.34367870719905,149.69482035509748 479.9245661903493,147.99100245026534 471.93348041756315,147.88709123831882 470.08229874656837,146.97770184840283 467.94539413476724,141.32612542685058 468.406223774515,138.48238511328873 470.6528687624927,135.7589266914207 471.40673743938373,133.21860132285804 470.2800697682518,129.14495689326463 467.9914460773606,126.75641009512435 467.0869518678905,124.19561752343168 468.60481534158123,120.76217290472198 472.20576114714333,116.0266871270303 472.8165810804868,113.79417469701775 472.79680319364877,105.23745992389286 471.1368803668673,102.00779382222333 470.12950604686023,95.2374368495407 471.54509463487057,93.36827941587717 475.2149056790956,92.78281457732908 479.1784254270613,91.39910232228272 480.3921682100116,90.08191960254533 480.04690349056773,85.51575092467431 478.6376426762653,82.80468259180418 474.77549547547756,78.37291455986383 476.9163881377685,73.8219862115576 473.5758686955017,72.22787162086786 472.95582015341023,70.02343659624387 473.90146384224266,67.08456957158637 476.11418333614785,64.40213652169666 476.4532986782593,62.4185437468974 473.8649499227041,61.198322701348275 473.2853737391054,57.245769256513995 475.033749812709,55.34381120973114 474.58201265228206,52.79217087866709 473.55628981767956,52.53251950865979 470.8417543206213,56.97442614100305 470.5789949303027,60.093222494839324 469.0058408722982,61.3187792318671 467.62553964645906,59.09003214762549 469.42211091778165,52.52742349491473 471.89674839045887,48.07679030761085 466.0582979017084,41.696059610627685 463.3644890176315,41.170378143648804 457.93951490752846,40.906943876670994 457.0081083131633,38.05125658156703 458.0156747572672,36.59393768485927 460.2512144444993,36.182922042066934 459.2375853521582,33.93992877994481 456.4346246389761,30.831384323664224 454.4665537669666,31.568128250835343" /><circle cx="419.79068101543504" cy="153.64830578250007" fill="rgb(100%,100%,100%)" r="16" stroke="grey" stroke-width="8" /></svg>