<?xml version="1.0" encoding="utf-8" ?>
<svg baseProfile="full" height="1024" version="1.1" width="1024" xmlns="http://www.w3.org/2000/svg" xmlns:ev="http://www.w3.org/2001/xml-events" xmlns:xlink="http://www.w3.org/1999/xlink"><defs /><polygon fill="black" points="686.036052041248,37.168325761768415 680.169678990218,54.95986029520134 669.1320991526552,103.70512686311997 656.5156858648651,129.23926828713252 644.4529215956837,140.39791368589783 617.2561078097459,146.9194580559598 606.9322081667875,153.48902771016685 594.1287390656147,170.00453113757226 583.9290722638971,179.8852848000315 571.3791489360013,182.3929952654927 561.2242389870826,172.24871673040366 551.6644550143143,150.71106868161667 531.5769544793138,131.83052100459656 494.00868183131706,126.1760751928008 485.872976105703,126.22942829712167 479.05202210920413,128.0052238934012 476.3753870379526,131.58519861338755 474.58018425635106,138.04441204217085 469.2107165149999,147.35368341523986 458.8011831455021,156.31176865139162 434.0475818662235,193.94450564379633 430.4657731351982,198.24835065704542 426.3004068813428,199.6807770995424 401.0447095032708,198.21526731255642 361.3222926596682,193.43935635867876 319.3623069908238,194.39346757652424 313.7390007781893,193.99426725889214 308.9726468630703,194.33449891595023 288.67004855214003,200.46394883596895 266.25251756983937,212.62700231296571 244.39212054334587,222.97654006056746 230.58548745393904,229.3196902859978 221.68636899492438,231.7177154181395 213.12502734188027,229.3770339723916 199.31749579335593,220.34189470178353 187.04219644544912,210.06148621594184 174.7897040824945,199.55827351844175 158.3194531622576,188.52073531939288 142.7742119677151,188.90061930848685 130.1377526500762,196.24884210432697 109.79368029235916,200.53695952778037 95.815902320414,207.3864444210535 85.9948503360722,217.057730988819 79.81328279599096,221.27293113106612 69.94460083403519,222.5968575463811 58.80072124518768,219.99250021449006 48.94169325489829,214.49529580448893 23.79082886189497,202.99059834590037 19.182439341046408,218.73163846366435 17.45997087188789,222.70499056045662 13.448450299918782,239.38228873593755 8.276481008282587,248.42482822600778 8.708694624246569,253.09439864755268 13.014114769781647,256.5533852151391 19.713335878064775,258.64794826971524 33.801431637369255,260.6398887677939 42.887995162263145,260.4090212220726 48.246349244838306,259.1987991035967 53.840393344393085,254.52792732433556 54.84968596430744,256.7981174859681 55.20494713800791,262.50691631903806 54.564133113257036,267.0316072147051 51.884910739923534,268.664121032127 46.85891737448221,270.6322227804667 34.389185331944184,276.7787624532425 22.325425337032527,284.7608713884388 19.94284682118232,284.46948282306903 15.334636257091365,286.56833389431165 14.326199480089747,290.76921461609334 14.077466135173834,294.5418987110719 9.039264007231466,298.1939574576113 5.369279099213296,304.0814737914037 2.0064448064066673,313.1395699872303 1.7082079376596635,319.81436611123274 0.2013422608723802,323.27707374849444 0.0,326.1023781306973 1.7443832356322482,330.2759045314333 3.4194345234091026,332.57152583736274 4.079581596807289,334.90537222218757 3.7368393457547424,337.31621592667705 5.0228631111857,341.37671299506553 4.6664257540479115,342.63601614476363 5.79554241334019,345.4161208032806 5.757615601274976,348.1234377187619 8.158717699249433,355.489041158172 7.918234633873302,357.9005299698266 8.419362026369724,359.700763569817 10.641774890637532,362.9934504311783 13.224407475238575,364.2353580430265 14.827510288036184,366.72226569497093 17.58659266222056,367.73458639238106 17.944411302301276,369.4327299790332 19.67847515795406,370.48329934569904 19.955491449123507,372.10655516718714 21.559053264067167,372.7531376247648 21.485808245481117,374.6494533370735 20.479535649017233,376.8271495145284 20.857120013530597,378.7277249718534 22.587040063022048,380.4789113519429 23.371812920288285,384.4914733065481 24.868800249610224,385.87374582996256 27.125589495435488,386.91103595281515 28.55522021527298,389.4532229301932 28.893094821485757,392.8456443371754 31.640889526509643,397.4606660544114 34.666699764857505,400.1418640544056 37.618468020505404,401.63390710607985 39.50129670557552,403.6624660331046 40.20859755301757,405.29865739662114 40.11773556320203,410.18206681078277 39.63223134893927,412.44633483950605 41.50176468250607,415.0832258898904 41.99679987687126,418.02577644462434 41.65076997326143,419.222752629178 42.294491603357315,421.20814420956367 46.38424458354787,422.70675512180975 46.46534222383551,424.61439832345707 47.37859307407807,427.7170940710596 49.375894234898496,429.6554202664866 50.92245099108345,433.22151102857794 50.023759110541846,434.51640532002847 49.08107569116734,437.8282768084881 49.02502590082651,440.4283443423072 48.175923117136605,441.87079547093197 50.085661535797655,443.0245973001676 51.77436798078741,445.09047858099404 49.843184552871655,445.8898501086539 49.81704082290449,446.9771613128535 52.37201111648851,449.7205598645211 51.54079859956356,451.67934917927374 55.12597099661252,455.54448231886545 59.721286008438405,458.2907425295721 59.95690993869138,459.952317743945 58.23039558030052,462.61553387818327 58.63316547826975,467.3203021217647 59.53334598470809,469.3903879955778 64.06069208174277,473.33511009632207 77.65691840793286,481.4522344591333 85.91472415058915,487.62193294041094 101.22189847852691,494.5678209885726 109.78528198536713,497.50944045153386 115.570863070998,498.8601824140516 117.60988890199084,498.94401593085956 119.37674980529175,498.2721399567074 121.36959905588553,495.6809287604264 125.36849563071908,491.4520460154004 130.8333178454807,487.41372399447437 134.80275349687474,486.8260772274888 138.1028400802824,486.917645355988 141.3353746659637,488.3907718603858 142.38923669374523,490.60086002988743 142.04000268111045,494.7197495372609 139.72413285069032,502.38981103755975 138.78549934265914,507.66894705281715 138.47554656941136,512.0305059841455 139.87424133440197,516.9810878621793 142.2955738233676,520.7096493556403 143.2298984588896,526.5533300826545 144.28465523388482,530.8207535886377 148.21959110054505,537.2420871889046 151.45059953763632,549.250126622356 153.58342997484021,553.3860656843829 154.94142475138776,564.6570488195721 155.66872610526403,566.7284836351753 157.58797692206713,568.5277319726843 169.5539796752944,575.7753989924311 172.13011975884683,579.5516937219147 173.85333588978358,583.6763172866495 174.87234794554325,595.5760918304704 174.4822231989566,599.9030746429262 171.40758276818664,609.5781666065313 171.39425178096894,612.2914643531707 172.02421871476082,615.7011363906836 170.41481530321974,619.7171547503751 168.02760432800784,621.0070269920747 162.75264317742827,620.9630127149078 154.65581876816947,621.2363034124937 150.24619520055813,620.6784443567362 145.47433321137964,618.7990809812841 141.38118092899032,616.4886543081359 139.06579291275716,615.774559594343 138.11758592969397,616.5551034588661 137.08285743981918,620.2136872809613 137.42929992165153,624.8121487498823 136.54173445508889,627.6875270553644 131.8812691554959,633.7653666260771 130.49155426389714,636.5562600531139 129.75664876090315,639.7001564609692 128.08369411372016,641.8692123284653 126.4052333425032,642.7291357540516 124.3111884945739,642.8013924291829 122.2083323580371,644.5352093987196 120.1578640738381,648.0142172876037 117.08389138863726,654.7187818119601 113.79940748213271,658.7176991665617 110.67487500717478,661.4068254683548 107.54359985768407,663.264274427477 104.87464335141753,663.4149156770368 100.30972388412258,664.5994295451748 97.32626667462738,665.8028941996017 94.79103583508173,665.8722394144274 91.2587676364615,664.2728766686112 86.96809416752563,664.0734755647339 85.31225440137196,664.7574470257557 81.88447002200802,668.320367230535 80.91976750548564,671.8985653377329 80.14178170465834,680.4642304212208 79.24885250310906,685.9633032258856 79.66651441533095,686.5740834935759 83.5079966712362,688.175492838872 86.757644930804,690.7329808521519 88.47882017326404,693.2372604680028 89.6918513356081,696.7443057199813 90.23143204503486,703.2212953692485 93.31835830617715,707.6074318860561 98.15171380764984,713.8506581722859 98.78427895410432,716.3026922915541 98.84154642688411,718.9271076834102 97.95897188381005,720.8427440416749 95.9222354668863,723.2801250079016 93.06549183386092,729.2415012901728 93.26834630029472,731.4323463749599 95.2838243099295,734.6863882740759 97.37131262268865,736.0932117486702 102.58035919472798,737.7937243929563 113.29875305644961,738.4883095537512 121.46328528468352,740.64862430157 130.49898381345858,743.3008810624376 135.55371890659626,747.0237969962656 139.46142749489823,748.0138809593233 146.5461199440274,748.6779236949002 151.90220070072672,749.8698597173437 157.02892386896983,751.4843742889182 163.29107824687392,758.6127758349295 166.39044615292497,761.2700257829614 171.50000854179777,764.5023240244482 172.79585427931394,766.3472874416166 179.34628185525247,773.4866732013736 182.0107031924336,774.9960003496185 185.49294834711938,775.021622581668 189.04484744494616,773.6521487859126 193.97897527741836,770.8104654017263 196.95114531928323,770.2249553572054 199.41508009060973,770.5042490490313 205.34195132543863,772.8226317285303 210.61747258213288,774.132161556446 215.02476300962618,773.9945959670963 219.369565230725,774.28352238602 222.1262890631761,775.7091066695835 224.57268722428384,777.7342139398293 230.93788480049145,778.9183352893605 233.10679439406067,780.8602312392965 235.52742502140183,788.8277681019749 236.00670408627695,796.7882515714261 235.25874240761232,801.0646495083796 235.83885319707588,802.3792071942113 238.06928310924232,804.496805793031 239.07947938998828,806.1196563380396 240.08079168866556,809.7937843127933 244.6579392943852,808.953782197771 247.04150295980384,809.148482170453 253.8379876344567,813.1149708086086 255.80012586424414,813.3092062598542 258.78474125364875,812.2775075559866 261.7556443758244,811.854085876448 268.7827021612542,812.5035072403707 275.32313482236674,813.9820934866017 279.52343021522347,814.6089823564859 281.18851801107314,817.0656563753621 280.95440807503434,819.3376726851544 278.54283513672175,823.2669572427527 277.36615275623006,827.1907855806487 277.7788731640585,831.8246414283398 279.16418495824195,832.2750066692957 284.6184222028986,830.8078540511957 288.61684293481335,830.7404349990614 297.4500878050989,834.8806631245188 303.05831373153484,835.7799751952247 308.72187418504586,835.8016040487662 314.9780292872106,834.068427893815 318.7010712502143,833.6018513933485 319.8609903668512,833.8649881875291 322.3915463113251,838.9408682881397 324.27513937828326,841.130003272048 326.8800073969604,842.536330808241 335.0934849494028,845.2659164202987 338.00298710581035,847.9850999145575 342.11852501475727,855.8597692090093 344.7304455095938,858.5703016244657 348.37463730612,859.9694058143376 351.70193341535355,863.9942701274108 354.7482203449821,869.2482573948553 361.2827810304756,873.6185060445006 366.8909991256216,875.1620214724022 369.94559341602553,874.8121832742145 373.6009196390978,873.4185190435569 375.06020079933876,873.4232954112532 376.5791533313019,874.4724847788136 380.35746146915284,879.0171831234496 384.939919699511,883.5732547823067 392.7128349182766,890.3972103460334 396.78743877120667,892.6664347347966 400.291828392378,893.3704068350612 405.1692835673627,892.4139231248083 414.07371111166344,889.0088847109419 416.26413522533795,889.0153429253833 423.4692520052292,890.1192235457728 426.2355848350039,890.2937681489127 431.48500633134154,888.4582178686768 437.90939411016,885.2289402821963 441.6946817406163,884.9805372636541 444.60320755712877,885.5909088177176 448.89404943918436,888.2190089875136 453.2484801298443,893.9931995920583 456.65515724278464,896.7123994862122 459.63576393958357,897.3226098948327 462.76939736099706,894.7127011811641 467.21228517571626,894.2331702086592 470.6343428407097,895.3797404993724 472.5946012131394,896.9569317572386 475.27323468591237,903.1709201423713 476.50601851743573,903.8671357671417 482.38569167971525,904.7605847561896 489.94528814559976,908.8037848991945 492.4084537850349,910.8161953223769 493.4208311119238,913.2699501326547 494.2135489156049,917.6390809742908 495.2971722344418,920.3518077274391 496.61086101269404,921.4927717651831 499.36799428605764,921.1569634713021 504.02168670412084,919.1504443325616 510.85475815535557,917.82386637872 523.2901639619407,917.2495281860312 526.047855989012,916.5620915089488 527.7910092217097,914.114296713115 527.808787104283,905.4645541358072 528.0378187899188,899.3499309146702 529.4317135224594,896.3837440569804 533.8698257759245,893.246678946685 540.4765294700585,891.0493536973706 552.3855202216387,890.045712822158 557.324414146077,888.5747526173377 560.0111401330937,887.0073380291841 561.5394413990861,883.0786302178689 564.1736543718791,870.5511539132457 565.1227634732558,868.8050191265115 568.3847339982138,866.8130134353294 569.4767538977502,865.3259184356252 570.5006201475823,861.7487607394651 572.0389783975828,858.0802481401278 574.7165869042192,855.560504485039 587.2778997568031,849.4867748216052 598.6815629277422,846.9994066806561 608.6150403062026,844.2768829747954 610.6428003542917,842.4486297367589 613.1980974316951,838.1711608652666 619.0754093533712,831.8185923650367 625.6901569467818,827.3796236639907 630.4183806975576,818.6956145895302 633.7617072987694,815.9909929025747 636.3769831383249,811.1047313408562 637.9855427215458,806.5578620128788 638.3499799841544,802.5375684213304 637.9934145520948,799.9221115980621 636.5372027745466,798.0803310069673 631.6777151198396,796.9290360353039 626.3158663415815,796.3020013778554 623.9217027896373,795.5045874758044 619.2103492901421,791.8658900174314 615.3746165817715,787.0456437744518 610.0144633229339,777.6758195991226 603.1537872511824,769.1648357964814 601.4950526383382,758.627827748506 601.2854213693947,754.1738995105934 602.1635575797382,751.024638724132 604.3371694669743,746.4908982961026 605.3593649276164,742.7319410164473 605.4364454872529,738.98053524141 606.3128701324339,736.8754759897064 607.9073182924853,735.3991697262129 611.4623916104683,733.751562325554 611.9062141600899,732.6157190512527 613.8707199112126,722.4839821012622 615.6494804428341,698.9240897078254 618.1339386540618,683.5509238481272 621.4000887116185,675.0778731267089 621.340660668759,673.3329255319418 620.3989129269868,671.2268253005032 615.0446267104738,660.9422538810904 611.6577269826392,653.3199151047951 611.0860003369568,650.7903103681961 611.6660545680412,647.3742643539742 614.1363777423169,641.8753191082963 615.0847717760354,638.9045351005318 615.1665052002961,631.5205308268695 614.2304825048673,625.5735657130303 611.4938696343177,616.119439793041 611.7121728518931,614.4581671051513 613.089169340177,612.8907376578757 618.3735576818939,612.0307404120219 622.0780826073312,612.2201356106291 628.3641624899001,614.516099791472 631.121258966648,616.4489015573408 633.4359171768068,619.950449103317 635.1039346963952,624.5028551353364 636.2439389110054,632.0177672169682 637.3374513346545,635.1756249739678 643.3973578330086,648.6433984739551 644.1931363565415,652.2813194540117 644.1884471500483,656.3898693620454 644.9865900944845,659.0965920182421 648.6044141650398,664.1790650820714 657.8872251373368,670.402385416965 666.2980857208399,676.5334351786564 668.6891016731569,677.2363429533564 670.8662731447482,676.8888146293657 675.3027113891239,674.0948211226159 678.7114927910061,672.9613501687559 681.1038209930899,673.5732839961795 682.5589440649832,675.7626561007213 682.6999849190269,678.3852784949866 678.4823639841109,689.435473007109 678.4794803990756,692.7600816465341 683.252579619669,705.8795969916202 683.6913244449391,709.989974542434 683.0304971657819,713.0462773718634 679.175934494198,718.5944324420229 678.2283828872463,721.6608729306117 678.513002293058,725.3278479428891 680.4734037709807,726.6415201509334 684.548793331078,727.6891571530723 688.0410163054966,727.4242135401721 690.6605141045455,726.3820211410807 696.262192204701,719.6522230868195 701.1330143065583,715.184186013927 706.8061072051894,707.1434576970944 709.0658073078945,705.8239709517221 710.8108912939795,705.8250472074635 714.3014336841735,707.3057204041534 719.6073756548811,711.4558957996763 721.7116747371141,711.973182429807 724.125157470394,711.7066683699861 726.3748722491393,710.3957913584973 729.7342653017544,707.6737341515327 732.495621361959,708.1093270299849 735.1851107667006,709.1532239917334 737.3007232158319,709.2373868916904 739.3339257767537,708.443847369757 742.0766079328887,706.0068259574526 741.7798876894528,703.4749627098105 742.7971597835669,701.028360393088 743.997857057957,700.1511452625948 748.0437683880499,699.6169724154586 753.4439073062533,700.8650905331577 757.0478197101792,699.7667378827983 760.5802312310561,697.783192751688 764.1123875140819,696.5730579261034 766.1454441009477,694.431391252631 768.6307820010361,689.7401503893194 771.4749263862017,687.7175165108808 775.1919766866141,685.9180341908815 780.4683797487578,685.9452137283911 784.5136406121787,686.9985381964582 785.8275113674121,686.5091677487717 787.4290864232718,684.8000167536455 789.5022851864416,681.5586911287852 790.6012407318783,681.5586683879853 792.7572352128363,683.12049334773 796.472810555503,684.1169207124456 801.6058301432038,683.4797881604283 810.1671529083658,679.1468686553449 818.2863333362864,676.7532020446805 821.786934141234,677.2238384664497 824.6622328220889,680.0121237290634 829.9810845840801,685.7626814819178 833.7294595268756,687.6267079434306 836.0701223093793,686.0847521109963 836.1720896247461,684.7355308031283 835.0811463870709,679.8881157154948 832.0197030409415,671.6334877514016 832.0177633604803,666.1683255409351 832.6735955461774,663.4161705315519 836.2429198910775,657.2832545653029 840.4573222867621,647.7360867942814 843.5843627413077,639.8597528408701 849.1882240562328,621.9219666384693 850.0564320372425,613.1718694583483 851.9338234545503,592.1847732019086 853.3853617101955,583.6946413507242 851.0526202736686,574.7825140655082 849.7464133044068,567.9732115712636 851.1900271543079,561.1461582245277 858.4639608821011,549.2314880882029 861.0656739868726,543.4553375995267 861.5092413803585,530.1638519482046 863.9786146055293,526.6577042409485 868.6219245640951,524.9024465451931 874.7322490252972,524.3538904743847 901.0150719488485,529.9036646392942 906.5345699707941,533.0432105782166 909.8722995235507,538.4546633215573 914.8055591983813,550.3396991671176 916.573644985036,563.9742075135579 918.9685546440807,569.0918382483221 920.9286645821904,570.0581549740847 926.8765227192316,569.1755128747614 958.5987715019247,560.6199894746685 961.4899941922614,552.3973101575991 961.620734164983,543.5224174248667 962.9196885287117,540.9932576599216 965.8180283496288,538.286283487593 967.1776090748709,535.1292448239839 967.1089241628847,530.2412517911428 967.9620723831716,524.9086390447333 969.9140848123021,520.5338907343775 974.8283383598009,515.5567102968516 980.8188034101605,511.4434299814629 991.686036749099,511.3250028674637 998.8510558880582,510.9709597149907 1007.1605608429883,507.92351010654556 1020.4603783918777,504.51375487746446 1023.4292954491642,502.4151921040501 1024.0,501.01283291808176 1023.4808851043673,497.0851686920797 1021.6662369530976,491.3168469801565 1021.2867903212134,486.20034663883337 1021.3946728657376,483.2398965532298 1023.2267298250898,476.7372919390659 1023.0730019228146,471.04913788787496 1021.1086245820803,462.1289252138364 1019.5846999713912,457.93683074577655 1019.5783605227491,454.52585263352466 1021.9492278867677,445.69122219457324 1022.0128327744542,441.49764655868955 1020.416397047628,437.2967648016631 1018.1661772940485,433.35739617507244 1014.1146346190762,430.86718867919734 1009.9222629140313,430.1651604207197 984.5346826462712,429.7094931768363 977.9578267689886,430.4932401296427 975.7142284654848,429.97153280628146 974.9222178613476,428.5729233231622 974.9180082347968,425.77035071835024 975.7729094872464,421.49379016622123 979.8858883995981,411.78409347320866 984.6461658904849,403.5652617295166 989.5569007119725,399.63318273494224 994.9619455875805,397.5417029723984 1004.9328074841532,394.92592001329604 1007.9011428067494,393.8332901622931 1008.3295350037206,392.2571890674549 1007.0952769600103,389.5415672358049 1004.9203699528076,387.7945018007316 998.4193609622214,383.24624862012956 993.5657524072882,377.21034118742625 990.531461523627,375.455517141576 985.8281041699696,373.62147019249585 977.2914043803331,369.14823043129934 973.3159601774,367.8377162198982 966.3727135758917,367.70953340465144 962.7670499716576,366.4799685186424 961.0230180645391,364.7315308154649 960.0046292577865,361.31597814466113 955.0073584647986,352.6650892186003 945.4476079276412,347.40857369065577 943.7857296886347,344.97103922387953 943.567590399151,342.8708492012455 944.2869415130477,336.1743422789998 943.852881751197,333.7248407201329 941.8947133278093,330.49476851491556 935.9513257429695,325.51115904937706 933.572504423399,322.3647600781287 932.5498644744976,314.3642410167406 930.5003201699528,303.9535144480775 930.4969012363396,300.97983257084854 931.8744741627468,296.7802695780672 935.5496684177555,289.0880912809979 935.832318781647,286.63918236947757 935.5411301709198,281.91791909087476 934.4457007895754,273.60656070814434 934.7997611707833,270.1549283778395 936.0343053028942,267.1708360547768 940.2242823169819,262.72082849975584 941.520267126146,259.8288337755763 941.5766953143526,255.71407735554226 940.3429810903925,251.16951044597613 938.6910351877971,247.6741944383847 930.2104280724208,238.05947887606806 922.821461230534,226.43622301586345 920.9434116403362,220.13529784589093 919.1771360712679,204.2213406127404 916.7125742114747,194.07699116603908 909.1753636570602,172.82822070108784 904.2526163131415,167.59062637249906 896.1427065931496,163.40443371489312 888.8992288398213,157.99270210844395 883.5485405809214,152.40652992270452 881.2149617743703,147.6911058935176 878.0300785078078,140.3461643312172 871.9436455210648,133.88679040232591 865.7160543920879,128.70506319251172 854.266976828504,123.39801288766114 847.4389109110607,121.93918372008295 839.8356136066942,121.08874252180522 834.0303486613535,119.05005549880332 830.114366370951,116.43921575360753 827.2933205692922,112.51582776484679 826.5547598575995,105.25352356236317 827.2078202958478,102.71692949781573 831.560005121353,99.46947505852984 833.8893273458705,97.01554189945637 834.1737279848071,95.08450689038693 832.5785516954793,91.84952902775603 825.1801983083616,87.67923479548392 823.5857364101918,85.75919415975113 822.4309287913085,82.66230183450205 822.572433587804,78.98635217978267 823.9513736151196,75.48409363855194 830.1076537315389,64.8768664848327 835.4659072603026,52.084310775615904 836.69872885095,47.36061487003326 836.1558373232242,41.40734914879772 836.2867570340353,36.9697054339598 842.8206281002655,31.389833032318506 843.9829317740426,26.631869133388477 843.9822041916283,25.04159346828169 841.1935553949606,24.061002259544352 835.9852253580303,23.005453134159666 831.8797422580002,21.336389180607284 827.5796784928541,17.72738180309193 824.4940404186414,12.456181127048126 823.6858333405181,8.018815073830183 825.2664273686918,0.0 810.1779653693343,9.363883368734605 791.1766766709959,23.37344806767237 790.4213193130742,24.687045267554026 771.8135844005843,37.58531568402657 758.3305451024295,47.78055338502213 751.5163680723501,50.59929821699677 746.1552260664031,49.90885315751768 743.255392151877,47.822199434899744 728.8941679399077,26.758860787905405 720.9536555209576,18.974536325383838 708.2447335322288,11.948394977166572 701.0780811205119,10.65827665555662 695.1042692310856,10.781890959574753 688.9364811114082,12.339139878216201 685.0005584910726,17.83869020954444 683.9647522039768,22.733622411617034 686.036052041248,37.168325761768415" /><circle cx="646.8070122537135" cy="323.1758483991531" fill="rgb(100%,100%,100%)" r="16" stroke="grey" stroke-width="8" /></svg>