<?xml version="1.0" encoding="utf-8" ?>
<svg baseProfile="full" height="1024" version="1.1" width="1024" xmlns="http://www.w3.org/2000/svg" xmlns:ev="http://www.w3.org/2001/xml-events" xmlns:xlink="http://www.w3.org/1999/xlink"><defs /><polygon fill="black" points="24.32306183661117,629.780713679279 28.766812095229785,632.6960530081894 31.18441314842007,632.711533773401 32.66969546948189,633.6165918909163 35.19845113960743,637.5015737059446 38.97772422999704,639.3657595129312 42.56167974193236,643.1018892807824 48.57296205335018,647.7984929922848 54.65362202422654,649.9569014492183 60.23900270106674,651.6026552987161 62.18085264402861,655.7293911336046 63.62658116932707,660.3393369896608 67.02014306730872,668.5341003126516 71.45052577764876,675.7735034305488 73.97710003833406,677.8534628750216 77.0285217000477,677.9234409006704 79.0938618182204,677.4489433589474 87.3225075717983,673.0570637698445 93.52041830763785,669.1212765969512 96.1222567010415,667.1440580511626 99.73803859017826,665.1749217567063 103.31758885961634,664.7564128020833 107.38121639089458,663.8250947243283 130.3632022974417,661.7827517874568 135.4749447377333,660.883519380669 143.0705075998262,663.1016933848916 146.6065317920075,664.7058510389645 150.65105674746545,665.8187559292863 155.23151336087568,666.4113133327551 162.35779256379627,666.5712415231038 164.90379159894138,666.119968934812 169.9391286514884,668.2841274984414 175.03427056488292,669.9229269023795 184.1344716270176,673.1676261225439 189.64222310486133,677.3812870110104 194.11680469275967,681.5441152935626 195.06627887842126,685.6410482801697 195.48550695535562,689.716472612844 196.43029255315673,693.3168105879008 198.43697633862354,695.4011345172219 200.96742314812036,696.468415213888 204.50981568271288,696.5530470696792 214.75875761342206,699.7526958653727 219.91404669760087,703.5217321617374 225.44284263762285,709.6170250110777 229.4836172738612,715.256497270843 230.44465469234174,721.406293959021 229.8779753180821,728.5468533396338 223.15431751276728,737.1325724380079 216.8951151526533,742.0363136622036 215.24504595068103,744.1122748972075 211.51022017172988,751.6500303889618 208.83619958944087,758.731509070335 206.2136467469898,762.7248345750654 204.6001691359092,766.2640454331179 204.5472330878789,768.2870181827095 206.08374579658127,769.3439769791106 208.02812796945798,773.4537516546795 210.49084777838766,777.082988674802 211.42356862538392,781.1796573702076 210.16526675646932,793.8550540846843 210.05636737959455,798.4428778978775 210.47610503044203,802.5075689385313 213.27956971822192,814.7949174956422 212.69943973822,819.3672152066458 211.56190289383136,823.4158928600218 207.9292074765558,827.9087465745885 204.28703993055015,831.3950541835093 196.57736639288257,835.7897426368534 194.44056810205225,839.2941589637142 193.3598449463805,842.8361659016208 192.76493294867876,846.9010789525469 193.71050294965622,850.4746829313044 196.50408599826073,862.756705274443 202.73983261075156,881.2167340689659 204.1531456159734,887.3391710629455 202.52619392485028,891.9006823969981 199.39169070630047,895.8914026738406 190.60296517463283,902.3197988101751 189.02633117285478,905.3334486524425 189.88352190432474,912.4619563039872 191.34255705371388,916.0622007699557 194.30907914789597,920.7271062804637 197.2688353774131,924.8580050391998 196.4704839817194,929.735025996303 200.0779587187174,928.7577444604818 220.34775890325517,926.9315846175026 233.92136732689332,929.4594626849489 241.9897474487496,938.2389005561006 253.13931044891967,938.3227805671353 266.77723388310653,927.7000873460865 278.430566372838,909.1125220067172 282.8834579731808,906.5092274666343 287.4723238236233,904.8629263145334 295.8494377708639,906.3058054457991 309.71083557461725,918.0380961739507 321.4529982117033,927.46363389132 323.68119934412385,929.0821489649987 324.9141876821785,925.7575746094518 327.2186395439967,924.9209146536549 333.9614383579915,923.9174066651974 338.6765288940791,925.9715840744636 342.08722977867006,928.108890454959 344.67945235655253,929.1275736433712 348.5231291172739,928.1805328179404 350.96644266478216,928.7785938431314 357.42826937691405,932.4834587421082 362.0477017002049,936.754684915682 366.0203417867122,939.268330036897 371.1935269670607,939.4632842687232 376.46610984739436,938.0814967037903 380.81057241463014,939.194488258264 384.8810444952501,941.0601987999697 386.5393240625,941.1538186827024 391.9965419020975,937.5446308681086 395.2377212860872,936.3429583928092 396.06916120800486,935.1391382911527 396.90071476957655,931.8958694759973 396.5404840191751,926.5508190791393 397.8077985645834,920.645028593815 399.98419774740563,918.2290321792593 403.3023240577571,916.4567891218359 404.8748460528413,914.6942411676769 405.14963846873025,909.7931636302592 403.2816447270363,903.6112676520961 401.8067863384115,896.3600700225775 402.1385529667524,893.7258959076607 403.45185001086764,890.4339161432478 408.5443729661376,886.1536193742811 411.8365601420179,882.6966510797549 417.75677713992053,873.4831530647662 423.33922471457686,866.2363428232853 425.32636001788137,861.1356079264905 431.40791462868714,861.4693580689335 438.3077698594299,862.1872835426691 442.5954865493733,860.6509652672222 445.2557907967347,862.0059433690433 450.1978130862543,862.760854314398 450.6485518906717,871.3446952528864 448.6061106101244,879.1518067798563 446.60757220343675,888.8038988237063 447.17338978756453,894.9169630818167 450.8504020534499,897.3707709337696 462.67917311822043,890.53565589503 485.73234744042344,871.4797483913114 491.23054497922834,869.5726396049123 493.7911443487412,871.8338918854416 497.2496514938157,873.6444961304973 501.8631189981632,873.143621798986 506.30308374132017,880.553126424606 511.7409001595209,888.449795979095 515.6967582281435,891.7357281330112 520.1470080709088,893.3845926467374 540.2508117976341,897.9589444460033 545.6838893163512,900.916653875706 554.5873674415838,907.6597314622193 568.4390657217574,911.4214180631739 577.3309798100996,921.6232642643262 583.4338652102618,926.7086855584587 587.397381673315,929.0088402318991 595.3086842861017,929.159066990685 603.2212501351206,927.824977426123 616.2563383248327,928.947959849027 636.7000791900176,935.8261312130223 660.79340237031,940.2588680644315 673.9558991444516,943.196003361553 691.0006670095677,938.5598046511169 693.5525296850792,937.2826234825443 700.1827636191945,936.0230635870186 705.4557162130127,935.5254215692031 717.8212456715818,938.1388856293307 723.9194390545623,938.1260792883095 727.0552267268279,936.9686053986757 738.258224264472,930.8638960716631 743.8661613941933,927.0614068909772 750.62246201831,925.735314190373 754.7739919346195,923.0196430343602 760.6568020997872,923.0417145439615 778.735193932884,926.4690239642609 790.6723480741442,928.9508011677939 797.7301554109922,929.2813810874329 812.3169666160135,923.948362317775 824.3567117697864,916.7592115820007 839.6658843271787,913.1636534412205 842.593260255618,913.5035443589431 859.5305397084528,924.5911199128312 871.5658628903689,938.6074198401187 881.3297317199141,950.9813085036319 887.5087279217307,954.5885296515157 896.2900531219719,958.4949820336274 901.4919666304138,945.4806071483715 903.4489027884737,936.9928101076115 897.9238156994555,927.2360995092123 896.4001609379616,915.7724214017974 886.5338107722607,902.4371155040866 878.5652824236726,893.3481904859855 871.5679699912057,885.9301868274229 871.9227984389364,874.295319043994 878.3843229199833,861.1717501809078 886.6802094634696,849.4034434986254 892.6506886965012,839.983093868396 891.6145164741856,839.04818513604 886.5445150782169,836.4645328078881 880.9103561943372,836.4064939091556 875.2772688141384,837.3920478027289 864.0389608292236,839.8489337269855 853.8000181168807,840.2773262800882 844.6674710166415,837.1433935296479 837.5435434934857,831.4718927703416 832.4989297508267,824.8170503619081 827.9865965646451,817.1256721819461 822.885080828432,814.5594924201114 809.1492666904219,807.2957602779127 796.456382711488,799.0662119574201 787.2723680974821,794.9239652027445 779.1338366445098,789.7709063634045 774.5598606138593,785.652394023391 770.5135420419687,781.0312586034997 766.4548934436685,778.9618049025207 760.8856332828848,773.8387515601594 760.3651992289668,771.2743403631196 763.4864840711301,765.6747980152757 768.6580145654697,760.1038312521968 774.8542353416268,755.5720823506197 780.5140739765518,749.9945421457627 781.5645338146112,746.9580289265349 781.0893957055035,742.8645421547545 776.52045326192,738.2388913466988 773.5029244892951,733.130231744902 774.6034538821966,725.4896409492287 778.7602816827762,717.3605271554559 781.8709884768053,711.7607606509528 786.0175082019093,706.1993447605606 789.6209190334735,702.6484825853597 793.7319875978259,701.1466691974201 799.8288073475503,704.2371719557915 805.422458305443,709.8910664396385 821.4765197640555,742.6506788590373 826.5382569035066,748.291602426904 828.0632250754333,748.2859969037127 829.6134768852385,746.7697956526052 831.6819987609679,743.2240454758894 832.7594690126755,738.1323015562066 832.2974265619002,731.0040656356114 832.3853405104816,723.3333367576596 831.91347496268,716.2050095577451 833.5259602194949,708.5580141748258 836.6353755689053,702.9978504781332 840.7732373652492,696.8912471178865 841.3212205567035,692.8172850660098 840.8428673367627,688.7452272149333 835.2960848000828,681.0556366382293 829.2489209033666,673.3456341693338 822.1846483476647,662.5971272552496 818.205129503332,650.3295305424735 817.7625087548203,642.1523605489094 820.3830674649441,634.0362851179177 825.5583664137929,627.4262983147519 832.2456932695507,621.3710903632839 836.9065793398743,616.3127336726059 842.5391795231685,611.2519600192692 848.1916879687084,608.7511140138222 854.854702889805,607.7776139500388 860.4297209368985,610.8894050550541 867.0668153605876,612.9691030122065 873.1870769777133,612.0093388750761 880.3537658922954,609.512810831109 887.0054057627217,607.5349776617305 894.7002206817436,605.5658000718007 908.9740608656491,606.7159000252158 923.2598081881023,607.3316756032294 930.9289955464852,604.8543604259773 939.1311739570988,600.846488878995 942.1861555461165,600.3646372490925 946.2703011010859,600.3984257372205 963.0816099635475,601.588694396109 967.6842931835639,602.1523386375352 972.7723950596097,602.1727082060061 980.4284899134512,601.2343932548442 988.6034689225996,599.2671558721822 997.3036655410009,595.7852175894462 1005.503086075612,590.7722257560704 1009.1343386105584,582.1426903841555 1016.8177891803603,580.1895434072884 1023.9753227115259,577.6874811291618 1024.0,574.6234230393783 1022.516059904203,570.5542625921453 1012.3942729151067,560.2467721089174 1007.8503568911513,556.144764828517 1005.3304188462437,551.5306063974886 1005.8616823879037,548.9671211288442 1007.9371631738987,545.4312078091525 1007.9619057782093,542.3778164076164 1006.9634162134082,539.3054540532198 990.8039654286367,523.8526965986806 978.6309154233625,515.5906969879888 965.4242292390454,509.85019137008 956.2282198281099,510.27089511068425 949.0826269225389,511.7199783372581 943.516985169905,507.587264932056 941.0150859432076,500.94142684944495 941.5687091785225,498.40755776176655 943.6226138824895,494.8451193815068 944.696190326785,490.26289927976984 944.7382897111053,485.18365433920303 941.2250462328113,478.0169203751284 938.7296788559136,470.32207825839197 942.3963024255145,460.1773032647671 940.4165056318371,454.53940242392645 939.4484628761278,447.90625096628776 940.530838201873,440.7749639894314 944.6552769525636,435.7322658889409 950.3198667451979,430.15775362548925 952.4036456409328,425.61323773434924 953.4493260398442,420.496909680151 950.9788406885114,414.88435517585765 949.4699232847813,409.26106276594805 949.5122373968571,404.15511034797385 952.6270360044541,400.1156218144406 957.7304042768517,399.13551070243216 964.3484238608811,399.2115028792887 972.0242141709034,397.7559129240003 979.1842582962221,394.2566191457073 981.7846229986197,389.17166528961195 985.9581501114117,377.99232802151187 989.040267771853,373.952282497179 992.1378225689208,371.93563271120195 996.2951069346991,370.23457196418474 986.8554558114405,354.80384828119327 975.7461282672358,340.8111725347517 962.9513759835964,330.4664129950196 952.278206885394,318.7667415269923 944.4119434187669,306.270591894453 940.2012617511317,304.67135015842064 935.6462980241719,300.03420914114236 932.6534501776943,293.37872469919955 923.5465100157098,284.1148552098573 917.4441019232509,280.99131775468936 913.927527702682,274.84641905322815 913.9745161518122,269.2573075003198 911.9919608236502,264.14761333907427 908.4535770584988,257.99178080534034 901.8913869619532,251.31656299998224 898.381803397505,244.12249332289684 893.813171019886,241.54799271271247 885.149246987437,240.45217139432543 876.9670233902538,240.37457860104644 870.3175641038288,242.87509692557614 864.1751260860625,244.85397566840948 844.2436293894938,245.71333986002105 830.3866686533468,252.74761533851063 817.0623582427945,258.2511344211862 811.4611934936762,257.7059663127719 805.8581213144158,255.11864536339897 800.5739502918512,252.42190262301892 795.2985317411055,256.90569770101854 786.8132308026227,269.1397815646279 775.2773588934538,277.07857619176855 766.0799569571784,278.5537916647929 753.0511575556278,275.77726403637564 735.2654218412633,274.5034649533395 719.6099807155896,276.1361146401115 709.4796698847326,281.0263419899096 701.6121903564889,291.57440784032553 700.17873824743,305.1673420168569 694.8648160762339,311.50195816271605 687.1203123500197,317.0511027844342 673.2716399758361,320.0461978720448 659.4730562012453,319.95006335981043 650.2407452826275,319.3879743614136 644.6371056097184,315.7864044501541 643.1961301557602,307.62618359377234 644.2973584685144,296.9105999935016 642.4391336329838,277.55637846989487 639.9323446544582,270.9025672355531 637.9381789916584,264.25343898652784 637.9709303029849,260.68740326994794 640.0435284383608,256.64091675851796 644.6990379921226,253.0772456433457 647.2893020418834,249.53464769506797 640.6614476658464,244.89315884645555 632.5278484130305,239.75451617370015 631.5303458404527,235.69048609016045 633.0977698444926,231.1081730392582 640.3339390739467,225.01101031985763 640.357153429552,222.48328503836262 639.35769861758,218.8970838499065 637.3571566460022,213.78544513002294 636.3938056019949,208.6913398363257 637.4273217341512,206.15421640779232 640.0180088931052,203.6127154731679 643.6119175072428,202.09211677103258 647.724959975735,199.57254170062674 652.8914088988946,195.01245420440807 661.6761894554999,184.8689047099806 663.757674268537,179.7759775198091 663.2860830327404,177.7295724768137 660.7422667195335,175.17841025491236 633.769709079941,159.20540533702422 599.6251633829,140.67289333496433 585.905947160656,128.33746053628715 576.3149955362538,114.01940789130845 573.3634165609302,101.75755573440108 571.4190200547756,89.0192859108837 565.3365117409668,82.34444184876133 558.2323363601762,76.68758212636476 550.0625235272714,73.56983310806356 542.4394577154916,69.94987186901722 529.6937137143411,64.25218554008177 520.055963476632,56.549557286154254 517.0455303505707,46.32865893256076 515.6258767884185,34.59865795146209 509.0527262568138,25.878517003710613 493.8715463926368,8.1138791151227 490.898775241469,5.864195076306373 487.5703241106664,5.260811277369953 483.47309838667087,10.568286191253605 480.74060532749667,10.723401893302139 478.3152909761971,8.908694843840522 474.5163597514045,2.216797367097911 466.2963346875021,1.4696802026703608 463.9537500999377,0.5312738576004676 460.3808875906265,0.0 455.5952435452017,0.3538382900169381 453.3860956841228,1.3921131427297269 448.63407144481033,4.605256947588373 445.9500060592922,8.375124543323977 445.6740657145451,12.42211172842542 447.29118321705977,17.550058960186334 450.25508126136293,20.694324471244386 450.49971127853354,23.892137814995863 447.80247611296136,25.972082310554697 441.098513035251,27.78594088214163 437.30645168601677,30.752067127376222 431.4004599150048,38.82561652842173 426.8059144039885,51.76784437570757 418.6128144335368,59.68528083074057 413.390582689829,63.51538908894531 403.55330158463556,69.01639000382715 396.85959394796237,69.68433817712742 388.66702857292563,74.2081486558111 384.23415699484906,77.86415662504692 381.85048318435605,89.45570809785875 376.747605923057,94.57323498638732 371.8980602627165,96.9942981210919 361.9534590528918,100.74727375879445 355.50407592388177,101.54239353033518 348.5085308533026,101.52838257165604 343.668827162164,100.97527557759236 332.9210978294244,99.06523975547395 325.2320525883931,96.01114025794402 317.59522826948705,93.89441731063528 299.19923885497485,98.06463880216586 295.0076591328915,101.12140011762392 278.0820140665894,115.3672508622717 278.0764626836035,125.06851681699504 277.8098346948856,130.1860808086235 276.4759987356067,133.42401648449652 269.4822737010999,133.40049898193263 265.9977243818294,132.30762553662112 259.54595559680195,132.28679783121254 256.1340912202186,131.79523332450594 255.6065458693391,133.50636725547406 249.8924945134676,144.1393562531199 245.8164033735814,146.652181320797 242.7231197482381,149.17777251682423 237.51729492142601,151.0968774716655 231.8790231027473,152.42145058156905 231.34375305114577,152.96051440251665 228.66628947667485,158.61641797867594 229.71683898562156,161.85219122085255 232.6890572166955,165.09715849443455 238.3251150610456,169.97137716470922 243.96390519922684,172.68314039883046 243.14268354591835,181.83944030764633 241.0109852262134,184.2708295810586 236.4423262322196,186.95202055003062 233.17087181985613,191.89704882349065 233.5634821883384,199.20783087069856 232.96912449182557,203.31288916973267 233.15222406664805,206.33944898728828 234.0583372287769,208.78883251531704 235.52997818329743,215.89183841811302 236.47951114584382,222.01770773889564 234.39084803535505,228.1309024369068 230.7901331592794,233.1873191903553 223.0690773501715,238.95389443443287 221.82858821727416,246.1837004967191 221.92690879226137,248.34977218363747 217.88697785195458,251.28452860301866 213.62229129286584,251.1735517942534 209.95098821150333,254.1974775700179 205.58501951558324,255.76454339815473 203.06981865546635,255.67163476009648 198.25589184110243,257.4154856715995 194.986575132425,258.0301199115722 189.75431970698878,258.2905254868699 186.6904156680825,257.8767548798588 182.14580293405817,256.2461306922236 180.16246109567103,256.196001070434 177.6959443698919,253.337685407898 169.88847860460115,255.46890994180956 164.36649116911968,255.39219404027983 160.8025063488125,257.53846058015995 154.82077528290552,257.3526430855969 148.93104295227684,261.057368243753 144.08789320859574,263.43023704366203 140.5529623274388,266.76995341220265 138.82375306141688,270.6439995070699 137.45847353808034,275.05849190045194 134.6618868447087,277.3167595065446 137.37345063655962,279.1314744591839 141.82488339033142,289.58752208410897 138.75055915787374,299.91856486424933 137.11964497412853,307.06663228832076 136.9870985322073,312.8369994055803 139.0646592952495,322.4216356167801 140.2258618652388,329.62859303037317 143.12927804169277,333.85861094255324 142.83890804438647,335.2117200621087 143.3478784560256,339.3016398545608 144.81671913950538,343.5351714466435 144.08346696331625,348.0791599396157 138.94705628414061,351.9652888648768 138.21118006368667,356.7495091888219 141.47207810276603,357.0295704820512 141.78613094947937,361.13878558156534 143.2848286004364,363.7201262711079 148.2692918867437,368.4125208869292 146.84270822939212,371.6117170640482 141.01636651780348,379.8741545174064 137.47156222057976,384.0440526503836 137.63092696320976,385.52738331353 141.81508504248976,384.5491031043467 147.09163689387253,384.01210180530666 149.7415855542867,385.91143270774523 150.63318319379496,390.67542738554744 152.77859876353227,393.90423030163186 160.08908604095603,394.5523806464972 166.276963616452,393.87248947863554 169.28185831426399,392.2648383536631 168.42776058036267,388.8387790311009 173.52319821127685,388.881463493331 180.7576794947258,391.84028283722034 187.93901016353377,393.04980045366165 192.6816465995789,394.7783891371306 197.0075701381141,396.99111594860904 201.44415208353743,398.28659347657776 203.69968760398953,401.87926428180276 200.76231355494278,402.92995441374933 192.3392649959103,408.95842957376306 184.41841938695143,408.8865716721788 172.73504299974294,417.3152757003751 169.75793100426705,418.13572206953495 150.48785486953787,422.04732042780995 142.93738305922244,423.76176902957343 129.74137323884105,427.02882786262853 120.56157438772077,426.81678366900906 115.27080272829741,423.9842013104543 111.44774568049189,424.57360715285745 105.13732869635604,424.1914361874436 104.08676554537354,426.7564531853558 106.05737663089019,431.7990402414662 110.19215647469736,435.756730669539 112.59695878039273,442.41634845360886 110.87461081853846,448.5649085842652 109.28618819830281,455.56383168785743 105.62879560227704,459.55341125362014 100.90926998552996,465.5552312443143 98.57124708510673,464.89226871425325 93.65906168656306,472.5231031840327 91.55887603052953,474.5242719617009 89.67873502613563,475.31576158946905 93.06176349140343,478.5794892906632 93.55762866664486,480.17855883902735 98.1240506988625,484.8670987387627 104.32772255420419,485.64862949575246 105.94370078004631,487.900306842348 102.2362234389364,491.9293822850675 100.81469194484154,496.4286036559333 94.27947900748498,500.8172514296585 89.48911549688653,502.533427599339 81.40611277287975,507.9571651073123 77.57888569027904,507.9241989536343 75.35245286013046,510.1722145135281 72.88693953084936,511.0240969954886 67.25807923185756,508.1205079587781 58.57239236452474,508.5423585087296 53.8306385638761,504.80448322928936 50.22130461422518,506.29260816298466 40.370385308597164,509.5579858883144 32.98042401894052,510.33761844317996 30.14560157086712,514.0764658677508 19.135623687134352,517.2913409115026 19.437567827906474,521.5047033846204 20.649594368022086,523.9045675765497 22.42729512836464,525.317452505433 26.27563166122626,525.2444382368342 31.318871039570585,523.9242506138792 32.43977025087949,527.2307681688849 36.030956712595334,534.966304661718 33.632573006025325,538.9314915705007 27.65068137458404,544.9107975116799 27.791247241185204,549.0075929089719 22.660027894400983,550.9007786851197 20.03197144243106,554.4148909044807 15.168014368490264,559.1647611412457 14.512653752088978,561.1358607725982 16.0010355427213,563.538734733173 16.46496727278933,566.0158948141063 11.735871472885568,569.6886478532956 7.8643180832950454,573.6590123539606 4.291448951968558,575.566267210332 5.17654633575636,582.6238606616887 0.472713949356157,584.8551349833979 0.0,594.2659274843498 2.3025072789669117,600.9679008678771 4.672144164944782,605.3666553376917 6.699387857040945,606.3257938872464 8.696001060911117,609.1934008603503 10.84693579074464,609.2168060174201 15.56211539537574,606.8707079565299 20.137804774652338,609.8703754802519 20.720752293970914,622.9900845959817 21.340141368495757,626.3872731145716 24.32306183661117,629.780713679279" /><circle cx="595.893754176327" cy="455.0085905098567" fill="rgb(100%,100%,100%)" r="16" stroke="grey" stroke-width="8" /></svg>