<?xml version="1.0" encoding="utf-8" ?>
<svg baseProfile="full" height="1024" version="1.1" width="1024" xmlns="http://www.w3.org/2000/svg" xmlns:ev="http://www.w3.org/2001/xml-events" xmlns:xlink="http://www.w3.org/1999/xlink"><defs /><polygon fill="black" points="720.1027637643194,1024.0 821.7922430596419,1011.1735015483291 859.7246395375441,1006.5260972245165 878.1483191083104,1000.1010419263096 894.4329736747243,991.9080412357841 922.131722600451,964.4260529201268 987.8660935309207,880.5107409814515 993.1262986588631,875.5473472514486 938.2908105952462,829.6602556214882 933.8360317562649,825.7414095344768 926.2564651025552,820.2207267625281 921.4641676927857,816.3818375117223 911.4774610809156,810.0273650722205 896.7404551616966,803.2100378566073 891.7481298774679,799.1779103741463 888.8488612173471,795.9981962662885 887.8015278020428,792.0587916274135 885.8210152857614,787.1943085348846 880.8494004694526,783.2624521921689 880.8529201988565,781.7596061329759 879.8010904552236,779.7914409895259 875.397767244381,776.4156981770168 875.0214132746318,775.3915311484598 876.5291322797068,773.0418183635156 878.7620442523025,772.3834695643347 882.6167078183593,772.3729829978546 883.4799824798913,770.1221118464614 880.095465921779,768.530478055395 878.018633652894,766.3758782232117 876.3223328459297,763.4777052357556 874.5420357529873,759.0625281731091 870.3298949367197,757.7644016183012 869.7448970044383,756.7313684212436 872.4752546323979,752.6949014536328 872.1197829713998,751.570402965621 865.0398810151278,746.0496084773465 862.8012690234873,744.8369557347899 859.9842287112997,744.1749722368177 856.6026018401446,742.5914905417417 852.9297220290495,742.1337205332875 849.536950480831,744.0995710367517 847.5776345370958,743.5427393556251 846.6391631178639,740.6351133766832 839.4927268671069,738.3145580956077 837.6068450514458,739.344360685741 833.202537712625,736.7125589067502 832.273080072938,734.3792933824441 830.8623619369788,732.8813046920153 825.773559718737,732.0405541912256 824.4652106028303,729.7983355702266 824.8479362050136,728.1932638946935 822.1139701138952,726.3238905002711 820.9845865313504,723.6192580178583 820.2363631259542,719.9452689908405 817.802583536194,713.4760138569474 814.2183040617026,705.6013513045887 811.6986859437253,701.574335368776 810.4649222688221,701.4903523640319 808.4983259653848,702.8962168024485 807.0895101377549,700.734535093972 801.9459606333938,691.2692630733544 803.42045897852,690.8854638792509 808.0318713781589,690.7940430639164 807.8361362966886,689.7618942513122 805.9554122879591,688.8258355342012 801.1676958333826,688.3619178077632 800.221097042698,687.8185739654798 799.3126366318369,685.4629637654868 793.1944119884489,678.5240003832353 789.2369081832109,676.8352383916422 788.5050341184133,674.9624242731343 785.1091303647785,671.3009908422864 783.8004938746398,669.3458054533955 779.4866779048755,666.0611271002247 778.2600877433752,662.3049235380663 773.3724513568843,658.8430063769175 769.5286139077322,655.1941843381494 769.6276381998935,650.8670718412454 770.4581954215029,649.4584098966677 777.5389607461902,649.4965754865477 779.6976062080538,646.4964936823087 780.0841173951012,643.4889768565381 781.7626342169136,640.8668289985128 785.7082947315479,640.0183359221126 787.681162717625,639.0810348035109 789.2804269037582,637.194747641186 790.764393883235,633.0775500283231 790.7687908599879,631.3795130663189 791.7987690280572,629.50010539243 792.7442665011774,629.4105375354068 796.4158626238682,630.9117250060939 796.9637809180801,634.1865476011042 798.0977102687539,634.9450804523071 802.3164241851523,632.0310177438623 807.1123919365423,621.8884313537849 810.0117970634051,617.1000019935454 809.6445632126307,612.6211294244795 808.7063149541013,609.8778885137365 804.198694278317,605.0176201820074 802.8032243613629,601.8242844097352 802.499961780943,595.535983049966 799.7934994699656,594.4137415373064 798.8624705678419,592.9168427726659 800.340913701737,590.846172736698 802.4323797130378,590.7483671505389 803.0809377836752,589.9135487412283 804.0107311162861,584.8440798474032 806.1690390813545,581.7490440224115 805.8538693992102,580.1143188844611 801.6328809980993,576.1135225583898 799.977229429672,569.994614664402 801.294503038069,560.4398254996236 797.1383411872127,558.3714044729354 787.0501086038854,556.8953855165712 782.9061368418731,558.0891081081899 777.8571963874771,561.6448593173205 773.409814452748,561.655454680603 768.971683588685,557.2047914996979 768.2141900076751,553.4720779830312 765.5840810973848,475.46867470726556 727.7465614043923,488.9421041713347 721.4022921005512,501.97924932703893 725.8151196563979,536.515974213243 726.9446222125416,541.510114479393 716.5146058866579,537.2680440076285 700.4654192228313,538.7369105957498 678.7518524074469,532.7830565937752 657.4355345841317,531.178824538187 654.2685235673396,527.6199722021718 658.4668210793268,522.0111887413073 660.1835626565055,520.5133608912713 666.1027616768463,511.0310479583584 665.3175684373318,507.47089009829176 658.6255194717073,498.76289623867603 664.544416889149,489.28339174785754 672.8365380523519,479.0216288870099 680.3312590147855,457.679491241553 674.3973116160153,424.87190483664097 668.4905070363416,392.84217107913196 646.3556881264683,377.5580952494437 629.9714506106218,353.32850955095773 611.2463881216773,301.91314472699025 610.9368368135516,299.6536466604754 607.3587093226448,282.56966124371297 597.923576791521,264.9264244229804 586.3461783083372,248.85993036269065 573.1233589513382,237.5474829176262 558.277088282367,227.26376832230562 545.055775789534,219.13178114079415 531.2732041566642,212.06817615612556 516.9435434106729,208.7302384050771 502.58997894880207,206.44565691380615 497.24555906551194,207.42854035538562 472.75211250995926,209.81492569026375 453.04658854268126,210.666252707828 434.4015510966926,212.0696287897605 416.83818859438696,212.41640508858757 405.65972270731623,212.28378620490662 392.64520830231925,211.1932391491324 386.28410948556706,207.31065337978782 382.9266359909156,197.59188885310573 383.1018221468267,188.51080346845401 386.1056575230245,179.75807212086522 399.165037402673,160.59428954397856 408.3086148214715,151.1388769563407 417.42749418196934,142.6925475056869 426.55800098591493,133.75807595918798 438.4243304526302,116.32581744209165 448.68441668296686,96.7655563995512 451.98043748073826,84.02038500396543 453.1737064152566,70.19703289987615 452.67926014663135,63.82384326374199 451.6783143795839,57.418189667284196 446.94395217610656,49.37647381855197 440.6469480308777,41.85891777076267 433.74285728366385,38.055989919484546 426.8511742586574,35.84514290631637 414.0559507591582,36.25892998607367 401.27553027288013,38.2338280684213 392.1984896376886,40.804761849615716 383.6388169029259,43.90719374281093 360.6347359176857,56.97382886804371 339.45952643327433,69.53580521309493 328.51328116964294,79.6322813876435 319.8478933013676,91.68919542528863 313.34103019144646,102.80629053698601 306.35813815106627,111.24733421891415 294.95197897192054,119.37243632439527 282.2153963482638,124.28523371251333 274.0355634513718,123.02563777071873 268.5633827776375,118.8071124821223 259.44596528787133,106.47343744160196 254.52769341126333,93.26988674414952 252.15724150571168,82.29063369865185 249.61239648368368,67.4431134622414 249.32194542314505,53.533308618485194 252.69712567108857,22.966479642543845 252.84776966802607,8.079711645383213 250.74635330594828,3.8020692163145213 248.07755531410217,0.5761184497870318 242.21457688983062,0.0 237.4074036823006,1.5529163034099156 230.3789817066354,11.071493418054956 221.66207154772874,30.1583816744743 217.35572779720843,35.449619565797434 203.48282105869782,36.41210171453713 194.85460591946375,36.49004089913831 184.16907196537687,33.54472949905323 178.5018164183229,34.00016575942789 164.7503019544689,34.81950363378235 155.51413325948084,34.54534770227417 154.62814219670923,37.2267716316735 155.99410389085799,40.693145295911904 157.7338156190622,43.37479154852235 158.82419964779453,46.351983087847884 157.33944848710922,49.52158655639164 154.35144821713428,50.62122449591345 151.22389157084672,49.506213155695605 148.33292898902005,47.215484057295726 144.69983152606912,45.8611972554927 141.6358892256125,46.093196671765895 140.68520261949794,47.66171899456299 142.92048529503427,54.62585704360845 142.3878613300821,58.21782704625707 140.2102360493858,60.99674447591417 131.98945813429347,67.11756252484486 128.00477493379407,73.72814236400222 122.77815287754984,84.30671879631825 121.12678146110636,102.36291647351311 113.96658878834029,109.17400152594655 112.19587617898962,109.41151396361136 106.65677018567568,107.37637576381951 100.85241076983948,111.17059368381354 99.3812760906687,113.4310055590912 96.34451473930838,122.9454838630943 95.60282416058318,133.451779807707 89.77063499218588,141.0240435968816 87.89436202929305,142.38470940167588 87.01007035092842,157.64184050185543 84.76505922839075,166.00816995607158 86.18850488306165,168.10871184159123 88.81104994026784,170.72493561755743 93.33326554091441,175.97359534129077 97.32727336762203,176.83920156451154 105.36057056256035,181.69631518735468 105.22246233967341,183.82048267314258 103.47984343653349,186.32786997154255 91.32190701428159,178.73346757794286 87.19464079879747,176.60961212415327 83.93419994013176,176.23797562872892 77.54040243680643,180.3777443302056 72.6494811150455,182.13176546599607 71.40835642920126,185.7622401719608 67.52720571741837,186.6535863447208 64.26383616971741,186.90637565007899 57.759960577069315,184.66814879548747 54.875344253701634,184.79990133057004 54.363848716584705,188.05444836763888 53.61857687659293,189.55399075704327 47.76402269617393,193.23564616017177 39.730556230770524,192.95310581661636 32.91987932810128,190.30590688812924 23.41233574488203,186.16530093181586 12.13096041446408,182.33118551808718 7.094353864040558,177.27147754555176 3.3104911104051493,182.0469272022733 1.1190967910337566,187.35691066017318 0.0,196.5674361058849 0.8853520534606623,203.01574328195443 2.449114270794852,208.56101282251745 4.68592560410167,219.23741115688404 4.66154201126385,226.57091034543146 5.342354974322546,234.41244881667762 11.851909680313103,245.9566335001407 15.028783686616576,253.82939998809331 19.812024122120693,256.09932244091146 20.20220303108481,253.55530539707001 30.04844862624464,249.43258113953016 33.018381308054806,246.00547132515715 37.87086297933983,246.6609789725852 35.593332648807845,255.0380268822912 37.653733788806555,262.96674051187415 40.674054268829096,264.2271607822503 46.47933523421071,262.5558269852644 47.75141165222075,262.92139992133446 57.64923187103515,271.67236259041715 59.026787907565094,279.3607898802958 60.482835240832145,282.8418314732413 63.00005002998922,285.0004223185065 68.5151733115215,288.3242701875299 73.51422155004406,291.97472535439033 76.87517017951461,291.97044080223645 80.54298921165316,286.13134668748637 82.37190435504654,286.304123557294 85.05186899275341,287.78570854509064 91.90268485682545,288.276607864354 93.40863934963089,296.77409670813734 96.7406813300292,300.9381842340688 97.40781174429249,303.1077676449654 96.9036848289831,304.7701970994848 95.06715665577161,306.2760871556876 93.56341026927078,306.45338562077893 90.05651038479459,305.1187292669065 84.05457627931831,301.790234040304 78.82619758433427,300.4281853039538 76.36207503304215,300.14097989798074 75.0230831748952,303.1491961776742 72.19047253240842,316.00211901785383 75.37127001756775,321.1583869461913 78.0234538575119,332.8176096021285 77.85932542765096,340.65510404734346 80.88453626212517,344.99360175089794 85.74825717318619,347.4581711176835 86.88987757534828,352.2956248960593 86.32561261768468,358.14875143611823 84.69518507434948,362.40489552998315 82.26407913792694,378.68383721977 85.84548565151103,389.931668416693 85.54376479343618,401.5021985703813 84.9510177224894,414.2453323869372 82.8542598296066,421.9625653114741 83.45900389975111,431.7386397203609 86.78477871436792,439.8483181265235 91.2950604660694,441.61686898815867 95.93178947586503,455.4373818678599 96.6395999512922,461.8287564033402 92.8913816058596,465.18597255301063 87.49444413953358,470.45696510892253 85.32547582166586,474.7106875896868 84.20178470343038,478.9690970129452 83.64768804789516,484.813872494165 83.60318882715588,490.1311419370235 82.48657283166519,492.8029803502103 80.8701101765673,493.8274127978933 75.00719663536887,493.82327989352484 69.12337793706584,492.1821705833572 62.689236286301345,492.66322274765514 56.80044229832736,492.12610049035163 53.071068856644914,491.21955125356226 37.44069734591561,492.01488164678074 31.50818301228601,492.0292605683786 20.793807932541966,497.09060212359145 15.03609403279258,498.2487837682427 11.664584517645924,497.9067517981158 7.700630003451875,500.35310500583034 5.338275772239916,503.33675253465617 3.3342380011526878,510.0557544375273 4.755003941880293,521.1352132017174 17.818267678490717,529.4054972125462 24.94903191100634,537.0984578470627 34.158834550645366,547.4582318542631 35.053892916685896,556.0617863001985 29.70908920986962,572.9682018553978 29.10882881064821,582.4571183924104 28.892535230186393,594.6748588540027 37.02422080150677,595.0916685025104 41.652770230226174,595.5925876371367 54.82467134666833,600.0000293826125 60.992983787274056,602.8806452909794 72.59212101333098,607.7515271806927 78.13017778572934,611.6607057226088 81.47135062600191,612.6879080405997 97.93647221657957,615.2570865318219 101.76575726107063,620.6528689719439 103.89494654024631,623.1885744701784 106.7999121480259,623.8762187769457 112.5583440013888,621.1634590304652 115.33595983404022,620.938678345356 122.02418673794854,621.734846053694 132.8686291325375,623.9515551815878 136.8379892392595,624.5097536330968 142.24909179768176,623.4401691143735 144.7969927279639,623.919631401822 146.1724922237982,625.6961830418344 145.85338063196374,628.0175126777399 144.8273353582168,630.6090483084845 145.0755027048699,632.7878322788893 147.08921207154486,634.7093412439704 151.05547674787584,636.0174404869169 157.41783028970002,636.5968578695208 163.09334978817557,638.7765402635464 169.32138253160616,642.4865047443183 172.09753603243482,642.6321437605809 173.93411388289718,642.0264989570221 178.04301050655474,637.6661840460058 180.4664405752973,637.1550058439043 184.86396488656356,637.6224801296022 188.58080676982823,637.024679715066 193.50656217177732,635.6037679320132 200.50745252696296,635.0195927690772 204.038553800983,636.333674001584 206.86427560397703,638.7991691541542 208.48573909623525,641.5970378480833 209.77811993359822,651.707372478958 211.46824936292003,652.8715375054469 214.80777121107624,653.8445388780176 229.49965531917775,652.8732520367464 230.74278620980976,653.75666451904 233.52364903312338,662.8719607189748 236.681524193897,669.9002970448657 241.3209799628039,674.9716263944628 246.89051837703843,676.2238448222954 251.90548011795744,672.5495421309956 258.54092983639686,661.7463265167944 264.4889104442845,653.3521613887542 266.7524044255169,652.8899746547961 269.6491866051651,653.169207006488 280.7375104317974,656.6679638370995 287.3261443535441,662.7083895773384 290.52915838083226,663.7443003989634 297.0754479754946,664.8741312465246 299.9738958860764,664.754400819304 302.0510594922294,663.1954595126573 305.5358047491993,658.033884333948 307.3064100503343,656.4653579205437 308.81869201182144,656.4098837442388 314.07817516328356,661.2178052014895 317.18390182235834,661.4444954685957 320.2594582729986,659.4710547872072 323.7989955162368,655.3941850101828 326.13212669889595,652.2021366705155 327.21781191531085,649.1893279878186 327.6671376395943,646.2047516048774 326.6153589618308,643.0610670892545 324.981697474222,640.5285786847633 324.55221668996114,638.3380935205396 324.94000031834673,635.9555613588452 326.83635272273636,634.4599243804807 328.9752156116724,634.8779987183216 338.27392564815085,638.2176286112608 349.72331734685235,640.9489180130058 354.52975080993224,644.3827032078063 358.415954646691,649.3883781576908 361.7843235451699,656.5111963741504 363.4611368449087,660.6804178363732 371.8573628782591,670.7635386795415 373.0291566954371,674.3174076869004 372.57883397930266,677.6617156489681 367.7850985909835,686.5832509819313 365.6748022868024,691.5469601179939 365.595879849085,694.061724766161 366.40311177698123,696.5909418155163 368.5347614512513,699.7496626689101 372.3518854246408,704.1414766082788 375.61920940132467,706.7522749659603 377.4494212210636,709.9516504852196 380.3887721876179,717.6944682227938 383.34981562279677,727.2804071092784 378.822564078151,728.8196177794538 380.1867999645769,734.7581595912218 358.6797382783806,740.6508918482691 360.686271918479,747.6988675055895 372.2727071611338,749.8582767982616 367.68255281232047,754.3722473738563 368.57636324490727,771.1026014330482 382.7637412747504,783.710701829241 386.1400323407748,784.2221924786129 398.5549601655487,785.6504667285393 407.4557516555562,786.9290427568363 411.7820786430936,789.11391328648 413.3309384846535,793.3660474012681 413.12793382979487,799.6668576828323 412.50608375651836,803.4817948784107 403.11042189800133,817.793686906745 397.2356142361925,828.2201221697095 393.0220484797226,836.7174486338915 392.6274803220207,845.9870740584872 394.2452923276753,850.4235537578212 399.8514489072571,856.6450564362149 407.20475872212506,862.2788629437663 412.1332191179485,865.6955032702588 418.6465100418203,869.2069650537461 425.69695705424067,870.2776857527634 434.6342368244475,870.5742180720164 446.1857651366147,869.173265696902 451.3664893446511,869.1077048761878 454.25840375312623,871.2982015760779 459.73028825312537,876.4754916544814 463.40040165330987,878.7494675669761 469.38389272914935,879.874228670043 475.8900896067008,879.651157646123 495.5268105628799,877.5596493700318 513.6419714752568,867.8975077468672 533.7569602251177,852.4609695986105 558.7785879206214,819.654281764203 567.6387359741846,815.4666793181195 577.7196909703277,825.3327722535374 584.395421544664,828.2395884211535 591.0187279893597,824.8418661744699 597.1950118920619,818.4647833537531 602.3961385382448,818.215975967058 607.1119107083446,823.2856015021123 610.9386001632447,826.7129490698746 616.1594034332776,832.7264298196759 623.3939054299692,835.071016136844 633.7668800702546,831.5807113205898 640.185568794963,824.071630410329 644.6101258043718,812.8592981934149 645.9907734373805,797.4332012085059 652.6608395555222,792.6543583770447 670.3581992786111,793.5761038837661 710.0725486612158,793.3324287811411 732.509542993449,802.4395917361439 746.7185086960419,812.8727771016586 755.297000698044,819.6489441860756 764.6402831145683,830.6511111809697 766.1754570183473,841.6463944173322 763.7803115639382,858.5451023861655 753.1025129345953,891.3647832684328 749.7898466859544,904.0674278580482 720.1027637643194,1024.0" /><circle cx="733.6064159672495" cy="701.0869619290304" fill="rgb(100%,100%,100%)" r="16" stroke="grey" stroke-width="8" /></svg>