<?xml version="1.0" encoding="utf-8" ?>
<svg baseProfile="full" height="1024" version="1.1" width="1024" xmlns="http://www.w3.org/2000/svg" xmlns:ev="http://www.w3.org/2001/xml-events" xmlns:xlink="http://www.w3.org/1999/xlink"><defs /><polygon fill="black" points="595.4268948755563,283.8182948146293 579.4716406302441,259.5748781381085 576.7802100400694,254.20361673718764 577.3380930537319,251.72000501247453 581.5164379123768,247.76170073082528 581.8370810612942,243.80924023212924 579.6032577262968,237.86120928965317 575.854571961772,233.9987404915256 574.0296747211141,229.45708205638368 576.0877167271565,216.86213203271723 573.9910444087574,212.44700159760635 569.4416359661692,209.6987682796606 567.6667526483182,205.06769485986626 571.83441543194,190.9872407893224 574.5405382359287,181.0221002851847 575.7350840806932,174.1571675333522 575.5020341712745,163.63253457249573 573.0943157565744,146.0432942496517 572.2980896938236,125.26933445926181 574.5319477560795,115.74137365825425 577.3591811364429,104.97751311640536 583.1635996025586,90.74913280819942 586.3802177257998,72.46573404683545 590.2188529799945,66.56532534412156 598.7698782243375,60.6684990640922 606.0372602216006,56.99603831210197 610.9542788907465,52.99901579761638 613.3858397290159,48.47141903221018 615.0207371161845,47.40101581960903 619.440299474893,46.15777167757631 621.7411087177533,46.1741041833111 623.7955025035155,48.312952716285395 620.9580073863308,61.30747341308586 629.2172090189578,83.145032172313 640.0966805990565,78.8778272832858 629.0038862419524,48.18372664414528 629.5149595983986,44.2769189104489 631.4944478600236,42.75103806612094 638.2799068887612,40.824974112503014 635.0487462446147,26.514070879719725 633.3763210029143,22.84800460890233 630.2833869189419,20.664400493305948 629.1870949206315,17.66006293718442 628.8467361868966,14.817338742093739 627.35205954577,11.772376026519737 623.7554576716514,7.565259755225043 615.0880429749249,7.555093883234463 613.4215967981576,6.729432954965432 609.8163411337921,6.126077429683164 607.1862857246267,4.100446233146727 602.3123409417342,2.6618572227506547 601.2595065060241,1.5443001736664428 598.7216490961952,1.3231771097263163 597.1045903593061,0.0 596.5221409740426,1.2139645519740725 590.6500643696558,1.5350319756551016 589.3171713800905,2.4392024925646183 588.2742935264594,5.362016498174739 586.8941475477616,7.330003563202922 582.7803535032712,8.484184209754744 580.9815942105515,9.487689853905408 580.4807682729463,12.121395862654936 578.7895798482026,14.283911882447342 576.601102136579,15.584180939505927 571.5980416306985,15.695582436496352 569.119642086844,14.966428429984376 563.9918299321976,12.647108741531724 554.3406537634718,13.714078651284694 551.4446192410536,15.227338545805537 543.750563238041,15.564348376614248 541.2354830324625,16.39382198245437 532.4755476694288,21.987129391394433 526.3364028145083,24.136283415240996 519.9652240461506,24.98874227465069 517.5336840591704,26.391884788906964 515.6516851883823,31.170454325088485 511.7153394578659,44.08864915940558 505.40996711390403,49.53844176493578 505.55252533300273,60.08835296936411 505.13802970199436,61.15988210556884 501.4683513906953,62.82794452608778 494.85426001769935,62.003876830649006 485.5865711804302,61.76149515807265 483.24024601345246,62.00979000407267 475.34587759879685,61.74777573336917 472.0123585039885,61.96562510618003 467.93361505774254,65.0611140964271 463.34343841814865,66.56723310159919 458.4323302570043,66.341140908498 446.09156765946153,67.16103227006067 438.724604454651,63.813230540729364 427.6563821391644,65.61695206799334 423.0568734135641,65.19268437802111 419.16835515829194,66.20505843821809 416.3131634628698,68.98476466255022 413.6675462630611,70.54821903185393 408.6671868298564,69.9424198286373 404.10004992196224,71.11676018033666 399.0739762451014,71.2756780568476 394.6695679395856,72.44618563460335 385.2169314935289,76.28853114938295 380.10270744439873,77.6501178985593 376.2711686296014,76.95987305848598 374.00485413253296,75.55277860604622 370.24194336125396,70.49877132379481 367.9854689991757,69.10091742988686 366.5634074929571,69.227938840472 359.11560632764133,71.50793929107749 355.55319343824107,72.05301133567764 352.8395049038354,75.9806921267749 350.4099275536418,77.76633609157113 337.5732705250597,84.20131300988294 327.69972337822,87.5679192855705 322.9598349571568,88.3324544994997 320.9708738908521,91.96758870796816 321.1171647538161,99.8068931113769 321.9864630426362,103.27950701730379 323.4146044315588,120.28404459311707 322.8134540639639,126.30118348822077 321.29201228248513,129.9091789157943 320.63347516012055,133.40240620157283 320.59296793249575,139.9870248982536 319.6955059734782,147.0651518498629 321.088281450463,163.314180249405 318.4898324373304,167.71037075629306 315.69353819338147,169.71179805889233 312.8958080676608,173.31607939256207 299.31163504659867,192.4142617047885 291.31435446433494,207.34067545096104 288.7911277582952,214.41530652471022 285.31239886541425,218.84868242616233 283.6229268011454,221.865843668504 281.77220308180466,228.4015666989876 281.28824339292015,237.81109110010698 282.1741767522409,243.92993173184925 280.741071182322,249.92112969665743 279.24824306271773,252.00044416629316 277.0516465930843,252.40827513641705 270.867084076775,250.0883918995338 265.4817736381079,251.32968524396415 263.21392207075183,251.17089734886724 259.1405421126694,249.8881130534943 256.6618612621808,249.93189697567857 254.89525248246912,253.33985875055873 256.22330941394233,256.3248445155699 264.4913440649834,264.506255274752 266.27345164512553,266.02857990477594 266.6226758557197,267.85570842015 262.55138245261577,273.69681654090334 264.43840543017217,281.6540598216677 263.20911447709864,288.35263342377414 260.7095468615157,294.2172000584445 259.3668714784481,295.0580466138215 255.53283442064617,295.3543447418044 250.99843137463506,298.7531447934721 248.53984399128356,299.46405109407794 242.52779029560574,298.94131326207275 238.18848507385005,297.1930695341953 234.83435990509903,297.4703263818051 228.8211669664974,301.0425348837373 228.3407039975075,302.16735701431776 232.6853248834584,304.2644229873573 236.90741223562122,306.9229510771246 237.83377852174493,310.873758045944 236.6699730989449,317.3741246459841 235.92012303496503,319.5006106477598 232.2761186553658,317.8184927481175 227.73467788296816,317.977045286858 220.06915553986343,322.40524885782406 220.9370882189799,323.6169460274697 219.5327687337447,328.07740574553804 221.45332496972767,330.5072519275818 220.06308262677663,332.8042387563887 220.3289152531493,336.4295264365777 222.36385277765004,338.3292538931556 226.52278303802535,338.39766374466194 228.73960797506788,337.24216560782077 230.35124320061092,338.27161343429 233.51024587530196,343.1538674511928 237.50597560972147,345.5981216117475 241.65961656287766,345.91457852566555 246.3182007986414,344.7667258471985 251.2135334661865,341.91819729539577 254.609768024508,342.1982693214601 257.96611588374384,344.22313399863015 261.17908696438604,347.9963788901206 265.8018723549348,352.32336088517525 269.0341831512739,357.1033956268683 268.927968730494,358.02367752712485 261.7995862011432,364.05469863325743 257.56142707665845,368.3091932075346 257.5506451298712,371.18327341785664 256.8252670720208,372.94199635231803 251.427384933931,374.58262690686934 246.40967860046257,377.573714118107 241.48630120304708,381.86964594964104 237.63597694900645,383.24315089362096 235.04460456926995,383.5375668980944 230.27462905947175,383.14129779410746 223.7221603535846,383.11304760151324 221.21787834322123,383.6953037431307 216.2868511093089,385.86475969228513 212.24520485163583,388.0685701900487 206.2634444436698,393.9869808322293 202.47167069732748,397.1148170426768 196.03639662746107,397.43208885657793 193.18175149645273,395.46407494208324 188.44983058459772,389.34573697491305 183.5335522086781,384.4575313986369 179.82021365418763,382.3941104981484 176.34533374573732,382.41116780017944 173.5879907274705,383.18447749368636 168.384417834581,388.11878600717364 165.81157067136078,389.5679125456179 161.552551525464,390.4254235434697 157.09665825314767,389.1908409726826 153.2583797682314,386.9875691351899 146.63466750411033,385.0688607995098 142.51355520542828,384.30640294793454 140.68589128723067,382.4998281014447 139.15305165734566,371.5900941651553 137.8447759356731,367.1119102958172 135.88089077142652,366.3156237610807 131.42573608534366,367.6424205280514 124.85265289592938,367.45725049956764 115.62711672545399,368.88854418490996 107.37856852092106,373.9845310018118 102.41619529993888,374.9193134988792 98.15086143680307,374.6855847607992 96.1904409394069,371.4641581705142 93.18689279551683,370.15370513568337 88.60766111123536,370.0638949813083 83.03799361682127,369.35074065726315 81.58768751518015,370.0605509931304 82.60715874066986,374.6434687444108 81.47709590386668,387.09132078271966 76.841421097613,388.0595037261346 71.05118873817821,391.80822113416764 67.90606186643892,396.77479389691655 65.91266002381481,402.2626087368766 62.10569786841581,405.4528542288351 57.057033616584384,406.2364252325457 54.04023470486539,406.170974018017 47.888060469084415,404.9337740087785 42.60008954363122,403.3552692717616 39.779864265500706,408.3655163615342 38.44651540026609,409.46286995475793 38.41996183126571,413.2462080189208 37.323629378244135,418.0628126106641 39.186690833356984,422.3869453836385 41.54497222843658,430.588901121385 45.89022426194345,433.3300203037545 47.72453338813817,435.67998297185875 48.960727401026375,441.17222000691936 48.16207164504546,446.6959898332067 47.12343874899161,447.70972544987785 44.498205435507906,447.2487841854237 42.48189402892376,445.74019654124027 39.75699325681592,446.2092512631583 37.17385861868666,450.7401279697684 33.13324539927882,452.85581929723924 31.238733967936057,452.7329903364831 28.904345926093377,450.47011234099784 25.217977537298818,448.76507716574224 22.09330129739566,445.55492581007593 19.100109922180934,447.96385937948367 17.36041382104051,451.5139884150507 17.36212927135092,457.4256829680712 13.555762270177151,469.6338407359068 11.449656570487052,474.8473359484509 11.462101055982693,476.4453109044192 13.446712554238783,490.8722004815536 14.043765891547944,493.2718940827299 15.038941346251207,500.6916916631173 14.839139214335354,502.4934135014773 17.239582201455782,510.1036477539523 18.42992539606816,515.3132569660506 21.435829508357244,522.9366026785083 24.22312163221643,531.7534926792407 24.825102937139473,538.7624329254352 24.217131754334776,541.3712437286274 23.82043345516553,548.7749501883795 19.81730799133596,561.1918377534162 17.817980008098125,565.400073403918 11.016687618518707,570.5966783164017 9.413289081080057,573.2000902396657 7.412372073329215,578.8088728104835 5.810945087316473,587.4240605765821 5.21421751861679,592.4248460120812 5.409015285675273,594.6233439429591 4.602406185438853,597.0252109938497 4.201843694539919,602.8340714014298 2.9983995089226436,606.2434173350198 0.0,611.0575596561941 2.6167939101552387,612.7030968961456 4.2141950846907195,615.5026307361472 6.506942439637004,618.1623835819544 7.1268893468533685,619.9857401523686 7.348597601555753,625.6069797226739 8.839408047756194,626.5977228488623 12.293877852843453,622.8861713000956 17.598828132947776,625.3330677069425 21.47971303291295,631.4943659741014 29.265741519851126,633.8660224027506 32.58312928340638,633.508795340986 34.62029610186077,632.5081834188812 37.27576932101683,633.2110951720418 41.6445742340388,636.7922057512371 44.72106132196087,636.7774350785191 49.22660025354016,634.8905303170287 57.54481467533554,630.0341013408495 61.2220777937892,628.3889788800814 61.25066906580065,624.7244177856467 66.42859773656251,620.5449224835878 71.20387034699938,615.5400670920865 72.53202170989582,615.2200852783901 79.25672141062293,610.3453921125555 85.89156096226344,607.0538600669498 88.09355389553126,607.5810584990736 91.78493806740288,611.0481280345823 95.24969466555747,610.9956362700512 103.2286484067436,613.1662498142562 108.67559324760326,616.0147428533144 112.35006800823183,616.9288542419167 119.27788383748845,620.685983986956 121.38531469932074,622.3449101304045 122.64740861347623,627.0396514696677 125.46932902303524,627.1354110599033 130.55481355739616,624.4636030043422 131.17833796371622,621.0906750758966 132.726227524417,617.1227877833051 133.8446889833245,609.9991778129954 135.97811636352762,608.7549708516623 137.11749342540654,603.6333285625938 139.02443457112778,601.6619873471207 141.50289035404583,601.5425360993694 146.30053385632928,600.2453570931937 155.7490128311584,603.8673473858921 165.6251859240756,606.0104379957506 171.4866280503225,605.2050735079289 174.083728996596,606.0139825857337 173.82290540095295,612.0831163886479 176.03446792987782,612.5176472101293 176.15433689401544,617.3498072208322 180.86326927187184,617.4929947507937 182.01326855959704,622.6199485984814 189.25364505762508,623.8620691249077 190.91128227591204,623.6645690496082 193.91388903006612,630.9727859042041 194.7147703684436,634.7846383174351 194.71567800236178,639.7907380033373 193.71248798446572,642.4006942542773 187.091461140456,650.2295368071327 184.06996173817043,653.0426180009645 180.86408723838974,655.2588907941652 176.05278682463768,655.8679304676707 173.84420492719428,655.0719127581668 172.0474608527761,656.9140166824525 171.83971904012472,659.2811611558245 173.59202669719878,663.5788142872857 173.1571164752516,669.0344259537288 173.29041746030416,675.3432374484058 174.10950455349095,677.1534280937674 179.04991726632716,681.1897503062883 187.19122846154184,688.8718603640743 189.86035607533822,690.792118066274 194.756622374386,692.6546790061866 197.50705544145774,693.2508958172687 198.2744279917249,692.4971307933363 197.27766471167473,688.0845076734045 204.01439344806002,688.2837160288123 205.59181971029756,687.4858616110782 209.70758965672988,687.4679484978604 216.4908848388278,690.4402182032356 218.73185321233564,692.4661617095073 220.41587514884424,695.5541452327045 223.70475945715293,696.4109431555939 227.1170402300845,699.0785565384845 230.39048887003827,700.2059329196911 233.75738694816755,700.1784542628212 236.84584335651894,701.3191707946709 238.26792079249216,705.2125959480381 241.1720591146739,705.7644467301968 243.53102333894515,705.012646468679 247.92918369159815,701.6401324650606 249.52156754238104,699.9087829767558 258.4508524973409,708.6942530478678 259.02591187304847,710.4484848026765 256.8284842777065,713.4230877543944 257.0165284691653,715.3743275623376 263.1032127729645,718.7971534724786 266.43430155958885,719.0298569594864 271.0873508733565,716.7330874449817 276.6408592775526,716.024661436494 277.46979711094616,714.1454819754831 280.5318289851532,711.3252085823893 281.26501234936234,708.6663754126328 283.3653806066286,706.6546846560175 284.9137292846232,704.2319322805163 290.5544195238119,693.4495566598214 293.6933634848067,691.6093606169361 294.6715645931437,688.3157010278962 294.0847193226132,685.9010813947316 294.26575104161344,681.6797041872132 295.56435468196486,675.0944667519921 298.4658385910653,673.7506029374438 304.87267848756665,674.5068691387953 306.84609890871997,671.2457185004828 309.20303891281355,668.7484174111949 313.7224254663333,665.591207220447 318.3872052001755,665.3162543544581 323.6536719870926,666.0016572947758 332.984170398081,667.7845513533806 340.61792781700245,666.0611514496516 350.35872717796707,666.1310547323601 364.16733728191883,665.3515649321185 366.0936554948815,661.8896175779382 368.27754085293924,656.3589377391329 369.3442042700825,655.8080142330589 371.1140162424196,658.7594318521053 373.38474352683073,658.3760015704298 376.5276518831526,655.2818081675682 379.1705852079976,659.3679949299164 381.7635140484292,659.1789747201451 387.4827171548701,652.3981312785547 395.14788779212904,661.9976781718191 397.2758447437453,664.3113159181669 398.1214043563257,666.6792944802902 398.0525575365317,673.7434769935019 397.63408862624914,677.6190745448678 397.8722090746386,680.3601823786682 400.43616387767975,682.3851210615705 403.8293429348954,682.1589830823599 405.2114665373331,679.8274365734579 404.77597448469555,673.2234625166915 405.6535315945166,670.8318091378692 412.94048148812175,663.4571755609434 414.2305721666658,659.5950026702933 417.04005207044145,654.220698529457 420.2307900938464,650.5229161637003 427.2472020152713,644.6954908042492 424.95204594921273,642.7378169227724 426.4191645825067,641.1968362324271 426.887040023438,632.6455916275615 436.2923892283174,632.0285770845624 441.5809945306942,631.2731758823282 447.60043901913576,629.0700763536611 445.9670790574481,633.5990198810257 449.06199955997437,636.5214221631046 454.6457956404532,636.650611582792 455.9028709586811,632.8292182956536 458.4612976197235,632.517627806794 458.7643993159243,621.0758291206243 460.15908091529803,616.4622766372172 462.42189928842606,616.26647546709 468.87047771602823,617.117417699537 471.15111587403004,616.8004984501579 471.78912807063256,620.9627033980892 474.7920212308605,621.3225053418969 474.5019719343022,617.6640016875817 482.1514475732214,617.0373766795688 484.0425580845525,617.2387860185979 494.97535832167966,616.643924674905 493.2575911487011,626.3717785432733 477.6291009338676,627.142455590229 476.6207566142559,633.0616640440234 477.9358183875641,633.6355717511663 477.5211405632049,637.9702317307643 475.87351957317225,638.1644211439177 473.86524236427175,642.8719526950872 471.57366339834846,650.7920253625537 471.09816410676757,659.2261281115909 472.5949116471726,673.3127947426345 474.9863238669326,680.8994624054377 476.696877456965,688.7819129565185 486.18991825311156,685.0812443943373 484.6982375235059,692.4675604051112 484.6092110433511,694.6346541557416 486.4453623710718,701.583659778946 487.7686788574478,704.0222311500013 491.36794182440036,708.7802659010308 492.03481397807445,712.7566529562646 491.2490089426989,719.0293651073398 489.05838786505836,729.4317068468571 488.78101806042963,740.4688813300274 487.1103622288552,744.1935399349532 485.67986185726187,750.6416463842926 486.81600021742145,752.9662126758188 491.61579936660803,754.0119201217726 499.50731117593375,754.9431725976881 499.4190856638101,777.1774403175958 501.77753228801856,777.369927088049 502.37906424253083,780.137478103397 503.78545653500055,780.539829232474 503.76274790969524,790.9170113014944 506.45251028632737,792.2061465415795 506.13476627575704,802.2296964209861 509.28114410459943,802.2145436552617 517.4314410699661,803.5020874176323 530.3273488288755,804.0059006689146 531.6457950810752,807.0699714457871 531.2727670391104,809.8682477986196 531.6439696816951,813.3546594789914 531.9244810774976,818.3988499586249 533.5937778012476,820.9840700656441 533.7717441417747,828.0193485809228 539.0861715888275,829.2829072216817 540.0587922744073,832.4658967843857 539.5265498172469,834.5559760293779 538.1976511265666,834.9654661772955 538.4936623244228,839.277652062812 537.5765861171476,842.1598465017039 540.2013944702361,844.625348390638 534.8708635409554,851.4767876778031 528.6084825128639,856.1277984208302 533.1974935180514,861.0050905230162 538.8113686370677,866.1513669574929 543.7004599743852,860.7740932638796 544.3043529450832,860.6304018961179 545.6643646206669,864.1186227252516 548.6753189668681,866.3251556633361 553.9145243698625,867.801598938685 557.4317154908297,869.5858296901395 559.7347095804128,874.8017914745226 563.2554397854725,879.148317266665 563.0619310043414,880.699615098483 556.7216318153047,888.9850017163003 556.4252079430181,891.5137215431174 559.2927613589763,894.1865741968995 562.8363486504132,901.0367828075509 567.1078135010707,901.9000497182102 569.5450665497525,904.1504136934713 572.4117226257631,909.1453504999706 574.6855592087741,915.7516012132655 588.6442233923736,933.0377832517706 598.4658088601441,934.1320178028844 602.1630199819522,936.4448463003614 604.6347515471597,941.1076915162123 607.9279063826908,943.2989809128154 608.5221435294701,945.4784651099933 608.4144922387425,949.9976088814108 611.6875412797198,950.7502527144309 615.047774315632,950.304625809642 617.4763599441457,952.0220463759827 631.7319633877455,951.2446146072883 632.8505669502244,950.1231106981569 633.0074282272352,946.9709893180906 631.5956164998361,945.553720640255 631.6879305973235,944.1441287667142 639.521834708481,944.7139431828407 640.9193923143988,943.6271246645075 646.8269133245241,944.2190205134358 654.6551878057498,944.5262952706054 656.7958966944603,945.3329848874589 657.3129012734152,950.4417175064843 668.8721179821732,951.6492977495483 669.531279509231,957.5397834916216 673.6650017329653,958.0091677608937 678.3843469028528,956.1614712903131 679.756485117758,953.4939786600869 681.6763691279815,953.1689843753516 682.4608777734609,954.1264367817507 693.9563661185654,952.5050456620972 701.2425193433824,951.1198025443118 706.2414507154002,950.7124838555177 711.0302259821067,951.8684302826007 714.2003544655976,950.8193029208422 714.1757615728878,947.0771847817822 720.4250629712357,946.3681891143654 722.2230973802918,947.0299889325972 723.4381030391273,951.387866760527 725.8488554557109,955.7282042632808 726.1619804842397,957.6725705269674 730.1310464038561,959.4307492440395 731.5770223575425,961.7711439245969 731.3123450968528,964.0923457345657 732.7252731209986,968.053378941734 730.4215086009634,971.3682063752907 731.7656214429929,975.0601671230608 734.8875323194002,977.1506817763081 738.7397675184264,975.6906815323819 744.5961301014107,975.2405904275585 746.6116487664669,975.4644566824542 748.6912054582955,978.8173928567326 748.205391466489,980.0462365620425 750.2905935262588,991.0182084913025 754.0914381793614,991.2606617004776 756.5127089725656,992.0379043649361 757.0944228881751,996.1214178980017 782.0991982076282,978.3897094167537 793.1936723599191,969.8986801232927 798.9821302191282,964.5641151789307 801.3928909309755,963.6703605433729 805.2493885476597,963.2843344568321 807.2209337220748,962.0989693067822 809.6682053828138,957.2487721398171 814.1111520985368,955.1474925654227 814.5574544532443,954.4317315454389 813.1898097307443,951.2157549947492 813.2630904327118,949.5843276642693 817.9897219805528,947.7168257036469 825.2011484219155,949.2188231235331 826.4424792450402,949.8116256725756 828.2601279910147,952.4433306344154 828.737811714353,960.5011206697426 830.4260708685999,962.0390902344138 833.5792574674106,961.1563880510644 840.6124606987437,959.9942456634882 843.7696079645002,962.5624805697995 846.9198416771104,967.3141536835836 850.1903947372313,964.5247696027856 849.2588636734818,963.5725984840399 852.6973724082885,957.6085729906423 848.8972607095021,948.3459561372771 850.8421050862326,947.3818509491567 838.722245327624,923.5214126828411 845.609556379963,915.875694941444 847.0489998062541,914.9347732400075 850.1635461054298,914.6250836201912 855.3029514348241,914.9786513041335 857.1846111333944,913.191426496335 861.4266922759472,906.9496306162295 860.9387481858503,899.4701393510672 863.0943470408716,895.9264006006675 857.8320136545259,891.4944150713433 852.7196386564993,887.6827851493664 849.210292165969,883.287283158911 847.3407550840593,884.7212173049 841.3922742908051,887.3639674099386 838.6247999656915,880.4769395430742 836.2357259746917,875.9524259550371 835.3994531349265,875.4510581134417 825.7761331803063,881.4707270522867 823.9414759008678,878.5006290055132 813.4554393084511,857.553808900787 817.6471800025047,856.3549319725288 819.0102745000279,856.5316339100661 817.751611099165,850.6039759122749 821.9811141846994,849.7156669797048 820.4358745570461,846.759307532875 820.2350158104315,838.6665794792398 818.5651117884886,831.1133506899192 807.4449665177935,836.7323571808145 804.8887069665514,836.9961974429434 800.0012757605173,826.5586085354059 803.78112363546,824.1757752329495 807.3311946926075,821.256050977818 809.7722344380734,820.111102743434 813.6189675600579,816.7313165008018 820.4499163085584,812.1025302306789 824.8670290631208,806.0476420066392 828.6575983177142,802.5382214846788 833.6205260519168,796.5398066270025 834.4924478412656,794.7913020331923 838.1268458483404,796.9796388396476 843.7516677764751,796.4766095824964 849.6897486893108,794.5590785440606 855.5523082479893,790.846389395543 866.701959507852,779.5291511653159 869.63662453581,777.6567379331839 873.5310608440295,776.7238694555554 877.3305923639982,774.4988185409723 889.7613320820063,762.84510445238 894.4660730568191,759.852370619516 900.3613610296876,757.2205406176803 907.9226350927389,754.2137016802059 913.3458816788495,750.8698553986002 927.1481574231349,739.7189884208308 930.0341165552903,736.883494991728 941.2531522663842,728.1072768787368 953.0261068382827,717.0982223159276 956.1642010796876,711.4866472022788 959.454348681805,708.4791118313858 965.2038345779862,705.9869687268283 968.4385921727277,703.2320432691326 970.0255970824239,698.4651970527639 970.0760335144836,694.2412216160817 971.8255696285428,692.0677780262972 977.8043721524975,687.8841269061521 978.790729645812,686.362747817533 979.1555704111345,683.1443507810785 977.5946049454527,677.8817400295688 977.1110301881992,672.9314355787346 977.7824861060155,670.7879002688032 980.6942651907544,666.4371929834062 986.6575157036316,664.4106632227865 990.006588020715,662.9154516585496 992.6959949102616,659.8744658615391 993.5195910113088,655.8213454493034 997.4048303190053,649.1998689378181 1000.1619525003273,647.5203066291319 1006.5762217788034,645.5293764383352 1011.6675765368568,643.2232538270057 1012.9754783049881,641.5133188251631 1013.2787503106616,637.9975126475288 1012.463999246104,634.8830300772034 1008.7945769055734,629.5420577961519 1002.9607566133669,622.3684322382996 1001.184168555183,618.6190649367537 1000.8462169817964,615.6529866818162 1002.4288981129542,610.4998830917457 1006.7309206170728,599.7821034061249 1007.8064655454929,596.0055976537244 1007.2969562405272,589.0685926334293 1005.792900136396,582.9103489627869 1006.0161010410174,582.0830145389043 1004.9312942150406,578.4684027260969 1008.5248517773906,577.4675080698041 1008.3548151020242,576.5007863707842 1014.3724943207311,578.5773979165483 1016.412655547348,567.8253331352998 1019.6994291464657,566.8734155868442 1021.7293847617269,567.1968923631164 1024.0,550.4241384042346 1022.4391861582144,550.3576210007108 1015.6747082757136,547.5521872329939 996.5168067586371,524.7630183137226 993.41073617954,521.7866924629391 963.5768327404162,507.6537789331857 932.0523217488898,496.5090923513579 923.9072425158674,493.0557732628523 893.8979662798699,479.77811073689577 890.75888356579,478.03038804824985 878.7254011781188,463.5573064419433 868.4456985412047,457.6958813057985 849.2441868852331,450.8448050246186 837.3896546708827,438.86541376959906 835.332372640257,430.443687212196 831.1089002895686,424.9462695046177 820.5185809183487,422.63716855320786 813.9680603912357,423.42168070810123 807.1253824289261,420.7367209896704 800.4666952611176,415.1389662670806 782.0924636938428,402.8916590987153 763.4580891747624,391.8963470553997 761.6354448989343,390.5724272555759 761.1256829247175,388.96741064414323 761.6352413490538,385.9697084462474 765.4336099543851,380.69474090144854 766.1325611436478,378.7508782142178 767.5880058544299,370.16897944676737 769.3623996380019,368.69818381963375 773.0640664600614,368.6864107016189 775.0698657195684,372.90954687569035 778.2110868949375,372.13316946842497 780.017298836536,370.32156084170754 780.182910592139,367.9217147898621 778.7539585374619,363.4948937958063 779.2991277446356,357.43307387210655 780.1606797282778,356.31385386710156 791.3105185336555,356.49515599203926 792.997737018224,354.8861444298677 795.132915659122,350.3119854227889 798.4705594631029,348.871164892724 801.7717026168457,346.3829842346039 803.1749959053961,343.6235294489211 803.6057949587444,336.7763724525495 801.9474325487213,335.86075365264594 791.2620051346821,340.61852364703725 786.586922620841,340.08610566670586 773.146535109203,334.7921100628097 753.8958399886707,325.0082640856424 734.0421151635006,323.855309054558 727.0569395105119,323.6151777290421 722.4384228696526,324.06515026373665 711.1765814645893,324.06584803855503 703.7344842936382,323.5147369712631 699.5227853735124,322.57718871399675 695.1657528448071,317.6534442206779 695.117168690029,315.59963365694216 696.7941954929668,314.80188469291556 699.727850947078,316.14891337906704 706.1435098062728,316.096014092873 712.554979167818,319.3046135378879 744.4445008239946,316.25086650549736 748.6038803520426,316.6787903410843 756.3735735247668,319.7701662377076 761.892295768652,324.7825454135666 763.0070825824656,325.20407262705567 768.2426986197163,324.5170677349489 773.4738950001274,325.69450595973206 776.433014087588,324.6937134272375 777.5401889415874,322.33165864546106 779.029759198758,321.8457872484913 780.8255272493144,318.8281182958914 785.2837078668213,320.1741126624926 786.3040274078518,318.04376605146524 785.8098788627699,316.6690882251155 782.4125995623319,314.4390786672591 776.5373713498562,312.38043185672666 770.322479976316,310.64939040564343 769.0063991661939,307.00136300567783 767.8576467289083,306.4209501107073 759.7387395281189,306.97975918195243 755.9170570822148,305.72761356991475 755.1109673386435,304.9193881965582 752.5048064480139,297.3733343312131 750.6266099584722,296.1834199886147 748.370075163265,297.05603237550145 744.1622005477794,294.17689760388987 741.6375847896128,293.27063623631955 739.525501982162,293.8005877169817 739.4705960574056,295.307627857371 741.5804329538724,306.895014248188 731.752535116939,307.77166773123315 707.6202650142839,310.31595894235033 696.882944426705,312.0671077413118 695.1858753391836,311.5885194679803 694.3342128806644,306.69177982000235 691.2152397811874,304.8310538732027 683.0035225095232,302.7407400585987 679.7840205050762,302.68620709041 676.3325883098229,304.4822908978107 674.4645752429218,304.53647286041246 672.8188315648026,307.5660512206007 670.9930043322208,308.56670104948216 664.3260266652363,307.87394943708625 662.8012581540495,308.1888259071932 657.8182473459918,307.85546675282126 649.3895556513446,304.28005864891816 635.4708440485945,295.1067065253801 629.1888917173386,290.13603999261784 619.6612096318536,284.78871244840616 613.3988076599231,284.6813615698692 604.2919547163602,288.43515623871895 600.5236335993785,287.50309641513195 595.4268948755563,283.8182948146293" /><polygon fill="black" points="627.6246196018142,223.30389447429286 629.0963891929556,221.6267590065935 627.2528993835764,220.8915995165305 624.4770624437999,222.63857320907414 622.4674714851656,225.80195232822564 623.4411397465085,226.45747902280345 626.048522364626,223.0909446196472 627.6246196018142,223.30389447429286" /><polygon fill="black" points="780.2330021232686,373.6709549629678 781.2495864448924,373.00643550036455 779.9933371716637,371.82964643212404 780.2330021232686,373.6709549629678" /><circle cx="556.1783006609535" cy="458.92078334809275" fill="rgb(100%,100%,100%)" r="16" stroke="grey" stroke-width="8" /></svg>