<?xml version="1.0" encoding="utf-8" ?>
<svg baseProfile="full" height="1024" version="1.1" width="1024" xmlns="http://www.w3.org/2000/svg" xmlns:ev="http://www.w3.org/2001/xml-events" xmlns:xlink="http://www.w3.org/1999/xlink"><defs /><polygon fill="black" points="746.7208402694414,1.297608247824428 742.9337179311619,0.0 735.7005371260794,0.030103232677788583 733.3344240763331,1.5910830961120155 727.804010019397,4.311065166053595 722.2973232597149,6.650026062526308 721.2436782044375,12.125286416175868 717.1527391261332,14.50802809712468 716.1658291489208,14.176116750823212 704.2243669493255,14.744832717973168 700.2007333099798,14.835336167737296 698.4009157510259,13.62790139666322 697.501310517061,11.453148997905487 694.9519868118429,8.051671240506835 693.5205439997799,7.855925834423715 679.2625383047891,9.80077626668708 678.2428982383905,11.669253549355517 676.9621118217324,16.46473545598917 676.3389089467834,17.571574213718577 671.8982126779689,18.1659941185261 668.9966949659372,17.66813188621404 666.632610275391,15.980927930818211 665.6848296322183,13.342874658355868 664.438131523673,12.352205427516765 660.5557498652901,12.411808406703472 658.3092367433119,16.648239656943133 655.8298855234791,20.069710007873823 653.6902234101449,23.764300421900998 651.8427916102368,28.601960366116828 642.4251739968594,30.438239422101333 637.7388994763123,32.10426647265558 636.3296549398543,37.18412126216708 634.84975036174,38.46093708767103 610.5295720042639,40.0148269799048 608.6813180415317,38.77613360779492 607.6195768130609,36.03320757458596 606.5310935508946,34.939321864066756 601.8018725125415,35.097754874028055 600.6539288517341,37.25046166414165 600.4979102505016,43.272593208308194 600.6493065322437,53.06919138936303 599.4186997187936,55.764068548617274 597.2969337219563,57.319550654656496 590.8122022368873,59.01757116744409 590.3236439355722,59.92088079499479 591.5204184157462,62.328080289578224 590.9180802169326,66.0985573700159 590.7219189299018,70.59223104547902 589.2210289087109,73.26372737018448 587.0828946189183,76.21956598189558 588.1763790725405,78.52233870686132 590.0151348127823,78.84976001237544 594.467009182453,78.07319061446913 595.8737382299138,78.30159301955439 596.7949750867472,80.06881510629194 596.7938443719389,82.19960015018842 596.0832987225475,85.06787076823275 592.9762589232951,90.69313765439028 593.4594233752481,93.69440393565912 590.4951586405714,96.03382221418246 590.690558293057,97.62429224203629 592.8296013724554,98.60284498015187 594.7804339699679,100.57070531883551 600.4273259319257,104.55635980510999 603.9280745259568,105.52446912338041 607.4114126109183,105.49985224282875 608.269055985156,105.13518862241278 610.9833071065059,101.38808815332732 611.8808002707627,100.63196964704275 613.3397484352847,101.09635301926903 613.8089659378505,102.07740694371364 613.2773562240039,105.50294691212957 611.153391508021,109.1055048329689 607.4018449985506,111.05382435837555 605.8475976246293,112.46447365533288 604.3547410232088,112.9837710103842 603.7737891604246,114.48050281734538 603.6399919290208,117.21483530378089 604.9178485366846,119.20141572776583 605.8037030141037,122.75268527726644 605.7195052927957,124.36023107271069 602.7657335471591,126.5891237923255 598.9985947114075,127.96110272545775 597.414056117391,127.64872469812849 594.4140790888994,126.11271344814031 592.2794418628678,125.94548075226032 588.7705387736779,127.51889108824867 587.5787877181776,128.75956575545058 586.9680870265066,130.97505628348313 587.2921283555861,132.21879800301167 588.933322425854,134.13297307724065 591.0519802221363,135.8358791283265 590.6238362457074,137.55139455134054 585.2305881828426,139.08325585043974 583.6031849611791,139.88686322817648 582.3551093334913,141.55924548553162 580.357653279568,146.813090203603 579.0381587200038,148.88449217869208 578.2296011964274,145.68319449882563 577.2711477971393,143.72060942003714 577.297833021427,140.9926424115191 579.411762848566,136.54923978222791 578.8214223897918,134.5007319131031 575.4811570141886,132.85615458125744 573.4467758046827,132.4334987284093 570.505949354974,132.88832997152394 568.7746882214389,134.57165865339448 564.5711334758493,135.94674751462674 562.3878484322502,134.65083810083092 560.2159057227442,134.16361179951934 557.3479535239078,135.62268397343882 556.754811976337,140.28829223211585 555.597676059089,141.44825568435795 553.2427565721628,141.61504941781186 548.5332658699085,141.38341587247498 542.5093405862178,144.38843320552735 538.8375019669166,144.95519313286195 535.8742805559805,144.7196716645684 533.253426831506,144.06252519606244 528.747676193722,145.43196951347397 526.5521008801019,145.82826967314213 520.2021575105307,145.81494407680088 507.85368916906486,149.52527597098162 502.4518513803024,150.038312860185 497.97997190915504,149.89341926507484 496.4260997320565,150.6868281058106 495.73072072408155,153.0953999263852 497.52688446407547,157.34650599030704 497.10412719792515,158.6942106221552 495.90116732753677,159.4934753749892 490.12038189406417,160.58669677617218 481.74583222300714,160.9981482671941 479.2483948230715,162.3110472013301 477.3165779692133,166.02926408584028 474.9485509809717,166.95489628804387 473.5779533901761,168.00812579472768 469.27942644923036,168.30366126525723 466.3944124525828,169.25025996882607 462.51583993581477,168.7739433652423 459.0029040924309,167.7007012226287 457.23875548549273,168.747201031519 456.38504730793,171.2341273603439 454.48662860854904,171.4887345772031 451.84859890485774,169.45665563368686 450.89193898915175,169.2971772311472 445.5413530235278,169.78000344829923 439.9871748082708,170.0023611367842 435.27989455483004,171.05289855377418 432.55057460320904,172.56417815520592 429.7615358214381,170.7428963885253 425.6849355720097,172.31233025930533 412.73898042730815,170.0826290890734 409.9996184399153,170.60104363279208 406.9736253303313,172.18808227552734 405.8981974771409,172.30491204891848 402.51546612995844,171.21137223662902 399.61429214315285,171.6430652285428 397.2014772431494,174.63582710791604 394.4024628627093,174.84475940677112 393.1182194482426,172.79190516341203 392.4974752753287,168.3031434330652 391.7616727479289,166.35162635152994 388.6179664902538,165.1510988493303 381.6510781907101,166.1157461075644 375.33151811318305,167.53482186880842 362.80097852151044,168.73288517607205 361.0625422963687,169.29775499716402 353.8946960621203,169.45223198975862 348.9265906755195,169.90965940909666 345.4167535254287,170.48424252044913 340.1756513726641,170.69065697210397 328.9022835876771,172.73890354400294 323.3373581821321,174.0669452505466 314.4034591959405,174.42190420470968 309.9904736182528,175.9861141690435 305.07449024834705,175.36721807574327 303.13123558001195,176.7582596147845 302.5272136971678,179.95488074095795 301.6546947798705,181.11861355913845 299.9234350739762,181.1314879454792 298.6204221110704,178.79107438620656 297.9365887236953,172.52416241585627 297.00370655688687,169.10583815868483 296.25763468259,167.6567736735201 294.3632114393237,165.89004565203447 292.60447660285,165.18304609544361 290.66251879823693,165.2299947864534 284.62692794566044,167.6250895017739 282.4391640114779,167.6595221419841 277.63650150071857,165.1950097942298 273.9821229001056,164.70045977032044 271.5716651934474,163.79788048374803 269.78760353959257,161.74623450724027 267.5832939792966,161.7072124427109 266.3076410397568,163.9075214154542 264.8066560070839,164.81389976232686 263.34383217296863,164.07134596725928 262.1647618797229,160.82155395220082 260.9593743378939,155.27536624941342 259.5155847132831,153.08633872821497 255.32439076686327,152.23309610342142 254.25167540512476,150.30752774554458 255.0744601328653,146.0358796882333 254.5119629990017,143.96523124590465 253.58410164882864,142.6993681284747 248.9285440511498,141.31311079189595 246.75070818218506,139.7978104217582 246.18303108216077,138.14891030763715 246.80062840047452,133.8546987930996 245.86412028541864,132.07483160336653 244.56684090254788,131.34320079408872 241.45340788219517,130.76578095860066 237.34318510940403,130.5383101264547 235.50697567940637,129.6861292293936 233.7066987698863,127.57437679865973 233.897496599657,122.40177934391647 233.57618238044455,113.35560050131335 232.3785936545557,107.93102282214454 232.2390327922425,105.23234895829444 231.2773344538423,102.62444097349817 230.69798410786856,96.51589661923504 228.66367407724985,92.00929771634856 227.007098535857,87.51214285249262 224.2725445325855,82.41964103655766 221.2743087162383,80.94343185617583 214.07334657737536,78.09635353893304 210.44860219758422,77.77699912671937 207.7674062719693,76.57943793982315 205.15283382078132,72.92481998765174 203.3327873710343,69.34668042438386 202.81989009990997,66.91977944145287 202.97907418797837,62.1792726060072 204.42373709274403,57.42947217530275 204.236456635409,55.541188020008235 203.20802237050606,54.43552206126071 199.25507543195593,52.87687956283344 191.68601767849927,43.7456273314034 186.27718453059603,39.65080135994003 182.76952163621795,36.604407581115424 180.5276156273906,35.49827556332491 177.7806855054413,33.40128491551263 176.7593285658332,30.932623776765013 176.8173645669822,24.654192907488778 176.0023980065308,23.500875820579722 172.49812762882178,24.71911321231937 171.218816947492,24.398394966046794 169.58442880790454,20.496066714593326 168.51386034432414,19.021664029222848 167.12494712429208,18.339248755382755 163.35167616044575,19.111640109835548 158.25875833267645,18.956664319286347 153.4271055489383,20.161225495602366 138.87033724197298,21.882818543797043 136.3035181994675,22.06025980561799 132.321632552225,23.471959106631857 127.99639470838993,22.521774870515628 125.12652369040053,23.986218027927748 124.26592243242322,23.992038906748576 121.60968057747259,22.344918702570908 118.52230248306795,22.266486112331904 117.26190323217692,22.62190052293829 111.16819392637656,27.039488085934067 109.91013402233504,26.781010455152114 103.14794741703687,34.945171867221916 101.80772919931466,39.25285195390143 101.57627856491524,47.30495720937813 101.16005174517588,52.53296753897473 99.926196587221,58.094736766972915 95.77668792651407,68.5218847332676 94.76096284129568,72.07019059077106 94.49389752281145,76.23542082820904 95.83176584551491,84.16238591601791 96.02877803795909,88.50116110722001 96.63374763662175,95.68707974588733 96.71980468596556,110.63039090167638 95.646180381801,121.66065603724428 95.75587353590593,133.51327702725325 98.12101972273459,142.997942662284 99.74043705678476,159.21621522072905 100.21840852289179,171.97884504631554 99.13479671352802,178.22217302082572 95.3462475156827,184.99159674081307 87.30112546362831,191.75257880718016 82.71563570426419,194.5397545457589 85.94764808094675,201.9203249768857 86.79501513024081,207.50430498829598 87.80845185385925,209.55403124260943 91.13480667983333,213.18258015970935 95.38437557892006,216.24667611724522 97.34873970110135,218.17056910074973 99.59478824401775,221.31930336050937 101.50113463741769,225.54619936997483 102.68624359392805,232.86168681069046 102.47835409837977,235.6460490963699 102.15467048178546,247.87459120702067 102.64754397714486,252.81911442131423 104.55058455744866,256.7592354532578 106.85587190959573,258.0537686196558 110.70137888416983,258.93577970511035 114.03718160634972,260.8928064349793 117.38424693345989,263.45846388456596 120.5388978591473,267.24830937304125 124.67270158968417,275.73453649846147 125.23533552486647,277.7568630724031 127.25984512078713,282.307450611263 131.40004306462183,290.47452287386216 135.74841670618773,295.71381280698904 143.09563530996755,298.98755235613703 146.8687891765146,302.6584328172112 148.16362159494923,306.2706279469346 149.6914637353916,312.9456274263466 150.182793037413,317.92238254642905 152.32231188123976,324.8140024027415 152.8663527233932,327.7580632614504 153.86144402528458,330.88339260580904 153.79382762541272,340.02541580978607 153.15850114592385,346.0444687142931 152.6403221697601,348.81778105204205 151.62581622694202,351.4360404779683 149.03753716417484,356.15937888103247 147.41748068998342,358.5935351469111 145.64318330580878,362.2445161002157 144.81733412700635,369.37155483760455 144.24390302508564,379.7240091542126 143.37556750594482,389.9196498802021 143.7679026969893,392.7176288206881 144.92880806257682,395.23211650076667 148.8387272759363,399.9735334687223 154.73379890449166,405.25390312779257 158.2076403899034,408.7540654163356 160.43883700975383,411.8936189603279 162.32686240160382,416.9253390159171 163.39120406262992,423.4321857955001 164.12723714016204,430.763293623172 164.44296907988482,436.94828632115264 164.9251972818992,441.6056663047699 165.87325442365707,446.7555341824675 165.98049458317823,454.94061128138037 166.53351857542174,457.917200439854 166.60957990362846,461.01767314220945 167.3166869737322,463.6481924793334 167.41560816176323,465.85666657101115 169.21798062649316,473.3124591219391 171.73211971148513,478.19309439684616 172.8974248097537,481.00493125282367 174.65987177593124,490.1960725414875 175.1472070538941,495.46194739615726 175.699328693305,498.1301920422371 175.56426975540236,503.3848386348393 176.25741831724918,506.80470145741106 176.71529535527281,512.8407455316374 176.54516509303784,519.0493573283827 175.0458304244238,528.9117974460755 174.32258078209443,538.9612925922063 174.72402400606396,547.6356607572802 174.65769483691432,556.7856533020147 175.28020164813853,561.8997904703458 176.1002257911315,566.1250784742731 177.54817301020495,569.5720270410633 177.6912718452964,576.6813621195313 175.98648720764535,580.1526642393419 168.37905417512232,593.4908104426848 165.00659215509538,597.4782115402247 162.32750004769483,596.567173043916 160.12769165593576,594.6777126297029 145.51953536191203,577.8252296392566 143.14739341067212,575.9432744172464 139.6540944943142,574.7305116343427 136.58453561192815,574.612516762674 133.0195858643236,575.6158519783971 123.8879151471112,585.0415599098849 120.39891294417198,590.8326730995811 112.99229374544272,597.3958873472538 107.66960470614298,604.1809275824609 96.74468662072067,614.981762943082 89.14190442516801,621.5298572591684 84.22717059911449,623.3703353223555 77.7674037976058,622.7050977821725 76.03178202889156,621.9131915932066 71.64628005079553,624.577158830099 67.07468160923612,628.8169263805811 61.999044512293715,632.3090098082912 61.76333705163758,634.3896757683625 63.19658511552566,636.8717003652996 66.2305908774369,638.9614252773926 66.98427749064628,642.2015914848859 66.59499958560312,645.4395705722361 64.78217411053622,647.4829821505325 61.11110371499617,650.5061322427547 58.618344071301834,658.280881160311 57.29145869394766,664.6979933329033 54.79740179324707,669.0192788381989 52.74603231570186,673.7597995897128 50.276312823489555,677.9679134418251 48.2857473607066,679.4210813670063 46.14895658454917,683.4379161755993 46.05090280080836,686.4270701740384 47.977535994316895,689.8756538975574 47.23331192089414,694.1049193875664 45.53236858008459,696.7344105176537 38.36184208585308,700.0654871266347 31.059217001764164,702.6529056418289 28.27359268582696,702.6010306959503 25.04737253645305,705.4994419173117 21.50749821539574,706.3393744276252 17.135279874187827,709.010768404702 13.314756189577249,712.5064013267904 9.567289698654728,715.086573072989 6.198605167803676,715.9916812442257 4.690248008962912,721.4721743432187 0.605888211737011,727.180232644146 0.0,732.7100676626541 1.2987490515010272,737.9456685530307 13.792948883211901,741.8681455713006 16.439491200535535,743.1507457947373 17.29252485389624,745.5005031785082 19.201793965010157,749.2870297213615 20.91239657683401,759.7630246877634 23.488441058798283,767.1289269555272 22.029613968268333,770.8039509918558 20.09090334370996,774.7161131148094 17.277679613728495,776.2159202211287 16.63415488760553,778.4944715160623 18.999134836894864,779.9881044440558 18.86232933438073,782.032721622084 17.352969532574416,784.4411588460102 17.037464717191355,785.9659169080943 17.68171328307642,788.9391629690842 15.635349321409931,790.196351876443 11.221612289708725,791.8825683057318 7.631987572131313,795.3094699906379 6.24426027124622,798.7585777220766 5.780048200875459,802.4737495673953 6.449239700631693,804.4685318810973 10.590802834756651,805.8413026478793 11.261644881927916,808.230928640878 13.247632036935363,809.3767802073089 15.308159572911922,811.6976766500977 15.465966649783212,812.9770573488103 13.521056290806017,815.3962827053543 10.716446242611315,817.6074329088885 9.245764537535932,822.3720124297346 7.50200069997408,831.3042428510711 8.22237152065582,832.3669776609013 13.626474928686097,833.9065732033151 14.699020149799749,835.9331821799839 19.204967082067135,839.0919881966672 24.330277454588213,839.8337598851443 30.018745341640752,839.363538103134 35.067133349219176,839.4167451327069 36.08552808006186,839.0543421026266 37.97819461185227,835.8199682427569 39.06655493233845,835.6751945177483 45.49071306877934,836.8948975801261 46.316044544728555,837.6295206757076 47.34012950886089,841.32090156453 48.62973101952553,841.8180173772785 53.752643638286685,840.9959984941344 56.47920007830174,838.5070514267761 59.02898688274383,838.4216211425274 62.905797999939864,839.4802093562532 64.61584371090755,837.2482591749368 66.97406217801375,837.3322830910064 71.37658654191516,838.1029413397333 73.3825757511677,839.8976268910651 73.71608322065973,840.9124540524781 73.31012272749395,843.8364147179656 74.53552859846198,845.9980280953527 78.34769547701838,847.0443358442062 79.65939201095239,850.8625120772128 81.73816439533539,853.2236396852884 85.66117850802137,854.9614363289802 87.77378313680104,856.3387733944508 91.66696014881224,857.0158461655988 91.79317815392699,857.7185590545411 87.19844143618403,866.1879473552402 86.25816327905123,869.8755429475508 82.83023390449868,871.2188940381659 77.4074054760037,871.8521989456849 75.55266493781237,873.0404477850343 75.37160814626803,875.6900017573629 77.29922729058858,879.573580540069 74.8734953714719,888.0230960936377 75.11402183484294,891.9054244514407 76.23028196487711,894.773516264321 77.76692324209574,896.6217019932008 76.98271663437885,903.0380240388656 78.70352154814384,905.1248507323808 80.38877953833627,908.4171070068126 80.84670730723107,912.0762486717027 83.26489084014756,916.1526315955639 85.54362662606658,919.2718286850089 90.47997985216826,921.8609381849254 93.1554950740652,922.1884192889652 95.1731575193794,923.3962442536852 100.5990139872811,929.4203358779375 102.87618128023837,931.292655748522 103.8844960057283,931.4976397604983 112.38934404786582,931.0035781073335 116.08493149210521,930.4028674705182 117.68418712987518,929.3313249297789 120.76547583115992,929.0682177467041 125.07701166970405,929.8874502416935 129.746530181399,930.0235131843476 133.6038194619837,930.5260678786788 135.0874454828593,931.2506150983838 135.6606498825948,934.5439023209778 137.7968533691909,936.534992133264 141.5971413544008,935.9763243125548 143.1770020506097,936.4699926480695 144.37611203531736,938.4143400968655 146.2542580225102,939.1675672425167 147.60938031269004,938.8107311021863 148.84745392529646,937.2294767328449 152.7137915350765,933.5024947882071 156.20401817458338,932.9596335967611 158.73330145594332,934.0652120513379 161.2747430648688,934.1217525974398 165.88970959846068,934.9240238833115 169.6021545608337,936.6267222456225 175.70341675818852,942.6501975710529 180.0293492275134,948.7039142160294 181.7721065983507,950.1358664255196 182.82466184359325,950.1330627319609 184.15437105799546,948.5613800223985 186.9322882038499,946.8208739532346 193.0934853901365,944.494433982056 195.32626796661697,944.7505974366618 195.3807197098575,945.3464856754133 193.5013573362862,947.0409272085845 193.73454681397894,950.0710530446543 201.97954288780767,950.3207479388759 203.52013951147023,951.1404899002531 203.5103943040406,952.570818354515 201.04022248155,955.0552389685738 199.60753394791962,956.9956511807351 199.50712954459706,958.9787190854353 201.75978054710234,959.5136936345394 205.55623929035465,959.1783263786402 208.3346500137824,959.3007366675008 212.05129146224692,962.700985905755 213.66604442526747,963.5219687495821 217.24424564425829,962.5876173090508 222.86714538722003,959.4855491423492 225.0699604702867,957.7668534844561 225.65923556802258,956.5523044866661 224.20088626971503,954.3766924883349 221.4677877901548,953.4737757638648 217.12431104177932,953.0263120972255 216.21013568651776,951.8067478678594 215.62436519068794,949.5329779429131 215.46304816523104,946.609628042964 216.4370857666821,939.0147128818492 217.1738171604254,938.216536526809 221.25673277923806,938.0293303555381 223.13815800930138,938.6089032828289 224.0368200995748,940.3230265736373 224.55029160109493,943.3878087360978 226.522370762367,944.9343367128113 230.45410492898267,945.8151260494391 232.64797427395595,945.989109116604 234.40022943186165,947.4072896473198 236.24481612656646,947.7913992320473 239.73369812560836,947.1931538362398 246.74603021577033,945.55904489003 257.2263616554715,945.0132278600248 258.90718364730077,944.3721171828577 262.13042077206126,938.4417444708031 263.62028771825663,933.202942886446 265.0735381889382,931.4572220186064 267.7535199112818,930.5171842579006 269.1318149335458,928.9485988284596 276.462758182897,925.8562693921739 277.9686836734713,924.041087406055 278.3632305394555,921.6223882663943 280.894777424599,920.306442800644 283.2140592365216,916.1095864157046 284.6670942740868,915.2615156799432 288.97850492441927,915.7071686798607 294.4112805369384,914.5065295013792 301.3016517328049,913.6069154813598 302.54937025467746,913.2067528721248 304.534250089101,910.280230958176 304.87728417679267,908.4852540171684 304.12535581922094,903.4641962603515 304.09952787206095,901.5925070034265 304.97598516325314,900.4747070094601 307.73089026086103,900.8740588151434 309.84610325279954,902.1951991632538 311.7390541345614,904.5616567967561 313.6740324575274,903.8569685398259 314.2083639154031,900.0804869137577 318.0770328008519,899.387620609038 319.1360351206442,900.0332958823483 320.2395509169743,902.7754092848759 321.2327391984473,902.9467187401323 322.3516333162144,899.0910974945367 323.36933414099417,896.8048013192284 328.80694657825217,895.284376998383 330.8835825213789,895.4635275732468 332.41275589965284,894.9950542849314 334.4726701886913,896.2744471021394 336.1670628873269,896.6335423994965 338.5039096678344,895.121644572773 340.87913528079446,894.2458442288014 343.64464820922774,895.591374012553 348.4213122255654,898.972433649886 348.7727492813413,901.109281215077 345.24074041653097,903.6282956719926 345.22587357188945,904.4933452328282 347.18636764708737,906.2143738923744 347.12445517327563,908.3819798040461 347.8059972922362,911.8089330064402 348.56538014428475,912.1410534415909 352.72160494260385,910.5142187679354 354.55040154112424,908.4066579615624 357.70367321659575,906.3839709031378 358.95119827562166,903.1036698785108 360.8017879026232,902.0753609519668 366.2295255249416,905.0588553035617 368.1723594198198,905.327310884787 373.0006576874499,902.4271731575315 382.12958901093845,900.9792677245861 382.9797801944195,898.8764655596591 383.99085202763206,893.5153081204897 385.4072293536411,891.4924389780747 387.493390655679,890.7140007583522 391.0520490412776,887.9054849672456 392.8635004535421,888.7690999486556 393.5682066333379,893.24545157252 395.1128218637413,897.6738589235621 397.1579253949596,902.6245082277565 397.56543732175857,904.7892466999666 396.45228658237187,907.4554860717128 394.7463197479024,909.0922378399091 394.73802774878,911.961089626836 394.06064454822365,914.5941520542236 392.64040917365156,916.8414457948287 393.3347172580811,918.6324925260211 397.0036901380569,925.349379525656 399.54152587402274,929.4457473550577 404.45542529786576,937.9330875033628 406.46518407765564,943.5509086468348 407.9584919972806,946.672268805718 409.92397659062334,948.2792241475759 412.838065024,950.0563037548435 417.1021433962224,951.7560589914991 427.9806604425489,959.386070051503 432.4122563222461,963.8220960630176 435.6374565311917,980.9222975251357 438.2638561627411,987.1801360901493 441.1603776871201,989.1106455970673 445.8286774064036,989.375346881553 451.9077301424746,988.8901708090526 456.5537799216521,989.0082652835015 463.95939984850986,991.47601452018 467.68071441247986,991.7353166181899 472.36738772419943,990.8965514327341 476.1444586642929,989.2827828668902 478.914632473347,989.5125998124082 482.1545794988889,990.5126870536619 486.73659186939705,993.552100100684 490.4169517181076,995.3407987992534 493.9324465830917,997.6026112203464 497.64783171134485,998.9077550124348 502.9100424600883,999.508251242007 506.89707322224933,1000.6771086724991 512.8416788637116,1003.87087835471 518.06288748001,1001.0958104527476 521.8456298035848,998.1645639504375 524.7970372533842,994.7356384182036 526.4540394243073,994.5572701632761 528.7564308252804,996.0848250118491 529.9770255542925,998.9871978056995 532.9803895678724,1000.4747936036099 537.801633432203,999.9072824522734 542.1294027598233,998.9071088771869 549.3122158160262,998.3048348801207 553.0086457355965,999.1355646475477 554.6647696799515,1000.5306649573911 557.9133671833476,1006.1399902867895 558.8059690189202,1006.8737202167447 560.7406508769805,1006.8753608829662 562.2448528142904,1005.3260656365567 565.3713900570937,1005.3226507620727 566.1268572034118,1008.0117700584289 564.6380969532006,1010.548272347788 565.1977120914627,1015.0755918005589 569.0595286786299,1018.8830340364752 574.415160280873,1022.4874106292998 579.5084099241359,1024.0 582.1527504096533,1023.2909545345926 585.8052326265066,1020.7486432625725 588.9605853874317,1018.9661880493467 591.9741543244472,1016.2269332033428 595.313522726614,1012.762821643517 596.9632799198542,1009.4040310016252 598.1289750738049,1005.9969010709381 598.6491720090497,998.61818516259 597.4350163258947,994.8429654250814 596.0358477996278,993.9254980615885 595.6588059775295,992.8081342721235 593.6248490537647,990.8935236223981 592.335538908758,990.2644120206731 591.5841019388407,987.310470603975 591.5728458432764,984.5225569241893 590.306771386192,980.7788978381526 589.3345786963004,979.4139965958203 590.1987506495433,973.2683909579907 591.5220273526824,969.6880731572451 591.2901653334288,967.7807863637368 592.7122825720121,967.260180437496 593.6740420627928,965.7830892604825 595.324340689141,961.3968379768835 594.9386170375092,959.8467019953328 596.5301176631136,957.5793664647701 596.8196304625787,955.3424750933234 597.8899502399288,954.2267340194622 598.3207753286422,951.9921115622033 599.2461419167907,950.6793545708722 600.6533728430624,950.2395831760996 601.6836319510004,948.960948208196 604.5230035494166,947.9249411261312 606.1011244107292,946.9011299154263 607.536349003172,947.2323805557544 608.6383383587009,946.655178285066 608.1532053404068,945.1440324161383 609.7760552713504,942.8663008996796 609.8225135068529,939.9657515760783 610.623248355293,938.3021527592481 613.2850382968502,936.8549108355575 617.2148220084146,933.421615453633 616.3863486830774,931.7725067476829 617.5303851608663,929.6817511519874 619.7242817191466,929.7059960314605 620.3016237842357,929.0987288763384 621.1386282046155,926.1405071541872 621.9224892810096,925.5257189729962 624.8870849742759,926.1787105667211 624.2020112652757,924.3994275564595 627.0444628200454,923.4253980124308 628.8713032603891,918.7443260300652 628.5846366988782,916.179162487503 629.4734758438254,913.4786124160439 629.5164607677368,910.2183922159215 631.3936148347397,910.1158104171857 631.0270336183345,908.341619448631 631.4283822266945,906.9473922990189 633.0950879178921,906.111392277495 633.3740365529271,904.0906123086322 634.5645294115766,901.6003448087937 633.3156760818977,900.0067926287225 632.4062804711501,897.101839105414 632.2252984997499,895.0845489394626 632.7473995904239,892.7269499694835 633.7825617020084,890.8317757472918 633.4469004482318,889.6529368859884 631.6258545125323,887.7933867020892 634.784385051894,885.6751601446346 635.4408596906641,884.1741285231192 636.7026003620707,883.4019650948425 638.447261370578,880.7555607135305 638.6089808645421,878.908664021813 640.7705076251515,877.409919995719 642.762563464809,877.8228254573575 642.8470563896074,876.0341861568189 644.2367593028207,873.9796648539502 648.0909005357701,871.5424381555348 648.153571051892,869.7128936937221 649.7379828176493,867.6803585924314 651.8754494324811,866.6975797707456 660.0772324763761,867.8873466595502 662.0803992389716,868.5868739934035 673.8295365113514,874.8370585598806 679.547619639924,879.369522464594 683.4831677809666,884.2956445869333 685.3246552825574,885.8765833938066 691.745642454887,888.9596564798446 694.6777485966694,890.8063563184376 697.522837721911,894.49028269991 698.6054290521779,897.2732670671103 699.5841826600481,900.9604151716467 705.8787321541027,912.7610201951408 711.3027159638741,924.610041398695 715.4446983526472,930.0632872205205 717.1922863550697,938.2993434847788 718.9305925686072,942.3767204187571 720.8814473298933,944.9080792085803 722.943177107762,946.081107666581 727.461920964604,942.181958079628 732.6819873651709,941.23265236931 737.9401738406424,939.4104803175595 744.5307114540285,934.9887376817825 748.1390121668788,932.9137595729915 751.2828582445801,930.6909767112319 757.7296633927823,925.3689919364574 762.0150110581765,922.5768847124697 770.4923262133473,919.9922504240938 775.3770758381526,919.9426416100067 778.9361395486211,918.5586225871127 782.2518562553996,915.1835334035519 785.7007683615058,913.3651226436461 786.4862470980352,911.4330615031045 788.0470938919457,910.4375205271762 787.8906718201489,909.3671314133874 789.0699046960763,907.5032517816838 788.130354233002,906.5939717884871 788.0570533953115,904.9273072469877 787.1171883079406,904.0396479234993 787.3223271594333,902.3555973707893 789.6811616620955,900.8071169131288 791.0538474585646,899.3463402790039 791.3100192968731,898.1389350845176 788.8537227312166,893.7213370830519 786.7934183877006,892.9085228350309 786.3889680364539,891.9235736051512 787.9464496930092,889.5220042568731 787.7917854634071,887.3079265421198 789.4499989682312,885.8001427674108 789.7597484786826,884.3150624170919 786.4724449878076,883.2158603251628 786.368403461796,881.9488875755005 787.9084542235662,881.2747920329443 790.5911294835605,881.1291202495178 791.2611644459599,880.2876274269082 789.7838965664208,879.0511052630285 789.3154721130581,877.4081578071564 790.2010821009031,876.991749227394 792.9952313428904,877.0343134506329 793.1521906790373,876.0065508390335 791.432017843164,874.5202922714991 791.1824389058988,873.5295977287212 793.5209434736455,871.6752495894137 793.7361403790347,870.5050711408862 791.2895565000152,869.7377779637321 791.0057899971455,868.9304211773253 792.4245044056961,866.4969710100311 794.674530275207,864.9981698058572 796.3138310492159,861.0349935396263 794.6734988110305,858.1412809527881 795.2262603171363,856.8951253920113 797.18795765278,856.503182266838 795.561310474547,853.3014474705171 796.1537792379436,851.65572981277 796.085523198301,848.4777078055095 797.7223713611056,847.3210470412372 795.7425728927792,845.6659267207725 797.1867812861784,844.1981030264527 800.611996751502,843.2714136756682 801.5666352542842,841.1066491143661 800.5136168188852,838.9735568796825 803.0842417610756,837.0172070732127 803.0553758556583,834.4887024399196 804.5752585063315,830.2451692969396 805.917612250532,827.9429747462946 805.9911438266556,826.7922663165067 804.1722939235726,826.9512108447727 803.8366267011813,825.2805620660337 804.3328326537777,823.4684314612791 803.8439051508078,822.1442464642109 800.8008856240257,821.1111057644124 799.7577273529806,818.9267799351815 800.2798030228564,816.4472067570308 798.6751736873039,812.2589148274927 798.855918816943,811.2855857413881 800.8198043695005,810.1338892331273 801.049407108454,809.1910437887167 799.6710859216563,806.7853108096194 800.8619273428487,803.6778070520571 803.9802058066372,800.7753419420608 806.2545341073358,799.8446258734006 806.7123759381651,797.1585747337396 805.5804745387695,793.8832828521791 808.313817847866,792.9892632002247 811.2601350622582,788.3996195539665 811.9173556797414,786.7548495628629 812.1448486477993,782.1023248064811 810.8820889721878,779.7687049026615 808.9445198674185,778.0250832872117 808.8324789781517,777.2825358144308 810.5625470700568,774.8212748214014 812.62414715285,774.2982601836137 814.6340530543212,772.3035667991737 813.3757263252372,767.6095904539294 813.8031696870271,764.8500625958488 812.9309234023688,763.2334724730013 809.9021144321356,761.462485829894 810.3407700245724,760.6255502820608 814.7257268242427,759.7457146954101 815.2990104502638,759.3434222097183 816.002481095515,756.4150290082389 813.4236094208057,753.5098892389456 813.662505039317,752.3914253367279 816.9503504443824,748.5991244365505 819.1503682458865,748.097085389102 820.1242329617832,746.8491432605258 818.9729499168069,741.8999461573434 819.460451687624,740.2012160236973 821.6387820447968,739.0526154072429 820.8310514019033,734.8062090296366 818.9801820769161,733.8724084644505 816.195991620166,734.325029919039 814.978109961078,736.1451700752932 812.7368768663496,735.381148439687 811.6513359406254,731.7280309029895 811.6087855957705,730.248391663058 812.4073714774148,729.0275647099095 812.4188967669935,726.6429638814916 811.41704063334,722.7964351378075 812.1055405866551,721.2954444968323 817.2780182524592,721.4982590354502 818.3859843192138,721.0094302607943 818.6416977716326,719.3693780914573 817.4658650379148,718.2727373748892 815.4548678999685,717.709601775106 812.5530720275508,714.9942029179787 812.3609458982298,713.6231494345432 814.2544688860467,711.7321600236709 814.4008005580952,710.2121238241687 808.7487465994607,709.7261547260687 799.9370805054024,709.4893607052772 795.4471631817571,709.6669753411343 790.6887895547808,708.7831992586144 786.8433724876949,707.1210560185114 783.0294506495958,705.1619037369928 780.3044948594263,703.3734887977689 778.5163760067542,701.004553392691 778.2607495051883,698.380602821857 778.4830536302843,695.1366843838425 780.8020182463642,689.6239179364601 781.4830924806719,687.0062073987515 781.9220887404875,676.635545360449 780.3770293877088,670.7039496848712 779.0493337505947,667.2632187962818 775.67200980126,660.9979412414659 772.0838597203291,655.6324527328087 763.3581819388867,651.9831778867275 758.131366846517,650.6101470816834 750.3033999140545,647.9097403353965 746.6498235593215,645.8090813132858 739.4959696741173,640.9826534274606 735.3847160857262,637.6336176393365 732.8527693880516,634.6037779036974 730.1860741955005,629.5817461548256 728.8205944497139,622.4438549320676 728.7718960544644,618.0871242014528 730.0471019934093,611.152553618655 732.653322596893,605.6392957972034 732.7780115144371,601.7990009580901 729.3025924195816,597.8107593136019 724.8715352329934,594.9188669329876 722.6419268059911,592.080156908229 724.0704101365438,590.4070867829948 728.4924895022814,586.963625019333 730.7320607649784,584.5568697295203 732.7077781325264,579.9558325873124 731.7251779876933,575.584563615123 729.6864602047758,570.4208253602417 723.7879205983635,564.8534933829671 720.3207122766493,561.8223814274027 713.6532277880523,555.6100365157346 711.8627343384296,553.0863038985773 710.8563884679579,550.1232805656775 710.4543259810824,547.4779618309092 710.842869131557,538.9721141944424 709.9197850564022,531.8436441930035 708.2941606303891,528.6762141191671 699.8372257163719,520.4127905540886 696.4840043448588,518.1725957592437 693.874389250297,517.4961108831649 688.762276653811,516.880207554256 682.0925926206014,517.1859734720133 673.5924899797434,516.827149546633 669.7366167474427,515.6574603623696 666.8217250000317,514.1835639540941 664.3797002298929,512.4088833916537 661.3456455855606,509.55941342659094 659.5608368739091,506.73786952990497 657.1183982501357,499.2253017001044 655.466280789243,491.59278164482816 655.0630242897969,482.4604984347253 655.9137176449727,473.3292430741151 657.4540781508201,468.27301321149514 659.9102890009241,463.0663988257563 664.4860672587225,454.51619118378517 667.8350874652164,444.66746422110464 671.5800544051355,437.6452039796901 674.8963951638216,429.8265440395054 676.5185239242893,426.9157402510697 679.58144553391,422.64330408646674 681.3098996093912,421.7783434044055 685.5270538741488,420.80939139605664 690.202723644189,420.2883414404347 692.0415026090743,420.7986487841754 698.6364576243649,424.06346409994626 701.2572508748534,423.818081291962 703.1402034062156,423.0878809048828 704.428699859248,421.58040507684007 705.4209731265729,418.9785803359099 705.0668717748019,414.30330773173216 701.4862233109158,409.2609394756838 694.7044861343807,403.3866324747187 687.1388412948165,402.38306628531825 672.0010673778578,399.2421014819897 669.191808013871,393.74902735952094 669.4046504122043,388.66083452684074 666.6228227748487,376.2432791984045 665.3382377141653,367.78916717410675 662.5268902752865,356.83931194516515 662.1425895732708,342.88066145715186 669.6661976989459,327.24422444264314 670.9888508816524,326.10522930799937 673.7777055559038,325.4951457828274 676.2139247772943,326.0962248906378 683.2569055194168,330.8343118140325 686.9254859263468,332.328155224548 690.1004499953691,331.7834610123183 701.26589331767,327.990157794698 710.6478694781752,326.4558590756036 722.235558405158,323.3766165871117 723.882905267323,322.4884689615726 728.2544559300728,318.2386401998772 736.0737711019763,306.5336882421607 743.1335179517326,294.41919114065456 747.4749347386714,289.460125584176 753.4083280240258,287.5730468443701 764.6284988716201,284.79429086523066 776.7000904335164,279.0105456132767 780.6942249261998,276.776492016078 786.7931855363709,276.8812012069412 793.8995044713806,278.691157996141 793.717001087534,270.90648598552184 791.2140884915331,257.0537228299014 790.5957581157746,255.65981304459774 767.5200410841003,164.7868062230582 766.7559586452695,160.70552257201928 766.402232490283,150.77924013887616 765.7265387300107,141.00208330888404 765.2079927932667,136.81102343760324 763.4113011243636,128.54419480759657 760.2997830020508,123.04200337102202 758.8836464589086,118.21506210979703 758.710701191721,113.0883633964446 761.1450903040189,104.02464147137732 761.663357392374,100.16061363195399 761.8045459737084,95.3876040749675 755.5210528465043,54.17061584878502 752.487623934731,30.120141117856974 751.2466224230683,24.149327694872568 749.4167294295323,16.9714487397913 748.5263374317531,11.025006453139667 746.7208402694414,1.297608247824428" /><circle cx="257.8660375078414" cy="760.9047148089568" fill="rgb(100%,100%,100%)" r="16" stroke="grey" stroke-width="8" /></svg>