<?xml version="1.0" encoding="utf-8" ?>
<svg baseProfile="full" height="1024" version="1.1" width="1024" xmlns="http://www.w3.org/2000/svg" xmlns:ev="http://www.w3.org/2001/xml-events" xmlns:xlink="http://www.w3.org/1999/xlink"><defs /><polygon fill="black" points="661.1757261062378,6.857480026931739 659.1570653860897,6.55476325459847 653.2342688309128,3.8924995748669744 650.4634995786215,2.389880856651871 648.5379797354616,1.920833232934342 641.421329254818,0.8800374525453662 638.888083925533,0.0 638.5729202268249,0.7588043332655161 635.8888557028905,3.8868877068539405 635.0716680143548,6.387243365665427 635.2756917664027,8.100014214593443 636.8221670874037,11.136943665862646 636.6293998480695,12.684476485982486 637.0378159561617,16.086391916428965 636.366862966977,18.31595350152986 633.870085180854,20.31857811995087 631.6437497465068,22.76433526507742 629.9186991593166,23.53050475026771 629.8639321289963,24.658544640277 630.5984344058656,27.22704071717658 633.41417860122,33.43632135080304 632.2445744739446,34.64917007054987 629.7617741278411,36.37342651993197 627.1586249946096,37.804889482984095 625.6364353529416,40.28378688085695 624.9778660012582,42.371756684146135 622.9973415134775,45.52795012223066 623.1880198620279,47.508237120248964 622.6991832886832,49.04524134922474 619.1528735161571,52.41245222687155 617.7302761612845,55.87951186129487 616.8542098902005,59.78725211816743 616.0507658020155,62.009209389438865 613.8252002168192,64.31304281243092 612.4490611446596,66.50431097656292 606.8505509080591,73.77037057926941 603.9708288740127,76.0482628380961 605.0863409929916,79.25535139528552 606.4107086386667,82.0812238160637 607.7226975051406,83.40623532060863 615.2387546737652,85.6627980815399 618.8142155621935,88.31149339053889 619.5597455962537,90.00139494835992 619.7547307706004,92.4540708361377 618.4403899328563,95.4639113119689 615.4299548381956,97.53577947864903 613.7463863581463,98.10453249099123 612.0520735163001,97.91639559496355 605.4774830010183,94.70303686283398 602.0890389608362,94.31963668697779 599.4675608916846,94.69060248372523 596.4631295454126,95.44743216366714 594.3874778536651,95.44621933094186 588.1966166391458,94.30230276044426 583.5091967599083,93.16414057187183 579.7417354181349,92.78230606329646 576.7366191426286,92.78784021579486 570.1587292131786,93.15761714533835 567.156550715249,93.72094845038339 563.5783829643054,95.36924775333443 561.3969932499292,95.72635814318335 553.546479563723,99.69472264886508 549.6276422996426,101.51842122810808 544.2379218667321,103.34088672226869 542.0084417826174,104.94392935299447 541.0296974664759,107.92794126009869 541.0348130770984,109.94343528351766 540.4715571096258,112.36200156503548 539.7267479608345,113.87188280799933 537.4686232327093,116.12597150416639 534.4559061270365,117.45214814361049 534.0892394993589,118.96096965494485 534.6502338694802,121.39990137527207 535.9681440440636,123.09770073995924 538.7921618188107,126.11187059463248 542.367333097035,127.98814325882535 544.9986060626089,128.56111351996213 548.1980285881842,130.25232203404397 552.1429775983646,131.9529452272917 556.6485880884159,133.07798959716382 561.9164154498109,135.34126952061757 564.5532097573182,136.28588771766005 566.8023427586417,137.97739147176924 569.6299923082469,139.11719005802053 574.6969539870323,141.94815797722566 579.9597800637832,145.53221166863818 581.6405612416994,146.8502458711298 585.5947266610613,150.43636985502883 585.038020617366,153.2645089699741 583.5401333634377,158.53318208163472 582.9783294422056,159.2829106227623 582.5925870594117,161.55521490197634 582.589802900091,164.18656503500983 584.0935284024737,166.63793965091241 588.225685033809,169.0905394894043 589.9207274108636,170.9793657285329 591.2358257198252,173.80715783392998 591.23913423459,180.95636582292576 590.8613573751684,181.71530221551478 590.3030673396867,185.48222204949457 590.3020229421281,188.8703113685071 591.2443145475855,192.07231303393127 592.3661658873192,193.9608504767461 592.3760843293317,195.66141704561898 591.4372523291769,197.90916046221048 588.6192899327042,199.98497521071465 587.303539829547,201.2961133207982 586.1734794930943,201.6796178460134 583.3721185011085,205.63017020796474 582.0438288004503,207.13398375884736 580.548882112934,210.5172261535505 580.5533636366555,216.73751042402154 581.1227099865955,218.61923880118684 582.8135694945985,222.57653052118735 583.3742366079235,225.96669054597913 582.625452835497,228.60152346887105 580.1906635047433,231.04903988066735 577.9308219597194,232.55400828644218 573.9842870061461,233.11972384039115 571.7292571792965,232.55714591067414 569.2875387004714,230.66370245052298 567.2174815507976,227.65206202223885 566.850806812726,226.70964096893448 564.1646501290472,223.0190630378749 562.5492465216502,225.34571423739953 562.0009182122087,226.66138984019733 558.8169854835313,230.0418432574175 556.7817525841281,231.5808015928764 552.9861348247669,233.90438329700515 552.1819373340627,236.83066513466076 551.2164080425091,238.73736829913594 546.1786603410193,242.16293963417252 545.5056355626579,242.7940310564946 544.3202688480997,242.61067443779012 543.9154268576351,238.29723480774936 541.5443106450543,234.0325354596256 536.5207880052786,228.349271358912 528.7040997905575,223.43685581574118 520.0068281334263,221.07120370040275 518.7070865778466,221.07310221628086 511.7231111173194,223.89456763202043 508.14742423976537,225.03394940844544 505.89403420651985,225.97986870887178 502.1229903490412,227.1224600611206 499.1123606593592,227.30653207049392 497.60301382812173,226.9394042874573 494.77267701509027,225.0581245023567 494.2035587590829,223.1759354685945 493.63535502063445,218.09637787523621 495.1486337291401,214.32837989336366 495.70252905388116,211.87142738478798 495.71352793616785,209.43196093095764 493.06113867674077,203.40687028669953 490.04301843431915,197.19679654015385 488.9111957243858,193.81129748996455 485.5165005420998,186.66513939000413 482.87126174887237,184.03605217491946 480.0458237898545,179.52975879210595 476.4578167807675,172.3826920703492 475.50680742816826,170.87418725645745 472.10852064223724,164.10147736173064 470.97149411214724,159.59278236661794 471.1675251393189,153.36582745621484 470.22411879610206,152.80705580803277 467.203943078561,152.2510595448939 466.06549733317695,150.93973789354817 467.1922736282338,147.73371374975028 467.3815423735553,145.09875370262137 465.86661696413756,142.0877052751004 464.55769293464397,140.5811884024264 463.2276465997785,139.8370823409394 459.45113318752374,139.28452603979662 454.7366587043837,137.03733184610235 454.3474188159085,136.2929969997478 450.5739271003299,133.2955902323369 443.964398965701,128.98716156846712 440.940176141217,126.55662458986717 436.5914232818514,123.74287125176033 434.32659739997405,121.1187701502177 433.3831389353063,119.05294825083934 433.00224828934887,113.96651589153134 432.0572444901966,112.08666244220223 432.4353189165385,109.82725732467111 434.12798816758976,107.93909719874381 435.26833537564073,106.05028318133543 436.77583043547855,104.90458431149716 438.8516529236293,102.64367327964328 437.9036847062029,99.44307114345133 436.02012202492733,96.6253439288513 432.6232536716341,93.05568964681652 428.64930424277566,89.1188111211435 425.05349469292787,85.93101437049154 420.71153904711207,82.74563972345527 418.4473791042532,80.87800733983045 416.55487994293026,77.30396506548402 413.16415572515825,73.36276402009366 410.95349505558323,71.33529545714282 409.25497921410016,70.75375637093941 407.5478334032969,70.7301089104775 405.8671099928707,69.5897522326377 400.16441505712396,69.51741304306972 397.89297954897165,68.92676556985566 396.7644558719174,67.78905617886232 390.50232224702677,66.02650056530854 388.2180910893736,67.13619922525004 385.4032465796345,71.06012894083005 384.4731628513206,71.75964498966118 383.1583000086987,73.64562401927208 382.0285590722741,74.0263930443266 379.94627947844793,73.84851161967481 377.4956821455768,72.90855603276418 374.49520271888633,73.29440093911126 373.16868151911586,73.86424264432856 372.6025603152012,75.56188795396861 374.6724723404797,76.6835638310821 374.30313277331965,78.19108442905497 372.42371852586155,79.51687190920791 369.5972583928392,79.89228315927312 366.5708758000652,79.90556770447586 362.8039916835294,80.28031424047492 358.2835796459671,78.98189681238716 353.76481066494864,78.97956307932316 352.0687767625335,78.22901771864008 348.503774923752,77.29131502839095 346.05337958621334,77.10764376826512 343.981064595874,76.16656729936938 340.7914193479397,73.33544301428196 339.09085439205927,71.45081661669644 339.2793922580212,70.4417334833663 340.1538916731656,70.01434458003428 340.7503996690044,68.32314069356426 340.7646848257661,66.63046464366585 337.41036282273694,63.17088855538191 336.88096840921617,60.89362035532258 338.07054044789834,56.358645188634796 338.1402999750586,52.96698461244671 337.602821496775,51.25454950013432 336.5032891743851,49.538936370502825 333.70346599962033,46.64624496595491 332.0157248432805,46.05102258842999 330.33328249917247,44.3338163206779 328.0789777454205,42.60240337366986 326.3976260062989,40.879248111057564 324.6805888510008,40.866173063967494 321.8690092985963,40.255494622019796 319.6020214079636,40.78653142248402 316.7593299188683,43.00206694276369 312.22699182859,44.06495087595886 308.84415363570486,44.01554870219309 305.503618067242,41.13889713192759 303.2622344449049,39.978090769843334 302.1522957451705,38.261988822971944 300.49125903871357,36.54467292371305 298.2417026329149,35.94763520558263 296.54581889697346,35.92269194185769 294.85164835996113,36.461738905799166 293.13991565717635,38.12946543991961 289.3001789082698,40.03250668445048 287.81618471408865,44.28331940744715 286.12197064429586,47.58807981335019 283.7554296186896,50.021635677107156 283.4097024697245,51.28131305833506 283.59117839158716,53.547832987964966 281.2357385622095,58.666627832670315 280.6789451028819,61.74703911252823 280.6931541903229,67.67751248876675 280.48793375386396,70.52099785420182 280.82783675954954,73.78201256592865 280.63133632451144,76.03702932988722 279.52641745288093,78.83667799940883 276.1766267547591,79.32050134186943 273.4676219699839,80.65138531193486 270.2877508580217,84.1032304076507 267.3630756424215,88.27734201012879 266.4797174303061,89.94533678549749 265.4069929135126,93.3103618292937 261.90013282760464,98.72968509780549 259.43616853430353,101.49711252981501 255.96266239894967,104.65886031145533 254.1062485465864,105.73543364660861 249.1410516641838,107.45433954848698 246.2974120270769,108.22463438738794 244.4256300843999,109.58630047900806 243.41291081709977,110.97958329688322 243.89229238382478,112.43863733597277 246.0637123370855,114.91629176751849 247.36996307546036,115.76666736650469 248.53621450941063,117.80690418422881 250.44433519482445,118.76667733402246 253.325818540469,123.02950775305504 253.1665585628398,125.4465020551475 254.43534354377886,126.12988760219429 254.69601860761765,127.108231364711 254.06989638863575,128.68061106486005 254.66184930353958,130.12357251711757 254.63151682701957,136.23553120702798 254.9209822086595,138.0952363133103 253.8677528818034,138.71828641984354 252.4584015404836,137.91567398366544 251.39262359719802,138.03653143426413 250.2740101964959,139.00602925437698 244.79256037740194,140.95929242390554 238.08926478862972,139.82194694640606 236.68206933462378,140.21019342207302 234.7114993695949,139.9885135485606 233.75524128006225,140.34022975097184 232.81152324471432,141.85261910910867 231.22564464133174,142.5983656551781 228.30210314666144,141.78439158350017 226.37431022797037,143.43046442879563 224.39258403647065,143.94079085636918 223.6727227336861,144.872831095938 221.0845142091432,146.2302529437576 220.02426875292358,148.67786069172524 217.50748342281017,148.0312694746858 215.41465301926843,149.12347903482424 213.284984568172,149.22094082624784 212.4412724909713,150.1953358387628 211.22811522156917,150.64141565728255 210.6360273789738,151.85587842851396 207.87793546551353,152.97424107959858 207.42265404272894,154.6612886600978 205.45807184453383,155.3448611807578 202.34303431299227,157.0167514743357 199.91090776725972,157.50113843606238 200.34474320237626,159.23921778309784 200.05680881886963,163.32564079249107 200.42207386904826,164.8392236606195 202.13161783151023,168.7889294674476 203.44917801126329,170.29247728805137 207.01872885929615,173.68686257744633 209.46989013416373,176.69200045363658 211.54945515406786,177.81630557113385 216.429073292444,178.57272952485476 222.64841915632275,178.00965317635786 223.5767390433977,178.1969621366552 224.33676022969672,179.3197541098619 224.33072005483325,181.76565075963964 225.26989775482735,186.66003148772882 226.40117437255807,188.930208921857 228.28622976798266,190.8150924243089 231.29979064128486,192.50633464091067 232.61488152803344,192.87952975733276 238.06145181922787,197.40067810540614 240.12530792344745,199.66700335424764 242.01359741927888,201.35878623905052 243.1419283246698,203.2448627667897 245.581823532902,205.6909389023868 246.15211161017493,209.27536966411452 245.96099759508485,212.4763447517277 244.65142570737757,213.79142963920174 242.2028269055378,213.98507046060428 236.19038650462767,215.67637289312245 234.87633360816093,216.6133407432818 233.18031786083958,218.50029304510008 231.30467429875918,222.07356447114853 230.93623944923488,223.3968057918246 229.61727636432434,224.7126107095612 226.04430386205905,226.7887118680116 222.65981170684356,227.9167497719879 220.21103159638625,229.42602271021514 217.77366545826627,230.1785034458319 215.33154993145882,231.30195212411473 211.94134574500583,232.07038352497779 207.23482916978938,232.63855764854537 201.7853647496924,232.26406699863497 199.89994375487547,231.69486464794113 197.07426104728182,230.38481636527302 192.9278087042241,226.43911073112127 190.86155958258018,221.73186608738172 190.4851486770726,220.22302435251964 189.52849339576395,218.5379243233781 187.65831418699668,214.38582208612587 186.32581029784623,213.8308138683642 180.48939534454755,215.3432654065884 177.10577733358252,217.04798712264665 174.08808467923598,217.6223811181752 172.20791615238008,217.43869811868342 170.32549617923274,216.69486606023258 166.92623878941976,214.81611230534747 165.98932903955424,213.87626215785087 162.0263419970403,212.001395570767 161.6565497863151,211.43652400740086 155.4237129539514,208.8182926368907 149.9538782977793,208.45997613237256 147.88994641363806,209.58815309864622 145.99437128261573,211.6698338517292 141.8571525409698,213.7536446249195 133.37447831511295,214.90547928666365 128.85154058275,212.28739106295484 126.00673708877483,209.6534231774492 124.31675302032275,207.78190139965704 119.41058427607696,201.58112470662542 114.47629497672271,195.9141869769765 112.81232057027249,199.52000457369905 110.7389518486203,203.107457198566 109.80140419454213,206.68744808383883 109.43074088223548,210.64367058502734 108.66940469124212,213.4694828571798 106.20102599764984,219.31761989352026 106.22666177009263,225.41629300935676 105.27090899924312,229.49407794568157 104.36231114776915,231.87651951655545 103.99517200467918,234.97637925275774 105.61931687584094,238.4063525348658 105.43111535355276,239.961622234407 103.64508825606714,243.45518630582933 102.19266074345995,245.25797959837513 101.14397249216763,247.49051163631975 100.06611482324156,250.8585523345788 98.75751853719021,252.67642083491853 98.2798316624551,254.35206625125647 97.91124952456975,258.1596717525641 96.64992183402902,258.2762808928807 95.63531783856986,258.99928237777283 94.02127299185489,258.7440162526537 93.6813968775681,257.00504911039997 91.46426396166066,256.68395271138735 90.90111058550366,255.4385021962362 90.04152313162659,255.3744726347361 88.77536214605422,256.47236897377695 87.78090276880873,255.88541006219594 87.13644621864638,253.96727282413752 85.19083220403671,254.5826639306381 86.27504333084981,255.94187247547018 85.23731154635355,256.79436783032855 84.72499345540399,258.11602730676833 82.59657621453626,256.7645661502618 81.88515429777395,257.0759638955 81.02839209617989,260.0005598476475 77.1390549107139,260.59034851207747 74.22254431803651,258.59204186539864 71.68317148342503,259.8493077737531 70.3486896912322,260.0265066555857 68.58706577665427,258.79889474994826 65.80675203943908,258.5361492173771 64.92401885192507,256.75181612151437 61.735327012728604,257.6931656707903 59.83692632378681,256.01627340319266 57.552608541254756,257.3522588905543 57.371746202041706,259.0385674636126 58.33580536791548,260.19721197512564 59.7211159347816,260.6549226473982 59.53469899768285,262.6276052953931 56.245843187665486,264.6608990004065 55.092741948695476,265.6304203665089 54.883338408101615,268.4473591210892 54.43050100346587,269.85063263406226 53.26751673878484,270.8071850552828 52.93631963591788,272.92024184520585 52.34943440425363,273.7552785540975 49.183145095982766,276.36337632052596 47.69405117842987,279.7244181897752 44.387620988646326,282.18049858409694 43.78820402305249,283.71818149479077 42.765039062637385,284.9319232755196 41.34333700967212,284.17518223764193 40.21147405857022,285.11345114340645 38.14121934208635,288.3231115002467 34.39758612376916,291.13800605128966 32.14303282603463,291.89036953601993 27.63581169006192,293.77304690163913 25.7477000922163,293.39433843050045 22.754019171084547,291.6919352116761 18.802443766491375,290.94324993284107 15.056431585918784,292.05551232444407 13.000627164550947,293.7480674048301 11.117531420174561,294.8793804901344 8.871872992661698,295.63152533340383 6.424345836003322,295.6212560797315 1.5503123438108417,296.7458604133438 0.0,298.22321624219035 5.121268399621057,301.2739188238768 7.743040221625354,303.16248404356617 9.621552630533914,305.9905854377355 10.751712215510432,308.25294711645415 14.315534380069566,312.5886021335763 16.943262190392105,313.5329657576073 19.38434468782415,313.344044943329 21.443894332041733,313.91859927250306 23.504258267919397,315.05229424081557 23.69552132635764,317.12572717191404 22.578101161755104,318.43722891871613 22.38633060227732,320.7022021635063 22.58150136207181,325.02513899570033 23.896363265308175,327.29728696619435 25.961761490921127,328.8041010661369 28.39838270144688,330.1191268749987 30.659055036966354,332.19512367708967 35.35594963010341,338.79320546400726 36.10627619254497,340.4839697426698 37.235221358076146,347.2654811902365 39.48838351645561,356.6839398138135 40.05447229369879,357.8115099335842 42.87576153178976,356.3101749140004 45.695771770150415,355.5539683867028 50.399371761919284,355.56279300446886 52.6510435361664,354.4240921326857 54.523942841435975,351.4147277125763 55.27947135072445,349.7171050100015 55.0868414214608,340.11599319760614 56.78210532499807,337.290764575362 58.84280584994773,335.96874390563426 61.470729233104365,335.02997973375284 64.85928631931544,332.0077091976259 67.86462282931217,328.6188740858588 68.99356817042539,327.8673496764512 74.27075711934656,328.4241823419396 77.27698355747007,330.67969375172 77.8523627533797,331.80723760296195 80.09871533057243,334.81529454036837 86.69907719327935,341.0245617718754 88.0214147295826,342.9042842720769 92.9252034511544,347.601516393205 97.44519936933244,351.3602068473471 98.96031002264459,352.10591851749786 103.66429526081707,357.17847681405567 105.92964467887361,359.0542698397566 107.80979934496054,359.9986020500754 111.39999466432225,363.0017345093804 114.22213805110187,364.68143898958294 116.48468885375941,366.750899069948 117.24530234346155,369.1932924710376 118.37678601410299,370.8835795816145 119.31642340373168,371.07264028365046 122.14921583167275,370.12212972229565 123.08565953388403,369.1800943133822 126.66423157533865,367.09152341887403 130.2437532160603,365.5747895394378 135.7124312863264,364.4360310062 141.37539477033576,362.7213062447499 145.1440404385287,360.8281937828032 147.9662385383886,359.8839102263802 151.1780627133866,360.25085593418316 161.5406056711519,365.3037087486207 163.23252307757636,365.86534674682673 165.1154323013356,367.36698455548185 166.6378462943855,369.6229226561511 167.3878874906252,371.5056823132289 167.9545893923781,375.2695903611454 167.96058189559577,378.8506250743425 168.901116716828,380.35045123256924 174.17723298576817,382.41502106574796 175.687224891774,383.5386732292651 177.62186725746403,385.68265723428846 181.7399205992488,386.4416610500558 182.72199851419677,387.20968270670653 185.36921592400995,392.3488387672636 189.6244969771739,394.24752202259094 191.69598625162592,394.80764916989835 194.5242684733225,394.80048823809227 199.04995300271474,394.42236523994774 204.12975731818122,393.28080180369295 205.4472888350156,394.2269519961959 206.37818727316565,395.73320632842444 207.14066793439116,399.499775895219 208.08626738019694,402.6982162239017 210.1590083368424,407.97178039852736 210.90556714811134,409.4752059137363 214.6697195737326,412.6786310011458 218.62684327185698,413.9940407430057 224.25252416625955,414.7437584394876 227.4582392529913,414.93443784605665 233.0940186502694,415.68393215123064 237.04611198594063,418.70245718617923 237.42226653999552,419.6411297886726 236.86061988094542,421.5294431933555 233.8511381528689,426.80162135201545 233.4853351348075,427.928072757714 237.99061758112146,434.51285419803327 239.4921760531685,436.21527848843573 243.80809740137133,438.2881370037155 247.19680504496893,439.2398590028642 249.4573612789391,439.61479850117576 251.88712751923578,439.60735526431654 254.52684393985865,439.24174433784117 259.21432653893174,439.05580144468854 262.6014626735187,439.4352622505669 265.41852433549747,438.87322989519225 268.4310897251951,437.5620472098252 269.93053657477924,437.3723673932273 273.68406944723966,437.93702435722 276.5018300520876,438.6995518452877 278.56954055115705,439.6440112111057 280.8201042275265,441.3371370755535 283.8199221611206,443.0351913031677 284.9547692243726,443.2258650022976 286.2742075080389,444.1721335667229 287.39399175755227,449.6301091470966 289.27646168042844,451.3305297301032 292.847644020095,452.46478681850454 296.9817949826475,453.02735708412484 302.2351622033177,453.41396710918747 304.68449771154195,454.9175807117802 306.5663268999354,456.6177239416511 308.26645886876526,462.4577433524596 309.19620429216997,464.15699219810983 311.26563145842493,465.66092681197676 315.9626734739193,467.730835649141 318.4070163447998,469.6130038976163 319.91002668765645,471.3075285377441 321.22876340437296,473.75231962282385 320.2961413584922,478.08721850952566 318.40712033117563,481.09657716460345 316.5328940226024,482.42020307326067 316.3543645819485,484.1094892577522 315.4112446000236,487.69229672066604 315.9748348894358,489.19334848458845 317.2966874303109,489.95228451005806 321.4273508462428,492.9665412603344 324.4350550498842,496.34955447089465 324.44001768231584,497.4824235769745 321.0588636789099,505.2055982730706 322.5679256734829,507.280026243484 325.7665887985251,509.5348510001569 328.58565274530974,511.03624625546695 330.84164386629055,512.5375014585331 334.41924790509694,515.5552628999926 335.54712591286176,517.0651308360467 336.1101726005175,518.566052866061 332.9116701011424,521.3957741615799 331.41498610033364,524.9659319922034 332.7265546493963,527.9773090724224 338.7553273630324,533.2457843465438 343.2703675104425,535.319788277312 346.1007152006163,537.5688722625385 347.2301530208406,539.6445263994303 347.22435656933817,542.282991506765 347.60065401481097,544.733899437156 348.36928420573804,546.9855784610777 348.7404033931241,549.8103880186972 350.24745411082114,552.8183515687765 352.1340305301381,554.3199103087236 356.0892737499962,554.6928493820014 359.6663993240368,555.626313768957 360.41747310449745,556.1967189385527 360.60946506081467,558.6390988657639 359.6624210588555,561.8441436800406 360.9923921519624,567.2970785183443 361.9253603124088,568.8039483741229 363.2480462528652,574.069751925951 364.38167386756413,575.9523658999868 366.0791165304629,577.0780756240134 367.9652182781263,577.2596172576638 373.8060231637009,576.3067626273831 375.88861737410025,576.2980075295948 381.9239274069106,578.3609157158882 384.371853094841,578.7241157485931 385.8751801813824,578.3401970738645 387.96079632755294,576.6376054098874 390.2179289504175,576.6379048905311 392.10271386892276,578.3248124925314 393.2391788111913,580.7681381485238 394.7453796492993,582.4577179095446 396.82607186920603,584.1413065701993 398.90367311295324,583.7650449606582 401.7280531784958,582.8133226001162 403.80325663369575,582.6111467955807 407.58727534199267,582.7873037770523 415.7054385244729,581.813229069376 417.20443060171607,582.5616271548736 419.48518159285544,584.6214968044522 420.62137887872626,586.3057915804114 422.8794873341468,587.8112370282964 423.06923498465216,588.9405816483825 421.56420412098544,592.5252053438415 420.99056981982847,596.2896030633702 421.7507120644417,597.7877592165584 424.0166712177948,599.4743456672915 427.6129084989982,599.8402766863238 430.4348860914428,599.8277381374687 434.02203423427426,600.9462132130841 436.4855138984544,600.9297622049038 437.9888674854655,601.3040032947385 440.2601672298815,603.3643240437104 441.7674366093085,607.3127979046634 443.6618184816059,609.1810772634822 446.86966459262686,610.3000697946509 449.90045393929535,612.3633401950602 452.9190996142467,616.1209685248504 456.5073289034719,618.7326489492325 457.8295145625623,618.9182794758533 459.71501310127724,618.3515711566018 462.9291270500272,616.6380630067267 465.56890290640604,616.4482062301405 471.98272922229785,616.4196659067144 473.48714340707807,616.8003959684501 476.13467569036624,616.7856024836107 477.443094062004,616.4099458469443 483.10225748974995,612.0628535017132 485.9328612869458,612.2421406212449 488.75841042146874,614.3028294847235 491.21218852938074,615.0498655159869 494.78866086879634,615.4196339619976 499.6928564909636,613.901201021299 501.7720344944396,611.8298332775702 503.8384708430052,606.7451063704285 503.63944598897945,605.4288492629128 503.8328374094668,599.9649060307185 503.83284766933184,594.3184027587517 502.8843436249247,592.2525350354072 501.0054935022511,589.992680181722 497.23765220543726,586.9881967468727 496.27962523611,585.6749520808667 497.9846157681541,581.5254395264002 498.1668739370349,578.5155735986631 497.41342681224245,576.4452650101085 495.7074756711787,575.1292768118982 495.3412668131272,573.2440188452274 499.29488575357425,568.1600384313346 502.8627197816704,557.9863818147542 504.3756181177432,555.1618532841957 506.0697470321923,553.4594930522751 508.3259066788264,552.7040820255718 512.097400373138,552.1362637461184 513.9746536673383,552.1228231603321 517.7331075874658,550.9947614367685 520.3834743075092,549.8584294558902 526.3930356210511,548.3473974413466 529.4054068915053,547.7822953656009 535.797311986962,545.149957487797 538.6195567079873,544.2083314741146 542.941364224669,540.6226689365423 547.4566935833758,537.9908720413318 551.5785608854137,534.7882080421518 554.2198952886912,531.025760901711 557.595291729324,525.1941421956442 559.1208253294803,524.541035862628 561.5341093680865,525.1240599426903 563.7910631003372,525.0467866524627 566.3754029211714,524.2197687782701 567.1265072151652,523.1348353272605 568.8788518181118,522.4657376878822 570.4660211998553,523.4743047221458 573.5905390551494,524.5707034264232 574.8751202826653,524.3247924122879 577.1664421072871,522.2688620781065 582.5017068340011,517.886680245811 585.9238161272348,515.5768431348213 588.7927066129421,514.09952768238 590.4996314378267,512.8638083382584 592.0660403833255,512.2049534576585 595.5054370468506,510.17555376752307 597.3783308129464,508.8109058178956 598.4045788013586,506.1921536490805 593.9044212546358,501.0864108100396 588.9662395645306,495.7320761351111 585.1628435090192,489.8315494887444 582.7089837455924,486.79720349465435 580.8257762567814,483.21680666581483 579.5080901815768,479.5055782274759 578.0880755032626,474.0956251026154 578.1675315206575,470.9870866324354 579.4799573184038,468.4408679861044 581.5201873391323,468.44730348457233 581.1317821155407,465.0407512428951 582.426777226404,463.08569505562036 582.3932053791432,460.8397399458362 583.6004704749153,458.51065151433875 583.3404644711111,455.4353307456073 586.5780779101815,449.72844165883566 588.6311887415256,446.94918699001107 592.83222604828,440.3418141153079 593.2982000078529,438.2456522464661 594.0749305415133,437.6273546893517 596.6088790743071,437.409383286227 598.5741872085051,437.60164984748 600.1515898523055,436.7933341392311 600.6133417488094,435.1084238866564 600.0975880369496,432.8320089307319 600.1510080678438,430.99845286978325 601.0904468494533,427.0679365991753 602.8782596062053,423.297323822374 603.9985119935801,422.1360504656317 610.1553580452717,417.2622639084263 610.924871644006,417.14761148338675 613.286231187646,418.475118967194 618.7232504268787,420.4557184903223 622.2392477189261,421.2508627295558 625.7476181141325,421.7712841734684 629.269544915178,422.00051114189154 634.2150509974797,421.41912479749243 639.613283512032,419.8609287341807 640.4768061904027,418.75241115046083 642.4294041996448,414.0013084093964 644.1747973775547,411.920250086734 645.7592204724956,410.5467207359737 650.2021141429009,408.24963109359317 652.5097707334905,406.3315918347099 654.6782390896321,403.9759672564127 658.426581973483,400.68250680459425 660.713088658642,399.60934026404794 664.5436937383234,398.85242477787943 673.3121432495417,398.0665673577969 677.0324481509073,396.18333508704643 678.7672234058837,394.94798352329565 684.4795097883115,391.8321826273996 687.5063229884348,389.64151367559555 690.173851801691,388.3489323621112 691.7076349944166,385.9175525550238 691.6478741459707,382.23779825781503 690.6555674275611,376.85089684968295 690.7658079037135,372.60731710868663 691.6974249206949,369.1003879150242 693.2022442407554,365.6010600719052 696.1057978076067,362.5586740379994 697.4032507705602,361.90846428375244 696.0401251031868,359.30786180016486 695.2475962693105,357.02476154551266 695.2905546980817,355.0425542972437 695.8005275825265,351.66849572377174 695.4544378280491,348.83164538835933 694.4641301935683,343.290279753176 694.671705144088,340.3348522082437 695.4741723184071,336.5292543842962 697.5565886904902,332.61444510862475 701.5329648046473,326.06273080754664 703.1307104640516,324.26765396501753 706.4487818367185,321.5162177124514 708.204629110078,319.29389310688674 710.1702797030398,313.9675632891649 715.9103563688519,310.6975444181634 718.1036637706763,307.77853640130877 721.4974708997148,296.5439025155999 724.5773843312886,292.0949958237155 726.5367379913286,290.85678330868046 726.3208221089221,284.6376528883101 726.537171012943,281.81416441452177 726.1814131612956,278.8356012924024 726.0751402551277,272.04700317239485 726.3050366237305,267.9513974966337 726.6448937588095,265.98043850051704 728.3674995995262,262.98217350643716 728.6511628121981,261.4582779334339 733.3607128950301,262.20631231652766 742.0397437720549,265.76281796358984 746.5611865272637,266.8693704499818 754.850915012181,266.85676943180215 757.6879783680251,267.5958309220753 761.6502647721923,269.2860082006472 766.7304821554596,270.78278532718986 771.4482101190582,272.64828075007574 775.7852574525099,274.71407715941785 782.3889612262554,280.1636912700467 784.6442883129293,281.66030470172296 786.1512293867162,283.35337246765806 786.529360435989,285.2387731844366 788.233012182829,289.56793695367594 789.7353623175442,290.68924074266084 791.8066756043069,291.2588203147842 793.4964213405631,291.2584697721642 796.509443909364,291.81851074456995 798.4035434299591,291.8203107557243 807.2332171342458,294.06437819917477 811.9380130422496,296.31981330980364 812.8896119690543,297.26177023655947 814.3990246605534,300.6497923336201 814.3809047275865,302.3448829006716 815.1430336569258,304.80002045504165 817.5942739370654,309.1307975877828 819.4786123488583,310.0698474957114 828.1192645993145,312.8948622824778 832.6366716636124,315.532223073847 835.450819221094,316.6677803856244 837.5169306502312,318.7389761288951 838.4448760188874,320.0533758374657 838.8339554088449,324.0206062969929 838.832449441847,327.0332876726963 838.0772757494175,328.7275042698219 835.455675784344,331.7313465784151 834.3295787653898,332.6758484713564 832.6343034433123,333.2424308878958 827.7579769724144,336.4398041078056 827.0006506928194,338.3199052152824 826.6325371385384,347.92677053777066 826.6318318470148,351.87811184946054 827.1982752145354,355.4566432035708 828.3320372262432,359.60099708222833 828.7080174413659,361.86006211111567 829.6443006118433,364.3119740817275 829.8312124365257,369.96250133683895 833.4109087282708,375.2384395284216 834.9175262393483,377.12464831752175 839.2328046479699,379.7604678997134 840.736517800189,380.8889757954777 844.6832829755905,384.478075098262 847.8761847113544,386.7427683119122 851.6289152971684,390.3237171106319 852.3810980857214,391.8358708682025 851.4496091515814,397.66752951828346 850.6994167959999,399.9226819594704 850.1427349311865,406.14390126977554 850.134787822856,409.90421581911426 851.0908428001779,412.54994314572554 855.0272848441738,417.2581897721091 857.832840250584,421.40269557611373 858.7759489547176,423.289647229784 862.5396005504001,425.93857127499473 865.341533453807,427.4470597418841 867.4126301298407,429.3395904266735 869.1018508279469,433.4841957459362 869.6714637727089,435.9270571461774 871.1668358938188,438.9450832022585 877.1656129376447,444.6141588001097 878.1064376897625,448.7510120271745 879.9911222588119,449.8897503602857 883.1822828556785,452.53910275424005 889.0023868357977,455.55722534584277 889.7604394762571,455.65831537637075 891.8445649180137,457.23964730339264 895.8043526735835,458.8840018974362 897.5248760962005,461.12077946455463 897.5481058637765,462.8181552164434 896.4549697873141,464.5230640601253 895.9206998217368,466.7933689617786 898.2791698988225,467.63845603587913 899.9759287052906,469.1596941852159 903.4768529843072,470.5994957242757 909.5121043716622,472.7677663370174 913.5826888928626,474.63598495905467 916.9615806166662,474.94968627672955 918.3711525392367,474.39686430205654 920.3468375528859,472.5696148347523 922.4764384917834,468.64237075036124 925.7350568794046,464.4280493637808 926.7381172730587,462.46034873055817 929.2552425560193,459.6928138075487 930.7198508375074,455.6291037622882 931.7320097763258,450.55942669384854 932.7376728858447,448.3064037051678 935.0073558833213,444.64796816528906 936.1517008850601,441.83647143431057 938.0128819462741,434.79848556694475 938.7251803091763,434.2396947614751 942.6830582646063,432.84853751468216 952.5566955361954,429.9538629386065 953.9792754345515,429.1224107858729 955.1150659502626,427.1499064433973 955.406937543566,424.42454863839544 957.6931221225597,418.9389787245956 961.1475137330497,407.9521536817282 961.7406505433432,402.731724103091 961.4574128831447,401.31820866562066 952.9179973653451,392.36808868012963 951.2547606913929,388.5544751309187 950.0015976958402,384.7339670295696 950.1516892717113,384.03295568494457 949.9062619887956,376.5426068399262 950.0770892779661,371.61129414845664 950.6647771782287,369.07571210591254 954.7980665996404,360.9142673895173 955.9305864073146,359.2290251303057 957.2172340040416,356.4138436158155 961.0592330885967,349.8098084947694 962.3422876473608,348.3994696059585 964.8752527027641,347.98883653325953 964.8954312368769,345.8767376216652 965.3285949463575,343.33372888057744 966.1802493038936,342.0746832117377 968.4535883073686,339.9722708270267 972.4095738512661,337.3073309079081 974.5508623215226,335.0609155771783 974.9743327989216,333.5183504713833 978.2302525631811,331.412317374783 979.9404125861053,328.03034257233975 980.5160661867521,325.6322868812164 981.2276353113475,325.0733063075374 985.332707545273,322.97611982371507 987.3219336060722,320.45459047924066 988.6106975295859,317.2122004515568 991.1592807348818,316.2296598416481 991.8812812982179,314.54719726232884 991.3397561935149,310.02045666284715 991.6333623099063,308.1913239454331 992.7751013414277,306.5000025280079 997.3211202194666,300.8727247651693 999.8600089984009,300.8904997457621 1001.2880329512691,299.2017822293353 1001.3003024123958,296.8053020651404 999.6433796152339,291.1456659342262 999.5094089968427,287.90271173999804 1000.751792685952,287.52272919068446 1003.335977644094,288.0377075974159 1006.8729923791243,286.24456987421394 1009.9880229215705,283.709576396226 1010.7014193639072,284.00148128089285 1012.9432689511436,286.12067482380587 1015.0645302163718,286.97844382671343 1017.1800625566967,287.27141364545486 1018.1664062324058,286.8515347257126 1015.7388967630008,282.59485377700065 1017.0440549950162,282.0234602644661 1017.925811090327,280.7712966071503 1018.3648412136514,278.658154508564 1019.4924344277197,277.25279801490103 1020.4831456113044,277.54129538578206 1020.7575984704931,279.94039219534807 1022.3063845159306,280.6501462093204 1024.0,280.08814873264475 1020.586088555291,276.3626424230014 1017.8667842955123,273.79744606103236 1016.0174725856357,272.35290449430124 1014.3106971266174,269.89729747072954 1010.9440852457475,266.63729475025696 1008.1280149458546,263.53184410453645 1001.8364395267922,257.85471465152347 997.3872334457379,254.3677903032057 995.6107694572572,251.81877329733226 994.1417274863236,250.24070453564605 993.4209815435852,248.5201021612246 991.7792589404954,246.8852868808312 990.0118866643269,246.5892497263486 982.6337223465636,246.8048956868251 979.1419900084176,246.00832477167648 978.1445083815465,245.40854444945916 977.1584458006674,243.70499440863023 977.071317945134,241.07238846238886 976.1478769220854,238.06484736862268 976.1668249502136,237.1284092744467 977.4746518921927,235.1977672774019 978.6657718569423,232.59010541192197 978.5634533190654,231.4586976159361 977.6277372990992,229.84219863539732 972.7040737461851,224.82979048926302 971.8103721112986,223.0276966401886 969.3028792574873,222.16644373482706 965.5220041556943,222.7814772750799 960.2659367017707,224.69857801355266 958.6727124566295,225.47716908176164 956.7939410324362,225.1363072864113 951.3722242107989,220.89449901063546 950.1596276942373,219.38036385979007 948.7635392652065,216.67396081666362 947.3530272502807,209.28028977102355 946.2757347334433,207.46439764587592 946.6721139618631,205.61860679167245 948.4272412338273,204.02218849378045 948.2395462914267,202.23268482442944 947.476281803194,200.8478379554595 944.5685077214971,197.99576128891562 942.2751918067753,195.06305218473813 938.0541903281292,191.63320711137806 936.7623094993526,190.90129784612424 933.2407747390586,188.21114522705312 930.3538998310928,186.3457479285981 928.6404728868752,184.83331003795672 925.4784257170708,180.94813118948827 923.030223538434,178.2624236019853 920.4796818242272,176.6175701961588 917.2577902612694,173.65641530597918 913.5751508436164,169.6614166151246 911.6178288594796,168.05970566229854 909.6849050832085,166.03021847806082 907.6333850312448,164.65083704564012 902.44503579319,163.05380005879175 899.5360137244328,160.49872340388623 896.678263765488,158.91913219399703 894.2462554949476,156.79774567372067 892.8127620919814,154.9905038671269 891.9888667409317,154.54132733569617 889.768641963072,154.72333716368394 887.9619892614968,157.4224075923313 886.068035904978,157.6008057273583 883.6014714291108,155.84486946885386 881.9972510655491,151.77179894034913 880.1071289744887,147.68297060873607 880.1105979965502,145.30688526914275 879.3803026808397,143.74185781531975 876.6605336581695,141.82868903908127 873.4828251952991,138.64444140404635 870.3819400048399,136.9436509371008 865.5728525424588,135.38049319744823 863.9154123456341,135.53642062937223 862.1495723047211,138.1362178004141 859.8723834201562,137.94422104977343 858.0967544203005,136.58657079509544 854.8937783690975,134.90893572677595 852.2205981351244,132.51163362317936 849.0332241261351,130.31942003509295 847.0788296047142,127.61274003706347 844.401815727506,124.5697666705858 841.7827455935877,118.90420220463591 840.2157652946202,117.24445643984302 838.8812351254401,114.89151903244738 837.8534684404964,114.45949413818136 835.4520450533545,114.42119334657309 831.6846451132262,114.90847262659332 829.5623700380079,114.58179846919086 826.5922416872048,113.19223050956225 820.3462322063315,108.44270888433726 818.3689630406498,106.08262316563457 817.6294049965157,104.45017849821318 812.7115101951892,98.9460861375884 811.567789574116,96.95500946641289 811.520637178265,95.67143803480167 810.85239291005,94.11351106606787 808.858257243538,92.3365499092971 804.5951282681262,92.45851480760564 803.3588753542053,91.45226288898243 802.3553731464389,88.81813092535515 802.650503705549,87.98498927218725 805.2827536339329,87.4488456444758 806.5068878139224,85.79435890562684 805.3134204438308,84.6282021507277 803.0348027451691,83.6479932596825 800.091508649131,80.88741203564086 797.6359043176385,79.27347418823035 796.0556927865928,78.91475625652743 792.6912689648855,77.19827809703963 789.1365847723495,74.31854648245712 787.2566044208322,73.31192790363855 783.7597659073302,72.55507614896533 782.5244806668039,71.57419804570952 780.0220950573138,72.32680414293316 775.3507013227575,70.62588967343277 771.9843141218475,69.12530499706111 765.7263908108395,64.89527333662431 762.9517347763584,62.71325913687576 761.3241777277926,61.07638011144229 760.9091248933079,58.93945197519827 759.8920423339601,57.613446138932545 758.2551800886059,56.89446672140525 756.8346947850491,56.85979675085184 755.353583320633,57.76019176088005 754.0053105571454,57.70170608215767 751.1320072696587,56.057528259420565 748.8731349098832,54.29034934177923 747.572635006052,52.75045854322366 746.3823993212039,52.25285665360013 743.9314181548942,52.17586044689904 741.2118404459526,51.45027014709797 738.5382084559061,50.21150388694173 734.7365852164644,50.29212469864024 732.2829856887313,48.614911354645756 728.6564470530632,44.946374091327584 727.1961110204963,43.15645849052146 724.8772157188456,42.218634515457325 722.8165453068234,41.9528598485706 721.2937658296015,41.086126363375115 715.8792580993195,39.2140274599019 712.1287555324727,37.57748602963579 711.0339007871336,36.80808460203855 708.5292612226732,33.4560024451722 706.4065434715848,32.352832995165954 703.3653618541791,32.07630742906383 700.7551195098373,32.48568399218141 699.869242321517,32.233262381264694 697.6961245885178,29.374861982375023 696.1889107589228,25.49593050168039 695.0940932967334,24.73917505242332 691.0416235056479,25.292803763882944 689.1859838026669,24.1117898427118 688.2505614956668,22.892394002753576 687.4392828013698,20.645168600661236 682.8690707925876,19.246038217739283 678.4084907964047,17.209411025535474 672.4396311258886,13.989580238955114 669.9884297353638,11.388108943633029 667.4879156876548,9.49253100392309 665.0887876795936,8.565419879947513 662.5806420750165,7.240389446913127 661.1757261062378,6.857480026931739" /><circle cx="641.6822451132681" cy="287.9199726759071" fill="rgb(100%,100%,100%)" r="16" stroke="grey" stroke-width="8" /></svg>