<?xml version="1.0" encoding="utf-8" ?>
<svg baseProfile="full" height="1024" version="1.1" width="1024" xmlns="http://www.w3.org/2000/svg" xmlns:ev="http://www.w3.org/2001/xml-events" xmlns:xlink="http://www.w3.org/1999/xlink"><defs /><polygon fill="black" points="311.19438998990563,0.0 309.02940648110433,0.9259798250413951 306.9969654474811,0.7760547925008723 306.6345378794044,2.5820858761541103 301.7898655754414,5.24027427665726 299.1771338939128,5.948183537883892 297.80148045727753,8.190672359060159 295.8889367620826,9.531066083220594 291.1499993870914,10.836812452462254 289.54277633246375,13.63526794840891 286.5931843975975,15.351279390211971 283.74019856105764,16.093661231913984 281.95299598238694,17.575686321086323 278.618630074323,19.041582968113858 277.63526152056596,20.285044762207008 278.8087432111862,22.792868780040635 277.2387125631004,24.843831924743995 275.463118131217,23.95220438513877 269.397033671684,23.33478523504425 265.8772124221807,25.182309896679953 265.7494934991903,27.97737998959849 262.89552554748184,30.07990751078455 261.2125998574374,28.695304560086583 259.3659059089649,29.942830917409083 254.75236889766876,28.687787866113354 253.18697618575337,27.21903169911286 250.31574963749594,26.529365767310992 244.1172442048752,27.120515883756866 241.12117066957,27.03529987698448 239.3765975710183,26.265450641933512 237.96738444135616,27.208728219218074 233.94724869388045,32.14240284079335 231.5724390958532,32.691934871797116 225.58333585129463,31.63093476280619 221.11896397111545,33.021915775115644 213.78830033986273,34.365365507363435 208.00967050404319,37.38201225658372 205.48545808062389,37.677958316927175 202.85128163352653,36.368527734622035 201.0444686591422,36.29525389260846 200.1115635845916,39.03032456584583 197.61953374230478,40.70653274567701 195.63161301207316,38.73212148925188 194.33017276951955,38.71182173874138 191.67879810740038,41.66885070271326 186.82866789999292,43.49382882955297 183.97870414630034,46.688769314838055 181.25900077949237,47.416592329611376 178.4721448102931,49.2807021623089 175.44851157892268,52.130000435329634 170.4653145870788,54.83620464196531 163.84770573735278,59.26615536022962 159.22176067744388,59.6949202734595 158.27019801625897,62.032118499773446 161.15631627238713,64.43253752150451 160.82278545852853,66.81151726214785 158.26690683968437,68.04774426990866 156.50087585169084,67.7470095143417 155.20242663305083,70.12036921229458 152.0522188600943,73.22783341232594 149.63408939232966,78.36040107160227 149.7243039602372,80.95813368294932 146.99051586940448,84.90808827849878 145.23763086521694,85.08839013781017 145.172823991634,88.59928445048376 140.7099633490811,94.33588706788714 137.49923636146497,96.06288399097491 137.00428139891787,98.21970526676125 139.23957188011164,103.61018579913264 138.64822771540747,107.90724803922933 137.12033597129405,110.78551943044556 132.87778039870503,113.69484447047569 130.29685380176696,114.46063132034942 126.09429664252082,113.3875730650575 123.94842355739752,113.94095501651168 123.08019286074685,115.2030300153707 119.86063616744023,117.15482832279622 111.34916787466128,121.34504522166674 106.30478954344356,122.92420036736962 104.66829685314033,124.56584623543836 101.95344065573208,130.33814204848375 103.47082907184404,136.97988893441118 101.69043297274959,141.04934168337002 99.23147269596453,142.18091852384157 97.6860542274371,145.10104126326155 95.85411365875194,145.32230307574548 90.85207805553071,147.13665677470112 88.63852115616262,146.99501150142441 86.7872886744537,148.95661334477097 84.44949918723914,149.17530995071502 82.91962946022939,150.85567255102535 82.21785378213403,153.14929252375714 83.44337125620974,157.91293356120764 83.22227626275867,160.09709389200168 81.67843705736004,161.24580670056366 80.9772001040536,165.09500172455307 79.1798024618535,168.500658103055 77.63082703772903,170.08929971784983 74.40463498366974,171.00693859943158 69.82674144855139,174.70794498251178 67.12779320017806,179.06800269044754 64.86238126928123,179.62265323760812 60.433861042758174,177.73060654198184 56.72905515667401,181.6852061880752 55.19790195766274,184.55395494976403 51.25873913684506,194.94369768580668 48.668814692119184,197.2029033167396 45.92803812758822,203.88850237029203 44.556700586290354,204.98374834701485 40.36104626578572,205.66766452403715 29.785803893347325,205.1410459774371 24.64492341644406,206.15559283516131 21.549621391459375,207.64302205350145 16.580544608873396,213.7140398934631 16.14019229285836,215.1642786407 15.914457478574029,223.92555254896365 14.297607776085016,226.7963995420074 11.19276011200039,227.69979262800769 4.185488281948227,227.3869767919216 0.0,228.4895544674489 2.282000022540541,230.70147107726723 4.957631121482011,231.23859420564906 8.452865315191666,233.02382766089602 12.626662724972817,233.90837342244788 17.714360008621213,234.2580305576264 19.3399579285518,238.04567333925797 20.915456694625988,243.884693205473 22.573374411847947,247.14983321696923 23.91178578252893,248.47361533546302 26.48272569841377,248.74504536147288 32.425933072993004,247.58599578643543 35.28249513197973,246.18304811851465 35.69189985586047,250.13236021913383 34.90709527170168,256.67039207864775 34.98313062313186,264.0777446649705 33.46613088657631,267.2759336315131 30.293984451873627,269.0214568952483 29.266028192010953,271.0036062730993 31.1370374043845,273.4265450903565 35.664668734755686,275.80242667555774 40.0787073795372,279.1937217750709 43.323150103988574,280.57260843495965 49.496017419574954,281.60262430840623 51.71532293922271,282.78031941259496 56.65656218476155,289.2909195760243 62.12376124746111,290.0124069060548 64.15418780880347,290.9470142034627 69.52393347565362,295.86215406043823 69.03715592466239,299.13879312015456 71.04909917543267,301.5193445421054 73.63348255785385,302.63046003183945 76.32683785706138,308.20904380233173 80.7015884049545,313.01609903147755 85.69902380445257,309.20187314982843 87.87483274060682,309.980328302054 88.9034780973254,312.74401622112885 90.05796469997003,313.6705716376223 94.2482050022685,314.22457395019603 97.54644071770541,317.2528608157012 101.10325870630969,317.9288716100384 103.15304670966118,323.9790579642429 111.16124802871289,327.2968446629957 115.64546087038406,331.7637200251321 121.81134998575169,334.3288666130027 124.61735236620528,340.09117771384797 127.6970744248836,344.5995357948136 126.68741344410692,348.95197405812803 123.92697110674922,351.6493599785242 117.90076678673326,358.6093560083194 116.6456776317632,358.9359665646364 114.39846653199247,364.8050496737593 108.51196465015921,369.88557751750204 103.70663559875035,366.9810256453345 101.61897008869325,366.9194944056667 99.1885331201272,371.0986552618249 96.7475470716318,371.4723153758274 94.96820099598501,368.97484891938643 92.64405918636238,371.552014069582 88.25254161500189,369.6467476451314 86.8473614319546,368.1488392858738 83.67798896146489,369.0864715424582 80.79930898378736,369.0871609006316 79.17113930197877,371.2336396395475 80.49779999051327,372.7628463745293 79.3590546265566,374.9234415666896 76.11190053190471,375.9546546587203 68.56452155124515,375.93958556006805 67.47676640753657,377.3292709410773 67.16006801566904,379.96996523846644 65.6013160317801,383.0795996874675 63.265943969342544,384.928482328154 62.52008628136261,387.8630838604138 65.94249101549106,390.8613280638656 67.78999464283834,391.8303494984174 70.05914715274764,390.8125409157565 70.16320832832662,392.2064021112095 73.78567594031269,391.8677277830973 74.95278732052039,389.7068155634197 77.04497319093926,390.8567848475134 78.08822429111892,390.27754150902456 80.67192226184196,393.53377856789155 76.857016656948,396.9742957644834 76.69066087788761,398.3411234897651 78.92549974579308,398.47260895394356 81.31432952195293,400.2956244019905 79.66933307954196,401.72510474907426 79.41325647775973,403.87302512183214 77.82205583404433,405.88634940046677 77.00016170833602,408.58633348385786 74.54024784614907,408.4880879643449 72.71748322867286,410.8225641769412 69.71207260067693,413.0811253382477 68.06542742539762,410.83750918678334 65.97800347666174,411.21597439433435 65.68961878722352,409.12706516710455 63.871362856035745,407.82906783551596 62.24530240386409,408.58066308880484 58.765364171290706,408.7323284271041 56.86555152182444,407.2402323860938 54.27705821759813,407.1645198134472 53.69638799924654,405.479776917186 52.74318303300558,407.298331755086 48.52168366461381,411.4826305926954 47.08775230611729,415.5553269592101 48.08714327693634,419.83050746213655 50.253202653584495,419.8513346167575 51.30917827508817,416.5327933900354 53.38860330554873,414.7691583578621 56.624634786276445,414.0982736826477 57.33453613522538,416.1706718794594 57.33327989402864,422.4301192806861 55.67601292926505,423.4080843007573 50.903616266352145,424.07041869487864 51.046170065077106,427.03386089878006 55.229915605868285,428.91432319769467 52.30357398429469,437.66805211333224 51.878559968189634,440.20932197689365 52.23625140769489,443.6836295569543 55.16784808606446,448.07637197790814 59.08804222843365,450.31987795681266 57.92621491499398,457.7266933126508 57.927312347243806,459.8001323096139 59.137784831485206,462.2566000704852 61.201149147604276,469.69034639662345 64.65234398954176,472.5884107097479 61.63277068332978,475.96724197483854 61.10162751517746,477.82213265980715 54.67185743887425,483.30265921114915 53.90245666779506,484.63800990928746 55.13800700157236,486.8177165838756 58.266549243858535,484.35070427007395 60.24613906051118,484.6310340017284 63.14575207306438,486.2944914474797 66.06607779300757,489.7952466866009 69.05584052666117,495.83190584298256 69.29103760374257,497.697135863261 67.58382095437958,501.1819034334138 62.593263503652246,506.21146711423296 61.32226076080919,508.71504189684777 55.661142358270105,513.682114400006 50.356992849453775,512.8626910717009 37.72946453630089,515.7597748241221 30.666452510877356,516.7509976547672 27.458239562514805,518.0587448818396 24.365938807233874,520.8429985509317 20.272740248160666,525.3662344505517 18.121481156617072,530.6750236762593 17.44479193853359,538.0174536751233 19.4489305584683,543.7621241661338 19.750197084102123,549.2950873099144 22.587541742125808,556.6723860782007 22.685850436151895,559.6916388159086 23.800798653607064,562.9945604874814 24.51893076062547,568.5527095037656 24.616978658689895,572.3834195247707 22.24976641768281,584.6428888434642 22.605785956126567,586.395085933194 24.788804080378302,587.823901085648 29.850028839021075,587.1691276550906 30.51167285668066,589.4204161291236 29.967869635553384,591.6581660230498 33.79166466449364,596.887431774705 37.04764172157091,600.5421600637587 42.814657449806134,601.9733021945156 48.78557412571623,601.4897638798495 50.59243516604483,603.8080238912349 48.83029273815847,610.3583701262723 49.21021227059539,617.475796062997 50.17996361997097,619.9292726633682 53.70300941707736,620.4039918555623 56.067228909332854,622.6534716991214 58.14902908042081,630.1074195033877 55.938651149493275,634.8874740788252 56.35664290529146,639.4146658226355 57.477780734279825,642.2367743001839 58.36167420269275,646.5834795231812 64.11447167767369,655.7457806798354 64.5414549710135,658.4441856123951 64.1366574735426,663.3853360253934 63.18710986225317,666.0208131816108 60.65677423594346,667.3098477491651 56.439467907211956,666.8854865940891 51.19124215388233,667.739599140363 48.0942595890837,668.8109617252462 44.93767441177055,673.7281259169686 43.220496693406446,675.5519341674249 40.93857754618254,683.0490047833442 42.64699445091269,687.1592193091305 45.13802572552806,689.9325149834515 50.7213829389998,690.0303365622742 58.609798972720704,692.01969616204 71.37295750689793,694.6804114070626 78.69204781071004,693.4460023695142 84.47873355076833,691.9148111389004 93.62799430145387,692.526237415599 93.65154363804807,700.147220508495 96.36146951738081,705.9616026325234 94.47228310794188,714.3203492019727 93.28567983612193,718.153889299941 95.22674832269783,731.7679824276094 98.57956386749275,735.1160475343046 102.6482284714565,736.7764117176048 106.87082729241408,737.3749632301149 106.71695589894337,739.6612030795566 104.73699378608985,741.6441139196003 92.87021854050751,751.4329736487291 85.86296268667127,755.4012133908641 82.41000637053254,760.2241928966754 82.69028426247382,766.9714106614845 83.86143302591954,774.8282121190812 84.38027646549455,784.4748323547062 85.11727592386114,792.3596630070216 84.61690403771422,800.1179030942562 80.66328131823082,805.6192760972308 77.7607069806064,807.8933241606314 67.39614554039764,809.426881341596 51.51102991626614,808.8742149299281 48.15096153509224,810.3610107853448 45.07439636962634,813.6569644746149 47.77176861512083,819.3749712472119 51.554215928262806,829.2995189576692 60.66937051017123,844.3519195411486 65.46601812299494,853.1938496370026 72.15347227731976,858.2099797693513 74.78901922255997,861.7884088731739 76.97107520635016,873.7364262890436 83.66419671308914,878.278776619783 93.23080978122098,885.9231992965525 101.60762240794114,891.1728912024412 106.15064655639254,893.3132261508513 114.51486493240996,896.4092091310986 123.84495956824733,899.5014754573281 127.67960107663133,903.7953314374558 128.1750720194505,910.001247954358 126.98923807857472,915.98394902616 125.59285702932647,921.0532444568687 121.2057228235017,926.0210761275849 116.51007902342906,932.3737150048755 112.246215312162,937.3296257907039 111.76057539749135,943.3753371833436 109.98819808955761,947.5332696827097 107.4298514256911,954.8984705992002 107.73958009359596,958.4400047372259 110.13442174165911,961.5497377609498 113.24792008334303,963.9280948182179 117.07579733852876,965.5962206064231 122.81215063795356,966.7826841017803 124.7382811153824,968.6832370024338 125.93516734928374,971.7901907145184 134.07709600085798,979.9013815739352 141.52138186052176,985.0119782463304 150.61422422407185,991.9231224930423 154.99787170756906,994.4278476216726 157.76307260729172,998.3885237252462 159.97119578636975,999.780415935459 167.62607503296763,996.637412311252 171.68547462857316,991.5979842570142 175.85788075105938,990.0418332412708 179.62142516991847,989.1623449583856 185.05882056465632,989.0623940524234 198.44535232778117,984.0392548129685 204.6948701938729,980.3997142214309 215.8866696829427,972.3559798526608 221.7898697743486,966.8446005869569 227.91290415881195,962.8038538478954 233.64653450287142,959.9135906872524 244.20269084735259,959.0015685339235 251.5847468269543,959.3942465302543 261.37503094167863,958.6566451349025 278.0846377885455,958.0074039056808 286.60965499883974,955.8755271270085 293.30955328358465,953.4307474884633 301.2038739066289,946.1118173901915 307.1846929509556,944.3377866755641 315.728263275755,943.1207300852437 330.41669171060204,939.1143083036933 343.8573677115017,936.6939885197316 350.50676679840956,937.9063362836291 358.86304350860985,939.8023981862555 366.74904892702205,942.6749883006901 377.654927781243,945.2189458629304 385.223994525639,948.0028758929415 396.6318237879153,951.4658223562641 399.0268531048458,954.0965166166277 398.8019384333255,958.6369175408863 396.18878367999974,968.2079189767186 390.9496025946705,977.2964446265568 387.3851665180366,985.4406769713017 387.21283298294225,989.7849185008771 390.51675828862125,996.4252295192281 396.5056622919129,1000.2358907596478 400.5611680931575,1000.9427598980664 403.8434758752817,998.3308802467097 406.7825735816106,997.5813656195503 418.2417905251467,988.4590252842117 424.70341882810055,984.6078228968404 430.6784667807846,983.1572072257262 436.35291561968523,981.2989467084774 441.68444248497383,980.239991386199 446.72080907075264,980.4545981545136 451.2762099729911,981.6360692248003 454.3994574480239,987.1215125750517 458.14060006044633,995.3407488074223 467.12429628631037,1000.4598944733895 469.9994765060053,1002.5973710509967 470.96315984260804,1005.6970178730306 470.267052958365,1013.3529495405392 472.1875863116924,1017.168364433686 475.0750958161564,1020.9884458583886 481.778510937516,1022.6383238051291 490.63733443458113,1023.3220057268798 504.03363923253835,1024.0 515.7471155503575,1022.538021028585 522.1910966635105,1018.7013069265552 526.4770498182754,1012.0850092402113 534.3286213396763,998.8456802312317 537.8841083687279,987.4772910313166 538.3472834596798,981.0218317277181 540.4881891312666,976.3629791317582 544.5288283586186,969.1854528249504 550.2608232307596,970.0228006967994 553.6013575530806,969.3030736053827 556.4576266956318,966.787603107662 560.7591319094984,969.5370802526489 564.3411883913271,972.5262109399032 571.5249027907663,972.6151633897823 574.5334644680199,971.3744704564875 575.3076351086046,968.81361652244 574.3399856406319,963.0853845541516 571.7036740756663,954.4699200340934 570.4948261540006,948.2522246847832 573.8198983915862,942.2835665380295 574.0409014434151,937.2580085146753 573.3202888680295,932.7130240735152 568.5517683802661,932.2420703599051 563.5434220888018,933.197973643619 554.223916569197,926.9816525470482 550.3704080120899,923.2659409550779 540.809122929513,906.187809277997 538.9045401013253,905.2323542952962 534.327688768129,905.9517728363388 530.3026059664853,904.2811622595599 521.6706202309091,906.123234112335 518.314802875391,905.522365350621 513.5432918073849,903.5234740623661 509.91126713041876,902.6384482066821 505.62739183359383,897.4567995332962 501.63159677837035,887.6937437669349 499.48038345654334,881.5882248191514 496.7181597401375,875.7934546690902 493.32882789804603,865.4235051364437 492.09447386363763,858.4072659843598 491.6191439235935,852.532090678767 496.69336580174235,841.234204345297 497.87055418622737,833.5797454747035 498.41853286836,818.3860158077555 499.78234266660206,813.3360539245755 503.0772998414423,810.6104187986645 507.3727072257976,806.3020882640018 507.60498499584213,802.4773118260127 506.1545668470118,796.7346823865494 505.42183483361345,790.0440159097465 505.2046864414276,782.7871019548827 503.9635720467806,775.7661475910445 502.48458004747243,761.6033316904955 501.04192872236234,755.6262933492212 498.8659270332137,749.9817850097744 499.4671856089131,746.6255877085841 505.2615790354312,742.0255196490284 508.1688953074612,738.5155870242473 513.1905696222547,735.8939387021449 517.7582588188297,732.8383808518784 521.7073894963653,727.025393120055 522.9190990923604,721.527678846344 521.5038348511798,716.4995973360074 518.3829799194592,712.6747714213916 513.8467185464948,711.7358591010552 511.2031404277181,706.4723961239358 509.03021600673827,698.1135438597273 509.26044458035625,693.5712328350721 512.5785856268037,684.7255981153332 511.85415526129583,681.373977496544 507.5502170076936,679.4742503077445 501.56724129073575,675.4231439920516 501.7220066978814,670.780511905152 502.7394739249082,666.0925528355202 508.7048885749436,663.4556383896688 516.0703220677046,666.27787721809 524.0090631244178,670.8482027218593 534.6909642818505,672.962712536365 542.0134884447525,672.0487494838491 546.5784432305929,668.6849927737467 548.9994299843887,664.7113721084553 552.3518220620634,661.0494978625309 554.7744881076485,656.2223180827086 558.824042306646,650.9636867662139 562.0587286734841,643.3344769014597 564.0332893513996,636.2519570097975 562.5973244679761,632.6685505226419 556.2200997531734,630.5009026815707 551.6047156582858,626.9433263078106 551.5858041038433,622.1611068827883 551.0948078822528,617.1409456062894 547.7539419565438,614.5071134678967 540.5887681401832,615.469519385892 532.9614142803393,618.3530906393994 526.7463904287125,617.6413048157277 525.2988610501085,611.4254118641865 519.7843251783872,601.8786599037055 519.7671308319431,595.8950547674912 520.2037505081117,580.5987914836868 519.0565886536644,577.88522069025 518.7977510658501,570.0463126869214 517.4874366713145,561.3940282438775 516.2560900874134,556.5132333049438 512.3516924692465,553.684601487746 504.02387536993507,548.6837744633848 500.6498514343363,545.5574185459361 500.032319474376,541.8996682852446 499.56069582854934,535.3311920401259 500.7835935611551,530.8907120724529 509.52428724715213,515.5994331206991 510.4836204440789,508.44157862893564 509.8505443375491,501.7230039207583 509.83155745507025,495.3131338447622 511.61485810737537,488.58299672808596 515.415577226082,481.64330422113176 519.6933091345934,474.940507097907 521.3542174861661,470.87403782102103 521.8246061630566,466.33602654302797 519.8200686894609,462.6235896820783 517.7430449474828,461.07957785845997 512.964701729892,460.85720797322335 504.3523040987763,459.44078870617693 497.04443391737243,455.0118091974459 493.5752958541708,451.81812593195514 492.36592157760106,446.80753641927436 493.2974727214328,436.523311655773 492.3270480616699,431.0268947544009 489.2022009460595,427.2120567263487 486.0910319274983,426.03498992396 479.96674581375765,425.0455094133963 473.3920792444361,422.49208221139975 468.8310531340283,418.21003721751276 465.95249819932104,413.9177523857304 462.5866838062098,410.35389440112283 461.60238208714475,399.839491493035 462.77328069837495,393.13720538728694 464.2912307421741,388.95372237737206 464.9185303301152,384.2832008232706 464.4261313513356,380.9363884583912 462.7311168166992,376.3995487160239 459.1307145606019,373.54836955294365 452.4235816410881,373.4612348181382 448.59988894163814,375.51873923399967 439.98092333336274,379.38426408004955 436.39683861989295,380.36015804682654 433.26967180289927,379.4188864292305 427.0204250003322,370.7227992842493 417.9109104380713,367.0531674689976 413.8245978097433,363.9634911816901 408.7423884752757,362.1629809870435 404.71729845443633,359.6974902053104 399.45008211332015,357.5719856995728 391.07405383700365,356.88365905414935 390.34460065842626,354.0134166975654 393.6889684186971,350.89885945827814 398.9323505238244,344.42814727039865 399.86996352896335,337.73405854265616 399.60746701917776,329.9835624512723 400.20661354955746,327.5428405574678 404.7842750859088,322.6334394564959 403.1624099094657,316.92758450437043 401.6970899947861,313.79428424455364 399.08113595188615,309.7672575698384 397.1310125797013,299.97637509514084 393.7625163208697,294.0043160218813 389.9201492758168,287.9280479430979 387.2800990727076,282.4371505843869 381.0478176154076,277.9192670426323 378.400555130617,273.61754179614366 374.30127540064007,264.56258000814887 370.5110065537229,251.16855394834647 363.702119464112,234.70056524130234 364.4026216628528,229.92306916206178 367.98242743986333,226.32657688864094 382.3113405448144,223.18273820165632 385.4118442416488,220.53654383012758 384.4488162514664,216.47461309568405 381.1957019123281,210.85352077442474 381.06906722584176,204.11418363978726 380.1218159689094,197.0195943773491 373.8395816423537,185.31467279632966 369.7525205105842,180.78456924036948 365.20069826367666,176.96991123751184 359.92724775838377,168.37321016885028 359.1128787531306,163.4090581922934 357.26366602055003,156.99834187575425 350.66896123103663,148.51730475151624 345.5252910013452,144.11912135954083 342.17744822314427,140.663336259027 341.95925930722296,135.03515379537987 347.13838669334893,125.59957102910619 351.17848711659826,117.22733331985319 354.2588814388495,109.2209247000153 360.16354230712193,106.61202714491901 367.803591226206,109.65560378609928 374.5216235459421,109.32503906624754 384.59747291193503,107.7697973480557 390.39734082686175,105.61250929227731 395.58527607523473,103.14746102897902 400.3701012137937,97.84294354705776 403.2075747917199,86.1141989254985 406.2976854518924,78.92640826374384 407.47521594484766,71.50592391595512 415.82272530927173,62.1481647607726 416.66929437305555,57.65115151061843 409.93740959296434,57.677331680525526 407.0530715845585,56.97049091458439 403.5281891017731,53.68556981136146 393.1997178743207,52.65831654288593 388.23220823083034,51.54713329604829 384.95753906205357,51.61441121663438 382.5466264797227,53.97843397675615 378.0870862223765,54.62886098665331 376.61598769646747,58.142978017648375 374.30873170421444,59.68751545958423 372.0967501861528,59.90937135522938 368.87527676465857,56.250615582313344 365.996992627253,54.59097609078378 352.2608209991904,60.66813686653177 346.83580138348,60.98557198965136 344.07033296660256,60.653391702395766 343.18958784935984,59.31806917387098 343.0773197857778,55.994002675838715 345.4397490694153,45.148822220407624 345.0940038951979,42.96502063339278 347.279356987702,40.48285591179308 349.27504637976955,36.15174630826107 350.57871248607654,35.31128729618979 351.24018899724297,32.302636077116176 350.7871823030078,30.09056893621198 351.70155917214333,28.78575226603141 351.6672613416524,26.106166783591448 350.16250314952276,25.036949820443397 344.92810457674886,27.213121677338904 343.0350557064962,26.396054000472645 344.9702098791408,24.74699261052524 344.0173502452325,23.473929126694202 340.72127116810566,23.560729421666224 337.61983815957234,20.21731251534743 334.5181203429936,20.83180033220856 332.6477310982472,19.687214927757054 328.46689678458193,19.154158254410277 326.31879335146067,15.794426964061586 322.2448666093333,11.975738498936835 317.8127959629482,9.15607180667098 311.19438998990563,0.0" /><circle cx="367.0658422292371" cy="751.6516385053103" fill="rgb(100%,100%,100%)" r="16" stroke="grey" stroke-width="8" /></svg>