<?xml version="1.0" encoding="utf-8" ?>
<svg baseProfile="full" height="1024" version="1.1" width="1024" xmlns="http://www.w3.org/2000/svg" xmlns:ev="http://www.w3.org/2001/xml-events" xmlns:xlink="http://www.w3.org/1999/xlink"><defs /><polygon fill="black" points="375.58140215284334,61.10666266752776 375.19687467685907,55.74300495606985 377.7712973520389,49.12683684894898 379.1817470562542,47.6415141389399 381.2021570030412,42.599012114178436 378.5078132488675,41.26755861056722 376.3763262595273,42.264119204480494 369.7216441173315,43.948844744358325 365.33819146328443,44.56248778621614 358.71661951188617,43.71164557406189 351.53203158209277,40.973223249059515 343.6204241223148,38.562358442600726 341.6580391745131,35.398961418443605 339.4201945893489,29.388161813265583 333.8997596102053,22.374598649569407 329.56801745188193,19.565229324636107 326.85651930641353,15.792481840714231 325.43239550117784,12.527589562366302 320.2507832799301,8.792394898349244 304.8085594267665,3.0986705171299036 299.87905604933167,0.7605005872344464 293.3592846653643,0.0 283.56406598513627,0.38017707105018417 278.81485129004767,2.4650883880352694 274.8040729583656,9.972178315796896 271.84010410254706,12.706575079021604 267.06326498704914,16.026437503955663 262.80823372089895,21.10240678772209 260.65633163691183,25.847765586800847 254.85041800171422,28.065925253469914 243.1174094244572,28.142874405776638 225.58462389443594,22.968203868624073 220.97178566134468,23.805274089476484 215.41851958315237,23.386736379859144 212.31540976203885,21.922533798364725 206.90090832075145,31.158797799236027 205.24385876709522,34.90079564745554 198.96396733783942,44.975528200570125 193.52302269878098,51.40044839461905 188.14529371875878,54.35298885882253 184.2276131528508,54.93241911434268 177.17789016783232,59.38954834386789 169.76567211983408,61.6008560220655 162.95576973359843,61.48871196525761 158.73928168873923,61.85523550359892 155.98010210100503,62.8506607138371 153.60216578706232,65.64349588431082 153.29530773758606,67.4532155939977 157.3124653558978,73.22953491954388 159.54132831787751,75.77933563645729 161.33084200516586,84.41115274743913 169.94817848459962,97.93453439395296 178.511367268157,107.63742428151022 188.3727368503431,117.75792759799015 208.44854287719127,124.41402885678463 216.1677600260141,129.8764657937195 221.74562470159873,136.19290466034715 224.3688386356198,146.78540372042607 218.5128016051456,160.83182247493335 189.75863664544812,193.68213938238227 171.12752430612892,211.61699155212318 158.0070079909855,222.30412988012893 141.4683403991841,230.87946898845462 127.04349923387043,237.7429007718257 114.54532141038031,246.7097746567796 109.80732574865597,247.64642683522607 106.96822478087215,251.6504198816301 103.0622814469088,254.9078097629597 102.7210050221909,261.0839296339858 103.67222284786727,276.44475523385006 110.98268577563137,279.9931059412853 112.16514346992106,283.3041440732396 111.68793681061496,285.42141487232925 109.56824105993005,288.9651199078405 109.80436033007493,292.9830849615241 111.45628017203899,296.76562745768274 114.28589112144944,300.5463940052406 123.96105460210936,309.53120666850543 128.92795165038984,313.3195801791228 133.64178928390322,315.2138954470837 146.866182050921,314.7628704261268 157.94193425918618,313.32215741446134 163.39633528012425,315.9737824491823 166.58043992487632,315.73308657617406 172.38639034842305,314.2692646798246 179.5233450557944,314.60465281550717 181.78133340754664,316.0634620139797 181.42473754042476,328.25793745131887 181.50703700739643,340.5441944935982 182.42096546105824,344.0405047969805 184.0728351317628,346.88179793908864 186.4237033478175,348.7496269859299 191.66764966401516,350.6028191410402 195.38287233255937,351.29029683555086 196.49588321088976,354.0399166425249 196.72780152401995,361.1409601379505 196.33719271367423,365.48961224781794 195.44304150108508,368.2633642274658 193.50270455937542,371.0612858428591 193.57393674939314,382.4179468397374 189.37544667444385,390.5104741262784 175.3823690742371,399.50939964147835 163.09629998017036,408.0656045629089 154.21813741049434,419.1430252347142 147.9670363144818,437.8412091657424 143.4140986905414,456.51790002929727 140.96509449158722,473.9337434086975 139.7883493656101,487.51069883495154 136.47776739476652,503.2186844160983 138.28493834286314,515.0835266892573 138.34034171142818,525.6901334298595 134.1379260901062,533.3444559606003 125.65107671385611,537.2093107260765 114.22162320573052,544.4761467102223 105.78575667176911,556.3969748217278 102.02279151611319,566.5924145218339 97.83966098923032,576.3680330242391 90.25121168718645,587.8592660890433 77.99279217199224,597.6769351544262 65.66951717221895,605.9589095632903 59.28823955948535,609.7258556008962 51.02803361403004,613.9559431882706 38.98858366117338,617.9456316867708 36.39223149260762,620.5391172608711 36.39543359853988,623.3759292779368 37.3396900537388,626.6838617245903 42.29357593152159,633.0610247582401 42.297671691046844,636.605184996029 34.7450856054086,639.8912990613256 24.612457425669295,642.9151403922019 21.147152477590122,645.7760125658349 21.000309018154073,649.1055299371296 24.902011508756168,652.7288560973745 25.338206799042236,657.5020749930909 24.62151720146696,660.6896240400772 21.868055593611125,665.4569888241681 11.154051200823204,669.9251298334884 7.537500533184125,672.5303940554095 5.363904039829957,677.8802500068884 2.6100899534764275,682.9454846008061 0.0,682.9368945335423 0.944093219986646,686.389401486482 5.496271071346055,690.1253937389845 7.608282333135071,693.2989629929211 12.750285249733176,695.0677142961945 16.626675230381167,702.6353174786286 23.341746619499613,707.7426414648387 25.430237149133863,705.7405736607237 25.335895238047566,701.9298859921753 27.512070197871275,699.1814690088831 36.82382994383722,692.058790015616 43.36263117845242,683.3631405747985 45.8562738711371,679.5272175364196 47.062060809696476,676.1353395533899 50.95286738272754,668.4665365713745 52.829643657734465,666.0052263720245 56.555744057285914,663.3361109159157 60.73380825323253,662.768053444135 64.17097904079304,661.6471877013271 67.65921640503231,661.2946592339526 80.71512318379554,661.3591371992511 88.62353328686619,661.6465840068709 92.14339538619241,662.4398237534823 105.28268440597105,664.6451319941318 105.32777288913086,668.096645047214 106.51408520290252,672.6964132805947 105.4428801400838,678.3734364415077 105.85972401489586,683.5279748855194 104.44383752017092,685.4650482048407 98.66053051245225,690.2395818271135 93.81426428302696,692.479529973323 90.9136163944821,691.5002931783747 88.35508613562195,692.6203789898375 92.72096826587942,704.2337870514057 93.80811442951196,709.6836786558372 92.60146988359121,719.3086256279822 91.9039357793372,727.3329905332631 90.4286752390574,731.3643124853538 89.83398246864243,735.2481329986592 87.11458792189143,742.6012186473546 84.83640876485171,752.5256707812689 84.14158828171169,762.8683008821141 84.61482707949364,765.4803989688024 87.50994348709943,769.0650563185577 92.30760870300684,773.9173133480131 94.8751061803862,778.5577871619257 99.42539366493352,785.5415241851701 101.39276287654198,790.0179666092411 107.3915886519049,794.8700285986101 109.78784561076618,798.6384271175368 109.79362713004166,802.5954731245333 112.36489670698786,809.3170252500604 115.2741875898971,814.9918408917497 116.32302257543897,820.9267812368763 115.7921653917503,827.1214541664453 115.99793016727337,830.5560202471585 113.75732273471256,838.5049123981041 111.68045900958026,847.6126871050355 108.39032928379963,856.2722424113124 107.28914174859698,862.6528713099578 107.76298583109988,865.3482277659369 109.45073199433651,868.9972827221712 112.28643282737796,871.9150788669417 116.00347682723176,874.7500555566362 119.6377657809515,875.8741441478221 123.99573912082026,879.9375338293665 128.17371398651716,883.2234101231431 128.9274531944431,885.0165206200222 129.41039271070093,893.3853477197663 130.49662892747145,895.9982289206861 135.726662527694,900.061879086635 141.59508225766353,902.5967502398979 143.62242885707226,905.7431890437327 146.19666073638496,913.9437907422958 148.86809437787082,919.0685713252786 150.1558283841649,922.9438636593078 149.35476646536043,929.2112352878003 150.7795510350402,930.9328034173709 154.3555990559252,932.5785854499258 156.827672847647,938.2887240250445 159.9406820567484,944.0273806040037 160.08180757573984,945.3714552411503 156.55550882761864,955.6356198688226 156.49022187912072,958.6206180275451 161.35942252721406,960.860361131588 162.371767715651,966.8395332136793 163.66571198094715,969.1463641427271 163.94223601009614,972.3566837963867 165.26034756400227,976.0485100470938 167.6287500473083,979.4089279110108 170.9368356203398,982.3177374364345 172.77674951840217,992.4727741883073 174.775552002325,995.7930201720781 182.22368242875137,1006.0102933553095 183.71045787971158,1009.2184186399871 187.09070163143562,1012.7953045364515 195.11020534668316,1017.3061319198692 197.8815714184437,1021.7838813855701 198.8953391619875,1022.4504478388588 205.79674795445504,1023.9354948414527 209.85204445785251,1024.0 213.5129996909937,1021.7857924278611 216.55878361715278,1017.3877534639333 217.14137182171444,1013.1796388055516 215.87748145736057,1012.1247915599296 210.20593613062033,1009.5193095647011 208.40851413644438,1006.8433804801933 207.658227379829,1002.1452806706116 210.04054042878144,996.5394465615399 211.31970875737971,995.1519493258365 215.08435701019292,984.5235250861786 221.01625194749545,976.8478970634035 228.62177263954433,970.431601176379 238.4237886630201,965.6918745622938 255.88695018282715,963.4390306971792 273.4055922391128,967.5359178633151 293.0555727220957,971.1858304972557 320.77465311660796,965.8469138035981 341.24558681685227,960.9949880676174 369.8356492522669,956.9197323933084 392.42732983105185,952.4776966932365 416.4003839935289,961.6041380145376 433.90038974647416,962.3015037012769 455.1953911294458,959.1696319835842 475.1912738490788,954.3695068400059 492.6471528862151,953.401322044983 507.98983002431606,955.0032917994414 533.0805537094996,953.175298850343 549.2258153784431,949.703514958986 570.857433290719,943.6556613121386 586.9636737437694,938.0794985786247 612.4223136688048,933.7374721926219 626.4088475645838,929.0273723920961 636.9656193614485,920.5039882894544 643.7125940412493,912.8467715983904 648.7562332041274,905.1941754970154 659.6854569986816,889.8889546447683 673.176912868309,872.8728956938883 688.7854534262756,857.5489937082018 706.5482714174533,846.0202344261946 724.7997826473604,841.2671754671175 740.1057688147555,840.7603878726907 752.0502763138131,847.0559277412153 765.7878772978021,862.2424010049206 782.2080271476177,868.8459007551538 786.6512675626916,862.1074630317792 792.9246332427344,846.7997919537884 796.6469886934391,831.5036821563936 796.5821889486953,819.6303997102389 800.2625114511895,795.4273149917726 803.094827396848,774.2038641981424 806.8392493225272,762.2942639429373 813.561463423051,747.4114479388339 816.8792937593455,734.2351531385028 806.421932133668,698.6909182733712 810.202405954904,690.1771836057447 813.8694221308716,687.4452187887475 818.1113164164698,687.9177881709497 829.1511375920453,692.5263075419357 831.1271059564895,697.8981910959249 832.9942407249641,701.4650738829444 836.057739433206,704.2688068404406 846.140092576206,721.4066677303126 849.5277383171793,724.7827029899149 854.509199742999,725.2491278679797 866.8878591544001,720.5254012015096 871.8453995937558,718.2064300552206 874.8311669802544,719.3489476097824 877.8839009769433,721.8447609113372 883.4068592595775,724.2966579748108 894.9409309991041,730.7882666127812 896.9629495916511,731.3520558067031 902.8263830723678,731.6499343445525 908.435371597983,733.4970772682857 910.6057541459434,733.3211057582478 913.5660038568869,731.3799633248291 915.4120138204253,728.6019665819081 916.4556285672953,725.4910758257547 915.6100727710087,718.7418803424596 912.6440025777702,713.685078364674 909.3278031139943,710.3911155144662 910.9566132642669,704.4087721914793 912.2314436432478,703.367034627638 917.020341818238,703.1774678729782 922.8431473541771,701.9083588511241 926.9720045990603,697.9091086509455 928.5524060877472,694.2842348385532 928.437279875995,687.296059766025 926.8911171050664,682.4357058417683 936.5566082756749,677.9479821884402 939.1074427292672,676.193798550021 942.8727819416612,671.8591054016165 944.8954261871511,670.4150538324085 947.8030808210838,670.1125531742505 954.1522239472915,668.4082918685517 964.3202409769444,668.3832269773261 975.754414013459,673.1692604833746 976.9434040620632,678.5312440341302 978.8892672727267,679.5761587187981 987.288977888312,679.70413831714 992.3725741954645,678.5075739980975 993.231758303289,674.9269182845932 994.5712768780268,672.993586193576 997.1239877548737,671.6683224677963 999.4649074291535,668.3238463655274 998.6830782045641,668.0615300702232 996.5375282208923,663.5549559494752 995.9551975415228,659.4915419241129 997.2742535983266,657.5064494291503 995.9915937410873,653.404331377494 994.9567607321476,645.1730707300475 993.4248273201073,639.4852886085309 992.070278797117,636.552059470469 990.098396151586,634.3703797414548 987.4949260464879,633.6884566231383 985.0776071290952,635.8628731554339 982.895988691439,638.980406376687 976.814140276238,645.6821996297888 972.4597243763595,648.1040752821989 968.3736442535431,647.0299876779334 963.6896408627154,642.2813066546581 961.1010475063069,638.780490446653 956.135458736215,633.4905826780039 952.4838950780731,631.1231411485363 945.3741860499716,625.014839926127 938.2447182468956,620.7804748657782 928.3229641085238,612.2179913002024 924.7365909874494,610.6886351710959 915.7266924601082,606.0744865145327 911.5815569350863,604.6737389163961 902.7809931977357,599.7302084885562 896.8727149210935,597.8030393498045 889.0256464579221,597.2910754114193 883.102637840811,598.0376458694703 872.4333498205981,597.3522442790315 862.4714921615288,599.8609186056868 850.0827065197473,600.7625066506387 839.7147168607147,598.1277638543254 823.0809075679023,597.5316635890982 820.6849352915838,598.1171164095425 807.5419359691997,598.1272793710496 807.2579058076577,597.4027015965039 801.5709091947863,597.2237302409526 795.783558489535,595.2117860965582 791.084000009433,592.5298762774482 789.0031808853137,589.7339780837815 788.9358089476207,585.9843796923099 787.00226288289,576.3249866617314 782.3618994197473,575.5166529043407 779.7354826932349,571.6880036881955 779.3405182151919,563.8251786681212 781.7531566517292,558.1809566905465 781.7548859606884,556.3680272653139 779.938801554275,554.7578442721808 772.4825608043808,554.5565768066922 768.8550591181589,556.7655221652683 763.2062280241631,562.607468146558 757.8881865299475,566.6663466044155 754.9501119206386,566.6183276270974 745.2246176343878,568.5150276690092 741.328152153213,568.9210290269084 736.6321759429458,566.7694120925855 729.3746304814822,559.3048827723961 726.2771208640262,557.1164884801742 723.0970650855372,556.3005886604376 717.2745293888429,557.3403475022058 707.7900324945097,561.691670727332 703.5423674933232,563.9521247967559 699.427511264216,571.6191693483477 697.8568185259923,573.4497620774932 693.6158956254197,575.0026002249838 689.8432699261546,573.9016498421468 686.4249436292366,573.6509939086998 680.2436006018545,574.5060452135001 678.842284794568,574.1006933410797 678.9278069120704,568.0690693366528 681.1731254621641,557.6435410673273 682.3643545430513,553.2869347034646 679.0816978861919,552.2356376640032 679.1669115944608,548.5798529085633 673.2442879862742,546.7707851047503 668.0087420784724,546.7605672860711 665.8943276208761,547.9579670091236 663.9073674545746,550.536265989753 663.3172341572107,552.8737479335771 656.8180367613472,564.3290439745716 653.979079026933,566.9199047365623 646.8992756528783,570.736730873505 643.6935589996606,571.0067652494238 641.5838961084523,568.402191511268 631.1579835639559,560.0468887776562 621.2546247197208,541.4154091503556 613.5377153614774,529.9860299525542 594.3666906452166,517.1566575612742 581.9397479208745,504.2307038018123 579.4180507621684,494.47361222825873 579.3854735092126,485.5351768434384 580.4291836739726,476.0002380533558 580.3136265042194,471.7841456635475 579.1702831615148,470.46799354654206 578.6758815286585,460.77569657020956 581.7331015431608,453.19998315786347 590.4540386855302,445.24594305390144 602.3725708054467,435.5481215081455 604.0170673891184,432.10315681874874 606.9724928523708,416.0443474173446 605.6896379145275,401.6088694639235 610.6089351541065,392.6682720053624 612.1135758217208,381.53877646005867 615.8479268131913,368.3767197573093 625.9555357422857,353.9103909768452 655.9281780918631,329.6278894487933 656.7723086295009,328.7856259884302 688.9832874967707,318.8946807937126 679.0321769896813,292.20668581633845 670.8600571326837,278.2478371560345 664.3336682463105,253.65806712018878 654.8609254251566,232.91693863084367 649.2302400849227,217.23410846554464 649.9795968378161,202.3849649663863 647.6839829402163,187.41648761149827 644.2833830367055,185.03745370494573 644.5797372676901,184.09554319347308 638.3296401609357,175.28703869675996 627.6919214455856,171.5047182440842 611.137685116447,172.83710156402776 596.6888986744683,173.73994765950943 575.87043621818,173.40780705994268 558.7707534454732,172.89742127986494 556.7950339551272,172.37300386561515 550.1622080155612,172.5298901684282 537.1742463752253,169.7643563595276 529.0640670393892,166.4091151647715 523.0389639081205,154.5614302952547 514.4566699139618,144.42959347764656 505.88250855578946,135.99551190647446 489.6881783927105,133.54520523256167 479.1545334630985,133.16074282864474 458.1689486490565,135.0362556592222 445.80258329732203,132.161453465004 439.1659057484064,127.32615501396128 434.7067781731414,126.56182127825082 421.93708084136654,125.10905336817211 417.0202773515644,121.67909150580658 412.8448717160773,115.80433125135585 407.43914452587916,101.60358105178261 404.9748019680043,97.68666217790917 402.029969739519,96.46917636934234 398.83965172948024,96.23380713410313 395.4027964334854,97.21387415925176 392.45176043804395,100.89061150045598 390.72692785842673,105.06571991280919 389.74427896684756,113.64234262619402 384.587594162592,116.58994100672464 381.038975405686,117.07009193174838 379.25168429621584,116.22502204903935 378.71880116924575,103.61567212805585 375.8242327902282,99.4144259125161 373.5168095737806,97.82630046509962 371.52424577650186,90.64853781551233 360.0308136776167,73.06309351515029 360.0910537315624,69.39449592939673 361.95665645088854,66.66181368606112 364.6846010989185,64.90641510753369 367.9221955025735,64.32551014184389 370.3012109540568,62.959858878575915 375.58140215284334,61.10666266752776" /><circle cx="583.7920854342719" cy="595.2219933107132" fill="rgb(100%,100%,100%)" r="16" stroke="grey" stroke-width="8" /></svg>