<?xml version="1.0" encoding="utf-8" ?>
<svg baseProfile="full" height="1024" version="1.1" width="1024" xmlns="http://www.w3.org/2000/svg" xmlns:ev="http://www.w3.org/2001/xml-events" xmlns:xlink="http://www.w3.org/1999/xlink"><defs /><polygon fill="black" points="738.0270103886306,648.1026876628704 738.5173337177097,647.674564483776 741.3566302982366,648.1232838963789 744.0421968300236,647.6710249199309 745.4666971643849,647.8507888488833 748.7610361500692,650.2381908642153 749.2845503135782,650.9723889914324 751.923317018943,652.7894111467367 753.5333028739678,652.9507105487867 756.5476372636168,651.4364368822622 757.4052215788029,649.7753779688087 757.3665840482367,648.1897072593771 754.6956248926439,648.992590481173 752.9749536270808,649.1011827801796 752.9050962744029,647.4426990013012 751.147237688069,645.1199848320324 751.9715971415097,644.1675059858084 754.6106653379263,644.1704319864328 759.311674873287,646.0773911356363 760.7590373444433,646.435239948359 762.7624647733148,647.6490536673106 765.0759885372046,646.2237587561054 766.2744075516001,644.6647548469857 766.6422386641607,642.5622819423043 767.1494983951889,641.8572397873762 768.051604097566,642.3507281907858 768.6321104983734,644.4099676348577 770.7515876785326,644.9631600047603 773.5597701530653,644.4594535253386 774.6520479572091,642.6250166811147 777.131530725323,642.2299647915464 778.6210232256566,640.0004382000086 779.3261609651514,640.3747911735135 780.3475237104992,642.2417022021671 781.7693822550349,641.2812661219682 782.3434643580364,640.1362959263504 786.674700038496,636.8159742391579 786.8439476648304,636.3018132910404 785.7882392955077,634.199714113686 785.605635826738,632.6731963120496 786.8920006800197,632.5279242646192 788.2095355497745,634.122584761423 789.8805046129683,633.370643468546 791.52813569352,629.7978038482029 792.182694310996,629.342666426174 792.7880396742553,630.8563098312011 792.6781870274232,632.8984630033586 794.0572002314469,633.581329586588 795.6693025727532,632.2445705229993 796.5206524936474,630.1449410492801 799.0607798596815,629.7319516307838 800.8581612821092,630.0521509226496 802.4606279642254,631.3503934939806 803.6291633022951,631.6775652466948 804.6646055987472,631.2098353742281 806.8412676294323,632.2485775070784 807.9568323691926,631.6005505002162 809.3875312165678,629.753922201458 810.4097193229079,629.9118348067964 812.1369182253507,632.0863145809034 813.5945074608666,632.4426711459554 815.7568549360942,633.9531926872651 816.5307285143942,634.0330424795596 819.3332179076074,632.274293212723 821.298279534279,631.9980553308837 823.0162507289293,632.5704493683944 823.984741124819,631.7127737450701 823.9964469724225,629.3461131320942 822.1557052823827,625.5469320622448 822.2880610391495,624.5862434727558 823.5500437854743,624.9526030552422 824.9578674464585,627.9271874091162 826.2335952437408,627.7570893721041 829.9527267946545,626.0108766277262 832.8534802768929,625.6163611590619 834.4851874914375,625.075727539853 837.3796946186749,622.5183328359619 839.5315487502615,621.5799960181332 840.7881004518979,622.312416076212 840.9330269129155,623.1964594672716 839.0222783504965,625.2779499239978 839.8167179128366,626.178815648681 842.8325590023876,626.6849308519796 844.3298765510083,627.7147244055161 847.4530185325841,628.5693995483276 848.6081924729885,627.8390091353428 850.4495235953067,625.1643383462751 851.5420996342723,624.3939222763495 853.0139579741515,624.2363436630571 855.5013485862122,625.3183259712947 856.0064067112019,624.539261104685 854.4630517166103,622.3636599090064 852.220869523463,621.1002355104064 852.100470400772,618.9468824853623 851.2698196352966,616.0798958525212 851.9588121289144,614.4042148211702 855.0699860093458,612.7864085210036 856.2397036719967,611.6087685158986 857.0407250323354,609.8181317492059 857.1809696452016,606.3615090106839 857.0653989230698,602.258033309708 859.3048588595162,600.2211717920947 859.0221964763149,596.7136219234865 858.3647451155718,595.29170601901 858.8863275927496,594.2123643589991 860.1249142962413,589.6938740526384 860.0741510806886,586.6390359932188 860.9146950415804,584.7667697046684 863.8181029274779,583.940313188722 865.5430229709293,582.000349836346 865.6903978710644,578.3339572546984 867.6795407728641,576.1625238636381 869.7892254181137,575.2814510628209 873.6304404485793,573.036463799601 873.9547524873607,571.8947752097406 879.020606051508,561.997651606457 879.6847910190352,557.033659923335 880.3318237018467,550.0977958286293 884.2446715419526,550.2558349118287 886.1173344232518,549.4588270788167 887.9620124175196,547.3627341412957 891.1657087481102,543.0797923662317 892.73771522191,541.4341614509121 891.1866221260404,539.3605619670475 891.6336140559373,536.7075058356395 891.4335182055313,535.6225379784653 893.9326129832855,534.0534726648577 895.6154126427782,531.4972398849936 896.6818176695416,532.7165559684315 900.8826194942562,524.0613766732488 903.3655605472019,522.1193726849175 904.6257788115028,520.2670486387809 906.7389349036868,519.8558239127336 907.6317802116426,515.330770325759 906.7846082667585,512.8587978453529 906.8712054416262,511.69717726501665 907.9269568608016,509.969939011361 910.0431622770515,508.33329449789227 912.3845097745049,507.3833458024002 914.0878534455067,505.6467923165127 917.6163186159586,505.7183664417656 919.7073774716122,503.8056888973097 922.602959532708,504.19438899091773 925.4957467436291,502.9761504280122 927.6577783417665,500.2832744909025 928.0119847700848,499.1830593015183 929.5113801303337,498.3579387574107 929.8232833665872,497.1443681809533 928.7838997472873,495.66653701033516 927.7851072552044,493.45002263208556 925.1571446592346,490.1775922857224 924.4882438222741,490.1548239652758 921.3251627679988,491.8149697636234 920.3027620176804,490.7909934224893 919.1128467115885,487.4088169799112 919.4203309732663,486.6177289050106 922.0543678277377,486.0446890411642 922.0694423016009,483.5296797935328 921.0290937958353,482.6607052487386 918.186476237455,482.9931040278567 915.4026876301049,480.9806678889052 913.0984052128589,480.8838273981167 911.8299065285886,481.31530350876506 910.3044441480697,482.464410931408 908.039722870886,482.9830704163933 905.5803112633367,482.7825147574372 904.8374084222104,483.3287389172842 904.5288251168154,484.7767929746627 902.3916700105976,489.99828906582826 901.6004950844716,490.76414983918363 898.4534803385955,489.21802862832203 895.934047813717,489.92632046941264 894.0194431176402,491.2345402260813 889.5823807765933,499.7901733359102 887.9702775517694,499.9419665158679 886.4785005221054,501.398798257259 883.4516086493484,502.608418040609 883.4824664023126,504.1253717204943 882.3020357030186,507.3142044754601 880.7184973455544,508.83692038671904 877.1604088634252,510.39469412539427 871.7148235020716,512.2943495564634 867.9573543121013,512.8150873273153 864.8350141265997,512.3700940213073 863.4734421953609,511.29265344568984 862.1715766348733,506.951826256374 860.6028455654873,504.9926981449712 859.0482951869257,504.06406538681847 852.3290574076682,502.14846124046926 849.7492941693521,500.6810442953421 849.5109535446219,499.74281685048624 850.2850325586069,496.8282164131495 853.009473594249,492.0958081478623 855.1018058484887,489.35877394992224 857.1036600442862,487.6127955876592 859.0912360718381,486.29656926634675 859.1356321541617,485.0143677144761 860.3473414110432,484.1306732729183 862.2535378576716,480.59347086394433 859.8755292169644,478.7757713038059 861.3187383221237,476.75318594310846 861.4513986206908,475.94074173668145 860.0325797262772,474.3376788257893 859.7461502115847,470.57867576446876 861.417401350435,467.1668860070987 860.8681404535997,466.0551132959433 857.6203912936305,466.00092761039514 855.9111050726939,468.8857074523805 854.6812139513644,469.1371187166204 853.1156857924374,468.06321239998545 850.3873658840309,466.89891521074924 849.8551577871285,466.29748007773765 849.0253225985817,463.31651353275714 846.4928273223825,460.59294543013687 845.7517867090744,458.92427326524626 844.6385453866201,458.6632974499971 843.2181978753291,460.0354662224514 840.7666836432296,461.1538390963254 835.9929597245475,460.69629551027896 835.2861897157193,460.0567253407924 833.4092866329439,459.4969347119813 832.7146605670946,457.42244592444536 830.1514993715074,456.22268170152955 828.8479780391079,454.69111584294546 827.213000025193,454.5738881661806 825.214170435561,453.3186621110624 828.701901722312,449.69154230980223 829.9914393736252,447.67277983764876 831.8361799720634,440.9140865062395 831.971655662232,438.67531163983944 831.6325485653639,433.02326587169347 832.1880913199293,428.2843826388957 833.3662152960653,426.47024056078374 835.8879690104201,424.54993820724025 842.1727686955223,423.01825868581665 844.09631514372,421.6891543123974 845.62394398818,419.15774492416546 845.5308394903294,418.3080301353923 843.8038359926221,415.00941022700187 843.9032915001003,413.9789501928703 846.5802174142179,413.00475023079616 848.766003674736,413.72095531134573 851.6492414814696,412.8164501233467 853.8399441829728,410.7950659683042 856.8897165982872,408.53534463084725 858.206395790354,407.9507377108944 859.4611948866025,408.15252982194914 861.0703047325509,407.18343582712845 865.3977779190092,406.0806417822792 866.7910415606194,407.39845676995185 868.1079078975938,406.87057621111876 867.5235073877469,404.6266633681275 867.4474094074833,402.77263104190246 868.5127931228103,398.8061425457508 869.4391394546158,397.48166009181637 872.0784882992392,394.57108081362526 873.6708955059289,392.45185592301607 874.1337565518148,390.9961048157874 874.3594928460737,387.9890509792942 875.4822679980596,387.5524598440155 878.7251358659024,386.0670616267185 879.5906624855255,384.80802409150965 881.3087357478935,384.4039148757838 883.5804198395016,383.20701237455654 883.827038772119,382.4911579676742 885.9574633651395,382.210319701254 887.5343405041723,382.6908220242736 888.4937963330873,382.3455976753762 888.9104511093095,381.3116376668216 890.1461212206675,380.8977306788792 891.248174302175,381.1735489879488 892.8753044284751,382.34945712383313 893.9925707771815,382.26067684521036 898.466980970678,380.84569814855024 899.4814311646589,380.0300992926348 900.1794042947934,377.86666024711576 898.9050465198185,376.9614777364799 898.4899837079105,375.17856624088313 899.1380884108644,373.85794116782483 898.9153227217685,370.4283658804671 897.6543654799029,367.5481350917688 896.2167613040046,366.7345840583616 895.1428893350117,365.49511260438595 894.4679198224502,363.44870905878236 894.6197151503054,361.10740991401485 892.725913393675,358.43092174045665 892.4546630276438,357.3662728768926 892.6600913561331,355.170591230865 893.723771812822,353.49659568669506 896.5064959386244,350.0990717751211 896.8520764565285,346.95473483644065 897.9306691937094,344.2046581963844 899.5151797036306,341.6742739227303 900.525760276663,339.175996846502 904.0299807920434,334.6690174302857 907.6512483605635,334.1156181174236 910.3360954032754,334.0369715635778 914.9158268362212,333.1133605323751 918.5369316968389,332.5597511029336 921.344994554089,332.4787735668286 925.5533327280866,331.43836911936495 927.9693040040914,330.50494847359596 932.2298254881952,327.43341681835017 935.9232567265694,325.5508123996801 941.1058014147784,323.8721232358478 944.3385184955622,322.0684400607079 944.5437824297617,320.7229297521033 945.6383138513202,319.2020398508885 949.2976433765518,317.1658030351836 954.0065218759497,316.0836613864492 955.4017281677058,316.1837910275894 958.0563475434337,314.170007173355 961.8457859400722,311.96883393354335 968.5036831125835,309.7237393381562 973.9763997492705,307.7466162897865 978.4639388616322,304.4020715590147 980.566805955198,300.6009908046812 985.8829814223903,295.2781487087043 989.4661221059265,289.89382027374495 990.3839024182748,283.808635487449 990.9807648695096,278.83578002020295 992.8653114260322,276.2279379111328 997.878139127057,270.7328099007178 1003.8593292262841,265.6748039035348 1011.1802580050443,261.1766867549883 1014.46787063675,258.08505317295965 1017.334680014504,250.56453437259233 1021.5016405945074,243.1290351516975 1024.0,238.1926350580659 1020.2033008961555,237.0114865027664 1019.2108270617081,235.79239870449362 1019.2060761172564,231.76206959080173 1018.5093521284905,229.2216509650042 1014.7360885299901,219.41591604844416 1013.3339090620332,213.14153952985362 1013.1665190412791,207.29132994075724 1012.7638546315344,202.68875122768395 1012.8769678292258,200.2333081059021 1012.2673855557786,196.1109221140524 1012.1979808396528,192.48839246479622 1011.8943103837547,192.04948942473084 1006.2466232044235,190.64899603109052 1001.0331338184133,189.51486641850636 998.0944379293287,188.02105761954226 994.9167598288021,186.89429089871624 992.0192225181326,185.39951038626248 988.2903356978511,186.233350379812 960.5764703317496,191.32388102258915 958.2465538953468,190.75489133730912 956.7610249690816,189.91407177869598 953.9227646279463,187.54491789855115 955.1302263726261,184.92035032176932 957.4904426927573,181.4792202134131 960.640706280041,177.58244942644853 960.412118220774,175.37562439249564 959.1645157891961,174.0235912699353 953.9329062183682,171.51461446263284 951.5377925419651,171.30136105392683 948.8401161573463,174.0526053162016 946.799119222201,175.62426939672775 946.6270213043114,175.0460723415673 943.2812318272753,178.9287215447872 941.1125571531381,180.17952204151982 939.1068765978431,180.74242018900043 934.9306854662336,182.4507273593681 930.9575544378774,183.42170419256922 927.9121210651587,183.4993419322518 926.9736555011438,182.27898947189635 925.3178254000806,182.31132204842766 923.9085595721608,181.70271596152315 923.5933435239243,180.45690848714116 921.2624897682425,179.07139899730316 919.8774525141213,178.72894850979162 919.1454978118369,176.90060485163383 915.7868338448545,173.7227517086343 913.696745301688,174.78569726463445 911.3082212343257,174.32068335221686 907.0719144006852,171.91358785436535 905.3639927466681,171.13998896349653 902.3857526783888,170.86030704685288 900.4203440157379,171.38041161515048 898.5634096546279,169.4790698485566 898.0364946824759,166.21207500355104 898.1046991144176,164.5335852470704 899.5569143960457,161.05322311916257 899.086268848353,158.86700546294037 897.6460805331914,156.76678901660148 897.4190832201209,154.45579873412248 898.3267013289778,152.92683175388925 899.7973520715223,151.4305515300673 900.1609951186387,150.44150863016546 900.2288730275947,148.045784826944 898.3109577127185,147.53326286205572 898.5149242237765,143.942664389662 902.8054763518701,141.09212401990328 905.1251770427292,139.02720941945472 905.5598263171032,137.28744846320274 905.1045697474735,136.17375075410757 903.9667188085364,135.18282248803814 902.6612733868162,135.3145639171862 901.8836268891896,134.53587195176738 901.2573189276648,132.86839204601608 900.0242611382789,130.95138159689316 899.6982467820138,129.57022738473574 900.2084050564051,128.1362865896525 901.4403182144839,127.14309677892948 903.4903761776426,126.25151234297073 905.3890033474781,124.78124608457381 907.7114145787696,121.54042166501154 906.0473262409411,120.87136848320336 902.7783625928154,117.24412473022653 902.0026075039525,117.24747237573445 900.2099391115836,118.29685400003609 898.8944879289659,117.70308009044709 897.461008504293,115.29855605798673 896.0279266611499,112.17676672273387 895.5535372392484,111.8453275398249 892.8997610867117,114.77563891027569 891.534211517638,114.96393031948787 889.6902247429607,112.37163926006065 885.7847988832251,104.04872633762955 882.1099311301099,99.69422667089418 880.5824136282378,98.49924128313717 877.370407389556,96.56300322744471 876.3669743407875,96.31146363176401 871.7867915169677,96.4959674664293 869.4367976790861,97.07583994955723 867.0222220205104,98.12435448478016 862.3949566866517,101.60302176337564 858.964133965538,104.50928807993375 857.3450646177346,106.31961955245049 852.4030416474803,113.79845549713491 850.1605866549036,114.81141145366053 848.393726817769,114.77085464371271 843.6079030544416,113.42505964240524 840.7322485955389,113.68861600806758 839.0471785792199,115.21746601356335 837.7271781655857,114.97722825453013 830.8388816842945,111.33769336644218 828.469850342471,110.49885388654639 825.0527586894983,109.9469208907127 818.144567637749,110.1574775897401 815.7707094588972,108.95538731042586 814.5654351359613,107.31119789428692 812.1281504686457,101.08385733945124 811.6627973190047,96.59547853083563 810.6116845470362,95.01458874138768 809.2393576577808,93.8480964625129 805.1155690369505,91.33957699394466 799.3237061868825,88.4491974358707 796.033154716552,87.24993713623951 791.2929671776425,85.1589400124825 788.1466080081792,84.85177831246324 780.3634457999908,79.15036293767594 776.8432440164379,75.76369293277503 773.7886258311917,73.70721748945095 772.4934045659958,72.02457740225361 769.1354023442387,69.29565652174722 765.9894666388466,66.39570169698834 764.3545548264941,64.40279166453922 763.4522996111705,61.42787132994147 763.6761142054007,57.964425948670964 764.3786575366383,53.586824095229304 763.1187254681477,50.53618403638404 761.4472146774015,48.88234885613099 756.4275645729539,45.14372628135584 755.1685194105848,44.724167532117804 754.1526730017498,42.4513841555173 754.0914076267933,38.94428587985681 753.7804090290977,34.1537554128289 752.292454496239,34.16334599572269 749.8384478594029,35.2776418412933 745.1019962613657,38.24455098916553 743.530020731076,39.82346115366329 742.8066239254832,41.601630532751415 741.1747366872185,41.5639479761586 739.699707408093,40.921234624230124 736.493673413568,38.72181309444716 736.0085093118983,37.29517533426929 735.2850237297396,30.160869502487344 734.4841337559336,26.06007533554316 734.5498856337326,22.874577550518893 735.3909229795503,18.860666705867743 735.9661690614789,14.808995584141712 737.3559452818376,9.824396818064088 737.4364824593124,7.073583239039863 732.3420501057642,4.310159889704664 731.1446404846411,2.9328578546011386 730.3168951710368,0.0 727.1382466108529,1.7722591825530571 722.4354066358721,3.9314230385175506 720.3943967045878,3.584113039102135 718.9416059975184,3.961959507969027 718.1533226315445,6.342651157581713 716.9267276501695,8.743855830697953 716.795959376599,11.679650376739005 715.7058033976454,15.358311694569466 717.8746228024902,19.821059348958215 719.6043741481323,24.168385889999627 720.370045031169,30.722692632731196 720.3327184546827,33.787593239441094 720.5771011195452,35.61060791427201 721.3173174989923,37.09882192213888 722.9951711114569,38.568220245573 723.7029642837311,39.8471704872245 721.1566896290144,50.14933530484029 720.721790650581,56.93749186719958 721.7632968355673,60.72423956107605 721.1946388940166,61.8569227973378 718.912755280967,62.067215124845916 716.6007457406945,63.283891773452524 715.8212442333819,66.60831652292347 715.2516017769586,67.66880763195559 711.069879581228,71.4009544890879 709.4583321889951,73.26979018704174 706.459091443353,77.97077184024442 705.582094801922,82.73808855026414 703.2681223193329,88.6163318572743 702.440314752757,90.37248268424185 701.19947989846,99.33168643080444 701.0818082048902,102.63512937968164 701.9721524905059,107.64317417564507 703.1891246753834,110.71490044886741 704.647626713712,113.48609139363884 707.8012217027527,118.15662543917767 706.0553827389683,120.97900418175948 705.3364526014258,121.52664466170893 702.817228641458,121.76324415957754 699.4014710824404,121.23573097901328 695.6479560465734,119.60771992357525 694.307094092411,118.31679660058808 690.8513466116382,120.7620402992809 689.8610436376945,120.74000162526352 685.9156598259871,119.30671229209122 684.797391342173,119.75368497786337 686.1869426923977,122.84069110404482 688.8669330804552,124.3033945248817 689.3028973241621,124.98351992302275 689.4864164793341,127.85776886517715 689.252318786218,131.8569453724756 689.5620584787295,135.10095538315204 690.595856616261,139.256741340845 692.0531018446895,142.86765015255196 691.9838475828045,147.93810352152536 691.1593009880232,155.04851700850838 692.1360689296556,161.51184461127855 694.3795857081424,162.084659047871 695.7789391328375,162.99711926342388 692.6782554373456,167.40008722609514 690.1243907461424,170.41788586668656 686.6246987631417,172.9138199398385 682.9546507161328,176.75811624790595 680.0129435180883,180.8769187119475 678.2605138313622,184.44354236914558 677.4951450120072,186.58057242121401 677.4377081403934,190.94519689795823 679.0322632187764,195.97869831939875 679.9243510456921,198.24464389021853 678.3821403065376,198.36489683190143 676.9658781446815,197.8310517292938 674.8581999911886,198.69961149181768 674.2039309121627,199.6981907660296 674.6225677054275,200.67024454658736 673.8822054702094,204.32467870570576 675.2834787466763,205.35944673344352 676.1223172484035,205.40739655999448 682.9381202222266,207.97617206631583 683.3115004768752,208.4970698636871 683.1904446108914,210.65262927249205 683.5601290027254,211.79498106340338 684.7404548080473,213.21906119290702 687.0429902500792,214.33311027019533 690.0813731671742,212.44574079032077 692.1863955662636,213.27103662531 693.8472974158838,214.67423742215885 696.0146584933859,214.60292758257356 697.0830314608568,216.99638744057256 698.3407894607797,218.9284301335922 699.936722396091,219.9286593350639 700.4670178275288,221.72251939546334 699.2842299038383,223.99492153228493 699.8748557940188,225.6757814212359 699.8079814939412,227.0813524028407 698.9705169410423,232.07880706416472 698.7204435634844,235.53662488737484 698.898785234163,238.8691976073253 700.0256664504204,241.92522478278192 704.7592148527692,248.2941877488115 704.8810210817709,249.12493895765226 703.9463964993735,253.66512028331317 703.1442648914349,262.9698180869551 703.0496454851958,266.57336849597846 703.5752190597183,267.87649111758685 703.5983113735073,273.91898737880786 702.1344257549204,275.8734473462639 702.3078797209804,278.72364306498775 701.8754939454079,284.3439267680759 702.0512104057196,285.4490147449519 703.2022595641274,286.82654874181867 705.8194426561075,288.33433219109656 706.7504820619953,291.13674802404796 708.0045098039888,314.6534777196228 708.906367152767,317.5627880004923 709.0999234401771,322.2665134294238 707.7159266832133,326.09801032164927 707.1756681988023,346.6796694175231 708.2518883243573,348.55338038714905 711.3928098367867,350.825807000169 714.6572353906848,355.02210870026926 716.2415086921462,357.4165172322852 720.8590065113557,360.5709492497837 729.3333009408558,366.5311530541722 729.9364428697776,369.14658616990295 729.4491554229221,373.3528713921884 730.2539285585673,378.4350073569403 730.0631196514908,379.75622942121174 727.202956636186,386.5065117523602 724.7539417779134,388.6624018321599 719.8105236677534,390.7400832747918 719.0602004751278,392.51307956358875 719.7125224608294,395.91514093940316 720.0017772557794,400.87539854556513 719.5211501147074,403.8851480106109 719.6617044096107,406.4586052043876 720.1624605778751,409.11754908931283 719.780986980792,410.86304108410917 719.9913536752332,416.068717633507 718.1402825604616,416.74503006682426 715.9547866512905,418.7204318512446 711.6056157676218,420.9941580403915 707.6213048438823,421.85470489242846 702.6605293530358,423.6319014062906 699.8942105523626,423.1746956895895 698.180676902227,424.22934400317354 696.0429223945566,424.9888603455713 696.716347717354,426.5779593459215 695.9961579964925,428.4485048960683 694.1742600936448,429.96612105404284 693.4968041386949,430.98590158252324 690.8014789303095,432.496161197754 689.4469277112893,434.59205744293604 688.1712444689225,435.3910489884913 686.2634707689717,435.57242900720854 685.1451937490435,436.67756564688 684.6507201179137,438.5461730251542 682.8188925241491,441.2466541225391 681.8183017375202,444.86320055339996 681.1473908956939,445.5665665548688 679.022222999369,445.6610176827224 677.3542655645143,447.28204978170953 674.0127379119895,447.9392315266376 672.3816224271287,447.1045731661359 669.0992990766958,444.4057984001314 667.1077096701298,442.3673308529769 666.0894794943157,442.2069167153028 664.188410561769,444.1945866401715 664.0090141242001,445.8414605161407 662.9879986910767,448.5338556978867 662.2197791962097,448.7843109371359 660.9960843566951,447.5482016643063 659.4122750216936,450.54592682667914 655.7118155281622,451.3026395808661 655.2263269406913,452.06085866233724 656.0267762316437,453.09890436713437 658.7403107182474,454.3370076846751 658.1212354964416,456.20704319481354 656.8864113619012,457.0377943297409 654.3179653651008,458.06729544881904 653.0249388882673,458.217577761415 645.8800135776513,457.5717710755905 643.8003114315737,457.1047254183027 639.3587615109639,456.6517051176264 637.907715617022,457.4594608920586 636.5257919254541,460.2199512393775 634.8267099110592,461.9945890190036 632.9032330299957,461.7284561743402 629.764181134226,456.5532346577392 628.4514510467521,455.6495981275239 625.9316074766965,455.3154770171485 624.5570163828471,453.2129920067645 624.1611737798814,451.48211619046714 624.1379874793113,448.9049663812149 623.3630307831922,447.2428170345055 622.2561564639235,446.3366705970422 620.5397074776097,446.1659943926878 618.4020883382143,447.141366888584 617.4649749139868,448.0082876664116 615.7359584185738,447.61861253756865 615.0917612712965,446.7975922030464 613.3732587619791,446.39155211352977 611.6610361085103,446.69819617522836 610.2087509346129,446.2165618866472 609.0532431594612,446.78581022305616 606.3704634326922,446.5175564230838 605.1842839166425,445.94412201847456 603.0324457037589,446.47325720045166 601.7115332720075,448.129675718322 602.278968931699,449.64025406815006 604.6206077856597,452.01919225348144 606.1082210099154,453.0028623630737 607.7435579702958,453.26405987693 608.6345098824172,454.1075749941618 607.9868278840231,456.4313437675532 606.3914362413295,460.7893316933515 605.8694264399256,463.3795313130257 604.4465993343379,463.9509779885217 599.6879351477186,463.6756839761533 596.3954657252644,463.0881307363426 594.1325651418919,461.52652022893733 591.9770830909307,460.49902523588673 589.178921113273,460.0035675063834 588.021451607242,455.47475176300344 586.9024051665124,454.3250213847019 586.1637266892345,454.4037968715824 583.0219650395286,457.0238006984354 581.3282897025408,457.17517341239045 580.438493352533,455.1319407589753 581.0571623523505,452.8981337821863 582.4907782433211,451.1279151151343 577.7612025909768,449.2300651360234 574.0477347545851,448.5307268517345 571.452910165694,447.6601637480242 569.0489572515422,446.269575209444 568.4297459575168,447.15765039765165 567.4219960210211,445.73178647753 564.9695919116676,445.9373063318772 562.8910045732184,445.4515604290873 561.3846234358772,445.8198049124927 558.4374819497199,445.8188510907166 554.3911481532963,444.4968687006537 553.5505000583687,444.6653552237054 549.8979598125011,446.4194189326043 548.4165093048535,447.41104243183185 547.9009129292755,449.84640872269284 548.4047046985143,451.2440580140892 550.2459197142826,451.65953545588326 551.4783453637062,452.9794653217418 552.1677719530636,455.7860291810144 551.9174991360433,456.6877883978618 550.0935398239769,459.8788842559522 549.6724388664586,461.2355109486286 548.6922481126513,462.06182579221536 547.2213052175862,461.76470824745644 545.7968045699336,462.18100414129003 544.9254536068676,463.8169003171937 544.3973621794369,465.9847613372917 543.4758897743196,466.364800125231 540.9102840496845,465.3708172669763 538.3425790142214,465.4463879484503 534.6387465670002,467.4354174680051 531.4632395310358,468.69922145819623 528.8815343824758,468.26392273607814 527.4126092272744,466.8480169266676 524.4551521107768,465.5561690567278 522.986359247927,465.6152874908142 520.873926486459,467.5433776534895 519.370860914856,471.4934824400819 518.7752711819774,474.44064426418646 518.1204248062145,476.25325728140285 514.8621500122475,477.5406951826471 513.0483284812052,476.7669355333371 510.95247197227434,476.80605015729134 509.5103814140018,474.7645375667462 507.1178432968261,473.4840595776859 505.25339086467324,471.26767356566404 504.6159221587228,469.6667881893745 503.614510190952,464.43726099578697 502.60299929918847,463.67390975533385 499.64380200261076,463.580507689478 497.95436039043506,462.82999071111186 495.71727241700285,463.1772608381279 493.7308469430682,462.60677687301575 492.99816605700784,460.5533585223702 492.10935510572233,459.69965563275497 490.8586411719774,460.0240209120009 489.75970155183603,461.63593228660943 488.5384074969223,466.54789182805825 486.7872829687974,467.3618993115964 484.7561695658779,466.2317494407192 483.1036724843676,464.8242430413896 481.54018031763667,462.90508359128034 480.387741090369,460.95086395591426 478.82372999437297,457.32191117119703 477.2640316476935,455.94604494034144 475.34900659780726,455.1476795477741 473.404169883469,456.2054639035243 472.5615898459889,457.7506241498391 471.01412046895206,458.31936398225724 468.03268735218103,457.84348827543784 465.72285584696283,458.04420387799564 464.12582742974115,458.8884231274996 461.95223467891293,461.27649245326995 462.4519064711331,462.34308205610324 464.38367527957547,462.4771394118698 464.6649671646827,463.0998460603443 463.2566017148413,464.5997007240535 460.4318898108279,466.31079417472336 460.2226804840789,467.3978600881287 461.4449787019452,474.2324446661032 463.11412089256515,476.6865828434183 462.5291023594702,480.2088028986277 459.34146893484757,483.21159065855835 457.975455283116,485.04387766944023 457.66009296796204,487.29991653354386 455.87860692143,488.38897984900956 455.05411335265495,488.0129384186814 453.0381161025562,485.9326374075103 451.1625079422835,488.5222556028479 449.2703765661726,490.1227705775791 446.4395850020159,491.0796539649246 441.346323300125,489.9654355761318 439.56833808822756,489.943070618214 437.2646605540369,487.782835514007 434.9786895922596,481.38218396948395 435.68857892967895,477.8596078104681 435.32947550041655,474.2217420337222 434.5603749787586,472.6286710466677 432.0073173437606,471.7351489262483 428.64507784480065,473.0990095001331 426.3032900902666,473.15244407156763 424.4831115957329,470.91645455109006 422.201263103249,470.69350724151224 419.980224397656,472.20489613658856 418.9549246305526,474.57729103068755 416.846261898465,476.0236861618643 414.70602687570283,475.4020525905451 412.7793158362032,474.3340569958065 408.07583617866044,472.62332312092224 404.50085773086255,470.6552364066224 402.1078218999374,468.6246464496753 399.4613618615896,467.332463831821 393.78092497559373,465.1801366770212 391.83853477946053,465.0107387513368 390.4334418446307,465.4798456550921 387.60550039058126,469.13246941886615 385.8044608826377,470.63213071739295 382.3005655562805,474.8958081222868 380.99421950870607,476.76662087377105 377.60110036983616,480.7138776430377 372.8189982626303,484.44029992279263 371.8383516391955,485.7336411782072 368.1497297418152,488.17416272671346 363.87651731823,493.3334045744353 362.0207657050302,494.33872100651166 357.97703514541917,495.693758497171 356.908355486023,495.68145899171566 356.54092470271155,498.8540220522668 355.6647932329941,500.7067469502137 351.94090910908153,502.49003166112 350.7638398397824,503.7759318092136 349.2727977561399,506.15873349593994 344.78961350839836,508.4471847891691 341.046875779685,508.18578997464215 336.71000229060485,508.41334278257256 333.50201649765216,508.2873645178866 330.999402871665,509.80500417069095 330.8003341807948,511.5095812506778 330.00275276493187,512.6724202770591 327.99040764811616,513.4582115721361 325.5238316762208,513.6697584249982 323.126988547385,513.2482129699617 319.1691208367452,513.270324252903 317.5054285928924,513.7953759502063 315.292785297214,516.130567447877 313.1985826903191,517.0947818780139 311.9441815776742,516.9855642396377 309.41757366683095,514.6980441735714 305.75926332939775,511.903567109934 301.4497115635828,511.25204665467214 300.1994620415202,512.4320538711223 297.5275399498575,516.1227567661265 296.62756449337894,517.6992237416648 294.6991863396114,519.1575471909059 293.35341297651775,519.5100598891356 291.64043466634763,520.9916682389719 290.3303378526021,522.9992370062257 289.6222110322905,523.3748739667035 285.5102756848578,523.8244972556779 283.2694763813669,527.7739794206451 280.6169609281063,527.9437994076193 278.55169927988135,528.5581100426202 276.8524496925607,527.4832227777933 276.25344897352153,526.6086142333263 274.646892878619,525.6473146893625 271.6387504741865,527.4561473121282 266.61044965862163,527.3800521071705 264.4833219003566,528.034221507213 261.83356837811016,529.379240822773 260.5072477716036,529.5610954932544 258.6657529972217,529.0868454650081 255.38946926508166,526.3435567673057 253.1686101116793,526.6004188875006 251.99556458825168,526.173035586323 251.10779375276454,524.5276174507312 248.17658892687456,524.2419396388959 246.6912964189155,522.1034673735402 245.53984393547543,522.0003631008151 242.4592336294483,523.9294949510067 237.70186478020221,525.5697042497404 236.22321559187688,526.6682287677195 234.48557122438436,526.7687485176655 231.07683650372832,524.0331661547809 231.0202474971829,521.1204442828946 229.27978433111758,519.5739496564354 228.25183009802086,519.592000273516 226.72302682935234,521.5665614373879 221.9567132661888,524.0732703166835 220.4566338174993,524.6520639829223 220.10999079182616,526.5508012228963 217.67648935134198,528.6890772930583 214.252395005599,528.6944560285992 212.198716188905,530.7503952876407 209.82422141302493,531.2810919530071 206.33536449299785,529.3064083732252 203.92011271657583,530.4048417299407 199.85843936964787,530.6374663727227 199.20090868123162,531.0683023680788 199.4300099431698,533.4050491499014 199.24752889127754,535.4418933358792 200.38205981479257,538.0293112060522 200.22075379526578,540.3665521493651 197.78730011378607,543.6486800300573 197.233543372765,544.8991240123751 197.45177756053664,547.0577193646764 196.66192084632962,548.5519201123134 196.20287755216037,551.8320462512437 195.8844185786492,552.2869831604705 193.83687857919523,551.8426999429205 190.82345095765038,552.5201316129808 188.41776073135338,553.8618593808443 187.30661567562447,553.9685780999348 184.9113692226858,555.7406589448533 184.46984746586023,556.520630966641 182.83468652791655,557.1795119028229 179.44815402336923,555.2265591610931 176.04336386268844,555.9599674712786 173.69880573471903,557.5857489570178 172.15848895457935,561.0697632950507 170.98628675143377,561.874223187127 167.66328890005883,562.777900302636 164.31915277231263,562.5606919237939 160.77004371149064,563.9839574793655 157.93020494990742,563.9609547194407 155.95431399637997,562.9713459547875 153.7101832344471,560.8616098185269 152.16673841367088,560.0749125766514 149.33734852707548,560.2871006776554 147.29048216808752,561.6274283889359 145.04749929547347,562.1558181731314 141.60111238924722,564.5271561856546 140.5310630168375,566.0702428054398 138.25742418167079,566.9881261593829 132.55669117085245,567.0452130816097 129.61376462193888,569.8791989121901 125.66211364438117,569.0509901145767 123.33642832543089,569.5377441571998 120.47598293915132,569.6512785559128 119.14818953986457,570.2033095497965 116.21444715539172,573.5804750180482 113.90902131256999,574.9926530478685 108.00100777865575,576.233690309764 104.90334153066674,576.1347336515746 103.39034229399817,577.0112824090448 101.43357221618544,579.4706503715938 97.11061322096417,579.7123337103379 94.75275354298721,581.0589001781013 92.004040653707,581.6501418980329 86.02157369617478,585.0324799228165 82.3872545616154,585.9067782093063 80.10126016599824,586.7736805876194 77.91763635623282,588.2664992014054 76.83683452287252,588.0622570944724 74.58389467109522,586.5982356892358 73.09127316856971,586.6615424243236 71.51583340928416,587.2936911970921 66.64724984031226,586.9148855106927 64.5154110612334,587.651226413876 63.4630472259801,589.6322409655356 61.48430845914392,591.619433814485 57.98452412529203,591.4123623156887 54.33817446066258,593.0319447965128 53.14259106683737,593.9890573512139 51.976697729549144,595.8312454842312 51.62441623199752,597.3176996550314 51.70158675053589,600.9735091790138 50.80301938304481,603.165570643914 48.523767867403684,605.5672391096138 42.12203799199981,610.1077880541178 33.75226697877804,614.6124065335275 28.517160334932324,616.634569158491 22.620908999949364,619.2730630044947 21.04271943038385,620.3102617637638 17.50880260702572,620.8477222972062 14.909413007251795,622.7688015869195 14.482912451350714,624.7188166722594 13.624635648628399,626.4317824484611 10.653713949599481,628.3111427627997 9.270417657278546,629.6493632762897 7.316887288969458,632.7423168807122 7.394652350138225,634.8234655769406 5.597230994314053,637.0305963042401 2.802590940759929,638.081300806273 1.4695957021716535,639.6801522468377 0.0,642.5304824882544 3.1951559407107335,646.7085962918593 5.0560120038688705,648.81880250386 5.711314596073946,650.7147022989338 8.510414039403992,652.5828589234593 9.694727825155384,652.8701392575075 13.209119343700783,652.9506686179511 20.49881844314741,656.4297217249907 22.694940479187355,656.1737513871219 24.723336310458166,657.0558241568905 28.758207136694068,654.3793183753779 30.8401595054304,654.2774727087043 33.239263533321676,655.5987522366738 37.712647548622144,661.6406333717234 38.349222456443485,663.3088333149788 38.28424485312516,665.155096071716 39.36286420279358,667.5726788356826 31.13957194920604,677.7437046870978 30.817762816058863,678.9306863983675 31.548109549347288,679.8917136060952 32.88766908335802,680.4473073872017 36.357825914387305,683.154245894373 37.56819917257673,687.2407884725741 38.53549548392083,688.3410793892823 41.050446907447046,689.142343980209 43.68664350936618,691.8234696195112 46.05810620066024,692.1608725437064 47.7994513147874,693.3023678936174 48.81421946072014,690.5452713568233 50.32028743317953,690.157130200945 51.77401190531293,690.4600830243605 53.24913678180939,690.0065140639301 54.9539966758047,687.6410290668962 57.01693569861497,687.4075646271987 58.6552219341887,688.4916443035279 57.96165600661444,690.5575965937921 57.9600178960353,691.8517112706078 59.04132790468419,692.8373710743958 61.26921703849529,692.9785536732538 63.49724303349775,692.6149585518793 64.83710239864482,693.4466834389583 64.41109562581366,696.0339017548315 62.2726781655097,698.782111520666 61.042468505018135,701.3605033211816 60.30585301006197,704.8840644401101 59.116525004942154,707.1693658978227 59.134119275112866,709.7743268852764 58.60657293348101,710.6931814404719 55.817294045099295,713.7752105937509 53.36710396876227,717.549280952239 50.08185820922694,720.2066478160192 46.32984220273376,724.8505353995246 44.985357683613955,726.7941439717376 45.15933495425988,727.8288519044817 46.13804078211697,728.994316567196 48.518960613736084,730.9522495947276 49.49670901981049,732.8835609906444 52.13664388838371,734.2957447483305 51.626682264213024,737.6747565144638 52.65858778247087,737.7498294718202 55.105658941423485,737.052491730981 55.72468271951957,737.2570546145905 56.86795245270176,738.9846933882455 56.57784239950241,739.815010808305 52.5351796530324,745.0633868796564 47.764972348601596,752.7946524363678 47.17468504166086,754.0811030464495 48.80569927015131,754.3519821512954 51.68663433227529,754.0791090854905 56.37125554344073,755.9917340564087 61.45789609812301,759.0935305441922 64.05887711794266,759.8462894973027 67.82920102051315,758.750760069667 69.42112514281379,756.7645676943251 70.61934280998133,756.3342822292395 71.69266200830788,757.0521745054552 77.7671364784451,764.3497430964663 80.49013984307764,768.1654474546076 80.46824300276513,769.9171730017131 77.93663455099463,771.1374525743925 75.24980980037199,773.1635969928666 74.47233957084326,775.7708741857259 70.01570020116004,780.6397182392561 67.05508252509381,786.4883945491582 67.20816149892201,788.5265956032841 66.73974653301421,791.6236192656629 66.93478454023905,792.6101966847262 68.65876102268952,793.7938158651361 70.36381827785291,793.6164121430538 71.60455435378871,792.7128219920583 72.48245369282031,792.9665655171168 76.20833235380879,796.9725561806874 78.01449059892951,799.4280971874971 80.23526194080777,800.4002178439388 82.15723372124144,800.5408084371795 84.53417380996443,800.0208109938565 86.16588029290082,800.7477325851459 87.94353558316483,800.4230491416059 92.26256614585206,800.401461089103 92.8316654714452,799.4802502508159 90.6842052444354,796.8050088122249 90.91178255129167,796.2508571707207 92.80175414503071,797.6705120804137 94.17624512660237,797.483819438493 92.88719267671911,793.1217104763648 93.40498496986781,791.8180354849086 95.14063421187703,791.4194360049353 95.50271574232485,790.6699540159898 94.40822994158268,789.6662158070515 94.56368025984703,788.6804709793674 97.36314618565675,789.2358891507387 99.87307506939239,790.354207624007 100.25520917524521,790.1506524575699 100.76285319473607,787.4201274264894 100.52663170240046,785.1458372170088 101.75674597199337,782.7667372018611 102.55362201674225,779.7839914635981 107.94765534778848,774.1308536398352 108.45408936168874,773.3160342885753 106.86409841237092,771.5145844233502 107.40184794151617,769.9908350801838 109.91127863480808,770.6353842339148 111.6774467711493,769.4709117405235 112.49443113401851,766.6113180450312 114.64243332202221,764.8518019895233 115.49962021044742,765.4387140411645 115.45715206309167,770.547647135114 116.12800716597975,771.623507303415 118.1936353806605,772.0554746390997 121.48804045623348,772.0889212021868 125.34051290325448,771.5919380035797 126.74482142624574,772.1379603201837 129.39918665612888,774.3547131940996 132.79719269676727,775.8701813865518 133.83041762880092,776.5712151370233 139.18060220792592,778.126847166847 138.96380757492614,778.9011400584337 137.14599193502013,780.0748291891477 135.5039066392912,782.2755528647207 134.95657771782385,783.5879777718761 135.10133555596153,784.7211299532332 137.16764073369282,785.5191530275878 139.18192416770347,785.4456838982356 140.32871880628727,784.8258540171728 142.71421647552017,782.4863696641733 145.2141436965492,782.216650895165 146.5366798931734,783.6832616077241 147.539612930986,787.1796170843211 148.2427771389366,788.1819392785 151.36325473306425,790.2919587474712 152.96545177538005,792.2316327595348 154.9904656591049,792.8336296537781 158.28821582772218,796.0439571851676 159.16751475177207,798.0982366764893 160.5528933040152,799.515894408313 161.72210978418062,802.2951107322523 163.47906689033212,802.8812845807729 165.46282893149376,802.7494316941785 166.98157956728383,802.1042690859713 168.5608928723217,799.9183593970527 172.4770386017495,799.4834297501103 174.05691741216648,798.3652241002718 174.3649785395588,796.2616477497743 173.1339158592311,793.8902357772247 172.72979854709138,792.3420458521573 173.26361695179153,788.4045401904065 172.06405473900705,786.3266861010668 172.45571821011933,785.6252740482631 175.32659461613878,784.3189863220587 176.51404464921828,783.4784410392974 175.92400349848495,782.4685375906856 180.0105777924735,777.6073532926321 180.4211591381907,774.9503736652518 181.52518852394843,773.9144030319146 183.87989000523257,773.5861599764057 183.8374519522314,772.3642127122259 181.69552671741525,768.2102359444848 181.88977807748915,766.3036657638233 184.76955278028828,764.8991812883667 186.10084929063984,763.8712509646052 187.8320202520054,760.6266724205124 192.8541819768174,754.8779911457447 193.35875286004625,753.6554214053068 193.02607604637853,751.6109547046925 193.99535322636027,750.4291211113018 194.26838047780518,745.7529257144553 195.6395004881627,744.065389524862 196.42188701294208,742.0937938522891 198.1416698897514,738.9068777574921 198.60264252130645,735.9748627197755 199.1801474141738,735.5342454313924 202.18399047050988,735.9781565263545 203.5146853711694,735.6018160500796 204.18451824114695,734.6155900333023 205.03744794223746,732.0413906906564 208.4294823369594,729.3492321286227 210.41819432507714,727.4493787591317 214.970555908232,721.6538670037046 216.7410297797499,718.7933302257511 216.38756226397857,717.1983176026368 215.33348179607088,715.8483673601952 216.3123318453894,715.2690245701573 217.55058554862782,715.3647852226393 219.25438546930414,716.167693698762 222.8650160734396,715.8770431392454 224.4961926390303,716.3951787054681 227.2611716744185,716.2765179356642 229.00532144180337,716.5012301426437 231.31322632413196,714.820528434266 233.22321748463966,715.3540989711571 233.91792736722624,717.4368664847686 235.2316644469736,719.2091669624441 238.09005695369694,719.2036925347768 242.47968657481303,716.1825425166046 243.94354265318583,715.6179310065281 248.321033198861,712.1736762651533 249.52225060589586,709.4684581374743 251.06726433641586,708.2279499620678 256.06650968912453,701.9740432854155 258.14525943075074,699.885744408444 259.1929900514568,697.9789697513816 260.23798365196745,694.9327010911452 260.5960928126894,689.3499242567848 260.95259800173466,687.4447261467201 262.9153994982685,684.5843129605355 265.9611693295545,681.8674794365415 274.4355241663409,677.2740749272409 276.576920672012,679.9042929923548 277.5171180975753,680.5768290746018 279.8183162848373,681.2707818328229 281.18552296116286,683.5857693300759 282.1574208505688,684.4697389910015 282.7756862349816,688.0160785886449 284.8426418999687,689.7188192098662 285.16091443629006,692.8265736289429 283.54648178508853,694.6539070331022 282.6977859102323,697.2523395037613 283.64023790044854,698.7795112189422 285.66283609151304,699.0346092783867 287.2088556832586,698.6964210501284 291.92402825518417,695.5821293036124 295.34809877633217,695.5234940180883 306.20311704235456,696.9876407525504 307.4550502965955,698.2532570399985 307.893053439141,699.7414022516652 307.74388706513815,704.6493598571158 308.8021339394707,706.6647718182076 310.2054656518844,706.7010135885581 313.2342187483646,705.4618072208673 319.0276399892259,701.12068782659 326.21599965259793,694.878040860794 330.2335856628267,690.7378604467121 331.0583257128691,690.604801394588 334.4229878306182,691.3412754006666 335.6634325958148,692.1099705774748 336.54497319517975,693.4410972995049 335.33458291822,697.962285223342 335.116423297104,700.445322877112 336.4727439492548,701.823816273756 341.1154524389387,699.275638362543 346.62556185715533,697.064882311856 349.9705841464232,695.2451142312996 352.5904676847897,692.7038935212723 353.8200376268772,693.2282417262419 354.7383133610643,695.8692969071453 358.43783982323544,700.1186928455875 358.0014878165587,701.9762860881409 357.9308360860669,704.857991236925 357.4911808744303,705.803882825371 356.1321877551075,706.436357500851 355.56335178371546,708.6523523040806 355.8225770716293,711.5086823226793 355.3436220357952,713.0654766206039 354.04146278044055,715.106237426395 353.89059030890644,716.0509385152075 355.86917083519353,718.0048498028103 356.3185315164376,719.4278008701589 355.76626661937934,720.6191643350276 355.4351881537688,722.924573530368 354.30325633433745,723.7023687244825 351.9123250178703,727.1073950005261 351.65189946839376,729.1768628913508 352.55235236713037,732.3488297297429 352.1609562503849,735.2657302556769 352.537683351046,736.4695586778719 359.3005195546265,744.6277420424929 360.8174436265949,746.9187919381056 360.9705399267135,748.9954750561527 360.3966509177147,750.0485069278424 360.81317936220665,750.9506557086852 362.27122364287635,751.4989733911336 364.2101859515032,751.0348055292982 365.85361269701406,751.4756748195307 365.7226541241334,752.1768482776833 358.4406415301373,759.0747145479862 357.55748105019023,760.2350284623958 356.9136627011831,764.4418713305695 357.3128140441675,766.192588211198 358.2931893252122,773.6524684046112 356.82846098374927,776.6332751240898 358.3381042344392,779.577487022788 361.65598478049117,777.5916391991451 364.29378236729536,778.5342010847822 367.51809957554116,781.3487525747308 369.04433854145407,783.1275332170892 370.5977253288501,783.9683429105138 371.7338140388195,783.9227229538055 372.0807910034909,783.0001349309654 371.1446690999195,781.4555829212228 371.6075104567398,778.5847683101094 371.23807894504205,776.7525172273979 370.40487847522115,775.1834779699292 368.153923506196,772.87019544583 364.7414636345509,771.9556115300354 363.9134852836953,771.4700398927566 363.95713279129455,769.5957932267519 364.43671244874395,768.2327851890988 366.28527745177365,765.7558925237965 367.512017789885,765.2047486039105 369.1361179913587,765.792944800313 370.6624045172048,767.7743973795997 372.2083766681766,771.8262406120691 373.65108609470445,773.4986769752422 374.58912737866365,773.0463328406876 376.18164659460916,771.1162004498797 378.2816298061088,771.8243085081045 381.09191574358897,774.4356398716351 381.794450309926,776.7799245985449 380.33551543298677,778.5142178270875 379.62206771259974,780.7012777697465 379.6433943130331,783.1055507238094 380.0900652167766,786.0789840041842 381.3625932767163,788.7551090757418 382.8058689607564,788.0229499411588 383.9360803583154,786.6568525583939 386.0290468189075,785.7748631497162 387.65529717455274,784.4309857358857 389.3779404401976,783.9011352811475 391.4256523791728,782.098569176036 392.32448772586247,782.1842515310259 393.281611892134,783.6306655052854 394.8026002234977,784.1041992883185 395.9888003479173,788.0928450383683 395.9325249284944,789.3323943588518 394.6216510578269,789.5992770522815 392.6875291858423,789.1516975889141 390.58301283707385,789.74819869944 389.3516056688627,791.5720499434624 387.28516199891243,793.8312442185363 387.27017924390157,795.1197015584708 387.8940073757569,795.9648040652603 387.73508309303327,797.3103452874416 386.66623334687057,798.6360031643998 384.69414344776584,803.4881496758283 382.56443066688837,803.3592783631341 380.348661759243,802.3336480589145 379.387212672452,802.3133540055388 377.66549379330627,803.2018087238192 374.5476898517045,806.3135907996469 374.4994275256775,807.0556888480772 375.7334975465299,808.1025529506727 376.9007864315808,807.975199725055 378.3927844236296,808.808237100923 380.1779312461607,810.4722111090251 384.1861483769247,812.40306134556 384.9608945433499,812.2287220593646 388.87104076423907,808.4920548839742 389.6039761937549,808.317319904524 392.3736505415894,805.9889622772424 393.73608908185383,805.6565925050271 395.30101846205486,804.4016161129712 398.231171525875,803.4337409749095 399.70268495708206,802.0730231116825 401.6084471693286,798.6474905083862 403.8366558825427,795.7835360553092 405.82732904949955,795.0235705221928 407.0727810689106,794.0718002047523 407.19778582374704,792.1474686527392 406.02448868201066,790.9708894371761 403.70846403599836,790.6807258002672 402.049525230881,789.4416377216086 401.49990650594583,786.9009308258549 402.4207418377578,784.9973231871339 405.83311895410895,783.6113288285825 407.89720375682697,781.0985638252247 408.60074876610497,781.2502595607975 411.1721472973357,785.3127231674866 413.41130038078785,786.7607523407202 416.4144546936549,790.2669960486288 417.2331869420064,790.7032688472161 420.2721724006202,789.0163203445161 422.01813690698054,790.955584947753 423.05175805501614,791.0646402670036 428.3336041136433,787.5071191274471 431.0077785417434,785.3162811293879 434.53964044145334,785.0527827662693 435.66822610026315,785.5033117252932 436.47105643998634,786.835435154809 436.2913480213738,787.9780143876983 435.2610861942528,788.5703408933371 433.14834279477117,787.6444319965696 431.0632383913135,787.9732736935525 430.91526200752406,789.2619550281265 431.4088949635792,790.7922465004493 432.9927662561848,791.3051801967349 434.4380891806519,791.142740732682 436.3623073168483,791.5643990359121 437.2105570153903,789.8967537969518 437.33512134305863,786.2115986940823 439.87150521065,783.4014283861559 440.4572809001035,780.9206311199512 441.67671713213525,779.1124035575199 443.8974075813249,779.1408224481446 446.0483119375761,777.6371239169455 446.7101610693103,777.7802211585688 446.6706640680301,779.9894718186355 445.6471556565716,785.3829815479314 445.87726042911726,791.3650690975228 446.3035135211129,791.8846306055896 449.5172015250069,793.7495069023373 449.39935518887563,794.8019155094678 446.5722656808324,797.3858147194054 446.63884344368,801.8943824990284 447.1317686944695,803.2045877466156 448.26182931936626,803.8340746538775 450.25421872202793,803.4231107667567 452.51924451270634,801.9509412811107 453.997453798481,801.9832256333372 455.8455447239293,803.5055243995043 457.6965907510448,803.6823747809029 459.1350394580288,802.2957137943954 460.61331503172113,802.3361849770699 463.63613271428665,806.7218249157283 464.8722023154054,807.741694492045 466.03845119589096,807.4656896271716 467.7413584536443,805.3353161370493 469.48594903368513,804.9904652895485 470.9927586735064,802.9839486426412 473.71392341981704,801.7929093893572 475.57639783313476,797.0933216305535 477.42812644497695,795.74491940195 479.17913090077013,796.4922284954076 482.0155592851358,795.7164792868418 483.98791230098976,795.5165658512556 486.3108689731243,793.561437289004 487.7960545856948,793.1121040030939 489.27750609405274,793.6815997555508 490.39127435645133,794.9786165219393 490.4737700271766,796.5680098863055 490.01131410489234,798.5851390976932 490.16775513989757,800.4264190503906 492.0091622352284,802.3473064230493 495.0253139828654,803.7385912064278 496.77368729746803,804.0046990143494 497.87655186716745,803.5001173220701 498.54127881581206,802.4518554710908 498.12668288345156,795.9151245913795 499.2629253240688,794.3015743831166 502.00838965938783,793.7782909806397 503.85977944766273,792.4859546916755 505.73788689692805,790.6228183687857 508.12020543711196,789.9140749380855 509.44602597403457,788.9025106531019 510.7124643804288,786.7256362894503 512.2904804269797,786.2744985325025 513.7587508178168,786.4604587425995 517.654353912764,788.0723494073862 520.1509140792275,786.0168829368044 522.2721862972996,783.4915762603474 523.0847347752607,782.9968605568348 524.9965935655048,783.0404487454903 527.1815174928121,782.2915114977474 529.3800703035,783.4740644043104 530.7850551128421,783.4970111309465 532.3831012549812,784.4553845633367 534.6027961663069,784.2273650856031 538.1076518715956,784.5694224525446 540.2108514167235,784.0076250016779 542.4235903723899,784.2281760018238 547.4327545946646,786.7834495426245 551.2489044521266,784.5051743996581 552.285593768567,783.6331983747722 552.4118626455615,782.5402183317416 551.7801821047896,780.9633265905392 550.4593257554704,779.7834516559694 549.9347490016966,778.6948058811121 549.64928424689,776.4067953869634 551.2507246267108,770.9174221400873 554.1812065261793,767.7744957239728 555.0034762104328,765.8695032744956 558.2424134505279,763.9785603879665 558.1825102681233,762.9277276099673 555.8948071641921,762.1958048210354 553.9419668151965,759.33413887249 553.9082224528569,757.6231776214242 552.5389785332206,756.7859680673896 553.0726512638024,754.9730327132777 550.6157921206546,752.3277091717439 546.8025001446407,749.1296145278936 545.5515739764032,746.1407253297663 547.2609023542171,744.0918479775262 549.9688238306178,737.6202495388776 551.9569199917539,735.6751954266423 553.2931138120668,734.8991393216124 558.0340986987607,731.2066586699545 560.5630179998694,728.5162277093328 561.1755725983078,726.3122587899641 561.2035470800286,723.2015070060424 560.2188171705764,721.3201702957161 560.1435846913155,719.6021914966348 560.8653222166328,718.1801102978562 561.4927522529434,715.2194078096611 561.0526733209293,710.3215772447453 562.0545605649764,709.1010991631301 563.5503547691486,709.0649911303162 565.0081764323334,708.1335395360792 566.4254850987858,704.6221582501178 566.0571440588797,703.6970295581715 564.0324429565206,702.0197858388907 563.423707579001,700.7140185659262 566.3216261477191,700.5608903786407 568.6628495602481,697.8406432995403 569.5762149278237,697.2472113202374 571.599682866689,697.4753102048008 573.8462669836131,694.5439550371659 573.7299385613182,691.606721000853 574.2762918832099,688.9411663531736 576.1443108552569,687.8195957750776 578.9928498717691,686.73033554548 580.0108797048696,685.0866457134862 580.645857912486,683.2422353907506 583.308834977078,682.2524732687988 584.488231866755,681.413125816045 585.5356388378381,680.8512458355824 589.9811361470829,680.9287757167698 593.3505510159995,680.6078246112575 594.9840320419949,679.8538388530634 595.3108240000264,678.1910304275602 594.352638067872,677.0520328512686 593.5318583099753,675.1223322044395 594.2344709118195,672.7974947815983 596.1115998434312,670.381868750567 599.7790953820352,668.7725774626558 602.324136564811,668.5640560189015 603.919715930895,666.9970395893563 606.9312653227903,665.8892352837602 611.5431120458368,666.2807746185375 613.0005929689313,665.5277522910445 615.5347194156914,666.4254638340706 617.8178153310799,664.5829447374972 620.7097524152978,665.175790062955 621.8367200786939,664.3689987613554 624.4422129688991,664.0120935276593 626.3106094711451,663.1333233215637 628.8823536932971,661.3374088633161 629.3797642892378,660.4623974245379 629.0910413942073,658.1302285728934 629.5918397958071,657.6376892085964 633.3482651826149,659.2066188492327 634.7800250680601,659.0876185584696 636.3288356135541,657.0811074514208 637.364304374996,656.4289690063838 639.5038673180674,657.0762651515154 643.7574272177781,655.5244957723797 645.3138838821276,655.4939533018796 648.5261452816045,658.3597019624694 649.7851147608194,658.5188750551193 652.2868990564701,658.1459438998133 655.0698960155205,658.0628894996862 657.5617679704638,659.9268933140847 658.3721516713334,662.7907010279314 659.2427703568328,664.3360318088353 660.9301223579349,665.0521320363467 663.7817630907288,666.7415803962788 666.6194258904346,668.0652307315934 670.0716924039598,668.9025724516225 670.7673884649852,669.4001208810773 671.7986129266703,671.5707957155942 674.039524729886,674.0144960638091 676.5419642949431,674.6898110852761 679.8207262240504,674.6252750165623 682.1676863992361,675.2449114165744 684.8697573216245,674.1928909411499 686.2121028692432,672.3082356493885 688.8907616086162,672.0369645989181 690.4006924284935,672.4858962917931 695.0125716392184,674.7503077067622 696.6258093295108,678.257700210594 696.9256362475596,681.3550885258106 697.5160206717393,682.6105955497375 698.8490642408843,683.8825928719087 700.9967001724765,685.138419217093 701.9229687467374,686.9522249155737 703.6425061320124,685.6245380372197 704.0166836317142,683.8789592339766 705.5340608700526,681.9915100982822 708.2116421872701,679.6039502775222 708.5519303295681,677.5984360370829 710.0289461610454,674.8406473395785 714.0489612668521,673.6433899445844 714.7649943735635,673.0746556044563 716.2646218810833,670.5280888006448 717.5461482584561,669.8310989478762 719.4087047698084,667.4927893720939 721.4750637396977,666.8935082232839 720.9624780647068,666.207026291698 721.4722663361199,664.7049488275406 723.1089933927726,663.4428028776447 724.9904212328303,663.9187398711729 725.9287077605763,664.8608982804157 726.8458946366385,666.7711005411971 727.7203392177128,667.5346657072553 728.4578545857005,667.0470393473188 730.3188833814265,664.6592322050241 731.1583759887162,664.0643857623699 731.1618493156984,662.4944868197936 732.9100714430201,661.0839923932325 733.3418841430813,660.0221283663142 737.9550380040846,659.4678203839105 739.7305646969222,659.6925240210219 740.7432525874109,658.9571464757947 740.8920008465634,656.523360118586 739.1420766594779,652.9956161845862 738.0270103886306,648.1026876628704" /><circle cx="754.0105001722403" cy="498.4575028732794" fill="rgb(100%,100%,100%)" r="16" stroke="grey" stroke-width="8" /></svg>