<?xml version="1.0" encoding="utf-8" ?>
<svg baseProfile="full" height="1024" version="1.1" width="1024" xmlns="http://www.w3.org/2000/svg" xmlns:ev="http://www.w3.org/2001/xml-events" xmlns:xlink="http://www.w3.org/1999/xlink"><defs /><polygon fill="black" points="379.9512963755867,0.0 377.285519549584,0.3320387639357705 371.16422040895077,3.8517511232290644 362.5932320392987,14.754053457669784 359.568642930999,21.105998270393798 355.85467762668304,31.3583470671731 350.9487443361249,48.72016330401516 349.8776339933908,51.82029060748471 348.0419215815808,53.50348915487666 336.01124568486887,55.67976653891162 332.7947819414373,57.01808320323266 325.7924186622277,62.38131882175719 317.13493366288066,65.03784275599367 315.20342089766353,68.46574324170365 315.9654876942739,74.82188360665464 313.6924747726149,84.13036104973787 311.6186163872325,85.39006821334817 301.3852910496915,87.26248753037589 298.01009505469625,87.024287203678 295.2028438097155,89.19201513153178 294.6023054885085,95.04873102521412 290.1203937742981,101.65374372138342 287.8348118707508,101.96360668944601 284.5737225648629,97.30472320808337 281.38988251050245,95.96477013514482 277.09519311149757,96.43400306152489 274.7471828046229,97.92428396852256 267.9577665785941,94.55642117763398 263.518281607807,96.26966083814352 261.8526207325057,86.58139348189877 258.0577417157882,84.82426265474237 257.253175361871,82.98732946950804 253.43869181468878,83.34213114340912 244.41314994834806,82.32087669705686 241.05544209936596,80.23606315991071 235.98829542290684,78.23174270543666 231.28892264032763,85.01084314901493 229.68498790911204,85.77555617436963 225.1082851794225,83.1129341870543 222.27767849867035,83.30040011016888 217.47443355223538,84.91630497036203 210.00703042132488,88.41690691261681 206.37594137169887,93.56165711928179 197.037052723925,112.1013776475329 188.72524950974883,123.47271221472226 184.22681595825054,131.1090153205539 182.6569529913287,132.74467371578396 173.2845768353924,131.91781724196665 169.212624248844,133.66851149071135 160.00181035151837,136.0263283392875 141.57368479735277,144.6245634379626 133.85714214713414,146.38201188584492 129.65565560297784,146.38156801062962 121.85538129328363,142.22339189707623 106.41548442419014,136.64917454317754 89.9161174565975,129.76432338015672 85.06251652240734,128.51395356913974 81.91034807348022,128.89890855157944 73.09879536120852,133.44248287869198 70.17631195843049,135.78083429056107 66.84746500675394,140.63853442241873 61.71047034340813,144.94046960190747 58.41636001230839,145.76840737511952 49.93386067103683,144.15118090472026 43.70250648274039,145.94215824624962 40.506464739037504,148.2334922390438 33.766547446470234,154.2282217065158 30.595975074960457,157.78037474629662 25.424456441704123,161.6605880337131 23.106166144369503,167.44167409993202 27.28975149804729,185.57204283749456 29.627475988078388,192.1000500822746 31.557410341421203,195.66177509289355 30.222265075665486,200.07029966396385 25.617025753560444,198.90214897794317 22.703872048695512,198.91143052674317 17.478516223698307,196.97606067473976 11.044946998663745,196.81007403137926 7.820125028934493,195.94238146348482 2.2632012150321956,197.71764474657505 0.5695906215706915,199.7932025392147 0.0,203.3131592378612 0.6224403992259083,205.7527668106634 3.787417817342958,208.83881843478696 4.480340197823288,212.49849333436896 2.6448020078959606,217.63533474280564 3.3390581177369816,222.09517189902613 6.672251961159979,230.4541433382185 11.471998979040437,243.71975587925294 12.732634530319462,248.49864612637896 14.572058341555303,252.03272778994392 16.192038870297953,257.4414191604917 15.6415264231782,263.76573509670834 13.924966980322722,274.77712845752035 13.874089032074277,280.09702641155104 15.249901439041585,285.70702189835526 19.225120829889185,292.43498194977826 21.269565644050267,300.393924255245 21.538868255284992,304.3227540647049 20.697828573766287,306.0964300399547 25.942192869250093,307.20153082 35.140080036571234,310.5659437320119 38.639684888170024,313.93572802004064 44.55968889126251,315.51837669600013 47.3966912075347,323.29860054671576 46.9775564666715,331.5376757180153 50.452347037573304,339.08994413709627 60.689884174344016,346.09046171554826 68.65897047487532,358.0717723943317 79.04767156501535,365.97422553147146 83.2044419081133,370.5433314037314 87.29626950505009,371.6188954655611 104.78474474235365,365.10114473030046 131.18558873605343,360.6082147507773 139.62709658860106,366.66434711755403 155.27818212255823,385.92896061951046 169.4359538492023,386.86308790881355 176.60110276037264,394.4585444166373 180.25850559067572,396.0126774475151 213.4516773709302,372.0241764659686 222.46567203238519,375.9543616387472 238.95155672654835,374.4895242132088 242.73768147137696,377.0050155170595 243.82120635048284,379.42709790955325 248.49677075791166,378.4671131356589 251.0933064649127,376.56708277073926 256.69918805472565,373.99161977908227 260.7568069085238,373.4562336428869 267.29048268396986,375.39189608304696 271.61996837461584,378.7881554064786 272.9724145703213,380.66979503205107 273.64941988473004,385.06559886083755 272.0408752845034,389.12275963329944 272.1998257735379,390.75415081371443 275.53696104563204,397.3205091277807 268.71930701250847,406.786797576912 267.86015345372067,421.6909278308185 268.2766929182922,428.912761502511 272.2598566286674,446.0451567887984 274.9478328078846,453.6381763235852 272.0451309651889,462.64864268432086 274.91633995732013,467.65626999240635 273.5452402376713,476.8184952523816 273.77342248873447,482.093830908022 274.5660311305416,485.25606268819956 276.59088403142334,487.01082089931685 279.6683468484419,487.78357441275307 281.87508135633567,490.53295935475364 286.04845387620946,492.1860532133305 289.6751745602639,496.0551073866327 295.5983558007522,497.3490337700888 299.37504826669107,496.90036243339637 300.3795370833182,498.74046713774237 300.8508625786978,504.2891626074296 303.8726507612973,507.51391668327494 309.0965789175552,511.27371081707383 311.16714988851004,515.2404972753078 309.13798633657694,519.1714162929372 307.1489200774236,519.9586380574499 304.4186715655036,523.0710882413864 304.2901604658297,529.2745046953646 302.68884703808664,534.9979321464372 303.7632729406967,539.7723894327227 303.0892809773298,543.3832171312338 304.13088476532954,544.1522977774188 316.0092073043363,542.9977925055082 318.12656223451205,543.7931009271639 323.2934096692316,544.0319423035437 333.37343411357824,542.7843576115245 335.3628531698816,542.9427336839319 347.2181630954503,538.9117333871288 347.9544473983096,536.772186639762 351.83920820519677,532.8465127481109 356.47357892582056,536.4858533843203 357.9606107697258,539.4161997572123 361.68772919473747,542.2009184695876 368.0167092268146,545.3868056845315 371.5878647446878,550.1637278588717 371.23299059602823,554.3141187646355 368.4748262282788,559.9956111967205 364.12396547950163,581.8128078571469 362.9355040365819,584.0769960054304 362.2244824906706,589.5368148025001 360.4128643473029,591.7757050097514 353.30438475873837,594.4913809503945 350.48332779393746,598.6200496288636 345.67829036208275,600.9609227395235 345.14835453183287,601.9426448874162 347.65479800269156,604.6445445775339 348.5661975445314,611.7155664701573 351.51014833787093,615.9341352669679 351.6821550564601,620.6011068626996 348.7067795109016,627.5178109811411 347.38088094360035,629.1580426748155 349.72075073833,629.9371381030406 354.42218675642505,633.6923856581877 366.69492473557386,637.1110986520806 377.68609537826666,644.302478093042 380.679838594829,649.480153443618 377.41873587513544,655.87079551593 376.0847399983362,659.6990756648797 376.9813513876358,679.6181755434026 372.2622389818909,696.7671069007706 370.3793800857663,708.1431957456834 366.30276058993735,714.2162925425775 366.089957464095,718.3079767000611 365.02343407618963,722.6267508149176 366.6716988482995,726.118177097612 371.05266464516586,732.134571632938 369.6849018057953,733.6841638964961 368.06124572794516,739.1323882724694 365.01845094379644,743.6867010200526 366.85606724141763,747.8028493194112 371.5027974467081,753.4638573473314 374.4976799063165,769.0460469434929 373.42160100066644,772.0457729037802 368.1069209859515,776.6349782260261 361.1462365392327,780.7463518040889 362.630241146731,784.0362591351502 368.8099544666977,787.5975704127877 369.6455960300641,790.4688454580655 369.08647821472937,800.1514510497425 369.5821431022116,802.4326224159179 372.8792984092801,806.5069391541919 379.1294173727599,810.7377120046114 385.461600940376,815.8238597923523 391.1680515123735,822.3611614898325 395.6798145260232,829.4448858956287 396.8261756790623,835.0080039527195 397.24963644989583,840.5885834005895 400.92609400111013,844.2004791529425 402.6505715720961,849.1605047797706 403.4008662697541,858.8186271834197 406.49713169362184,867.3026503816591 412.4817488699773,867.5914077447151 413.38257768321415,866.4740700683604 413.3154328563999,862.1329991421494 414.5156703444076,855.219992808655 416.3435274109155,849.9968284315112 414.88361502355843,845.3497800382562 408.3957508635217,838.3653908624499 406.0192275149664,833.8036492453414 405.4815730575872,826.3966674348294 406.23955485447675,823.1539666773161 405.0676509851474,817.1379831492839 406.89839358710054,807.7329232675689 406.4951585450942,803.010735484494 404.2095621301698,794.6357065487026 412.07950088061375,796.9969240489829 418.29753518254523,800.161460201219 421.0322317978574,802.5944207690778 426.60594273312273,809.2144356939291 428.01502472298984,812.7349639944196 431.0059686310807,815.0477058659562 433.4893632641945,819.575241437058 436.5237374071569,821.1633409621967 439.2516629644399,824.2275562096991 441.4137763267896,820.6398377948246 443.4614701926367,821.3437473324966 449.2028494256754,827.8883897516919 454.5111358110272,835.3012435164471 460.50054402455777,841.0135103267776 464.41264911208,847.5821234599538 470.9425315489567,854.201297901148 471.2502564829838,856.7669809312806 473.5398270435166,860.7323511840473 475.1538059023872,867.8150033117397 471.95689577599063,876.2591040225909 472.2029915162559,879.0961713152363 474.53541780524495,882.0166652735059 480.2827478968538,887.333199876067 486.8279904326767,891.0883590198426 490.9888384911512,895.8756894945886 495.12816751810897,904.3357391375927 497.17936177209486,911.4519130192742 496.09355859981457,914.5923606326813 495.99126349841885,927.7443500180257 495.1808968253878,930.6206067544699 495.142722854838,936.6743458628133 497.69792646662285,945.6427166994321 499.24801970271585,948.552568863025 504.9686477412588,956.2433245708635 514.3601273033216,964.7721521160857 527.8525301731207,974.9044982097855 533.9952607242325,976.2900496542487 542.5136550774569,973.1633351239242 544.9421536690209,973.1423950908991 548.0816525494602,977.3784648412188 549.8110869862674,987.1478942789199 552.1105037693899,991.5823014575157 554.6479940772496,994.5716400774367 557.7523887595218,995.9098907432203 564.3727731785622,992.4156052422275 569.2799043589326,996.2952901257819 570.2385080359486,998.5798370024423 570.6024472642432,1004.6900950568427 576.2304393316518,1012.8285051827141 580.6160837407327,1017.1059427922207 587.308331741121,1016.6204348777136 592.3877598966283,1014.1784017413429 595.5998575704391,1014.3435911145194 602.7599444839122,1018.6300950540437 606.4340705123118,1022.7172319676622 608.4869728111212,1024.0 616.0721778314156,1018.0408733770449 621.9794459220743,1017.5540450971133 624.1886619024826,1015.7970569355463 627.5295319950018,1015.3559639125327 631.3189066831968,1017.7302735134 634.9231498908126,1016.8788225561221 636.789631325266,1010.8630390088018 638.9960209337348,1008.733642563549 646.3857245252908,1006.1132197503705 649.9104206915616,1002.5908190718982 653.9129590826326,1001.8416020377975 658.3109590986854,998.7927046480717 661.5529043723575,994.9776459302859 664.6905771524829,993.5058364078831 673.4862434620086,987.4594969411932 676.4480212904923,984.6034946845585 678.1140855107229,980.2929113935058 671.5425778773681,977.861380107729 668.0762563450729,975.584538930128 667.2192997333997,974.0227694728866 670.1210435980281,968.3651304833764 677.543194939733,957.2525402250913 680.5513240668618,945.7756187452419 681.4156830196093,940.3186234168518 684.7171855840086,930.1175013750704 684.632112302706,927.542582510253 682.4275958166048,923.4851740427006 686.8293671451486,926.0551813904808 691.5944103878369,926.0079760910592 696.8409348113287,920.2358053228055 697.1127865647428,922.6287638865883 701.977599317581,922.3922204988808 701.630818176661,918.6047204653614 700.2813392818592,914.3783902374314 698.154890417729,911.4768838272361 695.2476983238782,897.3102267253789 700.4635830767427,895.7294692749244 704.2416643678135,892.2434284994529 705.9726838136647,889.6002159553427 707.8752226067794,884.3646042944133 711.6670779086188,881.406140793219 713.6131745437855,877.4635673470545 715.8605519153937,874.7943958344903 715.4368695042801,869.6353514594498 719.156090211886,864.3515531576327 724.295472764264,863.1343145441472 725.1707020977378,858.208042089594 729.5922574983548,850.5680913101766 734.6950729152973,848.3370288326746 736.9630215410986,846.1858036433423 743.33530384814,843.4020035747396 744.5405999082591,840.7737072083337 751.1349262273525,836.4325230885062 758.3728751786281,828.1962299242982 760.4869154685824,821.6759485802647 761.5739490292793,815.1741594163782 762.760859734834,804.9388630135595 765.5107773850465,802.9604235803694 768.3134615632468,799.635380035264 767.331915744758,793.4112038275873 767.8745431502199,788.4040217225421 770.6065956955173,781.5075083007973 771.181331846743,777.6468366872032 771.0279641011338,770.3367765408972 769.1267849217866,765.9786990209666 764.2184501861188,763.3583628797406 759.7377275125255,761.8421882740881 757.3378447760446,755.9806602022107 757.2991283300357,754.3392417838652 759.4507717449844,747.6362291410121 758.8679568413386,741.7763588852237 762.3780915982885,737.1736511319671 762.1089004063624,733.3092633966088 760.7460287695592,731.3020350644988 758.872756157278,731.1492607329394 756.256297973663,729.1773066057249 750.9130863587493,730.9908169419396 749.3579902731038,730.7967471534828 743.8387534532219,726.6041552751467 737.0307997186362,723.3145000000643 730.7090779607245,723.2739514753644 720.8045378595357,724.685601561886 717.6516210223605,727.1277132534346 710.1515495051893,721.2848539069171 708.6037284750474,720.800475503884 693.2928059584922,721.460320285169 686.1280516274718,721.419210596006 680.8728396597447,719.51869091707 680.15824951776,716.1523480110134 678.2363633682296,711.9713834620609 675.7012826474163,711.4835899109968 671.1672670760271,707.3025760967028 668.6545689130486,702.6115298080342 663.5414391768643,699.1683857519192 664.2760820863939,697.4451543757598 663.2992969308224,691.6716613431852 660.9055249226408,690.7455259852067 661.916671162717,688.282041423118 668.023091549203,688.0849087703994 670.9820843065617,683.7937412386943 675.1142192755516,682.4830229767433 668.71163142253,672.1107443325017 665.9970627782664,663.0320518182357 665.683994649464,656.0035166399166 670.9702151859099,649.1427050067382 673.4724240631538,641.8523083677408 675.9522501691166,637.8955010804812 675.8590214838586,633.6690995849483 679.0364324251825,632.1785450345994 682.33368889715,619.8961932010791 684.4618764422211,616.1462697097037 686.1916082047591,616.1389189680979 691.3536714919178,610.4492366327368 700.5322633230788,596.4289368174188 701.0742136707919,593.7836867339181 704.6847649252842,588.5908395575666 706.4043011264221,584.9652952084851 710.68233617514,578.9587971174872 712.7367708569135,573.7467584426315 716.452266857015,568.2827667789014 718.9156126815217,568.5035205661325 726.5335916395669,570.5270082820994 728.9132567427755,569.9251361444013 729.385928829775,567.0461016457244 732.4771755162146,564.2268808490755 731.7805109755697,559.9482898574954 728.5802103406347,557.5018529859789 726.1085537415789,553.7369903020306 721.3843440902529,553.4257441927589 719.471385627137,551.4495825650313 713.3102033276118,548.3226161939276 708.5554797899442,546.63096842616 704.6346083165471,546.8639553730429 701.0754174985123,541.5723610160417 697.5366744082903,539.4341146384595 692.2528888534582,539.1575982747815 687.1262030781318,534.6829871220207 685.5612153510833,534.035843387376 683.164274493527,530.9283699169432 680.7185636716396,530.4903229636478 675.8406360964381,525.1020892045447 678.2420013704792,521.7592254326435 679.293776210769,518.3615336795208 679.0596881703544,515.658486864995 680.5618819743562,513.4945809768153 680.0173988548103,505.55682427147633 678.4968099589737,503.99181432475484 679.144981964779,500.56500171679454 677.4883599469875,497.9217670280742 677.6340240581161,495.23927929272884 674.8858036244253,490.350707384491 675.0696244476711,487.39036979171453 676.4272611000798,484.1289801232043 671.6418254150669,479.26534814239926 671.7906155858972,473.12442744968905 665.3397965096077,465.47617977029404 663.1902949932512,461.67356964194187 660.15877754788,461.0765791659027 657.1207696500119,457.16491416738234 653.3679470384799,455.9189538185092 651.8603693130152,453.10819555482067 652.3330647398949,449.0500770452337 649.106031065226,446.53310627697704 643.2902605501133,445.42564305902795 641.0369085147006,442.4914374851462 643.3818232926515,441.27458185623084 651.5456220447064,442.42138573885325 654.4125390094758,440.91204456612024 655.6187144755697,439.04714060585206 652.3842975070509,434.5756495944802 647.2151725473371,431.8646840342426 645.3919903802314,426.38745757345055 647.1832343972126,414.31899520346246 646.2244774182831,412.1743331222299 641.2314403694365,406.1769061632689 640.7063028194024,399.9349876896081 643.2332086103038,388.5184539062012 646.5745876141277,381.68992150032 649.9858983334748,377.74911695300125 649.144254754558,374.9328300608031 646.2582308214064,372.0390863921922 640.9074948911943,360.0594627999702 638.0147225009498,357.1656915391503 636.8070066746362,352.25166628942543 638.6289264364766,347.492993081221 641.7747774919779,343.29430451828557 642.3207153568188,340.85249468080576 640.3301956573333,336.36183891794724 637.1673831771242,332.1511469071936 632.687201089167,324.521274776724 632.0500728531621,321.1043715721354 631.2111149384101,310.8383061389219 632.4169980694871,304.2885680051663 632.4992828550565,300.082567415909 634.1775084899327,295.9055159954438 636.1629937974798,286.35620344180904 635.9465368990487,279.2305869278048 638.6846034149119,266.83742339896924 639.7868179624882,265.6874766090069 642.8749099567186,265.56178338693064 651.634822106343,262.82490360870577 655.3575708622618,260.78158092200215 656.3489910875612,259.2025786236719 656.0747982577819,251.70055464143024 657.7940234806266,245.233726548072 658.9670287275361,237.06700699767362 657.5545523973602,235.71836800510084 656.6222384082583,230.93824805160023 657.1696957781165,221.4643914586211 655.0081712523572,214.8079531258221 655.4135471581171,211.43941520460953 663.579195277931,201.03989114060175 660.1021835182781,190.53065729206628 660.0019337155821,188.81968362329803 662.4897360671988,184.30585248682155 660.7347094650845,181.71592426219968 655.5426160457127,178.53383810966523 649.3360320614927,173.60361214492673 646.2271854125723,169.26570361017934 640.6568324825564,159.12465095693653 634.6535806357888,151.0385331924989 633.2376826735069,145.35260774044116 632.962244135069,137.2142550922722 630.1371862707505,134.37742760474146 626.0646102066335,134.45751582572507 621.2285754079095,128.1157423032854 617.52613479651,127.3963143585197 614.4118304671083,122.19852509452085 612.2725007631657,120.39929679186605 605.3598427969961,119.21277753309255 600.7676163180511,119.89044889026354 593.3778143106432,121.73088850831232 592.6382413380823,113.59711400681056 594.0280032995648,102.74019150214872 594.0166308099683,98.65847779569378 592.6711769795452,82.59632902029034 593.5610733916166,76.98569388954729 589.7575779020672,73.8376437569334 586.7760477766604,72.3190072001056 569.6399060163608,67.41644267914467 566.8289458153874,68.05535428594874 564.455397207656,70.39386470695479 560.4285090185549,72.63384449684713 552.657684807351,74.2033718704555 545.3720761456377,73.31991961522704 540.3407651774409,74.10847400593173 534.6382935625038,73.47988939431377 522.4268681917594,68.20230425552586 515.3027758767682,64.4938271745076 509.0104967263059,64.05363079023095 503.4618476528532,61.184167921105654 498.62669349644653,61.380743689691485 495.8578403888998,59.843392734081704 487.1547521239569,56.22533563244781 479.51999875024916,50.15002454700323 466.7721858376437,46.910746409409626 460.2073574384277,45.76676048492084 454.4616288633548,43.61726597818051 449.82072164336523,40.405795598173086 443.9644640974994,35.368999566788375 438.0221832915916,29.290108619431976 437.24424644678714,26.21586351412907 437.6272779372266,21.412616072138462 432.4494282793392,21.368668218877247 417.6746504192844,20.561446650307403 408.6452931226055,18.677387689275406 387.51479877300886,9.14296995726022 385.8114649002756,4.238904750932306 383.8412602593837,1.6450768185761717 379.9512963755867,0.0" /><circle cx="441.08121107564597" cy="403.09512818401276" fill="rgb(100%,100%,100%)" r="16" stroke="grey" stroke-width="8" /></svg>