<?xml version="1.0" encoding="utf-8" ?>
<svg baseProfile="full" height="1024" version="1.1" width="1024" xmlns="http://www.w3.org/2000/svg" xmlns:ev="http://www.w3.org/2001/xml-events" xmlns:xlink="http://www.w3.org/1999/xlink"><defs /><polygon fill="black" points="1024.0,275.6862386335673 1023.733066162072,270.75318324406135 1022.3462504540048,264.5559538183294 1017.722873278408,252.79091734584085 1015.229307788453,248.45851936971962 1014.4183812372455,247.66230444773953 1012.2847839077426,242.50982800411077 1010.758179990185,239.4712124532158 1008.7494107679712,237.15170684184795 1004.8470438055188,235.0034280518945 999.1067881308933,227.88315581793267 996.8599118452347,225.47801820235372 992.5362972538002,221.8224437932954 991.1602310093899,221.14390627917862 985.7908517773047,220.68737870248026 983.2470427131743,219.594287831732 979.1973686607839,215.58539134099146 975.8262215964871,210.92987153520676 972.7045279419957,207.13349307388376 971.2632078693059,204.17566034748427 968.7365693703797,196.51563275805324 967.2312591999721,189.75158924909204 966.2815923886585,183.17127138233332 966.0315670993978,176.45078640167014 965.4088685490619,172.57045847936183 963.848833149911,167.8066100454721 961.0896245466388,166.24400504770813 959.2547822001027,164.66125113152884 957.0555437291212,160.35163648522825 955.3736139319985,152.9121977004429 953.0687119777637,140.58584970370487 957.5555305822442,133.05782128573583 957.9626322304832,131.319595663864 957.4940595121737,128.77911772363802 953.4436592728989,118.80593626064046 948.0478290937068,110.5638459718208 938.6699020810961,94.13452041471942 936.2987729092655,91.40213733324254 926.1406948765631,83.04982788263999 911.6021778573754,74.66380124901923 906.8402835063198,72.01320949021465 905.8245096519953,68.52868070886302 898.8936706343959,48.89324351334233 890.2647400347302,27.700047408074965 885.0236711535384,31.82113694758391 873.4493531308237,25.589604699141546 863.822041593332,20.056048432905413 860.0717838352012,16.60998954423974 859.705209371316,13.999487065451376 860.468310313379,4.8817971229216255 859.5421199063043,2.4366764164019514 858.0169561739444,0.0 854.5845052713689,2.2806074980030644 842.5689036734445,10.803432432631098 837.8570723095933,14.265898403475717 832.7810647718561,18.26065163685996 827.2639010706296,22.268360177485647 822.8413083490028,25.84297212813101 823.9134713640938,21.479927984517644 824.0065791580513,16.52118373233668 823.208339809631,14.574036610681787 819.6532933591961,8.118873851182798 818.5246448449922,5.457374900186778 811.4570835440306,7.85687748271107 795.9282623549776,13.647188060257918 784.727361011549,18.753598722763286 778.2446778034852,20.493819449080547 771.7215541417853,38.756934982130815 767.7077102095208,37.68958980358934 761.197859151682,34.13693762321475 753.8172840805238,28.398227278625427 746.3538904450319,23.372627814476232 743.5748593035127,18.535694926204997 735.3654213583263,9.22008368106583 733.5378286704852,8.033264131753299 729.5559675475777,9.258894377683077 724.0696150558158,10.505138490291301 721.5037005457986,11.355179303040359 717.9427784064866,13.4787392610923 716.0636430255672,15.305325618265897 713.2775598141113,15.343502637234678 705.7589024766742,24.21088386100962 695.9570090261532,37.327162791251226 685.0817978482828,49.7867441963441 682.3975963400602,53.57556494094524 678.7323544041319,60.71230201166043 674.3598850819881,69.82375699732734 669.6653322812234,77.8097340072726 669.075054024085,79.8376721969953 664.240293895094,75.10336594673697 657.6736707999252,70.07063448438623 655.0741644658565,69.51011873869311 647.7274531613718,64.82328142883023 640.5883449850619,60.017095082393325 633.1043932278117,54.07878396932438 628.911297331895,52.09479459001682 617.7368036741591,45.240386415540115 613.6486183147701,44.82966814372219 606.9377593577974,45.22779548566825 596.9314585513399,46.491549842426025 587.3830682723042,46.9204051526101 581.7250438339626,47.5573530266048 580.9536122241209,44.39054912178369 573.4576996419187,22.100144693388984 571.8830866743695,10.569919029585321 568.5499510348702,11.723502029247584 564.9334474032124,13.572383597166436 559.6768058164268,17.46976393630655 553.6813069723273,22.74629295400564 548.8239622525173,29.459245210273707 544.7082877806514,32.916761617996144 542.2494415423681,33.825722155929384 539.061371724781,34.38140394391655 534.0165576747692,35.72160732000896 532.291030921983,37.298685589613456 530.452302175493,42.2665878906821 529.1446313632011,44.18734227296693 527.4903988779298,44.48303889372323 522.4659682655238,43.85767658236318 512.6751741044806,44.56848191353731 510.8074603542355,53.36420768154801 505.84003122144475,65.93914089102316 502.0745647423384,78.45715499524829 500.4608348075169,88.59151642876088 456.4067691376546,88.28971399508657 447.4197300435716,88.39258446269594 444.61282418492806,87.57990433082455 438.70010847246664,87.62219099278047 431.2264806555348,88.73214623879096 421.4205122659156,91.61116872571336 414.98950100633124,91.8103799739564 406.35874417919086,91.08599196188163 385.1996947167022,87.4269180329785 374.34536538609456,90.44130496897299 363.25867699751376,95.28648455440134 351.84587203047005,102.64147940189696 343.1069775923458,115.02221131883744 341.25394524478634,122.39941254660607 341.54929176187613,131.78297798428991 345.5216071460736,153.06806246418353 346.0242226916847,163.400732723818 345.8402321998521,170.88003672156628 343.8847897660153,177.1630061401837 334.7098844295371,191.97968159854952 317.792775820575,216.74653671861677 307.61259857153675,232.7185674771066 300.83862738482986,238.3770638787297 292.3298605982392,244.68022667058415 284.7604193607508,248.45174666436674 278.6549412096764,249.63721162223737 271.7204371969254,250.30568537044064 265.66824919226195,247.93667517288384 261.3524122783209,242.43744669747423 254.16804608389083,230.45545208200122 247.96412348384442,222.93225385628045 245.18946092617168,215.76360674138152 240.3750047487193,208.21621957959974 234.24274277946014,206.8131180414074 223.34667055822442,206.44780251380757 216.13691632571857,208.4743235930058 210.32068813004435,212.35964166120596 194.64342726818836,224.15764746079753 183.4883180080812,235.7148552828902 178.3947350429678,244.80819165519745 177.3398267422396,252.8046151115774 176.995908208144,262.3260781674952 179.38570366122585,272.69744188223774 182.86258341161192,279.597803345691 191.60204251914226,286.6117922802257 207.0480850580638,299.2741905162668 227.02539580119603,312.188203996896 233.97217471995748,323.70122242890307 236.52370932462242,337.21984465454943 232.6400203715436,350.9548990929058 219.8577406998823,367.6410419638045 201.04419645699343,384.2842786929297 187.48501368273494,390.8726497824011 171.9826699592935,395.6012609880738 159.99822286965198,395.2677040315266 119.09701816144289,385.2452143498659 101.76471878327152,386.28179484486225 93.4915249135634,388.7567092918473 85.40960293715601,394.0226807416618 80.0765584899561,399.02975664585153 75.5035631996099,408.92322251010887 67.44433861051183,429.0667732004188 58.604988330270274,477.99675438171414 60.85000251181111,510.06137638492794 60.85836328373864,528.8011306685573 58.73719076335362,547.9837837360722 50.069825497744404,566.6208407273494 25.265981214326704,607.8026783800874 5.167626280985125,660.3960371331169 1.7295953333859508,680.6959477135948 0.0,699.1135213359061 0.6429997545715964,717.5102083159825 3.920108330338693,740.3128237321066 29.859180468410518,738.4544113891405 49.131389750514764,736.3306345531372 66.1340774393901,733.9383457423666 92.4065434417956,730.8253619419222 107.01629550997133,729.1512287339594 114.14280957270331,728.1894132731211 124.51593308086544,727.8936571782808 136.5326547381688,728.4541865441981 146.20903750719617,728.645490005873 147.92709072924387,728.3440029733746 153.86626109023013,733.0923435222938 155.30112179487375,735.149569728225 157.2987469134117,739.8702486470125 165.898682892952,737.2257772543098 182.86694549394244,741.5999707890111 189.35735341449748,743.033987055468 197.48957255758717,744.3930458210931 204.85154882346984,744.7890993301548 205.57029915010682,746.1017449787457 203.41889914130644,755.8643464786401 214.10227975141132,757.2739658055032 228.26201992670613,756.7918389953147 240.95547685922324,755.9027540396157 252.6904523717326,754.2787754610094 261.7638126059002,754.9332169346991 272.821453530061,756.4802541269513 279.7814432704323,757.8246642440564 296.40209606550195,759.8768186768383 309.7537308770492,761.3735206297142 340.89284889598065,764.7682513665657 350.26490893316554,766.9230446577434 355.96059344780525,750.3361540707697 364.0821521668045,724.002566581423 372.8657148418135,727.5199188036041 380.926269799667,730.1561633650747 387.9898891662253,711.5314320909264 400.61199697350673,675.3688600123954 411.0228827709415,674.1400392782904 433.25854232081855,671.6564401253673 440.0931448036049,652.1708025244811 442.6890339883226,646.3926720824275 465.73740429180964,616.6865076280652 479.7658076849635,627.2677566317941 481.8925709470513,624.4670339601829 482.75393116957576,620.9501442706213 495.4367154982018,604.6668795283908 496.6871210583799,604.9518211306956 499.2164642265128,601.6527444781931 499.00072841793525,600.0944395715649 511.98878749373176,583.4368216641931 520.3966389420287,572.2891104548271 534.5549787796563,554.2321515807654 543.1739683376047,553.9062977979671 562.8223968654061,552.6400523436973 582.0092375469984,551.296711662949 606.8256756788561,549.740199038596 625.9751458499254,548.4018683339798 645.3659617037692,547.723439719811 664.530387839061,546.4718755910565 708.4263126127236,543.9650743515922 727.9110847884347,542.692079652388 747.2356247928484,541.611958023955 755.0331640885249,541.1006291536519 757.1257823265868,539.7229004251146 756.7053809677259,517.9957838911812 755.814980401139,493.8854702262601 755.1967311716166,484.7940963026302 756.8661493998094,482.7648621108959 759.5567801788065,481.2761556680388 765.6726312615963,479.3019188965936 769.5138283639427,479.30362439159063 770.7572766485101,480.443609552024 771.9185027066715,483.3718425350482 772.7443784789192,484.2437079428735 779.5342325403393,487.6212615025163 783.6150194019199,490.1392667453437 786.2789640713381,492.76589112655665 790.4120124161483,493.3453425163924 794.4241171418578,491.5778398817514 799.3126131497497,488.29172491804457 800.784843412336,486.81279988328833 797.7076534230014,483.23341689159736 790.931376631501,475.8161687603294 790.0978543201985,473.39013712248476 787.6744402436672,462.2833793942021 784.5632040605636,453.20606612651943 781.9371265412436,447.9221978721796 779.4154292021908,437.4124561973924 778.0350192796095,434.4325037695678 777.4782325645684,431.4959200408057 777.7886045756858,427.7188170904662 777.7346608205931,423.82350917358366 776.1724721054453,418.7919084675132 776.0829610561042,415.34900733667325 776.9875933164919,410.8378724952658 776.6984750954883,407.0827634752205 774.168053025018,402.63287758634533 772.5363739684541,392.56953185104857 770.6965991339453,388.29494139011905 765.9294914562189,380.09627758247393 794.7008924999022,379.642765760854 808.541839949516,378.6900914142684 816.4421020799111,376.79962246720027 838.7468581284637,369.40754576697464 852.3756305162276,364.30672690113727 874.3958502814745,354.64312301850657 886.2828088612653,350.7022353733189 892.2014731265047,349.44753343332644 897.487364409509,346.8459505832969 920.2425139804857,335.40931561101837 944.0537425027367,322.8331352467564 983.3817086241881,302.36969187673293 989.8859118478059,298.2838159825937 1013.6831180079813,283.78585990431077 1024.0,275.6862386335673" /><circle cx="213.700807235122" cy="695.7390807216192" fill="rgb(100%,100%,100%)" r="16" stroke="grey" stroke-width="8" /></svg>