<?xml version="1.0" encoding="utf-8" ?>
<svg baseProfile="full" height="1024" version="1.1" width="1024" xmlns="http://www.w3.org/2000/svg" xmlns:ev="http://www.w3.org/2001/xml-events" xmlns:xlink="http://www.w3.org/1999/xlink"><defs /><polygon fill="black" points="896.5388278429868,162.1990413260072 897.0522395616443,160.57822557146415 897.3544775076099,157.46105863351931 896.9992974956746,156.53199988019412 893.5257683614075,155.94880244926753 888.9659334449142,157.0030640568915 887.0781840814442,155.5302959490242 884.927405314955,153.08361435263157 883.478594346906,151.85563027960347 880.1247506323269,148.07345379027208 878.2373751287497,146.60047424912534 876.2209701922465,143.53362786673813 875.8993637935519,141.22544144819494 875.975426464211,138.8744524281475 874.3843419770294,137.9618766276534 871.6452563958209,138.27945877731474 870.0630368526457,137.66343917643383 868.5646146294254,135.9933447600032 865.1393807883687,132.98595066051575 863.833116315872,132.2086439140195 863.1377733181747,132.47669351797936 862.2858428353838,134.14145575603743 860.8109579829584,135.84969276502454 859.8291884463372,136.34303993086405 857.7461286812244,135.8334561140731 856.606164653645,134.00219483809735 856.439421856377,131.30778601354461 854.7516569037621,127.87135732717547 853.9225208322227,124.3933250904397 850.8774890226648,120.75574694463978 849.183116258051,120.15700979653116 847.2281940546226,117.80993813751468 847.3643695592233,116.34256847851452 845.5739757708491,113.35639194006217 845.8442556563471,111.6286940806018 844.352615115008,111.76871724592888 839.9158422304613,113.51261517957744 838.946555907945,112.90784279483978 838.5626140299034,111.3749169163716 837.5445453914027,110.26535173726609 834.7696120056576,109.0689137107372 833.3194115893953,108.93918246957651 828.8642070368509,109.78227040200215 826.649090634186,109.44229006553883 823.28816535493,106.06471968202607 823.5811399717755,103.83250850559239 822.4405050590221,102.67745955693238 819.5914086465053,98.80551370404135 818.4403300997835,98.0368883392099 814.8347388241342,98.37826847522524 813.1679905563556,98.93067428789459 810.2683045041204,98.8951163564617 802.6098267854977,95.45108669350793 800.1943099672734,94.00286049330646 798.8642757364523,91.54865926183686 797.4535372712762,85.6027187979006 796.6731470041194,83.79867221722884 796.7579557651654,82.70103519796874 795.9744612165518,78.60228541166487 796.1438674143902,76.77554700828989 795.7307700753028,75.20763845991371 794.1322693423543,73.74382443260379 791.3562042585902,73.49223780097725 786.381230849638,74.66513943292591 780.928413327139,75.00660214309175 774.2639820029996,77.54063975664553 772.0470192129069,78.05562510180016 769.2079737132503,78.20754285395253 764.7719985554983,79.77648783409927 761.1001924376461,78.7001197353701 758.0084964643967,78.34736080577647 753.2763827686368,79.61796246937217 749.7938546468785,80.07242548914303 746.788603110079,80.8713975961432 744.3074462842714,81.14063544931025 739.7960652475826,80.75478417609907 737.4259404202436,81.16805729002886 732.6830723399876,80.00658491114109 725.5698803454112,79.33864837047088 720.434203368374,79.46153281937961 713.5365008386307,83.37639471536875 711.5035031392144,83.64777687769867 709.4382753652528,84.37739769983045 704.4753553107796,86.91283452832033 696.426541749232,89.81323329121722 695.5286401446941,89.84522508202667 693.6542892090716,90.97977801664695 690.8574807258708,88.5274909634137 688.5828209127427,85.69864527125094 686.7726856565482,84.14182586958248 683.4483908684209,83.16361219517012 681.7683510803818,82.35462644476877 678.2698132920466,81.44730540113699 674.774451362442,80.0801314718982 673.1868872294751,78.94779869778961 671.3026074174908,78.16459624892263 668.9514860675944,76.50593095108377 667.3708254910151,76.13884737194155 664.4316681964108,76.02588407354449 661.04014522998,74.40691478659187 658.1142152071454,73.53743567408071 655.1212298832911,71.89319338523546 651.9471213988012,69.60844497223275 651.1465773235456,68.36271780406844 650.6673233437973,64.13942027034545 650.1085333155867,61.65185461861063 648.8359652644594,58.94497902847786 646.9835734687802,55.91156593507594 646.210945774632,53.29833164278318 645.004917832603,51.50987454351332 641.4746497620235,47.34292661108475 641.4988232391472,44.6438139468421 644.3629071299441,39.37547607348381 646.4593904532202,34.4023710261356 647.5198404912256,32.382639863786835 647.2137042142651,30.474168066519724 643.6278349980391,27.368990573483075 641.8862941162453,26.694947368331782 638.4506363374246,24.229794904172763 635.9160483821432,23.028894345549247 631.5552937927795,22.026410325246843 628.6636966896673,20.805430549364814 625.4832030531109,20.429056808291534 621.0405424283597,19.415285945934897 619.3258087146593,19.621805992191412 614.9009571537908,19.004585485026723 612.5341441827569,19.018641068692546 609.5403749189005,18.057083155684495 604.332375829001,17.057419277758754 596.8701727348047,16.250132901500706 592.0808787517614,13.479919737583828 590.0541347553466,12.892989467796497 584.7125175383952,12.213586352715197 580.7220967779198,9.023558400827028 579.6418723094212,8.864395779904612 575.5505809759397,9.037973927957523 572.1659579507862,8.775107424994417 563.1388506333261,8.585792221316865 556.272777847186,7.231267166344082 545.4592256038143,5.769133338911956 539.9209096908023,4.051727083352034 533.7327521557023,3.4906129608494894 529.2326716486308,3.767036011544974 525.8793467455015,3.394531772959567 518.541219302354,0.9896168430367425 516.1886470657029,0.4975061843693993 514.3719657245396,0.7010840451866898 511.36739068539924,0.06833441317292 507.91016768178883,0.0 501.1848037174279,0.5396507622473337 494.90470277685023,1.5839396026859731 489.8980515594747,2.799765098428338 487.8971575344787,3.109318735601505 483.62251575418657,4.617554300920574 480.6299094853452,5.099671594032429 477.2646977613943,5.084600643504359 472.9987761605161,5.341550574505732 468.9211221783196,6.345746145403382 462.245676167527,6.918440163076298 455.4016778476717,6.885759252795992 446.92726256497195,7.873957477238946 442.5336786280191,8.848739271617433 439.1926253018903,10.963982521779371 436.1141328552896,14.556627892867482 434.8036932449427,17.803223031085054 433.86539448635506,21.80904882378252 433.70622609522565,26.513048078026713 434.31836104837834,29.145193140804395 437.49889295171334,34.891920795650435 439.3847208659347,39.13513592151219 439.5606622785989,41.47624345710767 440.9382138067155,46.940630768359256 441.7105037154416,52.68803902577031 443.8037207900685,57.97930362910938 444.9361401905426,62.04713548246946 445.0587978744173,63.46064788490105 444.26228864460217,68.85582788148895 444.54733965669425,70.30781004031655 447.44451880271345,73.30894801334387 449.3930273004827,76.20398003930245 451.6211672711476,81.31751786913321 452.40109080172755,83.53724175211448 453.67440539582407,85.31246187877241 455.4404157490101,86.73817751519391 459.0253156919787,87.96284793894904 465.2780642237482,88.94491928482103 467.91279545235335,88.94614333040613 473.45219174399335,88.24784180075608 476.6123705142663,88.98196189878183 493.94027866828225,91.94987143556739 506.308748910124,92.99792184629348 508.8756775757597,92.54788012849144 512.3127856991299,93.11037436334698 516.4010666669833,94.06615726779091 517.5978515728648,93.78519019024202 519.1264359739074,92.68840568389408 521.5007170291798,90.30789762339771 522.6362821426792,90.11762606831826 524.337729399736,90.6244926246253 526.0390470169932,89.70849122965421 529.3643517008093,88.693877086219 533.5445283696387,88.0095314233273 534.795344197855,88.86383790480716 536.2278652719441,94.72615379741967 537.1101637346447,100.4051359542035 537.9615535889842,103.0944317181669 538.2320443206602,107.11294285217298 538.6244799524635,109.67344951762004 538.3432389002935,112.07555796525673 537.2685974534425,113.94224417971986 535.5630996915525,115.59812301518696 533.1617585406345,117.28415318327632 529.0363339073864,118.62761600672161 526.3320827853993,119.85303664027492 524.3362785351296,120.40755986756142 521.7032357329563,121.578074440813 519.6682423981463,123.46644384901765 518.5197666701828,125.67397551296176 518.2371495628315,128.1851598116325 518.0031268419989,134.21134922700855 515.8571644702843,140.4765105164132 513.2246726274213,145.97301348728206 512.5136476574835,146.96859322426303 509.93322107040274,149.16767674599998 508.3633935219349,150.16642139502449 503.5603521444639,154.63088844642505 500.0710222578405,156.88638437990073 492.36839840533867,160.84356971930288 490.12439095070715,161.63951464198578 485.6436200132657,163.66273926490555 481.1462489268529,166.65897639333423 479.8152765898725,168.3266150087826 476.71714661302417,174.2346969981038 476.3869951554057,176.17010455066065 476.5627784684977,185.89871231274356 475.9548375758754,189.32044626079028 475.9809135529943,191.5023819731383 477.89225873297977,197.24969399848362 478.49986770376404,200.92407940818623 477.3617715190074,202.82676395709075 476.02375413589874,204.0615380352225 473.46182437573026,204.8727369766242 469.7579391741807,205.0630786479934 466.6147827373704,205.66182797987722 454.2390708432737,205.9677641077982 452.032382605327,205.6007912917695 448.7130789341979,203.7627958738948 446.4731188443149,203.7999240561644 442.4977298059167,204.80753139464935 441.1885635558203,206.15880748431243 441.0655924016091,208.8815427196024 439.29099838563144,209.6257105462505 434.1364183814648,211.01944831529067 431.08646796784694,212.61016968232786 429.04695203552217,214.50651748842336 423.9905629316436,220.25747573937008 422.3544827402129,221.53398981367002 420.7791163721436,221.585871445051 419.2737496001813,220.44658374932044 417.9143082930409,217.7481762593195 417.8485079774912,215.75466096623575 418.2463930387335,212.0324780643739 418.01739382215953,209.94778676811757 417.37373418292566,208.5442795163267 414.0446252837198,206.58918577638326 408.32807488359197,202.74646094816012 406.8362027530164,202.59069679383526 399.86113542687264,204.02284431104988 396.94139109747243,205.9741760138446 396.11307941022625,206.00338987986572 395.19879993547175,202.74959049667655 392.57981026771296,195.38793648786066 388.19216201983335,193.0442381548943 385.72619311321574,192.03120665140364 381.28515613142946,191.13778370812565 374.01287594967374,191.47365465255768 370.55809860747786,191.36357266996276 366.9916230973747,189.90915205499016 364.6142040509153,189.43813571693352 359.97508957303444,189.0375202383434 354.76907850485793,188.14502367968396 349.0849442291002,187.99668306034084 346.60215803689846,186.70362094002382 345.78377685748745,184.4337260897696 345.90485430450434,181.10749235112166 345.36361389682133,179.8596577569091 345.0281211547571,177.29606333558786 343.70247436590125,175.75237728705156 342.1453627607207,175.0079518184806 336.01902109544045,169.63585440660995 330.35320532982445,166.53783809606136 329.5928257202349,165.7926041781801 328.5641488412674,163.18801962773625 327.7451326179613,159.9175331252743 326.81897203076534,158.35018238253008 322.57430447669714,154.1394505129574 320.3206697913815,151.34254933408 317.2677432641204,148.79126091558237 316.364558836295,147.02622491049124 314.7799864492625,145.95738034833437 310.20630837712304,144.40121850937567 307.9106015630781,143.97418281003593 305.5084741570945,142.97976209252704 298.8570206985983,142.9446434077945 296.74340032766236,140.5811378209214 294.9144302019183,140.5729085154975 294.3857768266566,141.31661144424731 295.71446995249835,146.6996467764235 296.5171213695982,153.77156179317797 299.2374840236503,161.25055491010858 299.9598668697828,167.03489982071585 299.1844406987438,169.03740172238304 296.80128786448194,173.51357298820983 295.5454440653512,185.3920922155736 295.0929865645564,191.0947742582747 295.6851592692081,193.30016035333836 295.69504924151494,195.57326694105336 294.8288257489538,200.6415135817076 293.8680350615995,203.86990244043852 291.64668615458146,206.22854070950996 290.06346353638236,206.0247881866104 287.6065808646398,207.42565017257232 286.7208015614459,209.10465467531446 286.40414851876415,208.02806047313663 287.6012128286515,203.6025680532449 287.89631287189184,199.466427638224 287.7731737908679,196.27276042117785 286.92697145668717,193.9030886658768 285.19708495214724,193.01208051205617 281.7204177958133,193.00582714978077 277.9154771345389,194.23165901898494 270.39319291189105,196.01585605158994 268.05171689872395,197.03968821510261 266.2585118919642,198.47333324949057 264.70846438328823,199.06303315648768 261.68902940283164,198.29372277978894 259.1530490410375,197.2131513218269 257.72644643373616,194.70130425546586 255.96789231080012,194.6299799992065 255.33814983635534,195.2735501656814 255.80075102447185,197.06317163054996 254.93579370493143,198.6868240697795 254.6672827299744,201.02012472896354 253.27541361003753,201.1231772745325 252.43914333184316,197.8504265838843 251.2322547924713,196.79307770669743 248.1629979414489,196.00477744213947 247.53806829994375,197.10679676189932 248.00326516412034,199.6631619268071 247.36434713890245,200.17173804850984 245.2515182623131,199.7987002891324 242.72050705575612,198.23993019919294 239.42380030741296,197.64805735856976 237.0202923016312,196.61306363652386 234.9214308274217,194.8786300793481 233.40380064498197,194.31355270534755 231.24520875432566,194.45335853191818 227.28094753582874,195.14351188816204 226.31449364007506,194.60192952887576 226.13155237784687,192.49008966414408 228.00051687733216,189.7327988299271 227.50343396312243,186.3823278585263 226.28067552982017,184.98154225672738 224.66147542686122,184.369017714989 221.49569845849481,184.92325783850538 219.09986732808986,186.3136748794932 216.27560066973956,186.5360680709614 214.91403934130784,185.65633794890425 211.65173260230782,182.8368262099981 207.07118606349454,179.9224206672243 204.6789240844833,178.8968241074615 196.21966837179696,177.45489416448743 193.85072879264663,178.07816469700185 192.4107815572357,177.03539195022586 189.22132648962065,165.597247092182 187.535295418222,162.63180784486508 185.54806438315617,162.14164995713315 183.82307480045168,162.79981356766746 178.2135695170685,166.39776890982614 174.5705757897072,167.665408993156 172.3295854165637,167.8566501299357 170.25094568221567,167.32016406065725 169.30264836097223,166.13852319695957 168.94434095053415,164.3584826293311 169.15102486734727,162.27001382742958 171.21359611866058,158.7327511067283 171.3882738606339,157.743234295717 170.73611311674256,155.64533801699918 169.56258537630728,154.54983547979054 167.03889680182672,153.53062608453956 162.0815646575242,150.81744924746124 159.29188485023968,150.8314265782268 152.00556118827382,155.31043659244995 148.9100924567656,156.0603542970225 148.17809089191974,157.57523594350653 148.18096692315558,160.93742897553784 149.04871384433534,162.84916083009114 149.0335250331867,164.20001754139741 147.77633493742425,166.0069342326201 146.3746277963882,167.01853802278004 144.23830462409327,167.91394154492866 141.05920052216646,168.80645840327463 138.84638674488218,170.0886961592529 134.90028101853264,171.0351762336395 127.7284480638835,171.538584219192 126.64017588827726,171.94985704512533 125.79426417337605,173.43754702608032 124.6275629907631,177.1111787477339 123.36253949257978,179.53022599332132 121.93245428699815,181.22687700599954 118.99541169594373,181.4355446731936 117.38588387190647,180.87616389406696 107.78949298363426,176.17528010612443 104.55433125069118,174.84778421112662 100.69228041541699,173.75674164877614 96.09427742401151,173.5493183475313 93.94301189223964,173.96418743416575 92.21725929401873,175.46800737894262 91.17057645778083,180.0621596394384 90.59813373536,186.0232976209852 89.58491381492358,187.80657033410296 85.03417008209097,192.10687852533772 83.55006776243688,192.22385214835026 82.83751975142637,190.26830940787147 81.72321773870951,184.32153409358443 80.33708514404451,182.30260099895202 77.78454503561112,180.3157362251336 73.33810918785447,179.3781001017005 71.49569606771364,178.6788157766157 67.92194204871124,179.12313169910192 65.2637386266365,180.75750985328648 64.22791059915559,181.8723737279505 63.564552997150585,183.43231667749853 63.44549636852532,185.63980955878992 64.84697399332737,191.39262409569335 65.15951694568376,193.40635536055788 64.55787626942478,195.79799031672906 62.510942533300344,196.75528008487584 56.918470632647086,196.64126621489766 51.557660224180324,195.19537825248062 46.50587829462004,194.35660740108472 44.450568934809375,194.30388826736566 42.661903520889105,195.04815488450038 41.92311392030314,196.91392639365142 39.80150070165804,200.53973440798802 39.80092314852152,202.99271162101184 41.26413157580972,207.8002231203552 45.18824294029004,218.69137432558443 45.49431096445334,220.4366895880836 45.34767116803851,223.1408295853895 44.32725935824172,226.21288564996757 43.45888761524239,226.9057837276133 39.926510974048746,227.11440524115335 38.12712180070081,226.24282755118134 36.13752912663633,224.2245097342958 34.56736313405749,222.17420384077013 33.77550477914233,221.68642542247767 32.11489329222712,221.9183808797286 29.265518686004476,223.95630608876593 27.69135566837683,225.5069487533019 26.84457150569503,226.9486845502813 25.952167559798525,230.32910199589583 25.10827536813806,231.46391325527338 21.043429778392408,234.14486775818386 21.084904812181453,235.71608286247158 22.480707065695942,236.9424762077092 24.804653348034215,240.022367267164 24.605513689536924,242.03101371892387 22.07269026649974,245.6357197760061 21.309610958005273,249.25276754033928 21.83279777144554,250.82115799276914 21.673712512406258,252.80462405485287 22.43972559128332,255.33162448650273 24.022652430096603,257.2294823886824 24.75408638030497,259.20634183032803 24.080121149187075,261.4901785417404 21.54027422213052,263.22615583688105 18.970773005355262,263.2741268930996 17.633172276857337,261.4705085121898 16.723406579364333,258.9942682627702 15.313599263237471,257.94740636389974 13.172752895405143,257.34186906059654 11.633404223181733,257.66617109612093 8.599127198437397,259.5661606319494 8.236795627885076,261.47505174739297 7.341837540954467,262.6282892711853 6.613579511146672,265.1090685300409 6.663725277143112,266.7972745402534 7.331434590847834,268.1788469968641 8.96556699925671,269.19279256330447 10.94841340142763,269.42523134774444 12.340721875144743,267.8738295064652 15.752988068180544,268.37760391392237 18.292175376416136,268.2664121971736 21.994566196549787,268.55660134323546 22.683720039070952,269.0983929201543 23.488057116778275,271.8339156311507 22.798693381597534,272.86408784621017 20.05769300832112,274.28152148402853 18.414154275314512,275.533160974565 12.546900484891472,277.24534669278034 9.076759822529237,277.2274410075057 8.10031743990664,277.5576908749864 7.245031715157186,278.78336416444927 7.239887551321089,280.7148627305073 8.95860930397421,284.00564841641653 10.005052069636886,285.38182038722357 12.233214761011858,287.28952449652786 14.15319480591923,290.8165231307652 14.790120814724292,291.4476035281846 19.083946879082706,293.5614791822903 23.43819484997519,298.16738346399677 24.919383985661813,299.2612179947092 24.58400132664655,300.63882053853604 21.560873279722447,303.2008691022886 18.628882475250318,303.5242001164571 15.856267146492446,305.6911277190271 15.863969763896385,307.4532544251814 16.861374112075087,309.5787071285963 20.42422232417408,316.0277815735319 21.36464996780998,319.36222454474625 21.174100696490555,322.2416938687219 20.127906121804088,323.9800560186944 17.442160394991173,325.76159644284246 14.138576973385565,326.1339563082471 12.928258443027207,325.495493207928 10.522140681721398,323.02560567975354 9.328915478567401,320.2643969590795 9.357650694179378,318.04296881614164 8.103460106885963,315.23599828462034 4.061337828447766,314.1997829006418 0.6923617883242772,314.8866620119934 0.0,316.169615330032 0.2488041082563697,317.5367699197352 1.333086761480504,318.3638616907692 3.2996629111049947,323.14901380605943 8.468241393940467,326.5667649962303 10.088027733480597,328.0517889027856 11.252154101251211,329.9174644318575 11.261013942790738,330.8486777865735 9.117520150706621,332.64593712468934 8.79815108707299,333.56263116009416 8.625593943698965,337.36313607499653 9.952459736694145,340.9672678908637 9.639579482587596,342.99622912632253 13.09851711970354,343.29385731269474 15.539436059818826,343.8492421057582 15.873940892863219,345.74141629457847 21.866247052262445,349.8558973295933 25.15504472382992,352.2839878109196 31.548952733872756,356.32191810567065 36.4840096288062,359.09524574788793 39.958956177101776,361.5070676913067 43.24849249411264,364.79227730846617 43.65347797930026,366.80334209115176 44.622408825263484,368.8214433773654 44.31184129957823,369.8924867053828 46.88819269986164,372.84370899198063 52.5934691482467,381.40983580348677 60.728210983265484,390.928736275859 71.24673107913004,392.50318039922735 88.94575059775964,399.83972751837223 106.063446431111,411.57807043435093 123.1382311448912,430.95575124374693 144.08306060031848,444.47089015631263 152.28793236753128,460.3375615182901 157.26827742186651,474.75127050275614 163.1088105683575,493.26801464430685 166.00474573686938,509.1567768679092 171.57484207814727,517.0933037237437 184.57282761307673,510.35407690097077 185.71570258284757,521.5193071668422 194.8354500044203,523.3087263157843 198.94071664088077,528.3229974492285 205.7040577436759,531.5708413055113 214.24684830577894,528.6635562952356 217.51123957160672,517.8049804838965 230.15416801235506,517.2740064235875 236.61764094751646,518.769776890608 242.75539963407357,526.1457409068903 247.12746977735375,538.811081978708 251.21171029725758,545.2991502092141 258.24737040682857,549.460786552529 264.3999176809776,556.8389790799896 259.35404499661865,569.7429592561077 272.265707991504,573.0473984722607 285.7813364160002,574.5884949053227 286.92198481575747,582.2372039546876 285.7173349341198,593.3964309325097 296.01058008864885,593.7470345872694 308.5847170310503,609.9657162386009 301.81195815907654,614.3440080342823 300.8955670134538,623.4540272645582 312.3532580024439,626.1515686970279 316.156875008021,634.0999765100753 323.47966873007914,646.4777799747671 334.65937128883354,643.8662775628247 337.2879196863267,651.2241333060817 345.5073025644446,658.0064827505214 361.4099364202818,662.4496170778621 373.20533875440447,661.2877287457095 382.0559001787966,663.0572156346482 392.0783840366632,667.4739974920554 388.4064110343407,677.6025149712 397.5559846541062,683.4624667318684 403.4569261118043,698.1608029273401 403.45367290810145,707.5691255786289 414.98495706627244,708.1311641330963 415.27848872050873,721.9627818827462 427.98301522130083,728.113861137783 430.6395227648908,719.8673647380567 442.735023887603,724.9303189502932 451.1557823162539,735.9661479613777 458.2585980309693,737.3072304387183 468.2553899003129,735.681719185804 475.5110664519985,748.9215761865009 472.86271387557855,760.986949504336 477.2815751552669,776.8708013326404 476.0972372839598,784.2276896036345 469.8956791810823,790.1237657358344 468.21253200563854,790.7563663313535 467.5812549205815,794.0312827387177 462.1368969738714,803.4016371249431 463.2590145167614,804.9094605961466 464.86388688042075,805.256113307766 466.4860614809171,807.4569981102029 469.38551756898937,808.3135756525618 470.3104599622131,807.1028889828074 470.9372546573884,808.8972744503462 469.9854466946047,809.4542063764411 471.61933015984624,812.8633380040302 472.32493247502066,813.6490225259652 472.9483025278823,815.8067449508571 469.6722976662206,815.7745387121693 469.9234919923881,818.1748879086144 468.1213627317665,818.0079824697037 467.867844222182,818.8870188458515 470.2629256976523,819.7129954257645 472.16115161545736,822.2251655487493 474.4504573211089,823.4495998881333 473.40487969310203,824.1510070141753 473.08767831058105,825.2658694268691 475.03300181994496,828.578247354908 477.17308643975815,829.0568162430186 475.9008567417686,825.3216448262358 479.71636701154705,821.9778109883109 481.6695251872711,824.0535687826932 483.3923746485574,822.3218349707679 481.93105459204304,820.6308960019674 483.03830306310806,819.8296551761268 484.9474966281474,820.9509997672725 485.58684535971435,822.3729825304566 484.9745308000069,824.4950910407165 485.3512454292536,826.6240377714836 483.67444256117494,827.7667656180691 483.9354692242008,828.6763788846728 485.8928806870316,831.8344889942018 489.1035992613657,832.42926940826 491.864491262368,834.1649122607043 487.5977021971002,835.6443764251695 488.1014161277992,837.3748492027025 483.92462621732966,837.682431804015 486.09853441801727,839.2511285682477 485.62671127144955,840.511346803952 483.298664344467,838.8593918559236 482.1415752088229,840.7504254099333 486.0644832436927,844.1853811033983 481.06610834522746,845.5862700579146 479.6493513476588,846.3493748630971 479.4431224541953,847.847671038546 480.4055345082873,850.2079924075273 482.1541489716728,849.2481572817912 485.2701373476835,848.8601449199829 486.54343415734877,852.5592005269633 486.66803078763235,855.4054417463358 484.1157041753871,854.768916601695 483.6389268720332,855.2111688570634 484.30984676433417,858.0432209180088 485.1589688297703,857.4854086370777 487.9762686145629,861.5494761610274 487.37143139637607,862.5545526450778 485.09453351103093,860.8670636739735 486.12345001463433,864.0187215998351 484.161090051474,864.633048899558 484.8653047007365,865.5649786003381 484.9967426346774,868.9377113656394 485.67628472713693,869.1606861375536 485.938601705838,872.954190741454 486.45048226214203,873.5303897427592 486.25368783226094,875.0557259764366 484.9951838746237,875.247348089905 485.28113765566286,878.5222737078866 491.5198960160248,881.5478655202639 494.61638234103197,884.2063030857208 495.6144149862811,887.5039885372641 496.9775244300537,890.3778363451696 501.42625553707705,892.7986021088603 505.83944077188784,900.7490940192607 502.7767726704988,900.6015601942667 502.83146852021554,901.7113063217006 504.62387033384874,903.6248784918088 505.9700594972799,904.388830181334 508.4175597145524,903.9402490665312 509.8988784360573,902.9138448371326 510.0830468961545,901.6503164315047 509.12347876467453,900.0800652749414 506.148502128541,897.668252547008 506.91660680792114,896.97356992756 508.73301068182104,893.6664493969548 510.2501782518805,891.812093955217 511.77305947077303,890.8218837971153 512.4132043106481,889.2262212290035 513.4194485616565,889.7875153587026 514.2722803380254,891.8924499067072 518.2146273724937,889.8367915062383 518.5067723947313,890.9018442408903 520.6605065025569,894.4352538162628 525.1139898051645,896.2551154716303 528.2939811392357,897.3129167219756 534.2151109869203,893.8939126004003 543.8652475465644,887.7986634231088 552.2793708742261,882.8401053228965 564.3313158070179,874.4933502113405 571.4810269796981,872.1356844845265 582.3392703585461,864.625463330385 589.8963617748419,859.0418488116186 597.6820174974793,854.940534619141 606.7008372700543,849.4096724408402 620.5103590412418,842.0207864164809 632.4476601063872,837.4756383317902 640.8951740909779,831.9124290186439 649.004997686918,827.8091601908014 657.7248523753616,823.1353599404612 669.1725608218649,816.484485409532 677.5863835792102,812.671272693817 680.2856008899579,810.6034619043484 677.5205374032182,804.705115847977 676.5219668488378,799.949803015281 675.442872712091,788.2194679063061 679.56007969434,788.719730202436 685.7212576234688,788.3840536430835 684.7912509808001,786.5900215908999 686.9577422893967,785.8549596524672 686.7967802774793,784.9284877905375 691.4010296439492,782.4874111006385 693.5144388988546,784.4765680553628 694.433490220905,783.7820813207657 696.0661343035426,784.877989797491 696.2579303348072,785.7596361526631 697.7142148593175,787.2733273222958 698.3964405333854,786.8409926639736 701.4665673956164,786.5267231720948 702.1807705186076,785.749100679106 701.5173904662123,784.2298859003322 701.9154100399863,782.6330167401161 700.2211044408522,781.445798620021 701.2083517284818,779.5060587538562 709.6765271765597,778.7700791860846 711.4102096973729,782.909149022634 713.4733816150456,782.1549798778722 715.4998487875939,785.2320227099352 716.4113978648826,783.9928487600038 719.9968155062104,783.6247708061697 734.251510493907,775.1823630772824 743.9103139977187,769.9162342770253 754.2217954821438,763.1991418850047 762.2211581421457,754.630126401708 765.7007888848519,748.8605148941277 780.6367679946281,736.7119413350919 788.8843592607341,729.3429390970778 793.279907545012,725.7809575388135 795.6232299966796,723.4475747162952 795.6389990291414,721.7501934983113 794.947046892098,719.22500318757 797.8960953260021,717.3287137167498 802.6196901581125,713.7056075561318 808.7108618022997,713.9587800604719 816.542270223946,710.0897494140194 821.8474225775482,707.6998143500298 822.138864639206,706.7671685789729 823.6009454767329,706.1626191524285 828.528479485251,702.9468833327751 832.8313515281076,701.8606112036105 839.119923623384,701.0244946485075 841.7271593275646,699.4338935616174 856.1257802586039,688.2125590600026 860.5887768351779,684.5585083847081 862.5861201145568,683.7927127792287 867.4599409276797,675.1509314363211 869.1316903412759,672.8242026601483 881.0430716944317,661.9228980086017 882.8253762547495,660.1854650809455 894.7473733819986,658.3227399426116 900.6476510487605,654.0002362002716 905.4969727835517,650.0015916874746 907.9786665714697,647.693459600982 908.4136658649855,646.2253265362838 909.1024191424507,646.1905605810135 913.1292863403575,641.9281075125348 913.3379999491667,640.1424237395508 925.4783518454815,640.7241202818229 930.3014403267684,639.6154985468011 938.4884176276795,637.1437681479031 947.97740648904,636.5217793940355 952.305784444548,636.0827614937939 953.9399905770708,636.2207836984782 956.0850977807361,630.9922764220523 953.0889238230616,626.1494480264872 952.370941659499,624.4896835423275 951.6554654672076,621.5523427047855 950.2303745266406,618.044045207027 950.4274182284655,617.3098393511478 949.7109043870521,614.553519990846 949.9067707628953,614.0016407790835 948.5441621996837,610.9543393949064 947.2594623377662,610.4096169511816 946.5696758605626,611.5232607458133 943.7141748800975,610.8121422651108 943.1777478337809,611.8360755241232 939.9726862248339,611.2335100975783 937.2385591787522,611.6291289985019 934.7120008108895,610.647220223577 932.751790690974,608.4873343931638 933.3385826229386,607.6086324870887 933.9802532820768,604.2660150304921 929.5117994908235,603.2811768468547 930.7315160464522,598.5899475775735 931.4531830398668,596.5699800419488 933.7201723653081,592.2795308125092 935.1329786803744,588.7569418606406 935.290204746386,586.5923387912217 936.2773205482345,585.8682515298171 935.4671960305274,584.5818423429173 935.8696005311823,583.3677385373069 933.9492636886298,583.0748635690782 931.5738443940828,584.1949719655846 927.9782644812403,584.5710535312841 927.1284184697951,582.5757327910519 924.4087846897215,580.9332292910049 923.4449246327472,579.5090743754199 922.3056734829013,578.8909876027635 920.3679311777565,576.4611833734386 920.8946626031922,574.3780790992255 920.7647949128494,572.2400102376937 919.6917574635441,568.9602514985536 918.8710359931385,568.0254718210792 918.3615272163257,565.8970606175412 916.9905447165369,562.2084697976004 914.8410039780177,563.916529138005 913.9444020264882,565.7627268841984 906.449489306915,564.1834425950101 904.8665639071537,564.9677456521054 904.2283023868858,565.8910946434327 904.9011876348675,568.518079806677 904.3961288786498,569.4416658330063 903.1025752975394,569.0592887542789 901.8868755140469,571.4119608796641 900.0383838027664,571.0824567225593 898.5622989983779,569.5671804361297 896.3959308890892,568.7747618717635 894.5565444331833,569.2052799522762 893.4184548380445,568.1707685458329 892.4828540202974,568.7403537258367 890.6559974571088,568.1025149716161 888.5530842303215,566.5588659920772 888.3300043581731,564.8378571658341 886.4362690419897,562.0169788976846 886.358724381052,559.4000176004979 884.8531180877353,557.6584421683624 885.945786821006,555.5959593595215 889.6974585298536,553.6735424681334 890.7393464381931,551.7020594454063 890.6707453539902,549.8003093650462 889.8922547635452,548.9474898634608 890.295041810032,547.7990903217626 887.5192918019042,549.024981430025 886.873116490386,548.633354886355 886.0708635440933,549.6910561585014 881.2933682688447,550.8228111158086 880.9514048404526,551.9353396385476 878.6715100796846,552.0487166758332 877.6262301097203,550.9782210010521 874.8982763813215,549.2967829280427 876.0359591978871,545.822116524595 876.8021602267343,542.5199869370775 876.4460832322825,540.86157244459 877.7610406549384,540.7462289828263 877.5383157618525,539.451475454731 879.8980813041597,540.0997168328204 882.5673902120778,540.123211231127 883.4851714096591,538.3685613357031 881.9469885285866,537.4242293413828 883.3804888908935,534.1940267748058 881.6684993881029,533.1594527921347 885.049858119854,531.3918508367061 889.2506136481055,530.2959791050939 888.1962710538772,529.0715170502208 885.5796930882069,522.8837666520142 885.0851234855164,523.8239507708079 883.4212379141984,524.4818386863099 882.9779391000477,525.4490787592517 882.6515217595206,524.1451364382723 879.7123433669965,525.623375566502 878.1636035351436,525.3119653205431 878.2266868808089,524.2617748980176 880.195417284664,520.6449763195927 881.8792215534504,520.4494409519215 883.3560351099987,521.013584432344 883.668129934762,519.0779277324555 883.571675563805,516.0089360600984 883.9905425164065,512.0640105180426 883.4389744746773,510.66844525577255 882.0159381015089,509.018134739331 881.9151952644805,508.0677551176797 883.0874198299639,506.80412192245745 882.1073864953688,504.3213900745863 882.3878873620113,502.93779648074246 881.0169236133883,500.5543987704056 879.163868252421,498.67843919948655 878.6322515733646,497.3740448695975 879.0146785296057,496.3694612335822 881.8962873643025,492.33079390348007 880.1351251869431,490.23675984126413 879.3705254560427,488.07287345988647 879.3843722031246,486.45375290104096 878.3096505366134,484.86829868436797 878.3131399776996,483.21191907495137 878.9626991775926,481.7212523315756 880.2273180935418,480.6645789697061 879.6364975681289,478.6281718689319 878.7859234037635,478.0832479690808 878.6465728360522,476.092720810533 877.2136183513783,474.5244711827508 877.5953674990164,473.3491150882416 876.0047917077343,473.5177925634491 875.7735129658804,471.4371808057366 876.7697933383942,470.91414004045225 877.2650602426897,469.54000266447923 875.8546284507719,467.2848217630204 875.8149179803976,466.29860633406423 878.4474123355111,463.68992001054903 880.2532744969233,463.1877976003078 880.2057806126493,461.35154347431825 881.7833407482668,457.70048143165275 883.3813936722145,458.3637546458711 883.336700869065,455.1253513674893 880.3329685447603,454.58627907422755 876.6703791200841,455.10244833122766 876.4568782361603,454.06193235026575 878.5605822688826,453.72355373853895 880.3085149040726,451.7279858795115 890.8646632250615,445.0749224540961 899.4847799330803,442.4693155226064 910.1749581048423,440.23616157396015 926.1870624468753,437.3228760068434 936.2567958712607,437.5095631456691 937.002407596771,439.72553983889526 939.9680664268543,438.76270940201306 942.3958540884379,440.72792582047066 949.4482174346258,442.6359546046788 951.0074666141661,442.5929107022564 952.985782331119,443.3091912864866 956.3297559113488,442.98821757499235 956.8145627232552,440.2756266992309 957.1844559891933,440.0141047172093 961.2026082487629,441.6826412594831 962.1775530323001,440.6975584371335 961.4615038123515,439.4936597976436 962.7763808589203,436.88207612365136 961.3590131164915,429.69258681466164 961.2990501917727,428.03741263554883 961.8847496863629,426.6731229736014 963.4969034771252,424.8027251383721 964.4737405739462,421.7760120009527 964.2321210462662,417.55387795118764 965.0325796019224,416.89471892116154 967.7589170663459,417.56646909435176 968.9692704211634,417.32370472002106 970.2016668716852,414.91093637894033 969.8275400053649,409.9298261130565 968.8563466772715,406.61993060643834 968.3855879797776,406.3125818104174 969.2896313770351,404.4696069622208 974.0013530860829,396.98048971936595 991.3633733120957,383.1502055983274 994.4903233291266,381.101755365606 995.9151779745799,381.4545202272344 1000.2065269300336,384.73790197547805 1001.1096691615594,382.7764343522613 1001.8981660047552,383.6269223241959 1005.5177884352312,379.4725119227411 1006.1117220949826,380.2227007580908 1008.1626156540692,377.992099135662 1010.4290095142911,373.510634470023 1013.6382014593887,368.06520447419064 1016.1278845466013,368.6889948564432 1016.8572354085062,365.4727743792347 1016.8476194603046,363.3592476438621 1017.9850591919276,362.6098068957126 1019.1838387785995,362.7912984247622 1022.5138318251829,362.24029813322034 1023.2310034074854,360.55201686652754 1024.0,360.0193774447308 1023.0881922115879,358.9071214276996 1020.5278680903439,357.42450048142587 1019.4523326280371,355.21172615399473 1019.853206835214,351.5446570616564 1019.6797254116509,350.98475495477487 1017.2936048471602,348.951238398427 1014.7335499585583,347.83951786298337 1012.1624296631097,346.1665855179583 1006.4895555949281,343.74342307917686 1004.7179828856283,343.4176207113113 1003.6021099275042,341.48452832148894 1001.4728266768401,339.5585404293819 997.0283619755081,339.0319411356493 997.0901456421861,337.37942002423586 993.1071497273266,336.6281888379399 993.0055571097655,335.3363735305495 982.0617567893258,329.9813506141394 981.0902157964391,327.65129045483764 979.5546006547345,327.09014891221227 979.3739446480932,323.11587945722954 975.9330570441963,322.9061235645827 975.4422754388671,322.173774976329 976.5212931753773,318.63591951578735 975.0776993937554,318.2994813030763 978.5720908687936,314.5647343867481 980.7450173203555,311.659511523658 978.2178923868204,309.5361026508523 978.7613381185782,308.5440070587998 966.512125778056,303.3141010944148 963.9945377449687,302.6527812702103 960.9763150452385,300.13025344996834 959.995112430262,298.8476999140905 957.6422784944235,297.7613407781889 956.3328387619074,296.6221841191099 955.1238375963289,298.0473689950686 951.7438025816396,299.44298929025183 947.5527201568798,302.3359388240631 945.8733695509694,302.7395738208613 944.3490722585824,302.05193309683864 943.5311081428032,300.87724928983187 940.6150972278931,299.7537007506338 938.8228608809495,300.18400190510204 937.7165393700334,301.16735185367224 935.4037095705881,300.12533737849935 933.8941150507922,303.86106848703344 933.0966730667544,303.02016029426284 931.6877188341282,300.0481199504187 931.072070169579,301.4108843302929 928.6941797725892,303.34757655717806 928.2743295875437,303.1209574127623 923.2168705993411,296.44259734592765 919.7352862917304,291.0569215293568 918.2679075884846,287.1202211990359 909.3954636207003,279.99298205613286 903.3964104692013,275.0361923348685 898.9717427512879,271.22085212830314 898.912475743493,270.4618641937626 900.0902046391946,269.8605418574243 897.7003109179059,267.17497933213156 898.4581784548333,266.9876421002681 896.3333872947301,259.5579355593145 896.1424578352731,257.7611747822798 895.3580174905061,256.01849791087056 896.6288088394576,254.73171550441566 896.7237886610957,253.63017168649662 897.9515455739843,253.52462202495542 899.2646433085646,251.36214801232643 896.9236462867271,250.69903966200627 895.0507133726,250.65053972364717 894.2855577782669,249.77334419925 894.1143938242518,248.08575907002387 892.4774863105896,248.0646175680829 891.821337618045,249.1547916798802 890.6028324215872,249.40536437979836 889.7457924753384,248.52922839944142 888.8028830480482,249.3748386809624 888.6719281604869,248.02117733245723 886.8721371044976,247.92768942822488 886.502057257767,248.6036439206914 885.0002286706057,247.41027382005439 883.5481294410038,247.4073029731478 882.3122424901499,246.4391389932366 879.557737881347,247.38102669044486 879.1044276406751,248.8413340946264 876.8551108227408,248.41153115631118 876.5155853735857,249.38540764870606 874.7771822015536,248.94893512306953 870.8307274301505,247.45206789430495 869.1444073844058,247.06951867374903 861.2325434567604,248.3676129590084 853.424193370416,249.47770570434113 851.8094921938464,248.5081483846867 851.6743302589729,245.26041764641514 851.7686030123322,240.44283583300603 852.119455847548,239.2084240267002 850.8109544502299,234.4515967096827 850.9775927854474,233.36055028383203 846.0172413469123,228.91943310966963 842.8515187493886,226.94546964662902 841.7509323009225,225.6341736653958 840.5150856928915,224.97353467258813 839.3228788241504,223.2112584425729 839.330900778431,220.13593146529627 836.5965508565413,217.5413493407035 834.6564433748733,216.3355916568014 833.0422019519499,215.880560754067 829.8984277068721,213.80726248379665 823.3559759135785,212.8877360754999 817.3266380137148,211.49918448085725 816.8905510715339,210.28062335058814 814.0199604315782,205.7189475911631 810.3023102441497,200.68596263129473 808.9535736460376,200.294150893993 808.9062237917234,199.33865611461374 811.080573324896,196.99141502348073 812.5451811838898,195.9774682920089 812.3636959972222,188.13378576126263 817.2873869883581,182.4237259919612 822.4731531452697,177.8954564043902 827.558167773234,176.0348906448321 827.3447406341603,175.47572706019264 828.4325363857173,173.86591998417623 829.517516974697,173.61593058807364 830.7574250509715,172.4572196585434 832.3421299996003,172.2984348752575 835.140363480754,173.0275916988586 836.0012013279947,172.2992396256268 838.1290388025135,171.5755008582463 840.9283788611957,167.86924912091342 842.295886893636,164.86289995961283 843.5821869655804,161.3606639596702 848.5784450192394,161.81501956620502 850.1062230852306,159.69238369670916 852.1967315841448,157.39903355039917 853.9757510663442,157.00659532981933 859.174959766358,153.622668038323 859.956476711634,151.8216636476103 863.7320923113207,153.83106439723565 869.8212936856518,159.03513396658025 872.5864469654498,160.96994217627423 873.8117759468811,161.3424391078728 878.7367248261927,162.01047901118977 882.0742286709985,163.8832483293329 883.1086869957913,162.73100628122802 885.6317235686325,163.349965681031 889.8923036798567,163.96203237997906 890.7410247377645,163.79292647115903 893.0803069474588,164.49090094304984 895.4742197508499,168.3348956820813 896.0406114036493,166.2724668075274 896.5388278429868,162.1990413260072" /><circle cx="607.9569404622529" cy="589.3225277166798" fill="rgb(100%,100%,100%)" r="16" stroke="grey" stroke-width="8" /></svg>