<?xml version="1.0" encoding="utf-8" ?>
<svg baseProfile="full" height="1024" version="1.1" width="1024" xmlns="http://www.w3.org/2000/svg" xmlns:ev="http://www.w3.org/2001/xml-events" xmlns:xlink="http://www.w3.org/1999/xlink"><defs /><polygon fill="black" points="453.2619022441191,178.70507864814442 455.0737398935739,186.45993076803688 450.5320281854666,190.27979994543716 441.9277566966017,195.1025460036426 439.5409094060892,191.0871976176909 436.17341255045335,189.8762181965036 434.7900327026042,194.78555344007214 432.90325399655393,198.26761028119506 429.4215784644217,196.19316969051567 430.6818844288593,192.18621645276892 429.62863935481477,187.706026348284 426.0362941726089,187.68784634111466 421.6825698300122,193.97676013702312 416.6699723936036,198.92788689340034 409.0683964613337,198.37762623011258 405.55178678012163,213.96159334470383 404.9119013529805,217.87134029360652 403.42521577435355,223.34198397728983 402.1048256203164,230.17800277895253 395.7221775730309,233.74752029449553 386.31768874237946,232.6662200075342 366.69468161707056,222.08127560804792 362.57958671904134,222.63214030352265 359.53672332302676,222.1249436833707 356.89163803877693,224.06790907528807 315.11772689592266,247.7829161093457 275.71153986294524,252.4253786570605 249.5906620144934,262.30298004586325 231.14688237999863,266.99275197882514 230.08461968780009,273.0975214733674 227.6882952499887,284.9645035290903 227.54911556110113,294.154330673342 223.82433151670546,322.91053266603296 207.90097785701676,368.50908918649014 193.29240554569864,385.79020018183627 164.27751382773852,407.70092863236135 144.30136972051147,411.9599728316581 132.00598489175815,412.3664643971498 113.94077560522774,420.8090194065946 107.4250716210755,425.0385688782186 97.42934815634364,435.4100436749357 91.66324143002056,442.70368094828393 86.67409993028336,453.0716472121378 87.05091049093522,457.658905536281 90.89520304516313,461.8934162594102 95.50688364336263,464.1754956737725 115.49396221967821,464.92392644149555 129.50124913488,473.72724371818913 135.26816590544183,478.3229605727256 136.80942213770294,485.22403045951467 134.8809200279324,492.89936958149036 127.96970157369377,499.4245771485111 121.43956340522452,499.43008988968893 104.92979289803955,496.3925980540886 98.382375716554,497.93299906557354 91.0845573890396,510.2150939508402 91.08865569749044,531.6965322721928 90.31625397919622,536.2977263060072 88.78295147651411,538.2059252815367 85.72550969330315,538.5909591065567 81.10949158623706,537.0713647527386 63.421422468874624,524.0538753326666 52.68478267355136,520.9963977477555 44.21683832177377,521.7737157563162 23.398862050658643,551.5211201368334 20.878158736283353,553.8453228712283 14.797184937067216,565.2205012520931 12.520701120978492,571.2984839185808 12.174519027885104,577.9888739988644 15.372718345499663,578.5880492555737 29.366871853135333,576.3858129174248 45.186988346581245,578.938994674737 51.5390350173715,581.6118288503783 52.369726415461145,584.8871552075813 50.84952372855426,589.4341519859288 45.52580575781877,593.9908502072652 21.99961841915886,592.8811557789857 15.18306883668367,595.1621476091343 12.147659298548362,598.1959291974413 11.757317248292617,601.2339342387452 15.179688292980451,604.2523572849645 30.35817434617449,605.7587930322381 34.532522335344375,611.430009085622 34.530248769774104,618.6439807959175 31.491618781863437,627.366705711028 6.440371962124262,631.54614839808 1.5144015477806716,638.3924151633203 0.0,645.1968906741207 3.7873702009306514,666.7990927924095 7.210542841054015,674.774012837472 14.032477073917681,676.656925342835 33.01695087367107,666.0233803558659 46.677056775988376,666.7588960809661 64.13371844389889,670.5346017561806 85.58485751549716,679.6088850600735 90.1275835292032,683.0042869583739 90.13392762275238,695.5158879875528 91.6573492367245,698.9252993160061 94.68076760417897,701.5801581572387 116.32382268006165,700.4108722476235 124.67545678491025,701.1474379345002 131.12875201708692,703.8003003972904 138.34165723699425,712.8885009367303 141.56973961481785,726.9020361816773 139.29165812703556,733.3514559728297 135.87932273060355,738.6611108791171 135.87751623521544,742.4536947210885 137.7691302901526,746.9987520551014 143.08335498825696,747.7492252562115 149.5396346300217,744.7030753990076 156.74468774744514,739.7745758951814 167.01309316975593,738.6146144997882 171.9533021872853,739.362995065335 177.2689459179524,745.0497141483334 174.9707475013001,772.7195258061643 176.5016780795664,776.5000898768129 180.30006937071073,781.0450543094609 185.99876790410434,783.3123820765672 189.40142152535591,783.3101570762192 191.29742862194735,778.3636457396453 195.11024464580225,757.5243945924559 197.76325577617973,752.5918716464494 213.71709722056315,745.75232652262 227.0041495161843,746.4838508238561 250.93642473481543,757.80550462669 265.80428514229675,763.3306860114565 268.22948231536475,754.7748233761492 271.99892069511736,715.6143607526948 270.1233694120838,700.8356503031373 259.9880893473376,681.6897704889607 253.11612803245427,663.0222745707813 254.65676433342168,642.1108435585522 259.4538231042119,628.1894520086337 274.64779435768946,610.9406817973118 290.48818768657475,597.3672567053941 319.92212840389095,577.7232041806028 358.40665681962986,557.3220756163323 380.2448737418421,533.3636033138346 394.02246065561707,534.0356758698761 409.2177651053052,539.310020949231 414.5307396774838,549.1595145202411 416.0644900138062,565.0800548523663 415.29208328592085,582.5340408883098 401.61576730197766,612.1331240173101 401.6237299091322,630.3435498677337 411.50211977405866,644.7211179430353 444.18947205514456,668.9158482589858 527.0600482551375,705.1691223663519 576.4797332760611,724.0152223141891 584.8354687087867,723.9861306808982 603.853576469719,714.8690687310816 625.1306724732323,698.8799796758246 656.3009399534363,672.2733824766499 681.008039340827,654.0224898175227 708.3721922928661,650.1715336033049 734.2183933696056,654.6803670568086 763.8631946619853,665.9992603576009 782.1025615901939,670.5309191688552 804.1273362800966,671.2375530208085 823.1286369913375,665.1370460123497 923.4351835554577,624.0296706144361 943.9463664492815,612.6267928808888 965.7538977042443,596.9253363609147 958.7000695269813,595.6988417529442 951.5530307851868,587.0172414013646 942.5498726890828,561.6318247189333 938.3225412047769,542.930491012066 939.7974823557635,525.7705820365668 944.1908629902284,508.6041208628023 948.624150795585,482.78923584849235 948.8808830668339,466.72731745382504 958.6135695036347,450.53865152243014 1001.9966315491394,402.65939678907745 1015.5850352358898,382.5951011079843 1024.0,367.0721273559886 1023.9954798491013,356.0857847165302 1009.1075176456314,333.4630927957245 989.6890891211499,320.55156498918393 954.075719399791,299.8995276836071 928.1720046348518,285.70280940062736 897.724863245852,274.11299676092983 848.3449243293179,261.3798052873716 816.0958257510279,243.56885171231204 788.8765259076237,222.83121852175395 784.8745971987453,209.2572375478951 790.4640077114606,199.66199550843783 812.0825200182969,190.04257431220617 823.2944024075122,186.82489824704476 824.101903483204,178.03960727816093 821.6939657815379,172.4497195258283 812.8899650233742,162.0737320983818 785.6694619335095,138.1654426429635 776.8647451597237,116.60209293294713 776.8626370785386,109.40823784711893 788.0771012531467,90.2179669581891 792.0856896369493,77.43463573652832 789.6865153527102,66.25618418448812 776.8645123250976,57.486122724361735 768.8619497690972,39.919745688006856 770.4547059638048,27.134947405454568 775.2587550070109,11.957514429818957 772.8537403940253,3.9695651981668334 756.8461303736065,0.0 751.2501163209206,1.598543840068828 728.8385380042598,28.81138923311687 704.0055548587702,45.637715839062935 677.5653996130794,44.09482921687811 659.9475089677342,28.156489273149646 655.4549500770873,9.071321677568335 636.3427777895038,2.4462596282147615 585.2118744734684,20.274981683216765 542.246737146624,42.02510467210311 512.9366521314394,52.925762479724995 494.9100290833665,64.37392818649198 484.75301158729326,75.42990642940549 478.6801655416838,86.50631853714356 475.3545817173807,98.78043908734969 472.5456720514409,113.45511157633439 469.27788461924854,139.59555582061557 467.74255866458,163.87850177388668 460.50182135905953,176.815150362317 453.2619022441191,178.70507864814442" /><circle cx="227.40637416728362" cy="576.6220930294206" fill="rgb(100%,100%,100%)" r="16" stroke="grey" stroke-width="8" /></svg>