<?xml version="1.0" encoding="utf-8" ?>
<svg baseProfile="full" height="1024" version="1.1" width="1024" xmlns="http://www.w3.org/2000/svg" xmlns:ev="http://www.w3.org/2001/xml-events" xmlns:xlink="http://www.w3.org/1999/xlink"><defs /><polygon fill="black" points="735.0432094935583,356.4136233899578 722.1970826386413,334.76357996115473 713.5849033533981,320.7658390843193 695.8155534661131,315.790071686268 660.5477805724602,324.6682758940516 639.3459038024346,330.2242959203536 611.7628286099235,337.028081948376 586.578127823084,353.9085912001992 561.6206854119375,366.2871127578534 572.0780597180222,396.9426693265042 575.1280787680054,406.31203896313764 548.8882430916357,413.0394379109151 549.0596874147207,413.5984731953888 511.70002677405904,427.2586182769784 510.8790988236446,442.0835294652345 503.3412465584395,442.902484159319 502.69100737144066,447.4825113558712 498.0614888244571,448.751267451221 451.34452909990586,440.8712409857128 444.0594701998613,427.31578626166413 457.8409887764127,400.12104127943985 476.9619949731463,396.51772743484753 481.619178616311,389.6306062307166 478.57420469813724,382.2089780457437 495.06163232996283,374.0955507281384 494.0137508280626,358.73884884476786 500.88940921201663,341.3190967733407 505.6126838240968,330.36342581708016 515.6407469437027,334.1638028043957 515.8824109070448,327.2410458387634 523.8775634541913,328.13388195453035 528.6354864546087,329.64884952868294 536.5794065354035,305.2301492029625 528.0929870292601,301.79923322060176 522.5544303195484,284.9460839628729 536.6710361095585,287.2392841607822 540.7752064691152,291.80035572082556 556.0832275447939,298.09946239167004 548.5664822186781,284.4986527517359 537.863565544062,265.9292201246809 539.4047246200716,257.8884670147514 540.3396575664187,256.3008125509066 549.2903958964149,236.56849645065438 554.3965746318197,222.03283507351853 555.0537353381587,219.28452830736364 569.5847237454669,179.26673614548713 593.1097884877804,138.80686392274765 592.873222075387,136.99171527860926 579.898230533898,119.41227116519917 575.611103004547,113.93805593163052 576.1623328917894,111.13421206872874 561.6940521545065,105.57072600296294 552.7053842979626,96.32717907557799 529.1440883420726,80.63018065707831 531.2794595372127,62.120636527241686 532.4985227042303,56.6187372642288 525.6373183584059,52.76589897057488 500.01385739691256,37.6859883915414 469.19169341636086,20.109012271474853 454.3402964849987,11.16353380773262 442.939045056671,4.6751936795538995 427.8015062084824,0.0 411.0507524768779,22.233247012613447 400.0642289646018,36.355347963570466 377.8164268485858,65.48611029753147 357.33926872452474,95.03466704689299 352.4631753921152,101.75282036140766 353.7539840652204,138.70983818087643 354.45516748298746,163.28822582864234 356.13900161418303,197.4703677139662 356.4439152280443,200.60584792516067 347.49405626107614,226.6822943933546 331.08022239844195,276.9215659045767 279.84294582250385,287.89974045565975 275.2943856650628,287.20725153399326 234.7262849113264,282.52089143934575 224.5573249602516,298.57083223623215 213.52535364784123,315.1309413580685 211.6038430931327,319.8676635481936 188.56167904290783,326.02690893718375 172.7128325182931,333.6842327893337 133.01613551954406,336.10375998561335 84.75876487118848,339.1874961261816 61.01862006022568,314.0861069945523 60.41510964109262,313.7273369376545 45.64678856856336,326.9969636155952 31.20607977951231,334.73637435296587 30.632070227036635,335.57510155892146 15.057120774084364,343.79217943853905 4.906705237256897,362.35680370310524 4.992627881774878,370.3285712990903 0.7658039698274225,374.1872847055274 0.0,377.2324551650687 1.6335242730053308,380.7849689300592 1.3828782778012167,383.3004381433094 4.087390065524412,393.82963226476693 4.212398347723607,397.06727475805906 6.9531421772695525,399.105567904551 7.063146450153688,402.5906561419097 10.514410681565556,403.97169362696616 9.738599345575592,408.1985779546577 12.250186861911608,413.4100967669966 17.025443697932808,417.6321505572075 21.20637930779343,416.6535443082962 29.186711571472816,411.90347403166993 39.65525879250871,410.8455403442663 44.44803388608951,420.10115341520236 61.43566748250749,423.3769024757952 84.94035747703388,431.2909534661892 102.41143761681182,436.88930160453936 104.84927928999795,437.91638222719735 117.52107726879017,453.74908695015256 117.76970438490685,454.6170069058277 128.84700236534343,468.2726977961797 132.97451439833438,469.5781886576368 175.97939323581525,484.21018895624115 183.39684121588792,486.852421555305 201.67731668796725,494.3699436783203 209.71195131234725,497.92259955955 212.18268908054964,502.12974064465527 240.5819708893284,522.7876125794193 242.60157206901047,539.5746993293699 241.50206390194936,543.9615995144418 244.06933720991734,545.6194566177146 246.22741279206403,551.4862037657991 245.9515386557475,564.5294182598673 234.54462023483228,584.4480684210404 225.92091640187897,600.6183436710137 217.51486703179435,617.043037546943 214.105090385112,622.8511753986128 211.5306297924545,632.9229173153144 203.60081992437173,633.8364679982038 197.2300149518953,624.3760576663972 192.69632503372804,626.5751770765744 161.48372598084663,637.7728490515899 158.89139370038583,637.961739037272 120.63170044146953,634.6854814618707 106.58660478505053,642.0472923245587 107.64092548960473,645.155594743685 120.38261419964451,678.403277449801 132.7123534107806,711.1754113697839 163.11943192500206,730.7892370973075 168.06860770577308,733.7612108661115 170.8908284280193,754.1920786342345 168.22203996848785,774.5983335755388 201.93106196058474,780.6204357753257 242.9661361350881,787.5791224652013 311.4079837572189,799.5240074679305 333.3632100025271,803.0913807843347 355.27109415773975,813.17777129542 354.4759850385227,822.5109468283563 353.6557560941018,824.2682219309193 336.0995331959426,846.608075410018 303.6260348587085,861.7751643935248 291.3191419887169,866.9255569485223 284.0863397337332,870.5887449305228 295.69538586263826,904.7695118303911 301.04144830677484,920.0835663935446 301.16326898560686,924.0748407969859 313.5821731993702,932.8388571894325 337.563975298681,948.9554524009638 347.5896411842047,943.993115460078 352.85447640653166,949.6713435956146 356.74779548062276,947.2430794877929 365.35393337176095,944.7937486576698 370.27838278204126,942.6328258526485 377.6940103630713,942.8159731775114 378.2893234745728,947.2438530340065 380.2341465326528,953.7913268151322 382.994582812698,958.2886198367435 383.5926229265792,960.9614945471834 386.1720003668845,961.0135443115852 391.2196421713368,950.8888608533509 409.0916839578042,930.2397097614883 421.79305805450116,922.1080395143521 430.4120190317228,918.1985420836088 429.9063914757925,915.5452918625244 455.53589444399336,915.3305301862007 456.72451050504606,916.4193250804988 458.715127767617,927.162911627347 460.5678487352349,930.8195834833002 458.1125921265066,932.1703443913481 455.9530507769833,935.982821925948 458.06238351448496,937.0222449202845 459.95465453922196,942.9912998089231 458.47678119767636,944.2914785262129 460.7856466301451,945.4298600843825 474.154960324814,964.8921961762699 490.9040602524723,988.6334148995022 514.637255118921,986.2815329642164 539.9285203761177,1003.772683660887 559.8075078869407,1017.8255375158534 568.9909231656277,1024.0 572.6712908188708,1022.2141315352493 582.8424382088566,1013.7969417151405 601.8405245689825,998.5283647933859 601.6951484172024,992.0239500152871 603.90456984085,989.3714680204082 621.6102652704038,965.6319717718379 625.7655085907288,949.658382794684 632.797592171489,945.3164729256414 634.3664434522062,925.388684364077 633.4120328797103,921.8910265429953 632.9713904594967,864.9368597326464 643.2955822562391,865.5565609757687 644.4309605495827,853.9786059153894 663.4841152140552,839.4950764313545 669.1061623185615,825.0530828847752 673.6914457424641,811.3796247621252 691.6079226091967,810.7342820561387 694.8211802255543,805.5765665057679 702.196588590956,795.3217134464666 735.2743867557961,821.0881553523346 743.1337396822136,820.8883799752457 743.3437433273269,825.6879255615312 747.0347145296873,827.2069539811357 746.9292851718689,823.9826543861604 749.0880675290484,828.98238497217 752.2323513586012,828.8243740145748 754.9291251031806,840.4421552881165 768.2245496113853,835.7464949383269 769.7719220344139,839.8534510019674 777.5074159138503,838.024206380273 778.9923202969171,842.5876804391535 781.0198772926992,842.1465117817577 779.9823347754442,838.160730741092 780.9693781333377,837.4143556800361 782.3108487506432,841.867517814844 783.2518004216289,841.184451610007 782.0663131688221,837.303974288971 788.2006574300574,835.6890338323507 795.2727088642924,843.5173274894345 816.9625237655711,838.5953648616246 814.2034269031668,825.5470091188313 816.4095954139908,825.1111256366529 815.0773686197949,819.9056856192815 829.1997539724223,816.9545371460679 839.1437489818846,815.2505550482298 850.9614947991444,814.0637279083531 865.9096838686061,812.9924717119515 872.9570497009413,797.9980074442592 878.4822084944387,790.0317811095019 881.7565261154863,790.2463434217012 883.2603104030661,788.4870518965281 894.6000612528452,785.678249870702 897.6081294856357,785.7959233142558 899.3305028946603,794.5844848745958 907.2419576990612,793.6063067728355 908.7635908815535,801.1527920031969 910.1273002997949,801.2203776039734 908.805976234638,794.1314413345413 909.9186660095095,793.9582643218757 911.4523475450319,801.2267444477297 915.1064286248255,800.8748107750133 916.4518892764792,806.3138029433281 920.2352782323304,809.4312424586378 921.0002700707682,812.8340827279045 923.0207252539415,812.4912781527905 921.6764504549806,805.2999198458122 923.68149287116,805.1031499506875 926.8319203060929,819.5070414598695 931.6868416584327,818.6676743813105 928.9492564194406,803.5627053262274 931.390170063792,802.786821111376 930.2986576057178,796.2898711600169 932.5985879556335,795.8787612778466 932.3607340638154,793.9672213664967 945.0794780027408,792.5384213648825 943.5251627298884,783.8796154103652 941.5924046120898,777.232091441085 940.4750456115042,770.8618459646547 938.5969217725478,764.821247199686 937.5794684661155,757.6138308595935 935.5339324843234,754.1129632137946 937.0105716214842,751.3534544442023 935.8213988260696,741.8867950602873 933.5091397086699,734.3236309273425 934.1431731813057,716.0358843028921 936.3605058163298,689.5735446535946 934.2912852090735,687.2401179032565 925.8904804839333,658.248357612263 922.5236016597172,644.7438182852109 921.83397203287,630.643707362661 914.3001117719845,627.5812296102652 909.7227505019902,623.225348232301 925.4225548547413,611.0352848109997 930.4940440067923,600.7900066894806 921.3981172193655,583.5586874663005 897.479959323431,591.5887053673091 883.9302199646279,595.9419696377358 883.2962500684633,576.5345133453899 886.5098262925503,571.104337522043 896.5157868285993,567.9035126280501 884.333533421309,543.9305336827686 880.700802356964,541.4560060784208 861.8987636223357,542.6495927703515 844.7096344018967,546.5334274719748 833.3897661642119,549.9647349715916 820.0593321282157,559.5017971750149 814.4592640896434,559.1904721281174 799.6911319990649,561.9025246017659 780.9253323434673,564.7836246690435 775.3562491160316,565.3018418195367 741.5429000736857,581.5786726025681 742.868096392066,585.2271175276107 720.8098455141513,597.1721902190478 718.1500484152746,598.4086360511818 694.9573640686409,576.9476793434848 687.2567803659265,570.9520643838514 710.2722785437511,563.5395917770518 718.1217798933687,558.9112909212718 720.4924035823383,556.1934267473368 718.2552536531441,544.9217838360123 719.7330740420715,542.8928491830825 735.3754984110265,539.217878297288 733.1957069899013,530.3922881602581 736.7974822402982,529.4935327593793 734.2362648297908,515.7161547850632 743.2232311441123,508.41179517889736 744.0057015986536,504.7865246625382 743.4844279486583,499.1402256918816 741.2989915342496,488.13176826359233 740.6564611741547,482.4792940812937 737.5149799653568,474.8635469467879 731.2975021612594,463.45338255303034 726.7027394264985,456.77814097059604 726.0768822297449,449.45481101069197 722.1465200654183,437.74614222855416 716.733707826344,416.4178495558542 718.7440760695036,403.1961495355765 718.3996129944319,393.5204796540014 719.4850344617802,386.21203855084036 723.3060404447898,366.0085401977344 726.2097144835894,357.3968022646061 735.0432094935583,356.4136233899578" /><circle cx="627.8419325183261" cy="624.3394843187453" fill="rgb(100%,100%,100%)" r="16" stroke="grey" stroke-width="8" /></svg>