<?xml version="1.0" encoding="utf-8" ?>
<svg baseProfile="full" height="1024" version="1.1" width="1024" xmlns="http://www.w3.org/2000/svg" xmlns:ev="http://www.w3.org/2001/xml-events" xmlns:xlink="http://www.w3.org/1999/xlink"><defs /><polygon fill="black" points="913.135776256485,600.3049119899886 921.3651933893459,598.9813225737025 924.7127695104173,599.7593227298688 926.2779409481395,602.4887725413973 931.6483703314051,603.6391727562599 934.1389874925634,603.1186607897263 951.4491119001422,602.5451442287944 954.6842636944577,604.3162992362143 958.1142237969511,604.1926774637915 960.3641799962601,605.8800427852146 963.2151007419782,606.143999026978 963.9672287410175,607.1558364687896 964.172037858196,610.0448977390341 965.5408036993525,610.9540591886349 971.1325437439815,612.7822663127761 976.9918156091151,616.9121838339695 982.9086871744291,617.3813032496805 986.6235673572415,616.7703246134747 988.7285745296101,615.1043703335394 989.6692203496567,613.5799255112361 987.3077815247335,610.4468928891648 984.1418851025277,605.2672954670045 982.6399496358054,595.673613291828 982.7519151963489,592.3209416815707 983.390320581774,589.1101310758987 986.1694618203954,580.1422297423571 987.6253781872522,575.8671556194495 989.705027871966,573.008568734574 992.3805175123695,570.9245393014655 999.9202712484299,570.7232415394211 1006.2797730668115,570.9119527240888 1010.700616226924,570.2576230001084 1012.7661264698928,568.4749870962431 1017.2136924815453,563.1029838947306 1022.1683183549427,559.2052348998973 1023.9710326602284,553.5187971356836 1024.0,551.089925471639 1022.4308319683303,545.7077521159813 1019.3881387333739,542.0451778194749 1015.9366786320628,536.374580063519 1014.8677616283691,532.393596877982 1014.880451852176,528.3547761557057 1016.0932672214035,524.5246781239293 1016.4074118684698,521.6918224195188 1016.2619435226196,514.075875622638 1013.9877499941261,506.81522050786475 1010.5959644777677,501.75939584655526 1008.4178132588082,495.23002683698155 1009.5458901825706,489.62509848500684 1015.6866884941312,483.1041484619041 1017.6426476961797,479.75992575474993 1017.541261649054,476.8026719865804 1014.4654425741692,466.977479938663 1014.0296386972989,460.0319469537561 1011.3357558057013,445.099144445155 1010.3871617062614,431.47299596183257 1009.9479856957198,428.1238318216752 1008.5448349207979,424.64627770263553 1005.9445568004347,420.8442728343639 1003.2329622401704,418.92364761444503 1000.3306748637236,418.7217724022755 996.7279655299308,420.9723657445399 994.4580893926827,421.75453679653003 992.1725930259634,421.41716826717663 990.7450819648127,420.0390299612249 989.9691408101494,417.60069525612965 990.7617576589239,414.80558894533124 994.1339467211558,408.61419906130874 996.102008576035,407.5817268799471 1002.6238249525958,407.6158498065557 1004.9565985809738,405.69814520786673 1006.2607005700746,402.79554928505456 1006.376323705811,400.29804253268475 1005.2746061719592,397.923333918292 1000.3274783446058,394.6604030378942 994.6669870981198,390.5448254741255 992.4182059666675,384.1419294345658 992.6171714081247,373.6709723964208 989.3466334663025,364.01967334065944 985.0122073972759,351.67988080114065 977.9314495351681,351.1781225165316 943.0291809022572,338.51343376788367 919.755976722266,311.9425270312483 896.8457606960574,262.0538495314591 884.441507918027,220.87265037957127 871.6808580602916,182.81404489962938 856.3796546657635,150.78596530282243 836.8922796407522,104.49452952553793 824.2502002875843,80.79158755229207 804.7652667213212,55.85854565401121 783.4914445370309,42.63299968871604 737.0654997677564,25.569726335628502 721.0848149779088,20.69866696060444 696.3172411941543,15.174413775603057 664.2069904183759,4.936773024580134 618.5988990245521,0.0 593.7869334705922,0.5614178413698028 565.1148203306509,7.893958675501267 499.36422518492554,29.26954150411632 485.8117007803719,36.95896229337279 474.2929335700426,45.13786942987565 455.5694306006809,63.63530495643556 447.89756837916985,67.81526730960559 441.96445011256145,77.31345904146588 436.3285123437769,86.73298313826592 428.254874918908,108.43916509488918 447.2331410309056,100.56254557439593 477.5907039722835,96.33068045612504 508.6828196650007,91.40026381658015 536.4338219543769,85.67714641724842 536.2281446817432,84.8825417032458 565.9393661755073,75.7249978449031 597.8516361165836,64.61949064292912 640.4468964536279,48.53261337497793 656.8020051480786,42.72695881061793 659.9867061013175,56.243554437897046 660.4840437404722,57.23325409679251 661.3231444689652,61.581148533974556 662.6000738006303,64.54538244269293 662.5213975445098,67.0715677307478 658.00383123828,68.38587675707856 659.2736085259047,73.01766488511464 654.6266130795464,72.83486370017249 654.5900885880824,74.83880306631272 651.2429619659496,73.42254449738414 649.4589091041533,73.5633611592491 638.743293101947,75.19254110606369 636.8675517907095,74.4835018701533 632.9331321588039,74.23089688598327 633.4736767669307,75.51845331000527 631.7524782038308,76.05045498649349 631.5723129763088,77.28395287132287 633.4940167556298,79.99633570675337 632.1671404021711,81.07054035643625 632.8509756414032,82.3688890808454 634.3875892656883,82.40369275651221 635.7431362453925,83.61662646996831 636.1625553442075,90.2567201059669 636.0990101358925,96.71482974373828 637.2097832201788,99.33082930943817 637.4297810656049,105.3702463581485 637.4609553955154,113.41267383319416 637.6767437543028,117.91005105336501 640.6277224063743,121.57882606370515 641.3744951725951,124.04569748038705 641.365426298801,127.62237706497638 640.7721603334672,130.00613419565775 639.947560216714,131.36592808235105 634.9362002478781,133.20201978943135 634.1357369828853,135.3194775339383 634.9618246082191,138.89493606661222 636.4747130405776,142.6871540705672 639.1427234042577,152.05693190874774 649.225692053126,162.32349102707894 649.4728192871472,160.43247146781084 648.6369578664044,159.9759399729087 648.2368890023665,158.32940282123332 649.3531461108126,153.58794540344468 650.0411846055944,151.91816345530242 650.1455556220548,148.2556121581489 652.8178271568829,144.82453764075535 651.1902547017725,143.01952178322358 642.1922198571582,143.77978901314725 639.9184651940529,144.77732533229664 640.2400839615701,134.58972424382227 648.2267772284736,133.52500896860454 654.8134387394853,133.1026004930212 667.6419542020554,131.72379116282582 667.6184996085411,132.37977399213207 672.797430730003,132.9439407339371 672.9540335345738,135.46030472096663 674.7955012354141,137.33285576556057 677.0291016532284,143.53809068285955 677.6134787423546,144.2479625133294 681.0179312282509,145.8738164789462 686.6454799954971,151.4733862947984 689.3818956111625,154.76941882512938 692.6077671432448,157.58084704633063 696.7273000782435,160.50779564049935 712.8845871217018,173.86776402522594 736.0389106016257,195.49371564869398 746.1270858515695,185.5455520835692 760.8495942389559,200.81951576601227 766.7070908747643,194.7537192129505 773.0969434805415,189.49184692717063 780.3509150112562,184.19351735258272 788.6961105063814,196.03777257869558 796.9736394862762,208.6246917467928 796.2634015505054,208.9687895593578 799.1236568425363,213.25963737202164 804.8150843696164,222.58758980820187 797.0935389233634,227.36080451035707 795.3625178887543,223.5550126376719 794.4423951228655,219.0853683918143 793.6151240820933,216.92926005730226 786.1972225912004,223.12739878123637 803.0009526479683,239.8551461953798 807.7982723340558,245.43580735113062 814.7114868456282,260.4443460439544 815.1586631368123,267.46652876291074 818.1326021512982,270.28813746490675 820.7645978449629,268.73835964722355 823.85571097102,266.1899712650188 828.4778444086509,263.07881033414947 830.4129235851556,264.9470016200293 830.3711578483984,263.5677624194425 835.7953619828394,260.4890350220264 837.0572087173013,262.89837903491565 838.7290150391946,267.069718667501 839.2808178712348,267.4112076422354 843.1706432501536,265.6470920570982 846.6050791038059,264.6099804128739 854.413204224614,264.371947483609 854.8871089439425,264.59349764152563 856.1248696330139,280.37287898318397 858.2345667353835,287.7578609581262 859.260295796632,290.3354887321128 851.411931044892,294.70027689190186 848.8387882301013,291.22885247068035 846.7635460614964,292.99474864295246 842.9229811107873,288.76633791859155 841.3888876639923,289.46241441639427 839.3616591713508,287.2150549486489 837.2520509775394,289.05809795533764 837.0850227270636,287.43216847157953 832.9428766120348,283.4736912648061 832.3305371118086,282.61274288422607 830.7833644362664,285.8085727818066 831.6541092938529,287.8950192113449 831.7239315575387,289.8860578574772 829.6490771704464,289.22969362101395 829.8152277915012,287.1960026547206 828.821278728912,286.57070960843186 825.6034032095889,286.0403223922356 823.9969728798324,284.9614994253035 822.0987201358593,282.29675281064584 820.6908780131012,278.2014736436937 818.5534040214285,277.2292371564075 814.7091321365418,278.7827086066165 811.7727389072661,278.4217649029823 811.1557328544474,280.0683223808312 812.1957407278261,281.86930394213255 811.6362078605242,283.2756580131244 810.2720915526874,284.65436662827705 808.5201457286798,281.77387616221284 806.1603629244264,279.3252671561315 796.5957581499802,280.24267831566334 791.8450608295,278.563993554292 786.8302592796718,277.71698634062665 785.9594441970196,278.42728515627874 784.5589231312072,277.69226276438405 785.1974502681215,276.4612440093911 783.9660071346698,275.0633920381101 782.0514585529478,275.04396513705433 781.3289256086388,273.56170136707084 778.2873780437804,272.938966141983 777.7538889818503,274.438895290991 774.5831517322124,272.76441521195585 774.7523106438008,270.6150863768941 773.8191593062099,267.6315874309405 773.1944422933225,267.3436739503207 772.2318429043056,264.809747131888 773.2363551658947,263.561661767372 773.836094940856,261.3262312906285 775.7492229106582,260.5156684357602 775.791202918866,259.49791680769204 773.6048713690976,260.2647363860024 772.3173967396251,259.0466764185643 771.1469128222495,256.2717287242476 768.7616894531401,256.7825978691458 766.7670099912314,253.00096494429351 764.8364873273598,252.8250907173151 763.7233493853414,251.5001511568504 763.9188550304252,249.6406558741346 764.6977365050226,247.96758043222383 764.1564450920383,247.64877992828394 762.2552853486613,248.80661799582663 760.3986786897266,247.55077334521832 761.3927753956359,245.88748760535873 761.0990119503805,244.90256688724378 758.5088675217089,246.41994299987914 757.7996759174343,249.46787614102925 755.3419512688371,249.61732748237705 755.0598195711652,246.23560445059138 753.0309865062479,245.39091314768336 750.8243020520138,245.70181163519555 749.7122003802978,246.695903461969 745.5859621270359,245.84499662515282 744.7068598801384,246.43674963791284 744.3730746289212,248.24539079028705 746.0648072164282,249.0826940432113 746.261101064022,251.22502222672153 743.4227285970251,252.44750193130676 740.6615569180749,255.29150129075288 739.4600162545653,255.70254233395917 738.2633486710885,257.26819995458277 736.892713133852,258.0427136419387 734.7547534400062,257.9953164162431 734.6508230732643,260.32719551335794 738.6486520571134,261.9752818352102 739.0203370967879,263.5656276637041 740.075737284146,262.8771832623803 741.5288287192482,263.9808734975845 743.1485897623724,266.69801984407235 743.0464190090452,269.05257100780887 742.1156490216933,270.991365445483 741.6702344748438,274.1054762655387 740.4056628592201,276.47453382879974 737.5235251216043,275.5328619773299 736.8099072804596,274.6417325660192 737.8222362025405,273.5423488758154 738.2362468024828,270.4728200892968 737.8835696371322,268.90804824716923 736.5847386341612,268.6981662012189 735.9253817882247,272.23261382697046 733.4130321727662,273.45971151124684 734.9516679652346,278.069120129105 728.806280000282,281.78875774497743 726.4058802849031,284.43690031295085 721.9379629325739,284.244612431918 721.8401711879105,283.1608646059483 722.7213858829459,281.5027427116717 723.7900645330692,281.1039119816729 724.4883733357818,282.1934491667275 727.1711827603923,281.6267056500815 727.5320510215535,280.0752376723458 725.8933235147127,280.861359039314 727.4209691923276,278.60887512026153 726.1336912983845,278.3664992244023 724.7094137059722,279.19761783580964 722.9843233501152,277.01375882347475 721.9739379645875,277.5320986986674 721.2625534540214,279.28454201989956 719.6639571464773,280.22243247999893 718.4959265308212,278.62943855738683 717.582555953853,279.3838410587164 714.9479768464079,277.39097918809017 713.6451593450142,277.84744366842517 714.1130225893751,279.7065991701049 713.2321950679458,282.2249356935435 712.3647460776219,282.2836050090346 711.8494453664545,283.924687729208 710.4049283176165,284.2924640574352 709.8116181303553,280.73770880566144 708.6857819210079,281.35655416020495 708.2114494697498,283.01363553442025 707.3434349221819,283.0974278857402 705.0658980968614,281.5878033796669 702.8816206606688,281.2649447487507 702.1954264655828,282.85692688749424 702.7230588209819,284.76523364046784 704.3048345024781,284.5866933491773 706.7326253829158,285.80034887559594 707.0341931568037,288.28464117502546 705.8402585773471,290.1998567440333 703.9417381126956,292.1874010696247 703.9250468580155,293.42455929206375 699.3323437148912,296.9643253159108 697.1910496588525,297.04986658937526 698.1255753527317,294.96288750124216 699.1662109326356,295.3382454392239 700.9302650496101,293.82061243852667 700.7615470001845,292.79815033466355 702.0733246883138,291.4565574665923 698.4057309833369,290.1120735595329 699.5244670423347,288.3511609581707 701.3613088533652,287.3734283881729 700.8935868050341,285.41363327309125 698.6644020676773,285.34629986372516 697.6164135884994,284.8148223682333 696.8028585879947,282.55552168259413 697.6161205579607,279.8546191074778 699.8933746128504,279.1307157144352 699.7408433406821,277.286104825694 697.8028613288303,275.5827539239304 697.5781027265587,274.73259204814616 698.7441899723023,271.72514807810586 701.9396317775448,268.272485774846 702.6957176116103,265.39925618292153 703.9888325430724,263.13161364624943 704.6147553325291,257.5062435632183 706.070224308639,256.1527561996054 707.4135998029521,255.72742755523473 709.3877912325597,259.02370833316354 708.7240540265419,260.0024675873969 708.7394167233798,262.0477541264482 710.2027945686323,264.5403199101683 710.8631566035561,264.5927559713469 712.4113337487905,262.30057219781867 712.0369977373049,257.1232883311542 712.5134709375172,255.85612295476665 710.2555280152378,254.3570222441133 710.5689707170621,252.20335586754572 709.0442832209166,252.46619568873496 707.127534373766,250.79356100975622 708.8338604042973,248.7262743619757 707.1432414638233,247.35548221886222 705.0098534814651,247.49656754163334 703.9829914023046,245.14700260276823 701.0958040345209,243.4778180776542 700.664735379256,242.70857213542456 698.3382143923695,242.43780415268566 697.528499933385,241.7682557047168 696.5055554538969,239.24769593206702 694.174215054165,238.31776278536438 692.007110696715,239.96968595614112 692.5649006008399,242.3691973577404 690.8185319216004,244.47069903669637 689.4056916881996,244.30579440829524 688.3611224542763,241.78219585376223 687.8817630203287,241.8117178678467 687.0004322762687,244.83051744069553 684.2706776821524,245.2699790821889 682.6425072600777,247.0445672388173 681.7847081538015,248.91185877264047 678.8757808373357,248.31344993081495 676.4555956754868,249.8891513120111 675.7410587351392,251.7696986790762 672.6690336446989,253.0087907256069 672.6452380532195,255.42801386454335 670.841927276297,256.2729620599482 669.7556319271104,257.94141325601413 671.4995873327983,261.4894390862079 673.5942351350103,261.725065136915 675.7379882763851,260.15827778489745 675.4235182289493,259.6255237616474 678.1278160623277,257.6109762673385 680.6634674516592,256.71194854277076 681.769786601088,254.63138978977724 684.3491910840792,253.62263280952618 685.4879931543067,252.32505502587082 687.3720080220374,251.85659489357488 688.8239347130061,250.7622033464902 691.8418130268296,251.0636012666913 693.2788181829424,249.6619825860838 695.3877805672033,248.6677578569744 695.43711499425,245.58256128274093 697.7384827724597,248.34547365197216 698.470473049128,250.2558509139917 700.1188572629911,250.7881622403621 700.4746574272041,254.05343608072212 698.9562170210932,254.91248447343582 697.8331714603027,259.21124416119096 697.5164140446635,261.50820267283433 695.7437100892262,262.44708003680495 694.2107298826658,261.3237082328817 692.1527186811732,261.7858222825057 690.9443529473899,263.8591105791371 691.620675656156,266.8976416835639 689.4883133171771,269.7099025396186 689.3071903762506,272.8474907615638 687.7132636101168,271.7227198003016 686.4038994422862,271.49724228258 685.9819259927093,270.32069306635765 684.4845767113218,270.32744014207225 684.123663211829,271.8688057624589 686.2363304376601,274.4163013099709 684.0989495395526,274.821245822128 684.0740303270657,275.934977654188 685.3173802233933,276.77775885655285 684.8584533313775,278.12828345566504 686.007913300472,279.18024667521223 686.6759749839699,282.58835747273645 685.7217825855454,284.18940193402847 686.3524803223936,287.03072859030937 688.157963887415,290.0869633133194 687.407587219513,292.20821143862315 686.3223054402758,291.4947495749503 684.7201157441062,291.60983922425476 683.1374412394532,290.852537719476 681.1074662358025,293.74501319052627 681.1735033484068,298.9632748925885 680.8691982082502,301.182527128362 678.4546264835787,300.2506317306343 677.6146485837204,298.6899285260325 675.3097572713386,300.1500180410747 674.9223054264984,301.51219286440585 673.6245631525386,301.2466754520907 672.3841001843032,299.7851367292511 672.4479937058069,298.682338005328 673.7725930186324,296.0004965650609 674.656113775693,290.6626386391025 675.8743628787464,288.1595108740025 676.4067565005778,285.76678159929014 674.9998182432536,285.3277752339093 672.27817110165,291.3060905313456 670.370824993787,292.3147361097072 669.3607594930422,290.9665016363851 667.8970469281679,291.3109681303118 667.5124236868261,294.3886580814216 667.7141492544741,297.62036103011576 665.992599322506,299.46320745869366 665.3476578436843,298.7192860748353 665.1040973421534,293.6680493933779 663.6928633469544,292.061765964798 664.494843912413,289.008539596985 660.8971544199657,289.5012446813494 660.9171169393671,291.32531745826725 659.7937908716632,294.2455495215445 660.3142319749485,295.10491254105216 658.3797908804735,294.99101885518405 657.0796029294752,296.1918013390749 656.4139469613981,297.72629185703875 653.8505602772541,297.51270302275253 653.6771485869446,296.22345945503304 651.1975978386547,294.99300945800286 649.1379535056865,295.51009426618106 648.730676520955,297.35977251777825 650.5325059756451,299.20886486285497 650.7584119012322,300.9696635213925 649.9788500516327,302.53427720679815 647.8078517183267,301.7106823199779 646.9947560291382,300.703841243971 647.158281743932,297.88781073783895 646.2536692042531,296.8864509143324 645.3706919571714,297.243867009183 645.4448872036772,299.36095291139617 644.2473903075155,303.72830629741827 646.3034657126753,304.6298355310094 649.37335499824,307.29227248564706 646.9644897162095,309.2981237356609 644.2085598857299,309.510234998952 645.127026634857,307.57900652302845 643.8638007644278,306.6500552395919 639.9251009005848,307.8692811979546 637.6730023336252,305.1396408939482 637.7887507136313,304.0606456870864 636.486811570066,300.41167088926755 635.7219106682118,299.97183232542574 633.7781576459772,300.7504921470829 632.635211803767,302.69170937230103 634.8298948778187,307.48019108183405 631.0226110467951,309.5272849414191 629.1689419806203,309.1081186619296 628.3762219097739,307.20116968252984 627.3659965943428,307.6965124262785 626.6489361701379,309.18450182457923 624.999432655975,309.1698609136161 622.3588824972483,308.3203327562078 619.5286268705466,308.2563108921527 618.0089539070301,311.4491527021692 616.2921358190382,310.3689253132258 614.8724372548056,310.970657134677 615.3877570375192,311.57092481936945 614.9293048017948,313.36155704671967 616.5949058160302,313.628165527233 619.7844382795303,315.80571420725965 619.5627773336028,316.6559275405011 616.613198611128,316.3778891270801 610.1990615476215,316.64765763229013 609.5151691763014,313.11313422078365 606.522667381479,314.34574546138526 606.1871462579068,310.2330215614682 607.4850000537585,303.7752656801941 607.0741329594666,301.25810425418734 605.057698504472,298.9032338578817 607.8287743091764,295.8143063869427 609.5125932838149,291.62411764892516 611.2014393931559,282.69755705526245 609.538857114257,282.4032916527062 610.5199956960589,280.02082491369623 608.6286038742998,279.35663172349894 608.7016942661719,277.95721576382505 607.9310609440216,277.391379739714 609.2658029640761,273.331625733252 611.2543659297427,273.6433511669281 612.5899339622251,274.5364069375751 613.3012163025064,271.8635769679512 615.9433113804737,259.5628264668908 616.4270429358721,253.96446787174455 616.2305526434424,246.8867366113659 615.1425331199416,244.5831320193355 613.6419651145737,242.5292523071804 611.4202523538485,240.70802802629123 605.2812042138,239.29841670095652 592.8779949468569,234.62200601252232 591.8051898763556,232.52236692995052 591.8937049694415,224.14301404137996 591.2967804176518,220.44936492105035 589.6460648680664,215.06901430986306 586.5416424782485,203.88512380332224 586.2264965678448,199.76773211594934 587.6128769107756,189.91622958323808 585.715936708068,187.3349055404192 576.9145759599598,183.01371954833087 575.8966319656818,183.00555469222627 571.9859978024259,186.10574770880305 567.1549903488509,185.78394402657 564.5256255258045,184.98673210635195 562.1128180311471,183.6636906559812 561.6316295213263,181.49692589280517 560.4037861355989,180.49028344792282 558.5397963389412,180.47271970280678 557.0188522387054,181.0541395137401 555.5712083698797,184.2256371781923 555.1935954579101,188.26434794012778 554.4705808985145,190.00355566403107 551.6582089129686,191.0181708633952 549.5665892149236,188.4974692339133 547.7572927963008,182.58986752597457 547.4583751715458,177.89166008954976 546.6027246558458,176.50107697667875 536.9562167726849,176.61636312789847 531.6783185170914,175.49117901419652 526.1383021717049,175.4515542865363 526.1028369352451,173.87604256929728 524.8011234562628,173.81584029228713 522.0428907385958,179.0850516166646 525.5131593743689,179.16509022127616 525.2357455445713,184.96946449772952 520.7158799220929,184.92809983578843 520.7325585859412,186.84528701832687 524.7918311106292,187.04959714858978 524.5934156436306,192.54135563273348 521.437868217703,194.65453924258668 521.8167860045193,192.84709874503858 518.2049375391235,191.8229639437128 518.125092795292,184.63184880424183 515.2661417759967,184.92554823140858 502.23795343799566,184.67963251271397 477.17179303647487,183.88675618231468 473.91885106099124,185.40091028649226 469.7898432046797,188.6580197864613 459.66362655377685,196.15232362332335 454.5289707288371,200.1580273647354 447.2730044696996,203.7795081928216 448.6070187290122,206.0042385221061 452.7474214223056,214.960685340429 457.8733509502918,212.1823734199496 459.2898508097377,215.2617231979384 461.61770879244955,214.15632181896274 462.6708031281366,216.58571543228538 460.53724216030565,217.66295510678628 455.5095950503234,219.6763815041678 455.48070322154445,217.83684568433785 453.8299826059385,218.36181233908928 452.3247702805222,215.16967229678005 441.84452590142234,220.79863026095495 434.38326142367157,206.20483560455273 424.9063488879255,212.93071873407496 414.9359969757028,220.6307946491952 417.9406113857516,224.1703462928407 413.65341127922005,228.44927024055323 410.54615543146406,224.0922041345234 406.65902088776454,227.36160960884422 399.5229391393894,234.50897276003923 382.83574487597383,254.89933078690194 393.603410251748,264.81321736302374 393.7661694993443,265.29501511703813 399.074573102279,270.0034409175474 401.28286466275046,272.3496268728551 403.5773656013262,273.993453632957 416.0323135631391,285.4426265058525 418.35969695208405,287.45685316854184 421.3108195887878,289.32719613866306 425.32647518030313,291.0061003558134 441.75670579345945,295.14361768503517 443.7580410101303,286.7104649038712 441.7919183154576,286.27463586738804 441.8085748285597,284.62985930954375 439.24619092849014,284.00399014000516 437.48315554969815,281.8648128270833 436.5612879931182,279.8685525223835 436.9680078303808,278.57752363960446 439.7016504567541,279.323140139731 440.85995835976536,282.0996991813465 444.2408617978335,280.0153042535731 444.8165296704719,281.08778969065577 446.2447204676792,281.4431218543461 446.6711668154631,279.30480481173214 449.09439721996586,278.5236824046383 449.50863521856917,279.51943817162504 449.351505111919,283.17587929691183 450.89039513185594,284.1047918611887 448.8336213562582,287.9282241646462 454.0040204255382,289.93544543324543 455.06818658388784,286.2070748312007 455.82277987104385,285.30146004083076 452.6726895207366,283.1829048519866 451.8772312695118,283.22724471333754 456.193464633496,275.0920091110275 457.34185637490634,273.4434257801244 460.3896720526106,271.2579942704162 461.44255003124897,273.2421090652001 464.0395889671229,273.77799968618666 465.81148282975374,271.9879300233775 469.5283413123463,272.5674234999365 473.2108491195715,270.12995576592164 474.5664403058909,268.8307442195832 480.59362204732497,261.4795018333975 481.2789185811067,259.2389928209302 481.0037143245477,257.0315322488641 482.55986961204434,254.96216321043312 484.39116807357357,254.1644708789937 491.7679819610158,254.09399542353003 494.65339945007327,252.6942893253115 500.40383302736956,244.09357677738433 501.9632096707618,242.25057398998672 503.2572074740253,239.17889559525952 505.3968478121306,235.67145957645903 508.71260494747344,235.41101681427529 512.8844573834067,236.90095209423134 517.1515277132512,238.79297014762437 520.1952740873484,239.2882846811998 524.0060147975879,238.79504336642697 528.0652834846132,237.71381510081198 529.5452627980098,237.60702105269343 534.0243061762285,238.14022894438142 535.7371216352129,238.97953702127836 540.3072681412101,242.17859482081337 540.8533306570255,245.02606284588103 541.6707965336116,246.28999117194996 547.8749689995651,249.79304586629155 550.1374920339879,252.3830269389748 548.0120033321297,256.72122868893416 545.8571504591534,257.7836240240274 544.4352675349703,259.81115148035246 544.5144249753469,266.1292718106434 544.4018605078085,272.3624953714425 544.9087438359164,274.26826056673895 545.177714927871,277.6275271042437 545.9583078265463,280.50549919681276 545.8826804148157,282.948780927934 545.1215880009894,284.15383169471204 544.2521284666594,287.33102250803523 543.916901849762,291.31786548377477 542.2655636388123,292.7137833278715 539.4643645884385,291.293658378292 534.6207679376579,290.1963460461822 533.4245834179814,291.67309988204283 532.623013060266,298.61243422885315 533.3508638420034,311.26681483222234 533.395596089847,315.09888032711115 532.5808984321391,319.57779431649817 526.4055005084758,329.3240946721514 523.9253598635137,333.04526369049097 520.9192242630728,339.6596648806431 520.9904217200311,347.159892448731 520.7705621903027,349.2401489803162 515.3873353346999,354.2251068071885 514.7057085012553,355.9350136288989 514.360251788603,358.5506846956132 514.3772209232355,367.5488884297478 514.2464018485135,370.10913150782756 513.0145939856659,371.78875537354793 508.02668279342197,374.1439834964594 501.7591389724196,376.37399759862694 496.9542210972234,378.33831207263614 494.9030826318584,380.22783893845997 493.22605460770677,382.6039400708317 492.9272864867455,384.13147655717154 493.3647183368147,389.4165459744631 492.21334013792364,391.18598533095945 486.83018196814714,392.52801915874505 483.84599090671657,391.54080361251096 480.1911528693919,390.93043168201126 472.4352661706563,391.769423853347 471.4694808931488,392.1017049689716 465.8782744465433,396.76899054791755 456.9797152311817,397.57343338230794 452.9321029536827,397.65032100529004 448.2565031947112,399.2595594719572 444.2635718658883,400.9122972018433 439.26608683057253,406.6997069090443 437.1172068326371,407.8947596726979 427.57664184065675,405.6746212984847 425.2265588909746,404.57573214406005 419.58412595858664,402.63253628746565 418.2777076073266,401.88250738523755 413.83014486145703,400.2488833192528 410.9482193435189,399.7335703300628 407.67505132447275,399.7448587478779 403.88539332062345,400.979120451797 397.68463691655325,404.5489880447763 394.3253070835364,407.38809291844115 392.09398213171875,408.6512705229012 383.7723440302981,411.3634360114037 380.0568886824349,413.31604430748195 376.98246448998964,416.5264125280678 374.37594512112327,421.22443205269497 374.5295676212479,424.59138865817863 373.27333644049224,431.59281374309387 372.837995737836,430.6593270937536 369.2953977574659,429.51668020306255 370.4648781242744,426.19603544769393 369.24304643028734,425.737033764147 367.3098790436558,430.7779157173977 364.3170465388863,429.68842378577716 362.9079298279952,433.19205531316135 360.9656955785052,432.9876768869454 360.1260519573046,434.04953623804084 359.0050421352716,434.02303570653817 359.04721342973767,435.2793145137058 357.80986864852747,437.96187072307174 354.1788571716563,436.77918544564795 353.41328058659485,435.9057661912918 353.9884880135026,434.05531815391134 352.91480370979144,434.1456272939965 351.7809904951441,430.79568059753166 351.84383372469756,428.60104736503087 352.63164089898345,426.7858222685906 348.50740683397345,425.65424939346536 346.78652025967875,430.7251931988397 345.02529250723285,434.554979008839 350.28779678831,436.18648409954454 349.97406875151546,437.386545208386 352.45654302822334,438.4163335942185 357.2909225864251,442.2235960995855 359.93980000728936,443.2195021416175 358.80666137576634,444.5335291620947 354.4550935331666,445.3563634825384 346.1230520772417,443.2849895366323 344.25806787800485,440.64469202490926 342.2246091306292,439.6003097731988 340.12825634164386,440.65746875293996 339.3151805568014,438.8495836353351 337.3321674577814,439.07673948248475 335.1600659982613,441.2137752825516 334.51898295989656,444.6399205550603 333.9123082171207,444.41420683788584 334.1494895227632,440.0200236329374 332.4057769164385,437.415203874395 323.3518339869996,433.5699612492861 319.55986123141975,433.5753243614914 317.50653580838593,434.560366144053 316.98340701675727,432.5655893543605 318.8456427612549,432.28792818986426 318.20570292889386,430.0765443871239 324.4658413300105,431.7852062555526 324.7266745646357,430.61661155541304 323.56062887898736,430.37756386512064 324.3659998476817,427.83329526690784 321.3812205677977,425.58877677590795 322.28029034094004,424.59888798676207 323.6943607092772,425.21364253924116 324.1753477880785,423.85406638678916 322.89925611343034,423.9394266439411 321.1632834122528,422.30068991482545 319.3593351064905,423.5180808414692 315.4776365293361,419.61696023212454 313.37754412509014,422.5680756195636 313.5349090276789,426.6572243383997 311.18062360891935,427.9344000215905 310.0878949356059,427.17881159026484 305.66467739972387,433.47059222292455 307.1830965145044,438.20352264102684 308.9442553755579,438.33105455542824 308.8262002653272,436.4314457957414 310.20723752028664,435.8757136397544 313.2980628388338,436.23113131747766 313.71880861923574,439.0486070798828 313.1209555042834,441.10473202298607 311.6196744735723,441.58717891255526 311.54823028836665,445.8645763407352 313.3218130449578,443.7358421201208 313.88714171795465,439.29663424291596 316.41667245716354,439.26129033137977 315.9853271290602,441.9175904098531 316.90073701041246,442.43999958472085 324.9398062275213,437.5899670728162 326.17806513241055,438.64075293808224 330.9306108034559,447.6212537890219 336.81530470942823,447.9169206344453 342.8430550291191,448.70134862264865 343.2962345948084,448.97119720109094 345.1513344510659,455.8928202305698 338.8637893981724,456.13622056061536 332.5722249131589,456.18063238784964 332.57406482134485,463.44325727698583 333.7703012950398,464.1609295457698 338.621373152255,464.24582751538355 338.41097413834484,479.0904700870554 323.50524011896863,478.1404138665131 323.4029319592673,477.7707013494295 314.76625001894337,477.29104627198376 305.7565269456472,476.65125290099076 306.58672573621465,470.0624663510725 306.95997299913734,468.93429676427644 302.5721729587174,468.2334413152606 303.4588212381994,462.29503885487946 303.2282537604759,461.73358093976725 303.81801938590826,457.9213592227055 304.5327652058136,447.226802538908 304.0969136612677,442.76371196252563 306.35584689840283,437.82153731299275 305.19262261083674,434.08572452669523 298.83446386647984,442.86448914270596 296.52392490553433,446.95005688382395 291.63598678634855,458.2568175727015 289.2545429255247,468.6675150282027 285.35236087893156,466.8811327720595 284.8479953231775,465.7470789604527 282.0920163361689,465.49243252734493 279.48426481581964,464.05139603536827 275.4906903283344,462.6299418447408 268.5999918515621,459.12384841717295 267.6328799475314,458.2151168294739 249.63446964238105,477.37713394116093 237.94970243277427,489.9181200374273 225.4426794409774,478.2854399163801 221.64256955692488,481.9243741547682 217.62308731578415,479.8598439503587 206.8746497111957,470.2359380076244 197.09935944441068,460.8489563968859 188.6133049349936,470.9371296141222 148.09758401868842,523.9295756475542 142.10153830802764,534.6786696822085 125.15965448965056,525.4378100231369 122.49028008960862,528.6352381842203 117.85580846709013,535.4473543690327 113.67226244466401,540.4842715588321 113.54843951809131,540.9114292604988 108.36517200910691,547.6017274308587 105.23393168402745,552.1914635334975 102.71939831125387,555.2742940220005 100.34142180110953,557.4120054121723 100.37823715985743,558.3940829981035 98.36970567406281,561.6327516348606 97.2366951814362,562.860212285791 96.0390767625881,562.641992212903 94.03327272400713,564.5297021011266 91.91796613490796,567.1442861723027 88.4560248296665,570.1885233377031 86.71291355710606,572.2009139326844 84.63854543227721,573.5937638591433 79.65440064469252,579.1362497609975 78.39270335380763,580.2724032641613 77.0710446305967,580.4837551701521 70.55124942651177,584.5666495615832 69.68549484023801,584.5854677196737 64.04018698821963,588.81565396273 62.29130567190436,589.8163855389453 57.02298912774013,594.830661837122 16.836928481693604,687.9271760063262 5.041620499228918,707.6869424059802 0.0,714.6583118465965 15.685030613943983,726.6983207371956 25.1301323637712,734.0710563635091 37.49299196705256,741.0428573813136 40.72608557842876,743.643992270831 46.459776610460935,746.2894732913586 50.51858086821119,747.7008146308135 54.5723075190187,748.0854995349628 58.64909487924016,744.2768011727012 61.03682866045112,739.3570475539592 60.82962886291132,734.9492232783078 59.73256322144338,732.6603509537058 57.330364844118634,731.1165602067747 57.918044189951054,727.9913479637786 60.12586215313853,724.1690915845843 61.269771921016066,721.6538905711107 63.48554121073326,718.387807883519 64.89682053825382,715.3760424999581 68.50028629700796,711.6335252133013 71.21300767255286,711.3709847624389 73.43756322631528,712.2435738131029 79.02376474845558,718.3716182078542 80.73051382521103,722.8239361480423 81.39886048584269,726.3197832399071 85.86014111932433,734.2237111060178 89.65484783232625,741.3991466064956 97.32971064273669,755.5858269750853 102.58202847141482,763.2974528900911 104.4202276083724,765.3602436289235 112.25166346891147,771.1826733813132 114.61312959880576,771.9248433798923 118.6842718629791,770.3666856102393 120.98680144500908,768.8834156597582 122.57704861905796,766.9147629327186 124.47908388812961,763.4342116357845 125.51373585882412,760.8154621066287 127.34478512764144,758.6287749229604 128.76941807530108,757.5415880106967 132.66708117117204,755.5714352665717 135.45527068156696,754.6433214838171 138.65736595416644,754.3592528757991 141.27421927503076,752.1388313597683 141.47823603572445,747.175210074154 138.57723911751197,743.4389419122759 137.5846778831475,740.2347913924405 137.58484416054137,733.9781178126714 138.50785998732815,727.8848667931666 138.79858281649945,724.3749440351971 138.8937042711099,718.4275081100183 138.65882912440944,715.4556947642162 137.21991593399585,705.0027836882934 136.67536691216648,703.1051703520603 136.90855282476028,697.3120428031854 139.43708590049744,683.6050863048706 140.773123996158,678.1835670965468 142.68818265539488,672.0843566221885 145.23159491007712,667.391698670735 146.9425408675643,666.341639183068 150.77281798217834,666.6238087606478 155.5424084310145,666.4734703132108 159.99426816584102,667.6410967297426 163.0265229258421,668.8218756590845 164.31755755765812,670.3300467809665 166.0570442475816,673.4793207608184 168.5050079301672,676.0973816517634 173.69509752867665,682.6034584340347 177.7460584663335,683.5043819356514 180.96540940476268,683.2756213216421 181.86625821186482,683.6194962032951 183.06730186528944,685.4297676542852 183.4071315070603,689.9361148141383 185.73373683769415,692.4478809698746 186.66051598345447,694.6917265263784 189.3276659923474,697.0104492440552 193.59409282577218,697.4886352802669 199.02885828533715,696.4503731671289 202.00296570771172,697.080791500975 204.20050893610085,695.2899139174027 205.53544171576308,687.7801237541473 208.51710217133822,685.2056616490293 209.55481143027427,683.6760307912621 211.2510753630821,682.6830487614149 215.07743186060884,678.528937584138 217.35703997476537,676.6695066038676 220.31241472901183,675.6263418678648 228.5212270492946,675.0694516380244 230.6428431076735,674.2425632318399 231.20270305001736,672.9931717605338 233.52006987748382,663.2151781133198 235.33261288234678,658.7381282274596 237.33726793600502,655.1537228159115 241.41079948611375,649.5687762056122 241.95735926336778,648.0523880285713 243.2238139200847,640.7999690411564 245.34551447817643,635.7818860155369 249.73767949623826,629.1630131496165 250.1579599835202,628.2724972346225 250.77646005167043,620.760481250641 251.88664510804762,616.1910182619648 254.38205336487817,612.5705037297712 256.0311976082685,610.9698668154784 259.5666882631383,608.599389759624 265.78480518340814,608.4264215334978 271.8329681745509,608.9787678909883 277.2234602452071,610.9667653914017 288.79134682958517,618.3295857820788 298.26529001798383,625.7802926161064 302.5413858264881,630.9284205212175 309.79466628970494,642.9796139815754 317.23047335236583,650.8614764589787 323.8288514465695,652.7990082724262 333.7492815877523,654.3772718500691 347.33379286849606,658.1899421418373 350.37526348175675,660.3873702051396 352.5274427647005,662.5813939704797 355.8271216035028,661.5045467185437 361.121640065749,662.9172440756117 363.6709502005752,662.9697150909021 365.03978600538227,662.5139137642425 367.10553974549066,660.1400445243338 373.64199792949677,651.1899779413055 377.59948139096406,644.7400333178164 380.1616747424339,642.5638867143807 382.8898090293857,641.4883854990336 387.2196070176323,640.523371500822 390.1913561437398,637.7932574498741 394.8726247108386,632.6127871545625 405.235897668449,623.2384753894926 410.35138031591214,619.5042731148351 413.78664335114684,617.4362646951886 418.2380774781105,614.3152891948573 422.1628275882862,610.9706591767664 424.29176856808454,608.4620289134086 426.2943250887307,604.828524525563 427.253487443542,602.1995372209603 425.16693142560524,598.873205603275 422.5251199751149,584.0380272429989 424.0778892371625,576.5126264524092 435.1522077336582,566.590451125773 438.6406277002931,554.3331271108021 450.99235933137066,552.5726763494348 451.2312224968336,544.4456475095083 446.9842200075531,542.8728908367088 448.1246949095279,531.5821901770412 471.20270852682626,536.891882194888 490.5816172687111,533.8105072875336 498.7014478609456,537.6928888954349 495.110788112627,547.9084013775936 494.5075129591969,550.6388523826977 491.45221885666507,560.2076234299044 491.5426981390713,561.5755988137826 501.4724177281995,561.7489959331473 503.5840711247972,570.1664492825133 532.0416350168387,559.5000760334062 533.5415029959827,545.6619040526909 545.3699304586843,539.5558334542884 546.9279918980146,524.9492539421906 547.3376078993266,519.8925838659155 552.9933170086049,520.069511147628 554.3162303110425,511.7385067555527 550.8594747575255,505.5195003927612 560.5190476900409,500.9027783355987 591.568545437777,502.2525959241255 603.8394669204259,503.3831846815428 612.7691807561866,504.8879660471951 620.9577353800682,504.39109719758295 626.6155636491143,504.5488016759293 636.4114814798465,509.1912278053889 640.2382819070386,510.8619005577227 639.3994403370791,517.7526463807305 639.9617316968224,522.2978922705665 640.3952962705523,522.9741929119375 640.4845715217838,526.6611443288116 641.025672805443,529.3395380704081 644.8810662013075,532.9550879515002 648.9607213994555,534.3470294282072 657.3986492310296,539.5792960205602 658.4096140173115,541.8128800741405 660.0186226637771,551.4950683516997 660.0075770049673,559.2922473249672 660.4879615181598,568.4008227170027 662.9719847889652,580.4794693461143 667.5569601894467,589.3351101862293 691.5746005734302,593.2180820677029 692.806522521393,593.7711566570387 700.8879469148138,593.5985095314127 707.2757242722289,595.3172568205357 709.6989397977743,598.3590748314493 714.5532682069771,600.2549182727582 718.0264583613448,599.4765942600011 719.8126342303756,598.5200672130757 722.424095123974,592.0683735291581 723.8234129846879,586.9229472952436 726.296163609372,580.7247148907115 727.799825052022,578.2477294710966 733.6917871818581,574.1824070889986 737.6671607520386,571.0631857610391 739.8680695620021,570.2565340309199 744.5855277055038,570.0385297600152 748.8511804395991,570.3512652332564 754.8857304807582,571.8648449637249 757.2743709126864,571.3363267114777 758.2342079745683,568.0096705850201 756.9325016167596,564.5855335827694 752.4494138426209,555.1454575247622 752.2687606257846,553.1569767860785 752.6537093790412,550.90929475449 753.7573249102063,548.0787984938313 763.195721487409,535.3379105757942 766.073692950606,529.6689344431868 769.816840336125,521.1968523372926 771.3817965802549,516.7842946964363 774.0831613748617,510.3115427039992 774.7920821500724,505.3972812519236 778.5044208618766,498.00597246117917 778.5139718275245,491.50689199043916 777.4864183868906,486.71553996870955 774.9469501594667,483.03796037284644 770.4072544331182,482.2818861191492 758.4339148846393,484.7075538029213 747.3860352323395,483.17647499994723 743.9706227386013,481.3153454346533 742.7732552109387,479.21888958267004 742.7635004918451,476.89710866406034 743.9250063003138,474.5961382439055 746.6152204552561,473.2896975125351 748.5516781420715,471.00328106921825 751.1126141469092,469.03747068250334 753.399999641206,467.92079096582466 755.7205518082724,465.7911842451806 758.140002391646,464.7075548312588 759.8775124855188,464.52695974506946 765.3897391526651,463.22957652410224 773.2393803696995,460.5094654720282 780.8216182472711,456.8652065703201 790.3541458592814,454.9435649675997 793.3190898924549,453.6979962995167 796.4523298071687,447.4407692750607 797.3404539956609,443.1717673910172 797.0950693688062,437.1626263350215 799.3273049015867,433.3631545183187 800.3575655997654,431.05659052524624 804.1597021046634,425.85771421815645 808.1986436550585,422.4723804679375 811.7684314658318,420.0275017503067 826.6280185777055,410.2551171040019 831.1537477135042,407.48619333407356 847.9428569822368,410.1769436876899 850.1952982534038,410.6256294892389 873.6555280391877,414.43982260839283 878.5449563136231,414.06728042702474 881.9363619671675,414.20316300584153 888.1680902748616,415.90410880764733 891.0963298318252,417.2296200274607 896.8824159618313,420.6285237790217 901.5270516159022,423.65321111174876 904.4813737918537,426.1058763071421 905.5451705665091,427.36861216281636 905.7359571619355,429.44011645331267 905.1711190849659,432.02360908078833 905.4995414503271,433.2605302883472 910.9471540856119,435.5099466320926 912.2466470927158,436.64941869913093 914.46723985716,437.68533674481046 915.2842356227816,438.98801647324126 915.7370890673726,443.57517111894157 915.2090266886314,447.80433684199835 911.081390161764,453.9711349173328 909.2529751389707,457.9058804946208 905.9125728527715,461.66741045171 897.694456854106,472.1151725849932 893.6608023058155,476.2993320341439 890.5509216262491,480.5611106342548 888.602735082049,484.87798116722496 887.1416645885423,488.82048863050346 883.2261970347114,494.5789945490863 880.5882105532544,498.7552402073601 878.1744747321984,504.75471634484524 876.023139362608,512.3217090060509 875.6168601884748,515.6153195398947 875.9732829601121,516.5636399788973 885.2308144964302,518.9809090671213 888.7850939172336,519.6130328814336 895.2065574661235,519.2980068373932 898.8938239204472,519.9252867328992 902.5917134205406,517.7157110008214 904.3346178801494,517.2902259332618 906.5739021343414,517.8939560349081 907.9436386686972,520.6596597704936 910.408397441061,523.1494564981158 913.8290835606582,524.8397192427753 918.0072071393874,526.3549449241298 920.4345939719054,528.7658624984689 921.0525930229952,533.1879687196665 919.8740172068683,539.732218757053 913.7146045837629,550.2018719478759 913.3380812149469,551.1042940315765 909.1792430825798,556.8253290287694 906.332208468937,559.7700255477486 904.3583839952828,562.8314512363779 901.5932491938873,569.1732200904324 896.9830511835823,575.3950007906358 895.8835408336296,578.6184462679287 895.837583463158,580.7653488713152 896.8971413914294,584.600901054182 898.7414667308141,587.0950874511107 900.3203496353054,588.1474671988894 904.8089017292727,589.5613175909374 906.638235505925,591.2326834290798 908.6786401824653,598.4291312623483 909.5870377557901,599.3564638767031 913.135776256485,600.3049119899886" /><circle cx="502.3994049879211" cy="473.3473206849961" fill="rgb(100%,100%,100%)" r="16" stroke="grey" stroke-width="8" /></svg>