<?xml version="1.0" encoding="utf-8" ?>
<svg baseProfile="full" height="1024" version="1.1" width="1024" xmlns="http://www.w3.org/2000/svg" xmlns:ev="http://www.w3.org/2001/xml-events" xmlns:xlink="http://www.w3.org/1999/xlink"><defs /><polygon fill="black" points="601.6391807662552,633.2272686058529 607.8784842324252,638.3229112402544 609.4821482014745,642.8314714543122 616.465383847355,642.7893239876303 617.1449854103868,638.1637071101281 620.7038276769808,639.5846495676443 622.6958196600291,635.6565959155786 624.6206062283928,635.5982576230193 625.8120820836544,633.4629272161242 630.0102045914847,631.7542770087479 629.8379321841962,629.5461316817841 631.2402893553283,629.0141587183316 632.7102377117369,620.9615706205306 635.0806770185568,616.8554050984794 639.4035894908723,613.5777948974951 644.5221330416806,611.8848397328218 649.0112787457734,609.1889458848236 659.6614265751199,604.8771741128879 664.5408362496707,610.5922005862977 677.6649149572602,612.1338731142808 686.0759751617829,608.0786346733386 692.9120495795783,609.1420217763228 696.3345170354262,610.2668872356109 699.7688003430342,613.6201326049302 700.5661972891189,618.919041952134 700.3130537271637,623.2691436280912 702.3749979805568,627.1780391526383 701.901055328354,633.415399065367 707.7448763154598,635.3928867204454 707.3818004703086,636.6048163265705 710.7546596518969,637.4549338157257 712.8426123566401,638.9564813093832 711.1652331955775,640.455826198353 711.891434586926,643.1052500336245 714.0472617654929,642.795141945576 716.2187323274037,648.2157683147855 714.9440840356294,648.4609861090189 713.765095000579,645.3469770009042 712.8532604190573,645.8105210874509 716.056841631535,652.5248908596707 716.9842653287546,651.9996901922124 718.1855318901637,657.658917350775 723.7874730515462,655.3945384861427 727.5559675809882,658.7146849007656 734.520277371331,655.3437112319309 737.1754094520448,660.2140338260704 739.1589807710379,661.944817808693 742.8255146629187,661.1002883728934 744.2564958514618,663.9944205453592 751.4491110174117,663.3116989911712 754.7359082647152,653.9802311437895 754.7626193993418,651.658074216105 753.4827680170858,642.9612657464165 754.840744867093,638.948671424675 757.4245881711273,636.1791351756383 763.5646333808298,631.9820044731986 765.8969256593922,629.5609402857351 765.860866899635,627.2199249710841 763.601989601807,623.805748850072 754.6208687388834,622.6047074515561 751.8619898659107,620.0578925029914 750.5772943683354,615.5767500382549 750.1448375777854,611.298453601105 751.0098858442522,601.7089402916105 754.2433448032413,598.0379582805476 758.10709682207,595.4111343363386 762.9824306881071,594.6506401765225 766.2094049626588,591.645213392758 770.8397006739452,584.6381844647758 774.679179096615,577.3778121312007 772.5397312229662,576.1014038237142 767.8606611889611,576.9620943487877 766.5792028655985,575.6724018107689 763.0782051665625,558.3903844031381 758.9720972119054,543.2235076994717 758.9452604029111,540.0542715014118 761.151279777069,532.4725289726904 758.9345601328424,530.6762311855896 750.5253709010511,532.606471418994 741.4197191397167,533.8399019471723 720.0286748529762,535.1895455992494 705.5145232536471,537.385793827583 696.8886205618787,536.2985693012246 679.7330657357815,534.8924537971193 675.1728998170378,532.6594644021473 664.2019728479235,520.6974542333016 657.3637360284647,515.1863423143104 650.1548270941113,509.874781791841 641.53594853499,507.0900888205024 636.1980696669142,505.99334203592184 630.0260881577639,503.29449096642827 622.1735224507723,496.4289186332993 617.0913483889846,486.8832823417224 616.4153976372097,483.83479101446835 618.6296818668918,473.5167641986968 615.503537707145,469.75006104294187 615.8755808610128,468.02704489121743 623.1825803017077,467.9992635695911 626.8703105835093,467.27065615026424 631.4237682828907,464.87099078092774 642.026547389955,457.1765759289077 645.4603633243598,455.05096434457687 648.3434867325996,454.57777918682234 666.7815422683989,454.73980168527135 673.2484416441865,455.2859015254761 674.5716486018891,448.61969600246846 679.8647343435556,445.72854121405476 680.9743122207957,443.4831177346274 679.0062676958613,440.4760861655627 681.1263557734335,437.0703373302297 680.7418426284545,431.168858869583 684.7008588835591,430.3619796250433 686.6652044434188,428.89990650532854 687.3099936537624,425.14009469196867 685.543893955627,421.189074644692 681.9808184489013,422.9606608817438 678.31971016765,423.4658481308502 671.5340828311679,423.36454428066475 668.8199892602503,407.6032947528762 665.9212359468053,403.97635992642415 665.236896306007,397.2513649864952 662.0490334512906,383.6941523133936 660.4977998220002,381.07099220399243 662.7649022224278,379.5351597307455 673.7509441558996,379.40854128406556 675.2311617538597,376.3710386963926 677.0036881547396,365.42888508493525 678.351845219752,350.6816992750189 678.590707390174,341.1950319953188 676.6845650626018,338.24058578923916 661.6917171812934,336.9027534922353 640.6734815897803,337.11875154924405 634.2004573604249,333.7711503362575 631.0967167823942,327.7579776033705 630.9355413534809,313.36272410851996 632.3688892288448,306.22951374770105 635.7177846252486,300.5393464824024 641.3185569132951,294.06045990958296 650.6714867386328,285.1218594221066 667.3497109974388,277.1356631889415 671.6076252964083,269.99094595874124 668.8258155854553,257.455784465241 670.4341555642206,251.08818719945668 670.329927784045,240.12687963760425 669.3686600170504,237.36410890896389 663.6730284025813,226.11129050146053 662.5500870546634,222.46148629828656 657.6084250958075,217.30655460434753 646.4801334283206,209.0279761831839 641.5154701465223,203.40364877976208 636.8757502259239,195.5160193926199 624.5273422060625,195.11955955363123 611.7643395103125,184.1582790846436 613.0838107712216,173.98798277424066 612.6069002156148,169.77764046452194 608.8678422874187,164.23745115930717 609.5866838664299,153.08369431258097 614.397633737581,151.1335443308095 615.1618995218216,145.0979086724284 617.7247317686462,134.86724878823384 619.1247087571825,123.52288762834371 617.8634797353643,112.56521095370681 616.2848880450326,106.91144283609594 613.9073911556175,95.22767081030076 610.7635611169059,84.29827264478502 608.4557423515713,79.790538437299 602.7157998414251,73.03634594982896 600.4335645298569,72.29600166973285 590.2003598977808,70.86639787170282 586.421212762986,69.39158482405003 584.1177292109876,65.62846637327209 582.8919719814484,56.94833037170713 579.4620747997584,54.33511211507425 570.7672242304532,54.403260448716196 565.8579170715625,53.69182660523472 562.8143738236321,51.44905024785919 560.5078415230977,48.06417682200254 559.316756407114,42.77488266068485 559.2898776149185,38.25276163932108 560.7242019915126,32.199449781840144 559.1974981133058,29.93610007956545 552.1241088623356,22.313347714169822 542.5240378102085,20.975731854394212 530.9953620141366,12.796331310671803 518.4518216241075,0.0 512.6350408911711,13.781605169450131 493.44522037663563,15.972202580662383 491.57314674225086,9.680433676659845 478.120157610846,24.002327957140892 478.35947553366697,25.989651459186575 483.0298016063458,26.309934304682884 485.72684539549635,32.72046846956914 486.5247590890517,37.25105462235638 478.1355462908026,49.72406867310417 463.972159725856,46.90872264363884 455.2159455753804,47.37215269258229 450.68439455237785,49.71362694653624 447.9506574907939,56.43852221611064 442.80800319496865,59.05408801421652 436.2492777445573,57.238896787325075 434.24102935945064,59.850807294386414 417.38860373181467,61.429471472624414 416.2540497164167,62.578744257062795 415.92209969955627,65.98263177850231 423.2454154890036,77.23011893362741 424.83021948139407,84.77032597993002 426.40478419538607,89.29185138139678 430.23694659661015,94.52382714379064 433.34294560607896,100.15641029435221 435.66422030919523,105.81013860833684 436.1004650184309,111.84747703554274 435.4542751629367,123.18923996793694 433.99700216992704,127.37588699578168 432.0990381282124,128.91449407136497 418.47016943523295,131.7222504215979 414.68380087772186,131.76639966097366 401.6817347323187,125.50993420129498 391.44951574433213,127.51327333470886 383.94171159249095,122.9944297056702 380.0204805842155,125.78542033747112 375.8627530578233,126.61075466785348 372.0953296268004,129.6747758418452 372.16561316696345,136.86215223645775 373.743554268468,144.00844799886124 384.15501933297725,157.85977572280626 391.4509070580541,166.08979292375102 390.7048503694748,172.73809080958392 383.6346865593544,176.728460137061 380.902104700054,179.35995786322837 377.58483145573706,181.2964864811123 370.0620924797785,183.59727199618715 364.86600707594135,183.68228212582915 355.3386067667394,181.15985350618553 345.4809383877092,178.96062816255358 347.55068257820955,191.2046267404694 347.69443593956794,201.4769581965454 350.40612633686004,210.6516441272703 330.462779952605,213.41200843715876 323.54258766874983,206.46069789924843 318.0563801046664,204.1362125536706 314.60621784185463,201.16143375405352 313.04754926194767,197.01749951556212 307.3106317134528,195.20732909111632 303.9022448008176,195.6328145965449 296.31247044683107,197.64711951116544 287.24382255069526,198.4970737011855 272.97976521187553,202.2979989140232 269.7405439595862,202.1165905235697 259.4440561746515,200.20541404193375 251.79120302717394,198.15482623936794 249.05216299471604,198.13075216211837 246.03912315567575,193.44380350819597 243.71427507962375,187.7987012107825 242.76628583477435,180.41757275188638 241.73934283759874,167.90348811100546 234.76150724671058,161.0242300732392 228.6408996873242,156.5932409462597 228.45629373860172,162.9577955550144 230.60207521890203,173.25217552100105 222.35941469245256,179.88828343381113 211.71770278313076,181.0520997852825 198.6780597504962,183.99666912386613 185.75361646722808,187.2222693966238 180.7102748743311,197.07231470556383 189.7401414180526,202.07747059503083 196.291667106644,210.77196960337153 195.80438187668705,226.57842711918272 195.12106620025492,230.2340284750884 190.04343317508784,237.98116091068846 184.89329270082231,243.3404436407444 179.11643470962505,247.16700963400808 176.04132583779605,250.67023371924552 170.11587334797167,261.5140652540912 163.59755663318705,270.49782923534735 160.81866001927088,282.14926939483803 159.440586337242,297.95927763685097 165.51876800744353,309.6892835460152 166.0978326305625,312.88827362257916 160.56829817794477,314.9244391055021 156.9734722895499,315.0829724720086 154.20967022746396,320.3306237042816 147.96682274743785,326.7571141037354 131.93028768936492,330.10565747275666 132.51734259535888,339.9357224040965 130.13253032008393,342.02095620821103 124.85075570281343,344.7165586334661 118.71779743168628,345.9198977316829 117.39884848869836,339.1852290233221 109.37516674412686,336.97078593387687 104.18987949204065,341.5938258234528 95.37824471719121,351.17976651752383 96.1498708069763,359.1099721293998 97.81618809430941,363.8595812184791 105.46007902373664,378.2086079066197 113.54055505081716,389.4560825201495 118.97975692877533,395.7824066074652 128.09900863719935,403.5934410970291 131.62462226413447,407.7065205297255 133.56654519049755,412.72964281404086 129.21123479035396,411.8558607179716 125.73999771329102,408.95813419047556 123.42037082720368,404.3182083542033 119.64896112715546,401.70955086185074 112.10103385487001,401.4199096832076 109.4888612377549,402.281861671863 105.71671000119245,401.9942970801641 101.33487730708475,399.7617372879412 92.39862449720687,399.9094826944354 77.6289746677383,399.3123688609245 74.603582980947,398.9632312081327 70.91328436775146,399.61490274464495 66.29491321844762,401.32025405909985 62.52979918529775,406.41519815672245 65.67967025302877,417.0044340277657 66.41085958330369,424.28156231407775 60.836671607702776,427.9202270798836 58.457893659693134,432.57935795410253 49.75130090352238,434.85768510776677 38.1047131648802,430.73444693419765 38.00324160136179,434.9879951606151 41.74713207409375,443.51404525939984 49.78466791842856,453.35768515812515 53.33848627502904,459.58661442247273 59.37630739458245,474.31989057724377 62.413581658820775,485.95635372089976 60.686797872443734,498.7768963688561 56.7460988179254,516.4820795020776 60.574682644906126,527.2092602144569 60.41147671910375,534.4997995030138 58.92826938080361,539.048322212893 54.560537898326764,545.3607626120537 61.20753264551148,559.5911555907692 66.24600715578845,568.5559513354372 72.52137334970263,575.458879930769 74.49395257291776,588.8815352348321 72.02081373846298,599.5884818604505 72.26593079053285,610.2625034000322 76.61516444993418,619.43209927219 85.21540276732435,619.250215097615 92.47321682693807,624.3002034205942 93.90600248713304,628.4844752253009 97.03398697599955,632.8845233830614 115.18582062958181,632.5663137375598 117.51238200560114,634.66522305149 117.81808077598802,637.1666835563503 116.84166705048537,644.154957723586 118.93555360257461,648.8019255833202 121.17386179411986,649.6007217147248 117.72824334567362,656.6527649236567 118.94198130614284,658.8968410925274 121.41736634071322,658.7418856470736 121.91096767158494,660.7417953455076 118.92953025775263,660.9033260765002 117.34092800445912,662.2727230176893 121.98817820687098,666.6825233999131 123.91259757451729,670.1254984420714 123.42330133598297,672.1263010119269 119.50353982086956,670.3669825964771 118.5423846880215,672.6095883778839 122.70535719833443,675.5838163773221 122.86756066651415,677.3404598882682 119.65954277967097,679.9806445185261 118.14025898357717,678.22181097523 114.34614514982468,677.1044683239966 108.11197142705879,679.5896254959302 108.12544999123637,680.6312289549239 113.75989308464445,679.4134904704918 113.24077686391792,681.3849433520959 117.1716859054375,681.0269859917137 115.33130086670837,682.789796989905 111.71479829088712,683.9200355514758 110.76384559509309,685.1187108021624 113.17064701826928,688.0029326804861 110.94032598163808,689.11717119887 111.23465832654333,693.8607785181896 112.60646939298192,696.2672277477235 110.92378185898845,698.1804565360101 107.49919834248989,699.1358247813193 105.39668837058215,701.0663259572195 96.74863851885273,703.1525641852944 96.32835459004502,706.8299316736002 97.54651030266325,706.9984210927564 97.8597095565259,704.1205955678241 99.37801533907339,703.9564327816074 97.92471581335813,709.1622538531649 95.67977230948527,710.440918793194 93.52934761862893,708.0939337776717 84.67425989154438,712.3610248633172 84.55839816990239,706.9100651943374 76.77206572855002,711.2859540322946 56.180130496616094,716.839024208331 55.14128103327709,745.4589781185551 61.489978815849234,765.9142153347632 62.022246379235575,768.5276695038589 66.64126780767856,778.0070005661833 81.148863073568,795.4938750047136 92.93358208833402,805.4038760640049 107.75756255764975,820.5741982469042 135.43269893978294,851.0869554231476 139.75033947660694,868.8519450826653 142.77531526523754,882.5834582534867 144.49715131328534,891.4973550540501 155.3193416144589,908.4545981301748 147.44265704564688,913.3382851672527 143.7469105784246,912.2811962970441 136.01627013470554,906.3705919563516 131.22295186623822,900.627731781055 129.8624950687745,897.9022914625693 127.12870141528194,889.8907114965268 124.61882477354358,885.1322399608237 116.97685740900498,878.606067758373 112.1297227946469,875.3115816234915 105.00505615376316,871.4323676729093 98.17342839593523,869.0623476575716 91.47393390407771,867.8272959098158 85.14647204063044,867.694437676814 79.31596028503563,868.6800215061714 75.07513064057709,868.1201989329709 69.0900033461549,864.316660426609 64.8999434202869,861.1041295354968 60.42037165153795,856.4732122760214 56.31441084711841,856.8323381863437 51.08484683369446,860.7685747754772 46.812647813388615,862.7873381878474 45.47904159174986,867.7594301326759 42.26926662547609,872.3947719225832 41.868240511671544,876.9668700728322 39.7200870940982,879.2141364962426 42.9959222970964,882.9911639077828 40.41629721391773,887.9888512495994 34.599892208238145,894.3582012224374 24.423541970478063,908.8506950455111 19.74318488037252,915.1340837161504 13.984993949195196,919.935603777569 7.8092182834041335,923.9440697175099 4.627839427503826,923.4629307487613 2.4013547866159772,925.0770653805183 3.9035691552141922,929.1123455237642 0.0,937.7007889329424 2.1033169349841696,940.4789150300437 6.778262481908977,941.9257515751318 10.693290333753662,949.3927377450459 15.809716278937668,951.7766228983043 21.819528543449945,948.8336221041383 22.4284487160796,947.0356359467366 24.67156885918076,946.7401347004156 27.107025418909124,948.020642387817 30.851791893454905,948.6073504487034 33.16413072047662,951.3331275950532 33.01594040258263,953.8541663299092 35.2740708545453,953.5801778387313 37.121192988243166,955.2165729797438 37.93346452181852,957.765132185358 40.92555401839693,958.7731328903993 45.23560426610932,957.7344711633417 48.46796503350419,956.1072844466001 54.855741584601276,955.3392822949558 56.38534705022962,950.4459137264639 59.185407577746645,949.192432906319 58.888223753995,946.021457935464 60.336251227230306,944.5494135532185 60.530546569975876,941.3424982436486 62.41880897806403,937.1000732250927 62.79428705153017,932.2628781598409 63.73158247685987,929.8961588639773 65.06631846673399,929.9188183295996 64.60346931795563,933.509412209945 65.98354059316101,935.2208646322774 70.00859621757338,934.0348697245774 72.6688648278536,930.3251930333087 74.67075562381245,930.125416430907 80.45180941399708,925.1578636408487 83.48147769787211,921.789935504665 81.51032773401285,928.7073039941137 82.8828294754767,932.2626358141425 85.26432708977696,929.447611397864 87.7987121720688,928.1140162698575 89.53446306008478,929.6386035819787 93.24300441581725,929.2623696152267 93.29453101463866,934.4328562444232 96.50918913227042,934.4728752905006 100.68472338683307,932.2902589053174 104.46257512233666,936.0206031486356 109.25915091781211,931.0333597419702 111.95429892165309,931.3571502988534 109.79541516702156,934.6211285674578 112.65401655819704,934.2357611883289 114.159186939026,935.373008782537 112.10505810379586,937.0789548040124 112.089356479248,939.4241094780652 110.63676027688338,942.9443866686757 111.63608919738891,944.2842314242059 113.58586402895884,941.7398918327664 114.59081053336578,942.802379414432 116.13139551676174,938.8491855958866 118.86808074620066,935.1281194119605 123.19543207875151,934.3355043491723 123.51807189679351,932.1705657560932 125.35578069482571,931.3387597220271 126.76169568743936,927.7773913585598 125.37805780216226,926.9555284025579 124.14952110064961,921.8002058795455 125.20943549728196,921.1527323908304 127.28703971638757,923.1222575947943 129.28146331574828,920.5058985819323 131.4952106335444,919.2374151490359 136.44515728375873,918.9177729206807 146.53934105332402,916.5644845160022 156.2485704124902,912.7125770704578 170.81293384132542,923.4767576443854 191.27819614438658,941.3422358727847 231.49225996404138,969.8000110957574 247.8265850421718,1000.307487934078 252.6555232168192,1007.2998923703187 262.16439714055355,1017.3747739154875 277.37065484901717,1021.7398804409573 291.71315156111785,1020.4393380130329 304.1435982270104,1018.0270594779785 344.5045281435063,1017.1085403391759 355.28092249834964,1014.7581242486067 363.29775285264714,1010.3160522301188 377.5989996463749,1006.0720967676546 389.0103281400634,1005.7199274575504 399.8050745554221,1012.524245201096 407.60526731996254,1018.4092828889236 411.35971014125755,1024.0 412.4540928042594,1020.1738295590337 413.14404988491486,1010.9261214289551 417.4048579136428,999.1367579054097 419.1591285777845,999.0508264197176 419.2349997577996,995.5478400158412 422.38271879577565,992.9526144168127 416.222302026706,984.2919017801254 414.7592363361114,980.1132123684263 413.03803116841186,980.4541784462469 405.27515446485046,977.1834026064763 398.7145896574262,977.304501406595 395.616997907678,976.2423570613153 383.66351038332186,965.0806669664676 382.866957093646,962.7168436751746 385.801670235375,958.9365609322947 382.5067634444426,955.409066147045 385.2031915030859,954.573439447244 384.34756707467324,951.921256542428 380.6065849095045,952.7614524354967 376.4721250986693,949.4495439995267 374.73309995013193,951.2760555477868 371.8936273513285,950.7944094776324 367.2361517432463,952.5384043826434 366.36686283621646,948.3513291865795 363.094655069689,947.5051800958624 363.4347613625747,943.2816045684223 361.15577104617824,941.6334138423402 360.453331490229,942.7483281801378 358.0937621799448,940.7130089517422 355.1641520917274,942.7399975570632 345.6973010877266,939.1722412083404 347.5204950850833,936.116742638031 344.6646804335349,936.165878235313 345.0166570245353,933.8575075031033 343.1365015060687,933.2990220058693 342.354353094927,930.8834201425894 343.4011078269334,928.2367204195293 343.00753595680345,925.1086801883206 339.6303254437093,925.1451247347676 340.1631476386739,923.0382906516305 339.38872025498,920.111561377533 337.13833184778184,918.1142049557138 334.3527032009899,918.5821911054329 330.29947234518147,916.0271574400524 328.55568109211725,915.7638193933209 327.4558814482914,912.389924763791 328.81606681005553,911.4503032055949 328.00180038324345,907.2109091217908 328.51185743841586,904.6448944654225 327.229748426678,902.1648003496857 324.0876642454726,902.8633677274977 320.3987581003468,896.5855086231593 317.56137535206295,896.2043387353682 317.95169976567996,892.2574733109319 315.62571645979745,891.5523996342495 317.76725897702613,887.8886447389813 313.0313258231962,883.1402154535913 314.7135811061661,881.8694519101562 314.21603970847923,879.7054212555258 318.19005437452336,873.148633645181 320.7648601689413,873.1352478306106 323.6719270170664,870.7107679701625 326.64203541976576,866.5938862420079 327.8008934112121,860.6201239898259 327.39666663563315,858.9777309407269 323.08812158827385,858.2186790934546 320.2056439078881,856.7923902361631 321.3095099812242,854.8441556471996 330.5106357929465,857.4713414840113 337.62467647932385,862.5948384715023 341.7152352319139,861.1046174787502 341.5690900680071,859.5517824021124 344.1745661515355,858.4404354354939 344.5934417610756,855.4042084985276 350.4377115542514,856.1318570085949 353.81084784317017,855.8615321856569 354.785325931342,858.1199547331128 359.8760891652842,857.3029475877628 362.9493593665209,855.6521371460788 365.09656667949037,857.506093288022 369.1368382954936,855.843810325972 371.96032804001663,855.772998690599 373.3122756846479,854.2707010306406 376.8161580413955,856.6781829392453 379.3817388599581,857.1971665037408 385.3181196966271,854.5040669226635 384.23452167258995,852.2036731809804 387.72132432975246,848.3680122165788 386.068887638564,847.9195988332181 386.8641552583182,846.117955542565 383.49865826563615,844.1583060261321 384.1410486093809,842.1844932530411 381.58302273521633,841.0118230999622 384.16583472799584,837.2382794912872 380.1047693485824,832.3607669862387 382.16776099805554,827.6338080086272 388.5349416887968,827.1985513283516 389.33143668822856,823.9113265115628 392.3219277516108,819.7853652612619 396.4615505300336,817.4041905210368 395.1959060511166,814.9439617709692 395.8069325845123,812.9705409451989 398.5226535604978,813.0970078420004 399.776065903808,811.2671145444076 400.35276818816266,807.8917952670031 398.0804238360907,806.5310985312979 398.5850774988029,804.1709282533209 396.373329497857,802.1537493756309 399.34219506508845,799.7888523825067 397.0901542930609,797.1186010753397 396.544307249211,794.8226287984845 392.85060616973027,796.6548950691316 390.55694785507507,796.1243716381684 388.980382394191,794.2527782294753 392.4518659960492,791.0926107835294 391.8044835181357,790.4579071934036 395.9816818136985,786.3350994363054 390.5286550682072,781.7347219988186 383.3213862104163,778.8165643443964 348.0626383190433,780.1035966601773 339.51049244772685,778.4705201040822 331.0799708944229,774.4626358606712 322.7709334923144,768.4563066038751 318.4855620075544,760.1743277127798 311.84948767577833,751.5560433716455 299.60821192281054,728.0361719095777 296.478349007879,716.28981323156 294.88576432820275,713.2949338205494 288.55873230206043,698.0030623731129 280.00658053610863,685.8727614159159 272.71162670702233,676.7338525507171 258.6138848319714,670.6220759107742 254.81785655765435,664.7907393249527 256.56551845667195,652.1542877088227 267.174066151605,636.7180763568365 268.0731783025008,632.4315994173562 272.21388497457673,618.8018675511518 267.8571078226488,604.9922482927869 268.13529705871156,592.112076692491 268.0084382979526,568.4387027791157 278.8581047071809,576.1565611595993 287.8500355094482,575.0516129525322 292.6569170187266,569.2795943165554 304.3735959297496,563.0147131508885 318.34721294449463,562.6682948350253 327.24816856302505,564.5719436595825 340.50555758205354,569.4198126978367 345.4493078511829,573.6059588459789 348.7039363997856,564.520751740165 353.257307289684,557.3605468511307 356.19330253508343,556.2461789695875 364.03434582367095,558.6407099472865 373.37817107049403,560.4633905124207 376.51313687914495,559.5520160200948 382.15052688653697,555.3709977941164 387.75230390662057,546.571196473175 389.02623814130794,541.8589071240721 389.0261319914233,536.7564491209405 387.8412644393726,530.0444032995204 388.70838190848065,525.8706382507855 390.0133279575765,524.4222028340112 396.8641268025017,522.3926868765326 403.12803432481763,522.4273070263995 419.90047110216483,523.6106784236378 425.5597630576532,524.9527361352199 438.816200476928,525.8381176606258 443.31442940663464,523.7695274030523 442.5745971207048,514.0364681249924 447.6378973948547,514.9765113873299 455.6827766655362,517.5298391769477 463.61543501875803,514.4094900355135 469.72368029046186,513.9436196139233 479.42151080118003,514.4085144657558 480.3843506012819,508.19861766756765 483.8575571304703,508.1783507369655 485.44167215865485,501.3355105920999 490.2383819563697,500.69390825015034 500.19512344455535,505.0189149482204 508.6220493308561,500.01016995089856 510.5924821223158,500.0113205225181 512.1019395622154,503.1092823717263 516.0122938476352,514.3909826657674 519.7242051969176,523.2232253415547 519.5262356033263,526.2528554273708 520.3743770446906,529.8714537588678 522.7353632008756,532.6380885297049 527.0230070041132,532.2488999911654 532.1480637226575,530.5777069159624 534.3700761141092,531.2208026485814 536.6481563174175,533.5705743265836 533.1979431979316,536.831859163832 534.3753242560671,539.5047218181987 539.6189735990403,540.6762003952833 541.0569037113966,535.0711299395415 545.5928036938178,537.8672336853404 546.0113915826086,541.4207511395074 544.3099521189063,544.9220508890567 542.2546967402625,546.669485260765 539.9207586370966,546.9095626010646 537.0565917441852,549.7621944166447 537.0797686616719,552.483570655377 540.0010365750642,556.6839899654881 543.7834486551222,559.0830846976646 545.9516793643323,562.4268251528852 548.675828142265,572.8183029301922 551.254583770261,575.5122295676427 554.9445092695644,576.3278490436497 564.4837761645018,583.2954645920906 567.4970868877058,583.0987133452616 576.2877614535304,575.164789898301 577.6346610487898,575.115250581893 580.6961312671107,579.31324175716 578.9291783974187,579.9751340448745 573.0258888623646,588.1301615865491 573.1279927146944,591.8329236033445 571.5104748941933,597.4309127129836 567.9598770950456,598.1367441960465 553.2100617706127,599.3967553780942 550.5571662962041,601.8086188041814 548.1640436703113,606.5679501461068 549.2937971728747,609.8456387229526 553.7696193026384,611.5808488350069 559.2963427815843,612.1952774783826 560.7239948265141,617.6475354302355 562.6507196178138,620.8620107239017 567.4421197183659,625.5894672295383 566.6915410059646,629.179923722383 570.2287350367956,632.780783793058 572.8096412657205,632.322952241461 574.3419913498777,630.5216131089594 579.0631537603975,629.3250924927722 579.6811626928079,626.2079875947638 581.7773516961227,625.7155940556787 583.5440421600367,629.2492458665299 586.4635405336637,630.1174523141473 588.9985708932977,629.660136376977 594.1161401432324,630.4740536249308 600.2983713470065,629.6161013138612 601.6391807662552,633.2272686058529" /><circle cx="558.8889378206018" cy="559.9773284396434" fill="rgb(100%,100%,100%)" r="16" stroke="grey" stroke-width="8" /></svg>