<?xml version="1.0" encoding="utf-8" ?>
<svg baseProfile="full" height="1024" version="1.1" width="1024" xmlns="http://www.w3.org/2000/svg" xmlns:ev="http://www.w3.org/2001/xml-events" xmlns:xlink="http://www.w3.org/1999/xlink"><defs /><polygon fill="black" points="717.1607749583313,901.6498467021972 717.3758750431775,895.3948641342427 718.3020453016221,893.5335538850629 719.4011976433393,888.604740452011 718.8518688391802,886.9727883017148 716.1201998619523,882.0473412692309 715.4278530897801,881.5214719619889 716.4297878865895,877.2504523004259 714.7447983634916,871.1719301654273 715.9689792753042,868.8809159817428 716.5378468154179,866.104965727923 715.448838608997,862.21343854292 713.5244265965653,858.041486068641 708.5951769894723,849.9198231482071 708.5911782915078,846.0855446987869 710.785395733478,843.3474924905177 714.0662203591822,841.7108175615824 716.8058929652742,838.421763557473 717.3501518946152,834.5899273988823 716.8017383931896,831.3065920245401 715.160469075074,828.0300267644784 711.3298444101334,825.2955469516392 707.4977764826571,825.8520691782562 703.6704426927301,828.5826929976599 701.4790455863291,827.4965962189154 701.4793388202609,824.2156954487308 703.6687392423024,819.2846128644753 708.5933769566509,807.2521227824301 712.9711399215075,800.6808580008052 714.6140338832445,795.2142135433107 712.4231372057588,790.8385953058992 705.8602868209734,785.3656073071232 699.8385680774725,781.5462143730978 695.4536407010863,781.5567610005039 692.7178510087148,782.6509533313999 689.4333565547796,782.1028416083009 685.1830496204703,782.5651962854239 678.377488296034,776.7128801210994 668.3721091151693,766.3147767411617 659.6794844236772,762.2658077838535 651.2973789268334,757.2145462936453 643.9307344695308,755.5186814584912 637.1998676501838,758.1813077488666 612.6882271068843,763.4591706112642 600.5875235712264,768.101481985903 591.1864116957732,770.410900579262 584.8406804296851,765.3670085349365 579.5141151961225,757.6530373051323 577.2143201773592,749.9445883204901 576.9292723583741,738.2404612942005 577.3199274528016,728.5393353140375 568.640000214665,718.7904004813272 560.3063515387756,710.7234128899622 554.991475277503,701.3412117041278 562.3859961887886,696.0129284116529 581.2334714995842,680.3671402724656 590.333072888975,671.3593518868695 595.0771649737648,662.6869576929082 591.1111348427502,652.2918917967886 583.7735535923485,641.8893294557924 575.4882494843334,622.4597096356442 572.9152065356626,601.3618888870793 575.3274577370449,587.327198596819 578.7278141905452,575.9597849852564 588.4803886340515,570.9735124343484 599.237602048743,566.9967417282825 615.0373337147845,561.3643711287141 625.1325819994368,554.0347106473821 632.8849755718076,546.0273586010123 633.8283532337372,540.5360014050214 634.0918870475381,536.8528934231119 638.4480858488726,526.6906047807352 647.1694182092815,523.7640707645562 651.4852303538287,521.6880592032371 658.3564016752763,520.779132883956 664.6333885461308,520.4714573285214 668.8133009804717,519.868144219566 669.4107141335891,517.1783196523133 667.0210362031577,515.9902381528889 663.1358697261054,515.4095045751869 660.7475878373256,514.2198877010635 660.4515615341427,508.25204886413223 658.3601978820856,503.791543233211 655.3699668151023,500.2149923931365 654.7736027301004,496.6412750051629 655.6739577233079,492.4602568012839 657.7647359232639,490.96602578146576 669.4111010994959,491.23601725732215 672.0998210753966,493.01966525469743 673.2942775118943,496.59615671138954 673.8905453053288,501.6654086587466 676.8792576154502,507.3284886445987 679.8642902885894,507.61926036980094 684.9456112922378,505.2271344997856 690.3161128055015,501.0464398817138 698.6780379837637,495.96775337388704 704.8665327699586,492.4763065232969 709.9817309389856,487.41427667428616 713.373624061331,477.39150437532135 715.0909008376515,470.7076502312167 713.4175102489459,467.6928614838955 704.4004208679456,461.9635756821218 690.3477448906405,457.22256081995806 671.6054396363713,450.13681448457146 665.5808351708047,444.75758973189465 662.2768410288311,434.7063621658956 662.3219868607139,425.3352951676245 661.0023382671048,422.32167211765136 650.3088664975741,415.5911380445872 636.8710973449678,415.5555430584517 626.1321771599719,417.8640612699746 612.0463969777531,417.8131493196237 601.3079193188715,417.114353603371 589.2661453531784,412.0493386331548 582.2467977192216,406.3357522852432 574.247745590253,397.60062175304233 570.6177973720451,386.21903526836286 574.0141403627914,376.5205299337849 582.425426131123,368.1897670752752 589.1712259530402,362.86741051502224 600.9543820492772,354.54324279721027 608.387696069442,342.5275663288103 615.4787657322662,332.5137506407582 619.566441735775,320.81696041437795 621.6172968403947,311.4530000997362 614.2874703248372,302.0631982756397 607.9517904378232,295.682589296787 597.6039736147098,284.93666535539023 594.5679295807862,284.2465575533902 587.2094104994773,279.53751509179983 574.155007187082,275.79834891090604 568.4573678723019,275.7780408416122 564.4483696763441,272.4243564192079 562.1343785584801,266.0549206138903 557.5184564182462,249.9751363168191 555.8977848679817,240.59471447995986 550.5933533994347,228.19258159625565 549.3017438805716,219.4896145424675 553.4042994152046,202.78585032085925 554.4503688313431,194.4248026370036 562.9492056428313,170.0362835483494 567.3713045724967,157.6796955261267 574.440307474896,149.6800601277979 584.9438703612337,128.98293376390825 588.2183617938599,122.33159938420465 596.001018025856,113.48876930140125 601.4499936023968,105.14319033143056 605.0764788953056,98.25018133548508 607.3465421124962,78.20935643028736 607.4185373981645,72.48186592049365 607.1553019436649,70.71539259023109 604.9410633970181,67.5494208330897 603.1802974679965,67.20238479906061 600.3459860597044,68.35123646249883 593.3682009017459,72.15362690199106 591.6055731173285,72.15453731611183 589.3977674709598,70.57146597112728 587.5396929793832,66.87557519907352 586.3934888374134,63.34800739188165 584.89019097847,63.08370810310987 579.0147341360477,63.9713693795984 577.2497764346479,63.187138771749915 575.2272947303459,60.623281037915035 572.7529000336576,53.84222932477792 570.539931967354,51.81905545829056 568.7798701336598,51.38137754302727 566.3927855973576,49.78538134689484 565.8638244814871,47.85427571208231 566.3942358117571,44.150679891990535 566.2193288138137,42.02779471079646 564.9848234227743,40.26470995764885 562.1603489874739,38.42160313958311 549.4166996326994,36.33175677987401 548.845915054913,35.55235629761296 546.3444274459209,35.11035219246014 540.8229238521144,35.94770615939069 535.3570621623788,33.21123647619447 530.8452640002704,33.40001035765022 527.590030081404,32.769992622905306 519.9762624791457,28.164008531517993 517.4414030792652,24.792600998326066 516.8754568071811,23.196083914876226 516.7504058640068,19.858782321361673 517.5423950939269,17.281120770635766 520.094148992172,12.549278789989444 518.9007447516619,11.11376758036647 514.910782019479,10.754572038089805 508.1470884656091,15.073294558906696 506.19807104009726,17.460744912110158 501.7995124354302,21.89480345361244 495.8532944039325,23.72882569019339 490.6480948687217,20.902153397179518 488.33041064370184,18.703974794546752 483.8841717250459,15.217426843926319 481.2110026846777,15.937133988259802 478.8553290489823,17.729135537337356 477.57994333143995,19.46780222577513 472.7080574906762,22.22494682651677 469.709802845967,22.01336317358175 465.7594762980755,18.53950586742235 462.52036725152146,17.7234018027184 459.18556769384315,18.530551441899206 449.47420152896893,13.827208081657773 439.34806339274246,7.652697354835368 428.130922101354,1.4591506185527123 421.615568982917,0.0 419.8066075441244,1.8062942985920927 417.27916950243997,6.8820930143537 416.50508637142076,16.69640289037784 415.18431374091426,19.66793822453326 411.9275817467571,20.627615437587792 407.3580094044415,19.720541422703718 402.39090862300134,20.4245349570474 398.8231115819755,22.676753903749045 395.92857011744803,27.547484051644346 392.926997718518,27.845776160921332 390.31867461789307,27.429983486546575 386.3530498703372,27.56758852619089 384.0898542029356,28.370041604769654 382.149011449491,30.429990074930288 381.7485468096587,35.520516199590475 383.44149650503346,37.46122228852016 391.0407630073391,40.36764557250706 403.70931268298585,46.19549224400134 410.57830089837165,52.00632788244468 411.6680015962726,54.91291148418429 385.61180549262565,67.91587956659146 379.7405926147436,66.70408848603552 374.3895628545788,63.18851059714041 369.6832482554566,61.003777533557354 367.89095727824434,62.30866721091934 366.18174805504054,66.06524675323419 365.73366192318963,70.88016230382482 367.14258402938486,74.42267321336374 372.93771806204853,78.41177648431369 388.5044313648612,82.42292311112374 397.1934363313899,87.51187358749758 400.81055783635713,94.77324734040155 401.1141749214151,96.73695983068637 399.1817200066639,103.01346260796538 395.6881078154254,103.53300236769928 391.9683652694483,101.1498541410457 388.9709081571879,100.61070933421672 386.78057082852047,102.076359353307 381.4738266517453,107.0769943463639 374.1550324925419,112.48240766231083 372.0547721719948,113.2756037150508 367.5646341491522,113.22593000200618 365.82448855147726,111.93872794610297 354.64407721040965,110.12914708123321 354.19985570911734,109.90046552696003 349.2697206826036,102.42402050985208 342.30499807331705,90.33880491804689 328.6637466505127,72.86895565676446 313.67562131406606,57.07525915490794 304.9660588602509,54.36172734346519 291.89389651381487,56.312964201451905 283.1600328747117,57.29318830602256 272.3994993760671,61.93326854857901 260.99782991916715,62.577437460220494 250.26260386136613,59.539375919320605 243.91878189072656,54.164316697880736 241.61511621672395,43.46006045552019 232.63418094470674,29.990703495113394 224.575147993016,30.289839269417712 219.84389389290578,36.83820441075932 216.205517765249,46.274001621419075 215.11135862386354,52.0743127427927 215.11201067672206,57.87399459936239 218.02191125683555,63.30632700843921 220.94254236608185,70.17767235617623 220.9406978717554,76.34580463343934 224.86563179350495,79.77409489610784 227.99374695071472,83.13527874722445 228.9532898113776,86.64510890388146 227.92843866346175,88.97668040096835 226.08589554239282,94.95651522868275 226.69108320265147,100.80137536232041 228.07478358577765,103.47684622021325 227.41247472148308,108.30307771918228 223.75210998080428,112.87135147704441 218.5951129069549,117.3163724572488 214.40014205766087,118.10245166278025 209.46703494938447,117.46289600665023 205.62271282385578,117.51585683856013 202.73751936681478,119.32220459592588 201.19973889530272,121.89594812092139 201.4829036801837,126.30970713377849 202.51678029535253,129.57554716016182 205.7601567717161,137.7806982886865 208.74875459981428,146.31012704025 208.88219737288722,148.6501970009674 204.71763407704378,153.95133824964216 202.74427776268172,155.11199686973316 192.82853184836904,167.90855391522302 188.47741280240257,175.89511930601338 188.47373745267234,180.24700981185345 191.38348574345233,186.7661895558914 194.28315085239353,191.8360540576126 197.92499521873134,199.79083188668892 197.20279259713476,204.87429932312943 195.74481684251106,209.23713601321026 192.11272637984217,211.42664237803808 188.71373375509648,212.3507110143015 186.67686508314455,215.16673306975486 186.74741565861288,218.0991196779006 191.383177529775,219.40110474914297 197.9265800583571,220.83083042948022 201.56706242134064,225.1690947875145 204.47685276425872,230.96558163256725 205.2025278420046,238.94067683767378 203.74203673892197,242.5680421002536 198.64921409547773,245.48380200184238 198.65547278941594,247.66124496963596 204.4731163911495,249.82077192929796 208.11850667605088,252.7082730780619 208.11819182404398,255.61097190233284 204.99131889189712,262.5787428508097 202.8062772627982,265.7011608575583 201.80624063534492,272.3569757067113 200.0734728043859,276.7702267283204 197.32821974610104,281.65654021680643 190.79447932165178,289.2336500327518 185.59950278393478,292.148320543384 182.20824967652933,296.7542895025583 180.68014511852664,297.6428458241104 179.14306213861786,297.08943434627906 176.96597196866335,290.6529197108747 173.05032896894397,287.21803358294005 171.50789578895137,286.3382639491168 167.62778096695578,285.9096472628007 165.45615655370344,287.32477126247045 164.15651319277734,289.50244019046545 164.0595797348831,294.73475205991076 163.64272489471716,298.3406663974407 160.64456226429508,301.3238474843819 157.3843138957798,302.7290807465723 151.60689200231866,302.5724698311874 143.91073489497794,296.1030502333483 137.59819400500876,293.446894706914 133.07474815436947,293.31982632262486 130.96714111503033,294.796215326346 127.203604211184,300.5838459560107 126.42596288001657,303.3275541420968 126.47318391642895,305.57671348264114 127.58385030804368,310.8505651651325 129.84923470007644,315.970327204607 131.52370321241008,322.15884647535904 131.29313739203377,326.74782004366136 129.87814191112676,332.57571421328817 125.55289795154128,337.43989893668436 124.0103352945775,340.08583150575873 123.80257921125545,343.60156167447326 121.2613733684462,346.06630251163494 118.13859687240983,348.2001737335771 116.67990353000842,350.26412395479883 115.71652701563791,354.5108516202197 113.78237578574905,361.2448230224169 112.49901663393112,363.22856805281174 108.17778268450198,368.10405269413377 106.55525309915214,370.91379487462734 105.06433327526027,376.32290829158705 103.19665642795307,378.1286231986619 100.17255290458272,379.5871915028057 97.08813568209423,379.4707847061554 94.5647249734283,380.4322398724479 90.26983834448167,383.89475606602525 88.24778006885671,384.2775657550226 81.61834071054925,381.35045990505546 78.45126544012848,380.6402770440043 75.03375227393697,380.75528138120524 68.91969541578466,381.7585417001592 66.32378752001442,382.81222806929907 62.67236543753352,388.509234029121 58.588739724794635,394.21427542684853 53.32231562771348,400.80959486161044 51.72340068115258,402.38252156104966 47.28218052911879,404.14604447034674 45.479702098525834,403.25140539626057 41.171593056703315,405.56789061137385 35.73476029014464,407.3738373043959 33.20467694753892,405.55250388365926 29.951995467836603,400.4727400595717 24.882401114099263,397.2070061717633 21.616031367792285,396.4745913805216 20.17203901347653,397.5562555975581 18.36075685265637,401.182221181067 15.46869932965525,405.53602609132815 11.486943001678329,409.155223659037 7.5076170945868865,411.6892681542794 4.976521712459968,414.2151655680111 4.968597760564019,418.5729417243152 6.425906725369458,424.3749101413521 6.4180192189256084,428.73413731678716 7.843237104861472,435.8364596955962 6.575299297580396,439.0795044797145 6.602002395684477,443.5817555869031 7.549702816908161,446.6892187859478 7.673862664608304,449.86251419849896 6.700192883563361,454.1829480234745 7.336695882813438,457.2673740936806 7.128480067948144,459.7824254457705 4.359189752009902,461.4076580875775 1.6910998587689807,462.19331486139333 2.3271979767452775,464.5407703552014 4.191540240797628,467.56573844693605 8.964819080891072,471.90434216361393 11.426934469688808,475.8955678822347 10.850412139794823,477.61080411185424 6.877566022025874,479.0496651092924 1.4411755097901242,480.49783814975285 0.0,483.02423141198915 0.3565843758777143,488.47163069560315 2.167890990989781,493.55271384331127 3.617765227529784,496.09349998035555 6.153260654770475,496.4631198555711 9.404080127835867,495.0166938688352 11.575503751262687,495.0146650861634 13.027352339738373,498.28071350370203 14.830026410808719,500.8243759654257 19.89649825767896,502.27980309099064 24.961138707788166,500.4798365952348 31.1245102851679,497.5834313515844 33.29155843283223,497.9495893992431 35.46195194828726,501.58116638763056 35.461587170742504,505.9301972865551 36.553374490666094,509.19448988340935 39.44321857122155,512.1051998334235 43.07482275272159,513.5058070331959 44.436421289914556,519.7609467056209 46.225120751239544,524.2397875341048 47.419295275083584,531.690724062681 46.22354390144771,534.0767548396933 44.14069757630764,536.4641946141727 38.565274528122096,540.6054183089634 36.138957428162136,540.7396799748155 30.644088610448943,539.6293027880272 28.221962040035123,541.9627651478943 27.98701716334961,549.3014227769273 28.22110932104657,552.3954640418342 29.44034654150507,555.8254228047672 31.825948658985915,559.6539552047461 39.69344819059241,566.4248054235491 41.07933097381998,568.0238130891162 41.069351133294404,569.2311390881657 37.45594019106874,574.3003173890422 36.00103008389386,585.1826098359295 38.181193621511525,589.5423845061437 41.06993274970295,590.9892330293368 44.93708732713659,591.2061056057098 48.606884083768136,590.7454760565955 57.24533236697236,590.743438754243 64.99642885264431,592.5383197332094 73.33459251170956,596.7116129245683 80.19438574258405,602.6756985907216 83.46686838505838,609.4292868003627 87.44173077620309,612.4832326039771 87.85858388305319,614.4323697549893 84.14359634864556,616.0207423825707 82.55342860885773,618.957286770957 83.89106445066055,624.0276872422874 80.5888369961845,626.2237253044711 80.44575368372394,631.4861538580319 87.7219930641471,631.5240477431927 89.83558119584062,630.8243555318087 90.01386923525456,637.4117850379824 91.12563684800506,640.0728181851482 92.85809766305533,641.9304619503522 99.34979701207429,646.2639202190473 100.17110192299533,650.1110333388895 97.8819753631316,653.8519478646749 92.27631266203439,654.350669588328 88.76243556323507,661.2363609052063 86.14480992215198,663.5311923333702 81.75545046821354,660.8948700303879 78.11661226665859,657.3410857683269 73.66805119832125,659.2831224572737 70.25184522378765,659.3982822602889 68.23916831473173,660.0374066145205 66.36743236822663,662.1122459534563 65.76281641685664,664.514844818237 64.1618534344141,666.0791901872724 62.00342099554866,665.0479829239525 58.90731537944972,665.7597617962111 58.20019833845904,669.3295727755795 55.8078496880168,673.2235371362477 53.124098601366384,674.6041817140718 50.35479191497514,675.084004128172 48.85625935918534,682.5811635283401 45.9681203429011,686.2044174070905 40.16628332902579,684.7541394439384 35.81770868511439,683.2938412465112 34.63266962703576,683.2942371976746 28.2609491280918,688.0054709606582 26.559654265909842,690.3988471204583 28.160707278547797,695.7602434211162 28.27906224549135,698.9275505464154 27.779168070583246,705.2662404304932 28.880609287332685,710.879800749617 30.747142994195105,714.8306001337628 32.30062141354679,716.5242049553349 36.01038499623695,719.4138733455079 36.27577734771917,721.3516790823285 35.19207603310173,723.9978304291171 37.322216446935904,726.7608063839843 51.46251814760767,729.5115509884898 60.20663116112369,731.7033197070009 72.79210443881533,746.4698257794782 83.71352694391882,757.412068031178 93.02346389165974,772.1741011170532 94.11833945285814,777.0923535599296 93.02193270959164,778.7337879843369 89.18634690921796,780.3840599706095 83.71970225134646,780.9347651200882 78.25368094596064,778.7486959539319 70.60362415469268,773.2752161441732 66.76659762865309,771.6349378474213 64.58299232707516,772.7343797072035 60.760158793126486,776.5586040796619 57.47936582778919,776.5625737874054 54.198725006343544,774.9163493738004 52.01147138564214,769.4456510810446 51.46614463465277,764.521374356888 50.681580416100715,763.2129207568195 46.7290978898478,760.8022560515051 43.40309806845728,759.3913865032011 42.31092472846905,757.722084529862 41.77096729751099,754.930028597013 38.4305109855489,753.5189409465972 35.09071017657416,754.608502708568 32.30391425422714,756.245829266169 27.558850871155425,757.8872769437614 24.203059599539063,760.0834080369345 22.80067937678707,762.8491871195367 21.950858377323183,765.8977363324409 21.64169787560503,769.2260502126354 21.31328002993162,778.3770609457092 23.922348022651317,784.2827755292897 25.977493729406255,786.5544018227941 29.342720361901833,788.4071975974871 34.597015616597254,788.2248505411662 37.37751090449187,789.3444511210303 39.87051938268656,791.0354803339933 41.94812344171208,798.3725660760783 47.67071198090096,807.2162445704204 50.709604732328785,811.2185435195761 54.820980207248084,810.4014530469678 56.99609685468715,811.2288906738978 61.91359043500264,816.9691681487024 67.92524615593368,823.2613520461305 69.52997708970696,826.0123319140218 69.68635391750145,829.026917541656 70.51538673684118,830.9720725804007 71.62373855654074,831.5446085265272 76.3637022179498,829.8902507093926 83.62443004790435,830.2161951327525 88.3421233016243,833.0208805775749 94.72266087449647,835.8400364777399 98.8656833974301,835.5960027633996 102.35126814165179,836.197249820728 107.01261293297665,838.1111214021305 114.59294542487864,837.1756074956626 120.78108068086073,837.9824896985112 122.82109324340998,839.5260598306076 123.47365047672155,842.0433958747433 124.98067442359242,842.443910936049 126.9231999332082,840.7986278511181 129.00712175485575,842.3424630379504 131.51809556151667,841.9001255243357 132.85669310199106,838.9874398549971 136.01043996589618,840.4476621215443 137.58457982900356,840.5835230118618 140.1412113180868,842.6740805977558 141.86061161406283,842.7483892299831 141.97852515458345,845.3955496365527 143.61489810590973,846.7814126180016 145.93565346383454,846.7277348664836 147.02002638848688,847.7001165569615 148.0671169864712,846.764340806517 150.92973726057568,846.7147175695616 151.36439231317243,843.6931004322266 152.11784749819205,842.4157373645994 153.88722509863922,845.5370687105055 156.66062549631698,845.6905739348767 162.2108759862893,842.8924744248135 163.80192190147366,843.7870074197012 166.2719874062911,842.9433774368359 167.0162981241562,843.9334735894533 166.20153811578788,848.4392308489762 168.10658052306988,853.7037600010639 170.25811403412268,855.8621941260114 172.98072011244594,865.8718186363366 175.77788601359222,866.9791191751323 180.24559843292175,866.7254166505727 182.75112222481536,868.1188045370312 187.4752119550426,871.4655126191071 192.49735600727948,872.5991436510537 196.9792915089925,871.5048037562551 201.74580831186063,868.1754545867055 209.9114168388938,860.4316834463268 213.26675528558724,858.2102889447837 218.57428769485298,859.8884939622626 223.98406473846592,863.4343256514034 227.00265137470873,867.7842645764101 232.4884754353066,874.8795050060005 239.0706445028427,881.4172695408104 243.73037467815465,885.7887176007325 246.19502684523843,889.8780623405157 247.8490098601792,895.3451925997534 248.35652023443907,901.1959961611351 249.8245802055618,902.139835685354 250.01502017588132,903.9659746366694 249.2380922043159,905.4372491771891 246.6998924121602,906.4665026359511 246.57058650963745,908.4141828088569 249.98107678845912,908.7978889956556 252.4353552179223,906.0961177267445 255.17360447757713,904.3822472400351 256.7133447914404,904.3930137468035 257.6924160282041,905.92755653945 257.33819826461826,907.9464864412427 255.47922571398345,912.3534942526971 257.20151002583015,916.2947401611677 259.88890391459194,918.6523685182003 261.1944985841244,922.1595881378597 261.983675542575,922.9340257060956 264.56501482452325,922.9825435904735 269.60307092431447,925.3461231066503 272.7313405785809,925.664812269209 275.97146703750934,925.3696432247405 276.5271869339376,926.6768830648363 278.85470866520546,928.8671723143959 280.5163902365099,933.2184341468692 281.9770120913605,938.4187975309338 283.9708918994898,939.8785627084167 286.10271930877104,937.8717254263516 287.2090610493261,934.6374768647735 289.8100570707059,933.9677920739041 292.3282702763429,934.7247103547134 297.42988116432997,935.056342915805 303.0346216815087,934.86839517452 304.85566321288735,936.1621989140622 307.00344485777276,939.2654703876914 308.90787779596553,948.5622752562108 307.5453855628993,952.3905603792235 308.6363713693574,954.5823440440289 311.1021907674607,955.676501575063 311.9903469727748,957.0062233475796 314.0462023214623,956.6092459407529 316.38224938819474,953.4441919961935 319.30635510318626,948.5601877420235 319.58617591444005,946.6426167788611 318.49688137882845,944.1844055312422 318.4955751835838,941.1785549287731 320.6781041517546,940.084773471256 323.6817237511271,939.8075655468012 325.86798931994315,940.3550171605012 327.5111151016635,942.2634320139464 329.9694041714714,942.2694190134848 331.3413980600138,940.3502742208306 334.07652452938805,940.0813248793946 340.36438084780906,941.7214530110725 342.5462933617187,940.9055644410382 344.1834199255488,939.2647516536739 346.64080775459365,938.1724497149314 349.4619234373767,940.2120790611567 352.79161492991415,941.9054285016432 360.8624264318696,942.7990473806198 363.08943686433247,942.8132974610376 373.07730322281043,944.8355973454313 377.80670164703605,948.1902407120724 381.96935982184414,948.5033514822233 384.38281441619574,947.6156042881559 390.02241170184914,947.6203178043703 396.0237210513117,945.441202778627 399.8492462101069,940.5309928374148 405.8514005146795,932.3297917056526 410.73465064394645,928.1846060929641 412.31500999690644,927.4457557925194 414.5696535396225,925.2954973696835 415.69481391046236,923.374238683014 417.84558944776535,921.683496048316 424.28275199326583,915.127068364403 427.678512578821,912.0704719486885 429.6047642919414,909.0166073161905 433.21280088820293,904.2063623478751 435.9920241846974,902.4390964138652 443.0851350034865,899.7218334599709 447.448712018596,901.3686318842294 449.63324002279467,909.5863000515676 452.36811703165716,917.7882475756294 459.45783230374076,929.2981839566697 460.76096253236307,930.2596831393204 468.8153931208642,931.4250903830743 472.7011793125979,934.5247414360774 474.5995991944419,941.480698104959 475.9740161320631,943.7036264786645 482.63225363414074,946.543785451936 484.2882554760735,949.0449505204663 485.3779059410714,951.8326598258429 486.1114441390452,969.0514090245933 488.591592984458,971.5688741569688 493.88166741746744,973.5590558727288 496.918885428663,976.0693615610597 499.4244168354262,975.5403091627257 503.61790029151626,971.6742098335673 509.76180298900624,969.7703000293685 514.216534516937,969.5285993796366 520.0618986587492,970.3910366521543 524.5075966610823,973.4838636913364 525.5919432872554,977.3780266992574 525.5721187672518,980.9894341133166 524.4411029590678,982.9229558644743 518.2967210450794,985.105512288961 516.6169044900466,986.7592640643232 512.966076436495,991.7456270342714 509.6078014061371,994.7646903612889 506.235127984785,998.9122143286949 502.6001452861336,1005.008137889625 501.74262194998937,1006.931410689272 500.8804692501174,1011.0943794636495 501.7082769726833,1013.0475032418136 511.395283118511,1020.6144576863226 516.119062245127,1023.1454177263103 520.2951973981677,1024.0 525.8665470008997,1023.7626670254498 532.0005764651626,1021.0147431020483 537.0395973437577,1017.4306242714489 542.073723887447,1014.9632861726673 544.0293808515692,1014.4204474369338 552.9319208246354,1015.8632229753396 556.0131496522865,1015.8796273876246 562.6996492146806,1015.3514804804612 566.0522934448235,1014.8143192178061 570.5131958695919,1015.1042225332822 579.1697214329314,1014.0411420750587 586.7100157757197,1011.8535199544285 592.3082734921571,1009.1110309553036 595.4116128720719,1006.0687880214618 599.3420498680092,1001.3691319730365 606.6176538564498,996.9513193372427 609.1380912925229,995.0257565808425 612.8019534517977,991.1545345271774 614.9436900450719,988.1173475219874 628.1967523968937,981.4727521863193 633.7633208727468,975.9183391812572 634.3511590732728,982.8980163728909 634.9039001992131,983.7424189622225 636.8630202824711,982.3569124964291 637.9996066987529,979.0276840234751 640.8119268870778,976.2614148912431 643.3236821273191,975.7187675471818 645.8248123224038,975.9973475241957 649.4754596018666,974.6300593857669 651.7133949679977,972.4244247477197 653.1353696976327,969.927982070951 655.3970949046942,964.3891119875867 656.2568453374213,961.335136867658 656.0347994762975,951.8962566962701 657.1734963897611,948.0135562122726 658.8768521137857,944.1335369933445 659.1532077177263,942.4630999158334 658.9218814093394,936.3487423252964 657.1837366851635,932.2164108046732 662.8680774356038,927.3810847607907 665.6872269650954,922.9223400395817 667.8371811042931,922.2961134006009 667.7937044304847,920.8090963697922 673.2727904623906,913.1415748622802 676.0066069384254,911.4928023572556 678.2064828753354,910.949694731203 683.9717159722594,914.7815828973238 690.2505956036977,915.3027215159808 691.3460424996157,913.1132126051205 691.3455963464139,911.4720421649591 689.7037485181028,907.0958217716961 690.6799950334987,905.3979738249782 692.6114751734875,905.1286889356683 696.5283151978513,902.0914166925927 703.4995465030813,901.2915512557994 712.4196336463006,901.3520326391844 717.1607749583313,901.6498467021972" /><circle cx="328.8376005886431" cy="592.575926347601" fill="rgb(100%,100%,100%)" r="16" stroke="grey" stroke-width="8" /></svg>