<?xml version="1.0" encoding="utf-8" ?>
<svg baseProfile="full" height="1024" version="1.1" width="1024" xmlns="http://www.w3.org/2000/svg" xmlns:ev="http://www.w3.org/2001/xml-events" xmlns:xlink="http://www.w3.org/1999/xlink"><defs /><polygon fill="black" points="175.3102141250564,180.05929745909157 169.1207891114324,181.1311668395731 159.3424938677735,182.3441493258399 152.30665274820228,184.48514450152197 148.7136861443329,186.28713614711558 144.73610811660853,188.88723936952044 139.7814999498935,195.7430382912271 133.3642617265601,200.88210051561134 131.8895579094901,201.61429051302525 129.0896846153545,201.4879728040586 127.89071140181451,199.5603999765417 126.39845471698752,195.84290194557468 121.37520206736485,187.41647192440837 119.56136474991196,185.49159084012285 112.27858918275227,182.64140798379992 109.98027562260114,182.7195519209447 105.97607708060929,184.12873767677445 103.59264739833064,185.60162942286627 100.16465532457967,189.3946093772944 98.73319939591406,190.39848806863336 96.98899322224997,190.468423695051 89.17545842114828,178.92444301945602 87.36451400538664,177.59449076845544 85.3723459285907,177.0758903897813 80.66414633870971,176.81831125655083 76.01932289983603,177.16405697391235 67.89582982117433,181.58018407035377 58.430181453373336,189.45087856555745 50.980805679031924,195.89005150889295 47.277878620640074,198.47034193450145 42.15627860819697,200.1381229599658 35.5003528272405,202.91739986361404 30.379357303572053,204.7776451196495 28.406844267313144,206.24809503374195 22.771348142015132,212.78669575866036 18.504344289387284,222.98429907539673 12.860235428813478,232.81602344106636 12.738379036869802,238.0427740932298 12.161433151685582,248.22834776072546 14.664382242578045,268.20512964675004 16.240051020232205,282.5965452849188 17.074532538225967,283.59651432502807 34.4081338190176,289.58324073238083 48.78768231321016,290.44252797322196 55.07360384916499,292.07163525113884 59.85370355679468,294.4352633454275 60.10038123939986,301.95619114038 56.84309103377068,318.1020214312856 55.65343492402024,325.7196152230531 55.0929163267238,331.5972249694088 58.156378785206506,347.44176106274125 62.55381114026621,350.9122704360758 73.29774018433542,350.5099189363946 86.14102209191624,349.09477863774526 87.72287483988089,349.08798944592183 91.21620403084137,350.08476574835424 93.99596052817466,352.19274524777353 98.0574991366941,361.1623844783929 100.64166459628572,367.7576616684508 103.76046253314973,371.8763291855589 105.03797583480244,372.8825595790127 112.98802476402372,376.61434592451445 109.4208895967022,384.51473814533665 103.01759443420667,392.0533330545748 96.31946444650129,395.9199160752486 91.0477967999395,401.7130801781386 85.18096838592615,407.41797580383155 83.22151915822691,410.07915120962946 80.31175666971254,416.598845947084 84.77989969641843,421.9958889748783 86.84777916486847,427.6809004282581 87.62435086766845,434.09131803262295 87.41410906688883,435.28540917236234 85.76149270573104,437.48897979540385 81.69381763687691,442.08639250844857 81.8663258253884,449.05206174105325 82.40992829023246,453.5532472771151 84.5598531344906,457.0244309125734 86.60175332606325,458.7643772403127 90.37844483855994,461.03817984081894 93.40950720059574,461.40490556672415 96.9564046781598,462.48924107060225 99.92740212779172,463.0346963983553 107.35126674006675,469.98009841663486 108.96309864701044,472.35658864800774 111.43326398065368,485.1845748417639 111.76806184210615,493.71396827449786 112.27444745479458,527.4582107725885 111.46398005075125,532.2203331150241 111.47447021239543,534.6123235419306 112.42514386735155,542.5834947066186 113.21080072169948,550.8302979027733 111.81690271494352,556.6209425369323 108.22200778532527,565.7938562638559 106.5711151091571,569.1000269627273 95.47801267990155,576.6501768620898 94.06563544953043,577.7474176776573 92.85365754627432,580.2381919945685 92.86035417322135,581.7941145611702 93.92589674001457,585.5447818671757 98.14015672878351,595.89392644452 102.8072645834477,610.6396323313272 103.58776273749741,615.0405124561389 103.15596192673048,619.7215729124185 100.75254783191852,622.4811300873677 88.83204349689822,629.4846688741314 72.67137292609976,637.3302416115516 62.68067995992795,639.4609066688256 60.26598307744875,639.1082006801623 56.47770899492892,637.4744701858859 50.24454954524137,630.9788792036095 47.96639173152548,629.6193661499648 44.54139752274664,628.5337757774266 42.81547994585773,628.7165568020223 39.33769009928665,632.4888217652689 39.600058042496585,634.2052406050504 39.422923658829745,638.4571696153308 35.496156708531196,650.5777323596099 33.322125119097116,654.7073745886361 31.674380420872527,656.3096560129741 32.619955909889356,668.7986904342883 20.978762861216573,672.3059548042216 19.78093009348005,673.373535196111 19.122819029565502,678.1630030256399 9.288326208381372,686.582514841776 8.844448577965444,688.7126932560087 8.238321061891714,702.0071224924422 11.863516615092202,732.1676970829662 0.008762060930124507,734.0819449363987 0.0,737.2420183629072 0.6300585896504391,756.3358198512678 13.901996941618778,763.9555762727423 22.319607832976185,765.6424002989035 47.33216616624679,762.8062173542526 65.3515338862154,762.1959793039364 73.88806297688838,762.5399365154718 84.8895800376988,765.3756296644568 96.44410406438668,767.0067633032907 115.29952851290786,764.5469377435247 128.7739882927656,763.5039791727987 139.4441646545934,765.47137384497 151.1536662775662,769.6470325390364 163.25178207669916,773.6134412765941 179.02427141166746,777.664182921189 186.64456488920365,777.9233239951927 228.2427419049257,771.2230805127415 268.69421246579316,763.4896339774417 273.2245155270206,762.8177512579479 282.72980778464284,761.80872355549 294.0108190341868,760.1298259625669 307.8279099977608,759.7720992947677 325.84545917038673,760.692313738495 342.080408650678,760.9546667485052 343.1992959708018,760.6482594401268 349.3424905718975,757.4211914283245 361.3484270118246,749.4858154561039 370.25818474254964,746.8893492616128 374.89871311367756,745.903147295435 387.17572027177573,743.9989190320973 418.8713689618115,738.5354806349092 433.0622252408459,741.0421676055792 462.16108331416376,752.2727027402408 465.3325485297083,753.0448537989279 471.9792760612105,754.020398630479 478.78207089163556,753.6315828047951 495.39905312382496,752.3308396662968 494.76529022151243,751.0167335578393 488.80290867020983,747.665517186997 485.7360283489964,742.0210620117057 485.2550546274137,735.6469665321307 486.70154986312565,728.2183995522164 488.441900065662,716.6331159160633 489.4347254122188,709.0201698199703 487.87683538320505,700.8867845742823 480.4354515324782,680.3036868938142 477.82227024310527,668.0045325189658 475.9090084529746,646.8386072221508 476.1647226899279,637.793102857014 476.05645684324946,619.5158568998771 475.5335157597943,616.2681015503026 469.921280355894,591.4366312925772 468.2614526606762,588.8304290940624 465.32187066525074,585.2936168730239 480.3107776547389,578.0882387817467 482.68952323764495,577.5015700181684 500.2074228731495,575.778246404894 501.4237992620094,563.0820351394714 501.39646253628194,558.5530890453994 501.06343860017427,554.2130465366644 504.5364454056079,540.9759994794772 502.39695727175774,524.8876062324362 504.0188473192574,521.6184188687791 510.71357108705394,519.5825104714488 526.8626584052753,518.3926058266065 526.5818275136934,495.94705766899693 528.7670704169086,463.7137811581617 474.535334794221,460.07931864310405 472.12333808392395,456.82855607547043 469.9127173204899,436.93953523241714 473.7444424313652,428.9554355760487 476.5756648919214,426.7647594518487 480.4535400176696,426.20034545054983 510.4717009015928,427.45656298788884 564.1732245754354,431.23336283997384 568.7872280922368,430.11299551140837 574.3026166950202,427.1757072471178 594.8110460637388,404.197309077016 616.0727346858946,383.5645558830579 619.6369588408032,381.0045361085043 625.4689695095035,379.50375372708635 644.3070932441684,376.6241565805946 678.2727940037919,378.1301779591543 685.0077107021103,376.6132658005653 698.0782639643901,362.1961587967735 711.7409767149633,370.9362409371667 718.9215365218353,371.9633089215066 726.2475088488852,371.35373624512636 743.888873308311,367.93315733032904 749.2664445747578,369.15629292792477 763.8248700094451,376.81282367781114 797.3822958546718,387.93286167225335 808.9106848698419,390.91227138038937 816.081430447564,390.1423314323255 850.9967465013012,387.32811774607785 855.6549295309734,391.0910117668079 856.7479054366994,398.5087617681953 866.9706904862553,407.8498457711091 882.4229718363089,418.59316417325454 883.3142499459342,422.4807386173295 885.0221746290754,436.0782166989972 888.5962478651938,445.7159159804724 890.2958974902697,449.0530507790717 891.830133696014,454.92252626450914 895.1422811446308,471.51197926485617 898.5665456540747,482.85696493283024 899.7310487547127,488.7065688957269 897.3863009667165,512.2696150747113 895.4633088322197,535.9257113050271 913.5008375745178,539.6492045118013 935.4684010400961,546.8408337768573 950.5438600167827,550.1880300764884 949.5912350388264,559.4242497015447 964.0568781401112,562.2510869232478 981.9581060594916,500.255695888107 994.6631374599212,461.20550135061626 1001.5874409141697,457.8583396000378 1006.7035037117852,456.73377009333285 1009.7089708824993,453.7755500529182 1014.380504942871,435.05004513537136 1023.3506081694491,387.3128367796575 1022.4074331287587,383.6444085551761 1017.8448329607645,378.1663124443915 1008.1258942878645,372.35917840506534 1007.5067857214009,370.49921941343956 1008.6656860728331,365.4076279826631 1008.6127859137255,356.3946561473642 1010.5607517866973,353.6406254549807 1011.2782737136104,351.24532491755167 1011.2526506441908,348.12768774134554 1007.7518052078577,343.02048976859265 1006.0065806146479,335.3847370022556 1004.0091298304326,328.36893770339344 1004.425790150374,325.2420062995364 1007.514008009201,314.04060403803527 1018.6566984884544,293.61478854548136 1019.616191757568,283.15919324407383 1022.6821671497444,277.9128383927058 1022.5812903756729,275.61779074734716 1021.0620857395309,272.9716686099712 1019.577862492696,267.47665287531845 1019.5513516162281,264.2683044323463 1020.0526070342033,261.5119359838026 1024.0,246.35477292160874 1019.5066913939805,238.76734300379883 1003.9195386596322,234.644030635543 983.0661671306464,228.898670529907 966.717852219824,223.03026119432968 946.6772176292653,214.81774501296115 943.1095479095735,212.36316844024145 930.8373948479193,197.85746625703496 921.1377586642177,190.31210500544455 913.9926013319867,184.5717434627768 911.398104861273,181.75478487849944 908.3042166592962,171.86985189879226 908.1343884353303,168.3848565133909 909.1388529718911,161.95425286798945 913.9066025419788,153.85309954994057 914.4734315105891,148.8969465867351 913.2184488861384,144.49925709170952 909.8730978095857,141.58895460439805 904.6024276671933,140.34039913640538 896.1498603372646,140.03475965271866 893.4216300967819,138.57916416048022 892.1827674570771,136.2078470008098 892.1444698223695,131.25643260679703 893.1571988496843,125.55993808369362 894.1960274410076,123.54229880652042 897.9568081989786,120.38962224476677 907.5608446767187,114.6432269074138 932.973847251294,102.18752318475435 941.225141512975,97.91863893387381 943.6236198762289,96.43983401839421 946.0202625360097,92.38735568417371 947.9229770571616,87.96747990073311 949.0524419995829,76.5923909002862 949.9098624436075,69.80274200722602 950.0123043039063,64.4845220722782 950.4209161766549,60.62642359346876 954.2315764752436,46.11762691665194 954.9382298534656,39.50771833718716 952.1350716160379,28.88399641444107 951.0693708975654,27.424279537180155 942.7784602220437,26.37933281506207 935.2231251624455,24.95411723337702 926.1403796931387,20.978387341255143 911.1595934134688,13.735101365710989 896.0937609140412,5.950161218988683 880.4191607645682,0.0 868.0573133851117,16.16317547725407 864.6762523013092,18.983732726109338 859.1259080636446,22.356451326994375 835.7629019168459,46.32498885222094 829.9817870653485,49.296233381819206 827.2450139420433,49.31668315017657 824.1751287678879,48.54595116278847 818.0993274744842,42.0777021014859 812.2869747605023,40.52787133995707 802.19449331548,39.808741603222074 789.711159025215,40.0448464236448 776.1155644905299,40.95726802149102 760.7624184473152,41.22962193668366 745.7448032142365,41.35969643007479 743.9229264026995,41.843167752702925 742.0851408295949,51.27487914600101 737.7562511458077,49.58228455829055 738.2978742574865,47.84664060160071 731.807482139223,44.87393604000499 730.4075816103007,45.2154370870835 725.3535376447826,45.39842017861338 720.8612630054939,45.03598935680964 705.5672206094846,40.39234025667679 699.8608574431413,39.510749288261536 695.6959844913904,39.154075408335416 689.6714582093332,40.93307288742267 684.5222127385185,43.23877317485244 681.6673332311847,45.79225834331555 676.9523424622973,60.727571170941246 675.75280556391,78.82464140072284 676.4651554058212,83.87911374410203 679.1210735654223,90.1050760159394 680.1497981390895,93.55029425688099 679.9653712714004,99.40166737208267 677.7053474398431,106.33292772664231 669.9800068681503,117.84479852080221 664.4215877845186,123.87995410122687 659.9032974152318,122.98364668913882 656.2710148783792,121.02974849454586 650.3073673509278,113.76570350504119 644.7887747279779,109.02677432715802 639.498472110096,105.88760325627584 634.9707313162403,105.26014962768716 630.2557395114349,105.29991967827732 627.2942916829679,105.72765507449242 623.5929208262365,108.81317548452171 619.885343186022,114.1689815278487 617.4246731056514,123.2351911719411 617.35321435605,128.02002033170402 617.8095493884489,132.00210058834318 617.7131088284959,134.40625016797878 616.1956368137043,137.6020000466625 610.9557204909861,142.56521265851518 603.8444142195181,146.35289949272249 596.638015799807,151.7395417948851 592.1452727317541,154.83816030108756 568.5415234051972,185.8748862712223 561.2425209322802,196.17000642591472 546.294771603921,210.51205579177577 541.7026203728279,211.0820863943377 520.7347050399427,210.96530754564867 509.0084436050592,210.6431178446295 504.8093079346958,208.54862539209694 488.88152914952457,198.67385686869238 478.5991853215025,187.42661410378219 478.0396025122018,184.57015052664553 477.3305466584705,175.86175722851522 478.2834864003963,161.95951341875343 481.55876307887127,155.9879109323184 481.6401791553677,153.9637334735096 479.0338495384974,143.5235808443872 479.1713221037571,142.26999826852284 481.13392608118767,139.69322080480208 480.8957049944199,139.34602677606574 475.6884914253644,137.71621847092035 461.9985568755994,137.99014434321134 451.7021513531088,139.24108938665893 449.5815797077325,139.6474686946085 439.5502198081032,137.4413240223705 434.8343711050324,134.20071751446608 432.05405120512705,126.83628880503852 429.5851866038016,123.58826141073621 426.60129609222406,120.2071256519406 421.0105528634904,119.63551409141212 407.92408405385953,123.07158240812737 403.01799187097254,120.3727750054934 386.99498179963905,119.22420321442223 375.30559794837217,117.07277070457906 375.7040442128784,142.60177488676823 374.9668193669859,148.38778239517364 374.0092701629121,149.85272911637276 362.2915370075582,159.85699064132655 352.6742719419267,169.7330358100893 346.544590731568,185.56447174862876 339.10205660903034,193.55753765176667 316.6383628606739,193.21520424709126 308.6811835209853,195.62084326370302 303.9770974191949,194.49475894973637 301.68549005543827,193.63376963554015 295.9192749408912,189.2565017887457 295.1516599983496,189.59492717236844 291.65031661190375,196.7157058096583 290.08008849044785,198.7786555656087 286.0564333094598,202.16932995594118 278.33654508985154,200.78898418318533 272.103217968323,207.50677870982815 264.68601283884067,209.11457371127426 249.23303223521935,208.40995056904364 242.44262824146767,206.2868822222208 223.7168024442788,196.20696239230085 214.8215091990348,187.6454741976387 210.72725460015835,187.24864397075453 206.907728694436,188.05497269744774 200.70295409400876,192.77824540677705 197.05925986588298,196.64454622724918 195.71009727417055,197.17531067555683 191.62046583665816,189.4034411229336 186.3488772471515,182.83597039714687 183.16078426961332,181.17314319741956 175.3102141250564,180.05929745909157" /><circle cx="447.99778224686594" cy="221.59033828756674" fill="rgb(100%,100%,100%)" r="16" stroke="grey" stroke-width="8" /></svg>