<?xml version="1.0" encoding="utf-8" ?>
<svg baseProfile="full" height="1024" version="1.1" width="1024" xmlns="http://www.w3.org/2000/svg" xmlns:ev="http://www.w3.org/2001/xml-events" xmlns:xlink="http://www.w3.org/1999/xlink"><defs /><polygon fill="black" points="310.43839698194915,1003.072563063501 314.3276170953001,1004.077870515641 322.1799732569584,1009.3467556717342 327.2150242402077,1014.6592256663097 336.05557600887306,1021.7877712602301 339.9275800983293,1022.8039508597676 349.42877886294843,1024.0 354.8352413925648,1022.9680516115911 361.3018567177595,1020.2251549347052 367.5904143246982,1014.9866212179132 374.2649986475159,1007.1023101693423 378.8556258608612,1002.8280624371209 382.99301573357803,1000.281120299478 389.3447098701386,999.8565270779806 395.57786206836545,999.8759312414364 401.0037283285045,1001.3018815014717 407.58686496365834,1003.6792838098055 417.4287256717441,1008.7490013550467 425.6702630091151,1018.3308277187784 429.54029544336703,1018.5771189668154 433.0828147800306,1016.8107991657308 436.30526045509487,1014.5821172680119 438.5851407555631,1011.1202499902117 440.1832655983911,1004.5783177228777 440.48242844128987,996.0713287234424 438.86835380369047,991.1220205046271 435.39230380975056,988.108203607612 430.23965780105294,986.8219296058255 428.2092103972033,984.3648751999308 428.5893568401385,980.4989725481586 433.5558708125098,979.7743767017232 439.25118733126294,977.4906504552087 445.13109919607376,976.1543111151639 457.66557253623415,975.5845764232306 460.7508905641582,974.1384239767049 462.3904039143157,969.770652416568 461.93203305709557,962.1983678357706 459.4771701827349,954.0327262386144 457.55553718494326,951.1130211764655 456.9111264016806,949.2658935751991 457.18088959227686,947.2590574641407 463.966041144595,944.0336335311737 466.5565872384195,941.4857707770965 470.01220018425744,935.8570790131403 472.4874409844843,934.8789248878762 476.9811196370123,934.6475981530194 484.2782676569357,935.1283912001013 487.8256831040876,934.6110608523725 489.30964317618935,931.0048441078385 490.1426289342115,925.7357362518261 491.8197692561074,923.2228993773514 495.53515706494414,922.3626804482024 499.9974537714802,920.8897097105956 503.98449143526733,919.1128512827352 506.13966202098356,917.6829157577438 506.0754195816198,913.964011035109 502.94639460661637,912.1622483590941 501.1672423345048,908.6248058601211 503.2949850280311,905.5125480923572 508.6395070180552,901.3827560748095 514.0344370092575,899.7111499230906 521.6248114138202,899.4440336604963 527.8364755321471,900.4153808187384 531.453463009259,904.068003587185 534.5828619911872,905.8774943997498 539.2719849811904,907.6582393215625 543.1205770721177,907.5837405580053 551.0555195777498,908.9975551824343 553.5627692675147,911.1213409469945 556.3585604345666,911.3836795519215 562.4030062423758,910.9732089580372 573.6820536172168,909.8491202929923 584.0302744988456,909.9973236368105 589.393546803069,908.4871335688451 594.0659453556735,907.6613673365953 597.4588883075987,907.917710724131 599.4720041000471,907.7192482898874 600.8079103396484,904.597855238412 601.5169992364947,900.7250916503433 603.5177861602799,899.7502978681852 606.6127743368348,899.7061640544085 609.8114887477874,897.9570571196477 613.9289201986577,894.1775484647594 620.3130845293209,888.6525984357561 628.4994144193373,878.4586955577207 631.6932985184385,874.999147809357 634.2243635674697,870.299467896855 632.6453321158264,868.1482978977642 629.9956283260661,866.4920026511952 629.3318181289926,863.4145317581538 629.5715070758702,860.2932756437849 634.8233425525631,859.5967689788425 638.2179868322152,858.631969886713 641.7137529318461,855.6347827375171 643.6850492100809,852.9582809691685 647.4922108702917,850.1066533608229 653.7730429123684,846.604865960835 657.3069672717144,845.002689616705 663.8259720725758,847.5258949456437 669.4274497858086,849.0108260855689 673.3027163234626,850.8194581935129 677.5403191225809,855.2510274300134 683.0175985761354,858.5603006169786 690.8019942566206,862.4846445352143 700.7410118650646,865.5694781117141 704.0368958279043,867.9972092872782 707.067908655403,872.9246166679218 711.4160267428078,875.6422915021535 716.2221102261183,876.5015425994035 719.6684046281367,879.5608258793695 722.4726319963231,880.4460000492661 726.4509601473169,878.9927322691944 736.6550820845333,878.9836836377314 741.1411155794246,879.7106526194302 745.1869325287097,881.9544902726893 751.0705444911985,882.4743583261824 756.3112886164483,882.2462583294626 758.9245890323435,881.2799139933932 758.7204224498745,878.6444083734783 760.0230124002583,873.2171392590872 762.261961781406,869.1572542771476 767.0491040819196,868.7765369752735 771.7057410192857,869.0245192052312 779.7558966578717,870.7464957332721 785.6356468776746,871.1329600291257 789.9561224669493,870.6025392890064 792.8635991785118,868.8508013675071 793.9029313118176,865.582132055695 796.6550832807558,863.9781495504342 803.7247641168681,863.2561680081637 814.3526208368921,860.9367170454491 819.7588814701272,860.0664579211202 829.9536311134162,860.3727718925823 836.3305215867857,862.4541691775768 841.3152856518387,865.3164918765299 844.9903782654205,862.4651302837625 846.9398058885474,859.172967996414 846.8834427452941,854.9825448913074 847.4088913712837,850.9622983971851 845.8171722539009,847.7275767773415 844.6855482934343,844.6448424305642 844.9519371721747,841.698244195059 845.4450772942762,826.3666563374173 845.2463834846071,814.4159447446551 845.6487623246336,809.4682249835101 843.7191687079668,805.1579044253592 840.282462660553,804.281420122128 838.9706220029877,798.8791037352267 834.7038901880968,793.8287122584369 830.4784573268857,791.7269225559791 826.7314184201961,789.1595328983962 826.1953617107648,785.4563347108019 826.2788641095682,780.6503315620643 826.8044292527438,775.0523672788727 828.5533087560133,768.9893531419242 832.395044354892,758.2390907173716 834.786674501396,753.5622855147043 837.3453851272554,749.7927108723901 837.6724057556712,741.5698124731748 837.2744277840172,735.5488122182653 835.9529192554083,731.0587891968217 832.4702482281258,726.6329416506471 829.8962792756656,720.9390326443446 829.0331851240486,715.8351550842841 828.2954067171643,708.430074709021 825.0243993354502,697.936050951769 820.6383640666508,685.1408550832368 821.2360513051497,674.750681280937 821.1315259846084,669.492627227345 820.2726847643509,664.5293387039453 818.8112324246133,659.7509570683228 817.6067240484543,652.8029482301869 817.3260447114822,645.685263222724 818.4548613838648,639.4693217176311 821.4198538668853,631.8101387851834 826.1392678227259,618.7397982423516 829.0977429311671,610.0062380071527 834.7502187592125,597.6857599946854 839.4380159794891,590.326224865861 841.3647213843872,586.8829392102471 843.0851213291286,578.9638393756884 843.3465819044135,575.2405849579704 846.6370013382041,568.6784888289758 849.5051237973458,565.0783041684244 851.9201996804113,561.0065924307237 854.953442204877,557.071425556474 858.5836371786658,552.8457803546485 860.6778816267595,548.6207482967093 863.5268885306319,544.0574232675342 864.8436277887255,539.2294400377988 865.0917466060625,535.057240478156 866.2009436995957,527.6073078990972 867.8311607878522,523.398177782017 866.7967149224505,520.3155186145837 862.4568596497828,513.4412595951198 857.3053016120076,511.2478253513466 850.9657355244502,511.09097130981706 843.6827494192738,511.2585985637006 837.3139564371933,510.93981968745936 832.935187669792,508.5560049369873 829.581726256261,497.78844008523936 830.9337586550633,483.81496876284405 833.4634379957406,466.2733664180894 834.1772376164995,451.08393530904084 835.3657334664641,430.162400410343 836.473935909166,418.67745430315244 837.1576327012939,408.5740350540515 840.2745639126884,383.7487667339748 841.7389459177226,374.4023782922337 842.4671727180587,365.87541731049555 843.2350055709659,359.3608508049417 843.499128446109,351.76461813307935 844.5492953655321,343.53693063693584 846.1723513870858,332.9490862312923 844.5792244340488,331.75791755924047 838.3123423759761,329.26888753020444 832.333206436252,324.9311381639866 825.3849762453212,318.886160673894 821.2081781320985,318.82141789786624 816.8356506183154,323.27908354887666 812.2303513406313,325.0775337429201 806.1611085865026,322.42776609142936 792.6720496355524,315.2988087716002 785.9714394808625,312.95335934722596 781.5585044497965,316.00415891961916 778.8642540754767,319.48243080806526 776.6387478321817,323.69702054664526 769.5198453724225,329.12190252521805 763.6812785609379,330.9650673993044 757.7686679119057,329.2405734110371 758.0835081142657,323.02615433823996 760.5108433027118,315.0876218603008 760.4100412376332,304.3979049523656 761.2272422128847,293.07058379674913 760.1278479850391,286.42795923449466 758.0075661065939,281.6923819240825 754.0076523227953,276.0519081265495 747.7669691382479,267.9713636437276 742.8306908307063,261.10958197496916 743.0245721182699,256.4763606695442 740.0121643695816,240.89469827515643 741.8776167943392,235.12094936853885 747.6890936825808,226.78108034220884 754.7689512260089,218.5810425749985 759.5176162093528,216.6171569215428 764.4179206727844,215.10894051376374 768.8355651078232,213.0026724313458 771.7295987563534,210.45782127927725 773.9333385070175,206.0732746555842 773.6612881435997,200.51137248790803 773.0294080049824,194.02329340391327 771.6516848612716,187.99210238079047 767.2026884930432,183.44992299751232 763.5346204071839,179.05061769950737 751.5817728009251,170.18500607493786 745.2390510635817,169.24942443266366 739.683263084879,170.73522925183045 736.0616249386017,167.87411066141772 736.1487205317148,164.77564856508081 734.8165940737005,160.3208059517881 729.5708174179707,148.0361313914276 728.1731880724898,141.56963064490628 730.1051887402633,138.73846479260362 735.0699500402209,132.7554095355091 736.143279635222,126.22996502063575 733.780012088546,124.24263117689225 721.5634940392349,124.21923917411073 711.5029232263307,123.19544778625789 700.9554628239571,121.56245485923898 692.2229983948708,118.81450607740169 686.5910349196394,115.38937628059819 680.5842662691343,110.39958145485639 670.2045362477525,102.88798640967127 663.8057764921466,99.77877225279849 657.2134514831788,95.41910458155189 648.0540789112017,87.72911264412642 636.8085309263688,83.19276461733523 627.7876552480482,80.44242198423524 612.5650166410418,77.83126438026545 610.9374752359192,76.4989271804842 608.780919545822,81.34591731864634 603.5930043891021,83.45155159770502 601.0836214445218,82.42769988544785 597.8155466982704,82.20147462208888 594.8967659993068,83.19956001188484 591.5540156390542,84.96704334067306 588.6438951083493,85.95668463920151 585.9939086204174,85.5914410762856 582.8737096611397,84.40023135175534 578.5378272114037,83.74313541191907 573.694457816684,82.44775742280137 568.2565867620847,81.49608609943334 565.125966780784,80.4889478548298 556.1868008774911,74.9652139246333 551.697900516044,74.75292631176023 548.9227076417594,75.27830866439797 544.6364002573266,77.3956998381002 542.5422223613393,80.40548054871192 540.400429938651,87.7219618342607 539.2726657499089,92.85928133357925 537.5484805597594,97.86949625816919 536.3792310007058,100.51560304291047 533.7615668949985,101.986297274756 531.2632866160355,100.78818706663594 527.4654353449478,97.47152752791305 524.5904074630298,93.69933080456894 519.9987332078448,89.1594520032478 515.2245524827603,83.9912502245619 506.5477468590628,77.70349060853562 502.436750676569,75.0173988088892 500.6854555379372,72.72703884718271 498.3344365313872,71.41364596787992 493.3292538158613,69.9748820169292 474.57121047561617,69.67781241972625 470.99066358045553,69.45825030180424 461.306128444325,66.28108098078474 459.0605995598853,63.72779316357912 457.2870054722515,60.50957383218304 454.0357746796978,47.88724065526901 452.0778271930334,38.17138806591856 449.8037489996141,32.975017196449585 448.5836199438059,28.210188648155622 445.5783302490759,25.33095399852789 442.4187880666083,22.94834410664612 438.8010554521307,21.319502844715885 434.4532947668828,20.814338946389967 431.63261141874966,19.962180480280153 428.273583231403,15.56066880618755 421.95294837804045,10.627244944598715 413.0313359435276,7.755161337343225 407.72054211362,6.182154341527621 397.51762197456196,1.7933440592960324 392.742359622933,0.0 393.68797256022043,7.58930250953938 395.33096543943395,10.822244942583211 394.27073159708146,12.065620823229665 391.20151639537374,10.605376833940909 388.73658229636305,10.917576311185485 387.71072419981095,12.444125614814766 387.81598710060115,13.453343086324708 389.82650157124766,14.460299740966889 388.7301151418299,16.61111283276864 384.8607604558215,16.673995359073274 384.0060877159435,18.66678466385474 386.4930064002701,20.846253160959805 383.6695994745516,24.401599574956094 383.1685348874765,27.242721598361527 386.0878702725623,29.53241397567433 386.6597587968976,37.20477251322802 385.6877923098477,39.41446681408263 380.0830614161599,45.8636691052684 373.92100160040343,41.57682784777171 370.9953098887426,47.26969364296906 368.71803659325144,49.3517350389709 364.4178026496911,51.31174267195058 360.7095130367768,51.56469975747757 355.6983400407076,49.83903024474773 349.05674927232786,44.91216421476804 344.6985415375989,39.12898058868552 342.01753047723395,36.873043879467446 336.1950757628468,32.87118257420809 333.62909666433853,29.970807079366523 331.99207426723467,26.932148774583197 329.2826897672787,23.59446872690421 326.91914269040467,22.420451176126335 322.78516515747805,24.399633701124003 319.43724087890433,28.030199775598135 314.4553919686007,32.967524797476585 310.9455304038215,35.387273816763354 307.0960118843529,36.88780305938201 302.6046954259187,37.62859276494919 299.2022534153336,37.85084334091823 296.08701468849375,37.00477675893228 292.93005675792824,34.91235963320844 288.5316726936279,33.48843400679266 282.77745288933835,32.71969705824699 278.1319287967628,32.52511883320892 273.7738566998049,32.63137228460346 270.2106597286867,33.03058141029146 260.91478387960024,39.45966051318396 255.54443149583466,42.251879974486314 251.67065279343902,42.496552654614106 241.72946124547866,41.36803066631933 235.34750668141467,40.278936492193225 230.41955971299438,41.94961931304158 230.3615602949799,45.82043843212466 230.9929792238388,59.59280234932828 230.68076241326887,65.46982631397634 228.46690690833964,70.0407248561254 226.19985819694548,72.5700968366856 222.3819978240374,74.98552268373726 213.7651038281277,76.75161408788244 206.885678834397,75.0522284584356 205.4301178758003,72.13794750278362 200.9834544400314,67.46662456372712 197.5404992731084,66.48427789079244 193.66575987894785,66.70629516003657 187.7342767195778,71.638021042265 183.88284736489774,77.79028589464622 181.53872911917964,84.20120606070839 183.16580416163342,92.99080144869902 185.39747262330098,96.1692769761795 186.12126241735294,100.20381330870964 185.30350704973077,104.3999083370544 182.4741565816765,109.27023072929785 180.07565440619263,112.54923822878732 178.94187935040756,116.6425076899817 179.65609681881344,120.30932016207589 182.50233858619646,123.19600262206677 194.61868041140548,124.9259682931098 198.37095942519736,126.67697946766191 200.00752142642594,129.74897884936763 199.17120852138885,134.26218189166968 196.16581916387517,137.43528981225688 194.0302176021499,139.03277084149522 189.0577214223293,144.87846866803568 186.47308115429112,146.33323257530571 185.94896855682876,144.66378151055756 186.19384328004475,141.2346898588022 185.79485978761218,137.99808643832898 184.02700525981385,135.55441178248532 179.85030493528268,135.65130364351648 176.46298514319085,136.51515161082602 173.28857663569755,139.2187773744198 170.67795854537357,140.36016198594666 166.0394556760413,140.16292882446578 159.4933380210825,138.16660296813518 156.04061324209624,136.83476993728755 150.94816817985455,138.0369206048258 146.07657931988612,140.00171395483233 147.29449606464306,145.88247768821896 149.88418452661512,151.07328464132934 152.31549207702105,154.88280634992395 153.7740950308821,158.27623403948257 154.07555165505022,163.83415550969835 151.42061808049252,169.45708047254402 150.14762568043756,174.00284241748966 150.08805639880748,178.48772839222886 151.25750540545906,181.85882477558323 153.33346237841906,185.0632688113501 155.42063378830582,187.655919311326 159.00906204950715,188.49189522916663 163.66062150134786,189.1598102056879 168.45131924240593,189.05833467574928 170.83779630756865,191.79468427189397 173.02314512424877,198.5406629299216 174.63534066471863,200.6637612263628 180.98450585413326,200.673449392802 186.26775597354907,201.78462517727053 189.7133176070658,203.40037169647496 190.25635346056853,206.49255196543106 189.35886793969115,213.77791128369665 189.94030382751424,219.0526322950783 191.29688838937616,224.44264196750908 193.74224527469687,229.78290407384145 195.76960639829025,236.09447612009137 197.76535194391437,241.61136462885725 202.49076853725524,250.80517740161747 204.1386516350125,255.41106192052837 207.90503334900927,257.62439712567925 209.73249732399452,256.1863739986427 210.6239700816173,254.47762703254193 211.9095456297228,250.0935089403722 213.04545624058343,245.2911549035298 214.66888684392612,242.4621911931648 215.92767288979982,242.4079436202867 219.34973442754935,243.8615639660294 223.26330497697398,245.0182846316278 227.3016352781564,245.54667046730094 230.5911186218044,247.32014607856945 232.5430212690253,250.68143694616936 232.70174410050723,257.48233336684825 231.87160410954638,260.5992934854904 232.06776273028714,263.0672744984498 234.9990399831964,262.0711788807945 241.1072191709861,258.50853863084546 245.96172047855626,253.7445161275342 249.30700144947548,250.85962468878802 253.17965890002034,250.77766210388847 258.5259716148021,253.89874008247602 260.6546538742539,252.6066497385052 262.3104552939527,250.69372420256343 262.8758942686272,247.572701208088 265.15441094444674,246.44982072886796 273.0873583800546,246.70247343961682 276.9951778859591,248.30760723310027 280.92425480444734,250.3802281626755 286.33483524911645,255.50942482162918 292.75504810556794,257.8141960062096 295.90594813142485,259.90699549220494 299.3870379429412,262.8921270158331 302.26139449743454,266.38291170342734 303.1272820662278,269.77222096559956 304.72081213838413,271.1184362725677 307.6706064828305,271.51169940207717 311.9823688819558,270.4891050726127 316.2202429674134,271.59246432945633 325.91241967311987,274.58674740325534 328.92524265108494,276.68547698128225 330.8693341326501,280.362844953689 333.1218541260448,283.84805763950396 330.75215784959374,288.561995622528 324.6906243327759,294.90207209537596 325.8366311732679,297.5208880276268 328.2068890963743,298.8464804752616 330.57739450486594,301.1136827809928 334.37309922835817,304.1008787525916 342.30222930609233,310.7264068057465 346.7257668998412,313.2260000697812 349.26655970845883,315.6535856472499 349.1673553176584,318.58937897080045 347.8088239397777,326.06376929829855 347.70595309318355,334.11104376130936 347.3549695162519,339.38324263759193 345.79632040374634,345.3124259664993 340.6222311266682,349.18054709985734 339.8700033565789,350.8861660999148 340.15594813255575,355.69233642385166 331.90328953187486,361.64654387066 331.02634399635133,363.9777571710565 332.4848118873113,366.11750516287793 335.0038984875043,367.11445510725946 338.87372109127807,367.77807892374244 343.54309471022646,367.67640383773914 347.7453729724806,368.03615595937447 350.2861559865215,370.4421255911734 351.41886774851946,372.8745009007972 351.5340303787228,377.22789817761316 351.9182114044465,380.1508932340364 353.0396859872144,381.2252167981127 356.46336904137377,388.5459809118794 354.396545094501,392.8028907777249 353.4182207802937,397.14192193586814 353.0348028521793,400.2611008103727 355.21342515023736,400.81769440658195 357.22410295532603,400.4451894645372 356.5011613367618,402.49913522480256 356.1223483192275,406.38395863949074 360.46793209085155,412.46535918186316 363.18148407070794,415.78935580595544 365.2838809074384,419.1268153532412 367.11131629641045,424.3440111714791 368.15433706833767,428.36434900044094 366.3764422028551,431.95074764963704 361.44444979899174,433.185377046059 356.1512954481291,433.6420436780103 351.5254475418745,434.8494104035261 346.6451086310735,438.0440815138005 344.231489373588,441.0734178838899 343.7027145904127,444.63744440831715 344.86625360060907,447.55069132326935 347.10113359492095,449.96753457427997 348.4604737754922,455.0321580897722 349.33184759293135,459.5197910953783 349.45033133835676,464.0056620600001 344.8630684977233,467.3791967783019 342.2382158827573,467.4268063234731 337.53608356917204,465.08848554135545 330.6206985652615,462.16978395700403 316.3162981729748,461.30940426903373 312.15631959514576,462.1952032203052 311.610852839242,465.1453237130504 316.1091047327835,471.08012822354283 315.5276024610761,473.2546371129773 313.43324645723294,476.8677625902434 311.9987426296341,481.54857682759564 311.0224787911148,492.4244696544406 311.1563212641245,497.52680971637085 313.5745822248659,501.6357146935419 315.98583990369184,504.36482256581746 322.19837986084366,510.8606623953299 322.42798939133763,514.5670021325452 320.3180980999887,517.2605918109335 319.1486614148121,520.0945189047352 315.15728866684293,521.89582736905 304.0748119969344,525.7580018143403 300.8716183195854,527.538397906884 300.00609213723203,530.9486953450466 300.89857251426645,535.5901130463586 300.0964604050937,540.3976372609118 297.6702260928507,543.0992476319379 293.5656293473657,546.163980285369 289.6043473092691,549.8282733827026 286.72571771311254,552.9826013791026 283.97190259318864,554.1367743399348 273.5097175427884,550.9948336796158 266.80826278284235,549.6351180786679 262.3470906234452,550.8144966706776 262.2949726737865,561.6577693306875 261.36610999542387,569.3878632553105 256.4519699034004,569.0230624169338 253.94334386119874,569.2721723813654 251.97706394327759,570.1213853197396 250.56903860334003,572.184502540189 248.5379492376264,576.3282339518163 246.36341921093944,578.2272002188067 243.39536034678497,577.0134722581819 237.931748382923,573.3506950485039 234.5454606424911,572.169329583669 232.82490261622544,572.2949989662225 231.73665683296542,573.2944875160197 230.82496613242796,575.661201507669 230.08350947913837,579.4981218060791 229.35461252426427,580.7859353944218 225.68795355916112,581.9439954024817 223.1530024794311,583.8709660494604 220.0395732353776,589.0975458971327 217.88194267229017,591.4043330744117 215.30871238186822,593.5053525198953 211.09536728151951,594.5987783679732 208.50569814852452,600.1580007995213 203.08633054091177,607.1022207284315 198.24209004721948,611.574756146508 192.7124868847428,613.5484937386361 186.44146814414773,616.3392691082296 183.70415526714967,618.2709260226902 182.51964171749154,621.2179742033277 182.32822027263802,625.7359107203587 181.8279112556182,630.5377335583185 181.92979002497304,635.4783516811856 183.5743018789482,638.842644210044 186.2854968596667,642.3554601913861 190.30446170795756,648.7703544097019 194.13866152156078,652.6953149687279 196.8415256472994,656.6573819218333 198.32759392081616,659.863320125225 197.77263103066426,662.5291177758511 194.44638708500815,665.3877857524715 190.14767063502538,666.8806246390845 185.02328317214315,666.6953802363972 179.22462174272675,664.3465271453582 172.23715726254903,662.5068224323643 166.13989178882184,660.4845514699877 144.81811612479558,648.725548845576 138.3332474115488,643.1599773914306 130.16368235211348,637.902162876017 123.31101092589356,635.7546008673766 118.7499835784123,638.6542489143465 115.61135652309662,642.7434194153113 115.34374328616043,645.3692033506786 120.023942728875,653.0076033498691 121.32760275907714,656.4052632118486 121.74510457621103,660.4043699744361 121.49551552926815,663.0324107936306 122.945774587779,664.8679309221508 124.96606766225496,665.7474474183514 127.17101794151795,667.718030069515 140.3277028776407,674.0776690662508 146.44413279036738,677.8209209869947 146.00556627450604,685.0885228625583 142.84385025302922,688.2803699972802 138.06441902542556,689.1512708710942 132.62379174737774,688.1828093693915 128.91373242081025,688.4203236256473 127.28005098261428,690.3258997566487 126.24469811631361,693.452750749957 125.57263910201571,697.0222206999803 122.62132571659086,702.9599951482944 119.93790531596852,707.34875502862 115.28750096465428,712.7179488417344 108.9591576399616,719.6851238062468 104.73397816667892,723.7933459271076 103.42767219203003,727.2244998217228 103.51752922640213,730.7854555490799 105.76479683176123,734.7735530183115 102.70161291339635,735.6084097428953 98.52134962359295,735.3756377372711 92.98420948505984,736.129321055711 89.16715410165307,738.3844482136898 88.97352611698734,742.5450380542048 90.31306596646439,747.0160566742139 93.04073438451745,751.2897881806753 91.27674745310352,755.3573437679703 87.94012515875657,757.9087590670051 83.80468818274143,759.3844578330169 77.56720887388995,763.093524260579 72.5147866503804,765.0438491280241 66.88100983131339,767.9690836344705 60.40360997476632,769.0133091569584 55.173083851990214,769.1441727622722 50.88166993458143,770.7665326018016 46.581167675787086,771.9372152421158 40.796125528950114,775.4715715070182 37.01923601356612,778.0331509105797 31.68089659841924,781.2287533136961 26.66258577132562,784.5785858752397 23.17866260402073,787.2949506274041 21.580990854755978,790.7138001212171 21.674056517187392,794.4585663565548 20.218106863926902,798.3473342610395 17.984432825442934,802.2716352152136 14.856640272504086,806.9675123876498 8.128303241192054,816.4032863819265 6.9741933493590675,819.359188993737 6.613707228937993,823.5561623486822 7.484812113628861,827.5602926903491 6.475362902329452,836.7216103590728 4.405100416268979,840.9284500930596 0.0,847.1842433508779 2.6562877611162383,849.3315688274423 5.217521903935123,854.2543025275959 9.13793819001744,858.23431475576 13.997123837322961,862.5075324693565 16.810896135111562,865.5625484642106 18.60616815887414,869.7168748406297 18.650198087663426,873.300509973614 16.127806765794997,878.7415178644178 14.175779767937254,882.0256337595196 14.364809411188912,885.124097418839 18.45496507427104,888.7724278625813 23.801180812924724,894.9109975162721 32.11584128096141,902.7044728087807 43.66906603062437,913.2442578594656 58.61048045799726,918.2825826039548 72.60220685231424,923.1976568710018 81.90073633683934,926.3357741827236 89.96584907814471,927.9055439246288 97.70978848801862,929.1963268464856 104.6465167454804,929.0948886088322 108.19070221034461,927.6420702627513 114.28225945387126,922.6023761626324 117.60139080377176,917.1292320500005 122.77139588787638,912.4182466047737 126.88594147022569,910.0091707319566 141.50013743577844,905.7676884222398 149.69425411434364,905.170306801121 155.87651369868112,905.0836911802671 162.54182868627313,906.0722678787348 168.0883463362518,908.5230983409486 173.71910515423338,908.1957185257751 184.93207208811822,912.6743079974883 191.34006242748345,915.9629965730836 199.29656942683755,919.3985889710609 203.81049603372333,921.6477541373642 208.15461778945001,922.348160538591 213.10464015866322,922.4241813785335 218.04798408694748,921.5397670071812 221.92393892814997,921.491648045587 225.37467265224038,922.9803732910589 231.00591187640754,925.9714179765649 236.72779219219666,929.5119538329492 237.9025467662477,931.1023873412872 241.65471246731101,932.4289008776335 244.0979444444748,935.5829527891249 247.82086356200426,938.8176166982068 252.1485533257459,946.3413258843453 258.20483081741855,947.1481503011112 258.61801984659934,953.2333413569174 259.41236220739574,956.8627613833031 260.19744363156553,957.004815056913 261.69591041157884,959.2929620484937 262.30284771710905,964.7914246749161 269.0026861601584,964.9347132520664 268.5273019135085,967.3036556157458 270.44293502031013,967.3974827100269 270.6018168434726,971.8009140043396 272.3310943626656,971.8075585496267 272.23931174596504,969.997131966349 275.4892701781427,970.4541045487281 275.3869043839447,971.9638192281583 276.4257762780027,972.0180777011423 276.97386390268855,970.5509273336518 278.24287895681914,971.080825230636 275.07607448349427,976.5228204999503 278.9530935147896,976.8228148246681 278.8783607193693,978.9649451774586 281.2379649046391,978.249007470075 280.9220408815264,982.6945169390585 284.5140958089431,983.4320169401558 289.01072826762805,983.6319021644164 294.43135013077745,983.5235965871648 299.72785937984895,984.6873629638728 302.3871269452161,986.3390204495823 303.20069089518853,988.3471304381313 305.5936817002527,992.6220995627966 307.38182229985415,997.556754854132 310.43839698194915,1003.072563063501" /><circle cx="509.3627873280882" cy="694.7131665726313" fill="rgb(100%,100%,100%)" r="16" stroke="grey" stroke-width="8" /></svg>