<?xml version="1.0" encoding="utf-8" ?>
<svg baseProfile="full" height="1024" version="1.1" width="1024" xmlns="http://www.w3.org/2000/svg" xmlns:ev="http://www.w3.org/2001/xml-events" xmlns:xlink="http://www.w3.org/1999/xlink"><defs /><polygon fill="black" points="99.80490219233073,174.7351371218989 99.62015209343552,175.51077260657826 99.36372188192892,184.09748651295814 99.82130749340546,187.76006754802665 101.01888530353457,188.94524086868063 105.06980965440418,189.72532592692187 105.7070194927109,190.14285406418986 105.79483245438075,191.12973430336626 102.41941560277832,190.93138767664902 103.04920587646119,193.28883307613972 101.95738288760776,193.24817287569164 92.01162794124042,193.51311166328298 91.0605583048429,197.19282247220428 88.69957094894671,196.6813097964266 87.8278999881926,195.5694146555923 86.71611478234621,195.49694150969134 82.02210563629342,194.69270031839193 78.3430520953981,200.5430854272331 74.69101857993637,206.61455138021353 72.6595511482127,205.86246251100852 71.79318900447038,206.49039577877858 72.80198221211499,207.30968870372675 72.22689226659823,208.2055413581046 72.75611835342752,209.03023002192703 74.78859848710702,209.66980192932846 74.65267076623628,213.3498661041212 78.35704537063613,214.83084140849803 84.5090764644904,219.3761952685855 94.70005623646598,226.47471846604026 96.7571582913591,228.28915319234846 102.4915658856406,245.04059186300952 95.50808838610145,251.15090272178577 96.56210793363881,252.41739413496902 103.25790055218006,259.29714754562406 104.99503931720578,260.00750905290334 111.36314653306567,262.0223733007525 112.2858262964599,263.9535199230187 112.21216520007509,264.8328585865878 113.1313521859134,264.8771135480423 114.86874523224544,264.14108157381355 121.29255658058763,270.97224455973617 122.91820546503817,272.3410732377136 126.47238252053474,273.2647633236351 127.01025934026886,274.266183220422 125.55873447494224,276.5036936673181 125.52124856567477,277.72944310100536 126.03919431149798,278.6982945199519 124.63009688366694,280.8113529238874 125.34081638437198,281.8902084927907 131.65518235834767,279.79516581334974 132.66025437705778,284.035876575917 133.21811903887829,285.0823117482467 130.02016534655124,286.4404255831329 130.25733227472642,287.0031887911764 133.46071301892502,288.97907763157474 134.77803620982732,294.2315205452077 135.84517015687723,299.9326477454211 136.33230878671364,300.19772623836684 140.02374302630093,299.3992580915015 141.35095794996212,300.2790229266817 143.56902407989205,300.328052952398 144.02460148208488,300.63639809261053 144.55010750062286,304.0847810333182 144.5245924699965,305.23671748048884 142.37831901599588,305.8992470744018 138.75968875321777,305.11316438734997 128.9351653379498,304.9839829137662 127.84484452754211,307.63705003174704 132.43717826141406,307.58080866014484 132.43647967680437,306.15241813056906 139.16237491978183,306.3022245964831 139.5314787882431,307.73565638924265 133.6624553407628,307.68627090318756 133.61459952154658,308.1950769979693 139.36179867813587,308.1417377980493 139.46738102622604,309.434035405497 136.50342470716492,309.31732310869535 128.62000809678176,309.27726520419833 128.96783949887813,311.4658141299225 128.96401797156003,313.2150339911418 129.70261599375343,313.02418829752247 131.9076502797769,313.3380676505551 131.29223537255947,317.14899501751285 122.60682558973454,315.1530176241002 122.3506270433011,316.65388149226845 122.99929119642522,319.28111911237056 125.04997575171626,329.1791755657859 126.17635824835507,329.08127618534365 128.07512831898202,330.1338566945792 126.85277930547817,334.1457356186101 128.9902928411,340.09933048554524 127.05251773291218,341.1799558328938 127.55485585127661,342.5527889899603 126.63493898167772,343.9506890034955 123.00877763970149,347.9551289287876 121.00222333328843,348.7335226798717 121.61395776964046,350.3975661033852 120.96324043585624,350.0613382311212 117.64043225165341,350.6253581921076 118.149036314693,350.08447350398234 115.68441190435306,349.2507836884937 114.25585209144418,348.26072421484474 110.11332877781558,347.4406760046538 109.36447594636566,346.8258031113742 109.4301635045099,344.3773261576231 107.09442510716997,342.4303238935059 106.1731240783875,342.45474735211087 95.55060144054033,344.0407500330791 90.01620955552127,344.67878620786024 89.29489913198442,345.0517559128924 78.22079518313195,348.7756163862696 78.21631272652651,347.68679392167604 77.29976126532507,344.5935812514319 73.61605345950791,336.24819270617826 73.23841286154514,334.0953195829292 74.12717117418389,329.3376530252873 70.40800882128724,329.0618996733251 68.02169257958006,327.8367456579533 68.11831550769115,326.8817305859079 67.25614541566671,327.0637776136352 58.08495960289053,327.46257790879054 56.417533604214256,327.45632937807073 56.4971244237025,326.2364315200619 55.7034739203185,325.9848816754836 54.017632207837444,322.42857438106626 47.77341077542308,325.4631001840427 40.96995779628106,328.90942085940947 40.390763743254084,330.6697222637717 39.69613711461658,335.2799231608913 39.34179106883465,335.6902273411668 38.78411965884207,338.70945305148376 37.842607603073574,342.08225735830416 36.840877825121986,343.351583254201 30.475337725921914,350.72836814773046 28.918204236058717,352.16509542082 23.828102133371445,353.08759919636867 23.279405664036048,352.8394474312987 22.344998319090518,349.7461179813211 14.740570695244383,349.84733484475197 8.7102701479564,350.00475331233514 8.91913179388848,354.2840357308232 9.280830634508662,354.7242070531866 9.61597597674957,361.3737231250436 13.351157721710694,361.41988378896787 16.591842954039247,363.65651202043205 16.707261264401733,365.427464470027 24.64817442782491,365.5707995651654 24.78463787593049,362.6753966534922 25.255107339077554,362.701438231748 25.647456064669782,358.531586707443 28.388356014589323,358.6375168141903 37.57772418004803,359.4017632050572 42.20980346315291,359.6933048893451 41.16495472033776,378.5480699015609 41.02443229189644,380.3671472116062 46.440477386957596,385.79840416452544 47.976655687682864,387.1260740720641 46.99206856700179,398.7489920485881 45.77855711551965,397.7033359280291 45.093231745416176,397.6429449291743 42.41202356492683,398.232599035204 39.31203798437402,397.32169707005863 38.98456287561514,397.9845515113301 41.16331810633276,399.5055468996892 42.218469258610966,400.8510322359401 41.720732848711215,401.90201813860153 39.384127126852206,402.68015934593336 37.120565151821985,402.6893793446618 34.376777997629354,401.3117062829318 31.474138207130505,398.9416753527511 28.39846281652369,397.14812552223924 21.89212670788319,394.06661668039254 20.290509954101054,393.6572751487613 12.442025052508862,394.63812200193104 10.5048632106314,395.3891558230515 9.588400580064812,396.3510178780359 9.977784164763825,397.6490921974147 12.581042451283706,400.1227681987727 13.160194278336308,405.6591017068337 13.657419398281288,407.9173789649762 13.666137295626193,409.29698487052997 12.207832678087506,410.8880483625944 10.854485587926375,411.5794865282845 6.063350174471088,412.72628209654414 1.9946926987757048,412.87664078932033 0.1407020943885852,414.12047024106516 0.0,415.92177063726615 0.8277335578285363,416.6652651045305 3.9285181234152127,417.50929221791796 6.630864704041203,421.5736440597683 8.973900890997312,421.76158066413393 12.13462032870098,422.71969950819835 14.456239012644598,423.6510059314869 18.16372262592803,425.71342538936983 18.80787401366753,426.44235253018763 19.975723005957256,430.3884268686295 21.553474568179837,431.7621605642003 24.342768668153674,432.91496545018356 25.203815652095134,433.5461124056967 26.37059418071163,436.3199107400909 28.333575379125268,437.94529083173603 32.373846118185014,439.742103576129 33.01637702721494,440.5969162921316 32.43798037156878,441.59033909808954 30.698767969391128,442.0616697363869 27.100338549373113,440.801884927224 23.750961533359842,438.7382828283171 22.94877865268888,438.90298804971655 23.42446568618849,439.95119390093555 26.329630060173034,442.26634633149524 29.863421992985195,444.3826464578791 33.15432836296433,445.6438059262383 32.91099129225443,446.8319866781354 33.66305055657795,448.55947659735114 33.43515015916333,453.4434323425961 34.35371325161071,453.6596120690742 34.206101232677064,459.9898734868814 34.60157574705522,462.9360901286496 28.92778978430043,463.2773177089492 27.07405116777564,462.4798819764671 26.553454088561114,463.0011340818687 27.394898678579594,466.26371449470264 28.062481152869832,468.1660390182773 26.398849452986163,469.68656518610777 27.039772906654292,474.6995309873172 27.424827339939117,476.28911054299834 27.40252652702998,478.4277373499437 28.506624225004376,486.6286406630818 29.971774733531287,490.0591065635345 27.016676678372164,490.1908089641762 27.37758484149523,492.02589173107344 28.896895123385594,491.9356845621618 28.840552563984495,497.6286460980041 36.77344960003188,500.73493855422976 36.51571910767846,499.4755633323185 41.60890772628605,502.46184476076144 45.702247634645886,503.10510374099863 48.25423828084828,503.2758767114616 48.01748055299672,499.9018961908649 50.596830224153166,499.6062376003982 50.42113807261777,498.3221126992079 53.70452106202917,497.56389495244287 55.52010365667155,497.5524914819248 55.72626793751744,498.17443345912346 61.29337564011332,498.31358342950114 61.9445038405968,500.7538895225529 62.13314835702853,502.5622181753676 68.35145920237916,502.4009581273775 68.94606047817398,505.91970288101044 66.69316356574001,506.3469971615967 66.69958197893804,507.30038404309283 69.13014238176935,506.66108271919165 69.31776930577372,507.16184707485274 70.96357472421093,506.8453574354448 72.47313546805927,509.5065078224855 75.66934052204266,508.4489364318464 77.68910511664299,508.5034221616046 81.56546233974188,507.8836672011422 85.9669563153172,504.9938055380611 85.54157107557012,503.9270634242186 95.28051678045067,501.46044903712874 95.26741136458087,503.8085592794913 98.20759000480827,503.36401204523656 98.61983283248314,502.49266428484646 103.02536570557076,502.870973457549 102.97439709726724,504.27151428682936 105.94888184880077,504.2948761625583 106.50082818726467,506.63116488750626 98.08919064593344,506.61284553046045 98.07667056180588,507.49093267273895 103.57443693463081,507.5430361006732 105.27256713353023,508.6089075898865 106.95819749458954,509.11300941118355 106.8139902978721,511.3196502107144 103.98897120818053,511.59537747576246 102.05638646937724,512.6098079043414 94.88584406993108,516.851035383964 91.30115848771406,519.2750570171993 90.5681562767411,521.0127258760227 90.43018874991424,522.7974894081334 90.6127107632898,525.0421394316393 91.30298408606902,526.28350065996 94.0912263984738,527.9393495362228 96.09989179825826,528.8140311418679 96.47194547380218,531.5155990185123 97.9841191903522,544.9829934108819 97.22988911803233,546.7662731497041 96.20208040529614,547.5538224424191 94.06925629372425,548.0984428068784 91.95300828170225,548.2254565422196 89.94131339418742,547.521479753478 88.01503557764283,545.8445551955987 82.62426061736211,546.6637226842145 80.29189575412838,546.8257630736106 77.56193016068312,547.5445202455433 75.38147646936892,547.8023585547081 73.17174626342276,547.3095701053439 71.96698047912741,546.1615336146457 69.43075857119135,544.7980571119658 68.31751300676169,543.7325554382217 67.304512839978,542.1517554082993 65.24361997331299,540.5929836082679 63.32466346517445,539.8634659078773 62.208707787782764,538.9936768511324 60.51742488494105,536.7901038714267 59.42203790876516,535.92160934588 57.86112302518739,535.2732919419468 55.32175820210491,534.8812236169063 52.75714766111903,535.468014936605 51.381509689786405,535.5297244996698 48.52360087926382,535.1711572202275 45.568506777305466,534.4130060313864 42.823183279752975,534.0933825923388 37.0736556576502,534.2593634454666 34.566696149571115,535.0859268275987 31.756560633398884,536.969414499563 28.522435527696054,538.3722303204008 26.35764026573806,538.996394523261 21.83619794224979,539.3372007917753 19.554076720477525,540.9126319080098 17.7808069662852,541.4404659702958 14.908672369483662,542.621088468011 14.83538528402529,547.3323248208761 16.10997840985111,547.8824495326367 13.707065348060407,551.2374021530924 15.337927847735594,553.2965016427734 15.872469185544798,555.8886393370751 16.629434487665765,565.3396980402323 16.621655378105828,566.4772937422142 18.390029833079304,566.3598897629087 19.719811814725958,567.3462799042826 21.166548318172598,566.7622770635967 22.872713204135657,567.970076425273 23.952210113104993,567.9044033100721 26.488907249831307,569.88336012382 29.599244244873134,571.9595518913223 30.708030139204485,573.3100924999862 31.39503485998688,576.0700499330076 32.483396710599926,576.7753350683146 35.72146325265377,577.9300742802562 39.85505435054689,579.5982996918872 42.582889168650816,579.8989694951537 43.29275310143191,580.4785335169427 42.83348626802419,581.6655601487569 43.31456901663917,582.4562898183796 44.40313866180368,585.8857938223136 44.26142531511485,587.072405021529 35.90764994505859,584.5695013832295 30.823807572533514,583.2271965859007 28.60705671853979,582.4348062426282 27.4937297192253,582.7094605940523 21.908029729481093,584.5697392025231 18.5907012119893,585.2394528194569 14.281448509361102,586.2780316990633 11.079922667678847,587.3534005711516 9.32026631891602,588.8678965140939 8.943673079827938,591.2833060109594 9.566181029934409,593.505948491952 10.322223102410758,597.1080083869994 11.515710178153732,598.9279949666216 13.049093261786537,600.1031235058138 15.045444037060763,601.2208062636412 16.6188449707256,601.7828107385225 19.92542402852362,602.554936613711 20.12655052534617,603.5061319973546 20.876730939997255,604.1376162328095 24.411709120912956,605.4370781772498 27.570008292497388,607.2244047855208 28.256832597821862,607.9808905994943 30.203795485437915,611.0205756780368 31.683228822930886,611.6880676969105 34.07464322261157,611.211916917963 35.31231517693441,612.2871725334973 36.912986991758515,615.1380060302018 39.18830822696802,618.2198777940021 42.63807321246558,621.1620606285322 44.95257911593194,622.3794050663897 46.02088595261518,622.4090085681771 46.251829972790254,621.4060615934123 45.93159504388978,620.1562526000351 46.50297823089341,619.0573611135495 48.98954475911197,619.0884055763154 50.98754396130557,618.8026258775432 52.35636240372166,617.9948120606138 54.31225021708183,617.7260117627791 56.50097123664432,614.3194809228319 56.86403381886851,613.3632625721735 57.00495126346259,611.500471475588 56.471009283258795,608.7170863534577 54.883766515981065,604.9188940075678 52.99647473743453,603.3165397685544 51.18816431408172,602.6383771188533 48.891214299138674,602.3195671636562 47.5520293840852,603.2475556981336 46.85402088772895,603.2245727718865 44.792430428780946,601.6068452252275 44.872046094461254,600.4067982766327 43.025122581426,600.284160775692 42.35425668377105,599.7739531725242 42.49882502644583,599.056220208292 43.33669604665476,598.6698330537531 45.907643515796515,598.4939275413163 46.84167051849273,597.8755680601457 47.19889586789649,596.6546848420859 47.95303723702398,596.3753324856947 50.955359362996894,597.5767604689531 51.6651553968436,597.5186128248603 54.546631985655004,596.486441002254 56.70285879011947,593.7878798895601 57.629574834091144,593.6495451366447 60.01926799141989,593.8944095284025 63.41728930459809,593.3622834932868 65.86433149814592,593.2212534633945 67.89278964674052,593.5928128563287 71.07135674731194,593.3050098648262 72.69297187111303,593.3912451788528 76.97979901898715,593.1693455336266 78.92627146711231,593.5393568995082 79.95556403515407,592.6624895454839 81.01870473780916,593.0133681389857 80.95261518175947,600.4083312345307 83.30321036679176,601.2768348384488 87.65245292975206,603.1408265506616 93.24643479930614,603.531466740691 94.30477474481674,594.8671897134506 95.63533680305892,594.480903492086 98.186136832763,595.6934263421333 100.00045432114302,595.965058536458 102.15398419233016,595.5152943517029 104.52007334380718,598.1980677071931 106.81487728713044,600.0754631588705 109.01563595448742,601.4086670321894 111.7975383408127,603.7365213291786 113.3781849980379,604.5993633875667 119.44667107399326,605.5818885649777 122.97345751282043,606.8381720612667 130.49462999425648,610.582741970615 131.99171096523136,610.8063814533331 137.3396017021069,611.1886958626834 143.6804586814301,610.3004709889083 150.77192885558947,610.149874244613 155.2651107107075,609.8868705195925 164.38288358825477,609.5845826032963 168.73454081065003,608.3384476496311 170.4733440878408,608.1528379452858 173.09187875084865,608.2755542067615 176.85483347489574,608.0463065401632 181.09264751148612,608.4678233853257 187.13683872769423,609.8352224110781 189.72018364498703,610.2797478114321 191.69172957376688,610.3736377700482 193.91537801737843,610.0039548476931 202.24487803648833,609.3882680178342 204.46308487510643,609.5046537800127 205.89315042636179,610.117405743827 208.05380474275546,611.5601519438128 213.29984909775607,614.3568695627052 219.4532336482463,614.4765636690905 222.355181085272,614.9361648677778 227.25244486501083,616.0512482768208 231.85908421862297,615.7602353802679 238.91521848041435,616.0222941029904 248.17227918026336,616.9222074212207 256.3223128263231,616.7150218687589 262.9034621871673,616.2667098814459 264.2035185196973,616.6797300721611 269.9953915727205,615.2047987866569 271.7336528965439,615.0476612477302 274.6446943298416,616.5352396349649 276.00810890330564,616.7966461829279 277.8007802345763,619.0744930407775 279.83435453242026,620.9633256817974 282.4855560487747,621.8777583876132 288.46941776841624,623.412862299581 294.89944236561956,625.4502925681677 294.65242117682476,616.279316894545 294.3680765614214,610.4091473362606 294.3523991647046,608.1275875853194 298.42562399977936,607.6726954432153 302.48564787340376,612.1489257499351 303.8169636873307,613.4667316361455 307.2603588815383,616.1586945825487 309.5221963907267,615.9937305762022 316.6866774903985,615.7243204597273 317.3175575387345,617.2665976934735 321.3039132808103,618.2197776952534 322.76372385977834,618.1541045931024 323.4873379334833,618.7118413787521 324.7874570155186,618.1558560332066 328.77973339729243,619.5701042975688 329.6231679859357,619.510257549145 332.4135479945687,617.9395724559467 335.3809444300482,618.102986285866 336.9351514967684,617.8733845611221 337.0062041295538,618.9293793806897 337.85645131530964,617.1933820498986 335.5366826139263,617.018110292017 335.5958986512411,615.2801125887183 339.88028322485843,615.2799899935109 342.61282349451113,610.3706244310556 345.68917477850874,608.9231665650633 348.64109344201285,608.5555794689992 350.93863767841304,608.869739679464 355.02944188510975,595.568187246845 355.91484808601814,592.3103790452511 358.6239357995551,584.3937417060596 360.0079172358821,582.5753489547161 360.87501712101965,580.113154803256 372.6821120050151,580.2434911912377 374.0734840293074,578.7030085169863 374.29359830907754,577.1759566174948 376.07646810544423,576.5111983377772 377.9394296946509,577.1232634226781 378.32691939774605,578.422940923122 379.18048617419214,579.3604979281155 381.42273289965664,578.939673937835 385.2458231029567,578.6289024280969 387.4575512007537,579.2378121147403 388.84730826880116,579.9533189919871 389.6890850315922,581.0291629517187 392.2940235161558,580.2447638790318 393.78061328887526,580.5308668265919 394.8908438639249,581.4196147642218 396.26588420140826,581.54000660696 398.015776878133,582.176440168548 399.2679261611799,584.4498272149613 400.37445186306945,584.7009230705295 404.9909110654662,584.0433115547787 406.1785247010656,584.4773622122395 406.8306000411075,583.8646942894928 407.0888144448747,582.6472844277962 407.6558321978185,582.4379905730303 409.5587985342908,583.125532114867 410.8694961290185,582.4106116152466 411.92233754892396,582.9641395129617 412.6767382949046,584.6638737947055 413.7660820514829,584.5604007090548 415.0393498943151,583.4544147430142 416.8146308400471,583.5842966052451 418.06623183987716,582.5968045493069 419.22946690523,582.2980782017663 419.6252958692458,580.5391606259194 420.46793868750115,580.4958185001443 420.8198063848244,581.3021731616527 420.5357653562556,583.1319113253111 421.47011455687846,583.1966863855089 423.29800181482085,582.0507980056534 425.4307456565904,582.3732731367548 426.43005835891114,581.9718873769259 427.17748785067454,581.1192459833669 427.3932418581465,579.9336695986705 428.14729912654224,578.3414790060607 427.4011203515428,575.6940718833782 426.00914380258354,574.0137518741241 425.3098956664886,570.7281843635433 425.34065680846953,569.6794815090219 426.67178579108986,566.6529167720765 426.62940290936666,563.3618343715775 426.7969903961126,561.8726899284085 426.19941079193916,559.865156111925 426.37196151077114,557.743750046189 427.8469674382628,554.7257534120649 428.4565167180326,554.226030244416 425.56863792919063,549.0404285061159 423.3695183671539,539.2004056905242 421.1553488995174,528.8444985125528 424.8087349063479,528.7267277842454 429.36693444254496,528.4075215887647 429.21231548552777,523.923709482537 434.5014424593802,515.209444814708 435.8980925375603,512.74787239672 442.2537907943185,509.6738794251069 442.63567834546393,509.38035915130547 447.0901454939084,507.822497472991 450.0850336530514,506.59959007604726 452.193222017263,504.83136279155394 452.1084716683048,500.3378053579805 453.6228854854702,499.5810837810442 455.65565046962035,494.5505511729133 453.5554489719689,488.3301999982616 454.10029386894587,488.20156596983907 453.4622967295234,486.12100030925114 452.13183848020776,485.81260999827873 450.80707885456434,483.71356356483125 450.7244656777535,476.72305346417517 450.0429057365495,476.1046120040502 447.01471306393483,475.40318674510945 447.7712520751716,474.4639336659326 450.1664728041981,473.6649855468261 455.1941122529662,474.2574705114498 461.7290797268413,473.69465834238935 466.7998565739674,472.86779607462466 471.5098178013348,472.2885625723115 471.46680674422424,471.2663020591634 472.33419525525227,470.52977604796286 471.71593017490864,468.39851782833495 471.00793859550737,467.3019455892229 470.71643666018144,465.3567462016746 476.7209747902059,465.55151769944973 477.02934223768904,471.6219260293726 482.3783982049908,470.555487967181 483.7308095153624,476.97501521799836 485.0189110993015,476.146955204242 486.6192676145029,475.9828763729845 488.6435008929322,476.65553502598493 490.2019961097067,476.60561247144045 492.24102554217325,475.4417805305543 494.5126241082233,474.6714166574959 496.7754888993939,472.4185833943572 497.9372502794801,471.9048890183984 500.53730408405823,472.429648514963 501.6303587064315,471.58721338883834 502.62784240785436,469.8794099154832 504.0097954108759,468.7298252228078 507.1172025944757,467.1770072491637 508.70916661690575,466.7862618611193 510.83161454560417,466.7079200189985 515.418869102512,467.27865691305436 518.5443745995332,467.28377505882617 521.8785956465512,466.8548940601019 525.8272344898127,466.5700315956856 525.8557337975604,473.69116006906194 528.7122184685243,474.12813210377993 532.344628430047,475.03842658917176 534.4659939463255,475.0353201368721 537.1378576825259,475.54034236424764 543.1540718281549,478.460123561425 544.3636872745468,478.5261361782322 545.805776090158,477.57712248458483 546.7277784398412,477.571233081264 548.2479297550964,478.6362745319659 550.6161285885371,478.58959294854776 550.6653969250942,477.41702133034244 555.922072017527,476.2051637760164 557.521048877637,474.79656808378866 557.0971015423621,473.84151597579546 555.8568108746941,472.4328176842322 561.6561352713793,468.32324563690537 564.6951705231279,466.0223461565994 568.476685296282,464.5222066005021 584.7063054327258,457.4360325854327 589.752136000486,455.1793762676437 591.4746891183227,455.0894829430406 593.6040975696477,453.7229931529039 595.8247244844489,450.9945175030074 597.5407804460764,448.57108902365707 597.8815704697212,446.58159271686316 598.4502425061773,445.8154153162004 598.2245816819752,447.45981331578935 598.0684508559978,452.59110366949847 598.7135600572012,455.91185739280735 600.032129172102,458.10249190354136 601.9704073773122,459.5136683009808 602.9721676312155,459.9178771718963 603.8541528328208,459.7213229852598 610.2403184992264,456.0974622290638 613.4499083140956,454.14320622111893 615.3041679882762,454.19304976892704 616.8672698406357,453.26295743969365 617.8977573169466,452.29732073148443 618.9332327014603,452.2598165218858 620.7095119643622,453.2986084893853 623.766093993457,452.78040416875217 624.2832066205627,453.76055287978136 623.9034059758624,455.56244885819916 624.9918689011969,456.8230652883892 625.698720579962,456.87204163703905 626.7588511411942,454.33665871526716 627.5196636488719,453.9692701613007 629.091540808557,455.00036981101846 629.789690151671,454.7200858391284 630.5226355928679,452.1139765347996 631.4501006211005,451.2308518702423 631.9689420045653,451.80157524144465 632.126972286315,454.6014266990393 632.8961094713607,454.4923528828948 633.6564628596425,452.3655298440509 633.5820132663979,447.5547252795357 636.0036416927546,445.1093512570013 636.8783461352749,442.69356562630776 637.0256703287096,440.12880718405046 636.6992146550405,438.1290317130653 634.6424662544167,439.5036319126725 632.4365564743279,441.88666673210037 631.5167601021582,443.3000545418204 630.4581493753601,445.6386529588809 629.6833234074884,437.93625775425454 630.4119727121868,435.9051160884053 633.2179127585938,429.06316022486465 636.5441697276754,429.5115329183426 637.8459253731642,429.3419202112392 642.8606598068096,428.22357683369955 645.2167550290269,426.32643813602556 647.9067766565182,425.24565015436485 649.2293491797782,424.98842009229537 652.1143490088709,423.69291181942583 655.4789880744734,422.766551479044 660.6796142160597,421.1488569291141 657.5627389303237,410.4894256333839 653.397378187487,397.0782427730227 649.9459727599709,386.1675679913346 644.2917884816932,386.9109688057207 644.58578408205,382.0251241270208 648.0235996536165,382.1256338487982 651.8233938199944,381.6560782283898 654.2727784451695,381.15912197417117 657.1426095823746,380.31852248946836 659.5364531011817,380.5575174493197 661.2995754922167,380.12012588632183 665.557555286767,377.99491207481026 666.1546205844371,377.456406665157 668.4449757220606,373.8914019230411 672.9510881215562,369.3242935857699 673.999352921583,368.44221806586273 680.9722103028126,363.49764960085497 687.9928313309334,363.2108677551103 691.4065233665369,361.84952869564245 695.0705533256497,361.5840015979547 698.1383206507002,359.87375385019266 701.2886639166886,360.0272798396717 704.1026141705396,359.9457401457102 706.3921314917736,358.2376897061387 709.1573234683648,357.7150755944002 715.0398038055773,357.76064907630297 716.8213082056309,357.3780419055372 719.5232310813478,357.1005204074519 722.9384473849831,357.5697603513931 724.1368307769312,357.2791759871576 725.6350557229897,356.2461287508314 726.9869790400543,355.9624071671087 728.7654084866526,356.26590124994425 730.5681836102943,355.8329972531701 734.0124696689368,354.0726142385179 736.0880604762358,354.4209017655794 739.1936420243645,353.0869407762392 741.2788352824945,350.90491396022276 743.3730202715992,349.08118470434255 745.1979683813989,348.13858332282666 747.348969826992,347.3795242436113 748.6626678687998,341.2285762615057 750.0774957564084,340.23315947761967 751.5358397825178,338.7410118913003 753.8137207961623,336.9624505314852 757.134837669742,334.92428898517915 758.4458625414856,334.4949468692929 764.8525349217637,335.984737719335 770.353976825061,336.2383101718288 774.5984468530985,336.2223479302415 779.3111593477262,339.6691509297511 782.1911587166102,340.96870940543994 785.3638481982202,343.4409877659375 787.6628174724868,344.153950341183 790.9152013275644,344.1460411449367 794.6344639937832,342.24471879382287 796.4846028885017,342.5715296236423 798.7520065283593,343.48502269981066 798.1566628333014,344.1820725742373 798.1834620412944,345.5040121813073 800.0180476533947,347.43585047299246 801.1999805675379,349.0697576250833 804.4428853423138,352.20793659729264 806.8328913458976,353.51213022288067 808.3458430569691,353.87609920181006 809.2387706838228,352.8465246311101 810.19616738717,350.74631689527143 810.5649755352155,350.6338824741798 812.5559705643532,352.05020214004435 813.3027214919747,352.06490927189463 814.4200723745756,351.0984219349109 815.0164381033684,350.0116463269963 814.8510396573213,347.3237115102981 830.8037227994498,348.8912477019287 850.0202294510216,350.5385743529566 861.6130692382188,349.45662181112596 879.5992057279917,347.6558230055249 891.5385064282418,346.4117198343876 899.3237696608621,345.73911206227854 900.2203326773217,341.3593771824072 899.4975878727648,339.14891641202337 898.776645400393,335.83743221682107 895.9797724535106,332.8184043683118 895.1954601734361,330.94215723902727 894.6091645578817,326.9006480170923 894.6477879714478,321.8487305842016 895.3818408472727,316.9604539964194 898.2950515226963,311.0829981179181 906.8322851323115,317.43761776370667 908.1684381614517,319.57909923389303 909.137902826007,320.65650933966805 910.1091430536687,321.03496264482476 911.8008248425497,317.24365275286283 911.1790125913593,316.31155751082645 910.8337713275511,314.4486116175277 909.8035162774141,313.09510393493713 909.6611060935165,312.20741895812824 910.8939368897053,308.1956883177338 911.0595275249001,306.5667826091772 909.4590615323738,303.2750023054891 908.4294281421504,301.6381412615425 908.1448499124655,300.28567082327004 909.0687002437005,297.6255830351118 911.6283745249465,294.3781981522451 912.2214283805457,294.08318973455556 914.7562138719425,293.9543426017309 916.6892846825051,293.2402438365451 918.7973195619128,291.0294572970457 919.7184960016939,289.42648209125565 925.5002063293276,291.9490791078365 929.4434398482928,293.57644529344594 932.2742865397457,293.63575473448134 942.4038830125021,291.6144430444166 950.5097440615998,290.08059111965804 953.7398554552533,288.66113657303765 961.0693460502351,284.9691436879083 964.4834813939323,283.34195672289223 973.6304048756471,278.7494713894292 976.2464217533054,277.6004784488999 978.8726172152941,277.4190732518589 999.6656247091702,283.6720874730814 999.7978837555652,283.3825065332073 1000.7376405219464,269.89622611280816 999.6034397028825,269.90250356768877 999.5323227084604,263.6786292527439 998.4186322155359,264.2567526233107 997.8874907250897,262.7171847520086 1002.0957385492235,260.35358230182226 1001.9530071833188,261.50982572392826 1003.5463221597399,260.28473652507694 1003.4132421496914,258.8451808850182 1002.9131429830697,259.4295848945568 1001.7483454945726,247.99644721493485 1008.8053481761154,250.2967180757476 1006.353207370727,243.0815144283606 1005.5465308255839,243.000359264841 1006.3732293038516,240.0721642392969 1011.7749338665527,240.121264142384 1011.8873324379583,239.47437112113187 1013.0511698164363,239.37307335832554 1010.5082828769109,235.81113662984444 1011.2633018049643,234.8182885969789 1010.8547081782804,230.81006660167458 1017.2252341112245,230.83349951223335 1017.6634115042356,226.47298090309386 1014.2638136256969,229.06244608014686 1012.0998080774496,230.08064989726216 1011.26230131102,229.85478425823857 1011.0580451008442,228.00692119523666 1012.507351797789,225.60038270539434 1014.0382812188418,223.9542017060346 1015.8243839103936,222.47145392867645 1020.2646740139021,221.87320562698892 1021.3774728604435,221.47073012210166 1023.601758990392,219.37822693041483 1024.0,218.36661360082604 1022.8050913289153,217.1108426491843 1021.3856375335869,216.9290839654684 1012.5775095993763,218.52124107706982 1010.1070306287173,218.057161465528 1009.1676567032368,217.17712257071435 1009.1364154888382,215.4688026707562 1011.4023783779992,213.17568350321324 1014.3818535194453,208.9979377627207 1016.2176458688573,205.9078755991659 1016.7681899295209,204.1743900485448 1016.8701191133015,201.6743666090549 1016.531725051847,198.19530452449106 1016.0413286691645,196.20482091965556 1015.0720798222166,195.59050058472678 1012.7863781857391,197.29834864336016 1010.1136485163054,200.62180651328862 1008.1245419934793,204.12629776726135 1006.7675725609555,205.87231698675402 1005.4096854934194,206.81414228548522 1003.7263862296014,207.53617427633037 1002.225706600006,207.83836044607756 1000.7461296509264,207.55613685882184 999.1744598036076,205.89784179737956 996.561334801053,200.11344904194158 995.5516501949104,195.6363314803051 994.7147655596091,193.80295322277857 992.5723711461956,191.41007524408025 991.4501792414205,191.22141449067146 989.1950107498445,192.427363202531 985.3165772682772,196.21936041865803 983.6529939369115,196.77731595456999 981.5412782023402,196.52573231683357 981.1128193031424,195.68394802597436 981.3373251964898,194.4215120722967 982.6552489631542,190.7551993252548 983.0020929563547,188.96570432724133 982.8597806239218,187.71046024139866 981.564525158409,186.0330358069126 980.217768788648,185.22952768024464 978.9424549809572,185.31038848721977 977.5749225553093,185.84431744147827 975.1462232328569,188.7684516909266 974.1867761638877,189.49725005943867 972.2480710072628,189.45791936947387 971.3816822770916,187.81900557351992 971.6266959594626,186.6389033517127 973.8014279070024,183.09292874714265 974.3025995597598,180.82645683558565 973.7515149864295,179.5835295128971 972.5483406250231,178.82366214430778 970.8244807715481,178.2760420942261 966.5403616285499,178.13648656610235 963.7556426228205,177.73290891784933 960.0834596980203,176.4182467215922 956.9126905206857,174.68391244447895 950.4172774831717,170.88130555914984 948.3986994931787,169.58075086015293 946.4928057489966,168.04793210476828 945.3412174154724,166.71570402726002 944.3421591994307,166.13775723302842 943.3424412908074,166.3254222169761 941.5974935677222,167.22177283580777 938.8111960841192,169.138964696654 937.6589845722468,169.36389255763288 936.9354637634342,168.63505366933566 935.5220429425915,163.8200765462342 934.3819856257591,161.84806964493924 932.7730562568099,159.65575513085764 930.8070724891103,157.8275966771152 927.9119749277683,156.65145877382508 925.73003747348,156.52290542237046 924.239912116514,157.53782026809205 923.8917133513029,158.56657757677357 923.2541939804761,163.05958804679221 922.6910176110473,164.6589143050387 921.199581679691,166.53417538456603 919.5570111483734,166.75190916731327 918.1410742152135,165.54488476062625 917.0825607064086,163.91121002851958 915.2430853780116,159.101457916222 914.0016498619225,156.7778957632836 912.5254111682983,155.2383650952197 905.3514713913161,151.89573537743883 901.0811468045633,150.44648452091099 898.7063952797837,149.85313792128318 894.7875288770381,151.74154764787676 893.7880078398802,151.85862729500695 890.3559271466788,149.49961919283294 888.26725487501,148.41678242132434 886.3498171989056,148.60815484150874 881.8272831645567,151.7123832513688 878.4965155786402,154.9435908221991 877.2314867333429,155.41198053654978 875.1121138588079,154.610939134837 872.1508701355338,151.3039326037702 870.1562955363877,149.33004503366772 867.009715270928,147.25263003519757 863.7707371890842,145.80298757929836 859.6433369449022,144.78975009708614 854.4021185397204,145.13514948931441 852.3525399257437,145.3939226001483 851.2077941095445,146.33915691676475 849.7832663581155,149.47852262056045 849.9731419880261,151.13628718621425 851.710215705402,153.95814259534268 852.0338200297844,154.90578936110677 851.5714079852783,156.53076126386742 849.9395032796089,156.70814669069398 846.2606108093859,155.60134424466906 844.7719467700178,155.5039408751769 843.7920725796945,155.84631321777658 843.0030271769585,157.39436876925686 842.9077492269755,158.69935443559325 843.5347519722659,161.05406676790238 844.2648531798546,162.61318493664152 844.0325164370196,165.96368625623012 844.8330115460218,168.0688090100702 844.576861416141,168.53901536616644 840.1565363440966,170.10921784700577 835.3188439886584,171.075928752185 829.9320988934847,171.35640262442308 824.7675237131573,172.5724577801169 818.186901357231,173.15692090006257 817.3724468223294,172.50767989783623 816.2282339992009,169.56056375832475 816.999882093023,167.27216054577212 816.1701590511573,165.16658995982522 814.6434597324794,164.0891788081181 809.2100106568814,163.0187480298921 805.7324276319949,163.02684939972175 804.8776751008601,162.32106734556106 805.1517993966218,159.5479189815568 805.0319577851864,158.78816114402497 803.0562414962359,157.89032168279425 797.8079892716521,156.68822062704527 794.7486381918516,156.6908020482727 791.4488584183651,155.27366204019125 791.4527936477998,154.08823824883422 792.2101929352459,153.36261054676737 796.763018942411,151.88372860079807 796.7057840732067,150.6918564658381 795.8626781016427,149.5026436605355 793.939965723554,148.20988491375664 790.7314040028953,147.17009120507237 787.9384430586615,147.03572008704737 788.369423442082,146.25903436618967 785.8494023046421,140.62850604821824 784.9920212308797,140.84537169141004 784.2201397166834,137.02806186154038 782.3641584887007,137.32895232800814 783.0306203820892,136.2708206377648 783.803992787246,133.7203099971428 781.1133827060704,133.38493508544735 783.4341279577709,128.59392256497006 781.6619202692877,128.07422798519264 779.0653504187741,133.22150490662602 771.3925558442545,129.32934631290993 770.092885053183,128.0578996365648 769.4098078305299,128.06164247516932 769.4879816282283,128.9463260380723 765.9672814849803,130.0999840332393 766.2503229101861,133.45736950963845 763.7200965104291,134.00623700522794 762.9363251722829,133.70223107541756 764.3541584598347,136.2295076195827 763.6899565867972,136.6030597166722 764.5568825571429,139.27304725005746 762.8344762759731,139.10301470624557 760.1776305805042,137.98872230660606 755.8602623081337,147.00665429291558 756.362004915327,149.08573428625118 754.5737659265958,150.0642043457255 753.172786129968,151.13164986791577 751.1564543466445,153.11331401373718 749.7213453870246,154.95243929125542 747.176195843227,158.9517002605084 744.7926270164635,160.7941765348843 742.1105520012542,160.71341935251002 741.5434064403283,159.77044021904703 740.7386105239843,159.5723243725147 737.2271056993227,165.19326136173004 736.781962692968,164.30700137324385 736.4148645026457,159.39076565048936 735.2623679182922,159.36716318769754 735.6337267319541,153.5831749760432 734.0751344250924,153.12449302812416 734.4107741451221,150.98627887633018 731.3975119273739,149.79320947909878 729.3747565447991,148.3917698196646 727.13077164897,148.45704832145356 726.5551600241557,147.11179721091383 725.7529609218767,146.36764920811788 725.0849061976952,147.7137184451148 724.8944745637978,149.17542224934778 722.705926803696,148.2938846352033 721.4383485085439,146.71947367219968 720.8369004413572,146.80430120259678 718.4805291964184,149.23445815515709 717.4263911070759,150.0203633653773 715.1695144817695,150.91434397272945 713.9907230710008,149.91103376763488 712.9737774816415,151.61893472231412 712.3172356852838,159.0973804943955 710.3860739383987,157.6509536884256 709.0738066240591,156.95423583882666 704.1679625746793,154.86039179623043 701.2714950695027,157.09359894110383 701.3180028380075,158.09801595082854 695.3984738687617,158.97269095796986 695.4784060204204,150.90304497243602 693.5102616719864,150.98095556366496 690.9740086934444,150.3288996624679 689.9257164484133,151.99252531837408 688.8232515048013,152.25061200293618 686.7647623124916,151.98305913055412 684.4965603533581,152.77483382601605 682.8281824227822,152.02680619555844 682.2216032705056,151.01953406226443 682.3931639348739,149.31305563426122 682.133538328849,148.30753923744498 682.8326227716246,147.1256249864859 681.079363267045,147.08547571937902 681.2959065858208,142.61871663755306 682.6058469003807,141.57116311676663 683.0521042760663,138.02850756817998 682.3076312199296,138.06952991614708 680.7335734581105,136.80002470954787 684.2960640584065,135.9836752916603 684.8340040530603,134.42382905233575 683.9067357835017,134.3879057272673 682.5634111307253,131.79039467547688 682.6543218305171,126.05106202126143 682.5333419227424,125.67439319552938 680.5235722036116,124.0141099172672 680.1104941365484,121.05147150150168 683.3845189018147,120.60455420982191 675.8956415936493,110.42416188660582 675.9616276723224,109.47133954782203 678.542156970054,108.92733333881904 678.696574693505,108.65207342183805 676.9488073149391,105.71378824940666 683.7212685283384,102.45033333154254 689.0844984128566,99.65001388124665 690.8391547276112,99.13785358546079 691.5662042013819,98.40807873572953 693.7288989766679,97.96660029137854 694.489609840124,98.66722178348243 696.2511525104474,98.89455588106443 697.7561772365143,99.49769971896399 700.4050766122645,99.49793638647611 700.9461990023236,99.17447025117553 701.0031049885408,95.9391996492352 701.4140983187604,93.03271432086115 701.1023366103456,92.203067909467 698.3535678096002,91.72631554111547 696.6280441957359,90.48250527288121 695.2204757089352,90.80171867780086 696.8830515028702,75.64665974407546 696.6010714932522,75.07547580197308 694.4299830721251,75.39720950748494 693.8335518896853,72.43582819140204 694.4086994762268,71.42922239151562 699.8189195848352,68.69802040983438 701.4561134581909,69.23817488233192 701.9686916632174,70.738602115812 702.8344836468934,70.67397009853164 704.2384240022805,68.78783701223938 704.69256193898,67.52430388396306 706.3504781573762,65.73932693984273 709.1113577847201,63.378172873789936 709.6482398761664,61.782682601905435 715.6131279335854,57.805762931508866 717.6254943577607,51.78128938099894 719.5187639425748,49.55950797678179 721.4101412584793,43.17185008582078 722.4661981357006,39.16699348368081 725.1835102208687,37.0622421124699 729.2470259601613,34.17985261707372 729.1097986385754,33.01462148378516 724.6356537378178,32.06168354316662 723.8226048321261,31.732037289310597 735.8465218624066,18.77093893400115 738.6065482504356,15.669905933289783 739.690948180935,14.241034645717832 746.1592891330822,4.963056025481251 744.091872171294,3.0524408885920593 740.5387749762006,3.6315534442492208 737.1182276761524,4.344361488950881 734.1394053575323,6.266216087210751 731.2935906187762,5.565454551817311 730.3933928899272,1.9676418789351828 725.6513054478407,0.0 715.7941330404419,4.4821599007128725 715.2034574652268,4.6482256110432445 710.5723055039131,7.3697690860253715 710.2843283917425,8.13201456303193 702.8368588603402,12.410762785251563 698.8572411098954,14.783478735911899 697.5763747548367,14.469976320368687 682.2347527499177,20.174260038319517 655.5411995678163,29.76441679781874 654.9195111801623,28.11401060447588 647.2556772451128,24.544898898746737 645.2528700202814,20.55100587827428 641.9261363552826,16.88072583876783 639.2190480765591,15.18064142019341 637.0525186726873,13.33982636855967 630.6259077844064,10.997767042166629 628.8987094310068,10.51143646381945 627.2267648777583,11.108793687542516 622.0094502819903,12.461846578684572 614.0750708214388,18.681371133430275 607.8021427915346,19.468326453819486 597.7142342141741,18.43939809922267 596.185954879242,18.736831121223304 595.7688833712339,20.262362976132977 596.0898716826306,22.531272104644927 582.8400224342724,24.028516149267034 580.6561242727433,24.966019177133376 574.7689418679623,27.192980438741984 565.9975282537619,34.272668525395716 556.1733925115506,43.09900048648262 549.7155894369293,49.32403501096269 543.370556343432,60.75068118891318 542.7788201928034,63.69761679277747 541.6537027042191,64.29045179807815 537.7715336250288,64.61288915513444 537.102493028911,64.23185954550388 513.6984308836645,67.16246070709519 513.540642009122,67.78836649365485 512.4705420939447,67.8487718196535 511.94000992078065,69.32391521242084 508.27191215562584,69.5638948243959 511.4265195386235,81.5167364796273 511.9738159201581,84.56188808478157 513.3193315735349,84.39008320998255 515.0234433148387,85.38779542684699 513.8457982222849,87.41630113410395 513.5103275710601,89.95243252396313 516.5754409197128,90.17729027571261 516.6521008748385,96.04605007927171 515.8672143152617,96.09622646409434 514.7949183572368,95.11595593096445 513.2885868902137,94.91047199991192 511.9210005577577,92.57357518168976 510.0259635368467,92.552487398734 507.1774254881543,92.08524859647639 506.50106839713516,96.43025835061121 493.95137198465886,98.54982406823956 491.225660753485,99.17357037619013 486.5452329625858,97.19135785015601 487.1408094027549,94.13661438170595 484.4122086942899,92.65985545820172 482.5226716249818,91.97333497814566 482.20578216172623,94.56572634106021 482.6534053431959,94.65798526153833 483.21025863867084,98.76294970774995 483.0279579398478,99.84590941498664 479.26372740497015,100.35427249961276 474.8722262906576,100.34251041256391 475.1155679859879,101.69884138598741 473.7787259521172,101.94490837938736 471.54033167314185,101.49368182355215 468.47580591884275,101.23536781163364 465.0937367381787,102.32847348489645 463.62936138755117,103.11286378603347 462.7966209439388,103.97766212906708 462.81851850883965,105.0248204757321 459.2233932997116,105.96576619675591 458.10224121641636,105.91854745573505 454.3101504338843,103.7655485080802 452.50973479322624,102.19443959954003 451.1726560903731,100.13876175913344 450.4334450255669,98.4956474363604 448.5673122418325,98.59170885024275 447.5103764357814,99.47932877722246 445.05094607577905,101.03163379354862 445.4611359958009,103.04797083988194 444.61781208891887,106.17619583862677 443.6614459995108,105.9916270860324 442.0673320941873,106.49204225920107 444.2124230658002,108.2800837151774 443.32330517636433,110.78074035443512 443.9211513864664,114.6676826583049 443.9195020585086,115.95424780696482 440.9633965849501,125.07977694005461 439.1083891313948,126.19764037826616 438.2847698851972,129.41554755403507 437.9713257628408,132.49322678002568 440.2616116947486,131.79808194533592 440.3470079833106,132.45099016926298 437.274786181529,132.88804049173189 435.42625297119105,132.0869265309351 433.34764904722675,133.0473805605435 432.87970455969713,134.09115342720702 430.6534878797472,134.52200507035434 425.36868921047096,137.0780747569932 424.55804087632464,137.6477585429293 423.79195472501095,138.94499619830214 422.6640783737253,139.56277858374057 422.13598316797,139.33808763125182 421.9440416729998,137.01421295611652 417.26658898012164,135.59670001660675 410.5409534459059,136.28685242584555 407.9715381671516,136.30007869338772 404.8618063991054,137.38108507312035 404.6331439224926,136.76426158106108 405.44659309189166,135.91878988820076 404.5307997749872,135.79131187536518 402.919433338378,131.5088335263784 402.2582012337788,131.42125559338018 399.6477595346402,132.50677238180145 397.8416596721868,132.6717115525754 393.1027780006979,132.4623235648623 391.49462379184564,133.20614629332124 389.65887598464394,133.3132629208472 386.75543706251153,134.1005607695139 384.51945301581844,136.4819738077162 386.8984018997366,139.2848172445669 385.4934943200275,141.11601642499716 386.4179175912217,141.44492097580894 386.3983825684055,142.43650284239504 387.6788530119954,143.9169206553795 390.620095861011,143.4747688200992 391.5575508629982,145.64870939312573 386.77741641583,146.39272836794595 388.08091143742234,147.610832953964 389.372118356104,148.0068271716098 391.1301752385266,147.6343429908664 390.8542976992157,149.78396626957294 389.6756915510432,151.44869445836815 388.28649582064014,151.65493865819246 388.2944119456845,152.9280669106529 389.00517189239116,153.2183766443606 390.54527687455726,152.15933033336012 391.52538493828513,152.05636050123832 389.00335697041044,155.48943027213903 380.71950195987074,166.028893781119 384.06819559911264,170.90828078750286 380.9063764366892,172.91792337383345 381.88391704228184,179.3001184480438 380.3953204204765,179.19060201056834 381.3729835387397,181.44216759412694 379.4225871247734,182.61569731656732 379.60011835290555,183.28315021615424 372.3677022857355,186.1561706355692 371.273405541481,185.32218935684313 371.66691825345856,177.62219883331238 369.04154105121154,180.99198902240812 369.6832347536253,190.26714191654452 366.50033929195865,191.15804011437433 366.2037280648939,197.27235113181024 366.26763717898876,201.02859903733338 366.9617123076891,201.07312022632527 367.5406813174344,203.3219087395339 368.03700967769976,207.78050048827714 368.2974276539712,211.3064029415985 367.95772962489275,211.59884139878352 368.48715098182066,213.75856395428463 369.30325200077647,214.8220966117176 369.39398527985173,215.9356217031272 370.0624467248582,217.4935406926204 370.3838289714345,220.07931922199924 371.9899295802072,220.7673711473863 372.11571794129037,222.4583814253321 370.7816276344383,223.1804956808495 365.95611137074053,223.76631864287316 365.0275364559431,225.74878812454318 361.1864837512218,225.89833168219207 360.78640528205307,225.06500294449648 358.35512851182966,226.19653697025353 358.0944289294756,226.72725660731908 354.48015877726607,227.72775796648835 354.25572592020603,228.6932557058857 355.76006419753736,230.3234795272511 356.6400355435423,230.16895555585296 357.36148973256405,236.49157942882312 355.6633663972966,236.79502323824335 356.60007761166725,241.05923586081622 358.22243100336345,241.1581547297473 358.2690406166197,241.6232613959843 352.52600326653555,241.95387060651154 352.4175674887819,242.50593268578592 347.9221965294275,242.635425387459 348.7852842855831,248.05640491780002 346.5457664481488,248.29668948955668 346.1034618106142,248.61919846442618 343.3343654207009,248.7090408030923 343.97064115428606,251.36909644461747 344.4188385957759,254.39075768757732 339.62193980128166,254.94365048818617 339.84773571515234,257.7567347425067 334.89974377436346,259.0619288066118 335.41025669980115,261.0164991913259 336.71374495477386,260.44585118168936 335.9720517975502,261.98400367752754 336.41483923436635,262.6304197036131 339.9494427254621,261.737382003585 340.9330640450744,271.1913866171355 327.1625258681662,272.7684314962717 315.04745530344945,274.2532430781442 307.33450125542413,274.98643331787383 307.54584743062424,278.98817021613104 303.8005678877582,279.38639486364025 302.9431099863496,275.5983294328089 297.1319624582327,276.22529762466854 290.3954560464532,277.3246699878748 286.5987126493289,277.7910858587745 286.002618483722,272.64723482766226 284.6523004424667,262.07432473780955 284.20896098350886,257.9448020839323 283.965633150951,257.7472102434864 282.85674420173723,248.39275215116442 282.089761720708,244.04697140633107 279.4352031784201,241.2703458395763 278.11606902754926,240.49466121364446 278.2009057676484,238.4401633634876 280.1927182321007,238.4568066524244 280.2043596780178,236.5212739535034 279.951368942071,231.91152219910714 279.9282646515652,224.98014299932288 282.76936145918967,224.79289557538937 282.57324707457474,224.1113960840023 281.1665607195405,222.96492337958443 281.067561369353,220.07382482094977 280.25767149506265,218.52474236550347 280.3710421532137,217.59571291311386 279.1888286717115,216.51427570448885 277.58950494379513,212.6443011975818 270.17474335981404,212.8792486452366 270.2660799468256,213.8544042467339 269.5111285740437,213.77580601461312 265.12911108794634,211.3377745263383 255.40068389322053,214.75987202223365 253.32934838221098,209.50217828397 251.90200876701587,210.21963106660513 251.18882008391205,208.3577164420226 252.13104538524203,208.11164330873515 251.4709171479443,206.99213889369832 250.53829019376212,207.32062028113967 248.33860682789495,209.41749142462078 246.3322132115002,210.68732529830703 239.7877773789372,213.24718705763718 240.55195745723927,215.1161061945793 240.05844339540957,215.39870696491425 231.32894907094382,218.72294973051083 223.2626136550891,217.08990979681244 222.44213503549418,216.57132095345918 220.85012547983175,214.88044946950532 217.73574002777255,215.7396998484656 215.4219378089263,215.37738206180484 213.52720068307758,213.45644852166498 214.79396529454874,212.58052939768675 214.69438415267575,211.54890842950067 214.04305506134514,211.40217628808563 212.26931508477816,212.00187226221487 211.0137571251686,212.76536400193908 209.64466053266273,212.82936958351627 206.86706770446477,212.0722733010274 203.16516114147973,212.57121804192133 200.39061575828913,211.58154044065498 200.37718530361295,209.43934700948438 199.21984331716533,208.1233035802818 198.64842439228823,208.10974452708632 197.89343200132362,206.51127294969075 194.60585519345986,205.75229605864757 194.1246552221498,204.2448100760801 193.4902885683543,203.5521526014188 192.86093149707276,201.71039850271927 189.5006913469316,198.7144054933571 188.67745107633203,196.059535993289 187.59811611480532,193.4825939197973 187.64038942795798,192.61007356274501 186.2735689940509,187.82586060933784 184.84890441398306,185.18185898665467 183.47610115346725,185.57236972010526 180.92151230600302,179.59834219848165 169.65795640512653,175.6002190368514 167.3137350081955,174.6459742395761 163.6977627942518,173.4235625042745 162.44789088982253,171.51690087073968 161.67458980007677,169.81142909084548 161.7684769273794,168.15508079287127 158.70966721126044,168.01399425486773 157.14419251113338,166.81248292189008 156.37645770965588,167.0032125594958 156.0308633882001,169.18334607133255 155.15106730834026,170.12581958208722 152.2035104733184,170.7892002423224 150.80489477675974,171.5860122479977 144.68789035693047,169.745033135401 139.65701357992145,168.3507722767169 137.56757069689044,168.1782173164101 133.1341863648821,167.08651062551064 128.9843205531792,166.94133589455913 128.57607785696956,167.64516969349125 128.7590366386863,169.19178525017566 127.61664627226659,169.88538262889938 125.59125084000057,166.58663342071634 124.12697860439737,166.2327411033283 122.14126806544014,165.2890835280959 118.41584585281463,166.08998211541308 116.46721481145785,166.10624197490483 114.88683267843656,166.7621634664779 114.9036776294717,168.45130105087696 113.79529933045362,169.60981303220905 111.29211014285265,169.8754013154321 108.58799521811544,169.14614742858964 107.42440747126248,169.19310793185133 105.75736524708853,170.88320639057827 103.43535514976807,171.29589545184348 102.28499149412616,171.83785014293812 101.825518875973,173.30032289256224 99.80490219233073,174.7351371218989" /><circle cx="441.6984819722103" cy="361.8942920435216" fill="rgb(100%,100%,100%)" r="16" stroke="grey" stroke-width="8" /></svg>