<?xml version="1.0" encoding="utf-8" ?>
<svg baseProfile="full" height="1024" version="1.1" width="1024" xmlns="http://www.w3.org/2000/svg" xmlns:ev="http://www.w3.org/2001/xml-events" xmlns:xlink="http://www.w3.org/1999/xlink"><defs /><polygon fill="black" points="627.9509783494533,470.8553511390842 631.8414426963943,470.1156093751571 632.6840580541045,470.25717009090636 633.0391236088735,470.87144323257417 633.7102063670156,473.24872338909 637.3815100371689,478.8096484975597 638.983493244964,482.7534579508419 639.4680369378729,486.88186331247675 640.2204654413672,488.0644208992297 641.8985598844421,489.6338688737931 646.0921395822592,490.3210941702577 650.6698307352618,489.54820160329405 655.3241761013333,486.4996126313485 656.4259594621869,484.0717098583792 657.0774990335321,479.79602734624547 659.2033767470163,478.1710728660346 663.7710782280072,476.53809117862124 671.1861276108935,474.50797053008597 673.2020946405559,473.1710526916918 674.1350883683571,469.46943710270295 673.7379702379183,462.36266229954026 673.9595886631578,458.26888666874015 675.1775766375333,448.75027014665113 676.1548246353495,445.33521330337345 679.6811321086859,442.4894911066925 686.6907619444735,436.4734602857423 695.0686084875723,425.6113333607875 697.1520327432703,419.3582390741408 699.3506526189992,416.1111380571347 700.3569504515427,415.351449886242 720.3670783587517,413.3208071618859 726.7283979545481,415.5066320141533 732.6154401347342,418.26395129113956 733.9435576725988,420.52800611902467 733.943540369281,422.2552430241518 733.0783345024446,426.31117826759976 733.0134830396377,428.7168811150067 733.0851211713257,432.3038670168775 735.2028288766983,436.29069921895876 738.1381631062618,439.98717915732016 742.4138589214767,444.3660768879431 749.2317826188296,445.8724142343682 755.685162060201,446.9512390400185 761.2781186069047,448.17637536405874 763.4664266818272,450.1883545533938 765.4770664784076,457.1896058020323 766.9788848323209,461.85621995948725 766.8734875151723,466.81329521443365 765.3638937799906,475.35288054849923 765.5431738419928,479.1629223711741 766.797886652872,482.10679232015264 770.3125396624116,484.2645119747054 779.7069274993077,487.43596037784846 786.1170303797614,494.191207496693 789.4444029578291,494.3770809696829 792.957598509686,492.19486498151707 795.7892255378229,489.6489829284493 799.2947844871042,486.0312050845463 800.1521351494379,481.46969408716313 803.4938779717249,476.16572665854994 806.4080550670299,473.65464451068607 807.2958587551888,471.62004811608614 807.9436508671499,466.6656762464776 808.3858804254492,465.104013452794 809.4892077183581,463.07146927035507 811.2695243777716,461.05102397078537 812.3891894801814,460.3595866873558 816.1826792852223,458.56069154635605 821.9600114262267,450.4399772426077 822.8374702488996,448.41635386199806 823.5116297575308,447.28789309492555 825.954187958879,444.1294757122771 826.1741613250854,443.6749333876689 829.7416797297811,440.28758072517667 830.8530598368085,438.9528406423376 830.8531242864249,438.04919498333305 831.731940822484,435.3477438931152 833.7274110100742,431.7475817453229 835.9450462494402,428.5885926751493 838.3927059019246,425.8973370040849 840.6282769070442,424.29274184931296 846.2103259579484,421.35187729603354 854.4587222056606,415.9375816997024 860.4852921238795,410.0629405105279 862.2638076272189,408.0322705682747 865.1499557159593,404.4327693409368 867.8215192325919,400.8202344234653 869.1459938120221,398.57402278922945 869.3599783417648,396.097214820059 868.6875880649227,394.7502960335886 867.9868960902376,392.065502900811 868.6590359513435,390.9367782704056 871.560142112601,387.7730439324314 873.1140773200958,386.63930349325335 875.1333714694216,385.7506029402896 883.8389197135177,381.208386650315 885.2669283293254,380.62206428294894 888.6587425744017,376.61378380131976 890.5458629024498,373.4689179493559 891.686429769381,370.52351643363556 891.720917988078,367.67243720965735 891.5789638631579,363.8666313924019 893.6515177144967,357.6584346035022 894.8039429310315,356.41819944414124 897.91558928299,353.77031781889093 901.8977622304991,347.97325122585585 908.7151060375694,336.37643514917295 909.7806865303289,334.07974906924835 911.1405521553191,332.26554436405456 911.1191812370313,329.8732773178165 912.3612321003762,329.2953132760923 915.295902645502,327.2705300725778 916.3658455961825,325.9872184534103 918.0285696578602,323.1319027564908 918.6666094510067,321.7632642723404 919.2696922259241,318.6002732552092 923.7510636356051,315.0314524028153 932.6540953446063,303.4682003054601 937.2269631047827,292.29314049702634 935.3086491537392,279.01601196337697 936.3059730556955,268.5945823082724 937.6765680741674,259.24597693146546 941.8983904612204,249.50457446295107 957.2411314595769,233.9146142136858 970.4830909967905,223.72478521312246 984.1297163097474,218.5562495342627 1000.3438772696985,213.32999629878174 1011.6837621597423,213.1465729311256 1016.7846081509224,208.20966849379568 1017.1495567749541,206.5853750344275 1020.6233470777296,206.05638783294455 1021.3397684361689,204.61226387165885 1022.391705427365,196.4498184510942 1023.2433217119752,192.98137835585595 1024.0,189.3479594020634 1023.1574708636341,185.4813760377629 1018.8814744874255,182.73164639622428 1012.5912363873895,178.57601184213843 1008.7479952980348,175.25817204064265 1008.1720626434818,172.88612177601158 1009.6380229770605,165.76762453795146 1007.7354283905588,162.1464273780208 1003.344119434925,160.54469456585343 990.1182503387874,157.89342994338853 987.3834559100941,156.88006174354865 978.25704313918,149.50313985389107 973.6811056571146,145.5839666775438 972.2562776926886,143.88078758021737 972.2481004423425,142.55357118750754 973.1724002755269,140.57658585139166 977.034699202309,137.97561383252878 985.1163319007695,134.22275892083246 998.0893382799002,132.19936846057317 1002.3260724189605,132.30035079465972 1003.9321972227108,130.13471993322116 1003.676827289637,119.90863599783916 1002.5237553911152,116.46360248334378 1000.0599752790639,114.29985823099906 989.4059089752329,114.5781437785846 983.7429211693634,112.60896137145801 982.2351921931635,108.5944080516731 981.1731982445361,104.99417434661399 981.4411649325472,101.40541182341246 983.2505382547089,96.85870897598488 982.9615926784695,94.48572349642654 982.4721016616334,93.06472565474598 979.6335130097701,91.93341990974346 971.5912296992942,92.33419117205415 967.2249990548434,92.33904626236688 964.6728556203427,91.94715214677319 964.1703278591455,91.01891494375081 963.9967258111849,88.82788943603282 962.3678463906471,87.86480117085443 958.8502451404578,87.86719495263571 952.1050259559983,88.15328809092 945.6582308084943,89.25709430706826 943.2438073096466,84.6047740770523 938.4178878000496,84.68850054928885 935.1039102697414,86.9153451793415 924.6071259067608,82.57150717430869 919.6576932195723,81.06050681268067 915.072233120423,82.21166746115847 912.7708412170433,86.0122248194071 911.4866799055529,90.96502252977115 908.2538553782009,96.27294856037474 903.8855100298623,98.49863583043316 899.149409865751,97.55975260859208 896.499715856953,93.60935388218945 892.9198082604858,90.37233861153811 887.6173926270682,90.72689762489301 884.9630339933254,95.81639475918786 886.4723051704667,104.93886431485896 891.4112192847563,117.50754342654022 891.7678574941451,122.81994151180527 889.688878183408,127.40937897353564 878.8793415339761,132.27651384249464 867.127204423189,134.7668345514615 860.3242529969465,134.7533476560174 851.952880760915,132.79667872067688 846.2955481591389,130.34392268490592 841.1331480327464,130.5486428783159 833.4108489134693,138.74886156190485 831.5114617055762,141.5071819750404 831.113048220729,144.73777873283734 833.980180056825,149.87451126763955 836.9856920705546,157.8506854438137 838.2356277271056,164.49646406687953 837.9562956917864,167.54516360634904 836.8026926885584,168.58254251531093 832.7215760976693,170.29665145238909 829.218281129715,170.82675338043936 825.6411658877668,170.35045250311128 822.7792420031941,168.15666307696227 820.1234158192121,161.90315137835955 815.0061335316299,155.14504225183663 806.7704755802308,145.14929191202606 803.5538248010214,143.92113619014629 800.2597006193614,143.9159891733088 797.7837837958202,145.59983958831714 796.4214889471372,147.0629626285758 791.0958361319503,148.29505638851316 783.2549404830828,153.78384017574285 779.0162716836096,160.38653584186164 781.2017186269535,171.05505687147667 774.7751551791828,179.52733443013165 763.4750176960139,180.93011760791836 753.0372301689875,173.10938943307463 746.2109823434447,166.07209932343062 742.6257942019502,158.68108796233417 742.6358271019516,156.02178853586366 747.1452778207424,148.05551474301961 751.1311888248567,138.25811239329425 751.0647346443412,133.48176162589414 748.5841838054212,130.46592583137402 743.6320305826365,125.90714645093169 737.1763100556645,121.42225580354028 730.1391522086876,118.69462314625912 728.9227126891358,119.6296923121248 727.3487632663781,124.97106400949025 726.6555924786836,126.09142282742471 724.8266467258183,127.13866977472145 721.125710871415,126.38456872101062 719.6247315645297,123.90904300291521 718.6495466338799,121.8274818772939 718.6556232814745,117.91630547556156 718.0758319751774,115.54464509437025 711.4286246387459,110.24480164939155 706.403798172474,103.7196040457876 702.3055340807588,96.76318410245187 700.798115131487,92.77985941644982 698.7861335265271,90.23460732597471 697.7379382887234,88.05017345516353 697.3857250401318,85.75584135021404 697.2789339354936,82.73862214633886 697.3848156494831,78.53765079458191 694.6099686764857,77.21842509198666 690.9788554102494,76.18338065167296 686.2320299537091,75.912290119121 684.2610169525387,77.06093287227208 684.5112126371426,84.74066467506071 683.4638835343727,87.04451587442446 679.7652655586869,89.02829906095377 667.678220728671,91.64679878523754 664.6127984000499,91.83616457100908 657.4916668157165,86.8335677092407 652.160229691328,84.55475261822693 648.1632967120908,83.63850325223058 645.6795500433416,83.64529855604133 641.0033305692294,80.4630286770788 630.1376378618646,80.70016478037513 622.7238597208939,81.51109919874051 617.827091566126,86.25431242863357 614.6671260414702,94.9023524410369 613.8797388730673,108.2455225288374 608.2027976915698,116.74757372205084 603.0030898221631,121.16856618703622 596.5326451275974,122.44784652682159 591.959830453994,119.48217691445416 591.3364699334185,111.627517361716 592.4536437742989,99.22082552855369 585.83671275143,90.2961263253552 572.4521613843679,85.16379414608201 559.8430114553506,84.88841010736564 549.4506123259189,85.37836230793494 540.6398362297201,87.6054081953352 531.6901556085792,92.34947223113181 527.5190886621592,99.60885133219176 526.3717456005412,109.66189265138934 524.0726917577167,111.96250802508149 518.9760636112279,112.54307014110054 512.8658800828041,111.97246612009837 504.53965796487114,109.68180903106008 495.2137536546941,109.68589408789245 492.19581207742596,111.62257991265005 492.1991125791356,115.21184876766853 494.9965344293528,123.18081500260365 499.3712154402714,131.36506525976768 499.58509373266224,133.44629396732654 498.0795493354248,135.31355329770963 494.27487556849684,135.31419738948188 484.0922220123702,131.54179030321683 478.7085056976068,130.03061806154022 470.5313856123802,126.11247841766408 460.28777144382866,123.26574628371344 455.8454556530974,121.71493140447296 451.861898893778,121.24055404355585 449.39674247245256,118.8710820016172 444.3766168149164,113.43943585717301 442.9499338163291,107.37530081472016 442.9498341439876,102.88558200802169 443.33760547953483,100.62460036838308 447.21214311571964,97.22547547584077 451.8685496652399,94.35860562162816 454.3366222482193,90.3761618545443 457.5218749085147,81.19756414785144 460.9012079649101,67.58846745657905 460.3871388862502,65.11622939909705 459.1371523062036,61.419407515949615 451.93604715074764,48.77812668999957 444.7603828644692,39.80862771788327 444.0932364063233,38.42801527752283 444.0912664303796,37.13224838063087 435.17955000446653,30.3054192633507 421.5334874235446,34.34671731340882 408.9949244715201,38.88321963333516 397.87119854886595,42.94308911809816 374.5140562987083,48.21098117227854 345.35617917059295,59.16248730302209 341.9134995296391,58.074382015445735 335.31708629987884,52.76589815930356 325.59303536926143,50.98415825173021 308.4788805020228,51.44985251106834 291.16084709053524,50.782065659364264 272.03159424129336,51.167413820812214 263.2288647618056,48.038421702874246 253.00665432612803,38.17107780981877 241.35921818407115,22.186276252144467 229.9614350156321,14.532943000732018 216.97189532749962,7.015651987677927 205.48783784793721,5.324750602367828 193.10106745101757,6.028239902260964 182.0284908386099,6.156499266853302 173.38239838555515,7.121852087864113 162.66738623649894,11.901618223282298 152.13139797383462,15.954455330963413 140.96567474668456,19.105401984132357 129.01603566505597,18.178754569722912 123.21250744929183,15.05106182212046 107.97678118795012,9.707431215632994 100.9142473209539,7.510602801546554 74.08365450492738,5.286235661134469 67.48287473385416,4.981095994129248 67.61438374690692,9.81644895268414 65.13114153413441,16.449512991168092 58.25892529217252,22.247504209533872 50.91405243965356,25.922349119742933 45.48651980604058,25.51336065557018 37.35425424871993,22.01384281019449 36.328102930858705,21.390731485717595 33.50902614925226,17.930824877487453 27.092510070644884,7.084223756949541 25.36756570402504,3.6179035938936863 21.312511933956625,0.0 20.04891848955727,0.6126064424738047 15.815959150857012,5.321854246641919 14.249704938802056,10.33141031745663 13.163290891817732,18.80966499247478 12.063568841858478,21.322455215208947 9.399611971900365,23.65722460276976 5.325946135642926,26.001252729261466 2.0361066200447766,35.40283433067924 0.31371676518599817,38.069493167114786 0.0,53.61003842267439 1.8712464063900984,61.46493140115422 5.146815231297625,69.80307487249974 8.121130015217807,75.30043822220335 10.934297384059393,79.3931310307184 13.90521213953354,82.38998036540698 18.769847611603385,86.01145877915326 22.05113864011668,89.4863664299076 24.297666819256936,92.6454632233665 34.65949953019181,115.11510066756398 40.34503207806615,125.94666532907422 43.44839832021904,135.50042841516336 46.558783478836084,151.53560713067355 50.08817024416669,162.13454136275402 55.743107561187784,172.25339069496192 63.33754473826614,184.78393176307486 64.49956401275331,187.58795663958864 71.33454983112837,191.02768024445282 79.02434576515193,193.71043402304127 81.84468801816037,194.64535404728292 87.33394543771217,198.9049373401479 92.66930504406803,199.4632788462427 94.22984656125243,198.65671252368315 96.22290582457678,196.83095773324288 98.05144248142062,194.70031610631884 98.7862577657333,192.63767924044225 99.63841515795595,191.54527958481577 105.40340458208625,189.09956212929166 109.45384983807108,188.7978040787932 109.89032021839236,188.22404808940246 109.56526636859432,185.47631070463842 110.17763402767525,183.66378679202916 115.5893927363425,177.1131311478806 117.20221455654587,174.97885331413084 121.77256055782185,172.98704031251538 128.8368158374361,170.61174121234166 130.9736390471373,168.93973215102392 132.24793723699074,166.71333583556486 133.97647520526328,165.13492573869354 138.85829664371047,162.3278341328882 142.67589074523906,159.48839432807972 144.08595234537432,159.30333001825568 147.99291029773357,160.70001912617403 151.510537828931,160.696830355597 156.94109794144603,158.8970636126985 159.4222125767407,158.31397191222504 162.72920387473462,158.7777634474869 167.86718698646956,162.10738580122563 169.8862100767286,162.67549104004917 175.67848623966836,163.13122239618679 178.51837587655146,163.98683162312858 180.42425519815538,165.8873261428186 182.54699230683096,172.51888839970695 183.65999308070158,176.5017536768122 185.49683274083498,177.43008984516217 190.3146800464112,177.3476155018215 196.49973061768026,175.24894297888522 204.81368014227291,173.32764136832247 213.12046370184194,170.45205618651624 215.40642104058324,171.05667049975705 217.79497176678387,173.04248068349705 221.82548402715165,174.56133558405168 224.0768808743744,176.0617401688101 225.98454298926723,176.54500124047513 228.30533520459332,175.06436461905048 231.21523307333783,174.3024789833661 234.63009748096408,173.86619231913306 236.88682726677655,173.37411534335672 238.30110276610344,173.74790418412402 240.10262507841574,177.92749607267257 241.53596703626903,179.50426853903127 243.64982838215818,180.29002370396478 249.40105295836412,177.79180047720428 251.52842747066867,177.7161158282541 253.73430679580946,178.43040470533293 255.28735873423614,179.6108018989932 256.7593566284669,182.12986772706608 259.1724352464658,184.58526785913813 264.4619832395411,188.57626800334322 266.64894327436554,189.55713851469932 270.8781959451944,189.9355230041404 274.1097339560564,189.8399163452683 274.86934082048066,190.0803041290044 276.0538326039464,191.0923085312869 277.2728993672397,193.97388618388936 278.65250942592945,194.98434689330253 282.2368067403767,195.36735242707715 282.9694738248319,197.4306946499796 283.5458822653547,197.90148766732284 285.3756144672832,197.61732835713474 289.06434925399805,195.68865450620768 290.4491956536964,194.8118250242423 291.31781157151613,194.754768349732 292.4594790295097,195.38733065139377 294.2561735788966,197.41081225296074 295.6382524088291,197.60534772897375 299.24760004540644,195.9342442215003 304.27364524428015,194.89170794227493 306.22043549278004,193.93489107997868 316.49518653125847,196.68186652326534 324.50491172179994,197.6440923748135 330.65778719565134,197.99988084700487 341.4150721823078,197.0025475002824 370.9886256238681,197.05852432631355 381.13639763103765,197.91384558838166 395.0880630012462,196.01796282249865 409.4577050103903,195.18498688062078 414.9472094297042,195.7226824408741 418.31999881515407,204.37839944629957 416.42714184355816,223.84578089442226 419.6393658076607,230.5467172826513 423.9318311356455,235.47931450267595 425.03468572756134,239.72369565007014 423.148242675734,254.16964816906236 419.0673801787098,268.29169472308917 422.6636961171632,270.81008837855364 436.62238488596336,266.5940262328898 455.7338326696678,266.0072019341749 466.2946237593324,266.55031981270275 470.49640545751953,269.077292636251 476.1181511700123,278.835040239113 477.90907627119367,290.61954940691123 479.84003058645254,298.78838197246193 485.09438400449926,302.078259185596 493.3287107474336,300.8669515035373 499.8319298116815,300.82949402263785 507.32441614995645,299.29178926466045 517.2061897473538,301.21593645255984 524.2249044038673,309.79224803393913 531.0544727752792,320.90823804414686 535.5938010333925,330.35242133419354 547.4498095944963,346.9111192441203 549.6094808989675,349.74450588587183 550.0069706599854,346.43833075159887 559.2410313169319,344.65083104158174 562.660831267033,344.4247197661497 564.9122546605033,348.1197080271878 570.0126571229217,350.9619603981723 569.6928907665185,353.7340509912449 576.014246255683,357.6365784200767 580.8862132289516,357.0859729051728 582.2488425873198,357.94882859431004 578.7528251556348,364.79321952635985 580.638136403077,366.78490807120824 582.4255074466153,375.0509623828336 581.8988991910278,381.6686249255871 585.0167551596661,381.81680398245356 585.7860626420008,383.8968291508722 586.5827157587478,382.6900617252917 590.2048501279312,383.02740221239674 590.952762815065,382.07681486693764 596.1901810383805,382.96504787278406 597.4725254933044,381.14132123857587 602.0482819234313,388.44452533823863 605.0418608759378,393.3106965720575 608.4996659676957,403.33149740710996 608.4995871947151,414.02090126227677 606.1315912156318,425.81137362688366 609.9003843647657,436.0014181667425 614.30902317005,445.724941585708 617.3110408779415,451.21038978531044 627.3997596454147,462.4402544391413 627.9509783494533,470.8553511390842" /><circle cx="652.35198774086" cy="229.50837540034303" fill="rgb(100%,100%,100%)" r="16" stroke="grey" stroke-width="8" /></svg>