<?xml version="1.0" encoding="utf-8" ?>
<svg baseProfile="full" height="1024" version="1.1" width="1024" xmlns="http://www.w3.org/2000/svg" xmlns:ev="http://www.w3.org/2001/xml-events" xmlns:xlink="http://www.w3.org/1999/xlink"><defs /><polygon fill="black" points="90.34216778589652,88.12754813984861 88.4464678295129,81.41822472917954 82.34722915474873,74.81494755053177 79.08372884302081,70.33906895216455 77.62849302384997,69.1430177135328 71.11462390839279,65.8314214130163 69.4622244872925,64.26382942275166 66.31917771635597,58.387656640780165 61.100166681698234,51.89589038543647 54.21117014422553,45.942275462537395 51.785980789673346,44.61052295949207 46.516963145243444,43.29845156599674 44.587173509579486,40.17147388782848 44.3746115819919,33.30058540028813 42.94547792600269,26.25353032426301 40.166317396376755,22.962162391951097 33.1461635583907,19.971716158805975 29.89204096510461,17.571423484663683 21.70623196563236,5.34767419277955 20.28111262848953,0.7834331156007011 8.08524490941165,0.0 2.108467798027552,3.1247886899546984 0.0,6.954329324124046 3.783939312150161,19.8314745867267 5.880676418713407,24.200213858483494 6.170224984367257,27.217744090360043 5.518654773432378,35.1071176649931 5.583740264101072,38.69846403726888 7.118845261213365,42.197799623269134 11.091953333149368,46.20420718481353 14.137367437942988,51.17552425208544 14.465198920779988,56.205416802607715 11.941759447710046,61.87631722795288 12.719031177580785,66.27097480139412 14.917205773971075,69.22795501961878 19.935983047558224,72.78683267749977 21.623665601103717,75.49289966260437 22.191125298430787,78.66435734447612 20.97743012996479,86.84480425253275 21.641708687963977,91.18913055572864 23.62082086421869,94.83296369439859 28.866379950539077,100.44394073558499 29.959661235055364,102.57410835752444 31.17363661361044,111.35933019926028 32.800394318125186,118.75909477491552 36.343967582443334,127.92935156450403 38.92419437547001,138.33167363873747 39.85633995698386,148.462370655516 39.62136764341237,172.3011815358385 39.37173503153194,179.23070804318445 40.68136017455137,185.71117538865133 45.79758860840823,198.40343647833924 51.4007390426498,208.671136462277 59.034065760425456,219.9794793703818 63.97078027553565,230.29951693910868 65.60118273980726,232.14940693441463 69.91475046916693,234.5087410953263 73.68209467210355,239.12605263976945 73.78240885753142,241.14287419485368 72.26982284850627,249.37271018309775 73.39874025715629,251.8610352679608 77.91637537882504,256.2910213173226 84.81036162874072,259.6594318866779 86.67418321852632,261.02587832790994 88.41928818279706,266.2188208883226 88.13890944797816,268.83030719183125 84.99662171316785,277.1243479666433 85.64940642236955,282.29344256395416 88.59611799469813,288.20471584208644 89.46465958462754,291.58290505688535 90.00422923824227,300.95907449768026 90.6909198622703,302.6171536085038 93.8012286475594,305.91177819344307 96.1018997878922,314.0233649521348 95.82000430206197,321.59673139865913 94.19848830372041,327.71930093355604 95.18546261480274,331.562233201184 95.27239716935634,337.88521802384105 95.9200642053054,343.811493125787 98.29111289550274,351.48680834953893 106.37186476832309,375.5748218345441 111.64720308413575,387.0431977790465 112.83913896610645,391.4874363541819 113.2676393732963,395.2749478194055 111.83325293646826,413.51993481024454 112.2461511173149,418.6786546536406 111.6308962946584,420.1409865446492 106.2040020512168,423.32670961957456 105.01888396095194,427.68354337671315 106.44471807716556,433.87484041376376 108.18453272027749,435.93293842764444 113.23354826335296,438.80109436035116 114.99031038125318,441.6618375691112 114.91016249161726,444.1286685419467 112.88181422984061,453.3963355754295 113.10446548964954,456.69924298933176 115.2902700287588,461.03420858460095 118.61693663434268,464.0446604416327 119.83449308762992,466.2700564414621 123.51376235735934,478.0590670818258 125.89361469271239,482.2341545771228 128.3957698837034,488.25293557469774 129.37162250902327,493.1542651641713 129.54451170605662,496.5583083818593 128.7122893584895,501.65387488708313 129.30747768332776,504.26022295283155 136.65466964596288,520.0842070779058 137.8161743587611,523.5521735405737 137.72395875475695,527.9629009284049 136.0067460089873,531.3267019466941 135.21650081644705,535.0174641037847 136.3195435300381,540.7791911103388 137.8510392745427,544.3417595362708 147.17175129632983,553.5268059726568 149.25664278652388,560.2640424102719 148.9871691096562,565.3998907212422 147.1821108495736,569.0453146947439 147.8276368015838,574.4250717032949 149.12613190850865,577.0280001476661 152.65760420705126,579.6033476817015 158.119814404148,580.3806858805071 159.4399758150013,581.0661563546618 169.04856835426176,591.1240967205558 170.93845788718016,592.6711383199541 177.1625257215069,595.7699685265974 179.19789296367014,598.5731694360288 179.03481057274618,607.3269990242985 179.92468186676547,609.5371740579028 185.35096923685785,613.572558447502 187.78426152733152,614.56798739672 193.12445406834016,614.9553613245432 195.96416663386816,616.5769021242143 196.77328293047887,618.4508238054946 198.0124556761313,626.4253200198939 200.7088636143184,632.743269284545 205.45683467376531,635.7723945197281 203.3143451067228,644.0257159762647 203.32080823928752,652.5176780559676 204.41028166787797,663.1503012741604 203.80432986989038,675.4895704228973 203.81887894623654,685.6016225448531 205.9979388185585,701.3248752567674 209.90731500451045,720.7481099500587 213.14556103525504,729.6752288946319 217.40280124150863,738.3348019599147 224.499774065751,750.5068349119074 235.33221349094973,775.9624515246958 242.43468487977032,787.4635178071069 244.31947632607688,793.448093004629 244.73554900937006,796.7755435761818 243.86513014783543,801.0081061965642 240.51675619044724,805.213413117778 236.94057955801475,807.0313969087383 235.17604995095815,809.9392606394034 232.76621318052995,815.5487913595405 231.84282513766328,820.730139817962 235.7981110323388,819.692467011292 236.9873216903093,820.2367700987368 240.50258752080225,823.9675386123643 240.34990633553753,834.8876407014584 239.89638850565638,837.9229680663572 237.97209262887114,842.908710650246 238.01063339094773,845.6216839019916 239.110370628518,848.0901471407952 246.18260042329794,853.2991110042257 251.541976295198,861.4654127875808 253.17543801010675,867.5526332761541 252.51324417826947,872.6954366993402 253.3731683538349,877.1504145494977 256.91004092764047,878.974910963316 260.2121636139711,879.9302984542643 261.9482798681975,882.6090800156558 260.53446870988785,887.3895350845232 260.7232985634608,889.1848887394841 263.94071808987644,892.5353846690849 265.8260035316488,897.0731054291587 266.0558918450673,900.7789787732387 268.76583022295017,904.3800656218278 270.33604062964133,905.2637015884211 275.4124179821299,906.3400099251339 282.29225111826304,911.7193988439078 283.40170165503946,914.2405504873719 282.1220049534656,917.489202704057 286.4101104555367,923.6766675968802 290.7474942685337,925.3362025507139 292.84449216237635,927.5214339128946 294.3062118420311,931.5156484275902 297.7577315016403,937.3774315064489 302.48609767782574,948.0865449394432 304.3177372314722,950.7284508515581 308.6666566098112,950.4514454866365 310.5935623207719,951.2144230793022 314.37452872803675,957.9875199579981 314.4995183969555,961.8052215718013 316.8347758973722,971.5426874618156 316.89169529911305,974.7267325103847 314.8497305940743,977.6734189320939 314.4074679601018,980.6185061522543 323.2690902932355,986.4064228241865 329.43679595329587,993.3782881653625 342.6601651749822,986.8292004108206 346.20388388762694,986.019452235634 349.36445469097487,986.000489869992 352.15629707058235,986.9495421392114 354.7208459913352,989.3541145058783 364.40502973641435,1003.3437615645166 368.11671188475555,1007.2786761207205 373.3643337313315,1010.4876902377787 381.492071593675,1013.4219909980366 398.368132259082,1016.4032684479274 416.95341639132994,1017.680033369324 424.2185185581431,1017.1572106291729 435.18885673096764,1015.648258682036 438.49032439225897,1015.8861672093918 455.67703963337544,1021.6256960521425 465.92393401127896,1023.8944487655305 469.2040435791325,1024.0 471.8870037230351,1023.2441670463702 475.4718779178545,1020.6591950494454 480.92318056701873,1014.9703671929719 484.53459456833104,1012.3253086187752 488.7114731240584,1010.1343499088684 499.0330461549318,1008.2890683297069 501.9030883161433,1006.7475800032954 503.27594441844826,1004.7310997726478 503.9285359992994,1001.7804715489635 503.8551231393329,997.5038409592436 502.7142209327236,988.3526763489706 500.1631113418323,977.8910676364308 497.33859658617996,969.6380250797675 493.6671567901501,961.7039920530488 491.7331365484828,952.7367326423769 492.04244663693237,949.5904508500934 493.7234454122661,945.7914784948604 496.3085970921073,943.7159255868141 499.3660522943978,943.227478211016 503.17166024603176,943.7977662664051 506.56964360840965,945.3621671876731 512.2554845317783,949.3798851080228 517.3245102272598,953.8357410981165 521.6741730967714,958.5629521737972 527.6677162892997,966.3056387781924 531.3323823197774,968.9047526369263 534.3570990014761,969.4064698438158 537.5170666622189,968.7831196500209 540.2772921079661,966.7806212066828 541.8865483133555,964.2276886752754 542.4885261919428,961.0918906816435 542.3554111533504,956.8787151398282 541.238545148874,950.093787371408 541.4327286552889,942.5272833493677 540.5499565300222,935.153262284075 538.5660740169249,927.4704187462927 538.4676831945156,919.8519556963889 539.4166872848187,915.9021872389077 541.3409844108797,912.7798366502003 545.4505628164331,908.08988245542 552.5129788064381,902.2544398696148 556.091457204668,900.1282794430405 564.887775267939,896.0883266111474 569.0270096373686,893.2519268149331 572.2584945328673,889.664173551782 575.3288553641408,884.6055299359832 578.2172291216154,878.5278639979238 584.1711762813345,870.1000933475684 593.0199357564138,847.7435137756271 594.8151918194283,838.2491374729942 596.6279088556623,837.7248253211025 599.5644837697083,838.4700349862284 601.3862629107692,840.2928051014958 607.2453775629816,848.7336049986304 611.189640732577,852.943376264539 611.5659597871293,857.3322381357607 611.0034751286998,863.1093854564507 604.187092900091,881.3163157460631 603.061579809335,886.3833412425895 602.8113064816687,890.2385231269092 606.0428017215381,896.7166276639215 609.2253868668033,897.9916145909409 611.7462113308179,892.4675906724663 615.5587963431507,890.3356665455944 620.2412911956269,889.4819329643395 624.291588653126,891.6055259041447 628.9534780072418,894.7937458644828 633.852947883348,896.6958571181594 636.8111389395867,898.6012742626742 641.4273054480807,899.5172200125677 647.3391977190328,899.5116317949783 650.9903356994863,897.5510429226651 653.2363561354323,894.7251632275974 652.95782831417,889.9417750300495 646.4903641865976,884.8787689088338 644.5234404650736,881.2201551355713 645.3645914783943,877.8417099650972 649.0257604187024,874.1859813199749 654.9250416312954,872.7749763988688 659.7098442972313,871.0891959445032 661.6734867389665,867.1491497998377 661.9620037466349,862.6538919152906 659.7043182370751,852.8028978493319 659.4246520809796,845.487901581499 662.235680690079,838.1619045292782 668.1484090827308,833.6616928668116 674.3376626559254,832.8258726602915 680.2429217257471,833.3848161365793 693.469286001108,835.9214188455154 706.4655595085051,836.0141285473285 712.7482939498126,834.933699293195 717.7320777722017,836.8279904893649 722.5419473264282,836.8444466691479 727.9467437925548,838.6522575610994 730.1386542777507,837.957663693917 736.9240112877242,831.6904368157868 739.608109238521,828.2391562450841 742.1405808671223,828.6930111552301 745.509032997134,832.6320382851186 748.4833379551292,834.5555468439584 751.8094919221801,834.7720896336535 755.0977071664756,833.1724380094105 757.3655451265645,830.6626124048046 763.011607098927,831.0858794808178 768.1286833666427,833.0221919372495 766.3198937389662,828.7404129775833 763.4904811415364,825.6242290570165 760.3969515614428,823.2287975427639 753.803664435974,820.7394929679942 747.0539728352502,819.623599503516 740.0757547094288,817.8950872712171 711.5665361120986,809.410484866617 706.4652469992099,807.586526982298 693.7447142198927,800.7003551590474 694.9390709284075,797.1029894245479 693.4842542545431,794.692816423511 690.3074441485102,794.5600672852312 685.1319113936476,796.027652812577 682.9685517068192,796.1496290962785 680.1427170344989,794.7581985071072 675.2745988463502,786.1324085261285 670.3460618796944,779.7022615665588 669.8527873234038,777.546306302846 672.2078548560577,772.483648013239 673.7399811734372,770.3136861472047 683.3539309701723,771.4289040626711 690.6164955903897,771.6016807942071 695.431085624549,770.0476271999455 698.8184969753245,767.5942916544163 700.6543956756224,765.3066337308278 702.7067501605567,760.851139160131 702.7583873429672,755.5511184047957 703.6408938688332,754.8665411974454 706.402373507013,756.1554586175105 710.4119943672094,755.991030765591 713.6185049829135,754.7074208189542 717.0376214628649,752.3145087262931 719.9311073212273,748.7222523294688 725.5988145673512,739.042603857272 727.5964730534513,736.4926784864966 735.6220952549063,729.0470689686008 739.1355833155083,725.2685276039609 743.2066900818689,719.6983533693751 744.4175151069086,717.0202077267807 745.2260657908358,710.1377082001534 744.1645545819433,702.3895625219175 744.3620928276205,699.4567817001832 747.0464216017867,696.5554859253714 749.3871261424055,695.1916685132751 760.9917465806695,690.8502609389839 764.0742983943925,688.4951477111215 765.2795349159915,686.3744368144594 766.4958977720526,681.3907266145104 766.8127883563936,674.4733404759643 768.0265484921376,671.4560998497807 770.5691723105992,670.0564146322416 777.4568870423186,673.1360282534088 781.4583177363643,673.72799141063 785.2646896855814,672.9279428985062 788.0772837174849,670.5173237170673 793.0865484979172,663.7048383951508 793.2927022723287,660.5084171235878 792.4822691800653,658.1047525833536 789.4758973153522,652.5006492907997 787.4804857539136,646.7027136467121 783.0675145807579,638.0977297866453 782.4656319235365,633.2925250693058 782.4685765594086,628.8886474191696 783.4646794743459,626.483344428349 786.07607977777,625.683209428622 789.0753708693724,626.8720846416495 793.8903958948172,631.8718085715914 803.5078600767015,639.463667588536 806.7174282389129,640.462255355649 810.3281909693087,639.6525722118574 812.5370620945378,638.0535534397104 812.9317506109039,636.2414801603394 808.1176066636764,629.0532661360496 806.7223799992533,625.8492076926046 807.1148514476262,623.2422318809904 811.177449396976,619.377831982296 816.2933810842885,615.9716415952921 819.5012330393174,615.0638894256451 827.4563372946299,613.5905491758305 829.2560789166968,611.5204471003212 832.5286747011653,609.2569906640953 833.2140031278041,606.9804945524959 832.1576244409399,606.1455394558039 826.490940893405,606.205223973006 824.1416708583309,604.080973354824 823.8922275932681,601.1966904481708 826.9129359930272,599.7559342630873 827.4952963996794,597.0113409289786 824.6753937855265,594.0689363542906 820.6880868506511,592.7580072825167 818.587794330435,593.5745077149372 816.8675772638347,595.8412051904008 813.2707253722627,595.2270546649664 810.8077038736134,591.7265945478584 811.2632164707927,589.6739934864919 812.8556067336019,588.5362837718505 812.4707742964308,585.5263880912861 809.7461433480931,583.1988204290508 800.2813749389753,583.6666418407988 794.4616248080551,585.1408475740851 787.909943900155,582.4790868718998 786.6852594098901,581.2242248746481 783.9380795363761,573.4337295949106 779.9989034938525,567.8017619365064 776.6927267248611,565.0690497376893 767.7710587116882,559.502289348452 765.838414688828,557.7734240950008 758.4631394743402,549.1207919704464 753.2727596532385,544.4069920344206 748.9451358973021,541.3477256252544 736.0868719489712,535.4784727839374 730.2925665710362,535.380931106382 726.2591013745086,537.2480666635172 726.1635907491409,541.0558579397295 729.0093981949292,544.8959371152621 730.3891473554897,548.9214558096397 729.9692685467584,551.2832360156185 728.423497046571,553.3063508040585 725.1791485335638,554.9852306547439 719.9483815092871,555.4656294772524 713.7086970174978,554.6213541623174 705.7066136660089,552.3093777555293 698.7665278490732,548.8887203656942 691.0493343048257,543.4259764610617 681.1870884687282,535.0750796233933 674.2761416144633,528.7496315409678 658.8804445557844,512.4473000820218 655.7375807437377,509.7903940139415 651.4721928135889,507.1374064397438 643.5931903155921,505.34888527973135 631.1450838730693,499.4158417177016 623.8065920181177,496.633927750245 614.1833838904338,491.3312529820463 608.0089118567101,490.5987894654322 606.1348916422959,491.5670288579314 605.174362859386,495.2041660184368 607.2686293054779,499.8514633258179 613.892949530909,506.03976018903006 623.1474388552175,517.3513881968786 624.6921291033317,521.6766244742425 623.8114433373428,524.8248473814023 622.091791092017,526.9399789193479 616.509308501594,529.0955978650179 606.8633285849062,528.5808098979755 603.997171349367,527.8777013921917 586.7663068598558,521.23582962628 581.3944889106147,519.9157886237645 551.5080382282033,516.3727860268116 547.1795801583972,515.1796436657323 543.5004506047868,513.4920175048821 540.5134082403538,510.6284722504398 534.4212110405159,502.4663796268154 531.3502977233146,499.8656088281515 516.476588413704,490.47165297389176 509.4463448999856,485.6524166870265 496.8721803481112,475.1736843196728 492.01881558789864,472.5767342941133 489.0737325228575,472.0150387141488 480.8735826857084,471.52312721343833 476.91138906579437,470.5325921224196 474.44031006122714,469.1318072312645 459.1895326182715,453.4173154921456 454.2962799701911,449.08641807287677 446.1157601400427,442.73559351306585 438.4157000891373,434.6490751122859 433.3463245824287,428.86180225593284 427.77667835657184,420.24362067824177 427.11985740461233,415.5839427401131 420.56595833401144,408.71841380946194 397.6901069091693,399.94304247372145 369.73476570089855,390.22277960220583 362.17375918631427,393.0955137680994 357.2291026377812,393.73570576674695 349.68138209216835,391.119150944195 347.7758518858189,388.6422809571693 348.3989329185822,385.45041320868245 352.71938868508266,381.1379077642414 354.65021170892186,376.4116543970464 353.9102842846746,371.10666744131333 346.66013056605726,359.62462512661045 345.1728088126479,355.1780818173771 342.58946986152074,351.6352164500556 338.1810106362396,348.74702405571054 334.9152656485193,345.46045955560635 333.89582156478826,341.9796146686432 334.43912933208725,333.53128266780016 332.26461893330014,329.8006038974512 324.52707318252436,323.8283553536113 323.5638784711635,319.67370262737984 324.2143668871238,310.05861241238995 323.7968079061947,302.07080467601054 322.5064091267066,297.208079513441 314.9407590133257,289.560915940869 308.101803511233,281.50329310123175 305.1067556108018,280.6154837367528 301.2402300670339,281.81664733538184 294.3553547897115,286.6468435900292 290.334380792461,287.39034254745604 284.0736574075873,285.67926064475694 280.19526422347457,285.5765207202038 278.24786867978696,286.42171053005234 273.7009401727563,289.7513045386635 266.165428479759,291.89138593195446 262.46371129062027,291.68491123835486 259.4291823430564,290.54386777401635 257.12473285457185,288.66487469469973 254.73288837892667,283.8010338449551 252.67338125961984,276.52586340986454 250.14781929697074,274.0679511300277 244.925473039131,272.00218739971774 239.13348714496115,268.2308901099045 235.13879845842212,262.7915622359353 233.6779052559501,258.7629599494759 232.15911635760662,252.62766080432277 232.57259190553,249.64836497545173 234.63542270277125,243.66202856611358 232.1853510117317,232.3774907738383 227.58750933187977,223.61969908003357 219.99794278429638,214.93028376241728 208.53212489139557,207.21845952320916 201.50735119231328,203.33477706137944 196.00643022975575,201.5816098617181 185.98941906734362,201.00969470097255 179.37084932022745,197.751773661411 173.60108998891093,193.61413821387737 169.65739522749652,191.88938911613832 165.24179220088436,189.05914329722373 157.9804986228599,181.72081983309374 153.95486637962148,180.64675473002205 147.44740795259486,182.558591447225 140.66300295099055,181.93912699671102 136.01973497556713,177.71568898752832 134.57013447118672,175.1108867156554 130.94790746238706,165.45105386875423 127.94825291116408,163.37111254511467 123.17890763364045,162.8269893028031 114.59675921799571,150.00589184840032 112.60859379580704,144.77258706416228 110.99364650564482,134.19731400506214 110.92683261765141,129.8072968979277 111.6989486703196,122.2658570866846 110.6867547390884,119.82040997632612 108.75488600693299,117.92580771205098 104.0957699885365,112.07034429920509 100.04243162636519,106.40637473450465 97.21844405916262,101.54012916478825 90.34216778589652,88.12754813984861" /><circle cx="477.0045323841625" cy="707.395569863301" fill="rgb(100%,100%,100%)" r="16" stroke="grey" stroke-width="8" /></svg>