<?xml version="1.0" encoding="utf-8" ?>
<svg baseProfile="full" height="1024" version="1.1" width="1024" xmlns="http://www.w3.org/2000/svg" xmlns:ev="http://www.w3.org/2001/xml-events" xmlns:xlink="http://www.w3.org/1999/xlink"><defs /><polygon fill="black" points="1018.6879448851795,848.8630084963048 1021.4651113409983,848.1673127000308 1022.8383009568198,847.0108929925968 1023.7635813175659,843.5526599406788 1024.0,837.3375063384908 1023.3120982965394,833.8836396327005 1021.0137361633097,829.003173574891 1018.2040534687825,821.679006345184 1014.9808146147211,812.2857684438345 1016.4828131750288,807.7088723927155 1015.4505915708745,805.1594032219364 1014.0648950485165,803.7806196880435 1013.6063197098299,799.8628017651941 1014.9997352380979,791.5693703758153 1014.5317803175669,779.8206771366046 1013.150534086106,776.3702202605888 1007.5286734894055,770.7709524166888 1006.3329190363199,768.2674417220103 1004.596755290229,763.3480280091661 1004.7549132240093,758.2314400778733 1003.5117171871196,755.1042940692676 1001.3310169489185,751.3717868813139 1000.4844015917298,748.9844986150266 996.7558276595398,744.6653656402526 996.9911179861577,743.0517118769252 999.0603497601951,740.5077412185956 1008.7642858484876,733.5825107943142 1010.6112100629514,731.2717140002978 1009.917958597998,727.358269043382 1007.6110436501378,723.2186392816566 1006.9086591865662,720.221757258877 1009.4620650176322,716.5313056370929 1008.9957446784522,713.5327616126128 1005.764367589045,710.5423542178876 1002.0797769253804,707.96105604625 994.6103761475858,705.274476113971 990.9325865887016,702.4266971751887 982.0906140761649,696.058362990804 972.2896294830431,693.5444774465499 967.6715896201952,690.4693851101651 963.2220634419517,683.0005334931976 961.2223468146271,681.2271370045396 954.6096080577252,680.8575253756969 951.4150934164095,682.2502880614899 948.7741065897198,684.7226122735506 946.8968269837121,687.8877615364295 943.4609453794478,687.187091930748 941.6161277799282,688.108697436514 939.2978487671236,691.1077522754379 936.0757076522682,696.8672953375966 933.3014853091037,700.0955300281324 929.6281622978406,702.3923509067838 922.708581544687,702.8551631535225 923.1723956019455,700.777877752972 924.7892564576345,697.0922046185375 925.2415811734261,692.4893886554734 924.7817961610724,689.0872783238249 922.2530330768327,687.4749789904968 918.3462233404756,686.5559695345748 916.4950477528768,683.55648254643 916.0347032954221,678.4861405930583 916.9442336094014,674.5705299270167 919.2552527708907,669.2684799894008 919.0214884897423,666.0446596039092 916.7251469696686,664.2071814566258 915.1220067581479,663.970376391453 913.6014095229499,665.5214915057727 914.2608741547032,668.6028877548254 912.0055927397909,674.2293098164707 908.4324737312169,676.4050818398621 904.9830293867102,676.1729611207643 902.2184017843063,675.2478259911917 898.5325624230211,674.779749007354 896.6919046896465,677.7723234383769 896.0056104347985,681.6932974137172 893.7019001963149,684.2209112237797 890.7135715127657,684.2147101967466 887.722442723261,683.060224889595 886.1138448849435,680.7516502190306 887.2597530227745,666.0051418709592 887.2271666011055,661.5880800499766 886.333898195847,656.0963002545673 884.4991448272198,653.5586161327853 879.4476188570278,651.4796292456401 873.9195748243292,648.7052062776884 870.5625494067649,647.6755787483621 870.9805834100466,643.3998997942326 868.9075994602362,641.4644340144947 867.9502766855377,636.4439085727558 867.3740825313929,629.2100777219799 867.9335374365171,627.4487215784859 868.8502710897113,627.3526380313181 868.4468753042779,622.6766471706634 868.6475741983152,618.10450798268 870.1156238698268,617.3254419895374 872.540585922997,613.8473111274782 878.1601511681253,611.6228380577046 879.8553758810853,608.4963753335534 881.0404598991547,605.3760715191318 883.1432087997172,602.2528565689443 887.4293844772809,599.4117489632849 888.9206152885733,596.2958783252698 888.5380491972833,591.6539354011254 889.0729719059128,588.7211774336998 887.2607029911959,583.0032309342153 884.0424593384873,579.7731295498926 877.6046524466838,577.4558726858645 876.8590548920523,574.8308713014324 881.8200260830371,570.4588994880187 883.404101627696,566.666962730681 882.591515847427,560.1575937174518 883.3121515664632,555.7436873617867 885.7477588304228,551.6244520712225 889.3660655001867,546.6881941599593 893.2410617029814,543.578818601941 900.4756195693342,538.7599326954848 914.4225261033556,532.9263695675537 917.1895070864181,529.2401169382626 919.0309784551151,527.3954126545484 921.3324114983549,527.4011873724974 922.2626361593025,529.2362528814917 923.183835051409,532.9290051461143 925.4880785753425,533.8497608661362 928.247235045506,532.9264498966423 931.9354353569859,528.7825784806853 934.2426369565532,525.093497667347 937.4678519662853,519.1004044128329 940.2331801583797,512.1896774817976 940.6872577701113,505.2749365762368 939.3127596700006,498.8262362459434 937.0087653842809,493.7501181656876 935.940564943135,489.86444906174165 937.1294866265442,487.1221695988629 940.722733320407,480.53576167318033 944.1391821857029,472.7716024790718 947.7240979540725,465.47716906631643 950.1326919981752,458.6831346095727 950.4030002584026,451.0544510180518 947.3526217015954,442.4510179793526 952.5143948226337,435.2215812407606 954.8854546175479,431.0798677362936 954.8230344482403,426.9263866486932 951.8590371805811,423.58748936100227 949.0183849540916,422.77823456816054 944.9116739361483,422.4444799535876 942.0034115589813,422.7293949626418 938.0343575427169,425.30088051354954 934.1627357857282,428.27301640605873 931.098338005475,429.10570953938094 928.9749334240016,427.03866364649963 923.6397049980317,427.03660813968247 917.193373054298,425.1933183759748 910.2736651624817,420.5774764429661 906.5916211875026,415.05159476002154 904.6037932437761,409.03279650497734 906.2126754931645,406.64635460901144 906.1373069656859,402.1432420324045 908.4326928470358,395.22640054446003 908.4472559682749,390.62064420282917 907.5733437072635,384.99144091231335 909.6193636354948,378.3863206932855 910.0291728062596,374.527477846453 909.8108022012907,370.83967583877103 910.9303814206633,366.7319403849406 912.9125505214793,362.4694332408394 913.7132441862741,358.9144001523572 913.7114529608441,353.8053165482632 910.3662135890613,345.90193153636756 908.6590678352097,342.78684286716873 909.6735566300551,337.58147146017603 911.7217507921016,332.90791552355734 911.9618019278571,328.5064848156651 910.7126898448246,322.9436728043852 913.3698324959655,318.17882371277744 915.8824802583978,317.3696694697925 918.1634736764373,312.6176360407377 919.7516425122956,308.5752718545083 920.7135782662373,304.9413146188672 920.4877559892226,300.77751596605253 921.6064622600297,296.67238055170014 920.9015517856209,292.35130133711004 921.3733677234944,287.7850311575078 924.9919900476859,282.70057350258537 927.4456620710617,278.81051152653606 928.0946866558194,274.63435856003673 927.0069055349386,270.55818740209827 924.9764411808794,266.00677687371183 922.961941279491,264.2978447303461 917.1450841705848,260.32326694802 913.2680076506846,258.48516767608896 909.0020730219769,258.0772705384883 902.3871425436031,258.5777932595299 899.8307437772562,258.2678232848747 896.3702987449742,255.6119761935455 893.4153389156821,252.6603462664358 891.8886774306941,249.29046372700793 892.1134403148875,246.82779678607153 893.0087167246065,245.27194834784405 896.6528456217061,240.57331793491687 899.7064078931495,238.3596413210638 903.6240299675219,233.68350494140486 900.5369989948925,229.10377828366916 902.638276909719,222.264614656949 898.1244890888036,220.66458700459066 893.1191722704624,226.15524763217502 892.5104597962718,226.25742273772266 892.5070996660669,222.68902640788792 894.137661892277,218.92210506889114 892.9111540277811,217.587249174911 886.4998456210003,222.88238843944362 884.0631281960589,226.44646787857778 883.7513925470532,233.37312059003375 882.8396785969102,234.4942130612385 881.5173878565157,234.49397123655024 878.8798458594158,232.45192157579538 876.9286947136742,230.1023515377858 875.6075024952381,229.2816295186675 869.4564506392136,229.32242516731083 866.5671408271078,227.5315714370755 863.1025366607274,226.86441203536674 860.5496774093527,226.89540662827858 859.2673627792283,227.54341962376395 852.9900462997125,235.68633154159124 851.6690298580606,239.15953664331823 850.1469759529828,241.9094031776732 848.8282561198353,243.0269567066381 843.8468010037379,243.11298188171963 838.9702326225786,241.7707972351351 837.7475365958442,243.29730503691928 837.4442235501234,245.1365632135712 836.0254649634446,246.45138423727497 830.851490822548,247.45161717136034 829.7271924847306,249.48860303025765 830.5428531047743,251.33095270587785 834.0958086239975,253.38068410965707 837.0498512941174,255.5308022227042 838.2573848372655,257.8732904317601 837.7467233561944,261.0293225052768 836.0218781734616,265.61843805023693 837.3438585568861,269.8980782654104 837.7564253383134,272.95799261200034 837.2420228845712,275.8081228986314 833.3821436608747,278.7572237941506 827.8981682530771,283.7326613233986 824.3439237698726,285.14957755371256 819.061479729704,285.63890873046137 817.3340257608162,282.372291095028 815.4063704581014,281.0369165391261 812.7365128277739,280.6253427651101 811.9495649819933,282.043572680544 811.7480615744456,288.26201735568065 811.3446680174081,289.38624420188364 809.2785365071128,290.11027025087765 806.4707367351368,292.6538950032026 803.6285520834649,294.06194123436023 801.4489198080164,293.84058709281953 799.5878118769493,289.55741936014977 798.4992835803858,289.55371231705783 795.9829582997891,291.73566332997734 793.6971623013826,291.18070580218364 792.490588409374,288.88042546963754 792.2808596458499,285.6987244962222 791.0746481911447,284.2695795815491 786.2706840038873,284.0347269488457 784.0861569393377,283.3769398584607 781.5690695463358,280.29749655404567 779.061968502628,280.7285468753332 779.8272475822988,287.0893165844125 777.759244490472,288.61686586871315 773.4903129352726,288.8199068844509 771.0463032531935,289.4970287262281 769.7421043029842,294.6277961910015 769.9674104811058,297.38266600700945 769.4385340035518,300.0543143592927 767.0057106012669,300.7559264721483 763.8603892675984,297.923517451915 761.5778806760901,294.8575351628392 759.849020045116,293.19545773168466 755.4620865351541,290.2056463278908 751.615505862569,288.3193926527696 746.5088242891043,287.37066662743223 743.0548974869508,284.98449964582073 733.287267858228,266.76304188277857 731.9743743253649,263.0299612115431 730.4472849568923,260.1868843414064 728.914067395479,260.40036739634206 724.9726682863422,264.3381203187423 721.9197094420209,266.95977598860645 718.1975572811277,266.9576560948609 715.356714781431,265.6409534618756 714.4780818297249,262.56823622499076 714.9136652090164,254.24856058301555 717.1048205095118,253.80559672496486 720.8193755539206,254.03691049041072 724.5486067134295,254.69461984326938 727.8157467982707,254.04321300752088 729.5706162148982,251.85449894883925 728.0484633250792,247.68887438801016 724.7530954084903,243.96163627669944 721.6944055912905,243.2964074765431 716.8772740044432,243.5123733913208 713.3824549058148,242.8518749172997 711.6401226473758,240.6599347858803 710.738182254827,233.7215756512329 708.2929270721085,229.59079899680364 705.4676472509889,228.8293812166354 702.0014653476571,228.82544699170546 701.123972587292,229.47448739811614 698.0627544101733,240.4270302077001 697.1826051558633,242.6221441561812 696.1278924853215,242.85607398652803 693.688385154617,239.33137961649118 691.7096839756133,237.79896462830698 688.42577781068,237.80230809550267 684.044898957731,238.90004237776577 679.2303533979408,239.33706927062212 677.6954170780868,242.18812363509414 674.191128021302,245.2568897047472 668.7122054322945,249.2003938103892 665.8564876957282,254.03017027224757 665.635618038638,257.96835360928753 663.8826303542094,259.5074052188322 661.0246485978087,259.5041497778925 658.8313078498804,258.85299778163574 655.1091288150504,254.0356637508454 651.8262152611524,248.5646364922468 641.0854574582278,241.6798415553509 636.0352447842697,238.18368906083447 634.0535169533149,234.46530590423242 631.6496958592414,232.058749594475 628.3600974463546,231.6246682743116 625.9362630049256,236.0114700445164 623.3521057616845,235.75771378807337 620.8814506445561,233.88946097755343 616.2862322331669,228.14222769029072 612.7766898353519,227.0516845572149 609.0384409031922,227.28726897315767 605.5322427078011,228.3831912593689 601.1398185414678,228.39499602510784 590.6092420487182,220.74611837106056 585.5609664536238,217.25664118733062 583.147822917033,213.97016563703494 583.5864496725915,211.12324973050522 587.314203348837,206.95403774069086 587.3123325107376,204.76054749893183 583.8093742505592,201.26455859820658 579.4181882758676,199.2962776083316 577.4375229601897,196.45794381227836 577.4312377610413,187.03649631252006 576.5602922944586,184.40890515319097 575.2535755946699,182.8777647929851 571.7355189133089,181.78782625614588 570.6431712408328,180.25444034353086 570.6411712669557,177.1912373060144 569.0964273821462,176.09736276309684 566.6873000340485,176.10568321043252 560.3276937619067,181.36727606728607 557.0353281351897,181.3748806960533 552.6425138663155,177.2220197890747 550.8939924253247,172.18889789127388 550.8962826326358,165.39714168767023 550.0168261284928,160.79001842565208 550.019601107487,157.06969252805743 552.4209545230676,152.463442944358 554.6255461582906,147.41606679763254 554.6249355782647,138.43355590087117 552.6520549975686,136.24373253245858 548.4851237854258,135.1613187951266 537.9617357786618,135.39562903999695 536.4822821823495,131.80277281012582 534.9632173758398,126.23081258728735 534.3359353887204,121.41667429105962 539.4923398935821,121.04081728746064 540.368427165036,119.28291044687239 540.3735523559716,115.7779275093859 539.0455607698794,112.05598308708659 539.281475946513,109.21261035813575 544.760425174718,106.57257206818235 546.0730211228736,101.74970684107143 545.8494402840789,97.80257453086631 541.4733520611746,91.89479780425654 540.3682902715253,88.17060187930178 542.4011761113519,85.31035392546869 545.3077911548737,82.43295835202332 547.1387881204931,77.77488899242644 548.6776308137655,76.22415975206616 550.0656289497325,75.93701223721212 550.2370066762428,67.88551765317936 550.018130881798,65.25388712673384 542.7850232884854,65.05456995590453 540.80652970723,63.30092474650223 539.5016309537989,56.72403238449351 537.9542636481029,50.37867876751034 539.9390975375591,43.802701120994925 543.4374541937011,39.41029683318277 543.6682600647314,34.156674260387035 542.7909264031076,24.728941740519303 542.7794411194388,14.653126808399406 542.1365101939037,8.301333863174364 540.1541893029247,5.0140623724322495 537.3029254586377,2.170451941116653 533.5794588783333,0.4179824451711056 527.2152318268172,0.4315269357909983 512.5309892709382,0.0 509.9007699984575,0.8781372424846268 508.3709155944519,3.2885410890663707 508.14653863072596,13.373468557882347 506.39215253735006,22.793194142559855 503.33541429409496,26.735902541190057 503.55365714834386,28.268770189928773 504.6489718290066,29.152305199604598 507.4914495731124,29.150119063330294 509.24952005161833,31.339834066859794 508.15503888426014,34.625195204379565 503.4850416700863,40.82680829208903 502.5399694702884,43.81021439439053 498.94229968160016,50.72670578066197 498.94802410511556,54.41812133220503 501.93573829001156,65.80592307153358 502.02197972118444,69.4197191048928 503.444726930659,75.6211785734265 504.0790052117557,80.25426353487228 505.8913160002015,85.75360482552799 507.39396557069483,88.81697302489215 509.02968084673404,94.98335102312979 507.93363396242404,99.15622468935055 505.7420265960725,99.37413342782975 500.2720207128489,97.84249413639782 498.07708442290004,97.84633155438496 493.04201442034895,107.4818879648119 492.3883066970401,110.11525940095669 489.97638311801666,111.86188573019922 483.40499636578886,118.22125907944337 478.58664453814026,121.06527149741703 471.37765334945254,123.4645325181101 465.6803179682459,123.68148913857146 463.05277014455396,125.20752980901125 462.3956032929246,126.51977346819581 463.4964271200722,128.0606287123244 467.6535091490843,130.2564861721777 468.5272020866395,131.34819424131524 468.08731713995246,133.10006805064097 461.9630749770201,134.41428757678761 458.46300250882376,137.04055080201715 455.19188527536454,140.3133759033493 452.55753980284055,142.06973928048149 446.8750130340629,141.8427616457367 441.18378869519466,137.45240694909194 437.0382044554893,133.06506892826064 433.09630895528386,127.79641784439377 430.263722839366,124.71887716604999 427.2020022466576,123.18665736912556 423.7043849466412,122.95476832160512 421.73974619152864,124.70432891439577 420.2067976013804,127.9861724815189 418.0151354287774,127.32491474212475 414.3099132027947,124.24565093136107 411.6834824373525,120.51703860967461 408.6219469486736,114.60039135967781 403.15627084616824,108.01597881005034 399.2254867595209,103.62572279730614 399.0108776181029,100.11468778944754 399.6668537171673,95.29932051651849 399.4459278466853,90.03937563802526 393.7644488838195,83.01359752519613 390.26764453579364,81.69046655759269 386.9159244848278,81.68691111136684 383.8806967330584,80.62278498468243 377.8236792649959,80.22673518038732 373.6702191788734,81.38930412397201 367.70592456028714,82.26223978584653 363.4816746180606,82.41146718978018 360.24828585120446,82.01396047922105 353.2681731883738,80.5169048798025 350.588820410747,79.57652991225143 343.46259144706494,77.67843641746845 339.0303884933939,78.37479814793187 336.11167938885933,80.13994976393951 335.2009379077238,81.68294231984191 334.9033423500617,84.78152771815223 333.36960136570957,86.03097120209861 330.2809435487678,86.970359757658 327.1830150047774,86.99757965700587 323.779950917197,85.77366770034666 323.4577208184962,81.44463015791541 321.25715772970426,78.36930322321916 317.51715037291626,72.21143014017571 314.859158345531,70.14547086280788 311.6807278952263,69.0825914189503 308.85434658280417,68.73125803416349 302.15104910110966,69.79602442832595 298.72237655219163,71.3934014699463 293.99602015384085,64.90330426690377 293.9326871108218,62.252348450429395 292.50720151761203,55.88751941589214 292.3621698356363,53.17827811038751 294.5010278884456,48.018804074123864 295.5671111595355,46.919150572959325 296.5510172761108,33.82462884991878 296.1132773733724,30.137128031441762 292.0829061137159,26.609390511672018 287.70389617122305,26.177727445864093 283.98114233310525,24.206790586037187 281.56378680421125,20.48535596309432 278.5025533323327,17.426396701757312 276.7449783900089,17.202621778994626 274.9857028354547,18.08580435184217 270.59967326602134,27.72885896741468 270.38323229299044,32.12148726667829 265.51143178421955,28.693452123444786 264.7910570026577,26.27845675755316 262.34218489412467,23.588522607991763 259.8531964249648,22.270583177051435 254.14400343201405,14.40081136411186 249.53835940007613,10.023623473742646 245.1447830772622,8.943472353570542 243.60750548033903,9.603619707648363 242.0682212362421,11.36386335760153 242.06916032228943,20.126207369204394 241.63360300121474,23.853933771579364 236.84019991170098,28.658623367463406 234.3886551256694,31.738969293414584 230.2126651061504,36.26540628779014 223.62191502633846,42.421712478120526 218.1413444924185,46.387774042842466 212.1948904451611,48.15721678091745 205.83756022366205,47.96137001936586 199.46041511415882,46.66534381963925 190.6674243405418,44.06728331012437 187.37718883649674,45.1755331780563 185.40353906083527,47.373418078533405 185.17624287122646,54.603880924174064 187.1530806158626,58.101130362304275 190.01775084471143,60.721705047574915 190.89311981092877,63.57058815743187 190.67312973107548,65.31982881950785 189.35032679814512,67.5222039189257 186.273496949544,70.1636123287833 183.8113243030745,73.35427440714659 183.19476189891964,76.33425271248188 181.45705829204076,77.44796963306635 178.3045553022619,76.91029574686809 173.55589448369358,74.80760654578648 170.96352115229865,74.43550448891062 166.9371576950012,75.14849290796565 162.40562835164874,77.5455548002534 159.46975161770533,81.31144501924632 155.29744825984633,85.48729294010377 150.4629540796473,85.50787650226755 147.39096726301835,86.17052473728063 146.51744988883536,88.80251571444205 150.8989083476657,102.60074829854864 151.33920724232019,108.50642941848093 150.2361169773615,110.26370735140847 147.3898260234882,111.36902362382966 143.66238177269042,111.37955456605357 137.0769676008655,110.9603454261038 135.97524749963478,111.61745067344418 133.77559039313167,114.90813911574048 128.51016558555168,123.90312611335196 125.4393746088171,127.63638860675155 123.24064284129349,126.98757072462286 120.83067484442999,123.92622266150204 120.39179160693497,119.54575219960725 120.60767292146451,107.70694184331103 120.17364565272105,106.61835363342936 114.89657049451594,105.96763753225991 95.82819659406675,106.87459897802535 90.99897374461622,107.53245960058143 87.49573296702185,109.07624732215095 84.21638310500279,112.1435828652643 75.44645709966255,121.56244648416418 72.60210748278973,124.41380196435796 63.84632105167185,125.94370194509952 62.74835122220608,128.5781167955888 62.31462545713767,133.39966308747614 62.97201754667823,144.3555673558957 64.0300762859462,150.3269336731787 63.320014140065695,157.69339185522358 64.10237209943979,163.49799456168182 65.20263461363618,166.71485768556806 65.6067830423662,172.1367075019316 64.27353553398422,174.808438406827 60.978708760752546,178.7394233427475 58.78156935055881,182.74764859099514 56.424596423931966,188.56473341045466 54.86204832930515,194.76162547738477 54.48327682952041,201.52216057339945 54.72378670672807,208.42374019137299 54.56671938840645,212.02528983408592 51.80698451608111,214.23778463030396 45.675322770339065,215.33115194448487 43.928159696028374,216.86163801043574 43.48895577539169,223.87079058081258 40.8612489116675,227.5922865661105 38.00744964267539,230.88049756210273 35.39276107758655,236.35195035071604 35.613590889361014,240.5159499479746 36.9235458065042,244.68068148192026 34.734903453770215,250.1574020585914 34.73346173177309,258.9149973167098 34.94787437868739,266.2720847925981 34.063850222112464,270.86199200237206 33.00254551177313,273.3271502978156 30.01668511562414,273.8509603854874 24.203106820687935,272.61090702670106 19.45553036854831,271.1919819942674 14.516106702997416,268.53567300910436 12.939244523797163,266.9415429034258 9.764353745133947,269.5839590122182 8.00714629730631,269.7575823551441 7.479322244672218,271.3494023556291 8.716180573376503,272.40820639772596 9.063174003191397,274.17247232866407 6.302804871344576,278.0245039272809 5.568083359224373,282.0412704768222 3.6918756888974005,284.34980471309257 0.699386476487883,285.40251897198425 0.0,287.34519829814985 4.21634964698482,289.81888700258526 5.979261188547285,291.9412903050221 8.62470601778136,293.70801716483186 12.8477210577982,295.6602400781495 13.904349835001774,293.89477423446954 10.74433899656139,289.83557051708726 11.442054766192085,289.13001238151446 14.258010163093497,289.12891042499143 16.188883057871085,290.3708923486512 17.076939873166086,292.4894731919795 16.54247568335951,296.0194023569097 15.306587232311017,299.895576648731 13.549454557349135,303.2458160400748 9.456750101678956,306.9792745624794 8.449409466235837,311.5272927752751 8.803563519602527,314.35173157176416 15.841676952789586,318.9499912950572 16.54437233226383,323.5386526795156 18.822301888491747,325.00046816165366 23.636369756631964,325.44656191919387 28.015856814406927,326.3302596712616 30.302806334449983,327.6464652836529 31.187765570472937,329.07509047331985 30.956997539818985,332.4672010170377 28.439974741965067,336.29323081041616 25.709104663383613,338.60096533553343 23.736877352508305,338.8104877484736 18.7577881085706,338.08432593136 15.719770217260283,338.5574222975325 13.906193824360793,341.09742073812043 11.499667114397838,343.2820206308868 9.43180548743165,342.8432510861156 7.02273073979827,341.5193290436857 5.708724621883374,342.8338259090624 4.28795699883421,346.44776545498434 4.619944493034083,347.4275959411083 7.453957611683563,348.3139333452328 8.983521530806971,350.2856271608558 9.639184774764443,354.1243703105763 10.411570469994444,364.5307538288756 10.962494911867838,367.8147062090294 13.577623063572059,369.4636287363618 17.070755314611404,370.02032073946344 20.028698155113027,371.11134662431846 22.433673002826374,373.20456153238155 23.414988704137475,376.8202268029084 23.363910701230857,381.29599331618607 23.79500005334651,381.9514258220257 18.48037624520959,393.4851488980798 18.828933989258513,395.25074474088984 22.358092803381094,396.67118032925293 26.57469115945359,395.6166869157563 30.804709974278175,395.27245872582216 32.56791092849347,397.0379839746121 35.02974286854785,403.03548236085834 35.33327368340479,408.6458540068333 32.68519381437006,414.22563863014625 32.92183079314358,416.1894751610172 34.981554383905014,419.79770858706297 36.3953764170314,425.61581299167347 38.22502481280263,428.20102366085996 41.01834423501285,425.97774864954266 43.485807182154495,420.6884727696674 45.60627266521908,418.22148843003714 59.570085519885744,412.4859458485221 64.21438859766404,408.72820628020276 65.09468772727848,409.38860670987606 64.21817152622532,413.6576163007438 65.63482010359212,418.1505387233024 66.83876257663859,418.6975579350366 71.1128356087261,414.20705923489555 73.42063888813004,413.8835037197145 75.05798144803578,415.19547426944933 75.93061151939779,417.7184722872491 75.93134372487148,420.77708233320874 76.47497438096921,422.64542610915043 78.02037133752236,423.84692374301983 85.56713213681205,424.6133131052203 93.1293556600696,424.6029186306531 96.63026000981168,423.28700626111174 100.68549138675401,419.6682212335274 103.64800451865577,418.4589187040557 110.77848190521581,406.677094404132 111.22400983941415,405.03341250253493 114.50670137062619,404.4785389188749 117.25669275955187,406.1165775356129 121.0943870627985,409.07012942368146 123.06577621773883,411.473679947321 123.17485052424041,413.88138913324906 124.8165600123212,417.0568206270717 126.24506777371502,418.91708859193955 127.12979118004404,418.79942845249394 130.746351810606,415.17623687312533 133.15974424126688,413.9704551422362 137.6643647665602,414.83381885618684 140.72967693633012,416.35663102013325 142.81782729641952,416.6838440727217 144.68597797313777,416.13074881071884 150.28570220348328,412.38927306414075 151.71191847157993,412.6089035724181 157.4245577229831,418.3920909587963 159.7340858288685,419.5965954368399 164.2304443959983,415.3075283477884 166.20463902678264,412.66989379527166 166.76369715008272,409.8195224185997 166.64603212476518,406.53954109847 163.68655538161448,401.4529835443083 162.25121154868512,400.02926322519943 161.93152137509324,398.0579650289144 163.47134961885152,397.1834457654367 165.65909602311984,397.17491503082164 169.9499244314627,399.45723173621906 171.37558048563116,399.45448515139395 172.91366009190924,398.35768505877445 175.3195596202417,397.69033639220385 178.8331890277139,398.01290165000404 181.91489871629082,399.091761976659 184.33139171020227,401.054948713301 185.64825951678074,402.9155729817209 188.0686286463145,405.2037483311648 191.91711141255945,406.8387946087229 197.9584592606186,406.26191977578105 200.70041170196416,406.9151526397787 202.0242480422153,408.22145975513234 201.9061779344392,409.98217885861925 199.81686342064407,412.17678773813736 195.31717420444173,415.91280298775007 183.99674178437107,432.55249942555196 181.9076731259658,434.8497137291019 181.55360637706474,442.9545476707077 179.00487595875535,445.17846930397616 178.94364021396697,447.78636565811235 180.0442804905691,450.52105459282996 184.55139215931734,454.2291934310592 194.43528569305457,461.86049637877096 196.52763458120208,465.1441826750762 196.63052010458532,467.87836328616703 195.96463601213986,475.1654527607855 196.08857474147388,479.32730844989777 195.0963654948357,482.61733804385 193.23095596896823,486.1281602612728 192.67764176393766,488.43266714294344 193.01658426452013,489.95935630830223 194.89376070191594,490.4658790652044 195.11747655352104,491.772638193095 198.2743182358202,494.4746376251433 200.25136535204877,494.6470151654491 205.53214686046084,491.5631797982374 208.71898928508926,490.2376963877105 212.23389239137595,490.4498611802804 213.55460047910734,491.4214437263961 214.98366018474596,494.37687527708766 217.06688206436112,493.93234524074376 220.57419872693555,491.94706469091983 229.0392597360005,488.52832982134294 232.33407961036127,488.07384092071993 235.62385093124033,488.06509979941785 238.36375159135275,489.48723284082706 241.76675883600709,492.32356112485127 244.08320265748668,496.5882957386403 243.75244343917188,498.5565198856527 241.65704170297457,501.3003345046053 238.59311198098942,498.90702742482887 237.59735682410496,499.2305656607602 235.84302297859497,501.43386269831154 233.1083355159152,508.1754970164339 230.6751620677313,508.4008478253885 230.35995265534336,509.71876348913224 231.78059567453764,511.5713469403875 232.0010328651041,513.6557962236901 233.21442938839027,516.2795137423668 236.50000774716872,520.8698377182135 235.63059054039516,522.9466304016412 230.5716480941827,523.2946603326473 226.83754288027623,526.3175183985825 225.73482103377071,531.029611501486 226.07607306142606,535.4132832116497 230.35045677471135,547.6672170674091 231.22968094506632,550.6187070319133 232.87679159410487,552.8027673127626 235.4006242765379,553.7836963955722 236.28252673471624,553.2293051960448 236.93553830913416,550.9320695932354 239.2457062988097,546.8685041319269 242.10410941817528,543.9032282109965 245.3871148264505,541.7052893905161 249.23991171663934,540.8180101495611 252.97767844772716,542.0191792218095 258.79299083221485,545.6145066738254 260.43326617214336,546.9260017223985 259.54937641204765,550.9781770767156 259.33645121254807,554.8108577510668 260.65095595701837,558.5294774703061 264.59941232093496,562.9094426495233 268.6617151420511,566.3995650706252 270.29921284854953,568.53259113243 270.30025643908886,569.8507092899226 268.9782919639344,571.3841535969887 266.5742019294749,572.7043262132061 265.26327770093724,574.2362738434844 265.03411481087875,581.0304115297993 264.1647036159163,581.9099285614079 262.40186617030685,581.8051195315247 261.7460331244156,582.682864195828 262.83880393909067,587.9340129548475 264.15350182437385,589.2399337464856 268.9775070870315,590.9886931878666 270.40379114294427,592.1907708362335 270.8601725875185,596.901237609439 272.4931782743839,604.5605271932154 274.1423299257931,606.8566494923008 276.3358106595973,607.1813341252205 280.93624108217097,604.1048887071121 283.35172552757615,604.1025495103972 284.8959069472536,604.7562431907292 287.9598573525836,608.0073787261717 289.8192884104293,608.6940449797224 292.224957657531,608.6902847606848 295.4113820166831,610.7675169756257 295.63086890333045,612.6310735640027 299.46362154609346,617.66411362571 300.5655530079012,620.178580238943 300.8873560317583,625.6596074717864 297.7083727943578,632.993104872726 297.70955595675554,635.6211200921063 298.58129028273396,637.4873942599095 302.8658602231472,640.2232021562795 302.75281901556264,646.1276176079232 303.29481258128044,647.552255739613 309.104297020297,647.555055200685 313.70211171108025,645.256803554494 314.9132127280595,645.0324853561033 319.72288538018523,649.7398848499223 322.9010810391798,650.7221203662888 325.6345407450504,650.8357684466844 330.0149775396932,649.4126409193593 331.10812123419595,655.5467265825326 332.8618618858232,658.0649588882393 334.6027259113504,658.9483013160465 334.16566731782393,660.2619952007528 330.99691734956565,663.9777223552439 330.66522431418093,665.6237992857826 331.05515126439934,669.5734632519611 337.1853652854205,669.9908494097771 340.20873700356265,671.7202708981732 352.7593040228702,671.9357034861063 355.0617678527425,674.1320462872252 355.9410814372538,676.7606009280797 356.0468184872047,686.396784544545 357.14338195203857,688.1496911835927 358.4491402470677,688.2589010149128 378.8959271575717,670.5574983657879 380.4225631999046,669.1310464850361 384.2510882995596,669.7990191256536 386.9896184663639,671.6659249388159 388.957739147222,671.6646781541366 391.24298980420997,669.7018299764035 394.854839662678,670.0368210534136 397.0307517980931,668.2888516241899 397.1414654497289,661.2786957828051 397.4714881796433,658.4336369539599 398.4560256988782,656.791071778821 400.19917001454445,655.7053652680481 406.0211341123371,654.7196784363607 410.258378856359,656.6054400461361 412.98284490275717,655.8453017551608 414.1881121015786,656.0646982675687 416.05081840681765,657.9226773818037 420.614705722729,661.0465307916814 421.5943559011853,663.3227032834552 423.5638941437891,665.7612030579199 424.82267573431136,666.2804242319825 429.39402618119647,664.5606181558669 432.18340611766564,662.001295720224 436.4099499711833,660.4216437569471 440.4865986367552,660.2629550294768 445.1926724134754,656.7362976715473 447.4725884791321,653.1115479489232 451.23685438066923,652.3327614214332 455.5775152478678,649.9298692094524 457.46840833845295,647.2674305874593 457.25283236079383,644.9760145377192 456.15513731017046,642.0166828613619 455.63203569083305,634.0974114984468 456.3514343608841,631.5324356780667 458.83604023458736,629.1140061382017 463.90811191449984,626.5502991034487 467.69204885274735,626.8737383496224 469.37710183574774,628.3295256549777 470.90695795350615,631.6426708097579 473.3772947582149,633.0566417679773 475.83433925753104,633.2046328721932 477.59639415054113,634.0437135131219 481.53173343848505,634.1596304406721 485.2626329449549,635.3651706990895 488.65396787932303,635.0403438280075 490.83753062807756,635.259326463828 490.8349979056006,636.0206425889626 487.88998535523507,641.3890531620357 486.78376173132267,644.0182695548118 487.440898584403,645.55235533138 497.28613197626356,646.5354051836905 503.96606112526837,647.8490916883189 506.60283565656994,647.5230057392088 508.5787222722128,646.3144647941895 513.2878670039374,642.1519396766311 514.7062913260854,640.2903554421848 514.9064366444853,634.6232449546992 514.5783283717258,633.4111292913249 511.8401745001473,630.6739608217061 510.5486353802615,626.8101544840409 511.35171043256645,623.4224124771306 515.7139926710574,615.2083884221918 521.3544379232748,609.4123017775609 523.1203457662909,608.7625314329014 534.9731799425405,608.7562735815726 537.4780263849494,609.6380646900041 539.9759424056641,611.8038178839796 544.9642280793338,618.3245601197208 547.675469094768,619.4441879815206 550.4391121848494,617.5344775940853 560.1992622810026,612.156459965979 562.0596653275007,608.6466093716077 561.9525819473084,605.1401744458794 560.5326635195418,602.7334178923976 556.9107378591012,598.3639677793698 556.8049162308465,595.9521602801045 558.5628805062207,594.4200372404651 568.4256732847302,587.2790688350974 569.8519501791133,587.274178444278 571.0572012916105,588.4855123200762 572.3758603120666,591.9796278155274 572.5965386778479,594.611118472663 573.4802209695044,596.2536925691813 582.3570922820649,597.4373774103282 588.9452968253418,597.8663428121286 590.918826427174,596.5456231567955 597.2818465184273,590.1233017317943 601.016915789626,586.7224841666151 603.3176852606367,586.4942359654638 604.2001550285438,587.0406366852134 604.3154249575443,589.3412416910454 600.4650005214436,603.3085492734126 599.1535507878224,604.519657704376 596.9537945949795,604.74815954138 593.8797024647042,606.06384058531 590.6979940705528,608.8085524508937 588.7259129670359,612.2088068397645 588.5009046213204,616.1548778984705 589.0448700674497,620.530632173031 590.8076032660307,625.3465283857018 594.8691906054875,628.838313808646 598.7042432431277,629.1581277564865 601.6720286601815,628.2714633332649 603.9782032969965,625.6467393720405 605.399146805368,625.0929041014331 610.0068547031897,626.0724651822502 612.24873691336,626.0655826893216 611.9842615332209,621.1917616248581 614.2949245409886,617.9577666487379 615.8300840707903,616.6413168095241 617.3603142263175,616.7460403907136 618.6851875276726,618.7088831908432 619.4567630878568,622.3277299063136 622.0820137662652,631.678925302541 622.8528387926605,633.21132668545 624.9257931569143,634.635411544201 627.7798443471631,635.5039297989617 630.3125020148327,635.0588951473777 634.0445024689557,633.1964842129231 635.9980799444344,633.8342992843554 636.3755595158179,637.7590335406843 637.6617938611843,637.8990736973907 646.0001227445842,630.3222069660811 647.3068774227293,626.7060503759267 648.7405908945022,625.3903536331658 650.3880755340476,625.9379696526573 657.1794096080473,630.083631958133 661.6723981528407,631.8325142343566 662.8884944965912,633.0348546080953 663.1006931041666,635.7706363787262 665.2950849891564,639.7183486352735 668.3646189240415,642.7827949366423 671.8634196803292,644.8589940253223 676.0371956389887,646.1664868695029 688.6396351038024,646.4920026837058 695.2085885715559,645.9401891445216 698.8178691842589,642.2723024488944 700.8997547014557,641.5045935171994 705.3954144598804,641.5073349885083 708.6769986373755,640.5301544839485 711.851839606436,640.9656604984026 719.8252109890226,641.0832024901531 729.9001373242054,640.5431463942305 730.9922915699694,640.6585388532575 733.3937027573285,642.95967438271 737.8733252436346,644.278616450295 741.0536047652089,642.429425185862 741.7073116546676,639.8033014653403 741.7025306753753,635.7469109066549 743.1379847522302,633.8733515518106 745.2522502928306,632.3858499440568 748.3174048201543,632.0783365879979 750.3452849374684,633.0129916766043 750.3549061585212,634.7413706523125 748.4795916377041,638.3566745677682 750.0640460166809,643.2348133099355 751.0176626455115,644.6452538404616 752.2702360561129,649.1155754870111 752.1121031121011,652.1806214634805 751.4278862137012,655.7070448830864 749.8715210191833,658.702802230677 746.7941777267679,661.5963144242651 744.6086568333941,661.286170358587 742.719843532857,660.109798776902 740.0458925334591,657.1177070820899 736.9859789909374,654.2945127264986 734.706667870196,650.9988694357392 731.7835226871307,648.566392116494 729.7443483233719,647.6220205061156 728.4051016785849,648.1760663410752 725.9008756967476,650.291829555595 721.4357911920729,654.8519159493577 719.5625897142427,659.742568780574 718.4047011465424,661.0654616098724 717.8667535442199,663.1428294143391 717.7537503319497,671.3529002376667 718.0826854101307,676.1766027304728 718.9556151810818,679.4619884099917 720.4826313648529,681.1063178513185 722.5720569803531,681.9816784864853 724.0986558493912,686.2543407010282 726.1727970838645,690.3055354015428 729.3459069679802,693.2662462526113 730.2193129145915,695.6791147578782 730.2263340801999,698.1962831658378 731.6350148344734,700.0640679431954 733.7209862766792,701.4880558219054 743.2947788720072,704.07792533043 747.5265744520572,706.8302603332711 749.2478956873848,713.8317944055873 749.9429767392198,719.4744317196119 752.0542396422684,721.2408672555993 756.9870420155845,719.1384934950546 768.0204261215072,712.6606206386032 771.2305155329066,708.8817886361371 777.4082298715856,705.1293534502929 778.5833859867456,702.6246947523289 780.380870578581,701.04573879899 786.7239106331754,698.3884761487413 791.2748601895617,695.9560037026351 795.7314644103451,692.4283904260666 798.1529613096416,689.3700333049535 801.9060598947736,685.8421294406628 806.048504290522,684.356383334786 809.5812849731169,684.7515522232685 811.862024305398,688.8418805849566 814.9736547123906,691.5794574827055 821.6650610549717,693.5219582291927 830.9888495757232,702.3761469492725 832.3956960851281,707.5492836446782 835.7950360530799,713.8704852955527 839.2781358121421,721.2963465025774 841.1970570543322,723.9528917956546 843.8653177192425,723.5961985544945 845.8420808420991,722.5713338330611 852.781691259196,722.8908947877152 855.7639562983135,722.435606805851 858.0568534125727,717.1430850137704 860.8170748572824,715.0797805694481 869.7786016090308,713.9545356964635 877.6001905817228,715.5807744964372 883.119169925793,719.0508442992984 887.4846935263283,723.2028135663252 888.64343864979,727.119190886513 885.4227636640833,734.9504080927901 885.194391702672,737.9424733867279 886.7979138360297,739.79019112635 890.2500759866884,741.872036413684 893.2449956038189,742.3323226313099 896.693319842647,740.7319718610827 901.7548675288787,739.1283398039247 910.0470439662388,739.069530873406 912.9672400390367,740.0873478433311 915.6438902519607,739.5921718395883 922.9389875250497,739.7767872092884 924.5596238967503,740.4674399860219 924.7891528343583,742.537533640317 922.7074286189625,745.7651911744266 921.0956344613394,749.9130536051741 923.4005927498082,754.0565690653672 926.6369450137731,757.5190818245959 928.2386084041907,761.662987133852 930.3170665742881,764.6609457806694 931.9153782616622,766.122818328103 936.7616978029356,768.5555099928089 939.7562955075861,766.4454097786445 942.531002130578,766.4452158465626 945.5227446974342,768.2833562766639 948.2841858841774,771.2808279557603 950.4312731736525,775.67429100407 950.4718523787154,778.1322266695865 951.4779426075524,782.7457053846294 951.8842770749093,788.2488012217256 952.4483624092045,788.5586637537968 958.8983382969184,786.9359398994909 963.5103633235818,788.5490479869934 966.2882749213885,788.7706750378309 970.6697440281533,787.3874938039943 972.0495103670422,789.2207982686436 972.284375456033,792.4473080569819 974.586400443271,800.2230420215496 974.0699736776904,805.3618687097793 975.2531490636579,810.2226916402165 977.8947119821382,813.3241278118256 981.8164848487527,816.7111377716628 984.4599165284898,820.7220320281064 985.2095363553893,821.1144954485566 989.8174052172944,820.645780339301 994.9079666710272,819.7153033780002 999.5175780114101,820.1613529027702 1002.5198963396788,822.6939534574714 1005.6556502587919,828.4899680479211 1006.4433852332645,830.9808898112293 1009.2276139940875,835.5822918174964 1012.6810233966268,840.6456275040066 1015.9168878066339,844.5537947937125 1018.6879448851795,848.8630084963048" /><circle cx="408.0058112386384" cy="316.98741610040383" fill="rgb(100%,100%,100%)" r="16" stroke="grey" stroke-width="8" /></svg>