<?xml version="1.0" encoding="utf-8" ?>
<svg baseProfile="full" height="1024" version="1.1" width="1024" xmlns="http://www.w3.org/2000/svg" xmlns:ev="http://www.w3.org/2001/xml-events" xmlns:xlink="http://www.w3.org/1999/xlink"><defs /><polygon fill="black" points="679.4166719414769,732.2906246403802 673.443254375395,723.0595674485537 670.777065382146,719.3290186750867 669.1908901732621,716.3470800559326 664.3727725745387,708.5215237640738 660.5818072242266,706.2895415173244 659.0059765374939,703.6875960899695 657.3482684713978,699.7423595882871 657.5039546121006,697.0631970431226 660.7463896329755,697.216785425579 662.0731030778674,696.2701061037353 663.7730166805818,689.2055730925904 665.6772149879653,687.6073555704738 668.3537405489851,686.823062646906 671.3767774175639,684.3007768744111 674.2678717771688,670.9158542457709 671.6909433255315,665.4201329699201 672.1266411250317,662.2763866263494 671.6423922870556,660.3220926142752 670.3194020274647,658.6520173205931 670.6650619723517,656.2903169011522 670.3603655975543,652.7125301753676 668.5432758827382,651.1392209948319 667.482272853704,649.2215828670485 667.3974133631702,646.9040763580906 668.5885889100939,644.841770514533 668.5821121804394,642.6764879915474 666.2423661278509,640.8838644794057 659.1536042278651,638.9712743255022 657.1619213689779,637.8925458981863 653.9946035711629,638.2194036110334 652.5069247004141,636.8596339091748 651.8419987780487,634.0663880028981 650.479818385986,631.9970074318242 648.4128052375398,630.2520411471594 646.4739077290502,631.7776129828379 644.9819532772569,629.9455348014908 645.6767307441106,624.5643147234503 646.7737906081287,621.4783215136622 646.3338119027189,618.3131456165248 647.3444017860867,615.5858726053775 646.5330423237282,612.1984319058486 647.1366287416987,606.8195283767946 648.0306069130247,604.2477912066863 646.3060703464363,602.7461280614209 646.4019595658885,599.5670193633099 643.5896202866936,597.7264983865296 643.0911940072175,594.1935398626242 644.1833500583784,592.7991772177331 642.9734866632726,591.2005863458547 644.3409135839164,588.8086013265936 646.7583247190123,587.9245881562467 649.5368906505292,588.5044696565817 652.3825495140387,588.0366365432246 651.1131744217299,583.2500553164764 648.9574385072953,580.0401042216897 646.9065137398078,580.0697360428969 646.3605122171438,578.167921072932 646.7477823765943,576.4014202761814 645.6744274109523,575.4060295682194 645.668460075422,573.2630150603309 647.1199877824178,571.6617887132952 647.2799228181101,568.7583050503904 648.0109442381421,566.6083749830349 646.260988239419,566.0411198787392 646.0256910455711,564.5967877398036 646.7842818376124,561.8332369422793 644.7580097545556,561.3190510080775 642.2000159081408,558.3593082629033 642.3226486077177,557.3542004399706 645.4007033732946,557.9506499427517 645.9482804626443,556.3356149110887 647.4905816315008,554.8657035987046 647.3966564497581,553.0517276873895 645.2478509262854,549.8431498643718 645.7152199910304,545.5541030154916 644.3867228141982,543.9774336511848 643.3621552383288,539.1290859978071 640.8314103158435,538.2200687434406 637.1628122875667,534.4419009066581 627.4658815591806,521.9244654640773 622.9815083074233,512.5589390692755 620.090892321964,508.6811070624195 617.3301119706358,503.7163835968205 607.6407824653948,491.6208961467696 604.207902913193,487.6155305895418 603.3111916525254,486.07616096673223 605.6752244657113,483.29821437581234 609.0689643144979,482.181619236541 609.9416014301137,480.38107055669434 611.0550033073413,474.65305656207147 612.4023857457767,473.9233959829845 615.060085767544,474.4322043274608 615.905252748388,473.4204825679518 617.520635563894,469.3793854271405 618.7875740891083,462.14541500113876 619.0519930545178,456.91819622760886 619.1936325293568,445.1781948889072 620.0094305016524,439.4750862612725 620.9944608543803,438.65807407676834 621.1233127831803,436.10537708446395 619.8455221846991,431.55920002189896 620.1138026672232,429.68245110189594 621.8017697646218,425.25296808689745 623.5420877849082,423.5883528058265 623.1431325628643,418.66574860400465 622.189716072875,414.7106537695071 618.7400176375636,403.45820059324103 619.3814439741342,399.98145087975456 621.5473911773968,397.0223074571818 622.9306600101393,393.47630164131556 621.9467207683246,389.94327125739017 619.9760186711546,387.687682069154 615.6657315285157,385.36301943465196 613.435593560997,385.2290657422046 611.4234936928065,385.975266604692 607.8698991001942,388.955867918051 607.4681595080331,391.3655081246966 608.1056915425269,394.29881787605586 609.4523744530101,396.6523607133048 610.2603106667815,400.70985551887895 607.7713280880736,400.9984773192789 603.4307369285425,400.0044233222486 601.0910989374084,397.56778287155544 599.4189937114104,393.90721098797394 599.3074056754157,390.7849309088772 602.2050527056612,384.2164312643206 602.095798912781,380.65451851265425 600.4227424043982,375.3246419372746 596.0993568749428,368.3717591612656 595.2878475288757,360.75279850383345 593.1239703356882,349.36781653540777 593.5920558972264,345.93581492107 595.5394097241317,341.9156390265499 596.8120916411134,333.7980369079436 600.1698563521774,323.92081485993856 603.3949890701334,317.6492177246279 606.9213824810332,315.66247896914376 608.3698386819508,313.97986889979484 609.1135495341699,311.91607814525787 609.0823705279585,309.214826116523 606.6637664732574,308.071130282196 603.4474642468696,308.2639164656481 601.7046235890832,306.57038941240614 600.1408836444122,308.519829663315 598.9144512689089,308.5918912173744 596.3128341363831,304.75706865653774 594.3063275498706,303.8856659724057 593.3707939899026,302.45056148068363 593.2978994048577,295.82140668607406 591.6187713834709,295.0583896401355 587.2688449811407,296.4893177442874 583.9803786058413,293.3273222814902 584.0167424401075,289.5502033962024 582.860346064817,287.57642015297756 582.989016391436,286.37821404224826 585.4435990897425,286.3249218625515 587.4254387738641,284.6391942592412 587.4275106890924,283.3099447744445 585.4870600253681,282.6309041487833 583.5497916138196,284.0087733856491 582.5189759138746,281.9105881696112 580.8367645074411,282.3460119653504 581.5241176660908,280.10910740057454 580.6249128735191,279.55430593976575 577.7784374071047,281.544724273645 577.2622310153804,279.61565638431887 576.1853489847355,280.2178818704816 571.9107764800262,279.877357101528 568.773812890205,278.8523202205106 567.4379248073815,276.08099613846696 565.3975119981618,274.34959230553727 564.9861514134976,271.6725147437039 567.7252230508956,265.52037407478076 566.5268805329147,264.8255715604781 555.5528524440193,264.3597831558542 551.4151611975045,263.8125011418773 551.778626611695,261.7954258976972 549.7291812236966,258.9886279563992 548.6183894059689,255.71466507435844 547.9826610385954,245.63447480094794 546.8148241792121,244.449141467598 541.5445287943263,241.25156966104566 538.4572414220869,240.22546253920564 536.6648257794399,234.9939513095013 540.966974207621,228.24803640569655 542.9928837187799,222.86000034865253 542.8120519320888,212.40004863156287 538.0797624687181,204.76148060244861 535.4868273181328,203.14735873360496 532.4065133173902,202.82653863487667 520.0762685813254,202.86149701799457 511.48649728411374,204.172018608053 505.64789925872486,207.26914449582534 498.9814444556906,214.72895641370064 495.5415137022237,215.45293795185455 488.29330646344613,214.9106499164384 485.2092050684474,214.91556667611542 481.39941660031275,214.37545002517675 478.3195263364691,212.56978711657496 475.1730832930324,199.90668938177407 471.2529321559783,194.4469280654854 466.54592352565635,182.48262685574355 460.5667504606048,174.14787460168077 460.93184925536116,171.42558715088205 463.64839509692575,167.0801118156121 465.9967156200043,166.17126875564657 468.3584422366317,166.89742838260383 471.980670954564,172.60327922982844 478.3244602466766,177.03899292663232 483.76188922451536,177.58641704651848 485.7523733352045,178.6747921479722 487.9456674437928,178.1752990800926 489.91940022713555,176.49245295691935 495.3653178317561,166.33581222803127 496.8147723833884,161.6215958565043 498.4501664398804,157.44639122848537 503.0437725625842,150.03819543389739 505.12329334438664,144.47050614234865 507.33488609627625,140.62890746258643 508.8890742497768,140.04390173504612 516.0169764529361,139.95188473406972 518.6461030155314,136.25949432851996 522.0888685829591,134.61553399331774 522.7371112669412,133.4648854404536 523.6415244950788,127.4881741812452 524.872433900513,124.70770802307072 531.1856461517068,121.82236320503637 533.5350585970612,119.55340965523715 533.8339724454611,115.71904373489735 532.8346541310466,113.06033786488649 529.8346403675556,110.57343096464751 526.6864892561169,109.41400988295459 523.0879069519525,105.79745919965694 520.3564059139768,103.89023639845959 517.0129109193772,103.31596135701523 509.6163119781901,104.19603585044945 507.845356924339,100.43134537470257 507.40083295941037,97.88953649011296 505.85748670098826,93.08029259193233 503.16436693255224,85.84955393274254 500.58961812049273,82.00842319790672 498.52130210595146,80.63727339242473 495.9170728048134,80.54637890010247 493.282562606814,81.86660652829005 490.79999139417333,81.50874795459606 488.48138448250694,77.54347358658003 494.2721403283619,65.27629557321416 495.7510026723972,60.8513698990198 495.62709828898414,50.24972392800112 495.8423493965184,47.90874986648532 495.21001644557407,45.16650058464916 495.23588645744786,42.47959098032561 498.2819459939092,34.19031270144046 497.6991812268264,31.57092192397522 496.303608309252,29.478209082779472 493.23579728235984,28.513465836381783 486.4477852998093,29.786841495002363 483.06019108924545,27.067590500692177 480.7202537871946,20.41717480446539 477.8552795499552,18.777629260637013 475.0910503713159,19.42288030744521 471.5640504773674,23.874953680427097 469.3082651824508,28.27485845277147 465.8545082351483,32.521214441007146 464.00558238285527,34.098817152514926 460.8144421666682,33.33785615408067 457.90718409799837,30.900717610220568 455.6036808133893,26.854614508970826 456.84314985240565,23.514745260959444 460.5674846794239,18.47033728341387 461.88169349433434,14.926333684826659 462.60089998673226,9.835192865292356 461.78730155297956,5.133864865131045 460.81082976605245,2.5175689324544237 457.7515977681591,0.0 454.12480478055346,0.8271526599561412 453.0811905943281,4.367398799215152 451.65738525220917,13.131105118853952 448.8022880772135,17.054350928720396 443.5420180218019,21.377173236885255 442.5522705178017,23.100527743935004 439.49600429225876,25.24893232020736 435.9460841163179,27.156174479540937 433.39414051092325,29.157820566652617 432.06727044160084,29.465461245495703 430.55197332285974,31.285002429528276 427.7161534851796,33.257616928536095 424.79948018111656,33.09812472612725 419.0577480107642,31.76387406338563 414.8747837145934,32.471108705981464 412.590073372706,35.05244471041715 410.3059508897659,43.09910242555338 410.54359362568914,45.23140609999166 412.61644618112314,47.359712889560114 412.80982343920346,49.05424020847488 411.49849085375286,51.3724551727812 411.5195555366363,57.480720457371945 407.73887745482875,62.862786998588035 402.9347075651846,65.60765581762985 396.87333875217604,68.00416296958281 390.5880413606229,66.38778291951292 388.52387648432256,68.21105857076589 386.3391999173177,73.15253763981093 383.9757418841181,76.44980680538231 382.8664871013475,79.90083120172619 379.77885884292965,86.43223605629169 371.433858508372,86.52667230875954 368.5765875594022,86.7531635245648 366.1747814935223,90.64296922985955 365.9445519048669,93.1575425428424 367.54503483534677,98.89891685363159 369.72058789547026,100.74192612478816 371.65837107597946,101.54413509079643 373.2616698134805,103.72853541852578 373.05453313949096,108.44094070130723 369.81238957997454,110.2134026831751 366.6295544178966,110.70664584977726 362.16704589323933,112.30393323453518 359.4237762498343,114.01004325550537 357.71509415851693,116.18957808724645 355.1945426796166,122.95376341340716 353.5544968073921,129.58810104472127 350.5556022730843,139.12547767518004 348.2385824476285,150.02702276313607 345.8431542878546,153.96982948959499 342.66877165776924,156.6307093124915 336.24456408687087,159.3657266834125 331.7909408418924,162.4440743524599 325.9274316921667,168.9066202379695 323.9899535709834,172.14029495253567 320.0442671800176,174.66362044489654 318.16529956355583,174.49292683548515 316.0219780725545,173.28155277374572 312.5927429523384,168.47050128928936 308.9012634727208,164.85674040513436 305.21716619684224,164.2501703268914 303.2463665551319,165.71503052076707 297.928723382243,171.29334867628484 290.55289791404886,181.67969037232206 287.447372764675,187.4990861798002 286.684223410871,192.4824155339037 286.49357644304934,198.91567718015472 284.5405439015233,203.2329933668551 281.81787575905366,205.34874122979443 281.18713711435197,208.44059156043522 282.5733621761256,211.44725234915904 287.0552916193711,217.06109097280944 290.0655387676527,222.2662339682663 291.0652961900111,225.5517277886737 290.7437526394899,230.06418156684367 289.60146362742205,232.2195579239924 284.0731634302957,235.88888002034548 279.4174919885123,238.3654017161581 279.54693609280923,243.0588646597605 281.8531354655962,250.7342494442944 282.1775523011788,255.49913260511426 288.4021763271296,265.2650996520864 289.02949367982836,267.7467800811853 284.7789812665328,270.87555519998784 279.92085305611107,273.28216847105705 275.4361355289768,274.38810015015656 270.6805090852272,273.6631470362249 270.20862397197243,272.55106410544397 271.10491527571736,270.8059399450574 274.0040861184094,268.8526019672604 274.32234512966534,267.69503707605384 272.73960289572517,267.4296148744752 269.3070178525469,268.43461863945754 267.7260815822724,268.43495723950264 265.4546676039882,266.9563616986071 261.87018774796877,259.66806201287943 256.9753628158183,253.55277618135187 254.55691250638841,251.6458128667124 249.29190151467623,248.23410296565464 244.87597191562438,247.08725737303064 242.7262043503388,247.0910927074516 241.00654868546684,248.12566846928246 240.83569375082374,250.5296441554566 242.38107256185512,259.8887614384537 242.3857250489056,262.7222472287241 241.17758036470454,266.6790273457691 239.11672204470216,268.57567799627066 236.1984122307081,268.6557471135668 228.11798169101056,261.8861461570341 225.44993779079766,259.90903629362174 220.55126689775648,259.4892763391791 217.11017668709783,260.18714830062777 214.44596124522187,262.16899370099134 212.2949119752771,265.0058727467524 210.8799723126138,268.3592754088952 211.0387846512941,271.39669865898 210.68028373376265,274.9482845015282 207.90354993681896,277.7994737175658 204.29292327287652,279.2747864949315 201.95264479384323,279.77075500519175 199.5044182571794,282.01676280975494 197.61107974250808,286.26406397595144 196.53533337796352,289.5349770259205 197.39396660082016,292.62889292602586 201.44715634085122,294.1181156133108 204.39411585309503,296.2572656294783 205.2063683234648,299.6707180564056 203.9960715538152,303.5038883046375 200.7751484787883,307.44329860057894 197.92898263945065,306.10091193857386 195.92067557209876,306.56349524791256 195.12130436310056,308.441158440623 196.92446897669373,311.77566958877117 196.01148125587872,314.30895743837937 195.873391404706,318.81249851876794 196.48761516093415,322.6965081782921 198.62441014025882,330.6251339775981 201.4565339492697,334.12686623754837 201.4516275654043,335.58076078172496 198.37042434804331,338.66975568882594 198.45783139511005,342.6001283694271 197.85475604548432,343.97461604621685 195.1989867271828,346.3762549256478 191.85983942200806,347.15449619052606 187.22587231449992,347.1625354751287 182.4292957410164,346.7422502927301 179.86320827602097,346.92141869711736 177.97445534787434,347.7824727112304 174.71916413251898,350.781415484264 170.77432233981676,352.5860532169967 167.86153035528218,352.59336377853606 162.6355665636858,351.23350117875225 159.28691982335198,349.41072990650366 156.56811023770834,345.8971082900623 155.31398133896909,342.6909952543389 154.25951070423787,341.62213231731846 150.0108873678993,339.8980806537095 147.87106426218077,340.51371085310234 143.57457476424472,343.67106264006156 140.3790364706486,343.0037931577335 137.1769475924417,343.6165894357774 133.99580139759644,341.6808756241837 131.8206588882135,345.9199456466861 130.86343878511295,351.8715728035262 132.51742517598754,354.59589604299924 135.23397598248087,356.48386858772903 139.36611590969142,358.3724016608702 142.74333044466292,360.49247613553587 144.69600890987454,359.7740843239469 145.24696891534302,357.9293898099003 146.7667622222787,358.0332638394334 149.10096904678758,359.71830526060023 152.5829810210627,358.3462135892761 157.2772671619361,360.23236707488695 159.28994218280891,361.41722949311065 163.43011397358504,366.8899024630542 168.8839280597389,371.31941838213254 169.19538814169007,372.4431839580906 168.42184421279222,375.3243945604771 165.3834135311934,380.0325393989559 163.8810505624796,387.52469631358554 164.0988450612648,389.03811463772774 162.92614177717394,393.6933369020129 159.47650613144836,394.83082957002625 158.9137113806377,395.7653205732146 159.91523153040086,397.32601575535693 159.34856257656506,398.896123952042 155.58508314505843,400.8848376974237 155.07954773009948,402.1976518872633 156.77644152850326,405.0744044573213 155.96156930100022,405.82773085406563 150.50221915799676,406.21814541495235 145.92152454883762,405.1597193924881 144.10600397233864,406.8811792524874 139.46773805456277,413.4707550845965 139.4639222177489,415.2231038413347 140.53046995866222,416.09746878490876 143.04235562612345,415.84659139790233 144.98114369900296,418.7220547186321 145.3590604377223,422.66256083450526 142.35110246386924,424.8008855550819 137.45198340416115,421.4912731316904 136.0137135661175,418.79544902013697 133.25569813566875,417.2448181171243 130.6817364464392,418.49975567588274 129.36754503372657,418.1895743846171 127.57646898618401,415.7823190534359 126.25249129631707,414.87964356153475 123.1656201063011,415.112739720083 119.5486744137587,419.8231590914363 117.4365709118288,423.28640082621985 115.40292309611324,425.7037109376064 113.59406852244142,424.8749572891817 110.4284425310864,421.1848117479004 102.3708255896048,416.37712814754764 99.42996451530935,415.48176706461925 90.47128577741363,413.38116999446254 87.23468271149694,412.9282397913255 83.7676158215462,414.8109331956663 82.02607094639698,417.5751400001144 80.60274646189342,418.8317919930803 76.91860710156584,425.3546575075628 78.49898910882472,427.53646844712546 78.57592236418722,428.9705670615908 76.39133767965603,434.3893204202036 77.44693340050905,435.8893959769672 81.5137290065211,436.79838633451493 83.01772831481652,437.6202994562983 82.94227154451742,439.2794632033425 81.1333040504495,441.0104500330822 76.46453286359652,440.339338243988 73.82946601485217,442.0643058780428 72.70242095192148,444.17908722013465 70.59317379877074,445.82987821006304 67.58670813295619,447.1052806479762 65.11666993536646,447.16005765472005 61.31332340961782,450.0775294275097 57.69698432228057,455.45455045501285 54.17889317243733,462.5193959904632 50.2003575509082,465.1211713321063 46.453896004696716,465.58174934310443 43.27773672879022,463.6410117473272 39.646126808239536,459.543372438039 37.944045988101536,456.80638218341437 38.169855514134504,454.6445545211502 39.75566599147523,449.98686863459 39.98080606012685,446.46181325104146 39.753324312985484,442.8277162784053 35.55723922161995,438.15819330183785 31.811522680675413,435.8726411330233 21.400882495407405,430.7754240438693 13.447033109967062,429.575244843237 12.173133578280638,433.2168385268118 5.578836546499856,437.4281941880697 3.4690807892425366,439.1076846332611 0.950610010876996,443.63586361834064 0.0,449.3250382915877 0.0022046015252338096,455.55306274165173 0.7368271325182435,456.50135415219097 3.579778007658063,457.2447886990577 5.785854738848823,455.56483111214936 8.6292482738326,451.9868472097895 12.515546748532167,451.8859284577694 15.76964156729576,454.1848326307826 17.906122334648515,456.5501440246128 19.109419206245203,459.7606072493753 19.371485036512883,463.49701193467547 17.04469270210594,473.05564104741643 15.137871595001476,475.1857123348716 14.876235659469137,476.9185090766074 15.872619335310414,477.66049299877454 21.902336507771462,479.55633295408586 25.446459190871025,481.30115147044387 27.585748589297495,482.84659499033205 31.539001116472647,484.66047084898673 35.35611260461571,486.88479308347553 40.513373492048935,490.3717771280857 44.7245868265402,492.45126234415727 48.8182268167646,495.5440017864854 52.09679204030331,499.7680040151862 52.83030834350283,503.3296222247229 51.89948108496387,509.80013852043885 48.3536193769126,515.7927531874457 46.14674337494797,518.8885440246634 46.14281001363954,520.8457754647243 48.35380133245666,523.9482956394327 53.37059189522458,524.0349482833597 54.644261729706905,525.9958742032295 55.45231088736885,529.0759463839502 54.458468321544714,532.8322392255284 54.73163103747427,536.0487682303456 54.65881601755193,541.951963313666 55.66745256444508,547.5836648020972 55.275935094667226,552.3406362040389 52.79759824363874,563.4033714639553 50.5202823987544,570.3233908403997 48.91526384603244,574.2075444520692 42.83647834769024,586.7455079853792 42.90324486491491,588.7543338537894 45.30947803084245,597.2003116342244 45.45223050769463,599.2696255807267 43.712894343806504,601.5654747848521 35.40208901510245,599.1371519476079 34.54574689449191,600.1468467042295 33.933613349045956,604.3019439026649 34.608670628881754,609.721612553227 34.21106093363028,612.2050224433841 34.95422406833755,617.6466134408658 34.276283680490295,619.7215993538045 30.34330830597224,621.1255724329752 27.05853940155264,631.5814849087119 25.45893433220306,635.536576417514 22.65158938221467,641.0895835447943 21.911596528794547,643.3801307710601 22.39284269529697,644.9874193141939 26.13810685161181,650.219436184782 31.689404461375066,656.4683173864944 35.97455731088567,663.5758211522689 37.58304917475406,666.87016154943 38.7287115926449,670.6895603698883 39.729746043497556,676.0599894445124 38.79547717697136,682.2303258437366 37.26419428342162,686.0544971829428 37.40124583647058,688.5262519799523 39.343657130323194,699.6059784322359 42.15868207455874,711.667201648042 44.09944821846894,718.3172411208428 45.046985897161406,722.6736689345312 45.042788779161675,726.0905687811816 49.60934945687087,742.6598194303274 53.56839514020458,753.5283894439439 54.15847857877374,757.4158842211202 53.16673418923689,765.8585347894241 53.770050504312564,768.3382269286639 58.06707718869242,775.6662726907567 63.110496012821606,779.3758953791596 67.29244086132756,779.3745719557108 69.38688963182122,777.8547422067218 71.08362248108824,773.7294266434224 71.02233800729324,770.1777490208481 71.88968256239849,765.7895445668321 72.72739834860056,763.7937500271244 74.59988555232144,761.3825645659235 77.14701388388916,760.0962949700756 79.29786944605286,757.6835489043933 79.76411747279,755.1343364426891 79.42459991634165,750.2417505978169 81.56769245412865,749.0392465303157 82.70964747384215,749.237993242526 84.44609312583697,751.148633061637 84.51602666820847,753.8672107891445 85.56337820379133,757.1967387103765 88.23269406385391,759.2863985720271 91.27730259230793,760.0508600761002 95.9431990195582,763.197127190579 97.09116589355585,762.1335145018465 96.93968767156058,758.6343010398589 98.4305619656581,756.4595211054014 97.47539195722531,753.3760753177826 97.81864388218533,752.552998712288 100.65118205031632,751.6537895026139 103.86612241559357,751.6775293413671 106.38329789060236,752.6896208914145 110.34343353507445,755.3775369175189 111.48413255425812,758.9944483569159 112.79481680202802,760.875959483999 116.16022893342291,764.1001635879004 116.10828409468876,766.0398176836991 113.93312731436843,771.3489324909846 115.57611800360392,777.7354046401747 115.76143712635292,779.8697326423237 114.24973884588694,781.9928305178257 112.12773298784104,781.9631775792983 108.9384502860689,780.451535879949 106.81002700111702,780.6475546859831 105.28869862335188,783.6021851805388 101.6225320005986,788.6847559874161 101.1664810127788,791.869540345259 103.48087096698687,795.0805488326635 103.88933611067586,797.2032514160112 103.43986826369435,800.183080386247 98.70515285416626,804.8185728516818 99.54510314088591,806.9700879552287 101.66276261142761,808.4685759581564 107.11805962954293,817.0212995740601 111.13655788156757,821.1062292902149 115.15963269893487,823.6823122762476 114.04160235844941,828.9973047576899 115.22361482199264,832.5426635488352 113.55285229034978,837.5429749680496 115.48753679166781,839.9659346129392 119.45918003555896,839.2456030252804 121.14820668370737,837.5001327012337 122.501013641364,834.2166540777866 123.91090715896433,833.7572177041691 126.58302854187446,837.1202677732288 127.11772760856945,836.9835707086512 128.28543242941538,831.893901400504 129.70375473339902,830.2226357406425 132.72545765149175,829.1584039521348 138.39064451881697,826.4854724280489 139.17510772024477,824.9202386939065 139.90675831683,818.0153930473459 140.97469755148515,812.4346542920789 142.44778823573296,809.6432734820713 143.19656768651495,806.8249118061185 145.13041795663963,804.2476197538263 148.50544525743206,802.9032885428915 153.2377272911117,799.4362916709566 153.64102542176386,796.8560128440294 155.65605398767377,793.949913217917 158.6359643000107,793.1407751291779 161.83713891793752,794.1389487137775 162.95818612316918,795.4865592214115 166.29989203635694,795.7130983485805 169.36488407737488,794.9655976280524 171.59664232230844,795.7020828918659 172.47946241432953,797.9761927371462 172.05771080524076,802.9786282916737 173.27494921501352,804.0701668394513 173.76459761062358,798.624796266844 174.4302358007819,794.9053784392311 175.79711438709694,795.2757799892988 177.49513153240775,798.80863576026 176.12039923277868,806.0547111136034 173.86748485769962,811.201867626005 175.07611916621357,814.2550874216058 177.16955012105817,816.2649467927774 182.53785693438607,818.8102315997035 185.57645547254918,821.6561863325235 188.41117998689714,826.4130012733133 192.07538029655018,829.2564695977503 195.2697293320205,832.5126043359509 197.59997375182544,832.2412822332818 199.3341272678193,831.1004615002626 199.73581280929417,828.5824241323905 197.93310962486368,826.32457525322 198.2016609650417,823.6633243132654 202.1826905928511,820.249865579661 203.3068518806811,819.7394502816583 207.67180251012937,816.3650166549977 211.02031434468836,812.0717043727726 214.24090494078925,803.0063919166573 216.1189777993479,798.3123712622031 218.47101557422673,795.0943550274992 224.09944677289153,794.7496389334481 227.26394341376428,795.5505883974753 228.46687318358687,796.355160358051 227.12717248284522,803.4575174101777 227.40512778498723,810.9712325049516 225.5272513958002,818.8803800756746 222.91606872952602,826.4036178857474 222.3758844366706,829.0874450046432 220.5703902902542,831.9025702757698 219.16294964889988,832.7015170902777 216.18587906765728,832.0120468979421 213.22645526145536,831.8763004032577 211.82130232450402,834.2685378246221 211.53392144013756,837.3709724144212 210.40913922947408,840.0480280578713 209.42163425439583,844.5522123617188 209.42515655611632,851.8656751211438 211.25216805169043,855.6646335261779 209.56079043210104,857.9249886236746 209.56847744820928,860.1731848065216 211.81912194926926,862.696857442102 213.86749070732859,864.090224404303 216.28362095539387,867.3730912680946 216.35713294534574,869.0461879834281 214.05504193938114,879.3753132047779 211.22479574880174,884.4152827227914 206.89136099313853,894.1823261840146 206.8910328175115,896.3904691106791 208.0035437618606,900.4938893927405 206.00908460177763,903.4851910503343 206.22790910126304,907.2556277999263 209.55910620221994,910.9130392667578 215.10665157374052,915.7681500829649 216.7703941815543,916.7644564986692 219.8814583436255,916.426992404452 222.87234441246952,910.3255918096444 229.9771494932141,903.8889379791812 233.0812651888982,899.121563351429 237.96094480120917,898.7827087696638 240.18484581602218,897.0115922634503 240.2927599793144,894.2369651885219 238.29718584273482,891.5784225657997 237.96419073949642,886.3712930323051 240.4388206903477,885.657329901175 245.10864914798492,889.4582065092336 250.66505828885724,892.4631222976202 256.87107278910025,892.639120499296 259.46801276962776,891.5735709340888 261.297021876804,892.1064470571882 263.6000706843816,896.118425783647 264.96555807811933,897.0641894805076 266.6776315994375,897.0008159915616 267.14357090289406,894.8207310748777 264.4318486410561,892.3425375780206 264.196362317214,889.3845402022562 267.3820045079589,882.4180720348902 268.62639843817044,882.1736525908134 269.45063292028476,884.6035138293151 269.0987074538552,888.2633741968023 269.86093230492975,889.6749503277057 271.75128068212115,890.1567951596567 273.05198414752095,888.914054479849 274.1753287751934,886.1325663570703 277.5397830067501,884.2403311851244 282.3197863611773,884.6297635274038 285.2754306726731,883.0890850879604 289.2863938451125,877.8940185396197 293.59220293629176,875.0920975196589 295.1288168301027,870.8389406682688 295.9524115993891,866.950032742574 296.6633735279542,866.1135500569982 298.6672054948961,865.9453164667132 304.92356188428437,866.3030168929724 305.80183811930823,868.4843199308701 304.56422712332375,870.7946428088749 306.3335557733406,872.9177892457604 306.39156098871496,875.1671507911742 305.2206162822517,878.0220056293609 306.5050662553109,881.5250996529469 306.7202920793584,883.4763694010023 309.20250701691066,884.8253057174295 309.85500877391274,886.6591827560187 309.8972399666359,889.5872922449765 311.0300010752182,891.3881187580621 314.57166708924706,890.8183914284936 317.0508837391331,886.9489513671532 317.9042837133325,886.4588548065577 321.44036870784555,887.1230251347491 324.56839984774075,886.3926125856497 325.4253699125233,885.5029815776338 325.91253449753344,881.3697590012121 326.68851816498193,880.8400615004585 328.92021535597553,882.3448772364302 331.64097070147136,881.9854771767983 333.92390178435716,883.8195226294166 334.84334631075893,886.8334508254029 338.28306291227835,889.6333288501921 343.0351710474791,895.732274135441 343.28684125314203,897.8569834242369 341.6750587091712,901.3315861609467 341.84967017513424,903.2831049850605 342.8634085138722,904.8989234620952 346.00104943307315,908.1329347388962 349.30527132382497,907.555167477176 350.74581025229344,906.5275152694691 352.9455164291487,906.3675199498106 359.90081780879456,906.8098872428153 361.33278360845895,906.5529066645628 365.5767540234199,902.9147159065371 368.5363010469246,899.1744868882859 372.37369761986474,899.1565575229725 374.8107260959238,901.9125119888881 376.8970973526016,903.284033402668 378.3672593945295,905.2348066808217 379.63401504399724,907.9889844877276 381.9260709159765,909.8742034736222 387.77395095656317,912.3475626117 392.7734065227187,912.0115017574983 395.73706697970937,910.5813544576334 398.7018426242192,907.6096914380613 400.6859208348943,906.4645526310992 403.26618696531824,906.0038991337218 406.0256237017908,906.1269295108161 407.9844673833794,905.5565823248836 411.435780006695,903.2491869785918 413.63023768338854,903.2531430903359 415.58616426504335,904.9844940975325 416.96270253414855,908.2201528321427 419.38577087476716,909.0345693685239 422.14725457577794,908.5810904062648 426.06291891124505,906.8563328787762 427.91036164354006,905.3510140933646 431.8210792690858,901.2010878899674 433.32128866543235,899.010837910087 433.55251926778874,895.556343890846 436.7805019234541,894.1752406470521 441.73184124157956,894.177914571436 445.3027971765645,894.7556417981757 445.7686248078027,897.2898783334058 445.4443454781272,899.5006801312481 449.2367769666698,902.55359599456 453.8357228713319,904.5723599485357 455.68035670434824,907.1059865094749 455.7936797970932,909.8791226380605 454.9879478638007,911.961614563548 455.56657935253253,919.9197391840694 452.6855157361097,921.9979383434843 445.3723211829451,922.1078311592235 441.1855114854275,923.8575109306552 438.184419126419,925.7403327733435 435.18864393260105,928.476935834494 434.5153386103236,931.4418494302023 434.90021087411134,936.1255671904572 435.9353209161477,939.3236301744598 438.2451064847957,942.3275547480847 441.2070809306651,943.4344019467965 447.1520447784152,944.5488351379462 450.12656800111625,945.4400755055476 453.0854621559379,946.9476652925379 457.34534208369854,947.2018647788183 462.2459576319279,945.7757002189978 465.220441339421,946.6458441015827 466.68704794582044,947.9498013509395 468.7944791518658,950.9444905386836 469.18731541489296,953.9217811102578 467.70924698405486,958.0754180523697 469.19815041908925,963.0902575792624 470.42082294865975,965.9999741500378 472.5643630710814,969.1279749578629 481.71823495479975,979.9405489507146 483.55132964623607,981.6735087612926 487.40995365946094,986.6480650653784 493.1053782133269,992.6469797957747 499.1775095857529,999.68061213288 502.3608705717282,1005.2796195628742 501.9192770715973,1006.7638468530106 500.4176939243667,1008.0296171635028 498.9278524741711,1008.2275376249963 495.9350832269848,1009.6911756342171 494.637065100243,1011.1735079903158 494.8369399022728,1012.6524388738948 498.79549994593117,1017.5961930478667 499.1631831401268,1019.9276267282448 498.38865382680586,1020.654248578981 503.88408906799657,1020.1455399523095 507.1963247665399,1020.2829262251853 510.52243810749485,1021.1596674772147 525.3799691420503,1022.2901152927918 527.9215357218795,1022.824086018293 536.7143006651535,1023.860403633412 544.3756487497569,1024.0 553.7740429633689,1023.3638869040116 556.1602488669974,1023.6106072797284 559.1047979004715,1021.5090509739373 562.607818950774,1009.8373748491091 564.7151423625622,993.2755680305369 569.392418398281,985.3387439339647 579.3130771614253,972.3287275496336 588.0979719530095,959.4319887900435 590.6734698655606,949.705673009712 590.6685968458598,942.9427036379742 588.0991369631006,935.9559959935135 584.4427147271459,929.1125299535981 581.7029330697427,926.4963047981576 579.5754432451151,925.395342789898 576.4335587093548,925.4022311405765 572.681163561716,926.4212845519161 570.7502603656943,926.3357414163221 569.1269773141045,925.4247549333874 565.4783217430087,921.6949577866168 562.1368532724543,921.2013277615209 557.7760778024627,921.1144604840997 555.5399372596955,919.6027332191084 555.0390089745666,917.9942901775861 555.7505152528136,916.4674270778548 563.0488214438524,912.3037854814361 569.2315121895746,907.1218614309572 573.3890392134388,896.8413838811064 573.7971479608844,894.011704436495 572.2786603093435,884.5116611018327 569.6388597925064,880.5785782248942 570.1433419149485,879.3623363604635 572.6790772408012,877.7376890018637 581.7102723710843,873.7033101081497 586.0198136514681,870.4900137065474 587.9203374439082,866.5183543173666 590.0813491432028,864.4036691872902 593.5191621904039,861.8661817208824 594.74039980666,858.9578659122855 599.9596442861995,857.8641177832992 602.103647026522,857.0339951748743 604.0440610354717,855.1364088901105 604.9361275406807,852.9304378334232 604.6251757063594,847.7859152243761 605.2373695283529,846.169072173274 608.1763291520516,843.934208310269 610.5035576132587,840.3890275536205 611.218159524526,837.7539369742757 612.9443659825105,825.4550507232306 616.7979226274151,820.4894961370946 616.2900479596811,817.4556040004327 613.856365966357,815.443144961697 614.0576083640863,813.1423820154888 617.6890016586133,812.0207616312675 621.9739327169822,809.495592616232 624.1247936942528,808.6650467100693 629.4664223693743,807.4145835215858 635.7151155495859,801.9244660338916 637.8579905823827,801.0833860389682 641.0604154847566,801.1056941120316 642.5328171707458,801.6251836177834 644.1689146368371,800.8302967826686 645.2857277524988,797.4932538961598 647.604996198853,793.8256936968403 650.4554150081765,792.7416870255362 653.0072582683658,793.2316721769303 653.7966383712952,794.9900854915511 652.4193785669104,800.3835555803302 653.8909880230295,800.6772001423274 665.7958852882384,794.9588828884166 667.2947926022807,796.7832931184265 665.7167355793131,799.8991449870911 665.9779407103974,801.7248611125017 672.0874957322134,802.3026367854458 676.1653002716656,799.1837277929824 676.8121695317217,794.8439711597116 679.7643507266284,793.4094040735904 684.1781515055499,793.5112580285313 685.9636253588039,793.1956364064656 689.0996668252627,791.3997084211061 691.0679057639767,791.2679069130812 692.2507162947917,788.370904170788 692.0977695350143,782.6234263205945 693.1249589721566,779.4412787590625 694.0473893509427,778.3125892213976 696.7125879624747,778.3180350459569 697.428415545337,775.3438094893895 695.7057684985853,770.7105002406645 694.285824821322,765.6420752622357 693.1425175647748,763.9585671525803 690.0579632862166,763.033347614055 688.3564215365378,759.7556848346164 688.8317989531209,754.863528986592 676.4464705349809,749.8703068779241 674.5588065076614,752.6090545483266 671.3948300595962,753.5524984987871 666.5546363322457,753.8345273647769 664.2300234963687,751.5159489876385 664.1381456987087,748.4485418266122 666.9261292117518,746.0296256441987 667.9526131469787,743.4238933542338 670.0018313148801,740.2634039396273 671.2056326368239,737.284676736861 672.69432000835,735.7928164244993 675.762104376096,736.5135959426891 679.4166719414769,732.2906246403802" /><polygon fill="black" points="679.4166719414769,732.2906246403802 675.762104376096,736.5135959426891 678.5586468305029,738.6626327862986 679.1138020955871,740.6177079453273 678.5612049031106,744.7085935396225 676.4464705349809,749.8703068779241 688.8317989531209,754.863528986592 687.6293629876791,746.3459476260024 686.3804816854848,743.1351991082595 683.4192740320044,740.5661071121428 682.3772039748059,738.431554162411 680.2108033086718,732.3959012779035 679.4166719414769,732.2906246403802" /><circle cx="319.6770602578527" cy="549.1684343370601" fill="rgb(100%,100%,100%)" r="16" stroke="grey" stroke-width="8" /></svg>