<?xml version="1.0" encoding="utf-8" ?>
<svg baseProfile="full" height="1024" version="1.1" width="1024" xmlns="http://www.w3.org/2000/svg" xmlns:ev="http://www.w3.org/2001/xml-events" xmlns:xlink="http://www.w3.org/1999/xlink"><defs /><polygon fill="black" points="46.34855316748416,846.2061866475317 51.723440319306995,849.5056207830162 44.39485106748969,863.8435981176949 59.34104924347075,873.7694332340371 49.409808229160824,879.0057039789656 34.88826961751125,886.2264195810163 29.490565162899973,888.1921959857154 17.900633955927837,891.4008965991109 12.733929787960214,893.2229904893989 10.386084537629445,894.8617734503089 17.11227568255105,909.3194869473438 17.323033538858592,911.4102449840414 16.897026387224475,914.6606110697444 12.948251333777707,922.1385169782012 11.777550582990168,925.7313447428651 11.57259632237945,928.0759397491094 14.203129029526155,933.1957855248062 17.72459175425176,936.1369472201617 23.226364587884664,938.7877552132055 28.91456596714376,941.1373937281808 32.21013327099417,941.0616313238154 40.56876397725479,939.1678818129188 66.5942927490512,938.4932056013458 76.22667527073371,933.2696467894748 83.3500248956434,929.1185340215061 89.91399429120192,924.9524070050873 97.01961156337481,920.7986002481771 104.62796850044855,916.1126799950696 120.85492614911541,907.7624834738166 129.49487984799032,904.6294357814296 138.6604064680333,903.5118371942218 147.8261101767264,903.4411515285243 157.53903667746076,903.8523816397945 167.23737608458399,905.3107598576912 180.5780884602539,909.2850009640558 187.26087764227444,911.7792118710911 193.95778051590023,914.8073946123815 206.4694562106547,921.1254144787587 243.8023753826061,942.483765095461 251.19222023811696,946.1570306203776 267.5678962077537,958.3117020397092 276.3411351024638,966.4073671797702 287.61391137888654,984.4539421024191 297.9898150027188,1000.4293577020042 315.2720198312693,1024.0 315.7741072535414,1015.9279049606918 317.91439763124583,1005.0054864646025 325.87808512696137,989.2566732654323 339.8836221213734,967.8716208281799 360.86581061281345,948.7034280606428 368.4931767790366,936.9466330642681 373.8329062828008,918.6990893141763 380.9649786057984,899.8374302057425 388.54855718233705,893.2148772355677 398.8238982402782,885.5407584340089 414.1478449772924,883.1562610990364 433.56346054176277,876.9639240008182 432.0123571230433,868.7260286648798 431.3877917816369,862.5985422007086 428.60237074306775,858.4693100815871 425.43618953618426,854.5803755244351 424.3859000855311,854.6095852172393 419.3889036964171,853.2608093174035 418.8549223964453,847.4700723810233 417.63945136970744,841.7718654042061 412.7932075422688,842.7726392619554 409.02076444075675,841.122980055565 403.8014958062901,840.1162552370088 397.03609017546745,834.6495302577725 393.5761622328433,828.8482723933957 388.72210326779566,823.9977851539077 388.40914993299805,822.1531446239454 389.77160966587024,819.1030646783738 389.1223528979295,816.2090177661603 386.0544209476935,814.3427566045118 382.4180048948783,814.7661578168293 382.79450793306216,810.1598033111584 380.81817982339743,808.4999788167079 380.77262338316996,805.8934322892414 381.8014792305769,802.231611346596 384.7210207355421,800.5909109230515 387.08235721002507,800.5496019989545 389.6496930853174,796.100906673237 389.65022063652515,793.7191045025957 397.04206070892286,789.483908166081 400.3256185014237,785.5246948386224 402.43125990665754,780.3992375583621 402.7106043549415,777.9185481498376 401.6459314149131,774.9915250625709 402.14129318819766,765.0071771394048 398.8387761131134,757.2537703336552 398.81447574541886,755.8686147046735 400.0229728840823,750.8609247236129 398.565583534532,748.7597890702211 389.26393075436687,740.4670793090456 386.80639849550505,737.6879567302568 384.13921942163137,735.2723127051117 381.95332638508665,730.5577311180652 382.5368402286561,727.008387697191 386.4840734681866,720.5645216966503 390.3777164281979,713.0554957929692 392.50051366314887,708.0828023538663 392.49441348052056,706.4610256388577 391.5392530129592,702.2619565837913 390.21939441260474,699.0708763913046 381.78667436954436,674.3963861187838 380.94004629502393,672.6980412938622 375.2009868303802,663.8406228185405 374.00812469788883,661.0822929671772 373.81757799012615,657.2887145983018 374.49675696598956,654.2478850349348 376.7269077343471,649.0397591563699 381.07047249612356,641.7484182065974 399.1436155113676,640.2925865377836 404.46060211951794,641.933745758026 416.3521920390984,642.0438618109408 421.6687420527565,643.6525644844075 424.4128796323134,647.9140055094399 428.9286164951113,650.1409342454389 431.2810777941914,648.3861734217842 434.7262684319598,648.3360306970404 436.94521359945156,654.6179571808689 447.94935855593275,662.7664263682025 449.3091100909721,664.2595342700198 454.7549510556456,653.2446152166256 454.57745878630675,647.9953181025687 455.5219683960592,646.6547160261287 455.75835467558056,622.3324292969761 453.4166175061836,611.5199795832489 453.90633535788913,610.1578984179916 452.74738022892933,595.4871614349563 450.2250880633965,585.6822140611181 444.8556250875984,582.4530256914584 439.54002543825567,580.9977945856804 439.1191634561845,576.7168313135221 451.09725545706135,569.6435198882759 457.01900949096796,566.7993576991987 452.6032874059592,553.3867775155201 460.04681675532265,556.1573564319644 462.90433424142105,544.8845967327849 458.4712603598131,543.3441781281588 468.91939171359246,534.3450574052692 458.51374061976725,514.7447727719102 468.30549476082336,485.2574085832482 472.4327234838591,480.2589205152358 478.0285004079171,474.262062778589 482.08503098539904,469.6272157082742 483.7038400880573,465.2292280775232 485.8612719159193,463.2008203567359 490.99463734715704,461.34473191675136 496.7078806510472,460.5550097465989 503.91157521951914,456.25286718341727 506.5014824648109,453.0269415902642 507.6748057345956,449.96067999222714 506.8663273350484,448.4660060664412 495.9933731797572,446.0158273932318 493.3241470987074,444.53565635840687 499.4841191144043,442.2421102324472 499.89625371606473,441.4237427647694 499.8429646551853,437.06634650906085 500.7329392730036,435.35861048945856 505.0204995532978,431.6108135420793 506.3339005453644,428.05866549423456 503.39326436682995,426.24509175285266 497.237399949989,429.7202286930842 490.7032674635327,428.0112152304389 490.80041359881875,424.9830736524815 491.5200079303719,421.9357299013773 495.8613870460487,422.7199670032709 499.45440271114023,423.8344451166173 500.69556635193896,423.3100270938329 501.8622072942698,415.3108650933965 500.2317730457193,411.9753368084554 499.4941402658313,404.4641535814628 498.3469990816992,403.4481716990209 493.83529807499906,394.11682983604214 491.453784888645,391.78026826323685 491.4091511396678,389.28904720088326 493.9728578874554,384.3503608073228 497.62029546460167,381.46531800784896 503.6266620526907,380.35320263552046 504.99082612662585,379.64125104460345 505.58765387361314,376.95589338472087 505.49896082314183,373.1227615592978 502.6294397319109,366.8179960569355 502.5484357037154,359.6817087918798 501.54700873569135,354.33967046716043 501.11947630380234,348.4905309119782 502.0049693579596,346.272615568706 502.11111625170264,343.75719080490694 501.1669373383947,341.60167374393006 499.5834134859178,339.62144384732073 499.96685573749386,336.9372329528254 502.5497651424285,333.37567294407177 501.9871740135269,330.780956786449 498.6977269991985,331.18913611146115 494.85605510203806,330.4068302989315 491.7841125883268,332.98351180157226 489.027420303551,334.1903407078098 478.71067428527095,334.6222023975422 469.8367574300379,333.0596128082958 469.1732557556992,334.3819259541784 468.12505560522766,333.61116393122563 468.19262389245966,331.284438596506 467.5508163587814,327.5740050020721 467.82932177671603,323.170414444878 468.69372608077157,321.98683401629705 468.85171677718836,319.8625772599785 469.873674150626,317.0864433818963 470.9508036120575,316.8416124656717 477.04004649849674,318.3412002891895 482.84529702775416,319.3543560332355 484.6057599365121,320.4211292997437 486.42846237276314,319.977599947636 489.70796348541774,316.9460882721514 490.38618277302174,315.0675866620885 489.9985724851979,312.54222888614163 490.1985116501438,304.6060363786986 488.6704648177708,303.4948472113323 485.77861489188814,304.0676683399133 484.52304304023,308.4700203522859 481.35478663584814,309.5391771768184 479.2218430504878,308.0306089523725 478.8631409838601,306.0068942921174 480.4936601357033,297.4704367463389 477.25300321795726,291.8596678238216 478.0683612175212,288.0828615323775 481.92386138191677,282.191889841238 480.2938122520918,277.59689127012905 477.1176084159851,267.26946741287793 476.0323218425342,265.52730604057626 476.17658491738285,262.91991079008255 474.13453189056725,256.7774494336793 473.531154914091,254.24520967471994 475.8716163516936,253.9266902901668 478.0366084220593,255.02649286502617 484.0588594866446,257.40785530171513 489.23127186151675,258.86449886785 492.5719443104867,261.89807528839253 493.3759503911595,269.37854794822954 495.9417074925042,272.0688664927301 493.8843047939162,274.7589872719476 492.5795802422679,277.92968884199274 492.685207081936,281.1878485042944 494.1428405245156,282.24925469013317 498.6542025575423,279.19548237795004 505.52109826513333,278.0354404332144 508.430231609834,274.7149587456481 510.85446299115125,274.2201648754668 515.4607714872262,270.8045983974979 514.9250283179441,262.4089351098655 511.6061111340349,259.90686202415225 509.3672477852495,260.91124612545616 503.9358589526279,260.78343993956537 498.7430518042294,257.92290446141294 495.03452079303,257.4685966654562 489.2972761258225,253.00917559168295 484.25083476144624,248.7548004825744 479.95094965851655,247.81685001669757 477.63374154377544,244.31100892671964 473.3516575863537,244.22393143751958 472.1861845937623,242.98536733217213 469.92259729760826,231.80373765300487 467.9278935232003,227.18570582826555 467.7625696277022,225.29279418542933 468.8693840230518,222.01293550014907 469.30603519981366,218.83906171372428 467.79998085877736,212.8400572976766 465.8063589061857,214.37150395099252 463.5951444771892,214.55340568272356 462.15270136161126,210.71765726814647 457.68581428283954,203.87736897684226 456.72396379821697,202.92246586791305 455.4721984106803,198.92754134004963 458.10387371988065,193.56077287361802 459.1137296146159,192.48735900500412 462.22155175667945,190.73190757937357 464.2007935562566,188.26621341929274 469.9973361884245,182.82384569107649 471.72662524409856,182.18863649947014 473.5986355899363,179.69525990999728 469.8781485772191,176.1742985806652 467.74661310650396,176.22324165605608 465.88097291295696,175.05898972268676 467.53964235943994,169.23959734886057 463.47196598949245,162.93738925402363 461.60502652915744,162.11150419724265 456.5900958818619,158.00940587823754 449.06106141934714,149.32262658938953 444.9899766072341,147.51830827169158 437.81264422826797,143.7849152741353 429.1236212228753,137.57559480342388 428.3756659253592,134.97608019702238 428.5543628267407,126.91952934420965 419.9730401779244,116.98086770899499 415.16549779495085,115.69422250036143 407.34641030953134,112.06304087673186 406.17141129032234,111.09034609470552 403.9146832049423,107.27698406223294 389.21254123012113,116.27854914132547 380.4769908614849,116.17543692550817 378.87378645418136,111.59312276254536 376.7877747509734,108.02365064417882 372.68103470185883,104.99204781051367 369.06256609284975,101.95177926042084 364.40859176204515,95.85777986027892 360.79327558625806,93.82974651520749 357.7101466748819,90.7718819226327 352.522994509454,83.66138614090505 351.6579007940459,81.97415855623103 342.47578912303123,74.89365937884986 341.3301454675578,65.5717147438072 333.4670405034723,71.02687966613655 330.42343037154103,71.04008624792175 324.25103889059267,69.03785179743966 318.09007752062803,64.99720087420633 306.7822040335159,59.456924469348564 304.2380763751652,58.96977323975352 302.18761114121827,57.939603391561946 298.5746618177747,53.875558434254 294.4336414983819,48.80568950835982 290.30830962796017,45.76287132503262 283.1419210579435,44.27949847197772 280.01663271414844,44.28298593678858 279.6036548422204,37.93959892180874 279.81392581010203,30.100404782265855 281.3862363073468,18.652646945227957 277.40457858738944,10.180349006383267 270.0410949614942,8.434395195446655 259.8225725335318,6.388882866761719 251.1206714941948,5.047134051068383 239.47851331502116,1.2025286248634757 239.21781555223066,0.7451918976502157 235.57940294562204,0.0 228.59182634138023,1.1870206498166453 223.9444095286847,0.4162095866904565 220.65181676396057,3.18786474720946 219.1297782011392,5.885933710771383 219.46686704903746,9.18826699382248 218.4049319593629,12.270416727493625 216.21075211186613,14.22285175985769 213.79838112350936,15.021720880303292 211.42916215409068,16.88584645755202 209.69423136012549,17.16281159130142 208.91028716137578,16.25262921699698 199.8516749621648,18.078917886398813 199.0285154781476,27.700643830964054 197.81175133592504,29.1447293180139 191.25193414572243,33.04902460638027 181.4118760974472,33.269071437311254 176.05477883043093,31.159153440034288 175.33756307059303,29.36702952080043 171.7940356186152,26.498276855081713 170.0120084103929,26.48853728598158 167.164239211313,27.920170353596518 164.29354432123412,30.764556550956968 163.6022280215105,35.405576131029875 163.95586715316915,43.6160608811241 165.36147995046466,48.2722097720997 167.5957195099234,50.8036483679208 167.26099723279535,52.38824312114514 160.3865562244617,55.76292842334226 155.04882036404038,56.10118610205973 151.47753083585752,55.38348917183191 147.92558004740727,56.08854572528617 146.13234620720422,60.36969330304487 145.77405833546592,64.64783776709442 145.7715796267678,69.29851489643704 150.4163821283265,70.02749953860655 153.620209873565,68.95782974093743 155.7636781131233,66.46432730170397 158.9564043764273,65.03767106403586 162.5263655712272,62.91713694184648 165.71111499989928,62.330999435059425 166.84362060054923,68.40420528652407 165.9254950512712,81.23608559938532 164.12786131087958,87.57690201819946 163.92271278854494,93.26484168202819 161.4900147801765,95.37666177029087 162.4578272827237,101.82323691616739 165.8657391442287,105.13482458946578 167.88603684120193,109.34279050260147 168.31914522640048,114.52038064183762 168.04113030599316,124.79040539598259 176.7784714691655,134.8739735969042 184.17066795563764,145.71079131429485 189.58266883328434,152.51346474496097 181.80603547061213,165.70995878657345 177.12388508106451,165.48400177852852 174.6386891032349,164.4095027468967 171.08593043573248,163.68082586818957 168.93722375099068,164.74058601919296 169.650681113458,167.6095371090014 171.07924370346964,170.83144267463263 171.08493732880498,177.25686032955696 173.5801614331726,180.07387025292303 172.68524552943123,181.82107833988425 172.0959350360785,187.81361859829371 171.32309099792298,189.01633767823853 167.88853900494632,189.996008764507 165.12502468563272,191.65158210171012 163.38871469974595,191.89871139668992 156.14459873624392,202.55596157413697 161.78486395870505,203.544585709158 167.6881527976068,205.99471085697223 170.81566500492656,205.9010251494817 173.02472125663056,204.44016721894673 174.83310997659743,204.6348115193831 176.45989391977363,209.28986653259335 176.5348860915766,212.3711122865103 176.0848786204262,214.04089936715513 175.51289316500905,220.76080866791654 174.58167287184548,226.4852986007861 177.8312629657098,230.7662429605923 180.71537392827128,231.36136296587347 182.30121088316676,231.14896554671475 186.87069228110582,233.8686815655077 200.9554600166476,234.16164955805527 201.63370826898554,233.6586305585164 210.97630259544226,229.2744523624774 216.42895244777844,229.26393979125373 219.0008322786955,231.88336984203522 220.15268971764056,236.5679494728547 223.95614580504122,242.87705150329123 225.64403177663146,245.27537356626806 229.67123272450507,243.40424580995216 231.30322241452137,241.26288800499037 233.61849408002988,241.06991210032186 237.1659874441629,241.43834302410494 242.37251548315984,244.96808386259306 257.5563234441637,249.82889577121273 260.53934988238825,252.53494009196856 264.1249939219226,254.80894798096892 269.6123159576259,264.63563793680873 272.97881307893925,279.4290898066047 272.52026557591506,291.458670615203 271.92936992934,292.99679186760477 259.2706101111837,301.7441730983618 257.3173319800101,304.2483242458245 251.30093866138986,309.8864602195364 251.02038892202796,311.0190801672934 245.19906929655463,325.67588932893375 240.80522482650363,332.23096770377924 237.72548958640604,335.16522055245537 237.4446431790087,336.7167117287697 239.44498195753346,338.0758457004101 255.219190539419,345.59605332571573 257.1665032879504,346.31963036553805 259.5230479386842,346.32186697920827 261.3109723423379,347.00790031860686 263.82146665844954,350.4605903449484 263.98550448616976,353.634321934211 264.84711056363903,356.2643222558453 260.35785331972653,358.59749436966695 257.8972741408203,360.33167457327295 257.96548342115085,363.1311330516271 259.51911245351545,367.1938111612949 259.80159061054,376.0768578001595 260.48076217344953,378.3421509005119 262.219417165852,378.46516084500615 265.6196860903759,377.5551762908252 266.0553979194615,372.91302207610465 265.50644496785645,372.15455478443596 263.19175258920205,372.43087344512116 263.0884746237077,368.896280238195 263.5564578999789,367.41134128547833 265.78804765260946,366.20469645604624 266.33906320699646,361.9203570906135 268.9263350803763,362.7778106557279 271.0604136149604,368.26429582524906 274.58231779818806,368.65442318999874 275.34161884641946,370.24164285060385 272.5470958472205,372.46235359150205 268.5524151188238,373.5679736971116 268.2734867124474,376.0861291492673 267.424261652331,377.76026152743873 266.371389007687,385.1600281663808 265.48247950451474,387.2671515309987 265.5659406148829,389.36820207630115 264.3939050043786,391.1714200759858 261.29305813789944,391.6143552886955 256.9443579527244,393.3515784345783 252.9029144763169,396.9388929158954 242.7334819981863,399.5120307425502 239.86493315656443,401.0597383367045 239.21142616482229,403.01772321542944 239.92022219504932,405.8571560634674 239.73691115860282,407.60297555308944 236.65025646315803,410.17744426779507 235.30329244642616,410.4771827426391 232.9311806988476,416.0869649382032 232.3483214771674,423.3146537117332 231.52643692540047,425.44198590441124 229.45428554082375,427.14774430115403 226.00617857382775,426.60279941138276 225.26569865896914,427.2599440176175 213.64140838806327,429.1106439113653 210.22479002254727,428.80935570673864 208.13327792262126,429.39024271034793 204.89465567854612,428.4709646570477 203.4736533088961,429.37867725800425 202.6323381203461,431.83115431506917 200.39129231495173,434.9868920700544 197.54593871693632,437.04666917678435 196.13688843681103,438.9476341870678 196.66433922083263,440.4852495754079 198.52957332357983,441.61335262044054 200.5783130696957,440.9929855404732 202.49936196797177,442.9175955033172 198.94874328728025,446.1064415826297 196.0907747089834,445.9807303021164 193.47146675162418,448.49844015528674 190.0002293625107,452.56654206859787 189.219422675742,451.011760049593 189.26386074738818,447.21694792353003 181.1009014940212,448.6771770193408 175.95954692618804,449.09231005309016 176.96176387802376,451.4139673117121 177.60627699627454,455.0225033597201 180.52939166156958,456.2025018803929 181.2434791009807,458.21221739388557 179.62706479466613,460.3314369224357 176.92379210378695,460.4069951412654 175.4244772274291,459.202739169335 173.27264359985733,454.06249438880604 169.98218377331204,455.0609249959929 165.81202197093063,454.8122817417445 163.86433084561708,450.14110333890653 160.39357245080194,449.2871189968382 158.50322958074187,449.45077783992804 153.30030040353464,451.79451349959083 151.5978005244089,451.4770056445169 148.04970873055106,449.86434013185544 143.93249134962412,450.5382185825159 134.71719485423844,453.01402853366073 131.82128406610602,453.430827817858 127.50704794244959,452.28468789479894 126.11720656923359,447.5582936606081 122.39505253485294,446.20609590479387 120.25273628113162,446.58055467935856 116.79691467355474,448.2203223298674 114.92612454784741,449.5433611599591 113.454424978432,451.4342645776436 109.58202250263737,452.50368846030176 107.84496188547833,454.2567247387144 103.65619441190825,450.5332459023392 106.3527660828396,447.265832570253 112.77553120548677,446.9240885242999 116.45109232798352,445.66193237856794 119.21932191910736,445.327956322673 120.52806962976544,442.75239881185246 118.6473405174812,441.7181565651904 116.48802996000825,442.5547102776143 110.64240138523034,441.657060101296 107.73472702492126,439.7486262799773 112.53475938371054,433.8117029208315 115.25345482521726,433.1939672292509 119.7405711521592,432.83905081514627 122.81697218123782,432.98314642945 123.16825543434378,432.1878110833434 122.82703488636606,427.4061191579316 121.2353506504655,425.8541728914074 120.21424059031014,422.6815615963235 119.65150991779072,418.5909813347005 120.9005782762029,417.33746188183 123.59875285542404,416.6877733702497 125.28727936759219,413.83994579188084 124.40298068233248,412.3056035307085 121.51822546385819,410.5714372288934 121.08556699976752,408.0145129841791 119.20401812985007,405.89285801633787 117.45210853046221,405.27800804644824 114.02583338313457,397.3182385933593 106.30378002935589,392.7844655695476 103.62063191673055,390.633287587513 98.74952697438664,389.6600550598396 93.75753754292806,393.44667583732314 91.87250585535597,393.907963907831 89.62683073244428,393.57516030627755 86.39212658954578,394.1745451599919 83.85995811179961,393.3256205513761 78.10309946554608,393.5242203524151 72.09355759090127,395.5205521617106 70.63427947176487,397.1130408152811 72.41156273525645,401.47328051362786 72.71341923573833,403.05507023325026 76.79490327142283,410.4940042914293 77.85390139385369,413.1397965274174 78.67197076713815,413.5476330669454 80.02870378522704,416.04612424700736 82.26998684640232,416.5536015971104 83.51709418290878,418.7263486959796 86.98974305770393,422.09149053578744 87.91125901209493,424.6697598628741 89.147697946065,426.35131229946956 89.75595189224325,429.4798982461531 88.39468559901175,432.9261571700714 85.62835471903261,433.2195968724011 82.65356901387617,435.43361520196413 80.5863521377119,438.95342421330815 77.57214419376545,438.8186629691552 71.75033839564892,435.62431494482564 68.260829194299,435.2530978149821 65.89449822696402,436.47138914814786 65.43926851901242,440.1091293223218 65.83114202097222,445.7410915031006 67.87993808106647,446.0048722321127 68.9627334042139,447.69979901957186 70.95330759148852,448.19007828025985 73.08782664674193,447.49653301706394 75.03730246378139,448.3472698125921 77.24540369112472,447.89948867254986 77.06209779401273,453.3987829798797 78.10231381543994,458.9178620714465 76.94412958199626,461.912250488558 75.25305242539228,463.75562743411797 73.45403084230358,464.33884611696726 72.4183175864786,466.79684732155386 69.72226453783942,464.7798539968554 67.43723122043625,462.2646172238859 66.46836848925533,458.03581957781455 63.88374969066626,458.07901185833646 60.72360614439038,460.9510466386829 59.11353657040372,460.81414314230585 57.58822744365834,457.2819810755451 53.09819011629487,453.7590011617791 49.964950827269,451.6981579061654 51.250385657537656,443.6781288324265 48.62932222643969,441.52819146438856 46.31819629357218,441.0028629985828 44.02883270544834,441.9324220760526 43.735944592353654,443.71207827041746 39.5445800019797,446.488330258769 35.31317443071503,445.6673170899944 33.34938854177517,443.05258297315584 31.812959922156786,443.7574261832257 31.507368556753377,446.1199171670048 33.90547824340712,447.99712531868965 31.52638524411986,448.4582172602344 29.780506153627925,449.8485139505623 26.987607381791005,450.19294048170286 27.971531735863653,452.370223109666 28.21304358893312,456.30506957039506 30.19980210892361,458.21061831537895 29.56081058602307,461.26599575611476 29.834572881581824,465.94672900855426 31.839073042908826,472.65003074041965 29.710271822484533,475.34351657135187 24.45639161146669,480.6583663516135 21.129657904024068,482.6413514935198 19.551786354571636,486.2465682952611 10.171274110389163,498.61579986789116 9.611288576903677,502.5638919858767 8.468573613605894,505.1871985437622 8.391783579649346,508.3459717610657 9.062574112897968,509.89483416440623 8.951245532729672,513.5159900103197 9.32838955408493,515.3140396220297 7.203894281861047,524.8995338175419 6.249001146810716,527.6324839692553 4.417243519468446,528.8119094764932 3.820145471812962,531.724199235958 2.6554167799351363,533.0241556436081 1.027140726291434,533.604141758972 0.0,535.2723379627953 2.208535179820761,537.3704033090517 4.456648101220991,538.7079647467822 13.894580253786101,545.4737418420236 23.60410627578905,552.8818828962492 23.63251029121349,557.2927966254159 25.025342084890152,559.4230557148984 25.380489517880093,561.3852448116485 27.47190190991546,563.8851852096179 48.900369129123284,581.2126120897233 59.28617255532545,586.9493975271942 60.11120544096982,588.3506397815726 64.36873778030278,592.1245894992869 65.17612238856539,593.8053557984246 64.76982628095882,595.6379180856175 62.88131138219302,595.6586528153348 56.81214930880274,598.6111827898017 57.68609047332482,601.7568529662351 57.012167198334694,604.0664117189468 54.193841331426384,606.9835491514741 53.38830789803121,608.8442109733767 53.93831872192594,611.020630342404 58.48864254586373,614.032633060598 61.72624720800157,616.9134070511243 68.76740482363772,615.072313515646 68.39239271613644,621.9091652166901 67.43948809594119,625.947153456766 65.97133722087301,629.3063664910142 69.62982572826746,630.6201007593932 71.5806858269697,632.0938471615167 74.59566769601409,628.3114217794355 76.12211845413819,629.9372155259205 78.93541367045772,629.243167490984 79.03974452532081,632.3694394401432 80.73698047934538,635.1522820621124 80.82046397793366,636.7323476694835 77.40081053761845,642.0010054030347 74.60793344895282,644.5204793828943 71.11047187503524,645.4299449996512 66.16392492370831,649.0619190020266 64.12466192030993,651.5257841766579 61.455236165610515,660.5783059329984 59.795335468027346,663.4681024113611 45.4564013914342,661.9826007355688 44.66377177250479,663.1368615449778 55.180883794724,664.1006221112541 55.314042398963785,675.2490733055996 46.24783413723772,684.2438809200603 46.29361467843832,687.0032568991865 70.28251228284358,681.7017041996776 71.40531011318788,685.3157724022653 84.76493847329648,694.1010783751356 88.88671019609917,697.5415238232879 91.33310873177949,700.7118971711548 94.08117290966773,701.2808272096465 96.43609020045145,700.1647661187066 101.74892191503992,694.5044944077156 101.94768994428209,698.6656013874972 100.61395298045502,722.8233629259141 100.63146672492395,723.8702179783544 115.97265380349354,725.5732934952393 122.11752622728308,726.721397371502 127.25317461446546,727.9481151191587 124.9472092520607,733.1689290392826 124.864677475694,734.464491392958 126.13308699782637,736.8033153221452 126.7451440788658,740.1278218590351 126.50230413371393,743.2626262868904 125.08764855324218,744.3415928497288 120.15202603591524,746.1696888445663 116.82265645875152,755.236404380054 115.43299925052844,755.885304905762 113.89390260013751,757.8416141309203 110.68778216888104,764.3500569082119 109.25421445319056,766.0870871404034 109.38946752503814,768.8262036705389 107.24629926594261,773.2735193896721 106.89377928173424,776.8424034514104 103.17312570743425,776.9556497138229 100.81736815797808,775.5263438595896 94.77813152714289,775.9870252464226 90.2357287797918,775.5177945035488 86.60127223591384,779.4582094989349 84.48607446140441,783.2202165132832 82.38900859491827,787.9243285722231 80.60264884814177,792.7977701650489 79.39828823091113,797.1298837406201 71.40388046471281,819.0835623740124 63.48914091066315,826.2979240537495 53.10217719193247,832.1246500816912 52.29502253815512,832.1272808169582 48.76845033092668,841.4460270030472 46.34855316748416,846.2061866475317" /><circle cx="135.74611625674024" cy="830.9743523070067" fill="rgb(100%,100%,100%)" r="16" stroke="grey" stroke-width="8" /></svg>