<?xml version="1.0" encoding="utf-8" ?>
<svg baseProfile="full" height="1024" version="1.1" width="1024" xmlns="http://www.w3.org/2000/svg" xmlns:ev="http://www.w3.org/2001/xml-events" xmlns:xlink="http://www.w3.org/1999/xlink"><defs /><polygon fill="black" points="201.0736903092402,71.37532187143233 201.81509231887986,73.72236646217755 201.82046002164452,76.74891174091852 200.6815911713101,80.69041094896943 201.39423547766438,82.96590317667892 202.8155199319134,84.99373676368884 206.37981955326177,92.57109449309087 209.68660909858264,102.92147150095536 208.577617693379,105.68825757244406 208.47426335597248,107.25240731374186 211.7881016837339,109.68998919864157 215.67827638834393,111.60279601831587 215.8077479847946,118.48359604474263 217.90312178153565,122.2773401695598 221.36225415485748,125.41868577984633 225.5101129821618,128.21919899533486 229.1395448687439,131.67825946529126 232.18986313471137,133.67580932342094 233.53030154321706,136.1140678292295 233.95237266154948,138.01411135172543 231.12844208791446,140.02285941181765 230.20053058176612,141.43882665710908 229.4320533466715,144.70588431764577 227.2832989036157,146.91692166077326 225.84896924884538,149.94184066163223 223.0084213294214,159.53058858829377 222.22249292106525,166.87986116119293 220.94117816271566,167.0299131599014 216.51598654663474,165.15968146891237 211.9885633411032,163.5979580545187 211.80437303443378,164.12061339359263 213.58307946981438,168.05943744098943 216.01346653721896,174.75751915956153 216.01433834353267,178.53306692700187 214.72929939440093,179.91107712710675 213.0849020836044,185.80174097542272 210.12730853627306,194.90256762966976 208.68574759934654,198.41086212229425 206.51556574633332,202.52386513492138 206.69319332624204,204.10945338149725 205.05031816896144,208.73383487788226 202.3864420359458,207.54977355273502 201.04080724161386,208.04773643581575 201.10683680853373,210.10373508016357 199.11402067848368,212.15022063638787 196.21559345228903,210.85431177904707 193.5201571559021,210.78685328316556 191.63295237363113,211.68553950010653 190.24020805365794,210.1791517330995 189.12170163490381,207.2878018205788 186.85684104964574,207.15553168325096 185.68145273562592,209.82169821574644 183.64639012283052,209.09483713448776 181.07882284533315,210.36583444903238 179.90043854341224,208.61268861731526 178.01225329099364,207.27025958055947 176.35384951713,208.90592496093768 172.3631622575597,204.09393160317552 171.28028195595527,200.7842733819407 169.40275566142813,199.55454457044584 166.18357486329847,199.6628711471301 164.0062598313131,200.4709693606403 161.58206251215498,202.48835214428607 158.68936412933064,206.25757584847997 158.00752956691247,208.43911384575017 156.8501125998467,209.2529979979987 154.50438774472326,207.96419722196788 153.29008843666008,204.51160037828163 152.1397945375949,204.7213247667362 150.93086182050635,206.446089078731 149.14045839605893,205.83040542133722 146.47345931115143,205.72057753892364 144.9249226311691,206.83207089350958 143.90605508527946,211.4527404537099 143.03553400698175,211.40482803335988 141.8125421478526,207.88046355073664 140.0859066374708,204.93040717471274 138.5229037874358,204.76354978977406 137.5086243871233,206.04644349363525 134.97377964492307,204.48200698491496 130.649480837861,204.4204151826583 129.26077635410388,205.59201474780173 128.925203887553,208.09066923687624 122.69287133553956,219.02810049404218 122.47629228303077,220.74823085703736 118.80318537753836,222.2377965788396 116.64508637412095,225.36820465859148 114.04246281816985,227.3655471695356 113.19914523239963,229.35377579525402 110.52560653670456,232.46644639132796 109.47394215057399,236.14573098154028 104.07770594505241,244.08106530144858 102.0150052534098,247.7035110893096 99.44756639681736,249.70037698779004 98.35910218399773,249.1206678297034 94.4223930958719,243.43640845832795 92.11249220169735,241.8182789414643 89.49730870068448,245.47176096444275 87.3296567214926,246.54536467114212 82.87114276030763,246.11342889344394 81.47979004240482,249.32398611028145 81.07816811485114,254.1566710457098 80.98554516862839,259.15285814643585 81.42118946094142,262.77555026786854 80.14349044530692,266.28156147437096 79.42107275255489,265.88479132066254 77.46659292738636,261.82883416590175 76.34564703848666,262.7348331608673 75.5752189073324,268.9510022064636 74.17484645249525,270.0014798391833 72.51513788282851,267.1722543637684 69.91071831087248,269.12743539168116 65.00526786116103,269.57676031787423 60.977663027599654,274.1381298269903 58.81199065211416,275.92815454595586 57.69584049141428,280.42787663261004 55.857168179355924,282.25625622171844 53.69872196597829,281.1081766128118 51.73347341868898,283.879688304052 47.21974574369542,288.89394021443104 45.84124805148168,290.9568843879515 44.5882155313044,294.1268070986563 43.303536715513594,296.1283545456365 44.041841676813185,300.7949528878114 46.0683871373582,301.7194591017636 47.23806483918067,303.7530683452983 50.12113646414516,310.70736896530957 43.844159338481255,310.63773548954214 41.1219598583953,308.91643213213445 37.45894435849502,311.4605442152613 35.80197298359731,311.68166841480104 33.19446371337056,313.5551939206176 30.07225833887003,312.55203760542395 27.792173459639724,314.1985065618327 26.668503335141267,314.23302281455096 25.247741217077234,312.59977155318813 22.959709551388883,312.0144840304347 21.970705122663393,318.2645747132003 20.291335164199495,320.2581024388495 20.515825639561896,325.61459050010126 18.942542654622148,328.5702636767802 20.00844630984525,330.4000854433757 18.342917359168073,331.0923508680735 16.83463616103022,336.383181119995 16.884160211421463,337.4385977065026 19.01602291455441,338.59810648120003 20.56996726062538,341.0409579558835 19.857640287431057,343.59395268884657 20.01250983538157,347.82491508672774 20.59713954792957,354.08317059848025 20.109429467870854,356.7375769591064 17.65969428379095,355.5074998472671 15.411651813443262,355.9546302465608 14.854020575056603,357.06401181687784 15.758830664650516,358.4947662372979 13.4724159594615,358.6155543846538 11.669494956045929,360.2097142060701 9.794139614590414,362.74679880528276 9.97753626472245,367.081392369064 11.858393325690274,379.8426338520653 12.881488333965816,393.99185701957776 10.745213293443486,405.21092491598233 11.012484672188318,414.82463421358284 10.202464829318258,419.1015848127877 8.345936161398315,435.4800458437294 8.268095872309383,437.7562068106382 6.262085692008849,440.55143893595846 4.249813095897893,441.8822748861435 3.4751265809789444,445.72888260922844 2.5261341561938715,447.91643564622734 0.7768943383046452,449.31649771262994 0.0,452.5483513330928 1.3293341980579678,457.25128869264813 3.268628176014304,459.5923783265854 5.817781416728889,461.7681616324269 11.202636133121803,467.48229148813334 12.700995633790177,469.5699977071881 14.27261331607854,473.8204422097233 14.875175764967292,485.2115269234321 15.587367471275183,490.5937014610846 16.919562169108644,495.8318605190552 19.04221559767148,502.10146687441625 17.227211616297005,503.6774011207218 12.640976920187093,501.251071281685 10.0142601505513,501.35310213974094 5.463650367499724,504.27134214754324 3.8201725144562846,506.3590251316423 2.768210043180922,509.07163968282396 3.7627099958518153,514.3812270791836 9.606257091669711,530.2331111084134 12.002787839474724,537.0388220505195 13.848654478073643,538.8583751248389 16.057324991323387,542.5543938362875 19.968237643649605,547.0056143592054 31.62731589216802,552.8340759529056 35.38146739703039,552.8205685211167 38.43798416554256,551.8027318559311 41.06012208425883,547.7813998192578 45.01645614369205,551.4613361312677 49.50207723192437,556.1855858921565 56.7911214261154,560.160794616516 61.43946055109433,560.4817278835113 67.5515336321253,558.5392435506154 76.67780498805938,563.8194862320961 82.0223871383868,567.1235892906257 84.14242764871669,569.1270850225642 88.28114224852725,575.6482154686231 90.5741833805871,581.047936613717 91.56493841568114,584.358569783559 91.22364683585779,588.3747752221237 90.36142556500675,593.171041300745 88.89082300961358,596.4931918713571 86.88606323916902,597.6514338841218 82.68712725751674,597.0413651885738 78.45984741922055,592.0900249657923 75.3786027587104,586.6931934363706 72.48361986890502,588.2024906560429 69.25860962211506,592.0437854383538 59.74514563064094,598.7020839271356 57.60324528577553,601.1126973077569 58.14300519785252,604.5808851483011 59.34527127603323,607.1938638494229 62.77440500715978,612.6736501895778 64.56041536465389,617.8103622037588 67.1451916582436,630.6257511300175 66.98875459541364,633.8616759191159 65.50360188450864,635.9617475377953 63.67961602300681,640.4259040441017 63.258655588871584,643.3943688615011 65.62275419346328,644.9579391989391 69.56392999538824,644.0594948193475 74.37077180814113,640.8877696225268 76.0681682327936,640.3365344445198 76.60023155086901,641.6798171854293 65.4230177343887,656.6461045464864 63.06338430125224,658.5756101576753 62.71982945024238,661.986126796256 64.31628052463329,666.7666119685521 65.6310216969515,669.0328283561747 67.93844490007544,675.403008259033 70.48975511806537,679.233983130252 73.91285451438543,680.0016045162125 78.2726192558927,675.0025865287964 82.00723475681137,666.9551575508023 85.46383539125029,657.2552135035792 87.19670784508341,653.7459838352136 92.15619187640138,646.5779841870487 97.9827888706464,640.4434568414566 104.40196754863409,634.4495529709827 110.31020633161425,632.3410786379393 112.9139170165019,632.8944472138206 114.06173986946703,635.5086502185202 114.864807645043,641.1735470721999 115.1563728589656,645.4540466321125 116.4192753041168,646.4660869064314 118.29785368543853,646.4687257411861 124.12556279844125,638.8853375841753 126.9950954338455,637.6708609150521 129.53868861627657,639.487154872074 130.95301967342837,642.7162889251565 131.8517048405778,648.4630304217416 131.6966342777356,653.8864429960042 131.98651590173188,659.904319409439 132.58484614764478,678.4014765544152 133.40293474866354,687.2221753986145 137.79989613127242,693.3164257497564 138.6777919228043,696.1985325985536 140.35293598018245,698.9047102376646 143.59097223939253,700.0296724414986 146.58521331970582,699.4518053577756 153.05239374938043,697.5309754139406 156.98497864567145,700.739125159752 163.90362399265535,707.170136175951 165.23999383060092,711.4486924845633 164.23794807853247,716.2323671408369 162.84677738489677,728.5287803914907 160.44198042557096,736.8028668953626 161.14208680590738,748.1056773307414 163.41130107363503,748.8776697656567 166.466152629711,748.7902199618605 170.5288790445584,743.0266231066814 173.74989219164326,740.2459230164757 178.02549821003475,739.8869825621175 180.64246827636433,740.5837781616898 184.49177082893644,743.3597718934302 185.20909142990826,745.9067389687309 189.66296092396092,770.678582306056 191.32634777989796,774.3618867024816 196.06166901515326,779.2427919785225 199.97822751015445,780.2104124817049 207.82433462321148,780.7266172790735 210.52925717594366,782.1316417423801 212.82141650258905,787.0134904345294 219.7681796518687,784.7481368024744 223.08940277387566,785.008758305451 227.47488977033672,790.948868383342 230.43986996476565,791.5604433918924 237.99973309982244,785.7230109128134 248.5046554170543,780.6595512266426 252.00708694362345,779.6950617587522 256.26478594108977,779.2511233358525 259.240419877346,781.6191805537412 263.4436271275171,786.6758188009899 265.8899595544945,786.8271748116485 268.55039907764984,784.9714244169875 276.81448929983344,777.7807541142743 283.0346404648131,778.6398122403289 290.4457733269993,780.4695656445965 294.89648249457406,782.4699058128808 298.4196923453741,786.9007905606255 300.51752138986484,790.2415206010721 301.8352170348565,793.5348599386923 303.1786047032728,798.2466479640412 303.1838221634484,800.8687604666396 301.90836864577017,806.2027855825676 294.5314732778732,818.9470327147138 293.68246564050634,821.9233250570828 295.98879845477734,833.7898231569374 297.4828799943888,836.7542333577269 299.05787445600544,838.8441174036176 301.49866159187184,838.0582249487549 302.80503457690185,834.563661528505 304.09259059217464,832.5610152262095 309.5765284116022,829.1443218892689 311.74120112049593,824.5967034565408 312.3411145543479,821.0131093128671 312.24803150894655,817.8667810854593 311.53184921361157,814.548679897836 308.89404090933573,808.9796428616585 305.86565030007716,797.8100651095376 305.9543737367988,795.0943564561788 308.83073359624547,794.9235503545472 314.4215428832745,795.610800197171 320.36693990479125,797.343638811924 326.03250060534697,794.893707107737 332.0707043409509,794.8681685199025 337.8334589672085,795.9850002000129 339.4856801930925,793.9690634897262 337.8935442527197,790.3086331651182 338.411114696514,787.2516433797944 340.40885419500034,784.8019022230294 345.2079160178981,782.1824405277607 349.1514736325409,779.6382311753528 353.33408004841016,779.3652594663296 359.4438440357286,777.3747140429042 364.1762356345298,776.3276018914946 366.98053611709406,775.0652034402626 370.1756177104276,774.6331357061024 371.44682367014974,773.4642370668977 374.5247420038272,772.4165329225134 376.2894198143372,770.4313927103494 380.59880028771704,768.069907431448 383.4624879666571,767.3924989898013 383.45149213389806,765.6871593523415 385.24726893563576,765.6648891292875 386.5401308579958,764.8038211082212 388.02724743575743,765.1328270532945 388.8492734161919,762.824118390281 393.10093098633473,758.7464623948526 396.3545051347088,758.7770433232006 399.9952786624646,757.5495701322538 401.78276035883914,757.7955823230388 402.1332613642263,755.3159897548704 403.1854667531599,753.8278562588723 405.88116053520383,753.3889878246406 408.694445087162,753.6174107389586 410.84357360825015,750.2929219906059 413.17356683362465,750.0409067330513 414.090633620205,750.6815432786839 415.7507338102504,750.1166784415263 420.3335516067392,746.4766647123259 424.51796731190535,745.3698581909915 427.12133083339893,745.1050400321799 426.61284341625867,743.6593465910463 428.5632415281316,742.8345308004608 431.1058693211057,743.5158055836141 432.79151450341726,745.2508750601573 434.5622806715962,749.9568697337393 435.29618946893953,756.8604838039333 437.0538693071056,759.4492402450335 439.95241996530245,761.1865312394373 442.1478151530032,761.7677793237378 444.2337851919517,760.2004208445028 444.83568177128893,756.2591072982543 444.2061807269364,750.8573620071838 445.25176978629145,748.4963539668922 447.4267606907536,747.6071304998804 450.9320976832427,748.6412786522516 454.00659818163746,748.7020796303752 454.99972033487256,749.5173029193886 454.67666951310065,751.6780623783357 455.1654114064174,753.0932752901595 454.456240490248,756.4084504838768 455.2897991736833,757.3376758276709 454.8585998649797,761.4532712152087 456.2643392665129,763.4477909976522 464.4998335190634,766.0208635374477 467.7563958596848,767.6527533516436 470.20467285866215,768.2530519529887 473.6078884917627,765.3501476237136 475.52361468576885,762.4670203786784 477.0737061994227,760.9761718857847 482.09817338392986,761.4843923434175 485.2550182908748,761.0190643810001 487.3522601081428,763.6260009788089 488.93356928212626,766.4212545682105 491.13453980206697,767.8848161438839 495.0839172149526,767.7734288185786 498.83756920294866,768.1057386147484 502.00281314278834,770.0974043708399 510.8792426582678,781.3210313319861 514.1331337231321,782.6222274191234 516.7418223943597,781.8215656184259 517.2688757828838,779.2990840540363 517.0899611241738,776.8520954198445 517.5956099106086,773.9697668334147 519.1600389187718,771.9535161632443 522.6422364028546,769.9227068293189 525.2672697653207,770.004964753764 527.4714257188349,772.9597453205697 529.4020258436376,774.6107948465831 532.6245360165824,772.9508424524631 535.8595516198385,771.7956305846519 539.8903194637974,776.0830957230662 540.7871163925689,780.2604733166249 540.4391465465744,783.8418701119122 538.9648814328317,786.5563549797117 537.9622641284157,792.0450248800391 536.3112305916715,794.9271080289653 533.7809625935519,796.2416568240018 531.6051443735872,799.4983805840017 530.1430771666123,803.8601312837476 526.6526408725766,807.5371428183571 523.0853452952886,812.0993866765671 520.1385641843531,818.1288773181158 518.1363315593206,820.7448661865114 514.564819578752,822.5214250875158 511.227171219728,821.4755974329355 509.38209896932085,820.009722353745 507.1938060862231,819.2328241139727 503.1667422306103,819.1605656468555 501.31237285214706,815.2447941448098 499.6577754396604,797.609282000125 496.56743460746804,789.159823528114 498.04971433947077,787.4007376394472 498.11233964213824,781.899546163376 496.9643067881803,779.2140948354527 493.5486033618001,779.0439850543924 487.97569503584594,785.9828269455309 485.71809976389574,791.1308486967524 484.415404268867,792.9815251981126 482.3529671600486,802.9499432780103 477.3012573527155,809.4253087494443 476.092176279454,812.7457229899892 473.02783668523625,814.3297816381679 469.6947037728227,813.8304262972565 467.58707334733776,812.4466556678394 462.9581142677866,815.0087227131104 458.0768724776395,819.2289965673939 456.5002254558735,821.1529804157229 458.28950391212476,828.0322261699904 458.29919829904736,832.054689668479 457.6155592858704,837.8194886743502 456.4118452734957,840.6057468516243 456.0644789969687,843.4164824465583 458.27767196735687,845.0666595306066 460.97383525415364,844.4313590062615 470.77971921538966,840.627408376696 473.1404006631153,840.4350812898537 475.69530670924416,842.5050387170729 477.3719073463706,845.3012738996388 480.25888702845026,847.8324743881549 484.6489405656134,848.4062613536291 490.5279231876106,850.7308809262679 492.6372185597373,852.216460898742 494.56877150300124,855.0838204620119 496.6033683191847,859.2561561357327 496.4342038504217,861.8094363262655 495.40227457329036,864.8510919772298 492.78009260808403,866.6199915035725 491.6509241819927,869.149781609645 493.2361335345423,872.2866443052399 493.59718654879777,875.3500951862744 493.00257709357027,877.6181778737325 490.12631362643873,880.7770043803719 488.2078353867008,883.6725142152172 486.0481595313109,890.737183938375 485.2009100664786,894.5934885218811 486.639872508916,899.6870756805562 488.7209431579421,901.1225986928744 491.6954180188542,900.9361427087314 493.70892785545396,902.1463146809408 496.1753300220584,904.6604100727708 497.77238800479637,908.1479730095202 501.203213399033,912.404522410701 504.02794993563475,912.476674239657 508.3090824593829,908.4620060686068 513.9239124438482,906.3302437110774 518.7312630466103,907.1178615135645 523.2723115184762,910.0581551489837 523.5466570347992,914.0587897068528 521.4001997847179,920.2102646940273 520.3343715920935,926.3428713127477 520.8680706292658,930.8891731930823 531.2842468422643,934.8876021859188 534.2267345583325,933.0224096187948 536.6261423565887,930.3482611615923 537.1731136603397,927.9445706238952 537.1192568267437,924.6607445429811 539.3627482996737,920.042813444874 541.9762736240364,918.3752073191179 545.3060890197739,920.2852283533965 548.0971195024619,924.4844390660744 547.2607406843503,928.4021293474144 544.1467810067771,934.7888056573274 544.0663410090516,937.7548540476577 543.3043608803983,941.498033006158 540.8954584817321,944.2440753248468 538.7687983398657,944.5075615243264 535.0347021912935,943.7124839956329 530.4881203140496,945.3122955453224 529.1473212045732,948.5136818642115 531.1181103705045,952.627980546109 534.7828676323398,952.7952399889645 537.5831667625168,951.991234619431 539.5649465288892,953.603629298587 539.3069865697819,958.1254341183399 542.2310385747089,961.0790100163181 543.5717080394467,964.0142491926086 546.2376427977733,966.4236256963172 550.658481835565,968.1191365334677 553.8998649689039,966.9711635454822 557.7337996757269,967.0449008624757 566.485314067892,970.7849805306472 569.7324426049327,972.8811244128692 572.6225696093197,976.2873166703714 570.6530435944064,977.260941639245 573.5634663341963,980.8530539031284 574.8958417141594,981.3778593331468 575.8312906292506,982.9049741572194 575.9479346410823,985.6543863212844 575.0633718557808,986.9168700406857 573.1477720565155,987.7970493552098 567.3917621593018,987.7191728139348 565.3614011386916,989.5382716364525 565.6635347313338,990.8752062244628 569.2007173646394,994.915519613798 570.0042698279283,996.4635531910313 569.6964611499748,998.0326031093002 571.9334918028813,999.785858837172 573.862335531424,1000.5439030189625 578.3114778958889,1003.2373755194475 580.6013230274398,1006.7320889899444 581.3302792544682,1009.5177681234509 583.5854472800295,1012.3949099123213 585.3629050603139,1015.3673858050861 587.9959629537971,1018.2505580795868 591.5846259746353,1022.7657668834821 594.3840723784193,1024.0 598.3743990703307,1019.7954683556608 604.0510321266313,1018.0588445559043 606.2262099057224,1016.7321573653118 614.2041497271524,1008.3328487828793 624.3527281032024,998.2566760600549 627.4774707247093,996.8499429278488 637.2458016066305,993.306259853971 649.0568303891929,985.2228502725717 653.9276197159429,982.0507419598097 655.6501050909203,977.4930888666034 656.6636862113403,970.5023366394736 657.6665840010423,965.6030581227992 657.9977895744274,961.4082420582998 659.0126825987825,957.9092091583838 661.7867020400892,953.0036742764504 663.1435719784033,947.7412474080794 664.1538040465919,941.4506085026637 666.5684714430375,936.540444718069 670.9663830917772,930.1392515378265 670.5569826553285,928.4755084599506 668.1071098824546,926.1904594594714 659.6772112075603,913.9000324465699 657.6473218622901,909.0086956518131 654.8108237359701,898.8019565090548 654.7048054628534,894.171561245214 655.212374616303,889.802814645107 656.6824376842244,886.7437330327004 658.6017793822775,884.3916008979373 665.3767870830826,878.7966842000951 669.1159085004095,876.8693294550342 671.9037934188192,874.9410682458846 673.0244278917953,872.842839100009 673.7015390344716,866.4680190435593 674.5535269398111,862.7139431117703 675.6802686629229,861.3265014986273 676.3629768232528,856.5975955635886 678.3544853731456,854.0583780402035 681.8365746330791,853.0100295851546 685.4287857769006,854.8300316943825 690.2455944426156,858.8402574206345 694.0959885893232,861.1000929043547 696.4658265859384,863.0131186117658 698.2233334012988,865.8987733651247 699.5245021211322,865.1059998552046 701.514649337125,860.384965894411 701.7650396098745,858.8907778192873 703.1664350393113,857.7675513714275 710.686081018258,859.8288638710101 716.2826815106631,860.5191434215174 720.3997869020593,862.0755219398616 723.1766883647466,861.1026442838221 725.4625134595367,861.0098696193959 728.3418039479006,861.9611025915234 735.537312449194,866.5653813241992 739.3961296786939,869.6063198564646 741.2335639261844,868.806560472154 742.526049185796,866.1812802442761 744.0186499498686,865.653194751307 748.0425575898244,866.24236304116 749.5379954469513,867.2061232837509 752.6889576761496,867.8872679847303 754.6077072362062,866.7463487427005 756.1657557603244,863.4090413297745 763.1392086811276,855.4406034445971 768.7478273087681,855.4174831725679 770.320125749192,854.5282848530969 771.4380905157932,852.3452212751854 771.8457404769597,843.864031928625 775.059572623755,837.557127205007 777.2840310709728,825.2323659174997 777.7935883107295,823.4898760171423 787.0758065550791,821.0642224176088 789.8741536812905,818.6098180223586 788.7963683898757,814.2588671438161 789.576024469322,812.1643386217664 792.2014706215359,809.3606886753444 792.0091750014781,806.1131995310014 792.9655837098184,802.894126142249 796.1866139035078,800.3332050429201 802.7615283062953,797.4919780795838 808.179613188777,794.5779666851973 811.512202781014,794.9048813328363 822.2333990760986,798.4086933534493 827.6741047303956,801.6033693308095 831.1138705517769,803.1521599814603 834.4371365570115,803.3870192454624 838.9851106552687,801.0876117453455 843.0298796507176,801.9205360888513 848.6630135970904,804.5158438708257 850.3275698138209,804.4896155638894 852.0742929566798,803.2573362118702 854.3465889551916,802.8022264992494 856.291975710684,804.5518159356354 857.0957040453968,807.6800559260796 858.1498314910068,808.5433138888056 859.2881315357587,807.6772437848604 864.3622750705347,806.227278227645 873.1558719500327,809.5803965733453 877.6283970102887,809.9759865442701 880.2465148385437,809.2696287089617 882.6100731916347,807.6703903745504 884.6264324890955,807.1350308187143 887.6961426705224,807.371121153452 889.7186732563629,808.2437059553158 893.1438462405009,811.0159606892342 900.0880906199255,813.7704584692854 902.1920968229076,813.3986361520724 906.5561521556613,809.803445985348 908.2121718009209,808.046526320026 908.5541133039425,804.8956024824689 910.7412259463263,805.3251848590309 914.3504660246736,809.318386939537 918.3039274080165,811.2909566344556 921.0310503541891,814.6863338146718 924.449760513534,814.1457837364462 928.4875069384377,815.9432012344784 929.4569678907604,817.7739998489714 932.0926967494958,819.5972689353296 935.5842417485293,818.8801728039779 936.8123128390016,820.1100553084486 941.1117743451623,822.6974977591208 941.9783760299978,821.0418572811282 941.62167967401,818.5972263866249 936.7482846043175,803.9518077611694 935.934332156647,798.3755799482625 935.9167138821902,794.2734805870641 935.2040339491202,792.7068935611906 931.9533542817226,789.6684387957083 930.449841661714,784.6046843182849 930.6036881492381,780.5815660224977 927.1973848262484,782.1717863538265 923.6914175310701,781.582937628099 920.1850678104503,780.0374551538018 912.7246549471498,777.2790233011601 908.9487487356428,776.7857281634434 906.1547050343331,777.5968317209073 901.0708142476351,777.1676637167673 896.3275311791091,775.192306561385 894.7524406994916,775.6408058605284 890.0127268485046,774.8078210039993 881.5779450802168,770.4956587433269 877.0046071596411,767.4697146572687 874.0034353176862,763.8199821129567 869.9841133006541,746.383605169239 868.5643695381008,742.7385880898305 869.343060146157,741.6824002061713 872.8507459166284,740.7929501889143 875.5764729035585,740.7643942131579 876.2549183770441,737.2728767069159 873.0048088280403,734.8385703593112 871.6725457725204,733.372707924516 869.6469264349721,728.5013768834527 869.6275389854209,724.7395264307804 871.8156879214171,722.8051167005362 872.6785318130843,719.8258004771593 870.2995728594003,718.0108449705828 867.655813495266,716.9079966798624 861.0683114534294,713.543990523822 859.4791101068649,710.7641036482287 860.2558588143158,709.5340715472317 863.6397057442516,699.5705226666611 865.4527562964932,692.2151749356589 868.647807193272,683.1901107922025 867.5891411606866,679.8937159252628 864.4253499791986,678.4270564526744 861.6224193786671,678.1877067603301 854.6073888781808,679.5449138785333 849.2484712989066,677.4536823334474 846.4213967014545,676.7931758337879 842.5448609422839,674.3889453949703 836.9204989738312,673.0382732126552 831.2787724080991,669.9621080350415 823.5351581619929,667.9442734800473 820.0182810869296,665.8835475962373 818.9375489729465,663.0904241336262 818.2043228462518,659.254897310442 818.173890337814,654.3657780601837 819.5507153369049,650.150550008264 822.3353108432021,645.931806770278 826.8547205123883,638.5527925360132 829.9948745085451,635.0182885732204 834.5389968053277,631.1307384965169 840.4534847328724,623.3784489454433 844.2879883324159,618.0911810968119 850.2090427325666,609.2917521146942 852.2900691705464,604.382307160037 852.250293624797,600.532145352672 854.6530896521011,590.3728327986489 854.9770001933459,587.2282954530974 857.0951492889797,583.2016702577724 853.561028414163,581.1024642748351 850.2920659480806,576.4038734178382 848.787561775644,572.4986337224984 848.8851371350144,569.3152519901673 850.2702556382944,567.9142018347738 852.1183356359132,568.6548534930336 852.0612941455859,567.7019498892214 853.8701095978629,568.247705533071 854.8921975336876,567.2927795465228 856.9159728369636,566.8919216801203 856.8479540908965,565.7224989615688 859.0138231623406,564.5390270502163 860.3566960450287,565.419056797289 860.4426915319235,561.9886283251074 862.3454272914606,561.6606392292467 861.8794143526304,560.1978744138107 863.9313042012861,558.9346407699395 866.0792725982521,558.7886285261768 867.8590529824592,554.7881983091825 868.9376943367464,555.5778378080095 873.4471224899629,554.9355121627004 876.3352211261189,555.5092411768094 877.7466681995431,554.0587643524055 878.9607878654842,554.3846295800929 881.4255130035212,553.0846919676427 883.0788064476651,553.1388867461653 885.6598478267749,552.1580052121888 886.8405141607951,551.088218089888 890.0445230121225,551.3622947502554 893.8253826187743,550.305896600094 900.8491890969743,546.9139565187936 906.7116069350067,544.779039677733 908.5455534882171,543.2900631854142 909.500596854042,541.3605113407549 910.3453533337324,536.1276581334525 909.8028750246373,530.2843120621949 906.9739452941053,522.9675224225608 906.6079528295966,520.3443605114614 908.3211879205386,513.0089741834497 908.4957955380478,510.9047803357323 906.0181873748917,506.6521912194105 906.0158281393791,505.51410365116556 908.2798391377258,504.021987012557 911.337791106337,502.9529715143267 911.8648143467109,500.5047323321912 911.2314295882969,498.4092917596661 906.9978553228372,491.29384845205357 906.9746430913654,485.70268708772676 905.46166915456,481.09181613521196 904.4947504597603,479.3493124147351 903.0015738723773,478.40122380341404 900.2650039602006,474.2245501279972 895.2332855719837,459.0772716932687 889.3186019487166,456.05420594231384 881.956409315183,454.44064781568636 878.6949566160272,452.01286798128933 876.7617781573987,450.1156154938203 876.1365614533489,447.77429570953495 876.5490943139564,442.43636973030004 876.1830944722246,439.7337880442583 873.3603416486211,433.5695719420456 867.6020062163157,421.99274608388794 865.5805856874983,420.608863628568 861.4615288229794,420.3850034036352 858.5481624258299,417.07431755524226 852.2263426667525,416.00197319306665 851.6185037500954,414.43842111840627 850.8745050876082,405.0040991575721 851.2022685594377,401.33159111535065 851.9676337376426,397.4073886555851 854.2885704883441,383.5245400410698 854.8740009951118,377.5837778552883 854.4216730190564,375.58076531604684 852.922821308869,372.9722807986067 852.0335783880336,370.43983221554925 853.1275622169235,368.33683436721435 857.9571785548491,365.7768731711067 871.1989407957644,357.5109036122493 872.0532850045477,355.0624011594997 873.945048057198,354.0080364728849 874.6104062138977,352.2175334726378 875.386740604209,347.67970708977623 872.6037324430631,343.2115627038412 873.7706208523336,340.20745756887516 872.739254757883,333.86560803339876 872.3057191313708,332.8358065917207 869.0217835631905,328.89464521187926 868.5126210843027,325.8578900321438 869.4696982682892,324.23825655149767 869.8368787312787,319.9214060156164 875.9028027992248,315.89366169490904 878.8984776523869,315.5750552795648 880.3956811957293,313.7253177975855 881.563129784162,308.9589871594377 884.432614530317,306.4705863141022 884.9943290206863,304.7634946945369 883.6333407929386,299.2673807704547 882.6923951784099,297.9455236760683 880.7909125647701,293.57191354801694 875.4255339905062,289.3372640209194 874.1672361517145,287.2818211608941 870.3640458256042,286.389872000604 869.7161838076222,284.5232202425872 869.7856796659802,280.4261302553613 868.231249299228,276.93964869286515 870.2349707539594,275.10603641452906 873.9441369467454,270.66378467473976 873.2528440040425,262.93911727211275 872.1343111004468,260.7189319523177 872.6321583090375,257.31451512054934 874.1114439802217,253.83714409129823 877.289123826589,252.25793560317936 877.064974149717,248.8809954654812 878.3790746503099,247.36273134716407 880.4490957513343,246.58244608030896 881.0531051977453,245.26547171933453 878.8362126301012,242.8327763030003 878.0557333828996,238.9704916987322 877.7935671003333,233.65026639399343 878.0716689245688,231.61971091658904 876.7996519957389,228.22491856572185 880.3046919520742,219.78276134821942 880.0118328674471,217.74912687348012 883.7952269780355,214.43315143613154 882.7643016073298,209.9617723370468 883.0625244993379,207.16357233430165 885.3914345977854,206.11494433721725 886.5911260478158,202.75631303335763 886.7546118046147,199.64220371370573 886.2825812769032,196.60813585079325 885.3330368713167,194.53119541616582 884.4620454893059,190.9994476854065 882.2118497406514,188.8433300038604 881.0046750965433,186.2778454173947 881.7636874179644,183.74171281456393 880.9249763497987,183.21821023270877 880.5066298085017,179.048451589695 880.9525414827674,176.9870931207746 882.5171704722877,175.36385141474443 881.5669643383758,173.204504458423 880.7618857487212,167.01278501915442 879.1133058227358,164.23687565044713 876.9061438495522,159.0929527343569 875.0148436991187,156.40196089251856 870.0670176400201,148.59727486597876 865.8211966799313,140.7666796422668 864.086275072497,134.19715359719862 860.6029917781071,127.72839276393256 857.2137835382501,122.99781155020798 854.0995495918514,116.85302037633926 853.1024773896978,110.95149195356089 851.7727829598848,105.41196300953527 848.6506082510696,99.2686491539788 848.2488378052684,91.22493510257198 846.8703587501784,84.6438289412481 843.8289369451448,79.89096864991916 838.2128106927241,65.8199764634494 837.6622508235478,62.330362195562884 826.6773641061931,62.361101055790414 810.816890753142,59.262324439683994 803.0469159695704,54.55624792755725 792.8459091613605,48.79073797545607 784.6306058688623,42.42345556849364 774.8026330678005,35.41698340331993 768.5631670473507,33.05540061623719 761.078671709968,33.332764043209295 753.7855887106123,33.07688772808012 741.8860652963768,32.04691658647016 732.7064636337442,30.999179974658432 722.0814383992534,29.25032617040688 712.6751082486702,28.898882482139584 703.2450403974902,29.047327506750207 695.4461543641679,29.66066215473984 692.4745217453803,29.698542033974036 689.9663226081967,32.42942467846149 688.2359407797668,40.48827085323239 687.9758510709129,47.911256187224694 688.4363203441419,56.389508376122194 690.3363736141438,63.79433423487524 691.1760220782908,68.67323103741978 683.9165587757924,74.51520583834599 681.165653889978,77.34112223424358 669.5667857066534,93.5985037125248 662.7429848192284,106.584194485279 661.7589176448837,111.67622758313155 659.0970320677561,123.74592769659148 657.084291842295,129.79896772416464 646.903149524483,139.05261010525658 635.9856900831609,144.47638531728444 627.4859524961394,155.8938077612022 623.6387939544004,162.31128072788147 616.6563346362634,168.74456576727266 612.8816374654056,173.74836511583737 609.832783231293,175.17608448252668 603.9388214143985,169.72131649590824 602.330921462178,166.59361765928645 601.8738870577672,156.63239466257255 598.0277485697374,148.62471352805983 592.0603706306288,145.4415812352339 586.6473950110835,144.77994097067483 577.2948029909196,149.75672447390662 567.7674340129922,151.72728402310383 561.2321160801636,148.77148207133712 555.2321814967715,148.36027706969412 550.6567843333315,150.62551449635873 543.8616207409708,157.50305884405282 536.6156183164297,158.10148957936474 533.6813949754265,152.53933602802852 538.5789523697744,146.01592708235694 546.2917324590007,140.53340826129863 553.6240245221652,133.1937437090852 561.4662291524559,124.29343348686223 559.1240603557623,117.94144912938657 554.1979616787473,106.63059321061985 547.4963680173922,94.19859282813559 535.8111485261526,87.50179574841104 530.035762874154,86.77032657883376 524.748344931207,89.79532231123915 521.0577878104124,96.3989643814391 518.5468595525368,98.1665603901805 509.4309613336219,95.90514969284902 494.1876766469325,94.58909132440874 480.886361613015,97.93873057693361 471.1980033261583,105.61605557341534 467.5535807419601,110.01017083784359 465.31242924824215,114.33148138898673 460.7304361582823,120.87858600713685 458.8102910852287,124.48197418210918 451.6029374279557,127.66234950061005 446.7573985369949,128.9644468134502 439.31848380363533,127.25790177834551 433.9438606969006,125.08650136915298 430.02610767700077,123.88721024292977 426.1456659915118,124.13831493372129 425.0122752027082,122.50008662768892 426.38815607120915,121.27321908227839 420.88225680240026,116.30127570842205 418.23559516998364,112.23861179550761 414.46898938889893,107.17209542125136 404.91846528441954,98.55496117298833 399.13458744108345,95.00570993058568 395.5938417067736,91.33906890888238 395.2291854595465,88.58028786751322 394.413769808458,86.84813166837 392.9142535773873,86.20363529268388 389.3032263958999,80.44120337317145 387.15183658231564,78.82002482686255 386.4429383226274,76.14586311628182 382.5809184880846,71.80667872499225 379.5509285936327,70.24146051638081 374.9487254673663,68.39042238683055 373.66139932489233,66.089116596508 369.96439376372524,64.01692629662261 369.5240886180931,62.273034722408624 369.8755288408821,60.205205942801854 369.2954638552382,55.95729659770143 367.4668885074611,52.12625465333451 364.56926666510634,47.76047220333737 360.9204011771137,42.84717016713205 358.4317374294697,40.901175468723636 355.0784810592678,39.848458968725026 353.08064028909376,38.666590281920435 350.1387513400744,36.171043948637816 348.1419774402685,33.76103845303089 347.11971880919583,31.60119289989143 346.70205758993376,29.059226790740468 346.9210653191941,19.218197219601734 346.312704726837,16.21823634229338 344.16649562591044,13.56501658440152 342.78063441651886,10.139685841543951 340.32647077497415,9.215215744075408 336.1871972506663,9.199644531619697 332.90536561857755,7.524992569308779 329.4828714037156,7.085264264346279 328.1011914420853,4.263853404860697 326.0533147075208,3.8568181569041826 323.59027401614384,0.0 321.23669304765247,0.11646857824962353 314.99183861829835,1.1258360817621451 307.82739076810816,4.631518086182382 300.117996881338,10.96065145453133 288.5373505695412,16.779276206237 278.96227377749767,20.737962397268006 269.11518544323076,26.116123562593202 260.58544041117705,30.017105440642126 253.90690076621647,35.939311541248344 247.1558871993808,40.473315481276245 240.20421957665152,47.79662405998681 235.55329638952165,52.22713504519788 228.83088816811875,57.09705721191676 213.9819037992323,67.25180333827575 211.27023055633217,68.94223991153024 209.7390992592886,72.99720321541395 208.08637993675035,73.3534468194058 205.87985693722825,71.55543535446213 203.2917141893772,71.79431881702453 201.0736903092402,71.37532187143233" /><circle cx="504.27930895286573" cy="413.82479428862246" fill="rgb(100%,100%,100%)" r="16" stroke="grey" stroke-width="8" /></svg>