<?xml version="1.0" encoding="utf-8" ?>
<svg baseProfile="full" height="1024" version="1.1" width="1024" xmlns="http://www.w3.org/2000/svg" xmlns:ev="http://www.w3.org/2001/xml-events" xmlns:xlink="http://www.w3.org/1999/xlink"><defs /><polygon fill="black" points="25.159265887654655,209.92790094105953 27.081542392387234,217.1923288605044 26.607066271813753,222.07637298141196 23.833167776989473,243.30768415789657 23.88447976334477,250.37760594592544 25.688405141454943,255.79239936409124 35.17247886789638,265.6298964866386 37.763993445810456,274.6147450273123 38.20316879003055,279.6784577175723 36.95171076273609,284.37995678877746 37.499370780070926,286.2667512666253 38.70650625903254,287.06132383238673 41.489700495480236,286.38994855855765 48.23972993209392,282.92969230289145 52.26225224487234,282.2913426300447 57.629188674660256,282.7733973013086 61.256250522110506,284.59546007725066 62.245522843708855,287.9953799502458 60.78391755005687,291.44194328190065 56.79237162347653,299.68728260813566 52.48139216211032,310.3864757629684 52.11469494561092,315.72162472073126 50.53092631249423,318.374559789424 49.36747365108122,328.68416118691516 49.28294351952071,332.8453699943376 47.87984224732116,346.94975956121766 47.59131518768348,352.93866333299457 49.06128426933835,353.5240315099054 56.744085532158216,353.62278563468647 61.62394141181489,354.6840371945335 69.83453424953483,357.4119950917542 67.13231376229199,363.9375699861615 65.53991347429107,370.0125813657852 65.63383670476304,388.2612097675668 64.00842366928663,395.26333974265754 62.57466991144858,404.57351003369934 57.819771523257515,405.8806866820278 56.79590732878439,406.9289579701225 28.39724549018498,413.35286299622624 19.720771731572654,412.1498532316033 6.278314661606002,409.29294943561797 2.6036395062024336,408.35163988839645 1.3390613315895827,408.77771647914403 0.5439599657103582,410.0625608129146 0.5249537810177195,417.93592037890835 1.1197144474473093,427.7534804880062 1.0508879666004751,433.4228903793594 3.3671993344413385,446.78492467845047 3.874417065295115,450.90078901662685 5.337434199059729,459.37328659143486 4.866574074793065,474.80993175440256 3.8873098031463185,478.3292167582832 2.525664400582302,485.58185378377743 2.647885391619836,490.66653999347875 3.3545279934159895,496.6548488542828 4.04209354295198,498.87307340016037 5.492030575044599,500.22023365866244 5.8480315536410235,505.29045257940084 5.069925875743404,507.53276826259514 5.321980121477182,510.4435251904363 5.195176178782936,514.9942961366413 7.198858241702207,525.7945446301746 7.285095405574805,528.9295276650405 8.10939934762924,532.0244714463631 9.580089482720883,539.1040768980142 9.37440306422713,544.9474039441259 8.048781690734561,546.6610995122353 7.660129326938627,549.3462997395449 7.7000108341731766,554.5230305165445 7.210560052978083,558.6821987121674 6.206072148797077,560.1477440828512 2.110643593764403,567.4655714042599 1.2100604352447528,571.4728734068367 0.0,575.3355103709828 0.00015336361287867755,580.2762475916966 0.7988438166720194,584.277068196872 1.0878553089725813,587.576151960049 2.395853733939809,593.7010174961465 2.9963716326098866,594.241311928909 5.82182771148199,594.6082025210201 12.85622953924537,594.1452117755325 17.117957499663174,592.9526514889725 25.56605198684549,591.2744515575946 25.22414630597827,589.8566299196293 31.247909753220693,588.1236278938577 31.465132308585538,589.0231918934812 33.632281045367954,588.4608488267426 34.87163588401026,587.4272148965011 33.65128018634108,583.9589645392581 31.560398092407084,583.7580546073171 30.79384549787373,581.4048404833968 30.755675296665725,579.554063443308 33.04896597382286,578.020846983203 36.921693814834065,577.4813107815173 37.857291100393795,578.7975560137822 40.68008905249594,578.2790908270931 41.286788238615394,581.4234218062461 41.51828477553459,580.1255941487495 45.37902451910121,579.7381055975413 45.12545353984089,580.8510638735695 50.19612046128903,580.1591616473944 54.221360643025875,580.6487480504645 54.177319773146806,582.5809085493597 59.63331714803433,582.4438307943572 60.51582692636517,587.747911293302 61.31820427890539,587.6099479914697 61.65143058423696,590.03546671145 61.16891123373011,591.9276588550096 58.938129840104914,591.5319668577217 58.93378476268095,592.8018073535 55.52938721982893,593.2592139465551 56.58230198543833,597.7001559459709 56.72891151247405,599.5742534314365 53.812767782087235,600.7729716591043 54.28331817152969,602.6315151848885 53.05994262061039,601.2379759889113 51.84949455423275,602.0797226784208 52.36568449458854,604.3561607653205 54.0576514184042,603.7369612510979 55.477865918700246,604.0860196031053 56.52737831683663,606.791785282042 57.86990586559904,607.4762937912262 55.32361423343432,607.7753652949348 55.39480120721529,608.7016818148688 58.05965383663208,608.4956408006384 58.29568572619511,609.7698033945129 53.96289191842433,610.4136933281372 54.48141269596273,614.1044537155087 55.211117239536605,614.0266864192614 55.81379311127065,615.8688862184099 59.62943347350909,614.544612279652 62.14808994958179,620.9341110357277 61.458403888367044,622.3868002479954 59.84434012746228,621.6252513908222 59.99717284711791,623.6705579813739 61.52570861405187,624.0455833002217 62.8240106708342,623.3363677600257 63.903071834123395,625.3074069953475 66.13269093116546,626.1708770441544 67.5583092202681,625.4532294144037 67.91457735559841,623.1229821891104 70.3159893626407,621.4977976482237 69.25657947371458,619.3319737558924 73.04268904570512,618.7502075086377 73.22949233016291,616.8420045014701 75.4572917295841,616.3846578515825 75.38774028283466,615.2338078754843 77.82942151395767,614.8390910858654 76.73279329075046,614.3622825833734 77.08774554340583,609.5189172252701 76.2218164642098,609.3296277819807 76.23195624434919,607.2150725513432 78.4725500320899,606.5547493557178 78.37419635222152,604.9462164426202 82.71559504556484,606.3954300031969 85.72445891844272,612.4191506128207 89.01042106495224,611.6116665158914 91.15144939873767,610.4414925993885 93.55347882515031,609.8026376536845 94.86284890846926,611.9621189144776 96.70896853589159,613.7141022433174 98.4491664432711,612.3308621013693 97.16874033785861,610.1024067629196 100.62112337047891,607.9957633927825 104.96688982996207,606.610784955921 106.97056271766274,607.1758022724882 109.27290263343852,608.4973630123341 108.69336770484578,611.3129160554145 112.1365984441384,615.1784988603205 114.03409315470438,615.6078949949858 116.17813429682893,620.9020205485265 117.5864527935238,621.0179245673482 121.02436156939764,628.8480211283306 125.03348552988469,633.2928841594245 126.15217209500813,633.577378857899 129.24805388827284,630.7127956783577 133.9248328850699,625.3951830502624 135.0472627466362,624.4205108392889 135.78287667808553,625.0537604586182 136.8769945289933,629.2116084246005 137.46801158385372,629.2621568966579 141.57199253523495,627.4338389821096 139.20062917738085,624.7666228989827 141.98214488634056,622.5379764757329 143.11966176079918,623.7183380582574 143.97775057437482,622.3914148760043 141.56764245362524,619.5631271377558 141.47713565423717,618.5349237649773 144.05201280632753,616.2197334448765 144.81243308427716,617.4121465205076 146.17992933901428,616.8267326052644 147.21354941099256,620.8818719614121 148.06158249273935,621.1721942120143 153.7489568789685,619.6149010023397 154.2480161689556,618.3217253277778 155.46256895283156,617.7549574579258 154.25289010810604,613.4508002126008 155.4912500642505,613.1063485668536 156.9083005013279,617.3205789202243 159.79007181766988,616.3446906869028 160.03900894127747,617.5708308931369 161.9368367690061,616.9331759803767 161.29357167246712,613.6763116507839 157.458789869385,602.334940451831 161.18465664192308,598.4438164216818 164.12358768679692,595.7819603983032 169.3468448706484,604.81904709056 170.18940790770617,603.9703210770845 174.56777325511646,601.7506719532614 174.62723777710534,600.3374703898833 180.04501315575322,598.2963699095442 181.36892995371824,598.0762784391584 181.79560981698336,596.8138737223686 182.89678929995256,596.5069980675873 182.2358337959426,594.2497472860423 181.18769698812383,593.640563319422 178.92370517420008,594.6061068686561 177.9564620667992,592.415657062737 182.18652942719257,589.9366472257993 183.25651540662585,591.4097272299995 185.4618091841796,593.1352595986186 190.32973370415615,598.9949872851039 191.01456491235658,600.8168612941919 190.8311453239014,604.1687961200118 192.16868903207822,608.8599536099396 192.21746242031594,611.7587889782262 189.31316061654948,613.9029146811054 192.4173681855548,621.3598414544001 191.11218896243264,621.9572750699966 191.77893675966206,624.0247782415017 193.43281162147798,623.452143439857 196.31541432124834,627.5901057354229 196.49129774556496,628.9058191378555 198.0698238513424,629.0750467415285 199.5805210956251,631.0128780698479 201.04236284708688,633.7652363381497 198.74315867539337,635.8077380469504 202.01329831144997,640.4095282633881 202.83437792143988,642.7844486352103 203.03147718157524,646.4691581620045 204.33997452938974,648.7402772168687 208.1131705460612,646.7714935054554 209.5301827965925,648.9214949489958 208.82075767531504,649.427794664839 210.35558862320224,652.1171920478098 207.34855288519142,654.0378553977083 208.06671783222976,655.5554731835757 200.70078809905132,660.6644243240955 194.72775119771205,664.5169263713346 196.9575642326622,669.1219900136575 200.1522212533539,674.4977381549128 206.62216886083596,669.8704446428053 208.34784558521875,675.5546926445534 207.60297530054282,676.1004777622502 208.0044811014543,677.7462515207728 209.33113372229218,677.9217031230421 212.41768570531468,675.6976171176375 213.8486232609419,678.1231793885079 222.8035909819124,704.8947463289617 218.36746982892188,707.3094365463924 219.93709862568898,710.020728877565 221.46941082664407,713.953096664157 223.4798806442184,718.1904788256033 208.90215738838128,724.4258797674794 199.9912530779133,730.2218672625477 216.00771684624945,763.4923377721689 270.23181779441995,839.2319727601919 240.61435459867437,781.7196803548047 303.6040741461901,752.8487851160319 375.99311586603267,726.6766429989054 390.76079060910894,716.954730702398 408.2463730718651,712.2815474954914 439.4391313228081,694.512945915148 446.4958598901609,691.6272269476361 452.3263742770526,689.0499661828849 454.5580978468885,686.6460096396918 454.747388487674,683.8529256006484 453.6219760223875,681.840191663536 453.95790619068265,670.1316236889744 454.7280007225272,663.7980390029404 456.66153177167524,657.7188258208955 462.3502931626707,653.7249218089207 467.9342124232532,650.7557026494812 471.838503338708,648.2667698330146 507.62094706119706,621.0305530985659 545.4481129101852,602.275402181169 586.2156522937294,593.281617697817 619.9206711613817,585.1776840240143 644.8303193260914,574.3276331363945 663.1592576034022,561.319339026349 669.9051253700644,554.4026839257104 675.9321759986515,546.285109821482 704.6324864207821,496.26384115676365 709.0418903891442,492.63268647245764 741.7220246763043,487.0615085797215 745.4793618493077,486.8760300889121 741.91550440236,457.668606662347 740.9605740433557,444.36600082367625 739.234174448588,434.66818160906325 738.5452281676903,433.3557730484878 736.5554175666778,431.46730900382636 736.4556413360087,430.2976298118307 737.5518326318421,428.5663249207354 737.75515054333,426.9148148706505 736.7182954412436,424.9474754135649 738.0857785218603,423.59725741240857 737.2721651729415,422.13322794539783 732.6468661838207,420.54624280755365 732.1089296204013,418.28452009195394 732.2343063570978,415.3995110605075 730.7517307411626,413.73266674460467 731.3578253344442,409.93286083085604 730.1083859341596,408.8764033503469 728.2322187651315,409.3659994590163 728.0165795182496,406.5799694433716 726.4985861519557,400.78527791946954 729.1633183938067,396.1939799095776 730.1801309940665,394.9613515684275 732.5682387090038,393.7686072796131 729.500971965865,386.00131136812024 733.0802532327142,383.7924812064208 735.420297100663,381.66606259400317 737.1417152082352,381.16334698969774 736.520767861262,374.257169362333 736.7420528058335,371.5901555377503 738.5681551905719,368.9372035922188 739.738166747811,368.84297479468273 741.3079930948854,364.23469199968974 740.7282426504325,361.54463638528864 737.5117338866178,357.17797150984313 740.0927034289305,356.18328977917827 740.1213426744752,354.3259256048161 735.9493519679813,354.26958146153936 735.9715864822384,352.82912126749704 739.2836785022782,351.741483132844 737.7531081109252,346.7726293311506 736.3406302628086,345.8259359391308 736.3660006205162,344.1823674954202 740.3404214215701,340.1190880349817 740.3595038343036,338.8817350516073 737.6114589473517,339.04249597118337 732.8872523609778,332.8962412505897 730.5688707946647,333.79599543787856 729.7255223421092,336.6672422469669 727.2073776455329,334.65553291764013 722.3874590402035,328.89518648126216 717.2701913401883,323.85988446403246 713.7736857040251,319.143686142154 709.76270136275,312.77546090773785 706.0791847171811,308.3743333733257 701.3008949913658,305.19107726482923 688.2040162644308,298.1648265009002 679.4318657259164,293.95366365191853 675.6590431203426,290.29111526510246 673.13316026335,292.2109101327719 671.110714074545,290.73833425891485 672.3971141517244,288.79910658362996 667.7197479833947,286.1460499180421 666.1108629929016,287.44932108147975 664.7048340989213,286.7161527786333 664.7274879827254,285.2756760371101 662.3376686008512,284.4147471543465 660.1595002850131,286.53503080433165 658.2408942159325,285.36604916195154 660.5191129349095,281.29060114721267 650.9535302375893,275.7774459161992 650.2602339139263,274.21339120962546 648.1098357220125,262.15015976456266 647.5560474752126,254.53622897091816 645.3146324753146,247.66816262059035 644.1302787989188,243.1531473018092 642.494889310814,239.86599581808673 639.166839625708,235.4586974714656 641.2958727756552,232.34607079981993 640.3427037685276,230.87944181012153 637.614582030806,229.7001268599348 637.7043141572876,224.03706722053312 636.3511609479624,219.99514766127277 634.1453782051134,218.92564814278796 631.2599651347156,221.55840516967794 628.3661444142014,218.46769364512545 626.5139814224028,213.15870885112327 624.3105423538083,209.48011580884918 622.7785228249992,204.94873769843275 620.70714077834,200.95676773084995 619.1579152633385,197.36872554902163 616.7037992138042,195.5332419012982 609.3627102356788,194.63558993898437 599.8012563506403,194.6137775375505 590.4602310537249,194.37326884997356 586.0241667854784,196.97264659072368 580.0385630870409,199.3331914457001 577.7937534213827,201.14429775248243 577.9091340900316,205.16401465652677 575.5684488551979,207.90919319034322 575.581315024409,212.130427330173 577.57148210939,219.98964445462445 577.9156416808311,227.00971882800513 573.2105409815422,226.20424427426963 570.1203035104837,227.60605246612556 562.7235490889742,219.09018355925377 560.8989109547077,215.87423536051597 558.5469079893138,212.7299491138824 557.0607601580907,209.28418973771522 556.642906683647,206.7191452276437 554.6693317771857,209.01295809942496 553.2171208743512,212.32033068835972 552.1937601184819,212.37327966694556 549.2871513660982,210.70357671607076 547.6786941148395,210.82723088723003 545.9189029974325,212.02841466259326 545.4444279279425,213.10606418133455 545.3317988198875,216.21055151168298 544.4981635235424,218.37039065885745 542.3191795220018,220.50841550865607 539.0119458528676,222.614751015318 538.0145473345623,222.20292237103286 533.503922508896,224.21213090043864 530.9666895787724,224.24039589063761 528.1150064961106,226.2871749165139 518.6493754769581,230.35408287072391 518.226531816971,228.11501468196866 516.1634653324679,225.95879287723108 510.26183965452066,223.09293203198786 509.9283920818636,221.6038198044514 510.51795292806037,220.13246254285366 509.9102659749107,216.63926376944858 507.62638383696907,216.98688140792967 506.6518433350176,218.99193790781544 505.64712084389726,219.59570363206342 500.08794116831905,220.49916614419226 497.66000282842447,221.46453919862483 492.8560456185866,221.21200293731226 488.3674709640332,225.78983076750308 486.55826508172754,226.6021955830389 486.5629581265964,217.6066745705259 483.03361603275494,216.7680562340156 479.3285609616398,214.68608986146774 475.3729329929905,215.76778872411217 472.3236565717423,214.09484192437083 468.23067185624257,210.91025994035215 459.3430912943719,210.27687882093164 457.03580189302835,209.38592349236671 452.21627899946753,209.528007556259 448.4797749893832,209.22280648235687 447.5011300750943,210.3347142891654 446.80033722303364,212.64619781908016 442.3233674844238,213.70003678649482 440.2874351130112,215.9278477151463 435.8959172046344,214.05839071984212 435.93267163698744,211.84816808142625 433.08284429517704,212.2151257444283 429.6952825590942,214.65561562064124 427.55380248963786,215.0369831897102 419.9909560976518,214.5446208676508 413.35743180935924,211.6214726662131 410.14284826789697,210.74700082985237 400.6938759178601,209.8669483090639 399.24353657029025,209.2250851711309 398.2119321561579,206.0505621324669 393.80001210562034,198.96164250974164 391.7041277770799,196.6326981199503 388.6605545721092,194.66206789188107 386.7751627980447,192.17354298371401 386.6935143809297,190.57885033740774 388.6466729404906,186.97861879248694 390.60266904169043,185.26580973687214 393.31388238875417,184.07094053909623 395.89707694113565,184.17581582304547 400.3256226028725,185.3061106588849 405.32305689616055,185.26958833960032 407.7338155058745,184.23261184742603 408.4078047022002,183.12644079779 408.58033864258863,179.8518133941401 407.5245034056582,174.81894268466021 407.37033132277315,172.3114379382913 408.6595216700478,167.5423980068491 408.90950603856993,165.01760134328185 409.0086237612097,157.99638628154105 410.2718334911707,151.60418519851305 410.32913076474813,146.52846194724907 411.48622366150164,139.0277137004025 413.05812462735065,134.58953902909263 413.1228274839313,126.45028197574447 415.73573084926426,122.53745433161475 416.96017953028735,116.37716081128497 418.0148762850858,112.22438049751338 421.49676497166536,108.90347932674104 423.13737156734646,102.40525741406827 428.25022493554087,97.01294565669286 429.6940521722097,94.27547407847146 432.854376851629,89.1846715205022 435.0300524857142,87.24266367088944 435.63007608910283,84.04732808328174 434.77540516317373,80.92666471432551 434.67600781592427,77.2010444115964 435.2506527550159,74.00528590138038 434.5486159570827,73.07930180140784 433.1698407188245,74.00000512005806 432.43956160961545,79.60986677180733 427.9152019265859,77.82878598755497 427.53074733099317,72.94351113891526 427.02523574294275,71.02630069322095 424.9512211422597,69.51062364956101 428.93099143117854,65.76221841588529 423.30137628529513,58.353894791830385 422.1291507915506,57.68467209515063 418.3410591109689,60.59407378372089 416.3375780265533,59.28267342113941 413.06823186376755,58.48739320573293 407.78047217925035,57.96297898817477 396.84241818564686,56.389090305452555 396.55862091127744,57.763775529023974 393.91159858609444,56.86643285378091 393.03594751095744,59.82448284912323 390.13564378304267,59.03512004068807 395.06738105905333,52.61383614763372 396.0070934145639,48.99920947374858 395.6934619444394,43.647188661944256 395.76771331387437,39.23469974716829 396.2584485991432,37.76190878022146 404.037142706712,27.29277194846145 400.85728988619525,25.453522087603346 402.1094944539411,22.99902877790214 399.95588424088936,19.939238066525604 398.64705276552553,19.452057615259832 396.0546335635108,22.186073232588228 383.94626186040307,15.702211541820247 380.9858445928333,12.631296152588334 381.61917048923783,10.775969336862659 380.3987712416273,8.744966018595846 378.09399814185207,9.8742873897055 379.00734495947086,11.512471971103423 376.58376947983055,12.709282032923284 375.07310310471263,15.704665511686017 369.1496545295918,17.76718342393724 360.89216441447513,21.0357814510445 358.9201227384304,17.90651431686615 355.1095074695332,18.462025631047254 350.1673426979055,14.349181325823224 348.85873597933823,12.228291254353394 350.6538330915226,9.478487566093463 348.73383019639806,8.047627005761228 346.79434520724095,9.252402145230803 344.76564026872717,5.809253544623743 346.3361143637114,4.060855247718905 344.5604070829673,2.557560565587437 344.92687237856535,0.0 337.86330245274684,3.7319695358442004 329.53611896610875,8.511531175494724 320.5727343765003,13.114195071677727 313.0189246129775,17.681935886081533 304.7854694514715,21.649636488412625 299.5063394745297,21.07229186570123 285.3004316555584,20.907675084006883 283.5358331739111,21.44398154268322 276.435843318177,21.45495390074234 273.7098249263506,21.030833895968726 266.66490782789845,25.05001033349083 258.62148786330346,30.36701888997743 261.1736633220632,35.23157524915371 257.8119820070539,36.73452851119032 259.4718237045239,40.781562426074856 259.4986836363721,43.8859208218131 260.4848636018899,48.073637096279185 261.7929791234134,50.194997821813445 248.50695072160218,55.79772110521958 236.25322494938135,62.89088920099641 226.19519053683052,67.47407348946285 230.85742847684804,83.35310567734507 225.78486904622736,83.16291476455535 222.161342957714,81.25218698402591 220.23450983132716,78.63321800176789 218.58953612042794,75.20375241636248 214.98400948117242,75.83036878127507 210.33729436875132,77.5455038034105 210.17295613149386,78.62805959735442 212.9420477613229,80.83946221617907 214.40009898139837,82.55733114870225 213.4805704054322,84.86715457705304 210.93771017386817,85.1460748515974 211.10190859595158,87.62460583518828 208.69623019643709,89.81478403113499 208.29126419734584,94.48629027198854 204.7842074103243,96.0582534593924 205.4064892005583,98.46462568136542 206.916202558351,100.26631660602357 207.91426247839502,100.5886033723167 210.28129397200186,100.08204717680826 212.56776831835546,99.0366873571827 213.54247232783044,97.26787635112464 212.01457057073335,92.81647988369616 213.21757764827737,92.76537802982568 215.39823920499325,97.75754862413805 218.76490884884953,96.95295072869624 221.37146132603354,109.00247925570193 205.0042642971592,113.10027821762037 204.63846290121768,111.46035580337116 203.02416121342227,112.58964043735966 198.1323775120421,114.28960488454481 197.59863441823776,116.16771110456739 198.85679577567785,140.4357205598335 197.86856451043542,142.041168459034 193.25661186119396,143.28080538910058 193.53826258248023,149.18080970216454 192.51699081855412,150.16808295907947 192.65216511326787,156.12967414079696 192.99513933850517,159.06852503371238 183.04792526927193,174.9210378142659 165.69543245478965,194.52166306492393 150.1824107067616,209.8308382862565 140.90307971305998,216.55842377902025 137.04051258981542,216.84533498411588 132.49024497385736,215.95161746056272 122.46411304644904,213.25713702697112 114.25264997843585,211.46359617186317 105.12260570250113,208.76304604963127 100.11006220743518,207.14127679611738 99.29111732405654,211.35881823069099 94.0556285937431,210.06712869017133 93.2294916201086,206.19435916721238 90.41030314678808,204.81496182914816 89.65253528722558,205.49112206515053 83.51078252929136,202.87287392599103 80.67797384618765,206.74132176935507 76.1610303165921,203.50247068861745 75.49310871757663,204.69888294836448 73.81057997054567,203.52960799875245 68.61179934208262,202.77543303502296 68.87326689911565,198.64948577293148 66.78283233151568,195.6574389326413 62.029080057165785,195.19455617802214 56.904247128583286,196.86907984487743 50.795167475610036,199.73413031888708 45.8718004060385,204.16321859927928 39.925526999683306,206.5631063902897 30.64383690788362,207.7953164938085 25.159265887654655,209.92790094105953" /><polygon fill="black" points="446.206118551597,693.4937169224002 444.12316715309726,695.9829313755783 443.09700216090994,699.4545886705585 443.04403039970475,704.2120694964142 443.6651770139378,705.251500014994 445.1824689033545,705.3780807277612 446.69111732630506,704.3443285167492 448.2085843582025,700.6668898176774 450.95063576263976,696.2076258385708 451.4803170263257,693.5297455755781 450.81922323876864,692.107404110297 449.37752736315076,691.8885326220558 447.2280195389476,692.5241247346389 446.206118551597,693.4937169224002" /><polygon fill="black" points="403.5382668595431,721.4286972280038 406.98227057162734,725.1696850420453 408.47108583409374,725.3467917369326 410.4065142091413,724.5341821397806 410.36946938775475,721.8897224645815 405.80669306429354,719.0872117749132 403.12398420437387,719.9167650987811 403.5382668595431,721.4286972280038" /><polygon fill="black" points="400.24538670328786,743.2224389441749 398.66143940505737,744.447167263123 399.73610217744744,746.3069208892321 401.9570791102302,746.8330667167769 404.50096070685396,745.7445695957721 404.45636015573825,743.5571092344949 402.6188932409307,742.64171854637 400.24538670328786,743.2224389441749" /><polygon fill="black" points="807.7249599294538,944.2162350102656 806.8107622848321,945.2930667433998 808.6914887976935,947.0507333753258 811.4311797827692,944.782433629075 812.5648909084936,938.7933030758142 810.3035157923877,940.3470941505624 810.3304509353138,942.0982900231189 807.7249599294538,944.2162350102656" /><polygon fill="black" points="884.4904615090599,981.6165221678061 883.1688910015781,983.4921566331664 885.3544353272138,984.0936673195042 885.7023870633211,982.470985082116 884.4904615090599,981.6165221678061" /><polygon fill="black" points="887.9651238932165,973.5767535424121 887.6483291330525,975.443131665085 889.18948840002,975.9442533385738 889.5607998715979,973.8327678297217 887.9651238932165,973.5767535424121" /><polygon fill="black" points="881.8847870981608,963.8166133121639 883.6033239342609,965.4697410919923 884.5574829535599,965.433009300261 888.5082412108754,962.305048489933 888.7177931929634,960.3328476795879 888.1302762939199,959.8350599245159 884.2491520762568,959.4945928958637 883.3692739826892,959.9894856634827 882.1579834291639,962.2409448834192 881.8847870981608,963.8166133121639" /><polygon fill="black" points="830.3173295823239,1024.0 832.5751705113705,1023.341389978573 835.1494592593502,1023.8181293247637 836.8075994531733,1017.7244865910765 830.624767798173,1016.584508459639 827.7882946433738,1020.3377433815403 830.3173295823239,1024.0" /><circle cx="145.93345393691513" cy="419.4191584800151" fill="rgb(100%,100%,100%)" r="16" stroke="grey" stroke-width="8" /></svg>