<?xml version="1.0" encoding="utf-8" ?>
<svg baseProfile="full" height="1024" version="1.1" width="1024" xmlns="http://www.w3.org/2000/svg" xmlns:ev="http://www.w3.org/2001/xml-events" xmlns:xlink="http://www.w3.org/1999/xlink"><defs /><polygon fill="black" points="703.9625358385189,120.74254621874172 696.0638086234225,121.03576997453627 683.214225691593,128.50292274133244 669.1742713457537,138.9907936545851 654.0277562730776,150.4282024570499 638.6915213249775,164.96212410132568 631.934159049955,173.82949791026374 621.8401167991626,187.66634819752824 610.3455389900803,190.0266961207111 601.2173793215484,187.37424085588702 593.3922914016912,180.66533332461995 587.6724544025591,173.0645042287291 580.135184861122,161.1991087105281 575.8434731829902,147.47407200880218 570.4846980376451,133.69944592829904 569.2402952031881,120.1793932106118 566.4540174442919,98.28329295501544 563.1862425938082,84.62844014779364 557.445331338365,77.00881896872954 548.0099115920588,62.95794283698717 539.4651455594972,51.03603916376346 529.5713507077122,44.19929323990152 520.5035564098342,42.78199312930076 518.9639248874796,34.237078512269136 520.1332809721536,7.139633519055678 517.7891952227984,0.06050067521277924 500.17405754080613,0.0 490.7809309585816,5.857295812607617 486.08384335547976,17.63282975589391 489.6023379076727,43.570412109789345 490.7801489099154,62.42559439402112 484.90213595119315,80.084905711793 453.19189831746803,94.1253788690833 441.44657696254166,94.08776325133135 428.52335076735096,89.33558673626442 419.1205795585782,71.63783989747867 408.5405140046124,56.29173883755925 396.7919669865388,52.7177801255807 381.5138418261664,64.47248664177528 370.9230577769815,88.0206236794653 357.98901771431326,105.67426201347166 356.29190896635714,109.43558621852969 333.3641483505519,115.31349654072233 297.9492553041117,120.9502941605142 296.3763842489506,120.2379630815534 293.9583075993514,120.91538640005194 283.9170110784454,125.69141976346077 278.04386888056945,127.73029677418549 273.5466756824752,128.7403157440757 269.9052548187993,128.37869103656124 257.467863792491,130.91078076503595 245.68751708401544,135.3334854936585 231.85320255242445,138.72446529467004 219.22257087384463,141.26004334511288 204.16087689411887,144.81800022191533 195.1396175657852,147.72687342536233 189.0914901356108,149.2573373312507 177.314478739619,150.7630611227686 161.56503791395062,152.60515435656032 152.5717612175808,154.12498229307232 145.97879738074016,154.45636903833895 133.17065292399627,155.44897195903877 120.71063625025707,155.92813154104147 108.4042351341988,156.74485155320644 97.14736960894673,158.4491364051828 91.42218557112504,161.02123842178435 85.86627276700537,162.54945359581518 78.77209483176463,162.8765717686224 72.02856500029793,164.59048412864718 65.59449994266949,167.5013006455656 59.86948427439164,171.80402502324023 55.53418745536012,174.21182875823376 49.63335988555914,176.95076011060632 43.20875650885956,178.14502585701678 38.3568278350549,180.03174449396647 32.448677642707516,183.9806454278463 29.50424712888653,188.81084125999587 25.82737538550706,196.22901460349163 19.712673341416018,207.43848707926094 12.11560348772036,219.97590406929334 20.6295548376485,232.31293323293812 29.688317383693448,250.38539905818675 31.191687573684494,259.42347572307034 31.701986292481273,266.4505834233854 31.704988669329097,274.99517425654193 29.684700790153247,284.03679742128145 18.61522937503697,291.5893469178817 2.018381757560436,300.16262967975786 0.0,308.7103164489042 4.533158399396713,314.7285665866604 10.06260744987915,318.23259700112226 16.09928934902993,320.73089420298083 23.145533694771657,320.21818511620256 37.73612386483151,315.1637609493465 53.34368079647838,311.61386418006964 63.907012363333926,303.05159265127594 69.94985792719376,291.98238661520406 70.44714117117998,276.916356582713 73.96606833642295,269.87614176876775 77.49549193891491,268.86048419828063 86.55450306898834,270.8476675985055 106.17686108770037,280.85414476277896 124.28382764732619,290.86000905540067 131.97788607275533,295.64732205952055 137.51568667861005,295.8884540329991 171.6797311094101,298.6719401792314 193.0177673808577,314.27892092476185 218.61965259296525,341.25703443629885 261.26576102592844,382.4520387158949 266.94864102145823,437.8867041340934 268.36941362497134,474.84109059221055 274.0536044742911,483.3688599382143 283.9973132652029,486.2095348973187 296.7739846232801,486.2158092686178 313.81634784823154,483.3913414884621 322.3278677950375,483.3967396752714 325.1654389008698,487.6646177760008 330.8444887747838,497.6243559649694 332.2580942856132,510.4145051614141 337.9352773350145,527.4822677368056 346.4501114897279,540.2883417859457 354.9657767672061,540.3018618285455 370.55720829538495,538.9094272908947 380.49192729836017,528.9817032780791 393.25159128405744,517.6367067702347 408.83757214348174,514.8333543682165 434.3431202618967,527.6932835063701 472.5925523924134,556.244346242056 510.1820136594441,582.0871724950582 513.6629105385107,590.4925685938775 536.3284940038542,630.370158076859 539.5322140472372,633.9781576372632 544.8193534034449,644.6124862921574 550.2042430851942,653.401611313966 564.6542392609754,661.7339321566704 592.9823158725659,676.0339170467016 625.5775956367071,693.1898141549556 635.4934628089752,700.3179978435069 652.5064858469885,704.6277966968897 666.6915438375403,703.2360881570047 666.6918931621152,689.0201060863125 657.1191189877061,661.5606891643567 646.7351015340074,647.8983987673271 612.8234009245817,580.8567253392744 588.7344975248205,531.040993292525 583.0725148006777,496.9109106566963 590.216212598101,491.192262760242 594.9874018758893,492.00008510615703 602.2006570115101,493.95853848053235 609.6167187423263,494.7043383356377 615.8281775961583,493.7141377198733 623.2543115534072,491.8765353437512 631.5189573628892,489.5301916077093 637.9110412166382,487.5045942106134 644.2911673344797,485.13259871649524 648.773053892349,484.2976964190301 663.2846999049806,482.5161514717034 671.1973270622758,481.6998340331746 677.3663942342539,481.3344532430789 679.4706043654202,480.40596487338996 690.9218119393283,472.5122534803251 696.451710884856,465.0089890286158 701.19399303555,465.01424576077716 703.7559135145387,467.3477551733041 716.5840697204002,452.6932535310202 738.6097715465731,446.28670480563613 765.2245106911229,442.6250130581812 779.9190814407299,444.46342523736354 797.3629486255959,441.70708872305914 811.1416468554379,431.59789896063796 818.4996781327723,421.4882954798115 824.9291346617866,409.5450607836503 845.1497041193475,395.74612533066073 875.5051115245584,392.95391389468546 950.9537729629449,365.2537390525367 976.5399312447025,348.3575190420378 989.0951473000648,337.25563930963784 1001.3267991576774,323.5120938018273 1012.9936604586441,302.4809280974661 1021.1618842812308,287.4614030661274 1024.0,275.21264198126255 1021.3370990141104,267.8297234526924 1015.7107635784038,258.18706644437395 1004.6790569808927,252.36545052486315 987.0734715004436,252.35414372939647 972.3517441829946,255.62236879209559 958.0400491860452,252.7102613797938 948.0883093446839,245.91721504314575 933.3748157205795,232.64628110636176 919.438735849997,223.54662141455657 908.2509764077032,219.78332449848068 893.681209565381,220.97993988948588 870.8434868122577,221.6897104693142 813.1040057234854,218.21159077658234 785.6568891324816,210.3436097631228 766.3930327178304,203.99471011449458 752.43057874008,195.89587329073964 729.6322686564289,179.99756266992927 722.1747216550492,167.1364848215644 722.0669413016466,151.61615784147534 720.1739175723504,131.85340513621748 713.6012949550977,121.108732508618 706.3985882346756,120.65207182926474 703.9625358385189,120.74254621874172" /><circle cx="632.6543825682285" cy="310.54931628162564" fill="rgb(100%,100%,100%)" r="16" stroke="grey" stroke-width="8" /></svg>