<?xml version="1.0" encoding="utf-8" ?>
<svg baseProfile="full" height="1024" version="1.1" width="1024" xmlns="http://www.w3.org/2000/svg" xmlns:ev="http://www.w3.org/2001/xml-events" xmlns:xlink="http://www.w3.org/1999/xlink"><defs /><polygon fill="black" points="65.38667677140336,287.0903298712471 65.03129372202874,292.4464011028345 59.59412231037063,297.10341915123365 40.473293252856784,294.892088405941 39.19023755908906,305.4678956169759 27.368486152235906,304.3090209340672 13.406443443514801,308.25065884048166 8.262946281053901,308.8451133841919 4.338876165783649,306.3913021126168 1.089569952581263,317.1385126424401 0.26796393730351925,320.548037331719 0.0,322.7087519365777 1.7107602649936098,323.0322828759095 16.809328360389173,331.0472439350094 23.35635826285004,336.06288131663837 20.368777356393757,350.7264908754893 17.518632678634454,351.99517738549974 16.080954773973275,360.09409145587637 16.600240212487936,361.84013902891434 22.52088284412368,362.58207406762176 21.61105617381233,373.79061144398935 23.017555359555033,383.08448594564936 36.50193555203581,385.8033898285113 37.22897484761614,391.1523910468268 44.16401072806071,391.7994145554633 45.4539942907508,394.6188841204589 50.736236076386476,422.67557263570257 47.70104839337602,442.2505705550456 36.94923565448896,459.64942565724834 24.197332217024567,471.423041265003 12.862594729824256,482.51259434357917 4.270577299159666,497.1174612882145 11.014263949056888,518.8894863836595 21.280301810779545,539.301904157206 23.839262139174227,561.7346796461172 66.88234760061418,572.8904696444843 79.29791073833155,573.0246190362674 79.81609521540597,572.3219344172252 87.04706617481439,563.8500549776556 90.42406439283792,557.5342345459846 96.2090790400825,555.9322538321592 105.93156359654608,555.7276898175966 111.41987354489595,554.1395622929685 124.98428784374619,545.9970666228553 128.5566895026583,542.0667033456998 142.09000069085985,543.6735355343343 144.57731782736977,535.0767223250724 148.99970963634286,536.5249705466105 149.66092598365196,541.7709190332748 156.36256440468034,544.2030268919626 172.25595237023776,545.8953284879957 181.3162971217051,546.3076600015061 188.64531433686702,542.6343278802924 192.56223232915423,542.2142643325409 198.25757565123067,543.4932426617303 200.45579018218103,546.5319873623843 205.760884042849,549.2809110857697 218.55146706918234,548.5120281013401 233.266294712972,549.0229230984532 242.14108724198516,542.1476062700257 243.69137362009695,537.1193983953427 245.31789294537114,509.8620047769338 246.83941625002086,506.4592409856856 255.4274899234403,505.2743426005371 285.75747228479213,509.01418523784497 286.72937415385934,510.2902041999685 284.94795490450355,520.3749530619361 285.53135559716225,523.3810664057906 289.3844455133537,525.2351156485275 299.7723616840582,526.5574609162443 304.5103865070838,522.5510779528224 308.1961504847814,517.9484359407692 315.2737806263875,510.00462787528164 337.9801645936053,510.96765378742236 342.7518339194484,511.9496636756936 346.2186846986008,513.3353205131881 353.9633640009331,519.6617068619782 355.03899313218295,522.6545488269666 355.1199596723757,532.0461489379654 355.8877174826323,532.8861492259763 361.52397920957293,534.0650559797625 365.47237077180336,534.0677635234493 368.33213631502974,535.4726478363867 371.0080396948453,537.8941306277642 389.8587732991694,538.1454924123111 424.8883487521029,535.153239312319 440.9833799100341,533.2927210211137 471.0211783076729,533.028462641491 494.81783375978586,532.0021551786588 522.7890980302311,530.3245946521341 550.7349170181309,530.7490534971291 568.8734878049822,535.7596773373898 579.4363124275274,561.1240894562087 599.5811719007609,558.7956776529429 621.988324178444,551.6589563230402 641.6261255357493,544.9331299555912 659.2486682184095,546.5725803946102 671.9599511973431,554.463666784007 671.4662864400103,556.5036574881683 672.1387105814064,558.4835297856051 678.1404080522988,566.9672847405117 683.5185550409043,570.2202185254923 683.414050130159,587.71205152816 684.5910963665997,591.4632722962782 691.308143983008,595.7139628997016 705.4686429336754,598.2921784976256 709.4395417901827,596.25719431653 711.0403842944862,587.0711640037754 718.6576381777439,584.7451827060302 722.4282459248615,584.8817131314398 728.0899768099972,568.5278208042441 729.6644478983465,560.9823368724324 739.9643417748856,562.2619145657102 741.2125864902455,552.20018087659 748.8640716188445,553.951058063043 752.5771407575508,525.4032176074995 755.7494891087249,521.8742222473506 765.385024090665,522.6464693596672 793.0032063070801,520.4835428713321 796.0129611594657,524.6644202129195 794.5455126025703,529.7278127792445 795.3817825464052,531.2401215493675 803.1285103278701,533.7125630163397 807.2347119429784,523.366108342289 812.2278528205494,523.1635864842805 817.6553273416381,514.1225393725015 828.2448159870903,506.88392902628567 822.6216907681004,470.28309186099955 809.3283414558597,470.63939412596585 798.64510144609,470.1673735612809 799.1864820052526,468.7241624205095 810.3402519353431,461.45260407990304 810.2260878089338,462.52901264861976 811.9962124081851,462.45663899425006 815.8781118727403,452.3864867446865 822.1451760558441,454.26467394928943 823.1217707667364,455.4345265502569 833.3944597706164,458.7206995123072 834.7234816531289,455.8301896784276 835.4537803080569,453.140932585693 841.8534349771048,452.6039632119224 855.582760526429,456.78127386022027 858.9014280508709,445.83987279640337 860.5774471323483,436.64557747968036 863.1367111021877,432.4666985170333 867.3258469871826,430.1741280092014 873.8003021327977,431.79250015841393 883.278954095421,433.51955730379007 884.0875848739871,428.5947282718581 885.5199692802457,427.4420335765285 899.4341638049514,429.69231233723673 903.8763215546207,416.5643105687283 905.9228815094139,416.4603599279746 906.4590349128348,415.2307657495991 911.1013674515414,394.9616028817522 914.4758015186225,384.1460518417416 917.1866977503778,380.0737371491951 936.5252626376434,382.08659149012965 938.4182708481761,367.6246216912648 945.1050234639308,362.97745039742415 954.2274618323775,359.0406352660365 957.058002725351,347.70603064051414 963.8353049751265,348.89434895947693 964.753796936421,341.54506035084427 962.5288203581104,326.6953336513931 956.2406705723971,326.4400062281555 954.6624308508156,329.2067424645262 953.5342982921924,333.80728628505085 950.619753573019,333.0073550271531 955.1168819659724,313.681932566739 952.3380726543068,309.6728394970812 946.781118068614,306.27234912259706 947.9875207646779,291.9549861484084 950.7302063027163,288.77235130304604 961.7620676501041,290.57155976644884 965.9560674570524,290.26094748488794 967.7213712235866,287.36965922968216 975.7107429239412,245.12493787354293 977.740167446468,236.81444745374318 980.4042872897738,233.44958830530123 981.9551528296658,226.11021668261662 989.6439471741887,227.50014813746606 997.1165282781524,227.06394920313056 1005.4846852668021,222.24511209734743 1008.7837196186833,218.77074068306734 1010.0837690966566,219.53695647910132 1015.2052431594798,220.7939855414076 1016.304932110486,215.45917485557618 1017.2240821702646,209.43304671278656 1024.0,204.5932457856283 1017.8700567154506,203.26991442613763 1015.7163924369615,201.2393803871991 1013.9082030499395,197.37918934433333 1015.9514469118735,186.74915891925582 1002.1988546802661,170.4654417009799 978.7103070625535,162.55860136828892 957.6536261062106,152.1967769413647 955.9257043045765,148.45079654317612 959.3568433002773,135.9795178612199 946.7524640061233,133.04076322915773 939.3495428002601,125.88210383958233 937.8469571178138,118.67190396008067 929.001158188727,115.5444734974555 922.9821295389337,109.15674641677026 916.699232290837,108.45393403009433 914.5330444764512,109.10543296332241 914.2538813846492,116.56278579042191 907.8951457425425,122.881275143062 897.1311803884364,123.72523293561233 889.8729693355504,122.8851161524662 890.432207683886,119.01244514025916 885.3113090953128,121.83564020202675 885.0403387831052,125.58295312233764 882.7647370077761,128.37732649570444 877.6785749829166,131.52506115439724 867.773242741686,129.82164167557318 868.6797050130558,120.25343818293794 865.1804222664539,119.17098121843111 842.6812863779999,119.4830599140177 841.1909611685951,126.22098608984413 831.7040068128123,123.04568775666985 831.6894448976325,118.51908301366842 832.9369893467114,109.77419805823939 829.1486882484551,108.39775482279907 829.4726797549665,107.52445111330354 821.797278622357,106.17820995566785 823.4767453621885,98.67728343450005 813.0293374460557,96.13777775939417 800.9686595327393,83.71901638395616 797.7342814864288,94.67984576614833 780.499158131117,99.27040350944287 768.0652141905884,98.5260740329224 750.9418528781666,95.16442078324695 752.0432434656408,89.5585051161961 748.612344756653,88.2006731069801 738.6308536446401,86.82317105229481 730.4623129560982,92.24213966636034 714.1790905968483,90.59838024213138 702.4566620082386,87.7388351120988 698.719847758865,85.40166366910978 695.4024467108101,77.96336741929235 696.4985481987067,58.686423138804 692.0057071298558,58.28865604497082 691.5373812324387,55.0447774389055 691.9657149089525,44.80921406043001 697.3215973645864,44.35174379198827 698.5139279295004,32.27155337100635 697.601018579802,29.653690301476445 692.645269555289,27.256085563362262 672.4215234602121,22.27701400490048 666.6388693580169,21.670053014173504 660.9447622489105,23.528352320668773 634.8418526164031,19.672668925483435 633.5708010483042,21.255270722718706 633.1361843198982,30.32320656617651 629.6973716231282,31.277083561796417 625.1103036508978,31.04402223002512 625.9755479075992,28.00066623694636 627.6037514803801,18.971403244196722 615.8113894399445,10.142618801356775 610.2452480762454,8.117816196689091 593.295022164038,4.634952055025792 575.4633885671276,6.009232960532472 564.405424030621,0.0 561.0337957133976,9.371917677336114 559.1136585495177,10.343565669463715 556.2757693417964,23.563294491706188 546.0363197825609,21.535878192095765 540.11553442692,21.271133016072554 521.9504567367321,19.666094315833675 520.2714129406314,27.495582396080636 509.30504603429654,31.468409085875123 474.7633882246745,33.452500007901676 458.52615974330496,36.23299904474413 459.6624945368321,54.81837939247623 453.11035733349337,56.16621451190451 425.18339445177475,58.27934363539748 423.43858281538434,68.49708057993439 415.1930804942361,68.91240850077145 414.75293938660286,78.28598346581816 414.22528631882733,78.5244634021152 379.7027019003527,95.55553109163287 350.1160784143583,109.85430146007042 325.4041502721446,124.23013805516945 267.45026660457495,141.64058613848658 254.39480731347203,148.38634671840907 235.3670670946852,147.9345606752239 235.62385167942895,159.41254814035176 248.18298976838676,160.23967516394765 248.44167594267617,167.4076836025502 234.1502954844827,186.1482600753588 221.8506290915406,214.71096790893245 209.5828112727583,240.48315262823598 205.52799180945192,243.47975622509477 201.42372072226627,266.90326024418715 191.26703574360275,266.60228574533227 180.3578538935617,264.4762901248314 180.91760353975164,255.21859127063573 164.45821268076293,249.38222348874444 154.0780659086373,247.84540332786202 157.00446659624103,233.19448219815655 153.35118208278917,222.06535409731674 146.4697772832737,221.54781749634128 134.30190999481448,225.49662496043675 128.66237299477282,233.64407583082902 110.69173864019722,243.45170771521828 105.94953057504388,259.155532674388 105.2944419770275,264.3025757964532 106.43886487875191,269.2518528667624 100.4388944153073,278.65857016539087 97.35551904246073,288.252290947606 65.38667677140336,287.0903298712471" /><circle cx="447.9486392755913" cy="359.71763312249783" fill="rgb(100%,100%,100%)" r="16" stroke="grey" stroke-width="8" /></svg>