<?xml version="1.0" encoding="utf-8" ?>
<svg baseProfile="full" height="1024" version="1.1" width="1024" xmlns="http://www.w3.org/2000/svg" xmlns:ev="http://www.w3.org/2001/xml-events" xmlns:xlink="http://www.w3.org/1999/xlink"><defs /><polygon fill="black" points="359.40528759113414,0.30992023793737644 357.68826690938624,1.9433884139349402 351.6363545067713,5.529962380808797 344.43920352138974,10.878773637314794 344.67767434592355,12.342004498270057 348.71507324850154,14.580648687172129 346.3926114067944,21.26603641363033 361.9889885075614,23.578289628849802 362.31838926399445,28.35326346939462 363.81747901644474,39.0076486289845 357.0955184859638,45.98870652983237 338.74808631164115,47.737153065946245 326.6678828971987,35.72278427360391 317.4250343640027,44.911916350323054 293.49911800226704,60.03507694510233 287.26765690351687,58.49356297519637 273.5961023886424,35.85631222073846 270.8600885867889,30.996250407612365 269.584962213378,17.06463794023432 263.0267603568144,9.258144331179096 255.71411174324535,2.129440729418434 237.91454256008336,1.0228937452657192 227.01645377256477,0.5392193577119997 222.36603292165515,0.0 212.4646146463729,1.09169776631677 207.46703424093332,7.001972370453018 199.69275005185523,17.149321661907493 197.3449568623858,19.847921299774498 196.1358996202686,23.32014187054483 157.468094269088,41.698428759984836 151.75530254763933,43.61998343641051 127.95307264564465,52.60081109861642 123.91179698028796,59.449565681818854 122.6074749919809,60.88732901597598 112.43773059815624,67.9625528794171 111.41848416031763,74.22944694355726 101.26406055314901,73.4660231753711 95.07733865912235,73.457736992518 83.18078580604246,85.76783557427962 73.63941411014207,96.20239295476415 60.77297843042499,103.64478076103762 55.604194801863926,103.9460562017191 51.51859841519435,104.91334398896322 41.73485083352336,108.88017968614952 39.66909156068048,131.4523036742312 39.67581714076242,145.7287044854644 39.30918495240951,159.86325337413768 41.28820746050864,166.75448141919287 48.28997885488682,189.35979979022898 53.71371588315916,204.55017892655485 62.21372386763378,210.9844185515867 63.980451532488786,219.44924855903253 65.03897700553055,222.08891440940545 68.53546267829039,237.90481433499463 72.07682097667386,250.63456808596982 73.01878218463472,255.69590295188493 73.64618315449653,262.1574055163103 71.89712443027531,273.74136313304086 70.51110302354653,276.0779742492806 61.32251078193122,284.78041027527104 48.117539829173865,296.8304617004385 41.610889426960505,304.8053990226648 37.84966924198379,311.6664861205297 37.16968675693619,321.5478950234195 41.39362906318638,342.0221291968876 42.54619933057178,359.9907568012678 41.88378966520673,371.38378145803176 41.9659619797939,382.27516677920266 43.858233589386394,397.4581248391212 43.48454769336588,413.4143597956146 42.04650633790366,423.5582451759385 42.63431938753957,434.4369272026769 42.419322164829,438.7413785783599 53.53842772705069,465.7522658771902 54.1210708778701,475.6174476079898 54.00254416950154,493.0947197680506 55.32627472892399,499.92056321479174 60.474834195914184,509.00207548750757 68.61266920075798,514.514008663336 76.25812271020632,520.0254345071165 83.68911191739386,530.3557780698143 91.1424051794542,544.2384678040096 93.75749473516021,554.3473368648447 102.51366649035883,572.0229704676934 108.67856718320988,584.1426095313058 112.82469190767375,595.7656332528823 115.44383814573389,607.1376698170823 119.06682599181522,615.7309718406989 121.67150896959097,625.0837884386076 122.98562826370947,631.3993207117256 116.77366898021934,646.3893766656514 108.20358980582014,652.2750928040533 102.42589806053554,657.6307952594052 102.60688370114818,680.1760808729152 99.8718553641191,687.0230636252694 99.94877401372568,697.6651111006398 105.341956652767,707.5020674250866 103.66353303623366,719.4219776950022 97.05208846961527,733.7711445258544 91.4854317535433,747.6201786531383 86.79295962113282,764.1131367832836 82.32415343877217,775.5478784803272 81.830981334142,777.5752057562042 77.57302563967983,782.9252940246602 75.37763404989798,793.8347106123929 77.22477192691068,803.6975089683198 70.97148015252661,814.3764063013248 64.68966789944204,820.7631903058989 59.172308047869684,829.419811725674 57.4895554517766,840.068665553566 52.737332371789684,848.7211577895843 44.924366801628054,855.8782314466607 36.85174987968411,861.0226920531549 31.33645702361687,870.4399356671066 23.53584232489323,880.1494365453444 14.932850879042844,884.7901573385246 6.86687547787417,893.2436426226607 0.07242444813173456,908.4505472515284 0.0,909.9593684989961 3.8479057485881345,912.7953848274693 11.81003001599215,931.4788451808913 18.110879666328202,951.615638543399 23.311656059270796,957.3511373518143 26.006025785806557,962.1817169378066 26.462900538442803,965.3025852754492 24.9470360705491,972.8145263669701 26.153341723364214,978.3947370109425 25.87445314680117,980.4526373205041 23.91543428929245,983.1609880623603 21.040357423616832,985.3536743948857 21.46291085426571,987.7675074166856 23.938022996625868,990.0894804872171 27.44034191636755,998.9000269983462 30.222966538222323,1001.9045703633383 30.283888856477162,1003.6078991785388 24.86406494037699,1004.1271284502761 26.399699963929564,1010.8216152059267 33.284259191832014,1006.9668301466407 33.094415160625196,1009.7019061354661 34.50556814507014,1012.9088005085435 34.34496058155983,1014.7195785008248 37.09704701947852,1024.0 44.80783335432951,1016.8602029282553 46.37602148380558,1014.2921333862037 51.96049906347607,1009.1360828231501 54.15138073406492,1005.1075547769469 50.570751691878286,1000.6624981282902 50.935596583676066,997.872838021807 57.55909813117189,987.3377414780423 62.548182922122194,981.8052158834641 66.08893934841072,979.6182112530054 70.11934702201656,979.7812453936006 73.3568632231091,978.421956606673 76.89249414326169,978.3588998927398 82.61514441341836,975.8179947494514 85.02031641737298,977.6354631058186 86.7692360510557,976.6963761832725 87.64968258072807,980.075098681556 90.2887004659203,981.6837338193249 89.2252770010026,978.656643420711 92.00799892863382,971.8243843013333 97.46815922047205,971.0732348665028 104.64568771641272,971.1284225238561 114.48243434832126,967.3273910528106 119.69041047185745,964.0356473906365 130.8267854443471,961.8993645421529 136.734977614613,961.7725206671626 149.28978293027018,959.5308548566938 150.79554683201388,957.7846309077498 152.98475224953341,952.4202757310574 154.82567009198794,950.1538164460171 154.095758461313,946.9375193394742 149.25433815783825,943.1846944440531 145.34434766710507,938.7645414096461 146.04694756274424,936.0610262958623 147.92024370491987,935.5696151825811 159.15066428385987,936.1250033367805 161.05650517965802,935.8994902577133 165.72242320874548,932.555154975378 168.04335412957377,932.6681630091291 170.54279964493332,935.0346340784126 172.5245551279507,934.570103679769 172.8231090980424,928.357156429189 175.34910234747218,927.2956878255845 178.01301442350746,928.7654795967298 181.3122724672983,927.0099070087413 186.16902545877363,926.2154175130436 185.1224508699842,925.0068968009132 181.66678645474207,925.5144205950247 181.6859842788731,923.9244521975388 184.5740841470482,922.064837274889 186.44135864088867,922.2692812056805 189.74139019046322,924.2174392016814 188.8077722728002,921.9917998596466 189.7439599516362,920.9862145719201 191.6064771900786,922.7801865035156 194.3586317997567,920.3183910895851 196.83617035198816,919.2483668703773 205.3011378433055,917.1809875685221 210.252451055951,917.2744339099602 215.55154665743572,918.3444440838101 216.59823834274505,914.7306237747734 216.16898953379706,904.7918577135223 216.68323118485432,899.2626236998109 220.69355200287137,898.1049313502051 229.02272671965844,900.6326072849163 232.87831782756604,902.2271810859273 236.46263510420067,900.8523793947439 238.73582176522757,898.0419534074261 247.18654583443282,886.3622899484914 250.11250651390125,884.1722392030322 253.91078548248325,883.017546354293 265.9998074509242,882.4705243167009 273.61997352357685,881.4104749738583 284.59814790840704,879.0086832779008 288.43493968292734,879.7588508106297 297.03199382109307,885.2457635885335 304.4700687484471,886.5453171548681 312.93094049793734,885.7070133322505 321.8174961240648,885.9032348151311 324.7349319763217,883.7213479546682 327.342021098621,876.8806918885227 329.8321273789527,864.9578162685989 329.64337849273187,856.0643150537855 339.51686556637856,843.3512000067844 344.31672515275454,840.4976398429392 349.64978358260737,843.338303650122 358.851995530233,849.0668009362679 393.3837587985017,862.5081952789997 398.96491652252257,863.9875854141704 408.89355426783965,870.7709047522786 414.0133242505772,877.5721372256281 430.3247464736386,890.3759409455633 438.4809343165819,895.1313218328582 444.8272189060609,896.5988025720944 455.2377169434474,897.27356352245 470.4487230165878,895.6056451312867 482.3910636146204,893.7125539891346 494.07907426174484,893.8351615114135 504.2664872928084,895.759735740617 514.7386575845057,900.1992945614063 527.9925859960022,904.3476361502733 534.1167964375916,906.0594573398068 540.751393282107,908.5170485509877 550.9133922745792,907.8919858923061 558.2525820118544,902.2435800238568 564.0102655301356,891.5396854087164 577.619272287142,877.9749395054791 582.177195809907,875.6538208072043 584.9472377729585,873.34100205712 593.4914945463744,862.3763582584261 589.1680155517504,860.3847056140542 587.3712987624743,857.1015808186916 587.333123894529,852.2936452480876 592.2746512539459,836.0304367615519 593.4756941899451,827.9202069930841 591.1373820318852,820.0726295223621 588.048948971163,813.773908511139 584.9677489840259,808.4699298457357 578.2614601902152,795.356979373516 571.3231745014019,785.2937892877973 563.1696479366925,780.8170660085832 559.1125534987509,782.6294329927066 554.31758789301,787.2363186279194 547.7296766529795,790.3460850868863 541.3559577626986,788.9020275698933 537.9798178526369,778.5461787442936 542.5086029107277,771.3969414698673 548.9574865469212,751.8268936812808 558.0099221937747,738.043894029166 562.5513297466064,734.1936485211932 565.5653497073389,729.8622346146382 565.5339021967342,724.7870422577568 566.5297223694508,716.1420923483086 576.844498227521,705.6233643798125 583.9424598940632,700.9436952706185 588.633352885507,692.1474923274615 593.3975700384436,685.7733758382379 597.8941366599175,677.6278859783572 601.663650986594,673.5526635911912 610.2271745898723,667.4104294640183 619.0211034922328,658.2331188395406 622.538646689865,654.9118017575972 627.5736551738149,651.0871527630977 633.3704370199099,649.786862596565 639.1658136161244,647.48325291538 643.429960818773,641.8809660024042 643.6617177472773,639.3488011301705 641.6541542309274,638.097754851518 634.7542669728465,640.3501376781426 628.4189234920609,639.621431551162 626.2666571735476,637.3523946069785 625.9984661194114,634.5885680547042 627.8357690486175,632.0217731884246 634.0771353242012,628.29617825181 636.9390695860217,624.6470257300355 636.4031177895388,619.1625966799752 629.7782105329904,614.4264792819365 626.7684258068057,611.722115748953 625.9938443850976,604.9789553611056 626.2967297428489,599.4627907610916 613.8980181144728,581.0880495507209 609.1356746835806,575.4818245561682 606.1983654545817,575.9639096954313 593.6614767192349,581.7317773354494 586.3098481841997,583.173608424786 581.015679848739,582.4429541056813 563.5790489458475,577.3508727953015 558.3009138031803,577.8957792272921 552.8987085503713,582.048314814743 554.3084060564354,589.0070333978745 559.4274083552092,591.0010713195304 566.4317785408808,591.8798567380961 576.1859491286451,593.9790133491819 581.1010589466366,596.3961187226491 584.7502326781532,599.0633045605377 585.7168584685103,604.5535549717666 579.9443992881459,611.2449047250453 571.235334001708,619.0600362590899 563.6799411445993,621.3648188375821 557.5310147550784,620.6658966658724 540.3830463727663,620.6768630832258 528.3388817937662,621.6078931633821 524.3346858328994,622.779194330531 520.4399716348177,628.8027575641092 516.0965591282668,633.9894173371031 509.18754442768875,638.0392668732629 503.93217841852817,639.6019927090376 495.55933331158496,634.5208359744463 492.78638257133775,624.0054981294904 494.5589849836707,617.6125495968294 497.6254176378007,612.2475266044983 507.7129543567923,608.3902434939039 518.5182560969166,608.3237560611838 530.820775245507,609.2775479158772 538.2141836497284,608.2371533551004 544.8204891913412,600.240032402199 545.8957929407,591.5365272292295 542.1629137414789,585.2851635243019 534.6335697863577,579.7600938316391 527.3652760531772,576.5574602556127 523.9758844531924,576.6395824429515 515.3354460665984,578.9778207646115 506.8894856065326,580.0421574811235 501.83175554249135,581.2307079067912 495.1941832346556,577.8030003030001 493.7559191259799,569.803801394245 495.92356545627365,562.5469194514916 502.4237935119559,559.4207880424194 525.6632740325398,556.2918375720049 537.283716270006,555.1372469169964 543.8210233346538,553.9265222711958 549.6767091644803,550.8147478042406 555.3681340443277,549.6173543145344 562.5776952683518,550.4994641985389 580.9344401281516,558.9543021959012 586.5294575559024,563.7000139534231 593.5867435760198,567.9853570007868 600.1612006361104,569.7504891264472 607.3123105654979,569.1705172519999 615.8875149923105,565.8221996623095 633.363875405025,556.1519717862532 651.9141467098833,547.9787333859058 662.9475703074577,542.0531946050089 668.843035510468,532.8350376084128 668.4656112652834,525.0165499633388 663.2536289264146,517.7169704151692 656.8684809277929,514.2378934437369 649.6871019635631,512.8946740949513 638.3006142850323,511.8359696082882 629.1292691338258,515.8340009869436 622.7870807959874,524.4264815534689 616.5711189288003,529.1970953855091 609.0331315622639,531.0347872398199 604.1507324475194,529.6627276544342 598.2575565916412,520.27488677413 598.0487887681702,510.9624093617166 605.6652911989652,492.4003793425925 603.650407613546,486.93777535392337 600.1896671221052,485.7403197768165 589.5943307067162,490.997061487421 583.785581291402,494.332838341188 576.8663097451308,485.78347505673855 575.7812714742103,476.9288398940622 574.9116448592796,463.0006922761754 571.9042303521666,435.42244567291857 572.0882045035157,426.0491391035789 571.9686756301405,411.8650085756175 564.0085542884639,400.54150704446624 553.100261209013,401.1603781855357 544.2568279154225,408.08897953863675 539.4688849540104,413.9686017662468 533.4331937025122,422.3896952275928 531.8204692755482,434.29826789968195 531.1267030708353,441.53427083778774 535.4616702568479,453.01838491969 544.4025115020995,458.2378793620693 549.1493283798192,460.2899902287551 559.4917277256617,467.95785754445376 561.4191565807489,469.6895474221827 562.602549542401,473.3688761208135 566.2625809831517,475.67507083495616 567.9542928607401,485.46143945850497 558.6027947967607,480.02879710360196 555.4909457509442,484.8066964063986 549.7194304970635,481.19194142937704 548.3698641137195,482.5145582393186 549.147173666115,485.70661824829006 547.6298490711189,487.31972951997216 555.2966803586281,491.7188971796569 551.5143852712458,495.2817888767919 549.3259309622168,495.1183232394078 531.0010550008232,495.5092991008953 524.2606421915292,495.2742483874342 517.1031488946891,496.11141241954965 513.5398213390204,493.84114066489315 510.8409603885296,489.0486537307935 506.32809499021204,483.4064148004453 494.14949944361507,481.1943437018456 486.7785252193847,469.6928923587923 487.58474192057736,459.41304729100636 496.27589624290255,447.90340303878384 493.7663176420317,446.77853095940475 481.22726699097495,459.19496373396566 472.5665916056414,462.301735987544 464.10051334210294,464.13691517494976 462.17737013952103,461.4242713009978 457.60867121366897,450.6040828575101 450.6562155753306,438.7681634746856 446.264405001372,429.6989596704137 440.80427767674655,413.02767606299756 437.38350582973214,397.1006590750884 434.7201567573317,381.4219203286309 433.85746293980804,369.020234140879 425.37301380374885,354.4046551789736 420.1136145888213,345.6736226698249 420.8912660560088,337.91735601095536 423.1824136335002,333.41038418892526 435.6734748304683,340.8923032844093 442.2003774152954,341.81073360673565 438.32359180671943,325.91120868001633 433.66882079000436,311.6440313798796 437.17415709136986,311.5934063782237 446.5916773373403,309.4538682949244 445.4558315826768,295.74846395314285 441.4707030220542,295.45645014842114 437.4769162148268,291.75612886698127 437.8006141017502,289.947095352136 440.739072252889,281.96643714193 443.24651209552184,280.1620872639577 437.5060695456586,277.433996727204 436.0550135756586,277.3290562661681 431.4854780614841,272.4457505499071 423.98863270840076,271.54197561681326 418.9168722063833,269.5795544314881 414.0470273932889,266.2686463338264 411.47320398853594,262.9081046365734 412.4077614241566,259.1621141194512 408.25185497852476,256.3420838921751 401.12756185071925,256.4845583636626 398.0178370337051,255.02872267543705 394.779260411035,256.14884359079133 388.3287573426419,255.5104774675326 381.25079180023323,253.77950021052368 379.6404636929213,252.7024646036357 376.7121658489957,248.82238686131188 369.5279449266734,248.68959806643375 368.3447326649319,246.38053448148037 365.8186535154132,238.38372004243604 363.3204353626253,234.9299611271017 358.2204305395712,217.701791722032 360.2045311234665,213.60776979266495 357.2007047286853,211.70222706644756 360.3461964782331,205.59792730609422 364.3052273954015,207.74294107347214 369.1937948460689,198.18158810264254 368.0084873116374,195.499206300624 376.16807084258454,191.55512237081746 380.40879453741576,186.54101897395788 380.2785466195131,181.7200841829739 385.2124277269621,180.6801348473963 385.6913097338313,178.07848194657083 397.2456547574599,177.25380464066052 395.53511341041565,162.80706870123174 385.0821972476979,163.45056222237656 384.993807257131,159.4728372153079 375.76972977282355,160.0015818705274 371.4226782301878,159.19897925471435 368.83479445258223,157.6801332090149 366.74441939877846,158.3014530904817 364.6541085795547,155.4513561956428 361.3499323582182,155.14920180471677 356.4038464279571,146.81651225086466 356.9522938537863,144.02165052419093 351.30367588649506,139.23085932854485 346.72447407586253,140.1068228215172 346.11544803355906,136.7216642269043 346.6146480817715,132.21296733107692 345.5922887137708,131.93386115735325 344.5518876378183,135.23840928481275 343.0442859105742,133.30720845722567 333.5078299262546,130.62201017764926 333.2134241892187,125.00746483552803 332.58672876974913,123.58156321277886 336.47619395424067,124.50969687488009 335.22189934759945,121.65907005611598 339.19931208058495,121.00266613655447 339.07585882925804,118.7421399605231 345.0705893972096,117.01016357539459 347.0402428842598,114.2916960093529 348.77143741929785,114.45105815939644 349.8747437742449,106.94664540988401 353.1926536921121,109.23660495154525 353.57640638034644,103.65816387433335 358.00769592098396,103.41469194658157 357.96798365020686,101.31492365130339 368.87495237868933,102.22567397971557 369.7122938889089,100.80500345419193 367.41383719894566,98.70269877334442 367.5377401497377,96.70070626025938 372.5122793686041,97.751089091979 376.6624050807846,102.85976533976964 376.30384687723756,105.94364835410886 377.18855396094233,109.79583903609682 383.14447458529753,112.65761838874994 389.9937425260317,113.36527032293941 397.3045300800744,109.51411684890797 404.12920078663086,106.6797335909771 411.7314655646565,107.12201918226594 418.8299869943036,107.06914478884892 426.9698333219325,109.02713135687213 435.3323213827674,108.44309404490377 442.6602192942767,102.54779000914607 439.56931235610483,97.76934806942461 435.4768820682461,95.02609465339015 431.3912523408279,91.26856116016279 426.0361374289525,88.26431926249415 420.9558556390638,87.55617793037788 407.24196380136055,84.37284599103987 400.5576028600787,72.52801193816367 401.15369870877095,68.53693527091446 400.82675451862104,63.44505094609599 404.7039442622971,56.18668545285459 400.380632528507,54.767277712276496 403.32958474298437,48.51690252378262 404.91474676014013,42.809234693927124 406.061517542435,40.650913387420246 408.3166587742749,39.83112333857946 408.4486099417228,37.14176073620831 403.9662459611772,35.76886852586824 399.30227005991264,37.21706475546557 397.01232602914115,35.664025959066066 395.6215934614909,33.05501777529196 392.6311727340368,30.629054938051468 393.36271185291076,29.58636614023567 389.9216299550891,26.350856433566605 389.2234843969446,27.148880833446697 386.30119840896015,25.522036632854338 382.3360399173073,22.01598732662319 382.9921723867039,20.61079518312397 378.2267315668435,19.64805134628989 379.3372960623695,16.093869874942243 373.69441761786396,15.467971975163437 371.3635537934384,12.517989037752159 369.9679164756122,8.591224367175982 359.40528759113414,0.30992023793737644" /><circle cx="393.3424672416662" cy="595.6206461921524" fill="rgb(100%,100%,100%)" r="16" stroke="grey" stroke-width="8" /></svg>