<?xml version="1.0" encoding="utf-8" ?>
<svg baseProfile="full" height="1024" version="1.1" width="1024" xmlns="http://www.w3.org/2000/svg" xmlns:ev="http://www.w3.org/2001/xml-events" xmlns:xlink="http://www.w3.org/1999/xlink"><defs /><polygon fill="black" points="603.948402850448,49.23510087236025 603.1185970621408,50.21024573586703 602.7719482194469,55.2596501830908 599.6074795628975,56.255897157505615 594.9071721706835,50.54006584344404 587.6235755441222,44.56091680220425 576.3658470843679,38.64901371159442 572.4577108975066,34.78845248944617 570.690157274273,28.58174871281608 570.5392957559008,23.78200626699163 568.9166854701778,15.943147360123817 565.9053102839796,11.066147535613709 564.085950347346,9.644064036620989 554.1358255015733,4.825597186526693 548.7384365191274,0.15873759586099823 545.4419128393556,0.0 543.6286596842069,2.727799101788264 540.9461559911487,8.967208679600162 543.4598819163872,10.114152373336083 546.6223503005525,13.986261029763796 547.7203380480017,19.003094114899113 547.504709411773,27.25162857567068 529.6911998261124,27.177136047170848 510.37146075360357,22.599029168312654 496.80320507088976,30.533111746819486 485.43636104800447,39.51696133184441 476.8597331234773,50.62434390229134 466.6754097465592,64.50496003365242 452.5973554242214,75.71611385585129 434.76444998054944,88.08561298936888 420.0800661400626,95.45796694168712 414.70282488993496,101.03294479569524 415.01046806123173,116.36700981552087 428.5332098371707,138.06121920211137 439.32498255007766,158.1600063886467 438.3798095739899,167.49607638463192 436.9279558661796,176.2871476518602 423.3454334751838,184.18577209050227 409.680976318329,185.5176708923475 400.3842186281915,186.75710045041308 383.86915100822614,188.03199667416186 372.91898911921385,193.33839526531858 359.0365760336961,202.13115949284668 356.3463227742077,205.88793977663715 349.73230593896545,208.0349929571106 342.8046628860143,206.63041048205253 335.6146497818086,204.2255038392268 324.5779015144093,203.1114571499786 305.9940105007746,203.15687592444817 297.9012054637913,204.31560820366155 294.5996522167084,205.32258828252725 286.1317680455261,210.01535497064697 280.6914065109233,214.50662381085147 279.44438159440546,225.16162865797492 277.505202420682,226.62561676238295 264.2480779924306,225.4835811992557 254.17882103317362,224.08702616100584 248.18369841324107,223.66018187767156 245.5069407009249,221.38304435193152 242.77973633355916,213.7436009031925 240.87732676998286,204.57036082971854 236.19968832749743,194.99959217846992 229.5032035197772,189.62177545752695 222.39889340101112,188.6240599659344 211.4137003196772,195.85864079480712 206.45506212944318,202.58418858399966 202.8654581592913,213.86309023329147 201.95001959989963,223.1519952727332 197.93785689622894,226.56270591097154 193.70506442006436,224.03671363151284 190.83028142762376,218.63364199295472 188.22096985139834,212.11860805550236 189.19622288853972,201.87454265873555 193.61781669538783,190.2107275144757 194.60503342697683,185.23704578430113 190.73717320255506,174.13095078892673 186.9390656212016,168.02171377863647 181.21438819459075,167.18185421937733 175.87033178341824,172.11333744462922 166.57476949224787,186.6883091372713 155.75156194832735,180.96583557790086 139.49478997625766,170.2523457147622 117.96338732011274,162.1680399373961 105.61772299818158,149.26423235480183 87.37251897468052,145.26526290845538 70.90494581697844,148.89828625474343 38.466087529441346,161.88812917887844 31.336202553500833,185.3377199883596 44.10679437480914,219.45769596758782 40.67451932945392,264.49309791246503 55.209471659891555,285.9937668720979 76.89733864603924,296.6433705454914 80.5797856961874,318.22480817976964 116.7053537232569,336.0050158824539 120.06349258835242,318.15602020375627 128.68213943616604,310.49321170818973 137.69144236602625,301.68118815314244 143.53196461026465,298.9345561500759 153.98610738004848,297.4122889654283 170.93400291748733,299.18698276300245 178.61372505797053,299.2267648634621 187.54924244012923,297.54653480386435 191.1119564025887,292.6948361069451 193.485409887103,280.5796644455148 200.0709232915319,279.2404004966477 206.67501092251342,284.69047503847526 207.2646373451224,298.18493989334434 209.92264136213052,302.52164862215443 210.20748732812055,312.1750621296102 248.1738045029985,373.2592655665012 299.2106060928007,410.11696280228887 295.64129859617594,417.697260172832 290.41722144972164,435.73916861279395 287.9226554361875,442.6559984805931 281.84930604559383,450.29939556044087 271.95124897894607,457.6909319616756 265.5222446036674,457.10225729440526 254.1977873230652,451.3319278962525 250.76678698151179,451.5215518787554 246.6991237900036,455.6591345041952 246.9615944139188,461.53442975184214 251.66325797627886,472.77929340862397 255.4707858461037,486.9576449481765 257.1029799865669,501.9233893086147 257.4402387105787,510.9750330191972 256.288279206146,512.9947864210417 246.41754798302424,516.7764836047894 235.18920594672448,520.1100537508039 220.7966497439779,515.6071098490926 213.5503126379773,510.99156937417047 203.68002470498814,505.45384673278943 187.51145908394386,500.9477506807534 178.01491054231184,492.500928094841 172.39537637925403,481.1462752783116 160.7627003716729,475.78988605452014 152.83032851176344,468.4991375648734 150.85001554175702,469.2887619858749 149.52817711352793,476.33149163228586 151.35539515853992,484.886180892221 149.5721720501287,485.63126372764066 146.61599614132766,479.4313361913639 144.3691770096125,477.5913387652073 140.2769571938631,476.8007129139784 135.09683761566575,476.8731744999561 132.055319694331,478.14381394728116 127.60317560631464,477.61520631393864 126.37183002386931,476.12022066648296 128.02853970077828,467.04671317775365 127.97279958400597,463.8514673482398 129.06523630522298,459.352275437598 128.7953724455479,451.3950583965433 127.03580226270051,446.7628645910953 125.5648655017362,437.10097220536977 122.41062999562048,433.14109619275314 119.406743336292,431.0251672694552 115.34678463207537,432.62951589886814 109.62204201349228,433.43175606732495 106.0199854562,443.02027054662506 102.71887741700519,453.7490549436726 103.40161877531358,457.9625835254759 100.70521817637965,462.46756591055384 98.81644059805701,471.71839730057957 95.82285717849064,475.8845381709856 93.79225795624978,480.0811366427755 94.87543686202905,483.4595156219983 93.19296596342163,486.44142899948804 92.77766029666107,493.14439720300766 90.4290290758021,495.3437256127911 84.50851826113168,496.3430445524996 79.58328287972573,503.7204016975189 78.40114635650808,512.0564102909377 79.5433139286259,514.1615139023265 79.44884429624443,517.3931064582213 36.47344545642736,566.9210524974542 36.30388290640443,572.2126382041274 28.34859013205312,585.8562414669557 24.135085335108574,597.576454094504 17.53566287186912,610.3913033501212 16.79838443821102,612.5537440592909 16.0995604315392,637.788864941266 12.618703789694806,658.1357296811186 7.341551721709064,670.8506740416904 3.2822559962528257,687.9340017543645 2.50428416399305,706.023295956524 8.239375663011511,718.9962322326785 7.751808238854605,721.1468929400579 2.3444741920069467,728.1499163525898 0.0,733.5782395616418 1.5314382272733296,743.7405585684738 2.953727319747314,747.0623966155977 4.706561880598825,748.4538071941747 8.664658137949893,748.9365537041738 12.43874271156783,746.8516446672662 17.274442085055895,746.0036447413668 21.807248251257825,746.0844009450012 32.82728407916241,750.7000076076833 38.0494960575747,755.5947403542548 41.30537153095295,757.3169522226503 52.33851046660809,760.7045457196975 56.6541152398301,764.2229710237 63.557760925135895,773.2759650735845 66.31372102509735,772.7846619805774 67.75126681674656,769.4439842003242 67.96882447440015,765.995941234806 74.04225862206638,755.7381356629155 74.85564216280267,753.6064437437919 80.95605631716248,745.5979656547395 85.51029317329721,744.1875547055783 94.98103990995027,745.7403615979498 101.23965155602731,747.4052507234824 108.67900109805016,751.8288700683147 115.15670483904026,751.8227225219296 122.62933228244555,748.5965504137727 126.40222629473142,747.6004108619808 129.46642162909419,751.1025559753532 132.313909749507,757.1723643031303 137.38106456947077,762.368395423041 147.8096575623205,768.0033021814022 150.14282276030056,767.5178457441418 152.73168389815044,763.5854565522047 154.57980501525597,759.2848874992026 155.23229104480637,745.2760997745801 158.89946516964602,741.3961897258514 164.8168901305795,740.7288884402042 168.5947686245091,743.1361386377157 170.30470398117404,745.5031569796882 173.7629144294207,754.6445330436525 179.00757890075877,758.5862575808148 182.1819808772602,757.4403807695464 183.30887034793813,751.4444879367006 183.53156594991094,742.552184025353 184.15834966055837,739.5560482448668 187.6725428633282,736.0803458088203 198.2741414969879,733.7662406130991 204.01357383116908,734.3198833330632 205.65543631865296,739.4331486533478 205.40035193862303,743.932584335136 202.5525810018655,748.5112025248001 200.3134861589975,750.0907166449233 198.15053823243454,754.5572543643787 200.2318379592267,758.9989514397673 199.2617295975422,764.1717005124651 193.39418884900618,774.6012655181203 186.9019581861869,780.3027977187314 182.36943947871328,781.5845637962392 180.61881486462494,786.8593319749161 178.89546909895313,795.12740444458 179.30506759252125,805.6883324650369 180.6681357247875,816.1210242191344 181.67373128286857,819.575268783763 183.07248301487297,829.3247920047112 185.04509299288424,832.1105340755819 189.7916492291991,834.413293642282 193.46659218915198,834.4559449212143 200.9856069016192,836.4690965851591 205.3589447350406,840.0501617998966 205.37582182237063,844.4042189626444 206.25168475866036,846.933642553847 210.22949480598677,848.7451468378977 215.67476193436977,855.9325501339123 219.38121034747,859.2790191584737 220.8174654262248,862.754767257431 218.92611049234634,868.9563239543997 215.68195941092227,872.2298597067864 207.93574916999737,873.9712636450101 204.29719138259298,876.2502840443469 203.55419411310035,879.5014977874515 204.57891058926896,892.0052813687815 206.2217446323779,897.6350741258105 208.88434388341298,899.9090554305841 216.91875030558313,901.0461708155935 224.39494002073394,900.2558977329123 231.06513094331848,894.44318231629 240.66000140535067,888.6411949232204 244.66928858613176,888.7448966939469 245.4677232080737,891.3029894503508 246.16106036101917,898.3575024847606 247.84102696808202,900.8160767134138 251.6014900786749,903.6323174596462 259.05133377648724,906.306037647308 265.3386666701258,906.595430897767 280.6768266924445,904.9620441586255 284.511775222309,904.9260808781273 297.8706917236061,905.9651418741979 300.1742702201891,906.8571785003587 300.28738694449504,912.0341559322392 297.94059801692134,920.5580789830927 294.87461897416273,927.0597941983955 290.9267979573812,933.3813160941468 290.87759986640623,940.170733421473 292.1521578969569,943.3255257559134 298.897143271833,950.5608540969191 303.1893135419482,951.0180187776023 324.37048298833145,951.0964839524947 337.6191175911285,954.8587302052717 343.58501585354054,954.2683574701161 346.7445384939913,952.2893126844044 346.0370963217806,948.6818497402389 340.6991016624197,942.1617953809092 340.7029531446141,937.2321658398537 344.0643087435607,924.5334418557078 347.5790473885309,920.5287546588518 351.3931781275893,917.811981001092 357.97447705069857,915.3678577048503 363.6299297919004,914.4096232541681 367.0072460883083,915.8615359607558 368.35315035517084,917.9031120771232 373.940983254502,919.9708453782998 376.8040592451447,922.1666192387147 378.72146904384795,927.6586053733163 369.6969870858407,939.9264416436181 367.03604089124497,948.004537561321 368.03408108309145,959.2811188795419 372.2415155824001,961.9541090192134 381.7907642922294,963.3629153589895 387.59660788721686,963.5417884219939 391.27772823980024,961.9878154015723 394.0661316147874,957.7590840109444 400.570094629649,942.1777294431774 403.82000288961626,936.2944428388058 404.9448731921406,931.0082124197033 405.149375138882,925.2877303056218 407.1702208402704,923.6353675987991 419.3454883599878,919.2545172926905 423.5304780838102,915.5540001026166 435.21692970828394,911.0273446105614 437.2209724416907,910.7758612430946 442.7123844289021,912.8988116502563 456.6930314925076,917.3381368492301 463.2697436254264,922.5275600549289 472.0877807997189,931.8267652714885 477.487536042236,934.4365158076026 494.9404450168445,938.3952976691385 496.973446399639,939.1341722734085 502.86969940623715,944.6099416245075 507.20565347714745,946.0875828229075 510.91025500737794,946.1872470774214 514.0933911220873,945.0243409749272 521.3782521267605,938.7695156096553 526.0563338452895,936.2163087152412 535.7603410431295,937.9568331090113 538.5924658837772,939.3743908420703 543.5146569158622,939.6997713301156 553.0354084788476,930.1074453598875 568.9791807516826,926.2464660530354 570.7500409541426,923.6459916828137 576.5579807329171,922.4921828909556 581.4036436360354,922.3960912842626 586.7301737659847,924.5823341530494 594.4390812744285,929.1514523542035 601.4448643981241,931.5969948263903 599.9867698132161,939.0323419030434 600.8690509308672,944.2192561616874 603.3838169516645,944.8286536769513 606.2487129180131,942.9216910464752 610.1731138019952,943.6280338913539 612.6731049337282,946.300908757426 618.6671188401771,950.5893388030198 619.9504159424869,954.2034293914935 617.0880275176945,956.3163340535084 611.493748283375,955.0638438232689 601.8656139564441,951.5377501440994 595.7537803144262,947.8890303393266 591.8949508929616,944.1060804994815 586.6963237500605,942.0860502105986 584.1353964404526,942.6208218186894 578.7723723138171,949.4836725288918 576.2106801668724,954.4477131085273 577.1721648574193,963.65488196562 580.1717101058007,967.0087119025063 582.9980380425558,972.1851246699767 589.5967102281237,977.023773896552 596.5533428312658,977.7914956440572 601.850353270157,977.3288634970219 610.2560123231644,971.3732422749499 612.8720104659118,968.1585456670833 615.7776531761217,967.723359946367 620.1704151323563,968.5159515730081 624.5427432238355,971.216422142627 627.4971788548385,979.9374691304208 628.7269217535815,986.2071442784093 634.6262590674118,988.796820004615 646.7179471481172,987.8057953233111 656.483583072441,987.6811711147212 660.3658206500459,988.5192746454188 665.8405516731505,990.8218703326864 675.1633669365267,997.4146466760712 679.5615698941017,1004.3523314626298 686.8870916604864,1009.3594871491943 692.3461366954687,1022.6141724619953 699.2109573331627,1024.0 702.5708345007694,1022.5923701397693 706.3609893774732,1017.6683160536957 709.8925129782417,1014.8348848656689 712.2527371493239,1010.8757846522816 713.7018984710402,1005.4725353132351 714.4787810161225,986.3268964831464 714.3341993215428,980.719793941678 715.2194228592314,973.4915611994011 713.8653630652292,967.0232980338506 711.125790093555,961.7483972831722 708.8261564003637,950.3696639499509 705.928197082978,942.727702203006 704.9282325188613,938.3061047678228 705.5597039465692,932.1570610652739 708.5590611288704,926.1602829274186 717.6121384029661,923.0944030826354 723.2435190634644,919.5905555153469 728.4196045559694,913.4369474163791 729.7600729522103,908.5234815811622 733.6494418106879,900.8848822039743 734.4479485971186,878.7025055733527 732.3243697060614,866.5775975782558 730.5585043952362,859.7256613403185 727.3937639407264,851.5484893375651 725.5347177761863,844.9403966067669 725.8864892389432,836.4762370598311 728.3597943835566,825.9958675043388 730.4170091589359,815.502330384019 733.388090991099,803.3080951592901 735.0649134217374,800.2352401213221 745.3137083200284,797.6801686670259 753.4605325233737,795.1613610525451 755.6545192998732,793.0008942516038 757.8004339589928,787.8545428424793 756.9336055330518,782.2647556013188 755.5765077012253,777.7863568027309 753.2283552497722,776.5516451243554 744.9592916023062,775.8482163779962 739.0231221139035,773.1312396852054 730.6535968707983,763.6786833382439 715.0631659792593,751.8333719822228 714.839321422875,748.7017702776755 717.1380095954387,737.3918789568997 722.8104025886876,735.4057342621553 729.771651170527,734.2157228575761 739.0395758927516,731.8510649453901 751.3469136981003,732.2309672593926 755.7681460805725,731.1084926975379 759.2764616851096,728.0444089819182 763.4966693725648,718.0200873244651 765.1688937624169,711.7733690704063 766.4311089845182,700.4388655026676 768.2007660557828,690.088370507507 771.3637369179463,684.5519755799646 777.6860814675675,678.5370658310295 783.4794052884962,661.165405013061 783.6262468708273,655.4414617322636 779.7412530237899,646.703537215179 778.0799032904769,636.676205174846 776.1337282546561,627.1843971782815 769.9920245992641,621.0021310225976 765.2795631726849,617.4608716056002 763.8691581851049,613.8730729198992 766.320258277047,603.8103827939624 768.4146172465688,602.3648225745691 775.2676380772232,602.1107055132586 777.0783592565365,601.0667205559665 777.7549923642557,596.6956299416584 783.1987115930858,592.1791709736374 786.1746794621613,588.694577234926 786.9570893860995,584.7447051560323 786.8597682439262,577.8928376165271 785.0932377943492,566.8966079922056 780.4167840311104,557.0715406238928 780.0818325215602,553.6238782720163 781.9176590220718,546.4270690945882 782.1858165174976,541.7704376840459 780.863849713213,539.6844963240322 775.012320885011,538.177924806728 768.6706240549506,539.2581720297796 762.4441371009376,541.699609260136 748.0851396519425,545.870158386098 742.5669776466889,546.8513386533261 736.6901029086418,546.0150239436668 729.2064340436202,543.790337207542 722.9700450274313,541.1792634679055 719.4622073215527,538.9140396740556 708.7146036460986,534.9605388747049 707.295225340431,526.1677777005796 705.2305463208764,521.3282530566167 702.4014190506663,519.4678413211391 691.1490733523142,519.3482518820003 690.0744514610088,518.5141397553385 690.0303819314317,514.8298525574651 692.5149196898024,508.97795443495215 692.7257679102963,500.9212375868294 689.4389865868847,484.2873616568402 688.1788781061462,480.4205287947693 686.4747680623748,471.7539481091676 682.7835230098325,455.65214468147656 681.8861625196955,447.5519418489105 680.5500154876366,440.9469542141461 677.2124763048157,431.9861857874257 673.3740834741417,426.2863672156327 667.1451521561683,423.2572161620069 664.4392937561722,420.6148836954013 664.1909043068571,414.0503276058515 662.9675803482262,408.8281185005425 661.0958315288088,406.5951567293358 656.8671020550648,405.6799950704351 649.4566742870475,405.62540470817487 647.8657257569256,403.40211630956287 649.323215942632,399.7478463833073 652.3142794334622,395.99297688281854 653.08495110239,392.57645495691395 652.0535730047275,379.28480141245905 651.2912021351663,376.77488469913305 651.6721529708078,372.6879544164228 653.9941939118519,367.9658959174682 654.4970213506436,364.27920713279934 652.4657515484046,358.076442306176 653.1563529405945,352.59854132583007 655.5566501754076,349.92106855705345 656.2020350172005,346.2261842271856 654.6584274135654,342.2295067004078 655.0398182633844,332.8114515455027 658.9737090322412,324.39132457525363 659.6139989724445,320.58628031892545 657.8965057809611,313.1505135701891 662.1506020564854,307.6375694576825 663.1935712469132,304.22821620658226 660.4877902409334,287.20906512776605 659.0390507391352,274.03306357960093 657.9446567164626,268.39793284708776 657.1952952585347,255.10164825385812 656.8696748589624,241.1109900148607 658.5745341296683,238.97483367468215 674.193039629649,234.6708755448218 674.9427552327206,232.62181462910587 671.4116308785489,225.5591988278179 669.7860769436668,224.70071492549266 662.1112611858509,223.98851400789533 660.774485447316,222.5994479154832 658.199243267521,215.95884460508012 655.204098945943,204.9588924620126 652.9162295754039,192.5616890566671 652.9092470274937,187.2326994849377 656.7423000397223,182.2422231911762 663.884374752344,177.33684339517777 666.1262266268755,175.1957312135977 665.8684743771264,169.02780916749953 663.7050690809203,162.82860957956234 655.6593951792416,150.3315767088061 652.959683900126,148.21267258289572 646.9862167603524,145.8848656276749 638.7183474486005,141.43895425209564 633.097746127319,141.45206024875597 625.8725437166448,144.44784377485212 617.8447991364068,146.85989186889606 615.822997646189,146.0022720421117 616.3921016936148,139.85622137520147 619.0954526267262,130.72001109115456 621.8900849827061,123.41114704717836 622.1719517718307,117.8075354708534 616.974601768729,101.11278295385353 615.6575578587891,99.03021288049149 614.1578954570997,93.51051696713364 614.319353358951,71.07494596222239 613.7219416472333,67.49517897776354 609.6537921315241,60.56488310196448 603.948402850448,49.23510087236025" /><circle cx="474.0386213280871" cy="535.5864539414694" fill="rgb(100%,100%,100%)" r="16" stroke="grey" stroke-width="8" /></svg>