<?xml version="1.0" encoding="utf-8" ?>
<svg baseProfile="full" height="1024" version="1.1" width="1024" xmlns="http://www.w3.org/2000/svg" xmlns:ev="http://www.w3.org/2001/xml-events" xmlns:xlink="http://www.w3.org/1999/xlink"><defs /><polygon fill="black" points="390.51458070410854,447.9609061828242 391.03113724290836,451.15437779027803 393.8692565250961,452.03747682344266 393.0383813789406,450.17700853875107 395.1372086095806,448.9270405272495 396.56715422300385,446.9314658180109 397.03055588395574,448.06256104013136 399.37519882833703,448.066666866929 399.67028849355114,450.4268888421934 401.14822824571706,451.1299794709374 402.3174799411466,447.42004790083837 403.84235144975014,447.38187218720446 412.21628936557386,449.0963881761372 414.9447971532168,450.4922168330598 421.88249866084044,456.76951226527126 425.65368431084073,459.80735227655265 425.56997239090884,465.0516490181976 430.4500227587434,464.91921167599526 435.08955950960706,465.8474421552105 437.65276237079115,465.5912658996519 441.07896035123395,466.6503402256709 446.37432143273213,466.43462384886806 448.0708246214894,465.67802116503924 449.6260528516543,466.5174926650103 455.40607889985097,467.0453226084953 460.3018113128927,466.3224881675567 465.7603356507848,463.79098281579047 467.479148988203,464.29892749080807 469.8169553214023,463.40244440952586 473.4488891394083,465.090893925212 475.821033596035,464.49329882198475 479.5393762960369,466.4046820441132 480.46827749796086,465.8598583215914 478.6739191203201,460.37208461877646 489.53412991827497,459.35973639429176 497.6525510088431,458.3828142975166 498.94723542869554,457.2604250925991 503.24835421021396,456.6454432326389 504.8251643148205,457.37632104138913 507.6845009633102,456.8809607837794 509.73857348704416,457.5774231634299 512.29778816827,459.58969744671276 518.118194507504,457.6287439432068 524.9748407914711,456.37416015297293 532.6951341087681,458.3033682450434 538.0636611355152,461.9425945906206 540.7833689407535,464.7186136906053 546.235830551723,464.62982418048557 548.7454361894258,465.74681901608983 549.8893463341577,465.11980000744137 553.9178279565502,464.97462809397257 558.8885956713615,465.9776679229056 563.8155964227873,464.81224486665184 565.4948259216999,467.20709913377357 569.923720261518,468.0092043210461 573.9182106322252,467.0153369137789 576.6260933456573,464.8870456956405 581.2112928172048,463.8534639076712 583.305457634779,464.8320694158704 584.3507761295936,463.97898854040045 590.2284014887258,464.43220387874806 594.3014888322883,462.68125251652253 595.603623373894,460.5282087869775 596.9889530462348,460.7384376156317 598.8771367868986,458.27461430675476 598.1988149906169,454.58104649832086 601.0217691017131,452.18577766657893 606.1688583718163,448.6319278915404 611.9805227052535,441.8494132947959 617.8541637480901,436.94021192968523 626.4209327148452,427.22824587392563 634.5260725686729,422.39527242009103 637.0663982517436,418.81427011529115 640.8271897763608,415.1805700063835 642.5648790719482,411.9908490171099 644.1406840669728,403.9770049402316 645.3953064629593,403.0531038851592 648.3351951857201,403.01094720153503 664.3243530184012,401.13664838381794 679.5654857298081,398.8063248117768 681.8622423724382,397.81878535509713 684.5472046621529,394.35322339747154 685.6392270117369,394.1316620255095 695.2116178271733,395.330317436417 705.197803066704,395.5975144080271 710.1778012038842,396.44940017233307 715.8896202593222,396.72052093455864 722.1613909579513,395.77840305377845 728.5449080971586,394.36358007539866 733.4446411593028,392.4515892553061 736.1944598875796,392.29622428137213 744.6029367423769,392.7681524099014 744.4265599480395,391.1828511999845 755.7747389013373,390.47719755002174 760.9550995896662,389.1108723281876 770.3233331720812,389.0855272723352 773.5616419215419,387.9097428944349 772.9797067680769,382.3064578248078 773.410416503559,380.3310964752245 774.800400768917,379.3476688001017 776.5779045517745,375.9887536881198 782.5984693505713,374.1720254038364 790.8377760520771,372.9241739371903 792.8132855707306,370.44631749041 803.5487374355337,369.3899168728294 811.9497110573046,367.08989181880213 814.7307418215155,365.03387849596766 822.8501390948488,363.0922913404911 824.3186797569304,361.43978198755883 827.8152440239113,359.1915366847543 831.1754863513504,359.2069795168844 835.0214555544529,360.177827820335 841.4670800483298,359.3456353739888 847.3590784930394,360.57495603933864 851.5977263998732,360.23087123798894 855.5444476543854,361.3807962044259 857.8489646883776,360.7066762662781 860.8715819775146,361.41897539802994 863.0379794896282,360.0200164717395 866.4288311117876,360.2987392064633 870.0572350745686,358.41977020555146 873.5680537650113,358.2724553505441 877.6547036996006,359.23523983077155 881.0080045565084,361.40904420515596 882.4130783875794,361.360510272855 884.6301156455952,359.6764699172719 887.6811107682504,359.38336998200987 891.7527187387789,357.52166265563767 894.8033355436427,356.92827510037284 897.2898397791054,355.30798242745095 899.5378269382386,355.13474544173357 906.6992839444641,353.5610478355653 910.0107720811402,351.06850844953976 913.6389440071051,352.45926267206244 915.4276253865984,351.88950608826315 919.8330378465245,352.1858221049673 924.2595775392092,349.69628778414096 927.1217813073895,350.75755655568 931.555860970553,350.98422575615973 936.5552836011088,349.74015435637875 935.9953990152229,348.3320823110033 932.6129891101764,346.9184563321612 929.683619372532,344.0585800199674 929.3968888491436,342.4724567196256 931.7928283206037,340.49670576092296 926.0864955026401,336.0052417204472 918.9204670768947,335.2627988890591 916.6328215930691,335.70152451197544 912.3197553599326,337.8193730955305 909.8426993442489,336.4629134547039 903.3600213798738,336.8742227485842 896.8620161312365,335.69751107325874 894.4144191887904,336.8760157548576 890.459173853336,337.48222194702157 885.9153794788176,336.92285905950473 883.7929043968643,338.8540116288051 881.7576360165983,337.35696186743473 881.4505724777028,335.3520560765371 879.237057151855,334.0570804189248 877.7628463041507,332.02760771617625 874.4693094547006,332.6351310195886 871.7292855025466,331.0125375877433 870.944432218829,328.2785436755164 871.1238656803848,324.757127149667 874.5236117058058,321.57356750324504 875.9230947770002,319.0643793199789 876.7036749843178,313.8745707389728 874.4047490165029,311.50308807091164 874.2258013074613,309.89751956434816 875.5477784259632,306.96434928588417 875.5173560678178,303.6868885183501 876.8620596035939,300.241612521497 880.298481588885,296.22166248084375 881.3387415416867,289.7074920543936 880.969617710841,286.212530492571 881.6087199192453,285.34354718102463 885.8638975697763,284.53416514904654 887.9393961243255,282.0702837037826 889.5562718225118,275.10320915703494 893.2631564558257,271.11307285501266 894.1286283329655,268.5536865214175 894.6109075319047,263.6293132687633 893.7163655836929,260.7624650723775 893.5552754012133,256.8294502584789 895.1653376119514,254.70993521628452 902.1369502190946,248.24584901939807 908.1533159647267,245.5661639526569 916.9959477167783,240.1990598065554 920.6198399987313,238.76437926163692 925.2484489811426,234.84134081480204 933.659004304063,228.38006581675495 941.8959383982602,224.74229560606227 952.0082615025425,219.81210414104555 953.4827937111147,218.16818480974882 961.6143152186278,212.875931612488 963.609452910853,210.44161069027598 964.3869844895445,206.0548786442879 969.1574194827889,199.76603355335214 972.5764133236348,191.0887826552613 971.9633749906703,187.36462645985364 972.5388020447185,184.14797390048795 975.6751088782582,176.21033155321197 970.7837352834334,176.27186439552463 969.7726630514098,175.58231723511528 969.3645887990486,171.34457596170705 968.232453407589,166.40705018763867 966.7020854236215,165.50793783358893 967.8431130595901,161.61652044386153 966.5685433167441,159.45029648037462 968.3967287783533,159.1358303002944 970.3883852883424,157.31738692429246 971.7345389288765,154.98010032693446 973.9762697749618,155.28542447627535 975.8939543476127,153.931670440537 978.9525161914675,153.96228163824742 984.4657272202322,149.59468848855693 989.7487787632934,148.56948876091258 992.6427684464019,145.4458248870078 997.2710208617943,143.71659873920555 1001.6321322558643,144.6015891167167 1002.7796764896187,143.7120622417748 1004.0809880265746,140.2211575019752 1007.6810037162795,137.92397245330778 1010.4750898867776,133.55667855707907 1015.49597294443,129.230957551477 1020.2343968885361,127.1312073801081 1022.3750164184174,125.4222209056685 1022.3148149019512,122.67560334382426 1019.5842182738922,119.55849819380796 1020.8832765459911,117.07575598449421 1020.8958876402465,114.35497382300059 1023.0305279561171,110.71107595384058 1023.3050039501015,106.09030167383582 1024.0,103.138290598048 1023.1305902040073,100.09044665675492 1021.3268120616938,98.73340106594503 1018.0608219546093,99.8081017364292 1014.4985684393125,99.94623977897857 1010.8058380275198,95.69611848924819 1007.6850820605061,89.79223586971227 1008.2002814763191,89.22663989997022 1006.8702899108455,83.9463025616576 1001.4651685604316,77.64854448236281 999.6314191039787,72.66010289761368 998.503092931441,71.27413222395865 996.8748157682289,64.88186912558967 994.6455754569863,57.97545566746919 991.8466865247959,55.293576802361486 990.3520899497736,52.66634812255927 984.4641251721343,48.75711038491488 979.1579571735276,43.39084371722163 976.5962647056872,42.131054514851826 973.0978379017353,38.368384101599304 965.8835637660563,31.605093984524615 964.4459755916284,31.444367904468663 962.1920182089809,28.704006909350255 958.2110547338201,27.382066302709404 955.7199051017906,25.503632139401248 950.8938793360949,23.56403201576768 944.803435126716,17.120578751741732 944.0767915181418,15.684196351368428 941.4154459650019,14.279348549185102 939.1598909395059,11.347164638548975 937.7341225230215,8.36400831584956 933.9993300212549,5.133996792051789 931.1469345568112,4.468470579411473 930.1574382344903,1.716215743268549 928.1861190897254,0.0 928.3321397223849,2.172119739885602 926.7959596471871,3.5502187406194707 923.3461452428019,3.391849589060598 921.0486513253071,3.9568754828470674 917.9941620641679,3.278677409843567 915.7648899867347,6.411990711177168 913.3045751390637,4.849766444401212 911.5894644203987,5.5560741308141814 909.4593364040578,4.676299159562291 907.6634671675874,5.924895613837748 904.3641766531416,4.649491080524172 901.9180258256999,5.043661269950576 899.6032325191941,3.2637977271481304 890.7483148110451,5.880340912581914 885.3303023789126,8.092374632193923 884.9670414155125,10.90613541110963 883.0780159307309,12.164969575838654 885.9629072031615,17.36972233955339 885.9795160126536,18.93503677545118 883.886302321595,23.80137844918238 881.4179196350091,25.906283830765005 882.6400246501973,27.730948356988847 882.4294943955564,32.27454283187956 881.4406733376175,34.381720564967395 881.8249264507634,42.206383222099134 880.3989869365821,46.852771495644106 876.9912453472148,48.360325677780565 874.3842824988557,47.84788972559022 873.5713327292414,48.96842535001599 869.2335378332747,51.18650968305292 867.2620217025486,51.13667684127745 866.9469258536376,52.863384051923276 862.5002705603483,54.63419664542562 861.4910089313884,56.55961369218073 858.2864294292259,57.57947730084129 856.7377860711238,59.496184792502504 854.4461315865843,59.31792038246169 852.9169179278186,60.930787172844475 849.7261469340749,61.79251632649698 848.7932908726618,60.05303909992733 845.5241716394212,60.40244046752957 843.9802914961363,59.803073586284086 840.3772293166516,60.181230234005056 838.4305813931036,59.071690616743126 836.4407463955962,60.312734546784554 834.5196048129137,63.33187196635083 828.9448118268818,66.1870142616757 826.949681467828,66.692915495011 822.3716335712913,71.52424245582529 820.5973105563173,75.11734216466743 820.0990228934832,78.89954406793834 820.769013768784,82.96631351383394 822.5024117816832,86.88040205312211 825.2486954890417,90.94638588338546 823.6461315950476,93.93139782697426 818.9381004057284,93.73356177292806 817.322959121365,95.73459175501466 816.249848610878,100.37667245966315 814.4100792150084,101.10665630350832 812.4410376175164,100.65399789866206 808.0515231335884,98.31826851402775 806.8721588673855,101.28907278523093 800.2089514468995,104.40303945183916 798.2646391327988,104.74814802369565 792.4333887774736,102.82937542355467 788.0538759737929,104.78327122497933 785.1803700994051,104.70407536203993 784.1835372486534,105.7549603247138 781.682816573502,105.88485446230709 780.7312225858759,109.15153187723479 777.8237170205913,108.28088101000401 775.9052057621045,106.75488402536098 772.17119659478,107.19542925652468 770.8913714734623,105.89885621953181 763.0594992536752,108.63631073459442 758.855985004217,107.97427283044146 759.261510984175,103.2535399354764 758.2130086991485,102.17058685637937 752.9451015718876,102.67776866291649 748.9845449850209,100.79281991944276 747.0681153345471,98.47410108032318 742.5220528556721,100.76891179892846 741.2076556373682,98.84669899400023 737.1428950841421,98.28635233931095 735.9399632809043,100.4516142501094 731.0238206800557,102.68009788377026 728.2325667249911,105.64178149926397 724.7509029627636,107.54554723295257 720.6080044898388,107.5435026715935 718.9484380429739,104.78192573568185 716.9554613417929,104.45646622103413 716.1776424716919,102.71135177423776 713.294795946955,102.18785907436984 708.6757056648265,103.81348247735855 704.9768491666482,104.42170352490496 704.4295143465182,106.1273085059305 700.6787186739657,107.13141025655864 698.0143851352267,104.33762515387366 695.5319639498109,103.52535624486984 694.1628019140738,101.62832488496053 688.9175953250016,100.12913408556074 689.7414101311203,97.60003118679413 688.8125772838462,95.78470199270782 685.6089836074776,94.08831594268906 680.3337666910086,94.18651379512733 672.7218658371986,95.24702065841791 668.6668350075166,91.8035013776165 665.3027985564576,93.63508926169243 662.2129332292278,96.83812559320131 659.3037497891316,101.35131037320025 657.3109119158806,103.21563145204209 652.6086213013385,105.42465506867677 651.108247158962,105.66878310282209 646.8867005960908,103.82098310357776 645.352465005406,104.38733109492239 643.6998130003711,106.54609252544094 641.9579038627056,110.27007710048179 641.0765470535608,116.68983370697492 637.9883407550149,116.52508410135545 632.488637712854,117.8908252356573 630.7804589391941,120.9619953792402 626.5329111975722,120.89265134847358 623.8493094765537,122.63990103419894 623.0193212361876,126.94486316437042 620.2303224482886,133.17725392880914 619.4376887384122,137.39194805984357 619.516280544463,140.8441128767264 618.6251723618361,147.32922407444164 619.0944312415343,149.3932542885185 617.1223481260977,150.25236048781665 617.082900437027,151.87523239410177 618.5132363302124,153.0176727280168 618.7345022623127,156.47022698614717 617.0573310531349,157.31470291304618 614.0288464254966,163.20206456223116 611.6734108132983,166.50359053173247 608.2710565535084,165.8495313714069 602.9051224175695,171.50512455611124 602.5159950440474,174.17927165977642 603.0764215110653,177.37127566865195 605.970236598878,183.43782444586873 607.6545889477921,184.41247339997358 608.77274442896,187.84517202047323 606.5414856875443,190.39995623835216 606.3643680167411,195.63274575160472 604.9523902736728,198.31170918881844 606.0820116815875,204.51139954123096 605.5749912371105,206.38864835105664 602.669406675082,208.0798387651521 598.2816774590399,209.3631556379239 596.4889122681086,212.6331541780047 595.031614989086,216.94286505528032 590.9093695917817,220.05214964185382 588.4841324970469,223.04754237712984 586.8286508962486,226.16817746081347 584.3729501916009,233.37767200352368 584.0205256436221,236.07868071091343 584.7150957253255,237.6968807466443 583.8325804084461,245.87477906340484 582.4186178448324,247.73441029736318 579.4531453597396,249.48165876021926 578.1759082497612,254.5836692376256 577.3138180425849,255.19196242909413 572.8412185097659,255.30453520600668 570.8590344155298,256.4503294044631 569.0262723676284,259.8100008036529 566.8472495252097,261.52461929696653 565.53782747991,264.3194339413358 563.1471221161462,265.69434250954725 560.4129124855035,265.5248967576322 558.40738039279,267.26382145368905 555.7066142433151,267.9190500663266 554.0840690395588,264.6508409877398 550.9111924243888,267.297756130645 548.8299246032825,271.54253838328486 547.6785361867686,272.8221770766894 546.870858812075,277.13217435435035 544.9410379457036,276.57657194120884 542.9659225481608,270.9260437149658 543.8559736869516,266.5887605345267 543.6629730462683,264.6808439346347 541.6784388768654,261.72385654005654 536.9143387869213,260.95950458941957 535.107986460371,258.86211604111077 535.743695045221,254.58794316437388 534.3743845386873,252.8557334317079 528.974381737757,257.68905897566356 526.4238957797435,258.7725777600441 523.8667104213228,262.3600524811428 521.9196043452787,264.10271927646204 514.8098753866446,267.5477013829859 508.59100033940615,264.6608081422779 502.92846817404813,264.19512015242356 500.24202545006256,265.2863052143049 496.57277334305655,264.11636547086573 494.59397526145,264.3168706430363 490.4362023609788,266.0362038986026 489.97191640453144,269.3161952698921 490.4688299068873,273.9776472184494 486.2013205303496,274.45448582224856 484.44997160920286,272.21977845653953 481.8558765089419,271.7021702156985 480.1658415693697,268.4368342981435 478.52712073427983,267.8987102538948 475.0256925639653,269.75552394501324 472.86071835988497,274.65968191048773 469.949556633199,278.11569118080536 468.2697737084761,278.5974846778022 467.44734740225147,281.49316782674487 468.4387881872543,285.87452444821963 468.1349865534451,288.25501038118296 466.36127777435473,290.6790738854106 464.92598258532445,290.081009493138 463.7007353514473,287.90174110859505 460.36355849795814,286.20826443932697 455.7930989527742,285.501497010968 450.82958789410986,285.5770760235698 448.96491042551554,281.8159409766745 445.78518976375165,284.67721918090695 440.3924610138993,288.46815482337547 438.7513509425373,288.8726717579141 436.5606581083131,287.5452485011174 432.68277427054426,289.6399397286126 431.56756361403427,289.0643662808467 429.36028326301806,291.88757711961557 425.72444001555505,293.63533825972866 423.5608298827014,291.77633308241445 424.87914353022984,286.91789884619936 421.6333101106718,277.92002768930286 418.8019760129653,275.74230350928894 418.0827173667401,272.9733283595574 419.39447722372194,268.61253109040035 419.3899172123414,263.97514905579783 421.11975310209294,259.3905831644397 426.92707748239724,252.99516548881252 427.5934069853422,250.43211764927332 430.19016846030433,246.98255053126752 428.42141065751514,243.85709366980518 425.6848916775848,242.68449754355208 422.2172112054527,239.72068264984432 417.68262895597695,239.1537612909898 413.2746834346212,234.816741053922 412.9691731889891,230.87585724993676 410.29670981666874,226.74917948751795 409.57191994321744,212.71435663199202 411.29709123060746,207.895246775523 409.0441439538741,206.10909920671713 406.76781018512986,202.37359224955378 405.27016998738446,201.70932276959547 404.09720398823043,199.1584528499585 398.2432598470986,199.85323176686745 394.7389678291372,201.93566974740884 388.0626303618794,207.40039633166407 384.54160047412165,210.62786575857217 379.1996253633593,214.23489476527823 379.1599833201998,216.3801586339864 375.9234993328091,217.91368942101394 372.43958078660586,223.41580367225674 363.18928981454076,227.01110343446123 357.80368288597316,229.82831521128037 353.7908298810871,233.12959154924147 349.53465720376147,237.57907135020582 347.7144296423766,241.6689823092048 345.7624605825237,243.40727177938925 341.3444114476725,243.43979991690605 340.2464103410514,246.4810323586371 338.42437545484444,247.4775152909566 336.32505129558257,252.16232569253975 329.46427174740194,252.38338776223338 322.73204493133204,250.17414299210952 315.86910383879416,248.54630732561793 309.6724656973058,254.44753953927386 299.9265186212665,251.99108337892267 294.2129380026335,247.63913992024038 289.2093141875557,250.6690197182146 287.2813738621112,250.28904659060356 283.0266591277925,248.2680508457396 280.6800197639604,245.60853774969348 277.3286999897725,244.0687784304555 274.471734355318,240.8251009819868 269.4436350982096,237.50495323772645 260.41174923590467,234.0942567872271 258.93618631399545,234.19327957795804 255.57845772494412,237.94522233181 255.64145532382665,242.20478073959316 254.70438955028382,249.14037700048675 253.26559804521756,250.65662078042044 251.0591169421231,251.31900291821626 250.95138022162155,253.57962266044206 253.83624047035383,257.0614341998855 262.50064119141126,266.1079614527083 268.1463046337967,273.7779225324532 272.6209022934916,276.5481318937175 272.52513774030814,279.6847954439496 269.7199317901165,280.31275672038555 267.32343217720216,282.5465371214699 263.8707123551875,282.76440749114147 261.2015642054635,281.49761961777904 256.5127386914229,278.2869995980478 254.0695424986911,277.60440605351994 246.41848054361728,277.1874013497044 240.63529578727326,277.3014139670395 232.33315367627145,278.18455894790395 233.1714381884924,282.44774409543766 232.27298166399362,286.79872779412744 227.57821706255407,294.62039518768836 225.59727262234117,296.44307895325653 223.1079254662359,296.6193199233744 220.58495084807433,294.99268882940726 217.01994234508425,294.31812252433986 212.9430012077089,295.4890839925507 209.1726723070644,299.10426668504533 203.3195394255262,309.3831989112475 200.87628343766934,312.1508164832858 195.60227781088284,314.74495030071773 189.7633962981948,320.31129453370204 186.45208887075748,324.61827242107677 185.00221585181316,327.57804248214063 181.38408732341244,331.11138877223243 174.90062983963153,334.44848456519946 169.46475122721145,339.42107958533916 166.60347549379915,341.6082637740535 164.3160215173258,341.40543330637115 159.0172198402475,337.22984031603744 155.92214867047846,337.54108616073404 154.36194736286703,339.3076806323346 152.05269212893657,339.28916352365445 150.81862935942604,333.8498723346462 148.7579749470071,332.52944262143035 143.4729220075048,333.50897638310244 140.68370218789346,333.0565207779099 128.51189218646937,336.3258844942518 122.48093981675319,337.41306674801046 120.855805513333,339.1203156997859 119.93145367066776,341.8590910260948 115.23269572039976,343.535418428679 112.14464702848335,342.9630723298603 107.05962127523978,340.15157453399286 102.66636554423526,342.0791042208974 100.35963193551562,346.43304966525784 99.5919083874149,350.5345626504586 98.63603370818097,352.04332308545656 95.09699211901459,354.73513549105735 89.11294008803807,356.3442535972032 87.09768744647764,359.1647344724811 94.15691350381476,362.02625624892676 93.86507671056619,363.1797957675341 87.41540978721144,369.8411378675504 80.6153307640378,379.40211942340375 79.91907526558985,382.2416151247422 81.75117602262482,387.158341341863 81.40150980499679,391.2649069006451 79.67517079593758,394.57984161314835 72.83849690866597,398.56998232465355 68.9681836795168,402.6343134074459 67.64278094055854,405.0952094208701 66.17576447063209,412.8399168328368 66.72787590430286,423.79654347188944 72.2651875139561,424.3260020080229 74.21658631683928,426.5600374369769 79.00351522606053,427.50867393712724 80.6682219527967,429.5420466738865 81.11096637598601,431.50480343213746 82.53920133655635,432.5709095135594 81.65870323322318,434.22737953663705 83.25094305478963,437.20680267587227 83.22786009455987,442.61293187127774 84.29055515116285,444.84680892206114 86.46566366673895,455.747891828759 87.47539202618215,459.0705002797571 87.82361788890844,463.05219322487983 86.81473578129317,464.9637716377487 81.86338084142706,465.56200746242956 80.57588556566103,466.3817928728753 81.05790815134533,470.34801406712825 80.14386668877033,472.0454957976955 75.65679601940025,474.42208994031336 74.18208103251544,477.6901885928042 76.013499028457,480.91517345549164 73.45604185904475,484.2555734044843 70.9440442932061,492.1732560319085 67.28454259594648,493.6117832052504 61.69449881431592,495.4194241208881 55.86311256967578,495.73691096316895 47.11373945389594,497.07449769453046 42.2029643932799,496.2533559344931 33.08109339142806,495.2188870081796 28.088093454898434,493.6971232607222 25.762555215150723,494.03810861066825 21.043586330054872,495.72386879348653 19.611038725009536,498.84193707774887 18.791827413324096,504.6791016565819 17.338877888385028,509.0495724586434 12.86711303671723,511.91507516000894 9.581970347506122,513.4436977831365 5.479497008297008,514.5913751081175 0.0,515.1790895454665 0.5271945527933799,516.6938765339414 9.602642363547256,524.5149253388622 9.773505000908226,526.8720082902207 8.018477733948464,532.9291377865992 9.564918064205722,537.9669472279916 6.85889453446114,542.7398806654744 7.038922540998232,544.524648597228 11.303373375462012,545.4318884922621 12.63396261179142,547.7535183846248 13.146853674720369,551.6373628472901 14.25830177421919,552.6640516289693 19.919404958332617,552.5255091154345 22.558244256729587,553.3863912296933 25.697372354782424,557.1033364931777 26.68093866441586,563.9588093372663 29.08631652261222,565.910526179802 29.036153567553143,570.7050898253085 29.93133019738144,573.0882230401422 31.837324090703007,574.2588176834145 34.993276538295476,573.6058698317981 35.78687499802515,574.3821302909232 36.36746292526605,578.3569251478967 39.12527760737164,580.0021353921359 40.92093938731261,585.3933570230712 40.53085742899499,592.2772203796421 40.91799251748999,594.5040843935936 42.79517195374511,596.4777245196161 44.50015441916564,600.3216084703349 45.13499054755307,605.1346739051419 47.30277749362546,605.8740530215805 52.41320199933741,605.839118150294 53.997118043299366,602.4931777830827 59.388109518785406,601.7319720019736 60.249910948848516,602.2823233021526 61.73654141501806,607.9670984595743 64.00640220621524,610.6356910181474 65.08604586160301,622.1485040664793 63.91197630795883,628.7619032406425 61.052274828232996,633.4424002688623 59.65336451818821,632.9506600767932 58.40302928967146,629.9126859626047 54.99588067022768,629.8679852844598 49.64172278575213,627.2583118499495 48.439317108971906,628.5584157165481 44.69022902990209,628.9995195452827 41.981675184602885,634.5036831756013 42.18834952843557,636.2309646961077 39.689875452840504,637.1246661907134 38.079157816976654,639.0067438060985 36.032563065255324,647.8975505772069 38.760548206134004,650.9515216797956 41.81700694710753,653.1186856021529 42.21171483104862,655.6945000774215 45.370950277668264,659.6372604809907 46.750652091520486,663.9827315295793 49.31575561645817,668.5351761543573 49.410080487356815,670.900349307225 47.54153879551084,673.0681425328949 46.84504527558543,682.5557701733769 49.35264108142733,684.5655220832411 50.23564846809416,690.0980509181362 51.489101856814024,694.7435439128225 54.910857009147215,698.629481748313 56.69371258696547,703.9969304846005 54.816301472474166,707.4727211902344 54.72302115851994,709.7641162745088 59.39444925513377,713.4305051342648 65.04349533267842,716.5947296927902 70.74358646541378,718.3020745215679 74.22394350611575,718.0395927471804 75.28666424502103,720.812455412613 76.73118706630402,726.9894154701736 79.38740308086398,728.8205022094617 91.58083774729621,730.1778111077326 93.96434813305652,732.0514019625484 96.16041637412198,731.7798648201501 98.59987426888031,728.4441059051323 100.65339683849726,727.6469427027434 111.67989805350655,727.6357129461506 107.4683719991503,716.7418575026531 111.33427431808065,710.4155403813636 116.13690996970271,710.3769255299867 117.29222652160593,709.6079421992472 117.9587964728241,707.0654080914032 118.58429076901936,701.1089787041948 121.22553706092064,695.5822498190116 123.25949362696876,694.0997311438368 126.93505480851536,696.0436976911607 133.23147848543556,697.9914826353987 139.1863588866589,699.4113496142819 147.01660623422117,699.3899788550818 155.02715017109801,700.5640294555291 160.79930704118334,699.9125807351096 168.19751166600514,699.9642878545422 171.65280485626258,701.0522158819219 176.79449965515516,701.8269631253138 183.44541666784735,705.5281674113282 188.78392888199298,705.3022591919948 193.3784246766348,704.4148676484666 196.96765044933727,706.5256886515045 201.257213025802,711.9400220237303 207.91874089745895,712.9325377415269 214.2682398597516,715.6239617338395 216.91073764035934,713.3327477097301 219.55140738080277,714.0376491547561 227.46743648407767,721.2128177355737 234.6835393767448,728.4040118924164 238.37760291536645,730.3286822940172 247.8561215735007,729.4584319104088 249.4360657853138,729.9858159388866 251.36015307311453,732.2751429358949 253.46069665545355,736.1366308810866 255.04312421075576,741.2361862966978 258.3653278585034,741.4233954208235 259.94847485620966,740.7210228027399 262.0463233189137,741.4294754423111 263.09867808700295,743.012569411045 263.52695101806967,753.1160383635746 264.9421067187318,760.1263094826371 264.1566593034838,763.0343935202889 262.22010668572136,765.664226178088 260.2701054820574,769.6779844529486 257.76193145545517,772.2599326295219 257.37890368743655,773.6716239223142 255.44647605267178,773.0286645263545 250.31010592799356,778.449365590917 248.6408402658321,782.789901476923 252.0563797687693,792.5018429163466 252.86919815718417,793.2677688615175 259.57196265678294,795.4872957962257 262.5351032535367,794.8231756911025 269.6096911474761,797.1164802050644 273.48371434232234,795.199570392788 279.3547135160295,795.5383846672398 280.4639329726664,798.5874765623138 286.66342099353403,803.2255696840788 290.5052441523616,801.8015490815797 294.21964573696357,801.2658617921429 298.4719239244139,797.4317047192236 302.68196862353705,796.3111322629588 310.98532229545805,794.90836430845 312.41368802754045,795.0787461941093 313.22260752361404,798.9001975883652 316.88222320951513,805.204158161789 321.8984231148425,810.6464080898596 325.53521335928576,813.3080366673994 327.8984779845124,814.2121334479217 339.17170248784,812.2914240229582 341.5411185827807,811.4050187031077 344.8811958130259,812.9542459593142 349.7187051843252,818.8894254757552 355.9483952273065,825.0786049765261 362.7286836277712,832.7400274159036 365.28640781185806,833.4192600242254 366.85409023564563,835.6630116791913 368.67912567756713,835.9809445678169 368.4970470206293,838.0216927997708 366.2532733667975,841.6040897205511 366.71054454453133,844.4188625073722 366.50702449411557,849.0190935232495 366.8484669547281,854.5483461799964 368.2247670578268,856.249068096362 370.28725344178764,861.8400188408339 371.69678376467226,863.6657101197296 372.09265665403325,866.6853866309962 373.38048862099487,869.6728123697976 372.11008790544696,875.3879549882743 372.53621101062146,877.9871463311131 371.2515145956117,883.0808890527381 373.57386565291495,881.8510171936075 375.3723363930801,882.2940717634602 381.4596374451817,879.4520157796417 388.6447276225273,881.5365880509715 390.2382977271895,883.3426612400808 394.07761704166955,881.7659763062863 397.1927145513039,883.697176819708 400.1352414432899,883.3247064571773 405.26750335204457,886.3660326173737 409.0714677455402,887.6193610875688 411.17935738609174,889.6321229241743 415.78143355413994,890.8211387669168 417.12737431025306,893.2135342889446 422.1042058187434,894.5525102983682 425.05223084583463,890.390790440643 426.54556101739047,891.0041957843733 429.2027663984411,889.3706952359458 430.92625561036454,889.4535291170249 434.26132359981864,887.5740836786869 437.9055753442733,891.1759711886366 438.98954522901226,889.7361487598714 442.9685547590421,888.6566286563766 444.8516412650288,886.2205096849395 443.51442098701415,885.2328908307057 443.0165733786842,881.6075136713414 444.9663463984425,878.3460896255883 447.0201105227748,878.6456607233804 453.65524819556236,881.352844701795 456.02848890339027,881.6580765201372 458.9438210152118,880.7866486517458 460.0806832103559,879.5760745295236 464.0165095519447,880.9987411364732 463.4782774415892,884.8159980132617 466.90393892355365,889.4608614882636 466.6232405127459,892.3550917669638 465.53181946880204,893.9315238143574 458.60246507902286,898.1183827456928 457.26850647336465,901.2158037031775 459.4303491637234,903.7144761047068 460.0867476172296,905.6503507219863 459.16042052161026,907.9471497206775 456.00933663894364,911.5142622082517 452.9076002336089,918.4001402615236 450.2654636262403,920.799591276072 450.4869571909668,924.2425534090964 448.67172191022195,926.2791745845092 447.45274111861295,929.5620747044514 448.44631066280294,938.5946780450867 449.5435483519111,945.9349922957267 448.80976567938285,949.9595028603313 450.07029213788445,950.1220406389356 454.01217621845353,945.8192369530125 456.93233904474164,944.3384664995401 462.4471953146915,944.3556214782272 463.559759053735,942.4281525901305 470.5072373396895,936.245950345631 473.06054729475153,934.6032831000937 474.3414631352793,931.5385363391982 476.69041191349464,929.7917164377226 480.93109445992303,930.7017074442942 483.37233961312774,929.6943768312267 485.95984612042116,930.4665087456709 489.17795809016866,928.3816866904585 492.2825162275595,929.647674669862 494.33968104989594,929.6541283613511 496.4747652989376,928.0324821650424 502.6212007863026,924.9503483914681 506.44719687421247,922.2402678380156 508.2106006330659,919.9773643851712 512.9400337866489,919.9113750557394 514.3907042026793,918.2967880480877 516.787760916372,917.4306079818522 518.5644620997906,918.1206674537224 520.5575112881843,917.3359025908724 525.2673215953365,913.2554385408046 526.3274720454795,910.3756478044878 529.4402669137253,908.9795661234373 532.1584383716763,911.6564312241394 531.9079584920859,916.1234265157793 533.9314097807531,916.9049763805812 537.5646985674266,924.1319494747805 540.6927735081922,926.9200849361306 540.8419705978994,929.2863320378689 546.3535553753521,928.5468693373266 550.5874694564865,916.543682988618 551.3385797627946,915.4265051870169 550.9087278000086,910.6227007458322 553.0030658425072,908.1115691535066 556.7145066716065,907.7891890565556 561.9330354606957,906.3958035372608 563.9161043400475,905.1452622317205 565.0533365183117,899.9941080292965 564.9752806981163,896.8904066153533 564.1278272225583,895.0094499858609 567.8779338159914,893.8962438571137 569.2409854166777,892.5494470917314 571.3376407672537,895.3912238060918 574.3951640641493,897.6899227296075 579.2880457578642,899.5460793661 583.5380120620645,899.0753983015134 585.8499810588268,897.2216143291814 585.5393862400474,895.1023660559331 582.4045985262765,892.0190109764736 583.0739877331469,888.6068630880468 580.5069690748636,883.6615533044596 581.9125167144729,882.4289904986608 580.7283009893488,880.1618433734667 581.3014474818491,878.7508071512513 584.5201909037505,875.9246416796016 585.4379284045202,873.4904122093125 586.640791848981,872.9334609550546 586.6228661564819,869.1803821027805 588.2355829426427,868.3673768153403 588.5882632099591,858.0180588792463 591.5606271741685,854.7082515237043 591.3826332445306,850.3286387726677 594.1915176757378,846.2267751736244 593.9293986975234,842.5787973448075 592.596627508588,834.4749795630242 593.7459736449453,828.9575678182376 598.5565531663788,820.5749228055317 603.5608376552418,810.7750655632806 605.3700060571575,806.352589490099 604.59785108346,789.2405385870339 605.0100342673261,772.1240386557223 604.8304285686739,767.2485052635607 605.4133842999497,757.6281827441358 603.9653691616096,755.1442793691033 599.0459889187878,750.936652225627 593.9249842997888,747.1611600526104 587.4307937840082,743.1790799875297 583.6847686823219,741.9056337807355 583.1811656685878,740.7890005895085 575.7610753292354,737.324592930817 568.1980870963425,738.0904675684719 564.8845272229835,740.113890786155 561.7072942199687,740.724312446789 557.6507373527465,739.6793287304656 553.8767248700998,736.9999322600278 555.145703387367,732.9035956929031 556.7927161763787,731.6026850590831 561.8467956161217,729.6697469601878 565.074059204958,726.9350806378819 564.846195000955,723.7388686001062 566.1462606068811,720.5198028006243 566.4734147118163,713.0048103767945 565.0538054924695,710.4097169004496 557.6259106040968,711.7206784470427 554.9502170859819,711.7222869678149 552.5634008281461,710.5867852968476 550.2447003812329,706.1301956407258 544.6140446184326,706.3534412038691 542.6137404931823,704.8976519766113 537.2218628038356,706.3803684731967 533.6796122732178,709.1970293429631 523.1757169152881,709.7451691599285 521.0657396489249,709.4775989310621 517.3898209892278,711.1227611646517 515.3473652391006,710.3492848700423 515.5760744157277,706.7505475676179 517.7031918702485,700.9319371456802 515.7302060276704,698.8935706286993 511.16584665489705,698.3417804417602 510.1793480033226,696.0058670942619 506.6100276321241,691.505865193524 502.9286406681177,689.8012111901853 499.1537988426004,686.349211417235 498.83987882333093,684.6901055666606 495.94240597057825,682.3963561909825 495.5383731324845,679.2478442398774 492.6290937991337,680.4491070936376 491.3573772359449,677.6807816069844 492.11048558953036,674.5483858752543 489.03028679009526,674.506947279946 487.22004845872726,673.3308801889002 488.5370672731748,671.7307629472567 486.20384386897894,671.718521628906 481.2184023650463,673.282079402887 482.2505334610266,668.6008219365217 480.7571356007521,663.5396585587368 477.74335294336174,665.6307445204191 475.16534287410843,662.1752895078578 473.5548405476715,661.8314275917941 474.1849321505876,657.7458107512443 472.76797074078746,657.8078291695346 472.27041331987624,653.2891174604534 469.7497585952692,646.9337982593992 467.3847028843111,644.4266605904611 451.9855993172948,633.3077560905579 446.04450962160445,630.2067959519097 437.78362776359154,626.4328630796047 442.1902220979977,623.2906260118307 444.0582335098438,621.1729193155984 447.67857507666184,619.4092507320061 449.75450796116155,617.2233690493033 453.3405430634941,615.2886988095252 457.9050679009781,613.9026330644139 459.54721119330486,611.4743370071706 463.50152221066827,607.8035656914803 466.59855166194933,606.5246686795815 468.9706532935157,603.985229622727 470.9218457863843,603.3506198960214 472.0141715123831,609.8182098214018 473.29806481318866,611.4510383981624 477.8092262818532,611.177029492619 482.19285982431956,611.7166681662169 486.15902434064895,610.4716227890601 489.7893747555088,611.0554227243772 497.38130737390986,610.9400822298414 501.32607076099123,609.7583154051247 508.7201189532456,604.6645501879714 509.62790330872326,603.5752957604202 512.3406889815404,602.8416858974072 511.5827084227512,599.9858257176568 510.25030194020866,598.0642256734944 510.3705326150432,593.4210435769608 503.23996524049363,584.3235230344301 494.440875070098,574.0390013641501 494.7926762953217,571.0329345928328 492.38639498534786,570.7963805088582 493.7113590953621,567.8833211746022 498.6425700707263,567.8728851980957 497.0591218664839,570.0531138800727 500.5357034826185,569.7948554291912 500.8489287557032,568.0165307415623 502.8066681446361,565.7467303363451 512.7810576923289,562.2453906635237 514.8463148193192,559.5680700670524 514.8439028936401,555.2852764873696 512.4650495053503,554.5894569607051 508.9676867704796,555.44430019945 504.49459932568885,555.0938833307741 500.7552747116495,553.2058031914889 497.57625337980215,553.6395810528851 496.697632798067,552.5936124536829 493.905806617019,553.1071197329536 488.2627564545254,550.7294791038369 485.9536241217044,547.6911488546793 484.43482080787254,547.180111855982 481.333184674865,547.9401478892592 479.1786983039871,546.5304284266753 474.97664771217524,544.8408248717617 472.0363866176253,545.0506487966449 469.07277474981345,546.0424265787503 466.09638499965223,545.7709521317512 463.89133950522586,543.3141310342525 464.3109956307347,542.4995372800225 462.1909932844009,540.1363533383133 457.7136286021194,540.9616235439769 457.7622926717884,541.686898226892 461.35227159455974,546.1193727489479 460.80045981550035,546.247406256505 455.1653884178899,552.8628207310453 455.95869184640736,555.0807660004739 452.43543387875303,559.0560344884495 454.8070984353402,560.3075845254174 455.8503898527552,563.533711045194 453.30584667200844,566.208797223459 448.5310233734792,567.2526431476031 446.46578100365457,566.450193606167 443.08508744125356,566.885569574373 439.7564214947124,566.0932649668858 435.33417742124306,575.7765115311661 434.0136807498842,577.9022281538248 431.23026991147026,580.1342695981398 427.6261189897337,581.8059511776887 431.79404833838737,586.5808157380491 437.6151366101422,587.3458109408456 440.3116933633717,589.6188542734717 436.87351036308775,591.2540057837738 437.35010420127213,593.1968037361773 439.8377855506802,595.4252007454302 438.76434182553015,600.9075511277078 439.45003985250503,605.2799084066121 438.71642963305055,606.4114570257261 439.23806367566976,609.9350936156818 437.4567821180067,612.3243899180562 437.7123202203464,614.0821432521484 434.9318992900499,616.073017913098 432.9229637708574,616.3448496632932 428.89326927751404,619.4618787050374 427.9970937388951,621.4185611454441 426.00286837918134,619.6261271607373 424.5826954638327,621.6246027344961 421.7006831944481,622.9713789185462 419.72250279791155,624.7277701515534 418.0727395570401,622.6571638326043 414.83228018131325,622.3205085555688 412.384024443518,624.3821206711655 409.2429575002585,621.6774407709006 405.60255086145105,620.9820815320883 400.35320128770144,620.9774843847249 397.73211366583075,617.2556482700561 399.4296905090459,615.6270995553912 401.51003431731397,611.6501476892095 404.25994589525317,601.239323170308 403.8539581174404,591.8092631772097 404.3674389830882,588.7256618027973 408.2296322149872,578.2352887430116 413.3565692164633,569.9873712386378 416.51112938027046,564.0768187394995 420.4274790493084,558.4168189715922 421.43040258778956,554.2879873093007 422.7681387590506,546.2080189234896 423.5633213261717,545.1370430269995 432.82354595721756,539.4668624404177 437.10535977929163,538.8849215699581 435.86740383957806,538.0003995265305 432.8820218752406,538.9480169986211 430.9488499583557,537.192688650979 428.3964840716928,538.8427891614883 427.26852489306367,537.2970398245643 424.25783691312853,537.7160237566387 420.95292852197446,539.2483554545474 417.73578300137143,541.4486622179181 414.7399507224514,542.6103257305505 414.6216200043829,545.0330836566111 413.4195266459596,549.1794204968885 403.2822177583536,561.4309326804212 400.585600863479,556.0250418597084 401.36271492420894,553.4741209822394 398.33992458584373,554.1342371126354 397.50501195485566,552.4514205143403 395.17121125393646,553.134999330284 389.6092802474196,557.0430552697236 389.60646127536745,560.2213130392504 388.01589056713135,561.4754969514627 385.32437217595987,565.8015796169545 383.42347335899416,569.7655886899847 379.64552333570487,572.5976728098308 373.74977664058156,574.2500634496926 370.1316779873338,575.9944470374685 362.83285225923584,577.4988458586066 358.1419641736149,577.932969900414 353.26348813477995,552.4492099237659 352.04519023450496,547.3067020435113 349.32807687915675,530.5754893803903 348.1622616327227,512.1896642130517 349.50954875379074,504.2385840417215 351.4065945476016,499.09925009469345 354.4246203105411,499.28573015349934 355.739207867803,497.4667302442765 359.21049437571844,496.5322772060953 359.4033538737207,495.3191908295927 362.66177776851833,490.88030956804386 365.3366065412063,488.980648731334 365.4243838587231,487.6180512602343 359.1764516204638,474.8361363904442 358.3588819732215,470.409441205223 360.6168248112538,466.19681147082696 359.09704122684525,465.3118312305536 357.9065657589238,460.97325455597047 355.98622240008376,458.34536104040114 355.5830225413432,456.04009856033775 358.2177841509828,455.64573160471207 359.1680102392035,454.4511012358497 359.72353529445627,450.6616664515911 366.6642734237936,450.4730023440335 369.5843250430297,451.4251493285429 370.9603183192293,450.56590435092215 373.8465950097774,450.90843622710617 374.84338866461377,448.92577343512585 374.81856663052207,445.98302246855974 380.0585254471491,444.2792978688509 381.2108797169114,446.42847670982087 383.294794676474,448.15139518098704 387.72641892855245,448.42677269981493 390.51458070410854,447.9609061828242" /><circle cx="516.3370858393515" cy="434.467884048025" fill="rgb(100%,100%,100%)" r="16" stroke="grey" stroke-width="8" /></svg>