<?xml version="1.0" encoding="utf-8" ?>
<svg baseProfile="full" height="1024" version="1.1" width="1024" xmlns="http://www.w3.org/2000/svg" xmlns:ev="http://www.w3.org/2001/xml-events" xmlns:xlink="http://www.w3.org/1999/xlink"><defs /><polygon fill="black" points="763.8206728557221,1008.2272768482928 759.1116745932077,1005.4320521404649 743.4550775855288,1003.0923237614647 741.7805034583114,999.7940767847714 732.3183643743765,993.3159869152908 727.5727507544782,990.6532610540102 721.3172150069726,985.0328101760986 714.5956272064695,976.4055177123859 710.0778623594683,972.6581299235587 704.9315097959037,969.6788445713161 702.4461709346516,969.0041635831673 701.7051999064137,953.2856506021984 702.3694882758243,946.8452246234002 702.8407547741173,933.597519597634 703.6906971570666,922.2887189209753 703.9123980652334,913.327933096267 704.6109107383688,905.4203070167365 704.0153428082292,885.5358153797683 704.3896357387778,882.0454752573108 703.4268301630837,877.3648723374033 704.3953449428747,868.5786773028184 705.8933636847688,863.4752194021136 713.358440128126,850.4882140231867 719.0486957109518,842.7448208848555 719.2223156714045,835.2845309583859 720.578836259157,833.2106285342871 719.7779306846948,831.4329087526557 720.7309335592478,825.0480224877833 721.9875068194622,821.7133399381707 720.8799138922692,819.1858462510271 721.8236056538868,815.2771229253872 727.3376253051761,810.6987125188955 731.3760879937184,806.3532975036334 735.2194945410837,806.6372634376379 739.5914846814919,804.0963487906141 741.6448273148554,800.0243177801591 743.505496297468,798.242227637432 748.0233194112302,789.5317604610284 749.4318938469338,781.4283295732555 748.7329434448798,777.1906822200189 752.0987021877872,769.9320695606255 753.5538718554301,765.4189630755197 754.1217341156732,758.6995338752303 755.1084990069187,756.4800969100334 755.5639802677915,750.2707420958466 758.3891996674121,748.5240338477356 758.8568663108753,744.4027758087113 764.572584695996,729.658415262274 766.8800146896939,721.5489511221681 770.5465368414062,711.9194663448096 772.1226381738812,705.3963697502833 772.1431163933918,701.9072320322283 775.8637916384906,697.141094109078 779.6905857446675,690.3197936265119 787.1242483252946,683.3676087451627 792.6281135375516,682.7867850990018 795.6294106046803,680.2427155126022 797.8869179447983,675.8350908802649 797.958972905146,672.4709348240498 796.6897366026523,667.0196621451793 796.8812988378459,663.1487227614455 803.2858399242954,658.1565688605684 806.92364948786,649.6213070429975 802.9713406288739,640.4339548728592 803.4571863762435,629.6981227484475 807.450344085655,627.5481357711961 814.5351320007619,627.6855166227019 817.8132255480023,626.3732053807362 821.0380151248766,626.2769173110378 823.6250484682602,627.8320639818514 833.2224889661107,628.7803397484158 838.9750082760766,625.2210575154846 841.2729062937885,624.8330793172795 845.2531392045286,626.2857269297574 852.43841500031,626.279810962541 854.1870653869729,623.9145427881504 849.8048022716438,624.223078421416 849.4668850559092,621.623912459284 847.6891141203266,619.3333329721702 844.6123960561216,620.735949723756 843.4690921845017,618.7002546587189 839.4856753984102,618.2878159016975 838.49092871568,617.1966260279662 833.0555238722561,616.4431400348453 825.7231651967629,612.0817235221466 822.4143705711681,613.0651606133407 821.6061603087148,611.8152283098607 826.9287475103333,603.6962521135783 827.416329697274,599.3312382035047 826.6260328912297,596.4240156363397 828.727804007224,590.287386026001 827.9490936312599,586.6706244556513 825.8163252921003,584.521947508948 819.9001236600351,583.5308606758462 818.1706703494557,580.4682060111256 811.827173730864,576.9840278687793 812.1550885439271,575.321183664455 818.6612078307417,568.9976253565644 816.7481347229303,563.163300848061 817.1627081253536,560.7069491377979 821.9213531036014,557.742144659366 823.7913193437461,557.6116087424296 821.0826687909714,552.8025917934423 817.1211039678722,552.6770382778295 810.7860725882749,550.6863931773296 806.0966544790016,546.7600981392782 806.3121497152564,540.7524806271895 803.5677330897503,537.8777970016208 798.8079356470847,535.9363998533689 796.022356728435,533.5147162063569 788.0350064614239,530.6291445213228 783.6831072246246,530.610537860927 778.7507596301751,531.6296958814822 777.0183382695797,533.0705098832241 769.177456147392,531.4626756953351 764.1461674350593,533.211488214627 756.0888920041748,531.9235815546122 748.591582681137,526.5341969363143 743.4667939823564,522.2206304739295 735.6783840948323,519.0341073610532 733.9220940231579,516.7746065461029 733.1861120279576,509.23945167628983 734.787166519884,507.66014562459327 738.9078858822226,506.4361162426553 742.4979679293317,501.07274399866424 746.8645196313939,496.00310989634295 749.2406986152923,495.12841882675775 751.7399276479356,492.0949915285113 758.0744798291611,487.8922190263511 759.6931930238126,485.9732075731264 760.0949510181144,482.2507997703193 768.6090250211843,475.5850753792472 772.403866468267,473.6970989465709 776.8780807249261,473.2938029846058 779.6736930385276,471.58822948913235 784.0092958064081,466.2623373892927 783.7172480262927,463.12890581008514 780.041628109314,456.872124235457 779.7320931931052,448.3669897359392 779.1367149722571,445.02576870464065 775.9654106341532,438.6073041506081 772.8065943298182,431.0219594902602 772.0496519267563,427.67497856655393 774.8558447065134,413.75933426125346 774.1588965898023,407.74963558693764 774.0270264409809,399.07770518122663 775.9908843380504,393.1321480310395 777.7078182959143,390.3456505492795 785.3630568712771,382.5507807121189 793.6272935056376,376.7696547904993 801.5010935416702,373.80990781036155 806.1148223403457,370.3000646838947 807.8965621792812,366.2633746471794 812.8905056940786,363.4616453655401 814.7514246699251,359.55712736262967 817.0737572107081,358.2108152668684 819.6394091807134,354.97771689084857 825.0100948605558,353.5787623148119 826.811108059806,348.1313964447819 830.0455617077489,347.97274566579233 834.4467133601037,345.2123271048654 839.8877685371748,345.6301758278838 846.1218827841773,342.73802127466286 848.3517372806809,337.5173551102595 851.4603399608098,337.123995523291 854.2593563732157,333.0361933598783 851.8222975297375,329.6636866869486 849.5725531836914,318.6113502527588 845.0823075922522,313.3317394308192 836.6798022466558,307.79753910605075 832.610840326761,300.4663340670561 832.2725798282146,296.4999536006201 833.3544476152982,291.94335074689786 833.2998362383347,287.68672068469084 831.6715748250655,282.7789845962362 830.4440928643843,276.638755095532 828.0878335386747,273.20705597078836 820.6016269308446,264.0031067062597 819.8637687165344,259.1816222753346 823.9485704381755,248.5807915426392 828.0408144703867,242.5600258484567 832.9511009966209,232.97470538373796 835.1034126185239,225.94653760760707 834.7444480109419,219.787466931965 831.8999642068051,216.46326961819068 824.857974134191,213.4709166297107 818.8026985894123,209.95761440842261 818.1964335348803,206.55652886962548 818.3477227901833,196.90702318009153 805.5930563693819,198.49066886480296 800.0150003153128,197.7775451410289 796.9141807852017,195.87399419610074 794.8413137818432,192.59515769781262 793.4175892475879,172.749241106652 788.7430731299855,168.51637156849267 784.0016932524381,166.01431655224212 777.822607438393,168.62849885341518 770.297677803744,176.9169610757299 764.2736376303229,181.56274865434352 758.5010529985657,182.5378718106092 755.1456145021147,182.26516888178514 752.3793717064893,180.759977661706 747.750294037274,175.99050367148118 742.5019290693092,171.7116599537071 723.9935346579323,158.82093687566407 714.4055177229042,152.45182495918812 712.3428341613153,147.74837821158553 712.2534808345213,141.7494343486038 715.1159308704717,132.71051156276292 713.8202185093277,130.9846502280909 708.4435964687716,127.51203819285092 702.157460374283,124.38992123461651 698.3408736966961,123.15511079938403 693.0161748763003,120.06653868873491 669.0441381440302,110.74692794231362 665.1208181475994,106.99186629071471 659.4681937516459,106.37384551330183 654.1233578885067,106.91782622544076 649.9645890886629,106.32445009725302 646.8234049735042,101.94623136999496 644.0328467416568,102.53895379513358 640.9994155469561,105.45128399063958 634.0654120894618,109.64488596031629 628.8458145995592,106.8102768618428 620.6444794060403,95.36776445743976 611.9767191944503,86.4112536104335 607.6872779664851,84.80045812600349 605.5114183878753,85.58448673765326 601.4891681147975,89.96910026507658 598.2610462809907,86.69697691017427 596.9047424475212,82.69665941700259 593.1055663187417,75.07839345644311 590.8357473453534,72.29977885207904 587.1717493029267,70.95240783336465 579.8927361027968,70.4879624466231 566.9285026483227,72.5884895174845 558.2625958838239,71.10387885502973 544.7906887328941,60.560076336532916 541.3895611590555,58.37302871793531 533.9795242254733,56.6847532577674 524.9820134796386,51.38444268118508 519.8236271864621,43.34697808075998 518.7746679954645,40.07488495303926 519.2031169865683,34.391835705042354 529.4806070527119,25.087315530119554 537.3090418998163,23.00953546224457 542.7947796747453,19.85680524854422 539.0546587960285,17.990459863427873 536.7616084050684,15.446611343272934 534.212302543098,15.318036069208347 531.6379725224716,8.624018351719997 528.8173638638417,4.456603880380726 524.5544901517324,2.5561948832068992 520.3325021609458,3.1667120466192955 517.7756468465863,5.052631004802606 515.1341735707902,5.561733003346603 506.76323211694586,3.883152857566415 505.641086710156,2.741546575117468 501.971263473752,2.897813887186203 497.50491869571744,5.028492741587911 493.53321078653266,4.6809370515599085 488.52895015117605,0.0 483.8205521824734,0.9969286820634125 481.3479820824677,2.9602147485231853 479.87683583505805,6.704932832230838 477.41688079803674,9.10368936212899 472.093327536999,12.690154538725665 470.75072970640497,14.457652758006589 472.6644231098224,17.54629056832846 474.16750619727515,25.423387502688342 470.40297208312836,33.11888647064086 467.93322226230384,39.39122323889535 467.9598131052042,45.56625730456619 466.89413361755976,48.700821669903576 463.9880669541174,52.465891815310215 458.6032862696451,54.99982202953345 451.47693091618993,61.15247699946758 447.5056714231711,67.72877313990625 443.90511791470215,72.64756759081047 436.16397947614513,76.45219562737418 425.97175759872925,77.72292692950361 420.44213176193125,79.10754247968202 409.93850568632433,80.73260908446821 408.178741874453,82.88072830100725 400.8105473934285,87.25447026220218 399.9463968030839,91.87124359046584 393.59036664028594,94.07219076021158 388.2721460102166,93.94778887538462 383.07509016381925,95.03001768722436 379.92925564865027,103.74958329789138 379.61377201303213,108.36317731088582 377.2543220106819,115.0376391827167 376.2542269080446,120.04416903456752 371.32919651266656,121.67188137437722 377.7611090270243,127.42830474902814 383.6267901329749,134.20616118038834 388.16786679052774,140.79242661318517 389.4295835525317,144.14622681100457 390.59302527324957,151.6699790314866 390.71588735718376,163.3642007226283 388.8376762435921,169.9022746694851 382.748956708277,178.03450361383818 382.48706137611856,180.14321135902742 379.40357727214297,182.28761963784928 372.99675570498067,188.4493972968129 370.3754775133507,196.11667282495125 370.4206891287326,201.440533588864 369.24877680007984,216.75698699537656 367.6428531528488,221.04884908270617 364.0625287179569,224.31849308895983 360.5837152433644,225.52942737909405 353.33435015136865,224.62039779425788 349.80982823427075,225.44294530264824 341.66939925023166,224.75298323945037 338.1750303393185,227.39774027304065 338.2462631287287,228.96637974492228 340.6098652945544,230.85420540777136 346.35505708149054,237.4231000809491 349.7999055129602,238.17071545419037 353.62357162618724,240.4943663619963 354.4436858474125,244.00441449617597 352.9144877184455,246.5858343631387 351.6455578111042,251.8355645500527 349.61111325351527,254.11547737024944 350.9532509256966,257.9691095065393 351.16010976108214,263.61737745483595 353.3068509829102,266.86396090700896 353.7050989666542,269.7571495001009 350.8049517603158,280.09469125110934 350.64520125533875,283.57538815946873 351.63633509833494,285.9959736961106 351.97958256237627,290.5957920111965 350.2047822129805,295.75394106461545 347.50169017556226,297.8983005444477 345.62591317342196,302.22103974300796 342.0039667047573,305.85309947009716 341.19914435606415,308.7898725046672 342.39571549119034,311.32353845856176 349.058815165892,312.6294503107622 352.839755040808,315.0709242139934 354.6671861552853,312.1461083340346 355.0651528487327,314.94087002166145 353.52852239821084,316.9035180199636 349.98543839304773,317.6568499562585 348.59009277676984,322.45838986329545 343.8607380882976,320.963280837232 342.9977252125016,321.9400043526922 344.7784543408441,324.9092927594181 338.64551806649405,330.7490035966847 332.92518388371946,332.69200968714733 330.20247764431883,337.2388248474075 324.6102308943113,340.5803724668416 322.16932422193935,342.96871991710736 315.84815112164915,342.39022935533114 313.71883252537083,343.0587687220675 318.31026448636436,350.16102253781855 317.51457004295895,354.807665245242 313.58236130137107,360.3353556067898 311.56660631855055,361.576541072699 306.7357464234771,367.0899574223205 307.6810814904115,371.7267872875209 307.44083622102715,375.37970503919223 308.48898383859347,380.0274764008475 313.6117110737311,391.77934824643205 314.4328706495876,398.0879917167658 313.1733110355386,400.12347779780885 314.06933809297027,403.61771406701894 313.3712577498779,407.7380508369565 309.96909935003777,414.2213839755226 312.9375122826557,419.2902670832732 314.7505650300014,426.7034486278907 322.6162748709547,431.98443184399343 325.7412679924765,434.5543536636616 326.15507252336437,436.1700224009586 323.4533098933403,437.7366639475531 317.9002411640021,445.22493407681975 312.9118955543555,450.4863939662423 309.18895137029256,453.15580800777116 304.8168471649797,453.5648261358757 301.93210136255345,456.1769145147075 295.82652096398914,458.7381308198271 290.18479428011136,460.22996720479273 283.0965526506314,460.56006698640863 280.61990049042623,461.6004114213009 272.9059806191153,463.36803539948244 272.3272809973602,465.44257363897543 276.98773104919593,468.6146751822199 274.28969515418044,471.56311113473123 273.3531038848319,474.0092357835017 269.35092882493814,478.1855555693596 267.7743269146141,481.12855501569936 263.1432958682629,484.90837922348317 260.53070928593064,488.23647104433326 262.0033044794599,491.1318229483152 267.00430906601133,495.02331350393456 269.5640312847888,500.5503870558931 271.74696829689367,503.0004010055111 272.7955714703248,506.4020836125354 272.15066503722494,510.5321050430899 272.94823393875146,516.5434910268052 269.72568372088887,521.3565588382804 262.4197204540067,524.7250262814167 256.1399643549837,529.3495507002526 251.01986902982148,531.1736552140833 247.2096736436311,537.6952838413138 245.7226680517013,538.8528190258662 245.78274305317163,543.9480014486317 246.97971051506332,549.7887584717707 245.40115822620723,551.6463463534058 245.99296651011156,554.983250172826 244.07419457233672,559.2371915145825 236.03057396784536,561.0657291211588 231.6260005633866,562.9055716138466 226.46989837993277,567.5554721759786 223.0888654267005,571.9089358530509 221.01271751729465,582.2007748689996 222.92518684727474,593.0032893716899 225.69121274155194,598.5869401959881 224.17196229807794,606.7127203775564 225.42000234763356,612.779011430591 227.5487650419393,617.6584996472686 231.51132764079637,623.0037700087314 230.48147406657998,627.1062766909856 224.2717578587866,655.9547002259147 222.0816775328885,660.951881197149 217.0553196628407,677.1879993025375 214.87463934246352,682.8368958323324 215.14408537465357,699.8428177020509 212.02485262040554,708.1203213981985 209.26200494947534,717.5839162007472 204.42437231627997,732.571172817033 199.2544255341525,745.1272704174364 198.08738157124114,753.6328748409614 193.85771452213643,765.0857012326729 190.99025104950982,767.0387988840266 189.8772747397197,772.0446311146547 189.8139502164335,776.1584245601333 188.14898502191997,776.5672588043242 186.73483997297936,774.5259606513467 186.4451042794747,770.7128935005161 184.28582081567723,770.3690500385813 183.7739087879885,774.6701729508248 181.0309765994698,775.4444968313707 183.72850613699836,776.5518536985458 183.9161995842493,778.4014105913229 181.76785155011345,781.6134823327135 178.81008885420707,780.1760005322669 179.3167086856397,781.9108603232015 183.05331668121985,783.8106081318937 181.62517778433957,785.4178106074639 176.55452300124088,782.2506116830647 174.22597934437994,783.3022118238782 172.28082218170118,779.6690915146551 169.67243218541907,779.4700870081043 170.4403902495476,776.4705921226899 167.49822105802457,777.1920801582007 167.06510683329702,779.6228670547825 163.16588281508803,780.9676838415055 158.77892925828345,780.7627498138236 158.39450269436497,779.1927070900341 160.4471388062853,775.124533544137 159.38204952214215,773.9702854179866 156.13728234255217,774.5474456694232 153.4840041317358,773.4066990422311 152.10544841481803,771.2088234146026 145.48507249150998,771.5873331055483 142.9758967412677,772.8436867059022 137.26161824707034,769.3011412875494 132.928629270591,769.682654949682 130.9730395782428,771.5776114189131 129.7985442427867,775.683280701279 129.03381229576937,786.5082090661708 127.93301284877397,788.7642155116695 123.94528612460081,790.1569317199551 122.3563726662303,785.5179572424914 126.29310939944386,780.3107402463609 126.73771316735687,777.890606835763 125.20694529103305,776.6116817300453 121.60900665339474,778.0653787013385 118.58719191127574,778.060367634946 115.96090846261086,782.4164966001671 106.64068125270519,780.7244699569366 99.82262485647134,776.2268819241576 94.62396394464487,775.405627588243 90.75074341410017,778.7994282270837 87.64188974892481,777.9759100954927 84.38157236380836,771.8181583376135 83.17262394686449,770.8579288518231 78.75277973846939,771.398784265232 78.59504010073599,767.5127116546869 75.0820904473672,768.2799138770789 70.63628063891417,767.5999971194199 68.70295053579798,768.4169179706737 55.677845080658024,782.3319533940701 47.75801370360687,790.1270348392841 41.562862590651385,796.6917665944127 26.094088338368838,816.4202161548137 18.36334831034849,829.7116691763028 10.06108355670389,846.5991484855247 0.0,865.8097579863403 19.152701677990652,873.95547190195 21.6363819637744,874.5486304073755 32.3844113671801,879.6752850909922 57.552076929332216,895.5521319462606 67.56762850489869,905.7850361725208 69.46570092494088,908.3143110474889 72.18043897160516,914.2569771993843 75.40592480876514,917.8550158585917 75.40029082357398,923.8512966473635 78.13978821632416,924.9500044940951 78.69050577435586,932.5869038672403 77.71320565548628,936.4589530567395 79.52908189160557,941.7100876039046 80.78169374714251,948.093876352197 80.67953833246685,950.7929452243493 78.05724251990968,959.7878940135356 74.54525635997894,962.977817406913 70.2275464814019,969.7003401652574 67.65234311882182,975.1451844064567 67.21926756932909,978.2727672473075 70.52561273061505,977.4612491285699 81.16382393400637,973.5278207753666 89.06660897275349,970.0210100503509 100.35661959682479,963.381970798167 114.22968066387473,957.5780349080098 129.53833200361936,952.0271872935507 152.95172023862943,946.5443807233897 156.71146864571074,945.112212501355 162.78836698835002,944.3997234032698 169.26622689421126,941.3912039436422 179.56687837356256,938.4218311422318 185.84031097754112,934.788879325055 192.56691036260622,931.9628407651084 198.23357167617547,928.953776472813 208.8675143849431,921.8458188061013 218.35942933458787,918.2068671001261 223.65640931509375,916.6588061882327 239.67959570923696,913.0785851312623 245.23416704187088,911.4024233173767 246.75380412687113,908.573355462618 265.26236235340116,886.8566213290644 267.7632656661672,884.9773488071291 274.49253896989984,886.8049069989783 282.0683932272588,886.6055920314602 286.02663756112787,888.1887539542025 298.83712441860087,887.2692721160208 302.6592108165991,887.7840363217076 313.15174018519366,887.3833151493806 316.9137778943777,886.6735600129774 324.40981787874694,889.9803112154871 328.52694861916916,892.8755257437751 328.7143696653112,894.8854430042011 332.06598013651404,893.637887813354 334.97305892878916,894.3943377420969 336.92790730646317,896.3912906907741 337.3129914049434,899.3237308557485 334.74662586189515,907.3073641166902 331.8865651659322,913.2095258883311 334.93857477266386,908.6642887230163 338.6486365561826,900.6824180161959 340.9992879308009,905.808993939015 341.0501202900141,911.440857035586 340.06515551524,916.531687188255 336.5621804737187,924.515774503056 332.86449173207154,931.0383960950811 328.87780125814066,936.0907057446129 327.62006771483294,939.6287672700524 325.5286752570505,941.8966884022805 329.7434089734694,941.9389666126004 409.00611279963664,941.0321314150094 436.51155875115063,940.7795922051096 437.1476698652783,946.2971197491847 441.16299979575473,947.1082344485629 440.8684298923221,933.3350831770111 437.5238207733994,930.0264656332188 434.59744514243766,931.3212646049694 431.38894795618745,929.5054267371146 427.41748801277964,924.0646882903711 430.7663252136332,919.0307801471876 435.82247898581244,923.6916353881363 438.5148629305688,922.4719374645836 444.64421881551357,921.7151196446389 444.96213638491844,924.0256624730011 447.33967786760064,924.282056697482 448.6290557148005,921.5185989591175 450.5538088274512,920.6892176754441 451.7739938258944,922.1917169580536 451.86128508036944,925.6159272187062 453.41798534482774,927.7583878576113 456.05617630822996,928.0108213334826 461.52780457433494,934.7103687588883 465.3123245058942,933.434984472611 467.07377682666214,934.3919652250528 465.7117327352196,940.0120635553769 469.98486223194203,939.789889747775 471.37037049366876,937.2213873707143 474.75351047308624,937.3296732182115 476.8212134496827,932.936736136825 480.1558130259404,933.3883168011437 484.6742348763786,938.1340985007142 482.72770632720005,940.0971763007352 486.34735925406284,944.2719285890449 489.058021569007,944.677272691419 486.76434489145544,948.2025388855002 482.5724831329878,946.4113753149785 482.4835490423523,947.8144854817887 476.97771156178766,947.9888773596718 464.7073791869161,944.2385727353518 464.9613735538899,955.0767119130846 467.7632636470773,956.6463996536111 471.40079710758795,960.8864736571786 472.5897335421589,963.2937822709049 475.2395701409561,964.3770564391307 481.7733573567419,969.0734939096264 489.32863232395965,963.2859121057729 493.94701712780204,960.4388244133635 493.78422104653185,952.9731060198012 497.1013525220203,951.730551581399 503.440269291447,951.5428827908469 515.6568950598912,956.0621430091828 517.9151568846628,958.4239824351071 535.9795637152588,964.6225768112787 542.8801865052791,968.8684545850394 550.8556058580294,968.808283319543 556.6433157286315,969.3463455159916 561.649603157049,971.2034401728378 569.1064266669687,971.9049871664376 581.4896185551728,982.4628652434708 586.6869820619371,985.9882116680842 594.0907302744745,989.4930698881826 598.8390071227789,994.2919320875619 608.2199575060034,997.371978990326 632.3921932882034,1007.6989679327952 636.8939118531327,1010.0860950260799 644.1967420765731,1012.0460354505432 661.4329835627515,1019.5094088317192 680.6797482663798,1024.0 689.7622920930785,1020.7194727581483 697.4633816002905,1019.1251526058851 699.3167433383221,1017.7000377561442 701.6815004937586,1010.4508006516393 705.2775834538977,1009.329271214411 709.6905861591703,1017.4325144881394 714.3077973096598,1021.1309973187812 719.1898871049607,1022.4527080101705 731.5032467015147,1021.6875725645529 740.3284342188276,1020.315008956403 749.3636794340292,1016.1574386686372 756.0897214084519,1015.1104088303512 760.1482920149874,1012.237701699312 763.8206728557221,1008.2272768482928" /><circle cx="612.9528514130321" cy="580.1502037491612" fill="rgb(100%,100%,100%)" r="16" stroke="grey" stroke-width="8" /></svg>