<?xml version="1.0" encoding="utf-8" ?>
<svg baseProfile="full" height="1024" version="1.1" width="1024" xmlns="http://www.w3.org/2000/svg" xmlns:ev="http://www.w3.org/2001/xml-events" xmlns:xlink="http://www.w3.org/1999/xlink"><defs /><polygon fill="black" points="112.85912007343832,393.4421538158217 110.43213589730435,392.7339000248646 108.221157875283,388.28475271842785 106.16325255217608,391.5781102474358 104.16733312437157,390.05608970899857 99.546936826262,392.09761762013716 93.83375983360541,389.0249067231356 89.80304804648478,385.9892357134154 84.65110017471126,384.04645854001114 78.53044010017095,382.75822072149026 76.59168838717217,383.4029308625144 73.09617680659267,387.8670623834977 68.19406661524542,389.81137849511936 65.44725797921325,392.1658081394186 63.0609214785795,398.97365621306415 55.99733964645194,409.9071167346374 53.59690596148671,411.18129328737984 47.83917472263132,417.5155835000545 41.872916784997074,427.8589099073987 37.7991364607446,431.0083899508312 33.44669536516401,431.6267374083112 33.35053108029772,433.9693883079956 28.0991661043405,438.02723439357294 23.91470808784429,443.9594198916616 20.033861703341394,448.55432355934147 20.033414728926505,450.7041289477229 17.77382659974828,454.58017886346533 14.898764490739067,458.09074390984733 14.137978983787562,460.2941546965061 9.256284461746414,465.9334271715502 7.19025825723995,469.1875169142403 8.062189592676516,473.19175451671174 6.813995068105907,478.247821759069 6.673269313476791,485.8780605068795 5.407495368145837,487.63608315616045 5.950642732690893,490.8902622373404 0.0,495.8125331391558 0.5886641823461585,498.5040541595274 5.730636890788298,502.1077274284547 7.58332826643003,505.37709771080495 8.228469179701547,508.6641695022805 10.380327702318777,510.49178113095 12.163252796235254,513.7504408917271 12.57443251618387,516.2664306279064 15.81820409456041,518.6394062004779 17.429867477470157,523.9980350468772 21.152155423893834,526.437493999389 25.770295558335064,532.3626620548227 28.510579327019887,534.2892475429105 34.54360550765172,535.7073473593193 38.01981861730404,533.417286292855 41.60307574000605,535.034170850968 47.027203618081494,533.1945269744051 50.29278817595687,531.4652486076837 54.67357152739032,532.6182365155685 57.50450548809009,536.4924197878217 60.2587475770254,538.7355696667958 58.282454281380865,544.0061106946262 57.95294414846007,547.0279649669181 54.59040434869974,552.0081554115735 50.794523927645265,554.1020241619992 46.974517401430575,559.170396305336 49.583737537737,567.8451283907716 49.1429799859609,575.5144400778067 47.11166239934546,577.5659722241053 43.853950630454285,577.5523316743928 40.893152873248006,582.1180034430932 40.568216008906596,586.1272173002175 39.24057539748188,586.9338644262973 37.74935764174752,592.0596675088302 37.969297877505625,594.2999103741355 40.0593489083931,598.612158968298 39.97148071735722,605.4582935248458 41.3831293374752,610.1131034000114 40.968671001191005,613.7022915850796 41.94825191106753,616.156171589766 45.14364489670912,618.5716880186656 44.72404277556664,621.8838543077402 45.88939268377695,625.4080029514564 43.11967136945965,627.2891517919094 40.08213012136808,627.7296309013179 36.92852054840541,629.4730891376316 34.65247000501948,628.5041339177515 28.24156150133859,629.1650134490762 24.98841480011399,631.3376285272582 22.81656394726443,630.9140548441603 21.30668383402875,633.9065304295002 14.897638058142839,637.8733719449438 13.935890643845694,639.578067381898 14.907214297058584,643.4818841932905 14.633985699994101,647.6192776172361 15.46248866322765,649.4672121784586 15.67487686594681,655.2025630583953 19.405017865530812,663.5147119295675 19.96931833624494,668.0222846417864 21.6725358522114,668.3079734727605 26.781433305617742,665.5675925132359 29.060425221227035,666.4347410416108 30.474156443010415,670.9820151711033 32.42719797066488,672.9349805150684 31.55493408162301,678.0441310674153 34.05934215021999,680.681476360987 36.068407092794985,685.5856927093836 36.50315650736183,690.5660765521941 38.86647757378179,695.484656754038 40.83497426555126,697.5615537999406 45.336395762455396,699.6852424865158 46.56700302877904,703.1632206377108 52.58582613561895,706.2385674194022 54.364313074089175,708.4879065959856 55.59548782123915,713.5602708317463 59.648423166455615,713.4988537304965 64.66558586467981,712.2640892389286 72.1834565968387,708.7292762439758 81.0036819008424,708.7334184275155 85.19870119143815,706.985222769219 89.62745673829407,706.2462962623573 92.6030677250831,707.7144881097911 99.59527611031267,708.7989542010577 101.80513520160981,710.5676691401437 102.93523814408125,716.7795515428699 104.48736329989633,719.9108593098135 104.81564981876677,723.5446151739095 112.6354120945138,728.1221741191521 114.96673011171896,730.5407428104519 114.94009264072147,734.3055239584662 113.79251056674866,736.7229713929648 116.98641896632813,736.8962748751667 117.3098883134083,747.2187578582555 118.35294463602347,751.1594046736881 121.53366004774323,754.6664737708529 120.12573332150502,758.8423750847556 120.61094024936592,762.6445609897394 122.96580031554649,765.2490917682097 126.87048988815829,767.1883195346668 131.78138921716445,765.8220344075876 132.71007877513725,766.7872351515341 130.84660020942474,770.8983128254381 133.002718092622,774.6648373953016 135.98867778762624,776.4204231363138 138.72842245814027,774.7560000000788 143.64655687950392,773.4913329741632 152.57606111660553,780.3004098142897 154.58578027023088,783.8694126568001 158.49198119749636,780.2881247092661 158.83625645158784,775.8230257133985 160.8544170299618,772.7724870588253 164.5763859254579,771.2796754599736 166.46107349949645,767.1985591869754 169.03372259728204,766.529899799837 172.15739253695318,758.2087525178894 175.75141699810456,754.831550482907 177.814576232754,749.9294417112235 180.08949764627087,748.9907313897575 182.82830716058743,745.1539292743895 184.9760495876024,743.3088442771979 187.63595053278402,736.4782189834741 191.26312480424846,731.6305580716603 186.6362985555181,726.5025676128217 187.95438091975245,716.0841523385699 190.00386063768343,712.5729073766456 188.31989640282058,708.6214450660054 192.3297059743461,707.9642051637161 194.84173857420862,706.6262941029663 195.01119903985236,702.0114380746552 198.92607032533937,700.3247542106687 207.88277893329433,697.5761036181665 212.36762135297755,697.3734272766028 216.7738416922687,692.9142279580465 218.75651094203937,692.8258074843588 223.76932794655434,694.5898293424545 228.98031808610864,694.0414012504642 233.19876603956172,695.8809186309509 233.42294923182357,697.5169371783405 237.98131410848674,699.1631167066084 239.3084503364618,697.1785299255357 241.4051676059674,697.6557869076476 242.05746406588415,703.4071889930226 241.4342066589289,705.921383940415 243.38806384097813,710.0376660600122 242.1167195220266,715.2628253405811 245.64697119255848,719.0099435002542 250.165144017915,719.914788538408 251.23438963151418,722.3800682848049 249.65930232096187,727.182775112966 249.2718645994168,733.166402537192 251.33386218277997,734.3635362843088 251.657976215941,737.6165591211063 252.70792129352898,738.3129108303174 253.71848924423054,742.5372321051127 255.5004585928142,743.2389721481712 257.49321636485035,746.6267078798567 259.5505862427821,746.197836282532 261.9050261869015,742.4995433299548 266.91674479165846,739.2918745721544 269.3828075426872,740.0791781686281 267.79318233933856,741.2827202167222 270.7834163963079,745.036966730928 269.8575329698649,749.4653650074263 271.3652174691497,754.9591942889815 271.33795475831363,757.9846601636709 269.62215073920345,765.218214632934 268.1282999879116,768.4818815631337 265.3755064722955,770.3367994781534 263.80435322902025,773.3526783489568 263.3433766342623,777.6527294301022 258.87069382546554,779.8468211130432 256.0744304201311,782.2369284108529 254.11563209834728,791.2017695688011 252.0992905484435,795.8010302174778 254.01575110950725,800.2010868402053 253.52612201093785,808.6428999111591 256.6873754021098,815.5752518163763 256.9666821703331,818.5847737530281 262.9346396193887,819.5723111895522 262.2232201549148,822.3281303859443 259.4935473701138,827.4511435430954 261.7584220714495,831.8552016175738 260.3402524404081,834.1438027146064 256.4939382873346,835.2004138371859 255.38139659867616,838.8611676841304 253.88214890665643,840.21165816042 252.06736333147728,846.2794159439827 250.75626313887196,848.8885125172275 248.04393109043366,851.1993864464024 247.657422094038,858.1961522568515 251.51660707445487,860.2011334049687 254.013730229857,865.3618442462729 253.78579190057366,868.8351218337589 251.54853702422037,870.6657589097658 249.38759632063986,874.1255133400199 250.42997475800962,877.483741221291 249.23988028883903,879.6515783553543 249.33798449253862,883.8080422852445 247.7885296454254,887.7682596361876 247.41817272249838,891.1384941201361 244.0911358110653,894.1788947508709 243.67796632436418,899.1995453386842 240.4981230340797,901.3648844334391 237.9777636575298,905.1438196941673 238.54955614316842,908.0261670483316 245.08978144853185,915.5717908120399 246.88334675645714,915.4085660890609 249.5022051817314,913.3934597527732 252.53976663819913,916.0347246831986 253.59861642210888,920.6026362713063 256.7305906576607,922.2125326057644 262.34354325464443,919.9272977219031 264.07168225979586,920.062595144153 269.74416498285586,923.2460376690543 271.12948646320206,927.7028388532957 270.99506814325457,930.2305829985294 274.07097393585246,932.0458198016584 274.87405413593854,934.9614853685862 273.85936543890875,939.3210381474997 278.09673842121396,938.7178261433498 279.0670925723078,940.1176206989246 283.66181667005685,937.885546809915 284.9780844376486,938.3371561528375 285.7456520279422,943.2553903413345 287.73444054856685,944.8263382674497 292.75281102470666,944.412413830702 296.80284217186727,944.7359023642424 301.2031629753877,941.8813657240656 304.13446751223626,943.0649486586124 307.22577352823726,942.5560830392316 308.5473196068972,943.5030485642588 310.4876075942856,948.1286080106576 307.8803011621101,952.4396265536825 305.08194609202957,952.7230623959307 300.15639472462254,956.1635129582871 297.6125311175643,958.8227903769432 294.1120387960347,958.9262125815263 291.7431654864258,962.7015930652581 293.55638219270827,964.7158471059599 301.5224756989133,969.8740553473707 304.610980865296,974.1884918211776 307.0431504077707,981.46338396872 304.6219778719044,988.8043134753664 301.79465625718683,989.7284481845876 294.80011041237043,994.8630336779357 292.9055227514819,998.385385406381 297.3204081696226,1001.8521716900802 303.8272074284693,1004.6491901235298 305.37997902371626,1006.8589294664775 308.52127946735834,1007.879290963278 308.71236315341304,1010.4637325184584 312.32073973204916,1012.7992268876001 316.67567061689635,1017.4948079675277 318.9047644054261,1019.0987217562409 323.085629599904,1024.0 328.40351780470695,1020.4319926816218 331.7981490086872,1020.1602585666606 340.6512863547336,1017.911607603166 345.1758679024453,1019.2990654437331 349.0162850902698,1018.3158523142847 351.2689664336846,1020.1770739450641 355.6871430308452,1019.0516816380386 358.9489909389213,1015.0674032689 359.9585843426783,1012.2202677963982 358.89011539233525,1009.186755417417 356.9626206733777,1007.1730493236271 356.325988965992,1004.7312523459598 361.1186682137402,999.4846777106121 365.8113198498894,996.8928605220952 369.13328211098843,996.5366370309054 371.3961101812797,997.7454345763299 377.976436811756,993.6327925034092 382.5555317437527,993.0845618471245 385.56649975791396,989.6371764470891 387.73431669942534,983.7380712818248 388.42982073767286,978.2463323886706 391.4418859625829,976.1210741640548 391.1385253602236,973.1144791035473 396.79353925412255,973.9029554251609 400.4147035555568,977.1919782279778 399.81397804201015,979.1000402071998 401.1577349267601,981.0263758189982 408.48920129918406,985.5806279198212 413.12084920115393,989.6271135607711 414.56283706368396,994.9325640019669 414.7467461157744,998.4046249901401 419.63823363035266,998.8884420698506 423.7611343693692,995.6289778012521 431.18700659537467,992.6083580165943 432.1245981810956,989.0891145168079 434.4904600174287,988.2914980627847 437.78971273484683,985.1732575114675 440.489270073474,974.6993833256095 441.8754425243526,962.1678168702008 443.4439576721422,958.5905501514712 443.4881484831673,954.9460337131766 445.07284761273377,951.1318831492109 443.8383845154852,947.07077353716 436.6844806766163,946.4989230351993 434.1649646409906,942.1443728390553 431.99774761840473,940.7429308236111 430.459016898498,938.1981832763263 422.6192117228496,929.2317810033004 420.9885708878032,926.2126251362449 419.0412703331467,917.166198208942 420.5029162618187,910.6411974689074 423.72913937404354,907.0322363476507 427.80880838271764,905.1081216499641 430.9917727508685,902.4277406482751 431.5435546455232,900.459183793538 436.7236431749961,895.1659765480861 439.5255808875679,890.4629852055367 440.61809648831263,887.218414563564 440.3072465261305,883.5561849529272 437.9839185841364,880.1453416038783 435.6361893434374,874.744770582425 433.80567566082624,868.1814498369363 434.06476646339775,859.7088531785134 436.1591894107924,849.6880688671064 440.19369348617494,843.6326012772573 443.87903910744836,840.4507767059506 445.54409749298014,839.9929137869286 455.56748634110073,829.2594644485666 458.4737163858956,827.6202179868058 460.83914106407036,824.7843744648894 469.91055413428745,809.2900450361401 475.09387898860587,801.6234578937385 484.42679698931715,791.3020323160873 487.21063881737825,787.1812628426295 496.4476545691795,778.8569709092405 499.3326913053563,777.7935529001022 503.6090574861523,774.6750971135514 510.8288716054697,771.810308516245 521.6184596359197,771.0930843599059 526.7332584894863,772.9665344540002 528.7769819041854,774.8232665263688 532.263444882438,775.9104824742915 535.822445438993,767.7149254892972 539.9615626669776,764.8201976100577 543.7599117086755,763.005511528836 555.9520040889915,760.3809106310331 560.0408829342383,758.4522784655481 566.218590136711,759.9222764259282 575.4968955823762,763.1751744854521 579.9072484785827,762.0895417869373 586.3760890120566,757.085010481446 588.7405405718118,754.3609053795925 595.2456638850696,751.2388221485762 602.4882664980342,750.2670995335724 606.4866501733717,750.5579901138884 610.5634396042308,751.9188009207536 614.5433933215363,758.0941809270703 616.2602284649203,756.7572067640781 618.4743800871385,752.1386743794883 619.3419558473189,748.5178636500617 624.6575762050329,740.732410837599 628.8774508027949,736.3212503868423 643.8610985904124,726.9225072577232 649.3059386903296,724.3209419988468 653.1217836541565,723.7651162190064 658.6446044723702,721.9948876367893 664.4261363193451,718.2298572232614 668.0440931509091,716.5732118811254 666.4508869974161,706.4465395519769 665.2549093887781,704.5348537445944 663.9317144693689,699.4060229264767 663.7966795031296,696.3227381978113 666.1457713588817,689.9290664568362 669.8170640094008,687.5225894204584 670.7980317467802,684.2541938983941 675.5674637643851,678.1578767935115 682.4907761816233,674.2698297793926 684.2330193056455,669.8510156511579 688.3070629420611,662.5946925577879 690.0039111020809,661.4431791535667 692.6937715961176,663.5674643674845 697.1167409691799,661.4575263930965 698.9988766230665,657.2545078894389 701.8734791577206,655.5979412479919 702.8306033469878,653.7376067064081 707.4787770486392,650.2821035409254 709.1099048914917,647.2194499589175 712.4376556637272,644.1757650916632 711.4761891959612,641.5688730481635 714.1356117297195,638.413054223367 714.538716643765,634.1718004282961 716.830291919498,632.2285331516916 719.9158606870491,631.0025403910738 721.2146263168262,627.0277067275679 720.4579783526913,625.2016541871163 722.5155783177147,619.1115254436603 717.147616779642,616.3059989779674 715.7538038029852,613.2182015077844 712.6592931396058,612.759985595915 710.2886410620926,613.5124913329195 706.6123581285723,612.6131088226728 706.5703492375067,610.2322650383392 709.0705081069921,605.836890595085 708.1167484588011,602.4617465950829 703.11551758767,602.6517620260545 696.2819912266457,599.6006663766452 693.90391435059,600.3827589072472 691.7509408315918,598.2395960329279 689.6981782891538,594.0856098644456 690.9802859224754,587.2926134467052 690.1606281540315,583.2924637274314 691.4059319350912,579.9372464551583 689.1639153337073,573.5486159315724 692.1211223547633,571.9154936010638 692.9163363080564,566.1714898743412 699.6528162045106,562.2685333678145 702.1291861207432,559.4354041286958 704.5210499704615,551.4045191491091 704.3618139835132,549.262210732258 701.6046658108719,545.430358834702 701.1561110488755,536.2050073452606 697.9959716215064,536.300413378658 694.1577764686085,532.7066398786137 693.5964014418453,527.3878354298408 694.7859348626749,524.6504628202738 691.637548384686,519.4882466031606 692.3797270142057,516.7210380668148 695.8025919593789,513.5622040685807 693.8963273795999,511.6993611745528 693.2585791279665,508.7287274224989 690.8735328449699,505.95442863857454 690.4166024139655,502.9836085349808 690.9267387962362,494.6141795996847 690.5242670529811,491.0607561690223 688.9629505111493,488.98309975643315 685.9768306659065,487.84850826411764 684.3450675668018,484.69541655834735 684.6801133665113,482.19625814586846 681.5903986080613,477.88721997756386 678.4176150727774,478.19642458090675 677.5180370683215,480.94152289131625 673.9081481984534,483.84144208496764 671.7001862006271,487.65222614683137 668.8493834641112,489.75299499765333 667.0300511562631,486.2205261477569 662.9556605148659,487.3692044216581 661.0592234680425,485.82318675975534 656.9454511154365,485.0873884468085 652.9256146108721,482.34363188405257 651.4443637339641,479.05674900379813 652.4311132577535,476.46589539702836 654.9590501741824,464.2205721113063 653.5799363623138,460.36141076654906 649.9534507486534,456.891726803604 651.5661731984013,454.32233806596685 647.9169051598586,450.8838024657455 645.3250043293949,447.01527095716506 647.9789007347723,443.0546751033278 650.1558355893058,444.8457296065153 651.7057856134293,443.3511933020883 653.6386626721611,438.26530834949176 653.0742691533208,433.12853551840124 655.6644729011796,429.4552621300753 662.3863711181982,424.31758569997146 667.1603593935187,423.456324494279 671.622615375062,424.9276180624247 674.9749602552712,429.36582750810385 679.7135589353624,434.21270638199167 679.7086392550474,438.67420380158103 686.7367323873211,446.0676664023392 688.9134947503703,446.5264743380261 693.8047964032098,443.9126361518489 692.0098707097252,441.26397170265113 692.1875118967224,438.58282098255097 694.8636585002005,437.03534624947247 690.3936543758094,428.0967280792678 687.762383561344,425.90962781521375 689.3466458898722,420.73198738511553 692.3500765326703,418.4382045609191 692.3089812076825,416.31055568574186 694.452923335699,415.5112329384908 695.9375106478453,413.10578042661155 699.2385912349422,411.99801042710635 703.6244359802128,415.50222800965344 709.0385343164327,414.7290326560857 712.4840803268802,416.5454419176375 715.0585622375786,416.36839477828767 722.5922043171496,420.2147562165752 724.846247844109,420.29309442548356 728.7948709183859,417.88368289901405 733.2540550535616,416.9562591061896 736.2832925131447,417.40110667680926 737.0063511502971,409.64707814339965 736.4235251091018,407.46957224607854 736.7527830494957,403.15362603779954 737.8520684099637,400.8610161826773 741.3734411219948,401.08014292553685 747.7066744545716,399.09493135450873 755.1164600691008,399.6433119072824 757.2051926543145,395.7534582091944 759.8770013093746,393.94849531480736 763.1408640741809,394.90269305445634 764.4611518971506,394.1024278111672 766.1070336829994,388.1890489720396 771.3989300337873,383.34181400577324 769.8387155190566,378.1216633323637 770.4946237321334,374.23601392633464 773.9159486172128,375.8328267757993 778.1860009426686,376.09917512801155 781.1164438569467,371.9627626405279 783.1765286730987,370.16892329462075 783.3791701897574,366.9180894400963 779.5586843369767,358.4052214011065 780.727059121554,347.03028119095904 781.9341267952296,342.1133258074867 780.9101547026308,338.76548800577405 777.6121582535717,335.4641455153519 774.0797405134647,335.4622317781317 770.6068733630755,333.9788903343208 768.3741118480586,331.50178538186026 767.139861907619,328.0423662816472 764.5349962068824,326.77160648312247 763.0742945148312,323.1802735867615 757.0637553442017,322.0183913734438 753.3015832130183,315.73544294297994 748.43401302506,311.18104499482536 745.4156003018666,309.3388719962288 741.8922848599215,308.8959335545493 736.2961499704898,311.34556960570967 735.5858816925484,316.3904833162052 728.4585802889272,314.4309235090377 724.9937547548421,311.40367715806383 723.1854484455772,308.6497881413105 719.4870889762369,305.9599772499249 716.161494989712,307.28135405128126 712.8062266650345,309.78670430220916 709.4950899084401,310.1686617359628 704.1790652701604,305.9171142106178 702.7154881599024,303.17295944726493 700.0428934009943,301.685419979426 696.3730422071797,302.42389565172243 693.5427804273351,307.2958610626248 692.3823412737364,311.50315056854424 692.4167529024184,314.9129516839387 691.0670747332721,317.1198071408339 686.8366709458694,311.59950268336195 684.7425027765605,310.3759195614099 681.6501891129511,311.24581883886935 674.7335443457077,318.8569348995476 672.7513676137033,322.6975719504561 667.2544733392253,329.86901915287933 664.3489739971725,332.9850956268858 659.8634732700185,332.41476118792013 655.9090664094077,329.62750155809886 652.86831419958,323.3269260918247 650.8056789548848,320.345621301767 649.195688961008,316.49648362783785 648.7892026356093,311.3302451241841 650.9362912726638,304.744715078779 658.4387340651359,293.1480488025179 664.191775565181,288.3286542031524 665.3692457118656,283.8890939327921 665.1080871227759,275.0529983843826 664.4591512257894,272.45110001012165 659.376291179308,267.637711348316 655.3094414682814,264.6088471517709 652.7258066317756,261.85485932678023 644.0010086441279,257.5513095116868 640.122999091691,251.73762132717036 637.1425299330398,248.46336247347676 634.7632918117016,247.15784378495994 632.7124555330333,240.51872167448948 631.4183515468472,237.94910227445837 631.8328226223013,231.97455793255347 629.9140980244381,231.92282717973274 627.7543433364746,229.89343118543718 623.5574949190226,231.3603349426878 622.4976121352186,229.50446525106793 620.9521985129022,231.33881015552163 615.9125797359401,233.32480649901947 618.5209957231053,226.699070869479 617.8678250209539,222.48881727510548 619.5765312393827,220.36948295723528 615.5531990904777,219.7660105549952 613.685010234975,212.90569588196286 614.1550079496513,209.2370349115805 613.4074240286793,207.34114215655677 609.2770347377447,205.00474673835595 607.4364485215425,205.8395123909345 604.7889842255969,212.5129464514863 604.162674952011,215.68190124502814 602.3758430760944,217.6581341783335 599.0689416250871,218.0935354575056 595.4203886848627,217.45864231577048 592.6146269729888,215.5401221971715 587.0376870970044,209.59282481895798 582.8048169321979,209.06880768592453 577.0783555844946,205.58713254839404 570.794253255147,199.97476660597033 566.0396192190775,199.56057108285108 558.7614826944174,202.86134609628584 555.5892160741682,202.46917688087547 553.972793797093,199.51152222580254 555.3108736155868,196.2329612402118 552.3905140572512,194.43476412862697 550.4330899256083,190.64150524415584 550.7746818831348,182.1871617365124 551.9964958165453,178.44074630338662 555.464206142718,173.42503182982387 556.5688843643406,169.5670320789318 554.8628192261469,164.7167840874166 549.5917990659032,162.76327652040038 544.7617485398996,162.9379049025963 535.0727953573418,165.88295361889402 532.5958373220928,165.50157746427192 528.3789736131553,162.86553583054308 522.1410482183232,161.9761622264707 520.616032816704,161.13783959982197 519.2445166402523,157.94784012144385 521.3327158393749,150.68321843248248 520.5245036522531,149.84647615759798 516.8472381025757,150.3981707122083 509.5448509377774,149.02689971114137 505.79731029321783,146.41177608444616 503.94175134096184,144.15715790658885 504.0317160562477,136.27926117375205 506.80891077435416,131.13604424534606 510.6413125426979,127.17689586684787 519.5603719935026,121.49931518462381 525.3717863533138,119.44631923928387 532.3134924059575,120.46862141337022 538.051237053584,124.06129624857931 544.4028600141471,124.36855652056158 551.91203468139,126.34537338984671 555.2218358221654,125.45534564458148 558.1285618882247,118.55116804412603 560.9629430156426,107.65919318931583 558.9258168296323,101.27859389920911 553.5986423034981,94.8623328910843 551.5822563304215,86.12329066189011 547.881889607489,80.19944754830772 546.1341092859092,78.88443671804987 543.2411619444825,74.375167764411 541.3252773650254,67.52990156950591 540.3941427797785,66.46086178915675 534.3032478896013,63.450753546805345 532.0837905122337,61.18961986238139 531.4412655146537,56.00467867815769 530.3054253132884,52.57786301115607 527.5227461965469,48.669538449053334 521.2932762539243,46.369519294353495 517.9408676298943,50.44696736767264 515.0448830201414,55.59258358873694 511.45943465105154,59.202367131807705 507.5441656064354,60.819083869108226 503.7748647908287,60.07768747981277 494.5409383497487,61.63857055675214 489.9093457584929,63.35362192449281 483.8831790907713,63.29581890220254 470.76745908679106,55.04364763341812 466.3980736840736,54.998868895395276 459.4097367068048,56.87648734651418 455.2281211847726,58.630646349862104 454.0956168424463,60.17153396251035 451.8574500531813,57.49057290010262 448.8315651449965,55.73195502196768 447.9834597419702,49.38760846974378 449.48302499538477,47.400913882700365 451.1545411634582,47.417091778884924 451.33352601617753,45.1415353499483 455.12307759430576,43.99614933746352 456.54235990209094,42.69061174567787 457.5870309837458,39.52403763096481 462.3629519500012,40.8915713630538 458.5244930318613,35.849321202218334 455.4968397541917,34.89422150014457 455.84337106965796,31.299051593679565 457.8596155329534,30.320191469833617 456.1497566471176,28.028909253095094 458.39486391977,23.69909487252471 457.87577205118447,18.669480363360776 455.8276739108762,13.239159770449646 452.23144782575525,8.606510866758413 447.68625358548275,4.42667264945112 442.10234961095665,0.0 440.49376292734667,6.451860128444196 441.04198311964984,9.398423397263286 443.92003819467004,14.730317005031111 444.18136846317407,19.72837392246663 443.56937722883373,23.45381826439632 444.1484090393294,26.625089222223778 446.3380406606066,27.10030364785871 446.78340773293485,30.809589369827904 444.8113390418967,32.41803205014071 446.19031778094103,33.591403974647505 445.47396665349135,38.21146669301561 443.8447435948297,39.47543386274356 444.0548184549099,43.65213384143328 442.66623466916985,45.028755999677855 444.16293362345215,46.08104963960159 442.9975028154158,47.926248095391884 440.4771056783893,48.374421131592044 433.50830974242564,53.27689352491245 426.3094541686477,60.85074811186507 422.4887212541478,67.35114536097569 418.03478792030944,76.22898031747161 418.0092170530732,78.68919156484708 419.3202975162485,87.06333405105659 419.28607299979495,89.76814774977743 417.93609672793673,94.45087803483591 415.295044594674,98.99691203596137 412.22296847352413,100.47908687346398 407.834311017319,104.06135000225368 406.6211733972289,107.45346642765651 404.5090467159651,117.06907714619354 401.7099093438724,125.25832539950966 398.50792531427913,127.45260483938989 391.69033845047164,126.88221362549496 383.5697321611772,127.01722002056408 376.8483522975754,127.52455342951544 372.0053728706546,129.1189876402475 369.4136126103701,128.97379149081166 364.7852911671865,131.15900241260306 360.37492585509216,134.87182572285997 360.42151947766814,140.90774044877446 357.81621758638664,146.23907670698884 354.91459055052127,148.54475173532148 352.66682179958764,147.96309663593865 351.767037396426,144.31374076147324 351.3634105468293,138.19384387285368 349.5187306027614,135.11999761480843 344.3553986446657,132.36457281838625 339.5574013817786,128.44024532390858 336.37519079460554,128.066083808421 332.5741095576227,129.67314648043384 331.22661698795605,133.88920448080933 331.6436525603407,138.6045689919855 330.5437773019199,141.6520971236465 328.8916337297202,141.86629276183567 323.49716688893295,138.76137781461318 314.13870959573717,142.30974364890938 306.6603780761914,146.45843876326796 300.37217273600317,150.62434778659542 296.55708173755085,154.1030380544496 295.34519149302923,157.26204269081438 295.14026069349364,165.02042490899328 293.8380554111791,167.68079854678524 293.69442848682763,171.90669637320093 291.7329590221612,172.7702505183961 290.15467940492675,169.79610571456078 288.17551906864185,168.54062374945408 284.31126495244814,162.5171756315791 282.298122077849,161.79107728283122 276.8191458685949,162.1010940047522 272.04036063573875,161.345882084731 265.5796483783425,157.08633893805222 263.4620976832629,153.5080646647698 264.0766899351324,146.8839532249749 262.5324328926584,142.66842794586762 260.28825335284637,139.4461041002138 254.2049742939613,136.32947335132428 248.76611547039818,135.66955072754365 242.25835527902356,132.10073245863202 241.11260553290347,135.4714755870026 237.36787572706035,141.64361392300748 235.16772335923278,143.21532846469995 234.1194596621454,149.09227669731683 231.89045552010097,152.34398314091845 226.98024363026278,161.9915202946621 228.15443603666355,164.37315206158962 224.88908437995212,170.61222909690412 224.44001636401728,173.29805681223365 226.3474265044825,177.69284351744102 229.37632970008835,178.03110706601524 232.20302049788535,179.39711935582454 233.07792495261356,181.20653361094287 237.88100768001155,184.09487462807078 240.72508255219014,184.20751265535125 245.73871537056746,186.10830224794518 249.86531308621772,184.59915054056114 257.6682422461187,187.81272967239624 257.5462284021859,189.65629153580664 255.09546826139385,190.08738935420467 252.64750983053847,192.30126891700638 251.89611403209415,196.04581811990352 252.92803566063745,196.74606072384256 250.35532704585637,202.2513192057654 251.84886587461236,207.14376650175723 254.37244832912086,207.52830922463818 256.0157871354609,210.00640731374722 256.8260581773058,214.60923643756814 254.278672458298,217.49646587591087 251.22487311954117,218.16835329843036 254.41020322600994,222.08480075756245 254.7048400496123,224.57445016110933 252.1861755535753,226.66730770740878 250.2293095686191,232.02713750047974 247.69625643085453,232.81436114095254 243.96249814999254,232.42032779202998 241.73444937668273,238.45137021846904 243.3703248852167,242.02224059422383 242.9627283442423,249.87287179876125 236.67614960980686,255.84555840445603 236.03788657936337,260.9314448309119 234.5636840149223,262.8999052591695 229.96280938391223,264.4066133387752 227.64153210970474,270.06201471408826 227.8449614748086,273.1245475565887 224.86001796912305,274.5413639453434 224.34435664953136,280.783114593983 221.48556850065015,280.9348657511032 219.84909942441743,284.6373995548296 216.0392314318098,286.5373069299052 214.33818275376439,290.4541028836111 209.8969811580352,291.1546919893781 206.11734407321185,293.10547136492926 203.268141876927,295.9306920054398 200.49792259447358,300.53363201404454 189.69072925342525,305.8784146253813 185.86809400394026,304.30535406095737 178.87328775431777,306.61665212248704 174.16476257918043,306.3725653245817 170.09563557621152,309.02380542293633 165.1645964144686,307.38911590982696 163.01591506936512,307.44193969965045 159.15430414203752,310.4209235630276 153.34517886831162,311.7996972118424 151.7385747111791,313.25611109060674 148.86618766461993,312.96502464812056 145.59779856335322,314.10029473300835 143.14154171686232,321.43163614102184 136.05417368382896,327.4043209631619 134.4869616937278,327.8906798226849 130.46423554830506,326.79160194767235 126.66270706632547,327.1756211139682 125.42559460732524,333.30343681988086 123.97080910244509,336.7737610498274 124.15411701520856,341.48570571931 125.31078078716821,344.020048647708 126.46416871186794,349.48725539359236 126.1361213598455,352.8567252174744 123.55171167446483,356.6551224503937 124.43056653065246,358.88117564477795 123.06519956152285,365.2770217193723 120.70986514955312,370.4582346461176 118.35767206359395,373.55433845649 119.84597458026938,376.686852744353 119.90587221116404,379.50902034830256 118.74472305346853,384.0278239306165 116.03894015197305,388.1130541722713 115.62840306692385,391.00312652974344 112.85912007343832,393.4421538158217" /><circle cx="351.6503738858896" cy="262.7209314078041" fill="rgb(100%,100%,100%)" r="16" stroke="grey" stroke-width="8" /></svg>