<?xml version="1.0" encoding="utf-8" ?>
<svg baseProfile="full" height="1024" version="1.1" width="1024" xmlns="http://www.w3.org/2000/svg" xmlns:ev="http://www.w3.org/2001/xml-events" xmlns:xlink="http://www.w3.org/1999/xlink"><defs /><polygon fill="black" points="173.69986063295096,638.6250607478969 188.7351329627268,652.7258011332477 206.55247868616487,690.4007093236432 217.53372398120737,715.7134508414408 240.69466335442047,762.8537570531221 253.7311052657802,792.6628213588208 258.31077093189793,804.6071069684496 260.74561079875696,809.3811344039584 262.3405368652555,815.3796792641399 278.2059318526064,860.3430719623368 302.8462751225693,932.5903431296215 307.1097359818971,948.4515894599291 323.1598568528601,995.5080919952175 628.8134947328525,1022.6877078521312 643.643039072403,1024.0 712.357509435184,998.9807701627578 709.5674772582689,966.7239395955227 599.4699343199302,861.0707266788718 586.0355848928875,779.4733134326542 587.9555430523742,766.5111261194082 587.2451802189256,757.9042573044563 587.6194886987944,748.74554395471 587.4259927097627,738.5165953746211 588.8188174583496,726.6453330997695 587.5534545712493,716.9771463348078 583.5307581892095,703.5960190215792 581.0376888159019,685.5689001933499 577.1996275645073,663.9578356467891 573.9333331432935,659.6040556657107 571.3726783150302,652.2963091338844 569.1817685435439,647.9038637016786 566.6784644616113,646.2930307353927 566.0289151054964,648.549690625928 564.3095467437391,649.8005353078187 560.6833665936891,645.371020068437 557.4211236200931,642.8858646822794 552.8498490256956,643.7232559715335 546.6633062971445,640.65190160156 546.6045328638522,636.5306540729284 545.0616264625315,625.4385243799882 545.8413904798823,621.7411956947279 544.7052089140143,618.8769520728601 542.0282501815192,616.7196255231985 542.5046913834395,615.2907296830842 545.2304591375527,612.023944951812 544.9907168646847,609.9856049599471 542.4449048598401,606.1035821972021 541.0805352302442,602.8130720609536 538.4682041835591,592.7212668574283 532.8226485345419,581.2482924005361 532.7009834609293,572.7768500358245 533.7742435070417,566.9578702493184 539.1173638120193,556.6979558215675 543.7430061312444,544.097166341975 545.6305100338781,531.089895047721 547.8103279510838,521.9154789391189 547.986357811449,499.22082504466084 546.1589441790201,489.0409667035033 525.8597449537738,440.87093274674874 522.5820222889557,434.474215969934 521.2280375250286,427.02445716725106 522.959197996444,420.0846459018816 527.1820582329439,412.5391328623682 536.1846273310441,404.9951738644377 537.8177070884457,402.54595045115093 545.5941949561122,395.7028072471487 316.1140190978621,137.0826975317458 320.95875530260156,134.61168872610028 331.01806933562386,128.60005661201058 335.3026146192858,125.7544801543263 346.39291251216383,117.04855736526895 358.36939495335827,144.7216885896322 383.340926295017,132.75326133812325 367.374839673502,98.77868209537598 363.5478380518307,29.55740934989808 357.41847289869474,16.195341254135087 342.103309288431,5.952744509468857 336.57440374478176,3.966189053164271 321.1558142319026,0.0 313.4516335745873,1.360310298421723 300.78383427296455,7.886853099379209 272.7434240591484,20.16404895188714 244.71448599654545,35.89297802801627 220.6853776195902,41.873688567764134 199.6285091565861,49.5946734192471 182.40848031540827,64.80267892352151 107.92529344409745,143.88542907929855 92.67293053012406,160.14478261753254 85.03123369247524,169.70817742891393 68.59304972499787,187.23383462034656 36.375166808584034,217.8104423022072 26.18687741351302,232.04433663411248 18.11219675028079,250.61911232896887 12.61392375592438,263.85313063661386 0.0,289.58018741574926 12.493082177041423,337.3134266490897 10.428291268247806,358.0528722062937 11.427775052902136,358.74046292921844 10.60694880388828,376.94780469609566 9.082027876633935,402.6059683650551 8.42983429550565,411.5581955608254 7.5148539567083,415.63254854363913 5.100829754612662,420.9976727888783 1.3044974913776064,426.08502892133015 5.8342290055053425,434.6704098773049 13.409585594457077,454.30413051703545 18.296252336505532,468.43431720303397 25.16157961624792,482.40100304187945 28.353767938646236,493.1810362539294 34.345217059868745,503.6088955331078 41.68783221876569,513.6003787267157 65.09067351085345,535.9372712080292 106.83630030190022,571.7398123841444 173.69986063295096,638.6250607478969" /><circle cx="53.106050854038585" cy="331.95436443249923" fill="rgb(100%,100%,100%)" r="16" stroke="grey" stroke-width="8" /></svg>