<?xml version="1.0" encoding="utf-8" ?>
<svg baseProfile="full" height="1024" version="1.1" width="1024" xmlns="http://www.w3.org/2000/svg" xmlns:ev="http://www.w3.org/2001/xml-events" xmlns:xlink="http://www.w3.org/1999/xlink"><defs /><polygon fill="black" points="958.842889570249,689.649507477946 957.8745155395195,686.6655525027419 953.5121023627502,680.4703875395062 953.9753189047037,673.5549581165266 954.510251057712,669.954076451859 952.6201939326545,666.0880737695929 951.3278389865267,661.9154300636651 951.5692954156459,658.904750213598 953.0139397220203,655.5772131543467 955.0442204787953,652.7652161155743 962.6801786603374,648.4786930487687 967.3277955048046,643.4535123281753 969.7385495892215,638.441546631341 975.3030972157545,629.5242383991065 977.73209201644,623.0334618214201 977.7281470541873,620.988924135037 976.2407942636988,619.1414498758547 969.7392576115219,618.6012044982253 967.6964148035129,618.0438904427804 967.3232843022805,616.0059793763497 967.5049520118519,611.7391805033022 969.2730774220395,609.6000972009551 972.460505428949,602.6460514381129 973.2149090681736,597.8726923868728 969.9024895889171,597.3247162851098 963.5149911342647,600.535003984354 960.8482697230131,602.3105931969794 957.6698071704697,602.3163330865193 957.1297840725564,601.0772353843486 958.372232357473,598.4119233475228 968.8474691148203,589.5341060713268 970.962301294534,583.6813917424433 973.4504378421078,578.0128034978138 976.2839934251967,572.691442647763 977.0837580996858,570.4191722819854 976.559891553866,567.1445923923143 977.9297417835813,559.6202321766373 981.7103981211394,552.6273946013023 984.6785430608033,550.159964893872 988.574698640835,548.8691933456198 995.2717678002634,551.7848521501649 998.0901334199544,551.7769821396728 1004.401126637677,550.7410149284972 1014.9573549469852,550.7043534611316 1017.1682654315816,548.3180709540245 1016.3284136677031,545.5996629539477 1014.2731088620142,543.0631981331588 1011.7275976205729,535.5900962196768 1017.6997282108223,515.0135445050714 1018.0384047253382,506.8570917297398 1023.479677797312,500.8953483796493 1024.0,496.3019431298847 1022.6241762588342,493.4221105363428 1021.2666588657129,492.3041585171459 1018.2357056558105,491.4779304396725 1015.9894660706883,489.52959125229836 1006.4444010107668,484.298167147083 1003.9036898979492,481.0799760495158 1003.2095898919821,473.94231664077336 1003.8995320557458,459.5035358573814 1005.2583594437405,453.37833932468686 1005.040478118192,451.89704912032744 1005.860033937577,447.37112871532463 1007.5706285915801,442.83618527328497 1008.117753920386,439.81361210977275 1007.1157019303421,435.3381444370639 1004.6319456248284,432.402728540914 1001.2609856250272,430.088343694443 997.0159729268847,428.9799717144227 982.4468713089332,426.0140867088285 976.3526374760417,423.7602626205217 970.5637728008718,420.88888386585705 967.1363268190751,416.4611559260736 964.9106269316569,410.8186000462979 960.5829025484317,405.5163362822767 959.2646516121598,400.1469613574782 960.0463380960755,393.82836202480564 962.0111875124412,386.8901589832334 961.9476046968646,383.59110225581753 961.2874838302403,380.6051089815237 958.521008014251,378.2687531956425 955.1478946717396,376.23774696604664 951.7882316047499,374.80747671611743 949.653292333154,372.75828621810604 948.6260522923421,367.0810754531891 948.4859553574486,360.7846161064996 945.6381344848578,354.2565286951742 944.2769977261303,346.4821474478282 940.8494025509106,341.453063626113 937.2399284916145,341.23191367355594 934.2016432065611,340.3969403861455 932.3378144448009,338.04027051759715 931.8973732563982,331.13996204089517 928.9008789460519,317.41466312563387 926.6801175295332,312.35864949989036 924.4463731657261,305.8088836162857 920.0653357308848,298.40425018728615 915.0946018765402,291.59631911949236 908.7196480254784,289.3407996974695 906.8728471477946,287.2675606500394 905.2477685843912,281.3147672791422 905.4572365348976,277.40078655135324 908.5997815294423,268.64653112855774 910.2818136982735,262.30355466898993 911.3534044335711,255.69954188010922 906.2947372082922,244.40352469553648 905.2653872419236,238.11101185691587 906.5018637478287,234.83217863133837 904.6166444103393,235.1373130504668 898.2349098641137,233.45607201427777 894.5795294337598,231.4416111827162 891.1897130024113,227.59750928966992 889.2778576705701,222.5376022087811 889.1869939735637,217.95819678753787 887.6254650437554,216.2792927508557 876.4210494306822,202.6332571735278 875.3421888951297,191.24295039797892 868.1287945890512,179.50457728710649 864.2753519294783,177.7764147055766 860.5781315114735,176.65529053829164 849.8369872918989,179.8418893226011 840.9926442378035,182.7672230463927 835.7729535530312,185.0027388537377 831.0371535570968,185.45123579092933 814.5231102125251,182.33099476402776 800.7202465522571,176.46275037448254 794.601707821879,175.37369388964316 788.790779172741,175.76385988645313 784.8731093239533,180.96719574680787 780.6085933718304,185.7945326512854 774.6103643991239,195.58706767421972 768.7159015782412,203.58348756847408 759.5291086404322,212.10585241715273 750.2857140964595,215.1897018364632 742.4732415393566,218.72695056273858 732.9565543870544,219.995288089233 727.9195424531271,219.34480489949112 724.4581036040598,216.24893179976505 724.0232249618168,211.15661853701874 726.2130432070668,204.39659048159638 729.7835976058867,199.16579794495613 731.2203831759862,193.08731801245654 730.5545979532584,185.80562608022603 729.4537699253332,179.22566738445744 723.6014057924745,173.81274958178778 716.6080846753648,169.07056838753613 701.0387592589082,162.03080131829802 696.4572419923657,159.59544107895078 689.155151965324,153.75781467084084 681.887281590189,147.55484779270387 675.0975275993402,139.20107123509456 668.3434772223379,130.13652301375384 660.0549887852742,122.43516269207578 655.7581283393977,114.9500374809113 655.0976284920038,107.30704000323578 658.0366708460061,100.22623062049934 678.4729805296716,86.14431774743571 682.7356609900961,81.31143704715225 682.9467659420444,77.7025401803296 682.0368555812811,74.75448730588437 679.34092127721,70.97950809286328 666.7214699611566,69.18712225579611 660.07453939774,71.00137544564836 653.0098337019258,73.86992186054079 646.6385769982583,77.1433317137222 637.371631620699,80.25740943972937 632.2264406318142,81.06457356284182 626.4971084266514,79.30938746873414 618.7402428330925,74.90021232441848 613.1732344503889,70.6190643397565 607.462582351239,62.33577807872655 601.6975006590513,54.78223396691817 593.4051916275108,53.61522843934313 588.0707810114659,51.14895376959555 580.6751195247111,46.77832546026093 576.5162885222045,43.29551480580392 572.1679994423304,36.54192410714825 570.6553395612157,31.031623776033143 567.7456718176061,18.188382986723354 565.2422452752985,11.17774355792028 562.2179537199215,6.6730802376474685 558.0276341726366,3.547100864143431 553.7669774708379,1.5139930581649423 549.4794972908994,0.19114449537289602 545.8486037586212,0.0 541.6696594467294,3.032932278830799 537.3720799965431,8.243290306479139 525.5620521015607,24.42271579578471 517.5146321337363,29.134093523320985 513.9272902258782,30.13541254649556 508.9250624400426,30.89067424597681 505.2907989106092,29.48897267392897 503.13493301855146,26.948684399432977 492.19415029938335,25.021438457235945 488.5615828884104,29.82440828989695 487.8638206734833,32.751593336529936 488.39647127732195,44.614659845187134 487.69349291316615,47.21386558963104 485.7066044629805,48.554824456435426 481.45739719671985,49.66805460922217 474.33661040737064,50.27374346607405 471.01179799293635,51.58597297027575 463.83490099145615,61.7299982275448 459.63436786305124,65.31641927503881 456.823369917168,65.7822285098124 447.75007045600864,68.43649092677686 441.7855266316773,72.19453856722282 437.137104305128,77.49262253039171 436.917858182934,78.82496433677841 439.575230494858,81.92230471551682 448.1980060170838,85.90179938397762 455.7164398647467,89.88545170006205 459.0280521189709,89.88452841294088 469.4217754234963,85.24463965692473 473.40838422298674,85.23792539623423 477.16770963924097,87.22141938750156 480.2638773451545,92.31106793455967 481.59460006528013,103.14239781581409 483.8074084707556,106.01148769755196 488.4595090230717,105.56379245331982 498.8624975616082,93.16823221913035 500.2209486414257,93.64102041502485 503.7453587461842,98.12241236332886 507.41467898438964,100.14186472806534 514.3826388149974,101.49402346980321 518.0649146868968,104.71492142798309 523.3442058673809,111.51874934007617 524.008868420169,115.1015894045023 523.7960216126104,118.70999335082217 527.1778653003656,127.7554542620461 526.9910468530487,138.81920465469295 528.2972965102017,141.21560377144465 531.8869292748426,143.26468524087625 536.7784994910755,144.0208420392736 540.7687990741048,145.6799688150959 544.9873664160016,151.55842781229728 548.015248445562,158.14390767467796 544.1501363775769,163.74901335553523 539.4093299534862,168.99945858448996 531.5238027092809,172.9188301579536 529.0773874603352,177.38452912972252 527.9606177762745,178.30922443772977 523.8820071449062,178.39129055999717 519.8735102711065,181.39455997936352 516.1948665369769,178.99209281113713 514.706291816284,177.19074374280297 513.1790607010334,177.02106315591004 507.9387707917692,178.28221832257339 506.18272904867706,181.02239069786515 505.435663320556,183.51365081420715 507.1822788655695,188.5054474966738 514.9287295655643,197.46687979957494 523.4130028214528,207.92427520670117 525.5594433436054,211.95367770611665 521.3389454712333,220.800230573131 517.92368390645,231.07054447661312 515.3717132838134,239.9559670581002 501.64316367986663,247.6372359806719 487.11561153091674,252.1172698803781 486.0040197747526,254.34276036633548 488.5105171036479,265.22480021391823 489.0717587916286,270.24346192934274 491.8609981603161,274.7068049794258 499.96172556202134,283.3371174368143 503.7366959544137,288.98412870363734 502.83713141759847,290.5241089552726 502.98456343226144,297.41847365498586 500.6243326409829,300.17205492133576 497.94472608951696,302.3199854059924 493.24728636050776,308.42742314592533 487.56846270909176,311.54797996261357 482.20629416397526,314.0690351773162 480.7397819723665,315.5018148067496 469.8745201633888,315.0968313380663 463.21749099106665,316.83218952204004 453.12278243141566,325.96099356806815 451.0830130884817,325.8007638637266 444.4835174969883,327.43333343435256 439.7286996318492,330.2155965252149 438.0418988649502,336.5541976785006 438.50578805682136,344.04620668919176 439.22049785593435,349.7463578626807 438.6937982465346,353.6570336532635 435.1147853200207,354.9114669844232 430.5691370110883,353.80631538285047 428.43245473788414,352.35442224802637 426.5750201333581,349.97441823679026 423.2059023685576,346.74064145619525 419.548541918056,344.4066799732233 415.63526701059004,344.78404550833716 400.41611648950794,351.0661984499276 397.15322445905116,353.22536412657064 395.7456837263713,357.7553289780525 396.3364915278928,364.43415248554516 393.50259946728573,368.76296243853585 394.83018549156304,373.4040792681086 397.37790946265466,379.7075772855683 396.5689896719813,387.63572526530413 393.4760631086637,390.7125149724021 387.1641829170983,393.60525303020813 376.07036100419595,403.8191816587716 372.4686089335306,409.767797262613 370.3815633790807,414.71263827978026 370.337466492238,421.9618947794277 374.1334846394185,425.079624121363 382.7059255350759,430.0028084863042 384.7842632600532,434.274701529713 385.1265727103819,438.244045148593 381.7049232586217,446.151250662501 378.5515024858542,452.0297744847563 375.02562044667167,455.05132777825685 372.5275105134264,456.11169957510845 364.8205532490101,456.3317116122935 361.1934275358755,458.33452810231734 355.8359931973898,463.04974445258625 350.34492165675186,468.87286255935686 344.950422086033,476.0328927217336 343.63904436998695,479.20407903682593 340.8107580197507,491.53373822258254 339.96776180703523,496.1831745290304 337.3523242229463,498.7134836290648 333.62821620778465,501.09125621157835 329.71391632228807,506.4279614765979 323.71309186991505,508.09154121504065 316.68049611030386,505.56046495836864 313.9983473949839,505.09999502888644 310.8171693377977,505.3333118849459 307.0368519981545,506.87258382177833 304.7246366831232,508.66809312726946 300.68281993477586,513.8140930999995 298.4378368195556,514.7771512822001 291.64963548843156,512.2232343796425 286.84908429448865,513.4531254821194 280.70391182044904,513.4589541723365 275.9801898519234,513.9017731887752 273.66616218130605,513.3881466609378 270.22309835551414,510.5425738892439 263.17137619811194,507.47375481161066 261.4887353949521,505.13314106819223 262.2775257687657,502.39186430767217 267.7458781707022,494.61975778813525 268.4530207488506,491.87995648864063 266.95282527595094,489.96495163815354 259.7864521085673,490.0806176290076 258.01790517963025,491.35292936099677 253.95576330292033,498.22189599211356 252.07304859782874,500.51972654077343 246.72999111816793,503.96486114769004 242.90388518044608,505.3664563604576 239.70528317869602,507.368278768338 237.03885847122694,509.9989225724641 234.38038086522923,511.8992308699046 231.29308358568105,512.1846636619255 229.97535154658442,511.2327277457572 228.31178357613754,504.92382496626516 228.84075022087856,501.95095970434755 232.39597491308496,492.51042949994593 231.9914857452611,490.0372711577989 227.76303704643834,486.7323793152745 226.08502091862943,479.54851068350814 224.62731260061526,477.1136139572357 218.01405556082955,471.0894596410531 217.75632553222755,468.7318716564411 221.51833895726497,466.2106657491549 222.42477345578928,464.2511862282922 222.6080427505582,460.29117201960224 228.4687735520587,454.4116930133364 229.21093785736426,449.1277395553278 227.23746358587888,446.4752795391854 226.86961740953478,444.8230528596025 227.1240044978507,438.0530887868637 225.17013642250518,434.2049003432526 225.0079924151015,432.07421562782645 223.5801802446477,427.36003872526015 219.48612380417381,421.87480619013 219.08840561211022,418.59093965217227 219.95772306095432,417.426926312124 224.62718634232957,414.1681850378092 224.27131149965163,413.16387990284346 220.21188572588653,410.6396316002167 217.13563107868208,407.54215902585895 212.54621935507956,397.855375082568 209.8934570125266,393.35599291963786 204.935390440638,390.9031378134033 201.78856496531162,388.91852685879064 195.18558610003106,389.9963920880888 188.076447835012,393.58115299150097 181.61742307909188,398.65664533990207 179.1247486312354,403.9516263698598 176.5885760826448,410.32440669664805 173.06649573132802,420.9979957051847 173.0616602890155,427.5171870050524 171.1331087287906,435.7380405160319 168.61129646855116,441.7634402239004 159.85389903573406,447.24693205040035 157.3483877795214,447.9386495982269 154.90432051422206,447.5174900550874 139.40067981566042,440.5123029578375 135.70388169761316,438.15326323176697 125.32997585042855,435.0572737394133 119.91237666356757,434.39704619762705 112.97893154126959,434.75867333793553 104.41508661047502,437.9101290319404 98.2220958724482,437.9458345742899 92.94448276749368,434.7672307816974 91.27093459909159,432.1350528608039 90.73094539025182,428.8441875575533 91.78612613771195,423.1109033429226 88.84235108002743,417.5192965949139 85.21858099292298,416.96360650332093 82.56617220890463,418.6330314835575 80.25559479588719,421.043826975274 78.91716966509182,425.324976749363 74.78816638774315,434.97874452813454 72.15549903321431,438.3601175884005 68.25739263908227,440.8443542978728 65.14062505359873,441.0914261853367 58.78273544149723,438.15793142660493 55.76767188556539,434.32690620097276 45.55733478418668,442.29959656855294 41.314707383374966,444.9721585562668 31.774402070987538,452.6500704835179 26.81405945887632,457.6589661361895 20.940549298547392,464.9446649739288 15.144627617755464,470.78758571725126 10.23952338978576,480.2999525630206 1.4040033402287915,507.70702528599475 0.0,513.065439682144 2.3803320808631505,522.2535838476921 7.148072958520462,527.9443377978523 12.033349438798162,531.4727495736342 14.793073604169775,534.1609789853476 16.59254330386939,541.1341470985524 17.56686449904338,549.5264652530366 18.20682695528352,557.5240340774365 18.29825891122037,562.2481446708944 19.501489674176685,566.6519221333424 23.630113557113763,570.8680509763601 27.826829722709615,573.6322632623587 30.49020921580232,576.5774401301851 39.7040441303976,579.7938732874934 41.2372154402002,581.3267608805188 43.05789217917177,585.3271047225949 43.474074955468204,590.4287822000208 41.975268638001204,593.1921418286844 42.97428222652893,595.8475225028716 41.1917970205285,597.6854678214559 32.46743766714736,599.0774680086954 30.09131506377401,600.9334432256726 29.518857699557543,602.7503544768197 32.007485393407485,606.9048196406995 32.815486415857656,607.3733564121269 35.29509152145025,612.157092737651 37.07839027148138,613.3309206080257 41.99574210994022,615.0890489083536 43.96662129192082,618.8234714881462 44.55129207343788,622.4179352722113 46.318957478031386,628.0433166360407 50.79321524189999,630.7124633912549 49.15555979450174,632.666199225856 47.46717471026799,638.7094834160403 47.91590340954415,645.6002687540672 50.14583220710267,651.86883828806 52.693359476008176,658.1208386001684 55.803065056054166,661.9552439764207 57.99700433990694,666.7074787805992 56.28249898407376,671.2564498672062 56.3770534684601,675.4617573144633 55.313228333475244,682.7004838187205 54.84911672290321,689.608686810267 55.9011962641252,697.1023623999754 55.71370099048517,702.2176480389948 55.140931892955706,704.0267343923592 55.771059965123456,705.5216524599766 57.29850804821066,706.0880122473493 61.20181663608608,704.7965715161693 65.37149347799958,701.7028327165586 68.88361880712493,696.2110653060868 73.06858624261595,694.0109215685427 78.17073762755538,692.6887067312475 82.76890746240475,695.2920333626253 93.00449842967578,693.8621339273219 95.46999696659384,695.9097193183609 110.00953526821993,712.9990787416015 111.55805622673782,714.1764738279685 113.36125491274424,714.1257207597505 119.0581366905103,711.5966783478407 121.46537784849782,711.5367377565843 124.22912196447292,713.5771438973065 128.54136087357557,717.9932051319821 131.95732837743628,722.7262799316139 134.93267388264854,734.9714658696015 136.36043212447495,745.4543731071321 139.69139420738023,761.0014805476262 141.9321970852952,767.5734694528846 143.78881875627823,769.9325662811325 146.52540155769998,770.4688884247978 149.22673116315445,769.5077680136667 152.19306123564414,767.3450296874508 162.11411551488447,765.332348253795 164.84672484272193,765.5657156896683 168.53980324467068,769.683068435271 169.5225461620847,772.9706250417486 171.06649847254909,775.0433719195926 174.09664588222844,775.8846998214167 177.69986240548297,774.8975253550498 190.25310655751915,768.6352097412869 193.55330604191414,768.5662112943259 202.03405458031796,770.787794078679 206.6039123593006,772.8055215790397 211.22198281501898,776.9227401506148 214.93273580461695,781.9425730136262 216.25729016075388,788.2293912738586 216.99307859364248,794.828090248951 217.45259717786718,802.6208067442003 220.66738930967617,812.4812937076148 224.95760515719354,815.9939735934374 229.49776361069596,817.4094284872849 232.5451991086296,819.1437290639014 237.16462157087864,823.8738756719114 239.04741718555007,828.0420569260509 241.8192212034615,830.9876265950118 246.9862240745073,833.5881636601016 252.70847247177124,833.4833927017216 258.338948123923,829.4708604828605 263.9362655270892,823.6673189421767 266.87482268317524,820.0051665658285 270.4187376216904,816.9342053098256 272.8182418235995,816.295460334718 275.22963853693403,816.8455015111456 278.3333833432941,821.6027135836481 279.85778081296917,823.0726870930056 281.67823557576844,823.3497162354387 285.2676847495697,822.6699011481186 288.8225756872842,820.2023575551455 295.50184838124414,808.0650345987887 297.88859781618186,806.8253584201091 300.86239423928436,806.1850338813688 305.10959559672443,807.3029725882277 307.8456974274669,809.3620564469952 311.1864899272724,810.8074203716801 316.3090459828282,811.6060222112936 322.0054804498674,811.2173114120151 330.04583927634036,807.7692571919771 333.9857089465842,808.909684123996 336.4467165039449,811.5586305394557 339.1832560218481,813.6172989881159 344.3007703328275,814.1329791451705 350.5826405763392,814.3159104879136 351.7374929809713,815.1536283171258 351.28655332489177,817.910902407292 349.8621060284136,821.2447851649878 346.067304497501,827.3010646627841 346.1181717782047,830.004713877365 350.4684189283663,836.5463582286859 354.4539608175902,840.0700524203116 356.87752577037224,841.230781977545 359.57940222605026,840.8880429179482 361.9063205437221,837.5370445963073 364.22768327905777,833.2903523785811 371.59448731247727,826.2607930629443 375.985464887473,817.0795014719497 378.77520924929445,816.477724589283 383.3598648797177,816.9851530794741 386.16377346435536,818.1824288223307 387.8364667426702,819.8680173753365 390.35855232400263,829.9621128003017 392.37104177830685,831.6506655730147 398.23881595693314,832.1680222262254 401.0203936258635,839.232258958089 402.90572973041526,842.8061766451308 406.258043419454,844.8522392196487 414.4337684899637,847.4004507763028 423.47907884731393,848.725160762544 434.4003702230766,852.125068766914 438.3390198354427,854.1514420535843 441.70889706220845,856.4804849590886 443.30439351599176,860.9539104936898 443.9959407021735,865.4463586361084 444.756960291488,873.5364245679068 443.4146563430494,881.0756643859556 440.8902914457021,890.1359139219967 440.1421031783214,897.6526007310147 442.43074025390194,898.1399749833313 442.8351484411106,901.5686830636753 441.86828529834264,910.0137667579 444.30462448546353,913.9158664737657 447.2244240743544,913.5945976729388 449.3309418969636,912.1376996827166 456.7923404177223,900.9237414722704 462.15834652121254,896.0585014100583 471.1002182351312,890.3634521603367 479.8201785555561,889.5645268809919 481.96855195803926,888.7356765744903 482.28464913488216,885.9789866323691 483.84250109574396,884.787838006467 484.21870987819403,880.4118214099551 485.2779712648252,879.9700593412009 487.46322243424146,882.5785866111938 491.54834148629516,879.4186247904302 494.1036044088367,880.4931727669543 495.37688330983906,880.0014294433913 498.21404857764054,882.2942812501174 501.73893618158326,880.9824389641078 502.34269809608753,882.972017687064 504.5197930673062,880.9105728549417 503.6777806657373,878.3216190977573 507.3610840234128,877.7099690289693 509.08550892209826,876.6903865140928 509.99670710654993,874.9896559597187 513.4402980604749,874.2185635572955 514.8808427186689,877.0606810604401 516.2089895763226,878.2679011054781 518.5499773462361,876.7503286472795 520.0112439446194,878.0195680905176 522.7149617703159,877.1619422081277 522.6578288163598,875.3540479797123 525.4894521123568,873.7163075950576 526.4625800098174,874.1450289503586 526.7509623493615,877.2826570289867 531.0290349760038,877.756526926694 530.3718322032937,876.1970560414036 532.8930236990934,875.4627499213013 534.8908884283595,880.4497482015511 537.8924522057188,879.6491043097474 539.0381171653063,880.0286156109628 543.9291388677636,879.2377840273438 544.2256778153991,878.143642940073 547.4949241924248,877.9053260560031 549.6597271898547,875.2489502903668 551.1066886786098,875.7864374447979 552.6546138735574,872.6028656567979 554.5671351843959,872.7651643897057 556.2448370762361,868.9039296546283 555.257719673073,866.6933901023207 555.4856880337449,864.7504704761775 559.6806328481966,862.0630272254882 561.3673732564091,863.7754105469344 563.6028406938035,864.7544837334868 565.5007538954578,863.1804431900139 567.68737895288,863.7219778918253 570.2536588758761,862.6739585565556 572.5868653434536,862.8749864132325 574.6224214786597,864.1039769144948 577.4486476885718,863.2257343211169 578.1968146900185,864.7280603782327 581.880120228202,866.7094712610625 583.4705440152093,866.6776195888357 586.2523560255498,864.1550821498465 589.5590010349008,859.6472637352371 590.5378973931062,857.2869951617163 590.1689662814631,852.6888624910885 589.0001505499964,850.2265940702777 588.8861788508038,848.1185358823467 592.874505854299,838.7532165881875 594.8559678125218,837.2244659933518 599.5457602895839,836.7468362795435 604.2338042760313,837.6760357902672 611.9806486578727,838.1222454851627 614.7958540718523,835.3051554570635 615.9644403829637,835.1900501914502 620.7779680135751,837.2866476288835 622.6454066651671,837.2851136108338 626.9811852218094,834.4732994526787 627.3306633647576,832.4835768344808 624.9844759739552,830.1463038382739 621.4784525191045,828.2804455094238 620.1849331475438,826.7530256032554 620.4118367862966,824.2989297771858 626.2816925312544,824.290393970432 629.445778103204,824.9848746213434 631.4347771163627,826.3877094167979 634.7076517401692,829.8937740978773 636.2323756183891,830.2381797989552 638.3487029273065,829.2992496298272 639.1672403936874,826.1390650911039 640.4478802051784,825.5467591223038 644.3130313252298,825.8970793175782 647.2457553046897,827.3278549297777 650.7524822238929,834.2011749764969 654.6243850481378,836.4155406091705 658.617623466725,840.9854267559599 660.8319515451728,842.3833919755497 664.7014063129509,842.8531308562458 666.3333352483771,841.9143443518502 666.3346079754368,839.4568682818227 665.1641077667296,832.9002970744795 669.1475540860466,824.4668035188672 671.2482677502518,821.3085189492047 673.9384228079606,818.3841636698805 679.6775452778463,815.5705953883028 685.0368105238894,817.2143116931924 687.5094472647951,820.1603184858843 688.4992939866087,822.4333679324416 694.1791536602551,839.0486519020249 695.241346709306,849.7557863878246 697.376465812133,852.7828165802779 703.6186699748232,858.3197335426206 704.151840717959,860.8135363742492 703.7999742658881,865.6380088111321 701.1295563642929,865.9944303535669 694.7057781977601,865.6332360806541 692.9189334842972,867.0596864699083 693.6353694715834,870.4535388557724 695.2384962666285,871.5183259969698 702.551443253167,872.2349957036554 713.7737929922663,870.458714381139 726.7864794854564,864.4030364764058 733.5613718495905,864.4072547353884 738.5431413062796,866.5528297642006 740.6329868530971,868.3279807077312 746.8934120638842,867.3013992019555 750.2077841731992,867.2321574474944 756.0041639934285,871.0228516692209 761.1269760772137,871.5291794572146 768.9203275180905,870.1763553993407 772.8546179511759,871.2909621452329 776.776856490923,871.8299928594338 779.7527800279855,870.8635121043516 781.1742908940561,869.6079313436348 785.7485322367982,868.4325895323467 788.3872609196072,866.5045368522262 791.6054906584228,861.9472580098325 794.5011217932353,856.1742178903617 798.3214828451546,851.9069220475046 801.8386967009164,847.3446596731036 801.9816780132245,839.545936522339 802.4043613160115,831.4210580370664 804.7431026560484,827.4783502330558 807.9728460055358,823.5166895616273 809.0969990965417,819.8930883482288 811.1238028271912,816.2581838173598 815.8518727961144,812.2739672139561 821.8155457575574,809.4511127865316 831.7158216768552,808.3628238832266 841.3091280462071,806.3940402493422 844.8757267666186,804.2243175099802 850.7135842242883,795.099527332463 857.2546366908207,791.9790984103773 863.8088923313676,788.5489452802557 865.2719774596163,786.4161853601936 865.8181708294064,783.698988980152 864.5404967895689,780.1361180038872 864.1599711886843,776.2431428070756 872.3547510748929,764.6719715202785 873.1795332398756,761.0637232762062 873.0887705396756,756.8631744806426 871.1841883502808,751.8073606589604 869.877299896492,746.4262807738448 870.4312082184208,744.0117562899547 872.4767068274308,741.8678776320701 875.4720701431111,740.9165426261831 882.0611113950937,739.5860228802252 884.4439097777323,738.3370348852054 885.0370703603046,736.8176300637645 884.6773154645962,734.4323118916778 881.1483906944546,729.2004053293185 873.2478132941507,725.3171921920921 871.0891859875459,722.2845447722932 871.6226455825557,718.9302391551934 873.4699047130017,718.4974810195239 876.163731988365,716.0097900885723 873.6710399781921,711.2412416775207 872.7039850871116,708.2569787748569 872.6389918885671,705.2531970832475 873.7777417195425,701.9409850750607 876.1354179897244,699.4873570854498 881.8361045074766,698.4772207956375 888.1489605895903,697.7564981007033 891.4229796479572,696.4801007748496 897.3907429444862,693.0705267640751 900.0768249003974,692.0986137737099 906.7496666264119,693.7704490073543 912.7997433199901,695.6481395082096 914.8774373556115,694.4984234061376 913.9059704982233,691.340861494202 913.9042149906231,688.9019777475014 917.0701650624758,688.7869812051455 925.7005140813413,690.3601051354221 932.7478488768014,689.5034356250208 935.3158654557719,690.5970818523903 937.4975119253377,692.8145497472865 945.0974515319369,696.556602872481 949.9351519735582,697.3445037373319 954.4406389975743,696.0587544527646 957.128265454043,694.1898946114227 958.842889570249,689.649507477946" /><circle cx="584.3694995205839" cy="520.8125223638986" fill="rgb(100%,100%,100%)" r="16" stroke="grey" stroke-width="8" /></svg>