<?xml version="1.0" encoding="utf-8" ?>
<svg baseProfile="full" height="1024" version="1.1" width="1024" xmlns="http://www.w3.org/2000/svg" xmlns:ev="http://www.w3.org/2001/xml-events" xmlns:xlink="http://www.w3.org/1999/xlink"><defs /><polygon fill="black" points="440.3183680429074,0.8516252506045703 431.6232770599646,0.0 426.818955809724,4.203459124950314 426.8245138122067,16.182498116914644 415.41673767093647,22.783793298199384 404.0300964684164,22.20380261835578 398.61943106050023,17.435937250144207 381.8209231196035,16.866406924216562 352.4216457859016,25.00707710574227 322.41391705902214,25.06799817310332 306.8032701885886,22.707175009651564 294.20728117947675,13.16868594395828 276.79563816247924,2.424043852102045 270.79363791324045,1.8382737188509282 263.5903618148407,6.047638254407843 261.7965087049868,15.032432418998042 219.7069426993573,99.55533977841787 205.30387696618664,112.16056501549599 197.50485961702967,116.37085469721478 185.49371102261844,113.39927845587613 177.69632332210935,110.4219312162561 168.08725572325343,100.86599436317204 142.29112069665965,77.57137249618518 123.07623512881011,66.82748324998045 106.87691806771909,54.28917526688463 101.48629649803618,35.74127332319415 96.6800302776449,23.775356597368045 84.68280031748749,14.821962037615094 75.08797067207215,13.640213383521996 55.8849285582141,16.65881934954757 44.49320717648274,20.27294553812817 30.091081603341625,27.4787733006699 18.096819662500323,36.48291031342171 0.0,68.70244137109853 12.595800343196856,75.20873581427122 108.5182454820588,145.08072122139163 243.5793408844411,282.6382959291824 302.23276310851946,354.3043195768584 354.6648893485602,421.55885434307913 397.5978368944471,469.55749080128686 424.63241901534917,501.99685231233775 530.5103596146116,623.8179796588198 542.9743619314268,642.1196116950001 577.2922044414504,612.1986238201666 585.9575005593582,598.8085977407162 599.3475476095891,594.0858064656753 640.2980572080173,602.727491931741 653.6769405799921,602.7116515721325 660.7773212452267,599.564493295772 665.4930216948529,583.8174689917836 662.3484987862792,549.9858667120627 665.4867113431147,542.1127326944311 676.5081784489132,535.816748818664 702.4912288792259,537.3853771567656 744.1799246466529,538.9907104129067 755.9812836470938,533.4804297080603 757.5516687620496,525.6191293432898 750.472979333139,495.70144704292693 749.6891540800033,480.7450863268883 752.8356634190876,466.59611827476465 764.6433331957705,458.7283551768036 778.7884177571569,457.9554006459075 784.8667416085653,459.782125438814 803.5700011232182,475.7747137588963 814.4794783456547,481.43001190511814 829.1561115274935,482.95333412236255 833.6805259490505,482.2035391581122 837.4450879830176,480.33263137713743 838.9416854393093,478.0723064188636 838.9340580262541,474.6873766141049 836.3021426317141,473.5478908928679 821.2634623029543,473.156599563207 814.1153930912974,472.00234980579233 812.6013267606937,469.7472638019059 811.4731874144958,466.73276591162437 811.4779941664198,462.21090562950235 813.3494643667843,459.1976986446231 832.5387678503873,459.9841425975265 840.0634528851972,456.60202135166287 844.2025969051001,441.1640680143639 842.1929834140935,432.91825236229613 843.2514150287817,419.4706132912994 848.7424205392018,413.1930756939587 865.2511877343168,402.1961856358611 880.1823109386496,398.2897715324757 897.4673061216142,398.32381262530976 906.8881915101861,399.9240413751224 937.718765394505,400.98807526610534 931.7487838450321,390.22144323732533 933.1714297981864,384.9230511084265 922.3885509918058,376.08987649131313 921.8237988465304,372.3924457870259 928.0727184776575,368.42344789421696 932.5992062877826,360.18357091469574 932.8946696991858,352.2241461757471 929.1997603466181,340.83807638829984 928.3563745243472,330.03781583290913 932.3136023323555,315.6918496396475 936.3572371322708,304.8974829207759 936.0801691482059,294.0885025409892 930.9638924084568,282.7017702707569 907.9805540898103,256.7678851159747 906.2838919619439,249.0926377484538 907.9847693156573,243.97301553103398 915.3543411574027,241.4319745150832 928.9731751896024,239.475798536487 937.464110974539,234.15516722785708 944.6212699454416,221.77440564596054 956.037879492105,209.61380914568502 970.252653093047,209.64545281467264 985.7548172827728,208.1363190852157 994.5305146037445,206.08951615102052 1004.3509260357104,196.25981198170763 1017.7942308081736,179.2015889362823 1022.96203823728,170.9261761949478 1024.0,161.59540436078015 1023.9970764869593,156.93220846033756 1016.2467226419378,151.72983494281897 1005.3901152441467,151.18426289922007 990.9288972075764,151.6554683951693 974.3771195018703,150.0602778564566 948.0186085210642,141.1887528481522 935.0917833052962,133.89967764481304 925.2714049805353,120.39946017942952 913.3778734212005,108.96283881745308 909.4371142742575,109.19706563413365 891.8724721364396,121.95306007912677 875.4652775325522,135.55823740678625 869.796243125018,139.64008630119923 865.661259764907,144.17187384260603 862.3069709988048,150.99361366348768 856.6864605060769,168.8912878930389 846.8781669339313,187.96146593946986 845.731386246153,199.9707606404907 843.0555260583009,207.1879588376126 842.1113484637364,212.8118729116211 842.9170966988945,217.23425084747947 845.0415607973292,220.93208348495625 849.4016514977162,225.50112194162983 852.1564789717992,229.92227286367068 853.3168602939363,234.13128345352163 852.8935651114567,238.0510425788092 850.5590008888727,241.69567670607648 840.1152835662965,251.96852742974585 833.193992399533,257.08259435014526 817.9429585203545,266.4873571447175 815.0290551410905,269.74228133885384 810.4647168418411,278.46961154876055 807.5474637741437,282.3218595129753 800.4184847340998,289.90924153625036 797.4132484086157,294.0187007566648 786.2301984842294,301.6471296545853 780.1984193515287,304.35495888336936 768.8798323102029,305.62472741457844 750.7849876273306,305.14059226182184 747.672678217616,305.98085650382217 741.0722278428701,312.6020959520564 729.8087658513122,327.24380019598505 713.352443811209,346.5034269799826 701.1203605830062,366.9225027618425 698.7683716050187,367.7083364012343 697.2004324050557,367.23878570736 682.1561401610209,350.8571875011404 681.373575296659,344.9058551727385 684.1974579094383,338.0036001421442 692.1928476436262,314.7356837875676 691.2512430475738,312.38186345397406 689.0473154819688,309.5637763232579 678.864850717916,307.2115599371561 676.0451400808188,304.5498238469989 675.561124571641,301.25654657302346 684.8184163433048,284.48426783548564 680.5935169400855,271.0754458525241 664.296801694959,237.77316023661888 656.293162913773,231.04500053577704 653.7780542936601,226.50010249556118 655.3519979506577,222.58276995804425 657.3875485604357,221.95238661470364 660.0478386908921,222.10977873500235 663.6627370263694,223.6767839168652 673.2133220236058,223.67425727619138 676.6669323238721,222.10730697038667 678.3006529453427,217.87496498147738 678.6207513281815,206.6719298410756 679.562130115949,198.3570182816335 683.7895667327442,183.70978420959312 679.8810511359436,176.1833350275935 674.8589451466463,169.29037780171376 667.4902175337529,164.42917154409156 654.8948631188824,160.4924096344676 645.4452090103941,160.50072981380475 641.1217897081386,159.4178946935096 639.2345308331476,156.44434236836065 637.3441753805794,151.04928926184698 637.0682489501863,143.76006499469656 638.1522793002047,134.84735123511678 636.2672850417796,127.82723039304301 633.0199952716008,124.86494621552629 608.3990273733828,125.20292229485938 599.3151855548457,126.46176111624015 595.1886289580999,126.01380430873917 591.517140574168,122.34625620687996 587.8575614482289,117.31052652454434 586.9485764270967,114.56462430331385 586.4820222292475,108.1560102323424 587.6727028175187,102.56375222479062 584.9332625745752,97.08158982500879 580.0651463354765,90.88103493528854 571.4259846384575,87.37841050880002 556.1235028410547,84.98419517190348 527.7796227240933,91.99258390424609 512.387931663444,89.46271481341682 484.04079931968766,92.36476699660682 473.7461048887529,90.00962214114315 467.0203763684875,84.09055182437169 463.0600284747538,75.0149775493727 464.6434911095724,61.9773135303102 472.89337709410336,40.46477814385082 471.6916373226186,32.94732704043645 468.49135580412064,23.67656587341537 464.7060609532397,18.756153577951977 444.8589417247137,9.373065544028805 440.5233594833446,4.13315460736851 440.3183680429074,0.8516252506045703" /><circle cx="111.16358932980613" cy="111.54526777188676" fill="rgb(100%,100%,100%)" r="16" stroke="grey" stroke-width="8" /></svg>