<?xml version="1.0" encoding="utf-8" ?>
<svg baseProfile="full" height="1024" version="1.1" width="1024" xmlns="http://www.w3.org/2000/svg" xmlns:ev="http://www.w3.org/2001/xml-events" xmlns:xlink="http://www.w3.org/1999/xlink"><defs /><polygon fill="black" points="163.5775743033576,897.817646403028 167.91720022173342,901.2525053172825 173.75886349258403,902.9428060882547 211.3411133233253,917.4731385062203 234.82579377972775,932.1899812946166 255.32124861714823,953.7168013428123 267.5199532378278,975.9651003998525 282.18886445852183,1008.1539721048699 286.847261760554,1014.9404313922781 304.77575561076634,1023.28612076669 319.36152219568504,1024.0 362.00501535355784,1016.9656398421489 396.34813059257993,1002.7469099944665 436.4968291400581,987.0211212595219 474.85090674974555,968.6387390217991 492.6252574925134,966.0679492296317 515.8429116685899,967.990483688498 558.7170982128519,971.8990008418172 594.616461689319,968.578223063216 606.2865117068712,959.2627982908418 615.814108366073,955.0418059789101 634.8261976416559,950.1301528924956 666.6933245269356,947.7719589296112 703.6016145492658,947.1934439978536 733.5732546665724,944.3775482123966 758.222160931683,946.2879616907227 766.2705451267964,938.7711099193134 771.6119377843917,927.6063899569434 786.2067957287694,915.3723821056284 800.7725778967279,908.1777184783232 802.4839811892241,904.6683932140265 803.6744337442442,896.0640331906097 809.4430399977817,890.3401244998194 822.2334308544207,884.5559728645808 838.2481088453206,873.1002118335994 851.5359249005404,865.0324669282261 856.3493322909851,859.9198834773968 869.7479824568459,829.9837534802393 878.1870425635747,819.9299042203999 885.1501028342253,801.9988850837619 888.411292026519,778.6458908046201 883.457669470757,759.1113939031563 884.2134000250871,747.2697442365971 894.7093856617116,724.1525444808756 894.4044743555378,707.5116871227603 893.1533956109752,678.5776349975328 876.4665900597605,624.0702959920395 856.8655781426374,597.456962773158 835.2985924992895,565.8397193682868 823.9583540928809,544.1583164461604 811.6169882352192,518.306582718573 792.5203246412168,492.63469581802644 781.2237834742004,475.94238405945885 750.797093851333,431.6934194176521 739.4699247099634,411.77527049530045 723.5815440599474,388.320891905693 711.9769080424445,377.106952811925 691.8439435409994,372.38579894156373 679.935496793388,369.8926340629579 673.4551347240775,362.2693760825166 669.8453518021521,338.5250584355664 666.8491573975643,325.7822933944942 658.7708548798705,305.86131963946787 646.3430612502086,301.02748933890314 632.5399257375808,292.6092308165738 612.535739958666,270.9927065005869 591.6334082354914,247.06276594972599 585.1451293748491,240.82047445986098 560.2481825303009,222.94217442545494 538.7212848524133,215.50319988121396 500.41558596541273,211.5335624454849 481.61051789615703,202.7260593973631 466.65627595125403,183.78210388413822 457.7137605615292,167.4302763122755 458.3167278312772,152.40799685681827 469.0829682500286,117.0805729816883 478.6329324801837,87.64224950659434 480.1558566802478,73.07163073451522 477.91470383631776,50.292227073248 469.9577865688956,37.61653788700869 453.5202170033439,35.54171895697709 434.1309400897916,45.012964108976576 419.03674677137275,68.06695519935829 404.7220295696501,79.23928118586969 378.71287803375856,76.00050079240907 366.7247841000643,67.94652029997371 354.4735666044287,45.311128734913495 342.72722078563055,24.92844677892481 326.15269592428626,14.246320525648002 280.3086742635323,3.2839303676478266 251.8641270380109,0.0 217.095423097987,9.436840865643262 188.08270061247717,28.70840571903193 183.3235716205406,34.27752817673729 170.97468136378674,40.38003173320999 157.81625356541122,34.201038022614625 143.83535462728236,87.98907300537724 116.01027322396547,160.1382488351943 98.82794699617537,196.4031223781369 129.5937319102,213.71250328604572 104.59797032926197,249.5823218739191 102.66971803182295,252.10578417588908 101.12324606082649,255.58430081731444 101.61967650222446,260.25698851442996 96.07609726042948,269.2655607139675 93.89249823956669,275.4055845191964 90.6835422417633,279.2677862044851 86.95407966069835,289.58091389806964 83.32797085144344,294.5970320104866 78.42193902629526,303.8583444225885 67.29118157755406,313.3403307270597 60.31712434698377,322.3341362606071 53.55172202733783,323.4407587823107 46.63171668457641,358.2796880319182 50.59386706516602,383.2450954537768 46.65835680054547,418.2528617203933 44.4726250043764,447.01361551737295 58.02578909965348,479.438189991634 46.644092231713735,499.05147778757214 28.82156467054872,509.9559576618818 6.084635335960546,528.4038463413629 0.0,547.5754315665675 15.624917868229582,601.7872262115454 42.328340471655814,701.1113405126669 41.0216835562743,736.9687251344128 42.34586484579727,759.5751189902562 44.02988610674775,779.2566630292654 54.061009440308794,791.9813979255923 95.92094581654213,818.6267918268743 124.77903820075213,838.0221598793582 141.78132392962007,856.8670122450003 163.5775743033576,897.817646403028" /><circle cx="122.02636335981792" cy="303.6676162456223" fill="rgb(100%,100%,100%)" r="16" stroke="grey" stroke-width="8" /></svg>