<?xml version="1.0" encoding="utf-8" ?>
<svg baseProfile="full" height="1024" version="1.1" width="1024" xmlns="http://www.w3.org/2000/svg" xmlns:ev="http://www.w3.org/2001/xml-events" xmlns:xlink="http://www.w3.org/1999/xlink"><defs /><polygon fill="black" points="681.6281616568691,425.34489818216 677.026967352289,424.4077762741849 674.8572303783164,423.18058283852554 672.1652187766374,417.5578458341944 670.4021212138589,412.64136017082456 670.0009339234098,409.57564377323786 669.287237189537,407.904755962148 668.0654488294898,408.4284113758001 665.786989890831,410.876615302544 663.2658023306715,410.8501084920572 661.4549620424473,409.8851662081481 656.6562900800511,412.41870570004755 654.6619851855563,412.73518894789254 653.2782534677891,411.6741954593591 645.2856986405365,407.7915078386699 636.6288848244842,401.8887238031605 628.2531651557329,394.9704232670258 614.9579434632228,390.06291331624516 602.9520940803023,386.3098447188248 594.1725192374058,384.8675793269987 585.4274190057912,384.04009682243236 578.8608946840659,383.1189286540945 572.4276997828349,385.5830755309785 567.0119527849048,385.8278164305741 565.9972593746493,386.8914718869472 561.6736044287528,396.04844884217516 559.5739840037659,399.18871703936304 556.561990955065,395.409930313901 549.4882320330192,386.0112175233934 542.6747427774216,382.747630892448 535.4708234541786,379.6209820608311 527.6136919449877,373.22660251052525 524.2753209341207,373.5524389753423 519.4178821251603,376.7994649255728 517.4906464943576,380.54102848746766 517.4940755902257,388.2256180129406 516.4810098727365,392.6756910375814 511.42341145871103,403.7006342709868 507.5765081437975,405.627522199561 504.534342761632,405.02026592842105 498.97173897708586,401.78567038406914 495.121891553643,400.17171513643416 493.19842438671526,397.8454665711605 487.5382697862214,387.72459477989673 486.8326078104366,382.6770830481571 487.23377923725184,380.3504939118716 489.2581587211808,374.4797638420084 489.37065324534785,362.51930108256647 490.37963303756004,359.2370377318799 492.19311317582566,355.63987418803765 492.7981879241038,345.281305899896 490.22169133059907,342.10234634141875 486.5587141212551,340.15050496995286 484.0893709175766,338.4134836229241 474.8548823794977,333.59485801900655 471.01231833990863,330.7749961585441 468.6965394366062,329.97590419277833 464.854788997931,327.37053000159506 463.56285624179293,324.9588564736132 462.7516936083034,320.2293937710597 462.6110862297998,311.4864636605422 462.132895287686,304.12598770877935 461.47013223155705,300.48183275411304 459.1334760193276,294.80590184168227 458.3155636513759,290.8445270544639 458.0692973328031,284.1893297191332 458.329063876946,281.55896091406316 457.57021944470847,278.53924670676486 453.1499904474015,271.8284794479812 452.6317169589354,269.80823276672015 453.1112377312659,264.06866727211684 452.2223182952272,262.04083337820555 444.6348402392862,257.3523314169938 441.08173542887073,251.77036846319515 436.00483066046564,246.23111267733952 424.5713400267866,236.25915002431793 420.2574811846572,223.85455258446666 417.4749200188034,220.12701712808303 412.5353434368084,214.22018054828084 406.6612835319593,210.15953487373838 401.7086051533442,207.04394278798702 389.6350324273379,199.8572056594868 381.59623637156136,195.48711157729383 377.8687449156108,194.65000269451593 374.1889586015174,197.19368245736018 367.61070299558213,191.07508480507317 364.07044283834745,189.32638642959853 363.39786562160856,186.91979140335775 364.27283263545496,184.8379903798974 368.4505623892789,183.8116550892821 367.4925356920403,179.3840591031775 367.4259175496942,177.4543857458391 368.6183213017837,174.2145191812558 371.02618534823023,171.60985673591279 373.30848457703,170.3128046864706 376.65767974430213,166.6582469671049 377.8822276165342,158.64645615456595 379.5499170709351,153.30900387724432 382.9958067495609,148.07961129710668 384.3277627749794,145.3000813219852 384.66385566432666,142.96750761220244 384.66492153267694,138.62514174762111 383.67881797523086,135.16970808967585 377.10365907494526,125.00746183226966 376.41216190051875,121.95854982898027 373.9241994809489,118.36295292539683 372.54413930791355,115.4519932791701 370.56716119185575,109.67623758406125 370.5852175857908,101.19790086175726 372.1645752911763,95.86255083618767 373.84228398862655,91.80329408215437 374.0435944700591,88.14497250823047 373.44610731080365,86.86353279403772 368.94709768783105,87.22730126245904 367.12514898627114,85.19867546223816 367.22649758521044,81.71531476156758 369.12909355267806,76.70532399477293 369.3033010670379,75.00851642668852 368.6320474216092,71.82712571522654 366.5136994478111,67.31052541317479 365.6960752458976,62.12854792766632 364.78174171188516,60.23687038765206 365.8845936156015,56.00016703800941 363.95758983645766,52.59421813867891 362.1145269336249,50.65886435725656 355.67982991892586,46.41238651610206 350.1620567923129,43.4553941633626 344.36994771301966,40.68403296074746 340.2348663324519,40.13573773751614 338.18228134404706,39.02927395709537 337.48571633889236,36.308275711834995 337.48429475968504,30.76325909243053 336.5645901987558,27.22742118906865 330.3849104165128,25.72622151881876 329.30684605123923,24.182593588992404 324.54268529245803,15.644070711981158 323.46611841927853,12.415835920431618 323.42653954683095,7.465049145778039 322.9668841130877,5.233437580230884 321.4330323323975,2.8457284999431067 319.2908668877988,2.229759216462071 316.84947648905876,3.199471177998703 310.301879964226,0.8933418801049129 306.5592460287639,0.3816740931763434 301.603536300857,1.4007064142836043 299.1508751857613,0.0 296.1198403620994,1.5355638291273408 294.39488639227767,4.244627370922217 291.60622998446894,6.246588751355603 291.5629741898672,8.155541977230655 290.6979680526786,10.541989773939235 290.4194624237889,15.770579034930051 291.4362277938458,17.91692024382064 289.6709432285681,19.136060875373346 287.8312487869417,19.385258420010928 287.1429524950732,20.319275099142942 287.96738766463966,23.835823875635242 289.38268133570847,25.979073377682653 289.1491675201193,28.573849398399375 289.9225297674052,32.03949531729029 289.36002996149983,33.23844683043558 290.6872407893355,36.13825912032462 291.44805295300455,38.93989763539639 290.7625469936504,41.19265112003609 291.0089073593128,43.89571682563701 288.82079260615933,45.05738884314508 286.3875291881374,45.25988501016127 284.8154477563974,47.17124940557869 281.86368541458984,47.878475396783415 280.7916295769581,48.98955131961429 280.7099618936453,50.59373256968706 275.88246255338385,56.08414981096314 272.46997422242737,56.30343431448193 271.10138655487066,55.568867841456495 267.01208520701175,57.28475135058568 265.0216340218496,58.597117737963686 261.18260139549835,62.793190373210564 258.97813221791955,64.46480373555528 257.47591728132454,63.41394811769226 254.49422841740883,64.95777772124404 251.5207076558462,65.62413679563554 250.29348846048964,65.409351399289 247.7225241417443,62.82369251936143 245.7067914193646,62.77814365074994 243.90175639765772,63.58809366238961 238.1858508400396,62.23126756671513 230.4782406953303,62.708581451239525 228.15915246456666,64.81931662023203 225.76170668519896,65.0517222925032 225.34822775608185,68.89352566515845 223.57711746054414,70.46022352650027 222.91634035313513,72.34398639052574 220.99915311968667,73.91983368415777 220.7295296290563,76.63890065160501 222.38322998132102,79.609664517434 221.63754367237988,81.7383534929894 221.87437670179887,83.46295213113763 219.90450994549778,86.64403691731923 219.6152496239288,90.56857957284751 220.14215077990409,92.34098128364553 218.77715797724457,94.95608238671286 218.7414474721604,96.9998837888046 220.4704063000402,100.41823339906387 219.7291720050909,105.1843037981605 221.7532650272515,105.29220387650639 224.34138608539766,104.3120510283868 226.4918621562452,102.92747277887952 230.9493872567152,104.7435665887441 236.51969146130736,104.9976645159403 238.2485793420483,107.35493731819759 242.9431780550612,107.89207961523766 245.01835900024676,110.01183143187359 246.0085599213987,112.42452306285293 247.97482399413062,115.52634337655218 250.35441319858174,116.61117085650369 253.81537223415702,116.9116739398745 258.6913827244811,116.50758937643047 260.1386257955771,117.10939360128623 262.3281833563494,120.8721051472802 265.01503979944937,123.25288163599816 266.26506872228094,123.64152763736172 270.2509039916393,123.40589124878 272.1868048460878,125.22000520188385 272.02809281947344,126.32533855495637 269.39760329753534,129.389224872701 267.89213616512546,130.58583612915527 267.2897841946638,132.47067174260712 268.97646820462774,135.85921210440767 269.71131068197184,138.9904656020068 272.318649644014,139.5117618127157 274.3892390700041,140.9374399911228 278.4661585789173,144.92033294353428 278.7841239956801,148.57577629193315 275.84231830813644,151.77711715768464 275.7061811119971,155.82343349216478 273.55947114930694,159.51803390982684 274.0233384870639,161.37446301164198 275.52343673758367,162.190364224973 276.96137630422265,164.2647186776503 277.43651495540826,167.5815069834856 275.4043394127457,171.20505259649394 275.30218757608776,174.03630553736593 272.6723246423119,174.36285947026647 269.68183910484345,175.96900926327532 266.6181894400629,178.54749451999157 264.02124892118036,182.23592868601997 261.60154324973547,183.66481706288687 260.4290762873188,185.88057649021925 260.4036934840195,187.2710254016314 259.2341376395035,189.0588773077127 257.5358228247436,189.8991386954989 256.38851197742935,191.5221296597224 254.42823078586585,192.2928012389849 252.0329144508991,194.02775637193452 248.03504612340464,195.84760429730977 246.24889890969826,197.5468544222026 244.10166530602365,196.69369906101304 240.3717099482196,196.41518838156856 237.99234887017323,193.49991729595786 232.61842434938166,189.70793162629127 228.402351847346,187.6646034917435 219.84705552682317,186.1633280372339 206.77403365146043,185.86074058810584 197.11412950912913,187.11581368525094 194.30377934957266,192.69565724701806 196.46320003237525,200.43705095005396 195.82280084075182,211.2854684319875 195.8039621529284,217.7859400681574 199.19936302905492,226.76689892831507 197.32021737524647,233.89491503157922 192.96680086258394,235.75647828381273 183.30397202630795,237.00122666549908 175.2087335418257,239.49093778988174 168.64256518749357,245.69204290219432 163.02802495849548,254.0633127699209 155.84723572234964,263.9785634863674 151.4679688911089,273.89566468233215 147.09705226829539,275.7669296310587 131.8496864418326,276.69897875719755 127.80452816656988,279.48802540003146 127.15423726266555,286.3017112985482 129.93828207324142,293.4200246046487 129.92546592911165,302.101413819158 127.10968280853182,307.67322892130403 123.68432344955761,309.843817656925 113.73135683974786,308.6016748679615 103.16781478611958,307.0472023601345 96.01077534027311,309.2109661463212 86.04847667122657,315.3919562872728 80.44475783228297,319.7232722936774 75.15399433546166,324.37089177740927 68.62722628658673,328.6875401670769 63.650266912003474,333.63913827595934 57.75094098433107,339.81387921409157 51.22164159288473,345.06112292828254 46.87050136387319,348.147028960817 42.347839007051526,352.76847480531774 35.16994773784909,371.8491926927845 43.863119885405695,375.62099135459164 51.56771255930962,381.4541862796367 56.415618415887934,385.56688549277226 61.42495216575934,393.3616788324895 62.591797505805886,398.56124858770147 63.116892758850135,410.2635781383997 63.10756820177916,423.5457254487177 61.4949270666715,429.1733423921579 60.32025199949495,437.5514624423512 58.99369108924651,442.5536718371367 56.804231580252626,448.83138209237313 54.37077042461789,456.96233604292536 52.43547079827147,462.28684938115816 48.41851347741707,469.2615961879234 40.69350294771038,477.0071736779064 38.18194675164742,478.57901392852 32.46919898677319,483.98887694178484 30.20160633177886,485.10829818590923 26.132711318326102,488.521066401408 24.388976634084937,490.89639708110417 22.44884236457533,495.6482929698708 21.287298320292795,500.4979564586432 21.767641409194397,504.14849631255004 24.424554266785382,507.3578134103626 28.341457425245423,508.59288060589165 31.344612842875062,509.96578991879767 32.061792865360765,513.1451631583474 31.477675126752874,516.2205770594167 23.517516576564297,531.2075429617578 21.08478689430174,538.5024362289328 19.978039254735606,544.2532818470837 17.545812252340976,548.2320419515611 17.603076152837666,549.2749622089593 15.00321847972878,557.9541371176806 13.321070914497211,561.0064521250131 10.33130646312662,564.2097419006502 3.0671331152607157,568.6561306732269 0.0,571.2253706071447 0.7770071955406425,575.9525065368642 2.725945865344695,579.6266290045521 6.215889619499682,583.3238288455597 7.706829815571621,586.9912166238028 8.766731224487925,592.8745928939534 10.792752597241396,596.0987403798241 12.053455671372333,602.5139845862655 12.111384091905938,604.8997772869698 11.280821428155967,606.973792518801 7.011078416101424,613.862463277687 5.847299701026737,616.2974576903459 5.749757191046994,618.0390622436731 6.52353316868033,621.149333375244 7.3900794978516195,622.5477169364153 14.984110077934114,621.7526893513921 19.091933541818165,620.4995160156082 26.992141848847876,619.8357112279831 36.260919354854444,620.7934304425286 38.33628298280459,620.032857883184 40.03625630227263,618.6186727253761 43.72705165689833,614.6520404530038 45.42865949692231,613.5144643792896 46.942322293450026,613.6993430658655 51.57982813590746,618.1470031189644 54.035342996142994,619.0020694951286 57.25576862837359,617.6807011065716 61.618241015273895,616.4950939219473 65.66994017298255,616.8283537718773 76.35034883433654,623.3166220464223 75.93899328957175,631.7801864118426 79.39530805432501,632.1682534830037 81.91634532174524,634.0779444353054 83.42572705453102,635.8713235948157 92.49272268865418,640.166465062755 101.34369977706535,643.4597840830659 109.03109153074296,648.0492782444196 116.23357299396733,656.054947974734 123.90268303083081,667.4300120740953 127.3495231593467,674.9893001038254 132.43634155035534,684.0032251861107 139.6317198573687,691.6922455814203 150.01753849537837,701.0922111091043 155.63050251310858,707.9208872215784 159.01997505091109,714.2410239090542 164.08295957662565,722.6523351467076 173.7099850210847,728.9925123955621 175.45677625344337,733.2237003662319 174.9630995403149,742.823227602486 174.74088151022704,751.7946134845663 178.9366520783403,761.7812259049063 180.48990260137975,768.4970923725656 180.80912971490605,775.5900201881299 182.3103678013057,781.0645475719415 190.73857763851828,788.3881032099466 193.04340363455017,791.059053520654 195.73167381268593,795.5614587537483 199.61638497042313,805.5633273734592 203.76466330931297,814.6306340266375 210.7818125446284,831.9035900668665 213.17279196889686,836.4200279968481 215.9990110519114,843.7028256917467 218.6559853354549,847.8177931898721 217.8911633371415,850.7560925441876 218.19827383555455,851.9645361411679 220.6201178236008,853.6193824682875 223.197908771632,853.6102912362945 225.00109273506544,855.3424149252533 222.77626794042368,859.8204204521313 221.91346889948295,863.3141497749374 217.19589939089357,867.5751343844972 215.0286622825128,868.8512225431222 206.98173795524917,869.8222860133767 204.40592314482475,871.1942679612862 202.45832384551218,873.8250404417673 202.33713529395956,877.2621129845195 200.97748712369403,880.5648779147602 201.2756320441087,884.7385909802917 205.01902420367568,888.9081608492826 205.3175363257474,891.8914736735899 204.26888949531312,893.9814153786039 199.07716833555585,894.1517250848494 193.933999291034,895.9222232775572 191.3080053877677,897.4792450441071 185.5484919517343,908.0980224797249 184.93782093952,918.6416314485804 183.239473961821,926.8214773176005 180.0735167802325,930.4240621297702 176.1100083616731,932.4125370678876 173.88115589307603,932.4886690804683 171.943413076157,933.4670224921807 170.13445417948955,935.2650451612058 170.13590009089395,948.1351358285706 171.38300794083898,951.4520485496735 173.18704327818782,963.8994229290538 178.18679553676972,974.5391402910012 179.2976716979397,986.7159218814363 179.7107108028395,996.9486543893951 179.01599734790577,1000.689231628157 177.61707640589603,1002.8448069938023 176.7983323451282,1005.7562065250961 179.34789065441237,1006.5699646949062 183.63167099111791,1006.375636392347 189.56652576508768,1004.6824075154053 196.0412179431469,1003.137701962542 201.22798606819688,999.8675448569751 211.90483081570622,997.9133728765047 218.02855344957402,998.3421684033377 228.46085131909965,1001.8709973575468 236.1615208677229,1006.7538146689402 244.28479050715632,1014.4054207295424 249.80152994094757,1019.3953400944292 261.7679150800244,1022.2335645272547 267.7149014230517,1023.1964674679656 277.0937896661095,1024.0 283.22652643696205,1022.4857304551024 284.9917453947777,1020.8502033686921 290.0378634090126,1018.2033747438136 291.36151478774923,1016.9517097824901 291.2240528376007,1015.0632153480992 290.24772752018964,1013.1810422737896 289.1284887986724,1005.8702380970499 288.9925604426396,1003.3554850548028 289.830023711133,1000.361016805358 290.87354174607856,998.6188292719895 295.6866155870213,995.2042476700439 303.0771614651583,993.4543184069507 308.0269017455551,990.8710936735171 310.25768163215264,988.9955359938109 315.48869505337086,982.2313375893636 318.41257714795887,979.7254390474602 319.59571109128507,980.0038064677801 322.665684527756,983.2126055914167 323.73235541752075,989.1901972994567 321.59411462684517,990.6225212053336 320.16115000139916,993.7864196585027 320.4062696469427,998.3005530319474 319.2408336012881,1003.0846875193406 314.1369172746784,1019.8382659734225 314.1372391349162,1020.8545668936673 315.5685611222196,1021.1621126173299 317.814806363586,1020.4470814718966 323.1226389496289,1017.8998591715093 327.3072508609284,1015.1465702339938 334.6603522659013,1008.5084577845047 337.99250452331387,1005.023253781118 341.1891858102674,1002.8522831382045 343.3024646179036,999.0269284951911 347.2783818011587,993.0922007634181 349.2868863478703,992.748431785687 350.1593133969323,995.276280474291 352.74321723877046,995.7701487437367 355.56818414938925,995.5831806273743 356.4876045386615,994.7552988300092 359.5061183588161,994.0228103647609 361.0194402754927,992.7582932946839 361.79799940096404,994.4149361891199 363.20871226159574,994.1783319092515 365.2517427303218,998.9561993476079 363.88583878838426,1001.3897628552077 364.47018960430484,1003.3462217092855 363.6441219465658,1004.019536683882 363.7420717595677,1006.1647699968993 367.00113127262597,1008.2646093981344 370.1638987605378,1009.0505587225682 371.7186125392304,1011.2448943120178 371.9143569751132,1012.9992835299751 376.14964326037796,1015.7376678144839 377.70188382030767,1015.7454678267853 380.57345670888884,1017.6011881357425 383.62494932446424,1018.1421592226418 383.0140288248376,1011.0625088608476 383.3723415762558,1006.7162887748277 384.55410277388455,1003.236683326983 385.9810618767968,1001.3058948261095 387.6109988038294,996.4661924868964 392.88997859247786,987.8001746253766 393.5329622785082,983.606815360554 396.9587808778851,969.350329353679 398.56973964430927,964.0922258989596 399.130240981373,959.5809660897352 400.2470802961766,955.3944891869263 401.2193837587241,947.6891265230449 403.1097084669861,943.6191202240094 404.6112940985618,941.1638360267243 405.7010507001449,938.1072407678186 409.9687085998303,921.0252190530626 411.4399492282497,913.1118273084749 412.8729948445864,910.2372476897898 418.24393392554435,903.5427555356002 419.7571224991847,900.6053569178113 420.30869856789656,896.9173733658404 420.1109863396317,894.076483875015 419.11830297603194,890.3189709567539 417.314842993965,886.2820267992113 417.01300454906686,875.3679116724871 418.5920194461883,870.79948241393 419.45143024155954,869.8988305594299 424.13032242012594,868.7005214245806 426.14861731698284,868.8173319005346 429.07033693327566,866.3107871818987 435.41104083049873,862.6363584002821 452.87677549588676,857.8714797812457 455.9975285024071,858.357862806702 461.41327358781854,861.5133161308904 463.3142237712008,869.1501626536909 469.29426252159584,871.0480053045275 477.760030614417,873.1509904638021 484.61123324193625,873.7787944396784 493.47467119175224,863.8120804180404 499.4236371191396,851.1924568778663 501.5537771138754,843.3667379326682 504.0881059839138,837.6930110865575 511.92250815127943,834.3211249908359 516.847027556317,831.2513791274855 525.7262084107874,828.3825118715641 534.0868264191133,827.066032710715 535.3366047574904,827.6298438254801 545.6867803967372,829.6289489443295 549.5505399112917,832.5379476588422 556.4275452445324,840.2409966813569 561.6770908492363,846.5642954422221 561.8967004117666,847.463958101865 569.2569834143358,859.2061507125705 571.5244347801384,861.1237111339904 573.6765189912659,861.576423185763 575.0699794625976,863.3899190419621 578.9987272414013,860.6555806912288 582.733472794177,862.1181189835035 587.3476725406771,865.7388880622717 588.8936270323114,866.00130142344 599.4439017129986,866.4581502993109 604.619903601551,866.256003048642 608.7842731971938,865.3437302088114 615.8072828725716,864.8782838967181 618.0742644687273,864.3035272891013 624.4185327517346,865.1966461511793 627.9272805563069,863.4910198075388 629.6270611291002,863.8353135989793 635.7403494580766,868.6811557126788 638.4578801535806,868.7889123358051 640.6067093837904,866.5209618850133 641.0197773939527,862.4945366172958 641.8526502105817,859.060722025727 643.1808493714607,856.9652450860083 645.4439554714968,855.3534959902667 647.0189652783827,853.1935301040969 648.7592488896519,852.4492854276389 652.58235697786,852.4422659213426 654.2349522635517,853.18632611914 656.8131419630472,853.1817438621667 659.5078190798641,852.4889330187909 661.7726151542191,852.4873033000155 664.0527563436661,851.7579331663114 665.8589264712584,849.6063451938559 669.0563771548115,844.3433466192226 671.1657873478042,842.5680560316932 673.8157755962518,838.8396482439599 675.307457724769,834.177595620331 677.7250899559865,832.0199019889576 679.6484321021375,831.3342891137556 682.2475711194561,831.3399129619279 684.0592582117473,830.4299186553413 687.5661723869214,827.2665612448878 690.8435959560508,823.5411448872218 692.5360618453465,822.4068030917238 697.0561295311325,821.5104647151834 699.0953569165816,819.3575376221004 701.8765212829934,815.0320600007893 709.9966598601636,811.555186112849 720.4465597420162,809.5543170947539 728.243398571616,803.6594800582701 729.2942386286408,799.5979308287178 720.8818854172063,791.9395276953528 711.6857213016899,787.3946324276969 700.9150692412065,782.6205732094928 690.1839439288946,778.7674592445853 677.4153447316223,771.3147007341101 669.7605268385654,767.0307409235922 663.9119309040814,761.427688461687 662.035935804492,754.1040567167292 663.4668625851946,744.7802393053282 665.0940838748694,740.0682863416357 666.6262649245346,736.7111410444793 667.0340114615211,734.420516598015 666.9498594068198,725.7782059066725 664.4102778790352,717.5512478908008 656.2776047490178,702.7966202805648 648.2417030268649,697.2980355053348 633.4282764754464,692.7346895074736 626.131199818241,689.6672650681505 621.2940044639126,685.8810492663687 617.9148947531933,680.1722265211772 618.8153602966138,672.4061507915226 621.4519199878023,668.8863801615944 627.7936030277757,664.8898642378875 633.7890832386444,659.6680528034864 633.1543531997667,657.9922144618349 632.6401537232846,653.5912223110207 632.6243047536925,648.9492356286071 634.282302762419,645.9204895869348 634.2211360013633,641.7405810615271 633.4012077358834,637.4545527001587 632.4092753647843,629.4715685909094 629.0761391775503,611.1022473794837 626.1549204714679,601.3450643053673 623.9092844479167,593.1202334918185 628.2738314564706,586.4291456335791 631.4078931681317,578.8804161877239 634.1301820535624,578.3939940883115 635.4753397692671,576.2293914047676 637.722451128157,566.3740194787187 637.9461093793024,563.1659363314399 632.3414347378476,562.5448845954143 630.2906278204448,561.6830956192465 622.4254350684711,556.5546115011803 620.4814411576325,553.8599370801978 620.3973179056267,551.1569715641211 621.2105035209588,547.2467725787837 622.3665693797857,545.0543656252336 625.7752507566667,541.099089763859 628.0781138544969,537.9737043711868 631.5124254298157,530.6393371817946 633.578004189483,529.3290142612188 636.5115160913339,530.4886665519825 637.7761464020682,531.9923845143959 638.6874424310439,534.5739984181149 639.0412985811212,538.0532491373929 640.9995089816066,539.1196488790071 643.6424918295534,538.7147978725503 647.7964411723781,539.0849419296812 649.5673040477162,538.7491970739811 652.3081127792246,536.5317323000673 654.3531695879752,532.3542222449977 653.2357719848508,529.5384524805461 653.4109300242994,524.4463611914396 655.9716293748279,519.4444216939792 657.9197364198274,517.1940710012614 662.4159325567135,516.1768721721457 663.7959048054577,516.7681124216363 666.5118186024687,516.4958181734327 668.2888455490693,511.75648011902854 670.9903814841712,510.0304237527546 674.3332656242192,509.90572135115394 678.6352662126402,512.1256927969923 682.7240070421078,515.3627956998855 684.4347891161408,515.6320276428137 686.2101008121999,514.3968211723386 691.2732806818868,496.5292196336884 691.7104370874928,492.3158806931991 693.4565614472868,488.18263427533884 697.054231637157,483.7851892845939 697.773220868979,481.5871092292043 696.6302872054957,478.4964535462127 693.7754672382986,475.60781643545613 693.8228243645755,473.13972110533916 694.762831977631,466.1067877571652 695.5360520694386,462.0142514138289 698.1155019138218,459.84885693300043 698.9430100240565,456.8518784523818 697.965875112881,452.2139274702015 695.4533584972255,446.5383989434089 694.2923636477796,441.4932479943162 693.8770101715162,437.0548508995847 693.1018868505644,434.36007764067415 689.0868183790064,432.50621315840726 687.2315930806394,426.3731690404546 681.6281616568691,425.34489818216" /><circle cx="291.806191588564" cy="500.09872279922956" fill="rgb(100%,100%,100%)" r="16" stroke="grey" stroke-width="8" /></svg>