<?xml version="1.0" encoding="utf-8" ?>
<svg baseProfile="full" height="1024" version="1.1" width="1024" xmlns="http://www.w3.org/2000/svg" xmlns:ev="http://www.w3.org/2001/xml-events" xmlns:xlink="http://www.w3.org/1999/xlink"><defs /><polygon fill="black" points="243.64152351554898,134.21396713562547 239.90368578742823,134.76714617471157 228.3226866114266,137.25173874100733 225.0448148132037,138.23877972885055 219.2573927068996,139.24459575520603 215.93778930155304,140.5446147592737 208.17366012478954,142.08059066402745 205.10473180162694,142.45412442648097 201.65738097862354,143.3458713376296 200.05295801937785,143.16305730057286 190.88174751794205,143.84439886250175 182.17578887699585,144.79412017445367 179.86497464985158,145.2248124290365 166.69309127972264,147.03529538485702 161.35066303549306,147.08982940833454 145.51087924848898,149.54471786420254 136.3492328210902,151.5479326765436 129.24083114552,152.87078250739864 127.4441871558679,152.81292864598845 121.24127129261652,153.8863625925087 112.36919299250752,155.5652853472023 107.63390850843727,156.79903575672466 101.62604790571251,158.1674913635701 101.14724578437733,158.11804207959023 86.77359149719513,158.40061372981114 78.35753514634226,158.39613087201758 59.78724912588762,158.54036190614852 34.67241982809598,158.77358668090181 35.42111744342723,187.24910776983302 35.663959513355664,193.99333589641628 36.105409821988786,210.1220748408944 36.27669823799673,226.62592999663906 36.65855150464006,240.4425380634768 36.857480620889746,256.4801084294042 37.342221679873575,276.8876901696044 37.7319914282914,290.26349376723135 37.85305635243166,299.19400565551234 38.131577290137315,311.6632962784239 37.85316860337054,312.78853612206416 38.67647718812185,341.74762818810314 33.57889864647341,345.2450870003565 27.771557766541083,349.04506559389847 22.529500566572164,360.02606529881484 20.62517613178848,363.54454273941144 13.478672671236247,378.8152232133101 11.816426589244006,382.80999179757026 8.528555449768879,394.5658235762818 8.230819218022397,396.4963464072281 6.844022147777439,402.7979016989252 4.261253688099893,410.9434924710277 1.6254461020388642,420.1759115768054 0.0,425.1248423260391 0.6698775836886389,427.73227549047226 11.044354976511544,449.74225079907535 17.207330838719727,463.71737259785596 17.411820134407836,464.97243244037554 19.378130822160564,469.46331920081263 23.354475910020412,477.77773267946577 24.965227612318735,480.7662105350898 25.514989277187148,482.4488946798573 28.106156513584068,487.94493141421714 30.37865723656072,492.17088488249686 32.113902065352086,495.8319670562276 33.3737803165524,495.4262628732351 36.19962088676041,495.4158387503565 43.977609532506015,495.06913798819556 52.70948551204294,494.51868161586833 55.057511466108984,494.23601079141775 58.18630653261785,494.6128348633137 66.97815544683503,494.35769020674365 71.71143619130834,493.98813655265405 83.2134209034918,493.68708443321407 83.89518434152332,493.8223872797499 90.24664071366321,493.8730523289593 90.70948311406563,493.6478875839099 105.49995249192243,493.126234775189 109.52263045304126,493.05777497645556 112.53805764373499,492.7946027275437 121.18092703938193,492.73126260945793 130.6171984203709,492.06146222287083 136.19071209469047,492.22387735318335 145.25936412103007,492.1259651833806 148.74409242149449,491.8504966347977 149.6194022471394,492.17838687299854 160.76929918540006,491.58325979959903 170.820598966395,491.2295453004168 186.89582926075335,490.75626247667805 201.35391089380093,490.2813103357231 205.22034707191364,489.86230147878723 210.00969411471397,489.65332272217256 216.46198992014496,489.5555828052225 231.2561067510293,489.1278526641254 244.1405991800681,488.6662970279543 251.32064991467314,488.2019903871307 271.7686131036185,485.9111258605581 274.27560336557224,485.4086388736268 279.10073347525133,485.01017062636083 290.9792370017901,483.7721756240226 312.899011190154,480.95986735317393 329.65283533479715,478.98458891639143 334.890937495484,478.4567905224371 341.04862553506723,478.0035018884948 360.08815275913224,475.49585589607915 364.85903748969434,474.7366183061313 369.76039237054,474.1495770912722 374.3602211399601,473.8663295665794 383.62092442323745,472.9925861790723 386.3766468641759,472.4498589787851 397.3669168876881,471.22968388484145 409.50070822735444,469.62152021110984 414.09935168248705,469.33568263911866 419.3032237121933,468.74762779996695 420.39046380679594,468.81952906077987 420.44782784692455,468.08053364977167 418.4531109659298,460.5829309002212 418.7043664211799,460.31051315643776 423.35457624439255,459.41899119896465 437.07341549660265,458.16046776498524 442.56745049186804,457.2613439613546 444.28535493663935,457.2003071818911 447.45198707680237,457.7001022566292 454.208133059745,456.8049623794831 459.8141202321232,454.9562662148008 462.1515223545457,454.7244397488332 466.0556281820386,453.9904992425661 466.79163187640063,454.14376810870385 468.86598519250913,460.5188465963673 470.13406803577055,461.58277649992823 471.56758180514464,461.7109523381347 474.18089764969346,461.3180122232673 477.79129186771644,461.08184720637655 483.2618225421669,460.1016826092295 490.2412880561913,459.0573003609957 493.16387367888007,458.8412923116851 498.7124104084872,458.0170675449744 502.40895402480646,457.29387752354495 506.493665589886,456.94191584272073 513.3396800116385,455.9367763562365 531.0573060656325,452.8597650029198 537.4876106034891,452.19013958986255 542.4747121431786,451.4250566400666 554.223755383537,449.9486093939995 557.7842132088498,449.8032463597188 563.3012683898775,449.2661481244647 571.4125419612958,447.84349049034813 589.5822853342896,447.71568894248134 594.3819143864827,447.5073957434052 599.8968855724883,446.373324489728 603.6495936251218,445.78946729686425 604.5446780603529,444.9253691873901 611.8196426170348,444.3047474571545 615.5991564597588,442.7788022916799 615.9650702312547,441.98187035812373 621.0720883814208,438.08359827010474 619.4614053708477,432.48008927806063 618.4265370393126,428.29610114528975 618.5200508678656,427.73904386438124 621.4281863612399,427.99686797870766 626.0664904847326,428.8063338370682 633.801113633408,429.583626717401 635.3467457871649,429.9244984394518 636.3236326286963,428.2160626153402 636.3626754082105,424.6036446918579 636.0887439982065,422.36600287189674 635.4743064369605,420.73688617172553 634.2338806161309,415.30308759651916 633.3656297963582,412.4953402612763 631.8801873281876,409.6430020207189 630.2734327640927,407.1297446457038 627.9123059296237,402.339452667331 627.0477182789563,400.1807648316606 625.1243749644133,396.47543916951986 639.2580263350314,394.66334310957734 644.3514340484867,394.07675936801206 645.8750999527394,393.5852951674297 651.162931177444,392.63001845204644 656.7292067249015,391.8590123102399 660.5050561824371,391.6985803700435 666.2108104336409,390.2301565224889 669.0889418134085,390.0214247325709 673.9540458257177,389.1936022264401 689.0905917254247,386.40618884038264 694.0982108486814,384.9719042209732 696.553734976325,383.8131536133852 700.0863340428124,382.75762423450544 703.5464077529417,382.00121233484225 705.1201300380211,381.20212069506766 710.414769469908,379.13355965486744 711.9789126039774,379.68446626900175 713.6103251007285,378.2624410800404 717.6049464815354,376.7837321679942 723.8210401284445,375.6300150299926 725.481860435855,375.9970811846418 726.4876493481736,374.54967998325 728.0819179156524,373.5104840967009 727.774428025175,372.0587516110658 730.9476202912654,369.84705808594543 732.1670099514213,370.91755118165946 733.6193776909005,369.9625623635732 735.6195643918917,370.7566456767149 742.5423981758029,369.8236323971229 745.7438004429436,369.65387586451845 751.6797448859217,369.0623758918232 758.2225173269966,367.50152095328593 761.9122164329708,367.5383689220279 766.4798732888474,366.088827461695 769.5705656996639,364.19605545595573 771.726329034009,363.15285648322777 772.2231558201645,361.5258307870556 773.4434467843621,363.35909476473734 774.1124648907746,365.22376888081783 775.6675101062308,366.5830406257688 777.3927705133163,366.98825998675943 777.2569359730636,364.1575517911446 778.797053101375,362.28760768222253 784.3274469684934,361.49321154892493 789.8805823226159,360.4665600885161 790.6077619582777,360.9289960069941 798.383773172534,360.01474129187955 802.426221104485,360.0298247087834 806.8177170502901,359.64342285311113 807.7899405802428,357.44043386298245 810.1373782125713,356.74237595434136 811.410195345047,355.78382739250344 813.2779052143952,355.09477718354026 818.8790838035608,355.75876647143 820.0974048061277,355.24308277085345 825.3170810832888,355.01043326637483 826.3837830266829,354.336876864436 829.7178645557841,354.35586311795385 830.2266612726547,352.5310372369862 840.9678037828938,354.06646173477424 842.4927879420312,354.17005552292324 842.6329669315144,351.516777410271 844.8790275840641,351.1706808045499 845.7920755564862,350.05710773077396 848.8714500247077,350.4583017855109 849.797469676931,350.19952171241334 850.1505672706471,348.41244742343827 851.5365053981908,346.9144632656585 853.4861870169392,346.9398422681048 855.2979354482707,348.193636325204 858.9974659035752,347.2264940067621 863.8724196808492,346.20888812393525 867.0219629075003,345.8008074592388 868.7241840091634,345.90430141965817 876.2846046124904,344.5861037365254 887.2829835706515,342.0587603258044 892.3902782189726,341.89396805897076 894.7360526917347,343.1807398463553 896.3549953088956,342.04983723173734 897.8239542766908,342.2910236258086 899.3595798812632,343.87943662566374 900.2759311213,345.34961837329274 901.3379182903058,344.34835905872376 902.1453763308255,342.26097199715605 903.674623330484,342.6989212000823 903.1043194579281,341.76915803797203 904.0494488282944,340.2296041757073 902.4327630185386,340.41332126093647 903.5469491920697,337.9364105830402 904.6019943775539,339.000513012459 905.2191481771363,337.0969270731296 903.3943172576602,337.0362457429163 902.4612320468146,335.16926869219975 903.596801967696,334.19765296018704 904.4398269338835,334.90727613898997 904.9801857182262,334.38718766723576 904.5657110068154,333.20288088720383 906.2311890844538,332.9488127050653 905.4439667554833,331.8222512886096 905.8173678143546,331.03893115068837 906.944794923533,331.84671244483934 905.9718080487476,329.7571082011316 907.0956332905033,328.74393555190215 907.9935947760415,329.8001923611674 908.766070255218,327.3612369225043 910.1399349560896,327.09578597597624 910.4804643917493,327.7583809119319 909.3328114202982,328.2071335556528 909.2363199422342,329.1217708209681 910.6400751789295,328.5887038463785 911.3589984253385,327.6149036404414 912.2759580740823,327.87127189554667 911.6735728453837,328.63678010470613 913.9006479701927,330.08013106881833 915.7047821961235,329.6349534692579 916.115230197026,328.5036165512198 915.588791446492,327.6390022503401 916.6299411936357,326.15814393415144 915.5324817639985,324.5803853817525 916.5536492062837,324.5921709611647 916.4391824871186,323.1393416380515 918.2968114782803,321.7445102236718 918.8074153165207,320.2966277695217 920.824238153326,319.4696386964286 921.7496426385056,317.96736157682403 918.4833736095278,318.04184883356925 917.2214270957215,316.53146050456087 918.3936010172553,314.70517325978847 918.664605008128,313.24515601190046 920.6190133575508,310.72300416394773 920.7247312357185,309.04038813541 919.4075245432342,307.19650812584376 919.9122191827784,306.09786215288125 921.3758433851035,307.9538761179157 922.1295256967803,307.3012224240166 921.1051629816512,305.73488301540146 921.5006051692776,303.5413604766816 922.7083502866132,303.7799571595351 924.3124024833385,303.29839941446346 926.2370941292892,304.73451080910297 927.3952439700197,304.79538832202235 928.1468446901918,303.1298324702501 930.1527261590248,302.0602571857351 930.3741644645537,300.91455589446394 929.6058748216212,300.2348666912888 929.4849727922716,298.8689053316673 930.4492007177041,298.03659852447095 930.3041205628602,297.3211458700888 928.1395381727226,297.33078756504676 927.9466310333116,296.7315209177648 929.8031945009456,296.06848767696954 929.8873777950909,295.35637642551404 928.1734391732828,293.99011743955606 926.2304308524034,294.8076817284168 927.0558066461222,291.7048906147311 926.5574915096619,289.7763875386138 926.8531714745217,289.13399257051867 926.1811869316957,287.53959517754436 925.3136971880451,286.96381631427175 925.2374671904801,285.9095346429298 926.0714530645201,286.18234040211104 927.3197764623349,282.74005113426085 927.9620261173594,282.4410685047386 928.6095524617231,283.4618033594225 928.7491652899738,281.3643985624919 929.1444382878955,281.10742746470873 931.3192088594076,282.3122667616018 932.1143146309098,280.9623016000918 930.059696135115,280.8531960843562 930.0095768135376,279.9303190545397 931.081508313358,279.6785713672966 931.3043423129468,278.7991486021275 933.5845303480903,278.3251947229687 933.2740237140225,276.9214094689137 933.7262923419512,275.0677898104392 932.4900269630417,275.6178867325798 930.9705545746275,275.13038595758246 931.1368155835149,273.40839622384715 931.8656253624662,274.1540279555343 931.8711230500589,272.5858533694744 933.0822663397623,271.4490221970373 930.8017442171854,270.44296304919783 930.8367997261116,269.79723370034776 932.2062406000114,269.7072597197616 932.6680660118415,267.84798641357827 932.0478631827767,267.69603827739763 930.978385841892,268.96457593207555 931.3774940133267,267.6052711094792 929.5861550181812,268.5411637595506 929.4127689664124,269.8448995674131 928.3505871653182,270.0699760908669 926.9216630272097,268.7650479575141 927.0845563946777,267.9485498412064 928.273299971328,266.7904506263867 929.4435921149152,267.40180132436126 930.016223810415,266.6701470722346 929.1094660096087,265.90323139218293 927.7177091596817,265.71987780001007 926.8367669480509,266.543384729498 925.3499589909836,266.08194050431376 924.6604202018682,265.2886559136267 925.0332235845774,264.27559125571725 926.0560947385269,264.3474520741777 927.5196566242286,262.2933021648851 929.2324231761598,262.6846956868929 929.6253238791347,260.67749503760183 931.1832684722182,260.60703327113356 930.6513064355694,258.1420391706547 931.1236816914071,257.515679947628 931.6716657141944,258.8896433045271 932.950478402121,259.59338654783176 932.8366976310815,257.9148398070879 936.848700298871,256.3511231954371 937.306254640601,255.60988655638357 936.5131685489226,254.3422324530492 936.4394428362572,253.10020939286815 937.6941760591353,252.5321584818611 941.5419743015859,254.90885274796736 942.6531503795047,254.6224080650648 943.2097461787693,253.52261104310674 944.8046513417296,252.37825486259314 945.9833180085792,249.29012582922584 945.5287607933202,247.1813995611357 946.2751369246378,246.15083456670072 946.290668977551,245.07554811532665 944.4186386484104,242.65503971472458 944.1410090455636,241.77078507072437 944.4805069866575,238.03375627957945 945.2486092497887,236.55351890605948 944.713876341226,235.72098222512273 943.1241038412013,236.97536682438647 942.85173736321,234.98346347235645 943.724101807185,233.0159113257463 943.2712999732175,230.46623341072842 944.5059525751475,230.62841778116984 946.6127724906992,232.2344898414214 946.9447214710648,231.7189983347552 946.8539024059434,229.35584345578036 947.3642828348866,228.41542716164446 946.17471320353,226.86707669209108 947.0823408371546,226.20350606988052 947.644958752893,224.29512056688293 950.2766989443089,225.03218843048938 950.6261429530372,223.49115283333782 950.103327223815,222.4573905907452 948.6564671168364,221.9317995959271 948.6707130377581,221.05731435484284 949.6865472548407,220.25127449707213 950.8057366741638,222.09650915692356 951.9541700802833,220.507950129464 954.0599189539939,221.5929210091088 954.9395420867684,220.75986593819124 953.374460939324,218.71477412122687 953.2653937270861,217.86396461270567 954.321182304974,216.30690124972335 955.5917362358384,215.87555340860877 954.4298837066797,214.2447951666386 954.5008041413486,213.23533364899725 955.6276065096545,212.12524239130806 956.5051913351774,210.29502025000266 955.5405821568703,210.1069965688484 953.3108633352896,212.40354738585512 950.2226952599782,211.9355779713215 949.5904180759965,211.01543479884162 949.7808479936308,209.87356354699716 950.6509542673006,209.56974966922314 952.9072016735405,210.2756057138442 953.9978093896948,208.57532617357555 953.4357108260006,207.10634425050586 951.0717140215977,206.53242874100766 951.0227079947433,205.16598913036756 952.0687599260444,204.56984346556192 951.7157132505862,202.41216333270512 952.8345221279363,201.34837345019554 953.8664154082613,202.37460182487587 954.625274910913,202.37469100494252 954.9321798114989,199.60466188704527 957.5789886886481,196.13270760833393 959.5446067145722,194.4627650099829 960.8785892222453,193.8133532168892 960.7584721169242,192.48146727368544 959.5603951315785,192.42825978458228 959.3180453628947,190.6660215433589 958.6884150583204,189.55821204487376 957.5804244136099,188.9407993138081 956.9055390455156,187.50820746428542 955.7827336569244,186.546316517317 954.5794018565228,186.36860559145856 954.5489046691257,185.18506008731885 953.6916354823546,183.62384871743728 953.7390017064375,182.79515933224752 954.731394873237,182.41382341340392 956.0669056701462,180.37617535220357 957.5989222642257,179.7458128050542 957.7848008213374,178.2773684014063 955.9188156272415,175.49614905150378 956.4129062592767,174.4198564796704 958.9730043894559,173.53773925544527 959.2032822194351,172.1264138450282 957.8971128971222,171.23810291971893 957.3530783393124,170.2053243031885 957.772816738966,169.5809820521382 960.6469761995124,168.73508094462483 960.8854131423275,168.00964756342637 959.6414273633488,167.11212310546665 959.3498719097759,164.9347469343474 957.6367088670645,163.5352367795652 956.8889444917768,162.1071184631341 957.2714106362365,161.32430260419602 959.962510331342,161.56227490813808 959.8803359252039,160.38489089776056 960.5570043396892,158.9699948783591 959.5055841983225,157.97754868932992 959.6756709780203,157.34560980692726 961.3746703513809,157.22226309310855 962.5369195371454,155.7390937672144 963.128671361726,155.97591039977823 962.9884729007028,158.0197608570856 964.3427646263002,157.38246271544926 966.1567112188042,157.52038992103962 966.5701947331743,156.73485585649092 965.622287740764,155.7209527590217 965.6114903447494,154.52341634704544 966.3491641253403,153.3249367890994 965.8509522010148,152.13408870321365 964.9121916458432,152.05141971327384 964.9575579352168,153.5728743818376 964.3414434897346,153.74258716160261 960.8126352157482,152.15935095305838 961.2022473120655,151.31714804325208 963.3207030390785,151.5193771248475 962.9970598708861,149.57302338093996 963.2389661403197,148.20839990377272 964.0127099375994,147.5962281294556 962.781541742498,145.0698360534327 961.4698329905808,144.04408763715657 961.4754136859234,142.25406121599343 959.8630411036609,141.00642499656055 958.3362023241745,137.17142335866993 960.0682965625155,135.67805639464103 959.1665835730594,134.50594650603665 958.7023893124693,132.67194732027485 957.2600065262328,132.45876859541215 957.2819090323842,131.04463026210988 957.8538773001897,129.85863997252238 960.2321316819268,126.2588428624021 961.935208499498,123.13432522036311 962.8469709366649,119.96531278031648 963.6787058073933,118.55674226213682 963.4908043290426,115.64268719471545 963.7494192874302,114.66834548646688 965.829099178538,114.49549850355186 967.5613998774985,111.58472262926756 966.2080385017357,110.06097155456888 967.0075571352293,109.10775445580032 968.600655616566,109.20392876667734 969.3706107184528,107.81763341220483 968.509162776327,106.377533434888 970.0605101831428,104.81557368630911 970.6209357342482,102.4096101388538 970.4470230726126,101.03675225948132 969.4282489400384,100.5351529945608 968.5157642989545,101.04192644539853 968.0852717547187,99.74056986145462 966.1966709177007,99.26751000819047 964.1051284784342,99.87656099410975 963.3315761895676,99.03882299853257 962.2156912692352,95.82120434973103 963.0247964786934,95.56568214388369 964.0310835624497,96.25554846907949 964.7438779291477,95.69319788229001 965.6257751414972,96.415994675712 966.8196684864382,96.41010086874053 966.6237514917036,95.00145345276331 965.1307328868778,94.81825043975203 965.1712137410206,94.06461692594206 966.3895543692018,93.67713473898988 964.5644030448107,91.33012697674974 962.3143483621959,91.38572225607453 962.533066202483,90.4406601946119 961.8510403878147,89.07670099897723 959.9678424616726,88.74104155405848 959.7637411003768,87.63453933323615 960.6192678556571,87.01093095171734 960.2917867103041,84.95189122561601 960.8703592525624,82.50979649721268 962.2750636767595,83.04987384369167 963.7460875020838,81.31304460483551 964.6440345562796,81.44335145258526 965.9352001841335,82.9645451833054 967.3626281456174,81.19147160091222 968.4219385479807,80.94862119176508 968.137967327464,80.16315229347538 966.7383632363508,79.72007389298722 966.2792428536042,78.45538656468818 966.301840203898,76.59241886449416 967.2130388312912,76.78247316349291 967.5039120611434,75.11910882169212 968.9457190057702,74.62605382920589 968.6893606901227,73.49034588966515 970.9584779142384,73.6396823765599 972.1192635640521,75.28059479641405 973.3634424706585,74.77767466416657 972.939221438833,71.9394961854664 972.1749999368449,71.31272527658183 972.9802364274681,70.75017553309715 972.0065669799816,69.12344491009776 972.0544656616223,68.0716060251076 974.2118630189203,67.5643381444616 974.3730720248841,66.02204648805309 974.9643311974997,65.54620660530628 976.7678818032645,66.43995034141773 977.4372395382662,68.0011573042471 978.8578724524847,67.02722339918921 978.7629515360563,65.32156240356466 979.668224623958,65.3778585401123 980.4220373112457,63.864793538044296 981.9420981380997,62.55576915996909 982.1902749766473,61.82452760310588 981.230476290524,61.45834279382626 981.618507674855,58.70019417486145 983.3959129412253,59.24191654304991 983.3075022887506,56.994022847222936 984.2303666620863,56.27133956072555 984.3339817823886,57.682689749825784 985.1308172363665,57.872244145761954 986.6650409317548,54.995689706190944 988.1455192260387,55.39805797922628 989.7302998560867,54.86152600211216 989.3633224321119,56.19769116790002 992.7089573148471,55.33595946671079 993.9285200972529,54.52664658339296 995.3929305360717,56.67614809289921 996.5047185510163,57.191624278255745 996.9218418763847,59.60226074632811 997.5488937355312,59.946099138427485 998.5256264575099,58.542427385984126 998.1354421606194,57.70135897111413 999.0241803910252,56.20443445216114 999.0700243522651,54.64873192687884 1000.7107919077838,54.21052482187832 1001.2276636339038,52.98185673876009 1000.0241135049582,53.4428598234075 998.0276502579379,50.51372669244279 997.5050098864109,48.7677825562468 998.8047722963674,46.47857902210956 1000.628160758811,46.1819300506794 1000.8436216270691,47.552936955980954 1001.474076300407,47.95563486236125 1002.1849621614838,47.14490159514901 1003.0160868521497,48.33791749248826 1004.1899667345654,47.42805849933529 1004.3830322599773,49.46404260524213 1005.0240227575244,50.83468631738697 1006.5181909143784,50.594372875757415 1006.0536837057017,46.649209274204736 1004.1207554116322,43.97070819404627 1004.3597284860379,42.814597493261886 1006.0415565170639,40.72361896250169 1007.0003974669473,42.00150830770605 1008.2914932969056,42.095525787250665 1008.9829767050089,41.31312341804636 1009.2844782253902,39.21071870523781 1010.1607220861815,37.907061129681836 1012.7472211401202,37.75094072637614 1013.1987463392115,36.686445864561904 1012.2553013355954,35.536559511915755 1012.9575479305126,32.879720043519 1011.8057606622666,30.523874809121878 1009.7949219780353,29.3712025779202 1008.7419228257367,28.321907107782636 1007.4086179450445,26.07111643335594 1007.9335520874862,21.27266661719517 1010.6631114569187,18.958152841296112 1011.4950918051743,18.779703442075117 1013.6699236666232,19.41196462332516 1015.5948270358979,19.330835818362345 1017.2227723808577,20.477953809681367 1018.5534695185775,19.621222988066336 1019.9270060105653,17.155026486680356 1020.1678514441962,14.862310066666907 1020.7028672777063,13.817664748778043 1021.8797072527917,14.401993726927458 1022.4364431782452,17.36933120184665 1023.50787564635,16.740508949030016 1023.574300595501,13.552649925155777 1024.0,11.008939927290271 1023.2455910550178,9.898071442895628 1021.1523047190657,9.211334498482813 1020.5020960168296,7.875361771794189 1023.054979718205,5.3568261166551 1023.2041227916851,3.814839031365011 1021.4824984475647,3.5656979967214397 1020.4843638925197,1.3974087467940421 1020.5989469155019,0.0 1018.9367920579674,0.16547503769959349 1015.0988744531847,1.076735074695705 1004.3548256373332,3.1230910665365172 1002.1060907717356,3.1670256472941105 993.906940449324,4.636395173937615 979.3313370800887,7.0568696660672 977.8862446389144,7.21579272658289 974.4634046386008,8.359860208764758 971.4156382474044,9.092431075697732 966.0054108025447,10.106132820531002 961.6724610552003,11.09229767030132 955.3337291661936,12.200580691974494 947.2325091228747,14.049747562260166 944.5477697227655,14.321892655674105 942.5543041590543,14.976120835219206 937.5632635510516,15.14016529470149 925.9549201128806,17.660023221382403 911.937858992303,19.90027844141912 910.8877605652873,20.568373333070383 904.4083821495896,21.582099819351868 901.3836146095225,22.374807486628356 899.1316892114312,22.580816257899528 897.3715669076547,23.137175133713924 894.2729342499589,23.410489700602795 877.8394959810369,25.924664796386082 856.7075616270513,29.911132297074573 853.664484118869,30.303603620163074 849.0898957876303,31.507809708123204 843.6239332885355,31.969552169893348 838.983759334108,33.102334431744055 834.7233079875898,33.89363215492324 831.9900942385414,34.75374887897959 824.1567522631939,36.155834146304755 821.4107200486657,36.45189832457419 813.691519899896,37.861169437092656 808.9722432376857,38.10694836829896 803.6054677712334,39.473204398951225 799.5016639725915,40.314878305055515 794.310884392051,41.69677724854398 787.4272226900152,42.519097366104575 785.0714202249487,43.229361881820466 781.4438932375456,43.53751693549481 778.6372345420265,44.14656519267959 770.3669511966843,44.52907877787584 767.799051350985,45.39953912740651 762.0143095357109,46.970984586257316 756.0612282202603,48.000368080653175 743.6339529005797,49.968345526298776 729.8781615146174,52.72452297547653 723.6361080134161,53.79017807451868 716.7020103840589,54.675574768596334 701.7844985348371,56.927933610887976 697.1182153372669,57.745021858414475 682.3058227653569,60.03879550679568 669.3614819028141,62.3978771937721 652.4857148991362,65.29193943168076 650.0291001110886,65.85972521303466 633.912794762815,68.5700960697169 625.5211982171222,69.62188601777711 609.1063837927513,72.43887483081852 601.6101116574081,73.85743068752726 594.6203393232788,75.51689402625061 585.0604941016245,77.52894091776022 578.656704233215,78.50082936600614 567.8383889137586,81.25583489085352 566.8207167401744,81.77029175340914 561.4481495337579,82.88401578185778 550.0483871084461,85.09533477410628 537.7455511684881,87.32787998245607 527.0277591105495,89.49025056086441 511.260296118783,92.57167955311252 504.6950124247493,94.00026822066843 498.8707909534341,95.02070273400295 489.78233529180943,96.4026257495226 487.1360305096586,97.22322925553465 483.3637456918155,97.88411542319272 477.6086328588918,99.1008670101694 468.81326445842615,100.566378185443 444.61638734105145,104.47757625710477 434.58173425189216,106.13000552245694 432.19193723336406,106.61404590457892 412.61782317788516,109.30346559040055 409.9382490006201,109.51765592146904 403.9193186306692,110.33095931158539 399.3610123983019,111.1145918003175 396.0576463863824,111.87739097179082 392.11576012470124,112.46574721862572 386.02378841120964,113.59608039096537 377.9893838612432,114.96287867936422 375.37270315334996,115.19581425517754 374.86033094958685,112.70241128252616 374.79118202373246,110.7194102725253 372.456235374308,111.27813071445468 364.54685020514285,111.74598876952876 355.81487115019326,113.02952341421377 353.4455838920629,113.52845725494177 344.97938067313305,114.69126690504419 328.3432428514651,118.75945699566108 320.98026922507984,120.36279479347007 316.4441438077432,121.200456737445 311.18882972527945,121.95208414418192 296.246514901758,124.94648461667248 282.0294817877712,127.62874566023049 278.09353584670697,128.4581519069377 271.88529917680364,129.56775254211578 264.4536817489068,130.7463397180125 257.32769815391487,132.05559572584303 249.64203696481272,133.06135630290402 243.64152351554898,134.21396713562547" /><circle cx="551.8490466093718" cy="276.40390059590095" fill="rgb(100%,100%,100%)" r="16" stroke="grey" stroke-width="8" /></svg>