<?xml version="1.0" encoding="utf-8" ?>
<svg baseProfile="full" height="1024" version="1.1" width="1024" xmlns="http://www.w3.org/2000/svg" xmlns:ev="http://www.w3.org/2001/xml-events" xmlns:xlink="http://www.w3.org/1999/xlink"><defs /><polygon fill="black" points="762.2646432039083,42.81887344979975 758.3633167996943,45.55830442201659 753.6686067122087,46.39264162711493 751.0969477865763,45.51015382827927 746.3957121356029,44.20194499162267 743.4000443067772,44.604631564718375 740.8282946024093,44.581589008066544 731.837324227156,47.096627551289544 724.9981620707215,47.045071538849015 718.1502728112066,48.69716944943002 712.9851251443548,52.94808634375636 709.5646847382039,55.49318306969258 701.8271532788364,59.726062060191225 697.5553825342253,61.83940950015494 691.5580855629635,63.06832443625649 689.4203387744574,62.6115883930313 674.4591472765521,65.5087839135947 672.3161283624785,65.4825495153209 669.3247353685034,66.31687127497639 660.1844127929552,67.40575076805862 658.3091549414593,67.21947504036189 642.1133117816022,65.13509098631198 630.2401951468718,60.98748400504758 623.0161588067681,59.10037650055335 620.8835132980466,59.05475303928506 612.299837785251,60.55642950721642 610.1307935077452,61.80059934008523 607.9811442842904,62.168304230735316 605.858482346473,62.128343996013086 605.039391205339,59.96996911709539 606.3560726388821,58.27869251261336 608.5164576037787,57.0534302965782 610.2718946488166,55.38472020436018 611.1565299432264,53.261034091351235 611.2506393628789,48.97935249909324 611.7265897366889,46.84484245745102 611.7736294700582,44.70494961658176 611.3919387481554,42.546392625777 611.430336309587,40.42536643072913 612.3702812462188,36.16757965665681 611.5716666302375,33.990505459202495 609.4708232998531,32.23731211213067 607.3392170904469,31.32813829571569 605.1788705407793,32.57045448061763 601.2000674293522,38.886787484978186 600.317060023364,41.01045585020677 598.5598983568291,42.68475110073848 596.3964052836295,43.4961883665934 594.2741485659532,43.439023463971466 592.1717547416341,41.67804084645695 590.9340762692414,39.51619672234597 590.97127005353,37.37427297262616 590.5634693694055,36.500010197140455 591.5759823566659,33.18821924903716 590.6452063484921,33.36430482755111 584.4161221566897,35.88889587657047 581.3637798704237,38.3417139265332 578.7288909575317,40.900370367821324 576.5027441922973,45.705274103797365 574.265600625154,46.7413627279235 570.1288482624028,46.876516341241995 568.6993708169988,48.55474949610277 567.1150840650535,51.815505464359376 564.2968525258718,55.923902201559144 562.2061395679721,57.33556940299263 560.670459375685,57.70493711529343 560.2516257892362,56.910168987679185 561.2130390784373,49.61664476965029 562.0193688705925,47.99880438644993 559.378545448044,43.76557649048527 557.9862680848985,44.11018846920683 555.4090329454801,45.29162999373875 555.3366799683613,46.211048441559115 554.0957966761863,47.34129452453999 553.2311324945101,46.421237737024626 551.8051716310453,48.46944229743963 550.4718184765494,51.425891857334136 549.5397855077063,54.83153564131442 549.4920744573463,56.97333880157748 546.4858982602124,57.34836924441902 542.6378446228847,57.25328608362918 540.8744752940372,59.359697802205574 540.4152551978045,61.05025590323214 539.2730071804008,61.6940021440638 537.7827953080446,64.00885755778233 533.8182815441273,65.10382432030474 531.3305326868149,65.57832407622709 528.9814717631772,65.73578774305383 528.3473098997804,65.07668764385403 528.3906254236807,62.51164869068066 529.2890837724315,60.81920889044875 528.5887453127028,52.67118739096509 529.0333670781873,52.24428566678637 527.3775068542783,50.07091439026942 525.042466801311,49.80912675423383 523.0145861814703,48.82450434733414 521.880138292408,46.53640229561995 522.7756997973771,44.41888109406534 524.9664194732148,42.314369180500535 525.4330320333352,40.191272588885454 524.6133411810703,38.02112439304631 522.4808050484068,37.98015549167053 518.5693392912692,40.45887443861125 516.8656773876301,40.42342593426861 514.7441841660483,39.53237689805155 513.49571136212,37.35659162507784 513.1046538082776,35.22233672637833 515.7739596232685,30.98741136860474 516.250890953288,28.853078225546483 515.8599017379227,26.713135817631496 515.0402015588847,24.556221189269195 512.5568637652797,20.21049949008909 512.1760265857323,18.07067771083041 509.69098122930546,13.738172012863402 509.32050410932067,11.581397743874618 508.07373786711025,9.422662211011811 505.51375702858587,8.520071060639566 502.51850713950836,8.875586147111676 500.776337449058,10.129890032619187 498.6027408410819,10.932574245253704 495.61276777557794,10.88196102972563 493.54582594776303,7.404871273505364 490.61687661580095,3.4856494895102514 488.0716206024383,3.00810103545723 482.8709639623548,5.049768009160516 479.42538107721015,6.26244258475549 478.0805788921968,8.366270846968064 477.6132911795715,10.506359633492707 477.5263549806989,14.793942047283736 477.059302359808,16.9150560983054 477.8666261071289,19.08526994881504 479.5495094273987,20.809703118721018 481.6703952961285,21.722005411092596 481.62208028258635,23.854343388816005 479.40785105793015,26.825331593997248 472.9132300369745,30.11354403949099 467.3145696996957,31.27856292976037 463.87530895432866,31.21395438258105 461.7385505844414,30.733928304449023 459.62738306804977,29.848116920681605 457.94083191833164,28.531467256178416 456.6929430073278,26.360994297649427 456.2868269357421,24.6457789601518 457.62777498838665,22.09796903486199 457.2360855463166,20.815617726912933 457.3290234753142,16.10871323982201 455.0267814922912,11.27122487556312 453.1431065266241,10.876067171436603 450.53463738814264,12.107022110054118 449.65981457402984,13.378178250394285 447.9461645488662,13.349598783535953 445.4294970462397,10.729414813860103 442.60553758152435,9.708628808525646 439.7607263916977,10.99890917000505 435.41926114394545,9.750832759033301 430.57134052648496,5.140725522665434 425.91847215817603,2.049377722137706 415.9450299715551,0.0 411.1221147691165,1.912147582817397 408.5538398216652,6.120625095624291 402.5135262621443,12.692037415084883 400.072228178558,15.82804349188575 399.1216279714043,21.90487636191733 399.6260379538288,26.130344338160057 398.356471079159,30.17608267411572 397.3050075490269,31.664769943087776 395.9431240728458,35.07160993133505 392.52990442031864,34.567786881395705 390.3753017815749,34.538420252598485 388.248622338949,34.0653464921146 386.5640248756133,31.894137049098845 384.4430319813032,31.00739648341687 382.2928979212084,31.391706216508737 377.953892171576,33.021294385670785 374.09580839642376,32.94374632937502 371.0733974236965,33.754349930595936 368.87530218510614,35.420726485149885 365.2083999600437,38.56228955177846 362.2965944374589,41.71609002283276 357.4867346666278,46.35048192254328 355.2748891462421,49.726392932286444 353.5567806943295,49.26429586711993 351.45782710813796,47.508358847670365 349.28111207336326,48.33603846070059 347.0944517893721,50.00235794679361 342.7173612224129,54.20594259249674 341.3809118422451,56.309084591251576 340.92397057442076,57.593209861264086 339.16421518129323,60.12884585732229 332.68964266921375,61.71649619485993 330.0736268914375,63.384268291826515 327.4339479532098,65.90186978273528 323.08172784567915,68.38985827374472 318.9323392739654,72.97191488821159 316.5964996751969,75.76311663984006 312.6540649839002,78.76333225448207 307.60112021635064,83.06874354036904 304.18528493116537,86.29633562872539 300.9923507128533,88.98235335408856 299.235601357934,91.25014619159754 297.8931891540892,93.72871373362818 296.6627012484305,96.98123722285766 297.26485347450773,101.4285674837106 297.99154053536165,104.92117487049074 297.6308037625872,108.0739681626842 296.6162028137896,110.4508682431474 294.3993897825243,113.46366915229112 291.88359274590533,115.83269192255648 286.84394783823757,118.3862177655925 278.86400444177207,120.81073544317087 270.76619429939484,124.4098986966473 267.16710520225587,126.1123301564935 264.6515780566326,127.71814535995259 255.96251248685627,135.44170618134154 252.89648192577025,137.03953787411768 249.86152278056818,137.87296513954078 246.687182249761,137.74028186086292 243.8807519607182,136.8347261872857 241.0666874427295,135.05414167110382 234.7702312127447,125.41790719368225 231.20212281580237,123.53713853202913 224.2236474500457,125.19019628445596 219.22901922864025,125.2433726892773 214.3621670348988,123.4441218662974 211.5710425624824,120.80562551454102 209.546761680588,117.51966183782963 208.8262323640549,113.70031621720022 206.10741184329652,103.89094905378033 205.56989487925364,92.46020925419998 205.08169456036987,88.76376808556392 204.03560511128697,85.59250418542115 202.4132440173291,83.4016171529887 197.14855404843573,79.64892749454543 195.34116857911684,75.38285775884276 189.85280743204308,72.91152407996822 184.50542726778673,74.15425224227681 180.91454274690864,75.29732219639106 178.71363897710594,77.12495087129446 176.9077711235661,82.53576765336982 177.03489406646025,92.00022335302458 175.3268712484278,97.72940336641364 175.28809535909963,101.75033938026445 175.8034627661823,104.24974840807613 177.5062253851982,106.46100675336618 182.06181079886747,107.17297062643172 185.73069017135214,109.71276489344211 184.16883426473822,113.16675103555144 181.96396015150606,116.6227096023731 180.58702425610375,122.03983198469223 180.00831534718466,126.04526221345606 176.93801558084974,129.2759543723322 173.73815156694076,132.26747792155334 168.82733555902462,136.33647586267375 164.87509522893325,139.76661069147588 159.6769871007004,138.28761159838035 155.74922397355803,140.7291701349871 152.68008111350824,143.83998844870666 148.53771099378818,145.52670747546864 144.90968443402426,148.5114926074466 140.75601451265402,150.94944375385643 136.185813138514,152.63528221909405 129.20320361665787,155.7901533823183 126.13363693541895,159.5648548571977 124.16715243103152,161.27210722091786 121.65017838443217,162.86295938850446 118.8920214533623,166.96294617521983 117.8786800507449,169.8857066846386 117.96273425630703,181.40314590358025 121.13816375907089,188.29225168668694 120.9906011516912,192.09334608440923 116.80004737089267,196.92542271182947 113.31564863205736,200.46224939987047 110.681671337002,201.62043942433723 105.36175912862072,201.4402615350677 101.80543129232404,200.09643236886257 98.57686235816706,197.33595759968512 93.42312564126941,192.15707509773387 90.84302840406042,189.8446183023285 85.09471882777437,190.28943784552712 75.50731964781508,193.96699753165444 72.57131125049021,194.1541194753354 70.26916314915269,195.73625611119445 69.6047221820636,199.80473943130232 68.68377759224083,200.57461149355316 64.56586700342898,202.6302103622432 55.847642022066765,204.78470521524457 55.277710493394984,207.93412213195205 59.46567647825736,210.8123693580435 62.052289073497725,213.35876123128463 64.73389539480272,216.41898464282576 66.42037696997346,219.80949961114976 66.58700207792101,224.92681238426104 66.00202297019975,227.85586429453815 65.43924935898187,229.20811350943876 63.625593988102985,236.30715298143667 63.61900206423506,244.84940764148877 62.32782252689268,249.0279341339372 60.493243971847384,256.15890052518034 57.09898583135732,262.28117223959237 49.877174067263795,268.0946512048299 41.333680002824785,271.963276429872 37.8878503088807,273.358746991354 35.69258145360196,274.59678230793594 29.424589453761552,274.7077271000367 26.727799963139223,276.68006566240064 26.90803198010981,280.85630391962434 27.733362465592688,284.3800611047654 27.45166320329751,287.3725208467014 29.12274509677982,289.1346955893165 31.446145515728816,290.87457443408005 32.35316712548553,292.4807842506118 32.573028716990144,294.07647827071565 32.13245828836451,295.4551986261535 27.3314741016985,297.9647253475172 25.957100257571557,300.2515026116592 25.046183566234294,302.3062435541606 24.81421978995127,304.13984887122444 23.066816523898336,308.0056334807242 23.874965483673062,310.0184083300764 26.6557230848886,313.37095379220347 37.17091636129002,324.38577191162045 40.967071065564866,328.1369595362798 41.77914379256901,329.2463123784734 41.77430180793604,331.5540597654772 41.095747761792516,333.84394726666994 39.272160959115155,334.75749178865715 32.87284667929318,340.6969644467077 24.010809930651483,343.1462850589421 9.15349895636574,353.8841506025118 4.112804082162648,357.08038492656027 1.139590338622307,360.283740066996 0.0,363.2572481540245 0.23278080922441313,365.3181647093333 1.6067456273855398,367.1442632482773 5.034126154152617,370.3457061489611 6.855119100137979,368.9750018864413 8.238800825684004,368.7514731801148 8.792936074248594,369.3198795699801 9.528716195377198,373.9658560652647 9.805524825081616,377.8835686110387 8.542342561576444,382.8688810667354 7.951392251655366,386.11467487732756 7.704180245494088,388.9273433517381 7.883161155970638,391.86423766993846 11.521719573894297,399.34661930055745 12.698605248504032,399.9796128890224 16.349349931874873,399.98630340667955 18.871670253779907,401.5850407407155 20.746573931548944,404.7376825351515 23.272527608332112,414.80664721725407 23.727306870842725,418.4651217739456 23.95121700969434,421.89990823722604 24.643126480776985,423.5028083407732 27.84160261585066,428.31345883654933 30.21205227105441,431.166094381536 30.686856540745655,436.28620316399486 31.006407937624072,441.52919808921183 32.46385982760944,446.55800111015964 34.30448902292765,450.6759561836028 34.75665283045053,453.19941369359753 34.06599260262338,455.48530841525564 33.14517060877705,456.1677937932356 33.12369311794857,456.91332752194637 33.944442372880594,463.46397572962314 34.76753620339806,465.8792070294745 35.83518551335418,467.6263130816536 37.99490056212212,468.96490651956293 39.15622765422514,469.3222860327651 40.463087242902134,468.75761369285397 44.856149578885464,468.4789315452698 48.979306971636774,470.54370984504067 50.5753586135655,471.9229629942458 51.938621793388315,473.7560592312616 53.762171399094555,475.59231496324367 55.369072661483564,475.5900564468445 58.57166487693374,473.5375564644619 59.718148214535894,473.5415924404783 61.54559493932274,474.45358356047086 63.82284117297951,476.06315761096255 66.56070938557974,476.9831386903455 66.11105598927199,480.415249125777 65.65394992314503,480.8733302045075 64.50423754701167,480.4100036381586 62.44834189012888,476.97805644453035 61.313669267755905,476.97231739145616 59.025033486402684,478.7957456842302 58.344906767813576,480.3986388717384 56.742972147289116,480.85078780280537 52.67898552344991,478.86868900070533 49.8293207093822,479.9870176798397 48.68916604831443,480.8977896958803 48.22824086396131,482.27243943922616 47.99069554092161,484.48363144945307 48.8325247825865,487.68288157085783 49.298814052940415,488.62558680768586 50.56960990750212,494.5680217766127 51.25506040173819,496.6299732285544 52.399738811488696,497.3191362686549 56.73852226434985,497.32211856595416 58.563311739218776,496.4140493460404 59.02396172159343,495.7244977832936 58.803664014497,494.1212893593264 56.958817270732226,491.5597968256783 57.881058712232424,485.4304093493749 61.99360070441701,485.4355735046812 63.12973070162626,486.1302440967403 64.96023131330932,488.1904347225474 68.61918930974984,488.4220591214502 73.64407536740678,487.74991064491746 78.20667419281315,488.4409378830262 83.91542097947611,490.51547383316904 87.12210657512665,492.35124377936586 90.3205067220652,493.95530151090634 93.73454798220324,496.2533331702772 94.64484516085756,497.6276613306493 96.66791023309749,499.2406320955896 99.57462805711432,500.51375776087195 101.39631452206122,501.83900393125396 105.44495616223668,508.31197048878596 107.60400277121235,509.63837506690817 109.41843947962614,510.0980321060375 113.99990521334009,508.9855908651904 115.09164924461469,507.802365936249 116.74469054601941,506.74891348381914 118.4825456124829,506.1161195830415 119.7734011722247,507.42763636044674 120.5045921092161,509.18253898756166 121.12395024101657,512.2281859928526 121.96598933428945,513.4457454277008 125.29451804023962,514.6127519296451 131.79705292342223,510.84860335000866 135.15651735794975,507.85404701300706 139.05236243450224,505.30192719608266 142.10600228924878,504.28596045768643 145.49721521103442,503.9353363244346 149.29409154976847,504.6685471147948 152.8196535785414,507.00323740795585 155.5047517304013,511.00320572784346 159.05666838353343,515.8166592080127 162.40490956246418,518.4199550155571 166.6036705526553,520.2954548449662 170.7554168703434,521.2345798049197 173.9730797965121,520.8866415683681 177.17068413910442,519.8285984748729 182.58129492936177,515.8269063452481 186.00888104743143,513.667571259952 187.16225226901003,511.8092819118894 187.67864449789477,509.336383327721 187.15900679724336,507.72335578868245 185.41725807882187,505.149438811935 184.1597418299573,501.51218338022665 183.97038853586182,498.2889329054572 184.7655272079931,496.36283971553377 187.73153452033958,492.9860328039505 189.92408633704238,491.31737159899143 193.93759097869682,489.7679995936767 196.7877333728123,490.0786449309337 199.15394562791766,491.32545566304725 202.2615380270491,494.2491489071134 210.12320722213258,506.16626385990253 212.55733786397673,511.15812975100755 215.64684859748263,515.4951438936814 218.9277965691315,519.4268289919225 222.1975929267811,521.7888640304398 226.45355298217544,524.064348012418 229.24565200528426,524.1042036875776 232.00700196479883,522.8702053411918 236.47227243136683,518.9789401458144 239.3043186344865,517.7458574575661 241.70654406377267,517.2087897991306 245.04016203860402,517.345325182524 248.46872066459034,518.7546266915203 250.10211365124957,521.1821887809024 251.26159638847622,525.2825065917574 252.11083607979367,531.0503123098148 253.37229560263262,533.7913888951573 255.58485318389592,535.7052141724183 259.0243785277604,535.6475366358992 263.06524714465274,533.6075827740567 270.6895494452948,527.740969189778 277.2737871869222,523.015206271175 281.3230980956321,520.3412068899861 294.8523086851537,512.1349950430666 299.7186028884988,510.94087524789074 306.43475448642266,510.7079239918191 310.98821187576203,511.3917024517492 313.94955855946444,513.3152763116476 318.8967049294338,519.5531521356664 326.43689837639135,527.0753500257163 330.2650832852717,530.0012065973599 335.09416493103794,531.5231930153552 339.9620728757478,530.2218666835369 346.637708535532,526.2106663770437 349.38885229700963,522.5839491851207 352.0289604515523,520.4111886026103 355.02914369937884,519.4027869868022 358.2946883981754,519.3354077899248 363.40162581978285,520.7542593888961 366.3508286138134,523.612419737425 367.8758639308406,528.0319179271629 368.3565510789212,534.1052418834695 368.9783266408567,536.6242822883147 370.99509399625646,538.7485767582268 375.7464065251227,539.3216006556731 380.5572285042011,538.4891658659058 383.56460614512525,536.9547948502985 387.9090045806216,532.8139970672721 391.6691410108875,530.9708719795855 394.46410914468316,530.7940950442692 406.93381788874666,532.6125731868227 409.5159191445743,534.7307649321236 411.9026278289819,537.5920732586046 414.0322644498644,538.242976638751 416.57238425546217,537.3281090478753 418.3830501319875,534.2079273056912 420.78222237957675,529.3156143107736 423.8899027135702,526.4195292541572 427.44441780305436,525.4193771901863 431.5012032504648,525.8300769621072 442.6851236185844,532.0336597723384 447.99169356891696,532.3106488624857 451.645568891201,530.6775947491128 456.27734587157914,526.2337266662938 460.0554583279586,522.1922171734021 463.79487622696206,521.0857234174084 467.9793551701824,521.1406372965622 471.68824709711953,522.2310182277499 482.4336237817259,526.8269836028323 486.4712471118639,529.4906777599047 487.50892385454637,529.9615047221358 489.01438543257905,529.861546577929 490.41527073551606,529.1150397590441 491.92112818311875,527.4267898379458 492.6706720096053,524.8956668052476 492.3874567957214,521.5161875039003 491.7242702631102,519.7390207555868 489.47939572110164,516.9298664916425 485.64150537604075,513.8361686206937 483.85540043096313,512.7084917852501 482.0699758570401,512.4347226040703 472.1389084086094,512.1531013000751 467.80598321646886,510.1892277554116 465.8406348141058,508.5960216746141 456.0808173949423,498.5280147823987 451.7700627844269,493.3836755831127 449.7096696200558,489.81742438138696 449.51942224205135,486.3517699096043 449.98797622172884,484.19278525284335 452.4121094245043,481.1449740187704 457.76390437852945,476.3538765067812 464.7281162021002,471.099962775185 472.8835157842753,466.12521444299625 477.2925737903316,463.875468369251 484.14075057153076,461.11097576019586 485.5485832746667,459.79913164196375 488.06442860752793,455.8602714169972 489.20566629545624,453.1407099305401 490.0431176118209,446.95407492919776 490.2279426733156,443.7647268592279 490.7950523176235,438.65999077766355 491.26393336369796,435.66030557471277 493.23028863649336,430.7882133262409 494.3534232416274,428.5389983341816 494.631651745786,425.16110236505733 493.88679445878734,423.47013829122005 487.52113979382074,417.5179055988284 485.73503066581594,416.58564024642044 482.6301554551549,415.4596454730489 476.82255798054683,413.77826573945543 474.7499607230162,413.49302635644517 471.8455789472391,411.99376443264646 470.4390564722029,410.7835972461407 469.5070723453273,409.37281473761084 469.0286875651834,407.6871416250458 468.94035227981084,405.8168317776367 469.13716208157837,395.45844557931554 469.7373731317632,391.07715087997894 473.3116498089969,388.37635059324805 476.59753846514707,386.45732398971825 486.53100153983434,382.99514752607087 489.49136796528217,381.7282457704074 492.12775533441175,379.587977229353 494.8710551138285,377.77356053279163 500.6740586211646,374.94003749647504 503.2815466002338,374.10101474421054 506.51732544991887,374.57565667154796 508.246761510805,376.8676032375104 509.4134312562329,379.1598340564218 510.6879695825138,380.93161444470593 511.9660137331093,381.7830979760106 514.8825301403434,387.93485703597116 519.4440078123138,392.51381502108 523.0392402545375,395.32684476051963 525.8593642571552,396.17721921889944 530.4243826565879,394.34782045977533 531.3376286504005,391.6004676873929 530.4214770498452,386.57338904098606 527.684790714552,378.32925457260797 525.4800150157553,373.28555611295184 525.5867104849574,370.4955786525836 527.815604046084,367.37617204847453 528.84114522012,363.8845226629205 530.1447443479577,363.53125782163687 533.9473620081628,364.33345428755706 536.5455359804181,364.3288426288269 547.0154500620447,364.9903874934014 545.9947463320376,370.50119308640865 546.1611632636262,372.6418883093825 547.1628076627834,374.29608661645045 548.8047629017397,374.6301499346494 554.8537571883543,374.1057360844579 552.2382728000478,384.4502357129094 548.61845033924,396.4935069854349 547.4649850964723,402.7635449573662 546.5794428163518,410.352013838158 553.1502311401663,412.3428331452438 559.0207512935365,415.4725671248243 560.8459997494712,411.8827850282322 561.3949479641524,412.183874982696 559.8450250089032,415.06177665128587 562.1282137444609,415.6239713538814 564.965800016565,416.85731262703257 565.101960022426,417.41692063055484 564.6184483077599,420.86055607103447 563.7110110499883,423.04453004140066 564.2695273249162,423.39127282718215 564.1092203837775,424.73650784665773 565.6654517834401,425.3520602405405 564.61042437515,428.010455472793 565.142843026721,428.68893680540043 564.7612760002042,429.8055591698708 566.5836061312154,432.0373964997942 566.9274593206953,433.1005860432998 569.141705048139,434.33355130879414 573.7011495659173,436.1786618647211 580.9996126839817,438.02021606073015 586.4923941697934,438.0342639503224 591.3271962164813,436.6205542882583 593.7149273807644,433.84022233148556 595.4711736802759,432.35746833940186 597.7660234636188,431.2002259909507 600.0575415453924,429.4983241044889 602.729243017412,423.6664102117924 603.6503725480652,420.2168009479082 605.2076513406921,415.8908741161574 605.8781112252216,411.3204785051182 604.5161446802692,407.428705676532 602.2287422109039,405.5860881111858 599.4971776304567,404.90108104451605 593.103813004181,402.5951866396946 588.7563089074087,400.293922864636 586.9403643287973,396.622112539251 587.6215840844806,392.96840227857405 589.1597603613308,390.98201993235324 592.2879046326505,390.93210951632534 595.6597661457478,391.2001987954381 600.8643599934313,390.30709252728866 602.6319325891905,389.63848448727833 603.0757404479083,386.8906944719313 604.6879819569798,383.00569074042215 607.6472869158425,380.2703204484527 615.1832666306121,377.77406060120916 619.3403241364108,375.58284386969956 620.1368929539867,373.9874198187641 622.1149429019458,371.95504261598 624.8383964133886,370.81614059029835 631.3081834091502,373.4237446034227 635.6434864888829,374.24200034225134 639.512716922819,376.37699631237876 646.311667350798,378.00334899173447 650.4269787572194,378.49790013013705 652.2557342672527,379.412162774589 655.1453084316033,382.17430080538225 658.7811423246512,383.4426864779557 663.1817751175239,384.7298288167708 665.5120215127879,386.53432765568544 667.422685003449,388.34317359859733 670.4491319345685,388.3306889159327 673.2790142827841,388.5472665612259 674.5679202250935,389.2517241923332 695.3271543725755,387.30936703031307 702.508851414813,393.7409836211589 711.4023975951916,404.16994564994417 710.3130111682549,408.03726646618225 707.7495259578457,413.83374698306636 701.6884257797228,424.5900066907218 699.6833882196358,429.740371950135 698.1963205792446,432.7338122926548 695.7682248592477,433.95125726004926 694.2411633376782,434.24026875605864 692.4806529487196,435.1602182729025 690.0616907652172,435.61491761832593 684.2729762930453,437.376101271268 682.40959532865,438.2947249879884 680.9468409629269,440.089132972341 678.1807162524526,442.0631852484318 676.837271711205,443.325815881287 672.4567838408605,448.59704746364946 671.627213321995,450.4256490991678 672.1689617720654,453.69972098652636 673.5825577910451,457.775627671076 675.632420401888,461.65240826552906 676.0080728118991,463.6189720197568 676.0540000372439,465.6707203488705 675.3587706754563,467.40039753104116 673.200355110084,469.96429949602134 670.3509934640387,473.756957382142 666.1590414369248,477.74007888600033 665.4424977092292,479.5491634869091 665.2862153602999,484.7729695699825 665.6785417907796,486.19707048657165 668.1030807608914,488.6667308254263 669.8088345868983,489.80318048557 671.6088822905288,491.506212098089 673.1794276651219,493.50814420804954 677.7039411349357,497.57805118595024 679.2732392155367,499.69186684199076 683.835017163682,503.20990605506677 688.4621361898224,508.0340898129798 692.9804238975464,509.1681482951459 697.3295408890272,509.08948389702743 700.9988448446582,509.32135527632994 702.1787000821653,509.9123285615549 703.8681522117448,511.5947520989224 708.0010413568671,518.4656043764 710.4148536915263,521.0598178379626 713.995280762814,527.9163370974661 715.9437857522055,530.9451388113597 718.2923697105972,533.9407295827023 720.7057317296453,536.5993111015987 722.6311715900865,538.1781044267204 730.5383214084611,543.5486814527115 734.1658465732111,546.6540751303912 735.8750271356989,547.4275553235777 739.1344687843679,547.8682809905307 741.65341241028,550.3323996070242 743.4687597141614,551.6895807429678 749.7655617690518,554.8393646626547 755.1486519329791,556.5399849266092 758.9229717651198,557.5252916375686 761.7352009628911,557.7213417751389 768.179229216851,556.9559541142048 772.1437629728136,554.7859037038876 775.9928978532974,552.9616711158909 778.9936614050534,551.0004032416524 779.9419792182221,552.1100131562691 780.7399044778637,554.847766401828 780.9742801327441,557.4689340646337 781.1474665194755,562.897584433583 781.5125141292153,564.867548094702 783.7775984740164,569.0719054489118 786.3503986055858,570.4450379819727 786.6923872798768,570.9138595811763 791.9149110754169,572.4105002078454 793.918983650472,574.4107122828254 795.9285692775472,578.4260239715456 796.7241756846739,584.0325608493343 798.7263816636903,588.8503561426919 800.3255216798844,592.0582843374203 801.6626418757178,593.2652136601771 803.1635133796877,593.5784335245532 808.421689566043,595.7030699311694 812.9303257493547,597.8949018468562 815.8902213507347,600.2757837809892 819.0003651961464,602.2067492986868 822.3094929533711,604.591510162842 826.0010723175569,608.5060668215617 831.4678412490791,614.7516981947077 833.4745047016584,616.4441306111866 835.6198182099595,617.8117581164272 840.7606090600995,620.2548511706237 850.7625703133643,624.6859156368768 858.2046426370271,627.2739301103866 864.3129587927968,630.279378872285 865.6093861269994,630.6524566474134 867.89237526417,630.596337267919 869.4430393861386,630.1051247911483 872.5643342198127,627.4778651371394 874.6514871591899,626.6738261370131 876.739891050772,626.514887337046 882.6652408056771,628.5443998553495 883.9393113673796,629.87149044738 886.0749557502576,631.2384626236496 889.4164223667537,632.6358099231669 891.3631644390719,632.4770538884322 896.6868683348902,629.577750871434 898.6490458549098,626.1727120148997 900.224147239498,624.3685690896997 906.2837623223086,618.7809774566405 907.8435424661866,618.363583156503 906.7239636436507,615.0935429185499 905.4607399964707,613.5428241640857 901.8198040311421,611.4821501076497 900.544329654992,610.1304864825565 899.8241702806513,608.5913926860186 899.4499765191764,606.4223829445405 899.5269567451039,604.0249609130112 900.7179067634438,597.1088856507331 901.030479357712,590.1584778985605 901.3416769229183,587.0122725143868 901.8746198316412,584.0980864597393 903.332368384001,579.131627932594 905.433332442033,574.0963311162654 905.3675835604195,568.8740546839587 906.9030508439973,565.1075646353247 907.9391283322375,563.0489081628301 906.7422960031795,560.2428461685245 906.3373729086863,557.0375390750239 908.2080465647637,550.6829167727066 908.6413360420062,547.4621442934061 909.5553452139073,545.301581998644 912.100601416608,540.9181053567455 912.2378056074699,535.9371180504219 911.2434221388518,533.285079392301 910.670902878221,530.4498217197685 910.1341172171027,526.2033085905322 910.3732756327079,522.0772510471869 912.0766044401189,516.0357258075558 912.6751877688475,510.9535351492405 913.0516022414305,509.21966788281685 914.228582125711,506.4282491900993 918.0929879254995,500.9947389935338 920.7387660334895,496.6065846036279 922.1375161053131,493.09654920287994 922.1405760241288,489.11210253224505 922.6036924838739,485.14026888954453 924.027513515922,483.0307572630512 925.8962035903719,482.3225543513324 927.0626806854666,482.3219907388905 929.4084416926003,481.1446140761885 930.3466576312218,479.50411685151744 930.5887009000394,477.8636293549752 934.0111659355393,468.80676310308434 935.3525289134978,466.81961469845197 938.535277979725,462.89056482312697 948.4526202710764,453.6894515158132 954.6049979381278,447.52868110619124 958.8146020406724,444.9025113375684 961.568971594219,440.7731017773176 961.9623773247004,437.5669926078126 960.7684751451814,433.55831982807945 959.1592195955641,429.1581067570675 956.3403869256043,423.94795656245986 955.1364958571128,419.94671947930135 955.1276807867008,415.13679789023917 955.5339833125197,411.5228968475095 957.1484235627065,407.91062815640447 957.948274452042,406.7087220379526 958.3472858289126,404.70560326108745 958.3529903344828,402.297904520248 956.7528473103573,399.8975729075403 954.3326903248831,398.6989042581 951.92553213845,399.1074200113237 950.1504654344265,401.6762582974767 946.2938864453461,405.53554214238716 945.9034646713068,406.73425004957824 943.886882976836,407.94190519508277 937.4606445875182,408.36169064076023 930.2305156465309,404.7709388481429 916.9811455764103,391.56632788593186 913.9514909158039,386.2146813565246 914.1123211161134,384.6112555161949 914.8235662054587,383.2093070108673 915.1596350232276,381.4503216950733 915.0457607764889,379.69967624217486 912.9414960091639,376.7811324969048 911.4169759422422,375.8422325985135 910.2439266852197,375.7287616231188 907.188356828529,376.43508876374324 905.90111955035,376.4398704312363 904.6163464785511,375.1525439763868 904.9587082760984,373.7465557648757 905.2130774873187,370.2372800850829 904.035375432224,366.73306991016693 904.3790501460828,365.2075606124081 904.2728364805731,363.68846913295556 902.862998019698,362.7507641278347 900.6312155851899,363.9309477387944 899.4568562882266,362.8762860629057 898.5234589661484,361.3613180402259 896.5238561551666,360.8951843531611 896.4102250085739,359.1388277001012 898.2375242489406,354.7760638172131 898.3443862612671,353.49270500290123 897.6499028657221,353.37876071266317 895.8861010136168,354.8999125588236 894.4754076177394,355.7191318326664 891.3095556746391,358.1847819717398 890.2618553253699,357.715870860713 890.0305741437993,356.54639643337896 890.6035959274199,354.55289581372733 892.0145332632738,352.8020789194522 892.4887789175057,351.5095175956008 892.3699693415731,350.2236547235786 891.6556296674486,349.1683552524812 888.034747264292,348.4754069980272 886.6263227384154,346.36689471800094 881.7485189387663,342.9825906552224 879.1214152155458,339.2931593509032 877.4673876802644,336.4152761151432 874.6792250524715,329.8228263257804 874.8247626986165,328.70877344327863 875.8275550600597,326.70114128662703 876.2312419070031,324.4932679074342 876.4349251344858,320.89045189686084 876.4253302092832,317.0803280893771 876.6244815143945,310.26892316369725 877.8292812891164,305.85192320827133 879.8307219026796,305.04701958650594 882.4413300123099,305.6453961856081 885.9975639576016,304.664242967383 887.6773035093337,302.49523307561367 887.9208292290251,300.8927308946696 888.8568788107518,299.4117825395242 895.1350985026448,296.2597577642078 896.186697519932,295.4384641469654 902.9580339613025,292.14178712351315 906.5859945346378,291.1914456280426 911.8350037725276,291.52638070157366 914.7521155112505,291.04431107712344 920.8237994200101,289.15482665546745 925.9690455723699,284.81306881769854 928.78250399462,283.63332524775933 934.4874918091326,282.443375768004 936.0099480686342,282.43342021701204 939.641035813476,283.9472607685436 942.4366288102465,285.33051858198763 944.4264564725217,284.619750942214 945.9767502926017,282.046646887087 947.5036395991565,277.9022381770466 947.7253986493513,273.4495673745755 948.2714380022079,270.30392232504926 947.8424288463121,265.61270650922495 949.3706641316359,259.3128617393203 951.1188570234377,256.4800322213253 955.1365936387305,251.48026774489801 958.2002206804034,248.74889215636182 964.3022933829594,244.81883337009629 968.5527999136209,242.85905529785168 971.3922787012931,240.90301343845215 973.0333549601526,239.3799589067748 975.2021082231399,236.21941628665172 982.6178804155331,223.0418005370119 984.6947157536166,219.78911177003226 985.7895229470813,216.74222208023355 987.9656509552105,212.06183466315082 990.377869364735,210.96620265604747 992.4342653312025,211.5079904143501 994.6274371629347,212.80257455656067 996.359702186968,214.22505267473957 996.3300248224646,217.01767966180296 996.5868289430274,219.78299203837946 998.6758070143701,223.13317652600506 1001.2937822648795,222.80234271183474 1005.8295332367031,220.85244209147493 1008.4452585038642,220.73020621123112 1011.6388308741799,219.29156680376082 1018.9420638233207,217.33262094580266 1020.928102164691,215.93047126343197 1022.3096468439934,212.77637807671806 1023.546889515901,210.69657002585018 1024.0,209.3864492058487 1023.8271403928131,207.4113722069282 1022.9126318181076,206.01100099509955 1020.6678996109291,204.8091526977762 1018.2971952378376,201.9837002701541 1018.0718697355271,199.0821446194485 1016.9013592894343,198.6618865300067 1013.205063592507,199.60007605849285 1011.9573730146797,198.67806830472443 1011.9393724490959,197.5128900306239 1012.8711013868202,195.35592043385753 1012.4472032229669,194.85054028116406 1009.5771937702858,193.9000041404774 1002.6037835123482,192.75986562938203 999.29562063291,192.65646038907232 998.6574583356378,192.04252117643517 997.6625612407728,188.56733111336933 997.1281217001406,184.21474562445513 995.0607498672664,181.72426012347034 990.6030996727428,180.20630150143785 985.6880140369178,179.44610480529684 978.715279023339,176.41342922735907 975.6789129208581,174.69027136747803 974.1434099860738,173.1710408825159 973.3932463619209,170.77605435983799 973.4981260392707,166.65603631899972 975.0220880823258,163.6043232520621 980.5794458214809,156.8485107050795 983.6424136540008,154.02004592901443 986.1466158102646,150.8724953377701 987.126062320666,148.03877260853528 986.8038656217468,145.74896905294025 984.1805920125569,144.7760063817537 981.4511778607908,146.95724186510472 978.0694679646689,151.73657059244516 975.2469417414346,155.99058660151366 970.5566402246043,158.16958464721012 967.1661700980056,160.13101646568413 960.6378620829086,163.084982011639 955.6188660961043,164.50303338348652 951.7940380025761,165.0573306808576 946.3492307047854,165.07214654437155 941.4445008069216,163.55960038183173 937.0795887968656,163.01671979257094 932.6171953257236,162.92426268263284 921.5994692162211,161.75214595616507 917.9987679560712,160.44121695247725 915.8282653865241,156.42130545228605 914.0862805674021,148.50498943226677 914.0993043150347,144.58315160240068 914.4160609759296,140.89235877083655 914.3163300241717,136.9711708452357 913.0036385708306,134.69493096754945 910.2813070007999,132.52452087242887 909.4120977867773,130.7806472441427 910.1810530163025,123.18615014400103 910.2843545035308,120.23868346342385 909.0905817723042,117.41916086728509 909.2014951013874,114.69757171889728 909.8654101612121,111.11687670395656 909.8600017626546,108.718459580998 908.9844307174379,106.64814626018506 906.918751660771,105.23442806890841 903.8648345103154,105.23848608311505 900.7005732868402,106.99450546965909 896.0077741451221,113.19054091168482 893.2797967284611,116.99865339820792 891.6436626746951,120.8189222552262 891.0032758306339,123.31639674412764 890.0110495055605,125.37352912723338 888.058934836935,127.34213614598349 886.1029054417364,128.75473165217613 883.2494777007679,130.0566967354273 880.4288849327748,132.0287900239229 879.3374703501268,133.76409641051873 878.5757826347178,137.907160691768 876.9291734650797,140.0745356887968 874.2083949995352,141.3835662604106 871.818719621334,141.38135717145087 869.5321736545699,140.2911463109669 867.7947996933804,134.97388888234343 867.3178019197704,132.9515206043767 867.2343577758359,130.3529689879644 865.0839158145303,129.14469544105754 861.1730240441452,127.36623674056074 859.4413374859963,126.03740316535203 858.3801212865569,123.3082333037134 858.6331543145711,119.8349573928158 863.3616321248379,114.32130638965418 868.5216046113098,110.3607454608267 862.7900514267601,108.02288114763019 859.7468898080164,107.21808770794837 857.17409091132,103.51356764636193 857.3163216924266,100.02005757977793 854.4136569571942,96.63242583657075 849.7939176196977,90.81924135897361 845.9138966399111,87.29322479507744 841.4410753032023,87.36745181836045 836.0960742751045,88.8224522752439 831.2031919743882,88.99032016855051 823.8129431920364,88.91305412177701 815.3384311793395,88.17027569772813 809.1447730923525,87.77232820443112 806.4358251844374,85.4620798159981 803.4510515958251,81.4085946886263 799.2064009821675,81.25304605932024 795.4105660514224,80.11973272006173 793.3840412566717,78.02975974097922 791.357219171892,74.09349698424865 784.903024391129,68.24592730578206 783.1939652840899,64.20512588619908 782.9122661777872,60.38974650274156 783.7122135282061,55.71607436062084 784.0146622774838,48.99106811809793 783.5524393473555,42.35008443270374 781.8017483642486,41.885561643046344 778.9818367397044,42.947360788069886 776.8856377182334,44.97586252317285 772.9051850804808,51.02578648837232 772.2333748952999,53.509314860319705 770.8293709555988,53.168322677223614 769.2077388673962,52.166321713298885 767.9137785507306,50.196642498223696 765.4564363359798,47.458023299807564 762.2646432039083,42.81887344979975" /><circle cx="724.5986900556695" cy="184.92947354499864" fill="rgb(100%,100%,100%)" r="16" stroke="grey" stroke-width="8" /></svg>