<?xml version="1.0" encoding="utf-8" ?>
<svg baseProfile="full" height="1024" version="1.1" width="1024" xmlns="http://www.w3.org/2000/svg" xmlns:ev="http://www.w3.org/2001/xml-events" xmlns:xlink="http://www.w3.org/1999/xlink"><defs /><polygon fill="black" points="281.0643332884208,994.3621878572699 284.87739941591593,990.0662029870485 284.3499115458375,986.3164938739899 278.24608183111906,981.1237061546187 277.98498214832904,978.4576378614655 280.68276642119474,964.4113570025322 282.2108809304538,957.853152196633 284.14634660198533,955.1861714441833 288.05381435402165,953.0807619812236 298.57236138821304,944.7523588512054 303.11397798969557,940.1313514757984 309.520260001847,931.241139291724 313.554223453662,924.9535074143243 318.1514433961641,917.1335316652252 321.6481418073445,914.3637800187462 326.37589992846324,911.8215606464726 331.1030612271246,911.2560335686838 334.84964197451603,912.3402232936435 342.74368198070175,917.8481577462212 347.8252478506112,912.6808135018083 349.6274168666111,908.6164337456005 349.8694818257293,905.3962954807505 347.8489960707455,901.3459563703261 345.5154319085987,899.5629115565863 339.6403800302157,899.2809833088522 336.35971760180894,900.170196364858 332.65837339433256,902.8410334332514 329.96161099215664,903.6416515296636 326.2043161424098,902.395683032142 323.581830491538,900.5552250045899 323.0041956505444,899.1743420072503 323.0564820511909,895.6929771386775 320.20425356560213,894.028605256017 319.9488998092216,893.0171218973605 321.01638031320874,889.6124598906348 321.0003985745507,887.1786099542661 318.55759505362283,884.1381503932366 314.4928842292918,880.3004371069112 312.74298544319726,876.9562300573934 311.7667443469198,873.753461335983 309.066854001235,870.2608516615225 308.48736779271366,868.7369681523255 308.7664778592183,863.5380252234535 307.72767156520996,859.7578615966061 307.9840033266154,851.6380382452447 311.03143743717146,844.1700165393173 311.3151543392001,841.9330488561172 309.4049055928702,835.7531858338245 304.2548950414844,831.3414690244697 298.1575528785779,829.5813746549645 295.26422637120373,826.9556217486959 293.3359630897013,826.05887207876 286.7644845692354,825.6345153894583 283.3154401480098,823.1374207857667 277.8697824667887,816.0830512227919 275.7986213965853,814.2861835594388 272.47110365946764,812.4566193738046 271.7040001120085,810.8142890038969 271.64631847691896,806.696547086404 272.87712066065876,802.2464741923793 272.59853526607515,795.6679189643924 271.9326523258793,790.6064469035346 270.7460379554624,789.5074045838994 267.4233030494279,788.6016838866601 266.2120214741609,781.8429023677293 266.15684711192716,777.8995444778958 267.1144649945186,773.9105826321564 266.6835753513454,768.319401141011 263.29794540104456,760.2239439859605 263.1647728960844,756.7483698179486 260.66771988940667,752.3205956234029 259.8367905737186,749.3717511478228 259.93842966629836,744.7473687810545 259.25219478055544,736.8686914125528 259.31654519735605,734.0896127686135 260.4793892262367,733.5155222600188 263.37168466319434,736.9116512060957 265.22708417167314,736.0544206381519 266.2101983993824,731.2448192788263 264.21250826213435,717.3331486001207 262.5331972610163,708.9529570658988 261.5583373269929,706.3612666112881 259.66639103037096,703.3565620642966 258.3710331704742,698.4374257218483 258.0925436176188,691.7409837569953 258.3694838237668,689.6188977715005 261.12529752032304,684.7452035219029 261.9556162333864,680.9119831202597 261.92768082008445,676.259523511168 260.4185037636051,666.0949898574229 260.6765818436977,663.9621553496353 263.5061994633154,659.6860451682571 263.8970710314429,655.6876791492068 262.81245933080595,651.2841664766402 258.04913271550856,643.4971635852997 256.7762526953401,638.9344130014276 257.81401575903925,632.02937162372 257.8735778933759,626.3637024605216 258.92694165257797,620.6841003277136 259.8059542373212,617.7945686384194 263.30098236882884,611.8983840928547 264.21446488510963,608.208500352405 263.52799813141655,604.9150841245995 260.6104514663703,600.9222980535749 260.7802096354073,597.0998688343511 265.4616130865277,589.2431280847034 268.173994591072,586.6011558599937 268.30828167620166,584.2390286761652 265.08485992726725,575.5930128560944 264.8170452933561,572.4351337526602 266.4097030896646,568.796936328197 267.17780435871543,565.2803328271357 267.14343923378567,562.8404357695999 263.8898596095146,551.4181808346262 264.0784707313685,547.6268855918104 265.3881723948074,541.7046980457504 264.7246608764402,536.8819872724055 263.70892829020363,534.5973313797051 259.80567540794544,529.0612116550406 254.86645400041076,527.2166394998014 247.8924699239394,527.1714058611251 240.7749793568415,525.4591130783493 236.17446079168167,521.9075463672416 234.22967473066308,518.8751673233421 234.65541430523135,512.753407454985 233.70762010681887,508.73601433947533 229.32456342379228,502.6702206885499 231.36814265997782,494.7219963233133 235.080034946499,488.6958440856182 239.67460463762657,482.6572652780035 247.2088959930404,480.31415077069823 256.6420348261344,482.4303861232322 269.8934851177078,487.94464789943424 275.79074366517517,485.43025218895696 281.08271943768307,480.8185529638828 283.9665063118255,469.51837355775206 289.4341531895869,453.1700446278546 291.55634588839723,451.05451482462433 294.6953535748037,449.19630401346467 299.1485684565361,449.67954704429144 306.53619830725575,451.5082285406296 314.81396415327004,454.02156553648274 321.17634249890335,454.89172167855406 332.33658467478006,453.72800743590767 336.9002399743958,454.2087999857067 347.5991744442662,464.72529489713554 351.16007997032057,464.5320507455302 353.54763802235965,463.37367425952175 364.93052688160543,450.10605882983225 366.08672348140817,443.54863562393484 366.26005916194094,437.01502473050357 367.07562341344135,432.4174921001153 369.6663085130296,426.80073849794246 372.2878656255157,423.97915674497506 386.09621562768035,438.3232015982794 389.4116817320796,439.66189652697665 391.26345910871026,435.59422107365344 404.10208470477966,426.880195864543 407.14282683498755,426.6825823423703 420.5629412375918,433.4177327078477 438.3081147703825,443.15473275727845 448.4681314709296,449.64474612288166 457.5129634126237,453.6083854830605 483.2439870149443,460.78167424543267 489.4986848193673,463.5920420253693 490.33636963926455,468.5815220312503 492.26949950584043,472.3803029577923 507.15572108317997,473.86362699057554 517.776690911394,479.80575909546087 522.0548831405644,485.71491579153053 526.9129988398561,488.2832797276135 538.001449893494,484.7703602213014 545.2135535173311,483.40261499314636 555.3657150729425,484.2266920998544 559.0345570443033,484.31084495335176 565.0621966226755,489.2190027142625 570.2218375708692,495.53934350969337 583.2698101439217,504.47017193123656 584.2954527957877,508.8702787591102 585.1552934864831,510.3764965741701 587.5911605772134,507.5924956324716 588.5346865682363,509.1382435981767 593.7206202428164,512.3269670593027 596.3472179157964,512.2854711818807 598.7135281138293,509.8183162023273 600.5148051961091,509.73795051650177 601.0431914816616,512.6371059853643 603.4197694427816,516.0633519476078 607.3670102726802,520.2049131014977 610.8809521915143,520.4021894940627 611.1332133489898,522.3124392497512 609.7258802581171,524.9389798486309 612.3317700120923,526.3765225403752 615.053325436445,525.2692816547888 617.264006395035,525.8926465554102 621.5666666466767,529.5725291136587 620.901741970503,531.5178116773143 622.2833408453428,533.6631049943653 622.6098063404773,536.0892379368305 625.263085000653,541.7410254620836 625.4737428906654,543.2778795197203 628.3894534823726,544.9931940515521 628.3287347401558,547.0215870517101 626.5245021944428,550.3523897545522 627.7857136054909,553.1989590576371 627.5771373135524,556.3738647415422 629.8898531243898,557.5329952374241 629.8268567799325,560.0470622739368 630.8028916193308,564.6709855882954 633.0650140378401,569.6499973929351 633.4774362901305,572.2476300482364 637.5597560534235,575.9512113260648 638.084761117601,578.598903777603 639.4364088212609,579.4684119529991 641.9803969403234,585.1217932495929 646.3264925086663,587.3829398393068 647.0277394981596,589.9366382093609 649.0327055589056,590.4514230057921 648.338558793997,593.522567669236 650.7810255826499,595.1446259083104 650.8808996662638,599.6725344518688 652.1410094534593,601.1626721535496 657.2671645085812,602.1961990213256 659.5341118523606,605.0060165989105 660.5070741124019,611.7909381634198 655.7270000153975,614.4830268504193 655.1917243753446,616.3870419900015 657.2256367190195,622.1616385517557 660.3982934630957,624.0862089980701 663.0763985127645,621.8946568591556 665.7125621946004,621.1936743100486 666.308622321714,625.2892534066211 668.4063425481629,625.132850847215 669.0379039671312,629.1162657972598 671.0254854996007,632.5198651325309 671.0422442671062,639.3311893872149 672.6292687503778,642.1440095344323 672.2725772542802,647.653733719844 673.384369834123,651.4675110868319 675.1748908409331,652.4114690764669 678.2869382970291,651.1651569792822 681.3834181200239,650.7300250731055 683.7166039880948,653.0639149264264 685.9041507962429,652.6842900153191 686.3634496708403,653.5286952072688 685.9456460053473,658.076027007038 686.6443869669498,662.2013490955337 686.1481690483577,664.2981393019916 688.8670611718892,669.7282198848272 690.3580217888965,671.1829929299818 693.3210160194976,668.7726947080455 697.263939580948,667.6760603922619 699.9014690536502,665.8791791930266 704.7428048564733,666.3677429359485 706.2395403863256,665.7964060112517 708.4497322662377,667.4122119051647 713.4157051090854,669.2973378761301 718.2053019254494,670.0300357971806 723.8285830955772,670.040122859741 726.4349010262868,668.0107632114236 728.1872686642789,665.4672884459453 733.461766060786,665.1873287990154 735.7940034240102,666.8024102735919 738.8997104926402,666.3049275865419 743.9346330332734,670.6117481974771 745.4741866083351,672.7254568762839 745.8898205171954,675.94218587874 746.7489351693877,677.2875432074228 752.4745381596597,675.5803893684845 754.3479800458632,673.6130474963661 755.375989624135,667.7555185609123 758.7144372191992,662.2777814104049 764.0047016788664,660.1012152205357 767.4283076840163,659.7708743826422 775.9204258719953,659.6185734107939 788.602290048818,651.4805379333363 790.7697602492599,652.1326917794593 792.8365377798714,654.0439120492831 797.1874383821156,656.8913072412186 800.3942172120719,658.500419167105 803.3038007929018,658.025607171243 813.542539846631,647.8269898463 814.7620281910521,644.6031565950329 816.6447744858408,643.324974270766 818.7993657186568,635.4925932203209 818.3574002426352,631.891262197126 812.0197941172215,625.3291896928013 806.6904703877509,617.3605281435738 804.3744354320379,615.5243965879795 798.9413238909909,613.5378798267348 795.2160472282692,611.3811075586384 794.0387824329252,608.7555896388883 797.1552048734552,601.1933895729264 797.0707697850951,600.0898577617403 794.3284985776045,595.5447859808794 794.6347817361183,591.091554176631 797.447235256091,585.4095303572004 801.5124915791883,584.6417236899496 807.0675380700085,586.7675044828737 810.6119588247632,587.0519452892989 813.3875705833552,585.7492374316778 818.082139914301,573.8327927680064 821.9493520409774,569.5926560632516 826.1126835000608,568.5491401776485 829.726493333607,568.5491041838692 832.6088321226134,569.249881713305 838.1295604134467,569.3587324785477 840.64998279374,568.4025891816528 842.1511211821738,567.0598351251901 843.0831248696263,561.8255534512402 840.9900792771585,558.9423975710265 838.8233911588756,558.2908666381883 835.023613943266,558.2942541475397 829.7582730563561,558.9511867754383 826.8774876513177,557.8259713030745 825.6297487290091,554.8575952636734 826.7547166725801,550.5930887099375 828.7266601662546,546.8705987881247 829.4036878155425,541.3688089835848 827.0734122242117,539.2503190039126 826.0134246620688,535.8638083538284 826.5361160624127,533.8383181977233 824.6097995975391,528.1764075306656 824.5617812720822,522.0582197431424 825.2001467673797,518.0770198807566 832.7689160138084,515.8515418960008 835.8251266271981,512.5977201186724 848.346423699261,506.17369111624487 851.484798223816,500.13290831773327 853.894970045867,492.3016560632981 853.7889000320283,486.11520270992196 854.258878090426,477.2043229436316 855.3710874602002,471.6854165367637 858.370355017159,468.4321005714901 871.5212996547997,458.301554444914 881.5801390277603,445.5985275536897 883.9252249292335,441.6502883215211 886.3263516576504,440.3621922433455 896.2162509234971,440.4435405893985 899.8477471955657,437.3120731839623 903.0779041299876,433.499040623974 906.0642736743388,430.6521803380092 906.0425352141268,429.4060635688468 902.8123005571065,425.1586038751128 901.9492587017487,419.3309978187649 901.0206658539745,410.31520261281105 902.4268432907851,403.05063549387626 906.4564216222182,394.080340139853 909.4119191516902,389.0175385565882 910.4501218600835,383.5732417320263 910.5229119455685,380.37161156455977 908.8380522238886,378.45822956036477 903.8866589564399,377.7147903933799 895.7585522456412,377.8769709767114 891.7762557177898,375.1719415873589 887.8893814756269,369.96433937103586 875.9257287618526,367.834554934552 874.8719789005797,365.89898278024737 878.6131253132671,361.65301256752 881.3870937211072,361.04845961100136 885.0727149872605,361.114936848948 890.1812053799543,363.51754594352974 892.3573919236558,363.753182091637 893.7275240159355,362.48283061597056 900.3771156131404,344.1362385775453 903.8256063082334,337.52752651593346 909.4817982603124,328.24872917291975 919.3435489175725,304.4123543983567 922.1073613568824,295.88332166921 923.1845225423647,290.1174698542818 922.3207687161199,283.2209939442207 918.7191433119289,278.336000997322 917.3914511734599,273.02587043805 914.597087097002,269.70639280840066 914.0583904149239,268.10622718542106 915.2568803223098,264.52480206240284 917.9045393735181,259.99516552049283 917.4985942247217,254.31671294811724 915.5222570505949,254.32003453200582 910.953515621381,258.7419092314543 908.6736683348446,258.8919557104249 906.7930915321535,256.36588766813406 907.6534625391421,253.07338384755337 907.8623551497653,244.3582367163267 913.949964186007,234.51805712703901 913.1375541374579,231.57872472695658 909.7847702230883,229.15874725041363 904.7825978602026,228.97460961993283 900.3480084312313,230.4984873677073 898.1910807451378,230.78933134598094 894.6270077204999,230.092460772006 892.5180418032489,230.91841760431828 890.1224798459193,230.809363563788 889.3703906452582,229.17358239871544 890.3571828309109,225.08986716366167 895.2076581743939,221.35199757861847 895.1542197291275,220.42236974492812 891.356666460868,216.98973111275143 890.4161783790898,216.76252128503336 886.5047468221187,218.51116921067126 881.6558878836496,214.38620839401415 884.4009504210262,209.54408890193213 881.4845923695951,206.11635099456953 879.9583673571397,205.8285697419376 879.6651901202582,204.4284107383054 880.3126943603445,199.00512029217396 877.1580359242854,195.6726583588736 877.3871836312596,194.4646032521631 872.583558368298,195.03390768204372 870.8015511614436,194.33553428432822 869.4002155049933,192.67168542676484 869.2411425959282,190.50996975798205 861.7675961582192,181.37503658910828 860.3790409323713,178.29465515586412 859.3157922635494,168.90855255850124 858.7206547097691,154.36643337008888 859.3753898935743,142.9180887108389 860.8525834503973,130.2843932230096 872.6756212360579,110.8387961975036 875.7081874082673,102.99086626418034 882.3657688995445,95.72711522947998 888.4326299406165,85.44121669569392 893.8854252710958,74.56064975328707 894.5017109226534,67.91947520850647 894.185355914974,64.2247357757027 883.4448713693473,50.94026497730363 868.1809539814936,41.20189913101274 853.6523577415625,30.53012624993721 854.242895610176,26.61999972225533 863.738264124178,12.752489518789844 861.4678532278106,6.880137532991284 859.2515111847955,3.039294718402516 854.5113744555656,0.0 851.3641588931445,1.1754722216993514 849.8400798443532,4.12252522283552 838.9333919765558,7.109570129384338 834.9981061264549,10.461297300760066 828.4139039804325,14.344347594051555 823.1663493501285,18.395901682389876 816.9511540460501,21.090110166347927 814.7346432878468,24.260911659302565 812.7808291586678,24.849319564911866 809.4020300292528,23.382571646104225 803.2098277169204,17.17292123710024 798.1591549666421,10.044497586395096 796.487975421363,8.193120362676837 793.9319011112198,7.125474518477972 788.2676365589489,9.04071242436703 774.3668437420665,24.585169990596796 770.4638577772125,33.1297688878667 768.6728036588563,35.66558459613532 763.4307571427262,46.73969419814591 760.8023147714885,48.593239972641754 759.970148032558,48.121591789654985 759.7207069403656,44.851704635169995 760.6996007727499,35.316246719378455 762.1082584823529,28.82441243737378 766.7261218622956,18.11607952628185 769.5712867906343,13.825539577350241 769.963689503609,10.686233545261075 766.9570865864854,8.726785741282015 764.4878373821592,8.980769383051097 761.8827321804987,11.590038291793462 762.0394093180189,13.255095832081793 764.1999993033102,13.916457067207261 764.811167820069,16.612804209728893 763.0332112404843,19.916978928610092 757.9466926199574,25.974234045139156 754.8260146858942,32.07993173782859 752.3991035083792,38.17387559853751 748.5570049574695,42.68518451183138 746.728482033998,42.503731369391744 746.1777899767035,40.07825544298214 744.8482914845911,39.75636792794546 743.454942962642,43.4577953358712 741.906249467993,45.566431891453476 741.0384517500598,48.50140267883705 742.7764729395851,53.756645485266745 738.5680218985242,74.1222903086433 740.4059240157732,80.38812225973913 740.5888969598946,83.54908536010976 740.030332336859,86.19591885963473 731.7140906535295,89.28686692293059 730.1443648701295,91.87981566376823 731.2436992204641,97.7352323207507 729.5103312647145,99.43183730661667 728.5527826689917,99.24505584379699 723.511704590037,95.36663525544645 717.5760341609181,88.37042337417108 713.0306557583086,84.71614615496651 704.914409842289,84.28495375644638 701.9635115735567,83.46463519176837 701.1584909558723,80.14266704425074 702.2678172623137,71.64460402782879 701.7172457839041,68.59034045031137 690.6384961516178,63.19528973322838 687.8853965528364,64.2104836739295 687.7067578784619,66.89170951289123 688.3560704151644,70.31687232413208 686.3160230347196,72.99891275931304 680.3896776229817,73.21749288800379 676.6635751363486,72.5824489309149 673.2652602882779,72.76869630553313 664.8267191712338,74.0700646042003 662.1062355163382,77.09615453149377 662.0920051881942,80.15813652910981 659.5590915823271,83.39329550297123 659.1003732579051,86.53482989657925 653.6494436339636,88.68429695621558 652.1483167474628,89.76024550806721 648.8866687510921,94.93875664514098 646.2811576917271,97.6892162045441 645.5157169335829,97.35902160871615 639.2293866500727,86.87711408058522 635.4890068068884,81.925548268939 631.4397295162457,81.3545863114008 632.0370056539019,79.33311922022301 631.3159198671153,77.67720012263715 627.261676189494,80.23866600421525 625.663728342443,78.2432665197706 621.9945228619684,70.85417620816554 617.8767846942135,69.38503886147043 614.1826745317745,63.25988858516496 613.08226776057,57.638322427307685 613.0196231278914,53.74778328216803 614.5925928132532,53.59199618159869 615.019036187167,56.566657405767955 616.7055205899813,58.84360454941202 619.2047392837555,58.10546224083805 618.3628381687338,52.49074401662324 617.3072901147633,49.65668391939744 615.6522143848043,48.704192327316036 614.7991420635263,46.90890261641016 614.3192633774993,36.629790059971356 611.9685552792382,35.1321021514666 610.0798736289124,35.7173242504299 607.9266240678716,38.94567731870461 605.5578188938506,40.85251600048525 602.4739458505471,41.45842970944898 595.9476816515826,39.46172495887845 593.167912741201,39.43550974353832 591.5442267493387,40.43122576090548 591.449820668783,42.02957706794223 594.8504010936241,45.59162704125413 595.8859993839061,47.73769736137433 595.8206258194953,51.771716198403624 594.039015296159,54.508266738177895 595.1963301582269,55.600931016471804 598.9181251112259,55.48001837586855 600.97631594052,54.406553975973 602.0350109323805,57.45124108239236 597.5013484299201,65.92306275338353 596.229986663003,77.34290995794072 594.2248352643375,81.7505757742108 594.4126394219251,101.62943553704986 593.23487134229,102.75943871447214 588.4545973066458,99.90456230584164 582.577825096316,99.77661674148044 576.8012404881807,94.8941533321123 570.9061062170257,91.88528159868963 568.2533407472253,91.71517354497018 564.6697255161724,93.02613477095713 560.7444542303112,96.76593279595374 559.7222291864692,104.22234215636206 558.4152461003406,105.4154483306121 555.451432256835,105.46223430620489 551.2077529719892,104.34568695564963 547.0272427079467,100.79356467282332 544.5559255040891,99.71970799489793 540.8417327559991,103.3771492136533 538.2119032614211,110.59456424097004 536.8110755947806,113.46749559070656 534.0084243872942,113.22851662297592 532.8884011803415,109.76801177935977 529.8166001521953,107.66293876006887 525.2216711897569,108.9276351381319 523.998860736348,107.19907015071283 520.466451938899,104.13135164158405 514.4519399026746,99.91879093515456 509.75126302601996,94.37176391767946 507.58951719456024,90.02994440699956 506.2079102288606,82.197981985061 507.1363845229444,76.40310895434004 508.4341992736991,70.48146578944989 510.15058960831914,67.04904420964681 511.4446795836612,60.349461039954235 513.1447773689464,56.43161510854702 512.7335395658449,53.87153942195289 511.09373472764355,50.835531295436 509.63649198881427,50.71676891790196 499.548791458737,52.561426608338024 497.316305545935,54.95033358807916 495.52276544127125,58.11036588041736 492.5142364493598,60.10731460865986 489.4910009289583,61.06402583070053 483.4868550376122,61.65177321323131 481.49783818886385,60.0243841509872 484.97180316347107,55.232388713734395 489.89216138762833,49.87103355549084 489.9764902400433,47.565733031658624 488.7972575474275,46.210365829396096 489.7309082903043,44.891487036100216 489.51578980741624,42.89413863894367 487.2021690987136,40.67776437940586 486.1716367437938,40.531806721956286 480.29659778380505,43.43093264949994 477.6259550032893,43.805258312479395 462.4582508434947,43.027678511427894 458.69991615940995,39.5192561111603 458.1070947444801,38.2961913829007 458.9201073733476,36.363254365012494 461.20900019780385,34.66074001470736 468.06591750789926,32.374198022379915 469.35232430526935,30.495228466249046 469.2283374766703,28.46661328809091 467.29288436946274,27.880264494974767 458.86910302317455,33.03066750524556 456.5205778515027,33.91526220518733 453.62194896569906,32.725863164688235 452.49064724170745,26.631198605764325 449.2740180515822,24.619941627003413 447.56500270324204,25.483671857175864 445.05344182578125,32.16036489773728 441.19707989405964,36.15904697649171 439.8572312202751,36.42144797795777 430.4100629737889,36.494130951955526 420.23499924959225,36.21430673419968 417.3590000588679,37.07650728523777 412.9383585739987,41.29523472596827 409.01189256324665,43.820120349462854 405.17763013655355,44.503230492951275 399.341931074582,38.953603135985986 394.1531150806338,38.819159050030066 390.7299910716235,39.678131576784835 385.69270189816575,42.32912402098475 384.75717185783526,43.565744411329206 385.7655458833776,44.72308083904386 384.0626972448136,47.27395567952772 378.3887053099697,51.977228417350716 377.22511563487325,54.691303487385426 378.1566177816094,56.921615765650586 381.8095951331552,61.40430443773823 381.4890842914403,63.57152280509331 375.7585302932569,66.9098390473523 371.08638352614804,68.6261620864774 369.9234988721831,68.3196684084362 366.4348832224122,65.47187319769546 361.16058930887624,63.9437956617852 358.67694941446484,63.94905910645514 353.47256816363887,65.89596174374026 351.8515524738436,67.83868015113444 348.2921155194396,74.62190744953864 348.5764934024218,78.22436578083398 349.729474092093,80.38081763162211 352.33853546343465,83.25287055474371 355.22846805246576,85.69644197030459 357.9748146270827,94.1846089179121 357.67937106938535,98.65681089751945 355.51461635017927,103.85274653756005 349.5867049308273,106.60843601835973 344.3760004429023,108.21091428117836 340.6232367278378,108.21565851550076 338.6018098683512,108.80001442046319 336.7488976572501,111.33369568933767 337.69123209538753,114.3230574164819 339.88863544721283,118.14108071098883 342.0112612553976,123.28496365313867 348.00238361091243,131.21178518324552 355.04220699239846,141.04498737337542 363.38562976507103,149.98969901202406 367.22966541895215,154.84708947826414 372.4487315736166,158.07483053068586 376.29644606244943,165.661755539895 376.2249966707138,167.10861865904906 373.9601478970943,167.5051826692328 373.0561946256255,169.67155047488393 372.8174838062754,174.8831116377204 374.19248662159464,177.6019302194693 374.5221402601438,179.79089796713367 369.29965189803784,183.33647081829247 368.19771886522307,184.68696546861622 368.2847417508075,189.90312119369764 366.6787778538781,190.99860021100676 364.3137817785153,190.92347673607128 359.57863864171753,189.83974055019826 357.22498589174063,189.85394033657462 354.77578990250805,190.95228483323046 352.15562207528603,191.21234937549139 348.5347933455932,194.67406171842663 346.9349712641998,194.93009026307334 346.6788128355978,191.9809888127253 345.6649727683854,191.06551038205134 339.2535291826612,190.6642842568906 334.9520243790907,189.41175159213958 335.28074069995205,184.6138906328705 338.07170060030995,184.01839781694184 337.3872848638365,181.58157244116967 335.20066402964767,181.67321689671735 331.8992156614086,186.06970100915373 330.33686712622574,186.9316457249481 328.690821489584,186.561173769236 328.3198141202912,183.36073097156373 327.13297139076997,181.44821460327148 325.3801309857905,180.80583317647768 320.61857543643083,180.91588844244734 318.0484735823907,180.18473212238007 313.5482705530637,177.91316704662586 310.8120736475181,181.00616814375473 309.4243308516015,185.0508027339108 305.66383129691457,189.7661430876724 305.1164687836017,192.24126292733843 306.58506275883553,195.0707179032338 306.11709837047863,199.28431630809337 304.928089171427,201.6681189006173 303.0980746206089,203.31156233553725 299.4177260891172,204.59819949091298 292.36588572745666,204.2046016621755 285.2226918039385,201.92001635699307 278.8091547136887,201.37535394021984 276.5106554034079,202.75336034705265 264.5173297685302,207.4233178245712 262.59326044213606,207.7036648512651 258.9674612266709,205.70283444033453 255.90352419826107,202.09582125046677 252.23901290815016,199.2657045218275 250.47860732430635,197.37031713333158 241.9159417261678,192.26310294794382 237.10485999002492,188.35832161018652 234.10828448480055,187.45920752654843 216.86660896648155,188.79309625255462 208.75466752648757,188.03730415541713 198.39837112309152,183.823811964078 186.2808791286572,176.21634223926822 179.977063941009,176.78892923179 176.4906367784484,176.0795568031856 172.63746359528,172.80593628436156 171.12525856569485,168.72224446208782 169.49305371247777,166.61229196904048 162.77491686141525,165.2886446662252 159.71383531141112,163.79374974792051 152.60345880929668,157.4828397109559 151.48630286722678,155.8198512300686 148.06767113333163,153.1275595104387 143.3708347382757,157.39653700734232 139.23719142854603,159.38395282282772 136.25535581633932,160.23211780536235 133.96908234410068,161.79992441781746 133.83349305995944,165.50077233083243 135.26242493706934,168.35229942341834 139.24157607058666,179.4896320157959 141.80142319337503,188.47298108307734 142.09775982111668,192.6142381180017 144.22104383497307,195.325858562314 145.94179388563325,195.75658497247264 150.92160977656403,193.20128518245144 152.77833916321757,194.0669401265685 154.3854315924126,196.4303680434184 153.53655423534062,206.90733380674453 154.19479676327407,209.5869832309944 153.06363692662842,217.0853066620807 151.78720470257832,222.00696499519825 149.8878862610237,222.86094531685546 145.83723823156822,222.85633409596778 141.95419395753237,223.6161907372101 133.95347172239735,229.77278613696353 134.37144625882698,231.93089803592602 138.7774148630939,234.09471999093591 139.98764636353235,235.22227022393133 140.8435495093131,238.1522618100238 139.80886263488046,241.8574259434265 134.5479577215618,248.36180989709385 134.46558610744682,250.5156873987795 136.3606647068181,254.18275024497086 138.7798989882679,256.8590287125195 141.26974055932897,257.98967422678686 142.47927241778766,260.3193213644074 139.20609600488334,273.9763757366243 141.09281922488412,277.0055489928269 138.4300204375695,283.8188704675897 137.5124611107241,285.21721989891546 134.0186223886367,285.35558017337644 132.52556293313154,283.312552615653 131.43175023853286,283.3068879588118 127.65706645688691,281.27417427807757 124.65469147226196,282.1238532123682 121.96537662116636,284.14149993390697 120.7587410718321,283.40032939628793 120.08419261034413,280.12213542184486 118.09251611325473,276.1733797972953 111.24326687726908,270.85352083088446 107.07301042224424,271.0617512172022 97.31586650347295,275.13602567338455 93.61450357817284,275.67083277960353 89.65182188581224,274.72255991012605 83.19220941961926,271.55087681844543 81.00049976030378,271.2169233697432 79.33408385616285,272.1189148555545 78.09531382205326,275.1993760043197 76.7800829082322,276.82422064785067 75.93831949074168,279.7689964606802 73.06620083939349,283.4586511551271 70.24158971873531,289.35218423880065 69.2690894245497,293.67353875447327 69.4147364069668,295.6137658391225 70.80146467427073,299.5096476091013 73.38344385978512,300.4671192996843 73.85041268543758,303.56745354209613 71.75388621468271,307.6616506458919 67.0556367028753,315.0772249696963 63.693929653309404,319.65304509655164 56.505921294505605,331.6954600658338 53.427323857229304,334.66933909486386 50.45612855835783,334.37503199086643 47.96193156603841,335.2372190120723 47.57740582890136,341.28229280926666 47.86100306528179,345.26497074338874 47.480904487270436,347.3738884376331 45.75024372170626,350.5437368061313 39.896946779438835,356.2953722813195 38.93697788444623,359.466128693864 39.221538394092185,364.308283232636 43.358574396523466,369.97244250066615 44.50404787432819,372.375757501655 44.60326672842632,375.05508521734896 43.54219984087874,379.8047453581273 46.419191271300164,384.1292174685899 50.457389740742855,387.1029266900998 52.08858134872046,389.1149094380945 51.99512681581405,392.58868036753415 52.79124908767599,393.96417576910414 52.353706694673726,396.61122108483994 47.706743149512874,399.6367811248459 45.86929371128982,401.7866361555 46.27431396804157,405.09992333456864 45.974078283158406,408.4145248013509 44.14212230759042,411.65632456397213 43.33658018381661,414.62237050836325 42.80146836209775,421.3402615135649 40.57050747157306,428.1398510317857 43.250077385533544,432.97448144838415 46.11815841788831,436.5606077384572 49.08452388327871,439.2246484915437 50.413366453706544,442.9328700565677 51.60944976004698,444.24346471936406 55.1420065679632,446.0908420443152 56.613849607301134,448.6831255089535 54.63957979916519,451.01708093961633 53.84227019495436,456.0477177934 52.24991526113769,459.25815336803737 52.978302062626376,461.6778720082875 54.90440839637919,463.4346203537216 57.05180495094038,468.0026340022549 57.81805443188033,474.087647509248 60.65618843120968,480.35932210176156 62.42169500181307,481.85413153419324 65.87490376371721,482.6087856115496 68.62287821899262,484.04198233816226 69.31472724726832,486.4919885419853 72.46393705817604,492.32420392469885 71.7277280577402,494.24768118346367 69.5303007409611,497.27290523394083 65.21768593172173,501.85617993022527 62.87881193044609,506.2313196170177 58.8583554349841,507.55963600896314 54.499950089313515,507.9997771553225 49.784053541009,512.3255035903736 45.01276233606669,513.0551818017711 39.73296215758885,513.3152225444536 36.780534785222166,514.7926562010281 36.188273832768886,516.3699968150665 36.875626462731404,527.1446990184857 37.95895087755419,529.1167850931976 43.3793858127022,533.9380478603279 50.37113258999931,537.4833491285485 54.79586196900371,538.5697643511181 57.962040029309456,540.7362184177712 59.82519623004907,544.085485031072 63.46491014312168,547.5325660049325 67.50116131619068,553.0500652286513 70.64528685692312,555.5811616284113 74.18719687820877,560.8221764176794 75.80781478154026,566.1700181129822 75.8156423837199,571.031453924565 76.4907198866546,572.1775025426616 78.38881373115615,572.4668869460389 82.48778644298643,574.1855199802121 84.2984500707753,577.6264196029622 84.82094977467972,580.6678443829443 80.19130181975974,581.7326628661266 73.85888106887919,584.7523181465515 69.9884862327524,585.634109024486 63.50795062742726,589.3954067963731 56.801888787654015,592.2386372222402 53.08465043071925,593.4621912190714 46.08806187649638,601.2111205187402 37.92115297085381,603.2004863764753 30.845397093282813,604.0818887925827 27.991576151595908,605.3252604825236 23.416078703000313,608.4431491968553 17.55561898168088,610.7571583074009 16.09958996118251,613.8145361291909 13.552781075771497,615.9037952357287 8.613089896841556,615.9871790034365 3.7786649620346453,616.4650493705853 7.126776347944352,620.3929777908954 8.15704544100638,626.1761413019444 6.992190858290578,627.375670255716 0.8433120186118048,629.5922265178203 0.0,631.1930051798286 3.102712985943706,636.3119699169006 5.274904535675943,638.4118212221802 10.361735157795133,637.3540976840677 11.975696587044029,637.9007541463516 12.527499293465938,643.3254715045678 13.685853500533542,645.2056136148026 17.293003849055726,648.3916248385062 20.787053343034955,649.1074691350725 19.619327779874613,653.0033421596199 20.67856259163624,655.1879645670376 25.111098102649564,658.1511832740524 25.76618830277068,659.9780007447685 24.54850593066683,665.7898777437505 21.109397695924706,678.7053911430792 21.78654383062023,681.5846643854311 24.6067932205121,687.032214958547 29.14900322016472,691.8998948321632 33.62872709330118,693.4435482971423 47.140230104015444,689.8742328219755 51.38860820165672,692.1306739076108 54.53356357063014,693.1427394719633 57.50842545333309,699.7129012665364 58.455190959046945,704.6673573702706 56.29890266287674,711.091832543515 54.57928812881842,717.5011961399326 54.35890721900035,720.6261102131168 54.80915804859529,728.8520399176282 56.00640592557565,732.2320179913761 56.38642374835235,737.904008371297 59.95701140892867,743.8395302385227 60.69625801868264,749.2444673520833 59.38150117395631,753.1848852180632 57.26392635635262,754.7835219867048 48.188951734697326,760.3245647979954 47.20975799839373,761.5234590690702 47.843772872873075,765.3491079146328 45.78266822311865,769.1261753082844 43.441923176230816,770.7793609499381 40.24092789910349,771.1850053843378 38.984190143795125,769.6393329084588 36.56500787366287,769.4268194013212 33.12196987956993,772.8679155610995 32.194854706276736,774.4525765293654 31.88988119660913,783.3291786238241 31.25263653541374,785.8418566873568 25.484758067738674,797.190580440971 25.83356289932012,799.8132076246907 28.797980928231073,803.294909963965 29.482225935123658,808.8325742821023 28.909622010145785,815.7469555977244 29.3750749642159,817.1708219780498 32.676365716412896,820.8508709468828 33.8328001012449,825.521461902478 33.54878723846375,832.3520330500152 34.32533696098123,840.0504976463089 35.16478872996863,845.2640616306278 37.64384172427986,849.29866481682 43.39608502881872,854.7541038673448 49.92918889773522,853.6662130819578 57.89616414996797,853.3609375825005 57.828282290287014,856.7698068319421 56.60404414058441,859.909189147136 56.28364894576829,862.5309811993711 57.032894144505384,864.3675166049793 58.418156424188204,865.0394265108871 61.49775850814807,870.8839405064682 63.46195419514694,877.514300111574 61.4449996947646,878.3510945641164 60.60042913108713,879.9143641840889 52.35027090517993,877.0180196779049 51.30801385613478,875.590610173706 49.88152402968735,876.0661676499047 46.592172713991324,879.8918936244509 42.02092699935676,881.7259591985985 36.58553756816992,881.4812427872188 35.63706696160632,882.2239729118262 33.474460059737964,889.1900440530202 29.954979173738405,891.0920832974485 30.088452133066134,897.1788075052899 32.75624451139454,903.6071801034219 34.251642609208254,906.3785724992912 37.57442242793945,910.8408129620625 40.10296700713333,918.0140689417873 40.36587512848299,922.5357892963241 42.23563493285167,928.3159281116641 41.6155042563023,932.9919167688199 39.9093598157301,934.1811272408762 37.83164907964623,933.2335114992061 35.35403193364825,930.0582941062794 32.69836579845337,928.3261122465062 30.140452235289175,928.2974072779123 28.81392177210961,930.8014965113462 30.375930005563625,936.6563426214556 32.49476647620248,939.369543777347 34.34413258320229,939.844054243898 39.07604117038497,939.5810062014466 43.295425347689424,938.501086267069 52.75729748514652,942.0737570662172 62.12725897974994,946.3887948461739 66.1757687060365,947.8481071316587 67.80811858366282,948.9441749191665 71.0261256194661,953.8456640762327 72.08969573420748,957.6578395949509 70.76855728033709,969.8848714381513 70.96477124779172,972.856654890627 73.16841673206238,984.1660958720342 74.50764382960197,986.9801184778808 76.66918667343577,989.3576932094924 82.70047872550246,992.9342123247457 85.34411636158941,997.2851920240108 88.08806996141523,1000.0714702816455 91.09709933582752,1001.7182697699977 100.6351511892525,1003.6742568501754 103.06585027729417,1005.1964516883304 105.26580347505998,1008.2740174318243 109.30855082527228,1015.6326196181282 113.99310372193337,1020.0382379293433 117.00652928618231,1021.9784413435759 123.14830708094654,1024.0 124.80481421283571,1021.846006728885 125.86385700498268,1018.1364827968865 130.16292789856837,1013.0941980441274 131.2562611901365,1011.2319680870654 135.89154508974252,1009.1704714292966 143.52270612044364,1007.6174790049572 146.94012763315675,1008.4142785627943 149.95550465295653,1010.4859504207091 155.59738540611738,1016.8781192859412 156.57754146128246,1016.3371038004918 166.20185561286976,1015.6098452447415 168.5960888831382,1014.9995504594148 180.26071519151327,1009.5524038753024 182.70119093380092,1011.7429002593227 186.71340714848614,1012.4603042174579 193.06163101699175,1015.2688573672788 198.80761254083927,1014.7133922376325 206.21954042114226,1013.5066030857482 208.9368159923664,1014.1798783202157 209.87339798043027,1016.5633623778008 212.04366879856866,1018.7980562794576 214.90247909226275,1020.1607004573339 221.7027883169664,1021.8654447132075 230.29683855744813,1016.6300451475745 232.68508111784558,1015.5916413932927 234.91707646817315,1013.4192934773298 242.8162859376301,1003.6344343737802 245.89064335603877,1001.1659189392051 248.70031233029923,999.695653513085 252.27123360282187,996.824192065188 253.09868620599653,993.3605378507189 256.4541068517561,988.3093889105942 266.13802716772966,981.231216049238 269.19764502265446,981.0472134397868 281.0643332884208,994.3621878572699" /><circle cx="788.171577040266" cy="275.7338983738141" fill="rgb(100%,100%,100%)" r="16" stroke="grey" stroke-width="8" /></svg>