<?xml version="1.0" encoding="utf-8" ?>
<svg baseProfile="full" height="1024" version="1.1" width="1024" xmlns="http://www.w3.org/2000/svg" xmlns:ev="http://www.w3.org/2001/xml-events" xmlns:xlink="http://www.w3.org/1999/xlink"><defs /><polygon fill="black" points="1021.9948419803895,532.7728471600353 1021.7041134107841,526.7080088854229 1018.1712509094367,506.7691394348042 1024.0,497.2198279378659 1021.700795127194,491.39811376718376 988.8371354131195,477.32321458785054 988.0635437465434,469.69036410046266 982.7177461616187,465.3982710526898 962.7563773919151,462.4624149425732 958.7437107139183,454.6362742742671 959.0378656891922,447.28539588395347 966.8576518227379,443.46139654022386 949.1958119474457,428.58692242933597 942.0336624090509,413.9964221413989 933.7274940996645,399.29531311316754 921.4152483662007,395.0089361453811 912.5439391367903,390.99476742720844 907.4860617898302,382.1190637853282 896.1310990035589,353.580916816451 889.8344307640991,350.80981019932295 884.4939201745563,346.2254039148812 881.2525495828472,344.505016784499 879.2875781160227,332.05680820808766 878.6794640433098,329.3327747529952 870.1086278612676,328.1284979043362 849.678945501329,328.3650868697623 815.4725234063563,328.2834502912921 810.7591704552959,327.59542199112093 809.5577015555369,318.6493421676261 809.5610887904265,312.3525885973381 798.5131762069134,310.33187670791915 798.224002256133,307.75215667461157 799.2784530819445,298.68892571800427 798.2181962851695,291.6213228728908 791.4543904427886,291.61103160997834 781.3684879432624,295.4080985668526 780.1219291891719,292.35173545131124 775.8352215075444,292.0585959268594 776.3163921000232,287.5713020945465 778.598804972785,286.8142315389522 779.3632637510308,284.5298520855975 778.6021160209125,277.6534432131182 777.0763997517818,275.6474232742996 778.1197110655146,263.3373532938015 758.2118150265227,265.3044739068074 756.6876018156241,262.5290044777136 754.6945182320934,256.4176292893129 740.4966822638529,257.150689774785 739.263175744105,255.14434794877843 734.9763087339265,252.0792209871546 709.2575054352923,251.8290022086216 696.2153734379208,253.8046588376206 692.4052592684059,258.2826173342449 687.6406886684307,257.5101369872329 668.687003603983,237.8046952693901 660.8726681840919,219.85401582780707 655.1577108614485,222.12894944441246 650.3012317535803,212.29002502295134 652.1053521264191,207.710094849053 643.5319319638762,191.2797268730567 638.4867504048377,191.0839475271979 631.9135855847649,185.43344225098144 625.6169619031857,170.8266133920539 613.7985392234676,154.1056698112297 608.750963157684,151.3327632505971 598.9258182965035,149.60270039782904 595.5917866273837,150.0714227578435 589.5907325509844,145.01037200135556 583.4826936473447,142.51880734498883 583.1990076610368,140.70505547654722 574.1430142555729,113.39864051612636 571.3776582564144,113.3948218955345 568.8936018707923,119.98112359829253 552.6790673594853,131.80998368668196 541.8919241299958,146.21869909056545 521.3689718375846,156.3370627053887 505.2342689868869,170.74992020139365 492.34206160938146,190.23862481244458 484.2184384943264,195.97321693386584 481.454167967832,206.37654314872236 478.95947512233414,199.79804557588682 474.0830033618932,193.98216488174234 474.3739019439024,183.86459247753402 471.3191942511718,174.7951453396417 464.53696312233257,171.08509089407102 455.16332699918144,164.51161624304694 453.6371040561848,157.45275596301474 448.5604385224157,146.29284924037205 442.25510799967384,142.58177681277948 440.2473174822315,130.46612653774702 436.2305877572832,117.29788317852223 429.63637359174663,106.91013809289194 421.7874546891443,103.20542640258873 415.1885373201572,98.44628719593493 411.6449891102029,98.64815549028134 406.0973457092423,95.1340496646369 403.3247775826643,89.59555486726902 400.54610923585074,74.43071767280554 386.8659888847687,67.11453804168599 385.0431949521209,65.88482102173111 381.7886242745729,62.65128040697431 381.9854434720338,58.35001375564741 383.51681092081645,51.75723505946365 378.72731808544506,42.4192936275187 370.8743169798331,39.38984320808527 367.81809597515587,27.844904386793473 362.74763724817956,24.811557328496633 357.66864308832106,28.834334012879708 352.3993593378393,38.02001300831671 343.0133187955611,41.007708639338716 342.5364756335877,40.056510101676565 334.10687861774556,33.49411238365167 331.3276239298929,32.743538539198084 324.23971284412835,37.35578217792806 319.4557622451372,35.84198940729834 314.66691483334165,33.56824094456067 313.8932878244924,28.507976443510188 311.7860426842019,26.702674903902448 310.05960627784924,32.8261658557559 306.2299283826032,38.376838566538936 301.68281843872575,41.6834715483962 293.7302243851093,42.71613407407875 293.9706404938966,50.684794058199145 290.42640771071115,49.78835744198233 289.9010303315966,46.25848824234271 289.90109059804945,34.04655038582132 288.7493744128093,29.750635474820115 280.5056723953879,29.49738216268497 276.73225535340026,30.17776903745471 270.4051481872808,33.349235451741606 268.72616337976126,37.27188599197996 267.62390008278487,38.038228815056755 267.240405122438,37.13757794931814 265.5692390425492,35.904063579607964 264.1770217410638,37.91183673287668 260.63857615436115,37.16317873644903 256.3221752807911,38.32356176363231 254.1617964102455,42.484217036094094 253.0186694240926,39.24144624838573 248.70498553547534,33.67325013306561 244.6815124291445,26.863569345724613 239.21861027778291,25.500734505261107 235.53669160496042,26.80274321905904 231.6047295930108,29.824143884379396 229.8319395276826,26.92113034660258 227.53202648318154,25.68738710959076 225.2843653597218,26.071359335291845 222.22010122368042,27.710125537646945 220.20399163229013,26.473837328751642 219.05623333255772,21.27554938251535 218.9583618713112,19.414660872006948 217.04484019862738,19.75493808014585 213.3555340191023,21.20196842934979 209.0456554571379,23.603308596363718 204.12222997881196,22.615338110592234 200.33694136484473,21.24977292731876 197.50783261970767,18.4382582960219 194.732530200862,13.534264776151872 194.63732580783355,7.6110021065188675 192.96391661153453,5.709822117195472 187.2644043348467,7.643653431813732 185.35647195935616,7.742631666824877 181.94720415339256,6.894651899349469 178.88496301112124,6.666982752241893 177.78253475928824,7.429849861123671 174.33768868697683,8.30006170651643 172.71270885044373,6.777789714314395 172.71840610632538,3.388822307716623 170.1798261464165,3.398007257231029 168.8867679255088,5.403309943331578 163.86138942692205,7.564475192960003 160.55345941159055,7.718239357870857 156.72787248967364,3.1925997652356273 156.0063908411514,0.0 146.62576924046212,1.1670657825051194 144.32961755152954,4.853616101194234 144.48075385918992,6.852485041157593 148.50283781320908,8.989642375731364 149.7900665715223,10.37340325409673 149.41041311064578,11.761616322091754 147.01686022505348,12.530790990549349 144.337518171724,12.536260931265588 142.08543849640495,12.159657028897982 141.7026838226108,9.15510136874343 138.01533121184832,3.9592702238859374 136.24986276187087,3.4898164210017057 133.9465495732626,3.633117395899376 132.7122760856117,2.2050143760747005 131.5639301289615,0.06164970162012651 128.16573190373788,1.3628280780993691 127.1093483652029,3.9904440064918845 116.11630278958512,2.1507982980230054 112.04998891474528,3.013583772501761 113.95917741432046,8.837044366798409 117.64196079664957,12.355864628573954 112.95509447362296,13.131732226523354 109.65493156190048,14.758218000573379 109.0321423577221,19.3421232413574 116.11235865563759,23.626727060512394 117.26529162209388,26.011022354370994 111.33319624687852,30.79270025836672 103.58497932151181,34.481505633143 91.58196170419407,49.01092532850845 77.91690612514998,56.2408862141117 71.46362226812073,56.15067911891106 66.78705989575013,49.04511255523653 49.58655435659296,49.34392948047622 45.28844493964151,48.680892631460836 42.67026814045068,48.82622755250594 40.1339413806706,50.59485463795744 29.917575548999725,51.21422835212087 28.2440404380444,52.503078465417104 30.3958536368916,57.179505869601144 33.54774891026836,61.188318492246026 36.36628486284251,66.7664810601674 32.83019049076609,70.44752947400906 31.686487309502777,72.31022550216034 33.832889711554024,75.74183031931778 36.74925307838582,76.74628711308043 33.83203294709605,79.8935861855897 30.013963653934265,83.28026457103118 16.647603134361017,84.95314678491758 9.58915689141559,88.34486326782968 10.20991968307207,95.92922752837421 3.914072488015371,105.90776843144369 5.150727972186623,108.43303838773875 10.589297513996746,116.1184423123496 8.59013274557005,129.24128328117763 7.533229294701576,141.7471228075388 0.24093129593857243,153.7705983762848 0.0,157.15762836203584 5.770620034826879,157.68577250250632 12.735361434618742,159.54745534755727 14.881561823777472,164.99021190845832 20.94728563693248,169.9051365430878 27.387925533705484,170.80943214618725 36.07664620427806,173.5771070037876 43.42952859745378,174.95804525644775 47.824111644126674,179.39426714481226 56.69124572450344,176.9682326346757 58.33442429584729,175.79411893099666 58.333297675312544,169.79821188498386 70.90325661906331,165.56843705688937 79.52386031090543,162.99180998858475 82.8368820897342,153.47291858115835 85.84709995965066,154.11057651621525 97.9142545621817,161.2384447816611 104.30095104879395,161.58582062038198 109.78411628115161,156.56599960662413 113.3015678244056,154.03343913357213 120.31344724943537,156.57097712602763 136.40042733758702,158.7699272229807 137.12045209565701,160.8226960843533 137.0911627455856,164.08231394387275 138.0749666640454,166.5470336769248 142.75926765263554,164.4333260784993 146.98782322396394,166.01369233664877 149.0585320309172,169.64671732923256 149.48255203291797,174.77888607071014 150.70794060961384,176.63033620415126 156.6478896018018,177.39593658161118 157.04226679840653,178.87110673887634 155.45903277321653,182.7291927028627 155.44098522983901,192.25032955354544 152.5346398638876,200.2023788408094 151.42958746874655,204.0573640401126 151.668083894364,210.57704829710525 154.06450386617718,214.62697303312672 161.82370117338343,229.49642330681144 163.31090853445696,236.0012112398756 164.12155214664259,237.95640429604146 168.626498057383,241.18693093437884 171.7468446265754,241.23458801109655 175.78798170500392,232.55290221651484 177.67897206093068,232.55018935254543 179.43371212059145,233.96494701641916 179.7060777466579,238.108411383509 179.36742877910316,243.07309856114074 180.16062349700297,248.34017428906327 183.05166605581937,254.36351308629077 186.02188078631673,257.0798769955515 187.56783224381743,254.45801385475914 190.48624425103367,247.14170358800828 187.67678874771084,243.8723949291347 187.85296104058742,242.00928753479582 188.75586135553255,239.22382940484738 190.50944247265346,238.99509946644412 195.26680744866584,242.15848964093777 196.9429744943246,246.75652193196953 197.55251754630078,250.32809489291452 198.59156578690468,251.5126312046424 202.51765309048702,249.03889892940578 204.31032081634092,250.285946501093 205.52793302323983,254.8496295762409 207.2682542100262,258.5257795113825 211.86351365632606,259.6501071142736 218.68433853973096,260.5918201149562 222.65892834961693,262.68884033392374 225.49867357461557,266.55651665270176 231.7325437039397,270.1815526974781 235.73303044125123,274.10668667563795 247.69915059400853,291.72723403268566 251.98443666424197,299.69032265805185 252.32479889643747,303.4586377946748 253.35239409009762,306.6388339236063 261.0762446416253,303.84232550985536 264.034828119405,304.34004497841045 271.4149623531363,308.3833567063406 274.1610772684014,307.45176175128154 280.23343180631474,306.9671557648088 283.22704929095266,307.1612230984865 294.3424981551491,295.4736658324179 300.4669509636024,291.0549226788692 305.44541581609303,300.582062597181 303.9150773730795,320.8192422072376 310.6195413330285,332.65983258373126 312.71314217637354,333.14951798305174 318.2211350794366,328.850795972945 319.9032919529959,329.1200163545335 321.3679795187789,330.1658760580102 324.6098825290236,329.4432029376205 325.6636525352684,329.7805300091283 325.7914922294607,331.18359119962304 324.38888008113787,333.2504873502171 325.04243472368796,335.8540484389863 327.1902920637011,337.00672826404684 329.4347966079827,338.89579452601674 329.17410203567476,342.6359137031775 327.93520353158647,347.77645645043697 331.9772254259643,347.49494310868647 332.8918988281941,348.04200463986524 333.05945937893154,349.25273606649796 331.6313851573748,351.07303470883835 328.76920776784755,352.87561713179855 328.6100282500306,354.6489383019814 329.54805340009756,356.2366257418589 330.45318600791023,358.86913583352646 329.53647622279095,362.83859600979395 329.4422087588082,366.8379732193091 328.69038306588874,368.8084771304366 327.1364559643666,371.51477806838193 326.66045307971507,373.70837511501037 327.72741596786426,375.59624539114265 331.34835925297597,377.15818755654834 335.7898891654151,381.59831865484 339.2586488405737,382.58550784050715 340.76942771174515,384.38104708463504 343.1706597480717,393.56680864511895 343.36410642682995,398.75598300079514 344.10619579189137,402.1856585342948 344.46580745514314,406.9760812984112 348.42148850089893,406.94014891258587 352.9510647749566,407.5568465367234 357.87065266044596,410.3806478234361 360.61670360815776,413.99559814300255 360.4645661506176,415.98505129638016 358.5188365122654,419.9690866345032 358.19582326699464,422.1226061019203 358.7227207171528,424.5154854735921 360.1742650526903,426.91452648324173 365.60928994729966,431.5350863421729 371.0229921341991,432.6650935802144 374.78372999107313,432.46588296304367 380.53823877109653,434.3642478807819 388.59476631732235,436.23768827944525 395.8142256912701,440.6610146774961 398.76749714613646,443.3353680431328 400.08476219496504,446.0365886687081 403.90558219911674,455.38167462154763 404.63095478589344,456.5471121682785 405.43881951545296,457.2320383495823 407.7223566751777,458.44008167107114 408.5158170157662,459.42495245540573 409.4351443370157,461.69242040958034 411.05553062335485,464.30095806092476 417.0395512452517,468.87852836776943 424.3076294317465,477.52014985494407 429.43444634664127,482.4948494387595 438.9233443954829,485.1749404338663 451.88682604853767,484.75319953559426 466.6304954815902,484.6990947379645 475.31989344210615,484.0886478425239 489.71899235307137,480.60184228563094 495.5184687670118,480.59998911073706 506.71469681879285,479.82258789176933 513.8441209053094,479.09779391214 523.4301780988113,475.1553918889072 532.8934837840011,473.70829748827185 540.3609003840365,473.6029051980784 547.664503382311,475.9691324367484 553.2256297098168,480.64211677019074 565.6845588523281,488.08772672217003 578.1632691211996,496.56732616186946 585.2052127278215,499.4786756311836 586.927559416225,494.24932313100203 587.393078200659,491.15324487713775 588.7858010076653,483.276947546458 594.5949598910018,475.9012932932774 608.3611863517558,471.01535026916395 621.2498614097261,468.8782084607751 626.3917215390753,469.03247442993137 627.4564290449536,469.35295896011917 640.5721532998685,470.33042535569643 658.1005104615414,472.4556953870132 676.3876114591623,473.9828393181964 684.4293848780654,474.9702246115959 690.6720134354451,475.1955552900635 698.0706066792992,476.16843464110434 698.4524453952141,477.374461343283 698.2048612832978,479.57639546201915 697.6970759752405,481.11036976741605 695.2083690612908,486.5763234449526 692.7223843949108,489.2925215767438 691.2340553502803,492.06156886081504 689.0905591341084,494.1432521372228 688.2363179741014,494.21089059818155 687.8294598766565,495.0753542461048 686.4349479239623,496.4798966132651 685.7725315389707,497.4950071609777 685.4713540297239,499.59301654255955 686.0458912814416,501.1873208590706 686.0139001900723,502.5721000109663 684.1991110574257,509.14813513978123 684.6815710714372,512.1933788906467 684.6513029770296,514.6223709025545 685.8074841369788,516.8191020497104 687.2240902528168,518.2502644869469 690.2932854562436,523.767602311377 699.3988044497202,534.0622752744001 713.5824160913636,542.0174396111967 730.6707830993087,549.3997936195551 741.0630884216988,548.9850139253462 754.879941758003,544.8132846694056 760.7425594090003,542.4222086734253 771.3666389860896,539.9373669767475 777.8568732112934,537.4303618523234 780.2622289129732,535.2650195963514 785.3903197259384,533.2878178335898 787.9501838863317,531.1623022368924 793.8682124933525,528.9885960845864 799.2889432318415,528.3425438041721 811.5461828266087,531.2334814784933 819.3263117986676,534.6726047098122 823.2765218189452,534.7409211959681 826.2943151904044,534.4711409410834 832.0104634435714,531.0403959503801 839.4241404110677,521.349870296635 852.3328451366767,516.4294917215839 864.228837423553,516.2794881489247 869.29887313336,517.7591560351914 876.1923887385374,517.7989550576358 890.0805517810927,517.5822547100589 912.8888588881459,521.2054288829689 923.4254364659264,526.2828182999808 926.5455664584965,528.7779556002522 933.2063686147841,533.5424967956507 939.5550559095694,535.6721369450039 948.0576715337144,538.087296403256 958.402313883043,538.1777462977999 962.7191256413851,537.7815753417312 967.7837924539958,536.6795906981122 968.9820055980871,536.5168296680642 970.5174909130562,535.9664764601771 972.5752135494002,534.7061400914087 974.950488218971,529.777337555947 978.1316883802339,527.311498467176 988.2263799494722,524.044694416399 997.9215051929195,524.21300702209 1007.9800051899343,526.0628719396885 1021.9948419803895,532.7728471600353" /><circle cx="656.5984205314737" cy="468.0603028640912" fill="rgb(100%,100%,100%)" r="16" stroke="grey" stroke-width="8" /></svg>