<?xml version="1.0" encoding="utf-8" ?>
<svg baseProfile="full" height="1024" version="1.1" width="1024" xmlns="http://www.w3.org/2000/svg" xmlns:ev="http://www.w3.org/2001/xml-events" xmlns:xlink="http://www.w3.org/1999/xlink"><defs /><polygon fill="black" points="413.1510512467464,1004.7702649064457 417.12783729576574,1005.2151050159944 418.13157725198835,1006.4730755225796 416.7370421760195,1008.5636252101588 416.350122686713,1011.6391478800344 416.99286757101976,1013.5732733648555 418.4879259011452,1014.7557965465554 422.05438282910967,1014.0226560837134 424.9228723118845,1017.2617057021776 426.3661943612135,1016.4856655701147 427.2654500471828,1014.7226023965758 428.80109596775213,1014.4933942838213 433.3424085470031,1015.3215824266999 437.7594049361728,1018.3187650833685 439.85870582279273,1020.4760957274683 442.67640820042595,1020.775297423246 445.6701942395496,1019.6196781790594 447.8594158036888,1021.638830279383 451.2261521569706,1023.4712306201502 454.13065540064775,1024.0 457.1395993827572,1019.6403695315412 458.95301809866424,1019.048777783114 463.22423201721864,1014.1959674198228 464.4806757856002,1013.3763833928105 466.6676567731741,1016.3615975003864 471.6687889732829,1012.6813500898053 473.289221110964,1011.8584400334925 474.33511163921264,1012.5769612152552 476.97665945812247,1016.0944652841573 481.3725885588872,1016.21781038276 482.68759475814323,1016.8389315127874 488.227137466258,1014.7295306910231 489.2387027811822,1013.1521064529944 492.3307269619291,1012.1885843030759 491.1792539841265,1004.7455625489749 487.79315101246874,1001.9853702771644 485.118679974259,1001.5445740411343 482.7693795212936,1002.1635490934331 479.7101313224059,1001.1042559310315 478.8163574036577,999.5542473086488 477.15622157147567,999.1778341561975 477.0142348647691,997.222131450159 478.05447326300435,993.963378393809 477.64325644423394,987.9510683376958 477.95314769719687,986.4553804005131 479.73312035420827,986.1154530179325 481.2935666678322,983.4219351126098 482.30069493517857,977.5589861923639 478.714760890011,978.0710851235792 476.32400521597555,979.7611502791952 474.12164349097867,986.1278624266988 473.2408018597443,986.8179615457085 468.4628192821329,988.3155563485548 467.8358379168892,987.6892638630926 468.33947156370346,980.8834353865927 466.82934961878254,978.4244802755037 468.2789136551697,972.6972883091041 465.4517287623564,969.4717508908329 460.9860590795915,965.3755773922242 460.6741733730799,963.7288225307461 461.8682449421827,959.7616184832847 463.1235840050394,957.8104337639172 469.6589180507297,953.605419492132 471.2280416798499,951.5259426290254 468.52787083084087,947.3693794018246 468.33607649998345,940.6879206420756 468.90231444929213,936.215664077858 471.73143314720926,934.7051099066161 474.56221576650466,934.8405650284368 485.01324227049906,932.8793877522162 487.40934287396914,931.3702522235458 486.8375356044826,929.6661063815226 486.7117164790663,922.8643422440267 488.79426669880775,921.7254409134064 492.0156844835085,921.6451648603115 493.08839754756724,922.2750245210249 496.3751453363048,919.4897544602029 500.3242508897312,919.1186527029304 499.407023163087,915.9524146186144 501.6807308002805,911.7830934935635 505.34065115446487,910.4500195758532 508.49662864777156,911.3941231256271 510.57687878107936,909.7504789789035 512.6542598219238,904.640727439814 515.5513431585989,903.386820834869 519.8893842010248,902.8822352324212 521.0206600789826,901.5620673876892 520.8312263310291,899.9936679505578 519.1361743262967,898.5349156954951 518.4727673566196,896.2912248971795 516.053125592651,895.8238423962082 515.7243132680045,891.8295334174479 516.112216730231,889.1679142968625 513.3954329596288,888.2744545291429 510.9966389968072,888.2038684039765 507.8446734750779,886.7489102424014 504.4792244672036,885.9651028473688 504.65044299628823,883.5368421375208 503.4127616249018,882.4714114367769 501.84823388971904,882.9043585079819 502.9657458743311,880.1224964909827 497.496348729591,880.8318105498473 495.20205957087484,881.7520074459505 502.1758956954933,873.6161893836816 505.56988158201517,873.772400810841 509.30995342639835,874.4785763016962 511.08854385668207,871.3670033879192 511.43563873791834,869.3567789356803 510.49035183822923,866.512969250724 511.4387614408737,864.8735482497293 511.70368084298883,860.9321999623924 511.21639862127864,859.8608549926723 513.0440023725461,858.192332434684 513.6414587272994,854.5413343314124 510.77414185469024,850.6018512180417 510.8666954507666,849.3688416746531 513.7882018755384,844.6108761024946 512.1816799212372,843.1030466142167 511.5761110205103,836.4201845161161 508.94724880580566,837.3016655335972 507.2743819070637,836.9317658864709 503.20375713853053,834.8007213428918 502.81403952184024,832.8851045740898 500.4305411106937,832.0000970189817 499.8486900203404,830.7537171243782 496.7893920921689,828.5815369331776 493.0612232603116,825.2157158180158 492.00762022878587,822.00357507201 490.28905105008533,820.4135453978604 490.39938479241516,815.7223803568249 492.42909974862783,813.5680060343559 491.9527945959671,811.1445456962184 492.9582727892744,807.9060778407331 491.7087030685464,805.4589772201413 490.51190826975113,804.8135435169603 490.2204394429997,802.566412502324 488.51589343443925,799.9884853419732 486.0700359593426,798.5730171739035 484.90213787233796,793.9087901678308 481.0794529959241,790.6521674452506 480.60213028379087,789.126392989009 480.5040635971233,784.8819132451679 477.7468803134177,780.1819672420781 477.68998019476965,778.9862184188411 475.5430990085797,774.095245779776 475.0486618221184,770.3459809634554 476.1213549283972,768.2480381794603 475.69201649037785,765.4555400035778 477.151210330371,755.8844192710683 471.6447647764395,755.9392643284698 467.6496055751206,754.0176151867623 462.1061958503978,750.4037886911035 451.8021804782392,749.3038371133223 444.81674515945684,749.8384000105764 435.59872371671656,754.1950035558154 423.7539798595964,756.2662703685644 414.8722532092027,755.3140164537208 405.99015347831636,751.6368127140934 403.40262187395206,746.8718049653951 404.36426829327377,739.1870292312901 401.5246511024627,733.3575585736427 396.55364482278475,724.6758954391787 391.1917779746407,711.4696550751794 387.4975543147415,699.3325640228823 387.957353458422,687.954921181285 392.0086339198982,684.5364315412471 392.8968340617682,677.726641296038 391.952093149576,668.982553039712 394.073645344752,660.995912420274 393.30993749457036,654.8724096619197 387.2821372833918,635.7428748580928 391.32720103946457,632.4167299521325 393.3001112008329,630.0778946689055 391.8019550658926,627.8453165071669 387.41893322557206,615.1788173056167 385.26217244475066,610.0953007659131 382.1787191132704,607.3233711127367 375.33703981223096,597.5899413330936 370.2927843058385,593.711554764072 369.78766901355885,589.8217950651683 370.434759613077,584.3764770376174 368.44202367915176,577.4684638325748 365.91502154226964,570.7183340819945 361.5515187030159,567.4173037746561 356.77102122562013,560.4068160039983 356.27110156468757,554.2744290838059 357.412683003023,550.2874986036318 357.52931664786894,546.3443210615959 353.33285781602075,539.5352373639887 352.588220231763,533.7898372373297 353.4824502640237,529.7979415541121 352.9080344887885,527.5627322188242 348.92245438053715,524.0099463333753 346.6242262670421,519.9216646969818 346.70064389555154,514.8579007723147 348.90190668866023,508.14347736357865 348.97962789883513,504.6399363387993 343.6078156989087,500.6006784820522 341.7192778069023,496.42472685695407 342.0446621144806,492.91308020916256 344.4183721989612,489.9938275831821 353.2075331887721,484.98862203856925 355.90276938189703,482.9381244408953 356.39086563565263,480.4104938661817 353.11635573839294,475.8338748297083 354.09123602042376,473.010188829351 359.7968491569571,467.0809274633443 362.97449560290784,462.1180261862884 363.0497745089816,459.00150749404474 361.24731509427176,456.85990911026045 356.839296669646,455.3974211038644 356.3393145461119,450.73084008493174 358.5970711246967,436.71185125862667 357.8863224007669,425.86009181531426 358.0346534501787,417.5919338301974 357.16869785798684,410.7252912015431 353.6580524904604,403.8148956462452 348.1159573175536,398.85374820531104 340.7340849245479,393.5478046012255 337.38378486923887,389.9578313250306 337.7899157058822,387.0374240949411 340.7255752039688,383.5254873100321 342.5184168773898,380.7064434139385 341.4539592153305,376.6193968814157 341.3283203073202,372.96939292263403 345.55442487610014,368.5842554093591 345.46758097685586,363.8183835485737 341.96499428717937,355.74635917709645 340.04591886291973,344.3163437641779 336.0511795034128,335.8571045328739 336.37418559469006,331.6780318303946 337.6741165829652,328.75672644140775 337.9968448547437,324.95461257968907 337.3437968582325,321.2653499859455 335.99967412015434,317.1316178264892 334.24708602481144,307.3570666191446 329.4062852528811,298.9553596425651 329.64886963066965,294.38094196537213 332.33092101271774,288.3398843234593 330.5391355955349,283.586787008275 325.9096189970718,279.7044663855196 325.6614100428569,276.01461923254305 326.8420591422164,270.60761374727224 327.6518778609323,259.21294692727486 330.69314885168683,252.9323448396176 335.4700277232635,241.52750015302615 336.84212522994045,235.7777749174329 335.9076766872187,229.02330573112863 339.05921147003824,225.99750253003754 339.78333104459136,221.61336219918428 337.1185820803606,218.11935628426784 331.94123590564965,217.6486770887733 329.10735224737226,214.82904455057826 329.3083165268867,209.62287786635 332.5433130884738,207.17545872598555 341.2646910760072,206.1834021075964 347.0614493038997,204.2342526819001 349.15068332711195,200.52798954487184 347.61572715426,195.76085317311538 345.2022107916279,193.62117595375003 339.9197512445404,191.24259932986467 334.02815282269364,187.65651810661814 327.64538694552806,184.8530570564467 322.3995837029814,177.56568556069487 320.1015364081963,165.3597517546632 316.7995393116207,163.9023882496757 310.52314450992156,162.5419642973867 307.5534002099649,157.8610136891159 308.04848080353383,147.05513701878078 308.6191323082997,140.23631516563967 308.7107607894773,129.7222941312707 307.99389477366844,123.97087855976588 309.49731657059795,117.19275332025325 311.45470780877974,112.20936655983314 312.0209529883668,107.28610222024201 312.181954567897,100.92333667098887 312.77635034378403,97.90340585265005 316.52528578467593,91.91686393771931 319.96481000838077,88.72987086832143 319.61001675036925,86.48119696246943 312.8153521130839,80.98137053000471 309.849957626725,76.36379013355645 308.2944746897495,70.16118243087476 305.339576859906,63.859401678644076 302.0776237054292,60.35228193028922 297.9241362168335,58.37007787654488 291.5008858685083,56.541805079750134 287.7740956747236,56.902536702819134 282.60122761193793,59.323538401772566 278.0442447203709,59.38035178157293 276.10396625598474,57.56858334537105 273.92759643260626,48.5957161218696 274.0500032234239,43.2329706868544 272.50405470159956,39.331125748861496 274.6100529793231,36.906946783797935 280.24242178598706,34.17447734583766 281.78313700719605,31.429587940540046 280.61849457506946,28.36898103436681 278.75451921032646,27.278172423304113 271.4903638266139,28.95768676232626 266.7334794214464,28.64208084750203 261.69947916434114,24.07229279729438 261.353854583701,20.706209414471573 262.08397081717777,17.84289037493909 265.26816212813316,12.30330051047656 267.04554369311904,7.794205049419816 266.5896343084349,5.733911824051802 264.55440527582186,4.731869219983082 259.51405402216324,4.8407357204470145 250.58328825406056,6.3720344920857315 243.4269343388599,6.7441290283946955 236.9864020482068,4.760354915100947 232.27091834756553,2.973187095837943 227.46212845943728,0.3293455039118953 224.97369050544208,0.5622295483278776 217.14273769584105,2.8667958159287537 213.25590232495745,1.9845874863917743 212.39279798245593,0.0 210.77290616812274,0.018106173816477167 208.981136503642,1.0389944047184372 206.80644581952882,3.9060603900243223 205.69021086936186,7.796146366661787 205.81032128577291,11.029818939299616 205.32228951667412,14.229884578149722 206.4032466018367,19.741337237638163 208.12219771589196,22.800272867194053 209.4027857826481,27.190580548549747 212.27104825010483,29.631313672497868 210.39785120992556,30.414733291084644 208.29095920464675,29.692200703811295 204.35739684778565,30.190542426223374 203.3522336839802,31.676815348443256 204.40353827557718,34.63372100250626 204.1756437007457,35.697913867147236 202.04815768955334,36.92697904761371 196.9043983238297,37.942532694208694 193.33352152229102,40.19548885323468 195.5091668756291,42.39615260286621 197.19266628493085,44.96179878468115 198.1174015970845,48.06995203694953 198.1288604191936,50.40348208116745 196.67528385723892,56.416340070156934 197.1558475981988,61.98807184147756 199.5732988424024,65.70010129511661 202.2769431892921,72.04101046305504 201.8332617880528,74.39444235182214 198.92343905482085,77.00847424139909 199.09124602041257,83.04441982130265 197.64767060371065,86.28077421976627 191.67323004661532,94.86997716421718 190.19259465502628,99.24820639612403 188.50380930652508,101.44462417081456 188.58542234016326,104.23687582133869 187.32008616500383,106.71763896347295 187.43869357785746,108.10979523814137 185.81633865881852,110.60809955239552 181.991339806461,117.48275921908805 183.03666623392337,117.94269605614113 186.40207350855735,117.77159506104533 187.29644350081213,118.29011307300357 187.32372383050227,120.38344734940154 186.47354689291072,122.30930383617806 186.02734763418064,128.0462893402189 183.46037641114125,133.7466656885341 181.45183632471011,139.21296353226546 181.10859101908582,141.06493499650014 178.7883084938067,143.551634398881 176.76860991249308,146.65279978925832 172.41976799587638,150.70615263331797 170.5248017845007,154.22077753705764 170.83843144844766,156.70284902315484 168.85963048210417,160.44884517230196 169.165412567845,164.26754437807813 170.85124815574673,167.03564892794748 170.48800094329715,168.68958399677786 172.14362916909434,171.53830282494994 168.75672028508637,174.8623471262183 167.66631804064852,179.2539724697565 165.68803948119782,180.03891231251328 163.9258744735213,182.40423774844635 161.45621724711495,183.3550325086535 159.19324970983385,185.78566355827775 156.54239915529297,187.6191104561484 154.98667138577846,189.322933088696 153.78572862238198,197.0973843041603 154.95568661377507,200.08844168382916 160.05886973095954,201.45910519161828 162.1080126135595,202.9795592679568 165.16293405101106,203.87528023939 169.20991501673575,205.58537224876625 170.9424380102996,205.48103589581615 173.83213915130847,206.32327838813478 174.94091590826108,207.63241005776626 181.48561830937464,212.61533083575398 185.0377359292303,218.89169567101226 189.33506733781607,220.9530250153672 190.56293395223776,224.64148509128995 190.60054111345195,229.9440537839905 189.08910794032886,232.99702715318006 186.19122233225357,236.07887534449685 185.63705107578463,238.8076657227723 184.11809366224088,240.78214275775838 183.45724224682414,244.6912967066595 184.18410883110644,252.02536565441665 184.17209287871347,255.2055956101949 183.64537587936508,256.42286494971086 183.96956974554422,259.3643627275974 185.8358503744297,261.46098494448086 187.8280198533849,266.1650119015545 190.8595616029597,268.4128206616948 192.16404629561953,270.0199605957341 194.41829108102235,274.6267843556858 195.22308953741972,279.31408661677426 193.80314328382906,284.49093271466245 194.24702914681095,288.01461447269753 193.65520782650873,291.6523976589391 193.59761039841402,295.1028894388769 197.54737863013958,298.22065673331304 200.7631450605474,301.24167764916535 199.31362594492694,308.34970156250336 202.06152988630674,311.0748100359964 205.45002290797925,318.1008571820894 206.66607958107693,321.4847898687276 206.3248727841577,330.9015930269444 203.63048298433327,334.980281810473 196.29134095095995,343.44914714095876 196.11211774775842,350.2493525517905 193.57672085263553,354.13940351005067 192.65658783481206,356.5190875486189 191.03213794695978,357.75570325112415 191.28625967599328,364.9106723553356 192.34832488937488,369.1775081845333 193.91626176518136,371.3957723223683 197.1577630601461,373.52506248821885 202.49625912416622,373.4630494607386 205.63884529737896,381.1126967399922 205.69070387194904,386.0469530246585 206.75891208669591,395.2956872059673 205.1903310449298,398.38979872574157 205.27123329622975,401.39432277349044 209.72246934184733,407.6688078317551 212.3606746461669,413.50440758498155 215.19189368242073,415.0617332538327 210.22596982990808,416.3335292547912 205.08909535265855,419.27463145437594 202.75593476682673,421.71517529929247 202.9429155600922,425.5911834510771 201.36735183221631,427.0687800214679 201.30481454532716,434.29076283581446 198.79682441879996,434.415195586109 197.85909091508304,435.98985959944844 194.6009049741606,438.4961961621358 190.0959276962354,439.2981470403845 181.8313973764783,444.6821186314088 176.43767933055375,446.74972501540697 173.109855411758,448.4464036874025 169.9688840591919,448.64293876529155 166.21426574710387,449.8444430964337 166.2400838198752,454.8190178786664 164.29889864127333,455.31191464460096 164.5356960134566,457.3982342876553 163.75461388975188,458.7397192679297 163.44515093022255,464.4088002051043 165.36499132614713,466.86986115097613 169.71759844360207,467.98290476992725 173.5014752462784,467.3725620197714 178.33016656242071,465.0222873126528 182.61140036847564,466.111174566499 185.50590475711292,465.68508990691964 189.0298714508128,466.6741446242255 189.654045480192,468.12045402618674 188.90312022254375,470.37403039753247 186.77820473467585,472.57579755317624 184.39545436479756,473.63038137406977 182.70580135143075,476.3983633075254 181.83001648598935,479.9711462480301 178.68664026172146,484.64108218153297 179.03518273926113,485.91308629621915 182.08077642349792,487.48382657576906 182.71090787065847,488.88091257319377 181.88199737080893,492.90737842368344 176.28793112136117,495.65527494816706 175.1030671583063,495.5222225704532 172.5369817100174,498.8688776139319 171.58688585951617,501.195716154936 173.52512115326485,503.9170715361753 173.9304795214039,505.7543746752424 171.0080776818697,509.70425177704055 170.70943825446804,511.5054037556274 169.07772882355138,515.2114348367888 170.22101614551337,517.8666009090475 172.40272520206875,520.0183411246926 174.27526103674475,521.1011803966247 176.07114061885972,523.3727198179672 177.64265749956328,524.2475425358128 177.9531206310318,525.8500437098094 172.01560511782372,536.602806999121 170.00670187234945,538.5351675127711 165.1564907328624,538.1014735424026 157.09301717166232,541.064438781742 155.1763529867788,542.2779242178059 153.96842256371835,546.2912026807774 151.69558417391306,547.5012448784296 148.99581992211495,550.1550186889757 146.79998760523367,553.3480863383443 142.9347460670737,555.9386302613111 139.5436262968314,557.4650344694242 133.3589036702265,557.9945515126117 117.721333872172,558.526386394934 111.51738117046384,561.8027026016823 106.57429404114038,563.4178222780213 96.49844396816526,567.5157684222823 93.7511179472289,567.8088658160739 90.13687079876662,568.9026909670727 84.70160372761414,573.3961644170554 80.90142668193491,575.4941716943827 76.14660121111123,577.526707271325 72.82188995684204,577.9940844284986 69.0326410569004,579.164094796813 65.8961041427916,578.7273105461702 60.924747551225536,576.4105618342628 58.47261568174204,577.8451967919036 56.21550471179444,580.6926083245412 54.73821050684995,584.4784355326628 53.420955842967544,585.1996253804698 50.39265799643875,590.3729993442788 48.65367714825884,591.942288741965 44.653009695317486,592.78571240018 41.78749942679963,593.9968984129584 37.47099434704748,595.1532179387162 35.19154431435226,597.1249192115591 32.344063544389215,603.42550818068 32.72533046602745,607.5856633371698 29.45507119496282,609.6347021481199 28.402055676977678,611.699955436771 29.272698690289463,619.0571706913627 29.04834905633178,620.735036312032 26.768243464375402,625.5978552248225 24.886822530331315,631.0051862974797 22.501957919544733,635.8066348857483 21.435775251890544,640.0430735887919 21.466071455582398,642.8425067379504 20.682828776875198,644.7297429399143 13.990935529245208,652.3953803979757 10.788737612177707,658.5622145831228 8.911425185352279,661.5276844629799 4.629110740808883,665.2471646984579 3.29684404330965,668.3987566894116 0.0,672.8502586372783 0.33346972100372835,677.9580916960098 0.9524698634553351,680.4844194052666 2.4329861418795664,683.3369683673244 4.687896139964184,685.0129866645786 7.901218353569354,686.249934263478 9.745525056351006,687.9803816837967 12.073437058619655,692.4119714822423 13.937509033329224,693.3659732410426 13.527619335850948,695.140483071152 14.405145621169336,700.014454500694 15.49930559574811,701.6808093381776 15.345466189553308,706.4248049914934 13.76308779029265,708.3569592592918 13.849311809067311,711.5203561768806 16.111600310730086,713.3320304128104 17.594927321079812,715.4104814187885 18.422142829340327,718.4837560482965 15.621034976872926,720.1582487003275 14.904345802509162,721.6086458836099 11.66669283225635,725.3191663446032 10.677455276872001,727.7615044333971 12.404914324190491,729.3063050923006 12.796924163452553,734.0773299520422 11.985009748601202,734.6655312994505 13.954497797027983,741.3027667898612 12.810377294741397,742.7267006680358 10.28056824246819,749.580722286697 9.098878696425155,754.6417634180862 9.866908873602744,756.9620816360211 12.643988782443087,759.1924567263333 13.121047386468444,760.2610204804071 15.054618895534862,760.6160703057353 16.39475169300166,759.3703902541731 18.052221153728993,759.387972951365 21.342361666113828,757.4781600686591 25.91523102714101,757.7196472457639 29.689127586334056,761.2943197210452 33.63219870201509,762.5112686290179 36.7271680067207,763.9741374317505 37.373239044678954,766.0012573116418 36.78275115834557,768.40435142341 37.4943540039203,769.923504969835 39.30245777980076,770.3780781367195 40.49068920438806,772.1334534245764 41.09724542659429,776.4285318010125 43.90467941001851,778.4588180367119 45.37525794248406,778.5228493646424 48.064123533251106,780.8525550676804 49.814985572643025,780.6812466175163 51.37387717198606,779.3829337506043 53.40470306555385,775.8030916571201 55.97731861707311,773.989337937652 57.54863556785387,774.2723772206562 59.429612685894575,775.8704593891482 63.944162928721674,777.2353942773387 63.43299968150901,780.8902217107234 63.533683608330456,784.450611038938 65.58393974951093,786.384204106848 68.25250073459515,787.4207270305899 69.16220617347287,788.4533981178355 69.39998150710015,791.2568346470873 72.46519607658159,790.487128149914 80.56000703835853,793.4801726458903 83.20478306010868,794.8788935164183 81.71416869354486,798.2123723718308 81.00776238193431,801.47331912254 83.86848722728716,804.0315217879294 86.1050073918356,808.0508633668621 86.76265685151563,813.3842215610881 88.58729737459093,816.221760764053 88.54447783642287,817.5347226067345 90.14478208031908,819.9736936829978 92.3701295840093,821.4093152114616 96.90962252434032,821.3823630960378 98.73211251564784,823.3128135670083 101.23198165531556,823.7497077828274 104.96240914687147,825.3899562363345 105.96740521195625,826.6531989695645 108.9709519426944,828.3571430760242 112.2862090459563,829.3759006911746 116.1310582372704,828.9399364839318 117.81909751630826,830.022687849733 121.09879270059277,834.3568360099363 129.28187642819023,834.9247853023767 133.80668711957998,835.5874311597416 135.12234984882147,836.8947713042821 134.23459115660117,840.7882566010078 134.91790874624724,842.0476886333827 141.31341195080762,844.282890406283 142.44092692200408,843.5634136780585 146.61529464057506,843.8961134956953 147.93453643858405,844.4305468501097 150.63179800714357,847.6710939794716 152.9995271394936,848.6849205582338 156.2286232727294,848.2865440914394 160.4274816466292,849.5247097422304 163.74788995585433,849.4702279145899 168.8219574141428,851.9671839664667 170.40776872858754,852.0849145390434 175.2007342079529,851.2991959490873 179.1425533222442,850.1507788200104 180.19163011146082,851.2760780657914 180.97499835325812,854.2581113073994 185.27902983400284,856.5048184284996 185.98498306645118,860.165487939117 185.27792093282997,865.7283982024209 185.1148601774648,869.990637282163 185.70802065037574,872.6811946075497 189.86737135948525,878.9424141640543 189.66162802280198,882.7261143195559 188.80020171878033,884.3304763202748 188.484663024395,887.3091307776291 189.46663645408776,891.5321309236939 195.45509066801554,895.9902223081741 203.51996717090398,900.4608929937646 209.96482243345602,901.6948717084929 209.4723986203367,903.2306462167437 210.26245435054105,907.1303030195843 211.7035011725711,909.3903957835713 212.74707981105098,915.8169262805978 212.26340339593608,917.6054975688631 212.47454302820356,922.7199951973187 214.54731696906197,928.6748858916959 213.6449490199497,930.1265369741554 213.88592061188862,932.9691620252138 215.5743856716214,934.719633390922 216.8472589052227,934.71653747877 218.50420592730885,939.3191600003327 220.15158759557843,942.0240972675576 223.38784196966856,942.9439255833146 224.0753291018215,947.1966127869625 224.85269975994004,948.5017810958919 228.13722748005173,951.5200827293319 225.5959903115076,956.2722197767133 225.33649097595452,957.5409261424753 225.76254937390829,964.6621708188482 228.81354666623432,969.6773440119081 226.43887487557066,972.385987929897 226.8013024509154,974.6362823730956 228.93252324845363,975.2987776544786 230.85279522116306,979.185948736668 230.16472614111888,982.9138143087644 228.5569203210721,985.9649333100466 228.5914510307394,988.5095209664107 230.58873424963537,990.96953966359 230.58770973901062,992.2421280718717 228.80236807062272,994.7888199962807 229.35130581304654,995.7803713900721 232.7064694416194,996.9960037062197 235.4606637137903,997.0302457195874 242.84488507520942,995.2438905181024 243.15633670362357,993.9935499080708 245.51497270378283,993.8983240080418 246.41928579167526,994.6383945599002 246.01063593217614,999.0336391736255 249.10764332908505,1003.1599678608153 249.56886375734916,1005.319064318036 251.20289699112476,1007.2724449877447 253.98021652661404,1012.7987153918093 259.20487289014403,1009.2068146516416 258.0530514800396,1007.9398995470359 253.83639516568084,1007.4929668652351 252.05684148599443,1003.4661533848235 250.32298502446608,1002.8177195962392 247.76411316406535,999.9456553746234 250.43674199834282,1002.0710274537635 264.7704505045203,1005.6364812352341 265.0191157002678,1002.1331883618757 266.58477638975313,999.3184588464959 268.14926079320236,998.5027833583677 272.6652239537824,1000.7355518308842 278.22213999044277,1000.781697136653 274.19074601273223,996.7106254109927 273.7572620432489,993.0914508380184 272.39265133819305,992.4988116852379 270.7767637019024,987.6257298233314 271.1347441275327,985.9551087260252 276.1126578728835,981.984700966387 279.6254261981691,981.3944017588282 281.3716865285299,983.1013369678681 281.9369845547181,987.1920773404573 288.8036014169724,987.069869025282 289.8739081156029,984.3597000816244 289.7259375849731,981.784166775488 291.62770917767824,982.617981253107 293.61167156645575,984.776321768947 299.0746606305207,980.8958180084401 301.999095193035,977.8520694319933 303.2274777483078,977.7168035677853 305.1460261823536,982.5429345894338 310.0067840732621,983.0628083328787 311.70839211622206,984.840442449252 313.4040078828461,988.4056205100194 316.2091410538551,989.5008693451692 316.7210144721597,988.9122576887856 316.5911704546914,984.7910779439818 315.646815977534,976.2461874045495 314.96748527850536,975.016413363493 314.53788228985667,970.9399307652131 313.20029360378294,969.7207134722228 309.2142153146882,973.0685726681102 308.5324949701663,975.1901255518532 305.2271027247724,975.9329480122503 301.2964646610702,975.0981474389948 300.58077275977564,974.2355664854114 301.21018007636144,972.4819770222541 304.5473285718941,971.1624328846551 305.6345372817894,969.5144493581104 306.32818801081527,966.196318684149 305.8006414893606,961.9218297086229 308.43955899199005,961.5779872421206 309.44695129883587,959.993559214809 310.1011941967662,952.321257109354 308.8434033755598,946.1817520859944 302.5489001547545,946.678544622185 302.73372065977856,959.0941126138594 304.3101073161855,961.9832504856705 300.7556192510827,961.5904065068178 296.7049787698805,962.0465594197153 294.130122931275,961.7168385026109 289.43231763560084,958.95769054814 286.50447729828727,956.411418282617 286.22332461153457,954.899386503315 292.8796036649857,953.9781575275266 293.41661999792876,950.9146090244202 291.38397385628735,948.4557197738858 291.78682941677437,943.9347008356024 289.7507965243672,941.0778897077473 290.26917474067096,939.5894852260443 289.042504300597,937.342897200263 286.39745645362285,937.0754289522173 284.54066171774025,934.6598865079039 283.98934811618,931.9012027855321 281.51443330623437,928.8660910279725 281.2584107109803,925.9936897774563 295.5036430174106,913.3556386618973 303.11072975880046,913.062709593894 311.7307202162954,906.9350214026969 312.35576291370154,906.7575152145084 322.22272353102795,908.5631754461582 322.09649526418934,910.0289121238205 319.5073642313901,909.1487557729588 316.2854453164228,913.6293780070334 317.04083388133176,915.9654706479938 317.73043050226113,924.8188340852319 314.7006278628979,928.3281708309398 313.85748487172805,931.1682672133041 310.96773436099204,935.0556905429769 308.87377238480417,935.8089409198401 306.2628968164175,937.9664590227499 304.2423375031114,938.5304682406512 303.4445379657029,941.487209286045 306.9613208338174,944.2181586744599 308.05312551762,941.471063164581 312.9723275562486,941.4751096632796 318.11335067013226,938.9923344064891 320.5652975718595,936.738746778553 322.7960284349579,933.2476875292991 327.59708484816184,931.1722190994726 327.7389025046776,928.2687145882503 328.3907580558675,927.1890035194947 328.47443516364115,924.2965279578326 329.4569853698865,921.9492573621822 329.498419600303,918.6909749026629 330.1543069339345,913.7257675028889 331.7089363213395,912.3743268813273 333.2061676435881,913.1174542692941 334.7132606809728,911.7135549147002 336.97972430028835,906.9899091605494 339.8980973278677,904.9674426474218 343.4115151928244,905.4880504143766 346.45463423750243,908.0290972971511 347.33008939783656,911.2742316058155 347.41762679084394,919.1926284505382 347.9367399486294,922.8068574877736 346.59500824002026,926.2455730021982 344.6160242341047,929.2870865449457 343.3681199046478,933.0516414253532 345.7563845983051,938.8687253052725 349.56631766698666,944.4443424149372 354.8625402151378,949.7775545883909 355.5651532752414,965.2073875451911 353.5261894284248,968.5712523252517 353.3238267626608,974.5803678444976 356.9992598765277,979.2085983921795 357.10854816320256,981.5205738991596 362.2952885390805,978.2431431573121 365.5253364066712,980.2229915622992 366.7902644373755,980.0837847934579 368.3440980698239,981.8882692242192 376.15022803117694,983.1517919105171 383.4610426710739,982.3746191220952 387.4717324141123,983.5396341836608 388.91229971963253,985.5006989278196 389.643989295203,981.9137482409501 392.057808881933,980.1084228675135 396.0983714042603,982.19625978605 398.2146663884545,982.7560552414278 401.6238927064416,980.8931443507664 403.4862735561719,982.5253036432075 406.311798709109,981.1158093869483 407.20922104375114,981.4062990451051 409.051714297077,984.436338041258 412.3280711990169,984.8318902489231 411.77608015190424,987.5783869101386 409.4194002593639,990.2068029710264 412.71700694104163,992.758329874832 415.036440439276,993.5154272081686 416.9395897255603,995.4734804088804 415.75112945303806,1000.8756248421925 413.1510512467464,1004.7702649064457" /><polygon fill="black" points="177.35087892781596,898.6506201632251 176.13841331902788,892.6656557158992 174.34103250657765,885.7884358944996 173.4898497219466,880.7719806144557 168.9786546659028,878.9363472638618 167.4050358635528,880.8472499515888 164.95666691370388,880.7008909726073 163.6258337295364,879.3300967287582 160.42087788587838,879.3752969573496 156.31673391246605,878.5127757051399 153.71608765638462,878.4473479068635 150.04129798766456,876.5731458585275 146.519639274789,877.4285248815671 144.1089032316513,876.1610808007894 141.82166329709568,876.2434953518708 140.2390415624359,877.733424308059 138.48314390943668,877.0887279521273 134.6711223480235,878.5769429057373 132.0668137961712,877.8392149966701 130.75001935873664,879.8856580265619 130.88695492904463,882.8677560426888 129.71636107168482,883.9538302345225 127.23962269682181,883.488442644672 126.29245277374834,885.2356955989895 125.17819408368246,884.9311044617318 121.95061736188586,886.4549967990964 117.69854482538766,889.9447646189485 116.30516869361821,895.8421171100495 115.58994926537464,901.1310758406079 120.87170111882868,901.2413716642159 125.5790610593028,902.0352609393987 130.39253036821637,903.2477691136734 136.07181557579426,905.6617531294496 138.6925416715145,907.2585966399199 144.24640064862103,906.0038423777816 146.0820666450988,910.1476018112043 145.6946549739403,911.6521144212029 147.77576005330386,912.7193262319006 147.33396007077445,917.7857593660372 146.72726806488964,918.5764092445104 142.96162948074078,918.2889099529626 140.6741904304672,914.6520076333361 132.83889580565358,917.7694163591963 134.91404592494192,918.8906071210607 136.1534645888638,921.0933256233609 139.2549123487622,924.8448320918282 141.39591859109413,929.5831245652893 139.62102036862586,932.5435505706488 139.32285453420977,934.5226996789979 130.92099957356706,933.0855360575524 126.59025377917106,931.7297272673552 125.5543485353722,934.7077031188807 128.18693753389152,937.021729945022 129.29046816195054,938.6693137022281 133.29596355853735,941.1335175126546 134.3728840189697,939.2143375850499 139.70750580845035,938.2077333235543 147.22449766694274,937.7972461830976 145.93071756261463,941.6454448734993 149.0131144624935,942.9122283197654 152.55431798922862,940.657835662025 154.83840318059313,942.367387183191 157.9582848941973,938.2622415020647 158.60506794478664,936.5059241254362 160.82612023705636,935.1618857900526 160.16432149231318,932.0312567943712 160.53527763880794,931.1117898417912 160.07759831106213,927.5224539810308 162.49536532448275,924.5770196666771 166.86821201671094,925.966184061907 168.87587073457618,923.5304092190947 169.65408705973798,919.0412501243356 171.5222397789106,918.0924752389752 171.144013348535,916.790208779804 167.6912253142119,912.4142933542888 169.43964117584548,911.266238624869 171.29618204283116,911.6690276235422 173.60675939987433,910.493841420133 174.34767552271805,907.1799851864026 177.35087892781596,898.6506201632251" /><circle cx="366.0463057055897" cy="738.029172454108" fill="rgb(100%,100%,100%)" r="16" stroke="grey" stroke-width="8" /></svg>