<?xml version="1.0" encoding="utf-8" ?>
<svg baseProfile="full" height="1024" version="1.1" width="1024" xmlns="http://www.w3.org/2000/svg" xmlns:ev="http://www.w3.org/2001/xml-events" xmlns:xlink="http://www.w3.org/1999/xlink"><defs /><polygon fill="black" points="1024.0,431.6557981439702 1020.5734968350528,429.19157934281 1015.7516508642419,427.40419416211944 1010.978036641803,423.5452142767206 1005.1293286454312,421.05604356722085 1000.3453874217811,416.5136967464607 997.0068614309569,409.23206450242327 995.7075236499255,402.3168518933908 994.477303758637,393.3373984870577 991.0765812097901,387.9346811203531 986.6638904329723,382.02118226671587 982.2539636211677,374.3814719756145 977.1677902106302,367.4204286511387 970.3284913160967,361.823018552497 965.8194204927564,362.80407678859143 960.9653504059232,362.0553107611679 955.4248266233317,362.68194718259815 949.176567830227,363.9874948121279 945.3490633376047,363.94154750192024 944.7147436850364,360.138177722886 945.1478879697581,354.2867562138923 946.2722907983579,348.77823619475936 944.2988415398171,341.8610973646364 936.8294359173881,332.46326807096284 931.3272306911774,327.5717809962555 924.86085831007,321.29244016863095 921.0799048987809,318.83447881024415 917.2340078442234,320.8632445598739 915.79428097847,325.3289815697266 917.0694674390805,331.543860029251 916.68113573173,335.6819965675359 914.8582629769265,341.8675404542464 911.9875053585369,348.04798740357506 905.734518380748,349.6932806539166 899.4813464636173,350.65662015460646 892.2324508194654,348.84637652726155 887.0703466076228,346.71988066208587 883.3252594562874,342.5373920142639 879.5891602583173,336.9702802690854 874.2017967200425,327.2521140194646 869.0984470722373,321.3290812577265 863.3378044149441,312.63487810446287 858.3062606002649,301.88310956491904 859.1002414585525,295.3390413920126 860.6172886829778,286.39457974723155 861.4021345587801,279.85813714149407 861.4431567358648,277.0932434279467 855.9560671906507,272.88950330279016 852.5571793184341,269.7424624891168 848.0801736747009,267.9536170560575 843.9998913115279,263.7646634106639 838.5137541754375,260.2494613400646 834.0905779274744,255.01347906518447 831.7894340199553,247.05257837114704 831.8505329174029,243.51998617486186 833.0285357501715,241.42904370392966 836.2244050292475,239.1788814420978 837.0659580990299,237.82268394759592 841.7906404767194,236.43910221058087 839.6124810328178,235.41199284356588 842.1344071162476,231.2605881481599 843.2040433064935,230.81135706808442 844.5530477626977,234.02511662630837 845.6551136255919,235.0666217896341 855.3907871173952,237.03900841489786 856.0097075823987,235.94332400678007 851.0307910510651,234.75198228394953 846.2583723388107,232.91185209223534 846.1548433864547,226.6324406032728 849.5976839737056,225.20289301259976 852.637175684559,227.6029214402521 853.8860829486104,224.77788989342815 854.746122852368,224.76506783572825 856.5096776309824,226.87705979108927 859.0826308479527,226.1840561049155 860.3894986770586,227.24496032606947 861.2480514655089,226.35783926643927 862.0332058459768,222.0273475514756 863.0769665388997,219.85836868169395 866.2691213148762,217.42393426295536 868.4341963205634,217.58255690604187 871.8022616502095,225.4893124444584 871.430000078821,229.38179195316542 873.8069783048031,229.33852383332425 876.0306879758177,233.37702680445528 875.7738219677672,230.58046957677976 873.569534119673,227.82977691517135 873.0832686996827,224.82449146055586 875.4795190816658,226.06599744193232 878.042559849377,224.72121109708428 877.5663746467092,221.70825954274585 876.2119187174505,223.63976603052754 873.2720880820433,223.10166920179 869.6951409707142,216.27100256935353 870.547280335755,214.96557971635622 872.7085603362096,215.55757311566623 875.6716471559527,212.27313375298883 877.8005795656729,210.72119413165865 876.692122198409,208.57851895491308 878.3872643234857,206.8269471857655 881.4123644923056,206.98743089781783 882.6908696703855,206.0862925023859 880.3214517004325,205.9234609293078 879.62850593131,204.22296317240608 881.3050869082456,201.1639556469887 884.0846755324513,199.38086564480443 888.1799698192704,199.07806918273263 889.675078865296,198.39478283813958 885.1342649516675,197.63144226438624 881.2530255456287,197.71873958529534 879.7955409257919,200.98059972887324 877.8879769087321,202.96262430390465 876.6565826560818,206.221032043163 873.6438971581819,207.56656369710288 874.9707235442704,209.27258913037372 873.0990198812809,212.96645659318375 872.0142964976449,212.99631789003428 869.6239713175503,211.53347064465544 869.1584302300112,209.8144630463063 871.0190845128194,205.46773427447215 869.3110578191314,206.36618694727764 868.4370548925991,205.52759971980737 868.0761349554011,209.4048584303655 868.7668516776115,212.4206307594232 868.375510629454,214.35866345567484 866.6667764712207,215.90414802122461 864.3100979317987,216.6000828641346 862.9925673276982,214.9088698018266 863.3739790836892,212.30287742391437 861.4575442994472,213.6317084076805 862.1744705873141,217.7200287965979 858.0069023786389,222.08754270831656 857.958739661469,220.24038299990843 858.8093193528746,214.089642796813 859.208094416151,203.00842576972866 858.6199785337524,198.66987611209333 861.7661914323637,193.19651949580964 860.3271756623867,185.34798659526075 858.2205189132757,175.3936850127718 858.2893018889928,172.42971388720514 860.9839327135304,166.97060657133625 861.5142952082344,164.10805810031275 860.8618572415794,162.93957502815442 857.8890137698066,162.08119645969282 856.8325782660177,162.6868753736826 851.4805761869005,167.93725757313086 848.5475687843767,169.75661197810575 845.7801997675762,170.3590732346497 844.664576846034,169.7571885652684 844.6590186313096,167.30747540523032 847.0527255435621,165.0056659230362 847.6222152293278,163.37201661787083 847.3434957511099,155.61294509098173 845.4563087191035,151.34484428988844 844.4645128874298,145.31785334096128 845.3908125663675,141.4126821893185 844.8888545201233,140.06433014900347 842.382509037939,137.5238777931628 843.1207697983443,136.18417540502367 841.5430766934948,125.13233859014713 839.5655294215971,118.20353776851266 834.5005153560905,110.2144529976432 829.0630498818815,103.93413464568357 821.5455941402364,98.31025659491206 811.9760572698185,90.9404497320811 805.8266991566718,86.36713237636593 800.0009254592098,83.52084595437964 792.8076740284145,79.6303199096725 788.7289620082634,75.0758677067322 784.6600441764089,69.84853362994306 779.5316922734473,67.01241931980337 768.7345595896708,66.50122820629963 765.3842132143735,68.50697857437206 760.0800097294406,69.05839623486384 754.1632498836666,68.35585188017114 749.6875181205432,69.7256866669635 747.7807406876907,68.76566810469888 746.9955316189029,67.55646722534868 745.637549657281,63.45272876938316 745.9258156239503,60.68892500046991 745.0717698151223,59.69286229336012 740.6890936085837,57.369951658922105 738.5244395513773,57.0469665593082 730.9398889475941,57.78451317194083 724.3567406870343,56.30916212048817 720.8178073350729,55.05269576417447 718.4138714166752,55.151073065076844 715.6534604735326,56.849411626221354 712.5846934847253,56.978044760559555 712.5831516839703,58.33984977789157 711.2904337928234,60.309522653676595 708.8187537825129,61.45145265908059 706.0170359695134,61.67402353545026 702.0930295306171,59.224676565404934 700.5178536813181,61.488573881106504 698.0730979937742,63.09790379476101 695.3095720451205,62.37024786400855 692.9583654017921,61.18091259553182 689.7614648548363,62.3611023796941 687.3487136352014,60.42919243324593 685.0830117727296,57.1394692667933 683.0682395596392,55.748227649880505 680.0996024262053,55.02911887843834 677.2000286053395,54.849194541556926 672.9996784125176,55.3325239109688 668.1834345973189,56.41999148009984 664.2497245601548,57.72249162928483 660.7335647438255,58.00352963883677 656.5461818810708,57.27338883302275 650.4147256462408,55.69667731663435 650.8383277591711,59.77019594285673 651.4853341881392,62.22314112469974 651.4731264317842,69.68210046005538 650.9571763428445,73.89018880728202 649.5171205936084,76.43602009373797 647.4615951955753,78.10988548694002 644.4776945029247,78.46907720903403 637.7994327173386,76.68546969498345 634.6943858473065,76.43667843574076 635.6720522698657,79.90844297900821 636.2947882147491,84.39911820439897 631.7916320159775,88.34147510421076 627.3890544394316,88.28589439410257 622.264969291228,86.3243128089623 618.8871669416561,85.66650597985358 614.9850899478785,89.35204348694697 610.8425768905232,91.18838433770918 606.6278419515569,92.23108221358325 601.2135453926741,91.62826860881057 596.2282384198235,88.57002602437558 592.5047424577233,87.98833994855897 589.6382104893933,89.58615358738189 585.4993917112911,90.15174369265583 582.3261102871777,88.61768742434015 578.3361588590112,87.2927822026437 574.4043746790846,87.17976573235296 572.3595833238181,88.17222940416218 570.2373296515123,90.3287602013038 566.6521488283646,95.78276611050956 562.6967327115685,97.84242697635773 560.2349759709944,98.29237361312858 557.1959146771321,96.89746356496278 553.8407290746512,93.88152177540678 549.995386520809,90.99364553607268 547.0396756666808,88.05670626778362 544.6880518902693,85.04279936946625 535.260019496381,77.89521675657659 530.7467597127518,74.73093277668443 522.7043868694121,70.12139745648017 515.3275637528446,67.13409635731023 501.10431933484244,62.52849863524091 495.01790768042395,59.560214118984504 489.59768355670775,57.48471149060606 480.8409174266194,56.18883074451503 479.3094168146341,53.922140020106895 478.92038226291436,51.41571529618261 479.2291802024763,48.226650584817435 478.9116341348207,45.79006372661934 476.3598113078458,42.918981942751316 474.0544924300264,42.76367661870165 469.4883376428435,43.465012956983855 465.74711453793077,42.95697014880534 461.93345232074876,38.179628045453114 457.9351812932726,36.78829505923227 450.3393149902689,40.79524737616714 445.8048434779524,39.86443460869509 441.57754512682294,28.700004924420114 439.13181243133795,28.69327215002272 436.26162664648336,30.012621035210827 431.3751468045184,29.559522155604327 426.7289066752092,25.23808670039955 424.1680628328679,23.31862141015904 420.8374818365051,23.7057671077298 417.21424245053856,19.32975388255079 412.6929680992153,15.957298970371426 404.79645458186684,11.864626858523593 399.21394874873414,6.937959666093548 395.35305723414905,5.741885161813343 391.293636192686,5.015947695408045 385.08785073314266,1.8338032569575944 381.44080485946364,0.5701706019146968 378.0585560701047,0.0 373.0358109456133,0.07910144140726061 372.5998209683889,3.1188576895394817 372.18846941309545,9.967906510824037 370.87324311706465,12.12557293193288 368.42266771361886,13.452221102133535 366.1530302219601,16.34300324928961 364.1728114803764,17.61451886470411 361.2678209285868,16.824804672769687 356.41349437561905,13.71618840571648 353.04146884117824,14.961293893901825 353.03985639222964,20.230293043000074 351.2272017104716,26.43015679333473 349.1307981219886,35.46930221959292 347.34856297046144,39.85876264088904 344.0860837480915,45.515236892796906 334.7887021254069,57.79344329885714 329.12681490770143,63.00856236263212 325.5185158356879,68.05756491389457 321.85882822285225,78.54293776570489 319.3961645691185,82.62208786701751 310.61946358664414,92.35601217004478 306.61918930063536,93.55718944821831 302.005053634924,93.83520382404913 288.2337045698095,96.36314958867342 284.56261636432447,97.74364496682267 280.62758084814686,100.13643560314449 279.2329410427765,102.76339614656251 278.0070951179551,110.54749974910442 274.09141261139735,116.8004569600837 272.6972082105909,120.44889535778782 271.9154532366396,123.95681599059606 264.3498528375225,128.81494603223075 255.90435167723436,133.8520330679636 252.14485329097928,136.58360412883576 248.4562641865656,140.20046563658093 246.973405782714,145.26978893687703 247.83137702270213,148.88202518519927 247.04308931190118,151.84972076389874 244.45200428337904,153.71562862367205 229.55391255470178,154.07090810132217 224.80504388534868,155.3000365304472 216.6373428742344,158.6647563501332 213.15462206308126,160.58895345057135 209.06605874583317,163.45660091174295 205.3016763359688,166.8759392836522 202.48939292117305,170.30495559016174 198.50881568570057,174.60643164599048 195.36145075410934,177.34365324946418 190.45508995720277,185.42453035493463 187.9230602398368,188.17636680129772 183.37658375719772,189.35834168202769 176.3807324694159,189.41545244682447 170.222328263014,188.270779461938 165.96526806823894,185.63547775327572 161.3387155981497,180.85386537212867 158.41790302104693,180.6121489816402 148.8220907202375,181.89428925602772 144.39678993049887,182.86016401234338 141.00705676624162,182.89350107545908 135.32704203559086,180.27276587301583 132.5874538836331,181.8686771541311 125.03140183911482,182.2837483442628 120.73849510933874,183.134749591223 119.1443489890794,180.40907561074494 116.83222950889551,179.5783893211751 110.95682245925275,182.23463593342228 106.37034362045559,179.14037126033338 104.08953939773447,175.25667571606198 99.17891272902322,170.46828133646682 96.3955665615917,169.64325876885562 90.6128480185225,170.13740795293415 88.0208892516225,169.9783765988667 83.82868540443185,167.44684442686196 80.61450969053038,163.28122149096134 78.33721488675177,159.66789682476383 76.99468788805831,150.77124782578483 74.85633263127646,147.69665984084565 73.35970863081732,147.56924058465677 73.60341836842646,149.58891626429806 71.61888074838629,150.87117481336747 67.27846371577816,155.376759596203 64.527442832446,159.0866593639222 63.402695678239276,161.52523478772093 63.30238651844915,165.11872912176807 68.2631409267872,172.13742916305262 73.02900682880268,184.5180486609446 74.84138598109203,187.7250982502493 77.32730215902525,190.6625456611573 82.53895307848964,194.80948518563628 87.6377270767009,200.98978504915897 93.71081972921371,207.4013873219008 95.90296239419001,208.42466598945504 98.35138753235069,208.41644439956616 102.35134871756026,207.7524997273568 105.31838322616831,206.3325632398993 106.99823043727002,206.33003124549958 107.97285942438738,207.4430044426985 110.104608163438,211.80498067680327 111.12866178013768,218.19350574902984 110.79061534294762,223.55252858890321 110.21818143984555,226.86024695334476 111.33200314696593,230.8062127863659 113.04644597731239,235.44295115785275 115.73907601277693,238.44998395803486 118.43352239301642,240.43393699617855 122.45704731399687,240.1242673744128 126.69116591751676,238.2011877358844 129.47848520956578,238.21773417277933 133.91473366415659,242.40048129857882 136.34445572100122,245.54510011476083 137.09128200404155,251.71050593797042 139.64285697943893,259.0031187532901 148.8402424849192,267.75734209704495 158.09914394273633,273.39318204778033 167.05610019396184,277.30434672123357 172.89568043644272,279.1009021571732 177.633358116044,285.37651689808166 179.31481251989828,288.5008814003843 178.9050782366524,293.6637542199099 182.18115180834542,305.42710897602694 186.33190125569507,316.3736636021408 186.56939337436717,329.68409195781254 187.7851715300841,337.4482628502011 190.93843680682812,343.0309101530403 197.00243155089115,348.3732710184512 197.97073819971257,352.7428491953192 206.70115826362087,366.08987000604697 206.8578553109507,373.3472122595822 209.49861232067087,381.76157831040103 209.73815918770129,385.16518171223646 206.6363272971966,388.7880769745251 204.18102538488134,390.4545361922558 202.66246816771232,393.4924663836657 201.98246726022302,399.2523802409343 207.40139466389343,407.44734319779747 212.76498251477838,412.2005227932279 215.93542044385705,414.2019169247763 218.78844148551204,417.2445827082837 224.87507030196096,417.40883128236345 235.94784699708296,413.67398237509235 238.71970853874987,413.83758882644463 241.1598232105962,415.63243339045135 241.48971119655013,418.7371737613414 236.40991355785005,440.3069097470174 237.2784243354675,445.8041145120876 234.47780768106756,454.8043196647309 230.9403010366662,460.95968719869586 230.21306503292806,465.08037928980764 231.50790747697116,469.2357282955363 240.0393722042251,476.2688334769493 247.56087697704172,480.8658352411604 252.35273396829666,482.67190852638964 259.8454029329836,489.33870351824373 259.7692326172871,493.82276175829406 257.95972018917587,499.3150787265381 255.1316174782663,503.7499597264724 253.36416620463694,507.5191707099941 246.02885812092157,513.9525254734167 241.13918376636036,517.6700106455917 237.63559777223284,521.4074780062913 234.5347805851459,522.3935702369805 225.96177342895282,517.4290908630542 222.16424771283562,516.6845003797071 217.3144919531446,518.3366481667175 212.79341605025135,521.0233093369523 210.01075065601435,522.0191361132732 204.4319513353502,525.7348218481816 192.6091279926546,531.4210773648382 177.99892451636268,537.7750683407786 172.79198356159742,538.7386838333281 170.03628461204693,538.3599082757997 164.2365346138018,533.4559114865915 156.69829369508994,528.1851945513516 144.38687868346864,518.7258844795575 139.25033165700685,515.2165317497203 134.0583001085262,514.4620824815408 129.81905792889594,519.9264252994232 124.52846439667994,526.0777174074719 118.5877014182835,530.840452821619 110.84901158362713,538.6799598143464 103.49696214329389,543.0838623900731 92.72135312155743,545.0373300699387 90.26936727366665,546.3916989037172 86.05714817412692,550.4808731726083 83.56890988643735,554.5974789803719 80.74614485940204,556.9811063314162 81.32251887372347,564.9203048464295 80.48441103813401,575.2585730949627 80.43079865533218,578.3640783092119 78.30603319658749,580.7546840726297 74.88372903274185,578.3011889480543 72.12128660837861,577.2375687949798 69.34784907084912,577.2135098815083 59.910390110696476,581.9426050006019 56.05943844186661,584.3125355439461 51.854186982813445,588.4095641602381 45.83960445277207,596.9666806848988 42.972482023750494,602.4548652479974 39.80086428572888,606.2157253290322 37.976989361351485,611.3739733025294 36.855984846107475,616.8748907169472 36.77146751206351,622.3950780565738 38.758464524855604,628.6232575500378 39.77769000646603,631.0075008841029 39.01770480912642,635.6657529476555 34.964446564214555,639.6901202516299 34.1489625978528,641.6289912293289 30.583208905566917,646.2836857336824 30.94318394754244,648.6242265173623 32.210493816747785,650.0585740757462 35.09911282424879,651.415218722493 36.350459852727276,653.3626524939739 36.67378380267829,659.6569024434041 36.08455993535478,662.6828871799328 34.64058871862773,663.2810031916862 32.66529864698679,659.5438509410772 30.225723486426965,656.7946491860225 29.175351807843843,657.7156399199229 31.604525462011082,662.7665816349308 31.27730937201038,665.2561641831956 30.296789526929302,665.9192964078525 26.34069654434954,666.0613291853525 24.167939894096897,666.7861590271912 19.3623126410211,666.0810741964845 16.408792194874245,666.883387407126 14.500248905055528,668.3323257439056 11.73219338220572,673.8143633989514 11.658130774538877,675.9526583442441 10.603127964039905,678.7268676442328 7.734128414461182,679.791503284725 3.6410507946988067,681.865634885821 1.756153462855479,685.0306102077643 0.0,690.9969805443959 0.037902826806308125,694.316678793484 1.0092354465197846,699.5236933196893 5.4184521849041465,698.2893162382885 14.879024975317266,698.6125297160895 17.620077825265067,698.2107925934894 22.72076482172693,692.5004212239955 25.91678784325157,692.3712836938778 32.27274752800471,696.1627648270385 36.88937662694282,696.2358152862164 38.9056042805454,695.2700125359464 41.340562448701625,692.8246676030969 45.52955421388002,687.6782318187004 48.67204309948745,685.0638981108332 51.19893560479152,683.8360506749865 57.21551189267655,683.0337474128096 59.57264708035617,683.283049100803 64.19202240689937,686.0915672430349 68.30312959832274,688.1629670172503 72.92154200942805,692.929873298737 78.67234742512382,696.8241754967227 81.64983758929394,699.6834331190506 84.00114322710475,703.85121188147 86.09519327377966,705.585813026156 88.88543647962211,707.1408967155809 95.25019505493613,707.20327383205 97.95251968670888,705.9729517904839 99.34712002406228,704.4916090706455 102.66326713775169,694.2202837793332 103.79565566682511,693.2618666509112 106.24140615036715,693.1680759447869 116.61737849631919,694.6582670925908 119.14164115609603,696.3025458356899 122.37094884202868,700.7246121986007 129.48544081804405,706.0796435233738 133.88075631537401,711.9103726308917 137.66912771577972,713.4985207277731 139.66012343045685,712.096753939971 143.86757229520083,705.9557624381976 145.52396720425548,702.9249161039272 144.54177045396654,700.2055394883662 148.90709829285748,698.8091237753571 152.0704968414964,692.1575138213348 149.1608516671367,688.986118713967 148.7671468235188,685.5118506073708 149.51264034731153,683.9310066981726 152.49130065245288,681.5069534578731 153.62977162567003,676.0740510871435 153.65798619861008,673.68633125105 155.93813727880558,672.3882843336688 160.11842090413717,673.1234979988474 163.99920227955005,672.6445002923945 165.55971278940783,671.481261373251 168.47900750455182,671.4524112469876 170.91433027605876,672.425703506451 173.20358231224665,674.2699383418254 177.40882356569597,674.2567199363295 182.32659394341928,671.7284476171543 185.4473647884931,671.2128217550597 190.62419899497945,668.8230696815766 196.99194696135464,663.3235565453472 200.60387865207997,661.6698175940384 210.9541523119035,662.6327933826757 219.07174618390474,665.4141822398958 222.40302027390683,664.5751351872152 229.99629739156842,663.3776268981776 234.9456804811874,662.8991629974613 235.844800306736,663.3035536685186 240.32828329602592,659.566662959238 243.89514176838833,655.7459092932256 246.11986049781757,650.2300678396389 251.57300108886452,644.9646966425761 257.13505609163843,641.2655577608389 265.11564895390296,637.9407856642991 278.54699817834285,638.8450646488055 291.5573798961386,644.5758318128164 298.03902446334916,650.8892065226424 303.87170319690864,652.3650543016522 304.7387663925601,640.3080783059679 304.91288437127787,628.9235728621992 305.7399464858492,619.9751709084832 304.17074721786315,608.9165014290302 301.8826418497169,600.6007023703104 302.7161076156459,591.2986770302678 303.4801583744498,585.108591142503 308.3969410147708,580.0136351701046 311.56683970512654,574.8939679968664 314.41051905548534,569.0737050388844 316.21895971486117,563.586683598702 319.75151330247786,558.813358811231 324.24206340311906,557.1541443927698 331.104713288537,560.025560103281 338.6659857667492,563.9284691856412 347.5644775372054,567.8671864392877 353.426475586544,567.608908102356 356.5533214689296,566.9614386790895 359.7148843829254,563.2233103528462 364.3115654340625,557.29791471138 367.67766951078903,555.2723835769648 369.9657822295145,551.3738894454061 377.92216139296784,546.584831559208 387.64483166702735,543.6180396700192 394.5725134256622,542.336253394582 401.84422179746974,541.3976776588503 408.08972547336055,539.7515039136546 412.6410348064725,536.3600230506544 417.1773544989606,534.3496988080642 421.2995211085466,536.4784715029352 427.1262299146096,540.3398492926665 435.32879462312894,546.9924042425095 441.7650861997227,555.3535366990792 454.86538676505256,559.9894742851416 460.046923450122,560.3968694120202 467.6693092753826,560.4843333194334 475.92806041050096,562.9980193060364 484.5187759409441,569.9997377481632 493.75734978559456,577.0005734884998 500.58475550805366,582.5936031897393 506.84394469805704,581.9825704996608 512.4133998784232,580.3175698280671 516.9559673009269,577.9624404456526 520.7694841030795,577.3163500817662 527.322660492592,578.0819260390173 541.1021338809068,582.3886656509109 552.7577170483356,590.1197591253674 558.6041061715832,592.6170791529895 573.0703259969127,596.5991493901935 580.6582523882179,597.7342541109493 589.6148155351616,599.9270945729273 602.1351094964456,598.7600714087266 609.7732379489972,591.9442242388618 617.4774348885419,585.5047129497589 622.7700398489173,576.9614078534107 626.9712169841052,572.2057871116082 633.9473427601658,566.7934796904545 647.5168051843475,559.762971402585 660.0212906215862,553.0809009001723 671.0949926420072,550.8526147684533 676.6185855563931,549.9098469705852 680.1175982547098,545.8315629515123 684.3487348709814,539.6939205725988 688.5468638369421,534.9453629758456 693.487487708482,526.7469104761449 702.4214571450312,518.4378504757274 705.3490140292163,516.9531905722404 710.2386059186273,512.5570258599682 715.7986348914459,509.89681869319907 719.9275601994163,509.96760710923184 728.164710990126,511.490394253295 736.404772665304,514.0373496792682 742.6307083956381,512.7691213994292 747.8264826850572,510.4467617923974 761.3317732287801,506.18477445249687 776.5189989008219,506.08957188529973 781.319383587912,507.8869156195161 786.1361253600085,508.6576631122898 789.8948377112957,511.47326894265075 794.6577398205361,516.3734113649948 805.7017513529809,521.5755154252952 819.2969887240055,531.2252670446526 825.4645384920564,534.4172294642763 829.8600326340219,541.37407186055 835.5797253211718,553.1821793746526 847.450421155183,568.175411607614 857.3294963857237,578.300848179017 861.7435410583756,583.5336333554587 868.536518807277,592.5860674437256 873.6800614438328,596.448897067128 877.8218314588745,597.1846237925354 882.3402420359423,596.2052122066775 889.0039779989634,589.0465844597096 898.0478439173469,587.7714152776757 902.5198476325048,589.8903194347488 907.3149021123243,594.4328719457601 911.7769755535527,596.5531563308605 918.638359110539,601.1151505651511 926.2509496744931,602.2375119417641 944.1847641529334,607.6129132343635 953.3750115034438,618.4138651757854 956.1156406474886,620.8573707868129 961.5783813664419,626.4442477417946 971.8895040876047,633.1186659599847 977.046473371776,634.9116764299388 980.1561617668566,634.5997357050557 982.2820882566638,631.1746655365102 984.0558637415411,623.636449952155 985.952581374404,618.1126956415142 989.1514820867471,605.8585397748684 990.582985046685,602.758713265436 991.0626946309345,599.8935455833553 989.7951580650789,587.9171808198028 988.5300492262611,581.3339878343743 986.8773915084553,578.7957728264262 984.1406214669264,576.0112169679039 982.1539888572858,571.156282908057 981.0649347198288,569.8551482112944 973.405287873898,553.1107019788376 967.9940715872085,544.0790833364624 964.2316906627156,540.5848664717205 961.5653410409465,532.9714452231252 962.3318124590764,528.1456755431926 964.1577945450072,523.33951631815 968.391827620816,517.5281797045778 972.5664953351475,515.8543353646164 977.4542631760612,513.150432541044 982.6667250787572,512.1793085197168 990.2929866922224,511.2331632529525 1004.1214608211571,512.1040078197382 1010.0179090939996,512.1804114237146 1012.820325731185,510.14191691678474 1014.9407759191783,505.3393184529159 1017.4865063879703,498.12967532724224 1016.5205352568977,493.6305785127487 1015.9430003084766,485.6957540147976 1017.8021646443965,476.7468904837095 1019.3566488129508,466.0813098611726 1020.5218102151388,456.78229643860305 1020.9809865864462,448.8534345523391 1023.8859687726755,439.2435839433591 1024.0,431.6557981439702" /><circle cx="390.34204371925904" cy="290.89020337582616" fill="rgb(100%,100%,100%)" r="16" stroke="grey" stroke-width="8" /></svg>