<?xml version="1.0" encoding="utf-8" ?>
<svg baseProfile="full" height="1024" version="1.1" width="1024" xmlns="http://www.w3.org/2000/svg" xmlns:ev="http://www.w3.org/2001/xml-events" xmlns:xlink="http://www.w3.org/1999/xlink"><defs /><polygon fill="black" points="42.345823755106395,326.0891589510693 43.575474201527285,329.5464383633397 44.031894859711734,339.16195950251847 42.443024762185416,347.44471882984715 40.954854344248545,353.2215648633894 42.69740474274516,361.63546934567853 50.15757916073985,363.1741262926781 59.14663203306894,358.5218564062345 67.61908191464326,355.939296074209 70.86990562664329,358.5654566248329 72.09744290936067,369.45468290998576 66.58168759853824,381.7467869811235 62.2704903324114,395.3434189850286 58.61788594057461,402.708011359072 54.922937318191586,411.3247949838142 54.57994041822088,420.06561480252503 58.22654142944592,433.5553089211322 61.176144563495754,443.68274559317945 60.71221622404008,454.91980828731516 59.44869123350468,465.2969388405089 53.16049226137423,476.3113466516759 44.38007963104488,486.3950300575548 34.07024851745521,493.07209879222876 25.124435867582108,497.3048602254187 19.097282665645082,501.6492626324275 15.693281218267668,513.6052356939515 18.74382050650038,520.814514080691 22.574624307109367,527.3044209010844 49.34511811234189,535.9360376875034 69.86151921586801,537.1157946215881 99.39517990284928,525.0632883583284 117.76287521388375,526.6009626627583 128.47382836148964,551.3268517437131 141.15261723687482,570.1423539445333 148.79624933661276,588.350514719633 156.50206945385176,605.3174309639573 159.72562450202412,619.1921301409652 165.90983531569455,632.3480102854243 171.44237373297247,640.8828486620403 177.63791113620482,654.0384584659255 182.90383363756013,658.8216105329793 190.37827907913555,663.6060804995412 199.1845962405157,679.9546302172341 207.37974774308978,698.3652083934137 215.58461297487665,709.2422217040727 222.27872862900884,724.2263412774246 233.29846650357484,744.4477877294614 240.61435584576373,749.0152182068662 247.1196663505883,752.701315657022 253.3854676534366,753.040620245132 259.69027105705067,752.9659791605295 265.52971360418513,753.6896183220583 270.73912089202554,758.1558302056638 272.5619860805883,762.8468243966488 275.2269409131296,767.579199882131 282.42726135993973,773.8227102360407 295.6346722453964,777.4734363530112 302.37481054865486,777.0001107368641 314.94637607047133,777.2703549936178 320.1995621564561,773.3904118239022 330.09474396157356,768.9278588353139 335.7740984174074,765.0682822080123 348.5104283764229,762.0177460492375 355.2896411636769,760.7252890433845 360.99301505525995,763.559905830436 368.34937822228943,766.481150962538 370.7266432182301,769.1195622725371 378.2744036754576,775.8237852322791 382.3352401981828,778.1438879586851 387.7592779617955,778.4507813313664 392.07257286576186,776.1881662136764 398.36672667779425,775.72344797613 400.22289420347767,780.0100015137472 399.1867160419316,783.2872194388368 395.598094763251,787.6741244538825 396.7656560049711,796.522405399189 400.79812156692515,799.2578793432937 407.04481464536246,799.6228244166554 412.13066109114584,798.248309974356 416.50186563751373,795.1554086556517 422.4025180161069,787.134111768875 425.8636772981108,784.8316095782909 431.1722550793485,787.2314985915998 433.9458704981625,789.9070719421522 438.09425942829955,797.6580389296718 442.5612101810135,800.0168642581109 453.40939901579634,800.228952326218 460.9326082326037,800.6717316733505 466.60894855853815,803.5025407307728 469.5477902305225,810.7911043435574 472.54625387817,816.8043531862111 470.58467764857096,821.7032899592206 470.6900844450149,827.1465349850473 468.98915003298566,834.9808467827734 465.460547146953,845.6403467233447 466.0514395386383,856.9608362216707 465.60759390676253,864.8758834618603 466.5168332672362,870.7734621753625 468.4042513151472,874.645202233919 472.33135153563273,878.6332107181594 486.53006267395256,875.484350648204 491.3461455124388,877.4240861458361 494.4705308684146,880.4827975906439 497.14076713397213,879.4471748387216 501.3503326290804,880.127606311812 499.02948285506125,884.6169602916705 500.81779891917233,888.0606141853522 503.9251271043792,887.9164994007505 505.8223389332044,890.4223697415604 507.7970924063428,890.8205432258871 507.8224066880992,893.7396898762482 505.169500176981,897.976294435495 505.9807351943889,901.7238095118753 516.5736945673266,901.6026885626077 527.1964338038993,897.8939484949561 530.8227388388726,895.2895932150371 533.9486787405881,891.5467942573006 535.9967226704533,887.7112260860881 538.7920358984765,877.7603535889492 541.6077754938076,875.0562602835666 544.6681028835866,874.3631898576056 550.8362949290076,874.3053892967694 554.0065037005144,874.8510958905455 564.3357487635899,879.9406859360638 569.8722244732967,879.3102902120208 572.8089959205005,877.8449452531415 577.5929399179504,873.5612351173913 584.4774820785345,864.2370628674969 590.2449466788853,859.7726245498321 592.8263940542521,858.6539144381416 597.874799158322,859.9688134469629 602.24103386204,862.5144044305785 604.9138530900638,865.0142175226651 607.2008174585303,868.3166388461439 608.8688814012156,869.6182193670132 612.8924611189706,870.5978347405767 616.1485161510942,870.4134595424715 618.1556663681671,869.3020604015273 622.4561798711115,864.7651790125784 628.4838403997704,862.0364091253776 631.996808483128,861.8791423181 634.3254578461214,862.8001180820779 640.0156883688909,866.9752086706324 643.3289144327941,867.8462613337966 647.6866710763122,865.7103103597707 651.0891148918388,862.8665310241486 661.3076622626661,858.2917662733709 669.3770675697208,855.9818226141974 674.3801874437725,857.5174977335132 681.7102363451995,863.9027298829085 686.9057298522918,866.2221956180615 694.8733836975608,864.4763984847748 707.8353489139951,864.6904171226515 712.6820834678771,864.2253762410772 717.215828660614,864.6045701741591 721.1938889045801,866.3592877946785 723.2805047810065,868.9559942220113 726.1864464027063,877.3446092884088 726.6831349780756,882.5024656461014 724.9334857396948,890.2477425997095 724.8463764563671,895.4024217298057 725.7863063448812,898.7968069103728 727.6723140717515,901.4910292216276 732.0203794524565,905.9405549011987 732.8681937218604,909.0693137171368 732.1825971985502,911.5059042964119 728.8607801811683,916.2090702894341 727.067296984675,919.9006165410892 727.7848062889761,923.5648542074421 729.9306210847321,925.2408154030771 734.0959849803365,926.6045189672989 748.4089298794739,927.836634242064 756.9264255537071,930.3052451258203 761.6998113608481,933.424682090432 765.3361638474956,940.2385494255074 767.7413612988346,941.464914564932 770.0094234762128,941.1265799051636 774.1690111433041,936.5820260140737 779.8922721930542,933.1643646875955 787.0619514800115,931.7310344992363 794.8806806838671,931.0108672380488 802.9747390432807,928.4833844758306 811.5279201859288,924.7978008763894 813.7553123015024,923.0909286560013 815.0831824968765,920.7055539381269 815.2228412843871,909.5522653497135 816.4253897136703,904.6116306269829 818.2539061199224,901.5092828873125 821.2238283790443,898.8140046382466 826.2588905385139,898.4010300956013 828.6767896157158,899.9505952089515 829.6252499840858,907.3862271462331 830.7082507629826,911.1265126041036 833.5808416628819,916.0488623351573 837.0755180391242,919.2730239628321 842.6453464499773,920.3286797421713 850.0267864223309,917.7339915102353 852.8449189972587,917.11147395794 857.8232013840109,918.5401020964554 858.799667609505,922.6543602062233 857.2198455787868,925.7438990783185 851.488217190957,932.6177925719198 847.6038790292522,939.2783480429135 844.9054883680091,942.7304427884332 844.2399107988258,946.6476304732172 845.1599563873569,949.6862980941685 847.5606471655253,952.116996029205 856.3625156064559,954.2434751946168 859.0727345221019,956.0621627476193 861.8208406034114,959.3906032266974 861.7971708673099,961.5191178397807 860.3078955545009,964.5596275644333 856.6731585325538,967.2819709853658 860.9503824598164,970.997849031575 869.7988141233205,977.3098524976655 873.5521547365344,979.5239729164172 878.2399237118235,981.1187738959919 884.7792666126691,987.4142303448591 887.709182673032,988.1624256428222 891.2750762923552,986.419918083216 894.6340281052543,983.1223737357162 897.1774601689607,978.9975060079023 897.5353263394537,971.5160952281091 898.626581350927,969.0945885700412 902.6399161179885,968.2826922871413 907.2511055968689,969.2171649481428 911.3330576890015,984.7362492122643 913.7921003119958,991.7178073481375 914.6944534685174,997.6554662267837 913.0955962593665,1002.2048960497689 903.7092255710096,1000.8711088761936 902.2203537459242,1002.939222587736 903.3540103503798,1006.6926616360574 903.8442633463098,1010.9603998515792 902.467098143594,1014.3688541952382 902.856238374449,1018.6345601577731 905.0235446076538,1021.8724130197596 907.2004508442113,1023.6596239199142 910.0297805685642,1024.0 914.0121615829563,1021.8490852656257 917.8820101373018,1020.7503136476431 925.2734411101573,1016.7021181863637 929.8572549061591,1013.6702929377137 934.5161105830434,1012.8415086811683 940.7380635837691,1012.7527833417273 948.1095631370309,1008.6816316459624 954.3324737660345,1005.9873188833774 961.9046225512385,1003.290485347406 965.2128846405548,999.4527544050515 965.2966246784806,994.2349202144934 963.1129903241549,990.8065379964058 959.05143014166,987.0554557107473 951.4211165807098,981.7862394517997 949.9289859707418,979.5367747112435 949.1818064909033,976.6639868262289 947.8162479860916,964.0397345431224 950.1742147075025,957.6908395070209 948.2575233144315,950.8841910437121 951.4254298241918,947.6838699649509 956.3379451193285,945.4199183878842 955.6737238236154,941.4143446988223 956.418048787912,938.9257201308704 959.0494823916673,935.2092381041924 962.5197931536128,933.271039096325 964.6048580298432,933.0796993954674 975.2263003196616,935.4789759363537 975.6453635277303,934.3310136442641 974.3171860263386,931.3050252247199 970.9993787938429,927.116096307045 965.2901768009937,923.5268919892565 960.2871018230255,922.3331437938186 955.9150838950086,922.2971724600347 952.3637537647814,921.4266039473727 949.8789340508747,919.746370312174 950.6529017112456,913.7222837252414 951.6013303404054,910.8941305953035 950.8969286650463,905.480553304124 948.0039821786407,897.3672111591504 945.0487156762737,890.5106406071617 941.4912558794921,886.9544544095112 932.6654428702066,888.1052088190506 925.0197857618662,890.170105914725 918.431733448957,888.5289443297215 915.031151212867,882.0574087927087 914.2591414967909,873.655144728058 915.9525575426075,865.8278614661228 919.3301543331717,858.0853178300816 917.3272766856159,849.1910766511606 914.5697838949297,838.9980504205051 908.3161373831344,831.1234694635248 903.7908758134746,828.9141440045928 898.76403065997,825.6328122054957 895.6256724847426,826.4402468983933 892.38084955674,828.0763514616929 881.1741810935353,831.9218467145037 875.1200366425959,831.8698484325903 869.6736005242325,832.5590992591674 861.6295624561665,832.3844050875241 854.5148689312556,832.8465349105365 849.8814014802812,838.424459205117 848.1805031768631,841.6314235787601 846.0883711933689,843.0776981179745 839.7982145269422,843.8598516130996 830.1821523416389,842.9536060985486 827.4583122927357,843.8703837500091 825.1429876058758,845.6155099318944 822.9410076211667,846.1284186400175 814.5678181079932,846.0669934277382 812.5640041624714,847.0893263296937 808.697319864297,846.645960874427 805.2545435800826,844.8621931446582 802.2849001195053,845.6717602827438 799.5786687806137,844.2285613291444 797.4546396065946,841.5210077218759 796.1508377861106,836.4485886371787 792.3840361458692,830.7996880660353 792.9685121340289,828.4008861080915 799.8891086723704,831.1077582911109 803.808900960599,830.3869690448607 810.4225708692369,824.5071972553546 816.7104001340061,818.0441778238034 818.048204673904,813.249973358894 822.0351581367354,811.6211823830865 832.614291051851,810.9677618663325 838.5839606452212,795.3214629597076 839.5732188336417,789.6091339945923 842.4953095496155,789.6399499504602 845.7296333933106,790.900728094864 850.9511137500766,791.362122984752 855.2433437582279,790.8716977456509 857.361518880124,787.5641483432166 862.2318100770879,777.1111399442739 865.4208764973101,771.3127274683461 864.5600732030567,758.6991740384123 863.8216118018381,755.9914545846145 861.8361052158591,753.2982704698122 857.9841815965431,751.7414406729054 855.5769910908948,751.7431377330367 852.580103854396,753.4036123792116 845.9755915197607,754.2301592843521 842.6799597310552,753.5244200049337 837.9619268203119,745.4986214052492 835.2471547636853,743.0228800071468 833.0076387838063,742.0859427078797 826.1772443080534,740.9126551689399 817.2101099450149,735.251419747962 816.0274234382458,733.0197350571366 813.7109096063058,725.7228031939906 810.5498000128728,725.313818078778 795.3562720116117,719.4608181508461 785.7848266755148,718.0982674348993 777.8780376689418,717.2445173693551 760.4194675345509,721.729102151827 747.834310357381,721.4762741697994 735.7308262534995,720.401872806171 727.7742687024866,719.9706166523072 719.7254192067918,721.2080869521913 703.575519079515,724.5119628292113 693.3332128416048,727.7165887964479 680.9068719310352,732.0579281563759 668.0160210724483,737.2105242808539 657.3760249521808,739.9704111397612 647.924890173391,744.0499459152234 641.7711027658931,748.7181907221624 632.4017895233518,758.6520813391851 623.7151522918552,764.0253968312556 618.4304579974461,768.3263084719322 613.7335630422552,770.1595745887554 607.5248062380149,768.5560569439278 600.4326051031584,760.6361820189727 597.1015081411693,752.9376743635102 593.9337944573731,742.307768584509 593.3081735891691,731.4184492120063 595.7796903085489,724.8605200826034 599.8359815094766,720.068074984164 605.0153741752495,717.4365106968568 612.1010047484779,717.833681234177 622.7502862493009,715.0872885421343 625.8882823344384,711.5001472488746 628.3585639397592,704.9419245671115 629.3369248008141,695.3966812316145 628.9433707399147,687.4310740268215 627.1610931484992,681.904802561746 624.4338766341355,678.4146512749385 622.4184263538853,678.6347541917653 623.6622472805974,673.7829761272725 623.1387325108574,668.6802456239038 620.0825720182429,668.0559128968782 618.5379628855179,670.7664061325174 616.1419585334073,672.5365469948069 611.2637045622544,674.1110456347134 608.2380859090296,674.3291123671885 605.1019354323033,672.3572267785297 603.5121928587962,667.9804219739593 602.7880660584367,663.5114783342392 600.7972235837394,656.2310537368055 596.0802930754295,649.0531230685388 596.5810432695233,643.3360870316724 601.1494248177895,637.7057103105204 609.4405244561628,634.9018453145279 608.7346951727911,632.2953312368921 605.4162815323624,629.1465603779327 602.8513186550257,623.7156623082038 602.6303596683049,619.268532741203 598.9215708692207,614.0872595296553 598.2318298810488,612.0992875546582 600.897539774359,608.767816823545 609.0612650133047,604.502965353138 616.3556923847025,604.6303628277889 618.1886791461457,603.6281726121829 620.6042915401192,600.0164933058717 622.2054294026991,598.7364935279618 623.0445952792583,596.1634843455927 621.989306378434,591.8710807067405 618.3095989716766,585.7306685011745 611.11700308933,577.722769135439 607.4213594482509,575.6385817029753 600.0560116795788,573.3544101149038 593.293096162372,572.426902150645 586.5611914748214,570.1560358408299 581.6238504850926,567.82236228255 576.2949373835072,564.3361943487844 574.8492240966267,560.2276174789163 577.1061971215295,556.6656662541254 578.0524388972634,547.8124796174236 593.1297327514632,547.7475369237486 624.6999609356873,558.5407587399975 690.5244378718957,547.1700514370489 693.0945754417464,501.9214354193499 691.6666772700885,489.5917584824542 654.3895442950497,440.49749291160845 651.0467330124551,432.65903787657203 653.661364191459,425.1528931848038 665.0105321197251,409.8997422279177 670.1964095383202,400.15407863587654 672.2953245311817,392.7494246957467 675.2423757296251,385.3939172803978 672.3212822017483,377.7103016578782 665.6480479608621,369.8329982813932 655.7539939096833,366.7790844666654 646.9726037328413,366.2963276395071 637.6993909210339,367.0353901660544 630.7536986231304,371.2414266558858 614.9060380972813,384.5617741521196 597.8844725708185,389.04329608449416 586.9129504642028,390.51039062523205 581.1705662200237,388.51496184434916 577.5897070491013,385.383084994176 574.1419396006258,379.7573227387511 576.3017837235182,371.5163296565919 585.5213106970725,356.587660317791 594.5648340949123,337.4615096309544 604.2631482252865,321.7171859066482 608.0209363734775,307.7229090824918 612.0479470636859,295.8275041951764 609.1475211951156,280.6182982190451 608.324164309432,273.0628407358224 600.6240923480332,261.34694865243375 595.0930069665999,248.49633292033343 587.4706501441905,235.10482346280696 583.1660161277233,222.74804709718376 581.8062888641489,217.24264114531866 583.9631539879067,209.0088696537831 590.0256919676414,198.07342332184248 600.3364075788871,179.02090882781204 614.438929398337,145.1398794253663 615.6125024925012,139.3501937646496 611.2533047650636,134.93389445369348 604.7282171178672,132.06284847681889 597.5858122100757,132.06753487594574 592.4773019469511,133.87347084164992 587.9390199299098,139.88165443085734 581.674632535894,146.6190372051882 569.1731798926877,153.00726741046492 557.5103315538132,152.33398090608785 556.0929284105779,147.65802377102875 559.1198942909402,139.0618775529656 563.8320473989364,129.72660258998633 568.8415761331655,115.38969091950582 565.1207658346086,107.24207912377972 560.2928082067232,104.03612403944294 554.8373458264389,104.13669372269067 548.2169241266851,102.91819596401103 543.601324200444,95.96127026979343 540.2289130483205,89.08288006280225 535.3619535982955,86.71189847244 520.7722793903467,92.96662309663725 511.16442573719746,100.3434853622125 502.7108522132794,109.03712263924672 493.0614051098727,116.82515240129874 487.2868946663498,122.75440378032147 480.69224123393855,128.64316943046595 455.03092401852916,138.4113555085587 445.95193897105696,136.62814306394432 441.09590159570473,133.8314317328112 440.2608912034766,126.68520979649372 442.79980259183384,118.8975349434711 447.73677848267016,112.91215572732688 456.3739336301669,107.98923547382606 464.7527638632174,100.53772466227747 469.5170124954233,90.36885698458866 473.27718366740726,80.03531865555385 467.0249052444814,80.8937758002105 464.09069200778555,78.80851761630015 457.8347706857296,76.32399318707508 449.87680205910783,69.24847667823599 439.8224996192449,57.59268241846735 431.84228523558323,44.66156901674606 427.18936128568055,30.48594150421195 422.1558573783601,20.895322756410906 416.70946353715277,14.239454735072627 410.4265451382252,11.34153686227819 401.6481336905022,12.208762881105372 391.21121384829183,13.915739054711253 380.7640501512313,14.37069391385694 372.40854769671523,12.743929631234323 363.2037375629485,11.529925445354706 338.88710497228624,1.2148627406543255 332.20054773935766,0.0 327.5980018564331,1.2835987508573226 321.33807065145356,5.496458493570572 303.35539007114915,13.531286754460098 293.2915823659323,14.849253738466587 284.9353010317624,14.913917583211287 278.6335156547291,13.280797554723563 269.40971350545703,13.346117391473967 253.90111886636387,17.21580640219372 237.54422520294145,19.430820537288582 222.46093241232862,21.22032358842614 204.97677114516264,21.759730826904274 203.9275144178702,24.31915609623661 199.90264655520087,37.72763549069475 196.7826513883034,42.205297704781174 197.00659742103588,47.218063986773245 195.9991336585916,51.34271197871601 199.03650187153337,58.965878997118125 202.27688604848728,77.43795669756457 205.04785049731953,85.08729176372469 215.19876465872733,98.93184846156055 225.70115830278786,102.60405231207756 238.70660726827293,104.1672176909492 248.8044348252315,108.67790827855697 255.12749015098237,118.65320306357921 259.78286953776717,129.89099324581002 259.40668210843114,142.00076820161576 254.85030938065177,153.7296112436245 248.59302015980168,165.04520514623516 241.07954786136634,172.61318456196773 227.66527201808265,180.6570892551739 215.95023658091065,184.08456253398163 201.55480318003563,185.48835457743849 197.09299141124174,190.65435970913052 189.81275227045865,194.13754036787634 186.62690461763893,196.3237497372554 183.973557173875,194.88678676727238 172.6935753642311,199.8884559746649 157.4109916418488,204.82387861124596 141.7621331041719,204.43451034028385 137.9485899055582,205.51530085291017 135.8748963332258,209.4848300521088 134.77687718771122,214.4602258995551 135.01204914473445,216.16297869899313 141.54057185728956,224.99920225552955 146.1177492967542,229.47534238815706 146.02803498144695,234.39512388946991 134.4628549366005,239.62094762738923 130.50894395415136,240.42543674398075 122.69186931856648,244.72113453051145 118.06614837034981,246.25665820164602 113.85103754533883,246.02134143631588 101.75783395369011,304.0728760423208 108.91249596364905,304.71087809854953 111.31599364974711,306.70103247707823 114.4900619534073,312.46958943092216 119.05329341500634,315.17781415028855 119.91077685012802,317.7250982430909 119.07112977532842,325.4387527271913 116.7919409692663,326.8276564477119 108.56103473594524,328.5284611219481 104.8305593518338,330.9751288098431 96.46655640925148,330.37855908413826 94.36444883949488,329.36691389895157 92.53237752917782,325.02407202266386 91.76503723100645,321.19466351857534 42.345823755106395,326.0891589510693" /><polygon fill="black" points="42.345823755106395,326.0891589510693 91.76503723100645,321.19466351857534 90.21466482642025,316.64947791960356 84.68916401307338,316.10889259087094 79.54345275672667,314.9426298282632 76.57562551976416,311.35213024072084 76.27323545959231,307.55400923268803 74.76426525100425,305.3233855768435 74.9106383112579,302.2038079012333 76.30991610764477,299.1458388977768 80.4733099830587,297.1541322863683 84.60199122991038,295.7799464971524 86.5554346016503,293.93780672929927 92.065217444463,291.89875948584415 95.07851860190321,292.821758701161 97.78120535411995,295.1413591442132 97.43884961598594,302.3087370978793 99.2370893735216,303.96052010745586 101.75783395369011,304.0728760423208 113.85103754533883,246.02134143631588 109.0452865708166,244.79296043628062 99.90801752709895,243.23687971091 94.26957213124564,244.1396320684778 88.8677811595043,243.07808905772015 82.4508865966409,238.63736042422124 77.41105986617215,236.0873404703833 74.7031780635136,236.01182902496782 67.34329806508829,238.19580925996172 64.43119312315814,241.9932265115283 63.76842075010113,246.0605590944275 64.44365768104545,249.95705203828243 61.62710629550237,253.1019640073299 59.622930911926645,253.76935720443146 57.4681553437477,257.7799703307476 54.09138875095827,262.39531636736444 50.60709716456514,265.75650419288104 41.759606414909456,266.39692685146224 37.34036149329211,274.0095196845639 33.55229465533647,274.76541734954776 26.091481705253393,273.7823500534944 19.33912681264355,271.25947295049855 12.545435112272118,269.6866826459228 7.566915243258454,269.4411835034331 3.755077796574174,270.8216938659183 1.4049517087364378,274.2612814709074 0.0,280.25102265390296 0.3513114129727952,292.3582399517196 3.6390344530387373,304.16550333250404 13.97240431469317,306.6757249773593 26.04547461988488,307.99695056441305 33.88892842263872,310.4045039135783 40.56024678866986,321.09202345624294 42.345823755106395,326.0891589510693" /><circle cx="391.89811922881483" cy="539.3807889256094" fill="rgb(100%,100%,100%)" r="16" stroke="grey" stroke-width="8" /></svg>