<?xml version="1.0" encoding="utf-8" ?>
<svg baseProfile="full" height="1024" version="1.1" width="1024" xmlns="http://www.w3.org/2000/svg" xmlns:ev="http://www.w3.org/2001/xml-events" xmlns:xlink="http://www.w3.org/1999/xlink"><defs /><polygon fill="black" points="412.04078357801035,58.675296757897286 410.73128154485,60.846464705002745 408.48600026783845,62.96157040202377 403.77071297407696,64.58284189382925 396.93703982690266,64.92381992291212 394.34685108438794,64.0290246334904 392.5270139791808,60.359629387953646 390.5217135400642,58.108757685838896 390.99549655715106,55.312039057299785 388.4799222784722,52.662475285533446 379.2247501811113,50.06336176499076 378.6649726989382,47.37930426399396 378.54176735398886,39.52805105475852 378.98136671126633,35.27944130690912 378.9003020800207,30.016959001377018 379.6772887445968,27.222428337658584 378.9166004677485,24.863588057689867 377.72713102293864,14.871588923842864 376.7445087803112,12.405389384848831 373.9946172779167,8.322056703284488 369.86472009392367,8.604392025283346 363.59116522230454,11.503465188153314 358.73533132075306,11.703293752008108 354.65234910181437,9.511186010114102 350.9876231416709,6.370356748328959 346.77170570510236,0.0 335.37691073167144,4.207335366828033 327.3361967356147,9.688750165371061 320.4175384895879,20.68417455300505 317.92246572875194,33.346693390121914 307.6180311678083,49.02266108383208 298.7695068709979,58.567515424335284 296.94300471057926,77.13212860962483 299.9003715273686,89.49139157775278 306.200776239816,101.74780511987262 311.6718456917044,113.93707000425172 308.35327609014996,122.35031424813928 302.53231313187183,130.5466300812734 297.74227522490105,145.47985683730258 305.7798842398167,161.24138089936298 308.85153333547635,176.52467395369865 298.4495848293592,180.51935195344674 284.54685822300337,182.10400431027756 272.5372799579086,185.53324438776076 251.95658104544864,199.7830666125168 241.30153862186853,210.82752311189324 233.4591503907817,218.40096446002212 221.31508001363315,227.61670827386058 208.9672400973215,238.89413042116144 193.20633885313097,246.91726313375239 179.2004394282709,245.5321904507481 167.42495605306516,238.53455749205887 157.493585842049,237.96672007622294 148.27540420600266,238.69999597958747 139.28500107229394,241.54153014147175 128.5204903677661,245.44041110884814 119.77028950342908,249.96689004975508 111.71515572255787,264.5473432672019 111.10707199051275,274.894581494102 101.68894589144968,286.4264689265601 89.07226292619822,283.8800990585705 76.49924214030828,280.9290630465799 66.31361185997986,279.0493392793851 47.823921593825,273.0010285829726 34.86710103051251,278.3227204243042 23.7909236074863,289.66460867425724 17.034546152984934,299.3888437131119 9.008757556408675,317.7129755690264 0.0,333.44171338650324 2.6796190590137066,348.6960209339983 18.120781166517524,351.94258964064306 27.607107509850575,348.3208383765483 37.16640654310185,343.88990935762376 47.7415190989549,337.4811497977272 60.64671061230984,337.14402543613073 62.13726578753779,351.45795708911385 57.58434933071285,368.4616283709289 54.43377239258141,379.3798301904526 48.66350271508973,387.5133226912012 32.34790252652064,405.8286823844502 25.060786559773327,416.73044677419693 19.425424933885576,427.79659727392664 17.565577287021675,442.59948033597664 23.094117541959136,453.9780386472146 34.599889823737534,463.4784104052935 44.180851047673244,463.20812404443757 55.425775989995714,466.85281092695175 67.58461532415693,469.7707991281793 78.35973894076963,470.03718301712286 89.88272943320732,470.8081744613173 105.49281250607166,472.4032363365162 118.61581671744307,482.4842483331678 120.36836588288023,494.3259705802999 117.60533377295644,509.8440608966141 116.11766805600443,525.0918844724781 113.41821036113738,535.6384700914247 119.40114917267475,542.4906631293139 132.87630588221057,544.6883713600214 147.91776104608078,543.7193744858153 157.35575372663925,549.2471632212786 164.19498191497843,559.9238389887205 168.81818048904785,567.8770780704388 176.82708278352067,579.4963414757203 185.3153288770546,590.3263638558207 187.8742834151542,601.9889207371897 188.47350861310542,607.695053278255 188.12730007472845,612.2464673024947 186.86253394044675,616.6980960238136 183.75079186896957,622.3182253513189 180.21362907770387,627.2350923235333 175.81163251232311,629.6703482480509 172.19782808552816,629.7366117161675 165.9804342359751,628.0607414245044 159.00952940902437,624.5532917663322 155.40461215058406,624.6188945864014 151.31171873568442,626.6426957029983 142.80494874675603,632.156499631395 140.24431701505026,635.9076021430128 136.3498236659885,637.4709135868793 133.32882468660128,635.0771172725267 130.34538826926743,630.2516005712939 127.35894493319095,629.1524089924281 124.86167069095484,631.1836443288125 124.14540164830706,634.5445340171647 124.2357095355572,640.0476635571033 127.26688798936995,643.1036321672503 133.10881026810904,643.5803681297245 138.40966601526148,642.2703370945223 145.1136211451345,648.6533090254409 150.28023553122935,649.0228071806957 151.45715169334616,650.6155114814026 151.32534928965762,655.0689703200204 149.1974016737312,655.663409013942 145.9310828284166,652.8847971225604 144.16878966954954,655.5085285709227 146.83129523525983,658.8013008331757 145.78768605610267,667.8029136389965 146.45431606483814,670.796908101765 146.09897069622724,674.521850173234 142.30154515823358,681.8065560633179 141.52893667072493,685.1293258929769 141.14892906074928,689.4142881846465 142.21591128806813,695.6908815982144 141.99395163188112,700.0041238826448 139.00811192741705,704.585615735492 139.50083829878557,714.31502237962 136.23920336736234,717.0830031355495 129.17352488831162,718.3780801859398 127.49981137249269,723.1861896059972 128.59090399895285,727.143438701482 130.0464372505061,728.2958942562814 131.91391436762046,726.4040903472104 139.73008617863505,720.5939996569036 145.7110305927047,719.379554708375 153.14425581565195,720.1237739989048 156.49406911580155,720.945815381397 163.8474955867418,728.8988503846015 169.18846200320587,730.4433783329141 176.63660380427646,731.9854156043327 180.37515605609764,734.462087869118 182.86907343384482,746.5433136116121 184.55727254556558,763.3487401976649 188.93299254505456,773.7769767124303 199.56744877283936,779.8195329724822 209.1186616994888,779.93557501183 218.80116403346577,778.8130973380398 233.02316487870192,778.1279211613987 250.39463307116387,783.5595736867402 259.807500698163,789.466935326217 271.74357381664635,799.3649055784415 280.5915368636854,806.8727692120029 289.2378590949216,816.4483837277398 296.05715871520465,823.3471691911744 311.56432347360425,835.2405980791445 328.29566226887516,838.9233792400172 338.3700681392435,838.216955600103 348.4800756011801,837.1153885472525 367.26514480315234,836.8488964535067 375.71070383320716,852.6354090322636 379.39989987481994,865.9044269323574 383.9659546790134,882.9854823774338 394.50251410620655,898.5732765367377 400.3494012847795,911.2142906126599 403.7624796094949,927.3475704997932 404.51672820037385,940.7479107456836 403.9982775670983,944.0399411256828 406.8946439561324,942.9726052573393 408.31069853748676,943.9593973986811 407.83178470607095,947.8206182927499 405.6750530466089,950.6302455076442 405.6426873554858,954.4391099067813 407.72895893547036,955.5838138180783 412.8692126915304,956.4741249215651 414.9583284004285,958.2304496322935 416.61977650827225,958.4432069228155 420.75071031856083,956.4273825816754 421.54472488062044,954.0081486521253 418.80460731086464,947.8325720948217 418.51593088990654,945.9421920601856 419.6186289585354,941.6986407904513 422.2208936148554,940.8161931586309 425.25888847660354,938.9864490499708 431.49879168748095,937.5022070010185 435.74520726466403,937.6194061278532 438.4115745350143,938.4258699719546 440.92676011755384,941.9112475881478 441.7053186801112,944.7423334062631 444.3030553075858,949.1691944015984 448.3035740950814,954.1496773964624 452.42974433495954,956.6250704549608 456.3246745861891,957.2913843829538 462.93810034007544,957.6088906830319 465.6340578778136,955.613020477069 468.8068263137113,950.553309688255 470.61810229145345,948.6134332429159 472.9433067483981,948.5050376445274 474.6394078493235,950.4270518088965 475.9092546391009,953.1590387816559 475.28120705071984,956.3932501510557 472.3634938051995,959.9640491610193 471.00438229447985,962.6056288329296 471.3260566621478,966.1770646981154 472.7653780879716,966.8305150007465 487.8975546544403,966.0100506189505 490.65697888854356,967.5799477593545 494.06207236426843,968.6546618657475 499.29846933154846,969.5914708671036 502.4785570912792,971.8654853737543 504.59951574720094,975.778226045634 506.9770191819846,983.0964088464291 507.5912402551389,987.208014191481 509.83744497051663,988.0777584764785 512.7283165226571,986.0536770179515 515.6081943034192,985.5134132606304 517.2919160957065,986.2207048500717 521.5869026469715,992.0102241099332 523.9999548839696,995.9467231872516 527.0934505722291,997.6199656278808 532.2603412468968,998.5288049539862 537.3567194476807,998.1201794402704 542.0114518603075,995.7425558904796 547.2462835015262,994.4794287561725 548.0118351978662,993.7928293409411 555.3217433648738,992.0841825019558 559.1980446172942,992.105793623897 565.0385423253002,993.2716089131188 568.851157812176,994.5510257590278 576.0047489653346,996.3112724511609 584.4715047711554,999.5069915905366 588.8666098302951,1000.0738069106594 592.1415450819155,998.5655114216769 593.0797109791757,997.1046554964951 592.5299944397063,994.9622603959457 590.1748331094948,992.2614170362963 586.8058426291292,990.0886623582377 582.4048496109806,989.014807988394 580.3180125949185,987.7263498045712 578.0185323118354,983.1881154219531 577.3555776388566,980.4155059625697 577.6698722949944,977.2097744644782 576.7476910462206,973.8654406978599 576.8042998892159,968.903930658112 578.6557517849803,965.145661607803 582.8457722747523,962.8109349613743 587.9935975962821,961.5180493386691 594.6667314460599,959.27732493189 600.3885338761125,958.5878505194853 601.9873980359444,958.7894793521679 606.614643949177,957.428313162902 615.9885887822849,955.8318354699259 619.4361436855581,955.9457038259721 623.9766509864714,954.815760363979 627.9714350942003,956.7288668410766 631.7965891806695,957.6524112411088 633.77615994767,959.5967179436924 636.1072343481507,965.9183327089518 637.2114929854756,971.1034182296502 638.8231753684161,973.2861066776416 641.4919329525777,974.8775841875896 644.6331923044112,977.6154451552994 647.3495383448694,978.9869966799739 652.8792928410859,984.3731286935679 659.5995912770429,1001.4610366420483 664.683956437789,1017.096227931344 664.8688102428242,1021.6374015517422 668.7700416661274,1024.0 678.8494327433184,1020.9037584219558 689.3927466739929,1017.0761328912631 698.2972719756665,1014.6168549091147 700.6636947550323,1009.6137495740077 700.6642923359556,998.5182788817696 702.1782570038038,994.6023414345317 702.2641169982902,990.6972735839507 701.0310773702594,987.5578814907669 701.0564399356267,985.3152725920445 702.8267499015496,983.6423906373977 707.5276472076866,981.0933791363587 709.654759242919,980.5918430064058 714.0295288360414,980.7185627494741 721.6918494784921,982.6221044721744 725.4110079634314,983.1312996496141 729.8674866079193,984.6359093675575 733.1814315151531,984.4515174972479 734.8005627652834,983.2900492688603 736.5149248104711,979.8025271334675 736.4515971746623,973.9199569731444 738.3184656970615,972.3176302263778 739.5840478138485,969.8708833778833 738.7821824030002,967.769089127072 733.008175142027,965.7148724323085 726.2706797070783,965.2873569737193 722.9461856157629,965.8762792910901 720.8542117816653,965.4636121241352 718.8878216241671,963.7582800352828 716.7159147471559,960.4833869842116 716.1566759053953,956.7964870245227 716.5757702173366,954.3559190741662 718.4603079198024,950.2731713638873 722.2896538424129,947.1995908498368 727.6633179476249,943.8801124074262 733.6636543188653,944.8697672763614 739.2331518185351,948.4229553317842 742.2459406668006,950.965954009235 744.0636877397565,953.4842100418659 748.3446799664395,963.6038010844088 751.5146094664998,967.9180153624638 752.4673100868272,970.834624800697 751.0555767550115,976.5026510914195 752.8106456969482,979.4379247088157 757.7339904059273,983.3858491416012 762.200036514611,989.5481162440501 765.2468796332122,994.9561650066461 767.9127019835961,1001.4535555722895 770.0850316897482,1011.3615191042834 772.2256248705853,1015.5934177572956 775.3627171353445,1017.2728068064986 785.0605974788393,1020.6987893191058 789.4166320406416,1020.6884884645108 790.2737267679985,1017.7033537314829 790.0875013590899,1015.2288933035933 786.2821196730991,1010.2292435670366 784.8666616367885,1005.3216330104115 785.5487557388985,998.6667256391733 786.9501781675841,995.8109592467994 788.8386976620709,993.6873999290731 791.3950381076088,992.3301388015348 798.8238509041231,991.207876701715 800.287133594363,990.0721214192233 801.1462436948692,987.6373773775911 801.0316093261324,984.4657077125175 799.8477888735025,982.7479037091545 797.5448634365393,981.346451711468 790.4371046552978,980.6536152430156 788.9309592723768,980.1696002566819 787.4192243808388,977.4780803601781 787.1834594096182,974.2054803063471 788.6495135874231,969.064180168167 788.7096509567789,967.2355298475161 783.8966708646469,964.0849000783649 780.6017113009535,964.1147007034609 778.2780572031485,967.361784284625 775.3246442006205,969.797932933187 770.1875835798811,969.9060588169261 767.2750225068676,968.0861399822188 763.2300260249498,957.0030197606163 761.6308912422273,950.9312242189361 761.3484938530822,948.1167548192298 762.3803126050578,943.6967538088352 752.9280978450616,938.8613914140863 744.2926794106555,933.5978382174661 742.30423405819,934.9765929181156 738.2777044026867,935.6903803663223 732.2477406175087,934.2469815757876 727.0515990498994,933.6171892938514 724.1581400278081,934.1930233594943 720.5637501512699,935.9111425215966 716.1581736561232,939.085314742798 710.7742998903193,939.2909617459009 703.4888755239745,936.5452559263186 702.1405600430219,936.5664051244922 694.7303700007809,938.9810273133719 690.6799794633782,938.6255793059638 685.9285162699703,934.5476505890379 677.2635798487707,931.8225841225651 673.036972102501,932.8726616015498 670.9975865042783,932.8728717268705 663.7340855460512,928.4856134925233 660.8629580003089,929.7543868683174 659.478903594377,929.6516662011998 653.4729476052877,931.8232631463911 650.2442294517821,932.4184699189483 647.9299986894654,931.9176009273822 647.202965115239,927.8313043775806 648.2945904444548,924.4683437187011 650.6126626284713,920.1461733495039 652.9713153026524,919.5572425999621 658.141797090612,920.1489448371975 659.9570536115042,916.3489275883055 659.4518921044356,915.4724762968752 653.3331078580824,913.8714916858693 648.6581886535449,911.7413442458295 646.8924430914783,907.281932890105 645.6395135316036,901.8649104625835 646.385324200087,898.5123250191455 648.4290043692492,895.5160264488197 650.8157973539852,889.6159787311079 655.5183583332042,886.6749438042337 657.7220915421535,884.5960095037374 660.4695141032748,880.2714722110559 670.1400593359348,875.147600501211 679.6754130785203,867.9422960167112 687.8566420862667,858.746701466878 687.890101200564,852.110377422043 685.1859378663482,841.512059098464 684.6715800122978,832.8310073613374 687.7839353927625,822.2871442635264 693.9942326980552,814.8727560275001 703.2989705283684,810.56768551619 717.232338044031,799.7665402643415 723.8060404755236,791.4910870638028 728.925093153906,779.5612657590189 729.8986153203559,767.9047447025341 730.0312519968106,755.891337814973 734.9510897780168,747.6983730244374 745.9670207326043,743.7019465275835 753.3928383727272,735.7846992806955 759.1908512646454,727.9606805539804 760.5100966270987,713.9245812672134 751.6708417971256,713.5029898737873 733.5520633932359,703.0305809717518 725.7255958236476,697.3053374817794 715.0872652452992,693.3952063892573 705.0361760598818,685.314661646305 693.7684840502341,656.5717655341132 690.2081287289396,645.6026139276453 687.1147740305773,628.3862318683317 683.7473035715816,613.6763978830901 672.6011564188088,607.7123339087116 660.9529757769524,607.5894043423689 651.487655642793,616.0221944227978 647.1358141019398,626.6392004065726 644.415997561064,634.7862116908818 644.2455481889733,645.7442796738794 634.1738203727323,659.3724457387383 630.5424425103076,669.2864942051149 626.1925497573703,673.8286190675913 620.4749078214148,672.1771392351359 611.7713479189567,662.0844460864823 609.4139767328652,656.5324465567301 609.4136991305751,641.6250378795769 610.3685583348688,626.7106682362772 613.1666635441774,613.2951235889138 616.0011954965048,591.1655893827335 618.863644295409,583.5347182315562 621.6280521873033,567.2281691879481 621.9799285236722,551.862267831129 617.8403080108516,545.0554131732752 607.7425859550588,542.7520063977399 596.4893356432995,534.6992333493988 588.5678181924095,519.8244596135247 590.1040532495049,511.0279695071072 600.9427788771112,490.92992227568436 608.4413005013088,477.64574473807613 617.3305978694832,459.71814434057876 621.8581480682751,444.9429156719882 628.1013594736116,429.361138715474 636.1823276948538,407.369507130858 636.4649013464747,393.9781671227572 634.0954920779643,382.331357653808 628.4279864809783,373.68861142885874 626.7170860420812,365.9081348853614 631.6453208079123,358.1543546261215 639.4753641769165,350.23116805134305 642.171349774538,339.71419062860616 638.9775394337167,327.8704253901766 633.7619394759123,316.5842888642602 625.1619081566894,304.65672282888556 614.699067749912,296.15321664841167 603.8989178742605,281.855918720198 595.5033984242076,266.18786802557076 590.7583854884002,249.05788348078624 585.1802746288396,231.96543414800658 578.8004979492118,214.93116396166306 572.0336774136639,205.78367184509386 561.396189600106,201.0041611392952 545.5932684256563,199.8432217529438 532.1831915509827,197.29015469895614 519.5649439740494,194.29007209243116 504.36854096133146,189.36130699314572 485.8450392670349,184.2108674195331 474.13356237770967,189.44506725134443 456.5584915454599,193.78404205119045 446.8318006433322,190.62115441462367 443.69573143006073,179.610178338982 446.4784927824307,163.70394547330022 449.91809942917706,151.89730735023875 450.21408812377405,142.75941243967225 446.21918301011567,131.39625196276575 441.7067360480099,111.33570292016805 440.6574628873316,98.83642043615214 437.43773703592706,95.63049047184211 435.6290277469235,92.14713185965957 435.8792196998466,88.11851936158848 435.59354849111395,83.67226990740016 434.06124641739444,78.1088378518009 430.0410210284202,71.98759580852754 425.3983244971633,66.70010192004099 419.3418259360389,62.66985957395832 412.04078357801035,58.675296757897286" /><circle cx="309.1673974977212" cy="586.1712406335624" fill="rgb(100%,100%,100%)" r="16" stroke="grey" stroke-width="8" /></svg>