<?xml version="1.0" encoding="utf-8" ?>
<svg baseProfile="full" height="1024" version="1.1" width="1024" xmlns="http://www.w3.org/2000/svg" xmlns:ev="http://www.w3.org/2001/xml-events" xmlns:xlink="http://www.w3.org/1999/xlink"><defs /><polygon fill="black" points="838.084766670572,312.2800473163894 842.7669533038438,309.1643866696902 841.3533920720735,306.3430487444099 837.6240516962114,304.8747330199217 833.9686857134105,301.332318421546 829.1791261649674,301.81121581542106 826.6635744927986,299.96369797797786 825.0498913176195,300.9030905601379 821.9164669476861,299.1241176756074 818.7987698406864,299.29810358668 816.0900776900162,298.88296255789135 813.2641270395201,301.6414493046726 812.5741381506382,303.92725558163875 814.4669106291342,304.16375830447214 816.0055709547486,302.2176229692476 817.241624771436,301.9294402727079 819.1706335458703,302.57688063993476 821.3005118748993,305.1746988162514 821.1834276500314,309.8588375493607 820.1795096291371,310.8208883274052 818.115595878216,311.42279233927104 816.8216803878237,309.7611842267539 814.2226245252353,308.47725886070646 811.6727005740426,308.52340816922106 809.0215203834348,305.6906284052967 805.3805107522019,305.32750406887703 805.9952536668744,300.67548881394646 803.7679737892386,299.14668651193654 803.1415945409819,297.1006766388257 804.7271342284004,294.98466745843814 805.4004336239857,293.0116268876469 807.1181290531271,293.1386364291925 811.0270596460115,290.71660987144867 807.8971521520601,288.50514490610146 804.7890520592089,287.1787980300236 802.2892761054401,289.289365933887 801.3706826610779,288.30477297938444 799.9718351521087,288.51443643768357 795.2643961671,287.473371347751 795.050262042068,285.23148246115295 794.0868841474485,283.2188094898696 792.5725131851827,283.21129394715433 792.0702539672621,279.30148506938826 789.9185305351027,278.6361566058604 788.0409705769547,279.4774653131809 788.9486233485989,278.3371673849292 788.3571061658379,276.7646245842408 789.7594169559741,277.4794773476791 791.4133740301104,277.2454654819255 792.5242061739359,276.05283994989463 789.4369710335649,272.5098268827685 790.2684862768288,272.466980317128 791.6317355511022,269.7108803981564 789.8089958107629,265.73875582303026 787.6594513801285,264.5499301314172 785.7681557093085,265.2403752256396 782.2979172106495,264.814730383129 782.1341018546451,263.99145978906597 784.2175398896368,262.6238570165767 782.6470945097298,260.6013804330031 780.425260785198,259.43434802750176 780.4475968062785,258.17617862924124 777.9394200372443,257.48448576689987 780.208015100455,256.96071815099515 781.1414592853787,256.16123907571887 780.0620623946558,255.23091491089622 774.9352803363847,253.3177720337867 773.6482370738808,253.46587191115373 772.6620021567359,255.02129527787383 769.894132868442,254.6977418852481 768.5223993361482,253.81050133096642 768.5087316129686,251.47467364840327 770.4403586792997,250.1483342087912 770.3147207655727,248.35834972396185 768.6451095674865,248.12891586234093 767.6973989826575,247.05609401201104 766.8227712289454,248.54744725496323 767.3151811329968,251.77249604315466 765.8402174711963,252.3971443719895 766.0216254627355,250.77478200169594 764.2817745060828,248.52279252161566 763.4496050549074,248.51349586210824 760.9328196767351,246.51445436734866 761.2673917516148,244.9498715443275 759.9450816833574,244.0723285087189 761.0337085784435,241.27850903644583 759.4692620657755,239.83919730662376 759.6242683376753,238.50888148416436 758.2341389937577,235.77804506713846 759.2512173942021,232.21957019459182 758.5929317910045,222.7648314489752 758.8306227306865,217.93064631191214 755.6678548751254,216.98743660200705 754.8935244736911,216.07104166127624 755.5688689118884,214.2387153972395 756.7410434562112,213.7615317848731 754.7986552513602,212.9420426060692 755.9980382680749,211.38371945658628 757.556201153837,208.15109301323196 757.4216975380657,206.3924793285264 758.733855887647,204.35079211434345 757.3167330486203,202.53703005806267 755.3177116004766,201.17664808169638 754.707893042845,199.7840022568323 751.5112738877255,197.7344230543074 748.9141197993571,198.0229558268502 749.0920553083898,201.23153813589704 746.520669497587,201.8608484313918 745.6753268446813,203.26319686835734 744.6982799097062,203.10481208147905 742.9533910696944,207.58737723789693 740.8980601007972,210.2955111863953 738.342814153608,210.74222504803765 735.4461350017008,210.5607905179769 736.261374608555,209.17972491193234 734.8079664070608,208.46535553808008 731.9737279828975,209.92370032182885 730.0664875323046,209.4369166186135 729.9008995108661,208.47302257849594 727.4447410169557,208.62660587970038 727.3202381618977,209.7976206567795 725.0770764022709,208.39873420991023 720.6221494260348,210.27247910663607 719.9031675125522,211.84228482612355 718.4517487123743,212.80754056431067 718.6781126099384,213.7627916234809 717.5355695860203,215.5493445099329 718.3198293895332,216.51517165485564 718.7695005325774,219.56897303823393 719.446292878445,220.7289856515613 717.6356060660092,220.6210127515419 716.7869908084933,219.40606004034794 716.9746571682696,216.85654940822496 716.3852618149997,215.40365993878083 713.3838428303816,215.7885650636823 712.94692777488,217.25291979247027 711.3427661705798,218.7046166278692 711.2074285413961,221.48517955286593 711.7864650847418,222.1829940596249 711.0760798439153,224.55736042447018 707.8589903052988,224.7732781988983 706.6361508403504,226.00878487008583 706.3058451353734,228.588878756005 703.7004216784107,228.97867755817242 699.4572782008383,231.46117345168363 696.4718378816381,231.48369311438887 695.409076200751,232.43310509527475 693.3611119850412,230.56777012862938 692.1898440625537,232.49783381718908 691.0221127753906,240.88107967451936 691.7128898956231,245.996755066182 694.7463980662864,249.48932357394494 699.3982004076164,253.91552831567526 703.5954172738249,258.3400677393993 704.3004340661182,260.1924496763522 702.6645845318974,260.8892887816611 681.4663278862465,255.3186152763783 674.7042691685115,253.22550610160715 672.3769782876323,253.92114220547398 670.5077686119256,256.25119557750554 670.0465158135473,260.4371809952132 667.9525475873904,265.5593506643022 665.6199129965435,268.11960048041124 657.6868016197634,268.357068488408 653.8442910951168,271.0678180948232 646.2474985330197,273.65722369284606 640.6725236841825,273.74267253704704 640.9320754771456,265.1584174447946 640.3526970157008,261.2911941878757 637.217642838636,252.6432097068348 634.37322041247,250.26475776184623 631.6633566882806,247.43134875842327 632.891587157126,241.3341050183161 631.4128464513562,234.18466467170435 630.2382865854903,225.24987796810058 629.2315735026684,214.6748054398862 631.3401707938484,212.89387746519708 635.1302980238528,208.4236459445808 635.5968780254074,205.305372855452 634.2494939040672,201.12554628721205 628.2734733751938,187.12242079478244 625.6745454961514,180.4645622841099 626.5361405530449,159.1221299798301 632.4670037940509,128.17495445698637 635.2037166969578,112.02335433752489 635.204455077019,90.86162502963066 634.062612278156,89.0436497559549 631.0998659420386,87.68508643423036 629.2757916837738,87.91015545992866 627.4521701141729,89.73678774804205 625.863000275846,93.14881478662767 623.8080911838723,95.19988583715053 618.7960750850568,97.71250808978778 614.9169151393464,97.71504789100754 609.8983875140776,95.89944625954172 606.9269901037526,92.48866731793464 600.3194612927592,89.54832930919542 595.9840439548718,86.59577538358326 593.477967939921,85.91565898728777 590.5125986800069,85.92393676648283 586.3968801395238,88.5542766521121 574.5948747399478,97.48717180376366 570.6094781275339,101.66502074992434 568.6131277757551,105.86854825997568 568.8458688929863,115.65710223055476 567.4721397011981,119.30028237216322 563.6013860580541,122.25774548235881 557.8759853413358,125.455798750795 552.6504925313819,126.60028173441924 549.5577533521043,129.23739136143047 545.783648745551,128.70377845500252 545.1829918591635,125.43046642275306 543.6971329325944,122.89275659079192 542.486869037952,123.49461420630439 540.9630583230489,125.72817836518334 536.7117225306043,128.4506955476984 534.1095050012103,128.13330965347916 533.7132885013771,129.71661728158915 533.0320891319898,136.54057937016637 532.5682819434007,153.15322153938212 530.7464190271262,154.29428579051864 526.638425114288,154.76217349644514 522.7587100032792,154.77129549838105 516.5982190055901,151.82324281829187 512.0336552455993,150.69536238006253 508.61380464439446,150.9300706727164 506.7830462927545,152.29245085238279 506.5556396129305,158.21457147467027 504.5074677972051,162.3166909304107 501.54034487777363,163.68341122553375 499.03109773386535,163.68740509183328 494.9238469068141,161.8788471280061 491.2640868279022,157.5384445251193 489.08426388002687,148.43672862188464 487.80972758579355,141.75028831739837 486.57161719355963,137.14665796958138 484.8378585151881,127.91934505449524 484.7471915284761,120.92588392186451 484.1373615760265,117.79583812144335 483.3251831322304,110.80131112561048 483.2517394549869,105.13571871394163 482.91951207458794,99.92659496278623 484.0314336177822,91.56078883235273 485.0388488734233,87.96446071030277 486.01745041109876,80.34514188125536 485.95557704132335,75.5778076743178 485.2867183527114,73.31049016872214 485.9051475830897,66.27915877602481 486.8270562858746,58.993885258298064 484.7297404517158,58.547163109278586 479.0019654238939,61.51982735108663 477.9338180928362,59.88265891258891 476.75507105927255,55.85373872417392 476.19961108437593,52.207360287828465 474.21192806770136,50.81645951836049 469.74870190873327,49.423713977926354 463.6160391551602,43.88849310210696 461.02990455622,43.2994910890319 457.32476160423687,44.92536346148631 455.5201861014749,45.01111804373056 452.4006987550838,43.92371772304318 448.80470206736635,41.47526285590459 446.4529551405121,41.62529191540102 444.71577280773806,43.12674595496503 442.39885245542615,40.70084258105521 438.3566916929448,42.895892878588256 436.7570746602996,44.7184407224637 433.1152847877673,46.54631159588553 430.60061836242073,46.779027061648094 427.4073896425312,46.32771343479385 425.3630413896298,43.596125783902494 424.6011332873033,37.30657715309667 423.51904207707184,34.364767914660206 421.1427974493514,31.858746180379285 418.96616996481384,31.594881720960075 416.9301727835,32.80832756645077 413.61701619270167,33.222963295160184 410.92175728504475,32.87450815697571 406.67324787931267,31.558851148018675 397.20600992560975,29.41622613096638 393.1768032248604,28.764243487371232 385.7618124396366,28.334756144752873 381.4122757200273,26.23620724013108 377.6544050824528,23.697852578351103 374.95835052096646,20.12005448953289 371.9598327873019,18.920954782278613 368.22348097056687,13.244327803193983 364.6574006828475,5.64372188473385 362.9657889824813,2.7771127535349933 360.63974018203214,2.5251382637493407 357.06756256617035,4.291325445285565 356.0330539789958,3.3981108090466705 355.61400120544516,1.5414749635700673 356.4237682107552,0.5756142641496353 352.7004384634943,0.0 350.8359873370488,1.8227956914128072 349.09204592039487,2.800354515031586 347.64042364849365,5.242923343497978 341.9702022577578,5.524863304916721 339.6113303604864,6.017893588485663 336.27373175486116,5.205489240462384 332.07320217862684,5.4193971329139 326.80882044561315,4.821026775844075 324.9472951794704,6.141033634626183 322.21320362176164,9.976973525492895 319.68852615752974,11.828608638985884 319.0153385900765,13.055669248477216 315.50774810541856,13.450813724401996 312.0423192401262,14.7906561353891 307.50087719454496,12.071098926015338 309.2740602580965,14.947393635900312 308.49068068420297,17.300733949631535 310.1627122998761,15.41811548736382 311.1483286340231,15.588168274117038 309.52929673900604,16.834752300066384 309.98036794371916,17.896808622352978 310.7722021090322,16.225614549664215 312.32937503043945,15.844329050222427 312.43367932257524,16.889854247445555 310.37702342141023,17.97000871778141 310.4314465694911,20.846784732198216 311.1563372647977,21.895026478345017 311.0625292441286,24.148674702128005 308.7296543248408,26.752992372884364 305.3639685934222,28.786783028048944 301.8896941316264,31.889525706082736 297.61813776053253,35.29112493403693 297.3450878825833,37.83081394035446 294.7071067549557,40.399716834610444 291.1800708794476,44.940385826620286 290.8810457666943,46.13931703659898 289.09172876282264,47.650879021444666 290.0350737001222,51.60255440705123 291.1805750347401,52.38525447019515 293.47521658072725,52.34652485699826 295.18143046282785,54.15608311128642 293.7071592607488,56.33821959240106 290.6842416068674,56.576024455866445 289.44359746396947,57.19545296976196 289.22058154262334,59.62253665668709 289.8265703546469,61.09414426936053 291.0414543239076,61.61298607164315 294.4057884818339,61.139209331978805 296.56534186452643,61.7244872511003 297.7084209232727,61.358824655056196 298.83862502754323,64.12073945993916 300.092574599786,65.33433577947164 304.1844290115903,64.59886687494861 304.4743592388276,65.88426762828135 303.2476160233683,67.62851566017844 301.9739053811719,68.22757127723571 301.7425186099372,66.75135157236662 299.21142594582903,67.18626622723173 299.6585390505754,68.11558160001084 296.4690212092461,69.6653153751214 295.0971987939988,67.82038404795685 292.7439468684268,67.10467842426499 291.1378990233787,68.67387486050131 292.16439006137045,69.48668629527276 294.1731175182449,69.42284192091688 293.91105596672315,72.10039619796521 291.25288336395084,73.06021436485901 291.7850896920644,71.77508206541302 290.60410616863004,71.53966006229666 288.8165756473048,69.78836352123062 288.21183046354486,70.12912874245876 289.56476365954677,73.67474011892944 288.23419074597587,74.41505129398354 288.2403497710915,72.44374106654061 287.004877365448,68.54513681296623 289.52353489668894,66.14966058017251 287.31289878559585,65.60141651859965 287.17085547325524,66.42863721458059 284.928035569492,67.26089625862585 285.78666680511947,68.51847603144859 285.06175406877395,68.99091494378013 285.8335187925559,70.61152125610693 284.60760083369587,73.38425723723469 283.25176514641925,74.5467055430986 283.7991050080439,76.20132612355803 282.1605238433276,74.94291911202822 281.8659034287346,76.69643403747534 279.4901130071817,79.86607236301757 277.4879672401434,79.70839304939409 275.42377480814577,81.17375459986931 274.3694897402222,82.866275744821 272.0477540043208,83.19682496695043 270.60520119577814,83.98008979016151 272.2917311435282,86.47487017509411 271.6668347030767,87.65954089954118 270.3853173099521,86.67792250322805 267.96013804491827,86.7883664435999 268.07921054383513,88.28680912456366 267.33560911411377,89.72551115112924 264.0111060872801,90.0370267127015 262.4121463093056,93.93132870229385 262.5480540471033,96.61698559769479 265.57860280606866,97.92616882297807 266.14141097767657,99.89310580003405 264.7447996234746,103.67296782566723 263.07740881536944,104.27666020320248 262.4725973793971,102.89613020341403 260.0626561266423,104.26404240368015 260.162329648527,105.90333720456238 254.95195552189244,109.08654201587092 256.2775009871736,109.4505456049759 256.5374097082664,110.78582158355755 250.45987322651516,116.05489821745334 248.11494819387931,117.77344888818857 244.81950657706327,118.95931440497554 241.80300455922833,119.00641731726273 239.54763583062123,117.11209330571319 237.12875112217338,113.70943381182519 235.97390943722158,114.67130112501468 233.63507935323187,114.38720524389953 232.29445167231918,116.06219566952666 230.66185397944548,113.7488295200917 230.00473637240873,109.78052881192559 226.92734446642484,107.11228453014269 225.92151774764565,104.51788888759336 226.79100616978388,99.33587307037749 227.9588534277771,96.74379385533177 226.98191363948877,94.01885317689312 225.05975136795195,94.66708305384304 219.3195807405944,93.36683275808446 218.9393195074201,91.36116496507736 216.9974453400213,91.15287615684849 217.58072623896263,87.28154009062735 216.1841942231888,86.06933797890235 216.55628171682167,84.10405510513442 217.53051648547063,83.12621201513582 215.8512734971841,81.96950472026822 215.81136061836804,80.41020946589924 213.98514110393663,79.68752683164473 214.5851400304842,78.94596367025133 211.464895022134,77.73632297259337 210.73182320483932,80.8438862485541 209.95838108943485,82.35309827228059 208.4297086485561,82.80378602383723 206.52310072833467,82.21222547167804 205.26662030852162,84.84434254135465 204.25464874155267,85.02578491891188 202.60119524103447,83.47810144141238 200.09408710347924,83.58898370669715 196.2592772149303,81.18995738886429 193.43941388229794,78.07303109794975 193.99501022795303,76.16547166783118 193.65018972216419,74.56036549329974 194.3560940500464,73.27334604289467 194.38272458554627,71.20027495182012 193.51343047022615,69.80197126933979 192.83042121342663,66.16723261222819 194.07684862213083,64.45188128046425 192.7920388957665,62.970031464067574 189.39480850944912,62.466569604222855 187.15238571982644,63.34755461471161 184.05032057406248,63.827393389785925 181.62825852833404,63.20279773956565 181.5776958838646,62.50033539073877 184.53841017544167,59.605743981600654 185.2565671649605,56.80049176195428 181.94774422503627,53.50184750208928 180.14991262528872,52.585940412351306 178.6153732085464,50.77371809294209 177.7328593702224,50.805103683826474 172.65416700317056,54.0139653297731 169.6436909202232,53.52650142449488 170.0209152308023,54.326621117454806 171.7369963935514,54.4780021491016 171.3436816355889,55.46959365267924 169.48708923894273,56.49687092352997 167.2296951111204,55.336390721508565 164.34888830710875,55.511333792652295 162.92381965566835,54.23154111681265 161.7572612962887,55.19066148051638 159.39201052391581,55.984365974319644 157.0818919670915,55.5066720324927 158.2578785755847,53.76367190438225 157.1963246065769,53.312792314788794 155.7545607949511,54.95999675793644 154.7021418059798,53.50387857760836 152.91034010713574,53.876692156487366 148.11904483234972,53.894487554335456 147.89889217276,55.86827866716976 148.55633895988154,56.60520866137574 147.45973170142776,59.12319856695103 147.26222111625304,63.00800873888238 148.65511347611076,63.94713946847048 149.71747053668886,63.67414644992891 150.31531362219528,65.30753490794473 154.28142132009688,65.99476850685835 152.86516949052853,69.00871776846293 148.15417919404794,72.26484139836953 146.78082777701928,71.98947827202755 144.97188795596475,74.48464555806481 143.42601697145918,75.06800360140858 142.82989630621094,76.15048390944082 145.0766359562243,76.40771134511226 144.2892362724417,77.7528532115482 143.55663587025197,76.60538109655022 142.47429242889166,77.76652618270043 143.4536972805264,78.1976020276727 141.97500481353606,79.51186046613486 137.82578192197667,79.59217530894114 136.26261981351254,81.49068172760622 137.33615686247472,83.74341507670681 137.00594124444774,84.93470775996002 135.40283387363587,83.4537825296743 135.08941372682048,84.28292856570397 132.43291471186015,83.84037248820471 131.44527245933025,85.29199535233352 129.70536490147472,84.91932260007093 129.87078697622883,81.66767504487802 130.438272564796,80.73398562504156 128.95606004611386,80.76187888616266 128.26054371513396,82.95476922618764 126.6467022671796,82.14834273876806 127.11781615628918,84.16603993890828 125.42042981391059,85.61298314090857 122.38290348448226,85.63051125697973 119.37316058186397,84.22594262432222 119.57415517967503,85.78332669497354 118.55267802198973,87.94877415697749 117.18491173538227,88.9491269095812 115.57192321221835,91.6058388649642 116.60000762911672,92.7915662503217 118.80996664562872,92.5026053224741 120.72501482738924,90.43861996653357 122.78451190853356,90.30242520411798 123.8173446240601,90.89437984755318 123.81294731202927,93.1077632212864 121.16437929295061,97.52652520479614 119.24626184876999,103.71775267254418 119.15301725811854,109.53599466044898 116.591324360446,112.79493773921081 112.29039077716845,114.75667700006557 109.62945687152664,115.55341889423971 108.10686540173002,116.54772206905034 107.42510368428515,118.13627834195415 107.45040806185604,120.29722501617698 110.29837674412505,121.66476541263182 112.37334106024498,121.83052733289401 117.24250665157257,121.57289192546011 121.45280830254904,122.05722730656225 129.27245193650558,120.52523152188314 131.96945992319178,122.78749552507827 131.81311398671255,125.02350141373017 130.5796120689471,128.88142448780798 130.884121959791,130.66933103562462 132.65455559144678,134.4033101218822 138.72043575279045,142.43252379848252 138.9920715566485,144.8040906697131 137.94724280679185,146.58709296028144 134.48564364985813,149.23446134011624 132.0774242260068,149.23421101514316 127.90201488573928,148.16631425412993 126.98932699061571,150.8330482812304 126.05597646029534,155.1300699334929 124.68178597736109,158.39851802422697 122.71592108770254,161.35883864650611 118.33083886012675,165.79011225212992 116.62630143600813,175.4601831131905 115.87464116732059,177.09123035393645 113.04739636681536,179.3376871237399 109.42889443403686,180.8408498110647 102.86528455241032,184.9432237324679 101.59906790096886,186.85885568765434 101.40528828925179,188.52240288302517 102.91805111646774,189.4603651065438 105.91369435698101,190.3809877882535 113.18618290969411,191.1838081927782 118.20325584696732,188.65909654260702 121.35332595886138,189.75742553102884 124.67189506705265,192.03331167935517 124.67450214413824,193.2519087084131 123.1686592147373,195.50375239619268 123.46238619828536,197.17200823282917 127.6887855042621,201.72342912324314 130.40146078981067,209.44073838804275 130.39802230748842,213.52891041613623 129.04187881371425,218.3542768648424 129.50037127514705,221.07777481322137 131.30737079805115,223.50157950788252 131.75651688637683,226.22518490301013 130.69998254735384,228.03951919202825 126.93649474370216,227.41978121690966 125.87333094872281,227.8749382676731 125.88297557358817,230.2912446755572 129.65333441670856,234.0824695330541 132.5173335223277,236.51466826746548 135.83874073713315,238.18632170083413 139.1462215795835,240.46221089654068 140.99863576307067,243.54161522154322 142.31982490234034,250.4524173222345 142.01131468669132,255.28890592770824 140.3584132511911,258.0060467749439 136.58852802866838,259.6622925926325 131.45840542426185,259.6419562211046 125.43238519728106,258.56445624498815 120.44912571901136,256.27682160357153 115.25981297704618,251.1949418713317 113.88484174182581,250.8464947937548 110.69046879257513,247.81388326183423 107.7846282656714,243.39780813172945 103.8789438721849,240.44374878254575 98.075562718528,239.3240715003883 93.59003250633715,237.87648136574114 87.2940356508921,235.2911432628133 79.07274153903687,233.1732692025148 75.06164377964882,233.2197442432755 71.83534753372109,234.4652840939492 69.32589872092396,237.92620716551664 69.08380861142989,241.51193101479453 70.07036775152555,246.986880430645 70.75673972379067,253.65526608866492 70.83536066398285,257.82054707448265 70.60875501067049,262.747081128035 71.35328033961108,273.63305423122824 71.33187834468286,280.4996959615047 71.80077662671208,283.3533201094717 71.55940865731385,286.1943227883645 70.5537217719151,287.9974033214187 68.77696379600752,289.80157342043583 63.259767596443005,290.5995244999443 60.03340277510769,291.69387243284007 56.73307892511826,291.8620626623631 53.63197496718729,292.642435832763 51.867506737593466,293.69123950124913 49.683975136632604,296.41391413140786 47.67240820439209,300.03292528989107 42.77755879752105,311.5954607667802 41.02716115229908,314.9093755269811 38.140224420407975,319.2726121209366 35.21320412162001,322.5973407739202 33.580844893558705,323.9465572619256 30.823090422512582,327.1182805580145 29.603427905289724,327.86908657761614 25.681145972291773,331.4966949025455 22.568664675450247,333.7896756377686 20.969907267979508,336.041963482204 18.799070741338724,339.93334976670144 16.175722964216817,343.40803845612834 11.950037690694547,351.52267945816106 10.38346461261389,354.97489679722014 9.253475401567222,359.30745365712824 8.253881319943304,361.70388590861535 3.10699322711188,366.5558056102258 0.662335527424194,372.3951783958596 0.0,377.46969238152485 1.5354488003204902,379.53538606105076 4.311472030201201,381.4282033873933 6.033610422602033,378.2372587378218 7.917245325239453,379.37202020665643 11.822074578458672,379.71051857317184 14.85866509717758,381.42062359814497 17.61633927644678,388.9117522999826 27.345127151257238,401.6223248660109 31.420056794750582,405.1301117629007 36.069265786732196,404.71513328078765 38.55015710258372,407.6187108408236 38.24220765558105,412.6788667609611 37.47742042780126,417.77287972901365 40.8164431767049,419.02362663678093 43.753037433811265,421.78135272855957 45.21073821497398,425.6131364539714 45.132199073711746,428.5850062741313 45.68604470925202,431.7006611955994 49.1352992813484,431.91373941073925 51.99894852176325,432.5865600978036 52.729895350714244,437.03073439382786 52.436689914373964,442.5438062615392 49.67983196179341,445.8796605575004 50.685022849992386,449.2921821317028 51.903608357347665,455.3633700812509 53.44589256606415,459.5977467065012 56.10531651241208,461.0462224386099 60.46260405934944,462.4986118393473 69.09008858406487,463.12325048477135 72.95680299593081,462.6959339474329 70.2165374431765,466.65670400512727 68.94515833936192,469.0694796059246 70.22901120597157,472.015257528907 80.86023906433924,476.35560935064507 85.12035517402778,479.10810246407993 89.39453989458005,481.245869334849 90.3312317994644,482.34165612713673 91.37771213884324,485.6260027282028 94.90247733748511,487.2359872274816 96.18909448423693,488.5724615023869 98.74661588882914,494.33374182826964 101.58171980948492,498.745590373176 108.99945185720067,499.3050896127067 112.32116708176997,500.7766402414272 120.11258452252663,499.38643505832357 125.86716588165923,497.707392390394 131.51937570105457,495.1024599122272 133.94613982785506,493.0482108355262 139.59971285455237,491.5705768860949 143.35603028323033,491.89879575102793 146.64670528333474,494.3103381587733 150.8350967018744,496.8701107006323 155.92373646249428,498.99477955487794 163.88452219642835,500.8354544175018 167.64034800299692,499.52293997299665 172.15007204325323,496.7172298542835 173.81500692673526,498.08015950156164 176.35063245682176,501.0705977476979 178.7250696886621,503.32082264152467 182.18187941700924,504.0843713490417 188.2006777370601,504.1247659587837 193.91032568032446,502.2340318263927 199.46246530396076,504.0504139150542 224.14200206626901,496.91428742122065 226.85886730871533,495.4312336108929 227.7467955868352,495.74083106741625 230.14803565493858,498.4330168733414 232.54360219261966,498.89890571461495 239.46139492092928,499.38833538608293 250.8508801629668,505.4089118233018 254.44745772011075,507.8130330548105 258.63329350778747,515.8630939279652 259.7625644765427,520.2031592971423 260.28462672057117,523.7928479843762 260.0081995406635,529.6211871053823 258.64127640117636,531.6037337226178 255.58432419174883,542.7855861124613 254.1046689597415,544.1835889097671 250.43389091795888,544.0171067774977 248.01049858132484,544.5802211970603 245.20673823745364,547.4445654976619 241.76925152266992,549.8946953233152 240.8659820429623,554.1603898655444 242.0114114001256,558.880481556777 243.74555934222712,562.8122888964633 250.97876833216142,568.1149815768138 249.29296545201188,571.6845044899092 242.15672178860774,583.5612003632571 241.09688287997622,585.943540847479 242.75464436279353,586.8401201095555 247.25149472346612,587.7622987250438 252.96331612291056,587.4927462578561 252.66638804351518,589.1289926541771 250.8538796841271,591.348616133949 250.08608962499432,593.4332163647857 252.31842334642985,598.9603697273199 254.2319367358667,605.0850596834259 253.31872957360375,607.7573052377675 251.64698549862723,609.9856376170293 248.61498068684068,613.2355015832477 245.5840826782787,615.6104047754463 241.50844613852678,619.2998220328038 240.72566359365433,623.462482140977 238.72612921685985,629.8557138916598 237.3169814509608,635.2054672239497 232.38282864076467,641.8787167982688 228.12938454842455,645.8512747821363 225.51950963902837,652.2621273496633 219.89306155326045,658.7819959035097 217.3397078017775,658.7630878468517 214.04619028722547,656.5032529755481 212.10084592129036,657.0915482522005 211.0096718677622,662.0024871133778 210.08108836122238,664.2216686142697 207.05745814277074,665.7003094056138 200.11010222749263,672.4959098841723 194.2154539505114,674.6934030050504 192.12016161785294,673.9319341820501 189.89637381769919,672.4272706886288 183.7280278267482,669.5554747009519 177.14897971838448,665.4802273059663 173.2808088317659,660.839022696592 167.84732376892293,663.3326031419533 165.301085344774,663.9172660394154 161.82280252164344,665.6611903634443 161.51601783628448,667.3078373613756 163.31422679851036,669.554605998086 166.32571294848623,671.4042892060444 166.59803929912437,673.0050525998763 163.71655526730726,677.009909037234 167.54939490020354,686.4114999316089 166.77297346842704,690.4227828637431 163.458195973266,694.7165524349416 159.83414366456572,698.8628958875597 157.40937569971513,701.2218673715436 153.32867376439089,707.0659911021309 148.99497062593514,708.9629880074485 147.4455236145892,711.1267264841202 146.83228742554704,718.6772424715975 145.3293509198344,719.0073172394748 145.7737721623291,717.0752682921736 145.2426412937979,716.0139180143999 144.12902608915107,716.3185947561142 142.96400433691383,719.4490335500802 141.90279520693574,719.2193008896961 139.3681949562278,717.2309870191468 138.11169261818105,717.7612423657542 136.88420569041827,719.7701312336397 135.54404952931085,720.7752505984788 132.09015405726964,722.265922884987 131.66660441710596,726.7989293784515 129.99307172404738,729.8128604598346 129.57656736600515,731.7341369367042 129.30950080991542,736.8095099273341 128.02897609525579,738.5091158001884 126.86371917527369,737.2103674725233 126.91384986704676,731.0387120704854 126.5557138062907,729.1082414927473 125.60325106988503,728.5438935125295 124.10189676614655,729.8216332963916 122.6237730059222,733.0962286746726 121.1667409753833,732.9413320925842 119.78903425969578,731.7361648976002 118.11633076592145,734.0261486558791 118.66826621587214,735.8736542326621 122.23994368322549,738.6364277876348 123.28348111760792,741.7801176782649 123.27385101180373,743.5742648039586 121.75515006625119,745.7895652034401 119.65229990479638,747.0248003618033 114.63603631078134,744.3803189457716 111.35960211083707,745.215112699053 108.49827874971861,749.4638695610217 107.80218116858396,756.0361543461048 106.27259338129672,760.9750803206227 104.90190238877977,766.6672605095055 99.5811260208993,771.8114346587076 94.25695383061081,775.2526543718578 87.87313071328238,775.7688901508658 84.20209118354846,774.9857423702147 80.13526791211997,775.3032987626225 79.37136703036836,777.8742127014212 79.36312884968467,794.9369815522978 81.2281472042727,800.5423570873015 79.63191405448362,802.3963685884048 78.03306325784322,805.864751760505 79.90065909762858,807.1946771671503 80.70310822561966,809.6069881328616 83.09633322635639,812.5452099084614 85.7479310031735,812.0199996653312 93.72909823788093,811.5140844574943 97.71828554437755,814.1916422018844 102.57394258008571,816.062374815727 110.35223599228439,816.2744198476987 114.07326153908863,817.673806708376 116.54758891435382,827.5682245950626 116.08998881898079,832.0416676686432 114.62626214867292,837.4250870801092 112.88583197514134,840.0074030233321 111.36433606372354,844.0609243868944 110.86134135363372,848.0713982642642 112.87259909245694,850.2144690789872 120.80421838505981,848.7919351006251 121.4312728276408,849.4095676719455 124.88899760859191,849.9344204610065 127.15045602194012,849.3535127409516 131.39019454365368,846.2577061335619 135.4869917688356,837.958472496034 137.60396176115444,837.077122230778 142.27011689129398,839.3530584682993 144.38421842583455,842.64561908643 144.83602877380554,844.7390167651951 144.52217181201553,847.4168092483967 145.12138597832734,849.0632301790884 147.8524437550148,853.7025447353348 148.00946323967318,856.6872901136541 147.2361159725369,859.227249377552 147.53564273608137,862.3509334534886 148.4540363983606,865.1835615031869 146.14780642357073,866.3614201552027 143.8922544596717,870.0695778966635 140.81075632835598,873.0322501121021 138.51420830755075,875.85293809623 135.88362327274777,878.2244359064521 134.75297447954497,880.7476844813496 134.8593041712489,888.060547288549 131.70426844721925,889.9746305504289 126.41537259865095,892.7701351502997 123.53688458264222,896.4645181440618 121.361575677648,897.6198166715526 115.22596509293098,896.0661777863946 113.98230182230962,900.410695690466 113.78730662281016,903.8525684974348 116.51158357037515,906.898705487122 121.48237063587841,908.0310123280298 124.57298931390854,906.0084402014461 127.49024583854961,904.8340849443664 130.5771209929888,904.110789353894 132.82889285633402,904.2772695322241 135.5202234762987,905.4853438374735 138.64721595292255,908.2037332946334 140.29734309405106,910.1425560888963 143.09405699256433,914.3359087899584 147.17583676371945,913.3300389066287 149.26291257798314,912.4594052001912 149.71994942422342,911.5765761019782 149.5969816079505,908.8934822399015 150.07740147132176,904.5889665234602 151.44714890654348,901.628027250508 153.8566262455353,898.816343194261 156.94362573663176,896.5096492843992 170.36078810398254,888.7749638322664 174.8750765411276,886.4434643587069 178.79200403691186,885.4364788384438 183.89894116756926,885.1757079045574 190.5001197945587,886.5610259176747 191.23170177782518,888.0547832929683 191.07024130457827,890.8818582659871 190.00226612707502,894.3029169058707 189.67999754648807,898.030214828866 190.88192064739476,899.9740816686256 193.1259936844293,900.2808146920407 195.97610295186877,899.4086243645552 197.50326355035236,896.8882365051898 198.41976784197666,894.364664900544 200.36845319283321,892.1439102392662 202.78740848095075,890.9643035645876 208.9418255679249,888.9252712401574 210.88636334593144,888.9307816311867 219.28694026980688,890.9294119669769 225.76052488905037,888.2899432174872 231.7814319068477,886.0984039254611 236.15386310526014,885.6841052690523 238.42716999045334,885.1022335122485 240.6744538494349,883.330690299058 244.44666572858003,882.0225323336666 248.9680216097481,881.3042073874966 252.8724327376658,881.0332960962589 264.01463810024035,879.0241637676891 270.1977376172093,878.6265550151425 271.5401912820065,880.1127534414425 272.7135268066424,885.4755695420345 272.81447849031844,893.8171818758924 273.560550197866,899.7710379894743 275.5114216744894,898.7397189810492 278.2422780792062,896.3761629575913 281.7008404561211,895.3447535160014 288.6225241861961,895.4013221629837 295.08894076381745,897.2209035244682 300.6476870190612,900.6736458691815 302.72551921902556,904.0880520334666 305.7440000479424,906.0588226655665 309.9596019180541,905.4735338885166 313.351708650411,903.8072259331306 316.36507958266003,903.8198238295519 318.6386478574273,902.4900295606399 320.1346053370041,903.2502674162132 321.64327403093495,905.046696611413 325.51332069827595,911.9021823720033 326.8679177081107,912.8125479801225 328.8252064405249,910.5882138706048 329.8895380940848,908.5180522240339 333.2520374546978,898.7198672820629 334.46290666377644,892.913870090048 336.14364060954716,889.7971310901341 338.8638758087056,888.3288740066365 344.00202476446464,886.4011244795921 348.6605554260159,885.3853737816297 351.2334455813987,884.353674900118 359.1175965621626,878.1316766987591 362.2871419975377,877.6887857759415 364.6856776422732,878.8906971795523 368.7515800233601,880.0901150472694 374.78289955624706,881.4577303074947 376.4249902225321,884.1427909809149 376.9830494941757,892.1872195255849 378.64640273292713,894.1220730833065 381.79272154266465,896.5149668010373 385.1088321521875,898.0177701846762 387.53276667090546,897.2818672056374 384.6920418097014,889.8309703826486 381.1115130595922,885.1937147879678 381.1233362978313,884.4462367491171 384.45585495499364,882.3788310794308 386.86646982739234,881.3384296179892 391.754867413838,875.9913776880358 394.95868207911053,871.5324246154811 398.1518871223336,868.859874340451 401.1623658565368,871.1006316863018 409.31185636726667,873.2091861355609 413.70810490534967,873.2138539220123 415.67188953408083,872.322046553932 417.96831752705026,869.499108259376 420.1139685405443,866.08174020277 422.42894533238155,861.7560397756233 423.97561061540176,857.5884287188729 425.71608521194264,851.8481684406207 427.9661414330676,849.6506734062103 427.2129879783485,846.3505311230354 425.12045530552535,841.8590412433057 425.4583361473355,840.3496844223939 423.1154861188469,833.6922341109101 422.7000158408563,831.4684734978229 423.0285043988781,829.214501253904 422.5448700940461,823.2601089104497 419.7209248477469,810.6456102365077 415.79862057582324,800.6593107385199 416.95592327381667,794.8665226362517 416.97391834463946,792.1946198298415 414.1389559832808,784.4522530507223 414.00426143933896,781.7718567683826 414.47955480146464,780.7373034589411 416.4329091782619,780.7439504844964 421.4054727151,782.9909966254319 424.26336920713027,782.8637968267573 429.09371298121124,781.6518272600454 430.15227302409716,780.1463648707422 432.1374133770951,773.7571250923514 433.2563051663825,771.2717868573783 438.95906026952645,770.7464728958887 442.4174298526562,773.9185510901613 445.578067319595,776.0085092967417 449.6527519521898,775.5713660329461 456.4437536632625,775.8781956147561 459.76677459964407,776.330635233858 461.57139884498986,777.3778814706606 461.25648789910053,782.1420062949237 460.74884641375587,785.416493692278 467.89934167486234,782.783790643732 481.64413025333585,773.7127088833548 493.546887888224,759.2899339870307 506.68131730553114,749.6291130224406 534.1603501499851,729.6909316063332 551.5111895417091,722.970424500136 570.7685419513425,728.1531105228169 589.4072892549003,733.3636032857543 607.4797705543145,742.7366146504214 618.9360603411673,753.3839578506254 633.4063554826861,760.4127669371563 644.1435733891425,754.3608823507732 657.2642387246093,741.729915880847 678.1621212739622,730.2358079760824 690.1779230567138,733.1283704616922 699.8575993561304,749.1535530210855 700.0051151359673,770.6331045124829 704.9431244273676,790.263951469508 718.1720344754035,799.1234725315264 737.9452763380162,798.994813500972 740.9485136705872,799.1751546092429 742.2152186235754,800.1161780966894 747.1701747739587,799.988533022133 758.1779954395226,796.7517931417449 762.8640867249468,794.8306977454542 768.4445487468134,790.6784691154069 769.22060386301,787.8657005857934 769.071138750529,785.1932668430918 769.6847645418522,782.3514792804001 775.1089289686973,782.3861733279637 783.9911674780109,781.5397069737493 789.1139448265993,781.851751326977 798.6158907136166,778.623864347732 803.1369801714104,778.0455576056354 804.4794088066587,780.8811372129162 804.3219181439446,783.4067910871865 801.7534857850382,786.809639099345 799.7918031119463,788.5920569793437 798.9998725600203,793.798397658197 796.2890369514158,797.9505627488559 791.7672997174787,802.2397230743424 789.3919019024631,805.5303969892745 789.3588795787083,809.7678642439737 790.4418641686251,813.0315684774854 791.9736760292244,814.9583259337652 797.4244079049704,816.6980404217611 800.7370350177002,817.1573800954213 806.0084292070593,816.2874239077237 804.467650956768,826.2542064133986 805.2206859842155,831.4495469027089 809.4037102963514,837.9280491149588 811.2999153409711,849.8471680630472 807.8191919281949,868.963339566424 805.5220439745033,880.3051600976116 811.5956635706938,897.5674474988101 826.0393477989758,910.614302940999 842.2943253900103,925.434766558188 858.5860695103518,944.4415166632648 868.8957907950381,966.4483023518715 880.3843714282197,985.4746329125633 901.991212327277,1000.279475338859 928.2845217264673,997.1616137150573 954.5779572535183,990.4657961826815 964.0309930656662,977.8871149597877 973.5420675057235,967.1120032814496 972.8466594021701,953.3948616591783 976.9769822446475,942.6370254902338 985.2700997396257,933.0404667692029 996.6220579235926,929.9908637060349 1008.5785589645305,928.1430510829495 1019.2810298181571,919.7110704737374 1024.0,905.9697257139107 1021.5196322042515,892.2706760097859 1010.0443315867503,880.4108399147849 993.8661731685045,877.5280663596243 971.692435479903,871.0874604254403 956.6874987390087,862.8184517863285 953.0319651630009,852.1048129204188 952.3673314522322,841.9550469456074 956.4466351617907,828.2161872091476 961.1540274523459,815.0723983032905 967.0777411500798,806.6846547790623 979.5184396649867,789.923605360163 982.3565978772434,782.7285500736915 990.102557966664,780.6007126472825 993.0558367864459,779.4276464815595 998.9644526751251,775.6099516757038 1004.4971739657043,771.7871766727731 1008.9409638358104,769.4619987614067 1016.7377881785485,767.473336572406 1013.2847113484204,761.5623333431929 1009.8565886458018,757.5182408203616 1007.5536601722214,753.8301661408092 1006.5864014157553,748.1850293195594 1011.9710193723486,740.5228298383846 1010.7583305866518,737.6965598452825 1008.9633994164365,734.7068772718728 1006.2472407618852,732.6186688633682 1000.8495852713098,730.8194354577029 995.7246898594574,730.5006171288062 989.2508240662344,729.5970663263918 985.4861347735333,726.9066583671802 984.7613998408779,719.0104389547413 982.8253607177003,711.1135265617304 979.3709380349716,710.0540807011857 973.5010220438928,710.784813656484 971.4025121752144,710.632822556035 970.4913712889793,707.3593357811535 971.7118615144354,703.9326643021411 974.2839599827873,700.9604396816851 979.4057916793486,697.6986860623911 987.2460900128804,692.3530449999721 991.6015360392875,689.6777300080166 993.1205936708641,687.7597289303392 993.8901335754733,680.4590325574484 993.4539166008808,674.3425823029061 993.3225044952056,668.6878796798983 992.1267700325133,667.6478839751444 990.010144548203,668.9781698795182 988.3463497251529,668.6793734379802 987.458111291618,665.6972782356711 987.7764025717946,658.838062996751 986.4220023517132,660.7718911753298 983.0919555250782,664.0469279823336 981.4352451321097,663.58652519236 976.6478527929962,657.475772530672 966.8774007813278,658.6457068573994 950.6028681366101,659.635495516552 942.206075376401,658.5659957686507 937.6846045531398,657.5136320732935 933.3251540505041,657.9381226245091 930.4422531891869,661.1670717010929 929.0890011030539,665.5017583805709 927.8631676812514,667.9178532958006 924.7173531946125,671.3197751500898 921.3864952948189,676.0681139859428 918.074433412558,679.180648675909 909.6972068335448,685.4409854320347 883.6644774042902,677.6931739586939 859.1287923946861,673.64361991315 826.8210050780814,669.6383342443389 797.1927875560701,667.1888796031872 778.3248900565562,664.4657047525 768.0937003488376,655.0572946939791 772.9565739292345,643.3260169503233 779.9202630219628,637.0891049868851 793.6615344679868,631.0523329430503 813.8777472237084,619.0157006374857 831.1316257614586,604.0059873437691 841.8758732977293,599.774480910786 853.787183752994,591.9557044176449 863.2832173633885,582.9595294480498 873.3737853183768,571.5795034481644 875.6763014074965,559.0385801967955 873.8145617178669,549.5098529220447 867.7498111352706,536.4102179343076 868.2446573189095,520.3087959921121 875.3570430075529,511.33010309473445 885.9983719812575,498.14724211607023 892.5495394625282,490.3557805535318 895.4840009962351,480.8004944414355 893.0300171753445,474.8403472794323 889.4306581602061,471.29504213271844 883.4392969187086,468.93219010903863 873.8564735911539,467.1931080923579 860.6928416863707,466.6632677408028 843.3847913046932,469.1340504970947 827.8520643350961,475.7822049547598 814.7545350298309,483.0100843966636 801.6708734262213,492.62264075123755 790.3788720739976,504.6212002346433 780.2368161247862,507.06927035665177 761.0674679554822,505.39938480505015 749.0465040225591,497.1221383052794 743.8900768990121,491.10440190251427 740.6488202590035,489.7686971250051 738.5987666361681,487.0363852312555 734.0976617400339,485.16320936552574 723.1414300924046,476.41729992030287 721.9716746468865,474.2353554648572 709.7001451186829,459.96527485602326 719.3574303782153,449.5963397121574 724.7093939527751,442.39803673878566 744.2507372024805,412.4418387551841 759.6715264779458,389.6818276353998 773.2988775874642,368.12803995461286 784.5675522287212,358.51553116618186 806.1067756638217,356.592754855173 820.4614399132274,358.31630512172376 840.2034285711777,358.8044123807174 850.9342854505508,355.7622446522623 853.8850735753953,347.38940824664064 839.9763838836517,325.3972268362131 838.084766670572,312.2800473163894" /><circle cx="506.77983622644695" cy="414.31943148736286" fill="rgb(100%,100%,100%)" r="16" stroke="grey" stroke-width="8" /></svg>