<?xml version="1.0" encoding="utf-8" ?>
<svg baseProfile="full" height="1024" version="1.1" width="1024" xmlns="http://www.w3.org/2000/svg" xmlns:ev="http://www.w3.org/2001/xml-events" xmlns:xlink="http://www.w3.org/1999/xlink"><defs /><polygon fill="black" points="595.452834028928,70.99054372390935 590.4241828271578,86.11085839560076 589.9277761817328,86.63036203444256 584.3517036564447,88.30562371599262 574.6873020523236,87.66228696654059 571.5753860282347,89.28956368227114 564.0082321460272,93.98174890888049 554.0661374000941,100.95060908534936 552.8607224282299,103.76895441723786 550.5162811637449,110.3911018574588 550.090806254317,110.8163061515819 544.9552102335157,110.88613379600713 540.262688400932,111.94589621689681 533.8979765586498,111.56407358366778 511.0547691113979,107.4130064454223 510.59214996048485,108.19587384916213 507.3853455241912,107.24845323134593 507.2837463359157,104.33919979740392 506.8802729481015,100.99515144164388 505.6833783357166,96.7937501879536 502.17940739011703,96.71037517155821 500.4192475827397,97.92796019144589 497.9552151560916,100.42475527142858 492.0425675595393,99.98871089408931 484.26577139315776,98.50916301911911 482.0852552051515,98.24476243030517 467.25886434033464,99.65721325726054 455.4030902845824,100.36750107100568 453.19342800002335,98.7264471696983 453.2005305271327,93.83527243769754 453.7427466451836,87.28864092479773 451.09726474303375,86.8842650859948 446.9869401787489,88.40365941021673 445.20345287289416,90.20149955657621 444.82617852133325,93.61402996148308 444.66314520124274,96.92281241821661 444.2062981621323,97.30347953745536 415.053370783146,93.44025026313057 409.2903116613926,93.45560168923748 406.605005012977,94.72083542798566 404.87598599792057,101.72308969414689 405.4012225559474,113.9158006395761 404.5359884633617,118.6353080680451 401.39046749033906,119.30437684425306 389.57247263436705,119.04433573843244 387.10885197859335,120.83455006948896 386.14175437229693,124.02909062642516 385.90273867373224,132.7733600837587 385.7691007676273,133.66237238252927 375.00423601641904,133.91414686097949 366.13486175575554,132.8523259336896 329.40531407972617,132.29497093400403 328.0310589181888,135.06112689164058 326.91339160352004,139.46673069399208 318.97909312613757,139.32093218214743 318.3553001308475,139.50522039490522 311.1507724155936,146.1787611854728 302.15666374351173,139.0630097115478 293.8131921716239,132.32339395769395 287.91462073288426,177.62748861613068 287.9965442298093,178.41867321000234 290.297786705203,184.39833194332516 289.0872845424843,184.53711808045296 284.3243187832236,185.91445733972284 280.5806861601003,186.5164432463538 278.9007244645795,186.9772364035532 274.14844653835985,187.64158638025174 268.8917091451418,188.1234529138003 267.8388931182937,184.18872505492698 266.93309172004547,181.51621304192258 266.4052585535525,181.2584181702548 245.0578532931349,182.02271276810995 243.25155382869133,180.4964563228616 243.13315177156983,167.7805844129033 242.24376658856718,163.71953682982644 241.73617991073576,163.39541496302218 234.75741480241615,163.27894757626655 234.37114842285888,163.69506541990165 231.7969456697173,173.87556008898218 230.78237776534175,180.33335386908652 228.47805942182669,184.55586572152424 224.43036191100026,183.7951787312237 214.1407825890057,180.9960547250846 213.11064242415102,170.95263350454297 211.5173328976291,168.1771060645642 216.1174049520575,161.61787617045206 219.59877567229063,151.74362073583143 222.42111638236088,140.72750592717136 224.32587681094392,127.77846713561166 220.9307132827468,124.74435720575286 220.60406502766733,124.05112132758677 220.78718164606948,118.60873254909507 226.7580595601109,95.73954886282661 227.1745183231139,76.91890841885152 227.04586860123686,63.10414502311687 224.35672815004796,41.281021354183395 221.1562962186981,37.13993459956032 217.47843183388258,34.25275895551886 209.94211120223952,30.771315625057582 204.69632424447695,26.46325011592785 199.06316980373148,23.128316207611647 188.6534886450065,18.748867347821374 184.54429125142906,14.046653930118737 175.07644988244752,7.552919998423931 177.04057188964742,4.220273045658814 177.0659637270433,3.765658296608308 170.98134252457862,1.3358036966616282 165.9977992723294,0.0 161.9019515947096,10.097612174547862 161.8241228148742,11.469228756235225 160.0592563842754,16.111929044070735 155.82122535912126,15.324646774748885 153.65302844117414,14.271387049623968 151.84398768890102,17.72042728424742 149.80321656267733,16.98992960033206 149.23987293125796,17.231153744403628 147.91316023562527,21.546511378980767 147.15549964933507,24.55078247297979 147.25296826458785,26.799951668503923 144.43281208595053,25.262629922279757 141.15589871872632,24.14971691096116 138.4893815057649,30.933996938694804 134.41814901832367,39.708340281913706 135.45337515879447,41.40348414239452 140.4620498275933,45.78237414263276 142.6654171552515,48.23333916462752 144.84763012192414,49.64578507849865 147.7827093156694,51.21095207703786 146.55950899044637,54.888293158006036 144.48284924298912,59.2061306556667 143.07251997773017,62.70301706231476 140.83025938632588,64.15110156032972 140.00759227649414,65.9697579459812 138.42185854989376,67.44546051415239 136.39727016228983,71.8519101829063 133.96390736319512,71.02070454973864 132.0928600402509,69.97938480778453 128.4387061103826,69.15382758449323 122.27477913467254,69.01787505857033 120.15371266721874,68.48979404110844 117.95292385835803,68.31786081964606 114.51804286052312,66.94013615440338 113.17941572726718,66.61696385527932 109.69253222039038,65.18340464495441 111.69849198878153,61.66478896196702 109.04471374208495,60.35995565127564 105.37734420642781,59.32240991780543 106.62022832883287,55.592776572481284 95.0614976909703,51.23349211448067 86.41990597205753,51.70160715771851 85.14983510898116,52.05117887488541 79.16958861355586,54.57151990126931 76.68023893469359,53.26440594455471 73.12422014810299,51.92401720786006 71.2468366881452,52.18678392882464 69.96276367194902,53.03535493853849 66.8835123267447,54.16711003921057 64.2091714513844,54.81105933424135 57.809085100335864,54.48299300352437 57.26675025773435,58.55038042664114 58.599189695754674,65.13155370056234 67.35870577432671,78.52412595061458 71.17595622129348,86.80276263646817 72.51623696181929,88.32805885530377 72.02060144542024,89.06724639708841 77.57534804956224,103.15363952619407 79.67314821300322,119.63396694002824 83.54822663142542,136.14758865914064 99.42589102915895,155.40099907146066 117.28860168472376,172.73438713106998 114.00926180699761,173.56238579604053 108.00781198099517,176.28965322106183 109.92300973886681,178.62966477117618 108.48592419679754,191.07679615546147 104.80434470372175,203.07456414867886 107.31974694883355,221.79631166222572 106.38116465819341,224.32270013209302 105.23430256126628,228.42978275856098 103.7470149972301,229.80886016684752 100.16603606975724,232.3347347623344 97.46022813646391,234.94814196014943 96.30391773520597,236.42064282751937 95.9788613887423,237.7812586673184 95.90054528023796,240.9661540119061 96.17811966092202,245.64409545557209 95.63965275949863,247.22640238823288 94.59483403618019,248.59478321547311 92.96448744582327,249.87433701273528 90.75230587196378,250.66117633984362 87.59017704074856,251.16503257980781 85.03454776264,252.51463210446713 82.71528809957312,254.8867615501482 81.39415618545394,258.1373700194232 80.96692357673408,261.5531319828272 81.09001590704665,264.3261943925253 81.91996149476844,267.9867113605147 83.75023782208096,271.81123736443516 85.03021377544128,276.12701919129853 85.25525573661652,278.7883195867167 84.94977804283822,280.0399695406071 82.78234674537934,284.1441951554786 81.04699565667977,288.14669034185226 80.80650779415542,289.756808126696 81.48080691170264,292.25992548699327 83.12975835975405,294.47303034882435 87.62505552931053,295.48874945538824 89.27926163523178,296.38153200979434 90.55294616145018,298.1365266382623 90.84810485780186,300.7174634536426 90.10396821174847,303.2707477996803 87.42417938169045,307.53584660706446 86.98754754991772,309.029647149054 86.7976227515321,311.44688392378043 87.12246644502868,313.94596272687954 87.1386341019208,316.35322108534973 87.87290489291557,320.52339837044497 87.97529350297864,322.4074729686984 87.51063927805302,324.14619860279294 83.36840072467949,332.104047057248 80.57962535348153,336.78758429950284 80.22612971807062,339.44146924197787 80.40045185637713,342.1848456601303 82.06040977523972,347.34306073959027 84.00668148730513,358.165344501834 84.15840730281438,359.84503237500843 83.94396027619013,363.7477373314663 82.91302877273134,369.35989941555204 62.580531460653035,368.27724911732685 52.19443239356528,368.73034591078 31.4922949088749,368.6320462618502 17.196136459140735,367.14901982667703 13.160440105486336,369.9143531400708 15.19328673818778,378.6105276843638 16.458305037417762,381.42425383622907 18.08186954103456,382.2734265231891 21.190599173158255,385.392345261517 23.86536867096752,389.3951640182421 25.654990623128377,394.2904523714192 25.64861075830805,400.5322459211273 25.196915421742567,407.6678174063861 24.759397375376796,412.12405336585874 21.62360917283365,422.3800139076196 18.93784037831331,434.4232024823138 17.594030841094526,438.88095909359015 16.245536747175866,442.89027885724613 12.687578836041384,448.2540657261795 10.458414484255883,452.720821575402 5.170648784071903,457.0421072509822 0.0,460.8572520754524 20.301554607059536,483.90196043749904 34.071953023394585,508.1925367191758 36.17719445767109,534.5022105963433 40.29861217694099,548.4550974540217 39.80445956462819,555.3911009565319 41.923707791809875,568.0426373704393 42.80040036665303,570.1147128276416 44.37181581493316,572.5833622555654 49.28455255645083,578.4204288183311 52.28030342531282,581.1381541149915 55.79442955121822,583.2699083241307 57.806165632049364,585.535794986388 60.74136552854519,591.2166173899944 68.0148668607147,596.17020901207 75.5357483811895,600.0608513676915 77.99706158079472,601.7626065025287 80.4320344970135,607.9648316540887 83.4957496211495,614.0865560458813 86.64917814989157,621.7895331498606 90.43008078471648,625.6533749416567 96.88446556204549,627.9003925131406 100.90467115483365,630.866438889271 102.24336039471699,633.6244049636759 102.64526551538752,636.473982928429 101.50180596164677,640.3167209768853 100.97324780561306,643.8538605753632 102.5097768520198,646.836845776088 106.35056174962395,649.4300075841898 110.67146309233605,651.6257276671389 117.67463341859307,649.1308843521949 125.58122264239783,644.5291417361517 138.65893772994716,642.5475699480377 139.2465894080123,642.5547085588611 147.8942461405132,646.3870751712003 169.4201739262099,657.0708198343791 177.38405903991222,658.6727574854343 178.06524509902653,658.665121213858 187.47851975832526,655.2064042066287 191.1157825721452,650.6417618213299 192.97823981045616,643.8896586739863 193.102745354159,643.0514792199572 193.33290728121364,633.4289089473843 193.2128619126957,632.8051141243814 187.4776421090037,625.0593619094377 185.99998798016878,618.2575883328577 187.32226057756225,614.0005745866141 192.60915573789083,610.3957372035327 196.6395500556683,608.7250867352083 207.34973580588937,612.7134355109546 218.88199538945716,615.4355403716341 230.2822465912749,617.5914604842474 237.45595084921752,613.221723114693 247.05173113392564,607.1829143660287 249.90180704447712,605.9285065720678 250.8948690123957,606.248920370561 252.12602070359878,607.6091331650347 252.34250772779077,610.2548078232761 254.39864497067657,613.4284380356025 257.0002616404751,615.4870677653371 271.19599086333835,628.2701767997489 281.79949387657587,637.6912649290914 289.5914680442833,644.755171139547 289.64306603721957,655.0678400859335 289.6596515384017,671.2656131088366 289.5942144901701,673.5030020255423 294.9399792509769,687.0415530012128 304.4489749013497,711.4511271501729 304.8552728264568,712.6092247084282 320.91897823308295,725.4184590274581 347.1012900938166,723.6735141599945 368.65634140928825,722.3485728419743 380.1062809564685,721.7349357925684 404.5586324732249,720.2896635296981 412.19438192972444,719.8692547663758 413.7571945580523,711.3804769038944 417.0509082860057,705.9452064079713 423.98353092621375,702.220817742541 439.03784014109556,698.1672594308164 455.31828413527137,696.5817181388803 465.56255933867976,694.661206554098 479.7540339267063,693.41091846047 482.53685095621785,693.3163761675665 489.4762062084148,692.5927064110156 493.2985678361485,692.3426312526833 497.14243934224515,692.2552785381528 502.5653828697251,691.4111771536129 506.1541615273259,690.7173107848864 508.80970767406416,689.5483543852056 513.3393099496201,688.201167012224 516.2908572782858,687.6844300868985 520.3580804730191,687.2770881813833 528.0782904242936,687.1297127082815 531.8685834648408,686.7859662004787 536.8408001596263,687.0359875757447 547.9540686052827,687.7470371082485 554.2981952722361,688.6557056765877 557.872887083342,688.4890152754855 563.2144648137431,689.2924451856053 574.7025911571773,691.771283030562 580.6928042515435,693.2274245925006 589.2504204121466,694.6482061873328 602.120966848012,697.8848278476195 612.614023671738,700.6019529717338 618.2149046380766,701.415575631168 628.9607203252601,703.8039188545403 633.4527542832817,704.1897820652229 636.9399891064461,705.1351859276804 640.8300626839684,707.5097674890009 643.6977311685624,710.4500362959109 646.5519886456132,711.8526456832282 649.125766816572,712.2572484201794 652.4249893996567,712.2186093062267 656.6352548123551,711.6136827556171 663.0126038450554,711.2071366884712 670.6729544104513,708.9064815467109 673.4102991831057,708.5433624707798 684.7257678380108,712.3782476046299 690.233487001832,714.6334663987243 695.8825977395196,719.4165080159329 703.8411160766609,726.3894102248615 707.794515053223,727.3344164727527 711.25878084373,727.2902954692286 718.3318967245589,723.5745800312851 724.59868235621,720.5265460777493 729.1665906471735,714.7418570670677 732.6649822150907,709.9589940591867 736.1857538556432,707.4999553547549 740.368387638405,705.7981467744355 746.4613294396852,704.2954388102252 752.6430611889382,701.8067408627974 760.2419744472268,696.7493763889568 768.8662488859837,692.8026871920473 780.7734005111121,685.7019238776228 777.1477988043132,683.9615929386989 774.2592289216245,683.7830742306535 770.9619004320822,683.9192930795558 768.0063557609337,683.469813155946 766.5278082452378,682.5363305301556 759.6731292555579,679.1870070014511 757.2437311806117,675.1975710369866 756.934868972941,669.6837068080988 756.3121920195804,661.7181632141414 756.9324629985089,654.0566444997467 757.5430480198179,647.9350578137385 761.4571185890516,640.7336832306122 762.8006095047815,639.544922382773 765.3527909658425,634.3868354732327 766.0105834673508,632.250897877051 766.5581853855881,628.7787221633454 766.9296016127195,625.2936151558993 763.7426594162587,624.5174326103147 761.2017237264653,623.4287436237198 758.8545676336952,620.809006408055 757.9733862100938,618.4161769914716 757.5728812247115,615.0104350012863 757.7669689107859,612.0794216660573 758.725209485988,608.5351966034567 759.6109429907954,606.425042790516 762.8005180594046,604.6730922761507 765.1527305258345,600.6596721829661 766.739252254754,598.5759990099499 771.9788200258616,595.3216520323654 774.7279380335518,593.1701583985824 781.7514809677264,586.60934047503 847.9150648269235,591.6630851526781 848.365698129419,591.4717206609048 848.1780948227666,581.8471419834619 846.8586336084035,578.5216015360674 846.8721565204338,570.6473868404564 847.8214222070945,559.9102207678985 846.4942054017358,552.5866211611508 846.3720631274764,551.3535012683611 846.5835228707822,547.0336305082478 848.5029097978548,534.4388049853765 850.7920767413796,525.1490505059976 854.974650383906,514.4689559526233 857.9100864253261,498.9960750074647 859.794003547155,494.2620445643009 864.64527729697,486.9772746312093 865.3406916905424,481.3449507458701 864.2518269215288,476.1129905250915 864.483806753819,473.7947503260515 867.3635826501285,459.6409302506938 867.3563224313248,459.17111867389923 861.8185573581925,456.5962949382092 857.3633609457677,454.76971132250816 854.3292628813609,453.0590364634036 851.745730922935,449.7044283690361 850.9835471880019,444.38970465402576 846.9756080451821,431.42350138669457 847.4830292820881,420.8793588006463 851.4210402967299,406.5386512399563 852.9115921741552,397.0531677328735 853.98690534441,385.3215139701072 855.5076887439642,380.4415537548474 858.8812253412258,377.59135514308196 862.9565338740769,375.61960391323225 867.6969502916891,372.0509605476264 866.6637410993762,369.03378537570035 863.3948589151349,357.3614058795057 860.8193512549273,348.5017113197966 860.0285275140026,344.5700296842994 859.9754602274303,341.1337754005277 860.9206190180558,336.3830016932057 862.1219773647923,332.25935945160563 867.7728524425763,327.7308770949271 874.2887769234918,327.97349051737086 875.0781199589132,327.1242840933499 877.9867781756117,322.24770197619955 881.3457084663071,320.5292841775564 886.2360390537052,319.4684907401901 888.344842419667,318.81221737361477 889.4897835471618,317.6272608612083 890.8745563464063,315.3957593412564 893.9962518767447,314.39150401579775 897.1498126772944,314.08576307082615 912.4560060485657,313.845065039858 917.4082972124178,314.0756412710583 933.5870192197772,316.40966879186635 945.7707782903087,317.7942549713447 946.6326623264945,317.6775635726501 947.0046182848033,315.844286684525 947.0450145036991,313.22983625661806 947.7557335294164,312.6300772160744 951.2801787241932,312.9484779313542 954.7454529683365,313.4949556023393 958.9991400091919,313.76460380088525 960.4726717432912,312.6029759015517 961.127088018641,308.50278868997157 963.6897495301586,289.409424865364 961.4028115626347,266.2286114388723 961.1058878887347,263.6933528769825 960.2280235803045,260.2935712151044 959.0103007431987,257.49541919438116 958.1001115060511,256.4905379922736 949.1879242150525,254.22552588990084 945.252174432859,251.88053484634202 942.2560663046723,249.0582716395753 941.9264998913098,247.7876984501316 942.5383660408176,244.8495169883696 943.7107778705027,243.62679317413637 947.0900073763306,242.71441431066307 951.4253421564598,242.36533008739895 955.7406139012971,242.1718061357389 960.1160603613918,241.8140781841331 961.0931333556015,240.5730027375795 961.3422966719039,237.53958673394652 962.1822863822763,233.48879661852612 963.1343878713027,221.7034254784686 963.937416718968,219.1659749821236 966.551225652961,217.46541831526957 972.8820991830861,217.26606549749113 974.8740802961228,216.45706467890733 977.504843193254,213.8239185098214 976.5068705199434,211.8670715161345 976.3133689547158,210.6584340679326 976.0417191252545,197.06729684187042 976.4821384233874,188.7680610350401 977.0172020838469,184.92210644564295 976.229904892439,182.0452488958955 974.4517021500584,178.92615806521587 973.0994639196317,175.3612769188311 973.5697771196319,170.10070008093385 977.5733702825609,165.99463547494588 982.4740676338832,167.76965633939415 988.2754179877311,167.30245175259063 993.1745937330866,166.4069910782954 1000.319852228484,161.48586678018034 1003.4514403498181,157.46717675037223 1007.0323602770176,155.23542850995318 1010.5973129853767,150.76282280775354 1013.2883380463214,148.07752080795183 1015.9654654280009,144.06408603424086 1019.0741902575062,141.82816651999633 1021.7526767316973,137.81459965901308 1023.9990894748538,132.01372219682355 1024.0,120.85894714166716 1022.6606973152549,116.85338258159175 1022.2265842848437,112.39592324196849 1019.5402484302765,105.26655059807649 1017.7682870332657,101.26420411690162 1015.9730333527414,97.69917172037742 1015.5464483071835,96.12930671980394 1011.8553618320599,96.56486245901488 1003.4827670031395,95.43424830798688 1000.0208929709854,94.83070419018907 995.7489193123834,93.79368121869675 994.5017772548531,86.01898771513174 993.1888971906442,82.38953169880176 990.5793807189223,81.73497706048431 982.704818484882,82.07693307024408 982.4307211952959,81.64833477764307 982.4267232278804,71.31713006526661 977.521406057526,70.37153428243232 978.46253074537,62.53982383419623 978.5026327304058,57.38518762974502 978.0821781391883,56.85798047417404 972.3220398356383,55.060025484008634 959.2946852717481,56.84765819139716 951.3526687144334,54.8200651666059 942.0599899605688,53.12835191316742 937.3180467718973,52.083810016651455 931.7156512026113,49.94402840609666 928.5371571898481,48.969416238088115 920.9141578955748,45.70410065243652 916.2864188340304,44.02601880758391 912.7686564366205,44.36729983747216 909.3489261357793,45.71869731389506 905.6081353576926,46.91391690930709 900.0972896973926,47.16990619054161 897.7817713732593,49.48624015986627 896.9647133487343,49.80594083297467 896.6851758468135,50.95413717541987 895.8517245797318,51.56149431900565 893.3184281860955,62.9499451569319 891.4602653048969,64.28995921339424 890.1715114822609,64.59761610534065 889.2946322101154,65.72410785842737 888.5755161859349,65.72957479275499 887.9674210915426,69.52779452623895 887.8596244981534,73.11619918935503 886.7831250387466,77.21498867095875 886.091908663131,81.5679414991638 882.6450765273777,90.3974339971661 881.8603697086418,93.51870951609362 881.2514032878796,97.89752509331686 879.9489803682511,99.4073383733479 879.2152064206564,99.71980660376073 874.6681878485687,100.6996389965534 869.9390928118173,103.83768356731468 869.3449389998818,103.92072882539128 863.6676525597439,103.63425073616509 863.1265541442266,103.1960216506875 861.8090240312987,99.70359963113162 861.8156578868902,96.19255422111507 860.8549403098327,93.18588405686626 858.8288944852713,91.00356476336356 856.1650054039651,89.50494376565644 853.5234109705129,88.81958815926316 851.0934694979932,87.77166844268072 848.2262583299782,85.08180706410292 840.7683532606761,81.13442621507147 837.3683026945594,79.87405107977133 832.5808083810513,79.1048509550161 826.6602561379242,75.58181467987367 820.4643747478042,72.76574061244185 807.8955623925249,69.09495128203923 802.7100651757258,67.9348065210902 797.5220938972299,68.51832933434957 795.0180712600092,68.05716760639939 792.3791658333588,66.01539144004084 786.7975862209195,60.33815180117733 784.049620644406,59.26493868029229 781.9005761940091,59.18078187262313 780.9459572859151,59.89032842446795 778.282360440784,61.00227642071957 775.0744873959088,62.941807992885515 773.2417528275856,63.24698354998179 772.3371700314841,63.971261092282134 767.1363906897099,66.49002961562007 756.0444479457417,74.25007063115584 754.5054279679846,75.0574746089053 752.1660886948144,77.3370187997258 749.2081721031508,78.05476562289346 745.9182855485973,81.34447845990076 738.6069452963158,89.18697139413655 727.0729435193178,98.4854576961676 726.7549873595445,99.18724393033915 727.0075267533626,106.62457154770004 718.8315576599178,110.2941703768845 700.3289754947699,121.10033623179208 690.3006834780869,125.30991912165598 689.5418064624569,125.47429846598504 683.4464337307161,125.32738815565563 678.9326320748937,120.78652414374824 674.4998196386821,117.72013764165729 673.735210439675,117.37189566573534 667.824238256589,115.806207455797 663.2953260045,118.03419975508916 655.9181218598037,118.82112407375291 648.1011498740793,116.86441393659129 638.6012303203044,113.55445402902535 636.1628264113733,111.82194319562029 634.541367350666,106.8584086239099 629.9623500432883,99.83949655651816 622.5434125943933,96.11676218279683 618.1633732147437,94.38992953286959 615.4243052413484,96.88467124974431 610.4717916766492,102.65694796658693 607.551433398778,100.94630190028647 607.1533337341151,100.4392391556064 606.6601459286305,87.9373494104234 605.2889712393682,83.88075061546033 604.6440638318346,83.32470058252045 600.1834695886537,77.96939493187472 596.6344456602533,71.73722211765607 595.452834028928,70.99054372390935" /><circle cx="496.7934129732843" cy="201.90117059816407" fill="rgb(100%,100%,100%)" r="16" stroke="grey" stroke-width="8" /></svg>