<?xml version="1.0" encoding="utf-8" ?>
<svg baseProfile="full" height="1024" version="1.1" width="1024" xmlns="http://www.w3.org/2000/svg" xmlns:ev="http://www.w3.org/2001/xml-events" xmlns:xlink="http://www.w3.org/1999/xlink"><defs /><polygon fill="black" points="374.36252941225484,1003.3941683167286 373.5953278251389,1000.9113389470083 372.5803235511519,995.591148273833 372.5459189477702,990.0775709071493 373.1060648222753,987.0486439696601 374.441223832279,985.2525638201491 377.6985833105679,984.1912054781028 382.78749070029073,984.5905283234956 385.4861261000576,981.1704006830356 391.3671712275601,978.2567675726235 396.85315224643466,979.0169737428118 399.20748763196116,981.5989565221719 401.9631693231048,983.566615206508 404.41605095649874,983.5770868822228 410.07775190699965,978.4805051136381 412.42602792569426,973.9216433070321 415.4239872816608,973.218239347477 419.2656184563611,973.6323602272737 423.6811598677138,973.4251442439231 427.7458536375175,971.6712132893307 432.6308094262598,970.8216218973954 436.3906173892429,971.6151207497445 440.2159068592842,971.8672723729078 444.6143941416061,971.6597625017416 451.09162455251425,968.4603079315679 455.3352171071623,968.6627229001396 460.9983534704173,970.6625549584293 466.8128143184968,975.481224971224 472.13459455204986,977.171483156571 475.27356641634276,980.0026422295765 482.47099140698543,982.5808346890262 486.3382734041025,983.2947403710209 492.72551889369254,981.2621435887277 496.2245361722394,980.4652175728821 500.2916874982965,978.0355383529886 505.5442381616007,971.5910683193091 513.212264385693,951.9657156510759 519.8734075956334,946.3172729296901 526.5579665526575,935.3428274009771 541.1583276910089,932.5232849125526 545.888531099406,930.6579055123995 551.9456768858705,926.9727169786125 553.6940101188778,923.6915629839793 556.3892049038092,921.3047579861355 563.2925917650387,918.7110092028018 557.539658234398,908.6500869885353 554.4548730610857,896.3176782610577 552.3984203131578,883.9687281966203 556.5070352429954,870.5992279599529 557.5369990612223,855.1719769123043 554.4551458092313,842.8292700275856 550.3211783745994,830.5054986109852 541.0365646951332,825.3688045809732 527.6290181363373,821.2909666236911 511.13508396377597,823.3759052580839 495.65778795710247,823.4057728223712 481.21359966686225,816.2292412692859 466.7808014300314,815.2381485618334 456.4695946942028,810.1055211459363 452.35896610843184,798.7946067930014 443.06774528175686,791.6201448282477 432.75984580963774,786.4868997196875 421.42398382036373,790.6074170945309 413.1921519851699,771.0673964224137 402.8943755944957,764.9092591565775 396.7045650756975,750.5188825699097 383.3142012019099,743.3355716458234 366.8498980192002,740.2529367578421 352.43932720908776,731.005535166522 354.4949579277453,723.7967457657062 359.62728577093327,712.4869022434275 360.18416420765504,701.8730345468553 360.1672960419547,691.351609765201 364.7743466074502,679.4952312739422 372.6940872748946,668.3027054042161 381.911660942569,659.0895620275367 406.3090257473723,648.5376154760509 409.6120110403523,641.2954264638431 412.9008313157519,637.3386608156275 412.8939406749388,624.1863273004376 410.92714738525774,614.9656419567976 412.90859899409855,611.6783467463647 422.1257290365885,612.3311536399387 435.99183004755105,603.7526597570156 440.6082588868053,595.8509846372637 449.1770282193818,585.9688821208604 461.06181958783213,568.1818596825628 470.9600576259087,553.6820606535023 470.28455391006366,538.5428391820275 473.5903416118318,526.0433753191764 473.5891814630022,501.68954023754213 475.5701565938445,491.8129734653503 483.4839142837851,468.11039187046174 489.42018201518,456.91016456991986 492.0669284877106,444.39757617527914 494.70460713634105,429.91362378946155 490.08610452939024,408.862237359774 494.05530198237045,402.93379284805917 500.65847939675217,390.4193740113818 500.6499429027381,350.9263463286021 496.0383700401646,338.43016809325854 497.35984450363804,329.8752452484681 503.2454444511112,320.4277627971802 497.4879740511593,319.3389764753173 491.7224569137196,319.62332401697154 487.06455036624493,322.64069159124836 483.2239140444181,327.5659687971388 480.4348463802586,328.2192396418651 475.98823975704653,326.4810361007609 471.5700616743313,323.16943694714746 464.5745014422078,319.8264887961642 457.9399321064532,317.242145385477 453.509687150315,316.8564762269043 449.4573993768925,317.20646620451316 446.114130530757,319.7797216367229 439.955055281718,319.56114310380894 433.6112845159955,321.68007148155823 430.43750932022743,324.3155279718893 420.44169541007693,328.47727543194037 418.45812017311545,328.6125103034102 414.9658238491394,327.39109384488995 404.27165169870386,326.85213172685326 394.95735283579836,326.5884105791531 388.6590680488065,329.32289176389907 385.0923771973441,330.14410001322665 388.66871426835837,327.1128811633906 395.3595038535661,320.06524463882886 398.65553695605814,317.82844504638376 398.82096590134734,314.9440316812925 400.4612357456173,311.68869156378696 399.6378394382348,306.7978491790592 402.0900324239771,304.35458157705773 406.1647781751401,302.72430826053164 408.61422687897544,298.6536132542185 412.7102147541011,293.7634794311059 414.31768958238536,291.316501759699 421.6791203452567,287.2360488815249 424.93439800637634,284.78582616604365 427.3752011664928,281.5338110906439 426.57685869993304,275.8345785185769 426.5690629951426,266.87626800656415 433.0992898547659,259.5398807109035 432.48860012673384,255.35589221975522 442.0859116875963,255.44803712031523 443.7106528509069,250.56766032536848 449.4105806145105,248.93359131535897 455.1278770420784,248.92689219628858 456.41202103948035,249.40202605133163 466.2461819193598,249.10701004925932 470.306517981852,247.24247830220156 477.65933635929844,244.31866036876158 466.4600172028183,244.3951946152879 466.76002160027434,237.64567068421525 466.4629231923302,232.67503276746083 466.85529478051416,225.88738937004155 467.2417384616753,223.9972460142119 459.34215603083106,226.02017785472844 455.33114581474445,226.00331004354518 455.45647554042256,182.99895760766617 455.6347003854628,149.92588709843108 455.56461671582457,146.40900855729922 448.4592456985777,116.48542049597336 443.8248510499034,56.79142869888278 434.3308228541902,58.601640998841276 399.66919783355775,59.81235131306744 383.3561656980069,54.5480675036963 372.7574019830206,45.04744313479944 353.7087833479121,10.671567199342235 345.1049859515693,3.959009687194225 332.105235860392,1.3770132867928169 175.01548158497977,0.613623830343613 125.54772353705637,0.0 107.40400077558371,1.4610610061979514 92.45007062079057,8.466905163006459 0.0,130.09347806765606 55.63737128230424,200.1154063934756 63.28083258047436,207.6171508140353 69.3591876606552,214.2250686573576 67.57857922972485,217.88659949398254 66.3521354599809,222.77798426125332 65.1333328424455,230.4108958600208 64.83149876158167,239.509131919276 66.59774198664881,240.05988158720527 69.35691878237469,240.06385455602367 75.70388189546097,240.80244861585095 78.05292949452739,242.2263346269052 85.02273716517735,253.0919563705778 89.30898101505419,256.7948469425303 93.40822431051637,257.20593407098113 95.86659251647937,258.63796728660145 98.92783798497976,257.0081398119985 106.3001794272554,258.0363817500263 111.00473873021836,259.6876126559936 118.76324604527773,259.70620983301296 123.48437176871059,258.07172002918367 126.37376764247058,254.87500726910048 130.22546097517684,254.80446740666218 133.70454662159176,256.937010684577 135.55109967008156,266.2230691535988 136.95994970859678,279.10574176546106 133.71763801186748,283.94615911134235 133.8362815023983,286.43152408863455 134.9311414519087,289.29139808205696 135.14984480953618,292.1545972409274 138.51421168419722,300.33415079311874 128.7865159076144,302.2698001827747 126.98426657456868,303.5082955991402 125.44638765931289,307.20207816870277 123.93563129707802,313.70932845907737 125.26858959384435,317.00936092338304 125.62979050199202,320.4893369592355 127.73039663803853,324.1525720151785 126.5840076209395,326.72401087389824 122.22561876923129,327.9907507111586 118.24935678852395,336.76758538660226 114.10842193556586,346.8809171028672 113.21100835977683,348.18552154305485 110.33989139536978,354.34960370190515 110.07304114381778,356.7226510551433 108.38220598302574,360.83657777019585 108.53751389951607,364.69286321075083 110.5791816845903,367.54730188908013 112.99952585978116,367.51842962681235 115.45356794243672,368.9939213178402 118.04555860046966,371.5225228275244 124.28937736205815,373.4045842827659 127.94987106216279,373.4434371837326 129.78931103882974,371.6224265179545 129.80035122974786,369.4123764735999 131.2708277844032,369.0423846686849 140.0565524200496,374.281558065162 141.89954810928225,376.1337484484451 141.86861393355227,377.9637952519528 138.019784944189,376.7382234633893 130.50025753568704,375.5738763598748 127.55157147527291,375.9082414509684 126.89977985813657,377.1216947410094 122.03760183333604,377.0870782797093 119.84121042671559,378.91653238340155 119.4508953037323,380.74734463702055 120.89141366854541,382.97237997194 128.9522379033112,387.08640897147154 131.52837659814452,388.93973971732623 133.6898541012253,394.1151240463299 134.18445499338597,399.6030555589566 131.95806747644662,400.13357460595194 128.20013536946317,390.3965231784556 123.45942374658964,387.4054633743748 116.4703672834951,384.0257143682103 115.02786694329605,382.1985233725916 113.22345939136483,378.48539369049104 108.84928410576643,376.98993903873577 109.75707671725588,381.3428634767113 109.90878835973186,383.9926787081521 108.59241478397585,386.5221446211932 107.49382639210877,387.2635705647539 101.7482409970071,388.11497491705154 98.09294503079812,394.68314865147613 93.08964087252242,394.66801607726154 88.92807424539215,393.82799696426696 87.48591909521244,387.6626220006825 83.01112005789608,385.9019859285703 79.02574128267275,387.1804673683944 77.45756867993262,389.0642564071229 74.62783173274525,395.99583262282863 73.98938580681444,405.456780830865 74.35403756840569,407.7278046196499 83.11969092778274,421.21557693095986 99.1853915104517,436.3778431211117 100.73852845230785,436.51918340669476 104.45181719254265,435.3520443636173 111.09740271587148,435.742354100287 114.73700305175434,439.0847981790347 115.09192040179987,440.92961648212633 118.49270813784838,446.3987828697053 116.82602016203114,450.97490364462124 100.18858257177163,457.8781785972918 93.72296955450659,464.0573293276286 86.59580282666107,474.2322559681804 86.20566973306663,476.4609104154208 87.29147088410707,478.2863718941253 88.92883306716632,483.8623134284446 92.25973874827517,486.36399348270345 96.41527441503996,487.62487468756865 103.50022771321602,490.13518660059026 110.40039105940758,494.6414875871558 113.6592788235947,498.9548481795174 111.00111573916139,521.5044924059582 110.22840654192285,527.3967613389082 110.55946148756102,532.5553115470385 112.01500423293767,536.2461123576921 114.21256782215819,539.1936635828142 114.55107757102347,542.8788480992307 112.06325682603308,543.5645596646854 104.68254051074815,543.6480826552959 101.41490407111719,543.898562662873 93.10209305305744,543.887331191175 88.51922651171965,546.8006150044747 83.93599400183575,549.295443930257 77.25806852882589,550.1213199664985 76.00428976740551,552.6227783818421 78.03873033615722,558.4754245125075 79.1015718569835,564.3667409692368 80.94576129066193,566.5862374128823 84.23445200094467,568.4434403802964 88.29803185189658,568.843986696417 93.0196358806234,568.316043250501 99.28516562095464,564.5589945049574 110.18044323469736,558.6894851299675 117.23820022654441,551.8584545407316 123.91084196968676,547.6949505376513 131.39585503499336,545.206425860888 137.65592083918116,547.3038503197024 149.30718337753757,551.9150900908478 165.96313000775018,558.1984101105038 169.70079349030325,555.6985575297304 185.53409873819817,552.4000596923102 191.36570503614013,548.2416817386927 194.26576582980266,548.6637999008758 193.446663758848,552.8361451783559 195.93179248994394,560.7591993534651 198.85706679559698,569.0924785715947 199.68515253691632,576.1887010008179 192.8767878013164,578.3557461795258 189.71341744996153,580.6147307298403 178.02381798491163,578.6432546694964 172.61713149062163,578.2191008258642 167.6321975868454,581.9501313950768 163.03801997583574,588.2011170839864 163.0470504643543,595.2934256250521 179.07040923384477,596.7011118343403 183.43394446449108,594.9126175446825 189.68322534204376,594.9222867347884 199.98929806215645,596.8123291413456 228.5637972836372,620.5404329210805 227.9944929199217,627.9277025398662 229.66856860450525,635.020118635299 229.65895388413398,641.6836111159183 231.32112270469344,646.6865432262646 235.02265062996798,650.3874168309571 235.85248432197204,658.325441254022 234.82849421389875,661.6985877134034 234.35862390480543,667.5924156246208 230.606249564521,676.6947245737119 224.84355375391883,690.138297515404 227.66303857379404,693.4371831938386 229.93461789061683,697.5343175262883 232.87681125578362,713.4882604693953 232.65298887361428,716.6495519175529 233.92137148531847,719.1941250586965 240.77104334031816,743.8987130660402 246.53895875860567,751.7288690948337 248.59527135015608,755.7298906074187 250.44867553727906,763.6546352324052 250.02967932365215,768.0547932461336 280.3024380795641,782.4175334378667 284.69970309373804,786.8500360452347 283.8205454041089,790.9939898937137 283.8233492810865,795.1599466450109 282.15156252415204,800.9892340034878 281.467227199657,807.682922954123 281.7172866321767,816.2238630440543 282.30668405289106,821.7760144678373 283.76468155479466,826.5749265002336 286.6935918289726,830.1741479418494 292.14708784189236,832.267861591421 292.9889143749455,836.858582611198 289.96188137638046,838.7699061952554 286.7273705095982,837.6796593594516 281.7341440457234,836.4273311050925 279.34118060926613,843.6778840018632 276.99402830467164,849.4013809691903 275.40430000698376,852.1174729668824 273.5836743369286,853.2462081447235 265.77613449348314,856.7036890667657 259.6708096806114,861.4985196574554 257.9421120802371,864.7991401100336 258.3817780471531,869.5728856530678 258.1670220268695,875.0109710106076 255.67590704367032,880.2331625223695 251.36231174750705,884.3097777710534 250.45620338743032,888.3919359479522 249.99382183106553,892.6994680378076 248.63221395864278,895.4190928656438 245.4584285331542,897.9120948845804 242.2940402153902,899.9456576918151 240.92810373234465,903.5764585656361 241.15796598642055,912.6512221609916 242.96214590338204,922.4212314294164 243.6594215562203,927.1884857405245 255.05508619732083,931.8488625609671 263.39743882839855,931.8668912398574 270.9031544103137,931.4522520790182 276.72478149436455,931.4686902862916 276.7207774002101,936.0581155063003 279.4723282067936,942.4620437765565 281.6781197346173,945.4316448288864 283.4941643348854,949.1181583871153 287.15103498224033,951.0701912475351 284.2138960011692,952.8073647211373 282.69480119372065,956.4889250687637 280.8485966050393,959.3989467282424 279.00197147603643,963.4588848615317 277.86529681724386,967.4886949760181 276.0139471054226,971.5049637719833 275.25144272530866,975.5698483722314 274.84671776786206,982.1954679093546 274.7962161034959,988.4453887007787 273.3631266628856,995.0662940437718 272.66066043496556,996.0974938298594 265.46149716741417,1001.493210787014 265.07653529597087,1002.7312030464252 267.5745691009936,1013.582272958546 276.9674750965951,1022.4140205817432 283.08957403364326,1024.0 286.7466159919271,1023.9242400387324 296.736601479274,1022.3730012208531 313.4094835323215,1014.4551094561888 324.77154320587033,1012.6321430784797 331.0481384246914,1010.088150263141 338.03540557866285,1009.0025738317847 345.40503520240503,1008.3087160499707 353.5323904501452,1007.2381699398012 361.64590810357254,1005.4281743647698 374.36252941225484,1003.3941683167286" /><circle cx="426.4193216662069" cy="179.99812128920746" fill="rgb(100%,100%,100%)" r="16" stroke="grey" stroke-width="8" /></svg>