<?xml version="1.0" encoding="utf-8" ?>
<svg baseProfile="full" height="1024" version="1.1" width="1024" xmlns="http://www.w3.org/2000/svg" xmlns:ev="http://www.w3.org/2001/xml-events" xmlns:xlink="http://www.w3.org/1999/xlink"><defs /><polygon fill="black" points="168.40102600097487,570.8498470338172 172.84204380813094,570.3225571291875 177.39318051136954,567.904353281436 182.51060682621608,568.1890908859235 189.77162391259083,572.2388889916226 193.820372604536,572.2592935057966 201.07222295097483,576.8584324228912 204.54552585952231,578.7463569322655 208.03407639000446,579.4189966784296 210.19618076292073,588.0568204171402 213.43347430391205,589.3957106749228 216.6532444868175,585.9040505100942 217.4717777040523,581.062872914998 221.4900270302777,581.592591543153 224.72716788403184,582.4144108799042 227.87346544364772,586.2730606765913 234.2595463638208,588.7481200525749 245.18392434332856,589.4326922508501 250.28901895543615,587.6868174129593 253.51636684745014,588.4956252419247 256.221474860061,590.6551074065537 259.43876621710785,591.4559956112021 261.08632054569165,594.419182987102 262.78591574246326,595.7071783792635 265.78850944967286,595.3034225806293 268.27452284247397,581.7256515094567 284.24585280960406,579.868256765661 289.31624188358927,583.139719706681 295.01342961537824,583.3026132691476 302.17942394589255,585.0438570305042 304.5447427722766,586.081926005184 308.83291527564165,587.0567823837531 311.8069662842777,587.1137304796509 316.5365807603931,585.4795283664564 319.1655551599548,586.811835586906 320.71637595676503,588.3569161274637 328.24706373918406,594.2440336327396 335.27825616042315,590.5736963817061 337.68545800627214,588.397637115953 342.5414831662131,586.1223975222333 344.40737976224074,583.5480303506779 346.2775672536143,579.6522285343864 368.66926713319464,575.7255793490943 375.0255476291382,573.1879035026203 384.8777846628083,572.6548525949837 389.7665531799983,570.2028573220658 395.474537984474,568.0750420252605 400.8911402307285,567.7661986372865 401.5050941768126,568.0594282421768 402.76415216912625,572.603258840697 396.9405042870345,575.8976396938572 396.5720747815172,577.4335308733469 397.4474919780033,578.6302755369715 402.5006255008609,580.7286981101529 404.5452096123733,584.6581080357544 406.0759764239657,585.5910821940652 412.52999407722797,586.187408693001 415.75661759560865,589.3791529909543 419.703979224182,590.9216255272822 420.9481810769632,590.6353119732469 423.066130703211,587.788795327288 426.071871099276,586.1071973618532 432.01390711279964,588.1540901093045 437.16089426865824,603.2353993895351 440.23227356920546,607.5784136396499 448.79194722449563,606.6140480665812 452.74436520173526,605.0763296010732 454.2949504622513,603.8754169636154 457.3951534295634,604.3012488851905 455.4364564569519,605.849414597889 455.9980860019386,606.7718397553498 459.07980673073655,608.2959531137168 462.67695110849627,614.4542518052837 472.59211166634304,617.919561035617 478.5866743340078,621.1684678449617 485.7688241178348,620.4710772540884 489.701824011668,621.7490278530084 491.240453713398,622.9432922989954 495.16914131738673,631.9993559399913 496.7080431472689,633.1874915990237 503.71641267719957,633.5255820421528 509.370109299285,635.7274893858411 519.2131752738469,635.8194001415777 526.6770649961027,636.1188805534684 538.1059140225703,638.861839608162 560.765697656808,644.0141098819913 568.9888530495886,645.8003314505032 582.9411926104539,648.490563890494 594.6227692712993,650.4951147242026 619.3259570480955,655.3041985243545 629.918408036361,657.5418805276448 644.5454303633686,660.217404777044 649.7878886997677,659.283570153754 655.995428964646,657.5624992099666 662.8566404453342,657.4339082873413 665.4096991510087,659.8717859429261 673.7635706295612,661.4204681999507 675.468806796082,666.3806699529492 678.0333204646499,672.530802802758 680.4309844055715,674.4218432103345 683.6614841793603,675.267361834472 689.6465258641039,673.2168598999464 692.9630006443457,671.3255568769736 703.8418532687444,673.268174279241 710.0404001660821,673.9931277763907 730.4057223823095,670.053648397881 746.5771171452893,669.279303647698 790.6541396382937,668.4923589177698 820.0034961898314,667.921029549113 827.554980739807,667.2918872284621 838.8263476527032,666.6192795177209 847.8851444498715,665.3817880041545 851.6890234979444,664.5608898381926 962.4030603663347,655.8396245481883 1024.0,651.3182092963161 1017.8405964297876,571.9679563758522 971.5306545391187,555.4852344422475 961.9815633950844,542.7102921556443 958.308735816625,516.9066820371376 951.4057803511871,415.56412803131826 933.4612738577786,316.89662000796693 923.4100587835536,298.4344923353461 907.7900805074014,283.33080075648303 889.2225181550916,271.23529374123393 857.7275358835351,256.6911578120407 840.0119905802251,249.96844367403327 813.8206448802853,246.5702777768172 796.3587156889549,244.8111169878681 757.5801508389504,239.68472145040909 734.3792293854272,234.3795897342428 642.4282977659972,189.68181644692106 586.144770979509,162.46724331099574 547.3050325076578,101.06573100872379 489.6217268428147,89.38019423303786 457.5704508429517,72.45402599921351 418.07817688782484,43.88931268202441 377.0000134597386,41.27516295616681 342.9367150238901,32.37239046653508 364.19702607871966,0.0 319.3906698592803,15.348759849910834 297.1619915851389,19.158741379967523 273.42282676624365,32.17772238169016 271.8690525780347,32.19410255996945 253.9122455261777,47.02278350830011 250.50873794923555,49.01956067020444 247.93253251211016,49.73076419407187 243.94367346381216,48.57534381567177 238.52135242337104,44.998019157909994 234.05009114379507,42.69745036663505 230.58506681128412,49.29858821386961 228.137467823038,51.782282619794046 216.41747898591655,72.32846848492625 211.81695107535393,75.46433592394783 212.35408308371566,76.38454013723981 213.41753302376327,81.82745008081451 216.71515867386552,85.6843728027892 217.30224026544485,87.25273997440593 217.60734867094203,102.80949035397248 216.841771156355,105.01456126058372 212.8587402436083,105.02853866578778 205.76281875819694,106.2695397276392 204.2997904175935,107.85120320783369 201.4109967592872,107.19121717838391 188.67401639302616,111.44726128862374 184.99273125963168,110.24188933619598 182.7705078812972,106.15141102874315 181.33721204440602,98.6802820794386 168.4604848226537,107.76665195713406 164.07420226515964,114.37031164845473 159.89331364570432,113.49506847394207 153.9779247957769,111.26089577589221 151.08532047555278,109.79037074813641 149.2607931252282,111.4383333585995 146.88320903212144,118.93916518635638 144.11529028633888,130.85931082496313 138.86575548852426,129.80078232141284 127.7018499287885,123.5314201188387 127.0656604038066,128.4003785736462 128.23835673431628,132.89906723334377 128.2620372772705,139.2595104023717 127.24867773148924,146.40787516148532 128.23614290116882,149.9402290571802 133.53092760161505,157.7964946370506 135.07953581933413,162.08912299852864 134.9472965241123,164.51455800180338 132.37559837390504,170.89716217219268 133.02053912441195,175.05139419935318 126.10237269058823,176.41348994627447 109.40676763519002,176.4807347521882 99.8029504820903,179.18461260190026 87.29707675508797,179.33057138694966 79.71835545319688,177.31155178825213 73.09901977644708,178.10283212510205 67.13705125239696,177.56169246662063 65.23644022856664,177.85651004858772 60.09257232638174,179.49989750640378 51.64296783451448,181.67014942356337 50.093698003232134,181.38258885612873 45.15270123011982,179.2706217029084 41.18541531733864,179.3862003252699 34.40639603240482,181.43639718342945 27.865639407723336,180.44615075952134 21.57264178769505,180.00355688001196 19.426625459950703,186.39508394787424 16.87847103298375,192.78249558235444 9.999446084167506,202.76615249400055 0.19709569452593806,215.41033376602934 0.0,226.91863100767125 1.753244466292843,228.31463226591097 11.117204533056377,231.7222576954298 13.593049734736896,233.52167469959795 12.85840563132582,237.9911212321697 14.642462364747363,242.21303294587983 13.141571104002317,250.70863757171554 13.620795688869165,266.7529472534347 16.02617819769081,275.2262668036141 20.179336449937445,288.7132490033915 26.084990602410333,299.39994140371346 28.9296260560079,304.2277659425885 32.61946139709607,304.75511102527656 39.11854582359338,303.57473687884277 44.01162203101171,302.28570919282333 46.32009901199552,298.9060558373143 45.63199329152672,293.95615536194225 59.52319583377296,292.6965889282895 58.63162578907559,295.3500165093306 59.90815975695862,297.9022076988886 57.035602415121375,306.5191710731259 52.88948914063201,313.3963603920078 51.29302914717038,317.6960988874058 51.60208367077981,320.6492529176711 48.41049567523845,324.8015197788188 48.414683616158655,328.0028696430775 50.80826450198818,329.9088224606215 52.87415133335735,330.7149473389377 54.9636894987184,339.16542485075826 56.624483274473455,344.9754706834645 53.197989455203675,346.59768352801234 53.51890048436948,349.48437356125254 55.61077760412514,349.5619116610178 56.1635973648251,350.7255459105913 55.70645152526922,354.7750399785521 55.84475613788644,358.94472184716193 55.099667028212906,360.5508291691572 52.162233750017066,360.4948349489512 51.890087095747596,365.5213370698373 49.01978374771002,366.17758506505544 50.72731069263665,370.2728504248441 52.416108018117846,372.3987469336716 50.37191966384421,374.9156232558313 52.342856457003776,376.83982427302544 51.200539276557414,379.1605314888881 53.04300398584042,381.2638893909086 53.36962827240741,382.9123279498859 57.83011356175328,390.48960498669027 58.31519801618639,396.40359334842117 60.242827920697536,408.22593671030296 60.98431771960478,417.06760178781025 90.30241259887669,423.6729583950815 91.06631569678005,430.61105164251353 95.2876795901897,434.5199226296852 97.3622418437903,439.9528178562215 100.7266804510292,452.8786876613044 102.6389988995661,467.1642174095489 104.38913740699337,470.8411179306231 108.688878272849,470.54052240334994 111.41093660863184,471.6622726279758 116.19815991128988,479.24388738445975 118.5823471117304,482.28340977960426 126.87731956463382,482.9359326974921 132.10912886162978,481.50788185649714 136.429039921468,478.7211484521555 140.5578915429186,478.7252435230276 145.50590717077478,480.02512953987537 150.56637652783027,480.3571111823115 156.81087709003359,497.61531072089093 164.30054589993927,498.3506998427597 168.10292103652137,502.8123434724068 169.5543539947518,506.0275200415367 169.95509047377197,509.1941703964584 166.49574974323974,510.28974965150843 165.40805128479,520.1465710921427 161.9041649937427,521.9004513719922 159.67490406648017,522.3781697018135 156.00084806455743,520.7743734343569 158.52396470284793,536.3455723969423 160.08116327245008,541.0240306915441 160.37302760717597,544.4779824873527 161.23417200849502,546.7824934633938 165.9973038732691,553.3459858059857 166.99797581628405,556.9748830779848 161.0084090818066,559.5242810372788 158.59254413023504,563.0173603902215 158.3202648751831,566.7948303020044 163.95840136269135,571.3906048521753 168.40102600097487,570.8498470338172" /><polygon fill="black" points="907.8414297575854,165.67402299803433 907.4981404200665,169.9947180977345 905.1192166642505,172.15908931858024 905.2189113714932,175.0970051165258 906.236468030419,179.31840389493203 907.4290629140207,180.77266701818195 910.3678102022254,181.86668287764024 913.8273563071771,182.47446543228358 947.946250402169,182.2843240809845 950.1853494911336,181.21264173903558 950.8053961229687,178.93536942009212 950.6546074306835,169.5255619375211 949.7886617264746,168.26891188007312 940.596819312716,164.79730231912112 909.3870804291664,164.80170520545977 907.8414297575854,165.67402299803433" /><circle cx="622.8635459281953" cy="492.58731340892683" fill="rgb(100%,100%,100%)" r="16" stroke="grey" stroke-width="8" /></svg>