<?xml version="1.0" encoding="utf-8" ?>
<svg baseProfile="full" height="1024" version="1.1" width="1024" xmlns="http://www.w3.org/2000/svg" xmlns:ev="http://www.w3.org/2001/xml-events" xmlns:xlink="http://www.w3.org/1999/xlink"><defs /><polygon fill="black" points="441.27821309611966,924.9059734491117 438.07305127268694,918.9733937573403 437.45143137743247,915.8399146976684 437.9166378758797,906.3834301211676 439.5149470236269,898.9719164690357 439.61651470945003,896.5588519938174 437.6642455139538,884.1196225378513 439.6565899369904,877.8339505313329 443.1110934705965,874.4926640908466 446.42719452086027,870.4656160530692 447.76588162444375,866.2422911400068 454.86535130461124,864.5385976514415 457.0714299714929,864.5448312548492 460.8373144971467,865.9368610699833 465.13439419971957,869.701213031728 470.250564915362,870.8951683541036 475.85076053693393,870.8816774380364 481.05717347997717,870.0513604840698 486.95720560080827,867.4531218651438 491.3848487253815,866.5269405685365 494.5696384918151,866.8806664654505 498.58752281338565,868.5787571139058 504.5742126968968,868.7518908720123 511.27570039456737,871.0605062259657 518.2871456332214,875.2446685434613 523.3287344357308,878.6950376155128 524.0037622657895,892.1230099646342 525.2637801677059,894.7921090527224 534.6033605097822,896.3783232971903 537.591020232092,895.8464107320544 540.5574133004934,892.3915608791666 546.4343398248903,889.1166337384238 549.6077361559016,888.7218563082554 554.3639178679753,889.5755438383766 562.9377379533852,887.0711684896688 565.6272368842396,885.8883523888417 571.4367068723915,884.8321899437897 573.1381261933107,883.7670986349874 578.4909539579319,876.5325524168126 582.2446605709283,868.6978430665785 581.3706210717799,866.5669114905968 577.9224794262256,861.6380606890799 578.5546258166112,856.1032167736766 590.7023658694485,842.4102579380415 597.0373150255693,840.1623438214383 606.1159024670536,839.4907290466853 614.8059109594885,841.4170322117667 616.853476213862,842.5752223870701 626.1477475995137,857.168179827708 633.2502951126901,858.9445196635584 639.1401960053356,859.4836843562747 642.3912932610509,860.501293418709 648.8287053625131,859.6012768870689 653.3458375244661,857.618171024214 663.3412665776079,851.3433608610984 670.8039160157533,847.895436395714 680.1118321207789,847.3295186004132 702.4650257110803,847.3723419761412 705.2852073746473,846.7405021712159 708.0803955599768,844.1624344484599 707.6396388128346,840.8079827049485 701.3756609450409,831.979912685983 699.7907825421286,827.6035948279011 700.0784527747867,822.8517064218769 701.91078345959,819.6139926070729 706.0198520315063,815.7872750849573 711.7850019140575,813.1830535301405 726.3051778847516,808.280390298301 729.9232513994538,805.3671677170586 737.5901627389504,800.5103898812366 741.201130571623,796.5897397563172 744.0127121561621,792.2796982610012 747.115712397917,784.8697739664998 750.472782652873,779.5325416266321 756.5110103448812,775.0712022363377 760.0324761203876,774.0481540816463 769.3333912949851,774.0751890781421 779.3564260238625,772.3190018992434 784.6205730320809,772.6569684895983 788.4990448356051,771.976264313126 797.8072434936345,766.6310988014804 802.4895990236395,762.4825429563358 806.7959063249218,761.725948517621 817.6103242646279,762.9826167790659 820.1290991506394,762.6761042479932 824.5247296431722,761.0511859858914 830.0031638393689,761.2400263715358 835.9372891719308,763.1886126347251 840.410070129732,759.2530664520659 888.105182686318,685.4215894144904 885.7635929296068,682.3517680194354 869.2345065301554,653.763898442141 847.4502612441571,604.2252530199701 842.2049618523777,585.591236707063 836.9103262231804,546.6293512224852 836.2082379295935,528.2652960390428 835.4974196093102,505.54039436206097 836.1657244599174,491.540349835415 837.6809019330772,474.03901748465603 840.8857435846776,454.7350128890479 843.2073710296255,436.34112757114735 846.4053538268971,414.44268545603666 850.5078921067761,388.93720451785487 852.7187251627564,367.6760022911079 855.4673836222895,345.0554645277464 856.0689725309942,319.6888606871836 857.699601120267,290.0842811675551 857.1311833141934,252.72334503973275 855.2119462517123,236.5828911774795 853.2168203023649,230.60446069289674 856.1502055520966,214.51891085784462 845.8295462937107,141.6766020895758 823.0634235636219,80.22978805231048 779.5992984033446,26.23487370499936 758.2415487748691,7.284934769250867 726.9146041334012,0.7976351435769402 679.8817857729523,0.0 597.1724672047799,27.59859170972277 570.4288337425054,45.56196499855662 527.382712184586,88.25976274354264 460.84501230119855,120.39758320065903 418.10035728405927,132.0055849798257 372.9668705653509,145.6508359354931 285.071716721639,163.25272448049554 238.09304811371985,182.40342229289286 195.3691739261727,206.09828365025442 164.7335976455482,219.69884720101913 134.8041098784813,217.57600194875715 141.37355443818802,236.29334097415074 146.3452669842411,250.93981349673652 146.0366437958335,266.8332944168684 149.44515671920084,276.543552209734 158.03972309688078,282.7800039044365 165.5417064430372,287.74172576839464 167.2133353512848,291.33688238691525 167.05450513423037,295.1225028386383 165.06270345405312,299.5297070263123 161.53014343332637,302.43928765729913 151.62575823432826,302.38349567211753 148.64635936173696,303.95767584700707 143.53041000659255,313.3433029856395 142.32459127055554,317.58382349598367 143.51501550338222,321.2834165820002 145.67077575656924,323.37786168289824 149.13168906614774,323.88574664798534 152.57526665858643,322.7067053899583 158.04111023578335,319.2922221703195 162.4576768609743,319.5911465177529 166.55836061539407,322.50474176318835 170.51335260024553,328.26934016258735 172.6389183695487,333.5414213206733 173.31165686321745,338.63036574493515 174.7441308903578,359.3069257735233 178.83115007902046,381.96219805114197 179.49901358936043,392.495924386684 184.14873500693594,407.4132913163021 184.31269953544185,411.8886487522416 181.3383751475485,416.9736332252422 172.0219545701797,426.8630657544751 170.3236253494671,435.3706629624603 173.6217579162759,445.26891596777364 178.7707417216302,452.94704762783647 182.2178870023243,463.95483930120133 182.43858402025597,475.50935816902995 181.96528313250406,479.8072888432823 180.12195960188242,485.61804546865415 180.10923311393086,491.7494867483182 181.73109826681093,497.7815997076874 186.95071857699577,506.39583233130634 191.57708383153977,511.94126524650824 193.96427114091455,520.110771077301 193.9137165912016,523.7955909476583 191.17550828670235,532.4188759555849 183.6715822296088,538.344056451888 176.92098194340915,546.4788558857956 173.790521004245,549.1872616647415 167.07361639837563,550.1759552167914 157.43183811573147,549.893605020349 145.9862279866514,550.2026788156381 141.93033761223288,553.3683434427008 138.76859361783497,557.7051040130879 136.5632171684878,564.1834659780118 132.3401603064995,577.792774920471 131.37498900207524,582.6603055602704 131.21487217616811,587.7546413238368 133.4870028524095,602.3057245263146 138.29336049570438,610.1678241016436 141.87278877044193,614.9172150276258 140.4389208921408,617.2375125313818 137.2588512688104,619.7500338641935 131.6060657849288,620.688073252581 122.63928882928118,619.9727442598248 113.7565949028232,613.70337333494 105.25979987384147,610.9332475205299 103.19309219712335,609.5541243006226 102.88583171592079,605.1634324709803 101.73466847482223,603.6357438298692 97.40939961254102,603.2352830925676 93.98927461992392,600.6751603113588 88.78874078467176,600.8665965918519 83.89036823411398,598.1835159807063 57.62189983594523,599.0458574149953 53.836656474617506,599.8354106525762 45.701974428266055,598.0979921545702 43.32101276891767,593.9454300895554 38.248771268791074,592.769043344568 25.760304292073446,594.7732400870425 22.945200350542688,597.6551192648406 18.635149022309427,604.7519896438748 17.959514679328798,613.4832420697351 18.703808407396618,620.275878972665 19.790658610062565,621.7070799483967 25.16595073078731,623.8822402111418 27.269790850929812,631.4211879673164 27.096119114211167,638.3277681523552 26.512646570261882,641.0397596093266 22.62526151263208,645.9745571667811 17.050218689067968,648.9616286026376 11.673236826558387,652.8877091744273 4.534698666596696,660.9543151250199 0.5748757264998697,667.3984074415114 0.0,670.3166077979242 1.3585893840605507,677.7558257146809 7.20645486704841,688.492345483155 13.715423144357677,696.6214429623948 18.463273841758948,707.8035858300525 21.954871496977862,718.9855786008995 24.93889705124834,732.1179806904137 23.81373595109132,746.1282022547823 21.753584425761233,764.2852571542771 30.030187735437465,774.5997943186616 27.955607610527498,809.1487808329623 23.700434131792253,817.7732837423583 18.406031308938072,852.2040919078001 18.40756620535286,876.3727398775619 14.022147827682904,910.8075828571274 5.407433268993454,934.0715313128641 4.858636642729267,954.3936668326144 12.554065276096916,983.5147519186409 26.647775525168097,1005.3156485012042 38.858415986963685,1015.8006968328922 43.01062912200458,1017.4111463813595 52.13109027239403,1019.2946177268568 57.376365377126035,1019.924519994584 80.40174822005321,1021.8645525945573 106.26475387860316,1023.5804552618338 116.4289236084659,1024.0 121.64894731580779,1023.1556462143772 125.55819136678306,1020.4293686572864 127.71174482415852,1016.5215808103422 129.3018209247231,1011.865567183888 130.45197938703674,1002.4613825261864 133.16363437887193,993.5477872608208 135.52484675210093,989.5107753402815 139.85598289924667,986.8428224243015 144.5325728394033,984.8993802810326 155.52699476958747,979.1045130664612 166.00108077497543,971.9058139539023 171.72022792875532,966.7596775869041 173.31800982129613,965.9841028587731 178.9670948397274,966.731424568597 181.21500340111075,968.8958843827829 181.6059078183452,975.3866301133647 185.08083614483635,979.6484513372269 196.4009732851988,984.4053473574888 200.37439545318836,985.7088901709792 206.92974113109332,982.9833914264556 210.42139839058876,981.0336374728495 214.38817973450762,975.7971058595402 215.64919536399273,972.1107657277474 215.51140941871887,967.5865257638338 214.11796009661666,961.3879358178561 214.45895626093576,958.6669163102948 215.7926960466137,956.57697148125 218.03794637998467,955.524667183794 222.6951760025465,955.5906858212325 225.90699009453337,958.9881687186912 232.7209027230213,969.1563832999772 251.11113139349342,1009.0686821559257 253.2812679643075,1011.666011436078 255.48579501275074,1012.1159237820374 257.3509964812863,1010.8876501553926 265.8287382505236,975.3991848086803 267.3902370053314,970.7535893608539 266.9977555584877,963.4655855699575 269.1007135607383,958.5526124997411 269.4498236236096,954.4543573997211 266.79646527217454,939.1950264315021 264.2892995681305,930.4974729608871 263.4967950376069,920.316691851763 257.1465332174629,905.3281711665849 256.40802632013066,899.7575718991513 254.5611039264375,894.03816771396 252.43111642445422,889.5338594983845 253.79246871666356,880.4811010673963 255.37706793510367,875.992468334538 257.88453211254716,872.1448128668735 261.8584395039969,869.0447236215595 291.7788128241253,856.1313628991668 297.35407701933127,855.562983614293 307.76316861510224,860.4124804874691 315.8947425320642,862.1321146829505 317.16910148732245,866.2865441360094 319.2191794893569,876.4967047230083 322.76480626654825,887.0198017099608 331.57534080838866,899.569685480447 342.44067769646074,908.5633192060847 359.2780994812822,915.5950645682624 373.0683883498489,918.9241842120158 391.1831565088833,923.8628424571244 414.0966545722081,934.7885526831503 420.9430753890742,936.5140916898716 425.54690587726355,936.9084666769509 430.2175818243377,936.2854362723015 434.4137270616062,935.0766650008109 438.86408046858344,933.0717508400883 440.0526873036118,930.5623178485894 441.27821309611966,924.9059734491117" /><circle cx="530.3188706917005" cy="311.1832035726029" fill="rgb(100%,100%,100%)" r="16" stroke="grey" stroke-width="8" /></svg>