<?xml version="1.0" encoding="utf-8" ?>
<svg baseProfile="full" height="1024" version="1.1" width="1024" xmlns="http://www.w3.org/2000/svg" xmlns:ev="http://www.w3.org/2001/xml-events" xmlns:xlink="http://www.w3.org/1999/xlink"><defs /><polygon fill="black" points="635.0423347441488,0.0 614.3135320386677,28.476672247984766 600.9373997211745,39.73296822323982 589.0525636246522,48.08811090347979 559.2158305686015,66.9318117145367 549.3742643343272,75.12117637558515 546.7161575089405,76.98400064854195 525.894830359984,93.79390321115795 477.9743178530607,155.84116499402398 452.9533901957165,189.35943160683894 450.12870599574387,192.72398020575395 445.87152124807176,198.33506402819216 435.65944371012336,212.32918529457322 430.0704601418242,218.44672266236375 423.17684099535984,225.428136720593 420.77792866244675,228.11560874993415 409.8685825615843,239.08285750771995 402.6333356596087,247.19471407020546 395.95176852960356,254.0085199213869 392.0866133099328,257.5563206495875 389.7615345972104,260.3068941771634 384.63174638078294,265.2558851278934 383.1654745910257,267.0884811788377 376.20776125593176,273.86529992529483 373.5469473646667,276.89542459175004 369.5937389788461,280.6574822514076 364.57376546535374,286.2855310098945 360.9190948665293,288.58703741903764 357.5709276089034,287.51489408042085 349.4497706368997,285.7765058579372 333.33770682946175,292.7534437968901 311.68521128582637,301.7355328139123 301.20111779856813,305.310157598935 285.675545883297,310.98184051286194 280.9666017798836,312.60569193341587 277.16087905143127,312.03436933516446 272.22174689500406,309.36853452212017 263.349602314715,301.03168212833907 258.8240544794234,294.620540808791 254.54281441975323,290.30764964623074 244.8601445009414,288.5052482837534 236.05683144009666,289.7133652643913 224.46104922318196,289.33656093809566 217.6972551292851,284.64185168730626 209.36463531271224,279.88282073018354 205.8341128270234,283.05884879628456 193.44053779376625,301.1658648151322 187.89139319199955,310.2329746826654 184.64172765949246,326.2495923004998 179.46961017768322,332.9475689782013 176.4548870948691,340.3067269881067 175.9157288064747,348.6513943926134 182.33333985349495,360.4876058062855 184.19081908587594,367.6946845309051 183.05059606457704,371.4551497868579 177.76593843891155,369.96883832674985 174.22433706906827,369.2360072321594 173.1096351576835,376.9558953184653 171.79815724904594,380.8335017124284 162.88030977415383,380.4917841384463 162.77686818809264,371.9367362486321 158.341581243375,370.8362363451615 159.85374418512325,364.31618347380913 157.51598839454388,363.84483244252635 152.61259328089113,361.9053601031669 145.57339949546486,361.47953544135635 141.6032261617914,370.04864510537254 135.93905339855837,369.0647762941303 137.87965636226468,361.27272463925965 136.78639361431183,359.7320369928125 133.37028778678155,357.4840820210484 127.95562995671594,355.35898775946794 119.40870543096948,355.411515765372 109.48821398783942,354.8076446285788 102.8591011429934,353.3836417525042 98.66564131341504,350.8318832904066 90.66787276878917,352.3817465411279 88.1408520299819,357.966461289437 80.42022312227986,359.1146151945967 74.41586212726348,360.20417961809267 68.74020744394151,365.51547190249755 67.40259582502945,372.5616223175209 73.9278951900033,373.83246424653987 73.6632913021534,376.3499513708041 74.46377451807102,380.11837516748847 79.13815364258562,381.79859138495306 77.73542876486995,388.7028702948908 77.17132163844035,408.2385044790443 69.23790248754267,407.86176033890627 64.11955666581294,400.9399133004289 60.35145411520145,401.4005350637268 49.45048494411831,411.7710806637683 40.048982258241075,424.28406580689034 38.880815848930965,433.5002089039873 41.22237486569058,439.5529267829113 43.01210759942468,441.2018595376578 45.91895405686998,441.48980040878246 46.00349730234555,442.5481318384552 48.06799456415938,443.2504647661534 49.8650324901164,442.6516474260105 51.60063624758606,443.6446553252774 51.743833475004784,444.8166486000648 53.77972183880764,445.5998005966293 53.698279515245694,451.72063074962057 55.6731610969076,452.6148332903392 55.69508093518923,453.520069656215 53.77350194824776,452.5342999596297 51.32013001047693,456.57217592809275 57.80320190562921,459.88223350657506 56.57015822475376,461.63131053396125 56.65334175498373,466.0248535197492 53.81112642790204,466.23859645981815 52.18604032707466,468.7068993181135 51.800646979454534,471.7134740454029 53.03919368451662,471.9679310397522 49.3693771240493,479.0055942831534 47.52446332580795,477.97088308470063 44.1631977282942,483.5091257802626 43.303269311696,482.81328460407553 41.7239386890224,485.4174057900401 44.65545460361462,489.5440703198757 38.22339069338517,497.805730640418 35.75030333982645,504.2988722338681 43.75781203390197,509.6119800191093 38.788949268108915,516.7787022172402 41.294422487106836,519.1512175884948 40.1177275593024,520.6542068045007 51.299787632796466,527.3931017741593 48.957526854640676,532.5938579746974 47.50332154362664,534.3802718588073 45.17085233951047,534.5038877036468 41.40389618567802,533.1380536792585 38.79404139086906,535.4528715658639 38.461397334776414,536.8112187442256 40.24707624331567,539.4659329212309 39.64513666423005,541.9676490589932 37.83479593174577,543.9373561940158 38.49374332030465,546.2416666658187 37.61877967802361,549.2685067240507 39.41059277678902,550.5184440237268 41.107521754995844,552.5361977566814 38.48586265604197,557.0761427583047 38.86160418966739,560.265009457588 41.740504140022274,561.785785024543 41.76913551911121,562.4944785261788 39.79622249602119,565.303622142512 37.93738125541236,564.8839463008414 35.94977839518212,566.7907977937671 35.072447982151786,566.884135535935 33.40888546018945,569.5173227550873 29.46007119412207,566.8239904673042 26.367411900996895,570.4095061988974 25.35546895131899,572.0818173047678 22.775494030131803,568.844958512228 19.726129267472654,568.0789280635236 14.911508968660115,572.6973758416568 2.650878491895938,587.1956537947569 0.0,593.3671920018348 2.3229071727610475,600.3160641044217 5.347742692062312,604.0151888610847 19.34174914078732,606.2898078467355 24.85684722895358,610.0737892777988 33.45304684198895,616.3466169183637 38.581486252000616,623.9938064569772 45.242487454595285,631.6909391566114 51.436813156455585,633.3957384116306 65.79618725602647,634.7935129030535 78.86212608388797,636.7499198770512 86.52446624102299,642.9811502053459 86.94630464919969,650.7704419079746 87.94292209247244,660.4939592678409 88.43725294760462,663.6655605191213 93.47338706736073,674.5828912569032 93.79798301183406,677.576623017148 94.18490022953104,687.0088159409847 95.24308729882074,696.5087958963525 96.20796927856485,702.1546055698986 99.16324533407767,708.5230603176522 105.303419848808,714.3303424969065 107.2037212277092,717.3184531640306 109.2836672305636,723.9152699030283 111.03723438016287,727.021020690478 116.63934106367158,733.3109887116028 121.1416937437012,740.9344230823951 121.77747171594905,743.9262957213305 122.74404138695228,751.1341722109968 123.67921282142562,763.7135254277946 125.91351120200686,769.8807378192323 126.27741597006984,771.860911866385 124.29985488039057,775.3308486749926 116.3664489514163,784.6610797605352 108.46719369596445,795.5737258887107 104.92273255473333,801.0105561307962 103.56079479811444,805.193172852553 102.01481650036774,816.8288309715197 101.41262051368014,820.1538822398544 99.94662573049442,823.7048854978491 94.1994469079113,833.9271681888188 84.40243399323418,849.9235736608427 76.04906645006484,862.6998779768624 69.70818023150457,870.7511514238923 67.85451649414509,874.203786514565 67.56785384524159,875.810408430324 68.19191401709435,881.2775236319965 70.67660712104889,888.7795415038295 71.45621839338092,894.0757774243731 71.42609012814542,896.2751469992252 67.86548029956245,900.3289143411804 60.942800279649965,913.0738628123645 60.71323501896927,914.7547626576431 61.78191886118295,918.3320720469324 62.95352292121245,919.8576748974294 67.84830729270917,924.700126940106 74.48196382249857,929.4028008871518 76.15935522947366,930.1805715367916 79.51141977337461,929.9237559192393 82.15801389578732,929.1151209940624 86.3542185264792,926.0216582868106 93.83640845234363,919.8010399071039 95.53865749609496,918.6152455162679 99.9365583968371,917.8664003185386 103.22059259040763,919.9820560133514 104.2438272648431,921.3581924567084 105.61102352325511,927.6052505796243 105.98204405028387,931.2095808186386 106.055956209932,941.5058677185633 106.25817072617639,945.1065882973129 107.89581292714993,949.7044802464309 111.16537868849072,956.4219554388 113.81733065842202,961.3392545654156 117.57012887030481,967.2240244728434 122.01221155242199,973.516755488464 125.59377628758297,977.568647723073 129.6128176562373,978.8987909877336 135.93695367252292,976.7208015973154 140.7153030151055,973.3073507489329 148.012922124548,970.9334201283134 160.14851802513107,967.9733207224765 164.6643256983755,967.2287199022417 172.14170856474368,968.3812695610974 179.89315631677778,972.2141537727205 190.14679036275345,975.2453472565389 197.31153441713545,976.373765359855 202.23558260760598,975.541613293551 207.7893608159662,973.9836659379155 217.59281580760177,968.3620856475419 227.12737678597477,963.4032526668694 235.67771441972016,956.7883950230018 242.492622645985,950.1399155197761 246.8562828260926,945.390037627389 252.277539186239,937.2232276546595 255.2806349138363,929.8460477055576 255.44805424170744,924.9805561267044 255.09308230349794,911.3495683514922 254.23290368957365,904.8190644085682 253.19987002768585,901.4176228506856 247.05834710772987,896.1508430228826 244.05374459048858,891.8765757532324 243.79667163470873,887.6596451779634 244.3801729053906,879.0548366781754 245.55020455981472,873.0695650684657 246.85575876330182,868.6801532690904 248.8953414943895,866.1744278986628 254.28905290972625,860.5553861954062 260.22180736435087,851.9580985724022 265.0916052489593,842.6811475071648 266.9732047976628,836.8145899311271 268.54864470589087,830.8405095092289 268.732584526131,827.9982407635126 268.8957436719528,816.1592869105192 269.67941576707204,811.3066036759899 272.9445749786777,806.1992990202951 277.464794404251,801.4467728987539 279.06803741058377,800.1230694248386 281.8680836580038,799.1360792402876 291.7267129963066,796.6294398595389 298.56315857381514,793.545743666551 305.5997319115721,792.4889073649929 310.3696663000551,792.4245877916161 316.4081501517024,795.3841606424224 321.8465437244893,797.5501651362897 327.4470064544456,799.2164915132406 331.2494579084585,798.7301081361519 332.8882445069125,795.1901375911589 333.313217699604,791.30488667807 333.2498799927204,788.2018674506937 331.41791601450626,780.2159900591171 332.45114234131836,776.3769805585318 337.278950438418,774.1978480708103 353.00787839427454,770.7226376356163 362.4002434205887,767.0016123615948 367.5827280317192,767.3128568210366 372.6414850830196,768.6497493944537 376.25584690642586,771.1145356674213 379.29417836579336,777.3490747119806 379.66719966819085,778.9693411117807 379.9778879451533,785.5583163738304 379.46985632639286,792.7037025857135 377.71344013164025,799.5173540950242 378.51265174772954,802.9134900541051 379.6089237138603,804.464237457816 381.61771251183757,805.9015615330511 383.33533948274953,806.380514408052 391.64719980537717,807.6878376317734 405.62851590716843,809.1017723699938 410.1166843380661,810.0245604559524 417.8713548869644,813.8398506994596 420.058760492526,815.2889285536091 423.0942990781035,818.4745539265269 423.3433030576512,821.1598099741358 425.2058381686207,822.7062080687784 429.83417347881846,825.5419152876766 434.1854895077084,830.344161136898 436.23577378081325,833.8664932202445 437.3900628734057,836.8060083115142 436.34228196447026,841.5524425113039 434.00568990201566,846.2587785431361 433.1145497487302,849.5474665961154 433.48699788358016,854.0023266888404 435.5294573037155,857.5582006240212 442.73589907442414,868.2502866827001 450.53394697793254,884.8341574725547 452.89348739541754,889.3177363667369 454.70609865478076,891.4303783677149 456.32443651379725,892.252389156598 460.19652479148914,892.3611758229608 459.51502977499797,894.4854285473617 455.8726389723525,898.4071363401587 456.27360399121216,899.4013051652374 459.14813806909916,901.411658434257 458.95452826150705,905.1976495827323 459.56187287412456,907.6147092196777 458.9728270254141,910.9825761889836 459.4494837922516,913.6919937210465 462.0172038737745,916.2411575334187 461.10067105871025,918.2455065481108 462.4102349750367,918.1201135670547 464.19831383920314,919.2741731768027 463.2436709263474,921.9576368119482 460.3121642385445,925.2053960077062 460.5491872677767,928.1487892742064 465.2502202131547,929.0551343095476 466.520300584716,929.9234504786751 466.2982339982733,931.8406169633192 467.3285359079709,932.9485317343856 467.2503752776339,935.1354785742878 466.04542201494183,936.3867567661432 465.820871142563,938.4274861602564 466.9136823054644,941.9105896072052 470.58398565417093,945.0352185394122 472.5137933104708,950.1195685455176 475.32341404624987,954.0584430357966 478.4285667077632,955.5899441374256 479.76457778703684,957.0859975272125 480.01913846786925,960.3893014407092 477.88226113621863,962.7007779842538 474.96220225008824,967.0783020350267 475.8934217002208,969.8417181553583 477.18584112814574,971.3172394134539 478.982650473365,969.9766189424423 482.30183819587796,969.6300648079593 484.38677389252433,970.7730422435882 486.57413988686704,970.5892188540121 488.06464658113595,975.2628960161431 487.72112907579583,977.2619192090098 486.22211164136513,979.7491515798262 488.82757635754115,981.4334626688961 489.71005295897515,985.788751711505 493.5595517865752,985.8656201146816 495.8908357976358,987.308397990589 496.257316570214,989.1867428627576 499.14752426922877,992.1914048325427 499.9187275488462,995.3841615942704 499.2088204195592,1000.1683853829769 502.82549955564224,1001.7406627717421 504.92302288776267,1003.1281244653687 506.7858682419651,1003.1455537524237 508.1734335976908,1005.8841953537375 512.1532443180662,1006.5617709989629 517.3684620475291,1008.893256427841 521.5541599739754,1005.6164319712084 523.608330283435,1006.233126415485 519.3163999980449,1009.6820488223813 519.4517851239661,1011.7411720643047 522.1105514863664,1011.6282176848516 523.7705375351876,1012.8635624006603 524.3989213161277,1014.3874534081701 525.7247131147852,1020.2515469804447 526.454914717867,1022.0752391609091 530.4482882870368,1021.7105433672776 532.5592758377346,1022.4322321713812 537.4358199591958,1023.0934800688876 538.509282764228,1022.9180749664268 544.7756114854409,1024.0 545.9354955709392,1023.416115473958 547.0964759584913,1021.4135455174178 549.8804291355659,1020.7915023371578 550.5897112606687,1016.1195816204055 552.0636990666433,1014.3816338635633 556.1837262636451,1014.0415600987996 556.2263738278559,1012.3764828265939 557.4193173792444,1010.8577098234222 560.9207549312936,1012.3342236893144 562.816072578466,1012.4446247818428 564.8163647343061,1010.582143248677 567.1942500261874,1009.6850565638324 571.2130640940417,1007.2667074511687 573.9038027558112,1004.153573158538 576.6330365205947,1000.3248046542702 579.1496333605148,1000.9586078742913 581.8267644737244,999.9015403555316 584.8701311662516,996.8991856052288 587.4643162445433,997.3209334128803 590.3530544665642,997.0798251762508 591.6260659541462,998.7060819396426 593.5023393193916,998.9086159241211 592.3824107793932,1000.212640242177 592.1598085606529,1002.9501330303534 590.7034989608226,1003.3036384773798 587.924814762164,1006.1679755248769 588.5911981602073,1010.7629879572357 591.4604424937861,1010.2742587705844 591.9556827989579,1013.7365716213752 592.9370742966378,1013.6322009834968 592.9708622313432,1004.5392299500829 596.6348173218316,1003.3468565867028 597.4919693710792,1000.9589072029788 596.2241152966847,998.9422921411197 598.1732365236868,997.5505532831905 601.5039553935522,997.4921628236481 602.5196060872353,995.5090306430556 603.5619428455446,997.0408172936678 605.6949884796854,996.5066472971628 608.8359381712751,996.7619065822845 611.7568659366979,995.9986867917854 615.6458492045114,996.310623720698 616.0239133982566,995.0032703768123 613.2952305383352,994.9499827386032 611.0656889891548,993.9091334640669 607.6287945157596,994.6425911233051 606.9518034171248,992.2049527907986 608.516178084974,990.2016320388915 608.1102498915743,988.550272430497 607.243316268463,989.8171557544362 604.8424972803682,991.4023808311761 603.596858502284,989.2513880799509 606.095638633972,986.4123462064018 609.0195618274092,985.1154595835853 610.6241984445993,985.4333734316033 611.8931961702336,983.8849843452751 613.8021382238129,983.2873876169173 615.5223628203621,981.0707658241299 615.8005833147091,979.3597382957549 618.0384416934348,975.5800247095667 619.4090342405801,974.4662174768147 619.7727625669421,973.1389164401147 618.6657196318793,972.0385510964082 618.2932860384192,969.9243321774836 618.755394962908,968.1972279851628 618.6212353701783,965.163411960673 617.0608922679811,962.7085478848531 617.3362993134165,961.1407368063225 616.9209674410458,958.2166059070266 618.5157493021086,952.0111761895454 617.368522234574,948.5867474181307 613.9697659896613,943.6406363433016 610.6452521921943,942.5390145977249 609.1423378249922,940.537504803658 606.5724130879894,934.0258734027645 608.714954426468,932.6069797932776 610.9678602350161,930.2996893640905 615.2030466917021,933.5148375854515 616.1651834436777,932.126194378468 612.6064268165279,929.2417358659601 612.5773668214189,926.847664260537 615.8029192426942,923.1097741559213 616.8223740017512,922.6689764581486 617.6694034379492,924.1632048448212 619.1290342985892,924.9951708336833 621.3304995106606,927.8221484191394 625.7414805976723,928.0515055706779 631.3068457520889,927.0700264792481 633.8835232682833,923.2069312011372 639.3688202091945,920.1701760289826 643.3027970197394,919.8758893375688 646.5365335140199,916.9497168029111 648.7997082598306,915.3502863477378 648.3006955139102,911.1800899587715 647.6290914396077,910.602378591232 651.0377878599699,909.4971493901658 655.4352905533137,909.0178704984278 655.0297304433421,906.5856195563954 656.4740814644739,905.0517100037539 660.0469796263981,906.7054329568568 661.0334977061842,904.9266468983107 659.8378298158641,903.6084004160085 660.6253014529733,902.1235355621591 659.4750419984396,899.3481690372415 657.5359181392723,899.3920190244925 657.5140807666918,895.3462808063738 658.2145239589487,894.8148777393535 658.0523583833672,892.325548316654 658.457498772457,887.9678397108216 657.4823603445237,890.0446162254669 656.5442522246248,890.5910688063225 656.0247102138059,892.6457820559973 655.3206695268747,892.3539999482172 654.3850618813464,889.8721236335836 656.4378119341759,887.3752226930665 654.5402115093517,886.1669260237106 655.0850565744407,882.809213910182 654.8032826594073,881.3148398007136 656.8248646364002,882.1856248920691 657.405134293088,879.6488986518638 654.9259349623813,880.1654285047812 654.5400069844582,878.7420716777567 659.885760906785,876.0309659494932 661.0339860832678,873.7328022902032 660.6721574259292,871.4446741558443 659.0488647248809,873.1296294556922 656.6730224729301,874.3757717240542 654.8612151435449,876.1890809807198 653.3714031628202,876.5422048034741 652.730185248882,874.782393238707 648.8696764258294,872.715605637511 648.8823135065618,867.2827473374048 647.9568275219646,867.6861406232108 644.4679283929618,867.2783534469431 643.809615948429,866.0238491239955 648.5758726253531,860.1384625676521 655.3034815286984,857.3222979721878 654.9555663534884,853.0623279164417 653.2764164839961,850.1951648185064 655.6188612408931,847.5100765089348 656.2345491348744,844.0301301722002 655.480841039097,840.7595610480058 657.1649174130952,839.0870535298445 658.4728660988319,836.3706190432008 661.9691573864928,836.7559310576468 664.8969304690363,834.4108188242662 660.1755971747502,833.7348843873474 663.6910473990891,829.2212132662573 661.7418263996534,821.9945071788878 663.4476118373183,819.1958821605377 666.7624355893612,816.8161349072815 670.511360557763,815.3886739582119 670.6900800161567,814.4987961192323 668.4799001460168,815.0515158847271 666.8448381254085,813.8286881651393 662.8050633965797,812.8457325131496 662.3758222531853,811.0113845005556 659.9432462886947,810.9220178403327 658.4069315204513,809.7825221192475 657.6949331567729,806.1335070527534 655.9714950226247,802.9171232309668 650.7353255310217,797.1686788576884 649.4323902823877,795.3566309744907 650.3742011026688,793.59949987704 652.0305235877015,793.3423691137879 653.7055048277808,789.9869703614878 654.2182708438346,786.137008861534 653.8934566178764,785.1025002472237 651.8399587629328,784.149544085065 650.2393125870649,781.1714729903551 650.292734214872,779.1807392624274 649.5354684035416,776.9888140420356 653.7965118681392,776.2514188860207 654.8840678664952,775.297754256416 657.5386192051151,775.6555748729869 656.117383310123,772.8861006392676 650.1598088685382,769.6715742277348 650.0104956091625,768.1685156980072 652.2223885097085,764.4948974391673 653.6859515551972,763.323814961771 654.3372054332233,764.8029235354288 655.782762161267,765.4378408797099 656.3155025941766,767.1000505266643 659.186690930861,769.271241448499 661.4203837517709,769.6320876229025 660.2478029941319,772.3202482924721 660.8340201253092,773.7503156380991 665.2425568070986,774.8613024646171 665.4580800217069,771.9494731473851 662.6374801971385,771.0744054710489 662.8317458567886,770.2663010930353 665.7195592495399,771.0808683017059 666.6222795980209,766.6653751542138 666.3726775066399,766.1661009055747 661.3133325734653,764.6913203042016 661.5355975986729,763.7011582659803 666.8253061506584,765.4051479557993 666.8462026877173,762.0597233878848 665.085146435304,760.792272680934 661.6450294191596,762.3492182102318 659.7890362832932,762.0659410373227 661.5048730737914,760.4979985475475 662.968258398263,757.947519466502 663.7642177901987,759.0304988036426 665.8923786565828,758.271179515853 665.944107503751,759.1346273667776 668.0065331514132,759.9977692854945 668.4899511217253,762.4399688306863 668.3075378394113,764.5293283584451 670.0716003603417,763.878090365195 673.566385530713,764.2942014196112 673.4559222044028,762.5475121779278 669.8197737667749,762.1061818761013 670.1344815931805,760.1317585733251 671.5120505036786,758.5965281238025 673.4159769815614,758.1727252309237 673.1298710362564,755.8972986931262 674.6759213632546,757.0256875402288 677.0369693564237,756.3635062779525 677.0029409980909,754.7110052798657 675.522785712595,752.4545848283469 677.0225951238207,751.0453081367295 677.1841487785437,748.3880731996533 676.4350736830719,747.0307342733008 677.1297638527464,744.2517944725739 676.5128503062458,740.8715408281729 680.3113520150397,740.8720875453558 681.7557160559684,739.2903530285913 683.03159422414,736.0507007610227 685.4069534177302,734.6386704043877 686.5028833074913,733.3648093173017 685.2074610699398,730.1596715444543 683.8445076656658,730.1922873904118 680.91444997545,728.8011602983712 678.1357549381821,723.1344320920529 678.9324816095148,722.0289762324 681.0507683021538,720.8788873259671 679.6147885070278,720.7696018265422 679.0161969031413,718.5920652835483 679.6238649538357,716.7665839074673 678.5638216301502,714.5492020205538 676.3349518302375,714.4666690710621 675.7378346451055,713.0982179792002 676.5802294964336,712.1594016048243 676.1218958132486,710.1924592450487 679.7182791719856,707.981048593635 678.7419754279864,706.2400515921588 682.6117711408647,703.7979302211734 682.9261965643734,701.9583367763524 684.5633693726863,701.2708698433023 683.8629970211352,698.7935886928368 681.697069784028,696.2261117781861 674.2778027044425,692.7982436926284 673.204943810188,693.8955159339232 669.4759974363649,690.3452555497893 668.0890212807677,692.883184489136 664.1895906471362,692.0685796438501 662.8834927223941,691.324015156448 663.4036532929142,690.1036646637074 663.4877696451881,687.0347608120264 664.3498230603316,686.4671892187117 664.5524215442271,683.8444540811734 661.2433739323101,684.2408348160035 662.6268048293699,685.9111662025057 661.7951108427574,687.0552250589192 662.3363187992163,689.908738034838 661.2332215430262,690.4210497382821 657.7032788235742,688.3409318886452 652.3064020802168,686.6935522911018 652.0878802830227,685.3576937621772 653.6255016742529,681.6203945526872 657.2066399140232,676.2906821387987 658.938387387077,676.3946196748366 659.7787224799139,675.5597592122843 659.181440331596,672.9523603169616 661.0806727102865,672.2392354124927 659.9560338483755,665.5677832670517 660.352858016843,663.0190575741253 667.7036437336819,663.3783131519529 669.7992710814942,662.4947768686709 671.0394225416636,657.5633028156537 670.3897435151796,656.7697050545692 671.7806474500959,651.8804871814673 673.5891478623323,652.8089538070617 674.0863258763812,647.2253401187137 678.3385579958305,646.33304421763 676.8756727658811,645.7399975858768 677.2245229343448,642.5048655128953 679.5212543959665,642.5887523971119 679.689876600692,639.0635776408295 679.1165347799713,632.6978806643249 678.1003619913738,631.6415425028847 671.0415030621289,631.0240948794376 670.6262601241501,632.5133729781504 664.7745422403706,631.3011785749363 664.5400816420129,630.2824658045022 650.7799640897108,628.8935420590152 650.9567004778985,625.8489022136998 646.5023861582392,625.5793907017833 642.8304747205153,624.808178925766 638.8360736574526,623.2749106116743 640.7440163300624,618.7246024413205 637.9322287669193,617.8577523963097 636.2899795306133,616.1962394866736 634.1714196517047,613.0139864605142 636.5606872127572,610.1053309955197 636.6731923384165,608.2281026007431 635.2319920987219,605.6659112766665 635.8396452647673,603.4724891431622 633.4191592982962,600.2337453982306 633.4993903255832,598.757616160926 632.395805897322,597.9353588145614 630.447083674458,599.4479452049295 628.4540880925084,599.8499714112572 625.8025499163216,597.179726863229 627.1983128662607,595.5664382731022 625.9681029659487,593.971917503557 624.5833509364315,595.0235514381093 622.9566879887376,592.5784456344572 623.8703674156819,590.6157901915428 621.1286848277973,588.8089944267169 621.7092471496436,587.876450807478 622.9068333289773,588.6387948503987 623.6013960721417,587.6270133282218 622.6998041370199,586.3563714550543 624.2669597904587,584.603185558967 622.4455623930775,582.6177902611937 619.8732248487934,580.6569741320011 617.9608180158265,580.3216447173654 617.7635609862373,578.0422140984723 618.3438186112239,574.6346514745054 623.9038621334864,573.4514699997065 622.6381119702261,571.0583771751415 618.4752220041304,564.8298549865851 615.2544225724705,560.4261699425695 613.1280512791567,560.7861166186074 608.3604667953284,563.9427705050908 607.634178249502,563.2120997620004 602.8591144944129,563.8878692412 602.2253332927181,557.9645244675269 594.9228185053338,558.7645410217076 594.4479123304179,556.8167213633383 592.0118715889654,557.0130758265436 590.9505633782891,554.9300642751523 591.7604394093269,550.5550251729419 591.1603485538093,548.512016707321 586.0936433578531,548.6170463162321 585.3795446920071,550.6144399484837 583.7448231540587,552.071097730156 575.5831255802291,555.7753633531729 570.1037995269346,557.945264171322 568.2096311965937,556.3288648431765 563.2832679522186,556.0036308134243 560.0914986101066,556.9572969018216 561.7203530075024,546.1959839506708 561.9715919885705,542.7735252932424 564.0557414315069,529.386038406308 570.6087333502941,527.7741633329259 572.6742155993436,526.778429260761 575.2958349037372,523.9872669474594 580.892766877195,519.6676654496189 582.6103440818032,517.8446466662147 587.2259854795115,513.8229835562151 589.6205716652396,513.6034057971801 593.2116325628023,509.47713342304746 594.873952749252,506.607876478515 596.007157286165,500.3316540592401 592.1492485492827,497.55850386641987 593.6051842627962,493.75247220019094 594.2452280395103,489.9275182797779 593.2683369662316,488.65806169338725 590.7226665527267,488.00095589905504 589.8112296250324,489.8511767670386 587.7251984459726,489.43068490000246 588.343003546895,486.24021579101316 586.1332487848005,486.1459605367139 585.9725934565722,483.14799373722974 586.7542349950172,482.424585203693 587.1701856728255,478.3198898721571 585.4991211617654,478.1744690717095 586.1220600235088,473.48951773663543 585.8288839401496,472.99207893963353 586.6792567804707,468.6684152565813 588.6424971432485,468.122885652797 588.9926871328229,466.601510326268 586.31548948948,466.30415600480796 586.7203792881861,464.11804275476766 582.9521969302425,463.26248333504066 582.8922727649729,461.9689836300636 580.9641849378216,461.2340896089106 582.1054866930874,457.52301999404676 581.1005563362035,456.8148261207664 581.4938005780393,453.6143002433515 582.3785104558027,451.38431204185406 579.7612849463404,450.16378324430195 581.6651641849495,445.3300198333434 582.6081789158758,445.33745373404304 583.2612093347118,443.330437192986 580.0420255662998,442.7750487645751 578.0671908274173,440.5839354867227 573.6053042876958,439.85775341381077 572.5271373525611,438.2883955449531 568.0905000175492,437.52329069513587 568.094967046728,432.7446002470001 569.4392949728145,429.7652356339963 569.7899069198722,426.13402992575664 569.7312822142666,422.31770853288117 574.091143624137,422.1373284635009 583.2230381048893,422.79871569399404 596.4588476724301,423.0015028988357 599.9743937516656,423.8800281812495 615.9620993832215,429.1284291172293 620.6908476661828,430.3171134444217 624.8424535728742,430.9128385278424 626.5471679389233,429.82821166817985 631.3655060847908,430.3133253970982 639.51169480402,426.67768034219966 641.8618450729821,423.94529752714493 642.8018953704993,421.4802592930522 644.1512935393615,415.70260000111443 644.5832669485347,411.6094279921381 644.6446736874911,405.4806551806872 645.1174618494421,400.30106697269935 646.3045950036167,397.6891572691284 650.9275625194216,392.1497437408465 653.5766670113459,390.1001877495613 657.8676631956332,389.1586780130665 661.4890820719926,389.3530427286772 663.2992263291269,390.1047693857688 666.0487710687507,392.29071630484736 668.7543667052648,394.9786439138941 673.6039019100232,401.60484715520465 680.138795120342,408.5109657115813 688.0196787754523,414.56093675791305 694.3702028653339,417.65648651515187 709.508050043471,424.19487394334567 716.7055422435831,428.36536364628125 720.1696711914619,431.03647627519297 723.5424406981039,427.0506100049844 724.6578294589978,426.8558189706947 725.6947498658374,425.4093838654708 727.0671635618335,425.31505722616714 727.4892106471233,423.44660365711184 730.4410733333026,423.5428451428505 729.849017722328,421.050847976725 731.3209750150377,420.6072625459466 729.4895427923112,416.63336368187686 727.4627700203527,414.8103923039263 726.4576996301045,416.3810535854341 724.8024456045774,415.4361031980296 720.1232781729184,411.5532438715737 718.2677168584648,411.8741762784282 716.911266792836,409.8814674559983 714.2570004947867,408.80476761600914 719.2214576554979,405.62790818992517 717.0809819174349,403.2492236206382 715.4908441543023,402.85889642184713 717.7777297037877,398.5459045679561 719.7789692418489,399.4048852252072 721.002868861859,396.1163861454547 723.5178883083813,396.9346972960328 722.8135542388808,399.5056345365375 723.6838302987846,399.7275142758116 725.1883192373826,397.59341174459087 729.5810238087495,398.33271977239747 730.7283802563461,395.9669618091598 728.1541634944352,395.5577286907462 729.1255415283753,393.1970098006159 729.5222258654987,394.79470995538225 731.13523913816,395.39047748785333 736.407911049234,384.9404672133212 735.8157476600064,384.23235997845336 738.4695093440794,384.4379850679087 739.321117995489,382.0749323654703 742.3212511932758,382.68610698430166 743.1906715915343,380.28405818829765 745.4863615007812,381.57834237696136 745.9815304683334,379.4556338247993 746.8788312223371,379.6667276233493 748.2821675864063,373.1228413276277 745.5398328598615,372.7020938037168 745.3607087628315,364.9984492332652 743.5155847612155,363.9066629664885 741.6391916048228,363.9323508914064 741.5358430063479,357.8820016018135 743.6787042614056,358.47667586757484 750.6467553484985,359.009605122749 752.433766217878,347.8715047323793 753.7218532018943,347.823213602996 747.8069520716876,324.80834494104056 746.7852016019887,316.3524371466142 759.0983702584058,316.4880051540464 770.5396028343964,316.2439299081567 771.5331620640186,293.7046318222358 802.4087846041656,295.24691817494784 801.645083612543,312.9024496876584 801.3767941978456,317.2432213379021 804.9281820359622,317.08611232923045 816.1908286288417,318.51949047552273 817.5724206841063,318.42493526758847 818.8539218623481,314.7270542913018 833.21305622382,316.5472006222974 833.6867254862109,282.6405711585419 848.303529549999,244.1191354224826 729.0063213100829,262.6219139344877 726.5736629332887,249.65211538887286 716.9093150287284,235.31177135398264 709.1318014514308,224.56422563544186 707.0240459273098,168.67393652179794 703.8447929793747,69.00698600204328 712.5552797269143,43.17313879468543 634.4957740432972,27.698445748114978 635.0423347441488,0.0" /><circle cx="205.9424232343622" cy="656.7942501414304" fill="rgb(100%,100%,100%)" r="16" stroke="grey" stroke-width="8" /></svg>