<?xml version="1.0" encoding="utf-8" ?>
<svg baseProfile="full" height="1024" version="1.1" width="1024" xmlns="http://www.w3.org/2000/svg" xmlns:ev="http://www.w3.org/2001/xml-events" xmlns:xlink="http://www.w3.org/1999/xlink"><defs /><polygon fill="black" points="423.3954900135678,61.67538469973931 418.85768959893886,64.82751064905256 412.8868360078684,71.14037544876965 410.26504386005837,74.44013065183094 404.0419150547287,74.25675762908122 396.64521335505646,71.68371420096719 393.06183154626416,68.76887500216424 387.6427671330483,66.01785292802595 377.6987767226848,63.05607239381038 374.854963821272,61.99076056714864 368.7891277365175,62.65791718160483 366.283358727055,64.9496918386053 361.3761854777128,67.02221060192801 355.1621071066823,67.83891696549097 350.20362096843263,67.6443958719965 345.44945102161114,70.81800702506291 340.37657022793627,72.47648045833694 335.0061516201914,72.56234116367762 331.4222254360794,69.21121409384818 329.2336354028359,63.16342163419279 313.85948306495783,67.24610799201446 289.5544438749273,72.83363929785685 261.70014972398775,73.97434054761618 244.14663806659792,77.73392201619106 219.31518649597936,86.74271330526722 190.53251810441125,100.38351986085809 167.35663294349567,107.68506611696307 147.870767457519,101.29710120130039 130.46875144513058,82.97424110676184 111.24419990868441,59.585356091912104 99.15888589091061,51.912836592188455 96.03308256185353,67.27077548508566 92.83675247084317,77.54060180804356 77.83310792340367,96.53148169821031 68.39821711936744,108.05473254355184 58.09044968273886,133.18986479720297 49.45048205271863,157.70278425860113 47.40138903686354,169.63871504466704 51.70401410370533,187.12233830438572 54.92365442055886,206.87434041276776 53.68903303244775,231.26386092348457 47.08330865074597,242.70304129308317 44.69928914961753,244.81919308987233 43.36009225948434,249.89859755017847 40.432633685836265,253.2181508494706 38.51375469333816,256.23243426498163 37.30192845462591,260.34648571625553 36.806412401611624,265.03578331619644 35.08302597822519,271.28232169163766 32.47566517693422,276.2777366087349 30.124628388731743,279.30540693455316 29.307272567257236,281.8735321908856 30.069948074838003,284.8292259563801 37.509929140277016,297.4327944091641 41.25709325088821,301.20011420413437 46.42922483494853,305.63579339293824 47.9232178280721,310.13575456114086 50.14387186249596,315.76464825357186 50.33685118377012,319.28636677773363 50.08985669441255,321.2983745604105 49.00132434567701,323.7251223877123 45.96012069860909,327.871108933858 43.58594747094175,329.6085191128397 42.19864135045627,332.02801184436896 40.11679196530178,333.93102953930514 38.56552403523893,333.9607203059236 35.32600872501796,335.26752540915527 32.96567333436693,337.8774487927454 33.01709338084296,340.70287888790546 32.52676858202363,346.0992854280607 32.029845730389695,349.2181426335087 30.249769845522266,353.20063394388575 27.771675942714904,357.34183674135676 23.445803021375237,361.1169955834876 14.969308420278516,361.96549229255965 3.158244478179921,366.4074118923046 0.2123136253546644,367.87187366076773 0.0,371.68327549235977 0.4804679394860145,374.8044681448231 3.9504910661406596,378.9900291001943 6.945364819570174,381.07559554834904 9.519854868035695,382.00697310932225 11.93627181314874,383.5235002517515 14.252428181327339,386.0367178283105 15.587327913660543,389.554156120718 16.371605201671834,394.08963024130577 15.612149580087626,399.05008408862733 16.085906444999104,402.30250102685426 17.382402539506074,403.9784781243928 19.685565916399565,405.4829754879637 23.819501739762913,407.4009202362349 26.381874646756145,409.05456659320674 26.696140374733414,410.88653960380793 24.892354300332354,412.7501010021851 22.347895405471313,413.5047445349197 19.314811966488787,416.83138153218033 17.105403627986927,420.9729587649066 17.30357998562122,423.5077604114637 20.6408360539051,429.7219288709671 26.960573988786035,434.2478303613948 29.96766454279617,432.32151643683255 32.966657068210964,432.4257527821069 35.16370750776667,433.06229082377405 38.196813384742704,432.5646279593943 41.36845034838003,430.2308375054642 44.06811242322986,427.88429961156027 48.47802374154759,423.24109273181693 49.64356309161186,422.5955394921323 52.7521263266149,422.63980588226116 55.66741038957646,424.70948519935257 57.33632825015864,427.2413155817398 57.47916056709152,428.80066030538626 56.504496180815096,432.48328249803524 55.40978282126971,433.96791194020796 48.5314234628936,441.47132121667954 44.78299997113953,447.03492294789544 42.58207988530455,449.5665824827131 42.781254337126214,450.9167523904994 45.31039210533839,453.1794432498186 46.20408341643943,453.5770769586435 49.51241298535117,453.764718347787 50.40791250502408,454.5555092991687 50.673352999686685,461.7280956533926 51.793409818163894,462.4389599066917 55.46588284719029,462.7656095245443 57.32273488345932,464.5012684173596 60.20986809498906,484.8675629158505 63.695607207292575,488.7502320983409 75.38085739983457,506.08676572285015 83.22666011356638,531.4203956587851 89.80925834426127,547.1386934959917 100.20558748148,555.4285040764748 176.91262020945152,581.0053551111589 194.63687664612075,585.7362189046711 205.67917025182794,599.084398591505 206.20447705149158,627.39872338907 210.55041811663625,645.4282790329131 214.41229645181542,668.5652723530237 219.90341465697765,689.4088791009933 223.15737197219778,710.8626393607315 227.45411909497474,731.2477799846989 225.19598811012128,731.2575826676713 221.7847693961708,732.046982525999 221.6069784207277,737.064815578319 212.56500405239996,736.908477757917 213.71127276570397,752.4100845724341 217.87764692000206,758.3874961561086 220.64153165044692,758.3818537530594 225.76046539313762,763.386935457155 226.51386396623903,773.6284608095671 228.70503090807514,773.8009827231178 230.31663807778352,772.0126096020933 238.28572512052398,771.6301586188961 238.1002622938442,773.9919991844071 241.33619560960946,774.2779011965854 241.3367807507711,779.00666082253 235.63507079613544,779.015553112565 234.77113334200084,785.0011357534074 234.5149312375014,793.7061074591987 232.6895513906354,795.6089309048314 231.28340062378666,801.7744142971711 229.10146086574653,801.4928323068622 226.62476003861474,814.7571897973149 221.78680317673408,814.6935214651184 221.38636407343066,820.2810330278423 234.77195922345967,828.9597087591213 243.41657048200074,829.1530837507144 259.78303834261686,833.5103664530167 261.39571416227477,828.1528995240575 262.8678603422328,827.7183548734765 274.8271165574468,828.7949651133147 276.59590574915546,829.3566141156884 277.3190332511909,829.0011307928667 277.73526640642706,827.1846605895815 277.61665318102933,823.4804180222466 279.4660392780607,822.0984168019202 279.6599873301266,818.1212639214782 279.89259026983996,805.0811323937098 277.81929042027457,803.5308681390179 277.909276406869,799.524311249471 278.61528826737924,798.5262240208151 280.9688956408066,797.4177388505439 280.98976121564004,791.5828024666837 282.21664082202005,791.2461021749363 287.796678207946,790.9102705130022 288.27050469637146,790.1062670269744 288.2202639116468,785.0992617169811 288.6243428785438,784.3886157100253 291.84829891385164,783.5116538228795 292.22462000957495,781.755547975855 296.70303624385303,779.6432083360083 298.3154416140591,779.3777850002753 300.73694972596513,779.7487353684892 301.03562854228863,780.8958127412265 303.1011335350869,780.9893005166464 303.30270750551585,784.3030679056423 305.85414677985375,784.51469463903 306.4242628488369,786.9455943891066 307.18334650446155,787.5610310913814 309.2905095347458,787.3565632183379 310.0700057312217,786.4132839656988 313.32267269802713,786.227745016184 313.9556426319602,786.7550066286138 314.0205088180106,792.288475819593 319.2595024855562,792.7004110275223 324.32525693423537,792.0310679947755 329.52739142425673,790.3661681309524 334.6663587248938,790.122496055043 335.246463793275,794.4575201344378 363.6213681729698,791.8346111868622 364.4740841365159,796.3106813687779 374.38896138867136,794.5847504080937 374.0868338477056,789.4928597562837 368.68294925219936,789.8608621929193 368.79131472445766,782.0001654754417 384.0697329824347,780.4336016511049 383.17110187931814,775.4171488909652 391.15877484013157,774.5585096189578 390.64184609359125,768.4039123779287 383.3077278693332,768.6265881404702 382.7014095360354,764.8859195244507 377.53956494558906,764.1841363512242 377.1591623117998,758.488374610308 373.1366425402754,757.6494406232734 373.32925652661265,754.0776912192359 379.0515875614109,752.2416286195706 386.531989670777,751.7281924957799 396.45550820179636,749.639684224862 399.068086416549,750.2120959859858 409.5232470349895,759.7532551507063 421.4494397276364,754.4483143126218 434.8506491926367,758.9417134586362 437.0322043480666,758.3727999909812 439.8895336363077,751.6390245521499 443.1034626308235,751.9397598561322 447.53476178759286,757.9208387286488 450.7530416176507,757.9987406897792 452.84067197042475,755.9555891064949 454.62777471878775,754.9198867702389 458.85441063516225,758.3043026461615 460.3941386343295,757.2753125194322 459.67585915417516,756.280842224652 459.8799078917299,749.78497594956 458.73082794640027,749.2549207674595 459.5904599031573,744.4799538658086 469.21581452429723,744.7854509698024 468.93394507306124,746.1684050843872 471.77984132614125,744.6311165852462 471.4707254585076,742.3838026195558 471.9151715483071,742.1168597440853 480.09923190859917,741.6945724820308 480.635033455725,742.050887907195 480.4590911182436,743.9083346252526 481.30131000187447,743.7788632392561 485.4151595323442,733.6582928633705 484.1624263633331,733.4849289264891 483.8002931046627,731.1896076445701 488.91404728874693,731.1975209419738 489.6232173161421,728.1059803459808 496.3101742240318,728.3920065112868 496.5753027065946,728.6567917588303 496.48635158909644,734.0439944046423 494.0964070931607,734.4486189561854 499.66383665336406,770.0445109292975 500.19155762522416,770.178395448855 531.3847574282729,775.4864852923397 541.9175984536682,776.4562942317491 546.8000966663869,776.2640183386741 551.3712322132849,775.7067716960884 554.4871829132244,774.6085713723938 562.0118582331731,767.1173357839339 567.4398902351525,760.663695379111 569.6174307412095,755.8835274934356 571.056156350251,746.5082732745249 570.5345188806624,731.8620778336173 570.7235198884638,723.4714671138083 569.9968850137138,718.8637035307357 566.4973670397255,719.7849122000227 566.596620311323,690.4062375864419 589.4911815376839,683.8946451829413 586.6378928973448,674.3472963344368 575.2100201650599,648.6224254451928 567.0675111611342,649.9702006959899 567.635068051637,640.082372710146 571.2049022068268,639.5127790321847 568.5620320638599,631.920947242611 563.487950429559,633.628239658253 562.7037343862802,629.830921188365 566.4893521586818,627.7638155822868 558.9174196754706,610.1207440133066 563.168543781732,608.1247940681143 562.7568155828573,605.5588190854994 566.0214093874259,604.0454477386666 563.0985481686878,588.2466692147449 575.2017135578352,589.6624523128424 575.6739187213907,593.2804730021093 582.2791427996907,592.254704813125 582.0964512978389,596.4080279204638 584.8124911073897,595.4860380656146 591.8161333473591,588.0792980660885 603.6542792566945,588.4867195247334 616.5853508806127,585.6791622196079 621.6273533501405,599.3499248792793 632.6001155217039,601.2049838176151 647.5573011252284,599.5974769050249 643.3682419926771,593.1879772830536 648.154680229908,591.2740269576775 583.5705965190633,450.8668452115446 577.479805070501,448.1088600864286 568.7734570316431,443.0146332288208 560.2543861883795,432.5174594465992 555.6908403934754,429.4639174998055 546.2562081070649,431.1495183808045 531.8890905391607,433.0956169029644 528.1955863367504,440.2059250453615 525.0038012125251,443.5102415725326 519.9303275698063,443.5942181037203 514.719054934244,444.65152457270034 510.9774070950233,447.8224362144084 507.4055739902426,453.4101636652862 507.64321541578556,459.7605779002167 508.8523922322515,465.856523366274 509.14754642557193,476.88774776203337 507.92213098293786,476.90435930074824 507.6224417725969,478.6564972404706 504.8738281660677,478.7251416264807 504.19750341073313,481.0887598488675 499.7722472788718,481.4733238928216 501.01870411476045,491.60753172098646 506.872560152435,488.0395748605914 509.4061338157259,500.36927111869375 502.98087909942615,501.4671742083813 502.8749886369044,500.2457068754956 493.4493659323078,500.513524428877 493.340513254306,498.4363024166299 491.3746686850225,498.4311950046379 491.28475604370294,485.4675100410071 487.99574774143815,484.54659472710904 485.31375707081173,483.29723218909874 480.1215735686524,482.3940383703311 478.63514048107925,474.43072126058127 480.89456881166484,473.88366600227124 480.0966809729679,468.105275722278 470.7656474369902,464.94133131508136 455.1596510908997,463.4951969357821 444.302838413192,463.26595787930415 437.3247599506653,464.5254859013897 431.9965914890429,465.0248652618663 430.190540840091,466.028967199853 429.0489247372986,467.90287620179726 429.03205783987556,469.5481848152372 424.0194355084963,469.9892629095526 423.8507267469029,470.2238973798098 424.0455790727181,476.60997402494013 426.8156758258127,481.1819883265809 426.34538664653206,488.4840813446862 424.1105888419905,488.8097184534951 423.5584171392804,491.2264971599336 412.48196555091573,490.91987094129456 412.21452603183405,493.96205500119225 403.3627910560316,494.4749066013644 402.84892149355454,490.72926789305563 396.44772433768924,490.81163125984875 395.83496903704633,483.0394717112244 386.84206020705665,483.2661122472876 386.9933308763269,488.84697032513355 388.7383867679492,488.6191052808663 389.22889661897864,490.75272634524845 392.76321517658636,490.8621595371224 392.96615276543565,498.72210951285547 392.1056544521258,498.90127693221956 392.4740555704658,500.7092419869175 390.40917757091785,501.22777051077685 390.6334019239312,503.418078525326 391.38481537210487,503.85033619704933 391.49521711475535,505.26213296407735 389.6903138671453,505.49163129473015 389.2629753048028,502.6489029995492 382.97103058323614,503.353635583737 382.7571833556171,499.2609988468498 379.59805096041333,500.1528529787513 377.69674148440515,501.76748990886375 368.063355652724,503.8631549032672 368.96152704825965,492.4934599638094 364.03848341164877,492.4557472523746 363.2915887469431,483.1042516231488 359.1277898556414,483.25123745544147 359.06810425999356,480.2748955505659 364.9535792756359,479.80192848118287 364.4368576173075,470.9660968153095 360.648006448181,470.95213118756567 361.23012669510655,457.7928397383978 362.15158716853716,453.3925357575441 367.77755810666304,442.9660601526016 367.4230626138261,438.99594501288755 367.3330048958687,433.75972046564965 366.27539439541755,429.68494062756923 367.54364236256066,429.3612674482824 370.7385180281757,426.4799175964247 386.37737081361456,422.8309164722088 393.16197235084076,422.1545368954465 398.37501631935083,421.93125618130074 401.6013195637331,420.60185572250845 405.11073732788094,418.70322536701207 406.7467210369889,414.869374333611 406.922015982667,409.2053618232179 405.04098751549236,405.5488866940564 403.1116992406348,401.1764147816345 395.0625606402072,392.810043837824 390.22888519743185,391.0516781405624 385.96599405071714,389.83423887149047 381.9930251678436,389.05407070982955 378.4615644338328,388.98657533074174 374.813600548212,391.45990105845055 370.4959952665348,395.064315584019 368.8066128892894,399.9851185344534 352.1114528502521,404.039869440139 344.5473998360897,406.3387199651188 326.6053445689271,403.9447389013346 319.4554446842348,398.27228257989054 317.95595177650597,384.97615082809966 318.74112578527263,371.6434622697732 325.1556099999669,364.53347044922526 335.4902233073969,360.80276693218605 369.37183271233346,346.3140766020518 382.8722745566098,338.44118829269155 386.66828561542815,323.2699155381751 387.72729192237324,317.92323872559473 389.3644886493168,312.2664904670793 390.93795003918814,307.751712227412 391.5818660205466,306.82891602300515 403.4982065021394,302.0571540484776 415.8726740368284,304.27703297277105 427.92558035349117,307.52161334645007 440.2948461398741,309.5250569262814 440.29771914595494,298.8246236357429 435.9454208717757,294.59558432306653 424.4337165504299,290.49819268119836 419.2417022119661,287.5335137667248 410.8090718523454,276.69263687917874 410.77407004456023,275.0338917692495 409.5315252659506,269.4777675672525 409.49540671639903,267.4010356928186 411.6288553182828,250.64432707210267 414.8070423225396,235.91444949888307 423.5857346396475,234.33361148530196 430.3765582156241,230.2789867652251 437.1036257852262,231.48207718119977 444.21612965534035,234.3514108665479 449.1171439767303,238.66158125870572 423.3954900135678,61.67538469973931" /><polygon fill="black" points="423.3954900135678,61.67538469973931 449.1171439767303,238.66158125870572 451.9516094571634,241.15606858374986 459.3791915819941,246.8509296949676 467.666915001708,251.25785861972167 474.0536683534462,253.4413347810662 482.2428011879989,253.59100573470255 496.67000923109225,254.92550034715066 502.1969169974274,256.95884408626443 506.25351477044046,262.29552785307226 509.32074696518333,268.6119609396335 512.8050704250842,274.0807018974465 517.9776903356982,279.2625104862773 521.5244810678622,280.6009850749972 529.1589699252145,281.7785383341045 537.596353177295,280.0788805982378 548.35457484803,281.06960566792566 551.920042371788,283.1392575025085 555.0439327407331,284.50633753818386 557.1800486183688,293.52968359025 557.2886846915796,299.61669778399505 557.9610129891878,305.69040477353894 559.3834919364239,314.5852993614626 578.7390542602809,315.42530202043235 581.609848709351,317.6525586818299 584.1091238850519,340.2829373090628 586.8478675860003,359.77493642118117 587.6278965382886,363.71578296505356 591.9217690969242,367.45887596242994 593.2820399306079,372.25658620741115 600.5266598283148,391.2605500052971 601.587061153077,395.63873098825013 605.4776382538093,399.65765679273517 610.0221902161925,401.2982152201876 610.3014104004076,409.3742490715046 611.3454522205071,420.1027346006884 611.4999288550466,429.5996817994421 602.7384040674574,438.36079788623044 596.3883207072606,446.82117476975037 591.8003586364183,450.9969700309573 585.0311786342434,451.5259020561186 583.5705965190633,450.8668452115446 648.154680229908,591.2740269576775 649.8160230370271,590.6085921767755 648.6667422553504,586.0574263786107 657.6862515029542,585.487800694705 658.6158439998104,583.0100391606437 669.4989978208354,582.082787774516 670.7501026469652,591.2914101240266 677.9398272853597,590.8891685485474 678.0533567321614,593.4313687094759 679.8078456292883,591.7661443581042 682.7694796198274,585.7227349603942 688.9117964437543,567.0197479654923 690.8390599601718,562.749606415764 697.6553366315469,555.4357843791557 731.2475727068562,532.0791890704686 751.2693912317202,520.9303215204595 771.0564982513802,514.2761028474308 788.521188528413,505.9605450852152 803.2492555861368,499.96182292731686 821.4164535400159,497.86197489777555 837.3488820260162,497.50317228359006 847.6180083087165,497.84591797831706 867.3043476190397,488.1842964804467 873.5163928961043,487.22735112465324 880.3417487829831,486.8038476506597 885.3975818241323,485.3561094734863 894.3738974572548,483.09987708888394 903.5345194460616,483.66800616411126 910.3412599065491,483.24406869606355 916.6178623307108,483.4293648087986 926.9644181268375,485.0647567090759 933.3825695222663,487.5140121061252 937.4798448627923,489.53231170110155 943.2829711055377,491.4577570144018 947.9567723955539,493.4513015705418 953.2605913151339,496.5269216338538 960.6872011591838,502.0824260245944 962.3110251236444,508.9142483509363 963.5468864029192,511.6507648526689 964.1958566360948,514.4047832567783 965.4318402175878,517.1437633301119 966.0812858504452,519.9126086496049 967.3048876380784,522.6494773692864 968.624083475124,528.1741849920577 969.839294408368,530.903873316134 972.5736602475033,534.8722208089407 974.4552150101838,534.7170710007304 981.4155032804209,533.2324681174375 984.1963654572851,533.2334162777202 989.9987430752175,532.2532241417334 993.2405924863573,529.7513561674261 994.03338478933,527.3154051588281 994.077148338296,518.870158158501 998.0872952143611,515.8775659846283 1000.0641439437395,514.7816443291252 1009.4093219435991,513.5287927824077 1009.9605769301002,513.009994571378 1009.0037080357027,509.2212519460827 1011.1630105849445,508.4388885235745 1012.3926758888243,509.9185369810722 1013.4654187144323,510.0174153040699 1017.3176925464953,508.6422608893161 1017.005083001757,507.4319434204384 1012.8425901148745,506.372033817341 1011.4709725464083,505.31230027571894 1010.9714198598945,503.7785442880101 1011.2514138620315,498.6933281887352 1007.5206254964314,497.9320886281319 1006.5056381925531,497.4207559188122 1005.7969000867333,495.0966248268271 1004.200437444788,494.3701835939097 1003.8731112310837,493.0786522772553 1001.713314998605,491.1617641781414 999.7232987239512,490.711830773012 998.892464002995,489.12367117339016 997.0026413226295,488.9898621474781 995.9865245451933,485.62097965685393 994.2283490209636,485.06508474314285 993.8512270785261,482.79778420083113 997.5085516463861,480.77811850808996 998.157858738739,478.0346929920784 1001.3639728827798,476.7781294948482 1002.5851436923297,475.2372304448922 1002.6205879578663,470.2410180414624 1003.1764085001688,469.87795587073623 1007.3248241552767,469.4663326041121 1008.1077035610002,468.8416025901512 1009.3971273486445,466.48957871817385 1011.6128168172188,466.8435483009243 1014.3724665899273,466.1667550130023 1017.6021791478182,466.0448144071645 1016.6694378723603,452.85878253609474 1016.3001698879076,452.2291096984929 1014.010676787254,451.74629710371073 1013.4500590895708,450.57807926798927 1012.2133431688817,444.40285883555583 1007.707303562457,430.8492849636241 1009.2527099859358,425.37218515722856 1007.5386386309152,422.1579482894204 978.6334083900318,415.8010639491484 973.1673056445625,409.3193593329125 971.3561455557754,401.4590572325685 969.5430561094164,388.6408104946352 968.8591681450025,380.5834922198652 967.8960484087215,372.8314097247114 967.6612749223904,369.80277097489 966.9173632039211,368.34553789662823 963.2370736148895,364.02208085624744 961.2088353608704,358.45919262826163 958.0752287233119,353.53545630526 956.0098624594036,347.4120376028643 956.2310252682578,341.7151322673945 955.4167474874652,337.20700415205755 954.8989620146538,328.14519925452686 955.6682273469124,321.84061627035186 956.0391413876773,308.7541854507989 956.315693990304,303.60731680639856 957.9665664776132,292.7067681546274 957.077835586294,287.0850705284462 955.6028654088763,281.4808964766936 952.3430051905152,274.2947084383809 951.4983317577074,269.79737831991986 948.5279242264884,257.4737966985184 947.7848242821754,245.00202722647055 946.5531342409462,234.43502469125747 947.9172898210348,233.2438349767093 953.1070764299562,232.01991327414578 972.5694487940007,229.26724163899792 977.777178372015,228.71510365483607 997.1888090273031,227.0230165002829 1004.6088144393296,224.67910521012777 1013.851600226305,219.4445258626538 1019.2570974228463,216.18112244927693 1022.7552805149883,212.81196284194698 1024.0,208.09817798954464 1023.906734065151,200.253004381825 1023.5586547739762,188.74884692348348 1022.9697504376849,183.90990967695564 1021.6876528712613,179.89851742729206 1019.4795676151272,177.31797118050338 1015.3345762594217,175.94891090557132 1006.2855149273453,175.2597889785667 995.2170561413272,176.1873604397838 983.6144586014165,175.84634357747962 978.1170750966869,173.9061417678579 973.8184358587265,169.80456188827623 971.8195785889873,164.57248808834981 971.6337753950505,160.78280236461387 972.2524322341345,157.05802797916886 973.5148428223819,154.89981170247768 979.9241041857815,151.2558254113659 983.3549706276884,148.06494563037506 985.6129534197519,144.8078652653786 986.5898805037049,138.02659259398797 988.7476992980913,131.79116009716074 990.5802292701055,129.1727654698136 994.6546957329011,125.50948737442775 995.9833853708254,123.17590328301208 997.0699037063871,120.31767377095775 996.9819941723104,117.40332185313105 994.7514734405484,114.3902991922015 989.6656379723902,111.10951586665328 984.2767444347669,108.96347410415558 983.0029712849907,106.62913997257635 981.7095647024587,101.59117859412538 982.0487870348965,94.40849129271612 982.4913693787959,88.26923925756785 982.9072701353733,86.7103889541263 985.8957136641392,80.14063858868349 969.6300748339821,71.48081019308154 961.3670271046713,70.1604150324846 954.1688417676706,70.39367508244118 945.6553725426269,70.31970096379541 935.8625336045994,67.28505457460471 912.5257676432425,53.66905373134523 865.4877323205861,38.46700828790745 863.2270681980357,37.123671973549335 862.9374570098338,32.19660231849218 862.1696879061049,26.39797538551727 860.6048902926983,21.73868168618651 850.8641809601157,8.216550480357341 848.1380394197839,10.17723333511367 840.1584933992192,14.16553356358338 826.567497338813,18.439760400229034 817.0515759728066,19.844931223198046 813.418549052389,22.447746591549958 811.7185540416317,22.324428310528333 807.1271879412396,19.873747216409356 804.1372823113603,19.936601155946278 802.0352986986533,20.408829500250135 799.2201170635037,22.156193272633118 796.9748923590753,24.48058568347585 793.3336127466991,26.811131859508464 789.4008697441791,29.021478372473325 787.1422812998708,29.767778106564833 783.8894328151227,30.2659962882243 782.2024190972244,31.997490769086767 779.8146342942812,33.603448803831725 777.8417679840618,34.34872854642879 770.7085402236239,31.808089991949146 766.5943560986284,31.32671610733712 753.9824533478435,32.992193210085475 747.0753393169192,34.68690997263968 743.4084566266606,36.15635782318736 731.2768420044279,40.21851290391999 729.7479419410104,42.10081584930754 727.5441378611606,45.81842608575721 726.3148438019239,48.820109249111624 723.5620152820298,53.82508804445263 721.8025176273085,57.98249080073481 713.554724989677,65.63459702315026 705.0113455524172,71.61263266905576 698.7788354017274,71.43081898470803 691.5762407471882,72.27116433528181 684.2395037504726,74.09967862493409 681.1037429923276,72.61134934305244 678.5514442320225,64.5729622630538 677.8742637054186,57.80923225966137 676.0452228282752,50.31659228914134 675.6994757076333,47.22189078856343 674.0995189524821,44.417936626796404 669.409659818393,43.213966213880326 667.4024771256253,41.695632348388926 666.9006284320219,37.022172298848886 668.6257277690279,30.19954469974732 671.5591223340704,28.596608138466422 677.227411971188,28.08036594362511 681.7562799858542,27.982588419568515 684.8411746208443,26.647224678285966 684.938994097793,23.967754425255634 686.4497284833078,21.517344750935422 690.2502540710062,20.047534525262108 692.7843210409546,18.438434526317565 693.4086001526019,14.05171474991596 693.5018715374309,10.50404709097836 692.4585254925296,7.825223748648909 690.4453855922676,6.4532480560266094 686.5097202249887,7.50394675777784 680.7084103140241,8.30879914423781 673.3602965818454,8.58639173066365 669.3889070544838,9.110863838758519 665.7156383915907,0.6617003551064045 663.8567288006884,0.0 661.9199744814996,1.5743435788513125 658.1280183827687,4.055188418451735 655.7340797031401,4.8138246898444095 653.9350574309143,15.168534523256994 652.1639145863736,19.741197675696185 649.8131397229461,23.026709408685633 646.308698223157,24.79405610695983 640.9109387605794,23.61712143944601 637.208132484894,21.671904867522812 633.5184278623154,20.90623694068563 629.6298846011908,17.125714817301173 623.80899380439,16.239940515056787 619.0110421150963,16.18828783291781 614.6395552310356,17.108967127457618 610.1537178993559,19.435400563032772 606.2334240644701,21.770437139779915 601.3008373109615,22.847727773197676 598.0729098323203,24.589086481539653 595.8577969479916,26.885534442720655 595.3468356249097,29.17333223971582 595.8095416870166,31.720535264176192 598.79025050041,32.49951688294345 601.0922078595737,35.44733847614668 600.619989696183,40.84598906213364 597.7016983626754,51.798072488148364 594.940388214082,55.514996396304696 591.8784847872407,57.69430433269304 587.0782628959223,58.75754039252922 582.6983676176809,58.685746271719836 578.3002534039306,57.60263595311858 576.1774490423593,57.3582147077592 574.8917262982122,56.24418525592898 574.1003484209706,51.87569265159527 571.5037722560985,47.94889566100585 567.6933277714553,46.18361376757241 557.2339612676718,34.121794639122754 553.4361065860883,24.73950545642947 543.4780382428114,25.429624369248927 533.8711379176439,29.77785461923702 520.5547418367945,40.084335382778704 497.80749579019647,40.10985773813832 474.52260950860244,48.548103589287734 463.9177673606295,48.85894643737629 457.3025432140555,50.093039535944285 450.29243576068774,52.591904954097686 443.5577142914499,55.389653867142215 438.908462689016,55.59933195493602 433.5686651564176,57.240292103681554 424.71708894737145,60.75852021918786 423.3954900135678,61.67538469973931" /><polygon fill="black" points="471.77984132614125,744.6311165852462 468.93394507306124,746.1684050843872 468.5165048147512,750.5108345543832 471.305440098292,750.6570608174283 470.9680944405509,752.2740410120116 470.5912348730951,757.7209926733484 469.3198453057438,758.0006808313074 468.84610958856,761.7955432501856 472.19695696122466,763.244731294117 475.3791318574025,763.8822559838469 499.66383665336406,770.0445109292975 494.0964070931607,734.4486189561854 490.5901105538289,734.389216219621 485.4151595323442,733.6582928633705 481.30131000187447,743.7788632392561 482.66401083913127,743.8230840146609 482.92295993966167,747.6201538019114 477.283783029696,748.4006616147344 477.28011456470307,749.0191251224525 475.52866982069,749.0176797026834 475.34551074132503,746.0990832610734 474.5694141509418,745.2546517261412 471.8341375427956,745.1070041169381 471.77984132614125,744.6311165852462" /><circle cx="524.4818737890942" cy="449.71358141804114" fill="rgb(100%,100%,100%)" r="16" stroke="grey" stroke-width="8" /></svg>