<?xml version="1.0" encoding="utf-8" ?>
<svg baseProfile="full" height="1024" version="1.1" width="1024" xmlns="http://www.w3.org/2000/svg" xmlns:ev="http://www.w3.org/2001/xml-events" xmlns:xlink="http://www.w3.org/1999/xlink"><defs /><polygon fill="black" points="348.06878571493894,441.670641256243 343.82533668738216,434.5927217596957 346.6373900453445,431.31903213978944 347.7070189528633,425.5164085788293 346.1477674960509,423.3337360131882 347.0194476163536,419.30675436611864 359.1234778097156,417.5313553033867 359.82898114022964,415.9241504179495 361.07706941858794,407.2625632699036 362.63522618828154,404.23068065081657 369.455156055706,399.0511172971743 379.7282024836597,393.7322101472711 385.6535515015302,394.05148254283426 392.13867867903116,396.8927497086604 395.1847951331817,396.09301221770556 396.26958676215406,394.3578737908058 394.30472363122004,392.0191088270815 393.25403026905076,384.4052465755184 387.03764821659695,378.8587165180047 379.7576036259664,368.0439857165527 377.90817686733703,366.5436619317105 373.1348602488704,366.68919708830174 370.4447072344975,364.53514685783364 371.2918341150623,359.4470996022916 365.70658772321406,357.760959208454 362.092900945759,354.29816450557223 362.0935660446313,350.1541214101562 357.36251322490693,345.58088457218264 353.8377578834894,339.7844158879735 352.71640362757665,333.5686077104267 351.0511557145912,330.98198082450153 344.64804726926394,330.39961820138933 341.9424469612342,329.2890016975716 339.34696735403105,326.33554836511917 336.28517616573333,325.06528591486756 325.7351989041996,326.46733123317745 317.08668036293454,330.9434230473838 313.3204308476419,332.29957533510344 307.8218952352183,328.3269849898212 304.77524889549494,327.27007496116084 302.26402461566266,324.9276580732454 302.11807695405264,320.0715403094673 297.7094708994606,312.2912222364755 295.06729360478465,310.09411945251804 293.09980420711355,306.0075607888366 292.24212207735945,300.87499291987854 288.54727528290243,299.50839323555124 285.2259917486033,291.15532750678324 275.67475047726685,278.29843986889136 272.57459556805804,275.49407255075494 263.94482371969923,271.02683961615105 258.23011678252595,267.3429556387971 252.39842298063854,261.9738402361255 249.48195744290663,257.1646271010768 247.48206310648635,255.34852034115443 230.92082748542185,245.29883926539105 227.4971939076341,241.3129162887484 225.9737558574365,237.32589438031096 226.08944003027548,229.5943522751753 220.78429072255992,226.0995311844698 214.84845166066208,220.2827564897044 186.3277147782948,171.12053090712095 183.30893485049276,164.96022150616295 180.63129215521855,162.48856184696945 174.37686171437215,158.3409820820832 172.2557703622231,155.64937393764558 162.6508161635649,137.2697700140327 148.24769885553593,110.2592339453306 142.88355617489245,95.14002696425734 136.62675038753946,75.88716416499835 132.48949073563185,64.57213506159337 123.65129974865087,45.770536522370094 120.18258023919077,40.95793642021022 112.67727596977691,33.24204346775855 107.07613155682168,26.09841224449565 104.1620428670938,23.754476967476762 94.06634729585963,19.521247139835168 90.92251687072525,15.947614920594447 86.54915978332437,3.0974413074957283 80.03489399352847,0.20469646444871614 74.30887573257871,0.0 71.37001601636881,2.232531032462248 66.97408049969034,10.998441150816916 63.02129563888385,15.335268716887526 56.57647827632126,19.30595421582484 50.9646253074123,20.329098368877567 39.97854604522819,24.16297424792981 26.98957241328667,28.204399510096664 19.271552044899853,31.215379897361686 10.775307611336839,36.69394433206878 10.663799860206796,38.03809305620996 15.023772214632405,41.180544170190956 16.920607078964867,46.21433984199905 15.356612617954893,48.343489108270546 10.2180640324842,52.2507426319778 9.544699251800433,53.925241551351405 9.99362992065688,58.85904800796118 11.55812925896042,64.00949324333749 10.998281065632055,69.37985318032872 12.342195119242271,73.30028888473691 13.565719623459408,81.58055644904073 13.232425977240686,93.001054887083 14.909446793142392,97.80679716452869 12.563670873449674,104.19193837834246 9.08057571315769,110.78997280430337 7.018168221165933,118.45840967603726 4.076229347849435,124.05488316097058 1.1539362564194615,131.35392554803434 0.0,135.67423365873105 0.7227627395040342,138.951300693063 8.794170664344707,151.79895233664104 8.420293689167455,155.39082991047417 5.495162007181685,161.4190306759333 5.295022837718736,166.21358326416316 9.071308851984634,186.85208299119506 14.019950007614138,212.5513100892606 14.567877087430709,216.4053554886483 15.010468370916566,227.19205896716437 19.801194068405746,230.33120475105136 24.363687648529222,229.83685470638363 36.58432537562158,223.99388113281395 40.29928697957008,222.86213937637694 49.307124275898694,223.09604693093274 53.46041570529198,231.35225976482013 57.232320937643955,231.86255746904988 61.07916219858358,234.260577540462 63.02708784485834,246.17170147490413 64.8425138196561,248.781438777919 73.17490060403736,255.20743452897216 75.02380146006381,261.1877211384292 73.65399957170116,266.26630028867055 89.0451744480124,299.1518352575289 94.85239211170098,308.48513078474355 96.31421119754526,313.9111699493003 95.432046888708,320.61650625172103 95.41006518356309,325.7394640323139 97.33239891139216,329.2916540214096 101.69716643609371,332.79155526664135 105.32223612236983,338.1493420348394 107.63445335749775,355.5911510971939 109.73900730229282,362.1205161658502 109.55473571048698,370.14476547574714 106.9516021228971,378.3352516972609 103.49986720426783,385.2445248793633 101.72852842761216,390.0409660440213 103.5161637081205,398.1739355805123 110.11846444889765,407.7909429544584 111.54251194314433,418.7462681325817 114.39809760750916,422.6021757785462 115.88046816522615,427.2290207645211 113.88192524771867,430.94486942816513 109.86616935747254,434.1875290562458 107.55011773643115,439.10526716437937 108.39334931250907,442.4993201128558 110.7344825320025,445.66487988213476 111.96124527382725,454.3226406959378 108.87919257379218,457.998625288158 98.91920343349409,460.8126314784121 96.24107720199852,462.0253383482865 91.38392876786239,468.27830125016305 90.79625476242458,478.9033571816658 91.75296349089172,483.0986608254834 94.86656054523661,487.3674981437953 96.7319920749534,492.9391748831821 96.8874553702516,496.7112725462731 95.22265683007187,502.4587863013064 91.95012102774297,510.54811273743746 93.61024550843366,516.0934337222056 98.20911457339353,516.8637511175621 110.713445745606,511.7066197849964 116.23143329764609,512.3339882140742 117.72324024449576,523.0510142259623 116.42141976843276,534.7280746324473 112.42314868590285,537.5755458569342 106.13084305323066,539.9506700304521 98.03321033946806,543.8908994503288 95.81533538750993,545.7163702362778 94.14936082453465,551.4572760066867 94.27030987531519,560.0065793907904 76.50023195539622,571.0497223076313 74.96978947945422,572.4690925877821 72.10254848263142,577.7703413749808 73.6855882733161,583.6099336866806 76.98707134298472,586.2629420946648 86.97367687863955,587.3492868984858 90.71684803266913,588.7962604594729 92.79215775018159,591.8185298524218 92.26633693928339,600.1523700001146 89.82738239013591,609.2440413002694 89.3651209826947,620.0050582688906 88.53826980628938,625.653259056722 86.37965056380098,632.1147377778708 75.07027654020462,645.1902269859024 72.31285366390561,651.298238911218 71.46821002642315,656.9286148573829 69.10998556092837,660.1453628099351 66.49870193071173,661.4827430145106 65.48728238957412,665.1819166476544 63.18009044826029,666.9591005435207 60.9456464987635,672.837835965206 62.16410830702321,677.0242720585352 62.20154670415944,685.6114858383028 65.89208576833828,688.7597105434331 69.47726958623987,687.6612364109818 71.62476234243375,689.5567223295698 73.98666265040384,694.4133599071853 74.64287812255729,701.8868019749408 71.66765189851039,706.9012197440509 74.7074985416455,711.1876554025548 74.34023511603952,715.2552878490869 75.76664489543427,718.5261386561472 75.94602964508894,722.4658839135295 81.46249369513977,729.3261391280148 88.27324601286273,730.9676447557354 93.3941403452624,733.5076764634105 97.68144985441198,737.7330808786563 102.41557173519122,737.1153037806919 104.5868478766738,740.1235159991317 112.959382325472,739.6894359106532 114.60202220976562,746.0375098919451 119.97774130363732,752.8264754518564 112.94934443502808,763.7631797270881 115.46630501204875,765.6974909271235 115.24472154272567,768.0167398497242 109.61676210996667,780.9828395914653 111.27144205384819,785.5012475108741 115.52723399718275,784.6911604211921 119.3936289957453,786.1510015949372 130.7349751201931,788.1090052898858 133.47537758267666,790.8972623982704 137.1775701231324,791.193005120553 142.67649055569322,793.8932179284755 144.6335568067738,793.0712800093263 148.68736084291749,795.2591250658014 151.47828840785797,795.2846449294257 152.90820690470358,797.1049485750455 154.08253529370188,802.0710691638628 159.55584750356874,802.7201126357331 165.0201313523089,809.0675243368455 167.74498244419013,808.3197507994378 171.70234881587658,809.4359796947631 173.40171016347986,811.0687350783616 171.4431609087246,812.9944279135204 169.55504807641788,827.5883522895598 162.25471810373585,828.8030863955923 158.60099549879462,832.1675591576142 159.51829591905516,835.1077813178767 162.4109983250004,839.3388181657594 169.92506208031352,841.5968725693195 171.87878443656678,845.1873257593334 178.25672274063007,850.6317789894761 180.05292953086774,853.1001304805731 175.59222529165996,856.897682740312 171.7246299071676,861.7109111577671 168.42429513593467,862.7539572392452 167.2021960617368,864.5606873727519 170.42649036509715,869.2641369381292 169.70218425563047,872.0255757845204 164.6839269169132,877.593801065065 162.05010374506685,879.4244605399479 153.68001249648938,880.3907480322728 146.70712721725303,882.0756412330381 139.3679433602305,882.3906098391789 135.82441184808596,883.4758176882768 133.79217664102842,885.578267469634 134.33489094682446,888.8858789667879 131.52582181790174,891.2849391176641 130.25115464679396,894.9491312346644 123.57910790859263,894.8748825758112 122.21750831231955,892.4410878960035 119.08728632239944,891.3748132220508 114.59152795263651,888.3186477242314 108.57097191353068,895.4607732459551 100.14420844990912,893.8099665432862 98.85338376007662,894.8732121015133 99.61286495333545,901.409986685454 95.51816324613168,907.1524697661603 94.54045424629793,910.071288486915 95.061309531708,913.8552184932198 93.55432282350125,915.7773425646122 94.65942097875497,918.9993893755251 99.68078028604418,924.8209180777883 101.78309635100726,924.6067826419354 105.35419814938876,929.1917688759551 105.25494446068733,931.9492635136744 108.73148494942777,939.3232570846756 109.87823719014109,939.8814777749927 112.16324737348462,944.5712317700778 112.04127755815334,947.5051900128309 114.90772874935297,953.5745889816828 120.39683583787662,951.9354639504293 120.93302322252325,955.8970984418496 125.79483803616415,960.6476514910484 133.6580157862392,971.0945471003361 135.31492876570113,973.8591806328088 140.93948600500178,976.8667973367204 152.70802684717117,986.7616878802017 159.3566752136317,989.6759662942064 164.38539460197094,992.5326782542911 172.3141052793118,998.7936208008557 177.62936248029962,1006.495523983845 182.67429498755882,1009.1862049387989 188.56991052322098,1010.8240777883042 198.90253591603354,1008.8190612571311 201.10620774741483,1008.9315183945114 205.7027725110831,1018.3770104585275 211.55688722339738,1020.4997275210221 217.09901105193552,1024.0 224.54516195842794,1020.8929921224792 227.70757920394234,1017.354666724149 231.3618500058063,1011.019507931762 234.01325376492127,1008.6131316529433 235.89950221616192,1000.5600521860163 238.793498263899,996.6531710288126 241.18762424496055,995.1904620181194 249.0166850498532,993.6697472502005 258.9375912592959,994.8226999521552 260.6099038319548,991.4963062543288 265.1583650279519,990.4954576170298 272.02761561560504,993.3235023499707 274.62008323445417,993.6253045917895 277.9190165537093,991.273169199587 281.7357063523869,991.4263230929369 286.7677740604313,995.4522864935092 290.0735081380662,997.1825721144189 297.74314060382386,997.4351061726571 301.2589644278637,997.0118120538328 304.15707777076256,994.8280496653034 305.69188727122986,988.8142916053974 305.0031071372073,984.7602960323818 301.96559946805223,978.3357197652376 298.45550788707,968.1976134693775 294.954663267025,961.5219373309542 293.7728476489785,957.3924516711986 292.07513541387,943.7551316425726 290.03745932662264,936.1145683152272 284.3942165741277,922.0828043945401 282.86753386911926,914.5014338281455 281.86814742368944,899.0584337401535 280.30360167691674,890.1482840013655 273.68606362423213,879.4496754014115 273.1529386820452,874.5028316230762 275.1904802741714,861.336383409548 276.0189526704395,853.4460827679968 280.0488877933757,846.5205645559057 283.6349073836167,843.2412317393672 289.6059870073217,839.7590141782474 294.73951167215284,833.3367252129746 297.0665087237162,829.4941666649506 298.7448073858306,823.2263774698396 298.28867751924264,820.252503805488 294.4269343889584,814.3392306606783 290.9915596240384,811.9464926447408 285.2154040310052,810.7558272315586 283.1852499628212,804.0898080487369 288.7152150066274,789.2579940184605 291.79898995757884,785.4508087514496 294.9898866130703,783.013117603996 297.6604988041221,778.9119245459738 299.99472475625214,773.1974155225888 301.43153501282416,753.4144065091575 299.8016924754374,748.4288285019633 297.3187890921686,745.7908526689607 297.9726590643009,742.0352514157221 301.86041720812767,738.3959441041392 309.34274719871195,736.8447903421362 311.657887983806,731.4219300926674 312.537418919827,725.7494560493905 314.5091091408911,721.1861765815438 317.8078454317379,718.871516323308 326.34729002774213,709.9568055883955 335.725460938219,705.9096542703546 337.8572872695206,703.5571981228654 343.26759304086454,691.7798645707983 344.1299552577573,680.6163896170883 347.65325331849334,670.9131098849193 355.61080514543227,662.2654945815376 355.80063012262593,656.9869505910156 351.45223416556036,649.289263884535 349.91417866654405,637.3931925364242 350.0345796510101,633.4442656463966 351.4790282568771,630.8659750261425 351.24958622189183,626.5312744846958 352.92323236899887,621.7820758287562 351.77607349421766,613.5034306197074 351.3830440232129,605.3291527438803 347.0790391699108,600.872931461434 342.1445982463039,599.0965546116505 334.3372531395348,591.6236198494672 330.6828335215091,590.5185317611395 324.6234499597216,590.7681553535929 322.6950832067093,588.4295110769258 324.32152062252806,583.6434843227842 328.68047777171904,581.9046751127073 337.66217901400995,580.3444751924183 343.3745427660699,583.3742088926367 346.8064628442458,580.6808460330976 349.6460147008115,575.2732823798826 359.2795293889926,566.6874834348247 363.3909885596181,564.03661353244 367.5262506709782,563.5513740931744 367.74344964024766,562.0187713586206 371.0225303058599,558.9774164274296 376.88982189111573,561.4672110071908 387.58175835696795,562.043749067638 387.4823543296549,556.0898698368767 385.5798109611708,550.4886377136767 385.473755961932,545.8089839412955 387.62926250786796,543.4398802651865 382.81080749061084,540.0344813471022 379.5392064244433,530.4196838629578 381.9661796255419,522.0754538849671 385.9372076847621,523.4175961305359 385.56525259972165,520.1490377358277 382.78200639857266,516.5747883225329 375.1387840033201,512.7975211933078 370.90822258887266,509.67329434416627 367.95825253498765,493.2986989255004 365.69352970546805,488.10841984223043 361.9404610506686,482.9986258776331 359.034242644977,476.6992835779804 357.83574794727076,465.6625301907045 359.5284236726192,460.66853486541913 357.29063281469405,457.7350286617858 352.9025340497675,456.4284132217083 351.92743374374425,451.2651166370508 347.15841696921444,446.3757155231651 348.06878571493894,441.670641256243" /><circle cx="231.3805009221634" cy="391.4162818310822" fill="rgb(100%,100%,100%)" r="16" stroke="grey" stroke-width="8" /></svg>