<?xml version="1.0" encoding="utf-8" ?>
<svg baseProfile="full" height="1024" version="1.1" width="1024" xmlns="http://www.w3.org/2000/svg" xmlns:ev="http://www.w3.org/2001/xml-events" xmlns:xlink="http://www.w3.org/1999/xlink"><defs /><polygon fill="black" points="564.6856862049038,254.18470143257673 562.4130506130481,254.53361616567793 553.4094915204157,254.07908094493064 548.2727632540095,252.80234423363584 546.7946510371503,251.57071725510025 543.6890620213269,249.98562000640425 542.4538475729976,248.41778473136765 542.7825387172521,246.86600741021698 546.186784189417,243.10208940737982 544.8816446236091,240.65517621395463 544.8186254934607,238.07237194304128 545.7076606283509,236.74809852628277 547.3607235227672,236.20348108914595 547.1885142442641,233.63957939625845 544.3413078992573,231.59540070662092 540.7360676616858,230.92707819670136 539.4313592767204,232.30074147035896 538.9565332969803,233.9223839068403 533.979882167209,234.72814285093216 530.042097910383,236.79549706586522 525.8810797608055,236.54317824111388 523.7948140533545,235.74816722025855 523.5356069236104,233.276443511411 522.2265896490053,230.11492150278514 523.2372589468342,227.88345855626085 522.2215477427534,226.37716905221555 519.8987151711455,224.76446381344954 518.132306640542,221.13253339751986 514.0585088993604,217.50039124233365 511.269411184109,213.80180957246603 510.98572036878784,211.95313577081686 511.8704932160558,206.52373902409033 508.2385321523323,203.98631734907644 507.01050843022705,202.3477262787851 506.8654327147092,198.78345431635705 507.49679491730353,196.43852137764839 505.8911430729405,191.20423706595454 502.0568350036678,189.94255197761868 499.2693434248073,189.41909341945768 496.87753440810627,190.58311526944055 493.5067692339141,190.0777082397342 492.3285801038052,192.18664211955308 490.9805545566528,193.35380951158834 487.1428172528447,194.2459466551203 485.554585777915,196.78135449903107 484.4987257839968,201.08506930753754 485.13592477400096,202.16987037349372 484.97713485909367,205.06816820325548 483.8869336483916,207.17743074146256 482.30082711523704,212.4694964926373 482.64666053533244,215.13653373590353 481.51836073737735,219.15386649029392 480.64428926848024,220.31478446042252 476.3517157097448,221.62190919400177 475.4710708876885,222.59898907191644 473.0343304266506,220.5552864553406 468.8075137570964,218.72857945666135 466.6594975193077,218.95362225337544 463.56854797243096,220.89047457751087 462.62741931996703,220.61943729411712 460.358281929412,217.09639130545156 458.7383389774005,218.39604607545698 458.16138501993015,219.9257763500583 458.7743234434502,221.7249672256877 457.6261150374942,221.9752550149949 457.2538401609966,223.4948807340685 459.20909526445945,225.47442603229058 458.40847377239095,228.1873177503744 451.8072553538902,224.9092290529925 451.0240550879421,223.62876481640217 446.10157480096774,220.7161872169953 445.8743376902525,219.27527357414 444.2024561825386,216.25501390115494 438.0917615257349,211.28453337859264 436.96094576243394,209.7066170994484 436.15894380074843,206.26207090381297 439.20905187978894,205.19336081747826 439.3322919415012,203.76516396820807 437.05249397490553,201.09979041648592 434.85669879953167,200.85432753470945 431.5211213414807,198.88850032582002 430.31164726803104,199.92314595864138 429.52089548977403,202.03347805650253 428.2728236364894,201.92516554312158 425.96040728108454,199.9641807493648 422.9136528616907,198.84661450683006 421.0071820244539,197.5812048926532 419.2470676316136,198.95022038067543 419.8308892997615,200.57671791829296 422.4501062704116,200.92673114340198 423.9917286092968,202.39346378788878 424.08520961462074,205.5803704863016 422.9902302482496,206.9844604467297 418.56963849893066,206.13505967545473 416.22469875457864,204.81630478357454 414.02138796954836,201.63000575024785 412.5808706415157,202.03187800672242 412.6576343310212,205.57522152698232 410.40293983007524,209.77024594156194 407.8391484252193,211.2995635896383 406.3381811181034,210.78078963157543 405.52735732355376,209.23601014544158 406.70503356826407,206.03472178814343 404.6820230176838,206.02458741138935 402.3353615817284,209.45489153699782 400.25362150745366,211.1177772872403 397.2623968898448,211.84883463528286 396.38993220547786,209.66943914305068 397.12976543287454,207.79392338237722 400.7826218035152,206.08788445479843 400.48972060836564,204.8814663307768 396.3863969312891,204.8095829514334 395.13103651421375,203.24037829164263 394.550313354852,198.16340227576984 395.2775831798532,191.52056596842465 395.3270296826422,186.13035113199953 396.35567227388077,180.439725315264 398.03857508598895,172.54702473183704 399.1099555599999,162.7318623733969 399.4843055880562,157.9872052855285 400.1791758863189,153.56198461542 398.3891926188952,143.72402817692114 392.18592994533117,130.67014352232638 389.35599837946114,127.48159485525684 385.9433381479902,121.42269224857398 382.2367004775337,112.83204688008095 381.0315302789742,107.43803780028713 372.25998629510445,96.26019344644203 368.200228131691,89.89342603992986 364.80105918863944,81.62172076938168 359.81135837185474,74.60720486186199 353.79591950846094,72.65697163400273 349.0467686910724,69.75434890999679 347.506535597349,65.94040483807078 348.1702771466335,63.415226228676374 350.1327918977058,59.314858500633136 354.0128093017767,53.96040733071686 359.8061314381033,48.309323641704964 365.6799061249824,43.79156001953629 366.0619260545597,37.765979547397706 365.50100915479334,32.062891155335365 364.59982826106767,27.294880605865274 362.7407080067183,23.164320002364775 359.6126677664759,19.01865877959608 350.1194812717946,14.490376821622135 345.7087612551123,11.600469135504 340.9698929634162,7.434558018410712 337.2059727418177,3.60135507525888 332.7793910834295,1.0274033173243424 328.0162319062858,0.032289053194062944 324.2095531940323,0.0 313.9770746284333,4.33814060454813 312.0159773579486,8.129913585337476 310.33921903002704,15.706814054298661 311.19855584985254,23.646335990269222 311.46287297485014,28.40004976795035 310.94695159747044,30.671662214385492 308.50571210366377,36.60392616892193 304.03849411335113,37.189219221408166 297.71004879180435,34.28828288290481 292.367762563512,29.79950440684786 289.50704874062626,28.814195969674756 280.566422161976,32.53576663149579 271.31337505444895,35.612384317449596 264.28822478461774,38.38534437898227 258.8495788636062,41.49366589852525 251.82158423426304,45.8579459349977 244.1544783524333,49.57403847818375 239.6802838293681,52.372510042329964 227.1980013488448,60.78129479981726 222.07251308888453,64.84098731197992 216.9326630937769,70.16345356171803 214.99231380774478,73.63077865385742 213.6613834495634,78.6814183021279 213.2291252956527,88.17769625297399 213.10557836336156,99.58428377984274 209.59466690711787,106.7546979509342 209.10839128897408,113.14000897523601 209.21626552491819,118.14168714278333 208.48540173346754,120.60645245687431 207.355723748589,121.45603618922644 203.93169760462362,120.4544849858587 202.8466363008585,118.91644376082763 202.30572160917492,115.59649198845818 199.66974543755856,112.4261833760687 194.35701136154537,109.04513029425232 187.979496671885,97.87146409868444 183.9394993648466,92.84553717002439 178.51689268093784,90.88235815491544 173.25687034286324,90.83810514279503 163.7503837594568,91.71343783345412 150.8703253011547,89.67868800588826 143.59894513393272,85.9660806661916 133.4746709513306,78.20394354370626 128.9291761330155,72.78603638336313 127.7695527885079,68.55494846750958 128.47691310994438,64.33673915343024 129.87553498896318,58.398676744547856 129.4241349701352,50.71495010056958 125.26479903284394,39.35320625912561 119.213618359039,30.663190388967905 112.12494128375599,26.380829734836084 102.81772924963207,22.26621803339947 95.18895172381751,21.243280816754236 88.17756066488937,20.499383725930443 78.54144339464253,15.800442696941218 72.33633871450651,12.614234825000835 70.63431763427096,10.888231210460162 67.55609919312616,19.951896883369614 64.891568949879,24.29787773588066 61.71823775236131,28.405144167856633 59.98688250986303,32.644586644706806 57.463234070183354,36.583812206575885 53.236102812634314,39.12292750871313 51.524454308557544,40.82382303659119 51.20949409596059,47.79883754673165 50.36658332928075,52.34188203046449 48.70755251634391,56.65498120690029 42.710604043667146,65.42419089986822 37.771134715964145,75.1297718899092 34.67618539091745,82.24830698215146 31.67051770659119,86.90900730664293 29.469221266831397,91.40161085333182 30.313426447919262,93.76555771315361 32.10804432121906,95.62535549019174 32.631429591416236,97.83347272985998 31.97544287418468,100.70569608854021 30.989303992611198,102.69790287710543 27.81819157986408,106.17435611611222 25.983757223749812,109.39555213951212 23.83509855990182,114.63471736812357 21.65630891750073,116.08714747173372 21.852550401339784,119.10953018126077 22.620221779600637,121.88198031339198 26.447192530267547,128.2485114337153 27.452873638445205,129.36857010040922 27.691747411329455,133.5755656374265 29.988727891547292,134.8269726695097 32.4503381577477,135.5295782761973 33.85104729643758,136.5807035099806 36.03337431133785,134.67899474318972 37.56530966425097,135.71034058029295 39.02657885608305,135.54854584717395 43.43019745213463,138.15318883571092 45.90375211480012,143.19348764249708 47.973809442440526,144.52583265682892 50.94666025999466,145.2015152498476 58.832208564089456,150.96420614080319 66.50209771948113,151.27602435891174 69.92169996086433,152.87354687367804 70.69844350726983,154.37856203880278 74.95645538023794,156.09398979475145 80.02102754759342,156.39589205321033 84.94668337232062,153.52239870978212 91.13045866905064,152.33120589449538 96.81606827142765,153.65818986807528 101.6886198156268,157.20406771255216 108.54731749114991,158.6411304352132 110.60094847306524,159.4514884902693 112.15960911893825,160.97279744472473 112.93182929686412,163.36748244006696 111.8258209085217,165.96185743980584 108.88972835839417,167.11591536855929 105.21808898251479,167.1108645444864 103.7480846949098,170.5704521045808 100.22948040637436,171.6083067781493 98.62760930755469,173.07698807136956 97.24118942405558,176.98760480697047 97.36217723367793,180.49018065497728 96.55623399681453,183.04650025139665 98.8559748397234,184.0936754778587 99.38957643956645,185.04680844881784 97.2203599703627,189.26834138481263 93.93993271585052,194.65656396261136 92.45691511635371,199.87372136793726 92.44013971210778,202.23249150714707 93.54325767815446,208.40771170428468 95.26280805364627,212.0045376100503 96.48208227074599,213.05512241505676 103.2810452076079,214.1132788410115 104.86141975260671,217.85133726695346 107.70387503021652,220.76218135908255 108.05646332226117,224.66570969801796 109.88072863482407,233.1742867521706 108.03355985922688,237.21580949053543 105.57527807956033,239.94576438070942 103.02607726149283,240.95045187457242 96.47757872932797,240.52561982186774 94.79604820911642,242.7509832628923 96.15493547746108,244.8942373787861 99.11514169598709,247.67339816541312 102.17464306308754,252.0354490149092 103.19311569096725,252.5843086825953 102.71911213780926,255.49259952706132 102.83623637558243,258.7104408842165 104.17046897814288,260.0381277861077 102.82631072774417,262.0407020088978 100.93774178936782,262.66031598566803 97.39561304629191,265.6796150956891 97.51919821853467,268.83670342415087 96.61467868999486,271.75160693432724 95.49503022183372,273.01087254779327 92.92108099361288,277.41603746854935 92.10628548467986,280.10768721287354 88.51753997533217,282.359514434738 85.28161073550906,282.23417807949556 81.57176746481797,281.0026327727902 79.29555464705916,279.55605070746867 75.22936181010397,281.1712313628367 73.86622542176076,283.6847198770221 71.74148316201807,290.62716024037786 70.98324477531636,294.4218585902321 69.21549439439934,297.4132754263894 73.63139726449518,307.0492940279827 74.15447044250632,309.5059067126473 73.85881368215742,315.13355769624206 72.61507171049514,321.4508320840255 72.78994165801441,326.44897095230874 72.52967773230604,328.18411473783453 70.99452525399327,331.18828736815203 65.90231362233223,334.04367392992754 63.02626980282152,336.55713402541846 61.26482424796355,338.5977769348764 55.59459296252168,344.2800865586013 54.432724010870544,346.3264274148801 53.84416211993414,348.80535122115293 54.28590926922283,351.2918329269439 53.87120257951624,357.993676600483 49.906839147857546,363.28063985383085 45.159553626303165,365.7399173113695 40.53403602844451,366.48227212899747 37.50120826740875,367.3386076995125 34.34427911711886,371.9969032556917 32.36910909859626,377.0826858473274 31.25313557073775,382.5949671174976 32.01356481618733,386.56804070150326 31.79889181099515,390.8295438867867 29.103166069829303,393.4570554770602 23.756779627119293,394.64401342411406 22.910144348276166,396.27240662903955 23.089585989509885,403.5645770467264 22.379727925325195,411.4622176891072 21.097185047176534,411.8104576064035 14.668949866747248,411.8640969106598 11.910636465487524,413.9187417627221 10.484722853825058,416.8126172534327 10.25607152631206,421.86166619945584 3.582893220713414,424.19447564140444 0.0,426.97914310369015 4.027915869088869,429.2279466189998 7.5358385603695215,429.5103962103833 10.458775221408102,428.9301638436033 14.899425979338725,428.72896729068145 20.237295675435885,430.7937853221042 26.465984161682275,435.0332592513023 35.31919256063114,437.4513565481833 40.157175551987045,446.7637882298791 43.32072805248819,460.16506659568256 44.98132269495859,470.0272677165026 50.064155253153984,490.2163566033246 49.57544837815884,492.06446799154287 48.13461740232295,493.98850067809155 43.63937352741922,496.3488100804485 39.88227575290404,495.84017401380993 36.51886364745358,494.56742968119954 31.91189044341295,490.30742253497795 29.86949815589133,490.38477361786545 28.145045246041246,492.11166212249543 27.942046864312733,493.8084605868644 35.32007323788509,500.24628772497965 38.252912643039565,504.4633807564712 49.06515647373514,513.7614610128944 52.85968330169899,516.1024672636272 54.31690359291957,519.0191528453493 54.03067545189485,522.2298799648263 52.565483720691546,525.4416688099407 52.84026690569113,529.8545596091444 60.3580287802553,542.6499588969828 62.4564902078701,543.0645158210759 69.36060123627662,541.6495657759405 72.70478240230608,538.593440789434 75.91227424771688,533.3363663702285 79.70318448819833,517.8715286081804 82.03177274388659,511.44178533554043 82.61710764734065,507.35291077207 85.53423643237629,501.5214957337265 91.94800156188401,495.6843252449195 93.98707308453567,491.89308044175607 94.66917098538086,488.4805687157402 101.98682325119913,476.84973304676635 110.33318342081701,469.4817913053548 115.18882497857582,465.49559730338956 119.76521684763753,459.59485927499156 137.45055037403242,448.9660489774777 144.86580476618542,443.78019066481 150.9754078539356,440.13846284893975 163.4753311704291,434.44386504187855 171.7569779046864,432.7695244007697 187.26388727909807,433.48357249323067 191.50742985223235,441.2117322617113 193.35523350436065,456.4830610888913 194.30250573166515,469.81542163916936 202.78673493205795,472.262593465594 221.32874463916306,479.70362542296505 228.88287145115467,482.42956457270895 233.48342076743228,488.57503560894486 238.93712357226931,498.8488509794581 236.467252237978,509.2595660855235 232.04756740625857,521.1921315783952 228.93425201067237,531.2630081723712 223.35184352638404,539.3633539318041 225.7281944265132,545.7633155321399 231.06567771690135,547.8024388053235 234.51393313789478,550.1048463193194 239.8783287522954,551.1917528994629 243.93085786083373,554.1428970654741 252.29023032905644,561.3480129564907 250.21302668876496,567.1170209143081 249.81911297410176,573.00110622304 250.69694229463224,575.5447146964075 251.09684487626504,578.5151976054722 250.17154104606374,585.1325945590222 249.3664275612563,586.2332088853605 247.6804929067482,586.7136396157721 245.17916974696658,589.7896826422786 244.67846517132983,591.5374010445804 244.9259023859435,597.9890949748344 243.35796006492697,600.4765520905439 243.43787212745838,603.1190185920877 245.8685309877538,604.279147201626 253.57719092850047,604.4689726059235 258.4868306101846,606.1369399801335 264.8989271353445,610.1570958837426 266.78460062475693,613.3614769328414 266.7778709319488,614.5083179104381 264.13038759722684,620.0724026359064 259.35703199756927,626.2291044670537 254.5447795633891,631.4223272152741 252.1027301750081,633.118436671358 250.10600479710007,633.9051911637035 246.37043292142528,637.753206914361 242.14794573526535,637.3284814071452 234.1400549578705,624.6338694503706 230.99168082635842,622.2393879891669 222.1877958865834,624.9503648828652 219.20648334165773,629.9492596521495 217.3439391615003,640.9962274619054 218.01725202771567,652.7456197355355 214.68332996007956,659.002442443836 209.90929981196464,672.8307238037075 207.75164275586076,682.9264298055357 206.52445482524462,693.9910286374356 207.85059534411283,704.4898349978766 210.51436151495068,718.0092277796565 214.35174794205477,730.1429793579457 215.78776834817626,732.5699803704168 220.70452893606637,737.3024921792542 223.81977691632818,742.0666383984457 226.51516879393327,747.1445742759468 227.3931985377381,749.7739251229302 230.74539719048218,754.0778434200616 233.8547207989203,756.0740329610287 236.50781988497707,757.2576828625927 241.98926991962813,757.4965863710581 245.27204076403808,759.9343604109658 245.95370227877086,757.4180933767576 245.254713539963,753.1705012148268 247.01129940960445,752.2897637503181 250.51782652176126,752.8744310824906 252.55789932882067,753.7473973796073 254.31092653217007,753.4607148244723 256.0652374821079,751.7079659099268 257.5263332315888,748.7858739735793 258.69962712704927,740.0213430194563 261.6162666721567,735.0586315330966 264.5382422308691,732.7198734759604 267.17099513882084,731.2498837370277 271.2613870413724,730.9559283989892 273.8956823443343,731.53499045383 275.35870869418056,733.284491891012 276.2341172458454,736.4966315343188 273.89313826389093,740.8798461925387 274.76795727681355,742.9230166357552 277.11443342535637,745.2524230621896 280.3754599633907,747.6685799652433 280.24423940254746,750.168811650286 280.74321040361986,752.5800903237641 282.8942503393563,755.7898367594236 284.38415790368794,756.7711340521953 288.35687560245185,755.2255359963888 292.7334173535169,752.5048696470766 295.2772954503406,752.4059730540378 299.93317775167486,753.3345177488384 305.32429131514715,753.6521480718392 306.1329387440725,755.9614302536602 307.8854975749967,758.3906538831305 310.141515117102,759.8678625403843 312.4256519707245,760.4954150460117 315.13984219419734,759.865151651586 322.04299567820567,757.443606041232 327.46412284916244,756.5709231304029 329.3763400338628,756.6130978584982 331.6315891710044,758.2640783623183 332.1275159932419,760.0298718122009 332.1087217004141,763.5034810302207 330.9857310738754,766.6947621440677 323.660030879702,771.2160484842462 322.7841653222072,773.2603906258565 323.363897896227,775.8874978203257 325.41704284159226,779.6805445563523 326.29338472001547,780.2587439473116 329.51076876860253,777.6218999301357 332.6727621918968,778.6131508407041 333.0388264884756,780.07010489669 333.00313985004993,783.9443207134265 333.5256715592778,790.3736267062715 334.04691904291377,791.5757907204145 335.91788647148127,792.5074906536441 339.3974544784743,793.0691964099594 342.4636089887689,794.1108429473692 345.7256136832361,796.7327946714844 349.08086664962167,798.4929622518997 351.39911998644743,798.1556350471526 360.59208717599336,792.5567206492128 378.01660297590996,791.2220732695608 390.740862025223,791.5213688921672 410.66088462202214,808.8004022096206 418.8333347799889,812.1617654374515 429.7923930746342,818.4569162088995 439.42304408719536,826.9502387324567 447.4728435313748,835.0763490002527 452.9065687779055,846.3181787501323 460.5268977050634,858.8823694037003 467.5171709170597,871.4350093277641 473.8636987353945,883.9747463923958 479.35410125715526,892.993979901907 488.0787398208519,899.2582239551249 496.8946088834468,901.0815834265366 503.39001485077324,907.2841863072549 503.5524230044937,913.9515322666148 499.5397188702756,922.406905968422 486.4203314412627,927.7566792873904 479.36197725012937,931.0500171122003 472.9245881934534,935.0117784603309 467.072989439935,940.8854070412714 463.11790695334344,947.4333780955966 466.9093667355403,960.850104689151 472.79206591913413,966.4073248288857 483.439830088684,971.7600564433798 495.6645498331681,977.1699433502732 499.4171271179451,992.1786549340186 506.2185623501321,1012.0263550258737 514.7857029055782,1024.0 523.7801687423174,1023.7705981124077 535.9222705830316,1018.359705704448 540.8600364133607,1008.1662531051143 542.2837889443236,1000.8338991970294 539.5476875453965,987.7067364152049 538.3696494496033,977.7373742100852 538.8529419918536,965.0555420152036 542.1681585489661,952.7456694172703 549.6111585475734,941.1305010341277 557.3176664618065,933.004741413765 559.376295372275,920.6716183683905 555.6982522272891,909.8262654011801 553.0005528095467,898.3684339352149 557.8578290235401,890.5215597522711 565.2475205350785,882.077766856897 570.7926525988714,870.429364632432 573.0824304758496,864.1320952946869 571.5697137612665,859.0292879755696 570.106019367758,848.5449774516708 560.3889743939375,839.5154069646077 537.1904527635077,819.1648383801792 531.2449340380292,811.7817095835495 532.752067637809,792.7839593419626 531.9488051490496,781.3526131380781 537.4418956937902,773.5144711285675 551.2745088629646,757.8806964797443 563.4454744135658,747.2921267548239 570.8293332426592,740.1178289068414 580.0987820376761,734.5586161213714 588.3783284860776,732.468759588037 595.6730646709294,731.6252762081217 611.9477119095503,725.2082013652534 625.6166099892625,723.8124941735141 630.0412446076612,726.0924220328409 638.8583283998181,731.9201679654941 641.6745382932529,735.4447178790477 643.4116581240221,735.1838979981201 649.3080876347965,738.0415908102902 653.0311339793881,738.1464822123412 654.8713305293047,737.5791352037575 658.6671545003239,737.6108976382855 663.1789292647377,740.5975491740735 668.4654572229108,741.7005347397146 670.4438003509166,741.7676350966925 675.5713974953891,739.8688403283942 678.964010074912,737.9119572404786 680.3998915467814,737.6290468126988 681.9338543165353,739.4175764414338 682.6674090670704,743.9586928865745 682.6102538659673,750.4952708735566 681.6498181481584,755.2466687979793 689.7084145164941,753.7032717117459 699.726952190806,750.9673958037678 704.926451688506,747.1818281764649 706.8210037393472,743.5701649772013 708.8918173592447,734.3244873155447 711.0258309023212,731.1542284977518 711.8177541696917,728.5948910530801 713.1747977857975,710.5084196906107 716.9368140685569,706.6671460971197 717.4138929722101,703.6467675930868 715.8745739707326,699.012298093307 714.9766836239568,697.9029724043405 712.9049508320113,697.1702004111542 710.5744654990276,697.490873396961 708.9284269116854,697.0660241769024 704.263020710454,694.2156673232289 704.1328991139054,693.3240913130805 707.7522091463754,690.7123236482862 719.1335466169523,686.5560665946705 723.1398879129921,683.8538512688176 727.0958064463181,678.4874909062084 730.5654836743765,666.2388505698391 730.6163590777204,661.2206876665969 728.3191000456296,652.5413713169935 724.6134187658262,644.8708093881476 721.3131361843771,641.2482923284692 709.933329157375,636.4126029122096 699.7070729659144,632.7276993809847 693.6034267897443,629.166596251099 690.1728288182045,625.9201866425212 687.8648699729648,621.654694347209 682.8525165807524,606.4058885668509 679.7754096831421,597.6238224309177 679.0857216942675,593.4751535960231 679.7203317177846,587.367227206377 687.1438794385499,572.9790853311491 688.0400539060498,567.1579381606989 687.3071435790829,562.6637337236818 685.4736624845601,559.014487742196 678.1288340245633,550.8960826433389 664.3825960071283,540.5998302801651 654.7624130650188,533.0683684567996 644.6188472079364,526.9977512022365 634.8985636830643,523.4039412323191 624.5452019768895,516.9940792807045 621.2346862994928,511.8354923801579 619.8601530093009,505.41664648040955 619.8950697711352,495.555360647944 619.0320190979814,491.3988170665625 615.9024906354236,486.6511034334761 609.9632910298508,482.5702557952394 599.2079261655198,469.0397774563328 595.8894658137972,466.55144720328974 590.4798549645085,463.6586745137805 586.6365372405282,462.74335454299603 580.0853671041423,462.2072945083013 565.0481973338451,461.90330256511163 551.477597622459,458.8940724006027 546.9290129105502,458.85646177981494 540.1949672317076,459.89173139697766 535.4741222589307,460.84516860657016 531.880412528809,463.1821051949278 529.5168219095868,465.1454629570828 526.887681247551,466.01471445254515 523.7426512120559,465.7874159807791 518.4255834477414,463.9743224440631 510.2669331856013,459.6244534974337 503.38726604670643,453.94903123882875 497.1230569749563,447.98027099161334 494.5121662157027,444.706521269228 494.5917428787693,443.0708667547541 497.0076818931542,439.26639496353846 507.6520026868071,429.7424304511478 509.8218094981231,428.55513358653207 512.4205687414008,426.33746211857056 516.4537455780521,423.54273091662196 518.9077076379375,420.6997809091745 524.0251634068057,415.8962029626198 529.7649987500731,408.87593570977435 538.6566104715594,399.6796829277712 539.239620197059,398.4246684448259 538.0624418629383,393.17607518885916 537.706418440927,389.044536645897 538.0497461059847,380.1114816795365 536.7931913682955,374.52538939052783 534.8275239879656,368.98748491795993 535.5206927489276,364.1970037245211 537.8147705651182,359.045547197971 540.2258094099984,352.24885227763264 540.9620364150444,348.8693004230238 536.4225103195304,347.43990765359683 533.7691427882357,345.7736095431419 533.7358156173445,344.93473932780694 529.8279409724355,344.4280092363234 527.9414180784798,343.01074736052044 527.569841948799,340.94483465332496 526.2280956158841,338.3124842784058 524.0974764502722,337.5159457447197 525.0266430729437,333.82084617148075 527.7936100698528,334.6407567625823 528.563174080205,337.43375884973705 530.1185188574213,337.96116112269124 531.2095105457746,337.19881215477994 533.0335298986441,332.66864468628376 535.0540744107915,331.9004408066835 538.4867461451004,332.4769438918204 541.0288419857658,334.3168122240636 542.8142145470198,333.7727710285204 547.5509379209483,333.65796129100954 548.870821874779,332.36581234249013 549.8374820558844,330.1630277073617 550.5084390061354,326.77349172338336 550.17685630156,320.1907999551514 549.1003874080305,317.4077262548806 546.3695169724417,314.99517105172276 542.5921519964054,313.0384293187942 538.8938787048005,311.553098361052 537.0164837508099,309.7877708504924 536.3397672969836,307.07671151769296 537.1564292208628,304.0871559683202 538.5272967097196,301.08881834002636 543.7720164099183,290.6903186677191 544.3108980160936,287.5158156987717 545.9559197180474,281.84202973638503 548.2271870812306,276.4885669822402 553.9113904179993,272.89534776322523 563.8919312004708,272.404406458631 568.8913807741878,267.9194456906108 569.4223640413162,262.8448871776576 564.6856862049038,254.18470143257673" /><circle cx="369.0940751650989" cy="365.49037825938944" fill="rgb(100%,100%,100%)" r="16" stroke="grey" stroke-width="8" /></svg>