<?xml version="1.0" encoding="utf-8" ?>
<svg baseProfile="full" height="1024" version="1.1" width="1024" xmlns="http://www.w3.org/2000/svg" xmlns:ev="http://www.w3.org/2001/xml-events" xmlns:xlink="http://www.w3.org/1999/xlink"><defs /><polygon fill="black" points="641.5170750956323,154.8176488805408 638.7795869514646,155.7824944147677 636.3658333400351,155.19793856978345 634.0151901780462,150.88265826178747 635.5329020446077,148.40992602773565 632.4508423753464,145.25733868371117 629.8263951977372,148.693389892838 624.0943182161913,151.19880366305404 619.0450419475824,155.95050672669538 607.5530950780073,164.52680165388256 600.3883974021469,163.89535194347548 599.056990197636,162.89940196486998 600.5728814694406,159.86140812372696 599.2054841509706,157.10380759923726 595.6169262591391,156.65097644155128 593.7144261503016,155.2275407323806 580.3957839268056,153.89143057852948 576.3169783200267,152.1593705365026 573.5790054780567,152.38885337208285 566.4336341237038,141.76327936329903 562.8580975547975,140.39703848014994 556.9278459631712,135.97618485450016 552.8582531209261,134.4918773902192 549.3245002221327,134.29579413980412 546.0149135858195,129.57470653668815 545.2246510829042,124.76563819617422 543.0243626881692,119.99469365522555 540.5847221124945,117.45233764537716 537.7273223733604,116.30614483334375 534.880363649356,112.97253450247081 533.2419383553711,105.75001029870327 534.8523338372131,103.1958976144058 537.2384854721007,96.58764317700047 532.0787846022763,89.10377789031668 530.107201215325,82.83031163545354 527.6410338866989,73.07274457098447 520.3880501594804,69.62095332080355 517.8639030887642,67.5690325890472 515.2665249053601,63.70720716348853 515.0659373877678,61.3002357386182 517.0366816336983,56.61882937628445 516.324476428365,51.671296687991685 517.7593393353043,48.380513647692055 516.8684545595943,41.12190454402355 517.7634734959033,34.68577336590158 515.8955688671192,30.65295487587366 512.7417686879638,30.25596122339914 508.75957343658894,28.145830346674416 505.8682784486042,19.836360238683596 500.10160398366844,14.520405114323239 499.8550363563558,12.152095289367821 495.8883474566871,3.9969617928935577 492.58885556944506,0.31924035441875276 490.2610304025592,0.0 484.1229362837417,5.087101380864397 487.02794330838015,9.352355501502188 488.7854381397845,14.475782789254367 488.0807359696965,18.247895674735332 488.90325613649327,22.418148260686507 487.9342627766578,24.826370167355208 492.3753582443524,33.160314000922085 493.87058928320977,38.9986380131711 493.05216688540884,46.11394265377453 491.52267846904033,48.19469305770906 477.9215476099983,55.15030287932825 472.09222035709183,59.37930113871482 472.0199017226017,62.3793407946381 474.7397871484122,66.52100841300933 476.46840428972,74.13177292897092 479.5578987852848,78.27714734363735 479.7226295738616,79.69221989173968 475.2242316263401,90.52772784523518 464.8325519818995,103.92582689311632 464.2426128965749,106.120403379859 463.98608443800816,117.12931940924261 462.547970127127,128.5611302853108 458.01566556486085,144.52353949715916 454.5781065321886,153.96928327666274 454.79757398528204,156.36778012230945 457.0936381187176,165.1411812420664 462.1456926092359,171.94203570166167 462.1607519774916,176.46507860527936 463.44326020797536,181.50545821008188 462.320039645108,184.79924836051998 466.7528341345488,185.8096735833492 470.6472092070205,188.81510681131658 471.6174998896133,190.8341379951063 471.2046263405175,195.85731525295546 471.5199542420594,203.85383256680302 469.7380511229159,208.5978583942724 466.38426244670063,225.9291291830823 465.4341652150084,228.30270868568607 462.1704188114428,229.59168479698155 460.3465690491973,232.81747721820182 459.26979604582255,238.65585212512667 456.9503502905319,242.2680048805131 459.34646082385376,249.87685187971624 463.03831426675663,254.11536120640199 463.20339597415204,258.13108798046596 461.40264783501226,260.94832185891505 457.7467042791748,262.9291238620916 455.439219201272,267.6025297046252 457.37464080282257,271.42313731922945 458.51846485546764,275.5096839477725 460.5466736985416,276.95235791819243 465.3555141278329,276.67494144997454 467.55474414413226,280.8025953073103 464.73578292207395,281.0393216185305 460.30052573463587,279.0503882256497 452.7552085153664,272.1938184480191 450.4229475879997,271.4220987265139 445.03711533583106,271.8500408968206 440.51683187576,277.4750071453436 437.64844461162227,281.812096266317 434.7896605191901,291.1809744855227 435.3523584637537,297.6709611891339 434.808571634431,303.153758207882 432.98897248078845,307.78419743877714 430.53475433371733,316.3308824400351 427.90003520260035,320.5224391440996 422.9867734227184,323.13377840646683 412.78228398729397,324.67758333774395 405.4360433858406,327.38122169114365 399.83614273141734,331.87705405030283 395.7529713445586,337.51044467332247 392.610575997951,340.24404417142455 387.8085817231318,343.112744695237 383.96128463980324,346.17824280784305 381.4108910066283,347.3087628134232 376.6371190320257,351.12136012511917 373.41229574050635,354.80205066207384 368.82732707563986,365.40956880721615 367.1586426576441,367.5232925354601 363.6168165650057,369.76983713774723 356.5375748021335,371.988393031334 346.2447633606514,373.09057261122166 340.0240141243324,372.29092020473377 334.6041084212823,368.9031962774484 329.50391157289766,364.10967413707397 326.61938130981355,362.5313528359269 319.193032947944,360.0183744742375 311.1904282479213,359.03007204046537 307.99369407046066,359.97075883325647 305.37206786560125,365.3229586222383 304.60397301288384,371.6817967144343 302.1964217021825,378.0582321903603 300.47418391278063,380.15376398409137 294.02639376716144,384.630740662127 287.64472301180376,389.6954361431809 276.0561083386463,395.03568870734114 274.3085358327435,395.17816849714825 271.46531088953725,393.2955001107672 268.73642506563084,387.4477494240497 263.31470473620783,372.36470630155713 258.7231294175943,360.28246864622804 256.41888289424924,356.84845688461667 253.1038332209744,355.27378390917386 247.94984702177948,354.9233858744502 242.80242943255888,357.5433629670538 234.59502747622514,369.0070380144135 229.84094652743553,372.61393437573247 227.4176191496208,373.5709906854138 213.72578024272977,375.1992674954944 204.70660535668665,374.07642107299 192.1954228440037,370.4717679328361 176.20868932136966,362.17587287458707 168.51239788245655,357.89608542449446 164.727331740522,356.4504909103358 160.98293137392326,357.2407055993722 159.77196229976573,362.0593926210097 161.6760893039081,365.7679495653862 165.14845335822324,370.05445544608835 171.3101185812577,373.83935420076625 172.48975627140237,377.2225661512538 170.02790623136536,381.7364050079526 159.56322511000718,390.5432863453781 149.58495610688524,396.64140995922753 149.90571479433777,399.41086720850194 155.0209351269938,405.85929531728675 155.9483860307165,409.2920096765557 155.01016974548983,413.55260833171485 151.42571619570512,416.7799491520867 147.91690216847812,418.2989139477129 141.72205494297438,419.99313779235706 139.5077780301714,421.66959275145234 124.68387835114471,437.80872092821267 119.7353572070466,442.31264485929944 114.82282816587413,448.7522326489991 107.23502269618147,459.9378193625886 118.85491288590123,476.2429298702193 116.81879371879685,475.5336059578457 115.05546660238032,478.48478359537773 113.56230471233857,478.33803821771164 109.08456634505082,473.5444044164316 99.73968185514993,472.7464937961597 95.36038087582901,468.73226742678344 90.90438040136709,471.3798935473732 90.15564049974635,474.63782625956094 86.39046502334415,475.4794244944097 85.47078715320394,477.2828949864984 88.38466658424235,482.4467073435874 87.94844221606846,483.62921698133675 85.91133840262924,479.8797571668007 82.4427403604002,480.794160314489 79.8704668950723,478.2130419272354 78.82858457656258,478.64085875812043 75.9775129558972,484.7808526258932 75.79252032040607,487.73617504020467 74.37373634948752,489.14707689864395 75.75509466685827,492.1848422437612 73.27771954143645,493.11006573670556 72.07961785598903,490.40048557220973 70.11159875422045,491.1268847778781 68.21612325349217,493.9242229191881 66.6650834988724,499.72619066979564 63.85872867636407,496.92930316546403 62.16705211175347,496.797598750485 58.51027401388657,499.5450531469743 53.412284810903664,501.2284577210131 52.1181967834944,504.11500015282695 46.52273516470992,503.5313275135302 40.68343606320231,497.4128772121679 37.41301080480942,498.31608588863253 36.84746979005152,500.832283757338 34.1756498538924,502.0856727313611 30.01153819480997,502.41790003900246 27.533022435186734,501.7119628609091 25.048870868262334,502.5455202014124 23.01146627272521,497.1431049792362 20.41925437930589,493.63071122709823 17.144502084201065,507.95931816277607 13.750723906400815,511.0268276441931 12.315966218993351,516.9343096811474 12.057454781481267,524.7467201280926 7.718087915408671,529.4954609249835 6.258981366376278,533.8108937887245 3.8954978435122762,536.4592509348217 3.127724289698473,538.9644626861931 2.6650512537284134,547.2877858246143 4.188304467276362,551.2580627398304 3.425730158120649,553.6372095873028 0.367571231044448,554.9556946904667 0.0,557.8219863537046 1.1560794596183919,561.5446306670644 3.2983309815276196,562.6775116098772 6.753718306465059,562.6811948516437 13.548255561684346,565.5967147940133 14.76071844531696,568.3761962473291 17.416262643362373,570.3453810981345 19.988222302295107,573.6618304769402 27.247185863668935,575.6472367911379 32.310895256258554,579.5565978361069 37.142914907999696,587.8689246331004 42.42403830500056,583.5130196245123 48.24635660942947,582.2943445667064 49.968868946443564,579.6604323906304 51.91791531194161,574.4674236766687 54.81542684362812,574.9168791828214 55.08907521404015,570.5056130406767 57.99932377860459,569.4504196053211 56.675027797245626,571.2580797913306 57.73544148250078,575.4013558991685 58.84487794206604,583.4071185620627 57.63250698369407,586.4772375755286 62.15191576384861,592.3982007422667 62.256946043468425,599.1447172945826 61.222956767655084,599.8683265682429 64.35552702029943,601.5032370944821 60.925652321020536,608.1673702504157 64.35250978809727,610.1012507520585 66.60848407489324,605.7813680168599 68.90057803748707,606.1544815798236 71.91060571005458,605.0611448469576 71.80632699755928,611.4313340197823 72.38055770707248,614.0209644831061 76.82681953184438,615.8746058464924 75.9759603221698,613.1166845341488 81.09531951459834,612.0246768200084 82.68505578940736,608.2714895068366 88.22576897035337,609.7977845966823 91.07617479309806,609.3462288725448 92.50256520970164,604.8257955003182 95.14907033822517,601.0406332485422 97.71033962744532,600.8642152650758 100.74058798327658,596.1612216523122 100.60413159143626,598.8778708939988 103.3082435444908,600.2903736360206 100.30551781638609,602.1233301861764 95.94038546143554,609.255888287111 96.03666280701725,611.2661886892953 98.43015520482528,613.8843513071306 100.8760684345007,614.4981737716448 101.29945838743025,619.3910925209893 103.74672368400861,618.83502662522 101.27487480326316,621.6436158494516 102.48249582741977,623.1832990786788 109.54105519506227,625.1085893675955 111.25008521631747,623.6920312997637 109.9728919645669,628.5359677927066 110.5528631192803,630.6211136160817 108.94389456252694,634.4046234075447 110.13701672102357,638.3317321779246 112.53614041288469,638.0012385651144 112.3258693578914,640.8475513743385 110.60716003471795,646.2998921093742 114.34593379663085,648.7108026358669 111.53576474322635,653.8555353801117 115.8871472156773,654.3116964314447 117.28662887349938,660.6721168136894 116.91520770489743,664.3081951783277 119.70460214014369,662.8294151241128 120.32182028409498,660.0919014041394 122.60779067947821,658.5989355778868 124.23078858586115,653.5195306196063 125.84962570609821,653.0369715682552 127.54853196540972,655.7213489912833 130.0326403126154,654.9480823163835 131.19684627541145,656.6394217684465 136.0905005258216,657.0447269502911 133.53382164423027,658.5304764737352 132.4652793966936,661.7371535072496 134.93346868671486,665.9563347223225 136.9554284392458,665.5911753531741 137.90334712000404,661.1915581268516 139.50476576427494,659.4997398780425 142.34082784511352,659.6913423530793 144.43681993319535,656.0043203366815 146.95458819627484,656.3490162120313 150.31822830501102,658.551155652176 155.12634494873527,655.2195455178248 158.99561462704042,656.5224843394208 161.10050042576339,658.3673978018973 158.99981505055618,663.563539533664 159.93335901912604,672.5107674126417 158.97255755062542,677.0624963666496 162.75124310326052,680.0648683723559 161.75734644608013,684.5031715536645 162.40713134384058,688.6373539903964 165.1268390554782,691.1499051156237 165.5342907615039,693.3461762010202 167.36031026771832,694.5357006798677 167.94194138995218,697.5644972019522 169.40672215877296,698.6457507107589 168.8323954449066,702.740658979398 169.72337792998044,702.9024543061178 168.9455666825589,709.6002104125197 175.08562760983676,710.1663275297608 179.41269036479667,709.7430895024013 175.90630867977157,713.3237961325086 182.0328853734027,717.6428300930197 181.58827154314872,725.3052919231358 183.2808705775247,727.9241213942887 188.68635647757696,730.4870367009084 190.31364736426815,734.22282031908 188.4437204928858,738.1821024769952 188.8228846643056,744.8183281239535 189.69045249901998,747.1760536681379 197.18350136989395,758.2851445987967 202.23960567619525,762.5228358519485 213.96246111367066,774.20730975417 221.96374510168766,782.8337447278964 224.3281544322024,784.7550045442936 234.8775203972306,798.9009478706339 241.38374331906385,808.9767349494223 248.421193479163,813.2261167479923 252.2164633559143,817.3541876171117 253.5293444344843,820.2296358583617 254.19024488514256,825.946742810463 255.23647490699523,828.4192693424586 261.90968198290057,839.0313865352309 263.90609809217506,841.1529357818607 268.92750050663665,844.484853989899 278.2212922296105,845.8132399295811 281.25004668520717,846.6669626565545 286.4872000337791,850.9142076273076 289.20346235399205,855.7394954368017 289.97505527735564,859.3180205001578 289.13201960809675,870.9468480906347 292.1819890222645,878.5458478528964 293.8145639760749,885.1993371782855 294.46848438019197,890.91627172116 294.52144715020637,898.6274111908981 295.1264494844179,900.2645699341637 298.59257019550796,902.4013012908379 304.5971558451938,902.3117680227818 322.6417645885709,898.7030680728878 332.47564665501,895.1781892614432 338.0757634257891,893.9620085164895 343.8951086144,893.3177292712861 346.4983065713185,891.8138491513852 351.59554163247066,891.9795922963714 352.6423383353614,893.7256004863843 352.3210101836093,899.3410191516307 353.24122735514595,905.5867938407725 356.63896668516327,913.2715063484284 360.6255045463549,916.7960456197219 361.41398353633036,919.5439523722507 360.3653984088558,925.3693173487328 358.7984818322693,929.6367943915363 358.3096537949001,937.4379573598283 362.0194245855702,942.28601949606 366.53897580927406,945.6028851765261 370.815393559771,947.6995243995357 373.8968247355525,951.310293383684 379.44560223059364,960.3606735362481 382.8877802771208,964.1707711070165 394.0575858063945,972.6827427133746 410.03994069858913,982.4654976812075 416.9887621057464,984.5888907537574 420.81193998383105,986.2672753722436 425.6852362225495,990.9221865873596 428.2562446068171,1001.2680337929135 430.1031552290608,1004.3526866951613 432.67705644550773,1006.5227508150241 438.81983167638197,1008.7463334045234 441.0204994507997,1011.2126365477023 445.40980487770304,1021.1201235409716 447.67780127700246,1022.5998898438145 451.80504104510425,1023.698320871575 458.0018644069032,1024.0 488.9212655402662,1023.5886435632881 499.04333245341775,1021.906841024379 502.62676570620204,1020.5075146474891 512.689776534158,1013.2409833209748 517.7621367821971,1010.6691465825288 525.9655941163695,1009.9374436260877 529.5608309711571,1008.8685335556444 536.3975417791572,1005.8269288729983 541.7911400224652,1001.2445293091897 550.024975354175,991.6151115064785 554.7644087437662,988.3046437303041 557.0340212274818,985.7656047575459 557.8131721588312,981.463656949989 556.921093787931,979.0238978526835 553.6221998180862,975.2383619168024 548.0649465570466,970.9303774603304 548.286193396706,964.378959016468 544.4312430184737,955.8563791511484 543.021414742481,951.3631877011063 542.5196332705701,946.526726558086 543.5051067859075,944.5273419885037 547.3076519919749,940.9641626073134 558.2560854296423,936.5495482337491 563.7725406988895,932.1768703140415 565.09198238031,927.2583557821074 562.9576262788268,922.3014692930492 559.2738025383519,919.2731950647516 548.9893408567306,916.0231301043877 540.7093955703011,914.6365662727825 538.6537765979966,913.7073059068531 533.0021196114246,907.4672892562195 531.6343737771978,904.531328393126 531.2728774021251,899.0395640479767 538.0592527829477,894.7493899987603 539.91772059262,895.5375428476793 543.6223480348251,899.9012759017857 546.1745681958472,905.0233107075032 549.9215759603082,907.430450918985 554.3700569153344,905.6696538609162 558.042102495358,902.5269390875808 560.2098812166727,898.6605120921572 561.6600177122049,894.0303128531709 561.4163825753034,887.7743620634183 559.161757369882,881.4942247206895 560.8930929868975,873.1138001259417 564.4606291298766,865.8299686117438 569.0752174649233,858.3911684161055 575.0223026697322,847.76472591723 578.4793674424468,844.3022877820607 582.7427105972863,843.4439631692303 590.7164023916961,847.9187834747959 593.0492191975633,851.6946295591226 594.9066256328555,859.9885326917572 595.0308280712983,881.6118413225566 594.6381532182592,890.148981817568 595.2565038986677,895.9910795695005 602.4519624680852,911.4821396994515 605.0280760880885,915.4037825341445 613.5823857728778,922.7278766548598 616.3002039616754,923.8719724689867 627.0574991248441,923.298157639537 635.4843505099187,921.7708732906962 640.4952091983901,925.3679876910062 642.5879863186391,928.7933089702691 643.5289488242084,932.1335498065055 642.7166727792753,940.7405510062997 644.1387694661631,943.6679631959169 656.0223521464557,947.0616773534472 664.4398721437423,947.3297730739757 669.9570315455119,949.1353816797782 679.0399463570393,957.6330380157594 681.2828240853617,958.985255302721 684.981059404185,959.4294738724757 690.1053686982044,958.0347521415307 693.8860572873496,959.43640438112 697.9377823775179,962.0365093209361 702.621628433435,963.1988322071177 706.5236346846012,962.2923647319292 708.2269246324339,960.5952011235106 710.183498824848,955.9476672204482 710.210275108143,949.929302381891 711.2992913043232,941.7858323213773 714.5374839317345,931.1970916370815 718.4035402842208,923.6018669674287 729.033223345959,909.0911265954619 728.4836218543303,906.2766444492875 724.9295067890349,900.7461386824957 722.4080067917115,895.7994427579761 721.3629666284412,890.9102507154963 722.8897210222935,887.6762648358526 729.883828459829,878.9625977306654 731.6360276989449,874.0782106763095 734.9137002294805,869.6996792431007 735.8082493781246,865.5072938390908 732.9355536391996,861.387925802032 733.2613817330425,858.416490808407 735.9300148173636,851.8491234979883 739.2703061320036,850.10648161512 745.5542144550178,851.8401840492791 757.4757367250143,849.8001078752609 760.8607206107511,850.1885982224729 765.134412819974,852.6510622411234 769.7456794029159,850.059111159121 773.0414690948346,843.6931307548659 777.2513587616054,836.6877497389044 786.9584153148846,823.3064504204606 793.5806498591277,814.5405412727732 804.1511734997674,797.2531391622799 807.6602907400606,793.6981775045303 813.2991534110738,790.0629972944234 822.2812804484586,787.1415578857552 827.111825750089,787.1255139302967 832.8699161664758,786.243924438245 838.4266844252201,781.5509463665308 846.2176338868278,771.2382916386048 852.2345288423556,760.4699355626574 856.3537868933997,754.3893047348552 860.1648316984678,744.4789561606635 864.4153027370193,728.2539755385167 870.1433117712645,722.2489066776232 873.2440626528833,714.4366969156749 876.8554993236156,707.4988899142858 879.3687870322436,700.9119314832152 879.4844361076144,688.2974456260249 880.735643284464,684.1341734291201 883.5933638915373,680.3204655084161 886.2530206008269,673.969641827098 886.2727250583146,671.8172208905892 900.0533554882668,615.9277043151027 895.0493085206588,585.8977284475466 873.3657660013419,578.6931939291233 841.6772303122154,529.7733681825878 861.7265939294075,490.1765846408887 864.6635926338332,483.0326200270241 867.6386541984425,482.5077498372526 871.1355754690397,478.30864295535287 867.122979877114,475.98860674453726 863.4055015750301,472.2666152680582 863.4519204298141,470.1274687395937 860.6243765080688,469.13596296841797 860.3850393445091,466.56365414105824 858.9592316407708,468.19866041464434 857.7192949725879,464.98219461229405 856.44517902493,466.29243924753314 855.4141728628022,463.9867815000963 851.0633324585878,463.22031277871884 850.3939624808212,461.3919995864951 854.8340497230989,458.27588117709877 853.8966304405682,457.3974683177231 854.1276901560027,453.02477721837647 858.7832578234676,442.2524935241174 860.576006287883,439.2684207403769 862.8631843574677,432.27937040103564 860.9709737186134,431.5878515868418 859.9163228717224,428.54704441171236 860.1649770276808,424.32671689076267 858.6497267962479,422.45146195165796 862.2276687035969,418.10967093082036 862.4796506086886,406.5052140910311 864.430816888781,404.9272335504385 866.9880399694515,400.8760529831443 868.8409215237607,401.271475060281 871.0040228026436,399.8563239094657 871.8787522906681,395.9418204954642 873.2563340624845,395.78925478857934 873.7711845959295,390.79729617528074 875.0646849720217,386.9388272439354 874.4959201853738,382.46743780927716 873.3523209506802,379.56934568979784 868.3429381573951,377.1357283520748 867.354928641348,378.86611432630605 865.5308285599393,376.1878578415203 862.1674694767987,377.97023905603066 862.1852234623659,381.00147720662005 860.2548145986599,382.4056875419444 857.8527336518558,382.0486376427533 853.7669443563992,386.0943253148953 852.3241190658939,384.23710540771253 853.1377547034946,379.11311431097204 854.9947677450565,378.6388870887213 857.4067138203401,375.8649475703612 856.3532569644265,373.950456401069 851.1423724155712,373.9457266457341 849.4574247565918,373.1299526588007 842.0042784105765,376.0919329824352 836.0941078278553,380.36841008185286 833.4126606406951,381.3610940224245 831.2576545933575,376.5748156329678 831.8738811698146,369.3398695624569 833.7186662748089,368.53946093194077 833.2451075433327,375.19300206109517 835.5611793223235,375.7755225011864 839.1860753975383,367.1856187604735 843.3942902316621,363.08901417514267 847.6904228250303,362.65918492827996 842.9805026518145,364.9594877261176 839.8869276688002,368.47500893502433 838.8955408729001,373.43207967537296 844.0193604813468,369.2613435758201 847.4537426133884,367.63196278744783 847.4050602049716,365.0700972264625 850.0621824031633,362.9855719956945 849.3194150664416,360.86954733194113 851.0159139644504,359.1979456120721 848.227432185561,359.0068613663443 848.0709057730342,357.3876750644522 852.3406969065675,354.44398117347464 856.1442419616262,352.86144337565815 858.3863571647553,353.59972006948635 858.1165937909767,346.90884941731395 856.7407112186215,345.65673232139875 859.2727457251007,343.4796762701178 860.8703694003036,338.88476610485964 863.1936520420261,336.1926080753972 861.3570055502893,342.7335572430038 861.5385646258455,344.5356167802049 864.9404275160633,344.74967854506394 865.0926531654791,341.88525876496055 867.4204170093277,338.2929299741213 868.4446268030946,341.72049306753297 869.8912386171237,339.8508256288827 869.8336294586724,333.2836862066273 871.327806307935,333.2800660019499 872.0428755646763,328.8944217617002 868.8622628844669,328.2606215526894 867.453076288199,323.1856773120762 868.3259531765397,317.39684628410726 863.9475006129044,315.6473720442733 862.439803216572,317.1207188901635 860.0170571583142,316.5634327243016 855.5913062869417,313.3392093414918 858.9302316502868,313.32660874736166 858.1619022845351,308.62284753127415 856.516332836376,303.9892449267968 865.3016021199552,305.6273027532726 866.2157896554459,301.96974343674765 863.7968487856417,301.8343388520966 861.9521966615166,299.7690322382954 857.7856992503479,296.96469939261453 863.4291163075403,297.90836477329583 863.7426900106321,295.31940313928146 858.4501027125756,293.1221944836027 856.0123665438815,291.31664832361935 853.100971968712,269.4676048121031 849.3809596118589,270.7464552250922 846.9452188494156,269.1539599859303 849.1849127360066,264.3519520936046 846.8328498907632,261.138140247269 848.697854740591,259.7507891002248 848.2119937231931,257.0761396190604 846.0183906335291,256.5034933095902 844.7482839589685,258.6704371318084 843.6947878114315,255.97746528692005 840.722991120917,257.1283761095882 838.5575486291918,260.495940899488 837.3742214750747,257.0146182594276 833.8582605803484,258.8953657407061 830.5800506423335,258.1603393996305 826.4597784313318,259.8614493280761 828.9555800403097,266.4470137197384 826.3975421494423,266.53623838124054 825.2274855767264,268.586646565823 823.5958518799549,267.8234371441663 822.3152557405252,271.09916152103403 818.4886003531107,271.95058280521494 816.9763346236374,270.2404308698891 815.4172835478678,272.31327265800644 813.9877570184337,276.8356824256748 806.4213196385888,279.82640723330417 799.748538168868,280.1726355755343 802.1634377469516,281.5390600954596 802.606692453953,283.44798227062836 800.7266302392769,287.2268373351701 799.3643062558912,287.40975234158793 794.8056386855127,290.70247310781076 788.6058334495871,287.7479068135856 788.5083791295618,289.5995726370403 784.2949847894172,289.8077989911685 782.3631739491451,288.5415023677682 779.1075508019328,289.03267496986496 775.2563564056383,285.99568398992153 774.5329730019023,289.55051665734595 771.0639881976714,288.82195564806204 768.2450788840557,293.913848368869 768.4218141913344,296.99011477159024 764.9952202581228,296.60981275149413 763.612031034477,302.2153680431526 757.5345944047409,300.42700433439154 753.451827214488,302.11912136381227 752.5975105181495,304.58983218323965 754.1898287752612,307.49253453104393 752.16432289892,308.4691981065756 748.5805255388677,304.16466592426457 749.3520122492031,301.58880440693054 747.7194422399571,300.1208036201741 743.8530885243943,302.2976063143908 742.6047948265689,306.11268308548483 740.5919856329308,300.94455921401936 743.6463944757013,298.78181042915276 742.6365895004225,293.1492086440792 744.3473371164057,291.1998150483671 741.0725146674328,289.2943393130189 739.5314682284528,291.03224436322205 732.2974526419238,294.65113092589 732.8003084636773,291.8770369607299 735.4611773618394,285.0138827367025 738.0513394545835,285.169013698812 740.7573693678877,282.3593473081013 743.3099247239236,283.66217463084445 740.2057475846427,278.24882640234034 740.4124031451763,274.1542178682097 743.2241936239517,271.8369601090885 736.9062575732106,269.3414996588714 739.8062583853605,266.1640398040814 741.7863975589855,267.1352712621666 741.283522262063,268.71780128444425 744.8923973077171,265.13391741474857 742.0573970164846,262.28458084180784 739.9799606259197,263.9304059479375 736.742143596095,264.56494468125493 733.9544101214385,262.75971906878726 738.0411313961491,261.42442948322105 736.6916110157557,257.86729667805207 737.1986758899886,256.2456716799562 741.5452527276874,256.4305616396407 741.8780645674851,260.3041673273625 746.054235252734,254.36427086650156 739.500776674539,251.81441192259035 741.6903257055639,245.99045128212094 737.0588911433751,242.91523398910272 731.3714179840233,240.69095834160498 731.8420708546785,239.6908716164238 727.1060093515214,238.8063506486095 725.3917623894316,239.53797449680883 725.2959444529657,237.20174417941382 720.9218670702378,234.33320332018093 721.2083290568323,230.67858518197545 725.9008815843265,233.3153310457858 724.7441415322138,227.1507013034859 722.8732371406844,225.93689458681206 718.4701954099216,225.3120389097944 713.4498892688413,228.26030775208903 710.1683927843037,228.70287875549707 706.9563132538311,226.67595864607665 707.0181168315768,224.20641818213096 705.2430005846684,223.3413602739804 702.9783857806278,225.0374025557561 703.1922648585188,229.74923714707302 701.9221861611422,231.8462195631107 698.6924673530373,233.63734182827375 696.8112203055317,232.7103475995484 693.3379316014061,232.88132452335117 690.8666728296488,227.53456040981496 688.3662277275214,230.36330533374849 685.980124652213,235.1631612592921 683.987193421355,230.80380492064512 681.2239117963508,230.85107053350646 679.1036131915849,227.0601572311565 675.980129291284,228.10414335744417 669.7904411942425,225.05662499642426 663.1359521369816,223.57879297283012 661.2153656391599,223.96896217047947 659.5154603080226,221.2518397213712 656.7298725379155,219.6766148839688 657.181949039121,216.68029912701786 655.2749016839222,212.1476767268265 657.2150324645114,209.73985890711356 658.8804632527623,200.29727894188522 660.5809942764197,196.65639845907356 657.2518851302665,192.99279612642658 658.195885439165,189.17062357940813 660.3950252084363,185.1910250984903 659.2741480799539,183.6841421967306 658.7864367867923,176.61687169850597 653.4243371082223,175.53845438183328 653.328619045114,172.44983653612837 651.8638188742883,172.22685025298347 649.3622771347889,176.7383763136894 648.4409361914218,176.26843265882883 648.7978618404746,170.1313191013238 646.9371795680872,164.3901103061654 646.9362937964489,160.95885128130772 648.7029598534548,159.52352900134372 646.7240924964872,156.9253915673811 641.5170750956323,154.8176488805408" /><circle cx="428.49510050910027" cy="585.1723559654849" fill="rgb(100%,100%,100%)" r="16" stroke="grey" stroke-width="8" /></svg>