<?xml version="1.0" encoding="utf-8" ?>
<svg baseProfile="full" height="1024" version="1.1" width="1024" xmlns="http://www.w3.org/2000/svg" xmlns:ev="http://www.w3.org/2001/xml-events" xmlns:xlink="http://www.w3.org/1999/xlink"><defs /><polygon fill="black" points="267.4064203795397,23.797454142737706 265.5668918991398,21.83807291740959 265.4490215964067,19.878817365063924 264.21970980472645,17.063449668531007 260.9100061298797,16.082154755870647 255.64566229379304,16.32676148704286 252.95141385998627,18.774080517340394 252.83244211142716,21.50117780931032 251.24507296095686,23.095424550782354 249.2849541270886,23.705240366971566 244.8774911413873,27.254857320614178 240.35037332396575,28.5932399303083 239.74031241964568,30.80235653680836 237.76693034853537,33.5659582218608 233.14172561511214,42.97790370360576 231.66838685820733,43.712261882471125 231.36624821999067,46.449232499075265 228.6271006452947,46.04863310997996 219.77589148050185,38.75358644372375 218.68342672442196,35.054752954707396 217.13215407429809,33.542785954351416 212.4850790311573,31.203086032529086 210.04043889127885,30.835040170594652 207.96600374586438,29.727567712337077 206.98800487841353,30.336431410087926 197.69796310435504,39.65931522693904 193.785230638882,44.79080050141317 191.71430977988305,49.701566695769884 187.56788783187733,49.40318932904188 179.93359942647362,51.55554718183771 177.59353819588347,52.98212125999794 177.28039909961396,50.357944761154954 175.07851209626855,47.0810457098371 174.49726995315254,43.679029665900316 175.24730520500015,38.10581820783818 175.15848615508108,35.53715154104293 174.31836438470876,34.21218827028247 167.11998721691947,33.404787045458534 163.94117107825957,32.21040864743043 161.5905799155484,30.660396018255824 160.88244945027822,27.92464581208833 158.18327618996273,25.710694614295335 155.88704788600037,24.646497963895058 151.59373910411782,23.409844756952225 150.8843627822656,21.77568606672105 151.90196485795755,18.05607968047309 151.72737630246462,16.196698492237942 149.5380258273679,14.437525712653951 145.76022824796658,15.865903542136266 144.31113553765704,14.279907153121258 142.7610507758976,9.597982369281567 139.73509140036887,8.40924728107177 137.71260238518337,8.808721110518377 133.80420275396258,5.780465621246435 129.3267845234741,5.430763630960882 125.14869183714129,2.9334074990570116 122.75357281633313,3.5850010923583113 120.55241445369023,2.9915519521853184 119.43952248180486,1.5889665073596007 116.31112692690566,0.0 112.59443007909509,3.062908339701039 121.63726972816195,6.374524061432567 121.76259528635457,8.577055256624135 122.99128426455974,13.841258174653603 122.00927580071912,15.435605765827631 119.05664056369399,14.581350947373721 117.34404349542378,20.716640926194827 116.23926734304278,26.9622850934943 114.63876837519658,26.964686161244913 109.73427991934011,25.02144545043791 107.88551666479933,22.449817863612452 106.65502629524511,21.72096162366006 102.35900596530347,21.360699304408058 99.42062866924374,19.497299254994346 96.10657790955352,19.13838534007334 94.14337983895801,17.669532920221513 92.05604439104164,17.431181258545053 89.10280551381902,21.50495892338813 87.50830440044322,22.494885116688238 79.90541304855554,22.997384908372055 77.9447014196644,23.73137651005686 76.35016912390645,26.459599249088342 74.87150513824147,30.017017968043774 70.21642779862938,37.8570636483156 70.54173558913052,39.85160452564844 71.81426626213366,40.92515254678926 80.5419018399139,45.36862704139037 82.80148362706223,47.12330446149451 86.53174355994518,49.19887815975403 93.77357805959592,52.125597888050606 95.73100344999985,52.48590867738699 101.75459002194377,54.92586642913045 102.36749769406242,55.78057978977267 100.76606814333013,58.96871968903224 97.3914064412179,62.27489384586954 91.01734842017686,57.23115069348398 87.43369990947613,55.99255621875329 86.5956807053731,56.56339031894606 86.34810699622338,59.23442975703449 83.43246436393058,61.434802644629485 81.23908464502499,64.11025329776157 81.23501201827922,65.10538244943598 75.36991194306441,67.34417001929887 72.91008193114664,65.99801365999349 71.07560538678476,65.99457883141292 69.11992305075742,64.23781013628991 66.69177644634169,63.09893036679205 64.81659139599867,63.1017412354463 64.06780804952356,70.4939135918097 62.056396642686224,71.49328007105521 56.17476505148746,68.9913011577546 52.04528618162885,68.11212566603638 46.66423285480319,68.10481724711644 39.5330211560408,62.960229724031024 29.657218537912314,63.69844677867002 25.9116427965103,62.435989751698116 21.293940372127427,63.174825481893095 15.170697943944722,64.65878059816043 12.050891009925268,64.89557895440555 6.681518846904885,67.26213725237062 0.0,66.65692358669321 9.55572649663846,72.86835233706893 12.225908621799578,78.00299255855043 12.756013418842572,84.89574874624611 14.712804484044357,91.09446383381896 19.155018426533143,99.75890804619405 24.107456798212503,104.72659898839436 30.313939400800585,107.02963260927675 42.71557157726992,112.87473779926222 49.982442609408665,114.11131826336123 57.259980274376794,113.39861685748713 64.36705587101733,114.98509951177448 68.09562773273139,119.74973552289941 62.94839307584369,127.89596025373271 61.360241224173734,132.31819821916815 61.55469931921504,138.1571687932876 66.344860241677,143.98443364921002 70.43913398176808,146.80691181966847 77.5594034390122,157.04368762432898 82.89461245347309,163.75065888038796 86.98130611829093,164.98120431408847 92.1425025120627,164.25586834755472 96.58932571995913,164.59439733810837 96.95198639978742,169.19479084792772 95.17239499763498,173.6212332406575 92.15655460427053,178.57916684184897 88.25985054325251,189.02784998482082 82.5882496605351,201.77629524920394 80.28695055962928,209.385097416247 73.91046040666207,221.96079789560224 72.84682152776041,227.79984685219705 75.69826356779951,232.74122258896887 79.96497874762206,236.2685865118533 85.29852156831254,234.66668087192102 90.08856163240945,233.9422321440378 95.43577076707089,238.00037193861692 104.86882550482304,250.7033275060897 109.8665130010909,257.05300788821035 116.80494099113469,258.44571400798293 125.16308804614343,259.30453424953913 133.5124673278272,257.1548137378304 137.76583244863923,248.8297752377693 139.00160580025877,242.10462811568226 138.8108094081831,234.67862347393395 140.04796339574324,229.71972575778585 143.6070436738382,225.82153874455884 148.93182308110187,226.1665100023621 155.85837401297672,230.57474279753103 160.12808467862394,236.9391181556195 165.27803480964297,242.7660112703744 170.7872248727048,250.3710114116421 177.00234592676776,257.08820961741446 181.44003455838276,265.2257611223893 184.99572879673272,273.542342747594 189.97513282015078,287.3418967265778 191.2311186069198,296.5395006047223 191.06580687874492,304.49836228230294 195.50445351889144,313.5236385833356 203.30658127279693,323.43772406677664 207.741199975176,330.1656509145945 212.35279451120303,333.3570423226005 216.9530564937447,333.70962638896196 221.91620614969298,333.54266355471464 227.7566576659885,336.37854339368397 233.0812728675334,340.8067795926933 238.06298286493447,353.1935309633208 240.53819905287784,358.67281470302305 243.9254238611029,364.87118299428596 249.24591760145228,368.408216598803 268.93214465063625,367.5064724667478 274.9564717893414,366.25554638306096 281.72649523858684,368.8871341333 293.28917617106214,378.4070335524479 297.2130828652242,384.7659265194326 302.202218242061,389.48942171261484 304.98321225919227,388.5230880009429 309.0218670497585,392.80211445627276 310.7358678092471,395.47656721243993 312.4113120052814,399.5255058561525 316.9568752805998,404.58395685887695 317.9492805959818,409.5815338157928 319.8970379259687,414.39833050819357 320.4036565645501,417.5227220785088 322.6476315644726,417.8838159907805 326.4620834716776,417.3821166625026 328.40946058299454,416.49352712131594 327.9970800222172,408.1456399694134 330.5502109249107,405.59006951651156 333.0272258498766,406.9337902893056 335.9658584761095,407.59764941292116 342.9792209250786,408.337718210961 345.0752677369273,409.23913809713775 347.32625841161087,416.908125471741 350.1290963083816,421.42895027578123 352.63226004361724,423.3407624816052 353.4450265568966,425.232240331517 355.157295697746,425.3812123090264 357.37950805999856,426.60534774988935 360.3486351908962,427.09502932746886 364.95198916990984,423.8778157978407 366.26602029619664,426.9949417790532 368.07698421987664,429.948975911948 370.3756655962995,432.73997251426584 374.57117268393114,435.6861214703501 376.87340237638534,435.6852350804294 379.0261892242843,434.9584915995341 383.6445470610862,435.29437465849367 386.11180286403345,436.5152352705283 388.31352069779297,438.7168220739847 389.53257619393116,441.4106622929069 392.4785875301056,444.59831972399616 393.94726593648755,446.80784663690696 395.21827095197244,451.61027465597374 394.0428838072563,457.3443634604081 391.4956232620527,460.46490175910196 389.85444315907796,464.4911813432698 386.4029463645319,466.95888773282155 385.5864877741836,469.91148108874717 385.91516516852454,473.27735222974593 386.6502999572676,475.41630690701834 386.83502143994065,480.69204530339357 391.27983125603345,481.72795102531654 398.384877698663,485.7902469849748 406.8904164517015,488.08744358060585 415.0400360248673,488.44334502791344 423.375843786515,488.0907591296984 431.8666676055434,484.0266948777936 447.450542100351,481.7441139932618 455.948257475989,482.27929557696746 463.39875764212906,485.82749622236076 471.5429685423709,484.76582005997534 477.2109401626336,481.9296383300007 484.1238203795843,479.2743461289749 493.88394095643406,478.73239752625796 502.5796482229796,478.71944039451694 513.8588530255997,483.4352629659434 514.8590519770182,485.3028473751434 516.008999710937,489.49571645234084 520.8614543856876,491.15988526327357 527.0825337663691,497.27407139388094 528.172364119433,500.6251457164348 526.0504335748558,508.3509529352248 525.6282015724436,514.0183628059453 524.5845750235056,519.8305077467533 527.0111211282052,523.2098573291402 527.0725368057751,524.9316381876295 525.5195823120644,529.0427285912938 530.8246426182363,529.9528691717264 535.0418720810482,533.6859642426397 541.1450177614342,535.5447957968098 544.1127350326699,537.1807187116212 550.5753720183538,539.1711199864577 552.1924319201771,540.4347197953707 554.6294190539008,541.1331815742919 557.477786622297,541.2567412688454 563.3043190289799,539.5994990442555 570.2223942347412,537.9861769849871 572.6489451662004,527.9605035270338 576.0540599432771,522.8523641002133 586.018751199823,522.7204346265175 591.8725166758309,516.161431487218 589.3820320665628,511.2074955258831 585.8212511963503,507.8513656169149 587.5933953139813,500.41595592238303 593.2749394870247,499.69607984944867 605.1649365136251,500.39391604185175 610.3066647425959,502.87006875887164 618.1125117505794,505.5280932664092 625.3748339995552,507.1253821260773 632.9876903752835,505.89362701421055 639.526378311083,502.8964168436004 647.1369428811229,498.4865945718716 650.8412144531762,490.35382412925935 652.7723542702869,483.09653997635496 655.9334973323317,473.3747415912769 659.6498541664095,466.30291409662686 665.4818884575458,464.898008166522 678.3763999348118,451.6515986565031 682.4499861913416,453.6031678383067 690.2337427224626,448.30339512449643 695.0023524552171,441.05172247805103 699.4291112159808,436.2739727070539 706.8708360155474,432.91451826262136 713.068413728885,430.96832937099595 719.2768087898154,431.8430263580066 724.9713593753936,438.7424041040108 727.2881065843459,442.451428977149 727.826953817058,448.64968255976237 724.2934561121208,453.07876183147755 713.8284117846313,464.5922425077962 711.7105598839895,468.30988175531456 710.1171817755304,473.0924804215171 711.5522297243753,477.16289017521456 717.4147754815125,484.23735920924975 723.4549389781416,489.3652412258318 723.6521036752192,498.74904576643087 725.6166126304466,506.883261872611 727.0476308003757,511.30790987123146 730.0784409398016,516.9709635016087 732.38722398157,522.0969868718965 738.0813464967046,524.9177433386163 744.8304098822507,525.250711116191 750.3558073051641,526.3008585164257 757.9993986824796,525.0332296262127 763.6927020099919,525.726198078379 770.4212873623402,523.9814332118443 776.77044098372,521.4997133624129 787.1670802715479,514.8401859490684 791.2512939820816,508.4504939352858 797.4673202396995,502.77034801988077 805.6433590505618,499.2057914365921 809.9288789759141,496.048177717039 818.3879569002673,491.10230622799713 822.6025313226013,485.45915289079187 827.3015473009065,486.59526855520534 831.737163111675,489.0674355085812 835.118520077583,492.600356346869 836.3639736489068,496.4925866827384 839.3964543986646,499.8517756690247 839.5206103688097,503.7766777514414 838.1141395626486,507.6543765104775 830.0215412642701,515.762060387195 823.6803024645521,519.2863039424785 820.2519670875671,525.726242146538 821.5858590428238,532.6745664405285 820.877270758761,540.7818839149718 818.0649418330662,548.1864328997917 817.1072465690999,552.8163716616579 814.1934907135126,557.707158123444 810.3236250896521,566.1688581363245 806.0893851660231,577.4499306291252 806.6628393711528,585.4257317544647 804.7178998124452,592.3302761755945 803.870302338351,618.0079399725297 805.132987589622,628.2726354241628 805.144837059039,636.9489912916528 806.4050898809315,644.3858662138681 807.6502478371891,649.5140566865873 811.3938043093125,660.8419951633124 813.7229045881375,665.9686480706963 816.5824298198621,678.1866322386719 820.5012871396185,682.9499990758799 825.8326840209651,685.7766188631316 829.3937370864977,691.0880683791553 832.2451078590246,696.7496176726357 843.0107170968134,705.4650246624219 848.7580446328636,704.1080619259816 849.9148955966801,703.5118520175926 857.4536818598034,702.2705541640737 863.8350693762288,706.581131939337 868.5812259586717,710.312473599381 870.4384336439166,709.3786204723166 872.3012403580643,706.3132472915418 870.4420471139626,700.8600062119559 871.8744518507689,693.4022109141238 874.750095289741,691.6283163193601 880.5683162921026,692.1611553830196 881.7008680365257,690.7624544076767 880.9730137115575,677.0284554915913 881.5277430019081,674.693274223866 895.5101100706765,678.6356896589718 900.6681873931327,672.1858569634402 905.2672576532702,669.5955447921498 910.515268371801,669.1748326579839 917.4681848530134,667.3593630194227 919.2057462567767,667.3367171649794 922.7115054402481,668.4615525963753 930.8396966388844,668.4017238895821 944.1507494205154,659.4762878168823 943.8605476977606,656.3110661287469 940.5349080798605,649.6313403714731 942.8248263120794,645.5269833829483 949.2123759047822,644.2819199459179 958.5734678473675,646.4856466030564 962.6198583823301,643.5197091726869 969.6408019818452,645.1640098562032 968.5484200137439,651.5812315843203 968.6301760302694,655.0312448130962 971.5238324779324,656.1931951957256 977.9321493395997,655.51604661634 1002.8938153690863,642.3349489907324 1008.0563178761797,641.2297883188108 1013.4621334647563,642.2429689107328 1016.6751179409765,640.1982368103384 1017.6873567567243,637.4215508529597 1018.0681009830894,633.1403541851779 1019.8406056371664,628.3862940232339 1022.7348085043167,626.2389886690664 1023.2426538999626,624.9737466920293 1024.0,618.4271397994095 1020.0845902510732,614.4431203458225 1017.9417951986375,614.0709914701134 1014.288177777333,610.428656078246 1007.9697790465706,601.2926236390305 1003.2995232480027,595.6410139181414 1000.7763069394471,591.14795867488 999.6372242839799,587.496209137847 999.6394783130913,585.3606336486096 1000.643947118652,582.2112396591967 999.385857312156,579.8530216624407 1001.0269666506349,577.4496862085733 999.6363593046585,572.2956776431629 997.9936934449396,570.1614828086954 996.0954663800725,566.3010763577245 994.965323754432,565.9246314211834 993.6965541443358,562.4064707055187 991.4296411780558,561.2790328312772 987.0090301520329,557.8973864399918 985.7412874025366,554.4084473023563 983.5991090661463,553.4082911470042 982.0791355581499,551.7766885380495 982.0859052213773,550.4211122367349 985.098399037866,547.6412146878718 983.4753378384378,541.9806585412008 979.556400148436,538.6413477373144 983.8100441198952,528.8818710767607 985.9380776165632,521.2528155538184 983.7884751713235,512.4112302539347 980.569602808673,508.18047694897166 975.2213987935795,504.66598154232395 976.8171632229232,498.10869507429027 974.8350997518351,492.27141316026234 972.1587482171093,487.50619601892436 967.3499734828467,483.8101019692223 961.9920676625051,479.05689731559073 958.9616351073838,474.98958436720534 955.0466663289569,472.17820008087017 948.09154474138,470.42812546347636 943.8330445667882,472.3897975717323 940.8134060820204,479.3079149642447 933.5185621055923,475.0701099479867 927.1191478085957,468.8853324724495 914.3262892298644,460.2251122114125 909.8711194721496,453.67658876511 903.8243100957413,446.42049073737115 903.6383167830921,439.6984415115071 905.9273578264912,432.2584167360648 909.1171006738806,425.71033004530585 915.1407107158402,418.6244793513327 920.4480511025693,412.07020057874286 925.7697462056785,406.932430122011 927.8932353276787,402.5056293544617 930.0055866336143,394.5316341410305 930.1755668078999,386.7435866650405 925.3722043610965,378.7911326526532 923.2231112115671,371.7137739753727 921.9726517467356,364.81541067021 920.1831496380366,357.9132439173062 916.2605416945688,350.66022895504415 910.5829248651165,347.3066071007154 904.7164087560081,345.365291509762 894.2471073230466,339.6981906319102 886.0840323043409,336.6869156277318 875.0928032790538,334.9091517652152 866.4133899889517,333.84593024064947 857.9098720743768,334.7272753275167 843.3728117411414,335.784902873441 838.111707496455,334.56910943989936 833.8036189005263,332.4895931878903 831.4376245259555,329.65878059186065 829.5848066690255,324.5638224729599 828.6812493369171,320.88380620672046 824.5242448448693,309.77502854700714 823.4195772777936,303.0515650748381 823.6654345786817,300.00099568566 823.219996989356,297.5723840256943 828.0909312854219,293.7076080395359 830.0360922452592,291.340868022708 827.5010162392849,288.02000375367027 824.2774103166463,277.9426450224283 821.7825731797037,272.63775490912167 815.2042006657845,271.40770747859443 806.8565865330453,268.2435444758968 797.7914304323597,267.2080581329708 787.136660322396,275.7351371458765 777.8792905788466,274.1765185887837 776.2625115922151,266.926066716066 776.4367951276331,261.09132836045563 775.3516845283831,255.95944289723656 776.2354151412784,250.64661094309304 778.5373579793644,243.73952523059603 781.911644052023,241.0739434524216 789.9125578261916,239.27666388583373 796.8545760883579,239.95789535579542 802.8990468702904,237.8238205203541 805.5458612485887,232.32581285936038 807.4996487716834,227.37001290218768 812.4553778206687,220.80939805650877 818.1471421682393,220.27353977392454 823.8254769575833,220.79238974054385 830.9183470536395,218.30914732023456 833.5726690361028,214.06014672925664 835.3366190072759,208.21837385134364 834.0769781394386,196.36246606891746 831.2230396784939,188.22944024693356 828.7181939275606,176.56203201040057 828.8844602187357,170.54080264586548 826.7278082961792,160.28408601638682 823.709881561893,154.45185323049463 820.8556481400695,150.5615235622729 815.3476350338389,147.03579106542202 800.0536973328959,140.174617701604 793.1114570817289,138.24776408352432 784.3956387948373,137.74659603902012 774.957754929821,133.19109485661272 778.3025593336401,138.17826900468594 787.8822879893394,147.81583778963955 787.1282983185903,150.20780904745857 788.7609716419254,154.6429108024422 788.7614430819679,156.65082646843155 786.6193820524061,161.81923276921555 786.7485532694101,162.9501409849487 790.4059192068286,167.6261330468343 792.0406528878679,168.25304385291895 795.4448626714423,171.0183037685158 797.8401001211836,169.66069728073194 801.9974776281301,168.0171561662811 804.3920456628975,166.6307535756199 807.1601312416606,162.60636133085166 808.8036850994209,161.21784986520186 809.1757767968246,158.45020551505866 813.0836594273491,159.07662650628208 816.2249887181528,163.1070644120549 815.5987575650183,167.12608656764507 816.6057428271398,169.77125009035035 816.8578619405657,174.70910323752685 816.23212837551,180.65883647037515 816.8611889366582,183.79814779485844 817.7391460977284,184.68068699676485 821.0149950284888,185.05818587132535 825.7951255567675,191.1300824995194 827.6786978017143,192.64189106158062 826.800997195728,197.42038083126215 825.6717961808201,199.1824712550303 823.907910894354,200.06509807463277 821.3872768317748,204.37492886694264 804.763181270795,220.14242740510235 798.0904804478002,225.46609854993721 796.9581354180685,225.8430290727121 794.4368348725859,224.46862593463277 792.044832148838,224.21885416272318 784.352386514863,222.22140356742443 780.4380940539824,219.46113191451252 779.0555646809693,217.45151092925659 779.3041178962628,215.8112365775478 783.0836019238094,213.82268262258782 783.8462474023603,212.56206640614158 782.4568689198968,208.7941683938057 783.4649816518281,207.65870453096994 783.7238466515649,202.74692074810537 781.7005490660267,200.64693466795535 779.8129933944388,197.50454952210214 776.0278033861025,198.38873354603192 776.6595854740651,195.2435696389432 781.3226824831327,188.09728674983455 782.0771370155702,186.32787083509993 782.2063513628655,183.56345341864892 783.8482914261319,182.05280787727202 784.4727000994031,180.41512589229376 781.4545227168095,177.65029704928122 779.0544509672401,176.77631368582934 776.2819159427029,174.7681551656102 773.7538413250608,176.78657600815745 770.1011302360292,176.95025719941407 768.0824171852108,176.45076820136387 764.0441210617527,173.32097218990862 761.9030113026048,169.42293359344887 759.8893314415467,168.54320021528315 753.0792358909574,168.71863154718415 750.1801515747389,168.34629866943737 746.3925300483572,166.9694232622178 742.4896500342417,167.35095297985504 742.356995407924,169.36774138164446 739.3378559115741,176.57096292037875 736.809641282845,179.97342931662217 732.6580085732343,184.88419759094188 730.3874392201358,186.5249538788114 726.9866037803862,187.28579010765816 724.4753778500028,186.40392609486764 721.6981940168954,187.44257552577687 718.0533344975637,185.42962832523915 716.1621460922121,186.6844144144369 715.5379332695358,188.4434223082145 716.5388602509737,191.59259865504475 716.2912565068589,194.1075131039928 714.0306063781354,195.11588682783542 711.2572520577758,197.12937052758218 704.5933866910758,196.36508079305065 703.9197639141947,193.31914313251627 701.5544145960683,189.18486578490263 700.0678938132276,188.91981282937695 698.0014437100687,189.9897475272645 696.3000755974529,188.91610476167023 691.4078003759736,188.39853953798445 690.5923477441937,189.60789668710493 686.5701770761945,189.53626512774952 685.9442270145623,187.65092799871888 682.1210801652746,185.87581420756317 680.1092238920721,184.37685331239925 677.1027882742321,185.75367453767285 673.8361017118915,185.2397973164168 672.3312561908743,185.86324665056577 670.4525307555083,188.01314285614876 665.4332471788603,187.1149049402302 664.1812421172772,187.61264686889945 664.0576921038046,189.6877258624687 662.5524460906067,190.24687385972993 662.5549394811671,194.08467175128567 661.699338151793,195.3876652999263 661.3899455956878,198.6776610355933 658.980552507485,200.72723957628995 655.2925045743038,206.54722304441742 653.2927467443159,207.36392804293757 647.3060764887439,204.86301890106256 645.8893664553982,202.99513878291526 641.7380361547454,202.49184679057294 641.6223449604478,198.4471583658351 639.0566070632088,191.2435106021203 637.7097164326103,190.01391133616232 637.7085934843075,188.4209048355002 641.1260833125244,187.32744322848373 646.7411075047396,178.40696932642618 647.8396522111758,177.06530507332627 646.62354761199,174.97308733699583 639.0803789260506,176.51060257224162 637.3284016998781,174.62628148481622 633.8324377194868,172.11299183679853 630.3801902905215,170.57499776389307 629.2819648630618,167.39137282251477 628.4196302539666,162.90652018505568 627.4796635122741,161.72148057767527 621.3886039952314,160.92886023534356 619.0217604354893,158.4716445858594 616.0989720178153,156.99777181013462 613.201922751644,154.36903592136355 610.5233353393511,148.28875740590775 608.5300141735469,147.19691441327518 598.3182831978718,146.28357378674923 597.1745763884921,146.51389752691045 594.5448447779241,148.74874769962935 591.596164157616,149.89113589583258 588.3715562007997,150.09722502394482 585.0125531812572,149.33814118741623 579.8421143868284,146.6083218899647 578.0765377259519,146.6308409036791 574.8429767379489,150.11967231485846 573.2175461914258,150.80048565475056 570.5880807124773,149.1056646137887 565.4511308946348,148.99125098731588 562.692392874992,148.27300822299048 560.5960101088006,149.47522931437413 556.6016083685652,153.8475420994938 553.8954851988973,153.3367835258589 549.5579511639585,149.72659362083198 546.4968502599668,149.23384374284285 541.1762655515554,144.8762386888718 538.5557683255536,144.6433894692026 534.8194131008551,146.9967803008384 533.3429065626946,150.7927764490338 531.9931135312262,150.7944463825446 531.9932705100612,143.2320925103129 529.9075328046416,139.44369643708092 528.1899143267209,138.33863370215056 527.0446221091127,135.0986257917083 528.0370583222476,133.2590138300908 529.3562757736737,128.24038967758486 528.4343944310184,128.3233233693843 528.5074980044701,125.14816186292205 525.945728175707,126.3897386085082 520.4941466955645,121.85468900623755 516.227863423175,121.38204958586289 512.5497257765544,123.42553681413187 507.1525605083009,121.68322370962198 503.764110102495,121.69444747374348 502.42911244686366,121.16495604459419 500.923078676869,119.02600027975768 497.56874158916696,117.5386051009499 496.281657049517,117.66166797023368 492.4199645505848,119.64755721315748 489.90557940425316,119.77001327500295 485.82772521366127,117.99005698532767 484.4028627849165,116.73083854680897 483.0580925652345,117.11144122603741 482.77143216703354,119.53686967414683 479.67368783709315,123.64900553846837 478.6709158547387,126.47015930668692 478.5545001646847,129.56691197029556 477.70100066584405,132.13540864641254 475.3680965900683,135.80933289354175 474.1508830966648,140.3392051534338 472.3139095766334,141.1984484998186 471.57512947078493,143.1563600809052 470.7251258483948,141.55992656062358 468.5256276206328,139.96473626920613 468.2814429546717,137.1793716464232 470.2334516570695,135.70973658890625 470.4808906874362,133.3852027336544 469.74314155382405,126.39889902253174 468.64299839489155,124.22539734096813 460.5705977713888,119.83732059748627 450.79186564276824,124.47378675054256 447.867159663402,131.57215713031098 442.1230615412537,130.4873834295105 440.4118183777014,131.70346870965955 438.9378085087197,131.4538128163382 436.49484379094315,129.73908763623558 430.8805040221127,130.3367470567947 426.8433474423635,127.51301896099483 422.56730976152784,127.99540373964965 422.5620812390569,127.50131740507163 430.14050231537965,112.35934982168305 430.75413722301727,110.89119383853813 429.7768907086521,109.66242530562295 425.1312849084642,107.69831030161595 422.07628003457785,103.64708060728185 420.2447894789938,102.05507788097373 418.0414127013818,101.80576836822388 415.9648267915662,103.02436192550135 412.0441275624234,103.38739787920667 409.8294027794403,106.8563623637823 405.0798389985319,112.47245720101205 403.78371751443626,118.54753929192327 403.006601624805,119.88046464013644 401.0687866218016,120.82538571758334 398.7911119759665,118.32636480761948 395.69157451020453,117.74195788697762 391.3219184303507,117.91538550637142 387.92044044982487,118.6161409131596 384.0497729122604,115.91810826436915 382.62484276045876,115.44523093747648 378.75735535007954,117.18944566698156 376.17512882173503,116.57742048297132 375.07853861102836,113.39267471166829 376.058364008861,107.88109561213253 377.27885927942435,105.18210585213899 375.4477811715247,103.59593652289345 373.35966306733434,106.78295584678506 372.620168914094,108.89651054686772 369.9233010835928,113.06379784544345 366.0056351779734,115.8894908372846 362.8072054964705,115.52622736857347 358.3901337944998,116.02778421946812 356.7957456861494,116.88863771274657 354.7094278505703,122.44066875014073 351.2676441333472,123.18251383929078 348.8139326216932,125.39172407314209 346.363542908017,125.88836812936506 343.408787269619,123.45122545505558 339.23171806235405,121.50571722927066 337.51032516163724,116.39231507443958 337.50869306671046,115.16706268114342 334.44148617752154,113.59070674769896 333.94949112815704,111.99790754351022 334.8120731649489,107.70564509108226 334.443241891326,104.06340365660901 335.3052591018431,102.95899339995981 335.7925987838061,99.77427870775614 333.58519741138053,99.04296454404869 331.1212017826866,99.05129805537945 328.05416900117206,97.47546125480642 325.1064150261559,90.03996948268605 321.659447179534,87.85127467525103 321.66737955357416,83.19642472112855 324.7400137443255,75.62038746836026 324.36349248103477,73.28990615226542 322.27791051636285,70.23708317049181 320.06398581512167,69.75636340887377 316.87583112765304,70.25805436048097 311.7126066940391,69.81861946820356 307.5301549955417,69.09745335354012 301.8808312853079,67.52212499697362 299.9229041454741,66.17997200434354 291.5748730397914,64.24177112012387 287.76212303419356,61.67640507444719 284.31133269825335,61.10500938663563 282.9915383205514,58.496097337188644 281.7053364931658,58.54351426895414 280.8181535191058,60.26899968092357 279.4060460975368,61.06866925633574 277.1397646957866,60.32227208304664 276.1690517114068,57.001500597611766 275.0563245253002,56.08070131298905 270.85584513265053,55.41470686974037 269.7509374645446,56.569807706744655 268.42255949271436,55.28555541623382 264.0423451991224,56.17404744619523 261.8309746907527,54.71102218202543 262.54126843386564,49.98090268572503 265.59483300020077,42.01778543376258 266.7405897256788,39.71744117797357 271.89801466071566,32.66808046573317 274.02776731246223,31.719578548326126 275.5023433226933,28.902072793071284 273.1657806578999,28.04886326385781 271.32977510328226,26.612276849078626 268.3930124971712,25.513875133805072 267.4064203795397,23.797454142737706" /><circle cx="182.1371017212305" cy="89.91607069874328" fill="rgb(100%,100%,100%)" r="16" stroke="grey" stroke-width="8" /></svg>