<?xml version="1.0" encoding="utf-8" ?>
<svg baseProfile="full" height="1024" version="1.1" width="1024" xmlns="http://www.w3.org/2000/svg" xmlns:ev="http://www.w3.org/2001/xml-events" xmlns:xlink="http://www.w3.org/1999/xlink"><defs /><polygon fill="black" points="686.8230082187438,788.319547732139 691.4129114886898,774.0853130769108 694.9275843565352,757.6323358024881 696.8285346076789,738.9718672618399 700.3722296729228,719.2123538701269 700.5383377747958,707.6806145785356 706.7748359115889,694.0095991442131 716.2907185374911,681.4655806171561 727.441047971227,671.1497107618434 738.5722612915291,663.0166047957277 753.056244205145,650.5289810157162 760.9708236501006,635.7803422725202 765.5140327510846,625.3735197595165 770.7371805155146,605.6403238938964 770.9351564649858,590.2548878955688 767.7852013165823,577.584837666044 763.5748426519756,562.6988526372004 760.8615222512547,545.6195455838119 757.2272808765822,545.2933027168142 756.8433492540246,542.8688019435308 752.4564913514739,541.6955716122714 748.8314756718759,538.9049674794533 749.4880982753774,535.4741107275884 745.6179710168934,534.7093184469163 746.2681577910911,529.284609443835 754.1812429270196,527.7351064680754 760.7288863382045,525.8514935282088 767.2176050998099,493.4908418477921 771.8220129278286,477.5889067707518 781.4019447675254,461.7633066002734 792.5899485882334,450.3296153570037 806.4811728098633,441.6808160826399 819.8294385352111,433.0209139007916 827.0568684115798,426.3263156129692 828.013877078876,423.17474207032353 827.7107068348752,413.41987166657475 823.9065901997923,404.60892247936533 821.4037948334175,402.71781001361603 829.602491703691,385.83879508859854 825.580777053888,383.5214962453581 829.0781249744155,368.3993927662791 834.6274906854843,368.43863685193264 830.7430189254259,367.5653890433646 830.7065271050317,364.4270864196069 828.9273014246482,363.7282876536781 821.9620586920273,363.7732682071154 817.4968140142159,368.2381733251125 808.7671048166059,374.3524015602834 798.2117958586749,376.547244820375 794.4097382186895,384.44276165013787 790.9429752279073,388.01327973784066 787.9027144456967,387.0929469115033 784.4545342189318,383.98571819663346 790.1032514423418,383.9564224444089 792.0997578080176,382.4569844563704 793.4055269249487,378.62773021572525 790.9972833525169,374.69156346553575 783.1888508119074,375.2394606180296 782.1037648176515,377.3379018047484 782.4000608055254,381.4278700432517 776.482123780759,382.9814699778775 775.956800827498,380.4470947680958 779.7945715308291,351.7297536858231 783.8549728875091,350.743948637828 783.9546303720186,341.0139732577459 785.0702214130204,337.89325552105333 784.4471215839898,336.29021112457394 771.1763799949043,312.286455923405 761.4731258626718,296.49021769240403 765.7860512300111,296.7108730853157 767.9198876934742,293.7931675963408 767.7689245908182,290.84958680044144 765.4586647214734,280.9861589005253 766.3489340638963,255.72919249390816 766.63525362075,251.94672540728698 763.5184650771558,247.36951870164432 761.2404604324718,246.90927185952296 760.0821995502544,249.18060687200705 759.1077040113998,239.7349065284768 762.9524693242897,227.45374046950917 769.847272283652,222.82353451941287 759.5630791990172,216.3821090040327 757.861422609809,216.143042791423 759.7194708972892,205.61531956906015 761.9350443602352,200.11319072988124 760.5603957579802,197.95350400555117 757.2327588005281,197.21838522202336 755.8906042717094,194.49708612221286 755.9570147779759,186.9698270650971 757.2532469859274,186.20969335539576 764.7393518704133,186.25659839040065 764.782535397879,182.1198171312509 761.5043160933748,181.2742389191634 756.0121196217476,176.04259399637408 754.4693462951872,173.6386743734446 755.366202005171,165.02650189018107 767.4214924911782,126.92364178016498 774.0248397541492,116.19238380575109 784.6519397435248,102.90585522952642 794.2696509011538,94.72589393581472 817.0875747429443,69.94592734246294 825.5610291836274,56.87110321291618 819.7338982147146,39.770059491666984 807.6576764596116,35.23359454265403 791.810518708937,25.718770466554247 772.3029767664574,2.3821537995187327 770.7463140136387,0.0 765.409662359754,2.6407631863770575 740.8164564963528,21.013423402538933 735.1806853445635,24.450857443554582 730.0006085856924,26.466177600176024 716.7026819567681,29.365773152234283 710.7296973377031,31.65892869614015 705.658275588171,34.522608594493704 690.0765615753606,45.30215970982215 680.849289008592,51.02311947142118 674.2023237502134,53.6049257288056 667.4434612990366,55.042259685183126 658.7738198143918,55.06658501998663 635.3339681690145,50.8760121463431 625.7019705803993,49.543185122102614 599.2544133258899,47.313592963965334 561.734294405846,42.15625255071893 553.3016119669431,40.60327104256908 547.4526604171193,38.893174375397166 530.4157405640341,31.591585013783174 522.9902217453738,29.03692199554564 517.0343467498508,27.75314304511585 511.30666759656174,28.31389118422669 504.5637897011229,30.30646863565562 499.1729538428285,32.98968550775032 495.4747988458767,36.394222876549634 486.39232555844137,47.47232684205812 479.9937121219068,51.01577610757715 475.8886910609857,51.78843805790564 457.6851026307009,52.49124987664186 450.1475847477078,52.34996367087035 438.0343982071593,50.20713431429226 417.1320506271039,45.17527966431862 395.4150768386039,40.492347338922286 362.0212955626641,33.07278085253574 347.7096255516175,29.5369588971987 342.86279573757383,28.694892753991212 334.4018747089812,28.703189177844024 305.81655829052545,30.544608991082782 293.1770298045445,32.708908244903796 286.18433669128535,34.856530304957346 277.5995497636772,38.003060892951225 270.4914969569219,41.99769831859044 260.9430712113226,48.26805035536211 259.10888709473966,44.9530265622044 245.76930593129984,50.97979894725961 249.2450474070131,57.346254021887376 244.61653093029452,60.19652172120027 241.6068399486338,53.217921823808524 235.3704307107384,56.260594658964465 236.2446940302,58.311753208559594 235.01230114587125,60.08782228558016 231.52483323284548,61.773569984172696 233.65018050052512,65.97654819909576 224.47289908419287,68.76561724002761 216.10935811830356,69.88157846086585 188.56419804665697,67.1305145208571 181.30217916715728,66.26516012766581 166.1179958689713,62.592433952897636 144.18125292439302,56.019262348038865 127.29962846290782,51.50561561508721 119.93048293646787,49.044510406161294 113.21736137581745,48.82915382101373 93.98691865671636,50.0054902326342 75.47321182332115,51.94552358004455 69.90150454067253,52.18738922829664 62.59900934885033,50.96924479204313 55.920189639780915,75.60020113468443 64.81733775120642,89.03737697758766 66.07534098851622,89.12925521463433 66.885810814602,82.77123310061211 73.874093893838,83.235618422078 75.06869020233462,76.87775200378678 80.51722997696683,77.12514807965886 83.8785851487172,63.58435117934073 85.8209302197038,60.64592408963392 87.85275803103353,61.870518210357545 85.74875816419807,73.22847677180607 87.47315497519244,72.77094155909754 85.22769766513326,85.17977089835267 82.99961709734079,92.21146846475654 79.4176559469006,92.13780967080015 78.17217642843742,101.48535035830832 76.13126450347086,102.4441165707334 74.15484087747163,107.55868511774497 75.28622624705717,109.8962888707199 74.39106226089119,133.50848945475116 77.8259102436672,163.76197076008225 87.42400034215763,186.39278476028028 110.05778697491374,226.19279812770822 117.38561442915884,253.73514060398668 128.7223214132091,273.0768634798801 145.26875217499463,312.8084410897013 156.89547248634523,349.73335996645346 167.7239977529762,365.21905402676043 166.93125337077825,382.24021305534075 159.37929348945514,408.546835449499 161.86532624794944,427.25953329168067 175.31982323635918,452.1189984418214 186.1731182703072,465.967100335504 193.71305783890347,480.31416940262886 195.11041490547652,497.9203848340163 192.09908102750828,515.474517917017 188.60185515727227,528.0811939887242 179.59354467115503,540.074110041564 168.96198490044264,549.3121661376059 165.31367716019594,573.4543832082104 166.6918006481405,592.1428040791 164.8118371300321,609.1732878707471 146.42311860408324,620.5260195514261 133.09611911904656,624.7829964041362 106.46467429404473,634.4192672076226 93.0250634111739,648.0090066793948 86.78623581475385,660.0366302911932 77.27916668622336,668.7154147811343 65.02336971502157,677.3609981371983 50.5942841578033,684.3464445897653 33.36059530779153,694.0231385012039 14.376978098948058,697.5424669297954 3.532381711426495,700.7985455329022 0.0,716.6812280172892 7.455822032268345,734.9082991996477 15.539023688409543,747.1060877864787 26.97858813637728,756.0478378440639 37.94516406968432,760.0315491910417 54.9584579321156,764.6301987749496 61.879548272706685,782.2979686131757 64.33301592301515,805.9780609173451 66.86564785319624,808.2443920741669 71.76025684636996,806.8553883128843 80.94276567312214,805.6506406281012 84.28182010457765,804.0638240993391 85.15788698440628,806.3987309780996 91.76623623078069,805.3578285063215 96.7180589384022,803.54589158007 94.99194033426154,810.0305384763368 105.4397826149825,807.9444813300299 105.21551199164122,804.244688447777 112.54921565930194,805.2210701043184 118.66143083202473,808.1522740466482 118.21624582682608,815.3476547461485 119.65601660124105,812.2001405955966 124.9913099232313,812.8372040300824 126.71431134097178,816.1797950370653 129.67438284075885,816.6410566193443 130.2618525888512,812.4999819250644 135.10446969085345,811.2316084447309 144.8808262886049,812.348610635333 144.689265407739,816.5713530046819 156.50700991448286,816.3659223465485 167.71512468252737,816.7475547809504 190.26630707126208,838.0298749500722 193.9741160870899,849.6106882984724 197.5918660585365,867.7846784826008 197.3520124440187,883.713588901554 198.7605990302542,901.8711078166297 204.63877795682563,914.5620899185026 219.88246647395752,929.4167767221427 212.43011089120142,949.2705298819711 203.9288997980293,964.5751597557781 203.18785640580683,978.3087467719592 217.454864638463,984.5000264161639 229.03388488739682,986.813941007573 239.36898887024088,996.2582564672927 228.6173033658886,1014.8399169036363 224.14742406125987,1018.135641418064 237.83007990560634,1022.2021397481565 327.9148888515019,1024.0 335.1899980881239,1023.0695408686024 349.6893197359663,1010.9917169138095 360.17541465152397,997.3263978492807 365.2230686914683,974.4677780285036 353.37398900218045,939.9094148473159 357.1258799926309,934.4494766321476 374.43149028667483,917.6447460296912 388.8336253268539,910.1511981379415 403.17967569160174,905.9603836943159 415.75541260073595,910.5570955892643 423.770781551972,926.6017514254304 456.7726938330783,923.8352042641978 477.70958370091546,917.5666418168859 491.04996209825055,907.8833887920244 501.0012225734295,900.350471793767 512.5474570226831,899.4359741405394 545.5148681065532,897.7688642430766 554.5494408409379,881.407878911826 564.0876286317193,866.1849630449221 587.0548920768279,835.1981856654535 593.8112070282872,823.2336002751305 604.0702848065256,797.548108380628 619.5847260817164,787.8786098788721 633.3090957696619,791.367929424193 662.9463407499655,794.5248482079484 686.8230082187438,788.319547732139" /><circle cx="577.3082395892086" cy="317.16173105172106" fill="rgb(100%,100%,100%)" r="16" stroke="grey" stroke-width="8" /></svg>