<?xml version="1.0" encoding="utf-8" ?>
<svg baseProfile="full" height="1024" version="1.1" width="1024" xmlns="http://www.w3.org/2000/svg" xmlns:ev="http://www.w3.org/2001/xml-events" xmlns:xlink="http://www.w3.org/1999/xlink"><defs /><polygon fill="black" points="34.07625445610341,724.2062696368216 33.21346382370892,725.5369229339325 29.201451867278834,727.4085282996273 27.671700750303895,727.4122521868595 27.82969991993885,731.7540580146238 26.98396300208839,733.6177787519199 28.18772490115237,737.0199037799382 27.863401309004775,740.1692138817989 28.27761061142661,743.639527271298 29.37766238831187,746.2915668820467 27.903602091048,749.2825627214412 28.78536601620649,750.5696155534533 29.318523502846233,753.7531441636479 28.260920115368044,754.9185994457254 25.24840169528098,755.1835203742606 23.646785974893582,758.4204888070742 21.913250244958746,758.1360457790822 22.594311898989762,756.0658380042764 20.867714469799864,756.3666776479112 21.134771265803376,757.7326517443724 19.739197805042856,758.3328603349476 20.0034283213172,760.3762652977748 16.867168058758143,759.983746468942 17.29834742888171,761.7405985209816 18.660042664440393,762.3930044405602 20.36108796463222,765.6743783600205 21.54674013115759,766.5618128647039 19.671153600846722,767.6116590293638 18.501233484757442,770.0085457809558 19.779034565501277,772.0469526200591 20.49267163264182,769.24722616106 21.4175753353179,769.4976143088244 22.08988955186656,767.3037152108225 22.352363463156696,769.788743274095 21.370691526340348,771.4575373630164 22.830358947057913,772.0596001937781 24.1394035661491,771.2431651769841 27.798762257910813,774.9234076304122 30.169177658481093,779.2956961314719 29.00870952022725,781.8678437439635 30.88803363452946,782.4092894871329 28.42784677993962,783.3032998965283 30.12169364977312,783.91543162267 32.06668004186069,782.609152973246 32.36130306220198,784.4890368354247 34.04306485909621,783.1202144921047 34.982816197073944,787.0357579779856 37.260988380699445,787.6816148712217 37.52876311085169,789.1197356210245 40.44713431041478,790.5484346227328 41.366217576627676,789.9668125545245 40.8320241562361,786.9054934327835 42.22093184710736,785.6890012678281 46.20257440484344,784.7084915944281 47.18341682317104,788.1417352512892 46.697550192231475,790.1214395515527 49.26843306558726,790.8503740895808 50.94714687429754,787.8276498918455 50.49482811147411,786.3581278395653 51.73101846750437,784.3198681194091 50.69488982518852,782.529339455309 52.08795943088962,780.1936755159227 53.721034242224626,778.8965735860179 58.645767095286146,780.8762969987745 56.9503285542625,783.097210735 60.13053300055764,785.1631158975908 60.46537050908304,789.2504708249853 57.33988989932669,790.8707163720782 57.09070445236223,789.7606843894135 54.639056981336545,791.0662171587106 52.15258859643064,791.1488077338398 51.73949100986138,792.1533729440914 50.20402564343532,790.997636149152 48.35879907748762,791.595694544754 46.64247793864554,794.2895035177097 42.65793641971971,793.5549393007449 39.02368502926628,795.5536313907605 40.07847465838043,800.0448532812234 38.93533877865112,800.6148222689169 41.33337757032916,803.1604826605299 43.35305445939093,802.80900239246 45.679251485891506,803.752871955001 44.2494638097556,805.277241479371 42.386758391828224,805.5057006235857 41.76768362371931,806.6330756595979 42.61570242390819,809.1725650724851 44.98562902910192,809.068981041104 47.27516624117698,806.9319750038603 49.278254871311276,808.4597664726725 51.100154439167085,808.7648354738051 51.696678204969764,810.8516562968823 52.81310130823198,809.5825188269428 56.58440865205346,810.100061333982 58.08251480607021,808.3292508637279 58.80614038046414,810.4472360324511 58.15508937520547,812.4678279452568 54.386567320831226,813.6347058609036 54.32194105724754,817.752021779713 52.955962441003486,817.9833349785139 48.269431171806836,814.5450281393058 48.176451007636025,813.3434198826342 46.100287266866935,813.2224136796253 43.76738618066864,811.3752934641209 42.43013279638798,811.8009089946887 45.97946785066132,814.187393480408 47.24007110194715,815.9273665232554 48.96870006987954,815.3181114578979 50.183395488099514,816.3189975334449 51.08286483630101,820.8517235841442 49.254707131563066,821.9229984031289 47.365968643332714,818.8142273257954 46.4351836755081,819.9503957901546 45.12286651181824,818.7539998221873 44.392163692780706,816.1113094942174 42.11053072007341,816.184511179082 43.08760577310632,818.0678079882127 45.66402519199934,820.1117453596333 46.63393954168809,823.8536833431051 48.799987977133355,823.6255560379891 49.301639047079334,825.0038650579891 46.9401526101973,825.4363124138536 50.12554498020201,826.2497772027567 53.68316858415192,824.209708595859 52.908419924539004,822.6867431090699 49.6898077948644,822.8693987142042 51.25312323368553,822.1358077558365 51.465159436978794,820.2264643395379 53.1542574776437,819.6369604678882 55.31486080812617,820.805786214507 54.30851722140131,823.8726269515845 56.3595737981989,825.5448545302723 54.20664615288476,827.590403716845 55.88736298144215,829.2197413028931 55.4321199324035,833.521423872917 56.5114011178791,834.3166422627169 57.938395804224896,833.3873496582776 59.11330526855474,834.726689259207 60.538790377468096,834.3826165263467 58.981426839284374,838.8245334686972 59.2494113312745,842.5951623451806 60.47281045457541,844.0583228651221 56.09615147123544,846.0240662296069 57.650374396212165,847.7558008620651 59.159541283537635,850.9666131764956 59.07588058496263,852.3841235554801 57.353245199996515,853.9290584643165 59.00222291473458,856.4721926416062 62.12231169354276,856.7612250756738 63.04525586846366,857.7516357509357 60.92689374356401,858.1230932463218 64.26100888445232,858.628693168349 65.88756107318879,854.1355128597904 65.1748558390216,851.6674085557045 66.15309095683216,850.9214348188154 64.00038641179621,850.1422760724219 63.94633019891503,848.8479045116127 67.59796457036299,847.9168067165533 69.6156595805463,848.2937073954372 70.96502958457778,847.3946840191009 72.27373573803604,849.5469646442436 74.33164849974997,849.5437411500905 76.77138707864096,851.8022380208314 77.76882587098852,851.0869564296513 78.78798992174865,852.5084596638192 79.39546415665146,857.1535093050612 82.37875843438175,857.5444004741813 82.12660570902598,859.9582430372068 80.61367639362174,860.1786269305073 79.88541880380602,861.9325367617055 71.36839950946829,862.3332224160173 71.55725552763973,866.6595720448679 69.21040227316918,865.448167941211 69.82018620486424,866.8482679790154 71.81845696150243,867.3279652996132 73.52685942359939,869.4816827546379 72.00677635673132,869.0652150919232 70.49900132574514,873.3131342752046 68.98380852856175,871.365922662932 67.19830377125409,871.4207604172789 64.88201774871341,872.5934089933805 66.47006216864202,873.2882589592026 68.20033610199938,872.246284297444 70.38874140687672,873.9909158318726 69.02371099611233,873.7908014297875 67.57044122687223,876.4666877732435 70.16701093636505,878.6029996843338 68.77265725326914,878.3513167357818 69.00919931377506,880.4489620184269 74.58678635527103,881.2497375925338 76.05360364004518,882.9301765323225 78.09317363637463,880.2148287456172 79.2000883273023,881.6880901992135 82.71446517216333,881.0224963248158 84.61237048682908,882.3341590466124 86.01773640017554,884.9796769228556 86.24975626560934,882.7608480303735 88.18401997601424,882.130960165433 86.96890269763011,883.595948370883 87.4109744662902,885.5805980120361 90.77276769772502,883.9795027288146 91.03156640934681,882.5003861235882 96.92734380352991,884.4424649708521 96.262038377137,887.7696396946772 97.66566248841467,885.3697251508049 99.23255840556,886.4749290938148 98.19989261503258,888.824675423684 99.00826940884116,889.2383452269115 101.87246700380612,887.7273814564614 102.90866542165162,884.3085010656955 105.1926166544078,883.9360308924262 105.68441295336669,882.7664220008464 108.02068020859552,884.3571836708069 107.51437599309095,886.8623763553219 105.69629271001102,887.9968219318436 107.3224334953382,888.8240778447966 108.71045969138086,888.2327139013217 111.50276049176978,890.5952604659777 110.37897133887905,891.023175654836 111.5981657653273,894.1208762883591 110.5415874612137,895.0728186327827 111.02675771938836,898.7226106065218 108.38110989774519,899.0840159721172 107.02719883254308,904.2591484682321 109.05019866624725,903.3818847681811 109.89503493013115,904.545966082257 107.80798063958828,907.1703184266453 109.29948041951204,907.513990724613 111.2599580364109,910.7785042795316 112.31338974997122,913.875633699431 115.15512098419296,913.4325897903739 117.12409544626556,914.169413932746 116.89552527507601,912.4106361174163 119.69614335810839,912.4404545751875 121.28090112142075,911.3050300288513 123.49995642091524,913.1723258528772 124.74002323736549,916.0026491447247 127.20599329343763,916.8837294305613 128.10214331980941,920.556223330247 129.67076519464732,921.3629855317143 129.3637528375349,922.7705933684082 131.90225450685932,925.5741774059051 129.32334586171942,926.4808313128412 128.89566637846218,928.9978644364091 127.5818059580769,930.7924561787446 130.05718647026933,931.9929944760827 133.1009246813117,932.5884994555335 135.4250526251623,932.2869473585174 136.91212848678597,934.2039219734523 136.00723731313832,936.5036924697499 136.6955119500574,938.0272772535282 135.97864635772922,939.485096156986 138.04796326683126,939.3370759416289 138.99176221968787,940.5327104023443 142.54232093752373,941.2116776206411 144.24626725181366,939.4587955302277 146.25642023221738,939.6191939677028 148.08409258528584,942.1637398434349 150.86898040206236,944.6081618261818 152.75096699216843,945.1175161806702 154.6685829972272,943.7660150427781 155.6053343791595,940.5307405819123 153.74654661553961,935.3027412769825 155.0753106946051,934.6799064512635 155.28642444240444,932.5315801130582 152.97268224118403,929.5540924346002 154.71708110546933,927.1230056453686 155.55317377715548,924.843628115993 158.7390255963894,923.4857588923843 161.25920601835944,919.1244463793896 163.8437603794967,919.8721840190074 164.0139994559202,914.8359385710902 166.6725018654557,913.2812748854972 168.57274365457425,914.2934860784577 169.51715005245427,911.6963471685556 172.41541791594477,911.7450914973804 175.01847151603158,912.5233469713285 176.93249661966607,912.1891023163096 176.94519054274096,914.6560386244075 178.73523915914853,916.5932469896861 177.39376232814345,922.0272357882897 178.61470430912152,925.2885065651518 182.6312628335625,926.8514692852742 182.2565504052168,924.51721083142 184.20899460015227,924.3987565960815 185.92108646638007,923.0262190836862 187.7328517876211,924.1922370917459 190.3923248546404,922.4933985467043 191.1965383416378,920.8503786950749 194.19753129129694,919.0494213223149 197.15719218299952,921.8833005085617 197.30627015591088,924.5978714313694 199.16792456599285,925.7023867758707 201.57926321428175,925.4511504234498 203.9224583809464,928.9107735386881 205.41391422383845,929.788466336917 207.52007668648153,934.439391522339 205.28988489642327,936.3670251169586 208.24234244043532,938.6253266397492 210.0365211979007,939.2364204823662 210.84940671730882,938.0971091371189 215.1949101434396,937.4293553863886 217.88426521963865,939.172969851194 219.0983476979768,937.6543739784113 222.60300818086603,937.4981675808921 225.02083716302707,938.8915339764675 227.48232222429652,937.8587796655463 227.24336401609045,931.3408391182304 226.53509537322424,929.5604990415163 227.6453801407457,926.4894105074861 226.10159602364106,927.0718991584641 227.27055283955033,923.7958860642196 229.36567880157247,925.07476623039 230.21837268134976,923.6788888880455 232.05380996415175,923.457195362877 233.70914732303942,925.0437565754352 234.6418805371877,922.5274849635396 236.48735365289107,921.9762617442859 235.38056712333903,928.4912344204505 235.76371038708405,931.750005219521 237.00242923457654,931.9685283842044 239.77872409403327,930.1551216901339 241.22557660533514,933.5305953385613 243.968447380161,933.2277021490291 241.55568102581674,929.7580377446075 242.01964427458418,927.2407035574786 244.02033971471295,927.3993357281566 248.16525541040846,928.8680483875444 250.98129997405636,931.0120364695609 247.54311854844738,932.1561628574392 248.5456475179116,933.6282342629792 250.421676678102,932.6037474225917 254.71412593776688,933.7637754268152 255.75454750676892,930.7544906544268 258.0663294458218,931.3858272422796 258.56755636060575,929.8246840072286 257.74302337287753,927.355406646913 254.8120262968401,923.7521242976394 253.941808618852,924.7272750070483 252.84190133622056,923.0799429530555 254.5056405529603,921.0173655799623 252.45440340789972,917.1592777951037 250.92380243990064,916.3543240486085 250.04227094057524,917.9453718539058 249.10801234223464,916.5356595662489 246.7105669150976,915.112125597784 247.31834180057348,913.849241847132 247.22774893790208,910.4367471745841 248.01180754828647,908.7118812074021 250.76426097335982,908.3374250205295 252.9974987902872,909.1845265183372 257.5484978090743,912.1436880228395 262.06284321598207,914.1256713384624 266.06690617466904,912.8385803984601 271.38227864001914,908.9533174413255 273.0941816075053,906.9727363862904 276.8265116031345,904.3491785347468 279.5301655637374,903.8195589231765 282.2910875904384,904.2046833776853 285.2613365447036,907.3442101318078 288.1128461224043,906.1057653477086 286.6823160375451,903.9044526146796 287.03883074613526,900.9658784239514 288.0065229970851,900.2786489848673 292.6624985343213,899.268998339593 291.3368294378617,898.3627943940837 291.30191355741516,896.0809601213884 290.100098444156,896.7263437701226 288.84562397165183,894.5668289434575 289.277321074235,892.9846913788706 285.9523202649912,891.9413258434669 285.54600679604283,890.090460383052 287.84977378009853,889.1498202943059 287.13994997275324,887.873677909301 284.93430400551864,888.1885420363128 284.6972541146499,884.4893513087868 287.0427037217151,881.8322819638277 286.9418539282934,878.2769498840094 285.0160968894361,875.2014987764131 286.53973079713353,868.2996802597758 291.47820394756036,866.8389890275994 291.17999944009404,864.3631530595301 292.83990844485515,863.6363576481697 293.57371579192016,862.1376555047549 292.2795929777969,860.2553517566718 293.01241276888067,859.3318981299493 297.4248162155517,857.3055621173642 300.7228067936139,856.714982434489 300.1883593235123,855.4100154627514 301.19106780141,850.5523801023203 298.6292924112359,848.6381321302703 298.009842200079,845.7816096386762 299.82347859231027,845.722376338483 298.85038026612006,844.3444886961772 297.16206688158525,845.0713244136659 297.9938161382559,843.3054818600096 295.08159501801845,841.0718397816236 293.832822859491,841.388469139915 292.3190743231278,837.0312166931363 293.1682141489993,836.4574088570163 294.0420780203785,833.1410259929617 292.5326043867698,831.8243825014883 293.9091467910213,831.0563863918619 292.92607607738927,829.7498508867106 298.10066888170866,825.9898184938451 300.66210413654267,822.0502150174495 302.7312148551788,820.5129085306702 306.13286070861255,821.3301333408789 306.8973291425602,819.2261849546633 307.56828570548987,820.4184427758618 308.8760953927967,819.3629151301595 311.1351780952707,815.1146251878727 311.0922956386224,811.2437172693442 318.53137016653665,811.3985138823018 320.3502487823534,814.255914549166 323.7484107418045,817.4749743340969 324.1658734664273,818.7996380761113 326.7976376434359,819.2557034324327 328.3781480164722,818.6926313130195 330.06242120866995,820.4821302617715 329.3379195303436,822.5555662168091 333.8006676016548,824.8103621157696 334.6027722304103,823.1893659339048 337.4586715869234,823.6854116638123 336.4802070343329,826.2109261369566 337.81651800891075,826.2741060276694 340.179713057336,823.5245544960617 338.29361995777197,826.6134198676314 337.88550262714415,832.89837063229 336.7524535379354,834.4068263262689 335.46627849246926,840.9271639660094 336.8584653849439,842.8905056984688 335.8406488507162,845.7139486886724 337.22400708438374,846.7840669639602 334.0383956016216,851.2889207358379 334.23941363100636,854.0732516847529 336.0970784567527,858.328207991285 336.2502015612786,860.4343102886934 334.7962198322257,861.0491196411376 335.5338940181162,863.8241657640098 338.07226284540394,861.8029761813901 340.6956016757303,862.3815722396623 348.50036718527724,861.1485309485716 350.55514481689954,863.8935538124224 351.45300317754794,863.9568168778446 352.23957444850464,866.4437991976398 351.44370480891473,871.9080639405781 352.1052185600241,873.2551644171542 354.21101874124525,874.3773583751426 356.3737812362997,876.6300922956761 357.59099173081086,879.0353364671121 355.2772514556498,880.614842929928 355.40050889319497,883.4305181298816 352.08118257984256,885.2760833090606 352.7579726205529,890.8871983762929 354.9721062552119,891.1877245712984 354.53135703248995,892.7078863089936 356.6292323833293,892.9160853679743 357.3529141568675,891.5191133450415 359.3712164192189,892.1994996231722 360.33489359075145,894.7188615516428 361.73988714919494,894.4938182468312 363.8945555488295,896.0789854951026 370.08417006027156,901.8093319121849 371.82018557830315,902.632825991257 371.5067224481353,904.2461047227575 373.1657678715041,903.7231809363655 372.1335707455267,901.8213481145094 374.4064983665984,902.532430824854 373.5650113272128,904.7719014326982 376.65497027381224,908.639475092983 373.62640939267635,911.8637543725488 377.78849832843775,916.8628313648096 379.57406905183325,917.254627471258 376.45928992929515,919.5334839914037 378.5661551951569,920.7074294001911 379.003980682956,922.1263419726704 374.72660103430746,924.6813248449885 375.1932839039103,926.7070044502932 372.6854609454875,926.0878757300355 370.43999904422265,926.9181812862129 367.81142774831153,929.8447104973335 371.285255054667,930.5470825161577 372.49488185353357,931.3500696557782 372.2877260962537,933.7038053692665 373.3200029216522,935.832954891559 374.5109540847249,935.9470001818561 374.8545483325328,933.6863207304589 372.87717431305464,929.9734075255104 374.1358548667053,929.8509773794198 375.1142736531161,927.4058149988763 376.9802743854676,925.7425420497843 378.65758419591754,926.7716949733367 378.58715830792636,929.0948488167618 380.928043942023,930.8234627853094 381.6133744474264,928.8403199095886 380.07201964863765,927.626246151554 381.67269889589926,927.606955344965 383.44290138394916,923.6202705915508 386.10974663076047,920.672673355606 388.9980345480384,920.9116568269891 388.09854771866634,923.0797561187386 389.37431461322063,926.5138065172198 393.2491557544353,926.404048806532 394.45691240673784,928.8203774896821 392.72805380326866,930.9264189412105 394.06460781327826,931.3898157354635 394.0340721323238,933.6615505632847 392.10892437163767,936.6306642745594 392.8777372049267,938.8316113152482 394.81964536900915,939.2854938947779 394.1164413746503,940.4461666651708 394.5149690079197,942.8318986926857 392.932946306677,943.5295357979126 391.4667737057915,945.8415879426694 389.1911516099271,947.1967891273066 393.20067788734383,950.3872498809432 395.1441652664906,949.0624314435977 397.1832659812642,950.523966354569 398.8930214431855,948.2941989567959 399.91807387539416,948.3978668443775 401.205306025794,950.7942027436303 407.10819847262957,955.085291107262 408.9825206512637,954.9628798055892 408.37438852997286,959.2195144316757 407.4763549901304,959.3110811269986 407.4836237341209,962.4368505235864 406.2337835705233,962.8269253986268 406.92892118234903,959.7738206298691 404.9473992885774,959.8853724285043 404.1730824791665,964.0282035831892 402.6979662730843,965.7236840714284 400.10921583141095,967.2132815860374 398.3137417809842,966.4093960569091 396.37027581266227,967.3648587961811 396.94451577275635,969.5863532250117 399.4339729444094,969.3002121638997 401.83391887026954,972.5098888856421 405.7971998792137,973.6538977762276 406.51902402035097,974.867824946671 405.62867184449743,977.2226766312292 406.30121819140095,979.0325381250555 408.7908053682179,978.8283658502912 409.7461900596186,981.4824206674102 411.82547840824446,982.0182669286879 412.8034403546331,979.7056625069445 413.89724800585407,979.5719319720492 415.54967473690544,975.97408029246 416.984929871529,975.9541855473886 417.8958008980102,971.2345864138782 419.25219447225714,971.9764734015545 424.643237258574,969.7068520690392 426.3518065354584,969.3475221942751 428.2358961963531,970.2946179485645 429.9250680909959,969.8945206595583 428.8234289148582,967.0762123309248 431.34302127271434,965.0314295196007 437.9213886627231,969.6614128277796 446.4645010535742,968.2551783780871 449.53176364631605,963.4338445132001 451.1330240529698,963.0948436992877 450.5667193032732,964.7604767289234 448.96525373811943,965.7061890531741 451.1415062841547,968.8118340605623 449.70578970256344,970.7652168521939 450.9741776751831,973.2538930055499 452.3410045811877,973.522296643019 453.89437975924295,969.7180336364205 453.80692512800977,968.6689248315331 451.7662478142663,969.1107569845004 450.7800671797888,968.0099422493652 450.86920317908226,965.5116652296097 453.3008797100458,962.5509117033196 453.5348969041814,963.9902033416519 452.39168724264607,966.7969433651257 454.05082520157936,968.0522830341786 455.14467052595523,967.085641397681 454.61585304427433,974.3553895849496 456.95903584528946,975.2299237691554 458.0609818796413,980.2590172525319 457.631196067975,982.5007086966766 458.19653596093906,985.2671572091791 461.3892698923135,986.0803363608452 465.821120285641,996.6333414385144 482.9112027290927,987.9953616035525 487.04179003843836,984.9409421107347 507.3496497520081,972.0627847056126 517.1897053131257,967.6487859554098 526.433983675167,964.015981787163 537.3771226243986,961.512862764864 545.6945478436651,960.9632115743572 554.109064291624,959.4574905520836 560.434966542907,959.1960015424997 564.1072166236524,960.9513507394588 566.2353737545915,960.9805058477774 571.7795558574754,959.4755646814003 577.1866099687393,957.5173435825066 587.7481934413446,956.3052605836212 599.0434542337069,956.3555608717905 605.6042886072299,956.8423964724425 609.7911342293793,955.9737309608274 624.7906052943572,951.6787326051021 631.5321265973564,949.2023957786183 634.7628645933991,948.6942545087446 648.7114196697171,948.1507178961904 654.2638998018945,946.6002121108701 658.9344573585435,943.3957586357972 663.1843702841694,939.8315870520596 668.736074405168,938.6098355431586 681.4022259361,936.3877770175694 685.8524689616,936.0203813840176 691.2122849551322,936.9767132220725 694.3610244574751,939.8078598027114 694.8552516444171,943.055619638219 690.7512796906155,946.1583841627096 685.534069652311,954.35107797203 684.7185028750532,956.9845164104739 685.4113231541255,962.0321627164848 684.9790370852708,965.9298178273868 682.658987205109,968.0521331618913 679.2319788994779,967.955259952001 673.0374569527206,965.2924791211349 666.5495300663545,961.9716581774209 664.6640131532546,961.3065594915156 662.7608855525704,961.7519960611517 662.5000312950436,963.6340307161319 667.6809292261762,973.6097135990467 668.2903393217134,976.0156409160651 667.981735724548,978.1243251931043 668.3031407285329,983.7793866201719 667.3958394661686,990.0547074814995 668.5125524093378,992.1510580127947 671.8419569465839,991.939692130306 675.899753479582,989.1457168863875 677.5005881755307,988.7313089809941 682.6585913473496,989.6891895324603 686.3954942932063,988.1910268951683 687.9460476927256,987.0469550123678 698.9106491650512,975.744404060827 700.266334850522,975.1250806900468 703.5577526203539,975.622484489214 705.0110012655731,974.8999989202721 712.9367534627371,968.6831486399433 717.092537098976,967.2145784323072 719.5109276190076,965.6673462216615 723.9538892376373,961.4107955522926 736.2340058666417,952.1307404674958 746.0766979038203,940.7475975607463 757.2714220843271,928.12756578964 766.8340780348348,923.3450993197462 804.3306704841402,913.2019226427103 807.4625209368369,912.8949019089267 812.2807755549404,905.3879378678276 812.6061876631476,903.146633061177 812.0939905803516,898.3179879213619 807.9790539197952,885.844878901233 803.5050144093632,870.096211849642 801.8480737673488,867.2238971189898 798.0024139567436,866.4130120602932 794.8490464378452,869.1038327102356 790.4924727023978,870.5951397526755 790.9307674440405,866.7099920475712 792.0777142887785,865.2997875866724 791.7696856218514,863.2768722168237 789.2251023863614,863.7462351377058 789.668193064118,865.2649561961726 787.4413401407788,867.674990015636 785.1692384457673,867.9998930739154 782.8085328104147,864.2252344243574 783.7837759150932,860.648189519579 785.7126266891761,859.6253326590665 785.6997835613246,854.8896749329058 786.7507159851318,854.1164817214135 782.7637412590724,851.2924518576965 781.4612825166736,849.3336182581539 781.9497625181892,845.8707818412374 785.0607888981203,842.2672292868281 787.6031575689589,841.1612547424495 789.4096733844625,838.6194827708279 789.51265771945,836.8934226601531 787.7102186096557,834.0842801909668 784.4054669235763,834.4527076217325 782.6926336334739,832.0541432281611 782.0420272109404,829.3954149264574 783.2417106104959,826.0750391024371 780.6782618769431,822.672605755761 780.3728815358792,818.0314066956682 781.2342522009473,815.50302727302 781.2631465362501,811.8163683087882 785.0518171728686,810.3583961379815 785.7216065160583,809.2575122670758 785.5463371234821,805.7979726407254 785.961818911711,800.7039704324516 787.6502660273503,797.7523863226968 791.7061104239153,794.4655022897322 792.2066175691147,792.1853311742326 790.3977192416181,790.1880640382459 790.2958559233887,788.6584061150588 793.6791474059455,785.2918830242884 794.8740934556128,780.5865730012256 797.8006125160365,777.7757226589449 798.6626148697532,775.9768189804731 797.0311464816117,771.1880774523287 795.8375869054124,769.6922240400171 796.3839964468393,766.4572111478799 794.9888942427807,762.4381194624941 793.033605777786,760.0411544771762 792.5475176332894,757.1385301758185 788.3074094379441,756.8522842908624 784.7244186009758,754.3475119589286 781.6344237775472,754.1707801970822 779.6133466363522,752.5034046908202 778.4587552663675,754.4258321513934 776.3718433255672,753.8975839732511 774.8432750599263,754.4561468487099 773.743728990615,751.4106690214356 770.8159851064519,749.5604124576769 769.0739932102603,750.5503236442021 765.8885694652128,750.8872236732095 764.3753555619596,749.8649704699982 761.8718100397347,750.2507127297815 760.7485625860918,749.0423303371733 760.8701783382671,747.1741446850954 759.6854129999062,744.8783567984494 755.9626706044675,744.6410516655687 757.1824101415001,741.3853760286064 756.6316827541727,739.2108710699949 758.3768299444163,735.7687794556557 757.2708442064766,733.9243788765499 757.6282417085107,732.5072187192363 759.7682609408337,731.2300055124969 761.3089835359202,727.9012732624415 760.0781387311309,726.61174187463 758.956589031293,722.2435970844065 754.6620658784533,718.7857349664694 750.8703453992464,713.9931644960997 757.0889463562962,711.4848394662242 757.3589264273667,710.4281048113482 759.8988304670523,709.4471178261863 761.2664768543997,707.0220273628003 763.0181857901208,706.4331171831318 763.2292616464285,705.0884971902206 766.6072260041991,700.6274959299935 767.058295417045,698.0718032893653 770.3246324211211,695.5095854248956 771.1500339872338,690.7677914873642 774.9704436379014,691.9889395186203 780.3106553366359,689.4209122219472 780.781827591416,687.0087239578932 783.9450046909975,686.302751286804 786.0801070734402,683.670931652679 783.9771275444552,680.1997068020071 783.8234952308616,677.5127031969814 784.9484946060714,675.8583111238412 782.7880908066295,672.8288519432024 784.8179014210419,670.8540203071261 783.6202728691364,663.7397187274307 781.7672123020451,662.6272367113061 782.950465211063,660.819089408538 781.4853239687221,655.7162597024034 778.8343614554102,654.5951369928137 776.8520476599886,652.5289955771782 771.1852479797839,652.1138616598057 770.6023471210153,649.1007654600896 771.4522463402843,646.4733242515364 766.188230617227,647.5430716150076 765.3922808542904,648.33467799618 761.027060937292,647.0746594142512 754.7668673523572,646.9051951455558 750.8946224196607,647.8071684075242 747.1327810539826,646.0420576032888 746.0715218132021,646.2704077187619 745.3774350987354,640.8273313568128 743.6137554130493,640.1955754955047 743.4123130682216,637.1722232974607 742.2002373687874,635.1243818074747 735.7926657750285,634.1446710794708 732.7509105821919,636.3252143528398 727.5917791433512,636.4597009604661 726.143180376612,637.2117652044985 722.6816080484213,634.7170519777314 722.6393220442234,633.0773523214699 720.759009346949,632.4247510619932 715.4532469619783,627.545913469911 716.020704332681,624.0393190560139 713.6707370761033,622.1986485801527 711.7858604655786,619.2402116142941 709.6550940589461,619.3367970973007 705.2032665555355,622.1953703812451 702.271398768634,621.3817527351259 702.4695544665661,618.3160614109859 698.4066755879292,615.9969115585175 694.5815583482091,615.7178688625162 693.3615372352306,614.1618372730404 694.361880061203,612.9294958905496 692.9287427069414,611.5996769340172 692.1909459134401,612.5749759529117 690.2523227414594,611.5026144500796 689.0569997688593,607.3942520356887 690.2384566610923,604.1639014680643 688.7465806889876,602.7619424854473 688.1950513709863,599.0939873651351 690.7766076969186,595.4301174403847 693.5101839159839,590.0446800884816 691.1325592997667,588.1536638562329 690.2579230707747,588.6875839875281 688.9792979918772,581.6907115049319 686.5732398094585,580.1683176439933 685.4205170883065,577.5375613820898 685.8143346055197,569.6673306884741 687.7094668437805,568.5877536658902 687.0787386759068,564.2240642047332 685.5874543856702,562.4441759697737 686.2730712639444,559.7585424720296 688.0524878205174,559.3350920888929 688.3797352570278,557.7361490155849 686.2034341172881,553.8983888070884 685.2739111940632,550.9599850633995 685.7012438993393,545.3861564640315 686.9728763595534,543.9697915178642 688.3772344657427,540.7812468333752 692.8385105287641,539.1337239878997 692.9146646776916,538.5091441032881 697.471881380752,536.1953358161467 697.7128697580341,535.2731880732772 700.6652432863651,533.1674599161452 701.4500988270677,531.6804592816411 700.5681058466896,528.2712541781152 700.5118318884503,524.4717578391446 702.9258068370989,520.8309043709139 700.4691567508974,517.7942961619622 697.1811529228672,516.8891113630045 694.2146483847187,516.6798398956021 689.6254136545228,511.52724566418806 689.8210757085426,507.0920717850671 686.6460747466195,504.3637428993353 687.9604863699595,500.07086733667757 687.180016863071,498.9048742569038 688.7438394200274,497.82740749266156 688.8857928453663,496.0344739958391 695.1921468479444,494.2611910897401 697.588264202255,491.6250977626505 696.1309657625154,487.0510476799326 698.8576964680194,484.8036834088339 699.8823539433929,481.67868003650597 701.4732866274195,480.02722135476654 700.3763633236914,475.9755501090209 702.0379497999297,475.68572656489164 705.8506045129047,476.7939869585815 707.5119777180668,476.40115910696795 709.272724822846,477.32917972602 710.5445598233587,476.5384867774043 709.9976817155596,475.17784069638356 706.5841505240925,474.26322712020055 706.1920337501343,472.94371985767714 709.930352925453,466.2407077233413 709.558925175024,465.2383810806509 713.1439873948492,464.4627777746564 716.5392004979988,461.6305652794159 714.4467075970649,460.10964939901385 714.9926613301969,456.351840173494 714.5496715463448,453.68142611624216 720.4543381867245,452.14328371735826 721.3742165264346,450.6166409285512 721.5342301075212,448.20069439887175 723.8800329356301,449.7616214930738 725.7022015484852,447.5570289846868 726.5229401058293,445.27247056066597 725.6520660247312,442.73592942363985 726.1255271598085,441.33313104143065 724.8476049617941,439.15618528959203 722.870960513365,437.4615871821537 719.8791675020317,433.23145008281085 719.4575809213966,431.5333842511575 720.8628707215753,429.8827866146295 720.421983591645,428.19475090996787 722.3763666073634,424.4353228052032 722.3498483590544,421.49825059733155 721.603413302494,417.83692997980245 720.6082496238889,415.89510919921304 717.9245261176904,414.5299403399001 717.676736282553,412.43285416111075 716.4579555202806,410.24569446647115 717.1419176154908,407.61431471554135 718.6729442727038,406.0149242829515 720.8591059711657,406.0001595436029 721.0016513113159,404.78243934666705 724.9147718043162,403.84285439073653 725.8434894521721,402.3261199557992 727.7965840569964,402.72112414497906 731.3788255045466,401.6691433823952 732.8600745346082,399.3945167389405 733.5625273530478,396.61013053404986 736.1122476808129,394.6094868167471 735.6116965122629,392.22729391213545 731.7709098942253,390.49648352131715 731.6185781402938,387.7048507674858 733.1312457306533,386.4225043339568 733.5159047860941,384.8155505975809 729.8590255865644,378.29754860677645 731.860969810871,374.92797899649827 732.1684620369798,373.3626809910303 734.5446320213632,371.99612900690033 737.0430521806003,369.11687435704243 737.6755403945976,365.6067654368568 740.121750269332,361.0193291531539 743.9991189220658,358.43309219491437 747.6876396207185,357.9333055091996 748.7220396864282,356.06891668959724 751.7950245721956,353.93446960628285 754.1847535650962,354.5322125402149 754.974204974422,355.6854346417275 756.6906703363866,354.97522248116707 756.9935378696256,351.7530816577897 758.4990465628302,351.9028683207631 759.8744332779197,350.6619544049282 760.1483758310131,347.6342020637793 763.0914235335425,348.230325021039 766.012652391224,347.85478858927274 769.2710778424517,346.3015603662492 772.6655776344257,341.40512131296623 774.5891108553147,342.04360328414145 780.3650909890823,338.33714142790893 780.0487542552911,336.1389546833724 781.701576464336,333.52747143079 784.4809744117579,331.1678246504998 789.7492476780862,330.2435391648578 792.1438209477866,329.1421604845084 799.0994906025977,330.80950836249826 799.3145361387122,331.49402235687194 803.8887086941133,332.06272914847364 806.5220973471331,332.91359811419204 810.2753655487926,331.73706647699646 811.1099190488341,328.53462158307923 810.6974371298202,326.8890665332076 808.6847512380871,325.83211271576965 809.7752631239247,323.8248359321316 810.256370393127,319.12105558098335 811.2216007503189,317.3184557244225 810.476379448162,314.8366787112087 810.712687823524,312.8627033535362 814.5430264449438,308.40442853068816 813.3002196720876,308.44895689181385 812.4803499784854,306.79543582199256 810.534390790305,305.23751256347884 807.329093659664,304.36850480114845 806.8780615250085,302.92813179177574 810.6529012163046,302.61023527519933 812.9958132689762,297.74788646169236 815.0562707426153,292.4370083412822 816.7115901967381,291.12303269974086 816.9397675958766,289.57919779482074 815.2238521752936,286.9990632649573 818.4787271369439,285.1186172221368 821.507738050247,285.7527998249245 822.8813336068788,284.4403786636018 825.0431372061679,283.82057325731785 828.4589502781021,283.85036366538736 830.2311617044999,285.6328151662693 833.2566688270417,285.1629064466074 834.0783692430983,284.26153808783624 835.4412084128652,279.7190811196157 840.2287856898337,278.00652030632807 841.543498681141,276.4897299329542 844.1782051612145,275.0606682645092 847.5821610703089,271.8814739539064 848.4289687913962,269.813906109433 848.7938018235271,265.74626460332547 851.7127471062624,259.8095022956833 853.7098211357678,259.4654231305384 854.7974948573534,262.4450279692878 857.6252728891673,263.87618897219227 861.7719407532719,265.0775764601243 862.9069887159798,262.18160473906835 866.5795897661229,261.0755182856209 870.0986526866749,257.6293973237856 873.2432743827871,258.14955383493975 877.1213948252074,260.1586202729476 880.2064319772437,257.48033664648926 883.5790876001197,256.6812505523575 883.8654518163722,255.31061938924688 887.3464957620853,252.39636373103394 890.6142462463713,252.05678430038495 897.8798403873762,254.5322705594109 901.4215307097967,254.81502308898405 904.0173788998749,256.1944162278845 906.7996409230053,255.73334907149263 908.6964157849468,254.6535403279296 911.4402208192265,251.73065310690686 910.7202005874127,248.8830000225845 912.1188779554644,244.40229713911583 913.7283515404575,241.74964117240086 915.6806476638573,240.16865397186916 916.1380375486353,238.10284066153463 919.8547507723194,238.50639909917277 921.082243939152,239.80952127183537 922.8973586551527,240.17002858601245 925.1299768267648,235.93151132363698 928.6863816529465,232.83119703680677 932.9257218338796,230.6581054671375 932.7513485158836,228.4220268715476 936.7611753371734,224.9008896706008 941.2379997556056,219.41730798491653 942.5626340929193,216.21464022691328 943.8992280619486,215.81023320250688 946.230574554856,212.25597783436626 948.1762153082656,211.5124334210036 949.8655156634603,209.79904002086585 950.5911862342447,207.21184463463146 953.6890881812812,205.94235607759526 954.4651800751454,203.96788581682517 955.7518966691337,203.30852039216018 956.0994231385333,200.67225170660686 958.3865583615172,198.26243246924912 960.8539030388357,197.05620770919745 961.2573963428382,194.19536655339584 963.6279712276458,193.0916693733626 967.1682204413838,189.03217456245636 967.4011878542995,187.02932583150596 969.4226625452561,183.78316986011203 970.1901661290148,179.8690262358408 968.6638463437369,176.89478481523656 968.6633976883408,174.59725073147945 967.5140777301509,173.34654414514807 967.1158803488316,171.17371696222392 967.9050831244485,169.84277344685108 966.3048719011513,167.5325173818726 967.108237600788,165.07847795125213 965.9041051026599,162.57284603051096 966.6430547472262,158.6695969289525 963.5110449978674,156.30478014205858 961.5594540696178,153.40456276126042 958.7600075398212,153.69284879461202 957.2821217362051,154.71953187623114 954.2492871705211,155.0194895132928 951.8705896926787,153.93766110235504 950.8297656183807,155.36100038917414 947.8501037328682,156.56849276312653 946.2495723227229,156.34039998082676 944.9456932856225,157.3669199494616 943.6280419618191,155.20874619951826 941.7407362116695,155.83907587935823 938.8843660786422,154.18751386673034 937.85900295017,154.58978984414875 934.7724752001002,153.51060151351112 933.1143593805702,151.11869316009597 933.5235348905333,149.31028767604823 930.4151545394021,147.56816133535938 928.8938752582153,147.64597050777354 927.5580898449955,152.6736742185384 926.0358582358451,154.94603025361073 926.439815491497,156.4860156116065 924.6151465514456,158.1366404487993 922.2710623345527,151.53184003641297 921.9835144006292,149.8177604988232 924.3242973602552,148.73653985494366 924.9436224574898,146.2843639604231 925.6923873745394,139.77891297159192 921.9900181897933,139.6106395488589 923.9297483086324,137.72451841709722 922.3919688487442,136.18997127245723 923.3178264901624,132.6342456661847 922.2199498867847,132.02656571813475 923.5297028667397,130.03089201006185 921.0218507951192,128.04098331291698 917.8317931300023,129.8607321539107 917.4290079550608,128.55576143857832 919.0198561195128,124.27299500799631 918.2195822751171,120.51081844782846 915.3123162036711,117.95091345803439 912.3158989649971,117.31011880256733 908.8123270559599,118.11999186549235 907.7891943272996,116.6953318329139 903.5311380868433,117.967389561054 900.8345934793723,119.53964462365764 898.2974550793549,119.92673203974039 893.2542006141871,123.57959691408394 888.5893495493038,124.94478806851816 888.760239643076,126.53572229017027 887.1605616904075,128.81780224991314 884.9284230630783,130.49003790566996 883.6282889271432,132.57659025888313 881.5311012786635,134.11535504299377 882.7776652139063,138.27475625051136 875.9051825252969,140.33126906174277 871.0012136268286,142.9217187133512 871.8489881722654,144.0823527055976 870.7310280169227,148.49551304421345 870.9444607815894,153.8033053344634 871.8393925165097,154.75944461484767 871.6334269403179,156.801892115054 868.4995928866916,158.44631120028487 867.6462373271364,161.10328570211345 864.5918260673468,163.45244203883715 864.4632492803848,165.42315619015278 863.205401200272,165.9891472611232 861.9054876937947,168.38265276276923 857.2446668466397,171.5637830966955 853.8107817518346,170.86140497324584 851.8372147602895,169.26515893470116 851.8908108388981,167.83625618967187 849.6737722194631,165.78147229862748 845.9236203858636,163.31323928233633 844.7823871231562,161.03039946406807 841.5487469408798,159.25465166212462 839.9008354003101,159.30165630727834 836.034806299523,156.6191646173968 834.2791417520352,156.22707182527188 832.5068162425546,153.5782501823627 829.8371377743352,152.1482666785198 826.1400618847138,153.6811170192883 825.5680589724599,156.69400639549815 823.8649483117151,157.54670447806768 822.5551898887013,160.2254904218778 820.801980995788,160.38468126426744 817.3819963487068,163.91729978125431 818.0622484205687,167.55913931017255 819.8942871924698,167.68625714775897 822.7857992089652,171.67901060359202 821.3647800947332,172.87872228597962 820.3372788278256,175.9544612142555 820.7970509551083,177.32180054942 820.449138746933,180.63043078532473 822.3273098010037,185.995183274973 825.3455599903259,187.02712817601855 824.7158977619317,190.16384438279374 823.0698786928061,190.95564932693424 823.0557014275,192.55876112015767 821.2491664153459,194.5354875412204 818.9040451167956,201.00736856778803 817.557080632553,201.3687653035422 813.7457302624061,200.96199526253235 812.2185855118316,199.39360261607533 808.752739085268,201.0387690295779 800.8208016817819,200.87828744039984 798.1548589249304,207.50425440397646 795.7562980235936,209.70656273377665 796.2092065353739,211.9627241212787 793.8162036276798,212.68481456358575 792.2230084027877,211.6885786875839 790.98590919591,213.08089422033095 786.9798256837597,212.60229279315558 786.0624826376729,213.96291661614953 783.5379533909961,212.8977520636672 782.6515189542536,211.28643535844287 780.1442408974175,209.4553367794142 779.8557002856417,206.6064431777844 781.6246068252999,204.6205578318469 781.6749428026349,201.93432753241575 782.5356576493442,201.02324245505974 783.6186485758988,196.6388843391917 782.1893453990928,195.15198574203873 780.145829682203,195.8935387743187 776.8930125022824,194.12511835182272 774.7762963649219,189.50534103759082 774.6717301831358,186.76960617590964 775.8016241748242,185.11199775040052 774.2623408320477,182.20659025871282 774.5155430467825,179.24481829339322 773.0249995468612,176.36921585221648 774.1572294603433,175.60032320279095 770.2607452130918,172.32334907323673 770.4937933376018,168.73946434722222 772.0916942563266,168.3572340454665 775.4111382765451,162.71328644777338 776.8562991476317,156.15573722939484 776.6961630101988,154.2474055160542 777.863818216308,152.44755356296446 778.026769754797,148.4044941339307 777.3445264368368,146.8655342013268 773.2991471771377,145.4371783495194 772.4382783561242,145.8888698722286 770.0495073151321,144.24157393845337 768.2804800616826,145.8793449298489 765.0535706057457,145.7043567595697 762.6236550927866,146.82376406061405 760.0265983923339,146.80980946177306 756.8638069995612,149.0939149392575 754.9738460648763,149.03807474171504 754.0595632820065,147.61094109885744 751.5493286612226,147.5051533570081 751.1470916860894,145.62812376916486 749.0021923690996,144.33692244845827 743.5021287633485,146.08568821980793 739.2631269389658,148.20905308155898 737.5437823911458,150.5505451646468 735.5480049121958,150.71890284032315 733.7721497931768,149.72224623048123 732.1764816565311,151.29831754381826 729.7765853661389,148.62933503348495 729.6074991948833,146.80315402912618 727.2069707659663,143.78692877438107 726.6904569872963,142.29797247036527 724.5758133892824,141.28273718754053 723.9506655679188,139.06891525670176 721.7133525708261,139.63544676321192 720.7578663091915,141.2498540770107 717.7118752920065,144.3697722138893 716.0540719944242,144.03698072152542 712.51826227203,144.4932387304251 711.7124145898459,143.7606583220105 710.2132443484899,145.18256983120068 708.6897499914595,148.6154247075026 707.2561204231264,149.01633452337978 702.912285261106,147.7695336065632 701.0857994108518,150.44784825241345 699.5373109450193,151.24676936750222 697.0271887837977,151.20114835841014 691.650744411439,152.1612004121978 689.6744139620557,157.6155478510815 687.8667443207887,159.94640453550437 685.8433160973931,156.21420322578854 683.0164101699983,157.8018498929972 681.8310443797558,161.3158523962851 680.0219343710689,162.99368463091002 678.256382847802,161.98610749294676 676.6698801230632,158.5486565800295 676.0619061077289,154.68080836425463 676.5032413360284,152.07766127461332 679.719664212881,146.19190278413475 680.2270638511468,143.1085452570769 682.6657240204121,141.30815913848596 683.5545092501153,139.59130002369704 685.8387149504957,138.44402287393245 687.4658441856435,132.94047213491206 689.5430139151069,129.9968986295463 689.4994690334252,127.41536173497173 692.0525130200263,120.18551134203005 693.8154315957962,119.78414661447528 696.635771867319,120.48210606358555 700.3362192474361,120.30101020466293 703.5592736310277,118.71282505971419 705.2463448443115,119.2608164389336 708.6747327568014,118.66137656506965 712.597968653496,118.60227893091201 715.643784896099,116.00326761184783 715.3755463478108,112.74934896252 710.179282456364,110.91326871325896 702.5047662046393,105.24612079272651 698.9747991716434,103.40681047719318 697.5255642588567,100.38951955485436 699.0913448603071,98.63196738692534 698.3415374365031,96.8276509679614 698.5791235142785,94.74557398021875 696.1060394445667,92.945496777274 692.7145536058966,92.34006653111066 691.9269828061944,90.84149001224512 688.5248552275926,89.48165843652328 688.7069982325609,88.51194294944071 685.500724086203,88.05878041386802 681.5256353048129,86.10760214857635 674.4739960873851,85.44770328354878 666.11051335608,87.9204462817545 663.156797444095,88.27269471614136 660.7401219033144,90.73550556185376 659.9871334548786,92.58330922662424 657.963892490215,92.80097077998562 656.7415003350446,91.60933371820317 654.8817616176572,91.91807416970755 653.7410718140839,93.1542743033209 650.9712698302452,93.09801817603432 646.6202325116594,91.73758408800268 642.3104620215948,92.13127825344452 638.7059028503542,90.9330048629522 638.6137140912174,87.41365212980566 636.158279420472,84.16350805839045 633.4372239392108,84.10595926452788 630.4417625856964,82.13151586520848 630.13672063388,78.69386968070114 628.3337972991785,77.67630714115728 626.9261242879845,75.1695751337545 622.6225304298157,72.2173396858276 621.8700108613845,74.27840829014133 620.1270702132208,74.30142084271984 614.8719156679477,76.7046118650012 606.9486950500365,75.6534317944978 603.6717275375285,72.57709554992982 598.5511053145144,65.21892985930128 593.7176433325354,63.79618670451703 590.907148371269,61.50397706413219 585.1935916983742,60.35749535412947 584.8429433061467,58.32848169652641 585.6740425617606,56.53259716570733 585.6324242712764,54.06469114886261 584.4089287905139,50.41503269885652 579.6132578584547,46.49370851324477 580.0088448843237,44.82116147101385 579.1734520566081,41.91538374173717 577.7097308381772,40.27524963081726 576.4861211962123,36.014075099972956 575.3520639129536,33.77218034400505 575.5728259566314,31.885495586881916 573.5474492604167,29.28718690757887 580.0563614080263,22.889123201576353 580.4982861817535,19.78936332369551 579.8768878237871,17.63920934910925 579.9221068038296,14.111972226778107 575.7869402990685,11.159217029062688 570.0322888775055,4.2526133301585105 570.3790721971286,2.183013756416244 569.2366388151605,1.2975490241746002 567.5237349237764,1.7367695909791792 565.016097340547,0.24092714415508 562.597686246011,0.7213272505136956 559.5875739212441,0.0 557.9430326309692,1.3876418223771907 556.4547901599072,4.171586913350552 556.9993385134056,7.279777040330487 552.209148358133,8.251643366071903 547.4959304884885,8.203953548271556 546.2377052962435,7.735400891536528 545.8623779302412,11.752110474412234 543.144221993265,13.395171352785042 542.6902503980846,15.984751000595793 539.2567607840931,19.798810404250503 537.0912530749288,25.234366369627196 535.1183505425638,28.518288878408157 531.6345398229302,29.824992259008468 529.8142150799155,28.948636765213337 526.5908416993016,29.317189883201195 525.0818087803086,31.295702360961172 525.6342488260912,32.957676228692776 524.8431125949589,38.69810632595136 521.9979987044103,42.91076923667117 518.1064916779958,42.2085615804624 515.6184414193771,42.59649969666441 510.73902453216783,42.53723699933562 509.1234209615259,45.0870207074513 506.9839389854674,45.596797168624335 503.5463069959547,43.476782980919666 502.849268471367,40.96826588119825 499.79929369966777,40.72455185382296 496.42087855448955,42.040061903195806 493.90440936567984,44.019022233090254 489.98322508506016,44.97798034123832 488.8313209212671,48.934598886334356 483.893907935317,50.99409134122243 481.60943728593026,52.75845051797569 480.26320206167424,56.07282932058388 474.05722332658127,52.39097237102999 473.31239206092795,49.270844934350066 469.48803499957666,48.25039870552462 466.1669559044485,48.259929705353784 461.96480638469717,51.05359415550845 458.4886603186072,52.2050360657222 453.10617113855125,52.112284480193466 452.5925440749591,53.04001971303592 454.97281807655816,57.69080141519544 455.079086360768,60.37306913222801 453.47987947777426,64.8906673840803 452.16210249187367,67.31752626457944 449.5861374405311,70.29548959774934 446.7865047465743,72.05893522213205 444.3659858993982,72.36380494720368 440.4723083010913,73.92313867376072 433.2288174231046,73.83861858892931 430.43996885212715,73.21512514207518 428.67844595457245,71.87774079211033 422.374781747866,70.95648001397478 420.7185825702737,71.46555698513384 409.8744743013493,69.51078891963573 408.0921909754259,69.76457085906452 407.4803103821612,72.82352231451989 407.74976059929617,75.02741744288335 410.2057821130526,80.45580113105837 408.98187199413394,85.70805534710416 409.56276143420433,86.2899119907305 401.9454568755115,92.76187856703586 398.5258772318841,93.79003996579479 395.1166332995204,93.44011567529344 387.9226388828255,90.76172869085599 386.00439645228084,91.04497721855023 383.37166657583884,89.5531989801151 382.05373193402005,90.12343743747863 378.05018394646146,93.74121902627587 375.6962117474592,93.85102987553012 368.62899663220105,91.09926057693724 363.3886389125464,91.67498971341706 360.1313049801527,93.97716204746575 353.50311295182405,96.55019105790973 350.7035762256575,96.95539966497415 348.49334935345604,98.39054377172681 345.068957619527,102.60002944164796 344.0190645839391,105.22099395357941 344.27423241757424,110.34307071493845 343.8173831520403,111.6482610150506 339.1067486848641,113.21358116808926 336.93205938172196,109.68041013245875 335.5047933318565,104.84243897461249 335.0927526649408,102.05593737816457 333.0412969781801,100.43083277830658 328.80179114415705,98.04826987099023 326.03650162308736,94.95259917599083 324.45342791949236,91.27792184104123 319.6135020493777,89.62840640250181 317.8154336091366,93.26726056333678 316.3425331666232,93.69357969495536 312.67429869765715,92.19842487926257 311.3241354293213,94.80784553864498 312.7608210581417,98.77897822099874 314.32772880275445,106.18835706743153 312.1983379937926,111.07246313883229 303.79699262067726,112.89526761382012 302.621655680006,114.78053923604011 304.2265494964802,116.69198749407326 308.9005448520332,119.64846849476305 310.21570060766294,121.27284658641622 309.9122565213032,123.17035329367252 307.06441810686573,128.5539920367944 307.19733319883227,130.6058273543431 309.08107213767084,133.6905517500636 310.9530791197731,138.81684935979774 312.973502549629,141.8210663634893 311.6420527390887,143.95197647359612 307.23424856234783,143.33265729661082 304.28771838277754,143.7356484361212 301.6073515530618,147.08930704559248 301.5604183016918,152.0496572356618 300.3640948267093,154.671475305822 297.69636014280553,156.26916668428908 297.0929006628064,157.71753746147658 297.6472617486319,161.96535081730826 296.72040729403517,165.48550586949614 302.28724440054384,175.18311583602372 302.2832409535419,177.56192340888867 297.6966032276795,184.241975834473 290.67534161081755,185.45475788424858 286.6796453520348,186.59123457146632 279.75911029933513,186.1090515383696 271.8359401834677,182.5405136327406 267.0210200514949,176.36381554466675 263.652274549835,174.30460226540436 259.8242111128112,173.8373800214158 258.3393465700979,174.5593740971209 256.3957335875277,177.17914058432746 257.94153650860375,184.18675578698912 262.9236045591032,189.1997527067549 262.86434212089813,194.42811850654505 263.5484382474808,196.47190650583343 272.9401841659163,197.95083973606745 275.8918966022204,200.88764651556312 277.64873260114064,204.8121759090592 278.1037685259061,220.45924953160068 277.24443226131876,223.5630359234641 273.0142944004294,229.48920224866436 273.1252150262413,232.30910855334275 274.49695594049086,235.03928915696645 276.8886100527641,237.08626285622142 277.39588588250666,245.61771652872437 275.3853105664538,247.36051482620474 274.78781025093275,250.11836442864808 274.8985121395364,253.09110924817026 276.2591883230306,256.9150002673672 279.6194781300356,260.04830006303223 281.32574410070214,260.6744266095757 281.69918887587914,263.07618563481606 283.2295663980547,264.58141989567264 285.0245472328311,264.4111374774633 286.63194375321626,260.53136072441714 289.0107095876396,259.4626355924521 297.4927850567988,262.8087647348867 298.2771470303574,263.6888071963947 299.93779172824804,268.56517823991214 303.8256462757095,276.0421480859476 304.03589699299084,277.65702204890283 302.8176828916433,281.05763673509057 303.30129502769785,287.5887372194743 307.0912975303272,290.33397115325647 309.48783608483257,290.49145903848694 311.18427831869934,291.4143357378739 313.17868543179276,294.19719300784095 314.71089877972577,295.08903137358107 320.2955272366785,304.77699094157833 319.82581718077233,313.8942208287052 329.0738115170141,314.6128493794438 331.34182960746097,317.1207655562307 332.0158617459492,320.72017454832405 328.2917165421436,325.2335563379446 319.67880901324605,327.5013678098011 316.94918771174525,328.64166694174025 313.57151399766235,328.61647344481094 309.8807895690775,329.8987208973922 308.1150792254644,329.445791395917 305.82734699576616,327.3567310359754 300.88169652290674,324.5573185765943 295.7274473257026,324.3135027063098 291.5732909453528,318.7959986286394 287.4622036444635,316.58040805897383 286.0212794166044,313.78656919202524 282.9127898849943,314.9360742025425 280.81958277201556,318.57215252725257 280.3597197309403,320.6159408302632 277.38333187525046,323.9630322284157 275.71456037926197,328.6321235336941 272.7608180124384,330.0681327041009 269.8591862263689,329.6845671094527 264.6231102162441,331.6366062117485 262.3943338229854,334.331919020423 261.61075082331973,337.8573760956067 263.9241061252109,341.1141512711372 263.92140047146785,342.4536875141745 259.02473799402117,348.9977631155389 257.8381839652572,349.8647801644224 246.5893042207736,352.6735566671573 242.54166316589144,352.29674925127017 237.44742468531362,355.00513702373837 235.52208917915712,356.45321620445566 233.86200587573316,360.38663201307713 231.4765612452475,363.44886991679823 229.8021373227858,369.4383568522933 230.50165896150813,373.38794630540167 232.68804956566956,377.05523534634096 234.02808918523257,381.2113462978132 236.9640546703162,384.36871031900523 242.54748742321118,384.55478792126337 244.2820202846945,386.4711351933538 245.63500361448826,389.5433525970931 247.7472348784456,391.83912843418807 247.96339746502176,395.0824342169375 250.06942083728418,396.0078913805751 250.46746332829903,400.54118435582086 252.62746094433152,408.13670464167944 249.33567184674624,407.598181241368 246.6148251236682,408.0324190015182 245.67921844019796,409.288498445801 245.41142438811332,412.01997267513184 242.9397238427171,413.9378241625067 237.7656804913403,412.0537210658208 235.1990786464725,412.8567006750052 232.969646971867,415.1128343159463 234.1763803136941,418.3384600816547 229.1315784862843,419.6056763596357 226.20804404027854,423.30327642416887 221.4429252284216,425.0623701605971 216.9618762464746,426.16677807552946 214.84336606687393,422.3350064370577 211.0513200939964,419.4499096876665 207.21456154178694,419.32735671949445 204.75261438765446,420.73360104661754 200.4485811801908,420.89611070139733 196.98475803075775,419.0559601239481 195.07195028281498,415.13138547323285 195.93851919771961,406.92821906830557 197.02203517935635,404.8641526937147 199.70950451575084,402.46707338029023 199.0356038921557,400.2862569798009 197.96811804246664,399.8126287723885 189.861638834925,398.2971581550495 185.72301386416504,398.44952926225164 182.7053080198658,397.3060052955625 178.7310335754682,394.46071011486833 172.38477998341642,392.2130004774418 167.86565624575627,389.7036980276159 166.18452250348184,390.02601843441505 164.2067998410725,392.2092986324292 161.24009522410503,393.5408797372512 159.29955542598796,396.15431427854 159.14631804243777,398.6094481660317 154.92190450996512,401.5631593214571 152.43788603247748,404.0112301869716 151.1194342725003,406.12561459191375 151.09166154457188,408.89834188543944 147.86926739995673,411.28260935605385 145.60584884473658,414.222018075754 146.3843739042607,420.20018001825065 145.6795002084033,421.85630775923016 139.7226587605089,425.36784522924313 136.1157858893265,426.0215872066228 132.23924350353946,429.0792398523606 128.70726476281274,430.63318523737223 127.36632593673092,430.6288170749617 124.6713870902352,428.7166527245538 117.02302467696693,429.3256754185122 114.52120026329051,427.710387563023 112.75228610215927,425.00299697812306 113.88220366296652,424.1265942120775 116.76925728328241,423.7169603019952 117.52598593805801,421.24316244712736 113.95984426721374,418.52974015316795 102.36871574460818,407.5820552888807 99.22823560776745,405.70914632165113 96.23548766769225,403.1607394372296 94.12501988675663,398.3856032601984 92.87658736046542,397.0308059796139 93.709370420996,394.9983187615818 91.44494785264516,392.7288885257966 88.96454829504187,393.63012706472443 85.78562485444911,391.87956643947166 85.69115937315621,388.3705173661368 80.0537720647844,384.18585014670373 75.23594265272357,381.8566332381853 68.27604444143725,380.8785890350898 66.2896348757006,379.62280567482935 65.34331818188171,380.7552044243869 63.714765846219265,380.00155684746176 62.166234609032195,381.12084807754104 60.23146563366345,384.0697906957513 62.187797500933435,387.92408293686333 60.76542144164264,394.09723734981856 56.992828535139324,397.551297974043 54.90317678812443,397.94173734404774 52.66582553029023,396.2445963326693 51.30089722169711,397.5180879283165 51.24306834700794,399.83063896991416 49.79545861498765,402.2697758722612 46.76439571111181,402.4420038618591 48.459240088136326,408.50610761168025 46.838736811225026,410.4844181651313 43.005938628967634,411.7686269372034 39.53842258585646,413.9851428041245 37.217619269717,413.77057370089074 35.494138641042625,412.3616947705374 32.69430296811577,408.1040147036191 29.603101696435168,406.1778011721028 27.71856878743979,403.81642517799787 24.058788490177314,403.25875012478855 23.33777385765874,396.97405155639103 17.948618958616656,389.70777255002565 16.356093328393463,389.598783467746 14.702186391888194,392.44599628408605 12.040878493201344,399.11482360890284 12.557542026889324,403.20959466541694 10.579744149166093,402.3215233489111 9.934272791563604,398.74773219256224 8.42960750689021,398.63901311163147 6.464171069604613,401.48474640629536 7.275332131348012,407.0648426285792 5.182049618687285,410.30941697982394 3.589140101059718,410.22021924750345 1.5860409015990842,412.9335869147101 0.16407471842542487,413.65392615362555 0.0,417.73575103149926 0.9145428552896614,419.64320402768044 0.5213034950924266,422.96741383445715 2.496514921365619,424.5108490517639 6.124810627531466,425.70355642169704 5.019181967870291,427.5206812051082 5.814440205158365,430.07201053004826 7.755454901928569,430.6435261970447 10.044073280440294,429.44601108637846 12.290324164434319,433.56976375205954 14.027302872515632,434.017384283688 15.36001417648777,435.9572226356414 18.760842136890854,438.2545957337886 23.446616850287455,437.7828652226582 24.998328719954674,438.5774797707961 27.618907452662505,443.90071065867187 27.171007639787547,451.2373556359337 26.40430507790486,455.5539926105257 28.6615371126224,457.3239194009358 28.842166163028775,460.52921633440815 25.472014642867876,462.30636763536495 25.64386119381836,463.14662968628045 28.340686132814195,464.2432314093188 28.03578945345515,465.2658478126905 25.779216906275536,465.5221853967306 23.730737703128558,467.35627738576875 21.503022185137873,465.5141777309218 18.296721035210695,465.224825303765 17.38796050871349,466.3262621829999 17.987277445611962,471.66256303027626 19.6975139349705,471.81346779418834 20.68023655678033,473.8753925174901 22.854503101580537,474.50904458508444 23.656363372621705,475.6791735391578 23.349533447015745,481.739009954769 20.506479190715392,482.79237885707096 18.952376756701092,482.4171000220298 17.581673619496055,484.70483867344535 20.697521626193524,485.86484378689056 21.21542164145543,487.4946489929106 20.15698802796235,489.4158143549621 20.911143367986657,492.7464363826639 17.574283451270677,493.3367855390924 19.731144944837883,498.16887432376996 19.308072237541037,506.25752441364693 17.302198061304452,506.9656499038391 15.325951340154552,509.78384847807547 17.050061782186717,511.3581313039675 17.887591688409696,513.287327241231 16.893604563734666,516.1504304847891 17.988184650960537,517.0875598334212 18.231594322286874,519.3007282460185 20.295978125782135,523.2736398259789 22.745822716076773,525.8855142525413 23.67150849360701,527.6813757432219 22.69362133063371,531.324213448877 25.204482403479087,530.873866448617 27.758830690474728,531.8469304102506 28.68133858873026,534.4423211395729 26.858019982677764,535.5822916813979 24.81134743780742,534.2833536064159 21.387743540560507,534.2582421609832 21.217306167986038,537.8230435032555 23.05973042068625,541.3747930351336 22.494786183054686,543.88256956897 23.86299904621964,544.7286024221912 23.22435811493327,546.1906916492335 23.299048924776155,549.2234548716577 18.82631905510652,558.1591194159253 20.502027314158997,559.856770209097 22.28123541414208,560.1207914033916 24.920800900208693,561.6065746874169 27.965724643247103,561.5885051920397 28.271343966408118,563.0453107171103 31.064080234239082,562.8617378344804 33.53274072248435,563.4356455646928 34.16834629878137,564.9851843022583 35.794449497324734,564.6945621050425 35.5528772218358,566.6614332474312 37.31234200292922,567.058005741939 37.31347078559733,569.0765573154097 42.61219846729452,572.3868806679566 45.15678949904026,575.9118244246154 46.100737681764,578.3650164432765 50.335692040918424,577.7665184456348 49.46438061207267,576.6770095990828 52.47971190853446,574.4345152747104 53.57234443959339,576.0986266727422 57.892079962115204,576.1461332591587 61.737334588243996,575.669354419445 63.76744449635503,578.9975485155035 64.29430805700063,581.2024249992176 65.68858278885163,582.9397547627868 67.64168554047028,583.7666915260006 67.67626544407325,582.199161234319 71.88463093563075,581.046711100066 72.51812780864744,583.334126076359 76.04514540122734,584.6698661855762 78.33261154360898,584.4317473029735 80.51676277694426,585.7931180965682 82.76491121659004,585.7291173388547 81.55631162773255,588.9944384968769 77.50005057270393,591.2131529523083 74.85092466433962,591.7364125129536 74.1983199871745,589.3567757561975 71.13217286203594,589.6833024642256 70.45054203057694,592.3966920040255 68.71643035853567,590.2687337895668 67.80606535817309,591.6693608347512 66.75226068283956,589.8719055470991 65.16572349896535,590.0502349199653 65.65609405773125,591.5076145712476 63.01819419035889,591.8870014396498 65.59316109203574,595.4430372979 64.22715525423222,596.2166877499048 64.30618589390673,598.6149451071626 63.06897256626328,598.8667747822099 64.38325568983991,601.3419335029243 62.7051412715083,599.9314870536975 62.25534875752015,597.9819094345419 60.84445075083613,597.9258167319881 60.6824830610017,599.4214235729434 61.94626934005913,604.9710562037671 60.5693868892163,606.1140704773277 59.26618668571053,603.372384838089 56.88695672331823,604.613649262838 56.81343967062926,606.0174225173184 54.59081636334811,604.3789281929401 53.506556119681846,605.4515615965647 54.92344126040221,606.3895298264101 52.61750854385677,606.2676389780412 53.950523852831516,608.866658177832 54.897797138980366,608.0093197165239 55.82104081909857,610.9439097979239 57.063909686115444,609.0830449833925 55.25296920778322,606.8009664529629 57.3377566174837,606.2859742965854 57.760883707175864,607.5180780074331 58.982642139607556,606.2823310169053 62.147720473537206,608.3344924928381 61.67864895384177,611.2329799216157 59.901363267783346,610.2322732333666 58.6817118905328,611.0985907936192 60.020632986520425,612.2113120017303 58.449717565366925,613.271372009734 58.65149761211121,611.313537705708 56.85135711321202,611.2251760895504 53.487031946670925,613.0363169364883 55.181683997951716,615.1958440284468 50.66730799754133,612.2979186981604 47.46353592402152,612.6232641991533 45.308696055062875,613.5886614520398 47.14034652020694,615.6874134214611 46.06169298996722,620.1833517018349 46.288916828328105,621.814126320169 44.29374134933174,624.0413341391067 46.15103232384413,629.4821273815227 44.99981314441067,632.5329992037207 47.26070187223287,634.3976349941495 45.799659216227816,634.5761980534332 46.762710998714326,637.2352683611581 48.4582645416929,636.8632901707854 48.52624113814427,639.4473843339078 49.50572798121163,640.322237854928 49.340451904213566,642.7925057554826 51.535213015181746,641.652820583336 51.04932416577001,646.3677032592477 48.513584102278706,649.9569847524743 46.53600850213049,650.3386083393366 43.09561686084132,653.6269466436933 42.35135979120225,652.3627928886538 37.47109019858283,652.948475684187 36.52429666133582,655.8672072403249 34.320760572608215,656.5864273145562 36.69301832162215,652.6173653153705 36.599149450801235,649.407169576617 32.50587199042383,650.4366865473762 30.871516620289174,647.702545661741 31.37182381443375,646.8635399841322 28.26336291763602,642.7592002423137 24.741037455519184,644.6318282813912 25.358616412226908,641.2809262750527 23.04555740376252,640.2873977409718 22.090357475167753,642.9179519989877 19.336224438395508,642.6398977349542 16.865445309349155,644.5366582150501 19.342832528824296,650.2900680179789 17.35916147084921,654.3011221180602 17.801332560684564,658.1073127502722 15.024468560773139,658.5372424731474 13.317565596542389,661.4725423699173 13.534934581149548,662.971232979291 11.840656005149555,663.0869211975921 10.975772178083767,664.9496825211238 9.319532018456878,671.916822971 8.569036169432945,678.8578675074787 9.316902791757878,683.9281234090358 8.245082463622754,686.3337818895494 8.517349519999366,688.7451959142494 12.288358530953845,692.8851202394753 13.213254676974026,692.9819834027869 14.1414943607546,687.7130296688795 14.818124662776555,686.4646850947703 18.984644372093427,684.748657874535 19.351007199007107,683.241679190859 21.83074790840723,681.7957511101422 24.538983056570597,684.042881536235 25.912841696237205,683.7820365597715 24.79210510916952,686.311303453784 26.876473573645033,686.2991685261329 27.004641084415827,688.2690534173004 22.784661772964814,689.041956897722 20.444249004409073,687.3186199623489 18.24997477419141,688.0483296964064 16.86415992569582,686.360406782137 15.409598255131755,687.2053109956216 15.135963476085985,692.0461458673124 17.37260245329196,692.8658936414251 19.663752547441074,692.3217114348488 23.098115221297558,693.1870522042186 24.89050670335273,695.4718327647829 27.541073437200243,695.2676951554869 28.873812313159892,693.1701645107066 30.724559269642413,693.1362574737506 29.653860003438265,690.6294811989305 31.778619661842118,687.9398941314905 35.68123549107621,688.6431518171041 35.77248712511588,690.202718483911 34.459015531990815,694.6699260396697 38.14663135917741,695.5673097063416 38.473286347151344,694.245224117631 42.484233025608496,697.174551522425 41.08456655358658,698.8410812982836 43.150319886463386,698.6956817518967 42.7521424165619,700.8792753522303 43.60430648765135,702.1545878291356 42.3214416492951,703.8423340181716 40.533034233393344,702.9526941945802 37.80420122207072,705.6400219010304 38.36606423274411,706.4940715090588 43.12862180131477,706.697399451377 43.50758166262346,709.3664231277455 45.091055407315004,710.4088163267568 43.90881315348887,711.3073982171584 45.62039158941522,712.0730150751463 45.353028468640275,715.6527173749803 44.064080210509665,716.4894350743007 44.153429127954816,718.3876964148029 42.82684036881836,718.9362243881258 44.04825491049581,722.8505497741548 41.63350472841182,724.9447280003369 38.2809118590151,725.2393496236921 36.93140207841587,721.642424995591 34.07625445610341,724.2062696368216" /><polygon fill="black" points="128.76993577366474,931.7216780455657 126.48640556321953,931.4571816184538 125.92187445786941,934.0359807540806 127.18844287974228,934.9447301461299 126.48886476798849,937.0392443788776 129.46516659626926,940.3795729537699 127.27717649390875,940.7636149159383 124.43204382880822,939.1401955914683 122.43728264657817,940.2444038257645 122.18918853866633,938.4756003343012 121.07298471632951,939.5411208919608 120.24730368663124,938.3357271850645 118.40120394889175,938.5862909714269 117.77244900547042,936.9598651699224 116.32444472153924,937.9221149916959 117.32376379517412,939.8784702465933 116.24752247547409,940.5738820644285 118.92928053828908,944.4580682870214 121.71611778839011,945.8963417719517 124.93164921672961,944.7960293974666 125.221297298796,945.7224261026753 127.73936995234715,945.7926005931917 128.62286300300062,944.2017189461408 129.56854190428388,944.7799427279465 132.92979348690145,943.7113502305326 133.78572936003474,941.4728949813648 136.17402579273607,942.5701038425743 137.1643257810126,941.0309443055007 135.78045974737037,940.3477509326909 135.51229730801288,941.7554904953282 132.51882650873577,940.8622183967584 133.03138458328135,939.2394278091097 127.43251322365938,934.8218477537739 127.72295937418464,932.5301897232439 128.76993577366474,931.7216780455657" /><polygon fill="black" points="36.93140207841587,721.642424995591 36.31445191284547,720.018540232808 36.64682760694691,712.4789216241186 37.500673110228014,710.8402090701622 36.57383699886093,708.8671383724625 38.43449530021907,708.7509507452878 38.36606423274411,706.4940715090588 37.80420122207072,705.6400219010304 36.13659642499036,706.1049138764486 34.719803903402514,704.8579852452294 32.71844212091831,705.89676564205 33.479606079144254,708.0128312325921 31.990187292323892,710.1612393269211 31.310026811243574,714.4067008842928 30.385482696967586,716.6395706652914 32.14429859572653,717.7857852000659 31.671941778159407,718.9121680389828 33.048418610676855,723.0630551986648 30.295695075310704,721.9435334319281 29.77333917811309,723.3577328031085 34.07625445610341,724.2062696368216 36.93140207841587,721.642424995591" /><polygon fill="black" points="279.2270164322615,909.7181390610249 278.152803347343,910.0241642208625 277.68066770840056,911.9863515290635 276.6676551238574,911.039073239642 274.8808175052834,911.5703239503065 273.30368035267446,909.4707150765155 271.6005180846196,912.5196253957408 273.4431688666644,913.2941568191762 275.03642389704476,911.7557031494962 275.87398120763095,912.75413063438 276.47351746110377,915.797339230976 275.10184028576475,918.7547451521216 273.66717836090726,918.8242820996152 272.7984560903574,924.115820806832 275.13024053230237,924.3981666099413 275.27858698861627,923.4629990511502 278.1296645754301,922.7485886663135 283.5377714029737,922.1208381403069 288.8724263708712,924.042504370738 290.742029229875,920.9928575379726 290.8824221299133,918.7420505956828 286.10132259720757,918.0863628338217 283.6556977938614,915.9953686008727 283.2890659209609,913.6207869125712 278.7944908768341,911.2487780132865 279.2270164322615,909.7181390610249" /><polygon fill="black" points="615.2208044812589,1024.0 616.2360166601741,1023.5464529234687 616.7023293429311,1021.2618780524185 618.8084608728025,1018.1735440281656 620.9102057498002,1019.2300560721284 622.460541096835,1017.03704879189 621.7524883307607,1013.3453907865375 623.4382086717734,1010.2060260455158 623.0845329042317,1008.6428220337693 620.402206668006,1011.4539330128673 618.5959004825717,1011.9092439747434 615.191543767132,1015.6265650274606 613.2382896649331,1015.9782822602979 613.0097483950694,1021.1325734462747 615.2208044812589,1024.0" /><polygon fill="black" points="752.2673592685803,974.0049359902098 752.1646432221352,976.1540869294331 756.1535582762248,974.1599191882146 757.2516328048139,972.1212376237623 758.958488564795,971.1708662125836 757.3636934707255,970.012760913993 754.731986854572,971.7878918681516 753.0826161133738,972.1413125850574 752.2673592685803,974.0049359902098" /><polygon fill="black" points="111.34481946152272,965.0181026543241 112.57254711489134,962.718815383035 114.46529718595858,963.2802985909993 115.37917916623371,961.2879367980328 115.99667587661212,957.5680712338794 113.9244957185352,958.4768035761336 110.89156598762312,957.4691674067531 111.5866505953421,959.7025891154944 109.80743056086808,960.4885581978925 111.34481946152272,965.0181026543241" /><polygon fill="black" points="641.5100490286302,998.3732426906096 643.0360067159289,1000.2534521239166 644.372479824287,998.8629963478082 642.1634495178187,997.6112305619827 641.5100490286302,998.3732426906096" /><circle cx="424.3588985404099" cy="802.3236269056955" fill="rgb(100%,100%,100%)" r="16" stroke="grey" stroke-width="8" /></svg>