<?xml version="1.0" encoding="utf-8" ?>
<svg baseProfile="full" height="1024" version="1.1" width="1024" xmlns="http://www.w3.org/2000/svg" xmlns:ev="http://www.w3.org/2001/xml-events" xmlns:xlink="http://www.w3.org/1999/xlink"><defs /><polygon fill="black" points="609.4195467856181,1016.3958263798173 610.3123949140347,1015.8486133928353 610.2231298947032,1013.7795374929783 611.9554015763237,1006.9407402527765 612.0539436659416,1005.2726573540615 613.377398444333,1001.6054167147288 612.2880663860142,999.5815157975838 609.9019579382713,998.0932915190388 608.1217336015453,993.8538047573644 605.0281758371141,987.9476067292296 605.0712382394632,983.5357085895866 604.3544439347814,980.7774409966147 602.1577625006006,978.3672206934093 601.2438213689057,976.5191792484137 601.6428538577468,972.6726172695724 601.3136717572428,967.8906734841088 601.6905489502564,966.2449172876306 603.3687751592155,964.6073826212757 605.9596014193231,963.7135164852757 608.3835083258346,961.5278191148731 609.3309569776492,959.1592680257017 610.8176601062955,957.5101725599059 616.529138751773,959.2248708461498 618.3823299791065,958.8777311464789 622.1060700593778,956.5160780868807 623.0391945116426,954.1473645910089 621.6320545103712,946.5947576613789 622.4222045507879,939.8142727997115 622.2722675047949,935.5875799716426 620.295965608001,928.769341573799 620.4916780275466,926.7547365870848 621.4421964166814,923.8333300423845 622.0123328759577,920.7064321759121 624.6553321281186,914.8591942445856 628.749668307747,910.6793007855622 631.7185609072677,909.0494485162997 634.6975299436152,905.9578785734484 636.5478075743493,905.9794999009921 638.0191161323914,906.7251472460739 641.5179090922895,907.3185841649084 643.5629901295242,906.779504588701 645.2286077823413,905.6942903098463 647.2858047445255,903.1484222663404 652.8438376905798,900.6339307568803 658.3974089993286,899.0307117730688 665.2280611377016,900.0227979657776 667.8163940828824,899.3118032306635 676.3686560896433,892.0472703244479 678.800746135577,889.3193815365939 679.755442956901,885.4682060703327 679.2231612707238,882.3449602617568 677.1174993356709,875.8866503509663 678.0445773357494,872.9365187175506 679.3423529063759,872.0236476608095 682.8372784680181,873.1689890444719 693.0979426182433,880.0923358353417 696.4036497522458,882.1374749942817 698.8145245772758,881.7926501063063 701.0353077632974,879.7908678308926 704.5361630499075,878.7155556284388 709.3251934919192,878.3854077391832 716.1299839069309,878.4341588029023 715.8450406087022,875.6698391045632 716.7895622404435,873.4549582517582 719.0276388355279,869.7753498044785 722.1996493404076,865.7319794692798 724.0792226399134,861.6813361646144 724.849695844648,857.8096093378506 728.7681137045792,852.65568212057 731.9274103221002,849.5325363277809 732.1299268265474,847.5088674837439 730.6709685802597,845.8333812873516 729.0064854649384,845.4551766943678 726.4386673257795,843.9586067740996 723.7023682362144,838.3896059634823 723.1736352950919,835.9826041276343 723.5633558297005,833.029224003059 724.8758680984422,830.6338023720627 725.2625572240667,828.426040666682 724.5475422121883,826.3869632426159 719.9559717700331,823.3953820127364 719.2328342872323,821.3562312950905 719.2969159515152,812.6750107395039 718.4030774823743,809.7041246927556 719.1643700858813,806.2013203490594 716.8019605683071,802.1178275634139 716.6356001224808,799.1625991031308 717.0244691688338,796.578182599254 716.6821361854506,793.6206736920508 715.7845430016445,790.09822140917 713.5910842689512,787.315354714851 706.0455788157208,784.1124293277506 702.0095325292345,781.4924103241478 698.6924195322106,780.3587234918318 695.2709201759491,776.9964174453731 693.6244446715123,773.8487361782027 689.0381950956762,770.1002807793395 685.9374383748755,767.127877641258 683.8315066363846,763.3628781405203 674.9107378629063,751.0032522573147 671.9399841371711,744.8108646446792 670.4385454782981,740.6828466750378 670.3979446079564,731.5341859428316 677.7218010554909,719.6920928214653 679.465363543216,713.7744168612498 678.537908347478,706.9924764919232 676.1353764376079,699.0280329842731 671.9237940358544,683.389217627152 671.2870715343762,674.5377914327863 668.5923652163365,666.572723811736 667.6780153683237,661.2640647691708 664.3807016964025,651.2331522729878 661.6848857675119,644.7502451279895 659.8802201438082,637.6696995787281 662.1593135516354,623.1892503195344 662.4391440211355,618.1756908969664 664.771867297735,611.663859297927 669.7623382598252,604.5546603626863 671.4951109191691,598.937805054142 671.1833942757279,595.9944200169987 668.4954764354472,587.1447646394785 665.2113285135439,581.2432802709168 658.3841487789409,574.7790451330309 650.0749604074745,567.4286381321538 643.2476872689572,558.891243146455 639.354830298205,549.7494345239497 633.3692035301208,533.2457253824032 635.6849255696017,524.9612459384014 637.7442093760303,522.2985821384027 640.980487531094,520.2165688194145 643.6282876425016,517.2514827865921 645.0827299098992,513.106504031246 644.483225883953,509.2754329663842 642.6948593399544,506.03871105533574 638.8489073119592,504.8719897253402 634.1224865452533,505.1794827837608 628.8006819658001,504.6152933896344 625.548677087106,503.4416751139901 623.7673653666831,501.3888568410209 624.0350287484621,496.07305979040507 623.1245657259655,490.76013107662845 621.339032491059,488.1055611890557 604.7783732430976,484.93905027338155 598.5701497316462,484.6638319604823 592.9557189081976,485.2806206994778 588.2315367087447,485.311609187954 585.5586711593867,484.1409170725303 583.1736801399687,479.43132353254293 583.1499746913096,474.113626086179 584.8802116490886,467.0228973627454 584.8545250246345,462.0021729564164 582.1548663811857,453.7394431170493 577.7105711767672,450.52687009699116 567.3227577720947,446.7437097563011 566.4241394218252,444.38106788294056 565.802402639676,438.77520295478666 566.6581515016693,432.2830662393692 566.6401116538019,427.2636355136199 566.0145746394343,422.2401490828163 564.8056760616255,416.937621987095 563.8873799324828,409.8512039949155 561.1982899166725,405.7331301119382 555.5639216701974,402.22644064571466 549.6117228766237,396.9534124059793 545.4197996678064,388.1230492970567 541.8316254635877,381.9477877407219 538.2587862225788,377.843797747361 536.1563375437179,372.83184205740235 533.7602539673409,367.82811308327666 531.0747680182434,365.7807447065603 527.5133898321056,364.3379686286023 524.2686723945075,364.65230008958633 518.3417954238964,367.66068477534407 509.18571030374625,373.0426978314737 503.2638816616048,377.23342658026957 494.9699158076358,380.549469482748 488.7563099972191,383.55473766972875 481.0550100003788,386.8756072985765 472.7527758319781,388.13073640243454 464.74204108050685,389.6742849383596 458.2071924623899,389.4424377633086 453.1545231834932,387.72213270708755 449.58143370512994,385.98178877923044 446.31552117852414,385.12179903648575 438.89642469128825,385.7800018684493 424.6499453582874,386.2036962272741 418.1385885313699,389.50999623632663 410.7349866844964,392.8297742111728 402.75924647223366,398.20456325176565 397.125756054559,399.7219034569574 392.6798441144137,399.1769513557457 392.9614636613616,395.92492013432604 395.8790669640205,385.85962411446667 394.66473844369824,382.0263861898296 392.5643666561567,378.2158132494292 388.4080370593568,375.2866150282066 384.5289783059465,370.5954212199572 377.66808690945334,362.67783184944085 368.44407782264665,354.7732996464308 362.78178188045905,348.0178311416039 358.6093876326447,342.73212993616914 353.25416751152034,338.9269974322665 349.6928305957389,335.99247391925485 342.2920420001555,336.32990223399156 334.31052788866623,337.85544313938703 324.27579142852346,341.75011140837944 320.146053643427,342.950431842136 315.1112654778525,342.0923314073249 310.3788483272994,340.0549474357488 303.83787684439545,334.76984477943006 298.19149979598166,326.52435873187267 295.49263719431156,318.5683429310401 295.1430276075484,308.81909285449194 297.46896329556887,301.1316203905034 299.78941716544387,292.2611415688067 302.4160619553656,286.04450589289763 307.6842661077288,275.39592482689443 311.7617129808491,263.56591773985406 316.16997008666675,256.75315750170785 317.90643304995,251.13193806074423 320.21056687043017,240.49052467865715 322.54065188886494,231.90913563570257 324.8767226844676,225.40689353796188 323.0603565217367,216.85292275084475 320.96634213840605,213.61595593445338 318.2999575141647,212.44305384718382 314.75594960459597,213.0552047403396 306.79553564722875,217.22673853351 299.41293150964805,217.8475044829388 291.4302471522094,216.70000162352812 287.870356236768,214.06218082905173 282.8075428801502,204.92968461550072 279.5293973427076,197.55582985055457 279.5017248248767,191.36182211907908 281.82593984064465,185.4425109503503 284.75659635843704,179.5283413418291 287.0699104045659,169.76813913810497 289.3934174189667,162.0781561745015 291.90683447528363,155.3965487453703 290.18148605519093,144.30072353448043 288.3508012348522,143.00190187347755 283.753476798502,142.04590369285097 280.8112109532417,140.92136127709205 279.7235259473088,138.16166962585316 280.6499271390854,136.69348221208975 284.53329190467366,133.79373605380863 287.30811426486247,132.3400031258576 289.3415059200974,132.18502187892625 291.17868805694815,130.9173990628135 291.75519100033625,128.52938809747593 291.5244999630227,126.38782386911168 287.8793927636048,126.18450362841838 283.14505185040406,125.18614857104512 282.1594999617339,124.29178413404873 281.7649523438841,122.60783472074763 282.2627089178484,119.05936343340738 281.2777712988089,115.50719550741258 279.4989236202469,112.43682251581902 278.91206680706244,110.16101630625087 280.0896883264026,109.08202538737737 283.0518400339454,109.5857300064987 283.2337126662858,107.17379172442679 279.557650728872,106.4093701742604 275.52481920908616,103.79791130282206 274.8047330583176,100.8600198643054 278.1441963925297,97.40672267493085 282.3648698441348,98.53202839790276 288.7893536564843,102.62955650250603 293.55058913923494,107.26173468262493 297.7668795242782,108.9471861340229 301.2694580404681,109.51683541635578 303.2943649104864,109.36032937201207 304.5961423159263,107.52871925826287 305.00996449192695,100.0075969205883 306.17221106263884,92.11602383180048 305.9979315238623,89.36547545067833 304.9169225790696,86.78087537126191 302.1588246277927,84.56914725637102 299.9198839176233,80.6503278023398 299.55180736456094,75.83180499339062 298.52551759396965,71.91421054133548 299.3039992678938,70.60797530026412 300.1057266170001,66.55283996784613 300.01351087183156,64.47545212007867 300.7979986561992,59.829972998327435 302.87277430627796,55.49113388986848 306.62230934395865,52.529361732177335 309.7769210396108,50.85604476568358 310.1783602461757,46.5853402615146 310.17100799689837,37.03803106857731 310.5271022199251,33.713307851211084 313.5040884678885,31.44824490167889 315.6871486838612,31.526969900604968 317.56491214067813,35.857900384291156 319.05044724222876,37.24485367342129 320.62572247817764,36.555938395827866 319.64236976852163,25.790544587412796 318.5533774461556,23.21623132683635 315.19760966436075,21.937047153848198 311.97362179416285,18.87673873540018 307.76226683857607,14.252185915948075 304.63862681694656,13.309032494515577 297.4550751103415,13.065592070566368 294.1439965155248,12.478093982232508 290.28735412563714,10.969064596545422 280.7422606639762,5.9213336633619065 277.98860696711955,5.164688149140716 275.2201418626866,5.314384054863012 267.1239589153748,5.0616386931110355 265.8302481783303,6.138215554201793 263.4097148138961,10.706328431397537 261.8985181424164,17.298549351787756 260.5774007591569,21.499456081499375 258.9102805023858,23.32751475985549 256.1356423591948,24.941414188237104 251.89470564523262,26.370092094058464 249.31650678186867,26.347427693205532 242.68658282037174,22.18707807802423 238.56924534178094,21.916588895545146 231.42322306147022,23.960565023541108 228.06653451274778,26.117851163826685 226.4479658022033,29.909522903990705 225.5852499973677,33.270754147235834 223.7407470232792,36.19628236720007 220.71358733000451,37.38040966931976 218.75726368850158,37.27024936469229 217.47458784462825,35.36592251414868 217.51788822008726,33.798846776319465 220.38891106400908,29.58132039989971 221.0793220401418,25.91252980774493 219.47936105446738,23.588744629619896 220.11186123843316,21.426466416381004 219.7357545228424,19.489147846844844 218.43841746575336,17.54353920825372 214.86255876919725,13.959755277217369 214.54167152395658,10.70104641764658 215.0814419376107,7.560689137707641 215.94438148373442,4.964595148811327 215.6593937686831,4.198219514991592 212.79010725769433,3.3480650435192274 210.19328115871087,3.8736323853428303 207.2398335376126,4.966847310727303 201.87092146690054,6.017448227725026 198.5595702442576,5.631059845549544 196.90473286743182,4.516517712706332 195.0781543134329,1.3751308980768044 191.94716748431404,0.43089077377055673 184.19084717148596,0.5626988708398812 182.7143734427843,0.0 180.4802405425327,3.845997560286605 179.90872050899281,5.673091949008381 180.4425895727509,8.801434167273442 179.5491506072455,12.986426900140714 172.95407200832355,12.985712672754971 168.1978717021768,14.01000948036517 165.92450077786788,15.87133370967922 165.7230583254924,17.93587061280266 166.54909318725748,19.388916682729132 170.26389652420954,21.24563663163201 174.6026909605681,22.690143461289267 178.11197855113375,26.203543934937557 179.0093750039827,29.427829581064202 179.17335777815066,33.79490146692615 175.4532969884234,38.00514473440376 174.88522480519217,40.198730502029434 175.04311461932357,45.339848743950824 174.29135864355868,46.80906635329052 171.8757064610228,49.739022580044775 167.78271883080743,53.9250669502062 164.58971241300077,58.64919732377473 164.09890914736812,60.42556043023626 165.38277775680834,63.78725526137612 166.45925368654352,64.96743953506825 172.9163535036308,68.24473414543331 175.23803806826248,70.82128392192078 175.66316471110417,72.9739148754827 174.29289121786553,78.90581891958038 173.08336786484918,80.97129589136318 170.4185997415697,81.48663693409924 166.28904099507264,73.83326755015457 164.88575889585417,73.11809854948365 162.61867691338858,73.46341595093816 158.19769198720903,75.16185832902477 157.57107633066911,76.45987017140635 157.35924321922545,83.48264837450154 157.9964291879794,90.28963148553487 156.68622363723418,95.33728986566689 157.86703435052047,99.4927337325895 159.91551011691843,103.95202776937538 161.73422060554333,113.38804660694825 161.79675982419346,126.97387540791965 160.1095131852724,144.1090792972093 158.44308322921225,164.49512108347267 157.90715215800844,178.07916093807194 155.29465253760193,186.94908972219002 151.46963609266416,194.06527453135504 146.77298716811896,200.5932618511315 138.51158238539145,208.31934182110626 133.21261758928654,214.27163061960812 130.27146088048005,219.01173265000818 128.5213568818632,224.64136627463233 129.1500676116992,230.8323846678661 130.65985916017067,236.72700660640635 129.52627561702906,245.8883516746713 127.4725728942377,250.33337847571443 122.75648468070627,257.15759832118954 120.11226798784789,261.3114480677316 118.95590387684203,267.5188728394878 119.29875036807093,274.6060043657957 116.6688799485101,282.60340955654794 111.09597946470718,292.38821181036906 103.1381781770843,302.7825124599875 94.87315662378298,312.2965115748158 89.58541584299525,320.3101893313856 83.1046425791939,328.34421737337595 75.73048728045698,336.3692501605725 66.8620623788882,341.4615792340338 56.20073258796009,345.68053733051283 44.95479677800518,349.90324869611663 41.41804002421158,354.3659086654359 38.78382263740723,360.8872684184547 39.13656930015317,372.3956804710506 36.239772006787625,383.9344937024082 31.56157506102601,397.8535304755211 27.447581630500963,404.97449397423884 25.980601051265218,408.2335706874667 25.70657718536082,412.06790528855026 28.396796094871785,417.65523075813314 39.41891912619027,426.14344901831964 47.16188863446464,433.169613390472 53.71521928696554,439.90839467735213 56.119968122306545,445.5038949175315 57.6407876943243,451.69240288653316 56.50274985104841,462.33588535588285 51.506492816821144,470.6458821173741 47.374345926945026,473.62538647510894 42.94260799211607,478.0934204518677 41.17610570418324,480.47396714369506 40.90697157079885,486.0854117611942 42.44554413969454,497.89091749844613 44.86324116206669,506.72447621416507 43.124433696623385,515.0074708195516 39.60871530866293,523.0078563691771 34.61610591625267,532.8000671857682 33.23522384221216,538.2589235840867 33.816427521598676,539.5416057584334 33.12765537373802,541.75027144341 35.05703594372578,549.5297770614752 36.1099949834789,562.2549417762281 35.05345369533897,564.6746843957703 33.057988800376435,567.8205555864804 32.48849746293852,571.2159800342861 32.6789920406172,574.1998075722822 33.65575725914012,575.4349963308873 39.13071568613742,577.5842546871174 41.02306817130004,577.5002082186054 41.70725226251449,578.702858919681 41.39146103927216,580.9975547252366 39.24154098936075,583.4064548749413 37.93247284786645,583.8730510967778 33.854489360245424,583.4659194944165 32.28383195668592,582.8985948244217 28.19854958788857,580.1818260909429 24.222838120147998,576.954268627738 22.023476605330046,576.2172134371522 20.82342039120583,576.7979220219916 19.98396643175827,578.5768290450015 19.794493331794246,584.3561950855471 18.685896524518014,585.274710202609 15.541606029019924,585.2532765226134 13.697418003460166,586.3572098237945 9.61597271456537,587.675065764087 5.5326448050491015,587.7866495702606 4.562715588989522,590.1569495511889 3.957384278137823,596.3204295703674 2.243943780814758,600.4499510498854 2.4094507437581476,602.269863786352 2.0695023874328355,611.1428020277285 2.9554465067958384,616.2400160863267 5.5090455069897795,622.5487265834174 5.949528765407438,624.6581671150356 5.851758200054735,630.0205420684331 7.083851927785145,631.4127726903189 11.664502996683241,633.0111728207376 16.626979503824188,638.2625661245718 17.773171169029887,642.3811548182515 16.85563659684379,643.1485798721052 13.727636022780764,643.606966965338 9.143559629367996,642.31464822098 6.851408365329778,642.7813555356056 1.8772543703215805,645.1534582422692 0.7654144627919969,647.0323847989782 1.4553649237164972,652.0555769234023 0.0,655.3107466205861 2.485937952195993,661.0684104617076 2.50557561553876,662.7145202106174 3.924031980185983,665.9885860194215 7.642262781907623,668.8975888399552 12.12921694715956,671.9891307893645 12.574767214534566,675.0179707611915 12.374430555364285,686.8612952823356 12.780094377442069,696.8809371088295 12.639916400495245,698.4547005314951 13.804536222757145,700.7861170262584 14.514715618821528,703.7571642855851 14.444440745714715,705.7289603103154 12.466473011796433,708.3360507701207 6.820880974613631,708.1363497333169 6.253318826485738,709.0512865218375 6.536147076217531,711.5885741642401 7.4546661423692,712.8554265880491 12.959040033328957,713.3507063734819 14.799157553138242,714.8916750156794 15.926909439137118,717.9903471441253 14.793678039503394,719.0526440591784 6.852698613917032,725.3003021974127 4.663327845686333,728.477382328007 4.737033424796745,729.8887131074233 6.215335022853209,731.7244304201831 11.939155585042293,731.5777120066492 13.25723332300558,733.2574427647304 13.384887468548605,735.8445760382904 12.536073461338628,737.8908287365962 9.568861689844788,741.7660805049863 6.021231964740694,743.6217744308535 4.598916436266315,747.1447879643977 4.394845696851367,750.61967561135 2.5527364224424987,755.7341757761685 1.7368565556544044,758.7926814465864 1.0808019683584693,766.3430041872116 0.5831440326425529,768.444193601458 0.8573032979324807,771.729752895644 2.774069400941759,775.2659504146123 5.833169389635909,774.6834984115899 8.077778185566254,776.2092911464467 13.286762170174228,777.008772233623 20.096630906186792,776.3710961830649 26.907064182628698,774.8446233789331 34.61328620686725,771.8326063371821 40.222205554227614,767.0610797977224 46.42568191897323,762.2862249054292 53.21786121374868,758.0994003640326 59.43767735346365,756.8615525882624 65.3652763936018,756.2236788476878 73.68866607036722,759.6989825081998 80.22192921431062,761.7152000199487 93.02598370441464,770.1816383851342 101.64945163085618,775.4275462709473 106.10244143495805,777.1567299515691 113.50694200358278,777.1044826450544 120.60535359368433,775.27976481062 125.95649166245524,776.7197827151319 132.4799720215408,779.9204873018055 140.51165930963566,785.7720190673651 144.97226372180086,788.4002039786003 150.8998426723146,790.1326794790209 161.54517583087352,789.7697376637648 170.43112711423083,790.6065085086248 176.6491676705653,792.0436291621955 183.16963732310094,794.9657111500363 191.74849187168957,795.7998075003535 200.01685832335866,796.0572354503458 203.3654263320594,795.85161156669 207.91877767275255,797.9477756330139 212.34172894275727,802.4753108769784 217.29761115959528,804.7380209250814 220.97781670109717,805.13923049049 223.00737749953964,803.8686262811648 225.6072031909882,801.1192072596847 226.9192074096546,797.0702237943987 228.48695115245766,789.7833582380624 230.85775594612235,788.9142152122931 233.81968713233397,790.1047898296073 237.2781673152056,789.9199893528045 239.55414424035857,787.2511380782723 240.64122542976008,787.0547928581406 244.09505557073456,789.0388637204192 245.7747525766028,789.2474446985726 247.84321255381172,786.6769886492974 253.6751735939386,781.839781881677 255.8458604092008,781.1524326924874 256.45644566359346,786.0563176671313 257.3401646640075,790.8596625317191 256.3898916145339,795.6576696673611 257.12040071432125,796.9624894951339 260.9600061092452,800.1349093943294 263.8985349735047,801.6422839551028 265.54326750877595,804.0592489088365 267.2725131972401,805.2297445777343 271.14841913120546,811.2449615823853 273.5409064254353,813.1062627500096 276.2952184770212,813.6719728783194 280.16840702455715,812.2206886244185 284.95897282209876,811.504686161891 287.53070697485305,812.9982611331584 289.1901369851124,811.1606127008007 291.775140731684,810.0673489120278 298.03563809558153,808.2587098830277 298.4171763465502,803.8338272949405 299.88761605370803,802.5460918373988 301.7299393886424,802.5509865735283 304.8524671834631,805.7061133040753 312.21105162207675,807.7708203419921 316.9731790711266,810.6536468761376 317.41343240641424,812.5073733303254 317.3022645756528,816.2196150757733 318.17194227879895,823.8663998788955 319.35685044663705,830.7185869144871 322.471664652182,834.0686848824444 322.8259223123381,835.5436909435638 320.9675661255487,838.4857757340878 316.514595100396,841.7834801187247 315.97461891289583,843.0879437852523 315.00064976767595,853.729567961756 314.0741948558055,856.5043058292022 315.00918049796115,858.8853363927191 314.95398831433056,861.1965939631722 316.9517572492278,864.6919606464053 321.75871343511676,865.8867768000651 324.21811182022213,865.8860851994372 327.2921091376026,867.1181563763358 328.5275845050908,868.6619493551007 328.5235047211372,872.8160245693545 330.83506873526204,875.740295288798 332.3737129030099,876.9702046317833 335.6020905663152,877.2827797960728 337.6006653026039,876.2033427641518 340.6738616868363,873.7426105570039 341.1394952411963,871.5876333345909 343.2954013676928,870.0491034451368 345.29477935203744,869.7371441554724 349.35830146698856,870.2707912174839 354.24286241976534,871.7930822078163 359.78037971567755,871.6528061169383 363.42451576809316,870.4329740878192 364.47836733042567,868.9781063886278 364.80750274118896,867.2719982081172 362.7792110710123,862.7446267755108 363.58677056908516,859.9070020647215 370.2747237207169,854.281634183492 372.100636198575,851.7900408799791 373.78670907190974,850.2178960340942 375.8144705547992,849.9880744690421 375.25234572729113,856.1730192759859 376.7207223477358,861.7900060355886 379.0872268962303,864.375843621217 383.47514635234575,870.332867474863 385.4700496901471,873.4891493927 385.4569019120802,877.1828138121856 385.83417671270325,877.7385582235488 386.1696314648352,888.4727171176668 384.6722157759299,890.365298080212 380.0795126377538,891.6901560788815 379.7471730514187,892.9154163416422 381.31152650521733,899.5577459399527 380.3188126907005,901.6071776972683 377.8225930756155,904.4832512875735 377.984789700085,906.2857441509369 376.26594010804473,914.9096531543345 374.75017349607543,920.0354964618832 373.4045788255665,926.8301730369708 373.2085206833021,929.3974407664043 374.30858329403264,930.5013639506426 378.3875602361724,930.1536315723674 383.03559951258563,927.4265312674413 385.2482798479362,927.2493994911675 388.02577988554015,927.9971086240367 390.61456042232555,929.46973143385 388.7244501023036,934.6031081437332 389.6441924418203,936.2686639127659 395.55035946872675,939.0457797842872 396.83233667759004,941.4301639121626 396.0675873893059,945.4677783109282 395.967675513427,948.8753267224483 396.39807417950277,952.2046237856242 397.36844087086405,954.0337890907753 400.927377997942,955.4223036582808 409.4459438224838,954.8630465223981 413.2179872590735,954.3179655012231 416.0176661288676,953.1201247807586 417.6372349610903,951.7205760767954 418.5007917553332,950.1096639899212 418.61033401537213,946.2920685873548 417.2831603381043,943.1502818645382 418.05615116109885,941.8665392905085 421.79708822672336,940.5637842553665 426.3207985827375,939.6460244075253 427.4801697004749,939.7767603273861 432.12736435882977,947.0995313822401 432.38980869496845,949.41436421474 431.6103767154029,952.3771905819503 428.5185959433265,956.2434438404224 429.1443896311809,960.0870437030777 429.1201716924072,964.3140999315781 429.82450827746794,969.4580693359196 432.1850356917423,977.1739871136615 431.9815991082189,979.751505538467 432.89941687183733,981.7754586680611 436.7774502018637,983.9844479121142 439.7311910951588,986.0130090443745 443.79932470707735,987.3116885666425 449.91727690210956,987.5105043226832 456.60982921208495,984.5994091231781 459.76033445859923,984.7866877133686 464.93404417595076,987.55712970249 467.32748876447994,989.9591283054743 469.16762756406575,992.5319848163712 470.02865650424724,1000.6157893030874 474.0764901781543,1004.8524947316457 478.15316665918976,1005.04597591649 483.1635424322534,1003.9551648184605 485.02414973494285,1002.6774984559257 486.15947058320086,1000.1155093191732 488.39482953764997,998.8314422116056 492.4764451536266,998.2969353922235 496.36268817694116,998.3137849555656 498.6048804366962,997.2134728462289 501.04241091917163,993.1858273201484 502.31371163151056,988.9263646454358 504.10873040596476,988.590399181104 509.83174542348416,990.6984981544816 511.46575768737466,990.3716265186412 512.9564459038611,988.3338735601802 514.4552365485084,983.9113299240613 516.6896492067443,976.3517462539281 519.4644013110575,973.4022214355856 522.2692456145655,972.5715652986014 523.4948212939128,972.6814781916154 526.6564330274194,978.8148190025908 528.3161486016043,980.0448437750133 531.2022509383281,979.0191664421694 532.7008014573875,979.0704277508758 533.5043328167873,981.8502155165597 531.7620387184593,984.3158449353148 532.6163732964268,986.1844746497882 536.2069596617454,986.4452187470978 537.9162888904699,989.056223976773 538.2351258236872,993.0103492405773 539.4643347546626,998.0350659644855 542.4085979607803,999.4162397681649 544.3061879495316,999.2039305626816 545.960551154708,1000.0544663374233 546.6615748272479,1001.8718487326996 545.2395100450703,1005.8246327449841 545.2974518153544,1007.0026396273099 546.6832766324419,1008.4954654653515 552.3529177695958,1010.1516840500263 553.368312250492,1010.9979057349816 551.5901376365564,1017.6417339862587 552.1031245070143,1018.9551657663782 553.891321640105,1020.748845415521 558.2806396728289,1021.5247283625238 559.8791891034957,1020.9014366039944 564.3071398353575,1016.8551053991928 568.052417000459,1014.943453644607 571.7977650348688,1014.2723254257087 573.0899320176597,1013.2252378978138 575.0538662734256,1010.5870617016069 578.0470195365235,1010.2991690943821 582.6488610013829,1012.1608161162084 585.3039003548812,1014.0317055722173 586.3883208353722,1015.6867960962941 587.9431417386367,1016.1775656160659 590.3391977063633,1015.0165568613196 592.5453001180443,1015.8186957039622 596.2281005271956,1022.5799169339738 597.1470038692704,1023.6810716358415 598.9897162542828,1024.0 600.0969237979516,1023.1983643939767 602.3054418450392,1016.7509181712098 602.8525045928778,1016.0781464980167 605.3077346941174,1015.9509094990065 609.4195467856181,1016.3958263798173" /><circle cx="436.1176381480656" cy="584.064501548365" fill="rgb(100%,100%,100%)" r="16" stroke="grey" stroke-width="8" /></svg>