<?xml version="1.0" encoding="utf-8" ?>
<svg baseProfile="full" height="1024" version="1.1" width="1024" xmlns="http://www.w3.org/2000/svg" xmlns:ev="http://www.w3.org/2001/xml-events" xmlns:xlink="http://www.w3.org/1999/xlink"><defs /><polygon fill="black" points="195.63487739883072,129.57371226882265 190.5771566059782,135.5359212876475 183.85177929427175,140.24017454539296 177.52466348589607,146.2150274445388 172.89830164747283,151.7489902092094 166.98998411184817,156.02825516868074 151.7771513801795,160.3998765863314 146.6803426549524,159.61056162165733 145.80043116099242,154.9830548523846 147.4612945121273,149.48175770599278 150.79703755671036,141.8458498391435 151.80156457252465,138.75763571928906 151.73884141409246,136.59462092001854 152.8752987629872,135.49024723709397 153.69364802865178,130.0047509008756 153.24844375816124,126.20815338758132 151.5050381484858,119.47543866033232 148.50048346023172,113.59626345799109 140.37841187450556,102.71085227377512 133.99062177110005,98.55067855218533 125.51679939663103,99.06029431125455 120.03785635033378,102.49636147071749 112.85807363995575,107.62694453934307 106.53736491460185,110.23000571305965 103.16923012126075,113.62995200181308 99.03653344472087,116.77971982420445 90.33465557105025,126.2899427022162 86.45815188327336,130.82039530639895 83.15118923965045,139.5473673503301 81.68722854978486,141.55219026406144 77.56105147409245,142.36470335764307 72.26540380548026,142.01268986994376 68.78007517678662,142.80225218953046 60.54875519904921,145.54853134554241 52.05214472361644,142.81977411695516 47.612040626994265,143.71170272203346 45.07774105530843,143.22411850071626 40.28759777876762,144.68578217131017 39.89277319950267,153.53522559389523 40.2130927239355,158.5051872778016 39.27012542553629,170.51683991718596 39.07736381852001,179.16014663302883 37.597601668379745,183.94457642055875 37.08124183615169,190.67199496678393 37.832323193170566,192.7034540625209 41.42108522243385,198.44860815020218 42.06815201799148,203.40996540791707 39.96838819804973,207.10554659057107 35.94750500457095,206.28582231252972 33.299303002193454,208.93958951107857 32.153068728255654,211.25736050490832 9.731448545463035,221.69003527509233 2.9010355966689847,216.06022941049798 0.6378640958566121,216.38809669151237 0.0,219.9373023904211 1.5454422198295266,224.5134571738945 2.6134027030198053,225.66093944990575 9.401776851265579,228.9693579629145 13.934357223300687,227.96740170397732 18.11412059458266,224.96872475301404 25.149034202288377,222.02996348989484 32.512654905521195,220.46396043831896 37.15745072488906,218.3986940999937 38.494999992413895,215.83440465878778 44.159124883295,208.60980983181446 48.03892687500136,200.86642742098957 54.16171434716782,197.3038027910668 64.79940841681446,197.24322448340695 72.0162288495297,197.56795739956283 74.14528659077591,197.01951776724536 78.18152191646331,197.39100423011473 86.12303490844526,201.16323921274886 89.00838430324855,204.1985687054297 90.61786098935123,207.77977534718286 92.59168876889571,214.2882337897464 93.2389300565183,218.15473045155545 92.26916646968567,227.18654242956688 87.74591964422194,233.3256553049024 92.76545972238479,239.49734666477616 97.19351603472653,245.4869824302856 102.15898036365743,251.15479916507172 102.82447373620543,252.8261930368883 105.6998467253494,252.70238626932064 108.88399872949559,250.8920739612313 115.2358093895351,253.9094218829839 124.88500085695675,261.32592816549777 127.59625970097933,262.03125075571995 130.20896596286008,264.23511110443474 128.86302344145702,271.9352208196388 131.92214794505534,278.97698852169816 133.30198632926874,282.8783440013327 138.15944068904372,281.576918518339 151.7570642239288,279.0613931648326 162.87074104188994,281.3129613142865 166.4023615066506,283.60070287193787 167.03593718859364,285.9179364945129 166.3630045165948,287.7590942307968 163.3292642467037,292.319605451974 161.0733876079188,297.4792916664988 159.97613653466817,301.52329989597524 161.0806136247306,305.19907819540134 162.32168348538102,307.26546439744953 163.49897458109658,312.13820491119134 167.98974708148825,319.64124427533585 172.67813164569412,320.66415148309454 175.67769421197403,319.6804274371772 177.91332751832573,317.57667399848344 180.79333246919583,315.86918319547306 182.93765511765721,315.6429058776848 185.28517306207766,316.4779197301449 190.26512757484923,322.1225892212243 192.3995126495561,323.99919986436845 195.78257980808198,323.64952274976037 197.15057916445278,322.2793707481943 199.48621420503625,322.97262628087447 202.37574500373884,329.8915644522079 203.7389377892879,335.755595880149 204.97478498816062,339.2733283380186 207.12673212945745,342.64533593221523 209.8359776921736,347.89730437855695 211.6085589174549,355.9408568235565 211.7299483517896,358.85570615070077 210.73024980735755,363.4602122276424 210.86126722861832,365.27106583345847 212.9803331028547,370.37277522782546 217.9971928435488,373.5030074781874 223.08063064358564,372.29958825292977 225.1421619346,372.9088918340578 225.3442323721705,379.42342150169554 223.89563791463007,381.939034046813 227.09553662606726,386.3502584221828 231.58941175236393,393.79078155235584 234.4281267519135,392.8149976994265 240.930625931443,387.2833629525462 245.99669317683305,386.2670331965082 250.54099049804685,386.88070250903706 255.8668414160321,390.16646985638323 263.1708639226178,387.2653919796196 266.97571271095376,387.2794145158987 268.46094273794034,388.201635709628 268.4544904360045,390.4003154771318 264.73234306544805,398.03916108733 264.0482537193008,403.4152037762237 261.2549183094866,417.1631815726969 257.6017244875458,424.69250581500523 255.81193673209413,429.5689094478606 254.37536075672554,441.6701730153028 254.8055638963758,445.7518065659609 256.2682448826675,448.33760367528726 258.3563937690591,449.3399258080822 262.34907491694213,448.7835868761781 265.742994137442,447.2253902005381 271.3433868087364,442.7730524645786 275.2067759147968,441.49287538115954 282.65505004965837,441.33257096495583 287.920127822217,440.77084083524943 293.43561420832145,440.6624539918742 301.70664805525695,441.32929168769203 305.17335303704414,440.9192924730817 305.99734461564395,443.63129922319456 303.9983886880873,447.97522945321504 304.76383746174764,456.34909146411434 304.7673339400158,462.27886895666137 303.59972652134576,468.92441668706203 302.28967664258533,472.01511043283415 300.9401132070678,473.31606243531246 295.9327559541685,474.26173633695635 284.46994651998324,472.35260245140597 278.6549789496678,470.25424950681906 276.28058947012335,470.0041195149693 269.2781093099906,472.976011497204 266.66949826796395,474.612248415174 264.6742952387318,480.28942879335165 264.67046637135286,482.741955157324 266.25283473555635,486.9601354520103 266.8426264583722,493.42993773218393 264.38718501872586,499.8847949401432 264.8538758104275,502.5382982548221 266.6972099318035,503.5358101115025 270.6775985643163,503.53322014857673 272.7734367050032,505.16634294247484 273.18747059853376,506.7238614396051 275.405150501563,508.4034633825401 276.21851314499685,512.1110692848001 275.8108436468445,518.6781456797271 276.49674028590334,521.8112691118611 278.31651222109286,523.4013272014603 282.70127010530916,525.8152477525796 295.8523056172871,525.2370403234918 316.06934981718285,519.2069056675798 322.40347590593734,517.485948616852 328.7035504376521,514.4974514529397 335.86892462656573,511.506301881318 344.69008255257927,507.2412915671474 362.3730073559799,502.51956402081436 374.5809706433951,500.77876660203117 377.1025589349982,496.908059544412 380.0855105176713,498.60861679875376 381.9878026026212,497.5599773843561 382.6663799903786,493.7196769958024 384.69803986372085,490.76155621154953 388.4294860798334,488.525145088439 392.38532910288524,482.91905299963173 394.76757314061194,485.4928928468588 397.3538429623079,485.5418438858769 398.98680096341775,486.7610143754369 398.57064966665274,492.1383190682117 400.05054628697053,495.0390760459403 399.1013063923015,498.38034427707925 399.6388100052379,506.8926922153382 400.43248834626417,508.5245878777667 403.5067088979885,510.2089149434595 404.90564420102356,512.2587141311706 408.9676995823191,522.6652582543009 409.65849522078355,525.9781250212675 413.09901904606033,526.6717951665191 418.820799082706,525.7837808177112 421.5483736410545,524.7727444228993 423.553551255227,522.0351991450741 425.2405035740947,521.7466007923808 426.70015539230025,522.8737100290024 429.07222428980174,522.829009254152 430.7684992735976,521.6662927155271 433.6085645771906,521.5846803042095 438.256989992265,516.7805275967976 438.8071317375028,515.1162195795273 437.1866782443978,510.8044521833909 440.4168338197803,509.2590163842813 441.7271473705354,507.27834652861674 442.2597179859959,503.26468668950156 441.8605263006655,499.6724672854126 442.6887525799115,498.32863387346134 445.8909843433512,498.77969086017225 450.6881413360516,500.51416734287517 455.90997072732426,500.37219838904707 460.28611712322925,499.364476003483 463.382935238594,496.9848266556838 464.10683281317995,495.42870225517856 464.1545957532601,490.9865902928508 464.93202571725794,486.2210127777611 465.60156575609545,485.1880698127179 470.6893509757813,483.2882425035485 470.19557183493623,474.4608293580498 468.06812723076985,471.12515390846005 464.45009721016845,469.08809918440295 460.6327057265339,468.22723436455783 455.15558470927897,469.9805633059799 452.5002667580338,471.7328643005462 450.04485420980336,470.70445892051424 447.4471424550023,470.570076181622 445.7058547802781,471.3324513035494 443.95331855976417,470.3985518535226 444.8057892925526,465.91001376052907 443.49413573995605,462.68382633752606 443.4013913582876,460.0023598064869 447.4210534571679,454.892567928937 449.8430048520311,454.79906678358253 452.17494845257005,455.78847611854616 453.64113749625506,457.4911297401086 456.8080908785928,456.71881326779624 459.2660223093039,457.0920654521591 465.00807944235305,463.8596688267973 467.51344645848894,469.0031095580573 470.2063956830959,469.4910940313202 474.7515018816577,464.8930261641558 476.6686990135146,463.5357100340493 482.87384106157896,461.496687686882 488.85138596008244,457.4730831324965 490.8079445847087,457.7323893189749 492.88520480635066,461.02606108500976 494.6676546788321,460.310461631385 498.3591857732558,470.7396409954147 500.6899632582293,479.80561232216263 500.70785858685565,485.3030858113258 499.67791804144355,491.01036701763206 498.52019064496324,493.7385390117215 497.0689952966936,502.2991841361571 497.81908551307265,505.35156398259596 497.72569394477216,511.0564637012097 498.23403612960993,513.4328909470191 497.35755816423455,519.1952763081895 498.5831641418319,522.6907308438122 501.20701933379866,524.1266118675162 506.3354105038233,522.9813351063788 510.11430875749016,520.4818873623892 511.13562655790656,520.8077593061342 511.2582717373363,524.9479024822236 513.8601194577644,530.2108832132931 515.3448418687927,534.1445777347268 515.5969613330722,539.6648881050778 516.674819015423,541.964260582055 518.4009292182328,542.3769931770066 521.2667704157566,541.0459655855115 525.7036996381376,536.7072047526124 529.8891760759873,535.068790947124 534.900251055603,535.0684646168329 538.2684295653354,536.4465325565658 541.7905549975217,539.5668441720951 545.5690465171747,541.9644255487517 548.2805235664151,542.112298305993 550.832089517329,540.8877153720491 554.9250186503879,536.0298836799735 558.03584952327,534.7999107675524 565.8749807665098,534.5822546564775 573.6187319137731,538.7518551889576 576.8843611111338,539.3097802976711 580.4183899922883,536.920260206773 584.9706722684875,538.4863080129367 592.1947589741661,541.8097879707415 596.8609000109091,544.2995154760206 601.5397633919395,547.6390016907857 604.9436554180976,550.9875997877557 607.521475978372,556.4481365139911 610.111383645492,564.4476241700542 612.2549908815048,569.4942454633778 613.5706262441792,575.8157199639702 617.0058362060687,583.8058907013246 621.2868259672825,590.1050126889068 629.3679681501551,597.2132839179374 645.835446240062,588.2022617414331 652.5737673229971,583.9285043385655 658.0850223245175,583.8788752184255 664.4631280296182,587.6206771879692 671.2458623500987,590.5214281881493 677.6204241843388,595.5286616884059 683.1704154674323,600.5523166377943 687.4113769606411,602.2005777965571 694.1516284963262,598.7694948145587 700.4859911827441,594.0721950567623 708.9417343589695,594.0044686098198 717.4092019965315,594.7880353788133 729.7116414089593,600.1844205832742 734.8182798012892,603.9427872305529 743.7047288610707,605.5636804909552 747.9494615160752,608.0713658102798 752.130774377619,602.5573121287473 752.9354733349176,596.6395751815134 752.8762165134899,589.4734929421741 754.1163690705395,582.7069129361751 757.8868999404273,578.4698609951434 763.7857002714875,576.3188363465084 773.0619341817727,573.7261465736344 782.7726817686496,574.5197605744662 790.3919369525885,576.5901024101283 797.9811920575337,576.5444368836668 802.6343794069234,577.7972132579882 806.4728100953914,583.2587105146658 808.1881365011885,589.162772862198 804.0060869925735,593.8265426014925 795.1997771700682,602.3043811626693 793.5532115219194,608.2252045887475 794.0150369825783,614.9771158551431 801.6078629972378,614.9405025296368 810.4583759835233,613.2091694133071 819.7534751552768,616.1244147767895 826.5074798182012,615.2522239514864 831.563957035177,616.0714456613513 837.0533150130414,618.5899559370469 842.1300319874276,621.5154209950225 847.2148288407878,624.8767040344751 855.6952535566714,633.2888104319222 860.4057619740311,645.9420317340196 862.593070678722,658.1740258877832 863.0612315694392,665.7666595559886 864.7981226924547,672.9358318300946 865.7007170336607,680.9563268960037 869.5738257551685,694.0190720782433 871.2962261593611,701.6097696108434 873.8872050686598,709.2042057358667 874.7705387176071,717.2175747944018 876.9351360622189,724.3913582137078 880.3544112698356,732.8199051435424 883.807139898803,744.2030471439022 885.0925692222498,749.6913542611051 891.9227942152529,763.1771788184028 895.3546049702122,772.4443238476601 898.3321707643131,777.0866978355518 905.6597480041822,783.4434835634919 913.2063030038697,777.1019391123135 918.2730256714236,777.4988441520219 922.9073837586241,778.3308287653014 930.4833848109499,778.7300393491688 938.0728590547129,778.7109701323078 946.5034193325049,778.2665587171666 951.5598288627326,778.6717227539166 964.6185107569471,778.6304854176049 971.3489799998075,777.7599052171322 975.1317646257131,775.6389703882174 978.8925497831573,771.4076573767173 984.3505622735805,766.7470371719802 984.2873769698155,758.7269074272405 981.7568577875011,755.358081943489 977.6906678502764,749.0042934595845 983.9745055253795,744.3787513692322 984.4523846500648,743.6610746650732 989.7175744054978,741.1377299105962 992.9749138653974,740.0677880067706 998.1070525740232,743.4567252477983 1001.03153783303,743.2456108461233 1004.1003381715458,741.8692218058645 1008.5988130341143,738.5990190125926 1009.8879796447553,738.2071680553117 1017.6490444865115,732.8780562127669 1018.0835213822032,728.0500486864746 1019.4533235768308,725.6437201833338 1020.8999367045966,720.3968135921546 1023.8242831982079,716.9226452667136 1024.0,713.2285278825296 1023.1284951522235,711.0064429149753 1022.5385416047061,704.5770090689897 1022.7146609802046,700.9086455610702 1022.1488742811053,697.9456856949164 1020.0161479009788,695.2539272116029 1016.9968740496996,693.9120071643952 1013.9299741918861,689.527159970178 1009.4353939435534,688.3811836402156 1002.9661147903654,684.130279421913 1001.9177259942726,681.6329867077144 1002.1837468193161,675.1367882972261 1003.0879510249871,672.2870086644338 1001.5840350725158,666.7568921437684 1001.0751055235883,661.5682394071557 995.42380478131,656.8369125290053 992.3555821157139,656.7742111904997 987.1232138731918,654.6601328289636 984.925912987744,653.0122944133273 983.9505773565966,651.281103568376 985.9453546456457,648.3832533938346 986.2399891587421,644.3837282348103 985.4044647427547,641.781830327345 982.4909362751903,636.0065751612062 981.2616844504726,632.2735423682087 981.3900472120733,629.389886661912 979.2290612233621,624.0776894741272 981.1869267178531,621.5595228247635 986.8246539241286,621.6138574238078 986.3560561767242,620.3587827093999 985.3981912617951,610.4478600188709 987.3922586315097,601.0928617691928 991.6902124300092,591.724080039853 992.4704404834009,583.5655517522556 989.439966116437,572.1742472561791 986.0348642133513,565.4461564659221 978.8250992271894,559.1394568054163 971.6353492723414,555.3678635212398 966.1369671716435,551.5938311587154 960.6449570775441,549.4995695509732 954.710962080086,546.5599030380107 948.7917938441867,541.1024721926722 943.2965265613891,538.1556754162837 939.0543600027507,531.8424008707456 936.4879059888301,527.2111874989421 931.8181539752966,522.1592100441679 929.6710244175439,516.2591936309177 927.5261124302475,509.09494361004795 926.6381445161991,500.22421796471326 924.9040399466098,492.6359984646647 924.0084232139012,483.3476594199199 920.9592221252111,468.16849126408 919.240624637931,462.27106887512446 917.0947227793657,456.37272466574996 914.9403941026151,449.2029447515196 903.9202678620062,438.68137277176305 898.8444272203118,434.9024680776446 893.7582917674797,429.00004546027714 888.6392623712676,420.1574293915177 889.0077235949269,410.0275222467557 888.5305005017881,402.01534784554656 889.3327596378264,395.6788212441062 889.1676793833666,392.1335059712045 886.9846782114771,381.5853258371458 883.7045404217386,375.15514492976524 882.9131695439419,370.5390003508731 883.1007261410812,366.04995100262875 881.9718136253585,364.08863039219915 878.4415394369558,359.9475282725144 877.1828594273017,356.7901783983621 874.3394548719042,352.98655912128913 872.4523034336548,348.6000990417749 873.7321995354225,344.3248621850353 874.9767610117317,341.8553091581294 880.403777790396,336.0038737667004 883.5038225246593,335.1939924786375 886.0901052647175,335.27315065905606 892.4082303066058,333.3513736948115 897.7918074313412,328.0998062053648 900.8183592466281,319.7000251068916 895.6022561792156,318.4240319824737 891.2218506556882,314.6033020507507 889.9270878161076,312.3703455984011 889.1436705005705,308.8913065248452 890.6222969133921,306.41808869227367 889.2567453870689,302.1822636069545 889.4936064056934,299.69819306319226 891.9061076954684,288.93027555562173 894.4444408230539,281.22610822685743 893.3990023068201,280.0585744770666 889.5212075009912,281.117746634304 887.5366064540351,281.02232588557644 885.1870133092204,279.60006466701833 883.4839136658113,277.2682783814884 879.6635649428963,273.3468916402193 872.4155523940365,270.8013203988511 870.3359207028701,268.3737869298084 868.1514351206838,267.13835795404043 866.5637226651513,261.5365849893602 864.1270112378493,257.6734356571229 863.9065775286793,255.05449382772906 860.7136479187028,252.3433869033098 858.6434380707188,251.8550802975667 855.1362031187045,247.73159817515625 851.2532998094699,246.44923424637534 848.7070892421166,244.76987817890472 841.9936770289813,238.29924642885157 839.3434085163293,237.7639932496145 836.3732904257338,239.77644154558288 829.5852046855231,243.38109436980278 822.7838689351258,249.00975672548486 819.1704923164995,250.73861990493504 815.8952632107265,250.6370911845314 808.7155163725436,247.7324240238894 806.7019921997869,245.59569245701505 803.525825335279,243.85292791506856 793.1900603553169,242.66200017891617 789.1701438726185,243.0674143902221 777.9001865617583,247.56737967190588 771.4524646632766,250.95288159537688 766.1417498653774,252.8867169566298 762.7532557720814,251.19396095448724 760.9796090496437,249.49303523806418 754.2170959634853,248.61322594691353 751.6381650185607,246.6788091323874 748.8966109311845,243.29112834567945 746.3129704252008,238.8541759265986 743.5956452283938,232.1042311386973 739.261827323221,230.39294983539787 738.5154493071353,228.6387546381933 739.0637316765826,226.40273989960087 738.6462871201759,220.47062864770737 737.5140626793672,219.47074359412193 733.4003930002003,219.73247959190348 727.9750056446404,217.6184299932994 725.7233808021261,211.41373844232965 722.7333613276018,207.58930115060127 717.9317565654496,205.13503082189095 717.4911385193575,201.18129175697084 718.7066641738738,194.24390204188592 721.8132593671743,185.2487811355777 730.117430913539,178.8731985470165 736.4848982801165,169.92051037031615 741.9453596764242,160.84591860199203 741.0824735208504,159.39330885462243 736.2445923058174,158.5870560517568 734.027596511908,157.64282133473694 724.151225895138,156.15947600951995 712.264575838835,140.7702076872913 708.0220567933491,136.58564364774873 705.0122516337361,131.96074649872662 701.160266789906,125.24602259233347 698.1731336833041,121.46896751913516 695.1749077523234,113.90144353465655 695.5513726814673,108.83604610380303 697.2257453747666,105.02797761177817 700.5392187804208,94.87109577039632 701.7693501508603,89.78653871325582 702.5812973517105,83.87417393423686 702.1108174572369,76.28844886123261 697.8444501804798,69.56650506832023 690.6526558066671,70.0499197863636 686.4292892715353,73.04273501277703 682.2412691048617,79.40964981642526 676.7706627238127,84.09551595521589 671.3055644050747,89.21166972842911 666.273558426823,94.74127561527814 660.3707718880815,99.85740643950749 652.3688211129048,103.72638353525633 646.446694085927,105.88337771469446 637.5689823465531,108.07963545218854 633.3218204124819,105.58598869438401 629.9146858759227,102.2401486412532 627.9564313463595,95.50768842661307 620.8545157904699,100.59031190105634 617.4310855746022,101.24099774338367 615.5352548623221,97.70189054791388 614.6796773968911,92.90515582791716 617.9908149692681,84.46708999365524 618.2763397719572,81.48243309280087 616.7836456071171,79.14875973198798 616.7018627375743,76.05119947318417 619.8094045928035,73.05126589030431 619.6898694433759,70.18972985662958 618.602782389123,67.08892043425578 616.5818010687753,66.9739826189159 615.2041138296695,68.0686287095458 609.1110348140029,67.9613592491919 607.0980018740895,69.25382401158231 603.4632216888515,70.10388687288878 601.8489327934477,67.00253626670599 600.4786660657476,59.22425793286118 600.7965361085312,50.27746854610939 598.738459839115,42.705084037600045 595.6706557322574,38.67878909650858 581.3664923609678,28.452654433524913 576.0579346855201,27.64941293391894 566.939829806157,23.566587263239967 564.8077121576778,21.11005061748847 558.9154920681987,11.198226742656175 557.3380653097732,5.438961631906977 552.3064911711385,0.0 550.9361503091612,0.0009979316312183073 547.1863562918526,2.023330721198249 545.1704429966936,2.347171002694722 540.2514758183036,0.1301119949174563 538.2316971790814,0.9801558655977942 536.0170642151243,4.807964990348296 532.1459883559182,9.2050765937787 530.5772156205182,9.530405289383339 526.5337081049353,7.601725483203836 516.6001747065937,6.223707086746572 513.4136879451673,6.225113841101006 512.3329524781716,7.394207942439493 511.9282156719269,10.781226194762212 510.440044090754,13.442143101427632 508.29072652914107,15.316438655509614 503.0683470227972,22.184234098253 497.5171006295683,24.643596978230903 494.210785630927,24.88159349608054 488.17967641314647,28.023681757675604 478.79779628507066,29.422046729184217 474.2166775393751,30.823453610579463 469.2309983981919,34.855338064857506 463.87659699357573,33.592397939076704 457.67957312719136,37.33324551305509 455.6614276365749,35.784627101637966 451.57220710083647,29.188314640518342 448.1630978612371,25.941621107641254 443.1402987605645,26.066803280539602 440.6483990448563,25.679222037091563 435.1769031790432,23.047752818294384 432.45922162790924,20.714224032335323 429.2169811404237,18.731015799662373 426.60797628695525,18.64452702776225 423.29657020236124,20.091725754673917 416.5819887267353,23.92353215016533 414.49614094074303,28.572186065087635 409.0600893006307,33.229283358067164 405.72421847201207,37.8852528738214 401.1592350083701,49.30460296705883 399.51859365928016,55.63867137643092 397.02118820333453,60.718753526122896 388.6472045336038,70.4528758471888 387.27051727128503,82.1029551925485 388.6331839237892,93.52592576114353 385.82007903011163,97.03631598545337 381.755267341758,97.58054835836163 376.84234487964073,95.13543833421397 372.6110921032564,82.24247483448983 373.08835939418736,73.4825160957406 372.65244372512416,69.26307780240211 373.03953867355153,65.89149680729668 371.7191681542844,57.86812492302204 369.599018878762,54.50170022402722 365.79243510546087,52.84014336807002 361.1635725085604,52.862321015244675 355.2931876973475,57.94740851702352 346.9193936532906,66.85299283030156 337.29262975898,77.44848926152815 332.66634849508097,80.42832577943841 328.9066325889073,84.6640763321119 321.34394965448604,89.35105516484839 314.63480136443144,94.02806659172359 307.0383761899219,95.77266048006379 296.9186101800307,97.09778897798412 292.2734447338574,98.49422737396083 289.6815812437732,101.02514583969753 283.4756762375511,103.61975210271657 282.0991919558878,104.92466067585781 277.7781841055158,107.23885984517233 274.3686763091044,107.48044025720094 270.272885886313,109.11487322781261 267.17196681289425,108.68320073065729 261.96786403905776,105.4427386456639 254.72539836741834,103.39064761461088 247.6995394051831,98.83180322911448 242.2512571593222,98.26113708259254 238.35118338645339,96.29563762305645 235.53351412171932,92.06278389894976 233.03588845060338,93.01675935951391 231.83616730593968,96.7516282533935 221.73607075611648,106.5440764582919 216.73771908651926,109.22428089594098 214.13921896179153,111.25899546864855 201.93076798467942,122.77227502007315 195.63487739883072,129.57371226882265" /><circle cx="462.21132856026577" cy="329.9509244666832" fill="rgb(100%,100%,100%)" r="16" stroke="grey" stroke-width="8" /></svg>