<?xml version="1.0" encoding="utf-8" ?>
<svg baseProfile="full" height="1024" version="1.1" width="1024" xmlns="http://www.w3.org/2000/svg" xmlns:ev="http://www.w3.org/2001/xml-events" xmlns:xlink="http://www.w3.org/1999/xlink"><defs /><polygon fill="black" points="752.8522527895749,1022.9538246041824 759.4483059267487,973.025782870766 767.9968607681386,924.5446809671031 766.7669315267826,922.8154820572692 795.4901125973279,788.0547962906084 798.7231436185067,788.1582039420744 822.7547939396026,715.264738844215 766.4433969701217,704.0763071946371 778.6030740599537,629.6405402596588 778.3678706748115,588.9375471657688 781.9161083634021,550.5871637197101 780.4159093239009,550.546665168866 782.6651982719847,526.8955060792091 763.167536860249,541.2336403947515 754.4671953200178,543.6892697110081 745.0032159434081,543.6452851910637 699.0947942627209,537.7046261395676 686.8486981302243,512.6978709493533 686.6891024463666,510.50823410143437 687.7969725781521,508.6221042661057 691.2916586839276,507.1024841334623 718.006221776923,508.21045451707846 719.9158010842123,507.4060341377766 724.0218446785892,466.918128616907 726.6636798393483,466.42708738033264 735.4817938029847,459.5882253288031 745.4920118548739,454.15955178126273 713.8045168320361,447.42193089826606 831.5182696069852,325.85474127973293 829.3300784257965,323.16204582113744 835.68981329764,318.04140393953026 833.1537336353549,314.1570201394818 823.3368813330358,307.2714419228678 821.0894723683866,300.32886434926183 829.3593592627632,253.4785783017287 813.586346965005,225.83508361118538 807.0725023755197,222.13675448532706 796.9484327351427,222.16510881958732 785.3836967712474,224.98382017535903 785.8739671834537,231.86280075340767 765.0697444102217,232.9391662253562 703.8005071456129,217.7503169871252 708.4552729722443,193.84645442565136 674.0704127961316,185.00201536599093 658.9887152117099,186.1977037108038 592.7359144139566,129.56786827074143 523.7208600616574,61.44585348782846 510.83726981936513,32.91007784525243 497.26032038275713,14.172719329126267 478.6014086856731,0.0 432.08940892532956,46.32166259635858 396.809881112732,98.54532756650167 360.8270208781339,158.26622882085735 348.6504608952729,174.71023781312783 337.2453915429823,167.535514268616 329.69292298770955,169.11146517582006 323.6812594068897,213.7045619517245 299.62519169935166,216.54988500825573 276.0682540410153,241.90664081560226 272.92785838645176,253.59428729728143 269.6324745694031,255.36163940584515 265.71152808574374,261.08280520076335 266.63469216795795,293.8002384690657 254.1900793500718,308.8162887934392 241.23689031419562,308.57698775346364 232.38297856937476,331.75780999011533 234.984325709302,404.6754099960333 240.25252130553875,407.7336942216366 280.449892589655,403.43994898099163 282.55483138537846,439.3621876366401 285.1369505233505,455.61264598548905 279.6553964383662,461.1192720035199 278.18583913330366,467.6182787550646 276.33171264666856,471.9619333587848 194.33258303344928,482.2633744932697 192.70082898948493,494.5230060551727 187.42249099007088,497.09889916544535 173.46483009988486,502.2042044231936 157.82533282617985,503.39674148178756 149.4311663325798,495.52852852004605 138.6812073907188,491.940472415399 87.83197754623819,491.4076127527461 36.31185344747223,496.36409668546275 32.766241401679814,506.91405019170884 30.920331656362688,510.4418366915653 28.26499007536882,513.6531738297273 20.3128882116916,517.5465599657215 13.753375086286857,519.815660744549 10.829949098359442,523.8429805002067 9.228766085261933,527.3694798606314 8.833292648549836,533.3765207673757 10.543617192149048,542.1668247255709 13.003972677446127,546.0854654787244 15.81864059349306,547.5024424675769 52.610835509526076,547.3999795231807 54.477242472038704,550.4535774989305 55.66436254029339,554.0588377791432 54.95501513703663,610.966960329964 54.12438159602009,624.651615409897 54.86756372111687,627.7795211887694 58.51577594011323,629.8232134604125 59.4871415251363,632.8596877677012 59.48281665231287,640.7859432321638 57.620490944193236,653.5771056693159 52.444769067675495,663.4125323767005 50.7821014950153,665.4614034738605 48.191075680498955,665.9183800993146 4.000452399922351,662.0851967379847 0.0,664.744664540052 9.342877547946708,732.570963671483 12.638121596938413,760.5859018245055 76.0105614818887,767.062044609645 145.90994624806203,784.2582676084177 195.64931849037978,796.5448155436809 332.11474317732257,830.3019564869214 373.04143724181193,841.1710329276491 396.8876356834354,849.3724867611575 383.7708116134819,915.8024703889844 382.58732042519625,925.970854126017 382.3436247791559,934.7952625504498 382.7689325502512,939.70775834729 388.5472041093655,967.0048660797523 394.2400806392018,967.5044518101247 402.3656056309217,967.4758120093728 412.186793897583,969.0920417310008 454.0692698806897,972.789055345195 472.1737652252402,974.0366882484584 477.5186439826398,974.06112672496 487.03443044013954,975.0643129495505 488.59442782285754,974.8461762150579 506.138411376959,976.0773978917242 507.83584931912594,976.490851026861 557.3408042238096,979.9409112519842 604.1793886339666,983.9910126085823 605.1950155870053,984.5813097541704 604.8290103931976,1003.4643868631956 654.5817638774195,1003.5616598191958 654.4080894123293,1009.9578715941803 678.575237854422,1009.0561623839778 700.8451074870524,1010.108003715846 699.784386141113,1022.8484509280248 729.9965341581621,1024.0 738.275086646923,1023.8078152857488 752.8522527895749,1022.9538246041824" /><circle cx="586.6148285084887" cy="826.5696921110367" fill="rgb(100%,100%,100%)" r="16" stroke="grey" stroke-width="8" /></svg>