<?xml version="1.0" encoding="utf-8" ?>
<svg baseProfile="full" height="1024" version="1.1" width="1024" xmlns="http://www.w3.org/2000/svg" xmlns:ev="http://www.w3.org/2001/xml-events" xmlns:xlink="http://www.w3.org/1999/xlink"><defs /><polygon fill="black" points="967.470878893105,28.168763165616042 966.296766584933,26.926874652131005 965.4796271962974,24.06357506312588 966.258241123648,21.675417983502143 965.4991903129768,16.023991636193614 966.8333308643014,13.157161250644435 965.2988022648487,8.597707605406413 966.3177876328207,6.104234526778782 965.4415976495351,4.943015919329923 965.3295190665921,1.655926759309068 963.8513329951058,0.19846561722533806 954.4071407735055,0.0 949.8736886300925,1.3183502233870286 943.187855202111,1.6216158332950954 941.8384459004442,4.184354743387871 939.5992251318498,5.239270622340314 937.3860509660425,4.829726460806569 934.7855317592071,5.5078983357531115 930.3592108930351,5.234694813109968 927.9304145402705,6.294409988309553 920.6940771902142,7.797738242626679 918.8397131728802,8.497379915764895 915.0931801576398,10.813239907550724 912.292031841622,12.042702065721755 910.281238202464,11.440951846713801 906.598758742317,11.347922176856969 900.7335427096415,9.730855392712215 896.7199876076137,8.156393647773143 889.9290380391319,7.060404778170096 886.0988320452406,5.303476557091699 882.9770518439967,5.041985830760382 881.6705233675154,6.205028806567384 880.2079100313051,5.62116759717253 877.0237140626313,8.12222479423042 874.4497452110445,7.86289190384764 867.4448873302837,8.613175857712122 866.6360494110859,11.824837852179598 863.9218606524446,14.663555605021656 860.7517786329856,15.35215320768657 857.2589705607134,15.182662765247755 854.77471898116,17.4692575897152 851.6481292145278,18.419731817182537 850.961503749944,20.42927833063277 850.961067101804,23.521855323843397 848.9545766420857,24.739187105568476 845.8001930767617,24.58427492671649 841.4329878552786,28.805801487995495 839.5051533471712,30.08245631338434 836.1697564382737,30.480470031340133 834.1071164790728,31.50137681747219 834.2093970987441,33.35006630893406 836.1612385494658,34.923507885902154 835.0347260672306,35.44080335988849 831.9151539393894,33.996177497339545 828.3047299295364,35.17104822245187 826.9404686144726,35.13600101156305 824.2464668656311,33.83408467030222 822.527983456042,35.05521385869906 820.1215594636336,35.32746268059043 819.5043968800651,36.76542372915628 813.9363243370587,37.64785836744079 811.4698960833322,39.38536773101646 808.8562954477952,40.00651968982925 806.3052395403524,43.41144666869184 801.2104767481426,45.96381619451563 797.1092570404605,49.58159918645026 791.0531339423003,49.8789046303375 788.6474597793901,48.62272500109873 789.2315028668675,49.7733019880078 787.7613596524818,50.47621651160773 786.333025763156,49.67042126591571 784.0621019839048,49.5979088748976 783.5490132539092,47.90035247877813 781.9498025261528,49.090667876157454 780.589224937684,48.859709972436576 779.9671710401913,50.00161556037142 774.5142039128651,48.62174099945423 770.6860049099465,49.596151146694865 769.6814549148571,46.67304096238536 767.0608340068633,47.115573405206305 763.8775582601467,46.347467324366335 763.7655500782203,47.40798252115576 760.8667482971581,46.865677626592856 753.980041605795,47.76383489339253 754.508904190242,45.422644030456695 751.6238270531354,47.01366019716727 750.417884452122,45.15741769218437 752.0109558605873,44.31481746390034 751.3509216903735,43.03521048226821 747.5337109513931,43.94803162390076 747.0835082252623,45.413983768866046 746.0138597587367,44.632203322653254 744.4170266681683,47.06067076718341 742.3576894256881,45.93666301807855 740.5840400603299,43.62892852862308 739.6345843808471,43.7516934755007 738.1541544519448,41.7205726294535 735.111571129017,40.49053557779405 733.113083830463,43.440868579850076 730.1500320702537,42.6928656363724 729.8556229065806,44.29678326298381 726.9177570241864,44.62951240342716 724.1874543073552,44.16436484964822 723.4362379386745,42.04712499100947 722.4638913273936,41.87450353205827 720.4286259876011,43.321687663612806 717.5215062893867,43.62063786554825 715.6975981089805,46.74279535918026 714.7439839459528,51.09931266714386 711.7861805208364,52.770797381265766 712.0132689202144,51.51912947358517 709.3211962889671,51.9900493328679 709.6691105930583,53.37276343704775 708.3022454244156,53.86545686101613 708.4153781907931,55.05689139713593 704.9421276764574,56.10118132810817 704.9105770598321,57.07136712909198 701.9455478138098,57.696634535708995 699.9451471730268,58.874452118002296 696.7992657750782,59.54573754063472 692.1422067158405,59.59249229323109 692.5619601945472,57.78810563098875 690.8261219929808,56.50845505236725 689.3183752095093,57.06527530313383 681.9348805135519,52.5268331526845 682.1627585525356,50.84506245484317 679.8907296681409,51.23973154179862 675.1977941991864,50.262767197351764 673.8620190526067,48.967485232717195 672.6799830772146,50.07006679928588 670.6659059903957,49.24741451899786 666.7099079486809,51.7372321707918 663.7167107117687,50.13287473818457 663.0435015513094,51.64338161522426 660.6351445296605,51.90805358339753 658.8118243868802,50.58355459709844 657.1225174988966,51.18557253484482 655.8971631964026,50.296449627082666 653.5566776720374,51.92865760546658 653.3498081764224,53.50908712006844 651.5175294187588,53.43314915338988 650.1157906800441,51.99128835149236 651.2486343024167,50.44909992294788 650.1358215379482,48.583784986764385 648.2760356873828,49.23964047347329 647.0647578107851,46.487232341828644 645.8088559568905,46.9043187554862 645.2940515754278,48.46098535984538 642.9441818774072,44.54202077210755 641.464769876135,44.718241214797786 641.2971934234201,46.74725120743415 639.8601148702045,45.13563866521247 638.5511413510061,46.10846830450578 636.438621769483,45.66193641570419 635.4641574902656,43.47106394065736 633.6044149022276,45.38319395573751 631.2211440884826,44.16252269131621 629.8174874490621,42.425432808630944 628.7854061869728,42.62845338779789 628.7648784489467,44.33149796032069 627.3060071194369,44.46516069262543 627.9566296818168,45.6028761242186 626.0920572331803,47.70068095132308 626.6547982206018,49.181274620260865 624.9374968019762,48.456908074175544 622.9956413587444,51.28727109555348 619.6683254484057,50.75170260075083 619.22712231523,51.685861338506015 620.6780021730357,52.70730650499786 620.5677148919885,54.38396825678342 617.9452426273914,53.59491396156989 618.3676735939262,52.60120126130266 615.6186733941987,52.4843789385543 611.6260828687142,50.616235508549494 610.2511160408772,50.995648875679876 609.7476527418949,49.56668394175597 607.7722916129387,50.03317774717982 607.1001567845867,52.26012468512579 606.1372522764947,50.84512000943778 604.6532587861835,52.82548266483764 600.5439959097746,54.133993016435284 601.7156135681815,55.9592728734583 600.9369342286071,57.21450391347503 599.5627256171705,56.72539516930931 598.9991167053037,58.58473695225018 597.8437054045962,58.52247988147383 597.9621149611411,60.592352589496045 597.0436296854306,61.04270127213806 595.7011477525593,59.68503743441647 591.543691013211,60.47710094576439 589.4678495066056,62.155614527091075 588.8305464240614,60.89948387494792 587.0765985816064,61.65750760923754 586.4749388802865,63.00122299309146 588.2270809055602,64.32663035100336 586.9073796350287,65.67003512773135 584.1148994401934,66.09021534251713 583.4290054494711,65.58382505793622 581.0761120944861,67.55845185360022 577.7628924066148,64.85175381113493 574.9554842047477,67.04346986306234 574.9428437338992,68.36010723119352 573.2530531066438,67.73545422129371 571.9744801410536,69.39931016139417 570.533207635438,68.40091620442115 570.310613880051,69.72101481272648 568.1190659230657,68.41688809496009 566.1473718683335,68.2994869586397 565.1711869312304,66.66335624404189 564.5769896224311,68.10005750148923 563.5809157881049,67.64372042647449 560.8849686029043,68.54669459831905 563.036977115931,70.63509279843925 562.6614366503007,71.66349558145816 560.7060202023274,71.28464880023057 560.2309278363099,73.92305706700847 558.6271912721862,72.63336839490285 556.8750933611375,73.69471879809043 555.8527011839421,75.84631738409439 554.3212099964302,76.4489915712627 552.1392104850686,79.47522374407185 549.5196370582006,78.14196348714324 547.3594412484082,78.7371331353105 546.1056103589523,77.85232520332511 545.326630439294,78.66776994382406 543.6964408842215,78.0359010786774 534.7895096573719,81.8414898774771 533.6290386719716,84.28567229016767 531.6040296556547,85.44865826255284 528.739493961422,86.23612531657443 527.9719956811784,87.75324501332705 528.4276667094621,92.12113525636323 527.9619237666217,93.54528042673053 526.4325226655441,92.87186991195267 524.4363817139697,94.03630852228753 522.7902218579563,93.63013470381554 520.2137664927262,94.85491553055112 522.1651753078754,98.10664008011656 521.6336296919977,99.73932038112332 520.5578652613989,99.64446045350655 518.3144861720444,101.09684667982913 518.1389901712098,102.4606456880988 519.9616374187638,101.85012009004924 519.5537631977096,103.325131669563 517.1567716601894,103.38959187862247 515.8065552400222,102.35809904029759 516.3982912017944,104.1382943914723 514.6392212964759,103.08737198704841 513.0361371616692,103.32453743026372 512.3471429189509,104.48881051503497 510.4232180929971,100.9495885713552 508.40272436974317,103.78547613700937 506.4002792837152,103.63980235265228 505.3038428168961,105.46970972014878 504.5329922668791,102.90644868146035 502.5735609544032,103.41203293714409 503.4113546907732,104.9459523772216 501.4462605477131,105.26624616301183 498.577061019263,107.6984935581379 496.11876957596553,105.91901328497318 494.85248803802875,107.35559271441673 496.0463031620009,108.28272258011384 495.4772913324259,109.78819128939051 494.15674387097937,108.75592757383197 491.80219514558587,109.84178855312291 491.1558036345046,108.98920918596423 488.7028337448483,108.88125096897579 485.14087155801934,110.30676244247923 485.0568038947426,111.95979486112572 483.93467060352685,111.36382389965024 480.08642285615855,111.1599710279138 479.1956471791832,109.37902469027244 477.8880103803688,110.87224520469954 476.25783814827844,111.3440097244935 471.6883471769706,107.9093347253638 467.1514689055446,108.07452325874942 464.6290375723299,105.00662868713141 464.87607113992664,104.00056545767438 462.75938525632256,102.1860223825596 463.4360662110472,101.15674737380266 460.91335981088855,101.79759447252638 461.06825494315586,99.7578555990982 458.65269973912774,98.3158711175247 458.59722507413227,96.32079601113026 457.68122794047684,95.50207518942125 454.65530571759626,97.02438005297404 454.3206360952268,97.95241240894927 452.67319789903576,96.8858404027867 451.5054827292066,97.59624219185127 449.52262534223195,97.10284355443173 447.7105966842248,98.03292505073159 446.09507025183007,97.61732373782706 445.19036208675215,96.03787775561727 444.2059198692812,96.99932996056612 442.9395821804416,96.22980057888174 443.20266933208313,95.01201499943704 442.1649685983058,92.47517080676516 440.45226277750083,93.40773195471422 440.03670222977746,92.56857330918126 436.5129497167005,92.21813389908584 436.94843188820005,93.44554903113283 431.5618000245164,92.97530630318249 427.3096396091911,89.41145456847073 428.4279659074834,88.67405747390762 427.3555205518275,87.76607632387277 428.3109997513139,86.77118303054124 428.60895083062735,84.31386174033742 427.84364102092184,84.56293622685223 428.90884787230965,81.4340253557101 427.8305376990058,81.11709007993261 426.40462912515784,82.50396649456854 424.4928169153408,82.34977669971533 423.17620085372533,81.27398392871305 422.04116469794275,82.6107279439093 421.06922331368287,80.97076036536225 419.4693039704903,81.79528485188052 415.68540642370937,81.86638028746347 413.40754708874863,80.898970102421 411.88154569536067,82.9920987750105 408.26334622514895,82.49257374433535 406.99589957278016,83.91830324920784 406.98761366872986,82.08528651060635 405.92585183828254,83.28807497623222 403.6302836928865,80.85038479535308 402.2887669327553,80.9896868070847 401.341779812627,83.07375428428486 400.1393347375704,82.55012927447979 399.50353494650545,83.84922124536729 400.247735397126,85.40659375157145 399.9665663588035,87.56965286874572 397.3918428505964,89.31174822642288 397.6921947327163,93.48407253614084 394.10134144839,94.45369029713981 393.36657113437167,92.5669603652774 390.0658831401592,91.41615201287811 386.86434369411523,92.03390446990795 384.76653825738634,89.66885538879069 383.27043158965444,89.98835139592336 382.48905373172937,92.16991993553268 382.17665955899264,88.43712567638227 380.2702076318223,88.11180889193656 377.1681396495417,90.47159925003848 376.5737456583333,89.27195745392555 374.7857442995563,90.00536251622543 375.27264621385615,88.70224036913578 371.375545913035,88.8598299334293 370.8559152305586,91.31052943004818 369.73087575304373,90.17197952614231 369.3403604797794,92.27166927613621 368.3875680203195,91.75453197020579 366.197681779578,92.5602946120265 364.9369845040911,94.39911113088431 362.9137568416055,93.25072721730567 361.2079345422613,94.24776539948812 360.40205708509365,93.13479287665803 359.53794084143976,95.38149252909056 355.08025770455276,97.26130261940693 354.18489733061864,100.56350627953543 352.14918011615214,98.50224959350965 350.237687778426,100.3633009363241 348.0353223468409,100.56893741533054 348.8547206148849,101.88508782965926 347.04239715228965,101.39265377555091 344.7944097718999,104.49493116638439 345.79966228109527,105.63051310731782 340.9172970713087,107.99580563940651 340.71744577786444,109.68806459771031 341.7939544506573,110.7599207313142 343.6629760555632,109.67428721499232 343.08013403558476,111.48997383482583 344.6283663872046,115.20338020502197 343.66458214891253,115.71580055468917 345.24089966206094,118.48302943643307 343.9954308851473,118.71672906397919 343.77947116246276,120.95809345245357 341.38427511442933,122.94125971021276 339.366842159462,121.57212155442221 337.9711375377561,122.83157236739203 333.7315651360252,125.34324874143124 333.89460587593555,127.58809202606255 332.059407897059,127.83695611572261 333.39567634057886,130.61584050937324 332.49345017413754,131.72988034281911 330.4467367510235,131.3394688536447 327.70657428382117,134.12403431042674 326.2096524597855,132.7437217136552 324.47480413796916,133.6127528718257 323.2620656189949,135.42785366480086 323.5994210962932,137.17102151322808 320.82735567536446,137.32461463960965 320.6121891026067,136.15987121998887 316.93987714530016,135.03589631386137 317.58142402560804,136.2977833423938 316.71754076166206,139.43369325526248 315.25257247897457,138.975810115297 314.02443437260774,140.61286932501798 313.5868863174804,143.21196429564702 311.04591096539514,143.63467193731685 311.301330118677,144.78322929015496 308.02484567086003,145.73322809731678 306.0909148544151,145.23475950973875 306.0497975526808,146.59538799427423 303.986292472866,148.40956350588021 303.4194582044872,147.34458985267975 302.0726922497302,147.92900829073392 301.8836404114427,145.59015737448522 300.51706142594685,145.83564394418363 298.0502241706107,149.06708823741587 295.5551526657627,150.26782713219313 294.8301673343723,154.06001623185864 293.24165189563917,155.3483347349902 292.3136294101938,154.32166138680248 288.20312690910697,157.67218205938332 282.8216714821982,157.4735186807236 281.84344750600735,158.4079916186563 283.09133295154675,159.12285441288168 281.8683198678134,159.88116118574294 279.61512268809685,162.94097110084726 279.8771116413702,164.49703505322293 278.25702188450424,166.4692670284794 275.3722591235782,166.00826898628497 275.35854360743656,167.75070454421257 272.91531051149394,170.44962482240499 273.19342900271675,171.49926651818794 270.55355444898737,170.84200017463706 268.77331595970327,172.4881609641351 266.7254302801668,171.13847403928014 265.1856649016445,172.41876607480287 264.3605908483676,170.97212935685502 262.9641070825364,171.8341666888016 262.6291476776316,173.9301526502669 261.4412063166342,176.11015079495928 261.7399233009294,177.4396764690233 260.24090508827345,176.76689982154505 257.9934494320794,177.6614807457338 256.5785418954006,181.0188582736737 257.414270359025,183.406220302488 259.7069331013364,183.341846702181 259.97311132304634,184.0955479505128 257.9733729121467,185.37879803924454 258.32884205071724,187.11626521413996 255.90376024466318,187.26079337410238 255.02471612907075,188.5109947064526 254.89691778112294,191.66417884511247 256.15437857095526,192.06784188474 256.8101005244657,193.82339416094953 254.86541018325138,195.8701668372055 255.4190532856159,197.3685845152089 254.75805255721755,198.99878133971288 256.1299584418122,199.92169309852204 255.44646646538445,201.30595365670524 254.2734732217197,201.06583192730614 254.52221217921354,202.71662934375934 253.38855282306037,205.06005678670294 251.4174571509128,204.74456680819958 250.5391761022685,205.62250279754142 250.1290012111193,210.1055305108656 251.78020673393524,210.74162108668088 251.9038463392761,213.52266083831546 249.55764733823455,212.69619337792176 248.55821145550254,215.53518967207617 248.49341010312742,218.88614469541108 245.99291917091097,218.51998859945786 245.25250848279123,220.114642265856 242.09247747953867,219.07524862032733 240.1384867009805,224.8745983985781 236.49882931723263,228.24977314274827 237.13309649126688,229.41359206428297 233.63444504004656,231.4630614730736 236.23896274742438,233.95984484053508 235.03344845429257,234.39587864473162 233.88358948581427,232.77568394191962 231.26585462632966,235.76786890356652 229.50900350973725,235.61055211214068 229.96446015533482,237.34557990514793 228.92092014297918,238.37984980314025 228.6711656153582,240.26124458640174 226.8601681256565,241.78786425437556 228.598577100297,242.22385441837446 228.30058877012158,244.0533146326096 226.91191926257048,243.32304402630746 227.35217877103167,246.80247303019496 226.40059297604748,247.76400356629028 228.0401509079263,249.11195090590252 228.3700431597607,250.40194986801941 226.41398597823596,250.17912235750157 226.03183144049714,252.7775241954373 224.36838010171493,252.80138616146996 223.76981140612784,253.9853906226149 224.99681449792467,255.08381396321988 224.3479487036213,258.4957778444598 221.9833192237941,259.7846628588942 222.53072240303803,260.8363556332041 224.04813668031068,260.37653978905996 224.93686947901693,264.244370357453 226.4558440863765,266.2670695813963 224.8767937918247,266.1404851968929 224.82188763164945,267.56274356843255 223.56437977906864,268.9895387212481 223.92750799717194,272.07006262885056 222.252494642961,273.7210930059762 223.7321562888986,276.6596308938274 222.51468399257445,279.3420400315514 224.0252439774659,281.00100634926764 222.54819248996273,283.3368865826493 221.69777582578988,286.77830211837806 222.14773892762975,289.650258892035 220.77766948557326,290.819471653002 219.947533071701,294.23630665921894 217.50850417966626,294.0318275711071 218.84574735459702,300.2065365606767 216.64858444911874,299.6365082312043 215.28552646252203,301.5018238963278 216.0109115945,302.33917733050885 214.36504240541916,303.34727673459156 214.7018736068867,305.3519943041 213.01955702656846,305.60375697715585 211.242905002128,306.9381524428612 209.74038696354094,306.57611711620655 210.3564328744838,308.94554603309973 209.57490825982023,311.44968962953124 210.35604300749117,313.67122309881603 208.6709243995849,315.25565839406244 209.25837432338372,317.2684198620315 211.34700568097765,318.1328599794703 211.2188941848838,320.5638308125496 212.1659349431112,322.01996223518404 214.44764535359084,321.53233216522085 214.05379817014995,324.14193094436024 215.07152275918122,323.36004775123513 215.45104512158605,324.6700971141131 217.71346215123447,327.9583331558362 215.39456060745076,329.6081761306735 215.74423178078794,331.8594890958293 213.41463177903444,331.9385446892412 211.86541995676754,333.63697285918164 210.80045033661017,333.06890964562683 208.6623474537023,334.6815834502213 208.6794271267975,332.8907341458362 207.63720180446387,332.229299110873 206.30004550456616,333.57858413178934 204.17804845064924,332.1778098202734 203.68003626696867,333.63046770375973 204.4218991365694,335.2158790568128 203.07576551708087,335.588640445953 201.8178432487367,340.0985841789579 199.53714030969908,338.0052515158072 198.25137031334378,338.99150829610227 196.44870568936082,341.7011568267979 197.0842318694156,342.84994612634335 197.00740544063453,345.54720059625646 195.7265768004419,346.372647895464 196.09154095572862,348.761305534548 198.80517891123088,350.48769951043954 199.5325060987688,348.4734106828359 200.67246612210178,351.4054964920459 199.7967928230022,354.3146221454507 198.04224587132026,355.820953040428 197.55531434296543,358.1667192914195 195.9552934714971,358.9305602837916 195.76619249121268,360.4357423415129 193.20402668642708,361.77152100316493 195.69343347077415,364.56101390191617 195.06474452825353,366.64726081559206 193.36638325321567,364.8176932501063 189.49777921200825,366.5018983788253 190.26215591107686,369.57622986546335 189.52944804395887,369.88316013086285 187.3746050408152,367.58886726409673 186.88846396633855,368.04040638615015 187.381488608104,371.12250019502113 186.770638171554,372.623734325011 185.50603030856317,372.61679155127365 185.2674863240779,375.3359641446509 182.55521373897724,375.68926791592617 184.95837456884556,377.7552520149961 183.86163974114507,379.9968671365379 183.1568901933034,383.7633965264247 181.06916417396255,386.2278304844567 181.42487982432388,390.11400054530617 180.93929335136676,391.4748009967263 178.29241347028068,390.71815739528995 177.1330905484916,392.70267494728256 178.5979475970312,395.53818711101366 177.68229287854547,396.19674262419477 176.19198308450095,395.07717079743566 172.73936316680098,396.8523018288314 174.64581470375913,398.1464267021397 173.88961269538396,399.78725366796476 172.6689097943879,399.01660874099724 170.73687998954443,400.0423151011783 171.43385708301065,402.38479038780247 164.37597147165837,404.41603388516336 163.8227851180745,406.2766437236324 164.6835772645455,407.9110994949652 163.20752640897433,408.80604594583787 162.82075107151988,405.5807777496406 161.74723994118133,405.23929082747793 159.00604142758556,408.2437775316955 159.2203335352271,412.7478949161228 155.12967897791683,416.1335015178015 155.02208508057177,419.106059377419 156.86500513196214,419.30232554334435 156.95629071932825,421.4147575491919 155.31763310876627,422.0327320296286 157.19715572589837,422.3406951581513 157.34726210902784,425.1094049293878 156.5096736896109,426.43423317980785 158.17844115110785,429.49900652310316 156.1698091773867,431.89150476707306 158.55231269435853,433.7213938830208 157.8720327411616,437.91793558011875 157.04491714711435,438.3163726748474 156.79568863012258,436.0969799441187 155.96764466135733,435.6015747948634 155.20467879063028,438.0174860245879 153.61390389568564,440.22781017586505 151.88285488773417,439.3711081342365 148.28184318936644,438.81914316016537 146.1393625253688,440.373180944532 145.4711481470699,443.873006343343 146.32869729925372,445.61137412608565 148.46102383198175,447.40824528310435 149.1763113224055,449.2106927952698 148.74621931235603,452.78625211032005 146.83687618216317,452.7494676333277 145.76084824193953,455.18984109377334 144.26913020600347,455.5913553010931 143.63868362842453,454.5923800054475 142.03450797675038,456.87950945515195 143.30314568864245,458.96305400334904 143.42764361537175,461.89480605791493 142.30839911081938,461.98576787097994 141.88960962236848,459.4271947071117 139.8505804154544,459.65731277811875 139.33204071085308,458.30427328745026 137.97084606108214,458.42104922350296 136.88148285838068,460.03584482268553 138.9448367384546,464.2233312947099 137.7002844168152,464.4544882026293 135.84276737314437,467.9845801155528 135.6712670634473,466.1825457201698 133.92054775363627,464.0730960130935 130.46866180871802,465.0479097439886 130.8125794680493,464.08023584424063 128.54162280677687,464.0045817488091 127.24673783532559,466.03889611879157 126.6741808557974,464.81090828124496 125.67532968182667,467.01599225614405 124.40716014252939,466.72642825199483 124.6333966575585,469.3049322299946 122.10422319756671,472.4292228447277 120.99609492188945,473.0649335965773 119.32127539542127,471.11843522069336 118.64878032081445,472.5607250384596 117.03079479494038,472.81281142625204 117.61726072814588,477.8289927585523 115.90916170157867,476.8526545447136 112.30377542051214,478.76637945476654 112.45683046399355,481.09529399179615 113.4592363030995,481.49544467761905 111.67336861572548,483.4363341103595 110.38185742200373,482.0472734577943 108.97128079064892,483.29398034957563 107.97144713419223,482.8172423176796 106.95277235810839,487.3557998244099 108.31950059942476,487.70822577222526 108.523064470861,489.4348913537455 110.19077099702383,489.5249888025354 111.40700775761194,491.354545824629 111.5599401248014,493.3945576640795 108.20129818243363,492.7027301774462 109.36565106076306,495.7995934925931 112.30046893121006,495.9235337342031 113.97447779903437,497.0102938200257 113.46936244931874,499.77853886510695 112.2356063315995,500.8354664771438 112.14551428046965,502.9274061767073 110.63840068892827,502.83407679441484 111.13315126603874,504.2816167615118 109.80512947720996,506.6654041565342 108.26417644712873,506.67266512617135 108.12771309349783,508.9423917568604 106.44656669078225,512.8129797715014 102.56347230830119,518.373596386602 104.35614687358012,521.9444888046544 102.99331525903747,522.9542240202635 104.9114528141791,528.1919178466849 106.5905803321028,530.9581044402144 105.84994852227004,533.8056167383236 103.96541852328981,534.1337422799579 106.47766265846693,535.5058383711654 107.33569227275864,534.2473096516674 107.98493436435876,535.3093722487399 107.59947581212319,538.3898877636876 105.23586581389037,538.5749471118554 105.45777259214009,537.0817258707607 102.84129441271502,537.8970161737197 103.39322365367161,539.1429577578926 102.80667677077588,541.015526765427 100.84284789071839,540.6932877870465 100.97852142891702,542.3430245811671 102.15967302499827,543.4657793329901 102.90892129676837,546.3383240918067 100.73747970052108,546.8020977876645 101.40254799099347,549.7823379576137 99.04174125175231,551.0588404766088 100.32329054769114,553.9833422001111 97.02027277239233,556.3108084676859 97.43325158725686,558.9936738371064 99.08347104350779,559.9617173447683 101.65058909134973,564.8316352710929 99.08922429448798,566.3573455005417 96.94157149580924,568.766527094639 96.5609825690283,570.7836753649561 95.29947049945855,569.9305252869046 93.70158244816353,573.6465969684717 95.64820894954516,574.514246556117 94.84467754790539,576.5170714854899 92.56249552028235,576.038404584949 92.77211177454556,577.5898444334355 95.01300750026604,578.1000611596927 96.79950430489981,576.540559690311 97.37347120410637,577.1649000057315 95.8464582587673,578.7855512662983 96.54366164547508,580.5318391170351 94.67469757590658,582.1234479871401 95.74861149057732,584.3526759242408 93.56295243024131,583.9975530283529 92.61769657349971,585.10850777354 91.89968361213676,583.6852549423089 92.06194198566708,587.2389400378056 90.16912811636627,586.5436334977485 88.97929536499021,588.6282840352144 89.65562682494148,589.1970449933159 88.9643029874687,592.3388365121301 86.5948547832868,590.850691474668 86.78195564708243,592.7513654681729 86.10901950535482,595.6378193626351 87.35779511393476,594.8009706459029 86.59245227580506,599.220872453455 87.9880934543826,601.7859516687558 87.5199661879826,604.8684177838637 86.4866893415593,607.0775946010995 83.92814380603512,608.7579063520703 81.23143912432121,606.788234799576 80.27112248727741,607.1394016604111 80.40011268840351,609.5587202256581 77.35296619722433,610.4794582602754 77.34014417270089,611.7257473583973 75.72681701527684,610.5266578843425 75.97641724988114,612.3703825555033 74.67481623525556,613.555161100835 73.18666886756405,613.4102051696832 70.90788092644762,615.4485003162503 73.18201024131788,616.7905708807334 72.36886384170768,618.1451917185984 73.35253579228043,619.1861367058707 75.72888697488062,617.5436975527402 76.66380684834948,618.2329348152368 75.06733936783516,619.4929706045998 75.89055708428565,620.8017644988379 74.99567257924267,623.0591091160654 77.02994993281087,623.1712630840334 76.73681370306898,625.560664509035 75.03410365372706,625.783638714639 73.31467970729065,627.3642029742002 72.78225053778277,629.0706600111694 71.87396734621167,628.4675881550695 70.15669817320803,631.4654904679916 71.1688818140805,633.148253147138 70.38073088248365,637.2977087548383 71.87166208715617,636.801982429338 73.05541337721135,637.9011356542215 71.64593181779247,639.2625063793556 73.24695512674126,639.3773879107961 72.55349364991932,640.4724265392009 72.86540606773882,642.8573029449954 70.67208035866472,644.7211685411112 68.49505794438831,643.44250597526 66.4044255173218,643.4648267854752 66.06100859703184,646.7065700179486 65.09096527810271,645.2558997076378 65.34612569840912,648.7072428529872 62.52016769401445,652.7953294342435 63.3579643259343,653.9778004949773 65.7664703296216,654.1119071096869 63.47161694023415,655.6559782208341 60.81509712150596,658.6320214269545 61.529947571223005,659.8519731645738 60.656373902352996,662.3599891525719 59.29493718691668,662.5865120265491 57.564781232610606,660.6306085477368 55.91519782803296,661.6159005519391 55.668501252382754,660.2908390129381 54.616593315869984,662.0916851837129 53.4720590000547,661.8989746395044 53.480926850443524,664.2657777457882 50.584078462141164,665.6867301491271 51.3378427263333,667.2513723011225 50.25832316463468,669.5553209936262 51.46148924408488,669.5116278004601 48.38898667100286,673.0708992118988 46.99035160774411,670.8856933427243 45.95237996664469,671.1066141414752 46.44593021471092,672.8843156177996 44.359260413859765,671.8976932829024 44.220820150398275,672.9690181509769 41.094352957123924,673.4158998295775 42.40997783584509,675.376377873298 42.76058243182802,677.2092591336175 45.19613269852721,678.0461332878716 44.725775196158146,679.0894612572594 47.54017288333066,679.1957685261419 45.89172549033829,679.8395684353678 46.424469777396524,682.5328426301033 45.0083763402541,682.8860738183063 45.81740789459326,686.6408245493765 46.66122144477808,687.9439703717999 45.17268725857641,689.217652486765 43.55781423145423,689.1703514203105 41.83129377745789,687.3827698806065 39.688355085994665,688.2835749269163 39.288615599170605,689.5939913550127 40.39143372585338,690.7181753169167 39.57957752787713,692.5717195479901 41.78774204514418,693.5714279890967 42.50849710080912,694.9304719113668 42.36615059285552,697.8669450920659 41.30333563472508,698.7869133778139 39.827872001009,702.5670442051631 37.20436198780985,703.3308608758147 36.01975263756845,702.2289824860833 35.59808351376225,704.1639370883261 34.452110854465815,704.8598379451878 33.809320867393076,703.297867219031 31.40669342242571,704.3686766729419 31.455445803372488,706.1581296049644 30.43930463838855,707.1910190328292 31.23060256928163,708.2540826379447 33.469328475107076,708.109236008793 33.88830084796151,710.0143578817988 35.53477120424832,709.1739970770363 35.647580313944395,710.2889624291395 33.863888520869104,710.7144491555989 32.40753361740526,713.0505377964714 29.186154994961143,714.6996021459241 27.98633919786969,716.9068829244261 28.69913004463082,719.6696659766577 27.385175494785965,721.1031684926706 24.842113606612727,719.2351107005802 24.18075954796705,721.0772575776989 22.241421938659986,723.0364905297502 20.13028346284395,722.6967462142248 19.479639554215687,727.3963554397264 16.65233144043208,727.8621875113836 17.23921415114119,728.9948569359555 19.502128913256154,729.340034062447 20.038029798319894,731.3608804382906 22.109457136859653,731.4073922558173 22.21525556345623,733.3025993074425 20.7852509619972,733.988286738758 21.12918070358978,735.1385505209831 23.738604612868247,735.4355703661058 23.685670956921584,737.23019651175 25.947145134715893,737.3433059287577 25.681173548764605,738.8658022138219 24.29000563954499,739.6130600952134 25.443990476457454,741.0233550771105 24.26814948360743,741.6753839617272 23.319098124865192,740.7521439638969 22.3206058462586,742.1287419559611 19.688342880412623,742.4726813527384 19.34312810047763,744.8309947022485 17.034270741438004,744.6044595714991 16.155666374783156,745.9948626002133 17.198574860784383,748.2827167873692 20.435619169920844,747.7109428862204 21.344925576497676,748.881996723512 23.024384363852835,748.8807485134487 23.561479636087764,751.7498777867327 22.38966951450985,752.8470199843421 23.708202527844264,755.3586271575622 23.0707674024183,757.9646071238263 25.459485319840944,757.3462900584086 24.93360898020395,758.508737199588 22.578308391591182,759.5906533519466 22.28476886175894,761.0443082992236 23.773020479373436,761.5928008291554 24.060221771650607,763.520508032586 22.244628318546845,763.6285441338192 22.537467726447385,767.9879483301785 25.237794242444817,768.3306230047266 23.765037934328973,769.3416711567316 26.162812068303992,769.9393449716345 24.392338881623324,770.2109518085492 23.142988309935614,772.3767082754281 24.624756336795098,773.4048235493169 23.267706740810304,774.3074516054903 26.620322148220342,775.1013672641758 29.943954699766614,777.8892434919644 30.187598500220357,776.4163686213931 31.966804444322225,777.0600459119142 34.24383679018724,775.8983589380089 35.288238917706,776.4310450701452 34.19471219918174,779.0649003618781 32.28640181530161,779.2127532628856 32.307246016284516,780.6521850371415 34.01579526553623,780.1289797962222 34.19796006184035,783.3384632685501 32.78933758948282,784.5400884443842 29.99775498749777,785.0594612629882 28.91422206224029,784.1995672182663 29.384662896554428,786.6658488877642 30.510758181206395,787.4671039197557 29.08242849731741,789.5327303634733 27.450383756718118,789.88686696596 25.578772101961224,788.1171708237295 25.39576971869276,790.1660857273913 24.46592141120807,791.2649844355008 23.06867634736655,789.2461335042618 22.002336133732946,791.6664765393442 17.992026583117706,792.2715134271205 16.794177716005272,791.2105479954237 15.42425508624968,793.3127915430692 12.617705881205946,793.0677508615336 11.667108591156431,794.4827379451422 12.10684619353629,798.1047496620705 13.896973456415669,799.6064273733062 12.620591513600088,802.4923478278686 10.067401630582813,804.5528568604507 9.717064189435566,803.2724131446638 8.149839360601018,803.200712131923 7.126892665679154,804.6460461440537 5.826976225827653,804.1803899324367 6.149134678477888,805.6741317390184 8.47910631269961,809.3899826534798 3.772371448324907,810.1662883779618 2.336456248076013,813.2441482131267 0.0,814.2919552936438 0.8670620398704689,815.5568201950744 4.1676850439098105,818.1767310211467 4.594750792813038,816.9828359783726 6.39687686772956,816.4462978930871 7.259554029648924,817.2571621155839 8.387434217902387,814.8547359027094 9.650227109747663,814.9505917136493 10.64276465209627,816.390325971738 7.438220775470604,819.3808483983968 7.336852407627621,821.3909275204347 5.3566104662125475,820.6695972396304 4.952239487423159,819.4899865158355 4.067246488115801,823.6159800929189 3.3517569781009575,822.356538076281 2.0197818945658224,824.4947459224956 4.826542830740087,823.9171481496948 17.772751300574217,822.2036187024847 35.14038796384598,820.6231206132909 47.19763254966101,819.9437445096646 55.37121225141279,818.2103931657178 70.42391991798557,816.0860578414988 102.07984746647676,812.8603454963268 109.42614092840157,812.4287720602862 114.27868424728631,811.7670745129489 121.41188884211722,811.3267510165417 138.57888118436279,809.6900264710777 145.8174510027726,808.4956898516306 153.6873793622525,807.783222678512 159.60658390663042,806.6469333376157 159.85762485880727,802.0207082219446 170.67160360807821,801.9494671811227 191.18315384514707,801.2685625120732 193.92656197159627,801.2779841535113 200.71370417532376,800.4825198849882 200.0223959555268,793.5148386650715 202.18787614481565,793.2060958791336 209.56998871646485,793.7377820865978 218.39435015569575,794.7593037649945 223.34350952300707,795.0850844702701 232.34746971701102,794.2333344451043 232.09243867698936,781.5447653087381 231.80013279297745,757.3470460975275 231.2764348267306,731.85385603962 230.72007330307738,718.845556368834 229.46212841182793,698.5100047654123 235.7027305984895,697.2934548809345 241.01846643856692,696.9112243439799 246.33785680709647,697.3737531857487 264.3689789415198,696.3961272585855 264.9560856041687,699.0037785570462 273.3635216586435,699.5835107848195 279.69542225979507,700.321323050163 291.5726038441266,701.4221687442964 297.1063969388592,702.167879203882 308.3302214999214,703.1765586341102 308.6109970975339,704.6037488202528 324.7919681686003,705.045709973577 329.5941467944929,704.9126623304248 331.5456308629961,705.2166682379734 338.7779123138408,704.8801815400612 347.30207508891874,704.2378280596878 355.57037726479825,704.4066414550194 361.68688293053685,704.932397497647 363.4788835707025,706.2143050230479 370.55710283043845,707.047446651844 372.3412901277278,706.8160128555137 372.7779953041569,700.3246136636055 374.159578342398,693.2455430741269 375.60953611755514,693.3980211890789 386.7012025778318,692.2151964809376 392.2915169153961,691.2776918859902 398.79920093332265,690.7673148581124 405.33907766260745,689.8044525230054 410.5955157273389,689.5990380228666 415.57671076008825,689.8729680049762 419.7186752000025,689.41403512177 432.66106823288186,688.40980594433 435.1866253374072,687.9744859192182 444.8063930430248,687.6958335910651 444.1598013146297,673.5078849915311 448.73678379615666,672.9644419510221 459.08480012955374,671.0041178519398 464.9654824906449,669.6325603720338 474.51588935991674,667.997825655046 483.4444629319718,666.9778262711011 488.9659766521275,666.5496250715095 496.3487103105342,665.5548597176789 500.98910764587674,665.6160678971568 502.3805448483808,666.4456804122085 502.02163401791,664.7290093913947 503.1838304663541,663.8627250798379 504.83600619246914,658.8937008520943 503.79863941355495,658.0296889627938 507.3992799024557,654.5711907867721 508.63485239613374,655.9518680784124 511.007308168618,652.7609236285424 509.932598239844,652.5792196262692 510.4591059867825,650.9454566460865 512.6405316335424,648.8755160663933 511.77107629673407,643.075028602278 513.3742470987015,642.3051439843989 513.9789201562929,640.7595991389899 512.4306878089363,640.1646178390798 512.2486772542235,638.6066310362743 513.4562762900827,638.722912720278 514.458636490613,636.9995834003633 512.6024554929153,635.4325438639694 515.6940207208256,635.2308523285348 516.1430860804986,634.2345981985411 513.9536565233693,632.3189450706936 514.3616023813552,630.1704750308664 513.5656171943675,628.9552647154314 516.7144810825719,628.8741885925059 516.4292764422001,626.6226757491831 518.7128759181292,626.425316017767 519.9757719127875,623.5651394934181 517.9905562493626,623.130645763697 518.4992890208198,620.9847299924296 517.7484943430378,619.9936064376352 518.5911121661018,617.395961040223 520.6534232960628,615.6056504535045 520.5890275594959,614.1708538739208 518.9358273938907,612.1837989571677 519.6492963238111,610.3173397821421 523.5230891635437,607.0392977027195 525.6702715646645,607.4176530210202 526.4853416300809,608.6835576164833 528.2772392562147,605.5818201410381 530.8771950754099,605.2127413908586 530.8021091934838,602.6275009195078 532.8786462910631,601.4088102612193 531.2773569720324,600.9680392352885 532.4362837720781,598.5923719594225 537.0726971187539,596.5778536097715 539.4883043482278,596.2977013918347 538.1036382278037,594.8383748180092 539.8447549392824,593.3396442313845 541.3767534330631,593.7193056847294 541.4005374854962,592.3807653427962 543.3031594742081,589.649565230308 544.3503193317247,589.2747131324007 546.2827617188445,590.9772589929967 546.9097974944364,590.4813549036646 545.301250679089,587.5253447580251 545.790371617246,583.6849377475512 546.4998231575124,582.3209621659972 545.9501824866262,579.3411137825574 544.455699422245,578.2725929347381 546.5792184910104,577.5497367563346 547.4021886571428,575.2603120004876 546.6737860314138,574.5686038563462 549.4461932992762,572.8822667291771 549.4282725624515,570.7771863404548 550.6506864817101,571.0296669271621 550.8453897554721,568.4948322731418 550.3096020316577,566.96400386971 552.0864780661447,567.1789664992381 555.0873261737424,565.9932053087925 555.8564791232449,561.393246196289 556.7275930421391,560.8015783379203 559.7158204110818,560.9010858477911 560.8190058653665,557.0176897823796 561.6564073032908,557.7797351878785 564.394971115506,555.3515166307493 565.7084823059931,556.3888387117915 567.1484712693928,553.9370763656846 569.0520309832103,552.6895180868188 572.1844718759875,549.776451901042 572.7869627099842,547.4056754328486 571.6851436578173,548.3833820340442 571.9522588943074,546.1332290546466 570.6294104127262,547.1141925660709 570.8920970830726,544.2156925222359 568.6887379174624,542.5257348345147 570.5263678339171,541.0720597948431 572.4754686822655,541.2479669686377 571.0704153502685,539.8422766621682 572.280778617882,538.0920851105361 571.9761459873125,535.3588705512045 574.2168146310125,534.6901764122841 574.607265779189,533.5331339524264 573.7732395974841,531.0349746320938 574.8132978119745,529.2543829160254 576.213590029539,530.012594744582 577.2391673309669,528.0116471690619 577.851315365855,528.8871015463152 580.7627707911272,526.7103963082343 580.3822767012487,522.537440775424 580.8255118393896,518.8100133719234 581.5671562730392,519.3475193984909 584.8286882486652,518.4649853438501 585.6149888359307,516.739054206359 584.4815851568101,513.6979355302813 585.4420074220942,511.8570740698285 588.4233009411688,509.6564954863197 588.831765525846,506.92620588066455 589.4057681721937,507.74052551054916 590.8966218482265,506.8145677595106 591.1013270744595,505.4407069839002 589.808199956374,504.8221048426154 590.8185504260446,503.4077431838534 589.7927648571127,502.1493320756289 591.50757854696,502.36055304815415 590.8242603040665,500.6763791914152 591.4447133874773,499.1682375338836 590.3759918099981,497.6190715811969 592.3888553926934,495.07209581405385 595.5079128182325,492.5179212151056 595.3762679613594,491.31516261836106 597.7072419103317,491.8056295610522 599.1206692071944,488.65770625443025 602.2243340916256,488.40889384286703 603.2657397272515,487.3196596870966 604.7821961387341,487.8154024071332 604.9017488982206,486.1846205589374 606.579797491182,484.5573445729725 606.829177446447,481.7136405005866 609.674072985157,482.15583235403966 608.012598008358,481.0104619484776 608.9980126913937,479.33259568873336 610.6276334984511,480.12835237821406 611.2845393839466,478.71486172222853 612.9434659118244,477.8698476911655 612.2008575017311,476.55953399560036 613.0499803198783,475.09151018178017 615.351509580178,473.8615890666127 617.3354055476668,474.12975256720733 616.6490850613886,472.14064422868444 617.2137217015069,470.35959764347194 616.9169558244365,464.6793521137477 619.1059693524237,462.23154756864733 619.2696222171767,460.4157572058074 621.666728488447,457.2325266114252 619.9939530799519,456.1725137654682 619.8555954982521,454.791384722315 621.8461933300434,452.63720268719874 623.1820364878089,453.07680319219224 626.5543982861285,450.6906547954797 626.7558676133953,448.5443650933979 628.0492420013304,446.9596893226234 629.2606801139851,448.00856921261214 628.4550585654962,445.94122193357225 629.1435933261213,443.17757630520765 630.9616567468122,442.7524348269112 632.0597988206672,439.2164695450857 631.8060005180563,437.61271344151453 632.8759596374047,436.97513794083073 634.300177755993,434.05917107021577 636.6336872772873,433.0771867494332 637.0528959614535,431.8971622463351 635.7441752421245,431.611631261707 637.5210420946548,429.9198779322176 635.7049761619356,428.1516012310478 635.2709885993638,426.09404289952334 632.5084601714749,424.4051432059803 631.9167430831427,421.8167294446599 632.7381895909718,421.0463833933459 632.0427099439017,419.4574129323439 633.4725948239209,418.43783198711395 634.243305847783,415.54138081774795 633.3270737823261,415.64772861853015 633.2428649499818,413.69138823110796 634.3685046586078,411.95148546960405 635.5076423163695,412.1817372050888 636.8662075810829,408.6120805968249 638.1221968149372,408.98939139587657 637.890911765037,404.2952626495781 640.3578480633616,400.98114809600355 639.4832875118423,400.61185100894596 640.7054527789434,398.57662236028904 641.4851664286789,394.424545109707 643.0626724828207,393.0438611135845 644.8411438481265,392.9661973497955 644.2057218636892,391.8215889081873 646.1503852836356,391.04334265339986 649.0891041018867,386.3910828818883 648.2899019350731,384.4869453760277 650.1599213249633,380.8794685820893 648.794624915207,380.93299791675605 650.9810357514029,379.2348758204537 654.3932655882213,378.3295493503255 655.8570668333313,376.6561590791289 656.3704911544436,373.95211208130064 658.2891132118974,371.2456321987254 659.3741467549479,370.7358148375581 660.3122001329751,368.7885720940848 664.6835019800893,368.0064232558105 665.3150734933796,367.1469476892949 666.7624542304003,367.90974114365287 668.1968522282862,365.710192892161 667.1297691838232,365.01525776629046 666.5277910323656,362.83784851441163 667.1262798787803,360.7800022640257 668.7562750512509,359.67206104393074 668.0899852362338,358.5532013814991 669.4662045344243,356.70110755325027 668.2233051166738,356.2318002803078 670.015197297403,355.07617915997855 668.6003659015973,353.79583208265825 672.1251088549164,351.8145348623529 673.7420968341759,347.31201351465404 675.9054833728591,346.5551462589355 676.3248713182262,345.3012141563032 678.6184918015318,345.8620243818779 678.2517990040778,344.335399039586 683.6283982601375,338.9004925728506 685.5055943990548,338.78206439285105 684.2644153283793,337.37913620385785 685.8977423932777,337.84912935023516 688.1804405042111,335.76316905076595 688.296444279982,330.1761110104968 689.7775023366662,329.37812500748976 692.7728422172854,326.3245614781877 692.622858955978,324.5228925010624 695.261024079392,323.5307743600034 694.8054562509152,320.5954238783412 696.4125388406455,318.19750384900243 698.2669035196379,316.8311401742637 698.92682983312,317.7954119105727 700.6623920650626,315.01073581012815 702.3118535857138,313.8441038697782 703.4987424053502,315.4382079583276 707.1960504552761,314.99516002393506 707.6224838104572,312.0455797150221 710.6754516621494,309.46804856576864 715.6248348311527,307.64426193326244 716.8211464346476,305.1785722106091 718.8665200396945,302.35847620476534 722.0357184933947,300.8341092680905 724.0990233962325,298.07331465310165 729.0220177896072,296.93465445493234 730.3014286345848,294.31837150187755 736.4101783459322,289.7225965250012 739.0243362742966,285.9742254841967 741.7518655823299,285.35475939627304 744.3862885227485,283.44550814087404 747.5016286350761,280.1144193386633 748.7752818314722,276.75349541415824 751.0820217058267,273.7527393152783 753.8595422251774,268.37362925150876 756.6056941273239,265.86546760482133 757.5401183421574,265.715750624821 759.1071775347814,263.5641666999761 759.0237573194973,261.3427068809193 759.8178704675984,260.2588892022195 762.6055296048169,260.0039367871983 761.754984308244,258.1150682194233 762.6094408285978,255.5665810293891 761.6497009477434,252.21046047341736 763.6039664803025,249.70264679290483 762.094409779702,246.30972598465212 765.1149913586218,244.95119866491802 770.0990284126508,241.0768979723614 773.3776421876628,237.88633983579075 773.6066019462902,236.96779921844052 772.2201754089398,234.88185773578164 773.622985069177,232.36407487079452 775.7804287781896,229.66631416423002 776.0343108650193,228.0216332006238 777.6099615608573,225.87068666846096 778.4495909925645,223.5018687961899 778.7606548940887,220.55427183625568 783.0764509006373,215.00037037603613 785.1042967721911,215.08504866365104 791.612290410477,214.2292721576256 794.9681904901789,213.44371959087175 800.9570779804786,215.9186491326093 803.9084889511239,215.8518606378094 806.2072773674486,213.9182478436786 809.9487516314985,205.45754470865495 811.1938252844261,201.70130635324074 812.8149511987394,195.20400925249373 814.3969302919827,190.11070907742214 821.3658792266601,183.9599965821218 844.8991602393019,180.43419170955667 845.9315543868864,178.22219591000714 854.7629476579577,163.32202430075847 856.7948019981317,164.13932755680946 861.0580555826197,162.18416600086414 861.6246882565293,163.3440966276395 865.1160066825393,163.61461855012362 868.726752410564,166.472951109527 870.1927047612468,166.61040965478207 873.3769890172389,164.1104727016343 876.1013213709036,165.83533337067308 880.179293509576,164.64527659084047 882.185313946305,165.25760947921992 884.2226562103268,164.76310488637432 886.649976239059,163.15202023758968 888.8665683110074,162.65294384821414 893.6658409596304,162.4043904866046 897.1394723797495,163.59273386155064 903.7687986650069,163.74914407278447 905.9621263141586,164.54223473980892 907.3750522624226,167.5346075601874 909.7446127362571,168.50804679906184 912.8934123035051,167.84670820546626 915.1070084442446,168.0817412770209 918.4820335648151,165.9448402534166 923.0713458478133,166.78054166000027 925.488021897243,166.27476058700302 930.2611964262857,167.484154092572 933.9948234248935,165.89420194127365 935.8683837751304,164.4569488423988 939.4124878974752,163.42125201170097 941.4722136087037,162.17309998786595 943.8722289891873,162.58746041159645 944.8590650185782,159.832227119251 946.3826301823497,157.84011515856594 948.6254191258256,156.9494702054244 951.4976097496076,152.5724887917852 953.7721733523339,149.84055913513305 957.3477650756872,147.51186948248915 956.3367148766998,143.05832913979987 954.2376905688633,137.47172144906483 953.5641443052637,134.31826042051705 949.9463773934887,130.54751699552548 946.541969153701,125.49565541591062 945.8527228600875,123.27181182450806 946.3972105970722,120.68023691357791 945.9835270283953,116.9577004123147 948.6302574084208,116.82695580482232 950.4097647721403,114.92449810956384 953.8744264581586,113.09405336030125 956.4662452167989,109.79503685935094 956.5284966882261,106.78227387690902 959.4661607049293,105.97306171955313 962.5349614187212,107.32630166139256 965.8596866906003,106.04968494131163 967.1957718443656,106.0804309469122 973.9107822411435,112.44300671518977 974.868499482084,112.47677542845895 977.0209277881991,110.29301886539577 978.5917794399685,110.01551128015387 980.2740088725373,111.41966561355343 984.4997067604694,112.86765606531162 986.8005185128802,113.10884622708511 987.5588889287154,115.47758945767612 987.4441313095117,118.18525913600297 988.1627091080297,118.76306955222674 992.2125175160486,119.43922086529403 994.4360651833948,118.96092239177744 998.1176846625656,117.16501135703936 1001.4868274439299,118.00544225556405 1007.8093701966864,117.62798961483679 1010.3449855928683,114.47845837933846 1013.6630701872276,111.1051778303779 1019.2615342878843,103.58173959692044 1019.1142118491649,96.64998909790927 1019.5097536078723,93.16215330675413 1021.7781157789802,89.81499076865418 1021.5315975444713,89.0176189158567 1022.8851296044553,86.71834725177155 1023.0643070180731,83.62515156012523 1021.3870683617398,81.90184859604528 1023.484784212757,80.43412226711564 1023.6339882853918,77.3743457552348 1022.3791938562963,75.43021429441671 1023.4667147880456,72.26737129468177 1022.7185181169705,71.07442260826087 1023.7924777977406,69.39643171009516 1024.0,67.01279954829658 1021.3658830397478,65.94055506878863 1018.6409565798958,66.166750791352 1016.9785803768561,67.87771051731443 1013.1795825717061,70.36271551380855 1011.2230602780063,71.14935635325605 1007.5068425555048,70.98674630203288 1005.8663388869202,67.08865725810836 1000.5919094230985,65.36535718897971 996.536583041841,67.04372495988514 993.0359810201904,66.58040725376111 991.3103723978126,63.66657839437346 989.1900910241395,64.08634223307718 984.4608290022119,61.99169515706535 982.5447117068926,59.18379773041238 982.6635300250019,57.448813395274556 980.521695174844,56.223847360669424 981.164656541088,54.733163927747114 980.3288266272821,50.54456942127001 977.028462694309,53.00143294383997 977.9798898633308,50.959968467365115 977.8282280265416,49.32210501714883 975.2739788039584,46.62218970030392 975.3374485997949,43.47864131767881 973.8334660143762,37.02803307009685 974.0190551324707,35.488920112539176 970.9617697779715,33.70823038030767 970.9225446295695,31.355367836270602 969.6535477598633,31.56122481186867 967.470878893105,28.168763165616042" /><circle cx="503.4814139331772" cy="357.34390001106686" fill="rgb(100%,100%,100%)" r="16" stroke="grey" stroke-width="8" /></svg>