<?xml version="1.0" encoding="utf-8" ?>
<svg baseProfile="full" height="1024" version="1.1" width="1024" xmlns="http://www.w3.org/2000/svg" xmlns:ev="http://www.w3.org/2001/xml-events" xmlns:xlink="http://www.w3.org/1999/xlink"><defs /><polygon fill="black" points="904.9774816858344,389.16947830346055 900.3966589728492,380.5415585281805 892.8833106898566,372.58073483481695 879.9003342815154,370.2183280817244 844.5616546212894,369.63920749219375 826.418443316272,356.210120956031 767.5774326467126,227.0312765460127 747.793967096669,180.37463334051705 723.8806665403645,156.80667072480594 721.4692254026934,133.09165839364948 643.332484602863,75.72134491144038 606.8753439874286,41.28582972224331 585.6525176475081,32.30389461141078 551.6231477740193,30.354763688245157 532.8255774589791,30.342862544300147 524.722695138361,34.39972669663598 488.96114260822856,65.73006525275127 459.0990816988474,80.82917964045123 442.5334355420333,82.27392519915304 421.4755367233583,80.09925399103247 412.2747478606607,73.82935894328989 405.98856865335284,65.43616720021362 401.96658989426925,55.48278533584664 395.15430812409386,42.231684955521246 390.21420563973845,33.00578598247307 388.0977395769198,21.570064323102883 381.387796705918,13.182251191931982 375.09668636620876,7.228668141213689 369.6883797018428,2.571581656775379 363.26501875209823,0.1221351186964057 359.0075272953101,0.0 351.43369184682626,1.9171577797574173 346.09694510817917,8.287061239857053 332.5481752091115,22.003288784243864 322.81944074672816,33.076492050273714 314.88733502631464,38.8045182363893 305.3709910266151,41.29129141508656 279.51006087705025,38.57602240925269 267.92765228689507,34.16266999882771 260.00584200082966,30.51141759179211 252.5255414202803,27.288957753652653 243.28523972540748,26.273136723206107 232.6442089205315,26.73946935267861 225.26296405688905,28.85697685595767 218.56385079677014,30.511360504944605 205.4719118112945,39.49485668733735 198.7111012125305,49.01142246654513 195.6600621969387,57.2526516889784 196.1768999848146,65.63648145676109 198.88711226937085,72.24720439844418 205.3410482533795,80.0990385664661 208.60774240385965,86.44711184086714 213.09071765587044,95.4864235828012 215.59942832406867,103.77331255965288 215.44626460420767,110.98248836723809 211.36283655885697,119.31635469510263 199.72071569825982,129.93383883204336 183.56391572897928,137.02872476869146 177.6171439270494,138.42882187701866 170.91227403632274,137.36856453139848 166.55577123387218,134.79323248619335 163.10432081040375,124.05618492690911 158.8324276453218,99.58590164286835 152.30234174713593,84.27885099625428 146.08547409785237,76.1761972876069 139.1669997809132,69.0835225131409 131.06217239917913,63.88309133640257 122.20163674383282,62.77373036663744 112.81348365413885,64.86793826337464 100.0698979500094,69.18785298321563 90.83074662592196,70.1471482266021 81.9684522537495,68.49896936578011 70.0769580878437,64.62238408682197 64.27559597020591,63.8575341357041 60.72761697030762,64.79534636860967 59.87808459555206,67.47326283726932 62.385296110882685,69.72397838211873 66.79555524614045,74.56707420497901 80.19204019974488,98.96462829992612 92.1562940101781,108.41217012490898 100.07611740501555,112.1792061382422 110.1449630915673,118.25536746015143 115.78957802068831,125.33201539431593 123.14249863207809,142.9879634243922 125.27195127676151,148.96900407860608 119.11209257084123,153.18678813208624 105.52038842697705,162.9274508486336 99.94176937962058,169.16760742893433 98.09221729248519,176.14421983643393 97.8339202149113,188.87393820579717 101.03584359051933,204.41152439349327 98.71690731552088,216.48109577369382 96.07794513772035,223.16792758462947 95.75047803066647,226.6589101853453 94.19777893705388,228.94971902839387 92.33610342208318,229.67188643020637 89.12652880343823,232.54267641411042 85.75272563412112,235.00418226534862 82.59260160552162,239.57991712182826 83.06615367959402,240.91589730305134 84.30421079339287,241.89922976972633 93.9652943377619,242.48237181115184 95.61191333461444,243.03027041749624 97.95474522741748,244.93280218197538 103.89809329609398,246.88942784272194 106.08822689163046,248.4395338840555 106.90146264024656,250.04197557959662 105.78395913849978,252.86557073946256 102.81857212336446,254.68880745861094 102.34684606281483,255.33534456060352 101.49943201702708,258.74026392992334 100.51442985947281,264.5732618926186 98.29961270426287,273.3691713197809 98.19864399976491,275.23629699505034 98.760779691377,277.81072491923214 98.46185181579352,287.5753371275661 98.12247651067578,289.57923336338496 96.51195673059684,294.50744238244755 93.27682512481168,302.1498237622617 88.21524715368821,309.174566747825 90.52401454366783,313.39399640809575 90.87632758624856,316.5636305887954 89.9377163204001,318.0267165737222 88.14808932502919,319.12324948331707 86.1903240475215,319.1732156610161 82.57575968663109,318.54289269847754 79.0139428879695,318.63107644840045 75.57590745423336,319.0474399382227 68.74822350156396,322.4677265668139 56.859322503427194,325.2044141259365 50.00487246456679,328.2746377237828 48.3849462216892,329.9173190118128 48.18986333721812,332.47167776700957 49.037279674661356,334.46195885776456 54.17068862050584,337.1814030648162 60.33837562513494,342.64063295727163 61.24735362638338,344.29700841538164 62.168175411506716,347.64815712793234 63.96613457107597,350.29022834983084 63.3962373579909,353.27594023074516 60.28152348146608,360.13236489115513 57.93411843750702,363.81355667835834 55.49352437605911,366.6951391358549 44.496883174046495,375.78424954922434 37.47330210775405,381.95680144811064 27.418602603477762,390.0216351224395 19.979764273124935,394.0425584305661 3.0959569537723612,401.78824185517 0.0,404.1747565540161 0.9300839575873898,406.237609654505 2.4131971316326597,411.30908350657353 1.803243120705726,412.5285911354968 4.18910710124716,412.9691121214498 5.70543143919387,415.79915884388254 7.165316044378413,417.0656643586821 9.045191665284818,420.02584727604005 10.845253201316579,423.59801575819233 9.866489118519453,425.5652325224253 7.8608908772123,427.9362991785905 9.483586998537785,429.6828569077741 9.797634306965541,431.41213534855854 11.645952867130594,431.5914696270968 12.531906074689665,432.72823481148856 14.338214116158595,432.4913258237247 17.470365970135624,435.3495738917145 17.837804750248594,434.87561109886815 25.084858148588335,437.81300824800894 25.454477970852807,438.2642382980132 30.929152039409345,437.71025674664895 33.040494361738325,438.4093687143749 43.557375810928875,436.419163523731 45.47427546703806,437.7798090087743 45.73858402290735,438.8566606916552 44.90996024679875,440.89778883647966 44.40708627361581,444.51263439023444 43.40700793456136,445.25695100383996 42.99189508035726,446.62678904306824 43.888917247921476,446.810246107475 44.117664680172666,449.014490845971 50.64245346016211,449.8127393577329 52.28544718939544,451.39907062596626 55.84417730099364,452.95824905133117 61.461084754607576,453.48773820663797 65.13660868877307,449.9184372013285 66.86426021686427,448.99532734809156 68.59090157336549,449.5731932995218 69.35372369287542,448.2812008257158 75.55978365692687,450.0591724286473 76.15018699889616,454.15405505795036 75.7111541390534,455.6697497818101 75.72196196029587,461.5701223371056 76.68803702456198,463.3314405645284 78.29567333758129,464.7989577866341 79.17664022275089,468.8902825206409 78.40578882268497,469.95556047195885 78.59683674200518,471.7436387749633 81.08742444311314,475.96199182925534 82.94479847798273,477.36374950320646 85.18038246282217,477.5506538510416 87.49016824235228,477.1915189006239 88.9923900066652,477.8402815422321 92.54361382627941,477.7045116196728 94.55835666626169,476.3245496992618 96.38504576598142,476.9562583094498 99.95758129474844,476.80670987387356 101.07141228471379,475.8474647494181 102.77901055928648,475.4996810947848 106.43024373598533,475.6207268126627 109.29010078080249,476.36768172096953 113.45055490599064,473.369553512684 115.16537825722105,472.6631503882615 117.60892158030596,472.76443717667354 119.61542753657234,471.16237635097457 120.31206564711707,468.55679982994843 123.07750282771295,465.4313083732215 129.4164082769324,460.4332567898809 133.0587235390067,458.48655407015485 134.93421247057879,458.78398932144034 136.64562260002904,460.1212443361603 143.84111163416074,459.39308751968235 146.47448175356695,457.79884800871946 149.72925281309455,456.69855920349374 153.5809691387023,454.79842119982857 155.6031465559304,456.590273284834 158.26522879980337,456.91289824448427 162.15520964521698,457.92102014962643 164.17831037323157,457.9947565050085 167.87336060569692,457.39409835134603 171.97263935779176,457.62282667615716 174.349204785912,456.8634609525965 179.4525118481653,453.41651824738415 181.65520615719004,455.2354876446091 183.4624130487468,455.9986593430836 190.31204186770847,455.7160531424822 191.55680555683912,455.98174792288216 192.58958497186507,459.0516009088818 193.8398680747923,460.5115654926627 195.6795485582691,460.49653950762297 197.14157518076507,458.53400752543973 197.56798197263987,459.0995191877601 199.47862000341306,458.27406009740133 203.1047772287927,458.5874583700512 203.57245914627106,458.1437087866892 203.27415960477637,454.1257194308448 206.8456100505459,449.6047061467537 209.30525932554104,447.21373057543576 208.65600539313823,446.42664431943683 208.53289229564328,444.58809391417026 206.68910821474162,443.5505146900224 204.4758035883911,439.7395944236264 206.6763741683328,438.0939239202794 209.70739659926906,435.33207750940517 209.98055382937247,437.66451457674646 211.2812509356939,438.0776063236958 212.51518950171052,437.62087616429324 214.2393857579246,440.0059637465858 216.9233379779548,440.91401338308526 217.73429833597964,439.08944309986134 219.62796468810703,437.0033392324759 219.57013253637527,436.31778146068586 214.79595053703767,433.6498166718167 215.14823432592488,431.82078671952024 214.74819136102585,429.93893408791155 213.3737242541874,429.6376522195505 213.1789081028476,425.07422123604744 211.6994618570453,424.3413102374776 210.78145171114593,423.1051594940544 211.08892921949507,420.5719515112272 212.04824754604397,416.1732346205242 210.1485996220985,415.8283810233812 209.31971108371633,413.2960067244993 205.22401380676686,412.0669672199077 205.2324865521688,410.1744092094599 204.49973521268376,407.25690898009634 203.14791418532158,403.93995359204894 207.44269170409106,403.84196056222993 207.50641411462536,402.7623532785937 209.68494689250198,402.83904821899097 209.51274580063424,400.7210300828572 207.80946446664242,400.0308155736285 206.7783166108569,396.67309535815764 206.93327133166488,395.2413148870438 203.61131575783955,394.0513561215863 207.26728073323338,393.27504081644423 209.99796441036358,389.7378302947735 211.7477232234613,389.7870496082814 214.72123380107024,388.4117306726504 218.27217850149646,389.30412428186946 221.56813921265282,388.6385058863951 223.1718745284037,386.31060026673765 225.6537027625042,384.8970629141403 226.93644786201176,385.1492882610975 228.20192206702896,386.26492560058784 229.17774948821915,386.0814850448588 229.5659970594129,384.55524972888077 230.6352277346449,383.27863446364154 232.27645118965316,380.12545534227934 232.48111692820777,378.9401077020502 234.82493226010791,375.796252206511 233.59503070104148,375.0070208427064 235.42248084845843,370.5359587944504 235.03567720244757,369.88630515890975 228.53840390855842,367.55211571116365 227.80509177508836,366.34328209411603 228.41458713292582,364.9064345674882 230.42871023989576,362.0439246617801 230.5967873232491,359.1114430681467 232.64240446708052,357.61835876107 235.38915475554072,357.89040856613576 235.44453420878543,358.69863630265365 238.05703837406588,358.5290271199841 238.40474714584326,353.9764575721628 240.21734607383647,354.2439687873351 239.57168430582078,358.54514293293175 240.93099131466096,358.96406977532183 241.64884925611707,354.41889790287394 242.65898181839242,354.4107634450294 243.31682766156138,348.65607208368704 244.47410460382247,349.0756750210978 243.96297006690116,354.64921801756594 245.26572356351136,355.5814837540595 245.3902435782507,354.40397264059266 247.7509189055576,354.6210458647497 247.52419056987566,348.48524633937075 249.59503557939524,348.2528453713843 249.63623467534748,350.1935847436464 250.32170410789584,350.2167127310681 250.11916036957857,354.8807392331263 252.7039445475104,355.4657036671656 253.56844974336178,354.7419227069977 253.59516690695742,351.71694382332595 254.0220325985044,351.4139453809218 254.00147291829077,348.8600215034222 255.516840235733,348.83834819655067 255.46627353188174,351.37197183575336 256.37377989857595,351.86680168190844 264.12447378209635,352.11581832457597 264.07934678783374,351.21340240381613 265.8923436773462,351.24955328988557 266.00001755033736,349.85930665662806 268.9849998529724,349.3665760138618 268.9560835800127,345.7504982296086 270.43177379042345,345.18519457488355 270.74451658987806,343.85095478360626 272.24957850813723,342.2336778870084 270.022751939113,341.0045840230417 270.001992463124,339.512657822191 273.30965918746574,336.76075263725016 272.02912290620145,335.34756182058436 272.8950030751613,334.3405829471416 271.186025177398,331.8332565903068 270.6232918847284,331.98723938503304 267.36438417671707,327.01821180251943 264.8394330580437,323.86211039390247 264.9923939488796,321.46740978031573 256.26866855246357,311.1736785600396 255.40359035201206,309.40057015483524 255.54539737119092,306.3023657215019 256.3370217884848,302.4808161379834 263.08554780813387,302.096309408682 270.0929270965972,300.5463221572723 270.1211378179645,298.4984122668101 271.04678025860824,298.2903091465485 270.66361837375246,294.92676208450445 269.97436612247094,295.09709791788924 269.58354941740237,293.1729913237077 270.1951374266691,290.77799528844645 272.59337495077307,289.51837738852555 271.15504120472843,287.16274845852513 273.25788888916526,285.31196126257527 273.8834709703096,283.691318722992 275.1524837449413,284.1980528863677 282.3300140474289,295.2158882421595 286.8611130571733,292.4977311687155 288.2145751530603,290.8774057611573 289.26583879845356,292.3898410576385 291.05765192921484,291.7883065645381 291.584921436649,292.5681536199062 296.8016203587909,290.91611098730465 296.9498257213963,294.8885458187649 301.71850233890456,293.7608978573182 302.4804309795396,293.95540256480894 304.5844378512303,301.78042580474886 305.3506275742897,302.81988121835826 308.5120131528549,302.75053336274954 316.3328519220992,303.4533496295697 316.5013111331457,310.0174131527602 316.8006482572845,311.25997907233665 322.0024599028455,309.9377759588778 322.8671374087558,310.2570045745087 323.23673623843183,313.26149506441124 330.04153785137385,313.00938936139806 330.0269816740684,310.77185401508626 334.1981491365309,310.28340868163684 333.51873579868646,307.40966992602 333.65978531566765,306.44959972855315 336.7485483739647,307.072469190632 336.81790406675356,309.09397098790424 339.4885970476595,309.58110253851044 339.2759456748934,307.9957169398179 341.46582879820426,308.3269984730516 342.08506876838385,309.1416460691948 345.5359560863927,309.9651474411395 345.47100827231634,310.6954491154021 348.2331128932295,310.60379416924815 348.3737617326612,309.6625942666941 349.80926776143946,310.05443057852483 350.8272963246101,308.7907545361946 355.5888215103119,309.93746900000133 355.1846252457164,313.993317991167 353.8964207509026,313.81208697886734 353.47619703896345,316.97555578296596 351.7389460631141,316.5211243861708 350.68606589612557,321.67332063373027 351.06931661930713,322.29448990016016 356.28073115189125,325.16813033989644 363.9943700243318,323.43260798120184 370.61756982713337,321.085462613937 372.55182394635233,328.4017203073362 372.5192166342985,331.1197342109196 373.77971517439,331.42780490535625 376.47822294533637,330.9382653232352 387.74346485245644,327.05882874727064 390.2975477241606,326.8495671680736 391.6649888488037,328.9910137059515 395.04800247110194,328.1419959424679 396.6614493948799,332.3225364592635 399.04664978355066,332.14294372250276 399.8572996194408,336.27934643192856 401.4423459581927,337.2025986895797 401.6095863206835,338.7540060799523 400.4876236103236,340.17148378741854 404.1541313276923,349.7258392363648 407.5771465679831,348.77368048749383 409.834745499599,350.5927418971852 420.1001239705139,348.5619929932665 429.23761287138626,345.8906158921831 428.45452728900284,342.05217408528245 435.80828066272636,339.7799057704601 436.62514955831995,344.0437799732826 438.119513142181,343.5869424352357 436.6619976523219,338.5175745226103 438.1889355971394,337.900902636389 438.5920778095048,338.8008569775384 440.27376480019274,338.44680448830223 440.14370694185,337.3539729453484 441.388490736729,336.96303202553503 442.97190925177705,342.26612265318414 446.2565756567794,341.0655785287749 444.42176940847105,336.13516003170236 447.7997640619608,334.89396046224994 454.3363416525759,333.29925051019165 453.5160026158865,330.71088374589084 457.3576344854686,329.42678818298964 459.1116051504721,332.90186715425006 463.29078695153737,331.3553044801165 464.1411800406916,331.3341816606123 466.09395119686786,337.1258290689643 464.23257064705604,337.202698648795 466.99150357993665,344.1617405757219 463.8424420981821,345.10075521138106 464.265019674952,346.5155246522195 462.4323248276268,347.06021351319424 463.70142213971405,351.88036748863317 465.6714657089935,351.4138756868493 465.3529308252925,350.05778072554097 470.9116117070824,349.19889591756896 471.7410090610682,350.2534634256368 469.86032540018306,350.66980609338464 470.2060027035211,353.86715221009973 467.9193867806413,353.7374965537699 468.0126863476378,355.2071808725992 475.7773654622222,355.16069018747913 476.5799447720582,356.5120715834826 478.83436261823914,356.7826531870429 479.18374156766055,363.8880519526999 479.97606087765195,364.2575076920916 506.58563764202523,363.2896612712815 508.85629068137115,363.3763542300328 510.1121431962851,363.92941882763034 510.2553455287229,365.00359474549634 504.07442901021784,374.256707440126 504.40714334065666,374.89091778845875 514.1875100161684,375.28898486319645 514.2791486397614,372.7420939797078 518.6049440307288,372.3165135402218 518.6925654723731,373.43680163004916 520.4007100714913,374.5366876103741 520.8708799209741,376.7593982334338 517.410117892356,377.49445268672116 517.6646136471785,380.203827124006 516.5767337560814,381.82986384007177 513.4368740415257,381.8584529146724 513.3888967782441,380.2150407182757 512.5178598150892,380.21225018230666 512.775643050054,387.5093055299793 509.7806092576486,387.44629847519957 509.7955767756754,391.2176843264878 506.55653362948954,391.1499113779626 505.7800863691056,395.79792686034386 506.32091449714716,395.90285210709754 505.7313048679771,400.4648294057729 506.2593339863169,400.57894460460653 504.895046620235,407.1034222031406 513.071990233909,406.8849829430312 513.2529599322843,409.6967619578274 513.0460512774041,415.5735595661164 513.3463673001825,418.52453207820594 514.4991736332819,420.9209939149143 513.8333930423566,423.5605492532553 512.396186935605,424.75029161174575 514.2820595340962,425.15983429596565 512.8107510015526,430.26631487845975 513.8549303795947,431.3249707600616 511.14512375999993,438.65396534225954 508.21521208717314,438.2571399338726 506.0000831445237,443.30193692808325 507.39223083823737,443.78212559863505 506.22860681487265,447.3465004713537 512.8240216320444,448.6264291150505 512.1443614068655,450.4633553698119 513.3578403462673,452.1247094139242 511.18792952327993,459.60580004872656 510.6170545888599,460.60944440215303 507.4056811289755,469.48147552441253 508.1920699719101,471.03069438754727 507.9060114252412,473.18677807642877 507.0690788743758,475.1008772173554 507.3623755837055,476.9000902163289 508.5723878559077,477.8770177928377 507.4622109940178,481.72090259263246 505.71191087505514,486.0148690487223 507.1873158243417,486.54858422333257 506.99261565854226,487.4698688219969 510.947081157714,488.87302603248713 507.5395886079199,494.621495242015 505.8081846342508,499.024385879326 508.3465636333951,499.87611452970145 508.64160222508343,498.98981913937934 512.3532584505667,499.68027274111034 511.64563332740175,501.87063890262385 514.5736661353103,503.2490820337199 512.5296083416498,506.84827743778794 516.544289524927,509.27673140173414 516.3869483946758,509.57573782993023 520.1312787723665,512.0555444807783 520.6339265482388,511.53197636817004 524.32302888117,514.4732112667706 525.2181548612383,514.7643331598213 520.75445829238,520.7142087981177 516.6575950716478,518.8269715302328 511.8428319015134,523.7740960197342 512.5643315396185,524.5527173483204 511.71121835606584,525.3479326443298 510.4093361795736,524.3267609148778 508.4838622593547,525.502303201404 506.5165698692616,523.6327879259927 504.1602834810898,525.7486069083243 504.8525048835704,526.5172306351786 506.80930579779425,524.8136979888352 507.9842165558383,525.8701684363857 505.7033262040403,527.572122579166 503.6615813757771,529.9630835420605 502.0345509333249,528.345597167002 498.08670913149706,532.4268839367928 495.7464135299004,530.2574433469701 494.1810251169354,531.3125135448706 493.61623265228957,533.9445820750137 494.07606795908515,535.1901110990927 493.39708343364146,535.9037347104786 494.83225817481707,536.7812310693574 497.4049177276821,539.1251062457349 495.29113249398085,541.1040205134768 488.8484123261749,548.1337301963204 490.5659724014627,549.4273541074773 491.64543893302186,551.2796387033827 498.6279026717841,557.183076916968 501.46373598948054,560.2871994487317 504.1807243668063,562.5771963039914 510.66918902324994,569.0041702507674 510.6281638612773,570.0322760751262 507.89003195645785,572.5088463962333 508.6822230115204,573.3360374747873 507.2141642510942,574.5771158398255 508.62476386040635,575.6428733257695 507.4361803617891,576.7997087762094 506.68047297212394,576.2611295209088 504.7844891735358,578.5086289797844 502.87951345002665,577.5370831594342 500.5525873755219,582.0275081621791 503.5638354131636,583.9126014925118 502.96348133081483,584.6938460174048 510.1982591258589,589.5589145291809 511.80609807997496,586.7583083516718 512.9112524487277,585.7791916026918 516.7513949467659,584.4378468147804 518.2920008123075,583.1462330350872 520.149391603114,582.4507303926721 522.0653010363862,583.2949882137493 523.8095813416862,585.1742478983348 525.6810514008779,585.271912424973 530.7808669924689,582.7938522608392 533.8010009463817,585.5284826178719 537.985143551153,590.3292819729329 547.7167272594223,598.0220662574894 549.190856351115,596.4647755034393 553.9994708888025,594.4575443665858 555.2845220688004,595.7095212430413 558.8191683880733,593.3991452757658 557.8288765850486,592.1434374898357 560.0323407106291,590.3123211569819 553.2543094664446,583.7954863567209 556.1330017774769,580.3538742869872 555.4970916710938,579.9309604675221 557.7125397882479,577.0428764545294 558.4135769673356,577.3632138469281 559.5072347077806,575.6663919161674 558.8883318800875,575.0172652382713 560.3660044453562,573.0541253313047 558.5272798246679,571.9188809164921 559.0869113631506,571.0612786046474 560.5414077405638,572.0380621753551 562.3030018118435,569.7594681646008 564.5823386888228,571.6206087527161 566.8121649779157,568.8554830814505 563.5940471457636,566.560872950925 564.7975870881183,565.7109922694419 562.7295250618008,564.2456691655913 563.9726016849196,562.2213507917921 564.8796315947252,562.5551022829944 567.9165273663762,558.3235899484254 567.1758659942442,557.4408540124424 568.9502226209939,555.5872625847201 574.4243144350488,550.9213961411627 575.1486744572728,551.5583831740026 576.4007993139472,550.3696009325844 577.5165339759051,550.3581046494703 578.587185309603,551.5917326784433 581.7637146301735,549.7132520965574 582.3883874662652,548.5359465955439 581.9829451018901,547.2962853196572 587.2013659314662,545.6176450094757 589.7293761450895,554.2278930110471 592.6471202878724,555.0723300133274 595.0900792582272,554.1235645664354 595.7025813461424,553.1395175585279 597.660735942543,553.974872987615 597.5623795790452,557.5504872143733 597.8608347748043,558.0093254596088 602.1580389800545,558.4838286056877 602.2289196138628,556.9890597528619 604.2106807282329,557.6926923435462 604.1172705329478,562.9816361912791 605.6423827141916,563.5726364433325 605.6444416491416,564.5590852809983 611.2987111645283,565.1729006889196 611.0679618379722,561.8505424971207 611.439500599603,558.5114537646897 612.0279574956545,556.587715720019 614.7522988671974,557.6406886067763 614.9513878854772,558.4515786751348 621.5518780535785,560.4238663602547 620.8969812082058,563.6159206306592 631.9582218987147,565.6643473640587 631.2914018732183,590.7505798919497 640.0846990843241,591.674442985586 641.1787091519259,583.799485439393 645.9217998527558,584.9617833915768 646.4348030044081,582.7958698756447 647.7661664072298,583.3971824707535 648.260116800753,581.5659959968343 651.4504867254554,582.693764597789 651.6087484380729,581.9039003814862 654.3351080661408,583.3012180990852 655.2007055121428,582.9449465787076 658.7448715956785,575.9286682800516 661.6577421988012,576.5979800085095 664.7627321722792,578.0072102634914 662.4921267927986,582.0509434108338 668.4407312361195,586.2141757986439 670.3231047711345,588.8223588725747 671.9401083576124,592.1003631506487 671.4291647295111,593.7235773252096 673.0166465862883,596.3449867803453 673.8754566860332,598.5465774294452 675.415104421279,598.8261415515946 679.2446847686151,597.5731052570894 680.3111266737192,596.3994189526547 688.2971335927172,594.409207504192 690.0249779471804,592.988549833347 692.8324038650812,592.7919791850861 691.6563195260841,589.5649410146656 690.3720859632468,589.8000126256075 689.5898981366327,587.3308990940875 692.8855737545658,586.6952881839157 693.55901532426,588.9074633396125 694.2391573925474,587.6791871874315 696.0331985791728,587.4207932962275 699.610460421032,587.6919512893412 703.0407082929331,589.0505051077039 703.7041014004458,586.4909784685328 707.396683383217,586.6746093417452 707.5090788804908,588.7297655833739 712.1053633963214,588.7653919575317 715.0752626593428,586.8869125765868 719.1856051524239,585.4690403474845 720.3873128762594,587.7997730389185 720.5166086380887,591.4032602540375 723.9849233694027,594.0838707931626 725.39652321927,594.6770619900366 729.2438237576036,593.5891947296349 730.7965323814906,594.2888833554904 735.1434828017367,594.8198367386902 738.7879284387502,596.4323485851751 740.3322641658422,594.2482048080518 741.3330002994092,594.7533179329814 742.2955199042135,592.6147579599711 744.0083305983885,592.4207319218261 747.8902031365202,589.0632891365923 749.793613579393,588.3631512782847 751.090343429609,588.5765298789124 753.1411939680856,586.7606464158592 752.3145990946773,585.5084513719023 753.3336490947295,583.7154744091922 757.5233430465906,582.3224150310007 758.9583405260047,580.5703504716686 763.7011944025706,581.3067984812128 764.774571734971,582.8656983914892 766.5973338972757,583.9762743331707 767.1678009587029,585.1952766566758 771.0555747273011,587.9637331214323 773.1939170773345,587.9711690597641 775.5229245342141,591.9182830643575 776.2830663973954,591.7910787702423 777.3687987552402,593.8126934996689 777.2657096212055,596.1469045211381 779.9632648335014,597.9724616859666 780.5884716772356,598.9706626581853 783.3161342844371,600.763732758337 785.5433602382137,600.9710131964473 787.9190078930645,598.6703101491657 787.818056866177,594.8786372899945 789.635619219083,590.6984581671784 789.917806254863,589.3540102113328 788.688998236379,586.6595508887141 790.1806631752718,583.9079441917529 790.7607220529961,581.5025147404951 792.6199876043045,577.785629265851 793.4110743435895,575.5729645595447 793.2812631435007,572.6396982768732 791.8236584060828,571.1396763145693 789.7370631871645,567.952337551989 785.829240743114,564.2444509747245 785.1311654203694,561.5364097592727 785.7789064628771,560.2271915622118 785.3059685866418,558.3021264139657 785.9512664193905,556.6766544633426 785.1596079495192,554.688928588968 783.670394916771,553.3062668142261 785.1144628764458,551.7336569444877 789.3702767748796,553.2818792622683 791.9608825526171,553.628164571418 793.2065001561843,552.7549919020936 795.0348976924686,552.4497274679849 798.1726449404448,550.3474535025773 800.6098065662868,548.1186685340924 806.5621419529914,541.1800752828115 805.0073346020679,540.1502002584497 800.8997483783528,540.3416762983805 795.5847675180806,538.9387164264186 793.5679979963114,539.6368586547947 791.8707604845438,539.4632023384085 791.0371214492743,538.5837766369468 789.3798404600785,538.7459526836126 789.0713169856906,537.2534729158469 791.710286816227,536.5954242860441 794.2860286360409,536.8328757882588 798.0016467882019,535.5532833826915 800.637066369024,536.4195254862661 803.4925625017554,535.661678243241 803.479384426406,533.6839565364036 802.5619711834998,530.3299468517574 801.913288880147,529.4634692595345 799.562162440758,529.815513364123 799.580719972515,526.1582435245339 796.1933983973519,521.4266638506099 806.7822920150935,520.8148508733804 814.8463127259978,519.055577342401 818.2867613155172,519.4130515835099 818.3460895486089,518.4985876300316 816.880891516607,516.2905578740548 816.8234531511171,515.0954419045537 818.5139330117843,513.3905364951638 820.8087933792698,511.9990652808754 823.0170009783286,512.0784343443802 824.4272988800045,510.05202676089357 824.348334607094,509.3284565981202 826.2199875995201,507.83460084978526 827.8418771939413,505.74609883872586 828.8583025419273,503.40077701458347 828.0960946755152,500.51697111445947 828.7444640059465,499.1652497090781 828.4713595846329,497.35254072813257 829.732092428131,495.21947734250017 831.2441631188858,493.5961299055057 832.0050893679706,490.7362883185812 834.4444735151395,488.1440199311691 834.6462232807507,486.8169220573959 838.8691542687662,485.83923545503626 842.619953200867,485.3481813243616 844.4304934794397,486.4252390407587 842.7679636360457,487.77205963481117 841.3326371449317,489.7933162690598 841.5206607984704,492.77484656334985 849.6357509644637,499.0155549846835 854.7146690365081,495.4911486504249 855.3746088628725,494.19153217590866 855.1353601324384,490.5719231284667 854.1108937039131,488.4241956193046 851.7157954182916,486.87368070950976 852.3803518684049,484.88039192424935 851.9864840370074,483.89133978244445 848.3213295521278,482.06680564140174 848.2551858099126,479.5406411206366 846.5921078566473,476.4417106406666 848.4769017975215,475.3586314421378 849.4278013404214,473.8049211896231 852.2960815630349,472.3438808084469 854.4842306632239,472.3614013899768 855.5116438037728,473.23020989394854 858.9093351066283,471.5903020319066 859.8474384032523,470.71593948276166 859.9854446557209,468.2974424447639 860.6114624828089,467.681508604361 858.6682169118367,464.2611524835854 857.3352101423695,463.3063772268051 855.3509408160727,463.4154023338624 853.8981290033455,466.1489973273504 851.2918594641421,466.43509863127616 850.5766733631493,467.54017185344526 848.571703714905,467.62990573149654 847.6693212729922,467.0513207790563 846.9234109426749,463.2994649719775 845.072050556749,461.7119363569168 847.3338598642299,457.1388195673893 846.7880584722726,455.72686862815186 847.396948020781,452.21758472040983 844.9220782160116,451.5622225146976 841.4334435133309,454.4604250596301 841.3998668813582,456.6921111113255 838.6044937060138,456.96514837321047 836.0327341718781,454.30213723929825 834.5305087125056,453.84437796179975 832.7056840159291,453.97991428771843 828.7599072162222,456.11902950333115 826.6398409493858,456.0649222277315 825.2885188621865,454.0761420912261 825.7981442581665,448.6960769332312 827.1439748587462,445.6160099730265 828.0886696828159,445.06275331223964 832.6990959433376,444.49832264407087 836.0474495245702,442.1214014709203 840.4162353631651,443.2136165195494 843.2115572255237,441.37370479177633 846.2133521581693,440.6373040553808 854.5633083247897,433.88970266431215 864.5329383660425,430.9668583681195 873.418759206634,426.1404346154836 874.6094320602033,425.25663352825575 878.6607772902538,420.8302468374018 879.9738350148285,418.58008582045795 879.9307261648781,415.4927484184227 878.2469785523496,414.172761447741 878.4019484073892,413.53853983633337 883.2243337572968,413.0956537661682 884.4753808392828,411.4578518457896 904.9774816858344,389.16947830346055" /><polygon fill="black" points="1005.0717905902848,350.6580413737303 1006.3560865429879,349.92200700120424 1007.1969582967749,348.59255664600323 1009.3845965031454,348.1516851987976 1013.6957003959246,345.73493331747864 1014.6434663676533,345.903490930203 1015.2917263659261,347.25106664722614 1016.8226495523603,347.5106384610166 1018.6372091902679,346.5389780806403 1020.1768554716474,346.3267650526903 1021.3520855603279,347.3914761961331 1023.0306861100742,346.9458558559721 1024.0,342.99007272647407 1022.7420135140576,341.39526832890385 1022.430308354567,340.04920610444674 1021.2614629456718,338.64010035268063 1019.0107888786944,337.9424841986688 1015.9729743104401,338.1741681840509 1010.9009078865188,340.33615914695446 1008.9709164327069,340.7251720614363 1003.5810037346776,343.46169488744226 1001.954519978011,345.63551140898574 999.9669744939084,347.08528736884597 999.9314795139804,349.0006977085902 1001.2693370374164,350.5970409750994 1005.0717905902848,350.6580413737303" /><polygon fill="black" points="1007.6242265127161,353.23961206206184 1008.8971375024765,354.0277175303156 1011.0643188335491,354.0112018478369 1013.337128123135,353.2887265740521 1014.2293153879448,351.6864923789278 1013.8543975548799,349.6643847973147 1012.1387497469456,348.0186105542265 1009.9329672903539,348.30341813518817 1007.0807016929565,350.5536633488468 1007.0076285411477,352.227687827887 1007.6242265127161,353.23961206206184" /><polygon fill="black" points="944.0882490448613,410.70753498684604 943.1665961077033,411.8419028489932 943.0522302814427,413.46325074128157 943.8680416520758,415.3001416696612 945.7710471655066,416.3785763721828 948.1477304355286,415.74795794594274 948.8935786226433,414.5631145993915 948.6354226878897,411.9295970064382 947.0467137001731,410.47003291593234 944.0882490448613,410.70753498684604" /><circle cx="372.2999877802456" cy="71.20399676466263" fill="rgb(100%,100%,100%)" r="16" stroke="grey" stroke-width="8" /></svg>