<?xml version="1.0" encoding="utf-8" ?>
<svg baseProfile="full" height="1024" version="1.1" width="1024" xmlns="http://www.w3.org/2000/svg" xmlns:ev="http://www.w3.org/2001/xml-events" xmlns:xlink="http://www.w3.org/1999/xlink"><defs /><polygon fill="black" points="211.63906563186595,1023.1829580102584 211.84424275385047,1024.0 215.42387675156004,1022.793763558097 219.41486985849846,1017.4641049089688 222.54990341257175,1015.1177174394974 226.0511248573258,1011.2646621012736 236.83396009604778,1005.1246634993679 240.5780361016082,1000.5630819866016 243.52969037038633,998.4630766520263 251.82941435218018,993.8618283739766 266.07761434128315,988.8173295334481 270.67066535022127,986.0599645617491 280.34561724068175,982.3829106108064 284.48854639096055,981.4604447771583 287.70454337762703,977.777259258228 292.77001885028193,975.942452321418 301.06965061764873,971.7933149801755 310.2703965775922,963.0243769984319 312.5692303431032,958.4117292056295 315.80527214860274,953.7935831995825 316.270993881073,950.1130780487453 319.4898826945406,942.7265461206433 320.88269234454447,937.6493173357817 321.8102780175375,929.7997426919213 326.414909682263,917.8001282570012 331.48782964223,912.7218927293894 336.09874257092,910.4275558999208 340.70835323817477,909.4899931640032 349.9325019652408,906.7220390982601 355.0055745886651,904.8736047938121 359.6147611203946,903.9476168370326 367.9161852341284,903.3878349315553 371.8896739284026,899.4800400720217 377.05723650848944,893.1052307744948 379.26582526719915,892.4668305579637 387.40031419009415,898.417054503951 395.1009416470168,906.554360367864 397.1212157000908,910.6452999635399 397.06510652254457,914.956454945829 395.74465901158356,916.6057233989136 391.07582918159295,920.0225210698316 385.7592530428064,926.6530948501144 385.4639256728053,929.9640628917429 386.2601065622456,931.8158201481864 389.25177527138237,935.3647148131804 391.07274731012774,936.0779748820613 403.9160825945577,935.8751503569422 408.2737289341072,937.6905378328264 410.25196044319006,941.0309429955222 413.8276387428427,958.7487207319291 416.93107629982654,966.3048377524032 420.0209359900588,967.9708765256502 421.80949444184756,967.819004183868 424.79415402012376,965.6944138758927 430.86161959809664,958.1255334524232 434.0551665025321,953.0083089407055 438.06793845154965,948.7678866427541 442.0996837852563,946.606143717805 443.8954628100955,947.195905054088 447.03359634535843,950.7757788970432 449.7787178110975,955.3396006990229 454.4095450838389,957.8286788775757 461.43657953364914,959.8735370983409 471.33069374380307,965.4639500793172 485.79425735565144,972.7472251711977 492.9727862390577,977.7777529959432 496.05778845249864,981.3982377830099 500.0171976590632,983.5580990938105 509.0099478930882,990.8135652931363 511.0807026531264,991.7959828733083 545.7025953118075,980.145512875654 551.7176487709719,974.9580803503846 564.7474621930851,969.1355446415919 573.0052632743608,970.1093083387454 576.3726940518168,958.4790228475381 589.2953895600825,947.13573334163 596.0120411825144,937.2234605572281 601.8993759627585,932.0027567245126 612.2804277382194,928.6380011139346 613.5612887706859,927.7365024299804 614.9439958070732,920.6310204456631 614.5292214615122,917.5084676659527 620.7647111428957,916.2350920447727 626.0624748707645,915.7404777090608 629.9351287685572,914.6119383184505 627.551514526413,910.1919742530387 623.0229905496514,904.3859630037628 623.0705926685472,900.3321531125441 624.0878897546361,895.0655764718209 623.2381357742001,892.9771564683406 617.0405302958638,888.0900687562552 614.4500255443236,883.7800207227431 616.3163362677548,881.383868269228 619.9971667972455,879.5437423581974 624.6110346903114,875.8531437299658 630.608202638827,871.6962064565316 634.7486336559292,869.8511158920571 640.747462324046,864.7873163406774 649.935307896878,864.3292891474961 653.6343690999562,864.7942758196602 661.4596436294095,863.8756413645908 672.6473943100075,863.5721619483382 696.4372401743124,863.7610464144143 697.9557235046797,864.1903193518503 699.7621056927087,866.9685905927928 698.5910512819845,872.4367971356115 704.7042456163693,875.5009103558358 706.554793697116,880.830373575018 710.2155381004441,878.2786311124175 716.2117531837343,876.4324428360575 718.4137893993259,852.858997527497 719.7128756654265,849.4785621242354 724.7298020986736,848.9377336445061 726.0048037970902,842.1016880067075 731.1690306163317,841.9743939040688 731.6057338316348,830.2445157239481 740.6253504843983,821.2834591839235 745.673028313906,817.8841049687021 749.3724645228525,801.8726788413325 751.1812724538313,797.2453988745441 752.516848119352,791.2339788325728 752.0167544307437,787.5460265551321 750.6040221786867,783.4077870533326 747.3545372486807,778.3446853790346 742.6660539092863,767.2916314003785 740.2925780235311,760.3868172562576 737.489930495211,754.8661459429532 736.0829800114484,750.2655042399304 736.0332748113169,744.2608556658304 733.6856612408255,738.2728022768933 732.240591852965,731.3580885856001 730.3811840128064,727.6689259366992 728.9379041202309,720.7662516577126 727.0554832647051,714.3209610417168 726.9433917313979,701.8531547927714 727.3568293668445,696.3079341322206 727.719117993944,684.7700638136796 729.9724235492935,677.3559429978205 730.3594475588652,667.6696276793095 731.6978815705,663.9659274438445 740.8999132155956,658.8282663249912 742.2019286660774,655.9442049632725 742.7090472036957,652.4060593496768 744.1912985621196,651.8355899187641 755.4658891702746,654.6520084419872 766.7480767347199,659.2667952683682 773.4999259511944,663.409205222289 786.9992486802352,675.2911826422096 791.5107730975334,677.5813596297241 800.5380128754789,679.4558588173686 807.3109299266184,681.7800482301998 816.321907846289,687.733957470999 823.0870628646192,693.2112046539529 827.1261046609674,697.7667521437672 833.4089690401928,706.4243630436267 835.6683601422975,708.2472730066327 839.2570001401242,712.8077979089412 855.0090805503346,728.7702769365483 858.6089926122106,733.310386718796 865.362968571241,740.1545965071273 867.1590342955573,742.4144547965182 873.3655704392896,748.3481299162963 874.1218268660385,747.5961761199704 874.8013741127669,741.0344690478353 876.5920122681498,736.8078381888276 878.9275319002671,734.7757323739479 883.1010427625007,733.5645503044022 884.0746825778514,729.9042914368463 885.9602946709125,726.9227529944585 889.8000651890476,724.7934267289565 889.1736199084446,720.9840381987021 887.4724068078101,718.2027727358465 883.735164061377,714.0015383446965 881.6148927774095,709.9395250197774 879.6649102941772,701.8310526134637 877.3208037756962,695.9194480009495 875.6343446808462,693.7130686264763 864.8661610880923,689.398225091729 861.6994345482202,685.6647270918223 861.6953975265034,678.285847193818 862.890773492032,675.0822666997183 863.3290421174038,669.3341166732503 857.7281826989707,666.829378941924 858.5191821662571,660.148244720534 861.0250803878224,654.6669357162702 865.8139610693273,649.3340256600916 867.1346505625665,646.2342362637444 866.9544845931839,642.781122815063 863.5702588641554,638.4503783785622 863.5505412890038,632.5748205608359 864.6490656919843,628.1059002502382 866.9928552322763,625.1615062785645 873.7638289643485,619.7364846015087 874.3194367064702,613.8669040728518 874.5794587872999,603.6183899331653 873.2769772851107,598.9938231271959 869.9683867499087,596.062940036735 868.5100715801314,593.6135874668953 868.442797255299,590.5113840679281 872.171860514811,587.571310121921 883.2779517535298,584.7276654452241 890.5872209394114,581.7437824742074 892.1113060081029,580.6077139553419 894.2008483003743,581.2764286200411 892.2640434946011,572.651535848815 889.1174139667736,568.1106117458401 891.4419021244245,559.057200201132 890.9766259658562,557.0383458173958 886.6438634938874,553.1544868924381 882.8801605023319,552.683433142751 881.0599905502856,551.2997717422016 882.4512796215556,546.3433230679921 882.9387552306443,541.7996255184778 882.5231166211983,534.9993444893013 883.9057953350225,531.839779994187 881.2324456033297,525.0362226809825 876.7045008002157,521.8475416016904 874.4384927649926,521.8340431198667 872.1866925752843,520.4558345094626 871.3025207112014,518.1873214950308 871.7857907855997,512.2888136877427 871.3457016270646,510.47919620682967 868.1856393242093,508.19698691244366 866.8342756722834,505.92356841521064 866.8917196787206,496.87084648834775 865.5632730338235,493.22276791643515 859.2694460851038,483.66129501228136 854.7727125067884,479.5697937824175 847.5899098553015,468.1934520275727 845.8127464465755,463.64998983925113 844.502147808237,455.0350024034698 842.7460696592033,445.975068014699 842.759968944859,443.7078432796526 844.6267544437501,434.65611175899073 845.1165906771928,430.12453965256964 844.2928791576581,416.9718776295713 843.3993984799306,414.7151363360016 841.1503812161961,412.4339622232087 841.1715119556529,407.89942805964563 844.3743600829806,403.3885750691471 846.2196930516417,398.87335610193895 846.7131681089842,392.07643986728567 846.2857239763301,387.5371547494615 846.7736280257512,383.0176066029926 844.9944946188772,376.2066689958016 840.9495292338602,372.10337587033086 838.6801319099864,371.63704164930914 836.4269373791261,369.8080047629121 836.4769509031365,362.57620782333754 836.0428041776235,360.2840936253566 832.7331946344557,356.3612842328347 829.373160891791,353.7002111061954 823.7569892957962,350.3173891285476 819.735173936683,349.966677483039 817.0163452920361,342.8900049254179 815.720349704019,340.6709634154016 807.3301319115568,330.4474227646607 799.9117159237478,323.63913911691986 797.9773614543682,321.4130143964476 793.5078107391003,314.42139097840766 788.5219439484014,307.82601892556295 779.4345232051103,296.7732448787766 776.003107151241,293.4248266167356 774.1652376099354,290.7592529566655 771.8660961946448,285.00100008922664 769.2234005867651,280.30629768912104 764.3238529444834,274.1533354112763 751.8973815148908,272.11767823754303 745.6544131856876,270.6026753882843 738.3979627933676,272.01893692098577 735.2347926169411,273.0990387231735 732.7112920739664,272.1379380670295 729.8404751758337,269.5526981486752 726.7724244591009,265.1922200708382 724.5008021224565,263.57651629326926 721.9852434638977,260.4423578407533 713.6048351851446,254.17607395207415 710.1411652968651,253.10142103582643 704.820721704612,246.4292869115435 698.2156348532245,243.5434953985557 694.9120612990783,241.16977915716745 686.7282248481106,240.66556375550135 681.4773223182287,238.87218282395497 675.7549286087842,237.50335593966872 674.5994750756125,233.26655818303357 671.977530202616,231.7184385935293 669.8961247228173,228.45583983620998 665.075302596505,222.90587354787158 661.6017779840788,217.41169923669668 659.3731383270298,212.22146954573418 650.4343503621517,207.98579098718142 643.8602595761022,205.80781627199178 639.2142703418887,205.40325274581903 637.6978013919291,204.58729043767812 632.5571079585317,199.0225218325578 631.3443812860071,192.90916791050984 622.4864609719658,188.10003687374183 616.5841247361061,185.46864702678818 613.8007898315349,185.40523948591374 605.8580329687767,183.69990779205727 601.196900558085,181.66584091273478 599.9086956580071,179.82706310825245 598.8367799646767,174.85491994219274 598.0156454958511,173.67507411871236 593.594121427455,172.6085877256047 589.8189832015858,170.7376720420691 583.9768032288802,166.14789071104872 574.3614265646054,161.9341096585846 571.3810513982055,161.2102598392072 561.3252956272462,156.8355725869941 550.1062622786174,150.96840986555685 547.2437823861604,150.81047236371205 539.5323959550202,152.34543289730289 533.5833496343347,154.34019642142493 524.4848306225703,156.2150962234988 514.3873436457243,153.26040135790197 509.7766434373403,153.7875505389958 505.3146206087373,156.6825465662389 498.35976264274296,158.6634744857132 493.39266506592975,158.85802438823498 483.34750181180607,160.28863109969257 480.3314436091797,159.61502674810174 475.74840736281993,154.3821574698709 467.3326945688305,140.614665577319 459.8875329691505,129.78215283047382 452.933950335394,118.50530311950763 447.2734295959066,108.59778914558842 442.06368594555903,98.51295967366764 440.50991147902363,93.83088888667976 437.98464457334285,90.59366967961353 433.76824080924695,81.61705619327233 431.3415926082963,71.60821789072395 429.7253102174113,60.661018044391426 425.395692994533,59.026399990669574 424.315543097277,52.426433771701454 426.558056747903,49.02610546093047 424.15160039909637,40.249702653664826 416.4463470492306,5.293458156309157 415.51134423474383,0.0 405.80424321958935,1.5508661855228638 377.97079169494793,5.184134871465062 355.7225303935646,11.437522986654471 350.39098322235037,13.106582274171956 336.01911696417693,13.937181763865283 317.14355122023625,14.795445485627056 310.9884035311051,14.883929155634519 289.5824243277678,15.919569548891786 287.45114769168737,32.367333611539834 285.20513376648177,38.50009369323686 283.4918171628282,41.04561676746971 279.6100852236068,44.72099451574695 275.78866582571806,44.657768917701446 271.9948289336463,42.01347414801944 268.5976415158841,37.368237376944194 266.20523670404356,36.464291578534585 260.8385776424813,35.948886713603315 250.88897812035796,36.6374682180234 247.27702618868352,37.724510567258335 240.18354055435714,41.25927063427832 227.84929193186252,42.48782810286821 224.105168190592,44.56367152409234 218.1679816394915,50.052073816983466 210.01515806609217,51.19420691002756 206.6373167220769,53.28699295747674 200.93134503582746,59.493874377176894 198.52604412866108,60.89279007069706 193.39526066474394,60.08117915675632 188.28825149277404,54.0063860704679 184.72413905239154,51.02570098650631 183.64893772994182,47.85575507636281 183.51863592022687,40.68457143227329 182.94057682287212,38.5250208371059 180.80936779118252,37.62366106436366 176.2402148478411,38.40790270397849 168.90983948308627,41.568483869424085 160.218000150613,47.00286198301649 154.32897376051662,49.6209450726933 141.38357787535844,50.752081217517 136.36814667375012,51.96904079672629 132.41644450778338,50.447180785612204 126.41740453823833,44.069799857702606 124.17282222454006,40.60469395370774 123.93292718766341,37.36625989353297 120.87454721241777,33.06073301709705 118.82902092741551,31.852260703611478 111.98099472947894,32.73371120376419 102.99802301803261,41.8985085547323 100.34808899302035,42.729508367162225 88.6631003329826,41.18145542608852 68.66256036393723,46.59622982416272 48.26253229203841,51.735287304503686 41.73830272307027,58.887822253797026 38.544104375495074,63.569835144487 36.533871903915276,69.41993169713908 36.17548087246291,77.00423101114052 35.49783666830871,82.014179198016 33.73836057988988,87.30312348061977 29.927494157523217,92.40783393125696 26.406159711234025,94.32015428495572 23.962344372794497,94.47766883013924 21.98349243674183,95.93306282536628 20.943120392064777,99.97434758991994 22.993429198201326,106.69692781695744 21.53453997698404,110.57697569137235 18.14310041957048,113.97693520835594 13.23246587268428,116.4024435365003 17.998109500021634,130.41086753794514 19.096448580790526,131.92359521560468 14.466084123369349,146.41468903115083 9.843085929451865,153.93726826147474 18.37857172444606,161.09749060095362 32.85238686926855,172.2244008021405 35.447765093782586,175.78044441302507 39.67499961948285,184.67913902761654 41.06722961363237,188.83195914827263 41.06495262980474,192.52121912722953 36.91878947144575,195.2968777641945 31.83630529633942,197.59773071849474 26.767652213354637,198.98587731907344 11.99880772623514,201.7528388762263 6.468711455226884,204.52861768371042 1.3976571325932645,210.0778192204824 0.0,215.15091420734075 1.8509934286439742,222.0696110961743 6.452081271808281,227.13275580803213 12.469234889945055,231.2967300059678 15.214752805340057,234.9880360870344 19.3778684403931,238.22052915897825 21.67244739143289,241.44439321448135 28.140297198315725,246.05498943590976 31.35183762491091,249.28267345592235 35.04735740726374,252.05525447136483 45.64202638525729,261.29186362311896 53.47362651721171,267.30737845004273 56.688427073150514,269.14936965629795 62.68557510629207,278.3876520771779 64.51917129657474,282.53880176071743 64.83107743762085,286.2247002008053 79.97834458496361,294.70928348675477 84.08898128649533,293.7333986996672 84.38000183192985,297.7184855796826 83.51155555431474,303.6022128978476 76.92472976407235,308.93990726849563 74.25994034767344,319.47503691689167 70.05677641502835,321.74005697500104 68.62095771594595,335.94661124553113 62.75928616710396,341.50181777856983 62.18528473405984,346.1393825005256 67.11631578229735,351.6921355179742 72.08320146921632,352.51664647916414 69.14434307646016,362.72189853926204 89.80042522394312,422.4458483011938 88.88298660817263,428.54998160544733 87.90758351614386,464.3796742962079 91.27510855290738,469.6146892277442 91.64385666132478,479.8854652299574 81.1097484784584,495.70560196882104 85.0328690798758,501.62650490568285 84.31150586541266,511.42267133151677 82.8495976292374,523.7952294218699 88.5909135226933,524.2907899842018 88.75991549601201,527.4557094750066 83.79357207046368,548.0249402789862 84.87064370985932,565.1537293112422 95.5346049514958,569.3992006812639 95.9674406940981,580.8710270304193 80.79041078745509,585.3198991325673 81.3719073472236,591.6252060896772 77.67330467955044,591.570110041443 75.30707762539397,598.7462210089918 76.49680645670942,600.4909209797217 90.61247341029734,602.6931587162444 90.6220595532066,607.512268661374 87.39384453424736,613.968067262972 86.48577550292778,619.9657297383837 87.39640979945813,625.9682757850665 87.39642682332435,633.8189422081284 82.7799352652505,645.8048204714539 78.19161767817474,650.4127933848383 74.5134205915912,655.0241745320375 66.21277932090359,662.8534666357059 61.14579327951858,671.6174602766112 57.925555561874376,678.074926468021 60.22491326623422,686.856727827972 62.51113237514162,690.5499188403608 65.27204616652149,699.7908745262661 72.6318321906809,717.7973848331949 74.46885097014255,723.3352690275801 78.26532486310653,724.1536928668343 80.74854252871383,732.8473778951065 84.19110307252565,735.2124337236648 91.59263494170476,735.3220405670723 90.80558625833773,739.8639419528777 91.51892529204596,740.3067259081046 88.68741737934968,750.8756916718085 87.30557436163498,750.4953748395362 86.6258639802975,752.5720972401339 85.0432089185111,751.8289282444282 83.91803096511076,754.1985881982612 85.70524632075512,755.7368921571053 85.88780210638224,758.7009058071392 83.21883070411698,762.4871289463367 83.46859689690146,765.0199070845033 70.31276649088092,759.7963643571848 60.64246021425328,770.8499617404315 57.88137470982229,773.6272439749198 56.04133324042851,777.3109044776704 52.82666787671726,781.468502885031 47.27644867471351,793.4597174019023 44.5116874101432,799.9298811918918 43.59244870527858,807.772736429919 44.50401569382602,820.2328722445388 48.65063940503368,826.6942601495293 52.8013266061755,831.776459405145 56.47476001351536,838.7130361581021 57.39444509153438,844.715756115512 56.94361676643806,854.3991139124178 58.3185419156249,859.4818303979368 58.31744984334935,863.1769128894892 60.16098402195706,868.2565536560558 64.75774180911208,873.7973843997197 68.89019271199436,876.5769490995435 76.2701591239655,877.9712140000915 79.4887768145548,876.1271664573935 83.6319620962091,875.6839021992334 88.2320916805431,874.3004054780233 93.74687320736625,873.8470027618554 108.92431307051243,878.9672567091371 118.26690787021838,884.9600380063131 132.30768352950594,885.8841150882358 133.62221928501023,889.7007327232598 134.78315839679908,896.0662345533119 133.87414250269677,898.4513913285284 126.81121217607178,902.391619069461 129.6009243687053,912.7150727639458 136.94656591586102,930.2753530331222 138.33283317829498,934.8970728031245 141.08591699528603,939.0640961365029 142.4689306659358,943.2213383306799 148.44220342144914,949.237972001934 153.94609145241395,957.0991419027823 157.63357946795168,960.3424857504123 170.47444988350267,968.7002482150965 174.1626208268587,971.9331778647969 179.21391396052942,973.7963012461393 190.69371030205252,980.3017494867355 196.04408481476548,985.2162147531147 201.8040030341518,987.3882089204743 208.53655714432986,991.6422702810888 216.4230330339774,994.6035388305063 216.33285878367872,1001.0391960290918 215.32034832020486,1007.7172314162223 214.7220272133907,1016.234441543134 213.8669934844601,1020.0017801760578 211.63906563186595,1023.1829580102584" /><circle cx="383.2828749060056" cy="849.5812614107435" fill="rgb(100%,100%,100%)" r="16" stroke="grey" stroke-width="8" /></svg>