<?xml version="1.0" encoding="utf-8" ?>
<svg baseProfile="full" height="1024" version="1.1" width="1024" xmlns="http://www.w3.org/2000/svg" xmlns:ev="http://www.w3.org/2001/xml-events" xmlns:xlink="http://www.w3.org/1999/xlink"><defs /><polygon fill="black" points="19.6039450916118,892.6091096376636 22.656817451262786,892.7069811446245 25.445154674405202,893.843860675315 27.258892148286044,895.0840028518408 34.360370788864834,896.7105345286974 37.10707799517218,898.6542889076404 41.41793797315085,898.9791017508898 43.71271193834904,897.3820417051954 45.19376362825856,895.8320455223688 45.60365085879399,894.2064767529647 45.615673470976674,888.077485426439 45.2681403296079,886.9988370094123 45.068014122669595,880.2720466415851 44.876900442560114,879.2813724118555 45.00621371815439,873.9660977693374 45.706880330745264,871.7172364510093 47.81293156205131,870.5205501476545 51.022006553299136,871.6686354367249 51.21806298748868,872.5048936440232 48.85561033450596,875.2390908076868 49.8072328890745,877.3429750107161 51.02501211276713,877.5691190196416 53.92626200995175,876.6651479732564 58.492781936045546,873.8761580697437 61.555071698312084,873.3820580400222 64.24229783545523,873.4570216386401 66.90660652144363,872.6911432916329 67.86203042298081,868.6570642347756 67.48434945121032,866.7575515222007 68.81896029698046,864.7775823928947 70.62913417021166,864.627201194922 73.83295583122384,865.7027760059096 76.28961258620149,865.7501060027394 82.71199494405948,865.1120662564429 86.25634291460884,867.5044515071377 89.1125566168149,867.7385632456981 92.00821731084508,867.2282458996089 94.32896159684297,865.2273074425204 95.55151954415109,865.2970384763696 97.12220707982408,867.9892885777008 98.9574917639699,868.823695259023 101.35484937090474,868.4635206939955 104.07370697407984,866.7237778960116 105.73021199552369,867.9474379653853 106.74250751829446,867.3464668175031 106.97665959343317,865.974247831261 105.98228469109827,864.6896781846353 103.56214567646649,863.9917183067666 103.38316213391909,862.8355822779749 104.44045910203027,861.5834905504705 106.32212185856103,861.444669927349 107.26519438678764,862.3040549971838 108.73740033820249,862.2969613912129 114.36940412260888,858.1805221589791 115.03629676085089,857.9636976685125 116.78353513585476,859.0340012353115 119.60585849671116,861.3912004312926 122.04864858216472,861.6014651361634 123.32633377357013,860.6880037548613 123.62543094767416,856.9337014029798 125.98406587621827,854.1976696930759 126.02378069006815,851.907846853584 125.22201826627682,850.0599077149503 125.7456430913601,848.0440826444963 128.66105176295878,845.8232327015272 129.79265817118588,841.6295958789526 131.28797640235612,839.8198103542388 133.82557172217557,838.2296650998597 139.551975102246,836.8937894055014 142.29770048555866,834.7503227155623 143.43114887560267,830.4736244242845 145.14319088171507,822.6200556372527 148.2450995901867,822.3319630550527 151.29503742992654,821.1105959772349 155.23977234460702,816.9215215226336 160.2234425127072,813.0431633123403 164.86261255593743,810.0154826722263 171.9888849333235,806.9904972483437 178.1620360255129,813.5907249103578 191.9607794847831,828.5666021845171 194.0164873886175,829.996784013071 203.26754446480334,835.892531108868 208.5866756175437,845.4009483692203 218.78152665602485,859.1289835370703 227.51401512902933,872.1709832587422 229.1477181256807,871.794760705196 236.28919175252366,873.9249439457653 243.0136444512776,879.9713872927343 245.19242459082483,884.2771580300962 247.36070456207426,889.2350305875668 252.07093935223537,897.5232694021242 254.8510639462365,904.1487894596988 257.57777752454905,913.3653404129687 259.7679162049874,917.3390272886056 265.1668441901276,923.7007323105455 269.64199473878614,927.4007668249451 281.2344527309616,934.2535333219258 293.41655819241555,943.083546733885 298.1791582037377,948.4401525027586 298.38340998006635,954.0062204335883 302.50488413894715,959.0134130655198 308.10076842501707,970.2870175033037 310.90949885447407,975.5877283229205 312.33452638105035,984.1277801417951 312.7605649001138,993.9481414331406 314.24709906884607,999.5539124693411 316.77123392435465,1002.895982822255 322.2084590355037,1007.9413700068211 330.22242578946924,1013.7155392639638 338.2736504891675,1018.1808705915629 343.0741488543519,1021.9104524369347 347.92060048100564,1024.0 354.13103573567287,1023.8330919928839 355.83868770364114,1020.612300795232 355.99285813042724,1014.0767553064845 357.0578120506736,1010.5043540779733 359.41814011204673,1007.3020225130153 361.4693334691306,1003.7575249303532 369.68313261875187,1001.674830914585 377.1941092420601,1001.8665349104732 385.0223947426431,1002.7189444461184 393.1586795584646,1004.2245542315515 402.64465848403,1004.1260573305142 408.56073533042365,1003.293585251303 417.1049311889784,1001.8597820535105 425.0317275911814,999.4224149557703 431.0018173114237,996.6085625254202 445.85625089403766,992.36878137876 454.1432235225851,988.6212796726754 460.7707477614642,986.1454784244072 468.0776040711229,982.3800931522578 476.36140506768265,979.2744201727529 481.97339024978197,978.0886966381488 490.21182836063946,976.9505798140607 501.4527437169258,973.9123947596648 512.6676135219816,971.8578847776366 529.184297084496,967.6196354652745 551.5830980482589,964.4976414771231 574.2729886494844,962.0617371822738 583.4778296225476,960.9535786053963 593.3427629773076,959.2278681310846 602.5293292397383,958.4692917352826 624.187667229501,956.0477440287652 631.0674330391969,955.5693621563635 635.998955281207,954.7091391128727 644.9841492311912,947.7501727716873 650.2906266854794,944.2852247520239 658.3109043740368,937.6340069517079 666.6897748956878,928.6880987151633 678.0892280759334,916.8745260044501 681.8037281038395,912.0635906127443 685.8611702949881,906.2883522906122 690.461927284219,891.6948359205244 690.1528954884942,876.9720433766353 689.9647568918192,871.7447587149875 693.0343300901195,866.5884330705804 697.14448497999,858.8472504657619 701.6127129659727,849.8102078295583 703.4917654794152,839.3943736566284 705.3138739440996,831.9195469574643 705.4274408528465,827.0230481931935 706.2555742195501,819.8569180176968 708.4030392223392,812.0610853836521 709.5249743647711,806.2067671132489 708.2357531498706,801.1425677907107 703.9952015474862,799.4856126259849 702.059235631772,795.5339178496577 701.4260809880645,792.9190677475964 701.1176116190355,789.6399437341622 701.1433254374758,786.048680122316 702.8126743740723,781.8144047031535 706.7696292452595,776.9343840572005 710.383411441804,774.6734928942373 713.3461604086107,772.0759834912624 716.3166116568424,768.5058667831696 718.9610823934136,764.6072182655728 720.3047840613655,759.3833706787863 721.6308346779468,757.0972288924736 723.6079080436302,754.8285042748554 726.5701131022355,752.562472437565 728.8642641357137,751.2727049092741 733.4850638713718,747.0502217418109 737.4622378672515,740.8664000822905 739.7812408438938,736.2984164174977 740.8215276519503,729.1129438554282 743.1791517944372,717.356427044798 744.2122519352797,711.1548946408923 743.9190605604329,705.2729069966852 744.2922193184869,698.7248412450056 746.6814109778157,685.0193237417395 748.3880748515254,676.1992804395234 749.4602071365296,660.8409156518219 749.2068715325843,652.006002361583 748.5806945937455,647.4333226500719 748.2964972533654,641.5443688254254 747.686764179695,634.6776192393827 747.401980569429,627.8087691068416 743.6090665489683,607.8455932116017 742.6754378701598,600.3213943653445 742.732611739351,593.1232470050754 748.0765239157088,578.4399422067057 748.1012766811901,573.215048396936 748.7750127932986,570.2775833567991 748.4903945104759,565.045130887825 746.2588463680778,556.2132277068598 744.9931447313785,548.6751386452265 741.7633181263924,542.772568991557 738.5423642119272,534.2580132200775 734.3235420293614,529.6440217610127 731.7193224084507,525.6975756448502 723.6506057506813,510.9345870149292 722.8251438299102,504.5770475138903 720.601622335843,503.5921881647183 720.5146795802697,501.9592588524389 723.8584839253205,498.97786635570776 718.0674750814337,498.47255634700286 715.2467379403042,497.27819734520745 714.3349176891354,495.1183723317962 715.7158594679562,492.7379548346961 718.3189720659519,490.5737979350034 717.2887999064278,487.10214788369103 717.3658808846928,482.3991065857905 725.0889366756969,483.497332687105 725.695348262853,483.9457674884716 727.118946111452,481.4232049822426 737.8437487420989,486.3094584152185 751.0723317087654,478.17242137964297 758.7660409938632,477.5247803566707 761.3378502776568,476.2770847297769 765.0838458805579,471.31287669291726 767.6447714719405,468.8273953063741 770.6552032140559,468.40547039352293 772.0724559763859,467.71742533281747 774.9818660073686,467.17847737524653 776.4990791360405,462.7077739497538 777.0804424435851,459.94672568968076 778.9560102097216,455.6906393176828 780.8330567758459,452.65188224643236 781.9502865061121,451.92641873541356 783.8405870431071,449.3513977334443 786.8646642587023,446.0211837538176 791.0971986674871,442.06907137673306 793.7136403570363,437.564466886329 791.0488899184076,433.2205259067305 787.1643700830905,424.69162773441565 786.2067246335258,420.4515463097023 784.2685774541317,415.85736367962045 782.6544007223509,412.91169811542863 781.0414808995544,408.32527609545775 778.1392567440118,401.4417537574552 775.8935825458966,394.57258681461917 775.9491158237785,386.72059600708633 778.3291980635391,374.646331797127 778.0132905044989,372.022331660344 776.7408344556749,367.7658608605225 776.0524136552133,366.80076499454947 778.0648679114898,362.037378884277 780.8535764757706,360.8274619964069 781.2327485138901,358.8482643451172 781.1329786731495,356.1250737455757 780.3849788097823,350.77985444423086 779.6872968574976,348.56860211224716 778.3410591653515,347.0625967248777 772.4407513860225,343.62217536187734 771.1839799752503,341.69623135548227 770.3771569678916,336.1649180550504 770.6982515224752,334.3402620192022 771.5939675987805,333.9285997630452 776.5755821925002,335.4399966240403 776.7472270434477,332.5917612496588 774.4631520609296,331.310404533691 773.6340573542701,330.30036966819796 773.756794036832,328.80991497893865 772.6059554853086,328.37998709001863 772.6642196137356,325.32300375711156 776.3467315415354,325.31943987151624 776.4734309731266,323.35558631038873 775.4593304624067,320.1996256165032 773.0969125701174,314.68347250013676 773.8944274065786,312.7659586488686 776.1087212543462,312.01722246604777 776.3654576184906,310.24105648140437 775.1672903923355,309.1305130313792 772.4683398881435,308.6844183895855 772.2451787534475,307.1440662487953 779.7374713918034,307.68643636395984 785.5016013149062,308.49541785191104 790.0960445308948,307.0099373881385 789.092115522384,305.0602810831426 786.4852846455142,301.11498384215815 790.7104366510769,298.23156526067817 787.7709358027937,294.6687920079462 783.5517599353329,294.350775548952 781.7783921329436,292.2593725518742 782.1396492705719,291.0121482579999 783.8013420796748,289.9508977370614 783.5202657501367,287.533713060963 782.6391998097122,286.39087400569895 779.974365091633,285.5338077237168 778.6918085474414,284.6572775658392 775.4173640594528,279.0088360394882 772.3221073169617,275.71064187491754 772.279267071295,272.601109730128 773.309386235641,269.8881866021527 771.755935545994,266.55592200925514 770.3598015612605,262.5994625966124 770.6152605498896,260.17668051189617 772.1291784235027,258.6800461972789 774.5313489510876,258.2750172481268 774.2383928298531,255.04638809975074 774.2758679845954,249.29379401063886 774.7289384700941,245.28079355227715 773.7488715837496,241.737889590205 773.5317505917068,239.34508086036612 772.6435205542983,235.27939364712506 771.0384416660477,230.19772036321604 769.4566564024717,221.58891570169283 769.1019123344895,218.32868918811323 767.3898412419211,210.87964828928148 765.3377314984949,206.35481479660416 762.4558378596928,200.91409489152068 762.0412059350666,199.50488285906033 759.6869051149747,194.44890925162144 757.661589445002,194.6452733059598 756.4567608992809,195.53123603216238 752.9068050953696,196.12349615132803 752.2874541596138,197.57885406771175 752.1984477588171,199.59229231454947 750.2318167857577,199.95588495909647 748.5869740653428,199.1228502849881 746.2922124731159,195.87759516166943 746.2318936019941,192.22535898335286 744.1385585506258,190.4241320813003 742.7452893508668,186.11094518656307 741.9893804253406,186.05220594521552 738.1569220160598,187.55101749017706 734.6092797693934,187.45308659325622 732.615989435523,185.71700170886731 731.539663695852,185.5457900524907 731.6617866853812,183.16265154593214 735.7310469031471,183.25361174761383 737.351151735454,182.8302628206293 741.7149818773822,182.78376863509936 744.6257018471013,182.18762757940056 744.6953938143394,177.76752455772407 745.0868162493523,175.34954992255348 747.2511031344943,173.00680245575154 746.7860757495374,171.71069648210153 743.6396937433154,169.08232558919394 744.6788745593907,168.2024630696551 743.563290614371,167.3838034984865 742.6355975931469,162.8059906138035 739.6359615322896,161.59018182860132 739.3504057477522,160.71905444513914 741.0581342809484,159.28070673905984 740.6968175167614,158.58366701066984 738.4846757706953,159.03244129720179 738.7497502393917,155.9947818795008 737.9186046974081,154.2060158054046 736.9022101437783,157.95463444747782 734.4554459912481,158.01696458438846 732.755851530666,157.23516236770138 730.9919279441339,155.52472177827485 729.9684682748784,152.59951543534135 729.1425660170349,146.451848239725 728.5089474412857,145.30592838304676 725.8910815777484,144.9732052037267 727.9188914766345,141.12684911377994 727.900669408666,139.97478623265113 726.7009025673781,138.40417397949113 724.0335806414519,138.48072827625754 719.6024682142344,138.1440456549011 717.924505347856,137.75302654353482 717.4253154574386,136.5688930540772 718.4510302120484,128.04111276171193 717.7590876155878,124.80642263512902 718.3872060991099,121.13266763233332 717.3680114602178,115.21887875186167 718.7510910686934,110.38092479844533 720.0627874803052,107.7528520265347 720.2715402626918,106.01133005928568 719.7693921401408,103.7169886990664 717.3810610463006,100.22523442353315 716.8388343444916,97.9613384503798 717.6494278774309,92.65842252781567 717.769583438544,89.73301643796606 717.2302592892157,87.99421581526235 716.6746859890658,83.12057820988855 717.4208903158614,81.32099535236443 720.7480627594472,80.01662520406887 721.3704984032789,77.49576300624949 720.3246722169496,74.58266724564862 719.3444101534806,73.77702640400628 719.3899087141225,71.95988440506608 718.822367512355,71.01149562166665 719.6325954929175,69.79861500360346 718.7342307272934,68.53293302841541 717.9563702121096,66.24309408172792 716.5184105900639,64.49176674938633 716.9051092729459,62.2826094533375 714.783943051547,62.33240561877881 714.0265379134528,61.44073039411978 714.9405195795433,58.93723560317187 714.5216634212098,58.351622705344425 711.2751410997066,57.74504410846805 708.4503606397733,56.339241063692384 708.2631183993976,54.38318409156682 709.2342555040368,53.04139780858793 708.7358999842756,52.485227131833994 705.9476290197866,53.400697360623326 705.187828959507,52.610451352435916 705.0582942363748,48.664430585280115 703.2468101675977,47.385557821945326 702.9519918159592,46.27940974997853 705.2346507680837,42.59880343167208 703.5280332241274,41.22099916627758 701.4325048153684,41.87625369869647 699.4841389237154,39.784109295830945 698.9314952083904,37.3366608090555 697.4620708771779,36.23082318572051 695.2283105837113,33.01117688462921 695.0671713180031,30.964169352485328 694.3305971688262,28.932623362235063 690.8849602871737,26.607744869484122 688.3907627908059,24.01791872197714 685.4438880185546,19.722631456731847 682.8289439971904,14.73896832216542 681.0120229474663,14.672632755847985 680.2934355873731,13.206503826051176 682.6677672939022,12.414371956294417 684.6488626719698,11.007012058156533 684.483097533601,9.195900868688 686.4150519106622,5.991811707208512 686.1995480795858,3.6243524011890713 682.0810719808921,2.39068641031713 678.4675050380813,1.7333932170042772 663.5468761206531,0.40697373352134036 659.3588112660065,0.36077238148857305 655.2959550185047,0.0 650.3219425146488,0.21065862499301602 649.6524942278744,0.5324235515372493 647.7773479778859,9.065077480789682 646.4859521814456,15.76724877266895 644.092082499284,26.382350304091688 640.3034538196025,25.750523695490983 640.4074547164896,27.530113666891907 637.9025033563053,27.209022715096808 637.6921435924392,25.01606211987155 631.6421812977887,26.820224141948756 631.2876386482872,28.330374467795195 629.9410520032591,28.63437730706869 629.5529626775776,38.66763180323517 626.8430328169629,37.16918586014549 624.908168264979,37.92990444152872 622.6643389886917,39.997311601045794 620.2122333143402,41.2680538613331 618.0555186567116,43.296145275385356 613.6269027912886,43.32463653874504 612.0676116403305,43.88892230900899 608.5537656567091,44.20727370930183 607.802270708098,46.41655005980101 606.8117265975702,47.223177180417224 603.3767851880821,47.491906591086035 595.4041234082961,47.1485842548708 593.50704299104,46.4603521819912 592.1572163379543,44.49462581401406 591.3290396494838,44.51420337934758 591.138316470036,46.367650208346845 590.2052714864044,47.37020384062737 588.7747729513194,47.52689792118235 587.3132608566774,45.598196240914945 579.4887819074276,44.73375090559887 573.2667045691214,44.61957397721744 566.3217142012891,45.64596981651596 562.5054407574785,46.62262580478591 559.2550764171982,46.47400257892855 558.0619209574494,41.59321330787475 555.7771405098644,38.338456061951774 553.5573640189092,37.703647368874954 546.7092268754658,37.158735110758585 542.1350453506502,37.01527180116068 539.5086458407651,36.25609886835298 537.2648851634267,36.47296968789624 534.9011526691652,37.343257417423274 532.766448821647,40.25424723809408 528.7424742457562,38.984709813076506 522.5051540188332,38.3014668850858 518.5455571251138,39.60003851550766 509.31247744880636,44.14524108648084 500.4080465566725,49.333859916747315 494.81504563473044,51.266209373246966 492.50833651844624,52.896768735066644 487.9059167002448,52.89292823114022 481.66831179141616,51.87926573218715 477.7402788318313,50.876251707264146 473.81003948991713,50.53117951917932 468.2452582764359,48.54797780938463 461.38964080003217,42.62510981517505 450.3136267555054,34.068078942196735 434.00148603191803,23.503322214113723 427.1538884299951,20.187739679089873 420.285747945398,18.17598960884584 412.1261646452359,16.15701271301168 406.23448698050913,16.11223557246626 400.3429872733481,17.699739188259628 394.1133677867002,21.228943300733135 386.221206527252,27.699171584551436 381.943928016343,30.9345403463783 377.03993671961075,33.504885850861115 368.8443094042559,37.34639788471884 362.64201500757787,39.25171496201699 356.52952962650255,41.61284258151875 350.9738074901616,44.563595961178976 346.94874334931825,46.931907267906695 346.70450409922006,50.44921196828136 347.1058722129517,54.51907533879512 346.48698555708717,56.01068629190854 347.175296168863,58.35317115426528 347.1038080681294,60.806589964133195 345.9009164898423,62.59026484800495 343.48347696974935,64.9452220851706 342.42298099590727,69.40459244393128 341.77559687891426,70.51614683045443 341.70936794256244,72.78512839189455 339.93111946030444,74.8095145802705 338.82279625449996,77.94239934101836 335.69409778557326,80.87167733259719 334.99845548678485,82.27941912756353 335.51302235710244,86.8076936200465 336.90999975576347,88.90338330278928 339.0313978466325,91.3092574939252 339.3380542959559,92.1610402196726 338.482745487936,94.98364517363768 335.49872105726774,103.44778940573451 335.15829272471933,106.19384243252443 336.03122153880975,108.42874120202873 335.30203081623915,110.17607799544248 333.7605338645091,111.40597880715563 332.3839578484367,114.21329527210025 328.7658216982979,114.69404311840674 328.33525588141947,118.36183646489849 327.0627252715659,120.33932144210712 325.9115705934971,120.83072812452463 324.0980276206246,119.72863263218642 323.56982456494893,118.39664891755217 321.0814063920232,116.89403884316971 319.3424004030783,115.14723467315218 315.6542785171665,113.97980098932749 313.8115559742216,112.53748437953902 311.92407684098833,112.61492822485593 311.01877799476944,116.84536727730756 308.17408595030014,125.82949382410641 307.16594833986534,130.06688807484238 305.2843330034035,135.78099400610586 304.04834963817467,137.8322611976388 299.32292202961224,143.43069812479428 296.96903590202794,147.23893902571217 296.0964696537467,149.7945707858986 296.4127094964885,152.6945176981792 295.91910874841204,155.23991205108973 296.547955359202,156.91561512348608 299.50801767845104,158.5143624848655 302.3981091696333,162.44771278961423 301.8764088103506,164.61309077981775 298.2547285952434,166.18306487386917 297.96010582503663,167.59386985015044 300.66208214283205,169.0933314252959 302.5939032926146,171.02214012072318 303.9514167428664,173.974256470515 305.50937895351456,176.2840346904494 310.03246834926927,178.42360838969546 316.3512449742396,182.82798642714795 317.9398642937897,184.65475950569032 317.64845156036125,185.67505324877243 314.56085692997095,185.4698378054518 312.0952298133088,186.6121826040046 313.36541013710234,190.15825441123536 313.32845076822827,191.12449133283621 311.5907272618665,191.969137459512 311.855685762692,196.63755138886415 313.1419499147668,199.89646477745134 313.26893260700047,203.09121922713894 315.2063038826496,207.26357666330682 316.8020059242775,208.86445553629073 319.183235777161,209.23341386051686 320.84443322965,210.4970033456343 323.3796936124543,213.699328879939 326.37008568497794,212.95405976446546 328.3835066080938,214.04178331241542 330.7170445319431,214.69665213467727 331.8457933992988,215.52234757342876 333.956839023336,218.93947610489897 336.04838476723256,223.58084580054629 338.5473204464133,226.74156262836038 340.1265229554563,230.25606894659836 342.3941776114707,231.32079293352865 341.953265460575,235.32312270571288 342.357739837603,236.90888504001475 340.7048171466054,239.96019140358396 340.95332487159993,243.64200523953411 339.40511936963264,244.74027976124466 337.53514129071226,244.67584490140848 334.91683813698745,243.9814276003217 330.42656919774055,245.48744573238594 327.2304875003237,245.92926754967823 319.98718869140527,249.43487494285353 315.8789846325456,251.62108429009436 313.8024266052623,255.34925523008565 311.9028921288382,256.82742739300545 310.8230412704607,259.95664143548254 309.4782941449792,260.287720026801 309.3087329596615,261.47757057791216 306.67813466229944,264.4180344623152 304.40041267276814,267.73801232769574 303.464210804376,270.80127472099036 305.5059959011952,273.39418466437326 305.1272812354648,274.1757771918333 299.2723449679311,273.0974015610785 295.34842707169764,273.25912987463596 290.16049205298276,272.60196977589635 287.54669101708765,271.77185297958545 286.45459826875583,272.90285187982204 284.2052676942721,273.0736725727413 279.3989523348992,274.7439626109998 276.38219625522015,276.2912719323682 273.0973039654837,276.47250368658797 253.76539961840191,280.80711039639664 249.2011393647561,283.84259083085465 244.659379939719,285.3745545671204 242.14862318369657,284.7737731378172 239.33137202734065,283.3193822031227 237.00150453309814,281.68356187326526 233.55074090817376,278.7144427553027 229.24443799858963,277.6883686894563 225.1198513054184,275.0405171843902 222.26660033793107,273.76907276293673 217.1797111116037,269.54610360950005 215.12242310840017,268.8753276920738 212.0029479830273,269.0593942253406 210.68591037623776,267.68981939129173 210.3747663645113,266.2278243472599 209.4831293425351,266.9533671918342 209.39693902063286,268.76387329687054 208.06091433608967,269.27836729082344 206.63141105463885,267.1854816248915 202.90537881527416,265.02239497232165 201.72242002193215,262.6278477513599 194.41322172596188,262.8977293738782 193.47517934648278,263.6002343638471 193.22230161333079,265.1580608335678 191.22526511733722,267.403657467744 191.65386296808015,271.43380898467683 191.3185935797758,272.57695738040195 189.45771404946316,273.47864207535815 185.20201599131934,274.9234600206414 183.04456956716265,273.89826373525204 181.6730699391409,271.22000099308684 180.0801910290022,273.4062726024373 178.51356429442887,273.9762133309149 176.3984991333791,273.1382007634227 174.40455044488596,271.6656136066837 174.74039218711414,267.43139257120276 172.68331674429209,265.48311801864145 171.00583315514876,266.8423216411918 168.49547058400236,271.60604985429836 166.3374518607546,275.1956908920971 167.2763204676731,276.790365658376 169.39446460205681,278.5660448217029 169.8100600657788,282.7819933371517 169.41035862130738,284.20215085102416 165.9967626395427,286.4764363379884 164.84324449722342,287.7387183850219 164.8413549042034,290.07705899269763 165.43188627894705,291.43484171827185 168.97946420273536,291.9868058537969 169.53039084901224,293.1072035318881 168.92112643612668,294.6339376154182 168.702135766616,297.120113513879 167.61817897295163,299.724080184822 164.06515476553943,303.16894176498124 161.58878237254387,304.2456861175825 159.26937920615833,304.35981822007795 156.7763408895246,302.6653229973134 153.49098669865785,302.2942247449781 150.00404536536044,301.56754502971717 147.4797207218465,300.64460250061654 144.334414540686,300.10293545002435 142.25955110668198,300.2242568301717 141.5259175636607,301.95304132451247 142.4240087087094,303.31056936481605 144.73190554380463,304.83512280899856 145.06839987055605,305.73146737805894 141.52053975725542,305.65229539362724 141.7584814944662,309.94589516242934 142.98787865070142,314.1172869019275 144.83395977966197,317.0599486208032 146.11104015085462,318.4392512586659 138.33532259352307,326.4012708320547 134.6923689695406,330.63658964783383 129.7076465508918,338.7896770011562 125.07155458565214,344.66368647174636 121.09941336112841,348.2399268032078 116.12207406304361,357.3844108238063 109.81531494954194,367.48573512388157 103.51715649901918,376.2903706394418 97.54309260254122,386.07378272869744 92.24607108701491,392.9201530079953 86.63232403689686,398.76585983016673 83.31848732218899,402.6850388594121 77.7203327697429,407.2312788175492 72.44418082948889,412.0980433738646 60.56662906396921,424.1312071944567 53.29458854801243,431.93716378587874 49.344876860044245,435.84491094331736 44.39313223575105,442.3422260048883 37.79161976939673,450.15009312914594 32.18038196788865,457.627439346875 26.22883673851303,465.1049457727264 19.325775087852556,472.57276348117114 17.000557047577306,476.1526911322635 14.028905707357241,482.02443281359 13.910983854970146,484.43649585010667 6.928893824903685,488.43312758070545 4.232810077002618,490.6797040873206 1.5858594792939542,495.81888958048523 1.312286615174502,497.4100859947197 2.640490832028214,499.94225769773436 2.6190637721066063,500.8303500357962 1.2764061997723732,502.8833553459282 0.0,506.55006487343735 0.026077615815834964,508.9052809312906 0.8061805273530819,511.95631017713606 3.425977821960109,514.0152806389133 5.510277086887672,518.4111038772019 7.802161791765472,520.2832225036691 8.735874103498984,521.5529918830632 8.983292199558013,523.6992604993329 8.030573756569371,526.6738558620366 5.936841659403849,530.8622375363224 4.903592364821709,533.6395469919304 4.929179094926146,536.0161947481377 6.520145124726867,537.0812119908053 6.766650872191365,538.267109870209 6.205065393256231,540.6761948093331 13.644484524303072,543.4795208012547 15.656910569613732,543.9798185289878 16.284673597540074,545.1780290847356 16.583647589703318,547.9255941107501 15.478202069482126,551.2173306630323 13.057993920880762,559.6230661977959 10.872635882709789,562.1970750630746 7.390793888549624,564.9164441908449 7.416913533445148,567.3145603241137 5.712234269466265,569.5019029334055 9.312856644009774,573.8665918565653 15.153009765865487,582.3152723627799 16.20038420073074,582.8143058779945 28.172125897552945,595.9355051524558 32.36291024973475,600.0204525476679 31.950690205325674,601.268051933866 31.7904885825343,604.7477957308552 36.81341103067796,612.8593579320857 32.272981038904206,614.4194045666613 36.87715586651779,627.4105798125256 26.628020830219267,629.8217270410162 17.397645221066877,624.5191448913113 13.839216943873602,631.2709232054708 14.722037110971822,633.1614416538227 18.804698286847238,640.6367255669563 17.085969681329104,641.770532834258 12.52798043506209,646.0398234965207 12.297467361461889,646.798049438169 13.36506373737572,649.6147938738504 15.221832157301213,653.046668727251 16.72503742422405,654.9056652718687 17.890622629198862,659.3813694078094 20.196201006773773,663.4487251352944 22.948647834232375,668.9071854714211 24.358783391256427,670.9705441776849 25.9907898860374,674.7784457966673 27.613551290712884,676.6424961840671 29.557524237985028,681.3705608665239 32.37974605290913,686.6977924625588 34.129077775774405,689.5790168770317 35.472563948342405,693.4718888573727 38.10106454751539,698.9057352973209 51.79555754879923,725.6559763282495 55.24029080827527,732.1942350039553 56.786533444914745,735.7739769021357 43.3020327363785,735.6848311734477 32.86050568131417,736.3038463564735 26.285689792343195,737.4596000201736 23.04911107090592,738.8253585428668 21.78775530722832,740.9801725688156 21.377397640936767,744.622131594451 22.19466915684941,754.7752352720101 25.792210708403246,758.039364630625 31.182064190081515,772.3190086781167 31.848753284984472,773.841629661008 18.975700274250244,791.8672083163207 15.741640563532085,792.5602887663565 14.424839878249943,793.7100309681615 14.282062145847995,797.6425219838216 13.832637087649264,799.7518703602127 13.64378180465205,805.3816474001878 14.035860797729715,810.4934491313131 14.784260368536007,816.8589448926944 15.74283315991192,822.9106073976214 16.900345991372337,826.491341079847 18.788314405131583,831.0615437786843 21.456814451007162,839.0857418174717 23.552577041064332,843.931525114277 21.963015151514757,876.8694266218978 21.378306963674753,891.6184257418322 19.6039450916118,892.6091096376636" /><circle cx="448.1868971779926" cy="423.07726382430224" fill="rgb(100%,100%,100%)" r="16" stroke="grey" stroke-width="8" /></svg>