<?xml version="1.0" encoding="utf-8" ?>
<svg baseProfile="full" height="1024" version="1.1" width="1024" xmlns="http://www.w3.org/2000/svg" xmlns:ev="http://www.w3.org/2001/xml-events" xmlns:xlink="http://www.w3.org/1999/xlink"><defs /><polygon fill="black" points="460.5198767424236,183.1798075286846 455.66058038258996,199.07322648240017 451.79257471387564,208.44373750714374 450.0882390643943,211.7286379935673 444.6512115704608,217.59866605839284 440.9439559029108,221.1717323677101 439.9706670135783,223.20449823155752 440.56993547161187,228.8727351984577 440.25395200348873,233.6720915738597 437.6366220603841,236.55143027289694 430.31046947541324,238.11914509396502 423.76282287327547,238.11242413885327 420.88264710122627,235.7609738204552 421.14420881720156,226.33636459650415 420.36138976429316,217.95553235306124 409.0961871107004,200.41016808109134 403.5957576105937,198.0581066245362 398.88340179126084,197.79762490970643 388.6633023043371,203.0433172701363 382.8666248289892,203.30009486698043 371.64964610058996,201.52177443006053 370.32114760803654,200.74125775334767 368.61030603499756,195.8579218071087 368.77752184347275,185.4785130610103 369.20678481968827,181.44273080248297 369.52291954864694,172.87762011150937 369.074984833671,165.75096847034513 368.29221278842033,161.9367079736412 368.219313385666,158.11767476882153 369.2651389112576,155.68184941214452 373.7174760849821,151.6639759269757 378.2137849153868,149.54307424939805 382.17095098281396,146.5246846788034 383.9667738975636,144.3131585606343 392.0684717572497,139.40837395829124 400.18859760099986,133.12109176304648 405.6954469674058,126.31500212522621 406.4812368706115,118.72203348964717 406.4756265542637,111.12677475960709 403.0752666134235,105.1017118083762 398.09446295000157,99.08775366484406 391.2789570990511,92.8087657691865 386.04455440201673,90.19502719826153 380.5404447090087,83.314639543672 374.95996151080635,80.68620916945929 373.62683571360265,79.21586751488746 363.9132754328398,77.20351342338597 361.0669649981163,75.97795231797886 360.6445515045786,74.36548899276715 365.61523484153383,66.91406432416932 366.4052248650505,61.77926956542751 358.6391749877606,59.9875685527802 350.2479812389025,58.425184781170856 343.9561366301409,58.44131261297571 333.71495168663364,59.50305058025879 330.307985206511,57.678480753586086 328.99753660746916,55.06273285603845 331.09348177506405,49.037862705212774 338.96850226521616,36.98128913833523 339.4924631823209,30.4313283675599 339.23176251163255,22.316133890007563 336.47445049880986,19.211752079476923 334.32892845950545,19.787974571606696 331.0600134395,19.593655720011725 327.79144303122297,20.408803244328055 311.8218883658589,30.510931053950458 307.4303355583525,32.91471002803314 296.88024243853675,30.214516614772606 282.31397398105304,29.54827220656682 270.1950820507454,29.26897704855969 260.4809782248364,29.36733863548784 250.35562989902266,27.048307110000906 239.8151184163037,22.332991006976613 236.11734743848984,19.595843735181234 228.4935484196069,21.428955596937726 207.53068291084722,1.3983186866507822 198.2778600481342,0.0 194.2454666818698,6.572922174947735 197.85312207377447,42.30360008007358 194.8929659538899,72.68193264848514 185.45534017202633,91.09779324005808 161.45381143118786,113.32793249509484 167.83928123512632,134.54786296965426 151.91231654652955,140.9864733895513 143.91942598755605,148.82986446331893 107.81978025087577,192.03647352229757 94.35586902222164,219.64643271012176 101.9899376341533,247.49749338361232 98.97164450389444,285.8168583508168 80.2187432179361,313.3444170760448 48.21811983971994,346.0031783247065 37.28445463283993,382.88459722807954 29.285718437068724,390.71149956286024 6.788442264551282,397.05091504168126 1.4466735142441571,402.2786512334591 0.0,415.48108411430485 27.530476556323798,434.32676561874825 35.45475013966244,434.4288329115219 83.10441333715937,419.15998670840554 84.44190996489074,417.8550775726052 137.23166746225462,418.49407460720136 138.56879946713488,417.1870174819355 154.38396536198243,420.0173818383971 151.60218609965386,434.52712722366823 156.81672493247856,441.19611972921507 173.91398678796656,448.0012211973724 194.93697299327803,462.7585436912783 195.34528650576917,462.77223281776094 195.16892834806336,479.59684795596286 192.46331351974402,495.71395935525754 192.57922213313273,510.5828508982155 190.66865204524197,525.4777126935851 185.08972607236282,534.773493685758 165.7909930601134,544.1797130559496 143.2395864824163,550.3624646201488 123.51015064426467,552.0987848045272 102.99929121197935,559.0587271572292 81.31790990425225,568.8402425523184 71.31999776473738,579.7522485328019 68.98105878654876,589.019340827258 73.50583385049693,601.0565402653183 80.44091429711877,613.4852847012726 87.40414135683417,627.9303289502418 86.28553442678852,642.41622310141 82.71487405251159,648.448605293324 81.01189163295207,649.7930589658472 79.1258696337565,654.5233503500201 69.15461584360361,668.2534957802683 60.80249913134703,681.572341381177 60.529821576428105,692.6096714502546 61.553684952473944,720.3955306350226 50.47646490783807,773.158241071334 51.50997970996496,799.6184059745925 91.13258263508827,797.4726705106116 99.85566616653419,810.3493140999367 99.78447037505812,814.4722299960127 98.67336580902871,823.7916842252228 99.23373960793964,826.8064674065558 101.27225023002788,829.288178026396 104.56329938062686,831.0107534486341 110.11599607664816,832.6744583210448 120.93888977371118,834.0403177693719 127.48075867632191,835.6967463553531 137.10524862079842,840.3320773177217 139.12280887848365,841.053128142099 149.67418588030264,841.1565946053526 154.2310099544077,842.8367168273911 160.98026413872648,849.0578278310422 162.39156161636402,852.8245564578715 162.74811603487132,859.3642657077701 163.84951380755837,864.6286060915552 166.2373131500782,872.6349397676058 167.6007962317782,880.1644008056701 171.53347990330965,890.9203811878809 173.33819132030206,894.142909364794 174.08324268571704,896.9471535123669 176.30719640081873,899.2388487369215 179.36663529670565,895.7964179388849 182.12910111890366,891.7588567535998 186.9080392452333,885.8806795051519 193.45502258817655,881.1750081024646 200.49327989921596,872.1278056182576 212.9805565321969,867.2113284468917 239.12281307330272,851.6967328861422 251.6343507530043,846.7561163735404 264.1290352224768,843.4212627216232 277.83270642701973,836.0538103585801 283.85674276139264,828.754437548365 288.62664783175404,820.6598112670645 296.6842568582402,814.546183490929 309.57655204203706,808.7869916462155 317.6401746197748,803.4798560275372 326.8731642704357,794.5358917772976 330.46993599492833,787.6643818473882 336.4846696542164,781.5675807897666 346.9758801584381,777.0424445699248 360.77946241393585,785.3582767784562 374.2058785604218,797.7112390858599 388.06303945831974,812.4675232615708 400.7424868940196,833.6814644084442 405.28606942856186,847.7159060105505 406.64680392684465,868.2239640392878 408.37477182827047,882.2941760455037 413.33581832497293,897.5355095508413 421.51290054946526,912.7595544414661 430.4852521997027,925.5647429193667 440.6486736176954,933.9419661685706 455.1963295591806,937.041538336458 472.9058021747108,935.323120410044 490.626384766842,933.2096103450241 515.0909774875855,919.3949227917053 532.3636740968876,914.4876164083589 547.6536953408112,913.606726711706 561.3171739570678,911.5452504928807 576.5796641692318,907.449599931184 589.8054141023928,900.9596701397784 601.8177910141993,895.2795468981326 613.8533573262122,890.3970545115253 626.7474981816918,892.3459752044521 641.2949296366083,901.536947372099 660.3123188458602,914.3063873330645 666.405782941346,921.1169651957917 669.3361750447417,935.9840486890636 666.2131843037367,950.8823019950512 661.0870470633413,964.1932353663868 654.7615395266834,979.1048505257621 650.0184834185636,991.1978461220003 648.8954616485786,1004.0782503740916 651.3840710623429,1012.5210628407817 657.8636403269644,1019.317318004817 665.5312459517702,1021.6928522125118 673.9500559365584,1017.2192277051995 693.6941331793437,1014.6925692477762 708.244086823274,1019.0229820334605 719.5566863465732,1023.3747356154369 728.5530370566116,1024.0 735.1004464190688,1016.1503372542347 738.4206583752492,1010.1700584995997 738.5914186599822,1008.0612378495493 743.8050641286375,1003.9101784996152 746.2934695495189,1001.2865543358931 744.6680531504809,998.5720496268386 741.1032847213652,994.404935386684 736.545445408709,990.9306906930151 736.0378354734032,988.8270318487639 737.800316060038,985.2017586543395 741.6784794959584,981.2028158372236 747.4131363134264,972.5106205984567 751.984328278427,966.6499228084145 754.4644001735078,962.8147240112083 760.0088805664119,956.6246412828339 761.5706907115908,950.184977354349 763.2280674904306,944.9461139616759 766.391561297726,940.0921644317705 767.8849306971237,938.5669092539057 770.8650837004017,933.9133307142496 773.1138704860581,927.9983192945524 772.3590815635697,922.1158169994079 772.7243791139264,920.0046217533334 778.5889767849084,911.2891515518386 782.2912568507021,907.1172289604085 786.6070232893513,905.3591510088709 793.1158941622692,907.5043276294397 806.2315425562671,895.1121097772323 815.4991821164867,889.7867487222779 825.5683910538104,885.264073077027 832.803261555897,879.162303938503 837.1731161517633,869.0591250088086 837.8978214623003,857.7878475383791 833.7989293818539,847.7703995908278 826.8327439994572,837.3796498350814 820.7189856670087,829.7891362991802 813.7156360176981,812.5610134833623 805.5160401425678,798.155146767275 795.6919294952635,780.5433189124719 792.3499202858557,767.3135820328521 790.2525569244099,755.2377692101747 791.7888373612063,744.3624229780341 797.7371058480628,730.2249098610853 804.8815585403188,713.6597502160206 812.8837872403748,700.7127860207612 822.5272699126313,693.7784009160971 832.2573577733996,696.8966309543839 841.1860903220612,700.8286660789292 851.3026211030351,701.5355590098593 853.5204356317971,697.8322713398686 853.9391292035388,693.6509971613825 851.7207778158001,681.8941139747194 847.4467126975777,673.1627283606915 845.4854529765594,667.1900102666966 846.4866087376362,664.4556309013878 854.1589877532108,654.6216874453862 859.2534998613634,651.7191275505318 863.0124269365323,645.8930269052738 866.5720958449334,635.391180518149 875.3444423413687,619.2107627765356 884.130269442636,604.2411927474211 891.7052390707086,590.8916979719331 892.8678233891934,582.4321179205281 889.962017306778,573.2014699261208 882.9917653082323,560.798973479447 867.918104528143,544.8561382121088 859.3226715399148,530.4613684183743 849.8362823394085,500.48620897241653 853.0231402251744,498.0895010247257 853.4179803347707,492.83741296161327 853.9794334181139,491.99652920017877 863.1732817261167,493.7347406067689 863.200933920484,492.53474188280563 861.0113775481484,489.65430550280485 858.8414437387833,485.5617338845067 854.7591077354191,479.7856359122661 849.0368182298156,476.4626705927518 846.0856986433989,475.3263650070609 842.9906616909097,472.89008904486934 843.1362154051344,469.2659648971779 842.6379077316817,464.2401999068103 841.2835812706021,462.06525700141674 837.7587162882821,462.4302474710912 831.238954822083,468.36073102910734 827.3433732598911,472.6336161225239 824.8992186631351,473.9885985828183 823.72504432748,467.72514176877576 821.9702261086076,467.2338737780674 811.5862290575383,470.88911146953717 809.4137411962099,470.02552530512605 806.6765732983476,466.3694837653012 806.8152008352993,465.35331453959213 809.88488090422,461.14051485396567 813.9157163118641,460.79690067504 816.5306013016387,459.8721629532307 816.1387244324125,453.98543119711655 817.1621696298029,449.83698485886134 818.6978929779584,448.00441091476637 823.0175086692215,449.07158159035373 826.5042083203342,448.2528261028983 823.7738662969633,447.43114229445655 826.2502467938755,434.6277020191037 828.5496584356513,418.10685321858784 819.2313464758462,415.792310980229 803.4244938832136,411.11256752417114 796.9122448046323,405.5538555443653 796.8328111163775,395.4951890396395 806.0541368703979,384.93913514168366 811.6065037098198,370.00717341455004 811.5413856363662,361.5531384957537 801.8102462369326,358.4302630151076 790.1163330337313,361.7580019098832 776.4437025551869,369.94524958702584 761.1430615789876,378.52734209383004 752.6781219368268,378.60123038566337 743.3472155248716,374.25721029775116 735.2277972047833,368.6899323195927 726.7203464491133,362.3244461178432 712.199988038389,363.63945020548033 693.2823533452907,369.4165380241825 675.5919643838147,373.9460951117003 655.5043220219302,380.91106668177554 645.5140342613049,389.8103657646167 650.8431747114038,403.864777110706 665.0546586681061,418.6680258062005 672.4416225788406,437.52272265827605 666.0541158030866,444.4051111558774 658.2117301658502,449.4047873972364 656.6005099032345,449.75902832112547 652.0300645122616,453.33777526510073 635.5374288837522,455.02725880504386 626.650209452763,451.0514023829113 616.9139756433417,440.23566362930717 606.7914503815432,423.0588013640628 606.3121854531202,421.78668970888805 598.1351640620264,406.13296781022643 593.7011185624982,404.5471529882691 590.1205267575606,407.78322657559397 588.9450679435347,413.01647366736324 589.4049018634587,418.24845642706816 595.9254458087742,431.08432994675115 608.5495917905463,451.1470320063678 609.4657320536825,464.81024043669083 607.0906899745363,469.6463726096673 602.2787983502196,473.69399516810074 596.2791088809852,476.53450792407386 586.6238744170674,477.7836132473252 579.35790648331,472.98649505474 571.5950197917226,464.6716063332848 571.287110426982,459.4752316201349 568.8064921400887,455.999079241432 563.3261256321722,453.69946185860783 559.7173484670354,449.8418738169771 558.2508191940957,446.7474864646098 551.9304953590306,443.86558569405486 551.1564048968211,440.6959301694179 551.7182082474047,436.7447000352546 556.2632322353843,437.1915103607745 557.1815490917025,433.73004903762444 555.1231788862277,431.33221110315367 547.946332961472,430.4197535661149 542.4704682337824,427.9018312794723 540.9709530038743,426.28815389214526 540.2252007427992,418.68273254970177 533.0417807118166,415.2696440064784 530.9007367017198,413.1102663834878 528.1886551659142,413.1007364341708 525.7863792467213,413.9963036643461 522.1758647998694,417.60383535106087 520.3744360539422,417.2987862095922 515.8620760459108,413.06506708258917 514.0591346164568,412.7599946720171 512.5541662863371,413.9572572112935 512.2509669871226,415.77344954077944 519.4733815034069,424.84190529674026 519.1706915490614,427.55706653226696 516.7612542781737,427.54314387500835 512.548273054869,426.3233868866504 508.9437479502312,423.0021867419795 506.83874472540043,419.0737828830397 506.23575293947846,415.14742400155217 507.43699568278805,410.63600283720075 509.84438053059324,406.4133455719027 509.8439930394754,395.5590681559297 502.01769157555145,376.5381737677311 501.2420771420914,366.0626065929506 503.1413695758152,361.3214779954143 510.7246127918616,350.0526110754695 517.770701039024,348.0839386462559 524.3382358314527,345.2465701186528 527.9049913070727,342.67388683462605 529.3344361407195,339.9170167737185 530.5530409326979,335.469951018968 530.8979562288152,331.7425328264583 529.5768311447162,326.9841374728878 528.204488236539,324.14937190844284 529.4582425939516,319.66121887095085 529.6301382815809,314.0146075523452 531.7053710374903,313.30269851651155 537.806928111445,309.5030198757437 539.1145586232426,307.74049960050957 543.7527297809867,303.72213921530397 551.225381435449,296.0300689029698 560.6134235099817,289.01220718542766 562.992325413589,287.97428768462817 566.5198449197517,287.90362122845204 567.803388397243,286.36785624415495 567.707900233476,284.6560551477328 571.2950589105258,281.463938758219 571.4036721720689,273.1231771174389 567.6383346920959,250.61661363838164 567.8730160653197,242.85450416483036 567.6156399975984,236.67200736258792 566.1749503152289,222.46788893810867 560.339320162907,196.35235727009865 549.7863283685737,183.52999230051864 538.124818926891,183.58737321126182 524.0598936674212,186.06748691657663 509.5949720936445,188.15063613326697 497.9373068797345,190.22997013753093 487.30091181595816,194.50782166292754 485.3747755818722,193.2552085068154 482.4262600974801,189.19408694139713 478.4427849414241,187.6605387183215 473.1738980013143,184.84230981240933 465.5196464138073,183.15398393443365 460.5198767424236,183.1798075286846" /><circle cx="539.5098012979805" cy="719.5088644258583" fill="rgb(100%,100%,100%)" r="16" stroke="grey" stroke-width="8" /></svg>