<?xml version="1.0" encoding="utf-8" ?>
<svg baseProfile="full" height="1024" version="1.1" width="1024" xmlns="http://www.w3.org/2000/svg" xmlns:ev="http://www.w3.org/2001/xml-events" xmlns:xlink="http://www.w3.org/1999/xlink"><defs /><polygon fill="black" points="95.2521851534031,0.0 91.44615654692197,1.8795973669864452 84.91671437248496,3.472291509909496 81.32501855521879,6.373937878967354 77.70474499718931,12.167507120828304 75.06252889686243,18.61553338876149 72.12231393812061,20.87297095050792 67.88052235940877,21.189108870895325 59.42817584975512,21.166803413337448 54.51213995528576,24.05749592306836 46.328769062521594,34.04990326542111 40.122374481331164,37.901031782486484 37.15850352809393,43.70600402194225 34.841744682181876,49.19417141840859 31.90033700824522,52.4122296210212 27.010585241071247,53.0341544423394 23.100616493339235,54.30902621421171 21.788485972676998,55.91381014472404 21.461969346933714,59.14299074896303 16.564649983672645,62.36169453086336 12.964550412369304,65.90636877142674 12.267051045363255,73.65470844404229 8.932588732076034,87.19759632253363 6.611676899652935,95.57911226476972 2.6759064104524897,102.98844393799266 1.6824878677434834,104.276267064742 0.02830905224632713,110.41024510843101 0.0,113.95653444570735 4.473895686279789,126.2386619598227 2.783088189065895,136.8919583957511 2.773496829241984,140.4399454360721 5.2472127611692745,160.80017198324094 4.230884818420288,166.91582626137665 4.881441096207019,170.14714007980558 9.721447157528466,175.0163282164417 13.605264424219806,177.93383405827785 16.1470428570544,188.59079215462305 18.74112613451069,190.5464632967337 23.292944368811465,190.23140699019075 32.75085852979226,187.0329700285222 35.35366979639117,186.72709935699515 38.92592979781909,187.3725203267295 40.209826355214666,188.3561532607565 39.208799687941884,193.1921123200782 36.280220188052304,194.47941219719155 35.94005587228394,196.7304664500988 37.52540687082898,203.83884128477166 36.50286775981961,211.89897019975217 34.5239464249002,216.74641623736534 31.261492302952274,218.99468103426386 27.68070338550391,218.98312396403276 24.093287397028142,219.94283202245686 21.489514581564837,221.54875583577905 20.488479440262584,225.08782177545186 21.444740218675214,228.0123776769301 23.380361073300637,230.90851939369531 25.64208540552277,232.2096319390963 29.229569002567548,231.57536928843138 34.40467260372227,236.44750375340652 35.36919327737362,238.70749731531123 38.60820801620876,241.94130284511607 44.42995312945782,246.7930760192295 45.39441682506826,249.7090484171756 45.379493430471115,252.60436851128168 41.419453841304886,262.9452245482146 41.39013938362644,266.81355462913973 43.31193244393253,271.0079925664595 47.850100842789274,274.8879215053215 52.06175861491505,277.4979943727526 55.65786964760416,276.19880310322867 58.61594758153663,272.97708969536075 61.885225345770685,270.41990996371953 67.41848180201322,268.486992348994 70.99833347019776,269.46074499594374 74.57965606102425,271.0870729310915 82.03333831739802,276.5839760442792 85.91958632646062,282.0886673750109 85.12785431362477,286.7332754703466 78.23382171761548,294.1298848693666 75.92992209059751,297.02480901759486 74.90761974231393,300.5657933248499 74.56745503044522,304.11537203633134 73.22730756832392,307.98345240396463 72.87152879388455,311.53471873566787 74.44668509517109,317.3680087838155 73.75105829720717,322.5363809259429 72.43912955611786,324.78728801845136 73.04263671027984,329.31004840003357 75.93573016996837,335.1537337214494 77.54616688698889,336.4440129242429 83.03141603789027,343.271201750882 87.19599712171089,350.0777495282407 86.18912513471028,354.2730983695095 82.22342569255719,361.35654956393535 82.84758030974862,365.2351199215583 84.1245286231963,369.1256436856886 84.05344532706968,376.2384362581878 83.35946510706552,381.06948322767846 79.08022697125908,386.8628202659638 78.09360668861751,389.11549721578854 77.69651324390533,397.20123110008285 72.68725405563876,404.7657305567827 70.18765026174745,406.1484743282839 63.06704243038898,411.3984600457966 55.55300481153114,412.32721375174185 50.607593377259334,410.8222560154072 45.453890661244614,412.88876964828626 43.737277093363495,415.97845551099135 44.0838986867855,418.71281639440576 46.14600791805415,422.13254692499083 50.77616648950127,426.0547712370185 52.32375788721453,431.0117772014338 52.844094000285864,437.1754195096911 51.80809466590942,441.455332697593 50.26493520847488,442.4889194070063 48.715070749761026,445.0582808813374 50.09613970933615,449.5016214252406 56.104864277348824,452.7392893265652 62.974123325504976,455.8023959645632 68.98200102186077,457.32932660728557 72.19845952179868,459.43022679216904 74.90622114512253,465.22636643623264 72.4176479129789,470.6520082819859 72.93145748554629,473.5609412384737 74.65492042819606,475.9378233992859 81.93539405115749,476.9933779625816 83.76180915735081,479.70753312265765 83.04611760800381,481.4178139424952 79.22539430277693,483.2191579096258 76.37439594754511,492.6808682429066 76.02592187543063,497.64921342297623 78.41498449373435,501.592468716648 68.46644957033459,500.80070263306095 63.83210408050714,500.1250340941182 59.36441387214149,500.13413915473325 55.41701636495142,501.51464708309095 51.977280613026025,504.607301420063 51.295120015933605,507.85326607629213 55.07328500897364,516.0586964868269 60.90887409093146,521.0184092351542 72.9357127007646,525.7825764122271 85.47816755738548,525.9083097476318 87.71762960846216,520.2435016649122 90.2950866315527,516.28060608685 98.54378869231452,513.7420565973806 100.95549274992615,513.7100076308706 106.58950718553471,515.0121272025642 113.79502429406817,520.1738993559213 128.21452953908005,525.2028765875712 133.09909314341317,526.4518161734902 135.40048730245488,529.0129318917582 135.1016357122999,534.1847655580024 135.76908759872427,535.8035388766473 140.6680768129053,538.0253061807169 141.97490577212693,540.2694811036984 142.34347921372364,545.1140779889838 143.33073279860344,547.3582841232108 149.23962834547294,554.4243646022232 149.59435112527328,559.2706416141023 151.96058232254862,573.1617072580766 152.62849755680423,576.0619300096837 155.29175928081867,583.477566593554 155.95974917913952,586.3777770665654 153.04729588706448,589.9736371630945 143.025673425345,599.4542224508393 142.37246559678547,601.4002917781929 143.0545029424443,605.2735276860635 144.7224740956138,610.7857962232404 143.61100617966693,614.9660817386828 143.8405021552265,616.6475975249657 145.52371816507798,618.9221996793187 151.96945906479317,625.2439424177121 159.82569142371418,631.9432176260219 163.7616797385632,634.8223563151619 167.35015700947233,638.6541568866758 168.6860105876914,641.2371716179064 170.01490816126417,647.0476568403194 171.00913560765304,649.2917211202449 173.9522519527299,653.4710714663261 175.60044182758773,656.6997914682647 175.6151084402994,658.9644437677823 178.63547568909843,670.5665548192917 179.6236611722217,672.8309197158105 180.64968239173257,681.5535975524155 182.61790290738887,684.4329726604858 184.58566765638892,685.7138520498305 188.84331080256285,690.2010817029586 190.51572075091443,698.9234850021696 191.30748788922784,718.9643277340065 193.9756662093732,727.3608808589572 193.98329544780773,731.2256903762704 192.07173364484063,735.7776917509145 192.41473900775398,739.335569433807 193.74426181432796,743.528754119517 191.4920421232562,747.1180560836842 191.17891880942355,748.7268057210888 192.19010728365396,752.9302772710851 195.7879444763593,758.7228030375855 195.81721781833713,761.941766525423 193.8916130360637,767.1413012488592 194.8948939506639,770.688758777001 198.5144497225768,775.1895691008633 196.90863689912007,780.0499858857031 196.61063596139527,784.5827571645996 197.31748295309285,792.3459859539918 198.3128786313629,795.2374268375174 200.9368843859438,799.4300589360241 204.54245153156268,802.6289438865542 208.45353293856013,804.5342920665254 212.67815527672263,805.7834356763292 214.6473105890434,807.3827150252479 218.23044342102986,808.6422121339897 221.1395735646772,807.3288396400399 225.02035817061287,804.3639357403512 229.89723739012743,804.9666002630557 233.51060446916,810.1228335978371 234.50065960073167,813.6701103083349 238.77834437141863,822.6940735035672 245.01820828213644,830.7200985890117 247.9487288267612,833.6118621828126 249.94884694594325,839.0874580059246 251.5725603026685,841.6511192856949 253.8559348623698,842.9413511885491 256.7848602261003,842.9089854150234 261.641316488725,841.9108138688354 266.54385148914804,846.7181540387508 268.50706368872295,847.6711336004264 272.39804687326045,847.9667403434894 286.01494379227296,846.8887605166414 291.2067460557935,847.4898420773561 294.4581529179228,848.4415668984669 297.0786212101041,852.9636018018646 300.0079084946784,860.705998459586 304.61842657684036,865.8517590025513 307.28677347895257,876.5081156013357 307.3030644731387,879.0930942299344 309.25353520647343,881.0203951479955 314.7481838667616,877.0863346751503 319.89415281308766,872.8541245878348 321.8419758599207,871.877649793321 328.3155101513709,871.512172986035 330.88816843750243,869.2331972477361 334.46544794076533,869.2093521944562 334.8015177871258,871.1481908718781 336.4317366407518,872.7568978727052 339.651414998103,871.1111349882185 341.598155678372,869.1716826734997 344.4917417212252,867.8550266868441 348.4239891217348,874.2939305300645 351.69318888040596,878.1569500548744 354.96233757054034,883.3149615111588 359.19911381789814,887.8243439023269 363.10042056672626,891.030504848569 367.65507083339946,893.273052293373 370.25278646225104,893.9057414277252 374.9566289674027,892.7408616771233 380.10910269358203,894.6129293745125 382.89762604530614,898.0353433778757 385.50990649321875,900.2900277657876 389.0728316855491,899.6178080217921 392.9421694326691,897.9721735328326 399.75065964375136,898.9077264267667 402.64430813191603,897.6004898416076 404.5932456280611,897.587792285216 409.78959447929833,900.4744724560047 411.74782470105356,902.7280217024969 415.0137620124046,908.8394905894052 413.7787967924894,917.2656897569711 413.813419341245,922.118649803175 414.4329249084158,927.5251127444407 415.71872117336994,1024.0 538.4062313888492,1016.1327334431625 544.198526483007,1015.3724630354578 569.3169638402918,1007.55088908809 577.2566692858021,1004.2207278702374 581.1086616573642,1001.5226345904744 594.2971457770865,978.328034257786 597.0439926787353,970.5637158254744 596.98661133236,943.9933397997398 594.4620136833717,925.6409508525443 591.102137203751,896.9909066052342 584.992885546405,878.4951294988938 580.5565980667835,863.5875927944735 580.505374310331,836.1186057135901 597.2760343689931,784.9143855082747 602.2214242850162,778.023137634101 695.0627536859542,674.4158772136361 688.0577786740142,662.954655408018 686.015091001791,657.886390314648 685.0555212469874,649.9471472245195 681.126939620004,630.8021698700778 679.6577809985356,619.2671073747649 681.4297050382405,610.7682223923051 684.3726923176969,603.4545977201417 684.2744831262991,592.5737214876998 681.9181753620595,581.69864249641 681.0748588762001,575.1439797462958 681.8152063951844,552.5203294713099 684.0509071880737,540.919747133822 684.2105221295714,535.0998794550421 683.6286122601283,527.7054293484425 678.4055005009026,517.876773043756 666.4652674867068,511.76033195220805 655.5860386187946,509.5649306946069 645.719449366613,512.8249464602027 632.2433130786035,520.6631332062046 620.5202992465062,520.3818029148385 610.8388456239941,516.2761053215502 596.4312326254112,515.1502534775598 579.9421183049827,518.2589407078915 565.0155558568692,521.7836010753272 551.8290488035634,533.4862395933915 539.0708579905646,544.0514997898144 527.6518555531685,547.6481956694045 523.8692977297308,546.8568308950306 492.2733048972327,528.4853513201654 476.1701737264602,518.3516963170985 459.4523494525071,501.97974239408006 452.6192991693265,495.57932488429685 443.2068262952606,482.8952997426095 432.33198006526015,467.05833479486444 422.4809346579857,456.68960976350184 412.3865676448547,440.88276782970934 395.4031773777669,413.2624443840067 389.8824535697196,408.416233899747 379.31114263761583,396.4716821833739 369.24150635544026,379.4914603797522 358.7261913821017,365.2133255092473 355.2108499995392,350.36602477982603 358.81367214224906,331.8289794884936 359.8910520658874,320.212601438864 354.05757292816264,305.6780300660147 334.5535925593396,267.3388059838902 333.6120664507208,263.2578098659201 337.1825303424811,252.37806881656422 342.28552589768697,240.74232202965095 343.4935083993423,234.53168357784455 341.1959087751287,227.50593134555174 341.95609264173856,224.89628608213866 339.6054890426832,219.17075894440006 336.35382690910103,221.3421954724605 333.98739157500177,221.37679071316586 331.4108098769695,219.87575069558898 329.37513681765626,217.4418096123767 323.0608109929256,217.75474631391387 322.03953430861174,216.14022686636383 317.69256106212157,212.52343892723718 314.21658655407066,212.9775546738415 312.9033559880622,212.068447139946 310.55434542831614,207.1189916061104 309.4468182667217,202.895631720726 308.18808865035754,200.15566874666024 305.4113493390299,198.92064093792362 304.9588616276243,195.94432521026317 303.4581455102127,194.08433590330833 303.77994243320643,189.98345071549704 303.24498225536166,188.79729695079266 300.1904028452961,186.46906008858082 299.62695723075205,184.69978412136788 295.63309593930467,179.598983763256 293.37249788324647,171.47082166567714 294.5052732345081,165.3452461146876 292.48493447000135,163.41440930230203 290.3679084752966,163.13981214882983 288.10317617865246,159.14271975268366 284.7596665221548,158.7978431780773 281.7128044591545,157.61357949654212 282.02995001185695,155.10787521413442 278.46160970832955,151.65413286526802 277.4621712657477,151.33788455824003 277.7227960823909,146.04197636245738 278.5665782675004,144.291926864557 278.8704194930492,140.63182269599292 277.5239119621636,140.23277240108575 276.180381438748,143.84448760745192 273.68353056867744,143.17164529647926 264.6165864444385,143.50524020497323 264.1158324558912,141.7968517325238 249.7174027945428,132.77776948996984 232.648918161683,113.62714931009725 216.290096031975,105.00697057274317 211.63539717437843,100.31685253570299 190.60847854931092,85.85011539226798 177.72899714203044,81.91804236759947 164.8629950133338,73.72352876340267 156.31026136995004,63.96281274351452 152.85616308382686,53.446556052581855 151.3086198417238,46.44572728012406 143.54146517500956,35.91982915868823 136.93880848624374,27.734577009399345 120.54212372740417,23.411253711718814 111.17671808849805,16.77976051073972 102.21945615217798,8.981595978083078 95.2521851534031,0.0" /><circle cx="389.06888798688306" cy="771.128543245116" fill="rgb(100%,100%,100%)" r="16" stroke="grey" stroke-width="8" /></svg>