<?xml version="1.0" encoding="utf-8" ?>
<svg baseProfile="full" height="1024" version="1.1" width="1024" xmlns="http://www.w3.org/2000/svg" xmlns:ev="http://www.w3.org/2001/xml-events" xmlns:xlink="http://www.w3.org/1999/xlink"><defs /><polygon fill="black" points="758.2102812496072,858.862844428436 763.7337847211744,854.6008117385254 774.8536363547568,846.5606762910503 786.1182188232028,838.0279396197672 789.0075703966835,836.1351522696938 796.9241468246822,830.0478641979832 807.7062504607491,822.0101762173098 818.9448456336313,813.8839405775071 820.4269313553056,812.6624950065434 827.6678114548158,798.0416289065272 830.499777970458,792.7143984253572 835.1627745205072,789.4732426134335 843.438824998805,784.6906121780111 852.169872809931,779.1307470192932 852.4855300183631,778.1853187805908 851.3171804102466,776.014692083128 843.1028633118171,764.2919622912525 826.4966965906985,739.6758606001597 826.9491401456098,738.3517303144499 830.4788827271632,733.1969026564253 831.5483557226552,732.1871696831474 839.1470463732809,727.1339476616216 840.5289361779317,725.4861054541525 846.6546534418452,721.8562099647122 853.3974178762363,718.46465256351 855.5889785350748,717.1319249387204 855.5563820643026,715.4590926085366 854.575310184054,714.8914737867608 847.3876316204819,712.509330211839 843.4541055841987,712.1878929347437 837.7926589130595,710.7592983159944 838.1180271064547,709.8712627630316 840.3378897408622,708.7719175826604 839.7623689175203,706.5646014251167 840.6939225718951,705.1169699683204 845.3993596088295,703.6738316824102 848.0975468430396,700.675956953276 848.0570316785441,697.8432130718622 848.9452165211816,694.7889621161803 849.9772477323676,694.326167551081 853.7504429947942,694.3307625276788 857.9989138468264,692.6676950879604 860.7360976088996,692.5304619788403 862.7575871860804,689.8870926862951 865.5828330287643,689.1091401640692 870.8468094425336,689.4342576394879 873.2530385979223,688.8745588166051 873.7119061062135,687.774616577515 871.7689988105378,681.989637160282 871.6006263394735,679.6296662380876 873.0396526277665,676.1825093312646 874.4203979993587,671.5012575887883 874.0054970126232,668.4065143097301 871.543815058514,663.7594124492716 868.3140251299973,659.6610809071942 868.9153906297341,657.5523250349274 871.1841965891041,655.3767387700575 872.1804505043947,651.4630278698543 872.3286712772222,647.0305799766938 872.0241819526848,644.0871108995618 879.2644262329936,626.8205674935886 886.8488158819611,608.1350070542205 895.7257671874654,586.5038811325499 902.9255986014713,568.5135425171181 905.854965546808,561.5693072346198 906.4543298739674,561.4550775094287 905.846759083889,559.2817811590471 902.8753163879339,544.9585237343985 893.0842228806072,496.63811960482894 887.8570407830503,490.7870515682032 879.6755980138761,481.85417613547355 871.24448248273,472.8814281648037 862.6497857840359,463.41766767996427 853.5060512832649,453.5879936209505 856.3791187195674,448.11327813467494 866.1989101267229,429.79178001756765 873.1614268777931,417.0859703973756 879.471192738537,404.5697467664104 880.902129071741,402.1298136709041 909.3725865889227,360.8010157907746 909.6116830982693,360.11188942310616 915.5885688996458,351.0696409340122 916.995124175071,348.713546255103 923.796026668006,338.68507715384203 924.975263728059,304.06905025300466 925.1889067747105,299.65899548494247 926.1183456462081,291.11254828211815 927.7760368675706,268.48068000755984 929.4081562711949,247.3772983759137 930.2741592228857,234.73686970061863 932.0780109473784,212.34414400851404 936.6818364354823,201.3563644528541 943.6747111893511,184.28259660777758 945.5156431347685,179.99036219123593 945.8709163840012,178.54268555864678 950.7980549617905,165.68156787633097 958.0844082217083,147.2990793054703 962.3362197620969,136.14700891611483 968.4830710580142,120.71840385794872 978.5110969250379,95.04626654720084 979.6866719432765,92.63566394101088 982.9280493962439,84.62108921813797 989.7613348046591,67.21476803575604 994.0285448295846,59.73502692160389 1004.4580960096486,39.59011648449905 1006.4335956861831,35.933130792204 1022.2165037854469,4.064050234479737 1024.0,0.2518463513772531 1022.2080802297694,0.0 1018.066624490034,1.45977372256516 1011.2875563029628,3.0364406973466203 1009.201859497958,3.157217978999256 1005.7915646687445,4.612438188462761 1000.8188955298964,5.899574711205673 997.486000227065,6.458790367339475 991.3111787967969,8.72337364768066 989.2886091499698,10.793940504092234 986.8956946313034,11.588394896434238 983.8589330406149,10.299848564714694 981.7993925180613,10.740025722381688 976.0347143703626,13.043323732524868 974.0385410405399,13.09897821050663 968.089606410688,16.83784199886975 965.5360252419136,17.62052052636875 963.5733903754809,19.553959380749802 960.1130004925694,21.82074314011436 956.9484912268441,23.560045358928846 951.8817662924113,25.913246482020554 949.2072613866478,26.658199217261767 947.3615891609873,26.686954231027016 944.87430629824,28.825039537176735 941.0993522633025,30.25513060717924 938.8620213438807,30.298481598755984 935.3738296029652,31.107941213895856 933.025730141541,32.230535452036634 929.8124316503418,31.521834772782768 927.612886791566,31.803161040061582 924.7134425446856,32.88283848783567 922.011177915377,33.26915422301306 920.006681725028,34.128437609367325 917.367446901994,34.22190290214439 914.8517574739908,34.993685003864584 889.725170623706,43.25740819487885 871.4197471971308,49.1651466976233 856.75490348927,53.96091994540711 853.318454302425,55.18766677814142 841.2507147070727,59.019408134331 834.599457061064,61.270634417859014 818.6577613255255,66.42694717950815 813.6779864916642,68.10876008040918 811.494710292415,68.49510823202661 808.0719900335616,68.44436848413204 803.1493216353671,69.49357299650705 800.3752229367957,69.75274155209252 795.1755356465709,72.08146972753764 792.8155672061217,72.09788936667269 790.4744062027164,71.4357194400593 788.4516825133135,71.81373195914011 786.598652370622,71.44213830594902 782.5615993748697,72.29869866655758 776.2034802931577,73.25397778512468 768.9129486744783,74.05830629293405 760.0180619694918,74.69384261131802 747.6730616758402,75.71285766984624 739.4421162979818,77.70162903527898 732.676393274415,78.92025091924631 701.5708728056339,83.32536736525628 689.3575598764634,85.3490504078377 685.5837119309552,85.82583912578718 663.864035380728,89.3266312430735 653.4145505478524,90.78141223496732 652.3655569028131,91.04922506864068 650.025901695027,94.8747642377142 649.0874870882358,98.39215332347146 647.1299882639514,102.15123141547917 646.4117181900637,105.05758786470062 643.4338730562988,110.43431688814383 641.5186422915383,112.7168578881865 639.2069694598977,114.63549836468428 636.4666430583541,116.33630140213131 634.6168005675393,116.98669171337826 632.2512011641008,118.50004437980954 628.426790107488,118.76062416701416 623.2752476838245,117.81595235430814 620.6793813813678,118.60050801506395 616.0620106227494,119.41672305237432 612.1414849668391,119.41767439922057 610.0849231489655,119.7698043088377 607.3045180922666,121.97330785842257 606.2892274188588,123.84717881047402 603.7548932539936,126.94573094383611 603.2159911430533,129.78222854725493 601.7100644258745,132.68653228686435 599.5360450294851,135.24004314592833 596.9526308714037,135.8125579591284 593.5360557283997,137.46333617493406 592.6343815990821,140.27654834974408 591.4790661807273,140.8267012172937 588.7478808150622,140.5430085708731 585.8911340554838,138.17202883284529 582.8357459479219,138.08355156345715 581.1360815096662,139.86387681888073 577.6070758954161,140.99808271169934 575.763371196217,142.94173487333455 573.9976355410878,143.87595391731122 570.4180193806147,144.9808904653097 569.0306368795125,146.12381504049176 566.5037322159025,145.6578081724699 564.4049671891358,144.2899004941264 562.7783370000408,144.11526584060982 558.9130078096824,144.8839647366749 552.1149849841613,143.04909208891684 548.9105575141886,141.10109129567536 546.7523711776597,140.86079357194114 542.8853994913351,141.1324655068313 539.3879704793013,142.10851274935203 536.6659430870678,141.8949597611611 533.985326048456,141.0389292276842 532.413471724828,140.09241308528794 525.8097239081288,134.26218197350113 523.0675925822216,131.3020936573937 521.4717588039217,128.91411266254056 519.4838484338583,128.17062355161363 516.4715879699334,127.92343189076905 505.53361357866567,126.15280829893186 502.17525487577666,125.06281723228426 495.7454281421992,123.68505582305579 494.0064798527236,123.12967911668409 492.1841415248297,121.65418359713271 488.7802220436274,121.39717010935829 477.955235832914,119.0907438464252 475.95785340120466,118.92393130250218 472.6118777278914,116.7025065114641 470.1527322695249,115.96719853661625 463.2251323842344,116.00826492521139 459.7274948415679,114.40747552841299 457.21768969774456,114.22061634530712 453.56731940614685,113.2408990967482 447.4875278599663,112.09369535021358 443.1231099078112,112.65933401690563 433.45589989673425,112.45798418573088 428.3760767648535,113.09026390924475 416.25683191193,114.32344680292181 409.2162314229216,114.44666260103838 405.2953994215258,114.90778513648957 400.2150901516503,116.02356350777848 393.1915076474983,116.30074247199934 387.7931762719534,115.76530602083449 382.73709805505285,114.74138505471444 376.19166079014127,115.1999600319142 372.59228840444047,115.66522015000851 368.8220878113367,115.6400827597729 365.069350375533,114.79800353954897 361.1530576998473,113.62158098681073 350.50542499857715,111.76690954401715 344.28445397389476,110.26354292190376 339.52690713325615,109.42536131867814 335.5972234127768,108.42964995640273 329.7083509171546,105.13299451353407 327.2437206193312,104.30707809216256 324.77792924696587,103.97681801288525 319.8545487246302,102.49044826680142 311.4701795523446,101.1639360850678 306.8684448049954,100.17854647485683 303.09941376023255,98.36807491979198 295.04352212648126,95.89915270855738 291.26387451132194,94.58257826386739 286.18573362747514,91.62946679585707 286.83508615623106,94.41626465036916 289.1128999701659,98.51626185003147 290.2323611058717,103.6090911951693 290.0603316017779,105.4131752202145 288.55963639873283,109.01406261377315 284.9394207187414,112.0888112075645 283.18200049259485,112.43386914748885 282.1281592273783,113.64873022016332 282.64477422655756,116.53480957401666 281.8438464740925,118.10467549247437 280.65021192754347,118.41690230195775 278.1723779377748,117.26688664028075 277.80551479038667,119.63667342948429 276.152337525685,121.96726460461616 275.8745791130261,124.3856197137543 275.04718969298693,126.68028491404561 273.4710875172996,128.70135190632743 270.46956963021046,130.58749482307144 269.1000342421524,131.93281813672365 266.5979627842649,133.09631032983282 263.3976996698973,136.5579258297463 265.5375329717812,138.8491178737737 265.99007670372515,141.42336765950438 263.2934627534487,144.00600380881758 262.44887706973054,146.53119391187442 264.1217192157383,150.7325584422523 262.08585854709924,152.12718331608585 261.3870124833493,154.8861778879617 259.86697484244974,155.76051731409166 257.1041128021267,160.22593502224152 254.73567658312825,168.01047067014838 255.08590519181496,171.07967573093617 254.2832366100791,174.79348008810973 254.15933734759827,177.4751177922128 253.28017633053284,181.44468133355758 252.74180047086176,186.32383254569243 251.91753186572427,190.49787866044278 252.06564689003545,194.878825014717 251.6567341797449,199.39468885040048 252.09899566739847,202.8452811386751 251.11406104730204,207.8540783127719 250.5213589851935,212.87286596037177 250.83094988192957,219.37620474584253 251.45014346455193,223.03559598261472 251.2931068338151,224.11728965066607 251.73896666219684,229.57633060566616 251.968288121753,235.22413701805579 253.35952877207882,247.62138949697737 250.54792649034124,252.2414744405877 248.70495937087233,254.24275778156778 248.32516187025215,260.0721833185328 247.2249376224513,264.347664994699 245.21349415690602,270.48039867766056 244.1771026317752,274.6013642552782 241.85778507648465,281.31839113244155 240.82979689164696,286.3524707853495 240.91576543592535,288.2713214407272 239.97897065871837,289.8803468714441 239.69493797168266,292.47225326671105 238.45629255285203,297.02332823718984 238.56954449812045,298.62086041311716 239.41394834758705,300.0512092570526 238.34037372295253,303.5837762583674 239.05946128741155,304.3378618370839 239.01562077838616,309.9884766894544 239.28447127886525,311.84799434891784 240.59632510391006,315.28134313430655 240.7486622382788,318.2077286254497 242.4988266972697,319.3747425261911 242.6226928643363,321.80245905275103 241.77716230033494,327.21435690399846 240.77276756519262,330.8151576958468 232.22793677109013,337.5023815887914 227.4533346984445,343.2092133151302 225.148836064819,345.33108282580815 224.2999481413204,348.6784922362775 222.1914482150441,351.4789539552289 221.30334682228212,353.5153043044554 220.04964478471487,360.65575307248105 219.78582519790353,364.87653307786525 218.59871265241864,367.9767251183588 215.76967432175792,371.65606556920613 213.67369696393854,375.12265710358076 207.3586951349808,384.4516365145514 205.8064697557264,390.8690444849666 200.5938673694299,402.1481742642844 199.56328970540855,405.3934956699951 198.6773279675851,406.867894435881 194.3583580462678,412.13023239396944 192.83322477159717,414.4853382323891 192.67563510632587,421.2823623308031 189.75734663462066,424.2970980645119 188.10935905401487,427.89833161529856 186.586367328401,437.0671382852305 185.09026267040946,442.29983896735337 184.90758951223071,444.76382485488244 188.47176416486403,453.8022219716547 188.93605165182754,457.577946222569 187.6032591635564,462.3167534378872 187.08879744635203,466.7444685433441 186.73457707200367,474.1175679996633 188.81221582697208,482.3290996181107 188.62773362761286,486.9230652509272 187.30448405728032,489.2043719527417 184.66141739456333,495.2566518817264 179.2158443248721,505.5531312053041 175.74800511266594,512.9017960273582 168.49086643227048,523.6752311552312 165.51967193682842,528.9070749249589 164.19598095783073,532.3476931152852 163.52952196961422,535.4527476270603 161.2174186120978,538.2288226867029 161.35709953978665,543.9671600907042 159.86635991650016,547.5616202961844 158.36658201117257,552.3142315911659 156.2210906518282,556.8938334463019 152.71703466460025,569.827725328308 152.2077892982628,573.1062175238816 149.54548197539867,580.7893096537009 148.05339949231313,586.3611435422213 147.8666146871925,590.1307479421539 146.8654019473875,593.5648755889247 144.84827338160727,603.4013818912929 143.85692454689885,606.0200289548354 142.03464390802776,608.9609755483154 140.88976473848504,609.6087146336857 135.78355458134737,614.1822614128043 133.5345344924818,615.4799201188407 130.02663485035538,618.3128906453246 126.39337853855051,621.6618788649346 119.23852313179563,626.729891337488 112.72559790627919,630.1156750224877 108.70033512199701,632.4243253098678 104.6509274861449,634.4629911766483 103.33653430895961,634.5859941994935 96.92410529494575,639.8579171377978 93.41106917732517,643.5069506898456 92.46411445578632,645.4597434536191 90.56076754912881,652.066969535031 89.58924648867364,657.2698341914299 89.00780046273738,661.9356073417312 88.79839334960597,665.6266165283366 88.3355439648649,667.7417102729482 88.57576990337097,670.1916786461021 88.03341307236083,672.2302497587 86.85132426095107,673.8246938640435 84.27441504649941,675.8279153372247 83.04951194287442,677.8862554216541 81.35656863298128,678.7979705265913 80.23744415431153,680.682320728152 75.41647566406613,685.9062096027067 71.86463027345542,689.3060650701403 71.02435508559707,691.4116557260843 69.67213571218919,693.2530666562271 68.55761312527375,693.8085104400313 67.6420690711773,696.04226887602 65.85258599579204,696.7190692240634 64.25841598670537,699.595000887358 61.16456910640161,702.1707180015527 58.16802121696983,704.1721368885209 52.915411940659546,707.0975837379381 46.56245160057433,710.030457856803 44.413711092641016,710.390465746966 42.52248522924312,711.3892861917644 39.688822445917424,712.2226932986405 34.697933871836895,710.0033493372787 32.71599686967316,709.8650893487975 33.64121014592558,715.4793641397491 33.20491706757129,717.6334685510419 31.48482754139189,718.6838349216171 25.172948832964618,717.0776188298441 17.203480447475258,717.2091753649129 12.376613321157565,720.0787057948542 11.88052824170546,722.1480024095309 13.077365049374935,731.8279001616434 13.133645299350121,733.4667914867741 11.810872923274596,734.4904048458108 6.196291264681605,736.668347581154 0.0,741.388376360339 6.77707456563014,754.8576938200554 12.08528543887982,767.0418480614115 14.677719225530753,770.251254151362 16.54547808838796,772.0256313376981 18.53413198503874,774.9575419305672 20.19350073754526,778.01047346069 20.77107553463586,780.3729048273126 21.057503575422487,785.1209307513468 21.720528214720883,786.9740530579126 23.23093319430995,788.0491126946386 38.88589917957148,792.6608717276026 42.827642807109605,794.0162749671285 50.13199967406008,795.8911034451564 55.26746345517357,796.5235715168446 67.93304654644324,798.6143750368649 80.00145905124174,800.9565433190903 83.36529358107963,802.2374951639587 90.80544441942614,802.5355666416141 96.63745027902416,805.0265370425454 106.91921621520156,810.2681713478826 115.77983283261716,812.0988566615076 118.63853297080746,812.4427487216901 120.17255293532907,813.497373694669 122.87289915247726,822.0264766736171 124.61354969904193,830.2146315928217 125.42426586195911,832.4533203550403 126.84152564038615,833.720069500384 148.63169894955428,849.8079068249083 159.08006584100602,855.904019663888 163.75332002373102,859.3665006355086 165.2159966741563,860.9229134387358 169.77996585698486,861.827231265826 177.48580707913976,865.3727367629724 179.0363954642855,865.886316145094 181.6928444079521,865.8393809479408 182.24295839499982,865.0600589390008 182.1576901242336,862.2699520097676 181.2336570271786,860.3823453537174 181.5534335261062,858.9828708346179 183.59356414446964,857.4005670420984 185.54553233823478,853.979540332674 188.6068642771546,851.947480184413 190.24757566984258,849.563286366065 192.98981057870972,847.6155576347569 199.03909541195185,841.4510444606826 204.75555495512285,837.6180498948379 209.0101966655131,835.1289840012435 211.93690924733292,832.6731614126496 214.63844424548398,829.8019160781519 215.7397915978282,827.6760505827307 219.56382492823894,823.0612120964106 222.99308573623657,819.5650158258293 229.79103000977224,813.353214349954 237.93353603713635,810.6837195629495 242.2642572970666,808.2603072781659 245.7883933495786,808.4999094880162 252.99808776384765,808.6100602100564 256.2094820375205,809.5871648366239 260.1912876765494,812.565360515888 264.857630534114,813.742419576645 268.91983961022356,814.1048695579718 270.7497915714413,813.9409120725744 279.26152208941164,808.7678775516532 281.3357529781433,807.7155310176076 284.0124994135963,807.9806508506234 285.6409398338517,807.234366998106 287.50423243147253,802.3313181483826 291.64729270197085,789.3516754012394 292.5178562050958,788.7107076163475 316.68516453541673,786.2525358002309 321.2787511947922,785.9978199568118 328.7471293931817,786.6985462990915 331.4786051079732,788.6368939173879 332.3500137881947,790.7964796164488 334.60900903076777,794.8569142345882 335.8767876158475,796.6064023395074 337.7801512288382,798.2105554788822 344.8818904963481,802.8580540178834 347.9277423393943,804.4579704751634 351.74635250283364,805.2462732734062 359.1126454949282,807.5509548751095 363.9707385825735,807.8935256510109 375.476743802728,808.3170431376791 381.4698173148313,813.0200129810573 382.81169297839443,815.2732473520316 383.9719754956509,818.9196980101692 384.40930280328024,822.9985095002612 384.41407691818415,826.2767310861316 388.390897790828,829.9435627111143 391.88886415827915,835.1003411136413 395.73731324196274,839.1187044281553 399.9121152367578,843.1432415547443 402.16489798970474,844.8367855506111 407.6665614801262,847.8999257725768 415.32439790959467,850.3617545184786 423.44735368498067,854.1360211989703 430.79383440026595,856.4126511978438 435.2172679975211,857.3182052372686 443.2144244201237,859.7635048748194 450.43754686375274,860.5528391704145 454.3460294844019,862.2579807767407 456.8986472522131,866.0715971892382 459.9410511891111,869.8942214729591 465.1430051413403,872.9364771342983 468.2478557646112,873.9825276542645 475.4513524521727,875.4207235362172 481.69543032690785,875.7031764896944 485.45787592374734,876.5920526509838 489.56408606536706,876.5077521514829 497.59804135532954,876.6710739861306 500.39963694842817,878.1566256803247 505.38911325909993,878.9636122066038 509.0067788822109,878.8225223905346 510.10833213968414,879.4670806594556 512.0291387938197,883.4817109567584 513.6068472870536,884.3677288949975 518.2569936224792,885.3440586193094 521.357355506504,887.347102191938 524.4816243830214,887.9886638598058 529.3621663411299,887.4953941965235 539.492853841166,888.1450336258087 540.4906194100628,887.7143705616456 542.4775194222673,885.6034480551133 544.5031721348365,884.7804034930072 547.7501522631142,884.8354311338676 551.5586541734082,886.102600687352 554.6526807739286,886.7138497356744 557.8382119460375,889.2287423325052 561.1311909493205,890.1883177693406 564.5714739142717,892.1384473948232 567.7482931084959,893.3559589685909 574.078834932117,895.3716149747657 578.5443599217223,896.4986545505365 581.1500009956696,898.3410217994074 585.2153282095389,899.6282889084349 592.4662476412741,907.4017542385699 593.8790347672722,908.4970263858373 596.0538957669658,914.3428328196634 597.3941623793834,915.5305195550741 603.4853995573872,915.4681726786213 606.9125534731703,916.4925080872382 612.171027509134,914.8019914654528 614.2964473939726,914.8071961025723 620.8296437279653,916.5130676469159 625.6912790532101,918.0244359513833 628.0798516151336,919.5255087161518 631.8836905415249,918.6967076173343 634.974977861641,917.6616198667614 638.5804200780849,917.1003373080179 641.5451002378973,917.0054474380422 643.9222623015006,915.8561226007 649.7833703868051,898.9412000071665 652.2410589569886,894.3709499797475 653.1048867034217,891.1950934876195 654.3844644607618,884.7809485222206 655.1240844636092,883.0770500653779 658.2915797714821,881.5576014855782 663.2945532720828,880.1763214379513 665.1999704119235,874.1178879539436 668.3671111249621,870.4260703927051 669.2062780998809,870.3080770996996 672.1718444206597,872.783667744436 677.1750694125878,873.4147317494426 680.2686300544535,874.1203693684367 683.9832145492336,875.6455267594847 689.141153570433,876.9304326884647 691.0890478003022,877.097239387939 692.7939718745895,877.8483678880441 694.6806920522743,877.9676953505701 698.3497002018343,876.974745961126 702.2321633144145,877.4761312120265 707.4484523137214,879.0202024153715 709.498661576791,879.915628325182 711.8379889055766,882.0634197534871 715.3097431691041,882.8184584734248 719.1626674093324,881.7799819385639 720.5263951519026,880.5776949354812 721.9467638825538,880.5030797926064 725.0578888643942,881.4957226697312 727.8514009123522,883.3227197426573 728.9449165913452,883.2342634874881 730.7304134826779,881.0397796818985 735.6840991501977,880.8719412105141 739.3641047340421,879.7831641896862 742.262508767209,875.1422769026684 746.6478159234101,871.5365518143769 748.4473159663415,869.7048924403147 751.579704542998,865.0114477019838 755.3141260195284,861.0898893446135 754.3047583348888,860.2110823864664 752.981614982023,861.5449202730663 750.303072588881,859.5263008602864 756.9638271158674,856.5645558392354 756.6360846909489,857.4549243794713 758.2102812496072,858.862844428436" /><polygon fill="black" points="758.2102812496072,858.862844428436 756.6360846909489,857.4549243794713 754.3047583348888,860.2110823864664 755.3141260195284,861.0898893446135 758.2102812496072,858.862844428436" /><circle cx="311.4547185488086" cy="442.0829454002706" fill="rgb(100%,100%,100%)" r="16" stroke="grey" stroke-width="8" /></svg>