<?xml version="1.0" encoding="utf-8" ?>
<svg baseProfile="full" height="1024" version="1.1" width="1024" xmlns="http://www.w3.org/2000/svg" xmlns:ev="http://www.w3.org/2001/xml-events" xmlns:xlink="http://www.w3.org/1999/xlink"><defs /><polygon fill="black" points="261.957839013535,431.77605332901175 233.9621837863826,431.6663457784514 233.7292316854689,383.8895681995838 238.3639235090705,359.64043471007494 234.0400547627195,358.9181066029118 213.6390245875648,362.5952530744319 199.28957732023534,362.8120248006477 199.49119976169862,378.1991639390725 198.90620777255907,379.6074234954899 190.6301254199577,383.6282313579099 183.69811790823144,387.16146637629055 169.73948239863495,394.0768222925085 164.17563065528392,396.95571512385305 156.4240506227019,400.7029572414181 147.9213739250365,405.0368746723446 139.7817129029602,404.83708312189276 139.77453126030457,405.3231683577799 113.87927030865379,409.816715456652 111.91900125392046,404.28582219084615 111.12829556850843,404.1173227198724 110.4538747457057,400.80930078460875 106.54168819839057,396.27847755493417 105.40755728072952,396.5798923517503 101.957265240965,401.6579119642676 98.89424862451662,404.36366115821113 97.00550897533549,400.617814577275 96.08596638712727,401.1269950394256 94.07760296698552,397.186682958913 92.60296221307307,398.9119806982249 90.16016190957481,400.4889347473763 79.01618891151418,410.30383918665547 76.40671157161658,411.1674942328956 75.52828382887267,413.3719029991542 73.74580595964953,412.0816113878835 68.96503206567957,414.2005735276211 66.80266056866824,416.66667072739403 61.826682539341846,416.845114709364 46.98087217689225,417.7499499229331 48.36640493542714,424.95030813366174 49.49752758268962,429.3405489706953 54.00507287211163,428.75612074981655 54.58424035380818,432.83026537734827 50.963012629657456,433.6580090199207 54.99098990265197,435.3678213011102 55.09191895608433,436.97291011352957 47.768182181683564,437.9207654332544 48.378604745538816,442.0292667090771 44.102018611522546,442.73944256240657 45.025801000673646,446.8002432715771 45.620678226412096,451.14968274214965 44.89812143149717,451.69471610062146 37.4329739998106,452.6589343084055 35.772393028377756,449.38893262394913 35.5518781334349,447.54642294355216 33.03760837961366,450.09454727458393 28.721901848641227,453.3596902208669 28.00083959556556,454.44879416445895 27.923718584098207,456.1663781271901 26.169062279843097,458.4831345936059 24.77696576152431,459.1744544657009 24.632518738117128,460.7044784000344 21.700095071164796,462.06532659277923 18.08944327944454,463.16831739826966 14.937349515343378,464.6072964380825 14.589503741307785,462.63420528269853 12.059707284154584,462.7222240833225 11.657949859161292,461.63331224768325 8.786638659748071,461.97592375580575 6.39502119299238,459.6835148732074 2.0739924677145347,461.4839362428578 2.493438278253463,464.91638137524853 1.9559453361957138,472.2667062410043 3.0478691682247923,476.66968358130083 3.010848984127789,477.90089055995827 1.6331369664180269,479.86276220465425 0.3083676172483576,480.86572978602396 0.0,482.193814846138 2.295668810966419,489.2998604671659 3.4878530233412257,495.9111908676357 14.514244393682564,495.88109344974555 15.53347418559884,500.15778444302003 15.602145444798499,501.85948620422715 17.0113736306854,503.7386637824424 18.684764303610677,504.6860931098825 20.423179693850614,506.6659171554727 20.118521652635998,509.567358386462 20.568955410201188,510.8975421593008 18.55048114226862,512.4886253334042 18.086235806063716,513.8970233848577 18.481293953360332,516.0725883694544 20.16585538887067,518.4434795411732 23.938116343844854,519.9244065286869 24.68659790298048,520.8926564925896 24.51335021100588,524.4884032818084 23.19746762141628,526.446285453532 23.188484830191594,527.472962849865 21.287418598348285,528.7236766326077 20.02354930257198,532.1295117794712 18.896907709533757,532.6591641536775 19.497218979662925,535.0475377377868 18.802880618038678,536.553304421687 19.09848907129669,537.532436604364 18.345073539627872,541.6575037720119 18.556282196970873,542.6384849469126 21.566743527141536,544.7928832850721 21.955940909148268,545.695652083363 20.82463499533968,547.9828848759653 21.44618526298073,549.8583007841764 22.555517275121307,549.9419846175294 23.183548513239725,551.6352640082769 25.228565263895863,552.5018247643068 27.18411953032159,551.2484635073397 28.453769414342823,549.0403206252515 30.001518077599627,550.8040777008687 31.961101039109657,550.6776528644139 32.327622444689595,548.2081347814496 33.725271267956835,547.5054575194088 36.2656546420779,547.4229034251313 37.11300856990981,548.5060335087751 39.471971012802335,548.3364373120003 40.01586313568371,550.901285949869 41.81607583029289,552.567687264122 43.49428958219318,553.0510809982309 44.94647937612757,555.1728551800418 46.14007373498479,556.140385287614 50.32068640215901,557.1127588259167 54.24493180774136,555.2383164205025 55.41955728537157,554.0336487802053 57.83124686712643,552.9407733371042 61.32644427576045,553.4795534279408 62.40218316205254,552.1357427143912 64.77862907029433,552.6676191252387 67.10899735328952,553.9128843560077 70.86332766885799,552.503937614502 72.10278641142764,554.0073898285906 74.06884860969967,555.4435328011552 76.56781234598961,556.6428140239389 77.99712336624181,556.814837795134 79.78421739785904,558.6695252327471 79.82708662791056,559.9788147095608 80.86007573154706,561.6283840892261 81.91750669246467,565.1021259141228 84.25247844446011,568.5614006840547 83.97600590391049,569.3397836386624 85.43531086869028,570.6892984145932 85.13078991547486,572.8789706471819 85.92487666628625,574.6431458099178 86.91446402100982,575.356961018188 87.53652275941765,577.4244739183769 86.99395322773215,579.3886241507278 85.75529945501724,580.5647862682265 86.31068717234257,582.4936805018206 87.82754126806425,583.1530539691155 87.93183786094333,585.2091257821451 88.5894781523482,586.571028367997 93.06075436579151,588.6757798557956 95.00463562379687,588.6266589559921 98.47373219825813,591.1958723780431 100.06612994980624,591.4461003811819 102.25416366708521,593.0844851375141 103.90951244742932,595.774777487951 104.05848614601607,597.872527416158 103.21640996847614,602.5555953335235 103.2567625090828,604.5405768619945 101.91697764389794,606.7605901890888 101.0612061754689,610.11540885521 102.37057006263005,611.2456929815846 102.6680665595813,612.942272783923 105.38721308637778,613.7371252301267 107.57249536290534,615.1688056717335 113.83687499852631,618.3406023175444 113.64151427945288,620.591162302873 112.09587982512386,621.8208081979017 112.93274478744893,623.0465193403156 113.39723203730082,627.8676418538123 116.78445403949176,628.602456199189 119.09443360556678,630.655132529206 119.57149121642514,631.874368775023 120.80554136931255,632.0744876366268 122.56542047968905,629.3319992514669 124.55124581005613,629.121265691288 126.52017365827085,630.2754787150309 127.46252820151979,629.8592206448674 129.09435975585475,631.8621759049126 129.80762218664233,631.5934560373149 132.45405700240616,632.3131043694294 134.04112604521393,630.2813783249353 136.3998685741401,630.1506553389876 137.82729669312027,630.835880950797 138.0326443190202,632.5448353784192 139.36215694786895,634.2895840693466 141.6609002167066,635.0506311111111 142.33525231220705,636.8465533292148 142.19243346216237,638.2073319630199 144.07715775913096,637.7645116615327 146.24421343751604,638.3372901563987 148.68996052747642,641.3250354597844 151.0766158361688,640.626358215219 152.58794315471823,641.2419005061929 154.031753220662,639.4280459735252 155.42603543207662,638.5065775443593 157.45416099948167,639.7735683078598 159.19627103629753,637.2854641216761 161.31755284480383,638.4739997202968 163.34795217424116,640.1814328961691 164.04698074680456,640.1702347591505 165.26718999357053,641.7008139022811 167.3270556940707,642.9408600838295 169.55253531266013,643.2934861049774 169.5659319365111,645.2334022818052 170.9125673878526,647.8351802121599 172.86087663351515,649.952972142159 171.50868575978043,651.9746181492828 174.16215162486998,652.7811275353047 176.52453953919863,652.6963452958817 177.45308941693344,653.2610515095193 177.34483325701032,654.6553618951841 174.39967903637205,656.6069440059415 173.58061585305887,658.7387120130497 174.30619906427694,661.4596253888549 175.5181921453947,662.2831676353435 180.1157751132538,663.8586819145828 184.89612129846526,663.6687624988742 187.52022007348052,664.5005387156289 190.18471085989896,666.322624936843 191.87409579467135,668.8986033418514 192.67834068727817,671.3265882206239 195.32469299600763,673.9246467507941 199.6092914495152,674.8309530195505 201.44392827249442,677.9452096145858 205.0659984285941,680.4389376638982 205.97792307956468,682.1466110488252 209.69055602400346,684.7792030059029 212.07459501810774,685.2825109900539 216.658842516229,687.5370886873973 217.43591368803905,687.588289930816 220.3748190160242,686.0788709503606 221.70879414153197,684.5605971287058 223.23006112304503,685.9991108534202 225.31466122047448,684.36529951242 227.5000354240446,684.6144229403549 233.56067694592468,683.4311923458482 235.73354074803075,683.9464366453924 238.46342631714958,687.9578170741584 241.39950553469248,689.3922693118085 243.72163124678332,688.9088795144834 244.90229629887344,689.2717334393354 245.5741137429473,691.0033191739135 246.76437367223926,692.0003379061067 248.33786801993756,694.3292009423883 251.15524457996133,693.0360821042881 253.81254950803404,690.7459667781659 255.87606442103944,691.4472071545317 258.1347592295373,694.228867853858 262.1639999835836,693.9216964643749 264.1197463146422,692.6303216355896 269.3526535073688,692.7327454495517 269.89534886766455,693.7087334619071 270.05265250856337,699.4153646231964 270.41294292883015,700.6647632200365 271.7767976726508,700.7449093915686 273.46217940525446,699.9453094414732 275.16343406626055,697.0823443033433 277.4044458019588,696.3810166541142 280.25499175333584,697.9973141157657 283.7039549860796,699.0586887796429 288.1916451655087,700.017406860331 290.78240655847736,701.1489276501485 293.7084494732787,700.5727416839492 295.04286212314054,700.7192854388102 296.4458365937896,702.8680184898185 297.53351205317705,707.8940912315425 297.042987317903,710.6438204247464 290.13589479313396,714.9588580671344 289.36647087660083,717.367473229228 290.150091906268,733.5310642490663 290.56952116637734,736.1524546182034 291.54264662051287,738.4538097733247 291.9409539758011,743.2774526232629 292.66454535169197,743.8721106736334 308.19389259884656,750.4202456765363 309.56814906219347,750.7070650970617 310.72610775682335,751.814140121572 312.46467711565083,756.1080283915173 314.06743116840227,756.5128325549817 315.36566288694473,756.1323088701845 316.8173390196741,753.4514150627879 318.8473049349121,752.6599593934219 329.0529189547307,753.6376675854208 330.67546147841284,751.0086049715053 332.95977202550364,750.7926240294335 334.39051475360384,751.1517723718797 336.3553253650847,748.2841820892278 343.56069912578755,743.5772629533299 348.167591247482,743.3587010795154 352.5566020077366,745.9103556271148 353.5402230514225,748.3022245293947 352.11881180528263,751.6793198111836 349.3746815828967,754.4853853941042 348.97320780539866,756.6280824207388 349.606831337644,758.4898229401073 348.8810258576524,761.0966486266483 348.7055605199164,763.5916776360701 347.3574875281581,765.8200423584557 347.13513999202087,768.501583487911 348.86917587781767,771.2713359651677 350.988541964525,772.610693367399 353.7502854056772,772.5509693592693 355.60991647581596,773.1951020975052 355.21319169310493,775.4651560854535 353.73549356461973,776.5003676666909 348.173840199774,776.7796638472842 344.14970991373906,780.3055099614526 340.57427586823496,782.9927966108919 339.7873399252623,784.2627270779045 339.6678806058908,786.5734675105529 338.41747658477607,789.5128860778461 337.141630980814,791.1526478792811 336.46343659407324,793.0901745072334 335.1258670903659,794.2121377608568 334.6109777356984,795.6403765277744 332.82122156999384,796.9797158707443 331.3452247609247,799.3234397514334 330.22643179738554,802.1081176076252 328.65186015007663,802.3064826957526 325.6454672636173,801.901127191422 322.41754671479794,804.6006310745576 322.4302823305801,809.8135815455728 320.95376141825557,812.2083770222272 318.66353663480936,813.9595628975574 317.44139785252577,817.227537592812 317.84455829161834,819.2797963183851 317.1551095934184,820.96682575954 317.0907012121081,824.0188667572821 317.94128406589346,825.0980032506525 317.14568576886927,827.7387365135886 319.8134140150908,831.8221526194187 319.4378629264171,833.6256281240555 320.49998741688967,835.5301208194627 319.8125188536566,837.2941988487717 320.1110727210992,838.7885821821899 319.1621655547771,841.6466645386208 317.44606030643627,843.085625501559 317.54016558704853,845.1679411934343 318.7358094139177,846.597984586986 318.9790645909783,848.04437320239 321.68107128151377,849.0684661387511 321.3319903417976,851.0235866049285 322.1372493537457,854.1332139625881 322.2475072594277,856.3592737684522 319.25158015315355,858.2984860208227 319.09801570519795,861.8718472082052 320.02887288428457,862.4535232810088 322.46483981039137,862.2502727624162 322.77465490488913,860.6995753924834 325.2138029229742,861.5143293296535 326.3834725763725,860.648157051272 326.24971127301734,857.7666372681172 328.3941843655812,856.3111123004121 329.19596539965636,853.2368326834905 331.8429211043482,854.4807269808485 332.8265640306057,857.4413839015884 333.3333926462401,857.238147300989 334.52372562942065,859.375048010344 336.97157501790696,859.2204629913347 338.14598051332734,859.7002837356209 339.40876184127563,857.870940322847 340.65561226276577,857.3885280513847 340.85476867854186,853.9822193516665 340.5834523609092,851.7961194612407 341.3338204071179,847.352662821443 341.5545014574573,843.6608329679334 345.1220726662403,840.471089282017 346.2080556813629,840.3055509434612 347.23790057288335,837.1151444317163 347.15056605461683,834.1170200973696 345.368996416979,833.685698400913 346.0906246464258,830.8604052953845 347.2096939981914,828.970744502084 348.3595610607946,829.3996981427688 350.3493917807699,828.217896210864 352.0984778444608,825.1287337955704 354.22946619791406,824.8993647800767 355.8406526873158,823.3277842307983 356.6365736245869,826.0632054607065 360.4850918529029,830.905374476205 360.63595652678504,834.994128383153 359.85713680875864,836.8051351217376 361.809676983554,838.3726310352046 363.4770886322675,838.8827950493783 364.97747144528523,840.6606507700282 367.23086727021183,842.2338621154096 369.04847626605914,844.7567410544779 368.79715353293403,848.0719807305529 373.877460962187,847.5963680333426 375.22391266266465,848.3702169420561 378.43493706254816,848.6026914492741 379.46341516532635,847.7565099459358 381.28591873151265,847.7970414412888 384.54271949116907,848.9440600802634 384.84981430247,848.0069800530954 387.0233745997233,847.4280294979884 390.7202115646636,844.1067636114462 391.87865472295465,845.5514983239822 394.7499795858387,843.3470039231078 396.0770137342648,843.3211477197283 396.8524607741862,842.3237400548267 399.32862659937916,841.832929310428 399.44348835642035,839.5405609261995 400.33349261555406,838.4634545871313 402.7189152038331,837.5804441566859 405.30811406950926,837.5301608733436 408.4116737464738,838.3173379668931 413.3260681297497,837.4856420212923 414.636207254845,835.953991434962 417.5348234416393,833.9811748194426 419.25775963929374,834.2324580544731 420.48950611644256,833.435532726882 422.29474989773814,831.1772770049354 424.34308574099833,831.5414883781156 428.4021683981127,834.5330653438555 430.4891282878368,836.644862355517 431.52884456561105,835.6024551578761 434.565966398654,835.2447465056839 435.2013883419097,834.5378371107172 434.9373719968997,832.2358634720417 436.6624722871193,829.887090844315 437.06190846068694,828.1137638110887 436.36809583373025,825.5101305335587 437.1727354481664,824.2333814757353 440.6776265752354,824.100068183567 443.8145359046484,826.2254307090767 446.6147564888645,826.1281378163907 448.48698120774577,825.3202676240045 447.9054254387057,824.1835717125564 448.11788436574653,822.0564773129568 449.1067225575798,821.1166871602566 449.2664467788758,819.2690688335301 451.4296326011543,817.743208701638 451.7406383698022,816.2005081458058 451.1664864328416,813.1654600817049 452.48594578622925,810.1367015330529 451.8986018507456,807.5561909485334 453.4442058061519,807.6943355190285 452.98111972533127,806.3188206926773 454.0316378098724,804.5618428137284 453.3562913382946,801.9271623139489 451.0937922759955,800.4750944497987 448.85966272503424,796.838302831654 447.54292378430677,796.2711566974468 448.46070212097857,793.1099414908646 450.1468463212581,790.4465776608599 452.05619397333766,789.5874308320016 452.88076223200636,787.5557112840563 451.8839223438105,787.2191680694084 451.57383325240056,784.6217241592071 450.2311484578312,783.1498545341353 448.8107981769471,780.3049955608866 447.4829730126158,779.4448997855352 447.5563754922963,778.6279440020085 449.3816871185177,778.6032655643702 450.8595623155966,777.1414915407315 453.06037792488775,775.867682171533 453.79493574807714,774.7802235050614 453.66655533905805,772.1937571680265 455.87784736296226,771.4396589603473 457.7585181371085,771.7306029913914 458.50453484777165,770.9277042128675 459.8508293454113,767.6176969798956 459.51471289502604,766.2146062661739 458.31083317053907,764.7300053096955 458.0891142506138,762.4837679784107 460.25396678616386,761.9242338465776 462.0245171009709,762.9149166288197 464.6976249648077,762.0067539769337 466.85405033069327,761.7651869119738 468.3791281285012,760.9716355712497 472.71450573644165,761.7782431273245 475.53913973275525,763.1930558506826 480.42545383570126,762.1216709716185 483.40302948387784,764.854145263995 485.5301024045077,765.6601672379213 487.8543445948719,768.5633240251311 489.27645639197243,769.1061598138305 490.1768171908432,770.9210166446659 492.8859950645449,771.0894837983872 494.3483519470105,773.2915001903583 497.8443553714057,776.8151228063169 499.4583619594062,776.837517140522 501.1205956603115,776.0014856989702 502.0463486440397,776.4061917931625 503.99537739758216,775.7840774059455 504.73454224681024,774.6102938370278 507.2643615011645,774.5668735015656 509.75777950599957,772.7205998803947 511.75138452509316,769.7214372046499 513.4299070571574,768.548403541653 515.5040802867725,765.7054152960369 516.4978086135486,763.5479277159798 516.9650706994772,760.5999423019556 519.7607055816095,759.3606556379755 521.0362198282543,757.5598711857853 521.2246394990376,754.3565457586469 522.3841556932585,752.5946509636476 526.2434577497835,750.5946684021699 526.896636819581,748.5033410239982 526.6231602815038,745.7329883153056 527.2646296932114,743.1478841599154 528.6349522705017,741.5866302592832 537.5157414299847,742.4093186331037 539.1682819276176,741.9152119966026 540.113917905879,739.9533130414334 539.2335721670275,737.2447948417507 540.389114909665,737.0919071519368 541.516703761649,734.6781031455321 541.0232537397251,729.6993364845346 543.2482672756266,727.2865301430504 542.4360906105603,724.4427825146352 543.2853820886421,722.7294280238233 546.0101121295339,722.8728047855359 548.7663884342063,722.5452656732441 551.6544160522736,719.749914505129 553.1027025992408,720.1853305852622 554.9329487514401,719.1967570544937 555.6621773746352,717.2203347373365 554.3205155038646,716.0937781446919 553.4214703645957,713.2389952130634 554.7656869175166,709.1261699132892 556.3783959408871,708.9845891403671 556.816582228543,707.6335801812297 556.8818640449404,704.6771129327278 557.662252528657,703.8206749735422 560.3839527711474,702.5732208994699 563.7445939905581,701.7804694108712 565.837769882918,700.7623650023272 568.3405917021357,698.2692781620453 570.2796935591468,695.7941045157688 572.5371652792131,695.7968338789237 574.8663630674915,696.4143076237156 575.4779314256757,699.4390659764418 577.0929395779871,701.6129841398274 580.0983919162654,701.8724255130436 582.0673963222658,702.9585709243779 585.1571776503512,705.8742558436525 587.2611404305148,708.8788008879096 586.1984374409882,711.3991623999849 587.5518861279036,713.1846181743526 587.4810282944079,714.3767653367939 588.3937952617896,715.1873404501118 590.6161539878839,713.7410854400679 591.643968568721,715.1738731989719 592.7030342448505,715.0309644302531 595.4487971533941,716.2724432369716 595.2525545049472,713.9625405290188 596.354433114468,713.1643296374662 596.8261927890495,711.6764512288097 599.0099957049389,711.2109057533146 600.740074944981,712.1653426213312 601.4628671745719,713.4451712277912 604.6200445358016,713.0492463318612 604.9784689179554,714.2876165791447 606.9320478873822,715.2228807520388 608.0252095923615,717.0954812251182 611.9738318767112,713.0342718201498 614.2198433553995,712.53068122518 615.2791696453721,713.7015179319242 616.3470921269798,713.3054439468217 618.0701975534055,711.4960734557035 617.5852904852419,710.0880928473435 617.3989306529885,706.5143541398281 616.7752421119094,705.0970480018252 620.5050690057221,704.6705293090642 621.0170727040887,702.9543780511874 625.6091752517802,701.0115488892529 627.7556187228798,699.8255185214489 629.7463768440382,700.2202489151593 631.6203174733877,699.1312280207193 630.637408281274,698.2175926599509 629.7511809947734,694.7557654711505 632.1450247448928,693.4147673549946 634.3121498972638,689.6839381570007 635.5974438842294,688.3396323955568 636.4023992572977,685.7062603732984 636.1626122455029,683.8949614066506 634.9544796573697,682.3081726434267 635.5641938788926,681.0901686088893 635.5614698562913,675.513246852925 636.6305869668062,673.7040001609971 635.4913085936827,671.1448732265902 635.4308431669656,669.7269600381126 637.4738003936978,664.861076568129 636.9321150224152,664.0276161138185 638.2562530863445,661.8049671254125 637.9971006833334,660.2474193684653 641.5107714423771,654.8493703420047 643.0907806814797,654.1348000871081 644.5288343978117,652.0909301272646 645.4589546549525,648.8367315261897 646.7724301094629,647.2754051444284 648.5811583170533,644.1775654241053 649.3064137223851,643.8067461774014 647.5142056740802,639.7072297570478 647.3480283396141,634.7666043415807 649.1974627683464,631.6598123792064 648.3524989638314,630.0841314388829 645.4467956493486,630.3823536669639 644.5078622746927,631.1391735132614 639.636797382227,629.7506371119936 641.3145971812789,626.8040530851401 643.4533363543342,626.0534698948129 644.3860441776908,624.346083795756 644.2372857040499,623.0861536768152 645.2547678941341,623.0510024456844 647.8107363565983,620.9108127256792 648.3472968591941,618.9402665334544 649.6221314083875,618.1247195038461 653.4319415159393,618.5138496580342 654.9500703557413,618.3108106305584 655.6732275537615,614.4044908674767 656.7987150769451,612.5542032089306 659.3756688774621,612.3046176860762 662.3221899778865,608.7345165481063 662.523957812246,606.4818618432911 660.095718233259,603.8401520623838 657.5787161984023,600.4947768872223 657.575612335817,599.4033767740027 658.6073952997511,598.8418365563546 658.6464062306659,597.1319880256983 660.1696224286903,595.6121312318004 660.3769268950552,594.0853443187714 661.7822050782582,593.3712182389243 663.2424826432338,593.7205327005979 663.6642293599497,591.6241799652298 665.6680488538004,589.3712856737554 665.8806370463484,585.9125362571972 664.8590560355645,585.024410410075 665.282537084659,583.3787911143095 663.0645339417096,580.0552521291452 664.1478577379889,580.0990795810878 667.3407282152438,578.1180897816757 667.796402143275,576.6959616675801 668.862218211364,575.9993030853207 670.5538981869252,573.6970300616655 673.3362832419004,575.640723142913 674.6880672610616,575.7530413278355 676.4969043799678,578.1140288385343 677.1644668178791,579.727519147999 679.0303901995184,581.1448983819281 682.5220880575587,581.0275460698169 684.8110365689203,579.8157527363896 685.7292516707608,580.5414755970353 687.7574605189169,579.6097702680129 688.4693474975578,578.6394076655569 691.2912425195423,577.8901096282532 693.1404434421436,578.18318503294 694.7118316658815,577.0419353125737 695.4937707273887,573.4204521257628 697.0187953355057,572.2148959553692 698.5427927786938,570.0025537915485 698.5837791912365,568.5938713801014 697.0962390742783,567.3253047125298 697.0618081930062,566.086876296785 694.8391084980145,563.9421750328551 695.4955397539641,563.1418374565646 695.777466134508,557.7190575512138 699.0777340087434,556.8601217474427 698.3141676156986,553.2826072324659 699.6855016622487,550.4314559813884 699.0174175269494,549.0285133312225 700.2753051964331,546.2337850020805 698.0155940447671,542.5889339601931 696.9723237916547,541.8799954001754 697.4652542434843,539.8255285715134 696.8860643470513,539.2831182230244 698.7050679123539,535.329096169288 700.5321636673256,536.2529681968323 702.6913361474305,534.8987162867768 703.759289900368,533.519635106813 705.7360276562472,533.6870049715445 706.3296745988752,534.4942786696597 711.5179480784822,531.653487123828 711.7846372881288,528.5811524749236 713.9092696038394,527.7844721066058 713.7669563425028,526.338324326945 715.8764908697543,525.4591253615836 719.2865744358014,523.2291113725463 720.1148426525572,520.5921677334807 722.4861532100773,520.8359243020655 725.7322893855476,524.2957560170767 729.8957051009965,524.9966553781779 731.2981229774605,527.4115900327511 731.4595796386858,528.607717201143 733.6219468749583,531.1723633970583 733.7578205392425,531.9042653384793 732.5416381415254,535.1632696627191 731.1685908806763,537.5086233278537 732.0026271663517,539.7737599335308 734.0376040426277,539.444935371951 735.8866139707517,540.1488985299909 736.7547084719624,541.1068860608603 739.1366302975149,541.3071041813042 741.5356258690534,542.1880446129135 743.8847453416622,541.7911596356773 745.9236524346593,540.770771559685 747.34083973083,540.7498001671536 749.2197628412683,542.3575196134766 749.9551146045676,545.6512323880477 752.5588252616589,546.7693389577469 754.401344281807,543.9461098011442 757.5475877118773,541.5400152931163 758.9397314678251,539.9476888383623 762.749958299652,538.4432350014598 766.4764602338585,538.264689857236 767.3617980191922,536.8924268938595 769.5625901331815,541.1495803594739 770.5127398615019,544.0729193780035 770.2018768984312,549.2068378320812 772.548512282688,554.5067530294688 775.1095707807062,554.6433095521018 776.0899390750621,552.7061697996394 778.4303219962877,549.3686324143466 782.0210091290264,546.6077810359086 783.5242159113869,546.0471717430096 786.5206180997344,546.3983254206894 789.9775813161435,545.1915204847605 791.7934177183606,543.9962786539274 796.4074665774065,543.9360618890388 798.7014489667866,544.226717925937 800.2406442152776,545.0104882082971 805.1293518036248,544.9323743652112 807.1350225097536,545.8963940640199 810.5346512027182,544.4479427108217 813.8758976332992,541.8381886553915 814.9470331458667,542.0408965273696 816.5747131631556,540.372121764161 819.0246302513665,540.9674416276684 820.0896124529748,543.0261222444236 821.9406161698631,542.6249093832262 822.465601654015,544.1496544421931 824.5944740555473,543.9646166762486 826.713175769423,544.8535616561742 827.1100750155344,546.0031824771893 829.6078814509069,544.8970323912549 831.2606000801903,546.1381860265553 831.8614084244878,548.2080580890404 833.3667804982364,548.7504406849805 833.8065143019822,549.7228131219525 835.7158323200691,549.4001211437583 836.120100925065,550.1333752961891 838.0646312891015,548.4599901575884 837.194513703348,548.0878391801484 839.0548915016684,544.8459535937903 841.2714014046212,544.8790409687695 841.3279938221413,545.6410709112166 843.1509000734399,545.1234359203273 845.3598955362079,543.6331259021355 849.6073243843621,543.6167872612633 850.3398071075791,542.7650180398414 853.7627845437545,542.6067573948014 855.807721451161,545.212158079428 857.4261535848626,545.6876675511214 860.7657157683731,544.3264164752339 862.049880116684,545.396401955381 862.5047827317356,546.7671185213748 864.0437820960273,548.012963276994 865.6853564628046,545.9221802901603 869.1421536603901,546.9834696662806 868.8542744806932,546.2683732116272 870.5659973319861,546.1876542535658 871.4344330069073,544.8019907717999 871.8417484298737,547.4496273392639 873.7466375833161,552.203279639752 873.920242659683,550.551801903335 874.748692044744,549.2098713408509 877.6359188361604,546.7078072132772 878.8154218229945,545.2193116660919 879.3222189870988,540.9253728028286 881.0995480533043,536.4533752639869 880.7330807008829,532.9477369191216 881.0274487070827,531.3816172509191 882.6017257033202,528.2635969996475 882.9307884248248,522.8442443261911 884.9776657080645,516.9697497760669 888.0390265249835,513.4603524752347 895.3299070439225,508.5706238771623 899.5777341976647,506.4652779307344 905.9879813948958,501.270989117803 908.6144063106792,498.8265970267711 909.4418293990954,496.3724562072169 909.5970857444436,490.3559308451077 911.8051396606594,476.7782430419281 912.0415993772469,470.73658922818436 910.0435847799062,464.77376192394604 910.0334052367292,461.4806018780845 911.5124707720155,450.9522073837408 912.450369754313,449.4491348238895 915.621660400863,445.9205441702051 916.2774242549968,442.33865787105515 912.2832078407572,434.53218277444995 911.1724875623577,432.8388955693286 908.1103302999443,430.806639748868 907.0668795681754,428.3470358440822 906.6747813023802,424.6950211189502 907.8289769174406,420.1741132298877 910.6604714843324,417.00352874664287 911.4719860876281,415.6929672897296 911.3018741371642,411.73877209450495 911.6740460521273,405.90527924088667 910.8612442506761,400.64615850554804 912.7419129014353,398.94475559211384 913.9973858346747,397.02720297615843 914.3724227956817,389.6343836183623 916.2469860079399,384.77600489932604 918.1130887240926,381.4228074599585 918.5924096329265,379.73021738673793 917.4351801131222,372.2688584399208 916.8218990618478,370.5986517618985 914.1196448034152,367.0316369231791 914.2450255352065,363.61263188117084 918.5383977404873,358.01582884940694 921.0673691710356,355.6963043264239 924.0971391870147,352.2046925847393 923.6831530928617,346.19000917481003 926.699449110731,340.9179296415126 927.2925568868125,339.3941294220683 927.7187869938889,336.4456026295295 926.6930147415724,330.56600192529834 927.1861482476331,327.8453714257089 929.4261391811983,325.5132238002835 932.1334673741542,318.5009346449365 933.7976326084764,316.5287086227099 935.9850609371106,315.81546506593963 944.4633371996721,315.3605970383029 947.9650497986103,315.6382338396967 952.2697354434416,313.8012943977651 953.4672497646109,311.6276815735853 955.436300974876,301.26210920848484 955.530588073708,299.8553649832836 954.0013940858394,294.72004566264263 954.2126865852102,288.9669287685716 954.1461728364195,284.6987304700259 953.5603191272625,281.2815906043951 950.7955688858192,275.5096169370606 947.6288731218561,270.5966899218747 942.4141042563346,264.9334114132821 937.6575517431519,262.49570267468107 934.9540667882152,260.07785519532445 932.3151776542784,256.5703364188855 931.8674973708243,253.28825410289028 933.4263478102567,244.78824749951377 934.2851949591616,242.13570355417824 935.0429885712165,233.88221430117017 935.8371797260104,230.58649599042178 935.7038594606645,225.60504558231287 936.3905998066493,224.31159336382507 941.953101341724,216.90017626558802 943.1447791386514,216.29527485515132 950.4436294851815,214.42632527285446 953.3519519613412,212.1873494318437 957.1133342781368,207.44647258179975 957.4018157365174,206.46705846365091 957.4543428172253,199.54282083998248 957.6991804188857,198.23099655623844 959.6980752674219,195.55413377637194 963.531830346732,189.03981541674807 967.6588289821201,183.0386191404035 969.5121282513367,181.16661902032092 972.8394281464268,179.05432774054714 975.8582120954113,178.2241102290427 985.6181532059609,177.92674920560535 991.4074131676228,177.35260926980493 996.1178160344655,176.56529668385667 1001.4126785633306,174.29431749477374 1006.2881590114441,172.45270832582753 1009.1685529928644,172.1926596609636 1012.410369975612,172.91425092846941 1016.7617102893544,172.51643552949133 1017.8953235472827,171.4446590103713 1016.6730833554042,135.5901199183986 1016.7910736414377,131.10044798167007 1014.1335637672776,91.42607377519221 1015.1409151799925,86.03413587467458 1013.4274846388599,57.22901291717994 1024.0,56.8623618651759 1022.6985116766017,38.77692527834654 1012.5548801996565,39.5046247598973 1010.8260806441161,0.4520963287459381 1006.812445574722,0.0 996.9483748556149,0.1582120655888275 996.5030113505646,4.227825470834205 997.8822227912434,7.778822964412257 994.6753855164543,8.794338654118974 994.701023204194,15.295200694011214 990.9271188351536,18.122908067840854 991.1168763371744,19.930892997119486 985.4737751204156,19.889069043677864 983.1671627934294,21.97022364815041 981.4027598661568,22.784957531668624 980.5409906489077,26.14725028183443 977.2311563729007,24.84951421664482 973.0435996410953,38.5960330654907 971.6955280903411,40.21177788052671 973.2514858188606,41.58457954015694 971.9678797403427,44.57933147389383 976.8058445846706,46.806877561143665 977.6949850632614,49.1544465236567 977.948167820574,52.19037102916104 976.589796853773,53.66934871617207 975.473089216214,58.17741637256495 977.0435886410942,60.18601326227849 977.3377999922553,63.07345193460014 973.2000358611967,67.54905370472727 971.4438336209287,69.14585960703982 970.2096654226933,71.99391224609406 970.9106557864998,76.72196370361769 970.6606451599846,78.95649479264796 965.7842870621661,80.62230333814716 963.7279697249035,84.06619354478562 966.4477285306868,86.78174690449032 964.6172649796174,90.65160585049159 962.3575932308453,91.15779398154689 961.145670946155,93.01106754081911 959.9873487609416,93.53088633713446 958.4371607684086,97.57761616251912 954.6247870023578,95.43161899715699 953.0859554191477,98.29417177167727 946.8009401555561,98.86916511766515 947.3088313030962,101.29851062369994 942.4997265377124,103.59128868560288 938.4896188115338,105.8857318467841 940.21070255134,109.06686602867217 936.8620943786387,113.3332373048271 934.5312052997867,112.35551072782391 933.904317237206,119.88436249989445 932.6097967019547,122.42933074061659 930.705072585942,122.85919815003513 927.2439982082547,122.39648906462708 921.6896287227435,116.56159140607508 909.8101431243745,112.57453228124109 906.5008961667779,119.58371403032254 909.1472675207846,130.882604572662 903.0001631780511,131.47451011863006 902.8197422771377,130.4655922101133 895.906568876413,131.26062491537994 897.1878629494173,148.67105468769614 891.8811697580112,144.97870882473933 891.0275046285298,144.96869413902527 887.9904780982807,146.89819621968627 887.3338616245292,148.16683948739342 885.322203963777,149.0734969518344 881.0830943124658,151.57836975238354 878.8008281637253,151.52098817628735 878.334689231172,152.36017694959492 876.3423221610742,152.76617040820258 875.3165962647328,151.2135727402714 871.4931777420152,149.3416395920185 868.8560557729448,147.46711050532838 867.971662186213,145.83186860199964 865.9565281606458,145.21705882342565 863.5574744597666,147.39622621713852 860.5758019209941,147.4464346179018 859.34904607028,146.79711975479813 858.8273430251983,147.59002826101778 856.9749490672016,148.23056938804746 852.6614206638802,148.4375854770492 851.8418949196139,147.1490311193436 850.5893839206224,146.74610851073555 848.1625412758955,146.84989291808995 845.4627159331361,145.09135516915262 842.2546983539952,144.3366190995357 840.0379765829738,145.63517406357903 838.6206208611012,147.25106143757932 837.1028769911575,146.92107041441534 834.7970303836374,147.46480838737443 834.2635775655297,148.91968293803734 832.0122376520546,150.67714554672864 828.2649606112949,150.116885719151 827.0699187043876,150.80344350902635 824.946091699088,150.9346062914541 824.1076841172917,151.5008027387015 822.4479558706189,150.8922760169603 821.44869315212,149.69579975062277 815.664246204914,149.81405356624066 814.4436011715744,150.76277479868781 811.2581900135378,150.87586862533567 810.8386142073441,150.13355858684656 808.8932583853966,150.28490536920572 808.6535024258854,147.37530464693316 807.4487477376317,148.0778295852292 805.4625900622596,148.23924205497076 803.0685346517831,149.04645620758617 802.976187134805,148.21045665830434 801.2080824861824,148.36690225160146 799.0476563046803,149.42870975034145 798.4164879271913,150.51223249967097 795.6668831514187,152.4996783332292 794.6593898278591,151.82525119966874 793.1185647445361,152.1387405597759 792.0024073670289,153.80696748965943 789.040214979391,154.34385013532722 789.383745076746,155.73671764666778 786.2142542237448,157.16021647923378 784.4853531661987,165.82682713560894 781.3690346102724,173.95013764345538 781.2467649192043,177.3178373873959 780.5854369181969,181.7817177533733 777.853453682884,188.38150630514258 776.6052388279444,190.69718195804182 773.2479612374043,192.2209285119734 772.4841330141545,193.5752217382783 768.8912809263238,193.5821357384673 767.3857349443832,193.13063543466387 763.0944102010363,190.9847913835547 759.4365975590478,189.51293532073475 756.3216414324468,188.59018332034486 754.4575666919349,188.76398315753704 750.1648826032404,188.17040358605766 746.0453929008619,186.42121850604246 743.3055322397742,185.6629489815325 739.651527156775,182.93731828435148 739.3745264022075,183.19043873910152 726.5251905291487,206.38796508731434 719.6576084696975,225.05256170091695 715.4552641738372,236.9647598582443 699.9610860715766,249.39320200347697 701.0155285265147,261.8848561556764 701.7067808679395,264.3822106973804 701.515273546712,267.3474301501233 702.9830812775832,283.1612820865623 704.8125632106545,284.29260197384235 705.4249983539961,285.9177166980304 704.9924078091259,286.9851989725596 703.7451895914907,286.36383460272384 703.0988066192738,289.0531358940965 701.682253791744,289.1555983835615 699.9080078586269,287.88936979390155 699.3838263001744,293.00398239162666 698.1814395957144,290.1532580734329 697.0148882668395,289.85561413496487 696.8629426476376,290.89921364081624 698.1633666149859,291.3455256421968 697.5927685298788,297.1535414605346 695.3134302286375,299.8511469850298 693.5250178110152,300.24473493938774 693.6140681659772,302.4509936032756 692.4552751179547,302.4976923835643 691.9337073738554,304.63875647143163 692.9792643863196,305.1982276280643 693.4835761531021,306.57663186169725 693.3642834269064,309.37883813695464 692.8786663175487,310.26053860852414 693.5486057967829,312.18101839695976 692.5958027168446,312.372819386547 691.5954594350692,314.376840068142 691.9429398126456,317.1051255484708 690.380909886711,316.30144626008985 688.5685433644369,316.4739862447034 688.4120606879617,317.2557363564464 690.3302784510489,318.06461971303224 689.0208467029918,319.0161762528501 690.5927161641655,319.81076870466075 689.9139477922054,323.5091165945554 689.3081088419033,321.22146915777614 688.5274330663625,320.54023246393456 687.52641131331,321.3922097113026 688.8013804753303,323.4623841584681 688.502039106885,324.50713451719207 686.6653613336888,325.0183360352237 687.9239239128246,325.4354278980594 687.8831918876352,326.42517143789416 686.394940066173,326.6046754372471 686.3837881486279,329.4938039467354 686.8452993031397,331.2465238472055 685.9252846342865,332.63795839792795 683.9073254451943,333.29847878233204 683.4298852151564,334.74032368541884 685.0597884734582,334.65230540935306 687.2404444152061,335.2504698036041 688.2796671829377,337.21965788245825 687.7383647607106,337.4794157966039 686.4015846406243,335.8229163588776 685.2111988779455,336.6774514079144 686.5402399509824,337.6100483029679 682.903084326764,340.12852166537925 683.4040581814211,341.2544481061635 685.8524730028352,340.397478349375 686.243186428982,341.422170724333 683.7242082310364,342.71942087692196 683.1739254493148,343.9843573712926 684.0226121831657,346.3106469346028 685.6689264033591,345.53797405139073 685.5316794312139,342.80304470072747 686.6721004906422,341.7940632095218 687.6021784899755,342.3204189414997 688.9033184913276,344.4735650729008 690.6695981911575,344.9544845237882 691.4744226409135,346.8382130270204 691.147145261525,348.1491881946556 689.505716784152,347.850986077471 688.8084133679105,348.53122256348297 689.2172237446806,350.0744670048209 690.9107187835688,351.1360385573289 690.6165021710942,353.2531050046212 686.5722312111163,354.10615919200444 686.6007781496731,352.6956331429396 685.3849798745689,351.54216708894955 684.072846538798,353.26889004901454 682.0885170297115,354.20805554548446 683.9534720673104,356.50526879526615 681.8398304548174,357.5750262839145 681.6986737067095,358.8517321200269 684.5400745766289,357.8499253007387 685.7633169312861,358.16327450121815 686.9435315923479,359.62394832644475 686.7410427530236,361.50590557835324 685.1709806354393,363.7172610098733 683.8989158685617,363.86851300489417 682.271164886725,362.0847246302768 680.3852637979594,362.7221376226937 679.3330259843511,363.8416944800362 676.8965950815899,363.99703010297037 677.1828019531564,366.40525714716006 678.5778428855622,365.2178374776454 679.2417901486726,365.8581531670615 678.2692874779721,367.09743101130465 678.7479864043509,369.95736574792807 679.6743136744242,370.40243772370775 679.0455914845376,368.85312311017276 680.1849657530468,368.1819039331726 679.4431895142579,369.6148514447784 680.0423890420712,370.01993331633554 681.4555682343339,368.78133811628624 684.2159876273754,368.19607798022645 685.956432706839,368.5556738226126 685.4466089285634,369.41585089300946 686.5858949554586,371.07811101844874 684.2594289190159,371.7312834881201 683.7357534996721,374.2909963148788 685.5654434781097,375.90829909009585 685.5449019595916,377.27857632595527 682.8430258257561,378.3889480037294 682.0272342961274,377.6654722236815 682.2582759259496,376.300460344815 680.4646727656716,375.54710876280177 677.4003628584501,376.5525361909521 677.0838963832327,378.09533539450115 679.5247802404172,377.4038312003894 682.4675362975775,380.001206024153 682.578502788473,381.480196702438 681.9365583693977,383.2142691897713 680.1988407762353,384.10780873935283 680.0455754154642,382.8122748219792 681.7457276893977,381.02978672308376 681.6280863781027,380.0131818983246 678.9072237645894,380.18382308327574 677.4284605825578,379.8257272854233 676.1333284590207,380.74451429542637 677.1587178557969,382.8347833243754 676.6928605238529,383.55289006662304 675.3738615853466,382.6496446081481 674.2862559951575,384.9022833954835 673.8534440034983,382.8874657287344 673.3836085104128,384.12521218913713 672.6374299365641,383.1255187614583 672.040614137993,383.9493360350298 670.4542741460778,383.5468345963493 670.8039902233508,384.59247521536815 669.5803750429914,385.87841221882684 673.2866976611872,386.05283953471803 673.8727191527433,386.99527586918697 671.3973458100651,386.86307850529494 670.9980636498402,388.24587649900474 672.7633132946431,387.86293954392124 672.8696465984915,389.2685029806221 671.3492114327485,390.9011551025188 668.9760298879602,391.71200623682574 670.8713667667465,393.9718665426184 670.3864718023661,394.9302605960306 669.3479153913449,394.3665870573158 668.8607868095266,392.70827173607444 667.0820251298775,393.64452098292617 666.9753113821392,395.20194839255345 669.735071007831,394.9321214427539 667.4889927884798,396.7679101496141 668.2334532835517,397.5292138976419 668.9621489417115,396.8053125853206 670.2091190990594,397.3339369518001 669.4861026217858,398.1647113348102 667.7709198851097,397.9251005972542 669.8197639975742,399.1044922608188 667.3380838798096,399.6734700664599 666.6769935520072,401.08729732425434 668.082258206246,402.4166725480888 670.0611250959979,400.8833537123262 671.2694276722831,401.2733827792173 669.5484021510886,402.31423146653873 671.5570464956155,404.7099007435669 671.5346976599473,405.8757268463433 669.7068612739683,404.70914352094627 669.1350586862479,405.424735463186 670.0332160248773,406.70681757243517 669.3998601972798,408.04520495381695 669.9401591751674,409.90827453713376 669.2133459994528,410.68208123781545 669.1781971432329,409.0234568366808 667.1631972312152,408.29584664387505 668.5930196099415,410.28521167582846 667.3468731618838,411.7721038297167 666.9816185657538,409.4369698190203 666.2723197698208,410.73828533226697 664.7776216237844,411.90768921335314 664.3147137976838,410.1062243999201 663.1883427335007,410.08323843428866 662.754016370073,411.61766079906886 660.4867126200327,410.48955546945797 660.5367675307626,411.64323205720837 661.5862674833609,412.4060975966138 660.5128449602674,413.59397882703473 658.159026156756,411.016524395734 657.4659642268183,412.0354397528099 658.4933446152559,412.98116407688195 658.8094893316561,415.4020250671262 657.8120125852128,416.43728291048654 656.5972669709918,416.33544452051575 656.4580603965022,417.2930318999851 654.2378227294022,418.07812263645354 652.7553267216106,415.66884536206805 652.3374083001544,416.5247372838656 651.1118040979933,416.41527668698876 651.5901341583809,418.3319048634778 650.5560025520925,417.658727442682 650.6007677741701,419.12691145932223 649.0304882163907,418.2586386987548 648.5092455225314,416.93059202651136 646.9922604048862,416.8769757033187 647.6963513574652,418.0880554675746 647.017951113155,419.40390725696676 645.7019618280018,419.3811121492031 646.0714220274043,420.41974972954716 644.2962850324682,419.8586742931025 644.6137451682872,421.1150371478105 642.89104894102,421.9723629226736 641.4417301789005,421.20440884361454 641.7921634726368,423.1033548509507 639.1627816907327,422.4953074410898 639.2406969921028,423.8049993824636 638.0003986870092,424.4389855791687 638.0585104127042,425.77489412739413 640.4262237184669,426.6033315525885 638.5307510737389,426.77527333148487 639.2442943314533,428.3751925585953 637.9995255492702,430.1584638818986 636.3602534568805,430.2012457980747 635.1599107998396,429.36178557197803 634.2535616907323,430.35879392140004 634.0794055720265,432.7154457870642 631.829048894121,431.9212244447111 633.1450686023823,433.37516568336383 631.8249935708382,434.1120261941918 632.7455443295056,434.8257956526437 631.7598783287191,437.57981358572175 630.2913604937646,437.0593148351444 626.2867329633004,437.370527759874 623.4996927925512,435.9576678214351 623.604801216012,438.4491998325621 621.995004615429,438.0427932729596 620.6016595722929,441.71845243411946 622.0584161160729,442.21541400927447 621.3465874160673,444.1701704696958 619.7919195059712,443.8186591515624 621.2799479279806,445.14139273495647 620.2334558715967,446.1037929342207 620.1434875345112,448.0771068070444 619.309919612867,448.8802571154846 617.6712253885858,448.54067194336005 616.8305780792532,450.66785300161854 615.6823184548391,448.7733471576777 615.0024851726068,450.3375736869316 613.6790644656546,449.9822470975186 613.552816477992,450.8240965090985 611.7726643738522,451.0289890785946 609.3509671556895,450.6121600284132 607.7735333366148,452.3453026369332 606.4107108546802,450.99062637480256 606.6499582399388,452.62490293294536 605.5392538612193,451.8860136346874 605.0945276982502,453.32278777924444 602.8835507930484,453.3333450470657 602.1140218571791,454.38060770302695 600.3649268286663,454.15302818844 599.7073530092812,454.91353590562284 600.5900897756275,456.35931208081865 602.7229602994503,457.52776176275194 602.5224371558066,459.6480480094168 600.7275917704602,459.7782528903712 600.0327261335068,460.85517703452786 600.6840737334629,462.0974339606426 599.53480514267,465.2748256263235 598.2481026526515,464.6099659919408 597.7888840439716,466.41219025484645 596.4661770081144,466.51043070356144 595.4740468724337,465.6238090699616 596.6347050389566,464.58201080766105 594.4223825084858,464.80661083666143 594.013481346828,463.1298335626875 593.418977151106,464.3259774802854 592.0721212226559,464.3589993869856 593.0580446444242,462.1259629664379 590.1763504918107,463.08653540996227 589.6686619161109,464.33617871451935 587.4340755687897,466.04300218371026 587.3539334652019,467.20555384486715 586.076891355453,468.8902420922479 583.5747026207982,470.31199777943607 583.4195107350029,471.23840411384657 582.0757630030874,471.56035271050104 581.9509694092566,470.07631867039527 580.9176878051235,469.6296211405056 582.1302842820373,467.26104056967324 582.2855537226285,464.3815677773289 578.8214054190433,464.20194932230396 578.2468635107601,463.43531505047036 580.2748311917528,463.32881159160775 581.3765728355924,462.14981735105863 580.2065931840012,461.4865370416639 577.7532048299074,462.8135666444828 576.3294816875705,461.90607085826787 578.6288618255766,460.6610666165552 578.091444999729,459.57021430198085 574.9726121380396,462.60027295495 572.9145726542299,462.9561293959643 572.0265343166407,462.0142985595237 575.8046601469767,460.85550331476287 576.4258281773573,459.7582415204792 574.8649469641666,459.4942626150885 574.4449735838934,460.6152329147143 570.6157928754754,461.80891145088896 569.2118844488314,460.6516188595201 567.7027921200736,460.5916988328202 569.0458873847291,459.8238332617365 569.5782953558207,457.97010193244506 569.1014884017021,457.4717743418677 568.0342824645898,458.9377846723393 566.632053962881,458.24360786889224 566.1209170225869,459.00421231211965 564.5234921844249,458.1956313606587 565.5489592206941,457.61715040355523 563.3833084021738,457.034063048693 564.7072327565105,455.64697276050936 563.2557472246424,455.4600159034951 561.9142118113949,454.2666610094428 560.6947405677203,454.96994323018515 559.9082176982024,454.3704414463343 559.6841738845293,450.99019037464177 558.876642079965,449.9452649824265 557.1162216791187,449.67341268638734 555.9378104822935,447.90987159200245 554.889161761324,448.6543397996295 552.9722602029389,448.85248941682755 552.4578225707384,449.7699651250234 550.5112790538448,448.89426100136006 547.909090655487,449.5127606306847 545.2230079287486,451.49130258940164 543.2162755112292,450.67562934080894 541.781583885602,451.50358718052206 541.3149559697914,452.55903258275276 537.3309601640908,455.167784042434 536.4364166798307,455.17629638768557 534.9941223242184,453.8124783487878 533.1834421105252,453.58191253129394 531.7944026790102,452.0009223439053 528.9639259609357,452.9334070311431 527.3481843624868,452.8177435527648 525.4479468500597,454.30279438271555 524.0378462124813,454.5411032529129 522.7899511149262,457.1704227763713 521.3946905744972,457.05205436193694 519.3190909122479,458.1643026173126 518.8270173273593,457.53340515779234 517.8377305168589,459.158345368234 515.6648716968112,459.29856012898654 513.6107328919975,462.29484401031885 511.6159136932306,463.353006024089 510.5312145381127,461.0197895443319 508.58742774339146,460.6443519312885 505.4291487648725,461.58908981121886 502.6604866276161,460.1832584494051 500.87102209051915,460.4287197875135 497.16140467492716,457.03871058867577 497.5844091914788,456.8462865236769 497.54240214337267,454.2515148178581 498.0915515644163,452.87948067744975 497.3148118531239,452.45133683813907 496.7078256156726,450.6428947287296 495.086497202831,449.91348608826075 495.0602254750868,448.37706313543544 493.8470513227039,448.06741502121474 493.37102008878077,449.1964121748723 491.1973000580039,449.0528568156068 489.6092572044284,447.8835694555757 488.2256472715986,448.71336351811266 486.1307508780268,447.9711815513748 484.75650243019027,449.4945161593246 481.5619266840386,448.6267464629158 479.95532061496806,449.17651702817767 478.94338109846905,447.2126792355736 478.30642755043306,447.07527232424144 475.86106098842816,448.4134244539121 474.7360512026537,448.18976481313365 473.72061063480817,449.51487852889045 472.5478103182341,448.9130457764459 470.5918666638663,449.90698195821443 470.2709551146389,451.4831319001214 469.4830100988949,451.50900981427765 467.1401960693105,453.0486103555862 466.4537996077917,454.9466021855309 467.0304225327506,456.11205944800645 466.1444137702236,457.7707390706888 466.4140948639924,459.87575444610826 468.2456691358866,460.8551986569422 470.02551994637804,468.6601332624167 470.98850398333394,469.01549040303826 471.5603110589099,471.27384375683005 470.26030150461315,471.892849297388 470.80961423308145,473.1515081328438 469.0536152927232,472.48294610591313 467.571848145702,472.8030908202325 466.0240498574318,471.83569147438936 462.62754146122586,471.95691670911043 460.91032553555704,471.6913429804402 458.5146990986809,472.80310599699527 457.5704756504063,472.39680890507736 455.83988284269657,470.33632776750636 455.875941855026,469.69774145120044 452.78128315284795,469.72192783841314 451.5270488180733,469.1959391485012 452.3263681988712,465.952819169806 449.87318064989677,464.70049503816705 446.9414143134435,461.3350983938331 444.79900668869084,460.69789621566474 444.5451944238569,459.41879005508144 443.00215205222406,458.01213402505783 440.1115634787246,459.3405935608631 437.436988649828,457.5426247962633 435.96207177318746,458.5052073994011 434.50475278535697,457.37572912004964 434.0809749014631,456.29405686373576 431.6309479943944,456.32979106099936 430.2543817740774,457.38703168545993 429.4681838374686,456.94824431864345 427.96832913066675,458.0847899338301 428.03807872928553,459.0076855928292 426.08063298839767,459.25413046420186 425.60258242890717,457.6123293913901 424.4242116073174,457.1069010925248 423.6928105360341,457.74053264174773 421.0701096459603,456.64943322154204 419.77082292112755,457.2896776821528 417.9263307963509,454.63784580470315 420.50041992241296,453.5323808535456 421.35446921860967,453.8361043862081 421.76991322438795,452.4227418644682 421.2509916403624,450.031085120257 420.29259180077116,449.48378151214064 420.5785453032751,446.9686122803585 420.242984327715,444.94200585297034 419.4700732638469,444.040063428877 419.3144626591837,441.5272611212348 417.80879268188716,441.21711246267313 416.62309626087506,439.2173681250911 415.16556409830815,438.5336800512698 414.26825644248333,435.0856439433736 415.20312048449676,433.52846803652847 414.57300529177,431.21797181444975 413.53646668816407,430.27783042069876 415.20663857037124,428.724100998067 415.22052895745577,427.5184430522553 417.408774215052,426.05036092097265 419.45084547553563,426.91602157265766 421.2053429706477,424.87121799709263 422.12363499410975,424.71775601412367 422.30756492317835,423.3158100372504 424.0630500555196,422.58322605755706 426.76985654652333,419.459450873127 426.7597255645154,418.45302309298194 428.536587474117,417.488179052562 427.94784055821526,415.69759492280673 429.43685106250257,413.87898313279175 426.3911618448804,409.04820570978524 431.83311407692975,403.60194008353466 424.86912640197147,399.67028155804485 415.3973686637689,400.2581382149439 414.8022221167181,400.8431505636384 391.40971501091656,394.9301081070967 391.2819253856325,394.3584593893244 389.2792570069877,394.1084386229867 375.58908902371184,392.9507775930039 375.1407213976198,387.9187692954095 351.96089485773916,389.2975906784329 340.4386811154859,390.11900583428286 336.6947527995406,394.87143575595945 328.7375477312373,398.04137685671446 322.076020953686,400.271199387006 316.6162896287431,402.4143864327507 316.68438685467913,423.1285431562145 316.75081755482586,423.80222872977885 321.6840451167326,423.76353267906774 322.1325885722203,424.5471845832141 323.79628075690255,424.6760678401599 324.3892225150674,430.2728791089296 307.430934100551,431.2320334874059 307.56080625686775,432.2255654279497 303.8107989862136,432.507872538286 303.8926838773586,424.4701093908542 297.0114409042908,424.63948051993276 296.97145466215414,430.0602701234495 294.5194303850579,432.6048812620375 289.0365540336511,439.8188453499583 287.463097536552,440.18741141625105 287.79337787883054,431.56144698195357 277.50869647872474,431.75162172077665 261.957839013535,431.77605332901175" /><circle cx="136.50282838032518" cy="531.8994342007159" fill="rgb(100%,100%,100%)" r="16" stroke="grey" stroke-width="8" /></svg>