<?xml version="1.0" encoding="utf-8" ?>
<svg baseProfile="full" height="1024" version="1.1" width="1024" xmlns="http://www.w3.org/2000/svg" xmlns:ev="http://www.w3.org/2001/xml-events" xmlns:xlink="http://www.w3.org/1999/xlink"><defs /><polygon fill="black" points="431.911136568712,315.28246913527335 364.1698413507349,287.27223169676245 356.05775697599944,286.99508412279897 346.23587183745605,289.74852611361473 345.2917062260966,276.26396601332704 347.7729813293889,197.71323531967585 349.38972273018965,171.45110526651354 352.3027151274466,154.1937526028687 355.9745767166634,113.6318649359838 354.18614331906366,79.85204896393532 351.7927195464173,71.41493599285911 346.15847177523744,59.69587919949038 341.6348420943147,55.434506404728495 332.2293461099887,51.823279262475694 315.9204542457867,50.75975542627816 308.91120190409106,47.736467035521514 282.8611127399652,31.626578580735668 271.22199260702257,21.105458393128288 258.6841358543931,5.399130568151236 245.81047245329617,0.0 247.06068966071206,7.082659897855933 247.62991149320592,47.96643208480009 252.32872607283124,77.36165626096658 252.73668729763418,86.71481511483012 252.0294669265209,108.44854769976678 249.772837002512,113.07750526090172 242.47580925531003,120.8901015741377 219.6338998241481,133.60979058498162 212.11320444329672,140.8175569969536 202.89840395365476,143.12797166032567 188.29326790591705,143.58448561135083 122.42274169088526,139.09461526623681 119.03290178262844,141.32831125602547 110.34298116927695,154.51969062752846 77.10273067317861,192.71939943700193 36.54132032291412,232.64651053565365 0.0,233.04608929694655 0.7548387499722002,236.8208927223169 5.861677710614127,245.8228119933991 24.86005543638726,260.38679411171233 47.15599224413976,282.51004160288664 50.06320149529509,287.42699804055064 51.33719740926813,295.2158583709222 55.16758023086046,302.766730230357 54.127381775305096,312.5556233339498 56.569970572520766,319.22653748170353 62.52685284946678,328.7833550720537 64.24994685556656,335.4856347430808 78.33675101553459,323.560385606684 85.58197789954221,321.3814862163441 132.9314215703793,328.5132304476648 169.20511316718807,340.00462017218706 197.61275752811548,450.3248068399015 207.8159917343945,494.8760176457449 213.83971250462594,527.7618839040971 222.1418288664219,577.4657294985791 232.67233596870886,642.5362713246882 238.19310759190435,673.9586240831151 239.96485641800973,690.7849576653791 233.83240270079565,746.8097466199589 233.70397977331618,780.2678943552328 237.8860753918223,894.6753555709952 240.29376592998946,911.2164620144883 256.6678439999095,974.4046494725876 277.44948845254993,1024.0 288.73364264839887,1021.2821233749347 302.0865459232602,1016.1752007383651 311.43690156913493,1011.9193014155146 322.988300799581,1009.2358640647526 329.50615440158197,1007.1851985036209 341.39682368489156,1004.8491296153085 347.82514309960027,1003.0353008140986 373.6518382176999,997.7987969101085 388.6292934499752,993.3308914206079 397.8190013296588,993.88434808673 412.2376992134902,994.330990927047 429.276019377071,999.0310473424422 442.34991335085044,998.0476468270119 456.76004961074153,999.5730492344654 469.4268707312531,993.3961722755188 491.45065390136136,992.9885289320601 506.6872289210294,990.4768106132407 534.8580800740712,989.8082685151278 557.2149420624781,986.1951812427874 584.1641365469784,989.0582455399517 609.039669773603,986.049194988124 640.576963703774,980.8667424523485 656.5381835923015,961.2493708865046 672.2817025850173,945.3636940410252 681.750083432429,927.7002103601046 678.9103779211923,920.7430180719059 679.0077133055294,917.0327120853216 686.8029691142362,904.5974495780017 688.1671306723616,896.1170393352727 692.0956784471782,887.0045271754184 693.2977391641599,867.3812425443637 694.5991714100627,863.0814841938446 692.2488728737616,837.7493253769285 690.8645348583867,830.0611041958514 687.4715571522152,821.9359512610956 682.7803253469882,816.7172807972635 642.508033345391,787.0617602549171 617.1262372369564,764.5121567419058 615.8999465667351,759.0385307584258 617.0033574103288,732.7061086048415 616.0418236446511,693.8893278306465 626.4143246755217,635.0428990946459 621.2091349986438,632.5013195541056 593.8044741381684,628.1950949232025 585.8670090796986,623.4035333411998 580.4781804425613,619.452024607911 573.1062741275241,616.5542331844774 555.004641111864,606.2036570441998 549.7576132358182,602.7401739731545 540.0542635873626,599.9990681430204 531.2169097147563,594.8101443334141 515.2030348717766,587.210240535044 494.2293879787542,578.9279221169325 490.48933474709514,576.2238015291116 512.3679473022524,565.3002113393795 524.9338952104222,558.2215156782767 534.8960006712447,550.1856432567862 544.8733209493929,536.713974586351 561.3286682926188,511.90917268055057 569.1057159590637,495.33464293632176 576.0870768745185,475.08439966292235 578.2931761146136,465.90314574570425 583.4776903721465,446.6838398590651 584.3831859507243,438.6822035301849 585.4178524757248,422.51540003503146 587.6205902443841,393.35838961720424 589.4424895410993,366.9353194949539 590.7398701926327,360.83045508711723 592.9364100063541,352.68930695490303 593.1910644093199,337.73260089956113 589.4023976805065,319.4493307620967 587.1621602495404,313.91426539407087 583.8675737639765,300.4105640045973 581.0258588480185,292.41317326509704 553.507110908783,302.98199044279795 531.2571745279399,314.4623265941591 523.848622949033,321.1602936948357 513.3401387208049,335.44528021344684 507.2138319097053,337.5103072058348 490.01177040260274,335.9541707943779 471.5591610822791,328.1983446467815 431.911136568712,315.28246913527335" /><circle cx="324.52036530575475" cy="458.90132133959594" fill="rgb(100%,100%,100%)" r="16" stroke="grey" stroke-width="8" /></svg>