<?xml version="1.0" encoding="utf-8" ?>
<svg baseProfile="full" height="1024" version="1.1" width="1024" xmlns="http://www.w3.org/2000/svg" xmlns:ev="http://www.w3.org/2001/xml-events" xmlns:xlink="http://www.w3.org/1999/xlink"><defs /><polygon fill="black" points="893.1882809048183,871.4672403990124 894.0572539574273,869.7962737080843 941.0673714782968,836.3446963970698 971.0918719044894,823.6040020625151 985.1739642291719,801.814558119531 994.217744148752,790.5226827149496 1019.4695959544806,790.239210540885 1021.8545612200775,780.7594059529412 1024.0,762.559323994129 1023.4056923032185,703.1330936984135 1021.808691709779,675.9848330033509 1018.4977031407379,666.7705516238842 1011.7005517339152,660.6384294352006 1003.1607478348429,657.5894719438999 979.4311376315363,664.6657799519505 973.451451732437,665.6275326841063 966.2417344539964,665.8307801573611 961.4891516085885,666.3579604437998 957.1287906015766,667.789218824841 952.4667286429572,672.0744951050992 947.7016703148593,675.6211985524919 946.3906614559892,676.2839800377499 943.7153095156515,675.3511798695693 940.6157397538651,673.1899881286282 935.4102116436793,667.28631127515 929.4612635401373,659.4302329231966 924.870646711887,654.7627630337852 922.4684551491508,651.9795134314862 922.6277818496596,649.9688176208613 924.1652953487136,646.1308301656479 939.8141620764665,622.3382074164305 943.7136482955322,616.546411975622 955.8840896170449,599.6573442766886 961.6610891849823,591.952039761909 965.6212148451766,585.7311826096764 965.9740531366324,583.2491232398113 968.7323745281944,580.9615431618813 978.8231335098824,565.5170899297821 980.659947666084,562.5577260920297 982.2777599147339,558.6486829389264 983.0088578315338,555.3931107333497 984.5673673077549,552.8629700312707 983.8978221606311,550.7442785641529 984.7506638285058,548.0748756917101 984.5070617751144,544.9175396423602 985.3663056898221,539.9529785582042 987.3796256278453,534.4752423989287 1002.756593294802,508.97623575029195 1003.645138951282,508.19579691324526 1005.4793797644941,504.4890584522107 1011.2072910659064,494.9781724805777 1012.1228700322669,492.5566323580868 1012.30134006665,489.87192598043896 1005.3269834967675,488.90838495963226 999.3870704292686,483.9156986441478 996.1811517414606,478.91609392662815 995.4068642899791,468.50244057571274 996.5020281859089,456.03146804230886 995.508130801582,447.27627203630976 992.682014549916,442.89034695777445 986.3939646809886,441.6088157025587 981.9916783463024,441.0218112642961 976.9425484802123,443.5857844853639 973.6548081910883,443.20741610953553 968.8570582715565,439.23198539861755 967.2574320282309,438.4096512066732 964.9637878262092,438.15287113039255 963.08409558178,438.9552618562953 959.9579906643958,437.6994456617186 957.9985694322178,435.28482842703085 956.9393337295584,432.98933615263593 949.2184682978362,432.04297050760783 942.9554799757383,432.04043466675864 942.1043240598137,431.24443220236964 940.4976991287563,427.2865608090627 938.7554702534825,426.1062885460628 937.0055973845929,425.7944574166742 936.4146044954553,427.25070457493746 936.4554323643293,431.4771850015221 935.8323171702178,432.5669555707509 932.8990706289422,433.5265822108913 932.711309687913,432.4160837889241 933.6791957153175,430.56425519314456 932.0394014898977,429.99556000327794 929.7210329972546,431.54588632098296 928.092103497906,430.45269765313975 927.7039287356938,426.8501206069215 926.4602219083218,424.7748450192711 923.0377681691565,422.08407298838034 921.039414951385,421.44843033884706 918.7433912445514,420.01547977064035 916.9632434462022,420.13215944339754 915.3947444806897,423.52755392038495 913.9251523479867,424.8475022887528 912.1916037545546,423.1679667100329 911.6783188370309,418.34757247599896 909.1985588567946,416.46662050193197 907.9099397133842,416.9092516249166 905.7854399828689,419.12155387152484 903.3619472822655,419.91622070200873 902.874891754966,421.6795049791882 905.4331921855462,422.03494843764474 906.5633349610158,423.96958709365555 905.5244910882589,426.46997278078686 903.9319156138373,427.6914417131266 900.8371241796121,426.2515798196063 897.1225240671138,426.38068248250903 895.2487452815728,425.4738992044838 894.3027112914687,424.09992492393997 894.0100202206419,421.0581987441872 894.3951857899457,418.866567121334 897.7684400949814,412.09244090356486 900.5586500472393,410.6739167033453 900.7198473542531,409.54291697086705 899.5411630149715,408.4937079663672 896.6729360333379,407.1322655977043 895.8082497413185,404.3737030672998 894.6485408905559,403.1749934944591 893.153776867191,402.8087613848012 889.6849380800516,402.95698318105565 887.1857940394289,402.0232470423597 886.3707188400756,403.4206336838878 886.0681408204784,406.0152863073651 886.5614982305532,407.2577070644706 884.5810916529542,409.3934099441897 878.7517741070226,411.7794584214112 872.0225565555947,414.1700083337121 864.3212093445501,416.5510352338305 855.2131623193233,416.92984990798726 854.9845671578963,419.38333853573516 854.0329647942643,419.97448445675957 853.1898423489844,423.1566188781366 854.7640945516547,427.247601993089 851.5897656883615,426.83364325164416 848.8196318558287,428.9085648854692 848.9765849163467,430.45057737041947 849.9816395704377,431.35090937277 849.1946733686776,432.5028172584057 847.0547005475009,431.9881242127594 845.1531073723289,432.8235407381107 845.0862178460517,435.59532220268244 843.4956780946383,438.0626725431355 839.7616185138666,439.4541689285871 839.2903885670474,438.37515731518516 841.5766318835373,436.0672312897199 841.9861566573081,435.0570426766888 839.8200377704009,432.16824816916903 841.260294463458,430.38636386673437 841.7574382809738,428.6400969193405 843.217875638152,427.3656887482288 843.7175460485712,425.69272212514016 843.3441235319342,422.90486030892816 841.3013743225326,420.3231770665552 840.1653560966207,420.10539970391704 837.4257075065901,421.76848357018173 835.6621006266035,420.46350493081013 835.8821648115673,417.2121070265203 834.2555074097991,417.07417177709027 833.3222656972368,415.9198823599431 831.2416970339501,414.9143411183251 830.0767900013235,415.9682080913153 829.9646259442997,421.65834449182205 830.2220125285862,422.9295017112016 828.6585441891754,423.152321502287 826.7701110857907,420.67456524189714 825.4497466878248,420.94767117028107 825.3007354641326,423.6575677420175 824.0363490056724,425.6053981913377 825.6905652198548,428.93511858955037 823.13451191203,431.1024192570477 823.405490409145,433.24198985060616 822.4392458456176,436.42706419622357 820.8353101380519,438.2627124475193 820.5026217164442,440.5584579949539 824.5428756084207,444.6987014174779 824.7098193465313,446.51420752341966 824.2043273219616,450.35540458152724 825.6418079863369,452.1939589582005 823.8452611138778,455.32698454296013 823.9617362242343,457.1764172631189 825.2850835724413,459.74263370652517 823.4509411360746,463.4029853602073 821.1320426391266,466.5002882272102 821.9038537108645,468.79684236928847 821.406114212028,470.33159884206367 819.1486201951897,472.83383961329616 819.2248035448652,476.3694532016732 818.0799478182339,476.71269097794146 814.9439569837393,475.16474472422635 815.8610096546901,472.5944630452157 814.408569259794,467.80096466329115 812.7870726966783,465.33109272886986 811.7974389567867,466.33380790174965 808.4289100280533,471.99586041393786 805.4324126945393,473.07821987231387 803.61936579629,472.5033848323696 802.2180979395652,467.9465751108909 799.5621659933353,465.58274865832277 797.7406935236571,465.66484937413264 796.8693703308965,464.14096096716924 799.5177767335243,463.5752855937186 800.0507052247372,462.83845077935536 802.967523693633,463.0335605026895 806.669302201838,460.77422188818673 807.3010263207763,458.7655673414552 809.5191882662042,457.15730373650325 808.6552923005503,455.7744195437609 806.101428865004,458.0486877868957 804.3993949421003,456.22740850383826 806.4114030704523,453.7003490085482 806.7360389203033,452.21667758099227 809.656359400002,449.0225687640345 810.1950246533672,446.12872174579803 811.2466006868262,444.8185663426094 807.6516174622835,443.3615755055482 808.8454715731872,440.86977303719306 807.7759175398782,438.8105490743479 809.567581700701,438.3083119591918 808.7493839076271,432.80311413990546 804.8786724229353,431.7948871416628 803.4957019648415,432.08490874396824 800.9724375456792,433.8600111571867 799.7826299848008,433.1628224494088 797.7376791889045,433.2791475303866 797.3963514187154,432.07859451814244 798.4888269676532,430.7627797226461 800.5161948637506,430.23200031819636 800.7680011047936,428.3734562815763 797.1159352004757,422.9520839015347 798.9874101522954,422.74019792669696 800.1350513462619,424.12262282052404 802.051305823176,424.7508735216574 802.7256706541423,423.76848037289625 809.2682284152396,425.52766597694523 808.8638969094977,422.7398120172237 808.9359507862438,417.23585179848993 807.312073922858,413.21235287695924 805.5170234497185,411.6929381444582 804.0178523567245,408.7660184045561 805.0788447247079,406.0376149851888 804.0213070463536,403.87402682884897 803.0483445337879,403.28925600656214 797.6954874190296,403.29856373253864 795.9614018907199,400.78648268239067 792.8723162053989,402.1423665322824 792.5511834834084,405.6843177967432 793.1159401478313,406.7350582561764 793.449927541576,410.70446525766783 792.9405631595483,411.1000790026921 790.8461515175587,407.50022041473176 788.3376438608417,406.5317208905898 789.3249717851921,404.2518212416826 788.153341870954,401.40320310332623 785.6366364944546,401.2410936944487 785.0479297071429,398.797500745078 783.6662011257418,398.3007516000985 779.2002794089192,402.12873458720605 778.9002818208344,405.47044224910564 777.7119901170737,405.5767326571496 776.5376355924279,406.84184469685215 776.9534857712647,411.0028682284779 775.9268588750646,414.33730891433964 776.5638922103748,416.93873715742 775.0925301276616,417.5812024686977 772.2513881342414,420.6817544721731 769.8238257622985,419.21951818676354 769.5643110391135,416.4511072214502 771.0326861122339,413.96748913103653 770.729826254448,409.6991295366416 769.1216643009773,403.1010874001493 770.0473097269056,399.77811387162967 770.1380446993742,397.87474528386576 767.9885265591724,398.62259630772184 763.6920252347066,398.7169063024083 757.5655169200204,394.7143549448934 755.2483416014535,397.47836952559464 752.2170472931917,397.42952691967554 749.7213939824406,396.83846161539543 749.0206791326664,394.85737399563135 747.3839162308882,394.28187791140454 746.1574392164729,396.1334074573921 747.1440667838627,397.88567735540585 745.4362757229015,399.64207547214954 744.0296699348863,403.2984038951193 744.5223614899724,404.5523683321098 744.3629751041645,407.31298451439 742.581954515959,406.8420027844467 741.8373749938787,407.64953253552073 741.6154360794459,410.4299782030145 743.626081627681,413.1703820410743 742.973372819343,414.2822898756808 739.7161226339589,412.8943421756652 737.0898325029367,415.11729632355537 735.2761727515766,420.2206274309736 734.5965045448959,424.2733769746567 731.4744086111224,424.85601289373363 731.5420889341904,421.80512646899797 730.1787653452222,420.7469708568205 730.1545832755423,417.3888847280553 730.7919700666259,412.3634517076149 732.1770541038222,408.6367399601226 731.2317389019249,405.4914796328638 732.824019264765,403.622563384575 733.5041690180052,399.9138022735088 735.6711575625579,397.9030357882999 736.6107044336255,395.5613772826974 738.9196318819235,393.59266460643477 739.4039271805649,389.29770580716036 736.200924727496,388.5750548809841 734.1101864992196,386.7990092189174 733.3185298173476,385.03794196313936 730.5854678377839,383.2092471216038 728.3129809163851,383.75676221649564 726.8494459486016,383.11885315169866 725.8735747263369,380.35989776748517 724.0508247969898,379.16139709169204 722.9697253839133,375.1309485110342 725.4966120521054,374.22502225539176 725.8729116047666,373.28555244842494 724.9996591277162,369.93151001891545 723.4521814673132,369.4064871696675 722.8821216752024,371.099063458803 720.9110592435729,373.77486914146505 718.7098387450667,373.6483173788025 717.4411410846966,372.94804663864824 717.0068978984013,370.371559890563 715.9923814936523,369.0929053429625 717.5226303028212,365.97226835341735 716.4262960958775,364.6598965215313 713.28523504699,364.9603882022621 708.1782957133508,363.06711481715456 705.6408583458535,363.2623522112673 702.666437903361,365.80969875701874 701.9836219869078,367.8153572560954 699.2337681996738,369.28245545716624 695.4255499951305,369.00843682823563 693.8830550538423,370.36953618262885 691.3191652112054,374.27242567876476 690.7805265116709,376.24402778230046 688.9224573123039,379.1478265129184 688.9876249658874,382.9795574880871 689.5117238219556,384.5662954773708 687.8046610717286,385.2677905778316 687.1274964879354,384.35794944495746 686.0005685583311,376.11213079801513 681.0635800907072,371.7002159371568 674.9755467833922,364.2586028477099 669.3693201623191,357.13204414955567 666.4863933314406,350.1768515812561 661.4144882228038,342.90848306841326 651.6717415427264,333.3137196805376 647.70124851648,331.55891065510286 646.6243984302948,330.02629447924323 644.8944623243783,329.441804600208 641.6932848827139,329.4454477414032 636.915321741544,330.30796789968144 633.2099554002733,328.93610745650415 631.1438533154069,328.8171283111992 627.6328117391458,326.9459089010421 624.091422406327,325.88953634320353 621.7588551006107,323.93521258157057 615.2499232760814,323.0763872668582 611.943339291501,321.0468487483346 605.9662413237395,317.99360782614576 602.252067269219,317.10346657915613 597.8398931746857,313.1123951879092 597.0415288987563,313.19211210151013 594.3308030019781,315.3488707108554 592.9990792029839,313.46664578290506 593.9306025612018,311.7852866881452 596.5355191691436,309.67092707292636 596.0335037288635,307.7963788757704 593.5946822346889,304.98474779738615 590.5878301210131,304.1642589679467 586.3819783411685,301.81944143725127 584.701898545594,300.1743392728911 583.1338395191067,297.39846738376707 581.0278378778086,298.06579462906586 578.1815651862694,296.5006454237457 578.0485155668699,295.6154111057001 580.1534738384718,293.7977142425492 580.3571399778141,292.9742100142787 578.7795514170463,290.198319642589 579.9015508850181,286.38522457649754 579.7272448892151,285.0799077801954 577.098983380439,285.1442773226212 576.1145495954639,284.1018959411141 576.1112857857669,280.3969494889442 577.6226870698706,276.42562134758487 576.3730005086536,274.50094167120096 571.2480699742769,273.62005803512113 569.9382896527981,274.4529654290187 568.6299058485188,274.11291259775646 566.4802339458159,271.29231898430896 557.7149042218834,261.49582782291884 552.8213935819616,254.88496858755445 548.0924006687982,249.274846602322 546.3108225996543,246.20003467818924 542.0840294697894,243.0058144497508 539.1570679619774,241.739174758437 531.7011828536849,241.44570385519899 525.6847653190007,236.6227535424291 522.266069778298,233.2443797006572 519.6671856269105,229.7159779202235 517.6998072118787,224.89011785283628 512.2688909417128,206.00791765378722 511.1096342868749,201.33092558749422 509.93838071851116,192.7938913908232 509.56715506864396,187.30152631928183 508.40763657224414,181.99292515657055 508.07906707359695,179.31449961304088 508.3619484962001,174.2333852147509 511.56575327881103,162.43693547567034 515.7293746926251,152.38797668347468 516.7003448578802,148.67391028147438 521.343459292221,137.50515073380882 524.2071559004218,125.40140846664042 524.324416309156,117.64455392195669 523.8230247713522,115.38638005540474 522.6877700964794,113.9322271592614 519.4353179103585,112.34132419080777 517.0130090280894,112.34292357561606 511.29917878301956,113.45753748713173 504.58202443499226,112.62991868478446 500.7195168839538,111.3718670353287 494.593036575274,105.32452014910427 485.2145225206055,97.19790070908823 476.6266885556466,92.97290489022589 461.16144118600397,92.6305496352154 458.2775562535082,91.69287048065542 453.43962554090854,83.64205908630413 446.7829380980519,75.1266238745111 440.2915137083656,70.62046407236255 431.21505341408437,66.10371755324536 424.72133552049314,60.31141754157943 418.5581280604209,58.38739218423768 410.772319800062,62.30307532917732 406.21573838114404,67.48663498379801 401.66817595307214,70.73584793808891 396.47681703762544,75.27931293304175 365.3859542228564,83.52236256804235 352.05775241235557,94.0458159674647 338.3730739884506,96.72720274632832 342.0425111375719,88.1894772437829 343.38108540777273,73.5866646882971 338.6385235490987,60.024160344812685 319.49858695964684,44.98578873061638 311.977302502434,38.85501841168161 299.23404359226885,43.85221065673181 293.01109136916284,35.15807916601284 278.3466180784384,36.722352796874816 277.7544295032437,32.196687598145786 256.5675040463988,41.057945424708464 250.04881342770625,37.054546295096316 249.75552347730897,31.147307866753863 243.53983628085697,15.143492300200364 218.94934236096137,4.009097079140702 203.55180338299257,0.0 184.73141376679388,15.987565495508875 177.46920040811915,27.633668509363247 172.27678159073162,29.189491524430764 164.59987905649922,34.758639706070994 163.5127013987932,40.019311121619126 175.87424279923707,60.25858618639893 176.48248101825968,81.69097549354046 196.26647391184972,107.77623575294672 180.9387578955878,117.05756844709424 171.14171651307177,123.41502197788918 165.9342095583069,126.5835266308809 156.7805130883565,132.94934246069147 137.27154110485404,137.89125558327783 117.1182937174641,142.18262564242843 98.9586302929785,144.54854171418174 84.69322087951836,148.23954305324514 56.18856381747708,150.4677857579544 39.93709763806325,156.0629909840353 23.025548016728013,164.2391323208551 15.161700470473816,173.17023979192106 11.163279529152573,181.514000762837 8.485116544977773,189.22500317421907 0.0,196.21212319140864 1.698312928372666,218.9009847559289 2.5208339653021334,222.29124547446645 4.891256769090565,224.1440323413376 9.937685572853125,229.58963445740312 11.484566614671191,234.4188000792052 12.29711600630502,238.22349561206624 15.796840195895879,244.58617912835905 20.13009644565591,247.87648911451288 25.4944293338088,251.57966166535368 29.201143365870372,256.2111765126831 30.333943419609376,259.9090548470426 34.565103696992686,262.482816853753 38.383479916323076,266.4911985940075 38.89127386905279,270.1882965095033 44.76803159292219,274.30333080211494 51.26125392614293,284.16809250671565 53.216045965751924,292.8969558851344 55.68330735474155,301.53050619430064 65.89602952008991,306.5718645026716 78.88972108789046,315.83098206684497 88.69804952406653,317.3831888820961 88.17240047381523,321.18347735977795 88.47155354730549,339.6746422622573 97.95551683437918,349.43963055137795 108.47478105752182,358.89505927080177 108.05487071632136,370.9201988221899 119.91954386867344,378.22221772801373 129.00183996209913,382.3409001220739 138.28578361198015,390.3617225654469 154.90684622021544,402.90748373545597 164.19418345235928,394.49206659075395 170.18078932527098,392.64654071460075 183.87056258188707,397.9675203128345 178.72013148984792,401.36466573755325 174.552931370935,405.67308202806987 171.50919865010914,409.86094555581565 170.47428662859787,414.0247600844412 170.30313242180185,425.20989018439127 173.36666048520866,434.99585328494817 175.14885367984573,447.05350857839994 174.27588559232325,453.62816634248077 172.68255063528943,461.4655058434925 169.59946658076444,465.9070703858172 166.29028167805512,470.05238736689597 163.17551816565387,474.75889165125454 161.32006772160466,478.28203730571295 160.8250148624876,484.0956255257014 161.79356901752237,489.29558586759316 163.7569448230654,493.2781885919897 172.663974883672,507.43846200220827 175.955914246454,511.84196336118345 177.63201921106426,517.7528454216956 177.97684501249452,524.2070334954747 176.21062584098286,530.9248894131746 171.3150523285063,534.2797425762551 144.4925026597195,542.5583314071723 125.93696948208253,544.8666418440278 105.23008606899276,548.7759856087825 97.75584232828277,548.9381523972716 92.92136516021328,549.9570051226774 90.77022352278188,551.5705141646059 89.80432800492476,554.665438151321 89.86323817938033,558.4098635962669 95.95761552794735,566.6347720799091 102.20179215257282,569.5363611977596 109.1783094740682,577.330385913215 114.52836518191815,595.3521011263284 117.00382157822928,597.5225165191171 132.84960883328256,607.3254024651762 140.92346471193795,615.2435121685927 147.16936370755928,630.6994338612341 155.97089285124733,656.0874731605072 160.8235026062752,659.074029646995 167.4738148615615,656.9188990316429 173.7059776781205,649.6515046542116 178.0222335345008,644.2831014210626 181.4651870461582,641.2148193567472 186.10630118386882,639.6303059529125 192.75339357837072,641.7574083953523 200.77923545870223,645.9208186672626 212.61725600999713,654.8058620278517 218.44383518003158,656.8275654042236 231.91349031262598,659.7548486128188 239.67562354329507,663.8746518207242 243.01496285303116,665.8750427583203 244.1307410586014,670.0173746513426 243.8287810618659,678.5294213091729 242.73940086154568,686.6887114234767 243.5468968138782,691.0593002943208 253.22271546622807,707.9659933949191 254.98384960509867,713.5210801216643 253.37428927845866,715.2037687851703 243.46611061890778,718.8597995478311 238.16518541276423,723.3096882645503 234.97954197025854,726.4126462412205 232.91785395163743,731.5122769913481 232.6269516113746,735.761170530227 236.5396494764265,739.6932554160758 245.07731467760212,738.0303638999982 251.95352741281584,734.282973267332 257.41482320598436,732.7849027402943 263.32863542803796,732.1468167523872 271.32090744256107,732.5439670755454 291.8024315512964,734.9371839767119 297.9811744032236,734.3152887547672 304.3745254187302,732.1199896098743 309.37548266394197,730.0258430359155 316.92729087488874,727.4272076474542 326.64194798664374,725.3473202192151 336.3443236573918,725.4014507126325 343.1778909880365,726.1995541183263 350.2475612979834,727.2878869512086 359.5309409657043,728.3590121481392 365.93567406716346,726.1565713623761 383.0325171520121,705.9528635409345 388.39973092900357,696.8252556987164 391.41242230381636,695.0343580708607 399.03257470320113,694.0404705672779 406.4098382081513,694.8903879958075 416.08227364373204,695.2122475478961 424.2664923469419,696.1657695330332 433.2209784010469,695.5934179779774 440.26062839226677,694.8099871558261 451.7434322846195,693.0603432265302 451.73880803943814,681.5369289042917 460.43623391845523,683.7015128123728 461.07165178180173,682.8159035091527 462.80380313801135,684.0613732388392 464.0632701185745,683.832429658727 465.1583508137359,682.2417213749816 467.0248086772603,682.23241149302 469.8818773052309,683.8889664166448 473.38555600542907,682.9060977701777 475.917262696328,683.9931990441173 478.00761636179715,683.7976113255612 479.9020527316721,681.9555008710227 481.21207846966,681.7433662272739 482.6268271103245,683.7783365314365 484.47136662179656,683.2867740350546 485.8033880748096,683.6723453455136 487.4548487998083,686.9082833851276 487.0563332782088,689.288180480296 491.1950055732846,691.1637358249446 493.0298387695391,690.4775711613544 493.68584375210656,692.1097112637392 491.3290338521971,693.9972886556822 490.9105154884924,694.9984522401248 491.48478485290474,696.9097757642384 493.7801244626146,697.0240972369074 493.72127241811205,699.4461051360322 494.33636409871355,701.0867243978669 496.3866132151243,702.1457029827702 498.12924236496644,704.3382936378154 502.6559634600914,702.091292990311 504.30621754654493,702.7839089123762 506.49737676699374,701.7985658245775 508.5472155582505,702.104635604775 510.24703969262384,701.1562181316596 513.0651942050448,701.4617716462664 520.0103460020174,699.9375418268834 521.7109475361093,700.2352809563447 522.2030418843054,701.3684021580884 522.019271727929,703.8863640412245 526.0769004302051,702.7783613683657 526.8250641471026,704.98835804699 530.0246101094721,706.4071802537876 532.0234315634597,709.408570689171 534.6876642236078,709.871894202679 535.7912807140676,707.2010070339571 536.7347848352749,706.2980752171542 542.0508424608083,706.7847622690713 544.5717340397811,705.6240438721821 547.2665841040375,705.201884455829 548.310976789428,704.0084219901877 549.690709584256,700.4350128818551 554.7984705503176,696.5428726785616 556.8983129188504,696.1126271920098 558.8891706054628,697.9183406992263 560.3529557293278,697.2150876778426 561.0571879213231,695.441027596862 563.2699686366763,694.7202268357087 564.2000710523895,692.3482305045798 565.6137853920197,692.3047596375914 566.1656879620851,689.8738616273857 568.0302043756354,690.3544323892204 567.9971604759942,688.3018411835177 569.1458379870631,688.1514327960394 571.4018484252911,690.1936674107541 584.7348116791965,684.8727084056314 594.856299704934,683.9497839337578 599.9184523121032,686.217482104747 603.0378342621381,691.6815220032436 602.6572055351536,698.9760236851066 602.6634403866424,705.3566161959761 606.9503706344244,709.9059336593192 615.1279456922541,712.6354459265826 622.1322420170244,708.0746341035376 623.2864543303158,694.8639110872855 622.5023182896712,679.8253431107194 629.4783275617209,661.1553874473998 642.3084701187254,647.9344893640343 647.0877714212991,643.1837597223604 646.9911371734937,621.9245107074312 669.0219864217697,621.5740529299363 685.0208960333218,606.026603177904 698.9964516226454,596.4724348872373 707.1486572025926,589.6380107183534 715.6949433817481,585.9945080854786 719.981874246322,590.5222684230878 721.2797192342581,595.7055722706684 724.8454481348768,595.8047655238558 728.8741793738769,599.7124507656479 727.1305853157196,604.336238861217 728.3338857338206,607.283737800344 727.0479326766197,610.4153126100277 729.1945085391321,614.6161339740619 721.8037063975152,618.6164968401372 722.965045107473,620.8450932067502 715.8951901460971,625.5384336729629 715.8990286406597,628.2592921346657 719.9385449529688,631.0336364109371 724.4352965534387,631.8956055907589 725.3046529851764,630.3069439404951 728.6755745044261,631.8894513224664 736.0650245189348,620.3240491560746 736.5343347562172,620.18519246356 748.8672713895581,620.3751757703643 751.5374383681049,604.7732948461226 749.0540995969636,602.5158437653756 759.0764662397253,593.0067957513568 761.8588661076463,591.0456226043693 769.9674243975564,595.5439180083195 777.489885581994,599.2337158194201 803.7664708572543,610.3461137060258 805.2064574335367,607.7044895693766 809.7786463336075,610.4398658904529 811.4629524912386,607.1210807453058 806.5543051010958,604.7105742622302 808.9425378297841,600.5390595762433 819.5416048072384,606.3086708337687 816.8623064158226,613.2439703903974 815.2087788692305,616.2554026413924 818.4062899777606,617.6030451005167 819.549469219225,621.3199758615247 821.9946553098214,625.9988274744221 829.2689196601896,632.6283867502021 828.4026233895213,634.2343088236039 830.2450311321385,634.4254608507882 834.2987702604004,637.6632473571522 833.0109336774198,639.1825630557781 834.035851330179,640.006786095292 836.094772813535,640.0649749910892 840.0739070077698,643.2407814215891 835.6796266538767,648.5667029032343 831.714198512633,652.803406976342 827.2792606522037,647.9675961143191 828.4972269802814,647.6946804371855 827.8475996157367,645.3697447881761 826.0820347865081,647.7329488275512 828.0098559039708,649.7989624927484 834.1879379992283,660.9050212513374 836.8963200027807,663.0512816406874 836.760669943244,672.9227775875291 834.9484889145115,673.5915758616636 834.9849692127692,676.3659431301967 833.1317716030642,677.0094290573585 833.074533281931,679.9052105086348 834.7373535337858,681.7714770251304 834.8214284032596,682.9470713994035 837.8029713521427,682.9414979059607 837.8358766391234,683.7929393814056 829.2402185655853,683.6933149087074 829.292726353928,672.9789391295211 826.2800569801025,673.0211276422338 823.3136772684327,664.0942143489574 817.7931483082297,663.5600316818297 817.29914193999,674.0975699915697 814.8324066279471,675.0775541882169 810.9563699898051,678.5327588940046 807.1653225949358,685.1822997189881 805.3297047943224,689.0623934206058 798.4593967575739,685.3976478356673 799.8275562825886,682.7279957016569 794.652754785581,681.7641546170317 797.1107752271748,670.0362697880757 785.2344835040055,673.6005959429341 779.8548547115378,673.8745864491054 763.3003043287849,673.8309563869635 769.1418450871341,680.7182011712831 768.3270720654467,684.7373619521119 771.2716844515496,693.1404781473989 772.4592117474558,699.1667282499714 774.0434903744521,715.0917236980229 773.0598713076455,721.9476205195537 768.5340692942285,729.5394956811348 766.0015392748226,735.002178337404 774.1432122069676,739.3141923511416 781.5549777648807,747.8169923835312 785.6790246207706,750.6437495430384 788.8436335381977,754.4588981254925 798.2067104639408,765.2022751321198 809.5244321273154,755.4748912190237 813.8433077616963,752.4841644035835 819.7305708132084,749.6286972784043 830.6757519171897,745.0636270382944 835.2313810694695,742.6585700654031 837.6972484754893,740.9143081251827 840.9607018327409,738.0407044868891 847.8135525666656,731.5399323260208 850.1600717844556,726.6999231808247 852.1988481323948,725.9488202693433 857.8739794720578,719.8222254226991 860.680484687776,720.0084648170224 862.318820834285,718.9958499275224 865.9360460997732,713.8120251248868 872.5799088398587,705.81382308313 869.3165797254388,703.5449791473486 871.4849931817879,701.4964735508869 880.3703629297695,708.7275794533589 881.7968089154704,708.9981661906683 882.4645390317445,710.4432288779374 902.5513448122671,726.9634024830925 892.5465408916314,740.2813965428328 885.1189301903328,735.108800899764 884.0594163481172,734.1184962469814 880.9689040423324,740.0402126435256 881.5119263180034,740.5409836493033 890.6002321811964,744.9630618090044 888.7436510745971,748.8014827812916 880.2607044425606,744.781303327249 878.404957405574,749.1046091545147 881.7184365194889,750.8431630929301 879.872110730779,755.0705941569544 884.9260415104325,756.1401513553798 878.5697818828947,769.7940450349615 871.1993131488198,785.0371969373573 855.3521655724201,772.01678810229 853.0848089432956,770.6057699412252 859.7619634776564,763.9048533413085 858.0270662225558,762.4956547277395 862.5983366012579,756.991423384721 859.2323956393723,754.2687128407218 848.0441047537652,766.4481835144476 848.8912179873776,774.7839246545376 838.9069078635829,784.7586207331121 834.327635755872,780.0078056997049 840.4868278156637,774.2134209151056 840.8323597688817,773.474052461981 835.638248704901,768.3663355257105 832.4470447224103,771.4624743921694 829.7376541043499,769.3528295383184 826.6367926495236,771.8340725625221 827.837771708519,773.8055443438659 827.7910941828036,775.9400155664191 818.2762848444931,784.8670130913702 814.540718588527,781.5184626586716 812.8062418820637,774.8505423026065 823.3413296857861,769.3447970739755 815.333234053167,761.2220600632897 823.1456715487409,757.1281147545561 823.0092052642844,749.6396781131969 815.2081278126175,753.2260860283562 811.4210805047669,755.8944662476222 807.7091080224775,760.2008074828689 802.3338947467056,764.0278498814494 798.9467619988551,766.8617036701074 806.0009137278049,773.8616161567103 802.8068856570145,776.9573956953016 796.5859845945138,769.7698812975613 791.8172973104234,780.5570797920907 801.2360199493858,797.7823374114389 822.9844749027192,831.5554993089819 843.9341612521864,858.0145131089779 863.4891727287878,871.7360100090141 865.552022260217,872.8569305543998 875.2682013582369,875.7613959886306 881.5835965738647,876.1715372625043 887.8450475507728,874.9547746657448 890.2937065054599,873.7739773910154 893.1882809048183,871.4672403990124" /><circle cx="977.292347282253" cy="483.8205337375293" fill="rgb(100%,100%,100%)" r="16" stroke="grey" stroke-width="8" /></svg>