<?xml version="1.0" encoding="utf-8" ?>
<svg baseProfile="full" height="1024" version="1.1" width="1024" xmlns="http://www.w3.org/2000/svg" xmlns:ev="http://www.w3.org/2001/xml-events" xmlns:xlink="http://www.w3.org/1999/xlink"><defs /><polygon fill="black" points="71.28276420483446,575.3095961140299 75.69964916298171,583.5974509227339 79.62564622391852,591.887896148155 83.61747831246419,597.4499337513554 87.08912995460472,599.9510938042026 89.62286329867985,600.8875538540278 93.09777351634342,600.878208949486 99.08977315559544,599.2947515528236 101.55929799187389,599.2025897828755 105.38624408685745,600.3058377014054 109.37054830029196,603.1478076489864 113.93694633960052,604.9432385939314 121.39219644073597,605.817771440979 124.64520021926772,607.1810976639873 128.5745688141682,611.5735641613908 134.6784096800591,620.1059542065271 138.01955299120806,623.1991263847665 142.0846000521009,624.6522269946286 147.14850920176474,624.7924649975242 151.42003919223734,623.4767761752756 159.00038579337073,618.5025339248127 164.03874361618455,616.9043613191204 166.63351309374735,617.0592050321052 169.28081364375572,617.8612728059397 176.28458277439904,621.5401863633865 178.96147612364612,621.9608406227732 185.4796188896117,621.1425757824874 195.31769786834047,620.1416782505821 216.95535517282323,613.6099806998236 230.15385578171126,612.336445926062 241.0580326068978,616.8401417619041 256.1259212155238,626.6737616968699 271.2463922549586,638.8612484296464 284.56787847856634,646.7195302162587 300.19790071482134,652.1811590738758 319.17820096205287,656.5826162138276 328.36585658285924,660.814327386775 335.5794207443694,668.455122665293 346.55525048286927,677.724507906225 360.04882800364385,678.8611756839282 374.36013584412564,669.1989355359906 385.2421157033771,656.900584216452 394.945909139113,653.3730202326224 404.1330725234336,657.2799645683436 416.4504469747454,667.1986410119167 431.590056969478,665.605574297213 448.7835046507076,664.6454042959089 464.1006373344486,671.1202268165753 478.03251163256374,675.2526228193442 495.1921332868602,671.9010322920759 512.4513830785093,671.5646127766352 528.1384728530666,677.3188045854647 544.2105777598806,685.4172452167212 557.1009871274874,704.3629677300083 568.9718684329789,721.9807811385816 579.380778808635,735.2498451543759 593.5153981519708,748.4389905481348 608.9598364336815,740.6954185221119 624.0868572480281,734.645854280727 635.2179991394972,731.3770748587982 647.0781858919182,732.4873942308665 662.1454766772315,741.6363058618049 695.5735971033887,757.1806052807408 708.2110430871563,764.367373798809 739.8275436566754,776.6234717052535 746.8540706418064,777.2234960869633 763.0984679103063,759.790954278073 772.2332707363647,750.7485905378901 783.0927813034563,735.6388773004046 791.5889857691822,720.5077958432867 800.7484281627737,707.7457490654207 805.8395452801443,699.3477853166936 810.9409165987241,688.5787460991676 807.3444715056125,669.3100668365166 802.3133432939383,662.5280203032466 794.9440531619645,654.3685009528141 786.5562334080736,645.8666539641943 786.263903982944,636.4169047188425 790.3371987757674,631.7126717231937 798.1241385677396,622.3244142821053 805.5565732516675,615.9627654612989 815.7272645692807,602.5300617402725 823.1679208098801,597.5255526145459 834.640312109631,597.5985819605776 847.0730419000455,603.408991618674 859.1970383741049,609.8993356113076 871.6679322806615,615.028629651962 881.1017742379886,617.4392410501573 893.6372397194243,611.4166457067417 904.1386222311446,606.0514799036567 918.3400403587721,604.0729579562118 928.1276095381805,608.1545042794128 943.7375789111298,601.1004424595716 947.8435304556263,591.994745923559 952.6866778362756,568.7126153593013 954.4670930323749,551.1606582575773 954.9256622099182,526.1745116310937 963.8048627475825,515.0578429192128 972.1876789996892,505.7289802062106 990.9846489555458,498.37130542219717 1007.711054738521,492.0601090131704 1022.3255623471524,480.5492249402583 1024.0,463.8416038659785 1018.282775169545,452.3594214853141 1014.9454119975748,446.2720344283541 1009.8807433888973,439.5086429748559 997.6418635449035,430.80142963153565 985.3908017527037,426.0638691007362 982.738817859234,423.9484743284446 979.0021391085005,421.84359929888967 967.2855478327807,411.7906721806159 958.2520084733513,401.6183003536233 944.9145335278437,382.1232196279826 937.9360789451065,378.9838352566385 936.5274392266491,379.3473727014846 930.0440336799169,382.1323710696706 926.9327325543513,383.17988258080356 924.1387101497206,383.12794661373835 919.738158032753,382.0871760232879 915.9888953407568,379.4301964167114 913.7736330382733,376.6794781121845 910.0523833138326,375.9676469784446 907.8540223803329,376.2365843794855 903.2233493155544,377.8890819592398 900.8628019352228,378.2697568032421 896.1380023334447,377.54901750742334 894.0054890764601,375.88773165506257 892.1208790099411,373.55454674180953 888.7804752615671,368.5354312532392 885.7095110478721,364.93692287709536 881.2842247728918,361.0311595918127 879.1732087818144,359.52543866937026 872.6457230436722,357.24087505392333 870.207428915388,356.843158109832 862.3166821188541,353.2088829389978 857.6818487486906,351.98115157158105 852.1812087017148,350.1942379675156 847.5426840244168,349.6431417446556 842.2463012500342,350.02326684026104 837.5375453533488,350.98970634532594 831.1640034448608,353.4875637254256 824.97198029871,356.7311482584983 822.8355993472363,359.35568620015715 822.5385389757336,361.7776343626126 816.6751856471611,366.5352759945697 804.6157329326793,372.0687048564674 802.8472437882642,374.61327459326054 801.775035867086,377.3992451298714 799.5123368119837,378.5086081521737 797.331106066765,378.3545726683498 796.0487150980595,376.67723716881346 795.3391247984686,372.4727220576027 794.8638642677057,367.0845194361589 791.2549219070456,367.36311093815215 784.632965652128,369.6899021121104 783.3862332708225,371.1320517221763 783.3302765372796,374.3304087886929 784.3677540967592,377.279914581458 784.0768846420228,381.74876068287784 780.8138773825676,383.27804654625885 778.4603253772017,383.2104477128176 776.927279399755,382.21192707627677 775.142332001494,379.1992806458917 775.4369220708855,375.1498515789439 774.7176248652248,371.0233143067064 776.4158704302405,364.6136997371313 776.1548196249684,362.833657805013 774.6157321622647,360.9094947983567 772.7555706947979,359.92094764515235 769.8863954439811,359.43796573579573 767.5340943157921,359.6203444052379 762.0892100640402,360.66787750777786 754.5109189402913,361.0626061076876 750.7784047692085,365.2246908445716 749.2165609454706,368.2716147617107 748.482464970936,371.1412488208474 746.4917869438948,374.2695280804437 744.3911414147126,375.2897815732964 742.2115420336152,375.3231514504123 739.5148103346751,374.4878645044623 734.9320102133065,370.8976575417796 732.6321687927674,368.55805370273015 726.1663219047248,360.77186002929284 725.4741683083191,358.5064876884435 725.958848362271,356.31588101652704 727.044263992815,355.20226585267886 732.8368017986965,354.06818165999204 734.7202274608684,348.9880836637752 735.0936283932392,344.35685197262734 735.7522677850639,342.32818957211765 743.0912055284663,336.29563681960394 747.5636375700606,330.1073173597423 749.0247794624325,324.7830773245952 749.0946930161658,322.00552057702083 748.0313998726516,316.8808455179293 748.7559589155445,314.089262030447 750.8957671540758,309.1878450472837 751.760530941835,304.7718903638782 743.4803985302758,289.7737387710461 734.7749292744277,278.9078565256143 726.3852811237956,269.06026801747066 721.3763160431857,259.9086284283791 715.7204694356111,243.67429757482512 714.4742991640077,223.7459097878011 713.5444879738932,206.53025472792513 708.9094521292719,189.6181514757386 703.24962556521,173.71734452712542 700.2415933118887,166.27297779067737 695.5646692701739,158.48647474907568 691.8821666861866,153.73572684943463 682.1353949649964,145.24209069105586 673.0644663971434,135.405002514565 666.7406949384581,119.84893401656802 663.0481284365136,113.41533725150452 662.068460842744,103.62269738876591 662.1268999347798,94.84822705608565 660.4754783430907,85.38716530120678 655.4699370181854,70.8525651796167 654.143440838848,68.14547225495198 647.1152365142678,55.95480273407986 643.1070628596763,40.74736376619205 636.1084368735205,20.81344744490582 628.0614910845187,11.326532637159517 624.0022256102139,9.965762168275319 617.9160811820011,9.263557615324999 610.1797840887099,0.0 607.8229262802845,1.4039982249665854 604.4730833572239,2.4747977467463897 598.4293354303334,6.31732038678706 591.7997385760252,14.207605850513005 585.8507953605813,21.757423571967706 574.1552847444777,30.775425739904335 565.8211589149311,37.35688593530131 553.0883698097558,45.712951287800706 544.3753476075716,50.95175304320912 532.5728329470761,53.557420291497465 526.4192497669279,50.312576237263556 513.1754157495549,47.54506169175761 500.027740121289,50.504629639412315 486.75370843774436,46.034776117873776 480.58473660730743,41.76501115391795 472.71941598928885,36.85872622014074 465.92469423812815,35.299656319572705 459.5338347067108,36.75622488289832 447.7916520562308,41.00468861110846 436.1700518871944,50.646313247891385 421.25160468549905,64.38091692074397 415.9234671595006,68.16494784331576 403.2622796484118,75.11736075298904 392.8415786669287,77.29928172894063 376.6596556241808,76.87662515908653 365.5153487179565,75.36322699876337 356.3424991491542,71.79819518641261 346.1953516143297,69.59689790409038 334.0890453658976,71.46995584587012 314.5871578411819,74.81169763553066 302.18182381433655,78.73291685557854 297.5336413194374,82.51912700028697 291.98414305473693,92.7281077604332 286.4758738500338,105.63257453379367 274.1978501701424,116.63309762259303 262.80099381589827,121.223016548185 245.97097330840484,125.92621550031765 228.47888234367025,131.3301267755429 213.25706915677367,132.3026255597655 200.35494720099695,139.75159909977106 198.41119114348027,141.5759432003324 191.56927484760803,144.90093257936667 187.7704048475694,147.7720180701558 184.66889447965465,151.59708234653056 181.1678541864212,161.4273850215136 179.33066690630625,170.59999353494482 176.68657508010548,177.0176213752203 172.22265566676194,183.1779127995719 170.79338546555067,186.8189108911672 169.80527671600467,193.48833376864923 169.79817605779903,212.98487541048803 170.17985653794244,220.15590600898895 171.63733789017655,225.16457200087586 174.38936109255144,228.9165719428911 179.6122230471996,235.02338752362914 183.0321539634386,242.95503627371488 186.02316291708257,253.57805362731108 186.70782585809627,262.30485055187387 186.650172464894,269.3493045566705 184.23816518170227,281.3845209550614 185.47580457035755,284.4910696965801 188.831637823743,290.7849398437793 189.3408056608068,293.3804217082645 189.06212106686283,295.36502188573985 187.2630595844036,298.6601610289786 181.0036167830534,303.93070045049996 172.73706978122146,315.12616236224153 169.26887340321665,317.7438308444371 159.10603403144665,321.7739123198667 153.89980160850092,325.0883982140222 149.08950724526707,330.3938536157152 144.5630653829546,338.3719839983394 140.2418153037244,343.4974985481912 133.3978347672761,349.8813451547308 129.5775936259433,355.0976598509553 126.05874654514875,362.3745472936159 124.50500474098985,376.4777447650809 122.94567696328319,381.7577342634039 121.49645569777886,383.23204862562227 118.60216108791914,383.8556265978889 106.69198384197325,384.0767295909221 101.13341521988457,382.9798544026076 99.17484464285663,381.34308357412584 98.87551141918465,376.8925948645579 98.06866299075145,373.8679264701259 96.99045132798541,372.0579950034689 94.31648559348639,371.11619524638184 90.33620537514501,371.04164532789747 87.17939929883521,372.5201576681279 82.13377156045122,375.91800744258063 76.79935887070229,378.26721461277464 72.1772177504348,379.578436981136 69.00501724614487,379.5011456427621 57.029623448934075,373.4299741714666 53.416216385686894,372.9177978420306 48.80260520995777,373.1848444642904 45.204938057406224,374.6648136992548 35.64776730854521,383.4083999258607 33.056658143216396,387.04148731904655 29.549460538914847,397.51461307891543 28.878484908055313,404.21730464875253 29.526606775024625,405.48430471166967 34.844696800272395,412.9594141773589 38.93627941158574,420.91240065236434 40.167398675953436,426.98097601260616 39.81356002728569,428.9285768653118 38.5899974559522,431.00912738905436 30.377145464265432,438.27471355670724 29.65408390909365,440.37907834581335 28.35481481905778,440.5290936369711 25.710780691563603,439.10312201181426 22.51912318746942,440.354921585542 20.26042707097728,441.76945712519034 18.63176458569014,441.6949370563766 13.97024932185602,444.94350228866256 13.186657358091507,447.0081649749203 11.998594646628707,446.97090037293646 8.832113135080991,445.09390935824956 6.199079835897222,444.18841542378135 6.308672816915604,442.55336719413634 7.553179645999992,440.7997654926544 7.497048457251342,437.94224317587884 6.080201021832013,435.7805545985728 3.6235877220712815,435.8487777288952 2.0092199328467943,437.36175425115624 1.2069209493011908,440.5859153979709 0.0,441.530059895568 1.2355983373435513,445.1401215567927 0.3884488432876027,446.2012734268048 0.8213790795048704,447.91323018802603 6.271511644125341,454.5034124088711 16.00431571903484,458.0413910358049 18.88659045767764,460.55007514845107 20.194085992240595,463.577086101389 20.126652191152626,465.9124821240643 19.12284177657479,470.06568737162394 16.480193137362637,474.78886449969684 20.29804283181311,478.9244772422832 32.20013331759053,484.79328406653457 35.73830371648972,487.0352515891734 38.563392577063226,490.9238684200159 45.88497569678634,508.1189313482856 53.04282049791679,516.1009945298706 70.05846887299543,533.1813266354967 72.07584688129704,536.893178172704 72.23332468953808,538.4510763957192 71.81965482018173,548.6965718713748 70.97508595238968,555.1894052255219 71.28276420483446,575.3095961140299" /><circle cx="510.65220702458566" cy="593.3926973529116" fill="rgb(100%,100%,100%)" r="16" stroke="grey" stroke-width="8" /></svg>