<?xml version="1.0" encoding="utf-8" ?>
<svg baseProfile="full" height="1024" version="1.1" width="1024" xmlns="http://www.w3.org/2000/svg" xmlns:ev="http://www.w3.org/2001/xml-events" xmlns:xlink="http://www.w3.org/1999/xlink"><defs /><polygon fill="black" points="795.3524534897648,554.3813313143914 795.0689011937872,551.288249486845 797.0269332447772,548.7687980990454 800.9003353697308,548.9914072667948 808.2066386036477,548.4267488165235 810.9838283225783,546.0184210031865 811.5402384811891,544.472451768232 818.245638586175,543.6082790986857 822.0128477947414,545.1232664396578 824.1987024855722,544.9177540598293 829.8961922929333,541.4308770096671 833.0241153187436,540.534464368286 834.4861507375691,538.2784907503836 846.0956155590288,533.3615135256406 846.7346717779112,531.4453720087945 846.0816563978265,529.3530150287888 841.2433142460616,528.2031485902451 839.6929166031706,526.2063370842911 837.8694898413764,525.5970606813862 834.0331390392024,526.0626526827963 833.2183412594886,525.0804775975248 832.6712435808901,522.2891503221954 831.8964383536594,511.17800717353975 833.275507063851,509.36453567380636 839.8458803931062,508.64366419206704 844.5289106001013,504.7210555195446 847.2685212901415,503.5428337631939 850.2738975809878,500.46492593801395 851.9911964314429,499.927566341693 851.5864393186388,495.9974615904641 851.7082325057356,492.2141272343147 850.6672111421835,487.9253936630755 850.5043272644192,485.9293072993295 851.4716612951406,482.8000987656194 851.0673445280552,480.71524379741174 849.3034150388928,480.48521094090995 844.8311508248198,478.63498263181214 844.0536478402548,477.12985017209485 844.2970276762618,474.349232504215 842.9973373350941,472.4117214225096 839.8863718063328,471.83192013008374 834.450070447373,473.3151111665138 832.7602277283113,473.24735387039095 830.7259641956365,473.9938915035933 829.1289014396144,473.5868343793785 826.7227582270178,471.31675674853057 825.6230746462239,470.90244370014125 825.7246074119128,469.31243659262543 824.4548345224471,466.93355430419626 827.1322656106437,466.43389009338136 827.3220896569208,464.1976210185453 826.1657490285409,464.1429722715617 825.3171744041007,462.01404194065583 820.1476322241306,461.01273252808573 817.2055928361165,457.92049640681046 813.2576815985087,457.18868310110895 812.1837522067765,456.64025949876077 810.9888160583248,453.24651880623674 808.0439220938432,452.4176396955976 806.2242260734511,451.3068212053895 803.4458098708583,452.8005617341976 800.2892968002242,451.4014697035433 787.7909128074681,451.82282722638377 785.752680222574,451.5848198573965 785.1480866334205,452.8124506295537 782.3036253106403,454.08110238185407 782.7403491226572,457.9879453433216 782.3150375065308,460.63652455263025 779.9958004424399,463.20926420952776 778.8103569402638,463.6251190393972 774.725584344394,463.87611629563776 773.1075988083206,465.14839806925636 770.898458807727,468.04735771716923 769.1945288277699,466.9334663456617 770.2136985846034,464.12295900038544 769.9615137522438,462.58969732817025 765.5424046498478,461.820780162167 764.0085697436267,462.06701824150116 764.3522045276826,464.45939362655054 762.1430259528166,466.0669066558478 759.2559942073141,466.14752560694046 757.5358905235919,467.1131257671218 751.6392248810118,466.8447521471844 748.8205185526754,468.06136952046995 745.3632750415912,467.42108985550556 743.0748367166719,468.4352520013697 741.6300915376606,468.09647329012944 741.8023682890357,465.7069610664347 736.4423450599419,467.6537944047419 735.4851042220342,468.4961090326167 730.2838106576901,470.3984870504112 727.7885737929637,473.9454898740828 727.3142970358122,477.0460405956776 728.4174056350034,482.49196103382565 724.1626541732364,483.4293600450693 720.4476763435309,482.83261502051243 718.8219897657391,483.56103381527066 716.3615651901471,485.78590724754224 711.0216691406503,487.36136265549726 708.4732695373253,488.98280226099394 706.1686219608702,488.1313906222431 705.1427997883901,489.24131188892466 704.1278448809724,491.88770585653367 702.8455311016305,493.07226568580927 701.6743919738032,495.3520239242075 697.2131183784377,500.32755237927813 696.0237766032324,499.8098456078252 692.3087012074269,499.9398024766555 689.1140096971175,503.22849598032894 687.494101741412,505.873140947843 685.0983245245893,507.67644790524776 678.9577112841646,508.7065215710629 678.0967998051689,510.2342920311935 676.995924476114,509.6431740674094 677.93334338566,507.8486455153886 676.8267852635893,507.5142419753407 677.4189624845578,504.4218467369499 676.7193245841815,502.5143184930497 677.1438487536735,500.2135973845078 675.6945507426047,498.7665677314184 672.3644909359598,497.6605885962248 670.5205320538481,495.27564066061336 668.5854641193779,494.7976224814421 667.909087618359,492.58268998668336 667.563372159939,488.40608478073113 668.5075493225454,485.6792776544488 665.3195712008567,482.38916354349715 665.9191621595309,479.8309971376775 668.7359085191584,479.05805559020973 671.042362033927,479.398497535121 672.324525101723,477.4255437360815 674.1971293888196,475.80393593835083 674.7774185475415,473.8705083280787 676.489138253147,472.1591978235941 676.4005411896202,470.79786684460305 674.9424656991171,472.1681641145732 674.6946179312373,470.1227011764506 671.8728415209001,470.4651465334531 671.0218772392448,472.09422747222527 671.3680411262935,467.0604556887964 671.1032364234987,463.65275778917726 673.154965459302,463.5655019915662 673.0711166918456,461.8662812225051 671.5118608226836,460.09389841380505 671.8546180372618,459.0754637350866 674.2435479499203,457.53965960902883 674.8373368405936,455.3199373957441 673.6463269373854,454.5571108516816 672.1697767200955,450.91910118061594 673.6235792246196,446.39514563707655 674.91105864561,444.18698758093126 678.6391206902296,441.8052814253241 676.9349029344152,439.8508723906168 670.9405867494013,435.79962596763266 669.4035469505067,433.6688261450021 666.8415844871985,434.7863762390916 664.871904424736,437.8618839375532 662.0586374920874,438.7977714179575 660.2622538662041,438.6361053087726 658.4957258191765,437.32699208283884 657.1119342205919,442.5561904761663 655.9979854102285,442.98961690459726 654.5499279282269,440.8567990231296 651.9886365350789,439.1579781764963 651.2911120638447,436.6577539678783 649.1737980986608,435.6598126354984 649.7422546809668,433.4720388882645 651.3013596331039,431.68192069950874 655.1270142539389,430.7437275739726 656.9190570354772,429.8004132858622 658.6902421628041,427.9459673420255 659.0417943821327,424.75778471852254 660.7421128142431,422.913979863411 660.9114691339132,421.5500882236813 657.6634744770721,417.4755754144445 658.3523569994167,415.0001086349773 654.4277621955299,413.6463113259615 648.7901811297132,415.27132505572547 646.3209665828293,415.28131788197504 642.9526801397594,413.6026237272084 640.7484223148261,414.2030207616027 636.5662619532625,419.40236156748426 634.7831872666886,420.3457671979945 633.4140436275478,419.49224127378386 630.6906037127264,419.75032244208853 627.8810523192537,418.04397196199716 625.9898773345831,415.8348490629237 624.8784961623309,415.76633727167905 623.7703256455476,418.15415261103703 622.4023257802587,417.3822696816461 620.5283569872939,414.40553246413583 619.0024585779681,413.8096261822294 614.3107961436866,415.8510120379352 608.3553265002844,414.6525921261889 607.67686315424,417.3833813462984 605.7189077700025,417.03780978861676 605.1225861696743,419.93127336291013 603.7867009064904,419.6503655526225 604.8931133938426,422.33924117875256 604.6316890058483,424.257229518489 603.6979256018651,424.1653850218413 602.9961025996691,423.39584759403385 599.657688065451,421.9709949123095 594.0257406932712,421.8930958657528 591.3459818928859,422.12902078576803 589.3026104886463,423.6164433537408 587.6970365992111,422.24246465095246 587.4346190433529,421.0579209004967 585.5683021952863,420.9667747519243 581.7111817099304,421.5026322199179 582.1723928255448,417.5458077185632 580.213846231813,413.2795018796189 579.7470492872495,411.27894499278875 579.6626830100363,410.09234893194946 581.4527019279577,408.2198416444005 582.9793831593192,404.302512630091 582.8931073426202,402.17518217746647 581.0463701231911,398.3482115225843 579.9147801729474,397.9925792213486 578.3896939026503,398.9212926882062 576.947475350208,400.96392238353144 576.0158497252602,404.11625691633844 573.890823794895,407.7737774102628 572.8753869611988,408.2762903216583 570.7917719810284,407.7781191281656 569.3062586954858,404.43781632875664 570.3211122222295,402.30786932852504 571.9542580327638,400.6625522193091 572.6360563483049,397.34943857428243 573.9988369499517,396.1673625733372 577.9017031536588,395.836189666868 577.3945649464227,394.9823994206398 574.8396086296675,393.60920370106385 575.0166547118806,391.23337983956674 574.847284877681,384.92237997988923 575.528115461485,383.9012085511955 578.0726306279194,382.04108813923904 579.0898616899372,380.16758936009137 579.0887666479541,377.78330242396123 578.4153886366809,377.10556463540763 574.6787720386408,375.55211060002785 573.6573378947138,374.7048111324108 573.6555462149573,371.46161778851945 571.9562359299501,368.73919031224364 566.1795874570158,365.71522189712846 564.2713221383076,363.3635833569314 563.0953187460573,360.5945066318359 561.4470172973018,359.97932084832235 557.8168424051653,359.9689404557462 557.3290016813847,356.81369903250527 559.9845398474265,351.48578982254617 559.5067621681985,350.0286339110306 555.1540527102243,348.7987712520652 553.6998144151786,348.06867465356174 552.1283066109603,343.2083060315214 551.6110528052061,335.7797479838264 550.2519018311492,334.005672403109 547.2302722068007,335.1534088127039 542.9263146059536,335.0169774710155 542.3268153157265,334.56335633038805 541.727079746666,331.65608544589804 539.3007350067082,328.00162279912786 537.0026003130633,322.30186182223326 536.8775215830694,320.5958922947201 537.4893834745407,318.176131022631 539.3009919327602,315.1409080292302 541.9950636058657,311.6762764468881 543.541473336382,307.15188656798387 546.2295185362699,306.4576717338052 547.0806510285078,305.6096157702997 548.2910385020967,300.4040521383938 548.1992486737057,297.75826801404537 546.2589422096601,296.29764563119306 542.6306246918541,297.7479291276701 540.5692740782325,297.3719719324197 540.5771674049811,296.5241004838209 543.5940877325693,295.0800158558411 544.6812527387779,293.9851792441576 545.1668153154162,292.1703155159256 544.6922104096034,290.9493878450943 539.9674559477886,288.64084976664094 540.3717984461554,285.1110451410366 538.2592302707106,282.4776870617899 538.4292667323974,280.16617305926036 541.3288497571687,277.02784863535567 541.3284015572181,276.1800648595855 539.2733928277001,274.71074998682377 541.9382150998587,271.2077051204692 544.7181267449669,269.2666197386301 547.7394776173824,263.57280371440766 550.9162370168274,259.12424956123493 553.5235297348474,256.88882772485226 554.9058767457861,254.53352007895376 554.0583789848907,252.46968306986457 555.7558985164122,250.53046148192516 558.172715924728,248.71533559495572 565.7998341597289,244.54377524942174 566.7427126689794,238.63960834301554 565.7533942792857,236.54738159469503 566.587882135562,233.59639606015764 572.3590430048592,226.12659825647677 578.1339869551292,218.30992354437967 579.1499609312209,214.22469501246053 582.5545345624788,212.19431741772064 583.2260596832774,209.80735982558258 586.2573853814159,207.65871152540558 585.4869792594917,205.4220876757547 587.0901992305126,203.13682599542312 589.0604585950317,198.19308267279814 587.3608953107129,195.97782168501521 582.266063286791,194.26100826563516 577.8440528807826,191.68892410622914 578.0209598657103,190.15554847569592 580.2277315253049,187.27223538671456 585.3187567041465,183.36533876572605 585.7751941123408,182.30856400475705 584.3603447602216,180.1514737109311 582.8951534920136,179.0660340596753 580.9251161729283,180.180981054379 573.2198779527189,180.8108912166474 571.795490151183,180.16408187643287 570.1080257082742,176.60165344208963 566.7753181046261,173.18046526463343 564.2272769342667,169.50534576954988 562.2101773201967,168.04874339372736 560.7561055651292,167.84073091462335 557.2359578530697,163.46219350261288 554.4172564878274,161.5967940186282 553.8004602941124,157.93031467519882 547.8098792336291,152.58085916224547 547.3427529773604,150.3824312147168 545.9494694189781,149.26543799646117 540.0956803699386,147.36212779606592 536.0037218668715,144.663116168339 533.6227205155803,141.45598525851676 531.6348299437142,140.9168547522571 528.1668802676711,142.6584563177123 526.2486805860258,142.03724523219762 523.3158122889645,140.11051885131337 517.6549236219241,134.65452086358118 515.4327909506749,128.82386406833984 515.1921953497854,126.20581678788471 515.9670838913078,122.58756558578193 515.141649844301,117.4265526822901 513.9333362640044,114.51258236648539 510.7679602130342,111.40628267897387 509.47071083723097,108.4126879311292 509.7236332057643,106.41190789425252 508.52209093816265,99.96060225512724 507.5598210792016,96.01606960235699 505.62471975651863,92.86626096132545 503.1972021681137,91.64837479658104 500.0381738694449,90.68305866632022 497.6120246240571,88.74158353447649 493.97750873649244,82.91952047570828 490.08222567242353,84.13248421510013 488.1400370266535,81.96174406673094 488.1488192989319,80.25952182048843 490.570259278094,77.58460701552144 494.3658110911482,72.80536206042962 495.80329155925625,66.61461608428635 495.5886949077914,63.029950185971074 496.8314121367045,59.38921066115881 497.8568557218573,59.388775329951386 501.49987096475735,61.08152097868742 503.67889880989236,59.87650378331955 507.21962701945927,55.35523210908423 508.9845866672559,55.05076488575082 511.0008531894501,53.50095587423016 511.14238858612157,51.909860690155256 509.04628444292445,48.52949193475661 505.6468847585007,39.82550535627479 501.9950179201804,38.000192116334915 502.1652354339965,35.75740435505929 505.04302116178656,34.61616842412752 504.0212757026436,30.797275384998443 502.27876927496817,29.003173724413728 495.83667992806187,24.010036260519996 493.55215059698844,23.555754484330123 488.20524189665275,24.284685273079162 483.10340146207875,28.17797170879328 481.6423051446383,27.928126922769366 480.1870316727229,26.476876045245035 479.7035078220663,23.32445275007649 479.4548432860817,18.958435754595484 478.97393068798476,16.050826418007432 478.24546358040396,14.836154676617525 475.08362019190827,12.4147001566281 474.600851605039,10.963729034730932 474.29867366101354,4.837195706439616 472.8422154831175,2.418896523072249 470.16313503059246,0.4813031776631078 468.4622663251501,0.0 465.1515143127151,1.031773945795976 463.84074943631214,4.130657749904117 460.43697363984353,13.360204318067531 457.5149114780225,15.304174160713274 453.8711395549498,15.799363662303904 449.49536209292535,15.568526852028413 446.82045412265904,13.141070065521149 444.8752151534329,8.538016189539462 443.90481481351986,5.146776620567607 442.4465776103188,4.173454875170933 440.98462256392236,4.666571659159445 436.3711009942725,9.77281330980827 434.9095006021026,10.255984284137185 432.7219555761519,8.800653171909744 430.05548747003155,4.438735314162159 427.3834360634174,3.955589122598326 424.22369434343534,5.17787733191517 421.3081249669737,7.843122413454694 419.1258416737452,11.489019929706728 418.88465596635245,13.914843607778721 422.2829984722747,19.971445069824767 422.763651144318,22.156567117723625 421.55384308026186,24.092952758105184 419.8538620752147,25.555511297158546 417.17925918666765,25.795386031005478 414.26505341356443,25.069908436515675 410.38429025783637,25.79965307622456 408.25204763811047,27.347243719445487 407.507482998028,30.80688082972665 404.0358340697451,31.878703064676984 401.7943927653793,34.059508977962764 399.34321284718794,35.54895784396422 394.01414374929516,31.72866798904795 391.7830525132031,28.429165732675187 388.92790680176626,26.388354088336996 385.05564952888943,26.138725304076956 382.87544587808264,28.317751303308114 381.4243890758356,31.957044430764086 378.0312748342669,34.85991268231726 372.943729217954,36.06745310915085 368.1054268099502,35.571709417200736 365.9230400221206,33.625484777514316 365.6849565903753,30.714562432395155 367.6182098336818,28.538266976891236 367.62296726323234,26.104343449868566 366.40346586765094,25.13729776764501 361.8075090934581,23.91566457332067 356.7276894583066,20.987536648192304 353.8577436421295,20.146842213657123 348.9546121809798,25.23111532432506 347.68723378812274,25.801893261073815 344.61494221977426,26.073499117686765 338.16031580943815,25.47737529186088 334.43305486216866,27.66829102243014 331.1095160050868,28.552256791276477 328.0426292536663,30.5238182501065 327.3032897846952,31.945340745380918 325.9630521320499,32.262382090382516 323.1776131491854,30.98190852943162 318.61264584626707,34.47322520592434 314.72591818149,35.68716321051613 309.6250935224209,35.45378109774981 307.62460441401134,36.07116171893256 306.72713741598307,38.69626023074807 307.00987199723915,40.822687375832515 308.9047557033727,42.396478114156594 311.2728765902293,43.3955103846896 312.482798822276,46.55310637154366 311.99544211147355,48.49277907614271 309.08172749585674,49.94251365055777 305.683410775914,52.61888178305901 302.51961892043226,56.99512128953472 299.3594559597133,59.66924826766467 297.6643960027935,59.90747696314122 295.95767394220263,58.69846503405449 294.5021603825619,55.79659558546871 292.06285188427927,53.61543118312591 290.84842979776306,53.13616595881331 286.62984070383646,55.013729044821275 284.5230204176346,54.55191516778166 282.6260919794147,52.76350966791426 281.06777762589576,50.116855145820296 279.11031679511063,49.57255758132453 278.1352656193012,50.37420777287173 277.25153511479886,52.63288936591812 270.6527058570205,54.17139119350975 269.7779049064328,56.46983583602582 271.17317986315874,57.44747290059502 272.3215106179204,59.64910322390256 272.83383020144714,61.937474951700324 275.06609945340244,62.521040422739475 276.9192071375268,64.38132050587421 277.45181843565155,65.83426143663098 281.3706881656288,68.45265052878733 282.04787646866004,71.4021126775965 279.8740856355372,74.84264660727331 279.53040706312373,76.11915471278382 278.3232655446158,74.40639743478312 278.4257610224488,72.81627282701788 277.30587494949435,70.88877117940126 275.242819358951,73.89038985103707 272.6087344059008,76.23458983909529 271.14461389443784,80.11774272309003 268.5728661755319,82.52218386611094 268.54183430154825,85.3449558818304 266.9279471594974,90.53503469373447 266.0284974606915,92.00947805415524 266.1988029674192,93.43514704362997 268.4160456001904,94.34568159599644 268.5425001858626,95.84237753858179 267.40456401932846,99.68364085185408 267.738883792685,104.0235191684676 266.52104907845415,106.66291918813533 265.6551926531372,111.39947423014587 261.238391184792,113.34965607469871 259.655277356555,113.35116420344343 257.07367902282516,112.28012219695677 254.66379626948802,110.54463327727535 253.0869973526629,111.38250040771902 252.41137295684823,113.29364683827066 252.08447606027994,118.09798582159624 251.41727903862378,118.76537999629716 249.50663413344176,117.61773730787797 248.011150013698,117.5365347308624 247.5917061020213,120.60889315310283 248.16878460145037,122.09309999286847 251.16978889041283,123.57958784713367 251.49955624696307,126.30994090669174 252.50223414057962,129.04509437128013 254.16923892191497,130.78622326307652 255.24646449263264,132.84854916540473 255.32614381958456,135.2541328937964 256.07958498123566,136.58445193215664 257.99164627921044,136.74354724237128 260.23544965920723,136.23701550856754 262.14743088595554,137.55852055520256 259.81945016423657,139.799031417028 259.9877080970066,140.96026999370508 262.57141454028863,143.27621766154584 263.4011106735875,146.50282635711187 263.9812863299178,147.16149676846123 265.4731199196426,144.42715327852818 267.8017138495878,141.10512439474905 269.1445058791835,140.85003475368865 270.80630311073446,141.75498515617983 271.2255471131867,144.5362984132912 269.13434600783995,147.57121854252023 269.42726059649254,148.884654915542 266.9385439283923,156.73688411853402 265.92820569641975,162.293332108115 264.43481293947076,164.9471612124264 262.4444329575591,166.2883922833247 255.53623629011858,166.80967776428588 252.3768673960824,169.2204173009676 250.95468240596205,169.6387704278893 249.12779858839426,169.15221894000263 243.9707217140567,169.57833817572202 239.89971728634737,170.8320867853663 238.15077144945107,172.57870725854923 239.15395593379048,174.23464640131647 238.56978331061222,175.39155760473966 234.99485138056951,175.57058592718954 233.08304014575074,174.3295738901071 230.83973077880938,173.8357710223146 230.42694566113238,175.50128523621913 231.92053033963356,176.40892236181446 232.66620040746108,177.98496727916995 229.09223379235036,179.48001498039844 226.431006487677,182.46799077597268 225.40056641467874,184.47494445478753 225.10773488317616,188.10975922396733 225.7769110835566,188.8597124458936 228.18610114282077,189.01605508343084 232.14077025092993,186.19222208261533 234.86780234356095,186.172621599349 235.5452311354144,188.05546316159052 234.4579525926201,189.5635273751525 234.80644675348245,191.24452169305198 236.79781630587308,196.04699297120055 239.1063485524103,194.47899485309404 240.51688210408443,194.83595260222683 243.45538105960856,193.50869484999282 243.76460322326744,194.65910103948897 245.56219779094647,195.85031079988255 245.13538358114266,198.006919560504 246.64944733096277,198.06715359859038 248.3932341210247,199.18669700616874 249.42501636918954,201.02689066241237 248.80425153076575,203.26611607095583 251.18175581894562,203.88150252242383 252.68225590997173,205.61542041300424 254.1605578337522,205.55337941856283 253.75088201040958,207.59798148189236 254.9791233374041,209.6506869242262 256.1851765542016,209.83544186203721 254.9801825430375,210.9879332192245 257.19616594834145,213.61514261474622 258.17846022784676,209.98417689609153 258.7572236424496,209.21401008129624 260.6374334051244,210.74137064401828 264.5925180343424,211.4158306550495 269.43650751862464,209.11292691955498 274.24817298571026,208.35145219370781 276.15974682804915,207.06097896758695 277.8243505093897,203.61820284257408 279.1685521842532,203.33221228509615 281.2383442859835,204.17360216166173 285.2551827592116,203.8057779889341 286.8333569559241,205.1300170853633 288.1671753096665,209.25376499783624 288.29723760172317,214.4683177663028 287.83729890389804,216.80938661371374 288.44001944332143,219.11198505334437 287.70999854997666,224.3241267365546 286.853895149293,224.6777673011877 286.28165704812426,227.3980356889133 284.9467547437668,228.84786849753164 282.87454947351347,230.069092504683 282.51375230931836,231.53157367222548 283.7260875049264,235.89197036835617 281.16814012540954,237.35191320085914 280.3191194169376,239.78888028096958 280.8391722784821,242.8481797779441 279.0142279061585,245.15981807358526 275.66092065733903,246.93138907274533 271.0394315342484,250.8273649622813 269.58768418004746,253.3198425127547 264.348673637908,255.34087475770468 263.6370849413287,257.3583289639838 259.73914153351444,263.43366914792773 252.572652849884,266.16340140196644 251.4138079639878,267.6630103811401 251.40874442101233,271.7284250859499 250.74440441621437,273.0509173644982 251.24424917086355,274.7123955128301 252.74272619935198,274.7936302262616 253.57437526694895,275.777808019212 251.91057933268416,277.2818043719834 250.49566592988242,276.5362302120735 247.08545030329995,273.2309372716428 240.93230951984816,269.1796005326489 237.1113612502663,269.02324931936755 235.11245150988182,270.774094363819 231.6573316915575,272.20865452340274 228.73399325833552,272.35181864115464 226.695282146675,276.0741834831741 224.21927718485267,276.92942323906357 222.8299791127306,280.984847776018 220.80961393633183,282.38789604200565 217.66005400913488,283.19656381539244 215.49564410159604,284.23327736878605 212.62969156988234,283.8033712283652 211.04111951656304,286.10316813400254 209.95541644176825,286.8155304254709 202.1259046378467,287.6960202083833 201.88007109271675,289.3837372012341 199.7126889772773,290.0312352652302 193.51941201368615,289.1326482494188 189.52574763639464,291.10034441820665 186.19915711679144,292.09281817715566 182.63904802600922,291.25793544846056 179.2493275324272,293.43520320458174 176.10130624569553,296.09184038540093 171.26150923890313,296.091942814793 168.5969959507454,293.9017811683667 161.78921541884677,282.54282224046153 156.42172942082053,277.4479722845307 152.77186738456945,277.6955491751212 147.14884712737432,282.8271047693787 145.98863890449113,282.98726803588374 143.17262755751983,281.9825145372853 138.03302062229773,282.14603668746395 137.15894368826164,282.6826783979159 136.98266891435784,284.4103161824213 137.9821532613193,286.9890501076136 138.08026765167378,293.1179376887907 140.04677747124782,294.36291085229834 143.31097460606193,299.11543546219593 144.1174716876576,302.04279629977793 142.59115361641173,303.3190679188857 140.00720936124088,302.58834294257883 136.54659109754908,300.57595768900694 134.389544498031,298.56558985614004 132.45890578022085,295.94056834712796 129.5902848297129,293.49506626875836 126.42758046963627,289.1609544670106 125.5941758579141,289.15529720751147 123.65526303215837,291.09790746440603 122.19756273213235,290.3706085649933 120.74385096772326,285.76074286509197 119.04139771007848,284.06481157746487 116.37194652151864,283.8142302490586 113.70247358909822,285.03488147371274 110.59387087080266,285.49147126909895 107.8845211295299,284.47505911559256 105.28654452633488,284.2544688796386 103.90468770452195,282.7907636316006 105.70017010751413,280.5333112846082 105.11940742261176,279.68893808171447 102.29239696577547,279.6940109587879 99.86695799579637,280.25901048487583 97.09019185304358,279.78387486857184 95.51651113897127,282.1315588628804 95.46528235619685,285.73812062359025 94.03265556890229,289.60736727425024 94.14778055512248,294.56194414116817 95.86070184689103,298.26110135782574 98.47362679868539,301.15947878974134 96.64553506656259,302.4567679226874 92.99835101291228,303.43652614811754 90.81383243282565,306.10478514862734 88.86171043228047,310.7240997237385 88.37790173950312,314.8447296418094 87.6525903480523,316.7904423975426 83.80174264071671,318.05749421997723 82.6727222153091,319.1878088941471 81.86961828563423,321.6345524250602 81.81178326450521,324.10817003591865 80.2256392782405,327.7547147977341 80.6930932468372,330.68636209059014 84.50617814490637,337.40248187834015 85.04651238504445,339.0044568132844 84.12496333742473,340.87980774360335 82.70659543598917,342.66610791720245 82.16097685644375,345.1841418976976 80.56262326555782,348.2796522531547 76.47122070981854,353.03463280811354 75.69545574274201,355.7069381884153 76.00260977811503,356.8304233293055 80.52033945496555,360.6620736649418 79.30105964025978,366.7832148944856 81.00538088859751,372.122840129461 80.51567763764241,375.2753982569453 77.11158779198699,381.1021015423313 73.46826802441028,381.8465125951119 72.74188419613215,383.78353145722974 75.35390256309057,386.14338794279615 75.35364375838822,387.8411087828399 73.89567213438997,389.06586431452865 65.86423504901235,392.7170309232598 62.85505425843976,396.26089443924013 60.75609703896616,400.74195497459095 59.06263499452651,406.57179988924565 55.410660239428,409.48496144646685 51.74468660251148,411.39536484868177 49.02024074287576,413.42415615749144 45.70527985245597,414.52433006528076 40.33288568931079,418.0286599833066 37.84884045472188,420.4342166550541 35.490294753420784,421.0491507674059 32.257903517798084,420.92059521546855 29.561318926235998,421.3929075456713 26.20037983732271,424.314488688083 26.19662754657988,425.47094269020545 27.651283369429613,427.1732282604204 29.114254197700575,430.5744381382797 29.359334616876545,433.72522817852723 28.567861442199543,443.3703311264967 28.48365142590598,446.349163391293 32.94129280244597,448.18178513428995 36.579912779651735,451.37986602908654 39.01033869659287,454.53167958938093 38.79783861186327,456.590290449858 39.73172503396928,458.89949285744274 38.52519390808576,463.0307952734995 34.795610360559735,471.06505081797457 31.840168072333544,471.6720842022979 29.62463761507817,470.9451674403931 28.448908343544137,472.2816180922413 24.012171274599332,471.4106835364695 23.861408157601865,469.49641041940436 22.524554784861575,468.4682793086813 21.638312028883647,468.91263509026794 18.53347964092407,467.8915475855621 15.565934967188474,465.8363616041039 13.80493599765904,465.2503711445647 11.89209556339955,466.73307129837053 11.306859108930341,468.94697744736425 9.100383217697996,470.28753517189364 9.10972558300649,472.4884240786246 6.169472867150142,472.65464662945055 4.552898367714524,474.730157622997 0.0,478.12802424791516 1.924045817421754,481.3759523495585 0.97028291766532,487.14561705002177 0.24311796245444303,489.5655069041238 0.7241544369207416,491.99087327009795 2.4273645978061626,493.4582890453854 4.1176028509034115,493.9433945707823 5.569679553388485,492.7285479134607 10.662758553592084,492.98385632710574 12.116168196447058,494.1962433301986 12.602400602307728,495.6588251119972 11.606217845972772,497.49620109820717 14.366174194347503,500.752047841077 15.998644174234046,502.14815198615247 18.17947636364952,502.9475993567896 21.0858152816794,502.9453791987937 24.727005756077702,504.40446641234007 26.17732488965733,506.83586461665413 29.093593266472606,509.0152596459958 31.772352626953406,509.7407752675016 35.44250104939413,509.6010796068158 39.56475862004233,511.14958796574274 39.71717484107852,515.2667116134 38.5018568997074,517.6905152312406 38.99032547893899,519.6346127120044 42.6289179069919,525.9391506182203 45.54376206533274,523.7534223786665 46.76255003031896,523.9937803488788 47.67736689147297,527.6164630722328 48.60543532708664,528.3496579633888 51.09626099620553,528.717447250588 54.67776301284664,528.4235187693141 58.37744721371631,528.6720566196261 62.12840598115657,530.3855032530239 63.53391618910169,530.5219480178569 66.14632389225429,531.954134956048 69.4326660320229,534.9404976543208 69.43411529581464,538.8240417301034 68.94451612873374,542.2185266108944 69.43637457586564,546.3463570223064 69.43610594251201,551.6860643073612 70.89704931459647,555.8090583860277 73.08155890323701,558.7196233917384 75.75186497533674,560.8999273004897 78.9193268434714,562.831543935921 83.53670567646718,563.0638264391844 85.9731002206186,564.7633231861242 91.07082573831262,571.7898959394491 92.04957878210709,571.784768886462 94.4754245780818,567.8969590080286 97.8792068739094,565.7054668262828 99.58431645590487,565.2251675932687 101.04038972773796,566.437293892507 102.49857481930752,569.5865881261291 102.98075318588835,573.2339226297065 102.98112219185786,576.6272971425299 105.230542237036,581.3011034058925 105.46972042130749,582.755983749109 102.31042492934472,587.6127256976446 103.04407619337522,588.3365435887591 109.6019216926811,591.7362907627385 110.57234027682077,593.4332414442225 110.17248507538248,596.8608659716067 108.88426341719119,598.7854527585052 100.91960215971918,603.7001839102318 98.73436030088722,604.4297666794964 97.51681529625513,606.3740697866765 96.54474776897241,612.6874976408201 96.05256445034098,613.9001817119126 94.35410791971,614.1453868539038 91.92951083074739,613.4192211613034 87.69277967974433,613.3182219969965 86.61868390905859,613.8983818245154 83.96182093736418,618.2202980353111 83.8980975919119,621.3803075760682 79.4328276648997,623.6903680421176 77.96492789154186,623.8110158135369 75.50850552995693,620.335182273942 72.08586448500253,617.5316324373755 69.41021177769512,616.426465896747 66.83560324336213,617.7833968486094 61.59401366598757,617.8600406709047 59.665318808662896,618.3824582295599 59.943408105490676,620.7606747045832 59.51202983419346,623.5735930952003 60.73000552817003,626.9014451585726 59.91026961383271,628.5984507081309 53.66037953763082,632.1675942666734 51.91595643935416,634.0226899146255 49.358878612202744,635.4817009862727 38.15255976807215,639.7703536145456 35.52935522497197,642.3986934507816 32.89008937389306,647.3358610827478 29.93054433447456,650.6330355949698 29.599352277635685,654.2469809225627 31.250940796025365,659.1858301659095 31.576222104671803,662.1404503163192 33.87362969078032,664.1209421861442 38.49100180210655,665.0954550353783 45.400953475924936,665.0944765662271 46.71639038562382,666.4122904960971 46.206176550054295,673.4871354542338 43.706514638253125,676.0444477270665 42.06383619887534,679.1311109360063 37.02833243200067,682.3568529881057 36.35555430440086,683.263664551388 36.03148431255347,686.4476229173221 36.29899301079162,688.5818203588084 37.577916440566185,691.5425658035912 37.773790413921645,693.5337620285411 37.13846652518057,694.9534785983967 37.521833767072586,696.9536420393196 40.67736008046556,699.2598986597986 42.337172437844934,703.7089666527668 46.967154703931875,703.163406149335 49.41039722585004,703.5734801185448 51.781190859643544,705.5852145400828 54.37059991374933,708.7253959931841 55.70837962638056,708.9140756200161 58.84039906985524,708.0981197062187 61.97011763010846,712.2629382905623 66.44001049410734,711.5017439983129 68.42867243028336,711.9232887941662 71.55299617749536,714.865951684026 74.71241020458638,715.8155718010296 77.43561708720196,715.1442596458803 79.75826911055897,712.7294946923394 83.89927620599241,710.4906218403119 90.69473262690005,708.134427396982 93.14719864658427,706.797104592566 94.19117754484046,705.47754371264 95.86786877691611,700.6010369384451 97.85203221543846,698.4859207867855 102.68999513224179,695.1749749135811 105.12589328436718,694.1966482822693 109.28584774643193,694.1022522512774 112.55479273365775,695.7068675799642 117.32552603641624,696.4712920242293 118.87140204560644,697.2638035619229 119.8448347011155,699.3631198126818 122.81016615899347,700.6201946132643 124.61846187068252,702.1912394246472 127.1213875155311,700.5031100537423 128.3955062475818,700.5063994474742 129.18828934417078,702.073254433941 130.47612305152455,707.651690167309 129.43970275727327,710.3178912787075 132.5507316132399,713.5757615642519 134.1271581913666,713.4646817038974 138.20592397182924,711.5407661991721 141.04565065327486,709.4399297029726 142.97896021745024,704.7971400081603 145.51388570578615,704.032992682528 146.950759189805,706.016726736599 147.40797437870236,709.5467819795535 148.609783518375,712.3532085974343 152.09568817081433,712.6205682134414 154.5281630150079,714.0747016555392 155.98560178997784,713.4390340468746 157.0294934874326,710.6605125866292 160.19908168489414,708.7821458993728 160.16494207477675,707.4780189854133 158.83856823695416,706.2543213435234 161.884962502095,703.1959788160317 160.5705603108295,700.88321914841 159.5812913476857,697.9218754969745 161.55237408720686,695.3019489366336 164.83650769689785,693.3310534387409 167.1350199442097,693.3372984217423 173.366983043583,696.9645400214569 176.6452108810202,698.2890739061943 178.61014245008482,697.6301815530762 180.91636610949467,695.9932874325766 185.14397853015709,695.3402527003568 185.7648899228555,696.2807052658245 189.7413755075251,699.5826595883561 190.7145320847575,698.4572879620221 190.77484119160403,695.386141072942 191.5561230779868,693.5846123318029 193.9900058149858,691.0636337412718 195.73794657986164,687.2740778425946 195.2751451338396,684.5767314048434 196.13510160679536,683.8937825379296 198.72520463964463,684.9856190896005 201.3948118667448,687.2679933834308 202.78068356641728,689.4049202629516 202.16343758973034,693.0537205793124 205.81075130767002,697.5992538284138 208.91668291332323,698.4203542691928 211.38955948400923,700.5499250148549 214.43723487223366,700.5812589775044 214.60917214150305,697.0164950219744 215.357554385345,695.6357671316359 217.19314627487879,694.3504640102713 221.55107845780537,694.556590145155 224.66753226543133,696.9078427790896 226.73769899020172,699.9841220529825 227.38356774577613,701.9614514030618 228.43196520308243,702.8168536116611 234.95999639876283,699.7218452999825 241.16547040570023,701.5986997583717 243.50301890537625,704.550310646385 245.61711876612455,709.9067018468311 247.88805051653966,712.2526183643386 249.24186629024533,714.6874785134657 250.59894785157496,714.9755903368775 252.8835170960514,712.9355821976753 256.1213041499828,712.0909276203712 261.7908400270069,708.7224438585733 265.27608938243543,707.6183975178092 265.8494920784742,706.8235729442574 261.2805529366353,702.2768321809879 261.0023724088344,699.5777817909436 264.53641183613854,695.4856461160723 268.044713282694,695.1620929759612 271.35067609457775,696.4623734206117 273.33116003510276,696.7867130433531 274.9754514453059,693.8168235847653 273.32784344928893,691.5187185085936 269.03855345560765,688.5731916432043 263.10204421848925,686.9530685557058 260.4621307935505,685.3092568419407 260.7928100422107,683.0069695506747 262.11502675178457,681.0364749527898 264.42805654705944,680.6910053437518 271.67796495017194,685.2779277931149 273.9876979359166,685.5997991446252 275.3073716556775,684.6042968735806 275.642422174169,679.3455391131083 277.6240066106596,678.6736056283739 281.2386686481546,679.6524132615152 284.5449180872634,680.9619589675531 288.16759750397046,680.6163506366081 289.82078693658735,681.2706741743266 290.80654825716715,683.2449673888166 290.48200431220897,688.5043987974905 291.466450229336,691.4643730034716 296.2499110597966,695.9561152961373 297.81130392308796,699.6714475148186 299.5534856221092,701.4244660405641 301.68960150452403,702.3012825680829 303.33437408572314,700.655494341223 305.6355775323952,696.376046339351 308.27278035204125,696.3651829651164 309.2667331543978,697.0249621059455 309.19418891978626,700.2502816418801 310.02521048241147,706.2206806922453 310.7796555284695,706.933382912898 311.13806830622167,709.4471280172259 312.8816635090204,710.1827674925125 317.4921969689576,703.9224697588716 324.73171686620407,699.9727469409829 331.83915071034767,696.3100982514682 334.14030078483114,696.5995923521205 336.704810067827,692.0912211642371 341.2293547527798,687.5462785556031 343.77482254717313,686.149390580028 346.8368840796762,683.7106956821807 348.5891943425231,683.3674927692698 352.48525529389957,684.7931006667433 356.21332050107833,685.326521989783 358.8787306604017,684.4510970143663 359.76644097566435,684.0946951449607 359.97609000044895,682.4912866867728 362.6836230999425,681.3902142658285 366.7814152179922,681.3963666645883 370.84222228652874,682.2338862700391 371.86555406111967,684.1755451751035 374.25824605501725,684.7098621477228 375.76241029509646,683.5055477470567 378.33966792023244,684.8693974897956 382.6482894470892,684.4513977878125 388.14358435339443,691.3037468438622 387.35693575167176,692.0804342984957 384.0751894831673,692.7357464936183 382.10761780679314,697.0048732392272 382.10470178087206,698.647777248869 384.07325913302896,701.619100581762 389.6564632416088,705.2463749024371 393.4825783243658,706.5889013184644 395.5439466776618,708.8502832184788 401.3172721129297,711.6543148752766 401.81561127612355,714.5363494789337 401.5523153845294,716.0075028181792 399.87589709779485,717.8814487151835 400.40068793781086,719.7873347868683 403.95923632436313,724.9431882593167 405.0288878589402,727.9025235814688 407.9239848774805,729.6540643323667 410.55055709524794,729.3219302476859 411.8626252005042,728.4983556098605 413.3008349684567,724.9408937206616 415.80506042906944,723.9211185542537 417.1271459523048,724.2689929961758 418.4088737233758,726.9179407324889 420.3085634560712,726.0888193045992 422.68699566581756,727.8131918317383 424.10732489781276,728.180340312929 426.0955377091674,727.2370261194449 428.4177467651257,724.8322158930009 436.39916706598694,723.3501749557944 439.22618157081644,725.3572041520374 445.00516829815143,726.5761571378334 446.5108406550398,727.4251696759478 447.719098455128,731.6564710420978 449.1647703138453,735.588318775237 450.59502923729235,736.9001038360427 453.0796829784262,741.2434668084102 456.3143032873873,742.9076286118712 458.91228546780957,745.143371711491 461.20816445988686,745.5420033111711 460.29845771824495,748.2842672943 462.30440582488416,750.135532864758 461.810914340462,751.6202850389705 459.52496803250193,754.9820020825425 461.61680521574306,757.3567602829733 465.74218480649006,760.6260867250998 466.92239006018764,760.984397209626 467.31012451695364,758.6477556564749 468.78472061355046,757.1533700007674 470.12955480347034,756.9961890608843 471.2093211047984,757.9615461034225 472.3119237772427,760.3352851919702 472.8528720405826,762.77606715689 472.027397052944,764.0998527744398 469.5534514619021,762.7881625006642 468.2381295166227,763.2841022211895 467.41569023865065,764.9265777610559 467.40927080800344,766.9616673438126 469.1173554392281,769.278475164454 467.2060825133681,775.4133554168948 465.07117556190843,776.9042968285187 463.74539140895445,775.4267615009668 457.98394718345713,776.41789497951 456.33955530689667,777.9038655916098 457.8202232180044,783.4919273353539 459.6310821054498,788.0910216856954 460.4492972698383,788.7514153668913 464.57120182918777,789.7293001491284 465.72104622924155,790.5507148124557 468.19351557412307,794.3309039362875 468.28949283953136,797.7336596078491 463.3286102636239,805.113560100448 459.7096530185081,811.0414706946525 459.2130569331512,813.1853269019971 460.0409298556405,814.822884973949 465.4722196466107,819.0897145252607 469.8866314270451,821.5052466311199 470.62033975783476,823.5141077893325 469.3913410649293,825.6658352819649 469.88579623188787,826.9360812932757 477.95173214347534,832.9980384350266 477.2557299030934,842.9947009993119 472.8105779038575,847.6064109349651 475.07149969966144,855.1260182030378 473.92118443711905,860.7762327259356 471.63457855626615,863.4435986509047 469.20125944075187,863.8992936853784 468.80853728417003,866.6508987932432 467.9824702245614,868.964232005281 466.34039150108373,869.9475680236576 464.8577187297967,871.7632179401506 464.98081073676923,874.3448594730578 466.0273648441898,876.3729900973517 468.96868821613526,874.8828797378776 471.7745084314447,870.4301884968477 472.7636134010055,872.0772004678927 472.7622982479932,874.7019490518207 472.0595047164623,878.6092483225644 472.1996248608431,880.1519576623389 475.44906815362185,882.7449559880883 479.0424753143266,884.8710364978928 479.7205005031267,886.6251074301059 480.0774247043755,890.2347059501719 480.57589243617497,890.9504596333654 483.95373729659985,891.0814390785456 489.4637063357071,891.8711756148575 491.4998293556392,890.944991402648 498.54044658208886,886.6741733184826 502.27270315937625,891.8559852440465 508.94470263038323,889.1628532230618 508.0198147453672,880.8036930630544 512.965572224179,877.964085844505 515.0689127991868,877.5203174529724 520.2474511600687,875.6453072041245 523.9429854813573,872.8689640847266 525.8835416221194,870.543392766748 529.443231326156,867.6346553605158 533.6189089103359,864.7709905518475 544.6499542616375,864.2014070816547 553.9765812303145,864.51339050382 564.3581959659674,866.6241092431528 574.2602731070116,868.9345503742034 577.9184065880887,870.2119550883906 584.1356770720516,875.1966127168207 601.3535383852271,891.5775558049136 602.1449117304571,893.6384740297883 602.1692508230755,895.7898928191341 600.9380673891217,898.3057165554637 598.069042438911,898.9867866109439 595.3886522100768,900.5820804282706 594.3270835281573,903.0854072602955 594.8600265212683,906.7759684382327 596.9921376734728,908.9043631354372 601.0086505057728,910.8674499295248 605.4258261033636,913.5052928701749 606.252579004713,915.4937748797836 606.7109241371023,922.0588568754692 607.2082120600895,925.7196604884508 605.7813059341148,927.5386242354434 602.2819035387423,931.0390846226976 602.7163437945451,932.3316026246649 604.4768628268541,933.0946133665439 608.2481361386739,932.2794381454685 611.0994229769516,933.8337740867584 613.9871306392063,934.6865173109416 615.3866477853718,934.4027821287522 619.0171319243552,932.1773831444291 621.8344190354927,930.0331926151721 625.7973249130101,928.771813670596 629.1239133045242,928.1670085005594 633.0119026795379,926.6593486253388 635.8393264019944,924.6585400299962 637.4247593406195,921.9108614173057 639.5192772830393,916.0673407084947 640.6743210450197,915.4973317676233 641.7453544765274,916.1851756935308 646.163917494309,911.1997511057333 650.4219846084354,908.5745930815767 650.8207470275239,906.8095482464371 653.9876380673683,904.1454345638174 656.6375143287607,903.0742091640678 658.9456357795111,904.0658258972389 660.8990234610005,903.7851021496206 661.4252846320713,902.9342932721609 660.713482018247,900.2038449955938 660.4774404219074,895.4592457213719 661.6445728301094,892.9438325137689 663.7386122407505,891.0443662374414 665.3637709184511,890.2319751622616 670.7400205457791,889.3125264349273 673.47095394332,886.8904970214273 674.9074885525052,884.5666569975743 676.889999789877,877.2123271439814 676.7823913243276,874.2389125819176 677.3016670103063,872.1632057960642 678.3743334175913,870.8021376776251 679.9272449750072,867.0253796811113 680.0954635605082,865.4691664391921 679.4183381487425,859.0651481870775 679.4877806651662,854.5360503994734 678.3894205701635,850.9063847450813 676.718907031089,850.8240925965431 676.5031329474075,852.8954415617864 675.4234611781102,852.9806725726022 674.1606711825245,851.2049875257247 670.6929348883116,851.6898450364092 669.8182606613849,852.44155798834 669.4064679574253,855.2870912214155 667.808166205249,858.2498112701034 666.6122329864068,859.0675730885911 663.1854318259666,858.5120146012771 660.5196113365588,854.4578967888649 659.3189610311873,851.1074924508061 658.1685468446407,843.0738008602267 657.6694933747127,837.9971453448869 659.721164716961,827.4470188210873 660.6398302592894,825.2035770123596 664.1059448315252,822.455959497901 668.049582037421,820.8237859516529 669.1204436758902,823.7318051311262 672.532164337142,828.9889368056004 674.5803566726004,830.7851286596639 677.6209330135063,831.9308027781702 681.8334045800974,831.8481882088647 688.0683185886821,829.9602563252005 690.5066296622847,827.8821675372385 691.5444528331625,825.9045968003845 693.8732649520078,825.1344711985437 695.9570237564903,822.5676590554509 698.5761741371692,822.8739617517742 700.3121874275405,821.7824322536185 700.4858675298769,819.9903776021392 701.4612259816276,818.7329240601994 701.5376013427444,816.2939623561224 700.4710572172625,815.9577850686495 701.4573698364778,814.1967458005599 703.1680406204166,816.0469067453264 704.1880764853527,815.540416298496 704.6261997054575,812.7675756381334 708.4723943396774,812.0301961035044 710.9883468720551,807.7186297743563 710.4290174844092,806.5329114132961 708.6454839059335,807.3784805198504 708.0750221740526,806.7271070028671 707.7558717297329,803.3471216143239 709.4822785059584,802.9546740495205 709.581701907757,801.6473264516219 710.7952166121635,801.6528579343843 715.8125745077949,796.1995650133733 714.9612186686089,795.2329977139941 710.9260264638265,795.8088249465151 710.272059855805,794.1824026920875 711.89070489186,791.6831825454657 713.2338739614185,791.3164653666929 716.8728091490126,794.6533928749486 717.723989301218,794.9508557545948 719.6451136851472,793.7641679899579 722.3293265398265,790.8189472709121 722.1168653595062,788.8988600527407 724.2398205870135,788.8198055054643 724.953092797477,788.0701546652108 724.7785476252434,784.2267536431009 728.2912027133405,780.5615693865051 731.1291661731374,779.9388292728743 732.7532416514399,777.1922307576962 733.1430043062642,774.9356591014338 735.8463731535325,767.4047927916947 734.7395567454467,765.3215727371401 736.2472224171056,761.8889479011561 735.4445242503749,759.1955140983334 736.6996373200343,757.6268249592729 736.5966188789449,756.5590434946519 734.758948567177,756.5417929828004 732.3976385773079,757.3948675862711 730.2768652443375,756.1994698929013 728.1421816432118,756.0006504393779 724.5450030278791,756.4590148194368 722.1603044776415,754.8550247252606 715.7173647509381,755.3077436273066 711.8605379448582,754.997652364787 709.3505393864816,754.0423938874726 706.6057729872422,752.1040904455263 705.1948490042432,749.8600718706674 703.986704034426,746.0212716861741 703.67400167429,741.0607656980947 705.7389304593808,734.4464496674932 705.3352059648238,732.8181374276752 704.0425140484763,731.4367992603434 697.3896475117647,731.3461706402038 694.7111013685998,732.5000650361478 692.6293516632984,735.7426601027469 692.3649191812193,738.099547634738 693.5586126575141,740.8387998130581 692.7642903080166,742.9254084571661 691.2608692748039,743.9406725592314 687.4340048788596,744.5849232116675 684.5963156892424,744.4251888797246 679.4833725089366,742.032325686961 678.3166438321527,742.1593675079234 673.558204441139,745.3323320048756 671.7188874358017,745.879334950662 669.2285064531967,745.7246187840783 666.4248742956537,744.6800410059666 664.3009863565093,743.1125208755334 662.3592542583463,740.3512502533332 660.3974300612846,738.9256923205348 657.1018998438184,738.4831871334773 655.2146632944572,736.5427037716947 652.2458258478224,723.292277044707 652.1642711573098,720.9397649966611 653.1781369415771,716.293848321902 653.4499342171865,713.7223335736662 655.4746873814997,712.3623255821046 668.2962709336867,709.6580325694243 674.6253796870071,706.8160809074622 677.1166701117282,704.9672365744286 679.0547242500411,702.395211860533 681.1990625512612,698.5066271978769 681.9492612256722,697.9323031094175 682.5761724310004,697.4825870202503 684.8906796579281,697.9669864923533 685.8304758663243,698.9929140043405 685.5621148774427,702.4686892343904 683.6275896633362,707.4651115096483 684.2122838679312,710.7141899436459 687.652966599091,712.8493385387164 695.257313662794,714.2851727121084 703.3527186849881,715.0351708612204 704.2489241557637,716.1230070884457 704.8665540647404,718.417040418881 705.5690514257685,724.562831135835 707.2535002395429,726.6377051338377 709.382563990155,727.165737721421 711.0973195225881,726.69144454072 712.1433268244994,725.5068229881249 712.9128672664408,722.9384338091951 713.1059261872107,715.0652398109739 715.1412434624318,711.8023119474459 723.9437971795096,709.993734337243 735.8588494298431,704.9373428858448 736.5702233199709,704.7944550990694 743.8831393572926,699.68506711041 744.9644194321917,697.8421569354991 747.5073116135985,695.3735945946419 750.3755466746541,694.5655647981437 753.3303078424876,694.8751935293864 755.8116732201289,695.8280877216359 758.9911655912849,698.2820067361808 762.2734989923495,701.7512212777605 764.7734230466284,705.3447811424012 766.3483256108585,705.1382770376999 769.6928891219579,702.6071118885586 770.0459877248239,700.403752807197 771.4538277828069,699.0287429677921 770.3227498354502,697.7699556738812 765.4084148638448,696.2545114831212 766.6480229547731,694.9839891487707 766.8835725823741,691.2829004585752 768.0288277364299,690.9492314680908 772.4975884498821,691.2069115531239 778.5196726610417,687.0675639227622 780.1310791244177,684.9706897522174 782.5608811250275,683.4171318559991 789.3872981887804,682.7687457069358 793.2327982153771,683.7121658011372 798.2260247912311,684.5052502565743 801.1699606090692,685.3685090566114 803.4383191471353,688.2335094833213 807.8812426298346,690.4316093605723 816.3987435737274,692.0784115640845 822.5489335619565,693.9432579759186 825.9044022772498,692.9507712518197 828.5930223270379,690.8578185019722 832.9215429590834,690.0050144181921 834.4982193894173,691.780434908556 836.3057199424228,692.2783287510226 837.6139943903938,690.8727282173711 838.7241294621253,691.2260600058547 837.7794521556089,692.4935356795572 839.5869977548292,692.9501080578061 841.6439779369194,691.5644330264558 851.6260481362382,689.6323211531858 856.9123400633898,687.829243390476 858.5309466101542,686.9635191678667 859.7079475703944,685.1894882317443 859.550179006634,684.1644341475326 856.6958880325144,680.3337753022731 856.1984562514571,676.170697352162 853.7257476543471,674.070226373027 851.0998938055081,673.0916028209497 846.6573563719911,672.7658909093124 842.0339520793765,674.13712173721 839.4028535965705,675.8493444699634 836.6834670889086,676.3710497372191 834.3123890387269,675.7378821880355 833.2119979799406,674.7983456771422 830.4250783131414,670.5966282942605 828.586085110268,669.1536032119054 823.1310704305231,670.2894310875375 821.5004465774111,668.4124577927171 820.1139065648165,662.3938708913527 818.9455728283605,661.6915007234609 815.5948780884905,661.0304569003109 814.1950705569488,659.0682544809563 813.7781588532075,655.4185924296576 814.1869710175395,653.4616242827849 822.9463407604396,642.279044926476 825.9574296928342,639.7722006931334 827.8360726312841,639.1089132257748 830.2321358406845,639.1053831037875 845.2475373609822,645.5931487960838 852.9774531167209,649.0642839318781 851.6849233952088,650.2539111467939 852.5964818122485,651.6366227988494 856.1888038747118,650.5678755378942 862.1136650312865,648.1190657067418 867.9130210496611,646.8941620052694 871.1177018894656,646.722947757122 874.4119194810808,642.9776563908072 882.2091090991806,635.9825198540977 882.0039348045937,633.5627880257839 879.3457109276629,632.7192156337014 875.4828793262142,632.9516849299005 874.7340522198413,631.6898907839187 872.8196169884454,632.324067039013 869.1538403363957,635.0166762194547 867.4182062034141,635.7200933218987 866.7464236105146,634.8571784477354 866.8257804292414,632.3926402958319 868.2764887989268,629.9071464659461 866.2085085450971,628.028345245343 861.2904149982836,629.1374667723188 857.8748488284704,627.0118003433993 856.3668360271135,625.6064766924203 854.4844211322232,618.7259759644355 854.2130032194186,615.3944222843381 854.5614629281727,613.0287746341304 855.4835207750032,611.5681511142341 857.0695620102215,610.9902515822561 861.2609761831208,610.81593812157 865.7660615446473,608.9329630822388 867.4925577846353,606.4852625951738 867.9352380704091,604.5077304453321 867.250290402405,599.1203150483282 867.8459862180682,594.8729075810272 869.1198957745016,591.3448678826123 872.6169275355466,585.2390829791998 876.1778178214213,579.8504723114165 876.6308373899543,576.8380860875966 876.320153725706,574.493253910863 874.5140035365904,572.1812653655106 871.4477047265513,570.113955896501 866.2622054028809,569.7602481965723 863.3395845777087,570.7268698741074 861.1001123049175,572.1547455235009 859.5155832766559,574.558370029297 858.030213846736,578.2733751750512 856.8420516527202,579.7785889683705 852.0539208825229,579.8692304997533 850.4880632171185,582.3548701991131 849.6027521537693,586.3483397172272 847.8580405287299,591.2271818806651 844.4052611855085,593.7506638382009 841.8072321978887,594.5060808327257 838.3996188790614,594.6484661878719 835.9223019145503,593.8939651242117 831.1568687622125,590.6383332089862 829.3366734846385,590.3462836983899 829.7868482886007,580.7878205276174 827.1945445553494,578.1784332597219 820.1281641404262,575.1405499811585 814.3337431759587,573.2632867926224 811.2223931082251,571.0098069512371 804.4825170151962,564.5094866622638 798.4775489810552,557.0555143396358 795.3524534897648,554.3813313143914" /><polygon fill="black" points="515.0704926724798,930.8239681497232 509.8451036116535,933.7507676164531 504.6422153615164,934.493395378106 504.536301410825,936.3998707394684 506.1004959490554,940.8232422414311 505.406191961369,943.7148778215042 506.84276240840455,944.3902480491397 507.667137741344,946.3599608433258 506.9350327199486,948.1804861865576 503.68533249264215,950.3661296352637 502.7799895932044,951.889880225273 501.0138791064467,952.2885896454761 498.21165745517163,951.8120363079591 498.02645672205637,952.9986227033783 502.0778933269886,956.7700691784416 502.77025987432825,959.7917052304467 501.63063765799177,962.93517941086 497.89462946009655,966.589650182722 494.2909474420452,967.4392007574106 492.7257590917922,967.4135297164629 486.4058510500191,965.6832905891771 479.38029106280476,963.1354227522042 475.09701155533804,961.1887086522693 471.3193052444855,958.7832972993345 465.96941939395765,954.6419876114674 462.14658261824036,952.1548043852941 459.10012085128096,949.5265277901281 456.4208310225176,948.8307572328953 455.6656960714993,949.2908694396122 455.45219434119264,951.2813577467275 449.2043570794119,954.1732437928437 445.3692078773374,957.0217690816102 444.51133522185614,958.9357762578412 444.39398376575144,962.6558749586661 445.3190024922987,965.0277165310072 448.6351592697506,966.8305716140384 450.93175252827564,970.5384260835182 453.96548792152265,979.3098591335634 454.6556070991406,983.2808751592246 455.39997898137176,990.1273509528664 444.7525046363698,990.495849502393 442.35442220869555,991.2912018856055 443.470788839891,993.9806873604782 443.51639578012146,995.979814937362 442.70778459429556,996.5443439349627 438.7938182099879,996.9511569853765 437.76402511707465,997.7755634524841 437.5039330710838,999.5916306199706 438.907459301572,1001.4544800111191 444.9816512283247,1005.4082178777519 444.98660695219877,1006.902434426205 447.53876205704705,1009.1360082133881 448.21213476424896,1011.3360814402082 452.89880705949025,1012.1992040485758 459.7690469463469,1016.9383642683244 464.0989121735788,1017.9279745865426 466.24448171536613,1017.7425042770388 468.319773912754,1016.7944760402148 471.0546417147763,1014.6861052243603 472.3400354920277,1012.5288132350008 477.5870920999395,1000.2113935833481 478.6921906844481,997.9843847684728 482.2968598106485,994.331564330388 487.75165202740334,990.6596923079159 491.5411133983786,988.6128072508741 499.98067531402256,987.4566317757466 508.5359673786725,987.1545638818435 511.30106738013416,987.3327408199897 514.4280484410149,988.7952986676866 517.8446037791809,991.4297067432187 521.8008977512308,992.6158099099232 527.6200607103424,993.1639401053556 530.5454362103243,995.8238805424862 530.4279575719221,998.3091439146117 527.5244007304369,998.6383271877639 525.2633136667264,999.6611630840557 524.844180598383,1002.4388267178444 526.712499376066,1003.192596666543 532.2062145902438,1002.4556400954394 536.1679305842722,999.8367450777952 537.5267192614983,999.7197886672359 542.8500885944802,997.3448625697993 544.698982186029,994.542188376555 543.8787043494335,992.2317101120321 545.7025802546405,990.480497517738 547.0432362108488,991.2707952978346 549.2199407737462,989.9071995373552 549.9512909837629,988.0031609000861 547.4382453569993,982.9490359520512 549.0300882454543,982.1178903295945 549.8688306370149,980.2329980180151 551.1996173356572,980.1056206674017 552.7574691336199,981.0990467278331 554.2376007839306,980.7016566081065 555.2781011725784,978.4748252808458 555.6446693275996,975.9357503760909 555.3270467077442,973.8576038975729 553.8605922199367,972.9974433504158 551.5252078735333,972.8573734375342 549.7591900510901,970.753374603653 548.3906132449966,966.5125392633051 548.1576371264235,962.2282285209857 548.5454255492996,959.1947589558456 549.85369061789,956.9245517133143 551.8326027923168,954.6884115349613 551.698846530941,953.8860206594748 549.3676269490765,953.241203363662 547.0088891035081,954.2350065060253 545.512809967606,953.931420781113 543.4735580548288,950.4091341205014 542.7920788732771,945.1516205924859 542.3357205809184,944.2505112502008 540.1994546061875,943.4279740844098 539.5244743213929,940.416856912744 540.5078275018827,937.0485612250231 538.7399977852297,935.5321989638189 530.6818190223341,934.9881457740763 529.5859588595486,934.4850654748 528.2792428342982,932.5932114046334 527.149178107751,928.7318841334513 525.8173797286107,926.1398737474069 526.7835901056106,925.3574666072049 525.0752575368388,925.2004072132911 523.6962516146122,924.1123911414273 521.206501889866,923.5509555174045 519.4202745032838,924.5479237289051 518.5575700484511,925.7926072164935 516.882366234448,924.5432311630084 516.2298993280634,922.7577342256268 514.6065986479866,923.9381663123809 515.5337241420032,926.3492395254893 515.0704926724798,930.8239681497232" /><polygon fill="black" points="406.668172629277,1005.8492916886639 408.35335925095063,1005.2158178023985 411.3144684246559,1001.2833538216915 413.9617474311912,1000.2805276842896 416.44359552349624,1001.8146576654624 418.98687933303876,1000.1836233004868 420.3342643442689,997.8728214514797 419.5623847051002,996.5504925155523 419.9977828649746,995.2578317306236 422.78632241361333,993.0785858647396 424.21604112730705,992.9936026849758 425.5138565462877,995.0736081845183 428.6154575444207,994.9013126383853 430.2839339809312,992.484632404292 430.6234366135919,990.4924547028708 430.460103967599,987.3195627139132 432.06307190402435,983.6670545425234 432.24875175443276,979.5536835172534 429.0341455940301,978.1196948704633 426.14711504470415,976.260437382007 421.5002004000369,972.583127430371 418.9420892733987,972.4721222122517 417.3600325681354,973.4963208940594 416.0976277906397,975.2905842644461 411.1184313957932,975.3968001434248 408.48367454339433,976.7083957289467 407.17146085307917,979.9350102179106 406.40430728384433,987.1970081346273 405.74460663327824,988.4189315768328 402.30186674214036,988.4081731171161 400.72270247568946,989.8855683173488 400.53913821767526,992.3808329628376 401.2523489141313,994.1574079613374 401.3067463414136,996.2493661758951 400.3944876517519,998.2771883774456 397.6713524268445,999.7959875221522 397.3890966446982,1001.3031530575471 399.17574025625174,1003.0808016132244 402.21287360136796,1003.6522790753385 406.668172629277,1005.8492916886639" /><polygon fill="black" points="367.6462852040099,1011.2789148830037 366.50048990395794,1013.3089247604447 368.70201562265567,1015.5785142168636 368.0372137748317,1017.3571006707999 369.62911892700095,1017.3338941021335 372.06778527933756,1019.0555643943352 374.33620248704153,1018.5723373453494 375.3765236802298,1016.7695639690529 374.1251007451687,1015.8730604510604 372.4391988169459,1016.4030669924507 370.0338243091571,1015.4233158417578 369.6779135420066,1013.5191443198472 370.2887037425313,1011.7409955220313 367.6462852040099,1011.2789148830037" /><polygon fill="black" points="364.33617306224306,1019.7802455612222 363.41036244596944,1020.3239966491853 363.36118166925826,1021.9017082219563 364.49657124712064,1021.830052803252 366.00908235581653,1022.9823795732906 367.81352123745404,1022.6275735554575 369.2796899495261,1021.4705589408243 366.38892170149956,1021.3096122972568 364.33617306224306,1019.7802455612222" /><polygon fill="black" points="863.1188932544044,489.3904083131822 863.058811503209,487.1164570176561 863.6715019871889,485.8880530305888 861.0093263686047,486.8496660937991 859.9762994971038,488.5046835411122 859.3463805943301,491.58840614145026 858.193064297122,491.20607746748556 856.8789408560826,493.1212441794786 857.2634829386964,496.27241401301285 858.4149095543187,496.5631149822485 858.9067738392107,493.7270136655045 860.7342307000542,492.23440034780276 861.3325762477225,490.6369170821723 863.1188932544044,489.3904083131822" /><polygon fill="black" points="885.9230282796321,631.7484404702964 886.815602304563,630.6879727469338 885.9241408465299,630.0747160701922 882.7531458476328,633.0486679489954 884.4442620743456,633.5262040210187 885.9230282796321,631.7484404702964" /><polygon fill="black" points="878.8412909467478,588.8811089201231 879.3866635064808,589.6423450334398 881.4123187342677,589.9707958044037 883.8781527005178,587.553464462511 883.8108863946294,586.6514797033085 881.9520823310755,586.782235514116 880.6879428349839,584.4000003716133 881.0932755836416,582.9474201456366 878.7127995774958,582.695669940679 877.9873010101807,581.8140255733001 877.0109106147485,583.7780340974075 878.1677689992526,584.9406913538995 878.8412909467478,588.8811089201231" /><polygon fill="black" points="829.0023633760464,577.6292885215978 831.3450748688877,578.3544683830737 832.1127294049202,576.035281453269 831.2951953472349,575.5134134896707 828.623778798554,576.0652118054968 829.0023633760464,577.6292885215978" /><polygon fill="black" points="544.7213054958916,998.3659178950913 546.5416420860645,998.8212724604302 545.0610873913157,997.5068206017465 544.7213054958916,998.3659178950913" /><polygon fill="black" points="839.1357551261111,672.7718087788655 840.7033013251962,673.3038063487695 839.6737574858362,671.1513364793514 838.1986041548097,672.0558837877978 839.1357551261111,672.7718087788655" /><polygon fill="black" points="541.565307225613,899.2639383379991 543.4229141021017,899.2030347377761 543.2552128445824,897.6704830847436 541.4459640420288,898.1118370797094 541.565307225613,899.2639383379991" /><polygon fill="black" points="727.0285312459479,721.7082252313388 730.3273748347474,721.6751487507839 730.9759006670646,720.8240966182993 729.4321587350834,717.98773315944 727.8560294455275,718.1214966677126 726.3431636083255,719.7235571863782 724.3787395014106,720.8790368697792 724.5243537988079,722.4805097881789 727.0285312459479,721.7082252313388" /><polygon fill="black" points="848.8930879102362,478.55431892606475 850.020239959392,480.24939447747624 849.8831500923806,477.5771587657896 848.8930879102362,478.55431892606475" /><polygon fill="black" points="386.84212657702767,1011.3726645784219 388.5779742545448,1011.4401304526099 387.84737499930844,1009.7146601219229 386.0818916160748,1010.3071645787655 386.84212657702767,1011.3726645784219" /><polygon fill="black" points="738.7517957438782,708.0229951519932 739.2491327144286,706.5472888923099 738.0382166210965,706.635218156774 738.7517957438782,708.0229951519932" /><polygon fill="black" points="886.0552192394666,560.7547643529155 887.3146803405521,560.4692190652877 889.4153918083167,558.1186861969541 889.8367501969271,555.3842867056126 889.2169801685094,554.4297695137896 886.9396192244802,555.0692958595241 885.0907379006303,556.9942582257847 884.8657774818531,558.0132873394291 886.0552192394666,560.7547643529155" /><polygon fill="black" points="689.4353206512391,829.3357511144912 690.4537796786095,830.125705951765 691.5220047283735,829.1454701424191 690.5649868286748,828.2932255548889 689.4353206512391,829.3357511144912" /><polygon fill="black" points="359.41832609775366,1023.2539395297283 357.6986505881379,1022.990031364673 358.95032582774706,1024.0 359.41832609775366,1023.2539395297283" /><polygon fill="black" points="531.1612085442476,926.9705988118748 531.8799251504436,927.3231126982847 533.8450611448493,926.3757100038806 533.5837802800141,925.3278603095208 531.1612085442476,926.9705988118748" /><polygon fill="black" points="662.4009352123985,851.975693705284 661.1201551850156,852.4029266874975 662.5820450675491,853.6926050397517 662.4009352123985,851.975693705284" /><polygon fill="black" points="386.256461128932,989.1458774342258 387.9632742668427,989.9970151000697 388.2654344688146,988.7678732228026 386.256461128932,989.1458774342258" /><polygon fill="black" points="762.8772699943586,703.5619343791848 761.7064657431024,704.6769439681847 763.0817491379738,704.8640530863047 762.8772699943586,703.5619343791848" /><polygon fill="black" points="767.902336701541,713.2549187842473 766.9473748635553,714.5215988812669 768.316038177145,714.2045824329318 767.902336701541,713.2549187842473" /><polygon fill="black" points="763.7888483241666,718.3143724266647 762.647323970967,718.9562735008753 763.8419487126657,719.5982264089361 763.7888483241666,718.3143724266647" /><polygon fill="black" points="408.41081653807566,1006.689244921623 409.7494066326917,1006.3062267668563 408.28474096255763,1005.5875305926871 408.41081653807566,1006.689244921623" /><polygon fill="black" points="852.4021932680009,483.19627875151025 851.3527137162547,484.38977557007183 850.8686916837919,487.12289818199304 851.9702877279491,487.07587564015193 852.4021932680009,483.19627875151025" /><polygon fill="black" points="727.8890922088713,722.7347493673133 728.3795168068799,724.1052130511596 730.9132665720778,722.8492552691155 730.0344785208002,721.80270169137 727.8890922088713,722.7347493673133" /><polygon fill="black" points="840.0587865827149,543.3960125591732 838.5848934119261,543.6020959990515 839.9044034778944,544.4236705818021 840.0587865827149,543.3960125591732" /><polygon fill="black" points="875.2313419712203,557.0606253146287 877.23380369868,557.6874036259262 877.7858036773185,556.4788380452253 876.4644564951222,555.6166112973867 875.0099475561742,555.9356874006635 875.2313419712203,557.0606253146287" /><polygon fill="black" points="873.0435307192403,589.9630880569554 873.9835492341145,589.1076312430139 872.1632332642396,588.2213133827235 873.0435307192403,589.9630880569554" /><polygon fill="black" points="684.6517282739005,726.6553267726013 686.3802864893607,726.5617576278962 686.2451795556682,725.7418245408542 684.6517282739005,726.6553267726013" /><polygon fill="black" points="530.4199110538959,912.4469173930053 532.1480113147668,912.8000157768323 531.995451889004,911.8950309479411 530.4199110538959,912.4469173930053" /><polygon fill="black" points="497.1872046372365,963.8456628870792 497.9919929413071,964.7029284892113 499.64436199194313,962.7908178994375 498.61176227851956,962.3370862157084 497.1872046372365,963.8456628870792" /><polygon fill="black" points="493.0423291728762,966.8337307251504 494.6461305308132,967.1882466065267 496.0671763816296,966.2780102798883 495.7488619636494,964.8182763471009 493.41844394912584,966.0366839445873 493.0423291728762,966.8337307251504" /><polygon fill="black" points="432.8529984291248,973.3348025886588 431.230968474886,973.9060625633252 433.07082216097774,974.6719370768075 432.8529984291248,973.3348025886588" /><polygon fill="black" points="547.2631237594577,919.2211233618098 548.2723853726707,920.0338469913654 549.0099522955886,918.780335346968 547.2631237594577,919.2211233618098" /><polygon fill="black" points="855.3786729836228,689.032872366694 853.9387394182777,690.5232079847073 856.2178278463272,690.3360902696413 855.3786729836228,689.032872366694" /><polygon fill="black" points="795.0128363161494,688.042250688464 796.1315840882003,689.6400471624607 797.227942851603,689.0185447052304 795.0128363161494,688.042250688464" /><polygon fill="black" points="851.0207218416133,650.5202731926047 849.3228116854045,650.7709071722834 849.062721437584,651.8937243307412 851.1138989734303,651.9974281620631 851.0207218416133,650.5202731926047" /><circle cx="618.0131147570548" cy="671.4464361583358" fill="rgb(100%,100%,100%)" r="16" stroke="grey" stroke-width="8" /></svg>