<?xml version="1.0" encoding="utf-8" ?>
<svg baseProfile="full" height="1024" version="1.1" width="1024" xmlns="http://www.w3.org/2000/svg" xmlns:ev="http://www.w3.org/2001/xml-events" xmlns:xlink="http://www.w3.org/1999/xlink"><defs /><polygon fill="black" points="130.47189909801614,644.0663133083169 131.58774661377834,643.2898683080502 138.44009414685019,643.3064610714188 143.58854476875584,646.3661130689154 152.29360689056273,649.3014122683851 154.7009110557162,651.99312997855 158.04293920940978,654.5385682556835 164.5082615507797,657.1434900633207 166.59374264918327,658.4496478340491 168.55834336143266,656.8548646676369 171.8998659549166,658.5802787288251 174.31574285130395,658.7709385303698 177.63099503903393,657.2297650088232 180.45800536675677,652.8331253757381 182.59642951099332,651.2321568297743 185.31692011569487,650.6607999850279 186.59065385556298,649.503153707094 186.28943107407778,648.0395922906221 177.68066718159085,647.4894174252511 170.84739785268295,641.9812325227199 171.2711785571261,640.7371989751789 174.4009807425642,638.5375555600621 172.88449441546118,635.8722052002573 172.6427510917245,630.9477615286451 172.93715494787196,627.5456099159281 174.46201169998642,627.6877665574739 175.94657895947242,630.5016470847638 178.10121798400792,632.9164140458566 184.28475696912042,635.860113704801 186.27049670624402,636.0553917546263 189.0401352807049,638.5073588068035 190.58643309939592,638.5407437456631 194.06513158300538,635.1967343230474 196.23868866228642,635.9479779977294 200.60840672195306,632.7323101175816 204.9722077278977,626.2967475073099 204.9722470866832,619.8524780262373 201.39917753284152,614.19604114566 199.68808776596828,606.0466933924658 200.61020760110983,602.3697570078418 204.514606531854,602.1396157030559 207.73281092774673,604.6763835470109 221.98418956473122,615.2687794640536 228.1976812946279,618.4931104881541 230.03382052213544,622.8570044458235 229.11972539883917,625.853698188663 222.65342528468926,629.8681766655016 218.33409770399962,631.3045339559036 216.56404447283612,633.0492705045984 215.43251050979651,639.9436629300249 213.9544277027568,642.95805165307 208.53461390474382,647.6625386812289 202.88328487359266,650.0299527625958 200.7890147178581,654.1308933536982 202.55330951882507,658.4718476260534 201.4279615249002,662.0520570174484 197.64612673491547,663.0344695646004 197.02868271371793,664.2539729140774 191.95630409000137,668.009274604345 187.0909254389911,673.2829790581305 183.44005798145105,673.5861344182701 174.56209360482012,675.8843516164449 170.02355421438824,676.7391794350052 165.59231631918786,678.1426823846045 163.14713395913282,683.1630805204613 159.413021734587,686.2074636978188 156.78046103151001,686.1998816161317 154.39980641937748,682.8921164771727 153.34256738622958,678.5267140950102 153.87914507802947,672.8362067967873 157.8296058473554,670.5997512822844 158.0980313956628,668.6190771169346 155.18887221025287,664.9050092913224 144.51619342690225,660.2277609500679 142.00865800529442,658.1287604234599 134.62011918900419,652.9506387326155 131.1195707105582,649.2229155538271 130.60670325757658,651.0598479315317 130.85883588172976,654.8685590507506 129.75994834433976,659.5198434387622 130.22969903237788,663.2830348331005 129.51026496537992,667.8138160488768 126.65988322179663,671.6170711917008 114.54420600512591,677.2980737675649 107.42005292780114,680.1290478515743 106.7053305208708,683.465402861482 107.66271235351181,686.5634991984294 109.5597860162071,688.2427648252951 115.97504809867914,690.8808005783353 123.10464851203623,692.8143910065497 138.68017684984292,691.9086145228189 146.06741598614903,695.5958387487235 158.09781684498552,697.4048008322588 167.80444186956092,701.6490704845652 178.79618489664276,709.2839325660975 190.08418321881337,718.022926304103 196.68716937309844,725.0213724590449 204.1060896364184,730.5988979612969 212.0429508242861,733.993214883414 219.006073192677,737.2899612324787 223.62320737221148,731.2377601415612 230.332632278257,733.546640447229 233.03738217488765,733.5843406979122 237.14027662091016,732.2844449562828 242.51637305521965,732.7803120888012 246.94492012277055,738.2769045362879 250.5875458569054,738.8320813117789 251.98861166447233,738.2773478441205 252.82265979196342,736.0353733194663 252.26279039030396,731.8394157901791 248.905838708196,727.645044273986 248.90609013041015,724.8480566607469 253.3902892714896,719.5269916839064 258.99088123248185,715.3290379363912 263.7523636376749,714.7705800772949 270.47206557819413,715.0384179026065 278.8769740091535,718.6686076943328 283.45324060207736,721.0390992055065 285.24909250986434,718.9097527953548 291.1179687523827,713.3448654455449 296.05179341380995,711.0295108683254 299.8053064101716,709.7645712421374 306.17145553220246,708.6360857154971 313.3885562885908,705.3438009800483 319.16023288252916,701.2403627207884 321.2836823559374,696.1987222232007 320.99545464807915,688.4596807708024 315.4361129414183,682.2757706829907 307.28513461751874,675.9473860118762 300.7456802513457,667.509588273968 297.0550320836126,661.0566994540405 294.7691636229465,655.4063947819849 295.10763995471757,649.5438863318864 298.58441518480316,640.5335791449317 302.3171990864395,633.3719050749303 305.70591379321405,625.8302785460244 308.4348266892659,616.7830620961272 316.0649514808278,606.1561783413451 322.7790725760737,598.7838349620062 333.7387747175912,594.5873039202463 358.95500592022336,593.3652505936506 372.63652586429413,593.366702993749 397.9920303535946,602.4574033091919 410.88862375322657,609.4122388379158 420.51565186063294,615.4609823457304 429.5080052224242,619.6345639387225 438.2180119298404,622.3144029068643 445.35296576265523,626.7585756188864 451.0159187858106,631.1175748606315 454.66662692922023,631.692872123181 459.19299570064345,629.7295455796344 462.4363683171512,624.7630447687245 468.7805843325934,617.0217961350471 474.17376985900165,610.084413586584 474.65841116659897,605.44958001959 479.6785123394392,600.9290616946321 486.1312981706222,593.3932382093807 488.3553035063262,591.1893338345682 489.70393033723116,588.264576940088 492.86204650838897,585.735000761315 494.5920271871871,585.7355795118788 497.7092285787736,588.5222378588089 498.40503793798666,594.947037300225 501.0092351188445,596.8546129429444 514.0131740683195,595.83842406735 515.057664484234,594.7933069208285 514.5386712371229,589.0570715238409 516.0940336709469,583.6750733718093 523.8985359724658,581.4306502229675 526.3252568971825,581.4374956170097 528.7522698668288,582.4833105711157 535.3356771476444,589.0960247162014 538.8029001248574,591.7059225602977 541.5762188020939,592.9260888873471 544.3522186147708,592.9359444788321 551.4612096929163,589.3006787127562 553.0163209428932,591.737270463758 549.8959792914455,596.9401242156255 550.2420591013935,601.4563054893459 555.0996149461863,606.6722329647542 555.4476720899679,612.2354057905235 556.6586965725484,618.6582289591902 558.2603069807112,622.6336545785892 558.522328887182,629.7504921052525 562.9509988803903,634.8293223340538 564.9098763121813,637.964282026729 568.7583655098928,640.5226098987895 576.2704255374631,646.722726391642 583.1245753846639,651.0354866258677 584.9912239005204,654.2542128818602 584.3018015077273,655.6231217864646 578.7604131952899,658.9714404282272 576.7205331595139,661.3589973001017 575.4668748671119,666.2687086547186 575.342326568894,674.4081063247567 577.0583807359349,676.0246387490218 584.633086707852,679.0006992508347 585.0198809805001,680.417789027578 582.5829303044247,687.0985934766707 582.7023370164379,688.5148606960227 584.7565646075523,689.1658435032623 589.1205719481611,686.8536526191878 591.9494787680651,686.730326559966 593.6129527651566,687.5105554487812 596.0535633446422,690.5966317812168 598.3680426324272,691.8901533096691 601.831270732552,691.8988423505668 604.2738030536119,692.5450800838476 606.4555417642373,696.150572181604 610.0442711671842,696.9254428673491 615.9559279906017,696.9380868961567 618.3944627401959,695.779913797672 618.6461691555272,693.985971220529 617.6218283383571,690.5077839949608 617.7556865928661,688.0628403671642 625.5837475727428,685.7581356129239 632.9064006985136,681.3995455464387 636.8925206584267,680.1154816750471 640.2331898744625,677.6762561350708 643.0630483531796,677.4192851553037 648.1746258712469,680.90899231674 652.3762577908604,683.093939375743 657.192502535269,684.2067378404857 659.5573012273998,683.2106824519699 663.3915539466449,682.8452258841946 666.5031862707596,685.5919268480905 669.2456609106717,691.9901412817524 672.5281377540794,697.472449804494 676.0051102682053,700.5806949226187 678.5661912113691,701.8608766303358 682.4015159688147,702.588395033795 690.9975780426112,702.5830654775896 696.8474468627207,695.4528165163404 701.6055706136508,691.2427370087645 706.3643851982209,690.6888641599077 708.5591672892671,691.5973546403939 711.1361058799952,704.3856218806388 710.2478503826076,710.1924171212547 708.0000877983498,715.5731953959497 707.2207651511264,719.1765408508519 710.664660411118,725.3237843731863 715.5979378396747,729.6392232201877 726.9675062111072,737.6177741970581 729.8251175385788,742.7928559603431 735.3347543939393,738.3447821751253 741.2446001597913,736.0865547312467 747.1436504617948,735.307210091432 754.883545644567,733.7758553706138 763.3916664164306,735.9162485961276 769.0041067944928,736.249653886693 772.1018079092922,737.0957754011795 773.6495295993482,738.4672859398346 774.8591872176171,743.4474940396132 776.9286286165359,743.6049404618728 782.9493292560684,742.9022538587278 789.3318932685874,744.430560344596 791.3923389426467,746.9953760663142 795.0175515926162,749.9071075409845 800.7009322038325,752.9758465195634 803.4596638241311,756.7498084129518 803.2889127051325,760.1789708142041 803.8048382851831,762.2384438079345 807.7611731209101,764.8019265002476 809.8308071709755,764.9669965670687 813.2833030148104,763.9230337229011 816.5522181857486,763.9180919637245 818.1004488725383,765.1099180299904 817.4198628935482,767.0031612971549 814.8302447503024,770.4455084777411 810.0089690448448,772.3464372769298 809.8375581331924,774.5878050526585 812.7654220473132,776.2915006655669 814.4515782333758,778.2512067792351 823.0173805772357,777.3716879859468 824.837909380756,777.9652642806407 828.5182159635459,780.4076784275888 832.444269681859,781.7665751441862 836.1524353269283,780.7881747919174 838.6666925382549,776.2580325641891 837.2978361249191,774.3394098778716 838.4321463104814,772.1438290712919 843.3082019990155,769.8055708902048 843.4037957982365,766.7039887081061 848.3685340587219,760.6220570034459 860.1602579687308,750.4184315138125 862.7794692252932,745.5686217716741 864.0787406858316,741.8357912754794 865.1515478191336,736.6621494683135 867.4556203629752,728.7412163503491 869.3795747956939,725.0834778832354 870.816685444928,724.6012165001682 879.9360436599474,727.389064178252 882.4791999196468,727.2431024868301 886.2463771749824,724.9035186391299 888.1396728146392,725.136847333935 892.498418093065,727.371716401564 893.8407860804846,728.8127024645848 896.3960190059578,729.7615622714547 901.0112163952332,729.2079695719472 905.7029245993433,723.6876432993612 911.0042774980841,721.6789194885847 911.9700442688356,712.840115371582 911.6779218226629,709.5180007479422 910.339774194768,706.1178341677721 905.5752450596574,703.3873714854033 904.7080906636555,701.4585053747444 904.3229782339174,692.4001273301834 901.6228174025038,689.1307749804864 899.591601396363,689.3271667386697 898.631029533334,693.2804211180169 897.5786868174116,694.2651622811155 894.970867202039,693.6920924706521 885.7024071568613,689.1157557623026 883.3698486118959,685.9496968236581 881.18157629299,684.0733069898946 875.8988158912786,682.1513670892123 877.261891171749,672.4832241750888 878.4401882862883,668.2963720744692 880.0959382619696,664.6461348994341 883.4892512575343,661.585100928616 888.1800288312121,660.3072978330048 889.112868518939,657.3927862819419 888.4418528124199,655.4284562886603 886.1268036530183,652.6691375786604 880.5921696480899,647.6367003903323 878.7339724238661,645.5065927345888 880.05238196453,643.1264613607999 886.163075317077,645.0768910548101 890.160340065316,645.9821684199061 892.884340755607,646.103172103448 898.6233786737965,642.7326382381245 900.1160840223062,640.2592088258103 900.2185383062491,636.0979328601666 899.3042987988746,631.0535487112918 896.7447095215081,625.2318555386273 897.6195916813151,623.3173652326337 899.4312683375101,623.3691271670558 904.1945681577777,626.1606686984431 906.1889353962399,626.3865865353634 907.6231110172143,625.0076057626543 907.8525946144798,623.1027551907704 906.2048056442937,617.3518951538881 905.0893498350661,615.8357851692839 901.4034250620118,612.9273173483408 899.4385252248466,609.8905807063662 900.2533600934992,604.9933742056762 901.6186643402864,600.2634919430415 906.973138265822,586.4111732726594 905.1648358893619,581.8372750858529 901.7615880680023,579.4623165504829 900.0058758990842,577.3331496464634 897.0860853360227,572.1522705871687 896.6080605202466,570.3526528400126 896.3882816126325,563.933454630382 894.9837859285263,557.2717757673481 892.7471907117864,553.9751880737191 889.9078369646367,547.5221250302457 889.3439789058582,542.0223987516817 889.4930406878759,539.9392676361858 891.7999549904116,532.5639119901807 892.4086850042081,526.4021516335309 891.3824679405722,525.3412102673144 881.3597696256901,522.9325574862676 878.8927845718988,521.5325957343464 875.0738892577687,516.3749590415072 870.7682391421024,509.1389150383478 869.50637451393,505.46034138811035 869.8213250687548,502.92703603654894 875.0558466316166,494.1316009753194 876.4208519676298,488.28930169374894 877.8608121767909,477.6163092935836 879.2811779979774,464.36904881375307 889.8701100685985,439.6596334096566 892.1499994619994,435.7690210188816 895.0042437870733,433.00481542201913 900.8962831561983,430.3799031818699 907.9212655917013,432.1717642490975 913.4479979295564,431.76728657851214 921.9172108482114,430.60448045133154 926.3296579780206,427.2668384695963 937.7314290189191,419.47642713623173 943.6059649921175,416.13448308896346 946.9054602782537,410.9618818772808 949.1026746612322,408.3794645247454 950.1828564903154,403.2245884082823 950.1534071109623,395.87671042623344 949.7631552056893,391.8335094549751 946.0595462819548,386.3387280444829 939.3845689082457,377.1886966236376 931.9823117226803,369.88366610819975 921.2564795234584,364.0732749387752 915.687735597346,356.3902905835917 913.8195234390664,350.51920862196096 916.7293767716018,341.3086168004396 919.2802794135986,335.0424644710649 930.6700264284184,327.98251000063374 939.1454123100873,323.8800171188907 948.3448388947992,324.1957548890144 953.5104467976948,325.2699404710835 957.9267719390107,323.7805702935364 960.8543746450109,318.98289561056225 966.676619766774,302.40285831714493 971.7524475093262,288.4139131567967 977.6058887906655,277.3549559573659 982.3557740889961,273.2884643525291 985.4547954641747,271.4771211008297 990.967381863998,266.5736927175557 995.639562904131,264.9539611033532 1000.8668522507952,264.14153032201637 1005.409044555765,265.1459734822331 1009.7637115832958,261.9020972705638 1015.7231715453564,261.79538684698593 1020.7300876697507,263.4269111152157 1023.2088437816207,261.21374544220873 1024.0,258.94435028668283 1021.6494580766159,257.4701537938113 1014.6443367085099,258.26469763441366 1010.4046387065273,259.39641308059174 1001.984186836291,259.3163794113376 998.5167353676634,258.247211676676 998.0235622507809,257.1840821267227 1000.5031034119419,253.2183436584122 1002.8384092927078,251.03007768238706 1002.9788064356812,248.33368505976523 1000.1385215832007,245.34467474987503 992.3246706835736,238.93233934599516 986.8058534104529,235.98697176443397 982.2672701369119,228.8317307153294 979.0532082308617,226.68978542380376 974.5146670930617,226.95411330970273 971.9951147768861,229.23517126557 966.5106834027401,230.23382049412191 960.2006036811657,230.98311844794398 952.3729922824999,232.39210525641874 946.4564667590224,232.42817166704458 942.2077169150234,229.25680248227923 941.0167035091418,224.40892081174286 941.5481786414481,221.49124220187116 944.3321974977952,217.96545528260356 949.0244361196181,213.4399925701099 955.3864372664484,205.33568226892385 957.3229090737227,197.34696024578523 956.2633109364522,189.93078041258968 951.881056963988,182.7005423091415 946.6592297700257,177.2554794475269 939.2437663720613,171.3285623690699 933.4341960683402,169.54155268892464 926.6508024420214,165.48845984050968 922.2361256503283,158.6237807230658 918.0906190842414,147.36023304053822 915.6213999057616,138.76632587750908 912.0151722354827,130.47613787354396 907.6033146179402,123.62065491866372 897.8208471336396,113.89789480331024 893.6013780692313,109.98744221218737 884.5023497345459,107.30320626116384 877.4726553824371,101.03546545606855 872.7190258017001,93.79543727051941 869.5311156994359,93.96644164627605 864.4166611368905,105.84260891976612 854.1496456265264,123.69184666175943 849.1980566481342,132.62487544294038 846.1670241373587,140.1959290660934 843.3491740777425,144.09299445864076 838.3735296336818,146.78056623484406 834.3076529843926,146.92813016744026 827.3535666664078,145.455266562117 822.0658783895658,141.1457151018751 816.5095269967993,134.59744071480043 813.1337658485413,128.9003573727157 807.2113963904093,122.33444856945891 802.248598724223,118.39985987339537 796.1341437242037,115.50125688249443 791.4060518784993,114.14567332598767 775.8266061178914,114.80705728143425 763.8590430869089,117.11531356609044 753.1141132749102,117.27648657086797 745.3761852778681,116.86170946503205 740.0105533323803,113.63120053071236 739.0868586841772,110.64099207673519 740.1919454301834,101.68511467323299 739.3535041576963,92.09985132649422 735.6859548665045,77.66253010199375 731.6554393245557,62.85062809610463 728.5581294514083,54.680680088755025 722.488983900213,46.812137940763364 718.1834208400388,43.03109764925421 706.4377779428231,41.27250856265266 695.4143269379967,41.00663403628846 678.1416849787863,39.83728583623122 658.3661434633482,45.7140204562171 639.5613363931166,55.99512131535994 629.1596262021786,57.05476254232724 618.8390200663847,52.290234096906374 616.8197572868238,44.135875494226184 623.2464359315197,23.27568238160984 628.5874696492964,7.0467323589704165 621.3839651225114,0.0 587.2891511571632,17.117150043429888 576.5149671013751,25.323438530890712 570.0642013718877,35.24404676189636 567.4677979734504,42.08649240606678 564.3206170741742,52.20258325668112 559.8176070869788,60.04054736835212 552.8115392563005,66.62375107602747 538.3493996591166,69.35306658330364 526.217422043176,77.9903596389048 517.4841672551822,82.63298246314457 508.7725154887225,86.91838551909552 499.21018656050285,86.37451475646253 473.39101220047354,86.74531977943968 469.93561479425216,89.13365780001618 462.8828404841829,89.83574349509672 456.8176665775643,92.8128074067256 447.8500939969147,101.14181327590484 443.9821811825413,103.87619283257982 437.9651745605974,106.11346188236291 428.44285547621905,104.48398025025972 422.0152178818515,100.819968550412 409.70797549976373,89.8464155533959 403.5035454701903,88.40462190392316 399.70427905198164,90.40709658613252 396.01288317579554,96.83270252337309 390.21753329090365,101.29933595891157 384.8552858404107,104.3197100092541 378.080987157653,106.53119345177038 369.0581531865451,108.99283189858215 361.2713678376805,109.30871414011631 353.4028695326652,104.84101636648688 351.5082884265143,103.47462987057031 350.0134335379508,106.62103515722731 347.763281283205,109.90037840652485 344.0661250921803,113.80167533403323 332.16208018657426,122.83715299107769 328.466550605698,126.52843286024915 325.38997949996957,130.63290384008963 319.8484016604213,139.6567751749942 316.36141404387394,143.764736097894 315.1304948741774,149.0879743474777 314.5159826484627,154.00471968319562 313.28839751940507,159.94439743042608 310.0032600328805,163.22825845751834 306.9760891399561,163.57044745507972 305.2876715981151,164.73551755509072 297.69220773867806,166.07233234448904 292.8722092194235,167.80390363316667 284.2319294121926,170.27524794764145 276.9617280221139,168.03629873777538 269.3816208114185,165.04754568323654 263.073564968365,165.4379405132238 255.81260817741773,169.81557824626668 247.87854616540662,173.05511936515506 239.67948318784232,174.43729955862136 231.8968380882057,175.10645675771423 226.15554708714072,172.205202291246 220.93886116746063,166.38919174376827 215.0161781956157,160.5330510860424 209.0864049044491,160.9338176787212 203.83761922012854,162.47248757504542 198.10530341403094,166.18627068276976 190.15562065278897,163.52456781672754 181.37260463740088,156.02233843904799 181.73052424164956,149.7931860002941 196.69126777865355,139.56259300426473 220.6791570607229,109.28857573214555 244.26679257644574,97.05831261101923 240.4062354609108,90.59012012295966 235.98607948644172,84.08356557229172 230.70375938392112,79.74157684865042 225.92896871723377,72.8416953079801 215.6084814112677,72.62485193004738 208.93133130320282,73.35167625664496 205.4118429554885,72.98522974892342 203.3644080882935,70.81330308622739 201.159782281807,69.74435594154352 195.69173743638424,69.23871049217189 186.47425885388594,68.93826415949741 180.86357468127702,67.50346676110019 175.33465540102523,67.06534901753207 171.6551394976238,65.5515651172849 168.84807334544143,65.42636144076096 161.26202768305885,63.58547872387294 157.54830256823786,65.03796150663914 154.70854776259867,62.42074060742368 150.37163436035593,52.526351448790706 148.71819704770556,52.52311943066252 146.42765359257092,54.56675287709788 145.40306829547248,56.54186467546026 145.04872976053082,63.33631412097532 145.45400398012984,69.74892976184867 148.34231717027174,83.09309165856098 149.64706360755267,88.45936908944441 149.78969760248333,92.95550122287887 149.50083206272163,97.58591677190782 146.74730577246146,106.85506052191022 147.17221958707975,110.7396274343098 140.00369393946568,122.83136555795579 125.55001587156843,119.24201084892752 107.31234864579758,78.22694832435877 91.64625521890666,72.22964248637231 83.27000817059705,84.31766822328882 81.49966572821883,94.025319814039 79.70652943183235,99.65122334879982 78.31225155309184,106.78543321252084 76.38852085007211,111.33533569168435 71.69414857772725,118.6091252860956 69.8045896139411,121.9664857308477 67.48947405952195,123.40365430830354 64.09206799201613,123.89261032423383 60.34406842993332,123.73837641594059 57.15023404209918,122.6861034643656 50.32611377957127,122.64964146062346 44.30057383091647,120.01428557042038 39.64823614115951,120.32254091909078 33.14214555660652,120.30532437419811 30.34440211224561,121.79856186989014 31.979329211351256,127.69190820892982 37.000365310386854,128.8999016709438 40.92714891429553,128.62767308420177 45.582127621006244,128.82538830650503 49.885360525114685,129.53909737260926 54.42905898820377,132.1738698388922 58.15152530451209,133.62168195060826 64.05758767068095,136.8251181963858 69.86585210518376,141.49867174582164 72.87486153479814,144.48111531468692 76.652699338454,147.19893513666796 78.37842326361023,147.22766355084468 81.02880564074262,141.7577574891037 83.09322377322903,139.11811399063527 88.58794695340137,136.72282599009918 89.83959717202512,133.70672623080304 86.7969511729665,131.01398154073047 83.62950462635912,130.25072461940522 78.23102326411846,127.14850175438107 76.46193245516154,125.61571435595636 75.38488391385144,123.51480066860529 75.45037576816932,118.069908745249 81.01815686324554,107.75302872557711 82.63075111528431,107.02461534568431 86.09608443974747,108.4912047766627 88.26512813895133,108.21293446905122 90.63926071869138,106.96356320044401 93.46128185039606,106.73306246616824 97.4109477472029,108.6967737860848 98.41247946397327,112.09681590045739 99.84772774359625,114.22426060429427 102.10300062266877,115.2566178834652 102.77207980150409,117.45338816065976 106.7741804826742,116.71469770463136 114.28195404943328,116.72509306465531 122.05217466040988,117.93914780607452 125.41912874176094,120.01223875452854 127.03093929957541,123.61459773969705 124.17786006653749,124.76434433971713 110.44335810418563,125.21079851756815 112.13041301759961,129.46106992511648 115.14147667652507,131.3347934498422 122.30577485195093,138.04968277500552 123.56808816689527,140.17487177337568 122.76692041457962,145.76795336198722 119.86657357508794,152.60606133704948 119.01382890784834,155.6270403199061 119.24435512545548,158.57430966140225 120.64067348521758,164.9185689236316 122.18186552074138,166.87570788225332 128.72003012729442,172.11139580976885 130.70469227193243,174.53478255154494 132.38393855044313,181.25529337012176 131.31569426998226,187.0181891192218 131.62777049979235,191.72124625597905 134.87264786024525,196.5210088563217 137.68857581567346,199.5063948993934 141.32437149255506,202.410008141802 147.2921027361094,208.6437875015548 153.6590335292271,213.876440862697 154.81306514184848,216.64215306013114 155.0575751794662,219.3108851993287 151.52099624728964,225.5048439540077 152.66601112197256,229.9228412171948 155.16461098320053,235.74305560482367 154.80630683151242,240.1900915440474 152.24922063294008,243.88639566350355 149.57579998673793,246.10026388843346 147.24248114556036,246.31500640967727 140.00840731916776,245.25591334049636 135.93575763872556,247.39246677352378 134.91773455263552,250.4355957408385 134.92084562994643,252.87578449238003 137.5558911236999,261.0066884987225 136.73996590343737,263.445343939077 134.52167454911265,266.0774076621734 133.3009245786396,270.74973675908535 133.90311334040103,271.76227804877766 136.86274766922546,271.25876792772374 137.63525709279696,272.55347847287646 142.2824110662712,273.86278789432964 144.7706783235142,276.15247056227025 146.451533553781,274.95668686339627 160.85342851371206,259.24132333831983 165.37577076311933,260.657492357162 166.26672288927324,265.8922196281475 163.38946654432544,275.970321016995 164.53889436959648,283.68656856283224 164.93245798701764,292.1434511342309 166.44513088581792,300.23209338457434 167.98126513921267,303.5320119268519 169.78265255836823,306.10163503790403 171.64715982364075,313.8211699557156 172.0405840760651,319.6969824121812 169.4798192300578,322.6553861329907 163.62293906364468,325.97944524204536 156.26871363275853,327.09574719909745 148.9213088422509,327.4881235206253 143.78850876200997,330.0722071766195 141.2314704426501,332.6556213305496 139.7653710259464,337.4340128676097 138.70957901499474,342.9600845860308 139.0960982710421,346.62956670495146 136.16858855234338,350.31660871243497 131.02489956214745,352.90184765427784 127.38945508599718,352.41435285557833 118.96775526062396,348.3610763607275 116.8605941861076,345.8177782521314 113.04552723414128,344.8747546011704 108.38117357818116,345.8574403045954 105.77359997352204,347.5511594606351 95.40767545560294,352.24174586411345 82.94949215649191,359.987494917874 78.56634278069444,364.77875664564493 69.87737817697969,371.92174782213357 67.30415698348847,372.483340269208 57.66158328689005,372.9214601235334 53.90708483923872,373.82889840301857 51.95295936603067,375.5361808360567 48.892025362997124,381.63970060804525 47.579430171377425,382.75425643358665 39.31985108205762,387.3440080859002 35.02647919958802,388.73449675563757 32.317464376086484,390.16020135384093 28.26389843291071,389.53436417298474 26.40007049460918,388.0449285745324 23.195105977336667,389.05133779957856 15.58107965421239,393.4830321380615 10.986048281140812,401.04827126598497 8.432720103813734,402.39069117441846 4.270145059646736,403.13521413894347 0.8337132418575683,404.5995422828661 0.0,409.2151038385104 0.10089502897503792,413.4851381862027 0.8808341588880116,419.04290696965444 2.483207949115838,426.842872359279 3.572366892349112,428.9938895184449 10.178218277472878,435.12286222730444 12.525781339801004,438.1795293156113 11.484253039311545,441.37552154242087 4.962325254487506,449.0514980324244 0.5450791772111567,452.89276634468354 0.28371359895119524,454.9887024078306 1.8435682877820625,456.3657411341176 5.518151788124012,457.09789827203326 16.636789783602985,457.6554672141024 30.50737766266263,450.6290720659684 31.053370415979735,448.71590758642566 30.773488437652844,443.86574694081395 29.631337857056604,436.00928383331666 31.310194520551462,434.3356771060421 35.89319591732138,431.0593486130356 38.66108229527636,429.7975953918379 43.164171840323014,426.3407965620689 46.21733666106573,421.7807766220663 50.26518780729147,418.77945077278775 53.091209553576924,417.79199500760666 53.30069107161571,411.37223741267826 55.07506464181271,402.56798425174685 56.07362000330193,401.19180058816346 59.45722964691187,399.7738588130898 66.21700141667826,398.2634691473589 73.21078640521277,401.1860398995194 78.7988973877251,419.9253991643262 82.4909892511155,424.3308817527979 86.17487312911078,426.9028647066763 90.59994860424005,429.09446893101915 98.6693880337203,429.45406239999676 105.2845359647934,429.064473167507 109.70683811341527,432.3699542748868 111.56479775418251,435.3106243520645 111.21733635945101,439.71607318995376 106.47832560703169,449.28966055011404 106.50968143812577,456.2757790792908 107.2835342916694,466.19588226649427 110.261997920662,475.754351265112 111.39808307943555,482.73737626579555 109.95465655148733,489.7221946223719 105.57650566663675,495.61902658782884 101.5630759719845,500.03741040683923 92.40795218477164,508.14971716836664 89.48719180363298,511.83143338573745 86.93963520004542,516.9841664922229 85.86583948874886,522.8668322950218 86.99577780618733,529.4768792729044 94.01874707584894,540.8654159244002 101.42052782083809,552.2516653443854 111.07390074232386,574.2920869457706 115.15146672510001,586.4136757725305 116.3191639537129,597.8143758589038 115.99092022206159,608.472327067206 114.92547669268632,616.4046045762876 113.9455091687193,619.5873904850484 114.66882557822497,624.3687160994498 119.71015687694504,624.2000275948543 121.54096179808177,625.3468736171072 122.12687133826118,627.8690068649557 122.20876933036008,632.2057379315977 121.33216109437748,635.4057669711834 126.11021566049835,639.3758674066848 130.47189909801614,644.0663133083169" /><polygon fill="black" points="43.46374052269515,502.2716795996425 38.206970282553684,503.5274578459305 37.00733833178977,505.4407277022078 37.38005170944728,507.6388348490317 41.157265068033105,511.02616569701075 43.35229664217898,511.4978127533528 45.82692881550925,510.9416609434986 48.220108912377235,509.39498039217546 58.117074505302476,505.3606028744298 63.23949223772731,501.51839285139306 65.32491254390004,497.57730246530576 65.32164219996268,494.36856026286245 63.9542596823407,493.1657447592971 61.93094279445104,492.8837272045539 56.24454642469741,495.0250963262305 53.072172233691845,497.48476287758064 51.239143339184245,500.1254263935668 47.289707091877084,501.6149502267613 43.46374052269515,502.2716795996425" /><polygon fill="black" points="121.33216109437748,635.4057669711834 125.77336456660676,639.2935112601632 130.47189909801614,644.0663133083169 126.11021566049835,639.3758674066848 121.33216109437748,635.4057669711834" /><circle cx="408.6607751281103" cy="444.1269475956048" fill="rgb(100%,100%,100%)" r="16" stroke="grey" stroke-width="8" /></svg>