<?xml version="1.0" encoding="utf-8" ?>
<svg baseProfile="full" height="1024" version="1.1" width="1024" xmlns="http://www.w3.org/2000/svg" xmlns:ev="http://www.w3.org/2001/xml-events" xmlns:xlink="http://www.w3.org/1999/xlink"><defs /><polygon fill="black" points="922.500786306488,440.51519570359596 922.4761152441066,438.33267304504875 921.950049277853,436.9406368034777 921.4343961398108,433.01290371018445 922.1380027281502,429.9356831317119 922.1113857020913,426.25085214723094 922.4682363339753,425.5673934242144 922.3702660937937,422.66802765439706 924.4276857532005,419.45105982728967 927.2001789534719,417.19609859196805 928.3999285795744,414.5291197902824 932.2889136460229,410.4803369743664 936.9571018922489,409.71109009227735 938.479161344265,408.2953882198717 938.9238565541251,407.0337894943409 939.0845788117508,403.8151149643975 938.7877436340815,402.95729857648234 936.239759160975,402.84894830887686 933.9110718446593,404.9614961316988 932.9634353015483,406.2856369332155 930.4693429907614,406.8057806960571 929.1222571249868,406.4359877974425 925.9476483818842,406.4661637037809 923.7196493252155,404.4556121872066 921.5531205037252,400.806152499302 920.3470362992766,395.6666870323802 920.299536852333,393.71289935248035 921.0290702260165,390.9735752655628 920.4919115039903,388.08141377065385 918.8576711193667,386.1768807983709 916.4591748311922,385.6662169220182 913.6212001599434,386.7591623216226 912.8749640032368,388.33007578096533 911.1216590800051,389.4071358949227 907.7634872982968,387.90209017155246 904.6167721204356,384.29955434355713 903.5274833423456,382.28361901250366 903.414883634703,378.3082261631282 904.1973821041305,373.962346736007 904.9763147714084,373.05027954504635 907.7765865656851,371.6342691402979 909.8102731205979,369.3551253757104 911.2007435564929,366.1652899997846 911.0859839916011,364.7322094042439 908.780239272951,362.7118441498608 908.5688943924281,360.83626603519326 909.1832847903448,359.1573900493727 910.3169046917671,358.4658267777503 913.1718027952099,359.100095224926 914.389934820207,358.9879138522298 917.1326211872894,355.51233753194106 919.6056201185081,353.9450441463978 923.065204962025,352.7720626767042 924.0294781665693,350.84309951021396 926.2425824360265,348.74295519166606 928.2394930775664,347.59111430290886 931.3960632068189,345.1890312410768 932.8271925841113,343.4616181636509 933.4038952180288,341.3811681836513 936.6994058979202,338.38281308183355 937.2415268579867,336.61589431018945 939.3443868420775,333.3192834622712 940.0491386081524,331.61318635321413 940.3113180590124,328.46179637496516 942.3570777240442,326.46808813265545 948.9726251353601,324.94878609261514 951.7396575179232,324.1188140053123 954.4105120159851,322.7683237781331 954.7869916688725,321.1077624787375 958.2956325205621,317.85718186987094 960.2716959364211,317.38021581117437 962.8593218424977,318.7996442346764 964.8907773167913,320.6829137031683 969.549420480935,324.2207475947117 973.3511454685056,325.8390069079535 974.8606368968155,327.9220377145798 974.4043866428555,332.354569875455 975.1079682743064,334.36056958672395 976.7195145026172,336.51378062883873 979.2776252639846,337.08985195299624 981.8876251568736,335.64762123098035 983.2589174999607,332.5074765860347 984.2286375972865,327.71793828751163 987.010135119261,325.4158875028677 988.6164485372108,325.1288607340499 991.9869785146662,326.08436370814 995.2431822394224,326.2448012978232 996.9009998350016,324.8805905701164 999.3286242228836,320.09662594535257 1004.1223727170322,317.51051942760296 1006.6303873168941,316.83022624423154 1008.8067827103752,314.56034956585415 1010.9455296332409,310.8709183101096 1012.9656934933168,310.9490472627796 1015.3282005350613,310.47249316997033 1017.4388708992803,308.5640632201482 1022.0446537357088,306.11143294914336 1023.2836912880995,304.56676823341775 1024.0,302.1659656393822 1023.5427980077849,299.74457322943294 1022.1215525334861,296.7759758617086 1018.476301506617,291.71271947232015 1017.6937991990067,289.23977253763564 1019.4709958868663,283.60275500718046 1019.5041857285217,281.167763039133 1018.6504220059985,277.63891230112927 1017.2766835844698,274.1346832432075 1016.2672945101139,273.06919654517424 1013.5631984336574,269.08331895257663 1011.623813939355,265.1442118369358 1011.3999477867059,264.0765097310831 1011.8110690645823,258.4700338117483 1010.5910115158598,255.06663820188635 1009.9351710589551,254.38603053723534 1006.6331189213546,247.23986070551882 1001.8361543376986,243.07907374329614 999.2484033159266,239.08687048188244 999.1235703838122,238.34309921496924 995.9994822531276,239.1023889991667 992.4477341442762,238.82160812034135 991.3324530455671,239.2983929208881 987.8717082129189,242.01712273199269 987.6138500754101,245.21898224253084 986.1646228961328,247.41163038922548 984.9642439953958,250.11546251829657 984.647985282294,253.0534648044387 983.6165734770957,254.22505583515192 982.1563909636267,254.50266213452744 981.3994110124967,253.82036533550126 980.5534132125356,251.00654675425358 978.5887449372616,249.89084376381652 973.1584797835518,246.12858524524916 974.175031556032,243.5213599576739 974.1785433341261,240.41498277482037 974.5533628833872,239.67654700790376 976.9799671984449,238.49169602358745 978.9472020151726,234.59604391576693 980.7556811443277,233.0920727906772 980.9300272988196,230.12504805761307 979.8384632659689,228.43363387912996 977.5261214787474,226.64101624711304 975.1995969365564,227.12371802703296 971.9303316831662,223.5138832969351 971.1811170692188,222.2169732685328 970.6795075411886,219.69246692667798 968.2590403976643,216.76611854042608 965.1158068923195,214.7788899464107 963.964215252556,214.91218574985214 961.505262665379,213.67394460266496 959.2504262117379,214.1459935122831 958.3778605317985,214.80965411327713 956.4526068700434,214.95344748979687 954.5181313776704,215.8682921949212 952.087326163408,213.97562421056682 951.485532790081,212.3383998109033 950.1054686870531,211.12180640183988 947.1314978335587,210.47175692424594 945.6629935091162,210.7275766178659 942.1119366512808,212.3544509946379 940.3561383706219,212.80183190198352 938.3144159335083,211.6350705074418 932.3566021423708,211.1232982783597 931.9696318375952,211.9678222114187 932.6181698309158,215.51918250121923 931.8995741403721,217.66770522359104 929.1948977944043,222.36977426972942 925.1088831010296,226.70353570654447 921.6738296089492,228.6135257617293 921.0505124704054,229.58250536321964 918.3490358744781,230.61282096253876 915.4434899555205,230.86899336595923 911.6341443580546,231.6893340531701 906.99384694744,233.74879272452563 905.1229687021635,235.06238508760543 903.1737194084153,239.21807290308197 902.9546415259035,241.1595382245514 905.398551199592,243.5853579386204 907.4017321938591,244.67658116495681 908.4918493781113,247.02616329972784 907.6157614666325,248.5882620580095 908.0659434077368,251.57481245755184 907.6517529897454,253.65127401070856 905.6978683653489,258.9141718963491 904.7974019846519,259.9581531574644 901.9528925579643,260.7810621206337 901.0568841571147,261.47319494383373 897.2287345242634,265.71472060582346 894.8438314011704,267.17906691143037 893.6635428280795,268.50313964529255 891.1964861790863,268.4796812728116 888.8217569061192,267.63607288084086 888.092660783576,265.7779329206852 886.1948792923924,264.3832304301419 885.3467511501906,262.2791688429129 883.5076899771213,262.5671269486146 880.8217707881901,261.43510131991593 879.4918077361662,259.56872456714325 878.053349475667,255.23768074989982 875.3717749253855,250.20545671473099 874.028494889178,248.62273375075642 873.5165325382217,245.88914607481775 871.4664967408937,241.6971881110004 871.3610242441748,239.79053077186916 870.3621961954194,237.66598214494013 867.2742979531531,234.1828720047588 863.1232938213084,232.41399865793767 858.2869858571252,231.58190450670554 857.9770914863798,230.48316160235322 856.3495389950668,228.94560770507167 856.2674441367334,222.02926551897076 855.5450663064242,215.75944178330644 856.0967108918297,214.92781211837712 860.1318340632565,212.5754953603248 863.6210843710733,209.91194872399387 864.524185571104,208.6950309682203 866.113738001956,205.02837449426613 866.5433896251591,202.03812341604794 867.6810760687962,197.2141635732596 868.9729902156872,195.80805453686094 870.0462160466312,193.31574047742924 872.8303657805404,189.24810448743358 873.3934324737754,187.54886732939713 874.0960774466889,183.17922453754545 876.7295695321432,180.32944048293518 879.2349920940541,178.59938748399395 880.9148343359905,175.54156161660092 881.1275156057022,173.39933410751416 880.6951967183195,170.87781502732753 878.5536315160136,168.46893590073716 876.8190701769478,167.49870619951696 873.3616240060676,164.73985173457186 869.8060229365254,160.36108463767903 867.8712311663311,156.4057704388756 865.8607674585323,153.48239850026266 863.9879031977896,151.61341864088865 861.4868927615169,150.34906814402302 857.300978446955,150.3558831101965 855.5280247251534,150.0180091399186 855.3977268412095,149.2168310119789 853.5213184808271,151.0598273340322 851.7287115674332,152.0370110247801 850.1785207094106,150.38629640207955 847.4015597218894,149.94523781394594 846.6783224305939,149.3886906065046 844.1617173582656,145.8524473723262 842.4832009095065,144.66761291236094 839.5942077834158,145.59776217640467 835.9260281247989,144.99567170468583 832.5409898800106,143.84222239986275 828.2144086703843,145.72328560528933 826.6792845305715,145.7965084764246 824.405522704892,147.61197633817426 821.812088924081,149.05219598831934 820.5066094616564,153.20239257472872 820.2869597208306,161.24996907267803 819.320759977832,163.21349618609872 817.2490338705193,165.00334872342853 814.321143593854,166.90659740467686 812.2190939167566,169.9148899356511 810.2784894678387,171.71673383230348 810.0515745608825,174.4241961262661 810.7149263136956,178.04332483279086 810.3168237250362,181.2852199307415 808.8524459426236,186.2853146219585 806.1287183496021,190.51453981197255 804.8037245288892,191.89808521568386 800.6940635391811,193.0895752421477 799.7696701289074,193.00603147764173 798.2159921451969,191.58489189041882 795.7686107965088,190.68575112539304 792.9784509293028,190.21965990784167 790.2794977829187,188.5646022664281 789.3891351707268,188.89096613834636 788.7460891107496,190.82197577090756 787.5646779852906,190.8997203219251 786.6434789708344,190.01558640159976 784.4331830974892,189.55882963357828 783.6164102968975,188.53004363200193 782.2964508168324,188.37092732623944 781.2231440276414,188.06963988474013 781.5396692357681,186.81644385214395 780.1622654095451,183.47572921846142 779.4722444570602,180.42003041163264 777.5315326268471,176.74810414292745 775.0317642063371,170.1605899454579 775.5132548286324,166.43415124928572 776.7658743416124,162.18529466244593 776.2097219501453,160.25493061909253 774.7594308515218,158.8940776428551 773.393633379939,156.18950513788025 771.9325806360554,151.3879591347378 771.6815934068431,148.87897028251098 772.2929040399023,145.878308436805 774.3165666459703,141.09998087673296 776.3479710863866,135.26047249183603 776.6283398502388,133.73609177190315 775.6625030593589,129.706023854038 773.648713163055,124.64566941414375 773.1726626173621,122.83567336313195 773.9390389461256,119.64570840179897 778.1280794363676,115.76575584346165 778.4716891134296,114.09703177769211 777.229548038978,108.4784640364229 774.6813808012635,101.56289732096957 773.478995496528,99.5469492240303 771.9029167198933,95.70512593291585 769.8879683175429,91.46661278463466 768.9277124202548,87.84073542016881 768.776991975011,84.9006871694728 769.6436623619418,82.32877501668543 772.3511252715799,80.02303768615946 777.7008194152163,78.50254528523351 781.881884125445,75.93056714309023 785.2335332511506,72.04100412794241 784.537946811355,70.64850653478561 781.6175076664013,66.63179971830391 778.9852578978257,62.39695127368509 777.3871481482869,61.07617746796154 775.1717201880512,57.402732252028045 774.5496022578278,53.028795712667375 775.2585061045237,49.0093482690138 776.7077385010812,44.91581613618325 777.674358922425,42.931780872573086 777.7741870763817,38.38821225230265 779.1750140251829,34.13985459756009 780.3250708324246,33.217821693054475 787.2267254547456,24.590281965961594 786.1539308364285,22.242112412685287 785.5617458718524,17.864055297067353 784.2607083012933,15.871328133736256 784.5010699217634,14.856567438064985 786.4224711626866,14.326910418153602 788.8578048799702,15.679075743705312 791.7108237028942,16.281413384664802 799.4331415173856,16.150684074803962 800.6980794089941,15.541336494350617 800.1465860036518,13.435882338104307 801.8668294368829,10.418146197178544 802.6758432273189,7.4243358180214045 802.1208628479204,6.143946730252196 799.8982785140852,5.379019244600158 798.8111831826358,4.477772807503584 794.7852106352833,5.1077433960881535 790.3581482277964,3.741728934186199 786.4394753670044,1.0937217482662618 784.740276767673,0.5208649808745349 780.4713688796515,0.0 778.5797184458521,0.02511739192289042 775.9897250055105,1.8029770973919312 774.7045900694868,6.407911904031266 773.161555590708,7.855177616313881 770.9827309186376,11.48441222665781 769.3973811155369,18.11332098746425 769.6249339628932,21.233257477962297 768.9034494994381,24.23919415386422 766.6109876071629,25.644699903697187 764.9663639365149,27.595683895727802 762.0058710969947,28.979495322334287 759.2891075231768,29.182778369166954 751.3523038921444,28.639467621024096 750.3441320363845,27.31975935462549 749.7302825147544,22.192175338882976 750.1052439715957,18.87927506982203 749.8286144922946,17.961882829822912 747.4388940635208,16.946973542491605 744.5367661918503,15.204147857086468 742.3174166581837,15.37613856811788 740.0961482565825,17.25612612768964 737.5550959995873,17.839341671356124 736.1014161531825,19.258198491346207 736.6089488895193,21.859581540361887 735.5534428087303,23.616159168126956 734.270375414205,24.553147908321762 733.1740751104647,26.309188949637587 731.6124268343536,30.707112317628003 731.9510631590524,34.19015253328632 733.5528187383673,35.696838882412976 734.9900373280129,38.404730925738136 733.190290625778,42.528198688904354 731.8148493273254,43.49302788959824 729.8389275951588,42.464491597887445 726.6797602574175,42.938438045839575 724.7403985537109,44.24203441770362 722.256147812627,43.85398654466121 719.5461059817292,42.05308394918222 713.6526989176169,39.897905705298854 712.3770597360706,39.872891488539835 709.3764557150869,41.54331768012014 707.0187310418565,41.428688655404244 704.4470763678497,39.33759894388436 702.641676258842,38.951752944775194 700.8670503382544,37.546669731179236 700.6361073789074,36.43460246050222 701.8630678718453,33.31220503752627 701.7336525792066,32.192797888282485 700.4870141819367,31.740535761427736 698.5790869522405,27.924442738869743 697.3249186842133,26.355046076023314 695.6309390981326,26.009978377138623 692.8553926215675,26.575559721823197 687.8663492432426,28.930845210133725 685.2970376434396,31.772458200897404 685.0956143837119,34.68222970752754 685.7072295499986,36.4624666680329 687.7117090313837,38.485281764826254 686.1215219223949,41.4546555056769 679.046505073749,41.17325537020099 677.7063339061955,41.320299256108115 676.1024927092934,42.45288728876346 674.9140058706761,44.07038977188256 677.1170272997446,45.31109288892162 676.7008708172735,49.257688088802865 675.1067412078548,50.8864533966198 674.9722033574878,52.96349855172787 673.3751407106282,54.223164480351215 670.0748241922773,54.55252477329634 668.1356220489064,56.15470333863129 666.5640783010307,55.71336345251029 664.4943791037948,61.094330449379754 666.9646830201596,66.05647116215584 665.0912884938294,68.84698937970245 665.0504725276222,71.74411021082642 666.7332088514455,76.11736400017935 666.9568551413971,78.50526282462988 665.7185717675782,79.99689857064448 663.5411579819875,79.84401026482931 661.9941209879877,81.53315603628266 659.4056285482743,88.32838707824078 656.8544595737404,91.40754791261554 655.1960865976479,91.61571491232644 652.2828520330763,94.03507226215709 650.9663224110511,97.21887184592617 650.9620595519971,99.78867761311369 652.2389427000385,104.14824156497662 654.9865742991609,109.55251247618605 655.1237889806426,111.22037329022623 654.5199939522264,113.35003235598901 651.6153546185924,119.09292255292792 649.195289674026,122.5480243618897 648.4902855662043,125.11459514657906 646.9709828341921,127.26445676475487 644.750144455734,128.50270723765004 643.0826977435698,130.9223382739359 642.0351977089364,134.2520667744908 640.2980686980866,135.63721658316206 636.2728701562526,133.83456907842844 632.5923262445565,132.99408175723522 627.5983687904275,132.29931586237615 619.7405055585999,132.43707744036521 618.1372935878019,131.8846375910374 615.2192257103555,129.24638171429797 612.7277635979526,126.1891234577713 611.2618212607642,123.62245715653012 606.9545743307061,119.59853080677601 603.6902350516822,118.42300954562745 598.4135377042536,118.6331287768561 597.2989423424063,119.39663929584367 595.2895369856193,119.32118362806648 593.8255605499033,118.48839262433387 591.8904516698301,115.21884111464806 589.751128199475,107.64913748609717 587.5426468695402,102.23167446559376 585.6768442934521,99.10111558064455 582.2850147556007,95.2728051567509 579.5281196621194,90.81686677606035 576.490871947764,84.53456781117234 575.2404239918466,83.3563650146416 577.4614682446037,80.0032764245102 577.0979422255183,79.07979546715717 573.061776578814,76.45331553782046 571.2297789837875,76.27320236524861 567.1657476371074,77.78078550024611 563.1798521103673,82.31661992878765 561.9424032369296,82.71464632863024 556.8162856910907,89.41336409716098 553.4156187413748,92.73754895533659 551.5373625798962,93.98626724567885 547.1524503727943,96.00074448759392 542.2483856516991,100.50475571509776 541.597793752996,101.75443798850972 540.1243515741618,106.68532599223579 540.0263467246237,110.61847037069799 539.2270452975237,111.30984660446336 532.9597576009957,114.12466657359073 532.0308646774639,114.30584419947911 529.729353554918,113.31235011457488 528.0304022431783,114.21464570290186 526.1416367624283,116.18403679766914 525.619641330017,117.54475465887788 523.1080289336493,120.01469183048937 522.5652543676284,122.583604518843 522.9831533417864,126.93181415060496 522.1024672165431,129.19048351896436 516.0782677265206,136.60260214860193 515.7888008416594,139.17945744791325 519.5960904980625,142.99214456713514 522.7153786344802,145.50004339367558 522.5044714886997,149.8059122986948 522.7329417651107,152.83580344270035 524.4170152427323,155.43441321249622 524.5625788389212,161.751275053673 526.126093954209,164.71821130722844 528.8796715650343,166.90526065553604 531.0100254646184,170.0234359689655 531.0295753530651,170.86319769685667 529.6775099535264,172.84013200195693 528.521629118675,173.4749810786626 520.8148522200499,175.9558299864119 518.6168562890889,177.5403408435045 516.9158803181718,179.97726902404065 512.0609918996381,184.70674629901737 510.3267693234782,185.22881567829927 508.1797347002096,189.9302055109365 507.6368876663074,192.4267086303645 505.124123507182,194.29650076179757 503.65609436119075,197.11137122376385 502.7424889379914,199.75501798324115 502.4094077122434,202.79516914280748 500.4364147378461,203.0471246636464 499.0189682102627,204.2710044341004 497.73728311712057,204.57972253243372 495.2742585693426,204.07613678014695 492.16238993565423,202.28487131675706 490.5303253076226,202.34964773138483 486.3252250995902,204.95636164204313 479.238175314366,207.8286304527012 475.9122786762093,211.0245004715315 471.40323185945033,213.45590973476158 468.17143764873634,216.51746412002194 463.99855905428416,219.2898636983973 463.17108135921444,220.48983370909434 458.46390203225434,224.11816087843033 457.71383979829386,225.45720828206368 458.148992053692,231.23992082516065 457.5028716714658,234.38236698189405 458.32042001809873,237.72116211700325 456.40727182336906,242.81631644304628 455.49396136457307,248.28167378869603 454.9675477833519,249.63766867864922 451.08721257876823,255.33720331468135 450.6421998876691,257.81174080380333 450.58483921722774,262.54922345859336 448.2927872998653,266.4823749600597 446.2690354162899,271.4220071474557 445.13483452507154,272.56644259984296 441.70332102297,273.66762602531685 439.20103977552486,276.26360331755086 436.5994915795316,278.3767208180219 433.20725562375384,279.87010755833694 423.6369075789617,278.68308726715975 421.5095841538954,272.9412718202361 420.7339213557967,272.54724905982084 415.79078841212765,275.4156486682218 412.93509605782384,277.4218162480929 410.9968187197093,279.8363542456142 404.88976333231983,284.7487632378552 396.66525630201784,288.2280096678204 390.64775008231913,289.9071782634918 383.2975140618586,288.53679777808554 382.4587539157555,287.5028360482653 381.57492563605217,280.6745025553539 382.07445227677937,274.4271948864797 381.68966375071165,271.17281361127493 380.57235985787696,268.85740639520316 380.87493815735945,266.5542462943473 380.0535869997791,264.9527647776606 380.3512079644712,262.47358815689347 379.0792135640294,260.57518993121096 376.7066186547643,260.33884276166816 375.92435701316776,257.4264143004159 375.9996375451113,256.2632058265523 374.3902646433045,252.3276284138974 374.0288711716775,249.35973355168449 374.34935433214224,247.49936437314477 372.7282701390487,244.32791235021648 373.29101519520464,241.8777791873872 371.56638433117166,240.83790014815656 371.63441254202684,238.54925692869745 369.70863809964595,236.37774972721934 368.16036267489085,237.3102806199022 364.9532670503528,238.4086716730534 362.6468818195214,240.10142566684692 360.1997379050863,241.3693184948038 355.41392795809975,244.3577655011394 354.2177552643673,243.05858246446155 354.13481059188496,241.07858176080822 358.53430514764943,238.02998703711762 363.30960470086114,230.94044547889848 366.6401514558319,226.71490267049842 367.58265019885476,226.92897290821554 368.943002011314,229.88575262870415 370.36871373252467,231.6994944093227 371.81746259575806,231.01852362599448 376.0618915361074,231.721801179845 378.4256423153921,231.48840643652716 381.5160577789455,231.88287577149913 382.64101147909054,233.87327617948563 393.73130185391466,235.6848769999816 397.41925242666434,236.9465537637857 400.43322996409154,239.2946516491437 402.33918756979875,239.37889946590053 408.1386106881586,242.12883234203184 412.29347795791966,242.44312108797885 414.714257101906,242.01279585225393 420.6461003048276,238.65729552407697 424.4168829732618,237.73589870148714 422.9714206140446,235.43472455754625 422.90382121174065,233.48582840530923 421.20594059094606,231.83328676379415 421.202858435659,230.49271964166076 422.60314091481285,228.58549873869867 421.5318224294365,226.42274971810355 422.3687174611735,223.87344786181325 422.10935936619774,223.308631943327 419.2475174878228,222.4453729565239 416.45871846102517,220.0872245525975 414.70078243865777,217.7194006616188 410.5409359443998,209.49384779135153 406.73317150088195,208.60217431691626 404.11017132747304,204.10745543518613 402.07391479957954,204.37130412354998 398.78066398647155,206.5052284206456 394.9859987265809,206.92282107980122 393.6203451772769,205.85626650849133 392.7674174916377,202.6049093156597 389.86618012726274,198.99081257811747 388.0768913938699,195.36062722119607 385.82022587841664,194.1212291724437 383.61827124926714,193.79261032218858 376.33430401174456,195.4044649777303 374.9459348313887,194.45404687331995 374.4960897825263,191.42037091190184 373.57169742759356,189.95605206728226 371.5636870065515,188.94787608942693 368.4629665273845,189.3825704333924 362.7626769370089,192.53434184785226 360.02575730571425,193.3900809139451 355.5029009225995,193.63398022340323 356.37651630308494,190.04364040107737 356.10087302629864,188.05105843936144 354.69661562370146,186.30776897610292 352.78829941306634,182.38917566527766 350.2255243950074,181.2260093262895 346.17771457236205,182.31369721985925 342.172270833778,181.67221687998472 339.2414269809388,179.9105769342707 337.1968661940881,179.7981111890308 331.67032587704637,181.87386383710702 329.6412862135537,181.90826228458002 326.20786497899144,181.23387124391547 321.0002598190334,180.92313048641893 319.0442081793431,181.22319079006513 311.68289302105694,185.17316905906705 310.4928647158565,184.77341860585773 311.64480997808386,182.84551026870304 312.0066909422339,180.76525712754835 312.32810159161875,175.46853316241163 313.7410557292559,173.96950826824695 313.91506629394627,170.7407970987099 311.68540382638525,165.58926801655105 312.0704376264229,161.1860095549256 311.8421037902601,158.13125242723038 313.4096549564854,155.28069007132444 313.31994541465656,154.26190773587723 309.37035401914306,151.9971599522015 306.0174980796099,146.06967101888404 305.14480939084086,143.77648179689925 306.12072951710024,140.01993280649026 305.01425286292687,137.08506859238184 306.08160098562746,132.70766882162513 305.2342574108622,129.3232490066148 306.9767092843459,122.61743066593158 308.77280118872073,119.59228952768103 309.1585763293832,116.77576450729987 311.32513103061547,112.97302880703114 311.32858258673474,111.59773810129752 308.81309819982596,110.76574116913503 308.32594247533586,108.53639389969169 309.8702812063465,100.68768565221421 309.5180755016944,97.74166205521249 307.9755934870135,96.71703950794392 304.2533668986941,96.78180597549795 303.2989765372997,95.80507705718412 299.92122492809955,81.88393473812971 299.829877282003,79.70807605693062 302.0574706465254,76.50678756484444 302.80879658069745,74.33934507400818 302.234689443239,72.31371927943383 299.3200971905054,70.13373738814278 299.0252284082037,68.89696646943764 299.2776113440456,64.9116344255757 298.6065839166476,63.389965003849284 294.27200457731186,59.955599227378116 292.8232848054725,58.00896725875839 292.3760731473694,55.871505714305385 292.4593781148154,53.654330079761735 293.6354287356638,47.238409775008904 293.77288730063214,45.539692376713674 292.8080361655738,41.87718387175653 290.54977340069183,38.9800943037817 288.53528620679,34.864885196665455 285.6009822167216,32.49028757211295 281.35223855538766,30.917906608711746 280.0397197201983,30.124930134466013 279.35993275909175,27.708494742766447 277.9937327581621,28.51886582504312 277.56656630142777,32.47435795382921 276.020005742917,34.71912161600005 272.8381322433258,35.497293710818326 271.772657709988,36.10376394878506 271.6690093833181,37.969075019072875 266.7935744987602,39.00117029006719 265.1746124678048,40.05574466077633 255.63378896768188,51.053342848109196 251.19509813141642,55.546660921721696 245.36092968989428,58.93999432969872 242.9463717661434,59.158320442160175 242.8387179741079,57.868994977946386 243.87054923249107,55.927491132563546 245.17251750027586,51.16117322925686 244.7242780938802,49.733771509459075 243.16254742001757,48.20936750173723 241.57189496971787,47.53114526920308 242.28570284673594,43.63178200162508 242.4038914309155,41.39664697013052 241.89942144334688,38.08875167882786 240.38469920106994,35.242523934803444 237.0674660652767,33.16096910587214 234.63289432375242,32.2680126825868 231.70539776166925,32.983163377159826 227.3600718302752,35.91607878060972 225.0915963146592,38.36735857707265 219.15315108989552,42.67526192458854 215.41919053391484,43.76013454059387 209.8003536625527,43.88117907462481 205.36566918472226,46.07941058175504 202.4279120204076,48.42846868662764 201.5897583255041,49.713304973131585 201.005114978208,54.96209327611621 201.45289999081564,56.91696545639854 202.794369854803,58.02704933520431 204.9694838244854,58.84544319999998 211.4264832896948,58.656827504407715 217.19765148639505,60.050134325724116 220.21857634938453,68.00067066454426 220.35780879654024,70.6758027984564 218.40268323646046,72.52667516857252 213.34360577883646,78.79081269650533 210.86352512016444,80.22374861189132 208.47420075763023,80.23640912961332 207.20229179845006,79.70366512883061 204.35005873865128,74.74710258552602 202.577860937033,73.15339857565255 198.0768273507658,72.55325841814295 194.74876946774663,72.6773879550276 193.74261498768755,74.36633631745985 192.46698606059743,74.51543072999084 190.16025388718555,73.09645382953363 188.02852006024594,73.01924213695372 185.20403052260295,74.10600253954397 182.61068070720808,76.38086584044356 180.65132070482272,76.30946413044012 178.34769340491675,74.81150075966366 176.24884289998732,71.05941990669396 172.9205834710013,69.25097985382331 171.53208581283135,68.86840751799116 168.4842269540996,68.83397649817789 168.27772929332733,69.19696180239293 169.88408232430749,71.93707601623942 170.28553437717255,73.46274820864448 166.11769303198216,75.9417638040212 165.7626264334706,76.74774190738731 163.7685470804938,77.88311749846241 159.19621325961367,86.29601386225431 158.0661311466595,87.69744825256794 156.67809828123532,88.37772459079656 151.6292649257436,89.30152554206381 148.02192446657887,90.83498094827132 145.53545890520397,90.68330760088577 143.56361709466367,90.10194264487495 142.55327304001224,88.83472590876238 139.56047858385506,87.55123611299871 136.22047051398994,88.72253012678686 133.26003775210353,89.00078761697318 132.67061532879396,91.39822361702556 135.00189467851942,94.04298320441171 135.3685576299332,96.72057495705928 137.58768113446425,97.50721704229227 138.66774946030228,99.07996563240647 137.66718321394964,101.59923853317491 137.99140576362814,107.31188008557604 139.32199427389128,110.63235596680033 141.12298794513617,113.35547217933504 142.15051315321932,116.08883852323504 143.24709679300145,124.59644296350439 145.34176895473655,126.31547480499592 149.17231840058278,128.46080861219468 150.32565986712734,129.76345790511368 150.62731552318616,132.06052638511267 148.60980195263394,131.26275604073965 147.14853642307912,135.49678506091846 147.98408851566612,137.67739670905212 148.58084178338112,140.53306214534234 150.78286622090954,141.865477525345 149.80244957340417,143.57826037428254 149.73327147992987,145.9894243787171 150.56242951530342,148.91300085343948 150.46912596131813,151.9787314592288 144.97659933867354,151.4129241192603 142.02377488861495,149.97367940292804 140.25631161549347,151.45203127013235 140.10460077179272,152.2382452452207 137.9589569608824,152.38254885812216 135.78138187116576,153.64047895973772 130.5995276830275,157.80598316092915 128.9987547674987,160.51302681383368 127.15531611304854,161.81249570940042 124.29335198904778,160.11018875816376 119.63286498713137,160.67700702950287 117.33934901405846,161.45999909758996 116.3807371786646,163.878244923877 117.31176321827971,165.13632387467487 120.4412904930079,165.1669674610049 122.29266387061016,165.82389031937407 126.1172053121891,169.8711524415222 128.60706224351233,170.91388884874402 130.70957472615802,173.32080466437583 130.7037855063471,177.54683190476635 131.07359675503494,181.82663796536497 130.0955536937353,184.2359754065601 130.0936679522301,186.46706284696836 129.29007592417216,187.7582715409801 129.1219254692966,189.787647484569 129.60535643360814,195.95251577898694 131.64709357843776,200.03298956884532 131.41332495559067,202.73632039670474 127.08891085270355,206.9806062321162 125.02574036435422,211.88801568835459 124.30028961404331,217.61025981125545 121.20739060891987,223.53876886835667 120.05033367767217,224.6905588163096 115.11760413384455,226.53307234275576 110.49719658443391,230.90540649702177 108.73861078320596,232.00500023452616 107.60870173383,234.3046858119186 107.00824580041602,237.2027595490083 105.6676783119968,239.93602720414526 101.78031201797778,240.543095958187 99.68868632378165,242.3161566488218 99.24747226363225,244.23097172462747 100.46118755844105,245.65001351948138 101.16909060377849,248.26574650685825 99.92383016805711,258.4090255145569 98.57644285667882,261.29077080957927 97.09703484568765,263.33393644583305 95.39496786222377,264.5053276134404 93.70639028995485,266.39340145610186 90.4829372289264,273.8853153404791 91.07966749677603,276.7446323972033 92.15717224417023,277.7381908542717 94.29192920556798,278.12371629036227 96.0018626603447,279.44555003428525 97.83744624402895,282.5878883871119 98.00368683725833,284.1354418681517 96.97171552469209,287.3165947686846 95.68019808525577,289.2409306671043 92.86651614700797,292.413605091562 89.7116304680705,294.05089827795655 87.77664413030374,295.64673173993106 85.52384219263877,299.1159574597842 84.89762063191414,303.1588059561642 83.51318710515191,309.8848517392454 83.66078457631734,312.44543121933964 86.79497742906906,318.117592245027 87.37645453743467,322.7496816969734 87.49326180175593,330.71692550792034 88.08140420375399,334.6623379898667 90.63143945619981,342.036246061332 91.48523661263222,346.022754647621 92.0181012261561,353.08614101030753 92.521383929757,355.24012815182675 94.15281034105118,358.76510752161687 95.69687345054744,364.0781615932908 97.09885427711656,367.45751579441117 97.35830116725182,369.56365735075883 96.41208536855245,372.6188846168026 94.8636737380032,373.6729501700963 93.04202413331207,373.8013527569609 89.10214752228026,373.47532863727474 87.44552707088819,372.4970107130256 84.95255148576648,370.2959996335949 82.98826112078838,370.1228854321722 81.2310861006916,371.2572404838668 79.90525108058253,371.02943611127205 76.44649051883448,369.4010115072373 74.0701527790688,369.8023693597271 73.12369898070783,371.4693273469841 68.05394335467436,370.62483237559286 63.97655261221013,371.20616479555895 62.7074232492266,371.90560256535014 61.12347900898456,373.84295668694676 59.948376510190705,377.94319426013146 58.51688465098159,379.10884115751446 56.4736408178231,382.2796523941503 54.752608686927346,384.0253983428495 50.84637597144314,385.429670521911 48.076893592630945,383.48983484555515 46.30430295165033,383.115367803739 45.115837613729894,382.25130419175423 42.98971474727895,377.2729284937967 41.85457255589314,377.14959509629614 36.48390173316273,377.9234778716135 33.4935023824291,376.92906230380606 30.96521030071549,375.42054356936194 28.416622458090583,371.321450734884 24.49684024005643,367.89635512536177 21.973254024987472,366.28919223723346 18.63122182116865,364.6196460034952 12.811060672869312,359.2270458515525 9.994352378592747,357.5384116247727 9.202172030600716,356.0494779988411 4.760740008740909,349.6288676647513 3.0446066258535964,347.91575460912986 2.871405053881511,345.86157444439107 0.0,346.5618213218785 0.8361212092601213,348.2099690171855 0.7144210169052363,349.9471365358165 2.40956572740617,354.7115927289092 3.4824007893460434,356.8616523139128 4.088887041737378,359.37727079897525 6.13158715317487,362.68927609445836 9.871627810335939,364.1497682780374 12.603665562680119,365.65782216244725 13.69776076169073,365.77090269010307 15.677571988817121,367.1007756793945 17.47703221625245,369.8613951040635 19.130985506619897,373.1872800357753 20.793725801940802,375.00676087512124 21.808911637965863,375.04723370371687 22.59403925767536,376.9989654092835 24.480193796085832,379.6745049526212 27.444238796891902,383.15119744264075 29.115558319916605,384.2618700008529 29.992327215561275,385.9910500357606 32.24801223181516,387.1440221733757 33.38833490779319,389.2284785411117 33.348530596601535,390.4978257966702 34.41854658632862,392.0279639045883 30.10511264687371,396.9227829879354 29.28838731344983,398.6053252463262 27.004611828566762,400.7425504295534 26.41880635230002,402.81893585305363 26.94964895548155,404.2100208073492 28.43747207045605,403.75642990746064 30.546931489376075,403.95790753323115 31.70344653214456,405.6494280530088 33.4809050485674,406.19263295185465 33.957465635338465,407.4043523677826 37.562190058442845,410.37497614229494 40.08882152799747,410.1682816243856 41.2639277824397,410.60862082568144 44.40488942229371,413.10698773009665 47.62055493926552,413.1532807289186 50.14493969269511,414.601783040958 53.96758574831242,413.31048039916004 56.61433618716736,414.78317593764837 57.78751238799619,414.7492948188028 60.17611929524111,413.58935035543766 63.89355757881978,416.89675552075994 61.971656133192766,420.09613628980367 62.81647427026048,421.1246134576048 62.70048859127674,422.53998813599037 63.396602929017774,425.5742379135098 61.68743196588419,426.43565897079475 58.24417854447746,429.331035852784 57.0419209968346,432.7765339304066 58.78589013601655,435.84239585059174 61.404430908129484,437.03771099221024 61.92577320756821,438.19225877770793 61.769375087723915,440.1295717494655 60.71177222584566,443.83836913797177 61.771998791500785,446.2469186557598 62.05938125371985,450.30392380807075 59.84838622311303,454.0289586022807 61.474778104774714,454.2884870734023 63.07881974677728,457.8340503078275 64.02888559679526,458.5610752417293 67.27328266762625,459.04982955401454 69.51539849092345,458.009873086589 71.92330912154094,455.03168455615105 72.38923925193224,451.703722113195 73.66055604537726,450.4688679653734 73.89794767551281,448.54378675314297 76.80413216167003,447.60805166570447 80.33457342439638,449.2112585235118 81.70861441256345,444.68518043058907 81.17018546340536,442.86910383152167 85.57883542663737,439.4246368173467 86.155658527609,437.7596560089844 89.30222709573772,434.48474786628867 89.79018978066406,432.71821735846197 91.03049522034362,430.9007663877421 91.19171646374674,425.76967838620465 92.20253733169945,423.49053498948876 93.34343448270201,423.2177448187273 96.5161924376491,420.8420606316017 97.26199341688418,418.48445262352016 96.3759680393878,416.8938974390769 97.13723434793148,416.3213448228406 100.02320860349413,416.1034879078452 104.14229009772848,417.5480042077629 107.04394089335747,418.0104613594782 109.28961254607802,418.9805662801624 112.31720183951555,422.16760561248043 113.88447162276849,423.15201955080283 114.690474264419,421.9198103259979 116.29627642440887,421.01274633672176 116.90495457349317,422.0702726474492 116.87084954156154,423.84329786394767 117.99979354085251,428.6559811586841 119.99153894145903,430.4146617938402 120.8217363101526,430.4847118835444 122.82195777874351,429.197171157585 124.67789728514963,429.6096908091014 126.58174952978774,434.076424576268 127.13959090671102,434.5700151834774 129.07993779830872,432.9544864639664 129.95423881323921,430.95509466495025 132.38659092614165,429.08153221691737 134.08950799542563,428.324716793977 135.9984532589343,426.1265931819722 138.60084512194962,425.5008346203049 140.1809565434431,423.0049587391817 143.97988844263637,420.81571061834427 144.67023087050592,419.6185075590048 144.85416355097792,417.6444323250382 144.39794511444833,416.04157346705676 144.73318153342228,414.7137642189974 147.484519928436,411.0486703253232 148.1091515370398,409.10069841594645 149.26180841879187,407.3194930112327 151.1401039957717,405.6336029666984 152.05185240130348,403.11504373894104 154.74812325747962,403.53639539481674 157.31236113324738,404.7799505559384 158.54590387442607,403.02139682496477 160.14083863712133,402.0636862831801 162.25406319160845,402.12863616480774 164.04042656900734,400.98061488971564 164.65232591953244,401.68181902184506 164.29694898038045,403.88516099948197 166.8558212822878,405.295262998485 167.3089907239424,406.1286421815445 167.95250026826955,409.726883874744 170.1707699010739,411.78477509139543 170.3292247689093,414.29277254359727 168.96921340645753,416.4517224259506 169.0783972797184,417.726472137707 170.71454323556586,419.11391784817624 174.2375563471632,421.19836064235756 174.16009206611758,422.53559943238804 172.8396060281274,424.7360823118868 170.69887253534824,426.59272113466375 169.63929283211792,433.0703066664212 169.9811815856575,437.10430356351196 171.0158935778707,439.25997971474203 172.25269294689303,439.4610635769126 173.08318627241292,440.99845520464476 174.22467463613927,441.2845855242224 177.58085001673854,445.5820576157364 178.77477350959484,446.737740650271 181.40930643577317,447.2628948113472 182.81700244924545,448.1795181892729 184.61111382388773,452.50161379683914 187.02932867142846,454.25137027163544 188.08081332635427,456.5658407606585 189.20079474747888,471.5891759970737 191.17856560994267,474.5285525612417 192.54943808869422,475.0588662691761 195.03748554528562,475.12408233899697 199.0672290701509,474.6296471260237 202.06727540111478,475.0670309986533 203.87659233500258,475.7201343968142 205.94061411527088,477.3688560720778 206.91754301887715,479.2173448103106 202.89550008186137,482.21983039024883 202.21608832403894,483.44054485206846 202.4553647790998,485.1857531483857 203.5785359651497,486.06273531311064 206.81419147194904,486.56684236009295 207.63262244974487,487.63057955477325 207.04119651629503,488.3806187127856 204.5188710332615,489.6183460319579 203.73412060094734,492.1289031720888 202.5053602839548,492.541758463917 200.9713392720811,495.59005603086524 201.98401895116962,496.3942411693476 204.1532138484323,496.1812073758503 205.74134176689856,494.8820036234526 206.29441574536696,493.4394828486999 208.35305626333937,493.44965437781815 208.4842243412969,494.7570789893736 207.5725401476307,500.44343665854893 207.77049708668335,501.59560103984677 210.36169985449055,502.3243185308065 211.49659089870627,503.18191074846595 212.34802269401817,505.12609898107206 215.2474632416833,509.5882156722119 216.4997421876763,512.8103724866455 216.3449687196531,514.988321767458 217.55738404556894,515.7000859604133 219.28557880085052,519.5017927897483 220.61398491126658,521.6994714954252 221.74492493026492,522.7051380595998 222.63428427178837,524.7897439280378 222.348410422624,530.323860625591 221.5580684614504,533.0353224284482 219.4593591590207,535.4170305603504 220.1021674755148,539.668959002779 219.04804754893308,545.3679117992081 222.05042058681047,543.4205569006144 223.33226473217212,540.8133899562895 225.3671240486373,540.0599058186056 228.7825798574418,540.8933948476005 230.02001855924905,543.3954606664183 231.46715177617583,544.223814784843 232.38018671876566,546.5770459222197 233.71624375502424,548.5978684863853 233.98594917681518,550.4458041176074 232.49700213960563,552.1570925039459 232.59431152002742,554.2368486667241 235.2281749670445,558.8618147622728 235.37061270999394,561.1413488571861 237.7766307275074,562.643627192668 240.59797169932565,568.5413435503694 242.35449482368978,569.7354242786695 243.56184573392892,571.9606989289157 243.74094741478697,575.6966265181593 245.15143287728395,577.7208891070418 246.76713076734436,578.4949525114323 248.1888452132246,578.2437442861858 250.0932282676787,579.3533074022669 249.53366626347906,581.6907000032999 250.37156427719185,582.9147889150411 248.2883989571518,585.4508880347886 246.89406864135944,588.3856639738265 247.08030186253123,589.0151208994248 251.26211242679832,592.5337924174262 252.26181419569124,594.5257008076235 252.2270769927113,598.5340545358963 251.17948571635927,600.9561798595898 251.4658310347777,602.9950038139967 252.60641494703899,604.4671662340206 255.18773284251085,609.0350652805035 255.51539156326373,611.7391448013731 254.05672764541916,612.7924144675576 254.90385146278012,616.7020454840482 256.42068949317775,618.7112300955948 258.3206134243763,619.3952604977317 258.8551721507119,621.4429458932982 258.5976598920616,623.059618022854 259.52205676866015,623.8911306395221 262.9930433609343,625.2189316531138 265.46513808138053,625.1280450654726 266.71091046002573,623.948316259571 269.90191385025736,622.9979048224526 271.13905283440783,621.7484423078638 273.1074136434614,622.2356935937971 275.4097827786278,621.2771599020705 278.397659705711,622.8653841501884 281.55807099641015,623.2206280452361 283.4725657077695,624.7852246359869 287.29213618654813,624.8728615643463 288.7529929270966,624.3926405132447 289.3109073433781,625.7469705435478 288.249976164822,630.7077950674752 289.07247188351175,631.8525278750437 288.3715360748826,634.8331742747108 290.33532923974263,634.8238416220058 293.70331524046367,632.8060522615442 296.4862807091762,629.6213268463125 297.3876117285475,629.5396962479712 300.0755432389644,631.5332200754945 302.5848185756517,629.8652876750318 303.96833470961656,631.2641643064644 306.27652740650103,631.8092324895576 309.5789184910755,631.2347992224707 313.3652081743206,627.9500366352718 316.61375920896256,628.136226935929 318.16082801860864,626.4785833387971 319.77670103873885,625.9717262976103 322.59456542752457,628.4820926573138 325.30839252969514,627.1756188481836 326.25616570689004,627.263220710216 327.9598201414512,626.2336916135649 329.00740443774475,626.4328284448183 330.20792792434327,627.7558058851467 330.76914686394895,629.7531436672284 333.58992754768053,631.846922382279 337.49682619827524,631.4161753517144 339.1260391969835,630.4432652685957 340.04145939456305,631.2919897976319 342.3208981249792,634.6171680989534 344.3417415984606,636.1815281786737 347.14412826868045,639.3037619020752 348.162560684434,641.9687954050682 349.38145361088965,642.6972875976369 351.3094961998838,640.6820996141732 354.08807810607107,638.8991247138874 354.9071033158352,637.723700550629 355.16773376206413,634.0265188787232 357.16143493259483,631.854690261845 358.63245850876916,629.1633286538722 358.80081603347685,627.246825187659 357.15941377355335,623.9714096821999 356.71287205444764,621.5327616991967 365.6754224358047,617.5306196240149 369.3708200337601,615.3584093421453 370.85791887669234,614.9745898275202 374.2807115547677,615.8630669365502 376.3073620972887,617.9592217466968 377.55352895298523,618.4299671487933 382.6643656558508,618.0380168825867 383.0038385122289,615.117351805069 385.40942942638264,608.0481944463404 385.4039594816495,606.019479448674 387.3379694008467,603.6388759746153 389.7285638983691,603.3886671846454 391.3682466037653,602.3058749215252 392.6707480916752,599.9771626145928 395.03184601440074,598.5386050218358 396.12703477942,596.2340468282437 398.70220965711843,592.9912031479041 399.68595186798285,590.9806875905399 401.51919274840077,589.5669271489013 401.3270613569487,587.92993363544 402.33664995815786,586.8400449774447 406.2175421116862,585.2055512101389 408.31958225038363,586.0245436097034 411.0181307940702,586.1472517301128 413.049290738986,584.6399853322491 415.8685520263741,585.2500571202097 416.19544100969375,585.7436553751805 415.63730468353054,589.2293961759217 418.3523730645776,590.2715286956635 419.09696932965363,590.9642414646373 418.53396040652746,593.1051126244515 419.04909148628644,593.8905928479069 420.85065361256846,592.8708157216482 422.43545912403783,593.7735834025372 422.88550552115794,595.8429685925487 422.670779055311,597.3111538524845 423.7098745952868,601.2759714807413 422.761104200788,603.575425023304 421.81678798753944,607.2505711839556 420.5499429247637,609.4727959133414 419.945467677058,612.0095885079852 417.5189996316008,614.3595190553646 419.05598094763025,617.4687594268548 419.55831680710213,620.6794152117291 417.8333209453405,624.5729761858776 419.6990896622625,626.2266728236937 422.3173720692732,633.732392812467 426.45497180234133,640.0912829497204 427.25882589108335,643.2817967636797 430.1921060267717,646.023762503956 431.0475557414188,648.057216095883 434.33500604545753,649.9366410488634 436.8180705453352,649.3971315408569 440.6640946403094,649.6660218704732 442.3922573550156,651.1472368630449 443.964721123107,651.4555182099728 446.7004427684427,649.5355295159658 448.69862978949936,648.952989069415 450.86899843675343,649.7123586927289 458.3170968222773,653.7467548981183 459.9189859237168,654.9366253417584 463.5161731014111,658.931331167784 467.9190036626567,652.7320400339304 471.19912206304747,651.6855788568623 478.0581112685151,650.8468380818706 478.9783583038642,649.9685568313482 479.3783687213091,644.69980808166 480.75249141836696,639.2780397416811 480.4728639548103,638.4787709242789 477.76918275683096,638.005638765244 476.45707076238847,634.7451645727518 477.4044854942631,633.6005145863626 480.6268474580683,632.7107716305582 482.0373322035203,626.648555368747 480.85419374532273,622.7691461911061 480.95720297932064,621.5346922124479 482.4546393037036,619.8403779573102 483.38382834406093,617.330188121028 483.28797173836955,612.8952271659887 484.2985161324351,611.2583266864356 486.22038383618155,609.475851879366 486.8700427863584,610.3130229564074 487.23074246676543,614.0717054214985 490.2309798200567,616.6689390552315 490.512353624599,618.6449592236104 489.0829126666798,619.6981064769509 488.94940192670424,621.7628093640076 487.48504207916073,623.3892245032646 487.7025009585854,624.1862943075967 490.0575020863386,625.3628784894239 490.19779784267365,626.7914842656339 488.758251658767,627.8247421447561 488.8188886665232,632.0626619031738 489.9341241954145,633.7237428288631 492.4434607153405,635.7850832516416 492.7854103740252,638.684263746539 493.59883016821595,640.4566488041253 495.67010873804065,642.7353132823896 497.2687152687357,647.0420735381581 495.93739785344223,648.2770830690117 494.0677759169433,648.2909765628797 493.49312215115526,648.9799358132252 495.40609314384454,653.5431161384834 496.387216138015,659.0547572262058 497.96409139508773,659.2020420350075 501.0075058612039,657.6711672294095 505.470537558191,653.787329178482 506.59681367383996,653.7748457671739 511.3656137769327,656.0485150634254 512.6811955998182,658.9227393814818 512.9474788895961,661.6136533476748 516.6665088279511,660.7412404975612 519.8813232458813,662.8283555227265 520.1604277518186,664.5687571979046 521.9672432724752,668.1186322497558 524.0351149234211,668.0584460901202 526.2378792745889,666.2176323500216 527.0056621262645,662.9865060593079 529.9637440263017,661.0646076662321 532.1667034130666,657.8472764915092 532.6237584701506,656.4118427206071 535.1659574237826,652.3514501540653 535.8239920729842,648.9207747312971 536.57699660496,647.175510431269 540.1231127140795,646.0795957610844 541.8745628274521,644.4468483292991 544.3755937703143,643.4452687376872 546.5877090119151,639.7244818746206 549.2392128985863,638.8745537776492 551.6111535513662,639.4235422144277 553.3347665867296,637.1666186958801 555.8061891264837,636.5099175145824 557.0473815565543,636.8450406666401 558.4130732120798,638.9839818388953 558.4776536348676,643.4401225172344 559.9644988265206,646.6314623729653 560.8910083870385,650.4246554231015 562.7455415364507,651.9812332213526 566.1430366359087,651.9583976503243 568.1249994963108,652.4480935301694 569.9216769009128,656.6271241182645 571.3996528268252,657.976993057986 574.5363309406702,658.5613976297514 575.9001097054106,660.4135681744436 578.0845882234763,660.1743081776965 579.6426606630458,662.5954842653733 579.6335181836332,663.9519360313569 577.0094404301653,667.2621219944092 577.2360864275872,672.9435283729074 576.3766244075127,674.4403877411395 572.5809238320201,676.9528055436967 571.3819353861016,678.3728201732172 573.4663023516906,686.9513477974406 573.9575209216698,687.6462321529336 574.5088885663858,692.1879956878736 572.2239685110193,696.9063050563502 571.8316181120585,698.2854737472633 570.4478428350654,699.6134486001562 571.8002976971661,701.1106015462631 571.1969202573633,702.6937913376801 569.8695210241548,704.2709888466027 569.9846350945573,705.1460142778192 572.3241656794388,706.923139113964 573.8631954464665,708.8908948192205 573.8648068879752,711.6480648683196 572.4230776299893,713.7091591677502 572.8649078950823,715.2663267394826 571.1484152740678,716.6469654928788 568.5864105783112,716.4816686808108 567.1904988525924,719.2682071324496 568.3030039471847,721.8324954200673 569.4276393167223,725.7267282140335 568.3231405891785,730.3067355809658 568.5102954119965,733.0897806122011 568.0886968616257,735.7801872662666 566.2703892045064,737.5068448500448 565.752461428283,739.8579187251806 567.3431484632205,741.908000678206 568.7216689649235,744.6585602787401 569.3288050768055,748.5936143329344 567.5544799606674,748.2963777808243 563.1653564057173,746.3726489075988 563.1725398961573,748.3784639497744 562.0387697753115,749.5449101026053 561.0650637864936,748.629671851679 557.9980551442034,748.7202860451249 557.524059072774,750.9340714486931 558.0241393343034,751.7296979097713 561.2392615949381,754.3236083588263 562.2346859094785,755.676299116403 560.5138313634607,757.1378976503969 558.7423337572636,757.1581594454352 558.088268908543,760.0239072475532 560.4199103086571,761.8535935665734 560.5340342983848,762.7800183165813 562.8781994366643,763.5770196512048 562.8938871001154,766.1500396388474 561.9047721484831,767.7872663577057 563.4557698105525,769.331770591873 561.4915735470054,771.9509116889931 559.8466453383918,773.2361079114122 559.632033836492,774.5033355447821 557.9702860415787,774.6651986225065 557.2949101033043,777.5519472264234 558.6665185534699,780.1958795043997 557.8008972706367,782.3036214514116 556.0534111013535,783.9844138198483 552.7681948615145,784.885399617067 552.5440511001899,788.4190727869556 550.8398909401279,789.5341814734123 546.6594813840754,790.0868145666246 545.5324992628778,791.8013661887964 546.4855864270854,795.5314816549164 546.4361501080682,800.0347485776126 545.5378636778678,801.2478888632779 540.7237600485499,802.2433173358763 540.5924194450206,800.718803756444 536.8374517730061,800.2856193883885 535.1444357738486,797.6615665984081 533.1744194664782,796.7314047927229 532.6754616266079,795.8749850263213 530.9149415590058,796.2224509404851 528.6552919768686,795.7230169772789 528.295829073513,795.1283154048998 529.61320203468,793.7464377418278 529.7833052391903,790.8568369100345 527.1365293290612,788.7181728995647 524.8572915569516,784.1620936142208 525.8927228059232,782.416666813785 526.1684653349168,779.00381517162 527.2862630704717,776.3759019695638 526.9894210839033,774.868287849777 525.127034139207,772.0526567809915 523.1301290615982,770.5654807273843 521.7034786936496,771.3172213549635 521.2804146943972,773.463909909447 519.1311095569441,778.0750753699948 516.090464798161,776.9010223551047 511.92901456013516,776.6742856144942 512.00465025803,779.627833576541 511.18652075859023,781.7957372012157 509.9426175661451,782.6808256295149 509.3383798288542,781.9210074783045 508.00878570247016,784.6732752443427 508.79374101121476,786.5510620288619 507.96000114985094,792.8947383116583 506.67450390180375,794.187113839984 508.50796558829524,795.602633363949 508.1144579440306,797.3437447313895 507.12084466248467,797.6981133741352 505.1870274378675,800.0891624031564 506.1418000715877,801.3847967499698 509.9315927424525,801.6630439786607 509.98384753146166,804.3002482622258 511.38734852166164,805.4970403759987 511.9156784828955,806.8623264136863 512.3369706428466,812.3536848848427 512.8666125800996,812.7740812291295 517.6357087595657,812.9447497619399 519.3110591464289,816.7645821454663 519.6261655601837,820.6326800172168 519.1456320841411,825.2493725467725 518.1679092004892,829.8249141103391 518.6620158391414,832.2553533475806 520.4580878143291,834.4968623240619 520.2470024502438,837.7971499523317 520.6213817521511,839.1202215777967 522.4817796477379,840.3976388448208 523.0577249712824,842.4520775599021 522.3748568873665,844.1491331857019 520.2615908017557,846.1716561335584 519.7452305746101,848.7490075314437 518.9216487503521,850.2340920620043 517.4887859758012,851.1071546966771 516.9896580944807,854.7313620170819 516.2536486829397,856.4576690916097 515.8555687879439,859.2975379851714 516.1737763949358,862.1642431175345 514.9877747248753,864.9266185185802 513.5813798094902,865.5216513813909 512.8806787723537,864.8179417528365 509.7830603857905,863.5204367998604 506.7772741610149,862.7528684724755 505.9647570502254,859.725011210437 504.790630904512,858.4023802524853 503.42333264281376,855.5707153349465 501.6501050478995,854.542987946179 499.86386989574595,854.9591278105808 498.1869214423943,854.700237015169 492.67546719727113,857.1000041098192 488.7244281866281,865.9237077858409 490.9690427820592,867.2427673945356 491.40371728767786,868.6284551682934 490.31221044480895,872.5691133595606 489.4713287360858,879.9354892676733 487.926999115292,883.2286354927265 488.0488992990672,885.5345747190554 489.1499040046887,886.4582217936961 489.6151583187549,891.385351310926 489.7123461149402,895.177311982366 488.7432367629496,897.877132374591 487.0971499349413,900.1621777725302 486.33093181725434,903.07670765059 486.2449092581451,905.8081003878895 485.62432929795887,907.3994512951549 485.6740337243657,910.9924900647682 484.5227239553506,912.5814816188174 483.7362080556037,915.0176034465903 481.67110188277275,916.944373060343 480.1136458630784,918.963054612201 480.1606044989401,921.788698668582 479.5006741885951,924.1385724801545 479.5879360700551,926.1469823548666 482.1758762460014,929.8227391301357 481.8040981141013,933.6177676228389 481.02755065897367,934.7474376809005 477.1560032236801,935.5235953257409 471.5571545655672,937.5260499508533 469.8675553256811,938.9133005163851 462.7816599766287,943.7748978267974 462.07476149992664,945.8551614338297 463.36402314539436,948.0940954839512 463.7017566326401,950.0603107924669 462.04223640434515,954.036126000031 460.16450137545667,956.6880287808243 460.13409270473187,957.9362736207742 462.28403701292416,960.806561957887 462.4849443301748,961.9805568914433 461.73518112056297,964.9506281054288 462.0684823963249,967.5471081615576 461.6108098244169,969.6449410202939 462.08557977001317,972.8552603919643 460.04529388182397,975.2945964799572 460.48386572449476,978.274468526785 465.28191211826254,977.7808239634 466.6889913186375,977.3649802428719 468.91484295876177,975.849006403331 473.3058695919052,970.556678624499 477.257395927923,963.9649477817525 478.4368033277824,962.5741744198023 481.2384150130283,960.9022343441338 483.3743372003908,960.0337146224497 484.8219400681125,960.0679902090217 488.03256833858416,961.792211658748 489.49356161733147,963.0358360864827 493.3415710465435,967.3728839849816 495.4141982451173,967.881034613128 497.31886052004876,967.5458483954607 500.17741418715775,966.083104848794 502.1630158216219,966.7388546580186 507.3576451068116,965.6295935722914 511.46463974506673,964.2249582783575 513.0692082412108,964.6814355815374 515.2288338798465,966.8589280855795 519.9982229528601,970.7046445682961 523.7769603139941,972.7484551077868 526.2884738974734,973.6946435439995 528.5844225613587,974.0258390867419 535.0224404604456,973.2400248763096 536.5193879400501,969.1761681350052 537.6628486291058,967.8923703233507 540.7031867708846,968.0097662673959 541.4819129825233,967.6670717586766 541.4901205900975,965.3992034235606 542.2214574374414,964.36627129517 543.2577133766267,961.312107076735 544.3539373452396,960.7268707191461 547.4526139760013,961.0047087722687 548.3707820250099,958.5575069650263 551.72916822732,953.5967808381624 553.8940617927196,949.8391382633159 556.6029247496218,947.8706844057452 557.7549199829582,946.6074367485933 560.6726801162623,946.5207922762249 566.0701026861202,942.473515009115 568.2059217700119,941.4309267176741 572.3364971483284,937.6457423800548 573.0947936124106,935.2760695198466 573.3641837593937,930.9302195067477 573.779002911044,930.0210033995925 576.8351901085075,928.2294977983817 577.9844728202397,928.0242986181344 583.7430720416183,928.3550696428885 586.8152320087969,927.7607947040215 588.8798590867021,926.5765395469815 592.1829337372363,926.365799831717 592.9901520786622,925.0754068719938 598.0540600825736,923.234265694434 600.0913548499688,921.819671439116 601.9643687898322,921.3092891253847 603.9674248246612,919.514643127139 605.908889117976,917.1602000255009 607.0417442181215,915.1584023062298 609.5266721844114,912.6654982005853 611.2698176809454,909.7985533955314 611.8391318511267,907.875334092289 614.577008634386,905.6769225752874 616.8752840587649,905.6733009959613 620.3837084893813,904.9660109614548 624.900607958792,905.2952115888057 626.5585004156789,905.0789904001599 631.4121187084943,903.1008659287215 634.9182183043245,901.4050276255534 639.3082419903002,899.6864963316236 641.8670367984586,898.0214508973493 644.1515799700888,898.1555101841035 650.4671734333681,896.2536957025842 653.8110095625215,894.8024300307391 655.3530657766729,893.5161415356996 656.0915232429672,888.5770607516484 657.8382635496504,886.9061154434089 661.6381340171474,886.5496819001717 663.1495147230964,886.857215817648 665.7494589971967,888.9787132169386 669.2245614878891,890.9969098635787 673.6732886526879,892.6443120434207 676.6401481613226,892.9582041542878 678.8798899821336,894.9428851467555 679.998742185036,899.1096918850471 680.7366017120037,900.8278387049521 681.2121033992374,903.8171451859647 680.6631375245803,904.843670887607 678.5777813031742,906.3108964118877 673.6397209773827,911.324870638082 672.7578765452174,914.020790250992 672.2655737497582,917.5918012542849 671.1617006479969,919.3567450560574 670.740184830324,921.3338290642254 672.3344407142233,922.3007526805067 675.8584985845472,922.4255514804049 676.7867295580772,923.9985027808993 680.5119964888895,926.7899888298939 685.237048039636,928.9806518200122 686.3533930072396,929.9684488138564 687.4009935491523,933.6087116469878 690.4474936852615,934.890745584754 693.9068177701846,934.0448711748824 696.760168105942,932.1502037210723 698.1083629977818,933.5706345111967 699.9506021278287,933.5334053266387 701.7561478463172,932.637585933683 702.8522648401903,931.2401350502168 703.4478397814692,929.3254414840804 703.5560514691472,924.349835536019 704.0277687541427,922.9619360049247 706.0585738217653,919.8461047096316 708.2449464470906,917.9298904190147 708.6200003600862,916.1016669495503 711.0883861346075,914.6986467704489 714.6330225915199,914.1719384590934 715.8388800667946,912.9864435756008 717.9613899180065,909.294317487857 721.0963027126677,907.164925206762 728.3840743543326,905.3153162670939 732.5078084551756,905.5045936593832 734.28269190862,905.0459551607814 735.60925107142,902.8055195689973 739.0710858321432,900.9098443289271 739.9792536698916,898.7922789051129 743.7143643502709,895.4161045003237 744.5355002511972,892.2612147456414 745.8556057408681,890.329867941614 747.1080458396135,887.4712901548469 747.9897980274776,887.545622767336 750.0238691131291,890.2290262232382 749.1411943654797,893.3829946827224 751.1089292213885,895.6871028534828 754.5398909483957,894.9555632927992 757.1190919805612,894.818062329309 759.4463581570402,896.7986208562465 763.7187562285781,895.4120750905045 772.061621924327,895.5042777941698 775.7755486071836,893.9086746212373 777.2847850782437,891.7302061574535 777.6145942420042,888.5774076556822 779.4615116835394,886.0559649367774 778.7198811964597,883.6438810378133 777.9261800928393,878.5719850440012 776.9996345253542,876.0478478117858 777.8459217343171,867.7371435262444 779.6611668937359,863.1858094660051 779.738561340609,859.5439773425704 777.915742096121,855.2952198605171 777.7734069580821,852.4668513651417 781.0817246231242,851.9412148330414 786.1970912353638,852.687119443582 789.1425935079512,851.458515674338 792.0059788962475,847.432589294822 792.68189994421,843.9407663651392 794.8724947387354,843.1583966305755 796.0450397588489,840.420548901919 796.1897193945605,839.0896544075599 795.5566724035555,835.6782750146872 796.0482632988657,833.3583398798645 795.355343304244,831.1796939240817 793.6534433889674,830.5668810115417 790.7770080215023,830.7816196553954 789.4099189094584,827.9659698445948 789.2795217797966,825.6471069818986 788.3788423143562,823.5351894155973 786.4501115906858,820.8406713785919 786.2517324190296,818.9287278455818 788.6255424663499,817.6132339317821 789.0919613703244,816.2782320077193 788.437615130718,811.6558483214918 788.9837941856533,809.1793567921505 788.1443227258455,807.1487188242229 787.8288475018979,804.7686221076293 788.6894788327337,803.4007368922187 788.4434790122482,801.200634912688 788.7571355342806,798.3539455570714 784.9158989506968,794.8265472325543 783.1766083113322,794.0743560065417 782.8124245238336,792.8467289989427 783.3481665592132,789.715793211558 783.232736675991,787.8265311787727 784.3300748407354,786.552528508175 784.062065411552,784.4722922207226 782.7776211142832,782.4955263176075 781.4966428666534,781.6213156935686 780.814336467017,780.2203010248606 780.9999929387234,778.942033545781 782.357128948371,778.2582257295289 781.8462336349264,775.8471163769129 780.1204847094766,774.9561702065778 779.8115406961874,772.2108939729878 777.3568369554155,767.0291414480919 778.8787519577025,765.7330481261067 779.6047388926958,764.3248950947292 777.6196476143093,762.2089128228658 776.4808197849346,760.2652384977487 776.8849445509236,755.6763423625843 775.7807455648046,753.5348959684744 774.4345258036658,752.2929506627397 773.3522020331042,750.0725630368499 774.1495443243467,747.4560703490645 773.453904808103,745.6689280083376 772.0583902365491,744.2973061773415 770.3627114114868,744.2301326790039 767.9187146313105,743.0895659954266 765.8263390018759,738.7899241076958 761.6381822557428,733.6427493149515 760.5814501927192,731.2254756373497 758.7451848150364,727.8032917803464 758.7782000692092,726.4255243134779 757.9073448244809,725.3006422086654 755.0720123184411,723.5480145142072 754.4986026216912,722.5866561357057 754.9301121926784,720.2636658431571 754.1996083473041,718.1794876230252 754.4111909304014,716.0314787964892 752.8823287893052,713.4684669703679 752.6028001580947,710.4006150311145 753.6849114133624,706.8803301866225 754.5532704122197,702.52431691241 754.2109018734125,698.8916863992133 754.5712639569049,695.87591580886 754.0488078035924,694.360985197459 752.420710550296,692.2631944240848 748.552477423923,688.8398905580959 748.2282202186707,687.2495888278664 750.2472091350187,684.5102696834326 751.0098500638254,682.7798909857369 752.1782872113581,677.7684879301804 753.5543195610072,675.7714853308036 755.0829630387069,674.5096982447988 755.9485567587786,672.7619169744048 755.9800522640587,669.0296860880819 756.322006592334,667.7187000255005 758.5927320717693,662.7875128982714 760.246181275818,655.2041185683331 759.7190315561686,651.5339351434764 758.1210343204527,645.2741182586335 759.017025774352,641.6584562954251 757.9781015503231,639.6231188605132 757.4401510894577,636.6367023934083 758.1538975370855,634.6705504461944 758.061282824204,631.563716568681 758.3861679596858,630.0263328423669 758.1052854297412,627.0946845463851 757.4766639918269,624.6024515877796 756.3741561577708,623.3382544337969 753.7378543930646,621.32630266457 752.6340820230306,617.7092761558422 752.5341030552444,615.7007276845382 752.5217427233501,613.9905025812486 753.1969919192502,610.6414542814 752.514632393303,607.1116115457235 753.1015318040103,605.3229684912052 755.1494817663445,603.6481976148573 757.4699686743622,599.8534672048393 758.2590908030961,597.0313360207992 759.6330481433338,593.7450326136886 760.6986754307126,590.3846045375044 763.7760669286578,584.9744409738778 763.9128151434248,583.554797197829 767.1550824696837,578.6812727870237 769.0741632627675,573.4706591238125 770.7956796326837,571.4554045276766 772.2493054657684,571.3312402844983 773.612422347422,573.5650850884924 774.6883839197054,578.2721941642133 776.9022989738006,582.0408008685458 779.221706714099,584.428651451318 780.7334952500095,585.1936912730318 782.0242310102369,584.9775614659043 783.9608372467578,583.6461348052962 789.3019669533145,581.9146877881517 791.7393945436136,580.7881955919937 793.7726590371152,579.1715411543539 799.8957418462787,572.7719159907678 802.1946307481128,572.5411759023482 804.3621316140908,573.4927777442726 806.2913754561457,576.5532963669614 808.9327359075254,576.1496395503391 811.9007059196663,576.6294028043646 814.9434942034768,575.5604157255395 818.7306921052428,572.192334202092 822.6221416656122,570.0794380296313 823.9563801933205,568.2735254095346 824.1351053251587,565.9471154701141 824.0583845834134,560.7356114691544 825.7969721294514,556.607816119324 826.9535507740403,555.6288292318376 828.3468491617606,552.5518314233279 830.1375885289642,550.3982665387309 831.0944118053184,548.3015429365947 833.5421446051213,546.8976899185839 833.9462678504511,543.8954342357935 835.2354270615282,540.8278638239228 836.7343863394715,538.8776725824404 840.5628101131621,537.2178572555886 841.7518552113916,536.0418381837169 842.2296110965755,534.2839879340763 843.4704983264002,532.3597272849823 844.2189579145315,529.6401151255302 844.3863013341155,527.2962715212902 845.421826378795,526.0496331610636 849.2827820336793,524.8630023549983 852.7897191281912,525.4154108011716 854.7542970592754,525.314999375579 856.8840875606342,525.8771589247015 857.3684372830915,526.5246701691467 860.6935916093698,527.6158734841606 862.6769391502454,527.6237484018935 864.7130269164276,526.8141139919127 865.2953537219613,525.5803021575553 864.8834539660483,522.6572623320333 865.0103127389548,520.1559921782848 866.3480018282081,517.0309839434169 866.2004613807379,515.8170355622027 864.3973828646359,513.2011930044564 861.3816286510827,510.6569283160881 860.7909300213054,508.80662078728557 861.2484908759241,506.20234730187195 862.3879769957072,505.49920091778927 864.7104570351001,506.15216937748136 866.0300422894788,504.30867671976284 867.5128862910375,503.28490404641553 871.3199034934252,499.00374324348513 874.9274965481984,496.50230835118805 876.7644750201708,494.291897257546 880.2980673564332,492.64602761014015 881.769461260962,490.85418611077006 882.4165291100824,488.5293810896779 884.7017506650284,485.73462298337165 885.8797338103113,483.5945068024093 888.2943187017997,482.6124301748261 889.8753896442033,482.58424065921577 892.0604524954847,483.44934993090607 893.4122307801665,482.0888614264367 894.9938280948189,478.84186515526073 899.6815363937212,473.41143010602843 901.1101993125535,472.41641954271216 903.5656813304997,472.15247895434624 905.3875685819028,470.07010876291963 907.063038463821,469.8156746364923 909.4516319116201,466.69762971550375 910.2663512970009,463.07803075684717 911.6180501445476,461.61956656751545 915.6630166532873,459.6338954521143 918.3390366895557,457.1885232781772 918.5369302599416,456.1090646587701 920.9366913209597,452.74594166430575 921.6016327607126,450.35487069265184 923.7874845515458,444.28574956437365 923.7631170064465,442.90921809625104 922.500786306488,440.51519570359596" /><polygon fill="black" points="487.434509262349,780.105602947022 486.55607949701,784.2699108501051 486.27454615022674,786.9077774113179 486.73894546502993,797.7188267678116 487.98707552556084,800.583880260477 489.7940045181454,801.3633618213142 491.33351336940257,801.1916609241963 492.9815341381197,799.5203680838113 493.89275026901805,790.4919367966473 493.5035621293005,789.4287478941451 494.1393983297553,787.9920826258274 494.8035553400317,781.4861699427444 495.5801761911947,778.9300562387725 494.80359633278357,778.8914651523444 490.9837103093461,780.8174824212526 487.434509262349,780.105602947022" /><polygon fill="black" points="554.4890685342945,735.7061239739294 553.3565478309973,734.5097058570722 551.7171492119419,735.6042714152442 553.1735275660262,738.0591779248898 554.7591222612268,736.5955757976787 554.4890685342945,735.7061239739294" /><circle cx="588.1647034478716" cy="424.44847207877115" fill="rgb(100%,100%,100%)" r="16" stroke="grey" stroke-width="8" /></svg>