<?xml version="1.0" encoding="utf-8" ?>
<svg baseProfile="full" height="1024" version="1.1" width="1024" xmlns="http://www.w3.org/2000/svg" xmlns:ev="http://www.w3.org/2001/xml-events" xmlns:xlink="http://www.w3.org/1999/xlink"><defs /><polygon fill="black" points="153.08415694026993,532.4624961192612 151.57671960550098,531.5831824095021 151.2209620879073,529.8428368742733 148.68364009117585,529.3028592629286 144.9665493812569,531.1959344576001 143.46031849352758,534.9184705036232 142.13454830621677,533.2510859792213 140.04831740759693,533.8274153971358 138.3195422930859,532.3894804661043 134.8387186669969,532.8093369949161 134.28799297572814,529.3872188351054 130.12441870360368,529.9376438226386 126.05115693997368,531.3737420034181 124.37602878667354,531.0468562572702 121.45270597273006,532.8367761265137 121.3951922756904,530.6742751992412 118.86438205315781,530.6531637326584 115.07293496286547,533.1056969617616 113.7202371927741,535.1620321367916 112.4937591477242,533.7375989831392 108.98075912999461,533.4623289367671 112.3893967794646,530.9127611821916 112.55364122708373,529.3191365929578 114.5901038867453,527.2139501683303 113.58657783302041,523.0325183538068 112.48562781065105,522.8005220857752 111.13874749215142,524.6527680608566 108.82485720636856,524.7917260734699 109.42681818324488,521.1221750388717 109.02628915036016,519.5153036735727 99.55026436885498,516.7169079754071 92.8357576795232,516.0180528045701 79.76038294934787,514.1645149026801 69.47114216132117,511.6247937118093 66.06101788584573,509.6320323893326 63.33957597315477,508.78423036095967 55.96898865286274,509.8109492741736 55.29904262144615,511.16393961843073 55.66215181939678,521.4923390417707 54.81866514785837,525.2650952975066 51.45216222744408,531.278583203197 49.3356003276493,533.6165413168945 46.91468747628817,534.9883401610144 43.807233001782976,535.3978623841484 39.9280781856386,535.0498048988004 37.87353964689312,533.336241360916 34.87757801183968,529.0001219986159 32.6838617010127,522.8809214338382 31.745459731197332,522.1356338381911 25.17840221302048,525.0061456674518 23.913748813099737,527.4668530826822 16.428122240289877,526.8056082099038 15.009166276922201,527.3498729930235 14.857293997428787,530.5849857294588 11.872860448722674,532.1951743427642 11.106731550651824,534.4164297336786 14.115560143701737,535.3566468843603 18.382111072386106,534.6520422907554 22.650002568882762,534.9065291572003 25.764463744048143,536.8141843269366 26.446887539916215,539.0217869364412 30.84855120924254,542.2736561501625 32.57664378938173,544.7463222144725 29.52264958092158,544.9811822910717 26.92602552182476,548.0274031539743 26.44663876662578,555.1054006073947 26.818267040992115,556.4286463263777 25.404319080155332,560.8009044893148 23.678326048571193,568.2808563981464 21.596287064547326,568.7297749114427 20.646581214237663,570.1687614434959 17.123804690122036,571.4894195626396 16.65690285038265,574.2606563728516 19.165099815612763,575.0533980595262 24.083603925746242,574.699045804875 25.575746751727518,575.7770066927253 26.063568934564085,577.6102392246298 28.387008649388978,580.6098254660542 29.086642165947275,583.6873644579105 28.128098243885272,585.8209957467254 21.670976706344515,591.0832586907839 18.944225741975096,590.0474871114582 16.68953497540464,585.9124853250173 13.977881191895488,586.4084067097291 12.552452473925193,589.8026925510194 10.2422131614787,607.3749911360156 8.924786013989559,608.8079023277896 8.022473494627334,612.0044654763441 5.842934273175038,612.4539601330221 5.029495596311597,614.1171294814733 5.792116185323602,615.5101450519389 8.334329189917616,616.3238448317809 8.804829641003762,619.7020835485537 11.640123463817737,619.4400653759972 11.770910541893887,617.2620622375568 15.993650688595858,615.4131839028337 14.47598420390488,619.2393977124697 18.178602972025644,622.1470484047086 18.178035903011192,620.4304139075575 19.889762890265573,619.3714142030611 24.634985536066495,620.4288081158932 26.035357830204394,623.3895352272409 27.622181532570373,623.455702732854 27.6253626265198,625.366998315036 30.00639671528367,627.5409730959536 32.852496365288054,626.7155491851281 34.89224071716426,627.3597453743544 33.174182285861825,629.3905816326865 33.93507924404373,632.1531014304969 39.007326683873316,633.0428727078643 38.46366823222039,637.6488689994635 36.46889016304482,642.3515333723697 31.309978602720545,642.4542156183074 28.864263305611995,644.3492030948703 28.141221452592458,649.4999170117167 29.860207447347236,654.7395460781335 26.857918264952882,654.4521493380116 24.885860469939193,655.1055593289285 24.524705742387617,659.8034751593863 25.335748107428255,661.1561529960693 32.57545525806092,663.1307809736462 33.21293899704391,665.4769528231152 28.498753667149135,672.1219432981661 27.598306991639372,677.942172666114 24.61428105186709,678.8510547026808 24.06778902930308,688.3322903781706 21.986996588216872,688.608184186628 22.71300225526333,691.8557311412499 19.81639168320289,693.6647102691318 19.45598096204703,695.2031665192216 13.132423850929953,699.3577240427895 12.493790110371892,703.6017130164701 14.122557515790335,706.9440437318151 14.316835013363555,711.426636797849 13.187632635066606,714.4680936692799 13.534985533792343,715.7448690651756 15.218286964437766,715.5443699186646 15.735398189178282,718.7037986108417 18.006590630832914,724.8570652344333 19.149470920411492,736.624981102714 18.9778685121504,740.3964238837038 17.736877833235962,743.4920905967053 14.850948574475781,745.9270320321134 8.865360906330457,749.3337790034898 8.109106978920227,751.3695928756754 9.19341497188647,754.546093674125 11.718566184663342,756.172443651985 14.628074006134398,756.1551778953672 23.49235953065137,748.6621620675357 29.09182510565131,745.0934786060366 34.33123386041844,744.7657822861204 35.35973478308237,746.1490695390391 38.151915009068986,743.2423360731318 39.33391520310562,744.7778193815573 36.352180688785424,750.3300666811219 36.52179533778384,752.1212536035598 35.57235764507809,756.3732294593858 36.853796632162144,759.0660967636061 37.29248868156633,762.1978943300255 41.9165937644792,764.1197157304241 45.12451497481304,766.73205699258 52.10525654934988,768.3735238748837 59.68797246199019,772.5705656237174 69.19458235459243,775.5265206983408 73.95348442975828,775.5787253461748 78.10004345703538,773.7202114774481 83.58989275447897,765.214447878764 87.09465162393991,763.9974811719192 90.88237031955958,765.3092233353138 96.23110567952128,768.879347856036 103.43110686129617,775.6375313315702 107.25086897267687,776.8247162877151 106.40577813234134,782.0429327273241 103.73245249753877,786.8825193004507 100.50469315179211,795.8613806831274 93.58732016153574,803.4254655828363 87.82988783337831,810.4024375366515 86.30280706925251,813.4970463150642 86.61766933811673,817.4540865908053 87.80902698608574,821.7918379677158 87.26173068972447,826.723536940785 80.53037767728436,840.3236234108741 75.93800156968568,839.8898665201497 73.78211501622656,841.2470292939618 73.12073555230974,844.5801793639281 76.06742512531319,846.099335455925 76.43806525344407,847.0809804083744 73.30985126329924,847.3296583187223 72.6430294114653,848.6609804675032 72.45790350625897,853.149524871698 75.49816370859578,853.6312170620974 72.64397563231898,857.9122676129125 73.4515932803082,859.341467519009 76.75554374629137,858.16651129195 78.48887962450969,859.216328845801 81.54897800926018,864.5034962156312 81.21397726525302,869.1596992306536 80.11560140686504,869.8594402512435 77.69566906977687,873.6136327806488 75.32879363276672,874.8402667179735 72.48662754956158,873.5141404822009 71.29768620446902,875.5296666746066 72.52268590975152,876.194833379874 72.19237632833371,878.3143176664317 68.94204267972549,880.1460628054983 71.11391672503298,880.9556469175211 74.92467213930047,879.0664784814221 76.65815799155139,880.1062752074123 75.78406474569795,881.5640852676786 78.9212859051728,881.1716005604399 79.82432891825323,882.4564500718088 83.3535348819616,884.2577628033725 84.50484053276617,890.7495494534231 86.3904047114166,893.9249686678311 84.82436776087988,895.9043834175947 81.75940551123024,897.1294294641584 82.90372986662136,898.4635047787364 83.0970521827753,902.3151578454017 82.17309315781371,907.4334599754119 83.7629532402996,912.1858742191071 91.30669456842007,913.4930684967366 96.42601185815401,913.0879146093872 99.53926899327607,915.4801507211982 101.98369804328563,919.7200667995648 106.7622977913176,926.85457223994 108.04055201773104,930.0280250608214 109.05092384829658,937.9460157212386 111.80864195514931,945.6604172394868 112.43498238717432,952.8958074523556 115.94115580687473,957.1368287450292 115.57121029383973,959.9392394330303 112.31864512253478,964.101926011867 108.17475308444845,966.8234848833389 101.05589942964082,970.6166772049239 97.40919376770269,974.8449500547033 93.1109360229597,975.3029547342549 94.8523511757821,978.9588096782351 96.90737412129837,981.9113666078335 98.33843476097843,982.0808549629437 99.66959214693988,978.9475739652473 102.28702879864896,979.6808792469375 105.5052944471349,982.4969605752 105.96913871839318,985.2403607392434 109.7550218290509,988.4928174995498 111.5531608349844,992.035485074751 113.78475379402175,992.6591836638818 114.13042074665462,994.1482052603815 116.21580796874856,996.0606793338158 117.37168217656803,998.84852807843 119.18091851540169,1000.4656639291469 119.459779792242,1003.1297329398926 120.73302930746476,1005.6486419761642 124.01442163679673,1007.4037025811494 125.72855312822806,1010.5048994481871 126.24712384140526,1012.9917889837815 125.17826434184435,1016.5365708187742 121.48771129902615,1022.7489529964989 122.90801809965974,1024.0 123.79929772069258,1021.7955285100408 126.41978249917368,1018.3048635967314 130.36351244645653,1016.0659893028804 132.2081051643797,1015.7562728542047 133.82158961159385,1014.2031703775166 138.08845298588056,1013.5459764684346 143.9002781124215,1013.7877281464977 147.777219242602,1012.7432459131154 150.42835912207448,1009.3229194557957 151.28946516521114,1004.6885863975358 156.08715119382708,1002.1290498733931 157.81815422057687,999.78110467585 163.56736938772505,997.5802417533648 164.44701486990527,995.2629630743872 166.7806475903978,993.6283661870708 167.79444372100718,991.7935553286773 167.83097371034543,988.8691178873821 166.90115984176722,983.7222461824011 167.11010148878984,982.4226792470887 169.3597835214247,979.2142098782354 172.65746311327456,977.7120323685176 177.96075357484983,976.68924256837 184.64767281408788,973.3532502260401 186.9627436726322,972.9331655634097 192.49442575382787,974.1604585937396 196.61571698165582,978.7401587236258 199.05817287201623,980.1093108289492 202.78085069140047,979.8555122204806 206.8041301461498,976.1285144067609 208.84096701270244,975.9272300454443 211.77638464720735,973.1713526432097 215.1355055907995,970.9348134807002 218.09922846299813,971.6270332622215 220.37239055310516,974.1188197107388 223.97810049832302,975.9754708854738 228.02689542572324,976.096459689281 236.90802968526611,973.6921344649764 239.6796126021088,972.0278494233733 242.65189152110744,972.1007550979002 248.87825810295703,968.8656358651181 254.8817421435624,969.2664534625036 259.2212182564554,970.6675919452317 262.54594100577987,970.6830108408519 265.56510953227735,968.4170179915764 267.04091231614575,965.4418547634727 266.93231624370713,957.7553284397038 267.50484262298914,952.2620670114469 268.3127495636278,949.8116916522878 271.6624929401954,944.9178184433587 275.00845072220204,942.6169448796443 279.36860295696545,941.6692900596012 284.20064003151214,942.2683474898463 287.8354045657604,943.3164098535909 293.91573053670885,946.9111478667846 295.87810123102247,948.8168592158524 297.4800852618881,947.486292781435 304.0958368131726,945.4436559209595 304.3548717365462,943.9684325647012 300.1257663471664,939.1336761736596 301.5559250211903,936.0154872452806 305.5048727207047,933.3541138790226 307.80765155366225,932.8055001470161 310.0394884642097,930.7249178744861 309.933756409549,927.434736494744 308.5010811920177,924.4527572910583 309.79140217839335,922.2425324862143 308.3391675362061,920.0941189269314 307.42622806642817,916.9812548633804 307.5860538401344,913.7393517799593 308.8235447190706,910.1217411345403 308.67872274043407,905.3013020420592 309.83206810991715,901.4594037499947 308.4767866533647,897.1924488387004 305.9073573088981,896.450009519734 301.2384443944206,896.3140867551176 299.25913283204954,895.3256606629435 298.7621181946338,893.1641133279114 296.32360048902535,889.3150927960684 296.34002517041506,883.3943430167344 295.09607216643434,879.4871158662797 295.3650903477606,877.6437992866786 294.0666254338588,875.4742774497988 291.4977069294485,874.1044715882174 291.9215712814419,867.5223267729667 289.8959135808289,862.7540878638954 292.27247930416956,860.3667563697223 295.31717321764154,859.797770740002 296.5264288939029,858.1465686923132 302.383842773992,860.2985218204799 303.3143674814035,858.753737389397 303.58240762035206,854.1993372851443 305.089364995506,852.0915905472518 306.27911801458157,844.915084938041 308.1473299048733,843.4491731336379 309.1812701951342,840.8350266309003 308.60214819711865,838.5643551552799 311.4042342416225,836.8995382608986 318.5444861939448,834.52121313929 324.6336835816612,834.1400064952275 330.1078345623511,830.7896773079406 331.7668017427514,826.74935329188 330.88462255592725,823.0571903715896 328.4445257868038,822.7048699173154 329.07545469300396,821.0524311368579 327.62759982345335,817.5334222746127 328.5595917958061,815.6714490083789 327.66530643271994,810.6866669955834 331.29261932777064,809.7065851601775 336.12824332101405,806.6751142859505 338.6501630233184,806.1734053669312 346.41951786266304,807.959315652934 349.71271372090473,808.1322738284431 354.3512002100587,807.3395963703138 358.62940512729386,806.0494206569149 364.34551167502923,805.5663185788346 366.3504349747321,803.8301897554462 370.5501987138705,803.6383551572285 373.6696605278539,802.016813551577 374.3745018134389,796.6996208544044 377.5982884785452,793.7013926816404 379.0293484464409,791.1841945443754 381.2412885164536,789.4338195185005 383.3761363403545,788.8443156112139 390.06358983395387,790.5483405887661 392.8081265823226,795.2632122374177 393.02690738093963,798.7382358951961 391.7887001018851,802.2179879226719 390.9478934928814,807.4459540080833 391.8469988520422,810.9103705422398 393.89052881838046,812.9289530502267 400.9855012384107,815.7859616578538 403.99790012172184,816.3404865380147 408.5763649286776,819.4965084233024 411.7008610251052,822.3690089775422 414.6172197599607,826.1281299354854 416.4673505732526,825.6750523878906 417.3059373508443,827.8481072269568 419.2546591414169,829.8371001593786 418.8620956390193,832.5963596220636 421.06768636043427,834.13946668908 423.2355551540909,832.1199715971348 425.32256854638246,832.8230736062121 426.29170035704834,834.644256027823 428.6216665711273,834.5727661848415 429.126037362254,836.3923398390367 426.64360350870425,836.918440064421 426.340269642452,840.6521813207207 428.36369360008035,842.2702891732406 429.03270464395376,844.3336125193271 431.32583596437826,844.4271022489065 429.8362379445643,845.3777234581369 430.2467054863569,849.1508562886722 432.3522097387681,849.9461660921469 430.1467485596142,852.1217974551936 431.02490093143723,856.5245927219603 428.2196621548596,858.3509897343445 428.5106710469543,860.7914858264552 427.7569122171439,862.6131959276076 424.4112601174202,863.812174133324 421.80615765682484,862.418507147566 420.0300351842135,864.463489277471 421.53283567093945,866.5339844109126 422.2211198843791,872.5033302916289 423.73233475234895,873.1862462969206 424.50520076077817,875.2284350230825 426.9775803820199,874.4764133305007 430.71786524449476,875.1818732835184 435.80672845761353,874.5893865532108 437.6946380698252,875.7075364567396 439.51448916707386,877.9777483485616 441.35696296774603,878.7879822557561 443.6302061061824,878.1208773938694 444.9279514124306,875.3326805805999 444.5496731298911,874.3423336191305 447.75846225413994,870.8320722234632 449.49719137905123,870.3385985622698 451.8326242915527,871.3757438674545 456.43872728838176,876.9467938152122 458.09217323091946,878.3871821154814 461.5918495774825,879.0332300601482 465.1674391199854,878.536810388448 466.4327042714907,879.7782497800212 466.3598649930587,882.3909927564839 462.31602908913703,887.1524149186166 460.69543802024026,892.4663965413606 461.02715491145693,897.9723976090462 465.0416796094391,904.8112342512313 468.77469071056254,912.0259627286621 470.4769539371914,922.2623574402002 472.9074281644555,923.5040822186774 476.77914690977786,922.8061446391182 482.2625212397162,918.5384561828065 485.0603634356602,917.0774826088357 489.11647427863085,917.2597039431428 490.5869647636132,919.9590591406674 492.5654636552714,927.0940893585562 491.4281496166092,930.6757625434767 488.0949802636228,938.4150544064186 485.2326541783309,946.0437435390172 487.0381253337987,948.5840307440598 485.6625736251171,950.194603853657 486.22590563878293,953.7565480770165 488.91901672470476,954.7879579983609 493.5608111925048,954.3315392148031 496.2305520658555,955.3937971004779 498.661142070694,954.8131126066123 498.54284244194184,951.9019179224298 500.47941129959315,951.1039207683812 501.86627167039046,952.2720413898751 501.69507721629765,955.1376425427723 503.94441419540834,956.0222846438854 504.0821291790422,953.0750748260459 505.6944073154866,952.9828555776929 505.055245306547,950.1535095280934 507.21165091945136,947.8172309818016 508.671634771184,949.8692239965422 510.78807896393926,950.0970512246978 512.6968434475715,948.6915201749098 511.4412288233197,947.2741171448215 513.3210277867288,944.3457310905644 516.102788207892,942.39898295074 517.3934989624432,942.2922298012085 519.204646527898,939.1696565536353 524.1325557150946,936.9651516741208 525.9137635708844,934.8109493385916 528.5614449407544,935.1302497706233 531.8159206204928,938.1763284414423 534.6702412820044,937.1534388962211 532.7548445751382,934.8334602833901 532.414713366218,932.194586712979 534.8990825791172,932.7950013009248 537.2347434517948,935.250950639498 538.5550155921796,933.7739470881564 538.206582475425,930.7237029675857 540.5168033060028,929.8041967743103 540.2033081020065,926.0743973859076 543.6151467938513,919.514135499594 546.6694546712255,911.953199689395 551.0266719737806,909.8922695055535 555.491889929281,909.6597095106653 557.2397386914396,909.1620182279047 560.5448417831813,910.3001569965594 560.8515532263501,912.8043120985577 556.9099742767809,918.8304578112754 556.9306447207958,922.3080332815972 558.5540758619459,933.3089815572608 561.7898928506128,939.3695604473581 566.388397298644,944.0652463052638 569.8014174856993,946.0661857240594 572.0551864855813,949.5218279953081 571.6227882973947,958.7982798824019 573.9669816438521,960.3270931117473 576.2871749624827,959.0546055507824 577.6305432751869,956.3397023452136 583.4050888472193,948.3659399524482 588.1251832793176,943.1117163628203 589.4710569185784,940.5924140958241 593.6314130163726,940.2192513027059 595.5876726927391,942.0013021187465 597.2509647923723,945.1796947617471 597.1859089661131,949.814767908071 595.2942280869795,957.4637193197259 596.7813092524455,962.191327422186 601.1646089220392,966.7058548184549 605.6374038436113,969.6832058046352 607.3043016482238,972.5640320044523 608.384864340647,976.2405169312567 607.7293841974401,979.1386114301085 604.460205732212,984.6879643599543 600.4202048105075,986.3891825517071 598.3637621593512,989.2032278690446 599.6838991283413,992.0412225954414 600.8426694418972,992.0996780161668 604.4842323140167,988.9640244077038 606.0147311865563,991.0760157631596 611.0271995246926,992.4357037606308 615.0145444994434,990.497767602951 615.307327615675,988.7191891345282 618.3507361033542,987.0274748511652 620.1301103467156,986.7844901171685 625.163695126408,989.1418653743663 627.7509736228153,992.1277081723475 631.3852351696452,989.8559540181296 634.3089138958293,988.979734105531 638.6894008790593,986.2896692960863 640.3238857313067,981.1230915329211 641.5586544029491,980.2309108999738 643.9048893313551,980.943300858855 646.8406759628573,980.643405331464 649.9917130197407,979.5352697760288 650.0995917302939,977.8223146560206 652.8813943736444,975.9796243445668 655.7977339440877,975.5560252782227 656.6799068998246,974.3517879893662 659.8238317048754,974.0364742549898 661.758349332078,974.6642025657553 662.46679421575,973.2270148334792 667.9075001026273,968.0592740426384 669.9920237528057,966.725939511618 677.1066062188382,965.003383668856 684.6698035691128,961.0651259740155 689.5025458132568,956.8677683459396 692.911751221983,957.3377726779997 700.575315058,956.1558006910764 702.5827414585216,955.3689678816578 704.0502375038519,955.9436369273909 709.3030920395402,955.1340876744442 714.0192026722082,955.7995286159565 719.712413882573,957.3592295785621 726.407070655942,954.2382363724081 730.1819214602681,951.7094943784567 730.7211779905408,950.368225117083 732.7160586427533,950.105619008083 735.1225929056372,941.2838363139846 739.6983298135249,939.7560383948212 739.5532881549433,931.1291857841987 739.8427010204015,929.0836104790299 741.98443438895,927.2313467890363 743.0185582188437,924.7565551696418 740.5201500369832,921.2938453533197 739.4138577124338,918.632515414362 739.0811178784852,915.7370979449666 739.9078646699519,912.9794919955009 743.0602657134589,910.1052903116763 744.9764202706244,907.5898409663952 745.8819980235443,904.4395727966419 745.8396095536561,901.6305394642362 744.4598458641906,899.2752823743507 740.256274067688,896.6779457827546 739.7335429937617,893.891177735681 742.7855035461315,892.6049582508393 745.5567687617535,889.2883914756353 746.6567094042484,882.1527171140685 745.5598809950553,879.8840815639944 746.5189970621815,879.0489146842913 745.4199803954631,877.3671515739231 743.3415054940654,876.3357843112645 741.6127188949933,873.7947008855823 742.7688115224073,872.8005548053234 747.2440776661679,872.0468897630683 750.1603111908295,873.2122133719045 752.70345211337,872.1849077707609 756.3745874325114,873.3728742467661 757.2538530818813,870.8729413955933 759.5733951043343,870.2311341385932 760.8054878398326,867.0645320895442 758.1364464462557,865.1636421662986 757.8396746196028,863.8236605788927 759.6439005372165,861.4352763308509 757.1557473935038,860.3738102805213 755.4725520467205,857.750647430945 751.8580372841418,856.1914240106807 749.7696063553026,858.1023739058362 748.5100692999761,857.0729390872626 746.8074719699429,853.2675121177313 748.610262917252,850.8183873513058 753.7171536252852,847.7049252095246 757.6447650389275,846.2644569868728 760.0162948664105,844.500699962832 764.0666322283595,847.5085441586581 766.065856484903,847.9434923636692 767.4280447040715,846.8825028570043 771.1204166253942,848.0168270395448 773.111361491691,853.3879520651135 773.0637115690655,857.7186451959176 778.1529458112428,856.5257024181499 779.9850005235811,857.9721668780935 781.9375621256812,857.441528390726 783.0493793133747,855.9951085588766 783.103661157767,852.6307290948032 776.7548679810928,848.1785232785107 778.3033187641498,844.5626812238322 778.398082227811,842.8537575317232 779.8851818615058,842.6736645893998 781.3932006984783,840.7142376891162 786.0021104940881,837.6713261070412 790.3449832383551,836.8655925074011 793.6470159828945,834.8413110610089 794.980733723802,832.3515153494267 798.7711393741384,828.3717705485594 800.390155500425,825.7620422504766 802.5958485925241,819.3448485208439 801.723003475667,817.4551789144195 797.1480947114748,815.9345908097503 795.3170325628139,811.9002795373698 793.6085963113479,805.6950227881898 794.455392318868,803.9686186985089 792.9727108616295,802.0222342246102 794.8854506998248,797.7217991628488 793.5219827595951,795.7319871332003 791.0107832387599,794.9413897566766 788.8459215842776,791.6358838944162 784.7022444770164,789.3034881858247 779.4686936943407,790.5209638461732 779.116479228654,787.5922015809434 777.9887792155763,786.3667254610564 777.676789023888,783.4369784707371 779.2010298440516,778.30623163486 779.1328369448732,775.8535980634995 777.3820212208321,773.0422415484516 775.378218297118,772.6394305863209 770.9701109701489,775.7966576367485 767.8311085219007,780.1035205585904 762.7557635551544,779.8877949586064 760.1736008756774,780.4227370820145 754.2414412757245,778.2139943806337 753.5195927770931,775.8392112003266 754.9518716974135,773.1143629349399 755.6956598803295,767.090781770735 753.8190741162157,764.6417181948655 752.3076114146251,765.0472172512582 751.1160613436701,763.10518042377 748.907743007676,763.1682801236823 747.7221239092473,761.4825504180592 748.6557307515969,758.6685421360357 747.9734445654568,756.2522815348575 748.8096278329879,753.399662651999 747.1459090329535,749.4476315026727 746.4123387494271,745.5555616044524 747.13267005329,743.2191648359229 744.9251532952384,743.949187773427 744.5128492216425,742.1019053691977 741.2631589380887,744.7754290530586 739.2161365741783,743.8395609231518 735.9888477650788,744.7676942623698 733.9925449265584,747.3189164031113 728.2053290935708,749.0053345624724 726.4517353211448,752.0326537800267 722.1327372868991,752.503734353734 721.5858118713181,750.3410208407056 723.1097450546093,745.0311000415388 721.3827892707915,742.3734193731065 721.804384958507,736.4848408837452 723.3213704418729,737.0132087474451 722.983649561336,733.8824678074773 720.7380860572395,726.5087415745861 724.6742871015357,721.4215663987861 724.7847558140227,719.6753691569836 723.2721311564648,716.5731770035802 718.7184541366355,715.4598711905796 716.5986028239258,714.084142545297 714.9811218249453,711.2715264012456 714.7107136346077,708.9403238892629 718.4329362104213,696.8483536841627 723.820368016433,693.4003162556215 724.4795570934792,691.8571173083621 730.0547075250545,688.2810763027525 727.5151230328675,685.6974918186106 724.0100094469599,684.8579290155974 724.5862891336687,682.1902613547351 729.2963051056241,676.8931194278471 733.7720066295917,672.5342167707086 735.2281697375764,668.5956552019584 740.0177428064131,665.0592199496641 738.8306386870336,663.5406550208827 739.1087924476265,661.8231887678654 737.5844979557987,661.5627791685711 738.0615305837008,659.7996235152282 736.0871696046826,659.0994011877307 734.4875559585657,652.695024769509 736.7536335159522,652.9068947793406 740.1260486323973,650.3062540465771 745.6493829395985,643.1781984974355 745.9769354322005,641.8492816460221 744.8763802023187,637.3087996693328 745.4747565668978,635.6357984931776 747.3116455882008,635.3043728512793 750.9879740018275,636.0647798050286 754.1458789453566,634.2373135241969 757.2380790000266,635.5950271969493 757.9514626906049,633.7447539638201 761.4605728140581,631.9284260255235 762.5084883025538,628.7390885533301 766.4607850917557,627.4232430179351 764.6256964990117,624.253796679656 764.4750143396645,619.0981597876441 765.7807349433721,616.6913333944592 764.4147955344905,615.0465864696749 766.8096593248731,614.3832748742204 766.8908088462792,612.4981827006184 764.1347317981335,611.4506295900535 768.6689342212983,604.6863721101167 772.4837630983717,602.401868210975 773.2801522510016,600.0900819942312 771.4674728363863,597.1676267330757 769.4206191285841,598.3028171356623 766.8974660217684,598.5699641545779 765.6576527169625,596.5238705278982 765.6852908141644,594.4050747479141 768.4458209262306,589.886534885762 767.5077831906103,586.4823891300632 762.3574614844553,586.9680262817355 759.8746377284873,592.747664593856 758.2049760176096,594.9477460154201 752.2352624873524,600.782879868307 750.5357719618593,601.786370211828 747.7027532303345,601.793845226361 744.1440118476861,599.8543707897825 742.8927856469154,592.0376384897974 741.8113123049154,589.5577427736287 742.1801886351828,587.3291189610434 745.7796615267143,586.0652975483697 745.5018803307311,583.5148372847663 740.5918792480162,581.0567338814358 738.2053913022398,577.7089406644446 736.6465220361499,576.907927460989 732.4570350448262,577.1728090919821 732.1229166305392,579.1954428595153 732.9957038968934,581.3117593929405 730.142186940245,582.7410972606699 727.2782251894166,580.4063474285938 725.3775034192921,582.3133171311063 723.4124703960805,586.2058864074912 722.1007175626703,586.4009183537602 718.431520366716,585.0873093839795 710.326423136568,584.082732851922 704.4800265947182,585.8060220898315 696.9104244350128,584.4799857601816 694.5799468924627,583.3991752923665 691.5897135286565,581.0553941777 688.8766682367421,579.9731278851293 685.6619909971305,579.9557152138691 681.1985199553238,584.5891070749451 676.2188686691806,583.4356155735088 673.8721153879853,584.4098966023953 671.8485686206586,583.8120681784444 670.8339043403396,584.7860850499264 669.5562747721592,588.5788764045276 666.4504110426919,586.6961288562163 664.4843996324505,587.5895494882834 665.574154918759,589.5592033649216 664.2435731167468,591.3792534899014 664.2846462534643,593.1888126075178 662.7881873711913,591.9336481137682 662.5280636880204,585.384334602821 660.2362953051872,586.3258889443534 657.6535680414062,585.6886836326976 659.3506508604804,583.1451111253743 653.5265551497074,580.9349884456099 651.1541661608302,576.5200073150595 649.2706969339719,575.7342679587491 647.7212127255618,573.8569154628742 648.182509896297,572.0268604094674 647.387611824137,569.642434685609 644.2674092361376,566.6659271660812 640.2080885140815,569.1177958487358 636.9245082273646,569.9066081485369 633.616803767918,567.8025797713241 631.8616873015706,565.5923567575567 626.5931277412633,560.2100026443575 624.2736795571177,560.2200920550667 622.1514599345463,561.5851882967529 621.119203877476,566.1353150799845 621.0692818881589,572.607097631437 619.4608512281809,577.8251852644692 615.5959131940233,579.3919708393012 609.9807130933984,577.4896511008275 603.8423260898987,572.0095560401468 600.8153413539129,567.301438852656 600.2017686336961,562.858597221533 598.9159381951316,559.7794283513283 596.6827853921263,557.8550970909437 594.6465578658734,557.6738565200021 589.6815966995705,554.3259062972777 588.6903282181245,552.6915730856667 589.7649713455753,551.1258988152628 589.2859090521442,548.0913836470125 586.7550279224216,549.7390272487407 586.1702973826465,545.8590060094385 582.7614043532864,544.7870217785799 582.6897250397041,548.5582110330411 579.187814506376,549.1429018336003 578.5517663022346,546.1939054874503 580.3152604004684,544.7876921411935 580.603249684208,542.207209606737 580.5814082566794,530.2470460357872 582.2762591247123,529.0264474740005 583.7537730433947,523.9504253488344 587.5607494910855,513.4952644447104 589.663436515096,509.41783003378214 591.7591874849957,504.2893518419187 593.4616524438833,498.29188280216454 594.3901883073927,492.9748300623696 594.3670358946437,489.30164443263845 592.6087274645027,487.8594387874725 588.927271370803,486.91813751858683 587.5543637611568,485.97828683195905 580.3909538330255,485.5797341417318 576.2632539446191,485.7081600904411 574.2982371013325,487.23935511202353 572.4163623698561,486.6974530142709 570.6495773253197,489.34702080967384 567.7378161714166,489.7755370830147 566.7476393654666,491.8983105171502 564.8469728788291,491.9688848400576 562.095447630681,493.61802673555167 557.6391951328848,494.42518753875765 553.7701222478516,497.0872515511247 550.3915689005563,501.1575801603525 546.8138684302783,502.92524688053413 544.3884629424333,503.0466575307007 542.6217740073913,501.1331452067501 541.8072699095069,494.76144672616886 539.325919996851,487.83293556887793 535.0094692539396,480.2382575842703 531.9774281589607,477.4641447987391 525.9525197278715,474.99489490155986 522.1555454040754,472.5114755150479 521.065724654072,468.94329864946485 513.9767127893173,466.8618153808176 510.39606642396706,466.7900877960145 504.42436905751015,469.7126088794997 502.31775109529576,473.0075243879536 500.5903954943487,474.56127955776026 497.76721877315066,471.7710584413054 496.87184791014806,468.688299573354 496.82201307622563,460.8681122005694 494.91552610516607,450.822301408591 494.21652289565554,448.4200911293118 492.17171056939384,446.29887625111564 489.5612168452781,445.3406733306965 487.43614564965253,445.63671292906974 483.1930645362207,447.40107848118555 474.4147403669143,450.23043083195114 467.5656479249722,451.71682111496295 466.0250103904828,453.0713973821455 464.0277701045933,458.0128386721741 461.23716304379207,461.4098045841978 458.62877601372617,462.6821825230263 451.95434678596,463.3988447595291 448.06964175074575,462.75735923159164 444.85994582030673,461.62407751421097 440.75929693786776,457.88691881998295 437.734599183472,455.98535479490204 429.74751432853805,452.6762730339842 426.43795353857496,452.12472061871983 424.23217370066146,450.16703655730896 421.31257140406774,445.6539955605649 417.3605751556448,442.04611521990694 413.7962687006996,442.7316376779038 410.7937854586388,441.06345133099444 412.91251816490427,439.996344151313 411.8620890105233,437.2534839822847 413.9407735086954,437.05348183575336 416.6161443650266,435.56847954535124 415.6646494415769,432.15182236371743 413.2253171807942,432.1652810401064 414.07522162847636,433.4844920975521 412.27559795505385,434.1690276917533 412.1470381147498,431.42061685835506 417.98139288230686,430.622567842129 423.4434992539617,427.7223656811958 425.661957451411,424.31986851944646 431.9305932214249,417.78785857439505 432.1968521096185,414.9920823984411 430.53945677045465,412.97538403162207 427.6110402030585,411.8369784341353 423.7273581754343,411.8774223176465 420.31785684045474,411.32836846387977 418.5524153649061,409.02824716239945 417.5559225707028,405.7566429894815 417.98131826775216,399.8535935381259 420.97868199720665,396.9683572572212 423.5347798827669,396.921865210869 422.43816837510184,395.57781037628945 422.57570553423443,393.5286475639117 424.8263619118767,390.6777793969717 430.9297154815037,393.99696307752436 433.07301050615416,392.2371950448164 435.7903149625888,391.4639275867472 438.6853336562727,392.9987313693265 438.8929697032662,394.3593652581633 440.63048028230844,394.2659875198997 441.788250271186,396.32156555687345 445.97260325405836,396.2739511228373 449.2511130246818,395.3675880462945 447.43652602665287,392.6017226784609 449.8630212300536,391.1512578793107 447.8321422761479,390.84314345732207 447.4440144586262,389.61830606065894 452.2007707098222,385.4164846669595 450.8661521063169,387.9252176275472 454.1788540357267,388.42282191487845 454.73668617566256,387.69967305992884 458.38257186120643,390.2881092179982 457.64376774749496,384.39740670708295 460.7472441045361,384.7661042008772 460.20696572645096,381.39663380642116 464.60179940066706,381.2113090095096 463.6298850200561,379.7944568237334 466.5806486930503,378.4148474002494 470.6587249664597,379.1205475059654 470.8001283420268,378.2120486885585 473.3482115775839,379.0076374710086 474.20278442927764,380.5180915493943 472.70740938158144,381.6053480790383 471.1823867265789,384.88208969782136 471.9326995439729,391.69938488009427 473.7012494820349,392.8055987573322 478.2140324381035,391.6798735201255 478.86085452025895,389.41721208883484 479.20705660548447,384.73774277032226 481.98991402426805,384.1237090155605 482.9786295630333,387.1891732451679 487.0631290004135,389.36982944447266 490.0936398199731,388.82177764626226 491.1409772253671,387.15154232248835 490.839397741397,383.53335663811345 492.8067657972927,380.60350345781353 498.42444470662116,380.02456548596194 499.83865561496657,380.4747772762912 503.0926799625983,377.62096973170526 502.55261646195845,376.01317466855505 504.1955974658572,373.5986348146938 508.8203800747637,373.8217256674076 507.18377255274726,372.958729447805 508.2370497027114,368.8668167960619 510.7666909581242,366.76022783706253 510.8726166586136,368.8646010272572 511.99541058480816,369.04574629781666 512.6335179391886,366.4275156235391 515.1749178282441,366.4982184479412 515.8774749995952,365.1307281093144 519.0028016114585,363.4493821158742 519.1576667215714,372.2806218425461 521.2239082245293,374.74258120391596 524.9327470585532,375.1965342479076 526.6644731865484,374.06222999601084 526.2913364939435,372.1256394319622 527.8063765834387,369.33616340945287 526.1341514803373,368.3016010049164 528.0181410075057,365.70827741790447 527.5333799254703,364.5073724319964 532.0484146323757,363.2851118854677 535.2550432833923,363.6468610589004 538.7551135997854,365.16214694504674 541.4973775587007,367.63972501342766 543.2703592440635,371.9799071108898 545.9304451889853,376.58715341543336 548.2770928243868,377.5564561825796 549.9262810152295,379.35461277309787 554.7930226906236,380.07742587706935 566.9345733136679,380.442798690426 570.534387940346,379.06307003099266 575.253881559858,378.4432149117923 576.5969092612747,376.62234831225885 576.9443839400557,373.5810454221686 578.7353868633045,372.6775721731941 578.5441837940062,368.94552898585187 576.5183788740094,367.767492603375 574.2937513639926,364.3438640890512 572.250655072845,363.10531320682617 571.0683212802429,360.8913267365507 569.0683604436265,353.0876501263907 568.0825710550072,350.77833189356954 566.3199087202089,348.86216647990295 560.9539344143944,345.4250510491016 560.3059111616275,341.05361494100396 558.5122743756475,340.2779242106359 559.1379318081387,336.8361469724846 557.9376295776499,334.0946964189807 558.6707115582177,333.1230595779854 557.6022234277749,327.23663982296273 558.1068497791425,325.21202413924834 555.7609583135966,322.66852150061345 555.8546389013281,320.35820296328734 559.9410678022523,315.57366335962297 560.2180143948234,312.9342336522518 558.575764299988,310.64084794003486 563.1172375249672,305.3190399344717 563.58931182442,303.2861374486747 567.0566491852235,303.7811431738014 569.4375089925448,296.49279452996757 572.5748361084699,296.39507110530667 573.3621047972393,293.9385069473342 574.6604275808786,294.22562294289696 576.3437778156429,291.4248890273408 578.4105484564393,289.8558544543421 577.5506147473193,288.2176451898657 580.4624701806689,286.50831859577113 583.1918462909048,285.92053238269204 583.3256128482977,283.68208104097243 585.5362411826725,281.4797944327039 582.8135100949313,278.35828459318645 584.2388641425217,277.941306374325 584.4219659713832,275.0720106286399 583.5180737397206,272.5111156434913 582.0977278586195,272.4201323256866 578.6165245274279,273.7455192091618 577.812810241877,272.8586018731195 574.7131594465393,273.15932233260037 571.9858108669831,271.6128087395307 572.1469361001699,269.53707164702575 570.5796400499547,267.7626057972876 572.9809020352598,267.78172380471995 572.8573444357279,266.47429855567816 574.993983321741,267.8196592129541 574.4810869559656,265.3421516645775 569.6526991371022,262.2262964982626 567.7525916837884,260.07299174109244 564.1313410616508,258.53604471021185 562.2385275384631,258.54616242601094 559.6048916808711,256.50990560125217 555.6371577994717,255.42642306121388 554.6789803495976,258.0466061793878 556.2220592602488,261.32481559638177 556.2096645316719,264.1083974660228 554.4482900847831,264.3486371016238 553.0802302007469,262.5800043704163 552.1649264756965,265.7580449471434 548.2585519093215,266.08426568547145 547.6252180129004,265.36625059595247 545.5029186686207,266.5281434428615 541.1344994521621,267.503714628141 540.1438643403426,268.6214255418479 536.6744203467675,267.8810353997802 534.3888522890356,265.023486326166 535.7974663203781,264.19201386871293 537.7015471394009,261.2881730946226 538.4039378751116,256.22627990176045 535.329626647197,252.74630580801295 536.6823693704087,252.30184143813835 534.6836770491517,250.2414149522166 530.6299680750757,249.909337271116 529.3416856267628,248.8803675744333 529.3821808690551,246.63536015038733 526.7030451998141,244.19355818056943 524.6778232496222,243.8899383402379 523.3645748895991,240.49616122813552 520.9044399522663,237.51142857292086 526.6661158125905,229.76983383419974 527.3635249095393,227.13712471813778 529.2680667151168,224.3169790818522 529.7132050993246,220.9791979447914 532.0147322809669,217.8769227039753 534.6125644811834,217.97500703298738 537.7631924110276,214.99722019947671 542.4059704737762,212.63689734335856 544.1478498448117,211.16952601060336 545.1963305985456,208.74326658254063 545.3683948416071,206.03055272979657 544.3843041053199,203.6269612675486 541.2472064122709,199.31127903397487 539.5622974167673,195.16779311608184 535.2324414504933,187.47993758287544 533.9267368347533,181.40341210661973 534.291183149957,178.7900687786124 537.4412107144502,171.41415018876103 539.3602199453359,168.30234582797573 541.6811448646049,166.6417239652559 546.1597397999062,168.33099064454586 548.5904333268636,168.50202954087365 549.2223001728623,166.6133104704486 548.6875197824622,163.78648766171546 547.189762786317,160.25088200069808 549.2754500808493,157.2370797451132 550.5014211617863,156.5419671387965 552.25913765516,152.6129541207082 558.2963084047948,141.92493805531592 558.5762972679564,139.8925749050062 556.1969700036947,134.69619473557134 552.5837134329852,130.87386314042737 550.5187257437217,127.41383008083858 548.240105373848,120.21107904760777 549.2311739514876,118.17496397802017 551.4432529652179,118.59323123937554 549.4211388057332,115.2444756095814 546.5898267765338,113.58367798564382 546.5063100716196,111.50981223118242 545.3361160339691,111.06871145473349 542.252337340991,113.8482059741508 541.5468684824749,112.22286258569375 539.0464123862012,113.10601739588515 537.8704813967486,112.01741489852338 540.2381318445155,110.45847943522722 540.761597301768,107.60239293329687 541.7935891019944,107.86389838757066 543.1272499847138,100.42546419999962 537.0921381648384,98.75182353094317 535.5243854282766,97.40872564912672 535.5048757781498,94.99019065854554 537.7244756046234,92.46346643242771 539.0531232771478,88.87281347088413 539.0415640123288,86.83918081761146 536.7053593563242,86.08948819016302 533.8971366128249,86.89763097973423 526.934098906953,90.9200948051747 524.8983460073133,90.94253496506781 522.6585889378986,89.89657397582107 518.6685975382777,87.0248577032288 515.1790282592956,87.34032914802856 506.3834899997387,89.81891048318948 501.55642891401516,91.4965258487207 499.1612831036241,93.63018152833104 500.43787551384906,97.00432461094249 503.8573492232363,100.5577185017147 505.63164065546584,105.08646979033074 504.0943532244266,106.73751985697243 500.7279421566583,108.89146938551403 496.7650144743074,109.29645778943609 494.6295342122607,108.33728756548396 492.2955574099395,105.74271244948409 487.78094681733705,97.5545452859584 485.85507173525485,97.9475671518021 485.68468298261814,100.46078201228784 490.2801075433691,108.36451078528046 490.50417565013504,111.63989982608018 487.331600113679,114.45734853454667 485.0162574708778,114.75729816471619 481.40837042653715,111.60996641532915 480.73522091066707,109.52822540631746 476.68246646885575,106.61257493832125 477.4515684853206,103.60126779109135 474.04899784231077,102.393586055387 473.87059418785503,100.56512184374321 471.6338781855577,99.22322661476244 469.5322863045939,100.30688173678936 467.15558737026987,99.86836075082772 468.813899949173,102.69961119055654 466.36121087061014,101.60422564377723 465.7084524966633,99.71466636755929 466.57495613910373,97.62271800988731 466.5706438457684,95.01189266503638 464.69726506251385,90.44478209399949 464.5057026895715,87.92915772979995 466.7892946923851,84.08019018558252 470.9121461297147,82.30921708502115 471.63331802312985,79.68481083567804 470.9817562977579,77.85644510088935 471.32795258605654,75.42207891100429 473.2946402860203,74.34090760202537 476.51153861372467,71.10071392923555 480.1879375271505,69.15634009553787 481.332194783968,67.60583722746514 480.45752495230727,60.19057230594444 480.1091103599455,53.43277993584104 478.70597350560695,47.162170731200376 476.1685331973055,44.07944035573985 473.370197791158,44.09485659788709 463.7129791223162,45.69171123483136 461.16315912529313,46.72249403258979 457.7668002620685,44.39338446717852 454.7240901362858,43.99792472185436 452.2249973290932,50.86048698639888 449.794638671733,53.606782006912454 449.2340195933387,56.81261123647221 445.8979339429802,57.190573797446746 445.20881404715493,56.6278306124251 445.0791437647259,52.35371884929339 442.3722088391901,48.13990218366848 439.9240214349103,47.50976607520579 436.7105047110128,48.885491882838096 433.38228480214786,48.4030205797352 432.64660543571216,47.042293425173966 432.87214968329613,41.519530934737986 432.5602267126269,37.97765786863329 433.87856865124706,36.426729607290554 440.23985739888155,31.9791384234793 441.5560173237088,30.33690391309358 441.7458061326361,26.695932912705985 440.9297778118509,25.246637385799318 435.51844773547356,20.00593542004856 430.73450465076263,17.86495102448839 432.11810127409336,14.838045210572659 428.2429147992893,14.033155597042423 424.26952927073455,14.290828913905102 423.13826747728564,13.221312699724649 425.52954288703324,8.882999086706377 425.5964722313261,5.357099090228303 422.8468204291007,4.904489080538042 417.95731323230825,7.90533843716878 415.4247513076647,7.255901733077053 406.67823405691934,7.055859046620981 404.2498939990727,6.494982048787392 400.8304466443361,4.71043171397946 398.99546263739063,5.148271093191056 393.9613960852523,0.3328319270907514 391.73448261279026,0.0 390.77108886624706,1.572766946326169 391.63659953556527,10.160919738923212 390.92707449051045,17.456266655000945 388.65989268637065,21.8817276126598 382.8948743633792,27.219126504153337 384.4289527596038,32.31387408362286 380.60355667040784,33.86796591055622 378.68297398560026,35.751900951890775 370.00974942322983,46.12350939833459 366.77704868202534,52.760666404064295 368.6137040471739,59.450221069573786 367.88533805390904,68.65387255599637 363.38065285659866,75.2653628629987 355.69315598222374,83.10596887647682 353.0695674928419,91.9620237375392 351.145769391043,93.84624538322942 345.74354775440844,95.36552551346597 344.46314798944667,96.62198494107167 344.11493659082623,99.79438395560146 350.726485030221,104.32520427747681 352.6285871928883,104.3429953969029 364.07079072726077,100.68359915019073 364.3964647065984,100.36418972402782 377.0723329915161,100.51478800364066 381.1983147842138,100.88646832574159 380.5267169268042,104.36912767768081 381.7785453545729,105.97603950643202 385.8880455462306,107.60250889048154 391.0349762458304,111.15335496210582 390.9895633298299,115.19244335775204 390.34115006668225,119.06067012859967 389.9094388030245,126.21560686138548 388.5678858789551,128.4467220734009 383.9340036377512,130.7068385446911 378.5195710672057,132.19058246532404 373.7811063153816,132.60846955062436 368.8516229386917,134.28488328201968 363.6412768502077,136.63395145654442 361.2465183661814,139.24764643020205 360.6851299938523,141.4752093746971 361.77017763439846,144.37322782814203 365.1050341649301,150.8273187782762 364.8420037142432,154.3061975760022 358.7162874966977,163.71212058650462 358.9011348672104,173.030747553428 356.2344422139213,185.70446540244257 356.48618282358814,192.06583357538955 366.0042907670956,191.546631346892 368.09805637233785,194.64289918492022 367.8144545254798,197.87164524563843 368.4382573960258,199.1889163079162 374.73603925894514,200.73153016781816 377.5265721253305,202.0106038640198 380.06549118385294,202.03706182303597 382.7800052804302,203.9357395372757 384.3680219559065,211.41197298178986 386.45840859579215,215.98972677285803 388.4702807387923,217.92172971664684 389.6562072447166,225.41725165144726 390.6169333554625,226.03932632235546 393.5343574151111,237.84850328312143 395.52853978569215,244.0236446194914 397.0119290911147,246.40253807597287 398.5504071907907,253.16511858710066 399.6919720705055,256.3423732806019 400.04946142219046,259.4831205944772 399.4842018960118,267.67701540919745 396.7549464855292,269.17766767097135 395.7017131432636,272.72017089594476 396.4479962472331,275.48966809334047 396.28323233677224,279.11831034909164 395.5707554915007,279.5779764026189 395.56070114418856,285.22518443242916 394.2731127999154,287.6658190426722 391.54793197958264,289.9185987209537 388.03459367512585,287.9085099425449 387.3950853539872,285.80700909052655 385.5059742159201,284.6926754733046 381.3898068171322,283.9728493213636 376.79827455598667,281.8898547435481 373.6292422751922,281.8535875990659 369.48173884905464,284.34269824602234 360.0215997407041,279.143371950908 349.2422629426895,279.64116851056394 344.1775620652519,278.94479220621906 340.6575428803819,281.1260814612268 336.5326752318328,281.71254506858713 334.9192451528031,283.28321744515324 328.5386935180359,286.39497738652994 323.1327034950667,286.6560156014556 319.2510092716605,292.9759766764844 316.2418279232081,296.47834504042294 314.59408316778024,297.4703835239277 314.439813456709,299.18953992820104 311.81636324362773,299.63819116143316 311.219627641312,300.95803895310337 305.69845298256655,301.54428382200865 300.72565698468867,307.2516817677995 297.56927306876116,306.07227322587005 293.49170138029206,309.31667469854335 291.0328236864859,308.1562508650792 288.47615445603867,308.3382135834679 283.3544230260965,313.8132136544623 282.6744696281145,317.5022034822937 284.9296041989764,318.30073843471405 286.6715677586594,317.66373387740646 288.656528282061,319.41142591313246 286.98192308400985,321.31760157037115 285.1587582984885,321.3155226780033 284.68975639968835,323.27415977660746 282.45572783069963,321.3063056215818 282.6137080894209,324.87104747555725 283.823151045412,327.7290489742609 285.36572196310203,327.0037242641479 286.350345330519,332.22333034619624 285.3015455992731,334.64874707393915 283.75208438890843,335.4348587669815 279.2847026655035,336.25607998684757 277.34963545619667,337.24137927317327 276.6887227440501,339.66104813476306 276.44849010858877,344.188749933013 276.97761896602503,345.6042262933562 276.469728503619,349.2014410586528 279.829793416155,347.4722761188656 281.67601907819403,347.9013056051333 280.4827983192032,349.7196438985577 278.04575914147625,350.61103488004983 280.82393933924476,350.77164851835755 281.5698091266877,352.84516748454075 280.3065792493271,353.73884763412605 277.7208482257864,352.20227833189847 277.0989402742519,353.0253620072767 272.9994030652664,353.0877948448642 268.6972027934331,355.48194270561874 265.75905707061065,357.8956598104437 263.0911169693955,355.04732706755965 259.8486742637469,355.1569091251756 257.3058261329162,356.4353273665706 255.86165605058966,359.6199237503714 252.3833166962921,359.3455158132383 251.45646501052755,361.027161014174 248.2024628985902,362.0006492948571 247.97944453885768,363.56018610870035 250.2924017669242,364.4110194123854 251.98579856123067,366.2779071782019 254.35642020019154,365.63255178575184 259.9838734704092,366.3630151253135 262.70756599057876,367.59370656148815 264.2761598566242,370.09310821936106 264.5001051058756,374.4437724484501 261.1321821924835,377.94306469158187 256.0056180889974,379.5248903435016 251.08601140722922,383.3211651268226 248.08830434831722,384.0163528548753 240.64403182964344,384.541955851309 236.20760014923871,387.2821408304852 237.7989356939063,387.55429849881716 237.59772794814518,389.03249581019645 235.47473813218204,388.7477321689638 233.4608437490962,392.2161361524418 236.02267047614714,397.6038422420345 235.1930843590324,398.9999868537419 240.36290242093713,398.57952806399726 238.08299582004688,400.1188918122266 238.80043248320794,401.441804107919 235.6429215601726,403.7979149795592 237.3056379905627,405.14817131346626 236.09290080753303,406.93677145174036 237.43000569283788,408.2613506881328 236.75867392722506,410.7347200525787 235.32693009796412,412.76078712767264 229.742066141344,415.38590870597227 224.3421303078776,419.87077541584347 223.20785000622323,423.9293434374931 224.87405126188048,427.2054036282831 228.1818577207767,429.69446197369064 231.28561673556365,431.22898301262194 232.648689204918,432.66589322419213 232.3786315726783,435.47062990634777 230.84325807440058,436.4399849203294 226.20597785543308,437.727506260454 226.5059441393683,439.84215529366134 228.75710555845941,443.40618579441184 226.55030245771135,445.25062656877935 221.02305939191476,444.89026778387586 217.53928691049074,445.2039621495421 215.71771372213718,446.75716919155536 207.8571311144539,458.78643666029166 205.42400684604203,461.6217075990613 207.59828689187188,464.28234665690945 213.7358573061299,468.9781121958697 218.48022287888506,468.85131655905593 222.42990514725716,465.3514259832226 227.06403945080626,463.10560937639525 231.9958197976601,462.7910496215849 234.50931572703823,463.4588354079142 235.49278580190528,464.99385035176306 235.01404077708722,466.5395673215595 231.08425488635874,471.39578292036003 231.00180962081131,473.9963227766217 232.28583052274337,477.6582447973494 231.91740849539715,479.69212555382023 228.74354356991475,482.9891876445987 225.0809237689636,484.9369171006181 222.2837935047654,487.3616402839509 216.7894430720029,490.2930880229238 214.87310888807335,493.20503107334036 216.53235090632006,494.72223981885145 224.37873017147902,495.5615645480792 233.57600728797064,496.8597853844385 237.79355903670447,498.11538113615086 239.68888549233785,496.5996142513816 241.6196164076702,493.66532955707373 248.62606666096568,493.5952112797762 251.32485951968437,495.4119778185461 251.04773896216128,498.8019609485649 248.25023239993237,500.6275487233553 247.7797213127129,502.19475243946215 249.62655276221295,502.27005254214976 250.06148872121733,504.8340887614155 253.85855818648116,506.09489302841143 253.63341526666477,509.18865426077355 255.12128365580992,511.3908546767117 249.5555987463818,513.8590574618515 246.1218308228857,519.1014692106551 244.70383964434262,523.4481031782535 245.39698856562282,526.8261589995582 247.82823149062548,528.1686589874349 254.03455896767255,529.6708994350048 255.89337884149327,531.5933202194187 256.2918056516619,533.812216579546 255.52807940693242,536.0383354151803 253.79624710693628,537.4005021665289 250.02642730495782,538.1897302464458 248.01193269585852,541.4853712403592 248.12339109489693,543.7088534901009 245.0563770107788,547.489432547459 240.80384340148478,548.5709880727087 236.54291819968807,549.0702055103412 233.04558742757905,546.6795519215666 229.52091662737053,540.0328898367234 226.8826129321408,536.9571243311625 221.9164703924298,532.4539811721509 220.9304371694328,529.6609961117181 221.86479214524846,524.7297502047451 220.88456315778387,521.7436476968918 221.00944483158474,519.293093626618 218.73872878260107,519.0796565257897 218.31975093758558,517.5550432270263 220.7368662468375,513.9714174024762 220.5496921484553,513.1070194471652 215.13285189688344,513.8039619647453 214.9367077182848,515.1532931075936 211.48815778758052,516.6593404045864 206.79942044761614,516.5192699034867 204.65560559458052,515.0795090542968 203.85646612416505,511.90734876780186 203.8333335478947,508.4296477255825 202.26294221779938,505.8394234684598 200.32345627773273,505.3661389782716 196.9358594168315,507.22693245538255 193.07800740101757,510.2569933429178 185.9556254970138,505.8736722350859 179.8240820526044,504.18942334975065 177.0143553880898,505.2767237662807 170.44160160427253,510.07358480444395 168.51434791798613,512.4036807568407 165.1336936454278,514.3033806587673 165.26826130709088,512.9960056727267 160.68103057734555,512.0137026382561 160.0098699702973,513.6848107349005 157.6454132933687,513.5414224055446 157.8527751563144,516.7620473579298 159.82286813880202,524.694572387387 157.51524107240294,528.5090731220309 154.9994165809123,527.8060509576733 152.2456721915529,530.3299111504896 153.08415694026993,532.4624961192612" /><polygon fill="black" points="4.3095319012292865,617.2305684921396 1.2151292385448045,615.327960979125 0.0,620.0812181003594 2.093321754600478,620.5930788212962 4.724747487716578,619.0048133623682 4.3095319012292865,617.2305684921396" /><circle cx="495.03955884870425" cy="513.1890929473736" fill="rgb(100%,100%,100%)" r="16" stroke="grey" stroke-width="8" /></svg>