<?xml version="1.0" encoding="utf-8" ?>
<svg baseProfile="full" height="1024" version="1.1" width="1024" xmlns="http://www.w3.org/2000/svg" xmlns:ev="http://www.w3.org/2001/xml-events" xmlns:xlink="http://www.w3.org/1999/xlink"><defs /><polygon fill="black" points="1022.2127827783015,140.83923406079384 1019.8690566338344,139.1367861227717 1015.3931357536082,136.95313657472946 1014.6541828800435,134.04944543441286 1015.9094353579059,130.7808172493567 1020.6629258874115,120.4752853896814 1020.4018213579297,117.68224534857313 1018.7843157520041,113.65739121116144 1015.7383512687181,110.50433973201166 1011.3972487840826,107.13726107907485 1006.0413633719334,104.24674752295482 1000.2182719506202,99.94076614747564 996.6287383334233,95.87308037809976 994.4279119670732,91.95757740689544 993.3606088130085,88.2476770911386 1014.0948379805412,72.56449537461287 1015.1593114065229,63.54381833163575 1008.7741787587842,55.87252405738241 1004.7838789788065,48.97919493224424 1000.2765839692735,46.07364641757988 994.6904216872306,46.08628297178086 981.6582633817951,55.12606075804638 978.4657418957902,54.601478542741575 974.6648682745652,50.48435494893704 965.9614162839124,39.934834313397914 962.2421236749899,35.8757249587909 953.3000221867246,29.00775970018094 945.9967548269337,21.742137239367707 939.5523182778904,14.44437618116251 934.8501466691743,10.64364889025046 928.6936449972459,7.4438082231167755 908.0784710947559,0.0 901.095707352974,2.0018253619651887 901.6077296535875,4.003183966639767 903.3586844065359,5.520082344664843 902.8227474217852,8.289959944976431 899.9353424324459,11.205978417556935 900.0382367866448,15.279881544483942 897.6672685728283,21.70763196358439 896.0782640568426,24.596166124684487 896.7211181622642,25.658100165911605 895.589436117979,28.599857315052077 892.3002818264247,29.66357287901394 890.7416449420494,36.64966625464831 888.9121959333698,40.041007454770806 888.7200436065339,43.98138518306098 890.71158815351,45.972805460670315 891.8230061122955,51.53379234059514 889.1730641619841,57.28632519974144 885.6008744756857,59.08583482990446 879.6929205574538,63.782101927864005 873.596848022122,70.97796517216227 869.5020306381822,78.01394082444938 869.4550956865573,79.69281652986695 871.0566941570071,84.06716925210071 872.6161319577229,95.84305288880671 871.9311430528395,100.03988882684428 872.1344638576293,102.33093435255171 875.4558098440252,109.37524126759536 880.2147764221394,116.83246986934114 881.9760162593413,134.2700718059209 876.8455194005713,142.7994658992327 872.8066158564383,143.2076169888295 857.2395510444984,146.8608696014005 853.0443294634366,148.64683532332197 849.6931517877708,152.70401001434368 846.5512621597965,158.42164885453099 841.0300564336699,158.84591079754364 837.4564647769683,160.58726470277145 831.0578166812447,160.80047440305623 825.132951093827,161.69068162247493 821.4280643498514,161.32955190161397 817.6023059056638,161.6796515950191 814.4447119332145,162.80988351393114 810.1791336980043,166.26502782527564 808.1131976447853,169.54020258916773 804.3989522702448,173.1088148244903 802.0850895374854,174.5871073753018 792.8835756311998,182.10157111573778 789.996539368944,183.52515694240572 788.3665372530637,185.16530967636356 781.726837786914,187.8833158173129 777.0049886883972,189.01104785450786 772.9610002517652,188.71014442632043 771.0543453592342,190.28289499564335 762.8924858617929,188.91527032453985 760.6522333953444,189.11174546332518 758.2166340336248,191.47508815196704 754.7584926790039,191.84537030004242 749.7332764379007,188.65948350685267 742.0425973614781,186.2088969256398 739.3762175861322,186.24569689079533 734.0323390940855,185.0769693369499 731.1304395591048,183.11477191761912 729.1099455966956,182.82543380321204 722.9195272744763,183.5656686649512 718.8826320852685,182.59663762391244 713.9509762264814,180.32898393047003 711.1789425379102,175.78606627313172 706.2186025572493,172.307156624914 698.7629644376257,169.9881689041174 695.5950863889856,167.0139843804111 693.1791215282911,166.56682373398212 688.4143747294114,167.7985300164761 684.0273439980692,168.00455629819385 678.6461778575757,166.78530117845582 675.0722426217503,167.5120001768904 673.4316448285405,169.02060216277175 670.8448098039133,169.12189291704033 666.6779092505288,167.0163809209348 665.6399113865622,165.65685272066594 662.3390173632456,158.996119953625 657.986321071146,153.18464032183329 656.5525395552025,150.65357093390367 651.0766541673141,145.93437291050077 646.6782388685483,140.69879386269952 644.4903919458405,138.88944789274967 641.7215603771683,137.92570388223635 635.479886930958,138.73436818331788 630.653066409234,136.40842582499056 626.8049386193356,138.80209597218777 625.2459219280757,141.1892980144073 623.399382478781,146.58381237357844 621.31117777287,148.86591945995576 609.1909060301999,155.56963149103683 601.7748731136966,156.32446191217116 597.2976161978281,155.4145610525925 595.8593266361067,154.367347759709 590.9316228303527,152.76244984163895 586.8490762977991,153.253921507516 583.8019730035782,152.53726286315555 581.1508799250256,154.68387424042885 580.0688443938658,157.34438528079363 577.099498523354,161.5972099844273 575.8741142951675,162.4442424229029 571.9260392722801,168.25410359451757 569.586717086919,170.14447869659307 562.930930128788,172.1975040138766 556.7468240819619,176.04310873516386 550.8375965356228,178.9316907420341 545.8017015248505,182.36653726120562 536.8484041932275,184.35294668039205 530.6478615624391,184.90145359734504 528.6373046190132,185.58432094900718 525.9003885859665,188.15272960512777 518.7317692027093,187.58365673725098 511.2522473877044,191.10327827174967 507.8565445258492,191.27715166863823 504.9307606528655,193.3780030309697 505.3376925463133,196.19284171076959 498.20500405937645,200.58538908562969 495.67937522423045,203.40676327362507 493.06810502989697,208.24288271035277 491.4479552683996,214.1199946129052 492.9002650032778,220.2361518607869 487.301106295744,226.2296572377653 484.43086115416884,226.92843105058842 480.49458206191616,226.12007589798952 478.0167532504504,222.93985976413114 473.6556127046869,222.71013214104357 472.1863824221395,223.37612959145554 469.2693039639398,222.71697299361017 467.286908410093,220.0859283551232 454.57943446575814,217.67366985357046 449.81400218470515,213.3619242901609 445.00671763199415,210.18029487549052 441.0453289932436,208.94756517349958 438.6557550198469,207.05193398472136 436.1463803123139,206.63230247637318 433.16155618073174,207.4022566560716 427.7121642522996,206.66406296937987 424.7818851204377,205.6539607899931 418.56477714715146,207.51468111148358 412.8001744766587,207.55120419395746 404.1365070211753,205.43464686458537 396.90457114984054,204.21287076594808 391.1957200177822,203.8766548476866 386.403396338012,202.8769661811565 381.3644352550801,200.25912825609316 376.94576563230277,195.49687170683217 374.79398012213176,195.07211437756678 374.8761766643639,189.015159901748 373.65112278870953,183.7387578070268 372.26834288762103,181.46416211772055 368.7567766998664,169.26601172910637 367.3635034158621,167.8763341394116 365.4332373954698,167.70676330348908 362.29093754277716,168.92861399528329 355.69025723480695,176.44196059491844 351.3031738093186,178.42570810384984 342.2928331545146,181.49978046549836 339.4503734776563,184.1292760788799 338.3583977253477,191.5800728390567 335.2669169610609,198.5988688421661 330.66619281759824,201.23128760256134 322.55470905081216,203.4305033544132 309.60225749342277,205.19725498227592 301.03947770546284,209.1360059189293 298.6210552960218,214.61374502659646 297.0946753923572,219.87420817498798 293.3539569862717,224.04280513174706 287.87094153891985,226.0066866743864 242.7227158790403,236.19823435439616 231.168863532201,236.26376227238745 219.49390174935698,233.10203853653275 214.9608413161409,227.69205282366022 212.5183151677265,220.35876950576107 210.4315427194547,208.49976866832628 210.95610665672282,189.66255551552592 211.30625699642977,183.040714698339 209.38810481388074,173.9698592660052 206.7791901993654,164.54866622422298 201.43649332804483,150.65292950813682 198.63083196435005,149.53682131689482 201.1093338493463,147.538577239824 202.3533927901965,145.3450952616738 203.17296065707194,141.1337262332538 200.81530931492745,133.67405266786136 200.3937004825102,129.17850624507287 197.59800584873608,124.79897192858994 196.21100940539296,121.38877382564408 190.74301747007246,127.9102673619442 182.72793303834092,129.7728383090399 177.6805252978872,133.69455649480722 175.72485843092426,131.66385631186415 171.76545090467715,129.5985853470827 167.7608750873941,129.54689214627308 161.74747495683636,131.45898129479565 155.71948667692098,135.35186740792062 152.67374281862413,139.30599089427483 143.61424646990258,145.14907193159172 141.5840069188794,148.11787369625597 132.4940068310224,156.981545697942 128.83643066515552,155.3498590874101 126.10886920540801,156.11743128694968 122.53916527377845,155.4869510398463 118.64724981620103,153.77012554497344 114.45472747570794,153.22891471352966 110.18052332830192,154.14672345155225 106.37039299821105,157.1737115950823 105.03356099119522,159.27665605781965 102.87651062619126,165.49316378316814 100.61229086446842,168.2878048682653 99.16020247158319,168.310451794777 94.34007663990091,173.40267878293685 91.30954147767626,175.3611788938448 89.27492157946978,179.31401463630004 89.23502390229015,182.32619961138323 86.66681441629362,184.81699560268567 85.75398072791312,189.6053748257284 83.52041425815911,193.07635838347244 81.04457240207527,192.58000431932783 79.56799550395917,189.8491194215718 77.5895507107224,187.8642953764254 75.60082862830201,187.61829707179982 71.12767164790112,188.84991641410886 64.69379853349193,187.6123348577015 56.00465295239392,187.60941901305023 54.766584905744125,193.0589993603861 51.29747998870155,198.75398861290648 50.054562905000736,203.71733542608547 50.311776970082384,208.91860511357163 50.05443499549511,214.36563340197074 48.32359394531699,220.8070263213291 45.59842300801017,228.00001734584487 41.36834267569608,234.6866172135915 32.190464358071274,244.2861921208987 27.179020376151232,252.04239326560355 21.093326822406322,258.956305962806 16.53760763160553,261.6565343316454 10.073068171156585,262.53602391651737 7.6057892078416645,265.72791123269235 8.14272833131283,269.1626950255112 8.074808864069903,274.1679721336815 10.028220670010409,277.1915638808016 13.133701484239813,280.38756524389953 14.66230142250595,289.9309861987581 14.657319914528253,294.09024647451065 12.491589273445653,297.6121281113326 8.860994536157847,307.4690161537861 6.328237319314091,310.2540317464219 1.263144829279231,314.12680577891945 0.1704546113983073,315.47633582106033 0.0,318.3439131607772 2.7919515740524945,321.2830879921289 8.78229560879981,323.809041269245 12.872645747564023,326.20632255022554 16.27560290859719,332.48520507726147 22.053898532120815,342.32458145906094 27.838630009948943,350.2941731310247 29.304123218181232,350.9150389841713 34.23266795299528,356.39337630378355 38.40738829074085,361.6523864982184 43.01503334403116,370.41073444403884 44.53768636973387,375.88500753135764 45.42089889835957,381.80549838829694 44.98762165106787,386.62109312700335 43.386087396739846,390.8756790346564 41.33975974467672,391.68468932990424 36.1584436865416,396.61443427102284 29.494188165646403,406.72020603727333 28.74376184167226,413.86469655757685 29.98369956455967,418.29500525080283 30.733581923806053,424.9386263573527 30.728639013555544,429.13441064921767 28.75015224865067,442.4342216618788 28.996400431338913,444.6487092147146 31.474033838371003,447.60926470719807 42.06815061979241,447.36069932686746 43.54774566636591,451.5431737477374 45.76933044723048,453.0295057888409 55.37615499662792,455.4905734472478 55.38630548534771,459.43385721439245 56.37383252093548,462.87785139894396 58.088099280234886,466.3332322850743 61.551720640089776,469.03816141348517 72.88066479707919,472.98489643489904 73.36965211381485,474.71636195470586 68.2059228598336,475.94097740166825 64.75402101244994,477.66733238996073 62.531128908765666,480.1260747108369 59.439298999621506,487.8441429734167 62.28204726957789,492.74497086605527 62.136507878498804,503.7290841316167 60.07418429044651,508.70427906521047 57.01266663900608,512.6573370775809 51.98539653743655,516.5842491823282 48.9634460037577,517.5442334701969 45.9645245806137,517.4956133615799 43.567207134750724,520.7168223785632 42.80901576543577,525.3433577996907 43.34305838912407,529.1089187551031 45.28693607731082,532.225892847985 47.44920751562118,541.3728399132171 46.68589202855768,544.8196821238187 45.719680277834755,552.7784763344002 48.19569566789879,558.2687034111866 52.29073072415114,562.2452997351852 51.96380851423472,564.5026362905535 49.59706760654331,566.1212986349447 47.55281302555957,570.5286323283408 43.295915450967826,575.6941051140078 41.13631969156741,579.4656146107327 46.42357461198558,586.8907439278729 52.23477924902075,593.4514532130889 57.510865112945766,597.8913452737062 61.28010706254037,598.6486210449223 64.83465869114173,597.7930045419076 70.63925600457384,595.532989423356 76.65569451558608,595.0999274449966 81.40180992140162,595.4306306774588 84.19255137811236,596.615505485076 87.75463246657677,599.0946033766483 91.50584447279404,599.6403066816102 95.16682657773255,600.8259707346477 100.11234979723994,604.7081407679035 101.84272660041884,607.9349717787859 102.47869253274234,614.81874409936 101.23682582724098,624.4850301923186 108.40079868416628,627.2232412574355 111.37249404998688,630.2152035366097 115.00561668831178,637.5542315417159 116.91857469696785,639.3684590071475 122.05824129471145,640.9979287802182 129.08211594072077,640.3394767616837 131.69014271347768,641.4324871204086 132.4471620027853,645.4862889558652 130.29255767352274,647.3298094482559 129.6629548072225,649.332382755742 130.78769930472308,651.892494009608 130.3207448898701,657.0961569605806 132.72893893603148,657.7614234213598 136.3326923183927,657.1161130946368 139.40268490332116,653.3955827227855 142.45965557507597,635.43451071667 144.65346160786652,631.2723083765982 149.06384364589965,625.1609483201173 151.30621912695878,618.0704096625385 152.92383107511827,611.6147827583893 156.10689805590803,608.6534622484987 160.18491129225168,607.6393064805607 168.28988246291593,607.2131002442284 182.06802268462536,605.9334809651625 187.112757190233,607.0376165194131 193.0348526828611,610.114601884774 199.37324482934264,614.9477168780326 207.03603131522146,619.5585940851263 221.25568092757885,624.8471969492653 225.19934870675357,628.7940675332256 225.6370910054003,630.7683527429597 221.70304026637007,635.8050045261368 205.50292963066414,654.3997816061545 201.56426890634452,665.3512833647178 198.49866040235295,675.4286327628793 198.4853512893065,683.7550366734871 200.67980295558772,693.4020187846997 206.3728899020568,701.7425963532244 209.35412733370558,704.1495414912227 213.2906262263719,703.8974377726345 221.25441334081327,706.0233070441868 225.22472460509138,708.0834594354471 231.18158018532478,710.1682580668949 240.1397540929355,712.3058106613747 244.12015182157887,714.3500592734615 250.11270184046367,713.4397875164307 260.1487750603975,709.5824580056004 263.186972785526,706.6248659703411 266.22243925430564,704.6672753686798 266.27743973555465,700.1920289515772 265.51915553829355,696.1615188658586 265.8350851259333,691.2347410707517 268.80836049573105,690.1387963924973 272.3047182810232,691.5650856795694 277.57626565603454,691.8980033365655 282.3928438291674,690.0369421400543 286.56566511883403,688.9397553522092 290.1862661055031,689.2696527269031 298.84525507415754,694.9746833574382 303.9916048082611,697.1609740324715 309.03390972936023,696.9380822171091 313.87716545345427,696.1743184862504 315.73377984193223,696.8309287956687 320.4516669465515,701.5344408966173 325.39138485016036,708.1064559256624 325.8271394506017,711.9359293039713 324.07449510628504,715.439407717085 333.97513943846315,723.5604541844689 342.02140987397587,720.6531638111022 348.03372972278464,720.740641122049 352.01588715754303,721.7724682971634 355.9971970781924,723.8234169975868 361.96234468740187,727.8909449625198 366.90300409756134,731.9531396945836 367.8729768218862,734.9525316189078 373.2107054712574,739.2806018832714 377.1161113270248,739.0915055664484 379.20778577809114,739.7433667288595 385.3567419997189,743.1364126972593 388.7518153578745,744.552654509788 392.2774126350199,744.4302653541997 395.7890563341523,742.8929906283385 397.6918000923125,741.3037351261667 398.6333913500693,733.5898328984234 399.06440999162186,727.3665034103605 400.32088123460005,728.5624198766671 401.0632226223323,727.3010382641953 404.9969202456896,728.1048708038793 405.91164223833977,729.6852731507048 407.396585721445,727.9604060405712 411.7448782365784,727.5076083721652 410.47847646581397,731.5695910250515 410.1559919001,734.7087541982522 412.92903858023834,737.5407614702725 418.92334789121355,737.5460046413842 421.9366648224486,736.5705161794558 427.96103283001554,735.6403211762924 429.9915719746517,733.669017612226 433.004681518445,732.7020998038739 446.0225764860973,732.84519507438 448.0544327530927,730.8824709776536 453.0136597940413,728.9690065827253 473.46253579442595,724.3350471702271 480.7051092965741,722.5706852074238 485.31136418671355,720.1560348137623 488.15813978436245,717.5262650559714 491.45157859488893,711.6071013579151 499.3239272118863,705.640275360933 504.4156360020762,706.5599975196509 509.44631273834614,704.6235418520416 511.4870743650118,701.6517083766255 514.5200261735768,699.6996880540532 520.600274846067,692.776566999316 526.6242991371552,690.8578449658205 529.645909318067,688.8898369184184 535.6571124286837,688.9724596470485 544.5955558372988,692.1082427373585 548.588906790454,693.1524494434916 553.5537783419195,695.2177477011345 558.5516403290371,694.2973003029889 564.5423910683099,695.3719402163775 569.519589370492,695.4510046669398 573.5225256486677,696.5122931551995 577.5060389546978,696.5628725084192 581.5116139123473,695.6223636522179 586.5080657379702,695.7012703778277 593.4507148029561,696.818620200165 599.421138142082,698.8938230811252 610.376792060659,701.0628012705766 613.3679410571486,701.11249215741 627.2292138640668,708.332647410996 632.1965255409717,710.4049138092216 636.1164137637593,714.474499794337 640.0793091294694,717.5358048654441 643.0055511996943,721.5876913155945 645.9651049215802,724.6312267938974 649.8961886285758,727.692001948515 653.8807026925168,728.75163277852 657.8337763675186,730.8125472852462 664.7968950043077,731.9348340419692 677.7536991324109,732.1460665140136 680.7122480150312,733.1944517824396 691.4885460040109,733.2078394917506 697.4303938487344,735.2556876868737 704.7515315040329,738.425627381882 713.983666708014,745.2106377375957 716.7928104087223,744.8912384646336 722.9464526454008,741.2336829990946 725.6534442478986,741.0019715219955 728.2153951032356,742.8504638095984 731.6743285522549,749.324496801776 741.5563010588124,744.6489928364878 745.7292472438537,745.2437925458522 755.9238364620738,750.0683556094318 761.5325520436196,753.698075402126 764.5386073328247,757.2543155090856 770.6428071853775,762.5889979580056 776.5837423368577,769.8119298183867 777.6912197447581,773.7303705742627 781.0068252499256,778.1848555443709 787.4093208998323,777.2386403526564 792.9211352478309,781.3560467042528 798.2253256342099,781.6615085322313 800.264236929986,783.7094756335447 802.39984856098,787.3453338946657 807.6728833384065,788.862680965447 812.7478775290285,789.4581775648264 815.3097301633753,791.6000109945508 817.1391122220979,795.0445521245538 819.0985537101336,796.8720591844608 819.5309003265166,799.781942000869 822.4648115590513,803.6379715602978 825.2152830080398,806.3912252639668 826.5508685050721,809.1078970203778 830.1035514653942,811.4874734194123 834.1873085272156,811.9751865546194 839.1521010945144,809.2714427387318 842.1348252208304,805.0432041098242 847.9589059489288,795.0697411641817 852.902941299395,788.1656539823026 856.531159199474,787.0546724234655 860.3068901457303,788.6207162286071 864.0202726365598,793.4836191330544 866.4878642508384,794.6240573325082 871.4277212992014,793.4262118517076 877.6167501446812,789.1047570142299 881.1356443916644,788.6595115197636 885.0061488920053,791.0813454695841 884.5029881588547,790.114969855016 882.8941735822872,781.4960581547042 880.9742452971012,778.864710948355 870.588870249098,772.1383868525263 854.6303560113801,760.1577019357389 838.3383870179341,748.9372628561985 835.2828354076811,745.0906516025652 832.6744823505545,736.437035178646 833.5977834987483,720.5836225589833 834.5751296920207,711.8136285373556 833.2562986094562,703.1987611536701 830.4659578376339,697.441935070792 826.7603095940744,693.1741539239022 824.8813634923737,687.3460895880662 825.3420455192548,684.2673115391161 828.3132224085019,680.9275963212915 831.5287996210774,679.9907122424181 842.7543755902939,679.7263657701277 846.885551822675,678.4080306329809 859.2172237281093,672.8563452297542 866.2178662572456,673.2918479943983 868.9495720771137,672.553577482285 873.3479662002032,667.6402010641476 874.4860716457234,661.1745473322403 875.1928859552669,660.1327061056967 888.6118084858086,652.1826377348153 894.1621528472392,644.5729480447999 896.2276300041538,639.5967672543006 897.402079255263,633.4501605282462 900.023851650293,625.8436815136314 906.7669025726935,615.5938628694847 921.5354306405177,600.8334207141299 925.993846293246,594.912876640062 926.7480209934574,592.0405491938277 927.2822935271998,585.2624173807847 929.1952037328022,580.0023531926765 936.2282560055999,570.0402090042569 943.4178113059389,561.9763329486777 947.7192090644089,552.9811496056368 945.8403028921447,547.1489022696122 943.8337057979388,537.3246120899677 944.814270980509,528.7546808312975 941.8593296131035,526.3125741718462 936.3979348720882,523.9112720740645 930.5583555291369,520.114429880741 926.0302161189135,516.4378522721128 922.7627116489833,509.0975827034765 922.4142144136804,501.6961302500877 922.7535507214141,495.0154089660488 933.0891300508662,494.90248727489217 929.5952699219788,488.9502510211169 926.3481215849669,486.0992526940439 926.4223603706439,482.49756044971656 929.7258981014958,478.36728034800666 932.4435505187829,472.22989718482876 932.2500233358192,467.92888509380253 930.7319197847413,462.91506677892204 923.4379827195037,457.391796176962 923.1993103648546,454.48739711572034 928.113555662695,449.77843460404955 929.6023834261658,446.0124576733385 927.742982904368,443.69542791762194 925.299018089402,436.0563165136238 923.5246590081526,424.63646573629603 916.4574272679375,417.0176801585296 922.5525676835036,404.2599707294647 920.8158534209662,400.7246312418416 913.2139390918575,404.1778920264721 910.8169058668201,404.6427307261826 907.9564774862951,402.0877219945812 903.8622600079467,397.0994649946924 898.2484386111361,387.40878984640494 903.3717741587914,382.2163865257841 908.2564289682674,378.3141514587531 913.3739989450247,373.51169640499705 917.1991610834955,368.1933666607351 920.5813994133969,359.87279398331964 922.1461668514978,352.30656845069035 923.131622282306,343.4439997366203 922.0538330622592,337.43779132947407 921.0867130336892,326.2240653428447 922.2880538808911,317.07960179585444 923.8988698479397,311.2139866641605 926.3756472819882,307.65604404424727 928.7217472534821,301.8200486152001 930.3826070425512,293.86796369101535 930.6350825757959,282.31919409211025 930.3100352137781,279.92782547552747 937.3427423832235,268.10376632889813 936.1457884452528,266.05427526515643 932.1966579954233,267.42952044649917 926.7025351323144,267.9625288781556 919.3272181105207,267.45312415140734 917.7828743072274,264.3759052307232 918.8148595672425,256.8498708854594 924.9887884569808,252.5643143001014 929.2838250541981,251.36147426716002 932.3570140741592,254.94788706492295 934.2547399085714,253.22915496457847 936.5038803300524,245.55088596320354 938.7257047870769,235.50147997771398 946.7230906486257,221.96699814196177 952.090755090561,215.18035872967732 954.7861009173531,210.04249780969587 955.6578263694608,202.20650682138216 953.4353422919579,198.32877642383153 952.4874278755287,190.63065449153282 948.2555346069684,182.0740308981094 951.7354769632942,178.1369024147872 957.0431364238253,174.54096673967763 966.2089906882128,172.21622314187118 979.1569075810784,171.94016192143454 984.5948357337593,170.63379939886454 988.1509382017093,168.41097786143723 989.9243196155408,165.64200519796088 991.5036854428159,161.67970363033976 992.8375252369871,155.51324797193615 995.6643283691016,154.8652844376171 1000.2561055013886,155.4529836608541 1005.4307985818019,152.75535941859005 1015.2815427490166,146.84828746025835 1021.0526935719977,144.74110002059092 1024.0,142.09759523394587 1022.2127827783015,140.83923406079384" /><circle cx="300.9032676899" cy="440.13545057989995" fill="rgb(100%,100%,100%)" r="16" stroke="grey" stroke-width="8" /></svg>