<?xml version="1.0" encoding="utf-8" ?>
<svg baseProfile="full" height="1024" version="1.1" width="1024" xmlns="http://www.w3.org/2000/svg" xmlns:ev="http://www.w3.org/2001/xml-events" xmlns:xlink="http://www.w3.org/1999/xlink"><defs /><polygon fill="black" points="509.97128606430914,521.8020245699872 519.9958748298569,520.5750128626516 532.1997869462315,518.8923314392383 542.1131081375486,520.8053995052825 549.648423064106,525.386463779151 559.2635610452198,532.6524162740951 566.5605960169656,538.5016956392358 576.7933739222124,540.3736237722484 585.2933326706076,539.5320047593807 591.1778197934058,537.2722681693692 600.0613711113493,537.6600207880431 608.6210812159638,543.1022742810417 623.5188330437699,553.7943214302882 626.2472199361264,557.0896770661985 627.5190373367095,562.6705609613206 633.1649327536956,561.6794256550352 637.1595342128636,554.1945218538497 639.4933258775725,545.5456499303764 641.1430612770861,541.3486898208956 645.1096475890973,533.5447571445337 655.0025233199254,529.4634698986628 677.7361531018968,528.6633263158774 684.0645697742939,528.5849783243308 685.6027962355425,527.8586308632617 696.4847083273521,524.6700034927499 702.1663047624404,524.5209655013487 703.5569370299202,520.760047957116 705.338305284288,518.0373745569684 707.5475414458855,517.0960839794653 709.8618069416183,517.284161885888 714.4483375798213,518.9695306440711 719.299551226594,524.334512344309 715.1584186276698,530.4492063281594 723.2514248249,539.0836513780757 731.5738105881164,546.4492729446154 739.2351644625038,547.8866616358071 740.6710621647926,547.6234916776484 738.9308756196772,542.882842221978 740.4877099600551,540.6522575283554 744.8290604349919,539.0535020429743 745.9931815307834,538.9757359650114 752.574230080782,540.1537428628892 760.7488129916695,538.4309968793823 770.0142330863891,540.7224508165949 782.5016329745669,549.43679823094 786.3131597970795,555.1963402392167 794.0923418594404,569.5286040011391 802.974688965739,575.9460854873261 811.2060917742467,582.0762092555024 819.9559310938671,591.645422534152 825.1321387958968,599.2142238735182 830.4139988114791,608.6712463909217 838.0780678968566,615.7784528489475 846.3668327481699,617.5037730017903 854.2067905183892,622.3957456263155 861.3022532163718,625.1367386143365 867.4560777842623,622.5772247890378 872.6100554920496,621.4683280289004 877.6316391312796,608.1344319879356 880.6420667002358,600.7171546466909 884.6907669786974,589.1511184503111 888.4841559777516,584.2104248827842 893.6231726974476,580.4328620880492 903.5014459197596,576.705205640392 910.2142093428882,572.8321456137663 919.5087661750179,564.4071005312879 926.5266206181855,560.5201935812393 933.5364660173068,556.317812548982 945.3211315063905,552.4514463945249 954.9692087837476,549.9643141199149 959.7218781074067,539.6096219404701 959.6376186478003,527.6502750240672 959.0843836551112,518.246878437312 957.0719987250212,511.12732149854514 954.512213895731,499.9511145514934 954.4742602102405,488.6237062667577 959.7100704916761,481.0621338383079 969.8631773607314,470.99403567154343 975.2975286812393,461.20678840592194 972.140013317513,450.7045414643044 971.6205230689129,441.929224977228 971.8837002754004,435.9290019300193 973.1798836070224,425.77622005194627 979.0434471611524,418.17065172746607 987.6355914312704,413.54566359668473 995.0048921922318,409.9461689328748 1001.3104795048778,404.19614292402184 1005.652991820435,397.63347069774886 1008.1381316117654,391.4973620799208 1006.4398624825083,384.366700896618 1003.1006244569603,376.07736360097647 998.9304681270853,369.72141719891476 994.1110213515291,363.09760830630756 988.3440866021685,356.52423511501274 983.4610697942505,348.96150428209125 981.6769314253844,340.2581199453791 984.9908402499144,332.18784918740084 988.249250936907,328.5231534926559 993.673924400096,324.08843813985277 1000.1913777068128,321.7999190226182 1009.4033298138091,317.4504870844544 1012.6077849533023,315.7938983000812 1016.2037330376489,305.9983124272297 1016.697356887403,304.10862813926417 1021.4042817951625,296.35727960874675 1022.3385332379489,288.3788598635265 1023.2441298181888,283.37079927115275 1024.0,280.5316934668258 1023.8924863980942,279.0858470314644 1019.8975475882651,275.5837587876224 1015.587008451212,272.922570646739 1015.0815240993331,271.0439554027014 1017.6985719725886,266.7554153212493 1018.3703028918892,264.6050088414336 1007.8829091700487,258.470733280593 1002.2912459282953,250.9840818772858 996.3507793097356,243.775743517073 991.0633980801257,239.47271934434457 985.3737530988824,232.92505081084653 976.6495083340646,224.8234052816386 971.9457934696841,218.04679038721537 966.9716054410562,210.61744697500143 962.0872822935532,202.24427681155566 954.5184647155373,185.71531725213055 946.3827044317513,181.45753239856793 941.1632662556661,181.84549540403083 935.0303441257867,184.97672631715017 929.3919573223997,193.41809266391294 926.5849900067258,202.62842746262749 920.6370033054433,214.79158980060146 915.031079336628,216.1493541578448 911.9178522744826,215.60291804610654 910.6423152184499,215.97866267255415 907.6627712756792,219.75089781206947 903.1153470563733,224.47704999873764 902.2117308988242,227.22681445213203 901.7183271252228,230.0695979694362 901.6071185316049,233.1211797433707 899.598751925751,234.88585193534544 896.7415185261935,234.3451938471506 893.9309203690344,231.08056255971098 892.301277687322,226.86708411717188 890.5430266514504,226.6976491587585 885.6164741008079,233.53259609483115 878.6175307029846,238.61684603015317 874.3397306149358,241.04825176795737 870.8428740235962,244.14219063903 869.9169249820814,246.40567741991316 870.1312455160651,250.34021001409997 868.367869032888,251.23383707363928 863.5024707802313,249.92532645004832 861.5434622657492,246.8249515971579 861.0050667404912,239.50382142897723 858.6191438144258,231.67360082122156 848.6081141722711,229.1593870033883 848.5241095336368,234.77257575088004 847.463948176835,242.2596621824893 845.8336555601912,249.36257714007394 845.2714265548938,255.00053470967953 837.4383633089521,257.69361828219564 831.4757786799062,257.407903015031 823.8457206291976,254.73898819841332 822.2776565900326,253.0910071650042 820.3474447222205,252.53243938967216 816.4168244870023,253.2447033980631 813.5262369194359,253.06702360423105 811.8747006202441,252.23335686833337 806.312488105565,225.72185740804412 806.241153405974,224.81365332882996 804.292770885499,218.51808677862903 802.6792475921795,218.40829410859158 801.7446455473054,226.17825138662772 800.4779287873744,229.1791447217072 797.6458835623532,231.10714012026546 793.9298886695203,230.92307764782777 790.7868341139286,227.68263079415624 788.6729180407987,224.86134908491533 785.0515102247945,222.52908655606575 783.0835103664587,222.93810491943066 781.7704185667772,225.31908608446656 781.925607610467,243.47222518717427 780.5664231792832,246.9435225174616 780.1442679283332,249.9250318970897 781.4560571848999,253.36065560094346 781.8829545355131,255.55567248705734 783.913901302862,260.14106807574336 785.0013882980054,264.44769952137887 783.5602668118315,267.51665759093856 781.9330955963155,268.6358816644592 780.453202650101,268.5802315318034 777.4311772088207,262.1454279578175 772.254950501034,260.56981031692453 765.6986792698818,257.9315054322601 751.8229581162636,260.95075731369275 733.3459013706018,258.3961734734793 729.8932969197868,261.84859631635214 728.2601184722736,268.69436320742994 726.4738983662671,269.5599812350804 722.030269936479,270.6512566350036 712.0810784925894,270.47245046165193 705.0239814295069,268.21818149482243 696.9303776900047,260.4821952449297 687.7002891542879,257.69867085962716 677.5524928453598,257.6744321817075 664.7605845165983,258.98708075155315 657.4979214447167,261.78297660373755 654.2919544874994,261.6528782217331 648.6172681576501,260.4737798744124 634.8480655904982,259.964912016432 622.8386542508111,256.3057249869934 615.0838668261698,260.9462710070588 600.5501899581184,273.1782000093836 592.6178961392552,279.7044709233136 578.5585917357465,290.380507485491 569.1320684828911,299.2825176195755 561.6910110312882,310.59120327202635 545.4010289142168,324.82476853131254 539.2447028018872,332.7750228249228 536.1771103778777,335.00302739779744 529.4054968438979,336.2424839788707 519.3624257774077,338.7390117171202 502.02819198708914,334.82851441049417 498.9551802749501,327.56430955565224 494.68379483278113,319.56071312430265 486.47469519013833,313.0581935090518 479.90064622746786,309.24092028889436 476.25532919999,301.2969557588259 477.05346886628803,293.1505224131359 482.1458323589135,282.92069372596245 483.49534726015287,278.9485519935173 484.3775679907833,269.8673858735879 483.97589604757064,257.8263749424588 483.09220528312756,250.78021993008446 476.91151539703884,242.89594379793698 471.9174625535309,235.7593341037437 473.11627403827106,226.71312267047375 477.01549569956745,219.20287731615815 479.65925399509894,204.92485212957365 478.84711611494237,200.42267053081673 476.61385261738917,194.19355702660016 469.8972562688456,185.31264504601802 457.7304953815332,183.772826463253 450.33084770005723,182.08000916049224 444.98681347110585,178.70282985668013 438.8114138578957,173.97153341567935 433.42453528824376,164.57914515841208 427.5919360640648,156.4116280195629 423.0255575968058,154.68841403211457 414.15081711875746,151.8967883783847 405.8724487696703,152.64258960169718 394.8472539205572,155.6426766904678 385.03274762974434,155.92958083228876 377.5573238008025,151.7139209882235 371.8729731921522,145.14083155799563 369.52900247822026,130.36903861610494 367.23399180053843,124.76379726746791 361.74829620527225,119.48794919279698 354.97395707110115,114.39471132340549 352.07530512935506,105.2591777298179 349.2770269187421,101.51232623756448 345.115022228375,98.88383906844103 338.69925819590964,99.84073291649759 330.5218611839548,102.51730572965823 322.9632419548418,98.94065968031668 323.3108776530373,69.58148104158852 318.01798580048666,58.95742037996979 305.82917596161064,44.50500873052317 297.7219875041372,36.772251759949086 288.5899355302643,33.05742917219516 277.3531011947881,34.50558954013661 269.66026031177296,32.18807099620642 259.9734200429241,30.947821310914605 244.05959614717096,18.69300642630708 236.63166563436704,10.39591295224011 227.42946658434676,4.142942025034472 225.32421319516035,2.997410921399023 220.0567405288232,1.8629135642238452 213.52876135377008,3.7581283653038327 210.3200188277886,7.562796724286727 209.81615056604784,12.567292824961442 210.90245011585367,17.730654500336755 210.39852878500184,22.735146650891807 204.88802454119383,24.10124469563675 194.70567376284427,24.697720539702118 185.19260794338274,28.202276999298874 180.46281544388324,37.854868875589545 174.5287338718766,46.75496883288281 169.41111204047814,50.95618991020024 167.77537512629692,57.18346425237053 166.14740330101534,58.98747326808791 163.07093185471757,60.611662715408215 156.0319451549713,59.52134634255094 151.69243897529054,58.07192030535259 145.20317214202737,55.1704461371678 140.32324874847774,53.53776445194114 131.84941657833556,52.43261648716452 128.60216173344014,51.16286958120702 126.43483014341172,49.894465620370966 121.75141445526522,48.43167176099075 116.87678851534046,48.42102086894545 113.80993226596645,48.772431634310465 108.7659861039949,48.94360223270564 106.42435685655074,48.20773005697663 104.9796757459273,45.669709174445074 103.89120919241756,40.057610604161255 103.35162463027662,34.998209662768886 102.09474866633403,30.290133440072736 99.40005992977662,25.945020704825424 97.59298677206294,24.307233944134396 95.43236927987535,23.39562396563008 86.48376861464189,23.54654265692693 83.65629631925655,22.294740151381234 81.19450356513374,23.52860452807215 79.75715743233175,22.0763700753256 79.55247013386705,18.195005392580697 81.7763021610536,12.863918685359636 82.53458388833259,9.4588686857428 82.7596877217531,6.325351483294867 81.19386961587281,3.2082002568891994 79.8024221846698,2.003166891995079 78.02379569911042,1.4823381871094625 74.19450478382151,1.742093408339656 67.3925967652764,3.7858120698367657 65.55342397669163,2.626058154514908 63.06720568010349,1.6765093226491672 57.17272502555115,0.0 53.446030430755236,0.29435632035074377 49.953353930837125,1.9409494401435268 45.9879766482341,5.90558818666841 39.90410775857224,9.022421056651638 32.70290288992979,10.28382985023029 30.671826973429543,10.449618679059654 26.750283743151442,12.707480328822157 24.692296607134487,11.136749455857284 23.111475671859566,10.911899748946666 20.479416511571106,11.655211156581686 17.586675650700407,14.063946444356588 16.051180104957773,14.71902344104376 13.520133065965062,14.834635042644663 9.292722723840283,14.344744192508415 4.347067790362621,12.861651466933381 0.6574565723115139,12.3111510864195 0.0,15.885167413391514 1.7907500648732233,23.332419111323134 7.247547233950054,28.941641094179545 16.10979197833226,31.724603689796936 25.50875835241165,32.36038876005898 36.84184305772407,35.72386454935565 44.12936783010464,41.83281626533437 47.053797489654436,53.82700959381498 48.66501655737992,76.10787305627571 47.33407167396265,89.87807207484718 46.185680723226206,91.97391913326544 44.32728822711521,98.09551231978025 45.64030187988889,103.9250921158806 50.328101668683054,107.55408398828604 58.61118996839863,113.14665814087965 64.21290077648624,120.35484155849917 66.62290931894341,124.70946637303052 69.42077965745828,131.62888640325616 73.14600431576248,141.80307510105246 75.07733550017356,151.16328913744536 74.08547039783569,158.00990419292424 71.78232185825021,168.8399240032357 76.50905566879646,178.48311446438288 86.85091719757176,182.3876954108065 94.69756332446082,182.55640439328783 104.5652775023616,181.66183277303566 111.3356034226508,186.45999764412494 114.21403389311368,189.27329239576795 116.33228603048913,196.75192539313127 117.55246928241321,200.35368620002458 118.56436813371373,206.14220766826276 118.09392417694734,207.96067585131908 122.05196151089217,210.68086484218423 126.47388198794366,213.1234840616566 131.5297659654079,216.34313564281132 133.4193214235768,216.62031502671095 135.3602914837416,216.28022474818857 138.46124571262993,213.96361153007473 141.25768675787933,212.98333263811895 146.2886261469034,214.00149335219425 150.55580688684083,216.2799456359739 152.93836988442254,218.04438270073376 156.53444248750114,222.84316466323082 161.07215413778704,226.60839118776045 163.79686582277185,228.03540476728983 174.47863322723882,228.04267550385293 181.29968830395836,227.58808328403995 185.11304110083051,227.71543107969865 187.29573094666577,228.98527088743134 187.62829471612787,239.01742740125997 188.97552329741217,242.0944327099662 197.28192454435222,246.81886539196785 200.33089085920668,250.4352284098319 200.2529714182779,253.0240900963044 199.25674190528628,258.5736428018482 199.99710731526815,261.94851613148626 201.11383844058884,263.4663854576569 208.92919111870845,263.7876245497674 215.674241253234,261.718580515954 220.57882038054848,258.2151406956017 223.41124754564245,254.50890523953336 226.46552028980187,254.29586022799322 234.443958027205,255.8040847141952 239.9682578120861,257.436686772899 240.0888406516782,260.88651597269086 239.63704127833978,264.17919672923625 241.15643118349493,266.55400673913744 250.09855462469102,268.26209440838113 254.04426009562502,268.25044893697344 261.3266189156621,264.30604679854036 262.7396653597029,262.9291164533498 266.89968876491133,262.9200467960999 269.6204346990017,263.98011219318715 273.3276258010498,266.0280757125875 279.2252740982845,265.6411211548067 281.8603332092697,266.5092556340495 284.84975900259684,272.8736502194711 285.8753965994389,282.334633246483 290.4421067996623,285.09133717252456 297.38602432818135,274.79576794687887 292.25284559843567,268.89203253501205 289.05119168857715,267.7137440128895 288.7713687500951,265.2270035388716 302.7910489571116,259.493186442762 317.0073836044279,275.940127852445 323.68137379818523,277.86811186025056 328.59590207568215,282.87714308991195 330.94774190787456,285.9533717117415 332.849372908823,295.68164661282697 334.86755637886165,298.41869785744666 336.6161570587773,299.22640030236585 341.48478022886405,299.37406363197556 345.3181421732991,306.4529453433874 350.92207576549487,307.7921457082995 359.5856718835839,305.1976120642661 364.39013748025195,316.14148289464845 366.3881732505901,328.67713801118566 366.481864684595,340.2878868947995 368.41839300578124,348.4245865991554 374.76770100993343,355.5940672067031 379.58064979652795,361.9152192977859 381.54940498842876,364.0578714811698 384.85415124943745,368.2850773400193 385.5645433169602,370.23891594401874 385.42855773347236,375.49224683882 384.80756717967677,377.78064113830305 387.7838186495597,384.59891069714166 392.2983902257061,390.1114511433764 396.489557053658,390.9435143262814 400.7503397093095,393.8248316381503 401.2447564593994,396.2141778350469 397.06190840064517,401.79596536263006 388.611324522341,421.59902924357823 384.9505187577491,436.6266976166594 383.64572654439684,439.48675120018834 383.72568131536406,443.2318623336472 380.0140784586343,455.09442297308806 375.15047739636765,463.2494630300349 372.3890173889574,469.7049229620769 372.80382509691657,476.609534866091 379.391925762309,486.90884207308886 388.61983945799926,498.9638899143907 396.328871985804,506.6960588126623 406.0743667330206,506.4412656634293 416.3516870553544,504.5850421083659 424.2522530220584,499.72921819102123 430.93460909592454,495.8782804789013 436.9386755392399,496.16741726579505 447.59076060941936,495.237897826014 455.4632653965178,495.4132254290593 463.3788932247153,496.215922695685 467.63977698448906,498.79069694914983 469.1720661711169,503.43365958272284 471.5357289759871,511.4701324996076 480.48168922822043,518.8203272987497 489.3324109577812,519.2439473779121 499.71250862916776,518.9420575349445 506.49383481972046,521.6970396021435 509.97128606430914,521.8020245699872" /><circle cx="467.59340859260703" cy="391.246484095306" fill="rgb(100%,100%,100%)" r="16" stroke="grey" stroke-width="8" /></svg>