<?xml version="1.0" encoding="utf-8" ?>
<svg baseProfile="full" height="1024" version="1.1" width="1024" xmlns="http://www.w3.org/2000/svg" xmlns:ev="http://www.w3.org/2001/xml-events" xmlns:xlink="http://www.w3.org/1999/xlink"><defs /><polygon fill="black" points="790.9483955197294,65.52229080170412 786.1534530958711,65.77942649615306 781.9426292527504,67.35492646642092 779.0082922032668,69.30298330627102 777.0955838320583,71.26472948380865 774.5743482795558,73.02450055725603 770.0849418841459,75.73791231094867 766.2801453329974,76.80938167166482 762.9402103256767,79.31734030195469 761.2826972631053,83.77849439841646 759.7940323283094,85.96426864501768 757.7606402002135,86.77466084789273 750.6511592776608,85.64048740514829 745.4007186917361,87.74897727579275 742.8280826908123,87.86907138724052 741.4676538058114,87.39367020339421 735.4405634714137,84.09851624103169 730.2892984378393,83.19038291180448 728.2616175570233,83.3846201035924 724.4684306675288,81.19069685534464 723.0215381689217,78.01797933618218 724.4301348976069,72.48906878661182 723.5925175613986,69.98104565956567 721.475223736026,66.53412017352855 720.889474461658,63.881186750525444 720.8142475766313,60.36902964368403 721.9887213016649,55.75902152398373 723.615359022814,53.79687623647226 726.721599261061,48.80872875791556 728.3300737972677,46.920475859609155 727.7058101849321,45.5944150328138 725.9461368104418,45.51646823853878 723.1086187877908,45.973598527373724 716.3405557886247,45.30613387282858 713.9450843331969,45.517460615468735 709.7273132938346,47.187889400413155 705.1218491965194,51.04852172244102 702.8212538749784,52.59861540281952 699.831469052545,54.0040675091426 697.4491708555068,54.33569903142438 693.9649839063101,53.87088777702138 691.9302956006649,52.93454985660446 689.0725565250194,48.374878810593714 686.5749843605175,46.86023258814919 680.5529194512662,44.920488298459645 675.2397748954304,42.2530709744982 675.1404613248424,39.42111893499009 676.5378747896513,36.357507431085764 677.9649997488152,34.142275252578315 679.0620428072693,27.089290944145546 680.4262178537607,21.403141749068254 680.3707277374801,18.278381508601456 679.3456202926019,15.5493597500855 676.0878305375219,12.971323473041707 674.1036272286688,10.28906535237536 673.0277056908416,8.037970440958816 669.724630957212,3.127001211209631 667.9017184426806,2.032293534251835 662.5448070322595,1.3199588418048052 657.9899799028425,0.0 656.143475754623,0.9169907353938243 648.5206381163853,3.617859614518352 639.9678639279255,6.2928969087254245 636.0882850596117,9.323686224786343 633.7860628842064,10.40410519926695 631.889913027115,10.118206869581513 629.5813781901345,8.339542784012451 625.3753434375051,10.086277427576192 621.506297214946,13.537290898197853 619.8735525748682,13.599558274408992 616.2237849091389,12.975320523595542 613.7546352015745,14.317792074843396 608.7953308372884,18.375097858444633 606.9003941740997,20.26956344938003 606.4227204513343,22.105811153008517 606.940386326684,26.317657542498978 606.1084037575854,31.3438582862575 605.0228306275884,33.38053981115752 601.6095387268168,37.175844463172325 595.2773168641311,45.44114438188376 593.4987561951328,48.01921225319768 589.9478973228464,54.25776348692068 587.8979613305789,56.155458217893965 585.4549887687159,57.374486356912826 581.5111451716585,57.76627996231298 580.3522707551587,57.08173196934956 577.1530977197708,53.91640402449127 576.0240030347854,54.55687350686037 571.186930955353,55.15406061114413 567.6296919260418,55.050270825344114 565.4428574269932,57.16891290746753 563.1598213210557,60.493322464918265 555.4729208959359,78.37105045106034 551.1043267591289,85.653894945881 545.4927454418664,88.15787695586187 537.8011853556263,87.76015037115224 525.1131514969599,82.7979936713134 519.4723186517816,81.36706903072411 514.9747059305168,82.55182058755008 512.6965712614555,84.33351419996393 508.24654883354384,86.75247397776138 498.34930221276295,91.33844582575887 494.6724688993796,95.02594571274824 492.2545640243341,102.89315803265947 488.8306932107943,106.45260761571296 487.1813867670405,106.70781855130588 486.16564154567726,106.07609716521085 484.7697086710039,103.03757721567229 482.6172147578679,99.99822345876578 480.20297128257494,99.36578903266127 472.20564216367825,98.99567096629892 466.49767942454037,102.30664367914073 464.2240768245351,104.80458490290664 460.09404126266037,107.90340567434714 458.5247818346802,109.93380939940357 457.96953410745857,111.63457687023663 458.10009421795706,113.33671124909654 459.04086392709655,117.07329378404938 458.5529101226967,119.92862004876065 457.11452324604227,121.90035168134966 453.17019241336453,125.55913002647685 448.92840728586873,132.886924902107 448.65292612535563,134.75928754551114 449.0620521498607,137.56268623106337 448.47836522904913,139.78215342809244 448.3840055476942,143.3887203017615 448.8242290150553,147.59883790412573 448.7360155914095,154.22045710868247 448.919517093586,161.58067339835634 448.54181645410034,163.45646626621703 447.03752791258495,165.6879390784669 445.51608740268307,166.24677518379804 443.6160472178611,165.3354017108885 438.3928392076098,163.9387338281058 435.3066321059677,163.51338169549706 433.11177316765225,164.07856564683277 428.3178411601589,166.41519327672972 426.1845626292443,166.51056014873097 424.5693424010717,165.12314542168008 424.1753686470289,160.65353720195174 423.7426056266819,158.649763092645 422.2728612993467,154.51908687082994 420.88151259910177,153.06271481465785 418.36720679202944,153.02876630259016 417.2563907748477,154.58016093828724 416.48742744247375,156.79634331135833 419.25191368169624,163.12188285312004 419.22078585978676,165.46660174964632 417.64512263225504,167.22259133931595 415.1905900711343,168.12509533604373 410.39826823290696,169.11879405588184 407.2528289201918,169.22756754358898 405.6458238892216,168.64005176264027 404.68705786445383,167.31874625726334 405.5312356151652,165.23975129634312 409.14340915408957,161.2402341502234 413.08631166259147,156.44966022206313 413.45832642439535,154.7685931380056 412.70080368405684,153.30542379676808 410.59798671610963,151.055849913241 406.63575158880013,149.29964371810388 401.81858383872896,148.68469911647207 399.03383137449055,149.39252225538098 397.37904170982324,150.8179882490076 396.4154937464098,153.49826189503665 396.64829187606006,155.77319311588474 396.1688137321788,160.0589849122648 394.9019593104225,164.289499540581 393.93187463911966,166.24308349782484 391.05519758804104,170.290218175586 388.0057935116923,171.99701517555445 382.51170715424894,174.59703680432324 379.72628232467457,175.3043723347687 372.4875329946975,173.7787751005278 369.0191332928302,173.6101332847403 364.36247095516825,173.79880047255836 360.71811151720135,175.44529022719087 351.69664778232016,182.82481202959775 348.6523062285542,184.80550542297067 346.9469551784106,186.35338244040508 344.1398451921672,186.0573283483625 342.4242977859958,182.26192950260918 340.5825273109004,179.73776420635852 338.1636288023299,178.9567534730429 335.2977918792224,178.78268842705688 328.7564742955732,177.3204185334181 324.29014157292886,177.8343126649653 316.78883315448985,180.79008740300674 313.8145671045509,181.75712324686856 308.08781201586964,182.08819750191674 307.1298981361904,180.7579063200476 306.62505030530355,178.15788493919786 304.94301480281405,176.8996410003491 302.4062678695967,176.79855477244735 300.1372929207129,176.28874017827422 298.69899640420255,173.96545058042557 298.4181153429266,169.3488628189226 297.80019752098053,167.6154457871786 296.17257508762594,165.55572215282177 293.55156506170135,164.85041941397333 291.8992796882908,165.00575647118137 288.1074674450298,166.45157030476935 281.6575996877903,167.8706004149118 275.05644961547074,167.87807405550984 273.0947379355136,166.43079319747926 272.51829211545225,163.7598586799436 270.9915039678997,160.09730030557694 269.04514742290115,159.38586215549526 260.227477475081,163.91600447131793 254.7837870934944,166.05623665671624 248.9755515863122,166.3365020187116 246.4998260687124,166.70250110395318 245.06377936111073,168.46150904620697 243.11106230915266,172.4384500529959 238.62811558063336,176.5795601906285 236.16493166194357,178.084334903304 234.56895269742148,178.5044722321419 230.202429497956,177.3650664255082 228.1368416524417,178.3281258770071 225.7853006124892,182.31281817570368 223.88136234215042,184.21023546214576 222.1625810280092,185.11043766481828 219.40893969045842,185.4162764768903 217.26775396732882,185.17621819917792 215.2493846094606,184.4084791468989 216.2051545832986,186.200590909707 219.8859476238084,190.2896176106342 223.734652498333,197.6648618690292 224.45553955643925,200.4634112719907 224.62490413119073,203.26601332672658 224.38658232985475,205.60741850981196 220.32778484576866,210.65310223164056 217.08343928665698,213.4914379429739 217.0790333576084,216.32243326734783 219.3163620745592,220.78088241587182 226.0065621778647,227.05786171918214 232.07842355507705,231.51076755020426 233.89398298135123,236.37470549059537 234.38534250337165,239.92354810304448 233.44447842813767,243.4196597815943 231.2949500241962,247.86256602894537 229.81710410474298,251.63743306983827 230.04386052960942,253.76788252541007 233.09109026905034,260.8166187366438 235.7930973270183,262.92056363660777 244.5217795750506,265.1460826993854 247.41614252803222,266.1789413537841 251.18774560302683,268.0675361430177 255.63424881550694,269.94222518577874 263.36155193183015,273.65935505784853 270.19352118617144,279.1252945712016 272.56150435751204,281.37409429593504 275.2817486356999,284.8129636298647 277.8706874776557,292.8092220073195 280.0901132090895,298.2085027821337 279.6538339452311,300.8884560048576 278.6160364460547,302.6406970065051 275.7877684813903,305.88797584006124 273.54398469691455,307.721890420628 271.0602979736777,306.8743415317358 268.3971518270354,303.2314650792906 264.29823281819085,295.9287169024949 262.150085760755,296.4173015237967 260.1733153789036,297.7843472716328 255.2496436262078,303.66310105933553 253.48827567732616,307.1049668707441 250.2146321431716,311.63033360587804 248.23380864327126,313.329170766439 246.29219266906208,312.95614063886575 244.3107036379268,310.5697639842457 242.63782808967073,309.85928369291213 240.29508664300084,309.82506277737446 232.73456542801347,314.4131391866953 227.49593991060433,318.4358009313229 218.02220070559676,329.1464304941404 207.7114689696485,339.06446243311586 203.91111566948496,340.39585074059426 202.09217375410594,339.4850211800849 200.59431707665672,337.76640332170206 197.2872713429428,332.0059480124667 190.23514621487135,321.14079635284116 185.41136964747048,312.11712739004963 182.36447036501818,309.62061656079175 179.73508788104195,308.59636619038395 177.32351792545538,309.76908456860446 174.426075632016,312.76267972409613 170.29528984616266,318.58167281837495 167.92287828766132,321.22569457315217 164.27920439732227,324.30009103790945 156.54506006202524,327.9714842234363 154.94440265958784,328.262466293365 151.67100193963526,327.24193157286834 149.70175740053475,325.9777040737812 146.47864862731114,325.4420695961128 143.25191305333948,325.25374473886484 139.161149769885,325.34176458564934 132.81179986572977,326.613872814141 131.1833171830832,327.5689004167314 129.6980870161485,327.5159223670884 124.049198489985,324.8100752221556 119.33700465084927,323.95405319382684 116.08548742179265,324.583413958731 114.47035452552463,325.7477671650799 112.97263095640258,327.6447642110165 111.97820326719767,329.66362748264226 111.6014179791505,331.8875166462455 111.6515393084582,334.49198853196344 112.12892390289099,336.9519201940814 114.38522204857718,340.4527260800446 119.09385293583219,346.34213766399364 119.85027418815767,347.889858807095 119.77648870736685,350.4493129640184 119.06269408091805,352.6809129211608 116.68593814355262,357.3556000741882 115.62498591031525,360.16046339408393 114.170817667603,362.22847195890216 109.56172014112937,365.2307056084499 108.52221277392141,366.55456127200284 104.54749568137981,374.3450917533943 102.43539045225438,377.8977409642423 100.75728687095177,383.84000683816237 97.700854171073,390.9986458003534 97.00311008980134,394.6545333266536 95.43221311605942,396.5549773835183 93.09999507795665,396.6480334547533 87.7041636840077,394.4511657409366 85.69640186906612,393.31583526089577 82.85000605116919,391.12721762860076 81.11926620866372,390.5531535741364 77.7652434553723,391.2721894233251 75.56378292568476,392.3095260910362 73.64613349274065,393.77884319194806 69.89012608930564,394.8940379254872 60.394816735024406,396.7322658481274 56.06578533982038,396.813530082973 51.81740041792649,396.2376571795693 47.82618492203063,394.61258090337003 44.903995082944036,390.56244910847886 41.600758555935585,387.4024180067027 36.35958849677924,384.62567258993374 34.20998676376879,381.88849018514145 32.40525823256714,378.3767984842458 30.769521987748025,374.6272609812783 29.685594974757446,371.3534399779309 27.970156122920354,369.3773730592836 25.3202227593103,368.2933493353495 21.882919025736893,366.179598139765 18.213095839742365,365.8266543459314 15.773553299943407,364.48016051731776 11.30069200669386,363.37258272676297 10.015566977179931,363.5977405124002 8.35649909819461,365.74162217737023 6.2306736451558375,370.89518022438426 4.584448805114595,376.53532880979463 5.559030458043573,380.0306010926614 5.290066339371945,383.7501959317577 6.472855303287095,387.43602788279185 6.7123023782540985,390.4114166845742 6.03110905773397,392.8928517157653 4.877703258023567,394.22492982608645 2.2679303437383775,395.91674889399565 0.3943834581777479,398.1284038845823 0.0,400.08657699590856 1.8552455470642637,404.6846486354016 1.8836918499192776,406.2380171345004 1.1040692227202005,409.5153379495065 1.9701562030836677,410.38961969400606 4.414760730489184,411.40565202156466 5.500804213852528,413.11031155284485 6.619953382967954,413.3161717625649 8.455836133630417,412.34374022136234 9.835838169534489,412.82095066911876 10.650008452913019,415.8663714711921 10.143124936195573,420.0537781248897 9.024239065420725,421.5725122986238 9.00446861856994,422.7142932129478 11.007484775701418,425.31710937757407 11.181617035256059,427.0064811575962 12.539677946545236,427.92855561190635 14.007737704478963,428.12913091673425 14.618509159361674,429.5911921014171 12.777268279124186,432.4436394969812 13.880787520320359,436.78752992489916 14.146790814723847,440.1191851625077 15.01362830980336,441.0751668427317 16.874907255900492,441.46168655072734 17.21488085344059,443.2463790807412 16.70464406797102,445.03724122699543 17.087111446427365,446.8602657718123 20.830900200506917,446.11094214187034 21.459737728113108,446.9017789235053 19.371287233603013,449.15911796371006 16.128930397336518,450.99198714452456 13.74953487742608,453.6279301800464 13.199353912594377,455.4112052023662 15.077289705104373,458.9656934575626 17.596332291150713,460.6202237363997 17.546312918517827,461.8194554534136 15.208493454978079,464.454643311205 15.85213721938912,468.8330539411815 15.919489272986423,471.35999768134997 15.038427980655175,473.0521625419546 14.966718971564978,474.7223391863434 16.293042918218976,476.6749929312817 15.818141575604168,478.12500954150465 14.662799924947619,479.33743183909036 13.747669085726473,483.04871522751233 12.86456791732388,484.63658716290786 10.983797425680642,486.52602436281916 11.277395192640633,487.4356651853064 13.193013580921262,488.58342097716496 13.912692221076686,489.8182974375152 13.49456245430058,491.5766086048642 15.426758317599438,493.62246388113635 14.714155175118059,495.5070833588546 13.208953310302796,496.68559870927106 13.790009118274192,499.87515135128336 12.599125227353891,503.66494669278705 10.345414238032857,506.4370909584602 9.923573020608167,508.05677032265453 10.349708458444846,509.4677225621418 10.115097102123222,511.7809047099133 11.787632361728885,514.1895337895477 13.216030635308487,514.9657752131733 16.604043253763212,515.3326795946537 18.879863711622786,516.4903617014925 20.69001833126857,516.8778508228982 22.809958228928608,516.2639868027672 24.855225939275968,518.2922419708002 26.713230278853786,519.5712745602707 29.672753757281825,520.6106756036929 35.2359205258019,520.5647371932595 41.77530376906899,518.992757931202 42.57879806484364,519.7636849202638 41.76913449034825,521.983339021875 42.35723360517707,522.7499687335419 44.044295399459465,523.1406023846638 46.38986498060053,526.3956577827198 48.799955311937886,527.5503351967384 49.22563246357699,529.5277670677791 54.05855658465608,533.7415050546285 57.769204143924355,534.3277166675659 58.89542099205666,538.0925005035735 60.237000998937994,538.610290394003 63.41954303427123,538.8992282204844 66.659846340776,539.5354810810827 72.34720257241071,544.9889875824904 74.05050745317412,552.1719096617865 75.27520392584121,554.5799385435635 77.29905546108021,557.5572757015582 76.98151025851885,559.2416404554062 75.27673464328208,561.7794326891272 75.16397936626512,563.4018589116117 76.84774767670645,566.3050026880181 80.58618717467671,571.0268111191756 81.53515148024724,576.2136023825426 86.29870139418928,578.20753121401 88.96010913522541,578.5306335108083 91.12116302001874,577.888820558085 92.57952795698252,576.9212721320839 93.62057894643061,575.069067612517 94.91305722831743,574.0145450681508 99.13810423578808,574.1299882277326 104.41634466003774,573.5342137086448 106.35355962239827,572.4032876828713 107.24230088543645,571.186812537685 107.95861882706457,568.9352702459914 109.3438750198536,566.3390746515216 114.57551191027542,564.909255272051 118.26614138486055,565.4704450935984 120.34929171213426,566.1287146546623 124.40420433366185,568.0126992418022 128.89967163241545,569.3606164689062 136.51649546841008,569.9275333484132 142.2774754737618,570.9435693556884 147.83250780864182,574.0626047125754 149.21648084585357,576.1848383182169 147.78872078292696,580.8187956270172 148.44810284671632,585.2167304882412 149.06804258872387,587.0372800168655 151.05422296163655,590.0558187091146 153.46793725985006,591.3306731690096 156.7867371646329,591.7036218057003 158.54981612088116,591.1430475379989 165.83633804155235,587.2944872352125 167.9217504722897,586.9621867777457 174.47966539495954,587.2725618584388 177.43377603155741,587.8227932604873 181.6388877625128,589.4911094022052 183.67473587904408,589.7759184779013 187.552866716999,588.3210538279886 193.33817183504138,582.7009180194234 194.51573906499,579.0373361479697 194.68393008400383,571.9299492587021 195.95281132613889,569.7735418873114 198.6459365146643,567.5059704895618 200.14403696499195,564.9952811280483 204.45411852202517,561.5860046219433 206.53253107781842,560.4506333349992 210.84166179088936,557.5354410776649 216.37971560087638,555.58422584305 220.16837834770976,555.8974619545648 233.5115505873414,561.8657174165737 237.02878477247572,565.4675527614694 239.81566343402275,567.4303183033328 243.67161081995215,568.9826766781396 246.5260201756833,569.7205761510625 248.75459487969027,569.9186312590639 250.9107028194167,569.5834771576289 254.22281547922057,568.591880162402 258.51612826473314,566.9401707951453 261.9247539191783,565.143851961644 262.76758073138114,565.2405500053414 264.0369052548831,566.6657725356799 264.04040917222744,569.877092320899 262.96320941482963,574.4155289550921 262.1092846401803,580.8390236767398 260.7336510728711,584.2881181806318 256.86762371083773,584.2372043736601 255.87397117165224,584.8085408174554 255.2687562299736,587.8294349278606 255.82695400465116,591.637640083035 258.66701445828596,596.6491272363138 258.61587467685655,597.6886107547878 256.2086197435329,599.8545134889755 254.74524225524326,602.502732163424 253.13810082614307,612.8532419923056 252.62419897072786,618.8571756982494 253.03467204458417,621.9322077327838 253.83986734511396,622.6864886814625 256.9150479683678,621.0833047697097 258.1948721095555,621.4545522719295 259.4199597509862,623.2055612206863 260.7338111776173,627.3244593420836 263.0970482889315,633.0852730000107 264.3286204356046,633.1338213211014 265.1684599610325,629.4988286040148 265.51130662060365,624.6813457557823 267.9135511262736,620.755012790074 269.185526083964,619.2438181811307 272.58525428638615,618.9482973715942 281.3127747374554,618.9079986214115 282.24967793442306,618.1100273457309 284.5614316438378,614.7529982728321 285.93148062622345,614.5708802360156 289.1002861075545,618.0268759874999 292.71704618976173,618.3665122235983 294.22463305434064,617.8483695393381 296.81152835221866,614.453432901529 298.98514791228115,610.9128126693581 300.49620990809706,610.1111834025759 302.8461854927122,611.1819184451344 307.46140248136754,616.1085249674135 310.384332416382,618.619535904787 313.17227912728845,621.9856414011246 314.5817507290664,624.1627027672719 315.76287181134325,627.2371456452888 315.37215026397985,629.6470190355508 315.666145811541,631.4665894252678 317.0306209497612,632.9795060909219 320.1373125287676,634.88667869881 327.7702180096009,638.3548217261398 333.4157435304471,641.4501670154257 337.4680883525328,644.417263375117 339.6714081136774,646.7885733642725 342.31059035253895,651.3344556697489 343.72370726620204,654.599475532653 344.47222363407946,659.5179211980936 344.7985478023502,663.3651858650486 345.6589368718175,667.6731268340998 347.11110755933083,673.3474443598778 348.9121095304692,678.0257485033086 351.00210331233325,680.7988075157167 354.94660420907366,681.4382044028649 359.41167821393526,680.540799484447 361.8911825532257,681.3091161492946 365.99741566279664,684.3063328234665 369.3949733723946,688.2442533275765 373.02764463967435,690.6110628484226 375.3611718435794,690.3022014399495 380.31342036770417,691.0416768051748 383.0566871368846,691.1946639134811 386.6253321866335,692.0046708641031 389.1536287262954,693.1271128663144 394.34660992800036,694.0968694929945 396.43505347930386,693.33876359415 397.9906700813146,692.1936192012994 400.08194108105783,687.2456551934004 402.86070293064114,684.6943889090077 404.10142108656987,684.1569446114731 408.8970831745679,684.7682184672735 410.40481038126484,684.2819080009922 413.4496172304447,684.0946286960115 416.2503336370431,682.630912034034 420.02106164877785,681.3893464226377 422.761465180953,679.9504776748489 425.4240500363314,681.1262214811247 429.2329146618771,684.9649273472041 433.0755259572857,691.8141798400895 436.02754534488645,694.9823773981109 442.93164962937544,703.332619201518 446.6229149841692,708.3590328976513 456.4046604150971,718.7021323013579 463.33689663328136,725.3874725241355 465.0396812945045,727.2022827245181 469.4115502846061,730.4195117776078 474.5627518864183,732.6212899195826 476.1896277076691,734.2099949476024 479.6772171026378,740.1672355457677 480.3705001186081,742.2636276568774 482.7740248354952,742.7634565073179 486.8410796028772,742.3090629396904 489.551605965269,744.6693774014958 491.9898351236344,748.1240324804872 493.4051409740978,749.4575531117057 495.3348780188143,750.316156809124 497.8378118054712,752.5113477254813 501.75433994154474,756.9007431020118 505.2236720934351,763.8004158036606 506.63643593594026,765.9057187173902 508.87304133153043,767.643035473746 511.80685413055835,769.3494762824364 513.9836643041467,772.0709320358405 514.3886638542391,775.0758547096328 509.52815123216146,780.5448448606085 509.32484224307257,782.0610202988832 510.9930883726797,783.6247426437823 512.8664288838432,784.27334065695 516.9620307292652,784.572718611922 519.1854740618205,785.2703789557561 523.5889023333874,786.026306333838 526.9334002152721,787.2277292391046 530.9796737881342,789.4449600172848 536.7964516472476,793.2718291507606 539.1259303629553,794.5276136853694 546.1876098387017,800.1960862184194 547.7199373633089,801.6486057616186 551.3907354135306,805.8727013523032 555.1983093248209,808.427775708192 559.2007810137383,811.9055661732374 560.5359308730483,812.3142516396309 570.0806990361543,810.4499897860353 574.1965482517236,809.8294290961795 576.1390233776042,808.4931215074422 578.0974331104137,800.5912396532958 583.7183094878833,791.9885166850868 586.2709450690617,789.0623700607646 588.6046160762082,787.7584376349643 597.3270810684209,785.0817571102868 603.5855266112942,781.9971469162263 607.6851942051904,780.2540575729357 613.8351057325199,778.7163785798376 619.4712897346651,776.3530615809133 621.6243508630256,776.149417052756 626.5506246419967,777.2786820811622 628.5942061698033,777.2802035683691 632.2736653188401,776.4637205195576 635.2480373044294,775.3397096226346 638.3321047181503,773.6593380997934 643.6874748762672,768.4733260940892 646.2511530740967,767.8613083306611 648.6037761992826,767.863620334741 657.1988175144036,769.0783821932795 660.8241185953768,769.0093235840362 663.133451330319,768.501305388585 666.1106048622521,766.6602410378161 675.1067637708784,759.0895615673415 677.5557119469628,756.6356489276878 683.1271661035319,740.234432185157 684.7747561241541,736.0287546156785 687.8228031427267,734.2185916567591 693.1150686617032,729.9754659438084 693.1976737224044,726.10775698253 692.1950581793285,722.7767513767485 691.9993097084057,720.5638963154897 692.2759694301116,718.3493761235247 694.949027832081,713.2832717292024 696.515491494779,708.7389334148565 698.266084193925,705.0760143105203 700.3764270996214,699.2273587574457 702.9679609882671,690.7133422923027 704.1036157453359,688.3882605883166 705.8870181059575,686.5280493561676 711.6590088147246,681.477937296105 715.7712503951221,678.69290356917 718.5610708578573,678.1639176415267 720.8204206903589,679.4986437695597 722.4782996083344,681.4311374038035 729.5158221948602,687.636886504684 734.556548466052,691.0405494247755 737.8080349662654,693.5038908404424 741.7939131119028,695.7064197681766 747.5095888426004,697.704758124663 750.5693313818219,697.7117308342235 751.560289535794,697.0628983765062 757.4873596761905,689.1085088934581 759.7401052855781,685.8948764902558 762.238348534736,683.0499925367185 763.9002547187828,681.7432397028426 765.5021007448885,681.3308949874319 769.4726829486176,682.4608799207369 773.8551350573749,684.1155875197838 776.6420417200703,684.7143549280752 780.9235029160626,684.7074572120056 791.1968908364152,680.3643578752169 796.128277193704,677.9869858790483 799.1589735652499,677.2059803540847 802.3567852680744,680.7648726357734 803.9066018876189,682.8461331124013 805.3897868039139,683.0208447538329 809.0705210657916,679.9181897187332 812.3019297334381,676.0555960555469 815.3054707656687,670.858386976347 817.565173517433,668.8043918661572 824.034021907155,664.6836935588102 827.1161674351406,663.543714902004 828.2426512725012,661.7938381811118 830.601084262976,654.2259417529461 835.1890012184751,643.851221289259 838.8825682112272,637.5900834170013 841.518999460766,636.7050451924933 843.830170996781,637.1824339575323 848.5469888302941,638.6482678073819 852.6302491203814,638.5950733328641 855.6264686036596,638.1146648748648 858.7889969744033,636.12024912393 861.3088035061855,635.935061552561 867.9337243196571,638.9914871761821 872.2159958670769,642.7326465829675 877.4103918010729,645.2161136625558 880.2231911899918,647.6775064100905 881.3670374466587,650.6861123463223 882.0691479082377,658.1937286153968 884.8191522936775,660.600893462476 886.8926350554757,661.3847923894045 893.0201685075205,661.3357522488302 894.9435949522136,660.2398970810539 898.0214665369745,656.9230181929777 900.0054813055667,655.4116126687578 905.1926370486532,652.2759437333345 908.0704748475465,651.2042794097899 911.2494417510259,652.3001084370181 920.4900069099823,658.7804541335847 922.127895749578,658.9818599047871 926.2892706679883,657.5200524301968 931.4863948074401,656.4289547213791 935.2853727634704,654.439986414551 937.7824120323529,650.5272213916876 939.3040999876923,649.3839851072883 943.358167046536,645.3504996677071 945.4546254841656,645.0618213581008 951.3926118539114,645.6397870303825 956.807458385683,644.201548012632 956.1266365519356,641.3119673573132 958.2301290560341,639.2686391261293 962.2546962213628,638.1008282623905 964.911238730163,636.4333142215596 965.8638146432635,634.354342945773 965.7603721059493,629.949428299338 964.7838793618299,627.1327571191168 966.3817736331823,624.6243150283981 970.7706148668358,620.1184935195141 972.0894928638016,617.1545955096251 972.7823205538315,613.7917692366439 974.5989592207565,611.4150974314861 976.6488167345163,610.1200130631125 981.0657934485541,608.2604391507705 984.9292546363448,608.468309168535 988.0268033172983,607.6083334465976 989.2738895204127,606.6103091972429 992.7637891237033,601.9324516034906 994.1677594321429,599.0881848010354 995.4039738293583,594.1535370896308 997.4407860440253,590.4161065776891 999.7782326761152,587.6113804196324 1002.6938340561657,582.1463165269026 999.7421784431574,572.1199273574326 997.6658561920459,570.7710582553914 994.5089975423764,569.7256044468218 993.175452731005,568.5600793340456 992.5005305357544,567.0843534544136 991.901018918601,563.3672014817419 992.2633582826144,560.3721876614212 993.1357545248056,558.4337447894939 994.7939343077549,557.4900870906649 997.0103111999864,554.7632308542852 997.1825449889541,552.3081173868602 997.8233095372233,549.3627089005494 1000.9311947476468,545.4440287584473 1001.8950800394063,543.8518271354842 1002.3343459552709,541.0504413499156 998.8457894461674,536.3474443070171 998.6289155627036,532.3450812697273 999.0260343891688,530.2909087643347 1001.054896205849,528.2579846360318 1001.7430617455601,526.7311212118366 1001.4115815118627,521.5159334771308 998.7305981447823,518.6255981642935 998.1318402339784,516.9379657861973 999.1548506619611,513.3016257753662 1001.3195014969574,509.8381341099548 1001.8411154880787,507.4319290143315 1001.713188801814,505.66789225738086 998.827591334391,502.7829643413152 994.6987772434702,499.39561652607455 993.1446648390647,497.612023409734 991.7726984041864,495.35273809844574 991.1596065501374,493.4709347115661 991.5331322520979,487.0060477640928 989.9600548282091,484.8908057240003 991.3088217595313,479.2034005447916 992.8631759505104,475.14036643906235 995.6972685013048,471.0282968472853 998.8814592238871,471.2530879509237 1002.384557671267,468.8099987922365 1005.0903292369292,468.38176093895305 1007.9307321666646,468.41964475805423 1009.4725194860393,465.85006223207967 1009.9255573481835,456.18135405523566 1010.3150401042042,453.86038211746694 1011.4490937650837,451.7795350757169 1015.2929751602476,447.50262079068557 1017.0525970046299,443.50013453480466 1017.0539269168137,438.1337291762199 1016.2476375694563,434.7672635881303 1014.751869189209,432.84483652286383 1013.8668452774479,430.7686572877338 1013.9468941130657,429.1295872269453 1014.7546857425111,427.13795524112805 1018.1970919771986,423.2130787680011 1019.2108485235157,421.2657720301515 1019.2294916241295,416.1669624362209 1021.0501299345568,408.69542774221094 1024.0,398.6079217341643 1022.6947850367212,392.67115226653743 1020.2061034472397,387.6637337526276 1017.6264438265546,385.44747806335266 1014.6197769368986,384.86284602416674 1009.2335216249836,382.2664042869112 1004.604017038699,379.5857225038659 1002.8883171774343,377.4590837727833 1004.9215543903041,371.82315819305006 1005.3194419655205,369.83525344872504 1005.5218825591967,366.2250418009287 1006.2054709437406,364.5712060709221 1008.0815680436274,362.3342485504757 1012.3248878037316,359.32879325742545 1014.2773400617797,357.22018013875817 1016.5629671310417,353.0600301563294 1017.3728583766649,351.1346697877668 1017.8086685229813,348.2643229874861 1017.7527999039164,346.1590830660721 1019.6157188254706,334.9484778068974 1019.6124593690959,332.8987727581838 1018.8688174771795,331.0964897437512 1017.2226905201479,328.9041776104962 1016.6856589714062,327.16994673526244 1017.6877075350408,324.8183469268211 1018.3058454922073,321.46508509756643 1018.5260995039216,318.19593329575724 1017.7945610146662,314.95918624183565 1016.7349746455297,312.07278396682545 1015.3907654170214,310.4240470608772 1013.7321785279549,311.5688876049781 1012.7936324117188,313.6340869058129 1010.2853183965638,317.1263930496662 1007.0675259092335,320.1036221201986 1001.9931979947802,322.2461139960425 998.2479790824849,321.5597922870414 995.8227365762126,318.52189569604053 992.6763218848967,312.1745128931038 992.058477299595,310.0936079407222 992.1816809379686,304.3088360213104 989.554470408994,302.9036504385336 987.7726648835994,302.5057678813388 981.7318279655584,304.41315710712024 975.820966292582,307.41878169925224 972.0561521698412,308.7084185814027 968.2218303367902,309.65932067913576 959.4412872692328,314.54450177669514 956.4987329335473,315.5357875397637 954.1529667394783,314.73933675714454 947.3628029020671,314.6563004759614 941.6848990908979,315.61393073543525 937.5635105268843,314.2061296788365 935.0824811144689,311.7285305391672 931.8623966888078,307.16345065383416 931.0867706003515,304.87649713332877 930.3306328564452,300.9604784936057 929.5365586683549,299.5730853736088 927.5588764670855,299.50206079793315 923.341236627666,301.09250107986406 920.9955891516278,300.23854028594246 919.9824621401599,298.65392312965935 919.4894491153972,296.625325134083 919.6603985673262,293.69831317921296 920.1949120426993,291.42614713431067 921.4849193285521,289.82242761757755 922.038777458556,288.3017506633013 920.6326995668934,285.3668069826492 918.2207906662235,282.3368175408634 916.251871663239,277.04530222544577 915.4581103983379,272.0544063740026 915.574164792536,269.7930395754888 916.5495298259798,266.7658104060283 919.0221132043374,261.84482039383397 920.9687993456408,259.5278516523041 925.0250684999336,256.5181431529106 925.9112883157769,255.18334636481325 926.1267230310432,251.6490175894021 923.6521515180197,241.82424922208668 921.2956379105806,236.95681828299257 918.4003167818207,234.214596758712 913.1869156228834,231.2261262319911 909.9035093892121,228.84247134557302 906.2511914640409,227.69113041537707 901.7700465744194,228.07329768302645 899.4128030993028,228.69965447917355 897.8857326406783,229.79095503530368 892.1798362349759,237.4868778147778 887.8141488522041,244.80183375234662 886.9595488916475,247.01678352893703 885.571222964369,248.36291295248452 883.831324861638,245.50975104303689 883.594843014002,242.66798538077444 882.7076942831732,237.19548445428222 880.489848494202,228.8605319055581 878.9551483318046,226.06021380860307 875.5702980339968,221.30021938325763 872.0465353434705,217.91836937673554 870.4507832279356,217.09317541495216 868.4011723189236,216.96744180341523 866.1043732923913,217.54418939970742 860.8627601079613,217.3856009045794 860.366799909477,216.79922478550327 859.8094997396175,213.79600235180123 859.0676971790657,207.14079960488107 860.2776349651407,204.8209583561063 863.3108557610037,191.7681893707428 863.4858045630431,187.7761369812947 864.2448771315093,185.87214290125178 864.3755033247878,182.55964888870562 863.9815134888802,177.53119419320103 863.3098093272772,173.6413290632538 862.4070854109078,172.31453521662036 861.4220335394139,172.58985472529014 860.3293229506475,171.4208848176836 856.1331926618049,174.93272160566448 853.9620678540324,176.4028069454606 851.948809230498,177.27106664901646 847.3091373039268,177.3719964444981 844.0330174738592,178.05384516906122 840.9748793074012,179.64336241326555 836.5511467027657,183.05463073966098 832.6663091403057,187.98926053105617 829.5347877896745,193.56066601989858 828.4600975173598,194.76069280350885 827.2439664927072,194.40224548929916 823.3710906277129,190.03528458888638 819.7160150853798,187.02077734224974 816.2104898867165,174.85574236791547 816.1336427323185,173.03829166153037 814.9813122592363,169.09632834759543 814.1752124733686,167.52249684345122 811.4971631871156,160.58723373081887 810.9963614678567,156.53998494693656 809.7870705326537,155.18734445921018 808.3025491698008,151.0034106679093 807.1866109060296,146.87547928401307 806.9512847873032,142.34598668235844 808.0600011164566,137.64409264724316 810.4334580544323,132.81561388699765 810.6916402417723,130.88420855479353 812.8354864440411,123.85418853674605 812.4984789633847,121.80841995919047 806.863858750471,117.22918968296642 805.6623306150168,114.13051062619468 804.1563301011508,111.15330280903822 802.327093154765,108.2968403578817 798.1084124139032,105.10511614598113 796.1679181401016,100.24697849806967 795.9303770676763,97.2463307624704 796.2013146682656,89.31096865619872 797.8077147285726,84.05823168346956 797.7493461662202,82.55698876495012 796.3098293419556,76.04725702195901 796.7330853835059,73.7571268557025 795.1183597428608,68.44847498299907 792.2053212212238,65.52412840003706 790.9483955197294,65.52229080170412" /><circle cx="437.1695828398027" cy="483.84518838760647" fill="rgb(100%,100%,100%)" r="16" stroke="grey" stroke-width="8" /></svg>